<?xml version="1.0" encoding="utf-8"?>
<!-- Generator: Adobe Illustrator 25.0.1, SVG Export Plug-In . SVG Version: 6.00 Build 0)  -->
<svg version="1.1" id="Ebene_1" xmlns="http://www.w3.org/2000/svg" xmlns:xlink="http://www.w3.org/1999/xlink" x="0px" y="0px"
	 viewBox="0 0 265.5 83.9" style="enable-background:new 0 0 265.5 83.9;" xml:space="preserve">
<style type="text/css">
	.st0{fill:#262626;}
	.st1{fill:#FF6040;}
	.st2{fill:#FFEA00;}
	.st3{fill:#A8A7A7;}
</style>
<g id="Ebene_2_1_">
	<g id="Ebene_1-2">
		<rect x="78.5" class="st0" width="20.4" height="20.5"/>
		<rect x="78.5" y="22.6" class="st1" width="20.4" height="20.5"/>
		<rect x="78.5" y="45.3" class="st2" width="20.4" height="20.5"/>
		<rect x="78.5" y="68" class="st3" width="20.4" height="10.2"/>
		
			<rect x="47.3" y="21.8" transform="matrix(0.9855 -0.1695 0.1695 0.9855 -4.5917 10.21)" class="st1" width="20.5" height="20.5"/>
		
			<rect x="51.1" y="44.1" transform="matrix(0.9855 -0.1695 0.1695 0.9855 -8.3192 11.1837)" class="st2" width="20.4" height="20.5"/>
		
			<rect x="54.1" y="66.5" transform="matrix(0.9855 -0.1695 0.1695 0.9855 -11.2136 11.9406)" class="st3" width="20.5" height="10.2"/>
		
			<rect x="22.2" y="43.4" transform="matrix(0.9311 -0.3649 0.3649 0.9311 -17.3461 15.5155)" class="st2" width="20.5" height="20.5"/>
		
			<rect x="28.6" y="64.9" transform="matrix(0.9311 -0.3649 0.3649 0.9311 -22.8796 18.9845)" class="st3" width="20.5" height="10.2"/>
		<rect x="1" y="63.6" transform="matrix(0.8045 -0.594 0.594 0.8045 -38.6122 20.1236)" class="st3" width="20.5" height="10.2"/>
		<path class="st0" d="M121.1,16V1.2h4.1c2.3,0,3.5,0.9,3.5,3.5c0,1.8-0.3,3-2.2,3.5l0,0c2,0.4,2.5,1.7,2.5,3.6
			c0,2.7-1.3,4.1-3.7,4.1L121.1,16z M124.9,7.8c1.9,0,2.5-1.3,2.5-3c0-2.5-1.3-2.5-2.4-2.5h-2.6v5.5H124.9z M122.4,14.9h2.1
			c2.2,0,3.2-0.7,3.2-2.9c0-1.3-0.4-3.1-2.6-3.1h-2.7L122.4,14.9z"/>
		<path class="st0" d="M137.7,5.7V16h-1.1v-1.1l0,0c-0.6,0.9-1.6,1.4-2.6,1.4c-2.1,0-2.7-1.6-2.7-3.2V5.7h1.2v7.1
			c0,0.3-0.1,2.4,1.7,2.4c1.2,0,2.2-1,2.2-2.2V5.7H137.7z"/>
		<path class="st0" d="M141.5,16h-1.2V5.7h1.2v1.3l0,0C142,6,143,5.5,144,5.5c2.6,0,2.8,1.9,2.8,3.2V16h-1.2V8.8
			c0-1.2-0.5-2.3-1.9-2.3c-1.1,0-2.2,0.8-2.2,3.1L141.5,16z"/>
		<path class="st0" d="M154.7,14.7L154.7,14.7c-0.5,1-1.5,1.5-2.6,1.5c-3,0-3.1-3-3.1-5.4c0-2,0-5.4,3.2-5.4c1,0,1.9,0.5,2.5,1.2
			l0,0V1.2h1.2V14c0,0.7,0,1.3,0.1,2h-1.2L154.7,14.7z M154.7,11.8V9.9c0-0.6,0-3.5-2.3-3.5s-2.2,2-2.2,4.4c0,3.8,0.9,4.4,2.2,4.4
			C153.6,15.2,154.7,14.3,154.7,11.8L154.7,11.8z"/>
		<path class="st0" d="M160.2,11.1v0.8c0,1.4,0.4,3.3,2.3,3.3c1.2,0.1,2.2-0.8,2.3-1.9c0-0.1,0-0.3,0-0.4h1.3
			c-0.1,2.5-1.5,3.4-3.6,3.4c-1.8,0-3.6-0.7-3.6-3.8V9.8c0-3,1.2-4.3,3.6-4.3c3.6,0,3.6,2.5,3.6,5.6H160.2z M164.9,10.1
			c0-2.3-0.4-3.7-2.3-3.7s-2.3,1.4-2.3,3.7H164.9z"/>
		<path class="st0" d="M171.1,16.2c-2.2,0-3.1-1.1-3.1-3.3h1.2c0,1.4,0.3,2.4,1.9,2.4c0.9,0.1,1.7-0.6,1.8-1.4c0-0.1,0-0.3,0-0.4
			c0-2.7-4.6-2-4.6-5.4c0-1.9,1.3-2.6,3.1-2.6c2.1,0,2.7,1.4,2.7,3h-1.2c-0.1-1.3-0.4-2-1.8-2c-0.8-0.1-1.5,0.5-1.6,1.4
			c0,0,0,0.1,0,0.1c0,2.6,4.6,1.9,4.6,5.3C174.1,15.2,173,16.2,171.1,16.2z"/>
		<path class="st0" d="M178.2,14.4L178.2,14.4l2.5-8.8h1.2l-3,10.3h-1.4l-3.1-10.3h1.3L178.2,14.4z"/>
		<path class="st0" d="M184.3,11.1v0.8c0,1.4,0.4,3.3,2.3,3.3c1.2,0.1,2.2-0.8,2.3-1.9c0-0.1,0-0.3,0-0.4h1.3
			c-0.1,2.5-1.5,3.4-3.6,3.4c-1.8,0-3.6-0.7-3.6-3.8V9.8c0-3,1.2-4.3,3.6-4.3c3.6,0,3.6,2.5,3.6,5.6H184.3z M189,10.1
			c0-2.3-0.4-3.7-2.3-3.7s-2.3,1.4-2.3,3.7H189z"/>
		<path class="st0" d="M193.8,7.1L193.8,7.1c0.6-1,1.7-1.6,2.8-1.6v1.2c-1.3-0.2-2.6,0.7-2.9,2c0,0.2,0,0.4,0,0.6V16h-1.2V5.7h1.2
			L193.8,7.1z"/>
		<path class="st0" d="M198.1,16c0.1-0.3,0.1-0.7,0.1-1V1.2h1.2v5.6l0,0c0.5-0.9,1.6-1.5,2.6-1.4c3.4,0,3.1,3.5,3.1,5.4
			c0,2.3-0.2,5.4-3.2,5.4c-1.1,0.1-2.1-0.5-2.6-1.4l0,0V16H198.1z M201.6,15.2c2.3,0,2.3-1.9,2.3-4.3s-0.1-4.4-2.3-4.4
			c-2,0-2.2,2.7-2.2,4.2S199.4,15.2,201.6,15.2L201.6,15.2z"/>
		<path class="st0" d="M212.6,14.7L212.6,14.7c-0.7,1-1.8,1.5-2.9,1.5c-1.5,0.1-2.8-1.1-2.9-2.6c0-0.1,0-0.3,0-0.4
			c0-3.6,3.6-3.3,5.7-3.4V8.9c0-1.5-0.4-2.4-2.1-2.4c-1.1,0-2,0.6-2,1.8h-1.3c0.1-2,1.6-2.8,3.4-2.8c1,0,3.2,0.1,3.2,2.7v5.2
			c0,0.9,0,1.7,0.1,2.6h-1.3L212.6,14.7z M212.5,10.7c-1.8,0.1-4.4-0.1-4.4,2.4c0,1.2,0.6,2.1,1.9,2.1c1.4-0.1,2.5-1.2,2.6-2.6V10.7
			z"/>
		<path class="st0" d="M218.4,16h-1.2V5.7h1.2v1.3l0,0c0.5-0.9,1.5-1.4,2.5-1.5c2.6,0,2.8,1.9,2.8,3.2V16h-1.2V8.8
			c0-1.2-0.5-2.3-1.9-2.3c-1.1,0-2.2,0.8-2.2,3.1L218.4,16z"/>
		<path class="st0" d="M231.6,14.7L231.6,14.7c-0.5,1-1.5,1.6-2.6,1.5c-3,0-3.1-3-3.1-5.4c0-2,0-5.4,3.2-5.4c1,0,1.9,0.5,2.5,1.2
			l0,0V1.2h1.2V14c0,0.7,0,1.4,0.1,2h-1.2L231.6,14.7z M231.6,11.8V9.9c0-0.6,0-3.5-2.3-3.5s-2.2,2-2.2,4.4c0,3.8,0.9,4.4,2.2,4.4
			C230.5,15.2,231.6,14.3,231.6,11.8z"/>
		<path class="st0" d="M127.5,24.3c1.5-0.1,2.9,0.3,4.2,1c1.3,0.9,2.3,2.3,2.5,3.9c0.4,2.2,0.6,4.4,0.5,6.7c0,4-0.4,6.2-1.4,7.8
			c-1.4,2.2-4.1,2.8-7.3,2.8H121V24.3H127.5z M126.1,44c2.4,0,4.4-0.3,5.2-2.6c0.5-2.1,0.7-4.2,0.6-6.3c0-3.3-0.2-5.3-0.9-6.6
			c-0.8-1.4-2.3-1.7-4-1.7h-3.2V44H126.1z"/>
		<path class="st0" d="M149.8,33.1c0.6,1.6,0.9,3.4,0.8,5.2v1.3h-8.7v0.4c0,3.6,1,4.9,3,4.9c1.7,0,2.6-1,2.9-3h2.8
			c-0.1,3.4-1.9,5.1-5.6,5.1c-1.1,0.1-2.3-0.2-3.3-0.7c-1.7-1.1-2.4-2.7-2.4-7.5c0-5.8,1.6-8,5.7-8C147,30.6,148.9,31.2,149.8,33.1z
			 M147.9,37.6v-0.5c0-3.3-1.1-4.6-3.1-4.6s-3,1.5-3,4.9v0.2L147.9,37.6z"/>
		<path class="st0" d="M157.4,31v11.3c0,1.3,1.1,2.4,2.5,2.4c0,0,0,0,0.1,0c1.8,0,2.9-1.6,2.9-3.4V31h2.6v13.5c0,0.7,0.1,1.3,0.1,2
			H163v-1.9h-0.1c-0.8,1.4-2.4,2.2-4,2.1c-2.7,0-4-1.5-4-4.2V31H157.4z"/>
		<path class="st0" d="M172.3,31h3.3v2h-3.3v9.4c0,1.9,0.8,2.2,2.2,2.2c0.4,0,0.8,0,1.1-0.1v1.9c-0.9,0.2-1.7,0.2-2.6,0.2
			c-2.7,0-3.4-1-3.4-3.1V33H167v-2h2.6v-3l2.6-1.1L172.3,31z"/>
		<path class="st0" d="M187.6,34.9v0.3H185V35c0-1.4-0.9-2.3-2.6-2.3s-2.5,0.7-2.5,2c0,1.5,1.1,1.6,5.5,3.9c1.5,0.7,2.4,2.2,2.4,3.8
			c0,2.9-2,4.4-5.4,4.4S177,45.2,177,42v-0.2h2.7V42c0,1.9,0.9,2.7,2.6,2.7s2.8-0.8,2.8-2.2c0-0.7-0.4-1.4-1-1.8
			c-0.8-0.5-2-1-2.9-1.5c-0.6-0.3-1.3-0.7-1.9-1c-1.2-0.6-2-1.9-2-3.2c0-2.7,2.1-4.2,5.2-4.2S187.6,32.2,187.6,34.9z"/>
		<path class="st0" d="M202.1,35.6V36h-2.6c0-2.3-0.8-3.2-2.5-3.2c-2,0-3,1.4-3,5.9c0,4.1,0.9,6,2.9,6c1.7,0,2.7-1.1,2.7-3.3h2.6
			c0,3.4-2.1,5.5-5.3,5.5c-2.1,0-3.6-0.7-4.6-2.5c-0.6-1.2-0.9-2.8-0.9-5.5c0-6.1,1.5-8.2,5.8-8.2C200.4,30.7,202.1,32.4,202.1,35.6
			z"/>
		<path class="st0" d="M209.3,24.3V33c0.8-1.6,2.4-2.5,4.1-2.3c2.9,0,4.2,1.6,4.2,4.7v11.1H215V36.1c0-2.4-0.8-3.4-2.6-3.4
			c-2.2,0-3.2,1.7-3.2,3.8v10h-2.6V24.3H209.3z"/>
		<path class="st0" d="M232.5,33.1c0.6,1.6,0.9,3.4,0.8,5.2v1.3h-8.7v0.4c0,3.6,1,4.9,3,4.9c1.7,0,2.6-1,2.9-3h2.8
			c-0.1,3.4-1.9,5.1-5.6,5.1c-1.1,0.1-2.3-0.2-3.3-0.7c-1.7-1.1-2.5-2.7-2.5-7.5c0-5.8,1.7-8,5.7-8
			C229.7,30.6,231.5,31.2,232.5,33.1z M230.6,37.6v-0.5c0-3.3-1.1-4.6-3.1-4.6s-3,1.5-3,4.9v0.2L230.6,37.6z"/>
		<path class="st0" d="M135.2,59v0.5h-3.3v-0.3c0-2.7-1.2-4.1-3.7-4.1s-3.9,1.3-3.9,3.5s1.8,3.6,4.5,4.8c1.1,0.5,2.1,1.1,3,1.7
			c3.1,2.2,3.5,4,3.5,6c0,4.1-3.1,6.6-7.6,6.6c-4.2,0-7.3-1.9-7.3-7v-1h3.1v0.7c0,3.3,2.2,4.5,4.2,4.5c2.5,0,4.3-1.4,4.3-3.9
			c0-1.4-0.8-2.8-2.9-3.9c-4-2-5.5-2.9-6.6-4.2c-1-1.2-1.6-2.7-1.6-4.2c0-4,2.8-6.5,7.4-6.5C132.8,52.3,135.2,54.6,135.2,59z"/>
		<path class="st0" d="M143.2,60.2h3.6v2.2h-3.6v10.5c0,2.1,0.9,2.5,2.5,2.5c0.4,0,0.8,0,1.3-0.1v2.2c-0.9,0.2-1.9,0.2-2.9,0.2
			c-3,0-3.8-1.1-3.8-3.4V62.4h-2.9v-2.2h2.9v-3.3l2.9-1.3V60.2z"/>
		<path class="st0" d="M161,64.9v9.1c0,1.1,0.1,2.2,0.3,3.3h-2.9l-0.1-2.5h-0.1c-0.6,1.8-2.5,3-4.4,2.9c-3,0-4.7-1.9-4.7-5.3
			c0-3.9,2-5.7,7.8-5.7h1.2v-1.5c0-2-0.7-3.3-2.8-3.3c-1.4-0.2-2.6,0.8-2.8,2.1c0,0.1,0,0.3,0,0.4c0,0.3,0,0.4,0,0.6h-3
			c0.1-3.5,1.9-5.2,5.8-5.2S161,61.7,161,64.9z M154.8,75.4c2.3,0,3.5-2.1,3.5-5.4c0-0.4,0-0.8,0-1.2c-0.2,0-0.7,0-1.1,0
			c-3.4,0-5.1,0.8-5.1,3.5C152,74.3,153,75.4,154.8,75.4L154.8,75.4z"/>
		<path class="st0" d="M173.9,60v3c-0.5-0.1-0.9-0.1-1.4-0.1c-1.9-0.2-3.6,1.2-3.8,3.1c0,0.2,0,0.4,0,0.7v10.8h-2.9v-15
			c0-0.4,0-1.1-0.1-2.2h2.9v2.7c0.9-2.1,1.9-2.9,4.4-2.9C173.3,60,173.6,60,173.9,60z"/>
		<path class="st0" d="M181.9,60.2h3.6v2.2h-3.6v10.5c0,2.1,0.9,2.5,2.4,2.5c0.4,0,0.8,0,1.3-0.1v2.2c-0.9,0.2-1.9,0.2-2.9,0.2
			c-3,0-3.8-1.1-3.8-3.4V62.4h-2.9v-2.2h2.9v-3.3l2.9-1.3L181.9,60.2z"/>
		<path class="st0" d="M191,60.2v12.6c0,1.5,1.3,2.7,2.7,2.7c0,0,0.1,0,0.1,0c2,0,3.2-1.7,3.2-3.8V60.2h2.9v15
			c0,0.8,0.1,1.5,0.1,2.2h-2.9v-2.1h-0.1c-0.9,1.6-2.7,2.5-4.5,2.3c-3,0-4.5-1.7-4.5-4.6V60.2H191z"/>
		<path class="st0" d="M216.3,61.8c1,1.3,1.4,3.4,1.4,6.5c0.1,1.9-0.1,3.9-0.5,5.8c-0.5,2.3-2.7,3.9-5,3.7c-1.6,0.1-3-0.7-3.8-2.1
			v8.3h-3V60.2h2.9v2.1c0.7-1.5,2.2-2.5,3.8-2.4C213.7,59.8,215.3,60.5,216.3,61.8z M208.4,72.7c0.4,1.7,1.4,2.8,3.1,2.8
			c2.2,0,3.3-1.9,3.3-5.9v-2c0-0.9-0.1-1.8-0.3-2.7c-0.5-1.7-1.4-2.6-3.2-2.6c-0.9,0-1.8,0.4-2.3,1.2c-0.6,0.9-0.9,2.4-0.9,5.1
			C208,70,208.1,71.4,208.4,72.7z"/>
		<path class="st0" d="M233,64.5v0.3h-2.9v-0.2c0-1.6-1-2.5-2.9-2.5c-1.7,0-2.7,0.8-2.7,2.2c0,1.6,1.2,1.8,6.1,4.3
			c1.7,0.7,2.7,2.4,2.6,4.2c0,3.2-2.2,4.9-6,4.9s-5.9-1.7-5.9-5.2v-0.3h3v0.2c0,2.1,1,3,2.9,3s3.1-0.9,3.1-2.4c0-0.8-0.4-1.6-1.2-2
			c-0.9-0.5-2.2-1.2-3.2-1.7c-0.7-0.3-1.4-0.7-2.1-1.1c-1.4-0.7-2.2-2.1-2.2-3.6c0-3,2.3-4.7,5.8-4.7S233,61.5,233,64.5z"/>
		<path class="st0" d="M242.9,72.2V73c0,1.4,0.4,3.3,2.3,3.3c1.2,0.1,2.2-0.8,2.3-2c0-0.1,0-0.3,0-0.4h1.3c-0.1,2.5-1.5,3.3-3.6,3.3
			c-1.8,0-3.6-0.7-3.6-3.8V71c0-3,1.2-4.4,3.6-4.4c3.6,0,3.6,2.6,3.6,5.6L242.9,72.2z M247.6,71.2c0-2.3-0.4-3.7-2.3-3.7
			s-2.3,1.4-2.3,3.7H247.6z"/>
		<path class="st0" d="M251.3,75.6h1.5v1.6h-1.5V75.6z"/>
		<path class="st0" d="M263.1,62.4h1.3l-4.1,14.8h-1.6l-4.1-14.8h1.4l3.5,13.2l0,0L263.1,62.4z"/>
		<path class="st0" d="M264,75.6h1.5v1.6H264V75.6z"/>
	</g>
</g>
</svg>
