<?xml version="1.0" encoding="utf-8"?>
<!-- Generator: Adobe Illustrator 21.1.0, SVG Export Plug-In . SVG Version: 6.00 Build 0)  -->
<svg version="1.1" id="Logo" xmlns="http://www.w3.org/2000/svg" xmlns:xlink="http://www.w3.org/1999/xlink" x="0px" y="0px"
	 viewBox="0 0 1930 828" style="enable-background:new 0 0 1930 828;" xml:space="preserve">
<path d="M761.4,390.5c0.3-16-2.2-32.2-9.1-46.7c-10.3-21.9-28.8-37.5-52.4-43.8c-15.6-4.2-31.9-4.7-48-4.7c-17,0-34,0-51.1,0v104.7
	v104.7c17,0,34,0,51.1,0c16.1,0,32.4-0.5,48-4.7c23.6-6.4,42.1-22,52.4-43.8c6.7-14.1,9.2-29.8,9.1-45.4l0,0L761.4,390.5
	L761.4,390.5z M734.7,409.1L734.7,409.1c0.1,12.3-1.7,24.8-6.2,36c-7.1,17.3-19.7,29.7-35.8,34.8c-10.7,3.3-21.8,3.7-32.8,3.7
	c-11.6,0-23.3,0-34.9,0v-83v-83c11.6,0,23.3,0,34.9,0c11,0,22.2,0.4,32.8,3.7c16.1,5,28.8,17.4,35.8,34.8
	c4.7,11.5,6.4,24.4,6.2,37.1l0,0V409.1z"/>
<g>
	<rect x="1083.6" y="281.4" width="23.2" height="223.1"/>
	<polygon points="1110.1,425.9 1110.1,424.1 1172.3,350.2 1196.9,350.2 1137.2,422.8 1137.2,424.1 1202.2,504.5 1175.3,504.5 	"/>
</g>
<path d="M912.7,380.9c-0.8-1.9-1.7-3.7-2.7-5.6c-10.5-18.7-30.3-27.7-51.2-27.7c-6.8,0-13.7,0.8-20.3,2.5
	c-22.1,5.7-38.3,21.7-44.6,43.7c-0.1,0.3-0.1,0.5-0.2,0.8c-3.7,13.4-4.9,27.5-3.9,41.4c0.9,13.3,3.5,27.4,10.1,39
	c12.5,21.9,35.5,31.7,60,31.7c38.3,0,54.3-13.4,54.3-13.4v-17.7c0,0.9-6.8,3.4-7.7,3.8c-2.6,1.1-5.4,2.1-8.1,2.9
	c-5.1,1.6-10.4,2.7-15.7,3.6c-12,2-24.5,2.6-36.4-0.8c-4.4-1.3-8.7-3.1-12.6-5.6c-10.2-6.3-15.3-15.2-18.1-26.6
	c-1.6-6.5-2.6-13.2-2.9-19.9c0,0,104.6,0,104.6,0c0.4,0,0.3-27.9,0.1-30.4C917,395.2,915.6,387.8,912.7,380.9z M894.2,414.7
	c-27.1-0.3-54.2-0.5-81.3-0.8c0-4,0.4-10.1,2.6-17c1.6-5,4.3-13.4,12.1-20.4c9.6-8.7,20.9-9.7,25.1-10c4.7-0.4,14.8-1.1,24.3,5.3
	c6.2,4.2,9.3,9.5,11.3,13.2C894.9,396.8,894.8,408.5,894.2,414.7z"/>
<path d="M1039.6,356.7c0,6.2,0,12.3,0,18.5c-4.1-1.6-9.6-3.5-16.3-5c-4.8-1.1-11.7-2.4-20.1-3c-8.6-0.5-13.3-0.8-19.4,1
	c-3.9,1.2-8.7,2.7-12,7.1c-2.7,3.6-3.6,8.2-3.7,8.7c-0.3,1.5-0.4,2.7-0.4,4.1c-0.2,3.1-0.3,5.7,0.6,8.7c0.2,0.6,0.9,2.9,2.7,5.3
	c2,2.8,4.5,4.6,8.3,6.5c4,2.1,7.5,3.3,17.1,6.1c7,2,6.9,1.9,12.1,3.4c7.8,2.3,11.8,3.5,15.8,5.3c4.2,1.9,7.9,3.6,11.8,7.1
	c2.1,1.8,6.2,5.5,8.7,11.7c1.9,4.5,2.2,8.5,2.5,13.7c0.3,3.9,0.1,7,0,8.8c-0.2,3.4-0.4,7.4-1.5,11.3c-2.2,8.4-7.4,13.9-9.5,16.1
	c-5.6,5.8-11.4,8.4-15.1,10c-7.7,3.4-14.2,4-20.2,4.6c-7.7,0.8-13.6,0.3-17.3,0c-2.4-0.2-9.9-0.9-19.5-3.4
	c-5.6-1.5-12.6-3.7-20.4-7.4c0-6.3,0-12.6,0-18.9c6.4,3.4,12,5.3,16.1,6.5c8.6,2.4,15.4,2.8,24.7,3.4c8,0.5,11.7,0.2,13.2,0
	c5-0.5,9.7-1,14.9-3.7c3.1-1.6,8.2-4.2,10.9-10c1.8-3.8,1.8-7.3,1.8-9.2c0-5.1-1.7-8.7-2.1-9.6c-3.4-7.3-10.1-10.6-15.8-13.3
	c-2.6-1.2-5.8-2.2-12.1-4.1c-14.9-4.5-16.5-4.2-23.1-6.9c-5.1-2.2-10-4.3-15.1-8.9c-2-1.9-6.1-5.6-9-11.8
	c-3.4-7.3-3.3-13.8-3.3-18.8c0.1-4.3,0.2-10.3,3.1-17.3c1.7-4,5.5-11.3,13.4-16.8c3.3-2.3,6.2-3.5,8.9-4.6c8.6-3.5,15.9-4,22.2-4.4
	c1.1-0.1,6.2-0.4,12.9,0c6.9,0.4,14.7,0.9,23.8,4.3C1033.9,353.5,1037.4,355.4,1039.6,356.7z"/>
<polygon points="1367.5,295.3 1367.5,463.8 1266.5,295.3 1260.2,295.3 1257.6,295.3 1237,295.3 1237,504.5 1260.2,504.5 
	1260.2,326.7 1364.8,504.5 1367.5,504.5 1373.4,504.5 1390.7,504.5 1390.7,295.3 "/>
<path d="M1568.8,414c-0.5-4.6-1.5-13.3-5.4-23.3c-1.9-4.9-6.6-16.8-16.8-26.5c-17.2-16.3-39.8-16.9-46.4-16.8
	c-6.6-0.1-29.2,0.5-46.4,16.8c-10.2,9.7-14.9,21.6-16.8,26.5c-3.9,10-4.9,18.6-5.4,23.3c-0.9,8.1-0.6,14.3-0.2,22
	c0.4,7.3,0.6,12.2,2.2,18.8c1.7,7.3,4.1,12.7,5.2,15.1c2.7,5.9,7.4,16.1,18.1,24.4c7.6,5.9,14.9,8.3,19.2,9.7
	c9.9,3.2,18.6,3.6,24.2,3.5c5.6,0.2,14.3-0.2,24.2-3.5c4.3-1.4,11.6-3.8,19.2-9.7c10.7-8.3,15.4-18.5,18.1-24.4
	c1.1-2.4,3.5-7.8,5.2-15.1c1.5-6.5,1.8-11.5,2.2-18.8C1569.4,428.3,1569.7,422.1,1568.8,414z M1500.6,487.9
	c-35.7,0-46.4-27-46.4-60.4c0-33.4,12.2-60.4,46.4-60.4c37.4,0,46.4,27,46.4,60.4C1547,460.9,1536.7,487.9,1500.6,487.9z"/>
<polygon points="1592.9,350 1617.9,350 1650.4,474.2 1652.4,474.2 1689,350 1710.1,350 1746.9,474.2 1749.7,474.2 1779.7,350 
	1802.3,350 1759.3,504.5 1735.3,504.5 1698.8,386 1661.2,504.5 1638.1,504.5 "/>
<path d="M531.6,614h-1.4c-1.6,0-2.8-1.3-2.8-2.8v-441c0-1.6,1.3-2.8,2.8-2.8h1.4c1.6,0,2.8,1.3,2.8,2.8v441
	C534.5,612.7,533.2,614,531.6,614z"/>
<path d="M460.9,328.9c-0.1-7.1-6.2-13-7-13.7c0,0-0.1-0.1-0.1-0.1c-18.5-14.3-67.2-52.2-73.6-57.3c-6.1-4.9-9.6-4.2-16.3-2.3
	c-35.9,10.1-71.9,20.2-107.8,30.3c-30,8.5-60.1,16.9-90.1,25.4c-8,2.3-16.2,4.3-24.1,6.8c-6.3,2-6,6.9-6,12.5c0,7,0,14.1,0,21.1
	c0,35.6,0,71.2,0,106.8c0,5.4,3,10.2,6.6,13.9c2.2,2.2,4.3,4.4,6.5,6.7c2.7,2.7,5.3,5.4,7.9,8.2c3,3,5.9,6.1,8.9,9.1
	c3.1,3.2,6.2,6.4,9.3,9.6c3.1,3.2,6.2,6.3,9.3,9.5c2.9,2.9,5.8,5.9,8.7,8.8c2.5,2.6,5.1,5.1,7.7,7.7c2,2,4,4,6.1,6
	c1.3,1.3,2.6,2.6,4,3.8c0.3,0.3,0.6,0.6,0.9,0.8c4.3,3.6,12.2,0.9,12.1-5.1c-0.2-29.4-0.1-58.9-0.1-88.3v-42.8l138.5-42.6
	c0,0,0,10.8,0,18v7.3c0,0,0.5,4.8,5.2,9c0.2,0.2,0.4,0.3,0.6,0.5l3,2.6c0.1,0.1,0.2,0.2,0.3,0.3l6.6,5.7c4.1,3.6,8.2,7.3,12.3,10.9
	c11.8,10.4,23.5,20.7,35.3,31c7.9,6.9,15.7,14.2,24,20.6c4.2,3.3,11.3,2.2,11.3-4.1C460.8,439.9,460.9,355.7,460.9,328.9z
	 M205.1,510.4c-3-2.8-51.3-50.5-51.3-50.5V349.3l53.6,53.6v106.2C207.5,509.1,207.6,512.7,205.1,510.4z M222.5,386.9
	c0,0-2.9,1.8-7.9-2.9c-5-4.7-49.2-49.9-49.2-49.9s-3.5-3.7,0-4.7l199.2-55.5c0,0,3.9-1.5,7.9,1.3c5,3.4,56.5,43.4,56.5,43.4
	s3.2,2.9,0,4.5C425.9,324.6,222.5,386.9,222.5,386.9z M441.4,439.7c-3.4-3.2-60.7-53.9-60.7-53.9v-26.5c0,0,0.6-1.6,3.9-2.6
	l59.7-17.9v98.6C444.3,437.4,444.8,442.9,441.4,439.7z"/>
</svg>
