<?xml version="1.0" encoding="utf-8"?>
<!-- Generator: Adobe Illustrator 25.0.1, SVG Export Plug-In . SVG Version: 6.00 Build 0)  -->
<svg version="1.1" id="Ebene_1" xmlns="http://www.w3.org/2000/svg" xmlns:xlink="http://www.w3.org/1999/xlink" x="0px" y="0px"
	 viewBox="0 0 595 110.8" style="enable-background:new 0 0 595 110.8;" xml:space="preserve">
<style type="text/css">
	.st0{fill-rule:evenodd;clip-rule:evenodd;fill:#00B5D7;}
	.st1{fill-rule:evenodd;clip-rule:evenodd;fill:#797B82;}
	.st2{fill-rule:evenodd;clip-rule:evenodd;fill:#E10C1C;}
	.st3{fill-rule:evenodd;clip-rule:evenodd;fill:#079235;}
	.st4{fill-rule:evenodd;clip-rule:evenodd;fill:#181716;}
	.st5{fill-rule:evenodd;clip-rule:evenodd;fill:#010101;}
</style>
<g id="Ebene_x0020_1">
	<g id="_3077435432640">
		<path class="st0" d="M560.3,80.4v18.4c0,0.4,1.5,1.1,1.9,1.3c0.7,0.4,1.4,0.8,2.1,1.2l10.2,5.9c0.3,0.2,1.9,1.2,2.1,1.2
			c0.4,0.1,9.3-5.3,10.2-5.8c0.7-0.4,1.4-0.8,2.1-1.2l4.1-2.3V80c-0.6-0.1-8.9-5.1-10.2-5.8c-1-0.5-5.8-3.5-6.1-3.5
			c-0.2,0-3.7,2-4.1,2.3l-11.3,6.5C560.9,79.8,560.3,80,560.3,80.4L560.3,80.4z"/>
		<path class="st1" d="M125.9,39.1h-7.3V6.6c5.5,0,13.4-0.6,18,2.4c0.4,0.3,0.7,0.5,1.2,0.8c0.5,0.3,0.7,0.6,1.1,1
			c2.5,2.5,3.7,6.9,3.7,10.5c0,0.7,0.2,1.2,0.1,2c-0.1,0.7-0.1,2-0.3,3.7c-0.3,2.3-1,4.3-2.1,6.1C137.4,37.9,131.1,39.1,125.9,39.1z
			 M112.7,44h12.1c7.3,0,13.7-1.5,17.7-4.8c6.8-5.5,7.7-17.5,4.8-25.7c-1.9-5.5-6.1-8.7-11.5-10.3c-2.7-0.8-6.2-1.4-9.5-1.4h-13.6
			C112.7,1.8,112.7,44,112.7,44z"/>
		<path class="st1" d="M185.8,15.9h0.7c6,0,8.7,5.3,8.7,11.4v0.8c0,13.4-12.1,13.5-15.8,7.9c-1.3-1.9-2-4.5-2-7c0-1.4-0.2-0.1,0-2.2
			c0.1-1.3-0.1-1.6,0.4-3.5C178.7,19.5,181,15.9,185.8,15.9z M171.7,27.3c0,4.9,1,9,3.4,11.9c2.2,2.7,5,4.7,9.8,4.7
			c4.1,0,7.6-1.6,9.8-4.8l0.3-0.4c0.2-0.2,0.1-0.1,0.2-0.2c0,4.2-0.1,7.1-1.9,9.6c-1.8,2.3-4.5,3.4-8.4,3.4c-3.8,0-6.8-1.2-9.3-2.5
			v5.2c0.3,0.1,0.6,0.2,1,0.3l3.1,0.8c3,0.6,4.3,0.5,7.2,0.5c6.6,0,11.2-3.3,12.8-9.1c0.5-1.9,0.9-4.1,0.9-6.5V12.5
			c0-0.3-0.1-0.4-0.4-0.4h-4.7c-0.6,0-0.4,1-0.4,2.1c0,0.8,0,1.6,0,2.5l-1.6-2c-3.2-3.7-9.9-4.2-14.7-1.8c-2,1-4.1,3.4-5.2,5.5
			C172.4,20.9,171.7,24.3,171.7,27.3z"/>
		<polygon class="st0" points="321.8,44 327.7,44 327.7,23.9 348.7,23.9 348.7,44 354.5,44 354.5,1.8 348.7,1.8 348.7,19 327.7,19 
			327.7,1.8 321.8,1.8 		"/>
		<path class="st0" d="M408.1,28.1c0-1.1,0.3-3.5,0.5-4.6c0.6-2.6,1.9-4.9,4-6.3c2.4-1.6,6.5-1.6,8.9,0c3.7,2.5,4.9,8.1,4.5,12.2
			c-0.1,1.4,0.1,1.4-0.4,3.5c-2.1,9.1-11.8,9.3-15.3,3.7c-0.7-1.1-1.2-2.3-1.5-3.7c-0.2-0.8-0.3-1.4-0.4-2.2
			C408.2,30,408.1,28.8,408.1,28.1z M402.7,44h5.4v-4.6c0.6,0.4,2.7,5.4,10.2,5.4c4.7,0,7.5-2.1,9.6-4.7c1.9-2.4,3.6-6.5,3.6-10.8
			V27c0-4.1-1.6-8.4-3.5-10.7c-2.7-3.3-5.5-4.8-10.1-4.8c-3.7,0-6.9,1.5-9,4.3c-0.2,0.2-0.3,0.3-0.4,0.5c-0.1,0.1-0.1,0.2-0.2,0.3
			c0,0,0,0,0,0.1L408.1,0h-5.4V44L402.7,44z"/>
		<path class="st1" d="M260.8,40.3c-2.3,0-4.1-0.7-5.3-1.8c-1.3-1.3-1.8-3-1.5-5.4c0.6-4.4,5.7-5,9.5-5h6.9c0,3.6-0.4,6.6-2.5,9.1
			C266,39.2,263.8,40.3,260.8,40.3L260.8,40.3z M250.8,13.7v4.8c0.5,0,1.7-0.8,2.6-1.1c1.8-0.7,4-1.3,6-1.4l1.8-0.1
			c1.2,0,3.5,0.3,4.7,0.8c1.8,0.7,3.1,1.7,3.9,3.5c0.5,1.2,0.6,2.3,0.6,3.7c-5.4,0-12.8-0.6-17.3,2.1c-1.9,1.1-3.1,2.5-3.9,4.5
			c-0.3,0.7-0.4,1.5-0.6,2.4c-0.8,4.9,1.6,9.3,5.7,11c4.6,1.8,11.6,1,15-3.3c0.2-0.3,0.7-1,1-1.2V44h5.4V25.6
			c0-5.3-1.6-9.5-5.2-11.9c-4.6-3.1-12.3-2.4-17.3-0.8c-0.4,0.1-0.8,0.3-1.2,0.4C251.6,13.4,251.2,13.6,250.8,13.7L250.8,13.7z"/>
		<path class="st0" d="M365.2,12.5v19.7c0,7.2,3.6,12.5,11.3,12.5c3,0,5.4-0.8,7.4-2.3c1.6-1.2,2.6-2.8,2.9-3l0,3.6
			c0,0.5-0.1,0.9,0.4,0.9h5V12.2h-5c-0.4,0-0.4,0.3-0.4,0.7c0,0.4,0,0.8,0,1.2v16.1c0,4-1.4,7.5-4.7,9.1c-2.3,1.1-6.3,1.4-8.5-0.1
			c-3.2-2.2-3-6.2-3-10v-15c0-0.4,0-0.7,0-1.1c0-0.4,0.1-0.8-0.4-0.8h-4.7C365.3,12.2,365.2,12.3,365.2,12.5L365.2,12.5z"/>
		<path class="st1" d="M415.7,68.1v41.8h3V71.5l2,3.6c1,2.1,2.8,5,3.9,7.1l7.2,13.3c1.4,2.3,3.2,6,4.5,8.5l2.6,4.9
			c0.8,1.4-0.3,1.1,4.8,1.1V68.1c0-0.6-1.1-0.4-2.7-0.4c-0.6,0-0.4,0.9-0.4,2V106l-2.6-4.8c-0.8-1.7-1.7-3.1-2.6-4.8
			c-0.2-0.5-0.4-0.7-0.6-1.1l-4.6-8.5c-1-1.7-2.8-5.4-3.8-7.2c-1.6-2.7-4.1-7.7-5.8-10.8c-0.8-1.4,0.3-1.1-4.5-1.1
			C415.8,67.7,415.7,67.8,415.7,68.1L415.7,68.1z"/>
		<path class="st1" d="M469.6,107.6h-8.9V70.3h9.7c3.8,0,7.6,0.9,10.6,2.7c5.2,3.1,6.8,9.4,6.8,16.3c0,3.7-0.7,8.2-2.5,11.1
			c-1.3,2.2-2.3,3.2-4.5,4.6c-0.9,0.6-2.1,1-3.2,1.4C475.5,107.1,472.5,107.6,469.6,107.6z M457.7,109.9H470c5.4,0,12-1.6,15.7-5.3
			c4.1-4.1,5.3-9.8,5.3-15.9c0-4.8-0.9-9.5-3.3-13.2c-0.7-1.1-1.7-2-2.6-3c-4-3.9-12.3-4.8-17.4-4.8h-10L457.7,109.9L457.7,109.9z"
			/>
		<path class="st1" d="M116.4,83.8l0-4.3c0-1.4,0.4-1.2-2.8-1.2v31.6h2.8V90.8c0-3.2,1.1-5.7,3.2-7.8c0.8-0.8,2.2-1.7,3.4-2.1
			c3.5-1.4,8.3-1.7,10.2,2.3c0.9,1.8,1.2,4.6,1.2,7.2v19.6h2.8v-19c0-2.5,0.7-4.5,1.8-6.4c2.5-4.1,12-7.3,15-1.4
			c0.9,1.9,1.2,4.7,1.2,7.4v19.3h2.7V89.8c0-3.2-0.7-6.5-1.9-8.4c-1.3-2-4-3.8-6.7-3.8c-2.4,0-3.3-0.1-5.6,0.7
			c-5.4,1.8-6.6,6.2-7.2,6.7c0-0.6-0.8-2.4-1.1-2.8c-0.4-0.8-0.9-1.6-1.6-2.3c-1-1-3.5-2.3-5.4-2.3c-3.4,0-5.3,0.2-8.2,1.9
			c-0.3,0.2-0.8,0.6-1.1,0.8c-0.2,0.2-0.3,0.3-0.5,0.5c-1.3,1.2-1.4,1.6-2.2,2.8C116.4,83.8,116.5,83.7,116.4,83.8L116.4,83.8z"/>
		<path class="st1" d="M227.4,3.6v8.6h-3.5c-0.3,0-0.4,0.1-0.4,0.4v3.5c0,0.3,0.1,0.4,0.4,0.4h3.5v15.5c0,5.5,0.4,9.9,5.5,11.4
			c3,0.9,7.5,0.7,10.8,0.7v-4.5c-2.5,0-8.1,0.4-9.7-1c-0.8-0.7-1.1-2.5-1.1-3.9V16.4h10.8v-4.2h-10.8V3.6c0-0.3-0.1-0.4-0.4-0.4
			h-4.8C227.5,3.3,227.4,3.4,227.4,3.6L227.4,3.6z"/>
		<path class="st1" d="M390.4,70.9c0.1,0.1,0.1,0,0.2,0.3l8.8,23.2h-18c0.1-0.5,0.3-0.9,0.5-1.5l1.7-4.4c0.8-1.9,1.5-3.9,2.3-5.8
			c0.8-2,1.5-3.8,2.3-5.8L390.4,70.9L390.4,70.9z M372.2,109.9h3.2l4.8-12.5c0.1-0.3,0.1-0.6,0.5-0.6h19.5c0.4,0,0.4,0.3,0.5,0.6
			l4.8,12.5h3.4l-16.2-41.7c-0.1-0.3-0.1-0.5-0.4-0.5c-4.4,0-3.3-0.6-4.5,2.4c-0.4,0.9-0.7,1.7-1,2.6l-2.1,5.3
			c-0.2,0.5-0.3,0.9-0.5,1.3c-2.6,6.5-5.1,13.4-7.7,19.9L372.2,109.9L372.2,109.9z"/>
		<path class="st1" d="M301,79.9c2,0,3.3,0.2,4.8,0.9c4.2,2,5.4,6.4,5.4,11.4h-21.4c0-0.9,0.2-1.8,0.3-2.6c0.7-4,2.2-7,6-8.7
			C297.4,80.4,299.1,79.9,301,79.9L301,79.9z M302.9,110.8h-2.2c-2.1-0.1-4.3-0.6-6.1-1.3c-3.5-1.5-5.7-4.6-6.8-8.1
			c-0.8-2.3-1-4.7-1-7.4c0-2.3,0.3-4.8,0.9-6.6c0.3-1,0.6-1.9,1-2.7c0.2-0.4,0.5-0.8,0.7-1.2c1-1.7,2.9-3.4,4.8-4.4
			c3-1.5,4.9-1.5,8.1-1.5c3.9,0,7.4,2.2,8.9,4.7c1.8,2.8,2.8,6.2,2.8,10.7c0,1.1,0.2,1.6-0.4,1.6h-24c0,6.1,1.2,10.7,6.5,12.8
			c4.7,1.9,10,0.9,14.5-0.9l2.1-0.9v2.8c-0.7,0.2-1.5,0.6-2.2,0.8c-1.4,0.5-3.4,0.9-4.9,1.2C304.7,110.6,303.8,110.7,302.9,110.8
			L302.9,110.8z"/>
		<path class="st1" d="M286.6,44h5c0.3,0,0.4-0.1,0.4-0.4V0h-5.4V44z"/>
		<path class="st1" d="M206.7,83.9v-5.6h-2.7v31.6h2.7V92.2c0-3,0.5-6.9,2.5-8.9c3.6-3.7,11.6-5,14.6-0.5c1.1,1.6,1.7,4.4,1.7,7.1
			v20h2.8V91.2c0-3.7-0.7-7.2-2.1-9.5c-1.5-2.3-4.6-4.1-7.5-4.1c-3.2,0-5.4,0.2-8.1,2c-1.4,0.9-0.7,0.5-1.7,1.3
			C207.9,81.9,207,83.7,206.7,83.9z"/>
		<path class="st1" d="M168.4,78.6v17.5c0,4.3,0.4,7.7,2.1,10.4c1.8,2.8,4.9,4.1,8.1,4.2h0.8c4-0.1,8.1-2.1,10.2-5.7l0.4-0.7v5.6
			h2.7V78.3h-2.7v18.2c0,2.3-0.4,4.9-1.3,6.8c-0.3,0.7-1.2,1.9-1.8,2.3c-0.3,0.3-0.5,0.4-0.8,0.6c-3,2-4.6,2.1-8.1,2.1
			c-1.1,0-2.6-0.5-3.3-1c-2.9-1.9-3.7-5.4-3.7-9.4V78.3C169.6,78.3,168.4,78,168.4,78.6L168.4,78.6z"/>
		<path class="st1" d="M237.2,86.4c0,2.7,0.9,4.5,3.1,6c4.1,2.9,11.5,2.5,14.8,5.8c1.6,1.6,1.4,5.4-0.3,7.5
			c-2.3,2.8-5.5,2.7-8.8,2.7c-3.9,0-5.9-1.3-9-2.9v3.4c1.2,0.1,4.3,1.9,8.2,1.9h0.2h0.2h0.2c4.6,0,9.9-0.1,12.2-4.7
			c1.4-2.7,1.6-6.8-0.9-9.3c-5.2-5.2-13.8-3.1-16.6-7.8c-0.8-1.3-0.7-3.5-0.2-5.1c1.5-4.6,9.4-4.5,13.4-3.5c1.3,0.3,3.3,1.6,3.8,1.7
			v-2.9c-0.5-0.2-1-0.4-1.5-0.6c-3.2-1.3-5.2-1.1-8.7-1.1c-2.6,0-5.1,0.9-7.1,2.3C238.5,81.1,237.2,83.5,237.2,86.4z"/>
		<path class="st1" d="M345.6,68.1v41.8h23.8v-2.3h-20.9V67.7H346C345.7,67.7,345.6,67.8,345.6,68.1L345.6,68.1z"/>
		<path class="st1" d="M157.8,44h5c0.3,0,0.4-0.1,0.4-0.4V12.5c0-0.3-0.1-0.4-0.4-0.4h-5V44z"/>
		<path class="st1" d="M211.2,12.5v31.1c0,0.3,0.1,0.4,0.4,0.4h5V12.2h-5C211.3,12.2,211.2,12.3,211.2,12.5z"/>
		<path class="st1" d="M267.9,78.3h-3.9v2.3h3.9v19.9c0,1.5,0.2,2.7,0.6,3.8c0.4,1.3,0.8,2,1.6,2.8c0.9,0.9,1.4,1.2,2.6,1.8
			c2.6,1.2,5.8,0.9,8.7,0.9v-2.2c-3.9,0-7.2,0.5-9.5-2.5c-0.7-0.9-1-1.4-1.2-2.8c-0.5-2.7-0.2-18.2-0.2-21.8h10.9v-2.3h-10.9v-9
			h-2.7V78.3z"/>
		<path class="st1" d="M325.7,83.9v-5.6H323v31.6h2.7V92.7c0-3.6,0.7-7.2,2.4-9.1c2.2-2.6,4.8-3.7,8.8-3.7c1.4,0,2.7,0.3,3.6,0.7
			v-2.8c-1.4-0.3-3.2-0.2-4.7-0.2c-3.1,0-6.5,1.9-8.4,4L325.7,83.9L325.7,83.9z"/>
		<path class="st1" d="M519.1,31.1V11.4c0-0.4,0.3-0.4,0.9-0.7l10-5.7c0.7-0.4,6.3-3.7,6.7-3.8c0.7,0.4,1.4,0.8,2.1,1.3l8.6,5
			c0.7,0.4,1.4,0.8,2.2,1.2l3.3,1.9c0.4,0.2,0.7,0.5,1.2,0.6v20.4c-0.4,0.1-3.9,2.2-4.3,2.5l-12.6,7.2c-0.7,0.4-0.4,0.3-2.8-1
			c-0.8-0.4-1.5-0.9-2.2-1.3l-12-6.9C519.8,31.7,519.1,31.4,519.1,31.1z M518.2,10.9v20.6c0,0.6,3.7,2.5,4.4,2.9l9.2,5.3
			c0.3,0.2,4.7,2.7,4.7,2.7c0.6,0,8.4-4.7,9.5-5.3L553,33c0.4-0.2,0.8-0.4,1.2-0.7c0.4-0.3,0.8-0.4,0.8-1V11.1c0-0.8-0.8-1-2-1.7
			L536.7,0c-0.5-0.1-4.3,2.3-4.7,2.6l-10.5,6C521,8.9,518.2,10.4,518.2,10.9L518.2,10.9z"/>
		<path class="st1" d="M499.2,65.3V45.5c0-0.3,0.3-0.4,0.9-0.7l3.3-1.9c2-1.1,12.8-7.5,13.2-7.5c0.4,0,6.4,3.6,7.6,4.3l3.3,1.9
			c0.8,0.5,1.5,0.8,2.2,1.3l3.3,1.9c0.4,0.2,0.7,0.5,1.2,0.6v20.3l-8.8,5c-0.2,0.1-8.5,5-8.8,5l-15.3-8.8c-0.4-0.2-0.7-0.4-1.1-0.6
			C499.8,65.9,499.2,65.6,499.2,65.3L499.2,65.3z M498.1,45.1v20.4c0,0.6,0.4,0.7,0.8,1l17.6,10.1c0.4,0.1,1.8-0.9,2.3-1.2l15.2-8.8
			c0.3-0.2,1-0.5,1-0.9V45.2c0-0.7-1-1.1-2-1.6l-9.3-5.4c-0.8-0.5-1.5-0.9-2.4-1.4c-5.9-3.2-3.8-3.2-7.1-1.4
			c-0.8,0.4-1.6,0.9-2.3,1.3l-9.4,5.4c-0.8,0.4-1.5,0.9-2.3,1.3c-0.4,0.3-0.8,0.5-1.2,0.7C498.7,44.4,498.1,44.7,498.1,45.1
			L498.1,45.1z"/>
		<path class="st0" d="M559.2,79.5c0.7-0.4,1.4-0.8,2.2-1.2l15.3-8.9c0.7,0.4,1.4,0.8,2.1,1.2c0.8,0.4,1.4,0.8,2.2,1.2
			c4.1,2.3,9.3,5.5,13.2,7.6v20.3l-4.3,2.5c-1.5,0.8-2.9,1.7-4.4,2.5l-4.3,2.5c-0.6,0.3-4.2,2.5-4.4,2.5l-4.3-2.5
			c-1.5-0.9-2.9-1.7-4.4-2.5l-7.6-4.4c-0.3-0.2-0.8-0.5-1.2-0.6L559.2,79.5L559.2,79.5z M558.2,79.2V100c0,0.5,1.8,1.3,2.1,1.5
			l10.3,6c1,0.6,5.6,3.3,5.9,3.3c0.5,0,15.8-9,17.4-9.9c0.5-0.3,1-0.5,1-0.9V79.2c0-0.5-1.7-1.3-2.1-1.5c-0.8-0.4-1.5-0.9-2.3-1.3
			c-0.4-0.2-0.7-0.4-1.1-0.7c-1.5-0.8-12.5-7.3-12.9-7.3c-0.4,0-7.7,4.4-9.3,5.3l-8.1,4.7C558.9,78.6,558.2,78.8,558.2,79.2z"/>
		<path class="st1" d="M519.1,79.5l17.5-10c0.2,0,1.8,1,2.2,1.1l15.4,8.9v20.2c-0.7,0.4-1.4,0.8-2.1,1.3c-0.8,0.4-1.4,0.8-2.2,1.2
			c-0.7,0.4-1.5,0.8-2.2,1.2l-11,6.3c-0.3,0-3.9-2.1-4.4-2.4l-10.9-6.3c-0.8-0.4-1.5-0.8-2.2-1.3L519.1,79.5L519.1,79.5z
			 M518.2,79.5v20.3c0,0.7,0.9,1,2,1.6l14,8.1c3.1,1.9,2.1,1.6,4.8,0.1c0.8-0.5,1.6-0.9,2.4-1.4l12.9-7.4c0.5-0.2,0.9-0.3,0.9-1
			V79.5c0-0.7-1-1.1-2-1.6L541.4,71c-0.6-0.3-4.4-2.6-4.7-2.7c-0.3,0-4.4,2.4-4.7,2.6c-0.8,0.5-1.5,0.9-2.3,1.3L519,78.5
			C518.6,78.7,518.2,78.8,518.2,79.5L518.2,79.5z"/>
		<path class="st1" d="M539.1,45.2c0.5-0.1,1.7-0.9,2.2-1.2l15.2-8.8c0.6,0,9.7,5.5,11,6.2c0.8,0.4,1.5,0.9,2.2,1.3
			c0.8,0.4,1.5,0.9,2.2,1.3c0.4,0.2,2.1,1,2.1,1.4v19.8c0,0.4-0.6,0.6-0.9,0.7l-16.5,9.5c-0.3,0-1.8-0.9-2.2-1.1
			c-4.1-2.5-9-5.1-13.2-7.6c-0.8-0.5-1.5-0.8-2.2-1.3L539.1,45.2L539.1,45.2z M538.2,45v20.7c0,0.5,2.7,1.9,3.2,2.1l15.1,8.7
			c0.4,0.1,4-2.2,4.6-2.5l2.3-1.3c0.8-0.5,1.6-0.9,2.4-1.4l8.7-5c0.3-0.1,0.5-0.1,0.5-0.5V45c0-0.6-4-2.6-4.4-2.8l-13.9-7.9
			c-0.6,0-4.2,2.2-4.7,2.6c-4,2.4-8.7,4.9-12.8,7.4C538.9,44.4,538.2,44.6,538.2,45L538.2,45z"/>
		<polygon class="st1" points="157.8,6.6 163.1,6.6 163.1,0 157.8,0 		"/>
		<polygon class="st1" points="211.2,6.6 216.6,6.6 216.6,0 211.2,0 		"/>
		<path class="st1" d="M175,66.5v2.8c0,0.6,1.2,0.4,2.8,0.4v-3.5C176.1,66.1,175,65.9,175,66.5z"/>
		<polygon class="st1" points="183.1,69.6 185.9,69.6 185.9,66.1 183.1,66.1 		"/>
	</g>
	<g id="_3077435425248">
		<path class="st2" d="M49.9,4v30.5c0,0.5,0.6,0.3,1,0.3c2.7-0.1,3-0.2,4.2,0.8c1.3,1,2.5,2,3.8,3l6.6,5.3c0.3,0.2,0.8,0.6,1,0.8
			c-1,1.4-2,2.7-2.9,4.2c-0.9,1.4-1.9,3.4-2.2,5l-0.1-0.1c-0.1-0.1-0.1-0.1-0.1-0.2c-0.1-0.1-0.1-0.2-0.2-0.4l-3.9-7.2
			c-0.4-0.6-2.6-4.6-2.9-4.6c-0.9,0-2.5,0.6-3.1,1.2c-2.8,2.8,0.4,11.7,1.7,14.9c0.2,0.6,0.4,1,0.6,1.6l0.5,1.2c0,0,0.1,0.4,0.5,0.3
			l4.9-1.6c0.7-0.2,1.1-0.4,1.8-0.6c4.4-1.2,2.2-0.2,3.6-5.6c0.5-1.7,2.3-4.8,3.4-5.9l2.9-2.8l5.8-4.6c1.4-1.2,2.4-1.9,3.6-3.3
			c0.5-0.5,1.6-2.1,1.9-2.8c0.4-0.9,0.9-2.3,1.5-3.1c0.5-0.8,1.1,0.1,3.5-0.9c3.7-1.5,5.5-6,3-6c-1.4,0-1,3.9-5.7,4.3
			c-1.7,0.1-3,0-4.8,0c-0.9,0-1.4-0.1-2.3-0.1l-3.2,0c-1.9,0-2,4.3-5.3,4.3c-5.2,0-5.6-2.5-2.3-2.6c0.6,0,1,0.1,1.4-0.1
			c0.3-0.1,0.6-0.5,0.6-0.9c0-1.1-2.1-1.9-3.6-0.5l-0.1,0.1c-0.2,0.2-0.3,0.4-0.6,0.6c-1.7,1.6-3.6,0.5-3.5-0.8
			c0.1-1.3,1.2-0.6,1.2-2.3c0-0.6-1.1-0.7-1.8-0.7c-0.1-0.6-0.3-0.4-0.1-1c0.3-0.9,3.6-3.2,4.7-4.3c1-1,4.4-3.6,5.6-4.7
			c0.5-0.4,0.9-0.8,1.4-1.2c1.5-1.2,2.8-2.3,4.7-3c1.8-0.6,2.4-0.3,2.6-1.3l0.3-3.6c0-0.6,0.4-2.1-0.2-2.1H50.3
			C50,3.6,49.9,3.7,49.9,4z"/>
		<path class="st3" d="M4.7,45.5c0.5,0,1-0.5,1.5-0.7L19.3,37c2.6-1.6,5.8-4.2,7.4-6.7c3.3-5,5.3-13.8,7.7-20.1l2.3-6
			c0.1-0.3,0.3-0.7-0.2-0.7H5c-0.5,0-0.4,0.4-0.4,0.9c0.1,6.4,0,13.4,0,19.8C4.7,31.4,4.7,38.4,4.7,45.5z"/>
		<path class="st3" d="M47.7,38c-0.4,0.2-0.2,0.1-0.6,0.8l-1.6,2.6c-0.9,1.6-1,1.6-2,2.9c-2,2.5-4.3,3.7-6.9,5.3l-5.5,2.9
			c-1.6,0.8-2.3,1.1-3.8,2c-4.2,2.3-8.9,5.9-11.8,9.7c-0.2,0.3-0.4,0.5-0.6,0.8c-0.4,0.6-0.8,1.2-1.1,1.8c-0.7,1.2-1.4,2.4-2,3.8
			c-0.6,1.3-1.1,2.6-1.7,3.9C9,77.3,8,80,6.9,82.7c-0.3,0.7-0.5,1.3-0.8,2.1c-0.2,0.4-0.9,1.8-0.7,2c0.3,0.3,4.5-0.3,5.1-0.3
			c1.7-0.3,3.1-0.7,4.6-1.1c1.3-0.4,2.9-0.9,4.2-1.4c1.3-0.5,2.8-1.1,3.9-1.8c1.2-0.7,2.4-1.3,3.5-2.1l5-3.6c0.6-0.4,1-0.9,1.6-1.3
			c0.4-0.3,0.4-0.4,0.7-0.7c0.3-0.3,0.5-0.4,0.8-0.6l4.1-4.5c0.4-0.5,0.8-1.1,1.2-1.6c2.1-2.9,3.5-6.3,4.8-9.6l1.3-4.3
			C47.9,47.4,47.7,45,47.7,38z"/>
		<path class="st4" d="M2,2c0.4-0.2,5.5-0.1,5.9-0.1h41c2.1,0,46-0.2,46.8,0.1l0,87.5c-0.9,0.3-20.7,0.1-23.5,0.1H25.3
			c-0.4,0-22.8,0.2-23.3-0.1C2,89.4,2,2,2,2z M97.5,0H0.2L0.1,91.3l97.4,0C97.5,91.4,97.5,0,97.5,0z"/>
		<path class="st2" d="M43.7,81.6c0-1.6,0.7-3,1.5-3.9c1.9-2.2,5.7-2.4,8-0.2c0.3,0.3,0.8,1,1,1.4c0.8,1.6,0.8,3.7,0,5.4
			c-2,3.7-7.8,4-10-0.4C44,83.3,43.7,82.3,43.7,81.6z M45,74.9c-1.5,0-3.4-0.6-5.2,1.2c-1.3,1.4-1.7,4.2-0.4,6.1
			c0.5,0.7,1.2,0.9,2.5,0.9c0.9,1.4-0.2,1.1-0.9,1.7c-1,0.8-0.9,2.3-0.1,3.2c0.3,0.4,0.8,0.7,1.5,0.7h13.6c2.4,0,2.8-2.9,1.7-3.8
			c-0.5-0.5-1.4-0.3-1.4-1.1c0-0.8,0.3-0.7,1-0.7c0.6,0,1-0.2,1.3-0.5c2.1-1.8,1.6-7.8-3.2-7.8l-2,0.1c0-1.3-0.4-2.3-1-3.1
			C51.1,70.3,45,69.4,45,74.9L45,74.9z"/>
		<path class="st2" d="M70.7,66c-2.4,0-4.8-0.2-6.9-0.2c-2.5,0-5,0-7.5,0c0.2,0.4,0.3,0.6,0.6,0.9l4.3,5.3c1.5,1.8,5.8,5.4,7.8,6.6
			c0.7,0.4,1.3,0.8,2,1.2c3.5,2,7.1,3.8,11,4.9c1.2,0.3,4.1,1.1,5.3,1.1C87.1,85,83,82,82,81.4c-1.1-0.6-2-1.2-3.1-1.8
			c-4.3-2.3-10-5.3-12.7-9.4c-0.4-0.6-0.5-1-0.8-1.6c2.9,0,6.1,0.1,8.8-0.1c1.9-0.1,4.5-2.5,4.5-4.6c0-0.7-0.5-1.2-1.3-1.2
			c-0.4,0-0.9,1-1.2,1.3c-0.3,0.4-0.9,0.9-1.3,1.2C73.7,65.9,72,66,70.7,66L70.7,66z"/>
		<path class="st5" d="M81.6,110.8h2.3c0.2-0.4,0.4-1.2,0.5-1.6l1.3-5.1c0.3-1.2,0.6-2.2,0.9-3.4c0.2-0.6,0.3-1.1,0.4-1.7
			c0.1-0.3,0.1-0.6,0.2-0.9l0.3-0.9c0,2.3,2.1,9.2,2.6,12.1c0.2,1,0.2,1.4,0.6,1.5h1.8c0.6,0,0.8-1.8,1.1-2.9
			c0.1-0.4,0.2-0.7,0.3-1.1l2.4-8.5c0.2-0.9,1.1-3.6,1.1-4.4c-2.8,0-2.1-0.7-3.1,3.2l-2.6,10.4c0,0,0,0.1,0,0.1
			c0-1.4-2.5-11.5-3-13.7h-2.3c-0.3,1.1-0.6,2.2-0.9,3.3c-0.6,2.4-1.7,6.4-2.2,8.5l-0.3,1.5c-0.1,0.3,0,0.1-0.1,0.2
			c-0.1-0.4-0.1-0.5-0.1-0.9c-0.2-1.5-1-4.5-1.4-6l-1.4-6c-0.2-0.8,0.2-0.6-2.3-0.6c-0.5,0-0.3,0.3-0.2,0.7L81.6,110.8L81.6,110.8z"
			/>
		<path class="st5" d="M31.8,110.8h2.3l1.3-4.9c0.2-0.6,0.3-1.2,0.4-1.7c0.2-0.6,0.3-1.1,0.4-1.7l0.9-3.3c0.1-0.6,0.3-1.1,0.3-1.8
			h0.2c0,0.8,0.1,1.1,0.2,1.8l1.1,5c0.6,2.2,1.1,4.4,1.6,6.6H43c0.3-0.5,0.5-1.4,0.6-2.1c0.6-2.6,2.1-7.6,2.9-10.6l1.1-4.2h-2.3
			L42,107.4c0,0,0,0.1,0,0.1c-0.3-1.1-0.5-2.3-0.7-3.5c-0.6-3.2-1.6-6.5-2.2-9.4c-0.2-0.9-0.1-0.7-2.2-0.7c-0.5,0-0.5,1-0.7,1.5
			l-2.3,8.7c-0.2,0.6-0.3,1.2-0.4,1.8l-0.3,1.4c-0.1,0.3,0,0.2-0.2,0.4c0-1.3-0.4-2.5-0.6-3.6c-0.3-1.2-0.5-2.2-0.8-3.4l-1.3-6
			c-0.2-0.9-0.1-0.7-2.3-0.7c-0.5,0-0.3,0.3-0.2,0.8c0.1,0.4,0.2,0.6,0.3,1c0.2,0.8,0.3,1.4,0.5,2.2
			C28.5,97.8,31.8,110.8,31.8,110.8z"/>
		<path class="st5" d="M49.5,94.2v16.1c0,0.6,0.8,0.4,2.2,0.4v-11c0-1-0.1-1.5-0.1-2.5l3,5.1c0.4,0.6,0.7,1.1,1.1,1.7
			c0.7,1.1,1.3,2.2,2.1,3.3c2.6,3.9,1.1,3.3,4.3,3.3V94.2c0-0.5-0.6-0.4-1.9-0.4c-0.3,0-0.4,0.1-0.4,0.4c0,1.5-0.1,8.8,0.1,10
			c0.1,0.5,0,1,0,1.5c0,0.7,0.1,1,0.1,1.5l-1.9-3.5c-0.4-0.6-0.6-1.1-1-1.7l-3.1-5c-0.2-0.3-0.3-0.5-0.5-0.8c-1.8-3-1-2.4-3.7-2.4
			C49.5,93.9,49.5,94,49.5,94.2L49.5,94.2z"/>
		<path class="st5" d="M17.7,108.8c-3.1,0-2.5,0.6-2.5-2.9v-10c2.3-0.2,4.1-0.5,6.4,0.8C25.6,99,25.4,108.8,17.7,108.8z M12.9,94.5
			v15.7c0,0.5,1,0.5,1.6,0.5c2.3,0,4.9,0.2,7.1-0.7c0.6-0.3,0.9-0.4,1.4-0.7c1.4-0.8,2.2-2,2.8-3.5c1.3-3.2,1-7.2-1.6-9.8
			c-0.7-0.7-1.6-1.2-2.7-1.5c-2.5-0.8-5.2-0.6-7.8-0.3C13.3,94.1,12.9,94,12.9,94.5z"/>
		<path class="st5" d="M69.9,101.7h-2.1v-5.6c0-0.4,0.9-0.4,1.8-0.5c0.4,0,1.6,0.2,2,0.3c1.7,0.6,1.9,1.6,1.9,3.1
			C73.4,100.7,71.6,101.7,69.9,101.7z M65.4,94.5v16.3h2.3v-7.1c2.5,0,4.3-0.4,5,2.7c0.3,1.3,0.7,3.4,1.2,4.4h2.3l-0.7-2.2
			c-0.4-1.5-0.7-4.2-1.9-5.3c-0.3-0.3-0.6-0.3-0.9-0.7c1.6-0.9,2.8-1.9,2.8-4.3c0-1.6-0.8-2.8-1.7-3.5c-2-1.5-5.6-1.1-7.9-0.8
			C65.7,94.1,65.4,94.1,65.4,94.5L65.4,94.5z"/>
		<path class="st5" d="M6.2,103.8H3.9c0-0.4,0.1-1.1,0.2-1.6c0.1-0.6,0.2-1,0.2-1.7h2.3l-0.1,0.9C6.3,102.3,6.2,102.9,6.2,103.8z
			 M2.6,98.9h-2v1.6h2c0,1.2-0.4,2.1-0.4,3.3H0v1.6h1.9c0,1.5-0.5,3.2-0.6,4.7c0.8,0.2,1,0.2,1.8,0c0-1.2,0.5-3.6,0.6-4.7h2.2
			l-0.5,3.8c-0.2,1.1-0.4,1,1.2,1c0.6,0,0.4-0.8,0.6-2.2c0.1-0.8,0.3-1.7,0.3-2.6h2.3v-1.6h-2c0-1.1,0.4-2.2,0.4-3.3
			c2.7,0,2.2,0.4,2.2-1.6h-2c0.2-1,0.3-2.6,0.5-3.7c0.2-1.1,0.1-1-1.2-1c-0.5,0-0.5,1.4-0.6,2.2c-0.1,0.7-0.3,1.8-0.3,2.5
			c-2.7,0-2.5,0.5-2-2.3c0.5-2.8,0.5-2.4-1-2.4c-0.5,0-0.4,1-0.6,2.4C3.1,97,3.1,97.3,3,97.8C2.9,98.4,3.1,98.9,2.6,98.9z"/>
		<path class="st2" d="M85.2,9.5c0,0.6,0,1-0.1,1.4c-0.1,0.4-0.1,1.2-0.2,1.5c1,0,1.8-0.3,2.4-0.8c1.1-1,0.9-2.6,0.9-4.1h4.8V4
			c0-0.3-0.1-0.4-0.4-0.4h-9.6c-0.9,0,0.7,1.5,1.2,2.4C85,7.1,85.2,7.9,85.2,9.5z"/>
		<path class="st3" d="M45.5,81.3c0,1.3,0.2,2.4,1.3,3.3c3.6,2.7,6.6-0.7,6.6-2.8c0-2.2-1.8-4.1-4-4.1
			C47.4,77.7,45.5,79.4,45.5,81.3z"/>
		<path class="st2" d="M73.1,17.5c0,3.1,4.9,1.3,4.8,0.4c0-0.4-0.9-0.8-1.2-1c-0.8-0.5-1.8-1.1-2.9-0.3
			C73.6,16.7,73.1,17.2,73.1,17.5z"/>
		<path class="st3" d="M54.5,70c0,1.2-0.1,1.5,0.6,2.1c1,1,3.1,1,3.1,0.6c0-0.8-0.6-2-1-2.4C56.4,69.6,55.4,69.8,54.5,70z"/>
		<path class="st3" d="M40.3,72.9c1.8,0,3.3,0,3.6-2c0.1-0.9,0-1-0.4-1.1C41.6,69.2,40.3,70.9,40.3,72.9z"/>
		<path class="st3" d="M38.2,85.7c0.2-0.4,0.3-0.3,0.5-0.8c0.8-2.3-1.5-3.4-2.2-3.4c-0.2,0.8-1.1,2.7,0.5,3.7
			C37.4,85.5,37.7,85.5,38.2,85.7z"/>
		<path class="st3" d="M59.3,83.8c0,0.4,0,0.6,0.2,1c0.4,1.1,0.6,0.7,0.6,0.8c0,0,0.1,0,0.1,0l0.6-0.1c2.3-0.8,1.1-3.4,1-4
			C61.1,81.5,59.3,82.5,59.3,83.8z"/>
	</g>
</g>
</svg>
