<?xml version="1.0" encoding="utf-8"?>
<!-- Generator: Adobe Illustrator 25.0.1, SVG Export Plug-In . SVG Version: 6.00 Build 0)  -->
<svg version="1.1" id="Layer_1" xmlns="http://www.w3.org/2000/svg" xmlns:xlink="http://www.w3.org/1999/xlink" x="0px" y="0px"
	 viewBox="0 0 504.7 136.6" style="enable-background:new 0 0 504.7 136.6;" xml:space="preserve">
<style type="text/css">
	.st0{fill:#2FAAE1;}
	.st1{opacity:0.2;fill:#333333;enable-background:new    ;}
	.st2{opacity:0.35;fill:#333333;enable-background:new    ;}
	.st3{fill:#31AAE1;}
	.st4{fill:#575756;}
</style>
<g>
	<g>
		<polygon class="st0" points="118.3,34.2 118.3,34.2 59.2,0 0,34.2 0,34.2 0,102.4 0,102.4 59.2,136.6 118.3,102.4 59.2,68.3 		"/>
	</g>
</g>
<polygon class="st0" points="236.5,34.2 236.5,34.2 236.5,34.2 177.4,0 177.4,0 177.4,0 177.4,0 177.4,0 118.3,34.2 118.3,34.2 
	118.3,34.2 118.3,102.4 118.3,102.4 177.4,136.6 177.4,136.6 177.4,136.6 177.4,136.6 177.4,136.6 236.5,102.4 236.5,102.4 "/>
<g>
	<polygon class="st1" points="0,102.4 59.2,68.3 0,34.2 	"/>
	<polygon class="st2" points="59.2,136.6 118.3,102.4 59.2,68.3 59.2,68.3 59.2,68.3 59.2,68.3 59.2,68.3 0,102.4 59.2,136.6 
		59.2,136.6 59.2,136.6 	"/>
</g>
<g>
	<polygon class="st1" points="118.3,34.2 177.4,68.3 177.4,136.6 118.3,102.4 	"/>
	<polygon class="st2" points="236.5,34.2 177.4,68.3 177.4,136.6 236.5,102.4 	"/>
</g>
<g>
	<path class="st3" d="M284.9,21.3h10v13.6c-1.6,0.5-3.2,0.9-4.7,1.1s-3.1,0.3-4.9,0.3c-4.1,0-7.3-1.2-9.5-3.6s-3.3-5.9-3.3-10.3
		s1.3-7.8,3.8-10.3s6-3.7,10.4-3.7c2.8,0,5.5,0.5,8.1,1.6l-1.6,3.7c-2.2-1-4.4-1.5-6.6-1.5c-2.9,0-5.2,0.9-6.9,2.7s-2.5,4.3-2.5,7.5
		c0,3.3,0.8,5.8,2.3,7.6s3.7,2.6,6.5,2.6c1.4,0,3-0.2,4.6-0.5v-7H285L284.9,21.3L284.9,21.3z"/>
	<path class="st3" d="M316.8,36h-15.3V8.9h15.3v3.7h-10.9V20h10.2v3.7h-10.2v8.5h10.9V36z"/>
	<path class="st3" d="M327.1,25.2V36h-4.4V8.9h7.7c3.5,0,6.1,0.7,7.8,2c1.7,1.3,2.5,3.3,2.5,5.9c0,3.4-1.8,5.8-5.3,7.2l7.7,12h-5
		l-6.5-10.8C331.6,25.2,327.1,25.2,327.1,25.2z M327.1,21.5h3.1c2.1,0,3.6-0.4,4.5-1.2s1.4-1.9,1.4-3.4s-0.5-2.6-1.5-3.3
		s-2.5-1-4.5-1h-2.9v8.9H327.1z"/>
	<path class="st3" d="M358.7,36l-7.9-22.7h-0.1c0.2,3.4,0.3,6.5,0.3,9.5V36h-4V8.9h6.3l7.5,21.6h0.1l7.8-21.6h6.3V36h-4.3V22.6
		c0-1.3,0-3.1,0.1-5.3s0.1-3.5,0.2-3.9h-0.1L362.8,36H358.7z"/>
	<path class="st3" d="M398.8,36l-2.7-7.5h-10.4L383,36h-4.7l10.1-27.2h4.8L403.3,36H398.8z M394.9,24.6l-2.5-7.4
		c-0.2-0.5-0.4-1.3-0.8-2.3c-0.3-1.1-0.6-1.8-0.7-2.3c-0.3,1.5-0.8,3.2-1.5,5l-2.4,7.1L394.9,24.6L394.9,24.6z"/>
	<path class="st3" d="M429.7,36h-5.4L411,14.4h-0.1l0.1,1.2c0.2,2.3,0.3,4.4,0.3,6.3V36h-4V8.9h5.4L426,30.4h0.1
		c0-0.3-0.1-1.3-0.1-3.1c-0.1-1.8-0.1-3.2-0.1-4.2V8.9h4.1V36H429.7z"/>
	<path class="st4" d="M285.4,57.9c-2.5,0-4.6,0.9-6,2.7c-1.5,1.8-2.2,4.3-2.2,7.5c0,3.3,0.7,5.8,2.1,7.6c1.4,1.7,3.4,2.6,6.1,2.6
		c1.2,0,2.3-0.1,3.3-0.3c1.1-0.2,2.2-0.5,3.4-0.9v3.8c-2.1,0.8-4.5,1.2-7.2,1.2c-4,0-7-1.2-9.1-3.6c-2.1-2.4-3.2-5.8-3.2-10.3
		c0-2.8,0.5-5.3,1.5-7.4s2.5-3.7,4.5-4.9c2-1.1,4.2-1.7,6.9-1.7c2.8,0,5.3,0.6,7.7,1.7l-1.6,3.7c-0.9-0.4-1.9-0.8-2.9-1.1
		C287.6,58,286.5,57.9,285.4,57.9z"/>
	<path class="st4" d="M322,68c0,4.4-1.1,7.8-3.3,10.3c-2.2,2.4-5.3,3.7-9.4,3.7s-7.2-1.2-9.4-3.6c-2.2-2.4-3.3-5.9-3.3-10.4
		s1.1-7.9,3.3-10.3c2.2-2.4,5.4-3.6,9.5-3.6c4,0,7.1,1.2,9.4,3.7C320.9,60.1,322,63.6,322,68z M301.3,68c0,3.3,0.7,5.9,2,7.6
		s3.3,2.6,6,2.6c2.6,0,4.6-0.9,6-2.6c1.3-1.7,2-4.2,2-7.6c0-3.3-0.7-5.9-2-7.6s-3.3-2.6-5.9-2.6c-2.7,0-4.7,0.9-6,2.6
		C302,62.1,301.3,64.7,301.3,68z"/>
	<path class="st4" d="M352.9,81.6h-4.8l-4.6-16.2c-0.2-0.7-0.4-1.7-0.7-3.1c-0.3-1.3-0.5-2.3-0.5-2.8c-0.1,0.8-0.3,1.8-0.6,3.1
		c-0.3,1.3-0.5,2.2-0.7,2.8l-4.5,16.1h-4.8l-3.5-13.6l-3.6-13.5h4.5l3.9,15.8c0.6,2.5,1,4.8,1.3,6.7c0.1-1.1,0.3-2.2,0.6-3.5
		c0.3-1.3,0.5-2.3,0.7-3.2l4.4-15.8h4.4l4.5,15.9c0.4,1.5,0.9,3.7,1.4,6.6c0.2-1.8,0.6-4,1.3-6.8l3.9-15.8h4.5L352.9,81.6z"/>
	<path class="st4" d="M387.9,68c0,4.4-1.1,7.8-3.3,10.3c-2.2,2.4-5.3,3.7-9.4,3.7s-7.2-1.2-9.4-3.6c-2.2-2.4-3.3-5.9-3.3-10.4
		s1.1-7.9,3.3-10.3c2.2-2.4,5.4-3.6,9.5-3.6c4,0,7.1,1.2,9.4,3.7C386.8,60.1,387.9,63.6,387.9,68z M367.2,68c0,3.3,0.7,5.9,2,7.6
		s3.3,2.6,6,2.6c2.6,0,4.6-0.9,6-2.6s2-4.2,2-7.6c0-3.3-0.7-5.9-2-7.6s-3.3-2.6-5.9-2.6c-2.7,0-4.7,0.9-6,2.6
		C367.8,62.1,367.2,64.7,367.2,68z"/>
	<path class="st4" d="M398.1,70.8v10.8h-4.4V54.5h7.7c3.5,0,6.1,0.7,7.8,2c1.7,1.3,2.5,3.3,2.5,5.9c0,3.4-1.8,5.8-5.3,7.2l7.7,12h-5
		l-6.5-10.8C402.6,70.8,398.1,70.8,398.1,70.8z M398.1,67.1h3.1c2.1,0,3.6-0.4,4.5-1.2c0.9-0.8,1.4-1.9,1.4-3.4
		c0-1.5-0.5-2.6-1.5-3.3s-2.5-1-4.5-1h-2.9v8.9H398.1z"/>
	<path class="st4" d="M438.7,81.6h-5.1l-8.5-12.3l-2.6,2.1v10.1h-4.4v-27h4.4v13c1.2-1.5,2.4-2.9,3.6-4.3l7.3-8.7h5
		c-4.7,5.6-8.1,9.5-10.2,11.9L438.7,81.6z"/>
	<path class="st4" d="M442.3,81.6V54.5h4.4v27.1C446.7,81.6,442.3,81.6,442.3,81.6z"/>
	<path class="st4" d="M476.5,81.6h-5.4L457.8,60h-0.1l0.1,1.2c0.2,2.3,0.3,4.4,0.3,6.3v14.1h-4V54.5h5.4L472.8,76h0.1
		c0-0.3-0.1-1.3-0.1-3.1c-0.1-1.8-0.1-3.2-0.1-4.2V54.5h4.1v27.1H476.5z"/>
	<path class="st4" d="M494.7,66.9h10v13.6c-1.6,0.5-3.2,0.9-4.7,1.1s-3.1,0.3-4.9,0.3c-4.1,0-7.3-1.2-9.5-3.6
		c-2.2-2.4-3.3-5.9-3.3-10.3c0-4.4,1.3-7.8,3.8-10.3s6-3.7,10.4-3.7c2.8,0,5.5,0.5,8.1,1.6l-1.6,3.7c-2.2-1-4.4-1.5-6.6-1.5
		c-2.9,0-5.2,0.9-6.9,2.7c-1.7,1.8-2.5,4.3-2.5,7.5c0,3.3,0.8,5.8,2.3,7.6c1.5,1.7,3.7,2.6,6.5,2.6c1.4,0,3-0.2,4.6-0.5v-7h-5.6
		L494.7,66.9L494.7,66.9z"/>
	<path class="st3" d="M278.2,127.2h-4.4v-27.1h15.3v3.7h-10.9v8.5h10.2v3.8h-10.2V127.2z"/>
	<path class="st3" d="M309.4,127.2h-15.3v-27.1h15.3v3.7h-10.9v7.4h10.2v3.7h-10.2v8.5h10.9V127.2z"/>
	<path class="st3" d="M337.3,113.4c0,4.5-1.2,7.9-3.7,10.3c-2.5,2.4-6.1,3.6-10.7,3.6h-7.6v-27.1h8.4c4.3,0,7.7,1.2,10.1,3.5
		S337.3,109.2,337.3,113.4z M332.7,113.5c0-6.5-3-9.7-9.1-9.7h-3.8v19.7h3.2C329.4,123.5,332.7,120.1,332.7,113.5z"/>
	<path class="st3" d="M358.5,127.2h-15.3v-27.1h15.3v3.7h-10.9v7.4h10.2v3.7h-10.2v8.5h10.9V127.2z"/>
	<path class="st3" d="M368.8,116.4v10.8h-4.4v-27.1h7.7c3.5,0,6.1,0.7,7.8,2c1.7,1.3,2.5,3.3,2.5,5.9c0,3.4-1.8,5.8-5.3,7.2l7.7,12
		h-5l-6.5-10.8L368.8,116.4L368.8,116.4z M368.8,112.7h3.1c2.1,0,3.6-0.4,4.5-1.2s1.4-1.9,1.4-3.4s-0.5-2.6-1.5-3.3s-2.5-1-4.5-1
		h-2.9v8.9H368.8z"/>
	<path class="st3" d="M405.5,127.2l-2.7-7.5h-10.4l-2.7,7.5H385l10.1-27.2h4.8l10.1,27.2H405.5z M401.6,115.8l-2.5-7.4
		c-0.2-0.5-0.4-1.3-0.8-2.3c-0.3-1.1-0.6-1.8-0.7-2.3c-0.3,1.5-0.8,3.2-1.5,5l-2.4,7.1h7.9V115.8z"/>
	<path class="st3" d="M423.2,127.2h-4.4v-23.3h-8v-3.8h20.4v3.8h-8V127.2z"/>
	<path class="st3" d="M435.3,127.2v-27.1h4.4v27.1H435.3z"/>
	<path class="st3" d="M471,113.6c0,4.4-1.1,7.8-3.3,10.3c-2.2,2.4-5.3,3.7-9.4,3.7s-7.2-1.2-9.4-3.6c-2.2-2.4-3.3-5.9-3.3-10.4
		s1.1-7.9,3.3-10.3c2.2-2.4,5.4-3.6,9.5-3.6c4,0,7.1,1.2,9.4,3.7S471,109.2,471,113.6z M450.3,113.6c0,3.3,0.7,5.9,2,7.6
		c1.3,1.7,3.3,2.6,6,2.6c2.6,0,4.6-0.9,6-2.6c1.3-1.7,2-4.2,2-7.6c0-3.3-0.7-5.9-2-7.6c-1.3-1.7-3.3-2.6-5.9-2.6
		c-2.7,0-4.7,0.9-6,2.6C450.9,107.7,450.3,110.3,450.3,113.6z"/>
	<path class="st3" d="M499.4,127.2H494l-13.3-21.6h-0.1l0.1,1.2c0.2,2.3,0.3,4.4,0.3,6.3v14.1h-4v-27.1h5.4l13.3,21.5h0.1
		c0-0.3-0.1-1.3-0.1-3.1s-0.1-3.2-0.1-4.2v-14.2h4.1v27.1H499.4z"/>
</g>
</svg>
