<?xml version="1.0" encoding="utf-8"?>
<!-- Generator: Adobe Illustrator 25.0.0, SVG Export Plug-In . SVG Version: 6.00 Build 0)  -->
<svg version="1.1" id="Layer_1" xmlns="http://www.w3.org/2000/svg" xmlns:xlink="http://www.w3.org/1999/xlink" x="0px" y="0px"
	 viewBox="0 0 160 55.8" style="enable-background:new 0 0 160 55.8;" xml:space="preserve">
<style type="text/css">
	.st0{clip-path:url(#SVGID_2_);}
	.st1{fill:#B2C6DF;}
	.st2{fill:#FFFFFF;}
	.st3{clip-path:url(#SVGID_4_);}
</style>
<g id="NFon" transform="translate(338 99)">
	<g id="Ebene_1" transform="translate(-338 -99)">
		<g>
			<defs>
				<rect id="SVGID_1_" x="3.3" y="2.7" width="49.4" height="50.4"/>
			</defs>
			<clipPath id="SVGID_2_">
				<use xlink:href="#SVGID_1_"  style="overflow:visible;"/>
			</clipPath>
			<g id="Group_11012" class="st0">
				<path id="Path_12351" class="st1" d="M52.6,27.4c0-13.6-11-24.6-24.6-24.6S3.4,13.8,3.4,27.4C3.4,41,14.4,52,28,52
					C41.6,52,52.6,41,52.6,27.4"/>
				<path id="Path_12352" class="st2" d="M46.5,26c0.3-5-9.4-13.1-16.9-11.8c-0.1,0-0.2,0-0.3,0.1c-4.5-4.3-10.2-6.2-13.3-4
					c-2.5,1.8-3,6.7-1.6,13.1c-2.8,2.7-4.6,5.3-4.5,6.8c0.2,1.8,3.4,2.8,7.8,3.1C23.2,45.9,28.4,49,31.8,47.8
					c3.6-1.3,5.9-8.4,5.3-16.2C42.4,30.3,46.4,28.4,46.5,26 M19.8,33.5c5.1,0.1,10.3-0.4,15.3-1.5c0.1,5.9-1.6,11-4.2,11.9
					C28.2,44.9,24.2,42.8,19.8,33.5 M35,29.7c-0.8,0.2-1.5,0.3-2.3,0.4c-4.6,0.7-9.3,0.9-14,0.5c-0.7-1.8-1.4-3.7-1.8-5.7
					c3.3-2.7,8.8-5.7,12.6-6.4c0.5-0.1,1-0.1,1.6-0.1C33.2,21.8,34.6,25.7,35,29.7 M15.2,26.5c0.4,1.3,0.8,2.6,1.3,3.9
					c-1.6-0.3-2.6-0.8-2.7-1.4S14.3,27.5,15.2,26.5 M27.3,14.9c-4.1,1.7-7.9,4.1-11.2,7c-0.6-4.2,0-7.3,1.8-8.5
					C20.3,11.7,24.3,12.8,27.3,14.9 M43,25.3c0,1.2-2.1,2.8-6.2,4c-0.6-3.8-1.9-7.4-3.9-10.7C38,19.2,43,22.6,43,25.3"/>
			</g>
		</g>
		<g id="Group_11019" transform="translate(56.411 6)">
			<path id="Path_12347" class="st1" d="M23.6,7.8v15.7L7.2,7.8H3.7v17.8h2.4V10l16.3,15.7H26V7.8H23.6z"/>
			<path id="Path_12348" class="st1" d="M30.6,7.8h17v2H33v5.7h14v2H33v8.2h-2.4V7.8z"/>
			<g>
				<defs>
					<rect id="SVGID_3_" x="3.3" y="2.7" width="97.1" height="38.5"/>
				</defs>
				<clipPath id="SVGID_4_">
					<use xlink:href="#SVGID_3_"  style="overflow:visible;"/>
				</clipPath>
				<g id="Group_11011" transform="translate(0)" class="st3">
					<path id="Path_12349" class="st1" d="M71.3,20c0,3.1-1.9,3.8-4.2,3.8h-9.8c-2.3,0-4.2-0.7-4.2-3.8v-6.7c0-3.1,1.9-3.8,4.2-3.8
						h9.8c2.3,0,4.2,0.7,4.2,3.8L71.3,20z M67.4,7.6H57.1c-4.8,0-6.3,2.2-6.3,6.7v4.9c0,4.5,1.5,6.7,6.3,6.7h10.3
						c4.8,0,6.3-2.2,6.3-6.7v-4.9C73.7,9.8,72.2,7.6,67.4,7.6"/>
				</g>
			</g>
			<path id="Path_12350" class="st1" d="M97.7,7.8v15.7L81.4,7.8h-3.6v17.8h2.4V10l16.3,15.7h3.6V7.8H97.7z"/>
			<path id="Path_12419" class="st1" d="M93.7,39h0.6v-3.5c0.3-0.4,0.8-0.6,1.3-0.6c0.5,0,0.9,0.2,1.2,0.6V39h0.6v-3.5
				c0.3-0.4,0.8-0.6,1.3-0.6c0.8,0,1.1,0.4,1.1,1.2v3h0.6v-3c0-1.1-0.5-1.7-1.6-1.7c-0.6,0-1.2,0.3-1.6,0.7
				c-0.3-0.5-0.9-0.8-1.5-0.7c-0.5,0-1,0.2-1.4,0.6v-0.5h-0.6L93.7,39z M89.4,36.4c0-0.9,0.4-1.5,1.4-1.5c0.7,0,1.2,0.5,1.2,1.2
				c0,0.1,0,0.1,0,0.2v0.2L89.4,36.4z M90.8,38.6c-1,0-1.5-0.7-1.5-1.7h3.1c0-0.2,0-0.4,0-0.7c0.1-1-0.6-1.8-1.6-1.9
				c-0.1,0-0.2,0-0.2,0c-1.4,0-2,1-2,2.4s0.5,2.4,2,2.4c0.6,0,1.2-0.2,1.6-0.6L92,38c-0.4,0.3-0.8,0.5-1.3,0.5 M86.7,35H88v-0.5
				h-1.3v-1.3l-0.6,0.1v1.2l-0.9,0.1V35h0.9v2.9c0,0.8,0.4,1.3,1.1,1.3c0.3,0,0.6-0.1,0.9-0.2L88,38.4c-0.2,0.1-0.4,0.2-0.7,0.2
				c-0.5,0-0.7-0.3-0.7-0.8L86.7,35z M84.5,35c-0.4-0.4-0.9-0.6-1.5-0.6c-1.2,0-1.6,0.7-1.6,1.3c0,0.6,0.5,1.1,1.1,1.2l0.8,0.2
				c0.5,0.1,0.8,0.3,0.8,0.7s-0.5,0.8-1.1,0.8c-0.5,0-1-0.2-1.3-0.7l-0.4,0.4c0.4,0.5,1,0.8,1.7,0.8c1.1,0,1.8-0.5,1.8-1.3
				s-0.4-1-1.3-1.2l-0.8-0.2C82.1,36.2,82,36,82,35.6c0-0.5,0.5-0.9,1-0.8c0,0,0,0,0,0c0.4,0,0.9,0.2,1.2,0.5L84.5,35z M77,34.4
				h-0.7l2,4.2l-1.1,2.5h0.7l2.8-6.7H80L78.5,38L77,34.4z M75.7,33.1c-0.5-0.7-1.2-1.1-2-1c-1.1-0.1-2,0.6-2.1,1.7
				c0,0.1,0,0.1,0,0.2c0,0.9,0.6,1.6,1.5,1.7l0.9,0.3c0.7,0.2,1.2,0.5,1.2,1.2c0,0.8-0.7,1.4-1.5,1.3c0,0-0.1,0-0.1,0
				c-0.8,0.1-1.5-0.3-1.8-1l-0.5,0.3c0.4,0.9,1.3,1.4,2.3,1.3c1.5,0,2.2-0.8,2.2-1.9s-0.7-1.5-1.6-1.7l-0.9-0.2
				c-0.7-0.2-1.1-0.5-1.1-1.1c0-0.7,0.5-1.3,1.3-1.4c0.1,0,0.1,0,0.2,0c0.6,0,1.2,0.3,1.5,0.8L75.7,33.1z M65.1,36.4
				c0-0.9,0.4-1.5,1.4-1.5c0.7,0,1.2,0.5,1.2,1.2c0,0.1,0,0.1,0,0.2v0.2L65.1,36.4z M66.6,38.6c-1,0-1.4-0.7-1.5-1.7h3.1
				c0-0.2,0-0.4,0-0.7c0.1-1-0.6-1.8-1.6-1.9c-0.1,0-0.1,0-0.2,0c-1.4,0-2,1-2,2.4s0.6,2.4,2,2.4c0.6,0,1.2-0.2,1.6-0.6L67.8,38
				c-0.4,0.3-0.8,0.5-1.3,0.5 M59.5,39h0.6v-3.5c0.4-0.4,0.9-0.7,1.5-0.6c0.9,0,1.2,0.4,1.2,1.2v3h0.6v-3c0-1.1-0.4-1.7-1.6-1.7
				c-0.6,0-1.1,0.2-1.5,0.7v-0.5h-0.6L59.5,39z M56.3,38.5c-1,0-1.4-0.7-1.4-1.8s0.4-1.8,1.4-1.8s1.5,0.7,1.5,1.8
				S57.4,38.5,56.3,38.5 M56.3,34.3c-1.4,0-2,1-2,2.4s0.7,2.4,2,2.4s2-1,2-2.4S57.8,34.3,56.3,34.3 M49.5,39H50v-3.5
				c0.4-0.4,0.9-0.7,1.5-0.6c0.9,0,1.2,0.4,1.2,1.2v3h0.6v-3c0-1.1-0.4-1.7-1.6-1.7c-0.6,0-1.1,0.2-1.5,0.6v-3h-0.6L49.5,39z
				 M47.6,36.7c0,1.1-0.3,1.8-1.5,1.8c-0.5,0-1-0.2-1.3-0.7v-2.3c0.3-0.4,0.8-0.7,1.3-0.7C47.2,34.9,47.6,35.7,47.6,36.7L47.6,36.7z
				 M44.9,38.5c0.3,0.4,0.8,0.6,1.4,0.5c1.4,0,2-0.9,2-2.4s-0.6-2.4-2-2.4c-0.5,0-1,0.2-1.4,0.6v-0.5h-0.6v6.7h0.6L44.9,38.5z
				 M40,36.4c0-0.9,0.4-1.5,1.3-1.5c0.7,0,1.2,0.5,1.2,1.2c0,0.1,0,0.1,0,0.2c0,0.1,0,0.1,0,0.2L40,36.4z M41.4,38.6
				c-1,0-1.4-0.7-1.4-1.7h3.2c0-0.2,0-0.4,0-0.7c0.1-1-0.6-1.8-1.6-1.9c-0.1,0-0.1,0-0.2,0c-1.3,0-2,1-2,2.4s0.6,2.4,2,2.4
				c0.6,0,1.2-0.2,1.6-0.6L42.8,38C42.4,38.4,42,38.6,41.4,38.6 M37.5,32.1v5.8c0,0.8,0.2,1.2,1,1.2h0.3v-0.6h-0.3
				c-0.4,0-0.5-0.2-0.5-0.7v-5.7L37.5,32.1z M33.2,36.4c0-0.9,0.4-1.5,1.4-1.5c0.7,0,1.2,0.5,1.2,1.2c0,0.1,0,0.1,0,0.2
				c0,0.1,0,0.1,0,0.2L33.2,36.4z M34.7,38.6c-1,0-1.5-0.7-1.5-1.7h3.1c0-0.2,0-0.4,0-0.7c0.1-1-0.6-1.8-1.6-1.9c-0.1,0-0.1,0-0.2,0
				c-1.4,0-2,1-2,2.4s0.6,2.4,2,2.4c0.6,0,1.2-0.2,1.6-0.6L35.9,38c-0.3,0.3-0.8,0.5-1.3,0.5 M28.2,32.3v0.5h2v6.2h0.6v-6.3h2v-0.5
				L28.2,32.3z M21.9,36.7c0-1.1,0.3-1.8,1.5-1.8c0.5,0,1,0.2,1.3,0.7v2.3c-0.3,0.4-0.8,0.7-1.3,0.7C22.2,38.5,21.9,37.7,21.9,36.7
				L21.9,36.7z M24.6,34.9c-0.4-0.4-0.8-0.6-1.4-0.6c-1.4,0-2,0.9-2,2.4s0.6,2.4,1.9,2.4c0.5,0,1-0.2,1.4-0.5V39h0.6v-7h-0.6
				L24.6,34.9z M20.2,34.5h-0.6V38c-0.4,0.4-0.9,0.7-1.5,0.6c-0.9,0-1.2-0.4-1.2-1.2v-3h-0.6v3c0,1.1,0.4,1.7,1.6,1.7
				c0.6,0,1.2-0.2,1.6-0.7V39h0.6L20.2,34.5z M13.1,38.5c-1,0-1.4-0.7-1.4-1.8s0.4-1.8,1.5-1.8s1.5,0.7,1.5,1.8S14.3,38.5,13.1,38.5
				 M13.2,34.3c-1.5,0-2,1-2,2.4s0.6,2.4,2,2.4s2-1,2-2.4S14.6,34.4,13.2,34.3 M9.2,32.1v5.8c0,0.8,0.2,1.2,1,1.2h0.4v-0.6h-0.3
				c-0.4,0-0.5-0.2-0.5-0.7v-5.7H9.2z M3.9,35.6c0-1.7,0.5-3,2.1-3c0.7,0,1.3,0.3,1.6,0.9l0.5-0.3C7.6,32.5,6.8,32,6,32.1
				c-1.9,0-2.7,1.4-2.7,3.5s0.8,3.5,2.7,3.5c0.9,0.1,1.7-0.4,2.1-1.1l-0.5-0.3c-0.3,0.6-0.9,0.9-1.6,0.9C4.5,38.5,3.9,37.3,3.9,35.6
				"/>
		</g>
	</g>
</g>
</svg>
