<?xml version="1.0" encoding="utf-8"?>
<!-- Generator: Adobe Illustrator 25.0.1, SVG Export Plug-In . SVG Version: 6.00 Build 0)  -->
<svg version="1.1" id="layer" xmlns="http://www.w3.org/2000/svg" xmlns:xlink="http://www.w3.org/1999/xlink" x="0px" y="0px"
	 viewBox="0 0 599.9 126.9" style="enable-background:new 0 0 599.9 126.9;" xml:space="preserve">
<style type="text/css">
	.st0{fill:#202F44;}
</style>
<path class="st0" d="M39.8,30.2c-10.8,0-17.7,3.9-22.1,9.5l-0.4-8.1H0v95.3h17.9V91.8c4.5,5.1,12,8.5,21.9,8.5
	c19.1,0,32.6-14.4,32.6-34.7C72.4,45,58.9,30.2,39.8,30.2z M17.9,65.4c0-10.7,7.6-19.1,18.3-19.1s18.2,8.3,18.2,19.1
	c0,10.6-7.6,18.7-18.2,18.7C25.6,84.1,17.9,76.1,17.9,65.4z M114.6,100.2c10.4,0,17.5-3.9,21.9-9.5l0.4,8.1h17.5V31.5h-17.6
	l-0.4,8.1c-4.4-5.5-11.5-9.5-21.9-9.5C96,30.1,82.1,44.6,82.1,65C82.1,85.4,96.1,100.2,114.6,100.2z M136.4,65.1
	c0,10.8-7.6,19.2-18.4,19.2c-10.8,0-18.1-8.4-18.1-19.2c0-10.7,7.3-18.8,18.1-18.8C128.8,46.2,136.4,54.3,136.4,65.1z M196,57.8
	c-8.1-1.5-11-3.2-11-6.4c0-4,4.3-6.1,13.1-6.1c6.4,0,15.4,1.7,20.3,3.8l1.5-14.6c-6-2.7-14.4-4.2-22.8-4.2
	c-17.9,0-29.5,8.6-29.5,21.2c0,11.1,6.3,17.7,19.3,20L195,73c7.8,1.4,10.7,3.2,10.7,6.7c0,4-3.7,5.8-12.5,5.8
	c-6.9,0-16-1.9-22.6-4.7l-1.9,14.7c6.1,3,15.8,4.8,25.9,4.8c17.2,0,28.4-7.5,28.4-21c0-11.6-6.7-17.7-20-20.1L196,57.8z M260.6,57.8
	c-8.1-1.5-11-3.2-11-6.4c0-4,4.3-6.1,13.1-6.1c6.4,0,15.4,1.7,20.3,3.8l1.5-14.6c-6-2.7-14.4-4.2-22.8-4.2
	c-17.9,0-29.5,8.6-29.5,21.2c0,11.1,6.3,17.7,19.3,20l8.1,1.5c7.8,1.4,10.7,3.2,10.7,6.7c0,4-3.7,5.8-12.5,5.8
	c-6.9,0-16-1.9-22.6-4.7l-1.9,14.7c6.1,3,15.8,4.8,25.9,4.8c17.2,0,28.4-7.5,28.4-21c0-11.6-6.7-17.7-20-20.1L260.6,57.8z
	 M340.3,100.2c19.1,0,32.6-14.8,32.6-35.1c0-20.5-13.5-35-32.6-35c-10.8,0-17.7,3.9-22.1,9.5V0h-17.7v98.7h17.6l0.3-7.1
	C322.8,96.8,330.5,100.2,340.3,100.2z M318.4,65.1c0-10.7,7.7-18.8,18.3-18.8c10.7,0,18.2,7.9,18.2,18.8c0,10.6-7.6,19.1-18.2,19.1
	C326.1,84.1,318.4,75.7,318.4,65.1z M415.1,100.2c10.4,0,17.5-3.9,21.9-9.5l0.3,8.1h17.6V31.5h-17.5l-0.3,8.1
	c-4.4-5.5-11.5-9.5-21.9-9.5c-18.5,0-32.4,14.5-32.4,34.9C382.7,85.4,396.6,100.2,415.1,100.2z M437,65.1c0,10.8-7.6,19.2-18.4,19.2
	s-18.1-8.4-18.1-19.2c0-10.7,7.3-18.8,18.1-18.8C429.3,46.2,437,54.3,437,65.1z M496.6,57.8c-8.1-1.5-11-3.2-11-6.4
	c0-4,4.3-6.1,13.1-6.1c6.4,0,15.4,1.7,20.3,3.8l1.5-14.6c-6-2.7-14.4-4.2-22.8-4.2c-17.9,0-29.5,8.6-29.5,21.2
	c0,11.1,6.3,17.7,19.3,20l8.1,1.5c7.8,1.4,10.7,3.2,10.7,6.7c0,4-3.7,5.8-12.5,5.8c-6.9,0-16-1.9-22.6-4.7l-1.9,14.7
	c6.1,3,15.8,4.8,25.9,4.8c17.2,0,28.4-7.5,28.4-21c0-11.6-6.7-17.7-20-20.1L496.6,57.8z M594.7,79.3c-6.7,3.2-14.4,5.1-22.8,5.1
	c-11.1,0-19.5-4.5-21.3-13.9h48.6c4.4-24.9-11.3-40.4-31.9-40.4c-20,0-34.5,14.4-34.5,35c0,20.9,15.3,35,39.1,35
	c9.8,0,18.8-2.6,25.4-6.3L594.7,79.3z M550.9,58.5c0.8-7.6,7.2-13.2,16.8-13.2c9.2,0,14.9,5.7,15.4,13.2H550.9z"/>
</svg>
