<?xml version="1.0" encoding="utf-8"?>
<!-- Generator: Adobe Illustrator 25.0.0, SVG Export Plug-In . SVG Version: 6.00 Build 0)  -->
<svg version="1.1" id="Layer_1" xmlns="http://www.w3.org/2000/svg" xmlns:xlink="http://www.w3.org/1999/xlink" x="0px" y="0px"
	 viewBox="0 0 159 47.6" style="enable-background:new 0 0 159 47.6;" xml:space="preserve">
<style type="text/css">
	.st0{fill:#B2C6DF;}
</style>
<g id="slack" transform="translate(-1.464 -25.444)">
	<path id="Path_360" class="st0" d="M58.4,44.2c0-4.6,3.4-7.9,9.5-7.9c3-0.1,5.9,0.8,8.5,2.4c0.4,0.3,0.6,0.8,0.4,1.3
		c-0.3,0.8-0.9,2-1.4,2.8c-0.3,0.4-0.8,0.5-1.2,0.2c-1.5-0.9-3.2-1.5-4.9-1.8c-0.5,0-0.9-0.1-1.4-0.1c-1.6,0-2.9,0.6-3.3,1.8
		c-0.1,0.2-0.1,0.5-0.1,0.7c0,1.6,2.2,2.1,4.8,2.6c4.9,0.8,8.7,2.3,8.7,7.4c0,4.3-3.4,8.2-10.2,8.1c-3.3,0.1-6.6-1-9.3-3
		c-0.4-0.4-0.5-1-0.4-1.5c0.4-1,0.9-1.9,1.6-2.8c0.4-0.4,1-0.5,1.5-0.2c1.9,1.3,4,2.1,6.3,2.3c0.2,0,0.4,0,0.6,0
		c2.4-0.1,3.8-1,3.8-2.5c0-1.3-1.9-2.1-4.9-2.7C62.3,50.6,58.4,49,58.4,44.2 M101.8,50.8c-3.4,0-6.5,1-6.5,3.6c0,2.1,1.7,3.1,4.1,3
		c1.9,0,3.7-1,4.8-2.5c0.3-1,0.4-2,0.3-3.1c0-0.2-0.3-0.5-0.5-0.5C103.3,51,102.6,50.8,101.8,50.8 M90.6,40.2
		c2.6-2.4,6.1-3.6,9.7-3.5c6.6,0.1,10,3.2,10.4,10.6c0.1,3-0.1,11.5-0.1,13.6c0,0.3-0.1,0.5-0.5,0.5c-1.1,0-3.6,0-4.7,0
		c-0.6,0-0.6-0.3-0.7-0.6c0-0.2,0-0.8,0-1.3c0-0.1-0.1-0.2-0.2-0.2c0,0-0.1,0-0.1,0c-1.8,1.7-4.3,2.6-6.7,2.4
		c-4.1,0-8.1-2.4-8.1-7.2c0-4.9,3.5-7.3,7.3-7.8c2.4-0.3,4.9-0.1,7.2,0.8c0.1,0.1,0.4,0,0.4-0.2c0-0.8,0-1.6-0.1-2.4
		c-0.3-1.4-1.5-2.6-4-2.9c-0.5-0.1-1-0.1-1.6,0c-2,0.2-4.4,1.7-5.4,2.3c-0.2,0.1-0.5,0.1-0.7-0.1c-0.8-1-1.5-2.1-2.1-3.3
		C90.3,40.7,90.4,40.4,90.6,40.2L90.6,40.2L90.6,40.2z M112.8,49.3c0-6.8,4.7-12.5,12.4-12.6c4.8,0,8.3,2.1,8.9,3.2
		c0.1,0.2,0.1,0.5,0,0.7c-0.6,1.2-1.3,2.4-2.2,3.4c-0.3,0.4-0.6,0.1-1-0.2c-1.6-1-3.3-1.6-5.2-1.6c-3.7,0-6.4,2.5-6.4,7.2
		c0,4.5,2.7,6.9,6.4,7c1.8-0.1,3.6-0.8,4.9-2c0.3-0.3,0.7-0.1,1,0.1c0.8,0.8,1.6,1.7,2.3,2.7c0.3,0.3,0.2,0.8,0,1
		c-2.2,2.4-5.3,3.8-8.5,3.7C117,61.9,112.9,56.1,112.8,49.3 M152.6,61.6c0.4,0,4.6-0.6,5.8-0.9c0.2,0,0.4-0.2,0.3-0.4
		c0-0.1,0-0.1-0.1-0.2c-0.7-1.1-2.6-4.1-4.6-6.8c-1.8-2.5-3.7-4.7-4.3-5.6c-0.2-0.2-0.1-0.4,0-0.6c0,0,0,0,0,0c1.2-1.2,6.1-6,7.9-8
		c0.7-0.8,0.3-1.1-0.3-1.3c-1.2-0.3-3.1-0.8-4.2-1c-0.5-0.1-1,0-1.4,0.3c-1.8,1.7-7.5,7.4-9.2,9.1c-0.3,0.3-0.5,0.2-0.5-0.2
		c0-3.3-0.1-17.2-0.2-19.5c-0.1-0.3-0.3-0.5-0.6-0.5c-1.1-0.1-3.7-0.1-4.8,0c-0.3,0.1-0.5,0.3-0.6,0.6c-0.2,3.7,0.1,30.6,0.2,34.4
		c0,0.3,0.2,0.5,0.5,0.5c1.1,0.1,3.7,0.1,4.9,0c0.6,0,0.7-0.4,0.7-0.4l0.1-7.2c0-0.2,0.1-0.3,0.2-0.4c0.4-0.5,1.6-1.7,2.1-2.2
		c0.1-0.1,0.3-0.1,0.4,0c0,0,0,0,0,0.1c0.6,0.8,2.3,3.4,3.9,5.8c1.5,2.2,2.8,4.1,2.9,4.2C152.1,61.5,152.4,61.6,152.6,61.6
		L152.6,61.6L152.6,61.6z M81.6,61.6c0.4,0,3.2,0,4.4,0c0.3,0,0.6-0.2,0.6-0.6c0,0,0,0,0,0c0.3-5.3,0.1-30.5,0-34.4
		c0-0.3-0.2-0.5-0.4-0.5c-1.7-0.2-3.4-0.1-5,0.1c-0.2,0-0.3,0.2-0.3,0.4c-0.2,10.2-0.1,33.9,0,34.3C80.9,61.3,81.2,61.6,81.6,61.6
		C81.6,61.6,81.6,61.6,81.6,61.6L81.6,61.6L81.6,61.6z"/>
	<path id="Path_361" class="st0" d="M7,51c-1.7,0-3.2-1-3.7-2.6c0-0.1,0-0.1-0.1-0.2c-0.6-2.1,0.6-4.2,2.6-4.9l32.6-10.9
		c0.4-0.1,0.8-0.2,1.2-0.2c1.7,0,3.3,1,3.8,2.7l0,0.2c0.5,2-0.7,4.1-2.7,4.6L8.4,50.8C7.9,51,7.5,51,7,51L7,51z"/>
	<path id="Path_362" class="st0" d="M12.5,67.1c-1.7,0.1-3.2-1-3.7-2.6c0-0.1,0-0.1-0.1-0.2c-0.6-2.1,0.5-4.2,2.6-4.9l32.6-11
		c0.4-0.1,0.9-0.2,1.3-0.2c1.7,0,3.2,1,3.8,2.6l0,0.2c0.3,1.1,0.1,2.3-0.5,3.3c-0.5,0.6-1.2,1.1-1.9,1.4L13.9,66.8
		C13.4,67,12.9,67.1,12.5,67.1L12.5,67.1z"/>
	<path id="Path_363" class="st0" d="M39.6,67.1c-1.7,0-3.3-1.1-3.8-2.7L24.9,32.1l-0.1-0.2c-0.7-2.1,0.5-4.4,2.6-5s4.4,0.5,5,2.6
		l10.9,32.3l0,0.1c0.7,2.1-0.5,4.4-2.6,5C40.4,67.1,40,67.1,39.6,67.1L39.6,67.1z"/>
	<path id="Path_364" class="st0" d="M23.4,72.6c-1.7,0-3.3-1.1-3.8-2.7L8.7,37.6c-0.7-2.1,0.4-4.4,2.5-5.1c0,0,0,0,0,0
		c0.4-0.1,0.8-0.2,1.2-0.2c1.7,0,3.3,1.1,3.8,2.7l10.9,32.3c0.7,2.1-0.4,4.4-2.5,5.1C24.3,72.5,23.9,72.6,23.4,72.6L23.4,72.6
		L23.4,72.6z"/>
	<path id="Path_365" class="st0" d="M34.2,59.9l7.6-2.6l-2.5-7.4l-7.6,2.6L34.2,59.9z"/>
	<path id="Path_366" class="st0" d="M18.1,65.4l7.6-2.6l-2.5-7.4l-7.6,2.6L18.1,65.4z"/>
	<path id="Path_367" class="st0" d="M28.8,43.8l7.6-2.6L34,34l-7.6,2.5L28.8,43.8z"/>
	<path id="Path_368" class="st0" d="M12.7,49.3l7.6-2.6l-2.5-7.4l-7.6,2.5L12.7,49.3z"/>
</g>
</svg>
