<?xml version="1.0" encoding="utf-8"?>
<!-- Generator: Adobe Illustrator 25.0.1, SVG Export Plug-In . SVG Version: 6.00 Build 0)  -->
<svg version="1.1" id="layer" xmlns="http://www.w3.org/2000/svg" xmlns:xlink="http://www.w3.org/1999/xlink" x="0px" y="0px"
	 viewBox="0 0 600 149.2" style="enable-background:new 0 0 600 149.2;" xml:space="preserve">
<style type="text/css">
	.st0{fill:#36C5F0;}
	.st1{fill:#2EB67D;}
	.st2{fill:#ECB22E;}
	.st3{fill:#E01E5A;}
</style>
<path d="M188.5,118l7.3-17.1c8,5.9,18.4,9,28.8,9c7.6,0,12.5-3,12.5-7.5c-0.2-12.5-46-2.8-46.4-34.3c-0.2-16,14.1-28.4,34.2-28.4
	c12,0,24,3,32.5,9.7l-6.8,17.4c-7.8-5-17.5-8.5-26.7-8.5c-6.3,0-10.4,3-10.4,6.8c0.2,12.4,46.4,5.6,46.9,35.7
	c0,16.4-13.9,27.8-33.7,27.8C212.1,128.8,198.7,125.3,188.5,118 M479,94.8c-3.8,6.7-10.8,10.8-18.4,10.8c-11.7,0-21.2-9.5-21.2-21.2
	s9.5-21.2,21.2-21.2c7.6,0,14.7,4.1,18.4,10.8l20.3-11.3c-7.6-13.6-22.1-22.8-38.7-22.8c-24.5,0-44.4,19.9-44.4,44.5
	s19.9,44.5,44.4,44.5c16.6,0,31.1-9.2,38.7-22.8L479,94.8z M273.6,127H299V2.8h-25.4V127z M512.1,2.8V127h25.4V89.8l30.1,37.2H600
	l-38.2-44.2l35.4-41.3h-31l-28.7,34.3V2.7L512.1,2.8L512.1,2.8z M377.1,41.6v10.1c-4.2-7-14.4-11.8-25.2-11.8
	c-22.2,0-39.8,19.7-39.8,44.4c0,24.7,17.5,44.6,39.8,44.6c10.8,0,21-4.9,25.2-11.8v10.1h25.4V41.7h-25.4V41.6z M377.1,94.9
	c-3.6,6.1-11.3,10.6-19.8,10.6c-11.7,0-21.2-9.5-21.2-21.2s9.5-21.2,21.2-21.2c8.5,0,16.2,4.7,19.8,11V94.9z"/>
<path class="st0" d="M54.5,0.1c-8.2,0-14.9,6.7-14.9,14.9c0,8.2,6.7,14.9,14.9,14.9l0,0h14.9V15C69.4,6.8,62.8,0.1,54.5,0.1
	 M54.5,39.8H14.9C6.7,39.8,0,46.5,0,54.7c0,8.2,6.7,14.9,14.9,14.9h39.7c8.2,0,14.9-6.7,14.9-14.9C69.4,46.5,62.8,39.8,54.5,39.8"/>
<path class="st1" d="M148.8,54.7c0-8.2-6.7-14.9-14.9-14.9S119,46.5,119,54.7v14.9h14.9C142.1,69.7,148.8,63,148.8,54.7 M109.1,54.7
	V14.9c0-8.2-6.7-14.9-14.9-14.9S79.3,6.7,79.3,14.9v39.8c0,8.2,6.7,14.9,14.9,14.9C102.5,69.7,109.1,63,109.1,54.7"/>
<path class="st2" d="M94.2,149.2c8.2,0,14.9-6.7,14.9-14.9c0-8.2-6.7-14.9-14.9-14.9H79.3v14.9C79.3,142.5,86,149.2,94.2,149.2
	 M94.2,109.4h39.7c8.2,0,14.9-6.7,14.9-14.9c0-8.2-6.7-14.9-14.9-14.9H94.2c-8.2,0-14.9,6.7-14.9,14.9
	C79.3,102.7,86,109.4,94.2,109.4L94.2,109.4"/>
<path class="st3" d="M0,94.5c0,8.2,6.7,14.9,14.9,14.9l0,0c8.2,0,14.9-6.7,14.9-14.9V79.6H14.9C6.6,79.6,0,86.3,0,94.5 M39.7,94.5
	v39.8c0,8.2,6.7,14.9,14.9,14.9s14.9-6.7,14.9-14.9V94.5c0-8.2-6.7-14.9-14.9-14.9l0,0C46.3,79.6,39.7,86.3,39.7,94.5"/>
</svg>
