<?xml version="1.0" encoding="utf-8"?>
<!-- Generator: Adobe Illustrator 24.1.3, SVG Export Plug-In . SVG Version: 6.00 Build 0)  -->
<svg version="1.1" id="Wortbildmarke" xmlns="http://www.w3.org/2000/svg" xmlns:xlink="http://www.w3.org/1999/xlink" x="0px"
	 y="0px" viewBox="0 0 182.1 38" style="enable-background:new 0 0 182.1 38;" xml:space="preserve">
<style type="text/css">
	.st0{clip-path:url(#SVGID_2_);}
	.st1{fill:#212934;}
	.st2{fill:#E01E1B;}
</style>
<g>
	<defs>
		<rect id="SVGID_1_" x="-0.5" y="1.7" width="184" height="38"/>
	</defs>
	<clipPath id="SVGID_2_">
		<use xlink:href="#SVGID_1_"  style="overflow:visible;"/>
	</clipPath>
	<g class="st0">
		<g>
			<path class="st1" d="M48.2,30.1c-1.5,0.8-3.3,1.2-5.5,1.2c-2.9,0-5.1-0.9-6.9-2.8c-1.7-1.8-2.6-4.3-2.6-7.2c0-3.2,1-5.8,2.9-7.8
				s4.4-3,7.4-3c1.9,0,3.5,0.3,4.7,0.8v2.5c-1.4-0.8-3-1.2-4.8-1.2c-2.3,0-4.2,0.8-5.6,2.3s-2.1,3.6-2.1,6.2c0,2.4,0.7,4.4,2,5.8
				c1.3,1.5,3.1,2.2,5.3,2.2c2,0,3.8-0.4,5.2-1.3V30.1z"/>
			<path class="st1" d="M55.4,30.9H53V10.8h2.4V30.9z"/>
			<path class="st1" d="M61.4,30.9V10.8h5.7c1.7,0,3.1,0.4,4.1,1.3c1,0.8,1.5,2,1.5,3.3c0,1.1-0.3,2.1-0.9,3
				c-0.6,0.8-1.5,1.4-2.5,1.8v0.1c1.4,0.2,2.4,0.7,3.2,1.5c0.8,0.9,1.2,2,1.2,3.4c0,1.7-0.6,3.1-1.8,4.2c-1.2,1.1-2.8,1.6-4.7,1.6
				H61.4z M63.7,13v6.5h2.4c1.3,0,2.3-0.3,3-0.9s1.1-1.5,1.1-2.6c0-2-1.3-2.9-3.8-2.9H63.7z M63.7,21.6v7.2h3.2c1.4,0,2.5-0.3,3.2-1
				c0.8-0.7,1.1-1.5,1.1-2.7c0-2.4-1.6-3.6-4.8-3.6H63.7z"/>
		</g>
		<g>
			<path class="st1" d="M97.4,31.1h-2.3v-2.4h-0.1c-1.1,1.8-2.7,2.8-4.9,2.8c-1.8,0-3.2-0.6-4.3-1.9c-1.1-1.3-1.6-3-1.6-5.2
				c0-2.4,0.6-4.3,1.8-5.7c1.2-1.4,2.8-2.1,4.8-2.1c2,0,3.4,0.8,4.3,2.3h0.1V9.9h2.3V31.1z M95.1,24.6v-2.1c0-1.2-0.4-2.1-1.1-2.9
				c-0.8-0.8-1.7-1.2-2.9-1.2c-1.4,0-2.5,0.5-3.3,1.5c-0.8,1-1.2,2.4-1.2,4.3c0,1.7,0.4,3,1.2,3.9c0.8,1,1.8,1.4,3.1,1.4
				c1.3,0,2.3-0.5,3.1-1.4C94.7,27.2,95.1,26,95.1,24.6z"/>
			<path class="st1" d="M114.3,24.5h-10.1c0,1.6,0.5,2.8,1.3,3.7c0.8,0.9,2,1.3,3.4,1.3c1.6,0,3.1-0.5,4.5-1.6v2.2
				c-1.3,0.9-2.9,1.4-5,1.4c-2,0-3.6-0.7-4.8-2c-1.2-1.3-1.7-3.1-1.7-5.5c0-2.2,0.6-4,1.9-5.5c1.3-1.4,2.8-2.1,4.7-2.1
				s3.3,0.6,4.4,1.8s1.5,2.9,1.5,5.1V24.5z M112,22.6c0-1.3-0.3-2.4-1-3.1c-0.6-0.7-1.5-1.1-2.6-1.1c-1.1,0-2,0.4-2.8,1.2
				c-0.8,0.8-1.2,1.8-1.4,3H112z"/>
			<path class="st1" d="M130,24.5h-10.1c0,1.6,0.5,2.8,1.3,3.7c0.8,0.9,2,1.3,3.4,1.3c1.6,0,3.1-0.5,4.5-1.6v2.2
				c-1.3,0.9-2.9,1.4-5,1.4c-2,0-3.6-0.7-4.8-2c-1.2-1.3-1.7-3.1-1.7-5.5c0-2.2,0.6-4,1.9-5.5c1.3-1.4,2.8-2.1,4.7-2.1
				s3.3,0.6,4.4,1.8s1.5,2.9,1.5,5.1V24.5z M127.7,22.6c0-1.3-0.3-2.4-1-3.1c-0.6-0.7-1.5-1.1-2.6-1.1c-1.1,0-2,0.4-2.8,1.2
				c-0.8,0.8-1.2,1.8-1.4,3H127.7z"/>
			<path class="st1" d="M136.6,29L136.6,29l-0.1,8.7h-2.3V16.8h2.3v2.5h0.1c1.1-1.9,2.8-2.9,5-2.9c1.8,0,3.3,0.6,4.3,1.9
				c1,1.3,1.6,3,1.6,5.2c0,2.4-0.6,4.3-1.8,5.8c-1.2,1.4-2.8,2.2-4.8,2.2C139,31.4,137.6,30.6,136.6,29z M136.5,23.2v2
				c0,1.2,0.4,2.2,1.2,3c0.8,0.8,1.7,1.2,2.9,1.2c1.4,0,2.5-0.5,3.3-1.6c0.8-1.1,1.2-2.5,1.2-4.4c0-1.6-0.4-2.8-1.1-3.8
				c-0.7-0.9-1.7-1.4-3-1.4c-1.3,0-2.4,0.5-3.2,1.4C136.9,20.7,136.5,21.8,136.5,23.2z"/>
			<path class="st1" d="M162.7,31.1h-10.6V11h10.2v2.1h-7.8v6.7h7.3v2.1h-7.3v7h8.3V31.1z"/>
			<path class="st1" d="M181.7,31.1h-2.8l-3.4-5.6c-0.3-0.5-0.6-1-0.9-1.3c-0.3-0.4-0.6-0.7-0.9-0.9c-0.3-0.2-0.6-0.4-1-0.5
				c-0.3-0.1-0.7-0.2-1.2-0.2h-1.9v8.5h-2.4V11h6c0.9,0,1.7,0.1,2.4,0.3c0.7,0.2,1.4,0.6,1.9,1c0.5,0.4,1,1,1.3,1.7
				c0.3,0.7,0.5,1.4,0.5,2.3c0,0.7-0.1,1.3-0.3,1.9c-0.2,0.6-0.5,1.1-0.9,1.6c-0.4,0.5-0.9,0.8-1.4,1.2c-0.5,0.3-1.2,0.6-1.8,0.7
				v0.1c0.3,0.1,0.6,0.3,0.9,0.5c0.2,0.2,0.5,0.4,0.7,0.7c0.2,0.3,0.4,0.6,0.7,0.9c0.2,0.3,0.5,0.7,0.7,1.2L181.7,31.1z M169.7,13.2
				v7.3h3.2c0.6,0,1.1-0.1,1.6-0.3c0.5-0.2,0.9-0.4,1.3-0.8c0.4-0.3,0.6-0.7,0.9-1.2c0.2-0.5,0.3-1,0.3-1.6c0-1.1-0.3-1.9-1-2.5
				c-0.7-0.6-1.7-0.9-3-0.9H169.7z"/>
		</g>
		<g>
			<g>
				<g>
					<path class="st2" d="M4.1,20.2c-2,0-3.6-1.6-3.6-3.5c0-2,1.6-3.5,3.6-3.5c2,0,3.6,1.6,3.6,3.5C7.6,18.6,6,20.2,4.1,20.2z
						 M4.1,14.6c-1.1,0-2,0.9-2,2c0,1.1,0.9,2,2,2c1.1,0,2-0.9,2-2C6.1,15.5,5.2,14.6,4.1,14.6z"/>
				</g>
			</g>
			<g>
				<g>
					<path class="st2" d="M16.9,27.6c-1.8,0-3.2-1.4-3.2-3.2c0-1.8,1.4-3.2,3.2-3.2s3.2,1.4,3.2,3.2C20.1,26.2,18.7,27.6,16.9,27.6z
						 M16.9,22.6c-1,0-1.8,0.8-1.8,1.8c0,1,0.8,1.8,1.8,1.8s1.8-0.8,1.8-1.8C18.7,23.4,17.9,22.6,16.9,22.6z"/>
				</g>
			</g>
			<g>
				<g>
					<path class="st2" d="M16.7,16.1c-1.6,0-3-1.3-3-3s1.3-3,3-3s3,1.3,3,3S18.3,16.1,16.7,16.1z M16.7,11.7c-0.8,0-1.4,0.6-1.4,1.4
						s0.6,1.4,1.4,1.4s1.4-0.6,1.4-1.4S17.4,11.7,16.7,11.7z"/>
				</g>
			</g>
			<g>
				<g>
					<circle class="st2" cx="10.1" cy="11.4" r="2"/>
				</g>
			</g>
			<g>
				<g>
					<circle class="st2" cx="21.3" cy="19.1" r="1.7"/>
				</g>
			</g>
			<g>
				<g>
					<circle class="st2" cx="7.6" cy="21.9" r="1.3"/>
				</g>
			</g>
			<g>
				<g>
					<circle class="st2" cx="11.3" cy="15.3" r="0.8"/>
				</g>
			</g>
			<g>
				<g>
					<circle class="st2" cx="9.6" cy="19.1" r="0.5"/>
				</g>
			</g>
			<g>
				<g>
					<circle class="st2" cx="13.1" cy="19.3" r="1.4"/>
				</g>
			</g>
			<g>
				<g>
					<circle class="st2" cx="16.4" cy="30.9" r="1"/>
				</g>
			</g>
			<g>
				<g>
					<circle class="st2" cx="10.5" cy="23.7" r="0.9"/>
				</g>
			</g>
			<g>
				<g>
					<circle class="st2" cx="6.6" cy="11.7" r="0.6"/>
				</g>
			</g>
			<g>
				<g>
					<circle class="st2" cx="17.2" cy="18.6" r="0.7"/>
				</g>
			</g>
			<g>
				<g>
					<circle class="st2" cx="20.9" cy="15.2" r="0.7"/>
				</g>
			</g>
			<g>
				<g>
					<circle class="st2" cx="21.6" cy="23" r="0.7"/>
				</g>
			</g>
			<g>
				<g>
					<circle class="st2" cx="13.7" cy="28.7" r="0.7"/>
				</g>
			</g>
			<g>
				<g>
					<circle class="st2" cx="12.1" cy="26.4" r="0.7"/>
				</g>
			</g>
		</g>
	</g>
</g>
</svg>
