<svg xmlns="http://www.w3.org/2000/svg" viewBox="0 0 75 75"><defs><style>.cls-1{isolation:isolate;}.cls-2{fill:#e95653;}.cls-3{fill:none;}.cls-4{opacity:0.15;mix-blend-mode:multiply;}.cls-5{fill:#f7f7f7;}.cls-6{fill:#fce8e8;}.cls-7{fill:#b0565f;}.cls-8{fill:#fff;}</style></defs><title>dpER_sicherheit</title><g class="cls-1"><g id="Layer_2" data-name="Layer 2"><g id="Layer_1-2" data-name="Layer 1"><circle class="cls-2" cx="37.5" cy="37.5" r="37.5"/><path class="cls-3" d="M32.808,68.423c-1.493-1.184-2.982-2.4-4.475-3.588-1.509-1.2-3.063-2.309-4.554-3.526S20.8,58.9,19.3,57.721c-.329-.261-.772-.36-.864-.867a27.243,27.243,0,0,1,0-4.579V30.518c0-.139-.1-.764,0-.872.118-.13,1.157,0,1.309,0a6.933,6.933,0,0,0,1.757,0c.446-.132.153.218.34-.286a6.461,6.461,0,0,0-.018-1.611,20.685,20.685,0,0,1,.321-3.15,17.945,17.945,0,0,1,1.8-5.248,15.7,15.7,0,0,1,7.53-7.005,15.455,15.455,0,0,1,11.209-.5c2.564.908,4.6,2.622,6.7,4.278l6.793,5.351,13.5,10.64,5.285,4.165A37.495,37.495,0,1,0,37.5,75c1.168,0,2.321-.061,3.461-.165-1.2-.964-2.405-1.938-3.618-2.886C35.831,70.769,34.313,69.616,32.808,68.423Z"/><path class="cls-4" d="M75,37.5c0-.41-.018-.816-.031-1.222l-5.285-4.165-13.5-10.64-6.793-5.351c-2.1-1.656-4.135-3.37-6.7-4.278a15.455,15.455,0,0,0-11.209.5,15.7,15.7,0,0,0-7.53,7.005,17.945,17.945,0,0,0-1.8,5.248,20.685,20.685,0,0,0-.321,3.15,6.461,6.461,0,0,1,.018,1.611c-.187.5.106.154-.34.286a6.933,6.933,0,0,1-1.757,0c-.152,0-1.191-.129-1.309,0-.1.108,0,.733,0,.872V52.275a27.243,27.243,0,0,0,0,4.579c.092.507.535.606.864.867,1.493,1.183,3,2.383,4.476,3.588s3.045,2.33,4.554,3.526c1.493,1.184,2.982,2.4,4.475,3.588s3.023,2.346,4.535,3.526c1.213.948,2.415,1.922,3.618,2.886A37.5,37.5,0,0,0,75,37.5Z"/><path class="cls-5" d="M24.533,30.33c0-.161-.021-.319-.021-.481,0-8.78,6.076-15.9,13.57-15.9,7.38,0,13.371,6.905,13.553,15.5.883.445,1.742.94,2.581,1.472.017-.357.046-.711.046-1.072,0-10.469-7.244-18.955-16.18-18.955S21.9,19.38,21.9,29.849c0,.7.038,1.4.1,2.082C22.83,31.359,23.672,30.821,24.533,30.33Z"/><path class="cls-6" d="M38.582,10.918c-.168,0-.331-.024-.5-.024-8.935,0-16.179,6.866-16.179,17.335,0,.7.038,1.4.1,2.082.825-.572.088-.054.949-.545,0-.161-.021-.319-.021-.481,0-8.78,4.734-15.8,13.991-17.924a9.9,9.9,0,0,1,1.648-.226C38.573,11.062,38.58,10.991,38.582,10.918Z"/><path class="cls-7" d="M46.733,51.477h-16.1l4.661-8.262A4.765,4.765,0,0,1,33.349,39.3a5.105,5.105,0,1,1,10.21.095,5.131,5.131,0,0,1-1.74,3.792Zm-14.32-1.04h12.5l-4.456-7.52.384-.279a4.085,4.085,0,0,0,1.683-3.257,4.067,4.067,0,0,0-4.026-4.1h-.039a4.071,4.071,0,0,0-4.065,4.028,3.815,3.815,0,0,0,1.87,3.316l.414.265Z"/><path class="cls-8" d="M18.523,29.526V56.982H57.746V29.526ZM31.4,50.118l4.2-7.442a4.085,4.085,0,0,1-1.987-3.542,4.321,4.321,0,1,1,6.852,3.542l4.409,7.442Z"/><path class="cls-6" d="M35.6,42.676a4.085,4.085,0,0,1-1.987-3.542,4.321,4.321,0,1,1,7.868,2.5L57.746,29.526H18.523V56.982H20.87l11.477-8.545Z"/><path class="cls-5" d="M24.533,30.33c0-.161-.021-.319-.021-.481,0-8.78,6.076-15.9,13.57-15.9,7.38,0,13.371,6.905,13.553,15.5.883.445,1.742.94,2.581,1.472.017-.357.046-.711.046-1.072,0-10.469-7.244-18.955-16.18-18.955S21.9,19.38,21.9,29.849c0,.7.038,1.4.1,2.082C22.83,31.359,23.672,30.821,24.533,30.33Z"/><path class="cls-6" d="M38.582,10.918c-.168,0-.331-.024-.5-.024-8.935,0-16.179,6.866-16.179,17.335,0,.7.038,1.4.1,2.082.825-.572.088-.054.949-.545,0-.161-.021-.319-.021-.481,0-8.78,4.734-15.8,13.991-17.924a9.9,9.9,0,0,1,1.648-.226C38.573,11.062,38.58,10.991,38.582,10.918Z"/><path class="cls-7" d="M46.733,51.477h-16.1l4.661-8.262A4.765,4.765,0,0,1,33.349,39.3a5.105,5.105,0,1,1,10.21.095,5.131,5.131,0,0,1-1.74,3.792Zm-14.32-1.04h12.5l-4.456-7.52.384-.279a4.085,4.085,0,0,0,1.683-3.257,4.067,4.067,0,0,0-4.026-4.1h-.039a4.071,4.071,0,0,0-4.065,4.028,3.815,3.815,0,0,0,1.87,3.316l.414.265Z"/><path class="cls-8" d="M18.523,29.526V56.982H57.746V29.526ZM31.4,50.118l4.2-7.442a4.085,4.085,0,0,1-1.987-3.542,4.321,4.321,0,1,1,6.852,3.542l4.409,7.442Z"/><path class="cls-6" d="M35.6,42.676a4.085,4.085,0,0,1-1.987-3.542,4.321,4.321,0,1,1,7.868,2.5L57.746,29.526H18.523V56.982H20.87l11.477-8.545Z"/></g></g></g></svg>