<svg xmlns="http://www.w3.org/2000/svg" viewBox="0 0 75 75"><defs><style>.cls-1{isolation:isolate;}.cls-2{fill:#e95653;}.cls-3{fill:none;}.cls-4{opacity:0.15;mix-blend-mode:multiply;}.cls-5{fill:#fff;}.cls-6{fill:#f9d2d1;}</style></defs><title>dpEr-Texterkennung</title><g class="cls-1"><g id="Layer_2" data-name="Layer 2"><g id="Layer_1-2" data-name="Layer 1"><circle class="cls-2" cx="37.5" cy="37.5" r="37.5"/><path class="cls-3" d="M34.563,62.882c-1.053-1-2.136-1.96-3.188-2.96l-1.594-1.514a5,5,0,0,1-.8-.757c-.1-.179-.345-1-.084-1.234.15-.134.912,0,1.139,0a6.893,6.893,0,0,0,1.984-.264c-.191-.172-.393-.334-.58-.512-1.532-1.455-3.032-2.95-4.564-4.405s-3.1-2.878-4.637-4.337-3.028-2.979-4.6-4.406c-.782-.71-1.5-1.5-2.282-2.2-.611-.554-2.018-1.425-2.246-2.267a5.582,5.582,0,0,1,0-1.976c.14-.623-.152-.269.369-.463a4.436,4.436,0,0,1,2.417.172c.218.124.35.451.579.551a3.567,3.567,0,0,0,1.152.1H30.778a9.528,9.528,0,0,0-1.594-1.51C27,32.822,24.85,30.7,22.668,28.631c-.547-.52-1.123-1-1.67-1.515a1.845,1.845,0,0,1-.36-.386,5.042,5.042,0,0,1,.075-1.482L21,19.554c.026-.521-.131-1.953.262-2.2.418-.262,1.906,0,2.382,0H50.869a17.2,17.2,0,0,1,2.657,0c.812.133,1.112.772,1.6,1.239.544.516,1.119,1,1.663,1.514,2.186,2.076,4.338,4.188,6.523,6.264s4.4,4.119,6.59,6.2c1.706,1.622,3.4,3.261,5.094,4.892A37.509,37.509,0,1,0,46.22,73.97c-1.783-1.679-3.578-3.343-5.355-5.03C38.754,66.934,36.674,64.888,34.563,62.882Z"/><path class="cls-4" d="M75,37.5v-.041c-1.7-1.631-3.388-3.27-5.094-4.892-2.186-2.076-4.4-4.118-6.59-6.195s-4.337-4.188-6.523-6.264c-.544-.516-1.119-1-1.663-1.514-.491-.467-.791-1.106-1.6-1.239a17.2,17.2,0,0,0-2.657,0H23.643c-.476,0-1.964-.262-2.382,0-.393.246-.236,1.678-.262,2.2l-.286,5.694a5.042,5.042,0,0,0-.075,1.482,1.845,1.845,0,0,0,.36.386c.547.52,1.123,1,1.67,1.515C24.85,30.7,27,32.822,29.184,34.9a9.528,9.528,0,0,1,1.594,1.51H17.631a3.567,3.567,0,0,1-1.152-.1c-.229-.1-.361-.427-.579-.551a4.436,4.436,0,0,0-2.417-.172c-.521.194-.229-.16-.369.463a5.582,5.582,0,0,0,0,1.976c.228.842,1.635,1.713,2.246,2.267.781.707,1.5,1.492,2.282,2.2,1.572,1.427,3.063,2.945,4.6,4.406s3.1,2.878,4.637,4.337,3.032,2.95,4.564,4.405c.187.178.389.34.58.512a6.893,6.893,0,0,1-1.984.264c-.227,0-.989-.134-1.139,0-.261.235-.014,1.055.084,1.234a5,5,0,0,0,.8.757l1.594,1.514c1.052,1,2.135,1.961,3.188,2.96,2.111,2.006,4.191,4.052,6.3,6.058,1.777,1.687,3.572,3.351,5.355,5.03A37.508,37.508,0,0,0,75,37.5Z"/><path class="cls-5" d="M53.907,17.421l.444,9.417H53.226a11.388,11.388,0,0,0-.889-3.553,5.938,5.938,0,0,0-2.443-2.532,8.519,8.519,0,0,0-4.013-.815H40.225V50.62q0,3.7.8,4.62a4.45,4.45,0,0,0,3.465,1.244h1.392v1.095H28.852V56.484h1.422a4.081,4.081,0,0,0,3.613-1.54q.651-.948.651-4.324V19.938H29.711a13.432,13.432,0,0,0-4,.415,5.48,5.48,0,0,0-2.636,2.162,8.753,8.753,0,0,0-1.3,4.323H20.649l.474-9.417Z"/><polygon class="cls-6" points="59.232 35.651 59.232 36.471 15.768 36.471 15.768 35.651 13.127 35.651 13.127 38.292 15.768 38.292 15.768 37.471 59.232 37.471 59.232 38.292 61.873 38.292 61.873 35.651 59.232 35.651"/></g></g></g></svg>