<?xml version="1.0" encoding="utf-8"?>
<!-- Generator: Adobe Illustrator 24.1.3, SVG Export Plug-In . SVG Version: 6.00 Build 0)  -->
<svg version="1.1" id="Layer_1" xmlns="http://www.w3.org/2000/svg" xmlns:xlink="http://www.w3.org/1999/xlink" x="0px" y="0px"
	 viewBox="0 0 600 354" style="enable-background:new 0 0 600 354;" xml:space="preserve">
<style type="text/css">
	.st0{fill:none;}
	.st1{opacity:0.85;}
	.st2{fill:#7FC3DE;}
	.st3{fill:#F7E196;}
	.st4{fill:#CACFD2;}
	.st5{fill:#40A5CE;}
	.st6{fill:#E95653;}
	.st7{fill:#BBC0C3;}
	.st8{fill:#B7B7B7;}
	.st9{fill:#CED6DD;}
	.st10{opacity:0.23;fill:#E95653;enable-background:new    ;}
	.st11{opacity:0.5;fill:url(#SVGID_1_);enable-background:new    ;}
	.st12{opacity:0.5;fill:url(#SVGID_2_);enable-background:new    ;}
	.st13{fill:#FFFFFF;}
	.st14{opacity:0.5;fill:url(#SVGID_3_);enable-background:new    ;}
	.st15{fill:#808387;}
	.st16{fill:#96A0A5;}
	.st17{opacity:0.5;fill:url(#SVGID_4_);enable-background:new    ;}
	.st18{opacity:0.5;fill:url(#SVGID_5_);enable-background:new    ;}
	.st19{opacity:0.5;fill:url(#SVGID_6_);enable-background:new    ;}
	.st20{opacity:0.5;fill:url(#SVGID_7_);enable-background:new    ;}
	.st21{opacity:0.5;fill:url(#SVGID_8_);enable-background:new    ;}
	.st22{fill:#F2F4F6;}
	.st23{opacity:0.5;fill:url(#SVGID_9_);enable-background:new    ;}
	.st24{opacity:0.5;fill:url(#SVGID_10_);enable-background:new    ;}
	.st25{fill:#788287;}
	.st26{fill:#2E383B;}
	.st27{opacity:0.5;fill:url(#SVGID_11_);enable-background:new    ;}
	.st28{opacity:0.3;fill:url(#SVGID_12_);enable-background:new    ;}
	.st29{opacity:0.3;fill:#E11E19;enable-background:new    ;}
	.st30{fill:#E11E19;}
	.st31{opacity:0.3;fill:#1ED6FE;enable-background:new    ;}
	.st32{opacity:0.5;fill:url(#SVGID_13_);enable-background:new    ;}
	.st33{opacity:0.5;fill:url(#SVGID_14_);enable-background:new    ;}
	.st34{opacity:0.9;fill:url(#SVGID_15_);enable-background:new    ;}
	.st35{fill:url(#SVGID_16_);}
	.st36{enable-background:new    ;}
	.st37{fill:#F08E8C;}
	.st38{clip-path:url(#SVGID_18_);enable-background:new    ;}
	.st39{fill:#949494;}
</style>
<g>
	<g id="Layer_1-2">
		<rect x="202.2" y="-0.5" class="st0" width="391.4" height="360.5"/>
		<g class="st1">
			<polygon class="st2" points="418.2,135.1 403.6,127.1 403.5,122.2 418.1,129.8 			"/>
			<polygon class="st3" points="447.5,92.6 432.9,88 432.9,82.5 447.5,86.7 			"/>
			<polygon class="st3" points="451.9,29.2 437.4,28.2 437.4,23.2 451.9,23.9 			"/>
			<polygon class="st4" points="476.4,18.1 404,16.4 403.9,14 476.4,14.8 			"/>
			<polygon class="st4" points="476.5,24 404,20.8 404,18.4 476.4,20.7 			"/>
			<polygon class="st4" points="437.2,26.9 404,24.8 404,22.7 437.2,24.4 			"/>
			<polygon class="st4" points="451.3,27.8 438,27 438,24.5 451.3,25.2 			"/>
			<polygon class="st4" points="477.5,136.7 404.5,104.7 404.5,102.2 477.4,133.4 			"/>
			<polygon class="st4" points="477.5,142.6 404.5,109.1 404.5,106.7 477.5,139.3 			"/>
			<polygon class="st4" points="452.8,136.6 404.6,113.5 404.5,111.1 452.8,133.6 			"/>
			<polygon class="st4" points="476.6,39.8 414.4,33.6 414.4,31.1 476.6,36.5 			"/>
			<polygon class="st4" points="476.7,45.7 404.1,37 404.1,34.6 476.6,42.4 			"/>
			<polygon class="st4" points="476.7,51.7 404.1,41.4 404.1,39 476.7,48.4 			"/>
			<polygon class="st4" points="476.8,67.5 404.2,53.2 404.2,50.7 476.8,64.2 			"/>
			<polygon class="st4" points="476.8,61.5 404.2,48.8 404.1,46.3 476.8,58.3 			"/>
			<polygon class="st4" points="476.9,73.4 404.2,57.6 404.2,55.2 476.9,70.1 			"/>
			<polygon class="st4" points="477,85.3 404.3,66.4 404.2,64 477,82 			"/>
			<polygon class="st4" points="477,79.3 404.2,62 404.2,59.6 476.9,76 			"/>
			<polygon class="st4" points="470.8,89.5 404.3,70.8 404.3,68.4 470.8,86.2 			"/>
			<polygon class="st4" points="477.2,107 404.4,82.6 404.3,80.2 477.2,103.7 			"/>
			<polygon class="st4" points="477.1,100.7 448.5,91.7 448.5,88.9 477.1,97.6 			"/>
			<polygon class="st4" points="446.9,91.2 434.3,87.2 434.3,84.7 446.9,88.5 			"/>
			<polygon class="st4" points="431.5,86.4 418.9,82.4 418.9,80.1 431.5,83.9 			"/>
			<polygon class="st4" points="477.2,112.9 404.4,87 404.4,84.6 477.2,109.6 			"/>
			<polygon class="st4" points="477.4,124.8 404.4,95.9 404.4,93.4 477.3,121.5 			"/>
			<polygon class="st4" points="477.3,118.9 404.4,91.4 404.4,89 477.3,115.6 			"/>
			<polygon class="st4" points="477.4,130.7 404.5,100.3 404.5,97.8 477.4,127.4 			"/>
			<polygon class="st4" points="416.8,133.1 404.6,126.5 404.6,124.1 416.8,130.5 			"/>
			<polygon class="st4" points="424.9,142.3 404.7,130.9 404.6,128.5 424.9,139.6 			"/>
			<polygon class="st3" points="507.5,28.5 492.3,27.7 492.2,21.5 507.4,22 			"/>
			<polygon class="st3" points="560.5,164.1 545.2,157.8 545.1,150.5 560.4,156.5 			"/>
			<polygon class="st5" points="541.1,107.9 525.8,103.7 525.8,96.8 541,100.7 			"/>
			<polygon class="st4" points="560.4,22.3 526.2,21.3 526.2,17.4 560.3,18 			"/>
			<polygon class="st4" points="560.4,30 526.3,28.3 526.2,24.4 560.4,25.7 			"/>
			<polygon class="st4" points="560.5,37.7 526.3,35.3 526.3,31.4 560.5,33.4 			"/>
			<polygon class="st4" points="560.6,45.4 526.4,42.2 526.4,38.4 560.6,41.1 			"/>
			<polygon class="st4" points="560.7,53.1 526.5,49.2 526.4,45.3 560.6,48.8 			"/>
			<polygon class="st4" points="560.8,60.7 526.5,56.2 526.5,52.3 560.7,56.5 			"/>
			<polygon class="st4" points="522.1,21.2 493.1,20.4 493,16.9 522,17.4 			"/>
			<polygon class="st4" points="506.8,26.7 493.1,26.1 493.1,23.1 506.7,23.7 			"/>
			<polygon class="st4" points="521.8,27.5 508.2,26.8 508.2,23.7 521.8,24.2 			"/>
			<polygon class="st4" points="522.2,35 488,32.5 488,29.1 522.2,31.1 			"/>
			<polygon class="st4" points="522.3,41.9 488.1,38.7 488,35.3 522.2,38 			"/>
			<polygon class="st4" points="522.3,48.7 488.1,44.9 488.1,41.5 522.3,44.9 			"/>
			<polygon class="st4" points="522.4,55.6 488.2,51.1 488.1,47.6 522.4,51.8 			"/>
			<polygon class="st4" points="560.9,73.6 528.7,68.1 528.7,64.2 560.9,69.3 			"/>
			<polygon class="st4" points="561,81.2 526.7,74.8 526.7,70.9 560.9,77 			"/>
			<polygon class="st4" points="561.1,88.9 526.8,81.7 526.8,77.9 561,84.7 			"/>
			<polygon class="st4" points="561.1,96.6 526.9,88.7 526.8,84.8 561.1,92.3 			"/>
			<polygon class="st4" points="561.2,104.3 526.9,95.7 526.9,91.8 561.2,100 			"/>
			<polygon class="st4" points="539.7,105.6 527.1,102.2 527.1,98.6 539.7,101.9 			"/>
			<polygon class="st4" points="561.2,111.3 542,106.1 541.9,102.5 561.1,107.5 			"/>
			<polygon class="st4" points="522.5,67.1 488.3,61.3 488.2,57.9 522.5,63.3 			"/>
			<polygon class="st4" points="522.6,74 488.3,67.5 488.3,64.1 522.5,70.2 			"/>
			<polygon class="st4" points="522.7,80.9 488.4,73.7 488.4,70.3 522.6,77 			"/>
			<polygon class="st4" points="522.7,87.8 488.4,79.8 488.4,76.4 522.7,83.9 			"/>
			<polygon class="st4" points="522.8,94.6 488.5,86 488.5,82.6 522.7,90.8 			"/>
			<polygon class="st4" points="518.7,100.4 488.6,92.2 488.5,88.8 518.7,96.6 			"/>
			<polygon class="st4" points="561.5,124.8 527.1,114.3 527.1,110.4 561.4,120.5 			"/>
			<polygon class="st4" points="561.5,132.5 527.2,121.2 527.2,117.4 561.5,128.2 			"/>
			<polygon class="st4" points="561.6,140.2 527.3,128.2 527.2,124.3 561.6,135.9 			"/>
			<polygon class="st4" points="561.7,147.9 527.3,135.2 527.3,131.3 561.6,143.6 			"/>
			<polygon class="st4" points="561.8,155.5 527.4,142.2 527.4,138.3 561.7,151.3 			"/>
			<polygon class="st4" points="559.8,162.4 527.5,149.1 527.4,145.3 559.7,158.1 			"/>
			<polygon class="st4" points="523,113 488.6,102.5 488.6,99 522.9,109.2 			"/>
			<polygon class="st4" points="523,119.9 488.7,108.6 488.7,105.2 523,116.1 			"/>
			<polygon class="st4" points="523.1,126.8 488.8,114.8 488.7,111.4 523.1,122.9 			"/>
			<polygon class="st4" points="523.2,133.7 488.8,121 488.8,117.6 523.1,129.8 			"/>
			<polygon class="st4" points="523.2,140.5 488.9,127.2 488.8,123.7 523.2,136.7 			"/>
			<polygon class="st4" points="523.3,147.4 488.9,133.3 488.9,129.9 523.3,143.6 			"/>
			<polygon class="st4" points="561.9,170.9 527.5,156.1 527.5,152.2 561.9,166.6 			"/>
			<polygon class="st4" points="562,178.6 527.6,163.1 527.6,159.2 562,174.3 			"/>
			<polygon class="st4" points="562.1,186.3 527.7,170 527.6,166.2 562.1,182 			"/>
			<polygon class="st4" points="562.2,194 527.8,177 527.7,173.1 562.1,189.7 			"/>
			<polygon class="st4" points="562.3,201.7 527.8,184 527.8,180.1 562.2,197.4 			"/>
			<polygon class="st4" points="562.4,209.4 527.9,191 527.9,187.1 562.3,205.1 			"/>
			<polygon class="st4" points="559.3,215.3 528,197.9 527.9,194.1 559.3,211.1 			"/>
			<polygon class="st4" points="523.4,154.3 489,139.5 489,136.1 523.3,150.5 			"/>
			<polygon class="st4" points="523.4,161.2 489,145.7 489,142.2 523.4,157.4 			"/>
			<polygon class="st4" points="523.5,168.1 489.1,151.8 489.1,148.4 523.5,164.3 			"/>
			<polygon class="st4" points="523.6,175 489.2,158 489.1,154.6 523.5,171.1 			"/>
			<polygon class="st4" points="523.7,181.8 489.2,164.2 489.2,160.7 523.6,178 			"/>
			<polygon class="st4" points="523.7,188.7 489.3,170.3 489.2,166.9 523.7,184.9 			"/>
			<polygon class="st4" points="523.8,195.6 489.3,176.5 489.3,173.1 523.8,191.8 			"/>
			<polygon class="st3" points="349.8,27.3 330.8,25.4 330.8,22.1 349.8,23.6 			"/>
			<polygon class="st3" points="353.7,78.3 331.1,68.9 331.1,65.6 353.7,74.4 			"/>
			<polygon class="st4" points="346.4,22 325.7,20.6 325.7,19 346.4,20.2 			"/>
			<polygon class="st6" points="379.5,13.8 325.7,13.2 325.7,11.6 379.5,11.6 			"/>
			<polygon class="st4" points="349.2,26.2 331.7,24.5 331.7,23.2 349.2,24.7 			"/>
			<polygon class="st7" points="393.1,30.7 390,30.4 390,28.1 393.1,28.4 			"/>
			<polygon class="st4" points="330.6,24.7 328.8,24.6 328.8,23 330.6,23.1 			"/>
			<path class="st8" d="M388.4,30.2l-0.3,0v-0.4l0.3,0V30.2z M387.5,30.2l-0.3,0v-0.4l0.3,0V30.2z M386.6,30.1l-0.3,0v-0.4l0.3,0
				V30.1z M385.7,30l-0.3,0v-0.4l0.3,0V30z M384.9,29.9l-0.3,0v-0.4l0.3,0V29.9z M384,29.8l-0.3,0v-0.4l0.3,0V29.8z M383.1,29.7
				l-0.3,0v-0.4l0.3,0V29.7z M382.2,29.7l-0.3,0v-0.4l0.3,0L382.2,29.7z M381.4,29.6l-0.3,0v-0.4l0.3,0L381.4,29.6z M380.5,29.5
				l-0.3,0v-0.4l0.3,0L380.5,29.5z M379.6,29.4l-0.3,0V29l0.3,0V29.4z M378.7,29.3l-0.3,0v-0.4l0.3,0V29.3z M377.9,29.2l-0.3,0v-0.4
				l0.3,0L377.9,29.2z M377,29.2l-0.3,0v-0.4l0.3,0V29.2z M376.1,29.1l-0.3,0v-0.4l0.3,0V29.1z M375.2,29l-0.3,0v-0.4l0.3,0
				L375.2,29z M374.4,28.9l-0.3,0v-0.4l0.3,0V28.9z M373.5,28.8l-0.3,0v-0.3l0.3,0V28.8z M372.6,28.7l-0.3,0v-0.3l0.3,0V28.7z
				 M371.7,28.7l-0.3,0v-0.3l0.3,0V28.7z M370.9,28.6l-0.3,0v-0.3l0.3,0V28.6z M370,28.5l-0.3,0v-0.3l0.3,0L370,28.5z"/>
			<polygon class="st4" points="365.9,32.9 331.7,28.7 331.7,27.1 365.9,30.9 			"/>
			<polygon class="st7" points="393.1,36.3 390,35.9 390,33.6 393.1,34 			"/>
			<polygon class="st4" points="330.6,28.6 328.8,28.4 328.8,26.8 330.6,27 			"/>
			<path class="st8" d="M388.4,35.7l-0.3,0v-0.4l0.3,0L388.4,35.7z M387.6,35.6l-0.3,0v-0.4l0.3,0V35.6z M386.7,35.5l-0.3,0v-0.4
				l0.3,0L386.7,35.5z M385.8,35.4l-0.3,0V35l0.3,0V35.4z M385,35.3l-0.3,0v-0.4l0.3,0V35.3z M384.1,35.2l-0.3,0v-0.4l0.3,0V35.2z
				 M383.3,35.1l-0.3,0v-0.4l0.3,0V35.1z M382.4,35l-0.3,0v-0.4l0.3,0L382.4,35z M381.6,34.9l-0.3,0v-0.4l0.3,0V34.9z M380.7,34.8
				l-0.3,0v-0.4l0.3,0V34.8z M379.9,34.7l-0.3,0v-0.4l0.3,0V34.7z M379,34.6l-0.3,0v-0.4l0.3,0V34.6z M378.2,34.5l-0.3,0v-0.4l0.3,0
				L378.2,34.5z M377.3,34.4l-0.3,0V34l0.3,0L377.3,34.4z M376.5,34.3l-0.3,0v-0.4l0.3,0V34.3z M375.6,34.2l-0.3,0v-0.4l0.3,0V34.2z
				 M374.8,34.1l-0.3,0v-0.4l0.3,0V34.1z M373.9,33.9l-0.3,0v-0.3l0.3,0V33.9z M373,33.8l-0.3,0v-0.3l0.3,0V33.8z M372.2,33.7
				l-0.3,0v-0.3l0.3,0V33.7z M371.3,33.6l-0.3,0v-0.3l0.3,0V33.6z M370.5,33.5l-0.3,0v-0.3l0.3,0L370.5,33.5z M369.6,33.4l-0.3,0
				v-0.3l0.3,0L369.6,33.4z M368.8,33.3l-0.3,0V33l0.3,0L368.8,33.3z M367.9,33.2l-0.3,0v-0.3l0.3,0V33.2z"/>
			<polygon class="st4" points="367,37.9 331.7,32.6 331.7,31 366.9,35.9 			"/>
			<polygon class="st7" points="393.1,41.9 390,41.4 390,39.1 393.1,39.5 			"/>
			<polygon class="st4" points="330.6,32.4 328.8,32.2 328.8,30.6 330.6,30.8 			"/>
			<path class="st8" d="M388.4,41.1l-0.3,0v-0.4l0.3,0V41.1z M387.5,41l-0.3,0v-0.4l0.3,0V41z M386.7,40.9l-0.3,0v-0.4l0.3,0
				L386.7,40.9z M385.8,40.7l-0.3,0v-0.4l0.3,0V40.7z M384.9,40.6l-0.3,0v-0.4l0.3,0V40.6z M384,40.5l-0.3,0v-0.4l0.3,0V40.5z
				 M383.1,40.3l-0.3,0v-0.4l0.3,0V40.3z M382.2,40.2l-0.3,0v-0.4l0.3,0V40.2z M381.4,40.1l-0.3,0v-0.4l0.3,0L381.4,40.1z
				 M380.5,39.9l-0.3,0v-0.4l0.3,0V39.9z M379.6,39.8l-0.3,0v-0.4l0.3,0L379.6,39.8z M378.7,39.7l-0.3,0v-0.4l0.3,0V39.7z
				 M377.8,39.5l-0.3,0v-0.4l0.3,0L377.8,39.5z M377,39.4l-0.3,0V39l0.3,0L377,39.4z M376.1,39.3l-0.3,0v-0.4l0.3,0V39.3z
				 M375.2,39.1l-0.3,0v-0.4l0.3,0V39.1z M374.3,39l-0.3,0v-0.4l0.3,0L374.3,39z M373.4,38.9l-0.3,0v-0.3l0.3,0L373.4,38.9z
				 M372.5,38.7l-0.3,0v-0.3l0.3,0L372.5,38.7z M371.7,38.6l-0.3,0v-0.3l0.3,0L371.7,38.6z M370.8,38.5l-0.3,0v-0.3l0.3,0V38.5z
				 M369.9,38.4l-0.3,0V38l0.3,0V38.4z M369,38.2l-0.3,0v-0.3l0.3,0L369,38.2z"/>
			<polygon class="st4" points="360.7,41.6 331.7,36.5 331.7,34.8 360.7,39.7 			"/>
			<polygon class="st7" points="393.2,47.4 390.1,46.9 390.1,44.6 393.2,45.1 			"/>
			<polygon class="st4" points="330.6,36.3 328.8,35.9 328.8,34.4 330.6,34.7 			"/>
			<path class="st8" d="M388.5,46.6l-0.3-0.1v-0.4l0.3,0.1L388.5,46.6z M387.6,46.4l-0.3-0.1V46l0.3,0.1V46.4z M386.8,46.3l-0.3-0.1
				v-0.4l0.3,0.1V46.3z M385.9,46.1l-0.3-0.1v-0.4l0.3,0.1V46.1z M385,46l-0.3-0.1v-0.4l0.3,0.1V46z M384.2,45.8l-0.3-0.1v-0.4
				l0.3,0.1V45.8z M383.3,45.7l-0.3-0.1v-0.4l0.3,0.1V45.7z M382.5,45.5l-0.3-0.1v-0.4l0.3,0.1V45.5z M381.6,45.4l-0.3-0.1V45
				l0.3,0.1V45.4z M380.8,45.2l-0.3-0.1v-0.4l0.3,0.1V45.2z M379.9,45.1l-0.3-0.1v-0.4l0.3,0.1V45.1z M379,44.9l-0.3-0.1v-0.4
				l0.3,0.1V44.9z M378.2,44.8l-0.3-0.1v-0.4l0.3,0.1V44.8z M377.3,44.6l-0.3-0.1v-0.4l0.3,0.1V44.6z M376.5,44.5l-0.3-0.1V44
				l0.3,0.1V44.5z M375.6,44.3l-0.3-0.1v-0.4l0.3,0.1V44.3z M374.8,44.1l-0.3-0.1v-0.4l0.3,0.1V44.1z M373.9,44l-0.3-0.1v-0.3
				l0.3,0.1L373.9,44z M373.1,43.8l-0.3-0.1v-0.3l0.3,0.1L373.1,43.8z M372.2,43.7l-0.3-0.1v-0.3l0.3,0.1V43.7z M371.3,43.5
				l-0.3-0.1v-0.3l0.3,0.1V43.5z M370.5,43.4l-0.3-0.1V43l0.3,0.1V43.4z M369.6,43.2l-0.3-0.1v-0.3l0.3,0.1V43.2z M368.8,43.1
				l-0.3-0.1v-0.3l0.3,0.1V43.1z M367.9,42.9l-0.3-0.1v-0.3l0.3,0.1V42.9z M367.1,42.8l-0.3-0.1v-0.3l0.3,0.1V42.8z M366.2,42.6
				l-0.3-0.1v-0.3l0.3,0.1L366.2,42.6z M365.3,42.5l-0.3-0.1v-0.3l0.3,0.1V42.5z M364.5,42.3l-0.3-0.1v-0.3l0.3,0.1L364.5,42.3z
				 M363.6,42.2l-0.3-0.1v-0.3l0.3,0.1L363.6,42.2z M362.8,42l-0.3-0.1v-0.3l0.3,0.1V42z"/>
			<polygon class="st4" points="343.4,44.8 325.7,40.9 325.7,39.4 343.4,43.1 			"/>
			<polygon class="st4" points="370.1,55.7 331.7,46.1 331.7,44.5 370.1,53.6 			"/>
			<polygon class="st7" points="393.3,61.4 390.1,60.6 390.1,58.3 393.2,59.1 			"/>
			<polygon class="st4" points="330.6,45.8 328.8,45.4 328.8,43.8 330.6,44.2 			"/>
			<path class="st8" d="M388.5,60.2l-0.3-0.1v-0.4l0.3,0.1V60.2z M387.7,60l-0.3-0.1v-0.4l0.3,0.1V60z M386.8,59.8l-0.3-0.1v-0.4
				l0.3,0.1V59.8z M386,59.6l-0.3-0.1v-0.4l0.3,0.1V59.6z M385.1,59.4l-0.3-0.1v-0.4l0.3,0.1V59.4z M384.2,59.1l-0.3-0.1v-0.4
				l0.3,0.1V59.1z M383.4,58.9l-0.3-0.1v-0.4l0.3,0.1L383.4,58.9z M382.5,58.7l-0.3-0.1v-0.4l0.3,0.1L382.5,58.7z M381.6,58.5
				l-0.3-0.1v-0.4l0.3,0.1V58.5z M380.8,58.3l-0.3-0.1v-0.4l0.3,0.1L380.8,58.3z M379.9,58.1l-0.3-0.1v-0.4l0.3,0.1L379.9,58.1z
				 M379.1,57.9l-0.3-0.1v-0.4l0.3,0.1L379.1,57.9z M378.2,57.7l-0.3-0.1v-0.4l0.3,0.1L378.2,57.7z M377.3,57.4l-0.3-0.1V57l0.3,0.1
				V57.4z M376.5,57.2l-0.3-0.1v-0.4l0.3,0.1V57.2z M375.6,57l-0.3-0.1v-0.4l0.3,0.1L375.6,57z M374.8,56.8l-0.3-0.1v-0.4l0.3,0.1
				L374.8,56.8z M373.9,56.6l-0.3-0.1v-0.4l0.3,0.1L373.9,56.6z M373,56.4l-0.3-0.1V56L373,56L373,56.4z M372.2,56.2l-0.3-0.1v-0.3
				l0.3,0.1V56.2z"/>
			<polygon class="st4" points="358.7,57.4 331.7,50 331.7,48.4 358.7,55.5 			"/>
			<polygon class="st7" points="393.3,67 390.2,66.1 390.2,63.8 393.3,64.6 			"/>
			<polygon class="st4" points="330.6,49.7 328.8,49.2 328.8,47.6 330.6,48.1 			"/>
			<path class="st8" d="M388.6,65.7l-0.3-0.1v-0.4l0.3,0.1V65.7z M387.7,65.4l-0.3-0.1V65l0.3,0.1L387.7,65.4z M386.8,65.2l-0.3-0.1
				v-0.4l0.3,0.1V65.2z M386,64.9l-0.3-0.1v-0.4l0.3,0.1L386,64.9z M385.1,64.7l-0.3-0.1v-0.4l0.3,0.1L385.1,64.7z M384.2,64.5
				l-0.3-0.1V64l0.3,0.1L384.2,64.5z M383.3,64.2l-0.3-0.1v-0.4l0.3,0.1V64.2z M382.5,64l-0.3-0.1v-0.4l0.3,0.1L382.5,64z
				 M381.6,63.7l-0.3-0.1v-0.4l0.3,0.1V63.7z M380.7,63.5l-0.3-0.1v-0.4l0.3,0.1V63.5z M379.9,63.3l-0.3-0.1v-0.4l0.3,0.1V63.3z
				 M379,63l-0.3-0.1v-0.4l0.3,0.1V63z M378.1,62.8l-0.3-0.1v-0.4l0.3,0.1V62.8z M377.3,62.6l-0.3-0.1v-0.4l0.3,0.1V62.6z
				 M376.4,62.3l-0.3-0.1v-0.4l0.3,0.1V62.3z M375.5,62.1l-0.3-0.1v-0.4l0.3,0.1L375.5,62.1z M374.7,61.8l-0.3-0.1v-0.4l0.3,0.1
				V61.8z M373.8,61.6l-0.3-0.1v-0.3l0.3,0.1V61.6z M372.9,61.4l-0.3-0.1v-0.3l0.3,0.1V61.4z M372.1,61.1l-0.3-0.1v-0.3l0.3,0.1
				V61.1z M371.2,60.9l-0.3-0.1v-0.3l0.3,0.1L371.2,60.9z M370.3,60.6l-0.3-0.1v-0.3l0.3,0.1L370.3,60.6z M369.5,60.4l-0.3-0.1V60
				l0.3,0.1V60.4z M368.6,60.2l-0.3-0.1v-0.3l0.3,0.1L368.6,60.2z M367.7,59.9l-0.3-0.1v-0.3l0.3,0.1V59.9z M366.9,59.7l-0.3-0.1
				v-0.3l0.3,0.1V59.7z M366,59.4l-0.3-0.1V59l0.3,0.1V59.4z M365.1,59.2l-0.3-0.1v-0.3l0.3,0.1V59.2z M364.2,59l-0.3-0.1v-0.3
				l0.3,0.1V59z M363.4,58.7l-0.3-0.1v-0.3l0.3,0.1V58.7z M362.5,58.5l-0.3-0.1v-0.3l0.3,0.1V58.5z M361.6,58.2l-0.3-0.1v-0.3
				l0.3,0.1V58.2z M360.8,58l-0.3-0.1v-0.3l0.3,0.1V58z"/>
			<polygon class="st4" points="363.9,63.6 331.7,53.9 331.7,52.3 363.9,61.7 			"/>
			<polygon class="st7" points="393.3,72.5 390.2,71.6 390.2,69.3 393.3,70.2 			"/>
			<polygon class="st4" points="330.6,53.5 328.8,53 328.8,51.4 330.6,51.9 			"/>
			<path class="st8" d="M388.6,71.1l-0.3-0.1v-0.4l0.3,0.1V71.1z M387.7,70.8l-0.3-0.1v-0.4l0.3,0.1V70.8z M386.8,70.6l-0.3-0.1
				v-0.4l0.3,0.1V70.6z M386,70.3l-0.3-0.1v-0.4l0.3,0.1V70.3z M385.1,70.1l-0.3-0.1v-0.4l0.3,0.1V70.1z M384.2,69.8l-0.3-0.1v-0.4
				l0.3,0.1L384.2,69.8z M383.4,69.5l-0.3-0.1v-0.4l0.3,0.1V69.5z M382.5,69.3l-0.3-0.1v-0.4l0.3,0.1L382.5,69.3z M381.6,69
				l-0.3-0.1v-0.4l0.3,0.1V69z M380.8,68.7l-0.3-0.1v-0.4l0.3,0.1V68.7z M379.9,68.5l-0.3-0.1V68l0.3,0.1V68.5z M379,68.2l-0.3-0.1
				v-0.4l0.3,0.1V68.2z M378.2,67.9l-0.3-0.1v-0.4l0.3,0.1L378.2,67.9z M377.3,67.7l-0.3-0.1v-0.4l0.3,0.1L377.3,67.7z M376.4,67.4
				l-0.3-0.1V67l0.3,0.1L376.4,67.4z M375.5,67.2l-0.3-0.1v-0.4l0.3,0.1V67.2z M374.7,66.9l-0.3-0.1v-0.4l0.3,0.1V66.9z M373.8,66.6
				l-0.3-0.1v-0.3l0.3,0.1V66.6z M372.9,66.4l-0.3-0.1v-0.3l0.3,0.1L372.9,66.4z M372.1,66.1l-0.3-0.1v-0.3l0.3,0.1V66.1z
				 M371.2,65.8l-0.3-0.1v-0.3l0.3,0.1V65.8z M370.3,65.6l-0.3-0.1v-0.3l0.3,0.1L370.3,65.6z M369.5,65.3l-0.3-0.1v-0.3l0.3,0.1
				L369.5,65.3z M368.6,65l-0.3-0.1v-0.3l0.3,0.1L368.6,65z M367.7,64.8l-0.3-0.1v-0.3l0.3,0.1V64.8z M366.9,64.5l-0.3-0.1v-0.3
				l0.3,0.1L366.9,64.5z M366,64.3l-0.3-0.1v-0.3l0.3,0.1V64.3z"/>
			<polygon class="st4" points="368.1,69.8 331.7,57.7 331.7,56.1 368.1,67.7 			"/>
			<polygon class="st7" points="393.4,78.1 390.2,77.1 390.2,74.8 393.3,75.8 			"/>
			<polygon class="st4" points="330.6,57.4 328.8,56.8 328.8,55.2 330.6,55.8 			"/>
			<path class="st8" d="M388.6,76.6l-0.3-0.1v-0.4l0.3,0.1V76.6z M387.7,76.3l-0.3-0.1v-0.4l0.3,0.1V76.3z M386.9,76l-0.3-0.1v-0.4
				l0.3,0.1V76z M386,75.7l-0.3-0.1v-0.4l0.3,0.1V75.7z M385.1,75.4l-0.3-0.1v-0.4l0.3,0.1L385.1,75.4z M384.2,75.1l-0.3-0.1v-0.4
				l0.3,0.1L384.2,75.1z M383.3,74.8l-0.3-0.1v-0.4l0.3,0.1V74.8z M382.5,74.5l-0.3-0.1v-0.4l0.3,0.1V74.5z M381.6,74.2l-0.3-0.1
				v-0.4l0.3,0.1V74.2z M380.7,73.9l-0.3-0.1v-0.4l0.3,0.1L380.7,73.9z M379.8,73.7l-0.3-0.1v-0.4l0.3,0.1V73.7z M379,73.4l-0.3-0.1
				v-0.4L379,73L379,73.4z M378.1,73.1l-0.3-0.1v-0.4l0.3,0.1V73.1z M377.2,72.8l-0.3-0.1v-0.4l0.3,0.1V72.8z M376.3,72.5l-0.3-0.1
				V72l0.3,0.1L376.3,72.5z M375.4,72.2l-0.3-0.1v-0.4l0.3,0.1V72.2z M374.6,71.9l-0.3-0.1v-0.4l0.3,0.1V71.9z M373.7,71.6l-0.3-0.1
				v-0.3l0.3,0.1L373.7,71.6z M372.8,71.3l-0.3-0.1v-0.3l0.3,0.1V71.3z M371.9,71l-0.3-0.1v-0.3l0.3,0.1L371.9,71z M371.1,70.8
				l-0.3-0.1v-0.3l0.3,0.1V70.8z M370.2,70.5l-0.3-0.1V70l0.3,0.1V70.5z"/>
			<polygon class="st4" points="353.8,72.9 325.7,62.2 325.7,60.7 353.8,71 			"/>
			<polygon class="st4" points="352.5,76.8 331.7,68.4 331.7,66.8 352.5,75 			"/>
			<polygon class="st7" points="393.4,93.5 390.3,92.2 390.3,89.9 393.4,91.1 			"/>
			<polygon class="st4" points="330.6,67.9 328.8,67.2 328.8,65.6 330.6,66.3 			"/>
			<path class="st8" d="M388.7,91.5l-0.3-0.1V91l0.3,0.1V91.5z M387.8,91.2l-0.3-0.1v-0.4l0.3,0.1V91.2z M386.9,90.8l-0.3-0.1v-0.4
				l0.3,0.1V90.8z M386.1,90.5l-0.3-0.1V90l0.3,0.1V90.5z M385.2,90.1l-0.3-0.1v-0.4l0.3,0.1L385.2,90.1z M384.3,89.8l-0.3-0.1v-0.4
				l0.3,0.1V89.8z M383.4,89.4l-0.3-0.1v-0.4l0.3,0.1L383.4,89.4z M382.6,89.1l-0.3-0.1v-0.4l0.3,0.1L382.6,89.1z M381.7,88.7
				l-0.3-0.1v-0.4l0.3,0.1V88.7z M380.8,88.3l-0.3-0.1v-0.4l0.3,0.1L380.8,88.3z M380,88l-0.3-0.1v-0.4l0.3,0.1L380,88z M379.1,87.6
				l-0.3-0.1v-0.4l0.3,0.1V87.6z M378.2,87.3l-0.3-0.1v-0.4l0.3,0.1V87.3z M377.3,86.9l-0.3-0.1v-0.4l0.3,0.1L377.3,86.9z
				 M376.5,86.6l-0.3-0.1v-0.4l0.3,0.1V86.6z M375.6,86.2l-0.3-0.1v-0.4l0.3,0.1V86.2z M374.7,85.9l-0.3-0.1v-0.4l0.3,0.1
				L374.7,85.9z M373.8,85.5l-0.3-0.1V85l0.3,0.1L373.8,85.5z M373,85.1l-0.3-0.1v-0.3l0.3,0.1V85.1z M372.1,84.8l-0.3-0.1v-0.3
				l0.3,0.1V84.8z M371.2,84.4l-0.3-0.1V84l0.3,0.1V84.4z M370.3,84.1L370,84v-0.3l0.3,0.1V84.1z M369.5,83.7l-0.3-0.1v-0.3l0.3,0.1
				V83.7z M368.6,83.4l-0.3-0.1v-0.3l0.3,0.1L368.6,83.4z M367.7,83l-0.3-0.1v-0.3l0.3,0.1V83z M366.8,82.7l-0.3-0.1v-0.3l0.3,0.1
				V82.7z M366,82.3l-0.3-0.1v-0.3L366,82L366,82.3z M365.1,81.9l-0.3-0.1v-0.3l0.3,0.1V81.9z M364.2,81.6l-0.3-0.1v-0.3l0.3,0.1
				V81.6z M363.3,81.2l-0.3-0.1v-0.3l0.3,0.1V81.2z M362.5,80.9l-0.3-0.1v-0.3l0.3,0.1V80.9z M361.6,80.5l-0.3-0.1v-0.3l0.3,0.1
				V80.5z M360.7,80.2l-0.3-0.1v-0.3l0.3,0.1V80.2z M359.9,79.8l-0.3-0.1v-0.3l0.3,0.1V79.8z M359,79.5l-0.3-0.1V79l0.3,0.1V79.5z
				 M358.1,79.1l-0.3-0.1v-0.3l0.3,0.1V79.1z M357.2,78.7l-0.3-0.1v-0.3l0.3,0.1V78.7z M356.4,78.4l-0.3-0.1V78l0.3,0.1V78.4z
				 M355.5,78l-0.3-0.1v-0.3l0.3,0.1V78z M354.6,77.7l-0.3-0.1v-0.3l0.3,0.1L354.6,77.7z"/>
			<polygon class="st4" points="373.4,90.3 331.7,72.2 331.7,70.6 373.4,88.2 			"/>
			<polygon class="st7" points="393.5,99 390.3,97.7 390.3,95.4 393.5,96.7 			"/>
			<polygon class="st4" points="330.6,71.7 328.9,71 328.8,69.4 330.6,70.1 			"/>
			<path class="st8" d="M388.7,97l-0.3-0.1v-0.4l0.3,0.1V97z M387.8,96.6l-0.3-0.1v-0.4l0.3,0.1V96.6z M387,96.2l-0.3-0.1v-0.4
				l0.3,0.1V96.2z M386.1,95.8l-0.3-0.1v-0.4l0.3,0.1V95.8z M385.2,95.5l-0.3-0.1V95l0.3,0.1V95.5z M384.3,95.1l-0.3-0.1v-0.4
				l0.3,0.1V95.1z M383.4,94.7l-0.3-0.1v-0.4l0.3,0.1L383.4,94.7z M382.5,94.3l-0.3-0.1v-0.4l0.3,0.1L382.5,94.3z M381.7,93.9
				l-0.3-0.1v-0.4l0.3,0.1V93.9z M380.8,93.5l-0.3-0.1V93l0.3,0.1V93.5z M379.9,93.2l-0.3-0.1v-0.4l0.3,0.1V93.2z M379,92.8
				l-0.3-0.1v-0.4l0.3,0.1L379,92.8z M378.1,92.4l-0.3-0.1v-0.4l0.3,0.1V92.4z M377.2,92l-0.3-0.1v-0.4l0.3,0.1V92z M376.4,91.6
				l-0.3-0.1v-0.4l0.3,0.1V91.6z M375.5,91.2l-0.3-0.1v-0.4l0.3,0.1L375.5,91.2z"/>
			<polygon class="st4" points="349.7,88.8 325.7,77 325.7,75.5 349.7,87 			"/>
			<polygon class="st4" points="355.7,96.2 331.7,83.8 331.7,82.2 355.7,94.4 			"/>
			<polygon class="st7" points="393.6,115.8 390.4,114.2 390.4,111.9 393.5,113.5 			"/>
			<polygon class="st4" points="330.6,83.3 328.9,82.4 328.9,80.8 330.6,81.7 			"/>
			<path class="st8" d="M388.8,113.3l-0.3-0.1v-0.4l0.3,0.1V113.3z M388,112.9l-0.3-0.1v-0.4l0.3,0.1V112.9z M387.1,112.4l-0.3-0.1
				v-0.4l0.3,0.1V112.4z M386.2,112l-0.3-0.1v-0.4l0.3,0.1V112z M385.4,111.6l-0.3-0.1V111l0.3,0.1V111.6z M384.5,111.1l-0.3-0.1
				v-0.4l0.3,0.1V111.1z M383.6,110.7l-0.3-0.1v-0.4l0.3,0.1V110.7z M382.8,110.2l-0.3-0.1v-0.4l0.3,0.1V110.2z M381.9,109.8
				l-0.3-0.1v-0.4l0.3,0.1V109.8z M381.1,109.3l-0.3-0.1v-0.4l0.3,0.1V109.3z M380.2,108.9l-0.3-0.1v-0.4l0.3,0.1V108.9z
				 M379.3,108.4l-0.3-0.1v-0.4l0.3,0.1L379.3,108.4z M378.5,108l-0.3-0.1v-0.4l0.3,0.1V108z M377.6,107.5l-0.3-0.1V107l0.3,0.1
				V107.5z M376.7,107.1l-0.3-0.1v-0.4l0.3,0.1V107.1z M375.9,106.7l-0.3-0.1v-0.4l0.3,0.1V106.7z M375,106.2l-0.3-0.1v-0.4l0.3,0.1
				V106.2z M374.2,105.8l-0.3-0.1v-0.4l0.3,0.1V105.8z M373.3,105.3l-0.3-0.1v-0.3l0.3,0.1V105.3z M372.4,104.9l-0.3-0.1v-0.3
				l0.3,0.1V104.9z M371.6,104.4l-0.3-0.1v-0.3l0.3,0.1V104.4z M370.7,104l-0.3-0.1v-0.3l0.3,0.1L370.7,104z M369.8,103.5l-0.3-0.1
				V103l0.3,0.1V103.5z M369,103.1l-0.3-0.1v-0.3l0.3,0.1L369,103.1z M368.1,102.6l-0.3-0.1v-0.3l0.3,0.1V102.6z M367.3,102.2
				L367,102v-0.3l0.3,0.1V102.2z M366.4,101.8l-0.3-0.1v-0.3l0.3,0.1L366.4,101.8z M365.5,101.3l-0.3-0.1v-0.3l0.3,0.1L365.5,101.3z
				 M364.7,100.9l-0.3-0.1v-0.3l0.3,0.1V100.9z M363.8,100.4l-0.3-0.1v-0.3l0.3,0.1V100.4z M362.9,100l-0.3-0.1v-0.3l0.3,0.1
				L362.9,100z M362.1,99.5l-0.3-0.1v-0.3l0.3,0.1L362.1,99.5z M361.2,99.1l-0.3-0.1v-0.3l0.3,0.1V99.1z M360.4,98.6l-0.3-0.1v-0.3
				l0.3,0.1V98.6z M359.5,98.2l-0.3-0.1v-0.3l0.3,0.1V98.2z M358.6,97.7l-0.3-0.1v-0.3l0.3,0.1V97.7z M357.8,97.3l-0.3-0.1v-0.3
				l0.3,0.1V97.3z"/>
			<polygon class="st4" points="362,104.2 331.7,87.7 331.7,86.1 362,102.2 			"/>
			<polygon class="st7" points="393.6,121.4 390.5,119.7 390.4,117.4 393.6,119 			"/>
			<polygon class="st4" points="330.6,87.1 328.9,86.1 328.9,84.6 330.6,85.5 			"/>
			<path class="st8" d="M388.8,118.8l-0.3-0.2v-0.4l0.3,0.2V118.8z M387.9,118.3l-0.3-0.2v-0.4l0.3,0.2V118.3z M387.1,117.8
				l-0.3-0.2v-0.4l0.3,0.2V117.8z M386.2,117.3l-0.3-0.2v-0.4l0.3,0.2V117.3z M385.3,116.9l-0.3-0.2v-0.4l0.3,0.2V116.9z
				 M384.4,116.4l-0.3-0.2v-0.4l0.3,0.2V116.4z M383.5,115.9l-0.3-0.2v-0.4l0.3,0.2V115.9z M382.6,115.4l-0.3-0.2v-0.4l0.3,0.2
				V115.4z M381.8,114.9l-0.3-0.2v-0.4l0.3,0.2V114.9z M380.9,114.4l-0.3-0.2v-0.4l0.3,0.2V114.4z M380,114l-0.3-0.2v-0.4l0.3,0.2
				V114z M379.1,113.5l-0.3-0.2V113l0.3,0.2V113.5z M378.2,113l-0.3-0.2v-0.4l0.3,0.2V113z M377.3,112.5l-0.3-0.2V112l0.3,0.2
				L377.3,112.5z M376.5,112l-0.3-0.2v-0.4l0.3,0.2L376.5,112z M375.6,111.6l-0.3-0.2V111l0.3,0.2V111.6z M374.7,111.1l-0.3-0.2
				v-0.4l0.3,0.2V111.1z M373.8,110.6l-0.3-0.2v-0.3l0.3,0.2V110.6z M372.9,110.1l-0.3-0.2v-0.3l0.3,0.2V110.1z M372,109.6l-0.3-0.2
				v-0.3l0.3,0.2V109.6z M371.1,109.2l-0.3-0.2v-0.3l0.3,0.2L371.1,109.2z M370.3,108.7l-0.3-0.2v-0.3l0.3,0.2L370.3,108.7z
				 M369.4,108.2l-0.3-0.2v-0.3l0.3,0.2V108.2z M368.5,107.7l-0.3-0.2v-0.3l0.3,0.2V107.7z M367.6,107.2l-0.3-0.2v-0.3l0.3,0.2
				V107.2z M366.7,106.8l-0.3-0.2v-0.3l0.3,0.2V106.8z M365.8,106.3l-0.3-0.2v-0.3l0.3,0.2V106.3z M365,105.8l-0.3-0.2v-0.3l0.3,0.2
				V105.8z M364.1,105.3l-0.3-0.2v-0.3l0.3,0.2V105.3z"/>
			<polygon class="st4" points="364.1,110.1 331.7,91.6 331.7,90 364.1,108.1 			"/>
			<polygon class="st7" points="393.6,126.9 390.5,125.2 390.5,122.9 393.6,124.6 			"/>
			<polygon class="st4" points="330.6,90.9 328.9,89.9 328.9,88.4 330.6,89.3 			"/>
			<path class="st8" d="M388.9,124.2l-0.3-0.2v-0.4l0.3,0.2V124.2z M388,123.7l-0.3-0.2v-0.4l0.3,0.2V123.7z M387.1,123.2l-0.3-0.2
				v-0.4l0.3,0.2V123.2z M386.3,122.7l-0.3-0.2v-0.4l0.3,0.2V122.7z M385.4,122.2l-0.3-0.2v-0.4l0.3,0.2V122.2z M384.5,121.7
				l-0.3-0.2v-0.4l0.3,0.2V121.7z M383.6,121.2l-0.3-0.2v-0.4l0.3,0.2V121.2z M382.8,120.7l-0.3-0.2v-0.4l0.3,0.2L382.8,120.7z
				 M381.9,120.2l-0.3-0.2v-0.4l0.3,0.2L381.9,120.2z M381,119.7l-0.3-0.2v-0.4l0.3,0.2V119.7z M380.1,119.2l-0.3-0.2v-0.4l0.3,0.2
				V119.2z M379.3,118.7l-0.3-0.2v-0.4l0.3,0.2V118.7z M378.4,118.2l-0.3-0.2v-0.4l0.3,0.2L378.4,118.2z M377.5,117.7l-0.3-0.2v-0.4
				l0.3,0.2L377.5,117.7z M376.6,117.2l-0.3-0.2v-0.4l0.3,0.2V117.2z M375.8,116.7l-0.3-0.2v-0.4l0.3,0.2L375.8,116.7z M374.9,116.2
				l-0.3-0.2v-0.4l0.3,0.2L374.9,116.2z M374,115.7l-0.3-0.2v-0.3l0.3,0.2L374,115.7z M373.2,115.2l-0.3-0.2v-0.3l0.3,0.2
				L373.2,115.2z M372.3,114.8l-0.3-0.2v-0.3l0.3,0.2L372.3,114.8z M371.4,114.3l-0.3-0.2v-0.3l0.3,0.2V114.3z M370.5,113.8
				l-0.3-0.2v-0.3l0.3,0.2L370.5,113.8z M369.7,113.3l-0.3-0.2v-0.3l0.3,0.2L369.7,113.3z M368.8,112.8l-0.3-0.2v-0.3l0.3,0.2V112.8
				z M367.9,112.3l-0.3-0.2v-0.3l0.3,0.2L367.9,112.3z M367,111.8l-0.3-0.2v-0.3l0.3,0.2L367,111.8z M366.2,111.3l-0.3-0.2v-0.3
				l0.3,0.2L366.2,111.3z"/>
			<polygon class="st4" points="368.1,28.3 350.5,26.6 350.5,24.8 368.1,26.3 			"/>
		</g>
		<path class="st9" d="M323.1,158.1c-8.3-1.9-32.2-7.4-32.2-7.4C295.5,187.4,307,179,307,179c1.6-5.7,12.1-4,18.8-14.8v-2.6
			C325.8,160,324.7,158.5,323.1,158.1z"/>
		<path class="st10" d="M357.6,302.4c69.9,11.5,69.9,30.2,0,41.7c-69.9,11.5-183.2,11.5-253.1,0c-69.9-11.5-69.9-30.2,0-41.7
			C174.3,290.9,287.7,290.9,357.6,302.4z"/>
		
			<linearGradient id="SVGID_1_" gradientUnits="userSpaceOnUse" x1="252.7748" y1="260.5936" x2="278.6194" y2="260.5936" gradientTransform="matrix(1 0 0 -1 0 354)">
			<stop  offset="0" style="stop-color:#F9F9F9"/>
			<stop  offset="1" style="stop-color:#CED6DD"/>
		</linearGradient>
		<path class="st11" d="M278.6,68.2c0,0-6.6-3.4-11.3-0.7c-4.8,2.7-8.2,6.1-10.8,20.1c-1.8,9.7-4,18.5-3.7,26.4
			c0.1,3.5,2,4.2,3.9,4.8c4.8,1.5,7.2,2.8,9.1-0.5c1.4-2.6,1.1-4.7,2.1-7.4C270.1,104.6,278.6,68.2,278.6,68.2z"/>
		
			<linearGradient id="SVGID_2_" gradientUnits="userSpaceOnUse" x1="245.8954" y1="212.5422" x2="261.9836" y2="212.5422" gradientTransform="matrix(1 0 0 -1 0 354)">
			<stop  offset="0" style="stop-color:#F9F9F9"/>
			<stop  offset="1" style="stop-color:#CED6DD"/>
		</linearGradient>
		<path class="st12" d="M257.6,124.5c-1.1-0.8-4.4-4-6.7-2.4c-1.6,1.1-3.1,6.5-3.9,11.8c-1.9,12.5-0.8,27.2-0.8,27.2s5.2,1.6,8.9-5
			c-0.1-3.1,0.5-6.3,2-9.1C259.5,141.8,266.5,130.7,257.6,124.5z"/>
		<path class="st13" d="M246.4,164.5c0,0-1.5,6.7-1.1,9.9c0.4,3.1,4.4,11.7,5.7,12.3c1.3,0.6,4.7-0.9,5.1-3.5
			c0.4-2.6-1.1-6.1-1.7-8.2c-0.6-2.1,0.6-7.8,1-7.9c0.9-0.1,1.7-0.1,2.6,0c0,0,3,4.9,4.4,4s-0.4-5.3-1.5-7.5s-6.9-3-6.9-3
			L246.4,164.5z"/>
		
			<linearGradient id="SVGID_3_" gradientUnits="userSpaceOnUse" x1="245.2626" y1="180.2668" x2="262.8324" y2="180.2668" gradientTransform="matrix(1 0 0 -1 0 354)">
			<stop  offset="0" style="stop-color:#F9F9F9"/>
			<stop  offset="1" style="stop-color:#CED6DD"/>
		</linearGradient>
		<path class="st14" d="M246.4,164.5c0,0-1.5,6.7-1.1,9.9c0.4,3.1,4.4,11.7,5.7,12.3c1.3,0.6,4.7-0.9,5.1-3.5
			c0.4-2.6-1.1-6.1-1.7-8.2c-0.6-2.1,0.6-7.8,1-7.9c0.9-0.1,1.7-0.1,2.6,0c0,0,3,4.9,4.4,4s-0.4-5.3-1.5-7.5s-6.9-3-6.9-3
			L246.4,164.5z"/>
		<path class="st15" d="M256.7,118.8c-0.9-0.2-1.7-0.6-2.4-1.2l-0.9,4.2c1.5,0.7,2.9,1.6,4.2,2.6c1.1,0.7,2,1.6,2.7,2.7l3-6.9
			C261.8,120.6,259.7,119.8,256.7,118.8z"/>
		<path class="st16" d="M248.1,161.2l0.2,2.3l5.7-2.9v-2.8C252.6,159.7,250.5,161,248.1,161.2z"/>
		<path class="st6" d="M255,160.8c-0.9,2.1-0.9,4.4-0.1,6.5l0.2,0.3c0.1-0.3,0.2-0.5,0.3-0.5c0.2,0,0.4,0,0.6,0l-0.1-0.2
			c0,0-1.3-3.2,0.2-5.9C255.6,161,255.3,160.9,255,160.8z"/>
		<path class="st16" d="M246.8,173.9c0.4,2.5,1.1,5,2.2,7.4l6.6-2.5c-0.4-1.4-0.9-2.7-1.2-3.8c-0.2-1.3-0.2-2.6,0-3.9
			C251.9,172.2,249.4,173.1,246.8,173.9z"/>
		<path class="st9" d="M270.1,66.5c-8.1,8.6-11.9,42.6-12.9,52.5c4.4,1.5,6.7,2.5,8.5-0.7c1.4-2.6,1.1-4.7,2.1-7.4
			c2.3-6.2,10.8-42.6,10.8-42.6S274.3,65.9,270.1,66.5z"/>
		<path class="st9" d="M257.6,124.5c-0.5-0.3-1.4-1.2-2.5-1.8c-5.3,12.1-7.3,25.3-5.9,38.4c1.8-0.4,4-1.6,5.9-5
			c-0.1-3.1,0.5-6.3,2-9.1C259.5,141.8,266.5,130.7,257.6,124.5z"/>
		<path class="st15" d="M272.4,299.4c-0.8,0.8-1.8,1.4-2.8,1.8l0,0.2c-6.4,5.4-9.9,4.8-11.8,3.2c0,0.6,0,1.3,0,2.1l-1.1-0.1
			l-0.5,5.8l1.6,0.3c0.6,3.8,2.6,7.5,5.6,6.3c1.1-0.5,2.2-1.2,3.2-1.9c-0.1-0.7-0.1-1.2,0.1-1.4c3.2-3.1,6.2-6.4,9-9.8
			C277.6,303.3,274.7,300.9,272.4,299.4z"/>
		<path class="st13" d="M289.5,298c-3.8-2.3-10.7-0.2-14.8,0.7c-0.8,0.2-1.6,0.4-2.3,0.7c2.3,1.5,5.2,3.9,3.3,6.3
			c-2.8,3.4-5.8,6.7-9,9.8c-0.4,0.4-0.2,1.7,0.3,3.4c0.7-0.8,1.3-1.7,2-2.6c2.8-3.6,7-5.4,13.1-8.3C288.2,305,293.2,300.3,289.5,298
			z"/>
		<path class="st13" d="M268.5,313.1c-0.1,2.7-1.6,5.2-3.8,6.7c-2.1,1.2-3.8,0.2-3.8-2.2c0.1-2.7,1.6-5.2,3.8-6.7
			C266.8,309.7,268.5,310.7,268.5,313.1z"/>
		<path class="st13" d="M280.9,245.7c0,0-2.7,4.6-10,2.9s-8.6-4.7-13.5,3.1c-8.9,14.1,0.4,43.1-1.5,49.7c0,0,2.2,9.7,13.7,0
			c0,0,2-25,4.7-34.1C277.1,258.1,280.9,245.7,280.9,245.7z"/>
		
			<linearGradient id="SVGID_4_" gradientUnits="userSpaceOnUse" x1="253.4707" y1="78.2749" x2="280.9297" y2="78.2749" gradientTransform="matrix(1 0 0 -1 0 354)">
			<stop  offset="0" style="stop-color:#F9F9F9"/>
			<stop  offset="1" style="stop-color:#CED6DD"/>
		</linearGradient>
		<path class="st17" d="M280.9,245.7c0,0-2.7,4.6-10,2.9s-8.6-4.7-13.5,3.1c-8.9,14.1,0.4,43.1-1.5,49.7c0,0,2.2,9.7,13.7,0
			c0,0,2-25,4.7-34.1C277.1,258.1,280.9,245.7,280.9,245.7z"/>
		
			<linearGradient id="SVGID_5_" gradientUnits="userSpaceOnUse" x1="263.9532" y1="157.5886" x2="297.8541" y2="157.5886" gradientTransform="matrix(1 0 0 -1 0 354)">
			<stop  offset="0" style="stop-color:#F9F9F9"/>
			<stop  offset="1" style="stop-color:#CED6DD"/>
		</linearGradient>
		<path class="st18" d="M284.6,239.3c0,0-14.2,7.7-20.6-1.5c0,0,2.7-8.4,2.4-16.2c-0.4-7.8-2.2-67.5,12.7-70.8
			c15-3.3,22.1,14.2,17.4,44.1S284.6,239.3,284.6,239.3z"/>
		<path class="st9" d="M270.9,248.7c-2.1-0.5-3.7-1.1-5-1.5c-3,3.2-7.3,9-8.7,16.6c-1.8,10.1,2.7,28.1,2.1,41.6
			c2.1,0.8,5.3,0.3,10.4-4c0,0,2-25,4.7-34.1c2.7-9.1,6.6-21.5,6.6-21.5S278.2,250.3,270.9,248.7z"/>
		<path class="st9" d="M281.3,150.5c-11.7,16-6.8,64.6-8.3,74.2c-0.8,5.8-2.2,11.5-4.1,17c6.9,2.4,15.6-2.3,15.6-2.3
			s7.1-14.4,11.8-44.4C300.9,166.6,294.7,149.4,281.3,150.5z"/>
		<path class="st15" d="M266.4,240.4l-1.7,6.5c1.6,0.4,3.5,1.2,6.2,1.8c2.6,0.7,5.3,0.4,7.7-0.8l3.8-7.5
			C278.8,241.8,271.5,244,266.4,240.4z"/>
		<path class="st13" d="M313.1,163c-20,2.5-32.2-12.1-32.2-12.1c-4.6,36.6,18.1,40.5,18.1,40.5c-1.6-5.7,12.3-13.4,16.8-19.8
			L313.1,163z"/>
		
			<linearGradient id="SVGID_6_" gradientUnits="userSpaceOnUse" x1="280.3057" y1="182.8877" x2="315.8394" y2="182.8877" gradientTransform="matrix(1 0 0 -1 0 354)">
			<stop  offset="0" style="stop-color:#F9F9F9"/>
			<stop  offset="1" style="stop-color:#CED6DD"/>
		</linearGradient>
		<path class="st19" d="M313.1,163c-20,2.5-32.2-12.1-32.2-12.1c-4.6,36.6,18.1,40.5,18.1,40.5c-1.6-5.7,12.3-13.4,16.8-19.8
			L313.1,163z"/>
		<path class="st15" d="M315.8,171.6l-2.3-7.1c-4.2,2.7-15.8,11.4-16.5,25.7c0,0.2,0,0.4,0,0.7c0.6,0.2,1.3,0.4,1.9,0.5
			C297.4,185.7,311.3,177.9,315.8,171.6z"/>
		<path class="st15" d="M322.1,329.9c-2.6-0.2-6.3-0.9-8.8-3.5c-2.9,2.5-6.8,3.8-10.7,3.5c0.1,1,0.1,2.1,0.1,3.2h-2l-0.5,5.4
			l1.7,0.2c-1.5,5,2,8.8,6.1,8.5l0.1-1.5c0,0,12.7-4.5,14.5-8.4C323.5,335.2,322.9,332.3,322.1,329.9z"/>
		<path class="st13" d="M321.4,259.8c0,0-10.9,8-18.1,6.7s-6.3,3-8.2,16.1c-1.9,13.1,5.4,37.2,4.1,46.5c4.9,1.5,10.2,0.4,14.1-2.9
			C313.4,326.3,321.4,274.3,321.4,259.8z"/>
		<path class="st13" d="M321.4,164.2c8.4-1.3,15.5,4.1,13.7,29.7c-1.8,25.6-11.1,59.3-12.6,61.7c-1.5,2.4-22.5,5.5-23.2-1.5
			s-4.9-50.8-2.2-63.8S309.6,166.1,321.4,164.2z"/>
		
			<linearGradient id="SVGID_7_" gradientUnits="userSpaceOnUse" x1="294.8736" y1="59.1344" x2="321.4272" y2="59.1344" gradientTransform="matrix(1 0 0 -1 0 354)">
			<stop  offset="0" style="stop-color:#F9F9F9"/>
			<stop  offset="1" style="stop-color:#CED6DD"/>
		</linearGradient>
		<path class="st20" d="M321.4,259.8c0,0-10.9,8-18.1,6.7s-6.3,3-8.2,16.1c-1.9,13.1,5.4,37.2,4.1,46.5c4.9,1.5,10.2,0.4,14.1-2.9
			C313.4,326.3,321.4,274.3,321.4,259.8z"/>
		
			<linearGradient id="SVGID_8_" gradientUnits="userSpaceOnUse" x1="296.2481" y1="142.7815" x2="335.4313" y2="142.7815" gradientTransform="matrix(1 0 0 -1 0 354)">
			<stop  offset="0" style="stop-color:#F9F9F9"/>
			<stop  offset="1" style="stop-color:#CED6DD"/>
		</linearGradient>
		<path class="st21" d="M321.4,164.2c8.4-1.3,15.5,4.1,13.7,29.7c-1.8,25.6-11.1,59.3-12.6,61.7c-1.5,2.4-22.5,5.5-23.2-1.5
			s-4.9-50.8-2.2-63.8S309.6,166.1,321.4,164.2z"/>
		<path class="st9" d="M303.6,266.6c-0.1,0-0.1,0-0.2,0c-7.1-1.3-6.3,3-8.2,16.1c-1.9,13.1,5.4,37.2,4.1,46.5
			c0.9,0.3,1.8,0.5,2.7,0.6c0.8-13.5-3.9-26.3-3.6-39.3C298.7,282.2,300.4,274.1,303.6,266.6z"/>
		<path class="st9" d="M305.8,242.4c-0.5-10.4-2.7-50.3,1.6-70.8c-5.2,5.1-8.7,11.7-10.2,18.8c-2.7,13,1.5,56.8,2.2,63.8
			c0.2,2.3,2.7,3.5,6,4C306,252.9,306.2,247.6,305.8,242.4z"/>
		<path class="st22" d="M328.4,104.9c-0.9-11.8-6.9-22.6-16.5-29.5c-10.7-1.1-21.9,2.1-30.1-0.7c-8.1-2.8-1.6-6.4,3.3-8.5
			c-9.6-0.3-16.6,3.5-17.8,12.7c-1.7,13.3,11.9,36.9,13.4,47.6c3.6,4.4,8.6,7.5,14.2,8.5c8.6,2,17.7,0,24.6-5.4l8-8
			C327.7,115.8,328.6,108.5,328.4,104.9z"/>
		<path class="st9" d="M319.6,129.7l8-8c0.2-5.9,1.1-13.2,0.8-16.7c-0.9-11.8-6.9-22.6-16.5-29.5c-9.5-1-19.4,1.4-27.2,0
			c-6.6,15.4,5.9,37.4,8.2,48.6c0.7,3.6,1.2,7.3,1.5,11c0.2,0,0.3,0.1,0.5,0.1C303.6,137.1,312.6,135.1,319.6,129.7z"/>
		<path class="st15" d="M281.9,74.7c5,1.7,11.1,1.2,17.5,0.8c-10.8-2.7-14.2-9.3-14.2-9.3C280.2,68.3,273.8,71.9,281.9,74.7z"/>
		<path class="st15" d="M301.6,257l-1,9.4c0.9-0.1,1.9,0,2.8,0.2c4.9,0.9,11.5-2.6,15.2-4.8l1.4-4.8
			C315.4,258.4,305.9,259.3,301.6,257z"/>
		<path class="st13" d="M308.2,345.6l-0.2,2.9c2.7-0.5,5.3-1.2,7.9-2.1c5.3-1.7,16.7-4.3,20.8-7.9s4.5-9.8-1.9-10.2
			c-3.7-0.2-8.7,0.5-13.2,0c1,2.6,2.1,6.4,1,8.8C320.8,341.2,308.2,345.6,308.2,345.6z"/>
		
			<linearGradient id="SVGID_9_" gradientUnits="userSpaceOnUse" x1="266.5113" y1="46.0426" x2="290.7715" y2="46.0426" gradientTransform="matrix(1 0 0 -1 0 354)">
			<stop  offset="0" style="stop-color:#F9F9F9"/>
			<stop  offset="1" style="stop-color:#CED6DD"/>
		</linearGradient>
		<path class="st23" d="M289.5,298c-3.8-2.3-10.7-0.2-14.8,0.7c-0.8,0.2-1.6,0.4-2.3,0.7c2.3,1.5,5.2,3.9,3.3,6.3
			c-2.8,3.4-5.8,6.7-9,9.8c-0.4,0.4-0.2,1.7,0.3,3.4c0.7-0.8,1.3-1.7,2-2.6c2.8-3.6,7-5.4,13.1-8.3C288.2,305,293.2,300.3,289.5,298
			z"/>
		
			<linearGradient id="SVGID_10_" gradientUnits="userSpaceOnUse" x1="307.9054" y1="15.5429" x2="339.6407" y2="15.5429" gradientTransform="matrix(1 0 0 -1 0 354)">
			<stop  offset="0" style="stop-color:#F9F9F9"/>
			<stop  offset="1" style="stop-color:#CED6DD"/>
		</linearGradient>
		<path class="st24" d="M308.2,345.6l-0.2,2.9c2.7-0.5,5.3-1.2,7.9-2.1c5.3-1.7,16.7-4.3,20.8-7.9s4.5-9.8-1.9-10.2
			c-3.7-0.2-8.7,0.5-13.2,0c1,2.6,2.1,6.4,1,8.8C320.8,341.2,308.2,345.6,308.2,345.6z"/>
		<path class="st15" d="M319.6,129.7c-7,5.5-16,7.5-24.6,5.4c-3.4-0.7-6.6-2.1-9.5-4.1c0.4,6,0.8,16.8-0.6,23.6
			c7.9,6.5,18.1,9.6,28.2,8.4l0.6,3.9l9.4-2.7l1.5-15.4l1.1-10.4l0.1-1.2l0.4-14.3L319.6,129.7z"/>
		<path class="st13" d="M312,341.2c-0.1,2.7-1.6,5.2-3.8,6.7c-2.1,1.2-3.8,0.2-3.8-2.2c0.1-2.7,1.6-5.2,3.8-6.7
			C310.3,337.8,312,338.7,312,341.2z"/>
		<path class="st6" d="M268.5,313.1c-0.1,2.7-1.6,5.2-3.8,6.7c-2.1,1.2-3.8,0.2-3.8-2.2c0.1-2.7,1.6-5.2,3.8-6.7
			C266.8,309.7,268.5,310.7,268.5,313.1z"/>
		<path class="st6" d="M312,341.2c-0.1,2.7-1.6,5.2-3.8,6.7c-2.1,1.2-3.8,0.2-3.8-2.2c0.1-2.7,1.6-5.2,3.8-6.7
			C310.3,337.8,312,338.7,312,341.2z"/>
		<path class="st15" d="M319.5,268.8c0.2,2.8-0.6,5.7-2.3,7.9c-1.6,1.8-3.2,1.2-3.5-1.3c-0.2-2.8,0.6-5.7,2.3-7.9
			C317.6,265.7,319.2,266.3,319.5,268.8z"/>
		<path class="st6" d="M319,268.6c0-0.8-0.4-1.6-1-2.1c-0.8,0-1.6,0.4-2,1c-1.7,2.3-2.6,5.1-2.3,7.9c0,0.8,0.4,1.6,1,2.1
			c0.8,0,1.6-0.4,2-1C318.4,274.3,319.2,271.4,319,268.6z"/>
		<path class="st25" d="M329.8,176.3c1.1,3.4,0.5,7-1.6,9.9c-2,2.5-4.6,2.1-5.7-0.9c-1.1-3.4-0.5-7,1.6-9.9
			C326.1,172.9,328.7,173.3,329.8,176.3z"/>
		<path class="st6" d="M328.8,176.3c-0.3-1.2-1.2-2.1-2.4-2.5c-0.9,0.2-1.7,0.8-2.3,1.6c-2.1,2.9-2.7,6.5-1.6,9.9
			c0.3,1.2,1.2,2.1,2.4,2.5c0.9-0.2,1.7-0.8,2.3-1.6C329.3,183.3,329.9,179.6,328.8,176.3z"/>
		<path class="st16" d="M297.1,75.6l-2.6-17.4c-0.1-0.5-0.6-0.9-1.1-0.8c-0.5,0.1-0.9,0.6-0.8,1.1l0,0l2.6,17.2
			C295.7,75.7,296.4,75.7,297.1,75.6z"/>
		<path class="st16" d="M292.5,75.8c0.3,0,0.7,0,1,0l-4.7-23c-0.1-0.3-0.3-0.4-0.6-0.4c-0.3,0.1-0.4,0.3-0.4,0.6L292.5,75.8z"/>
		<path class="st16" d="M289.2,75.8l-1.9-26.5c0-0.5-0.5-1-1.1-0.9c-0.5,0-1,0.5-0.9,1.1c0,0,0,0,0,0l1.9,26.2
			C287.9,75.8,288.5,75.8,289.2,75.8z"/>
		<path class="st26" d="M302.7,59.3c-0.1,2.4-1.4,4.7-3.5,6c-1.9,1.1-3.5,0.2-3.5-2c0.1-2.4,1.4-4.7,3.5-6
			C301.2,56.1,302.7,57,302.7,59.3z"/>
		<path class="st16" d="M292.3,63.5c-2.7,0-5.3-0.8-7.6-2.2l1.3,2.9c0,0-0.1,1.9,7.4,2.4c3.6,0.2,8.6-0.7,9.5-3.1
			c0.3-0.8,0.9-3.3,0.9-3.3C300.5,62.7,296.4,63.8,292.3,63.5z"/>
		<path class="st13" d="M310.5,51.4c1.7-6.2,0.8-7.9,0.5-9.5s1.6-2.2,1.5-3.4c-0.2-1.2-0.9-12.8-9.1-17.3c-6.3-3.5-14.3-3-20.6,0.4
			c5.7,1.7,13.8,5.2,14.4,11.2c1,9.4,3.5,9.7,6.5,10.1c2.5,0.3,2.5,8.9,0.7,16.3C307.7,58.3,309.2,56.1,310.5,51.4z"/>
		
			<linearGradient id="SVGID_11_" gradientUnits="userSpaceOnUse" x1="257.3134" y1="466.166" x2="288.8796" y2="466.166" gradientTransform="matrix(0.9924 0.1229 0.1229 -0.9924 -31.7879 467.9749)">
			<stop  offset="0" style="stop-color:#F9F9F9"/>
			<stop  offset="1" style="stop-color:#CED6DD"/>
		</linearGradient>
		<path class="st27" d="M310.5,51.4c1.7-6.2,0.8-7.9,0.5-9.5s1.6-2.2,1.5-3.4c-0.2-1.2-0.9-12.8-9.1-17.3c-6.3-3.5-14.3-3-20.6,0.4
			c5.7,1.7,13.8,5.2,14.4,11.2c1,9.4,3.5,9.7,6.5,10.1c2.5,0.3,2.6,9.3,0.8,16.8C307.8,58.2,309.2,56.1,310.5,51.4z"/>
		<path class="st9" d="M304.5,59.7c1.8-7.5,1.8-16.5-0.8-16.8c-3-0.4-5.5-0.7-6.5-10.1c-0.6-5.3-6.9-8.6-12.3-10.5
			c-3.1,1.4-9.8,5.4-10.3,12.8c-1,15.4,6.3,13.7,6.7,21.3c0,0,0,5.5,9.4,7.2c7.9,1.4,12.8-1.6,15.4-4.9
			C305.6,59.2,305,59.5,304.5,59.7z"/>
		<path class="st25" d="M303.8,43c-4.6,5-11.6,7-18.1,5l1.2,4.8c11.2,2.9,17-1.8,18.9-3.7C305.7,45.7,305.1,43.3,303.8,43z"/>
		<path class="st25" d="M280.1,46.7c-2-1-3.8-2.2-5.6-3.5l2.3,6.2l4.5,2L280.1,46.7z"/>
		<path class="st13" d="M302.7,49.2c-0.5,2.6-2.1,4.8-4.5,6c-2.2,0.9-3.7-0.2-3.5-2.6c0.5-2.6,2.1-4.8,4.5-6
			C301.5,45.6,303,46.8,302.7,49.2z"/>
		
			<linearGradient id="SVGID_12_" gradientUnits="userSpaceOnUse" x1="273.0054" y1="454.5776" x2="280.4986" y2="454.5776" gradientTransform="matrix(0.9924 0.1229 0.1229 -0.9924 -31.7879 467.9749)">
			<stop  offset="0" style="stop-color:#F9F9F9"/>
			<stop  offset="1" style="stop-color:#CED6DD"/>
		</linearGradient>
		<path class="st28" d="M302.7,49.2c-0.5,2.6-2.1,4.8-4.5,6c-2.2,0.9-3.7-0.2-3.5-2.6c0.5-2.6,2.1-4.8,4.5-6
			C301.5,45.6,303,46.8,302.7,49.2z"/>
		<path class="st29" d="M307.1,46.3c-0.2,1.9-2,3.3-4,3.1c-1.9-0.2-3.3-2-3.1-4c0.2-1.9,2-3.3,4-3.1C306,42.6,307.4,44.4,307.1,46.3
			z"/>
		<path class="st29" d="M305.9,46.2c-0.2,1.2-1.3,2.1-2.5,2c-1.2-0.2-2.1-1.3-2-2.5c0.2-1.2,1.3-2.1,2.5-2
			C305.1,43.8,306,44.9,305.9,46.2C305.9,46.2,305.9,46.2,305.9,46.2z"/>
		<path class="st30" d="M305.1,46.1c-0.1,0.8-0.9,1.4-1.7,1.3c-0.8-0.1-1.4-0.9-1.3-1.7c0.1-0.8,0.9-1.4,1.7-1.3c0,0,0,0,0,0
			C304.6,44.5,305.2,45.2,305.1,46.1C305.1,46.1,305.1,46.1,305.1,46.1z"/>
		<path class="st29" d="M300.7,43.9c-0.2,1.5-1.5,2.5-3,2.3c-1.5-0.2-2.5-1.5-2.3-3c0.2-1.4,1.5-2.5,3-2.3
			C299.8,41.2,300.9,42.5,300.7,43.9C300.7,43.9,300.7,43.9,300.7,43.9z"/>
		<path class="st29" d="M299.7,43.8c-0.1,0.9-1,1.6-1.9,1.5c-0.9-0.1-1.6-1-1.5-1.9c0.1-0.9,1-1.6,1.9-1.5
			C299.2,42,299.8,42.9,299.7,43.8C299.7,43.8,299.7,43.8,299.7,43.8z"/>
		<circle class="st30" cx="298" cy="43.6" r="1.1"/>
		<path class="st29" d="M305.9,53.5c-0.2,1.5-1.5,2.5-3,2.3s-2.5-1.5-2.3-3s1.5-2.5,3-2.3c0,0,0,0,0,0
			C305.1,50.7,306.1,52,305.9,53.5z"/>
		<path class="st29" d="M305,53.3c-0.1,0.9-1,1.6-1.9,1.5s-1.6-1-1.5-1.9c0.1-0.9,1-1.6,1.9-1.5C304.4,51.6,305.1,52.4,305,53.3
			C305,53.3,305,53.3,305,53.3z"/>
		<path class="st30" d="M304.4,53.3c-0.1,0.6-0.6,1.1-1.3,1c-0.6-0.1-1.1-0.6-1-1.3c0.1-0.6,0.6-1.1,1.3-1c0,0,0,0,0,0
			C304.1,52.1,304.5,52.7,304.4,53.3z"/>
		<path class="st29" d="M296.8,47.9c-0.1,1-1.1,1.8-2.1,1.7c-1-0.1-1.8-1.1-1.7-2.1c0.1-1,1.1-1.8,2.1-1.7
			C296.2,45.9,296.9,46.8,296.8,47.9z"/>
		<path class="st29" d="M296.1,47.8c-0.1,0.7-0.7,1.1-1.4,1.1c-0.7-0.1-1.1-0.7-1.1-1.4c0.1-0.7,0.7-1.1,1.4-1.1
			C295.7,46.5,296.2,47.1,296.1,47.8C296.1,47.8,296.1,47.8,296.1,47.8z"/>
		<path class="st30" d="M295.7,47.7c-0.1,0.4-0.5,0.8-0.9,0.7s-0.8-0.5-0.7-0.9c0.1-0.4,0.5-0.8,0.9-0.7c0,0,0,0,0,0
			C295.5,46.9,295.8,47.3,295.7,47.7z"/>
		<path class="st29" d="M302.4,56.8c-0.1,1-1.1,1.8-2.1,1.7s-1.8-1.1-1.7-2.1c0.1-1,1.1-1.8,2.1-1.7
			C301.8,54.8,302.5,55.7,302.4,56.8z"/>
		<path class="st29" d="M301.7,56.7c-0.1,0.7-0.7,1.1-1.4,1.1c-0.7-0.1-1.1-0.7-1.1-1.4c0.1-0.7,0.7-1.1,1.4-1.1
			C301.3,55.4,301.8,56,301.7,56.7C301.7,56.7,301.7,56.7,301.7,56.7z"/>
		<path class="st30" d="M301.3,56.6c-0.1,0.4-0.5,0.8-0.9,0.7s-0.8-0.5-0.7-0.9c0.1-0.4,0.5-0.8,0.9-0.7c0,0,0,0,0,0
			C301,55.8,301.4,56.2,301.3,56.6C301.3,56.6,301.3,56.6,301.3,56.6z"/>
		<path class="st29" d="M304.9,56.8c0,0.6-0.5,1.1-1.1,1.1s-1.1-0.5-1.1-1.1s0.5-1.1,1.1-1.1l0,0C304.4,55.7,304.9,56.2,304.9,56.8z
			"/>
		<path class="st31" d="M304.5,56.8c0,0.4-0.3,0.7-0.7,0.7s-0.7-0.3-0.7-0.7s0.3-0.7,0.7-0.7l0,0C304.2,56.1,304.5,56.4,304.5,56.8
			C304.5,56.8,304.5,56.8,304.5,56.8z"/>
		<path class="st30" d="M304.2,56.8c0,0.3-0.2,0.5-0.5,0.5c-0.3,0-0.5-0.2-0.5-0.5c0-0.3,0.2-0.5,0.5-0.5c0,0,0,0,0,0
			C304,56.3,304.2,56.5,304.2,56.8C304.2,56.8,304.2,56.8,304.2,56.8z"/>
		<path class="st15" d="M308.5,78.4c-12.4,1.7-13,22.4,0.7,36c1.9,1.9,7.6,1.4,7.6,1.4l3.2-2.6C324.8,82.4,315.7,77.5,308.5,78.4z"
			/>
		<path class="st15" d="M350.7,127.1c1.2-0.9,2.6-1.6,3.9-2.2l-7.8-7.3c-0.4,0.6-2.6,1.5-3.6,2.4c-2.4,2.5-1.7,5.2-2.8,6.2l10.3,5.7
			C350.7,130.5,348.6,128.5,350.7,127.1z"/>
		<path class="st13" d="M356.9,135c-2,1-6.4,1.9-8.2-3.4c-2.6-7.7,0.3-12.7,6.7-18.7s14-13.5,15.6-14.4c1.6-0.9,7.7,2.4,6.9,5.5
			s-7,15.6-10.9,20.9S360.1,133.4,356.9,135z"/>
		<path class="st16" d="M375.1,94.9l-2.5,3.6c0.6,0.2,1.2,0.4,1.8,0.7l2.5-3.7C376.3,95.3,375.7,95.1,375.1,94.9z"/>
		<path class="st16" d="M373.8,94.5l-2.4,3.9c0.3-0.1,0.4-0.1,0.9,0.1l2.3-3.8C374.4,94.6,374.1,94.5,373.8,94.5z"/>
		<path class="st16" d="M377.4,101.8l3.1-3.9c-0.8-0.9-1.9-1.7-3-2.2l-2.6,3.7C375.9,100.1,376.8,100.9,377.4,101.8z"/>
		<path class="st13" d="M307.9,80.9c4.1-3.8,9.6-0.5,19.8,11.3c7.3,8.4,15.8,13.9,19.9,21.1c1.7,2.9,0.6,6.7-1.6,8.8
			c-3.9,4-2.7,7.1-3.8,7c-2.9-0.5-7.3-3.8-10.3-6.1C325.3,118,293.8,94,307.9,80.9z"/>
		
			<linearGradient id="SVGID_13_" gradientUnits="userSpaceOnUse" x1="-690.7012" y1="36.1495" x2="-711.7162" y2="11.1102" gradientTransform="matrix(-0.963 0.27 -0.27 -0.963 -301.033 332.596)">
			<stop  offset="0" style="stop-color:#F9F9F9"/>
			<stop  offset="1" style="stop-color:#CED6DD"/>
		</linearGradient>
		<path class="st32" d="M356.9,135c-2,1-6.4,1.9-8.2-3.4c-2.6-7.7,0.3-12.7,6.7-18.7s14-13.5,15.6-14.4c1.6-0.9,7.7,2.4,6.9,5.5
			s-7,15.6-10.9,20.9S360.1,133.4,356.9,135z"/>
		
			<linearGradient id="SVGID_14_" gradientUnits="userSpaceOnUse" x1="-672.6016" y1="56.9253" x2="-656.5048" y2="43.9597" gradientTransform="matrix(-0.963 0.27 -0.27 -0.963 -301.033 332.596)">
			<stop  offset="0" style="stop-color:#F9F9F9"/>
			<stop  offset="1" style="stop-color:#CED6DD"/>
		</linearGradient>
		<path class="st33" d="M307.9,80.9c4.1-3.8,9.6-0.5,19.8,11.3c7.3,8.4,15.8,13.9,19.9,21.1c1.7,2.9,0.6,6.7-1.6,8.8
			c-3.9,4-2.7,7.1-3.8,7c-2.9-0.5-7.3-3.8-10.3-6.1C325.3,118,293.8,94,307.9,80.9z"/>
		<path class="st13" d="M381.4,84.8c0,0,1.4-3.3,0.6-4.2c-1.2-1.3-2.9,0.5-3.5,1.3c-0.5,0.8-2.1,2.1-4.9,4.3s-2.9,0.4-3.5-0.3
			c-0.5-0.7-0.4-3.6-2.4-2.6c-2,1-1.5,2.5-1.3,3.4c0.2,0.9,0.3,2.9,0.9,4.9c0.4,1.5,1.9,3.2,2.9,4.3c1.4-0.8,4.4-2,6.4-0.4
			c2.2,1.5,3.9,3.6,5,6c0.3-0.6,0.6-1.1,1-1.6c1.9-2,2.1-6.5,2-8.5c-0.1-1.3-0.6-2.6-1.4-3.7c0-0.4-0.1-0.8-0.2-1.1
			C382.7,86,382.1,85.3,381.4,84.8z"/>
		
			<linearGradient id="SVGID_15_" gradientUnits="userSpaceOnUse" x1="190.0804" y1="-50.0858" x2="208.4014" y2="-50.0858" gradientTransform="matrix(0.888 -0.461 -0.461 -0.888 177.096 138.319)">
			<stop  offset="0" style="stop-color:#F9F9F9"/>
			<stop  offset="1" style="stop-color:#CED6DD"/>
		</linearGradient>
		<path class="st34" d="M381.2,85c0,0,1.8-3.8,0.7-4.5c-1.2-0.8-2.8,0.6-3.4,1.4c-0.5,0.8-2.1,2.1-4.9,4.3c-2.8,2.2-2.2,1.3-2.8,0.6
			s-1.4-4.4-3.4-3.5c-2,1-0.7,3.4-0.5,4.3c0.2,0.9-0.2,2,0.3,4c0.4,1.5,1.9,3.2,2.9,4.3c1.4-0.8,4.4-2,6.4-0.4
			c2.1,1.6,2.9,2.9,4.3,5.8c0.4-0.6,0.8-1.1,1.4-1.6c1.9-2,2.4-6.4,2.4-8.3c-0.1-1.3-0.6-2.6-1.4-3.7c0,0-0.2-0.8-0.4-1.6
			C382.7,85.5,381.2,85,381.2,85z"/>
		<path class="st6" d="M371.6,87.3c-0.1,1.9-0.7,4.8-3.2,6.6c0.2,0.3,0.4,0.5,0.6,0.8c1.4-0.5,4.2-2.4,4.1-8.1
			C372.7,87,372.2,87.2,371.6,87.3z"/>
		<path class="st6" d="M384.7,91.4c-0.9-0.9-1.6-1.9-2.2-3c-0.4-1.3-1.6-2.2-3-2.2c-0.9-0.9-2-1.6-3.3-1.9c-0.2,0.2-0.4,0.3-0.7,0.5
			c1.2,0.1,2.9,0.6,3.3,1.8c0,0,2.5,0.1,3.1,1.9c0.4,1.3,1.8,2.1,2.8,3.5c0-0.2,0-0.3,0-0.4C384.7,91.5,384.7,91.4,384.7,91.4z"/>
		
			<linearGradient id="SVGID_16_" gradientUnits="userSpaceOnUse" x1="312.9637" y1="192.0001" x2="325.8469" y2="192.0001" gradientTransform="matrix(1 0 0 -1 0 354)">
			<stop  offset="0" style="stop-color:#F9F9F9"/>
			<stop  offset="1" style="stop-color:#CED6DD"/>
		</linearGradient>
		<path class="st35" d="M313.1,164.6c0,0,7.7-3.4,11.5-2.4c0.5,0.2,1.1-0.1,1.3-0.7c0-0.1,0-0.2,0-0.3V161c0-0.9-0.7-1.6-1.6-1.6
			c-0.2,0-0.3,0-0.5,0.1L313,163L313.1,164.6z"/>
	</g>
</g>
<g>
	<g>
		<g>
			<g>
				<g>
					<g>
						<g>
							<g>
								<g class="st36">
									<g>
										<polygon class="st6" points="50.4,257.5 50.4,339 11,317.2 11,235.6 										"/>
									</g>
									<g>
										<polygon class="st37" points="125,246.8 50.4,257.5 11,235.6 85.5,225 										"/>
									</g>
									<g>
										<path class="st30" d="M125,246.8v59.9c0,12-9.2,22.9-20.1,24.5L50.4,339v-81.5L125,246.8z"/>
									</g>
								</g>
							</g>
						</g>
					</g>
				</g>
			</g>
		</g>
	</g>
	<g>
		<g class="st36">
			<path class="st37" d="M80,269.6c0.5-2.5,3.4-4.5,5.8-3.2c-0.5-0.2-2.2-1.3-2.7-1.4c-1.6-0.5-3.3,0.3-4.2,1.6
				c-1.5,1.8-1.5,5.1,0.7,6.3c0,0,2.1,1.1,2.1,1.1C80.2,273.3,79.4,271.3,80,269.6z"/>
			<g>
				
					<ellipse transform="matrix(0.4779 -0.8784 0.8784 0.4779 -193.6582 214.5728)" class="st13" cx="83.7" cy="270.2" rx="4.3" ry="3.7"/>
			</g>
		</g>
		<g class="st36">
			<path class="st37" d="M82.7,295.6c0.2-1.1,1.6-2.1,2.7-1.5c-0.3-0.1-2.2-1.3-2.5-1.3c-0.7-0.2-1.5,0.3-1.9,0.9
				c-0.5,0.7-0.6,2,0.1,2.6c0.2,0.2,2.2,1.2,2.4,1.4C82.8,297.3,82.4,296.4,82.7,295.6z"/>
			<g>
				<path class="st13" d="M84.4,293.9c1-0.1,1.8,0.6,1.8,1.7c0,1.1-0.8,2.1-1.8,2.2c-1,0.1-1.8-0.6-1.8-1.7
					C82.6,295.1,83.4,294.1,84.4,293.9z"/>
			</g>
		</g>
		<g class="st36">
			<path class="st37" d="M76.4,292.6c0.3-1.6,2.2-2.9,3.7-2.1c-0.4-0.2-2.2-1.3-2.6-1.3c-1.1-0.2-2.2,0.4-2.7,1.4
				c-0.8,1.1-0.6,3.1,0.7,3.7c0,0,2.1,1.1,2.1,1.1C76.5,295,76.1,293.7,76.4,292.6z"/>
			<g>
				<path class="st13" d="M78.8,290.3c1.4-0.2,2.5,0.8,2.5,2.3c0,1.5-1.1,2.8-2.5,3c-1.4,0.2-2.5-0.8-2.5-2.3
					C76.3,291.9,77.4,290.5,78.8,290.3z"/>
			</g>
		</g>
		<g class="st36">
			<path class="st6" d="M75.4,283.9c0.7-1.7,0.1-4.1-1.5-4.9c0,0-2.1-1.1-2.1-1.1c4.2,2.4,0.3,9.8-4.1,7.6c0,0,0,0,0,0l0,0
				c0,0,0,0,0,0c0.5,0.3,2.2,1.3,2.8,1.4C72.6,287.4,74.7,285.8,75.4,283.9z"/>
			<path class="st37" d="M74.1,275.4c0.5,0.1,1,0.3,1.5,0.5l0,0c0,0,0,0,0,0c-0.8-0.4-2.4-1.4-3.2-1.6c-2.7-0.8-5.6,0.5-7.3,2.5
				c-3,3.2-3,9.5,1,11.6c0,0,2.1,1.1,2.1,1.1C61.3,285.7,66.5,273.8,74.1,275.4z"/>
			<g>
				<path class="st13" d="M71.9,275.3c3.8-0.5,6.9,2.4,6.9,6.5c0,4.1-3.1,7.9-6.9,8.4c-3.8,0.5-6.9-2.4-6.9-6.5
					C65,279.7,68.1,275.9,71.9,275.3z M71.9,287c2.1-0.3,3.9-2.4,3.9-4.7c0-2.3-1.7-3.9-3.8-3.6c-2.1,0.3-3.9,2.4-3.9,4.7
					C68,285.6,69.7,287.3,71.9,287"/>
			</g>
		</g>
		<g class="st36">
			<path class="st37" d="M104.8,291c0.3-0.8,1.2-1.3,1.9-0.9c-0.2-0.1-2.2-1.3-2.4-1.2c-0.7-0.2-1.4,0.4-1.7,1
				c-0.3,0.6,0,1.4,0.5,1.7c0,0,2.1,1.1,2.1,1.1C104.7,292.5,104.5,291.6,104.8,291z"/>
			<g>
				<path class="st13" d="M106,290c0.7-0.1,1.3,0.5,1.3,1.2s-0.6,1.5-1.3,1.6c-0.7,0.1-1.3-0.5-1.3-1.3S105.3,290.1,106,290z"/>
			</g>
		</g>
		<g class="st36">
			<path class="st37" d="M93.7,309.1c0.3-1.3,1.8-2.4,3.1-1.7c-0.4-0.2-2.2-1.3-2.6-1.3c-0.8-0.2-1.7,0.3-2.2,1
				c-0.7,1-0.6,2.7,0.5,3.2c0,0,2.1,1.1,2.1,1.1C93.9,311,93.5,310,93.7,309.1z"/>
			<g>
				
					<ellipse transform="matrix(0.4779 -0.8784 0.8784 0.4779 -221.8058 245.6191)" class="st13" cx="95.7" cy="309.4" rx="2.3" ry="2"/>
			</g>
		</g>
		<g class="st36">
			<path class="st37" d="M91.3,304.2C91.3,304.2,91.3,304.2,91.3,304.2c-0.1-0.1-2.3-1.3-2.3-1.2c-0.6-0.1-1.2,0.2-1.5,0.6
				c-0.5,0.6-0.4,1.7,0.3,2.1c0,0,2.1,1.1,2.1,1.1c-0.5-0.3-0.8-1.1-0.5-1.7C89.6,304.4,90.5,303.8,91.3,304.2L91.3,304.2z"/>
			<g>
				<path class="st13" d="M90.5,304.1c0.7-0.1,1.3,0.5,1.3,1.2c0,0.8-0.6,1.5-1.3,1.6c-0.7,0.1-1.3-0.5-1.3-1.2
					C89.2,304.9,89.8,304.2,90.5,304.1z"/>
			</g>
		</g>
		<g class="st36">
			<path class="st6" d="M100,296.6c0.6-1.6,0.1-3.7-1.3-4.4c0,0-2.1-1.1-2.1-1.1c3.8,2.2,0.3,8.8-3.7,6.9c0.5,0.2,2.2,1.3,2.7,1.4
				C97.5,299.8,99.4,298.4,100,296.6z"/>
			<path class="st37" d="M98.8,289c0.5,0.1,0.9,0.3,1.3,0.5l0,0c0,0,0,0,0,0c-0.7-0.3-2.3-1.4-3.1-1.5c-2.3-0.7-4.9,0.3-6.4,2.1
				c-2.8,2.9-3,8.5,0.8,10.6c0,0,2.1,1.1,2.1,1.1C87.3,298.3,91.9,287.5,98.8,289z"/>
			<g>
				<path class="st13" d="M96.8,288.9c3.4-0.5,6.2,2.1,6.2,5.8c0,3.7-2.8,7.1-6.2,7.6c-3.4,0.5-6.2-2.1-6.2-5.9
					C90.6,292.8,93.4,289.4,96.8,288.9z M96.8,299.4c1.9-0.3,3.5-2.2,3.5-4.2s-1.5-3.5-3.5-3.3c-1.9,0.3-3.5,2.2-3.5,4.2
					S94.9,299.7,96.8,299.4"/>
			</g>
		</g>
		<g class="st36">
			<path class="st37" d="M102.3,282.7c0.4-2.1,2.9-3.9,4.9-2.8c-0.5-0.2-2.2-1.3-2.7-1.4c-1.4-0.4-2.9,0.4-3.7,1.6
				c-1.2,1.5-1,4.3,0.8,5.2c0,0,2.1,1.1,2.1,1.1C102.5,285.9,101.8,284.2,102.3,282.7z"/>
			<g>
				<path class="st13" d="M105.5,279.7c1.8-0.3,3.3,1.1,3.3,3.1c0,2-1.5,3.8-3.3,4c-1.8,0.3-3.3-1.1-3.3-3.1
					S103.6,279.9,105.5,279.7z"/>
			</g>
		</g>
		<g class="st36">
			<path class="st37" d="M105.4,273.9C105.4,273.9,105.4,273.9,105.4,273.9c-0.1-0.1-2.3-1.3-2.3-1.2c-0.6-0.1-1.2,0.2-1.5,0.6
				c-0.5,0.6-0.4,1.7,0.3,2.1c0,0,2.1,1.1,2.1,1.1C102.6,275.7,103.9,273.1,105.4,273.9L105.4,273.9z"/>
			<g>
				<path class="st13" d="M104.7,273.8c0.7-0.1,1.3,0.5,1.3,1.3s-0.6,1.5-1.3,1.6c-0.7,0.1-1.3-0.5-1.3-1.2S104,273.9,104.7,273.8z"
					/>
			</g>
		</g>
		<g class="st36">
			<path class="st6" d="M98.9,272.8c0.5-1.2,0.1-2.9-1.1-3.4c0,0-2.1-1.1-2.1-1.1c3,1.7,0.2,6.9-2.9,5.4c0.5,0.2,2.2,1.3,2.7,1.4
				C97,275.2,98.4,274.1,98.9,272.8z"/>
			<path class="st37" d="M98.2,265.9c0.4,0.1,0.8,0.3,1.2,0.5l0,0c0,0,0,0,0,0c-0.7-0.3-2.3-1.3-3-1.5c-2.5-0.8-5.2,0.7-6.6,2.7
				c-2.1,2.7-1.8,7.5,1.3,9.1c0,0,2.1,1.1,2.1,1.1C87.6,274.5,91.9,264.5,98.2,265.9z"/>
			<g>
				<path class="st13" d="M96.4,265.8c3.2-0.4,5.8,2,5.8,5.4c0,3.4-2.6,6.6-5.8,7c-3.2,0.4-5.8-2-5.8-5.4
					C90.6,269.4,93.2,266.2,96.4,265.8z M96.4,275c1.5-0.2,2.7-1.7,2.7-3.3c0-1.6-1.2-2.8-2.7-2.5c-1.5,0.2-2.7,1.7-2.7,3.3
					C93.7,274,94.9,275.2,96.4,275"/>
			</g>
		</g>
		<g class="st36">
			<path class="st37" d="M84.6,277.7c0.3-0.9,1.3-1.5,2.2-1.1c-0.2-0.1-2.2-1.3-2.4-1.2c-0.6-0.2-1.3,0.2-1.6,0.7
				c-0.5,0.7-0.5,1.9,0.3,2.4c0,0,2.1,1.1,2.1,1.1C84.5,279.3,84.3,278.3,84.6,277.7z"/>
			<g>
				
					<ellipse transform="matrix(0.4779 -0.8784 0.8784 0.4779 -199.4042 220.7165)" class="st13" cx="86" cy="278.1" rx="1.7" ry="1.4"/>
			</g>
		</g>
		<g class="st36">
			<path class="st37" d="M81.7,286.1c0.2-0.6,0.9-1,1.5-0.7c-0.1,0-2.3-1.3-2.3-1.2c-0.5-0.1-1.1,0.3-1.3,0.8
				c-0.2,0.5-0.1,1,0.4,1.3l2.1,1.1C81.7,287.2,81.5,286.6,81.7,286.1z"/>
			<g>
				<path class="st13" d="M82.6,285.4c0.6-0.1,1,0.4,1,1c0,0.6-0.4,1.1-1,1.2c-0.6,0.1-1-0.3-1-0.9C81.6,286,82.1,285.4,82.6,285.4z
					"/>
			</g>
		</g>
		<g class="st36">
			<path class="st37" d="M86.8,285.5c0.4-1.7,2.4-3.2,4.1-2.3c-0.4-0.2-2.2-1.3-2.6-1.3c-1.2-0.3-2.4,0.3-3,1.3
				c-1,1.3-0.8,3.6,0.6,4.3c0,0,2.1,1.1,2.1,1.1C87,288.1,86.4,286.7,86.8,285.5z"/>
			<g>
				<path class="st13" d="M89.4,283c1.5-0.2,2.7,0.9,2.7,2.5c0,1.6-1.2,3.1-2.7,3.3c-1.5,0.2-2.7-0.9-2.7-2.6
					C86.7,284.7,87.9,283.2,89.4,283z"/>
			</g>
		</g>
		<g class="st36">
			<path class="st37" d="M77.4,270.8C77.4,270.8,77.4,270.8,77.4,270.8l-2.1-1.1c0,0,0,0,0,0c-0.1,0-0.1,0-0.2-0.1c0,0,0,0,0,0
				c-0.1,0-0.2,0-0.3,0c-0.1,0-0.2,0-0.3,0.1c0,0-0.1,0-0.1,0c0,0,0,0,0,0c0,0,0,0-0.1,0c0,0-0.1,0.1-0.1,0.1c0,0-0.1,0.1-0.1,0.1
				c0,0,0,0,0,0c0,0,0,0,0,0c0,0,0,0.1-0.1,0.1c0,0-0.1,0.1-0.1,0.1c0,0.1-0.1,0.1-0.1,0.2c0,0,0,0,0,0c0,0,0,0,0,0
				c-0.1,0.1-0.1,0.3-0.1,0.5c0,0.2,0.1,0.4,0.1,0.6c0.1,0.2,0.2,0.3,0.4,0.4l2.1,1.1c-0.3-0.2-0.5-0.5-0.5-0.9c0-0.2,0-0.3,0.1-0.5
				c0,0,0,0,0,0c0.1-0.1,0.1-0.3,0.2-0.4c0,0,0,0,0,0c0.1-0.1,0.2-0.2,0.3-0.3c0,0,0,0,0,0c0.1-0.1,0.3-0.1,0.4-0.1
				c0.1,0,0.2,0,0.3,0C77.3,270.7,77.4,270.7,77.4,270.8L77.4,270.8z"/>
			<g>
				<path class="st13" d="M76.8,270.7c0.6-0.1,1.1,0.4,1.1,1c0,0.7-0.5,1.3-1.1,1.3c-0.6,0.1-1.1-0.4-1.1-1
					C75.7,271.4,76.2,270.8,76.8,270.7z"/>
			</g>
		</g>
		<g class="st36">
			<path class="st37" d="M96.1,283c0.3-0.7,1.2-1.3,1.9-0.9c-0.1-0.1-2.3-1.3-2.3-1.2c-0.7-0.2-1.4,0.3-1.7,1
				c-0.2,0.6-0.1,1.4,0.5,1.7l2.1,1.1C96.1,284.4,95.9,283.6,96.1,283z"/>
			<g>
				
					<ellipse transform="matrix(0.4779 -0.8784 0.8784 0.4779 -198.1025 233.465)" class="st13" cx="97.3" cy="283.4" rx="1.5" ry="1.3"/>
			</g>
		</g>
		<g class="st36">
			<path class="st37" d="M88.2,299.9C88.2,299.9,88.2,299.9,88.2,299.9c-0.1-0.1-2.3-1.3-2.3-1.2c-0.7-0.2-1.4,0.4-1.7,1
				c0,0,0,0,0,0c-0.2,0.6-0.1,1.4,0.5,1.7c0,0,2.1,1.1,2.1,1.1C85.3,301.8,86.7,299.2,88.2,299.9L88.2,299.9z"/>
			<g>
				<path class="st13" d="M87.5,299.8c0.7-0.1,1.3,0.5,1.3,1.3c0,0.8-0.6,1.5-1.3,1.6c-0.7,0.1-1.3-0.5-1.3-1.2
					C86.1,300.6,86.7,299.9,87.5,299.8z"/>
			</g>
		</g>
	</g>
	<g>
		<g class="st36">
			<path class="st30" d="M22.4,296.5c-2.7-0.7-2.9-4.3-3-6.7c0.1-1.7,0-4.4,1.8-5.1l-3.5,0.8c-0.3,0.1-0.6,0.3-0.8,0.6
				c-1.5,2.4-1.4,9.3,1.2,10.9c0.4,0.2,0.8,0.4,1.2,0.3l3.5-0.8C22.7,296.6,22.5,296.6,22.4,296.5z"/>
			<g class="st36">
				<defs>
					<path id="SVGID_17_" class="st36" d="M22.4,300.9l-3.5,0.8c0.8-0.2,1.5-0.8,2.1-1.9l3.5-0.8C23.9,300,23.2,300.7,22.4,300.9z"
						/>
				</defs>
				<clipPath id="SVGID_18_">
					<use xlink:href="#SVGID_17_"  style="overflow:visible;"/>
				</clipPath>
				<g class="st38">
					<polyline class="st39" points="21,299.7 24.4,298.9 24.4,298.9 21,299.7 21,299.7 					"/>
					<path class="st30" d="M21,299.7c-0.1,0.1-0.1,0.3-0.2,0.4c-0.1,0.2-0.2,0.3-0.3,0.4c-0.4,0.6-1,1-1.5,1.1l3.5-0.8
						c0.6-0.1,1.1-0.5,1.5-1.1c0.1-0.1,0.2-0.3,0.3-0.4c0.1-0.1,0.2-0.3,0.2-0.4L21,299.7z"/>
				</g>
			</g>
			<path class="st37" d="M18.8,281.1c1.1,0.8,1.8,2.1,2.2,3.5l3.5-0.8c-0.6-2.3-2.3-4.4-4.7-4.4c-0.3,0-3.6,0.8-4,0.9
				C16.8,280.1,17.9,280.5,18.8,281.1z"/>
			<g>
				<polygon class="st30" points="24.8,274.2 28.2,273.4 28.2,303.2 24.7,304 				"/>
			</g>
			<g>
				<polygon class="st37" points="21.1,272.7 24.5,271.9 28.2,273.4 24.8,274.2 				"/>
			</g>
			<g>
				<path class="st13" d="M21.1,272.7l3.7,1.5L24.7,304l-3.7-1.5l0-2.8c-0.9,1.8-2.2,2.4-3.8,1.7c-1.5-0.6-2.7-2-3.6-4.1
					c-0.9-2.1-1.4-4.8-1.4-8c0-3.3,0.5-5.8,1.6-7.4c1-1.6,2.4-2.1,4-1.4c1.6,0.6,2.6,2,3.3,4.1L21.1,272.7z M21.1,292.7l0-1.5
					c0-1.3-0.2-2.5-0.7-3.5c-0.5-1-1-1.7-1.8-2c-0.8-0.3-1.5-0.1-1.9,0.8c-0.5,0.9-0.7,2.3-0.7,4.2c0,1.8,0.2,3.2,0.7,4.4
					c0.4,1.1,1.1,1.9,1.9,2.2c0.8,0.3,1.4,0.1,1.9-0.8C20.8,295.6,21.1,294.4,21.1,292.7"/>
			</g>
		</g>
		<g class="st36">
			<g>
				<polygon class="st30" points="33.4,295.9 36.9,295.1 36.8,301.5 33.4,302.3 				"/>
			</g>
			<g>
				<polygon class="st30" points="33.4,284.5 36.9,283.7 36.9,290 33.4,290.7 				"/>
			</g>
			<g>
				<polygon class="st37" points="33.4,302.3 36.8,301.5 43.2,304.1 39.7,304.9 				"/>
			</g>
			<g>
				<polygon class="st30" points="39.7,304.9 43.2,304.1 43.2,309.3 39.7,310 				"/>
			</g>
			<g>
				<polygon class="st37" points="33.4,290.7 36.9,290 42.4,292.2 39,293 				"/>
			</g>
			<g>
				<polygon class="st30" points="39,293 42.4,292.2 42.4,297.3 39,298.1 				"/>
			</g>
			<g>
				<polygon class="st13" points="39.4,281.7 39.4,286.9 33.4,284.5 33.4,290.7 39,293 39,298.1 33.4,295.9 33.4,302.3 39.7,304.9 
					39.7,310 29.5,305.9 29.6,277.8 				"/>
			</g>
			<g>
				<polygon class="st30" points="39.4,281.7 42.9,280.9 42.9,286.1 39.4,286.9 				"/>
			</g>
			<g>
				<polygon class="st37" points="29.6,277.8 33.1,277 42.9,280.9 39.4,281.7 				"/>
			</g>
		</g>
	</g>
</g>
</svg>
