<svg xmlns="http://www.w3.org/2000/svg" xmlns:xlink="http://www.w3.org/1999/xlink" viewBox="0 0 150 150"><defs><style>.cls-1{fill:#d9e1e8;}.cls-2{fill:#e95653;}.cls-3{fill:#ff8282;}.cls-4{fill:#ced6dd;}.cls-5{clip-path:url(#clip-path);}.cls-6,.cls-7{fill:#fff;}.cls-6{opacity:0.2;}.cls-8{fill:#788287;}.cls-9{fill:#f7e196;}.cls-10{fill:none;}</style><clipPath id="clip-path"><path class="cls-1" d="M110.112,31.026c-1.573-4.631-3.685-12.919-1.09-18.535,2.095-4.533-14.133,9.782-17.3,12.6a55.911,55.911,0,1,0,18.393,5.932Z"/></clipPath></defs><title>Sparschwein-grau</title><g id="Layer_2" data-name="Layer 2"><g id="Layer_1-2" data-name="Layer 1"><path class="cls-2" d="M2.812,45.67c2.7,1.727,5.606,3.522,8.761,3.812A3.411,3.411,0,0,0,13.716,49a2.018,2.018,0,0,0,.871-1.779c0-.324-.211-.677-.251-.634a3.43,3.43,0,0,0-1.07-.028,2.713,2.713,0,0,0-1.779,1.049,6.223,6.223,0,0,0-1.052,4.305,9.366,9.366,0,0,0,1.46,4.344,8.593,8.593,0,0,0,7.685,4.071,10.952,10.952,0,0,0,4.361-1.306A6.564,6.564,0,0,0,27,56.145c.128-.51.006-.679-.586-.981a6.679,6.679,0,0,0-2.073-.579,2.251,2.251,0,0,0-2.6,2.1,10.779,10.779,0,0,0,2.847,8.4,5.645,5.645,0,0,0,3.986,1.927,6.9,6.9,0,0,0,4.324-1.69l.1.117A7.311,7.311,0,0,1,28.6,67.679a6.354,6.354,0,0,1-4.717-1.859,11.357,11.357,0,0,1-2.832-4.239,10.213,10.213,0,0,1-.758-5.146,4.167,4.167,0,0,1,1.317-2.6,3.871,3.871,0,0,1,2.851-.831,8.225,8.225,0,0,1,2.618.691,2.68,2.68,0,0,1,1.283,1.111,2.249,2.249,0,0,1,.134,1.8c-.817,1.982-2.379,2.876-3.878,3.7a12.33,12.33,0,0,1-4.963,1.333,9.86,9.86,0,0,1-8.684-4.814,10.426,10.426,0,0,1-1.52-4.86,7.125,7.125,0,0,1,1.358-4.936,3.582,3.582,0,0,1,2.353-1.31,4.211,4.211,0,0,1,1.357.067,1.377,1.377,0,0,1,.838,1.386,2.739,2.739,0,0,1-1.27,2.372,4.023,4.023,0,0,1-2.549.488c-3.381-.469-6.154-2.406-8.81-4.248Z"/><path class="cls-3" d="M142.869,67.592H138.3a55.856,55.856,0,0,1,.242,25.736h4.33a4.407,4.407,0,0,0,4.407-4.407V72A4.408,4.408,0,0,0,142.869,67.592Z"/><path class="cls-4" d="M42.9,118.933a7.279,7.279,0,0,0-1.644,2.109l-3.483,6.82a7.345,7.345,0,0,0,3.2,9.882l7.822,4a7.345,7.345,0,0,0,9.882-3.2l3.157-6.182A56.059,56.059,0,0,1,42.9,118.933Z"/><path class="cls-4" d="M105.625,139.652a7.346,7.346,0,0,0,10.189,2.023l6.365-4.257a7.346,7.346,0,0,0,2.023-10.189l-3-4.493a55.856,55.856,0,0,1-19.356,11.258Z"/><path class="cls-1" d="M110.112,31.026c-1.573-4.631-3.685-12.919-1.09-18.535,2.095-4.533-14.133,9.782-17.3,12.6a55.911,55.911,0,1,0,18.393,5.932Z"/><g class="cls-5"><path class="cls-6" d="M40.32,122.141,31.9,105.221c-11.039-6.068-7.351-38.263-.133-52.749h0c21.691-29.407,41.222-29.052,57.2-32.6L110.277,9.216Z"/></g><path class="cls-7" d="M47.432,54.011a2.18,2.18,0,0,1-1.176-.343,2.208,2.208,0,0,1-.682-3.042c8.7-13.768,18.478-18.56,37.805-18.456a2.206,2.206,0,0,1-.016,4.411c-.3,0-.55,0-.82,0-17.088,0-25.536,4.2-33.248,16.406A2.2,2.2,0,0,1,47.432,54.011Z"/><circle class="cls-7" cx="110.018" cy="66.731" r="9.355"/><circle class="cls-8" cx="107.556" cy="64.86" r="6.697"/><circle class="cls-9" cx="44.415" cy="18.16" r="11.075"/><path class="cls-7" d="M50.313,17.709a.425.425,0,0,1-.071-.006.56.56,0,0,1-.485-.628,3.419,3.419,0,0,0-1.616-2.988,10.34,10.34,0,0,0-4.974-1.917.56.56,0,1,1,.142-1.111A11.437,11.437,0,0,1,48.83,13.2a4.468,4.468,0,0,1,2.039,4.016A.562.562,0,0,1,50.313,17.709Z"/><rect class="cls-10" width="150" height="150"/></g></g></svg>