<svg xmlns="http://www.w3.org/2000/svg" viewBox="0 0 75 75"><defs><style>.cls-1{isolation:isolate;}.cls-2{fill:#e95653;}.cls-3{fill:#b0565f;}.cls-4{fill:none;}.cls-5{opacity:0.15;mix-blend-mode:multiply;}.cls-6{fill:#fff;}.cls-7{fill:#fce8e8;}</style></defs><title>dG-24h</title><g class="cls-1"><g id="Layer_2" data-name="Layer 2"><g id="Layer_1-2" data-name="Layer 1"><circle class="cls-2" cx="37.5" cy="37.5" r="37.5"/><path class="cls-3" d="M45.438,16.662a.53.53,0,0,1,.08.15C45.558,16.832,45.548,16.792,45.438,16.662Z"/><path class="cls-4" d="M11.173,47.811A28.23,28.23,0,0,1,45.24,10.536a28.321,28.321,0,0,1,10.246,5.413c.374.31,1.6,1.8,2.01,1.815.151,0,.634-.573.743-.672l1.92-1.737c.018.193.157.376.173.57l.221-.2c.018.193.156.376.174.57l.22-.2c.018.193.156.376.174.57l.22-.2c.018.193.156.376.174.569l.22-.2c.018.193.156.376.174.569l.22-.2c.018.193.156.376.174.569l.221-.2c.017.193.155.376.173.569l.22-.2c.018.194.156.377.174.57l.221-.2c.017.194.155.376.173.57l.221-.2c.017.194.155.376.173.57l.221-.2c.017.194.155.376.173.57l.221-.2c.017.194.155.376.173.57l.221-.2c.018.194.155.376.173.57l.221-.2c.018.193.155.376.173.57l.221-.2c.018.193.155.376.173.569l.221-.2c.018.193.155.376.173.569l.221-.2c.018.193.155.376.173.569l.221-.2c.018.193.155.376.173.569l.221-.2c.018.194.155.377.173.57l.221-.2c.018.194.155.376.173.57l.221-.2c.018.194.156.376.173.57l.221-.2c.018.194.156.376.173.57l.221-.2c.018.194.156.376.173.57l.221-.2c.018.194.156.376.173.57l.221-.2c.018.193.156.376.173.57l.221-.2c.018.193.156.376.173.569l.221-.2c.018.193.156.376.173.569l.221-.2c.018.193.156.376.173.569l.221-.2c.018.193.156.376.174.569l.22-.2c.018.194.156.377.174.57l.22-.2c.018.194.156.377.174.57l.22-.2c.018.194.156.376.174.57l.22-.2c.018.194.156.376.174.57l.22-.2c.018.194.156.376.174.57l.22-.2c.018.194.156.376.174.57l.145-.132A37.5,37.5,0,1,0,36.018,74.963l-7.549-7.087C22.072,61.87,14.433,56.245,11.173,47.811Z"/><path class="cls-5" d="M75,37.5a37.534,37.534,0,0,0-1.125-9.13l-.145.132c-.018-.194-.156-.376-.174-.57l-.22.2c-.018-.194-.156-.376-.174-.57l-.22.2c-.018-.194-.156-.376-.174-.57l-.22.2c-.018-.194-.156-.376-.174-.57l-.22.2c-.018-.193-.156-.376-.174-.57l-.22.2c-.018-.193-.156-.376-.174-.57l-.22.2c-.018-.193-.156-.376-.174-.569l-.221.2c-.017-.193-.155-.376-.173-.569l-.221.2c-.017-.193-.155-.376-.173-.569l-.221.2c-.017-.193-.155-.376-.173-.569l-.221.2c-.017-.194-.155-.377-.173-.57l-.221.2c-.017-.194-.155-.376-.173-.57l-.221.2c-.017-.194-.155-.376-.173-.57l-.221.2c-.017-.194-.155-.376-.173-.57l-.221.2c-.017-.194-.155-.376-.173-.57l-.221.2c-.018-.194-.155-.376-.173-.57l-.221.2c-.018-.193-.155-.376-.173-.57l-.221.2c-.018-.193-.155-.376-.173-.569l-.221.2c-.018-.193-.155-.376-.173-.569l-.221.2c-.018-.193-.155-.376-.173-.569l-.221.2c-.018-.193-.155-.376-.173-.569l-.221.2c-.018-.194-.155-.377-.173-.57l-.221.2c-.018-.194-.155-.376-.173-.57l-.221.2c-.018-.194-.156-.376-.173-.57l-.221.2c-.018-.194-.156-.376-.173-.57l-.221.2c-.018-.194-.156-.376-.173-.57l-.221.2c-.018-.194-.156-.376-.173-.57l-.221.2c-.018-.193-.156-.376-.174-.57l-.22.2c-.018-.193-.156-.376-.173-.569l-.221.2c-.018-.193-.156-.376-.174-.569l-.22.2c-.018-.193-.156-.376-.174-.569l-.22.2c-.018-.193-.156-.376-.174-.569l-.22.2c-.018-.194-.156-.377-.174-.57l-.22.2c-.018-.194-.156-.377-.174-.57l-.221.2c-.016-.194-.155-.377-.173-.57l-1.92,1.737c-.109.1-.592.677-.743.672-.411-.013-1.636-1.5-2.01-1.815a28.106,28.106,0,0,0-30.2-3.694A28.491,28.491,0,0,0,11.173,47.811c3.26,8.434,10.9,14.059,17.3,20.065l7.549,7.087c.493.019.985.037,1.482.037A37.5,37.5,0,0,0,75,37.5ZM45.518,16.812a.53.53,0,0,0-.08-.15C45.548,16.792,45.558,16.832,45.518,16.812Z"/><path class="cls-3" d="M45.438,16.662a.53.53,0,0,1,.08.15C45.558,16.832,45.548,16.792,45.438,16.662Z"/><path class="cls-6" d="M32.216,43.3H24.132v-1a3.735,3.735,0,0,1,.171-1.145,4.624,4.624,0,0,1,.458-1.006,5.594,5.594,0,0,1,.674-.889q.386-.419.826-.809t.9-.754q.459-.364.9-.732.414-.351.755-.687a4.628,4.628,0,0,0,.584-.7,3.2,3.2,0,0,0,.377-.759,2.7,2.7,0,0,0,.135-.867,2.356,2.356,0,0,0-.157-.894,1.745,1.745,0,0,0-.441-.638,1.88,1.88,0,0,0-.669-.386,2.621,2.621,0,0,0-.844-.13,3.9,3.9,0,0,0-1.608.368,5.513,5.513,0,0,0-1.572,1.105v-2a6.568,6.568,0,0,1,.8-.517,5.531,5.531,0,0,1,.835-.368,5.136,5.136,0,0,1,.907-.22,6.8,6.8,0,0,1,1.015-.072,5.15,5.15,0,0,1,1.581.229,3.385,3.385,0,0,1,1.213.674,2.965,2.965,0,0,1,.777,1.109,3.992,3.992,0,0,1,.274,1.527,4.741,4.741,0,0,1-.194,1.406,4.536,4.536,0,0,1-.547,1.163,6.072,6.072,0,0,1-.858,1.024q-.5.486-1.123,1-.521.423-1.037.822t-.93.782a4.275,4.275,0,0,0-.669.763,1.364,1.364,0,0,0-.256.768v.045h5.811Z"/><path class="cls-6" d="M41.782,30.419v8.317H43.7V40.47H41.782V43.3H39.761V40.47H33.932V38.718q.791-.888,1.621-1.926t1.6-2.12q.768-1.083,1.424-2.169a19.743,19.743,0,0,0,1.1-2.084Zm-2.021,8.317V33.329A29.79,29.79,0,0,1,37.826,36.4q-.957,1.311-1.792,2.335Z"/><path class="cls-6" d="M53.594,43.3H51.51v-5.03q0-2.73-1.823-2.73a1.906,1.906,0,0,0-1.545.79,3.148,3.148,0,0,0-.629,2.021V43.3H45.42V29.682h2.093v5.947h.036a3.289,3.289,0,0,1,2.982-1.743q3.063,0,3.063,3.746Z"/><path class="cls-7" d="M54.667,59.909A28.207,28.207,0,1,1,58.5,18.6l-5.5,4.961a20.806,20.806,0,1,0,5.173,16.694,29.062,29.062,0,0,0-1.716-12.448l8.119,2.724a27.912,27.912,0,0,1,.944,10.706A28.13,28.13,0,0,1,54.667,59.909Z"/><polygon class="cls-7" points="64.407 29.072 49.987 24.407 60.183 15.184 64.407 29.072"/></g></g></g></svg>