<svg xmlns="http://www.w3.org/2000/svg" viewBox="0 0 75 75"><defs><style>.cls-1{isolation:isolate;}.cls-2{fill:#e95653;}.cls-3{fill:#b0565f;}.cls-4{fill:none;}.cls-5{opacity:0.15;mix-blend-mode:multiply;}.cls-6{fill:#fff;}.cls-7{fill:#f08e8c;}.cls-8{fill:#fce8e8;}</style></defs><title>dG-digital</title><g class="cls-1"><g id="Layer_2" data-name="Layer 2"><g id="Layer_1-2" data-name="Layer 1"><circle class="cls-2" cx="37.5" cy="37.5" r="37.5"/><path class="cls-3" d="M45.438,16.662a.53.53,0,0,1,.08.15C45.558,16.832,45.548,16.792,45.438,16.662Z"/><path class="cls-4" d="M34.638,69.54q-3.367-2.31-6.739-4.616Q21.163,60.3,14.42,55.692c-1.083-.743-2.732-1.287-2.893-2.776a14.026,14.026,0,0,1,0-1.45V45.273c0-1.353-.412-3.588,1.352-4.007a11.656,11.656,0,0,1,2.554-.035c.324,0,1.728.2,1.943,0,.185-.177,0-1.546,0-1.793V36.505c0-.582-.288-2.1,0-2.612.177-.316-.063-.067.356-.2a6.467,6.467,0,0,1,1.668,0H33.7c1.278,0,1.418-.377,2.387-1.346A9.134,9.134,0,0,1,34.2,31.094a22.745,22.745,0,0,0-1.968-1.349c-.708-.432-1.409-.981-2.084-1.469-.579-.419-1.407-.724-1.73-1.412a4.9,4.9,0,0,1-.158-1.973V17.715c0-1.543-.075-3.15,1.939-3.256,1.733-.091,3.5,0,5.231,0h7.611a16.753,16.753,0,0,1,4,.047,7.267,7.267,0,0,1,2.1,1.321,22.961,22.961,0,0,0,1.968,1.348,47.576,47.576,0,0,1,3.928,2.691A93.645,93.645,0,0,0,62.9,25.253c2.723,1.665,5.393,3.635,7.981,5.508,1.278.925,2.585,1.811,3.9,2.688A37.5,37.5,0,1,0,37.5,75a37.88,37.88,0,0,0,4.6-.29c-.161-.1-.319-.207-.481-.306C39.212,72.933,36.965,71.136,34.638,69.54Z"/><path class="cls-5" d="M75,37.5a37.9,37.9,0,0,0-.221-4.051c-1.314-.877-2.621-1.763-3.9-2.688-2.588-1.873-5.258-3.843-7.981-5.508a93.645,93.645,0,0,1-7.865-5.387,47.576,47.576,0,0,0-3.928-2.691,22.961,22.961,0,0,1-1.968-1.348,7.267,7.267,0,0,0-2.1-1.321,16.753,16.753,0,0,0-4-.047H35.431c-1.735,0-3.5-.091-5.231,0-2.014.106-1.939,1.713-1.939,3.256v7.176a4.9,4.9,0,0,0,.158,1.973c.323.688,1.151.993,1.73,1.412.675.488,1.376,1.037,2.084,1.469A22.745,22.745,0,0,1,34.2,31.094a9.134,9.134,0,0,0,1.885,1.251c-.969.969-1.109,1.346-2.387,1.346H19.4a6.467,6.467,0,0,0-1.668,0c-.419.135-.179-.114-.356.2-.288.513,0,2.03,0,2.612v2.933c0,.247.185,1.616,0,1.793-.215.2-1.619,0-1.943,0a11.656,11.656,0,0,0-2.554.035c-1.764.419-1.352,2.654-1.352,4.007v6.193a14.026,14.026,0,0,0,0,1.45c.161,1.489,1.81,2.033,2.893,2.776q6.737,4.622,13.479,9.232,3.367,2.31,6.739,4.616c2.327,1.6,4.574,3.393,6.977,4.864.162.1.32.2.481.306A37.5,37.5,0,0,0,75,37.5ZM45.518,16.812a.53.53,0,0,0-.08-.15C45.548,16.792,45.558,16.832,45.518,16.812Z"/><path class="cls-3" d="M45.518,16.812c.04.02.03-.02-.08-.15A.53.53,0,0,1,45.518,16.812Z"/><path class="cls-4" d="M45.518,16.812a.53.53,0,0,0-.08-.15C45.548,16.792,45.558,16.832,45.518,16.812Z"/><path class="cls-3" d="M45.438,16.662a.53.53,0,0,1,.08.15C45.558,16.832,45.548,16.792,45.438,16.662Z"/><polygon class="cls-6" points="58.915 41.22 57.225 41.22 57.225 35.372 41.204 35.372 41.204 33.68 58.915 33.68 58.915 41.22"/><polygon class="cls-6" points="18.756 41.22 17.067 41.22 17.067 33.68 34.777 33.68 34.777 35.372 18.756 35.372 18.756 41.22"/><path class="cls-6" d="M37.991,38.936l-4.409-4.408,4.409-4.409L42.4,34.528Zm-2.016-4.408,2.016,2.016,2.018-2.016L37.991,32.51Z"/><rect class="cls-6" x="37.145" y="37.739" width="1.692" height="3.481"/><rect class="cls-6" x="37.145" y="27.834" width="1.692" height="3.479"/><path class="cls-6" d="M29.643,14.448h16.7a1.689,1.689,0,0,1,1.689,1.689V26.142a1.692,1.692,0,0,1-1.692,1.692h-16.7a1.69,1.69,0,0,1-1.69-1.69V16.139A1.692,1.692,0,0,1,29.643,14.448Z"/><path class="cls-6" d="M32.99,41.22H43a1.689,1.689,0,0,1,1.689,1.689V52.914a1.692,1.692,0,0,1-1.692,1.692h-10A1.692,1.692,0,0,1,31.3,52.914v-10A1.692,1.692,0,0,1,32.99,41.22Z"/><path class="cls-6" d="M12.91,41.22h10A1.692,1.692,0,0,1,24.6,42.912v10a1.692,1.692,0,0,1-1.692,1.692H12.908a1.69,1.69,0,0,1-1.69-1.69V42.912A1.692,1.692,0,0,1,12.91,41.22Z"/><rect class="cls-6" x="51.377" y="41.22" width="13.386" height="13.386" rx="1.692"/><path class="cls-7" d="M17.958,48.934a2.886,2.886,0,0,0-2.737,3.021h5.49A2.9,2.9,0,0,0,17.958,48.934Z"/><path class="cls-7" d="M19.613,46.771a1.647,1.647,0,1,1-1.656-1.647A1.649,1.649,0,0,1,19.613,46.771Z"/><path class="cls-7" d="M38.074,48.934a2.885,2.885,0,0,0-2.736,3.021h5.489A2.9,2.9,0,0,0,38.074,48.934Z"/><path class="cls-7" d="M39.729,46.771a1.647,1.647,0,1,1-1.656-1.647A1.649,1.649,0,0,1,39.729,46.771Z"/><path class="cls-7" d="M58.076,48.934a2.886,2.886,0,0,0-2.737,3.021h5.49A2.9,2.9,0,0,0,58.076,48.934Z"/><path class="cls-7" d="M59.731,46.771a1.647,1.647,0,1,1-1.656-1.647A1.649,1.649,0,0,1,59.731,46.771Z"/><rect class="cls-8" x="37.636" y="17.452" width="0.309" height="1.117"/><path class="cls-8" d="M37.791,17.607a.483.483,0,1,1,.482-.482A.482.482,0,0,1,37.791,17.607Zm0-.656a.174.174,0,1,0,.173.174A.174.174,0,0,0,37.791,16.951Z"/><rect class="cls-8" x="34.414" y="19.577" width="1.117" height="0.309"/><path class="cls-8" d="M34.568,19.732a.482.482,0,1,1-.481-.482A.482.482,0,0,1,34.568,19.732Zm-.655,0a.174.174,0,1,0,.174-.173A.175.175,0,0,0,33.913,19.732Z"/><rect class="cls-8" x="36.069" y="16.884" width="0.309" height="1.747"/><path class="cls-8" d="M36.223,17.038a.482.482,0,1,1,.483-.482A.483.483,0,0,1,36.223,17.038Zm0-.656a.174.174,0,1,0,.174.174A.174.174,0,0,0,36.223,16.382Z"/><rect class="cls-8" x="33.845" y="21.383" width="1.747" height="0.309"/><path class="cls-8" d="M34,21.538a.482.482,0,1,1-.482-.482A.482.482,0,0,1,34,21.538Zm-.656,0a.174.174,0,1,0,.174-.173A.174.174,0,0,0,33.343,21.538Z"/><rect class="cls-8" x="39.946" y="21.467" width="1.117" height="0.309"/><path class="cls-8" d="M40.909,21.622a.483.483,0,1,0,.482-.483A.482.482,0,0,0,40.909,21.622Zm.656,0a.174.174,0,1,1-.174-.174A.174.174,0,0,1,41.565,21.622Z"/><rect class="cls-8" x="39.865" y="19.92" width="1.747" height="0.309"/><path class="cls-8" d="M41.458,20.076a.482.482,0,1,0,.482-.483A.482.482,0,0,0,41.458,20.076Zm.656,0a.174.174,0,1,1-.174-.174A.174.174,0,0,1,42.114,20.076Z"/><rect class="cls-8" x="39.056" y="16.782" width="0.309" height="1.747"/><path class="cls-8" d="M39.209,16.936a.482.482,0,1,1,.483-.482A.482.482,0,0,1,39.209,16.936Zm0-.656a.174.174,0,1,0,.174.174A.174.174,0,0,0,39.209,16.28Z"/><rect class="cls-8" x="37.803" y="23.174" width="0.309" height="1.117"/><path class="cls-8" d="M37.957,24.137a.482.482,0,1,0,.483.481A.482.482,0,0,0,37.957,24.137Zm0,.655a.174.174,0,1,1,.174-.174A.175.175,0,0,1,37.957,24.792Z"/><rect class="cls-8" x="39.286" y="22.849" width="0.309" height="1.117"/><path class="cls-8" d="M39.441,23.812a.482.482,0,1,0,.482.481A.481.481,0,0,0,39.441,23.812Zm0,.655a.174.174,0,1,1,.173-.174A.174.174,0,0,1,39.441,24.467Z"/><rect class="cls-8" x="36.297" y="23.052" width="0.309" height="1.747"/><path class="cls-8" d="M36.45,24.645a.482.482,0,1,0,.483.482A.482.482,0,0,0,36.45,24.645Zm0,.656a.174.174,0,1,1,.174-.174A.174.174,0,0,1,36.45,25.3Z"/><rect class="cls-7" x="35.115" y="18.1" width="5.311" height="5.311"/></g></g></g></svg>