<svg xmlns="http://www.w3.org/2000/svg" viewBox="0 0 75 75"><defs><style>.cls-1{isolation:isolate;}.cls-2{fill:#e95653;}.cls-3{fill:#b0565f;}.cls-4{fill:none;}.cls-5{opacity:0.15;mix-blend-mode:multiply;}.cls-6{fill:#f08e8c;}.cls-7{fill:#fce8e8;}.cls-8{fill:#fff;}</style></defs><title>dG-struktur</title><g class="cls-1"><g id="Layer_2" data-name="Layer 2"><g id="Layer_1-2" data-name="Layer 1"><circle class="cls-2" cx="37.5" cy="37.5" r="37.5"/><path class="cls-3" d="M45.438,16.662a.53.53,0,0,1,.08.15C45.558,16.832,45.548,16.792,45.438,16.662Z"/><path class="cls-4" d="M36.146,63.85c-3.257-2.921-6.234-6.234-9.327-9.327L21.1,48.805c-.824-.824-2.624-2.088-2.624-3.392,0-1.215,1.462-2.228,2.238-3,.989-.989,1.08-.824.091-1.813-.761-.761-2.2-1.764-2.313-2.92-.123-1.286,1.319-2.278,2.13-3.089.155-.155,1.029-.808,1.035-1.035,0-.164-.65-.667-.765-.783-.746-.746-2.169-1.728-2.383-2.83-.278-1.437,1.574-2.729,2.459-3.614L32.7,14.6c1.127-1.127,2.205-2.395,3.424-3.424,1.975-1.667,4.008,1.152,5.423,2.427,3.021,2.723,6.048,5.448,9.1,8.144,6.12,5.41,12.175,10.905,18.317,16.292Q71.77,40.5,74.6,42.975a37.488,37.488,0,1,0-27.39,30.749c-.757-.681-1.519-1.355-2.274-2.039C42.025,69.05,39.067,66.47,36.146,63.85Zm9.372-47.038a.53.53,0,0,0-.08-.15C45.548,16.792,45.558,16.832,45.518,16.812Z"/><path class="cls-5" d="M74.6,42.975q-2.822-2.475-5.641-4.936c-6.142-5.387-12.2-10.882-18.317-16.292-3.049-2.7-6.076-5.421-9.1-8.144-1.415-1.275-3.448-4.094-5.423-2.427-1.219,1.029-2.3,2.3-3.424,3.424L20.969,26.325c-.885.885-2.737,2.177-2.459,3.614.214,1.1,1.637,2.084,2.383,2.83.115.116.77.619.765.783-.006.227-.88.88-1.035,1.035-.811.811-2.253,1.8-2.13,3.089.111,1.156,1.552,2.159,2.313,2.92.989.989.9.824-.091,1.813-.776.776-2.238,1.789-2.238,3,0,1.3,1.8,2.568,2.624,3.392l5.718,5.718c3.093,3.093,6.07,6.406,9.327,9.327,2.921,2.62,5.879,5.2,8.788,7.835.755.684,1.517,1.358,2.274,2.039A37.534,37.534,0,0,0,74.6,42.975Z"/><path class="cls-3" d="M45.438,16.662a.53.53,0,0,1,.08.15C45.558,16.832,45.548,16.792,45.438,16.662Z"/><path class="cls-4" d="M45.579,16.977a.53.53,0,0,0-.08-.15C45.609,16.957,45.619,17,45.579,16.977Z"/><path class="cls-3" d="M45.5,16.827a.53.53,0,0,1,.08.15C45.619,17,45.609,16.957,45.5,16.827Z"/><path class="cls-6" d="M19.015,46.719a1.851,1.851,0,0,1,0-2.61L36.193,26.931a1.85,1.85,0,0,1,2.611,0L55.985,44.109a1.851,1.851,0,0,1,0,2.61L38.8,63.9a1.85,1.85,0,0,1-2.611,0Z"/><path class="cls-7" d="M19.015,38.805a1.851,1.851,0,0,1,0-2.61L36.193,19.017a1.85,1.85,0,0,1,2.611,0L55.985,36.2a1.851,1.851,0,0,1,0,2.61L38.8,55.983a1.85,1.85,0,0,1-2.611,0Z"/><path class="cls-8" d="M19.015,30.891a1.854,1.854,0,0,1,0-2.613L36.193,11.1a1.85,1.85,0,0,1,2.611,0L55.985,28.281a1.851,1.851,0,0,1,0,2.61L38.8,48.072a1.852,1.852,0,0,1-2.611,0Z"/><path class="cls-8" d="M21.666,33.542l14.527,14.53a1.852,1.852,0,0,0,2.611,0l14.53-14.53L38.8,19.017a1.85,1.85,0,0,0-2.611,0Z"/></g></g></g></svg>