<svg xmlns="http://www.w3.org/2000/svg" viewBox="0 0 76 76"><defs><style>.cls-1{isolation:isolate;}.cls-2{fill:#e95653;}.cls-3{fill:none;}.cls-4{opacity:0.15;mix-blend-mode:multiply;}.cls-5{fill:#fff;}.cls-6{fill:#f9d2d1;}.cls-7{fill:#f08e8c;}.cls-8{fill:#e11e19;}</style></defs><title>spart zeit</title><g class="cls-1"><g id="Layer_1" data-name="Layer 1"><circle class="cls-2" cx="38.04" cy="38.041" r="37.5"/><path class="cls-3" d="M19.786,63.535A78.024,78.024,0,0,1,13.958,57.3,30.59,30.59,0,0,1,30.078,8.952,30.9,30.9,0,0,1,59.92,17.076q7.623,7.692,15.148,15.483a37.5,37.5,0,1,0-44.332,42.2l-4.621-4.736Q22.952,66.778,19.786,63.535Z"/><path class="cls-4" d="M75.46,37.959a37.861,37.861,0,0,0-.392-5.4q-7.546-7.77-15.148-15.483A30.584,30.584,0,0,0,9.69,27.07,30.841,30.841,0,0,0,13.958,57.3a78.024,78.024,0,0,0,5.828,6.236q3.165,3.242,6.329,6.486l4.621,4.736a37.5,37.5,0,0,0,44.724-36.8Z"/><circle class="cls-5" cx="38.196" cy="38.341" r="30.593"/><path class="cls-6" d="M10.514,40.306a30.391,30.391,0,0,0,10.9,23.346,30.462,30.462,0,1,1,35.99-49A30.461,30.461,0,0,0,10.514,40.306Z"/><path class="cls-7" d="M38.2,16.744a.657.657,0,0,1-.657-.658V8.7a.658.658,0,1,1,1.315,0v7.384A.657.657,0,0,1,38.2,16.744Z"/><path class="cls-7" d="M38.548,68.338a.658.658,0,0,1-.658-.657V60.3a.658.658,0,0,1,1.316,0v7.385A.658.658,0,0,1,38.548,68.338Z"/><path class="cls-7" d="M15.614,40.054H8.23a.658.658,0,1,1,0-1.315h7.384a.658.658,0,1,1,0,1.315Z"/><path class="cls-7" d="M67.811,40.054H60.426a.658.658,0,1,1,0-1.315h7.385a.658.658,0,1,1,0,1.315Z"/><path class="cls-8" d="M38.2,43.219a.659.659,0,0,1-.531-.268L28.875,31a.658.658,0,0,1,1.06-.78L38.34,41.646,56.8,28.314a.657.657,0,1,1,.769,1.066L38.582,43.094A.65.65,0,0,1,38.2,43.219Z"/></g></g></svg>