<svg xmlns="http://www.w3.org/2000/svg" viewBox="0 0 75 75"><defs><style>.cls-1{isolation:isolate;}.cls-2{fill:#e95653;}.cls-3{fill:#b0565f;}.cls-4{fill:none;}.cls-5{opacity:0.15;mix-blend-mode:multiply;}.cls-6{fill:#fff;}.cls-7{fill:#fce8e8;}</style></defs><title>dG-transparenzkosten</title><g class="cls-1"><g id="Layer_2" data-name="Layer 2"><g id="Layer_1-2" data-name="Layer 1"><circle class="cls-2" cx="37.5" cy="37.5" r="37.5"/><path class="cls-3" d="M45.438,16.662a.53.53,0,0,1,.08.15C45.558,16.832,45.548,16.792,45.438,16.662Z"/><path class="cls-4" d="M19.8,58.665c-4.058-3.809-7.263-8.03-8.916-13.42a28.22,28.22,0,0,1,36.37-34.93c4.957,1.749,8.674,4.9,12.444,8.448q5.2,4.9,10.423,9.771,2.3,2.136,4.58,4.284A37.5,37.5,0,1,0,37.191,74.992q-3.491-3.271-6.975-6.55Q25.02,63.539,19.8,58.665Z"/><path class="cls-5" d="M75,37.5a37.867,37.867,0,0,0-.3-4.682q-2.29-2.142-4.58-4.284Q64.89,23.67,59.7,18.763c-3.77-3.547-7.487-6.7-12.444-8.448a28.22,28.22,0,0,0-36.37,34.93c1.653,5.39,4.858,9.611,8.916,13.42q5.21,4.889,10.418,9.777,3.478,3.285,6.975,6.55c.1,0,.2.008.309.008A37.5,37.5,0,0,0,75,37.5ZM45.518,16.812a.53.53,0,0,0-.08-.15C45.548,16.792,45.558,16.832,45.518,16.812Z"/><path class="cls-3" d="M45.438,16.662a.53.53,0,0,1,.08.15C45.558,16.832,45.548,16.792,45.438,16.662Z"/><path class="cls-6" d="M43.874,47.519a9.368,9.368,0,0,1-4.491,1.13q-6.8,0-8.1-7.516H29.424v-2.49H31a7.586,7.586,0,0,1-.061-1.054,13.23,13.23,0,0,1,.092-1.466h-1.6V33.664h1.94a10.35,10.35,0,0,1,3.078-5.622,7.963,7.963,0,0,1,5.506-2.031,8.728,8.728,0,0,1,3.926.855v3.07a6.485,6.485,0,0,0-3.819-1.191A4.609,4.609,0,0,0,36.8,30.082a7.191,7.191,0,0,0-1.986,3.582h7.1v2.459h-7.5a13.914,13.914,0,0,0-.016,2.52h7.516v2.49h-7.18q1.055,4.8,5.148,4.8A7.43,7.43,0,0,0,43.874,44.6Z"/><path class="cls-7" d="M41.563,65.435a28.207,28.207,0,1,1,23.481-34.2l-7.225,1.648a20.805,20.805,0,1,0-3.622,17.1,29.048,29.048,0,0,0,4.57-11.706l5.762,6.337a27.951,27.951,0,0,1-4.4,9.808A28.131,28.131,0,0,1,41.563,65.435Z"/><polygon class="cls-7" points="65.102 43.259 54.786 32.157 68.185 29.074 65.102 43.259"/></g></g></g></svg>