<svg xmlns="http://www.w3.org/2000/svg" viewBox="0 0 75 75"><defs><style>.cls-1{isolation:isolate;}.cls-2{fill:#e95653;}.cls-3{fill:none;}.cls-4{opacity:0.15;mix-blend-mode:multiply;}.cls-5{fill:#f08e8c;}.cls-6{fill:#fff;}.cls-7{fill:#fce8e8;}.cls-8{fill:#f7c7c5;}</style></defs><title>dG-uebersichtlich</title><g class="cls-1"><g id="Layer_2" data-name="Layer 2"><g id="Layer_1-2" data-name="Layer 1"><circle class="cls-2" cx="37.5" cy="37.5" r="37.5"/><path class="cls-3" d="M19.2,64.613c-.935-.532-1.806-1.112-2.753-1.626a6.868,6.868,0,0,1-2.325-1.572,5.333,5.333,0,0,1-.153-2.344V43.8a11.213,11.213,0,0,1,0-1.145c.083-.8.389-.774.878-1.274.175-.179.225-.18.237-.166a1.118,1.118,0,0,1,.062-.339,5.151,5.151,0,0,0,0-1.124c0-.86-.011-1.72,0-2.579.019-1.507.726-1.829,2.1-1.829H22.6a6.438,6.438,0,0,1,1.374.019c.9.209,1.6,1.056,2.424,1.389v-6a5.549,5.549,0,0,1,0-.956c.143-.758.7-.649.939-1.072.162-.282,0-1.1,0-1.415,0-.593-.016-1.189,0-1.782.026-.934.293-1.441,1.308-1.488,1.18-.056,2.377,0,3.558,0a8.421,8.421,0,0,1,2.406.068,6.7,6.7,0,0,1,1.021.646c.218.131.462.287.711.441.313.194,1.214,1.035,1.556,1.064V22.252a23.379,23.379,0,0,1,0-4.233c.1-.51.454-.514.663-.835.153-.235.111-.24.154-.661.086-.834-.111-1.7,0-2.535.2-1.525,2.534-1,3.7-1a14.275,14.275,0,0,1,2.159,0,4.148,4.148,0,0,1,1.589.882,5.365,5.365,0,0,0,2.882,1.2h9.2a4.489,4.489,0,0,1,2.894.941c1.5.994,2.988,1.89,4.534,2.822,1.477.89,2.907,1.965,4.4,2.845.641.378,1.292.744,1.941,1.113A37.5,37.5,0,1,0,35.7,74.955c-2.174-1.415-4.312-2.906-6.553-4.175C25.749,68.853,22.583,66.537,19.2,64.613Z"/><path class="cls-4" d="M75,37.5a37.38,37.38,0,0,0-3-14.706c-.649-.369-1.3-.735-1.941-1.113-1.493-.88-2.923-1.955-4.4-2.845-1.546-.932-3.033-1.828-4.534-2.822a4.489,4.489,0,0,0-2.894-.941h-9.2a5.365,5.365,0,0,1-2.882-1.2,4.148,4.148,0,0,0-1.589-.882,14.275,14.275,0,0,0-2.159,0c-1.164,0-3.493-.526-3.7,1-.111.83.086,1.7,0,2.535-.043.421,0,.426-.154.661-.209.321-.563.325-.663.835a23.379,23.379,0,0,0,0,4.233v4.005c-.342-.029-1.243-.87-1.556-1.064-.249-.154-.493-.31-.711-.441a6.7,6.7,0,0,0-1.021-.646,8.421,8.421,0,0,0-2.406-.068c-1.181,0-2.378-.056-3.558,0-1.015.047-1.282.554-1.308,1.488-.016.593,0,1.189,0,1.782,0,.313.162,1.133,0,1.415-.243.423-.8.314-.939,1.072a5.549,5.549,0,0,0,0,.956v6c-.826-.333-1.525-1.18-2.424-1.389a6.438,6.438,0,0,0-1.374-.019H17.246c-1.375,0-2.082.322-2.1,1.829-.011.859,0,1.719,0,2.579a5.151,5.151,0,0,1,0,1.124,1.118,1.118,0,0,0-.062.339c.007.008,0,.017,0,0s-.062-.013-.237.166c-.489.5-.795.475-.878,1.274a11.213,11.213,0,0,0,0,1.145V59.071a5.333,5.333,0,0,0,.153,2.344,6.868,6.868,0,0,0,2.325,1.572c.947.514,1.818,1.094,2.753,1.626,3.384,1.924,6.55,4.24,9.952,6.167,2.241,1.269,4.379,2.76,6.553,4.175.6.028,1.194.045,1.8.045A37.5,37.5,0,0,0,75,37.5ZM45.518,16.812a.53.53,0,0,0-.08-.15C45.548,16.792,45.558,16.832,45.518,16.812Z"/><path class="cls-5" d="M45.55,15.073V13.807a.818.818,0,0,0-.817-.818H39.525a.816.816,0,0,0-.816.818v3.347H60.216V15.889a.818.818,0,0,0-.817-.816Z"/><path class="cls-6" d="M59.4,29.869a.818.818,0,0,1-.817.817H40.342a.819.819,0,0,1-.817-.817V17.154a.819.819,0,0,1,.817-.816h18.24a.818.818,0,0,1,.817.816Z"/><path class="cls-5" d="M61.032,30.686a.818.818,0,0,1-.816.816H38.709a.819.819,0,0,1-.817-.816V17.971a.819.819,0,0,1,.817-.817H60.216a.818.818,0,0,1,.816.817Z"/><rect class="cls-5" x="39.525" y="23.106" width="6.024" height="0.762"/><rect class="cls-7" x="39.525" y="21.581" width="6.024" height="0.762"/><rect class="cls-7" x="39.525" y="20.057" width="3.012" height="0.762"/><path class="cls-7" d="M57.2,29.218s-.548,1.267-4.15,1.267c-3.3,0-3.442-1.372-3.442-1.372s0-5.483,3.9-5.483C57.113,23.63,57.2,29.218,57.2,29.218Z"/><path class="cls-7" d="M55.71,20.6a2.244,2.244,0,1,1-4.48,0,2.255,2.255,0,1,1,4.48,0Z"/><path class="cls-8" d="M35.19,26.431V24.976a.939.939,0,0,0-.939-.938H28.27a.936.936,0,0,0-.938.938v3.845H52.037V27.368a.939.939,0,0,0-.939-.937Z"/><path class="cls-6" d="M51.1,43.426a.939.939,0,0,1-.938.939H29.208a.941.941,0,0,1-.938-.939v-14.6a.941.941,0,0,1,.938-.937H50.16a.939.939,0,0,1,.938.937Z"/><path class="cls-8" d="M52.974,44.365a.937.937,0,0,1-.937.937h-24.7a.941.941,0,0,1-.939-.937V29.76a.942.942,0,0,1,.939-.939H52.037a.939.939,0,0,1,.937.939Z"/><rect class="cls-5" x="28.27" y="35.658" width="6.92" height="0.876"/><rect class="cls-5" x="28.27" y="33.907" width="6.92" height="0.876"/><rect class="cls-5" x="28.27" y="32.155" width="3.46" height="0.876"/><path class="cls-6" d="M48.576,42.679s-.628,1.456-4.767,1.456c-3.786,0-3.953-1.577-3.953-1.577s0-6.3,4.481-6.3C48.472,36.26,48.576,42.679,48.576,42.679Z"/><path class="cls-6" d="M46.861,32.775a2.578,2.578,0,1,1-5.147,0,2.8,2.8,0,0,1,2.574-2.885A2.8,2.8,0,0,1,46.861,32.775Z"/><path class="cls-7" d="M25,38.347V36.523a1.176,1.176,0,0,0-1.177-1.177h-7.5a1.174,1.174,0,0,0-1.175,1.177v4.822H46.122V39.522a1.176,1.176,0,0,0-1.177-1.175Z"/><path class="cls-6" d="M44.945,59.658a1.174,1.174,0,0,1-1.177,1.177H17.5a1.18,1.18,0,0,1-1.177-1.177V41.345A1.181,1.181,0,0,1,17.5,40.169H43.768a1.176,1.176,0,0,1,1.177,1.176Z"/><path class="cls-7" d="M47.3,60.835a1.178,1.178,0,0,1-1.176,1.176H15.145a1.18,1.18,0,0,1-1.177-1.176V42.522a1.178,1.178,0,0,1,1.177-1.177H46.122A1.176,1.176,0,0,1,47.3,42.522Z"/><rect class="cls-5" x="16.32" y="49.918" width="8.677" height="1.098"/><rect class="cls-5" x="16.32" y="47.722" width="8.677" height="1.098"/><rect class="cls-5" x="16.32" y="45.525" width="4.339" height="1.098"/><path class="cls-8" d="M41.783,58.722S41,60.547,35.806,60.547c-4.749,0-4.957-1.977-4.957-1.977s0-7.9,5.619-7.9C41.653,50.672,41.783,58.722,41.783,58.722Z"/><path class="cls-8" d="M39.632,46.3a3.232,3.232,0,1,1-6.453,0,3.514,3.514,0,0,1,3.227-3.618A3.513,3.513,0,0,1,39.632,46.3Z"/></g></g></g></svg>