<svg xmlns="http://www.w3.org/2000/svg" xmlns:xlink="http://www.w3.org/1999/xlink" viewBox="0 0 150 150"><defs><style>.cls-1{fill:#eff1f4;}.cls-2{fill:#ff8282;}.cls-3{isolation:isolate;}.cls-4{clip-path:url(#clip-path);}.cls-5{fill:#e11e19;}.cls-6{fill:#ced6dd;}.cls-7{fill:#e95653;}.cls-8{clip-path:url(#clip-path-2);}.cls-9{fill:#f7c7c5;mix-blend-mode:overlay;}.cls-10{fill:none;}</style><clipPath id="clip-path"><path class="cls-1" d="M137.894,19.606c0,6.855-3.342,19.907-7.617,31.021-5.537,14.4-24.741,40.715-39.535,44.53C79.726,98,79.579,101.815,73.01,95.505l-6.629-5.674L79.187,75.983a1.474,1.474,0,0,0-.082-2.086L77,71.951a1.483,1.483,0,0,0-2.093.081L61.95,86.043l-3.7-3.166C51.682,76.56,53.413,71.259,55.1,62.2c2.421-13,25.163-36.927,37.561-42.351,13.678-5.984,27.22-9.5,35.328-9.573C134.351,10.219,137.894,13.866,137.894,19.606Z"/></clipPath><clipPath id="clip-path-2"><circle class="cls-2" cx="98.737" cy="47.547" r="9.617"/></clipPath></defs><title>direktes-loslegen</title><g class="cls-3"><g id="Layer_2" data-name="Layer 2"><g id="Layer_1-2" data-name="Layer 1"><path class="cls-1" d="M137.894,19.606c0,6.855-3.342,19.907-7.617,31.021-5.537,14.4-24.741,40.715-39.535,44.53C79.726,98,79.579,101.815,73.01,95.505l-6.629-5.674L79.187,75.983a1.474,1.474,0,0,0-.082-2.086L77,71.951a1.483,1.483,0,0,0-2.093.081L61.95,86.043l-3.7-3.166C51.682,76.56,53.413,71.259,55.1,62.2c2.421-13,25.163-36.927,37.561-42.351,13.678-5.984,27.22-9.5,35.328-9.573C134.351,10.219,137.894,13.866,137.894,19.606Z"/><g class="cls-4"><path class="cls-5" d="M133.946,49.835,98.737,14.625l4.024-3.1c20.589-3.544,23.89-7.564,33.723.289h0c7.406,5.914,5.249,16.082,4.883,24.6Z"/><path class="cls-6" d="M116.554,32.446l14.7,14.7a7.957,7.957,0,0,1,.274,10.965L96.545,97.97a19.974,19.974,0,0,1-28.51,1.547L57.693,90.034Z"/></g><path class="cls-7" d="M79.187,75.983,66.381,89.831l-16.829,18.2a1.474,1.474,0,0,1-2.086.081l-2.109-1.945a1.484,1.484,0,0,1-.081-2.094L61.95,86.043,74.911,72.032A1.483,1.483,0,0,1,77,71.951l2.1,1.946A1.474,1.474,0,0,1,79.187,75.983Z"/><path class="cls-7" d="M57.344,55.948s-7.009-5.5-19.711-.392S20.365,66.433,20.365,66.433s28.181-2.57,33.191,5.087"/><path class="cls-7" d="M97.639,92.085s5.339,5.9,1.238,18.963-9.5,18.064-9.5,18.064S86.269,101.6,81.591,98.219"/><circle class="cls-2" cx="98.737" cy="47.547" r="9.617"/><g class="cls-8"><rect class="cls-9" x="83.168" y="35.133" width="14.502" height="23.94" transform="translate(8.572 -13.687) rotate(9.085)"/></g><path class="cls-6" d="M42.97,139.723a1.557,1.557,0,0,1-1.1-2.657l25.219-25.22a1.557,1.557,0,0,1,2.2,2.2L44.071,139.267A1.551,1.551,0,0,1,42.97,139.723Z"/><path class="cls-6" d="M15.138,134.932a1.557,1.557,0,0,1-.979-2.752l27.207-22.734a1.558,1.558,0,0,1,2,2.391L16.155,134.571A1.551,1.551,0,0,1,15.138,134.932Z"/><path class="cls-6" d="M13.665,110.209a1.557,1.557,0,0,1-1.015-2.74L39.569,84.4A1.557,1.557,0,1,1,41.6,86.761L14.677,109.835A1.554,1.554,0,0,1,13.665,110.209Z"/><rect class="cls-10" width="150" height="150"/></g></g></g></svg>