<svg xmlns="http://www.w3.org/2000/svg" xmlns:xlink="http://www.w3.org/1999/xlink" viewBox="0 0 150 150"><defs><style>.cls-1{fill:#d5e0e8;}.cls-2{isolation:isolate;}.cls-3{fill:#e11e19;}.cls-4{fill:#f08e8c;}.cls-5{fill:#f9d2d1;}.cls-6{clip-path:url(#clip-path);}.cls-7,.cls-8{fill:#fff;}.cls-7{opacity:0.29;mix-blend-mode:overlay;}.cls-10,.cls-9{fill:none;}.cls-9{stroke:#fff;stroke-miterlimit:10;stroke-width:1.158px;}</style><clipPath id="clip-path"><rect class="cls-1" x="17.251" y="26.799" width="80.079" height="112.541" rx="3"/></clipPath></defs><title>dokumentenbearbeitung</title><g class="cls-2"><g id="Layer_2" data-name="Layer 2"><g id="Layer_1-2" data-name="Layer 1"><path class="cls-3" d="M107.236,20.143a26.311,26.311,0,0,0-2.428-2.566l-8.115,1.172-3.557-7.39a26.152,26.152,0,0,0-7.015-.68l-4.91,6.568-7.739-2.71a25.614,25.614,0,0,0-5.443,4.481L69.2,27.133,61.812,30.69a26.186,26.186,0,0,0-.681,7.014L67.7,42.615l-2.71,7.738A25.584,25.584,0,0,0,69.47,55.8l8.115-1.172,3.557,7.39a26.149,26.149,0,0,0,7.014.68l4.911-6.568,7.739,2.71a25.576,25.576,0,0,0,5.442-4.481l-1.172-8.115,7.39-3.556a26.2,26.2,0,0,0,.681-7.015l-6.569-4.911,2.71-7.738A26.105,26.105,0,0,0,107.236,20.143ZM98.415,50.984a17.825,17.825,0,1,1,2.434-25.09A17.824,17.824,0,0,1,98.415,50.984Z"/><path class="cls-4" d="M128.414,46.179a12.147,12.147,0,0,0-1.33-.963l-3.605,1.231-2.258-3.069a12.158,12.158,0,0,0-3.261.292l-1.679,3.421-3.766-.573a11.873,11.873,0,0,0-2.1,2.513l1.232,3.6-3.069,2.259a12.162,12.162,0,0,0,.292,3.261l3.42,1.679-.573,3.766a11.895,11.895,0,0,0,2.513,2.1l3.605-1.231,2.259,3.069a12.162,12.162,0,0,0,3.261-.292l1.678-3.421,3.767.573a12.146,12.146,0,0,0,1.137-1.183,12.281,12.281,0,0,0,.963-1.33l-1.231-3.6,3.069-2.259a12.158,12.158,0,0,0-.292-3.261l-3.421-1.679.573-3.766A12.146,12.146,0,0,0,128.414,46.179Zm-1.381,14.839a8.281,8.281,0,1,1-1.042-11.665A8.281,8.281,0,0,1,127.033,61.018Z"/><path class="cls-5" d="M107.456,63.336a14.608,14.608,0,0,0-1.926-.44l-3.413,3.063-3.949-2.335a14.627,14.627,0,0,0-3.475,1.86l-.247,4.581L90,71.205a14.309,14.309,0,0,0-1.143,3.774l3.064,3.413L89.589,82.34a14.687,14.687,0,0,0,1.86,3.476l4.581.247,1.14,4.442a14.339,14.339,0,0,0,3.774,1.143l3.413-3.064,3.949,2.335a14.627,14.627,0,0,0,3.475-1.86l.247-4.58,4.442-1.141a14.309,14.309,0,0,0,1.143-3.774l-3.064-3.413,2.336-3.948a14.687,14.687,0,0,0-1.86-3.476l-4.581-.247-1.14-4.442A14.8,14.8,0,0,0,107.456,63.336Zm5.465,17.09a9.97,9.97,0,1,1-6.653-12.432A9.969,9.969,0,0,1,112.921,80.426Z"/><rect class="cls-1" x="17.251" y="26.799" width="80.079" height="112.541" rx="3"/><g class="cls-6"><polygon class="cls-7" points="40.364 140.402 16.181 140.232 16.462 24.293 73.131 24.691 40.364 140.402"/></g><rect class="cls-8" x="28.969" y="48.981" width="42.942" height="3.11"/><rect class="cls-8" x="29.266" y="76.523" width="31.244" height="3.258"/><rect class="cls-8" x="29.562" y="83.932" width="2.517" height="12.438"/><rect class="cls-8" x="36.613" y="83.932" width="2.517" height="12.438"/><rect class="cls-8" x="33.161" y="86.597" width="2.369" height="9.773"/><rect class="cls-8" x="40.248" y="88.815" width="2.298" height="7.555"/><rect class="cls-9" x="58.732" y="113.393" width="31.244" height="12.438"/><rect class="cls-8" x="29.117" y="56.829" width="57.157" height="3.11"/><rect class="cls-8" x="29.117" y="63.492" width="57.157" height="3.11"/><rect class="cls-8" x="29.117" y="69.859" width="57.157" height="3.11"/><rect class="cls-10" width="150" height="150"/></g></g></g></svg>