<svg xmlns="http://www.w3.org/2000/svg" viewBox="0 0 32.64 25.88"><defs><style>.cls-1{fill:#788287;}</style></defs><title>klammer auf</title><g id="Layer_2" data-name="Layer 2"><g id="textos_y_elementos" data-name="textos y elementos"><path class="cls-1" d="M31.72,25.88l.92-1.52q-7.82-4.18-7.82-7.81A2.15,2.15,0,0,1,25.47,15a9.32,9.32,0,0,1,2.29-1.54,10.15,10.15,0,0,0,3.61-2.74,5.84,5.84,0,0,0,1.08-3.61,6.87,6.87,0,0,0-2.07-5.05,6.74,6.74,0,0,0-5-2.07,6.34,6.34,0,0,0-5.26,2.57,10.62,10.62,0,0,0-2,6.72,15.34,15.34,0,0,0,1.31,6.25A16.65,16.65,0,0,0,23.35,21,27.19,27.19,0,0,0,31.72,25.88Zm-18.16,0,.92-1.52q-7.82-4.14-7.81-7.81,0-1.56,2.94-3.08a10.94,10.94,0,0,0,3.65-2.76,5.82,5.82,0,0,0,1-3.59,6.85,6.85,0,0,0-2.1-5A6.8,6.8,0,0,0,7.22,0,6.31,6.31,0,0,0,2,2.57,10.68,10.68,0,0,0,0,9.29,15.52,15.52,0,0,0,5.15,21a20.37,20.37,0,0,0,3.42,2.6A39.39,39.39,0,0,0,13.56,25.88Z"/></g></g></svg>