<svg xmlns="http://www.w3.org/2000/svg" xmlns:xlink="http://www.w3.org/1999/xlink" viewBox="0 0 150 150"><defs><style>.cls-1{fill:#dee3e8;}.cls-2{fill:#ced6dd;}.cls-3{clip-path:url(#clip-path);}.cls-4{fill:#fff;opacity:0.42;}.cls-5{fill:#f7c7c5;}.cls-6{clip-path:url(#clip-path-2);}.cls-7{fill:#f08e8c;}.cls-8{clip-path:url(#clip-path-3);}.cls-9{fill:#fce8e8;}.cls-10{clip-path:url(#clip-path-4);}.cls-11{fill:#e11e19;}.cls-12{fill:none;}</style><clipPath id="clip-path"><path class="cls-1" d="M73.271,97.938s-12.182,11.075-38.785,11.075c-24.34,0-32.092-12.183-32.092-12.183S9.053,57.622,37.847,57.622C64.426,57.622,73.271,97.938,73.271,97.938Z"/></clipPath><clipPath id="clip-path-2"><path class="cls-1" d="M54.1,34.312c0,10.242-7.959,17.543-16.541,17.543s-16.54-7.3-16.54-17.543,7.959-18.546,16.54-18.546S54.1,24.069,54.1,34.312Z"/></clipPath><clipPath id="clip-path-3"><path class="cls-2" d="M147.606,117.129s-14.675,13.341-46.721,13.341c-29.322,0-38.661-14.675-38.661-14.675s8.022-47.232,42.709-47.232C136.951,68.563,147.606,117.129,147.606,117.129Z"/></clipPath><clipPath id="clip-path-4"><path class="cls-2" d="M124.515,40.482c0,12.339-9.587,21.133-19.925,21.133S84.664,52.821,84.664,40.482s9.588-22.341,19.926-22.341S124.515,28.144,124.515,40.482Z"/></clipPath></defs><title>zusammenarbeit</title><g id="Layer_2" data-name="Layer 2"><g id="Layer_1-2" data-name="Layer 1"><path class="cls-1" d="M73.271,97.938s-12.182,11.075-38.785,11.075c-24.34,0-32.092-12.183-32.092-12.183S9.053,57.622,37.847,57.622C64.426,57.622,73.271,97.938,73.271,97.938Z"/><g class="cls-3"><polygon class="cls-4" points="43.883 41.446 4.524 70.726 1.54 99.177 43.883 41.446"/></g><path class="cls-5" d="M136.245,128.177l-2.464-2.135c4.588-5.3,3.149-15.8-3.935-28.825-7.446-13.693-20.17-28.7-35.817-42.248s-32.314-24-46.924-29.411c-13.9-5.156-24.51-5.074-29.093.218l-2.465-2.135c5.607-6.467,17.213-6.877,32.685-1.137,14.977,5.544,31.994,16.2,47.932,30.005s28.912,29.125,36.544,43.15C140.593,110.153,141.851,121.7,136.245,128.177Z"/><path class="cls-1" d="M54.1,34.312c0,10.242-7.959,17.543-16.541,17.543s-16.54-7.3-16.54-17.543,7.959-18.546,16.54-18.546S54.1,24.069,54.1,34.312Z"/><g class="cls-6"><polygon class="cls-4" points="39.54 13.427 19.446 20.192 19.645 46.056 39.54 13.427"/></g><path class="cls-7" d="M17.611,129.183a13.3,13.3,0,0,1-1.7-2.453l2.88-1.559a9.954,9.954,0,0,0,1.283,1.839Z"/><path class="cls-7" d="M14.188,121.157a22.854,22.854,0,0,1-.112-4.229c.028-.46.069-.924.123-1.406l3.259.367c-.05.417-.081.834-.106,1.24a19.478,19.478,0,0,0,.089,3.623Zm4.219-10.186-3.171-.842a53.637,53.637,0,0,1,1.683-5.161l3.067,1.165A48.831,48.831,0,0,0,18.407,110.971ZM53.544,60.412l-2.262-2.373q1.9-1.815,3.881-3.613l2.2,2.429C56.061,58.033,54.791,59.219,53.544,60.412Zm7.731-7.018-2.141-2.479c1.347-1.163,2.7-2.3,4.055-3.416l2.078,2.535Q63.271,51.681,61.275,53.394Zm8.073-6.613L67.333,44.2c1.408-1.1,2.822-2.169,4.227-3.2l1.946,2.636Q71.427,45.162,69.348,46.781Zm8.4-6.186L75.876,37.9q2.214-1.535,4.4-2.963l1.791,2.745Q79.919,39.09,77.747,40.6Zm8.734-5.68-1.7-2.8q2.316-1.412,4.592-2.689l1.6,2.86Q88.739,33.542,86.481,34.915ZM95.55,29.83l-1.5-2.919c1.614-.824,3.225-1.611,4.8-2.329l1.368,2.977C98.689,28.262,97.121,29.022,95.55,29.83Zm9.423-4.315-1.215-3.045c1.707-.68,3.4-1.3,5.03-1.841l1.031,3.112C108.248,24.261,106.618,24.856,104.973,25.515Zm9.773-3.2-.781-3.18a52.525,52.525,0,0,1,5.328-1.039l.448,3.244A49.491,49.491,0,0,0,114.746,22.313Zm14.828-.748a21.128,21.128,0,0,0-4.835-.573l.04-3.274a23.99,23.99,0,0,1,5.589.667Z"/><path class="cls-7" d="M135.487,24.946a10.042,10.042,0,0,0-1.663-1.5l1.9-2.668a13.065,13.065,0,0,1,2.219,1.994Z"/><path class="cls-2" d="M147.606,117.129s-14.675,13.341-46.721,13.341c-29.322,0-38.661-14.675-38.661-14.675s8.022-47.232,42.709-47.232C136.951,68.563,147.606,117.129,147.606,117.129Z"/><g class="cls-8"><polygon class="cls-4" points="112.204 49.076 64.791 84.348 61.196 118.621 112.204 49.076"/></g><path class="cls-9" d="M134.06,130.181l-1.917-2.639a9.63,9.63,0,0,0,1.638-1.5l2.464,2.135A13.239,13.239,0,0,1,134.06,130.181Z"/><path class="cls-9" d="M124.642,133.27c-.456.033-.925.054-1.4.065l-.073-3.254a20.9,20.9,0,0,0,4.793-.63l.834,3.157A23.34,23.34,0,0,1,124.642,133.27Zm-6.857-.247a53.293,53.293,0,0,1-5.306-.971l.749-3.176a47.835,47.835,0,0,0,4.975.912Zm-10.462-2.412c-1.622-.515-3.308-1.109-5.024-1.773l1.176-3.038c1.654.637,3.28,1.212,4.835,1.708ZM97.4,126.8c-1.57-.7-3.179-1.463-4.791-2.265l1.458-2.916c1.564.781,3.136,1.526,4.662,2.2Zm-9.478-4.723c-1.513-.826-3.042-1.7-4.585-2.62l1.658-2.8q2.268,1.338,4.5,2.56Zm-9.085-5.383c-1.46-.931-2.936-1.9-4.408-2.9l1.827-2.693c1.452.98,2.891,1.931,4.333,2.847Zm-8.73-5.926q-2.12-1.52-4.24-3.139l1.976-2.591q2.09,1.593,4.166,3.091Zm-50.35-53.4c-.894-1.592-1.729-3.176-2.477-4.719l2.93-1.42c.72,1.479,1.52,3.007,2.388,4.541Zm-4.634-9.616A50.5,50.5,0,0,1,13.4,42.639l3.137-.874a49.078,49.078,0,0,0,1.619,4.793ZM12.3,37.285c-.059-.484-.105-.964-.139-1.432a22.894,22.894,0,0,1,.065-4.162l3.237.363a19.638,19.638,0,0,0-.048,3.566c.03.415.066.841.121,1.266Z"/><path class="cls-9" d="M16.756,27.618l-2.88-1.527a13.212,13.212,0,0,1,1.671-2.45l2.465,2.135A9.719,9.719,0,0,0,16.756,27.618Z"/><path class="cls-2" d="M124.515,40.482c0,12.339-9.587,21.133-19.925,21.133S84.664,52.821,84.664,40.482s9.588-22.341,19.926-22.341S124.515,28.144,124.515,40.482Z"/><g class="cls-10"><polygon class="cls-4" points="106.972 15.324 82.766 23.473 83.006 54.63 106.972 15.324"/></g><path class="cls-11" d="M29.343,134.18c-5.072-.311-9.06-1.976-11.731-5l2.457-2.167c4.665,5.276,15.334,5.243,29.268-.082,14.641-5.606,31.3-16.285,46.9-30.078s28.244-29.02,35.592-42.865c7-13.178,8.33-23.762,3.665-29.038l2.451-2.173c5.706,6.453,4.561,18.08-3.221,32.748-7.532,14.187-20.43,29.734-36.314,43.785S65.511,124.25,50.5,129.988C42.26,133.141,35.1,134.534,29.343,134.18Z"/><rect class="cls-12" width="150" height="150"/></g></g></svg>