<svg xmlns="http://www.w3.org/2000/svg" viewBox="0 0 137.457 117.701"><defs><style>.cls-1{fill:#555a5f;}.cls-2{fill:none;}</style></defs><g id="Layer_2" data-name="Layer 2"><g id="Layer_5" data-name="Layer 5"><path id="path5" class="cls-1" d="M64.48,16.021q27.421-4.2,54.913-7.974.016,24.078.011,48.145c-18.3.07-36.608.349-54.924.407q-.017-20.3,0-40.578Z"/><path id="path7" class="cls-1" d="M18.052,22.5c13.766-2.124,27.59-3.958,41.414-5.687q.018,19.97.023,39.928c-13.812-.012-27.624.2-41.437.162V22.5Z"/><path id="path29" class="cls-1" d="M18.052,61.091c13.8-.047,27.6.174,41.4.15,0,13.348.035,26.7.012,40.045-13.789-2.043-27.6-3.831-41.414-5.7Z"/><path id="path31" class="cls-1" d="M64.4,61.624h54.994q.034,24.011,0,48.03c-18.281-2.739-36.6-5.281-54.913-7.765Q64.445,81.762,64.4,61.624Z"/><rect class="cls-2" width="137.457" height="117.701"/></g></g></svg>