<?xml version="1.0" encoding="utf-8"?>
<!-- Generator: Adobe Illustrator 24.1.3, SVG Export Plug-In . SVG Version: 6.00 Build 0)  -->
<svg version="1.1" id="Wortbildmarke" xmlns="http://www.w3.org/2000/svg" xmlns:xlink="http://www.w3.org/1999/xlink" x="0px"
	 y="0px" viewBox="0 0 229 38" style="enable-background:new 0 0 229 38;" xml:space="preserve">
<style type="text/css">
	.st0{clip-path:url(#SVGID_2_);}
	.st1{fill:#212934;}
	.st2{fill:#E11E19;}
	.st3{fill:#FFFFFF;}
	.st4{clip-path:url(#SVGID_4_);}
	.st5{clip-path:url(#SVGID_6_);}
	.st6{clip-path:url(#SVGID_8_);}
	.st7{clip-path:url(#SVGID_10_);}
</style>
<g>
	<defs>
		<rect id="SVGID_1_" x="-28.9" y="1012.9" width="230" height="38"/>
	</defs>
	<clipPath id="SVGID_2_">
		<use xlink:href="#SVGID_1_"  style="overflow:visible;"/>
	</clipPath>
	<g class="st0">
		<g>
			<path class="st1" d="M19.9,1041.4c-1.5,0.8-3.3,1.2-5.5,1.2c-2.9,0-5.1-0.9-6.9-2.8c-1.7-1.8-2.6-4.3-2.6-7.2
				c0-3.2,1-5.8,2.9-7.8c1.9-2,4.4-3,7.4-3c1.9,0,3.5,0.3,4.7,0.8v2.5c-1.4-0.8-3-1.2-4.8-1.2c-2.3,0-4.2,0.8-5.6,2.3
				s-2.1,3.6-2.1,6.2c0,2.4,0.7,4.4,2,5.8c1.3,1.5,3.1,2.2,5.3,2.2c2,0,3.8-0.4,5.2-1.3V1041.4z"/>
			<path class="st1" d="M27.1,1042.3h-2.4v-20.1h2.4V1042.3z"/>
			<path class="st1" d="M33.1,1042.3v-20.1h5.7c1.7,0,3.1,0.4,4.1,1.3c1,0.8,1.5,2,1.5,3.3c0,1.1-0.3,2.1-0.9,3
				c-0.6,0.8-1.5,1.4-2.5,1.8v0.1c1.4,0.2,2.4,0.7,3.2,1.5s1.2,2,1.2,3.4c0,1.7-0.6,3.1-1.8,4.2c-1.2,1.1-2.8,1.6-4.7,1.6H33.1z
				 M35.4,1024.3v6.5h2.4c1.3,0,2.3-0.3,3-0.9c0.7-0.6,1.1-1.5,1.1-2.6c0-1.9-1.3-2.9-3.8-2.9H35.4z M35.4,1032.9v7.2h3.2
				c1.4,0,2.5-0.3,3.2-1c0.8-0.7,1.1-1.5,1.1-2.7c0-2.4-1.6-3.6-4.8-3.6H35.4z"/>
		</g>
		<g>
			<path class="st1" d="M58.1,1040.2L58.1,1040.2l-0.1,8.7h-2.3v-20.9H58v2.5h0.1c1.1-1.9,2.8-2.9,5-2.9c1.8,0,3.3,0.6,4.3,1.9
				c1,1.3,1.6,3,1.6,5.2c0,2.4-0.6,4.3-1.8,5.8c-1.2,1.4-2.8,2.2-4.8,2.2C60.5,1042.6,59.1,1041.8,58.1,1040.2z M58,1034.4v2
				c0,1.2,0.4,2.2,1.2,3s1.7,1.2,2.9,1.2c1.4,0,2.5-0.5,3.3-1.6c0.8-1.1,1.2-2.5,1.2-4.4c0-1.6-0.4-2.8-1.1-3.8s-1.7-1.4-3-1.4
				c-1.3,0-2.4,0.5-3.2,1.4S58,1033,58,1034.4z"/>
			<path class="st1" d="M85.5,1042.3h-2.3v-2.4h-0.1c-1.1,1.8-2.7,2.8-4.9,2.8c-1.8,0-3.2-0.6-4.3-1.9s-1.6-3-1.6-5.2
				c0-2.4,0.6-4.3,1.8-5.7c1.2-1.4,2.8-2.1,4.8-2.1c2,0,3.4,0.8,4.3,2.3h0.1v-8.9h2.3V1042.3z M83.2,1035.8v-2.1
				c0-1.2-0.4-2.1-1.1-2.9s-1.7-1.2-2.9-1.2c-1.4,0-2.5,0.5-3.3,1.5c-0.8,1-1.2,2.4-1.2,4.3c0,1.7,0.4,3,1.2,3.9
				c0.8,1,1.8,1.4,3.1,1.4c1.3,0,2.3-0.5,3.1-1.4S83.2,1037.2,83.2,1035.8z"/>
			<path class="st1" d="M98,1023.1c-0.4-0.3-1-0.4-1.5-0.4c-1.6,0-2.4,1-2.4,3v2.2h3.4v2H94v12.4h-2.3v-12.4h-2.4v-2h2.4v-2.3
				c0-1.5,0.4-2.7,1.3-3.6c0.9-0.9,2-1.3,3.2-1.3c0.7,0,1.3,0.1,1.7,0.3V1023.1z"/>
		</g>
		<g>
			<path class="st1" d="M110.5,1040.2L110.5,1040.2l-0.1,2.1h-2.3v-21.2h2.3v9.4h0.1c1.1-1.9,2.8-2.9,5-2.9c1.8,0,3.3,0.6,4.3,1.9
				c1,1.3,1.6,3,1.6,5.2c0,2.4-0.6,4.3-1.8,5.8c-1.2,1.4-2.8,2.2-4.8,2.2C112.9,1042.6,111.5,1041.8,110.5,1040.2z M110.5,1034.4v2
				c0,1.2,0.4,2.2,1.2,3c0.8,0.8,1.7,1.2,2.9,1.2c1.4,0,2.5-0.5,3.3-1.6c0.8-1.1,1.2-2.5,1.2-4.4c0-1.6-0.4-2.8-1.1-3.8
				s-1.7-1.4-3-1.4c-1.3,0-2.4,0.5-3.2,1.4C110.9,1031.9,110.5,1033,110.5,1034.4z"/>
			<path class="st1" d="M133.2,1030.3c-0.4-0.3-1-0.5-1.7-0.5c-1,0-1.8,0.5-2.5,1.4c-0.7,0.9-1,2.2-1,3.8v7.3h-2.3v-14.3h2.3v3h0.1
				c0.3-1,0.8-1.8,1.5-2.4c0.7-0.6,1.4-0.8,2.3-0.8c0.6,0,1.1,0.1,1.4,0.2V1030.3z"/>
			<path class="st1" d="M147.9,1035.7h-10.1c0,1.6,0.5,2.8,1.3,3.7c0.8,0.9,2,1.3,3.4,1.3c1.6,0,3.1-0.5,4.5-1.6v2.2
				c-1.3,0.9-2.9,1.4-5,1.4c-2,0-3.6-0.7-4.8-2s-1.7-3.1-1.7-5.5c0-2.2,0.6-4,1.9-5.5c1.3-1.4,2.8-2.1,4.7-2.1s3.3,0.6,4.4,1.8
				c1,1.2,1.5,2.9,1.5,5.1V1035.7z M145.6,1033.7c0-1.3-0.3-2.4-1-3.1s-1.5-1.1-2.6-1.1c-1.1,0-2,0.4-2.8,1.2
				c-0.8,0.8-1.2,1.8-1.4,3H145.6z"/>
			<path class="st1" d="M170.2,1027.9l-4.3,14.3h-2.4l-3-10.3c-0.1-0.4-0.2-0.8-0.2-1.3h-0.1c0,0.3-0.1,0.8-0.3,1.3l-3.2,10.3h-2.3
				l-4.3-14.3h2.4l3,10.8c0.1,0.3,0.2,0.8,0.2,1.3h0.1c0-0.4,0.1-0.8,0.3-1.3l3.3-10.8h2.1l3,10.8c0.1,0.3,0.2,0.8,0.2,1.3h0.1
				c0-0.4,0.1-0.8,0.2-1.3l2.9-10.8H170.2z"/>
			<path class="st1" d="M185.1,1035.7H175c0,1.6,0.5,2.8,1.3,3.7c0.8,0.9,2,1.3,3.4,1.3c1.6,0,3.1-0.5,4.5-1.6v2.2
				c-1.3,0.9-2.9,1.4-5,1.4c-2,0-3.6-0.7-4.8-2s-1.7-3.1-1.7-5.5c0-2.2,0.6-4,1.9-5.5c1.3-1.4,2.8-2.1,4.7-2.1s3.3,0.6,4.4,1.8
				c1,1.2,1.5,2.9,1.5,5.1V1035.7z M182.7,1033.7c0-1.3-0.3-2.4-1-3.1s-1.5-1.1-2.6-1.1c-1.1,0-2,0.4-2.8,1.2
				c-0.8,0.8-1.2,1.8-1.4,3H182.7z"/>
			<path class="st1" d="M196.8,1030.3c-0.4-0.3-1-0.5-1.7-0.5c-1,0-1.8,0.5-2.5,1.4c-0.7,0.9-1,2.2-1,3.8v7.3h-2.3v-14.3h2.3v3h0.1
				c0.3-1,0.8-1.8,1.5-2.4c0.7-0.6,1.4-0.8,2.3-0.8c0.6,0,1.1,0.1,1.4,0.2V1030.3z"/>
		</g>
	</g>
</g>
<g>
	<g>
		<path class="st2" d="M-3.3,1024.6h-3v-3.7l-16.4,0v3.3h1.6v-1.7l13.2,0v2.2h-17.9v12.2h3.1v6.5h12.3c2.2,0,4.1-1.8,4.1-4.1v-2.5h3
			V1024.6z M-7.9,1039.3c0,1.4-1.1,2.5-2.5,2.5h-10.8v-5h13.2V1039.3z"/>
	</g>
	<g>
		<path class="st3" d="M-23.8,1027.3c0.5-0.1,1.1-0.1,2-0.1c0.9,0,1.6,0.2,2,0.6c0.4,0.4,0.7,0.9,0.7,1.6c0,0.7-0.2,1.3-0.6,1.6
			c-0.5,0.5-1.3,0.7-2.2,0.7c-0.2,0-0.4,0-0.5,0l0,2.5l-1.5,0L-23.8,1027.3z M-22.4,1030.5c0.1,0,0.3,0,0.5,0c0.8,0,1.3-0.4,1.3-1.1
			c0-0.6-0.4-1-1.2-1c-0.3,0-0.5,0-0.6,0.1L-22.4,1030.5z"/>
		<path class="st3" d="M-17.1,1027.4c0.6-0.1,1.3-0.1,2-0.1c1.3,0,2.1,0.2,2.7,0.8c0.7,0.5,1.1,1.4,1.1,2.6c0,1.3-0.5,2.2-1.1,2.8
			c-0.7,0.6-1.8,0.9-3.1,0.9c-0.8,0-1.3-0.1-1.7-0.1L-17.1,1027.4z M-15.6,1033c0.1,0,0.3,0,0.5,0c1.4,0,2.3-0.8,2.3-2.4
			c0-1.4-0.8-2.2-2.1-2.2c-0.3,0-0.6,0-0.7,0.1L-15.6,1033z"/>
		<path class="st3" d="M-9.2,1027.3l4.1,0l0,1.3l-2.6,0l0,1.6l2.4,0l0,1.3l-2.4,0l0,2.8l-1.5,0L-9.2,1027.3z"/>
	</g>
</g>
<g>
	<defs>
		<rect id="SVGID_3_" x="-28.9" y="1012.9" width="230" height="38"/>
	</defs>
	<clipPath id="SVGID_4_">
		<use xlink:href="#SVGID_3_"  style="overflow:visible;"/>
	</clipPath>
	<g class="st4">
		<g>
			<path class="st1" d="M19.9,1041.4c-1.5,0.8-3.3,1.2-5.5,1.2c-2.9,0-5.1-0.9-6.9-2.8c-1.7-1.8-2.6-4.3-2.6-7.2
				c0-3.2,1-5.8,2.9-7.8c1.9-2,4.4-3,7.4-3c1.9,0,3.5,0.3,4.7,0.8v2.5c-1.4-0.8-3-1.2-4.8-1.2c-2.3,0-4.2,0.8-5.6,2.3
				s-2.1,3.6-2.1,6.2c0,2.4,0.7,4.4,2,5.8c1.3,1.5,3.1,2.2,5.3,2.2c2,0,3.8-0.4,5.2-1.3V1041.4z"/>
			<path class="st1" d="M27.1,1042.3h-2.4v-20.1h2.4V1042.3z"/>
			<path class="st1" d="M33.1,1042.3v-20.1h5.7c1.7,0,3.1,0.4,4.1,1.3c1,0.8,1.5,2,1.5,3.3c0,1.1-0.3,2.1-0.9,3
				c-0.6,0.8-1.5,1.4-2.5,1.8v0.1c1.4,0.2,2.4,0.7,3.2,1.5s1.2,2,1.2,3.4c0,1.7-0.6,3.1-1.8,4.2c-1.2,1.1-2.8,1.6-4.7,1.6H33.1z
				 M35.4,1024.3v6.5h2.4c1.3,0,2.3-0.3,3-0.9c0.7-0.6,1.1-1.5,1.1-2.6c0-1.9-1.3-2.9-3.8-2.9H35.4z M35.4,1032.9v7.2h3.2
				c1.4,0,2.5-0.3,3.2-1c0.8-0.7,1.1-1.5,1.1-2.7c0-2.4-1.6-3.6-4.8-3.6H35.4z"/>
		</g>
		<g>
			<path class="st1" d="M58.1,1040.2L58.1,1040.2l-0.1,8.7h-2.3v-20.9H58v2.5h0.1c1.1-1.9,2.8-2.9,5-2.9c1.8,0,3.3,0.6,4.3,1.9
				c1,1.3,1.6,3,1.6,5.2c0,2.4-0.6,4.3-1.8,5.8c-1.2,1.4-2.8,2.2-4.8,2.2C60.5,1042.6,59.1,1041.8,58.1,1040.2z M58,1034.4v2
				c0,1.2,0.4,2.2,1.2,3s1.7,1.2,2.9,1.2c1.4,0,2.5-0.5,3.3-1.6c0.8-1.1,1.2-2.5,1.2-4.4c0-1.6-0.4-2.8-1.1-3.8s-1.7-1.4-3-1.4
				c-1.3,0-2.4,0.5-3.2,1.4S58,1033,58,1034.4z"/>
			<path class="st1" d="M85.5,1042.3h-2.3v-2.4h-0.1c-1.1,1.8-2.7,2.8-4.9,2.8c-1.8,0-3.2-0.6-4.3-1.9s-1.6-3-1.6-5.2
				c0-2.4,0.6-4.3,1.8-5.7c1.2-1.4,2.8-2.1,4.8-2.1c2,0,3.4,0.8,4.3,2.3h0.1v-8.9h2.3V1042.3z M83.2,1035.8v-2.1
				c0-1.2-0.4-2.1-1.1-2.9s-1.7-1.2-2.9-1.2c-1.4,0-2.5,0.5-3.3,1.5c-0.8,1-1.2,2.4-1.2,4.3c0,1.7,0.4,3,1.2,3.9
				c0.8,1,1.8,1.4,3.1,1.4c1.3,0,2.3-0.5,3.1-1.4S83.2,1037.2,83.2,1035.8z"/>
			<path class="st1" d="M98,1023.1c-0.4-0.3-1-0.4-1.5-0.4c-1.6,0-2.4,1-2.4,3v2.2h3.4v2H94v12.4h-2.3v-12.4h-2.4v-2h2.4v-2.3
				c0-1.5,0.4-2.7,1.3-3.6c0.9-0.9,2-1.3,3.2-1.3c0.7,0,1.3,0.1,1.7,0.3V1023.1z"/>
		</g>
		<g>
			<path class="st1" d="M110.5,1040.2L110.5,1040.2l-0.1,2.1h-2.3v-21.2h2.3v9.4h0.1c1.1-1.9,2.8-2.9,5-2.9c1.8,0,3.3,0.6,4.3,1.9
				c1,1.3,1.6,3,1.6,5.2c0,2.4-0.6,4.3-1.8,5.8c-1.2,1.4-2.8,2.2-4.8,2.2C112.9,1042.6,111.5,1041.8,110.5,1040.2z M110.5,1034.4v2
				c0,1.2,0.4,2.2,1.2,3c0.8,0.8,1.7,1.2,2.9,1.2c1.4,0,2.5-0.5,3.3-1.6c0.8-1.1,1.2-2.5,1.2-4.4c0-1.6-0.4-2.8-1.1-3.8
				s-1.7-1.4-3-1.4c-1.3,0-2.4,0.5-3.2,1.4C110.9,1031.9,110.5,1033,110.5,1034.4z"/>
			<path class="st1" d="M133.2,1030.3c-0.4-0.3-1-0.5-1.7-0.5c-1,0-1.8,0.5-2.5,1.4c-0.7,0.9-1,2.2-1,3.8v7.3h-2.3v-14.3h2.3v3h0.1
				c0.3-1,0.8-1.8,1.5-2.4c0.7-0.6,1.4-0.8,2.3-0.8c0.6,0,1.1,0.1,1.4,0.2V1030.3z"/>
			<path class="st1" d="M147.9,1035.7h-10.1c0,1.6,0.5,2.8,1.3,3.7c0.8,0.9,2,1.3,3.4,1.3c1.6,0,3.1-0.5,4.5-1.6v2.2
				c-1.3,0.9-2.9,1.4-5,1.4c-2,0-3.6-0.7-4.8-2s-1.7-3.1-1.7-5.5c0-2.2,0.6-4,1.9-5.5c1.3-1.4,2.8-2.1,4.7-2.1s3.3,0.6,4.4,1.8
				c1,1.2,1.5,2.9,1.5,5.1V1035.7z M145.6,1033.7c0-1.3-0.3-2.4-1-3.1s-1.5-1.1-2.6-1.1c-1.1,0-2,0.4-2.8,1.2
				c-0.8,0.8-1.2,1.8-1.4,3H145.6z"/>
			<path class="st1" d="M170.2,1027.9l-4.3,14.3h-2.4l-3-10.3c-0.1-0.4-0.2-0.8-0.2-1.3h-0.1c0,0.3-0.1,0.8-0.3,1.3l-3.2,10.3h-2.3
				l-4.3-14.3h2.4l3,10.8c0.1,0.3,0.2,0.8,0.2,1.3h0.1c0-0.4,0.1-0.8,0.3-1.3l3.3-10.8h2.1l3,10.8c0.1,0.3,0.2,0.8,0.2,1.3h0.1
				c0-0.4,0.1-0.8,0.2-1.3l2.9-10.8H170.2z"/>
			<path class="st1" d="M185.1,1035.7H175c0,1.6,0.5,2.8,1.3,3.7c0.8,0.9,2,1.3,3.4,1.3c1.6,0,3.1-0.5,4.5-1.6v2.2
				c-1.3,0.9-2.9,1.4-5,1.4c-2,0-3.6-0.7-4.8-2s-1.7-3.1-1.7-5.5c0-2.2,0.6-4,1.9-5.5c1.3-1.4,2.8-2.1,4.7-2.1s3.3,0.6,4.4,1.8
				c1,1.2,1.5,2.9,1.5,5.1V1035.7z M182.7,1033.7c0-1.3-0.3-2.4-1-3.1s-1.5-1.1-2.6-1.1c-1.1,0-2,0.4-2.8,1.2
				c-0.8,0.8-1.2,1.8-1.4,3H182.7z"/>
			<path class="st1" d="M196.8,1030.3c-0.4-0.3-1-0.5-1.7-0.5c-1,0-1.8,0.5-2.5,1.4c-0.7,0.9-1,2.2-1,3.8v7.3h-2.3v-14.3h2.3v3h0.1
				c0.3-1,0.8-1.8,1.5-2.4c0.7-0.6,1.4-0.8,2.3-0.8c0.6,0,1.1,0.1,1.4,0.2V1030.3z"/>
		</g>
	</g>
</g>
<g>
	<g>
		<path class="st2" d="M-3.3,1024.6h-3v-3.7l-16.4,0v3.3h1.6v-1.7l13.2,0v2.2h-17.9v12.2h3.1v6.5h12.3c2.2,0,4.1-1.8,4.1-4.1v-2.5h3
			V1024.6z M-7.9,1039.3c0,1.4-1.1,2.5-2.5,2.5h-10.8v-5h13.2V1039.3z"/>
	</g>
	<g>
		<path class="st3" d="M-23.8,1027.3c0.5-0.1,1.1-0.1,2-0.1c0.9,0,1.6,0.2,2,0.6c0.4,0.4,0.7,0.9,0.7,1.6c0,0.7-0.2,1.3-0.6,1.6
			c-0.5,0.5-1.3,0.7-2.2,0.7c-0.2,0-0.4,0-0.5,0l0,2.5l-1.5,0L-23.8,1027.3z M-22.4,1030.5c0.1,0,0.3,0,0.5,0c0.8,0,1.3-0.4,1.3-1.1
			c0-0.6-0.4-1-1.2-1c-0.3,0-0.5,0-0.6,0.1L-22.4,1030.5z"/>
		<path class="st3" d="M-17.1,1027.4c0.6-0.1,1.3-0.1,2-0.1c1.3,0,2.1,0.2,2.7,0.8c0.7,0.5,1.1,1.4,1.1,2.6c0,1.3-0.5,2.2-1.1,2.8
			c-0.7,0.6-1.8,0.9-3.1,0.9c-0.8,0-1.3-0.1-1.7-0.1L-17.1,1027.4z M-15.6,1033c0.1,0,0.3,0,0.5,0c1.4,0,2.3-0.8,2.3-2.4
			c0-1.4-0.8-2.2-2.1-2.2c-0.3,0-0.6,0-0.7,0.1L-15.6,1033z"/>
		<path class="st3" d="M-9.2,1027.3l4.1,0l0,1.3l-2.6,0l0,1.6l2.4,0l0,1.3l-2.4,0l0,2.8l-1.5,0L-9.2,1027.3z"/>
	</g>
</g>
<g>
	<defs>
		<rect id="SVGID_5_" x="-28.9" y="1012.9" width="230" height="38"/>
	</defs>
	<clipPath id="SVGID_6_">
		<use xlink:href="#SVGID_5_"  style="overflow:visible;"/>
	</clipPath>
	<g class="st5">
		<g>
			<path class="st1" d="M19.9,1041.4c-1.5,0.8-3.3,1.2-5.5,1.2c-2.9,0-5.1-0.9-6.9-2.8c-1.7-1.8-2.6-4.3-2.6-7.2
				c0-3.2,1-5.8,2.9-7.8c1.9-2,4.4-3,7.4-3c1.9,0,3.5,0.3,4.7,0.8v2.5c-1.4-0.8-3-1.2-4.8-1.2c-2.3,0-4.2,0.8-5.6,2.3
				s-2.1,3.6-2.1,6.2c0,2.4,0.7,4.4,2,5.8c1.3,1.5,3.1,2.2,5.3,2.2c2,0,3.8-0.4,5.2-1.3V1041.4z"/>
			<path class="st1" d="M27.1,1042.3h-2.4v-20.1h2.4V1042.3z"/>
			<path class="st1" d="M33.1,1042.3v-20.1h5.7c1.7,0,3.1,0.4,4.1,1.3c1,0.8,1.5,2,1.5,3.3c0,1.1-0.3,2.1-0.9,3
				c-0.6,0.8-1.5,1.4-2.5,1.8v0.1c1.4,0.2,2.4,0.7,3.2,1.5s1.2,2,1.2,3.4c0,1.7-0.6,3.1-1.8,4.2c-1.2,1.1-2.8,1.6-4.7,1.6H33.1z
				 M35.4,1024.3v6.5h2.4c1.3,0,2.3-0.3,3-0.9c0.7-0.6,1.1-1.5,1.1-2.6c0-1.9-1.3-2.9-3.8-2.9H35.4z M35.4,1032.9v7.2h3.2
				c1.4,0,2.5-0.3,3.2-1c0.8-0.7,1.1-1.5,1.1-2.7c0-2.4-1.6-3.6-4.8-3.6H35.4z"/>
		</g>
		<g>
			<path class="st1" d="M58.1,1040.2L58.1,1040.2l-0.1,8.7h-2.3v-20.9H58v2.5h0.1c1.1-1.9,2.8-2.9,5-2.9c1.8,0,3.3,0.6,4.3,1.9
				c1,1.3,1.6,3,1.6,5.2c0,2.4-0.6,4.3-1.8,5.8c-1.2,1.4-2.8,2.2-4.8,2.2C60.5,1042.6,59.1,1041.8,58.1,1040.2z M58,1034.4v2
				c0,1.2,0.4,2.2,1.2,3s1.7,1.2,2.9,1.2c1.4,0,2.5-0.5,3.3-1.6c0.8-1.1,1.2-2.5,1.2-4.4c0-1.6-0.4-2.8-1.1-3.8s-1.7-1.4-3-1.4
				c-1.3,0-2.4,0.5-3.2,1.4S58,1033,58,1034.4z"/>
			<path class="st1" d="M85.5,1042.3h-2.3v-2.4h-0.1c-1.1,1.8-2.7,2.8-4.9,2.8c-1.8,0-3.2-0.6-4.3-1.9s-1.6-3-1.6-5.2
				c0-2.4,0.6-4.3,1.8-5.7c1.2-1.4,2.8-2.1,4.8-2.1c2,0,3.4,0.8,4.3,2.3h0.1v-8.9h2.3V1042.3z M83.2,1035.8v-2.1
				c0-1.2-0.4-2.1-1.1-2.9s-1.7-1.2-2.9-1.2c-1.4,0-2.5,0.5-3.3,1.5c-0.8,1-1.2,2.4-1.2,4.3c0,1.7,0.4,3,1.2,3.9
				c0.8,1,1.8,1.4,3.1,1.4c1.3,0,2.3-0.5,3.1-1.4S83.2,1037.2,83.2,1035.8z"/>
			<path class="st1" d="M98,1023.1c-0.4-0.3-1-0.4-1.5-0.4c-1.6,0-2.4,1-2.4,3v2.2h3.4v2H94v12.4h-2.3v-12.4h-2.4v-2h2.4v-2.3
				c0-1.5,0.4-2.7,1.3-3.6c0.9-0.9,2-1.3,3.2-1.3c0.7,0,1.3,0.1,1.7,0.3V1023.1z"/>
		</g>
		<g>
			<path class="st1" d="M110.5,1040.2L110.5,1040.2l-0.1,2.1h-2.3v-21.2h2.3v9.4h0.1c1.1-1.9,2.8-2.9,5-2.9c1.8,0,3.3,0.6,4.3,1.9
				c1,1.3,1.6,3,1.6,5.2c0,2.4-0.6,4.3-1.8,5.8c-1.2,1.4-2.8,2.2-4.8,2.2C112.9,1042.6,111.5,1041.8,110.5,1040.2z M110.5,1034.4v2
				c0,1.2,0.4,2.2,1.2,3c0.8,0.8,1.7,1.2,2.9,1.2c1.4,0,2.5-0.5,3.3-1.6c0.8-1.1,1.2-2.5,1.2-4.4c0-1.6-0.4-2.8-1.1-3.8
				s-1.7-1.4-3-1.4c-1.3,0-2.4,0.5-3.2,1.4C110.9,1031.9,110.5,1033,110.5,1034.4z"/>
			<path class="st1" d="M133.2,1030.3c-0.4-0.3-1-0.5-1.7-0.5c-1,0-1.8,0.5-2.5,1.4c-0.7,0.9-1,2.2-1,3.8v7.3h-2.3v-14.3h2.3v3h0.1
				c0.3-1,0.8-1.8,1.5-2.4c0.7-0.6,1.4-0.8,2.3-0.8c0.6,0,1.1,0.1,1.4,0.2V1030.3z"/>
			<path class="st1" d="M147.9,1035.7h-10.1c0,1.6,0.5,2.8,1.3,3.7c0.8,0.9,2,1.3,3.4,1.3c1.6,0,3.1-0.5,4.5-1.6v2.2
				c-1.3,0.9-2.9,1.4-5,1.4c-2,0-3.6-0.7-4.8-2s-1.7-3.1-1.7-5.5c0-2.2,0.6-4,1.9-5.5c1.3-1.4,2.8-2.1,4.7-2.1s3.3,0.6,4.4,1.8
				c1,1.2,1.5,2.9,1.5,5.1V1035.7z M145.6,1033.7c0-1.3-0.3-2.4-1-3.1s-1.5-1.1-2.6-1.1c-1.1,0-2,0.4-2.8,1.2
				c-0.8,0.8-1.2,1.8-1.4,3H145.6z"/>
			<path class="st1" d="M170.2,1027.9l-4.3,14.3h-2.4l-3-10.3c-0.1-0.4-0.2-0.8-0.2-1.3h-0.1c0,0.3-0.1,0.8-0.3,1.3l-3.2,10.3h-2.3
				l-4.3-14.3h2.4l3,10.8c0.1,0.3,0.2,0.8,0.2,1.3h0.1c0-0.4,0.1-0.8,0.3-1.3l3.3-10.8h2.1l3,10.8c0.1,0.3,0.2,0.8,0.2,1.3h0.1
				c0-0.4,0.1-0.8,0.2-1.3l2.9-10.8H170.2z"/>
			<path class="st1" d="M185.1,1035.7H175c0,1.6,0.5,2.8,1.3,3.7c0.8,0.9,2,1.3,3.4,1.3c1.6,0,3.1-0.5,4.5-1.6v2.2
				c-1.3,0.9-2.9,1.4-5,1.4c-2,0-3.6-0.7-4.8-2s-1.7-3.1-1.7-5.5c0-2.2,0.6-4,1.9-5.5c1.3-1.4,2.8-2.1,4.7-2.1s3.3,0.6,4.4,1.8
				c1,1.2,1.5,2.9,1.5,5.1V1035.7z M182.7,1033.7c0-1.3-0.3-2.4-1-3.1s-1.5-1.1-2.6-1.1c-1.1,0-2,0.4-2.8,1.2
				c-0.8,0.8-1.2,1.8-1.4,3H182.7z"/>
			<path class="st1" d="M196.8,1030.3c-0.4-0.3-1-0.5-1.7-0.5c-1,0-1.8,0.5-2.5,1.4c-0.7,0.9-1,2.2-1,3.8v7.3h-2.3v-14.3h2.3v3h0.1
				c0.3-1,0.8-1.8,1.5-2.4c0.7-0.6,1.4-0.8,2.3-0.8c0.6,0,1.1,0.1,1.4,0.2V1030.3z"/>
		</g>
	</g>
</g>
<g>
	<g>
		<path class="st2" d="M-3.3,1024.6h-3v-3.7l-16.4,0v3.3h1.6v-1.7l13.2,0v2.2h-17.9v12.2h3.1v6.5h12.3c2.2,0,4.1-1.8,4.1-4.1v-2.5h3
			V1024.6z M-7.9,1039.3c0,1.4-1.1,2.5-2.5,2.5h-10.8v-5h13.2V1039.3z"/>
	</g>
	<g>
		<path class="st3" d="M-23.8,1027.3c0.5-0.1,1.1-0.1,2-0.1c0.9,0,1.6,0.2,2,0.6c0.4,0.4,0.7,0.9,0.7,1.6c0,0.7-0.2,1.3-0.6,1.6
			c-0.5,0.5-1.3,0.7-2.2,0.7c-0.2,0-0.4,0-0.5,0l0,2.5l-1.5,0L-23.8,1027.3z M-22.4,1030.5c0.1,0,0.3,0,0.5,0c0.8,0,1.3-0.4,1.3-1.1
			c0-0.6-0.4-1-1.2-1c-0.3,0-0.5,0-0.6,0.1L-22.4,1030.5z"/>
		<path class="st3" d="M-17.1,1027.4c0.6-0.1,1.3-0.1,2-0.1c1.3,0,2.1,0.2,2.7,0.8c0.7,0.5,1.1,1.4,1.1,2.6c0,1.3-0.5,2.2-1.1,2.8
			c-0.7,0.6-1.8,0.9-3.1,0.9c-0.8,0-1.3-0.1-1.7-0.1L-17.1,1027.4z M-15.6,1033c0.1,0,0.3,0,0.5,0c1.4,0,2.3-0.8,2.3-2.4
			c0-1.4-0.8-2.2-2.1-2.2c-0.3,0-0.6,0-0.7,0.1L-15.6,1033z"/>
		<path class="st3" d="M-9.2,1027.3l4.1,0l0,1.3l-2.6,0l0,1.6l2.4,0l0,1.3l-2.4,0l0,2.8l-1.5,0L-9.2,1027.3z"/>
	</g>
</g>
<g>
	<defs>
		<rect id="SVGID_7_" x="-28.9" y="1012.9" width="230" height="38"/>
	</defs>
	<clipPath id="SVGID_8_">
		<use xlink:href="#SVGID_7_"  style="overflow:visible;"/>
	</clipPath>
	<g class="st6">
		<g>
			<path class="st1" d="M19.9,1041.4c-1.5,0.8-3.3,1.2-5.5,1.2c-2.9,0-5.1-0.9-6.9-2.8c-1.7-1.8-2.6-4.3-2.6-7.2
				c0-3.2,1-5.8,2.9-7.8c1.9-2,4.4-3,7.4-3c1.9,0,3.5,0.3,4.7,0.8v2.5c-1.4-0.8-3-1.2-4.8-1.2c-2.3,0-4.2,0.8-5.6,2.3
				s-2.1,3.6-2.1,6.2c0,2.4,0.7,4.4,2,5.8c1.3,1.5,3.1,2.2,5.3,2.2c2,0,3.8-0.4,5.2-1.3V1041.4z"/>
			<path class="st1" d="M27.1,1042.3h-2.4v-20.1h2.4V1042.3z"/>
			<path class="st1" d="M33.1,1042.3v-20.1h5.7c1.7,0,3.1,0.4,4.1,1.3c1,0.8,1.5,2,1.5,3.3c0,1.1-0.3,2.1-0.9,3
				c-0.6,0.8-1.5,1.4-2.5,1.8v0.1c1.4,0.2,2.4,0.7,3.2,1.5s1.2,2,1.2,3.4c0,1.7-0.6,3.1-1.8,4.2c-1.2,1.1-2.8,1.6-4.7,1.6H33.1z
				 M35.4,1024.3v6.5h2.4c1.3,0,2.3-0.3,3-0.9c0.7-0.6,1.1-1.5,1.1-2.6c0-1.9-1.3-2.9-3.8-2.9H35.4z M35.4,1032.9v7.2h3.2
				c1.4,0,2.5-0.3,3.2-1c0.8-0.7,1.1-1.5,1.1-2.7c0-2.4-1.6-3.6-4.8-3.6H35.4z"/>
		</g>
		<g>
			<path class="st1" d="M58.1,1040.2L58.1,1040.2l-0.1,8.7h-2.3v-20.9H58v2.5h0.1c1.1-1.9,2.8-2.9,5-2.9c1.8,0,3.3,0.6,4.3,1.9
				c1,1.3,1.6,3,1.6,5.2c0,2.4-0.6,4.3-1.8,5.8c-1.2,1.4-2.8,2.2-4.8,2.2C60.5,1042.6,59.1,1041.8,58.1,1040.2z M58,1034.4v2
				c0,1.2,0.4,2.2,1.2,3s1.7,1.2,2.9,1.2c1.4,0,2.5-0.5,3.3-1.6c0.8-1.1,1.2-2.5,1.2-4.4c0-1.6-0.4-2.8-1.1-3.8s-1.7-1.4-3-1.4
				c-1.3,0-2.4,0.5-3.2,1.4S58,1033,58,1034.4z"/>
			<path class="st1" d="M85.5,1042.3h-2.3v-2.4h-0.1c-1.1,1.8-2.7,2.8-4.9,2.8c-1.8,0-3.2-0.6-4.3-1.9s-1.6-3-1.6-5.2
				c0-2.4,0.6-4.3,1.8-5.7c1.2-1.4,2.8-2.1,4.8-2.1c2,0,3.4,0.8,4.3,2.3h0.1v-8.9h2.3V1042.3z M83.2,1035.8v-2.1
				c0-1.2-0.4-2.1-1.1-2.9s-1.7-1.2-2.9-1.2c-1.4,0-2.5,0.5-3.3,1.5c-0.8,1-1.2,2.4-1.2,4.3c0,1.7,0.4,3,1.2,3.9
				c0.8,1,1.8,1.4,3.1,1.4c1.3,0,2.3-0.5,3.1-1.4S83.2,1037.2,83.2,1035.8z"/>
			<path class="st1" d="M98,1023.1c-0.4-0.3-1-0.4-1.5-0.4c-1.6,0-2.4,1-2.4,3v2.2h3.4v2H94v12.4h-2.3v-12.4h-2.4v-2h2.4v-2.3
				c0-1.5,0.4-2.7,1.3-3.6c0.9-0.9,2-1.3,3.2-1.3c0.7,0,1.3,0.1,1.7,0.3V1023.1z"/>
		</g>
		<g>
			<path class="st1" d="M110.5,1040.2L110.5,1040.2l-0.1,2.1h-2.3v-21.2h2.3v9.4h0.1c1.1-1.9,2.8-2.9,5-2.9c1.8,0,3.3,0.6,4.3,1.9
				c1,1.3,1.6,3,1.6,5.2c0,2.4-0.6,4.3-1.8,5.8c-1.2,1.4-2.8,2.2-4.8,2.2C112.9,1042.6,111.5,1041.8,110.5,1040.2z M110.5,1034.4v2
				c0,1.2,0.4,2.2,1.2,3c0.8,0.8,1.7,1.2,2.9,1.2c1.4,0,2.5-0.5,3.3-1.6c0.8-1.1,1.2-2.5,1.2-4.4c0-1.6-0.4-2.8-1.1-3.8
				s-1.7-1.4-3-1.4c-1.3,0-2.4,0.5-3.2,1.4C110.9,1031.9,110.5,1033,110.5,1034.4z"/>
			<path class="st1" d="M133.2,1030.3c-0.4-0.3-1-0.5-1.7-0.5c-1,0-1.8,0.5-2.5,1.4c-0.7,0.9-1,2.2-1,3.8v7.3h-2.3v-14.3h2.3v3h0.1
				c0.3-1,0.8-1.8,1.5-2.4c0.7-0.6,1.4-0.8,2.3-0.8c0.6,0,1.1,0.1,1.4,0.2V1030.3z"/>
			<path class="st1" d="M147.9,1035.7h-10.1c0,1.6,0.5,2.8,1.3,3.7c0.8,0.9,2,1.3,3.4,1.3c1.6,0,3.1-0.5,4.5-1.6v2.2
				c-1.3,0.9-2.9,1.4-5,1.4c-2,0-3.6-0.7-4.8-2s-1.7-3.1-1.7-5.5c0-2.2,0.6-4,1.9-5.5c1.3-1.4,2.8-2.1,4.7-2.1s3.3,0.6,4.4,1.8
				c1,1.2,1.5,2.9,1.5,5.1V1035.7z M145.6,1033.7c0-1.3-0.3-2.4-1-3.1s-1.5-1.1-2.6-1.1c-1.1,0-2,0.4-2.8,1.2
				c-0.8,0.8-1.2,1.8-1.4,3H145.6z"/>
			<path class="st1" d="M170.2,1027.9l-4.3,14.3h-2.4l-3-10.3c-0.1-0.4-0.2-0.8-0.2-1.3h-0.1c0,0.3-0.1,0.8-0.3,1.3l-3.2,10.3h-2.3
				l-4.3-14.3h2.4l3,10.8c0.1,0.3,0.2,0.8,0.2,1.3h0.1c0-0.4,0.1-0.8,0.3-1.3l3.3-10.8h2.1l3,10.8c0.1,0.3,0.2,0.8,0.2,1.3h0.1
				c0-0.4,0.1-0.8,0.2-1.3l2.9-10.8H170.2z"/>
			<path class="st1" d="M185.1,1035.7H175c0,1.6,0.5,2.8,1.3,3.7c0.8,0.9,2,1.3,3.4,1.3c1.6,0,3.1-0.5,4.5-1.6v2.2
				c-1.3,0.9-2.9,1.4-5,1.4c-2,0-3.6-0.7-4.8-2s-1.7-3.1-1.7-5.5c0-2.2,0.6-4,1.9-5.5c1.3-1.4,2.8-2.1,4.7-2.1s3.3,0.6,4.4,1.8
				c1,1.2,1.5,2.9,1.5,5.1V1035.7z M182.7,1033.7c0-1.3-0.3-2.4-1-3.1s-1.5-1.1-2.6-1.1c-1.1,0-2,0.4-2.8,1.2
				c-0.8,0.8-1.2,1.8-1.4,3H182.7z"/>
			<path class="st1" d="M196.8,1030.3c-0.4-0.3-1-0.5-1.7-0.5c-1,0-1.8,0.5-2.5,1.4c-0.7,0.9-1,2.2-1,3.8v7.3h-2.3v-14.3h2.3v3h0.1
				c0.3-1,0.8-1.8,1.5-2.4c0.7-0.6,1.4-0.8,2.3-0.8c0.6,0,1.1,0.1,1.4,0.2V1030.3z"/>
		</g>
	</g>
</g>
<g>
	<g>
		<path class="st2" d="M-3.3,1024.6h-3v-3.7l-16.4,0v3.3h1.6v-1.7l13.2,0v2.2h-17.9v12.2h3.1v6.5h12.3c2.2,0,4.1-1.8,4.1-4.1v-2.5h3
			V1024.6z M-7.9,1039.3c0,1.4-1.1,2.5-2.5,2.5h-10.8v-5h13.2V1039.3z"/>
	</g>
	<g>
		<path class="st3" d="M-23.8,1027.3c0.5-0.1,1.1-0.1,2-0.1c0.9,0,1.6,0.2,2,0.6c0.4,0.4,0.7,0.9,0.7,1.6c0,0.7-0.2,1.3-0.6,1.6
			c-0.5,0.5-1.3,0.7-2.2,0.7c-0.2,0-0.4,0-0.5,0l0,2.5l-1.5,0L-23.8,1027.3z M-22.4,1030.5c0.1,0,0.3,0,0.5,0c0.8,0,1.3-0.4,1.3-1.1
			c0-0.6-0.4-1-1.2-1c-0.3,0-0.5,0-0.6,0.1L-22.4,1030.5z"/>
		<path class="st3" d="M-17.1,1027.4c0.6-0.1,1.3-0.1,2-0.1c1.3,0,2.1,0.2,2.7,0.8c0.7,0.5,1.1,1.4,1.1,2.6c0,1.3-0.5,2.2-1.1,2.8
			c-0.7,0.6-1.8,0.9-3.1,0.9c-0.8,0-1.3-0.1-1.7-0.1L-17.1,1027.4z M-15.6,1033c0.1,0,0.3,0,0.5,0c1.4,0,2.3-0.8,2.3-2.4
			c0-1.4-0.8-2.2-2.1-2.2c-0.3,0-0.6,0-0.7,0.1L-15.6,1033z"/>
		<path class="st3" d="M-9.2,1027.3l4.1,0l0,1.3l-2.6,0l0,1.6l2.4,0l0,1.3l-2.4,0l0,2.8l-1.5,0L-9.2,1027.3z"/>
	</g>
</g>
<g>
	<defs>
		<rect id="SVGID_9_" x="-29.2" y="1013.4" width="230" height="38"/>
	</defs>
	<clipPath id="SVGID_10_">
		<use xlink:href="#SVGID_9_"  style="overflow:visible;"/>
	</clipPath>
	<g class="st7">
		<g>
			<path class="st1" d="M19.7,1042c-1.5,0.8-3.3,1.2-5.5,1.2c-2.9,0-5.1-0.9-6.9-2.8c-1.7-1.8-2.6-4.3-2.6-7.2c0-3.2,1-5.8,2.9-7.8
				c1.9-2,4.4-3,7.4-3c1.9,0,3.5,0.3,4.7,0.8v2.5c-1.4-0.8-3-1.2-4.8-1.2c-2.3,0-4.2,0.8-5.6,2.3s-2.1,3.6-2.1,6.2
				c0,2.4,0.7,4.4,2,5.8c1.3,1.5,3.1,2.2,5.3,2.2c2,0,3.8-0.4,5.2-1.3V1042z"/>
			<path class="st1" d="M26.8,1042.8h-2.4v-20.1h2.4V1042.8z"/>
			<path class="st1" d="M32.8,1042.8v-20.1h5.7c1.7,0,3.1,0.4,4.1,1.3c1,0.8,1.5,2,1.5,3.3c0,1.1-0.3,2.1-0.9,3
				c-0.6,0.8-1.5,1.4-2.5,1.8v0.1c1.4,0.2,2.4,0.7,3.2,1.5s1.2,2,1.2,3.4c0,1.7-0.6,3.1-1.8,4.2c-1.2,1.1-2.8,1.6-4.7,1.6H32.8z
				 M35.2,1024.8v6.5h2.4c1.3,0,2.3-0.3,3-0.9c0.7-0.6,1.1-1.5,1.1-2.6c0-1.9-1.3-2.9-3.8-2.9H35.2z M35.2,1033.4v7.2h3.2
				c1.4,0,2.5-0.3,3.2-1c0.8-0.7,1.1-1.5,1.1-2.7c0-2.4-1.6-3.6-4.8-3.6H35.2z"/>
		</g>
		<g>
			<path class="st1" d="M57.8,1040.7L57.8,1040.7l-0.1,8.7h-2.3v-20.9h2.3v2.5h0.1c1.1-1.9,2.8-2.9,5-2.9c1.8,0,3.3,0.6,4.3,1.9
				c1,1.3,1.6,3,1.6,5.2c0,2.4-0.6,4.3-1.8,5.8c-1.2,1.4-2.8,2.2-4.8,2.2C60.2,1043.1,58.8,1042.3,57.8,1040.7z M57.7,1034.9v2
				c0,1.2,0.4,2.2,1.2,3s1.7,1.2,2.9,1.2c1.4,0,2.5-0.5,3.3-1.6c0.8-1.1,1.2-2.5,1.2-4.4c0-1.6-0.4-2.8-1.1-3.8s-1.7-1.4-3-1.4
				c-1.3,0-2.4,0.5-3.2,1.4S57.7,1033.5,57.7,1034.9z"/>
			<path class="st1" d="M85.3,1042.8H83v-2.4h-0.1c-1.1,1.8-2.7,2.8-4.9,2.8c-1.8,0-3.2-0.6-4.3-1.9s-1.6-3-1.6-5.2
				c0-2.4,0.6-4.3,1.8-5.7c1.2-1.4,2.8-2.1,4.8-2.1c2,0,3.4,0.8,4.3,2.3H83v-8.9h2.3V1042.8z M83,1036.3v-2.1c0-1.2-0.4-2.1-1.1-2.9
				s-1.7-1.2-2.9-1.2c-1.4,0-2.5,0.5-3.3,1.5c-0.8,1-1.2,2.4-1.2,4.3c0,1.7,0.4,3,1.2,3.9c0.8,1,1.8,1.4,3.1,1.4
				c1.3,0,2.3-0.5,3.1-1.4S83,1037.7,83,1036.3z"/>
			<path class="st1" d="M97.7,1023.6c-0.4-0.3-1-0.4-1.5-0.4c-1.6,0-2.4,1-2.4,3v2.2h3.4v2h-3.4v12.4h-2.3v-12.4H89v-2h2.4v-2.3
				c0-1.5,0.4-2.7,1.3-3.6c0.9-0.9,2-1.3,3.2-1.3c0.7,0,1.3,0.1,1.7,0.3V1023.6z"/>
		</g>
		<g>
			<path class="st1" d="M110.3,1040.7L110.3,1040.7l-0.1,2.1h-2.3v-21.2h2.3v9.4h0.1c1.1-1.9,2.8-2.9,5-2.9c1.8,0,3.3,0.6,4.3,1.9
				c1,1.3,1.6,3,1.6,5.2c0,2.4-0.6,4.3-1.8,5.8c-1.2,1.4-2.8,2.2-4.8,2.2C112.7,1043.1,111.2,1042.3,110.3,1040.7z M110.2,1034.9v2
				c0,1.2,0.4,2.2,1.2,3c0.8,0.8,1.7,1.2,2.9,1.2c1.4,0,2.5-0.5,3.3-1.6c0.8-1.1,1.2-2.5,1.2-4.4c0-1.6-0.4-2.8-1.1-3.8
				s-1.7-1.4-3-1.4c-1.3,0-2.4,0.5-3.2,1.4C110.6,1032.4,110.2,1033.5,110.2,1034.9z"/>
			<path class="st1" d="M133,1030.8c-0.4-0.3-1-0.5-1.7-0.5c-1,0-1.8,0.5-2.5,1.4c-0.7,0.9-1,2.2-1,3.8v7.3h-2.3v-14.3h2.3v3h0.1
				c0.3-1,0.8-1.8,1.5-2.4c0.7-0.6,1.4-0.8,2.3-0.8c0.6,0,1.1,0.1,1.4,0.2V1030.8z"/>
			<path class="st1" d="M147.7,1036.2h-10.1c0,1.6,0.5,2.8,1.3,3.7c0.8,0.9,2,1.3,3.4,1.3c1.6,0,3.1-0.5,4.5-1.6v2.2
				c-1.3,0.9-2.9,1.4-5,1.4c-2,0-3.6-0.7-4.8-2s-1.7-3.1-1.7-5.5c0-2.2,0.6-4,1.9-5.5c1.3-1.4,2.8-2.1,4.7-2.1s3.3,0.6,4.4,1.8
				c1,1.2,1.5,2.9,1.5,5.1V1036.2z M145.3,1034.3c0-1.3-0.3-2.4-1-3.1s-1.5-1.1-2.6-1.1c-1.1,0-2,0.4-2.8,1.2
				c-0.8,0.8-1.2,1.8-1.4,3H145.3z"/>
			<path class="st1" d="M169.9,1028.5l-4.3,14.3h-2.4l-3-10.3c-0.1-0.4-0.2-0.8-0.2-1.3H160c0,0.3-0.1,0.8-0.3,1.3l-3.2,10.3h-2.3
				l-4.3-14.3h2.4l3,10.8c0.1,0.3,0.2,0.8,0.2,1.3h0.1c0-0.4,0.1-0.8,0.3-1.3l3.3-10.8h2.1l3,10.8c0.1,0.3,0.2,0.8,0.2,1.3h0.1
				c0-0.4,0.1-0.8,0.2-1.3l2.9-10.8H169.9z"/>
			<path class="st1" d="M184.8,1036.2h-10.1c0,1.6,0.5,2.8,1.3,3.7c0.8,0.9,2,1.3,3.4,1.3c1.6,0,3.1-0.5,4.5-1.6v2.2
				c-1.3,0.9-2.9,1.4-5,1.4c-2,0-3.6-0.7-4.8-2s-1.7-3.1-1.7-5.5c0-2.2,0.6-4,1.9-5.5c1.3-1.4,2.8-2.1,4.7-2.1s3.3,0.6,4.4,1.8
				c1,1.2,1.5,2.9,1.5,5.1V1036.2z M182.5,1034.3c0-1.3-0.3-2.4-1-3.1s-1.5-1.1-2.6-1.1c-1.1,0-2,0.4-2.8,1.2
				c-0.8,0.8-1.2,1.8-1.4,3H182.5z"/>
			<path class="st1" d="M196.5,1030.8c-0.4-0.3-1-0.5-1.7-0.5c-1,0-1.8,0.5-2.5,1.4c-0.7,0.9-1,2.2-1,3.8v7.3H189v-14.3h2.3v3h0.1
				c0.3-1,0.8-1.8,1.5-2.4c0.7-0.6,1.4-0.8,2.3-0.8c0.6,0,1.1,0.1,1.4,0.2V1030.8z"/>
		</g>
	</g>
</g>
<g>
	<g>
		<path class="st2" d="M-3.5,1025.1h-3v-3.7l-16.4,0v3.3h1.6v-1.7l13.2,0v2.2H-26v12.2h3.1v6.5h12.3c2.2,0,4.1-1.8,4.1-4.1v-2.5h3
			V1025.1z M-8.1,1039.8c0,1.4-1.1,2.5-2.5,2.5h-10.8v-5h13.2V1039.8z"/>
	</g>
	<g>
		<path class="st3" d="M-24.1,1027.8c0.5-0.1,1.1-0.1,2-0.1c0.9,0,1.6,0.2,2,0.6c0.4,0.4,0.7,0.9,0.7,1.6c0,0.7-0.2,1.3-0.6,1.6
			c-0.5,0.5-1.3,0.7-2.2,0.7c-0.2,0-0.4,0-0.5,0l0,2.5l-1.5,0L-24.1,1027.8z M-22.6,1031c0.1,0,0.3,0,0.5,0c0.8,0,1.3-0.4,1.3-1.1
			c0-0.6-0.4-1-1.2-1c-0.3,0-0.5,0-0.6,0.1L-22.6,1031z"/>
		<path class="st3" d="M-17.3,1027.9c0.6-0.1,1.3-0.1,2-0.1c1.3,0,2.1,0.2,2.7,0.8c0.7,0.5,1.1,1.4,1.1,2.6c0,1.3-0.5,2.2-1.1,2.8
			c-0.7,0.6-1.8,0.9-3.1,0.9c-0.8,0-1.3-0.1-1.7-0.1L-17.3,1027.9z M-15.9,1033.5c0.1,0,0.3,0,0.5,0c1.4,0,2.3-0.8,2.3-2.4
			c0-1.4-0.8-2.2-2.1-2.2c-0.3,0-0.6,0-0.7,0.1L-15.9,1033.5z"/>
		<path class="st3" d="M-9.4,1027.8l4.1,0l0,1.3l-2.6,0l0,1.6l2.4,0l0,1.3l-2.4,0l0,2.8l-1.5,0L-9.4,1027.8z"/>
	</g>
</g>
<g>
	<g>
		<path class="st1" d="M49.2,28.4c-1.5,0.8-3.3,1.2-5.5,1.2c-2.9,0-5.1-0.9-6.9-2.8c-1.7-1.8-2.6-4.3-2.6-7.2c0-3.2,1-5.8,2.9-7.8
			c1.9-2,4.4-3,7.4-3c1.9,0,3.5,0.3,4.7,0.8v2.5c-1.4-0.8-3-1.2-4.8-1.2c-2.3,0-4.2,0.8-5.6,2.3s-2.1,3.6-2.1,6.2
			c0,2.4,0.7,4.4,2,5.8c1.3,1.5,3.1,2.2,5.3,2.2c2,0,3.8-0.4,5.2-1.3V28.4z"/>
		<path class="st1" d="M56.4,29.2H54V9.2h2.4V29.2z"/>
		<path class="st1" d="M62.4,29.2V9.2h5.7c1.7,0,3.1,0.4,4.1,1.3c1,0.8,1.5,2,1.5,3.3c0,1.1-0.3,2.1-0.9,3c-0.6,0.8-1.5,1.4-2.5,1.8
			v0.1c1.4,0.2,2.4,0.7,3.2,1.5s1.2,2,1.2,3.4c0,1.7-0.6,3.1-1.8,4.2c-1.2,1.1-2.8,1.6-4.7,1.6H62.4z M64.7,11.3v6.5h2.4
			c1.3,0,2.3-0.3,3-0.9c0.7-0.6,1.1-1.5,1.1-2.6c0-1.9-1.3-2.9-3.8-2.9H64.7z M64.7,19.9v7.2h3.2c1.4,0,2.5-0.3,3.2-1
			c0.8-0.7,1.1-1.5,1.1-2.7c0-2.4-1.6-3.6-4.8-3.6H64.7z"/>
	</g>
	<g>
		<path class="st1" d="M87.4,27.2L87.4,27.2l-0.1,8.7H85V14.9h2.3v2.5h0.1c1.1-1.9,2.8-2.9,5-2.9c1.8,0,3.3,0.6,4.3,1.9
			c1,1.3,1.6,3,1.6,5.2c0,2.4-0.6,4.3-1.8,5.8c-1.2,1.4-2.8,2.2-4.8,2.2C89.8,29.6,88.4,28.8,87.4,27.2z M87.3,21.4v2
			c0,1.2,0.4,2.2,1.2,3c0.8,0.8,1.7,1.2,2.9,1.2c1.4,0,2.5-0.5,3.3-1.6c0.8-1.1,1.2-2.5,1.2-4.4c0-1.6-0.4-2.8-1.1-3.8
			s-1.7-1.4-3-1.4c-1.3,0-2.4,0.5-3.2,1.4S87.3,20,87.3,21.4z"/>
		<path class="st1" d="M114.8,29.2h-2.3v-2.4h-0.1c-1.1,1.8-2.7,2.8-4.9,2.8c-1.8,0-3.2-0.6-4.3-1.9s-1.6-3-1.6-5.2
			c0-2.4,0.6-4.3,1.8-5.7c1.2-1.4,2.8-2.1,4.8-2.1c2,0,3.4,0.8,4.3,2.3h0.1V8h2.3V29.2z M112.5,22.8v-2.1c0-1.2-0.4-2.1-1.1-2.9
			s-1.7-1.2-2.9-1.2c-1.4,0-2.5,0.5-3.3,1.5c-0.8,1-1.2,2.4-1.2,4.3c0,1.7,0.4,3,1.2,3.9c0.8,1,1.8,1.4,3.1,1.4
			c1.3,0,2.3-0.5,3.1-1.4C112.1,25.3,112.5,24.2,112.5,22.8z"/>
		<path class="st1" d="M127.3,10c-0.4-0.3-1-0.4-1.5-0.4c-1.6,0-2.4,1-2.4,3v2.2h3.4v2h-3.4v12.4h-2.3V16.9h-2.4v-2h2.4v-2.3
			c0-1.5,0.4-2.7,1.3-3.6c0.9-0.9,2-1.3,3.2-1.3c0.7,0,1.3,0.1,1.7,0.3V10z"/>
	</g>
	<g>
		<path class="st1" d="M139.8,27.2L139.8,27.2l-0.1,2.1h-2.3V8h2.3v9.4h0.1c1.1-1.9,2.8-2.9,5-2.9c1.8,0,3.3,0.6,4.3,1.9
			c1,1.3,1.6,3,1.6,5.2c0,2.4-0.6,4.3-1.8,5.8c-1.2,1.4-2.8,2.2-4.8,2.2C142.2,29.6,140.8,28.8,139.8,27.2z M139.8,21.4v2
			c0,1.2,0.4,2.2,1.2,3c0.8,0.8,1.7,1.2,2.9,1.2c1.4,0,2.5-0.5,3.3-1.6c0.8-1.1,1.2-2.5,1.2-4.4c0-1.6-0.4-2.8-1.1-3.8
			s-1.7-1.4-3-1.4c-1.3,0-2.4,0.5-3.2,1.4C140.2,18.8,139.8,20,139.8,21.4z"/>
		<path class="st1" d="M162.5,17.2c-0.4-0.3-1-0.5-1.7-0.5c-1,0-1.8,0.5-2.5,1.4c-0.7,0.9-1,2.2-1,3.8v7.3H155V14.9h2.3v3h0.1
			c0.3-1,0.8-1.8,1.5-2.4c0.7-0.6,1.4-0.8,2.3-0.8c0.6,0,1.1,0.1,1.4,0.2V17.2z"/>
		<path class="st1" d="M177.3,22.6h-10.1c0,1.6,0.5,2.8,1.3,3.7c0.8,0.9,2,1.3,3.4,1.3c1.6,0,3.1-0.5,4.5-1.6v2.2
			c-1.3,0.9-2.9,1.4-5,1.4c-2,0-3.6-0.7-4.8-2s-1.7-3.1-1.7-5.5c0-2.2,0.6-4,1.9-5.5c1.3-1.4,2.8-2.1,4.7-2.1s3.3,0.6,4.4,1.8
			c1,1.2,1.5,2.9,1.5,5.1V22.6z M174.9,20.7c0-1.3-0.3-2.4-1-3.1s-1.5-1.1-2.6-1.1c-1.1,0-2,0.4-2.8,1.2c-0.8,0.8-1.2,1.8-1.4,3
			H174.9z"/>
		<path class="st1" d="M199.5,14.9l-4.3,14.3h-2.4l-3-10.3c-0.1-0.4-0.2-0.8-0.2-1.3h-0.1c0,0.3-0.1,0.8-0.3,1.3l-3.2,10.3h-2.3
			l-4.3-14.3h2.4l3,10.8c0.1,0.3,0.2,0.8,0.2,1.3h0.1c0-0.4,0.1-0.8,0.3-1.3l3.3-10.8h2.1l3,10.8c0.1,0.3,0.2,0.8,0.2,1.3h0.1
			c0-0.4,0.1-0.8,0.2-1.3l2.9-10.8H199.5z"/>
		<path class="st1" d="M214.4,22.6h-10.1c0,1.6,0.5,2.8,1.3,3.7c0.8,0.9,2,1.3,3.4,1.3c1.6,0,3.1-0.5,4.5-1.6v2.2
			c-1.3,0.9-2.9,1.4-5,1.4c-2,0-3.6-0.7-4.8-2s-1.7-3.1-1.7-5.5c0-2.2,0.6-4,1.9-5.5c1.3-1.4,2.8-2.1,4.7-2.1s3.3,0.6,4.4,1.8
			c1,1.2,1.5,2.9,1.5,5.1V22.6z M212,20.7c0-1.3-0.3-2.4-1-3.1s-1.5-1.1-2.6-1.1c-1.1,0-2,0.4-2.8,1.2c-0.8,0.8-1.2,1.8-1.4,3H212z"
			/>
		<path class="st1" d="M226.1,17.2c-0.4-0.3-1-0.5-1.7-0.5c-1,0-1.8,0.5-2.5,1.4c-0.7,0.9-1,2.2-1,3.8v7.3h-2.3V14.9h2.3v3h0.1
			c0.3-1,0.8-1.8,1.5-2.4c0.7-0.6,1.4-0.8,2.3-0.8c0.6,0,1.1,0.1,1.4,0.2V17.2z"/>
	</g>
</g>
<g>
	<g>
		<path class="st2" d="M24.1,11.6h-3V7.8l-16.4,0v3.3h1.6V9.4l13.2,0v2.2H1.6v12.2h3.1v6.5H17c2.2,0,4.1-1.8,4.1-4.1v-2.5h3V11.6z
			 M19.5,26.2c0,1.4-1.1,2.5-2.5,2.5H6.2v-5h13.2V26.2z"/>
	</g>
	<g>
		<path class="st3" d="M3.5,14.3c0.5-0.1,1.1-0.1,2-0.1c0.9,0,1.6,0.2,2,0.6c0.4,0.4,0.7,0.9,0.7,1.6C8.3,17,8,17.6,7.6,18
			c-0.5,0.5-1.3,0.7-2.2,0.7c-0.2,0-0.4,0-0.5,0l0,2.5l-1.5,0L3.5,14.3z M4.9,17.4c0.1,0,0.3,0,0.5,0c0.8,0,1.3-0.4,1.3-1.1
			c0-0.6-0.4-1-1.2-1c-0.3,0-0.5,0-0.6,0.1L4.9,17.4z"/>
		<path class="st3" d="M10.2,14.3c0.6-0.1,1.3-0.1,2-0.1c1.3,0,2.1,0.2,2.7,0.8c0.7,0.5,1.1,1.4,1.1,2.6c0,1.3-0.5,2.2-1.1,2.8
			c-0.7,0.6-1.8,0.9-3.1,0.9c-0.8,0-1.3-0.1-1.7-0.1L10.2,14.3z M11.7,20c0.1,0,0.3,0,0.5,0c1.4,0,2.3-0.8,2.3-2.4
			c0-1.4-0.8-2.2-2.1-2.2c-0.3,0-0.6,0-0.7,0.1L11.7,20z"/>
		<path class="st3" d="M18.1,14.3l4.1,0l0,1.3l-2.6,0l0,1.6l2.4,0l0,1.3l-2.4,0l0,2.8l-1.5,0L18.1,14.3z"/>
	</g>
</g>
</svg>
