<?xml version="1.0" encoding="utf-8"?>
<!-- Generator: Adobe Illustrator 24.1.3, SVG Export Plug-In . SVG Version: 6.00 Build 0)  -->
<svg version="1.1" id="Layer_1" xmlns="http://www.w3.org/2000/svg" xmlns:xlink="http://www.w3.org/1999/xlink" x="0px" y="0px"
	 viewBox="0 0 203.9 38" style="enable-background:new 0 0 203.9 38;" xml:space="preserve">
<style type="text/css">
	.st0{fill:#212934;}
	.st1{fill:#E11E19;}
</style>
<g>
	<g>
		<path class="st0" d="M50.1,28.6c-1.5,0.8-3.3,1.2-5.5,1.2c-2.9,0-5.1-0.9-6.9-2.8c-1.7-1.8-2.6-4.3-2.6-7.2c0-3.2,1-5.8,2.9-7.8
			s4.4-3,7.4-3c1.9,0,3.5,0.3,4.7,0.8v2.5c-1.4-0.8-3-1.2-4.8-1.2c-2.3,0-4.2,0.8-5.6,2.3s-2.1,3.6-2.1,6.2c0,2.4,0.7,4.4,2,5.8
			c1.3,1.5,3.1,2.2,5.3,2.2c2,0,3.8-0.4,5.2-1.3V28.6z"/>
		<path class="st0" d="M57.3,29.5h-2.4V9.4h2.4V29.5z"/>
		<path class="st0" d="M63.3,29.5V9.4H69c1.7,0,3.1,0.4,4.1,1.3c1,0.8,1.5,2,1.5,3.3c0,1.1-0.3,2.1-0.9,3c-0.6,0.8-1.5,1.4-2.5,1.8
			v0.1c1.4,0.2,2.4,0.7,3.2,1.5s1.2,2,1.2,3.4c0,1.7-0.6,3.1-1.8,4.2c-1.2,1.1-2.8,1.6-4.7,1.6H63.3z M65.6,11.5V18H68
			c1.3,0,2.3-0.3,3-0.9s1.1-1.5,1.1-2.6c0-2-1.3-2.9-3.8-2.9H65.6z M65.6,20.1v7.2h3.2c1.4,0,2.5-0.3,3.2-1s1.1-1.5,1.1-2.7
			c0-2.4-1.6-3.6-4.8-3.6H65.6z"/>
	</g>
	<g>
		<path class="st0" d="M98.4,29.9h-2.3v-2.4h-0.1c-1.1,1.8-2.7,2.8-4.9,2.8c-1.8,0-3.2-0.6-4.3-1.9s-1.6-3-1.6-5.2
			c0-2.4,0.6-4.3,1.8-5.7c1.2-1.4,2.8-2.1,4.8-2.1c2,0,3.4,0.8,4.3,2.3h0.1V8.7h2.3V29.9z M96.1,23.5v-2.1c0-1.2-0.4-2.1-1.1-2.9
			s-1.7-1.2-2.9-1.2c-1.4,0-2.5,0.5-3.3,1.5c-0.8,1-1.2,2.4-1.2,4.3c0,1.7,0.4,3,1.2,3.9c0.8,1,1.8,1.4,3.1,1.4
			c1.3,0,2.3-0.5,3.1-1.4S96.1,24.9,96.1,23.5z"/>
		<path class="st0" d="M109.8,30.3c-2.1,0-3.8-0.7-5.1-2c-1.3-1.3-1.9-3.1-1.9-5.3c0-2.4,0.7-4.3,2-5.6c1.3-1.4,3.1-2,5.3-2
			c2.1,0,3.8,0.7,5,2c1.2,1.3,1.8,3.1,1.8,5.5c0,2.3-0.6,4.1-1.9,5.5C113.7,29.6,112,30.3,109.8,30.3z M110,17.2
			c-1.5,0-2.6,0.5-3.5,1.5c-0.9,1-1.3,2.4-1.3,4.2c0,1.7,0.4,3,1.3,4c0.9,1,2,1.5,3.5,1.5c1.5,0,2.6-0.5,3.4-1.4
			c0.8-1,1.2-2.3,1.2-4.1c0-1.8-0.4-3.2-1.2-4.1C112.6,17.7,111.4,17.2,110,17.2z"/>
		<path class="st0" d="M135.5,29.9h-2.9l-4.6-7.7c-0.1-0.2-0.3-0.6-0.5-1h-0.1c-0.1,0.2-0.3,0.5-0.5,1l-4.8,7.7h-2.9l6.7-10.1
			l-6.2-10h2.9l4.1,7.1c0.3,0.5,0.5,0.9,0.7,1.4h0.1c0.3-0.6,0.6-1.1,0.8-1.5l4.3-7h2.7l-6.3,10L135.5,29.9z"/>
		<path class="st0" d="M140.1,12c-0.4,0-0.8-0.1-1-0.4c-0.3-0.3-0.4-0.6-0.4-1.1s0.1-0.8,0.4-1.1c0.3-0.3,0.6-0.4,1-0.4
			c0.4,0,0.8,0.1,1.1,0.4c0.3,0.3,0.4,0.6,0.4,1.1c0,0.4-0.1,0.8-0.4,1C140.9,11.8,140.5,12,140.1,12z M141.2,29.9h-2.3V15.6h2.3
			V29.9z"/>
		<path class="st0" d="M158.8,28.8c0,5.3-2.5,7.9-7.6,7.9c-1.8,0-3.3-0.3-4.6-1v-2.3c1.6,0.9,3.2,1.3,4.6,1.3c3.5,0,5.3-1.9,5.3-5.6
			v-1.6h-0.1c-1.1,1.8-2.7,2.7-4.9,2.7c-1.8,0-3.2-0.6-4.3-1.9c-1.1-1.3-1.6-3-1.6-5.1c0-2.4,0.6-4.4,1.8-5.8
			c1.2-1.4,2.8-2.2,4.8-2.2c1.9,0,3.4,0.8,4.3,2.3h0.1v-2h2.3V28.8z M156.5,23.5v-2.1c0-1.1-0.4-2.1-1.2-2.9
			c-0.8-0.8-1.7-1.2-2.9-1.2c-1.4,0-2.5,0.5-3.3,1.5c-0.8,1-1.2,2.5-1.2,4.3c0,1.6,0.4,2.9,1.2,3.8c0.8,1,1.8,1.4,3.1,1.4
			c1.3,0,2.3-0.5,3.1-1.4C156.1,26.1,156.5,24.9,156.5,23.5z"/>
		<path class="st0" d="M174.5,29.9h-2.3v-2.2h-0.1c-1,1.7-2.5,2.6-4.4,2.6c-1.4,0-2.5-0.4-3.4-1.1c-0.8-0.8-1.2-1.8-1.2-3
			c0-2.7,1.6-4.2,4.7-4.7l4.3-0.6c0-2.4-1-3.7-3-3.7c-1.7,0-3.3,0.6-4.7,1.8v-2.4c1.4-0.9,3-1.3,4.9-1.3c3.4,0,5.1,1.8,5.1,5.3V29.9
			z M172.2,22.7l-3.5,0.5c-1.1,0.1-1.9,0.4-2.4,0.8s-0.8,1-0.8,2c0,0.7,0.2,1.3,0.7,1.7c0.5,0.4,1.2,0.7,2,0.7
			c1.1,0,2.1-0.4,2.8-1.2s1.1-1.8,1.1-3V22.7z"/>
		<path class="st0" d="M186.2,29.8c-0.5,0.3-1.3,0.4-2.1,0.4c-2.5,0-3.8-1.4-3.8-4.2v-8.5h-2.5v-2h2.5v-3.5l2.3-0.7v4.2h3.6v2h-3.6
			v8.1c0,1,0.2,1.6,0.5,2.1c0.3,0.4,0.9,0.6,1.6,0.6c0.6,0,1.1-0.2,1.5-0.5V29.8z"/>
		<path class="st0" d="M201.5,23.3h-10.1c0,1.6,0.5,2.8,1.3,3.7s2,1.3,3.4,1.3c1.6,0,3.1-0.5,4.5-1.6v2.2c-1.3,0.9-2.9,1.4-5,1.4
			c-2,0-3.6-0.7-4.8-2s-1.7-3.1-1.7-5.5c0-2.2,0.6-4,1.9-5.5c1.3-1.4,2.8-2.1,4.7-2.1s3.3,0.6,4.4,1.8c1,1.2,1.5,2.9,1.5,5.1V23.3z
			 M199.1,21.4c0-1.3-0.3-2.4-1-3.1s-1.5-1.1-2.6-1.1c-1.1,0-2,0.4-2.8,1.2c-0.8,0.8-1.2,1.8-1.4,3H199.1z"/>
	</g>
	<g>
		<g>
			<g>
				<path class="st1" d="M9.3,10.4v2h13.1c0.2,0,0.5,0,0.8,0.3c0.3,0.3,0.4,0.8,0.4,1.4v1.3H9.3v2.2l-4.8-3.6L9.3,10.4z M9.9,8.3
					c-0.1,0-0.1,0-0.2,0.1l-6.9,5.1c-0.3,0.2-0.3,0.7,0,0.9l6.9,5.1c0.1,0,0.1,0.1,0.2,0.1c0.2,0,0.4-0.2,0.4-0.5v-1.5
					c0-0.3,0.2-0.5,0.4-0.5h14c0.2,0,0.4-0.2,0.4-0.5v-2.4c0-2.3-1.3-3.2-2.7-3.2H10.7c-0.2,0-0.4-0.2-0.4-0.5V8.8
					C10.3,8.5,10.1,8.3,9.9,8.3L9.9,8.3z"/>
			</g>
		</g>
		<g>
			<g>
				<path class="st1" d="M5.3,28.3H17c0.2,0,0.4,0.2,0.4,0.5v1.5c0,0.4,0.3,0.6,0.6,0.4l6.9-5.1c0.3-0.2,0.3-0.7,0-0.9L18,19.7
					c-0.3-0.2-0.6,0-0.6,0.4v1.5c0,0.3-0.2,0.5-0.4,0.5H3c-0.2,0-0.4,0.2-0.4,0.5V25C2.6,27.3,3.9,28.3,5.3,28.3z"/>
			</g>
		</g>
	</g>
</g>
</svg>
