<?xml version="1.0" encoding="utf-8"?>
<!-- Generator: Adobe Illustrator 24.1.3, SVG Export Plug-In . SVG Version: 6.00 Build 0)  -->
<svg version="1.1" id="Wortbildmarke" xmlns="http://www.w3.org/2000/svg" xmlns:xlink="http://www.w3.org/1999/xlink" x="0px"
	 y="0px" viewBox="0 0 199 38" style="enable-background:new 0 0 199 38;" xml:space="preserve">
<style type="text/css">
	.st0{clip-path:url(#SVGID_2_);}
	.st1{fill:#212934;}
	.st2{fill:#E11E19;}
</style>
<g>
	<defs>
		<rect id="SVGID_1_" x="1" y="0.5" width="196" height="38"/>
	</defs>
	<clipPath id="SVGID_2_">
		<use xlink:href="#SVGID_1_"  style="overflow:visible;"/>
	</clipPath>
	<g class="st0">
		<g>
			<path class="st1" d="M47,28.7c-1.5,0.8-3.3,1.2-5.5,1.2c-2.9,0-5.1-0.9-6.9-2.8c-1.7-1.8-2.6-4.3-2.6-7.2c0-3.2,1-5.8,2.9-7.8
				c1.9-2,4.4-3,7.4-3c1.9,0,3.5,0.3,4.7,0.8v2.5c-1.4-0.8-3-1.2-4.8-1.2c-2.3,0-4.2,0.8-5.6,2.3s-2.1,3.6-2.1,6.2
				c0,2.4,0.7,4.4,2,5.8c1.3,1.5,3.1,2.2,5.3,2.2c2,0,3.8-0.4,5.2-1.3V28.7z"/>
			<path class="st1" d="M54.1,29.6h-2.4V9.5h2.4V29.6z"/>
			<path class="st1" d="M60.1,29.6V9.5h5.7c1.7,0,3.1,0.4,4.1,1.3c1,0.8,1.5,2,1.5,3.3c0,1.1-0.3,2.1-0.9,3
				c-0.6,0.8-1.5,1.4-2.5,1.8v0.1c1.4,0.2,2.4,0.7,3.2,1.5c0.8,0.9,1.2,2,1.2,3.4c0,1.7-0.6,3.1-1.8,4.2c-1.2,1.1-2.8,1.6-4.7,1.6
				H60.1z M62.5,11.6v6.5h2.4c1.3,0,2.3-0.3,3-0.9c0.7-0.6,1.1-1.5,1.1-2.6c0-2-1.3-2.9-3.8-2.9H62.5z M62.5,20.2v7.2h3.2
				c1.4,0,2.5-0.3,3.2-1s1.1-1.5,1.1-2.7c0-2.4-1.6-3.6-4.8-3.6H62.5z"/>
		</g>
		<g>
			<path class="st1" d="M96.2,29.8h-2.3v-2.4h-0.1c-1.1,1.8-2.7,2.8-4.9,2.8c-1.8,0-3.2-0.6-4.3-1.9s-1.6-3-1.6-5.2
				c0-2.4,0.6-4.3,1.8-5.7c1.2-1.4,2.8-2.1,4.8-2.1c2,0,3.4,0.8,4.3,2.3h0.1V8.5h2.3V29.8z M93.9,23.3v-2.1c0-1.2-0.4-2.1-1.1-2.9
				S91,17,89.8,17c-1.4,0-2.5,0.5-3.3,1.5c-0.8,1-1.2,2.4-1.2,4.3c0,1.7,0.4,3,1.2,3.9c0.8,1,1.8,1.4,3.1,1.4c1.3,0,2.3-0.5,3.1-1.4
				S93.9,24.7,93.9,23.3z"/>
			<path class="st1" d="M107.6,30.1c-2.1,0-3.8-0.7-5.1-2s-1.9-3.1-1.9-5.3c0-2.4,0.7-4.3,2-5.6c1.3-1.4,3.1-2,5.3-2
				c2.1,0,3.8,0.7,5,2c1.2,1.3,1.8,3.1,1.8,5.5c0,2.3-0.6,4.1-1.9,5.5C111.5,29.4,109.7,30.1,107.6,30.1z M107.7,17
				c-1.5,0-2.6,0.5-3.5,1.5c-0.9,1-1.3,2.4-1.3,4.2c0,1.7,0.4,3,1.3,4c0.9,1,2,1.5,3.5,1.5c1.5,0,2.6-0.5,3.4-1.4
				c0.8-1,1.2-2.3,1.2-4.1c0-1.8-0.4-3.2-1.2-4.1C110.4,17.5,109.2,17,107.7,17z"/>
			<path class="st1" d="M133.3,29.8h-2.9l-4.6-7.7c-0.1-0.2-0.3-0.6-0.5-1h-0.1c-0.1,0.2-0.3,0.5-0.5,1l-4.8,7.7h-2.9l6.7-10.1
				l-6.2-10h2.9l4.1,7.1c0.3,0.5,0.5,0.9,0.7,1.4h0.1c0.3-0.6,0.6-1.1,0.8-1.5l4.3-7h2.7l-6.3,10L133.3,29.8z"/>
			<path class="st1" d="M137.9,11.8c-0.4,0-0.8-0.1-1-0.4c-0.3-0.3-0.4-0.6-0.4-1.1c0-0.4,0.1-0.8,0.4-1.1c0.3-0.3,0.6-0.4,1-0.4
				c0.4,0,0.8,0.1,1.1,0.4c0.3,0.3,0.4,0.6,0.4,1.1c0,0.4-0.1,0.8-0.4,1C138.7,11.6,138.3,11.8,137.9,11.8z M139,29.8h-2.3V15.4h2.3
				V29.8z"/>
			<path class="st1" d="M143.5,29.2v-2.5c1.3,0.9,2.6,1.4,4.1,1.4c2,0,3-0.7,3-2c0-0.4-0.1-0.7-0.3-1s-0.4-0.5-0.7-0.7
				c-0.3-0.2-0.6-0.4-1-0.6c-0.4-0.2-0.8-0.3-1.3-0.5c-0.6-0.3-1.2-0.5-1.7-0.8c-0.5-0.3-0.9-0.5-1.2-0.9c-0.3-0.3-0.6-0.7-0.7-1.1
				c-0.2-0.4-0.2-0.9-0.2-1.4c0-0.7,0.2-1.3,0.5-1.8c0.3-0.5,0.7-1,1.2-1.3c0.5-0.3,1.1-0.6,1.8-0.8c0.7-0.2,1.3-0.3,2-0.3
				c1.2,0,2.4,0.2,3.3,0.6v2.3c-1.1-0.7-2.3-1-3.6-1c-0.4,0-0.8,0-1.2,0.1c-0.3,0.1-0.6,0.2-0.9,0.4c-0.2,0.2-0.4,0.4-0.6,0.6
				c-0.1,0.2-0.2,0.5-0.2,0.8c0,0.4,0.1,0.7,0.2,0.9c0.1,0.3,0.3,0.5,0.6,0.7c0.3,0.2,0.6,0.4,1,0.5c0.4,0.2,0.8,0.3,1.3,0.5
				c0.6,0.2,1.2,0.5,1.7,0.8c0.5,0.3,0.9,0.5,1.3,0.9c0.4,0.3,0.6,0.7,0.8,1.1c0.2,0.4,0.3,0.9,0.3,1.5c0,0.7-0.2,1.3-0.5,1.8
				c-0.3,0.5-0.7,1-1.3,1.3c-0.5,0.3-1.1,0.6-1.8,0.8c-0.7,0.2-1.4,0.3-2.1,0.3C145.9,30.1,144.6,29.8,143.5,29.2z"/>
			<path class="st1" d="M158.4,11.8c-0.4,0-0.8-0.1-1-0.4c-0.3-0.3-0.4-0.6-0.4-1.1c0-0.4,0.1-0.8,0.4-1.1c0.3-0.3,0.6-0.4,1-0.4
				c0.4,0,0.8,0.1,1.1,0.4c0.3,0.3,0.4,0.6,0.4,1.1c0,0.4-0.1,0.8-0.4,1C159.2,11.6,158.9,11.8,158.4,11.8z M159.6,29.8h-2.3V15.4
				h2.3V29.8z"/>
			<path class="st1" d="M177.2,28.6c0,5.3-2.5,7.9-7.6,7.9c-1.8,0-3.3-0.3-4.6-1v-2.3c1.6,0.9,3.2,1.3,4.6,1.3
				c3.5,0,5.3-1.9,5.3-5.6v-1.6h-0.1c-1.1,1.8-2.7,2.7-4.9,2.7c-1.8,0-3.2-0.6-4.3-1.9c-1.1-1.3-1.6-3-1.6-5.1
				c0-2.4,0.6-4.4,1.8-5.8c1.2-1.4,2.8-2.2,4.8-2.2c1.9,0,3.4,0.8,4.3,2.3h0.1v-2h2.3V28.6z M174.9,23.3v-2.1c0-1.1-0.4-2.1-1.2-2.9
				c-0.8-0.8-1.7-1.2-2.9-1.2c-1.4,0-2.5,0.5-3.3,1.5c-0.8,1-1.2,2.5-1.2,4.3c0,1.6,0.4,2.9,1.2,3.8c0.8,1,1.8,1.4,3.1,1.4
				c1.3,0,2.3-0.5,3.1-1.4S174.9,24.7,174.9,23.3z"/>
			<path class="st1" d="M194.4,29.8h-2.3v-8.2c0-3-1.1-4.6-3.3-4.6c-1.1,0-2.1,0.4-2.8,1.3c-0.8,0.9-1.1,2-1.1,3.3v8.2h-2.3V15.4
				h2.3v2.4h0.1c1.1-1.8,2.7-2.7,4.7-2.7c1.6,0,2.8,0.5,3.6,1.5c0.8,1,1.2,2.5,1.2,4.4V29.8z"/>
		</g>
		<g>
			<g>
				<path class="st2" d="M2.8,29.2c1.3,3.1,4.3,0,5.8-0.8c0.4-0.3,0.7-0.2,0.9,0.1c1.8,2.6,7,2.5,10,1.4c0.2-0.2,0.2-0.5,0.1-0.6
					c-2.1-0.4-3.6,0.5-5.5,0.2c-2-0.3-2-1.2-3.3-2.1c0,0-0.1-0.2-0.2-0.2c-1-0.7-2.3-0.7-3.3,0.4C6.6,28.4,6,29,5.5,29
					c-0.5,0-0.7-0.7-0.9-0.9c-0.2-0.2-0.4-0.4-0.6-0.7c-0.4-0.4-2.4-0.3-1.9,0.2C2.6,28.2,2.5,28.7,2.8,29.2z"/>
			</g>
			<g>
				<path class="st2" d="M21.2,13.3c0.9-0.9,0.9-2.4,0-3.3L20,8.8c-0.5-0.5-1.1-0.7-1.7-0.7c-0.6,0-1.2,0.2-1.7,0.7l-3.8,3.8
					l-6.5,6.5l4.6,4.6l6.6-6.5L21.2,13.3z M17.8,10c0.2-0.2,0.4-0.2,0.5-0.2c0.1,0,0.3,0,0.5,0.2l1.2,1.2c0.3,0.3,0.3,0.7,0,1
					L16.2,16L14,13.8L17.8,10z"/>
				<path class="st2" d="M3.5,25.9c0,0.3,0.2,0.5,0.5,0.5l5.3-2.1l-3.7-3.7L3.5,25.9z"/>
				<path class="st2" d="M20.7,15.3l-5,5c-0.1,0.1-0.1,0.2,0,0.3l1.2,1.2l5.1-5.1L20.7,15.3z"/>
			</g>
		</g>
	</g>
</g>
</svg>
