<svg xmlns="http://www.w3.org/2000/svg" viewBox="0 0 76 76"><defs><style>.cls-1{isolation:isolate;}.cls-2{fill:#e95653;}.cls-3{fill:none;}.cls-4{opacity:0.15;mix-blend-mode:multiply;}.cls-5{fill:#f8f9fa;}.cls-6{fill:#fbdddd;}.cls-7{fill:#f7c7c5;}</style></defs><title>anpassung-an-beduerfnisse</title><g class="cls-1"><g id="Layer_1" data-name="Layer 1"><ellipse class="cls-2" cx="38" cy="37.92" rx="37.5" ry="37.42"/><path class="cls-3" d="M23.341,66.9a7.308,7.308,0,0,1-2.764-3.608,5.6,5.6,0,0,1,.351-3.886c.209-.434.3-.376.095-.7a2.355,2.355,0,0,0-.459-.386L13.22,52.152a9.7,9.7,0,0,1-2.649-2.787,5.634,5.634,0,0,1,.735-6.205A5.549,5.549,0,0,1,17.4,41.6,10.824,10.824,0,0,1,20.4,43.713c2.452,2.061,4.886,4.146,7.358,6.185a5.593,5.593,0,0,1-.239-3.274c.114-.49.447-.95.544-1.422.088-.424.162-.106-.046-.428a7.8,7.8,0,0,0-1.492-1.254l-2.906-2.443c-1.746-1.468-3.518-2.91-5.24-4.406a5.656,5.656,0,0,1-.374-8.369c2.318-2.227,5.519-1.782,7.824.156q5.23,4.4,10.463,8.8a5.619,5.619,0,0,1,2.122-6.714q-2.336-1.97-4.676-3.933c-1.39-1.168-2.792-2.323-4.169-3.505a5.691,5.691,0,0,1-1.646-6.755,5.565,5.565,0,0,1,6.158-3.092c2.239.48,4.2,2.692,5.922,4.142,1.36,1.144,2.874,2.219,4.13,3.473V11.545c0-.2-.125-.963,0-1.123.178-.227,1.411-.061,1.727-.061H55a4.84,4.84,0,0,1,1.683.128,3.93,3.93,0,0,1,.669.547l1.3,1.093c.873.734,1.744,1.473,2.6,2.219s1.75,1.462,2.62,2.187,1.732,1.463,2.6,2.186,1.749,1.454,2.62,2.187,1.744,1.457,2.62,2.186l1,.836A37.481,37.481,0,1,0,33.191,75.183l-6.178-5.194Z"/><path class="cls-4" d="M75.5,38.08a37.233,37.233,0,0,0-2.783-14.15l-1-.836c-.876-.729-1.749-1.454-2.62-2.186s-1.744-1.458-2.62-2.187-1.729-1.46-2.6-2.186-1.761-1.44-2.62-2.187-1.728-1.485-2.6-2.219l-1.3-1.093a3.93,3.93,0,0,0-.669-.547A4.84,4.84,0,0,0,55,10.361H45.863c-.316,0-1.549-.166-1.727.061-.125.16,0,.927,0,1.123v9.324c-1.256-1.254-2.77-2.329-4.13-3.473-1.725-1.45-3.683-3.662-5.922-4.142a5.565,5.565,0,0,0-6.158,3.092A5.691,5.691,0,0,0,29.572,23.1c1.377,1.182,2.779,2.337,4.169,3.505q2.338,1.967,4.676,3.933A5.619,5.619,0,0,0,36.3,37.253q-5.227-4.4-10.463-8.8c-2.3-1.938-5.506-2.383-7.824-.156a5.656,5.656,0,0,0,.374,8.369c1.722,1.5,3.494,2.938,5.24,4.406l2.906,2.443a7.8,7.8,0,0,1,1.492,1.254c.208.322.134,0,.046.428-.1.472-.43.932-.544,1.422a5.593,5.593,0,0,0,.239,3.274c-2.472-2.039-4.906-4.124-7.358-6.185A10.824,10.824,0,0,0,17.4,41.6a5.549,5.549,0,0,0-6.091,1.564,5.634,5.634,0,0,0-.735,6.205,9.7,9.7,0,0,0,2.649,2.787l7.344,6.174a2.355,2.355,0,0,1,.459.386c.2.32.114.262-.095.7a5.6,5.6,0,0,0-.351,3.886A7.308,7.308,0,0,0,23.341,66.9l3.672,3.087,6.178,5.194A37.447,37.447,0,0,0,75.5,38.08Z"/><ellipse class="cls-5" cx="32.934" cy="18.671" rx="5.521" ry="5.559"/><ellipse class="cls-5" cx="52.614" cy="49.307" rx="5.521" ry="5.559"/><ellipse class="cls-5" cx="32.9" cy="47.86" rx="5.521" ry="5.559"/><ellipse class="cls-5" cx="41.422" cy="35.18" rx="5.521" ry="5.559"/><ellipse class="cls-5" cx="21.821" cy="32.305" rx="5.521" ry="5.559"/><ellipse class="cls-5" cx="25.901" cy="61.796" rx="5.521" ry="5.559"/><ellipse class="cls-5" cx="43.787" cy="63.031" rx="5.521" ry="5.559"/><ellipse class="cls-5" cx="15.473" cy="46.789" rx="5.521" ry="5.559"/><polygon class="cls-6" points="58.295 24.533 50.269 38.172 65.7 38.523 58.295 24.533"/><rect class="cls-7" x="44.137" y="10.343" width="12.453" height="12.538"/></g></g></svg>