<svg xmlns="http://www.w3.org/2000/svg" viewBox="0 0 76 76"><defs><style>.cls-1{isolation:isolate;}.cls-2{fill:#e95653;}.cls-3,.cls-5{mix-blend-mode:multiply;}.cls-4{fill:none;}.cls-5{opacity:0.15;}.cls-6{fill:#fff;}.cls-7{fill:#f08e8c;}.cls-8{fill:#7fc3de;}.cls-9{fill:#9fb8cc;}.cls-10{fill:#f8f9fa;}</style></defs><title>archivierung</title><g class="cls-1"><g id="Layer_1" data-name="Layer 1"><circle class="cls-2" cx="38" cy="38" r="37.5"/><g class="cls-3"><path class="cls-4" d="M27.091,73.472a4.314,4.314,0,0,1-.69-.729,4.274,4.274,0,0,1-.69-.729,4.278,4.278,0,0,1-.691-.728,4.352,4.352,0,0,1-.69-.729,4.32,4.32,0,0,1-.691-.729,4.314,4.314,0,0,1-.69-.729,4.356,4.356,0,0,1-.691-.728,4.352,4.352,0,0,1-.69-.729,4.312,4.312,0,0,1-.69-.729,4.32,4.32,0,0,1-.691-.729,4.314,4.314,0,0,1-.69-.729,4.278,4.278,0,0,1-.691-.728,4.352,4.352,0,0,1-.69-.729,4.32,4.32,0,0,1-.691-.729A2.813,2.813,0,0,1,16.242,61.2a1.842,1.842,0,0,1,.038-.369v-11.6a.153.153,0,0,1,.01-.041A3.139,3.139,0,0,1,17.4,47.572a2.787,2.787,0,0,1-1.153-2.045,1.842,1.842,0,0,1,.038-.369v-11.6a.153.153,0,0,1,.01-.041,3.118,3.118,0,0,1,1.074-1.586,2.76,2.76,0,0,1-1.122-2.016,1.834,1.834,0,0,1,.038-.369v-11.6a.145.145,0,0,1,.01-.041,2.581,2.581,0,0,1,.51-.991c1.6-2.466,8.572-4.424,17.487-4.924l.187-.009q.87-.048,1.765-.074l.441-.013q.941-.024,1.9-.027h.2c10.871,0,19.925,2.13,21.923,4.951a3.922,3.922,0,0,1,.691.729,3.975,3.975,0,0,1,.69.728,3.947,3.947,0,0,1,.69.729,3.922,3.922,0,0,1,.691.729,3.947,3.947,0,0,1,.69.729,3.922,3.922,0,0,1,.691.729,3.975,3.975,0,0,1,.69.728,3.955,3.955,0,0,1,.691.729,3.947,3.947,0,0,1,.69.729,3.955,3.955,0,0,1,.691.729,3.947,3.947,0,0,1,.69.729A3.951,3.951,0,0,1,69,25.56a3.947,3.947,0,0,1,.69.729,3.947,3.947,0,0,1,.69.729,3.922,3.922,0,0,1,.691.729,3.947,3.947,0,0,1,.69.729,3.918,3.918,0,0,1,.691.728,3.947,3.947,0,0,1,.69.729,3.955,3.955,0,0,1,.691.729,3.947,3.947,0,0,1,.69.729,4.321,4.321,0,0,1,.471.464A37.5,37.5,0,1,0,27.6,74.027,4.282,4.282,0,0,1,27.091,73.472ZM16.62,32.2h.011a.163.163,0,0,0-.011.042Z"/><path d="M16.62,32.2v.042a.163.163,0,0,1,.011-.042Z"/><path class="cls-5" d="M75.5,38a37.708,37.708,0,0,0-.51-6.145,4.321,4.321,0,0,0-.471-.464,3.947,3.947,0,0,0-.69-.729,3.955,3.955,0,0,0-.691-.729,3.947,3.947,0,0,0-.69-.729,3.918,3.918,0,0,0-.691-.728,3.947,3.947,0,0,0-.69-.729,3.922,3.922,0,0,0-.691-.729,3.947,3.947,0,0,0-.69-.729A3.947,3.947,0,0,0,69,25.56a3.951,3.951,0,0,0-.691-.728,3.947,3.947,0,0,0-.69-.729,3.955,3.955,0,0,0-.691-.729,3.947,3.947,0,0,0-.69-.729,3.955,3.955,0,0,0-.691-.729,3.975,3.975,0,0,0-.69-.728,3.922,3.922,0,0,0-.691-.729,3.947,3.947,0,0,0-.69-.729A3.922,3.922,0,0,0,62.781,19a3.947,3.947,0,0,0-.69-.729,3.975,3.975,0,0,0-.69-.728,3.922,3.922,0,0,0-.691-.729c-2-2.821-11.052-4.951-21.923-4.951h-.2q-.961,0-1.9.027l-.441.013q-.894.027-1.765.074l-.187.009c-8.915.5-15.89,2.458-17.487,4.924a2.581,2.581,0,0,0-.51.991.145.145,0,0,0-.01.041v11.6a1.834,1.834,0,0,0-.038.369,2.76,2.76,0,0,0,1.122,2.016,3.118,3.118,0,0,0-1.074,1.586.153.153,0,0,0-.01.041v11.6a1.842,1.842,0,0,0-.038.369A2.787,2.787,0,0,0,17.4,47.572a3.139,3.139,0,0,0-1.105,1.613.153.153,0,0,0-.01.041v11.6a1.842,1.842,0,0,0-.038.369,2.813,2.813,0,0,0,1.183,2.073,4.32,4.32,0,0,0,.691.729,4.352,4.352,0,0,0,.69.729,4.278,4.278,0,0,0,.691.728,4.314,4.314,0,0,0,.69.729,4.32,4.32,0,0,0,.691.729,4.312,4.312,0,0,0,.69.729,4.352,4.352,0,0,0,.69.729,4.356,4.356,0,0,0,.691.728,4.314,4.314,0,0,0,.69.729,4.32,4.32,0,0,0,.691.729,4.352,4.352,0,0,0,.69.729,4.278,4.278,0,0,0,.691.728,4.274,4.274,0,0,0,.69.729,4.314,4.314,0,0,0,.69.729,4.282,4.282,0,0,0,.506.555A37.5,37.5,0,0,0,75.5,38Z"/></g><path class="cls-6" d="M60.73,59.974a1.919,1.919,0,0,1,.1.6c0,1.938-2.972,3.673-7.675,4.856a62.566,62.566,0,0,1-14.728,1.587,62.584,62.584,0,0,1-14.73-1.587c-4.7-1.183-7.676-2.918-7.676-4.856a1.824,1.824,0,0,1,.038-.368V48.622a.16.16,0,0,1,.01-.042c.732-3.365,10.463-6.029,22.358-6.029,12.372,0,22.4,2.884,22.4,6.439a1.954,1.954,0,0,1-.1.6Z"/><path class="cls-7" d="M38.424,67.149a63.136,63.136,0,0,1-14.763-1.59c-5.015-1.262-7.777-3.033-7.777-4.987a1.948,1.948,0,0,1,.041-.4l0-11.555a.259.259,0,0,1,.021-.095c.741-3.415,10.619-6.11,22.481-6.11,12.427,0,22.537,2.949,22.537,6.573a2.1,2.1,0,0,1-.1.623V59.954a2.054,2.054,0,0,1,.1.618c0,1.954-2.762,3.725-7.776,4.987A63.1,63.1,0,0,1,38.424,67.149Zm0-24.463c-11.74,0-21.5,2.6-22.227,5.923l-.006,11.6a1.884,1.884,0,0,0-.038.368c0,1.793,2.761,3.515,7.574,4.726a62.792,62.792,0,0,0,14.7,1.583A62.77,62.77,0,0,0,53.12,65.3c4.812-1.211,7.572-2.933,7.572-4.726a1.782,1.782,0,0,0-.09-.556l-.006-.041L60.6,49.551a1.822,1.822,0,0,0,.09-.561C60.692,45.514,50.7,42.686,38.424,42.686Z"/><path class="cls-8" d="M16.406,31.621a.153.153,0,0,0-.01.041v-.041Z"/><path class="cls-9" d="M16.423,31.664l-.053,0V31.6h.076l-.016.036A.075.075,0,0,0,16.423,31.664Z"/><ellipse class="cls-2" cx="38.63" cy="48.324" rx="22.027" ry="4.654"/><path class="cls-6" d="M60.73,44.331a1.919,1.919,0,0,1,.1.6c0,1.938-2.972,3.673-7.675,4.856a62.566,62.566,0,0,1-14.728,1.587,62.584,62.584,0,0,1-14.73-1.587c-4.7-1.183-7.676-2.918-7.676-4.856a1.824,1.824,0,0,1,.038-.368V32.979a.16.16,0,0,1,.01-.042c.732-3.365,10.463-6.029,22.358-6.029,12.372,0,22.4,2.883,22.4,6.439a1.959,1.959,0,0,1-.1.6Z"/><path class="cls-7" d="M38.424,51.506a63.079,63.079,0,0,1-14.763-1.591c-5.015-1.261-7.777-3.032-7.777-4.986a1.948,1.948,0,0,1,.041-.4l0-11.555a.269.269,0,0,1,.021-.1c.741-3.414,10.619-6.109,22.481-6.109,12.427,0,22.537,2.948,22.537,6.573a2.084,2.084,0,0,1-.1.622V44.31a2.065,2.065,0,0,1,.1.619c0,1.954-2.762,3.725-7.776,4.986A63.043,63.043,0,0,1,38.424,51.506Zm0-24.464c-11.74,0-21.5,2.6-22.227,5.924l-.006,11.6a1.884,1.884,0,0,0-.038.368c0,1.793,2.761,3.515,7.574,4.726a62.849,62.849,0,0,0,14.7,1.582,62.827,62.827,0,0,0,14.7-1.582c4.812-1.211,7.572-2.934,7.572-4.726a1.782,1.782,0,0,0-.09-.556l-.006-.042L60.6,33.907a1.812,1.812,0,0,0,.09-.56C60.692,29.871,50.7,27.042,38.424,27.042Z"/><ellipse class="cls-2" cx="38.423" cy="32.605" rx="22.027" ry="4.654"/><path class="cls-6" d="M60.73,28.744a1.913,1.913,0,0,1,.1.6c0,1.938-2.972,3.674-7.675,4.857a62.624,62.624,0,0,1-14.728,1.586A62.642,62.642,0,0,1,23.694,34.2c-4.7-1.183-7.676-2.919-7.676-4.857a1.824,1.824,0,0,1,.038-.368V17.391a.153.153,0,0,1,.01-.041c.732-3.365,10.463-6.029,22.358-6.029,12.372,0,22.4,2.883,22.4,6.438a1.949,1.949,0,0,1-.1.6Z"/><path class="cls-7" d="M38.424,35.918a63.13,63.13,0,0,1-14.763-1.59c-5.015-1.261-7.777-3.032-7.777-4.986a1.95,1.95,0,0,1,.041-.4l0-11.555a.248.248,0,0,1,.021-.095c.741-3.415,10.619-6.109,22.481-6.109,12.427,0,22.537,2.948,22.537,6.572a2.1,2.1,0,0,1-.1.623V28.723a2.055,2.055,0,0,1,.1.619c0,1.954-2.762,3.724-7.776,4.986A63.088,63.088,0,0,1,38.424,35.918Zm0-24.463c-11.74,0-21.5,2.6-22.227,5.923l-.006,11.6a1.887,1.887,0,0,0-.038.369c0,1.792,2.761,3.515,7.574,4.726a62.836,62.836,0,0,0,14.7,1.582,62.815,62.815,0,0,0,14.7-1.582c4.812-1.211,7.572-2.934,7.572-4.726a1.76,1.76,0,0,0-.09-.557l-.006-.041L60.6,18.32a1.822,1.822,0,0,0,.09-.561C60.692,14.283,50.7,11.455,38.424,11.455Z"/><path class="cls-7" d="M60.827,17.436c0,1.839-2.958,3.487-7.639,4.609a65.182,65.182,0,0,1-14.662,1.507,65.172,65.172,0,0,1-14.661-1.507c-4.681-1.122-7.64-2.77-7.64-4.609,0-3.377,9.986-6.115,22.3-6.115S60.827,14.059,60.827,17.436Z"/><path class="cls-7" d="M38.527,23.6a65.569,65.569,0,0,1-14.674-1.509c-4.879-1.17-7.678-2.868-7.678-4.658,0-3.4,10.027-6.165,22.352-6.165a62.4,62.4,0,0,1,15.781,1.792c4.236,1.162,6.569,2.715,6.569,4.373,0,1.79-2.8,3.488-7.678,4.658A65.563,65.563,0,0,1,38.527,23.6Zm0-12.232c-12.27,0-22.251,2.721-22.251,6.065,0,1.74,2.77,3.4,7.6,4.56A65.43,65.43,0,0,0,38.527,23.5,65.418,65.418,0,0,0,53.176,22c4.83-1.158,7.6-2.82,7.6-4.56C60.776,14.092,50.8,11.371,38.527,11.371Z"/><path class="cls-10" d="M50.776,22.746H46l-2.362-2.7H33.308l-2.271,2.7H26.276l9.833-10.618h4.908Zm-8.3-4.139-3.643-4.236a2.714,2.714,0,0,1-.348-.666h-.074a2.44,2.44,0,0,1-.366.666l-3.607,4.236Z"/></g></g></svg>