<svg xmlns="http://www.w3.org/2000/svg" xmlns:xlink="http://www.w3.org/1999/xlink" viewBox="0 0 76 76"><defs><style>.cls-1{fill:#fff;}.cls-2{isolation:isolate;}.cls-3{fill:#e95653;}.cls-4{fill:none;}.cls-5{opacity:0.15;mix-blend-mode:multiply;}.cls-6{fill:#f7c7c5;}.cls-7{clip-path:url(#clip-path);}.cls-8{fill:#fbdddd;}.cls-9{clip-path:url(#clip-path-2);}.cls-10{clip-path:url(#clip-path-3);}</style><clipPath id="clip-path"><circle class="cls-1" cx="43.313" cy="18.393" r="8.241"/></clipPath><clipPath id="clip-path-2"><circle class="cls-1" cx="20.529" cy="37.101" r="8.241"/></clipPath><clipPath id="clip-path-3"><circle class="cls-1" cx="43.313" cy="58.857" r="8.241"/></clipPath></defs><title>automatisch-weitererarbeiten</title><g class="cls-2"><g id="Layer_1" data-name="Layer 1"><circle class="cls-3" cx="38" cy="38" r="37.5"/><path class="cls-4" d="M39.913,66.32c-2.219-1.733-4.158-3.4-4.674-6.332a6.7,6.7,0,0,0-.122-1.222c-.125-.3-.336-.417-.616-.636L32.79,56.794l-3.685-2.877c-2.369-1.85-4.749-3.688-7.107-5.55-2.3-1.816-4.8-3.495-6.967-5.463a8.236,8.236,0,0,1,10.334-12.8c.187.134.449.443.645.431s.673-.481.836-.6l3.666-2.616,4.149-2.962L36.1,23.337c.09-.064.551-.3.583-.416s-.512-.8-.587-.934a8.094,8.094,0,0,1-.463-1.011,8.252,8.252,0,0,1,0-5.788,8.232,8.232,0,0,1,12.4-3.867c2.431,1.689,4.709,3.661,7.035,5.492q9.978,7.854,20.014,15.637A37.488,37.488,0,1,0,49.4,73.729L47.02,71.87Z"/><path class="cls-5" d="M75.5,38a37.754,37.754,0,0,0-.412-5.55q-10.02-7.8-20.014-15.637c-2.326-1.831-4.6-3.8-7.035-5.492a8.232,8.232,0,0,0-12.884,7.606,8.2,8.2,0,0,0,.48,2.049,8.094,8.094,0,0,0,.463,1.011c.075.138.617.822.587.934s-.493.352-.583.416l-1.441,1.028-4.149,2.962-3.666,2.616c-.163.116-.627.584-.836.6s-.458-.3-.645-.431a8.229,8.229,0,0,0-1.871-1.01A8.239,8.239,0,0,0,15.031,42.9C17.2,44.872,19.7,46.551,22,48.367c2.358,1.862,4.738,3.7,7.107,5.55l3.685,2.877L34.5,58.13c.28.219.491.336.616.636a6.7,6.7,0,0,1,.122,1.222c.516,2.927,2.455,4.6,4.674,6.332l7.107,5.55L49.4,73.729A37.511,37.511,0,0,0,75.5,38Z"/><rect class="cls-6" x="16.9" y="26.306" width="31.828" height="3.045" transform="translate(-10.062 24.247) rotate(-35.525)"/><rect class="cls-6" x="32.745" y="32.479" width="3.045" height="31.829" transform="translate(-24.576 41.065) rotate(-47.599)"/><circle class="cls-1" cx="43.313" cy="18.393" r="8.241"/><g class="cls-7"><polygon class="cls-8" points="50.009 3.255 26.373 12.055 29.55 33.692 50.009 3.255"/></g><circle class="cls-1" cx="20.529" cy="37.101" r="8.241"/><g class="cls-9"><polygon class="cls-8" points="27.224 21.963 5.262 27.44 6.765 52.4 27.224 21.963"/></g><circle class="cls-1" cx="43.313" cy="58.857" r="8.241"/><g class="cls-10"><polygon class="cls-8" points="50.009 43.72 13.42 41.22 29.55 74.157 50.009 43.72"/></g></g></g></svg>