<?xml version="1.0" encoding="utf-8"?>
<!-- Generator: Adobe Illustrator 24.1.3, SVG Export Plug-In . SVG Version: 6.00 Build 0)  -->
<svg version="1.1" id="Layer_1" xmlns="http://www.w3.org/2000/svg" xmlns:xlink="http://www.w3.org/1999/xlink" x="0px" y="0px"
	 viewBox="0 0 76 76" style="enable-background:new 0 0 76 76;" xml:space="preserve">
<style type="text/css">
	.st0{fill:#BEC8D2;}
	.st1{fill:none;}
	.st2{opacity:0.15;enable-background:new    ;}
	.st3{fill:#FFFFFF;}
	.st4{clip-path:url(#SVGID_2_);}
	.st5{opacity:0.4;}
	.st6{fill:#F8F9FA;}
	.st7{fill:#D9E6EE;}
	.st8{clip-path:url(#SVGID_4_);}
</style>
<g id="Layer_1_1_">
	<circle class="st0" cx="38" cy="38" r="37.5"/>
	<path class="st1" d="M12.1,63.1c-1.2-0.8-2-2.2-2.1-3.6l-0.6-4.9c-0.5-4.5-1-9-1.6-13.5c-0.1-1.1-0.3-2.2-0.4-3.3
		c-0.2-2,1.2-3.9,3.3-4.1c0,0,0,0,0.1,0c2.9-0.4,5.9-0.7,8.9-1l21.2-2.5c-0.9-0.7-1.8-1.3-2.7-1.9l-2.8-1.9L30.6,23
		c-0.4-0.3-0.8-0.6-1.2-0.9c-0.7-0.5-0.7-1.1-0.7-1.9c-0.1-1.4,0-2.8,0-4.2c0-0.9-0.5-3.7,0.6-4.1c0.8-0.3,1.6-0.1,2.2,0.4
		c0.2,0.2,0.7,0.6,1,0.6c0.3,0,1-0.8,1.3-1l2.2-1.8l3-2.4v0.1L39,7.7v0.1l0.1-0.1v0.1l0.1-0.1V8l0.1-0.1V8L39.4,8v0.1L39.4,8v0.1
		l0.1-0.1v0.1l0.1-0.1v0.1l0.1-0.1v0.1l0.1-0.1v0.1l0.1-0.1v0.1l0.1-0.1v0.1L40,8.4v0.1l0.1-0.1v0.1l0.1-0.1v0.1l0.1-0.1v0.1
		l0.1-0.1v0.1l0.1-0.1v0.1l0.1-0.1v0.1l0.1-0.1v0.1l0.1-0.1V9l0.1-0.1V9L40.8,9v0.1L40.9,9v0.1L41,9.1v0.1l0.1-0.1v0.1l0.1-0.1v0.1
		l0.1-0.1v0.1l0.1-0.1v0.1l0.1-0.1v0.1l0.1-0.1v0.1l0.1-0.1v0.1l0.1-0.1v0.1l0.1-0.1v0.1l0.1-0.1v0.1l0.1-0.1v0.1L42,9.8v0.1
		l0.1-0.1V10l0.1-0.1V10l0.1-0.1v0.1l0-0.1v0.1l0.1-0.1v0.1l0.1-0.1v0.1l0.1-0.1v0.1l0.1-0.1v0.1l0.1-0.1v0.1l0.1-0.1v0.1l0.1-0.1
		v0.1l0.1-0.1v0.1l0.1-0.1v0.1l0.1-0.1v0.1l0.1-0.1v0.1l0.1-0.1v0.1l0.1-0.1v0.1l0.1-0.1v0.1l0.1-0.1V11l0.1-0.1V11l0.1-0.1v0.1
		l0.1-0.1v0.1l0.1-0.1v0.1l0.1-0.1v0.1l0.1-0.1v0.1l0.1-0.1c0-0.2-0.1-0.5-0.1-0.7c0.1,0.1,0.2,0.3,0.2,0.1c0.1,0.2,0.3,0.3,0.3,0.2
		c0.4,0.5-0.2-0.3,0.2,0.2c-0.1-0.3,0.2,0.3,0.1,0c0.4,0.5-0.2-0.3,0.2,0.2c-0.1-0.2,0.2,0.2,0.1,0c0.4,0.5-0.2-0.3,0.2,0.2
		c-0.1-0.2,0.2,0.2,0.1,0c0.1,0.1,0.3,0.2,0.2,0.2c0.4,0.5-0.2-0.3,0.2,0.2c-0.1-0.2,0.2,0.2,0.1,0c0.4,0.5-0.2-0.3,0.2,0.2
		c-0.1-0.2,0.2,0.2,0.1,0c0.4,0.5-0.2-0.3,0.2,0.2c-0.1-0.3,0.2,0.3,0.1,0c0.4,0.5-0.2-0.3,0.2,0.2c-0.1-0.2,0.2,0.2,0.1,0
		c0.4,0.5-0.2-0.3,0.2,0.2c-0.1-0.3,0.2,0.3,0.1,0c0.2,0.2,0.1,0,0.3,0.3c-0.1-0.3,0.2,0.3,0.1,0c0.4,0.5-0.2-0.3,0.2,0.2
		c0-0.2,0-0.1,0.1,0.1c0-0.1,0-0.1,0.1,0c-0.2-1.5-0.6-3-1.1-4.4c0.5,0.4,1.1,0.8,1.6,1.1c2.3,1.8,4.6,3,6.8,4.8
		c2.1,1.6,4.6,3,6.8,4.7s4.6,3.1,6.8,4.7c1.8,1.3,3.6,2.5,5.4,3.8C68.6,7.9,47.8-3.7,27.9,1.9s-31.6,26.3-26,46.2
		c3.6,12.7,13.5,22.6,26.2,26l-4-2.8L12.1,63.1z"/>
	<path class="st2" d="M44.1,11.3L44.1,11.3c0,0,0,0.1,0,0.1L44.1,11.3z"/>
	<path class="st2" d="M75.5,38c0-3.4-0.5-6.8-1.4-10.1c-1.8-1.3-3.6-2.4-5.4-3.8c-2.1-1.6-4.6-3-6.8-4.7s-4.7-3-6.8-4.7
		c-2.3-1.8-4.6-3-6.8-4.8c-0.6-0.3-1.1-0.7-1.6-1.1c0.5,1.4,0.9,2.9,1.1,4.4c-0.1-0.2-0.1-0.2-0.1,0c-0.1-0.2-0.1-0.2-0.1-0.1
		c-0.3-0.5,0.2,0.3-0.2-0.2c0.1,0.3-0.2-0.3-0.1,0c-0.2-0.2-0.1,0-0.3-0.3c0.1,0.3-0.2-0.3-0.1,0c-0.3-0.5,0.2,0.3-0.2-0.2
		c0.1,0.2-0.2-0.2-0.1,0c-0.3-0.5,0.2,0.3-0.2-0.2c0.1,0.3-0.2-0.3-0.1,0c-0.3-0.5,0.2,0.3-0.2-0.2c0.1,0.2-0.2-0.2-0.1,0
		c-0.3-0.5,0.2,0.3-0.2-0.2c0.1,0.2-0.2-0.2-0.1,0c-0.3-0.5,0.2,0.3-0.2-0.2c0,0.1-0.2-0.1-0.2-0.2c0.1,0.2-0.2-0.2-0.1,0
		c-0.3-0.5,0.2,0.3-0.2-0.2c0.1,0.2-0.2-0.2-0.1,0c-0.3-0.5,0.2,0.3-0.2-0.2c0.1,0.3-0.2-0.3-0.1,0c-0.3-0.5,0.2,0.3-0.2-0.2
		c0,0-0.2-0.1-0.3-0.2c0,0.1-0.1,0-0.2-0.1c0.1,0.2,0.1,0.5,0.1,0.7l0,0v0.1c0,0,0-0.1,0-0.1L44,11.3v-0.1l-0.1,0.1v-0.1l-0.1,0.1
		v-0.1l-0.1,0.1V11l-0.1,0.1V11L43.6,11v-0.1L43.5,11v-0.1l-0.1,0.1v-0.1l-0.1,0.1v-0.1l-0.1,0.1v-0.1l-0.1,0.1v-0.1l-0.1,0.1v-0.1
		L43,10.6v-0.1l-0.1,0.1v-0.1l-0.1,0.1v-0.1l-0.1,0.1v-0.1l-0.1,0.1v-0.1l-0.1,0.1v-0.1l-0.1,0.1v-0.1l-0.1,0.1v-0.1l-0.1,0.1v-0.1
		l-0.1,0.1V10l-0.1,0.1V9.9L42.1,10V9.9L42,10V9.8l-0.1,0.1V9.8l-0.1,0.1V9.7l-0.1,0.1V9.7l-0.1,0.1V9.6l-0.1,0.1V9.5l-0.1,0.1V9.5
		l-0.1,0.1V9.4l0,0.1V9.4l-0.1,0.1V9.3l-0.1,0.1V9.3l-0.1,0.1V9.2l-0.1,0.1V9.1L41,9.2V9.1l-0.1,0.1V9l-0.1,0.1V9L40.7,9V8.9L40.6,9
		V8.9l-0.1,0.1V8.8l-0.1,0.1V8.7l-0.1,0.1V8.7l-0.1,0.1V8.6l-0.1,0.1V8.6l-0.1,0.1V8.5l-0.1,0.1V8.5L40,8.5V8.4l-0.1,0.1V8.3
		l-0.1,0.1V8.3l-0.1,0.1V8.2l-0.1,0.1V8.2l-0.1,0.1V8.1l-0.1,0.1V8.1l-0.1,0.1V8l-0.1,0.1V7.9L39.2,8V7.9L39.2,8V7.8l-0.1,0.1V7.8
		L39,7.8V7.7l-0.1,0.1V7.7l-3,2.4l-2.2,1.8c-0.3,0.2-0.9,1-1.3,1c-0.2,0-0.7-0.4-1-0.6c-0.6-0.5-1.5-0.6-2.2-0.4
		c-1.1,0.5-0.6,3.2-0.6,4.1c0,1.4-0.1,2.8,0,4.2c0.1,0.8,0.1,1.4,0.7,1.9c0.4,0.3,0.8,0.6,1.2,0.9l4.9,3.4l2.8,1.9
		c1,0.6,1.9,1.2,2.7,1.9l-21.2,2.4c-3,0.3-5.9,0.6-8.9,1c-2,0.2-3.5,2-3.3,4c0,0,0,0,0,0.1c0.1,1.1,0.3,2.2,0.4,3.3
		c0.5,4.5,1,9,1.6,13.5l0.6,4.9c0.1,1.5,0.9,2.8,2.1,3.6l12,8.3l4,2.8c20,5.5,40.6-6.3,46.1-26.3C75.1,44.7,75.5,41.3,75.5,38z"/>
	<path class="st3" d="M10.7,33.8l51.2-5.9c2-0.2,3.8,1.2,4,3.2l2.6,22.6c0.2,2-1.2,3.8-3.2,4l-51.2,5.9c-2,0.2-3.8-1.2-4-3.2
		L7.6,37.8C7.3,35.8,8.8,34,10.7,33.8z"/>
	<g>
		<defs>
			<path id="SVGID_1_" d="M10.7,33.8l51.2-5.9c2-0.2,3.8,1.2,4,3.2l2.6,22.6c0.2,2-1.2,3.8-3.2,4l-51.2,5.9c-2,0.2-3.8-1.2-4-3.2
				L7.6,37.8C7.3,35.8,8.8,34,10.7,33.8z"/>
		</defs>
		<clipPath id="SVGID_2_">
			<use xlink:href="#SVGID_1_"  style="overflow:visible;"/>
		</clipPath>
		<g class="st4">
			<g class="st5">
				<polygon class="st6" points="44.4,26.3 9.6,61.1 4.3,27.3 				"/>
			</g>
		</g>
	</g>
	<path class="st7" d="M16.2,37.6l2.3-0.3c0.9-0.1,1.7,0.5,1.8,1.4l0.3,2.3c0.1,0.9-0.5,1.7-1.4,1.8l-2.3,0.3
		c-0.9,0.1-1.7-0.5-1.8-1.4l-0.3-2.3C14.7,38.5,15.3,37.7,16.2,37.6z"/>
	<path class="st7" d="M17.1,45.7l2.3-0.3c0.9-0.1,1.7,0.5,1.8,1.4l0.3,2.3c0.1,0.9-0.5,1.7-1.4,1.8l-2.3,0.3
		c-0.9,0.1-1.7-0.5-1.8-1.4l-0.3-2.3C15.6,46.6,16.2,45.8,17.1,45.7z"/>
	<path class="st7" d="M23.8,36.7l2.3-0.3c0.9-0.1,1.7,0.5,1.8,1.4l0.3,2.3c0.1,0.9-0.5,1.7-1.4,1.8l-2.3,0.3
		c-0.9,0.1-1.7-0.5-1.8-1.4l-0.3-2.3C22.3,37.6,22.9,36.8,23.8,36.7z"/>
	<path class="st7" d="M24.7,44.8l2.3-0.3c0.9-0.1,1.7,0.5,1.8,1.4l0.3,2.3c0.1,0.9-0.5,1.7-1.4,1.8l-2.3,0.3
		c-0.9,0.1-1.7-0.5-1.8-1.4l-0.3-2.3C23.2,45.7,23.8,44.9,24.7,44.8z"/>
	<path class="st7" d="M25.6,52.8l2.3-0.3c0.9-0.1,1.7,0.5,1.8,1.4l0.3,2.3c0.1,0.9-0.5,1.7-1.4,1.8l-2.3,0.3
		c-0.9,0.1-1.7-0.5-1.8-1.4l-0.3-2.3C24.1,53.7,24.8,52.9,25.6,52.8z"/>
	<path class="st7" d="M18.1,53.7l2.3-0.3c0.9-0.1,1.7,0.5,1.8,1.4l0.3,2.3c0.1,0.9-0.5,1.7-1.4,1.8l-2.3,0.3
		c-0.9,0.1-1.7-0.5-1.8-1.4l-0.3-2.3C16.5,54.6,17.2,53.8,18.1,53.7z"/>
	<path class="st7" d="M32.9,35.7l2.3-0.3c0.9-0.1,1.7,0.5,1.8,1.4l0.3,2.3c0.1,0.9-0.5,1.7-1.4,1.8l-2.3,0.3
		c-0.9,0.1-1.7-0.5-1.8-1.4l-0.3-2.3C31.4,36.6,32,35.8,32.9,35.7z"/>
	<path class="st7" d="M33.8,43.7l2.3-0.3c0.9-0.1,1.7,0.5,1.8,1.4l0.3,2.3c0.1,0.9-0.5,1.7-1.4,1.8l-2.3,0.3
		c-0.9,0.1-1.7-0.5-1.8-1.4l-0.3-2.3C32.3,44.6,32.9,43.8,33.8,43.7z"/>
	<path class="st7" d="M40.5,34.8l2.3-0.3c0.9-0.1,1.7,0.5,1.8,1.4l0.3,2.3c0.1,0.9-0.5,1.7-1.4,1.8l-2.3,0.3
		c-0.9,0.1-1.7-0.5-1.8-1.4L39,36.6C38.9,35.7,39.6,34.9,40.5,34.8z"/>
	<path class="st7" d="M41.4,42.9l2.3-0.3c0.9-0.1,1.7,0.5,1.8,1.4l0.3,2.3c0.1,0.9-0.5,1.7-1.4,1.8L42,48.4
		c-0.9,0.1-1.7-0.5-1.8-1.4L40,44.7C39.9,43.8,40.5,43,41.4,42.9z"/>
	<path class="st7" d="M42.3,50.9l2.3-0.3c0.9-0.1,1.7,0.5,1.8,1.4l0.3,2.3c0.1,0.9-0.5,1.7-1.4,1.8L43,56.4
		c-0.9,0.1-1.7-0.5-1.8-1.4l-0.3-2.3C40.8,51.8,41.4,51,42.3,50.9z"/>
	<path class="st7" d="M34.7,51.8l2.3-0.3c0.9-0.1,1.7,0.5,1.8,1.4l0.3,2.3c0.1,0.9-0.5,1.7-1.4,1.8l-2.3,0.3
		c-0.9,0.1-1.7-0.5-1.8-1.4l-0.3-2.3C33.2,52.7,33.9,51.9,34.7,51.8z"/>
	<path class="st7" d="M50.4,33.7l2.3-0.3c0.9-0.1,1.7,0.5,1.8,1.4l0.3,2.3c0.1,0.9-0.5,1.7-1.4,1.8L51,39.2
		c-0.9,0.1-1.7-0.5-1.8-1.4l-0.3-2.3C48.8,34.6,49.5,33.8,50.4,33.7z"/>
	<path class="st7" d="M51.3,41.7l2.3-0.3c0.9-0.1,1.7,0.5,1.8,1.4l0.3,2.3c0.1,0.9-0.5,1.7-1.4,1.8l-2.3,0.3
		c-0.9,0.1-1.7-0.5-1.8-1.4l-0.3-2.3C49.8,42.6,50.4,41.8,51.3,41.7z"/>
	<path class="st7" d="M58,32.8l2.3-0.3c0.9-0.1,1.7,0.5,1.8,1.4l0.3,2.3c0.1,0.9-0.5,1.7-1.4,1.8l-2.3,0.3c-0.9,0.1-1.7-0.5-1.8-1.4
		l-0.3-2.3C56.4,33.7,57.1,32.9,58,32.8z"/>
	<path class="st7" d="M58.9,40.8l2.3-0.3c0.9-0.1,1.7,0.5,1.8,1.4l0.3,2.3c0.1,0.9-0.5,1.7-1.4,1.8l-2.3,0.3
		c-0.9,0.1-1.7-0.5-1.8-1.4l-0.3-2.3C57.4,41.8,58,40.9,58.9,40.8z"/>
	<path class="st7" d="M59.8,48.9l2.3-0.3c0.9-0.1,1.7,0.5,1.8,1.4l0.3,2.3c0.1,0.9-0.5,1.7-1.4,1.8l-2.3,0.3
		c-0.9,0.1-1.7-0.5-1.8-1.4l-0.3-2.3C58.3,49.8,58.9,49,59.8,48.9z"/>
	<path class="st7" d="M52.2,49.7l2.3-0.3c0.9-0.1,1.7,0.5,1.8,1.4l0.3,2.3c0.1,0.9-0.5,1.7-1.4,1.8l-2.3,0.3
		c-0.9,0.1-1.7-0.5-1.8-1.4l-0.3-2.3C50.7,50.6,51.3,49.8,52.2,49.7z"/>
	<path class="st2" d="M15.1,37.9l3.3-0.4c0.8-0.1,1.5,0.5,1.6,1.3l0.4,3.3c0.1,0.8-0.5,1.5-1.3,1.6l-3.3,0.4
		c-0.8,0.1-1.5-0.5-1.6-1.3l-0.4-3.3C13.8,38.7,14.3,38,15.1,37.9z"/>
	<path class="st6" d="M16.5,45.4l2.9-0.3c0.7-0.1,1.4,0.4,1.4,1.1l0.3,2.9c0.1,0.7-0.4,1.4-1.1,1.4L17.1,51
		c-0.7,0.1-1.4-0.4-1.4-1.1l-0.3-2.9C15.2,46.1,15.8,45.5,16.5,45.4z"/>
	<path class="st2" d="M22.7,36.9l3.3-0.4c0.8-0.1,1.5,0.5,1.6,1.3l0.4,3.3c0.1,0.8-0.5,1.5-1.3,1.6l-3.3,0.4
		c-0.8,0.1-1.5-0.5-1.6-1.3l-0.4-3.3C21.3,37.7,21.9,37,22.7,36.9z"/>
	<path class="st6" d="M24.1,44.6l2.9-0.3c0.7-0.1,1.4,0.4,1.4,1.1l0.3,2.9c0.1,0.7-0.4,1.4-1.1,1.4l-2.9,0.3
		c-0.7,0.1-1.4-0.4-1.4-1.1L22.9,46C22.8,45.3,23.3,44.6,24.1,44.6z"/>
	<path class="st6" d="M25,52.6l2.9-0.3c0.7-0.1,1.4,0.4,1.4,1.1l0.3,2.9c0.1,0.7-0.4,1.4-1.1,1.4l-2.9,0.3c-0.7,0.1-1.4-0.4-1.4-1.1
		L23.8,54C23.8,53.3,24.3,52.7,25,52.6z"/>
	<path class="st6" d="M17.4,53.5l2.9-0.3c0.7-0.1,1.4,0.4,1.4,1.1l0.3,2.9c0.1,0.7-0.4,1.4-1.1,1.4L18,59c-0.7,0.1-1.4-0.4-1.4-1.1
		l-0.3-2.9C16.2,54.2,16.7,53.5,17.4,53.5z"/>
	<path class="st6" d="M32.2,35.4l2.9-0.3c0.7-0.1,1.4,0.4,1.4,1.1l0.3,2.9c0.1,0.7-0.4,1.4-1.1,1.4L32.9,41
		c-0.7,0.1-1.4-0.4-1.4-1.1l-0.3-2.9C31,36.2,31.5,35.5,32.2,35.4z"/>
	<path class="st2" d="M33.1,43.5l2.9-0.3c0.7-0.1,1.4,0.4,1.4,1.1l0.3,2.9c0.1,0.7-0.4,1.4-1.1,1.4L33.8,49
		c-0.7,0.1-1.4-0.4-1.4-1.1L32,44.9C31.9,44.2,32.4,43.6,33.1,43.5z"/>
	<path class="st2" d="M40.6,34.7l3.3-0.4c0.8-0.1,1.5,0.5,1.6,1.3l0.4,3.3c0.1,0.8-0.5,1.5-1.3,1.6l-3.3,0.4
		c-0.8,0.1-1.5-0.5-1.6-1.3l-0.4-3.3C39.2,35.5,39.8,34.8,40.6,34.7z"/>
	<path class="st6" d="M40.7,42.6l2.9-0.3c0.7-0.1,1.4,0.4,1.4,1.1l0.3,2.9c0.1,0.7-0.4,1.4-1.1,1.4l-2.9,0.3
		c-0.7,0.1-1.4-0.4-1.4-1.1l-0.3-2.9C39.5,43.4,40,42.7,40.7,42.6z"/>
	<path class="st6" d="M41.7,50.6l2.9-0.3c0.7-0.1,1.4,0.4,1.4,1.1l0.3,2.9c0.1,0.7-0.4,1.4-1.1,1.4l-2.9,0.3
		c-0.7,0.1-1.4-0.4-1.4-1.1l-0.3-2.9C40.4,51.4,41,50.7,41.7,50.6z"/>
	<path class="st6" d="M34.1,51.5l2.9-0.3c0.7-0.1,1.4,0.4,1.4,1.1l0.3,2.9c0.1,0.7-0.4,1.4-1.1,1.4l-2.9,0.3
		c-0.7,0.1-1.4-0.4-1.4-1.1L32.9,53C32.9,52.3,33.4,51.6,34.1,51.5z"/>
	<path class="st2" d="M49.6,33.5l3.3-0.4c0.8-0.1,1.5,0.5,1.6,1.3l0.4,3.3c0.1,0.8-0.5,1.5-1.3,1.6l-3.3,0.4
		c-0.8,0.1-1.5-0.5-1.6-1.3l-0.4-3.3C48.2,34.3,48.8,33.6,49.6,33.5z"/>
	<path class="st2" d="M50.6,41.4l3.3-0.4c0.8-0.1,1.5,0.5,1.6,1.3l0.4,3.3c0.1,0.8-0.5,1.5-1.3,1.6l-3.3,0.4
		c-0.8,0.1-1.5-0.5-1.6-1.3L49.4,43C49.3,42.2,49.8,41.5,50.6,41.4z"/>
	<path class="st6" d="M57.3,32.5l2.9-0.3c0.7-0.1,1.4,0.4,1.4,1.1l0.3,2.9c0.1,0.7-0.4,1.4-1.1,1.4l-2.9,0.3
		c-0.7,0.1-1.4-0.4-1.4-1.1L56.1,34C56.1,33.3,56.6,32.6,57.3,32.5z"/>
	<path class="st6" d="M58.2,40.6l2.9-0.3c0.7-0.1,1.4,0.4,1.4,1.1l0.3,2.9c0.1,0.7-0.4,1.4-1.1,1.4l-2.9,0.3
		c-0.7,0.1-1.4-0.4-1.4-1.1L57.1,42C57,41.3,57.5,40.7,58.2,40.6z"/>
	<path class="st6" d="M59.1,48.6l2.9-0.3c0.7-0.1,1.4,0.4,1.4,1.1l0.3,2.9c0.1,0.7-0.4,1.4-1.1,1.4l-2.9,0.3
		c-0.7,0.1-1.4-0.4-1.4-1.1L58,50.1C57.9,49.3,58.4,48.7,59.1,48.6z"/>
	<path class="st6" d="M51.6,49.5l2.9-0.3c0.7-0.1,1.4,0.4,1.4,1.1l0.3,2.9c0.1,0.7-0.4,1.4-1.1,1.4L52.2,55
		c-0.7,0.1-1.4-0.4-1.4-1.1l-0.3-2.9C50.3,50.2,50.8,49.6,51.6,49.5z"/>
	<path class="st3" d="M41.1,11.3c0.6,0.8,1,1.6,1.3,2.5c0.3,0.9,0.4,1.9,0.4,2.9c0,1-0.2,1.9-0.5,2.8c-0.1,0.5-0.3,0.9-0.5,1.3
		c-0.2,0.4-0.4,0.8-0.7,1.2c0.3-0.9,0.6-1.8,0.8-2.7c0-0.2,0.1-0.5,0.1-0.7l0.1-0.7c0.1-0.5,0.1-0.9,0.1-1.4c0-0.9-0.1-1.8-0.3-2.7
		C41.8,13,41.5,12.1,41.1,11.3z"/>
	<path class="st3" d="M44,10.7c0.6,0.8,1.1,1.8,1.3,2.8c0.3,1,0.4,2.1,0.4,3.1c0,1.1-0.2,2.1-0.5,3.1c-0.1,0.5-0.3,1-0.5,1.5
		c-0.2,0.5-0.5,0.9-0.7,1.4c0.1-0.5,0.2-1,0.3-1.5s0.2-1,0.2-1.5c0-0.3,0.1-0.5,0.1-0.7l0.1-0.7c0.1-0.5,0.1-1,0.1-1.5
		c0-1,0-2-0.2-3C44.5,12.7,44.3,11.7,44,10.7z"/>
	<path class="st3" d="M46.7,9c1,1,1.7,2.2,2.1,3.6c0.5,1.3,0.7,2.7,0.7,4.2c0,0.4,0,0.7-0.1,1.1c0,0.4-0.1,0.7-0.1,1l-0.2,1
		c-0.1,0.3-0.2,0.7-0.3,1c-0.2,0.7-0.5,1.3-0.8,1.9c-0.3,0.6-0.7,1.2-1.2,1.7c0.1-0.7,0.3-1.3,0.5-2l0.2-1l0.1-0.5l0.1-0.5
		c0-0.3,0.1-0.6,0.2-1l0.1-1c0-0.3,0.1-0.6,0.1-1c0-0.3,0.1-0.6,0-1c0-1.3-0.1-2.6-0.3-3.8C47.5,11.5,47.2,10.3,46.7,9z"/>
	<path class="st0" d="M39,7.8l-0.3,17.5l-6.8-5.6c-0.1-0.1-0.2-0.2-0.3-0.3v0.9c0,0.5-0.4,0.8-0.8,0.8c0,0,0,0,0,0h-1.2
		c-0.5,0-0.9-0.4-0.9-0.8v-7.2c0-0.5,0.4-0.9,0.9-0.9h1.2c0.5,0,0.8,0.4,0.8,0.9v0.5c0.1-0.1,0.2-0.2,0.3-0.3L39,7.8z"/>
	<g>
		<defs>
			<path id="SVGID_3_" d="M39,7.8l-0.3,17.5l-6.8-5.6c-0.1-0.1-0.2-0.2-0.3-0.3v0.9c0,0.5-0.4,0.8-0.8,0.8c0,0,0,0,0,0h-1.2
				c-0.5,0-0.9-0.4-0.9-0.8v-7.2c0-0.5,0.4-0.9,0.9-0.9h1.2c0.5,0,0.8,0.4,0.8,0.9v0.5c0.1-0.1,0.2-0.2,0.3-0.3L39,7.8z"/>
		</defs>
		<clipPath id="SVGID_4_">
			<use xlink:href="#SVGID_3_"  style="overflow:visible;"/>
		</clipPath>
		<g class="st8">
			<path class="st3" d="M39,8.9l-0.3,17.5l-6.8-5.6c-0.1-0.1-0.2-0.2-0.3-0.3v0.9c0,0.5-0.4,0.8-0.8,0.8c0,0,0,0,0,0h-1.2
				c-0.5,0-0.9-0.4-0.9-0.8v-7.2c0-0.5,0.4-0.9,0.9-0.9h1.2c0.5,0,0.8,0.4,0.8,0.9v0.5c0.1-0.1,0.2-0.2,0.3-0.3L39,8.9z"/>
			<path class="st2" d="M29.7,12h0.9c0.6,0,1,0.4,1,1v7.5c0,0.6-0.4,1-1,1h-0.9c-0.6,0-1-0.4-1-1V13C28.7,12.4,29.1,12,29.7,12z"/>
		</g>
	</g>
</g>
</svg>
