<?xml version="1.0" encoding="utf-8"?>
<!-- Generator: Adobe Illustrator 24.1.1, SVG Export Plug-In . SVG Version: 6.00 Build 0)  -->
<svg version="1.1" id="Ebene_1" xmlns="http://www.w3.org/2000/svg" xmlns:xlink="http://www.w3.org/1999/xlink" x="0px" y="0px"
	 viewBox="0 0 135.3 116.6" style="enable-background:new 0 0 135.3 116.6;" xml:space="preserve">
<style type="text/css">
	.st0{fill:#A993BA;}
</style>
<g>
	<g>
		<path class="st0" d="M9.5,51.2c-1.3-3.1-2-6.6-2-10.2c0-14.6,11.9-26.5,26.5-26.5c6.7,0,12.9,2.5,17.5,6.6
			c4.2-11.2,15-19.2,27.6-19.2c15.3,0,27.9,11.7,29.3,26.6c1.5-0.3,3.1-0.5,4.7-0.5c13.2,0,24,10.7,24,24c0,11.6-8.2,21.2-19.1,23.5
			l12.6,43l-24.3-22c-5.4,6.5-13.5,10.6-22.6,10.6c-11.8,0-22-6.9-26.7-16.9c-5.6,7.3-14.5,12-24.4,12c-17,0-30.8-13.8-30.8-30.8
			C1.9,63.7,4.7,56.6,9.5,51.2z"/>
	</g>
</g>
<g>
	<path d="M49.1,45.5h12.7v16h-2.3v-2H49.1v11.3h-2.4V59.6H36.4v2.2h-2.3V45.5h12.5v-6.2l3.1,0.2c0,0.2-0.2,0.4-0.7,0.5V45.5z
		 M36.4,57.3h10.2v-9.5H36.4V57.3z M49.1,57.3h10.4v-9.5H49.1V57.3z"/>
	<path d="M97.6,47.5h-6.1c0.9,0.3,1.1,0.4,1.4,0.5c-0.1,0.2-0.4,0.3-0.8,0.3c-2,5.6-4.7,10-8.2,13.6c3.8,3.2,8.6,5.5,14.2,6.8
		c-0.5,0.5-1.3,1.6-1.6,2.3c-5.8-1.5-10.6-4-14.5-7.4c-3.8,3.2-8.6,5.6-14.3,7.4c-0.2-0.6-0.9-1.5-1.3-2.1
		c5.6-1.6,10.2-3.8,13.9-6.9c-3.7-3.8-6.5-8.5-8.5-14l1.4-0.4h-6.6v-2.2h14.2v-5.9l3,0.2c0,0.2-0.2,0.4-0.7,0.5v5.3h14.5V47.5z
		 M74,47.5c1.8,5,4.4,9.3,8,12.8c3.4-3.4,5.9-7.5,7.7-12.8H74z"/>
</g>
</svg>
