<svg xmlns="http://www.w3.org/2000/svg" xmlns:xlink="http://www.w3.org/1999/xlink" viewBox="0 0 76 76"><defs><style>.cls-1{fill:#f7c7c5;}.cls-2{isolation:isolate;}.cls-3{fill:#e95653;}.cls-4{fill:none;}.cls-5{opacity:0.15;mix-blend-mode:multiply;}.cls-6{fill:#fff;}.cls-7{fill:#f8f9fa;}.cls-8{fill:#dee3e8;}.cls-9{clip-path:url(#clip-path);}.cls-10{fill:#fbdddd;}</style><clipPath id="clip-path"><path class="cls-1" d="M29.27,47.3q-6.292,0-12.585-.506a158.4,158.4,0,0,0,0-25.289,158.4,158.4,0,0,1,25.289,0q-.5,6.293-.506,12.585C41.527,40.98,36.4,47.24,29.27,47.3Z"/></clipPath></defs><title>Datenkompresion</title><g class="cls-2"><g id="Layer_1" data-name="Layer 1"><circle class="cls-3" cx="38" cy="38" r="37.5"/><path class="cls-4" d="M28.011,62.7l-5.7-4.406-2.848-2.2C17.8,54.8,15.9,53.62,15.9,51.249h6.735c.016-.2-1.6-1.3-1.817-1.446-1.159-.79-2.168-1.725-3.327-2.515-.349-.238-.744-.462-.76-1.007-.042-1.429.205-2.916.277-4.346q.1-1.975.148-3.952a158.733,158.733,0,0,0-.456-16.6c1.5-.12,3-.211,4.506-.288,0-.088-.679-.5-.775-.567-1.075-.77-2.124-1.621-3.165-2.448-.258-.2-.527-.4-.791-.612a3,3,0,0,1-.417-.306c-.386-.474.082-1.722.469-2.353,1.41-2.3,3.9-2.045,6.2-2.045H52.747c.538,0,1.08-.018,1.618,0,1.642.055,2.718.973,3.938,1.916q4.749,3.671,9.5,7.343l5.937,4.592A37.5,37.5,0,1,0,43.953,75.025l-4.548-3.517Z"/><path class="cls-5" d="M75.5,38a37.446,37.446,0,0,0-1.764-11.381L67.8,22.027q-4.748-3.672-9.5-7.343c-1.22-.943-2.3-1.861-3.938-1.916-.538-.018-1.08,0-1.618,0H22.731c-2.3,0-4.79-.257-6.2,2.045-.387.631-.855,1.879-.469,2.353a3,3,0,0,0,.417.306c.264.21.533.407.791.612,1.041.827,2.09,1.678,3.165,2.448.1.068.776.479.775.567-1.5.077-3.006.168-4.506.288a158.733,158.733,0,0,1,.456,16.6q-.05,1.977-.148,3.952c-.072,1.43-.319,2.917-.277,4.346.016.545.411.769.76,1.007,1.159.79,2.168,1.725,3.327,2.515.213.145,1.833,1.251,1.817,1.446H15.9c0,2.371,1.9,3.552,3.561,4.838l2.848,2.2,5.7,4.406,11.394,8.812,4.548,3.517A37.506,37.506,0,0,0,75.5,38Z"/><path class="cls-6" d="M54.366,17.157h4.275a4.276,4.276,0,0,0-4.275-4.276H20.16a4.276,4.276,0,0,0-4.275,4.276Z"/><path class="cls-6" d="M54.366,51.362H15.885a4.276,4.276,0,0,0,4.275,4.276H48.123v8.551H58.641V51.362Z"/><path class="cls-7" d="M50.374,25.82a.757.757,0,0,1-.32-1.444l6.8-3.173a.757.757,0,0,1,.64,1.373l-6.8,3.172A.749.749,0,0,1,50.374,25.82Z"/><path class="cls-7" d="M50.374,30.754a.757.757,0,0,1-.32-1.444l6.8-3.172a.757.757,0,0,1,.64,1.372l-6.8,3.173A.763.763,0,0,1,50.374,30.754Z"/><path class="cls-8" d="M50.374,35.452a.757.757,0,0,1-.32-1.443l6.8-3.173a.757.757,0,0,1,.64,1.372l-6.8,3.173A.748.748,0,0,1,50.374,35.452Z"/><path class="cls-8" d="M50.374,39.7a.757.757,0,0,1-.32-1.444l6.8-3.173a.757.757,0,0,1,.64,1.372l-6.8,3.173A.749.749,0,0,1,50.374,39.7Z"/><path class="cls-8" d="M50.374,44.261a.757.757,0,0,1-.32-1.444l6.8-3.173a.757.757,0,0,1,.64,1.373l-6.8,3.172A.749.749,0,0,1,50.374,44.261Z"/><path class="cls-8" d="M50.374,49.1a.757.757,0,0,1-.32-1.443l6.8-3.173a.757.757,0,0,1,.64,1.372l-6.8,3.173A.748.748,0,0,1,50.374,49.1Z"/><path class="cls-1" d="M29.27,47.3q-6.292,0-12.585-.506a158.4,158.4,0,0,0,0-25.289,158.4,158.4,0,0,1,25.289,0q-.5,6.293-.506,12.585C41.527,40.98,36.4,47.24,29.27,47.3Z"/><g class="cls-9"><polygon class="cls-10" points="16.101 42.775 10.981 18.68 37.561 12.122 16.101 42.775"/></g></g></g></svg>