<svg xmlns="http://www.w3.org/2000/svg" xmlns:xlink="http://www.w3.org/1999/xlink" viewBox="0 0 131.902 114.732"><defs><style>.cls-1{fill:none;}.cls-2{clip-path:url(#clip-path);}.cls-3{fill:#f1918f;}</style><clipPath id="clip-path" transform="translate(-59.049 -17.07)"><rect class="cls-1" width="250" height="150"/></clipPath></defs><title>deutsch_250x150px</title><g id="Layer_2" data-name="Layer 2"><g id="textos_y_elementos" data-name="textos y elementos"><g class="cls-2"><path class="cls-3" d="M176.18,17.07H73.82c-8.158,0-14.771,6.084-14.771,13.588V84.627c0,7.5,6.613,13.588,14.771,13.588h73.208L170.461,131.8l-3.314-33.587h9.033c8.158,0,14.771-6.084,14.771-13.588V30.658C190.951,23.154,184.338,17.07,176.18,17.07Z" transform="translate(-59.049 -17.07)"/><path d="M78.742,65.257v-14.7h5.209q7.833,0,7.834,7.167a7.247,7.247,0,0,1-2.138,5.486,7.886,7.886,0,0,1-5.7,2.051Zm3.312-12.008V62.57H83.7a4.43,4.43,0,0,0,3.378-1.292A4.9,4.9,0,0,0,88.3,57.761a4.449,4.449,0,0,0-1.215-3.307,4.635,4.635,0,0,0-3.41-1.2Z" transform="translate(-59.049 -17.07)"/><path d="M103.043,65.257H94.225v-14.7h8.48v2.7H97.537v3.272h4.809v2.686H97.537V62.57h5.506Z" transform="translate(-59.049 -17.07)"/><path d="M117.388,58.89q0,6.624-6.172,6.623-5.989,0-5.988-6.47v-8.49h3.322v8.531q0,3.569,2.789,3.568,2.736,0,2.738-3.445V50.553h3.311Z" transform="translate(-59.049 -17.07)"/><path d="M130.913,53.249h-4.194V65.257H123.4V53.249h-4.173v-2.7h11.689Z" transform="translate(-59.049 -17.07)"/><path d="M132.215,64.692V61.411a6.275,6.275,0,0,0,1.939,1.123,6.21,6.21,0,0,0,2.111.375,4.708,4.708,0,0,0,1.093-.113,2.6,2.6,0,0,0,.779-.312,1.378,1.378,0,0,0,.466-.472,1.176,1.176,0,0,0,.154-.59,1.274,1.274,0,0,0-.246-.769,2.648,2.648,0,0,0-.672-.626,6.932,6.932,0,0,0-1.01-.553q-.584-.267-1.261-.543A6.452,6.452,0,0,1,133,57.177a3.835,3.835,0,0,1-.845-2.5,3.99,3.99,0,0,1,.461-1.974,3.908,3.908,0,0,1,1.256-1.358,5.639,5.639,0,0,1,1.841-.785,9.491,9.491,0,0,1,2.215-.251,13.369,13.369,0,0,1,2.035.138,8.078,8.078,0,0,1,1.635.425v3.067a4.927,4.927,0,0,0-.805-.452,6.551,6.551,0,0,0-.9-.323,6.964,6.964,0,0,0-.918-.189,6.524,6.524,0,0,0-.867-.062,4.519,4.519,0,0,0-1.026.108,2.677,2.677,0,0,0-.779.3,1.505,1.505,0,0,0-.492.467,1.108,1.108,0,0,0-.174.61,1.162,1.162,0,0,0,.2.662,2.227,2.227,0,0,0,.553.553,5.931,5.931,0,0,0,.872.513q.513.251,1.159.518a12.918,12.918,0,0,1,1.584.784,5.69,5.69,0,0,1,1.205.938,3.678,3.678,0,0,1,.769,1.2,4.765,4.765,0,0,1-.2,3.63,3.786,3.786,0,0,1-1.266,1.353,5.47,5.47,0,0,1-1.861.744,10.789,10.789,0,0,1-2.24.225,12.521,12.521,0,0,1-2.3-.2A6.871,6.871,0,0,1,132.215,64.692Z" transform="translate(-59.049 -17.07)"/><path d="M155.2,64.734a9.687,9.687,0,0,1-4.2.779,7.084,7.084,0,0,1-5.321-1.988,7.27,7.27,0,0,1-1.938-5.3,7.771,7.771,0,0,1,2.178-5.722,7.623,7.623,0,0,1,5.656-2.194,10.553,10.553,0,0,1,3.629.544v3.188a6.429,6.429,0,0,0-3.363-.882,4.464,4.464,0,0,0-3.343,1.3,4.834,4.834,0,0,0-1.271,3.527,4.733,4.733,0,0,0,1.2,3.4,4.233,4.233,0,0,0,3.23,1.266,6.885,6.885,0,0,0,3.547-.943Z" transform="translate(-59.049 -17.07)"/><path d="M170.493,65.257H167.17V59.269h-6.09v5.988h-3.312v-14.7h3.312v5.865h6.09V50.553h3.323Z" transform="translate(-59.049 -17.07)"/></g></g></g></svg>