<svg xmlns="http://www.w3.org/2000/svg" xmlns:xlink="http://www.w3.org/1999/xlink" viewBox="0 0 76 76"><defs><style>.cls-1,.cls-5{fill:#f8f9fa;}.cls-1,.cls-11,.cls-9{stroke:#9fb8cc;}.cls-1,.cls-11,.cls-6,.cls-9{stroke-miterlimit:10;}.cls-1,.cls-9{stroke-width:0.028px;}.cls-2{isolation:isolate;}.cls-3{fill:#e95653;}.cls-4{opacity:0.15;mix-blend-mode:multiply;}.cls-6{fill:#7faac5;stroke:#fff;stroke-width:0.082px;}.cls-7{clip-path:url(#clip-path);}.cls-8{fill:#fff;}.cls-9{fill:none;}.cls-10{fill:#eff1f4;}.cls-11{fill:#f08e8c;stroke-width:0.021px;}</style><clipPath id="clip-path"><rect id="_YOUR_SCREEN_HERE_" data-name="[YOUR SCREEN HERE]" class="cls-1" x="13.656" y="19.021" width="48.935" height="30.563"/></clipPath></defs><title>einbindung</title><g class="cls-2"><g id="Layer_1" data-name="Layer 1"><circle class="cls-3" cx="38" cy="38" r="37.5"/><path class="cls-3" d="M17.236,55.164c-1.378-1.053-3.329-1.974-3.562-3.818a26.321,26.321,0,0,1,0-3.227V21.458c0-2.122-.579-4.862,2.219-5.2a62.282,62.282,0,0,1,7.23,0H62.381a17.721,17.721,0,0,1,2.258,0c1.683.225,3.1,1.806,4.424,2.8.753.566,1.5,1.147,2.246,1.716a37.513,37.513,0,1,0-27.98,54.336q-2.312-1.758-4.624-3.518Q27.962,63.391,17.236,55.164Z"/><path class="cls-4" d="M75.5,38a37.324,37.324,0,0,0-4.191-17.22c-.751-.569-1.493-1.15-2.246-1.716-1.327-1-2.741-2.579-4.424-2.8a17.721,17.721,0,0,0-2.258,0H23.123a62.282,62.282,0,0,0-7.23,0c-2.8.336-2.219,3.076-2.219,5.2V48.119a26.321,26.321,0,0,0,0,3.227c.233,1.844,2.184,2.765,3.562,3.818Q27.979,63.37,38.705,71.6q2.309,1.764,4.624,3.518A37.5,37.5,0,0,0,75.5,38Z"/><rect class="cls-5" x="35.036" y="52.103" width="6.92" height="6.92" rx="1"/><rect id="Body_-_Frame" data-name="Body - Frame" class="cls-6" x="11.586" y="16.297" width="53.076" height="37.218" rx="1.964"/><path id="Border" class="cls-5" d="M62.7,16.507H13.55A1.756,1.756,0,0,0,11.8,18.26V50.9H64.451V18.26A1.755,1.755,0,0,0,62.7,16.507Z"/><rect id="_YOUR_SCREEN_HERE_2" data-name="[YOUR SCREEN HERE]" class="cls-5" x="13.656" y="19.021" width="48.935" height="30.563"/><g class="cls-7"><polygon class="cls-8" points="6.902 44.33 10.844 15.712 35.178 12.799 6.902 44.33"/></g><rect id="_YOUR_SCREEN_HERE_3" data-name="[YOUR SCREEN HERE]" class="cls-9" x="13.656" y="19.021" width="48.935" height="30.563"/><path id="Bottom" class="cls-10" d="M11.8,51.551A1.755,1.755,0,0,0,13.55,53.3H62.7a1.754,1.754,0,0,0,1.753-1.753V50.9H11.8Z"/><g id="Body"><path class="cls-8" d="M38.5,58.536H29.634v.354a24.806,24.806,0,0,0,3.586.168H43.772a24.822,24.822,0,0,0,3.587-.168v-.354Z"/></g><path class="cls-11" d="M35.955,19.021v2.691h9.838a.6.6,0,0,1,.6.605V24.1a.6.6,0,0,1-.6.605H35.955v2.424h9.838a.6.6,0,0,1,.6.605v1.781a.6.6,0,0,1-.6.6H35.955v2.424h9.838a.6.6,0,0,1,.6.6v1.781a.6.6,0,0,1-.6.6H35.955v2.425h9.838a.6.6,0,0,1,.6.6v1.781a.6.6,0,0,1-.6.6H35.955v2.425h9.838a.6.6,0,0,1,.6.6v1.782a.6.6,0,0,1-.6.6H35.955v3.222H62.591V19.021Z"/></g></g></svg>