<svg xmlns="http://www.w3.org/2000/svg" xmlns:xlink="http://www.w3.org/1999/xlink" viewBox="0 0 76 76"><defs><style>.cls-1{fill:#f7c7c5;}.cls-2{isolation:isolate;}.cls-3{fill:#e95653;}.cls-4{fill:none;}.cls-5{opacity:0.15;mix-blend-mode:multiply;}.cls-6{clip-path:url(#clip-path);}.cls-7{fill:#fbdddd;}.cls-8{fill:#fff;}.cls-9{fill:#f08e8c;}</style><clipPath id="clip-path"><path class="cls-1" d="M49.981,48.884c1.04,4.266-2.973,12.655-6.17,13.435L20.18,68.081,8.666,20.857l32.547-7.935L49.987,48.91Z"/></clipPath></defs><title>einfuegen-extras</title><g class="cls-2"><g id="Layer_1" data-name="Layer 1"><circle class="cls-3" cx="38" cy="38" r="37.5"/><path class="cls-4" d="M26.877,72.252c-1.2-.772-2.408-1.524-3.6-2.294-.6-.384-1.177-.789-1.772-1.173-.552-.356-1.248-.472-1.467-1.37l-6.169-25.3Q11.26,31.421,8.652,20.73l2.385-.581L20,17.964c.545-.133.482-.085.733-.675a16.36,16.36,0,0,1,1.991-3.443A15.342,15.342,0,0,1,28.9,8.971c5.11-2.18,10.419-1.065,14.952,1.859l4.535,2.925,9.072,5.85,1.134.732a10.492,10.492,0,0,0,1.973.884,24.388,24.388,0,0,1,4.154,2.369l4.536,2.926,5.375,3.466A37.5,37.5,0,1,0,30.9,74.82c-.14-.091-.279-.184-.419-.274C29.284,73.776,28.073,73.023,26.877,72.252Z"/><path class="cls-5" d="M75.5,38a37.62,37.62,0,0,0-.868-8.018l-5.375-3.466L64.721,23.59a24.388,24.388,0,0,0-4.154-2.369,10.492,10.492,0,0,1-1.973-.884l-1.134-.732-9.072-5.85L43.853,10.83C39.32,7.906,34.011,6.791,28.9,8.971a15.342,15.342,0,0,0-6.179,4.875,16.36,16.36,0,0,0-1.991,3.443c-.251.59-.188.542-.733.675l-8.961,2.185-2.385.581q2.607,10.692,5.213,21.383l6.169,25.3c.219.9.915,1.014,1.467,1.37.595.384,1.176.789,1.772,1.173,1.2.77,2.407,1.522,3.6,2.294s2.407,1.524,3.6,2.294c.14.09.279.183.419.274A37.493,37.493,0,0,0,75.5,38Z"/><path class="cls-1" d="M49.981,48.884c1.04,4.266-2.973,12.655-6.17,13.435L20.18,68.081,8.666,20.857l32.547-7.935L49.987,48.91Z"/><g class="cls-6"><polygon class="cls-7" points="16.034 57.08 6.674 20.494 39.457 14.275 16.034 57.08"/></g><path class="cls-8" d="M19.477,25.2A16.078,16.078,0,0,1,29.053,9.04c6.6-2.731,13.848-.444,19.4,6.118L42.7,20.016c-3.376-3.994-7.3-5.46-10.771-4.024a8.488,8.488,0,0,0-4.956,8.579Z"/><polygon class="cls-8" points="16.937 25.701 29.289 22.357 24.784 30.204 16.937 25.701"/><circle class="cls-8" cx="55.458" cy="34.21" r="13.85"/><path class="cls-3" d="M57.25,29.574a3.646,3.646,0,0,0-.035-.5l-1-.608.279-1.139a3.791,3.791,0,0,0-.713-.713l-1.139.279-.608-1a3.646,3.646,0,0,0-1.008,0l-.608,1-1.139-.279a3.791,3.791,0,0,0-.713.713l.279,1.139-1,.608a3.646,3.646,0,0,0,0,1.008l1,.608-.279,1.139a3.733,3.733,0,0,0,.713.713l1.139-.279.608,1a3.646,3.646,0,0,0,1.008,0l.608-1,1.139.279a3.733,3.733,0,0,0,.713-.713l-.279-1.139,1-.608A3.646,3.646,0,0,0,57.25,29.574Zm-3.728,2.792a2.786,2.786,0,1,1,2.786-2.786A2.786,2.786,0,0,1,53.522,32.366Z"/><path class="cls-3" d="M52.779,37.506a4.453,4.453,0,0,0-.405-.428l-1.355.2-.593-1.233a4.4,4.4,0,0,0-1.171-.114l-.819,1.1-1.292-.453a4.3,4.3,0,0,0-.908.748l.2,1.354-1.233.594a4.39,4.39,0,0,0-.113,1.171l1.1.819-.452,1.291a4.345,4.345,0,0,0,.342.481,4.453,4.453,0,0,0,.405.428l1.355-.2.593,1.233a4.35,4.35,0,0,0,1.171.114l.819-1.1,1.292.452a4.216,4.216,0,0,0,.908-.748l-.2-1.354,1.234-.593a4.4,4.4,0,0,0,.113-1.171l-1.1-.82.452-1.291A4.334,4.334,0,0,0,52.779,37.506Zm-1.291,5.2a3.156,3.156,0,1,1,.431-4.443A3.156,3.156,0,0,1,51.488,42.7Z"/><path class="cls-9" d="M51.032,33.142a3.076,3.076,0,0,0-.042-.411l-.834-.469.2-.937a3.082,3.082,0,0,0-.6-.562l-.922.258-.523-.8a3.121,3.121,0,0,0-.412-.015,3.253,3.253,0,0,0-.41.042l-.469.834-.937-.2a3.018,3.018,0,0,0-.562.6l.258.922-.8.523a2.965,2.965,0,0,0-.015.412,2.905,2.905,0,0,0,.042.41l.834.469-.2.937a3.023,3.023,0,0,0,.6.562l.921-.258.524.8a3.123,3.123,0,0,0,.412.014,2.921,2.921,0,0,0,.41-.042l.469-.834.937.2a3.075,3.075,0,0,0,.562-.6l-.258-.922.8-.523A2.965,2.965,0,0,0,51.032,33.142Zm-3,2.322a2.187,2.187,0,1,1,2.113-2.258A2.186,2.186,0,0,1,48.034,35.464Z"/><path class="cls-9" d="M62.383,32.785a2.919,2.919,0,0,0-.042-.411l-.834-.469.2-.936a3.057,3.057,0,0,0-.6-.563l-.922.259-.523-.8a3.121,3.121,0,0,0-.412-.015,3.253,3.253,0,0,0-.41.042l-.469.835-.937-.2a3.075,3.075,0,0,0-.562.6l.258.922-.8.523a2.965,2.965,0,0,0-.015.412,2.919,2.919,0,0,0,.042.411l.834.469-.2.936a3.057,3.057,0,0,0,.6.563l.921-.259.524.8a3.121,3.121,0,0,0,.412.015,3.253,3.253,0,0,0,.41-.042l.469-.835.937.2a3.075,3.075,0,0,0,.562-.6l-.258-.922.8-.523A2.965,2.965,0,0,0,62.383,32.785Zm-3,2.322A2.187,2.187,0,1,1,61.5,32.849,2.186,2.186,0,0,1,59.385,35.107Z"/><path class="cls-3" d="M67.248,29.474a3.061,3.061,0,0,0-.042-.41l-.834-.469.2-.937a3.023,3.023,0,0,0-.6-.562l-.922.258-.523-.8a3.3,3.3,0,0,0-.412-.015,3.078,3.078,0,0,0-.41.043l-.469.834-.937-.2a3.045,3.045,0,0,0-.562.6l.258.922-.8.523a2.965,2.965,0,0,0-.015.412,2.919,2.919,0,0,0,.042.411l.834.469-.2.937a3.082,3.082,0,0,0,.6.562l.921-.258.523.8a3.143,3.143,0,0,0,.413.015,3.253,3.253,0,0,0,.41-.042l.469-.834.937.2a3.077,3.077,0,0,0,.562-.6l-.258-.922.8-.523A2.965,2.965,0,0,0,67.248,29.474Zm-3,2.322a2.187,2.187,0,1,1,2.113-2.258A2.187,2.187,0,0,1,64.25,31.8Z"/></g></g></svg>