<svg xmlns="http://www.w3.org/2000/svg" xmlns:xlink="http://www.w3.org/1999/xlink" viewBox="0 0 135.264 116.608"><defs><style>.cls-1{fill:none;}.cls-2{clip-path:url(#clip-path);}.cls-3{fill:#f5d877;}</style><clipPath id="clip-path" transform="translate(-57.368 -5.104)"><rect class="cls-1" width="250" height="150"/></clipPath></defs><title>English_250x150px</title><g id="Layer_2" data-name="Layer 2"><g id="textos_y_elementos" data-name="textos y elementos"><g class="cls-2"><path class="cls-3" d="M64.97,54.419A26.508,26.508,0,0,1,106.977,24.34a29.459,29.459,0,0,1,56.951,7.391,23.986,23.986,0,0,1,9.629,47l12.583,42.985L161.809,99.737a29.455,29.455,0,0,1-49.281-6.345A30.759,30.759,0,1,1,64.97,54.419Z" transform="translate(-57.368 -5.104)"/><path d="M89.5,66.868H80.684v-14.7h8.48v2.7H84v3.272h4.808v2.686H84v3.364h5.5Z" transform="translate(-57.368 -5.104)"/><path d="M105.088,66.868h-3.342L95.685,57.63a13.189,13.189,0,0,1-.738-1.221h-.041q.081.78.082,2.379v8.08H91.861v-14.7h3.568l5.834,8.952q.4.606.738,1.2h.041a15.868,15.868,0,0,1-.082-2.02V52.164h3.128Z" transform="translate(-57.368 -5.104)"/><path d="M120.52,65.884a10.582,10.582,0,0,1-5.352,1.24,7.737,7.737,0,0,1-5.593-1.963,7.139,7.139,0,0,1-2.046-5.409,7.547,7.547,0,0,1,2.235-5.649,8.141,8.141,0,0,1,5.947-2.185,12.092,12.092,0,0,1,4.122.646v3.107a8.192,8.192,0,0,0-4.163-.984,4.473,4.473,0,0,0-3.358,1.337,5.713,5.713,0,0,0-.133,7.081,4.1,4.1,0,0,0,3.143,1.241,4.361,4.361,0,0,0,1.886-.339V61.136h-2.942V58.491h6.254Z" transform="translate(-57.368 -5.104)"/><path d="M132.138,66.868h-8.757v-14.7h3.313V64.182h5.444Z" transform="translate(-57.368 -5.104)"/><path d="M137.43,66.868h-3.312v-14.7h3.312Z" transform="translate(-57.368 -5.104)"/><path d="M140.1,66.3V63.023a6.275,6.275,0,0,0,1.939,1.123,6.21,6.21,0,0,0,2.111.375,4.7,4.7,0,0,0,1.093-.114,2.575,2.575,0,0,0,.779-.312,1.37,1.37,0,0,0,.466-.472,1.176,1.176,0,0,0,.154-.59,1.269,1.269,0,0,0-.246-.768,2.613,2.613,0,0,0-.672-.626,6.93,6.93,0,0,0-1.01-.554q-.584-.267-1.261-.543a6.432,6.432,0,0,1-2.569-1.754,3.831,3.831,0,0,1-.845-2.5,3.986,3.986,0,0,1,.461-1.973,3.92,3.92,0,0,1,1.256-1.359,5.661,5.661,0,0,1,1.841-.785,9.485,9.485,0,0,1,2.215-.251,13.232,13.232,0,0,1,2.035.139,8.012,8.012,0,0,1,1.635.425v3.066a4.923,4.923,0,0,0-.805-.451,6.34,6.34,0,0,0-.9-.323,6.97,6.97,0,0,0-.918-.19,6.516,6.516,0,0,0-.867-.061,4.579,4.579,0,0,0-1.026.107,2.65,2.65,0,0,0-.779.3,1.5,1.5,0,0,0-.492.466,1.108,1.108,0,0,0-.174.61,1.159,1.159,0,0,0,.195.662,2.246,2.246,0,0,0,.553.554,5.932,5.932,0,0,0,.872.512q.513.251,1.159.518a13.137,13.137,0,0,1,1.584.784,5.661,5.661,0,0,1,1.2.939,3.674,3.674,0,0,1,.769,1.194,4.778,4.778,0,0,1-.2,3.63,3.778,3.778,0,0,1-1.266,1.353,5.47,5.47,0,0,1-1.861.744,10.792,10.792,0,0,1-2.241.225,12.431,12.431,0,0,1-2.3-.2A6.9,6.9,0,0,1,140.1,66.3Z" transform="translate(-57.368 -5.104)"/><path d="M165.268,66.868h-3.322V60.88h-6.09v5.988h-3.313v-14.7h3.313v5.865h6.09V52.164h3.322Z" transform="translate(-57.368 -5.104)"/></g></g></g></svg>