<svg xmlns="http://www.w3.org/2000/svg" viewBox="0 0 75 75"><defs><style>.cls-1{fill:#f9d2d1;}.cls-2{isolation:isolate;}.cls-3{fill:#e95653;}.cls-4{opacity:0.15;mix-blend-mode:multiply;}.cls-5{fill:#fff;}.cls-6{fill:#7faac5;}.cls-7{fill:#9fb8cc;}.cls-8{fill:#eff1f4;}.cls-9{fill:#dee3e8;}</style></defs><title>erechnung</title><g class="cls-2"><g id="Layer_2" data-name="Layer 2"><g id="Layer_1-2" data-name="Layer 1"><circle class="cls-3" cx="37.5" cy="37.5" r="37.5"/><path class="cls-3" d="M16.736,54.664c-1.378-1.053-3.329-1.974-3.562-3.818a26.321,26.321,0,0,1,0-3.227V20.958c0-2.122-.579-4.862,2.219-5.2a62.282,62.282,0,0,1,7.23,0H61.881a17.721,17.721,0,0,1,2.258,0c1.683.225,3.1,1.806,4.424,2.8.753.566,1.5,1.147,2.246,1.716a37.513,37.513,0,1,0-27.98,54.336q-2.312-1.758-4.624-3.518Q27.462,62.891,16.736,54.664Z"/><path class="cls-4" d="M75,37.5a37.324,37.324,0,0,0-4.191-17.22c-.751-.569-1.493-1.15-2.246-1.716-1.327-1-2.741-2.579-4.424-2.8a17.721,17.721,0,0,0-2.258,0H22.623a62.282,62.282,0,0,0-7.23,0c-2.8.336-2.219,3.076-2.219,5.2V47.619a26.321,26.321,0,0,0,0,3.227c.233,1.844,2.184,2.765,3.562,3.818Q27.479,62.87,38.205,71.1q2.309,1.764,4.624,3.518A37.5,37.5,0,0,0,75,37.5Z"/><rect class="cls-5" x="35.303" y="50.704" width="6.874" height="6.874" rx="1"/><g id="Body_-_Frame" data-name="Body - Frame"><rect class="cls-6" x="12.01" y="15.137" width="52.72" height="36.968" rx="1.95"/><path class="cls-5" d="M62.779,52.147H13.961a2,2,0,0,1-1.993-1.991V17.088A1.994,1.994,0,0,1,13.961,15.1H62.779a1.993,1.993,0,0,1,1.991,1.991V50.156A1.994,1.994,0,0,1,62.779,52.147ZM13.961,15.178a1.913,1.913,0,0,0-1.911,1.91V50.156a1.912,1.912,0,0,0,1.911,1.909H62.779a1.911,1.911,0,0,0,1.909-1.909V17.088a1.912,1.912,0,0,0-1.909-1.91Z"/></g><g id="Border"><path class="cls-5" d="M62.779,15.346H13.96a1.744,1.744,0,0,0-1.741,1.742V49.51h52.3V17.088A1.745,1.745,0,0,0,62.779,15.346Z"/></g><rect class="cls-1" x="14.066" y="17.843" width="48.607" height="30.358"/><path class="cls-7" d="M62.687,48.215H14.052V17.829H62.687ZM14.08,48.188H62.66V17.857H14.08Z"/><g id="Bottom"><path class="cls-8" d="M12.219,50.155A1.743,1.743,0,0,0,13.96,51.9H62.779a1.744,1.744,0,0,0,1.742-1.742V49.51h-52.3Z"/></g><rect class="cls-5" x="28.918" y="22.065" width="21.507" height="23.053"/><path class="cls-3" d="M48.119,42.53a3.272,3.272,0,0,1-1.49.354,2.545,2.545,0,0,1-2.691-2.422H43.3v-.67h.571a2.688,2.688,0,0,1-.021-.368,4.773,4.773,0,0,1,.031-.517H43.3v-.67h.692a3.291,3.291,0,0,1,1.018-1.8,2.67,2.67,0,0,1,1.815-.649,3.023,3.023,0,0,1,1.3.268v.776a2.518,2.518,0,0,0-1.353-.374,1.678,1.678,0,0,0-1.176.481,2.588,2.588,0,0,0-.721,1.3H47.5v.67H44.752a4.952,4.952,0,0,0-.005.885H47.5v.67H44.832q.38,1.752,1.849,1.752a2.944,2.944,0,0,0,1.438-.417Z"/><rect class="cls-3" x="28.718" y="20.174" width="0.623" height="27.312"/><g id="Body"><path class="cls-9" d="M38.74,57.094h-8.8v.351a24.543,24.543,0,0,0,3.563.167H43.98a24.543,24.543,0,0,0,3.563-.167v-.351Z"/></g><path class="cls-3" d="M44.568,31.471,32.716,31.41a.041.041,0,0,1-.041-.037l0-.212a.036.036,0,0,1,.038-.036l11.853.061a.039.039,0,0,1,.04.036l.005.213A.037.037,0,0,1,44.568,31.471Z"/><path class="cls-3" d="M44.552,30.758,32.7,30.7a.039.039,0,0,1-.04-.036l0-.213a.036.036,0,0,1,.039-.035l11.853.06a.041.041,0,0,1,.04.037l0,.212A.036.036,0,0,1,44.552,30.758Z"/><path class="cls-3" d="M44.536,30.046l-11.853-.061a.039.039,0,0,1-.04-.036l-.005-.213a.037.037,0,0,1,.039-.036l11.852.061a.041.041,0,0,1,.041.037l0,.212A.036.036,0,0,1,44.536,30.046Z"/><path class="cls-3" d="M44.584,32.183l-11.852-.061a.038.038,0,0,1-.04-.036l-.005-.213a.036.036,0,0,1,.038-.036l11.853.061a.039.039,0,0,1,.04.036l0,.213A.037.037,0,0,1,44.584,32.183Z"/><path class="cls-3" d="M44.6,32.9l-11.852-.061a.038.038,0,0,1-.04-.036l0-.213a.036.036,0,0,1,.038-.036l11.853.061a.039.039,0,0,1,.04.037l.005.212A.037.037,0,0,1,44.6,32.9Z"/><path class="cls-3" d="M44.616,33.607l-11.852-.06a.04.04,0,0,1-.04-.037l0-.212a.037.037,0,0,1,.039-.036l11.852.061a.038.038,0,0,1,.04.036l.005.212A.037.037,0,0,1,44.616,33.607Z"/><path class="cls-3" d="M48.08,24.735l-5.866-.079c-.01,0-.019-.013-.02-.03l0-.171c0-.016.009-.029.019-.028l5.866.079c.011,0,.02.013.02.029l0,.171C48.1,24.722,48.091,24.735,48.08,24.735Z"/><path class="cls-3" d="M48.09,25.308l-5.866-.079c-.011,0-.02-.013-.02-.029l0-.171c0-.016.008-.029.019-.029l5.866.079c.011,0,.02.013.02.029l0,.171C48.109,25.3,48.1,25.308,48.09,25.308Z"/><path class="cls-3" d="M48.1,25.881,42.234,25.8c-.011,0-.02-.013-.02-.029l0-.171c0-.016.008-.029.019-.029l5.866.079c.011,0,.02.013.02.029l0,.171C48.119,25.868,48.111,25.881,48.1,25.881Z"/></g></g></g></svg>