<svg xmlns="http://www.w3.org/2000/svg" xmlns:xlink="http://www.w3.org/1999/xlink" viewBox="0 0 45.37 72.3"><defs><style>.cls-1{fill:#7fc3de;}.cls-2{clip-path:url(#clip-path);}.cls-3{fill:#bfe1ef;}</style><clipPath id="clip-path"><path class="cls-1" d="M43.44,53.08c1,4.27-3,12.67-6.18,13.45L13.6,72.3,2.07,25l32.59-7.95,8.79,36Z"/></clipPath></defs><title>erstellte docs-blau</title><g id="Layer_2" data-name="Layer 2"><g id="textos_y_elementos" data-name="textos y elementos"><path class="cls-1" d="M43.44,53.08c1,4.27-3,12.67-6.18,13.45L13.6,72.3,2.07,25l32.59-7.95,8.79,36Z"/><g class="cls-2"><polygon class="cls-3" points="25.47 18.27 0 23.78 6.54 49.93 25.47 18.27"/></g><path class="cls-1" d="M27,7.25A11.23,11.23,0,0,1,32.15,5.3a12.79,12.79,0,0,1,5.62.6,12.26,12.26,0,0,1,4.79,3,10.62,10.62,0,0,1,2.75,4.8,18.63,18.63,0,0,0-3.63-3.82,15.3,15.3,0,0,0-4.46-2.4,15.88,15.88,0,0,0-5-.88A20.75,20.75,0,0,0,27,7.25Z"/><path class="cls-1" d="M32,1.49A8.14,8.14,0,0,1,35.76.07,9.27,9.27,0,0,1,39.87.5a9.09,9.09,0,0,1,3.5,2.2,7.62,7.62,0,0,1,2,3.51,13.52,13.52,0,0,0-2.64-2.79,11.58,11.58,0,0,0-3.26-1.76A11.88,11.88,0,0,0,35.81,1,15.42,15.42,0,0,0,32,1.49Z"/></g></g></svg>