<svg xmlns="http://www.w3.org/2000/svg" xmlns:xlink="http://www.w3.org/1999/xlink" viewBox="0 0 170.605 124.291"><defs><style>.cls-1{fill:none;}.cls-2{clip-path:url(#clip-path);}.cls-3{fill:#7fc3de;}</style><clipPath id="clip-path" transform="translate(-40.016 -13.927)"><rect class="cls-1" width="250" height="150"/></clipPath></defs><title>Esp_250x150px</title><g id="Layer_2" data-name="Layer 2"><g id="textos_y_elementos" data-name="textos y elementos"><g class="cls-2"><path class="cls-3" d="M125.319,13.927c-47.112,0-85.3,17.7-85.3,39.537,0,12.454,12.428,23.561,31.844,30.808L52.852,138.218,90.663,89.6A172.585,172.585,0,0,0,125.319,93c47.111,0,85.3-17.7,85.3-39.537S172.43,13.927,125.319,13.927Z" transform="translate(-40.016 -13.927)"/><path d="M90.814,64.027H82v-14.7h8.48v2.7H85.308v3.271h4.809v2.687H85.308v3.363h5.506Z" transform="translate(-40.016 -13.927)"/><path d="M92.5,63.463V60.182a6.306,6.306,0,0,0,4.05,1.5,4.636,4.636,0,0,0,1.092-.114,2.571,2.571,0,0,0,.78-.312,1.37,1.37,0,0,0,.466-.472,1.173,1.173,0,0,0,.154-.59,1.269,1.269,0,0,0-.246-.768,2.613,2.613,0,0,0-.672-.626,6.93,6.93,0,0,0-1.01-.554q-.585-.267-1.262-.543a6.428,6.428,0,0,1-2.568-1.754,3.832,3.832,0,0,1-.846-2.5,4,4,0,0,1,.461-1.973,3.932,3.932,0,0,1,1.257-1.359,5.652,5.652,0,0,1,1.841-.785,9.478,9.478,0,0,1,2.215-.251,13.241,13.241,0,0,1,2.035.139,8.012,8.012,0,0,1,1.635.425v3.066a4.923,4.923,0,0,0-.805-.451,6.467,6.467,0,0,0-.9-.323,7,7,0,0,0-.918-.19,6.519,6.519,0,0,0-.868-.061,4.57,4.57,0,0,0-1.025.107,2.639,2.639,0,0,0-.779.3,1.509,1.509,0,0,0-.493.467,1.1,1.1,0,0,0-.173.609,1.159,1.159,0,0,0,.195.662,2.229,2.229,0,0,0,.553.554,5.931,5.931,0,0,0,.872.513c.342.167.727.339,1.159.517a13.137,13.137,0,0,1,1.584.784,5.693,5.693,0,0,1,1.2.939,3.674,3.674,0,0,1,.769,1.194,4.242,4.242,0,0,1,.266,1.564,4.178,4.178,0,0,1-.467,2.066,3.769,3.769,0,0,1-1.265,1.354,5.516,5.516,0,0,1-1.862.744,10.859,10.859,0,0,1-2.24.224,12.45,12.45,0,0,1-2.3-.2A6.909,6.909,0,0,1,92.5,63.463Z" transform="translate(-40.016 -13.927)"/><path d="M108.257,58.962v5.065h-3.313v-14.7h5.189q5.557,0,5.557,4.687a4.492,4.492,0,0,1-1.595,3.583,6.312,6.312,0,0,1-4.26,1.369Zm0-7.1v4.583h1.3q2.646,0,2.646-2.316,0-2.267-2.646-2.267Z" transform="translate(-40.016 -13.927)"/><path d="M129.533,64.027h-3.609l-1.045-3.271h-5.231l-1.035,3.271h-3.589l5.353-14.7H124.3Zm-5.414-5.814-1.578-4.941a6.353,6.353,0,0,1-.246-1.324h-.082a5.648,5.648,0,0,1-.257,1.283l-1.6,4.982Z" transform="translate(-40.016 -13.927)"/><path d="M144.6,64.027h-3.342l-6.061-9.238a13.421,13.421,0,0,1-.738-1.221h-.041q.083.78.082,2.379v8.08h-3.127v-14.7h3.568l5.834,8.952q.4.606.739,1.2h.041a15.675,15.675,0,0,1-.082-2.02V49.323H144.6Zm-2.543-19.256a3.723,3.723,0,0,1-.569,2.219,1.813,1.813,0,0,1-1.553.785,3.66,3.66,0,0,1-1.722-.441,3.474,3.474,0,0,0-1.262-.482q-.82,0-.82,1.107h-1.446a3.769,3.769,0,0,1,.564-2.215,1.832,1.832,0,0,1,1.579-.789,3.52,3.52,0,0,1,1.723.5,2.871,2.871,0,0,0,1.23.451q.8,0,.8-1.137Z" transform="translate(-40.016 -13.927)"/><path d="M154.173,64.283a6.843,6.843,0,0,1-5.148-2.055,7.383,7.383,0,0,1-1.989-5.358,7.906,7.906,0,0,1,2.02-5.639,6.99,6.99,0,0,1,5.352-2.154,6.674,6.674,0,0,1,5.092,2.062,7.6,7.6,0,0,1,1.943,5.433,7.783,7.783,0,0,1-2.015,5.589A6.915,6.915,0,0,1,154.173,64.283Zm.143-12.355a3.331,3.331,0,0,0-2.768,1.307,5.447,5.447,0,0,0-1.026,3.46,5.347,5.347,0,0,0,1.026,3.456,3.284,3.284,0,0,0,2.686,1.272,3.319,3.319,0,0,0,2.717-1.235,5.294,5.294,0,0,0,1.006-3.43,5.733,5.733,0,0,0-.975-3.559A3.177,3.177,0,0,0,154.316,51.928Z" transform="translate(-40.016 -13.927)"/><path d="M172.641,64.027h-8.756v-14.7H167.2V61.341h5.444Z" transform="translate(-40.016 -13.927)"/></g></g></g></svg>