<svg xmlns="http://www.w3.org/2000/svg" viewBox="0 0 76 76"><defs><style>.cls-1{isolation:isolate;}.cls-2{fill:#e95653;}.cls-3{fill:none;}.cls-4{opacity:0.15;mix-blend-mode:multiply;}.cls-5{fill:#fff;}</style></defs><title>Hinzufuegen-von-anhaengen</title><g class="cls-1"><g id="Layer_1" data-name="Layer 1"><circle class="cls-2" cx="38" cy="38" r="37.5"/><path class="cls-3" d="M20.962,63.479c-1.05-.831-2.107-1.656-3.158-2.489a6.947,6.947,0,0,1-2.361-2.514,20.63,20.63,0,0,1-2.107-8.2,4.654,4.654,0,0,1,.863-3.027c1.359-1.841,2.73-3.674,4.1-5.51q7.229-9.726,14.456-19.451l5.343-7.19c.349-.47.677-.974,1.056-1.421a1.6,1.6,0,0,1,.228-.267c.7-.627,1.123-.285,1.689.156.154.12.354.158.534.29s.179.353.319.458c.106.08.341.069.471.164.041.031.273.44.318.458.364.149.3-.015.512-.238a48.351,48.351,0,0,0,3.169-4.264c.858-1.116,1.807-.889,2.959-.233a42.235,42.235,0,0,1,3.845,2.535c5.551,4.02,10.833,8.452,16.216,12.7l5.1,4.019A37.5,37.5,0,1,0,35.985,75.445c-2.875-2.281-5.712-4.618-8.6-6.873C25.228,66.893,23.1,65.176,20.962,63.479Z"/><path class="cls-4" d="M75.5,38a37.575,37.575,0,0,0-.991-8.55l-5.1-4.019c-5.383-4.243-10.665-8.675-16.216-12.695A42.235,42.235,0,0,0,49.348,10.2c-1.152-.656-2.1-.883-2.959.233A48.351,48.351,0,0,1,43.22,14.7c-.215.223-.148.387-.512.238-.045-.018-.277-.427-.318-.458-.13-.1-.365-.084-.471-.164-.14-.105-.148-.333-.319-.458s-.38-.17-.534-.29c-.566-.441-.987-.783-1.689-.156a1.6,1.6,0,0,0-.228.267c-.379.447-.707.951-1.056,1.421l-5.343,7.19q-7.228,9.725-14.456,19.451c-1.365,1.836-2.736,3.669-4.1,5.51a4.654,4.654,0,0,0-.863,3.027,20.63,20.63,0,0,0,2.107,8.2A6.947,6.947,0,0,0,17.8,60.99c1.051.833,2.108,1.658,3.158,2.489,2.142,1.7,4.266,3.414,6.419,5.093,2.892,2.255,5.729,4.592,8.6,6.873.667.035,1.339.055,2.015.055A37.5,37.5,0,0,0,75.5,38Z"/><path class="cls-5" d="M57.854,16.169c-.936-.824-2.224-1.854-3.533-2.825l-1.074-.786c-1.17-.833-2.142-1.489-2.887-1.933a4.8,4.8,0,0,0-2.673-1.079,1.368,1.368,0,0,0-.9.6L24.6,40c-1.47,1.983-.526,6.907,1.152,8.162a6.238,6.238,0,0,0,4.2.548,5.93,5.93,0,0,0,3.814-1.8l17.987-24.19a1.2,1.2,0,0,0,.05-1.52L51.545,21a1,1,0,0,0-.829-.077,1.446,1.446,0,0,0-.69.524L32.092,45.585a4.729,4.729,0,0,1-2.161.735,4.531,4.531,0,0,1-2.661-.2c-.855-.645-1.334-3.964-.984-4.76L47.979,12.169l.287.158a49.222,49.222,0,0,1,4.445,3.009l.652.49A39.553,39.553,0,0,1,56.7,18.563l.235.229-.2.265L27.958,57.806a3.672,3.672,0,0,1-1.833.626c-2.268.338-6.854.283-7.735-.369-1.136-.835-2.947-7.9-2.555-9.131l.056-.11L41.153,14.854a1.182,1.182,0,0,0-.116-1.672.974.974,0,0,0-.735-.174,1.369,1.369,0,0,0-.885.561L14.166,47.546c-.831,1.128-.807,3.405.062,6.761.292,1.118,1.332,4.835,2.646,5.805,1.042.775,5.13,1.289,8.644.766,2.045-.3,3.5-.915,4.1-1.721L50.533,31l.007.011,8.652-11.645C60.032,18.248,59.209,17.374,57.854,16.169Z"/></g></g></svg>