<?xml version="1.0" encoding="utf-8"?>
<!-- Generator: Adobe Illustrator 24.1.1, SVG Export Plug-In . SVG Version: 6.00 Build 0)  -->
<svg version="1.1" id="Ebene_1" xmlns="http://www.w3.org/2000/svg" xmlns:xlink="http://www.w3.org/1999/xlink" x="0px" y="0px"
	 viewBox="0 0 170.6 124.3" style="enable-background:new 0 0 170.6 124.3;" xml:space="preserve">
<style type="text/css">
	.st0{fill:#E5B3D0;}
</style>
<g>
	<g>
		<path class="st0" d="M85.5,1.6c45.3,0,81.9,17.5,81.9,39.2c0,12.3-11.9,23.3-30.6,30.5l-33.9,53.4l15.9-48.2
			C108.6,78.8,97.4,80,85.5,80C40.2,80,3.6,62.4,3.6,40.8C3.6,19.2,40.2,1.6,85.5,1.6z"/>
	</g>
	<g>
		<path d="M42.1,29.1h18.9v24.6h-2v-1.8H44.1v1.9h-2V29.1z M59,31.1H44.1v8.4H59V31.1z M44.1,50H59v-8.6H44.1V50z"/>
		<path d="M92.3,35.5H81.7c2.5,5.2,6.9,10,11.6,12.3c-0.5,0.4-1.1,1.2-1.5,1.7c-4.6-2.5-8.7-7.2-11.4-12.4v9.6h5.8v2h-5.8v5.7h-2
			v-5.7h-5.9v-2h5.9v-9.5C75.6,42.5,71.4,47,67,49.6c-0.4-0.5-1-1.2-1.4-1.6c4.6-2.4,9-7.3,11.5-12.5H66.6v-2h11.8v-6.3l2.6,0.1
			c0,0.2-0.2,0.3-0.6,0.4v5.8h11.9V35.5z"/>
		<path d="M95,33.9v-1.7h10.7v1.7H95z M104.8,44.3v8.6h-6.7v1.4h-1.7v-10H104.8z M104.7,36.3v1.6h-8.3v-1.6H104.7z M96.4,41.9v-1.6
			h8.3v1.6H96.4z M104.6,28.3v1.6h-8.1v-1.6H104.6z M103,46h-5v5.3h5V46z M119.5,39.5h2.9v1.8h-16.6v-1.8h4c0.3-1.3,0.6-2.8,0.8-4.4
			h-3.2v-1.8h3.5c0.2-1.1,0.3-2.2,0.5-3.3h-4.6v-1.8h14.5v1.8h-8l-0.5,3.3h6.7V39.5z M108.1,54.4V43.7h12.3v10.5h-1.9V53H110v1.3
			H108.1z M118.5,45.5H110v5.7h8.5V45.5z M117.6,35.1h-5.1c-0.3,1.6-0.6,3.1-0.8,4.4h5.9V35.1z"/>
	</g>
</g>
</svg>
