<svg xmlns="http://www.w3.org/2000/svg" xmlns:xlink="http://www.w3.org/1999/xlink" viewBox="0 0 234 185"><defs><style>.cls-1,.cls-3{fill:#7cb892;}.cls-1,.cls-6{stroke:#a7cfb6;stroke-miterlimit:10;stroke-width:0.87px;}.cls-2,.cls-6{fill:none;}.cls-4{clip-path:url(#clip-path);}.cls-5,.cls-7{fill:#fff;}.cls-5{opacity:0.42;}.cls-8{fill:#dee3e8;}.cls-9{fill:#e95653;}</style><clipPath id="clip-path"><path class="cls-1" d="M90.92,119.77l-21.47-9.26a10.7,10.7,0,0,0-7.72-2.1l-42.82,5a10.89,10.89,0,0,0-9.54,12l2.18,18.72a10.89,10.89,0,0,0,12,9.53l42.82-5a10.82,10.82,0,0,0,7-3.79l18.78-14A6.5,6.5,0,0,0,90.92,119.77Zm-9.14,9.58a4.57,4.57,0,1,1,5.78-2.88A4.57,4.57,0,0,1,81.78,129.35Z"/></clipPath></defs><title>kostenlose-update v2</title><g id="Layer_2" data-name="Layer 2"><g id="textos_y_elementos" data-name="textos y elementos"><rect class="cls-2" width="234" height="185"/><path class="cls-3" d="M90.92,119.77l-21.47-9.26a10.7,10.7,0,0,0-7.72-2.1l-42.82,5a10.89,10.89,0,0,0-9.54,12l2.18,18.72a10.89,10.89,0,0,0,12,9.53l42.82-5a10.82,10.82,0,0,0,7-3.79l18.78-14A6.5,6.5,0,0,0,90.92,119.77Zm-9.14,9.58a4.57,4.57,0,1,1,5.78-2.88A4.57,4.57,0,0,1,81.78,129.35Z"/><g class="cls-4"><polygon class="cls-5" points="12.24 146.83 8.72 120.17 16.51 112.88 61.03 108.1 12.24 146.83"/></g><path class="cls-6" d="M90.92,119.77l-21.47-9.26a10.7,10.7,0,0,0-7.72-2.1l-42.82,5a10.89,10.89,0,0,0-9.54,12l2.18,18.72a10.89,10.89,0,0,0,12,9.53l42.82-5a10.82,10.82,0,0,0,7-3.79l18.78-14A6.5,6.5,0,0,0,90.92,119.77Zm-9.14,9.58a4.57,4.57,0,1,1,5.78-2.88A4.57,4.57,0,0,1,81.78,129.35Z"/><path class="cls-7" d="M32.91,128.3l-4.82.42.29,3.35,4.43-.38.22,2.5-4.44.38.47,5.31-3.08.27-1.19-13.67,7.9-.69Z"/><path class="cls-7" d="M47.59,138.27l-3.53.31-2.43-3.34-.52-.67a3.9,3.9,0,0,0-.49-.5,1.66,1.66,0,0,0-.5-.3,1.23,1.23,0,0,0-.54-.08l-.83.07.46,5.24-3.08.26L34.94,125.6l4.88-.43c3.32-.28,5.08.81,5.3,3.29A3.93,3.93,0,0,1,45,129.8a3.58,3.58,0,0,1-.52,1.14,4,4,0,0,1-.9.93,5.38,5.38,0,0,1-1.21.66v0a1.93,1.93,0,0,1,.62.25,4.8,4.8,0,0,1,.6.46,6.06,6.06,0,0,1,.56.57c.18.2.35.4.5.6Zm-9.37-10.63.33,3.8,1.33-.12a2.2,2.2,0,0,0,1.55-.71,1.92,1.92,0,0,0,.48-1.49c-.1-1.19-.87-1.73-2.3-1.6Z"/><path class="cls-7" d="M57.07,137.45l-8.2.71-1.19-13.67,7.89-.68.21,2.5-4.8.42.26,3,4.47-.39.22,2.5-4.47.39.27,3.12,5.12-.44Z"/><path class="cls-7" d="M67.45,136.54l-8.19.72-1.19-13.67L66,122.9l.22,2.51-4.8.42.26,3,4.47-.39.22,2.5-4.47.39.27,3.12,5.12-.44Z"/><path class="cls-8" d="M147.24,156.3A63.88,63.88,0,0,1,86,74.72l8.48,2.46a55,55,0,0,0,83.19,61.06l4.89,7.36A63.73,63.73,0,0,1,147.24,156.3Z"/><polygon class="cls-8" points="69.77 69.93 108.94 87.5 98.13 59.13 69.77 69.93"/><path class="cls-9" d="M208.5,110.23,200,107.77a55,55,0,0,0-85.68-59.31L109,41.39a63.79,63.79,0,0,1,99.46,68.84Z"/><polygon class="cls-9" points="224.7 115.02 185.53 97.45 196.33 125.82 224.7 115.02"/><path class="cls-9" d="M92.91,115.89a18.94,18.94,0,0,1,12.31,2c7.88,4.09,11.77,11.9,9,18.3a7.12,7.12,0,0,1,.74.35c2.93-6.79-1.12-15.09-9.4-19.39a19.78,19.78,0,0,0-12.85-2.06,12.74,12.74,0,0,0-9.18,6.47,11.6,11.6,0,0,0-1.19,3.71l.82.11a10.58,10.58,0,0,1,1.1-3.44A11.94,11.94,0,0,1,92.91,115.89Z"/><path class="cls-9" d="M107.7,143l-.21-.21-.06-.09a10,10,0,0,1-2.1.63,19,19,0,0,1-12.31-2,20.24,20.24,0,0,1-6.61-5.44l-.65.51a21,21,0,0,0,6.88,5.66,20.58,20.58,0,0,0,9.46,2.39,17.39,17.39,0,0,0,3.39-.32,11.49,11.49,0,0,0,2.75-.88A.86.86,0,0,1,107.7,143Z"/></g></g></svg>