<svg xmlns="http://www.w3.org/2000/svg" viewBox="0 0 76 76"><defs><style>.cls-1{isolation:isolate;}.cls-2{fill:#e95653;}.cls-3{fill:none;}.cls-4{opacity:0.15;mix-blend-mode:multiply;}.cls-5{fill:#bfd4e2;}.cls-6{fill:#fce8e8;}.cls-7{fill:#f08e8c;}.cls-8{fill:#f8f9fa;}</style></defs><title>moderne-benutzoberflaeche</title><g class="cls-1"><g id="Layer_1" data-name="Layer 1"><ellipse class="cls-2" cx="38" cy="37.981" rx="37.5" ry="37.481"/><path class="cls-3" d="M53.267,16.234c-.125,0,.018.092,0,0Z"/><path class="cls-3" d="M52.488,15.607c-.124,0,.019.091,0,0Z"/><path class="cls-3" d="M58.715,20.624c-.125,0,.018.092,0,0Z"/><path class="cls-3" d="M50.937,14.39c0-.1-.073-.1-.214-.027A.157.157,0,0,0,50.937,14.39Z"/><path class="cls-3" d="M54.045,16.861c-.125,0,.018.092,0,0Z"/><path class="cls-3" d="M55.6,18.116c-.124,0,.019.091,0,0Z"/><path class="cls-3" d="M57.936,20c-.124,0,.019.091,0,0Z"/><path class="cls-3" d="M54.823,17.488c-.124,0,.019.092,0,0Z"/><path class="cls-3" d="M57.158,19.37c-.124,0,.018.091,0,0Z"/><path class="cls-3" d="M56.38,18.743c-.125,0,.018.091,0,0Z"/><path class="cls-3" d="M50.7,13.735a3.725,3.725,0,0,0-.754,0C50.048,13.826,50.6,13.738,50.7,13.735Z"/><path class="cls-3" d="M51.71,14.98c-.125,0,.018.091,0,0Z"/><path class="cls-3" d="M45.251,9.345c-.27-.008-.507-.007-.773,0C44.609,9.438,45.12,9.349,45.251,9.345Z"/><path class="cls-3" d="M43.694,8.091a11.594,11.594,0,0,0-1.7.062A5.687,5.687,0,0,0,43.694,8.091Z"/><path class="cls-3" d="M44.472,8.718c-.354-.011-.683-.005-1.037.015C43.682,8.858,44.193,8.727,44.472,8.718Z"/><path class="cls-3" d="M39.8,4.955l-.367-.019a11.83,11.83,0,0,0-11.384,14.5A12.466,12.466,0,0,1,39.8,4.955Z"/><path class="cls-3" d="M42.916,7.463a11.707,11.707,0,0,0-3.147.328C40.82,7.83,41.854,7.5,42.916,7.463Z"/><path class="cls-3" d="M48.364,11.854a3.654,3.654,0,0,0-.754,0C47.713,11.944,48.263,11.857,48.364,11.854Z"/><path class="cls-3" d="M46.029,9.972a3.725,3.725,0,0,0-.754,0C45.378,10.063,45.928,9.975,46.029,9.972Z"/><path class="cls-3" d="M49.142,12.481a3.725,3.725,0,0,0-.754,0C48.491,12.571,49.042,12.484,49.142,12.481Z"/><path class="cls-3" d="M49.92,13.108a3.716,3.716,0,0,0-.753,0C49.269,13.2,49.819,13.111,49.92,13.108Z"/><path class="cls-3" d="M47.586,11.226a3.8,3.8,0,0,0-.754,0C46.934,11.317,47.484,11.23,47.586,11.226Z"/><path class="cls-3" d="M46.807,10.6a3.725,3.725,0,0,0-.754,0C46.156,10.69,46.706,10.6,46.807,10.6Z"/><path class="cls-3" d="M64.163,25.014c-.125,0,.018.092,0,0Z"/><path class="cls-3" d="M59.493,21.251c-.125,0,.018.092,0,0Z"/><path class="cls-3" d="M71.168,30.659c-.125,0,.018.091,0,0Z"/><path class="cls-3" d="M68.833,28.777c-.125,0,.018.091,0,0Z"/><path class="cls-3" d="M69.611,29.4c-.125,0,.019.092,0,0Z"/><path class="cls-3" d="M71.946,31.286c-.125,0,.018.091,0,0Z"/><path class="cls-3" d="M74.281,33.167c-.125,0,.018.092,0,0Z"/><path class="cls-3" d="M75.059,33.794c-.124,0,.019.092,0,0Z"/><path class="cls-3" d="M34.514,75.03c-.129-.108-.048-.258-.119-.317-.254-.211-.631-.167-.783-.471a2.164,2.164,0,0,1,.015-.671c.177-4.715,1.245-9.525.492-14.236-.3-1.864-1.275-3.467-1.832-5.256-.639-2.056-1.063-4.49-2.791-5.887a2.889,2.889,0,0,1-1.159-1.624,4.181,4.181,0,0,0-.809-1.876,33.561,33.561,0,0,0-3.435-2.766,21.365,21.365,0,0,1-3.334-2.869,3.73,3.73,0,0,1-.846-1.8c-.106-.732.152-.777.778-.995a7.374,7.374,0,0,1,6.91,1.064c2.491,1.651,4.73,3.783,7.071,5.643a3.668,3.668,0,0,0,.372-2.08,7.379,7.379,0,0,1,.634-2.333,9.309,9.309,0,0,0,.949-2.93c.125-1.34.154-2.689.2-4.033.009-.242.163-.935.041-1.161-.1-.188-.479-.382-.644-.513-.609-.484-1.2-.983-1.811-1.47-2.1-1.7-4.3-3.24-5.681-5.635A12.336,12.336,0,0,1,47.091,6.987c8.163,6.481,16.19,13.137,24.35,19.623.989.786,1.974,1.58,2.962,2.368a37.5,37.5,0,1,0-39.324,46.36.192.192,0,0,0-.042-.055C34.9,75.164,34.661,75.153,34.514,75.03Z"/><path class="cls-3" d="M73.5,32.54c-.125,0,.018.091,0,0Z"/><path class="cls-3" d="M72.724,31.913c-.124,0,.019.091,0,0Z"/><path class="cls-3" d="M68.054,28.15c-.124,0,.019.091,0,0Z"/><path class="cls-3" d="M70.389,30.031c-.124,0,.019.092,0,0Z"/><path class="cls-3" d="M61.828,23.133c-.125,0,.018.091,0,0Z"/><path class="cls-3" d="M62.606,23.76c-.124,0,.019.091,0,0Z"/><path class="cls-3" d="M63.385,24.387c-.125,0,.018.091,0,0Z"/><path class="cls-3" d="M67.276,27.523c-.124,0,.018.091,0,0Z"/><path class="cls-3" d="M60.271,21.878c-.124,0,.019.092,0,0Z"/><path class="cls-3" d="M61.05,22.506c-.125,0,.018.091,0,0Z"/><path class="cls-3" d="M65.719,26.268c-.124,0,.019.092,0,0Z"/><path class="cls-3" d="M66.5,26.9c-.125,0,.018.091,0,0Z"/><path class="cls-3" d="M64.941,25.641c-.124,0,.019.092,0,0Z"/><path class="cls-3" d="M40.581,5.582a11.815,11.815,0,0,0-11.752,14.48A12.466,12.466,0,0,1,40.581,5.582Z"/><path class="cls-3" d="M30.386,21.317a12.324,12.324,0,0,1,.188-5.126,8.843,8.843,0,0,1,.367-2.142A11.712,11.712,0,0,0,30.386,21.317Z"/><path class="cls-3" d="M29.608,20.689A12.465,12.465,0,0,1,41.359,6.209,11.814,11.814,0,0,0,29.608,20.689Z"/><path class="cls-3" d="M35.056,25.079q-.052-.321-.087-.647C34.813,24.318,35.041,25.02,35.056,25.079Z"/><path class="cls-3" d="M34.278,24.452c-.035-.215-.064-.43-.087-.647C34.035,23.691,34.263,24.393,34.278,24.452Z"/><path class="cls-3" d="M35.834,25.707q-.051-.322-.086-.647C35.591,24.945,35.82,25.647,35.834,25.707Z"/><path class="cls-3" d="M42.137,6.836a11.694,11.694,0,0,0-7.015,2.058A21.5,21.5,0,0,1,38.534,7.5,12.333,12.333,0,0,1,42.137,6.836Z"/><path class="cls-3" d="M36.612,26.333q-.051-.322-.086-.646C36.37,25.572,36.6,26.273,36.612,26.333Z"/><path class="cls-3" d="M31.661,20.948a11.573,11.573,0,0,0,.282,1.623,12.222,12.222,0,0,1-.157-1.415Z"/><path class="cls-3" d="M30.836,18.891a11.621,11.621,0,0,0,.328,3.052,12.326,12.326,0,0,1-.17-2.53Q30.907,19.155,30.836,18.891Z"/><path class="cls-3" d="M32.721,23.2c-.052-.293-.088-.589-.118-.885C32.43,22.105,32.685,23.052,32.721,23.2Z"/><path class="cls-3" d="M33.5,23.825q-.053-.325-.087-.653C33.233,23.007,33.484,23.765,33.5,23.825Z"/><path class="cls-4" d="M75.5,37.981a37.527,37.527,0,0,0-1.1-9c-.988-.788-1.973-1.582-2.962-2.368-8.16-6.486-16.187-13.142-24.35-19.623A12.336,12.336,0,0,0,28.734,22.811c1.385,2.395,3.576,3.938,5.681,5.635.606.487,1.2.986,1.811,1.47.165.131.542.325.644.513.122.226-.032.919-.041,1.161-.048,1.344-.077,2.693-.2,4.033a9.309,9.309,0,0,1-.949,2.93,7.379,7.379,0,0,0-.634,2.333,3.668,3.668,0,0,1-.372,2.08c-2.341-1.86-4.58-3.992-7.071-5.643a7.374,7.374,0,0,0-6.91-1.064c-.626.218-.884.263-.778.995a3.73,3.73,0,0,0,.846,1.8,21.365,21.365,0,0,0,3.334,2.869,33.561,33.561,0,0,1,3.435,2.766,4.181,4.181,0,0,1,.809,1.876A2.889,2.889,0,0,0,29.5,48.192c1.728,1.4,2.152,3.831,2.791,5.887.557,1.789,1.534,3.392,1.832,5.256.753,4.711-.315,9.521-.492,14.236a2.164,2.164,0,0,0-.015.671c.152.3.529.26.783.471.071.059-.01.209.119.317.147.123.382.134.523.253a.192.192,0,0,1,.042.055c.965.075,1.937.124,2.921.124A37.49,37.49,0,0,0,75.5,37.981Zm-.441-4.187c.019.092-.124,0,0,0Zm-.778-.627c.018.092-.125,0,0,0ZM73.5,32.54c.018.091-.125,0,0,0Zm-.779-.627c.019.091-.124,0,0,0Zm-.778-.627c.018.091-.125,0,0,0Zm-.778-.627c.018.091-.125,0,0,0Zm-.779-.628c.019.092-.124,0,0,0Zm-.778-.627c.019.092-.125,0,0,0Zm-.778-.627c.018.091-.125,0,0,0Zm-.779-.627c.019.091-.124,0,0,0Zm-.778-.627c.018.091-.124,0,0,0ZM66.5,26.9c.018.091-.125,0,0,0Zm-.779-.628c.019.092-.124,0,0,0Zm-.778-.627c.019.092-.124,0,0,0Zm-.778-.627c.018.092-.125,0,0,0Zm-.778-.627c.018.091-.125,0,0,0Zm-.779-.627c.019.091-.124,0,0,0Zm-.778-.627c.018.091-.125,0,0,0Zm-.778-.627c.018.091-.125,0,0,0Zm-.779-.628c.019.092-.124,0,0,0Zm-.778-.627c.018.092-.125,0,0,0Zm-.778-.627c.018.092-.125,0,0,0ZM57.936,20c.019.091-.124,0,0,0Zm-.778-.627c.018.091-.124,0,0,0Zm-.778-.627c.018.091-.125,0,0,0Zm-.779-.627c.019.091-.124,0,0,0Zm-.778-.628c.019.092-.124,0,0,0Zm-.778-.627c.018.092-.125,0,0,0Zm-.778-.627c.018.092-.125,0,0,0Zm-.779-.627c.019.091-.124,0,0,0Zm-.778-.627c.018.091-.125,0,0,0Zm-.773-.59a.157.157,0,0,1-.214-.027C50.864,14.286,50.935,14.3,50.937,14.39Zm-.238-.655c-.1,0-.651.091-.754,0A3.725,3.725,0,0,1,50.7,13.735Zm-.779-.627c-.1,0-.651.091-.753,0A3.716,3.716,0,0,1,49.92,13.108Zm-.778-.627c-.1,0-.651.09-.754,0A3.725,3.725,0,0,1,49.142,12.481Zm-.778-.627c-.1,0-.651.09-.754,0A3.654,3.654,0,0,1,48.364,11.854Zm-.778-.628c-.1,0-.652.091-.754,0A3.8,3.8,0,0,1,47.586,11.226Zm-.779-.627c-.1,0-.651.091-.754,0A3.725,3.725,0,0,1,46.807,10.6Zm-.778-.627c-.1,0-.651.091-.754,0A3.725,3.725,0,0,1,46.029,9.972Zm-.778-.627c-.131,0-.642.093-.773,0C44.744,9.338,44.981,9.337,45.251,9.345Zm-1.816-.612c.354-.02.683-.026,1.037-.015C44.193,8.727,43.682,8.858,43.435,8.733ZM42,8.153a11.594,11.594,0,0,1,1.7-.062A5.687,5.687,0,0,1,42,8.153Zm-2.228-.362a11.707,11.707,0,0,1,3.147-.328C41.854,7.5,40.82,7.83,39.769,7.791Zm-.334-2.855.367.019a12.466,12.466,0,0,0-11.751,14.48A11.83,11.83,0,0,1,39.435,4.936Zm1.146.646a12.466,12.466,0,0,0-11.752,14.48A11.815,11.815,0,0,1,40.581,5.582ZM30.574,16.191a12.324,12.324,0,0,0-.188,5.126,11.712,11.712,0,0,1,.555-7.268A8.843,8.843,0,0,0,30.574,16.191Zm.262,2.7q.071.264.158.522a12.326,12.326,0,0,0,.17,2.53A11.621,11.621,0,0,1,30.836,18.891Zm.825,2.057.125.208a12.222,12.222,0,0,0,.157,1.415A11.573,11.573,0,0,1,31.661,20.948Zm.942,1.365c.03.3.066.592.118.885C32.685,23.052,32.43,22.105,32.6,22.313Zm.809.859q.035.327.087.653C33.484,23.765,33.233,23.007,33.412,23.172Zm.779.633c.023.217.052.432.087.647C34.263,24.393,34.035,23.691,34.191,23.805Zm-4.583-3.116A11.814,11.814,0,0,1,41.359,6.209,12.465,12.465,0,0,0,29.608,20.689Zm5.361,3.743q.034.326.087.647C35.041,25.02,34.813,24.318,34.969,24.432Zm.779.628q.035.324.086.647C35.82,25.647,35.591,24.945,35.748,25.06Zm.778.627q.034.324.086.646C36.6,26.273,36.37,25.572,36.526,25.687Zm-1.4-16.793a11.694,11.694,0,0,1,7.015-2.058,12.333,12.333,0,0,0-3.6.665A21.5,21.5,0,0,0,35.122,8.894Z"/><path class="cls-5" d="M33.367,73.862c0-4.264,1.482-14.336-.735-17.979-.841-1.383-1.858-6.905-3.216-7.786a3.8,3.8,0,0,1-1.089-.876,3.555,3.555,0,0,1-.472-1.332c-.9-4.026-8.306-5.1-8.034-9.212,2.028-.749,3.813-1.507,7.156.567a21.189,21.189,0,0,1,5.253,5.345,1.582,1.582,0,0,0,.913.708,1.144,1.144,0,0,0,1.137-.89,6.733,6.733,0,0,0,.124-1.564,11.138,11.138,0,0,1,1.314-3.779c.663-1.879.084-14.337,2.024-20.21a4.068,4.068,0,0,1,.935-1.731,1.546,1.546,0,0,1,1.818-.309c1.7,2.2.316,7.549.932,11.63.517,3.424.95,5.519,1.255,8.969a3.768,3.768,0,0,1,3.275-1.892,2.458,2.458,0,0,1,2.3,2.658c1.288-.222,3-.218,3.451,1.008.129.351.115.742.242,1.093.464,1.293,2.377,1.324,3.244,2.389.8.985.43,2.437.02,3.639l-4.032,11.83c-1.242,3.644-2.457,7.78-.683,11.2l-1.905.279S32.289,78.409,33.367,73.862Z"/><path class="cls-6" d="M39.435,29.518A12.348,12.348,0,1,1,51.787,17.17,12.364,12.364,0,0,1,39.435,29.518Zm0-24.067A11.719,11.719,0,1,0,51.162,17.17,11.736,11.736,0,0,0,39.435,5.451Z"/><ellipse class="cls-7" cx="39.435" cy="17.17" rx="8.885" ry="8.88"/><path class="cls-8" d="M33.611,74.848c.005-4.432,1.9-14.024-.409-17.811-.875-1.437-1.931-7.179-3.343-8.094a3.968,3.968,0,0,1-1.132-.911,3.7,3.7,0,0,1-.491-1.385c-.938-4.185-8.635-5.3-8.352-9.577,2.108-.779,3.964-1.567,7.439.59a22.023,22.023,0,0,1,5.461,5.556,1.647,1.647,0,0,0,.95.737,1.19,1.19,0,0,0,1.181-.926,6.934,6.934,0,0,0,.129-1.626,11.608,11.608,0,0,1,1.366-3.928c.69-1.954.088-14.9,2.105-21.011a4.227,4.227,0,0,1,.971-1.8,1.607,1.607,0,0,1,1.891-.321c1.765,2.285.328,7.847.969,12.089.537,3.56.987,5.739,1.3,9.325a3.912,3.912,0,0,1,3.405-1.966,2.554,2.554,0,0,1,2.4,2.762c1.339-.23,3.118-.226,3.588,1.048.134.365.119.771.251,1.137.483,1.343,2.472,1.376,3.372,2.483.833,1.025.448,2.534.022,3.783L52.491,57.3C51.2,61.09,49.478,69.491,51.322,73.043c-.661.1-1.988.773-2.648.87C48.674,73.913,39.2,76.883,33.611,74.848Z"/></g></g></svg>