<svg xmlns="http://www.w3.org/2000/svg" xmlns:xlink="http://www.w3.org/1999/xlink" viewBox="0 0 75 75"><defs><style>.cls-1{fill:#e95653;}.cls-2{clip-path:url(#clip-path);}.cls-3{fill:#b0565f;}.cls-4{fill:#f7c7c5;}.cls-5{fill:#f08e8c;}.cls-6{fill:#fff;}.cls-7{fill:#dee3e8;}</style><clipPath id="clip-path"><circle class="cls-1" cx="37.5" cy="37.5" r="37.5"/></clipPath></defs><title>pdf erstellung</title><g id="Layer_2" data-name="Layer 2"><g id="textos_y_elementos" data-name="textos y elementos"><circle class="cls-1" cx="37.5" cy="37.5" r="37.5"/><g class="cls-2"><path class="cls-3" d="M38.39,74.82,20.75,66.05,52.4,38.23,71.73,53.38s-1.88,6.73-14.4,15.81C49.09,75.16,38.39,74.82,38.39,74.82Z"/></g><path class="cls-4" d="M49.75,18.64a10.82,10.82,0,0,0-1-1l-3.31.47-1.45-3a10.11,10.11,0,0,0-2.85-.28l-2,2.67L36,16.36a11.35,11.35,0,0,0-1.17.83,10.9,10.9,0,0,0-1,1l.47,3.31-3,1.44A10.6,10.6,0,0,0,31,25.79l2.67,2-1.1,3.15a11.35,11.35,0,0,0,.83,1.17,10.84,10.84,0,0,0,1,1l3.31-.47,1.44,3A10.61,10.61,0,0,0,42,36l2-2.67,3.15,1.1a11.46,11.46,0,0,0,1.17-.84,10.75,10.75,0,0,0,1-1l-.47-3.31,3-1.44A10.61,10.61,0,0,0,52.16,25l-2.67-2,1.1-3.15A11.46,11.46,0,0,0,49.75,18.64ZM46.16,31.19a7.25,7.25,0,1,1,1-10.21A7.24,7.24,0,0,1,46.16,31.19Z"/><path class="cls-5" d="M53.65,6.78A7.24,7.24,0,0,0,53,6.3l-1.76.61-1.1-1.5a5.65,5.65,0,0,0-1.59.14l-.82,1.67-1.84-.28a6.16,6.16,0,0,0-.56.58,6,6,0,0,0-.47.65l.6,1.76L44,11a5.68,5.68,0,0,0,.14,1.59l1.67.82-.28,1.84a6.06,6.06,0,0,0,.58.55,5.2,5.2,0,0,0,.65.48l1.76-.61,1.1,1.5a5.68,5.68,0,0,0,1.59-.14L52,15.39l1.84.28a6.06,6.06,0,0,0,.55-.58,4.87,4.87,0,0,0,.47-.65l-.6-1.76,1.5-1.1A6.08,6.08,0,0,0,55.62,10L54,9.17l.28-1.84A6.06,6.06,0,0,0,53.65,6.78ZM53,14a4,4,0,1,1-.51-5.7A4.05,4.05,0,0,1,53,14Z"/><rect class="cls-6" x="18.94" y="24.32" width="36.48" height="42.53" rx="3"/><path class="cls-7" d="M24.9,53V51.33l1.16,0c7.42,0,14.83,0,22.25,0,1.19,0,1.58.16,1.45.72s.37,1-1.38,1c-7.51,0-15,0-22.52,0Z"/><path class="cls-7" d="M24.94,38.15H48.15c1.59,0,1.5,0,1.62.89.09.67-.48.75-1.67.75-7.34,0-14.67,0-22,0l-1.15,0Z"/><path class="cls-7" d="M49.69,42.55v1.58H25V42.55Z"/><path class="cls-7" d="M24.91,35.32V33.75H49.65v1.57Z"/><path class="cls-7" d="M24.89,48.55V47H49.63v1.6Z"/><path class="cls-7" d="M49.67,55.76v1.58c-.45,0-.83,0-1.21,0q-11.22,0-22.42.06c-.9,0-1.35-.11-1.23-.57a1.2,1.2,0,0,0,0-.19c0-1,0-1,2.09-1l21.09,0Z"/></g></g></svg>