<svg xmlns="http://www.w3.org/2000/svg" xmlns:xlink="http://www.w3.org/1999/xlink" viewBox="0 0 129.396 132.702"><defs><style>.cls-1{fill:none;}.cls-2{clip-path:url(#clip-path);}.cls-3{fill:#a7cfb6;}</style><clipPath id="clip-path" transform="translate(-51.515 -6.585)"><rect class="cls-1" width="250" height="150"/></clipPath></defs><title>RUS_250x150px</title><g id="Layer_2" data-name="Layer 2"><g id="textos_y_elementos" data-name="textos y elementos"><g class="cls-2"><path class="cls-3" d="M159.746,104.253c13-10.268,21.165-25.071,21.165-41.528,0-31.005-28.966-56.14-64.7-56.14s-64.7,25.135-64.7,56.14,28.966,56.138,64.7,56.138a73.9,73.9,0,0,0,18.178-2.262l31.659,22.686Z" transform="translate(-51.515 -6.585)"/><path d="M70.477,69.149v5.066H67.164v-14.7h5.189q5.558,0,5.557,4.686a4.493,4.493,0,0,1-1.594,3.583,6.317,6.317,0,0,1-4.261,1.369Zm0-7.1v4.584h1.3q2.645,0,2.645-2.317,0-2.266-2.645-2.267Z" transform="translate(-51.515 -6.585)"/><path d="M91.2,59.511,86.6,69.59a12.052,12.052,0,0,1-2.442,3.855,4.2,4.2,0,0,1-2.912,1.025,4.61,4.61,0,0,1-1.906-.337V71.107a3.16,3.16,0,0,0,1.742.544q1.24,0,2.185-2.01l-4.829-10.13h3.773l2.44,5.885a6.216,6.216,0,0,1,.339,1.2h.02a7.033,7.033,0,0,1,.349-1.158l2.358-5.926Z" transform="translate(-51.515 -6.585)"/><path d="M103.031,73.691a9.672,9.672,0,0,1-4.2.779,7.083,7.083,0,0,1-5.321-1.988,7.269,7.269,0,0,1-1.938-5.3,7.77,7.77,0,0,1,2.178-5.721,7.624,7.624,0,0,1,5.656-2.2,10.577,10.577,0,0,1,3.629.544V63a6.429,6.429,0,0,0-3.363-.882,4.464,4.464,0,0,0-3.343,1.3,4.834,4.834,0,0,0-1.271,3.527,4.733,4.733,0,0,0,1.2,3.4,4.237,4.237,0,0,0,3.23,1.266,6.885,6.885,0,0,0,3.547-.943Z" transform="translate(-51.515 -6.585)"/><path d="M115.7,73.691a9.68,9.68,0,0,1-4.2.779,7.084,7.084,0,0,1-5.321-1.988,7.269,7.269,0,0,1-1.938-5.3,7.77,7.77,0,0,1,2.178-5.721,7.624,7.624,0,0,1,5.656-2.2,10.588,10.588,0,0,1,3.63.544V63a6.435,6.435,0,0,0-3.364-.882,4.464,4.464,0,0,0-3.343,1.3,4.834,4.834,0,0,0-1.271,3.527,4.733,4.733,0,0,0,1.2,3.4,4.237,4.237,0,0,0,3.23,1.266,6.891,6.891,0,0,0,3.548-.943Z" transform="translate(-51.515 -6.585)"/><path d="M130.482,74.215H126.3l-4.286-6.389a6.143,6.143,0,0,1-.39-.81h-.051v7.2h-3.312v-14.7h3.312v6.952h.051q.123-.288.41-.821l4.061-6.131h3.947l-5.127,7.013Z" transform="translate(-51.515 -6.585)"/><path d="M145.113,74.215h-3.127v-8.08a23.241,23.241,0,0,1,.1-2.379h-.062q-.214.42-.739,1.22l-6.07,9.239h-3.332v-14.7h3.127v8.131a15.675,15.675,0,0,1-.082,2.02h.041c.034-.082.287-.483.76-1.2l5.834-8.952h3.547Z" transform="translate(-51.515 -6.585)"/><path d="M161.715,74.215h-3.128v-8.08a22.927,22.927,0,0,1,.1-2.379h-.063q-.213.42-.738,1.22l-6.07,9.239h-3.332v-14.7h3.126v8.131a15.675,15.675,0,0,1-.082,2.02h.041c.035-.082.288-.483.76-1.2l5.834-8.952h3.548ZM159.634,54.6a3.7,3.7,0,0,1-1.4,2.594,5.277,5.277,0,0,1-6.081,0,3.4,3.4,0,0,1-1.313-2.594h2.36a1.788,1.788,0,0,0,.645,1.3,2.1,2.1,0,0,0,1.405.508,2.024,2.024,0,0,0,1.384-.514,1.843,1.843,0,0,0,.646-1.291Z" transform="translate(-51.515 -6.585)"/></g></g></g></svg>