<svg xmlns="http://www.w3.org/2000/svg" viewBox="0 0 76 76"><defs><style>.cls-1{isolation:isolate;}.cls-2{fill:#e95653;}.cls-3{fill:none;}.cls-4{opacity:0.15;mix-blend-mode:multiply;}.cls-5{fill:#f7f7f7;}.cls-6{fill:#fce8e8;}.cls-7{fill:#b0565f;}.cls-8{fill:#fff;}</style></defs><title>sicherheit</title><g class="cls-1"><g id="Layer_1" data-name="Layer 1"><circle class="cls-2" cx="38" cy="38" r="37.5"/><path class="cls-3" d="M33.308,68.923c-1.493-1.184-2.982-2.4-4.475-3.588-1.509-1.2-3.063-2.309-4.554-3.526S21.3,59.4,19.8,58.221c-.329-.261-.772-.36-.864-.867a27.243,27.243,0,0,1,0-4.579V31.018c0-.139-.1-.764,0-.872.118-.13,1.157,0,1.309,0a6.933,6.933,0,0,0,1.757,0c.446-.132.153.218.34-.286a6.461,6.461,0,0,0-.018-1.611,20.685,20.685,0,0,1,.321-3.15,17.945,17.945,0,0,1,1.8-5.248,15.7,15.7,0,0,1,7.53-7.005,15.455,15.455,0,0,1,11.209-.5c2.564.908,4.6,2.622,6.7,4.278l6.793,5.351,13.5,10.64,5.285,4.165A37.495,37.495,0,1,0,38,75.5c1.168,0,2.321-.061,3.461-.165-1.2-.964-2.405-1.938-3.618-2.886C36.331,71.269,34.813,70.116,33.308,68.923Z"/><path class="cls-4" d="M75.5,38c0-.41-.018-.816-.031-1.222l-5.285-4.165-13.5-10.64-6.793-5.351c-2.1-1.656-4.135-3.37-6.7-4.278a15.455,15.455,0,0,0-11.209.5,15.7,15.7,0,0,0-7.53,7.005,17.945,17.945,0,0,0-1.8,5.248,20.685,20.685,0,0,0-.321,3.15,6.461,6.461,0,0,1,.018,1.611c-.187.5.106.154-.34.286a6.933,6.933,0,0,1-1.757,0c-.152,0-1.191-.129-1.309,0-.1.108,0,.733,0,.872V52.775a27.243,27.243,0,0,0,0,4.579c.092.507.535.606.864.867,1.493,1.183,3,2.383,4.476,3.588s3.045,2.33,4.554,3.526c1.493,1.184,2.982,2.4,4.475,3.588s3.023,2.346,4.535,3.526c1.213.948,2.415,1.922,3.618,2.886A37.5,37.5,0,0,0,75.5,38Z"/><path class="cls-5" d="M25.033,30.83c0-.161-.021-.319-.021-.481,0-8.78,6.076-15.9,13.57-15.9,7.38,0,13.371,6.905,13.553,15.5.883.445,1.742.94,2.581,1.472.017-.357.046-.711.046-1.072,0-10.469-7.244-18.955-16.18-18.955S22.4,19.88,22.4,30.349c0,.7.038,1.4.1,2.082C23.33,31.859,24.172,31.321,25.033,30.83Z"/><path class="cls-6" d="M39.082,11.418c-.168,0-.331-.024-.5-.024-8.935,0-16.179,6.866-16.179,17.335,0,.7.038,1.4.1,2.082.825-.572.088-.054.949-.545,0-.161-.021-.319-.021-.481,0-8.78,4.734-15.8,13.991-17.924a9.9,9.9,0,0,1,1.648-.226C39.073,11.562,39.08,11.491,39.082,11.418Z"/><path class="cls-7" d="M47.233,51.977h-16.1l4.661-8.262A4.765,4.765,0,0,1,33.849,39.8a5.105,5.105,0,1,1,10.21.095,5.131,5.131,0,0,1-1.74,3.792Zm-14.32-1.04h12.5l-4.456-7.52.384-.279a4.085,4.085,0,0,0,1.683-3.257,4.067,4.067,0,0,0-4.026-4.1h-.039a4.071,4.071,0,0,0-4.065,4.028,3.815,3.815,0,0,0,1.87,3.316l.414.265Z"/><path class="cls-8" d="M19.023,30.026V57.482H58.246V30.026ZM31.9,50.618l4.2-7.442a4.085,4.085,0,0,1-1.987-3.542,4.321,4.321,0,1,1,6.852,3.542l4.409,7.442Z"/><path class="cls-6" d="M36.1,43.176a4.085,4.085,0,0,1-1.987-3.542,4.321,4.321,0,1,1,7.868,2.5L58.246,30.026H19.023V57.482H21.37l11.477-8.545Z"/><path class="cls-5" d="M25.033,30.83c0-.161-.021-.319-.021-.481,0-8.78,6.076-15.9,13.57-15.9,7.38,0,13.371,6.905,13.553,15.5.883.445,1.742.94,2.581,1.472.017-.357.046-.711.046-1.072,0-10.469-7.244-18.955-16.18-18.955S22.4,19.88,22.4,30.349c0,.7.038,1.4.1,2.082C23.33,31.859,24.172,31.321,25.033,30.83Z"/><path class="cls-6" d="M39.082,11.418c-.168,0-.331-.024-.5-.024-8.935,0-16.179,6.866-16.179,17.335,0,.7.038,1.4.1,2.082.825-.572.088-.054.949-.545,0-.161-.021-.319-.021-.481,0-8.78,4.734-15.8,13.991-17.924a9.9,9.9,0,0,1,1.648-.226C39.073,11.562,39.08,11.491,39.082,11.418Z"/><path class="cls-7" d="M47.233,51.977h-16.1l4.661-8.262A4.765,4.765,0,0,1,33.849,39.8a5.105,5.105,0,1,1,10.21.095,5.131,5.131,0,0,1-1.74,3.792Zm-14.32-1.04h12.5l-4.456-7.52.384-.279a4.085,4.085,0,0,0,1.683-3.257,4.067,4.067,0,0,0-4.026-4.1h-.039a4.071,4.071,0,0,0-4.065,4.028,3.815,3.815,0,0,0,1.87,3.316l.414.265Z"/><path class="cls-8" d="M19.023,30.026V57.482H58.246V30.026ZM31.9,50.618l4.2-7.442a4.085,4.085,0,0,1-1.987-3.542,4.321,4.321,0,1,1,6.852,3.542l4.409,7.442Z"/><path class="cls-6" d="M36.1,43.176a4.085,4.085,0,0,1-1.987-3.542,4.321,4.321,0,1,1,7.868,2.5L58.246,30.026H19.023V57.482H21.37l11.477-8.545Z"/></g></g></svg>