<svg xmlns="http://www.w3.org/2000/svg" viewBox="0 0 323.65 50.89"><defs><style>.cls-1{fill:#00abad;fill-rule:evenodd;}</style></defs><title>siemens</title><g id="Layer_2" data-name="Layer 2"><g id="textos_y_elementos" data-name="textos y elementos"><path class="cls-1" d="M1.05,49.15V39.46a50.15,50.15,0,0,0,14.71,2.6c5.89,0,8.82-1.54,8.82-4.64a3.79,3.79,0,0,0-1.28-2.91c-.87-.83-3.13-2-6.74-3.46q-9.73-4-12.68-6.79A12.44,12.44,0,0,1,.05,14.91q0-7.27,5.57-11.09T20,.05A81.5,81.5,0,0,1,34.08,1.83v9.32A34.72,34.72,0,0,0,21.32,8.42Q13,8.42,13,13a3.21,3.21,0,0,0,1.67,2.78c.93.57,3.49,1.79,7.66,3.67q9,4,12,6.92a12.15,12.15,0,0,1,3.55,9.05,13.38,13.38,0,0,1-7,12.16q-5.64,3.39-14.62,3.4A67.45,67.45,0,0,1,1.05,49.15Zm44.65.79V.9H59.47v49Zm26.4,0V.9h35.31V9.77h-22V20.85h19.19v8.08H85.37V40.57H108v9.37Zm44.87,0V.9h17.86l12.4,31.34L159.94.9h16.95v49h-13V15.22L149.38,50.44h-8.52L126.67,15.22V49.94Zm72.55,0V.9h35.31V9.77h-22V20.85H222v8.08H202.79V40.57h22.62v9.37Zm44.95,0V.9h15.95l16.93,32.83V.9h9.7v49h-15.5L244.17,16.67V49.94Zm52.35-.79V39.46a49.72,49.72,0,0,0,14.71,2.6q8.84,0,8.84-4.64a3.87,3.87,0,0,0-1.26-2.91c-.87-.83-3.13-2-6.77-3.46q-9.7-3.94-12.69-6.79a12.44,12.44,0,0,1-3.83-9.39,12.57,12.57,0,0,1,5.58-11Q296.9.06,305.75.05a69.1,69.1,0,0,1,12.89,1.58l1.21.2v9.32a34.7,34.7,0,0,0-12.78-2.73c-5.51,0-8.25,1.52-8.25,4.54a3.18,3.18,0,0,0,1.66,2.78c.88.55,3.45,1.77,7.69,3.67q9,4,12,6.92a12.15,12.15,0,0,1,3.55,9.05,13.38,13.38,0,0,1-6.93,12.16q-5.67,3.39-14.65,3.4a67.53,67.53,0,0,1-15.3-1.79Z" transform="translate(-0.05 -0.05)"/></g></g></svg>