<?xml version="1.0" encoding="utf-8"?>
<!-- Generator: Adobe Illustrator 24.1.3, SVG Export Plug-In . SVG Version: 6.00 Build 0)  -->
<svg version="1.1" id="Layer_1" xmlns="http://www.w3.org/2000/svg" xmlns:xlink="http://www.w3.org/1999/xlink" x="0px" y="0px"
	 viewBox="0 0 234 185" style="enable-background:new 0 0 234 185;" xml:space="preserve">
<style type="text/css">
	.st0{fill:#7CB892;}
	.st1{fill:#FFFFFF;}
	.st2{fill:#DEE3E8;}
	.st3{clip-path:url(#SVGID_2_);}
	.st4{opacity:0.42;fill:#FFFFFF;enable-background:new    ;}
	.st5{clip-path:url(#SVGID_4_);}
	.st6{fill:#E95653;}
	.st7{fill:#F08E8C;}
	.st8{clip-path:url(#SVGID_6_);}
	.st9{fill:#FBDDDD;}
	.st10{fill:none;}
</style>
<g id="textos_y_elementos">
	<path class="st0" d="M133.3,65.7v12.8c0,8.1,6.1,14.8,14.1,15.8v13.6l13.3-13.6h20.2c8.7,0,15.8-7.1,15.8-15.8V65.7
		c0-8.7-7.1-15.8-15.8-15.9h-31.7C140.4,49.9,133.3,56.9,133.3,65.7z"/>
	<g>
		<circle class="st1" cx="176.6" cy="71.2" r="3.2"/>
		<circle class="st1" cx="165.5" cy="71.1" r="3.2"/>
		<circle class="st1" cx="154.7" cy="71.1" r="3.2"/>
	</g>
	<path class="st2" d="M145.3,154.9c0,0-15.4,14-49,14c-30.8,0-40.6-15.4-40.6-15.4s8.4-49.5,44.8-49.5
		C134.1,104,145.3,154.9,145.3,154.9z"/>
	<g>
		<defs>
			<path id="SVGID_1_" d="M145.3,154.9c0,0-15.4,14-49,14c-30.8,0-40.6-15.4-40.6-15.4s8.4-49.5,44.8-49.5
				C134.1,104,145.3,154.9,145.3,154.9z"/>
		</defs>
		<clipPath id="SVGID_2_">
			<use xlink:href="#SVGID_1_"  style="overflow:visible;"/>
		</clipPath>
		<g class="st3">
			<polygon class="st4" points="108.1,83.5 58.3,120.5 54.6,156.5 			"/>
		</g>
	</g>
	<path class="st2" d="M121,74.5c0,13-10.1,22.2-20.9,22.2s-20.9-9.2-20.9-22.2S89.3,51,100.1,51S121,61.5,121,74.5z"/>
	<g>
		<defs>
			<path id="SVGID_3_" d="M121,74.5c0,13-10.1,22.2-20.9,22.2s-20.9-9.2-20.9-22.2S89.3,51,100.1,51S121,61.5,121,74.5z"/>
		</defs>
		<clipPath id="SVGID_4_">
			<use xlink:href="#SVGID_3_"  style="overflow:visible;"/>
		</clipPath>
		<g class="st5">
			<polygon class="st4" points="102.6,48.1 77.2,56.6 77.4,89.3 			"/>
		</g>
	</g>
	<path class="st6" d="M72.9,68.4c-0.2-7.2,2.5-14.2,7.5-19.4c10.6-10.9,28.1-11.2,39.1-0.5c2.7,2.6,4.8,5.8,6.3,9.2
		c0.3,0.9,0.7,1.7,0.9,2.6s0.5,1.8,0.7,2.7s0.3,1.8,0.4,2.7l0.1,1.4c-0.1,0.4,0.5,0.9-1.1,1.4c-0.4,0.1-0.8,0.1-1.2,0h-0.1
		c-1.7-0.4-1.1-0.8-1.2-1.2l-0.1-1.2c-0.1-0.8-0.2-1.6-0.3-2.4s-0.4-1.5-0.6-2.3s-0.5-1.5-0.8-2.3c-2.5-6-7.2-10.8-13.2-13.3
		c-3-1.3-6.2-1.9-9.4-2c-10.1-0.1-19.3,5.8-23.4,15c-1.4,3.1-2.1,6.3-2.3,9.7c0,0.3-0.3,0.6-0.6,0.6C73.2,69,72.9,68.8,72.9,68.4
		L72.9,68.4z"/>
	<path class="st6" d="M69.4,64.7h2.9c1.5,0,2.7,1.2,2.7,2.7v12.9c0,1.5-1.2,2.7-2.7,2.7h-2.9c-1.5,0-2.7-1.2-2.7-2.7V67.4
		C66.7,65.9,67.9,64.7,69.4,64.7z"/>
	<path class="st6" d="M74.2,78.4c0.1,2.1,1,4.1,2.6,5.4c1.7,1.3,3.6,2.1,5.7,2.5c4.4,0.7,8.8,0.9,13.2,0.6l0,0
		c1.2-0.1,2.3,0.8,2.4,2c0.1,1.2-0.8,2.3-2,2.4c-0.1,0-0.1,0-0.2,0h-0.2c-2.3-0.1-4.7-0.3-7-0.7c-2.4-0.3-4.7-0.8-7-1.6
		c-1.2-0.4-2.3-0.9-3.4-1.5c-0.5-0.3-1.1-0.6-1.6-1c-0.5-0.4-1-0.8-1.4-1.3c-0.4-0.5-0.8-1-1.1-1.5c-0.2-0.3-0.3-0.6-0.5-0.8
		L73.4,82l-0.2-0.4l-0.1-0.5L73,80.2c-0.1-0.6,0-1.2-0.1-1.8c0-0.3,0.3-0.6,0.6-0.6C73.9,77.8,74.2,78,74.2,78.4L74.2,78.4z"/>
	<path class="st7" d="M130.6,35.7v12.8c0,8.1,6.1,14.8,14.1,15.8v13.6l13.3-13.6h20.2c8.7,0,15.8-7.1,15.8-15.8V35.7
		c0-8.7-7.1-15.8-15.8-15.9h-31.7C137.7,19.8,130.6,26.9,130.6,35.7z"/>
	<g>
		<defs>
			<path id="SVGID_5_" d="M130.6,35.7v12.8c0,8.1,6.1,14.8,14.1,15.8v13.6l13.3-13.6h20.2c8.7,0,15.8-7.1,15.8-15.8V35.7
				c0-8.7-7.1-15.8-15.8-15.9h-31.7C137.7,19.8,130.6,26.9,130.6,35.7z"/>
		</defs>
		<clipPath id="SVGID_6_">
			<use xlink:href="#SVGID_5_"  style="overflow:visible;"/>
		</clipPath>
		<g class="st8">
			<polygon class="st9" points="157.9,16.7 131.8,22.2 127.3,60.4 			"/>
		</g>
	</g>
	<rect x="17" y="0" class="st10" width="234" height="185"/>
	<g>
		<circle class="st1" cx="173.2" cy="43.4" r="3.2"/>
		<circle class="st1" cx="162.1" cy="43.3" r="3.2"/>
		<circle class="st1" cx="151.3" cy="43.3" r="3.2"/>
	</g>
</g>
</svg>
