<svg xmlns="http://www.w3.org/2000/svg" xmlns:xlink="http://www.w3.org/1999/xlink" viewBox="0 0 234 185"><defs><style>.cls-1,.cls-3{fill:#eff1f4;}.cls-1,.cls-9{stroke:#e5e7e8;stroke-width:0.35px;}.cls-1,.cls-14,.cls-5,.cls-9{stroke-miterlimit:10;}.cls-2{fill:#e95653;}.cls-4{clip-path:url(#clip-path);}.cls-5{fill:#b0b8bc;stroke:#cacfd2;stroke-width:0.71px;}.cls-6{fill:#96a0a5;}.cls-7{fill:#f0c32d;}.cls-13,.cls-8{fill:#fff;}.cls-8{opacity:0.42;}.cls-14,.cls-15,.cls-9{fill:none;}.cls-10{clip-path:url(#clip-path-2);}.cls-11{clip-path:url(#clip-path-3);}.cls-12{fill:#b0565f;}.cls-14{stroke:#fff;stroke-width:0.84px;}</style><clipPath id="clip-path"><rect class="cls-1" x="81.18" y="22.08" width="131.21" height="101.29" rx="5"/></clipPath><clipPath id="clip-path-2"><rect class="cls-1" x="21.61" y="56.41" width="131.21" height="101.29" rx="5"/></clipPath><clipPath id="clip-path-3"><polygon class="cls-2" points="174.85 70.94 121.74 70.94 95.19 116.93 121.74 162.93 174.85 162.93 201.41 116.93 174.85 70.94"/></clipPath></defs><title>werbefrei v2</title><g id="Layer_2" data-name="Layer 2"><g id="textos_y_elementos" data-name="textos y elementos"><rect class="cls-3" x="81.18" y="22.08" width="131.21" height="101.29" rx="5"/><g class="cls-4"><rect class="cls-5" x="76.58" y="9.99" width="140.99" height="25.9"/><circle class="cls-6" cx="88.95" cy="28.12" r="3.17"/><circle class="cls-6" cx="100.17" cy="28.41" r="3.45"/><circle class="cls-6" cx="111.68" cy="28.41" r="3.45"/><path class="cls-7" d="M138.23,94.11a12.74,12.74,0,0,1-11.1-19l8.13-14.51a12.62,12.62,0,0,1,11-6.51h.17a12.59,12.59,0,0,1,10.94,6.23l8.51,14.3a12.74,12.74,0,0,1-10.78,19.25l-16.64.21Zm8.15-37.69h-.14a10.34,10.34,0,0,0-9,5.33l-8.13,14.52a10.43,10.43,0,0,0,9.24,15.53L155,91.59a10.44,10.44,0,0,0,8.83-15.77l-8.51-14.3A10.31,10.31,0,0,0,146.38,56.42Z"/><path class="cls-7" d="M146.33,78.44h0a1.69,1.69,0,0,1-1.69-1.69l-.73-11.39c0-.94,1.49-1.7,2.42-1.7h0c.94,0,2.18.76,2.18,1.7L148,76.75A1.7,1.7,0,0,1,146.33,78.44Z"/><circle class="cls-7" cx="146.33" cy="83.77" r="2.18"/><polygon class="cls-8" points="79.88 136.92 80.13 28.77 81.39 21.23 153.82 20.22 79.88 136.92"/></g><rect class="cls-9" x="81.18" y="22.08" width="131.21" height="101.29" rx="5"/><rect class="cls-3" x="21.61" y="56.41" width="131.21" height="101.29" rx="5"/><g class="cls-10"><rect class="cls-5" x="17" y="44.32" width="140.99" height="25.9"/><circle class="cls-6" cx="29.38" cy="62.45" r="3.17"/><circle class="cls-6" cx="40.6" cy="62.74" r="3.45"/><circle class="cls-6" cx="52.11" cy="62.74" r="3.45"/><path class="cls-7" d="M78.66,128.44a12.74,12.74,0,0,1-11.1-19L75.69,95a12.6,12.6,0,0,1,11-6.51h.17a12.61,12.61,0,0,1,10.94,6.22l8.5,14.31a12.73,12.73,0,0,1-10.78,19.24l-16.64.22Zm8.15-37.69h-.14a10.32,10.32,0,0,0-9,5.33L69.56,110.6a10.44,10.44,0,0,0,9.24,15.53l16.64-.21a10.44,10.44,0,0,0,8.84-15.77l-8.51-14.3A10.33,10.33,0,0,0,86.81,90.75Z"/><path class="cls-7" d="M86.76,112.77h0a1.7,1.7,0,0,1-1.7-1.69l-.72-11.39c0-.93,1.49-1.7,2.42-1.7h0c.93,0,2.18.77,2.18,1.7l-.49,11.39A1.69,1.69,0,0,1,86.76,112.77Z"/><circle class="cls-7" cx="86.76" cy="118.1" r="2.18"/><polygon class="cls-8" points="20.27 156.04 20.02 58.95 24.8 54.68 95.47 54.93 20.27 156.04"/></g><rect class="cls-9" x="21.61" y="56.41" width="131.21" height="101.29" rx="5"/><polygon class="cls-2" points="174.85 70.94 121.74 70.94 95.19 116.93 121.74 162.93 174.85 162.93 201.41 116.93 174.85 70.94"/><g class="cls-11"><path class="cls-12" d="M191.3,134.41l-17.11,28.67-39.84-19.33,15.47.1,8.28-43.65s10.56,9.81,15.09,16.35C183,130.7,191.3,134.41,191.3,134.41Z"/></g><path class="cls-13" d="M175.14,116.72l-6.68,16.07a19.74,19.74,0,0,1-39.24-3.52,20.91,20.91,0,0,1,.59-4.92V98.19a3.28,3.28,0,0,1,3.27-3.26,3.28,3.28,0,0,1,3.26,3.26v15.56c.09-.08,0,.89.07.83l.19,1.61a.64.64,0,0,0,.64.63.63.63,0,0,0,.63-.63v-2.75c.06,0,.12-1,.18-1V91.74a3.25,3.25,0,0,1,5.56-2.3,3.21,3.21,0,0,1,1,2.3v17.85c.06,0-.1,1,0,1l.21,5.13a.64.64,0,0,0,1.27,0l.29-5.29c.14,0,0-1.15.14-1.17V86.46a3.28,3.28,0,0,1,3.26-3.27A3.3,3.3,0,0,1,153,86.46v23l.08,0v6.2a.64.64,0,0,0,1.28,0l.19-4.7c.08,0,0-1.13.06-1.1V90.2a3.28,3.28,0,0,1,3.27-3.28,3.24,3.24,0,0,1,2.3,1,3.29,3.29,0,0,1,1,2.32v23.12s0,0,0,.05l.2,9.37a1.17,1.17,0,0,0,2.21.51l2.12-3.53c.07.12.31-.73.38-.6l0,0,1.08-2.59.08-.19,1-2.41,0-.11a4.44,4.44,0,0,1,.28-.53l0,0a3.26,3.26,0,0,1,4-1.21l.8.34A3.26,3.26,0,0,1,175.14,116.72Z"/><polygon class="cls-14" points="174.16 72.14 122.44 72.14 96.58 116.93 122.44 161.72 174.16 161.72 200.02 116.93 174.16 72.14"/><rect class="cls-15" width="234" height="185"/></g></g></svg>