<svg xmlns="http://www.w3.org/2000/svg" viewBox="0 0 400 400"><defs><style>.cls-1{fill:#f3a5a3;}.cls-2{fill:#a91613;}.cls-3{fill:#e11e19;}.cls-4{fill:#1a72ad;}.cls-5{fill:#155992;}.cls-6{fill:#66aede;}.cls-7{fill:#145682;}.cls-8{fill:#488ebd;}.cls-9{fill:none;stroke:#e11e19;stroke-linecap:round;stroke-miterlimit:20;stroke-width:5.03px;stroke-dasharray:13.33 13.33;}</style></defs><g id="Layer_1" data-name="Layer 1"><polygon class="cls-1" points="237.67 89.68 224.1 111.92 249.26 108.2 335.88 88.11 237.67 89.68"/><polygon class="cls-2" points="224.1 111.92 266.3 112.57 256.41 106.54 224.1 111.92"/><polygon class="cls-3" points="237.67 89.68 232.07 66.56 335.88 88.11 237.67 89.68"/><polygon class="cls-3" points="335.88 88.11 249.26 108.2 259.34 141.68 335.88 88.11"/><path class="cls-4" d="M231.56,135.93a2.08,2.08,0,0,1-.56-.51,2,2,0,0,1,.42-2.77,54.94,54.94,0,0,1,8.77-5.34,2,2,0,0,1,1.74,3.56,51.27,51.27,0,0,0-8.15,5A2,2,0,0,1,231.56,135.93Z"/><path class="cls-4" d="M242.89,354.74l-.1-.06A59.71,59.71,0,0,1,228.3,340a2,2,0,1,1,3.24-2.28,56,56,0,0,0,13.52,13.68,2,2,0,0,1-2.17,3.31Zm-20-24.55a1.91,1.91,0,0,1-.76-.85,74.91,74.91,0,0,1-6.1-19.57,2,2,0,0,1,3.91-.65,71.17,71.17,0,0,0,5.77,18.54,2,2,0,0,1-.95,2.63A1.94,1.94,0,0,1,222.88,330.19Zm-6.87-31a2,2,0,0,1-.95-1.71v-1a96.21,96.21,0,0,1,2.51-19.29,2,2,0,0,1,3.86.89A92.05,92.05,0,0,0,219,296.61v.9a2,2,0,0,1-2,2A2.06,2.06,0,0,1,216,299.19Zm5.83-31.34a2,2,0,0,1-.83-2.34,147.58,147.58,0,0,1,8.07-18.6,2,2,0,0,1,2.66-.86,2,2,0,0,1,.86,2.67,144.62,144.62,0,0,0-7.85,18.1,2,2,0,0,1-2.53,1.21A2.64,2.64,0,0,1,221.84,267.85ZM235.62,239a2,2,0,0,1-.67-2.7c.25-.42.49-.84.75-1.25a64.31,64.31,0,0,1-8.25-5.5,2,2,0,1,1,2.45-3.11,59.39,59.39,0,0,0,7.87,5.23c2.43-3.91,5.09-8,8.1-12.31a2,2,0,0,1,3.26,2.25c-2.9,4.2-5.47,8.11-7.83,11.88q2.69,1.27,5.49,2.29a2,2,0,0,1-1.35,3.73,65.47,65.47,0,0,1-6.22-2.63l-.86,1.43a2,2,0,0,1-2.71.7ZM219,221.35a2,2,0,0,1-.49-.43,54.16,54.16,0,0,1-10-18.07,2,2,0,0,1,3.77-1.22,49.93,49.93,0,0,0,9.25,16.76,2,2,0,0,1-2.56,3Zm37.65,21a2,2,0,0,1,1.36-3.64,57.9,57.9,0,0,0,19.26,0,2,2,0,0,1,.68,3.9,61.8,61.8,0,0,1-20.58,0A2.23,2.23,0,0,1,256.68,242.37ZM207,192.19a2,2,0,0,1-.94-1.5,64.22,64.22,0,0,1,1.39-20.51,2,2,0,1,1,3.86.88A60.15,60.15,0,0,0,210,190.31a2,2,0,0,1-1.78,2.16A1.9,1.9,0,0,1,207,192.19ZM288.11,239a1.91,1.91,0,0,1-.79-.93,2,2,0,0,1,1.06-2.59,46.14,46.14,0,0,0,4.48-2.15,38.34,38.34,0,0,0,10.86-8.87,2,2,0,0,1,3,2.55,42.35,42.35,0,0,1-12,9.8c-1.56.85-3.19,1.63-4.85,2.33A2,2,0,0,1,288.11,239Zm-34.65-26.61-.16-.11a2,2,0,0,1-.38-2.78c5-6.54,9.45-11.26,14.1-14.85a2,2,0,1,1,2.42,3.14,73.9,73.9,0,0,0-13.37,14.11A2,2,0,0,1,253.46,212.42Zm-41.35-51.5a2,2,0,0,1-.79-2.48,68.51,68.51,0,0,1,4.32-8.34,63.46,63.46,0,0,1,6.66-9,2,2,0,0,1,2.79-.18,2,2,0,0,1,.18,2.8,61.2,61.2,0,0,0-6.25,8.48A64,64,0,0,0,215,160a2,2,0,0,1-2.6,1A1.92,1.92,0,0,1,212.11,160.92Zm98.07,56.2a2,2,0,0,1-.84-2.32,17.9,17.9,0,0,0-.28-13.05,16.32,16.32,0,0,0-2.42-3.94,2,2,0,0,1,3.05-2.53,20.45,20.45,0,0,1,3,4.9,22,22,0,0,1,.39,15.88,2,2,0,0,1-2.5,1.25A1.92,1.92,0,0,1,310.18,217.12ZM277.6,192a2,2,0,0,1-.83-1,2,2,0,0,1,1.17-2.55,32,32,0,0,1,21-.34,2,2,0,0,1-1.27,3.76,28.33,28.33,0,0,0-18.32.3A2,2,0,0,1,277.6,192Z"/><path class="cls-4" d="M253.66,360.44a2,2,0,0,1,1.72-3.55,42.3,42.3,0,0,0,9.17,2.28,2,2,0,0,1-.53,3.93,46.53,46.53,0,0,1-10-2.5A2.11,2.11,0,0,1,253.66,360.44Z"/><polygon class="cls-5" points="8.4 49.99 90.87 144.98 156.22 110.77 74.9 77.63 8.4 49.99"/><polygon class="cls-6" points="5.66 46.65 89.03 140.07 155.79 103.09 73.47 72.23 5.66 46.65"/><polygon class="cls-7" points="111.46 172.05 86.46 214.75 43.55 206.03 89.03 145.39 111.46 172.05"/><polygon class="cls-8" points="114.43 171.14 160.2 152.34 156.22 110.57 90.67 144.98 114.43 171.14"/><polygon class="cls-5" points="6.47 47.27 89.04 145.29 43.69 205.97 25.14 120.02 6.47 47.27"/><polygon class="cls-4" points="5.86 47.06 84.93 142.73 40.72 205.07 22.39 119.08 5.86 47.06"/><path class="cls-9" d="M115.19,178.58c51.57,164.32,209.65,59.35,276,174.25"/></g></svg>