<?xml version="1.0" encoding="utf-8"?>
<!-- Generator: Adobe Illustrator 25.0.0, SVG Export Plug-In . SVG Version: 6.00 Build 0)  -->
<svg version="1.1" id="Layer_1" xmlns="http://www.w3.org/2000/svg" xmlns:xlink="http://www.w3.org/1999/xlink" x="0px" y="0px"
	 viewBox="0 0 531.1 292.6" style="enable-background:new 0 0 531.1 292.6;" xml:space="preserve">
<style type="text/css">
	.st0{fill:#D6E6F2;}
	.st1{fill-rule:evenodd;clip-rule:evenodd;fill:#BEC8D2;}
	.st2{fill-rule:evenodd;clip-rule:evenodd;fill:#155992;}
	.st3{fill-rule:evenodd;clip-rule:evenodd;fill:#FFFFFF;}
	.st4{clip-path:url(#SVGID_2_);}
	.st5{fill:#FFFFFF;}
	.st6{fill:#DFE7F0;}
	.st7{fill:#869CB3;}
	.st8{fill:#C1CEDD;}
	.st9{fill:#F2F2F2;}
	.st10{fill:#F1BF2C;}
	.st11{fill:#E32213;}
	.st12{fill:#CCD7E4;}
	.st13{fill-rule:evenodd;clip-rule:evenodd;fill:#6588AB;}
	.st14{fill-rule:evenodd;clip-rule:evenodd;fill:#DEE3E8;}
	.st15{clip-path:url(#SVGID_4_);}
	.st16{fill:#A4C9E7;}
	.st17{fill:#77ADDB;}
	.st18{fill:#1C77C3;}
	.st19{fill:#155992;}
	.st20{fill:#E95653;}
	.st21{fill:#F08E8C;}
	.st22{fill:#E11E19;}
	.st23{fill:#DF1D18;}
	.st24{fill:#DFDFDF;}
	.st25{clip-path:url(#SVGID_6_);}
	.st26{clip-path:url(#SVGID_8_);}
	.st27{fill:#F3FAFF;}
	.st28{fill:#C8DFF1;}
	.st29{fill:#B6D4EC;}
	.st30{fill:#6588AB;}
	.st31{fill:#04B8B5;}
	.st32{fill:#E9F5FF;}
	.st33{fill:#CFC0B4;}
	.st34{fill:#9B938E;}
	.st35{fill:#F4EFEA;}
	.st36{fill:#C6BFB9;}
	.st37{fill:#FDC9A3;}
	.st38{fill:#E5A67C;}
	.st39{fill:#F0C6BD;}
	.st40{fill:#FFC55E;}
	.st41{fill:#66AEDE;}
</style>
<g>
	<g id="Layer_1_1_">
		<polygon class="st0" points="520,83.6 355.3,281.3 20.4,218.8 185.1,21.1 		"/>
		<path class="st1" d="M415.3,72.2c0-5.1-4.2-9.3-9.3-9.3H129.2c-5.1,0-9.3,4.2-9.3,9.3v176.5h295.4V72.2z"/>
		<path class="st2" d="M413.4,74c0-5.1-4.1-9.2-9.2-9.2l0,0H130.9c-5.1,0-9.2,4.1-9.2,9.2l0,0v174.2h291.6V74z"/>
		<polygon class="st3" points="405.9,74 130.9,74 130.9,239 405.9,239 405.9,74 		"/>
		<g>
			<defs>
				<polygon id="SVGID_1_" points="405.9,74 130.9,74 130.9,239 405.9,239 405.9,74 				"/>
			</defs>
			<clipPath id="SVGID_2_">
				<use xlink:href="#SVGID_1_"  style="overflow:visible;"/>
			</clipPath>
			<g class="st4">
				<path class="st5" d="M132.2,240.6c-1.5,0.1-2.8-0.9-3-2.4V84.7c0-0.5,0.1-1.1,0.5-1.1h0.3c0.4-0.1,0.7-0.4,0.9-0.7l2-4.6
					c0.3-0.6,1-1,1.7-1h32.4c0.7,0,1.3,0.4,1.7,1l2,4.6c0.3,0.5,0.8,0.7,1.3,0.7H404c0.6-0.1,1.2,0.3,1.3,1c0,0,0,0.1,0,0.1v153.5
					c-0.2,1.5-1.5,2.6-3,2.4L132.2,240.6z"/>
				<path class="st6" d="M167.1,77.4c0.6,0,1.2,0.3,1.5,0.9l2,4.6c0.3,0.5,0.9,0.9,1.5,0.8H404c0.6-0.1,1.1,0.3,1.2,0.9c0,0,0,0,0,0
					v153.6c-0.2,1.4-1.4,2.4-2.8,2.3H132.2c-1.4,0.1-2.6-0.9-2.8-2.3V84.7c0-0.5,0.2-0.9,0.3-0.9h0.3c0.5-0.1,0.9-0.4,1.1-0.8l2-4.6
					c0.3-0.5,0.9-0.9,1.5-0.9L167.1,77.4 M167.1,77.1h-32.4c-0.8,0-1.5,0.4-1.9,1.1l-2,4.6c-0.1,0.3-0.4,0.5-0.7,0.6h-0.3
					c-0.7,0-0.8,1-0.8,1.2v153.5c0.2,1.6,1.6,2.8,3.2,2.6h270.2c1.6,0.1,3-1,3.2-2.6V84.7c-0.1-0.8-0.8-1.3-1.5-1.2H172.1
					c-0.5,0-0.9-0.2-1.1-0.6l-2-4.6C168.6,77.5,167.8,77.1,167.1,77.1L167.1,77.1z"/>
				<path class="st7" d="M165.3,80.8l0.9-0.7c0.1-0.1,0.2-0.3,0.1-0.4c0,0,0-0.1-0.1-0.1c-0.2-0.1-0.4-0.1-0.6,0l-0.9,0.7l-0.9-0.7
					c-0.2-0.1-0.4-0.1-0.6,0c-0.1,0.1-0.2,0.3-0.1,0.4c0,0,0,0.1,0.1,0.1l0.9,0.7l-0.9,0.7c-0.1,0.1-0.2,0.3-0.1,0.4
					c0,0,0,0.1,0.1,0.1c0.1,0.1,0.2,0.1,0.3,0.1c0.1,0,0.2,0,0.3-0.1l0.9-0.7l0.9,0.7c0.2,0.1,0.4,0.1,0.6,0
					c0.1-0.1,0.2-0.3,0.1-0.4c0,0,0-0.1-0.1-0.1L165.3,80.8z"/>
				<rect x="129.3" y="84.7" class="st8" width="276" height="14.1"/>
				<path class="st9" d="M179,95.4c-0.9,0.1-1.7-0.5-1.8-1.4v-4.5c0.2-0.9,1-1.5,1.8-1.3h220.2c0.9-0.1,1.7,0.5,1.9,1.3V94
					c-0.1,0.9-0.9,1.5-1.8,1.4L179,95.4z"/>
				<path class="st6" d="M399.1,88.2c0.8-0.1,1.6,0.5,1.7,1.3V94c-0.1,0.8-0.9,1.4-1.7,1.3H179c-0.8,0.1-1.5-0.5-1.7-1.3v-4.5
					c0.1-0.8,0.9-1.4,1.7-1.3H399.1 M399.1,88H179c-1-0.1-1.8,0.6-2,1.5V94c0.1,1,1,1.6,2,1.5h220.2c1,0.1,1.8-0.6,2-1.5v-4.5
					C400.9,88.5,400.1,87.9,399.1,88z"/>
				<path class="st10" d="M395.7,89.6c0.1-0.3,0.3-0.3,0.5,0l0.4,0.8c0.2,0.3,0.4,0.5,0.7,0.5l0.9,0.1c0.3,0,0.3,0.2,0.1,0.4
					l-0.6,0.6c-0.2,0.2-0.3,0.6-0.3,0.9l0.2,0.9c0,0.3-0.1,0.4-0.4,0.3l-0.8-0.4c-0.3-0.1-0.6-0.1-0.9,0l-0.8,0.4
					c-0.2,0.1-0.4,0-0.4-0.3l0.1-0.9c0-0.3-0.1-0.6-0.3-0.9l-0.6-0.6c-0.2-0.2-0.1-0.4,0.1-0.4l0.9-0.1c0.3-0.1,0.6-0.3,0.7-0.5
					L395.7,89.6z"/>
				<path class="st10" d="M395.7,89.6c0.1-0.3,0.3-0.3,0.5,0l0.4,0.8c0.2,0.3,0.4,0.5,0.7,0.5l0.9,0.1c0.3,0,0.3,0.2,0.1,0.4
					l-0.6,0.6c-0.2,0.2-0.3,0.6-0.3,0.9l0.2,0.9c0,0.3-0.1,0.4-0.4,0.3l-0.8-0.4c-0.3-0.1-0.6-0.1-0.9,0l-0.8,0.4
					c-0.2,0.1-0.4,0-0.4-0.3l0.1-0.9c0-0.3-0.1-0.6-0.3-0.9l-0.6-0.6c-0.2-0.2-0.1-0.4,0.1-0.4l0.9-0.1c0.3-0.1,0.6-0.3,0.7-0.5
					L395.7,89.6z"/>
				<path class="st7" d="M136.9,91.1c-0.1,0-0.2-0.1-0.1-0.2l0.6-0.6l0.5-0.5c0.1-0.1,0.2-0.2,0.3-0.4c0.1-0.4-0.1-0.8-0.4-0.9
					c-0.3-0.1-0.6,0-0.8,0.2l-0.6,0.6l-1.7,1.8c-0.1,0.1-0.1,0.2-0.2,0.3c-0.1,0.3-0.1,0.6,0.1,0.8l0.5,0.5l1.9,1.9
					c0.1,0.1,0.1,0.1,0.2,0.2c0.3,0.2,0.7,0.2,0.9-0.1c0,0,0-0.1,0.1-0.1c0.1-0.3,0.1-0.6-0.1-0.8l-0.3-0.3l-0.8-0.8
					c-0.1-0.1-0.1-0.2,0.1-0.2h3.4c0.2,0,0.5,0,0.7-0.2c0.2-0.2,0.3-0.5,0.2-0.8c-0.1-0.3-0.4-0.4-0.6-0.4H136.9z"/>
				<path class="st7" d="M153.1,91.1c0.1,0,0.2-0.1,0.1-0.2l-0.6-0.6l-0.5-0.5c-0.1-0.1-0.2-0.2-0.3-0.4c-0.1-0.4,0.1-0.7,0.4-0.9
					c0.3-0.1,0.5,0,0.7,0.2l0.6,0.6l1.8,1.8c0.1,0.1,0.1,0.2,0.2,0.3c0.1,0.3,0.1,0.6-0.1,0.8l-0.5,0.5l-1.8,1.9
					c-0.1,0.1-0.1,0.1-0.2,0.2c-0.3,0.2-0.7,0.2-1-0.1c0,0,0-0.1-0.1-0.1c-0.1-0.3-0.1-0.6,0.1-0.8l0.3-0.3l0.8-0.8
					c0.1-0.1,0.1-0.2-0.1-0.2h-3.4c-0.2,0-0.5,0-0.7-0.2c-0.2-0.2-0.3-0.5-0.2-0.8c0.1-0.3,0.4-0.4,0.6-0.4H153.1z"/>
				<path class="st7" d="M169.1,91.5l0.6-2.1l-0.8,0.5c-1-1.4-3-1.7-4.4-0.7c-1.4,1-1.7,3-0.7,4.4c0.6,0.8,1.5,1.3,2.5,1.3
					c0.9,0,1.7-0.3,2.3-1c0.3-0.2,0.3-0.6,0.1-0.8c-0.2-0.3-0.6-0.3-0.8-0.1c0,0-0.1,0.1-0.1,0.1c-0.4,0.4-0.9,0.6-1.5,0.6
					c-1.1,0-2-0.9-2-2s0.9-2,2-2c0.6,0,1.1,0.3,1.5,0.7l-0.8,0.4L169.1,91.5z"/>
				<path class="st11" d="M149,114.9c-0.1,0.7-0.6,1.2-1.3,1.3h-1.1v-10.6h2.3L149,114.9z"/>
				<path class="st11" d="M151.9,105.6h3c0.9-0.1,1.8,0.2,2.6,0.7c0.6,0.5,0.9,1.2,0.9,2c0,0.5-0.1,1-0.4,1.4
					c-0.3,0.4-0.6,0.6-1,0.8l0,0c1.1,0.3,1.9,1.3,1.8,2.5c0,0.4-0.1,0.9-0.2,1.3c-0.1,0.4-0.4,0.7-0.7,1c-0.3,0.3-0.7,0.5-1.2,0.6
					c-0.6,0.2-1.1,0.2-1.7,0.2h-4.3v-9.3C150.8,106.2,151.3,105.7,151.9,105.6z M156.4,112.9c0-0.3-0.1-0.7-0.3-1
					c-0.3-0.2-0.7-0.3-1.1-0.3h-2v2.5h2.1c0.4,0,0.7-0.1,1-0.3C156.3,113.6,156.4,113.3,156.4,112.9L156.4,112.9z M156.1,108.7
					c0-0.3-0.1-0.6-0.3-0.9c-0.3-0.2-0.6-0.3-1-0.3h-1.9v2.3h2c0.3,0,0.7-0.1,0.9-0.3C156,109.4,156.1,109,156.1,108.7L156.1,108.7z
					"/>
				<path class="st11" d="M143.5,107.6c-2.9-0.4-3.6,0.6-3.6,3.2c0,2.7,0.7,3.6,3.9,3.2c1-0.1,1.2,0.2,1.4,1.8
					c-0.9,0.3-1.9,0.4-2.9,0.4c-1.4,0.1-2.7-0.4-3.7-1.3c-0.9-1.2-1.3-2.7-1.2-4.2c0-3.8,1.7-5.3,5-5.3c0.9,0,1.8,0.2,2.7,0.5
					C144.8,107.7,144.5,107.8,143.5,107.6z"/>
				<path class="st11" d="M164.6,111.6c1-0.2,1.7-1,2-1.9v-6.6h-6.1v8.5L164.6,111.6z"/>
				<path class="st12" d="M256.7,110.2h27.7c0.8,0,1.5,0.7,1.5,1.5v0c0,0.8-0.7,1.5-1.5,1.5h-27.7c-0.8,0-1.5-0.7-1.5-1.5v0
					C255.2,110.8,255.9,110.2,256.7,110.2z"/>
				<path class="st12" d="M174,219.9h27.7c0.8,0,1.5,0.7,1.5,1.5v0c0,0.8-0.7,1.5-1.5,1.5H174c-0.8,0-1.5-0.7-1.5-1.5v0
					C172.5,220.6,173.2,219.9,174,219.9z"/>
				<path class="st12" d="M226.7,220.1h27.7c0.8,0,1.5,0.7,1.5,1.5v0c0,0.8-0.7,1.5-1.5,1.5h-27.7c-0.8,0-1.5-0.7-1.5-1.5v0
					C225.3,220.8,225.9,220.1,226.7,220.1z"/>
				<path class="st12" d="M281.3,221.2H309c0.8,0,1.5,0.7,1.5,1.5v0c0,0.8-0.7,1.5-1.5,1.5h-27.7c-0.8,0-1.5-0.7-1.5-1.5v0
					C279.8,221.9,280.5,221.2,281.3,221.2z"/>
				<path class="st12" d="M335.3,222.1h27.7c0.8,0,1.5,0.7,1.5,1.5v0c0,0.8-0.7,1.5-1.5,1.5h-27.7c-0.8,0-1.5-0.7-1.5-1.5v0
					C333.9,222.8,334.5,222.1,335.3,222.1z"/>
				<path class="st12" d="M210.9,169.9h131.8c0.8,0,1.5,0.7,1.5,1.5v0c0,0.8-0.7,1.5-1.5,1.5H210.9c-0.8,0-1.5-0.7-1.5-1.5v0
					C209.5,170.6,210.1,169.9,210.9,169.9z"/>
				<path class="st12" d="M292.1,110.2h27.7c0.8,0,1.5,0.7,1.5,1.5v0c0,0.8-0.7,1.5-1.5,1.5h-27.7c-0.8,0-1.5-0.7-1.5-1.5v0
					C290.6,110.8,291.3,110.2,292.1,110.2z"/>
				<path class="st12" d="M328.6,110.2h27.7c0.8,0,1.5,0.7,1.5,1.5v0c0,0.8-0.7,1.5-1.5,1.5h-27.7c-0.8,0-1.5-0.7-1.5-1.5v0
					C327.1,110.8,327.8,110.2,328.6,110.2z"/>
				<path class="st12" d="M362.8,110.2h27.7c0.8,0,1.5,0.7,1.5,1.5v0c0,0.8-0.7,1.5-1.5,1.5h-27.7c-0.8,0-1.5-0.7-1.5-1.5v0
					C361.3,110.8,362,110.2,362.8,110.2z"/>
				<rect x="128.8" y="121.5" class="st6" width="276.7" height="40.6"/>
				<path class="st6" d="M179.5,193.9h15.5c2.6,0,4.7,2.1,4.7,4.7V209c0,2.6-2.1,4.7-4.7,4.7h-15.5c-2.6,0-4.7-2.1-4.7-4.7v-10.5
					C174.8,195.9,176.9,193.9,179.5,193.9z"/>
				<path class="st6" d="M233.5,193.9h15.5c2.6,0,4.7,2.1,4.7,4.7V209c0,2.6-2.1,4.7-4.7,4.7h-15.5c-2.6,0-4.7-2.1-4.7-4.7v-10.5
					C228.8,195.9,230.9,193.9,233.5,193.9z"/>
				<path class="st6" d="M287.5,193.9h15.5c2.6,0,4.7,2.1,4.7,4.7V209c0,2.6-2.1,4.7-4.7,4.7h-15.5c-2.6,0-4.7-2.1-4.7-4.7v-10.5
					C282.8,195.9,284.9,193.9,287.5,193.9z"/>
				<path class="st6" d="M341.5,193.9h15.5c2.6,0,4.7,2.1,4.7,4.7V209c0,2.6-2.1,4.7-4.7,4.7h-15.5c-2.6,0-4.7-2.1-4.7-4.7v-10.5
					C336.8,195.9,338.9,193.9,341.5,193.9z"/>
			</g>
		</g>
		<path class="st13" d="M447.1,248.1H89.6v5.5c0,7.1,5.7,12.8,12.8,12.8h331.9c7.1,0,12.8-5.7,12.8-12.8L447.1,248.1L447.1,248.1z"
			/>
		<path class="st14" d="M314.2,248.1h-91.7v3.3c0,4.3,3.4,7.7,7.7,7.7h76.3c4.3,0,7.7-3.4,7.7-7.7L314.2,248.1L314.2,248.1z"/>
		<g>
			<defs>
				<rect id="SVGID_3_" x="373.4" y="56" width="87.2" height="87.2"/>
			</defs>
			<clipPath id="SVGID_4_">
				<use xlink:href="#SVGID_3_"  style="overflow:visible;"/>
			</clipPath>
			<g class="st15">
				<path class="st16" d="M386,136.1c-0.4,0-0.9-0.2-1.2-0.5c-0.6-0.6-0.5-1.6,0.1-2.1c0,0,0,0,0,0l43.9-40.5
					c0.6-0.6,1.6-0.5,2.2,0.2s0.5,1.6-0.2,2.2L387,135.7C386.8,135.9,386.4,136.1,386,136.1z"/>
				<path class="st16" d="M385.1,126.5c-0.4,0-0.9-0.2-1.2-0.5c-0.6-0.6-0.5-1.6,0.1-2.2c0,0,0,0,0,0l36.7-33.7
					c0.6-0.6,1.6-0.5,2.2,0.2s0.5,1.6-0.2,2.2l-36.7,33.7C385.8,126.4,385.5,126.5,385.1,126.5z"/>
				<path class="st16" d="M382.7,117c-0.8,0-1.5-0.7-1.5-1.5c0-0.4,0.2-0.9,0.5-1.1l26-23c0.6-0.6,1.6-0.5,2.2,0.2s0.5,1.6-0.2,2.2
					l-26,23C383.4,116.8,383.1,117,382.7,117z"/>
				<circle class="st16" cx="378" cy="119" r="1.8"/>
				<circle class="st16" cx="379.9" cy="128.4" r="1.8"/>
				<circle class="st16" cx="381.2" cy="138.4" r="1.8"/>
				<polygon class="st17" points="402.7,81.7 407.3,102.3 461.3,60 				"/>
				<polygon class="st18" points="408.7,84.9 430.7,96.5 461.3,60 				"/>
				<polygon class="st18" points="389.3,74.6 402.7,81.7 461.3,60 				"/>
				<polygon class="st19" points="407.3,102.3 408.7,84.9 421.2,91.4 				"/>
			</g>
		</g>
		<g>
			<polygon class="st20" points="106.2,234.4 106.2,276.6 85.8,265.3 85.8,223 			"/>
			<polygon class="st21" points="144.9,228.8 106.2,234.4 85.8,223 124.4,217.5 			"/>
			<path class="st22" d="M144.9,228.9v31c0,6.2-4.7,11.9-10.5,12.7l-28.3,4v-42.3L144.9,228.9z"/>
		</g>
		<g>
			<polygon class="st21" points="89.3,233 90.8,232.8 93.1,234 91.7,234.3 			"/>
			<polygon class="st23" points="94.3,253.2 95.8,253.1 93.7,258.2 92.2,258.5 			"/>
			<polygon class="st21" points="91.6,234.3 93.1,234 96,246.2 94.5,246.3 			"/>
			<polygon class="st21" points="95.5,250.2 97,250 101,266.3 99.5,266.5 			"/>
			<polygon class="st23" points="98.8,242.1 100.3,241.9 97,250 95.5,250.2 			"/>
			<polygon class="st21" points="96.7,240.9 98.2,240.7 100.3,241.9 98.8,242.1 			"/>
			<polygon class="st5" points="91.7,234.3 94.5,246.3 96.7,240.9 98.8,242.1 95.5,250.2 99.5,266.5 97.2,265.2 94.3,253.2 
				92.2,258.5 90.3,257.4 93.4,249.4 89.3,233 			"/>
		</g>
		<g>
			<path class="st20" d="M136.5,259.5c0.4-1.4-0.1-2.8-1.3-3.6l-1.1-0.6c2.7,1.5,1.4,5.9-1.4,6.5l1.1,0.6
				C135.1,262,136.2,260.9,136.5,259.5z"/>
			<path class="st21" d="M134.1,253.9c0.6,0,1.3,0.2,1.8,0.5c-1.4-1.1-3.4-1.4-5.1-0.6l1.1,0.6C132.7,254,133.4,253.8,134.1,253.9z"
				/>
			<path class="st20" d="M130,254.2l-1.1-0.6c0.8,0.5,1.2,1.3,1.2,2.2c0,0.2,0,0.3,0,0.5l0,0l1.1,0.6c0-0.2,0-0.3,0-0.5
				C131.2,255.5,130.8,254.7,130,254.2z"/>
			<polygon class="st24" points="126.2,257.9 126.3,258 126.2,258 			"/>
			<path class="st21" d="M129.4,252.2c0.4,0,0.8,0.2,1.2,0.3c-0.2-0.1-1.2-0.6-1.3-0.7c-0.7-0.3-1.6-0.4-2.3-0.1l1.1,0.6
				C128.4,252.2,128.9,252.2,129.4,252.2z"/>
			<g>
				<g>
					<defs>
						<path id="SVGID_5_" d="M133.6,250.7l-1.1-0.6c-0.1-0.1-0.2-0.2-0.3-0.4c-0.3-2-1.6-3.7-3.3-4.7l1.1,0.6c1.7,1,2.9,2.7,3.3,4.7
							C133.4,250.4,133.5,250.6,133.6,250.7z"/>
					</defs>
					<clipPath id="SVGID_6_">
						<use xlink:href="#SVGID_5_"  style="overflow:visible;"/>
					</clipPath>
					<g class="st25">
						<path class="st20" d="M133.6,250.7l-1.1-0.6c-0.1-0.1-0.2-0.2-0.3-0.4c-0.3-2-1.6-3.7-3.3-4.7l1.1,0.6c1.7,1,2.9,2.7,3.3,4.7
							C133.4,250.4,133.5,250.6,133.6,250.7"/>
					</g>
				</g>
			</g>
			<path class="st20" d="M136.4,248.6c-0.5-2.7-2.1-5.1-4.5-6.5l-1.1-0.6c2.4,1.4,4.1,3.7,4.5,6.5c0,0.2,0.2,0.4,0.4,0.5l1.1,0.6
				C136.6,249,136.5,248.8,136.4,248.6z"/>
			<g>
				<g>
					<defs>
						<path id="SVGID_7_" d="M129.5,250.2l-1.1-0.6c-0.1-0.1-0.2-0.1-0.2-0.2c-0.3-0.5-0.7-0.9-1.2-1.2l1.1,0.6
							c0.5,0.3,0.9,0.7,1.2,1.2C129.3,250.1,129.4,250.2,129.5,250.2z"/>
					</defs>
					<clipPath id="SVGID_8_">
						<use xlink:href="#SVGID_7_"  style="overflow:visible;"/>
					</clipPath>
					<g class="st26">
						<g>
							<path class="st20" d="M129.5,250.2l-1.1-0.6c-0.1-0.1-0.2-0.1-0.2-0.2c-0.3-0.5-0.7-0.9-1.2-1.2l1.1,0.6
								c0.5,0.3,0.9,0.7,1.2,1.2C129.3,250.1,129.4,250.2,129.5,250.2"/>
						</g>
					</g>
				</g>
			</g>
			<path class="st20" d="M125.1,251.7l-1.1-0.6c1.1,0.7,1.9,1.9,1.9,3.2l1.1,0.6C126.9,253.6,126.2,252.4,125.1,251.7z"/>
			<path class="st21" d="M132.7,261.8h-0.4l-14.8,2.1c-0.1,0-0.3,0-0.4,0h-0.1h-0.3h-0.1l-0.3-0.1l-0.2-0.1l1.1,0.6h0.1h0.1
				c0.1,0,0.2,0.1,0.3,0.1h0.1h0.1h0.3h0.1c0.2,0,0.3,0,0.5,0l14.8-2l0.4-0.1L132.7,261.8z"/>
			<path class="st21" d="M127.1,247.1c0.6,0,1.1,0.2,1.6,0.5c-0.9-0.7-2.1-1.1-3.2-1c-0.7,0-1.3,0.8-0.6,1.3l1.1,0.6
				c-0.3-0.2-0.4-0.6-0.2-0.9c0-0.1,0.1-0.1,0.2-0.2C126.3,247.1,126.7,247.1,127.1,247.1z"/>
			<path class="st5" d="M126.5,247.1c1.6-0.1,3.1,0.7,3.8,2.1c0.1,0.3,0,0.7-0.3,0.9c-0.1,0-0.2,0.1-0.3,0.1c-0.2,0-0.5-0.1-0.5-0.3
				c-0.5-1-1.6-1.6-2.7-1.5c-0.1,0-0.1,0-0.2,0h-0.1c-0.3,0-0.6-0.2-0.6-0.4c0,0,0,0,0,0c0-0.4,0.2-0.7,0.5-0.8L126.5,247.1z"/>
			<path class="st21" d="M127.7,243.2c1.1,0,2.1,0.3,3.1,0.8l-1.1-0.6c-1.4-0.7-2.9-1-4.4-0.8c-1.1,0.2-2.1,0.5-3,1
				c-0.2,0.1-0.3,0.2-0.3,0.4c-0.1,0.3,0,0.7,0.3,0.9l1.1,0.6c-0.3-0.2-0.4-0.7-0.2-1.1c0.1-0.1,0.2-0.2,0.3-0.2
				C124.6,243.5,126.1,243.2,127.7,243.2z"/>
			<path class="st5" d="M126.3,243.3c1.4-0.2,2.8,0,4.1,0.6c2.2,1.1,3.8,3.3,4.1,5.7c0.1,0.4,0.1,0.9-0.3,1.1l-0.4,0.1
				c-0.3,0-0.5-0.1-0.6-0.4c0,0,0,0,0,0c-0.6-3.5-3.9-5.9-7.4-5.4c-0.8,0.1-1.6,0.4-2.3,0.7h-0.2c-0.2,0-0.4-0.2-0.5-0.4
				c-0.1-0.3,0-0.7,0.3-0.9C124.3,243.8,125.3,243.4,126.3,243.3z"/>
			<path class="st5" d="M133.4,253.9c2.4-0.3,4.5,1.3,4.8,3.7c0,0.3,0,0.6,0,0.9c0,2.5-1.5,4.7-3.8,5.6l-17.4,2.5
				c-1.7-0.6-2.8-2.3-2.7-4.1c0-2,1.1-3.9,2.9-4.9c0-0.3-0.1-0.6-0.1-0.9c0-3.4,2.5-6.3,5.8-7c2.1-0.3,4.2,0.8,5.1,2.7
				c0.2-0.1,0.4-0.1,0.6-0.1c1.5-0.2,2.9,0.6,3.4,2.1C132.4,254.1,132.9,254,133.4,253.9z M133.7,262.4c1.7-0.5,2.9-2,2.9-3.8
				c0.1-1.6-1.1-2.9-2.7-3c-0.2,0-0.3,0-0.5,0c-0.9,0.1-1.7,0.6-2.3,1.3c0-0.2,0-0.3,0-0.5c0.1-1.2-0.8-2.3-2.1-2.4
				c-0.2,0-0.3,0-0.5,0c-0.6,0.1-1.2,0.4-1.7,0.9c0-2-1.7-3.6-3.7-3.6c-0.2,0-0.3,0-0.5,0c-2.4,0.5-4.2,2.6-4.2,5.1
				c0,0.8,0.2,1.6,0.6,2.3c-0.2,0-0.4,0-0.7,0c-1.6,0.3-2.7,1.7-2.7,3.3c-0.1,1.3,0.8,2.4,2.1,2.5c0.2,0,0.4,0,0.6,0l14.8-2
				L133.7,262.4"/>
			<path class="st21" d="M117.1,255.8c0.4-4,4.9-7.7,8.8-5.6l-1.1-0.6c-4.5-2.3-9.5,2.8-8.8,7.4c-3.1,1.7-4.1,6.9-0.8,8.7l1.1,0.6
				c-3.3-1.8-2.3-7,0.8-8.7C117.1,257,117.1,256.4,117.1,255.8z"/>
			<path class="st21" d="M128.3,239.3c1.6,0.1,3.1,0.5,4.5,1.2c-1.7-1.1-3.6-1.7-5.6-1.8c-2.1-0.1-4.2,0.4-6,1.5
				c-0.2,0.1-0.4,0.3-0.4,0.6c-0.1,0.4,0,0.8,0.3,1l1.1,0.6c-0.6-0.4-0.3-1.4,0.3-1.7C124.2,239.7,126.2,239.2,128.3,239.3z"/>
			<path class="st5" d="M126.3,239.4c2-0.3,4.1,0,5.9,0.9c3.1,1.5,5.2,4.3,5.8,7.6c0.1,0.5-0.1,1-0.5,1.2c-0.1,0-0.2,0-0.2,0
				c-0.4,0.1-0.8-0.2-0.8-0.6c0,0,0,0,0,0c-0.7-4.8-5.3-8.2-10.1-7.4c-1.2,0.2-2.4,0.6-3.5,1.1c-0.1,0.1-0.2,0.1-0.3,0.1
				c-0.3,0.1-0.7-0.1-0.8-0.5c-0.1-0.5,0.1-1,0.6-1.2C123.6,240,124.9,239.5,126.3,239.4z"/>
		</g>
		<polygon class="st6" points="351.6,231.5 193.4,227.1 190,18.1 297.6,15 326.4,18.1 357.9,46.1 		"/>
		<path class="st27" d="M350.5,227.1H196.8c-1.9,0-3.5-1.6-3.5-3.5V11.5c0-1.9,1.6-3.5,3.5-3.5h114.7c0.7,0,1.5,0.2,2.1,0.7l39,28.7
			c0.9,0.7,1.4,1.7,1.4,2.8v183.4C354,225.6,352.4,227.1,350.5,227.1z"/>
		<polygon class="st8" points="333.8,43.1 203.8,43.2 203.6,18.5 323.5,18.4 		"/>
		<polygon class="st28" points="353.8,38.4 325.4,46.1 313,8 		"/>
		<path class="st29" d="M290.2,75.4h14.1v-0.1l37.7-0.1c1,0.1,1.8-0.6,1.9-1.5c0.1-1-0.6-1.8-1.5-1.9c-0.1,0-0.3,0-0.4,0l-43,0.1
			l0,0h-8.8c-1-0.1-1.8,0.6-1.9,1.5c-0.1,1,0.6,1.8,1.5,1.9C289.9,75.4,290.1,75.4,290.2,75.4L290.2,75.4z"/>
		<path class="st29" d="M342,81.7l-43,0.1v0.1h-8.8c-1-0.1-1.8,0.6-1.9,1.5c-0.1,1,0.6,1.8,1.5,1.9c0.1,0,0.3,0,0.4,0h14.1v-0.1
			l37.7-0.1c1,0.1,1.8-0.6,1.9-1.5c0.1-1-0.6-1.8-1.5-1.9C342.3,81.7,342.1,81.7,342,81.7L342,81.7z"/>
		<path class="st29" d="M319.1,90.7H299v0.1h-9.6c-1,0.2-1.6,1.2-1.3,2.2c0.2,0.7,0.7,1.2,1.3,1.3h14.9v-0.1h14.8
			c1-0.2,1.6-1.2,1.3-2.2C320.3,91.4,319.8,90.9,319.1,90.7z"/>
		<path class="st29" d="M291.1,64.5h13.3l0,0h17.6c1.5-0.1,2.6-1.5,2.5-3c-0.1-1.3-1.2-2.3-2.5-2.5H299v0h-8
			c-1.5,0.1-2.6,1.4-2.5,2.9C288.6,63.3,289.7,64.4,291.1,64.5L291.1,64.5z"/>
		<path class="st0" d="M275.4,172.9c0.1,1-0.6,1.8-1.6,2l-71.4,0.2c-0.9-0.1-1.6-1-1.5-1.9l0,0c-0.1-1,0.6-1.8,1.6-2l71.4-0.2
			C274.8,171,275.5,171.9,275.4,172.9L275.4,172.9z"/>
		<path class="st30" d="M269.6,124.6c0.1,1.4-1,2.6-2.4,2.6c0,0,0,0,0,0l-63.2,0.1c-1.4-0.1-2.5-1.2-2.4-2.6l0,0
			c-0.1-1.4,1-2.6,2.4-2.6l63.2-0.1C268.5,122,269.6,123.2,269.6,124.6z"/>
		<polygon class="st18" points="354,38.4 325.2,39.2 312.7,8 		"/>
		<path class="st31" d="M279.7,75.4h-18v-18h18V75.4z M263,74.2h15.5V58.6H263L263,74.2z"/>
		<polygon class="st31" points="269.9,70.9 264.9,65.9 265.7,65 269.8,69.1 275.7,61.3 276.7,62.1 		"/>
		<path class="st31" d="M279.7,100.4h-18v-18h18V100.4z M263,99.2h15.5V83.6H263L263,99.2z"/>
		<polygon class="st31" points="269.9,96 264.9,91 265.7,90.1 269.8,94.1 275.7,86.4 276.7,87.1 		"/>
		<rect x="203" y="56.1" class="st32" width="48.1" height="53.8"/>
		<path class="st33" d="M246.3,109.8c-0.5-1.7-2.9-3.7-4.7-2.9l0.6-1.3c-1.6,0.9-2.6,2.5-2.7,4.3H246.3z"/>
		<path class="st33" d="M238.7,109.8h7.9l-0.1-0.5c-0.8-2.9-4.8-5.4-6.7-4.4l1,1C239.5,106.9,238.7,108.3,238.7,109.8z"/>
		<path class="st33" d="M242.3,109.8c-0.1-0.3-0.1-0.5-0.2-0.8c-0.6-3.6-4.9-6.3-7.8-5.8c-3,0.5-7-0.9-9.6-0.2c-5,1.3-7,1.1-7.4,3.7
			c-0.1,1-0.2,2-0.2,3L242.3,109.8z"/>
		<path class="st33" d="M221.6,109.8c0.8-2.9,1.4-5.3-0.3-5.4c-2.2-0.2-6.5,2-8,5.4L221.6,109.8z"/>
		<path class="st33" d="M246.3,109.8c-0.5-1.7-2.9-3.7-4.7-2.9l0.6-1.3c-1.6,0.9-2.6,2.5-2.7,4.3H246.3z"/>
		<path class="st33" d="M246.6,109.8l-0.1-0.5c-0.8-2.9-4.8-5.4-6.7-4.4l-0.1,1c-1.2,0.6-1.5,2.1-1.4,3.9H246.6z"/>
		<path class="st34" d="M242.7,109.8c-0.9-3.3-5-5.7-7.8-5.2c-2.8,0.5-7-0.8-9.6-0.1c-5,1.4-7,1.2-7.4,3.8c-0.1,0.5-0.1,1-0.1,1.5
			L242.7,109.8z"/>
		<path class="st34" d="M242.1,109.8c-0.8-3.4-4.9-5.9-7.8-5.5c-2.9,0.5-7-0.9-9.6-0.2c-5,1.3-7,1.1-7.4,3.7
			c-0.1,0.6-0.2,1.3-0.2,1.9H242.1z"/>
		<path class="st33" d="M242.3,109.8c-0.1-0.3-0.1-0.5-0.2-0.8c-0.6-3.6-4.9-6.3-7.8-5.8c-3,0.5-7-0.9-9.6-0.2c-5,1.3-7,1.1-7.4,3.7
			c-0.1,1-0.2,2-0.2,3L242.3,109.8z"/>
		<path class="st34" d="M238.2,109.8c0.4-0.3,0.7-0.7,1-1.2c0.1-1.2,0.1-2.4-0.1-3.6c-0.1-0.8-0.4-1.5-0.9-2.1
			c-0.3,2.3-0.8,4.6-1.5,6.9H238.2z"/>
		<path class="st35" d="M225.4,109.8h12c0.6-3.8,0-7-3-6.6c-2.9,0.4-7-1-9.6-0.2c-1.5,0.5-1.6,1.1-1.5,1.5
			C223.9,106.5,224.6,108.2,225.4,109.8z"/>
		<path class="st34" d="M224.3,109.8h1.7c-1-2.2-1.9-4.4-2.6-6.6c-0.4,0.7-0.6,1.5-0.5,2.2c0,1.2,0.2,2.4,0.5,3.6
			C223.6,109.3,223.9,109.6,224.3,109.8z"/>
		<path class="st36" d="M220.9,109.8c0-0.8-0.2-1.4-0.9-1.4c-1.3,0.1-2.6,0.6-3.6,1.4H220.9z"/>
		<path class="st33" d="M221.6,109.8c0.8-2.9,1.4-5.3-0.3-5.4c-2.2-0.2-6.5,2-8,5.4L221.6,109.8z"/>
		<path class="st37" d="M230.7,109.8L230.7,109.8c1.3-2.6,3.5-4.7,3.5-6.3l-0.1-13.4c0-1.6-2.1-2.9-4.7-2.9c-2.6,0-4.6,1.4-4.6,3
			l0.1,12.3C225,104.2,229.7,108.1,230.7,109.8z"/>
		<polygon class="st36" points="232.9,109.8 235.6,103.9 235.6,102.2 230.6,109.7 230.7,109.8 		"/>
		<polygon class="st36" points="230.8,109.8 230.9,109.7 224.3,101.6 224.3,103.6 228.4,109.8 		"/>
		<polygon class="st35" points="232.6,109.8 235.6,103.4 235.6,101.6 230.6,109.1 231.1,109.8 		"/>
		<path class="st38" d="M225,99.8l-0.1-9.5c0-1.6,2-3,4.6-3c2.5,0,4.6,1.3,4.7,2.9l0.1,12.8C228.7,104.5,225,99.9,225,99.8z"/>
		<path class="st39" d="M218,80.3c-0.1,4.5,0.6,8.9,2.1,13.2c1.2,2.8,6,6.1,8.5,7.3c0.8,0.2,1.7,0.2,2.5,0c2.6-0.2,6.6-6.4,7-8.6
			c0.9-5,1.1-10.1,0.6-15.2c-0.8-7.8-6.6-13.2-12.9-12.3C219.5,65.7,218,71.6,218,80.3z"/>
		<path class="st38" d="M238.8,77c-0.8-7.4-6-12.7-12-12.4c3.8,0.2,9,5.4,9.7,9.9c0.7,5.1,1.3,11.7,0.5,16.9
			c-0.7,4.2-1.3,4.4-3.7,7.6c-0.7,0.6-1.4,1.2-2.1,1.7c2.6-0.2,6.6-6.4,7-8.6C239.1,87.2,239.3,82.1,238.8,77z"/>
		<path class="st38" d="M240.8,80.3c0.2,1.8-0.2,5-1.3,5.2c-1.1,0.2-2.1-1.1-2.3-2.8s0.4-3.3,1.5-3.5
			C239.7,79,240.6,78.6,240.8,80.3z"/>
		<path class="st40" d="M215,66.7c0,3.4,2.8,6.2,6.2,6.2c3.4,0,6.2-2.8,6.2-6.2c0-3.4-2.8-6.2-6.2-6.2C217.8,60.5,215,63.3,215,66.7
			C215,66.7,215,66.7,215,66.7z"/>
		<path class="st40" d="M238.8,85.1c0.1,1-0.4,4.2-0.3,5.2c1-0.7,2.6,11.8,3.6,11c3.2-20.4-2-35.2-4.2-35.8
			c-2.3-1.9-11.2-7.4-20.7,1.5c-2.3,2.2-3.3,10.2-3.6,18.5c2,7.3,4.7,7.5,7.4,8.3c-4.2-7.8,2.5-16.9,6.9-17.4c1.8-0.2,5.1,0,7.1-0.9
			C237.1,78.2,238.4,81.6,238.8,85.1z"/>
		<polygon class="st35" points="230.4,109.8 230.9,109.1 224.3,101.1 224.3,103.4 228.7,109.8 		"/>
		<path class="st0" d="M342,136.5c0,1.1-0.9,2-2,2c0,0,0,0,0,0H203.5c-1.1,0-2-0.9-2-2l0,0c0-1.1,0.9-2,2-2H340
			C341.1,134.5,342,135.4,342,136.5z"/>
		<path class="st0" d="M342,148.1c0,1.1-0.9,2-2,2H203.5c-1.1,0-2-0.9-2-2l0,0c0-1.1,0.9-2,2-2H340C341.1,146.1,342,147,342,148.1
			C342,148.1,342,148.1,342,148.1z"/>
		<path class="st0" d="M342,159.8c0,1.1-0.9,2-2,2c0,0,0,0,0,0H203.5c-1.1,0-2-0.9-2-2l0,0c0-1.1,0.9-2,2-2H340
			C341.1,157.9,342,158.7,342,159.8z"/>
		<path class="st18" d="M338.9,206.3c0,0.2-0.1,0.3-0.3,0.3h-49.9c-0.2,0-0.3-0.1-0.3-0.3l0,0c0-0.2,0.2-0.3,0.3-0.3h49.9
			C338.8,206,338.9,206.1,338.9,206.3L338.9,206.3z"/>
		<path class="st18" d="M292.7,200c2.2-2.1,4.6,0.3,7.2-0.4l-1-0.8c-0.1,2.3,0.5,4.6,3.2,4.4c2.3-0.1,5.3-2.3,7.4-0.7
			c0.4,0.2,0.9,0.1,1.1-0.2c0,0,0,0,0-0.1c0.7-0.9,1.2-2,1.5-3l-1.2,0.5c2.3,1.5,5.3,3.1,8.1,2.6c2.5-0.5,4.5-2.3,5.3-4.7
			c1-2.5,3.2-10.8-1.6-11.1c-4.3-0.3-4.7,7.2-4.1,10c1.3,6.4,9.1,5.9,14,5.3c1-0.1,1-1.8,0-1.6c-3.8,0.5-9.2,1.3-11.6-2.4
			c-1.5-2.3-1.2-7.4,0.8-9.4c1.7-1.6,2.3,1.8,2.3,2.7c-0.1,1.9-0.4,3.7-1,5.4c-0.5,1.9-2,3.5-4,4c-2.5,0.7-5.4-1-7.4-2.3
			c-0.4-0.2-0.9-0.1-1.1,0.3c0,0,0,0.1-0.1,0.2c-0.3,0.9-0.8,1.8-1.3,2.7l1.1-0.3c-1.6-1.2-3.7-0.8-5.4-0.3c-1,0.3-2,0.6-3.1,0.7
			c-1.5,0.1-1.3-1.8-1.3-2.8c0-0.5-0.4-0.8-0.8-0.8c-0.1,0-0.1,0-0.2,0c-1.5,0.4-2.7-0.4-4.2-0.6c-1.4-0.2-2.8,0.4-3.7,1.5
			c-0.8,0.7,0.4,1.9,1.2,1.2L292.7,200z"/>
		<path class="st41" d="M221.7,47.8c-0.4-2.4-1.8-4.6-3.8-6l-16.7-11.7c-5.9-4.1-14-2.7-18.1,3.2c-2,2.8-2.7,6.2-2.2,9.6
			c0.6,3.4,6.9,8.3,9.7,10.3l-0.4-4.4c-2-1.4-5.2-4.2-5.6-6.6c-0.9-5,2.5-9.8,7.5-10.7c2.4-0.4,5,0.1,7,1.5l16.7,11.7
			c2.5,1.8,2.9,5.3,1.1,7.8c-1.8,2.3-5,2.9-7.5,1.3l-16.7-11.7c-0.4-0.3-0.7-0.7-0.8-1.2c-0.1-0.5,0-1,0.3-1.4
			c0.3-0.4,0.7-0.7,1.2-0.8c0.5-0.1,1,0,1.4,0.3l15.1,10.7l2.1-3L197,36.2c-2.6-1.7-6-0.9-7.7,1.7c-1.6,2.4-1,5.7,1.3,7.4L207.2,57
			c4.2,2.9,9.9,1.9,12.9-2.2C221.6,52.8,222.1,50.3,221.7,47.8z"/>
	</g>
</g>
</svg>
