<svg xmlns="http://www.w3.org/2000/svg" viewBox="0 0 531.1 292.65"><defs><style>.cls-1{isolation:isolate;}.cls-2{fill:#d6e6f2;}.cls-3{fill:#77b4d5;}.cls-4{fill:#eaf5f3;}.cls-5{fill:#ced9d7;}.cls-6{fill:#273e54;}.cls-7{fill:#05aaab;}.cls-8{fill:#04b8b5;}.cls-9{fill:#36c6c4;}.cls-10{fill:#9be3e1;}.cls-11{fill:#079b97;}.cls-12,.cls-27{fill:#1c77c3;}.cls-12,.cls-13{fill-rule:evenodd;}.cls-13,.cls-29{fill:#0e3c62;}.cls-14{fill:#a4c9e7;}.cls-15{fill:#334456;}.cls-16{fill:#6588ab;}.cls-17{fill:#bbbfc4;}.cls-17,.cls-47{mix-blend-mode:multiply;}.cls-18{fill:#4c6680;}.cls-19{fill:#a3b8cd;}.cls-20{fill:#ffa47c;}.cls-21{fill:#f0c6bd;}.cls-22{fill:#66aede;}.cls-23{fill:#e9bbb1;}.cls-24{fill:#1a72ad;}.cls-25{fill:#191919;}.cls-26{fill:#ffbd95;}.cls-28{fill:#fc0;}.cls-30{fill:#85bee5;}.cls-31{fill:#f6a71c;}.cls-32{fill:#ed7875;}.cls-33{fill:#a91613;}.cls-34{fill:#e11e19;}.cls-35{fill:#e74b47;}.cls-36{fill:#e5b7a3;}.cls-37{fill:#f0c8b2;}.cls-38{fill:#254e6d;}.cls-39{fill:#eecdb2;}.cls-40{fill:#3b1b1d;}.cls-41{fill:#722c1d;}.cls-42{fill:#cee0ff;}.cls-43{fill:#84a0bc;}.cls-44{fill:#b5ccf9;}.cls-45{fill:#f3a5a3;}.cls-46{fill:#ad7949;}.cls-47{fill:#b9b9bd;}.cls-48{fill:#9d6638;}.cls-49{fill:#c08759;}</style></defs><g class="cls-1"><g id="Layer_1" data-name="Layer 1"><polygon class="cls-2" points="51.83 166.54 183.84 45.43 426.17 138.28 294.16 259.39 51.83 166.54"/><ellipse class="cls-3" cx="418.99" cy="234.8" rx="17.62" ry="2.17"/><path class="cls-4" d="M434.8,206.06c0-1.26,0-3.16-15.81-3.16s-15.81,1.9-15.81,3.16a2.69,2.69,0,0,0,0,.56h0l3.09,21.59a7.42,7.42,0,0,0,7.37,6.58h11a7.42,7.42,0,0,0,7.37-6.58l2.73-21.77c0-.06,0-.12,0-.19A1.34,1.34,0,0,0,434.8,206.06Z"/><ellipse class="cls-5" cx="418.99" cy="205.74" rx="14.15" ry="1.82"/><rect class="cls-6" x="417.6" y="110.53" width="2.77" height="97.04"/><path class="cls-7" d="M449.51,128.86c3,2.24,4.37,4.76.86,6,2.71,2.82,1.6,5.09-2.08,5.64,2.09,3.28,1.86,6.07-2,5.83,1.53,3.69-2.86,3.07-6.34,2.33.55,3.68-2.09,3.2-5.28,2-.26,3.56-.38,6.62-3.42,4.53-.79,3.68-3.52,1.54-6-.84-1.54,3.19-3,4.09-5.07,1.17-2.19,2.92-4,3.66-5.36.31-2.69,2.55-4.61,2.49-5.32-1.13-3.13,2-7,4.32-6.76.3-3.64,1.71-3.08-2.59-2.39-6.27-3.62.74-5.52-.31-4.09-3.85-3.74.09-3.75-2.16-1.78-5.33-3.56-.66-5.79-2.13-3.1-4.92-3.49-1.28-1.87-3.49,1.11-5.73-3-2-4.76-4.24-1.25-5.76-2.7-2.55-.32-4,3.24-4.89-2-2.93-4-6.53-.05-6.56-1.62-3.42,3.12-2.3,6.66-1.88-.61-3.36,1-4,4.38-2.93.1-3.35.24-7.17,3.43-5.23.64-3.53,2.71-1.21,5.46,1,1.32-3,6-6,8-3.07,2.27-3,2.83,1.37,4.23,4.28,2.67-2.1,4.52-4,5.27-.6,3.08-1.78,2.11,2.19,2.42,5.35,3.14-.85,4.89-1.56,4.48,1.74,3.35-.37,7.71-1.44,6.32,1.92,3.69.09,3.24,3.77,1.35,6.63,3.48,1,2.79,2.82.46,5.26C450,125.77,452.53,126.86,449.51,128.86Z"/><path class="cls-8" d="M386.75,131.64c-6.16-2.78-4.56-5.71,3.71-6.07-3.79-3-1.08-2.76,5.58-1.12-2-3.22.23-2.43,5.32.14-.48-3.09,2.07-8.37,5.56-4.12,1.08-4.07,3,.18,5,3.89,2.56-2.63,4.44-.31,4.95,2.83,3.89-1.41,5.74.18,4.84,2.72,5.18-.32,8.95-3.8,6.21-1,6.77.62,7.76,4.3,3.66,5.88,7.61,2.61,10.41,4.63,3.62,5.95,6.16,2.7,2.32,3.53-5.47,3.79,3.31,2.7,1.42,4.87-4.93,3.22,1.7,3.27-.61,6.82-5.39,3.45.15,4.16-2.27,3.68-5.46-.41-1.38,3.9-3.54,1.93-5.23-2.07-2.92,3-5.63,4.77-5.6.44-4.42,2.5-5.29-4.2-4.07-6.8-5.49.33-7.64,0-4.92-2.17-6.78-.89-8.12-2.53-4-4.06C382.53,133.55,380,133.2,386.75,131.64Z"/><path class="cls-9" d="M407.69,141.72c-6.72.71-6.82-2.63.14-7.12-4.77-.64-2.32-1.84,4.25-3.78-3.37-1.76-1-2.21,4.66-2.56-2-2.43-2.44-8.28,2.72-6.37-1.12-4,2.67-1.35,6.31.82.89-3.56,3.67-2.51,5.7-.06,2.64-3.18,5-2.74,5.55-.09,4.31-2.89,5.81-7.8,4.85-4,6.15-2.88,8.87-.21,6.13,3.23,7.89-1.59,11.32-1.26,6.12,3.3,6.69-.77,3.79,1.88-2.8,6,4.21.66,3.68,3.49-2.64,5.28,3.13,2,2.92,6.19-2.9,5.69,2.22,3.51-.11,4.32-4.93,2.4.78,4.07-2.08,3.45-5.55.86-1,4-2.46,7-4.62,3.2-2.55,4.39-6.68-.95-6.94-3.81-4.58,3.05-6.6,3.85-5.35.61-6.3,2.65-8.29,1.91-5.46-1.51C405,145.49,402.61,146.5,407.69,141.72Z"/><path class="cls-7" d="M449.28,132.81c3.68,3,1.68,4.87-3.75,4.21,2,3.47,0,3.26-4.64.95.66,3.37-1.29,6.76-4.7,2.82-.56,3.77-2.13.81-4.37-3.09-1.61,2.6-4.3,4.56-5.15.2-2.9,2-4.13-.85-3.8-4.25-3.72.59-6.16.07-4.52-2.74-4.63-.56-5.15-3.24-2.58-5.12-4.94-1.85-5.76-3.49-2.11-4.78-4.73-2.85-6.39-4.87-1.25-5.69-3.69-3.22-1.12-5.77,4.2-4.76-1.9-3.93.61-2.5,5,.11-.44-3.63,1.16-3.63,4.44-.08.69-3.28,3.15-6.86,5.08-2.12,1.92-3.35,3.25-.23,4.05,3.88,2.95-1.84,3.88,1,3.56,4.21,3.71-.48,7.21-2,5.38,1,4.81.43,4.83,3.47,2.17,5.46,5,1.74,5.44,3.27,1.78,4.68C452.83,130.45,454.41,131.83,449.28,132.81Z"/><path class="cls-7" d="M389,129.08c-6.65-1.14-5.85-4.38,2.07-6.8-4.41-1.92-1.73-2.41,5.12-2.49-2.76-2.61-.39-2.4,5.18-1.19-1.23-2.87-.09-8.63,4.36-5.39,0-4.21,2.94-.57,5.85,2.51,1.82-3.19,4.21-1.41,5.49,1.49,3.41-2.33,5.61-1.26,5.37,1.42,4.94-1.6,7.71-5.92,5.76-2.54,6.71-1.1,8.59,2.21,5,4.78,8,.62,11.23,1.87,5,4.84,6.64,1.07,3.13,2.84-4.34,5,3.87,1.78,2.59,4.35-4,4.36,2.47,2.73,1.12,6.75-4.35,4.68,1.18,4-1.28,4.13-5.4,1-.35,4.13-2.93,2.76-5.57-.69-2.08,3.63-4.26,6-5.32,1.83-3.64,3.53-6.17-2.74-5.64-5.56-5.23,1.69-7.4,1.91-5.31-.87-6.78.84-8.49-.42-4.84-2.94C385.39,132,382.81,132.3,389,129.08Z"/><path class="cls-9" d="M436.58,122.49c6.58,1.54,5.59,4.72-2.46,6.67,4.3,2.17,1.59,2.5-5.26,2.18,2.6,2.77-1.53,4.64-5.24.89,3.27,4.26-.8,10.33-5.3,2.87-.27,4.2-2.33,2.66-5.05-.59-2,3.07-4.29,1.16-5.4-1.82-3.54,2.14-5.67.94-5.28-1.73-.93,4.09-8,5.46-5.9,2.2-6.76.71-8.44-2.71-4.73-5.06-8-1.09-11.1-2.52-4.7-5.13-6.57-1.46-3-3,4.63-4.78-3.76-2-2.33-4.5,4.22-4.12-2.3-2.87-.72-6.8,4.62-4.42-1-4.05,1.52-4.05,5.44-.65.6-4.1,3.09-2.58,5.52,1,2.29-3.5,4.61-5.77,5.42-1.51,3.85-3.31,6,3.09,5.3,5.88,5.33-1.38,7.5-1.48,5.26,1.18,6.82-.44,8.45.91,4.66,3.22C440.36,119.8,443,119.64,436.58,122.49Z"/><path class="cls-9" d="M451.81,123.81c4,2.6,2.21,4.65-3.25,4.6,2.39,3.23.34,3.25-4.5,1.47,1,3.27-.52,6.87-4.36,3.34-.12,3.81-2,1-4.69-2.58,1.31,6.8-5,6-5.09.78-2.65,2.37-4.2-.38-4.25-3.79-3.64,1-6.11.76-4.81-2.21-4.66,0-5.48-2.65-3.14-4.81-5.12-1.28-6.11-2.81-2.64-4.51-5-2.29-6.9-4.11-1.88-5.51-4-2.78-1.76-5.61,3.64-5.2-2.33-3.69.32-2.55,5-.46-.85-3.55.74-3.73,4.39-.58.32-3.33,2.37-7.17,4.81-2.68,1.53-3.55,3.21-.6,4.47,3.4,2.73-2.16,4,.56,4,3.78,3.64-.89,7-2.76,5.46.41,4.83-.11,5.2,2.91,2.78,5.19,5.19,1.16,5.77,2.63,2.3,4.44C455.07,121.06,456.8,122.26,451.81,123.81Z"/><path class="cls-8" d="M442.16,112.66c5,.9,4.08,3.64-1.28,5.84,3.66,2.17,1.67,3-3.79,3.28,2.35,2.78,2.31,6.93-2.89,5.06,1.45,3.77-1.54,1.85-5.64-.6-.13,3.25-1.61,6.46-4.65,2.86-1.63,3.41-4.27,1.36-5.73-1.95-3.13,2.47-5.65,3.26-5.6-.19-4.57,1.89-6.44-.33-5.05-3.4-5.52.85-7.13-.24-4.43-3.32-5.84-.18-8.44-1.19-4.11-4.61-5.08-1.07-4-4.76,1.42-6.59-3.79-2.64-.73-2.63,4.7-2.5-2.3-3.12-.82-4,4.06-2.38-1.06-3.38-.65-8,3.59-4.59,0-4.1,2.89-1.91,5.77,1.48,1.78-3.23,4.1-1.08,5.47,2,3.19-2.37,5.66-5.56,5.51-1.85,4.68-2.09,6.27.71,4.85,3.93,5.55-1,6.72.2,4.07,3.4C444.22,108.63,446.41,109.1,442.16,112.66Z"/><path class="cls-10" d="M442.07,109.31c5.13.71,4.09,3.45-1.53,5.83,3.71,2,1.61,3-4.06,3.39,2.34,2.67,2.16,6.79-3.16,5.12,1.36,3.69-1.67,1.89-5.83-.39-.25,3.22-1.89,6.46-4.91,3-1.81,3.43-4.47,1.5-5.86-1.74-3.34,2.57-6,3.44-5.79,0-4.8,2-6.66-.1-5.11-3.19-5.75,1-7.37,0-4.47-3.14-6,0-8.69-.87-4.09-4.42-5.21-.87-4-4.58,1.71-6.58-3.83-2.49-.66-2.58,5-2.65-2.27-3-.71-3.89,4.28-2.5-1-3.32-.38-7.9,3.89-4.69.19-4.06,3.06-2,5.92,1.27,2-3.27,4.28-1.23,5.59,1.83,3.38-2.46,6.06-5.71,5.77-2,4.92-2.25,6.47.48,4.88,3.72,5.78-1.19,6.95,0,4.09,3.23C444.35,105.24,446.59,105.62,442.07,109.31Z"/><path class="cls-7" d="M148.7,186a11.74,11.74,0,0,0,9.84-.2c3-1.61,4.12-4.58,3.14-7-1.33-3.24-5.44-4.87-9.24-4.5-3.25.32-7.91,2.33-9.62-2.86-1.14-3.41,0-6.62,2.5-6.88a8.78,8.78,0,0,1,3,.48c4.88,1.2,11-.49,12.51-4.22,1.69-4.28-1.36-12.17-6.75-8.87-1.42.87-2.7,2.19-4.13,3-5.62,3.15-8.6-5.14-5.82-7.12.65-.46.93-.47,6.74-2,1.57-.43,3.08-.91,3.82-3,1.19-3.38-1.1-7.38-3.4-8.13-3.37-1.09-5.54,3.33-8.75,3.62s-4.75-4.31-2.89-6c1.15-1.08,3.4-.68,5.29-2,5-3.33,0-14.44-4.16-9-1,1.37-1.84,3.26-3.23,4-2.66,1.37-6.42-2.21-6.88-5.25-.35-2.41.9-1.73,2-1.21A3.8,3.8,0,0,0,138,116.5a5.16,5.16,0,0,0-2.11-5.26c-3.05-1.88-4.64,2.34-7.69.8-1.64-.82-3.69-3.83-2.85-5.91.64-1.62,2.28-1.64,3.28-2.7,1.36-1.44.56-4.5-1.75-5.39-2.66-1-3.3,1.78-4.67,3.13-2.09,2.07-6-.29-5.24-5.61.26-1.89.51-3.47-.36-5.19-2.08-4.07-6.81-3.08-6.23,2.38a10.74,10.74,0,0,0,4.82,7.55c.84.49,2.18,1.58,2,2.65a4.81,4.81,0,0,1-2.39,3.18c-1.4.81-3.06,1-4.4,1.91a6.22,6.22,0,0,0-1.54,2c-2,3.24.5,5,4,3.58,2.26-.9,2.11-2,2.67-2.93s2.61-2.57,4.53-1.23c.63.45,1.36.74,1.56,1.53a4.13,4.13,0,0,1,.09,1.65c-.37,2.39-3.06,2.47-5.34,3.76-4.22,2.42.33,8.55,3.45,5.8,2-1.74,1.82-5.55,3.73-5.19.89.17,2,1.51,2.2,3.36a6.48,6.48,0,0,1-1.19,4.38,4.55,4.55,0,0,1-2.16,2.33c-2.93,1.46-6.71.8-9.27,4-3.09,3.88,1,7.29,4.5,7.61,2.74.26,6.83-1.08,7.51-4.85.09-.5.15-1,.23-1.49.79-4.36,4.62-4.07,5.19,1.76a11.63,11.63,0,0,1-.52,5,8.75,8.75,0,0,1-3.25,4c-4.14,2.65-6.93-.63-9.08,1.49a2.67,2.67,0,0,0-.78,1.64c-.48,4.17,5.46,7.72,9.1,4.26.68-.65,1.3-1.52,2-2.18,3-3,5.2,1.73,5,4.62a5.39,5.39,0,0,1-3,4.52c-3.48,1.51-8.51-1.33-11.31,1.94-3.42,4,3.33,10.76,8.47,7,1-.69,1.79-1.69,2.7-2.5,4.55-4,7,2.76,4,5.42a5.5,5.5,0,0,1-2.64,1.12c-9.22,2-10.3,1.93-11.9,3.28a6.53,6.53,0,0,0-.72,8.63,8.37,8.37,0,0,0,3.93,2.19,14,14,0,0,0,6.54.53,25.47,25.47,0,0,0,5.14-.7C144.18,181.35,144.86,184.18,148.7,186Z"/><path class="cls-11" d="M137.25,200.41c-.48-9.5-.13-18.87-.21-28.13,0-4.62-.19-9.22-.61-13.78l-.16-1.7c0-.29-.06-.57-.1-.85l-.1-.85-.22-1.7-.26-1.68-.13-.84-.07-.42-.08-.43-.31-1.7c-.1-.57-.22-1.13-.33-1.69s-.22-1.14-.34-1.7a150.37,150.37,0,0,0-8-26.4c-.22-.53-.43-1.07-.66-1.59l-.68-1.58c-.23-.53-.47-1.05-.71-1.57s-.47-1-.72-1.56c-1-2-2.08-4-3.23-6-2.32-4-4.89-7.88-7.24-12,2.42,4.08,5.07,7.94,7.47,11.87,1.2,2,2.34,4,3.36,6,.26.51.51,1,.76,1.55s.5,1,.74,1.56l.72,1.58c.24.52.46,1,.69,1.58a151.72,151.72,0,0,1,8.51,26.38c.13.57.25,1.13.37,1.7s.25,1.13.37,1.7l.34,1.7.09.43.07.43.16.85.3,1.7.25,1.71.12.86c0,.28.09.57.11.86l.2,1.72c.51,4.6.76,9.23.88,13.88.26,9.31.1,18.67.76,28Z"/><path class="cls-8" d="M153.88,187c8.93,2.26,13.53-8.31,8.13-12.45-5.27-3.94-10.74.44-14.44.05-4.64-.48-6-8.56-1.41-9,2.42-.2,4.81,3.71,12.78,1.3,1-.32,3.56-1.66,3.62-4.26,0-2.4-2.89-5.25-6.59-5.19-2.39,0-8.89,3-9.39-.74a3.57,3.57,0,0,1,1-2.84c1.4-1.36,2.5-.68,8.4,1a6.09,6.09,0,0,0,3.1.32c3.8-.82,5.09-6.89,2.92-9.33-1.16-1.31-2.88-1.34-4.53-1.19s-5.38.8-6.36-2c-.63-1.77.24-4.37,2.16-4.76,2.15-.44,6,3.32,9.25-1,1.77-2.38,2.24-6.73-.25-7.61s-4.82,2-7.22,1.78-3.81-3.53-3.61-6.11c.09-1.41.86-3.25,1.67-2.93.38.14.74.69,1.07,1.18,1.47,2.17,5.22,2.85,6.73-.58a4.68,4.68,0,0,0,0-4c-1.64-3.13-5.19-.42-7-3.25-1-1.62-1.14-5.08.61-6.36,1.39-1,2.8-.2,4.2-.57a2.83,2.83,0,0,0,1.81-1.71c.92-2.24-.61-4.64-2.31-4.64-1.29,0-2.5.94-3.78,1.23C151.57,104,149.54,100,153,96c1.05-1.21,2.27-2.53,2.44-4.46.19-2.29-1.23-4.61-3.49-4.1-3.42.78-5.3,7.19-2.95,11.57.46.84,1,2.43.33,3.24a4.87,4.87,0,0,1-3.7,1.42,13.21,13.21,0,0,1-2.36-.39c-2.73-.6-3.2-.16-4.73.56-.91.43-2,1.24-2,2.28-.06,2.2,4.15,3.4,5.93,2.6.54-.25.91-.64,1.44-.91,1.13-.6,3.56-.79,4.51,1.28.44,1,1.19,1.78-.24,3.48-.89,1.05-1.86,1.1-4,.75-1.74-.28-5.19-1.1-5.74,2.16-.49,2.7,1.61,6.11,6.19,2.49.94-.73,2.09-1.6,2.93-.86.6.53,1,2.09.14,3.9a6.39,6.39,0,0,1-3.27,3c-1.65.89-2.32,1.38-6.47,0-2-.66-4.1-1.4-6.58-.53-2.75,1-3.5,3.22-2.33,5.76,1.92,4.26,7.39,5.31,10.08,3.63,1.54-.95,1.93-2.62,4-3.42,1.86-.72,2.81.89,2.52,2.83-.91,6.21-8,10.48-13,6.72a12.73,12.73,0,0,0-2.61-1.89c-2.16-.88-4.06,1.09-4,3.72s2.8,6,6.51,5.28c.9-.18,1.89-.58,2.8-.79,2.34-.53,3.33.84,3.11,3.15-.28,3-3.44,6.9-6.16,7.46-4.25.87-7.23-5.22-10.85-1.73-6.36,6.14.37,19.34,6.66,13.33.94-.9,1.76-2.16,2.73-3.13,4.27-4.33,6.94,3.1,4.16,6.22-1.08,1.21-1.64,1-10.27,4.2-2.26.81-3.65,1.57-4.59,3.93a6.19,6.19,0,0,0-.31,3.76c.58,2.26,2.2,3.25,8.6,3.56A41.45,41.45,0,0,0,137,185c3.86-1.24,7.46-2.43,10.44-1.26C149.68,184.65,150.82,186.26,153.88,187Z"/><path class="cls-7" d="M137.16,198.35a23.23,23.23,0,0,0,2.62-11.75,60.43,60.43,0,0,0-.5-6.48c-.27-2.21-.61-4.44-.91-6.73s-.56-4.61-.66-7a39.35,39.35,0,0,1,.31-7.25c0-.3.1-.6.16-.91s.1-.6.16-.91l.21-.9c.08-.3.14-.6.23-.9l.27-.89c0-.15.08-.3.13-.45l.16-.43.32-.88.08-.22.08-.19.15-.39.61-1.57.59-1.57c.41-1,.77-2.1,1.16-3.15a150.23,150.23,0,0,0,6.7-25.94c.09-.55.17-1.1.25-1.65s.17-1.11.23-1.66l.22-1.66c.07-.56.11-1.1.18-1.65.21-2.19.31-4.41.36-6.65.09-4.47,0-9,.16-13.63-.09,4.61.11,9.15.11,13.64,0,2.24-.06,4.47-.23,6.68-.05.55-.09,1.1-.15,1.65l-.18,1.67c0,.56-.13,1.12-.2,1.67s-.13,1.12-.22,1.67a151.1,151.1,0,0,1-6.21,26.21c-.37,1.06-.72,2.13-1.1,3.19l-.56,1.6-.59,1.58-.14.4-.08.2-.07.21-.29.84-.14.42c0,.14-.08.28-.12.43l-.24.85c-.09.28-.14.58-.2.86l-.19.87c0,.29-.09.58-.14.87s-.1.58-.13.88a38,38,0,0,0-.17,7c.14,2.32.44,4.59.78,6.85a114.76,114.76,0,0,1,1.69,13.39c0,.56,0,1.11,0,1.66,0,.28,0,.56,0,.83l0,.83a27.75,27.75,0,0,1-.42,3.28,22.41,22.41,0,0,1-2.14,6.21Z"/><path class="cls-12" d="M116.58,198.82s-2.68,31,12.34,38.7l19.48.12s11.45-1.27,12.64-38.82Z"/><path class="cls-13" d="M116.49,200.29c-.31,6.22-.62,30.5,12.43,37.23l19.48.12a3.07,3.07,0,0,0,.76-.23c-4.15-2.06-5-3.47-7.65-7.24-3.87-5.46-3.72-3.68-14.27-9.52-6.87-3.79-9.65-13.82-10.75-20.36"/><path class="cls-14" d="M346.69,55.52h-9.62a9,9,0,0,0-9,9h0a9,9,0,0,0,9,9h9.62a9,9,0,0,0,9-9h0A9,9,0,0,0,346.69,55.52Z"/><polygon class="cls-14" points="351.75 78.67 351.75 71.87 343.35 71.87 351.75 78.67"/><path class="cls-14" d="M277,31H263a13.1,13.1,0,0,0,0,26.2h14A13.1,13.1,0,0,0,277,31Z"/><polygon class="cls-14" points="255.63 64.6 267.83 54.73 255.63 54.73 255.63 64.6"/><polygon class="cls-15" points="183.11 207.13 146.49 207.13 146.49 233.43 183.11 233.43 185.39 233.43 336.77 233.43 336.77 207.13 185.39 207.13 183.11 207.13"/><path class="cls-16" d="M332.38,134.88H153.3c-7.6,0-13.76,7.83-13.76,17.49v28.81H346.13V152.37C346.13,142.71,340,134.88,332.38,134.88Z"/><polygon class="cls-17" points="153.73 233.43 155.61 233.43 165.55 222.58 326.48 212.95 329.29 233.43 331.95 233.43 331.95 207.13 153.73 207.13 153.73 233.43"/><polygon class="cls-18" points="152.79 173.57 152.19 184.76 337.54 182.29 336.77 153.21 152.79 173.57"/><rect class="cls-19" x="153.73" y="180.31" width="178.22" height="26.82"/><path class="cls-19" d="M146.86,151h-4.47a6.88,6.88,0,0,0-6.87,6.87v81.62h18.21V157.84A6.88,6.88,0,0,0,146.86,151Z"/><path class="cls-19" d="M342.84,151h-4.47a6.88,6.88,0,0,0-6.87,6.87v81.62h18.21V157.84A6.88,6.88,0,0,0,342.84,151Z"/><polygon class="cls-17" points="202 180.31 202 233.43 240.57 233.35 263.9 189.88 210.2 173.14 202 180.31"/><path class="cls-20" d="M261.74,109.08h0a.74.74,0,0,0-.66.81l.32,3.11a.74.74,0,0,0,.8.66h0a.73.73,0,0,0,.66-.8l-.32-3.11A.73.73,0,0,0,261.74,109.08Z"/><path class="cls-21" d="M263.09,108.82h0a.74.74,0,0,0-.66.8l.32,3.11a.74.74,0,0,0,.8.66h0a.74.74,0,0,0,.66-.8l-.32-3.12A.72.72,0,0,0,263.09,108.82Z"/><path class="cls-21" d="M264.42,108.64h0a.74.74,0,0,0-.66.8l.32,3.11a.74.74,0,0,0,.8.66h0a.74.74,0,0,0,.66-.8l-.32-3.12A.73.73,0,0,0,264.42,108.64Z"/><path class="cls-21" d="M265.71,108.59h0a.73.73,0,0,0-.66.8l.32,3.11a.74.74,0,0,0,.8.66h0a.74.74,0,0,0,.66-.8l-.32-3.12A.73.73,0,0,0,265.71,108.59Z"/><path class="cls-20" d="M264.31,110.22c-.91,0-3.24-.34-3.24-.34a22.92,22.92,0,0,0-.29,5,16.09,16.09,0,0,0,.88,3.07l4.21,1.75a50.06,50.06,0,0,0,1.64-5.94,30.86,30.86,0,0,0-1.11-4.8S265.21,110.26,264.31,110.22Z"/><path class="cls-22" d="M248.42,111.11c-3-.3-5.22,3.27-5.27,8s5.28,29.31,6.52,30.28,5.33,1.6,6.22-.44-.28-23.33-1-27.24S252.35,111.49,248.42,111.11Z"/><path class="cls-23" d="M250.92,142.81c-.49,1.48-2,8.07,3.08,7.47,3-.35,5.76-7.49,7.25-12.79s5.59-21.24,5.59-21.24l-4.65-1.49S251.41,141.33,250.92,142.81Z"/><path d="M235.9,209.29s10.76-2,16.47-3.06,27.57-20.68,27.57-20.68l-36.39-10.46Z"/><path class="cls-20" d="M235.61,162.69c-2.09-.69-15.91,5.71-15.17,18.62.17,3,16.22,7.91,27.55,8.72,10.76.78,25.14,3.18,26.13,2.51s4.12-7.91,3.69-9.3S237.71,163.37,235.61,162.69Z"/><path class="cls-23" d="M232.15,222.79a11.55,11.55,0,0,1-4.84,2.29c-1.53.48-3.12,2.25-3.11,3.18.05,2.56,2,3.65,2.59,6.24s-.71,8.56.29,10.24,4.21,4.66,5.07,4.22.06-6,.06-6c1.3-10.75,3.66-14,3.66-14S232.42,222.56,232.15,222.79Z"/><path class="cls-24" d="M231.94,244.72c-.56.13-1.82-1.4-2-1.95a52.71,52.71,0,0,1-2-14.89,7,7,0,0,1,1.43-3.46c-.3-.26-3.35.41-4.51,2.08a6.26,6.26,0,0,0-.69,1.76c0,1.44,1.3,5.18,1.55,6.32.56,2.59-.92,8.37.08,10s5.64,6.22,6.5,5.78c.67-.35.31-4.92-.12-7.47C232.21,242.94,232.33,244.63,231.94,244.72Z"/><path class="cls-25" d="M222.82,230.85a39.54,39.54,0,0,1-3.51,4.77l.63.56s4.66-6,5.81-1.6c.36,1.36-.63-8.37-.63-8.37S223.43,229.71,222.82,230.85Z"/><path class="cls-23" d="M269,182.92c-7.29.31-17.07,9.3-20.29,13.23s-16.78,27.57-18.23,28.73,4.76,4.82,5.42,4c6.53-7.91,27.8-25.38,29.93-27.07s11.68-7.52,13.31-11.16C282.46,183.18,273.14,182.75,269,182.92Z"/><path class="cls-21" d="M251.23,112.49c-1.08-2-7.68-6.93-7.64-7.83S246,92.48,246,92.48l-11-6.3s-1.62,13.38-2.58,13.92c-3,1.68-11,2.3-13.45,5.7-3,4.12,5.77,20.31,5.19,34.64-.28,6.94-9.5,17.94-11.73,24.3s18.66,15.53,19.43,15.66,10.88-4.31,12.56-6.22,1.14-22.08,1.94-26.35,3.49-12.7,4.3-13.34,4-2.69,4.54-5.45c.74-4-4.33-10.78-4.33-12.21S251.77,113.5,251.23,112.49Z"/><path class="cls-26" d="M237.05,166.34c-1.56-.69-18.88-10.84-23.62-4-1.32,1.91-3.45,8.25-2.7,12.38,1.19,6.62,12.36,10.66,23.47,12.94,15,3.07,27.78,6.45,28.83,5.89s3.93-7.42,3.66-8.84S239.06,167.23,237.05,166.34Z"/><polygon class="cls-23" points="235.86 87.01 232.94 94.17 231.07 101.52 245.6 106.9 243.59 104.66 245.69 93.83 235.86 87.01"/><path class="cls-21" d="M256.84,183.84c-6.84,2.53-13,13.63-14.86,18.34s-7.44,31.76-8.45,33.31,5.36,4.21,5.78,3.28c5.38-11.93,19.27-32.3,20.76-34.56s5.15-11.42,7.07-15.66C269.68,182.92,260.75,182.39,256.84,183.84Z"/><path class="cls-26" d="M239.71,238.11s-5.29-5-5.47-4.65a11.74,11.74,0,0,1-3.88,3.67c-1.31.92-2.26,3.09-2,4,.86,2.41,3.09,2.84,4.45,5.12s2,8.34,3.53,9.62,5.48,3.12,6.15,2.44-1.85-5.73-1.85-5.73C238.51,242,239.71,238.11,239.71,238.11Z"/><path class="cls-27" d="M241,254.33c-.5.29-2.18-.78-2.52-1.24a53.12,53.12,0,0,1-6.61-13.51,7.07,7.07,0,0,1,.26-3.73c-.36-.15-3,1.42-3.62,3.36a5.94,5.94,0,0,0-.1,1.89c.48,1.35,2.88,4.51,3.48,5.51,1.36,2.28,1.78,8.23,3.27,9.51s7.34,4.16,8,3.48-1.26-4.76-2.48-7.05C240.69,252.55,241.34,254.12,241,254.33Z"/><path class="cls-27" d="M227.92,244a39.36,39.36,0,0,1-1.82,5.6l.77.34s2.53-7.11,5-3.31c.77,1.19-3.25-7.74-3.25-7.74S228.14,242.71,227.92,244Z"/><path class="cls-28" d="M246.33,164.11c0-.29.06-.76.08-1.35-11.8,4.18-21.52,3.62-31.21-5.72a56.58,56.58,0,0,0-2.71,5.48c-2.71,6.48-3.79,10.1-.47,16.09,2.29,4.15,5,4,5.83,5.39,8.1,12.87,18.05,25.29,18.05,25.29s17.43-17,26.55-22.84c3.79-2.43,17.48-.21,17.49-.9C280,178.73,246.13,166,246.33,164.11Z"/><path class="cls-21" d="M251.46,82.55c.16-.52,1.47-6.16-2.27-9.28-3.26-2.73-12.51-5-16.59,1.31s-1.76,12.14.87,15.73a15.44,15.44,0,0,0,7.7,5.8c.76.31,5,1.8,8.14.38,2-.9,1.87-6.86,2.14-6.84a1.2,1.2,0,0,0,1-1C252.45,87.88,251.3,83.07,251.46,82.55Z"/><path class="cls-29" d="M243.68,70.67c-2.06,1,5,4.89,5,4.89s1.52,2.56,2.3,2.8.83,1.34.83,1.34a4.87,4.87,0,0,0-.3-4.84C249.89,72.36,245.74,69.7,243.68,70.67Z"/><path class="cls-30" d="M252.71,120.69l-.18-6.29-.48-1c-.47-1-8-8.24-8-8.24l5.41,14.36-2.46-.71-15.68-18.06S221,102.58,219.15,105s-2.21,7-2.21,7l10.87,5.59a19.44,19.44,0,0,0-2.84,1.86,30,30,0,0,0-3.17,4s2.33,11.31,2.19,16c-.11,3.69-5,10.75-8.79,17.56,9.69,9.34,19.41,9.9,31.21,5.72.12-3.2.15-10.12.56-14,.49-4.64,2.34-12.76,3.8-14s4.44-3.81,4.79-6.73C255.87,125.5,253.39,121.68,252.71,120.69Z"/><path class="cls-31" d="M220.25,173.84c-4.62-6.19-.93-13.35-.93-13.35l-.1-.09a35.93,35.93,0,0,1-4-3.34h0a57.35,57.35,0,0,0-2.7,5.46c-2.71,6.48-3.79,10.1-.47,16.09,2.29,4.15,5,4,5.83,5.39,8.1,12.87,18.05,25.29,18.05,25.29s4.68-4.56,10.45-9.76l0,0S224.87,180,220.25,173.84Z"/><path class="cls-22" d="M235,130c-7.16-3.63-4.52-17.08-8.1-22-1-1.39-4.49-1.76-7.94-2.71-1.69,2.48-2,6.74-2,6.74l.09,0c.09,2.38,2.22,6.84,4.78,11.37v0s2.33,11.31,2.19,16c-.11,3.69-5,10.75-8.79,17.56,8.59,8.28,17.21,9.66,27.28,6.94a2.8,2.8,0,0,0-.77-2.19c-1.32-1.21-11-4.51-8.7-11s15.85-14.75,15.35-16.4S242.15,133.62,235,130Z"/><path class="cls-14" d="M223.53,104.13c-2.9-.86-5.65,2.4-6.5,7.26s.17,31,1.22,32.22,4.93,2.61,6.15.68,3.69-24,3.69-28.09S227.31,105.23,223.53,104.13Z"/><path class="cls-21" d="M224.49,138.23c-1.5.06-7.94,1-5.58,5.51,1.38,2.65,8.78,2.75,14.05,2.29s21-2.26,21-2.26l-.33-4.87S226,138.17,224.49,138.23Z"/><path class="cls-32" d="M259.78,139c6.48,0,11.74-1.61,11.74-3.59H248C248,137.43,253.29,139,259.78,139Z"/><rect class="cls-33" x="253.49" y="138.52" width="12.57" height="0.51" rx="0.23"/><path class="cls-34" d="M256.85,116.11a.76.76,0,0,0,.75.75h9.65a.76.76,0,0,0,.75-.75V109H256.85Z"/><path class="cls-35" d="M256.85,116.11a.76.76,0,0,0,.75.75h2.27V109h-3Z"/><rect class="cls-33" x="257.64" y="116.81" width="9.57" height="0.99"/><path class="cls-21" d="M262.06,138.9c.21,0,.12-.55-.62-.69s-4.71-.68-5.37-.68-2.43,1.37-2.43,1.37l-.21,4.82s4.37-.33,6.65-.66,6.89-5.7,6.44-5.86S261.85,138.93,262.06,138.9Z"/><path class="cls-29" d="M249.41,76.54c.14.73-2.23,4.36-4.35,4.85s-6.28-.19-7.49.43-3.9,7-4.31,8l.75,1.59s-.63,4-.09,5.21c3.59,8-.21,11.19-.21,11.19s-4.2,1.7-7.32-2.65c-.78-1.1-5.08-1.85-5.08-1.85s.39-.79-2.1-2.3,1.79-5.2,3.6-6.6-.3-3.5-1.6-6.6,4.6-3.39,4.1-6.3c-.36-2.11,2.62-3.53,4.27-4.15,1.61-4.32,6.41-6.42,9.66-6.7C242.83,70.32,248.32,70.55,249.41,76.54Z"/><path class="cls-16" d="M391.79,157.09l-38.2,10.1a20.17,20.17,0,0,0-15,19.49v20.25h54.11l5-44.8A4.69,4.69,0,0,0,391.79,157.09Z"/><path class="cls-36" d="M305.3,98c-.12,1.39,4.25,4.87,5.67,6.23a24.18,24.18,0,0,1,3,4.12l5.62-.74s-3.93-6.65-6.41-9.16S305.42,96.66,305.3,98Z"/><path class="cls-37" d="M308.37,99.31c-1.12-.51.58-3-.21-3.91-.21-.25-1.11.52-1.09.21s.4-1.4-.14-1.92c-.16-.15-1.12.2-1.12.2a5.43,5.43,0,0,0-.09-1.61c-.28-.31-.77-.55-1.07-.15a12.71,12.71,0,0,0-1.38,2.68,11.47,11.47,0,0,1-.47-3c-.14-1.53-1.08-2.07-1.37-2s-.38,2.84-.5,3.31a10.44,10.44,0,0,0,.4,4,4.45,4.45,0,0,0,.83.69c.19.14-.11.58.55,1,.17.1.55.26.72.38s.32.53.53.68.37.12.53.23.43.48.6.61.65.26.87.42a20.86,20.86,0,0,0,4,2.18C310.61,101.61,308.93,99.57,308.37,99.31Z"/><path class="cls-38" d="M317.51,243s-4.4,1.49-11,7.67c-2.61,2.44-10.71,4.31-10.84,5.34s4.41,1.19,6.92,1.2c8.58,0,9.83-1.94,13.19-2.4a83.27,83.27,0,0,1,10.5-.59c1.11,0,2.12-3.62,2-5.34a15.2,15.2,0,0,0-2-6.12C326,242.45,317.51,243,317.51,243Z"/><rect class="cls-29" x="317.99" y="254.24" width="8.61" height="1.63"/><path class="cls-29" d="M377.3,170.52l-19.55,1.27-1.15,3.09S328.48,181.5,323,187c-3.58,3.53-10.4,58.55-10.4,58.55s2.26,2.09,8.1,2.55,7.81,0,7.81,0,8.89-36.6,8.61-41.44,1.57-12.1,1.57-12.1,37.55-1.86,40.12-4.09C393.45,177.76,377.3,170.52,377.3,170.52Z"/><path class="cls-28" d="M356.7,117.16c-4,1.64-24.39,12.79-25.79,14.74s2.48,6.76,4,7.41c2.95,1.26,26.91-8.89,31.3-11.65s7-6.57,3.91-10.83C366.52,111.84,360.7,115.52,356.7,117.16Z"/><path class="cls-39" d="M393.75,118.72c-1.95-3.94-8.62-6.19-10.41-9.38-.56-1-1.88-15.85-1.88-15.85l-12.31,4.8s-.84,13.18-1,14.13-8.31,3.61-9.75,5.53c-.73,1-.6,3.45-.83,4.94a31.77,31.77,0,0,0-.4,14.06c.22,1,1.63,17.09,1.73,21.68s-2.53,22.49-1.13,24.76,10.32,8.85,11.13,8.83,21.15-4.77,19.92-11.76-3.28-22.2-1.81-29.39S396.11,123.49,393.75,118.72Z"/><rect class="cls-29" x="337.05" y="260.9" width="8.61" height="1.68"/><path class="cls-38" d="M336.57,249.31s-4.4,1.54-11,7.92c-2.61,2.52-10.71,4.45-10.84,5.52s4.41,1.23,6.92,1.23c8.58,0,9.83-2,13.19-2.47a79.75,79.75,0,0,1,10.5-.61c1.11,0,2.12-3.74,2-5.52a16.08,16.08,0,0,0-2-6.32C345.09,248.72,336.57,249.31,336.57,249.31Z"/><path class="cls-28" d="M395,121.32a7,7,0,0,0-4.36-6.95,50.54,50.54,0,0,1-7.25-5l-14.1,9-1.05-6s-8.17,1.53-9.27,3.44-2,8.11-2.37,9.64-.41,8.56.32,14.63c.42,3.55.43,8.26,1.1,14.32.58,5.18-.16,18.38-.16,18.38a41.06,41.06,0,0,0,12.86.93c8.88-.62,18.1-2.47,18.5-2.81,1.68-1.44-1.66-10.87-.75-18C388.61,151.37,394.85,124.78,395,121.32Z"/><path class="cls-31" d="M395,121.32a7,7,0,0,0-4.36-6.95l-.32-.17-1.19.32s-7.58-2.07-12.39,23.2c-2.81,14.75-19.41,7.88-19.41,7.88v0c.15,2.57.32,5.47.69,8.83.58,5.18-.16,18.38-.16,18.38a12.52,12.52,0,0,1,2.2.66l13.41.12c7.92-.31,15.39-2.36,15.75-2.66,1.68-1.44-1.66-10.87-.75-18C388.61,151.37,394.85,124.78,395,121.32Z"/><path class="cls-24" d="M357.75,171.79s-1.17,5.33-1.92,6.44c-.91,1.33-24.95,7.5-27.27,15-1.37,4.45,2.55,58.2,2.55,58.2s1.85,2,7.54,1.89a37.52,37.52,0,0,0,8.81-1s1-22.7,1.58-31.28-1-20.87-.51-20.92,9.39-.81,23.73-2.14,15.87-8.24,16.7-14.39a67.29,67.29,0,0,0,.18-13.09Z"/><path class="cls-28" d="M388.23,115.94c-6.05,1.19-5.16,8.32-5.37,12.82s-1.07,28.16.11,30.35,9.63,1.29,10.79,0,3.29-29.35,2.65-34.71S393.4,114.92,388.23,115.94Z"/><polygon class="cls-36" points="380.06 96.38 368.69 105.33 368.59 107.23 379.19 108.93 382.66 106.54 381.49 95.92 380.06 96.38"/><path class="cls-37" d="M366.41,78c-4.18,3.49-2.43,9.3-1.79,10.44.3.53-1.51,5.34-2.42,6.68-.35.51,1.31,1.39,1.6,1.38s-.11,5.37,2,7.44c2.72,2.62,8.55.35,9.4,0a17.07,17.07,0,0,0,8.62-6.45c3-4,5.58-10.66,1.06-17.79S370.06,75,366.41,78Z"/><polygon class="cls-14" points="369.24 118.37 372.56 116.28 369.9 115.31 369.24 118.37"/><path class="cls-28" d="M317.54,103.35l-5.4,3.69s7.79,15.44,11,20.42,10.26,14.85,14.9,11.15,1-8.4,0-9.77S317.54,103.35,317.54,103.35Z"/><polygon class="cls-14" points="367.76 116.58 369.24 118.37 368.92 115.17 367.76 116.58"/><polygon class="cls-40" points="357.25 173.94 389.38 173.65 389.39 170.37 357.75 170.08 357.25 173.94"/><path class="cls-41" d="M360.09,170.08h-1a1.93,1.93,0,1,0,0,3.86h1a1.93,1.93,0,1,0,0-3.86Z"/><polygon class="cls-2" points="369.9 115.31 371.23 119.03 384.67 109.91 382.66 106.54 369.9 115.31"/><polygon class="cls-2" points="366.36 112.61 367.08 117.82 368.92 115.17 368.33 110.7 366.36 112.61"/><path class="cls-36" d="M351.68,174.53s-5.69,3.34-6,4.19-3,3.9-3.07,4.48,2-.13,2.29-.17a61.23,61.23,0,0,1,6.48-1.95c2.51-.47,4.61-.57,6-1.31,3.1-1.63,1.33-6.16,1.33-6.16Z"/><path class="cls-28" d="M383.81,156.7c-1.45.78-27.17,16.71-27.17,16.71l3.05,5.49s16-5.75,21.19-8.25,15.65-8.15,12.51-12.92S385.25,155.92,383.81,156.7Z"/><rect class="cls-42" x="356.52" y="171.68" width="5.67" height="7.81" transform="translate(-40.5 184.62) rotate(-27.34)"/><rect class="cls-31" x="311.75" y="104.21" width="7.81" height="5.67" transform="translate(-3.26 203.93) rotate(-35.63)"/><path class="cls-19" d="M408.76,154.75l-41.87,11.07a22.11,22.11,0,0,0-16.45,21.37v22.19h59.31l5.42-49.1A5.13,5.13,0,0,0,408.76,154.75Z"/><rect class="cls-29" x="372.42" y="206.7" width="10.4" height="52.01"/><path class="cls-29" d="M401,255.79h-44.3a4.85,4.85,0,0,0-4.86,4.85h54A4.85,4.85,0,0,0,401,255.79Z"/><path class="cls-43" d="M366.27,198.55c-14.82-7.56,4-22.62-2-25.67-4.5-2.31-13.86,10.56-13.86,14.31v22.19h59.31l1-9.16C404.06,196.61,373.21,202.09,366.27,198.55Z"/><path class="cls-33" d="M388.61,83.21a5.39,5.39,0,0,0-.59-3.1,5.21,5.21,0,0,0-2.63-2.45,5.13,5.13,0,0,0-2.55-2.77,5.28,5.28,0,0,0-3-.56,6.54,6.54,0,0,0-3.14-1.94c-1.87-.63-3.59-.72-4.59.15-1.32-.71-3.07.13-5.93-1.15-2.13-1-2.46,7.8-1.92,9.46,0,0,0,0,0,0s1,.3,1.56-.07c2.22-.37,6.34-.17,10.8,4.56,1.43,1.51,0,4.59.35,5.15s4.05-1.3,3.81-.62c-2.51,6.89-.53,10.88.09,11s1.87-1,3.08-2.88a15.22,15.22,0,0,0,5.81-9.88C390.27,85.45,389.7,84,388.61,83.21Z"/><path class="cls-37" d="M380.38,87.72c-1.15-.42-2,.14-2.77,2.33s-1.32,5.18-.17,5.61,2.74-1,3.56-3.2S381.53,88.15,380.38,87.72Z"/><path class="cls-34" d="M326,193.65a1.85,1.85,0,1,0,1.85,1.85A1.84,1.84,0,0,0,326,193.65Zm-.27,3a1,1,0,1,1,1-1A1,1,0,0,1,325.74,196.61Z"/><path class="cls-34" d="M314.45,199.54a.76.76,0,0,0,.76.76H325a.76.76,0,0,0,.76-.76v-7.21H314.45Z"/><path class="cls-35" d="M314.45,199.54a.76.76,0,0,0,.76.76h2.3v-8h-3.06Z"/><rect class="cls-44" x="315.25" y="200.25" width="9.73" height="1.01"/><path class="cls-45" d="M320.18,203.45c6.59,0,11.93-1.64,11.93-3.65H308.25C308.25,201.81,313.59,203.45,320.18,203.45Z"/><rect class="cls-33" x="313.79" y="202.93" width="12.78" height="0.52" rx="0.23"/><rect class="cls-46" x="215.8" y="219.89" width="9.4" height="42.84"/><rect class="cls-46" x="322.53" y="219.89" width="9.4" height="42.84"/><polygon class="cls-47" points="215.8 231.54 225.2 227.47 225.2 219.89 215.8 219.71 215.8 231.54"/><rect class="cls-48" x="231.32" y="215.19" width="9.4" height="42.84"/><polygon class="cls-47" points="231.32 230.49 240.72 226.42 240.72 218.84 231.32 218.66 231.32 230.49"/><polygon class="cls-47" points="322.53 231.54 331.93 227.47 331.93 219.89 322.53 219.71 322.53 231.54"/><rect class="cls-48" x="307.26" y="215.19" width="9.4" height="42.84"/><polygon class="cls-47" points="307.26 228.42 316.66 224.35 316.66 216.77 307.26 216.59 307.26 228.42"/><rect class="cls-49" x="207.25" y="203.45" width="133.8" height="16.44" rx="2.85"/></g></g></svg>