<svg xmlns="http://www.w3.org/2000/svg" xmlns:xlink="http://www.w3.org/1999/xlink" viewBox="0 0 531.1 292.65"><defs><style>.cls-1,.cls-7,.cls-9{fill:#fff;}.cls-1{clip-rule:evenodd;}.cls-2{fill:none;}.cls-3{isolation:isolate;}.cls-4{fill:#d6e6f2;}.cls-5{fill:#bec8d2;}.cls-17,.cls-18,.cls-5,.cls-6,.cls-7{fill-rule:evenodd;}.cls-23,.cls-6{fill:#155992;}.cls-8{clip-path:url(#clip-path);}.cls-10,.cls-31{fill:#dfe7f0;}.cls-11{fill:#869cb3;}.cls-12{fill:#c1cedd;}.cls-13{fill:#f2f2f2;}.cls-14{fill:#f1bf2c;}.cls-15{fill:#e32213;}.cls-16{fill:#ccd7e4;}.cls-17,.cls-35{fill:#6588ab;}.cls-18{fill:#dee3e8;}.cls-19{clip-path:url(#clip-path-2);}.cls-20{fill:#a4c9e7;}.cls-21{fill:#77addb;}.cls-22{fill:#1c77c3;}.cls-24{fill:#e95653;}.cls-25{fill:#f08e8c;}.cls-26{fill:#e11e19;}.cls-27{fill:#df1d18;}.cls-28{fill:#dfdfdf;}.cls-29{clip-path:url(#clip-path-3);}.cls-30{clip-path:url(#clip-path-4);}.cls-31,.cls-41{mix-blend-mode:multiply;}.cls-32{fill:#f3faff;}.cls-33{fill:#c8dff1;}.cls-34{fill:#b6d4ec;}.cls-36{fill:#04b8b5;}.cls-37{fill:#e9f5ff;}.cls-38{fill:#cfc0b4;}.cls-39{fill:#9b938e;}.cls-40{fill:#f4efea;}.cls-41,.cls-43{fill:#c6bfb9;}.cls-42{fill:#fdc9a3;}.cls-44{fill:#e5a67c;}.cls-45{fill:#f0c6bd;}.cls-46{fill:#ffc55e;}.cls-47{fill:#66aede;}</style><clipPath id="clip-path"><polygon class="cls-1" points="398.22 81.86 161.77 81.86 161.77 223.73 398.22 223.73 398.22 81.86 398.22 81.86"/></clipPath><clipPath id="clip-path-2"><rect class="cls-2" x="370.3" y="66.31" width="75" height="75"/></clipPath><clipPath id="clip-path-3"><path class="cls-2" d="M164.12,233.73l-.93-.5a.47.47,0,0,1-.23-.34,5.71,5.71,0,0,0-2.83-4l.93.5a5.73,5.73,0,0,1,2.83,4A.45.45,0,0,0,164.12,233.73Z"/></clipPath><clipPath id="clip-path-4"><path class="cls-2" d="M160.59,233.34l-.93-.5a.48.48,0,0,1-.19-.21,2.42,2.42,0,0,0-1-1l.92.5a2.42,2.42,0,0,1,1,1A.45.45,0,0,0,160.59,233.34Z"/></clipPath></defs><g class="cls-3"><g id="Layer_1" data-name="Layer 1"><polygon class="cls-4" points="496.33 90.07 354.71 260.05 66.76 206.31 208.38 36.32 496.33 90.07"/><path class="cls-5" d="M406.32,80.32a8,8,0,0,0-8-8h-238a8,8,0,0,0-8,8V232.11h254V80.32Z"/><path class="cls-6" d="M404.64,81.79a7.88,7.88,0,0,0-7.88-7.88h-235a7.88,7.88,0,0,0-7.88,7.88V231.54H404.64V81.79Z"/><polygon class="cls-7" points="398.22 81.86 161.77 81.86 161.77 223.73 398.22 223.73 398.22 81.86 398.22 81.86"/><g class="cls-8"><path class="cls-9" d="M162.9,225.07a2.38,2.38,0,0,1-2.58-2.1V91c0-.42.12-.92.47-.92h.29a1,1,0,0,0,.75-.64l1.75-3.93a1.66,1.66,0,0,1,1.46-.83h27.83a1.66,1.66,0,0,1,1.46.83l1.75,3.93a1.34,1.34,0,0,0,1.12.64H396.61a1,1,0,0,1,1.14.92V223a2.38,2.38,0,0,1-2.59,2.1Z"/><path class="cls-10" d="M192.87,84.79a1.49,1.49,0,0,1,1.29.74l1.75,3.93a1.5,1.5,0,0,0,1.29.73H396.61a.88.88,0,0,1,1,.78V223a2.22,2.22,0,0,1-2.41,1.95H162.9a2.21,2.21,0,0,1-2.4-1.95V91c0-.43.13-.78.29-.78h.29a1.2,1.2,0,0,0,.92-.73l1.75-3.93a1.49,1.49,0,0,1,1.29-.74h27.83m0-.29H165a1.86,1.86,0,0,0-1.63.93l-1.75,3.93a.91.91,0,0,1-.58.54h-.29c-.61,0-.65.82-.65,1.07V223a2.55,2.55,0,0,0,2.76,2.25H395.16a2.55,2.55,0,0,0,2.77-2.25V91a1.21,1.21,0,0,0-1.32-1.07H197.2a1.13,1.13,0,0,1-.95-.54l-1.75-3.93a1.86,1.86,0,0,0-1.63-.93Z"/><path class="cls-11" d="M191.38,87.68l.74-.6a.25.25,0,0,0,0-.41.39.39,0,0,0-.5,0l-.75.6-.74-.6a.41.41,0,0,0-.51,0,.25.25,0,0,0,0,.41l.75.6-.75.61a.25.25,0,0,0,0,.41.45.45,0,0,0,.26.08.44.44,0,0,0,.25-.08l.74-.61.75.61a.43.43,0,0,0,.5,0,.25.25,0,0,0,0-.41Z"/><rect class="cls-12" x="160.43" y="91.04" width="237.31" height="12.1"/><path class="cls-13" d="M203.09,100.23a1.42,1.42,0,0,1-1.57-1.2V95.16A1.42,1.42,0,0,1,203.09,94H392.38A1.43,1.43,0,0,1,394,95.16V99a1.43,1.43,0,0,1-1.57,1.2Z"/><path class="cls-10" d="M392.38,94.05a1.31,1.31,0,0,1,1.44,1.11V99a1.31,1.31,0,0,1-1.44,1.1H203.09a1.31,1.31,0,0,1-1.44-1.1V95.16a1.31,1.31,0,0,1,1.44-1.11H392.38m0-.2H203.09a1.55,1.55,0,0,0-1.7,1.31V99a1.54,1.54,0,0,0,1.7,1.3H392.38a1.55,1.55,0,0,0,1.7-1.3V95.16a1.55,1.55,0,0,0-1.7-1.31Z"/><path class="cls-14" d="M389.42,95.21c.11-.22.29-.22.4,0l.33.68a.92.92,0,0,0,.64.46l.74.11c.24,0,.29.21.12.38l-.54.52a1,1,0,0,0-.24.76l.13.74c0,.24-.11.35-.32.23l-.67-.35a1,1,0,0,0-.78,0l-.67.35c-.21.12-.36,0-.31-.23l.12-.74a1,1,0,0,0-.24-.76l-.54-.52c-.17-.17-.12-.34.12-.38l.75-.11a.92.92,0,0,0,.63-.46Z"/><path class="cls-14" d="M389.42,95.21c.11-.22.29-.22.4,0l.33.68a.92.92,0,0,0,.64.46l.74.11c.24,0,.29.21.12.38l-.54.52a1,1,0,0,0-.24.76l.13.74c0,.24-.11.35-.32.23l-.67-.35a1,1,0,0,0-.78,0l-.67.35c-.21.12-.36,0-.31-.23l.12-.74a1,1,0,0,0-.24-.76l-.54-.52c-.17-.17-.12-.34.12-.38l.75-.11a.92.92,0,0,0,.63-.46Z"/><path class="cls-11" d="M166.93,96.5c-.11,0-.14-.06-.06-.14l.5-.5.39-.4a.86.86,0,0,0,.25-.34.59.59,0,0,0-1-.59l-.52.52L165,96.61a.92.92,0,0,0-.17.22.59.59,0,0,0,.11.68l.44.45,1.6,1.6a.85.85,0,0,0,.17.16.58.58,0,0,0,.87-.21.59.59,0,0,0-.11-.69l-.27-.27-.72-.73c-.08-.07-.05-.14.06-.14h2.95a.75.75,0,0,0,.56-.15.6.6,0,0,0,.15-.65.58.58,0,0,0-.55-.38Z"/><path class="cls-11" d="M180.89,96.5c.11,0,.14-.06.06-.14l-.5-.5-.39-.4a.86.86,0,0,1-.25-.34.59.59,0,0,1,.36-.74.58.58,0,0,1,.62.15l.53.52,1.55,1.56a.92.92,0,0,1,.17.22.61.61,0,0,1-.11.68l-.45.45-1.59,1.6a1.25,1.25,0,0,1-.17.16.59.59,0,0,1-.88-.21.61.61,0,0,1,.12-.69l.27-.27.72-.73c.08-.07.05-.14-.06-.14h-2.95a.74.74,0,0,1-.56-.15.58.58,0,0,1-.15-.65.57.57,0,0,1,.55-.38Z"/><path class="cls-11" d="M194.62,96.87l.54-1.79-.73.4a2.72,2.72,0,1,0-2.19,4.34,2.68,2.68,0,0,0,2-.83.5.5,0,1,0-.71-.69,1.69,1.69,0,0,1-1.25.54,1.75,1.75,0,0,1,0-3.5,1.72,1.72,0,0,1,1.31.6l-.71.38Z"/><path class="cls-15" d="M177.38,117a1.26,1.26,0,0,1-1.13,1.09h-.91V109h2Z"/><path class="cls-15" d="M180.24,109m-.44,0h2.62a3.4,3.4,0,0,1,2.22.62,2.1,2.1,0,0,1,.74,1.7,2.14,2.14,0,0,1-.33,1.24,2.11,2.11,0,0,1-.88.71v0a2,2,0,0,1,1.53,2.14,2.92,2.92,0,0,1-.19,1.1,2.09,2.09,0,0,1-.58.83,2.56,2.56,0,0,1-1,.52,5.15,5.15,0,0,1-1.46.18h-3.72v-8A1.36,1.36,0,0,1,179.8,109Zm3.87,6.27a1.07,1.07,0,0,0-.28-.82,1.39,1.39,0,0,0-.94-.25H180.7v2.19h1.8a1.42,1.42,0,0,0,.89-.23A1.15,1.15,0,0,0,183.67,115.26Zm-.22-3.59a.93.93,0,0,0-.26-.75,1.29,1.29,0,0,0-.83-.22h-1.64v2h1.69a1.16,1.16,0,0,0,.79-.23A1.06,1.06,0,0,0,183.45,111.67Z"/><path class="cls-15" d="M172.63,110.74c-2.52-.37-3.13.49-3.13,2.79s.62,3.06,3.34,2.77c.85-.08,1.06.19,1.22,1.53a7.89,7.89,0,0,1-2.52.35,4.24,4.24,0,0,1-3.16-1.15,5.34,5.34,0,0,1-1-3.57c0-3.25,1.46-4.58,4.29-4.58a6.13,6.13,0,0,1,2.32.42C173.76,110.77,173.51,110.87,172.63,110.74Z"/><path class="cls-15" d="M190.74,114.18a2.29,2.29,0,0,0,1.68-1.66v-5.68h-5.21v7.34Z"/><rect class="cls-16" x="268.67" y="112.93" width="26.37" height="2.52" rx="1.26"/><rect class="cls-16" x="197.58" y="207.27" width="26.37" height="2.52" rx="1.26"/><rect class="cls-16" x="242.91" y="207.46" width="26.37" height="2.52" rx="1.26"/><rect class="cls-16" x="289.8" y="208.43" width="26.37" height="2.52" rx="1.26"/><rect class="cls-16" x="336.3" y="209.2" width="26.37" height="2.52" rx="1.26"/><rect class="cls-16" x="229.34" y="164.28" width="115.88" height="2.52" rx="1.26"/><rect class="cls-16" x="299.09" y="112.93" width="26.37" height="2.52" rx="1.26"/><rect class="cls-16" x="330.47" y="112.93" width="26.37" height="2.52" rx="1.26"/><rect class="cls-16" x="359.92" y="112.93" width="26.37" height="2.52" rx="1.26"/><rect class="cls-10" x="160" y="122.7" width="237.93" height="34.87"/><rect class="cls-10" x="199.52" y="184.89" width="21.31" height="17.05" rx="4"/><rect class="cls-10" x="245.96" y="184.89" width="21.31" height="17.05" rx="4"/><rect class="cls-10" x="292.39" y="184.89" width="21.31" height="17.05" rx="4"/><rect class="cls-10" x="338.82" y="184.89" width="21.31" height="17.05" rx="4"/></g><path class="cls-17" d="M433.69,231.51H126.3v4.73a11,11,0,0,0,11,11H422.66a11,11,0,0,0,11-11v-4.73Z"/><path class="cls-18" d="M319.41,231.51H240.59v2.83a6.62,6.62,0,0,0,6.62,6.62h65.58a6.62,6.62,0,0,0,6.62-6.62v-2.83Z"/><g class="cls-19"><path class="cls-20" d="M381.15,135.19a1.35,1.35,0,0,1-1-.45,1.3,1.3,0,0,1,.12-1.85L418,98.05a1.31,1.31,0,1,1,1.74,2L382,134.86A1.29,1.29,0,0,1,381.15,135.19Z"/><path class="cls-20" d="M380.36,126.94a1.27,1.27,0,0,1-1-.44,1.31,1.31,0,0,1,.11-1.85l31.58-28.94a1.31,1.31,0,1,1,1.73,2l-31.57,29A1.3,1.3,0,0,1,380.36,126.94Z"/><path class="cls-20" d="M378.27,118.77a1.32,1.32,0,0,1-.89-2.3l22.39-19.76a1.31,1.31,0,1,1,1.74,2l-22.39,19.76A1.37,1.37,0,0,1,378.27,118.77Z"/><circle class="cls-20" cx="374.25" cy="120.52" r="1.52"/><circle class="cls-20" cx="375.84" cy="128.59" r="1.52"/><circle class="cls-20" cx="376.97" cy="137.22" r="1.52"/><polygon class="cls-21" points="395.49 88.47 399.45 106.14 445.88 69.82 395.49 88.47"/><polygon class="cls-22" points="400.65 91.19 419.55 101.17 445.88 69.82 400.65 91.19"/><polygon class="cls-22" points="383.98 82.38 395.49 88.47 445.88 69.82 383.98 82.38"/><polygon class="cls-23" points="399.45 106.14 400.65 91.19 411.35 96.83 399.45 106.14"/></g><g class="cls-3"><polygon class="cls-24" points="140.53 219.7 140.53 256.06 122.97 246.32 122.97 209.96 140.53 219.7"/><polygon class="cls-25" points="173.8 214.96 140.53 219.7 122.97 209.96 156.17 205.22 173.8 214.96"/><path class="cls-26" d="M173.8,215v26.69c0,5.34-4.08,10.23-9,10.93l-24.31,3.48V219.7Z"/></g><g class="cls-3"><polygon class="cls-25" points="126.03 218.51 127.32 218.36 129.26 219.41 128.07 219.62 126.03 218.51"/><polygon class="cls-27" points="130.31 235.94 131.59 235.79 129.83 240.23 128.53 240.43 130.31 235.94"/><polygon class="cls-25" points="127.98 219.63 129.26 219.41 131.8 229.87 130.52 230.01 127.98 219.63"/><polygon class="cls-25" points="131.33 233.34 132.61 233.19 136.03 247.15 134.82 247.34 131.33 233.34"/><polygon class="cls-27" points="134.19 226.34 135.47 226.19 132.61 233.19 131.33 233.34 134.19 226.34"/><polygon class="cls-25" points="132.35 225.32 133.63 225.16 135.47 226.19 134.19 226.34 132.35 225.32"/><polygon class="cls-9" points="128.07 219.62 130.52 230.01 132.35 225.32 134.19 226.34 131.33 233.34 134.82 247.34 132.83 246.25 130.31 235.94 128.53 240.43 126.83 239.48 129.5 232.64 126.03 218.51 128.07 219.62"/></g><g class="cls-3"><path class="cls-24" d="M166.59,241.3a2.7,2.7,0,0,0-1.16-3.08l-.93-.5c2.3,1.28,1.2,5.06-1.22,5.6l.93.5A3.35,3.35,0,0,0,166.59,241.3Z"/><path class="cls-25" d="M164.56,236.48a3.52,3.52,0,0,1,1.59.42,4.26,4.26,0,0,0-4.35-.54l.93.5A4.12,4.12,0,0,1,164.56,236.48Z"/><path class="cls-24" d="M161,236.8l-.93-.5a2.05,2.05,0,0,1,1,1.86,2.12,2.12,0,0,1,0,.44h0l.93.51a3.42,3.42,0,0,0,0-.45A2.08,2.08,0,0,0,161,236.8Z"/><polygon class="cls-28" points="157.76 239.99 157.78 240.03 157.74 240.03 157.76 239.99"/><path class="cls-25" d="M160.48,235.06a3,3,0,0,1,1,.29c-.15-.07-1-.55-1.12-.58a2.74,2.74,0,0,0-2-.08l.92.5A2.84,2.84,0,0,1,160.48,235.06Z"/><g class="cls-3"><g class="cls-29"><path class="cls-24" d="M164.12,233.73l-.93-.5a.47.47,0,0,1-.23-.34,5.71,5.71,0,0,0-2.83-4l.93.5a5.73,5.73,0,0,1,2.83,4,.45.45,0,0,0,.23.33"/></g></g><path class="cls-24" d="M166.53,231.93a7.91,7.91,0,0,0-3.91-5.55l-.93-.51a8,8,0,0,1,3.91,5.56.62.62,0,0,0,.32.45l.92.51A.68.68,0,0,1,166.53,231.93Z"/><g class="cls-3"><g class="cls-30"><g class="cls-3"><path class="cls-24" d="M160.59,233.34l-.93-.5a.48.48,0,0,1-.19-.21,2.42,2.42,0,0,0-1-1l.92.5a2.42,2.42,0,0,1,1,1,.45.45,0,0,0,.2.21"/></g></g></g><path class="cls-24" d="M156.76,234.65l-.92-.51a3.29,3.29,0,0,1,1.65,2.74l.93.51A3.31,3.31,0,0,0,156.76,234.65Z"/><path class="cls-25" d="M163.28,243.32l-.32,0-12.7,1.77a2.48,2.48,0,0,1-.38,0h-.12l-.25,0-.12,0-.23-.09-.15-.06.93.5.07,0,.07,0a1.17,1.17,0,0,0,.24.09l.06,0h.06l.25,0h.11a2.55,2.55,0,0,0,.39,0l12.7-1.76.32-.05Z"/><path class="cls-25" d="M158.55,230.67a3.2,3.2,0,0,1,1.35.4,4.44,4.44,0,0,0-2.79-.88c-.6,0-1.08.72-.52,1.11l.93.51a.58.58,0,0,1,0-.95A1.78,1.78,0,0,1,158.55,230.67Z"/><path class="cls-9" d="M158,230.69a3.36,3.36,0,0,1,3.29,1.84.66.66,0,0,1-.25.78.65.65,0,0,1-.22.08.44.44,0,0,1-.47-.26,2.48,2.48,0,0,0-2.35-1.32,1.08,1.08,0,0,0-.19,0l-.06,0a.45.45,0,0,1-.51-.42.65.65,0,0,1,.45-.68Z"/><path class="cls-25" d="M159,227.3a6.07,6.07,0,0,1,2.64.7l-.93-.5a6.21,6.21,0,0,0-3.81-.65,8.08,8.08,0,0,0-2.61.89.63.63,0,0,0-.29.33.67.67,0,0,0,.25.79l.92.5a.66.66,0,0,1,.05-1.12A7.4,7.4,0,0,1,159,227.3Z"/><path class="cls-9" d="M157.86,227.36a6.18,6.18,0,0,1,3.53.5,6.66,6.66,0,0,1,3.56,4.92c.05.32.11.76-.23.92l-.32.08a.44.44,0,0,1-.51-.38,5.66,5.66,0,0,0-6.34-4.67,6.34,6.34,0,0,0-2,.63l-.14,0A.47.47,0,0,1,155,229a.64.64,0,0,1,.3-.78A7.61,7.61,0,0,1,157.86,227.36Z"/><path class="cls-9" d="M163.9,236.51a3.7,3.7,0,0,1,4.19,3.91,5.31,5.31,0,0,1-3.28,4.85l-15,2.11a3.54,3.54,0,0,1-2.36-3.5,5,5,0,0,1,2.46-4.21,6.49,6.49,0,0,1-.05-.77,6.15,6.15,0,0,1,5-6,4.18,4.18,0,0,1,4.42,2.32,3.37,3.37,0,0,1,.53-.12,2.63,2.63,0,0,1,2.91,1.79A4.38,4.38,0,0,1,163.9,236.51Zm.31,7.31a3.44,3.44,0,0,0,2.49-3.28A2.42,2.42,0,0,0,164,238a3.08,3.08,0,0,0-1.94,1.14,3.42,3.42,0,0,0,0-.45,1.94,1.94,0,0,0-2.2-2.06,2.44,2.44,0,0,0-1.44.79,3.15,3.15,0,0,0-3.58-3.08,4.45,4.45,0,0,0-3.6,4.37,3.57,3.57,0,0,0,.53,2,2.71,2.71,0,0,0-.57,0,2.88,2.88,0,0,0-2.33,2.83,2,2,0,0,0,2.32,2.16l12.7-1.76.32-.05"/><path class="cls-25" d="M149.94,238.18c.33-3.45,4.24-6.62,7.58-4.85l-.93-.5c-3.91-2-8.21,2.37-7.57,6.34-2.69,1.43-3.52,5.9-.67,7.46l.92.51c-2.84-1.55-2-6,.67-7.47A5.72,5.72,0,0,1,149.94,238.18Z"/><path class="cls-25" d="M159.51,223.94A9,9,0,0,1,163.4,225a9.91,9.91,0,0,0-4.82-1.57,10.12,10.12,0,0,0-5.19,1.25,1,1,0,0,0-.38.48.72.72,0,0,0,.27.86l.92.51c-.54-.33-.29-1.2.24-1.42A10.42,10.42,0,0,1,159.51,223.94Z"/><path class="cls-9" d="M157.84,224a8.85,8.85,0,0,1,5.09.76,9.05,9.05,0,0,1,5,6.57.88.88,0,0,1-.47,1.05.84.84,0,0,1-.2,0,.61.61,0,0,1-.71-.52,7.63,7.63,0,0,0-8.68-6.38,9.76,9.76,0,0,0-3,.95.84.84,0,0,1-.29.1.57.57,0,0,1-.66-.42.91.91,0,0,1,.51-1.06A11,11,0,0,1,157.84,224Z"/></g><polygon class="cls-31" points="351.52 217.24 215.48 213.48 212.62 33.77 305.1 31.14 329.83 33.77 356.95 57.84 351.52 217.24"/><path class="cls-32" d="M350.59,213.48H218.48a3,3,0,0,1-3-3V28.08a3,3,0,0,1,3-3h98.59a3,3,0,0,1,1.78.58l33.51,24.69a3,3,0,0,1,1.22,2.42V210.49A3,3,0,0,1,350.59,213.48Z"/><polygon class="cls-12" points="336.22 55.23 224.43 55.36 224.31 34.1 327.4 34.03 336.22 55.23"/><polygon class="cls-33" points="353.45 51.22 329.03 57.84 318.31 25.09 353.45 51.22"/><path class="cls-34" d="M298.75,83.05l12.13,0V83l32.38-.08a1.51,1.51,0,1,0,0-3l-36.94.08V80l-7.57,0a1.51,1.51,0,1,0,0,3Z"/><path class="cls-34" d="M343.3,88.46l-37,.09v.07l-7.54,0a1.51,1.51,0,1,0,0,3l12.09,0v-.07l32.42-.07a1.51,1.51,0,1,0,0-3Z"/><path class="cls-34" d="M323.62,96.21l-17.3,0v.07l-8.24,0a1.54,1.54,0,0,0,0,3l12.8,0v-.07l12.74,0a1.54,1.54,0,0,0,0-3Z"/><path class="cls-34" d="M299.48,73.67h11.4v0l15.09,0a2.34,2.34,0,0,0,0-4.66l-19.65,0V69h-6.84a2.33,2.33,0,0,0,0,4.65Z"/><path class="cls-4" d="M286,166.84a1.54,1.54,0,0,1-1.34,1.68l-61.35.15A1.54,1.54,0,0,1,222,167h0a1.55,1.55,0,0,1,1.34-1.69l61.35-.14a1.54,1.54,0,0,1,1.35,1.68Z"/><path class="cls-35" d="M281,125.34a2.18,2.18,0,0,1-2.09,2.27l-54.31.09a2.19,2.19,0,0,1-2.09-2.27h0a2.18,2.18,0,0,1,2.09-2.26l54.31-.09a2.18,2.18,0,0,1,2.09,2.26Z"/><polygon class="cls-22" points="353.58 51.26 328.83 51.91 318.05 25.09 353.58 51.26"/><path class="cls-36" d="M289.74,83H274.3V67.51h15.44Zm-14.39-1H288.7V68.56H275.35Z"/><polygon class="cls-36" points="281.27 79.15 276.97 74.85 277.7 74.12 281.17 77.58 286.3 70.94 287.13 71.58 281.27 79.15"/><path class="cls-36" d="M289.74,104.51H274.3V89.07h15.44Zm-14.39-1H288.7V90.11H275.35Z"/><polygon class="cls-36" points="281.27 100.71 276.97 96.41 277.7 95.67 281.17 99.14 286.3 92.5 287.13 93.13 281.27 100.71"/><rect class="cls-37" x="223.73" y="66.4" width="41.36" height="46.24"/><path class="cls-38" d="M261,112.65c-.44-1.44-2.52-3.15-4.06-2.53l.49-1.14a4.58,4.58,0,0,0-2.3,3.67Z"/><path class="cls-38" d="M254.44,112.65h6.78l-.05-.4c-.67-2.47-4.17-4.61-5.73-3.75l.83.83A4.25,4.25,0,0,0,254.44,112.65Z"/><path class="cls-38" d="M257.55,112.65c-.05-.22-.09-.43-.13-.66-.51-3.08-4.19-5.41-6.74-5s-6-.78-8.27-.17c-4.33,1.15-6.06.92-6.39,3.2a16.5,16.5,0,0,0-.17,2.61Z"/><path class="cls-38" d="M239.77,112.65c.69-2.49,1.19-4.52-.22-4.66-1.85-.19-5.55,1.68-6.85,4.66Z"/><path class="cls-38" d="M261,112.65c-.44-1.44-2.52-3.15-4.06-2.53l.49-1.14a4.58,4.58,0,0,0-2.3,3.67Z"/><path class="cls-38" d="M261.22,112.65l-.05-.4c-.67-2.47-4.17-4.61-5.73-3.75l-.12.83c-1,.54-1.27,1.82-1.17,3.32Z"/><path class="cls-39" d="M257.92,112.65c-.79-2.87-4.28-4.94-6.71-4.49s-6-.7-8.28-.06c-4.31,1.2-6,1-6.34,3.29q-.08.6-.12,1.26Z"/><path class="cls-39" d="M257.36,112.65c-.69-2.94-4.21-5.1-6.68-4.69s-6-.78-8.27-.17c-4.33,1.15-6.06.93-6.39,3.2a15.74,15.74,0,0,0-.15,1.66Z"/><path class="cls-38" d="M257.55,112.65c-.05-.22-.09-.43-.13-.66-.51-3.08-4.19-5.41-6.74-5s-6-.78-8.27-.17c-4.33,1.15-6.06.92-6.39,3.2a16.5,16.5,0,0,0-.17,2.61Z"/><path class="cls-39" d="M254,112.65a4.14,4.14,0,0,0,.84-1,12.76,12.76,0,0,0-.1-3.09,3.78,3.78,0,0,0-.76-1.83,50.66,50.66,0,0,1-1.25,5.92Z"/><path class="cls-40" d="M243,112.65h10.3c.49-3.27,0-6-2.61-5.64-2.47.37-6-.85-8.27-.17-1.31.39-1.41.91-1.26,1.31C241.73,109.73,242.35,111.23,243,112.65Z"/><path class="cls-39" d="M242.08,112.65h1.49a49.17,49.17,0,0,1-2.23-5.7,3.71,3.71,0,0,0-.45,1.92,12.55,12.55,0,0,0,.41,3.07A3,3,0,0,0,242.08,112.65Z"/><path class="cls-41" d="M239.15,112.65c0-.73-.15-1.18-.81-1.2a5.78,5.78,0,0,0-3.1,1.2Z"/><path class="cls-38" d="M239.77,112.65c.69-2.49,1.19-4.52-.22-4.66-1.85-.19-5.55,1.68-6.85,4.66Z"/><path class="cls-42" d="M247.6,112.65h0c1.13-2.22,3-4,3-5.42l-.08-11.52c0-1.41-1.78-2.52-4-2.49s-3.93,1.18-3.92,2.58l.08,10.57C242.72,107.76,246.76,111.18,247.6,112.65Z"/><polygon class="cls-43" points="249.44 112.65 251.83 107.55 251.83 106.06 247.52 112.5 247.62 112.65 249.44 112.65"/><polygon class="cls-43" points="247.69 112.65 247.78 112.5 242.05 105.59 242.05 107.24 245.58 112.65 247.69 112.65"/><polygon class="cls-40" points="249.22 112.65 251.83 107.07 251.83 105.59 247.52 112.03 247.94 112.65 249.22 112.65"/><path class="cls-44" d="M242.71,104l-.08-8.17c0-1.4,1.75-2.56,3.92-2.58s3.95,1.08,4,2.49l.08,11C245.89,108.05,242.71,104.1,242.71,104Z"/><path class="cls-45" d="M236.69,87.27a33.43,33.43,0,0,0,1.79,11.34c1,2.42,5.13,5.27,7.31,6.26a5.05,5.05,0,0,0,2.16,0c2.27-.17,5.71-5.52,6-7.39a45.21,45.21,0,0,0,.52-13.06c-.72-6.67-5.68-11.39-11.08-10.54S236.67,79.73,236.69,87.27Z"/><path class="cls-44" d="M254.51,84.44c-.69-6.33-5.2-10.9-10.28-10.62,3.24.2,7.77,4.66,8.3,8.49.62,4.39,1.16,10.06.46,14.53-.56,3.58-1.11,3.77-3.21,6.57a12.5,12.5,0,0,1-1.83,1.48c2.27-.17,5.71-5.52,6-7.39A45.21,45.21,0,0,0,254.51,84.44Z"/><path class="cls-44" d="M256.28,87.26c.21,1.51-.17,4.28-1.08,4.44s-1.81-.92-2-2.43.36-2.87,1.26-3S256.07,85.75,256.28,87.26Z"/><path class="cls-46" d="M234.06,75.56a5.36,5.36,0,1,0,5.36-5.36A5.35,5.35,0,0,0,234.06,75.56Z"/><path class="cls-46" d="M254.58,91.34c.09.83-.33,3.58-.3,4.44.88-.64,2.21,10.13,3.07,9.46,2.71-17.54-1.69-30.25-3.63-30.77-2-1.63-9.59-6.4-17.84,1.32-2,1.85-2.87,8.79-3.11,15.9,1.69,6.25,4,6.48,6.4,7.13-3.57-6.67,2.15-14.55,5.9-15,1.55-.2,4.41,0,6.14-.75A16.51,16.51,0,0,1,254.58,91.34Z"/><polygon class="cls-40" points="247.36 112.65 247.78 112.03 242.05 105.11 242.05 107.07 245.85 112.65 247.36 112.65"/><path class="cls-4" d="M343.31,135.57a1.71,1.71,0,0,1-1.71,1.72H224.21a1.72,1.72,0,0,1-1.71-1.72h0a1.72,1.72,0,0,1,1.71-1.71H341.6a1.71,1.71,0,0,1,1.71,1.71Z"/><path class="cls-4" d="M343.31,145.53a1.71,1.71,0,0,1-1.71,1.71H224.21a1.72,1.72,0,0,1-1.71-1.71h0a1.72,1.72,0,0,1,1.71-1.72H341.6a1.71,1.71,0,0,1,1.71,1.72Z"/><path class="cls-4" d="M343.31,155.64a1.71,1.71,0,0,1-1.71,1.72H224.21a1.72,1.72,0,0,1-1.71-1.72h0a1.72,1.72,0,0,1,1.71-1.71H341.6a1.71,1.71,0,0,1,1.71,1.71Z"/><path class="cls-22" d="M340.63,195.59a.27.27,0,0,1-.27.27H297.47a.28.28,0,0,1-.28-.27h0a.28.28,0,0,1,.28-.27h42.89a.27.27,0,0,1,.27.27Z"/><path class="cls-22" d="M300.86,190.2c1.89-1.82,3.92.27,6.17-.35l-.89-.67c-.11,2,.41,3.94,2.75,3.79,1.95-.12,4.57-1.94,6.35-.56a.7.7,0,0,0,1-.25,9.4,9.4,0,0,0,1.29-2.62l-1,.42c2,1.25,4.54,2.65,7,2.2a6.21,6.21,0,0,0,4.58-4c.89-2.18,2.75-9.31-1.35-9.58-3.74-.24-4,6.18-3.49,8.63,1.13,5.48,7.79,5.07,12,4.55.89-.1.9-1.51,0-1.39-3.28.4-7.91,1.12-10-2.1-1.33-2-1.06-6.37.68-8.07,1.43-1.4,2,1.59,2,2.35a15,15,0,0,1-.89,4.68,5,5,0,0,1-3.4,3.46c-2.16.61-4.6-.9-6.34-2a.7.7,0,0,0-1,.42,8.29,8.29,0,0,1-1.15,2.28l.95-.25c-1.36-1.06-3.14-.65-4.67-.22a14.13,14.13,0,0,1-2.63.61c-1.3.08-1.15-1.52-1.1-2.41a.71.71,0,0,0-.89-.68c-1.32.37-2.32-.38-3.58-.55a3.68,3.68,0,0,0-3.2,1.26c-.65.63.34,1.61,1,1Z"/><path class="cls-47" d="M239.86,59.33a8,8,0,0,0-3.27-5.15L222.26,44.11a11.15,11.15,0,0,0-17.39,11c.51,2.93,5.91,7.15,8.34,8.87l-.38-3.75c-1.74-1.22-4.46-3.57-4.82-5.67a8,8,0,0,1,6.47-9.21,8,8,0,0,1,6,1.33l14.33,10.07a4.78,4.78,0,0,1-5.49,7.82L214.94,54.54a1.62,1.62,0,0,1-.66-1,1.58,1.58,0,0,1,.27-1.19,1.55,1.55,0,0,1,1-.65,1.57,1.57,0,0,1,1.19.26l13,9.16,1.83-2.61-13-9.15a4.78,4.78,0,0,0-5.5,7.81l14.34,10.07a8,8,0,0,0,11.09-1.93A8,8,0,0,0,239.86,59.33Z"/></g></g></svg>