<svg xmlns="http://www.w3.org/2000/svg" xmlns:xlink="http://www.w3.org/1999/xlink" viewBox="0 0 531.1 292.65"><defs><style>.cls-1{fill:none;}.cls-2{fill:#d6e6f2;}.cls-3{fill:#f0c6bd;}.cls-4{fill:#d09289;}.cls-5{fill:#e9bbb1;}.cls-6{fill:#0e3c62;}.cls-7{fill:#e11e19;}.cls-8{fill:#04b8b5;}.cls-9{fill:#05aaab;}.cls-10{fill:#66aede;}.cls-11{fill:#fff;}.cls-12{fill:#d5f3fb;}.cls-13{fill:#1a72ad;}.cls-14{fill:#1c77c3;}.cls-15{fill:#efeded;}.cls-16{clip-path:url(#clip-path);}.cls-17{fill:#e5b7a3;}.cls-18{fill:#fc0;}.cls-19{fill:#ff8a5f;}.cls-20{fill:#1b74a5;}.cls-21{fill:#f0c8b2;}.cls-22{fill:#87522c;}.cls-23{fill:#8e1007;}.cls-24{fill:#160105;}.cls-25{fill:#ff6f66;}</style><clipPath id="clip-path"><circle class="cls-1" cx="169.32" cy="153.14" r="74.18"/></clipPath></defs><g id="Layer_1" data-name="Layer 1"><polygon class="cls-2" points="458.67 103.25 332.74 254.4 76.69 206.61 202.62 55.46 458.67 103.25"/><path class="cls-3" d="M312.64,56.67c0-4.48,2.3-18.7,2.3-18.7s2.3-2.55,2.36-3.63a2.41,2.41,0,0,0-.68-1.18c-.34-.26,1.95-8.56,1.6-10-.28-1.21-1.2-.24-1.2-.24s-1.74,7.6-2.64,7.19c-.64-.29-1.46-8.74-2.19-8.64-2.08.93-.08,7.33-.37,8.73,0,.1-2.82,1-2.73,1.13l-.47,1.37,1.22,5s-4.63,11.56-4.63,21.9c0,19.68,11.68,25.72,11.68,25.72l8.35-5.59S312.58,62.68,312.64,56.67Z"/><path class="cls-4" d="M308.9,31.85c-.47.78.25,2.61.84,3a1.49,1.49,0,0,0,1.92-.75c.47-.78,0-.93-.57-1.28S309.37,31.08,308.9,31.85Z"/><path class="cls-3" d="M310.69,29.11c-.55.19-.89.67-.75,1.09l1.15,3.44a1,1,0,0,0,1.26.41h0a1,1,0,0,0,.76-1.09L312,29.52a1,1,0,0,0-1.26-.41Z"/><path class="cls-3" d="M309.25,30.34c-.42.14-.67,1.46-.56,1.81l1,2a.76.76,0,0,0,1,.37h0a.76.76,0,0,0,.56-.89l-1-2.88a.74.74,0,0,0-1-.37Z"/><path class="cls-4" d="M316.59,33.08a2.93,2.93,0,0,0-.67-.85c-.3-.25-.55-.61-.93-.67a11.93,11.93,0,0,1-2.36-.72,3.69,3.69,0,0,0-1.08-.39,2.2,2.2,0,0,0,1.05,2.32c.35.22.88.24,1.16.57s.13.83,0,1.2a4.73,4.73,0,0,1-.72,1.37c0-.41.26-1.1-.07-1.43s-1,0-1.39-.08a.59.59,0,0,1-.43-.54c.39,0,2,.09,1.43-.73s-1.39-.71-1.54-1.66,0-1.6.82-1.34c.42.13,2.47.71,2.87.8a6.38,6.38,0,0,1,1.93,1.29Z"/><path class="cls-3" d="M391.05,113.4l-1.17.77-4.77-.15-3.19,1.68s-11.18-4.58-15.08-6.81c-5.2-3-13.5-22.53-13.5-22.53s-7.78,2.56-8.69,5.3c-2.17,6.5,7,17.74,13.62,22.82,4.64,3.55,23.18,5.92,23.18,5.92l2.26,1.76,3.17.84,2.25-4.07-.47-2.82a9.42,9.42,0,0,0,1.48-.4C391.88,114.7,391.05,113.4,391.05,113.4Z"/><path class="cls-5" d="M388.29,120.85c-1.23,1.11-2.92,1.25-3.77.31s-.54-2.6.69-3.71,2.92-1.26,3.77-.32S389.52,119.73,388.29,120.85Z"/><path class="cls-3" d="M390.65,121.11a.82.82,0,0,1-1.16,0l-2.05-2.68a.84.84,0,0,1,.27-1.13h0a.83.83,0,0,1,1.16,0l2.05,2.68a.81.81,0,0,1-.27,1.12Z"/><path class="cls-3" d="M392,119.94a.78.78,0,0,1-1.09,0l-2.08-2.36a.76.76,0,0,1,.17-1.07h0a.76.76,0,0,1,1.08,0l2.09,2.35a.77.77,0,0,1-.17,1.07Z"/><path class="cls-3" d="M389.35,122.4a.89.89,0,0,1-1.23,0l-2.05-2.68a.9.9,0,0,1,.34-1.18h0a.89.89,0,0,1,1.23,0l2.05,2.68a.89.89,0,0,1-.34,1.18Z"/><path class="cls-3" d="M387.65,122.87a.7.7,0,0,1-1,0L385,120.6a.68.68,0,0,1,.22-.94h0a.69.69,0,0,1,1,0l1.72,2.25a.68.68,0,0,1-.23.94Z"/><path class="cls-5" d="M343.78,70.88c-.66-1.52,2.73-6,.72-4.63-2.45-.65-12.61,5.38-14,6.27,0,5.4-7.3,4.61-7.3,4.61S319.57,90,324.76,91.54s12.67-5.91,12.67-5.91A31.73,31.73,0,0,1,343.78,70.88Z"/><path class="cls-6" d="M341.42,54.46c5.25-.84,10.86-2.79,14.62,1.09,2.34,2.41,3,5.55,6.33,7,3.13,1.34,6.46.23,9.69.6,2.79.32,6.13,1.57,7.79,4,1.82,2.67.56,5.12.94,8.06.35,2.71,3.11,4.81,3.22,7.33.12,2.78-3.59,5.76-6.14,6.38-6.23,1.51-12.81-2.88-14-5.13-1.49-2.76-2.32-6.15-4.47-8.22a33.28,33.28,0,0,0-10.94-6.39C344.26,68,338,53.91,341.42,54.46Z"/><path class="cls-6" d="M339,60.37c0,4.14-3.79,7.49-8.47,7.49S322,64.51,322,60.37s3.79-7.48,8.47-7.48S339,56.24,339,60.37Z"/><path class="cls-3" d="M341.37,67.64c.3-3.12.94-8-.1-10.23-1.2-2.54-3.92-3-6.27-3.26s-5.11-.27-6.79,2c-1.44,1.95-1.59,6.32-1.7,9.45-.14,4-.2,6.61,3,10.15.75.82,1.58,2.94,6.39-.1C339.08,73.63,341,71.61,341.37,67.64Z"/><path class="cls-3" d="M341,66.35c2.94-2.09,1.6,2.59.84,3.77a3.16,3.16,0,0,1-1.69,1.31Z"/><path class="cls-6" d="M341.23,66.37c.62-.25,2.48.85.87,5,.81-.45.24,1,.14,2,3.63-3,5.23-5,5.69-6.53,1.75-5.83-1.28-12.2-1.28-12.2s-1.83-3.33-7.45-3.88c-2.56-.25-7.66.57-9.88,2.4-1.87,1.54-3.44,4.31-2.34,5.32.59-.8,4-2.33,4.84-1.26C334,55.82,342.37,63.46,341.23,66.37Z"/><path class="cls-7" d="M326.29,249.65c1.14.3,3.8-3,3.8-3l3.64-9.92s2.19,1.82,2.27,2.57c.17,1.7-3.32,5.74-3.32,5.74l-1.3,4.65a2.06,2.06,0,0,1-1.23,1.36c-1.89.73-6,2.16-7.48,1.29-.29-.18-.39-1.31-.39-1.31l2.81-3.06S325.81,249.52,326.29,249.65Z"/><path class="cls-5" d="M361.41,174.6,351,170.35l-2.16,2.3s-14.54-4.61-26.32-5.31l1.78-4.82L307.85,157s-5.37,22.05,1.95,26.1a6.35,6.35,0,0,0,4.14.83c23.27-3.56,34.82-5.64,34.82-5.64l8.11.11,5,1.57s1.91,0,2.16-.5C364.63,178.21,361.41,174.6,361.41,174.6Z"/><path class="cls-7" d="M363.2,178.79c.37-1.12-2.72-4-2.72-4l-9.69-4.21s1.93-2.08,2.69-2.11c1.7-.08,5.54,3.63,5.54,3.63l4.59,1.58a2,2,0,0,1,1.25,1.28c.62,1.91,1.83,6.15.86,7.57-.19.28-1.32.31-1.32.31l-2.9-3S363.05,179.26,363.2,178.79Z"/><path class="cls-3" d="M330.83,190.82l-.47-18.18-16.55-2,1.8,16.27c4.9,23,10.31,48.28,10.31,48.28l.37,8.1L325,248.36s.12,1.91.62,2.13c1.33.55,4.75-2.87,4.75-2.87L334,237l-1.76-1.47S337.71,199.35,330.83,190.82Z"/><path class="cls-8" d="M346.84,92.9c1.28-1.08,4-6.33,7.3-6.74-1.77-1.89-1.15-3.22-5.24-5.89a16.36,16.36,0,0,0-7.95-2.9c-1.41,0-16,11.95-16,11.95s-2.44-7.46,1.52-12.31c1-1.26-1.94-.61-2.57-1.53l-1.67-.6c-4.68,1.49-10.22,13-6.65,25.17,5.88,8.41.25,12.39-1,18.46a1.72,1.72,0,0,0,.26,1.29h0c-6,7.41-13.2,46.57-8.9,54.33,12.91,6.13,10.34,8.64,28.7,4.65.61-4.57,11.75-28.53,12.93-43.14.31-3.92-1.32-9.39-3.65-13.34h-.07a.4.4,0,0,0,.19-.39,49.28,49.28,0,0,1-1.65-13.66C342.46,103.71,346.21,97.09,346.84,92.9Z"/><path class="cls-9" d="M317.2,99.67c1.94.48,3.42,1.8,5.41,2.28a40.47,40.47,0,0,0,6.15,1c4.18.31,8.34-.6,12.43-.21.26,3-1.27,6-1.27,9s1.23,5.59,2.1,8.43c-4.64.81-3.48-7.14-4.58-9.75-1.74-4.16-6.8-4.58-10.65-5.22-2.28-.37-4.2-1.19-6.53-.56Z"/><path class="cls-9" d="M314.21,136.29c2.33,3.53,6.53,2.66,10.23,3.52,1,7-6.06,20.49-7.29,27.29-.39-8.27,3.89-14.83,3.48-22.46-3,.06-6,.26-8.22-2.13,2.39-.41,6.65,2.42,8.22-1-2.13-.39-4.15-1.85-5.83-3.16Z"/><circle class="cls-10" cx="169.07" cy="152.91" r="74.18"/><path class="cls-11" d="M133.69,194.77V106.53a4.29,4.29,0,0,1,4.3-4.29h65.34a4.29,4.29,0,0,1,4.3,4.29v92.29a4.3,4.3,0,0,1-4.3,4.3H143.86a4.34,4.34,0,0,1-2.44-.76l-5.87-4.05A4.33,4.33,0,0,1,133.69,194.77Z"/><polygon class="cls-12" points="143.02 203.36 134.18 197.27 139.21 196.78 143.02 203.36"/><rect class="cls-7" x="193.43" y="108.94" width="10.71" height="5.95"/><rect class="cls-2" x="156.75" y="119.36" width="28.53" height="3.47" rx="0.87"/><rect class="cls-2" x="138.88" y="126.56" width="15.92" height="1.74" rx="0.87"/><rect class="cls-2" x="157.2" y="126.56" width="30.36" height="1.74" rx="0.87"/><rect class="cls-2" x="189.95" y="126.56" width="13.94" height="1.74" rx="0.87"/><rect class="cls-2" x="138.88" y="129.66" width="65.01" height="1.74" rx="0.87"/><rect class="cls-2" x="187.22" y="132.76" width="16.67" height="1.74" rx="0.87"/><rect class="cls-2" x="138.88" y="132.76" width="45.95" height="1.74" rx="0.87"/><rect class="cls-2" x="138.88" y="135.86" width="65.01" height="1.74" rx="0.87"/><rect class="cls-2" x="153.23" y="138.96" width="22.17" height="1.74" rx="0.87"/><rect class="cls-2" x="138.88" y="138.96" width="11.95" height="1.74" rx="0.87"/><rect class="cls-2" x="177.79" y="138.96" width="26.1" height="1.74" rx="0.87"/><rect class="cls-2" x="165.64" y="142.07" width="38.26" height="1.74" rx="0.87"/><rect class="cls-2" x="138.88" y="142.07" width="24.36" height="1.74" rx="0.87"/><rect class="cls-2" x="138.88" y="145.17" width="65.01" height="1.74" rx="0.87"/><rect class="cls-2" x="138.88" y="148.27" width="40.49" height="1.74" rx="0.87"/><rect class="cls-2" x="181.76" y="148.27" width="22.13" height="1.74" rx="0.87"/><rect class="cls-2" x="138.88" y="151.37" width="65.01" height="1.74" rx="0.87"/><rect class="cls-2" x="138.88" y="154.47" width="21.14" height="1.74" rx="0.87"/><rect class="cls-2" x="162.41" y="154.47" width="41.48" height="1.74" rx="0.87"/><rect class="cls-2" x="138.88" y="157.57" width="31.56" height="1.74" rx="0.87"/><rect class="cls-2" x="172.83" y="157.57" width="20.44" height="1.74" rx="0.87"/><rect class="cls-2" x="195.66" y="157.57" width="8.23" height="1.74" rx="0.87"/><rect class="cls-2" x="138.88" y="160.68" width="65.01" height="1.74" rx="0.87"/><rect class="cls-2" x="138.88" y="163.78" width="28.08" height="1.74" rx="0.87"/><rect class="cls-2" x="138.88" y="177.67" width="28.08" height="1.74" rx="0.87"/><rect class="cls-2" x="138.88" y="181.31" width="28.08" height="1.74" rx="0.87"/><rect class="cls-2" x="175.15" y="177.67" width="28.08" height="1.74" rx="0.87"/><rect class="cls-2" x="175.15" y="181.31" width="28.08" height="1.74" rx="0.87"/><rect class="cls-2" x="138.88" y="190.2" width="28.08" height="0.34"/><rect class="cls-2" x="175.15" y="190.2" width="28.08" height="0.34"/><rect class="cls-2" x="169.36" y="163.78" width="20.93" height="1.74" rx="0.87"/><rect class="cls-2" x="192.68" y="163.78" width="11.21" height="1.74" rx="0.87"/><path class="cls-8" d="M155.31,186.16a6.8,6.8,0,0,1-6.27-9.4,6.77,6.77,0,0,1,6.28-4.19,6.67,6.67,0,0,1,2.6.52,6.79,6.79,0,0,1-2.61,13.07Zm0-13.29a6.48,6.48,0,1,0,2.49.5A6.48,6.48,0,0,0,155.32,172.87Zm.45,11.48.51-.07.16,1.17-.52.07Zm-3,.63.46-1.09.48.2-.46,1.09Zm5.45-1.51.41-.32.72.94-.41.32Zm-2.9.56a4.57,4.57,0,0,1-1.78-.36,4.65,4.65,0,1,1,1.78.36Zm0-9.17a4.51,4.51,0,1,0,1.72.35A4.49,4.49,0,0,0,155.32,174.86Zm0,8.51a4,4,0,0,1-3.41-1.9l.19.07a3.89,3.89,0,0,0,3.22,1.72,4.74,4.74,0,0,0,.74-.07l.19.08A4.2,4.2,0,0,1,155.31,183.37Zm-5-.44.94-.71.31.41-.94.72Zm7.72-.77a3.62,3.62,0,0,0,.56-.67l.11,0a3.92,3.92,0,0,1-.55.67Zm1.86-.67.2-.48,1.09.45-.2.48Zm-7.3-1.62.41-1,4.29,1.78-.4,1Zm-3.39.06,1.17-.15.07.51-1.18.15Zm10,0a3.83,3.83,0,0,0,0-1.17l.12.06a3.76,3.76,0,0,1,0,1.16Zm-7.86-.52a4.14,4.14,0,0,1,.09-.87l.11.05a4.12,4.12,0,0,0-.09.86Zm2.23-1.82.41-1,4.3,1.79-.41,1Zm6.73.86,1.17-.15.07.51-1.17.16Zm-10.74-1.17.2-.48,1.09.46-.2.48Zm2.57-.29a4.2,4.2,0,0,1,.82-.81l.13,0a4,4,0,0,0-.84.81Zm7-.87.94-.72.32.41-.94.72Zm-1.44.2a3.77,3.77,0,0,0-.89-.52,4.22,4.22,0,0,0-1-.27l-.35-.14a3.89,3.89,0,0,1,1.39.3,4.18,4.18,0,0,1,1.2.77Zm-6.34-1.67.41-.31.72.94-.41.31Zm5.64,0,.45-1.09.48.2-.45,1.09Zm-2.74-1.37.51-.06.16,1.17-.52.07Z"/><path class="cls-8" d="M166.46,190a5.81,5.81,0,1,1-.5-8.2A5.81,5.81,0,0,1,166.46,190Zm-8.53-7.54a5.57,5.57,0,1,0,7.87-.48A5.58,5.58,0,0,0,157.93,182.5Zm8,7.31-.74-.66.28-.32.74.66Zm-2.34,1.43-.31-.94.4-.13.31.93Zm2.68-4,.08-.41,1,.2-.08.41Zm-1.2,1.63a4,4,0,1,1-.34-5.63A4,4,0,0,1,165.09,188.83ZM161,189.91a3.87,3.87,0,0,0,4.64-5.24l0-.09h0v0h0l-.05-.09a3.78,3.78,0,0,0-.9-1.17,3.88,3.88,0,0,0-1.27-.75l-.09,0h0l-.09,0a3.88,3.88,0,0,0-4.64,5.25l0,.08h0v0h0l0,.09a4,4,0,0,0,.9,1.17,3.85,3.85,0,0,0,1.28.75l.09,0h0Zm3-1-.2-.18,1-1.07.2.18Zm-3.14,2.45.19-1,.42.08-.2,1Zm5.37-6.34-.14-.39.94-.32.14.4Zm-3.74,4.36-.21-.18,2.75-3.1.2.18Zm-1.57.51-.29-1.94.38.34,3-3.36-.39-.34,2,0Zm.63-1.13,3-3.35-.41-.36-3,3.36Zm-2.79,1.57-.31-.28.65-.74.32.28Zm6.32-7.21-.32-.28.66-.75.31.28Zm-4.45,4.79-2-.06,4.65-5.26.31,2Zm-.15-.1,3-3.35-.4-.36-3,3.36Zm-.54-.47,3-3.36-.41-.35-3,3.35Zm-2.79.78-.13-.4.94-.32.13.4Zm5.57-6.17.19-1,.42.09-.2,1Zm-2.64,3.18L160,185l.64-.72.11.1Zm-1.07.33-.11-.1,1.9-2.15.11.1Zm-2.15-.07.08-.41,1,.2-.09.41Zm3.64-3.18-.31-.94.4-.13.31.94Zm-1.79,1.33-.74-.65.28-.32.74.66Z"/><path class="cls-13" d="M145.13,190.27a.94.94,0,0,1-.56-.15.73.73,0,0,1-.26-.43,1.08,1.08,0,0,1-.69.21.7.7,0,0,1-.34-.15c-.52.36-1.89.79-2.36.28a.6.6,0,0,1-.11-.68,1.17,1.17,0,0,1,1.11-.54H142l0,.08a.91.91,0,0,1,0,.23.53.53,0,0,0,0,.13.13.13,0,0,1-.1.15.14.14,0,0,1-.15-.1,1.41,1.41,0,0,1,0-.2s0,0,0-.06a1,1,0,0,0-.77.41.34.34,0,0,0,.07.4c.38.42,1.76-.05,2.11-.37l.1-.09.09.11a.33.33,0,0,0,.24.14,1,1,0,0,0,.7-.29l.2-.17v.27a.53.53,0,0,0,.18.46c.31.23,1,0,1.43-.1l.07,0c2.49-.72,5.68-3.2,6.27-5.6.32-1.29.11-2.19-.62-2.68-1.27-.84-3.92-.22-5.45.9-1.25.93-3.27,2.7-2.62,4.14.49,1.09,2.07,1,2.93.75a.12.12,0,0,1,.15.08.13.13,0,0,1-.08.16c-1.26.34-2.74.2-3.23-.88-.72-1.61,1.39-3.48,2.71-4.45,1.59-1.17,4.34-1.83,5.73-.9.57.38,1.15,1.19.72,2.94-.61,2.48-3.88,5-6.44,5.78l-.07,0A4.38,4.38,0,0,1,145.13,190.27Zm8.3,4.57.23-.32c.72-.9,1.41-1.85,2.08-2.77l.6-.83a5.76,5.76,0,0,1,3.2-1.14.28.28,0,0,0,0,.09l0,.08h.08a1.89,1.89,0,0,0,1-.28,1.94,1.94,0,0,1,.85-.28,1.71,1.71,0,0,1,.37,0,1.31,1.31,0,0,0,1-.13c.24.08.55-.12.82-.29l.14-.08a.62.62,0,0,0,.36.37,1.15,1.15,0,0,0-.26.39l0,.12.11,0a5.12,5.12,0,0,0,2.8-.16,8.08,8.08,0,0,1,1.83-.28c.06,0,.12,0,.13-.12a.14.14,0,0,0-.12-.13,8.36,8.36,0,0,0-1.9.29,5.61,5.61,0,0,1-2.53.21,1.65,1.65,0,0,1,.26-.29,2.62,2.62,0,0,0,2.11-.7l.05-.09-.07-.06a.82.82,0,0,0-.81-.13,3.51,3.51,0,0,0-1.36.72h0c-.34-.08-.35-.3-.35-.37v-.17l-.17.06a1.83,1.83,0,0,0-.31.18,2.21,2.21,0,0,1-.53.27l0,0,.08-.23-.22.06h-.12l-.21-.06.06.21a.36.36,0,0,0,0,.11,1.19,1.19,0,0,1-.83.06,2,2,0,0,0-.41,0,2.31,2.31,0,0,0-1,.31,2.11,2.11,0,0,1-.78.26.28.28,0,0,0,0-.09l0-.07h-.08a5,5,0,0,0-2.94.85L157,190c.34-.44.68-.9,1-1.35.31-.23.6-.46.87-.68a12.73,12.73,0,0,0,3.68-4.67l.14-.31-.31.15a5,5,0,0,0-1.48,1.44l-.31.37c-.95,1.15-1.87,2.34-2.77,3.52a4.25,4.25,0,0,1-2.93,1h-.14a.76.76,0,0,1-.38-.07s0-.07,0-.11.05-.23,0-.31a.71.71,0,0,0-.86-.06.37.37,0,0,0,0-.12c-.11-.29-.61-.38-.93-.35a5.59,5.59,0,0,0-1.66.46.12.12,0,0,0-.17,0l-.25.21a4.47,4.47,0,0,0-1.18.9l.17.18.52-.4c.22-.15.43-.31.64-.48a5.49,5.49,0,0,1,1.95-.63c.32,0,.64.09.68.2s-.05.16-.2.27l.13.21.15-.09c.42-.22.61-.31.85-.13a.24.24,0,0,1,0,.09c0,.12-.05.25,0,.34a.91.91,0,0,0,.55.14h.12a3.93,3.93,0,0,0,2.51-.66l-.59.79c-.21.27-.41.55-.62.83-.51.33-1,.68-1.41,1l-.55.39c-1.26.9-3.18,2.25-2.66,4l0,.08h.17C152.44,196.22,153,195.43,153.43,194.84Zm2.1-3.23c-.66.91-1.35,1.86-2.06,2.76l-.24.33c-.39.53-.91,1.25-1.47,1.27-.37-1.56,1.41-2.82,2.6-3.66l.55-.4.84-.6Zm10.86-3a2.65,2.65,0,0,1-1.55.51,3.19,3.19,0,0,1,1-.51,1.35,1.35,0,0,1,.28,0A.54.54,0,0,1,166.39,188.63Zm-7.67-.81-.13.1c.72-.93,1.45-1.86,2.2-2.77l.31-.38a6.05,6.05,0,0,1,1.06-1.14A12.83,12.83,0,0,1,158.72,187.82Z"/><path class="cls-14" d="M178.29,189.33a.12.12,0,0,0-.12-.12c-.18,0-.42,0-.7,0-1,.1-2.71.26-3.24-.28a.62.62,0,0,1-.16-.52c.12-1,1.74-2.17,2.43-2.67.84-.61,1.87-1.15,2.26-1a.32.32,0,0,1,.19.3.91.91,0,0,1-.26.62,1,1,0,0,1-.61.41.13.13,0,0,0-.12.13.13.13,0,0,0,.14.12,1.26,1.26,0,0,0,.78-.5,1.11,1.11,0,0,0,.31-.81.58.58,0,0,0-.32-.5c-.66-.29-2.09.69-2.51,1-.72.53-2.41,1.74-2.54,2.86a.86.86,0,0,0,.23.71,2.68,2.68,0,0,0,1.82.46,16,16,0,0,0,1.62-.1c.28,0,.52,0,.68,0A.12.12,0,0,0,178.29,189.33Z"/><path class="cls-14" d="M183,188.89a1,1,0,0,1,.09-.17c-.55-.08-.54.28-1.31.52l.06-.11a5.84,5.84,0,0,0,2.08-1.83c.35-.52.44-1,.27-1.25a.35.35,0,0,0-.32-.21c-.46,0-1,.94-1.79,2.37l-.42.74a1.5,1.5,0,0,1-.8.18,1,1,0,0,1-.44-.17.94.94,0,0,0-.67-.19,1,1,0,0,0-.53.3c.31-.43.72-.92,1-.86a.12.12,0,0,0,.15-.09.13.13,0,0,0-.1-.15c-.56-.1-1.11.7-1.51,1.29-.09.12-.17.24-.24.32l0,0v0a.15.15,0,0,0,.08.17c.12.06.22,0,.47-.28s.53-.51.7-.52a.71.71,0,0,1,.51.15,1.34,1.34,0,0,0,.55.21,1.37,1.37,0,0,0,.61-.09l-.07.12c-.16.05-.35.11-.56.16-1.09.32-2.58.75-3.05,1.83a2.39,2.39,0,0,0,.24,2,.53.53,0,0,0,.44.34h0c.59,0,1.3-1.16,2.24-2.79.31-.54.6-1.05.82-1.36h0l.33-.14C182.65,189.12,182.61,188.87,183,188.89Zm-.71-.56c.49-.9,1.24-2.24,1.58-2.25h0s.06,0,.1.09,0,.56-.25,1a5.74,5.74,0,0,1-1.65,1.56C182.11,188.59,182.18,188.46,182.25,188.33Zm-1.81,2.53c-.64,1.13-1.53,2.67-2,2.67h0s-.13,0-.23-.2a2.15,2.15,0,0,1-.23-1.83c.42-1,1.85-1.39,2.89-1.69l.26-.07C180.91,190,180.68,190.44,180.44,190.86Z"/><path class="cls-3" d="M141.51,163.13l9.4-7.59s6.25-3.88,8.82-5.38-1.26-8-12.11-1.66a18.51,18.51,0,0,1-6.94,2.25l-2.42-2a1.61,1.61,0,0,0-2.19.12l-1.61,1.67Z"/><path class="cls-3" d="M118.6,141.62l3.4-5.54,4.2-7.64s3.5-3.92,1.54-7.12c-1.06-1.79-3.68,2.18-3.68,2.18l-4.15,6.4c-.39.72-5.65,12.2-5.65,12.2Z"/><path class="cls-3" d="M122.67,142.1l7.21-7.52,6.44-7.88s5.73-5,3.39-8c-1.39-1.58-6.88,3.91-6.88,3.91L125,130.7c-.69.87-6.35,10.92-6.35,10.92Z"/><path class="cls-3" d="M127.94,142.67l10.51-7,8-9.17c8.23-6.13,4.67-8.64,5.12-8.19-1.73-2.49-9,3.9-9,3.9l-11.18,9.46c-1,1-8.73,10.39-8.73,10.39Z"/><path class="cls-3" d="M138.48,144.75l6.89-6.54,7.78-6s9.43-5.62,4.77-8.4c-1.89-1.13-9.14,4-9.14,4l-8.61,5.44c-1.11.81-12.23,9.41-12.23,9.41Z"/><path class="cls-3" d="M136.74,150.73l2-6.25a1,1,0,0,0-.44-1.13l-6.48-3.65a.9.9,0,0,0-.45-.13l-6.46-.13h-.14l-5.44.69h-.09l-4.17.94a1,1,0,0,0-.7.63l-5.62,16.75a1.25,1.25,0,0,1-.15.28l-10.11,13.1a1,1,0,0,0-.2.59v3a1,1,0,0,0,.45.82L109.66,183a1,1,0,0,0,1.2-.14l12.66-13.12a1.1,1.1,0,0,1,.37-.23l16.68-6.06a1,1,0,0,0,.57-1.26l-4.38-10.82A.91.91,0,0,1,136.74,150.73Z"/><path class="cls-15" d="M106.68,157.75l17.61,15.59-19.07,16.9s-1.13-1-4.33-7.85c-1-2.15-4-11.86-4-11.86Z"/><polygon class="cls-11" points="106.44 158.26 121.78 171.83 111.25 170.54 101.95 163.34 106.44 158.26"/><g class="cls-16"><path class="cls-5" d="M225.59,188.18s-10.39-13.27-12.91-12.61-11.5,5.79-14.87,8.41c-1,.79-3.9,2.38-3.28,4.28.69,2.14,5.38,11.11,9.16,8.07,3-2.44-1.43-7.65-1.43-7.65l8.15-3.53,6.39,9.92Z"/><path class="cls-5" d="M222.16,186.93s-14-15.64-16.54-15-12.6,8.81-12.6,8.81-4.7,3.57-4.46,5.55c.35,2.83,5.47,11.7,9.25,8.66,3-2.44-1.26-7.82-1.26-7.82l6.21-3,5.51,10.92Z"/><path class="cls-3" d="M234.66,242.75l-11.17-31.54,2.49-22a1.45,1.45,0,0,0-1.07-1.58l-22-6L202,198.71a7.11,7.11,0,0,0,.1,1.52l3.25,18.28,8,24.24Z"/><path class="cls-3" d="M201.4,199.51l-4.39.27-5.17-2.24s-3.81-9.86-8.35-8.24c-2.9,1,1.74,12.07,3.51,15.19.39.69,14.81,12.79,19,14.13l-2.83-17.69A1.69,1.69,0,0,0,201.4,199.51Z"/><path class="cls-3" d="M216.73,185.44s-14-15.41-16.24-15.75c-2.64-.39-8,6.38-10.5,8.74a45.79,45.79,0,0,1-5.13,3.36c-4,1.94-1.68,6.47,3.11,5.72a13,13,0,0,0,6.81-3.28c1.22-1,4.37-4.37,4.37-4.37l3.75,12.44Z"/></g><polygon class="cls-17" points="226.71 264.48 214.32 263.84 218.54 256.92 225.77 258.36 226.71 264.48"/><path class="cls-6" d="M230,278.76c-5.15-2.05-18.36-13.51-18.36-13.51l.85-1.68s23.22,6.6,21.67,14.37C233.94,279.21,231,279.15,230,278.76Z"/><path class="cls-18" d="M231.21,271.23a27,27,0,0,0,3.8,5.24c-.29,3.31-5.37,1-5.37,1s-1.3.84-17.12-13.9c-.06-2.13,5.3-6.12,5.3-6.12l2.27,3.86a2.59,2.59,0,0,0,2.31,1.28l4.69-.12S229.24,267.63,231.21,271.23Z"/><polygon class="cls-19" points="233.41 221.19 230.59 209.1 238.41 211.24 239.04 218.58 233.41 221.19"/><path class="cls-6" d="M220.62,228.34c.53-5.52,7.88-21.39,7.88-21.39l1.85.34s.11,24.14-7.79,24.82C221.27,232.22,220.52,229.37,220.62,228.34Z"/><path class="cls-18" d="M228.19,227.38a26.68,26.68,0,0,0-4,5.1c-3.26.65-2.45-4.88-2.45-4.88s-1.16-1,8.6-20.31c2-.64,7.35,3.4,7.35,3.4l-4.13,4.37,1.88,5.93S231.1,224.48,228.19,227.38Z"/><path class="cls-20" d="M270.35,157.33l-18.76,1.51-.37,20.83,9.4,26.15s-10.44,2.79-12.32,5-3.36,11.2-3.36,11.2v4.18s24.81-3.41,30.25-6.94c1.42-.92,3.94-3.57,4.31-5.22C286.6,206.92,270.35,157.33,270.35,157.33Z"/><path class="cls-13" d="M254.79,175.06l5.23-19.4-30.51,5.55s-.51,13.4-.43,17.89c.18,9.69,5.22,38.41,5.22,38.41s-11.25,4.87-15.76,39.41c.31.22,7.55,3.51,7.55,3.51l28.33-40.19a2.08,2.08,0,0,0,.57-.75c2-4.58-3.77-39.82-3.77-39.82l.45-.29A7.55,7.55,0,0,0,254.79,175.06Z"/><path class="cls-17" d="M237.82,100.74s3.85,4.76,6.47,4.71,6-4.71,6-4.71l-.05-9.36-12.35-1.25Z"/><path class="cls-17" d="M275.94,144.89c1,1.21,5.4,3.32,5.4,3.32a4.4,4.4,0,0,0,.29-1.73c-.25-.67-2.34-1.9-2.34-1.9l-.4-.88,4,2.43,2.31,3.41,1.4-4.34s-.13-3.45-.74-4.38c-1.24-1.91-7.59-5-7.59-5L263.25,120,262,135.77,274,140S275.08,143.88,275.94,144.89Z"/><path class="cls-17" d="M211.63,77.51,197,61.41c.15-1.56,1.71-7.63,1.2-8.07-1.07-.93-1.88,1.11-2.07,1.72-.36,1.15-.26,1.46-1.23,2-.69-.6-1.27-10.91-1.79-11-1.54-.3-1.27,1.21-1.43,2.19-.19,1.21.56,4.12-.34,4.48-.23-.3-2-5-2.82-7.36a1,1,0,0,0-1.84-.12c-.3.71,2.23,6.83,2.32,8a1.8,1.8,0,0,1-.19-.05c-.18-.23-1.62-3.09-2.48-4.36-.26-.37-.59-1.55-1.17-1.84a1.07,1.07,0,0,0-1.25.53c-.19.57,3,5.63,2.78,6.95-1-.09-2.13-2.14-3.47-3.35-.41-.63-1-.62-1.35,0-.27.45,3.33,5,3.58,6.55.46,2.89.84,4.13,2.66,5.12.11.38.75.84,1,1.22,3.13,6,12,22.41,16.61,24.86C212.61,87.89,211.63,77.51,211.63,77.51Z"/><polygon class="cls-19" points="252.73 149.75 232.98 160.88 270.35 157.33 269.72 154.28 252.73 149.75"/><path class="cls-18" d="M270,149.2c-2.48-9.38-8.62-14.45-5.56-34.25a40.89,40.89,0,0,0-.12-6.67,7.75,7.75,0,0,0-8.41-7.07c-9.32.9-18.24-.24-27.16-5.5-4.92-2.9-17.16-18.2-17.16-18.2l-9.32,8.25,21.49,32.89s5.93,18.78,6.58,25.28c.45,4.58-1,18.36-1,18.36s30.25,3.56,36.81,2.58c4.49-.68,6.55-10.52,6.55-10.52A34.39,34.39,0,0,1,270,149.2Z"/><path class="cls-21" d="M239.31,87.4c.23-3.14-.47-8.15.83-10.24,1.52-2.42,4.4-2.64,6.88-2.64s5.36.22,6.87,2.64c1.3,2.09.6,7.1.84,10.24a12.86,12.86,0,0,1-3,9.45,4.42,4.42,0,0,1-3,1c-1.13.21-5.45-1.38-6.32-2.12C239.48,93.22,239,91.41,239.31,87.4Z"/><path class="cls-22" d="M234,76.89c-.4-3.22,3.77-4.43,4.79-5.32,3.69-3.25,7.67-.74,9.13-1.38,6.15-2.71,7.45,1.26,7.11,2.16a8.61,8.61,0,0,1-.68,1.28c2.45.86,3.47,2.2,2.65,2.64-.41.21,1.26,4.45-2.29,5.37,0,0-1.46-4.66-2.41-5-1-1-2.85.23-2.85.23s-3.48,0-3.74.14c-.47.21-1.59-.62-1.59-.62-4.38,1.8-4.67,8.88-4.67,8.88s-1.65,7.52-1.59,8.89c-.34-1.48-3.33-4.77-4.11-7.1C232.35,82.92,234.41,80.36,234,76.89Z"/><path class="cls-21" d="M239.44,85.28c-3-2.76-2.59,2.85-1.95,4.16a3.48,3.48,0,0,0,1.9,1.3Z"/><path class="cls-23" d="M185.21,188.83s-1.55-.5-1.55-.72,1.73-.59,1.73-.59Z"/><path class="cls-24" d="M184,187.93c-.18.07-.31.13-.31.18s.12.14.29.23A1.85,1.85,0,0,1,184,187.93Z"/><path class="cls-7" d="M192.32,192.06c-.28-.16-5.87-2.49-7.36-3.22a1.2,1.2,0,0,1,.13-1.31c1-.35,7.62-1.73,7.62-1.73Z"/><path class="cls-6" d="M207.58,185.72H193.16c-1,0-2,.79-2.12,2.83-.12,2.29.76,3.46,1.63,3.62l13.66,1.73Z"/><path class="cls-13" d="M191.56,186.68a3.73,3.73,0,0,0-.48,1.53l13.38.73.78-2.2Z"/><path class="cls-7" d="M207.07,185.77c-1.3-.22-2.58,1.36-2.68,3.8s.64,4.12,1.94,4.34l55.46,4.83.91-12Z"/><path class="cls-25" d="M260.68,187.57l-55.44-.83a5.1,5.1,0,0,0-.78,2.2L259,191.33A7.41,7.41,0,0,1,260.68,187.57Z"/><path class="cls-25" d="M191,188.56a3.59,3.59,0,0,1,.74-2.18c-1.8.53-5.69,1.05-6.88,1.42a1.63,1.63,0,0,0-.07.63l6.21.66C191,188.91,191,188.75,191,188.56Z"/><path class="cls-6" d="M262.7,186.78c-1.17-.09-2.28.85-3,2.36a3.08,3.08,0,0,0-.53,0l-23.56.19c-.76,0-1.39,1-1.45,2.11s.5,2.15,1.26,2.23l23.45,2.27h.3c.5,1.63,1.46,2.74,2.64,2.83,1.9.15,3.64-2.41,3.89-5.72S264.59,186.92,262.7,186.78Z"/></g></svg>