<?xml version="1.0" encoding="utf-8"?>
<!-- Generator: Adobe Illustrator 25.0.0, SVG Export Plug-In . SVG Version: 6.00 Build 0)  -->
<svg version="1.1" id="Layer_1" xmlns="http://www.w3.org/2000/svg" xmlns:xlink="http://www.w3.org/1999/xlink" x="0px" y="0px"
	 viewBox="0 0 531.1 292.6" style="enable-background:new 0 0 531.1 292.6;" xml:space="preserve">
<style type="text/css">
	.st0{fill:#D6E6F2;}
	.st1{fill:#77B4D5;}
	.st2{fill:#EAF5F3;}
	.st3{fill:#CED9D7;}
	.st4{fill:#273E54;}
	.st5{fill:#05AAAB;}
	.st6{fill:#04B8B5;}
	.st7{fill:#36C6C4;}
	.st8{fill:#9BE3E1;}
	.st9{fill:#079B97;}
	.st10{fill-rule:evenodd;clip-rule:evenodd;fill:#1C77C3;}
	.st11{fill-rule:evenodd;clip-rule:evenodd;fill:#0E3C62;}
	.st12{fill:#A4C9E7;}
	.st13{fill:#334456;}
	.st14{fill:#6588AB;}
	.st15{fill:#BBBFC4;}
	.st16{fill:#4C6680;}
	.st17{fill:#A3B8CD;}
	.st18{fill:#FFA47C;}
	.st19{fill:#F0C6BD;}
	.st20{fill:#66AEDE;}
	.st21{fill:#E9BBB1;}
	.st22{fill:#1A72AD;}
	.st23{fill:#191919;}
	.st24{fill:#FFBD95;}
	.st25{fill:#1C77C3;}
	.st26{fill:#FFCC00;}
	.st27{fill:#0E3C62;}
	.st28{fill:#85BEE5;}
	.st29{fill:#F6A71C;}
	.st30{fill:#ED7875;}
	.st31{fill:#A91613;}
	.st32{fill:#E11E19;}
	.st33{fill:#E74B47;}
	.st34{fill:#E5B7A3;}
	.st35{fill:#F0C8B2;}
	.st36{fill:#254E6D;}
	.st37{fill:#EECDB2;}
	.st38{fill:#3B1B1D;}
	.st39{fill:#722C1D;}
	.st40{fill:#CEE0FF;}
	.st41{fill:#84A0BC;}
	.st42{fill:#B5CCF9;}
	.st43{fill:#F3A5A3;}
	.st44{fill:#AD7949;}
	.st45{fill:#B9B9BD;}
	.st46{fill:#9D6638;}
	.st47{fill:#C08759;}
</style>
<g>
	<g id="Layer_1_1_">
		<polygon class="st0" points="24,170.2 180.7,26.4 468.3,136.6 311.6,280.4 		"/>
		<ellipse class="st1" cx="459.8" cy="251.2" rx="20.9" ry="2.6"/>
		<path class="st2" d="M478.6,217.1c0-1.5,0-3.8-18.8-3.8s-18.8,2.3-18.8,3.8c0,0.2,0,0.4,0,0.7l0,0l3.7,25.6
			c0.5,4.4,4.3,7.8,8.7,7.8h13.1c4.5,0,8.2-3.4,8.7-7.8l3.2-25.8c0-0.1,0-0.1,0-0.2C478.5,217.2,478.5,217.2,478.6,217.1z"/>
		<ellipse class="st3" cx="459.8" cy="216.7" rx="16.8" ry="2.2"/>
		<rect x="458.1" y="103.7" class="st4" width="3.3" height="115.2"/>
		<path class="st5" d="M496,125.4c3.6,2.7,5.2,5.6,1,7.1c3.2,3.3,1.9,6-2.5,6.7c2.5,3.9,2.2,7.2-2.4,6.9c1.8,4.4-3.4,3.6-7.5,2.8
			c0.7,4.4-2.5,3.8-6.3,2.4c-0.3,4.2-0.5,7.9-4.1,5.4c-0.9,4.4-4.2,1.8-7.1-1c-1.8,3.8-3.6,4.9-6,1.4c-2.6,3.5-4.7,4.3-6.4,0.4
			c-3.2,3-5.5,3-6.3-1.3c-3.7,2.4-8.3,5.1-8,0.4c-4.3,2-3.7-3.1-2.8-7.4c-4.3,0.9-6.6-0.4-4.9-4.6c-4.4,0.1-4.5-2.6-2.1-6.3
			c-4.2-0.8-6.9-2.5-3.7-5.8c-4.1-1.5-2.2-4.1,1.3-6.8c-3.6-2.4-5.6-5-1.5-6.8c-3.2-3-0.4-4.7,3.8-5.8c-2.4-3.5-4.7-7.8-0.1-7.8
			c-1.9-4.1,3.7-2.7,7.9-2.2c-0.7-4,1.2-4.7,5.2-3.5c0.1-4,0.3-8.5,4.1-6.2c0.8-4.2,3.2-1.4,6.5,1.2c1.6-3.6,7.1-7.1,9.5-3.6
			c2.7-3.6,3.4,1.6,5,5.1c3.2-2.5,5.4-4.7,6.3-0.7c3.7-2.1,2.5,2.6,2.9,6.4c3.7-1,5.8-1.9,5.3,2.1c4-0.4,9.2-1.7,7.5,2.3
			c4.4,0.1,3.8,4.5,1.6,7.9c4.1,1.2,3.3,3.3,0.5,6.2C496.6,121.8,499.6,123.1,496,125.4z"/>
		<path class="st6" d="M421.5,128.7c-7.3-3.3-5.4-6.8,4.4-7.2c-4.5-3.6-1.3-3.3,6.6-1.3c-2.4-3.8,0.3-2.9,6.3,0.2
			c-0.6-3.7,2.5-9.9,6.6-4.9c1.3-4.8,3.6,0.2,5.9,4.6c3-3.1,5.3-0.4,5.9,3.4c4.6-1.7,6.8,0.2,5.7,3.2c6.1-0.4,10.6-4.5,7.4-1.2
			c8,0.7,9.2,5.1,4.3,7c9,3.1,12.4,5.5,4.3,7.1c7.3,3.2,2.8,4.2-6.5,4.5c3.9,3.2,1.7,5.8-5.9,3.8c2,3.9-0.7,8.1-6.4,4.1
			c0.2,4.9-2.7,4.4-6.5-0.5c-1.6,4.6-4.2,2.3-6.2-2.5c-3.5,3.6-6.7,5.7-6.6,0.5c-5.2,3-6.3-5-4.8-8.1c-6.5,0.4-9.1,0-5.8-2.6
			c-8-1.1-9.6-3-4.7-4.8C416.5,131,413.5,130.6,421.5,128.7z"/>
		<path class="st7" d="M446.4,140.7c-8,0.8-8.1-3.1,0.2-8.5c-5.7-0.8-2.8-2.2,5-4.5c-4-2.1-1.2-2.6,5.5-3c-2.4-2.9-2.9-9.8,3.2-7.6
			c-1.3-4.7,3.2-1.6,7.5,1c1.1-4.2,4.4-3,6.8-0.1c3.1-3.8,5.9-3.3,6.6-0.1c5.1-3.4,6.9-9.3,5.8-4.7c7.3-3.4,10.5-0.2,7.3,3.8
			c9.4-1.9,13.4-1.5,7.3,3.9c7.9-0.9,4.5,2.2-3.3,7.1c5,0.8,4.4,4.1-3.1,6.3c3.7,2.4,3.5,7.3-3.4,6.8c2.6,4.2-0.1,5.1-5.9,2.8
			c0.9,4.8-2.5,4.1-6.6,1c-1.2,4.7-2.9,8.3-5.5,3.8c-3,5.2-7.9-1.1-8.2-4.5c-5.4,3.6-7.8,4.6-6.4,0.7c-7.5,3.1-9.8,2.3-6.5-1.8
			C443.2,145.2,440.3,146.4,446.4,140.7z"/>
		<path class="st5" d="M495.7,130.1c4.4,3.6,2,5.8-4.5,5c2.4,4.1,0,3.9-5.5,1.1c0.8,4-1.5,8-5.6,3.3c-0.7,4.5-2.5,1-5.2-3.7
			c-1.9,3.1-5.1,5.4-6.1,0.2c-3.4,2.4-4.9-1-4.5-5c-4.4,0.7-7.3,0.1-5.4-3.3c-5.5-0.7-6.1-3.8-3.1-6.1c-5.9-2.2-6.8-4.1-2.5-5.7
			c-5.6-3.4-7.6-5.8-1.5-6.8c-4.4-3.8-1.3-6.8,5-5.6c-2.3-4.7,0.7-3,5.9,0.1c-0.5-4.3,1.4-4.3,5.3-0.1c0.8-3.9,3.7-8.1,6-2.5
			c2.3-4,3.9-0.3,4.8,4.6c3.5-2.2,4.6,1.2,4.2,5c4.4-0.6,8.6-2.4,6.4,1.2c5.7,0.5,5.7,4.1,2.6,6.5c5.9,2.1,6.5,3.9,2.1,5.6
			C500,127.3,501.8,129,495.7,130.1z"/>
		<path class="st5" d="M424.2,125.7c-7.9-1.4-6.9-5.2,2.5-8.1c-5.2-2.3-2.1-2.9,6.1-3c-3.3-3.1-0.5-2.8,6.1-1.4
			c-1.5-3.4-0.1-10.2,5.2-6.4c0-5,3.5-0.7,6.9,3c2.2-3.8,5-1.7,6.5,1.8c4-2.8,6.7-1.5,6.4,1.7c5.9-1.9,9.2-7,6.8-3
			c8-1.3,10.2,2.6,5.9,5.7c9.5,0.7,13.3,2.2,5.9,5.7c7.9,1.3,3.7,3.4-5.2,5.9c4.6,2.1,3.1,5.2-4.7,5.2c2.9,3.2,1.3,8-5.2,5.6
			c1.4,4.7-1.5,4.9-6.4,1.2c-0.4,4.9-3.5,3.3-6.6-0.8c-2.5,4.3-5.1,7.1-6.3,2.2c-4.3,4.2-7.3-3.3-6.7-6.6c-6.2,2-8.8,2.3-6.3-1
			c-8,1-10.1-0.5-5.7-3.5C419.9,129.2,416.8,129.5,424.2,125.7z"/>
		<path class="st7" d="M480.7,117.9c7.8,1.8,6.6,5.6-2.9,7.9c5.1,2.6,1.9,3-6.2,2.6c3.1,3.3-1.8,5.5-6.2,1.1
			c3.9,5.1-0.9,12.3-6.3,3.4c-0.3,5-2.8,3.2-6-0.7c-2.4,3.6-5.1,1.4-6.4-2.2c-4.2,2.5-6.7,1.1-6.3-2.1c-1.1,4.9-9.5,6.5-7,2.6
			c-8,0.8-10-3.2-5.6-6c-9.5-1.3-13.2-3-5.6-6.1c-7.8-1.7-3.6-3.6,5.5-5.7c-4.5-2.4-2.8-5.3,5-4.9c-2.7-3.4-0.9-8.1,5.5-5.2
			c-1.2-4.8,1.8-4.8,6.5-0.8c0.7-4.9,3.7-3.1,6.6,1.2c2.7-4.2,5.5-6.8,6.4-1.8c4.6-3.9,7.1,3.7,6.3,7c6.3-1.6,8.9-1.8,6.2,1.4
			c8.1-0.5,10,1.1,5.5,3.8C485.2,114.7,488.3,114.5,480.7,117.9z"/>
		<path class="st7" d="M498.7,119.5c4.7,3.1,2.6,5.5-3.9,5.5c2.8,3.8,0.4,3.9-5.3,1.7c1.2,3.9-0.6,8.2-5.2,4
			c-0.1,4.5-2.4,1.2-5.6-3.1c1.6,8.1-5.9,7.1-6,0.9c-3.1,2.8-5-0.5-5-4.5c-4.3,1.2-7.3,0.9-5.7-2.6c-5.5,0-6.5-3.1-3.7-5.7
			c-6.1-1.5-7.3-3.3-3.1-5.4c-5.9-2.7-8.2-4.9-2.2-6.5c-4.7-3.3-2.1-6.7,4.3-6.2c-2.8-4.4,0.4-3,5.9-0.5c-1-4.2,0.9-4.4,5.2-0.7
			c0.4-4,2.8-8.5,5.7-3.2c1.8-4.2,3.8-0.7,5.3,4c3.2-2.6,4.7,0.7,4.7,4.5c4.3-1.1,8.3-3.3,6.5,0.5c5.7-0.1,6.2,3.5,3.3,6.2
			c6.2,1.4,6.8,3.1,2.7,5.3C502.6,116.2,504.7,117.6,498.7,119.5z"/>
		<path class="st6" d="M487.3,106.2c5.9,1.1,4.8,4.3-1.5,6.9c4.3,2.6,2,3.6-4.5,3.9c2.8,3.3,2.7,8.2-3.4,6c1.7,4.5-1.8,2.2-6.7-0.7
			c-0.2,3.9-1.9,7.7-5.5,3.4c-1.9,4-5.1,1.6-6.8-2.3c-3.7,2.9-6.7,3.9-6.6-0.2c-5.4,2.2-7.6-0.4-6-4c-6.6,1-8.5-0.3-5.3-3.9
			c-6.9-0.2-10-1.4-4.9-5.5c-6-1.3-4.7-5.6,1.7-7.8c-4.5-3.1-0.9-3.1,5.6-3c-2.7-3.7-1-4.7,4.8-2.8c-1.3-4-0.8-9.5,4.3-5.4
			c0-4.9,3.4-2.3,6.8,1.8c2.1-3.8,4.9-1.3,6.5,2.4c3.8-2.8,6.7-6.6,6.5-2.2c5.6-2.5,7.4,0.8,5.8,4.7c6.6-1.2,8,0.2,4.8,4
			C489.7,101.4,492.3,102,487.3,106.2z"/>
		<path class="st8" d="M487.2,102.2c6.1,0.8,4.9,4.1-1.8,6.9c4.4,2.4,1.9,3.6-4.8,4c2.8,3.2,2.6,8.1-3.8,6.1c1.6,4.4-2,2.2-6.9-0.5
			c-0.3,3.8-2.2,7.7-5.8,3.6c-2.1,4.1-5.3,1.8-7-2.1c-4,3.1-7.1,4.1-6.9,0c-5.7,2.4-7.9-0.1-6.1-3.8c-6.8,1.2-8.7,0-5.3-3.7
			c-7.1,0-10.3-1-4.9-5.2c-6.2-1-4.7-5.4,2-7.8c-4.5-3-0.8-3.1,5.9-3.1c-2.7-3.6-0.8-4.6,5.1-3c-1.2-3.9-0.5-9.4,4.6-5.6
			c0.2-4.8,3.6-2.4,7,1.5c2.4-3.9,5.1-1.5,6.6,2.2c4-2.9,7.2-6.8,6.8-2.4c5.8-2.7,7.7,0.6,5.8,4.4c6.9-1.4,8.2,0,4.9,3.8
			C489.9,97.4,492.5,97.9,487.2,102.2z"/>
		<path class="st5" d="M139,193.3c3.7,1.6,8,1.5,11.7-0.2c3.6-1.9,4.9-5.4,3.7-8.3c-1.6-3.8-6.5-5.8-11-5.3
			c-3.9,0.4-9.4,2.8-11.4-3.4c-1.4-4,0-7.9,3-8.2c1.2,0,2.4,0.2,3.6,0.6c5.8,1.4,13.1-0.6,14.8-5c2-5.1-1.6-14.4-8-10.5
			c-1.7,1-3.2,2.6-4.9,3.6c-6.7,3.7-10.2-6.1-6.9-8.5c0.8-0.5,1.1-0.6,8-2.4c1.9-0.5,3.7-1.1,4.5-3.6c1.4-4-1.3-8.8-4-9.6
			c-4-1.3-6.6,4-10.4,4.3c-3.8,0.3-5.6-5.1-3.4-7.1c1.4-1.3,4-0.8,6.3-2.4c5.9-4,0-17.1-4.9-10.7c-1.2,1.6-2.2,3.9-3.8,4.7
			c-3.2,1.6-7.6-2.6-8.2-6.2c-0.4-2.9,1.1-2.1,2.4-1.4c2.2,1.1,4.9,0.2,6-2.1c0.1-0.2,0.2-0.5,0.3-0.7c0.5-2.4-0.5-4.8-2.5-6.2
			c-3.6-2.2-5.5,2.8-9.1,0.9c-1.9-1-4.4-4.5-3.4-7c0.8-1.9,2.7-1.9,3.9-3.2c1.6-1.7,0.7-5.3-2.1-6.4c-3.2-1.2-3.9,2.1-5.5,3.7
			c-2.5,2.5-7.1-0.3-6.2-6.7c0.3-2.2,0.6-4.1-0.4-6.2c-2.5-4.8-8.1-3.7-7.4,2.8c0.5,3.7,2.6,6.9,5.7,9c1,0.6,2.6,1.9,2.4,3.1
			c-0.4,1.6-1.4,3-2.8,3.8c-1.7,1-3.6,1.2-5.2,2.3c-0.8,0.7-1.4,1.5-1.8,2.4c-2.4,3.8,0.6,5.9,4.7,4.2c2.7-1.1,2.5-2.4,3.2-3.5
			c0.7-1.1,3.1-3.1,5.4-1.5c0.7,0.5,1.6,0.9,1.9,1.8c0.2,0.6,0.2,1.3,0.1,2c-0.4,2.8-3.6,2.9-6.3,4.5c-5,2.9,0.4,10.1,4.1,6.9
			c2.4-2.1,2.2-6.6,4.4-6.2c1.1,0.2,2.4,1.8,2.6,4c0.2,1.8-0.3,3.7-1.4,5.2c-0.5,1.2-1.4,2.2-2.6,2.8c-3.5,1.7-8,0.9-11,4.7
			c-3.7,4.6,1.2,8.7,5.3,9c3.3,0.3,8.1-1.3,8.9-5.8c0.1-0.6,0.2-1.2,0.3-1.8c0.9-5.2,5.5-4.8,6.2,2.1c0.2,2,0,4-0.6,5.9
			c-0.8,1.9-2.1,3.6-3.9,4.7c-4.9,3.1-8.2-0.7-10.8,1.8c-0.5,0.5-0.9,1.2-0.9,1.9c-0.6,4.9,6.5,9.2,10.8,5.1
			c0.8-0.8,1.5-1.8,2.4-2.6c3.6-3.6,6.2,2.1,5.9,5.5c-0.1,2.3-1.5,4.3-3.6,5.4c-4.1,1.8-10.1-1.6-13.4,2.3c-4.1,4.7,4,12.8,10.1,8.3
			c1.2-0.8,2.1-2,3.2-3c5.4-4.7,8.3,3.3,4.7,6.4c-0.9,0.7-2,1.2-3.1,1.3c-10.9,2.4-12.2,2.3-14.1,3.9c-2.8,2.7-3.2,7.1-0.9,10.2
			c1.3,1.3,2.9,2.2,4.7,2.6c2.5,0.8,5.2,1,7.8,0.6c2.1-0.1,4.1-0.3,6.1-0.8C133.6,187.8,134.4,191.1,139,193.3z"/>
		<path class="st9" d="M125.4,210.4c-0.6-11.3-0.2-22.4-0.2-33.4c0-5.5-0.2-10.9-0.7-16.4l-0.2-2c0-0.3-0.1-0.7-0.1-1l-0.1-1l-0.3-2
			l-0.3-2l-0.2-1l-0.1-0.5l-0.1-0.5l-0.4-2c-0.1-0.7-0.3-1.3-0.4-2s-0.3-1.4-0.4-2c-2.2-10.7-5.4-21.2-9.5-31.3
			c-0.3-0.6-0.5-1.3-0.8-1.9l-0.8-1.9c-0.3-0.6-0.6-1.2-0.8-1.9s-0.6-1.2-0.9-1.9c-1.2-2.4-2.5-4.7-3.8-7.1
			c-2.8-4.7-5.8-9.4-8.6-14.2c2.9,4.8,6,9.4,8.9,14.1c1.4,2.4,2.8,4.7,4,7.1c0.3,0.6,0.6,1.2,0.9,1.8c0.3,0.7,0.6,1.2,0.9,1.9
			l0.9,1.9c0.3,0.6,0.5,1.2,0.8,1.9c4.3,10.1,7.7,20.6,10.1,31.3c0.2,0.7,0.3,1.3,0.4,2c0.1,0.7,0.3,1.3,0.4,2l0.4,2l0.1,0.5
			l0.1,0.5l0.2,1l0.4,2l0.3,2l0.1,1c0,0.3,0.1,0.7,0.1,1l0.2,2c0.6,5.5,0.9,11,1,16.5c0.3,11.1,0.1,22.2,0.9,33.2L125.4,210.4z"/>
		<path class="st6" d="M145.1,194.5c10.6,2.7,16.1-9.9,9.6-14.8c-6.3-4.7-12.7,0.5-17.1,0.1c-5.5-0.6-7.1-10.2-1.7-10.7
			c2.9-0.2,5.7,4.4,15.2,1.5c1.2-0.4,4.2-2,4.3-5.1c0-2.8-3.4-6.2-7.8-6.2c-2.8,0-10.6,3.6-11.1-0.9c-0.1-1.2,0.3-2.5,1.2-3.4
			c1.7-1.6,3-0.8,10,1.2c1.2,0.4,2.4,0.6,3.7,0.4c4.5-1,6-8.2,3.5-11.1c-1.4-1.6-3.4-1.6-5.4-1.4c-2,0.2-6.4,0.9-7.5-2.4
			c-0.7-2.1,0.3-5.2,2.6-5.6c2.6-0.5,7.1,3.9,11-1.2c2.1-2.8,2.7-8-0.3-9c-3-1-5.7,2.4-8.6,2.1c-2.8-0.3-4.5-4.2-4.3-7.3
			c0.1-1.7,1-3.9,2-3.5c0.5,0.2,0.9,0.8,1.3,1.4c1.7,2.6,6.2,3.4,8-0.7c0.7-1.5,0.7-3.2,0-4.7c-1.9-3.7-6.2-0.5-8.3-3.9
			c-1.2-1.9-1.4-6,0.7-7.5c1.6-1.2,3.3-0.2,5-0.7c1-0.3,1.8-1.1,2.1-2c1.1-2.7-0.7-5.5-2.7-5.5c-1.5,0-3,1.1-4.5,1.5
			c-3.4,0.8-5.8-4-1.7-8.7c1.2-1.4,2.7-3,2.9-5.3c0.2-2.7-1.5-5.5-4.1-4.9c-4.1,0.9-6.3,8.5-3.5,13.7c0.5,1,1.2,2.9,0.4,3.8
			c-1.2,1.2-2.8,1.8-4.4,1.7c-0.9-0.1-1.9-0.2-2.8-0.5c-3.2-0.7-3.8-0.2-5.6,0.7c-1.1,0.5-2.4,1.5-2.4,2.7c-0.1,2.6,4.9,4,7,3.1
			c0.6-0.3,1.1-0.8,1.7-1.1c1.3-0.7,4.2-0.9,5.4,1.5c0.5,1.2,1.4,2.1-0.3,4.1c-1.1,1.2-2.2,1.3-4.7,0.9c-2.1-0.3-6.2-1.3-6.8,2.6
			c-0.6,3.2,1.9,7.3,7.3,3c1.1-0.9,2.5-1.9,3.5-1c0.7,0.6,1.2,2.5,0.2,4.6c-0.8,1.6-2.2,2.9-3.9,3.6c-2,1.1-2.8,1.6-7.7,0
			c-2.4-0.8-4.9-1.7-7.8-0.6c-3.3,1.2-4.2,3.8-2.8,6.8c2.3,5.1,8.8,6.3,12,4.3c1.8-1.1,2.3-3.1,4.7-4.1c2.2-0.9,3.3,1.1,3,3.4
			c-1.1,7.4-9.5,12.4-15.4,8c-0.9-0.9-2-1.6-3.1-2.2c-2.6-1-4.8,1.3-4.7,4.4c0.1,3.1,3.3,7.1,7.7,6.3c1.1-0.2,2.2-0.7,3.3-0.9
			c2.8-0.6,4,1,3.7,3.7c-0.3,3.6-4.1,8.2-7.3,8.9c-5,1-8.6-6.2-12.9-2.1c-7.5,7.3,0.4,23,7.9,15.8c1.1-1.1,2.1-2.6,3.2-3.7
			c5.1-5.1,8.2,3.7,4.9,7.4c-1.3,1.4-1.9,1.2-12.2,5c-2.7,1-4.3,1.9-5.4,4.7c-0.6,1.4-0.7,3-0.4,4.5c0.7,2.7,2.6,3.9,10.2,4.2
			c3.4-0.1,6.8-0.5,10.2-1.3c4.6-1.5,8.9-2.9,12.4-1.5C140.1,191.7,141.5,193.6,145.1,194.5z"/>
		<path class="st5" d="M125.3,207.9c2.2-4.3,3.3-9.1,3.1-13.9c-0.1-2.6-0.3-5.1-0.6-7.7c-0.3-2.6-0.7-5.3-1.1-8
			c-0.4-2.7-0.7-5.5-0.8-8.3c-0.1-2.9,0-5.8,0.4-8.6c0-0.4,0.1-0.7,0.2-1.1c0.1-0.4,0.1-0.7,0.2-1.1l0.2-1.1
			c0.1-0.4,0.2-0.7,0.3-1.1l0.3-1.1c0-0.2,0.1-0.4,0.2-0.5l0.2-0.5l0.4-1l0.1-0.3l0.1-0.2l0.2-0.5l0.7-1.9l0.7-1.9
			c0.5-1.2,0.9-2.5,1.4-3.7c3.6-10,6.2-20.3,8-30.8c0.1-0.7,0.2-1.3,0.3-2s0.2-1.3,0.3-2l0.3-2c0.1-0.7,0.1-1.3,0.2-2
			c0.2-2.6,0.4-5.2,0.4-7.9c0.1-5.3,0-10.7,0.2-16.2c-0.1,5.5,0.1,10.9,0.1,16.2c0,2.7-0.1,5.3-0.3,7.9c-0.1,0.7-0.1,1.3-0.2,2
			l-0.2,2c0,0.7-0.2,1.3-0.2,2c-0.1,0.7-0.2,1.3-0.3,2c-1.5,10.6-4,21-7.4,31.1c-0.4,1.3-0.9,2.5-1.3,3.8l-0.7,1.9l-0.7,1.9
			l-0.2,0.5l-0.1,0.2l-0.1,0.2l-0.3,1l-0.2,0.5c0,0.2-0.1,0.3-0.1,0.5l-0.3,1c-0.1,0.3-0.2,0.7-0.2,1l-0.2,1c0,0.3-0.1,0.7-0.2,1
			c-0.1,0.3-0.1,0.7-0.2,1c-0.3,2.8-0.4,5.5-0.2,8.3c0.2,2.8,0.5,5.4,0.9,8.1c1,5.3,1.6,10.6,2,15.9c0,0.7,0,1.3,0,2
			c0,0.3,0,0.7,0,1v1c-0.1,1.3-0.3,2.6-0.5,3.9c-0.5,2.6-1.3,5.1-2.5,7.4L125.3,207.9z"/>
		<path class="st10" d="M100.9,208.5c0,0-3.2,36.8,14.6,45.9l23.1,0.1c0,0,13.6-1.5,15-46.1H100.9z"/>
		<path class="st11" d="M100.7,210.2c-0.4,7.4-0.7,36.2,14.8,44.2l23.1,0.1c0.3-0.1,0.6-0.1,0.9-0.3c-4.9-2.4-5.9-4.1-9.1-8.6
			c-4.6-6.5-4.4-4.4-16.9-11.3C105.4,229.9,102.1,218,100.7,210.2"/>
		<path class="st12" d="M374,38.4h-11.4c-5.9,0-10.7,4.8-10.7,10.7c0,0,0,0,0,0l0,0c0,5.9,4.8,10.7,10.7,10.7H374
			c5.9,0,10.7-4.8,10.7-10.7l0,0C384.7,43.2,379.9,38.4,374,38.4L374,38.4z"/>
		<polygon class="st12" points="380,65.9 380,57.8 370,57.8 		"/>
		<path class="st12" d="M291.3,9.3h-16.6c-8.6,0-15.5,7-15.5,15.6c0,8.6,7,15.5,15.5,15.5h16.6c8.6,0,15.5-7,15.5-15.6
			C306.8,16.3,299.8,9.3,291.3,9.3z"/>
		<polygon class="st12" points="265.9,49.2 280.4,37.5 265.9,37.5 		"/>
		<polygon class="st13" points="179.8,218.3 136.4,218.3 136.4,249.6 179.8,249.6 182.5,249.6 362.2,249.6 362.2,218.3 182.5,218.3 
					"/>
		<path class="st14" d="M357,132.6H144.4c-9,0-16.3,9.3-16.3,20.8v34.2h245.2v-34.2C373.3,141.9,366,132.6,357,132.6z"/>
		<polygon class="st15" points="144.9,249.6 147.2,249.6 159,236.7 350,225.3 353.3,249.6 356.5,249.6 356.5,218.3 144.9,218.3 		
			"/>
		<polygon class="st16" points="143.8,178.5 143.1,191.8 363.1,188.9 362.2,154.4 		"/>
		<rect x="144.9" y="186.5" class="st17" width="211.5" height="31.8"/>
		<path class="st17" d="M136.8,151.7h-5.3c-4.5,0-8.1,3.7-8.2,8.2v96.9h21.6v-96.9C144.9,155.4,141.3,151.7,136.8,151.7z"/>
		<path class="st17" d="M369.4,151.7h-5.3c-4.5,0-8.1,3.7-8.2,8.2v96.9h21.6v-96.9C377.5,155.4,373.9,151.7,369.4,151.7z"/>
		<polygon class="st15" points="202.2,186.5 202.2,249.6 248,249.5 275.7,197.9 212,178 		"/>
		<path class="st18" d="M273.1,102L273.1,102c-0.5,0-0.8,0.5-0.8,1l0.4,3.7c0,0.5,0.5,0.8,0.9,0.8l0,0c0.5,0,0.8-0.5,0.8-0.9
			c0,0,0,0,0,0l-0.4-3.7C274.1,102.3,273.6,101.9,273.1,102C273.2,102,273.2,102,273.1,102z"/>
		<path class="st19" d="M274.7,101.7L274.7,101.7c-0.5,0-0.8,0.5-0.8,0.9l0.4,3.7c0,0.5,0.5,0.8,0.9,0.8l0,0c0.5,0,0.8-0.5,0.8-0.9
			l-0.4-3.7C275.7,102,275.2,101.6,274.7,101.7C274.8,101.7,274.8,101.7,274.7,101.7z"/>
		<path class="st19" d="M276.3,101.4L276.3,101.4c-0.5,0-0.8,0.5-0.8,0.9l0.4,3.7c0,0.5,0.5,0.8,0.9,0.8l0,0c0.5,0,0.8-0.5,0.8-0.9
			l-0.4-3.7C277.2,101.7,276.8,101.4,276.3,101.4z"/>
		<path class="st19" d="M277.9,101.4L277.9,101.4c-0.5,0-0.8,0.5-0.8,0.9c0,0,0,0,0,0l0.4,3.7c0,0.5,0.5,0.8,0.9,0.8l0,0
			c0.5,0,0.8-0.5,0.8-0.9l-0.4-3.7C278.8,101.7,278.3,101.3,277.9,101.4z"/>
		<path class="st18" d="M276.2,103.3c-1.1,0-3.8-0.4-3.8-0.4c-0.3,2-0.4,3.9-0.3,5.9c0.2,1.2,0.6,2.5,1,3.6l5,2.1
			c0.8-2.3,1.4-4.7,1.9-7.1c-0.3-1.9-0.7-3.8-1.3-5.7C278.7,101.8,277.3,103.4,276.2,103.3z"/>
		<path class="st20" d="M257.3,104.4c-3.6-0.4-6.2,3.9-6.3,9.5c-0.1,5.6,6.3,34.8,7.7,35.9c1.5,1.2,6.3,1.9,7.4-0.5
			c1.1-2.4-0.3-27.7-1.2-32.3S262,104.8,257.3,104.4z"/>
		<path class="st21" d="M260.3,142c-0.6,1.8-2.4,9.6,3.7,8.9c3.6-0.4,6.8-8.9,8.6-15.2c1.8-6.3,6.6-25.2,6.6-25.2l-5.5-1.8
			C273.7,108.7,260.9,140.2,260.3,142z"/>
		<path d="M242.5,220.9c0,0,12.8-2.4,19.5-3.6s32.7-24.5,32.7-24.5l-43.2-12.4L242.5,220.9z"/>
		<path class="st18" d="M242.1,165.6c-2.5-0.8-18.9,6.8-18,22.1c0.2,3.6,19.3,9.4,32.7,10.3c12.8,0.9,29.8,3.8,31,3
			c1.2-0.8,4.9-9.4,4.4-11C291.7,188.3,244.6,166.4,242.1,165.6z"/>
		<path class="st21" d="M238,236.9c-1.7,1.3-3.6,2.3-5.7,2.7c-1.8,0.6-3.7,2.7-3.7,3.8c0.1,3,2.4,4.3,3.1,7.4
			c0.7,3.1-0.8,10.2,0.3,12.2s5,5.5,6,5s0.1-7.1,0.1-7.1c1.5-12.8,4.3-16.6,4.3-16.6S238.3,236.7,238,236.9z"/>
		<path class="st22" d="M237.8,263c-0.7,0.2-2.2-1.7-2.4-2.3c-1.6-5.7-2.4-11.7-2.4-17.7c0.2-1.5,0.8-2.9,1.7-4.1
			c-0.4-0.3-4,0.5-5.4,2.5c-0.4,0.7-0.7,1.4-0.8,2.1c0,1.7,1.5,6.1,1.8,7.5c0.7,3.1-1.1,9.9,0.1,11.9c1.2,1.9,6.7,7.4,7.7,6.9
			c0.8-0.4,0.4-5.8-0.1-8.9C238.1,260.9,238.2,262.9,237.8,263z"/>
		<path class="st23" d="M227,246.5c-1.2,2-2.6,3.9-4.2,5.7l0.7,0.7c0,0,5.5-7.1,6.9-1.9c0.4,1.6-0.7-9.9-0.7-9.9
			S227.7,245.1,227,246.5z"/>
		<path class="st21" d="M281.8,189.6c-8.7,0.4-20.3,11-24.1,15.7c-3.8,4.7-19.9,32.7-21.6,34.1c-1.7,1.4,5.6,5.7,6.4,4.7
			c7.8-9.4,33-30.1,35.5-32.1c2.5-2,13.9-8.9,15.8-13.2C297.7,189.9,286.7,189.4,281.8,189.6z"/>
		<path class="st19" d="M260.7,106c-1.3-2.4-9.1-8.2-9.1-9.3s2.9-14.5,2.9-14.5l-13.1-7.5c0,0-1.9,15.9-3.1,16.5
			c-3.6,2-13.1,2.7-16,6.8c-3.6,4.9,6.8,24.1,6.2,41.1c-0.3,8.2-11.3,21.3-13.9,28.8c-2.6,7.5,22.1,18.4,23.1,18.6
			c0.9,0.2,12.9-5.1,14.9-7.4s1.4-26.2,2.3-31.3s4.1-15.1,5.1-15.8c1-0.8,4.7-3.2,5.4-6.5c0.9-4.7-5.1-12.8-5.1-14.5
			C260.2,109.5,261.3,107.2,260.7,106z"/>
		<path class="st24" d="M243.8,169.9c-1.9-0.8-22.4-12.9-28-4.7c-1.6,2.3-4.1,9.8-3.2,14.7c1.4,7.9,14.7,12.7,27.9,15.4
			c17.8,3.6,33,7.7,34.2,7c1.2-0.7,4.7-8.8,4.3-10.5C278.7,190.1,246.2,171,243.8,169.9z"/>
		<polygon class="st21" points="242.4,75.8 239,84.3 236.7,93 254,99.4 251.6,96.7 254.1,83.9 		"/>
		<path class="st19" d="M267.3,190.7c-8.1,3-15.4,16.2-17.6,21.8c-2.2,5.6-8.8,37.7-10,39.5c-1.2,1.8,6.4,5,6.9,3.9
			c6.4-14.2,22.9-38.3,24.6-41c1.8-2.7,6.1-13.6,8.4-18.6C282.6,189.6,272,189,267.3,190.7z"/>
		<path class="st24" d="M247,255.1c0,0-6.3-5.9-6.5-5.5c-1.2,1.8-2.8,3.3-4.6,4.4c-1.6,1.1-2.7,3.7-2.4,4.7c1,2.9,3.7,3.4,5.3,6.1
			c1.6,2.7,2.4,9.9,4.2,11.4c1.8,1.5,6.5,3.7,7.3,2.9c0.8-0.8-2.2-6.8-2.2-6.8C245.6,259.7,247,255.1,247,255.1z"/>
		<path class="st25" d="M248.5,274.4c-0.6,0.3-2.6-0.9-3-1.5c-3.4-4.9-6-10.3-7.8-16c-0.3-1.5-0.2-3,0.3-4.4c-0.4-0.2-3.6,1.7-4.3,4
			c-0.2,0.7-0.2,1.5-0.1,2.2c0.6,1.6,3.4,5.4,4.1,6.5c1.6,2.7,2.1,9.8,3.9,11.3s8.7,4.9,9.5,4.1s-1.5-5.6-2.9-8.4
			C248.2,272.3,248.9,274.1,248.5,274.4z"/>
		<path class="st25" d="M233,262.1c-0.6,2.3-1.3,4.5-2.2,6.6l0.9,0.4c0,0,3-8.4,5.9-3.9c0.9,1.4-3.9-9.2-3.9-9.2
			S233.3,260.6,233,262.1z"/>
		<path class="st26" d="M254.9,167.3c0-0.3,0.1-0.9,0.1-1.6c-14,5-25.5,4.3-37-6.8c-1.2,2.1-2.3,4.3-3.2,6.5
			c-3.2,7.7-4.5,12-0.6,19.1c2.7,4.9,5.9,4.7,6.9,6.4c9.6,15.3,21.4,30,21.4,30s20.7-20.2,31.5-27.1c4.5-2.9,20.7-0.2,20.8-1.1
			C294.8,184.6,254.6,169.5,254.9,167.3z"/>
		<path class="st19" d="M260.9,70.5c0.2-0.6,1.7-7.3-2.7-11c-3.9-3.2-14.8-5.9-19.7,1.6s-2.1,14.4,1,18.7c2.2,3.2,5.4,5.6,9.1,6.9
			c0.9,0.4,5.9,2.1,9.7,0.5c2.4-1.1,2.2-8.1,2.5-8.1c0.6-0.1,1.1-0.6,1.2-1.2C262.1,76.8,260.8,71.1,260.9,70.5z"/>
		<path class="st27" d="M251.7,56.4c-2.4,1.2,5.9,5.8,5.9,5.8s1.8,3,2.7,3.3c0.9,0.3,1,1.6,1,1.6c0.9-1.8,0.8-4-0.4-5.7
			C259.1,58.4,254.2,55.2,251.7,56.4z"/>
		<path class="st28" d="M262.4,115.8l-0.2-7.5l-0.6-1.2c-0.6-1.2-9.5-9.8-9.5-9.8l6.4,17l-2.9-0.8L237,92.1c0,0-12.2,2.2-14.4,5
			c-2.2,2.9-2.6,8.3-2.6,8.3l12.9,6.6c-1.2,0.6-2.3,1.4-3.4,2.2c-1.4,1.5-2.6,3.1-3.8,4.7c0,0,2.8,13.4,2.6,19
			c-0.1,4.4-5.9,12.8-10.4,20.8c11.5,11.1,23,11.8,37,6.8c0.1-3.8,0.2-12,0.7-16.6c0.6-5.5,2.8-15.1,4.5-16.6s5.3-4.5,5.7-8
			C266.2,121.5,263.2,116.9,262.4,115.8z"/>
		<path class="st29" d="M223.9,178.8c-5.5-7.3-1.1-15.8-1.1-15.8l-0.1-0.1c-1.7-1.2-3.3-2.5-4.7-4l0,0c-1.2,2.1-2.3,4.3-3.2,6.5
			c-3.2,7.7-4.5,12-0.6,19.1c2.7,4.9,5.9,4.7,6.9,6.4c9.6,15.3,21.4,30,21.4,30s5.6-5.4,12.4-11.6l0,0
			C254.9,209.3,229.4,186.1,223.9,178.8z"/>
		<path class="st20" d="M241.4,126.8c-8.5-4.3-5.4-20.3-9.6-26.1c-1.2-1.6-5.3-2.1-9.4-3.2c-2,2.9-2.4,8-2.4,8h0.1
			c0.1,2.8,2.6,8.1,5.7,13.5l0,0c0,0,2.8,13.4,2.6,19c-0.1,4.4-5.9,12.8-10.4,20.8c10.2,9.8,20.4,11.5,32.4,8.2
			c0.1-1-0.2-1.9-0.9-2.6c-1.6-1.4-13.1-5.4-10.3-13.1c2.7-7.7,18.8-17.5,18.2-19.5C256.7,130,249.9,131.1,241.4,126.8z"/>
		<path class="st12" d="M227.8,96.1c-3.4-1-6.7,2.8-7.7,8.6s0.2,36.8,1.4,38.2c1.2,1.4,5.9,3.1,7.3,0.8s4.4-28.5,4.4-33.3
			S232.3,97.4,227.8,96.1z"/>
		<path class="st19" d="M228.9,136.6c-1.8,0.1-9.4,1.2-6.6,6.5c1.6,3.1,10.4,3.3,16.7,2.7s24.9-2.7,24.9-2.7l-0.4-5.8
			C263.5,137.4,230.7,136.5,228.9,136.6z"/>
		<path class="st30" d="M270.8,137.5c7.7,0,13.9-1.9,13.9-4.3h-27.9C256.8,135.6,263.1,137.5,270.8,137.5z"/>
		<path class="st31" d="M263.6,136.9H278c0.2,0,0.3,0.1,0.3,0.3v0.1c0,0.2-0.1,0.3-0.3,0.3h-14.4c-0.2,0-0.3-0.1-0.3-0.3v-0.1
			C263.4,137,263.5,136.9,263.6,136.9z"/>
		<path class="st32" d="M267.3,110.3c0,0.5,0.4,0.9,0.9,0.9h11.5c0.5,0,0.9-0.4,0.9-0.9v-8.4h-13.2V110.3z"/>
		<path class="st33" d="M267.3,110.3c0,0.5,0.4,0.9,0.9,0.9h2.7v-9.3h-3.6L267.3,110.3z"/>
		<rect x="268.3" y="111.1" class="st31" width="11.4" height="1.2"/>
		<path class="st19" d="M273.5,137.4c0.2,0,0.1-0.7-0.7-0.8c-0.9-0.2-5.6-0.8-6.4-0.8c-0.8,0-2.9,1.6-2.9,1.6l-0.2,5.7
			c0,0,5.2-0.4,7.9-0.8c2.7-0.4,8.2-6.8,7.6-7S273.3,137.4,273.5,137.4z"/>
		<path class="st27" d="M258.5,63.3c0.2,0.9-2.6,5.2-5.2,5.8s-7.5-0.2-8.9,0.5c-1.4,0.7-4.6,8.3-5.1,9.5l0.9,1.9
			c0,0-0.7,4.7-0.1,6.2c4.3,9.5-0.2,13.3-0.2,13.3s-5,2-8.7-3.1c-0.9-1.3-6-2.2-6-2.2s0.5-0.9-2.5-2.7c-3-1.8,2.1-6.2,4.3-7.8
			c2.1-1.7-0.4-4.2-1.9-7.8c-1.5-3.7,5.5-4,4.9-7.5c-0.4-2.5,3.1-4.2,5.1-4.9c1.9-5.1,7.6-7.6,11.5-8
			C250.7,56,257.2,56.2,258.5,63.3z"/>
		<path class="st14" d="M427.5,159l-45.3,12c-10.5,2.8-17.8,12.3-17.8,23.1v24h64.2l5.9-53.2c0.3-3.1-1.9-5.8-4.9-6.1
			C428.9,158.7,428.2,158.8,427.5,159z"/>
		<path class="st34" d="M324.8,88.8c-0.1,1.6,5,5.8,6.7,7.4c1.4,1.5,2.5,3.1,3.6,4.9l6.7-0.9c0,0-4.7-7.9-7.6-10.9
			C331.3,86.4,325,87.2,324.8,88.8z"/>
		<path class="st35" d="M328.5,90.4c-1.3-0.6,0.7-3.6-0.2-4.6c-0.2-0.3-1.3,0.6-1.3,0.2c0-0.4,0.5-1.7-0.2-2.3
			c-0.2-0.2-1.3,0.2-1.3,0.2c0.1-0.6,0-1.3-0.1-1.9c-0.3-0.4-0.9-0.7-1.3-0.2c-0.7,1-1.2,2.1-1.6,3.2c-0.3-1.2-0.5-2.4-0.6-3.6
			c-0.2-1.8-1.3-2.5-1.6-2.4s-0.5,3.4-0.6,3.9c-0.2,1.6,0,3.2,0.5,4.7c0.3,0.3,0.6,0.6,1,0.8c0.2,0.2-0.1,0.7,0.7,1.2
			c0.2,0.1,0.7,0.3,0.9,0.5s0.4,0.6,0.6,0.8s0.4,0.1,0.6,0.3s0.5,0.6,0.7,0.7c0.2,0.2,0.8,0.3,1,0.5c1.5,1,3.1,1.9,4.7,2.6
			C331.2,93.1,329.2,90.7,328.5,90.4z"/>
		<path class="st36" d="M339.3,260.9c0,0-5.2,1.8-13.1,9.1c-3.1,2.9-12.7,5.1-12.9,6.3c-0.2,1.2,5.2,1.4,8.2,1.4
			c10.2,0,11.7-2.3,15.7-2.8c4.1-0.5,8.3-0.7,12.5-0.7c1.3,0,2.5-4.3,2.4-6.3c-0.3-2.6-1.1-5-2.4-7.3
			C349.4,260.3,339.3,260.9,339.3,260.9z"/>
		<rect x="339.9" y="274.3" class="st27" width="10.2" height="1.9"/>
		<path class="st27" d="M410.3,174.9l-23.2,1.5l-1.4,3.7c0,0-33.4,7.9-39.9,14.4c-4.2,4.2-12.3,69.5-12.3,69.5s2.7,2.5,9.6,3
			s9.3,0,9.3,0s10.6-43.4,10.2-49.2c-0.3-5.7,1.9-14.4,1.9-14.4s44.6-2.2,47.6-4.9C429.5,183.5,410.3,174.9,410.3,174.9z"/>
		<path class="st26" d="M385.9,111.6c-4.7,1.9-28.9,15.2-30.6,17.5c-1.7,2.3,2.9,8,4.7,8.8c3.5,1.5,31.9-10.6,37.2-13.8
			c5.2-3.3,8.3-7.8,4.6-12.9C397.5,105.2,390.6,109.6,385.9,111.6z"/>
		<path class="st37" d="M429.8,113.4c-2.3-4.7-10.2-7.3-12.4-11.1c-0.7-1.2-2.2-18.8-2.2-18.8l-14.6,5.7c0,0-1,15.6-1.2,16.8
			s-9.9,4.3-11.6,6.6c-0.9,1.2-0.7,4.1-1,5.9c-1.4,5.5-1.6,11.2-0.5,16.7c0.3,1.2,1.9,20.3,2.1,25.7c0.1,5.4-3,26.7-1.3,29.4
			c1.7,2.7,12.2,10.5,13.2,10.5s25.1-5.7,23.6-14s-3.9-26.3-2.1-34.9C423.6,143.3,432.6,119.1,429.8,113.4z"/>
		<rect x="362.5" y="282.2" class="st27" width="10.2" height="2"/>
		<path class="st36" d="M362,268.4c0,0-5.2,1.8-13.1,9.4c-3.1,3-12.7,5.3-12.9,6.6c-0.2,1.3,5.2,1.5,8.2,1.5
			c10.2,0,11.7-2.4,15.7-2.9c4.1-0.5,8.3-0.8,12.5-0.7c1.3,0,2.5-4.4,2.4-6.6c-0.3-2.6-1.1-5.2-2.4-7.5
			C372.1,267.7,362,268.4,362,268.4z"/>
		<path class="st26" d="M431.3,116.5c0.2-3.6-1.9-6.9-5.2-8.2c-3-1.7-5.9-3.7-8.6-5.9L400.8,113l-1.2-7.1c0,0-9.7,1.8-11,4.1
			c-1.3,2.3-2.4,9.6-2.8,11.4s-0.5,10.2,0.4,17.4c0.5,4.2,0.5,9.8,1.3,17c0.7,6.1-0.2,21.8-0.2,21.8c5,1.2,10.1,1.5,15.3,1.1
			c10.5-0.7,21.5-2.9,22-3.3c2-1.7-2-12.9-0.9-21.4C423.7,152.2,431.1,120.6,431.3,116.5z"/>
		<path class="st29" d="M431.3,116.5c0.2-3.6-1.9-6.9-5.2-8.2l-0.4-0.2l-1.4,0.4c0,0-9-2.5-14.7,27.5c-3.3,17.5-23,9.4-23,9.4l0,0
			c0.2,3.1,0.4,6.5,0.8,10.5c0.7,6.1-0.2,21.8-0.2,21.8c0.9,0.2,1.8,0.4,2.6,0.8l15.9,0.1c9.4-0.4,18.3-2.8,18.7-3.2
			c2-1.7-2-12.9-0.9-21.4C423.7,152.2,431.1,120.6,431.3,116.5z"/>
		<path class="st22" d="M387.1,176.4c0,0-1.4,6.3-2.3,7.6c-1.1,1.6-29.6,8.9-32.4,17.8c-1.6,5.3,3,69.1,3,69.1s2.2,2.4,8.9,2.2
			c3.5,0,7-0.4,10.5-1.2c0,0,1.2-26.9,1.9-37.1c0.7-10.2-1.2-24.8-0.6-24.8c0.6-0.1,11.1-1,28.2-2.5s18.8-9.8,19.8-17.1
			c0.6-5.2,0.6-10.4,0.2-15.5L387.1,176.4z"/>
		<path class="st26" d="M423.3,110.1c-7.2,1.4-6.1,9.9-6.4,15.2c-0.2,5.3-1.3,33.4,0.1,36c1.4,2.6,11.4,1.5,12.8,0
			c1.4-1.5,3.9-34.8,3.1-41.2S429.4,108.9,423.3,110.1z"/>
		<polygon class="st34" points="413.6,86.9 400.1,97.5 400,99.8 412.6,101.8 416.7,99 415.3,86.4 		"/>
		<path class="st35" d="M397.4,65.1c-5,4.1-2.9,11-2.1,12.4c0.4,0.6-1.8,6.3-2.9,7.9c-0.4,0.6,1.6,1.6,1.9,1.6s-0.1,6.4,2.4,8.8
			c3.2,3.1,10.1,0.4,11.2,0c4.1-1.4,7.7-4.1,10.2-7.7c3.6-4.7,6.6-12.7,1.3-21.1S401.7,61.5,397.4,65.1z"/>
		<polygon class="st12" points="400.7,113 404.7,110.5 401.5,109.4 		"/>
		<path class="st26" d="M339.4,95.2l-6.4,4.4c0,0,9.2,18.3,13.1,24.2s12.2,17.6,17.7,13.2c5.5-4.4,1.2-10,0-11.6
			C362.5,123.8,339.4,95.2,339.4,95.2z"/>
		<polygon class="st12" points="399,110.9 400.7,113 400.4,109.2 		"/>
		<polygon class="st38" points="386.5,179 424.6,178.6 424.7,174.7 387.1,174.4 		"/>
		<path class="st39" d="M389.9,174.4h-1.2c-1.3,0-2.3,1-2.3,2.3s1,2.3,2.3,2.3h1.2c1.3,0,2.3-1,2.3-2.3S391.1,174.4,389.9,174.4z"/>
		<polygon class="st0" points="401.5,109.4 403.1,113.8 419.1,103 416.7,99 		"/>
		<polygon class="st0" points="397.3,106.2 398.2,112.3 400.4,109.2 399.7,103.9 		"/>
		<path class="st34" d="M379.9,179.7c0,0-6.8,4-7.1,5c-0.4,1-3.6,4.6-3.6,5.3c-0.1,0.7,2.4-0.2,2.7-0.2c2.5-0.9,5.1-1.7,7.7-2.3
			c3-0.6,5.5-0.7,7.1-1.6c3.7-1.9,1.6-7.3,1.6-7.3L379.9,179.7z"/>
		<path class="st26" d="M418,158.5c-1.7,0.9-32.2,19.8-32.2,19.8l3.6,6.5c0,0,19-6.8,25.2-9.8c6.2-3,18.6-9.7,14.8-15.3
			S419.7,157.6,418,158.5z"/>
		
			<rect x="385.6" y="176.2" transform="matrix(0.8883 -0.4593 0.4593 0.8883 -39.6133 198.8629)" class="st40" width="6.7" height="9.3"/>
		
			<rect x="332.5" y="96.2" transform="matrix(0.8128 -0.5825 0.5825 0.8128 5.1149 215.0437)" class="st29" width="9.3" height="6.7"/>
		<path class="st17" d="M447.6,156.2L398,169.3c-11.5,3-19.5,13.5-19.5,25.4V221h70.4l6.4-58.3c0.4-3.3-2-6.4-5.4-6.7
			C449.1,155.9,448.4,156,447.6,156.2z"/>
		<rect x="404.5" y="217.8" class="st27" width="12.3" height="61.7"/>
		<path class="st27" d="M438.4,276.1h-52.6c-3.2,0-5.8,2.6-5.8,5.7c0,0,0,0,0,0h64.1C444.2,278.7,441.6,276.1,438.4,276.1z"/>
		<path class="st41" d="M397.2,208.2c-17.6-9,4.7-26.8-2.4-30.5c-5.3-2.7-16.5,12.5-16.5,17V221h70.4l1.2-10.9
			C442.1,205.9,405.5,212.4,397.2,208.2z"/>
		<path class="st31" d="M423.7,71.3c0.1-1.3-0.1-2.6-0.7-3.7c-0.7-1.3-1.8-2.3-3.1-2.9c-0.6-1.4-1.6-2.6-3-3.3
			c-1.1-0.6-2.3-0.8-3.6-0.7c-1-1.1-2.3-1.9-3.7-2.3c-2.2-0.7-4.3-0.9-5.4,0.2c-1.6-0.8-3.6,0.2-7-1.4c-2.5-1.2-2.9,9.3-2.3,11.2
			l0,0c0,0,1.2,0.4,1.9-0.1c2.6-0.4,7.5-0.2,12.8,5.4c1.7,1.8,0,5.4,0.4,6.1s4.8-1.5,4.5-0.7c-3,8.2-0.6,12.9,0.1,13.1
			c0.7,0.1,2.2-1.2,3.7-3.4c3.7-2.9,6.2-7.1,6.9-11.7C425.7,73.9,425,72.2,423.7,71.3z"/>
		<path class="st35" d="M414,76.6c-1.4-0.5-2.4,0.2-3.3,2.8c-0.9,2.6-1.6,6.1-0.2,6.7c1.4,0.5,3.3-1.2,4.2-3.8
			C415.7,79.6,415.3,77.1,414,76.6z"/>
		<path class="st32" d="M349.4,202.3c-1.2,0-2.2,1-2.2,2.2c0,1.2,1,2.2,2.2,2.2c1.2,0,2.2-1,2.2-2.2
			C351.6,203.3,350.6,202.4,349.4,202.3C349.4,202.3,349.4,202.3,349.4,202.3z M349.1,205.9c-0.7,0-1.2-0.5-1.2-1.2
			c0-0.7,0.5-1.2,1.2-1.2c0.7,0,1.2,0.5,1.2,1.2C350.3,205.4,349.7,205.9,349.1,205.9L349.1,205.9z"/>
		<path class="st32" d="M335.7,209.3c0,0.5,0.4,0.9,0.9,0.9l0,0h11.6c0.5,0,0.9-0.4,0.9-0.9l0,0v-8.6h-13.4V209.3z"/>
		<path class="st33" d="M335.7,209.3c0,0.5,0.4,0.9,0.9,0.9l0,0h2.7v-9.5h-3.6V209.3z"/>
		<rect x="336.7" y="210.2" class="st42" width="11.5" height="1.2"/>
		<path class="st43" d="M342.5,214c7.8,0,14.2-1.9,14.2-4.3h-28.3C328.4,212,334.7,214,342.5,214z"/>
		<path class="st31" d="M335.2,213.4h14.6c0.2,0,0.3,0.1,0.3,0.3v0.1c0,0.2-0.1,0.3-0.3,0.3h-14.6c-0.2,0-0.3-0.1-0.3-0.3v-0.1
			C334.9,213.5,335,213.4,335.2,213.4z"/>
		<rect x="218.6" y="233.5" class="st44" width="11.2" height="50.8"/>
		<rect x="345.3" y="233.5" class="st44" width="11.2" height="50.8"/>
		<polygon class="st45" points="218.6,247.3 229.8,242.5 229.8,233.5 218.6,233.3 		"/>
		<rect x="237" y="227.9" class="st46" width="11.2" height="50.8"/>
		<polygon class="st45" points="237,246.1 248.2,241.2 248.2,232.2 237,232 		"/>
		<polygon class="st45" points="345.3,247.3 356.5,242.5 356.5,233.5 345.3,233.3 		"/>
		<rect x="327.2" y="227.9" class="st46" width="11.2" height="50.8"/>
		<polygon class="st45" points="327.2,243.6 338.3,238.8 338.3,229.8 327.2,229.6 		"/>
		<path class="st47" d="M211.9,214h152c1.9,0,3.4,1.5,3.4,3.4v12.7c0,1.9-1.5,3.4-3.4,3.4h-152c-1.9,0-3.4-1.5-3.4-3.4v-12.7
			C208.5,215.5,210,214,211.9,214z"/>
	</g>
</g>
</svg>
