<?xml version="1.0" encoding="utf-8"?>
<!-- Generator: Adobe Illustrator 25.0.0, SVG Export Plug-In . SVG Version: 6.00 Build 0)  -->
<svg version="1.1" id="Layer_1" xmlns="http://www.w3.org/2000/svg" xmlns:xlink="http://www.w3.org/1999/xlink" x="0px" y="0px"
	 viewBox="0 0 531.1 292.6" style="enable-background:new 0 0 531.1 292.6;" xml:space="preserve">
<style type="text/css">
	.st0{fill:#D6E6F2;}
	.st1{fill:#F0C6BD;}
	.st2{fill:#D09289;}
	.st3{fill:#E9BBB1;}
	.st4{fill:#0E3C62;}
	.st5{fill:#E11E19;}
	.st6{fill:#04B8B5;}
	.st7{fill:#05AAAB;}
	.st8{fill:#66AEDE;}
	.st9{fill:#FFFFFF;}
	.st10{fill:#D5F3FB;}
	.st11{fill:#1A72AD;}
	.st12{fill:#1C77C3;}
	.st13{fill:#EFEDED;}
	.st14{clip-path:url(#SVGID_2_);}
	.st15{fill:#E5B7A3;}
	.st16{fill:#FFCC00;}
	.st17{fill:#FF8A5F;}
	.st18{fill:#1B74A5;}
	.st19{fill:#F0C8B2;}
	.st20{fill:#87522C;}
	.st21{fill:#8E1007;}
	.st22{fill:#160105;}
	.st23{fill:#FF6F66;}
</style>
<g id="Layer_1_1_">
	<polygon class="st0" points="476.5,94.8 336.6,262.7 52.3,209.6 192.1,41.7 	"/>
	<path class="st1" d="M314.3,43.1c0-5,2.6-20.8,2.6-20.8s2.6-2.8,2.6-4c-0.1-0.5-0.4-1-0.8-1.3c-0.4-0.3,2.2-9.5,1.8-11.1
		c-0.3-1.3-1.3-0.3-1.3-0.3s-1.9,8.4-2.9,8c-0.7-0.3-1.6-9.7-2.4-9.6c-2.3,1-0.1,8.1-0.4,9.7c0,0.1-3.1,1.1-3,1.3l-0.5,1.5l1.4,5.6
		c0,0-5.1,12.8-5.1,24.3c0,21.9,13,28.6,13,28.6l9.3-6.2C328.3,68.7,314.2,49.8,314.3,43.1z"/>
	<path class="st2" d="M310.1,15.5c-0.5,0.9,0.3,2.9,0.9,3.3c0.8,0.3,1.8,0,2.1-0.8c0.5-0.9,0-1-0.6-1.4
		C311.9,16.2,310.7,14.7,310.1,15.5z"/>
	<path class="st1" d="M312.1,12.5c-0.6,0.2-1,0.7-0.8,1.2l1.3,3.8c0.3,0.5,0.9,0.7,1.4,0.5l0,0c0.5-0.1,0.9-0.7,0.8-1.2l-1.2-3.8
		C313.3,12.5,312.7,12.3,312.1,12.5L312.1,12.5z"/>
	<path class="st1" d="M310.5,13.9c-0.5,0.2-0.7,1.6-0.6,2l1.1,2.2c0.2,0.4,0.7,0.6,1.1,0.4l0,0c0.4-0.1,0.7-0.5,0.6-1l-1.1-3.2
		C311.5,13.9,311,13.7,310.5,13.9C310.5,13.9,310.5,13.9,310.5,13.9L310.5,13.9z"/>
	<path class="st2" d="M318.7,16.9c-0.2-0.4-0.4-0.7-0.7-0.9c-0.3-0.3-0.6-0.7-1-0.7c-0.9-0.2-1.8-0.4-2.6-0.8
		c-0.4-0.2-0.8-0.4-1.2-0.4c-0.2,1,0.3,2.1,1.2,2.6c0.4,0.2,1,0.3,1.3,0.6s0.1,0.9,0,1.3c-0.2,0.5-0.5,1.1-0.8,1.5
		c0-0.5,0.3-1.2-0.1-1.6s-1.1,0-1.5-0.1c-0.3-0.1-0.5-0.3-0.5-0.6c0.4,0,2.2,0.1,1.6-0.8s-1.5-0.8-1.7-1.8s0-1.8,0.9-1.5
		c0.5,0.1,2.7,0.8,3.2,0.9c0.8,0.3,1.5,0.8,2.1,1.4L318.7,16.9z"/>
	<path class="st1" d="M401.4,106.1l-1.3,0.9l-5.3-0.2l-3.5,1.9c0,0-12.4-5.1-16.7-7.6c-5.8-3.3-15-25-15-25s-8.6,2.8-9.7,5.9
		c-2.4,7.2,7.8,19.7,15.1,25.3c5.2,3.9,25.7,6.6,25.7,6.6l2.5,2l3.5,0.9l2.5-4.5l-0.5-3.1c0.6-0.1,1.1-0.3,1.6-0.4
		C402.3,107.5,401.4,106.1,401.4,106.1z"/>
	<path class="st3" d="M398.3,114.4c-1.4,1.2-3.2,1.4-4.2,0.3c-0.9-1-0.6-2.9,0.8-4.1s3.2-1.4,4.2-0.4
		C400,111.3,399.7,113.1,398.3,114.4z"/>
	<path class="st1" d="M400.9,114.7c-0.4,0.4-0.9,0.4-1.3,0c0,0,0,0,0,0l-2.3-3c-0.3-0.4-0.1-1,0.3-1.3l0,0c0.4-0.3,0.9-0.3,1.3,0
		l2.3,3C401.5,113.8,401.4,114.4,400.9,114.7C400.9,114.6,400.9,114.6,400.9,114.7L400.9,114.7z"/>
	<path class="st1" d="M402.4,113.4c-0.3,0.3-0.9,0.3-1.2,0l-2.3-2.6c-0.3-0.4-0.2-0.9,0.2-1.2c0,0,0,0,0,0l0,0
		c0.3-0.3,0.9-0.3,1.2,0c0,0,0,0,0,0l2.3,2.6C402.9,112.5,402.8,113.1,402.4,113.4L402.4,113.4z"/>
	<path class="st1" d="M399.5,116.1c-0.4,0.4-1,0.4-1.4,0l-2.3-3c-0.2-0.5-0.1-1,0.4-1.3l0,0c0.4-0.4,1-0.4,1.4,0l2.3,3
		C400.1,115.2,399.9,115.8,399.5,116.1z"/>
	<path class="st1" d="M397.6,116.6c-0.3,0.3-0.8,0.3-1.1,0c0,0,0,0,0,0l-1.8-2.5c-0.2-0.4-0.1-0.8,0.2-1c0,0,0,0,0,0l0,0
		c0.3-0.3,0.8-0.3,1.1,0c0,0,0,0,0,0l1.9,2.5C398.1,115.9,398,116.4,397.6,116.6C397.7,116.6,397.7,116.6,397.6,116.6L397.6,116.6z"
		/>
	<path class="st3" d="M348.9,58.9c-0.7-1.7,3-6.7,0.8-5.1c-2.7-0.7-14,6-15.5,7c0,6-8.1,5.1-8.1,5.1s-4,14.3,1.7,16
		s14.1-6.6,14.1-6.6C342.7,69.3,345.2,63.6,348.9,58.9z"/>
	<path class="st4" d="M346.3,40.6c5.8-0.9,12.1-3.1,16.2,1.2c2.6,2.7,3.3,6.2,7,7.8c3.5,1.5,7.2,0.3,10.8,0.7
		c3.1,0.4,6.8,1.7,8.7,4.4c2,3,0.6,5.7,1,9c0.4,3,3.5,5.3,3.6,8.1c0.1,3.1-4,6.4-6.8,7.1c-6.9,1.7-14.2-3.2-15.5-5.7
		c-1.7-3.1-2.6-6.8-5-9.1c-3.6-3.1-7.7-5.5-12.1-7.1C349.4,55.7,342.5,40,346.3,40.6z"/>
	<path class="st4" d="M343.6,47.2c0,4.6-4.2,8.3-9.4,8.3c-5.2,0-9.5-3.7-9.5-8.3s4.2-8.3,9.4-8.3S343.6,42.6,343.6,47.2z"/>
	<path class="st1" d="M346.2,55.3c0.3-3.5,1-8.9-0.1-11.4c-1.3-2.8-4.4-3.3-7-3.6c-2.6-0.3-5.7-0.3-7.5,2.2c-1.6,2.2-1.8,7-1.9,10.5
		c-0.2,4.4-0.2,7.3,3.3,11.3c0.8,0.9,1.8,3.3,7.1-0.1C343.7,61.9,345.8,59.7,346.2,55.3z"/>
	<path class="st1" d="M345.8,53.8c3.3-2.3,1.8,2.9,0.9,4.2c-0.4,0.7-1.1,1.2-1.9,1.5L345.8,53.8z"/>
	<path class="st4" d="M346,53.9c0.7-0.3,2.8,0.9,1,5.6c0.9-0.5,0.3,1.1,0.2,2.2c4-3.3,5.8-5.6,6.3-7.3c1.9-6.5-1.4-13.5-1.4-13.5
		s-2-3.7-8.3-4.3c-2.8-0.3-8.5,0.6-11,2.7c-2.1,1.7-3.8,4.8-2.6,5.9c0.7-0.9,4.4-2.6,5.4-1.4C338,42.1,347.3,50.6,346,53.9z"/>
	<path class="st5" d="M329.4,257.4c1.3,0.3,4.2-3.3,4.2-3.3l4-11c0,0,2.4,2,2.5,2.9c0.2,1.9-3.7,6.4-3.7,6.4l-1.4,5.2
		c-0.2,0.7-0.7,1.2-1.4,1.5c-2.1,0.8-6.7,2.4-8.3,1.4c-0.3-0.2-0.4-1.5-0.4-1.5l3.1-3.4C328.1,255.5,328.9,257.3,329.4,257.4z"/>
	<path class="st3" d="M368.4,174.1l-11.6-4.7l-2.4,2.6c0,0-16.1-5.1-29.2-5.9l2-5.4l-18.3-6.1c0,0-6,24.5,2.2,29
		c1.4,0.8,3,1.1,4.6,0.9c25.8-4,38.7-6.3,38.7-6.3l9,0.1l5.6,1.7c0,0,2.1,0,2.4-0.6C372,178.1,368.4,174.1,368.4,174.1z"/>
	<path class="st5" d="M370.4,178.7c0.4-1.2-3-4.4-3-4.4l-10.8-4.7c0,0,2.1-2.3,3-2.3c1.9-0.1,6.2,4,6.2,4l5.1,1.8
		c0.7,0.2,1.2,0.8,1.4,1.4c0.7,2.1,2,6.8,1,8.4c-0.2,0.3-1.5,0.3-1.5,0.3l-3.2-3.3C368.5,179.9,370.3,179.2,370.4,178.7z"/>
	<path class="st1" d="M334.5,192.1l-0.5-20.2l-18.4-2.2l2,18.1c5.4,25.5,11.4,53.6,11.4,53.6l0.4,9L328,256c0,0,0.1,2.1,0.7,2.4
		c1.5,0.6,5.3-3.2,5.3-3.2l4-11.8l-2-1.6C336.1,241.7,342.1,201.5,334.5,192.1z"/>
	<path class="st6" d="M352.3,83.3c1.4-1.2,4.4-7,8.1-7.5c-2-2.1-1.3-3.6-5.8-6.5c-2.6-1.8-5.7-2.9-8.8-3.2
		c-1.6,0-17.8,13.3-17.8,13.3s-2.7-8.3,1.7-13.7c1.1-1.4-2.2-0.7-2.9-1.7l-1.9-0.7c-5.2,1.7-11.3,14.4-7.4,28
		c6.5,9.3,0.3,13.8-1.1,20.5c-0.1,0.5,0,1,0.3,1.4l0,0c-6.7,8.2-14.7,51.7-9.9,60.3c14.3,6.8,11.5,9.6,31.9,5.2
		c0.7-5.1,13-31.7,14.4-47.9c0.3-4.4-1.5-10.4-4.1-14.8h-0.1c0.1-0.1,0.2-0.3,0.2-0.4c-1.3-4.9-1.9-10.1-1.8-15.2
		C347.4,95.3,351.6,88,352.3,83.3z"/>
	<path class="st7" d="M319.4,90.8c2.2,0.5,3.8,2,6,2.5c2.2,0.5,4.5,0.9,6.8,1.1c4.6,0.3,9.3-0.7,13.8-0.2c0.3,3.3-1.4,6.7-1.4,10
		s1.4,6.2,2.3,9.4c-5.2,0.9-3.9-7.9-5.1-10.8c-1.9-4.6-7.6-5.1-11.8-5.8c-2.5-0.4-4.7-1.3-7.3-0.6L319.4,90.8z"/>
	<path class="st7" d="M316,131.5c2.6,3.9,7.3,3,11.4,3.9c1.1,7.8-6.7,22.8-8.1,30.3c-0.4-9.2,4.3-16.5,3.9-24.9
		c-3.3,0.1-6.7,0.3-9.1-2.4c2.7-0.5,7.4,2.7,9.1-1.1c-2.4-0.4-4.6-2.1-6.5-3.5L316,131.5z"/>
	<circle class="st8" cx="154.9" cy="150" r="82.4"/>
	<path class="st9" d="M115.6,196.5v-98c0-2.6,2.1-4.8,4.8-4.8c0,0,0,0,0,0h72.6c2.6,0,4.8,2.1,4.8,4.8c0,0,0,0,0,0V201
		c0,2.6-2.1,4.8-4.8,4.8l0,0h-66c-1,0-1.9-0.3-2.7-0.8l-6.5-4.5C116.3,199.5,115.6,198,115.6,196.5z"/>
	<polygon class="st10" points="125.9,206 116.1,199.2 121.7,198.7 	"/>
	<rect x="181.9" y="101.1" class="st5" width="11.9" height="6.6"/>
	<path class="st0" d="M142.1,112.7h29.8c0.5,0,1,0.4,1,1v1.9c0,0.5-0.4,1-1,1h-29.8c-0.5,0-1-0.4-1-1v-1.9
		C141.2,113.1,141.6,112.7,142.1,112.7z"/>
	<path class="st0" d="M122.3,120.7H138c0.5,0,1,0.4,1,1l0,0c0,0.5-0.4,1-1,1h-15.7c-0.5,0-1-0.4-1-1l0,0
		C121.3,121.1,121.8,120.7,122.3,120.7z"/>
	<path class="st0" d="M142.6,120.7h31.8c0.5,0,1,0.4,1,1l0,0c0,0.5-0.4,1-1,1h-31.8c-0.5,0-1-0.4-1-1l0,0
		C141.7,121.1,142.1,120.7,142.6,120.7z"/>
	<path class="st0" d="M179,120.7h13.5c0.5,0,1,0.4,1,1l0,0c0,0.5-0.4,1-1,1H179c-0.5,0-1-0.4-1-1l0,0
		C178,121.1,178.5,120.7,179,120.7z"/>
	<path class="st0" d="M122.3,124.1h70.3c0.5,0,1,0.4,1,1v0c0,0.5-0.4,1-1,1h-70.3c-0.5,0-1-0.4-1-1v0
		C121.3,124.6,121.8,124.1,122.3,124.1z"/>
	<path class="st0" d="M176,127.6h16.6c0.5,0,1,0.4,1,1v0c0,0.5-0.4,1-1,1H176c-0.5,0-1-0.4-1-1v0C175,128,175.4,127.6,176,127.6z"/>
	<path class="st0" d="M122.3,127.6h49.1c0.5,0,1,0.4,1,1v0c0,0.5-0.4,1-1,1h-49.1c-0.5,0-1-0.4-1-1v0
		C121.3,128,121.8,127.6,122.3,127.6z"/>
	<path class="st0" d="M122.3,131h70.3c0.5,0,1,0.4,1,1v0c0,0.5-0.4,1-1,1h-70.3c-0.5,0-1-0.4-1-1v0C121.3,131.5,121.8,131,122.3,131
		z"/>
	<path class="st0" d="M138.2,134.5h22.7c0.5,0,1,0.4,1,1v0c0,0.5-0.4,1-1,1h-22.7c-0.5,0-1-0.4-1-1v0
		C137.3,134.9,137.7,134.5,138.2,134.5z"/>
	<path class="st0" d="M122.3,134.5h11.3c0.5,0,1,0.4,1,1v0c0,0.5-0.4,1-1,1h-11.3c-0.5,0-1-0.4-1-1v0
		C121.3,134.9,121.8,134.5,122.3,134.5z"/>
	<path class="st0" d="M165.5,134.5h27.1c0.5,0,1,0.4,1,1v0c0,0.5-0.4,1-1,1h-27.1c-0.5,0-1-0.4-1-1v0
		C164.5,134.9,165,134.5,165.5,134.5z"/>
	<path class="st0" d="M152,137.9h40.6c0.5,0,1,0.4,1,1v0c0,0.5-0.4,1-1,1H152c-0.5,0-1-0.4-1-1v0C151,138.4,151.5,137.9,152,137.9z"
		/>
	<path class="st0" d="M122.3,137.9h25.1c0.5,0,1,0.4,1,1v0c0,0.5-0.4,1-1,1h-25.1c-0.5,0-1-0.4-1-1v0
		C121.3,138.4,121.8,137.9,122.3,137.9z"/>
	<path class="st0" d="M122.3,141.4h70.3c0.5,0,1,0.4,1,1v0c0,0.5-0.4,1-1,1h-70.3c-0.5,0-1-0.4-1-1v0
		C121.3,141.8,121.8,141.4,122.3,141.4z"/>
	<path class="st0" d="M122.3,144.8h43c0.5,0,1,0.4,1,1v0c0,0.5-0.4,1-1,1h-43c-0.5,0-1-0.4-1-1v0
		C121.3,145.2,121.8,144.8,122.3,144.8z"/>
	<path class="st0" d="M169.9,144.8h22.6c0.5,0,1,0.4,1,1v0c0,0.5-0.4,1-1,1h-22.6c-0.5,0-1-0.4-1-1v0
		C168.9,145.2,169.4,144.8,169.9,144.8z"/>
	<path class="st0" d="M122.3,148.3h70.3c0.5,0,1,0.4,1,1v0c0,0.5-0.4,1-1,1h-70.3c-0.5,0-1-0.4-1-1v0
		C121.3,148.7,121.8,148.3,122.3,148.3z"/>
	<path class="st0" d="M122.3,151.7h21.5c0.5,0,1,0.4,1,1v0c0,0.5-0.4,1-1,1h-21.5c-0.5,0-1-0.4-1-1v0
		C121.3,152.1,121.8,151.7,122.3,151.7z"/>
	<path class="st0" d="M148.4,151.7h44.1c0.5,0,1,0.4,1,1v0c0,0.5-0.4,1-1,1h-44.1c-0.5,0-1-0.4-1-1v0
		C147.5,152.1,147.9,151.7,148.4,151.7z"/>
	<path class="st0" d="M122.3,155.1h33.1c0.5,0,1,0.4,1,1v0c0,0.5-0.4,1-1,1h-33.1c-0.5,0-1-0.4-1-1v0
		C121.3,155.6,121.8,155.1,122.3,155.1z"/>
	<path class="st0" d="M160,155.1h20.8c0.5,0,1,0.4,1,1v0c0,0.5-0.4,1-1,1H160c-0.5,0-1-0.4-1-1v0C159,155.6,159.5,155.1,160,155.1z"
		/>
	<path class="st0" d="M185.3,155.1h7.2c0.5,0,1,0.4,1,1v0c0,0.5-0.4,1-1,1h-7.2c-0.5,0-1-0.4-1-1v0
		C184.4,155.6,184.8,155.1,185.3,155.1z"/>
	<path class="st0" d="M122.3,158.6h70.3c0.5,0,1,0.4,1,1v0c0,0.5-0.4,1-1,1h-70.3c-0.5,0-1-0.4-1-1v0
		C121.3,159,121.8,158.6,122.3,158.6z"/>
	<path class="st0" d="M122.3,162h29.3c0.5,0,1,0.4,1,1v0c0,0.5-0.4,1-1,1h-29.3c-0.5,0-1-0.4-1-1v0C121.3,162.5,121.8,162,122.3,162
		z"/>
	<path class="st0" d="M122.3,177.5h29.3c0.5,0,1,0.4,1,1v0c0,0.5-0.4,1-1,1h-29.3c-0.5,0-1-0.4-1-1v0
		C121.3,177.9,121.8,177.5,122.3,177.5z"/>
	<path class="st0" d="M122.3,181.5h29.3c0.5,0,1,0.4,1,1v0c0,0.5-0.4,1-1,1h-29.3c-0.5,0-1-0.4-1-1v0
		C121.3,181.9,121.8,181.5,122.3,181.5z"/>
	<path class="st0" d="M162.6,177.5h29.3c0.5,0,1,0.4,1,1v0c0,0.5-0.4,1-1,1h-29.3c-0.5,0-1-0.4-1-1v0
		C161.6,177.9,162,177.5,162.6,177.5z"/>
	<path class="st0" d="M162.6,181.5h29.3c0.5,0,1,0.4,1,1v0c0,0.5-0.4,1-1,1h-29.3c-0.5,0-1-0.4-1-1v0
		C161.6,181.9,162,181.5,162.6,181.5z"/>
	<rect x="121.3" y="191.4" class="st0" width="31.2" height="0.4"/>
	<rect x="161.6" y="191.4" class="st0" width="31.2" height="0.4"/>
	<path class="st0" d="M156.1,162h21.3c0.5,0,1,0.4,1,1v0c0,0.5-0.4,1-1,1h-21.3c-0.5,0-1-0.4-1-1v0C155.2,162.5,155.6,162,156.1,162
		z"/>
	<path class="st0" d="M182,162h10.5c0.5,0,1,0.4,1,1v0c0,0.5-0.4,1-1,1H182c-0.5,0-1-0.4-1-1v0C181.1,162.5,181.5,162,182,162z"/>
	<path class="st6" d="M139.6,186.9c-4.2,0-7.5-3.4-7.5-7.6c0-1,0.2-2,0.6-2.9c1.2-2.8,3.9-4.7,7-4.7c1,0,2,0.2,2.9,0.6
		c3.9,1.6,5.7,6,4.1,9.8C145.4,185.1,142.6,186.9,139.6,186.9z M139.6,172.1c-4,0-7.2,3.2-7.2,7.2s3.2,7.2,7.2,7.2
		c4,0,7.2-3.2,7.2-7.2c0-2.9-1.7-5.5-4.4-6.6C141.5,172.3,140.5,172.1,139.6,172.1L139.6,172.1z M140.1,184.9l0.6-0.1l0.2,1.3
		l-0.6,0.1L140.1,184.9z M136.7,185.6l0.5-1.2l0.5,0.2l-0.5,1.2L136.7,185.6z M142.8,183.9l0.5-0.4l0.8,1l-0.5,0.4L142.8,183.9z
		 M139.6,184.5c-0.7,0-1.4-0.1-2-0.4c-2.6-1.1-3.9-4.1-2.8-6.8c1.1-2.6,4.1-3.9,6.8-2.8s3.9,4.1,2.8,6.8
		C143.5,183.3,141.7,184.5,139.6,184.5z M139.6,174.3c-2.8,0-5,2.2-5,5c0,2.8,2.2,5,5,5c2.8,0,5-2.2,5-5c0-2-1.2-3.9-3.1-4.6
		C140.9,174.5,140.2,174.3,139.6,174.3L139.6,174.3z M139.6,183.8c-1.5,0-3-0.8-3.8-2.1l0.2,0.1c0.8,1.2,2.1,1.9,3.6,1.9
		c0.3,0,0.6,0,0.8-0.1l0.2,0.1C140.3,183.8,139.9,183.8,139.6,183.8L139.6,183.8z M134,183.3l1-0.8l0.3,0.5l-1,0.8L134,183.3z
		 M142.6,182.4c0.2-0.2,0.4-0.5,0.6-0.7h0.1c-0.2,0.3-0.4,0.5-0.6,0.7H142.6z M144.7,181.7l0.2-0.5l1.2,0.5l-0.2,0.5L144.7,181.7z
		 M136.6,179.9l0.5-1.1l4.8,2l-0.4,1.1L136.6,179.9z M132.8,180l1.3-0.2l0.1,0.6l-1.3,0.2L132.8,180z M143.9,180
		c0.1-0.4,0.1-0.9,0-1.3l0.1,0.1c0.1,0.4,0.1,0.9,0,1.3L143.9,180z M135.2,179.4c0-0.3,0-0.6,0.1-1l0.1,0.1c-0.1,0.3-0.1,0.6-0.1,1
		L135.2,179.4z M137.6,177.4l0.5-1.1l4.8,2l-0.5,1.1L137.6,177.4z M145.1,178.3l1.3-0.2l0.1,0.6l-1.3,0.2L145.1,178.3z M133.2,177
		l0.2-0.5l1.2,0.5l-0.2,0.5L133.2,177z M136,176.7c0.3-0.3,0.6-0.6,0.9-0.9h0.1c-0.4,0.3-0.7,0.6-0.9,0.9H136z M143.8,175.7l1-0.8
		l0.4,0.5l-1,0.8L143.8,175.7z M142.2,176c-0.3-0.2-0.6-0.4-1-0.6c-0.4-0.1-0.7-0.2-1.1-0.3l-0.4-0.2c0.5,0,1.1,0.1,1.5,0.3
		c0.5,0.2,0.9,0.5,1.3,0.9L142.2,176z M135.2,174.1l0.5-0.3l0.8,1l-0.5,0.3L135.2,174.1z M141.4,174.1l0.5-1.2l0.5,0.2l-0.5,1.2
		L141.4,174.1z M138.4,172.6l0.6-0.1l0.2,1.3l-0.6,0.1L138.4,172.6z"/>
	<path class="st6" d="M152,191.2c-2.4,2.7-6.4,2.9-9.1,0.6c-2.7-2.4-2.9-6.4-0.6-9.1s6.4-2.9,9.1-0.6c0,0,0,0,0,0
		C154.1,184.4,154.3,188.5,152,191.2z M142.5,182.8c-2.3,2.6-2,6.5,0.5,8.7c2.6,2.3,6.5,2,8.7-0.5c2.3-2.6,2-6.5-0.5-8.7
		C148.6,180,144.7,180.3,142.5,182.8L142.5,182.8z M151.4,190.9l-0.8-0.7l0.3-0.4l0.8,0.7L151.4,190.9z M148.8,192.5l-0.3-1l0.4-0.1
		l0.3,1L148.8,192.5z M151.7,188l0.1-0.5l1.1,0.2l-0.1,0.5L151.7,188z M150.4,189.9c-1.6,1.8-4.4,2-6.3,0.4c-1.8-1.6-2-4.4-0.4-6.3
		c1.6-1.8,4.4-2,6.3-0.4c0,0,0,0,0,0C151.9,185.2,152,188,150.4,189.9L150.4,189.9z M145.9,191.1c2.3,0.7,4.7-0.6,5.3-2.9
		c0.3-1,0.2-2-0.2-2.9v-0.1l0,0l0,0l0,0L151,185c-0.2-0.5-0.6-0.9-1-1.3c-0.4-0.4-0.9-0.6-1.4-0.8h-0.1l0,0h-0.1
		c-2.3-0.7-4.7,0.7-5.3,3c-0.3,1-0.2,2,0.2,2.9v0.1l0,0l0,0l0,0v0.1c0.2,0.5,0.6,0.9,1,1.3c0.4,0.4,0.9,0.7,1.4,0.8h0.1l0,0H145.9z
		 M149.2,189.9l-0.2-0.2l1.1-1.2l0.2,0.2L149.2,189.9z M145.7,192.7l0.2-1.1l0.5,0.1l-0.2,1.1L145.7,192.7z M151.7,185.6l-0.2-0.4
		l1-0.4l0.2,0.4L151.7,185.6z M147.5,190.5l-0.2-0.2l3.1-3.4l0.2,0.2L147.5,190.5z M145.8,191l-0.3-2.2l0.4,0.4l3.3-3.7l-0.4-0.4
		h2.2L145.8,191z M146.5,189.8l3.3-3.7l-0.5-0.4l-3.3,3.7L146.5,189.8z M143.4,191.5l-0.3-0.3l0.7-0.8l0.4,0.3L143.4,191.5z
		 M150.4,183.5l-0.4-0.3l0.7-0.8l0.3,0.3L150.4,183.5z M145.5,188.8l-2.2-0.1l5.2-5.8l0.3,2.2L145.5,188.8z M145.3,188.7l3.3-3.7
		l-0.4-0.4l-3.3,3.7L145.3,188.7z M144.7,188.2l3.3-3.7l-0.5-0.4l-3.3,3.7L144.7,188.2z M141.6,189.1l-0.1-0.4l1-0.4l0.1,0.4
		L141.6,189.1z M147.8,182.2l0.2-1.1l0.5,0.1l-0.2,1.1L147.8,182.2z M144.9,185.7l-0.1-0.1l0.7-0.8l0.1,0.1L144.9,185.7z
		 M143.7,186.1l-0.1-0.1l2.1-2.4l0.1,0.1L143.7,186.1z M141.3,186l0.1-0.5l1.1,0.2l-0.1,0.5L141.3,186z M145.3,182.5l-0.3-1l0.4-0.1
		l0.3,1L145.3,182.5z M143.3,184l-0.8-0.7l0.3-0.4l0.8,0.7L143.3,184z"/>
	<path class="st11" d="M128.3,191.5c-0.2,0-0.4,0-0.6-0.2c-0.1-0.1-0.3-0.3-0.3-0.5c-0.2,0.2-0.5,0.2-0.8,0.2
		c-0.1,0-0.3-0.1-0.4-0.2c-0.6,0.4-2.1,0.9-2.6,0.3c-0.2-0.2-0.2-0.5-0.1-0.8c0.3-0.4,0.7-0.7,1.2-0.6h0.1v0.1c0,0.1,0,0.2,0,0.3
		c0,0,0,0.1,0,0.1c0,0.1,0,0.1-0.1,0.2c-0.1,0-0.1,0-0.2-0.1c0-0.1,0-0.1,0-0.2c0,0,0,0,0-0.1c-0.3,0-0.7,0.2-0.9,0.5
		c-0.1,0.1,0,0.3,0.1,0.4c0.4,0.5,2-0.1,2.3-0.4l0.1-0.1l0.1,0.1c0.1,0.1,0.2,0.1,0.3,0.2c0.3,0,0.6-0.1,0.8-0.3l0.2-0.2v0.3
		c0,0.2,0.1,0.4,0.2,0.5c0.3,0.3,1.1,0,1.6-0.1h0.1c2.8-0.8,6.3-3.6,7-6.2c0.4-1.4,0.1-2.4-0.7-3c-1.4-0.9-4.4-0.2-6.1,1
		c-1.4,1-3.6,3-2.9,4.6c0.5,1.2,2.3,1.1,3.3,0.8c0.1,0,0.1,0,0.2,0.1c0,0,0,0,0,0c0,0.1,0,0.2-0.1,0.2c-1.4,0.4-3,0.2-3.6-1
		c-0.8-1.8,1.5-3.9,3-4.9c1.8-1.3,4.8-2,6.4-1c0.6,0.4,1.3,1.3,0.8,3.3c-0.7,2.8-4.3,5.6-7.2,6.4h-0.1
		C129,191.3,128.7,191.4,128.3,191.5z M137.5,196.5l0.3-0.4c0.8-1,1.6-2.1,2.3-3.1l0.7-0.9c1-0.8,2.3-1.2,3.6-1.3c0,0,0,0.1,0,0.1
		v0.1h0.1c0.4,0,0.8-0.1,1.1-0.3c0.3-0.2,0.6-0.3,0.9-0.3c0.1,0,0.3,0,0.4,0c0.4,0.1,0.8,0.1,1.1-0.1c0.3,0.1,0.6-0.1,0.9-0.3
		l0.2-0.1c0.1,0.2,0.2,0.3,0.4,0.4c-0.1,0.1-0.2,0.3-0.3,0.4v0.1h0.1c1,0.2,2.1,0.2,3.1-0.2c0.7-0.2,1.3-0.3,2-0.3
		c0.1,0,0.1,0,0.1-0.1c0-0.1-0.1-0.1-0.1-0.1c-0.7,0-1.4,0.1-2.1,0.3c-0.9,0.3-1.9,0.4-2.8,0.2c0.1-0.1,0.2-0.2,0.3-0.3
		c0.9,0.1,1.7-0.2,2.3-0.8l0.1-0.1l-0.1-0.1c-0.3-0.2-0.6-0.3-0.9-0.1c-0.6,0.2-1.1,0.4-1.5,0.8l0,0c-0.4-0.1-0.4-0.3-0.4-0.4v-0.2
		l-0.2,0.1c-0.1,0.1-0.2,0.1-0.3,0.2c-0.2,0.1-0.4,0.2-0.6,0.3l0,0l0.1-0.3l-0.2,0.1h-0.1l-0.2-0.1l0.1,0.2c0,0,0,0.1,0,0.1
		c-0.3,0.1-0.6,0.2-0.9,0.1c-0.2,0-0.3,0-0.5,0c-0.4,0-0.8,0.1-1.1,0.3c-0.3,0.2-0.6,0.3-0.9,0.3c0,0,0-0.1,0-0.1v-0.1h-0.1
		c-1.2,0-2.3,0.3-3.3,0.9l0.5-0.5c0.4-0.5,0.8-1,1.1-1.5c0.3-0.3,0.7-0.5,1-0.8c1.8-1.4,3.2-3.2,4.1-5.2l0.2-0.3l-0.3,0.2
		c-0.7,0.4-1.2,1-1.6,1.6l-0.3,0.4c-1.1,1.3-2.1,2.6-3.1,3.9c-0.9,0.8-2.1,1.2-3.3,1.1h-0.2c-0.1,0-0.3,0-0.4-0.1c0,0,0-0.1,0-0.1
		c0,0,0.1-0.3,0-0.3c-0.3-0.2-0.7-0.3-1-0.1c0,0,0-0.1,0-0.1c-0.1-0.3-0.7-0.4-1-0.4c-0.6,0.1-1.3,0.2-1.8,0.5
		c-0.1-0.1-0.1-0.1-0.2,0c0,0,0,0,0,0l-0.3,0.2c-0.5,0.3-0.9,0.6-1.3,1l0.2,0.2l0.6-0.4c0.2-0.2,0.5-0.3,0.7-0.5
		c0.7-0.4,1.4-0.6,2.2-0.7c0.4,0,0.7,0.1,0.8,0.2c0,0.1-0.1,0.2-0.2,0.3l0.1,0.2l0.2-0.1c0.5-0.2,0.7-0.3,0.9-0.1c0,0,0,0.1,0,0.1
		c0,0.1-0.1,0.3,0,0.4c0.2,0.1,0.4,0.2,0.6,0.2h0.1c1,0.1,2-0.2,2.8-0.7l-0.7,0.9c-0.2,0.3-0.5,0.6-0.7,0.9
		c-0.6,0.4-1.1,0.8-1.6,1.1l-0.6,0.4c-1.4,1-3.5,2.5-3,4.4v0.1h0.2C136.4,198.1,137,197.2,137.5,196.5L137.5,196.5z M139.8,192.9
		c-0.7,1-1.5,2.1-2.3,3.1l-0.3,0.4c-0.4,0.6-1,1.4-1.6,1.4c-0.4-1.7,1.6-3.1,2.9-4.1l0.6-0.4l0.9-0.7L139.8,192.9z M151.9,189.6
		c-0.5,0.4-1.1,0.6-1.7,0.6c0.3-0.3,0.7-0.4,1.1-0.6c0.1,0,0.2,0,0.3,0C151.7,189.6,151.8,189.6,151.9,189.6L151.9,189.6z
		 M143.4,188.7l-0.1,0.1c0.8-1,1.6-2.1,2.4-3.1l0.3-0.4c0.3-0.5,0.7-0.9,1.2-1.3C146.3,185.9,145,187.5,143.4,188.7L143.4,188.7z"/>
	<path class="st12" d="M165.1,190.4c0-0.1-0.1-0.1-0.1-0.1c-0.2,0-0.5,0-0.8,0c-1.1,0.1-3,0.3-3.6-0.3c-0.1-0.2-0.2-0.4-0.2-0.6
		c0.1-1.1,1.9-2.4,2.7-3c0.9-0.7,2.1-1.3,2.5-1.1c0.1,0.1,0.2,0.2,0.2,0.3c0,0.3-0.1,0.5-0.3,0.7c-0.2,0.2-0.4,0.4-0.7,0.5
		c-0.1,0-0.1,0.1-0.1,0.1c0,0.1,0.1,0.1,0.2,0.1c0,0,0,0,0,0c0.3-0.1,0.7-0.3,0.9-0.6c0.2-0.2,0.4-0.6,0.3-0.9
		c0-0.2-0.1-0.4-0.4-0.6c-0.7-0.3-2.3,0.8-2.8,1.1c-0.8,0.6-2.7,1.9-2.8,3.2c0,0.3,0.1,0.6,0.3,0.8c0.6,0.4,1.3,0.6,2,0.5
		c0.6,0,1.2,0,1.8-0.1c0.3,0,0.6,0,0.8,0C165,190.5,165.1,190.5,165.1,190.4z"/>
	<path class="st12" d="M170.3,189.9c0-0.1,0.1-0.1,0.1-0.2c-0.6-0.1-0.6,0.3-1.5,0.6l0.1-0.1c0.9-0.5,1.7-1.2,2.3-2
		c0.4-0.6,0.5-1.1,0.3-1.4c-0.1-0.1-0.2-0.2-0.4-0.2c-0.5,0-1.1,1-2,2.6l-0.5,0.8c-0.3,0.1-0.6,0.2-0.9,0.2c-0.2,0-0.3-0.1-0.5-0.2
		c-0.2-0.2-0.5-0.2-0.7-0.2c-0.2,0-0.4,0.2-0.6,0.3c0.3-0.5,0.8-1,1.1-1c0.1,0,0.1,0,0.2-0.1c0,0,0,0,0,0c0-0.1,0-0.1-0.1-0.2
		c-0.6-0.1-1.2,0.8-1.7,1.4c-0.1,0.1-0.2,0.3-0.3,0.4l0,0l0,0c0,0.1,0,0.2,0.1,0.2c0.1,0.1,0.2,0,0.5-0.3s0.6-0.6,0.8-0.6
		c0.2,0,0.4,0,0.6,0.2c0.2,0.1,0.4,0.2,0.6,0.2c0.2,0,0.5,0,0.7-0.1l-0.1,0.1c-0.2,0.1-0.4,0.1-0.6,0.2c-1.2,0.4-2.9,0.8-3.4,2
		c-0.2,0.7-0.1,1.6,0.3,2.2c0.1,0.2,0.3,0.4,0.5,0.4l0,0c0.7,0,1.4-1.3,2.5-3.1c0.3-0.6,0.7-1.2,0.9-1.5l0,0l0.4-0.2
		C169.9,190.2,169.9,189.9,170.3,189.9z M169.5,189.3c0.5-1,1.4-2.5,1.8-2.5l0,0c0,0,0.1,0,0.1,0.1c0,0.1,0,0.6-0.3,1.1
		c-0.5,0.7-1.1,1.3-1.8,1.7C169.3,189.6,169.4,189.4,169.5,189.3L169.5,189.3z M167.5,192.1c-0.7,1.3-1.7,3-2.2,3l0,0
		c0,0-0.1,0-0.3-0.2c-0.4-0.6-0.5-1.4-0.3-2c0.5-1.1,2.1-1.5,3.2-1.9l0.3-0.1C168,191.2,167.7,191.6,167.5,192.1L167.5,192.1z"/>
	<path class="st1" d="M124.2,161.3l10.4-8.4c0,0,6.9-4.3,9.8-6c2.9-1.7-1.4-8.9-13.4-1.8c-2.4,1.3-5,2.2-7.7,2.5l-2.7-2.2
		c-0.7-0.6-1.8-0.5-2.4,0.1l-1.8,1.9L124.2,161.3z"/>
	<path class="st1" d="M98.8,137.4l3.8-6.2l4.7-8.5c0,0,3.9-4.4,1.7-7.9c-1.2-2-4.1,2.4-4.1,2.4l-4.6,7.1C99.8,125.2,94,138,94,138
		L98.8,137.4z"/>
	<path class="st1" d="M103.3,138l8-8.4l7.2-8.8c0,0,6.4-5.6,3.8-8.9c-1.5-1.8-7.6,4.3-7.6,4.3l-8.7,9c-0.8,1-7.1,12.1-7.1,12.1
		L103.3,138z"/>
	<path class="st1" d="M109.2,138.6l11.7-7.8l8.9-10.2c9.1-6.8,5.2-9.6,5.7-9.1c-1.9-2.8-10,4.3-10,4.3L113,126.4
		c-1.1,1.1-9.7,11.5-9.7,11.5L109.2,138.6z"/>
	<path class="st1" d="M120.9,140.9l7.7-7.3l8.6-6.7c0,0,10.5-6.2,5.3-9.3c-2.1-1.3-10.2,4.4-10.2,4.4l-9.6,6
		c-1.2,0.9-13.6,10.4-13.6,10.4L120.9,140.9z"/>
	<path class="st1" d="M118.9,147.5l2.2-6.9c0.1-0.5-0.1-1-0.5-1.3l-7.2-4.1c-0.2-0.1-0.3-0.1-0.5-0.1l-7.2-0.1h-0.2l-6,0.8h-0.1
		l-4.6,1c-0.4,0.1-0.7,0.4-0.8,0.7l-6.2,18.6c0,0.1-0.1,0.2-0.2,0.3L76.5,171c-0.1,0.2-0.2,0.4-0.2,0.7v3.3c0,0.4,0.2,0.7,0.5,0.9
		l12.1,7.5c0.4,0.3,1,0.2,1.3-0.2l14.1-14.6c0.1-0.1,0.3-0.2,0.4-0.3l18.5-6.7c0.6-0.2,0.8-0.8,0.6-1.4l-4.9-12
		C118.9,148,118.9,147.8,118.9,147.5z"/>
	<path class="st13" d="M85.6,155.3l19.6,17.3l-21.2,18.8c0,0-1.3-1.1-4.8-8.7c-1.1-2.4-4.4-13.2-4.4-13.2L85.6,155.3z"/>
	<polygon class="st9" points="85.3,155.9 102.3,171 90.6,169.5 80.3,161.6 	"/>
	<g>
		<defs>
			<circle id="SVGID_1_" cx="155.1" cy="150.2" r="82.4"/>
		</defs>
		<clipPath id="SVGID_2_">
			<use xlink:href="#SVGID_1_"  style="overflow:visible;"/>
		</clipPath>
		<g class="st14">
			<path class="st3" d="M217.6,189.1c0,0-11.5-14.7-14.3-14c-2.8,0.7-12.8,6.4-16.5,9.3c-1.1,0.9-4.3,2.6-3.6,4.8
				c0.8,2.4,6,12.3,10.2,9c3.3-2.7-1.6-8.5-1.6-8.5l9.1-3.9l7.1,11L217.6,189.1z"/>
			<path class="st3" d="M213.8,187.7c0,0-15.5-17.4-18.4-16.7c-2.8,0.7-14,9.8-14,9.8s-5.2,4-5,6.2c0.4,3.1,6.1,13,10.3,9.6
				c3.3-2.7-1.4-8.7-1.4-8.7l6.9-3.3l6.1,12.1L213.8,187.7z"/>
			<path class="st1" d="M227.7,249.7l-12.4-35l2.8-24.4c0.1-0.8-0.4-1.5-1.2-1.8l-24.4-6.7l-1,19c0,0.6,0,1.1,0.1,1.7l3.6,20.3
				l8.9,26.9L227.7,249.7z"/>
			<path class="st1" d="M190.8,201.7l-4.9,0.3l-5.7-2.5c0,0-4.2-10.9-9.3-9.2c-3.2,1.1,1.9,13.4,3.9,16.9
				c0.4,0.8,16.4,14.2,21.1,15.7l-3.1-19.6C192.6,202.3,191.7,201.7,190.8,201.7z"/>
			<path class="st1" d="M207.8,186.1c0,0-15.5-17.1-18-17.5c-2.9-0.4-8.9,7.1-11.7,9.7c-1.8,1.4-3.7,2.6-5.7,3.7
				c-4.4,2.2-1.9,7.2,3.5,6.4c2.8-0.4,5.5-1.7,7.6-3.6c1.4-1.1,4.9-4.9,4.9-4.9l4.2,13.8L207.8,186.1z"/>
		</g>
	</g>
	<polygon class="st15" points="218.9,273.9 205.1,273.2 209.8,265.5 217.8,267.1 	"/>
	<path class="st4" d="M222.5,289.7c-5.7-2.3-20.4-15-20.4-15l0.9-1.9c0,0,25.8,7.3,24.1,16C226.9,290.2,223.6,290.2,222.5,289.7z"/>
	<path class="st16" d="M223.9,281.4c1.2,2.1,2.6,4.1,4.2,5.8c-0.3,3.7-6,1.1-6,1.1s-1.4,0.9-19-15.4c-0.1-2.4,5.9-6.8,5.9-6.8
		l2.5,4.3c0.5,0.9,1.5,1.5,2.6,1.4l5.2-0.1C219.3,271.6,221.7,277.4,223.9,281.4z"/>
	<polygon class="st17" points="226.3,225.8 223.2,212.4 231.9,214.7 232.6,222.9 	"/>
	<path class="st4" d="M212.1,233.7c0.6-6.1,8.8-23.8,8.8-23.8l2.1,0.4c0,0,0.1,26.8-8.7,27.6C212.8,238,212,234.9,212.1,233.7z"/>
	<path class="st16" d="M220.5,232.7c-1.7,1.7-3.2,3.6-4.4,5.7c-3.6,0.7-2.7-5.4-2.7-5.4s-1.3-1.1,9.6-22.6c2.2-0.7,8.2,3.8,8.2,3.8
		l-4.6,4.9l2.1,6.6C228.6,225.6,223.7,229.4,220.5,232.7z"/>
	<path class="st18" d="M267.3,154.9l-20.8,1.7l-0.4,23.1l10.4,29c0,0-11.6,3.1-13.7,5.6c-2.1,2.5-3.7,12.4-3.7,12.4v4.6
		c0,0,27.6-3.8,33.6-7.7c1.6-1,4.4-4,4.8-5.8C285.4,209.9,267.3,154.9,267.3,154.9z"/>
	<path class="st11" d="M250,174.6l5.8-21.5l-33.9,6.2c0,0-0.6,14.9-0.5,19.9c0.2,10.8,5.8,42.7,5.8,42.7s-12.5,5.4-17.5,43.8
		c0.3,0.2,8.4,3.9,8.4,3.9l31.5-44.6c0.3-0.2,0.5-0.5,0.6-0.8c2.2-5.1-4.2-44.2-4.2-44.2l0.5-0.3C248.3,178.2,249.5,176.5,250,174.6
		z"/>
	<path class="st15" d="M231.2,92c0,0,4.3,5.3,7.2,5.2c2.9-0.1,6.7-5.2,6.7-5.2L245,81.6l-13.7-1.4L231.2,92z"/>
	<path class="st15" d="M273.5,141.1c1.1,1.3,6,3.7,6,3.7c0.2-0.6,0.3-1.3,0.3-1.9c-0.3-0.7-2.6-2.1-2.6-2.1l-0.4-1l4.4,2.7l2.6,3.8
		l1.6-4.8c0,0-0.1-3.8-0.8-4.9c-1.4-2.1-8.4-5.6-8.4-5.6l-16.7-17.6l-1.4,17.5l13.3,4.7C271.4,135.6,272.6,139.9,273.5,141.1z"/>
	<path class="st15" d="M202.1,66.2l-16.2-17.9c0.2-1.7,1.9-8.5,1.3-9c-1.2-1-2.1,1.2-2.3,1.9c-0.4,1.3-0.3,1.6-1.4,2.2
		c-0.8-0.7-1.4-12.1-2-12.2c-1.7-0.3-1.4,1.3-1.6,2.4c-0.2,1.3,0.6,4.6-0.4,5c-0.3-0.3-2.2-5.6-3.1-8.2c-0.2-0.6-0.8-0.9-1.4-0.7
		c-0.3,0.1-0.5,0.3-0.6,0.6c-0.3,0.8,2.5,7.6,2.6,8.9c-0.1,0-0.1,0-0.2-0.1c-0.2-0.3-1.8-3.4-2.8-4.8c-0.3-0.4-0.7-1.7-1.3-2
		c-0.5-0.2-1.1,0.1-1.4,0.6c-0.2,0.6,3.3,6.3,3.1,7.7c-1.1-0.1-2.4-2.4-3.9-3.7c-0.5-0.7-1.1-0.7-1.5,0c-0.3,0.5,3.7,5.6,4,7.3
		c0.5,3.2,0.9,4.6,3,5.7c0.1,0.4,0.8,0.9,1.1,1.4c3.5,6.7,13.3,24.9,18.4,27.6C203.2,77.8,202.1,66.2,202.1,66.2z"/>
	<polygon class="st17" points="247.8,146.5 225.8,158.8 267.3,154.9 266.6,151.5 	"/>
	<path class="st16" d="M266.9,145.8c-2.8-10.4-9.6-16-6.2-38c0.2-2.5,0.1-4.9-0.1-7.4c-0.4-4.7-4.6-8.3-9.3-7.9c0,0,0,0,0,0
		c-10.4,1-20.3-0.3-30.2-6.1c-5.5-3.2-19.1-20.2-19.1-20.2l-10.4,9.2l23.9,36.5c0,0,6.6,20.9,7.3,28.1c0.5,5.1-1.1,20.4-1.1,20.4
		s33.6,4,40.9,2.9c5-0.8,7.3-11.7,7.3-11.7C268.8,149.7,267.8,147.8,266.9,145.8z"/>
	<path class="st19" d="M232.9,77.2c0.3-3.5-0.5-9.1,0.9-11.4c1.7-2.7,4.9-2.9,7.6-2.9c2.8,0,6,0.2,7.6,2.9c1.4,2.3,0.7,7.9,0.9,11.4
		c0.3,3.8-0.9,7.6-3.3,10.5c-0.9,0.8-2.1,1.2-3.3,1.1c-1.3,0.2-6.1-1.5-7-2.4C233,83.7,232.5,81.7,232.9,77.2z"/>
	<path class="st20" d="M227,65.5c-0.4-3.6,4.2-4.9,5.3-5.9c4.1-3.6,8.5-0.8,10.1-1.5c6.8-3,8.3,1.4,7.9,2.4c-0.2,0.5-0.5,1-0.8,1.4
		c2.7,1,3.9,2.4,2.9,2.9c-0.5,0.2,1.4,4.9-2.5,6c0,0-1.6-5.2-2.7-5.6c-1.1-1.1-3.2,0.3-3.2,0.3s-3.9,0-4.2,0.2
		c-0.5,0.2-1.8-0.7-1.8-0.7c-4.9,2-5.2,9.9-5.2,9.9s-1.8,8.4-1.8,9.9c-0.4-1.6-3.7-5.3-4.6-7.9C225.1,72.2,227.4,69.4,227,65.5z"/>
	<path class="st19" d="M233,74.9c-3.3-3.1-2.9,3.2-2.2,4.6c0.5,0.7,1.3,1.2,2.1,1.4L233,74.9z"/>
	<path class="st21" d="M172.8,189.9c0,0-1.7-0.6-1.7-0.8c0-0.2,1.9-0.7,1.9-0.7L172.8,189.9z"/>
	<path class="st22" d="M171.4,188.9c-0.2,0.1-0.3,0.1-0.3,0.2s0.1,0.2,0.3,0.3C171.4,189.2,171.4,189,171.4,188.9z"/>
	<path class="st5" d="M180.7,193.4c-0.3-0.2-6.5-2.8-8.2-3.6c-0.2-0.5-0.2-1,0.1-1.5c1.1-0.4,8.5-1.9,8.5-1.9L180.7,193.4z"/>
	<path class="st4" d="M197.6,186.4h-16c-1.1,0-2.2,0.9-2.4,3.1c-0.1,2.5,0.8,3.8,1.8,4l15.2,1.9L197.6,186.4z"/>
	<path class="st11" d="M179.8,187.5c-0.3,0.5-0.5,1.1-0.5,1.7l14.9,0.8l0.9-2.4L179.8,187.5z"/>
	<path class="st5" d="M197.1,186.5c-1.4-0.2-2.9,1.5-3,4.2c-0.1,2.7,0.7,4.6,2.2,4.8l61.6,5.4l1-13.3L197.1,186.5z"/>
	<path class="st23" d="M256.6,188.5l-61.6-0.9c-0.5,0.7-0.8,1.6-0.9,2.4l60.6,2.7C254.9,191.1,255.6,189.6,256.6,188.5z"/>
	<path class="st23" d="M179.2,189.6c0-0.9,0.3-1.7,0.8-2.4c-2,0.6-6.3,1.2-7.6,1.6c-0.1,0.2-0.1,0.5-0.1,0.7l6.9,0.7
		C179.2,189.9,179.2,189.8,179.2,189.6z"/>
	<path class="st4" d="M258.8,187.6c-1.3-0.1-2.5,0.9-3.3,2.6c-0.2,0-0.4,0-0.6,0l-26.2,0.2c-0.8,0-1.5,1.1-1.6,2.3
		c-0.1,1.2,0.6,2.4,1.4,2.5l26,2.5h0.3c0.6,1.8,1.6,3,2.9,3.1c2.1,0.2,4-2.7,4.3-6.4C262.4,190.9,260.9,187.7,258.8,187.6z"/>
</g>
</svg>
