<svg xmlns="http://www.w3.org/2000/svg" viewBox="0 0 312.39 507.48"><rect width="312.39" height="507.48" style="fill:#edf5fa"/><polygon points="8.39 250.95 72.66 462.65 307.24 268.72 242.97 57.01 8.39 250.95" style="fill:#d6e6f2"/><path d="M115.75,443.19c0,.57-1.65,10.08,0,11.18,0,0,7.42,8.35,10.94,10.19,9.24,5.3,25.79,3.33,12.77-7.4C124.54,460.12,122.62,452.29,115.75,443.19Z" style="fill:#854e29"/><path d="M71.49,446.33c-.43,2.29-3.41,13.5-4.15,16.11-5.88,1.05-23.51,3.43-31,2C33.54,464,32,459.74,32,458.48c.22-1.89,8.62-6.34,9.57-7.46-2,5.21,10.85,6.24,13.28,4.61,2.39-.95,12.21-9.73,12.21-9.73Z" style="fill:#854e29"/><path d="M130,443c.32,4.76,7.07,11.4,9.42,14.19,0,0-2.77,2.73-4.68,2.73S123.1,456,122.43,455.3s-6.68-12.11-6.68-12.11a63.4,63.4,0,0,1,7.12-1.08C124.62,442.11,130,443,130,443Z" style="fill:#e5b7a3"/><path d="M54.79,439.46c-2.37,6.36-8.41,9-13.22,11.56-4.66,10.36,15.06,5.84,18.21,3.66,1.14-.7,6.62-6.14,6.62-6.14s2-5,2-5.35S54.79,439.46,54.79,439.46Z" style="fill:#e5b7a3"/><path d="M51.94,265.43c-1,13-1,12.36,0,21.22S55.31,321,55.31,327s2.27,22,1.12,31.61-4.21,33-3.37,43.45,1.42,36.71,1.42,36.71,4.49,4.51,7.89,5.92,9.6,1.68,9.6,1.68,3.1-26.79,3.38-34.12.86-29.08,1.71-36.71,4.5-31.33,6-38.39,3.92-35,6.87-35.27,8.34,27.66,8.62,34.43,2.26,29.64,3.38,38.94,5.67,31.05,7.21,39.23,2.94,26,5.21,28,8.2,0,10.15.57,6.06,0,6.06,0-1.26-22.87-1.26-30.23-3.92-36.4-4.22-41.19-1.69-26.55-1.14-31.62,5.24-33.73,5.36-45.15-1.39-34.42-1.39-34.42-7.6-4.93-9.88-3.9S51.94,265.43,51.94,265.43Z" style="fill:#6588ab"/><path d="M54,241.44s-.42,9.33-1.49,16.63l-1,7.36H80.24c15.25,0,19.75-1.39,28.38-3.39a87.21,87.21,0,0,1,18.75-1.68s-7.4-43.47-6.79-45.16,5.4-14.82,4.53-24.63S108.62,151,108.62,151l-34.29-7.94-17.5,61.89Z" style="fill:#0e3c62"/><path d="M33.31,210.67a13.81,13.81,0,0,1-10,0c-5.5-2-5.5-10.92-5.07-13.89s6.45-11.87,12.63-21,13.83-21,16-22.44,11.41-9.11,13.11-9.11S74.09,142,74.09,142s.52,14,0,20.31a20.08,20.08,0,0,1-3.94,10.38Z" style="fill:#fc0"/><path d="M61.9,171.36c1.83-1.53,7.94-.83,10.17,0s2.2,5.5,1.79,8c-3.8,12.1-3.87,4.76-8,5.51-2,.85-.95,2.78-2,4.14s-12.36,10-15.67,12.27-8,7.32-9.39,8.16c-8.33,4-8.31-2.09-7.53-8.27,8.4-14.09,17.62-13.4,27.39-20.53C59.55,178.9,60.52,172.54,61.9,171.36Z" style="fill:#e5b7a3"/><path d="M134,232.71a32.8,32.8,0,0,0-3.54,7c-1,3.26,0,9.31,0,9.31s5.5,6.09,6.76,7.08a3.5,3.5,0,0,1,1.47,4.14c-.5,1.91-.48,5-1.75,7.7s-2.24,5.78-.82,6.64,5.64-3.54,6.91-5.35,3.38-10.6,3.38-14a21.79,21.79,0,0,0-2.69-9.57c-1.12-1.85-6.19-11.85-6.19-11.85S135.29,232.4,134,232.71Z" style="fill:#e5b7a3"/><path d="M108.62,151s8.73,18.9,10.85,25.12,4.81,19.88,4,25.54c-.51,3.47-3.79,9-4.23,13.26s3.56,18.47,4.23,22.86,4,21.59,4.27,24.56.12,24.11,0,28.64-2.15,18.91-2.15,18.91,5.93-12.13,6.51-18.33a137.23,137.23,0,0,0,0-22.6c-.71-7.61-2.84-18.35-3-21.6s-1-20.17-.85-25.52,1.94-22.57,1.81-27.92.15-21.06-5.21-28S108.62,151,108.62,151Z" style="fill:#fc0"/><path d="M137.55,233.83s-6-15-6.87-18.76a86,86,0,0,1-1.22-10.13l-2.57,16.39,1.59,26,2,1.7Z" style="fill:#f6a71c"/><path d="M24.64,227c-10.18,26.17,25,43.91,32,13,5.17-17.13,7.91-36.51,11.23-51.87.48-3.15-.76-3.56-3.18-5.07L64,187.45l-18.56,14.6C38,205.65,26.34,217,24.64,227Z" style="fill:#ae8673"/><path d="M65.29,170.75S64,154.79,63.73,151c-.18-2.61-.4-5.54-.48-7.13,1.42-.23,3.11-.52,4.73-.81.37,3.22,1.43,12.78,1.55,18.22.14,6.65,0,9.48,0,9.48Z" style="fill:#ae8673"/><path d="M103.39,96.65c17.87,6,9,40-2.32,46.4-3.13.55,7,7.77,7.55,7.94,4.57,8.74-8.34,13.92-15.6,10-10-4.91-14.63-9.64-18.69-18,9.91-10.4,2.14-20.44,5.14-32C84.67,99.39,92.65,95.68,103.39,96.65Z" style="fill:#e5b7a3"/><path d="M96,89.24c18.8-.31,21.36,20.31,18.62,32.81l-2,1.82c.58-2.73.2-19.82-3.47-23.19-2.1-2.76-3.81-2.11-6.55,0C96,106,89.3,112,83.07,117.82c-3.17,2.12-2.26,10.27-3.25,13.81a69.05,69.05,0,0,1-3.8,9.15l-6.44,2c10-7.45,5.06-8.7,4.75-20.94C75.91,108.48,81.21,89.1,96,89.24Z" style="fill:#0e3c62"/><path d="M75.35,142.11c1.31-1.1,4.64-5.05,10.2-4.13,1.07.18,7.65,7.23,9.91,7.36,2.48.15,1.54-2.36,3.94-1.83l-2.63-.67a130.55,130.55,0,0,1-12-6.94c-2.8-2-4.41-12.58-4.41-12.58s-.68,9.34-1.85,12.47A56.82,56.82,0,0,1,75.35,142.11Z" style="opacity:0.06"/><path d="M259.83,439.82l.2,13.49H245.44l-1.49-10L232.1,363.84l-6.95-62.79-3.46.16L217.07,366l-2.76,83.25-.13,4H199.05l-.1-1.11-7.79-87.7-3.07-61.78.92-36.61c.37.25,69.63-.15,69.9-.2l1.3,33.56-1.5,64Z" style="fill:#d6e6f2"/><path d="M259.83,439.82l.2,13.49h-7c-.17-1.5-.38-5.88-.62-11.84-.68-17.22-1.59-47.82-2.32-61.67-1-18,1.43-78.14,1-89-.33-8-41.55-7.17-62.41-10.43-1.19-.18,53.62-13.49,53.07-14.38,9.82,0,17.08-.1,17.17-.12l1.3,33.56-1.5,64Z" style="opacity:0.08"/><path d="M207.55,453.31h6.63l.13-4-6.64,1.28C207.63,451.47,207.6,452.39,207.55,453.31Z" style="opacity:0.08"/><path d="M207.93,423.77c0,8.94.08,17.88-.26,26.78l6.64-1.28L217.07,366l4.62-64.83S211.57,343.75,210.47,360C209,381.2,207.81,402.48,207.93,423.77Z" style="opacity:0.08"/><path d="M277.62,224l-3.7-63.22h0a17.53,17.53,0,0,0-7.57-8.68,19.93,19.93,0,0,0-6.3-2.76l-34.66-12.58a1.66,1.66,0,0,1,0-.22s0-.07,0-.11l-.22-.08-.45.16-.44-.16-.22.08s0,.07,0,.11l0,.22-34.66,12.58a18.11,18.11,0,0,0-12.9,10.83h0l-3.69,63.22-5.44,58.84,12.46,2.47,9.38-53.92s1.42-27.57,1.36-32.39l.67,33.66-1.93,25.58h0l-.52,22.79c23.61-.26,47.23-.24,70.85-.24l-3.77-47.82.05-1.51,3-32.83,1,4.2.07-3.21c-.06,4.81,1.36,32.38,1.36,32.38l9.38,53.92,12.46-2.47Z" style="fill:#124e77"/><path d="M178.93,282l.52-2.69a14.8,14.8,0,0,1-11-.36l-.12,2h0L163,299.55l2.07,12,4.16,5.58a2.56,2.56,0,0,0,3.36-2.24c.48-3.07,2.29-16.91,2.29-16.91s2.1-.75,2.34,1.92,1.28,6.72,4.46,6.69l-.34-12.64Z" style="fill:#bd8b6f"/><polygon points="255.76 232.34 257.05 190.96 254.81 181.09 254.06 191.44 251.08 232.1 254.06 265.79 258.91 265.9 258.54 258.09 255.76 232.34" style="opacity:0.1"/><path d="M245.44,453.31,235.75,460c-8.78.87-9.38,10.33-9.38,10.33h36.44c.8-8.74-1.77-13.94-2.71-17Z" style="fill:#e9f5ff"/><path d="M235.84,470.32h8a6,6,0,0,1,1.22-2c4.45-4.88,10.31-8.1,16.65-10.23a7.82,7.82,0,0,0-.27-.94C251.53,458.78,242.11,461.06,235.84,470.32Z" style="fill:#e11e19"/><path d="M199.05,453.31,181.29,460c-8.78.87-9.39,10.33-9.39,10.33h43.9a38.81,38.81,0,0,0-1.65-17Z" style="fill:#e9f5ff"/><path d="M186.85,470.32h9.2a5.77,5.77,0,0,1,1.16-1.54,49.71,49.71,0,0,1,17.47-10.58C204.11,460.06,193.43,463.17,186.85,470.32Z" style="fill:#e11e19"/><path d="M226.37,470.32h36.44a33.68,33.68,0,0,0,.14-3.68H227.26A13.72,13.72,0,0,0,226.37,470.32Z" style="fill:#0e3c62"/><path d="M172.83,466.55a14,14,0,0,0-.93,3.77h43.9c.13-1.31.2-2.52.23-3.68H173.77A5.55,5.55,0,0,1,172.83,466.55Z" style="fill:#0e3c62"/><path d="M198.63,97.82l2.54,21.38A17.54,17.54,0,0,0,221,134.51c10-1.18,17.42-20,17.32-26.59L236.69,93.3Z" style="fill:#bd8b6f"/><path d="M212.54,121.19l-.69,22.36c1,3.74,6.08,12.09,8.24,16.42.43-.05,2,0,2.36,0,3.41-4.84,12-15.24,12.05-17.84l-2.06-22.45Z" style="fill:#bd8b6f"/><path d="M212.08,136,212,139.7c4.21,3.2,12.21.24,16-2.61a17.71,17.71,0,0,0,5.44-6.92l-.83-9.11C229.31,128.61,219.56,133.36,212.08,136Z" style="opacity:0.1"/><path d="M217.07,79.28l-23.28,4.37c-4,12.07,4.84,14.17,4.84,14.17l22.83-2.71c5.91-.7,6.07,4.93,6.07,4.93l1.05,6,2.95-.35s.78-2.56,2.31-2.74c1.14-.14,2.27-.17,2.69,3.37,1.15,9.67-3.77,9.38-3.77,9.38l-.56,7.19.93,3c5.24-11,5.75-18.92,5.75-18.92l-1.62-13.67C235.4,77.61,217.07,79.28,217.07,79.28Z" style="fill:#302a2a"/><path d="M211.77,133.49l.23,2a13.66,13.66,0,0,0,15.52-5A16.8,16.8,0,0,1,211.77,133.49Z" style="opacity:0.1"/><path d="M231.34,102.74l-2.88.34c1.25,20.39-6.73,20.93-16.56,22.07-11,1.27-11-8.08-11-8.08s0,22.42,13.25,21.71c20.36-1.09,18.79-22.92,18.79-22.92Z" style="fill:#302a2a"/><path d="M220.31,125.16a6.44,6.44,0,0,0-7.18-5.59l-4.71.56a6.43,6.43,0,0,0-5.67,7.12L203,129a6.43,6.43,0,0,0,7.17,5.59l4.72-.56a6.44,6.44,0,0,0,5.67-7.11Z" style="fill:#302a2a"/><path d="M206.52,126.23c.35,2.89,2.4,2.54,4.94,2.24s4.62-.45,4.28-3.34Z" style="fill:#bd8b6f"/><path d="M271.16,285.21l-6.78,13,0,3.47,16.41-3,1.95-6.18c.47-2.57.51-5.45-.82-7.62l.27-1.76-10.78,1.91Z" style="fill:#bd8b6f"/><path d="M212,138.67l-1.22-.27-4.26,3.66c0,5.26,3.36,13.53,3.36,13.53l6.87-8.51C210.87,143.72,212,138.67,212,138.67Z" style="fill:#f7f8f9"/><path d="M212.47,152.38c.78,7.13,7.62,7.59,7.62,7.59l-3.34-12.89Z" style="fill:#d5dee2"/><path d="M227.52,146.69l6.42,7.31a59,59,0,0,0,4.95-11.31L234,136.86S232.22,144.16,227.52,146.69Z" style="fill:#f7f8f9"/><path d="M222.45,160s4.87-1.4,6.34-2.84c3.64-3.56,3.56-5.1,3.56-5.1l-4.83-5.32Z" style="fill:#d5dee2"/><path d="M285,306.64l-.79,7.64-2.73-.28.62-5.62a2.36,2.36,0,0,0-1.91-2.7l-23.83-2.48a2.34,2.34,0,0,0-2.42,2.25l-.62,5.62-3-.31.79-7.64a3.76,3.76,0,0,1,3.88-3.6l26.92,2.8A3.75,3.75,0,0,1,285,306.64Z" style="fill:#2f363e"/><rect x="235.33" y="297.82" width="58.6" height="82.16" rx="8.17" transform="translate(-99.85 567.01) rotate(-84.06)" style="fill:#2f363e"/><path d="M303.25,311.86l-71.08-7.4a7,7,0,0,0-7.7,6.14L222,334.49l42.3,6.66L307,343.34l2.48-23.89A7,7,0,0,0,303.25,311.86Z" style="fill:#5b6375"/><polygon points="222.44 329.99 222.21 332.19 264.51 338.85 307.28 341.04 307.5 338.85 264.74 336.66 222.44 329.99" style="fill:#2f363e"/><rect x="261.53" y="330.78" width="6.38" height="14.51" rx="2.77" transform="translate(36.42 -25.59) rotate(5.94)" style="fill:#dce3e8"/><path d="M278.7,304.12c-.17,1.7-1.4,3-2.73,2.82l-16-1.66c-1.33-.14-2.27-1.63-2.09-3.33l.1-1c.18-1.7,1.4-3,2.74-2.82l16,1.66c1.33.14,2.27,1.63,2.09,3.33Z" style="fill:#2f363e"/><path d="M278.83,303.12l-.05.52-21-2.18.05-.52c.18-1.72,1.41-3,2.75-2.85l16.11,1.67C278.07,299.9,279,301.41,278.83,303.12Z" style="fill:#5b6375"/><path d="M269.05,315.88l7.2-2.27a6.32,6.32,0,0,0,4-4.35L283.55,297,283,288.3a25.28,25.28,0,0,0-.75-2.53l-.17-2.74-10.77,2.18-3.53,9.59Z" style="fill:#bd8b6f"/><path d="M268.68,314.7a1.69,1.69,0,0,0,3.37-.07l.36-19.29-4.52.51Z" style="fill:#bd8b6f"/><path d="M140.84,164.49s1.14,41.13,3.41,55.57,5.37,44.41,6.64,56.39,2.14,82.6,2.14,82.6-24.07-3.63-28.59-3.63-9.76-.31-9.76-.31V341L114,180.41Z" style="fill:#04b8b5"/><path d="M128,380.15s-3.44,16.89-3.44,22.26S128,424.19,128,427.75s-1.64,16.58-1.09,17.39,8-8.12,10.8-9.09a17.26,17.26,0,0,0,4.88-2.78s-1.94-7-1.94-11.2,1-13.32,1.94-16.74,4.4-19.84,4.4-19.84Z" style="fill:#ffb19c"/><path d="M152.2,386.13s-2.08,15.61-2.24,22.62-.85,37.37-.85,37.37L160,447.41s5.66-16.41,7.61-23.22,4.89-18.86,5.38-23.56,2.42-13.8,2.42-13.8Z" style="fill:#ffb19c"/><path d="M182.27,283.45l-32.15,2.12-11.24-98.65v-9.09s37.86-10.41,48.43-7.24,12.36,8.19,12.19,11.62-11.88,40.14-12.5,50.56S182.27,283.45,182.27,283.45Z" style="fill:#05aaab"/><path d="M132.11,356.16s-.39,9.83-1.5,13.41-3.1,8.45-3.58,9.59,1.78,6,7.95,8,12.53.33,15,0,11,3.1,15.57,3.28,13.8-2.77,13.8-2.77-1.29-16.42,0-23.24,3.1-15.61,3.1-15.61l2-3.59s-3.91-11.71-3.91-20.14V282.8s-11.7,1.29-17.25,1.29a122.8,122.8,0,0,1-14.13-1.29s2,22,2,35.35,1.91,40.9,1.91,40.9Z" style="fill:#1c77c3"/><path d="M124.74,189.55s.66,24.67,0,35.58-2.27,23.52-1.93,32,7,40.75,7,40.75-3.91-3.05-8.29-1.1-9,8.59-9,8.59-6.84-30.52-6.84-56.06,2.79-53.95,4.75-61.9,3.56-7,3.56-7Z" style="fill:#05aaab"/><path d="M114.26,303.12s.87,11.08,2.31,14.49,4.58,4.35,6.48,3.8,2.47-6.55,3.1-8.61,2.79.07,3.64-.45-.95-15.56-.95-15.56l-7.93-2.35-6.65,7.27Z" style="fill:#ffb19c"/><path d="M182.12,350.36s7.15-2.25,9.09-3.52,6.18-6.84,10.07-7.8,11.37-3.92,11.71-5.86-5.52-31.86-7.5-40.95-2.6-29.26-3.89-32.83-8.76-19.17-9.41-22.09a31.27,31.27,0,0,0-1.31-4.54s-2,11.67-4.55,12-6.5.31-6.5.31.34,41.53,0,49.34-.65,33.21,0,35.47S182.12,350.36,182.12,350.36Z" style="fill:#04b8b5"/><path d="M154,124.19c-3.6.81-12.35,5.37-12.19,15.45s.23,15.39,4.54,20.26,6.78,9.62,13.35,9.55,11.69-5.53,13.13-12.14,2.12-14.91,1.46-18.82-5.2-13.81-11.85-14.3S154,124.19,154,124.19Z" style="fill:#ffb19c"/><path d="M187.51,211s3.41,14.36,3.3,17,.49,8.55.61,10.35-1.95,8.06-1.95,8.06l-8.9-.61s-.23-8.18-3.17-11.6-7.09-8.89-9-9-6.58-4.4-6.58-4.4l10-39.47s13.38,9.12,14.27,10.84S187.51,211,187.51,211Z" style="fill:#5f1625"/><path d="M159.72,114.94c4.84.16,15.59,7.64,16.89,11.54s4.2,11.55,4.2,18.69,1.47,15.93,1.62,18a56.11,56.11,0,0,0,1.81,7.39L167,170s7.83-13.13,7.6-17.18-4.83-10.74-6.91-12.67-6.74-5.69-9.49-8.61-8.41-5.53-8.41-5.53v-7.17a5.17,5.17,0,0,1,3.26-3.88C156,113.81,159.72,114.94,159.72,114.94Z" style="fill:#bf702c"/><path d="M188.78,183.36l-2.11,6.19-6.18.95s-2-4.23-3.59-7.14-4.05-5.22-5.2-6.67a27,27,0,0,1-2.75-5c-.64-1.47-2-5-2-5s.65-2.61,1.33-2.76,2.1,3.82,4.7,3.82,3.17-3.18,3.33-5.51c.08-1.35.12-5.21-.47-5.53-1.55-.91-3.28-.57-4.07-1.07-1-.69-2.85-4.72,1.54-4.88s6.83,2.27,7.15,4.22,0,6.52,0,8.79.32,9.09,1.78,12.2S188.78,183.36,188.78,183.36Z" style="fill:#ffb19c"/><path d="M207.13,225.13c3.43-3.25,5.37-12.35,3.9-16.93s-6.48-9.81-9.09-13.49c-2-2.84-5.69-5.51-7.48-7.62a94.19,94.19,0,0,0-7.15-6.69s1,6-1.31,8-7.8,1.3-7.8,1.3,5.2,17.07,7.5,21.62,5.17,14.28,10.53,15.41S205.85,226.34,207.13,225.13Z" style="fill:#36c6c4"/><path d="M140.84,164.49s2.43-9.09,3.91-6.81,7.19,8.47,9.58,9.92a10,10,0,0,0,7.46,1.66,10.16,10.16,0,0,0,5.19-2.65l12.47,18.86a123.17,123.17,0,0,1-1.56,17.36c-1.47,8,1.61,21.63,0,22.6s-8-2.09-10.91-2.27-3.46,6-6.82,6.18-3.23-12-3.23-16.56,1.31-18.22-.33-22.28-2.77-6.5-6.83-7.65S140,180.4,140,180.4Z" style="fill:#e11e19"/><path d="M158.56,210s-5.06-1.31-7.67-3.25-3.23-7-4.85-9.43-4.18-6.83-4.18-6.83l-.71-12.67L153,180.4l8.76,10.1Z" style="fill:#c60006"/><path d="M126.94,445.14a13.7,13.7,0,0,0,5.58,10.23c2.79,2,16.59,6,16.59,6s4.07-6.83,3.77-9.91-4.91-8.62-6.68-10.89-3.58-7.32-3.58-7.32-5.86,1.79-7.64,3.42S126.94,445.14,126.94,445.14Z" style="fill:#254e6d"/><path d="M160.65,447.68a96.16,96.16,0,0,1,8.75,7.67c4.21,4.21,7.77,10.92,5.91,14.43-1.93,3.69-5.67,5.09-11,4.44s-8.61-5-11-6.4-5.6-2.7-7-3.6c-1.95-1.21-2.68-6-2.68-6l6.56-13.1Z" style="fill:#6588ab"/><path d="M139.6,164.49s1.63-17.35,2.91-22c1.18-4.19,6.74-15,7.26-16.52s0-7.17,0-7.17-5.36-1.11-7.94,2.78-4.42,11.61-4.42,17.15C137.41,146.38,139.6,164.49,139.6,164.49Z" style="fill:#bf702c"/><polygon points="172.05 154.55 176.62 156.48 172.4 167.6 168.37 164.49 172.05 154.55" style="fill:#0e3c62"/></svg>