<svg xmlns="http://www.w3.org/2000/svg" xmlns:xlink="http://www.w3.org/1999/xlink" viewBox="0 0 175 175"><defs><clipPath id="a"><rect width="175" height="175" style="fill:none"/></clipPath></defs><g style="isolation:isolate"><g style="clip-path:url(#a)"><polygon points="124.52 90.67 105.53 90.6 104.55 81.34 112.6 77.42 124.03 78.86 128.24 82.91 127.03 87.91 124.52 90.67" style="fill:#0e3c62"/><polygon points="51.81 90.35 31.9 90.26 31.76 81.34 39.82 77.42 51.24 78.86 55.46 82.91 54.24 87.91 51.81 90.35" style="fill:#0e3c62"/><path d="M4.81,86.62A1.6,1.6,0,0,0,6.17,88.2l14.6,2,.21,0,12.29,0c.85,0,.66-.39.67-1.26a10.08,10.08,0,0,1,.56-3.28,7.07,7.07,0,0,1,6.78-4.39,7.59,7.59,0,0,1,5.21,1.73,7.2,7.2,0,0,1,1.76,2.66A8.11,8.11,0,0,1,48.78,88c0,.75-.05,1.56.34,2h0a1.26,1.26,0,0,0,1,.33l55.88.25a1.59,1.59,0,0,0,1.59-1.48c0-.13,0-.27,0-.42a4.88,4.88,0,0,1,.06-.52q0-.28.09-.6t.09-.45c0-.15.07-.3.11-.46s0-.15.07-.23a2,2,0,0,1,.07-.23,1.21,1.21,0,0,1,.05-.18.56.56,0,0,0,0-.12l.06-.17a6.34,6.34,0,0,1,6.57-4.4,6.8,6.8,0,0,1,6.63,4.4,11.33,11.33,0,0,1,.52,1.63,1.16,1.16,0,0,1,0,.18c.06.26.11.52.15.76a1,1,0,0,0,0,.16c0,.18,0,.35.07.51s0,.1,0,.15v.06a.06.06,0,0,1,0,0,1.61,1.61,0,0,0,1.59,1.45l13.27,0,7.6-.31.22,0a2.28,2.28,0,0,0,.39-.06l.1,0,.15,0,.08,0,.13,0,.19-.07.19-.09.16-.08,0,0,.15-.09.14-.1.2-.16.14-.12.11-.12.11-.11a.52.52,0,0,0,.1-.11l.13-.16.12-.17a4,4,0,0,0,.22-.34c.06-.1.11-.2.16-.3s.09-.21.14-.31l.12-.33c0-.11.08-.22.11-.33a6.92,6.92,0,0,0,.21-1.12,1.5,1.5,0,0,0,0-.2.53.53,0,0,0,0-.13h0c0-.11,0-.23,0-.35,0-.49,0-1,0-1.6,0-.89,0-1.93,0-3.22-.06-2-.2-4.72-.5-8.44a73.46,73.46,0,0,0-2.93-14.74c-1.22-3.31-3.17-3.87-5.47-3.87H7a1.6,1.6,0,0,0-1.6,1.56L4.83,85.73Z" style="fill:#fc0"/><g style="mix-blend-mode:multiply"><polygon points="131.9 75.92 131.9 78.36 4.97 78.36 5.01 75.92 131.9 75.92" style="fill:#eaeff4"/></g><path d="M6.52,82.34a1.49,1.49,0,0,1-1.65,1.23L5,77.31H5C6.54,77.61,6.71,81.42,6.52,82.34Z" style="fill:#ffb700"/><g style="mix-blend-mode:multiply"><path d="M6,81.2a2.21,2.21,0,0,0,.49-1,8,8,0,0,1,0,2.16,1.49,1.49,0,0,1-1.65,1.23l0-1.91A1.49,1.49,0,0,0,6,81.2Z" style="fill:#cfd1d3"/></g><g style="mix-blend-mode:soft-light"><path d="M145.69,66.09a45.92,45.92,0,0,1,1,6c.18,2.14.2,3.57.28,5.07s-.33,2.88-1.69,3.44a10.27,10.27,0,0,1-2.2.65,6.18,6.18,0,0,1-5.57-1.35l-6-6.58c-3-2.2-5.89-3.19-6.77-3.19H12.91c-4.26,0-4.88-1.5-5.2-4.35Z" style="fill:#fff"/></g><path d="M145.62,67.45a75.35,75.35,0,0,1,.9,10.72l2,0c0-.33,0-.64,0-1-.07-1.42-.18-2.8-.36-5.12a73.46,73.46,0,0,0-2.93-14.74,1.86,1.86,0,0,0-.1-.25h0c-.83-1.79-2.56-1-2.56-.34C142.51,56.79,144.61,60,145.62,67.45Z" style="fill:#6588ab"/><path d="M146.31,67.42a67.36,67.36,0,0,1,.82,9.8l1.33,0c-.07-1.42-.18-2.8-.36-5.12a73.46,73.46,0,0,0-2.93-14.74,1.86,1.86,0,0,0-.1-.25h0c-.75-.39-1.61.12-1.61.55C143.46,57.68,145.39,60.59,146.31,67.42Z" style="fill:#66aede"/><g style="mix-blend-mode:multiply"><path d="M121.45,85.73a11.33,11.33,0,0,1,.52,1.63,1.16,1.16,0,0,1,0,.18c.06.26.11.52.15.76a1,1,0,0,0,0,.16c0,.18,0,.35.07.51s0,.1,0,.15v.06a.06.06,0,0,1,0,0,1.61,1.61,0,0,0,1.59,1.45l13.27,0,7.6-.31.22,0a2.28,2.28,0,0,0,.39-.06l.1,0,.15,0,.08,0,.13,0,.19-.07.19-.09.16-.08,0,0,.15-.09.14-.1.2-.16.14-.12.11-.12.11-.11a.52.52,0,0,0,.1-.11l.13-.16.12-.17a4,4,0,0,0,.22-.34c.06-.1.11-.2.16-.3s.09-.21.14-.31l.12-.33c0-.11.08-.22.11-.33a6.92,6.92,0,0,0,.21-1.12,1.84,1.84,0,0,0,0-.33Z" style="fill:#eaeff4"/></g><g style="mix-blend-mode:multiply"><path d="M4.78,88l1.39.19,14.6,2,.1,0H21l12.29,0c.85,0,.66-.39.67-1.26a10.08,10.08,0,0,1,.56-3.28H4.83l0,.89Z" style="fill:#eaeff4"/></g><g style="mix-blend-mode:multiply"><path d="M48.25,85.73A8.11,8.11,0,0,1,48.78,88c0,.75-.05,1.56.34,2h0a1.54,1.54,0,0,0,1,.33l55.88.25a1.59,1.59,0,0,0,1.59-1.48c0-.13,0-.27,0-.42a4.88,4.88,0,0,1,.06-.52q0-.28.09-.6t.09-.45c0-.15.07-.3.11-.46s0-.15.07-.23a2,2,0,0,1,.07-.23,1.21,1.21,0,0,0,.05-.18.56.56,0,0,0,0-.12c0-.05,0-.11.07-.17Z" style="fill:#eaeff4"/></g><path d="M145.67,76.7c.15,2.57-3.84,4.06-5.78,2.73a19.13,19.13,0,0,1-2.39-2.22c-3.27-3.71-5.9-7.41-11.88-8.58,0,0-97.37-.17-115.08,0a2.92,2.92,0,0,1-2.83-3.15l.13-7.08a3,3,0,0,1,2.79-3.12c18.79-.13,127.73-.4,129.07.47s3.7,3.92,4.75,10A100.12,100.12,0,0,1,145.67,76.7Z" style="fill:#6588ab"/><path d="M144.6,75.88a2.77,2.77,0,0,1-4.19,2.6,9.2,9.2,0,0,1-1.68-1.36c-3.23-3.28-6.73-8.27-12.63-9.3H11.35a2.8,2.8,0,0,1-2.79-2.88l.13-6.26a2.79,2.79,0,0,1,2.75-2.75c18.55-.11,126.92-.38,127.64.34,1.18,1.2,3.29,3.54,4.33,8.95A97.07,97.07,0,0,1,144.6,75.88Z" style="fill:#66aede"/><path d="M132.46,56a61,61,0,0,1,6.62.25,14.66,14.66,0,0,1,3.8,6.73H132.46Z" style="fill:#6588ab"/><g style="mix-blend-mode:multiply"><path d="M127.45,65.1a47.49,47.49,0,0,1,4.79,1.51A17.42,17.42,0,0,1,136,68.54c1.27.86,2.52,1.75,3.81,2.57a15.53,15.53,0,0,0,3.5,1.82,2.61,2.61,0,0,0,1.07.16c.09,1,.16,2,.21,2.79a2.77,2.77,0,0,1-4.19,2.6,9.2,9.2,0,0,1-1.68-1.36c-3.23-3.28-6.73-8.27-12.63-9.3H11.35A2.8,2.8,0,0,1,8.56,65.1Z" style="fill:#cfd1d3"/></g><g style="mix-blend-mode:soft-light"><path d="M113.51,55.85l4.41,0c1.34,1.87,8.18,11.95,8.18,11.95h-5.18C120.77,67.57,114.53,57.35,113.51,55.85Z" style="fill:#a9a9aa"/></g><g style="mix-blend-mode:soft-light"><path d="M109.37,55.83h2.17c2.37,3.92,4.56,7.95,6.73,12H116C113.72,63.88,111.46,59.9,109.37,55.83Z" style="fill:#a9a9aa"/></g><g style="mix-blend-mode:soft-light"><polygon points="89.8 55.79 94.55 55.8 100.45 67.82 95.56 67.82 89.8 55.79" style="fill:#a9a9aa"/></g><g style="mix-blend-mode:soft-light"><path d="M66.3,55.79h4c2.13,3.92,4,8,5.85,12H72Z" style="fill:#a9a9aa"/></g><g style="mix-blend-mode:soft-light"><path d="M41.38,55.83h4.1l5.31,12H46.37S43.15,59.78,41.38,55.83Z" style="fill:#a9a9aa"/></g><g style="mix-blend-mode:soft-light"><path d="M33.45,55.85h3.21c1.62,3.86,3,7.82,4.57,11.69h0a2.26,2.26,0,0,1,.12.28H38S35.12,59.42,33.45,55.85Z" style="fill:#a9a9aa"/></g><g style="mix-blend-mode:soft-light"><path d="M11.44,55.93l2.93,0,5.05,11.91h-5a79.37,79.37,0,0,1-4.25-11.58A2.75,2.75,0,0,1,11.44,55.93Z" style="fill:#a9a9aa"/></g><g style="mix-blend-mode:soft-light"><polygon points="18.03 55.9 22.55 55.88 27.92 67.82 23.16 67.82 18.03 55.9" style="fill:#a9a9aa"/></g><g style="mix-blend-mode:soft-light"><path d="M59.16,55.8H62c1.6,4,3.32,8,4.84,12h-3C62.11,63.9,59.16,55.8,59.16,55.8Z" style="fill:#a9a9aa"/></g><g style="mix-blend-mode:soft-light"><polygon points="84.34 55.79 87.24 55.79 92.61 67.82 89.8 67.82 84.34 55.79" style="fill:#a9a9aa"/></g><g style="mix-blend-mode:soft-light"><path d="M132.9,56a56.2,56.2,0,0,1,6.18.25c1.18,1.2,3.29,3.54,4.33,8.95.06.35.13.72.19,1.1C140,63,136.43,59.49,132.9,56Z" style="fill:#cfd1d3"/></g><path d="M48.13,53.42c.14-1.31,1.6-2.34,3.36-2.34H80.84c1.76,0,3.22,1,3.36,2.34Z" style="fill:#6588ab"/><path d="M93.65,53.46a1.8,1.8,0,0,1,1.69-1.21h14.42a1.79,1.79,0,0,1,1.69,1.21Z" style="fill:#6588ab"/><rect x="131.78" y="55.79" width="0.77" height="15.39" transform="translate(264.33 126.97) rotate(180)" style="fill:#6588ab"/><rect x="106.41" y="55.79" width="0.77" height="12.38" transform="translate(213.59 123.95) rotate(180)" style="fill:#6588ab"/><rect x="81.5" y="55.79" width="0.77" height="12.38" transform="translate(163.78 123.95) rotate(180)" style="fill:#6588ab"/><rect x="56.6" y="55.79" width="0.77" height="12.38" transform="translate(113.97 123.95) rotate(180)" style="fill:#6588ab"/><rect x="31.69" y="55.79" width="0.77" height="12.38" transform="translate(64.16 123.95) rotate(180)" style="fill:#6588ab"/><path d="M127.33,53.75c.71,0,1.92,1.06,2.51,1.44.85.54,1.68,1.11,2.54,1.63a16.4,16.4,0,0,0,8.41,2.31c3.06.09,6.29-.14,9.11,1.25s3.59,4.45,3.07,7.36c-.11.62-1,.5-1.14,0-.47-1.34-.71-3.13-1.64-4.22-2.5-2.93-9.09-1.65-12.48-2-6-.69-11.22-2.81-16.78-4.94a34.1,34.1,0,0,1-3.4-1.46,15.69,15.69,0,0,0-2-1.33Z" style="fill:#fc0"/><path d="M139.48,59.51c0-.17.87-.39,1.31-.38,3.06.09,6.29-.14,9.11,1.25s3.59,4.45,3.07,7.36c-.11.62-1,.5-1.14,0-.47-1.34-.71-3.13-1.64-4.22-1.94-2.26-6.32-2-9.77-2a.93.93,0,0,1-.94-.92Z" style="fill:#6588ab"/><g style="mix-blend-mode:multiply"><path d="M141.36,60.9c1.45.15,6.81.15,7.95.87.79.5,2.24,1.58,3.36,1.65a8.07,8.07,0,0,1,.3,4.32c-.11.62-1,.5-1.14,0-.47-1.34-.71-3.13-1.64-4.22-1.94-2.26-6.32-2-9.77-2a.93.93,0,0,1-.94-.92v-.28A5.06,5.06,0,0,0,141.36,60.9Z" style="fill:#6588ab"/></g><circle cx="114.98" cy="89.04" r="6.46" style="fill:#0e3c62"/><g style="opacity:0.55;mix-blend-mode:soft-light"><path d="M117.37,84.32a9.61,9.61,0,0,0-6.25-.46A6.4,6.4,0,0,1,115,82.57a6.47,6.47,0,0,1,6.1,8.63C120.89,88.16,120.08,85.7,117.37,84.32Z" style="fill:#b4b6b8"/></g><g style="mix-blend-mode:multiply"><path d="M109.64,85.4a10.14,10.14,0,0,0,.5,2.9A6.93,6.93,0,0,0,113.25,92a7.06,7.06,0,0,0,5,1,7,7,0,0,0,2.54-1,6.46,6.46,0,1,1-11.14-6.49Z" style="fill:#cfd1d3"/></g><circle cx="114.98" cy="89.04" r="3.3" style="fill:#6588ab"/><g style="mix-blend-mode:soft-light"><circle cx="114.98" cy="89.04" r="1.97" style="fill:#b4b6b8"/></g><path d="M117.14,87.64a.15.15,0,0,0,.15-.14,1.25,1.25,0,0,0-.93-1,.13.13,0,0,0-.17.1.15.15,0,0,0,.1.17,1,1,0,0,1,.71.72A.15.15,0,0,0,117.14,87.64Z" style="fill:#b4b6b8"/><path d="M117.14,90.51h.06a1.25,1.25,0,0,0,.52-1.25.14.14,0,0,0-.28,0,1,1,0,0,1-.35,1,.13.13,0,0,0-.07.18A.13.13,0,0,0,117.14,90.51Z" style="fill:#b4b6b8"/><path d="M112.88,90.51a.13.13,0,0,0,.12-.08.13.13,0,0,0-.07-.18,1,1,0,0,1-.35-1,.13.13,0,0,0-.11-.16.14.14,0,0,0-.17.11,1.25,1.25,0,0,0,.52,1.25Z" style="fill:#b4b6b8"/><path d="M114.89,91.88a1.39,1.39,0,0,0,.63-.15.16.16,0,0,0,0-.2.14.14,0,0,0-.19,0,1,1,0,0,1-1,0,.14.14,0,0,0-.21.19A1.1,1.1,0,0,0,114.89,91.88Z" style="fill:#b4b6b8"/><path d="M112.88,87.64a.15.15,0,0,0,.14-.14,1,1,0,0,1,.71-.72.15.15,0,0,0,.1-.17.13.13,0,0,0-.17-.1,1.24,1.24,0,0,0-.92,1A.14.14,0,0,0,112.88,87.64Z" style="fill:#b4b6b8"/><circle cx="41.35" cy="89.04" r="6.46" style="fill:#0e3c62"/><g style="opacity:0.55;mix-blend-mode:soft-light"><path d="M43.73,84.32a9.61,9.61,0,0,0-6.25-.46,6.47,6.47,0,0,1,10,7.34C47.26,88.16,46.45,85.7,43.73,84.32Z" style="fill:#b4b6b8"/></g><g style="mix-blend-mode:multiply"><path d="M36,85.4a10.14,10.14,0,0,0,.5,2.9A6.88,6.88,0,0,0,39.62,92a7,7,0,0,0,5,1,6.94,6.94,0,0,0,2.55-1A6.46,6.46,0,1,1,36,85.4Z" style="fill:#cfd1d3"/></g><circle cx="41.35" cy="89.04" r="3.3" style="fill:#6588ab"/><g style="mix-blend-mode:soft-light"><circle cx="41.35" cy="89.04" r="1.97" style="fill:#b4b6b8"/></g><path d="M43.51,87.64a.14.14,0,0,0,.14-.14,1.24,1.24,0,0,0-.93-1,.14.14,0,0,0-.17.1.15.15,0,0,0,.11.17,1,1,0,0,1,.71.72A.14.14,0,0,0,43.51,87.64Z" style="fill:#b4b6b8"/><path d="M43.51,90.51h.06a1.25,1.25,0,0,0,.51-1.25.13.13,0,0,0-.16-.11.14.14,0,0,0-.12.16,1,1,0,0,1-.35,1,.14.14,0,0,0-.07.18A.16.16,0,0,0,43.51,90.51Z" style="fill:#b4b6b8"/><path d="M39.24,90.51a.16.16,0,0,0,.13-.08.14.14,0,0,0-.07-.18,1,1,0,0,1-.35-1,.14.14,0,0,0-.12-.16.13.13,0,0,0-.16.11,1.25,1.25,0,0,0,.51,1.25Z" style="fill:#b4b6b8"/><path d="M41.26,91.88a1.35,1.35,0,0,0,.62-.15.16.16,0,0,0,.06-.2.15.15,0,0,0-.19,0,1,1,0,0,1-1,0,.13.13,0,0,0-.19,0,.14.14,0,0,0,0,.2A1.08,1.08,0,0,0,41.26,91.88Z" style="fill:#b4b6b8"/><path d="M39.24,87.64a.14.14,0,0,0,.14-.14,1,1,0,0,1,.71-.72.14.14,0,0,0,.11-.17.14.14,0,0,0-.17-.1,1.24,1.24,0,0,0-.93,1A.14.14,0,0,0,39.24,87.64Z" style="fill:#b4b6b8"/><rect x="5.02" y="75.74" width="126.92" height="0.35" transform="translate(136.96 151.82) rotate(180)" style="fill:#f6a71c"/><g style="mix-blend-mode:soft-light"><rect x="4.97" y="74.84" width="126.92" height="0.9" transform="translate(136.87 150.58) rotate(180)" style="fill:#fff"/></g><rect x="125.15" y="75.78" width="0.28" height="14.94" transform="translate(250.58 166.51) rotate(180)" style="fill:#f6a71c"/><rect x="105.53" y="75.78" width="0.28" height="14.81" transform="translate(211.34 166.38) rotate(180)" style="fill:#f6a71c"/><rect x="81.75" y="75.78" width="0.28" height="14.7" transform="translate(163.78 166.26) rotate(180)" style="fill:#f6a71c"/><rect x="56.85" y="75.78" width="0.28" height="14.58" transform="translate(113.97 166.15) rotate(180)" style="fill:#f6a71c"/><rect x="52.37" y="75.78" width="0.28" height="14.58" transform="translate(105.01 166.15) rotate(180)" style="fill:#f6a71c"/><rect x="31.62" y="75.78" width="0.28" height="14.46" transform="translate(63.52 166.02) rotate(180)" style="fill:#f6a71c"/><rect x="21.27" y="75.78" width="0.28" height="14.46" transform="translate(42.82 166.02) rotate(180)" style="fill:#f6a71c"/><polygon points="132.1 90.59 131.77 90.59 131.77 73.82 132.1 74.09 132.1 90.59" style="fill:#f6a71c"/><path d="M145.34,80.54v9.79l.1,0,.15,0,.08,0V80.37Z" style="fill:#f6a71c"/><path d="M146.53,80.56v3.22h2.1c0-.89,0-1.93,0-3.22Z" style="fill:#6588ab"/><rect x="126.58" y="83.25" width="3.09" height="1.31" transform="translate(256.25 167.82) rotate(180)" style="fill:#ffb700"/><g style="mix-blend-mode:multiply"><rect x="126.87" y="77.24" width="2.74" height="2.69" transform="translate(256.49 157.16) rotate(180)" style="fill:#eaeff4"/></g><path d="M163.14,90.81h3.38c1.87,0,3.38,1.12,3.38,2.5v30.54c0,1.38-1.51,2.5-3.38,2.5h0c-1.87,0-3.38-1.12-3.38-2.5v-33Z" style="fill:#6588ab;fill-rule:evenodd"/><polygon points="12.29 125.86 167.81 125.86 167.81 136.55 12.29 136.55 12.29 125.86 12.29 125.86" style="fill:#d6e6f2;fill-rule:evenodd"/><path d="M18.59,105.37l10.32-8c5.59-4.35,14.32-7,22.47-7H164.76v35.54H22.06c-4.74,0-12.73-3.11-12.73-8.19s6.59-10.22,9.26-12.3Z" style="fill:#e9f5ff;fill-rule:evenodd"/><path d="M164.51,114.23v5H36.64l-25,3.12a7.5,7.5,0,0,1-2.1-2.54l25.08-5.58Z" style="fill:#e11e19;fill-rule:evenodd"/><path d="M56.73,97.08h88.19a2,2,0,0,1,2,2v9.82a2,2,0,0,1-2,2H56.73a2,2,0,0,1-2-2V99.06a2,2,0,0,1,2-2Z" style="fill:#6588ab;fill-rule:evenodd"/><path d="M42.23,97.08H49.4a2,2,0,0,1,2,2v21.46a2,2,0,0,1-2,2H42.23a2,2,0,0,1-2-2V99.06a2,2,0,0,1,2-2Z" style="fill:#0e3c62;fill-rule:evenodd"/><path d="M152,97.08h7.18a2,2,0,0,1,2,2v21.46a2,2,0,0,1-2,2H152a2,2,0,0,1-2-2V99.06a2,2,0,0,1,2-2Z" style="fill:#00385d;fill-rule:evenodd"/><path d="M29.24,97.08h5.67a2,2,0,0,1,2,2v9.82a2,2,0,0,1-2,2H12.54a43,43,0,0,1,6.05-5.49l10.32-8,.33-.26Z" style="fill:#0e3c62;fill-rule:evenodd"/><path d="M56.73,97.08H73.28a2,2,0,0,1,2,2v9.82a2,2,0,0,1-2,2H56.73a2,2,0,0,1-2-2V99.06a2,2,0,0,1,2-2Z" style="fill:#0e3c62;fill-rule:evenodd"/><path d="M80.61,97.08H97.16a2,2,0,0,1,2,2v9.82a2,2,0,0,1-2,2H80.61a2,2,0,0,1-2-2V99.06a2,2,0,0,1,2-2Z" style="fill:#0e3c62;fill-rule:evenodd"/><path d="M104.49,97.08H121a2,2,0,0,1,2,2v9.82a2,2,0,0,1-2,2H104.49a2,2,0,0,1-2-2V99.06a2,2,0,0,1,2-2Z" style="fill:#0e3c62;fill-rule:evenodd"/><path d="M128.36,97.08h16.56a2,2,0,0,1,2,2v9.82a2,2,0,0,1-2,2H128.36a2,2,0,0,1-2-2V99.06a2,2,0,0,1,2-2Z" style="fill:#0e3c62;fill-rule:evenodd"/><path d="M21.81,125.86H166.13l-1,1.73a2.5,2.5,0,0,1-2.51,1.58H25.3a2.48,2.48,0,0,1-2.51-1.58l-1-1.73Z" style="fill:#6588ab;fill-rule:evenodd"/><g style="opacity:0.32"><path d="M69.2,97.1l-4.08,0c-1.24,2.14-7.57,13.73-7.57,13.73h4.79C62.48,110.58,68.25,98.83,69.2,97.1Z" style="fill:#a9a9aa"/></g><path d="M73,97.08H71c-2.19,4.51-4.22,9.14-6.22,13.77h2.07C69,106.33,71.1,101.76,73,97.08Z" style="fill:#a9a9aa;opacity:0.32"/><g style="opacity:0.32"><path d="M94,97.11l-4.09,0c-1.24,2.14-7.57,13.73-7.57,13.73h4.8C87.25,110.59,93,98.84,94,97.11Z" style="fill:#a9a9aa"/></g><path d="M97.79,97.09h-2c-2.19,4.51-4.22,9.14-6.23,13.77h2.07C93.77,106.34,95.86,101.77,97.79,97.09Z" style="fill:#a9a9aa;opacity:0.32"/><g style="opacity:0.32"><path d="M116.07,97.11l-4.09,0c-1.24,2.14-7.57,13.73-7.57,13.73h4.8C109.35,110.59,115.12,98.84,116.07,97.11Z" style="fill:#a9a9aa"/></g><path d="M119.89,97.09h-2c-2.19,4.51-4.22,9.14-6.23,13.77h2.07C115.87,106.34,118,101.77,119.89,97.09Z" style="fill:#a9a9aa;opacity:0.32"/><g style="opacity:0.32"><path d="M140.21,97.12l-4.08,0c-1.24,2.14-7.58,13.73-7.58,13.73h4.8C133.49,110.6,139.26,98.85,140.21,97.12Z" style="fill:#a9a9aa"/></g><path d="M144,97.1h-2c-2.19,4.51-4.22,9.14-6.23,13.77h2.07C140,106.35,142.1,101.78,144,97.1Z" style="fill:#a9a9aa;opacity:0.32"/></g></g></svg>