<svg xmlns="http://www.w3.org/2000/svg" xmlns:xlink="http://www.w3.org/1999/xlink" viewBox="0 0 175 175"><defs><style>.cls-1{fill:none;}.cls-2{isolation:isolate;}.cls-3{fill:#585c68;}.cls-4{clip-path:url(#clip-path);}.cls-23,.cls-5{fill:#0e3c62;}.cls-6{fill:#fc0;}.cls-7{mix-blend-mode:multiply;}.cls-8{fill:#eaeff4;}.cls-9{fill:#ffb700;}.cls-10{fill:#cfd1d3;}.cls-11,.cls-16{mix-blend-mode:soft-light;}.cls-12{fill:#fff;}.cls-13,.cls-19{fill:#6588ab;}.cls-14{fill:#66aede;}.cls-15,.cls-26{fill:#a9a9aa;}.cls-16{opacity:0.55;}.cls-17{fill:#b4b6b8;}.cls-18{fill:#f6a71c;}.cls-19,.cls-20,.cls-21,.cls-22,.cls-23,.cls-24{fill-rule:evenodd;}.cls-20{fill:#d6e6f2;}.cls-21{fill:#e9f5ff;}.cls-22{fill:#e11e19;}.cls-24{fill:#00385d;}.cls-25,.cls-26{opacity:0.32;}</style><clipPath id="clip-path"><rect class="cls-1" width="175" height="175"/></clipPath></defs><g class="cls-2"><g id="tipex"><rect class="cls-3" x="-614.73" y="-42.1" width="1388.69" height="216.83"/></g><g id="Layer_1" data-name="Layer 1"><g class="cls-4"><polygon class="cls-5" points="150.51 88.06 136.38 88.01 135.64 81.12 141.64 78.2 150.15 79.26 153.29 82.28 152.38 86 150.51 88.06"/><polygon class="cls-5" points="96.37 87.82 81.55 87.76 81.45 81.12 87.45 78.2 95.95 79.26 99.09 82.28 98.19 86 96.37 87.82"/><path class="cls-6" d="M61.38,85a1.19,1.19,0,0,0,1,1.18l10.88,1.49h.15l9.15,0c.63,0,.49-.29.5-.93a7.54,7.54,0,0,1,.42-2.44,5.25,5.25,0,0,1,5.05-3.27,5.61,5.61,0,0,1,3.87,1.28,5.42,5.42,0,0,1,1.32,2,6,6,0,0,1,.39,1.69c0,.56,0,1.16.26,1.49h0a1,1,0,0,0,.72.25l41.61.18a1.19,1.19,0,0,0,1.19-1.1c0-.1,0-.2,0-.31s0-.26,0-.39,0-.29.07-.45.05-.22.07-.33.05-.23.08-.34l0-.17a1.21,1.21,0,0,0,.05-.18s0-.09.05-.13l0-.09s0-.08,0-.12a4.72,4.72,0,0,1,4.89-3.28,5.06,5.06,0,0,1,4.94,3.28,8.41,8.41,0,0,1,.38,1.21.65.65,0,0,1,0,.13c0,.2.08.39.1.57a.43.43,0,0,1,0,.11c0,.14,0,.26,0,.39s0,.07,0,.11v0a0,0,0,0,1,0,0A1.19,1.19,0,0,0,150,88.06l9.88,0,5.66-.23.17,0,.29,0,.07,0,.12,0h0l.1,0,.14,0,.14-.07.12-.06,0,0,.11-.07.1-.07.16-.12.09-.09a.76.76,0,0,0,.09-.09l.08-.08.08-.08.09-.12.09-.13c.06-.08.11-.17.16-.25a1.64,1.64,0,0,0,.12-.22l.11-.24.09-.24c0-.08.05-.17.08-.25a5.79,5.79,0,0,0,.16-.83s0-.1,0-.15a.28.28,0,0,0,0-.09h0c0-.09,0-.18,0-.27,0-.36,0-.75,0-1.19,0-.66,0-1.44,0-2.4,0-1.52-.15-3.51-.37-6.28a54.35,54.35,0,0,0-2.18-11c-.91-2.46-2.36-2.88-4.07-2.88H63a1.19,1.19,0,0,0-1.19,1.17l-.44,22.83Z"/><g class="cls-7"><polygon class="cls-8" points="156.01 77.08 156.01 78.89 61.5 78.89 61.53 77.08 156.01 77.08"/></g><path class="cls-9" d="M62.66,81.86a1.12,1.12,0,0,1-1.23.92l.08-4.67h.05C62.67,78.34,62.8,81.18,62.66,81.86Z"/><g class="cls-7"><path class="cls-10" d="M62.28,81a1.54,1.54,0,0,0,.36-.76,5.78,5.78,0,0,1,0,1.61,1.12,1.12,0,0,1-1.23.92l0-1.42A1.13,1.13,0,0,0,62.28,81Z"/></g><g class="cls-11"><path class="cls-12" d="M166.27,69.76a33.09,33.09,0,0,1,.72,4.49c.13,1.59.15,2.66.21,3.77a2.41,2.41,0,0,1-1.26,2.57,7.81,7.81,0,0,1-1.64.48,4.56,4.56,0,0,1-4.14-1l-4.5-4.9a11.72,11.72,0,0,0-5-2.37H67.41c-3.17,0-3.63-1.12-3.87-3.24Z"/></g><path class="cls-13" d="M166.22,70.77a55.06,55.06,0,0,1,.67,8h1.48c0-.25,0-.48,0-.71-.06-1-.13-2.08-.27-3.81a54.35,54.35,0,0,0-2.18-11l-.07-.18h0c-.61-1.34-1.9-.73-1.9-.25C163.91,62.84,165.47,65.21,166.22,70.77Z"/><path class="cls-14" d="M166.74,70.75a51,51,0,0,1,.61,7.3h1c-.06-1-.13-2.08-.27-3.81a54.35,54.35,0,0,0-2.18-11l-.07-.18h0c-.56-.3-1.19.09-1.19.41C164.62,63.5,166.05,65.66,166.74,70.75Z"/><g class="cls-7"><path class="cls-8" d="M148.23,84.39a8.41,8.41,0,0,1,.38,1.21.65.65,0,0,1,0,.13c0,.2.08.39.1.57a.43.43,0,0,1,0,.11c0,.14,0,.26,0,.39s0,.07,0,.11v0a0,0,0,0,1,0,0A1.19,1.19,0,0,0,150,88.06l9.88,0,5.66-.23.17,0,.29,0,.07,0,.12,0h0l.1,0,.14,0,.14-.07.12-.06,0,0,.11-.07.1-.07.16-.12.09-.09a.76.76,0,0,0,.09-.09l.08-.08.08-.08.09-.12.09-.13c.06-.08.11-.17.16-.25a1.64,1.64,0,0,0,.12-.22l.11-.24.09-.24c0-.08.05-.17.08-.25a5.79,5.79,0,0,0,.16-.83,1.94,1.94,0,0,0,0-.24Z"/></g><g class="cls-7"><path class="cls-8" d="M61.36,86.08l1,.14,10.88,1.49h.15l9.15,0c.63,0,.49-.29.5-.93a7.54,7.54,0,0,1,.42-2.44H61.39V85Z"/></g><g class="cls-7"><path class="cls-8" d="M93.73,84.39a6,6,0,0,1,.39,1.69c0,.56,0,1.16.26,1.49h0a1.28,1.28,0,0,0,.72.25l41.61.18a1.19,1.19,0,0,0,1.19-1.1c0-.1,0-.2,0-.31s0-.26,0-.39,0-.29.07-.45.05-.22.07-.33.05-.23.08-.34a1.09,1.09,0,0,0,0-.17,1.21,1.21,0,0,0,.05-.18s0-.09.05-.13l0-.09s0-.08,0-.12Z"/></g><path class="cls-13" d="M166.26,77.66c.11,1.92-2.86,3-4.3,2A13.92,13.92,0,0,1,160.18,78c-2.43-2.76-4.39-5.52-8.85-6.39,0,0-72.5-.13-85.68,0a2.17,2.17,0,0,1-2.11-2.34l.1-5.28a2.24,2.24,0,0,1,2.07-2.32c14-.1,95.11-.3,96.11.35s2.75,2.92,3.53,7.48A74.16,74.16,0,0,1,166.26,77.66Z"/><path class="cls-14" d="M165.47,77.05A2.06,2.06,0,0,1,162.35,79a6.33,6.33,0,0,1-1.26-1c-2.4-2.44-5-6.16-9.4-6.92H66.25a2.09,2.09,0,0,1-2.08-2.14l.1-4.66a2.08,2.08,0,0,1,2-2.06c13.81-.08,94.5-.28,95,.26.88.89,2.44,2.63,3.22,6.66A74.76,74.76,0,0,1,165.47,77.05Z"/><path class="cls-13" d="M156.42,62.26a44.92,44.92,0,0,1,4.94.19,11,11,0,0,1,2.82,5h-7.76Z"/><g class="cls-7"><path class="cls-10" d="M152.7,69a34.16,34.16,0,0,1,3.56,1.12,12.57,12.57,0,0,1,2.8,1.44c.95.64,1.88,1.3,2.85,1.91a11.47,11.47,0,0,0,2.6,1.35,2,2,0,0,0,.8.12c.06.75.12,1.46.16,2.08A2.06,2.06,0,0,1,162.35,79a6.33,6.33,0,0,1-1.26-1c-2.4-2.44-5-6.16-9.4-6.92H66.25a2.08,2.08,0,0,1-2.07-2Z"/></g><g class="cls-11"><path class="cls-15" d="M142.31,62.14h3.29c1,1.39,6.09,8.9,6.09,8.9h-3.86C147.72,70.86,143.08,63.25,142.31,62.14Z"/></g><g class="cls-11"><path class="cls-15" d="M139.23,62.12h1.62c1.76,2.92,3.39,5.91,5,8.92h-1.67C142.47,68.11,140.79,65.15,139.23,62.12Z"/></g><g class="cls-11"><polygon class="cls-15" points="124.66 62.09 128.19 62.09 132.59 71.05 128.95 71.05 124.66 62.09"/></g><g class="cls-11"><path class="cls-15" d="M107.16,62.09h3c1.58,2.92,3,5.93,4.35,9h-3.07Z"/></g><g class="cls-11"><path class="cls-15" d="M88.61,62.12h3l4,8.94H92.33S89.93,65.06,88.61,62.12Z"/></g><g class="cls-11"><path class="cls-15" d="M82.7,62.13h2.4c1.2,2.87,2.22,5.82,3.4,8.7h0l.09.21H86.07S84,64.79,82.7,62.13Z"/></g><g class="cls-11"><path class="cls-15" d="M66.32,62.19H68.5l3.76,8.87H68.55a61.7,61.7,0,0,1-3.17-8.62A2.11,2.11,0,0,1,66.32,62.19Z"/></g><g class="cls-11"><polygon class="cls-15" points="71.22 62.17 74.59 62.16 78.59 71.05 75.05 71.05 71.22 62.17"/></g><g class="cls-11"><path class="cls-15" d="M101.85,62.1H104c1.18,3,2.47,5.94,3.6,9h-2.2C104.05,68.13,101.85,62.1,101.85,62.1Z"/></g><g class="cls-11"><polygon class="cls-15" points="120.6 62.09 122.75 62.09 126.75 71.05 124.66 71.05 120.6 62.09"/></g><g class="cls-11"><path class="cls-10" d="M156.75,62.26a39.16,39.16,0,0,1,4.61.19c.88.89,2.44,2.63,3.22,6.66,0,.27.09.54.14.82C162,67.43,159.38,64.85,156.75,62.26Z"/></g><path class="cls-13" d="M93.64,60.32a2.34,2.34,0,0,1,2.5-1.74H118a2.34,2.34,0,0,1,2.5,1.74Z"/><path class="cls-13" d="M127.53,60.36a1.33,1.33,0,0,1,1.26-.91h10.74a1.32,1.32,0,0,1,1.25.91Z"/><rect class="cls-13" x="155.92" y="62.09" width="0.58" height="11.46" transform="translate(312.41 135.64) rotate(180)"/><rect class="cls-13" x="137.03" y="62.09" width="0.58" height="9.22" transform="translate(274.63 133.39) rotate(180)"/><rect class="cls-13" x="118.48" y="62.09" width="0.58" height="9.22" transform="translate(237.54 133.39) rotate(180)"/><rect class="cls-13" x="99.94" y="62.09" width="0.58" height="9.22" transform="translate(200.45 133.39) rotate(180)"/><rect class="cls-13" x="81.4" y="62.09" width="0.58" height="9.22" transform="translate(163.37 133.39) rotate(180)"/><path class="cls-6" d="M152.6,60.57c.53,0,1.44.79,1.88,1.07.63.41,1.25.83,1.89,1.22a12.18,12.18,0,0,0,6.26,1.72c2.27.06,4.68-.1,6.78.93s2.68,3.31,2.29,5.48c-.09.46-.72.37-.85,0a9.88,9.88,0,0,0-1.22-3.14c-1.87-2.18-6.77-1.23-9.29-1.52-4.46-.52-8.36-2.09-12.5-3.68a27.08,27.08,0,0,1-2.53-1.08,10.74,10.74,0,0,0-1.53-1Z"/><path class="cls-13" d="M161.66,64.86c0-.12.64-.29,1-.28,2.27.06,4.68-.1,6.78.93s2.68,3.31,2.29,5.48c-.09.46-.72.37-.85,0a9.88,9.88,0,0,0-1.22-3.14c-1.45-1.69-4.71-1.5-7.28-1.46a.69.69,0,0,1-.69-.69Z"/><g class="cls-7"><path class="cls-13" d="M163.05,65.89c1.08.12,5.08.12,5.92.65a6.48,6.48,0,0,0,2.51,1.23A6.13,6.13,0,0,1,171.7,71c-.09.46-.72.37-.85,0a9.88,9.88,0,0,0-1.22-3.14c-1.45-1.69-4.71-1.5-7.28-1.46a.69.69,0,0,1-.69-.69v-.21A3.74,3.74,0,0,0,163.05,65.89Z"/></g><circle class="cls-5" cx="143.41" cy="86.85" r="4.81"/><g class="cls-16"><path class="cls-17" d="M145.19,83.33a7.12,7.12,0,0,0-4.65-.34,4.76,4.76,0,0,1,2.87-1A4.81,4.81,0,0,1,148,88.46C147.81,86.19,147.21,84.36,145.19,83.33Z"/></g><g class="cls-7"><path class="cls-10" d="M139.44,84.14a7.59,7.59,0,0,0,.37,2.16A5.1,5.1,0,0,0,142.13,89a5.17,5.17,0,0,0,5.6,0,4.81,4.81,0,0,1-9.13-2.12A4.75,4.75,0,0,1,139.44,84.14Z"/></g><circle class="cls-13" cx="143.41" cy="86.85" r="2.46"/><g class="cls-11"><circle class="cls-17" cx="143.41" cy="86.85" r="1.47"/></g><path class="cls-17" d="M145,85.8a.1.1,0,0,0,.11-.1,1,1,0,0,0-.69-.74.11.11,0,0,0-.13.08.1.1,0,0,0,.08.12.76.76,0,0,1,.53.54A.09.09,0,0,0,145,85.8Z"/><path class="cls-17" d="M145,88h0a1,1,0,0,0,.38-.94.11.11,0,0,0-.13-.08.1.1,0,0,0-.08.12.74.74,0,0,1-.26.71.09.09,0,0,0,0,.13A.1.1,0,0,0,145,88Z"/><path class="cls-17" d="M141.84,88a.12.12,0,0,0,.1-.07.1.1,0,0,0-.05-.13.74.74,0,0,1-.27-.71.1.1,0,0,0-.2,0,.94.94,0,0,0,.38.94Z"/><path class="cls-17" d="M143.34,89a1,1,0,0,0,.47-.11.11.11,0,0,0-.1-.19.74.74,0,0,1-.75,0,.11.11,0,0,0-.16.14A.8.8,0,0,0,143.34,89Z"/><path class="cls-17" d="M141.84,85.8a.1.1,0,0,0,.11-.1.76.76,0,0,1,.53-.54.11.11,0,0,0,.08-.12.12.12,0,0,0-.13-.08,1,1,0,0,0-.69.74A.1.1,0,0,0,141.84,85.8Z"/><circle class="cls-5" cx="88.59" cy="86.85" r="4.81"/><g class="cls-16"><path class="cls-17" d="M90.36,83.33A7.11,7.11,0,0,0,85.71,83a4.81,4.81,0,0,1,7.41,5.47C93,86.19,92.38,84.36,90.36,83.33Z"/></g><g class="cls-7"><path class="cls-10" d="M84.61,84.14A7.59,7.59,0,0,0,85,86.3,5.14,5.14,0,0,0,87.3,89a5.2,5.2,0,0,0,3.71.72,5.38,5.38,0,0,0,1.9-.76,4.82,4.82,0,0,1-9.14-2.12A4.75,4.75,0,0,1,84.61,84.14Z"/></g><circle class="cls-13" cx="88.59" cy="86.85" r="2.46"/><g class="cls-11"><circle class="cls-17" cx="88.59" cy="86.85" r="1.47"/></g><path class="cls-17" d="M90.2,85.8a.1.1,0,0,0,.1-.1,1,1,0,0,0-.69-.74.12.12,0,0,0-.13.08.1.1,0,0,0,.08.12.76.76,0,0,1,.53.54A.1.1,0,0,0,90.2,85.8Z"/><path class="cls-17" d="M90.2,88h0a1,1,0,0,0,.38-.94.1.1,0,0,0-.12-.08.09.09,0,0,0-.08.12.74.74,0,0,1-.27.71.1.1,0,0,0-.05.13A.12.12,0,0,0,90.2,88Z"/><path class="cls-17" d="M87,88a.11.11,0,0,0,.09-.07.09.09,0,0,0,0-.13A.74.74,0,0,1,86.8,87a.1.1,0,0,0-.09-.12.1.1,0,0,0-.12.08,1,1,0,0,0,.38.94Z"/><path class="cls-17" d="M88.52,89a.92.92,0,0,0,.46-.11.11.11,0,0,0,0-.15.11.11,0,0,0-.14,0,.74.74,0,0,1-.75,0,.1.1,0,1,0-.15.14A.76.76,0,0,0,88.52,89Z"/><path class="cls-17" d="M87,85.8a.09.09,0,0,0,.1-.1.76.76,0,0,1,.53-.54.1.1,0,0,0,.08-.12A.11.11,0,0,0,87.6,85a1,1,0,0,0-.69.74A.1.1,0,0,0,87,85.8Z"/><rect class="cls-18" x="61.54" y="76.94" width="94.5" height="0.26" transform="translate(217.57 154.15) rotate(180)"/><g class="cls-11"><rect class="cls-12" x="61.5" y="76.27" width="94.5" height="0.67" transform="translate(217.51 153.22) rotate(180)"/></g><rect class="cls-18" x="150.98" y="76.98" width="0.2" height="11.12" transform="translate(302.17 165.08) rotate(180)"/><rect class="cls-18" x="136.38" y="76.98" width="0.2" height="11.03" transform="translate(272.96 164.98) rotate(180)"/><rect class="cls-18" x="118.67" y="76.98" width="0.2" height="10.94" transform="translate(237.54 164.9) rotate(180)"/><rect class="cls-18" x="100.12" y="76.98" width="0.2" height="10.85" transform="translate(200.45 164.81) rotate(180)"/><rect class="cls-18" x="96.79" y="76.98" width="0.2" height="10.85" transform="translate(193.79 164.81) rotate(180)"/><rect class="cls-18" x="81.35" y="76.98" width="0.2" height="10.76" transform="translate(162.9 164.72) rotate(180)"/><rect class="cls-18" x="73.64" y="76.98" width="0.2" height="10.76" transform="translate(147.48 164.72) rotate(180)"/><polygon class="cls-18" points="156.16 88 155.91 88 155.91 75.51 156.16 75.72 156.16 88"/><path class="cls-18" d="M166,80.51v7.3l.07,0,.12,0h0V80.39Z"/><path class="cls-13" d="M166.9,80.53v2.4h1.57c0-.66,0-1.44,0-2.4Z"/><rect class="cls-9" x="152.05" y="82.54" width="2.3" height="0.98" transform="translate(306.4 166.05) rotate(180)"/><g class="cls-7"><rect class="cls-8" x="152.27" y="78.06" width="2.04" height="2" transform="translate(306.57 158.12) rotate(180)"/></g><path class="cls-19" d="M156.82,83.21h3.38c1.87,0,3.38,1.12,3.38,2.5v30.54c0,1.38-1.51,2.5-3.38,2.5h0c-1.86,0-3.38-1.12-3.38-2.5v-33Z"/><polygon class="cls-20" points="5.98 118.26 161.5 118.26 161.5 128.94 5.98 128.94 5.98 118.26 5.98 118.26"/><path class="cls-21" d="M12.28,97.77l10.31-8c5.59-4.36,14.33-7,22.48-7H158.45v35.54H15.74C11,118.26,3,115.14,3,110.06s6.59-10.21,9.26-12.29Z"/><path class="cls-22" d="M158.2,106.62v5H30.32L5.37,114.75a7.48,7.48,0,0,1-2.1-2.54l25.07-5.59Z"/><path class="cls-19" d="M50.41,89.48H138.6a2,2,0,0,1,2,2v9.82a2,2,0,0,1-2,2H50.41a2,2,0,0,1-2-2V91.46a2,2,0,0,1,2-2Z"/><path class="cls-23" d="M35.91,89.48h7.18a2,2,0,0,1,2,2v21.46a2,2,0,0,1-2,2H35.91a2,2,0,0,1-2-2V91.46a2,2,0,0,1,2-2Z"/><path class="cls-24" d="M145.68,89.48h7.17a2,2,0,0,1,2,2v21.46a2,2,0,0,1-2,2h-7.17a2,2,0,0,1-2-2V91.46a2,2,0,0,1,2-2Z"/><path class="cls-23" d="M22.93,89.48h5.66a2,2,0,0,1,2,2v9.82a2,2,0,0,1-2,2H6.23a41.89,41.89,0,0,1,6-5.49l10.31-8,.34-.26Z"/><path class="cls-23" d="M50.41,89.48H67a2,2,0,0,1,2,2v9.82a2,2,0,0,1-2,2H50.41a2,2,0,0,1-2-2V91.46a2,2,0,0,1,2-2Z"/><path class="cls-23" d="M74.29,89.48H90.85a2,2,0,0,1,2,2v9.82a2,2,0,0,1-2,2H74.29a2,2,0,0,1-2-2V91.46a2,2,0,0,1,2-2Z"/><path class="cls-23" d="M98.17,89.48h16.56a2,2,0,0,1,2,2v9.82a2,2,0,0,1-2,2H98.17a2,2,0,0,1-2-2V91.46a2,2,0,0,1,2-2Z"/><path class="cls-23" d="M122.05,89.48H138.6a2,2,0,0,1,2,2v9.82a2,2,0,0,1-2,2H122.05a2,2,0,0,1-2-2V91.46a2,2,0,0,1,2-2Z"/><path class="cls-19" d="M15.49,118.26H159.82l-1,1.72a2.49,2.49,0,0,1-2.51,1.59H19A2.49,2.49,0,0,1,16.47,120l-1-1.72Z"/><g class="cls-25"><path class="cls-15" d="M62.89,89.5l-4.09,0c-1.24,2.14-7.57,13.73-7.57,13.73H56C56.16,103,61.94,91.23,62.89,89.5Z"/></g><path class="cls-26" d="M66.71,89.48h-2c-2.19,4.51-4.21,9.13-6.22,13.77h2.07C62.69,98.73,64.78,94.16,66.71,89.48Z"/><g class="cls-25"><path class="cls-15" d="M87.65,89.51l-4.08,0C82.33,91.68,76,103.27,76,103.27h4.79C80.93,103,86.7,91.24,87.65,89.51Z"/></g><path class="cls-26" d="M91.48,89.49h-2c-2.19,4.51-4.21,9.13-6.22,13.77h2.07C87.46,98.74,89.55,94.16,91.48,89.49Z"/><g class="cls-25"><path class="cls-15" d="M109.75,89.51l-4.08,0c-1.24,2.14-7.57,13.73-7.57,13.73h4.79C103,103,108.8,91.24,109.75,89.51Z"/></g><path class="cls-26" d="M113.58,89.49h-2c-2.19,4.51-4.22,9.13-6.22,13.77h2.07C109.56,98.74,111.65,94.16,113.58,89.49Z"/><g class="cls-25"><path class="cls-15" d="M133.89,89.52l-4.08,0c-1.24,2.14-7.57,13.73-7.57,13.73H127C127.17,103,132.94,91.25,133.89,89.52Z"/></g><path class="cls-26" d="M137.72,89.5h-2c-2.19,4.51-4.21,9.13-6.22,13.77h2.07C133.7,98.75,135.79,94.17,137.72,89.5Z"/></g></g></g></svg>