<svg xmlns="http://www.w3.org/2000/svg" xmlns:xlink="http://www.w3.org/1999/xlink" viewBox="0 0 175 175"><defs><clipPath id="a"><rect width="175" height="175" style="fill:none"/></clipPath><clipPath id="b"><path d="M52.62,86.62c3.19-10.42,5.86-16.32,7.62-19.54a4.66,4.66,0,0,1,4-2.61h52.56a4.67,4.67,0,0,1,4,2.61c1.77,3.24,4.43,9.14,7.61,19.54Z" style="fill:none"/></clipPath><clipPath id="c"><path d="M41.78,87.9A1.17,1.17,0,0,0,43,86.73V82.67a2.87,2.87,0,0,0-2.86-2.87l-.34,0L27,81.34a3.3,3.3,0,0,0-2.86,3.79,3.38,3.38,0,0,0,3.38,2.77Z" style="fill:none"/></clipPath><clipPath id="d"><path d="M139.32,87.9a1.17,1.17,0,0,1-1.17-1.17V82.67A2.87,2.87,0,0,1,141,79.8l.35,0,12.75,1.52A3.3,3.3,0,0,1,157,85.13a3.38,3.38,0,0,1-3.38,2.77Z" style="fill:none"/></clipPath></defs><g style="isolation:isolate"><g style="clip-path:url(#a)"><path d="M153.71,89.22H136.83V82.67a4.18,4.18,0,0,1,4.68-4.15L154.25,80a4.6,4.6,0,0,1,4.06,4.57h0A4.61,4.61,0,0,1,153.71,89.22Z" style="fill:#0e3c62"/><path d="M139.32,87.9a1.17,1.17,0,0,1-1.17-1.17V82.67A2.87,2.87,0,0,1,141,79.8l.35,0,12.75,1.52A3.3,3.3,0,0,1,157,85.13a3.38,3.38,0,0,1-3.38,2.77Z" style="fill:#a4c9e7"/><rect x="129.89" y="82.71" width="6.94" height="6.5" style="fill:#0e3c62"/><path d="M27.39,89.22H44.26V82.67a4.17,4.17,0,0,0-4.67-4.15L26.85,80a4.6,4.6,0,0,0-4.06,4.57h0A4.61,4.61,0,0,0,27.39,89.22Z" style="fill:#0e3c62"/><path d="M41.78,87.9A1.17,1.17,0,0,0,43,86.73V82.67a2.87,2.87,0,0,0-2.86-2.87l-.34,0L27,81.34a3.3,3.3,0,0,0-2.86,3.79,3.38,3.38,0,0,0,3.38,2.77Z" style="fill:#a4c9e7"/><rect x="44.26" y="82.71" width="6.94" height="6.5" transform="translate(95.47 171.93) rotate(180)" style="fill:#0e3c62"/><rect x="53.61" y="119.93" width="73.88" height="15.03" style="fill:#0e3c62"/><rect x="129.18" y="117.41" width="18.72" height="27.16" rx="4.69" style="fill:#0e3c62"/><rect x="33.59" y="117.41" width="18.72" height="27.16" rx="4.69" style="fill:#0e3c62"/><path d="M146.89,100.14c-2.4-2.15-2.56-6.27-2.73-7.35-1.23-.08-8.91-4.29-9.82-5.28-4.17-12.56-7.77-19.42-10.21-23.07a8.77,8.77,0,0,0-7.3-3.91H64.27a8.76,8.76,0,0,0-7.3,3.9c-2.44,3.65-6,10.51-10.21,23.08-.91,1-8.59,5.2-9.82,5.28-.17,1.08-.33,5.2-2.73,7.35s-4,7.75-3.3,11.3S36.44,135,36.44,135H54.83a1.3,1.3,0,0,0,1.3-1.32v0a5.09,5.09,0,0,1,5.08-5.1h58.68a5.07,5.07,0,0,1,5.07,5.1v0a1.31,1.31,0,0,0,1.31,1.32h18.39s4.87-20,5.53-23.52S149.28,102.28,146.89,100.14Z" style="fill:#e11e19"/><path d="M43.44,108.75h0a11.19,11.19,0,0,0,11.19,11.18h71.91a11.18,11.18,0,0,0,11.18-11.18h0" style="fill:none;stroke:#d1d1d1;stroke-miterlimit:10;mix-blend-mode:multiply"/><g style="mix-blend-mode:multiply"><path d="M52.69,133.62v0a1.3,1.3,0,0,1-1.3,1.32h3.44a1.3,1.3,0,0,0,1.3-1.32v0a5.09,5.09,0,0,1,5.08-5.1H57.76A5.08,5.08,0,0,0,52.69,133.62Z" style="fill:#ebebeb"/><path d="M146.89,100.14c-2.4-2.15-2.56-6.27-2.73-7.35-1.23-.08-8.91-4.29-9.82-5.28-4.17-12.56-7.77-19.42-10.21-23.07a8.77,8.77,0,0,0-7.3-3.91h-3.44a8.77,8.77,0,0,1,7.3,3.91c2.44,3.65,6,10.51,10.21,23.07.91,1,8.58,5.2,9.82,5.28.17,1.08.33,5.2,2.72,7.35s4,7.75,3.3,11.3c-.47,2.57-3.16,13.75-4.6,19.72-.55,2.28-12.67,3.8-12.67,3.8h15.19s4.87-20,5.53-23.52S149.28,102.28,146.89,100.14Z" style="fill:#ebebeb"/></g><g style="mix-blend-mode:multiply"><path d="M128.41,133.62v0a1.3,1.3,0,0,0,1.3,1.32h-3.44a1.31,1.31,0,0,1-1.31-1.32v0a5.07,5.07,0,0,0-5.07-5.1h3.45A5.08,5.08,0,0,1,128.41,133.62Z" style="fill:#ebebeb"/><path d="M34.21,100.14c2.4-2.15,2.56-6.27,2.73-7.35,1.23-.08,8.91-4.29,9.82-5.28C50.93,75,54.53,68.09,57,64.44a8.76,8.76,0,0,1,7.3-3.91h3.44a8.77,8.77,0,0,0-7.3,3.91C58,68.09,54.37,75,50.2,87.51c-.91,1-8.58,5.2-9.82,5.28-.17,1.08-.33,5.2-2.72,7.35s-4,7.75-3.3,11.3S39.88,135,39.88,135H36.44s-4.87-20-5.53-23.52S31.82,102.28,34.21,100.14Z" style="fill:#ebebeb"/></g><g style="mix-blend-mode:multiply"><path d="M123.23,86.62s.86.66,2.09,1.73c.61.53,1.32,1.17,2.05,1.89a21.48,21.48,0,0,1,2.12,2.39,5.61,5.61,0,0,1,.79,1.44,1.17,1.17,0,0,1,.05.2,1.33,1.33,0,0,1,0,.21l0,.39a5,5,0,0,1-.13.79,6.74,6.74,0,0,1-.54,1.37,10.74,10.74,0,0,1-.67,1.14,17.25,17.25,0,0,1-1.19,1.57c-.31.36-.5.56-.5.56s.18-.21.47-.58a19.23,19.23,0,0,0,1.14-1.6,11,11,0,0,0,.63-1.14,6.48,6.48,0,0,0,.51-1.36,4.57,4.57,0,0,0,.12-.74l0-.39a.63.63,0,0,0,0-.19.61.61,0,0,0,0-.18,5.19,5.19,0,0,0-.78-1.39,21,21,0,0,0-2.08-2.38c-.72-.73-1.4-1.38-2-1.93C124.06,87.32,123.23,86.62,123.23,86.62Z" style="fill:#cfcfcf"/></g><g style="mix-blend-mode:multiply"><path d="M57.87,86.62s-.83.7-2,1.8c-.6.55-1.28,1.2-2,1.93a22.09,22.09,0,0,0-2.09,2.38A5.44,5.44,0,0,0,51,94.12a.61.61,0,0,0,0,.18.63.63,0,0,0,0,.19l0,.39a4.57,4.57,0,0,0,.12.74A7.07,7.07,0,0,0,51.5,97c.2.42.43.79.64,1.14.44.68.84,1.23,1.13,1.6l.48.58s-.19-.2-.5-.56a17.25,17.25,0,0,1-1.19-1.57A10.74,10.74,0,0,1,51.39,97a5.76,5.76,0,0,1-.54-1.37,5,5,0,0,1-.13-.79l0-.39a.71.71,0,0,1,0-.21,1.17,1.17,0,0,1,0-.2,5.61,5.61,0,0,1,.79-1.44,21.48,21.48,0,0,1,2.12-2.39c.73-.72,1.44-1.36,2.05-1.89C57,87.28,57.87,86.62,57.87,86.62Z" style="fill:#cfcfcf"/></g><g style="mix-blend-mode:multiply"><path d="M66.48,108.59s.59.59,1.65,1.6c.53.5,1.19,1.11,2,1.78s1.64,1.42,2.64,2.18a18.14,18.14,0,0,0,1.61,1.1,6.56,6.56,0,0,0,2,.7,44.78,44.78,0,0,0,4.47.66c1.56.16,3.18.3,4.82.42s3.32.22,5,.3c1.66-.08,3.34-.18,5-.3s3.26-.26,4.82-.42a42.05,42.05,0,0,0,4.47-.66,6.39,6.39,0,0,0,2-.7,17.49,17.49,0,0,0,1.61-1.1c1-.76,1.87-1.51,2.64-2.18s1.41-1.28,2-1.78c1.06-1,1.65-1.6,1.65-1.6s-.58.6-1.63,1.62c-.53.51-1.17,1.12-1.93,1.81s-1.62,1.44-2.62,2.21a17.19,17.19,0,0,1-1.63,1.11,6.72,6.72,0,0,1-2,.72c-1.41.31-2.92.5-4.48.68s-3.17.32-4.82.44-3.31.24-5,.32c-1.68-.09-3.35-.2-5-.32s-3.26-.27-4.82-.44-3.07-.37-4.48-.68a6.78,6.78,0,0,1-2-.72,18.38,18.38,0,0,1-1.62-1.11c-1-.77-1.86-1.53-2.62-2.21s-1.4-1.3-1.93-1.81C67.06,109.19,66.48,108.59,66.48,108.59Z" style="fill:#cfcfcf"/></g><ellipse cx="90.55" cy="107.73" rx="10" ry="4.8" style="fill:#0e3c62"/><path d="M90.55,102.93l-.68,0c5.21.17,9.33,2.24,9.33,4.78s-4.12,4.61-9.33,4.78h.68c5.52,0,10-2.14,10-4.79S96.07,102.93,90.55,102.93Z" style="fill:#1a72ad"/><path d="M114.62,108.59s2-3.85,3.36-4.84,19.84-6.88,21.31-7.29,5,8.44-1.64,14.42C135,108.83,122,107.6,114.62,108.59Z" style="fill:#a4c9e7"/><path d="M66.48,108.59s-2-3.85-3.36-4.84-19.84-6.88-21.31-7.29-5,8.44,1.63,14.42C46.15,108.83,59.1,107.6,66.48,108.59Z" style="fill:#a4c9e7"/><path d="M52.62,86.62c3.19-10.42,5.86-16.32,7.62-19.54a4.66,4.66,0,0,1,4-2.61h52.56a4.67,4.67,0,0,1,4,2.61c1.77,3.24,4.43,9.14,7.61,19.54Z" style="fill:#a4c9e7"/><path d="M59.8,136.62H73.15A2.11,2.11,0,0,0,75,134.33v-2a2.06,2.06,0,0,0-2.12-2.27l-13.35,2a2.19,2.19,0,0,0-1.66,2.27h0A2.12,2.12,0,0,0,59.8,136.62Z" style="fill:#1a72ad"/><path d="M59.8,136c-.67,0-1.23-.74-1.23-1.63a1.56,1.56,0,0,1,1.1-1.62l13.35-2h.14c.66,0,1.23.75,1.23,1.63v2A1.49,1.49,0,0,1,73.15,136Z" style="fill:#6588ab"/><path d="M120.69,136.62H107.35a2.12,2.12,0,0,1-1.9-2.29v-2a2.06,2.06,0,0,1,2.13-2.27l13.35,2a2.2,2.2,0,0,1,1.66,2.27h0A2.12,2.12,0,0,1,120.69,136.62Z" style="fill:#1a72ad"/><path d="M120.69,136a1.49,1.49,0,0,0,1.24-1.63,1.56,1.56,0,0,0-1.1-1.62l-13.35-2h-.14c-.67,0-1.23.75-1.23,1.63v2a1.49,1.49,0,0,0,1.24,1.63Z" style="fill:#6588ab"/><g style="mix-blend-mode:screen"><path d="M54.81,94.68s1.11-.2,3.06-.48c1-.12,2.17-.29,3.53-.45l2.18-.25L66,93.26c1.68-.16,3.51-.3,5.44-.45s4-.28,6.09-.35l3.22-.14,3.3-.08c2.22-.08,4.48-.06,6.73-.08,1.13,0,2.26,0,3.38,0l3.36.06c2.22.06,4.4.17,6.51.25s4.16.26,6.09.39,3.76.31,5.45.46,3.23.29,4.59.47l3.53.45,3.07.4-3.09-.27-3.54-.32c-.68-.07-1.41-.11-2.18-.16l-2.42-.17c-1.68-.12-3.51-.28-5.44-.35l-3-.15c-1,0-2-.12-3.1-.14-2.11-.07-4.29-.17-6.51-.2l-3.35,0c-1.12,0-2.24,0-3.37,0-2.25,0-4.5,0-6.72,0L80.77,93l-3.21.11c-2.12.07-4.15.18-6.09.26s-3.76.21-5.44.34-3.23.23-4.6.35-2.56.24-3.54.33l-2.28.24Z" style="fill:#212121"/></g><g style="clip-path:url(#b)"><rect x="62.68" y="32.75" width="3.17" height="76.62" transform="translate(69.07 -24.63) rotate(45)" style="fill:#404040;mix-blend-mode:screen"/><rect x="90.36" y="35" width="6.77" height="76.62" transform="translate(79.29 -44.82) rotate(45)" style="fill:#404040;mix-blend-mode:screen"/><rect x="99.76" y="36.03" width="1.57" height="76.62" transform="translate(82.02 -49.32) rotate(45)" style="fill:#404040;mix-blend-mode:screen"/><rect x="120.58" y="39.12" width="5.41" height="76.62" transform="translate(90.86 -64.49) rotate(45)" style="fill:#404040;mix-blend-mode:screen"/></g><g style="clip-path:url(#c)"><rect x="29.9" y="43.73" width="1.27" height="76.62" transform="translate(66.96 2.44) rotate(45)" style="fill:#404040;mix-blend-mode:screen"/><rect x="35.85" y="47.71" width="3.83" height="76.62" transform="translate(71.89 -1.51) rotate(45)" style="fill:#404040;mix-blend-mode:screen"/></g><g style="clip-path:url(#d)"><rect x="149.93" y="43.73" width="1.27" height="76.62" transform="translate(315.05 33.59) rotate(135)" style="fill:#404040;mix-blend-mode:screen"/><rect x="141.41" y="47.71" width="3.83" height="76.62" transform="translate(305.51 45.5) rotate(135)" style="fill:#404040;mix-blend-mode:screen"/></g><rect x="75.64" y="122.34" width="29.81" height="7.06" style="fill:#fff"/></g></g></svg>