<svg id="Layer_2" data-name="Layer 2" xmlns="http://www.w3.org/2000/svg" viewBox="0 0 200 200"><defs><style>.cls-1{fill:#fff;}</style></defs><title>firmenwagen</title><path class="cls-1" d="M44.56,191.06H26.62a7.61,7.61,0,0,1-7.6-7.61V165h4v18.49a3.61,3.61,0,0,0,3.6,3.61H44.56a3.61,3.61,0,0,0,3.6-3.61V163.84h4v19.61A7.61,7.61,0,0,1,44.56,191.06Z"/><path class="cls-1" d="M172.34,191.06H154.41a7.61,7.61,0,0,1-7.61-7.61V165h4v18.49a3.61,3.61,0,0,0,3.61,3.61h17.93a3.61,3.61,0,0,0,3.61-3.61V163.84h4v19.61A7.61,7.61,0,0,1,172.34,191.06Z"/><path class="cls-1" d="M180.19,166.4h-158A15.73,15.73,0,0,1,6.69,150.59c-.42-2.81-5.18-35.38.24-45.33,1.75-3.2,9.26-7,12.3-8.38l10-56.38c3-10.37,8-15.41,15.37-15.41H160c7.36,0,12.39,5,15.37,15.41l.06.24,8.82,55.18c2.71,1.68,9.65,6.22,11.18,9.43,4.86,10.18.57,42.52.2,45.23A15.74,15.74,0,0,1,180.19,166.4ZM33.06,41.5,22.81,99.66l-1,.43c-4.79,2.15-10.51,5.46-11.39,7.08-4.08,7.48-1.23,33.55.22,43l0,.3a11.73,11.73,0,0,0,11.45,12H180.19a11.73,11.73,0,0,0,11.45-12l0-.27c1.3-9.36,3.87-35.35.17-43.08-.89-1.87-6.64-5.94-10.43-8.22l-.8-.48-9.09-56.89c-2.46-8.46-6.11-12.4-11.5-12.4H44.56C39.17,29.09,35.51,33,33.06,41.5Z"/><path class="cls-1" d="M191.4,79.53H180.19a2,2,0,0,1,0-4H191.4a2,2,0,0,1,0,4Z"/><path class="cls-1" d="M23.26,79.53H12.05a2,2,0,1,1,0-4H23.26a2,2,0,1,1,0,4Z"/><path class="cls-1" d="M171.22,99.14H28.71L37,54.19a2,2,0,1,1,3.93.72L33.51,95.14H171.22a2,2,0,0,1,0,4Z"/><path class="cls-1" d="M31.11,144a17.6,17.6,0,0,1-12.3-5,2,2,0,0,1,2.78-2.87,13.69,13.69,0,1,0,9.52-23.53,13.5,13.5,0,0,0-7.3,2.11,2,2,0,0,1-2.15-3.38A17.69,17.69,0,1,1,31.11,144Z"/><path class="cls-1" d="M171.52,144A17.69,17.69,0,1,1,181,111.33a2,2,0,0,1-2.14,3.38,13.56,13.56,0,0,0-7.31-2.11A13.69,13.69,0,1,0,181,136.13a2,2,0,1,1,2.78,2.87A17.6,17.6,0,0,1,171.52,144Z"/><path class="cls-1" d="M143.2,164.16a2,2,0,0,1-1.93-1.46c-1.09-3.84-4.25-14.24-6.26-18.11-6.36-1.68-62.95-.75-67.44.42-2.13.71-3.68,9.58-4.26,12.92-.66,3.76-.88,4.88-1.64,5.64A2,2,0,0,1,58.61,161a37.74,37.74,0,0,0,.76-3.77c1.39-8,2.88-14.67,7-16,2.36-.78,22.5-1.34,36.06-1.49,34.19-.38,35,1.09,35.8,2.38,2.64,4.53,6.75,18.91,6.92,19.52a2,2,0,0,1-1.37,2.47A2.15,2.15,0,0,1,143.2,164.16Z"/></svg>