<svg id="Layer_2" data-name="Layer 2" xmlns="http://www.w3.org/2000/svg" viewBox="0 0 200 200"><defs><style>.cls-1{fill:#fff;}</style></defs><title>firmenevents-kalender</title><path class="cls-1" d="M181.5,193H20.69a8,8,0,0,1-8-8V39a8,8,0,0,1,8-8H181.5a8,8,0,0,1,8,8V185A8,8,0,0,1,181.5,193ZM20.69,35a4,4,0,0,0-4,4V185a4,4,0,0,0,4,4H181.5a4,4,0,0,0,4-4V39a4,4,0,0,0-4-4Z"/><path class="cls-1" d="M47.46,35H41.23a4,4,0,0,1-4-4V11.5a4,4,0,0,1,4-4h6.23a4,4,0,0,1,4,4V31A4,4,0,0,1,47.46,35Zm0-4v0ZM41.23,11.5V31h6.22V11.5Z"/><path class="cls-1" d="M164,35H157.8a4,4,0,0,1-4-4V11.5a4,4,0,0,1,4-4H164a4,4,0,0,1,4,4V31A4,4,0,0,1,164,35Zm0-4v0ZM157.8,11.5V31H164V11.5Z"/><path class="cls-1" d="M40.77,132.77a8.65,8.65,0,1,1,8.64-8.64A8.66,8.66,0,0,1,40.77,132.77Zm0-13.29a4.65,4.65,0,1,0,4.64,4.65A4.65,4.65,0,0,0,40.77,119.48Z"/><path class="cls-1" d="M70.8,132.77a8.65,8.65,0,1,1,8.65-8.64A8.66,8.66,0,0,1,70.8,132.77Zm0-13.29a4.65,4.65,0,1,0,4.65,4.65A4.65,4.65,0,0,0,70.8,119.48Z"/><path class="cls-1" d="M100.84,132.77a8.65,8.65,0,1,1,8.65-8.64A8.66,8.66,0,0,1,100.84,132.77Zm0-13.29a4.65,4.65,0,1,0,4.65,4.65A4.65,4.65,0,0,0,100.84,119.48Z"/><path class="cls-1" d="M160.91,132.77a8.65,8.65,0,1,1,8.65-8.64A8.66,8.66,0,0,1,160.91,132.77Zm0-13.29a4.65,4.65,0,1,0,4.65,4.65A4.65,4.65,0,0,0,160.91,119.48Z"/><path class="cls-1" d="M40.77,93.92a8.65,8.65,0,1,1,8.64-8.65A8.66,8.66,0,0,1,40.77,93.92Zm0-13.3a4.65,4.65,0,1,0,4.64,4.65A4.65,4.65,0,0,0,40.77,80.62Z"/><path class="cls-1" d="M70.8,93.92a8.65,8.65,0,1,1,8.65-8.65A8.66,8.66,0,0,1,70.8,93.92Zm0-13.3a4.65,4.65,0,1,0,4.65,4.65A4.65,4.65,0,0,0,70.8,80.62Z"/><path class="cls-1" d="M100.84,93.92a8.65,8.65,0,1,1,8.65-8.65A8.66,8.66,0,0,1,100.84,93.92Zm0-13.3a4.65,4.65,0,1,0,4.65,4.65A4.66,4.66,0,0,0,100.84,80.62Z"/><path class="cls-1" d="M130.88,93.92a8.65,8.65,0,1,1,8.64-8.65A8.66,8.66,0,0,1,130.88,93.92Zm0-13.3a4.65,4.65,0,1,0,4.64,4.65A4.65,4.65,0,0,0,130.88,80.62Z"/><path class="cls-1" d="M160.91,93.92a8.65,8.65,0,1,1,8.65-8.65A8.66,8.66,0,0,1,160.91,93.92Zm0-13.3a4.65,4.65,0,1,0,4.65,4.65A4.65,4.65,0,0,0,160.91,80.62Z"/><path class="cls-1" d="M40.77,171.63A8.65,8.65,0,1,1,49.41,163,8.66,8.66,0,0,1,40.77,171.63Zm0-13.29A4.65,4.65,0,1,0,45.41,163,4.65,4.65,0,0,0,40.77,158.34Z"/><path class="cls-1" d="M70.8,171.63A8.65,8.65,0,1,1,79.45,163,8.66,8.66,0,0,1,70.8,171.63Zm0-13.29A4.65,4.65,0,1,0,75.45,163,4.64,4.64,0,0,0,70.8,158.34Z"/><path class="cls-1" d="M100.84,171.63a8.65,8.65,0,1,1,8.65-8.65A8.66,8.66,0,0,1,100.84,171.63Zm0-13.29a4.65,4.65,0,1,0,4.65,4.64A4.65,4.65,0,0,0,100.84,158.34Z"/><path class="cls-1" d="M130.88,171.63a8.65,8.65,0,1,1,8.64-8.65A8.66,8.66,0,0,1,130.88,171.63Zm0-13.29a4.65,4.65,0,1,0,4.64,4.64A4.65,4.65,0,0,0,130.88,158.34Z"/><path class="cls-1" d="M160.91,171.63a8.65,8.65,0,1,1,8.65-8.65A8.66,8.66,0,0,1,160.91,171.63Zm0-13.29a4.65,4.65,0,1,0,4.65,4.64A4.64,4.64,0,0,0,160.91,158.34Z"/><rect class="cls-1" x="15.2" y="54.03" width="170.76" height="4"/><polygon class="cls-1" points="131.6 111.24 135.57 119.29 144.45 120.58 138.03 126.85 139.54 135.69 131.6 131.52 123.65 135.69 125.17 126.85 118.74 120.58 127.63 119.29 131.6 111.24"/></svg>