<svg xmlns="http://www.w3.org/2000/svg" xmlns:xlink="http://www.w3.org/1999/xlink" viewBox="0 0 175 175"><defs><clipPath id="a"><rect width="175" height="175" style="fill:none"/></clipPath></defs><g style="clip-path:url(#a)"><path d="M151.87,89.1A61.91,61.91,0,1,1,90,27.19,61.9,61.9,0,0,1,151.87,89.1Z" style="fill:#484f59"/><path d="M148,89.1a58,58,0,1,1-58-58A58,58,0,0,1,148,89.1Z" style="fill:#30363d"/><path d="M145,89.1a55,55,0,1,1-55-55A55,55,0,0,1,145,89.1Z" style="fill:#e9f5ff"/><path d="M145,89.1c2.95-67-103.19-80.42-110.06,0H145Z" style="fill:#04b8b5;opacity:0.24"/><path d="M90,89.1l27.34,47.77A55,55,0,0,0,145,89.1Z" style="fill:#d6e6f2"/><rect x="89.04" y="38.13" width="1.93" height="1.92" style="fill:#484f59"/><rect x="89.04" y="38.29" width="1.93" height="11.65" style="fill:#484f59"/><polygon points="71.23 54.6 69.57 55.56 63.75 45.48 65.41 44.52 71.23 54.6" style="fill:#484f59"/><polygon points="56.49 68.62 55.53 70.28 45.44 64.46 46.41 62.79 56.49 68.62" style="fill:#484f59"/><rect x="39" y="88.08" width="11.64" height="1.93" style="fill:#484f59"/><polygon points="55.49 107.89 56.46 109.55 46.37 115.37 45.41 113.71 55.49 107.89" style="fill:#484f59"/><polygon points="69.52 122.62 71.17 123.59 65.36 133.67 63.7 132.71 69.52 122.62" style="fill:#484f59"/><rect x="88.96" y="128.41" width="1.92" height="11.64" style="fill:#484f59"/><polygon points="108.78 123.62 110.45 122.66 116.28 132.75 114.6 133.7 108.78 123.62" style="fill:#484f59"/><polygon points="123.45 109.54 124.42 107.87 134.51 113.7 133.55 115.36 123.45 109.54" style="fill:#484f59"/><polygon points="129.26 90.07 129.26 88.15 140.9 88.15 140.88 90.07 129.26 90.07" style="fill:#484f59"/><polygon points="124.52 70.34 123.55 68.67 133.64 62.84 134.6 64.51 124.52 70.34" style="fill:#484f59"/><rect x="106.69" y="49.11" width="11.64" height="1.92" transform="matrix(0.5, -0.87, 0.87, 0.5, 12.85, 122.41)" style="fill:#484f59"/><rect x="83.82" y="38.41" width="1.92" height="1.92" transform="translate(-3.63 9.03) rotate(-5.97)" style="fill:#484f59"/><polygon points="80.75 40.92 78.88 41.32 78.47 39.44 80.35 39.05 80.75 40.92" style="fill:#484f59"/><polygon points="75.77 42.15 73.95 42.75 73.35 40.91 75.18 40.32 75.77 42.15" style="fill:#484f59"/><polygon points="70.94 43.9 69.19 44.68 68.41 42.92 70.16 42.14 70.94 43.9" style="fill:#484f59"/><polygon points="66.32 46.13 64.66 47.09 63.7 45.42 65.37 44.46 66.32 46.13" style="fill:#484f59"/><polygon points="61.96 48.84 60.41 49.97 59.28 48.41 60.84 47.28 61.96 48.84" style="fill:#484f59"/><rect x="55.59" y="50.95" width="1.92" height="1.92" transform="translate(-20.21 51.1) rotate(-41.94)" style="fill:#484f59"/><polygon points="54.21 55.55 52.92 56.97 51.49 55.69 52.78 54.26 54.21 55.55" style="fill:#484f59"/><rect x="48.6" y="58.72" width="1.92" height="1.92" transform="translate(-27.89 64.23) rotate(-53.66)" style="fill:#484f59"/><polygon points="48.02 63.72 47.05 65.38 45.4 64.42 46.36 62.75 48.02 63.72" style="fill:#484f59"/><polygon points="45.59 68.24 44.81 69.99 43.06 69.21 43.85 67.45 45.59 68.24" style="fill:#484f59"/><rect x="41.49" y="72.65" width="1.92" height="1.92" transform="translate(-40.68 91.18) rotate(-71.96)" style="fill:#484f59"/><polygon points="42.24 77.93 41.84 79.8 39.95 79.4 40.36 77.53 42.24 77.93" style="fill:#484f59"/><polygon points="41.33 82.97 41.13 84.89 39.21 84.68 39.42 82.78 41.33 82.97" style="fill:#484f59"/><rect x="39.03" y="88.1" width="1.92" height="1.92" style="fill:#484f59"/><polygon points="41.13 93.22 41.32 95.14 39.42 95.33 39.2 93.43 41.13 93.22" style="fill:#484f59"/><polygon points="41.84 98.31 42.23 100.19 40.35 100.58 39.94 98.71 41.84 98.31" style="fill:#484f59"/><polygon points="43.05 103.29 43.65 105.12 41.82 105.71 41.23 103.89 43.05 103.29" style="fill:#484f59"/><polygon points="44.8 108.12 45.58 109.87 43.83 110.65 43.04 108.9 44.8 108.12" style="fill:#484f59"/><polygon points="47.03 112.74 47.99 114.41 46.33 115.36 45.37 113.7 47.03 112.74" style="fill:#484f59"/><rect x="48.57" y="117.48" width="1.93" height="1.91" transform="translate(-59.92 51.34) rotate(-35.79)" style="fill:#484f59"/><polygon points="52.9 121.15 54.17 122.58 52.74 123.87 51.46 122.44 52.9 121.15" style="fill:#484f59"/><polygon points="56.46 124.85 57.88 126.14 56.58 127.56 55.16 126.28 56.46 124.85" style="fill:#484f59"/><rect x="59.62" y="128.55" width="1.92" height="1.92" transform="translate(-79.83 102.56) rotate(-54.07)" style="fill:#484f59"/><polygon points="64.63 131.04 66.28 132 65.32 133.67 63.65 132.71 64.63 131.04" style="fill:#484f59"/><polygon points="69.15 133.46 70.9 134.24 70.11 136 68.35 135.23 69.15 133.46" style="fill:#484f59"/><polygon points="73.9 135.4 75.73 136 75.13 137.82 73.31 137.23 73.9 135.4" style="fill:#484f59"/><polygon points="78.82 136.82 80.71 137.23 80.3 139.11 78.43 138.71 78.82 136.82" style="fill:#484f59"/><polygon points="83.88 137.72 85.79 137.94 85.58 139.84 83.68 139.65 83.88 137.72" style="fill:#484f59"/><polygon points="89 138.09 90.92 138.1 90.92 140.03 89 140.03 89 138.09" style="fill:#484f59"/><rect x="94.23" y="137.83" width="1.91" height="1.92" transform="translate(-13.63 10.41) rotate(-5.84)" style="fill:#484f59"/><polygon points="99.21 137.23 101.09 136.84 101.49 138.72 99.61 139.12 99.21 137.23" style="fill:#484f59"/><polygon points="104.2 136.01 106.02 135.41 106.6 137.24 104.79 137.84 104.2 136.01" style="fill:#484f59"/><polygon points="109.03 134.26 110.78 133.49 111.56 135.24 109.81 136.03 109.03 134.26" style="fill:#484f59"/><polygon points="113.64 132.02 115.31 131.07 116.26 132.73 114.6 133.69 113.64 132.02" style="fill:#484f59"/><polygon points="118 129.32 119.56 128.19 120.68 129.75 119.14 130.88 118 129.32" style="fill:#484f59"/><polygon points="122.05 126.17 123.49 124.89 124.76 126.32 123.34 127.6 122.05 126.17" style="fill:#484f59"/><polygon points="125.75 122.61 127.04 121.19 128.47 122.47 127.19 123.9 125.75 122.61" style="fill:#484f59"/><polygon points="129.06 118.69 130.19 117.14 131.74 118.27 130.62 119.83 129.06 118.69" style="fill:#484f59"/><polygon points="131.94 114.44 132.9 112.78 134.57 113.74 133.62 115.4 131.94 114.44" style="fill:#484f59"/><polygon points="134.36 109.92 135.15 108.17 136.9 108.95 136.13 110.7 134.36 109.92" style="fill:#484f59"/><polygon points="136.3 105.16 136.9 103.34 138.71 103.94 138.15 105.76 136.3 105.16" style="fill:#484f59"/><polygon points="137.73 100.23 138.13 98.35 140 98.76 139.61 100.63 137.73 100.23" style="fill:#484f59"/><polygon points="138.63 95.18 138.84 93.28 140.74 93.48 140.55 95.38 138.63 95.18" style="fill:#484f59"/><polygon points="139 90.06 139 88.15 140.93 88.15 140.94 90.06 139 90.06" style="fill:#484f59"/><polygon points="138.84 84.93 138.63 83.03 140.55 82.83 140.76 84.73 138.84 84.93" style="fill:#484f59"/><polygon points="138.13 79.85 137.74 77.97 139.61 77.58 140.03 79.44 138.13 79.85" style="fill:#484f59"/><polygon points="136.91 74.86 136.32 73.04 138.15 72.45 138.75 74.26 136.91 74.86" style="fill:#484f59"/><rect x="134.69" y="67.81" width="1.93" height="1.92" transform="translate(-16.24 61.13) rotate(-24)" style="fill:#484f59"/><rect x="132.31" y="63.15" width="1.93" height="1.91" transform="translate(-14.18 75.42) rotate(-30.07)" style="fill:#484f59"/><polygon points="130.22 61.07 129.08 59.51 130.65 58.38 131.78 59.93 130.22 61.07" style="fill:#484f59"/><polygon points="127.07 57.01 125.78 55.59 127.23 54.3 128.51 55.72 127.07 57.01" style="fill:#484f59"/><polygon points="123.51 53.31 122.08 52.03 123.38 50.6 124.81 51.87 123.51 53.31" style="fill:#484f59"/><polygon points="119.59 50.01 118.03 48.88 119.18 47.32 120.73 48.43 119.59 50.01" style="fill:#484f59"/><polygon points="115.34 47.12 113.68 46.16 114.64 44.49 116.31 45.44 115.34 47.12" style="fill:#484f59"/><polygon points="110.82 44.7 109.07 43.92 109.86 42.17 111.61 42.94 110.82 44.7" style="fill:#484f59"/><polygon points="106.06 42.76 104.24 42.17 104.85 40.34 106.66 40.93 106.06 42.76" style="fill:#484f59"/><polygon points="101.13 41.33 99.26 40.94 99.67 39.05 101.54 39.44 101.13 41.33" style="fill:#484f59"/><polygon points="96.08 40.44 94.19 40.24 94.38 38.32 96.29 38.51 96.08 40.44" style="fill:#484f59"/><polygon points="84.92 85.15 83.95 86.81 66.5 76.74 67.46 75.07 84.92 85.15" style="fill:#484f59"/><polygon points="88.38 88.42 84.37 86.1 84.62 85.66 88.63 87.99 88.38 88.42" style="fill:#484f59"/><polygon points="99.44 83.23 98.32 81.67 126.45 61.62 127.55 63.19 99.44 83.23" style="fill:#484f59"/><polygon points="91.39 87.95 91.11 87.55 99.26 81.73 99.54 82.13 91.39 87.95" style="fill:#484f59"/><path d="M89.92,90.42a1.8,1.8,0,1,1,1.79-1.79A1.8,1.8,0,0,1,89.92,90.42Zm0-3.1a1.31,1.31,0,1,0,1.29,1.31A1.31,1.31,0,0,0,89.92,87.32Z" style="fill:#484f59"/><path d="M89.92,89.85a1.22,1.22,0,1,1,1.21-1.22A1.23,1.23,0,0,1,89.92,89.85Zm0-1.95a.73.73,0,0,0-.73.73.72.72,0,1,0,1.44,0A.73.73,0,0,0,89.92,87.9Z" style="fill:#ff876c"/><rect x="89.79" y="89.69" width="0.36" height="41.73" style="fill:#ff876c"/><rect x="89.79" y="81.92" width="0.36" height="5.74" style="fill:#ff876c"/><path d="M90,144.13c62.34-5.31,72.35-79.86,27.51-104.08C73.35,16.21,17.15,54.3,41.09,116.27L89.28,90.51Z" style="fill:#04b8b5;opacity:0.08"/></g></svg>