<svg xmlns="http://www.w3.org/2000/svg" xmlns:xlink="http://www.w3.org/1999/xlink" viewBox="0 0 175 175"><defs><clipPath id="a"><rect width="175" height="175" style="fill:none"/></clipPath><linearGradient id="b" x1="2624.64" y1="-6688.56" x2="2647.32" y2="-6678.76" gradientTransform="matrix(0.95, 0.31, 0.31, -0.95, -296.9, -7027.2)" gradientUnits="userSpaceOnUse"><stop offset="0" stop-color="#e2e1e0"/><stop offset="0.1" stop-color="#e6e3e2"/><stop offset="0.18" stop-color="#bdbcbb"/><stop offset="0.38" stop-color="#ebe9e9"/><stop offset="0.56" stop-color="#d6d4d3"/><stop offset="0.81" stop-color="#fff"/><stop offset="1" stop-color="#c7c4c4"/></linearGradient><linearGradient id="c" x1="2624.63" y1="-6688.8" x2="2647.31" y2="-6679" gradientTransform="matrix(0.95, 0.31, 0.31, -0.95, -296.9, -7027.2)" gradientUnits="userSpaceOnUse"><stop offset="0" stop-color="#bebab8"/><stop offset="0.1" stop-color="#c6c0bd"/><stop offset="0.18" stop-color="#6a6664"/><stop offset="0.38" stop-color="#d2cecc"/><stop offset="0.56" stop-color="#a29e9c"/><stop offset="0.81" stop-color="#fff"/><stop offset="1" stop-color="#7f7a78"/></linearGradient><linearGradient id="e" x1="2624.63" y1="-6688.8" x2="2647.31" y2="-6679" gradientTransform="matrix(0.95, 0.31, 0.31, -0.95, -296.9, -7027.2)" gradientUnits="userSpaceOnUse"><stop offset="0" stop-color="#989593"/><stop offset="0.1" stop-color="#9e9a97"/><stop offset="0.18" stop-color="#555250"/><stop offset="0.38" stop-color="#a8a5a3"/><stop offset="0.56" stop-color="#827e7d"/><stop offset="0.81" stop-color="#ccc"/><stop offset="1" stop-color="#666260"/></linearGradient><linearGradient id="f" x1="2622.61" y1="-6684.37" x2="2649.33" y2="-6684.37" gradientTransform="matrix(0.95, 0.31, 0.31, -0.95, -296.9, -7027.2)" gradientUnits="userSpaceOnUse"><stop offset="0" stop-color="#bebab8"/><stop offset="0.1" stop-color="#c6c0bd"/><stop offset="0.24" stop-color="#8a8684"/><stop offset="0.38" stop-color="#d2cecc"/><stop offset="0.56" stop-color="#a29e9c"/><stop offset="0.93" stop-color="#fff"/><stop offset="0.97" stop-color="#7f7a78"/></linearGradient><linearGradient id="g" x1="2652.03" y1="-654.6" x2="2652.03" y2="-657.07" gradientTransform="translate(-2607.63 -54.91) rotate(18.32)" gradientUnits="userSpaceOnUse"><stop offset="0" stop-color="#fff"/><stop offset="0.1" stop-color="#c6c0bd"/><stop offset="0.18" stop-color="#6a6664"/><stop offset="0.28"/><stop offset="0.47" stop-color="#a29e9c"/><stop offset="0.59" stop-color="#646261"/><stop offset="0.68" stop-color="#d2cecc"/><stop offset="0.81" stop-color="#fff"/><stop offset="1" stop-color="#7f7a78"/></linearGradient><linearGradient id="h" x1="2651.34" y1="-653.84" x2="2651.34" y2="-657.82" gradientTransform="translate(-2607.63 -54.91) rotate(18.32)" gradientUnits="userSpaceOnUse"><stop offset="0" stop-color="#7f7a78"/><stop offset="0.19" stop-color="#fff"/><stop offset="0.32" stop-color="#d2cecc"/><stop offset="0.61" stop-color="#a29e9c"/><stop offset="0.72" stop-color="#fff"/><stop offset="0.82" stop-color="#6a6664"/><stop offset="0.9" stop-color="#c6c0bd"/><stop offset="1" stop-color="#bebab8"/></linearGradient></defs><g style="isolation:isolate"><g style="clip-path:url(#a)"><rect x="57.99" y="58.89" width="62.39" height="62.39" style="fill:#1c77c3"/><path d="M58,121.28c0,8.6,14,15.58,31.19,15.58s31.19-7,31.19-15.58-14-15.6-31.19-15.6S58,112.66,58,121.28Z" style="fill:#1c77c3"/><path d="M89.18,126.46c17.23,0,31.19-7,31.19-15.59v10.41c0,8.6-14,15.58-31.19,15.58S58,129.88,58,121.28V110.87C58,119.49,72,126.46,89.18,126.46Z" style="fill:#77addb"/><path d="M86.7,39.33a5.59,5.59,0,0,1,5,0L157,72a2.77,2.77,0,0,1,0,5L91.66,109.64a5.59,5.59,0,0,1-5,0L21.36,77a2.77,2.77,0,0,1,0-5Z" style="fill:#77addb"/><polygon points="51.32 91.94 47.6 90.08 88.44 69.67 89.92 72.65 51.32 91.94" style="fill:#e11e19"/><path d="M82.94,71.16c0,1.72,2.8,3.11,6.24,3.11s6.24-1.39,6.24-3.11S92.62,68,89.18,68,82.94,69.43,82.94,71.16Z" style="fill:#1c77c3"/><polygon points="51.32 116.65 47.6 114.79 47.6 90.08 51.32 91.94 51.32 116.65" style="fill:#c60006"/><polygon points="51.32 121.28 47.6 119.41 47.6 114.79 51.32 116.65 51.32 121.28" style="fill:#fff"/><path d="M120.89,128.13l-1.19-.23a1.41,1.41,0,0,1,1.29-.62v0h.1l.11,0v0a1.27,1.27,0,0,1,1,.78Z" style="fill:#212934;opacity:0.2"/><path d="M101.23,128.55c-1.93,1.3-17.78,9.07-17.78,9.07s-1.81.43-.73,1.37a4.73,4.73,0,0,0,4.4,1.07c2.95-.72,16.86-10.37,16.86-10.37a9,9,0,0,1,4.53-1c2.8,0,40.58-1.8,40.58-1.8l.14-1.85-44.12,2A9.75,9.75,0,0,0,101.23,128.55Z" style="fill:#1a72ad"/><path d="M153.2,142.85s-14.52-10-16.23-11.62a9.79,9.79,0,0,0-3.61-2.1L90,120.55l-.14,1.86s37.08,7.45,39.85,7.83a9,9,0,0,1,4.33,1.71s12.32,11.62,15.12,12.77a4.76,4.76,0,0,0,4.52-.4C154.92,143.55,153.2,142.85,153.2,142.85Z" style="fill:#1a72ad"/><g style="opacity:0.5"><path d="M104.48,119.68c-11.12-1.05-15.19.72-13.92,8.7s3.82,12.61,13.21,11.77c4.12-.36,12.38-3.13,13.06-13.65C117.05,123.15,115.6,120.72,104.48,119.68Z" style="fill:#d6e6f2"/></g><g style="opacity:0.5"><path d="M135.13,122c-11.16-.63-12.95,1.56-13.23,4.9-.9,10.51,6.85,14.47,10.87,15.45,9.16,2.23,12.38-2,14.83-9.67S146.28,122.6,135.13,122Z" style="fill:#d6e6f2"/></g><g style="opacity:0.7000000000000001"><path d="M92.38,129c.11.69.23,1.34.36,2a19.21,19.21,0,0,1,5.65-3.58,36.24,36.24,0,0,1,8.13-2.56,49.22,49.22,0,0,1,7.64-1c-1.43-1.15-4.23-2-9.52-2.5C94.85,120.4,91.26,122,92.38,129Z" style="fill:#f7fbff"/></g><g style="opacity:0.7000000000000001"><path d="M135,123.21c-9.34-.53-10.84,1.31-11.08,4.11a13.79,13.79,0,0,0,.32,4.56c3.24-3.24,8.16-4.31,12.62-4.79a49.9,49.9,0,0,1,8.12-.22l.59-.09C144.44,124.48,141,123.55,135,123.21Z" style="fill:#f7fbff"/></g><path d="M151,124.33l.05,0a44.4,44.4,0,0,0-11.62-2.79l.11,0c-.9-.12-1.89-.22-2.95-.3l-1.45-.09c-4.44-.25-7.63-.1-9.85.56-.32.08-.7.19-1.12.32a17.23,17.23,0,0,1-4.45,1,18.39,18.39,0,0,1-4.45-1.62c-.44-.22-.84-.39-1.16-.53-2.1-1-5.21-1.58-9.58-2l-1.44-.12c-1-.07-1.87-.12-2.71-.14l.08,0a44.59,44.59,0,0,0-11.9,1,.63.63,0,0,0-.67.58l-.14,1.88a.62.62,0,0,0,.57.66l.28,0a1.62,1.62,0,0,1,.84,1.64,3.4,3.4,0,0,0,.06.74,15.86,15.86,0,0,0,.21,3.39c1.13,7.12,3.36,12,10.59,12.52a22.08,22.08,0,0,0,3.52-.05c5.5-.49,12-4,13.53-12.23l0,.11c0-.19,0-.37,0-.54s0-.26.05-.39c.36-2.32,1.49-2.47,1.95-2.42v0h.1l.1,0v0c.4,0,1.24.34,1.35,2.3,0,.34,0,.66,0,1,0,.1,0,.21,0,.32l0-.07c.26,8.32,6.19,12.77,11.55,14.07a20.85,20.85,0,0,0,3.48.58c7.22.54,10.15-3.93,12.33-10.8a15.54,15.54,0,0,0,.74-3.52c0-.14.07-.31.1-.52a1.63,1.63,0,0,1,1.08-1.5l.27,0a.62.62,0,0,0,.67-.57l.14-1.88A.64.64,0,0,0,151,124.33Zm-47.33,15a19.91,19.91,0,0,1-3.25,0c-6.19-.47-8-4.43-9.08-11.13-.47-3-.17-4.91.94-6.12,1.52-1.65,4.82-2.19,10.68-1.75l1.41.12c11,1,11.77,3.3,11.6,6C115.27,137.73,105.63,139.16,103.7,139.33Zm43.11-6.92c-2.05,6.46-4.45,10.11-10.64,9.65a20,20,0,0,1-3.21-.53c-1.87-.46-11.2-3.31-10.24-14.58.23-2.64,1.31-4.77,12.36-4.15l1.41.09c5.87.44,9,1.47,10.3,3.33C147.71,127.58,147.72,129.55,146.81,132.41Z" style="fill:#0e3c62"/><polygon points="111.21 150.4 106.61 148.98 107.29 151.57 111.9 153 111.21 150.4" style="fill:#cac9c8"/><polygon points="111.21 150.4 106.61 148.98 107.29 151.57 111.9 153 111.21 150.4" style="fill:#0e3c62"/><polygon points="110.87 150.29 106.27 148.87 106.96 151.47 111.56 152.89 110.87 150.29" style="fill:#8a8786"/><polygon points="110.87 150.29 106.27 148.87 106.96 151.47 111.56 152.89 110.87 150.29" style="fill:#0e3c62"/><path d="M92.05,144.45a1.79,1.79,0,0,1-1.87.24c-1.51-.5-1.39-1.56-1.21-2.11l23.86,7.9-.26.77Z" style="fill:url(#b)"/><path d="M92.05,144.45a1.79,1.79,0,0,1-1.87.24c-1.51-.5-1.39-1.56-1.21-2.11l23.86,7.9-.26.77Z" style="fill:#0e3c62"/><polygon points="111.04 150.34 106.44 148.92 107.13 151.52 111.73 152.94 111.04 150.34" style="fill:#94918f"/><polygon points="111.04 150.34 106.44 148.92 107.13 151.52 111.73 152.94 111.04 150.34" style="fill:#0e3c62"/><path d="M92,144.68a1.76,1.76,0,0,1-1.87.24c-1.5-.5-1.39-1.56-1.2-2.11l23.85,7.9-.26.77Z" style="fill:url(#c)"/><path d="M92,144.68a1.76,1.76,0,0,1-1.87.24c-1.5-.5-1.39-1.56-1.2-2.11l23.85,7.9-.26.77Z" style="fill:url(#c)"/><path d="M92,144.68a1.76,1.76,0,0,1-1.87.24c-1.5-.5-1.39-1.56-1.2-2.11l23.85,7.9-.26.77Z" style="fill:url(#e)"/><path d="M92,144.68a1.76,1.76,0,0,1-1.87.24c-1.5-.5-1.39-1.56-1.2-2.11l23.85,7.9-.26.77Z" style="fill:#0e3c62"/><path d="M92,144.56a1.74,1.74,0,0,1-1.87.24,1.54,1.54,0,0,1-1.2-2.11l23.85,7.91-.26.76Z" style="fill:url(#f)"/><path d="M92,144.56a1.74,1.74,0,0,1-1.87.24,1.54,1.54,0,0,1-1.2-2.11l23.85,7.91-.26.76Z" style="fill:#0e3c62"/><path d="M46.27,133c-.05.15-.31.46-.56.38a.52.52,0,0,1-.32-.67.5.5,0,0,1,.63-.24A.45.45,0,0,1,46.27,133Z" style="fill:#0e3c62"/><path d="M119.39,156.5c.06-.19-.17-.43-.52-.55l-5-1.77a.76.76,0,0,0-.36,0c-.1,0-.18.05-.2.12h0s-.09,0-.1,0c-.09.35-.17.63-.25.9h0c-.11.26-.21.53-.34.87,0,0,0,.06.07.07h0a.21.21,0,0,0,.09.21.85.85,0,0,0,.31.18l5.06,1.56c.35.11.69.06.74-.12Z" style="fill:url(#g)"/><path d="M119.39,156.5c.06-.19-.17-.43-.52-.55l-5-1.77a.76.76,0,0,0-.36,0c-.1,0-.18.05-.2.12h0s-.09,0-.1,0c-.09.35-.17.63-.25.9h0c-.11.26-.21.53-.34.87,0,0,0,.06.07.07h0a.21.21,0,0,0,.09.21.85.85,0,0,0,.31.18l5.06,1.56c.35.11.69.06.74-.12Z" style="fill:#0e3c62"/><path d="M73.55,139.59c-6.23-2-12.42-4-18.79-5.73l-1.22,3.69c6,2.36,12.3,4.5,18.49,6.62Z" style="fill:#312783"/><path d="M73.55,139.59c-6.23-2-12.42-4-18.79-5.73l-1.22,3.69c6,2.36,12.3,4.5,18.49,6.62Z" style="fill:#04b8b5"/><path d="M72.88,141.61l.43-1.3c-6.23-2-12.42-4-18.78-5.75l-.29.88Z" style="fill:#fff;opacity:0.5;mix-blend-mode:screen"/><path d="M72.88,141.61l.43-1.3c-6.23-2-12.42-4-18.78-5.75l-.29.88Z" style="fill:#fff;opacity:0.5;mix-blend-mode:screen"/><path d="M45.75,133.51a53.67,53.67,0,0,0,7.79,4.05.74.74,0,0,0,0-.14c.11-.31.21-.61.31-.92s.14-.41.2-.61l.17-.51c.09-.26.18-.53.26-.8l.24-.72a48.34,48.34,0,0,0-8.66-1.4,1.72,1.72,0,0,1-.07.21l-.07.22c0,.05,0,.1-.05.15l-.06.17-.08.26Z" style="fill:#0e3c62"/><path d="M75.16,140.11l-1.61-.52L72,144.17l1.6.55Z" style="fill:#0e3c62"/><path d="M113.65,153.26q-19.14-6.88-38.49-13.15l-1.53,4.61q19.26,6.53,38.74,12.41Z" style="fill:#312783"/><path d="M113.65,153.26q-19.14-6.88-38.49-13.15l-1.53,4.61q19.26,6.53,38.74,12.41Z" style="fill:#04b8b5"/><path d="M113.1,154.92l.32-.95q-19.15-6.89-38.5-13.15l-.44,1.32Z" style="fill:#fff;opacity:0.5;mix-blend-mode:screen"/><path d="M113.1,154.92l.32-.95q-19.15-6.89-38.5-13.15l-.44,1.32Z" style="fill:#fff;opacity:0.5;mix-blend-mode:screen"/><path d="M115.88,154.05l-2.19-.77-1.28,3.86,2.21.69Z" style="fill:#0e3c62"/><polygon points="115.88 154.05 116.12 154.21 114.92 157.84 114.62 157.83 115.88 154.05" style="fill:url(#h)"/><polygon points="115.88 154.05 116.12 154.21 114.92 157.84 114.62 157.83 115.88 154.05" style="fill:#0e3c62"/></g></g></svg>