<svg xmlns="http://www.w3.org/2000/svg" xmlns:xlink="http://www.w3.org/1999/xlink" viewBox="0 0 175 175"><defs><clipPath id="a"><rect width="175" height="175" style="fill:none"/></clipPath></defs><g style="isolation:isolate"><g style="clip-path:url(#a)"><path d="M53.62,61.57s-.3,3.86-.92,8.95A137.53,137.53,0,0,0,52,95" style="fill:none;stroke:#a4c9e7;stroke-miterlimit:10"/><path d="M73.53,62.08v51.28a3.77,3.77,0,0,1-3.77,3.77H45a3.77,3.77,0,0,1-3.78-3.77V62.08h2v47.76a3.41,3.41,0,0,0,3.31,3.52H68.23a3.42,3.42,0,0,0,3.31-3.52V62.08Z" style="fill:#cce4f2"/><path d="M71.54,77.54v32.3a3.42,3.42,0,0,1-3.31,3.52H46.49a3.41,3.41,0,0,1-3.31-3.52V77.5c8.74-1.32,18.73,0,27.34,0Z" style="fill:#8caa9d"/><path d="M74.4,61.19v51.27a3.77,3.77,0,0,1-3.77,3.78H45.83a3.77,3.77,0,0,1-3.77-3.78V61.19Z" style="fill:#e8f0f1;opacity:0.14"/><path d="M66.26,66.09a2.64,2.64,0,1,1-2.63-2.64A2.64,2.64,0,0,1,66.26,66.09Z" style="fill:#fff;opacity:0.68"/><path d="M67.54,71.52a1.75,1.75,0,1,1-1.75-1.75A1.75,1.75,0,0,1,67.54,71.52Z" style="fill:#fff;opacity:0.68"/><path d="M65.79,76.65a1.41,1.41,0,1,1-1.41-1.42A1.41,1.41,0,0,1,65.79,76.65Z" style="fill:#fff;opacity:0.68"/><rect x="44.76" y="62.08" width="10.05" height="55.05" style="fill:#fff;opacity:0.25"/><path d="M53.56,62.3c.87-2.06-2.05-8-5.58,5.29C44.59,80.44,46.32,88.4,46.32,88.4" style="fill:none;stroke:#a4c9e7;stroke-miterlimit:10"/><polygon points="48.54 91.71 42.06 90.89 43.22 84.74 45.88 81.42 48.08 85.55 48.54 91.71" style="fill:#e9f5ff"/><path d="M122.45,47l-.2-.08c.71-1.71,4.27-1.89,4.42-1.89v.21S123.1,45.46,122.45,47Z" style="fill:#8dc375"/><path d="M121.74,53.17s2.54-7.06.23-13.93l-2,.43s3,4.42,1.14,12.91l-1.24,4Z" style="fill:#89695e"/><path d="M119.41,49c-5.42-1.77-11.84,3-14.33,10.63a18.61,18.61,0,0,0-.66,2.62h0A22.5,22.5,0,0,1,98,74.38a28.35,28.35,0,0,0-7.4,12c-3.82,11.69-.19,23.36,8.1,26.07a11.55,11.55,0,0,0,3,.55L122,50.46A7.59,7.59,0,0,0,119.41,49Z" style="fill:#04b8b5"/><path d="M126.26,98a28.46,28.46,0,0,0,1.09-14,22.43,22.43,0,0,1,2-13.62h0a18,18,0,0,0,1-2.51c2.5-7.64.13-15.27-5.29-17a7.55,7.55,0,0,0-3-.33L101.64,113a11.61,11.61,0,0,0,2.7,1.3C112.63,117,122.45,109.68,126.26,98Z" style="fill:#05aaab"/><path d="M136.18,37.75c-7,1.81-12.23,8-12.23,8A19.92,19.92,0,0,0,137,47.15c7-1.81,12.23-8,12.23-8A19.92,19.92,0,0,0,136.18,37.75Z" style="fill:#04b8b5"/><path d="M70.87,74.18c4.7.82,7.89,5,7.89,5s-4.42,2.89-9.12,2.08-7.88-5-7.88-5S66.18,73.37,70.87,74.18Z" style="fill:#04b8b5"/><path d="M73.22,82.35a14.94,14.94,0,0,0-8.5,6.72,12.86,12.86,0,0,0,.55,12.46,31.51,31.51,0,0,0,5.27,6.63c1.28,1.25,2.58,2.47,3.84,3.74,3.6,3.65,7.91,6.17,13.17,4.44a11.65,11.65,0,0,0,3.21-1.67L79.88,81.74A14.54,14.54,0,0,0,73.22,82.35Z" style="fill:#c60006"/><path d="M102.27,102.69c.25-1.77.57-3.53.85-5.29a30.83,30.83,0,0,0,.28-8.47,12.81,12.81,0,0,0-7-10.33,14.93,14.93,0,0,0-10.83-.34,14.65,14.65,0,0,0-5.72,3.48l10.88,32.93a11.43,11.43,0,0,0,3.57-.57C99.59,112.36,101.54,107.77,102.27,102.69Z" style="fill:#e11e19"/><path d="M141.34,62.75,138,61A33,33,0,0,1,81.11,80.49l-3.39,1.56a33.14,33.14,0,0,0,61.7,7.63C144,80.9,144.64,71.28,141.34,62.75Z" style="fill:#e2b700"/><path d="M136.51,88.41s7.65-13,4.52-23.45a26.3,26.3,0,0,0-1-2.91l-1.89-1a33.15,33.15,0,0,1-57,19.42L78.26,81.8c4.41,7.56,15,22,31.58,21C109.84,102.79,129.93,103.32,136.51,88.41Z" style="fill:#f0c32d"/><path d="M119.28,95.47s16.36-6.29,18.62-19.85c1.42-8.57,1.62-12.27,1.58-13.84L138,61A33,33,0,0,1,81.11,80.49l-1.27.59C83.57,87.39,94,103.08,119.28,95.47Z" style="fill:#fc0"/><path d="M144,51.62l-2.21-.86-.38,1,2.12.82C143.85,52,144,51.62,144,51.62Z" style="fill:#582a1a"/><path d="M141.34,62.75c-.27-4.09,1.39-8.33,2.23-10.17l-2.12-.82L138,61Z" style="fill:#f0c32d"/><path d="M143,63.9l-3.88-1.25A35.41,35.41,0,0,1,82.49,93.21l-3.31,2.24a35.49,35.49,0,0,0,66.53-2.76C149,82.63,148,72.35,143,63.9Z" style="fill:#f0c32d"/><path d="M142.42,91.87s5.81-15,.66-25.57a28.93,28.93,0,0,0-1.61-2.9l-2.17-.7A35.51,35.51,0,0,1,82.49,93.21l-2.78,1.88c6,7.22,19.75,20.62,37.05,16.64C116.76,111.73,138.07,108.78,142.42,91.87Z" style="fill:#f0c32d"/><path d="M125.45,102.34s16.18-9.5,16.19-24.23c0-9.31-.43-13.25-.75-14.9l-1.75-.56A35.41,35.41,0,0,1,82.49,93.21l-1.24.84C86.3,100.06,100,114.82,125.45,102.34Z" style="fill:#fc0"/><path d="M143.92,51.67l-2.48-.52-.22,1.12,2.38.49C143.79,52.07,143.92,51.67,143.92,51.67Z" style="fill:#582a1a"/><path d="M143,63.9c-1-4.26,0-9,.58-11.14l-2.38-.49-2.08,10.38Z" style="fill:#f0c32d"/><path d="M147,65.65l-4.35-.79a38.33,38.33,0,0,1-56.41,40.93L83,108.67a38.42,38.42,0,0,0,71-12.51C156,84.9,153.53,74,147,65.65Z" style="fill:#e2b700"/><path d="M150.34,95.75s4.08-17-3-27.54a30.16,30.16,0,0,0-2.14-2.87l-2.43-.44a38.44,38.44,0,0,1-56.59,40.89l-2.71,2.41c7.45,6.89,24.15,19.3,42.14,12.55C125.65,120.75,148.1,114.52,150.34,95.75Z" style="fill:#f0c32d"/><path d="M133.63,109.42s16-12.52,13.9-28.32c-1.33-10-2.36-14.16-2.95-15.88l-2-.36a38.33,38.33,0,0,1-56.41,40.93L85,106.87C91.29,112.6,108.15,126.46,133.63,109.42Z" style="fill:#fc0"/><path d="M146.19,52.4l-2.74-.2-.08,1.23,2.63.19C146.1,52.85,146.19,52.4,146.19,52.4Z" style="fill:#582a1a"/><path d="M147,65.65c-1.69-4.43-1.28-9.7-1-12l-2.63-.19-.74,11.43Z" style="fill:#f0c32d"/><path d="M98.58,108.17c-2.1-5.78-8.45-5.26-11.52-3.53.13-1.5.19-3,.19-4.58H32.47c-.93,26.14,13,29.77,13.09,37H73.84c.43-6.34,7.64-7.93,10.69-18.48C96.35,123.25,100.41,113.2,98.58,108.17ZM86,113.75a21.87,21.87,0,0,0,.55-4.43c2.65-2.63,8.86-3.84,9.58,1.68C96.84,116.83,86.22,119.9,86,113.75Z" style="fill:#e9f5ff"/><g style="opacity:0.45;mix-blend-mode:multiply"><path d="M98.58,108.17c-2.1-5.78-8.46-5.26-11.52-3.53.13-1.5.19-3,.19-4.58H77.06c-.09,8-.77,15.4-5.55,22.28-2.67,3.79-10.49,9.22-8.87,14.7h11.2c.43-6.34,7.64-7.93,10.69-18.48C96.35,123.25,100.41,113.2,98.58,108.17ZM86,113.75a21.87,21.87,0,0,0,.55-4.43c2.65-2.63,8.86-3.84,9.58,1.68C96.84,116.83,86.22,119.9,86,113.75Z" style="fill:#d6e6f2"/></g><path d="M84.11,100.06H35.59c.16-1.08.31-2.24,1-2.67.9-.64,2.91-.09,3.91,0A8.11,8.11,0,0,0,45,97.2a22.53,22.53,0,0,1,4.09-1.27c1.54-.27,2.9-.64,4.44-1,2.18-.53,3.29.36,5.19,1.28a7.38,7.38,0,0,0,4.45.26c1.36-.17,2.82-.09,4.17-.35,2.28-.64,3.63-1.64,6.19-.83,2,.64,2.63,1.65,4.62,1,2.37-.64,2.64.17,4.36,1.63.64.55,1.36.27,1.64,1.36A2,2,0,0,1,84.11,100.06Z" style="fill:#ad7949"/><path d="M73,95.34A1.36,1.36,0,1,1,71.65,94,1.36,1.36,0,0,1,73,95.34Z" style="fill:#faebc4"/><path d="M76.38,96.09a1.32,1.32,0,1,1-1.32-1.32A1.32,1.32,0,0,1,76.38,96.09Z" style="fill:#faebc4"/><path d="M52.76,94.82a1.89,1.89,0,1,1-1.89-1.88A1.89,1.89,0,0,1,52.76,94.82Z" style="fill:#faebc4"/><path d="M49.22,96.48a1.14,1.14,0,1,1-1.14-1.14A1.13,1.13,0,0,1,49.22,96.48Z" style="fill:#faebc4"/><path d="M99.56,132.44c0,3.3-8.19,6.18-20.32,7.69H40.51c-12.12-1.51-20.31-4.39-20.31-7.69Z" style="fill:#d6e6f2"/><polygon points="75.39 141.64 44.37 141.64 40.52 140.13 79.24 140.13 75.39 141.64" style="fill:#6588ab"/><g style="opacity:0.45;mix-blend-mode:multiply"><path d="M99.56,132.44c0,3.3-8.19,6.19-20.31,7.69H67.57c6.85-1.22,13.73-1.86,17.94-7.69Z" style="fill:#ccc"/></g><path d="M51.32,100.06c-1.5,3.53-1.72,9.15-4.87,9.92-6,1.52-8-5.2-8.31-9.92Z" style="fill:#fff"/><path d="M131.86,123c0,5.18-18,9.38-40.13,9.38S51.6,128.18,51.6,123s18-9.37,40.13-9.37S131.86,117.83,131.86,123Z" style="fill:#50bbb9"/><path d="M131.86,123c0,11-20.29,25.11-20.29,29.95,0,2.56-8.88,4.64-19.84,4.64S71.88,155.51,71.88,153c0-4.84-20.28-19-20.28-29.95,0,5.18,18,9.38,40.13,9.38S131.86,128.18,131.86,123Z" style="fill:#2bacb4"/><path d="M117.33,130.26a140.21,140.21,0,0,1-25.43,2.12,139.21,139.21,0,0,1-25.78-2.19l-.63-.38c-1.51-.91-5.9-3.48-5.6-5.6.61-3.47,5.45,1.37,6.66,2.27a10.43,10.43,0,0,0,7.26,1.67c-.31-1.37-3.33-2.42-4.54-3.63a12.53,12.53,0,0,1-3.48-4.84,13.52,13.52,0,0,1-.57-3.67c-.11-2.86.52-5.71,3.29-2.84a3.61,3.61,0,0,1,.9,2.07c.33,2.31-.63,5.31.62,7.46,1.51,2.57,5.14,3.33,8,3.48,3.48.3,6.81-.91,10.13-.91,4.09,0,7.11,1.51,10.89,2,4.69.6,6.2-3.48,10.28-1.06,2.12,1.21,3,.6,5.3,1.21A3.37,3.37,0,0,1,117.33,130.26Z" style="fill:#fff"/><path d="M57.79,112.13a6.93,6.93,0,0,1-3.64-3.95c-.31-1.21-.76-4.08,1.36-2.87C56.91,106.13,57.23,109.66,57.79,112.13Z" style="fill:#fff"/><path d="M131.85,123c0,11-20.28,25.1-20.28,29.94,0,1.8-4.39,3.36-10.81,4.12-.38-5.81,4.74-11.16,8.59-14.87,2.8-2.65,7.2-7.28,6.42-11.69C125.53,128.8,131.85,126.08,131.85,123Z" style="fill:#637b81;opacity:0.23;mix-blend-mode:multiply"/><path d="M73.57,124.63a1.28,1.28,0,0,1,.9,1.09c.12,1,3.25.3,3.11-.84a2.29,2.29,0,0,0-1.52-1.72,2.64,2.64,0,0,0-2.2.3c-.39.23-1,.88-.29,1.17Z" style="fill:#f8d317"/><path d="M80.73,119.67a6,6,0,0,0,2.4,1.22c1.16.3,2.35-2.67,1.35-2.93a6.15,6.15,0,0,1-2.39-1.21c-.77-.62-2.3,2.16-1.36,2.92Z" style="fill:#f8d317"/><path d="M78.63,128.08a3.16,3.16,0,0,0,.39,3c.53.78,3.37-.46,3.11-.84a2.85,2.85,0,0,1-.43-2.67c.22-.62-2.79-.26-3.07.54Z" style="fill:#f8e618"/><path d="M75.44,127a3,3,0,0,1,2.37,1.83c.4.87-2.13,2.78-2.33,2.36a2.75,2.75,0,0,0-2.09-1.71c-.65-.12,1.21-2.63,2-2.48Z" style="fill:#f8d317"/><path d="M84.84,128.68a15.65,15.65,0,0,1,1.81,2c.59.84,3.61-.19,2.9-1.2a15.82,15.82,0,0,0-1.82-2c-.75-.76-3.7.4-2.89,1.21Z" style="fill:#f7c717"/><path d="M80.3,128.83a16.51,16.51,0,0,1,1.82,2c.59.84,3.61-.19,2.89-1.2a15.74,15.74,0,0,0-1.81-2c-.76-.75-3.7.4-2.9,1.21Z" style="fill:#f8e618"/><path d="M86.91,128.83a15.65,15.65,0,0,1,1.81,2c.6.84,3.61-.19,2.9-1.2a16.52,16.52,0,0,0-1.81-2c-.76-.76-3.7.4-2.9,1.21Z" style="fill:#f8e618"/></g></g></svg>