<svg id="Layer_2" data-name="Layer 2" xmlns="http://www.w3.org/2000/svg" viewBox="0 0 200 200"><defs><style>.cls-1,.cls-3{fill:none;stroke-linejoin:round;}.cls-1,.cls-2,.cls-3{stroke:#e11e19;}.cls-1{stroke-linecap:round;stroke-width:4.27px;}.cls-2{fill:#e11e19;stroke-miterlimit:10;stroke-width:1.49px;}.cls-3{stroke-width:2.54px;}</style></defs><title>gestalte-deine-zukunft</title><path class="cls-1" d="M169.71,94.59c7.91,43.93-37.28,78.57-81.89,78.57S18,142.61,8.18,99.08C-5.44,32.68,107.53-17,113,80,129.52,103.52,160.6,43.91,169.71,94.59Z"/><ellipse class="cls-1" cx="134.85" cy="124.37" rx="25.7" ry="14.2" transform="translate(-44.96 160.7) rotate(-54.11)"/><path class="cls-1" d="M73,57.55c0,2.25-3.37,3.93-4.42,5.75a11.31,11.31,0,0,1-4,4.57c-1.82,1-3.71,3.18-6,3.18s-5.41.06-7.22-1a16.64,16.64,0,0,1-5.1-5.39c-1.05-1.82,0-4.87,0-7.12a11.9,11.9,0,0,1,1.88-6,12.38,12.38,0,0,1,4.15-4.82,12.51,12.51,0,0,1,6.25-1.54c2.24,0,3.71,1.72,5.53,2.77s4.8,1.13,5.88,3S73,55.31,73,57.55Z"/><path class="cls-1" d="M39,76.26c2.16.61,2.86,4.32,4.33,5.82a11.33,11.33,0,0,1,3.31,5.09c.52,2,2,4.43,1.44,6.59s-1.41,5.22-2.91,6.68a16.55,16.55,0,0,1-6.57,3.45c-2,.52-4.67-1.36-6.83-2a11.84,11.84,0,0,1-5.27-3.43A12.41,12.41,0,0,1,23,93.18a12.58,12.58,0,0,1,.21-6.43c.61-2.17,2.67-3.11,4.17-4.58s2.38-4.32,4.48-4.85S36.83,75.65,39,76.26Z"/><path class="cls-1" d="M59.85,138.44c-1.59,1.59-5.17.39-7.19.93a11.21,11.21,0,0,1-6.06.4c-2-.54-4.87-.37-6.46-2S36.28,134,35.74,132a16.57,16.57,0,0,1,.21-7.41c.54-2,3.46-3.42,5-5a12,12,0,0,1,5.57-2.92,12.37,12.37,0,0,1,6.34-.46,12.45,12.45,0,0,1,5.51,3.32c1.59,1.59,1.41,3.85,1.95,5.88s2.61,4.19,2.05,6.28S61.44,136.85,59.85,138.44Z"/><path class="cls-1" d="M80.56,163.44c-2.17-.61-2.87-4.32-4.33-5.83a11.17,11.17,0,0,1-3.31-5.09c-.52-2-2.06-4.43-1.45-6.59s1.41-5.22,2.92-6.68A16.71,16.71,0,0,1,81,135.8c2-.52,4.67,1.36,6.84,2a11.8,11.8,0,0,1,5.26,3.44,12.29,12.29,0,0,1,3.51,5.3,12.51,12.51,0,0,1-.21,6.44c-.6,2.16-2.66,3.11-4.17,4.57s-2.38,4.32-4.47,4.86S82.72,164.05,80.56,163.44Z"/><path class="cls-1" d="M180.12,178.49l-2.88-.24c-1.07-.09-1.81-1.64-2.48-4.23,0,0,4.66-79.31,6.54-101.48.73-8.71,3.9-22.05,3.9-22.05l7.58,1.34s-.07,14.94-.31,20.43c-1.11,25.52-10.13,103.1-10.13,103.1C182.19,177.18,181.19,178.58,180.12,178.49Z"/><polygon class="cls-2" points="194.39 52.91 183.57 50.74 185.19 44.48 193.21 45.16 194.39 52.91"/><path class="cls-3" d="M186.22,42.94a78.22,78.22,0,0,1,6.06-30.78c-.33,3,3.25,19.48.15,31.21C191.11,45.66,186.06,44.74,186.22,42.94Z"/></svg>