<svg xmlns="http://www.w3.org/2000/svg" xmlns:xlink="http://www.w3.org/1999/xlink" viewBox="0 0 190 150"><defs><clipPath id="a"><rect width="190" height="150" style="fill:none"/></clipPath></defs><g style="clip-path:url(#a)"><path d="M27.28,31.35v102.7h16.9V31.35Zm8.44,8.44a2.14,2.14,0,1,1,2.14-2.14A2.14,2.14,0,0,1,35.72,39.79Z" style="fill:#fc0"/><rect x="40.91" y="43.77" width="3.27" height="0.85" transform="translate(-0.05 0.05) rotate(-0.07)" style="fill:#474f59"/><rect x="40.91" y="52.33" width="3.27" height="0.85" transform="translate(-0.06 0.05) rotate(-0.07)" style="fill:#474f59"/><polygon points="40.91 61.74 40.91 60.88 44.18 60.89 44.17 61.73 40.91 61.74" style="fill:#474f59"/><polygon points="40.91 70.3 40.91 69.44 44.18 69.44 44.18 70.3 40.91 70.3" style="fill:#474f59"/><rect x="42.12" y="76.79" width="0.85" height="3.27" transform="translate(-36.09 120.59) rotate(-89.72)" style="fill:#474f59"/><polygon points="40.91 87.41 40.91 86.56 44.18 86.56 44.17 87.4 40.91 87.41" style="fill:#474f59"/><rect x="40.91" y="95.1" width="3.27" height="0.86" transform="translate(-0.23 0.1) rotate(-0.14)" style="fill:#474f59"/><rect x="40.91" y="103.67" width="3.27" height="0.85" style="fill:#474f59"/><rect x="40.91" y="112.23" width="3.27" height="0.85" style="fill:#474f59"/><polygon points="40.91 121.64 40.91 120.78 44.17 120.78 44.18 121.63 40.91 121.64" style="fill:#474f59"/><polygon points="40.91 130.19 40.91 129.34 44.18 129.34 44.17 130.19 40.91 130.19" style="fill:#474f59"/><polygon points="40.91 125.91 40.91 125.07 44.18 125.07 44.17 125.91 40.91 125.91" style="fill:#474f59"/><rect x="40.91" y="116.51" width="3.26" height="0.85" style="fill:#474f59"/><polygon points="40.91 108.8 40.91 107.94 44.17 107.94 44.17 108.8 40.91 108.8" style="fill:#474f59"/><polygon points="40.91 100.24 40.91 99.39 44.18 99.39 44.17 100.24 40.91 100.24" style="fill:#474f59"/><polygon points="40.91 91.69 40.91 90.83 44.18 90.83 44.17 91.68 40.91 91.69" style="fill:#474f59"/><rect x="42.12" y="81.07" width="0.86" height="3.27" transform="matrix(0, -1, 1, 0, -40.21, 125.14)" style="fill:#474f59"/><polygon points="40.91 74.57 40.91 73.72 44.18 73.72 44.18 74.57 40.91 74.57" style="fill:#474f59"/><rect x="40.91" y="65.16" width="3.27" height="0.85" transform="translate(-0.15 0.1) rotate(-0.13)" style="fill:#474f59"/><rect x="40.91" y="56.6" width="3.27" height="0.85" transform="translate(-0.27 0.21) rotate(-0.28)" style="fill:#474f59"/><polygon points="40.91 48.9 40.91 48.05 44.18 48.05 44.18 48.9 40.91 48.9" style="fill:#474f59"/><path d="M155,104.2c-.08,0-7.41-4.18-3.08-15.11a5.41,5.41,0,0,0-.23-5.15c-3.14-5-14.75-6-14.87-6l.11-1.32c.5,0,12.4,1.06,15.89,6.66a6.77,6.77,0,0,1,.34,6.34c-3.89,9.8,2.21,13.31,2.47,13.45Z" style="fill:#6588ab"/><path d="M162.72,126.77a7.29,7.29,0,0,1-7.28,7.28h-5.28a7.29,7.29,0,0,1-7.28-7.28V106a7.29,7.29,0,0,1,7.28-7.27h5.28a7.29,7.29,0,0,1,7.28,7.27Z" style="fill:#0e3c62"/><path d="M159.37,99.85a7.47,7.47,0,0,1,.11,1.26V116.9a12.29,12.29,0,0,1-12.3,12.3h-.26A7.22,7.22,0,0,1,143,128a7.3,7.3,0,0,0,7.16,6h5.28a7.29,7.29,0,0,0,7.28-7.28V106A7.28,7.28,0,0,0,159.37,99.85Z" style="fill:#1c77c3"/><path d="M154.45,106.29a1.65,1.65,0,1,1-1.65-1.65A1.64,1.64,0,0,1,154.45,106.29Z" style="fill:#77addb"/><polygon points="137.24 27.75 137.24 134.05 51.36 134.05 51.36 12.6 122.08 12.6 137.24 27.75" style="fill:#e9f5ff"/><polygon points="137.24 27.75 122.08 27.75 122.08 12.6 137.24 27.75" style="fill:#d6e6f2"/><path d="M111,73.32A16.67,16.67,0,1,1,94.3,56.65,16.67,16.67,0,0,1,111,73.32Z" style="fill:#e11e19"/><path d="M94.3,101.63A28.46,28.46,0,0,1,66.11,75.8l0-.53,1.05-.09,0,.53a27.25,27.25,0,0,0,54.29,0l0-.53,1.05.09-.05.53A28.46,28.46,0,0,1,94.3,101.63Z" style="fill:#1c77c3"/><path d="M121.49,71.46l0-.52a27.25,27.25,0,0,0-54.29,0l0,.52-1.05-.09,0-.52a28.3,28.3,0,0,1,56.38,0l.05.52Z" style="fill:#1c77c3"/><path d="M119.65,70.89v4.86h4.87V70.89Zm3.81,3.81H120.7V71.94h2.76Z" style="fill:#1c77c3"/><path d="M64.08,70.89v4.86H69V70.89ZM67.9,74.7H65.14V71.94H67.9Z" style="fill:#1c77c3"/><rect x="91.86" y="43.1" width="4.87" height="4.86" style="fill:#1c77c3"/><rect x="66.52" y="45.02" width="55.56" height="1.05" style="fill:#1c77c3"/><path d="M68.94,45.54a2.43,2.43,0,1,1-2.42-2.44A2.42,2.42,0,0,1,68.94,45.54Z" style="fill:#1c77c3"/><path d="M124.52,45.54a2.44,2.44,0,1,1-2.44-2.44A2.43,2.43,0,0,1,124.52,45.54Z" style="fill:#1c77c3"/><polygon points="97.89 85.13 94.3 73.32 90.7 85.13 97.89 85.13" style="fill:#fff"/><polygon points="94.3 73.32 97.89 85.13 95.63 85.13 94.3 73.32" style="fill:#cccbca"/><rect x="90.7" y="85.13" width="7.19" height="48.92" style="fill:#0e3c62"/><rect x="95.63" y="85.13" width="2.26" height="48.92" style="fill:#232e38"/><polygon points="95.7 77.94 94.3 73.32 92.89 77.94 95.7 77.94" style="fill:#0e3c62"/><polygon points="95.7 77.94 94.3 73.32 94.82 77.94 95.7 77.94" style="fill:#353f49"/><rect x="90.7" y="134.05" width="7.19" height="4.17" style="fill:#fff"/><rect x="95.63" y="134.05" width="2.26" height="4.17" style="fill:#cccbca"/><path d="M97.89,140.47a3.58,3.58,0,0,1-3.59,3.6h0a3.6,3.6,0,0,1-3.6-3.6v-2.26h7.19Z" style="fill:#e11e19"/><path d="M95.63,138.21a3.58,3.58,0,0,1-3.59,3.6,3.69,3.69,0,0,1-1.14-.2,3.52,3.52,0,0,0,.86,1.41,3.59,3.59,0,0,0,6.13-2.55v-2.26Z" style="fill:#c60006"/></g></svg>