<svg xmlns="http://www.w3.org/2000/svg" xmlns:xlink="http://www.w3.org/1999/xlink" viewBox="0 0 175 175"><defs><clipPath id="a"><rect width="175" height="175" style="fill:none"/></clipPath></defs><g style="clip-path:url(#a)"><path d="M149.93,80c-8.07,23.23-41.68,42.63-44.52,44.52-.94,0-38.31-20.73-44.52-44.52-5.68-21.78,9.48-52.09,44.52-25.57C142.36,27.88,157.51,58.19,149.93,80Z" style="fill:#e11e19"/><path d="M70.31,82.53C66,66.09,73.6,44.81,92.63,46.74,66.75,35.7,56,61,60.89,80c6.21,23.79,43.58,44.52,44.52,44.52.35-.23,1.15-.72,2.3-1.44C96.33,115.9,74.87,100.05,70.31,82.53Z" style="fill:#f279a7;opacity:0.42"/><path d="M96.7,101.19c5.54-12.7,9-21.23,7.39-28.41C95,73.19,95.65,67,95.9,61.47c-11.57-13.17-45.11-12.76-53.49,0a30.35,30.35,0,0,1-2.26,5.35A10.94,10.94,0,0,1,40.74,70a13.93,13.93,0,0,1-7,2.82c-.09.55-2.26,5.35-2.26,5.35-1.2,6.79,13.3,55.45,35.52,63.06,10.19-3.13,21.65-20.37,28.6-37.33C96,103,96.33,102.08,96.7,101.19Z" style="fill:#e2e2e2"/><path d="M31.35,77.15s12.31-1,8.82-11.47c8.49-12.93,42.49-13.35,54.21,0-.25,5.63-.88,11.89,8.3,11.47,3.73,16.46-17.74,58.42-35.26,63.8C44.89,133.24,30.14,84,31.35,77.15Z" style="fill:#fff"/><path d="M34.18,79.82s11.09-.93,8-10.33c7.65-11.65,38.28-12,48.84,0-.22,5.07-.79,10.71,7.48,10.33,3.36,14.84-15.71,52.11-31.5,57C46.65,129.83,33.09,86,34.18,79.82Z" style="fill:#05aaab"/><path d="M36.06,79.82s10.69-.9,7.66-10c7.38-11.24,36.93-11.61,47.12,0-.22,4.89-.76,10.33,7.21,10,3.24,14.31-15,49.62-30.18,54.3C48.3,127.42,35,85.8,36.06,79.82Z" style="fill:#04b8b5"/><path d="M84.31,89a71.69,71.69,0,0,0-10.22-1.43V75.85a31.13,31.13,0,0,0-12.09,0V87.54A71.69,71.69,0,0,0,51.78,89V99.19A73.13,73.13,0,0,0,62,100.63v11.68a31.13,31.13,0,0,0,12.09,0V100.63a73.13,73.13,0,0,0,10.22-1.44Z" style="fill:#05aaab"/><path d="M82.64,90a71.69,71.69,0,0,0-10.22-1.43V76.89a31.52,31.52,0,0,0-12.09,0V88.58A71.69,71.69,0,0,0,50.11,90v10.22a71.67,71.67,0,0,0,10.22,1.44v11.68a31.13,31.13,0,0,0,12.09,0V101.67a71.67,71.67,0,0,0,10.22-1.44Z" style="fill:#fff"/><path d="M146.94,111.78c-8.41,1.12-13.88.22-21.57-.8-8.45-1.11-11.64-3.69-25.59,6.54-12.4,7.26-18.91,4.21-26.28,5.4-7.58.31-12.22.09-12.69,7.29-10.1-1.28-24.29-5.21-29.94-4.9-5.81.17-12.59,1.16-9.51,4.2,6.71,3.63,26.11,11,27.6,11.05C60.3,144.27,78,151.06,78,151.06c6.5,2.9,9.91,4.42,11.41,4.6,4.93.05,4.8-1.58,9.11-3.72,6-3,19.09-11.24,24.1-11.94,6.79-1,17.67-1.43,23.88-.28" style="fill:#f0c6bd"/><path d="M21.05,127.1c.94-.93,4.25-.49,5.53.49s-.25,4.35-.25,4.35C22.4,130.21,19.4,129.22,21.05,127.1Z" style="fill:#f5d8c9"/><path d="M27.13,132.32c2.11.28,8.44,2.9,11.36,4,4.15,1.46,6.62,2.45,8.14,2.78a89.93,89.93,0,0,1,11.63,3.69c3.87,1.63,8,2.93,10.61,3.77s11.68,4.28,13.38,5c2,.75,6.24,3.21,8.74,2.88,2.81-.38,6.15-3.33,8.17-4.24s12.68-7.44,15.15-8.24,4-2.41,7.38-2.83,16.65-1,18.2-2.21a9.54,9.54,0,0,0,2.29-3c0,.29.1,4.91.1,4.91a1.66,1.66,0,0,1-.43.19,139.08,139.08,0,0,0-19.2.95c-4.11.78-3.63,1.18-9.39,3.74-6.43,3.65-10.14,5.74-16.58,9.09-2.4,1.69-3.75,3.44-8.45,2.62-4.31-1.74-18.94-7.27-18.94-7.27-6.44-2.17-15-6-18.62-7s-7.35-2.39-9.5-3.11S27.13,132.32,27.13,132.32Z" style="fill:#e9bbb1"/><path d="M72.25,132.68c.86-5,1-7.83-1.16-8.21-2.38-.36-7.36.33-7.79,3.34-.79,4.45,2.07,4.55,4.31,5.32C70,133.88,72,133.5,72.25,132.68Z" style="fill:#f5d8c9"/><path d="M60.87,129.93a2.62,2.62,0,0,0,1.67,2.48,16.72,16.72,0,0,0,3.66,1.39,57.84,57.84,0,0,0,6.66,1.08l5,.57c.87.09,1.21.14,1.83.23a12.58,12.58,0,0,1,4,1.63,17.18,17.18,0,0,0,7.36,1c2.51-.23,3.91-.54,3.25-.48a19,19,0,0,0-3.59.16,13.3,13.3,0,0,1-7-1.11c-2.62-1.45-3.57-1.42-6.49-2-2.65-.21-8.35-.89-9.55-1.12s-4.18-1-5.59-2S60.93,130.3,60.87,129.93Z" style="fill:#e9bbb1"/><ellipse cx="146.63" cy="125.66" rx="9.04" ry="13.96" style="fill:#e9bbb1"/></g></svg>