<svg id="Layer_2" data-name="Layer 2" xmlns="http://www.w3.org/2000/svg" viewBox="0 0 200 200"><defs><style>.cls-1{fill:#fff;}</style></defs><title>homeoffice</title><path class="cls-1" d="M103,48.82l43.44,50.75H136.27a6.4,6.4,0,0,1,.36,2.16V140.6a6.37,6.37,0,0,1-6.21,6.48H75.61a6.37,6.37,0,0,1-6.21-6.48V101.73a6.4,6.4,0,0,1,.37-2.16H59.58L103,48.82m0-4a4,4,0,0,0-3,1.4L56.54,97a4,4,0,0,0,3,6.6H65.4v37a10.36,10.36,0,0,0,10.21,10.48h54.81a10.36,10.36,0,0,0,10.21-10.48v-37h5.83a4,4,0,0,0,3-6.6L106.06,46.22a4,4,0,0,0-3-1.4Z"/><path class="cls-1" d="M77.6,172.8a1.92,1.92,0,0,1-.66-.12A77.51,77.51,0,0,1,102.5,22c2.09,0,4.19.08,6.26.25a2,2,0,1,1-.32,4c-2-.16-4-.24-5.94-.24A73.51,73.51,0,0,0,78.26,168.91a2,2,0,0,1-.66,3.89Z"/><path class="cls-1" d="M79.36,40.42a2,2,0,0,1,.91-2.68l27.42-13.58L83.8,5.05a2,2,0,1,1,2.49-3.12L112.64,23a2,2,0,0,1,.74,1.78,2,2,0,0,1-1.1,1.58L82,41.32a1.93,1.93,0,0,1-1.1.2A2,2,0,0,1,79.36,40.42Z"/><path class="cls-1" d="M102.5,177a77.9,77.9,0,0,1-8.1-.42,2,2,0,1,1,.41-4,72.79,72.79,0,0,0,7.69.4A73.51,73.51,0,0,0,126.35,30a2,2,0,0,1,1.3-3.79A77.51,77.51,0,0,1,102.5,177Z"/><path class="cls-1" d="M124.13,158.92a2,2,0,0,1-.95,2.66L95.52,174.66l23.55,19.54a2,2,0,0,1,.26,2.81,2,2,0,0,1-2.82.27l-26-21.55a2,2,0,0,1-.71-1.79A2,2,0,0,1,91,172.38L121.47,158a2,2,0,0,1,1.1-.17A2,2,0,0,1,124.13,158.92Z"/></svg>