<svg xmlns="http://www.w3.org/2000/svg" viewBox="0 0 400 400"><defs><style>.cls-1{fill:#16285b;}.cls-2{fill:#1e5a9b;}.cls-3{fill:#fc0;}.cls-4{fill:#ffbc00;}.cls-5{fill:#58595b;}.cls-6{opacity:0.66;}.cls-28,.cls-7{fill:#fff;}.cls-8{opacity:0.4;}.cls-9{fill:#e9f5ff;}.cls-10{fill:#1c77c3;}.cls-11{fill:#e11e19;}.cls-12{fill:#04b8b5;}.cls-13{fill:#1a72ad;}.cls-14{fill:#77addb;}.cls-15{fill:#fea50f;}.cls-16{fill:#e7a579;}.cls-17{fill:#e5e6e7;}.cls-18{fill:#0e3c62;}.cls-19{fill:#f6bd96;}.cls-20{fill:#a6a8ab;}.cls-21{fill:#a4c9e7;}.cls-22{fill:#e76464;}.cls-23{fill:#cce4f2;}.cls-24{fill:#d24242;opacity:0.78;}.cls-25{fill:#d0ccc8;}.cls-26{fill:#854e29;}.cls-27{fill:#6588ab;}.cls-28{opacity:0.88;}.cls-29{fill:#b6d4ec;}.cls-30{fill:#d6e6f2;}.cls-31{fill:#f17e7e;}.cls-32{fill:#05aaab;}.cls-33{fill:#9be3e1;}.cls-34{fill:#29294f;}</style></defs><g id="Layer_1" data-name="Layer 1"><path class="cls-1" d="M191.31,147.87c0,6.56,5.65,11.88,12.62,11.88s12.61-5.32,12.61-11.88S210.9,136,203.93,136,191.31,141.31,191.31,147.87Z"/><path class="cls-2" d="M189.77,146.87h27c2,0,3.67,1.36,3.67,3a4.51,4.51,0,0,1-3.62,3.92c-10.72,2.28-16.43,2.28-27.15,0a4.5,4.5,0,0,1-3.63-3.92C186.09,148.23,187.74,146.87,189.77,146.87Z"/><path class="cls-1" d="M219.46,152.25a4.94,4.94,0,0,1-2.59,1.58c-10.72,2.28-16.43,2.28-27.15,0a4.93,4.93,0,0,1-2.6-1.58C199.86,155,206.72,155,219.46,152.25Z"/><path class="cls-2" d="M189.77,140.75h27c2,0,3.67,1.36,3.67,3a4.5,4.5,0,0,1-3.62,3.92c-10.72,2.28-16.43,2.28-27.15,0a4.49,4.49,0,0,1-3.63-3.92C186.09,142.11,187.74,140.75,189.77,140.75Z"/><path class="cls-1" d="M219.46,146.14a5,5,0,0,1-2.59,1.57c-10.72,2.28-16.43,2.28-27.15,0a4.91,4.91,0,0,1-2.6-1.57C199.86,148.89,206.72,148.89,219.46,146.14Z"/><path class="cls-2" d="M189.77,134.63h27c2,0,3.67,1.36,3.67,3a4.5,4.5,0,0,1-3.62,3.92c-10.72,2.29-16.43,2.29-27.15,0a4.52,4.52,0,0,1-3.63-3.93C186.09,136,187.74,134.63,189.77,134.63Z"/><path class="cls-1" d="M219.46,140a4.86,4.86,0,0,1-2.59,1.57c-10.72,2.29-16.43,2.29-27.15,0a4.93,4.93,0,0,1-2.6-1.58C199.86,142.77,206.72,142.78,219.46,140Z"/><path class="cls-3" d="M233.89,39.59a41.05,41.05,0,0,0-30.1-12.41h-1a41.09,41.09,0,0,0-30.11,12.41,41.22,41.22,0,0,0-12.42,30.1,44.55,44.55,0,0,0,6,22.63c2.26,4,7.14,9.5,14.55,16.65s10.13,15.8,8.25,26H217.5c-1.88-10.21.85-18.92,8.27-26s12.28-12.68,14.55-16.65A47.63,47.63,0,0,0,245.4,79a48.11,48.11,0,0,0,.91-9.31A41.22,41.22,0,0,0,233.89,39.59Z"/><path class="cls-4" d="M189,135a50.54,50.54,0,0,0,28.48,0,31.52,31.52,0,0,1-.37-9.37H189.4A31.53,31.53,0,0,1,189,135Z"/><path class="cls-5" d="M208.92,136.62c-.19-31.47,12.94-47.36,18.59-52.73l.86.9c-5.53,5.27-18.39,20.84-18.2,51.82Z"/><path class="cls-5" d="M196.65,136.57c-.42-29.38-12.81-39.82-18.12-42.94l.63-1.08c5.49,3.24,18.31,14,18.74,44Z"/><polygon class="cls-5" points="186.8 99.31 185.79 98.58 192 90.07 197.78 95.92 203.55 88 209.32 93.85 215.1 85.94 221.39 92.31 220.5 93.19 215.24 87.86 209.47 95.77 203.69 89.92 197.92 97.84 192.15 91.99 186.8 99.31"/><g class="cls-6"><path class="cls-7" d="M170.39,87a2.58,2.58,0,0,1-2.31-1.43A57.58,57.58,0,0,1,164.92,78a2.59,2.59,0,1,1,4.91-1.64,51.84,51.84,0,0,0,2.87,6.86,2.59,2.59,0,0,1-1.15,3.47A2.54,2.54,0,0,1,170.39,87Z"/></g><g class="cls-8"><path class="cls-7" d="M168.4,68.48l-.27,0a2.58,2.58,0,0,1-2.3-2.84c2.17-20.71,18.08-29,24.82-31.55a2.59,2.59,0,1,1,1.85,4.83c-5.85,2.25-19.66,9.4-21.53,27.26A2.59,2.59,0,0,1,168.4,68.48Z"/></g><rect class="cls-9" x="289.41" y="290.99" width="1" height="53.61"/><rect class="cls-9" x="283" y="289.24" width="1" height="53.61"/><rect class="cls-9" x="276.59" y="296.24" width="1" height="53.61"/><rect class="cls-9" x="270.18" y="292.74" width="1" height="53.61"/><rect class="cls-9" x="263.77" y="303.23" width="1" height="53.61"/><rect class="cls-9" x="257.36" y="303.23" width="1" height="53.61"/><rect class="cls-9" x="250.95" y="290.99" width="1" height="53.61"/><rect class="cls-9" x="244.54" y="292.74" width="1" height="53.61"/><rect class="cls-9" x="238.13" y="297.98" width="1" height="53.61"/><rect class="cls-9" x="231.72" y="292.74" width="1" height="53.61"/><rect class="cls-9" x="225.31" y="296.24" width="1" height="53.61"/><rect class="cls-9" x="218.9" y="301.48" width="1" height="53.61"/><rect class="cls-9" x="212.49" y="292.74" width="1" height="53.61"/><rect class="cls-9" x="206.08" y="287.49" width="1" height="53.61"/><rect class="cls-9" x="199.67" y="292.74" width="1" height="53.61"/><rect class="cls-9" x="193.26" y="299.73" width="1" height="53.61"/><rect class="cls-9" x="186.85" y="290.99" width="1" height="53.61"/><rect class="cls-9" x="180.44" y="294.49" width="1" height="53.61"/><rect class="cls-9" x="174.03" y="292.74" width="1" height="53.61"/><rect class="cls-9" x="167.62" y="297.98" width="1" height="53.61"/><rect class="cls-9" x="161.21" y="292.74" width="1" height="53.61"/><rect class="cls-9" x="154.8" y="301.48" width="1" height="53.61"/><rect class="cls-9" x="148.39" y="317.21" width="1" height="53.61"/><rect class="cls-9" x="141.98" y="317.21" width="1" height="53.61"/><rect class="cls-9" x="135.57" y="310.22" width="1" height="53.61"/><rect class="cls-9" x="129.16" y="306.72" width="1" height="53.61"/><rect class="cls-9" x="122.75" y="292.74" width="1" height="53.61"/><rect class="cls-10" x="288.91" y="309.2" width="2" height="7.14"/><rect class="cls-10" x="282.5" y="314.45" width="2" height="7.14"/><rect class="cls-11" x="276.09" y="307.45" width="2" height="7.14"/><rect class="cls-11" x="269.68" y="311.97" width="2" height="2.62"/><rect class="cls-12" x="263.27" y="317.94" width="2" height="20.25"/><rect class="cls-12" x="256.86" y="311.39" width="2" height="13.69"/><rect class="cls-11" x="250.45" y="310.22" width="2" height="2.62"/><rect class="cls-10" x="244.04" y="307.45" width="2" height="7.14"/><rect class="cls-10" x="237.63" y="312.7" width="2" height="14.13"/><rect class="cls-10" x="231.22" y="314.59" width="2" height="2.19"/><rect class="cls-10" x="224.81" y="322.9" width="2" height="7.14"/><rect class="cls-10" x="218.4" y="309.93" width="2" height="19.82"/><rect class="cls-10" x="211.99" y="312.7" width="2" height="7.14"/><rect class="cls-12" x="205.58" y="302.21" width="2" height="7.14"/><rect class="cls-12" x="199.17" y="307.45" width="2" height="12.38"/><rect class="cls-10" x="192.76" y="314.45" width="2" height="7.14"/><rect class="cls-10" x="186.35" y="312.84" width="2" height="2.91"/><rect class="cls-10" x="179.94" y="319.84" width="2" height="12.24"/><rect class="cls-12" x="173.53" y="322.17" width="2" height="2.91"/><rect class="cls-12" x="167.12" y="326.54" width="2" height="3.79"/><rect class="cls-10" x="160.71" y="309.06" width="2" height="10.78"/><rect class="cls-10" x="154.3" y="316.2" width="2" height="24.91"/><rect class="cls-10" x="147.89" y="328.43" width="2" height="2.48"/><rect class="cls-10" x="141.48" y="331.93" width="2" height="7.14"/><rect class="cls-10" x="135.07" y="333.39" width="2" height="3.93"/><rect class="cls-12" x="128.66" y="327.41" width="2" height="2.92"/><rect class="cls-12" x="122.25" y="314.59" width="2" height="8.16"/><path class="cls-13" d="M210.31,217s-26.83-3.54-35,16-21.74,35.76-50.61,34.62-35.89,22.65-27.29,33.86,76.88,26.15,106.09-10.87S224.24,219.29,210.31,217Z"/><path class="cls-10" d="M213,220.3s-7.13-12.39-30.91-12.65-33.63,17-41.1,30-36,23-42,33.75-8,23,1.67,28.42S199.1,295,213,220.3Z"/><path class="cls-14" d="M101.05,290.29l-.63-.25c.07-.19,7.85-18.74,43.05-10.62,17.11,3.95,32.38-4.88,42.18-13,15.73-13,25-30.14,24.8-36.71l.68,0c.28,7.59-10.37,25.13-25,37.27-9.92,8.2-25.4,17.13-42.77,13.12C108.68,272.09,101.12,290.11,101.05,290.29Z"/><path class="cls-15" d="M98.56,287.22H98.5a.67.67,0,0,1-.61-.73s0-.27.09-.74a.68.68,0,0,1,1.34.22c-.06.39-.08.62-.08.63A.68.68,0,0,1,98.56,287.22Zm.68-3.34-.18,0a.67.67,0,0,1-.48-.83c.07-.22.13-.44.2-.67a.68.68,0,0,1,1.3.4c-.07.22-.13.43-.19.63A.67.67,0,0,1,99.24,283.88Zm1.11-3.21a.65.65,0,0,1-.26-.06.67.67,0,0,1-.36-.88c.08-.21.18-.43.27-.64a.68.68,0,1,1,1.24.55c-.09.2-.18.41-.26.61A.68.68,0,0,1,100.35,280.67Zm1.5-3.06a.66.66,0,0,1-.59-1c.11-.2.23-.4.35-.6a.67.67,0,0,1,.93-.23.66.66,0,0,1,.23.93l-.33.57A.69.69,0,0,1,101.85,277.61Zm1.86-2.84a.69.69,0,0,1-.41-.13.67.67,0,0,1-.13-.95c.13-.19.28-.37.42-.55a.68.68,0,0,1,1-.12.69.69,0,0,1,.11,1l-.41.52A.65.65,0,0,1,103.71,274.77Zm2.21-2.57a.69.69,0,0,1-.48-.2.68.68,0,0,1,0-1l.49-.49a.68.68,0,0,1,1,1l-.47.47A.66.66,0,0,1,105.92,272.2Zm2.52-2.27a.7.7,0,0,1-.54-.26.67.67,0,0,1,.12-.95l.55-.43a.68.68,0,0,1,.81,1.09l-.52.4A.7.7,0,0,1,108.44,269.93Zm2.78-1.93a.68.68,0,0,1-.35-1.26l.6-.35a.68.68,0,1,1,.68,1.17l-.57.34A.68.68,0,0,1,111.22,268Zm3-1.58a.68.68,0,0,1-.29-1.3l.64-.28a.68.68,0,0,1,.53,1.25l-.6.27A.74.74,0,0,1,114.23,266.42Zm3.15-1.23a.67.67,0,0,1-.64-.47.68.68,0,0,1,.43-.86l.66-.21a.68.68,0,0,1,.4,1.3l-.63.2A.57.57,0,0,1,117.38,265.19Zm3.27-.91a.69.69,0,0,1-.16-1.35l.68-.14a.68.68,0,0,1,.81.52.69.69,0,0,1-.53.81l-.65.14Zm3.33-.62a.69.69,0,0,1-.67-.59.66.66,0,0,1,.57-.76l.69-.1a.7.7,0,0,1,.76.59.68.68,0,0,1-.59.76l-.66.09Zm13.55-.47a.61.61,0,0,1-.68-.59c0-.37.3-.53.68-.53.22,0,.44.14.66.14h0c.37,0,.67.18.68.55s-.28.54-.66.56c-.23,0-.46-.13-.69-.13Zm-10.18.11a.67.67,0,0,1-.67-.63.68.68,0,0,1,.63-.73l.68,0a.66.66,0,0,1,.72.64.69.69,0,0,1-.64.72l-.67,0Zm7.47,0h0l-.67,0a.67.67,0,0,1-.65-.71.69.69,0,0,1,.71-.64l.69,0a.68.68,0,0,1,0,1.35Zm-4.07-.09a.68.68,0,0,1-.68-.69c0-.37.3-.48.67-.48l.39.19h.3c.37,0,.68.12.67.49s-.3.49-.68.49h-.67Zm10.16,0a.68.68,0,0,1-.08-1.35l.66-.09a.68.68,0,1,1,.19,1.35l-.69.09Zm3.34-.59a.67.67,0,0,1-.66-.52.68.68,0,0,1,.5-.82l.65-.16a.68.68,0,0,1,.34,1.32l-.67.16A.47.47,0,0,1,144.25,262.56Zm3.25-1a.68.68,0,0,1-.24-1.32l.63-.23a.68.68,0,0,1,.88.39.67.67,0,0,1-.4.87l-.64.25A1,1,0,0,1,147.5,261.6Zm3.11-1.33a.68.68,0,0,1-.61-.38.69.69,0,0,1,.31-.91l.6-.3a.67.67,0,0,1,.91.28.67.67,0,0,1-.28.92l-.63.32A.6.6,0,0,1,150.61,260.27Zm3-1.67a.69.69,0,0,1-.58-.31.68.68,0,0,1,.21-.94l.56-.36a.68.68,0,0,1,.75,1.13l-.58.38A.68.68,0,0,1,153.58,258.6Zm2.77-2a.68.68,0,0,1-.42-1.22l.52-.41a.68.68,0,1,1,.86,1l-.55.43A.65.65,0,0,1,156.35,256.65Zm2.58-2.21a.69.69,0,0,1-.5-.21.67.67,0,0,1,0-1l.48-.46a.68.68,0,1,1,.94,1l-.5.47A.69.69,0,0,1,158.93,254.44Zm2.39-2.4a.67.67,0,0,1-.46-.18.68.68,0,0,1,0-1l.45-.5a.68.68,0,1,1,1,.91l-.46.51A.7.7,0,0,1,161.32,252Zm2.21-2.58a.66.66,0,0,1-.42-.15.68.68,0,0,1-.11-1l.42-.52a.68.68,0,0,1,1.07.83l-.43.54A.67.67,0,0,1,163.53,249.46Zm2-2.73a.71.71,0,0,1-.39-.12.68.68,0,0,1-.16-1l.38-.55a.68.68,0,0,1,.94-.18.69.69,0,0,1,.18.95l-.39.57A.69.69,0,0,1,165.57,246.73Zm1.88-2.83a.67.67,0,0,1-.57-1l.35-.57a.68.68,0,0,1,.93-.23.68.68,0,0,1,.23.94l-.36.58A.67.67,0,0,1,167.45,243.9Zm1.73-2.93a.8.8,0,0,1-.33-.08.7.7,0,0,1-.26-.93l.33-.59a.68.68,0,0,1,1.19.65l-.33.6A.68.68,0,0,1,169.18,241Zm1.6-3a.67.67,0,0,1-.31-.07.69.69,0,0,1-.3-.92l.3-.6a.68.68,0,0,1,1.22.6l-.31.61A.66.66,0,0,1,170.78,238Zm1.47-3.07a.75.75,0,0,1-.29-.06.68.68,0,0,1-.33-.9l.27-.62a.68.68,0,0,1,1.25.56l-.29.62A.67.67,0,0,1,172.25,234.9Zm1.34-3.12a.74.74,0,0,1-.25-.05.68.68,0,0,1-.37-.89l.25-.63a.68.68,0,0,1,1.26.51l-.26.63A.67.67,0,0,1,173.59,231.78Zm1.24-3.17a.59.59,0,0,1-.23-.05.66.66,0,0,1-.4-.87l.23-.63a.68.68,0,1,1,1.27.46l-.23.64A.68.68,0,0,1,174.83,228.61Zm1.13-3.22-.21,0a.67.67,0,0,1-.43-.86l.21-.64a.68.68,0,1,1,1.29.42l-.21.65A.69.69,0,0,1,176,225.39Zm1-3.24-.2,0a.69.69,0,0,1-.45-.85l.19-.64a.69.69,0,0,1,.84-.47.7.7,0,0,1,.47.85l-.2.65A.68.68,0,0,1,177,222.15Zm.92-3.28-.17,0a.68.68,0,0,1-.48-.83l.17-.66a.68.68,0,0,1,.82-.49.67.67,0,0,1,.49.83l-.17.66A.67.67,0,0,1,177.91,218.87Zm.81-3.32h-.15a.68.68,0,0,1-.51-.81l.14-.67a.68.68,0,0,1,1.33.29l-.15.67A.67.67,0,0,1,178.72,215.55Z"/><path class="cls-16" d="M98.55,350.36a14,14,0,0,0,4.51-1.06l-.43-9.74-12.49-1.23.5,11.53.88.11A36.86,36.86,0,0,0,98.55,350.36Z"/><path class="cls-17" d="M98.55,350.36a36.86,36.86,0,0,1-7-.39l-.88-.11.49,11.43,12.34-2.65-.41-9.34A14,14,0,0,1,98.55,350.36Z"/><path class="cls-14" d="M105.19,360.31a40.23,40.23,0,0,1-1.75-4.54c-4.28,1.58-8.49.55-12.7-.89a19.33,19.33,0,0,1-3.19,5.49,3.11,3.11,0,0,1-.39.49,7.21,7.21,0,0,1-.86.89,6.31,6.31,0,0,1-1,.86,7.69,7.69,0,0,1-1,.7c-.36.25-.73.48-1.11.7s-.72.42-1.07.61-.62.37-.93.53l-.13.07a11.14,11.14,0,0,1-1.09.56,48.82,48.82,0,0,1-7.27,3.09,8.09,8.09,0,0,0-2.27,1,3.79,3.79,0,0,0-1,4.59c1,1.67,3.31,1.31,4.74,1,10-1.83,21.37-4,31.3-6C108.67,368.84,105.81,361.55,105.19,360.31Z"/><path class="cls-18" d="M69.62,374.66c1,1.42,3.22,1.11,4.58.86,10-1.85,21.38-4,31.32-6a1.82,1.82,0,0,0,1.41-1.88Z"/><path class="cls-18" d="M82.81,368.21a.46.46,0,0,1-.29.15.6.6,0,0,1-.54-.19l-2-2.39a11.14,11.14,0,0,0,1.09-.56l1.8,2.09A.64.64,0,0,1,82.81,368.21Z"/><path class="cls-18" d="M84.91,367a.66.66,0,0,1-.31.16.61.61,0,0,1-.55-.22l-2-2.29c.35-.19.73-.39,1.07-.61l1.74,2A.68.68,0,0,1,84.91,367Z"/><path class="cls-18" d="M86.94,365.46a.52.52,0,0,1-.28.15.6.6,0,0,1-.58-.21l-1.8-2.09a7.69,7.69,0,0,0,1-.7L87,364.53A.69.69,0,0,1,86.94,365.46Z"/><path class="cls-18" d="M89,363.92a.48.48,0,0,1-.29.15.62.62,0,0,1-.55-.19l-1.83-2.13a7.21,7.21,0,0,0,.86-.89L89,363A.67.67,0,0,1,89,363.92Z"/><path class="cls-14" d="M88.73,277.72C80.53,281,71.1,284.78,62.85,288c-1.18.47-3.15,1.17-4.17,0a3,3,0,0,1,.2-3.83,7.27,7.27,0,0,1,1.81-1.19,47.14,47.14,0,0,0,5.79-3.73c.3-.2.58-.42.85-.63l.11-.09c.24-.18.48-.38.71-.58s.57-.44.84-.67.58-.49.86-.75a7.67,7.67,0,0,0,.77-.74,5.51,5.51,0,0,0,.74-.86A5.59,5.59,0,0,0,72,274a3.07,3.07,0,0,0,.27-.46,15.32,15.32,0,0,0,1-2.22c.26-.81.06-1.74.62-2.44s1.58-.67,2.42-.74a.35.35,0,0,0,.17,0,4.31,4.31,0,0,0,2.11-.91c1.35-.8,3.91-1.34,5.39-1.85.31-.12,2,3.41,3.28,5.07C88,271.35,91.35,276.67,88.73,277.72Z"/><path class="cls-18" d="M58.84,288.08c1,1,2.88.33,4-.11,8.25-3.2,17.69-6.92,25.89-10.25a1.56,1.56,0,0,0,1-1.74Z"/><path class="cls-18" d="M69.23,280.65a.37.37,0,0,1-.22.17.54.54,0,0,1-.49-.06l-2-1.55c.3-.2.58-.42.85-.63l1.81,1.35A.5.5,0,0,1,69.23,280.65Z"/><path class="cls-18" d="M70.86,279.3a.63.63,0,0,1-.24.18.51.51,0,0,1-.5-.08l-2-1.49c.28-.21.57-.44.84-.67l1.75,1.32A.53.53,0,0,1,70.86,279.3Z"/><path class="cls-18" d="M72.39,277.74a.4.4,0,0,1-.22.17.52.52,0,0,1-.52-.07l-1.8-1.35a7.67,7.67,0,0,0,.77-.74L72.29,277A.53.53,0,0,1,72.39,277.74Z"/><path class="cls-18" d="M73.91,276.16a.4.4,0,0,1-.22.17.54.54,0,0,1-.49-.06l-1.84-1.38A5.59,5.59,0,0,0,72,274l1.84,1.4A.5.5,0,0,1,73.91,276.16Z"/><path class="cls-11" d="M133.8,250.15c-9.7-9-21.82-17.66-32.66-25.31C91,217.68,80.07,205.92,68.93,212.48c-13.73,8.09-2.84,37.42,2.16,52.3,4.35.81,9.37-1.6,13.71-.8,3.19-23.39.8-18.11,1.22-24.67,14.65,15.71,26.62,27.47,43.34,33Z"/><path class="cls-19" d="M108.23,242.56l11.65,3.28c9.8-1.58,16.48-8,21.05-15.63-3.45-2-6.7-4.49-10.13-6.09A56.49,56.49,0,0,1,108.23,242.56Z"/><path class="cls-20" d="M141.3,193.9l1.64,1c.08-.34.17-.67.24-1Z"/><path class="cls-21" d="M140.61,196.43c-2.57,11.73-6.09,19.41-11.7,27.21,3.44,1.6,9.88,5.79,13.33,7.79,8.12-13.52,8.18-31.93,8.18-31.93Z"/><path class="cls-22" d="M135.66,270.14c4.65,2.87,14.56,2.31,20.48,1.08-5.85-8.49-17-15.11-24.65-22.72C128.8,256.41,127.18,264.89,135.66,270.14Z"/><path class="cls-23" d="M179.26,215.38c-1-8.48-4.45-19.8-12-24.78-5.74-3.79-15.21-6.87-22.1-4.67-8.13,2.59-4.41,15.57-5,21.8a107.81,107.81,0,0,1-8.51,33.34,10.85,10.85,0,0,0-1.23,4.34c0,3.19,3.82,5.75,6,7.61,3,2.59,6,5.08,9.07,7.61,1.24,1.05,16.21,15.15,15.78,15.39,6.81-3.8,14.34-26.66,16.15-35.33C179.16,232.37,180.23,223.82,179.26,215.38Z"/><path class="cls-11" d="M162.63,268.78c-.59-5.57-3.54-6.74-8.76-7-16.49-.75-32.63-2.37-49.18-1.59-4.78.22-10.14.85-13.13,4.58-2.17,2.7-2.54,6.38-2.79,9.83A568.55,568.55,0,0,0,88,343.58c4.75,1.56,9.61,1.89,16.84,2.3,3.39-13.58,10.23-62.46,10.25-62.46,8.24.22,14.41.51,22.71,1.14,6,.45,12.41.39,17.69-2.55A13.64,13.64,0,0,0,162.63,268.78Z"/><path class="cls-24" d="M111,277l-7.11,68.85,1,.05c3.39-13.58,10.23-62.46,10.25-62.46,8.24.22,14.41.51,22.71,1.14,6,.45,12.41.39,17.69-2.55a14.28,14.28,0,0,0,5.68-5.8C146.55,284.67,127.72,275.48,111,277Z"/><path class="cls-21" d="M142.39,258c7.24,6,15.17,12.59,18.89,18,3.23-1.8,6.61-7.89,9.48-14.72A156.78,156.78,0,0,0,142.39,258Z"/><path class="cls-25" d="M110.23,253.22c-.67.06-1.34.09-2,.17A4.45,4.45,0,0,0,110.23,253.22Z"/><path class="cls-26" d="M126.46,158.25a24.38,24.38,0,0,0-2.4,7.73,13.38,13.38,0,0,0,1.4,7.88,85.14,85.14,0,0,1,5.9-15.42Z"/><path class="cls-19" d="M149.83,196.76h0a7.72,7.72,0,0,0,5.47-9.43l-7.47-28.05-14.9,4,7.46,28A7.71,7.71,0,0,0,149.83,196.76Z"/><path class="cls-16" d="M150.33,186.38a23.78,23.78,0,0,0,.34-6.79,26,26,0,0,0-.81-5.18,12,12,0,0,0-3.53,1.48,30.52,30.52,0,0,1-3.75,1.55c-1.79.65-3.59,1.25-5.38,1.86l3.19,12a7.57,7.57,0,0,0,2,3.39C146.44,194,149.4,190.36,150.33,186.38Z"/><path class="cls-19" d="M141.35,192c-15.13,8.09-23.78-29.11-8.46-37.78,17.39-9.83,22.82,8.82,17.42,23.94C148.4,183.52,146.46,189.26,141.35,192Z"/><path class="cls-26" d="M152,176.36a8.23,8.23,0,0,0,1.39,3.28c-.28-.36,1.09-3.65,1.23-4.16,1.08-4,2.18-8.07,1.78-12.17a13.38,13.38,0,0,0-1-4.08c-3.75-8.58-15.16-10.59-22.88-6.07a23.66,23.66,0,0,0-4.51,3.39,10.32,10.32,0,0,0-3.09,5.31,6.26,6.26,0,0,0,1.7,5.73c4.52,4.11,10.12-1,13.83-3.45,1.83-1.2,4.46-2.12,6-.59,2.18,2.16,2.5,7.25,2.42,10.29,0,.27,1.27.34,1.32-.05.1-.75,0-1.37.63-1.63.19-.07,1.41-.63,1.16,0A7.23,7.23,0,0,0,152,176.36Z"/><path class="cls-19" d="M149.84,172.6a2.05,2.05,0,0,1,1-1,1.15,1.15,0,0,1,1.31.24,1.63,1.63,0,0,1,.15,1.54,12.87,12.87,0,0,1-1.85,3.49Z"/><path class="cls-26" d="M128.57,185.92c0,.08-.09.16-.13.24-.57,1.21.05,2.61.66,3.8,1,1.83,2,3.77,3.81,4.79,3.46,1.95,7.59-.13,10.38-2.32a20.6,20.6,0,0,0,6.49-9,20.3,20.3,0,0,0,.05-13.69,4.15,4.15,0,0,0-1,2.47c-.08,1.14.43,7.35-3.18,11.13-1.59,1.67-4.55,1.75-6.73,1.6-2.68-.18-5.39-1-8.07-.45A3.63,3.63,0,0,0,128.57,185.92Z"/><path class="cls-26" d="M148.22,154.77a22.41,22.41,0,0,1-1.69-8.59c0-2,.44-4.17,2.11-5.19s4.1-.32,5.7,1c2,1.6,3.34,4.27,2.6,6.7-1.17,3.79-6.6,5.09-7.5,9Z"/><path class="cls-19" d="M131.37,185.85a2,2,0,0,0-.53,2.31,1.47,1.47,0,0,0,.73.66,9.38,9.38,0,0,0,4.35.2,2,2,0,0,0,1.06-1.68.8.8,0,0,0-.69-.66C135,186.46,132.69,184.8,131.37,185.85Z"/><rect class="cls-27" x="119.93" y="257.8" width="26.57" height="2.66" transform="translate(266.43 518.27) rotate(180)"/><path class="cls-27" d="M83.56,260.47h47.76l-6.81-26.65a4.47,4.47,0,0,0-4.33-3.36H78.35a1.9,1.9,0,0,0-1.85,2.38Z"/><path class="cls-21" d="M124.51,233.82l6.81,26.65h-3l-7.66-30A4.47,4.47,0,0,1,124.51,233.82Z"/><circle class="cls-28" cx="101.14" cy="244.51" r="2.24" transform="translate(-53.47 29.78) rotate(-13.28)"/><path class="cls-19" d="M154.48,221.14c-1,9.41-4.06,32.3-4.06,32.3-7.35-2.24-14.57-2.05-21.89-3.68l1.78,6.89c9.75,2.82,19,6.38,20.65,6.84,2.89.82,6.23.72,8.61-1.12,2.14-1.65,3.12-4.36,3.92-7,3-9.76,5.67-19.49,6.71-29.43C164.14,224.7,161.44,221.14,154.48,221.14Z"/><path class="cls-21" d="M171.09,212.85c-.45-5.75-.89-14.92-5.39-17.71-6.79-4.2-13.38,3.09-13.81,9.79-.48,7.58-1.83,14.81-2.58,22.06,7.72,0,14.75.11,21.48,1.54A85.37,85.37,0,0,0,171.09,212.85Z"/><path class="cls-29" d="M171.09,212.85c-.4-5-.78-12.73-3.92-16.42,3.32,10.17,2.26,21.18,1.46,31.7.72.12,1.44.25,2.16.4A85.37,85.37,0,0,0,171.09,212.85Z"/><path class="cls-17" d="M151.51,209.21c0-.25.05-.5.07-.76C151.56,208.7,151.53,209,151.51,209.21Z"/><path class="cls-30" d="M151.51,209.21c-.61,6-1.59,11.91-2.2,17.78h2.22A171.27,171.27,0,0,1,151.51,209.21Z"/><path class="cls-31" d="M87.07,337.62a1.31,1.31,0,0,0-.46.57c-.46.94-.06,2.18-.06,3.17v3s7.23,4.13,19.6,2.44c.26,0,1-5.05,1.06-5.51.32-2.82-4.18-1.76-5.88-1.81-2.18-.06-4.36-.2-6.52-.44A29,29,0,0,1,89,337.92C88.26,337.68,87.6,337.28,87.07,337.62Z"/><path class="cls-31" d="M70.68,267.62a4.19,4.19,0,0,0,1.94,2.56,4.89,4.89,0,0,0,3,.07q5.64-1,11.2-2.51c-.13-1.66-.27-3.33-.4-5a2.07,2.07,0,0,0-.27-1c-.46-.67-1.47-.56-2.27-.38-4.52,1-9.88,1.53-14.15,3.32A21.11,21.11,0,0,0,70.68,267.62Z"/><path class="cls-32" d="M202.62,216.08s27-2.07,34,17.92,19.75,36.9,48.64,37.35,34.58,24.58,25.38,35.3S232.5,328.55,205.36,290,188.59,217.62,202.62,216.08Z"/><path class="cls-12" d="M199.72,219.24s7.8-12,31.56-10.93,32.64,18.87,39.39,32.18,34.72,24.94,40.05,36,6.77,23.39-3.23,28.28S209.53,294.61,199.72,219.24Z"/><path class="cls-33" d="M307.7,295.27l.64-.21c-.06-.19-6.82-19.15-42.41-13-17.3,3-32.06-6.65-41.4-15.28-15-13.85-23.36-31.48-22.75-38l-.68-.06c-.7,7.55,9,25.66,23,38.58,9.45,8.73,24.41,18.5,42,15.45C301.08,276.68,307.63,295.09,307.7,295.27Z"/><path class="cls-15" d="M310.35,292.34s0,0,0,0a.67.67,0,0,0,.66-.69s0-.27-.05-.74a.69.69,0,0,0-.75-.61.68.68,0,0,0-.6.75c0,.4,0,.62,0,.64A.69.69,0,0,0,310.35,292.34Zm-.5-3.37a.62.62,0,0,0,.19,0,.68.68,0,0,0,.51-.81c0-.22-.1-.44-.16-.68a.68.68,0,1,0-1.31.33l.15.65A.68.68,0,0,0,309.85,289Zm-.93-3.27a.61.61,0,0,0,.26,0,.67.67,0,0,0,.41-.86q-.1-.33-.24-.66a.67.67,0,0,0-.87-.39.69.69,0,0,0-.4.88c.08.21.16.41.23.62A.68.68,0,0,0,308.92,285.7Zm-1.33-3.13a.58.58,0,0,0,.34-.07.68.68,0,0,0,.31-.91l-.32-.62a.68.68,0,1,0-1.2.64l.3.59A.68.68,0,0,0,307.59,282.57Zm-1.7-2.94a.61.61,0,0,0,.41-.11.67.67,0,0,0,.19-.94l-.39-.58a.69.69,0,0,0-1-.16.68.68,0,0,0-.16,1l.37.54A.65.65,0,0,0,305.89,279.63Zm-2.06-2.69a.68.68,0,0,0,.48-.17.69.69,0,0,0,.07-1l-.47-.51a.68.68,0,1,0-1,.91c.15.17.3.33.44.5A.71.71,0,0,0,303.83,276.94Zm-2.4-2.4a.69.69,0,0,0,.55-.23.68.68,0,0,0-.06-1l-.53-.46a.67.67,0,0,0-.95.09.68.68,0,0,0,.08,1c.17.14.34.28.5.43A.74.74,0,0,0,301.43,274.54Zm-2.67-2.08a.7.7,0,0,0,.6-.3.68.68,0,0,0-.18-.94l-.58-.39a.69.69,0,0,0-.94.2.67.67,0,0,0,.2.94l.55.37A.77.77,0,0,0,298.76,272.46Zm-2.91-1.74a.68.68,0,0,0,.35-1.28l-.62-.32a.68.68,0,0,0-.6,1.22l.59.3A.69.69,0,0,0,295.85,270.72Zm-3.09-1.41a.68.68,0,0,0,.29-1.31l-.65-.25a.68.68,0,0,0-.87.4.69.69,0,0,0,.4.88l.62.23A.54.54,0,0,0,292.76,269.31Zm-3.21-1.09a.68.68,0,0,0,.23-1.33l-.67-.19a.68.68,0,0,0-.35,1.32l.64.18Zm-3.29-.8a.68.68,0,0,0,.17-1.34l-.68-.13a.68.68,0,0,0-.25,1.33l.66.13Zm-13.51-1.21a.61.61,0,0,0,.71-.55c0-.37-.27-.54-.64-.57-.22,0-.45.12-.67.11h0c-.37,0-.68.15-.71.52s.25.56.62.59.47-.11.7-.09Zm10.16.67a.68.68,0,0,0,.12-1.35l-.68-.08a.67.67,0,0,0-.75.6.69.69,0,0,0,.6.75l.66.07Zm-7.45-.43h.71a.67.67,0,0,0,.68-.67.69.69,0,0,0-.67-.69h-.69a.68.68,0,0,0,0,1.36Zm4.07.13a.68.68,0,0,0,.71-.65c0-.37-.27-.5-.64-.52l-.4.17h-.3c-.37,0-.68.08-.7.45s.28.5.65.52h0l.29,0,.38,0ZM269.38,266a.68.68,0,0,0,.15-1.35l-.65-.12a.68.68,0,1,0-.26,1.33l.68.13Zm-3.3-.77a.69.69,0,0,0,.69-.49.67.67,0,0,0-.46-.84l-.63-.2a.68.68,0,1,0-.42,1.3l.66.2Zm-3.19-1.15a.66.66,0,0,0,.66-.41.67.67,0,0,0-.36-.89l-.61-.27a.68.68,0,0,0-.55,1.24l.63.28A.64.64,0,0,0,262.89,264.07Zm-3-1.49a.7.7,0,0,0,.63-.35.68.68,0,0,0-.26-.92l-.57-.34a.69.69,0,0,0-.94.24.68.68,0,0,0,.24.93l.6.35A.86.86,0,0,0,259.85,262.58ZM257,260.75a.68.68,0,0,0,.44-1.23l-.54-.39a.68.68,0,0,0-.81,1.09l.56.4A.68.68,0,0,0,257,260.75Zm-2.66-2.11a.62.62,0,0,0,.55-.23.68.68,0,0,0-.06-1l-.5-.44a.68.68,0,1,0-.91,1l.52.46A.61.61,0,0,0,254.32,258.64Zm-2.45-2.33a.71.71,0,0,0,.51-.19.68.68,0,0,0,0-1c-.16-.16-.31-.33-.46-.49a.68.68,0,0,0-1,.93l.48.5A.66.66,0,0,0,251.87,256.31Zm-2.26-2.54a.67.67,0,0,0,.47-.15.68.68,0,0,0,.09-1l-.42-.52a.68.68,0,1,0-1.06.85c.15.18.29.36.44.53A.64.64,0,0,0,249.61,253.77Zm-2.06-2.7A.67.67,0,0,0,248,251a.7.7,0,0,0,.16-.95l-.39-.55a.68.68,0,0,0-.95-.17.68.68,0,0,0-.17.94l.4.57A.7.7,0,0,0,247.55,251.07Zm-1.89-2.83a.69.69,0,0,0,.39-.1.68.68,0,0,0,.22-.94c-.12-.19-.24-.38-.35-.57a.69.69,0,0,0-.94-.23.68.68,0,0,0-.22.94l.36.58A.65.65,0,0,0,245.66,248.24Zm-1.72-2.93a.78.78,0,0,0,.36-.08.69.69,0,0,0,.27-.93l-.32-.59a.7.7,0,0,0-.93-.28.69.69,0,0,0-.27.93l.33.6A.67.67,0,0,0,243.94,245.31Zm-1.57-3a.57.57,0,0,0,.33-.07.67.67,0,0,0,.31-.91l-.29-.6a.68.68,0,1,0-1.22.58l.29.62A.69.69,0,0,0,242.37,242.29Zm-1.43-3.09a.67.67,0,0,0,.31,0,.69.69,0,0,0,.35-.9l-.27-.62a.67.67,0,0,0-.89-.35.68.68,0,0,0-.36.89l.27.63A.68.68,0,0,0,240.94,239.2Zm-1.3-3.14a.74.74,0,0,0,.29-.05.67.67,0,0,0,.38-.88l-.24-.62a.68.68,0,0,0-.88-.4.69.69,0,0,0-.39.88l.25.64A.7.7,0,0,0,239.64,236.06Zm-1.17-3.19a.82.82,0,0,0,.26,0,.68.68,0,0,0,.42-.86l-.22-.64a.68.68,0,1,0-1.29.43l.22.65A.7.7,0,0,0,238.47,232.87Zm-1.06-3.24a.47.47,0,0,0,.23,0,.68.68,0,0,0,.45-.85l-.2-.64a.67.67,0,0,0-.84-.46.69.69,0,0,0-.46.85l.2.66A.69.69,0,0,0,237.41,229.63Zm-1-3.27a.55.55,0,0,0,.22,0,.67.67,0,0,0,.47-.83l-.17-.66a.68.68,0,0,0-.83-.48.67.67,0,0,0-.48.83l.17.67A.68.68,0,0,0,236.45,226.36Zm-.85-3.29.2,0a.68.68,0,0,0,.5-.82l-.15-.66a.68.68,0,0,0-1.33.31l.16.67A.68.68,0,0,0,235.6,223.07Zm-.74-3.33H235a.69.69,0,0,0,.53-.8l-.14-.67a.67.67,0,0,0-.8-.53.68.68,0,0,0-.53.8l.14.67A.67.67,0,0,0,234.86,219.74Zm-.62-3.35h.15a.68.68,0,0,0,.56-.78l-.11-.67a.68.68,0,1,0-1.34.21l.11.68A.68.68,0,0,0,234.24,216.39Z"/><path class="cls-18" d="M279.44,169.65c.31,8.11-1.94,16.06-3.09,24.09s-1.06,16.76,3.39,23.55c-11.1,1-22.23-4.95-28.68-14s-8.49-20.87-6.86-31.9c.92-6.21.45-15.1,4.86-19.58s14.54-4.75,20.4-1.11C275.61,154.48,279.18,162.82,279.44,169.65Z"/><path class="cls-19" d="M246.77,158a33.56,33.56,0,0,1,13.1-3.72c3.69-.32,7.94-.19,11.47,1.33a23.38,23.38,0,0,1,2.57,14c-.29,2.84-2.31,13.61-6.84,17-6,4.51-16.89-6.79-18.82-10.76-2.48-5.11-3.48-8.85-2.44-14.36A25.72,25.72,0,0,1,246.77,158Z"/><polygon class="cls-19" points="255.86 183.6 242.26 198.76 235.76 188.1 248.25 175.85 255.86 183.6"/><path class="cls-18" d="M269.26,151.6c3.47,2.59,5.55,4.67,4.17,8.61-1,3-16.54,23.4-34.18,24.47,1-1.61,3.47-7.52,2.63-12.75s-1-10.81,1.48-15.6C247.94,147.4,261.33,145.69,269.26,151.6Z"/><path class="cls-19" d="M227.37,194.93c-4.41,6.86-4.3,15.62-3.5,23.73,1.73,17.63,6.17,35.26,15.3,50.44,5.25,8.73,11.83,15.42,22.38,16.14,9.49.66,19.12-2.83,26.72-8.38,10.93-8,18.47-19.64,25.75-31,.28,1,.61,1.91,1,2.85,2.44,6.15,6.75,11.36,11.58,15.81a94.33,94.33,0,0,0,12.05,9.3c3.8,2.52,11.67,5,11.94,10.36.06,1-.12,2.14.46,3,.72,1.06,2.23,1.12,3.51,1.08,7.9-.5,15.76-.18,23.62-.46.35,0,.81-.16.76-.5s-.26-.33-.46-.41c-5.47-2.16-11.34-3.95-16.63-6.74-6.25-3.3-9.84-7.91-14-13.46-8.94-12-17.71-24.08-26.74-36a245.13,245.13,0,0,0-29,10.81c-4.77,2.13-21.3,10.48-25.71,11.66-2.3,0-4-5.12-4.27-6.6a26,26,0,0,1,.12-10.14c1.21-5.5,6.81-10.87,6.11-16.74-.54-4.45-5.48-6.65-9.22-9.12a25.22,25.22,0,0,1-11-18.7c.31,3.86-10.88-3.82-11-3.88C233.26,186.46,229.23,192,227.37,194.93Z"/><path class="cls-14" d="M245,278.2c5-3.05,11.14-7.21,14.86-11.75a32.68,32.68,0,0,0,6.51-13.34c-1.83-1.07-4-5.33-4.27-6.6a26,26,0,0,1,.12-10.14c1.21-5.5,6.81-10.87,6.11-16.74-.54-4.45-5.48-6.65-9.22-9.12-6.24-4.14-8.74-11-10.77-18.25.24.85-11.13-4.27-11.29-4.33-3.8-1.47-7.83,4.1-9.69,7-4.41,6.86-4.3,15.62-3.5,23.73,1.73,17.63,6.17,35.26,15.3,50.44C241,272.21,242.68,275.79,245,278.2Z"/><path class="cls-10" d="M246.83,275.12a172.35,172.35,0,0,1-9.44-19.31,139.73,139.73,0,0,1-8-22.25,118.32,118.32,0,0,1-2.12-12,74.37,74.37,0,0,1-1-12.37c.08-3.28.21-6.59.44-9.87.1-1.35.23-2.74.46-4.12-4.21,6.82-4.1,15.43-3.31,23.42,1.73,17.63,6.17,35.26,15.3,50.44,1.87,3.11,3.51,6.69,5.84,9.1.86-.52,1.77-1.09,2.68-1.68C247.4,276.05,247.11,275.59,246.83,275.12Z"/><path class="cls-18" d="M347.83,266.63c-8.94-12-17.71-24.08-26.74-36a245.13,245.13,0,0,0-29,10.81c-4.77,2.13-21.3,10.48-25.71,11.66a1.67,1.67,0,0,1-.75-.19,29.15,29.15,0,0,1-1.78,5.37c-2.86,6.45-7.83,11.76-13.42,16-1.58,1.19-3.23,2.29-4.91,3.33a23.87,23.87,0,0,0,16,7.66c9.49.66,19.12-2.83,26.72-8.38,10.93-8,18.47-19.64,25.75-31,.28,1,.61,1.91,1,2.85,2.44,6.15,6.75,11.36,11.58,15.81a94.33,94.33,0,0,0,12.05,9.3c.73.48,1.61,1,2.55,1.47a28.51,28.51,0,0,0,7.65-7.31Z"/><path class="cls-34" d="M288.65,268.9c-4.37,1.85-5.48,5.63-9.84,7.51a26.6,26.6,0,0,0,.52,2.94,14.84,14.84,0,0,0,.73,2.29,46.2,46.2,0,0,0,8.21-4.78c7.42-5.41,18.29-20.05,23.56-27.63C307.25,254.16,296.82,265.44,288.65,268.9Z"/><path class="cls-34" d="M343,273a50.41,50.41,0,0,1-16.33-11.51c-2.33-2.37-9.94-9.07-12.42-14.92.23.71.45,1.42.72,2.12,2.44,6.15,6.75,11.36,11.58,15.81a94.33,94.33,0,0,0,12.05,9.3c.73.48,1.61,1,2.55,1.47.91-.62,1.79-1.29,2.63-2C343.54,273.17,343.28,273.09,343,273Z"/><path class="cls-19" d="M250.33,281.15c3.25,3.82,11.36,5.4,15,6.39a116.17,116.17,0,0,0,23.22,3.67c13.37.84,26.79-.12,40.16-1.09-.25,0-1,1.58-1.19,1.82-2.86,4.44-6.82,10.32-7.47,15.68-.69,5.65-1.31,11.45-1.56,17.17-.23,5.21.42,10.51.06,15.69a7.52,7.52,0,0,1-2.72,5.55c-1.57,1.15-3.85,1.6-4.62,3.38a5.61,5.61,0,0,0,.11,3.57c.26,0,1.88,7.16,2,7.86.41,2.7.4,5.55.6,8.27a4.73,4.73,0,0,0,.53,2.17c.84,1.3,6.29,2.67,6.72.49a5.39,5.39,0,0,0-.67-2.76c-.81-2.29-.24-4.8.34-7.16,1-4.09,2-8.19,3.09-12.27A172.34,172.34,0,0,1,329,332.21c2.18-5.72,4.35-11.45,6.3-17.25,3.87-11.51,6.95-23.53,6.86-35.76,0-3.2-.3-6.88-2.87-8.79a10.54,10.54,0,0,0-5.19-1.55c-20.58-2.4-41.16-4.79-61.84-6-7.19-.4-11.19,3.34-16.4,8.24-1.81,1.7-6.6,3.28-6.91,5.74A5.34,5.34,0,0,0,250.33,281.15Z"/><path class="cls-18" d="M327.51,291.94c-2.86,4.44-6.82,10.32-7.47,15.68-.69,5.65-1.31,11.45-1.56,17.17-.11,2.64,0,5.31.08,8a49.17,49.17,0,0,1,6.19-.16,37.9,37.9,0,0,1,4,.42c.1-.27.18-.54.28-.81,2.18-5.72,4.35-11.45,6.3-17.25,3.87-11.51,6.95-23.53,6.86-35.76,0-3.2-.3-6.88-2.87-8.79a10.54,10.54,0,0,0-5.19-1.55c-20.58-2.4-41.91-5.36-62.59-6.52-7.19-.41-11.67,2-16.09,7.64-2.74,3.49-10.7,7.78-10.7,7.78,4.19,7.56,14.28,9.46,17.92,10.45,7.57,2.07,18,2.51,25.87,3,13.37.84,26.79-.12,40.16-1.09C328.45,290.14,327.67,291.7,327.51,291.94Z"/><path class="cls-27" d="M290.25,239.65l-.13-.38a2,2,0,0,1,1.2-2.52l25.28-9a2,2,0,0,0,1.25-1.35l7.49-28a2,2,0,0,1,2.42-1.4l.39.11a2,2,0,0,1,1.4,2.42l-8.08,30.17a2,2,0,0,1-1.25,1.35l-27.44,9.75A2,2,0,0,1,290.25,239.65Z"/><path class="cls-19" d="M239.82,201.59c9.36,13.48,17.72,28.35,27.08,41.83,5.88-3.89,11.78-7.78,18-11.07,2.28-1.21,4.43-3.15,6.79-4.06A25.57,25.57,0,0,1,301.5,227a79.24,79.24,0,0,1,12.24,1.71c-4.45,2-9.45,2.07-14.24,2.93-5,.91-8.95,2.83-12.06,6.87-3.31,4.33-9.2,7.74-13.5,11.17-2,1.58-4,3.2-6.52,3.72-4.88,1-9.47-2.52-12.94-6.11a119.16,119.16,0,0,1-19.39-27.64A46,46,0,0,1,230.18,205C229,198.05,236.93,197.42,239.82,201.59Z"/></g></svg>