<svg xmlns="http://www.w3.org/2000/svg" xmlns:xlink="http://www.w3.org/1999/xlink" viewBox="0 0 215 215"><defs><clipPath id="a"><rect width="215" height="215" style="fill:none"/></clipPath></defs><g style="isolation:isolate"><g style="clip-path:url(#a)"><path d="M136.28,58.3a47.5,47.5,0,0,0-19.94-9,46.64,46.64,0,0,0-6.11-.73l-2.18-.11-.16,12.64s.53,0,1.58.06a34.54,34.54,0,0,1,19.22,7.18,34.08,34.08,0,0,1,9.88,12.1l11.52-4.92A47,47,0,0,0,136.28,58.3Z" style="fill:#d6e6f2;mix-blend-mode:hard-light"/><path d="M105.75,36A59.36,59.36,0,0,0,73.47,46.57,59.81,59.81,0,0,0,52.31,119a56.69,56.69,0,0,0,4.82,9.12l10.7-6.54a45.18,45.18,0,0,1-3.94-7.44A47.11,47.11,0,0,1,80.61,56.9a46.87,46.87,0,0,1,25.5-8.34l2.11,0,.2-12.56Z" style="fill:#f6a71c"/><path d="M154.05,87.88s-.12-.58-.34-1.61a36.24,36.24,0,0,0-1.06-4.22,48.32,48.32,0,0,0-5.55-12,50.89,50.89,0,0,0-8.65-10L135,57.4l-1.38-.92,7-10.45,1.73,1.17c1.06.8,2.57,2,4.33,3.41a63.13,63.13,0,0,1,10.95,12.61,61,61,0,0,1,7,15.19A51.38,51.38,0,0,1,166,83.74c.27,1.3.42,2,.42,2Z" style="fill:#fc0"/><path d="M83.36,70.78s-.38.41-1.11,1.16a34.08,34.08,0,0,0-2.91,3.47,34.7,34.7,0,1,0,58.92,36.29,34.06,34.06,0,0,0,3.87-15.54c0-1,0-1.84,0-2.6s-.16-1.4-.22-1.91c-.12-1-.18-1.6-.18-1.6L154.07,88s.09.75.27,2.16c.08.7.17,1.57.28,2.6s0,2.21.07,3.54a46.72,46.72,0,0,1-5.27,21.19,47.23,47.23,0,0,1-22,21.16A47.26,47.26,0,0,1,60.8,88.18,46.56,46.56,0,0,1,73.13,63.31l1.51-1.57Z" style="fill:#fc0"/><path d="M129.3,92.13s-.08-.36-.24-1l-.25-1.22-.54-1.6a21.56,21.56,0,0,0-5.66-8.61,21.87,21.87,0,0,0-13.2-5.93A22.18,22.18,0,0,0,93.6,78.49a22.08,22.08,0,0,0-5.21,28.57,22,22,0,0,0,7.21,7.42,28.52,28.52,0,0,0,2.55,1.43l1,.38-4.74,11.63a28.92,28.92,0,0,1-5.5-2.84,34.52,34.52,0,0,1-11.28-11.62,34.66,34.66,0,0,1,32.92-52.22A34.71,34.71,0,0,1,140.1,84.06c.3.94.58,1.78.82,2.51s.3,1.38.42,1.9l.35,1.58Z" style="fill:#f6a71c"/><path d="M119.73,114.21l1.47-1.06c.42-.35.9-.77,1.41-1.21l1.48-1.54a21.37,21.37,0,0,0,3.21-4.83l11.25,5.56a34.17,34.17,0,0,1-5,7.55l-2.32,2.4L129,123c-1.36,1-2.31,1.66-2.31,1.66Z" style="fill:#fc0"/><path d="M104.07,86.81a9.45,9.45,0,0,0-4.75,3.91,9.12,9.12,0,0,0-1.38,6.13,9.35,9.35,0,0,0,3.41,6.33,9.66,9.66,0,0,0,6.85,2.16,9.77,9.77,0,0,0,5.8-2.54A10.45,10.45,0,0,0,116.49,99a10.69,10.69,0,0,0,.41-1.65l12.39,2a20.65,20.65,0,0,1-1,3.85A23,23,0,0,1,122.6,112a22.18,22.18,0,0,1-29.22.93,22,22,0,0,1-7.92-14.61A22.12,22.12,0,0,1,96.13,76.76a17.41,17.41,0,0,1,2.62-1.33,6.2,6.2,0,0,1,1-.4Z" style="fill:#e5f4eb"/><path d="M116.32,92.17a10.3,10.3,0,0,0-.88-1.67,9.89,9.89,0,0,0-3-2.9,9.65,9.65,0,0,0-5.84-1.34l-1.19-12.5a18.15,18.15,0,0,1,4.42,0,21.65,21.65,0,0,1,9.14,3.09,22.62,22.62,0,0,1,7,6.7,20.62,20.62,0,0,1,1.56,2.78l.49,1.11Z" style="fill:#fc0"/><path d="M130.92,40.77a68.21,68.21,0,0,0-7.1-2.52l-2.59-.64-2.88,12.22,2,.51a51.62,51.62,0,0,1,5.62,2,43.28,43.28,0,0,1,4,1.93l5.32-11.39C133.78,42,132.28,41.34,130.92,40.77Z" style="fill:#f6a71c"/><path d="M153.92,104.59a47.24,47.24,0,0,1-8,18.61l10.36,7.07a60,60,0,0,0,9.9-22.92Z" style="fill:#f6a71c"/><path d="M125,182.54H89.12A3.18,3.18,0,0,1,86,179.38h0a3.18,3.18,0,0,1,3.17-3.17H125a3.18,3.18,0,0,1,3.16,3.17h0A3.17,3.17,0,0,1,125,182.54Z" style="fill:#0e3c62"/><path d="M125,191.4H89.12A3.18,3.18,0,0,1,86,188.24h0a3.18,3.18,0,0,1,3.17-3.16H125a3.17,3.17,0,0,1,3.16,3.16h0A3.17,3.17,0,0,1,125,191.4Z" style="fill:#0e3c62"/><path d="M91.13,194a11.77,11.77,0,0,0,11,7.58H112a11.77,11.77,0,0,0,11-7.58Z" style="fill:#0e3c62"/><path d="M141.78,128.23l-1.46,1.52a57,57,0,0,1-4.53,3.86,47.36,47.36,0,0,1-48.62,4.87A46.36,46.36,0,0,1,72,127l-7.94,9.87a58.31,58.31,0,0,0,17.72,12.92l.08,0A14.6,14.6,0,0,1,90.33,163v9.41h33.4v-9.07a14.45,14.45,0,0,1,8.55-13.15,56.89,56.89,0,0,0,11-6.53,67.09,67.09,0,0,0,5.74-4.89l1.86-1.91Z" style="fill:#fc0"/><g style="opacity:0.73"><path d="M184.05,127.71s-.14.34-.45,1-.77,1.59-1.36,2.83S181,134.33,180,136l-3.51,5.77c0,.06-.07.11-.1.16-1.5,2-3.14,4.27-5,6.65l-.1.12q-1.53,1.7-3.19,3.51l-1.71,1.88c-.61.61-1.28,1.19-1.94,1.79l-4,3.65a.86.86,0,0,1-.14.13l-4.61,3.45c-.35.28-.72.56-1.09.82a2.06,2.06,0,0,0-.51,2.9h0a2.06,2.06,0,0,0,2.83.49c.39-.28.78-.57,1.15-.87l4.84-3.63.15-.12,4.22-3.83c.69-.64,1.39-1.24,2-1.88l1.8-2,3.35-3.69.1-.12c2-2.5,3.69-4.86,5.25-7l.1-.15,3.69-6.06c1.09-1.79,1.74-3.46,2.41-4.74l1.42-3c.33-.67.47-1,.47-1Z" style="fill:#a4c9e7"/><path d="M49.84,147.74c-.57-.62-1.13-1.27-1.68-1.93a2.62,2.62,0,0,0-3.75-.27h0a2.63,2.63,0,0,0-.26,3.64c.6.71,1.2,1.4,1.81,2.08A83.4,83.4,0,0,0,62,165a2.63,2.63,0,0,0,3.62-.72h0a2.6,2.6,0,0,0-.73-3.64A77.61,77.61,0,0,1,49.84,147.74Z" style="fill:#cce4f2"/><path d="M190.28,90.85a79,79,0,0,0-1.73-13.09l0-.16c-.35-1.36-.72-2.8-1.11-4.3-.19-.73-.38-1.48-.58-2.24a2,2,0,0,0-.07-.23c-.27-.74-.54-1.5-.82-2.28l-1.82-5a1.08,1.08,0,0,0-.08-.19c-.74-1.67-1.6-3.37-2.44-5.14A84.78,84.78,0,0,0,166,36.62,83,83,0,0,0,39.77,47.51,81.48,81.48,0,0,0,25.36,83.45a85.63,85.63,0,0,0-.58,19.24,2.64,2.64,0,0,0,2.76,2.43h0A2.62,2.62,0,0,0,30,102.31a80.21,80.21,0,0,1,.54-18.1A76.42,76.42,0,0,1,44,50.54a77.42,77.42,0,0,1,61.35-32.71,77,77,0,0,1,56.9,22.51,79.7,79.7,0,0,1,14.64,20.27c.79,1.66,1.59,3.25,2.29,4.81a1.54,1.54,0,0,1,.08.19q.89,2.42,1.7,4.65l.77,2.11a2.17,2.17,0,0,1,.07.24c.18.71.36,1.41.54,2.09.36,1.4.7,2.75,1,4a1,1,0,0,1,0,.17,73.93,73.93,0,0,1,1.61,12.25l.1,1.92a2.61,2.61,0,0,0,2.61,2.49h0a2.62,2.62,0,0,0,2.62-2.74Z" style="fill:#77addb"/><path d="M181.8,95.55A1.85,1.85,0,0,0,180,97.31l-.07,1.18c0,1-.1,2.13-.17,3.52a44.71,44.71,0,0,1-.63,4.73,71.85,71.85,0,0,1-10.31,27.53c-.39.63-.76,1.28-1.17,1.91l-.09.13c-.46.61-.91,1.22-1.38,1.83-1,1.25-1.87,2.57-2.9,3.83l-.09.1a76.88,76.88,0,0,1-7.09,7.28,37.83,37.83,0,0,1-4.08,3.44c-1.46,1.06-2.87,2.22-4.41,3.24l-4.78,2.9-.1.06a1.86,1.86,0,0,0-.65,2.62l.83,1.28a1.83,1.83,0,0,0,2.46.62h0l5.12-3.11c1.65-1.09,3.17-2.33,4.73-3.47a41.14,41.14,0,0,0,4.37-3.69,82,82,0,0,0,7.61-7.81l.08-.09c1.11-1.35,2.09-2.77,3.12-4.11l1.47-2,.09-.13c.45-.68.85-1.38,1.27-2.05a77.23,77.23,0,0,0,11.06-29.53c.24-1.9.65-3.57.67-5.07s.13-2.75.19-3.78l.06-1.19a1.86,1.86,0,0,0-1.86-2Z" style="fill:#1c77c3"/><path d="M168.19,55.87c-.68-1.26-1.87-2.58-3.07-4.27-.64-.81-1.24-1.75-2-2.63l-2.54-2.8a73.84,73.84,0,0,0-6.35-6.11c-1.19-1.08-2.61-2-4-3.05l-2-1.54-.13-.1L145.78,34a69.52,69.52,0,0,0-22.94-9.36,74.41,74.41,0,0,0-29.28-.31A71.38,71.38,0,0,0,63.81,37.65C45.32,51.08,33.27,75.49,35.09,99.94a67.29,67.29,0,0,0,1.07,9,36.94,36.94,0,0,0,1,4.43c.41,1.46.68,3,1.19,4.39a73.74,73.74,0,0,0,3.37,8.41l1.93,4a.64.64,0,0,0,.08.14l2.3,3.78a72,72,0,0,0,25.06,24.18c.49.3,1,.58,1.49.85a1.66,1.66,0,0,0,2.22-.62h0a1.66,1.66,0,0,0-.61-2.29c-.48-.27-1-.54-1.43-.82a68.76,68.76,0,0,1-23.91-23.08l-2.2-3.59-.08-.15-1.83-3.8a68.76,68.76,0,0,1-3.21-8c-.5-1.36-.75-2.79-1.14-4.18a34.54,34.54,0,0,1-1-4.23,64.42,64.42,0,0,1-1-8.64c-1.74-23.34,9.75-46.61,27.4-59.43A68,68,0,0,1,94.19,27.6a70.94,70.94,0,0,1,28,.29A66.16,66.16,0,0,1,144,36.82l2.17,1.31.13.1,1.95,1.46c1.3,1,2.66,1.88,3.79,2.92a70,70,0,0,1,6.06,5.83l2.43,2.67c.76.84,1.32,1.74,1.93,2.52,1.14,1.61,2.29,2.86,2.93,4.06l1.33,2.19a1.66,1.66,0,0,0,2.24.58h0a1.66,1.66,0,0,0,.61-2.3Z" style="fill:#1c77c3"/></g><path d="M33.68,137.43a3.73,3.73,0,0,1,3.71-3.37,4.88,4.88,0,0,1,3.69,2.52,10.68,10.68,0,0,1,1.51,7.75A5.17,5.17,0,0,0,39,140.62c-1.45-.36-3.15.3-4.37-.56A2.78,2.78,0,0,1,33.68,137.43Z" style="fill:#cce4f2;mix-blend-mode:multiply"/><path d="M171.86,73.41a3.63,3.63,0,0,0,4.55-1.72,4.75,4.75,0,0,0-.55-4.3,10.33,10.33,0,0,0-6-4.72,5,5,0,0,1,1.64,4.72c-.33,1.41-1.65,2.59-1.44,4A2.65,2.65,0,0,0,171.86,73.41Z" style="fill:#77addb;mix-blend-mode:multiply"/><path d="M166.73,109.53c-4.36,12.87-12.47,36.82-57.65-5.39-21.64-20.22-28.92-27-44.73-19.23-11,5.44-25,24.46-9.16,45.82A63.8,63.8,0,0,0,65.85,141.9a58.59,58.59,0,0,0,5.09,3.75c3.2,2,3.2,2,4.89,2.94l1.72.89.08,0a12.27,12.27,0,0,1,7.22,11.08v11.69H125V161.34a12.17,12.17,0,0,1,7.36-11.28,61.19,61.19,0,0,0,6.47-3.13c.34-.19.69-.4,1-.63a68.82,68.82,0,0,0,10.08-7.93A63.06,63.06,0,0,0,165.16,115c2-6.22,2.21-6.73,3.05-11.21l.56-3.86A50.5,50.5,0,0,1,166.73,109.53Z" style="fill:#fc0"/><g style="opacity:0.23"><path d="M64.49,200s-.44-.15-1.27-.48l-3.69-1.46c-1.6-.69-3.66-1.32-5.9-2.48l-7.6-3.9-.2-.12c-2.69-1.7-5.68-3.57-8.84-5.71l-.17-.11-4.72-3.71-2.53-2c-.82-.72-1.6-1.51-2.43-2.28l-5-4.74-.16-.18-4.78-5.5c-.39-.42-.76-.85-1.13-1.3a2.6,2.6,0,0,0-3.7-.38h0a2.59,2.59,0,0,0-.36,3.61c.38.48.78.94,1.19,1.38l5,5.78a1.37,1.37,0,0,0,.17.17l5.21,5c.86.8,1.69,1.63,2.55,2.38l2.65,2.1,5,3.89.15.11c3.33,2.25,6.47,4.21,9.3,6l.19.11,8,4.1c2.36,1.21,4.52,1.89,6.19,2.61l3.88,1.52c.88.36,1.34.5,1.34.5Z" style="fill:#a4c9e7"/><path d="M62.78,20.14c.95-.51,1.91-1,2.88-1.48a3.31,3.31,0,0,0,1.48-4.52h0a3.32,3.32,0,0,0-4.39-1.42c-1,.51-2.09,1-3.11,1.59A105.06,105.06,0,0,0,37.94,29.9a3.32,3.32,0,0,0-.21,4.67h0a3.29,3.29,0,0,0,4.69.21A98.21,98.21,0,0,1,62.78,20.14Z" style="fill:#cce4f2"/><path d="M31,165.41a100.76,100.76,0,0,0,11.89,11.73l.15.13,4.45,3.44,2.32,1.78a2.27,2.27,0,0,0,.25.18l2.58,1.63,5.68,3.55.22.13c2,1.09,4.21,2.12,6.43,3.23a107.5,107.5,0,0,0,32.4,9.47A104.93,104.93,0,0,0,214.91,91.84a103.13,103.13,0,0,0-13.52-47.07A108.72,108.72,0,0,0,187,25.11a3.34,3.34,0,0,0-4.65-.28h0a3.3,3.3,0,0,0-.27,4.71A101.55,101.55,0,0,1,195.63,48a96.34,96.34,0,0,1,12.66,44.08,98.23,98.23,0,0,1-110.12,102,100.81,100.81,0,0,1-30.36-8.88c-2.07-1-4.11-2-6-3l-.23-.13-5.3-3.32-2.41-1.52-.26-.18-2.15-1.66-4.16-3.22-.16-.14a93.26,93.26,0,0,1-11.13-11l-1.59-1.84a3.31,3.31,0,0,0-4.53-.45h0a3.3,3.3,0,0,0-.48,4.77Z" style="fill:#77addb"/><path d="M35.82,154.14a2.35,2.35,0,0,0,.49-3.19l-.86-1.23-2.56-3.66a59.13,59.13,0,0,1-3.05-5.2,90.9,90.9,0,0,1-11.07-35.49c-.1-.93-.24-1.87-.32-2.82,0-.06,0-.13,0-.2,0-1,0-1.92-.05-2.9,0-2-.12-4-.07-6.07a1,1,0,0,1,0-.17,99,99,0,0,1,1.43-12.77,47.9,47.9,0,0,1,1.4-6.6c.64-2.19,1.15-4.45,1.89-6.66l2.52-6.6s0-.1.05-.14a2.37,2.37,0,0,0-1.39-3.13l-1.81-.64A2.33,2.33,0,0,0,19.48,58v0l-2.7,7.08c-.8,2.37-1.35,4.78-2,7.13a52.22,52.22,0,0,0-1.5,7.08A104.79,104.79,0,0,0,11.71,93c0,.05,0,.1,0,.15-.06,2.21.06,4.39.07,6.53,0,1,0,2.08.06,3.11,0,.07,0,.13,0,.2.09,1,.23,2,.34,3a97.6,97.6,0,0,0,11.87,38.06c1.24,2.09,2.13,4.08,3.27,5.58s2,2.86,2.75,3.92l.87,1.25a2.34,2.34,0,0,0,3.36.5Z" style="fill:#1c77c3"/><path d="M80.21,183.19c1.66.73,3.87,1.12,6.37,1.87,1.27.32,2.6.8,4.08,1.06l4.71.81c3.3.75,7,.8,11.08,1.18,2,.15,4.14,0,6.33,0L116,188h.2l3.34-.38a88,88,0,0,0,30.16-8.46,94.11,94.11,0,0,0,29.48-22.43,90.42,90.42,0,0,0,19.35-36.39c8-27.77,1.11-61.49-19.68-84.48-2.38-3-5.35-5.53-8.1-8.21A44.53,44.53,0,0,0,166.32,24c-1.54-1.14-3-2.43-4.6-3.45-3.29-1.95-6.37-4.26-9.88-5.79l-5-2.48-.19-.08-5.22-2c-14.2-5.39-29.54-6.53-43.8-4.69-.72.09-1.43.19-2.14.31A2.1,2.1,0,0,0,93.72,8.2h0A2.1,2.1,0,0,0,96.11,10c.68-.11,1.37-.21,2.06-.3C111.77,8,126.41,9.05,140,14.2l5,1.89.19.08,4.79,2.37c3.35,1.45,6.28,3.67,9.43,5.51,1.55,1,2.91,2.21,4.38,3.3A42.9,42.9,0,0,1,168,30.81c2.62,2.57,5.46,4.92,7.72,7.84,19.84,22,26.45,54.09,18.78,80.6A86.1,86.1,0,0,1,176,154a89.66,89.66,0,0,1-28.13,21.4,83.84,83.84,0,0,1-28.77,8.07l-3.17.36-.21,0-3.09,0c-2.09,0-4.11.19-6,0-3.85-.37-7.43-.4-10.58-1.13L91.55,182c-1.41-.25-2.68-.71-3.89-1-2.39-.72-4.5-1.09-6.08-1.79l-3-1.15a2.09,2.09,0,0,0-2.69,1.17h0A2.09,2.09,0,0,0,77.06,182Z" style="fill:#1c77c3"/></g></g></g></svg>