<svg id="Layer_2" data-name="Layer 2" xmlns="http://www.w3.org/2000/svg" viewBox="0 0 200 200"><defs><style>.cls-1{fill:#fff;}.cls-2{fill:#fff;}</style></defs><title>kinderbetreuung</title><path class="cls-1" d="M74.87,38.49c-11,0-11-9.7-11-18.25S63.85,2,74.87,2a18.25,18.25,0,1,1,0,36.49ZM74.87,6c-6.42,0-7,3.91-7,14.24s.6,14.25,7,14.25A14.25,14.25,0,1,0,74.87,6Z"/><path class="cls-1" d="M98.94,33.07c-4.84,0-8.62-5.63-8.62-12.83S94.1,7.41,98.94,7.41s8.61,5.64,8.61,12.83S103.77,33.07,98.94,33.07Zm0-21.66c-2.19,0-4.62,3.63-4.62,8.83s2.43,8.83,4.62,8.83,4.61-3.62,4.61-8.83S101.12,11.41,98.94,11.41Z"/><path class="cls-1" d="M100.14,198.31a83.21,83.21,0,0,1-82-69.2,16.44,16.44,0,0,1,1-32.86,83.23,83.23,0,0,1,162.15.06c.44,0,.89-.06,1.34-.06a16.44,16.44,0,0,1,0,32.88h-.38a83.23,83.23,0,0,1-82,69.18ZM21.52,125l.27,1.85c5.69,38.49,39.37,67.51,78.35,67.51s72.73-29.07,78.37-67.63l.3-2,2,.32a10.74,10.74,0,0,0,1.75.13,12.44,12.44,0,0,0,0-24.88,12.12,12.12,0,0,0-2.5.25l-1.95.4-.41-2a79.23,79.23,0,0,0-155.09-.18l-.38,1.81-1.83-.24a11.88,11.88,0,0,0-1.48-.09,12.44,12.44,0,0,0,0,24.88c.25,0,.49,0,.73,0Z"/><path class="cls-1" d="M100.15,168.14a39.33,39.33,0,0,1-37.42-27.89,2,2,0,1,1,3.83-1.16,35,35,0,0,0,67.16,0,2,2,0,1,1,3.83,1.16,39.05,39.05,0,0,1-36.78,27.89Z"/><path class="cls-1" d="M57.42,106.87a2,2,0,0,1-2-1.77,15.18,15.18,0,0,1,3.75-11.9,13.78,13.78,0,0,1,10.28-4.77c7.21,0,13.5,6.26,14,13.9a2,2,0,0,1-4,.27c-.38-5.59-4.89-10.15-10-10.17a9.9,9.9,0,0,0-7.28,3.44,11.22,11.22,0,0,0-2.76,8.77,2,2,0,0,1-1.75,2.22Z"/><path class="cls-1" d="M118.79,108.07a2,2,0,0,1-2-1.76,15.2,15.2,0,0,1,3.75-11.9,13.82,13.82,0,0,1,10.23-4.78h.05c7.21,0,13.5,6.27,14,13.9a2,2,0,1,1-4,.27c-.38-5.58-4.89-10.14-10.05-10.17h0a9.82,9.82,0,0,0-7.24,3.44,11.19,11.19,0,0,0-2.76,8.77,2,2,0,0,1-1.76,2.22Z"/><path class="cls-1" d="M93.36,34.18a14.78,14.78,0,0,1,12.2,4.39,15.42,15.42,0,0,1,4.2,13A13.35,13.35,0,0,1,100.36,62a12.21,12.21,0,0,1-3.71.55,10.86,10.86,0,0,1-3.82-.66,11.18,11.18,0,0,1-7.3-8.51,12.51,12.51,0,0,1-.2-1.94,9.86,9.86,0,0,1,.18-2,9.47,9.47,0,0,1,4.61-6.37A9.31,9.31,0,0,1,94,41.94a7.91,7.91,0,0,1,4,.71,7.74,7.74,0,0,1,3.12,2.66,7.62,7.62,0,0,1,1.26,3.85,6.32,6.32,0,0,1-1.1,4A6.14,6.14,0,0,1,98,55.55a6.35,6.35,0,0,1-2,.24,5.11,5.11,0,0,1-2-.54,4.89,4.89,0,0,1-2.52-3.11,4.74,4.74,0,0,1-.07-2,4,4,0,0,1,.9-1.82,3.7,3.7,0,0,1,3.59-1.18A2.91,2.91,0,0,1,98,49.89a2.13,2.13,0,0,1-2.22,2.18,1.85,1.85,0,0,0,1.62-2.13,2,2,0,0,0-1.8-1.73,2.46,2.46,0,0,0-2.17,1.06,2.4,2.4,0,0,0-.16,2.28,2.75,2.75,0,0,0,1.61,1.61,2.59,2.59,0,0,0,1.1.17,3.56,3.56,0,0,0,1.15-.26,3.66,3.66,0,0,0,1.71-1.49,3.36,3.36,0,0,0,.41-2.18,4.48,4.48,0,0,0-2.71-3.55,4.2,4.2,0,0,0-2.26-.28,5.64,5.64,0,0,0-2.28.79,5.79,5.79,0,0,0-2.67,3.84,6.07,6.07,0,0,0-.09,1.2,9.16,9.16,0,0,0,.15,1.27A8,8,0,0,0,90.33,55a7.56,7.56,0,0,0,3.84,3.23,6.9,6.9,0,0,0,2.51.47,10.14,10.14,0,0,0,7.35-3,10.64,10.64,0,0,0,2.68-4.79,12.58,12.58,0,0,0-.07-5.72,13.71,13.71,0,0,0-2.55-5.35A15,15,0,0,0,93.36,34.18Z"/><path class="cls-1" d="M121.8,38.49A18.25,18.25,0,1,1,121.8,2c11,0,11,9.69,11,18.24S132.82,38.49,121.8,38.49ZM121.8,6a14.25,14.25,0,1,0,0,28.49c6.42,0,7-3.91,7-14.25S128.22,6,121.8,6Z"/><circle class="cls-2" cx="126.67" cy="153.74" r="12.62"/><path class="cls-1" d="M126.67,167.87a14.13,14.13,0,1,1,5.57-1.15A14.25,14.25,0,0,1,126.67,167.87Zm0-25.25a11.12,11.12,0,1,0,10.22,6.73h0a11.1,11.1,0,0,0-10.22-6.73Z"/><path class="cls-1" d="M127.06,175.75a10.16,10.16,0,0,1-6.09-1.61,4.32,4.32,0,0,1-1.74-4.15c.2-1.44,1.3-3.25,2.46-5.18.87-1.44,2.06-3.42,2.12-4.24a5.69,5.69,0,0,0-1.14-3.33c-.64-1.08-1.38-2.3-.92-3.72.38-1.18,1.47-2.1,3.54-3s3.49-1,4.6-.51c1.34.65,1.72,2,2.06,3.23a5.71,5.71,0,0,0,1.63,3.12c.64.53,2.9,1,4.54,1.38,2.2.49,4.27.94,5.45,1.79a4.31,4.31,0,0,1,1.81,4.12c-.44,4-5.43,8.42-10,10.38h0A22.13,22.13,0,0,1,127.06,175.75Zm1.4-23a5.54,5.54,0,0,0-2,.58c-1.66.71-1.87,1.15-1.87,1.15a5.58,5.58,0,0,0,.65,1.25,8.46,8.46,0,0,1,1.55,5.07c-.1,1.56-1.29,3.52-2.55,5.6a16.83,16.83,0,0,0-2,4,1.3,1.3,0,0,0,.57,1.35c2,1.51,7.32,1.29,11.42-.47s7.93-5.47,8.2-7.95a1.3,1.3,0,0,0-.59-1.35,16.39,16.39,0,0,0-4.33-1.29c-2.37-.53-4.62-1-5.81-2a8.33,8.33,0,0,1-2.61-4.62,4.83,4.83,0,0,0-.49-1.34h-.11Z"/></svg>