<svg xmlns="http://www.w3.org/2000/svg" xmlns:xlink="http://www.w3.org/1999/xlink" viewBox="0 0 175 175"><defs><clipPath id="a"><rect width="175" height="175" style="fill:none"/></clipPath></defs><g style="isolation:isolate"><g style="clip-path:url(#a)"><path d="M115.31,114,114,112.71c1.6-1.65,2.11-3.21,1.51-4.65-1.73-4.1-11.72-7.18-23.24-7.18-13.14,0-26.23,3-26.94,6.26-.27,1.26,1.68,2.94,5.36,4.63L70,113.39c-4.77-2.19-6.85-4.36-6.35-6.63,1.15-5.29,17.46-7.66,28.67-7.66,12.6,0,22.83,3.4,24.88,8.27C117.81,108.85,118,111.2,115.31,114Z" style="fill:#e23b50"/><path d="M133.28,137.93c.69-.49,1.37-1,2-1.53h-2.41C133,136.89,133.16,137.41,133.28,137.93Z" style="fill:none"/><path d="M59.4,97.93a.25.25,0,0,1,0-.09C59.52,98,59.56,98.09,59.4,97.93Z" style="fill:none"/><path d="M72.79,113.19a13,13,0,0,0,3-2.52c-2.43.28-4.05.55-4.78.69l.28,0C71.66,111.85,72.18,112.49,72.79,113.19Z" style="fill:#341f1e"/><path d="M109.4,113.33c.63-.63,1.25-1.29,1.88-2l.44.08.08-.08c-1.84-.25-3.62-.45-5.37-.62A15.41,15.41,0,0,0,109.4,113.33Z" style="fill:#341f1e"/><path d="M49,136.4c-.07.29-.15.58-.22.87q2.52,1.86,5.22,3.5c0-1.38,0-2.83,0-4.37Z" style="fill:#e9bbb1"/><path d="M78.65,105.8c0-.24.09-.49.15-.77a15.75,15.75,0,0,1-3,5.64c2.29-.26,5.26-.52,8.88-.67A12.22,12.22,0,0,1,78.65,105.8Z" style="fill:#e9bbb1"/><path d="M72.79,113.19c3.35,3.84,9.71,9.49,18.06,9.46V111.31A21.85,21.85,0,0,1,84.64,110c-3.62.15-6.59.41-8.88.67A13,13,0,0,1,72.79,113.19Z" style="fill:#e9bbb1"/><path d="M98.5,110.1c2.51.13,5.16.34,7.93.62a16.76,16.76,0,0,1-3-5.23l.15.57A11.88,11.88,0,0,1,98.5,110.1Z" style="fill:#f0c6bd"/><path d="M128.48,136.4c0,1.65,0,3.2,0,4.67,1.66-1,3.28-2,4.84-3.14-.12-.52-.24-1-.37-1.53Z" style="fill:#f0c6bd"/><path d="M90.85,111.31v11.34c5.44,0,11.71-2.44,18.55-9.32a15.41,15.41,0,0,1-3-2.61c-2.77-.28-5.42-.49-7.93-.62A16.83,16.83,0,0,1,90.85,111.31Z" style="fill:#f0c6bd"/><path d="M103.44,105.49l-.15-.52-.06,0C103.3,105.17,103.37,105.32,103.44,105.49Z" style="fill:#c49c80;opacity:0.7000000000000001"/><path d="M78.85,104.78c0,.09,0,.17,0,.25,0-.08,0-.16.07-.24Z" style="fill:#c49c80;opacity:0.7000000000000001"/><path d="M84.64,110c1.9-.08,4-.12,6.21-.11v-2.1a46.39,46.39,0,0,1-12-3c0,.08,0,.16-.07.24-.06.28-.11.53-.15.77A12.22,12.22,0,0,0,84.64,110Z" style="fill:#e9bbb1"/><path d="M84.64,110c1.9-.08,4-.12,6.21-.11v-2.1a46.39,46.39,0,0,1-12-3c0,.08,0,.16-.07.24-.06.28-.11.53-.15.77A12.22,12.22,0,0,0,84.64,110Z" style="fill:#c49c80;opacity:0.7000000000000001"/><path d="M84.64,110a21.85,21.85,0,0,0,6.21,1.31v-1.42C88.62,109.88,86.54,109.92,84.64,110Z" style="fill:#e9bbb1"/><path d="M84.64,110a21.85,21.85,0,0,0,6.21,1.31v-1.42C88.62,109.88,86.54,109.92,84.64,110Z" style="fill:#c49c80;opacity:0.7000000000000001"/><path d="M92.43,107.83a3.37,3.37,0,0,1-.89,0c-.2,0-.46,0-.69,0v2.1c2.38,0,4.93.07,7.65.21a11.88,11.88,0,0,0,5.09-4l-.15-.57c-.07-.17-.14-.32-.21-.5A55.69,55.69,0,0,1,92.43,107.83Z" style="fill:#f0c6bd"/><path d="M92.43,107.83a3.37,3.37,0,0,1-.89,0c-.2,0-.46,0-.69,0v2.1c2.38,0,4.93.07,7.65.21a11.88,11.88,0,0,0,5.09-4l-.15-.57c-.07-.17-.14-.32-.21-.5A55.69,55.69,0,0,1,92.43,107.83Z" style="fill:#c49c80;opacity:0.7000000000000001"/><path d="M98.5,110.1c-2.72-.14-5.27-.2-7.65-.21v1.42A16.83,16.83,0,0,0,98.5,110.1Z" style="fill:#f0c6bd"/><path d="M98.5,110.1c-2.72-.14-5.27-.2-7.65-.21v1.42A16.83,16.83,0,0,0,98.5,110.1Z" style="fill:#c49c80;opacity:0.7000000000000001"/><path d="M85.47,100.43l.68.06-.09-.06Z" style="fill:#f0c6bd"/><path d="M102.27,99.43l-.32.06a32.22,32.22,0,0,0,1.28,5.5l.06,0,0-.06C102.56,100.65,102.47,101,102.27,99.43Z" style="fill:#f0c6bd"/><path d="M80,99.6l-.39-.07a52.31,52.31,0,0,1-.74,5.25h0A32.26,32.26,0,0,0,80,99.6Z" style="fill:#f0c6bd"/><path d="M72.27,113.53l.52-.34c-.61-.7-1.13-1.34-1.53-1.87l-.28,0-.48.09Z" style="fill:#0e3c62"/><path d="M109.4,113.33l.31.21,2-2.12-.44-.08C110.65,112,110,112.7,109.4,113.33Z" style="fill:#0e3c62"/><path d="M111.72,111.42l-2,2.12-.31-.21c-6.84,6.88-13.11,9.3-18.55,9.32-8.35,0-14.71-5.62-18.06-9.46-.18.11-.34.24-.52.34l-1.77-2.08.48-.09c-7.91.71-21.15,9.87-25,23.8.54.44,1.12.82,1.67,1.24H54c0,1.54,0,3,0,4.37a71.7,71.7,0,0,0,36.85,10.55c.21,0,.41,0,.62,0a71.62,71.62,0,0,0,37-10.28c0-1.47,0-3,0-4.67h6.84l.2-.14A29.84,29.84,0,0,0,111.72,111.42Z" style="fill:#04b8b5"/><path d="M59.36,97.84a.25.25,0,0,0,0,.09C59.56,98.09,59.52,98,59.36,97.84Z" style="fill:#f6a71c"/><circle cx="72.22" cy="99.18" r="0.57" style="fill:#e9bbb1"/><circle cx="75" cy="99.18" r="0.57" style="fill:#e9bbb1"/><circle cx="73.61" cy="101.59" r="0.57" style="fill:#e9bbb1"/><circle cx="76.39" cy="101.59" r="0.57" style="fill:#e9bbb1"/><circle cx="77.77" cy="99.18" r="0.57" style="fill:#e9bbb1"/><circle cx="107.42" cy="98.54" r="0.57" style="fill:#e9bbb1"/><circle cx="110.2" cy="98.54" r="0.57" style="fill:#e9bbb1"/><circle cx="108.81" cy="100.95" r="0.57" style="fill:#e9bbb1"/><circle cx="111.59" cy="100.95" r="0.57" style="fill:#e9bbb1"/><circle cx="112.97" cy="98.54" r="0.57" style="fill:#e9bbb1"/><path d="M100.81,148.65H86.56A15.63,15.63,0,0,1,70.92,133L68.58,111.7l47.65.32-1.56,22.77A13.86,13.86,0,0,1,100.81,148.65Z" style="fill:#fff;stroke:#e11e19;stroke-miterlimit:10"/><path d="M120.62,101.84c.35-.1,5.26-2.07,6.92-3.46,10.34-10.58,2.06-19.44-4.83-12.77-4.11-3-5.42-10.84-4.11-19.44-1.18,7-13.17-5.37-18.87-7.73-4.36,1.61-10.57,4.74-16.18,4.26-8-.72-12,17.51-12.36,16C66,86.12,66.84,85.81,68,77.18c-.08.08,1.24-15.86-3-5.33l-7.48,9.54C54,79.63,49,82,49.41,88.6c.42,6.75,9.6,11.15,12.38,11.92L61,97.2a35.22,35.22,0,0,0,3.53,10c3.52,3.58,9.6,9.77,17.94,10.32,2.94,1.12,9.67,4.5,18.93-.34,0,0,17.92-1.86,19.23-15.39m-63.2-5.23A25.39,25.39,0,0,1,53.17,93c-1.7-2-2.45-5.81-1-8a3.94,3.94,0,0,1,6-1,3.41,3.41,0,0,1,.9,3.8c-.3,1.08-1.46,1.15-1.21,2.82a2.93,2.93,0,0,0,1.62,2.45,4.77,4.77,0,0,1,1.2,1.31h0a0,0,0,0,1,0,0,4.26,4.26,0,0,1,.15,2.2c0,.15.07.31.1.47C60.53,98.26,58.68,97.22,57.42,96.61ZM96.48,112l-.17.07-.63.31-9.36-.27-.45-.29-.1,0-4.4-2.7,9.25.62,10-.07Z" style="fill:#f0c6bd"/><path d="M132.26,91.82h0v0A.07.07,0,0,1,132.26,91.82Z" style="fill:#f0c6bd"/><path d="M112.53,60.07c-.23,5.95-2.9,9.58-6.91,11.68C109.22,70.36,114.27,66.42,112.53,60.07Z" style="fill:#f0c6bd"/><path d="M121.34,95.5a1.91,1.91,0,0,0-.49.64,4.23,4.23,0,0,0-.27,2.33c.15.77.87.77,1.7.54.4-1.48.81-3,1.27-4.75C122.8,94.72,122.06,95.13,121.34,95.5Z" style="fill:#e9bbb1"/><path d="M94.19,103.61c-.15-.12-1.88.29-2.5.26,0,0,0,0,0,0-.74-.07-3-1-3,.39,0,.86,2.48,1.81,2.86,1.82h.08C93.07,106.06,95.2,104.47,94.19,103.61Z" style="fill:#d09289"/><path d="M60.7,94.42c0-.11-.12-.16-.17-.25.08.79.18,1.6.33,2.43A4.22,4.22,0,0,0,60.7,94.42Z" style="fill:#e9bbb1"/><path d="M77.37,72.21c-1.15.81-7,3.26-6.18,6.45A30.31,30.31,0,0,1,77.37,72.21Z" style="fill:#f6a71c"/><path d="M102.57,72.2a9,9,0,0,0,1.06.43,16.22,16.22,0,0,0,2-.88A4.73,4.73,0,0,1,102.57,72.2Z" style="fill:#f6a71c"/><path d="M128.63,95c1.81-1.91,2.77-5.66,1.48-7.91a3.94,3.94,0,0,0-6-1.37A3.41,3.41,0,0,0,123,89.41c.24,1.1,1.39,1.23,1,2.89a3,3,0,0,1-1.75,2.35,8.38,8.38,0,0,0-1,.85c.72-.37,1.46-.78,2.21-1.24-.46,1.72-.87,3.27-1.27,4.75a17.82,17.82,0,0,0,1.9-.73A25.68,25.68,0,0,0,128.63,95Z" style="fill:#e9bbb1"/><path d="M55.6,61.9a31.92,31.92,0,0,0-2.37,9.51A7.71,7.71,0,0,0,55.49,69,49.24,49.24,0,0,1,55.6,61.9Z" style="fill:#c08759"/><path d="M52.37,54.94a1.7,1.7,0,0,0-.24.91C52.18,55.54,52.3,55.24,52.37,54.94Z" style="fill:#f6a71c"/><path d="M52.37,54.94a1.7,1.7,0,0,0-.24.91C52.18,55.54,52.3,55.24,52.37,54.94Z" style="fill:#fff;opacity:0.49;mix-blend-mode:screen"/><path d="M52.37,54.94a4.7,4.7,0,0,1,1.49-1.52c1.41-1,2.87-1.92,4.36-2.8a32.91,32.91,0,0,1,4.4-7.78,33.14,33.14,0,0,0-4.85,3.48A16.61,16.61,0,0,0,52.37,54.94Z" style="fill:#c08759"/><path d="M65.14,87.59c1.69-2.33,3.65-2,5.84-5.12,4.79-5.74,5.24-9.45,6.39-10.26-2.56,2,1.89,7.73,5,9.51,1.4.79,15.39,3.6,10.93-5.75,1.49,3.11-13.31,4.55-4.71-4.24,4.44-4.53,10.65,2.51,15,.9a9,9,0,0,1-1.06-.43,4.73,4.73,0,0,0,3.05-.45c4-2.1,6.68-5.73,6.91-11.68,1.74,6.35-3.31,10.29-6.91,11.68a17.89,17.89,0,0,1-2,.88c5.68,2.35,13.8.56,15-6.46C116,82,123.27,90.51,123,89.41a3.41,3.41,0,0,1,1.11-3.74c.81-.7,6.43-4.47.59-2.51,16.56-53.6-41.27-67.58-62.11-40.32a32.91,32.91,0,0,0-4.4,7.78c1.57-.94,3.17-1.83,4.81-2.64q-2.46,1.23-4.81,2.64A38.87,38.87,0,0,0,55.6,61.9h0A49.36,49.36,0,0,0,55.49,69a64.3,64.3,0,0,0,2,12.17" style="fill:#c08759"/><path d="M79.5,57.87h0a2.83,2.83,0,0,0,.27-2.61c-.3-.87-3.63-4.55-3.92-5.41-1-3.07-3.85-5.84-5.53-7.93C71.45,45.17,75,53.42,78,56.2,78.56,56.72,78.8,57.56,79.5,57.87Z" style="fill:#ad7949"/><path d="M60,93.3a3.13,3.13,0,0,1-1.74-2.63c-.27-1.81,1-1.87,1.3-3a3.66,3.66,0,0,0-1-4.08,4.24,4.24,0,0,0-6.5,1.1c-1.53,2.34-.73,6.44,1.1,8.6a28,28,0,0,0,4.58,3.86c1.39.68,3.49,1.86,3.87.42,0,0,0-.12,0-.18-.16-.9-.27-1.77-.35-2.62A5.27,5.27,0,0,0,60,93.3Z" style="fill:#e9bbb1"/><path d="M93,105.12a8.61,8.61,0,0,1-4.9,1.6c-3.2,0-6.55.64-5.33,4.19,1.32,3.83,4.64,9.44,11.73,7.13s6.46-8.8,5.27-12.67C98.66,101.78,95.6,103.27,93,105.12Zm-6.87,6.18a1,1,0,1,1,.62-1.22A1,1,0,0,1,86.13,111.3Zm11.34-3.69a1,1,0,1,1,.63-1.23A1,1,0,0,1,97.47,107.61Z" style="fill:#fff"/><path d="M97.56,112.59a1,1,0,0,0-.11-.17,7.91,7.91,0,0,0-1.38-1.58l-1.39.45a5.61,5.61,0,0,1,1.72,1.47,5.26,5.26,0,0,1,.43.59A7.74,7.74,0,0,1,98,118.89,3.48,3.48,0,0,1,95,122,4.69,4.69,0,0,1,91,119.46a7.88,7.88,0,0,1-1.24-4.53,6.8,6.8,0,0,1,.13-1,4.55,4.55,0,0,1,.4-1.18l-1.39.45,0,.11a8.59,8.59,0,0,0-.16,2,9.92,9.92,0,0,0,1.56,4.94c1.33,2.07,3.26,3.26,5.06,3.11s3.2-1.6,3.67-3.81A9.62,9.62,0,0,0,97.56,112.59Z" style="fill:#f22739"/><ellipse cx="92.31" cy="111.7" rx="3.85" ry="2.53" transform="translate(-30.06 34.1) rotate(-18.05)" style="fill:#e23b50"/><rect x="86.15" y="137.93" width="13.98" height="3.15" rx="0.88" style="fill:#e11e19"/></g></g></svg>