<svg xmlns="http://www.w3.org/2000/svg" xmlns:xlink="http://www.w3.org/1999/xlink" viewBox="0 0 175 175"><defs><clipPath id="a"><rect width="175" height="175" style="fill:none"/></clipPath></defs><g style="clip-path:url(#a)"><polygon points="74.81 130.83 47.95 95.91 37.11 95.91 63.97 130.83 74.81 130.83" style="fill:#fc0"/><polygon points="158.05 47.72 158.06 63.49 147.59 63.49 137.13 63.49 158.05 47.72" style="fill:#f6a71c"/><polygon points="74.82 131.05 106.46 81.73 95.62 81.73 63.98 131.05 74.82 131.05" style="fill:#f6a71c"/><polygon points="128.28 112.32 106.02 81.73 95.18 81.73 117.44 112.32 128.28 112.32" style="fill:#fc0"/><polygon points="127.94 112.32 157.14 59.08 146.3 59.08 117.1 112.32 127.94 112.32" style="fill:#f6a71c"/><rect x="50.7" y="145.45" width="58.79" height="2.11" style="fill:#e9f5ff"/><rect x="90.3" y="125.25" width="24.59" height="1.05" style="fill:#e9f5ff"/><rect x="10.09" y="131.61" width="78.71" height="1.05" style="fill:#e9f5ff"/><rect x="6.32" y="137.71" width="134.3" height="1.05" style="fill:#e9f5ff"/><polygon points="29.36 130.77 47.95 95.54 37.11 95.54 18.52 130.77 29.36 130.77" style="fill:#f6a71c"/></g></svg>