<svg id="Layer_2" data-name="Layer 2" xmlns="http://www.w3.org/2000/svg" viewBox="0 0 200 200"><defs><style>.cls-1{fill:#fff;}</style></defs><title>obst-und-kaffee</title><path class="cls-1" d="M166.63,101.57a5.93,5.93,0,0,1-1.36-.16A7.45,7.45,0,0,1,159.65,95c-.1-1.46.24-5.08,5.53-7.12,8.82-3.4,16,2.81,18.5,6.57a2,2,0,0,1-1.8,3.11c-2-.13-5.45-.14-6.68.28a14.63,14.63,0,0,0-2.86,1.53C170.66,100.4,168.79,101.57,166.63,101.57Zm3.73-10.71a10.32,10.32,0,0,0-3.74.73c-1.16.44-3.09,1.44-3,3.11a3.48,3.48,0,0,0,2.54,2.82c1.12.26,2.47-.59,4-1.57A17.86,17.86,0,0,1,173.92,94a13.47,13.47,0,0,1,3.39-.53A11.3,11.3,0,0,0,170.36,90.86Z"/><path class="cls-1" d="M139.33,192.53a38.36,38.36,0,0,1-12.65-2.16c-7.19-2.52-11.17-5.16-15.23-10.1a2,2,0,0,1,3.1-2.54c3.57,4.36,7,6.59,13.45,8.86,16.3,5.7,33.72-1.54,38.83-16.14,3.5-10,2.24-16.2-4.81-23.7a2,2,0,0,1-.5-1.82l5.22-22.51a1.61,1.61,0,0,1,.09-.29,19.08,19.08,0,0,0,.66-9.06c-.46-2.85-1.5-5-2.83-5.89-1.94.64-4.73,1.33-6.39.68s-3.36-2.85-4.32-4.22c-3.94-.87-10.8,4.22-12.49,8.53a1.91,1.91,0,0,1-.15.28L129.72,132a2,2,0,0,1-1.56,1c-5.6.45-7,1.11-9.88,3.55a2,2,0,0,1-2.56-3.08c3.56-3,5.77-3.87,11.08-4.36l11-18.56a20,20,0,0,1,7.32-8.24c4-2.62,7.82-3.41,10.83-2.23a2.08,2.08,0,0,1,.94.77,13.39,13.39,0,0,0,2.85,3.3,14.68,14.68,0,0,0,4.39-1,2,2,0,0,1,1.42,0c3,1.19,5.11,4.49,5.89,9.3a22.75,22.75,0,0,1-.84,11l-4.94,21.35c7.44,8.28,8.81,15.93,5,27C166.11,184.63,153.36,192.53,139.33,192.53Z"/><path class="cls-1" d="M100.73,196H57.55c-7.57,0-13.73-6.93-13.78-15.48L34.09,91.16a2,2,0,0,1,2-2.22h84.51a2,2,0,0,1,1.48.65,2,2,0,0,1,.51,1.53l-8.07,89.38C114.47,189.06,108.3,196,100.73,196ZM38.31,92.94l9.45,87.25a1.7,1.7,0,0,1,0,.22c0,6.39,4.39,11.59,9.78,11.59h43.18c5.39,0,9.78-5.2,9.78-11.59a1.09,1.09,0,0,1,0-.18l7.88-87.29Z"/><path class="cls-1" d="M122.34,72.55H34a2,2,0,0,1-2-2C32.08,42.41,46.08,26.22,71.42,25c.85-.05,1.75-.07,2.68-.08,17.48-.15,30.66,4.09,39.18,12.65,11.35,11.4,11.14,27.13,11.06,33A2,2,0,0,1,122.34,72.55ZM36,68.55h84.34c0-6.45-.8-19.06-9.92-28.21-7.73-7.77-19.94-11.63-36.3-11.47-.85,0-1.69,0-2.5.08C43.35,30.36,36.54,50.81,36,68.55Z"/><path class="cls-1" d="M129.09,92.94H28.36a6,6,0,0,1-6-6V74.55a6,6,0,0,1,6-6H129.09a6,6,0,0,1,6,6V86.94A6,6,0,0,1,129.09,92.94ZM28.36,72.55a2,2,0,0,0-2,2V86.94a2,2,0,0,0,2,2H129.09a2,2,0,0,0,2-2V74.55a2,2,0,0,0-2-2Z"/><path class="cls-1" d="M77.59,71.42a2,2,0,0,1-2-1.72L66.8,8H41.35a2,2,0,0,1,0-4H68.53a2,2,0,0,1,2,1.72l9.06,63.42a2,2,0,0,1-1.69,2.26A1.42,1.42,0,0,1,77.59,71.42Z"/><path class="cls-1" d="M78.16,160.89c-8.91,0-16.16-9.53-16.16-21.25s7.25-21.25,16.16-21.25,16.16,9.53,16.16,21.25S87.07,160.89,78.16,160.89Zm0-38.5c-6.7,0-12.16,7.74-12.16,17.25s5.46,17.25,12.16,17.25,12.16-7.74,12.16-17.25S84.86,122.39,78.16,122.39Z"/><path class="cls-1" d="M76.08,160.89a2,2,0,0,1-.19-4c.59-.38,2.18-2.61,3-6.28.4-1.87,1-6.58-1.63-9.68-7.58-8.83-1.66-20.94-1.41-21.45a2,2,0,0,1,3.58,1.79h0c0,.1-5,10.25.86,17.06,4.11,4.79,3.48,12.31,1,17.64C80.43,157.81,78.63,160.89,76.08,160.89Zm-.25-3.95Z"/><path class="cls-1" d="M118.36,106.53H38a2,2,0,0,1,0-4h80.41a2,2,0,0,1,0,4Z"/><path class="cls-1" d="M112.7,174.48H44.75a2,2,0,0,1,0-4h68a2,2,0,1,1,0,4Z"/></svg>