<svg xmlns="http://www.w3.org/2000/svg" viewBox="0 0 312.39 507.48"><rect width="312.39" height="507.48" style="fill:#edf5fa"/><polygon points="305.77 99.36 282.19 319.36 12.77 434.32 36.35 214.33 305.77 99.36" style="fill:#d6e6f2"/><path d="M165.79,212.74c.16-3.15,3.17-21.5,5.07-26.87,1.49-7.61,8.94-28.08,3.42-28.91,10.81-10.83,5.36-22,26.34-21.22,1.16-5.58,3.57-23.12,1.35-30.33,2.22-8.06,5.48-21.77,11.07-28.68,5.3-5.29,27.64-7.08,33.3-.43,3,5.91,7.78,18.33,8.63,25.72s6.33,27.37,12.22,34.67c13.73,17.05,13.2,45.62,17.93,64.78,5.25,13.78,5.16,15.62,3.55,28.47.44,4-2.3,5.67-1.89,8.84s-2.31,4.62-1.66,6.52-4.43-5.89-3.61-2.74c.19.71-.31.08-1.18-1.31-1.7,4.92-7.46,28.73-8.52,34.87-2,7.12-12.54,10.1-13.9,17.46-1.87,4.2-5.47,22.95-6.94,32.22-2.59,19.58-.59,32.31-4,44.83,4.42,6.16,18.06,20,18.93,22.06,21.2-11.34,14.35,12.24,14,24.88,1.74,7.31,5.35,17.37-1.18,23.79-8.4,12.13-11.42-4-12.2-10.12-.46-1.05.72-3.67.2-4.43-2.22-1.62-8.21-9-9-10.84,1.74-4.24-4.59-7-7.8-10.11-2.41-3.09-4.17-6.58-8.39-10-2.13,7.51-2.45,13.48-3.61,19.07-4,10.94-4.07,21.49-2.29,32.88.45,7.73-19.95,14.39-22.78,6.08-2.57-5.12,2-13.05,3.27-17.26.52-2.86,1.5-9.22,2.21-10.95,1.25-13.59,7.51-31.39,6.56-47.34-8.48-9.09-17.31-18.63-20.89-22.62-9.78-11.79-10.33-50-13.23-70.53-5.86.11-10.67,1.94-12.14-3.7-.81-1.55-4.89-6-6.33-8.84C168.53,255.62,166,230.21,165.79,212.74Zm102,26.2-.08.21h.07Zm-1.06-18.7c-.78,2.52-1.14,16.21-1.3,19.08h.07Zm-27.7-76.17,1.28-.26-.18-.3C239.85,143.68,239.48,143.87,239.06,144.07ZM223.14,337a30.66,30.66,0,0,0,3.09,6.51c.68-4.42-.69-47.48-.74-53.06C224.22,302,221.73,323.57,223.14,337ZM179.52,211c-.71,10.44-4.16,50.5,9.59,56.2.1-14.14,2-22,.86-35,0-3,3.46-13.59,3.46-13.59V195.67c0-2-1.3-19.33-1.75-25.23-3-2.27-10.08-8.17-13.15-10.2l13.15,10.2S181,204.55,179.52,211Z" style="fill:#c1cedd"/><path d="M96.91,386.09c2.06-6,5.06-8.71,6-15.59s6.19-29.2,7.35-40.47,4.38-35.82,4.38-35.82v-7.87l9.34-.73s-.07-46.11-.54-66.32c-.22-9.39-.75-20-1.58-30,.91-9,3-30.64,2.81-37.66a39.85,39.85,0,0,0-7.51-15.46c-5.58-6.69-16.35-10.11-17-10.3l-2.77-2a22.55,22.55,0,0,1,0-2.84,17.19,17.19,0,0,1,1.17-3.09c5.76-.26,8.67-12.48,8.67-22a38.11,38.11,0,0,0-.8-8c1,.58,6.74-6.12.8-13.42-.74-.89-5.63-3-16-4.21s-17.15,4.94-18.69,7.24-5.8,11.72-5.11,20,1.86,10.84,3.63,11.39h0a9.64,9.64,0,0,1,.36,3.16,8.12,8.12,0,0,1-1.66,2.35v0l0,0-.69,4.56c-.29-1.27-.45-2-.45-2s-2.91,1.27-6.88,3h0c-3.92,1.66-8.86,3.71-13.08,5.31-8.5,3.23-20.23,11-20.23,11s-10.71,24.3-13.49,42a133.2,133.2,0,0,0,2.47,55.43c5.16,20.13,17.18,36.13,17.18,36.13v-.19c.63,6.67.93,13.49.93,13.49a68.81,68.81,0,0,0,9.21,6.4L44.51,296s-.69,28.95,0,38.37-.36,23.43-1.45,36.77-3.15,35.61-3.6,44.55-.91,23.92,0,26.9c.37,1.22,1.76,1.55,3.57,1.48-.71,2.69-3.05,12.27-1.35,14.77,2,2.91,6,5,12.4,4.43s11.17-2.29,11.82-6c.48-3-2.44-10.76-3.57-13.62.91.22,1.49.39,1.49.39l.09-.15v1.88s19.61-.14,22.64,0,14.41.93,16.87.78,11-.78,11.94-3.52,0-3.69-4.47-4.73-10.06-1.56-13-3.54-4.88-6.45-6.1-7.47c-.49-.43-1.15-.94-1.8-1.42l0-.05c0-1.63-1.38-7.6-1.38-8.76s3.89-7.79,5.3-13.54S94.81,392.07,96.91,386.09Z" style="fill:#c1cedd"/><path d="M216.44,194.49C212,178.94,208,161.4,205.32,156.44s-7.1-9.65-7.8-11.17-17-7.9-17-7.9a51,51,0,0,0-7.59-5.85c-1.08-.6-3.86-1-7-1.36v-4.3a24.21,24.21,0,0,0,1.39-4.61c0-1,2.11,0,2.11,0s-.89-3.72,0-5.66a22.09,22.09,0,0,0,2-5.46v-4.22a34.53,34.53,0,0,0,1.58-7.29c0-1.78-.51-8.29-2.64-10S160.19,82,157.55,81.45s-10.64.35-13.07.88S134,87.1,132.59,89.6c-1.14,2-.46,12.13-.14,16.09,0,.79,0,5.44,0,6.88,0,1.62,1.4,5.89,1.57,6.4s2.83,1.4,2.83,1.4l.71,6.55v3a10.89,10.89,0,0,0-3.21.56c-1.4.89-7.78,7.63-9.89,9.2s-12.21,3.8-14,5.63-8.32,3.22-12.2,18.8-5.5,32.18-6,38S87.64,231.28,96,244.56s13.43,21.76,14.83,23.51,5,9.39,5,9.39.18,43.7,0,51.1.53,17,0,21.4-2.48,14.71-2.48,17.71.35,28.12,0,30.78-1.94,25.64-1.57,28.66S113,442.33,113,442.33s-5.39,8-6.18,10.09a27.38,27.38,0,0,1-2.78,5.83,7.21,7.21,0,0,0-.87,5.22c.45,1,3.49,2.36,5.39,2.48,3.65.2,9.49.42,12.48-1.78s4-6.72,4.79-7.79,4.32-2.92,5.56-4.32a11.46,11.46,0,0,0,2.31-4.27,4.93,4.93,0,0,1,.36-1.39s5-12.57,5.49-20.18,2.29-27.41,2.08-33.07-1.9-19.65-1.9-22.65,4.06-18.58,4.79-23.54,4.39-23.51,4.91-27.41,2-11.86,2.65-14.85,1.14-7.61,3.3-9.05,6.45,7.46,7.15,9.42,3.2,13.61,3.91,16.78,6,29.55,7.72,34.51,2.79,21.22,1.18,30.67.63,28.29.8,31.82,1.55,18.65,2.49,21a5.73,5.73,0,0,0,2.37,3.09,35.56,35.56,0,0,0,.62,8.36c.91,3.59,3.73,8.19,6,9.8s7.31,2.28,9.55,2.12c4.06-.27,8.16-1.41,9-3.38s1-3.7,0-7.59-1.23-5.13-3.35-7.09a9.1,9.1,0,0,1-2.53-5.05s1.89-7.54,3.31-13,1.18-25,0-34-.26-21.24-1.21-25.25S200,349.27,200,345.25s-.21-19.1,0-25.7.5-24.51.5-27.1-.23-12-.23-15a34.9,34.9,0,0,0-.51-5.7l4.26-8.27s7.61-8,8.49-11.35,6.38-12.19,6.9-17.86S220.87,210.07,216.44,194.49Zm-22.62,8.29,5.83,21.36a35.77,35.77,0,0,0-.88,4.84c0,1.26-2.85,6.2-2.85,6.2s-3.17-13.44-3.9-16.28S193.82,202.78,193.82,202.78ZM137.47,93.55c-.21.48-.41,1-.62,1.47V94ZM111.55,224.91c-.52-5.12,3.89-21,3.89-21s2.48,9.67,2.48,11.12-1.77,7.59-2.31,10.59,3.53,6.53,3.88,8.32,0,10.44,0,10.44L117,243.14S112.08,230,111.55,224.91Z" style="fill:#869cb3"/></svg>