<svg xmlns="http://www.w3.org/2000/svg" viewBox="0 0 312.39 507.48"><defs><style>.cls-1{fill:#edf5fa;}.cls-2{fill:#d6e6f2;}.cls-3{fill:#c1cedd;}.cls-4{fill:#869cb3;}</style></defs><g id="Layer_1" data-name="Layer 1"><rect class="cls-1" width="312.39" height="507.48"/><polygon class="cls-2" points="304.61 124.91 281.03 344.9 11.61 459.87 35.19 239.88 304.61 124.91"/><path class="cls-3" d="M165.79,243.92c.16-3.15,3.17-21.51,5.07-26.87,1.49-7.61,8.94-28.08,3.42-28.92,10.81-10.82,5.36-22,26.34-21.21,1.16-5.58,3.57-23.13,1.35-30.34,2.22-8.05,5.48-21.76,11.07-28.67,5.3-5.29,27.64-7.09,33.3-.43,3,5.9,7.78,18.33,8.63,25.72s6.33,27.37,12.22,34.66c13.73,17.06,13.2,45.63,17.93,64.79,5.25,13.78,5.16,15.62,3.55,28.47.44,4-2.3,5.67-1.89,8.83s-2.31,4.62-1.66,6.52-4.43-5.88-3.61-2.73c.19.71-.31.08-1.18-1.31-1.7,4.91-7.46,28.73-8.52,34.87-2,7.12-12.54,10.1-13.9,17.46C256,329,252.44,347.71,251,357c-2.59,19.57-.59,32.31-4,44.83,4.42,6.16,18.06,20,18.93,22.06,21.2-11.34,14.35,12.24,14,24.88,1.74,7.31,5.35,17.37-1.18,23.79-8.4,12.13-11.42-4-12.2-10.12-.46-1.05.72-3.67.2-4.43-2.22-1.62-8.21-9-9-10.84,1.74-4.24-4.59-7-7.8-10.11-2.41-3.09-4.17-6.58-8.39-10-2.13,7.52-2.45,13.48-3.61,19.07-4,10.94-4.07,21.5-2.29,32.89.45,7.73-19.95,14.38-22.78,6.08-2.57-5.12,2-13.06,3.27-17.27.52-2.85,1.5-9.21,2.21-10.95,1.25-13.58,7.51-31.38,6.56-47.33-8.48-9.09-17.31-18.64-20.89-22.62-9.78-11.8-10.33-50-13.23-70.53-5.86.1-10.67,1.94-12.14-3.7-.81-1.56-4.89-6-6.33-8.84C168.53,286.8,166,261.39,165.79,243.92Zm102,26.2-.08.21h.07Zm-1.06-18.7c-.78,2.52-1.14,16.21-1.3,19.08h.07Zm-27.7-76.18,1.28-.26-.18-.29C239.85,174.86,239.48,175.05,239.06,175.24ZM223.14,368.13a30.66,30.66,0,0,0,3.09,6.51c.68-4.43-.69-47.48-.74-53.06C224.22,333.13,221.73,354.74,223.14,368.13ZM179.52,242.21c-.71,10.44-4.16,50.5,9.59,56.2.1-14.14,2-22,.86-35.05,0-3,3.46-13.58,3.46-13.58V226.85c0-2-1.3-19.33-1.75-25.23-3-2.27-10.08-8.17-13.15-10.21l13.15,10.21S181,235.73,179.52,242.21Z"/><path class="cls-3" d="M96.91,411.58c2.06-6,5.06-8.71,6-15.6s6.19-29.19,7.35-40.46,4.38-35.82,4.38-35.82v-7.87l9.34-.73s-.07-46.11-.54-66.32c-.22-9.39-.75-20.05-1.58-30.05.91-9,3-30.64,2.81-37.67a39.84,39.84,0,0,0-7.51-15.45c-5.58-6.69-16.35-10.12-17-10.3l-2.77-2a22.38,22.38,0,0,1,0-2.83,16.91,16.91,0,0,1,1.17-3.09c5.76-.26,8.67-12.48,8.67-22a38.11,38.11,0,0,0-.8-8c1,.58,6.74-6.13.8-13.42-.74-.89-5.63-3.05-16-4.21s-17.15,4.94-18.69,7.24-5.8,11.72-5.11,20,1.86,10.85,3.63,11.4h0a9.64,9.64,0,0,1,.36,3.16,8.28,8.28,0,0,1-1.66,2.35v0l0-.05-.69,4.57c-.29-1.27-.45-2-.45-2s-2.91,1.27-6.88,2.95h0C57.82,147,52.88,149,48.66,150.6c-8.5,3.23-20.23,11-20.23,11s-10.71,24.29-13.49,42A133.2,133.2,0,0,0,17.41,259c5.16,20.13,17.18,36.12,17.18,36.12V295c.63,6.67.93,13.49.93,13.49a68.81,68.81,0,0,0,9.21,6.4l-.23,6.67s-.69,29,0,38.38-.36,23.43-1.45,36.77-3.15,35.61-3.6,44.55-.91,23.92,0,26.89c.37,1.23,1.76,1.56,3.57,1.49-.71,2.68-3.05,12.27-1.35,14.77,2,2.91,6,5,12.4,4.43s11.17-2.29,11.82-6c.48-3-2.44-10.75-3.57-13.61.91.22,1.49.39,1.49.39l.09-.15v1.88s19.61-.14,22.64,0,14.41.93,16.87.78,11-.78,11.94-3.52,0-3.69-4.47-4.73-10.06-1.56-13-3.54-4.88-6.45-6.1-7.47c-.49-.43-1.15-.94-1.8-1.42,0,0,0,0,0-.05,0-1.63-1.38-7.6-1.38-8.76s3.89-7.79,5.3-13.54S94.81,417.56,96.91,411.58Z"/><path class="cls-4" d="M216.44,217.33c-4.43-15.55-8.48-33.09-11.12-38.06s-7.1-9.65-7.8-11.16-17-7.91-17-7.91a50.54,50.54,0,0,0-7.59-5.84c-1.08-.61-3.86-1.05-7-1.36v-4.31a24.21,24.21,0,0,0,1.39-4.61c0-1.05,2.11,0,2.11,0s-.89-3.71,0-5.65a22.23,22.23,0,0,0,2-5.46v-4.22a34.61,34.61,0,0,0,1.58-7.3c0-1.77-.51-8.29-2.64-10s-10.09-6.65-12.73-7.18-10.64.35-13.07.88-10.46,4.78-11.89,7.27c-1.14,2-.46,12.13-.14,16.09,0,.8,0,5.45,0,6.88,0,1.63,1.4,5.89,1.57,6.4s2.83,1.4,2.83,1.4l.71,6.55v3a10.78,10.78,0,0,0-3.21.57c-1.4.89-7.78,7.63-9.89,9.19s-12.21,3.81-14,5.64-8.32,3.21-12.2,18.79-5.5,32.18-6,38-4.61,29.2,3.73,42.47,13.43,21.76,14.83,23.52,5,9.38,5,9.38.18,43.7,0,51.1.53,17,0,21.4-2.48,14.71-2.48,17.71.35,28.12,0,30.79-1.94,25.63-1.57,28.66S113,465.16,113,465.16s-5.39,8-6.18,10.09a26.92,26.92,0,0,1-2.78,5.83,7.22,7.22,0,0,0-.87,5.22c.45,1.05,3.49,2.36,5.39,2.48,3.65.21,9.49.42,12.48-1.77s4-6.73,4.79-7.8,4.32-2.92,5.56-4.31a11.53,11.53,0,0,0,2.31-4.27,4.93,4.93,0,0,1,.36-1.4s5-12.57,5.49-20.18,2.29-27.4,2.08-33.07-1.9-19.65-1.9-22.65,4.06-18.57,4.79-23.53,4.39-23.51,4.91-27.42,2-11.85,2.65-14.85,1.14-7.61,3.3-9,6.45,7.45,7.15,9.42,3.2,13.6,3.91,16.78,6,29.54,7.72,34.5,2.79,21.22,1.18,30.67.63,28.29.8,31.83,1.55,18.64,2.49,21a5.78,5.78,0,0,0,2.37,3.09,35.48,35.48,0,0,0,.62,8.35c.91,3.6,3.73,8.19,6,9.81s7.31,2.27,9.55,2.11c4.06-.27,8.16-1.41,9-3.38s1-3.7,0-7.59-1.23-5.12-3.35-7.09a9.1,9.1,0,0,1-2.53-5.05s1.89-7.54,3.31-13,1.18-25,0-34-.26-21.23-1.21-25.24S200,372.1,200,368.09s-.21-19.11,0-25.71.5-24.51.5-27.1-.23-12-.23-15a34.71,34.71,0,0,0-.51-5.69l4.26-8.28s7.61-8,8.49-11.35,6.38-12.19,6.9-17.85S220.87,232.9,216.44,217.33Zm-22.62,8.29L199.65,247a35.77,35.77,0,0,0-.88,4.84c0,1.27-2.85,6.2-2.85,6.2s-3.17-13.44-3.9-16.27S193.82,225.62,193.82,225.62ZM137.47,116.38c-.21.48-.41,1-.62,1.48v-1ZM111.55,247.74c-.52-5.12,3.89-21,3.89-21s2.48,9.67,2.48,11.12-1.77,7.59-2.31,10.59,3.53,6.54,3.88,8.33,0,10.44,0,10.44L117,266S112.08,252.86,111.55,247.74Z"/></g></svg>