<svg xmlns="http://www.w3.org/2000/svg" viewBox="0 0 312.39 507.48"><defs><style>.cls-1{fill:#edf5fa;}.cls-2{fill:#d6e6f2;}.cls-3{fill:#cce4f2;}.cls-4{fill:#04b8b5;}.cls-5{fill:#fc0;}.cls-6{fill:#f6cbac;}.cls-7{fill:#e9f5ff;}.cls-8{opacity:0.1;}.cls-13,.cls-21,.cls-9{opacity:0.06;}.cls-10{fill:#77addb;}.cls-11{fill:#809eae;}.cls-12{fill:#05aaab;}.cls-13,.cls-22{fill:#6588ab;}.cls-14{fill:#0e3c62;}.cls-15{opacity:0.5;}.cls-16{fill:#e7f7f8;}.cls-17{fill:#31597a;}.cls-18{fill:#3ca4b7;}.cls-19{fill:#f6a71c;}.cls-20{fill:#fff;}.cls-23{fill:#244759;}.cls-24{fill:#399bad;}.cls-25{fill:#577a8d;}.cls-26{fill:#1d3947;}.cls-27{fill:#1a72ad;}.cls-28{fill:#1c77c3;}.cls-29{fill:#495057;}.cls-30{fill:#343b43;}.cls-31{fill:#f8c5ac;}.cls-32{fill:#c47939;}.cls-33{fill:#e11e19;}.cls-34{fill:#124e77;}.cls-35{fill:#856451;}.cls-36{opacity:0.05;}.cls-37{fill:#302a2a;}.cls-38{fill:#cdd7dd;}</style></defs><g id="Layer_1" data-name="Layer 1"><rect class="cls-1" width="312.39" height="507.48"/><polygon class="cls-2" points="294.08 346.96 96.86 447.23 14.63 139.04 211.85 38.77 294.08 346.96"/><path class="cls-3" d="M104.43,157.84c-6-1.82-28.46-4.07-36.65.36S59.58,172,59.58,172l50.55-3.67S110.42,159.66,104.43,157.84Z"/><path class="cls-4" d="M101.2,160.13c-4.89-1.49-24-3-30.65.59s6,5.92,6,5.92H100S106.09,161.62,101.2,160.13Z"/><polygon class="cls-5" points="53.17 253.12 60.51 254.92 73.51 170.36 67.09 168.32 53.17 253.12"/><path class="cls-6" d="M144.17,299.63c-.16-1.29-.25-6.91-.79-9.14-.23-.95-1.69-3.56-2.39-5.17l-8.69-41.43-4.45-59.28L109.53,184l9.27,59.67s2.1,11.7,3.12,15.18c1.64,5.58,7.4,18.09,10.88,25.44-.48,1.87-1.49,6.23-1,8,.56,2,1.29,7,1.49,8.48l-.46,3.08-1.9,4.41s-.74,1.79.67,2.68l3.25-3.91v.72l-1,4.71s-.38,1.91,1.16,2.5l.88-1.7-.09.31A2,2,0,0,0,137,316.1l3.17-6.22-.5,2.31s-.39,1.91,1.16,2.5l2.19-4.27,1.15-10.2h-.09A1.72,1.72,0,0,0,144.17,299.63Z"/><path class="cls-7" d="M127.85,184.61,109.53,184l9.27,59.67s2.1,11.7,3.12,15.18c1.53,5.19,4.32,22.41,8.77,20.95,3,0,7.49.31,9.62-1.81,3.16-3.15-8-34.12-8-34.12Z"/><path class="cls-8" d="M135.51,278c-5.62-2.58-6.95-8.76-8.48-14.18-2.42-8.57-3.09-17.44-4.21-26.25-1.23-9.76-1.93-19.71-3.83-29.36a63.07,63.07,0,0,1,.1-23.84l-9.56-.31,9.27,59.67s2.1,11.7,3.12,15.18c1.53,5.19,4.32,22.41,8.77,20.95,3,0,7.49.31,9.62-1.81a.7.7,0,0,0,.06-.09A5.51,5.51,0,0,1,135.51,278Z"/><path class="cls-6" d="M119,277.53l-27.91.24,5.11,84.83s-.71,14.55-2,25c-1.25,10.18-.75,28.57.1,44.73l5-1.16c4.38-1.1,8.64-2.19,12.84-3.3l6.65-56.64s2.07-57,1.59-66.61C119.93,295.84,119.4,280.11,119,277.53Z"/><path class="cls-6" d="M94.33,432.32c.89,17,2.15,31.47,2.15,31.47l11.39.42,4.26-36.35c-4.2,1.11-8.46,2.2-12.84,3.3Z"/><path class="cls-9" d="M95.79,455.11c.3-5.19.67-10.38.89-15.59.11-2.6.18-5.2.24-7.81l-2.59.61C94.79,441.15,95.35,449.31,95.79,455.11Z"/><path class="cls-9" d="M119,277.53l-27.91.24,5.11,84.83s-.71,14.55-2,25c-1.25,10.18-.74,28.57.1,44.73l2.59-.61c.26-11.61.18-23.24,1.37-34.8.28-2.8.66-5.53,1.08-8.21.48-14.4,1.58-28.82,1.7-43.25-.18-3.42-.22-6.87,1.54-9.92,3.65-6.32,11.2-6.39,17.26-8.76l.29-.09c.24-10.1.37-18.82.21-22.07C119.93,295.84,119.4,280.11,119,277.53Z"/><path class="cls-6" d="M58.08,461.39l11.28,2.51,4.93-26.8-15.44,3.71C58.41,452.42,58.08,461.39,58.08,461.39Z"/><path class="cls-6" d="M63.1,298.86c0,10.54,1,56,1,58.95,0,6.71-2,22.44-3,31.7-.37,3.44-1.49,31.29-2.26,51.3l15.44-3.71,12.89-70,6.54-64.86,2.73-24.44H67.31C66,281.69,63.1,290.83,63.1,298.86Z"/><path class="cls-9" d="M58.08,461.39c.56-4,1.35-11.89,2.23-20.93l-1.42.34C58.56,449,58.27,456.41,58.08,461.39Z"/><path class="cls-9" d="M63.1,298.86c0,10.54,1,56,1,58.95,0,6.71-2,22.44-3,31.7-.23,2.1-1.35,29.48-2.22,51.29l1.42-.34c1.56-16.06,3.4-35.62,4.67-42.62,2.09-11.51,1.16-23,3.94-34.19.43-7.68-.77-15.38,2.48-22.71,2.54-5.74,7.71-11.79,14.37-12.46a11.52,11.52,0,0,1,3.08.07,4.44,4.44,0,0,1,2.21.1l2.66-26.44,2.73-24.44H67.31C66,281.69,63.1,290.83,63.1,298.86Z"/><path class="cls-7" d="M82,469l-10.67-7.11-14-.6A27.47,27.47,0,0,0,54.61,476h36.5S90.72,470.15,82,469Z"/><path class="cls-10" d="M82,469l-.23-.16c-5.22-.12-7.92,1.28-9.72,6.34a7.69,7.69,0,0,1-.4.87H91.11S90.72,470.15,82,469Z"/><path class="cls-11" d="M54.46,472.9a22.29,22.29,0,0,0,.15,3.13h36.5a6.44,6.44,0,0,0-1.33-3.13Z"/><path class="cls-7" d="M127.09,469.18l-17.17-7.55L96,461.39s-4.69,6.72-3.72,14.64h44S135.85,470.35,127.09,469.18Z"/><path class="cls-10" d="M127.09,469.18l-1.12-.49c-.23,0-.46.1-.7.13a4.27,4.27,0,0,0-3.83,3,11,11,0,0,1-.48,1.92,15.19,15.19,0,0,0-.14,2.25h15.43S135.85,470.35,127.09,469.18Z"/><path class="cls-11" d="M92.21,472.42a19.06,19.06,0,0,0,.07,3.61h44a6.43,6.43,0,0,0-1.83-3.61Z"/><path class="cls-12" d="M115,241H68.71s-11.53,28.94-12.06,44.48-.75,39.29-.75,39.29,7.28,1.58,31.54,1.58c18.34,0,37.52-1.58,37.52-1.58l-.65-26.16C123.64,263.25,115,241,115,241Z"/><path class="cls-8" d="M68.71,241s-11.53,28.94-12.06,44.48c-.26,7.63-.45,21.19-.57,33,2.89-8.93,18.7-12.07,27.2-14.66.33-1.12,8.4-26.64,9.59-27.45,8.45-5.83,18.54-7.64,28.5-9.15A179.66,179.66,0,0,0,115,241Z"/><path class="cls-7" d="M127.85,184.61s0-11.15-10.11-14.08c0,0-2.78-1.75-17.1-5.66-4.25-1.15-14.74-1.22-19.89-1.8,0,0-24.57,8.94-25.58,11.13,0,0,6.94,15.93,10.25,25.46,0,0,1.3,25.89.1,35.37-.72,5.64-6.71,37.18-6.71,37.18l62.31-7s4.43-4.35-2.05-24.24c-2.28-7,0-33.62,0-37.38v-.7s-.23-2.68-.75-6.24c6-3.15,6.56-2.87,10.12-4.21Z"/><path class="cls-13" d="M86.63,247.36c-2.59-4.84-4-10.1-5.51-15.35a102.88,102.88,0,0,0-7.4-18.23c-4.52-9-7.94-19.25-13.57-27.76,1.88,4.58,3.89,9.67,5.27,13.64,0,0,1.3,25.89.1,35.37-.72,5.64-6.71,37.18-6.71,37.18L104.93,267C97.82,261.46,90.87,255.28,86.63,247.36Z"/><path class="cls-6" d="M98.35,145.8l-15.07-.44-2.53,17.71-9,3.06c.22,5,14.16,8.74,19.78,8.65s10.84-4.48,10.62-9.48l-3.54-.83Z"/><path class="cls-8" d="M86.88,154.82c5,4.25,9.26,5.58,11.78,4.75a6.39,6.39,0,0,1-.21-1.51C93.55,159.33,86.88,154.82,86.88,154.82Z"/><path class="cls-6" d="M78.2,142.47c-.47,8.38,12.48,15.43,16.87,15.8,9.36.81,15.63-8.5,16.1-16.88l2.41-22.45-40.06,7Z"/><path class="cls-14" d="M95.14,107.32S73.93,104.82,72.5,127c-.39,6,4.18,21.45,9.94,25.17l-2.25-11.48s-3.74.27-3.25-8.45c.18-3.18,1.6-3.18,2.71-3.12,1.5.08,1.44,2.21,1.44,2.21l1.78.1.14-2.35c.16-3,3-5.19,6.29-5l6.19.09C93.72,121.34,95.14,107.32,95.14,107.32Z"/><path class="cls-14" d="M98.94,107.77l-4.21-.33L89.18,124s12.26,2.14,17-2.55c0,0,6.38,8.47,5.77,14.1,0,0,3-3,3.8-10.43C115.76,125.15,117.64,109.79,98.94,107.77Z"/><g class="cls-15"><path class="cls-16" d="M94.46,130.29c-5-.74-6.91,0-6.26,3.76s1.79,5.75,5.91,5.53a6,6,0,0,0,5.81-5.87C100.05,132.18,99.44,131,94.46,130.29Z"/></g><g class="cls-15"><path class="cls-16" d="M108,132c-4.86-.52-5.69.45-5.86,2a6.1,6.1,0,0,0,4.38,7c3.78,1.09,5.24-.65,6.51-3.95S112.8,132.52,108,132Z"/></g><path class="cls-17" d="M114.79,133.38a17.58,17.58,0,0,0-4.9-1.5l0,0c-.39-.07-.81-.14-1.27-.2l-.63-.07a12.64,12.64,0,0,0-4.32.06l-.5.12a7.38,7.38,0,0,1-2,.35,7.92,7.92,0,0,1-2-.84l-.51-.27a13.7,13.7,0,0,0-4.29-1.14l-.65-.09c-.44-.06-.85-.1-1.23-.13h0a19.29,19.29,0,0,0-5.43.22.27.27,0,0,0-.3.26l0,.88a.32.32,0,0,0,.27.33h.12a.82.82,0,0,1,.4.79,2.11,2.11,0,0,0,0,.34,7.66,7.66,0,0,0,.12,1.58c.57,3.25,1.6,5.45,4.77,5.81a9.67,9.67,0,0,0,1.54,0,6.27,6.27,0,0,0,6-5.2l0,0a2,2,0,0,1,0-.25l0-.17c.19-1.05.68-1.09.89-1.06h0l.05,0h0c.17,0,.54.17.56,1.07,0,.15,0,.3,0,.44a.77.77,0,0,1,0,.15l0,0a6.38,6.38,0,0,0,4.7,6.36,8.52,8.52,0,0,0,1.45.3c3,.34,4.35-1.52,5.48-4.46a7.4,7.4,0,0,0,.43-1.54,1.84,1.84,0,0,0,.06-.23c.12-.57.51-.64.51-.64h.11a.29.29,0,0,0,.31-.24l.12-.84a.27.27,0,0,0-.13-.28Zm-15.23.29a5.67,5.67,0,0,1-5.48,5.55,9.4,9.4,0,0,1-1.43,0c-2.72-.3-3.56-2.11-4.08-5.17-.24-1.38-.12-2.28.38-2.83.68-.74,2.18-.92,4.84-.59l.64.09C99.35,131.4,99.66,132.46,99.56,133.67Zm13.14,3.23c-1.06,2.77-2.17,4.3-4.74,4a8.46,8.46,0,0,1-1.34-.28,5.73,5.73,0,0,1-4.12-6.6c.14-1.2.65-2.16,5.46-1.65l.61.08c2.52.31,3.85.84,4.33,1.7A3.3,3.3,0,0,1,112.7,136.9Z"/><polygon class="cls-17" points="80.96 131.37 87.15 131.38 87.33 130.14 80.85 130.53 80.96 131.37"/><path class="cls-3" d="M102.21,164.29s-5.65,8.82-10.63,10.49c0,0,6.51,4.32,18.55-6.86C110.13,167.92,107.82,162,102.21,164.29Z"/><path class="cls-18" d="M102,169.68a1.5,1.5,0,1,0,1.5,1.49A1.49,1.49,0,0,0,102,169.68Z"/><path class="cls-4" d="M105.49,187.94c2.52-7.56-3-16.39-3.21-16.76a.33.33,0,0,0-.55.35c0,.09,5.57,8.94,3.14,16.21-1.67,5,.66,20.1.76,20.74a.32.32,0,0,0,.32.27h0a.33.33,0,0,0,.27-.38C106.25,208.22,103.86,192.82,105.49,187.94Z"/><path class="cls-3" d="M67.09,167s11.22,13.55,24.49,7.8a129.35,129.35,0,0,1-21.34-10.14Z"/><path class="cls-18" d="M80.4,171.14a1.5,1.5,0,1,0,1.54,1.45A1.5,1.5,0,0,0,80.4,171.14Z"/><path class="cls-4" d="M93.5,199a31.76,31.76,0,0,1-5.59-10.89c-2.15-7.5-7.14-15.56-7.19-15.65a.32.32,0,0,0-.44-.1.34.34,0,0,0-.11.45c0,.08,5,8.07,7.12,15.48A32.34,32.34,0,0,0,93,199.39a16.88,16.88,0,0,1,2.66,4.47.32.32,0,0,0,.31.22.2.2,0,0,0,.1,0,.32.32,0,0,0,.2-.41A17.91,17.91,0,0,0,93.5,199Z"/><path class="cls-5" d="M69.6,167.06l-6.42,2.52s11.21,6.9,15.3,27.36-1.39,58-1.39,58L84.88,259l2.56-58.49s-4.81-19.32-7-24C76.49,168.32,69.6,167.06,69.6,167.06Z"/><path class="cls-6" d="M92,198.4l-5.65-3.26s1.22,5.19-.25,6.64c-1.86,1.81-4.61,1.52-6.06,1.2,0,0-1-.81-1.21-4.29l-1.53,6.57L79,215.9l-1.93,3.4,6.54,6.88,11.44-13.54-1.7-12.16A2.86,2.86,0,0,0,92,198.4Z"/><path class="cls-19" d="M84.32,254.92s-28.13-2.26-31.15-1.8-9.85,20.86-11,24.41-7.08,21.3,2,22.43,35,6.14,38.31,0S95.92,259.11,84.32,254.92Z"/><path class="cls-5" d="M53.17,253.12c-3.26,0-5.39,9.05-8.08,16s5,9.95,8.08,10.63,13.92,2.88,20.34-6.16c3.73-5.25,5.14-13.56,11.11-16,1.84-.76,3.72,1.48,3.72,1.48s.06-1-2.33-3.4S56.43,253.09,53.17,253.12Z"/><polygon class="cls-20" points="130.69 279.82 132.55 285.32 140.87 284.82 139.58 278.58 130.69 279.82"/><path class="cls-20" d="M79,215.9l-3,4.24,8,5.46,3.87-4.45A9.13,9.13,0,0,0,79,215.9Z"/><path class="cls-7" d="M77.55,218.47c-4.35.11-15.14,8.58-15.14,8.58s3.88-33.71,2.59-39.14-3.89-14-9.83-13.71a18.21,18.21,0,0,0-5.42,14.49c.77,9-5.22,56.92,4,57.57,13.34,1,32.37-12.28,31.31-21.75C84.79,222.12,80,218.41,77.55,218.47Z"/><g class="cls-21"><path class="cls-22" d="M78.59,233.35l-1,.62A29.22,29.22,0,0,1,63,239c-8.33.35-10.17-7.34-11.28-14.08-1.49-9.13-1.46-18.4-1.68-27.63,0-2-.16-4.16-.22-6.43,0,12.8-4.7,54.75,3.93,55.36,12,.86,28.67-9.81,31.06-18.86C83.48,229.88,81.28,231.68,78.59,233.35Z"/></g><polygon class="cls-23" points="50.91 281.65 57.41 282.45 58.17 278.58 52.13 278.01 50.91 281.65"/><rect class="cls-14" x="111.8" y="229.53" width="73.46" height="43.24" rx="12.64"/><path class="cls-24" d="M109.37,475.58h32.15a25.22,25.22,0,0,0,.23-5.16Q125.54,473.09,109.37,475.58Z"/><path class="cls-10" d="M123.83,459.55l-7,6.66a12.4,12.4,0,0,0-8.9,9.37h1.47q16.18-2.5,32.38-5.16a30.66,30.66,0,0,0-2.7-10.95Z"/><path class="cls-10" d="M213,466.66l-7-6.67-4.14,0q-6,1.13-12,2.2A29.27,29.27,0,0,0,188.24,476h33.61A12.37,12.37,0,0,0,213,466.66Z"/><path class="cls-24" d="M189.78,462.17q6-1.08,12-2.2l-11.08-.05A23.63,23.63,0,0,0,189.78,462.17Z"/><path class="cls-25" d="M109.37,475.58h32.15a24.51,24.51,0,0,0,.27-3.15H129.37Q119.37,474,109.37,475.58Z"/><path class="cls-25" d="M109.09,472.34a11.91,11.91,0,0,0-1.19,3.24h1.47q10-1.54,20-3.15H110A6.24,6.24,0,0,1,109.09,472.34Z"/><path class="cls-25" d="M188,472.43a24.85,24.85,0,0,0,.27,3.6h33.61a11.57,11.57,0,0,0-1.39-3.6Z"/><path class="cls-14" d="M200.49,273.21,168,268.05l.08-1.07-2.27.73-4.58-.73.15,2.14L128,279.82l-1,76.64-4.76,103.19,18.41,1.71,12.46-83.06L164.69,311,176.2,378.3l12.47,83.06,12.27-1.23,4.79-.89-3.41-102.78Z"/><path class="cls-26" d="M200.94,460.13l4.81-.48,0-.41Z"/><path class="cls-8" d="M168,268.05l.08-1.07-2.27.73-4.58-.73.15,2.14L128,279.82l-1,76.64L123,445c.9-9,2-18,2.57-26.89,1-17.17,1.32-34.39,2.92-51.52,1.23-13.14,4.5-59.8,6.06-65.44,4.76-17.17,23.08-18.55,40.38-17.61,25.69,1.39,22.15,23.42,24,38.15.74,6,2,11.8,2.62,17.69a.52.52,0,0,1,0,.11c.18,1,.32,1.93.47,2.9l-1.52-69.22Z"/><path class="cls-27" d="M200.23,157.37a157.45,157.45,0,0,0-19-4.21,95.91,95.91,0,0,0-19-1.66c-8.38.08-15.71,2.42-21.78,3.74a146.65,146.65,0,0,0-19.83,5.56l8.42,62.08-1,56.94h72.87c-.43-4.28.3-51.38.3-51.38Z"/><path class="cls-8" d="M188.35,204.8c-16.93,5.63-47.13,4.71-55-1.74-1.8-1.47-2.14-6.11-3.28-12.61l-1,32.43-1,56.94c.7-.34,4-32.88,7.07-34.44,3.78-1.89,11.88-4.33,15.88-5.22,19.37-4.33,30.93-6.73,50.21-12.22l-7.83-38.15C189.35,194.46,192.7,203.35,188.35,204.8Z"/><path class="cls-20" d="M131.4,219,120.75,160.8A16.12,16.12,0,0,0,116,171.93c0,6.85-1.26,58,0,59.7s1.45,10.2,18.33,9.23c10.27-.59,52-10.27,52-10.27l-1.52-11.14Z"/><path class="cls-28" d="M116,171.93c-.19,3.71-3.38,21.72-3.51,36.56,4.56.27,14.44-1.65,19-1.86l-10.8-45.83S116.49,163.37,116,171.93Z"/><path class="cls-8" d="M131.4,219l-2.3-12.62a9.82,9.82,0,0,1-10,8.06,11.4,11.4,0,0,1-3.58-.55c0,7.38,0,13.56.3,16.26,3.94,1.86,19.27-3.25,26.45-2.93,3.83.18,38.3,6.13,47.55,5.24l-4.88-13Z"/><rect class="cls-29" x="118.86" y="206.69" width="3.58" height="25.68" transform="translate(-68.6 55.42) rotate(-20.28)"/><path class="cls-20" d="M113.94,204.51l2-.76-.42-1.12a.57.57,0,0,0-.3-.33.61.61,0,0,0-.46,0l-.93.34a.61.61,0,0,0-.34.31.62.62,0,0,0,0,.46Z"/><path class="cls-30" d="M113.49,205.31a.61.61,0,0,1,0-.46.66.66,0,0,1,.33-.31l2.24-.82a.61.61,0,0,1,.46,0,.61.61,0,0,1,.31.34l1,2.8-3.36,1.24Z"/><path class="cls-30" d="M114.52,208.11l.28.74a.66.66,0,0,0-.4.85l2.88,7.78-.75.28L113.66,210a1.47,1.47,0,0,1,0-1.11A1.45,1.45,0,0,1,114.52,208.11Z"/><path class="cls-14" d="M126.74,234.79l.06,1a.14.14,0,0,1-.25.09l-.6-.79Z"/><polygon class="cls-30" points="125.67 235.19 127.02 234.69 126.79 230.96 123.43 232.2 125.67 235.19"/><path class="cls-31" d="M139.7,209.26l-7.06-4.84-12.53-3.59s-1,2.18,1.77,3.59a17.77,17.77,0,0,1,4,2.65s.48.94-1.6,1.25-8.51,2-8.51,2l-4.18,5.46a2.28,2.28,0,0,0,.48,2s-.16,4.06.65,4.84c0,0,.16,3.59,1.76,3.43l1.13.31s-.81,3.59,1.12,3.44,4.5-2.81,4.5-2.81l12.2-1.41s4-1.71,5.62-3.43l9.47-.16-1.28-11.54Z"/><path class="cls-8" d="M147.77,220.48c-5.63.39-11.41.23-16.82,2-6.85,2.27-12.28,2.69-18.09-2.27a8,8,0,0,1-.78-.76c0,1.22.18,2.75.65,3.2,0,0,.16,3.59,1.76,3.43l1.13.31s-.81,3.59,1.12,3.44,4.5-2.81,4.5-2.81l12.2-1.41s4-1.71,5.62-3.43l9.47-.16-.18-1.64Z"/><path class="cls-20" d="M200.16,157.38,191,185.31l2.16,25.48L146,210.3l-.67,11.81s45,13.72,54.92,13.72,11.24-17,11.24-18.3S208,175.35,207.08,168A14.69,14.69,0,0,0,200.16,157.38Z"/><path class="cls-28" d="M200.16,157.38l-9.69,25.55,2.37,23.78c6,1.21,14.91.87,21,1.78-1-12.52-6-35.05-6.72-40.52A14.69,14.69,0,0,0,200.16,157.38Z"/><path class="cls-31" d="M172.24,133.45,152,138.58,150.69,151a11.32,11.32,0,1,0,22.58.48Z"/><path class="cls-8" d="M152,138.58l-.67,6.23c1.2.84,2.91,5.61,4,6.69,9.49,9.45,15.7-3.05,17.48-8l-.57-10.09Z"/><path class="cls-31" d="M162.08,101.49a17,17,0,0,0-17.22,17.34,17.58,17.58,0,0,0,.34,3.4l.06.76s.72,12.28,3,15.91a41.63,41.63,0,0,0,6.82,7.91c1.3,1.56,3.48,2.53,7,2.53,3.69,0,5.84-.88,7.08-2.3l0,.05a51.29,51.29,0,0,0,6.7-8.19c1.56-2.47,2.5-11.44,3-15.65.15-4.84.77-3.13.77-5.32C179.65,108.36,172.07,101.49,162.08,101.49Z"/><path class="cls-31" d="M142.93,123.28c-.48,1.6,1.29,6.58,1.45,7.54s1.05,4.32,2.66,3.68-1.22-11.06-1.22-11.06S143.41,121.67,142.93,123.28Z"/><path class="cls-31" d="M178.77,123.28s-3.05,10.75-1.44,11.4,2.24-2.89,2.4-3.86,1.93-5.94,1.45-7.54S178.77,123.28,178.77,123.28Z"/><path class="cls-32" d="M173,98.57c-2.38-.81-9.72,0-14.83.4s-11.64,2.81-12.75,7.83c-1.33,6.06-.42,15.67-.26,16.64s2.56,3.67,2.56,3.67-.3-11.3,2.59-15.64c2.45-3.67,22.34-1.44,24.43-.15s2.59,15.93,2.59,15.93c1.45-1.55,2.87-8.09,3-10.18a20.67,20.67,0,0,0-2.83-11.39C176.62,104.4,178.7,100.5,173,98.57Z"/><polygon class="cls-31" points="182.7 203.2 174.91 210.6 196.23 210.93 192.34 202.56 182.7 203.2"/><path class="cls-33" d="M144.3,112.74v2.56a214.81,214.81,0,0,0,36,1.77v-2.65S172.26,115.42,144.3,112.74Z"/><path class="cls-33" d="M164.51,93.82c-22.72-.76-20.21,18.92-20.21,18.92l9,1a5.73,5.73,0,0,1,1.47-2.77,5.28,5.28,0,0,1,3.78-1.56,28,28,0,0,0,3.67.16,5.44,5.44,0,0,1,5.33,5.34,3.19,3.19,0,0,1,0,.54l13,.27S184.52,94.48,164.51,93.82Z"/><path class="cls-33" d="M180.28,110.5c-5.6-3,0,6.57,0,6.57s8.42.11,7.25-3.58C186.93,111.62,185.88,113.5,180.28,110.5Z"/><polygon class="cls-14" points="129.67 202.56 139.7 209.26 144.22 154.64 133.47 156.9 129.67 202.56"/><path class="cls-34" d="M128,264.85l.71-24.05a27.13,27.13,0,0,1-6.42-1.58Z"/><rect class="cls-27" x="203.06" y="236.36" width="61.93" height="46.34" rx="12.38"/><path class="cls-34" d="M215.44,236.36h26.75a26.08,26.08,0,0,1,12.57,6.47,5.4,5.4,0,0,0,.37.77c1.83,3.06.37,7.41,0,10.72a106.18,106.18,0,0,0-.63,12.61c.09,5.18.76,10.3,3.18,14.66a12.27,12.27,0,0,1-5.1,1.12H215.44a12.38,12.38,0,0,1-12.38-12.38V248.74A12.38,12.38,0,0,1,215.44,236.36Z"/><path class="cls-35" d="M247.79,285.93c0,10.7-2.46,65.78-2.46,68.74,0,6.8,1.85,24.16,2.79,33.55.55,5.52,2.86,73,2.86,73s3,8.43,3.27,14.85H219.81s.38-6,8.65-7.16l9.94-7.11-14.88-97.69-9.43-74.58-22.75-31.72h51.84C244.46,261.74,247.79,277.78,247.79,285.93Z"/><path class="cls-8" d="M247.79,285.93c0,10.7-2.46,65.78-2.46,68.74,0,6.8,1.85,24.16,2.79,33.55.55,5.52,2.86,73,2.86,73s3,8.43,3.27,14.85H237.17c3.76-3.34,5.79-8.22,7.39-13.9l.16-.39a46.08,46.08,0,0,0,2.47-22.35c-.28-8.9-1.59-17.92-2.46-26.3-1.64-15.95-2.56-32.31-5.91-48-1.46-6.83-3.87-13.38-5.66-20.11-1.28-4.83-3-9.42-6.84-12.76a5.8,5.8,0,0,0-2.13-1.2,5.59,5.59,0,0,0-5-1l-5.12-40.54-22.75-31.72h51.84C244.46,261.74,247.79,277.78,247.79,285.93Z"/><path class="cls-33" d="M228.46,468.87a39.06,39.06,0,0,0,8.88,1.18c7,.23,16-.38,16.35-.44a31.9,31.9,0,0,1,.56,6.42H219.81S220.19,470.06,228.46,468.87Z"/><path class="cls-35" d="M183.12,469.08l16-7.49-8.36-93.31s-3.64-66-3.2-75.69c.41-8.9,3.44-32.21,3.79-34.82l27.86,13.5-7.73,88.26s.66,16.15,1.83,26.75c2.09,18.86-1.18,65.49-1.92,75.44,1,2,4.23,9.27,3.7,14.31H174.71S175.07,470.27,183.12,469.08Z"/><path class="cls-8" d="M191.34,257.77l27.86,13.5-7.73,88.26s.66,16.15,1.83,26.75c2.09,18.86-1.18,65.49-1.92,75.44,1,2,4.23,9.27,3.7,14.31H202.2a24.53,24.53,0,0,0,7.19-14.9,267.13,267.13,0,0,0,1.94-27.84c.46-21.29-6-41.17-8.22-62.09-1.54-14.54,3.49-32.4-10.22-42.4a4.55,4.55,0,0,0-4.19-.83c-.74-15.75-1.34-31.08-1.15-35.38C188,283.69,191,260.38,191.34,257.77Z"/><path class="cls-28" d="M191.34,257.77h51.84c1.28,4,4.61,20,4.61,28.16,0,5.22,2.45,23.52,1.85,38.65-9.19,2.36-18.12,2.16-31,2.16l-1.95-16.14-.94,16.15c-7.05.48-21.57-.09-29.7-1-.68-14.84,1.36-29.08,1.54-33.15C188,283.69,191,260.38,191.34,257.77Z"/><path class="cls-8" d="M216.7,311l-1,15.74c-.56,0-6.22.07-6.87.09C208.84,326.63,216.24,307.64,216.7,311Z"/><path class="cls-36" d="M243.18,257.77c1.28,4,4.61,20,4.61,28.16,0,4.53,1.84,18.93,1.94,32.56-1.1-5.57-3.07-10.66-4.82-16.1s-2.88-11.19-6.22-15.85c-10.65-14.85-33.2-12.94-49.32-12.85.88-7.61,1.79-14.56,2-15.92Z"/><path class="cls-33" d="M183.12,469.08l.37-.18a10.54,10.54,0,0,0,6.48,2s24-1.5,24.66-1.61a30.19,30.19,0,0,1,.45,6.72H174.71S175.07,470.27,183.12,469.08Z"/><path class="cls-35" d="M169.3,296.74c.13-1.31.08-7,.56-9.29a32.74,32.74,0,0,1,1.51-4.32l8.52-43.25V180L198.46,179l-4.87,60.38s-1.83,11.92-2.77,15.48c-1.52,5.7-7,18.54-10.37,26.09.53,1.88,1.66,6.28,1.19,8.12-.51,2-1.12,7.18-1.28,8.64l.54,3.11,2,4.43s.8,1.8-.61,2.74l-3.4-3.89,0,.73,1.17,4.76s.44,1.92-1.12,2.56l-.93-1.7.1.31a2,2,0,0,1-1.2,2.55L173.59,307l.58,2.34s.44,1.92-1.12,2.56l-2.33-4.28-1.43-10.32h.09A1.53,1.53,0,0,1,169.3,296.74Z"/><path class="cls-8" d="M188.59,233.57c-.2-8.59-4.38-16.51-4.39-25.06a10.12,10.12,0,0,0-4.31-8.67V180L198.46,179l-4.87,60.38s-1.83,11.92-2.77,15.48c-1.52,5.7-7,18.54-10.37,26.09.53,1.88,1.66,6.28,1.19,8.12-.51,2-1.12,7.18-1.28,8.64l.54,3.11,2,4.43s.8,1.8-.61,2.74l-3.4-3.89,0,.73,1.17,4.76a3,3,0,0,1-.08,1.47,10.58,10.58,0,0,0-1.87-4.58c-9.17-13.31-.34-31,4.11-44.42C185.25,253.06,188.8,243.12,188.59,233.57Z"/><path class="cls-19" d="M179.67,176.56h0l1.26-2.87a16,16,0,0,1,9.55-7.83l26.21-9.18a5,5,0,0,1,2.25,0l25.87,9.07c6.8,1.77,9.77,7.36,10.75,9.73l4.7,19.19c-1.11.37-8.72,4.88-17.86,6L240.32,245,247,272.86H189.46L192.7,245l.28-30.13a11.1,11.1,0,0,1-5.09-9.49v-.75s.18-2.38.59-5.68c-4.72-1.49-9.49-3.38-10.3-3.65Z"/><path class="cls-5" d="M190.45,165.86l1.46-.51h51.72l1.15.4a15.4,15.4,0,0,1,8.7,6.06H182.11A15.4,15.4,0,0,1,190.45,165.86Z"/><polygon class="cls-5" points="257 181.5 258.58 187.96 178.76 187.96 179.28 181.5 257 181.5"/><path class="cls-5" d="M253.64,197.66a45.92,45.92,0,0,1-11.27,3l-.23,3.44H187.93c.08-.86.25-2.77.55-5.19-1.29-.41-2.58-.85-3.8-1.27Z"/><path class="cls-5" d="M241.64,220.28H193.26l-.28-5.43a9.15,9.15,0,0,1-1.37-1h49.86Z"/><polygon class="cls-5" points="240.72 236.43 192.78 236.43 192.78 229.97 241.02 229.97 240.72 236.43"/><polygon class="cls-5" points="240.56 245.61 242.16 252.08 191.82 252.6 192.57 246.15 240.56 245.61"/><polygon class="cls-5" points="244.44 261.97 246.04 268.44 189.8 268.69 190.55 262.24 244.44 261.97"/><path class="cls-8" d="M237.84,213.54c.31-3-.13-9.92,2-11.66a5.75,5.75,0,0,1,2.53-.66l-2,43.76L247,272.86H236.2a29.88,29.88,0,0,0,.74-2.93c1.62-8.24-.23-16.43-.64-24.69C235.79,234.63,236.78,224.08,237.84,213.54Z"/><path class="cls-8" d="M244.78,165.75c6.8,1.77,9.77,7.36,10.75,9.73l4.7,19.19a91.67,91.67,0,0,1-8.9,3.85,5.82,5.82,0,0,0,.76-4.54c-2.92-10.48-3-20.93-12.16-27.54a6.59,6.59,0,0,0-.19-2.46Z"/><path class="cls-35" d="M218.91,156.68l22.58,7.92c-1,2.3-9.73,6.7-12.17,8-11.77,6.33-36.35-.35-37.24-7.34l24.58-8.6A5,5,0,0,1,218.91,156.68Z"/><path class="cls-37" d="M212.74,96.81c22.35-2,32.47,9.77,32.86,24.82.54,21.31-9.65,27.72-24.7,28.11s-28.58-.8-29.29-26.5C191.14,106,197.75,98.13,212.74,96.81Z"/><path class="cls-35" d="M201.76,122.93l15.07-.56a10.1,10.1,0,0,1,10.42,9.07c.6,5.75,1.06,12.38.31,14.34-3.35,8.77-10.6,15.77-20.17,8.66a22.91,22.91,0,0,1-9-17.86l-.25-9.77A3.79,3.79,0,0,1,201.76,122.93Z"/><path class="cls-35" d="M227,163.07c.13,5.39-4.51,11.14-9.89,11.28s-9.47-5.38-9.61-10.78l-.29-19.41,19.5-.5Z"/><path class="cls-8" d="M220.87,153c-6.29,6.91-13.52,3.09-13.52,3.09l0-1.76C213.48,157.71,220.87,153,220.87,153Z"/><path class="cls-35" d="M174.81,294.25a20.6,20.6,0,0,0-.64,8.54s-.71,2.19-2.09,1-1.73-8.07-1.73-8.07l4.46-9.82A15.26,15.26,0,0,1,174.81,294.25Z"/><path class="cls-38" d="M216.52,320l-.81,6.8a163.9,163.9,0,0,1-29.7-1l-.13-6.7s12,1.1,16.13,1.22C205.55,320.36,216.52,320,216.52,320Z"/><path class="cls-38" d="M250.38,316.93v7.24s-3.73,4.73-31.78,2.57l-.93-7.7S240.32,321.31,250.38,316.93Z"/><path class="cls-14" d="M241,239.63l1.14,12.45s-31.07-17.72-44-48c-5.64-13.14-6-39.74-6-39.74l9.93-3.46S198.46,209.68,241,239.63Z"/><rect class="cls-14" x="153.34" y="242.68" width="69.07" height="2.93"/><path class="cls-34" d="M129.29,202.49h60.39a1.22,1.22,0,0,1,1.19,1l9.43,42.16h-59a3.11,3.11,0,0,1-3-2.33L128.11,204A1.22,1.22,0,0,1,129.29,202.49Z"/><path class="cls-14" d="M129.26,203.49h58.65a1.18,1.18,0,0,1,1.15.93l9.16,41.19H140.94a3,3,0,0,1-2.92-2.28L128.11,205A1.18,1.18,0,0,1,129.26,203.49Z"/><path class="cls-35" d="M195.6,245.61c4.54-.12,9.27-.63,9.27-.63s.83-1.74-1.51-2.19a21.37,21.37,0,0,0-3.78-.11l-.61-2.36,11.08-.49,8.62,1.81L245,228.81l-2.75-28.05L257.87,195a352.76,352.76,0,0,1,3.24,37.37,7.3,7.3,0,0,1-5.28,7.32C244.09,243.11,205,253.79,205,253.79l-10.82-2.43-7.44-5.75S193.54,245.67,195.6,245.61Z"/><path class="cls-8" d="M261.11,232.4a7.3,7.3,0,0,1-5.28,7.32c-2.2.64-5.36,1.53-9,2.56,9.71-8.59,3.16-23.95-1.49-34.39a4.58,4.58,0,0,0-2.56-2.58l-.45-4.55L257.87,195A352.76,352.76,0,0,1,261.11,232.4Z"/></g></svg>