<svg xmlns="http://www.w3.org/2000/svg" viewBox="0 0 312.39 507.48"><rect width="312.39" height="507.48" style="fill:#edf5fa"/><polygon points="291.93 335.14 94.71 435.42 12.48 127.23 209.71 26.96 291.93 335.14" style="fill:#d6e6f2"/><path d="M102.29,143.12c-6-1.82-28.47-4.08-36.66.36s-8.2,13.78-8.2,13.78L108,153.59S108.27,144.94,102.29,143.12Z" style="fill:#cce4f2"/><path d="M99.05,145.4c-4.89-1.48-24-3-30.64.6s6,5.92,6,5.92H97.88S103.94,146.89,99.05,145.4Z" style="fill:#04b8b5"/><polygon points="51.02 238.39 58.37 240.2 71.37 155.64 64.94 153.59 51.02 238.39" style="fill:#fc0"/><path d="M142,284.91c-.16-1.29-.24-6.91-.78-9.14-.23-.95-1.7-3.57-2.4-5.18l-8.68-41.42-4.46-59.28-18.32-.59L116.66,229s2.09,11.7,3.11,15.18c1.64,5.57,7.4,18.09,10.88,25.44-.48,1.87-1.48,6.22-1,8,.56,2,1.29,7,1.49,8.48l-.46,3.07-1.9,4.42s-.74,1.79.67,2.68l3.26-3.91v.72l-1,4.71s-.38,1.9,1.17,2.5l.87-1.7-.09.31a2,2,0,0,0,1.25,2.47l3.18-6.21-.51,2.31s-.39,1.9,1.16,2.5l2.19-4.27,1.15-10.21H142A1.28,1.28,0,0,0,142,284.91Z" style="fill:#f6cbac"/><path d="M125.7,169.89l-18.32-.59L116.66,229s2.09,11.7,3.11,15.18c1.53,5.18,4.32,22.41,8.78,21,3,0,7.48.31,9.61-1.81,3.16-3.15-8-34.12-8-34.12Z" style="fill:#e9f5ff"/><path d="M133.36,263.23c-5.61-2.57-6.94-8.75-8.48-14.18-2.42-8.56-3.09-17.44-4.2-26.24-1.24-9.76-1.94-19.72-3.84-29.36a62.87,62.87,0,0,1,.11-23.84l-9.57-.31L116.66,229s2.09,11.7,3.11,15.18c1.53,5.18,4.32,22.41,8.78,21,3,0,7.48.3,9.61-1.81l.06-.09A5.51,5.51,0,0,1,133.36,263.23Z" style="opacity:0.1"/><path d="M116.87,262.81l-27.9.24,5.1,84.82s-.71,14.55-2,25c-1.25,10.18-.74,28.57.1,44.73l5-1.17c4.38-1.09,8.65-2.19,12.85-3.29l6.64-56.64s2.07-57,1.59-66.61C117.79,281.12,117.25,265.39,116.87,262.81Z" style="fill:#f6cbac"/><path d="M92.18,417.6c.89,17,2.15,31.47,2.15,31.47l11.39.42L110,413.14c-4.2,1.1-8.47,2.2-12.85,3.29Z" style="fill:#f6cbac"/><path d="M93.64,440.39c.31-5.19.67-10.39.89-15.59.11-2.6.18-5.21.24-7.81l-2.59.61C92.64,426.42,93.21,434.59,93.64,440.39Z" style="opacity:0.06"/><path d="M116.87,262.81l-27.9.24,5.1,84.82s-.71,14.55-2,25c-1.25,10.18-.74,28.57.1,44.73l2.59-.61c.26-11.61.18-23.24,1.37-34.81.29-2.79.66-5.52,1.09-8.21.47-14.39,1.58-28.81,1.69-43.25-.17-3.41-.22-6.86,1.55-9.92,3.64-6.31,11.19-6.38,17.25-8.76L118,312c.25-10.09.38-18.81.21-22.06C117.79,281.12,117.25,265.39,116.87,262.81Z" style="opacity:0.06"/><path d="M55.93,446.67l11.28,2.5,4.94-26.79-15.44,3.7C56.26,437.7,55.93,446.67,55.93,446.67Z" style="fill:#f6cbac"/><path d="M61,284.14c0,10.54,1,56,1,58.94,0,6.71-2,22.45-3,31.71-.37,3.43-1.48,31.29-2.25,51.29l15.44-3.7,12.89-70,6.53-64.86,2.73-24.44H65.16C63.8,267,61,276.11,61,284.14Z" style="fill:#f6cbac"/><path d="M55.93,446.67c.56-4,1.35-11.9,2.23-20.94l-1.42.34C56.42,434.27,56.13,441.69,55.93,446.67Z" style="opacity:0.06"/><path d="M61,284.14c0,10.54,1,56,1,58.94,0,6.71-2,22.45-3,31.71-.23,2.09-1.35,29.48-2.22,51.28l1.42-.34c1.57-16.06,3.4-35.62,4.67-42.61,2.09-11.52,1.16-23,4-34.19.43-7.68-.77-15.38,2.48-22.72,2.54-5.73,7.7-11.78,14.36-12.45a11.52,11.52,0,0,1,3.08.07,4.32,4.32,0,0,1,2.21.09l2.66-26.43,2.73-24.44H65.16C63.8,267,61,276.11,61,284.14Z" style="opacity:0.06"/><path d="M79.8,454.25l-10.67-7.1-13.95-.61a27.44,27.44,0,0,0-2.71,14.76H89S88.57,455.42,79.8,454.25Z" style="fill:#e9f5ff"/><path d="M79.8,454.25l-.23-.15c-5.22-.13-7.92,1.28-9.72,6.34a6.72,6.72,0,0,1-.4.86H89S88.57,455.42,79.8,454.25Z" style="fill:#77addb"/><path d="M52.31,458.17a20.78,20.78,0,0,0,.16,3.13H89a6.6,6.6,0,0,0-1.33-3.13Z" style="fill:#809eae"/><path d="M124.94,454.46l-17.17-7.55-13.92-.24s-4.69,6.72-3.71,14.63h44S133.71,455.63,124.94,454.46Z" style="fill:#e9f5ff"/><path d="M124.94,454.46l-1.12-.5c-.23.05-.46.11-.69.14a4.29,4.29,0,0,0-3.84,3,10.67,10.67,0,0,1-.48,1.91,15.36,15.36,0,0,0-.14,2.25h15.44S133.71,455.63,124.94,454.46Z" style="fill:#77addb"/><path d="M90.07,457.69a17.52,17.52,0,0,0,.07,3.61h44a6.44,6.44,0,0,0-1.84-3.61Z" style="fill:#809eae"/><path d="M112.87,226.27H66.56S55,255.2,54.5,270.75,53.75,310,53.75,310s7.28,1.58,31.55,1.58c18.33,0,37.52-1.58,37.52-1.58l-.66-26.16C121.49,248.52,112.87,226.27,112.87,226.27Z" style="fill:#05aaab"/><path d="M66.56,226.27S55,255.2,54.5,270.75c-.26,7.62-.45,21.19-.57,33,2.89-8.94,18.71-12.07,27.2-14.66.33-1.12,8.4-26.64,9.59-27.46,8.45-5.83,18.55-7.64,28.5-9.14a179.66,179.66,0,0,0-6.35-26.24Z" style="opacity:0.1"/><path d="M125.7,169.89s0-11.15-10.1-14.08c0,0-2.79-1.76-17.11-5.66-4.25-1.16-14.73-1.23-19.89-1.8,0,0-24.56,8.93-25.58,11.13,0,0,6.94,15.93,10.26,25.46,0,0,1.29,25.88.09,35.37-.71,5.64-6.71,37.17-6.71,37.17l62.31-7s4.44-4.35-2-24.23c-2.29-7,0-33.62,0-37.39v-.69s-.23-2.69-.74-6.25c6-3.14,6.56-2.86,10.11-4.21Z" style="fill:#e9f5ff"/><path d="M84.48,232.63c-2.59-4.83-4-10.09-5.51-15.34a101.83,101.83,0,0,0-7.4-18.23c-4.52-9-7.93-19.25-13.57-27.77,1.88,4.58,3.89,9.67,5.28,13.65,0,0,1.29,25.88.09,35.37-.71,5.64-6.71,37.17-6.71,37.17l46.12-5.16C95.67,246.74,88.72,240.55,84.48,232.63Z" style="fill:#6588ab;opacity:0.06"/><path d="M96.21,131.08l-15.08-.44L78.6,148.35l-8.95,3.05c.22,5,14.16,8.74,19.79,8.66s10.83-4.49,10.61-9.48l-3.54-.83Z" style="fill:#f6cbac"/><path d="M84.73,140.1c5,4.24,9.26,5.57,11.78,4.75a7,7,0,0,1-.21-1.52C91.4,144.6,84.73,140.1,84.73,140.1Z" style="opacity:0.1"/><path d="M76.05,127.75c-.47,8.37,12.48,15.42,16.87,15.8,9.36.8,15.63-8.5,16.1-16.88l2.41-22.45-40.05,7Z" style="fill:#f6cbac"/><path d="M93,92.6s-21.21-2.51-22.65,19.68c-.39,6,4.18,21.45,10,25.16L78,126s-3.74.27-3.25-8.44c.18-3.18,1.61-3.19,2.72-3.12,1.5.08,1.43,2.2,1.43,2.2l1.79.1.13-2.34c.16-3,3-5.19,6.3-5l6.18.08C91.57,106.62,93,92.6,93,92.6Z" style="fill:#0e3c62"/><path d="M96.79,93l-4.21-.32L87,109.3s12.26,2.15,17-2.54c0,0,6.38,8.47,5.77,14.09,0,0,3-3,3.8-10.43C113.61,110.42,115.49,95.07,96.79,93Z" style="fill:#0e3c62"/><g style="opacity:0.5"><path d="M92.32,115.57c-5.06-.74-6.91,0-6.27,3.76s1.79,5.74,5.91,5.53A6,6,0,0,0,97.77,119C97.91,117.45,97.29,116.3,92.32,115.57Z" style="fill:#e7f7f8"/></g><g style="opacity:0.5"><path d="M105.85,117.29c-4.86-.52-5.68.45-5.86,2a6.11,6.11,0,0,0,4.38,7c3.78,1.08,5.25-.66,6.51-4S110.65,117.8,105.85,117.29Z" style="fill:#e7f7f8"/></g><path d="M112.64,118.65a17.77,17.77,0,0,0-4.89-1.49l0,0c-.39-.07-.81-.14-1.27-.2l-.63-.07a12.62,12.62,0,0,0-4.31,0,4.13,4.13,0,0,0-.5.13,7,7,0,0,1-2,.34,7.71,7.71,0,0,1-1.95-.84l-.51-.27a14,14,0,0,0-4.29-1.14l-.65-.08c-.44-.06-.84-.1-1.22-.13h0a19.06,19.06,0,0,0-5.43.23.26.26,0,0,0-.3.25l0,.89a.31.31,0,0,0,.27.32l.13,0a.82.82,0,0,1,.4.78,1.5,1.5,0,0,0,0,.35,7,7,0,0,0,.13,1.57c.56,3.26,1.59,5.46,4.76,5.81a8.6,8.6,0,0,0,1.54,0,6.29,6.29,0,0,0,6-5.2v0l0-.25a1.11,1.11,0,0,0,0-.17c.19-1.05.69-1.1.89-1.07H99c.18,0,.54.18.56,1.08,0,.15,0,.29,0,.44s0,.1,0,.15v0a6.39,6.39,0,0,0,4.7,6.37,8.73,8.73,0,0,0,1.45.3c3,.33,4.35-1.53,5.49-4.47a7.09,7.09,0,0,0,.42-1.53c0-.06,0-.14.06-.23.13-.57.51-.65.51-.65l.12,0a.28.28,0,0,0,.3-.24l.13-.84a.29.29,0,0,0-.13-.28Zm-15.23.29a5.66,5.66,0,0,1-5.48,5.55,8.18,8.18,0,0,1-1.42,0c-2.73-.31-3.56-2.11-4.09-5.18-.23-1.38-.11-2.28.38-2.82.69-.74,2.18-.93,4.84-.59l.64.09C97.2,116.67,97.51,117.74,97.41,118.94Zm13.15,3.24c-1.06,2.77-2.17,4.3-4.75,4a8.46,8.46,0,0,1-1.34-.28,5.75,5.75,0,0,1-4.12-6.61c.14-1.19.65-2.15,5.46-1.64l.61.07c2.52.32,3.85.85,4.33,1.71A3.29,3.29,0,0,1,110.56,122.18Z" style="fill:#31597a"/><polygon points="78.81 116.64 85 116.65 85.19 115.42 78.71 115.81 78.81 116.64" style="fill:#31597a"/><path d="M100.06,149.57s-5.65,8.82-10.62,10.49c0,0,6.51,4.32,18.55-6.86C108,153.2,105.68,147.23,100.06,149.57Z" style="fill:#cce4f2"/><path d="M99.86,155a1.5,1.5,0,1,0,1.49,1.5A1.5,1.5,0,0,0,99.86,155Z" style="fill:#3ca4b7"/><path d="M103.34,173.22c2.52-7.56-3-16.39-3.21-16.76a.33.33,0,0,0-.45-.1.32.32,0,0,0-.1.44c.06.09,5.57,8.94,3.15,16.21-1.68,5,.65,20.1.75,20.74a.34.34,0,0,0,.32.28h0a.33.33,0,0,0,.28-.37C104.1,193.5,101.72,178.1,103.34,173.22Z" style="fill:#04b8b5"/><path d="M65,152.26s11.21,13.55,24.49,7.8a129.63,129.63,0,0,1-21.35-10.14Z" style="fill:#cce4f2"/><path d="M78.25,156.42a1.5,1.5,0,1,0,1.55,1.44A1.49,1.49,0,0,0,78.25,156.42Z" style="fill:#3ca4b7"/><path d="M91.35,184.28a31.57,31.57,0,0,1-5.58-10.9c-2.16-7.49-7.14-15.56-7.19-15.64a.33.33,0,0,0-.45-.1.31.31,0,0,0-.1.44c0,.08,5,8.07,7.11,15.48a32.24,32.24,0,0,0,5.69,11.1,17.31,17.31,0,0,1,2.65,4.48.33.33,0,0,0,.31.22l.1,0a.33.33,0,0,0,.21-.41A17.64,17.64,0,0,0,91.35,184.28Z" style="fill:#04b8b5"/><path d="M67.45,152.34,61,154.85s11.21,6.9,15.3,27.37-1.39,58-1.39,58l7.79,4.11,2.57-58.49s-4.81-19.32-7-24C74.34,153.59,67.45,152.34,67.45,152.34Z" style="fill:#fc0"/><path d="M89.82,183.68l-5.65-3.27s1.23,5.2-.25,6.64c-1.85,1.82-4.61,1.53-6.06,1.21,0,0-1-.81-1.21-4.29l-1.53,6.57,1.76,10.63-1.94,3.41,6.54,6.88,11.44-13.54-1.7-12.16A2.82,2.82,0,0,0,89.82,183.68Z" style="fill:#f6cbac"/><path d="M82.18,240.2S54,237.94,51,238.39s-9.84,20.87-11,24.42-7.07,21.29,2,22.43,35,6.14,38.32,0S93.77,244.38,82.18,240.2Z" style="fill:#f6a71c"/><path d="M51,238.39c-3.26,0-5.39,9.06-8.08,16S48,264.34,51,265,65,267.9,71.37,258.86c3.72-5.25,5.13-13.56,11.1-16,1.85-.77,3.72,1.48,3.72,1.48s.07-1-2.32-3.41S54.28,238.37,51,238.39Z" style="fill:#fc0"/><polygon points="128.54 265.1 130.4 270.59 138.72 270.1 137.43 263.86 128.54 265.1" style="fill:#fff"/><path d="M76.88,201.17l-3,4.25,8,5.45,3.87-4.45A9.14,9.14,0,0,0,76.88,201.17Z" style="fill:#fff"/><path d="M75.4,203.75c-4.35.11-15.14,8.58-15.14,8.58s3.88-33.71,2.59-39.14S59,159.22,53,159.48A18.18,18.18,0,0,0,47.6,174c.77,9-5.22,56.93,4,57.58,13.34,1,32.37-12.28,31.31-21.75C82.64,207.39,77.81,203.69,75.4,203.75Z" style="fill:#e9f5ff"/><g style="opacity:0.06"><path d="M76.45,218.63l-1,.61a29,29,0,0,1-14.58,5.07c-8.33.36-10.17-7.33-11.27-14.08-1.49-9.12-1.46-18.4-1.69-27.63,0-2-.16-4.16-.22-6.43,0,12.81-4.69,54.76,3.93,55.37,12,.85,28.68-9.81,31.06-18.86C81.33,215.16,79.13,217,76.45,218.63Z" style="fill:#6588ab"/></g><polygon points="48.77 266.93 55.27 267.73 56.02 263.86 49.98 263.29 48.77 266.93" style="fill:#244759"/><rect x="109.65" y="214.81" width="73.46" height="43.24" rx="12.64" style="fill:#0e3c62"/><path d="M107.22,460.86h32.15a26,26,0,0,0,.24-5.16Q123.38,458.36,107.22,460.86Z" style="fill:#399bad"/><path d="M121.69,444.83l-7,6.66a12.37,12.37,0,0,0-8.9,9.37h1.46q16.19-2.5,32.39-5.16a30.91,30.91,0,0,0-2.7-10.95Z" style="fill:#77addb"/><path d="M210.81,451.93l-7-6.66-4.15,0-12,2.19a29.14,29.14,0,0,0-1.55,13.86h33.62A12.4,12.4,0,0,0,210.81,451.93Z" style="fill:#77addb"/><path d="M187.64,447.44l12-2.19-11.07-.06A21.91,21.91,0,0,0,187.64,447.44Z" style="fill:#399bad"/><path d="M107.22,460.86h32.15a24.66,24.66,0,0,0,.27-3.15H127.23Q117.23,459.31,107.22,460.86Z" style="fill:#577a8d"/><path d="M107,457.62a11.39,11.39,0,0,0-1.19,3.24h1.46q10-1.56,20-3.15H107.82A6,6,0,0,1,107,457.62Z" style="fill:#577a8d"/><path d="M185.82,457.71a24.72,24.72,0,0,0,.27,3.59h33.62a11.89,11.89,0,0,0-1.39-3.59Z" style="fill:#577a8d"/><path d="M198.34,258.49l-32.45-5.16.08-1.08-2.27.73-4.58-.73.16,2.15-33.4,10.7-1,76.64-4.76,103.18,18.41,1.71L151,363.57l11.51-67.28,11.51,67.28,12.46,83.06,12.27-1.23,4.8-.89-3.42-102.77Z" style="fill:#0e3c62"/><path d="M198.79,445.4l4.81-.48v-.41Z" style="fill:#1d3947"/><path d="M165.89,253.33l.08-1.08-2.27.73-4.58-.73.16,2.15-33.4,10.7-1,76.64-4.09,88.57c.9-9,2-17.94,2.57-26.89,1-17.17,1.32-34.38,2.92-51.51,1.23-13.14,4.51-59.81,6.07-65.44,4.75-17.17,23.07-18.55,40.38-17.61,25.68,1.39,22.14,23.42,24,38.15.74,6,2,11.8,2.62,17.69l0,.11c.18,1,.32,1.93.47,2.9l-1.53-69.22Z" style="opacity:0.1"/><path d="M198.08,142.65a157.55,157.55,0,0,0-19-4.22,96.57,96.57,0,0,0-19-1.65c-8.39.07-15.72,2.42-21.79,3.74a147.27,147.27,0,0,0-19.82,5.55l8.41,62.09-1,56.94h72.86c-.43-4.28.3-51.38.3-51.38Z" style="fill:#1a72ad"/><path d="M186.2,190.07c-16.93,5.63-47.13,4.71-55-1.74-1.79-1.46-2.14-6.1-3.27-12.6l-1,32.43-1,56.94c.69-.34,4-32.88,7.06-34.44,3.79-1.89,11.88-4.33,15.88-5.23,19.37-4.32,30.93-6.73,50.21-12.21l-7.82-38.16C187.21,179.73,190.56,188.63,186.2,190.07Z" style="opacity:0.1"/><path d="M129.26,204.3,118.6,146.07a16.16,16.16,0,0,0-4.71,11.14c0,6.85-1.25,58,0,59.7s1.45,10.19,18.34,9.23c10.26-.59,52-10.28,52-10.28l-1.51-11.13Z" style="fill:#fff"/><path d="M113.89,157.21c-.19,3.71-3.38,21.72-3.51,36.55,4.57.28,14.44-1.65,19-1.85l-10.8-45.84S114.34,148.64,113.89,157.21Z" style="fill:#1c77c3"/><path d="M129.26,204.3,127,191.69a9.81,9.81,0,0,1-10,8.06,11.16,11.16,0,0,1-3.58-.56c0,7.38,0,13.56.3,16.27,3.95,1.86,19.27-3.26,26.46-2.93,3.82.17,38.29,6.13,47.54,5.23l-4.87-13Z" style="opacity:0.1"/><rect x="116.72" y="191.97" width="3.58" height="25.68" transform="translate(-63.63 53.76) rotate(-20.28)" style="fill:#495057"/><path d="M111.79,189.79l2-.76-.41-1.12a.64.64,0,0,0-.31-.34.61.61,0,0,0-.46,0l-.93.35a.53.53,0,0,0-.33.31.57.57,0,0,0,0,.46Z" style="fill:#fff"/><path d="M111.34,190.59a.61.61,0,0,1,0-.46.58.58,0,0,1,.34-.31l2.24-.83a.59.59,0,0,1,.45,0,.58.58,0,0,1,.31.34l1,2.79-3.36,1.24Z" style="fill:#343b43"/><path d="M112.38,193.38l.27.75a.7.7,0,0,0-.37.35.67.67,0,0,0,0,.5l2.87,7.78-.74.27-2.88-7.77a1.43,1.43,0,0,1,0-1.11A1.44,1.44,0,0,1,112.38,193.38Z" style="fill:#343b43"/><path d="M124.59,220.07l.06,1a.13.13,0,0,1-.09.14.14.14,0,0,1-.16,0l-.59-.79Z" style="fill:#0e3c62"/><polygon points="123.53 220.46 124.87 219.97 124.64 216.24 121.28 217.48 123.53 220.46" style="fill:#343b43"/><path d="M137.55,194.53l-7.06-4.83L118,186.11s-1,2.18,1.76,3.59a18,18,0,0,1,4,2.65s.48.93-1.61,1.25-8.51,2-8.51,2l-4.17,5.46a2.25,2.25,0,0,0,.48,2s-.16,4,.64,4.84c0,0,.16,3.58,1.77,3.43l1.12.31s-.8,3.59,1.12,3.43,4.5-2.81,4.5-2.81l12.2-1.4s4-1.72,5.62-3.43l9.47-.16-1.28-11.55Z" style="fill:#f8c5ac"/><path d="M145.62,205.75c-5.63.39-11.41.24-16.82,2-6.85,2.28-12.28,2.7-18.08-2.26a8.11,8.11,0,0,1-.78-.77c0,1.23.18,2.76.64,3.2,0,0,.16,3.59,1.77,3.44l1.12.31s-.8,3.59,1.12,3.43,4.5-2.81,4.5-2.81l12.2-1.4s4-1.72,5.62-3.43l9.47-.16-.18-1.64Z" style="opacity:0.1"/><path d="M198,142.65l-9.13,27.94L191,196.06l-47.18-.48-.68,11.8s45,13.73,54.92,13.73,11.24-17,11.24-18.3-3.44-42.18-4.41-49.56A14.72,14.72,0,0,0,198,142.65Z" style="fill:#fff"/><path d="M198,142.65l-9.69,25.56L190.69,192c6,1.21,14.92.87,21,1.78-1-12.51-6-35-6.72-40.51A14.72,14.72,0,0,0,198,142.65Z" style="fill:#1c77c3"/><path d="M170.09,118.72l-20.23,5.14-1.32,12.37a11.32,11.32,0,1,0,22.58.49Z" style="fill:#f8c5ac"/><path d="M149.86,123.86l-.66,6.23c1.19.84,2.9,5.61,4,6.68,9.49,9.45,15.71-3,17.49-8l-.58-10.1Z" style="opacity:0.1"/><path d="M159.93,86.77a17,17,0,0,0-17.22,17.34,17.41,17.41,0,0,0,.35,3.39l.05.77s.73,12.28,3,15.91a42.05,42.05,0,0,0,6.81,7.91c1.31,1.56,3.49,2.53,7,2.53,3.7,0,5.84-.88,7.09-2.31l0,.06a51.29,51.29,0,0,0,6.7-8.19c1.56-2.48,2.5-11.44,3-15.65.15-4.84.77-3.14.77-5.32C177.5,93.63,169.92,86.77,159.93,86.77Z" style="fill:#f8c5ac"/><path d="M140.78,108.55c-.48,1.61,1.29,6.59,1.45,7.55s1.06,4.32,2.66,3.68-1.22-11.07-1.22-11.07S141.27,107,140.78,108.55Z" style="fill:#f8c5ac"/><path d="M176.62,108.55s-3.05,10.76-1.44,11.4,2.25-2.89,2.41-3.85,1.92-5.94,1.44-7.55S176.62,108.55,176.62,108.55Z" style="fill:#f8c5ac"/><path d="M170.84,83.84c-2.37-.8-9.71,0-14.83.41s-11.64,2.81-12.74,7.82c-1.34,6.06-.43,15.68-.27,16.64s2.56,3.67,2.56,3.67-.3-11.29,2.6-15.64c2.44-3.67,22.33-1.43,24.42-.15s2.6,15.94,2.6,15.94c1.44-1.56,2.86-8.09,2.94-10.18A20.58,20.58,0,0,0,175.29,91C174.47,89.67,176.55,85.77,170.84,83.84Z" style="fill:#c47939"/><polygon points="180.56 188.48 172.77 195.87 194.09 196.21 190.19 187.84 180.56 188.48" style="fill:#f8c5ac"/><path d="M142.16,98v2.57a214.73,214.73,0,0,0,36,1.77l0-2.66S170.12,100.69,142.16,98Z" style="fill:#e11e19"/><path d="M162.36,79.09C139.64,78.34,142.16,98,142.16,98l9,1a5.66,5.66,0,0,1,1.48-2.77,5.3,5.3,0,0,1,3.77-1.57,28.1,28.1,0,0,0,3.67.17,5.44,5.44,0,0,1,5.34,5.34,4.9,4.9,0,0,1,0,.54l13,.26S182.38,79.76,162.36,79.09Z" style="fill:#e11e19"/><path d="M178.14,95.77c-5.6-3,0,6.58,0,6.58s8.43.1,7.26-3.58C184.79,96.9,183.74,98.77,178.14,95.77Z" style="fill:#e11e19"/><polygon points="127.52 187.84 137.55 194.53 142.07 139.92 131.33 142.18 127.52 187.84" style="fill:#0e3c62"/><path d="M125.88,250.13l.7-24a27,27,0,0,1-6.42-1.59Z" style="fill:#124e77"/><rect x="200.91" y="222.25" width="61.93" height="46.34" rx="12.38" style="fill:#1a72ad"/><path d="M213.29,222.25H240a26.08,26.08,0,0,1,12.57,6.47,6,6,0,0,0,.37.77c1.83,3.06.37,7.41,0,10.72a106.17,106.17,0,0,0-.62,12.61c.08,5.18.75,10.3,3.17,14.66a12.27,12.27,0,0,1-5.1,1.12H213.29a12.39,12.39,0,0,1-12.38-12.38V234.63A12.39,12.39,0,0,1,213.29,222.25Z" style="fill:#124e77"/><path d="M245.64,271.82c0,10.7-2.45,65.78-2.45,68.74,0,6.8,1.84,24.16,2.78,33.55.56,5.52,2.86,73,2.86,73s3,8.43,3.27,14.85H217.66s.38-6,8.65-7.16l9.94-7.11L221.37,350l-9.43-74.58-22.75-31.72H241C242.31,247.63,245.64,263.67,245.64,271.82Z" style="fill:#856451"/><path d="M245.64,271.82c0,10.7-2.45,65.78-2.45,68.74,0,6.8,1.84,24.16,2.78,33.55.56,5.52,2.86,73,2.86,73s3,8.43,3.27,14.85H235c3.77-3.34,5.79-8.23,7.4-13.9l.16-.39A46.19,46.19,0,0,0,245,425.28c-.27-8.9-1.59-17.93-2.45-26.3-1.65-16-2.57-32.31-5.92-48-1.46-6.84-3.87-13.38-5.66-20.12-1.28-4.82-3-9.41-6.84-12.75a5.8,5.8,0,0,0-2.13-1.2,5.57,5.57,0,0,0-5-1l-5.13-40.54-22.75-31.72H241C242.31,247.63,245.64,263.67,245.64,271.82Z" style="opacity:0.1"/><path d="M226.31,454.76a39.06,39.06,0,0,0,8.88,1.18c7,.23,16-.38,16.35-.44a31.19,31.19,0,0,1,.56,6.42H217.66S218,456,226.31,454.76Z" style="fill:#e11e19"/><path d="M181,455l16-7.49-8.35-93.31s-3.64-66-3.2-75.69c.4-8.9,3.44-32.21,3.78-34.82l27.87,13.5-7.74,88.26s.66,16.15,1.83,26.75c2.1,18.86-1.18,65.49-1.92,75.44,1,2,4.23,9.26,3.71,14.31H172.56S172.93,456.15,181,455Z" style="fill:#856451"/><path d="M189.19,243.66l27.87,13.5-7.74,88.26s.66,16.15,1.83,26.75c2.1,18.86-1.18,65.49-1.92,75.44,1,2,4.23,9.26,3.71,14.31H200.06a24.6,24.6,0,0,0,7.18-14.9,264.42,264.42,0,0,0,1.94-27.84c.47-21.29-6-41.17-8.22-62.09-1.53-14.54,3.49-32.4-10.22-42.4a4.58,4.58,0,0,0-4.19-.84c-.73-15.74-1.34-31.07-1.14-35.37C185.81,269.58,188.85,246.27,189.19,243.66Z" style="opacity:0.1"/><path d="M189.19,243.66H241c1.28,4,4.61,20,4.61,28.16,0,5.22,2.45,23.51,1.85,38.65-9.19,2.36-18.12,2.16-31,2.16l-2-16.15-.94,16.16c-7.05.48-21.56-.09-29.7-1-.68-14.84,1.36-29.08,1.55-33.15C185.81,269.58,188.85,246.27,189.19,243.66Z" style="fill:#1c77c3"/><path d="M214.55,296.9l-1,15.74c-.56,0-6.21.07-6.86.09C206.69,312.52,214.1,293.53,214.55,296.9Z" style="opacity:0.1"/><path d="M241,243.66c1.28,4,4.61,20,4.61,28.16,0,4.53,1.85,18.93,1.94,32.56-1.1-5.57-3.07-10.66-4.81-16.1s-2.89-11.19-6.23-15.85c-10.64-14.85-33.2-12.94-49.32-12.85.88-7.61,1.79-14.56,2-15.92Z" style="opacity:0.05"/><path d="M181,455l.36-.18a10.58,10.58,0,0,0,6.48,2s24-1.5,24.66-1.61a30.79,30.79,0,0,1,.46,6.72H172.56S172.93,456.16,181,455Z" style="fill:#e11e19"/><path d="M167.16,282.63c.13-1.31.07-7,.56-9.29a34,34,0,0,1,1.5-4.32l8.53-43.25V165.91l18.57-1.07-4.87,60.38s-1.82,11.92-2.77,15.48c-1.52,5.7-7,18.54-10.37,26.09.53,1.88,1.67,6.28,1.2,8.12-.52,2-1.13,7.18-1.29,8.64l.54,3.11,2.05,4.43s.79,1.8-.61,2.74l-3.41-3.89,0,.73,1.17,4.76s.44,1.92-1.11,2.56l-.93-1.7.09.31a2,2,0,0,1-1.2,2.54l-3.38-6.22.57,2.33s.44,1.93-1.11,2.57l-2.34-4.28-1.42-10.32h.09A1.53,1.53,0,0,1,167.16,282.63Z" style="fill:#856451"/><path d="M186.44,219.46c-.19-8.59-4.37-16.52-4.39-25.07a10.09,10.09,0,0,0-4.31-8.66V165.91l18.57-1.07-4.87,60.38s-1.82,11.92-2.77,15.48c-1.52,5.7-7,18.54-10.37,26.09.53,1.88,1.67,6.28,1.2,8.12-.52,2-1.13,7.18-1.29,8.64l.54,3.11,2.05,4.43s.79,1.8-.61,2.74l-3.41-3.89,0,.73,1.17,4.76a3,3,0,0,1-.08,1.47,10.68,10.68,0,0,0-1.86-4.58c-9.18-13.31-.35-31,4.1-44.42C183.11,239,186.65,229,186.44,219.46Z" style="opacity:0.1"/><path d="M177.53,162.45h0l1.25-2.87a16,16,0,0,1,9.55-7.83l26.21-9.18a5,5,0,0,1,2.25,0l25.87,9.07c6.81,1.77,9.77,7.36,10.75,9.73l4.7,19.19c-1.11.37-8.72,4.88-17.85,6l-2.06,44.3,6.72,27.88H187.32l3.23-27.88.28-30.13a11.12,11.12,0,0,1-5.08-9.49v-.75s.18-2.38.58-5.68c-4.72-1.49-9.49-3.38-10.3-3.65Z" style="fill:#f6a71c"/><path d="M188.3,151.75l1.46-.51h51.72l1.15.4a15.4,15.4,0,0,1,8.7,6.06H180A15.4,15.4,0,0,1,188.3,151.75Z" style="fill:#fc0"/><polygon points="254.85 167.39 256.44 173.85 176.62 173.85 177.13 167.39 254.85 167.39" style="fill:#fc0"/><path d="M251.5,183.55a46.49,46.49,0,0,1-11.27,3L240,190h-54.2c.07-.86.25-2.77.54-5.19-1.29-.41-2.58-.85-3.8-1.27Z" style="fill:#fc0"/><path d="M239.5,206.17H191.11l-.28-5.43a9.61,9.61,0,0,1-1.36-1h49.85Z" style="fill:#fc0"/><polygon points="238.57 222.32 190.63 222.32 190.63 215.86 238.87 215.86 238.57 222.32" style="fill:#fc0"/><polygon points="238.41 231.5 240.01 237.97 189.67 238.49 190.42 232.03 238.41 231.5" style="fill:#fc0"/><polygon points="242.29 247.86 243.89 254.33 187.66 254.58 188.41 248.13 242.29 247.86" style="fill:#fc0"/><path d="M235.69,199.43c.31-3-.13-9.93,2-11.66a5.7,5.7,0,0,1,2.52-.66l-2,43.76,6.72,27.88H234.05a29.88,29.88,0,0,0,.74-2.93c1.62-8.24-.23-16.43-.63-24.69C233.64,220.52,234.63,210,235.69,199.43Z" style="opacity:0.1"/><path d="M242.63,151.64c6.81,1.77,9.77,7.36,10.75,9.73l4.7,19.19a90.44,90.44,0,0,1-8.9,3.85,5.83,5.83,0,0,0,.77-4.54c-2.92-10.48-3-20.93-12.17-27.54a6.39,6.39,0,0,0-.19-2.46Z" style="opacity:0.1"/><path d="M216.76,142.57l22.58,7.92c-1,2.3-9.73,6.7-12.17,8-11.77,6.33-36.35-.35-37.23-7.34l24.57-8.6A5,5,0,0,1,216.76,142.57Z" style="fill:#856451"/><path d="M210.59,82.7c22.36-2,32.47,9.77,32.86,24.82.55,21.31-9.65,27.72-24.69,28.11s-28.59-.8-29.29-26.5C189,91.9,195.6,84,210.59,82.7Z" style="fill:#302a2a"/><path d="M199.62,108.82l15.07-.56a10.1,10.1,0,0,1,10.42,9.07c.59,5.75,1.06,12.38.3,14.34-3.35,8.77-10.6,15.77-20.17,8.66a22.9,22.9,0,0,1-9-17.86L196,112.7A3.78,3.78,0,0,1,199.62,108.82Z" style="fill:#856451"/><path d="M224.8,149c.14,5.39-4.51,11.14-9.89,11.28s-9.47-5.38-9.61-10.78L205,130.05l19.5-.5Z" style="fill:#856451"/><path d="M218.72,138.91c-6.29,6.91-13.51,3.09-13.51,3.09l-.05-1.76C211.33,143.6,218.72,138.91,218.72,138.91Z" style="opacity:0.1"/><path d="M172.66,280.14a20.65,20.65,0,0,0-.63,8.53s-.71,2.2-2.1,1-1.73-8.07-1.73-8.07l4.46-9.82A15.15,15.15,0,0,1,172.66,280.14Z" style="fill:#856451"/><path d="M214.37,305.84l-.81,6.8a163.9,163.9,0,0,1-29.7-1l-.13-6.7s12,1.09,16.13,1.22C203.4,306.25,214.37,305.84,214.37,305.84Z" style="fill:#cdd7dd"/><path d="M248.23,302.82v7.24s-3.73,4.73-31.77,2.57l-.94-7.7S238.17,307.2,248.23,302.82Z" style="fill:#cdd7dd"/><path d="M238.87,225.52,240,238S209,220.25,196,190c-5.63-13.14-6-39.74-6-39.74l9.92-3.46S196.31,195.57,238.87,225.52Z" style="fill:#0e3c62"/><rect x="151.19" y="228.57" width="69.07" height="2.93" style="fill:#0e3c62"/><path d="M127.15,188.38h60.38a1.22,1.22,0,0,1,1.19,1l9.43,42.16h-59a3.12,3.12,0,0,1-3-2.33L126,189.91A1.23,1.23,0,0,1,127.15,188.38Z" style="fill:#124e77"/><path d="M127.11,189.37h58.65a1.2,1.2,0,0,1,1.16.94l9.15,41.19H138.79a3,3,0,0,1-2.92-2.28L126,190.87A1.2,1.2,0,0,1,127.11,189.37Z" style="fill:#0e3c62"/><path d="M193.46,231.5c4.53-.12,9.27-.63,9.27-.63s.82-1.74-1.52-2.19a21.29,21.29,0,0,0-3.77-.11l-.61-2.36,11.08-.49,8.62,1.81,26.36-12.83-2.74-28,15.58-5.73A352.29,352.29,0,0,1,259,218.29a7.3,7.3,0,0,1-5.28,7.32c-11.74,3.39-50.88,14.07-50.88,14.07L192,237.25l-7.44-5.75S191.39,231.56,193.46,231.5Z" style="fill:#856451"/><path d="M259,218.29a7.3,7.3,0,0,1-5.28,7.32c-2.2.64-5.36,1.53-9,2.56,9.71-8.59,3.16-23.95-1.48-34.39a4.62,4.62,0,0,0-2.57-2.58l-.44-4.55,15.58-5.73A352.29,352.29,0,0,1,259,218.29Z" style="opacity:0.1"/></svg>