<svg xmlns="http://www.w3.org/2000/svg" xmlns:xlink="http://www.w3.org/1999/xlink" viewBox="0 0 190 150"><defs><clipPath id="a"><rect width="190" height="150" style="fill:none"/></clipPath></defs><g style="isolation:isolate"><g style="clip-path:url(#a)"><path d="M58.27,23.45a14,14,0,0,0-14-14l-.48,0A9.42,9.42,0,0,0,30.27,9,9.46,9.46,0,0,0,14.1,15.63c0,.34,0,.68.06,1A16.32,16.32,0,0,0,27.65,45.24a8.13,8.13,0,0,0,10.52-.55,9.45,9.45,0,0,0,14.61-7.92,9.81,9.81,0,0,0-.23-2A14,14,0,0,0,58.27,23.45Z" style="fill:#e9f5ff"/><path d="M130.43,109.32c-2.07,2.93-5.45,4-8.73,3.84l0,20.36c.73,0,1.45,0,2.16-.11V122.13a5.54,5.54,0,0,1,2.75-4.73h0l6.64-4a12.83,12.83,0,0,1-3.2-6c.08.5.17,1.11.3,1.89Z" style="fill:#f0c8b2"/><path d="M121.66,113.16v20.36h.09l0-20.36Z" style="fill:#f0c8b2"/><path d="M130.13,107.41c-.16-1.14-.21-1.69-.28-2.28l-.18.15C129.8,106,130,106.75,130.13,107.41Z" style="fill:#e5b7a3;opacity:0.7000000000000001"/><path d="M113.63,104.85c-.19,1.69-.32,2.69-.43,3.37a23,23,0,0,0,.68-3.17Z" style="fill:#e5b7a3;opacity:0.7000000000000001"/><path d="M121.66,113.16v-4c-1.69-.12-4.64-1.72-7.78-4.09a23,23,0,0,1-.68,3.17c-.08.48-.14.81-.2,1.12C114.31,111.38,117.91,113,121.66,113.16Z" style="fill:#e5b7a3"/><path d="M113.88,105.05a23,23,0,0,1-.68,3.17,11.37,11.37,0,0,1-3,5.31l6.22,3.81a3.38,3.38,0,0,0,.41.24,5.54,5.54,0,0,1,2.93,4.83v11c.64.05,1.29.07,1.94.07V109.14C120,109,117,107.42,113.88,105.05Z" style="fill:#f2c0af"/><path d="M122.43,109.17a1.57,1.57,0,0,1-.56,0l-.18,0v4c3.28.11,6.66-.91,8.73-3.84v0c-.13-.78-.22-1.39-.3-1.89-.17-.66-.33-1.37-.46-2.13C127.1,107.35,124.51,108.82,122.43,109.17Z" style="fill:#f0c8b2"/><path d="M122.43,109.17a1.57,1.57,0,0,1-.56,0l-.18,0v4c3.28.11,6.66-.91,8.73-3.84v0c-.13-.78-.22-1.39-.3-1.89-.17-.66-.33-1.37-.46-2.13C127.1,107.35,124.51,108.82,122.43,109.17Z" style="fill:#e5b7a3;opacity:0.7000000000000001"/><path d="M121.69,109.15h0v4h0Z" style="fill:#f0c8b2"/><path d="M121.69,109.15h0v4h0Z" style="fill:#e5b7a3;opacity:0.7000000000000001"/><path d="M121.66,95.78a2,2,0,0,1-.47.06c-.38,0-2.86-.88-2.91-1.73-2.26-.11-4.15-.27-4.15-.27.11,1.87.14,3.53.13,5.08h7.4Z" style="fill:#f0c8b2"/><line x1="125.82" y1="100.45" x2="126.19" y2="100.23" style="fill:#f0c8b2"/><path d="M121.66,105.53a36.87,36.87,0,0,1-7.74-.77l-.28-.05c0,.05,0,.09,0,.14-5.23-4-10.81-10.09-11.51-14.86-1.78-.49-7-3.33-7.38-8.13-.23-2.89.86-4.67,2.28-5.35.46.61,1.08.72,1.8,1.79A2.32,2.32,0,0,0,96,79.7c-.87,1.57-.33,4.27.79,5.66a16.63,16.63,0,0,0,2.77,2.46c.83.43,2.08,1.18,2.28.21a3.34,3.34,0,0,0-.13-1.67,2.52,2.52,0,0,0-.9-1.08,2.1,2.1,0,0,1-1.08-1.72,1.49,1.49,0,0,1,.34-1.32c0,.11,0,.18,0,.18a.27.27,0,0,0,.11.06c.35.14,1.34,0,1.39-5.52,0,0-4.36-21.72,4.53-24.94l.44-.14a14.42,14.42,0,0,0-1.84,5.6c2.06-7.67,15.32-2.75,16.29-2.37-8.39-2.42-11.8,2.24-11.8,2.24C129.65,53.82,140,78.58,140.5,77c-.05,5.1.95,5,.95,5s0,0,0,0a1.7,1.7,0,0,1,.47,1.51,2.09,2.09,0,0,1-1.07,1.72,2.54,2.54,0,0,0-.91,1.08,3.22,3.22,0,0,0-.12,1.67c.19,1,1.44.22,2.28-.21a16.63,16.63,0,0,0,2.77-2.46c1.11-1.39,1.65-4.09.79-5.66a2.32,2.32,0,0,0-3.25-1.23,3.67,3.67,0,0,1,.49-.72,9.12,9.12,0,0,0,.91-1.44c5.32-.65,6.21,10.55-3.49,13.69-1.1,5.18-5.73,11.21-10.5,15.13,0-.16,0-.31,0-.49l-.23,0a36.59,36.59,0,0,1-7.88.84" style="fill:#f0c8b2"/><path d="M121.66,100.46v5.07h0v-5.07Z" style="fill:#f0c8b2"/><polygon points="121.67 95.78 121.66 95.78 121.66 98.92 121.67 98.92 121.67 95.78" style="fill:#f0c8b2"/><path d="M129.57,104.69c0,.2.07.39.1.59l.18-.15c0-.16,0-.32,0-.49Z" style="fill:#f0c8b2"/><path d="M113.91,104.77l-.27-.06a.66.66,0,0,0,0,.14l.25.2A2.66,2.66,0,0,0,113.91,104.77Z" style="fill:#f0c8b2"/><path d="M113.91,104.77a2.66,2.66,0,0,1,0,.28c3.14,2.37,6.09,4,7.78,4.09v-3.61A36.35,36.35,0,0,1,113.91,104.77Z" style="fill:#f0c8b2"/><path d="M121.69,109.15l.18,0a1.57,1.57,0,0,0,.56,0c2.08-.35,4.67-1.82,7.24-3.89,0-.2-.07-.39-.1-.59a36.59,36.59,0,0,1-7.88.84Z" style="fill:#f0c8b2"/><path d="M121.69,105.53h0v3.61h0Z" style="fill:#f0c8b2"/><path d="M141.48,82.06a1.65,1.65,0,0,1,.47,1.51,2.09,2.09,0,0,1-1.07,1.71,2.58,2.58,0,0,0-.91,1.09,3.41,3.41,0,0,0-.13,1.66c.2,1,1.45.22,2.29-.2a17.52,17.52,0,0,0,2.76-2.46c1.12-1.4,1.66-4.09.8-5.67a2.32,2.32,0,0,0-3.25-1.23C141.56,80.08,141.81,81.92,141.48,82.06Z" style="fill:#e5b7a3"/><path d="M124,94.15a.69.69,0,0,0-.2-.85c-.16-.12-2,.36-2.54.32-.75,0-3-.94-3,.48h0c1.1,0,2.28.09,3.38.09C122.32,94.2,123.13,94.18,124,94.15Z" style="fill:#e5b7a3"/><path d="M121.19,95.84a2,2,0,0,0,.47-.06V94.2c-1.1,0-2.28,0-3.38-.09C118.33,95,120.81,95.84,121.19,95.84Z" style="fill:#e5b7a3"/><path d="M121.67,95.78a3.45,3.45,0,0,0,2.3-1.63c-.84,0-1.65,0-2.31,0Z" style="fill:#e5b7a3"/><polygon points="121.66 94.2 121.66 95.78 121.67 95.78 121.66 94.2" style="fill:#e5b7a3"/><path d="M98.81,78.3A2.33,2.33,0,0,0,96,79.7c-.86,1.58-.32,4.27.8,5.67a17.52,17.52,0,0,0,2.76,2.46c.84.42,2.09,1.17,2.29.2a3.29,3.29,0,0,0-.13-1.66,2.57,2.57,0,0,0-.9-1.09,2.07,2.07,0,0,1-1.08-1.71,1.49,1.49,0,0,1,.34-1.33,8.3,8.3,0,0,0-.56-2.62A7.46,7.46,0,0,0,98.81,78.3Z" style="fill:#e9bbb1"/><path d="M141.23,81.53a1.37,1.37,0,0,0,.25.53c.33-.14.08-2,1-3.59a2.15,2.15,0,0,0-.57.38A2.61,2.61,0,0,0,141.23,81.53Z" style="fill:#916f61"/><path d="M127.82,34.82l3.05,1.75c-6.45-2.17-13.1-.66-16.15.3a7.36,7.36,0,0,0-1.74.61c.27,0,.55,0,.82,0a6.12,6.12,0,0,1,3.33,1c-1.34-.6-3.65-.82-7.53.83a16.32,16.32,0,0,0-1.51.73c-1.65.79-5,2.35-11.29,5.3a18.86,18.86,0,0,0,4.58,1.19,9.25,9.25,0,0,1-4.49,3.53c-5.39,1.81-7-.51-7-.51s2.34,4.07,6.5,4.08h.74a39.31,39.31,0,0,0-1.85,7.63c-.31,3.33.65,5.6.94,11.83a7.57,7.57,0,0,0,.57,3.14,2.11,2.11,0,0,0,.18.27,3.1,3.1,0,0,1,1.42-.32,3.1,3.1,0,0,0-1.42.32c.46.59,1.09.72,1.8,1.78a7.46,7.46,0,0,1,.7,1.32,8.3,8.3,0,0,1,.56,2.62c0,.11,0,.18,0,.18a.38.38,0,0,0,.12.06c.34.14,1.33,0,1.38-5.52,0,0-4.37-21.72,4.53-24.94l.44-.14a14.47,14.47,0,0,0-1.84,5.6c2.14-8,16.34-2.35,16.34-2.35-8.43-2.46-11.85,2.22-11.85,2.22C129.65,53.82,140,78.58,140.5,77c-.05,5.1.94,5.06.94,5.06s0,0,0,0a1.37,1.37,0,0,1-.25-.53,2.61,2.61,0,0,1,.64-2.68,2.15,2.15,0,0,1,.57-.38,3.67,3.67,0,0,1,.49-.72,8.82,8.82,0,0,0,.91-1.45c.15-.28.3-.55.46-.88a29.17,29.17,0,0,0,2.45-11.35C148.36,34.83,127.82,34.82,127.82,34.82Zm-13,11.77c-2.17-1.2-6.09,2.59-8,1.69-.11-.05-1.76-2.18-1.86-2.37v0a2.23,2.23,0,0,1,.62-3,7.59,7.59,0,0,1,2.57-1.55c.68-.25,1.62-.31,2,.33-.07.11-.16.21-.23.32h0a6.44,6.44,0,0,1-2.23,2.08,14.55,14.55,0,0,1,7.5-1.21l-6.67,3.63A6.87,6.87,0,0,1,114.84,46.59Z" style="fill:#916f61"/><path d="M119.72,133.45v7.73c.65,0,1.29.08,1.94.11v-7.77C121,133.52,120.36,133.5,119.72,133.45Z" style="fill:#fff"/><path d="M121.75,133.52v7.77c.72,0,1.43.05,2.15.05v-7.93C123.2,133.48,122.48,133.52,121.75,133.52Z" style="fill:#fff"/><path d="M121.66,133.52v7.77h.1v-7.77Z" style="fill:#fff"/><path d="M94,123.44a31.9,31.9,0,0,0-3.25,7.92l1,.62a30.09,30.09,0,0,1,3-7.81A7.45,7.45,0,0,1,94,123.44Z" style="fill:#1c77c3"/><path d="M119.72,130.5c-11.37-.29-21-2.82-25-6.33a30.09,30.09,0,0,0-3,7.81,59.83,59.83,0,0,0,28,9.2V130.5Z" style="fill:#1c77c3"/><path d="M149.65,123.63a10.12,10.12,0,0,1-.83.74,29.49,29.49,0,0,1,3.54,9.84l1-.55,0-.15A32,32,0,0,0,149.65,123.63Z" style="fill:#1c77c3"/><path d="M123.91,130.5v10.84a59.94,59.94,0,0,0,28.45-7.13,29.49,29.49,0,0,0-3.54-9.84C144.6,127.79,135.13,130.24,123.91,130.5Z" style="fill:#1c77c3"/><path d="M110.16,113.53l-1.2-.74a18.62,18.62,0,0,0-8.77,3.6,23,23,0,0,0-6.24,7,7.45,7.45,0,0,0,.75.73C99.34,116.27,105.93,117.43,110.16,113.53Z" style="fill:#0e3c62"/><path d="M94.7,124.17c4.07,3.51,13.65,6,25,6.33v-8.09a5.54,5.54,0,0,0-2.93-4.83,3.38,3.38,0,0,1-.41-.24l-6.22-3.81C105.93,117.43,99.34,116.27,94.7,124.17Z" style="fill:#0e3c62"/><path d="M148.82,124.37a10.12,10.12,0,0,0,.83-.74,22.81,22.81,0,0,0-5.13-6.13,23.21,23.21,0,0,0-10.14-4.74l-1,.63C137.62,117.69,144.28,117,148.82,124.37Z" style="fill:#0e3c62"/><path d="M126.66,117.4a5.54,5.54,0,0,0-2.75,4.73v8.37c11.22-.26,20.69-2.71,24.91-6.13-4.54-7.33-11.2-6.68-15.49-11l-6.64,4Z" style="fill:#0e3c62"/><path d="M108.13,41.33a7.59,7.59,0,0,0-2.57,1.55,2.23,2.23,0,0,0-.62,3A21.87,21.87,0,0,1,109.88,42c.07-.11.16-.21.23-.32C109.75,41,108.81,41.08,108.13,41.33Z" style="fill:#916f61"/><path d="M108.13,41.33a7.59,7.59,0,0,0-2.57,1.55,2.23,2.23,0,0,0-.62,3A21.87,21.87,0,0,1,109.88,42c.07-.11.16-.21.23-.32C109.75,41,108.81,41.08,108.13,41.33Z" style="fill:#fff;opacity:0.49;mix-blend-mode:screen"/><path d="M107.65,44.06l-1.45.61A6,6,0,0,0,107.65,44.06Z" style="fill:#916f61"/><path d="M107.65,44.06l-1.45.61A6,6,0,0,0,107.65,44.06Z" style="fill:#fff;opacity:0.49;mix-blend-mode:screen"/><path d="M105,45.91c.1.19,1.75,2.32,1.86,2.37,1.94.9,5.86-2.89,8-1.69a6.87,6.87,0,0,0-6.36-.11l6.67-3.63a14.55,14.55,0,0,0-7.5,1.21,6,6,0,0,1-1.45.61l1.45-.61A6.44,6.44,0,0,0,109.88,42a21.87,21.87,0,0,0-4.94,3.91Z" style="fill:#916f61"/><path d="M105,45.91c.1.19,1.75,2.32,1.86,2.37,1.94.9,5.86-2.89,8-1.69a6.87,6.87,0,0,0-6.36-.11l6.67-3.63a14.55,14.55,0,0,0-7.5,1.21,6,6,0,0,1-1.45.61l1.45-.61A6.44,6.44,0,0,0,109.88,42a21.87,21.87,0,0,0-4.94,3.91Z" style="fill:#fff;opacity:0.49;mix-blend-mode:screen"/><path d="M114,98.92l.23.18v-.18Z" style="fill:#e5b7a3"/><path d="M121.78,100.47h-7.4v.17l1.51,1.14,11.42.09,1.19-1.4Z" style="fill:#e5b7a3"/><rect x="121.66" y="100.23" width="0.01" height="0.23" style="fill:#e5b7a3"/><path d="M140.94,77c-.95,0-5.59,16.89-12.85,19.27-1.31-.72-11.18-.36-12.61-.48-5.71.36-12.73-17.13-12.73-17.13s-2.26-3-4.28-1.19c0,0,5.43,9,3.21,12.61.24,4,12.49,19.39,20.75,19.06S139.67,95,140.38,90.5c-2.89-2.82,1-8.36,1-8.36S141.89,77,140.94,77ZM122,105.1c-2.79,0-6.18-3.34-6.18-4.52s3.33-2,6.13-2,5.65.72,5.65,1.9S124.82,105.1,122,105.1Z" style="fill:#916f61"/><path d="M101.59,135.65c.47-.34.93-.69,1.39-1h-1.64C101.43,134.94,101.51,135.3,101.59,135.65Z" style="fill:none"/><path d="M43.15,134.61l.8.59.15-.59Z" style="fill:none"/><path d="M106.54,82.94c.06,1.07.09,2.39.09,3.82C106.93,85.09,107.25,83.11,106.54,82.94Z" style="fill:none"/><path d="M51.2,108.36s0,0,0-.06C51.28,108.44,51.3,108.47,51.2,108.36Z" style="fill:none"/><path d="M60.33,118.77a8.75,8.75,0,0,0,2-1.71c-1.65.19-2.76.37-3.26.46l.19,0C59.56,117.86,59.91,118.3,60.33,118.77Z" style="fill:#341f1e"/><path d="M85.3,118.87c.43-.43.85-.88,1.28-1.36l.31,0,0,0c-1.26-.17-2.47-.31-3.66-.43A10.22,10.22,0,0,0,85.3,118.87Z" style="fill:#341f1e"/><path d="M44.1,134.61l-.15.59c1.15.85,2.33,1.64,3.56,2.39,0-1,0-1.93,0-3Z" style="fill:#e9bbb1"/><path d="M64.32,113.73c0-.17.07-.33.11-.53a10.86,10.86,0,0,1-2.08,3.86c1.57-.18,3.59-.36,6.06-.46A8.4,8.4,0,0,1,64.32,113.73Z" style="fill:#e9bbb1"/><path d="M60.33,118.77c2.28,2.62,6.62,6.47,12.32,6.46v-7.74a14.87,14.87,0,0,1-4.24-.89c-2.47.1-4.49.28-6.06.46A8.75,8.75,0,0,1,60.33,118.77Z" style="fill:#e9bbb1"/><path d="M77.86,116.66c1.71.09,3.53.23,5.42.42a11.27,11.27,0,0,1-2-3.56l.11.39A8,8,0,0,1,77.86,116.66Z" style="fill:#f0c6bd"/><path d="M98.32,134.61q0,1.68,0,3.18c1.13-.67,2.24-1.38,3.3-2.14-.08-.35-.16-.71-.25-1Z" style="fill:#f0c6bd"/><path d="M72.65,117.49v7.74c3.7,0,8-1.67,12.65-6.36a10.22,10.22,0,0,1-2-1.79c-1.89-.19-3.71-.33-5.42-.42A11.4,11.4,0,0,1,72.65,117.49Z" style="fill:#f0c6bd"/><path d="M81.23,113.52l-.1-.36,0,0C81.14,113.3,81.19,113.4,81.23,113.52Z" style="fill:#c49c80;opacity:0.7000000000000001"/><path d="M64.46,113l0,.16s0-.11,0-.16Z" style="fill:#c49c80;opacity:0.7000000000000001"/><path d="M68.41,116.6c1.3-.06,2.72-.08,4.24-.08v-1.43a32,32,0,0,1-8.18-2s0,.11,0,.16c0,.2-.08.36-.11.53A8.4,8.4,0,0,0,68.41,116.6Z" style="fill:#e9bbb1"/><path d="M68.41,116.6c1.3-.06,2.72-.08,4.24-.08v-1.43a32,32,0,0,1-8.18-2s0,.11,0,.16c0,.2-.08.36-.11.53A8.4,8.4,0,0,0,68.41,116.6Z" style="fill:#c49c80;opacity:0.7000000000000001"/><path d="M68.41,116.6a14.87,14.87,0,0,0,4.24.89v-1C71.13,116.52,69.71,116.54,68.41,116.6Z" style="fill:#e9bbb1"/><path d="M68.41,116.6a14.87,14.87,0,0,0,4.24.89v-1C71.13,116.52,69.71,116.54,68.41,116.6Z" style="fill:#c49c80;opacity:0.7000000000000001"/><path d="M73.73,115.12a3.09,3.09,0,0,1-.61,0l-.47,0v1.43c1.62,0,3.36,0,5.21.14a8,8,0,0,0,3.48-2.75l-.11-.39c0-.12-.09-.22-.14-.34A38.48,38.48,0,0,1,73.73,115.12Z" style="fill:#f0c6bd"/><path d="M73.73,115.12a3.09,3.09,0,0,1-.61,0l-.47,0v1.43c1.62,0,3.36,0,5.21.14a8,8,0,0,0,3.48-2.75l-.11-.39c0-.12-.09-.22-.14-.34A38.48,38.48,0,0,1,73.73,115.12Z" style="fill:#c49c80;opacity:0.7000000000000001"/><path d="M77.86,116.66c-1.85-.09-3.59-.13-5.21-.14v1A11.4,11.4,0,0,0,77.86,116.66Z" style="fill:#f0c6bd"/><path d="M77.86,116.66c-1.85-.09-3.59-.13-5.21-.14v1A11.4,11.4,0,0,0,77.86,116.66Z" style="fill:#c49c80;opacity:0.7000000000000001"/><path d="M100.69,95.59h0v0A0,0,0,0,1,100.69,95.59Z" style="fill:#f0c6bd"/><path d="M86.62,74.33c0,4.06-1.79,6.59-4.48,8.1C84.56,81.41,87.93,78.62,86.62,74.33Z" style="fill:#f0c6bd"/><path d="M69,110.07l.46,0-.06,0Z" style="fill:#f0c6bd"/><path d="M80.44,109.38l-.22.05a21.68,21.68,0,0,0,.87,3.75l0,0v0C80.63,110.22,80.57,110.46,80.44,109.38Z" style="fill:#f0c6bd"/><path d="M65.23,109.5l-.26,0c-.22,2-.38,3-.51,3.59h0A21.73,21.73,0,0,0,65.23,109.5Z" style="fill:#f0c6bd"/><path d="M92.85,100.36a3,3,0,0,1,.15-1.6,1.5,1.5,0,0,1,.31-.45,19.51,19.51,0,0,1-6.22,2.13c12-5.76,2.31-11.26,3.79-22.07-.67,4.81-6.16,6.19-10.09,4.69a25.17,25.17,0,0,1-10.54,1.21c-5.47-.33-7.86,6.39-6.38,6.88-3.4-1.15-4.77-2.29-5.07-3.34a13,13,0,0,0,.54,15.75c-.34.35-7.24-4.1-6.66-10-.92.88-1.13,2.79-.86,5a.83.83,0,0,1,.13.18,3,3,0,0,1,.15,1.49,24,24,0,0,0,2.7,7.18,29.21,29.21,0,0,0,9.66,5.6c.13-.63.34-1,0,0a31.77,31.77,0,0,0,8.16,2,4.23,4.23,0,0,0,.48,0,3,3,0,0,0,.6,0,36.86,36.86,0,0,0,7.37-2c-.36-1.06-.46-3,0,0l0,0c5.28-2,10.58-5.36,11.81-10.5l.65-.24c.14-.54.29-1.13.43-1.72C93.46,100.87,93,100.87,92.85,100.36ZM72.59,101h0c.89,0,3.31-.62,3.52-.46,1.46,1.18-1.47,3.5-3.52,3.58l-.09,0c-.56,0-4.06-1.26-4.13-2.47C68.34,99.62,71.54,100.89,72.59,101Zm-3.21,9.12-3.06-1.75,6.32.24,6.82-.24L76.68,110l-.11,0-.43.22H69.76l-.32-.19" style="fill:#f0c6bd"/><path d="M73.19,95v0a1.42,1.42,0,0,0-1.06.18.89.89,0,0,0-.4.74.79.79,0,0,0,.15.35C72.41,96.24,73.07,95.19,73.19,95Z" style="fill:#f0c6bd"/><path d="M93.31,98.31a1.4,1.4,0,0,0-.32.45,3,3,0,0,0-.14,1.6c.12.52.61.51,1.17.33,4.24-.71,1.86-4.24,2.14-5.42C95.66,95.6,93.8,98.05,93.31,98.31Z" style="fill:#e9bbb1"/><path d="M72.59,101c-1-.06-4.24-1.33-4.16.67,0,1.22,3.56,2.46,4.11,2.46h.11V101Z" style="fill:#d09289"/><path d="M76.16,100.5c-.21-.17-2.63.47-3.51.45v3.12C74.69,104,77.63,101.67,76.16,100.5Z" style="fill:#d09289"/><path d="M52,98.76c0-.08-.09-.11-.12-.17a16.65,16.65,0,0,0,.27,1.65A2.94,2.94,0,0,0,52,98.76Z" style="fill:#e9bbb1"/><path d="M86.89,117.56,85.51,119c5.14,3.32,12.41,2.72,15.83,15.6H103l.14-.1A20.37,20.37,0,0,0,86.89,117.56Z" style="fill:#0e3c62"/><path d="M60,119l-1.2-1.42.32-.06C53.7,118,44.67,124.26,42,133.76c.36.3.76.56,1.13.85h1C47.8,121,54.94,121.9,60,119Z" style="fill:#0e3c62"/><path d="M60,119l.36-.23c-.42-.47-.77-.91-1-1.27l-.19,0-.32.06Z" style="fill:#0e3c62"/><path d="M85.3,118.87l.21.14,1.38-1.45-.31,0C86.15,118,85.73,118.44,85.3,118.87Z" style="fill:#0e3c62"/><path d="M72,133.19,60,119c-5,2.9-12.17,2-15.87,15.61h3.39c0,1,0,2,0,3a48.88,48.88,0,0,0,25.14,7.19V132.5Z" style="fill:#0e3c62"/><path d="M60.33,118.77,60,119l12,14.19.66-.69v-7.27C67,125.24,62.61,121.39,60.33,118.77Z" style="fill:#0e3c62"/><path d="M101.34,134.61c-3.42-12.88-10.69-12.28-15.83-15.6L72.65,132.5v12.28l.42,0a48.92,48.92,0,0,0,25.22-7q0-1.5,0-3.18Zm-28.65,3.62h0Z" style="fill:#0e3c62"/><path d="M72.65,125.23v7.27L85.51,119l-.21-.14C80.64,123.56,76.35,125.21,72.65,125.23Z" style="fill:#0e3c62"/><path d="M51.16,108.3s0,0,0,.06S51.28,108.44,51.16,108.3Z" style="fill:#f6a71c"/><path d="M106.52,89.06c-.07,0,0-.18.08-.54,0-.61,0-1.19,0-1.76C106.38,88.13,106.15,89.29,106.52,89.06Z" style="fill:#f6a71c"/><path d="M62.88,83.29c-.77.57-4.69,2.36-4.09,4.51A21,21,0,0,1,62.88,83.29Z" style="fill:#f6a71c"/><path d="M80.07,82.8a7.66,7.66,0,0,0,.72.27,14,14,0,0,0,1.35-.64A3.29,3.29,0,0,1,80.07,82.8Z" style="fill:#f6a71c"/><path d="M95.31,100.15a10.6,10.6,0,0,1-1.29.54c-.14.6-.28,1.18-.42,1.73h0c-1.16,4.53-2.32,7.18-5.51,8.37,10.41-2,14-10.68,12.62-15.13,1.24,3.81,1.18,9.56.09,8.41,4,5.49,5.58-6.58,5.8-15.54-.09.34-.13.53-.09.53-.35.22-.13-.93.12-2.29,0-1.44,0-2.75-.09-3.82.71.17.39,2.16.09,3.82,0,.57,0,1.16,0,1.76.44-1.56,1.94-6-.21-7C96,31.19,23.58,54.23,41,96.2c-.71-2.19,0-9.7,4.56-12.56-7.74,7.06-1.7,20.2,5.66,25.34a7.85,7.85,0,0,1-.72-3.08c2.13,2.4,6.34,4.21,6.61,4.32a9.28,9.28,0,0,1-2.31-2.79,24.53,24.53,0,0,1-2.7-7.18s0,.07,0,.11l-.26-1.77c-.28-2.25-.07-4.17.85-5-.58,5.91,6.32,10.36,6.66,10A13,13,0,0,1,58.8,87.8c-.61-2.15,3.31-3.94,4.09-4.51A20,20,0,0,0,58.8,87.8c.29,1,1.63,2.18,5,3.3-1.26-.77,1.14-7.14,6.48-6.83a25.25,25.25,0,0,0,10.55-1.2,5.94,5.94,0,0,1-.74-.28,3.21,3.21,0,0,0,2.08-.36c2.69-1.51,4.44-4,4.47-8.1,1.32,4.3-2,7.08-4.47,8.1a13.79,13.79,0,0,1-1.34.64c3.91,1.49,9.42.11,10.08-4.7-1.49,10.8,8.19,16.31-3.75,22.07a19.47,19.47,0,0,0,6.18-2.13c.21-.22.45-.41.65-.6a2,2,0,0,0,1.16-1.63M45.35,72.62A1.17,1.17,0,0,1,45.5,72C45.45,72.21,45.38,72.41,45.35,72.62Zm55,24a7.89,7.89,0,0,0,.31-1h0A7.89,7.89,0,0,1,100.38,96.58Z" style="fill:#f6a71c"/><path d="M55.31,66.75c.45-.33,1-.86.68-1.34a49.1,49.1,0,0,0-6.59,3.53,26.46,26.46,0,0,0-1.56,7.74A22.16,22.16,0,0,1,55.31,66.75Z" style="fill:#f6a71c"/><path d="M47.84,76.68a21.52,21.52,0,0,0-1.43,6.53,5.32,5.32,0,0,0,1.49-1.67A33.09,33.09,0,0,1,47.84,76.68Z" style="fill:#f6a71c"/><path d="M47.84,76.68a21.52,21.52,0,0,0-1.43,6.53,5.32,5.32,0,0,0,1.49-1.67A33.09,33.09,0,0,1,47.84,76.68Z" style="fill:#fff;opacity:0.49;mix-blend-mode:screen"/><path d="M45.5,72a1.22,1.22,0,0,0-.15.63C45.38,72.41,45.46,72.21,45.5,72Z" style="fill:#f6a71c"/><path d="M45.5,72a1.22,1.22,0,0,0-.15.63C45.38,72.41,45.46,72.21,45.5,72Z" style="fill:#fff;opacity:0.49;mix-blend-mode:screen"/><path d="M45.5,72a3.22,3.22,0,0,1,1-1.07c1-.7,1.93-1.36,2.92-2a22.84,22.84,0,0,1,2.85-5.39A22.38,22.38,0,0,0,49,66,11.26,11.26,0,0,0,45.5,72Z" style="fill:#f6a71c"/><path d="M45.5,72a3.22,3.22,0,0,1,1-1.07c1-.7,1.93-1.36,2.92-2a22.84,22.84,0,0,1,2.85-5.39A22.38,22.38,0,0,0,49,66,11.26,11.26,0,0,0,45.5,72Z" style="fill:#fff;opacity:0.49;mix-blend-mode:screen"/><path d="M56,65.41c.28.48-.23,1-.68,1.34a22.16,22.16,0,0,0-7.47,9.93,33.09,33.09,0,0,0,.06,4.86c.29-.46.56-1,.83-1.42a20.44,20.44,0,0,1,7.58-7.53c-.32,1.77-1.5,3.25-2.46,4.78-1.61,2.6-2.65,5.9-1.43,8.71,3.21-2.65,4.1-7.73,7.87-9.5a4.66,4.66,0,0,0-.69,2.91c3.93-1.92,6.91-5.38,10.74-7.48a18.08,18.08,0,0,1,10.12-2.14,31.27,31.27,0,0,0-15.4.66,14.75,14.75,0,0,1,11.26-3.4,6.28,6.28,0,0,0-4.46-1.62,17.88,17.88,0,0,0-4.78.86L71.63,64a62.21,62.21,0,0,0-9.89,1.25,7,7,0,0,0,2.85-1.93,5.91,5.91,0,0,0-3.35.36l2.58-1.89a4.31,4.31,0,0,0-1.56-.08,47.23,47.23,0,0,1,13.95-1.55c-5.4-1.76-11.1-.83-16.53.29a21.7,21.7,0,0,0-7.43,3.07,22.84,22.84,0,0,0-2.85,5.39A49.1,49.1,0,0,1,56,65.41Zm5.42,2.66c.21.58,2.55,3,2.78,3.61a1.92,1.92,0,0,1-.14,1.79h0c-.48-.2-.66-.77-1-1.11-2.08-1.84-4.68-7.4-5.52-9.59C58.67,64.17,60.66,66,61.41,68.07Z" style="fill:#f6a71c"/><path d="M56,65.41c.28.48-.23,1-.68,1.34a22.16,22.16,0,0,0-7.47,9.93,33.09,33.09,0,0,0,.06,4.86c.29-.46.56-1,.83-1.42a20.44,20.44,0,0,1,7.58-7.53c-.32,1.77-1.5,3.25-2.46,4.78-1.61,2.6-2.65,5.9-1.43,8.71,3.21-2.65,4.1-7.73,7.87-9.5a4.66,4.66,0,0,0-.69,2.91c3.93-1.92,6.91-5.38,10.74-7.48a18.08,18.08,0,0,1,10.12-2.14,31.27,31.27,0,0,0-15.4.66,14.75,14.75,0,0,1,11.26-3.4,6.28,6.28,0,0,0-4.46-1.62,17.88,17.88,0,0,0-4.78.86L71.63,64a62.21,62.21,0,0,0-9.89,1.25,7,7,0,0,0,2.85-1.93,5.91,5.91,0,0,0-3.35.36l2.58-1.89a4.31,4.31,0,0,0-1.56-.08,47.23,47.23,0,0,1,13.95-1.55c-5.4-1.76-11.1-.83-16.53.29a21.7,21.7,0,0,0-7.43,3.07,22.84,22.84,0,0,0-2.85,5.39A49.1,49.1,0,0,1,56,65.41Zm5.42,2.66c.21.58,2.55,3,2.78,3.61a1.92,1.92,0,0,1-.14,1.79h0c-.48-.2-.66-.77-1-1.11-2.08-1.84-4.68-7.4-5.52-9.59C58.67,64.17,60.66,66,61.41,68.07Z" style="fill:#fff;opacity:0.49;mix-blend-mode:screen"/><path d="M64.05,73.47h0a1.92,1.92,0,0,0,.14-1.79c-.23-.58-2.57-3-2.78-3.61-.75-2.07-2.74-3.9-3.93-5.3.84,2.19,3.44,7.75,5.52,9.59C63.39,72.7,63.57,73.27,64.05,73.47Z" style="fill:#f6a71c"/><path d="M79.59,90.78a.62.62,0,0,1-.58-.61,4.7,4.7,0,0,1,1.44-3.57,4.26,4.26,0,0,1,3.29-1.21,4.53,4.53,0,0,1,4,4.62.64.64,0,0,1-.64.64.65.65,0,0,1-.64-.65,3.25,3.25,0,0,0-2.79-3.34,3,3,0,0,0-2.29.87,3.4,3.4,0,0,0-1.06,2.59.63.63,0,0,1-.61.66A.22.22,0,0,1,79.59,90.78Z" style="fill:#d09289"/><path d="M178.73,22.61a9.43,9.43,0,0,0,2.67-6.54,9.88,9.88,0,0,0-10.06-9.68,10.2,10.2,0,0,0-3.1.47,16.68,16.68,0,0,0-4.36-1.15,10.92,10.92,0,0,0-15,.24,10.92,10.92,0,0,0-5.07-1.24A10.46,10.46,0,0,0,133.1,15a10.39,10.39,0,0,0,9.25,10.16,9.43,9.43,0,0,0-1.69,5.37,9.87,9.87,0,0,0,10.06,9.68,10.15,10.15,0,0,0,8-3.8,16.82,16.82,0,0,0,3.11.3c.47,0,.92,0,1.38-.07a10.8,10.8,0,0,0,7.9,3.4,10.46,10.46,0,0,0,10.66-10.26A10,10,0,0,0,178.73,22.61Z" style="fill:#e9f5ff;fill-rule:evenodd"/><path d="M154.19,29a10.9,10.9,0,0,1-3.28-2.19c-.84-.78-2-2.19-3.21-2.22a2.31,2.31,0,0,0-2.19,1.91,7,7,0,0,0,.5,4A6.45,6.45,0,0,0,152,34.35a6.54,6.54,0,0,0,6.33-5.48c-.05,0-.18.13-.23.15A5.06,5.06,0,0,1,154.19,29Z" style="fill:#e11e19;opacity:0.6000000000000001"/><path d="M154.31,18.05a3.42,3.42,0,0,0-2.65-.29,1.73,1.73,0,0,0-1.06,1,1.21,1.21,0,0,0,.32,1.36c.51.41,1.26.24,1.91.18,2.19-.2,3.45.57,3.77,2.19C156.48,20.73,156.16,18.94,154.31,18.05Z" style="fill:#04b8b5;mix-blend-mode:multiply"/><path d="M146.93,19.64a1.12,1.12,0,0,0-.86.11,2,2,0,0,0-.94,2.09,2.56,2.56,0,0,0,.8,1.44,1,1,0,0,1,.28-1.21c.24-.19.56-.26.82-.43a1.23,1.23,0,0,0,.52-1.13A1.06,1.06,0,0,0,146.93,19.64Z" style="fill:#fc0;opacity:0.6000000000000001"/><path d="M158.86,11.41a1.19,1.19,0,0,0-1.5.55,1.55,1.55,0,0,0,.16,1.41,3.36,3.36,0,0,0,2,1.57,1.61,1.61,0,0,1-.52-1.55c.11-.46.54-.84.48-1.31A.89.89,0,0,0,158.86,11.41Z" style="fill:#e11e19;mix-blend-mode:multiply"/><path d="M164.22,20.19c1.45-1.08,3.23-2.31,4.93-3.44,2.07-1.4,4-2.66,5.1-3.35a2.26,2.26,0,0,1,1.4,1.28.7.7,0,0,1,.06.17q-2.16,1.94-4.38,3.81c-1.11.92-2.22,1.83-3.35,2.72l-1.23.95a24.79,24.79,0,0,1-2.79,2,5.86,5.86,0,0,1-2.19.91,1.24,1.24,0,0,1-1.18-.59C159.8,23.06,163.31,20.87,164.22,20.19Z" style="fill:#ffcd01"/><path d="M160.57,24.59c.8-1.38,3-2.8,3.7-3.34,1.55-1.18,3.44-2.51,5.24-3.75,2.2-1.52,4.26-2.89,5.41-3.65l.23.09a2.41,2.41,0,0,0-.9-.54c-1.08.69-3,1.95-5.1,3.35-1.7,1.13-3.48,2.36-4.93,3.44C163.31,20.86,159.86,23,160.57,24.59Z" style="fill:#f6a71c;opacity:0.26"/><path d="M159.14,24.94a16.8,16.8,0,0,1,1.54-1.79c.61-.63,1.65-1.52,1.65-1.52a4.49,4.49,0,0,1,.65.56,3.75,3.75,0,0,1,.47.55,4.92,4.92,0,0,1,.29.46,5.5,5.5,0,0,1,.42,1,13.68,13.68,0,0,1-2.1,1.17,9.66,9.66,0,0,1-2,.67l-.28-.33-.28-.35Z" style="fill:#6588ab"/><path d="M159.74,25.68a14.56,14.56,0,0,0,1.77-1.08c1.07-.78,2.15-1.48,2.15-1.48l.08.08a5.5,5.5,0,0,1,.42,1,13.68,13.68,0,0,1-2.1,1.17,9.66,9.66,0,0,1-2,.67Z" style="fill:#e9f5ff;opacity:0.41000000000000003"/><path d="M159.14,24.94a16.8,16.8,0,0,1,1.54-1.79c.61-.63,1.65-1.52,1.65-1.52a4.49,4.49,0,0,1,.65.56,13.85,13.85,0,0,0-1.75,1.37c-.68.64-1.47,1.46-1.77,1.77Z" style="fill:#6588ab;opacity:0.5"/><path d="M159.89,26a4.79,4.79,0,0,1-2.73,4.32c-2.91,1.49-7.06-.94-7.06-.94a11.05,11.05,0,0,0,5-3.42c1.79-2.28,3.73-1.21,3.73-1.21a3,3,0,0,1,.73.56A2.2,2.2,0,0,1,159.89,26Z" style="fill:#e5b7a3"/><g style="opacity:0.48"><path d="M150.13,29.38h0l.09.05A.17.17,0,0,1,150.13,29.38Z" style="fill:#6b2b68"/><path d="M155.72,27c2.19-1.89,3.89-.47,3.89-.47l.22.21a4.22,4.22,0,0,0,.06-.73,2.2,2.2,0,0,0-.29-.69,3,3,0,0,0-.73-.56s-1.94-1.07-3.73,1.21a11,11,0,0,1-4.95,3.4A11.11,11.11,0,0,0,155.72,27Z" style="fill:#ae8673"/></g><circle cx="61.27" cy="44.77" r="3.48" style="fill:#d6e6f2"/><circle cx="131.53" cy="26.19" r="2.42" style="fill:#d6e6f2"/><circle cx="126.3" cy="31.23" r="1.69" style="fill:#d6e6f2"/><path d="M37.87,33.33h.33a1.84,1.84,0,0,1,.81.07l2.14,0,.65.08h.65c.84-.08,1.67.13,2.51.1h.55l.42,0c.28-.09.64.09.87-.17l0,0a.51.51,0,0,0-.23-.59l-.1,0c-.1,0-.22,0-.29-.07s0-.19,0-.28V31.14c0-.16,0-.32,0-.47,0-1.08,0-2.15-.05-3.22a1.83,1.83,0,0,1,0-.77,1.06,1.06,0,0,1,0-.19.05.05,0,0,1,0-.08V26c-.06-.15-.19-.3,0-.47-.06-.12-.18-.25.11-.3a1.7,1.7,0,0,0,.75-.33c.25-.17.34-.36.13-.6a.7.7,0,0,0-.75,0c-.23.2-.37.22-.34-.13l0-.73a1.15,1.15,0,0,1,0-.19.65.65,0,0,1,0-.24c0-.33,0-.66.07-1a10.23,10.23,0,0,1,.12-2.65c0-.25,0-.5.07-.75a.66.66,0,0,1,0-.14l0,0,0,0a3.08,3.08,0,0,0-.09-.85l-.24-.27a1.3,1.3,0,0,0-.87.06l-.87.41a.58.58,0,0,1-.44.17l-1.1.48c-.12.25-.46.23-.64.41.16.17,0,.32-.08.44s-.26-.1-.4-.11l-.28,0h0l-1.1.53-.21.13a.62.62,0,0,1-.44.17l-.22.1-.53.33-1,.52a.9.9,0,0,1-.52.29c-.19,0-.17.23-.32.29a1.7,1.7,0,0,1-.67.34l-.42.13a3,3,0,0,1-1,.54l-.42.12c0,.17-.17.23-.34.27a.11.11,0,0,1-.09,0l-1.86,1c-.29.15-.58.3-.88.44-.12.25-.45.22-.64.38a1.24,1.24,0,0,1-.46.27l-.21.11a2.6,2.6,0,0,1-.75.41c-.23.06-.36.31-.65.25,0,.25-.3.25-.46.36a.47.47,0,0,1-.33,0h-.54l-.53,0c-.13.08-.32.16-.22.32s.45.11.71.17a.91.91,0,0,1-.51.34l-.21.11c-.1.21-.35.26-.55.36l-.4.22a9.3,9.3,0,0,1-1.43.85c-.2.08-.31.28-.56.28a5.07,5.07,0,0,1-1.42.75l-1,.68-.86.58h0l-.24.16,0,.1.12.19h.56a1.83,1.83,0,0,0,.74-.27c2.16-1.31,4.43-2.48,6.54-3.85a.83.83,0,0,1,1.16.25,10.09,10.09,0,0,1,1.56,1.71,2.5,2.5,0,0,1,0,2.82.59.59,0,0,1-.67.26,38.66,38.66,0,0,0-5.27-.48c-1,0-1.93-.23-2.9-.31-.38,0-.76,0-1.13-.06h-.56l-.31.11c-.13.28.16.34.33.46l.2,0,.33.07c.2.12.49,0,.66.19h.65l.49,0h.09a5.48,5.48,0,0,1,1.4.17l.53.05h.88a15.41,15.41,0,0,1,2.44.25h0a.42.42,0,0,1,.38,0c.25-.1.42.12.64.12a1.69,1.69,0,0,1,1.23.25l.52,0c.06,0,.11-.11.21-.1a1,1,0,0,1,.69,0l.3,0h1c.84-.08,1.67.14,2.51.1h2.51Zm7.42-2.23a8.59,8.59,0,0,0-.08,1.13c0,.38-.25.52-.58.52-.63,0-1.26-.06-1.89-.08-.21,0-.15-.12-.18-.22a8.31,8.31,0,0,1-.13-1.72c0-.26.12-.28.36-.27s.76,0,1.14,0h.65C45.33,30.44,45.33,30.44,45.29,31.1ZM39.88,20.84c1.85-.77,3.51-1.83,5.39-2.54,0,0,.07,0,.14,0A16,16,0,0,1,45.3,20c-.22,1.42,0,2.86-.2,4.28,0,.25-.06.34-.38.35a10,10,0,0,1-3.09-.42,2.26,2.26,0,0,1-1.32-1.06,4.22,4.22,0,0,1-.58-2.07A.22.22,0,0,1,39.88,20.84Zm-9.45,6.7c-.08,0-.17-.08-.15-.16a.18.18,0,0,1,.2-.12c.12,0,.08.12.09.16S30.51,27.56,30.43,27.54Zm4.42,4.93c-1.06,0-2.12-.11-3.27-.08a3,3,0,0,0,.29-2.74,4.46,4.46,0,0,0-.68-1.17.4.4,0,0,1,0-.57.84.84,0,0,0-.4-1.33.85.85,0,0,0-1,.15c-.23.24-.41.16-.64,0,3.2-1.83,6.48-3.52,9.77-5.25a4,4,0,0,0,1,2.51,4.45,4.45,0,0,0,2.91,1.29,7.05,7.05,0,0,0,2.1.11c.29,0,.3.08.29.26-.06,1.22.11,2.42.12,3.64,0,.29-.1.32-.41.37-.79.13-1.6,0-2.39.14-.15,0-.22-.05-.27-.17a.36.36,0,0,0-.44-.19c-.23.06-.21.23-.21.39,0,.83,0,1.67,0,2.5,0,.31-.09.39-.43.29a1.63,1.63,0,0,0-.54,0C38.7,32.53,36.78,32.53,34.85,32.47Z" style="fill:#0e3c62"/><path d="M30.47,36c0-.16,0-.31,0-.47a.14.14,0,0,1,0-.09c.1-.65.1-.64.86-.59a18.49,18.49,0,0,0,3.16-.15h.77l.64,0,.26-.16c0-.08.06-.18.18-.21L36.25,34l-.2-.2h0a2.32,2.32,0,0,0-.87,0H35a4.74,4.74,0,0,1-1.07.12,1,1,0,0,1-.57.06,15.89,15.89,0,0,1-2.07,0h-.44c-.23.08-.42-.1-.65-.09s-.28.14-.42.21a1.21,1.21,0,0,0,0,.18c-.05.2,0,.41-.06.6l0,.54c0,.37-.1.63-.62.52l-.11,0c-.08.2.08.37.09.56a.29.29,0,0,1,.09.29c0,.22.29.4.14.65.24.08.24.22.12.38.13,0,.08.12.1.19l.42.12.43-.14c.19-.35.08-.74.14-1.11v-.66C30.43,36.19,30.45,36.1,30.47,36Z" style="fill:#0e3c62"/><path d="M29.27,22.9l.31.12a2,2,0,0,0,1.3-.32.71.71,0,0,1,.73,0,.84.84,0,0,0,.9,0c0-.18.2-.36,0-.54L32.31,22,32.09,22H32c-.18,0-.34-.06-.21-.28s.14-.31.21-.46,0-.07,0-.1c0-.19,0-.38,0-.57s-.21-.56-.31-.85l-.14-.18-.35-.37A1.2,1.2,0,0,0,30,19l-.45.56c.07.16-.11.31,0,.47l.18.29c.15.23.43.28.68.37.65-.11.65-.11.56.39a.29.29,0,0,1,0,.09c0,.42-.24.24-.44.09l-.2,0L30,21.2h-.11c-.22,0-.45,0-.65.1s-.23.44-.35.66v.19c0,.19,0,.39.13.55Zm1.21-3.19c.21,0,.27.18.38.31C30.5,20,30.5,20,30.48,19.71Zm-.65,2.34a.27.27,0,0,1,.4.06.33.33,0,0,1-.39.13A.11.11,0,0,1,29.83,22.05Z" style="fill:#0e3c62"/><path d="M18.77,32.19l-.22-.2-.1-.09c-1.09-1.07-1-.58-.09-1.67.05-.06.13-.1.19-.16l.1-.1a.7.7,0,0,1,.33-.35l.25-.47a.59.59,0,0,0-.93-.1,1.47,1.47,0,0,0-.42.48l-.77,1.07-.3-.31c-.11,0-.12-.08-.12-.16l-.76-.66c-.14,0-.27-.12-.43-.06s-.29.21-.09.37a14,14,0,0,0,1.09,1.35c.24.22.05.41-.12.58s-.06.47-.24.66a2.92,2.92,0,0,1-.19.76v.17a.5.5,0,0,0,.43.11,3.28,3.28,0,0,1,.2-.31l0-.16c.09-.2.18-.39.26-.59a1,1,0,0,1,.33-.52l.38.43c.19.34.66.48.79.85.09,0,.18,0,.19.11a.57.57,0,0,0,.84.18c.13-.32-.06-.57-.23-.83l-.4-.38Z" style="fill:#0e3c62"/><path d="M34.53,35c-.92-.23-2.29.2-2.53,1,0,0,0,0,0,.07l.3.11.19-.08c.09,0,.24-.1.27,0s-.15.1-.23.16a.45.45,0,0,0-.15.39c.09.1.11.24.26.3l.55-.1.17,0s0-.06.08-.06c.29,0,.71-.16.8.16s-.31.4-.62.47l-.19,0c-.31.08-.63.27-.86-.1l-.15-.11c-.54.07-.61.18-.56.87.08.19.3.16.46.22h.86l.87-.15c0-.08.14-.06.22-.08l.33-.18.22-.18c0-.1.11-.15.2-.2l.17-.37c0-.13,0-.25,0-.38s0-.06,0-.09l-.09-.19a1.46,1.46,0,0,1-.16-.19l-.11-.08c-.6-.17,0-.32,0-.48s0-.31,0-.46l-.21-.2Z" style="fill:#0e3c62"/><path d="M48.78,24.32a6.21,6.21,0,0,1,0,1.23c-.06.34-.54.3-.81.46a3.74,3.74,0,0,1-.48.18c-.22.11,0,.21,0,.32l.33.19h2.29c.23,0,.35-.14.51-.23,0-.14,0-.28,0-.43s-.32-.21-.45-.19c-.6.09-.53-.24-.52-.55,0-.1,0-.21,0-.32l.06-.62a1.1,1.1,0,0,1,0-.26c0-.21,0-.42,0-.63s-.3-.54-.75-.46h0l-.34.24-.29.23a1.19,1.19,0,0,1-.54.47.41.41,0,0,1-.05.09,2.53,2.53,0,0,0,0,.28s0,.06,0,.09C48.13,24.73,48.44,24.57,48.78,24.32Z" style="fill:#0e3c62"/><path d="M39.58,25.59c-.46-.32-1-.25-1.71.22-.11.07-.18.23-.36.1a1.06,1.06,0,0,0-.92-.06c-.05-.31-.09-.61-.13-.9s0-.31-.19-.35-.32.12-.38.26a3.31,3.31,0,0,0,0,2.53.78.78,0,0,0,1.16.32c.4-.23.61-.21.81.19a.78.78,0,0,0,1.08.31,2,2,0,0,0,1-1A1.2,1.2,0,0,0,39.58,25.59Zm-.35,1a1.11,1.11,0,0,1-.42.72c-.25-.1-.21-.5-.61-.4-.12,0-.1-.05-.1-.11a1.19,1.19,0,0,1,.79-.65C39.21,26.2,39.24,26.42,39.23,26.62Z" style="fill:#0e3c62"/><path d="M38.25,25a.82.82,0,0,0,.87-.75.71.71,0,0,0-.76-.75,1.12,1.12,0,0,0-1,.86C37.31,24.62,37.83,25,38.25,25Z" style="fill:#0e3c62"/><path d="M27.9,29.75c-.31,0-.49-.1-.43-.46s-.31-.63-.78-.52a2.55,2.55,0,0,0-1.21.68c-.12.12-.18.24-.05.37s.27,0,.38,0a3.15,3.15,0,0,1,1-.5l-.14.28c-.1.2-.4.37-.22.63s.46.13.72.07.28,0,.23.2a.64.64,0,0,1-.84.31.45.45,0,0,0-.45,0c-.15.11-.13.23,0,.38a.75.75,0,0,0,1.07.3c.5-.24.94-.55,1-1.12.71.45.95.47,1.43.16A1.13,1.13,0,0,0,30.09,29a1,1,0,0,0-1-.67C28.48,28.33,28.07,28.86,27.9,29.75Zm1.24-.84c.32,0,.38.31.39.56a.49.49,0,0,1-.45.57c-.09,0-.52-.2-.51-.42A.65.65,0,0,1,29.14,28.91Z" style="fill:#0e3c62"/></g></g></svg>