<svg id="Layer_2" data-name="Layer 2" xmlns="http://www.w3.org/2000/svg" viewBox="0 0 200 200"><defs><style>.cls-1{fill:#e11e19;}</style></defs><title>sei-du-selbst</title><path class="cls-1" d="M100,196a85.83,85.83,0,0,1-42.59-11.23c-24.89-14.28-40.25-40.17-40.1-67.55.19-31.68,31.2-72.38,56.46-83.48,11.12-4.89,20.66-4.16,27.57,2.11l.68.62,0,.93c-.88,28.32,4.85,46.78,17.49,56.45,10.8,8.25,24.74,8.79,37,9.27,13.45.52,26.16,1,26.16,14.11,0,27.88-15,53.13-40.09,67.54A85.85,85.85,0,0,1,100,196ZM87.27,34.57A30.41,30.41,0,0,0,75.35,37.4C51.15,48,21.46,87,21.28,117.25c-.15,25.94,14.45,50.48,38.09,64.05a82.38,82.38,0,0,0,81.2,0c23.84-13.69,38.08-37.64,38.08-64.07,0-8.84-7.65-9.54-22.32-10.11-24-.93-60.09-2.34-58.39-68.89A16.4,16.4,0,0,0,87.27,34.57Z"/><path class="cls-1" d="M164.2,185H134.06l6.51-3.73c23.84-13.69,38.08-37.64,38.08-64.07H181v-47c0-4.35-6.77-21.86-22.76-37.41-11.34-11-30.64-24-58.22-23.25-25.56,0-45.85,14.62-58.38,26.88C26.73,51,18.93,66.2,18.93,70.23v47h2.35c0,26.43,14.24,50.38,38.09,64.07L65.88,185H35.73a20.82,20.82,0,0,1-20.8-20.8v-94c0-6.39,9.61-22.64,23.91-36.64,13.06-12.78,34.27-28,61.13-28C128.9,4.79,149.14,18.38,161,30c16,15.53,24,34.19,24,40.28v94A20.82,20.82,0,0,1,164.2,185Zm-15.71-4H164.2a16.82,16.82,0,0,0,16.8-16.8V133.07C176.93,152.32,165.47,169.35,148.49,181Zm-129.56-48v31.16A16.82,16.82,0,0,0,35.73,181H51.44A77.76,77.76,0,0,1,18.93,133.07Z"/><path class="cls-1" d="M74.9,97.3a2,2,0,0,1-1.66-.89C70,91.56,66.45,89.05,62.68,89h-.26c-6.81,0-12.5,7.48-12.55,7.56a2,2,0,1,1-3.2-2.4c.29-.38,7.12-9.38,16.12-9.15,5.15.14,9.78,3.25,13.77,9.24A2,2,0,0,1,74.9,97.3Z"/><path class="cls-1" d="M98.4,174.07a30.24,30.24,0,0,1-30.2-30.2c0-2.67.3-6.4,2.85-8.09,2.89-1.91,6.76-.26,11.65,1.83,4.43,1.9,10,4.26,15.7,4.26s11.27-2.36,15.7-4.26c4.9-2.09,8.76-3.74,11.65-1.83,2.55,1.69,2.85,5.42,2.85,8.09A30.24,30.24,0,0,1,98.4,174.07ZM74.05,138.93a1.46,1.46,0,0,0-.8.19c-.24.16-1,1-1,4.75a26.2,26.2,0,0,0,52.4,0c0-3.76-.81-4.59-1-4.75-1.1-.73-4.7.81-7.88,2.17-4.77,2-10.7,4.58-17.27,4.58s-12.5-2.54-17.27-4.58C78.51,140.17,75.61,138.93,74.05,138.93Z"/><path class="cls-1" d="M121,159.87H74.35a2,2,0,0,1,0-4H121a2,2,0,1,1,0,4Z"/><path class="cls-1" d="M108.15,170.94a2,2,0,0,1-2-2v-26.8a2,2,0,0,1,4,0v26.8A2,2,0,0,1,108.15,170.94Z"/><path class="cls-1" d="M87.17,170.57a2,2,0,0,1-2-2V141.94a2,2,0,0,1,4,0v26.63A2,2,0,0,1,87.17,170.57Z"/></svg>