<svg xmlns="http://www.w3.org/2000/svg" xmlns:xlink="http://www.w3.org/1999/xlink" viewBox="0 0 215 215"><defs><clipPath id="a"><rect width="215" height="215" style="fill:none"/></clipPath><clipPath id="b"><path d="M136.61,156.3c-8.69.68-17.38,1-26,1A320,320,0,0,1,72.12,155c-6.18-.76-11.94-1.65-17.24-2.61,16.7,18,35.39,33.3,46.41,41.79a15.82,15.82,0,0,0,19.31,0c11-8.48,29.58-23.69,46.22-41.61C156.75,154.28,146.66,155.52,136.61,156.3Z" style="fill:#e11e19"/></clipPath><clipPath id="c"><path d="M152.63,96.82c6.92-4.25,10.25-15,10.28-15.16a2.62,2.62,0,0,1,5,1.51,42.78,42.78,0,0,1-2.53,6.15A1.62,1.62,0,0,0,167,91.66c5.22-.39,11.76-4.48,14.26-6.37a2.23,2.23,0,0,1,3.06.29,2.18,2.18,0,0,1-.35,3.13,44.77,44.77,0,0,1-12.29,6.42.53.53,0,0,0-.38.48l0,.26a.56.56,0,0,0,.63.59,37.46,37.46,0,0,0,12.44-4.53,2.18,2.18,0,0,1,2.27,3.73c-.39.24-7.58,4.56-15.28,5.24a.54.54,0,0,0-.5.5h0a.55.55,0,0,0,.47.58c7.35.94,14.66-2.23,14.75-2.27a2.18,2.18,0,0,1,1.77,4,36.78,36.78,0,0,1-14.7,2.81c-.79,0-1.59-.1-2.4-.2a.28.28,0,0,0-.31.25h0a.28.28,0,0,0,.21.29A92.7,92.7,0,0,0,182.86,109a1.89,1.89,0,0,1-.25,3.77h-.11a89.88,89.88,0,0,1-15.92-3.09c-3.7-.06-16.48,6.34-35.05,11.26-31.78,6.19-57.94.12-65.51-2.59C58.37,115.27,53.15,105,53.1,104.9a2.64,2.64,0,0,0-3.56-1.19,2.68,2.68,0,0,0-1.17,3.58,44.62,44.62,0,0,0,3.79,6,1.47,1.47,0,0,1-1,2.33c-5.28.69-12.77-2.37-15.66-3.87a2.22,2.22,0,1,0-2.08,3.92,44.8,44.8,0,0,0,13.26,4.28.71.71,0,0,1,.59.52h0a.71.71,0,0,1-.66.88,38,38,0,0,1-13-2.38,2.2,2.2,0,0,0-2.85,1.26A2.23,2.23,0,0,0,32,123.1c.43.17,8.34,3.26,16.13,2.6a.54.54,0,0,1,.59.41h0a.56.56,0,0,1-.37.67c-7.14,2.23-15,.32-15.07.3a2.2,2.2,0,0,0-2.67,1.62,2.23,2.23,0,0,0,1.61,2.69,36.78,36.78,0,0,0,15.13.25c.78-.17,1.56-.37,2.34-.61a.28.28,0,0,1,.36.19h0a.28.28,0,0,1-.16.33,93.23,93.23,0,0,1-11.83,4.29,1.93,1.93,0,0,0,.91,3.75l.11,0a90.37,90.37,0,0,0,15.29-5.89c6.24-1.2,52.25,21.52,122.51,1.6,6.65-1.89,25.13-20.07,25.13-48.07,0-50.32-91.12-57.93-91.12,9.56,0-49.69-49.38-58.67-75.44-39.86-10.9,7.87-11.15,30.78.11,38.15C123.47,115.39,148.43,98.24,152.63,96.82Z" style="fill:#e11e19"/></clipPath></defs><g style="isolation:isolate"><g style="clip-path:url(#a)"><path d="M62,203.09C42.13,204.92,11.74,180.66,20.3,151s27-19.13,28.16-38.65S42.78,74.44,60.05,60.53s33.29.39,57.32-8.9,47-28.19,73.94-6.45c19.23,15.52,19.37,39.31,8.53,57.18-4.34,7.16-20.73,14.35-22.06,20.8-4.68,22.57,16.28,26-4.78,48.63s-52,4.86-73.09,13.94S81.93,201.26,62,203.09Z" style="fill:#77addb;opacity:0.38"/><ellipse cx="76.21" cy="29.55" rx="12.96" ry="7.08" transform="translate(-3.7 12.37) rotate(-9.06)" style="fill:#77addb;opacity:0.38"/><g style="mix-blend-mode:multiply"><path d="M136.22,160c-8.56.66-17.12,1-25.61,1a314.46,314.46,0,0,1-37.9-2.27c-6.09-.74-11.76-1.62-17-2.57,16.44,17.73,34.84,32.79,45.7,41.16a15.56,15.56,0,0,0,19,0c10.82-8.34,29.13-23.33,45.52-41Q151.09,158.87,136.22,160Z" style="fill:#fff"/><path d="M136.22,160q-12.85,1-25.61,1a314.46,314.46,0,0,1-37.9-2.27c-6.09-.74-11.76-1.62-17-2.57,16.44,17.73,34.84,32.79,45.7,41.16a15.56,15.56,0,0,0,19,0c10.82-8.34,29.13-23.33,45.52-41Q151.09,158.83,136.22,160Z" style="fill:#fefeff"/><path d="M136.22,160q-12.85,1-25.61,1a314.46,314.46,0,0,1-37.9-2.27c-6.09-.74-11.76-1.62-17-2.57,16.44,17.73,34.84,32.8,45.7,41.16a15.56,15.56,0,0,0,19,0c10.82-8.34,29.13-23.32,45.52-41Q151.09,158.78,136.22,160Z" style="fill:#fdfefe"/><path d="M136.22,159.91q-12.87,1-25.61,1a314.46,314.46,0,0,1-37.9-2.27c-6.09-.74-11.76-1.62-17-2.56,16.44,17.72,34.84,32.79,45.7,41.15a15.58,15.58,0,0,0,19,0c10.82-8.35,29.13-23.33,45.52-41Q151.09,158.74,136.22,159.91Z" style="fill:#fcfdfe"/><path d="M136.22,159.87q-12.87,1-25.61,1a312.43,312.43,0,0,1-37.9-2.27c-6.09-.74-11.76-1.62-17-2.56,16.44,17.72,34.84,32.79,45.7,41.15a15.58,15.58,0,0,0,19,0c10.82-8.35,29.13-23.33,45.52-41Q151.09,158.7,136.22,159.87Z" style="fill:#fbfdfe"/><path d="M136.22,159.83c-8.59.67-17.11,1-25.61,1a312.43,312.43,0,0,1-37.9-2.27c-6.09-.74-11.76-1.61-17-2.56,16.44,17.72,34.84,32.79,45.7,41.16a15.59,15.59,0,0,0,19,0c10.82-8.35,29.13-23.33,45.52-41Q151.09,158.66,136.22,159.83Z" style="fill:#fafcfe"/><path d="M136.22,159.79c-8.59.67-17.1,1-25.61,1a314.47,314.47,0,0,1-37.9-2.26c-6.09-.75-11.76-1.62-17-2.57,16.44,17.73,34.84,32.79,45.7,41.16a15.58,15.58,0,0,0,19,0c10.82-8.34,29.13-23.33,45.52-41Q151.09,158.64,136.22,159.79Z" style="fill:#f9fbfd"/><path d="M136.22,159.75c-8.6.67-17.1,1-25.61,1a314.46,314.46,0,0,1-37.9-2.27c-6.09-.74-11.76-1.62-17-2.57,16.44,17.73,34.84,32.79,45.7,41.16a15.58,15.58,0,0,0,19,0c10.82-8.34,29.13-23.33,45.52-41Q151.09,158.59,136.22,159.75Z" style="fill:#f8fbfd"/><path d="M136.22,159.71c-8.6.68-17.1,1-25.61,1a314.46,314.46,0,0,1-37.9-2.27c-6.09-.74-11.76-1.62-17-2.57,16.44,17.73,34.84,32.79,45.7,41.16a15.58,15.58,0,0,0,19,0c10.82-8.34,29.13-23.33,45.52-41Q151.09,158.56,136.22,159.71Z" style="fill:#f7fafd"/><path d="M136.22,159.68c-8.61.67-17.1,1-25.61,1a314.46,314.46,0,0,1-37.9-2.27c-6.09-.74-11.76-1.62-17-2.57,16.44,17.73,34.84,32.79,45.7,41.16a15.56,15.56,0,0,0,19,0c10.82-8.34,29.13-23.33,45.52-41Q151.09,158.52,136.22,159.68Z" style="fill:#f6fafd"/><path d="M136.22,159.64c-8.61.67-17.09,1-25.61,1a314.46,314.46,0,0,1-37.9-2.27c-6.09-.74-11.76-1.62-17-2.57,16.44,17.73,34.84,32.79,45.7,41.16a15.56,15.56,0,0,0,19,0c10.82-8.34,29.13-23.33,45.52-41Q151.09,158.47,136.22,159.64Z" style="fill:#f5f9fc"/><path d="M136.22,159.6c-8.62.67-17.09,1-25.61,1a314.46,314.46,0,0,1-37.9-2.27c-6.09-.74-11.76-1.62-17-2.57,16.44,17.73,34.84,32.8,45.7,41.16a15.56,15.56,0,0,0,19,0c10.82-8.34,29.13-23.32,45.52-41Q151.09,158.44,136.22,159.6Z" style="fill:#f4f9fc"/><path d="M136.22,159.56c-8.62.67-17.09,1-25.61,1a314.46,314.46,0,0,1-37.9-2.27c-6.09-.74-11.76-1.62-17-2.56,16.44,17.72,34.84,32.79,45.7,41.15a15.58,15.58,0,0,0,19,0c10.82-8.35,29.13-23.33,45.52-41Q151.09,158.39,136.22,159.56Z" style="fill:#f3f8fc"/><path d="M136.22,159.52c-8.63.67-17.09,1-25.61,1a314.46,314.46,0,0,1-37.9-2.27c-6.09-.74-11.76-1.62-17-2.56,16.44,17.72,34.84,32.79,45.7,41.15a15.58,15.58,0,0,0,19,0c10.82-8.35,29.13-23.33,45.52-41Q151.09,158.35,136.22,159.52Z" style="fill:#f2f7fc"/><path d="M136.22,159.48c-8.63.67-17.09,1-25.61,1a312.43,312.43,0,0,1-37.9-2.27c-6.09-.74-11.76-1.62-17-2.56,16.44,17.72,34.84,32.79,45.7,41.16a15.59,15.59,0,0,0,19,0c10.82-8.35,29.13-23.33,45.52-41Q151.09,158.31,136.22,159.48Z" style="fill:#f1f7fb"/><path d="M136.22,159.44c-8.64.68-17.08,1-25.61,1a312.43,312.43,0,0,1-37.9-2.27c-6.09-.74-11.76-1.61-17-2.56,16.44,17.73,34.84,32.79,45.7,41.16a15.58,15.58,0,0,0,19,0c10.82-8.34,29.13-23.33,45.52-41Q151.09,158.27,136.22,159.44Z" style="fill:#f0f6fb"/><path d="M136.22,159.4c-8.64.68-17.08,1-25.61,1a314.46,314.46,0,0,1-37.9-2.27c-6.09-.75-11.76-1.62-17-2.57,16.44,17.73,34.84,32.79,45.7,41.16a15.58,15.58,0,0,0,19,0c10.82-8.34,29.13-23.33,45.52-41Q151.09,158.25,136.22,159.4Z" style="fill:#eff6fb"/><path d="M136.22,159.36c-8.65.68-17.08,1-25.61,1a314.46,314.46,0,0,1-37.9-2.27c-6.09-.74-11.76-1.62-17-2.57,16.44,17.73,34.84,32.79,45.7,41.16a15.58,15.58,0,0,0,19,0c10.82-8.34,29.13-23.33,45.52-41Q151.09,158.21,136.22,159.36Z" style="fill:#eef5fb"/><path d="M136.22,159.33c-8.65.67-17.08,1-25.61,1a314.46,314.46,0,0,1-37.9-2.27c-6.09-.74-11.76-1.62-17-2.57,16.44,17.73,34.84,32.79,45.7,41.16a15.56,15.56,0,0,0,19,0c10.82-8.34,29.13-23.33,45.52-41Q151.09,158.17,136.22,159.33Z" style="fill:#edf4fa"/><path d="M136.22,159.29c-8.65.67-17.07,1-25.61,1A314.46,314.46,0,0,1,72.71,158c-6.09-.74-11.76-1.62-17-2.57,16.44,17.73,34.84,32.79,45.7,41.16a15.56,15.56,0,0,0,19,0c10.82-8.34,29.13-23.33,45.52-41Q151.09,158.13,136.22,159.29Z" style="fill:#ecf4fa"/><path d="M136.22,159.25c-8.66.67-17.07,1-25.61,1A314.46,314.46,0,0,1,72.71,158c-6.09-.74-11.76-1.62-17-2.57,16.44,17.73,34.84,32.79,45.7,41.16a15.56,15.56,0,0,0,19,0c10.82-8.34,29.13-23.33,45.52-41Q151.09,158.08,136.22,159.25Z" style="fill:#ebf3fa"/><path d="M136.22,159.21c-8.66.67-17.07,1-25.61,1a314.46,314.46,0,0,1-37.9-2.27c-6.09-.74-11.76-1.62-17-2.57,16.44,17.73,34.84,32.8,45.7,41.16a15.58,15.58,0,0,0,19,0c10.82-8.35,29.13-23.33,45.52-41Q151.09,158,136.22,159.21Z" style="fill:#eaf3fa"/><path d="M136.22,159.17c-8.67.68-17.07,1-25.61,1a314.46,314.46,0,0,1-37.9-2.27c-6.09-.74-11.76-1.62-17-2.56,16.44,17.72,34.84,32.79,45.7,41.15a15.58,15.58,0,0,0,19,0c10.82-8.35,29.13-23.33,45.52-41Q151.09,158,136.22,159.17Z" style="fill:#e9f2f9"/><path d="M136.22,159.13c-8.67.68-17.07,1-25.61,1a312.43,312.43,0,0,1-37.9-2.27c-6.09-.74-11.76-1.62-17-2.56,16.44,17.72,34.84,32.79,45.7,41.15a15.58,15.58,0,0,0,19,0c10.82-8.35,29.13-23.33,45.52-41Q151.09,158,136.22,159.13Z" style="fill:#e8f1f9"/><path d="M136.22,159.09c-8.68.68-17.06,1-25.61,1a312.43,312.43,0,0,1-37.9-2.27c-6.09-.74-11.76-1.61-17-2.56,16.44,17.72,34.84,32.79,45.7,41.16a15.59,15.59,0,0,0,19,0c10.82-8.34,29.13-23.33,45.52-41Q151.09,157.92,136.22,159.09Z" style="fill:#e7f1f9"/><path d="M136.22,159.05c-8.68.68-17.06,1-25.61,1a314.47,314.47,0,0,1-37.9-2.26c-6.09-.75-11.76-1.62-17-2.57C72.18,173,90.58,188,101.44,196.38a15.58,15.58,0,0,0,19,0c10.82-8.34,29.13-23.33,45.52-41Q151.09,157.9,136.22,159.05Z" style="fill:#e6f0f8"/><path d="M136.22,159c-8.69.68-17.06,1-25.61,1a314.46,314.46,0,0,1-37.9-2.27c-6.09-.74-11.76-1.62-17-2.57,16.44,17.73,34.84,32.79,45.7,41.16a15.58,15.58,0,0,0,19,0c10.82-8.34,29.13-23.33,45.52-41Q151.09,157.86,136.22,159Z" style="fill:#e5f0f8"/><path d="M136.22,159c-8.69.68-17.06,1-25.61,1a314.46,314.46,0,0,1-37.9-2.27c-6.09-.74-11.76-1.62-17-2.57,16.44,17.73,34.84,32.79,45.7,41.16a15.58,15.58,0,0,0,19,0c10.82-8.34,29.13-23.33,45.52-41Q151.09,157.82,136.22,159Z" style="fill:#e4eff8"/><path d="M136.22,158.94c-8.7.67-17.06,1-25.61,1a314.46,314.46,0,0,1-37.9-2.27c-6.09-.74-11.76-1.62-17-2.57,16.44,17.73,34.84,32.79,45.7,41.16a15.56,15.56,0,0,0,19,0c10.82-8.34,29.13-23.33,45.52-41Q151.09,157.77,136.22,158.94Z" style="fill:#e3eff8"/><path d="M136.22,158.9c-8.7.68-17,1-25.61,1a314.46,314.46,0,0,1-37.9-2.27c-6.09-.74-11.76-1.62-17-2.57,16.44,17.73,34.84,32.79,45.7,41.16a15.56,15.56,0,0,0,19,0c10.82-8.34,29.13-23.33,45.52-41Q151.09,157.74,136.22,158.9Z" style="fill:#e2eef7"/><path d="M136.22,158.86c-8.71.68-17,1-25.61,1a314.46,314.46,0,0,1-37.9-2.27c-6.09-.74-11.76-1.62-17-2.57,16.44,17.73,34.84,32.8,45.7,41.16a15.56,15.56,0,0,0,19,0c10.82-8.34,29.13-23.32,45.52-41Q151.09,157.7,136.22,158.86Z" style="fill:#e1edf7"/><path d="M136.22,158.82c-8.71.68-17,1-25.61,1a314.46,314.46,0,0,1-37.9-2.27c-6.09-.74-11.76-1.62-17-2.56,16.44,17.72,34.84,32.79,45.7,41.15a15.58,15.58,0,0,0,19,0c10.82-8.35,29.13-23.33,45.52-41Q151.09,157.65,136.22,158.82Z" style="fill:#e0edf7"/><path d="M136.22,158.78c-8.72.68-17,1-25.61,1a312.43,312.43,0,0,1-37.9-2.27c-6.09-.74-11.76-1.62-17-2.56,16.44,17.72,34.84,32.79,45.7,41.15a15.58,15.58,0,0,0,19,0c10.82-8.35,29.13-23.33,45.52-41Q151.09,157.61,136.22,158.78Z" style="fill:#dfecf7"/><path d="M136.22,158.74c-8.72.68-17,1-25.61,1a312.43,312.43,0,0,1-37.9-2.27c-6.09-.74-11.76-1.62-17-2.56,16.44,17.72,34.84,32.79,45.7,41.16a15.59,15.59,0,0,0,19,0c10.82-8.35,29.13-23.33,45.52-41Q151.09,157.57,136.22,158.74Z" style="fill:#deecf6"/><path d="M136.22,158.7c-8.73.68-17,1-25.61,1a312.43,312.43,0,0,1-37.9-2.27c-6.09-.74-11.76-1.61-17-2.56,16.44,17.73,34.84,32.79,45.7,41.16a15.58,15.58,0,0,0,19,0c10.82-8.34,29.13-23.33,45.52-41Q151.09,157.53,136.22,158.7Z" style="fill:#ddebf6"/><path d="M136.22,158.66c-8.73.68-17,1-25.61,1a314.46,314.46,0,0,1-37.9-2.27c-6.09-.75-11.76-1.62-17-2.57,16.44,17.73,34.84,32.79,45.7,41.16a15.58,15.58,0,0,0,19,0c10.82-8.34,29.13-23.33,45.52-41Q151.09,157.51,136.22,158.66Z" style="fill:#dceaf6"/><path d="M136.22,158.62c-8.74.69-17,1-25.61,1a314.46,314.46,0,0,1-37.9-2.27c-6.09-.74-11.76-1.62-17-2.57,16.44,17.73,34.84,32.79,45.7,41.16a15.58,15.58,0,0,0,19,0c10.82-8.34,29.13-23.33,45.52-41Q151.09,157.46,136.22,158.62Z" style="fill:#dbeaf6"/><path d="M136.22,158.59c-8.74.68-17,1-25.61,1a314.46,314.46,0,0,1-37.9-2.27c-6.09-.74-11.76-1.62-17-2.57,16.44,17.73,34.84,32.79,45.7,41.16a15.56,15.56,0,0,0,19,0c10.82-8.34,29.13-23.33,45.52-41Q151.09,157.43,136.22,158.59Z" style="fill:#dae9f5"/><path d="M136.22,158.55c-8.75.68-17,1-25.61,1a314.46,314.46,0,0,1-37.9-2.27c-6.09-.74-11.76-1.62-17-2.57,16.44,17.73,34.84,32.79,45.7,41.16a15.56,15.56,0,0,0,19,0c10.82-8.34,29.13-23.33,45.52-41Q151.09,157.39,136.22,158.55Z" style="fill:#d9e9f5"/><path d="M136.22,158.51c-8.75.68-17,1-25.61,1a314.46,314.46,0,0,1-37.9-2.27c-6.09-.74-11.76-1.62-17-2.57,16.44,17.73,34.84,32.79,45.7,41.16a15.56,15.56,0,0,0,19,0c10.82-8.34,29.13-23.33,45.52-41Q151.09,157.34,136.22,158.51Z" style="fill:#d8e8f5"/><path d="M136.22,158.47c-8.76.68-17,1-25.61,1a314.46,314.46,0,0,1-37.9-2.27c-6.09-.74-11.76-1.62-17-2.57,16.44,17.73,34.84,32.8,45.7,41.16a15.58,15.58,0,0,0,19,0c10.82-8.35,29.13-23.33,45.52-41Q151.09,157.3,136.22,158.47Z" style="fill:#d7e8f5"/><path d="M136.22,158.43c-8.76.68-17,1-25.61,1a314.46,314.46,0,0,1-37.9-2.27c-6.09-.74-11.76-1.62-17-2.56,16.44,17.72,34.84,32.79,45.7,41.15a15.58,15.58,0,0,0,19,0c10.82-8.35,29.13-23.33,45.52-41Q151.09,157.26,136.22,158.43Z" style="fill:#d6e7f4"/><path d="M136.22,158.39c-8.76.68-17,1-25.61,1a312.43,312.43,0,0,1-37.9-2.27c-6.09-.74-11.76-1.62-17-2.56,16.44,17.72,34.84,32.79,45.7,41.15a15.58,15.58,0,0,0,19,0c10.82-8.35,29.13-23.33,45.52-41Q151.09,157.22,136.22,158.39Z" style="fill:#d5e6f4"/><path d="M136.22,158.35c-8.77.69-17,1-25.61,1a312.43,312.43,0,0,1-37.9-2.27c-6.09-.74-11.76-1.61-17-2.56,16.44,17.72,34.84,32.79,45.7,41.16a15.59,15.59,0,0,0,19,0c10.82-8.34,29.13-23.33,45.52-41Q151.09,157.18,136.22,158.35Z" style="fill:#d4e6f4"/><path d="M136.22,158.31c-8.77.69-17,1-25.61,1a314.46,314.46,0,0,1-37.9-2.27c-6.09-.75-11.76-1.62-17-2.57,16.44,17.73,34.84,32.79,45.7,41.16a15.58,15.58,0,0,0,19,0c10.82-8.34,29.13-23.33,45.52-41Q151.09,157.15,136.22,158.31Z" style="fill:#d3e5f4"/><path d="M136.22,158.27c-8.78.69-17,1-25.61,1A314.46,314.46,0,0,1,72.71,157c-6.09-.74-11.76-1.62-17-2.57,16.44,17.73,34.84,32.79,45.7,41.16a15.58,15.58,0,0,0,19,0c10.82-8.34,29.13-23.33,45.52-41Q151.09,157.12,136.22,158.27Z" style="fill:#d2e5f3"/><path d="M136.22,158.23c-8.78.69-17,1-25.61,1A314.46,314.46,0,0,1,72.71,157c-6.09-.74-11.76-1.62-17-2.57,16.44,17.73,34.84,32.79,45.7,41.16a15.56,15.56,0,0,0,19,0c10.82-8.34,29.13-23.33,45.52-41Q151.09,157.08,136.22,158.23Z" style="fill:#d2e4f3"/><path d="M136.22,158.2c-8.79.68-17,1-25.61,1a314.46,314.46,0,0,1-37.9-2.27c-6.09-.74-11.76-1.62-17-2.57,16.44,17.73,34.84,32.79,45.7,41.16a15.56,15.56,0,0,0,19,0c10.82-8.34,29.13-23.33,45.52-41Q151.09,157,136.22,158.2Z" style="fill:#d1e3f3"/><path d="M136.22,158.16c-8.79.68-17,1-25.61,1a314.46,314.46,0,0,1-37.9-2.27c-6.09-.74-11.76-1.62-17-2.57,16.44,17.73,34.84,32.79,45.7,41.16a15.56,15.56,0,0,0,19,0c10.82-8.34,29.13-23.33,45.52-41Q151.09,157,136.22,158.16Z" style="fill:#d0e3f2"/><path d="M136.22,158.12c-8.8.68-17,1-25.61,1a314.46,314.46,0,0,1-37.9-2.27c-6.09-.74-11.76-1.62-17-2.57,16.44,17.73,34.84,32.8,45.7,41.16a15.56,15.56,0,0,0,19,0c10.82-8.34,29.13-23.32,45.52-41Q151.09,157,136.22,158.12Z" style="fill:#cfe2f2"/><path d="M136.22,158.08c-8.8.69-17,1-25.61,1a314.46,314.46,0,0,1-37.9-2.27c-6.09-.74-11.76-1.62-17-2.56C72.18,172,90.58,187,101.44,195.4a15.58,15.58,0,0,0,19,0c10.82-8.35,29.13-23.33,45.52-41Q151.09,156.91,136.22,158.08Z" style="fill:#cee2f2"/><path d="M136.22,158c-8.81.69-17,1-25.61,1a312.43,312.43,0,0,1-37.9-2.27c-6.09-.74-11.76-1.62-17-2.56,16.44,17.72,34.84,32.79,45.7,41.15a15.58,15.58,0,0,0,19,0c10.82-8.35,29.13-23.33,45.52-41Q151.09,156.87,136.22,158Z" style="fill:#cde1f2"/><path d="M136.22,158c-8.81.69-17,1-25.61,1a312.43,312.43,0,0,1-37.9-2.27c-6.09-.74-11.76-1.62-17-2.56,16.44,17.72,34.84,32.79,45.7,41.16a15.59,15.59,0,0,0,19,0c10.82-8.35,29.13-23.33,45.52-41Q151.09,156.83,136.22,158Z" style="fill:#cce0f1"/><path d="M136.22,158c-8.82.69-17,1-25.61,1a314.47,314.47,0,0,1-37.9-2.26c-6.09-.75-11.76-1.62-17-2.57,16.44,17.73,34.84,32.79,45.7,41.16a15.58,15.58,0,0,0,19,0c10.82-8.34,29.13-23.33,45.52-41Q151.09,156.79,136.22,158Z" style="fill:#cbe0f1"/><path d="M136.22,157.92c-8.82.69-17,1-25.61,1a314.46,314.46,0,0,1-37.9-2.27c-6.09-.75-11.76-1.62-17-2.57,16.44,17.73,34.84,32.79,45.7,41.16a15.58,15.58,0,0,0,19,0c10.82-8.34,29.13-23.33,45.52-41Q151.09,156.77,136.22,157.92Z" style="fill:#cadff1"/><path d="M136.22,157.88c-8.83.69-17,1-25.61,1a314.46,314.46,0,0,1-37.9-2.27c-6.09-.74-11.76-1.62-17-2.57,16.44,17.73,34.84,32.79,45.7,41.16a15.58,15.58,0,0,0,19,0c10.82-8.34,29.13-23.33,45.52-41Q151.09,156.72,136.22,157.88Z" style="fill:#c9dff1"/><path d="M136.22,157.85c-8.83.68-17,1-25.61,1a314.46,314.46,0,0,1-37.9-2.27c-6.09-.74-11.76-1.62-17-2.57,16.44,17.73,34.84,32.79,45.7,41.16a15.56,15.56,0,0,0,19,0c10.82-8.34,29.13-23.33,45.52-41Q151.09,156.69,136.22,157.85Z" style="fill:#c8def0"/><path d="M136.22,157.81c-8.84.69-17,1-25.61,1a314.46,314.46,0,0,1-37.9-2.27c-6.09-.74-11.76-1.62-17-2.57,16.44,17.73,34.84,32.79,45.7,41.16a15.56,15.56,0,0,0,19,0c10.82-8.34,29.13-23.33,45.52-41Q151.09,156.65,136.22,157.81Z" style="fill:#c7def0"/><path d="M136.22,157.77c-8.84.69-17,1-25.61,1a314.46,314.46,0,0,1-37.9-2.27c-6.09-.74-11.76-1.62-17-2.57,16.44,17.73,34.84,32.8,45.7,41.16a15.56,15.56,0,0,0,19,0c10.82-8.34,29.13-23.32,45.52-41Q151.09,156.61,136.22,157.77Z" style="fill:#c6ddf0"/><path d="M136.22,157.73c-8.85.69-17,1-25.61,1a314.46,314.46,0,0,1-37.9-2.27c-6.09-.74-11.76-1.62-17-2.57,16.44,17.73,34.84,32.8,45.7,41.16a15.58,15.58,0,0,0,19,0c10.82-8.35,29.13-23.33,45.52-41Q151.09,156.56,136.22,157.73Z" style="fill:#c5dcf0"/><path d="M136.22,157.69c-8.85.69-17,1-25.61,1a314.46,314.46,0,0,1-37.9-2.27c-6.09-.74-11.76-1.62-17-2.56,16.44,17.72,34.84,32.79,45.7,41.15a15.58,15.58,0,0,0,19,0c10.82-8.35,29.13-23.33,45.52-41Q151.09,156.52,136.22,157.69Z" style="fill:#c4dcef"/><path d="M136.22,157.65c-8.86.69-17,1-25.61,1a312.43,312.43,0,0,1-37.9-2.27c-6.09-.74-11.76-1.62-17-2.56,16.44,17.72,34.84,32.79,45.7,41.15a15.58,15.58,0,0,0,19,0c10.82-8.35,29.13-23.33,45.52-41Q151.09,156.48,136.22,157.65Z" style="fill:#c3dbef"/><path d="M136.22,157.61c-8.86.69-17,1-25.61,1a312.43,312.43,0,0,1-37.9-2.27c-6.09-.74-11.76-1.61-17-2.56,16.44,17.72,34.84,32.79,45.7,41.16a15.58,15.58,0,0,0,19,0c10.82-8.34,29.13-23.33,45.52-41Q151.09,156.44,136.22,157.61Z" style="fill:#c2dbef"/><path d="M136.22,157.57c-8.86.69-17,1-25.61,1a314.46,314.46,0,0,1-37.9-2.27c-6.09-.75-11.76-1.62-17-2.57,16.44,17.73,34.84,32.79,45.7,41.16a15.58,15.58,0,0,0,19,0c10.82-8.34,29.13-23.33,45.52-41Q151.09,156.42,136.22,157.57Z" style="fill:#c1daef"/><path d="M136.22,157.53c-8.87.7-17,1-25.61,1a314.46,314.46,0,0,1-37.9-2.27c-6.09-.74-11.76-1.62-17-2.57,16.44,17.73,34.84,32.79,45.7,41.16a15.58,15.58,0,0,0,19,0c10.82-8.34,29.13-23.33,45.52-41Q151.09,156.38,136.22,157.53Z" style="fill:#c0d9ee"/><path d="M136.22,157.49c-8.87.7-17,1-25.61,1a314.46,314.46,0,0,1-37.9-2.27c-6.09-.74-11.76-1.62-17-2.57,16.44,17.73,34.84,32.79,45.7,41.16a15.56,15.56,0,0,0,19,0c10.82-8.34,29.13-23.33,45.52-41Q151.09,156.33,136.22,157.49Z" style="fill:#bfd9ee"/><path d="M136.22,157.46c-8.88.69-17,1-25.61,1a314.46,314.46,0,0,1-37.9-2.27c-6.09-.74-11.76-1.62-17-2.57,16.44,17.73,34.84,32.79,45.7,41.16a15.56,15.56,0,0,0,19,0c10.82-8.34,29.13-23.33,45.52-41Q151.09,156.3,136.22,157.46Z" style="fill:#bed8ee"/><path d="M136.22,157.42c-8.88.69-17,1-25.61,1a314.46,314.46,0,0,1-37.9-2.27c-6.09-.74-11.76-1.62-17-2.57,16.44,17.73,34.84,32.79,45.7,41.16a15.56,15.56,0,0,0,19,0c10.82-8.34,29.13-23.33,45.52-41Q151.09,156.26,136.22,157.42Z" style="fill:#bdd8ee"/><path d="M136.22,157.38c-8.89.69-17,1-25.61,1a314.46,314.46,0,0,1-37.9-2.27c-6.09-.74-11.76-1.62-17-2.57,16.44,17.73,34.84,32.8,45.7,41.16a15.56,15.56,0,0,0,19,0c10.82-8.34,29.13-23.32,45.52-41Q151.09,156.21,136.22,157.38Z" style="fill:#bcd7ed"/><path d="M136.22,157.34c-8.89.69-17,1-25.61,1a314.46,314.46,0,0,1-37.9-2.27c-6.09-.74-11.76-1.62-17-2.56,16.44,17.72,34.84,32.79,45.7,41.15a15.58,15.58,0,0,0,19,0c10.82-8.35,29.13-23.33,45.52-41Q151.09,156.17,136.22,157.34Z" style="fill:#bbd7ed"/><path d="M136.22,157.3c-8.9.69-17,1-25.61,1A312.43,312.43,0,0,1,72.71,156c-6.09-.74-11.76-1.62-17-2.56,16.44,17.72,34.84,32.79,45.7,41.15a15.58,15.58,0,0,0,19,0c10.82-8.35,29.13-23.33,45.52-41Q151.09,156.13,136.22,157.3Z" style="fill:#bad6ed"/><path d="M136.22,157.26c-8.9.7-17,1-25.61,1A312.43,312.43,0,0,1,72.71,156c-6.09-.74-11.76-1.61-17-2.56,16.44,17.72,34.84,32.79,45.7,41.16a15.59,15.59,0,0,0,19,0c10.82-8.35,29.13-23.33,45.52-41Q151.09,156.09,136.22,157.26Z" style="fill:#b9d5ec"/><path d="M136.22,157.22c-8.91.7-17,1-25.61,1A314.47,314.47,0,0,1,72.71,156c-6.09-.75-11.76-1.62-17-2.57,16.44,17.73,34.84,32.79,45.7,41.16a15.58,15.58,0,0,0,19,0c10.82-8.34,29.13-23.33,45.52-41Q151.09,156.07,136.22,157.22Z" style="fill:#b8d5ec"/><path d="M136.22,157.18c-8.91.7-17,1-25.61,1a314.46,314.46,0,0,1-37.9-2.27c-6.09-.74-11.76-1.62-17-2.57,16.44,17.73,34.84,32.79,45.7,41.16a15.58,15.58,0,0,0,19,0c10.82-8.34,29.13-23.33,45.52-41Q151.09,156,136.22,157.18Z" style="fill:#b7d4ec"/><path d="M136.22,157.14c-8.92.7-17,1-25.61,1a314.46,314.46,0,0,1-37.9-2.27c-6.09-.74-11.76-1.62-17-2.57,16.44,17.73,34.84,32.79,45.7,41.16a15.58,15.58,0,0,0,19,0c10.82-8.34,29.13-23.33,45.52-41Q151.09,156,136.22,157.14Z" style="fill:#b6d4ec"/><path d="M136.22,157.11c-8.92.69-17,1-25.61,1a314.46,314.46,0,0,1-37.9-2.27c-6.09-.74-11.76-1.62-17-2.57,16.44,17.73,34.84,32.79,45.7,41.16a15.56,15.56,0,0,0,19,0c10.82-8.34,29.13-23.33,45.52-41Q151.09,155.95,136.22,157.11Z" style="fill:#b5d3eb"/><path d="M136.22,157.07c-8.93.69-17,1-25.61,1a314.46,314.46,0,0,1-37.9-2.27c-6.09-.74-11.76-1.62-17-2.57C72.18,171,90.58,186,101.44,194.39a15.56,15.56,0,0,0,19,0C131.27,186,149.58,171,166,153.4Q151.09,155.9,136.22,157.07Z" style="fill:#b4d2eb"/><path d="M136.22,157c-8.93.69-17,1-25.61,1a314.46,314.46,0,0,1-37.9-2.27c-6.09-.74-11.76-1.62-17-2.57,16.44,17.73,34.84,32.8,45.7,41.16a15.56,15.56,0,0,0,19,0c10.82-8.34,29.13-23.32,45.52-41Q151.09,155.87,136.22,157Z" style="fill:#b3d2eb"/><path d="M136.22,157c-8.94.7-17,1-25.61,1a314.46,314.46,0,0,1-37.9-2.27c-6.09-.74-11.76-1.62-17-2.56,16.44,17.72,34.84,32.79,45.7,41.15a15.58,15.58,0,0,0,19,0c10.82-8.35,29.13-23.33,45.52-41Q151.09,155.82,136.22,157Z" style="fill:#b2d1eb"/><path d="M136.22,157c-8.94.7-17,1-25.61,1a314.46,314.46,0,0,1-37.9-2.27c-6.09-.74-11.76-1.62-17-2.56,16.44,17.72,34.84,32.79,45.7,41.15a15.58,15.58,0,0,0,19,0c10.82-8.35,29.13-23.33,45.52-41Q151.09,155.78,136.22,157Z" style="fill:#b1d1ea"/><path d="M136.22,156.91c-9,.7-16.94,1-25.61,1a312.43,312.43,0,0,1-37.9-2.27c-6.09-.74-11.76-1.62-17-2.56,16.44,17.72,34.84,32.79,45.7,41.16a15.59,15.59,0,0,0,19,0c10.82-8.35,29.13-23.33,45.52-41Q151.09,155.74,136.22,156.91Z" style="fill:#b0d0ea"/><path d="M136.22,156.87c-9,.7-16.94,1-25.61,1a312.43,312.43,0,0,1-37.9-2.27c-6.09-.74-11.76-1.61-17-2.56,16.44,17.73,34.84,32.79,45.7,41.16a15.58,15.58,0,0,0,19,0c10.82-8.34,29.13-23.33,45.52-41Q151.09,155.7,136.22,156.87Z" style="fill:#afcfea"/><path d="M136.22,156.83c-9,.7-16.94,1-25.61,1a314.46,314.46,0,0,1-37.9-2.27c-6.09-.75-11.76-1.62-17-2.57,16.44,17.73,34.84,32.79,45.7,41.16a15.58,15.58,0,0,0,19,0c10.82-8.34,29.13-23.33,45.52-41Q151.09,155.68,136.22,156.83Z" style="fill:#aecfea"/><path d="M136.22,156.79c-9,.7-16.94,1-25.61,1a314.46,314.46,0,0,1-37.9-2.27c-6.09-.74-11.76-1.62-17-2.57,16.44,17.73,34.84,32.79,45.7,41.16a15.58,15.58,0,0,0,19,0c10.82-8.34,29.13-23.33,45.52-41Q151.09,155.64,136.22,156.79Z" style="fill:#adcee9"/><path d="M136.22,156.76c-9,.69-16.93,1-25.61,1a314.46,314.46,0,0,1-37.9-2.27c-6.09-.74-11.76-1.62-17-2.57,16.44,17.73,34.84,32.79,45.7,41.16a15.56,15.56,0,0,0,19,0c10.82-8.34,29.13-23.33,45.52-41Q151.09,155.59,136.22,156.76Z" style="fill:#accee9"/><path d="M136.22,156.72c-9,.7-16.93,1-25.61,1a314.46,314.46,0,0,1-37.9-2.27c-6.09-.74-11.76-1.62-17-2.57,16.44,17.73,34.84,32.79,45.7,41.16a15.56,15.56,0,0,0,19,0c10.82-8.34,29.13-23.33,45.52-41Q151.09,155.56,136.22,156.72Z" style="fill:#abcde9"/><path d="M136.22,156.68c-9,.7-16.93,1-25.61,1a314.46,314.46,0,0,1-37.9-2.27c-6.09-.74-11.76-1.62-17-2.57,16.44,17.73,34.84,32.79,45.7,41.16a15.56,15.56,0,0,0,19,0c10.82-8.34,29.13-23.33,45.52-41Q151.09,155.52,136.22,156.68Z" style="fill:#aacde9"/><path d="M136.22,156.64c-9,.7-16.93,1-25.61,1a314.46,314.46,0,0,1-37.9-2.27c-6.09-.74-11.76-1.62-17-2.57,16.44,17.73,34.84,32.8,45.7,41.16a15.58,15.58,0,0,0,19,0c10.82-8.35,29.13-23.33,45.52-41Q151.09,155.47,136.22,156.64Z" style="fill:#a9cce8"/><path d="M136.22,156.6c-9,.7-16.93,1-25.61,1a314.46,314.46,0,0,1-37.9-2.27c-6.09-.74-11.76-1.62-17-2.56,16.44,17.72,34.84,32.79,45.7,41.15a15.58,15.58,0,0,0,19,0c10.82-8.35,29.13-23.33,45.52-41Q151.09,155.43,136.22,156.6Z" style="fill:#a8cbe8"/><path d="M136.22,156.56c-9,.7-16.92,1-25.61,1a312.43,312.43,0,0,1-37.9-2.27c-6.09-.74-11.76-1.62-17-2.56,16.44,17.72,34.84,32.79,45.7,41.15a15.58,15.58,0,0,0,19,0c10.82-8.35,29.13-23.33,45.52-41Q151.09,155.39,136.22,156.56Z" style="fill:#a7cbe8"/><path d="M136.22,156.52c-9,.7-16.92,1-25.61,1a312.43,312.43,0,0,1-37.9-2.27c-6.09-.74-11.76-1.61-17-2.56,16.44,17.72,34.84,32.79,45.7,41.16a15.59,15.59,0,0,0,19,0c10.82-8.35,29.13-23.33,45.52-41Q151.09,155.35,136.22,156.52Z" style="fill:#a6cae8"/><path d="M136.22,156.48c-9,.7-16.92,1-25.61,1a314.47,314.47,0,0,1-37.9-2.26c-6.09-.75-11.76-1.62-17-2.57,16.44,17.73,34.84,32.79,45.7,41.16a15.58,15.58,0,0,0,19,0c10.82-8.34,29.13-23.33,45.52-41Q151.09,155.33,136.22,156.48Z" style="fill:#a5cae7"/><path d="M136.22,156.44c-9,.71-16.92,1-25.61,1a314.46,314.46,0,0,1-37.9-2.27c-6.09-.74-11.76-1.62-17-2.57,16.44,17.73,34.84,32.79,45.7,41.16a15.58,15.58,0,0,0,19,0c10.82-8.34,29.13-23.33,45.52-41Q151.09,155.28,136.22,156.44Z" style="fill:#a4c9e7"/></g><path d="M151.9,96.07C158.71,91.89,162,81.25,162,81.15A2.58,2.58,0,1,1,167,82.63a41.86,41.86,0,0,1-2.48,6.06A1.59,1.59,0,0,0,166,91c5.14-.38,11.58-4.41,14.05-6.27a2.2,2.2,0,0,1,3,.29,2.15,2.15,0,0,1-.35,3.08,43.92,43.92,0,0,1-12.1,6.32.54.54,0,0,0-.38.47l0,.26a.54.54,0,0,0,.62.58,37,37,0,0,0,12.25-4.46,2.15,2.15,0,1,1,2.23,3.67c-.38.24-7.46,4.49-15,5.16a.54.54,0,0,0-.49.49h0a.55.55,0,0,0,.46.58c7.24.92,14.44-2.2,14.53-2.24a2.15,2.15,0,0,1,1.74,3.93A36.15,36.15,0,0,1,172,105.61c-.78,0-1.57-.09-2.36-.19a.27.27,0,0,0-.31.24h0a.27.27,0,0,0,.21.29,90.93,90.93,0,0,0,12.08,2.1,1.86,1.86,0,0,1-.24,3.72h-.1a88.93,88.93,0,0,1-15.68-3c-3.65-.06-16.24,6.24-34.53,11.09-31.29,6.09-57.05.12-64.51-2.55-7.53-3-12.67-13.13-12.72-13.23a2.61,2.61,0,1,0-4.65,2.35,41.63,41.63,0,0,0,3.72,5.9,1.45,1.45,0,0,1-1,2.3c-5.2.68-12.58-2.34-15.42-3.81a2.19,2.19,0,1,0-2,3.86,44.66,44.66,0,0,0,13.06,4.22.67.67,0,0,1,.58.51h0a.69.69,0,0,1-.65.86,37.61,37.61,0,0,1-12.8-2.34,2.16,2.16,0,0,0-2.81,1.24A2.21,2.21,0,0,0,33.14,122c.42.17,8.22,3.2,15.89,2.55a.56.56,0,0,1,.58.4h0a.55.55,0,0,1-.36.66c-7,2.2-14.76.32-14.85.3a2.17,2.17,0,0,0-2.63,1.6,2.2,2.2,0,0,0,1.59,2.65,36.23,36.23,0,0,0,14.89.25c.77-.17,1.54-.37,2.31-.61a.28.28,0,0,1,.36.19h0a.3.3,0,0,1-.16.33A92.33,92.33,0,0,1,39.1,134.5a1.9,1.9,0,0,0,.9,3.69l.11,0a89.15,89.15,0,0,0,15.06-5.81c6.15-1.18,51.45,21.19,120.65,1.58,6.55-1.86,24.74-19.77,24.74-47.34,0-49.55-89.72-57-89.72,9.41,0-48.93-48.64-57.77-74.3-39.25C25.8,64.51,25,92.32,37.86,95.64,131.11,119.81,147.76,97.47,151.9,96.07Z" style="fill:#a4c9e7"/><path d="M136.61,156.3c-8.69.68-17.38,1-26,1A320,320,0,0,1,72.12,155c-6.18-.76-11.94-1.65-17.24-2.61,16.7,18,35.39,33.3,46.41,41.79a15.82,15.82,0,0,0,19.31,0c11-8.48,29.58-23.69,46.22-41.61C156.75,154.28,146.66,155.52,136.61,156.3Z" style="fill:#e11e19"/><g style="clip-path:url(#b)"><path d="M175.27,146.36c-1-.91-70.27,53.89-99.58,43.49-8.1-2.88,51.37,22.37,52.63,22.69s45.06-17,52.31-27.74S175.27,146.36,175.27,146.36Z" style="fill:#c60006"/></g><path d="M152.63,96.82c6.92-4.25,10.25-15,10.28-15.16a2.62,2.62,0,0,1,5,1.51,42.78,42.78,0,0,1-2.53,6.15A1.62,1.62,0,0,0,167,91.66c5.22-.39,11.76-4.48,14.26-6.37a2.23,2.23,0,0,1,3.06.29,2.18,2.18,0,0,1-.35,3.13,44.77,44.77,0,0,1-12.29,6.42.53.53,0,0,0-.38.48l0,.26a.56.56,0,0,0,.63.59,37.46,37.46,0,0,0,12.44-4.53,2.18,2.18,0,0,1,2.27,3.73c-.39.24-7.58,4.56-15.28,5.24a.54.54,0,0,0-.5.5h0a.55.55,0,0,0,.47.58c7.35.94,14.66-2.23,14.75-2.27a2.18,2.18,0,0,1,1.77,4,36.78,36.78,0,0,1-14.7,2.81c-.79,0-1.59-.1-2.4-.2a.28.28,0,0,0-.31.25h0a.28.28,0,0,0,.21.29A92.7,92.7,0,0,0,182.86,109a1.89,1.89,0,0,1-.25,3.77h-.11a89.88,89.88,0,0,1-15.92-3.09c-3.7-.06-16.48,6.34-35.05,11.26-31.78,6.19-57.94.12-65.51-2.59C58.37,115.27,53.15,105,53.1,104.9a2.64,2.64,0,0,0-3.56-1.19,2.68,2.68,0,0,0-1.17,3.58,44.62,44.62,0,0,0,3.79,6,1.47,1.47,0,0,1-1,2.33c-5.28.69-12.77-2.37-15.66-3.87a2.22,2.22,0,1,0-2.08,3.92,44.8,44.8,0,0,0,13.26,4.28.71.71,0,0,1,.59.52h0a.71.71,0,0,1-.66.88,38,38,0,0,1-13-2.38,2.2,2.2,0,0,0-2.85,1.26A2.23,2.23,0,0,0,32,123.1c.43.17,8.34,3.26,16.13,2.6a.54.54,0,0,1,.59.41h0a.56.56,0,0,1-.37.67c-7.14,2.23-15,.32-15.07.3a2.2,2.2,0,0,0-2.67,1.62,2.23,2.23,0,0,0,1.61,2.69,36.78,36.78,0,0,0,15.13.25c.78-.17,1.56-.37,2.34-.61a.28.28,0,0,1,.36.19h0a.28.28,0,0,1-.16.33,93.23,93.23,0,0,1-11.83,4.29,1.93,1.93,0,0,0,.91,3.75l.11,0a90.37,90.37,0,0,0,15.29-5.89c6.24-1.2,52.25,21.52,122.51,1.6,6.65-1.89,25.13-20.07,25.13-48.07,0-50.32-91.12-57.93-91.12,9.56,0-49.69-49.38-58.67-75.44-39.86-10.9,7.87-11.15,30.78.11,38.15C123.47,115.39,148.43,98.24,152.63,96.82Z" style="fill:#e11e19"/><g style="clip-path:url(#c)"><path d="M111.05,92.67S99.33,46.87,54.88,60A56.77,56.77,0,0,0,17.39,95.64L-5.48,55.92,103.11,22.2Z" style="fill:#fff;opacity:0.31"/><path d="M205.84,81.76S176.22,43.94,140.61,59.7c-34.79,15.4-29.68,37.06-29.68,37.06L123,20l54.83,4.09Z" style="fill:#fff;opacity:0.31"/></g><path d="M142.71,31.27c-2.36,2.83-8.09,3.78-8.58,3.9-.14-.05-4.28-4.93-3.9-8.59.35-3.35,4.07-6.8,7.59-1.24C144.39,23.57,144.92,28.62,142.71,31.27Z" style="fill:#e11e19;opacity:0.46"/><path d="M109.44,9.55c.07,3.68-3.64,8.14-4,8.56-.13.05-6.45-.93-8.55-3.95-1.93-2.77-1.37-7.81,4.93-5.9C105.68,2.63,109.38,6.1,109.44,9.55Z" style="fill:#e11e19;opacity:0.46"/></g></g></svg>