<svg xmlns="http://www.w3.org/2000/svg" xmlns:xlink="http://www.w3.org/1999/xlink" viewBox="0 0 175 175"><defs><clipPath id="a"><rect width="175" height="175" style="fill:none"/></clipPath></defs><g style="clip-path:url(#a)"><path d="M41.18,56a39.93,39.93,0,0,1,4.75-7.65C43.91,47.31,41.42,47.78,41.18,56Z" style="fill:none"/><path d="M104.49,88l-.32-.05v0Z" style="fill:none"/><path d="M51.27,141.12a36.68,36.68,0,0,1,.33-8.79c-8.17-.73-19.85-.69-26.78-.58-2.25,3.86-5.72,11.19-5.79,19.76H61.9L63,139.94C56.77,140.25,51.27,141.12,51.27,141.12Z" style="fill:#d6e6f2"/><path d="M44.61,66.75a9.3,9.3,0,0,1-3.29-2.26,54.61,54.61,0,0,1-1,9.57q1.13-1.28,2.34-2.46h0Z" style="fill:#f7b690"/><path d="M77.37,141.12c-3.55-1.3-9.2-1.43-14.35-1.18L61.9,151.51h43.38c.21-2.27.77-9.27,0-13.85C99.84,141.73,84.23,143.63,77.37,141.12Z" style="fill:#1c77c3"/><path d="M66,65.37A72.4,72.4,0,0,1,56.18,68c2.63.32,5.71.71,9.21,1.19A18.59,18.59,0,0,0,66,65.37Z" style="fill:#e9bbb1"/><path d="M27,102.6h0l.75-.14h0c.9-.16,1.87-.3,2.91-.45h0l2.78-.38.24,0h0l2.08-.28h0c.77-.11,1.58-.22,2.4-.35h0c.89-.13,1.8-.27,2.73-.43l1.52-.26.44-.09a23.22,23.22,0,0,0,3.7-1h0c.69-.26,1.33-.55,1.94-.85l0,0c.2-.1.4-.2.59-.31h0a16.64,16.64,0,0,0,4.66-3.77c-7.21-2.51-6.09-12.61-2.43-16.44-4.43-3.26-7.5-6-8.74-6.15q-1.21,1.19-2.34,2.46c-14-.53-10.3,18.27-11.82,23.74q-.87,2.39-1.73,4.85l.22-.05Z" style="fill:#a4c9e7"/><path d="M51.6,132.33a18.58,18.58,0,0,1,2.08-6.18c3.37-5.76,3.73-16.13,3.73-16.13l-.53.19h0l-.26.09h0l-.24.08-.09,0-.28.1-.06,0-.33.11-.07,0-2,.71-3,1h0l-2.06.73h0l-2.59.93-1.92.69h0L40.72,116l-.16.06-.7.24-.76.24-.06,0-.77.21h0c-.25.07-.49.12-.73.17h0a15.8,15.8,0,0,1-2.35.32h0a9.8,9.8,0,0,1-2.68-.18h0l-.44-.1h0l-.41-.12h0c-2.39-.79-3.64-2.43-4.9-3.16a2.07,2.07,0,0,0-.63-.25h0c-1.85-.41-3.22,2.19-3.38,2.51h0v0h0l-.2-.15c-1.92,6.47-3.29,12.27-3.44,16.06,0,0,2.28-.07,5.79-.13C31.75,131.64,43.43,131.6,51.6,132.33Z" style="fill:#a4c9e7"/><path d="M137.33,67.21V59.5c-5.51,5-12.37,8.43-17.5-2.55l-1,9.52A85.93,85.93,0,0,1,137.33,67.21Z" style="fill:#e9bbb1"/><path d="M137.33,59.5c7.66-6,12.07-18.3,4.83-18,12.87-.62-9.54-17.88-11.32-8.64-4.61-6.14-5.37,1.73-5.37,1.73C107.7,29.4,119.63,79.74,137.33,59.5Z" style="fill:#854e29"/><path d="M47.1,49.12a6.27,6.27,0,0,0-1.17-.78A39.93,39.93,0,0,0,41.18,56c0,1.41,0,3,.08,4.92.07,1.19.08,2.38.06,3.58a9.3,9.3,0,0,0,3.29,2.26h0s3.94.32,11.57,1.25A72.4,72.4,0,0,0,66,65.37c0-.76.08-1.57.07-2.45A33.27,33.27,0,0,1,68,51.25c-1.86-3-10.59-15.49-20.39-4.91a15.63,15.63,0,0,1,.66,2.07A.71.71,0,0,1,47.1,49.12Z" style="fill:#ad7949"/><path d="M21.22,104.84l.22-.19Z" style="fill:#fd5bae"/><path d="M23.59,103.49l.37-.13Z" style="fill:#fd5bae"/><path d="M24.19,103.29l.42-.13Z" style="fill:#fd5bae"/><path d="M23,103.72l.34-.14Z" style="fill:#fd5bae"/><path d="M22,104.23l.27-.16Z" style="fill:#fd5bae"/><path d="M22.52,104l.3-.15Z" style="fill:#fd5bae"/><path d="M104.18,88a16.31,16.31,0,0,1,.39,2l.14-1.93h0l-.22,0Z" style="fill:#fd5bae"/><path d="M25.51,102.92l.57-.13Z" style="fill:#fd5bae"/><path d="M24.83,103.1l.48-.13Z" style="fill:#fd5bae"/><path d="M21.61,104.52l.24-.17Z" style="fill:#fd5bae"/><path d="M19.94,106.93a3.18,3.18,0,0,1,.1-.33A3.18,3.18,0,0,0,19.94,106.93Z" style="fill:#fd5bae"/><path d="M20.11,106.42c0-.09.07-.19.12-.28C20.18,106.23,20.15,106.33,20.11,106.42Z" style="fill:#fd5bae"/><path d="M19.79,107.62c0-.19.06-.36.1-.53C19.85,107.26,19.82,107.43,19.79,107.62Z" style="fill:#fd5bae"/><path d="M20.88,105.18l.19-.2Z" style="fill:#fd5bae"/><path d="M20.32,106l.14-.25Z" style="fill:#fd5bae"/><path d="M20.58,105.56c.05-.08.11-.15.16-.22S20.63,105.48,20.58,105.56Z" style="fill:#fd5bae"/><path d="M48.52,98.3l0,0Z" style="fill:#fd5bae"/><path d="M28.79,112.91c-2.09-4.12.23-8.53,1.89-10.9-1,.15-2,.29-2.91.45h0s-2.6,5.68-1.74,11h0a2.07,2.07,0,0,1,.63.25c1.26.73,2.51,2.37,4.9,3.16l-.4-.15A20.86,20.86,0,0,1,28.79,112.91Z" style="fill:#e11e19"/><path d="M30.69,102l2.78-.38Z" style="fill:#fd5bae"/><path d="M32,117l-.41-.12Z" style="fill:#fd5bae"/><path d="M32.5,117.06a9.8,9.8,0,0,0,2.68.18A9.8,9.8,0,0,1,32.5,117.06Z" style="fill:#fd5bae"/><path d="M27.74,102.46l-.75.14Z" style="fill:#fd5bae"/><path d="M22.69,115.94Z" style="fill:#fd5bae"/><path d="M32.49,117.06l-.44-.1Z" style="fill:#fd5bae"/><path d="M27,102.6l-.22.05-.53.1Z" style="fill:#fd5bae"/><polygon points="22.68 115.97 22.67 115.97 19.03 113.29 22.47 115.82 22.67 115.97 22.68 115.97" style="fill:#fd5bae"/><path d="M56,110.52l-.06,0Z" style="fill:#fd5bae"/><path d="M55.59,110.65l-.07,0Z" style="fill:#fd5bae"/><path d="M56.62,110.3h0Z" style="fill:#fd5bae"/><path d="M38.27,116.74c-.25.07-.49.12-.73.17C37.78,116.86,38,116.81,38.27,116.74Z" style="fill:#fd5bae"/><path d="M56.35,110.39l-.09,0Z" style="fill:#fd5bae"/><path d="M39,116.53l-.77.21Z" style="fill:#fd5bae"/><path d="M39.86,116.27l-.76.24Z" style="fill:#fd5bae"/><path d="M66,65.37a18.59,18.59,0,0,1-.62,3.82c6.59.89,14.71,2.07,24.29,3.63a30.11,30.11,0,0,0,3.36.33c.82-.45,1.58-.85,2.31-1.23-2.1-3.39-3.56-7.55-3.22-15.75.51-12.43-10.34-14.35-10.34-14.35C75.14,40.45,70.42,44.74,68,51.25a33.27,33.27,0,0,0-1.9,11.67C66.09,63.8,66.06,64.61,66,65.37Z" style="fill:#fc0"/><path d="M106.93,132.07v19.44h41.58a93.58,93.58,0,0,0,1.09-17.62C136.34,135.79,114.31,133.09,106.93,132.07Z" style="fill:#222b56"/><path d="M151.14,111.59c-.21-.12,1.23,5.53.36,3.39-6.3,5-3.44-4.67-14.3-8.74-1.13-.38-4.87.48-6,0-1.72-.68-1.19-1.61-2.91-2.36-6.19-3.13-10.19-1.26-16.07-4.37l-4.55.49c-.65-.38-2.4,7.63-3,7.2h0l-.12-.1-.15,24.58c9.93,1.3,33.39,4.72,48.56,1.54l-1.35-21.4-.51-.26Z" style="fill:#d6e6f2"/><path d="M140.79,67.8a84.46,84.46,0,0,0-33.13.22l-3,20h0s1.58,1,4.15,2.35c.61.34,1.28.7,2,1.08,1,.54,2.14,1.12,3.33,1.73,3.75,1.89,7.7,3.71,11.65,5.26.78.31,1.56.61,2.34.89a70.34,70.34,0,0,0,11.1,3.07c1.56.3,2.92.5,4.08.62,1.57.48,7.51,4.05,7.13,3.55l0-4.25-.29-3.52h0c-.18-4.18-2.48-23.2-3-27.73Z" style="fill:#d6e6f2"/><path d="M163.72,130.86c-5.52.3-4-46-8.69-55.65-1-2.15-1.23-.65-7.84-4.09l2.48,21.43s2.94,36,3.33,40.7C160.8,133.35,161.89,132.33,163.72,130.86Z" style="fill:#0c52aa"/><path d="M132.35,100.77h0Z" style="fill:#fd5bae"/><path d="M138.21,102.24h0Z" style="fill:#fd5bae"/><path d="M105.05,107.47l-.33-.24Z" style="fill:#fd5bae"/><path d="M150.86,108.8h0c1.85,3.79-2.56,8.43-2.56,8.43a16.8,16.8,0,0,1,3.23.78h0l.09,0,.11,0,.07,0,.12,0,.09,0,.11,0h.37l.09,0,.09,0,.09,0,.09,0,.08,0,.1,0,.07,0,.11-.07.06,0,.16-.13s0,0,0,0l.1-.1.07-.07.09-.1.06-.08.08-.1.07-.09L154,117l.07-.09.07-.11.06-.1.07-.12.06-.1a.83.83,0,0,1,.07-.13.47.47,0,0,1,.05-.1.91.91,0,0,1,.07-.14l0-.09.08-.17,0-.07.1-.24,0-.09.07-.16,0-.1a.88.88,0,0,0,.05-.15.49.49,0,0,0,0-.11s0-.09,0-.14,0-.07,0-.11a.65.65,0,0,1,0-.13l0-.11,0-.14,0-.1,0-.14a.3.3,0,0,0,0-.1l0-.13s0-.06,0-.09l0-.15s0,0,0-.08l0-.2h0a5.25,5.25,0,0,0,0-.56,4.52,4.52,0,0,0-.27-1.4.56.56,0,0,0,0-.12c-.14-.37-.3-.72-.46-1.06a13.85,13.85,0,0,0-1.27-2.11,13.66,13.66,0,0,0-1.11-1.33,10.76,10.76,0,0,0-1.7-1.49h0Z" style="fill:#f0c6bd"/><path d="M106.75,116.67l-1.08.67c.53,1.83,0,2.28,0,2.28s1.29.9,1.44,1.08h0c.65.51,1.32-.32,1.63-.84,1.18-1.47-.08-3.89-1.1-4.9Z" style="fill:#f0c6bd"/><path d="M41.18,56c.24-8.21,2.73-8.68,4.75-7.65a6.27,6.27,0,0,1,1.17.78.71.71,0,0,0,1.15-.71,15.63,15.63,0,0,0-.66-2.07c-1.66-4.2-6.08-10.18-17.6-8.66-11.85,1.56-4.22,19.82-2.84,29.07,0,0-8.5,16.7,4,14.93,7.62-1.07,8.51-5.26,10.14-9.26C44.3,65.09,41.14,57.4,41.18,56Z" style="fill:#c08759"/><path d="M148.62,107.13c-.3-1.42,3.5-2.29-.32-4-12.21,1.72-37.88-12.37-39.44-12.67-2.57-1.4-4.15-2.35-4.15-2.35L104.57,90l-.44,6c-2.62,8.75-13.25,12.72-13.25,12.72s11.34,19.43-11.23,22.83-16.6-22.83-16.6-22.83c-3.38.36-5.44-.27-6.65-1.42-.73-3.92-.12-10.18,1-12.57s-4.05.5-3.6-.56l-7.24,5-13.11,2.48-2.78.38h0c-1.66,2.37-4,6.78-1.89,10.9a20.86,20.86,0,0,0,2.41,3.77l.4.14h0L32,117h0l.44.1,5-.14c.77.16,15.7-3.58,16.72-3.63L57.41,110h0s-.36,10.37-3.73,16.13a18.58,18.58,0,0,0-2.08,6.18,36.68,36.68,0,0,0-.33,8.79s5.5-.87,11.75-1.18c5.15-.25,10.8-.12,14.35,1.18,6.86,2.51,22.47.61,27.89-3.46a5,5,0,0,0,1.67-1.94v-3.65l-2.49-.36.15-24.57h0l.12.09,0,0c2.1.86,30.36,12.42,29.85,12.57,1.34.45,7,.8,8.23,1.08C145.33,117.52,149.53,111.6,148.62,107.13Z" style="fill:#66aede"/><path d="M22.67,116h0v0h0c.16-.32,1.53-2.92,3.38-2.51h0c-.86-5.29,1.74-11,1.74-11h-.07l-.75.14h0l-.75.15-.15,0-.57.13-.2,0-.48.13-.22.06-.42.13-.23.07-.37.13-.22.09-.34.14-.21.09-.3.15-.21.11-.27.16-.19.12-.24.17-.17.13-.22.19-.15.14-.19.2-.14.16c0,.07-.11.14-.16.22l-.12.16-.14.25-.09.17c-.05.09-.08.19-.12.28l-.07.18a3.18,3.18,0,0,0-.1.33s0,.1-.05.16-.07.34-.1.53L19,113.29Z" style="fill:#f0c6bd"/><path d="M142.81,120.7c.59.14,1.17.25,1.73.33h.08l.77.1h.1l.76.06a31.29,31.29,0,0,0,3.72-5.73c2.14-4.15,1.77-8.86.92-12.41h-.71l-.67,0h0c-.52,0-1.08-.06-1.69-.13h0c.21,1.1.45,2.35.74,3.77C149.43,111.15,145.32,117.39,142.81,120.7Z" style="fill:#e11e19"/><path d="M68.15,92.38c8.57,4.56,15.74,8.53,21.53,11.82q4.6,2.61,8,4.63c6.63,3.88,10,6,10,6h0l-1.36,5h0c-1-.66-5.17-.31-10.67-.39-5.71-.09-12.91-.65-19.71-3.31-12-4.68-22.38-17-28.5-20.5l-.29-.15L47,95.42l9.79-17.74.1-.18a36,36,0,0,1,7.33,10.74c.36.73.72,1.52,1.1,2.37A29.38,29.38,0,0,0,68.15,92.38Z" style="fill:#a4c9e7"/><path d="M104.18,88v0c-7-.92-22.74,2.58-35.09-.94-7-2-13.1-5.91-17.69-9.3-3.66,3.83-4.78,13.93,2.43,16.44l.11,0h0a10.66,10.66,0,0,0,1.64.39h0a13.18,13.18,0,0,0,1.84.15s-8.44,15.5,5.63,14c0,0-6,26.24,16.6,22.83s11.23-22.83,11.23-22.83,10.63-4,13.25-12.72l.44-6A16.31,16.31,0,0,0,104.18,88Z" style="fill:#fc0"/><path d="M89.68,72.82C80.1,71.26,72,70.08,65.39,69.19c-3.5-.48-6.58-.87-9.21-1.19-7.63-.93-11.57-1.25-11.57-1.25h0l-2,4.85h0c1.24.11,4.31,2.89,8.74,6.15,4.59,3.39,10.66,7.3,17.69,9.3,12.35,3.52,28.09,0,35.09.94l.32.05.22,0,3-20,0-.2a36.45,36.45,0,0,0-12.33,4.1c-.73.38-1.49.78-2.31,1.23A30.11,30.11,0,0,1,89.68,72.82Z" style="fill:#0c52aa"/></g></svg>