<svg id="Layer_2" data-name="Layer 2" xmlns="http://www.w3.org/2000/svg" viewBox="0 0 200 200"><defs><style>.cls-1{fill:#fff;}</style></defs><title>transportkosten</title><path class="cls-1" d="M78.8,99.53A35.14,35.14,0,1,1,113.93,64.4,35.17,35.17,0,0,1,78.8,99.53Zm0-66.27A31.14,31.14,0,1,0,109.93,64.4,31.18,31.18,0,0,0,78.8,33.26Z"/><path class="cls-1" d="M86.6,80a13.49,13.49,0,0,1-6.67,1.75q-10.08,0-12-12H65v-3.3H67.6a13.32,13.32,0,0,1-.1-1.82c0-.76,0-1.61.14-2.56H65V58.77h3.1a16.71,16.71,0,0,1,4.55-8.87,11.32,11.32,0,0,1,8.12-3.2A12.44,12.44,0,0,1,86.6,48v3.83a10.48,10.48,0,0,0-6-1.84,7.14,7.14,0,0,0-5.26,2.37,13.27,13.27,0,0,0-3.23,6.39H83.81v3.31H71.54a27.93,27.93,0,0,0,0,4.38H83.81v3.3H71.9q1.69,8.65,8.27,8.65a12.27,12.27,0,0,0,6.43-2Z"/><path class="cls-1" d="M36.28,70.77A28.89,28.89,0,1,1,61.51,27.82,2,2,0,0,1,58,29.77a24.89,24.89,0,1,0-21.74,37,25.77,25.77,0,0,0,3.51-.24,2,2,0,0,1,.56,4A29.09,29.09,0,0,1,36.28,70.77Z"/><path class="cls-1" d="M42.61,54.53a11,11,0,0,1-5.41,1.41q-8.19,0-9.76-9.7H25.12V43.56h2.07a12.32,12.32,0,0,1-.07-1.48A20,20,0,0,1,27.23,40H25.12V37.33h2.51a13.68,13.68,0,0,1,3.69-7.2,9.16,9.16,0,0,1,6.59-2.6,10.14,10.14,0,0,1,4.7,1.07v3.11a8.5,8.5,0,0,0-4.91-1.5,5.79,5.79,0,0,0-4.27,1.93,10.72,10.72,0,0,0-2.61,5.19h9.53V40h-10a22.17,22.17,0,0,0,0,3.55h10v2.68H30.68q1.38,7,6.71,7a10,10,0,0,0,5.22-1.67Z"/><path class="cls-1" d="M182.05,181H44.36v-4H182.05c2.9,0,6-1.85,8.19-4.82,1.86-2.56,2.54-5.39,1.83-7.56-1.16-3.54-3.27-6.68-6.86-10.19a155.3,155.3,0,0,0-12.77-10.55c-2.11-1.63-4.37-3.39-6.8-5.31l-.13-.1c-1.08-.87-2.32-1.86-3.65-2.89-4.71-3.69-11.56-8.58-16.65-8.58L26,125c-6,0-11,4.49-11,10v32c0,5.18,4.45,9.56,10.13,10l-.29,4C17.08,180.4,11,174.27,11,167V135c0-7.72,6.73-14,15-14l119.24,2c6.22,0,13.47,5,19.08,9.42,1.34,1.05,2.59,2.05,3.68,2.92l.13.1c2.41,1.91,4.66,3.65,6.76,5.28A159.35,159.35,0,0,1,188,151.57c4.07,4,6.49,7.62,7.86,11.81,1.11,3.38.22,7.55-2.39,11.14C190.59,178.52,186.21,181,182.05,181Z"/><path class="cls-1" d="M186.61,152c3.57,3.49,6,6.86,7.36,11,2.07,6.32-4.77,15-11.92,15h-4c7.15,0,16-7.68,13.92-14-1.35-4.14-7.79-11.51-11.36-15"/><path class="cls-1" d="M107,155H28a8,8,0,0,1-8-8V136a4,4,0,0,1,4-4h87a4,4,0,0,1,4,4v11A8,8,0,0,1,107,155ZM24,136v11a4,4,0,0,0,4,4h79a4,4,0,0,0,4-4V136Z"/><path class="cls-1" d="M185.21,155H141a8,8,0,0,1-8-8V136a4,4,0,0,1,4-4h25.5a2,2,0,0,1,0,4H137v11a4,4,0,0,0,4,4h44.21a2,2,0,1,1,0,4Z"/><path class="cls-1" d="M34,191a11,11,0,0,1-11-11,10.58,10.58,0,0,1,.07-1.27A2,2,0,0,1,25.25,177q.38,0,.75,0H42.94a2,2,0,0,1,2,1.76A10.19,10.19,0,0,1,45,180,11,11,0,0,1,34,191Zm-6.93-10a7,7,0,0,0,13.86,0Z"/><path class="cls-1" d="M43,191a11,11,0,0,1-5.51-1.48,2,2,0,0,1-1-1.74,2,2,0,0,1,1-1.72A7,7,0,0,0,41,180a6.34,6.34,0,0,0,0-.76,2,2,0,0,1,.48-1.57,2,2,0,0,1,1.5-.67h9a2,2,0,0,1,2,1.76A10.19,10.19,0,0,1,54,180,11,11,0,0,1,43,191Zm-.51-4,.51,0a7,7,0,0,0,6.93-6H45A11,11,0,0,1,42.49,187Z"/><path class="cls-1" d="M152,191a11,11,0,0,1-11-11,10.58,10.58,0,0,1,.07-1.27,2,2,0,0,1,2.18-1.76q.38,0,.75,0h16.94a2,2,0,0,1,2,1.76A10.19,10.19,0,0,1,163,180,11,11,0,0,1,152,191Zm-6.93-10a7,7,0,0,0,13.86,0Z"/><path class="cls-1" d="M161,191a11,11,0,0,1-5.51-1.48,2,2,0,0,1-1-1.74,2,2,0,0,1,1-1.72A7,7,0,0,0,159,180a6.34,6.34,0,0,0,0-.76,2,2,0,0,1,.48-1.57,2,2,0,0,1,1.5-.67h9a2,2,0,0,1,2,1.76A10.19,10.19,0,0,1,172,180,11,11,0,0,1,161,191Zm-.51-4,.51,0a7,7,0,0,0,6.93-6h-5A11,11,0,0,1,160.49,187Z"/><path class="cls-1" d="M192,169H37a2,2,0,0,1,0-4H192a2,2,0,0,1,0,4Z"/></svg>