<svg id="Layer_2" data-name="Layer 2" xmlns="http://www.w3.org/2000/svg" viewBox="0 0 200 200"><defs><style>.cls-1{fill:#e11e19;}</style></defs><title>tu-was-du-liebst</title><path class="cls-1" d="M100.15,127a2,2,0,0,1-1.22-.41l-30.8-23.71-.16-.14c-.28-.27-28.42-27.42-10.35-48.68,6.57-7.73,13.86-11.75,21.66-11.94,9.58-.22,17.1,5.38,20.13,8.06,3.34-2.88,12.09-9.31,22.75-8.78,8,.41,15.38,4.68,21.8,12.71,17,21.31-12.78,47.77-13.08,48l0,0-29.42,24.37A2,2,0,0,1,100.15,127ZM70.66,99.82l29.44,22.66,28.16-23.33c.8-.71,27.09-24.36,12.58-42.5-5.67-7.09-12-10.86-18.86-11.22-11.6-.62-21.07,8.83-21.17,8.93a2.16,2.16,0,0,1-1.45.59,2,2,0,0,1-1.43-.63c-.08-.08-8.08-8.47-18.58-8.16-6.61.18-12.89,3.72-18.68,10.53C45.42,74.63,69.2,98.39,70.66,99.82Z"/><path class="cls-1" d="M187,153.47H13.78a10,10,0,0,1-10-10V25a10,10,0,0,1,10-10H187a10,10,0,0,1,10,10v118.5A10,10,0,0,1,187,153.47ZM13.78,19a6,6,0,0,0-6,6v118.5a6,6,0,0,0,6,6H187a6,6,0,0,0,6-6V25a6,6,0,0,0-6-6Z"/><path class="cls-1" d="M139.15,189H61.64a2,2,0,1,1,0-4H98.39V152a2,2,0,0,1,4,0v33h36.76a2,2,0,0,1,0,4Z"/></svg>