<svg xmlns="http://www.w3.org/2000/svg" xmlns:xlink="http://www.w3.org/1999/xlink" viewBox="0 0 190 150"><defs><clipPath id="a"><rect width="190" height="150" style="fill:none"/></clipPath><linearGradient id="b" x1="24.97" y1="78.14" x2="164.38" y2="78.14" gradientUnits="userSpaceOnUse"><stop offset="0" stop-color="#0e3c62"/><stop offset="0.05" stop-color="#ccc"/><stop offset="0.2" stop-color="#071e31"/><stop offset="0.64" stop-color="#071e31"/><stop offset="0.95" stop-color="#0e3c62"/><stop offset="0.98" stop-color="#dee3e8"/><stop offset="1" stop-color="#0e3c62"/></linearGradient><linearGradient id="c" x1="14.7" y1="122.73" x2="176.1" y2="122.73" gradientUnits="userSpaceOnUse"><stop offset="0" stop-color="#1a72ad"/><stop offset="0.05" stop-color="#a4c9e7"/><stop offset="0.2" stop-color="#0e3c62"/><stop offset="0.64" stop-color="#0e3c62"/><stop offset="0.95" stop-color="#1a72ad"/><stop offset="0.98" stop-color="#a4c9e7"/><stop offset="1" stop-color="#1a72ad"/></linearGradient><linearGradient id="d" x1="97.35" y1="37.6" x2="97.94" y2="37.24" gradientUnits="userSpaceOnUse"><stop offset="0" stop-color="#242426"/><stop offset="0.08" stop-color="#0e0e0f"/><stop offset="0.11" stop-color="#121213"/><stop offset="0.39" stop-color="#404042"/><stop offset="0.65" stop-color="#616164"/><stop offset="0.86" stop-color="#757579"/><stop offset="1" stop-color="#7c7c80"/></linearGradient></defs><g style="isolation:isolate"><g style="clip-path:url(#a)"><path d="M25,122.32V40.23A6.27,6.27,0,0,1,31.24,34H158.11a6.27,6.27,0,0,1,6.27,6.27v82.09Z" style="fill:url(#b)"/><rect x="14.7" y="121.5" width="161.41" height="2.45" rx="0.8" style="fill:url(#c)"/><path d="M97.58,124H15.51s3.11,1.44,3.92,1.83a1,1,0,0,0,.38.08H171a1,1,0,0,0,.33-.06c.87-.35,4.1-1.85,4.1-1.85Z" style="fill:#0e3c62"/><path d="M158.11,34.78H31.24a5.45,5.45,0,0,0-5.45,5.45V121.5H163.56V40.23A5.45,5.45,0,0,0,158.11,34.78Z" style="fill:#0e3c62"/><rect x="31.24" y="40.23" width="126.87" height="75.82" style="fill:#e11e19"/><path d="M72.34,121.61A1.42,1.42,0,0,0,73.77,123H117a1.42,1.42,0,0,0,1.43-1.42.43.43,0,0,0,0-.11H72.36A.43.43,0,0,0,72.34,121.61Z" style="fill:#1a72ad"/><path d="M98.3,37.46a.72.72,0,1,1-.72-.72A.72.72,0,0,1,98.3,37.46Z" style="fill:url(#d)"/><path d="M31.31,34.93a5.45,5.45,0,0,0-5.45,5.45v81.27h15l55-86.72Z" style="fill:#fff;opacity:0.33;mix-blend-mode:screen"/><path d="M56.4,73.23a1.18,1.18,0,0,1,.11-.19S57,71.78,58,68.48s.46-8,.46-10.57-1.18-5,.51-5.13,3,2.15,3.73,7.16A77.24,77.24,0,0,0,64.11,48.5c0-2.47-.31-4.8.59-5.64,1.18-.93,3-.14,3.56,2.28s.72,8,.48,15.39C68.22,66.87,61.2,75,61.2,75l-5.46.74Z" style="fill:#f0c6bd"/><path d="M73.39,68.63a36.38,36.38,0,0,0,5.49-10.25,51.76,51.76,0,0,0,3-13c.31-4.43-1.78-6.21-2.9-6.06s-1.17,2.11-2.24,5.8a48.4,48.4,0,0,1-8,15.45C64.07,66.65,63,67.74,60.14,70s-4.6,3.29-7.25,9.83a61.21,61.21,0,0,1-3.36,7.08" style="fill:#f0c6bd"/><path d="M29.08,86.72c3.48,1.49,9.81-.76,9.81-.76a48.2,48.2,0,0,0,14-9.34c4.45-4.24,6.68-5.9,11.41-6.26s8.3-1.76,14.56-3.63,6.56-.39,11.07,3.35,5.32,5.85,5.36,8.46,1,6.48.19,6.85c-3,1.46-5.28-3.09-5.89-5.91s-3.46-3.9-6.07-4.28c-1.94-.28-5.52,1-9,3h0c-4.79,2.8-11.32,15.61,3.71,19.24,3.78.37,7.7,1,10.44,3.52,3.84,3.53,7.77,7.85,4.82,10.49-2.75,2.3-5.63-2.9-11-3.88s-8.34-2.32-16.48-.06-14.42,1.83-22.37-1c-5.27-1.71-10.07-2.4-14.81-1.68-7.3-.09-16.58-9.2-17.09-15.51C11,78.89,15.76,73.84,25.23,64.56,20.41,73.92,22.73,84,29.08,86.72Z" style="fill:#f0c6bd"/><path d="M133.86,73.92l-.11-.19s-.46-1.26-1.35-4.59-.32-8-.28-10.57,1.27-5-.41-5.13-3,2.09-3.86,7.09a77.43,77.43,0,0,1-1.25-11.48c0-2.46.39-4.78-.49-5.64-1.16-.95-3-.19-3.6,2.21s-.87,8-.76,15.38c.4,6.35,7.28,14.64,7.28,14.64l5.44.85Z" style="fill:#f0c6bd"/><path d="M117,69a36.66,36.66,0,0,1-5.3-10.35,51.92,51.92,0,0,1-2.79-13.1c-.23-4.43,1.89-6.18,3-6S113,41.7,114,45.4A48.42,48.42,0,0,0,121.75,61c4.55,6.21,5.59,7.32,8.43,9.6s4.54,3.37,7.07,10a61.17,61.17,0,0,0,3.22,7.14" style="fill:#f0c6bd"/><path d="M160.92,87.91c-3.51,1.43-9.79-.94-9.79-.94a47.75,47.75,0,0,1-13.87-9.59c-4.37-4.32-6.58-6-11.3-6.47S117.69,69,111.47,67s-6.55-.51-11.13,3.14-5.43,5.75-5.52,8.36-1.07,6.47-.31,6.85c3,1.51,5.34-3,6-5.8s3.52-3.84,6.15-4.17c1.94-.25,5.5,1.11,8.91,3.22h0c4.74,2.89,11,15.81-4.06,19.17-3.79.3-7.72.87-10.51,3.33-3.9,3.45-7.91,7.7-5,10.4,2.71,2.35,5.68-2.8,11-3.68s8.38-2.17,16.48.24,14.38,2.09,22.39-.64c5.29-1.62,10.11-2.22,14.83-1.41,7.3,0,16.75-8.9,17.37-15.2,1-10.42-3.61-15.56-12.9-25C169.83,75.28,167.32,85.31,160.92,87.91Z" style="fill:#f0c6bd"/></g></g></svg>