<svg id="Layer_2" data-name="Layer 2" xmlns="http://www.w3.org/2000/svg" viewBox="0 0 200 200"><defs><style>.cls-1{fill:#fff;}</style></defs><title>unfallversicherung</title><path class="cls-1" d="M97,189.37l-1.21-1C92.58,185.83,16.28,124.8,3.94,77.7c-6-23.08-.26-44.08,15.47-56.18C38.31,7,67.85,8.52,98.63,25.6c13.33-9.1,28-14.09,42.63-14.43,13.75-.32,26.93,3.59,37.14,11C196,35,202.53,55.78,195.76,77.78c-3.65,11.87-11.61,25.52-23.67,40.57a2,2,0,1,1-3.12-2.5c11.74-14.65,19.47-27.86,23-39.25,6.24-20.29.3-39.42-15.89-51.19-17.19-12.48-47.41-16-76.15,4.19l-1,.72-1.1-.62C68,12.86,39.65,11,21.85,24.69c-14.41,11.09-19.66,30.53-14,52C19,119.34,87.15,176.18,97.1,184.3c4.19-3.22,18.46-14.39,34.67-29.33a2,2,0,1,1,2.71,2.94c-19.39,17.87-36,30.41-36.21,30.53Z"/><path class="cls-1" d="M160.08,167.58H147.62a3.88,3.88,0,0,1-3.88-3.87v-17.1h-17.1a3.89,3.89,0,0,1-3.88-3.88V130.26a3.88,3.88,0,0,1,3.88-3.88h17.1v-17.1a3.88,3.88,0,0,1,3.88-3.88h12.46a3.88,3.88,0,0,1,3.88,3.88v17.1h17.1a3.88,3.88,0,0,1,3.88,3.88v12.47a3.89,3.89,0,0,1-3.88,3.88H164v17.1A3.88,3.88,0,0,1,160.08,167.58Zm-12.34-4H160v-21h21V130.38H160v-21H147.74v21h-21v12.23h21Z"/></svg>