<svg id="Layer_2" data-name="Layer 2" xmlns="http://www.w3.org/2000/svg" viewBox="0 0 200 200"><defs><style>.cls-1{fill:#fff;}</style></defs><title>vermoegenswirksame-leistung</title><path class="cls-1" d="M3.5,135.63A2,2,0,0,1,2.09,135a2,2,0,0,1,0-2.82L74.63,59.67l29.5,33.53,77.8-75.53a2,2,0,0,1,2.78,2.87L103.91,99,74.44,65.52,4.91,135A2,2,0,0,1,3.5,135.63Z"/><polygon class="cls-1" points="171.75 12.55 196.5 6.3 189.53 30.86 171.75 12.55"/><path class="cls-1" d="M60.88,194.7H46.16V123.14h9.72a5,5,0,0,1,5,5Zm-10.72-4h6.72V128.14a1,1,0,0,0-1-1H50.16Z"/><path class="cls-1" d="M92.78,194.7H78.06V105.09h9.72a5,5,0,0,1,5,5Zm-10.72-4h6.72V110.09a1,1,0,0,0-1-1H82.06Z"/><path class="cls-1" d="M124.68,194.7H110V123.14h9.72a5,5,0,0,1,5,5Zm-10.72-4h6.72V128.14a1,1,0,0,0-1-1H114Z"/><path class="cls-1" d="M156.58,194.7H141.86V73.91h9.72a5,5,0,0,1,5,5Zm-10.72-4h6.72V78.91a1,1,0,0,0-1-1h-5.72Z"/><path class="cls-1" d="M188.48,194.7H173.76V41h9.72a5,5,0,0,1,5,5Zm-10.72-4h6.72V46a1,1,0,0,0-1-1h-5.72Z"/><path class="cls-1" d="M29,194.7H14.26V149.12H24a5,5,0,0,1,5,5Zm-10.73-4H25V154.12a1,1,0,0,0-1-1H18.26Z"/></svg>