<svg xmlns="http://www.w3.org/2000/svg" xmlns:xlink="http://www.w3.org/1999/xlink" viewBox="0 0 190 150"><defs><clipPath id="a"><rect width="190" height="150" style="fill:none"/></clipPath></defs><g style="clip-path:url(#a)"><polygon points="31.76 144.44 55.43 100.21 73.2 84.22 83.22 68.67 95.61 60.08 111.3 73.2 116.82 83.76 122.8 82.41 128.4 91.23 142.06 102.02 156.55 117.11 161.34 126 170.45 130.53 173.88 136.41 185.47 144.44 31.76 144.44" style="fill:#7aa7cc;fill-rule:evenodd"/><polygon points="140.03 144.44 138.66 141.58 133.73 134.94 130.75 128.45 125.52 123.63 132.69 124.84 135.38 130.12 145.69 133.88 147.63 138.26 155.16 144.44 140.03 144.44" style="fill:#a4c9e7;fill-rule:evenodd"/><polygon points="31.76 144.44 55.43 100.21 73.2 84.22 83.22 68.67 95.26 60.32 89.27 68.15 90.83 68.3 91.13 73.43 88.88 77.27 90.08 84.52 92.77 87.69 91.36 89.88 96.81 103 91.42 106.76 96.13 122.83 95.39 124.5 98.82 130.68 98.97 133.85 102.1 140.78 90.16 143.51 66.56 136.56 34.61 144.44 31.76 144.44" style="fill:#1a72ad;fill-rule:evenodd"/><path d="M42.94,123.55l12.49-23.34,17.77-16,4-1.52,4.41,1.21-3.89.31-5.45,3.84-1,5.28,3.07-2.48,11,.75L73.65,94.32l-2.83,3.93-3.37,1.12-.66,7.93,6.49,3.92.82,5.2,2,6.26,7.39,6.64L65,128.86ZM77.25,77.92l1.63-2.51,6.65-1.31Z" style="fill:#124e77;fill-rule:evenodd"/><polygon points="116.82 83.76 110.92 75.62 105.1 73.35 105.02 77.42 99.04 69.2 97.41 71.7 94.93 67.55 92.55 70.78 91.13 73.43 90.83 68.3 89.27 68.15 95.61 60.08 111.3 73.2 116.82 83.76" style="fill:#a4c9e7;fill-rule:evenodd"/><polygon points="89.04 78.16 98.97 82.18 103.45 89.12 113.16 92.89 120.78 107.22 124.81 112.35 124.52 116.88 120.92 111.14 113.76 105.72 109.27 98.47 101.06 93.95 97.47 88.67 92.77 87.69 90.08 84.52 89.04 78.16" style="fill:#a4c9e7;fill-rule:evenodd"/><polygon points="96.81 103 100.87 109.9 106.85 116.23 111.03 128.45 122.98 137.05 124.47 140.52 118.95 138.56 112.98 138.56 106.85 131.77 100.73 128.6 96.13 122.83 91.42 106.76 96.81 103" style="fill:#a4c9e7;fill-rule:evenodd"/><polygon points="124.47 96.63 132.69 100.24 138.96 112.76 151.51 127.85 137.61 119.71 133.73 111.86 127.76 105.67 125.81 100.55 120.29 95.87 124.47 96.63" style="fill:#a4c9e7;fill-rule:evenodd"/><polygon points="4.53 144.92 16.95 138.47 26.02 136.28 34.27 125.21 45.23 119.61 57 105.26 68.9 110.19 73.64 116.88 77.7 117.69 84.87 127.4 94.47 131.22 95.83 134.23 103.67 137.65 111.63 144.92 4.53 144.92" style="fill:#7aa7cc;fill-rule:evenodd"/><polygon points="4.53 144.92 16.95 138.47 26.02 136.28 34.27 125.21 45.23 119.61 57 105.26 59.43 108 58.55 110.45 60.52 113.74 59.9 115.1 62.35 119.88 58.49 119.68 59.97 123.3 66.06 126.65 66.73 130.26 66 136.35 67.35 139.83 68.09 137.16 70.19 133.27 75.81 137.78 81.29 139.56 84.38 144.92 4.53 144.92" style="fill:#1a72ad;fill-rule:evenodd"/><polygon points="4.53 144.92 16.95 138.47 26.02 136.28 32.68 127.34 31.36 131.91 27.37 137.37 22.9 140.04 32.85 137.99 28.38 141.68 38.87 142.02 47.73 134.1 52.06 132.19 49.01 135.46 48.34 140.31 52.4 138.81 50.71 141.41 53.55 143.32 55.85 142.09 58.83 140.18 60.24 144.14 62.82 144.55 65.16 144.92 4.53 144.92" style="fill:#124e77;fill-rule:evenodd"/><polygon points="125.52 123.63 126.53 128.04 124.44 130.91 129.21 135.13 128.17 139.5 130.36 144.44 140.03 144.44 138.66 141.58 133.73 134.94 130.75 128.45 125.52 123.63" style="fill:#66aede;fill-rule:evenodd"/><polygon points="94.36 58.72 95.75 58.72 95.75 37.45 110.09 32.45 95.75 27.46 95.75 27.46 94.36 27.46 94.36 58.72" style="fill:#e11e19;fill-rule:evenodd"/><path d="M169.73,135.49l.82-1.49,3,1.66-.82,1.49ZM95.66,60.25l-.1.56-1.67-.33.11-.57Zm-2.1,1.9,1.66.33-.65,3.36-1.66-.33Zm-1,5,1.66.33L94,68.66l.94.7-1,1.37-1.35-1-.43-.32.1-.53Zm2.71,4.57,1-1.36,2.73,2L98,73.8Zm4.07,3.07,1-1.38,2.72,2-1,1.38Zm4.8,2.09.3-.4.3.23.53.4-.26.61-1.15,2.81-1.57-.66,1.16-2.81Zm-2.5,4.56,1.57.66-1.31,3.16-1.57-.66Zm-2,4.73,1.56.66L99.94,90l-1.56-.66Zm-2,4.75h0l1-.48,3.22.93-.46,1.65-3.23-.94-.92-.26.38-.89Zm5.38,2.59.47-1.65,3.25,1-.46,1.64ZM108,95l.48-1.64,3.25.94-.47,1.65Zm4.89,1.41.46-1.64,3.25,1-.46,1.64Zm4.88,1.43.47-1.65,3.25.94-.3,1.09.06-.07,1.25,1.15-2.28,2.53L119,100.63l1.79-2Zm.07,4.1,1.25,1.16-2.28,2.53-1.26-1.15Zm-3.43,3.8,1.26,1.15-2.27,2.54-1.26-1.15ZM111,109.5l1.26,1.14-.14.15.4.1-.43,1.66-1.74-.47-1.36-.36.94-1Zm2.73,3.49.42-1.65,3.29.86-.44,1.66Zm4.91,1.31.44-1.65,3.27.86-.44,1.66Zm4.91,1.31L124,114l3.27.87-.44,1.65Zm4.91,1.31.44-1.65,3.27.87-.44,1.65Zm4.91,1.32.44-1.66,3.28.87-.44,1.65Zm4.91,1.31.44-1.67,3.28.88-.43,1.65Zm4.93,1.31.42-1.67,1,.29.11,0,.1,0,2,1.13-.83,1.49-1.91-1.07Zm4.33,2.15.83-1.49,2.95,1.67-.81,1.49Zm4.45,2.5.82-1.49,3,1.66-.82,1.5Zm4.44,2.5.82-1.5,3,1.67-.82,1.49Zm4.43,2.5.83-1.5,3,1.67-.83,1.49Zm4.44,2.49.83-1.49,2.95,1.65-.82,1.51Z" style="fill:#f6a71c"/><path d="M93.27,67.53a2.75,2.75,0,1,1-2.71,2.75,2.74,2.74,0,0,1,2.71-2.75Z" style="fill:#fc0;fill-rule:evenodd"/><path d="M93.27,68.85a1.43,1.43,0,1,1-1.41,1.43,1.42,1.42,0,0,1,1.41-1.43Z" style="fill:#fc0;fill-rule:evenodd"/><path d="M173.25,134.45a2.75,2.75,0,1,1-2.72,2.75,2.74,2.74,0,0,1,2.72-2.75Z" style="fill:#fc0;fill-rule:evenodd"/><path d="M173.25,135.77a1.43,1.43,0,1,1-1.42,1.43,1.42,1.42,0,0,1,1.42-1.43Z" style="fill:#fc0;fill-rule:evenodd"/><path d="M109.59,109.55a2.75,2.75,0,1,1-2.72,2.75,2.74,2.74,0,0,1,2.72-2.75Z" style="fill:#fc0;fill-rule:evenodd"/><path d="M109.59,110.87a1.43,1.43,0,1,1-1.41,1.43,1.41,1.41,0,0,1,1.41-1.43Z" style="fill:#fc0;fill-rule:evenodd"/><path d="M121.36,95.34a2.75,2.75,0,1,1-2.72,2.74,2.72,2.72,0,0,1,2.72-2.74Z" style="fill:#fc0;fill-rule:evenodd"/><path d="M121.36,96.66a1.43,1.43,0,0,1,0,2.85,1.43,1.43,0,0,1,0-2.85Z" style="fill:#fc0;fill-rule:evenodd"/><path d="M98.23,88a2.75,2.75,0,1,1-2.72,2.74A2.73,2.73,0,0,1,98.23,88Z" style="fill:#fc0;fill-rule:evenodd"/><path d="M98.23,89.3a1.43,1.43,0,1,1-1.42,1.43,1.43,1.43,0,0,1,1.42-1.43Z" style="fill:#fc0;fill-rule:evenodd"/><path d="M105,74.1a2.75,2.75,0,1,1-2.72,2.74A2.73,2.73,0,0,1,105,74.1Z" style="fill:#fc0;fill-rule:evenodd"/><path d="M105,75.41a1.43,1.43,0,1,1-1.42,1.43A1.43,1.43,0,0,1,105,75.41Z" style="fill:#fc0;fill-rule:evenodd"/><path d="M95.28,58.24A2.75,2.75,0,1,1,92.56,61a2.73,2.73,0,0,1,2.72-2.74Z" style="fill:#fc0;fill-rule:evenodd"/><path d="M95.28,59.55A1.44,1.44,0,1,1,93.87,61a1.43,1.43,0,0,1,1.41-1.43Z" style="fill:#fc0;fill-rule:evenodd"/></g></svg>