<svg id="Layer_2" data-name="Layer 2" xmlns="http://www.w3.org/2000/svg" viewBox="0 0 200 200"><defs><style>.cls-1{fill:#e11e19;}</style></defs><title>wachse-mit-uns</title><path class="cls-1" d="M91.11,124.47a2.5,2.5,0,0,1-.47,0A2,2,0,0,1,89.16,122c6.92-28.84,20.13-38.27,35.42-49.19a2,2,0,1,1,2.32,3.25C111.66,87,99.63,95.54,93.05,122.94A2,2,0,0,1,91.11,124.47Z"/><path class="cls-1" d="M91.11,191.5a2,2,0,0,1-2-2V132.76C82.52,105.55,70.51,97,55.31,86.12a2,2,0,0,1,2.33-3.26C70.78,92.25,82.37,100.53,89.77,121a2,2,0,0,1,3.34,1.49v67A2,2,0,0,1,91.11,191.5Z"/><path class="cls-1" d="M121.34,102.75c-9.59,0-19.14-4.21-24.75-11.55C92,85.16,86.38,72,100.65,52.05c14.1-19.74,35-30,60.59-29.61A102.56,102.56,0,0,1,195.77,29a2,2,0,0,1,.21,3.59c-.25.14-25.43,14.44-32.91,24.06-4,5.1-6.89,11.53-9.72,17.74-5,11-10.18,22.37-21.34,26.48A30.89,30.89,0,0,1,121.34,102.75Zm38.49-76.32c-23.87,0-42.68,9.4-55.92,27.94-9.48,13.26-11,25.48-4.14,34.41,6.59,8.63,20.15,12.3,30.86,8.36,9.59-3.54,14.2-13.66,19.08-24.39,2.92-6.42,5.94-13.07,10.2-18.53,6.22-8,22.85-18.43,30.36-22.91a102.48,102.48,0,0,0-29.22-4.87Z"/><path class="cls-1" d="M61.72,109.45A24.32,24.32,0,0,1,53.28,108c-8.84-3.25-12.89-12.17-16.82-20.79C34.28,82.38,32,77.41,29,73.49,23.21,66.09,3.73,55,3.54,54.92a2,2,0,0,1,.21-3.59,80.19,80.19,0,0,1,27-5.14c20-.29,36.38,7.72,47.42,23.18,8.22,11.5,9.37,22.78,3.14,30.93C76.86,106.12,69.3,109.45,61.72,109.45ZM9.29,53.66C15.47,57.39,27.48,65.06,32.13,71c3.33,4.28,5.69,9.47,8,14.48,3.75,8.24,7.29,16,14.56,18.7,8.15,3,18.45.22,23.45-6.34,5.16-6.76,4-16.06-3.21-26.19C54.47,43.09,20.8,50.16,9.29,53.66Z"/></svg>