<svg id="Layer_2" data-name="Layer 2" xmlns="http://www.w3.org/2000/svg" viewBox="0 0 200 200"><defs><style>.cls-1{fill:#fff;}</style></defs><title>weiterbildung</title><path class="cls-1" d="M185.2,127.65h-10l.69-2a20.77,20.77,0,0,0,1.13-6.8,21,21,0,1,0-42,0,20.77,20.77,0,0,0,1.13,6.8l.69,2H117.48l.84-2.06a21,21,0,1,0-38.88,0l.84,2.06H61.55l.84-2.06a21,21,0,1,0-38.87,0l.84,2.06H15a7.59,7.59,0,0,1-7.58-7.57V35A7.59,7.59,0,0,1,15,27.39H185.2A7.59,7.59,0,0,1,192.78,35v85.11A7.59,7.59,0,0,1,185.2,127.65Zm-5.89-3h5.89a4.58,4.58,0,0,0,4.58-4.57V35a4.59,4.59,0,0,0-4.58-4.58H15A4.59,4.59,0,0,0,10.41,35v85.11A4.58,4.58,0,0,0,15,124.65h5a24,24,0,1,1,45.91,0h10a24,24,0,1,1,45.9,0h10.91a24,24,0,1,1,46.57,0Z"/><path class="cls-1" d="M43,142.14a24.5,24.5,0,1,1,22.67-15.23A24.41,24.41,0,0,1,43,142.14Zm0-45a20.5,20.5,0,1,0,20.49,20.49A20.52,20.52,0,0,0,43,97.15Z"/><path class="cls-1" d="M98.88,142.14a24.47,24.47,0,1,1,22.68-15.23A24.41,24.41,0,0,1,98.88,142.14Zm0-45a20.5,20.5,0,1,0,20.49,20.49A20.51,20.51,0,0,0,98.88,97.15Z"/><path class="cls-1" d="M156,143.35a24.47,24.47,0,1,1,23.17-16.54A24.47,24.47,0,0,1,156,143.35Zm0-45a20.51,20.51,0,0,0-20.49,20.49,20.12,20.12,0,0,0,1.11,6.64,20.49,20.49,0,0,0,38.76,0,20.22,20.22,0,0,0,1.11-6.65A20.51,20.51,0,0,0,156,98.37Z"/><path class="cls-1" d="M193.1,181H7.09a3.22,3.22,0,0,1-3.22-3.22V155.94c0-3.46,6.82-8.22,13.14-11.19,7-3.26,31-12.33,53.08,4.81,6.8-7,17.62-11.12,29.4-11.12s22.59,4.12,29.39,11.11c21.43-16.79,44.27-9.09,53.24-4.91,5.9,2.75,14.2,8.07,14.2,11.3v21.88A3.22,3.22,0,0,1,193.1,181ZM7.87,177H192.32V156.26c-1.23-1.86-10.73-9.28-24-12.07A43.83,43.83,0,0,0,130,153.83l-1.52,1.28-1.29-1.52c-5.91-7-16.24-11.15-27.65-11.15s-21.75,4.17-27.65,11.15l-1.29,1.51L69,153.83c-15.29-12.74-31.57-11.6-42.53-8.4-10.8,3.16-17.95,8.89-18.63,10.63Z"/></svg>