<svg xmlns="http://www.w3.org/2000/svg" xmlns:xlink="http://www.w3.org/1999/xlink" viewBox="0 0 215 215"><defs><clipPath id="a"><rect x="0.32" y="0.07" width="215" height="215" style="fill:none"/></clipPath><clipPath id="b"><path d="M165.46,165l13.7-1.46c15.89-22.06,28-46.2,36.53-55.65-2.77.81-34.06,11-53,20l-.57,10-3.29-8.07c-2,1-3.73,2-5.23,3-21.44,13.76-45.64,37.1-42.42,65.07,1.36,11.75,14,9,22,6.22,16.17-5.68,30.27-19.75,42.35-35.63Z" style="fill:#04b8b5"/></clipPath><clipPath id="c"><path d="M49.65,78.1,36,73.16C25.17,46.51,18.77,18.68,12.42,6.84c2.64,1.53,32.21,19.83,49.4,33.9L59.9,51.15l5.4-7.47c1.77,1.55,3.33,3,4.63,4.39,18.55,19.52,37.54,49.57,27.2,77.48-4.34,11.72-16.65,5.74-24.12.87-15.18-9.9-26.12-27.9-34.53-47.23Z" style="fill:#04b8b5"/></clipPath><clipPath id="d"><path d="M167.85,130.13c-7.09,3.49-18.45,9.34-26.24,4.75a18.07,18.07,0,0,1-5.81-6.31A56.72,56.72,0,0,1,128,107.94a13.51,13.51,0,0,1,.14-6.66c.74-2.12,2.7-4,4.94-3.89s4.09,1.19,5.4-1.43c2.35-4.69.84-11.13,1-16.14.11-3.63,1.11-10.91,5.6-11.84,3.07-.64,5.72,3.42,8.77,2a4,4,0,0,0,1.95-2.85c1.66-7,.24-18,7-22.72a5.21,5.21,0,0,1,4.93-.76c1.67.74,2.64,2.56,4.27,3.37,1.94,1,4.37.19,6-1.25a17.56,17.56,0,0,0,3.57-5.37c2.43-4.81,5.18-9.63,9.41-13,6.8-5.4,18.54-5.15,18.17,6-.15,4.34-3.5,7.83-6.79,10.67-3,2.62-12.5,10.32-5.44,13.58a21.81,21.81,0,0,1,4,1.86c2.41,1.8,2.78,5.46,1.51,8.18s-3.82,4.62-6.46,6.05-5.48,2.49-8,4.14c-1.85,1.23-3.66,3.42-2.76,5.45s3.93,2.19,5.71,3.66c2,1.66,2,4.88.75,7.15S188.12,98,186,99.44l-6.41,4.36c-2.29,1.55-4.86,3.69-4.52,6.43.21,1.68,1.48,3,2.2,4.52,1.43,3,.57,6.75-1.43,9.43A21.26,21.26,0,0,1,167.85,130.13Z" style="fill:#05aaab"/></clipPath><clipPath id="e"><path d="M51.22,190.66c7.2,3.52,18.73,9.41,26.61,4.74A18.48,18.48,0,0,0,83.71,189a57.44,57.44,0,0,0,7.88-20.94,13.76,13.76,0,0,0-.16-6.75c-.76-2.14-2.74-4-5-3.92s-4.14,1.21-5.47-1.44c-2.4-4.75-.88-11.28-1.06-16.35-.12-3.69-1.15-11.06-5.72-12-3.1-.64-5.78,3.49-8.87,2.07a4.09,4.09,0,0,1-2-2.89c-1.71-7.14-.29-18.28-7.12-23a5.29,5.29,0,0,0-5-.76c-1.69.75-2.66,2.61-4.32,3.43-2,1-4.43.21-6.07-1.25a17.8,17.8,0,0,1-3.62-5.43c-2.48-4.87-5.29-9.75-9.58-13.13-6.91-5.46-18.8-5.17-18.4,6.12.16,4.4,3.57,7.93,6.91,10.8,3.09,2.65,12.7,10.42,5.56,13.75a20.94,20.94,0,0,0-4.1,1.89c-2.43,1.83-2.8,5.55-1.5,8.3s3.88,4.67,6.56,6.11,5.56,2.51,8.11,4.18c1.88,1.23,3.72,3.45,2.82,5.51s-4,2.23-5.78,3.73c-2,1.69-2,4.95-.74,7.25s3.56,3.86,5.75,5.33l6.51,4.4c2.32,1.57,4.94,3.73,4.6,6.51-.21,1.7-1.49,3-2.22,4.59-1.44,3.06-.55,6.84,1.48,9.55S48.18,189.18,51.22,190.66Z" style="fill:#05aaab"/></clipPath></defs><g style="clip-path:url(#a)"><path d="M165.46,165l13.7-1.46c15.89-22.06,28-46.2,36.53-55.65-2.77.81-34.06,11-53,20l-.57,10-3.29-8.07c-2,1-3.73,2-5.23,3-21.44,13.76-45.64,37.1-42.42,65.07,1.36,11.75,14,9,22,6.22,16.17-5.68,30.27-19.75,42.35-35.63Z" style="fill:#04b8b5"/><g style="clip-path:url(#b)"><path d="M192,129.82a55.73,55.73,0,0,1-7.1.59l0-.79c6.1.1,27.3-4,27.51-4l.15.77C211.88,126.53,200.37,128.73,192,129.82Z" style="fill:#e5f4eb"/><path d="M111.16,212.69l-.69-.39c11.14-19.69,26.35-39.18,45.21-57.91,16.19-16.08,35-29.36,53.18-42.2,2.69-1.9,5.47-3.86,8.21-5.81l.46.64-8.22,5.82c-18.15,12.82-36.93,26.07-53.07,42.11C137.43,173.63,122.26,193.06,111.16,212.69Z" style="fill:#e5f4eb"/><path d="M170.59,141.7l-.79,0c.41-10.51,5-30.85,5-31.06l.77.18C175.55,111,171,131.27,170.59,141.7Z" style="fill:#e5f4eb"/><path d="M150.82,159.54a187.27,187.27,0,0,1-1-35.38l.79.06a186.89,186.89,0,0,0,1,35.21Z" style="fill:#e5f4eb"/><path d="M199.2,153.24c-11.54,1.49-32.7.35-40.74-.66l.09-.78c9.18,1.15,35.5,2.48,44.84-.15l.21.76A30.44,30.44,0,0,1,199.2,153.24Z" style="fill:#e5f4eb"/><path d="M172.12,179.39c-10.06,1.3-21.43.33-36.86-1.79l.1-.78c19.89,2.73,33,3.55,45.2,0l.22.76A57.79,57.79,0,0,1,172.12,179.39Z" style="fill:#e5f4eb"/><path d="M130.82,182.34c-.28-1.93-.61-3.92-.95-6-1.93-11.84-4.32-26.57-1.43-38.38l.76.19c-2.85,11.65-.47,26.3,1.45,38.07.34,2.11.67,4.11,1,6Z" style="fill:#e5f4eb"/></g><path d="M49.65,78.1,36,73.16C25.17,46.51,18.77,18.68,12.42,6.84c2.64,1.53,32.21,19.83,49.4,33.9L59.9,51.15l5.4-7.47c1.77,1.55,3.33,3,4.63,4.39,18.55,19.52,37.54,49.57,27.2,77.48-4.34,11.72-16.65,5.74-24.12.87-15.18-9.9-26.12-27.9-34.53-47.23Z" style="fill:#04b8b5"/><g style="clip-path:url(#c)"><path d="M31.28,35.37a58.3,58.3,0,0,0,7.13,2.39L38.6,37c-6.29-1.43-27-10.92-27.25-11l-.35.76C11.63,27,22.9,32.14,31.28,35.37Z" style="fill:#e5f4eb"/><path d="M93.41,140.76l.81-.22c-6.49-23-17.22-46.85-31.88-70.82C49.75,49.13,33.79,30.77,18.34,13c-2.28-2.62-4.65-5.34-7-8l-.63.55c2.32,2.69,4.68,5.4,7,8C33.13,31.3,49.08,49.63,61.63,70.15,76.25,94.06,86.94,117.82,93.41,140.76Z" style="fill:#e5f4eb"/><path d="M50.22,52.94l.82.17c2.22-10.9,2.64-32.94,2.65-33.16h-.84C52.85,20.16,52.42,42.12,50.22,52.94Z" style="fill:#e5f4eb"/><path d="M66,76.22A198,198,0,0,0,76,40.15L75.14,40a197.23,197.23,0,0,1-9.88,35.9Z" style="fill:#e5f4eb"/><path d="M17.94,57.6c11.48,4.43,33.5,8.58,42,9.56l.09-.83C50.33,65.21,23,60,14,54.91l-.41.73A33.9,33.9,0,0,0,17.94,57.6Z" style="fill:#e5f4eb"/><path d="M39.18,91.26c10,3.86,21.92,5.72,38.3,7.42l.09-.83C56.46,95.66,42.81,93.2,31.15,86.53l-.41.73A61,61,0,0,0,39.18,91.26Z" style="fill:#e5f4eb"/><path d="M80.84,104.66c.78-1.9,1.62-3.87,2.5-6,5-11.67,11.12-26.2,11.12-39.05h-.84c0,12.68-6.13,27.12-11.05,38.73-.89,2.08-1.72,4.05-2.5,6Z" style="fill:#e5f4eb"/></g><path d="M167.85,130.13c-7.09,3.49-18.45,9.34-26.24,4.75a18.07,18.07,0,0,1-5.81-6.31A56.72,56.72,0,0,1,128,107.94a13.51,13.51,0,0,1,.14-6.66c.74-2.12,2.7-4,4.94-3.89s4.09,1.19,5.4-1.43c2.35-4.69.84-11.13,1-16.14.11-3.63,1.11-10.91,5.6-11.84,3.07-.64,5.72,3.42,8.77,2a4,4,0,0,0,1.95-2.85c1.66-7,.24-18,7-22.72a5.21,5.21,0,0,1,4.93-.76c1.67.74,2.64,2.56,4.27,3.37,1.94,1,4.37.19,6-1.25a17.56,17.56,0,0,0,3.57-5.37c2.43-4.81,5.18-9.63,9.41-13,6.8-5.4,18.54-5.15,18.17,6-.15,4.34-3.5,7.83-6.79,10.67-3,2.62-12.5,10.32-5.44,13.58a21.81,21.81,0,0,1,4,1.86c2.41,1.8,2.78,5.46,1.51,8.18s-3.82,4.62-6.46,6.05-5.48,2.49-8,4.14c-1.85,1.23-3.66,3.42-2.76,5.45s3.93,2.19,5.71,3.66c2,1.66,2,4.88.75,7.15S188.12,98,186,99.44l-6.41,4.36c-2.29,1.55-4.86,3.69-4.52,6.43.21,1.68,1.48,3,2.2,4.52,1.43,3,.57,6.75-1.43,9.43A21.26,21.26,0,0,1,167.85,130.13Z" style="fill:#05aaab"/><g style="clip-path:url(#d)"><path d="M137.31,150l-.83-.31c4.58-12.27,9.51-24.6,14.65-36.65,3.3-7.74,7.2-15.17,11-22.35,1.56-3,3.18-6.06,4.75-9.14,2.2-4.33,4.46-8.78,6.85-13.09,10.27-18.55,23.45-35.57,36.19-52l.7.55c-12.72,16.43-25.87,33.42-36.11,51.91-2.38,4.29-4.64,8.74-6.82,13-1.58,3.11-3.2,6.2-4.77,9.18-3.77,7.16-7.66,14.57-11,22.28C146.82,125.45,141.9,137.76,137.31,150Z" style="fill:#04b8b5"/><path d="M156.12,103.35,156,103c-5.79-12.47-12.7-38.27-13-48.45l.89,0c.26,10,7,35.25,12.73,47.76,4.21-1.12,43.92-11.85,53.81-24.19l.7.56c-10.58,13.2-52.86,24.13-54.65,24.59Z" style="fill:#04b8b5"/><path d="M169.54,77.22l-.09-.53c-.06-.33-5.78-33.15-3.95-48.16l.88.1c-1.68,13.84,3.13,43.09,3.86,47.38,4.31-1.61,34.86-13.12,43.24-19.59l.55.7c-9.09,7-42.56,19.39-44,19.91Z" style="fill:#04b8b5"/><path d="M148.19,124.58h-1.38l-.12-.11c-11.18-10-16.19-22.69-20-33.83l.84-.29c3.77,11,8.71,23.54,19.64,33.34,2.24,0,26.76.21,41.75-7.3l.4.79C175.42,124.14,153.54,124.58,148.19,124.58Z" style="fill:#05aaab"/></g><path d="M51.22,190.66c7.2,3.52,18.73,9.41,26.61,4.74A18.48,18.48,0,0,0,83.71,189a57.44,57.44,0,0,0,7.88-20.94,13.76,13.76,0,0,0-.16-6.75c-.76-2.14-2.74-4-5-3.92s-4.14,1.21-5.47-1.44c-2.4-4.75-.88-11.28-1.06-16.35-.12-3.69-1.15-11.06-5.72-12-3.1-.64-5.78,3.49-8.87,2.07a4.09,4.09,0,0,1-2-2.89c-1.71-7.14-.29-18.28-7.12-23a5.29,5.29,0,0,0-5-.76c-1.69.75-2.66,2.61-4.32,3.43-2,1-4.43.21-6.07-1.25a17.8,17.8,0,0,1-3.62-5.43c-2.48-4.87-5.29-9.75-9.58-13.13-6.91-5.46-18.8-5.17-18.4,6.12.16,4.4,3.57,7.93,6.91,10.8,3.09,2.65,12.7,10.42,5.56,13.75a20.94,20.94,0,0,0-4.1,1.89c-2.43,1.83-2.8,5.55-1.5,8.3s3.88,4.67,6.56,6.11,5.56,2.51,8.11,4.18c1.88,1.23,3.72,3.45,2.82,5.51s-4,2.23-5.78,3.73c-2,1.69-2,4.95-.74,7.25s3.56,3.86,5.75,5.33l6.51,4.4c2.32,1.57,4.94,3.73,4.6,6.51-.21,1.7-1.49,3-2.22,4.59-1.44,3.06-.55,6.84,1.48,9.55S48.18,189.18,51.22,190.66Z" style="fill:#05aaab"/><g style="clip-path:url(#e)"><path d="M82.23,210.73l.85-.32c-4.68-12.42-9.72-24.9-15-37.1-3.36-7.84-7.34-15.35-11.19-22.62-1.59-3-3.24-6.13-4.84-9.25-2.24-4.39-4.55-8.9-7-13.25-10.47-18.78-23.87-36-36.83-52.64l-.71.56c12.94,16.62,26.32,33.8,36.75,52.52,2.42,4.34,4.73,8.84,7,13.2,1.61,3.14,3.27,6.26,4.86,9.28,3.84,7.25,7.81,14.75,11.16,22.56C72.53,185.85,77.55,198.32,82.23,210.73Z" style="fill:#04b8b5"/><path d="M63,163.48l.15-.34C69,150.48,76,124.3,76.2,114l-.9,0c-.24,10.13-7,35.75-12.77,48.44C58.25,161.3,18,150.53,7.92,138.05l-.71.57C18,152,60.85,162.93,62.67,163.39Z" style="fill:#04b8b5"/><path d="M49.36,137l.09-.53c.06-.34,5.76-33.62,3.87-48.84l-.9.12c1.74,14-3.05,43.67-3.77,48-4.37-1.62-35.38-13.2-43.89-19.74l-.55.72c9.23,7.09,43.2,19.53,44.64,20.06Z" style="fill:#04b8b5"/><path d="M71.14,185c.76,0,1.19,0,1.23,0h.16l.13-.11c11.3-10.13,16.34-23,20.18-34.34l-.85-.29c-3.79,11.15-8.76,23.87-19.81,33.84-2.27,0-27.12.29-42.34-7.28l-.41.81C43.54,184.6,65.71,185,71.14,185Z" style="fill:#04b8b5"/></g><path d="M80.1,123.11l-.81-.22c5.78-21.31,17.91-46.28,24.63-59.27,9.52-18.41,19.84-35.44,25.69-42.37l.64.54c-5.81,6.89-16.1,23.85-25.59,42.21C98,77,85.85,101.87,80.1,123.11Z" style="fill:#36c6c4"/><path d="M134.65,11.75a22.6,22.6,0,0,1,3.87-5.54c1-1,3.17-2.32,4.56-1.34,4.14,2.94-6.37,11.6-8.13,12.87-2.11,1.54-6.06,5-6.06,5S132.7,15.28,134.65,11.75Z" style="fill:#36c6c4"/><path d="M132.64,25.51a17.51,17.51,0,0,1,5-1.61c1.06-.11,3.06.07,3.45,1.33,1.17,3.77-9.4,4.16-11.09,4.12-2-.05-6.08.2-6.08.2S129.77,26.76,132.64,25.51Z" style="fill:#36c6c4"/><path d="M121.46,20.26a17.75,17.75,0,0,1-.71-5.21c.07-1.06.6-3,1.92-3.16,3.9-.5,2.45,10,2.12,11.63-.4,2-.87,6-.87,6S122.2,23.3,121.46,20.26Z" style="fill:#36c6c4"/><path d="M126.15,35.19a17.26,17.26,0,0,1,4.91-1.88c1-.17,3.05-.1,3.51,1.14,1.38,3.69-9.16,4.66-10.84,4.72-2,.06-6.06.52-6.06.52S123.36,36.59,126.15,35.19Z" style="fill:#36c6c4"/><path d="M114.7,30.55a17.6,17.6,0,0,1-1-5.15c0-1.07.43-3,1.74-3.27,3.87-.71,3,9.83,2.75,11.5-.29,2-.53,6.06-.53,6.06S115.6,33.55,114.7,30.55Z" style="fill:#36c6c4"/><path d="M120.19,46.94a20,20,0,0,1,5.61-2.25c1.2-.21,3.52-.16,4.07,1.26,1.64,4.22-10.47,5.52-12.41,5.61-2.33.11-7,.71-7,.71S117,48.61,120.19,46.94Z" style="fill:#36c6c4"/><path d="M106.94,41.8a20.18,20.18,0,0,1-1.24-5.92c0-1.22.45-3.49,2-3.78,4.44-.88,3.61,11.26,3.36,13.19-.3,2.31-.51,7-.51,7S108,45.24,106.94,41.8Z" style="fill:#36c6c4"/><path d="M113,59.5A20.06,20.06,0,0,1,118.55,57c1.19-.27,3.51-.32,4.12,1.08,1.82,4.16-10.22,6-12.16,6.13-2.32.21-6.93,1-6.93,1S109.92,61.3,113,59.5Z" style="fill:#36c6c4"/><path d="M99.58,54.93a20.1,20.1,0,0,1-1.48-5.87c0-1.22.3-3.5,1.78-3.86,4.41-1.07,4.09,11.1,3.92,13-.2,2.32-.22,7-.22,7S100.81,58.31,99.58,54.93Z" style="fill:#36c6c4"/><path d="M106.36,73.82a23,23,0,0,1,6.19-3.17c1.35-.38,4-.58,4.79,1,2.33,4.66-11.39,7.46-13.6,7.77-2.66.37-7.9,1.56-7.9,1.56S102.88,76.08,106.36,73.82Z" style="fill:#36c6c4"/><path d="M90.63,69.37a23.45,23.45,0,0,1-2-6.64c-.13-1.4.13-4,1.82-4.55,5-1.48,5.36,12.51,5.28,14.74-.1,2.69.16,8,.16,8S92.25,73.19,90.63,69.37Z" style="fill:#36c6c4"/><path d="M98.9,88.58a23.2,23.2,0,0,1,5.92-3.64c1.32-.48,4-.88,4.85.62,2.69,4.47-10.77,8.31-13,8.8-2.63.57-7.76,2.17-7.76,2.17S95.6,91.1,98.9,88.58Z" style="fill:#36c6c4"/><path d="M82.87,85.36a23.3,23.3,0,0,1-2.56-6.46c-.24-1.39-.18-4.05,1.46-4.68,4.87-1.87,6.31,12.06,6.4,14.29.12,2.69.79,8,.79,8S84.78,89,82.87,85.36Z" style="fill:#36c6c4"/><path d="M75.52,35.66c2.62-1.65,4.92-6,3.73-8a3.24,3.24,0,0,0-3.38-1.28,7.09,7.09,0,0,0-3.3,1.89c-2,1.8-3.56,6.7.3,7.9A3.22,3.22,0,0,0,75.52,35.66Z" style="fill:#36c6c4"/><path d="M172.17,24.7c2.3-.73,4.9-3.55,4.39-5.29a2.54,2.54,0,0,0-2.3-1.64,5.66,5.66,0,0,0-2.87.78c-1.88,1-4,4.37-1.34,6A2.53,2.53,0,0,0,172.17,24.7Z" style="fill:#04b8b5"/><path d="M158.92,41.11c1.52-.7,3.08-2.85,2.59-4a1.76,1.76,0,0,0-1.72-.93,3.82,3.82,0,0,0-1.92.76c-1.21.83-2.41,3.34-.42,4.28A1.78,1.78,0,0,0,158.92,41.11Z" style="fill:#36c6c4"/><path d="M95.43,13.52c1.09-1.27,1.59-3.88.66-4.72a1.77,1.77,0,0,0-2-.12,3.92,3.92,0,0,0-1.41,1.5c-.75,1.26-.78,4.05,1.42,4.05A1.76,1.76,0,0,0,95.43,13.52Z" style="fill:#05aaab"/><path d="M76,13c1.13-1.24,1.72-3.83.81-4.7a1.75,1.75,0,0,0-2-.18,3.86,3.86,0,0,0-1.46,1.46c-.79,1.23-.9,4,1.29,4.09A1.73,1.73,0,0,0,76,13Z" style="fill:#9be3e1"/><circle cx="103.37" cy="136.56" r="75.65" style="fill:#a4c9e7"/><path d="M85.66,199.8a4.33,4.33,0,0,0,1.36-.28c-.55-.45-1.78-.5-2.49-.94.06,0-2.28-1.39-1.78-.22.12.28.57,0,.76.17-.28.43-.4.3-.1.48,0,0-2.59-1.41,0-1.5-1.78-1.61.13-1.12-.45-2.13-.38-.7,1.53-1.38.5-2-.49-.27-1-.23-1.53-.56-.72-.53,0-1.45.63-1.35.05,0,.4-1.64.53-1.89-.2-.08-1.54-1.74-1.21-2.08s2.13,1.07,2.56,0c.16-.39-.61-1.47-.54-1.91.79-.06,6,.13,5.08-2.24-.3-.82-2.48-2.05-2.26-2.72.76.09,2,1.2,2.81.76s1.21.38,1.9-.39c.1-.14,1.27-1.37.94-1.6-.35,0-.56.19-.58.6-.4-.55.29-.93.66-1.34.11.13.18.25.27.35.43-.65,2.81-3.75,2.91-3.83,1.22-1.41.19-3.33,1.41-4.46a11.54,11.54,0,0,1,3.68-2.27,10.68,10.68,0,0,1,2.27-.89c2.53.78,2.23-2.23,3.84-3.6s.43-8.38,1.75-8.89c.72-.29,2.88-3,4-4.17a4.14,4.14,0,0,0,.81-4.14c-.64-2.27-1.3-1-2.94-2-1.3-.78-2.29-2.34-3.94-2.56a18.33,18.33,0,0,1-2.87-.13c-.42-.12-1.5-.78-1.9-.22.07-.1-.88.35-.81.38-.1-.08,0-1.25-.34-1.54a8.87,8.87,0,0,0-2.8-1.09c-1.41-.38-1.75,1.29-2.11-.69-1.17-.32-2.33-1.68-2.12-2,.1-.14-1.81-4.19-2.08-3.82,0-1.35-4.23-3-5.28-2.4s-2.74-.62-3.33-1.25-.65-1.5-1.77-2c-.48-.2-1.29-.1-1.12-.92s-2.06-1-2.28-1.88a2.3,2.3,0,0,0,.9-.18c-.89.31-2-.33-2.83.37-1.26,1-2-.49-3.39-.21-1.76.32-.58-.32-1.68-1,.45.28-2-1.13-1.47-1.09-.52-.06.08.87-.5,1.07-.91.34-1.71.55-1.11,1.65,1,2-2.1,1.06-.63-.31.26-.22.32-2.84.61-2.75-.35-.13-3.19,1.71-3.52,2.11-.92-1.47-2.45,3.6-3,3.66-.26-1.25-1.45-1.77-2.49-2.13-.87-.35-1.76,1.75-2.92.6-2-2.07-1.14-5.41-.1-7.77.43-1.08-3.77-1.42-4.3-1-1,.83.16-1.75.15-1.66.12-1,.37-1.75.82-1.71.28-.61,1.84-3.44,1.68-3.78-.64-1.46-3.3,1.14-3.54,1.81s-.79,1-1,1.57-.74-.14-1.16.1c-1.15.65-2.79.32-2.53-1.35.25-2-.52-6,1.74-7.33.69-.44.8-2.43,1.59-3.15.1-.07,2.37-1.39,2.15-1.66.34.36,2.12-.37,2.35.1a1.67,1.67,0,0,0,1.6.58s.18-.9.18-.9-.73-.11-.7-.32,2.22-.11,2.29-.11c1,.08,1.76.92,2.51.41,1.17-.79.45,4.41.91,4.89.26.28.07.9.57.84.66-.06.87-6.74,2.59-8.13a28,28,0,0,1,4-2.67c.44-.23,1.6-.78,1.83-1.22,0-.22-.25-.47-.5-.24-.07-.42.62-.16.74-.6s-.35-.56-.29-.71c0,0,.42-.88.27-.75,0,0,0,.06,0,.07.69.12-.15-.63-.17-.74.9.47.52-1,1.4-1.08-.63.27-.51,1-.43,1.41.19,1,1-1.31.92-1.22a18.06,18.06,0,0,0,3.08-1.71c-.2-.07-.43.09-.69-.09.93-.34,2-.24,2.87-.7a2,2,0,0,1,1.58-2.1,36.3,36.3,0,0,0,5.13-1.78c-.25.54.13.11.56.33-.52-1.38-3.38,2.51-2,1.73,1.15-.65,5-1.26,5.56-2.38,0-.08-.25-.82-.24-.82-1,0-1,1.19-2.24,1.18-2.13,0-.83-1.34-1.28-1.94a.9.9,0,0,1-1-.3c.22,0,2.86-.65,1.47-1-2.26-.48-3.77,2-5.63,2,1.38-.86,3.28-2.66,5-2.89s4.3.62,5.87-.48,2.38-.26,3.16-1.84c.25-.44-1-1-1.34-1,.12-.16.41,0,.53-.27-2.13-1-2.57-1.88-2.82-4.34-1.08.78-4.71,2.47-2.77-.28-.69-.29-2.89-2.13-3.74-.86a5.42,5.42,0,0,1-1.64,1.82c-1.44.66-.16.53-.65,1.5-.81,1.57-2.77,1.36-3.71,2.75-.58.88-.77,1.49-1.68,1.89S73.56,78,74,77.24c.28.32.53.36.78.13.06-.35-.42-.19-.59-.31a7.21,7.21,0,0,1,1-1.36c-.15-.07-2.17-.4-2.1-.93.13-1.11-1.26-.51-1.52-.83,1.09-1.38,1.09-2,3.23-3.08.74-.36,4.81-2.45,5.56-1.94-.09.49-.58.39-.86.62.59.15,2.3.35,2.87-.07-.12-.11-.81-1.23-.45-1.51a7.51,7.51,0,0,0,1.26,0c.65-.16,1.37-.25,1.75-.92s2.49-1.35,3-1.06c2.83,1.61-3.83,3.31-3.9,3.13.14.46,1.92-.34,2.38.89.11.3,2.15,1,2.34.68s-.58-.88-.6-1.07c2.14,1,2,.5,1.67-.93s1.26.09,1.34.13c.35.19,1.81-.65,2-1-.54-.4-1.43-.39-1.9-.87s1.13-.54.58-1-1.66-.39-1.3-1.44a1.32,1.32,0,0,0-1.06.14c.1.2.31.05.4.16a2.17,2.17,0,0,1-1.17.22c.13-.17.5-.17.51-.52-1.12-.14-1.71.52-2.67.82.28-.39.73-.52,1.07-.82a5.58,5.58,0,0,0-2.89,1.23,1.52,1.52,0,0,1,.32.39,10.56,10.56,0,0,1-2.83,1.36c.16-.64.85-.49,1.07-1a2.22,2.22,0,0,0-1,.23c.41-.06,1.59-1.25,1.86-1.54-1.71-.21-2.44,2-4.07,1.71.34-.4,1-.2,1.26-.81-.6.06-2.88,1.62-3.25.81,0-.06,4.17-1.71,4.61-2.32-.29,0-.61.25-.86-.08.21-.23.54-.25.77-.49-1.36,0-5.45,1.65-5.14,2.6a1.59,1.59,0,0,1-1.74.28c.24-.4,1.14-.41.42-1-1.31.49-2.6,1-3.88,1.59a70.26,70.26,0,0,0-8.58,4.54,65.37,65.37,0,0,0-12,9.86c-2,2-9.53,10.84-9.5,12.68,0,1.36-.78,2.57-1.29,3.79-.41,1-.48,2.39-1,3.32-1.1,2-.61,4.22-1.1,6.47.63-.47,1.91-10.77,3-10.38.21.07-.7,4.28-.92,4.8-.94,2.16.3,4.8-.32,7a13.46,13.46,0,0,0-.39,1.61c-1,.79.27,2,.26,2.85,0,.54,2.66,2.85,3.18,3.17,1.1.66,1.33-.52,2.34-.32s1.18,1.85,1.68,2.57c.64,1,3.11.85,3.56,1.31.28.36,0,2.25,1.16,2.52,0-.13,0-.8.13-.89.34-.21,1.07,1,.83,1.28a.91.91,0,0,1-.95-.39c0,.17-.19,2.65.53,2.17,0-.15.06-.31.07-.46,1,.41.89,1.81,1.56,2,.92.26,1.63,1.42,2.3,1.74s.46-2.16,1.64-2.3c1-.08,1.5,2.4,1.82,3,.52.87-.67,3,0,3.64s-1.64,2.37-1.76,3.06-1.24,1.06-1.2,1.25a4.4,4.4,0,0,1-.47,1.94c-.58,1.55-.29,1.68.72,2.4,0,0-1.87,3.78-.78,4.75a17.24,17.24,0,0,1,4.56,7.1,10.88,10.88,0,0,0,5.7,6.37,6.85,6.85,0,0,1,4,6.14c.09,1.64-.17,3.72.54,5.27.49,1.08-.44,2.86.26,3.84.45.61-.14,1,.13,1.53a7,7,0,0,1,.89,2.34c0,1.17,0,2.59.08,3.76,0,.41-.35,1.08-.15,1.34a20.43,20.43,0,0,1,1.86,5.39c0,.28,1.23-.06.13-1.18,1.31-.73,1,2.36,1.13,2.37-1.18-.38-.43-.06-.32,1.47.06.9-.24.47.5.64,1.18.26,0,1,.44,1.67a30.9,30.9,0,0,0,3.16,3.41c1.5,1.6,4.07,1.33,5.87,1.71C85.92,199.86,85.33,199.74,85.66,199.8ZM90.59,76.5a3.23,3.23,0,0,1-1.33.59C89.59,76.57,90.07,76.65,90.59,76.5Zm-3.94-.34a.72.72,0,0,1,.72.25c0,.12-1.61.21-1.87.61.21-.69.8-.58,1.15-.86C86.82,76.36,86.3,76.44,86.65,76.16Zm-4,2.8c.34.09-.49-.07,0,0Zm-2.18-4.15c.15-.16.27-.14.35.08-.15.18-.27.14-.35-.08S80.49,74.92,80.51,74.81Zm-2.16,6.47c-.61,0,.64,0,0,0ZM79,78.77c-2.09,2-.47,0-1.07.64,0,0,0,.06,0,.06-.18-.19,1.06-.68,1.1-.7C78.73,79,78.62,78.83,79,78.77Zm-.77-2.32c-.39.44-.39.44-.91.34C77.59,76.6,78,76.66,78.22,76.45ZM87.63,69h-.49c.67-.57.55,0,.49,0Zm1.51-1c-.23.27-.56.1-.84.24C88.6,67.66,88.66,67.64,89.14,68Zm-8.52.7a.77.77,0,0,1,.62-.22c.2.29-1.28.46-.62.22C80.71,68.54,80.54,68.73,80.62,68.7Zm-.38-.43c.24.11.22.22-.07.34-.2-.12-.18-.23.07-.34Zm-11,18.82s-3.3,1.33-3,.49c-.06.26,1.14-.93.88-.82a21,21,0,0,1,3.16-.25,2.3,2.3,0,0,1-1,.58Zm2.66-1.65c2.75.27-1.63,1.11-2.1.61a2.71,2.71,0,0,1,2.1-.61C72.08,85.48,71.11,85.37,71.86,85.44Zm-.45-17a7.54,7.54,0,0,1,2.47-1,6.62,6.62,0,0,1-2.49,1.06Zm.15,14.8a.22.22,0,0,1-.36,0c.18-.07.34-.12.36,0S71.54,83.1,71.56,83.22Zm-.81,1.65c-.06,0-.27-.08,0,0ZM70,83.45c1,.47.42,2-.44.82a3.33,3.33,0,0,1-1.93,2.07,1,1,0,0,0,.25-.93c-.22-.17-.63.3-.86.29.09.44,1.79-2.9.36-1.94-.51.4-3.94,4-4.14,3.83s1.52-3,1.66-3.09C66,83.54,68.48,82.76,70,83.45ZM68,70.73c.14-.08,1.24-.76,1.39-.6.34.45-1.78,1-1.87,1,.11-.28.32-.3.48-.41C68.43,70.52,67.88,70.84,68,70.73Zm.23,9s-.44.86-.69.54.62-.94.69-.54C68.24,79.88,68.24,79.56,68.27,79.68Zm-2.4-6.91c.12,0,1.9-1.11,2-.66A13.28,13.28,0,0,1,65.87,72.77Zm-.49,1.84a.44.44,0,0,1-.47.28C65,74.69,65.17,74.67,65.38,74.61Zm-1.24,4.28c.24-.2.83-1.13.54-1.48.17.19-1.06-.14-.5-.35.23-.08,1.62-.84,1.84-.6.4.41-1.74,2.65-2.17,2.83a.61.61,0,0,1,.29-.4C64.5,78.62,64,79,64.14,78.89Zm1.22,2.82c1.53-.49,2.08-1.36,3-.17.35.42.27,1.55-.54,1.28.22.07-2.49-.18-2-.47a2.86,2.86,0,0,1-2.22.29,9.49,9.49,0,0,1,1.75-.93C65.74,81.58,64.71,81.91,65.36,81.71Zm-2.14-2.85c.14.37.05.55-.38.61A6.17,6.17,0,0,0,63.22,78.86Zm-21.72,33c-.7,0,.55,0,0,0Zm8.77,6.29c-.2.07.54-.12,0,0C50.23,118.19,50.36,118.16,50.27,118.17Zm21.39,7.08c-.37-.07.43,0,0,0Zm3.5,62.7c-.61-.12.33-.48,0,0C75,187.93,75.17,187.93,75.16,188Zm1.56-31.37c-.23-.22.13.11,0,0S76.76,156.62,76.72,156.58ZM77,176.12c-.39.12.43-.16,0,0Zm2.06,21c-.27-.16-.27-.26,0-.3.3.12.31.23,0,.3Zm2.73,1.19c-.28-.05-.26-.16.08-.32.25.08.22.21-.08.32C81.64,198.36,81.82,198.35,81.75,198.36ZM76,190.59a.47.47,0,0,1-.09,0C76,190.56,76,190.54,76,190.59ZM82.75,64.68h0ZM57.05,76.86a0,0,0,0,1,0,0Zm.72-.61Zm120,46.75h0c-1.48-5.46-2.57-10.83-4.84-16.12A75.93,75.93,0,0,0,148.67,76a71.21,71.21,0,0,0-7.86-5.14q-1.94-1.12-4-2.13c-.58-.28-2.63-.81-2.94-1.32,0,.23,1.2.84,1.35,1a15.44,15.44,0,0,1-2.95-1.23c.06-.12.22,0,.2-.17-1.2-.76-5.65-2.42-6.54-1.19.18-.25,3.08,3.09,3.14,3.69.2,1.29,2.22,2.68,3.53,3.09,1.79.6.45-.2,1.19-.62.49-.24,1,.83,1.41.57a0,0,0,0,1,0,0c-.11-.26-.28-.5-.41-.74-.15,0,3.27,3.5,3.69,2.73a8.06,8.06,0,0,0-2-2.91c-.83-.81-2.19-.88-3.11-1.68-.46-.41-2.19-1.67-2.39-2.25,2.3.08,4.94,4.89,7.22,3a6.85,6.85,0,0,1-.92-.71c.41.12,2.34.74,1.7,1.54-1.83-.32,1.51,1.53,1.58,1.75-.33,0-.56-.29-.87-.32.13.64,1.92,1.28,2.07,2.36-1.09.18-.62-.65-1.35.24-.2.27-1.19.18-1.7.22-1.26.11-2.65-2-3.57-2.66a4.51,4.51,0,0,0,2.37,2.58c.63.36-.9.53-.88,1.07,0,0,.4.18.4.27s-.35-.24-.4-.27a10.09,10.09,0,0,1-.26,2c1,1.19-1.35.84-1.43.88.2.28.58.4.65.81a6.27,6.27,0,0,0-1.93.18c1,.3,6.41,2.8,5.22,4.7-.37.61-4.05-.15-4.72-.19-1.43-.09-.11,1.36-.06,1.53.21,1.08,1.06,1.55,1,2.82-.06.89.86.92,1.11,1.66s.12.73.79.8c1.21.16,1.24,0,2.25.76.74.58,1-.51,1.89-.54,2.15-.09.32-.54,1.35-.83,1.26-.35-.36-2.35-.29-2.74s-.08-1.1.62-1.3c1.1-.29-.29-1.41-.36-1.71-.23-.9,3,.74,2.6-1.51,1.88.58,3.78,2.24,5.47,3.21a8.88,8.88,0,0,1,2.75,2.14c.89,1.14-1.25.66-1.37,1s1.88,1.28,2.19,1.24a13.09,13.09,0,0,0-.27-1.56c-.09-.8-1.26-1.58-1.19-2.22a1.94,1.94,0,0,1,1,.4c-1.1-1.32-2.86-1.45-4.1-2.45-.72-.61-1.66-1.1-2.4-1.72,0,0-1.31-1.68-.4-1.36,1.46.49,3,2,4.51,2.74a6.26,6.26,0,0,1,2.3,2,15,15,0,0,0,2.56,2.55,10.87,10.87,0,0,0,2,1.52,16.46,16.46,0,0,0-.78-1.87c-.43-.66-2.1-1-2.1-2,.38,0,.42-.36,1.24-.34-.43,0,.54-.64.47-.54a11.57,11.57,0,0,1-4.24-5.29c.42,0,.66.6,1.12.3a1.71,1.71,0,0,1-.14-.95c.11.15,1.6,1.42,1.3,1.68a1.52,1.52,0,0,1-1.05-.52c.2.74,1,.76,1.26,1.28,0-.22-.12-.39.06-.61,1.3.54,3.95,2.6,4.29,4-.57.07-1.64-1.14-2.05-.84a1,1,0,0,0,.06.85,1,1,0,0,0-.46.14.86.86,0,0,1,.35.63c-.22.08-.4.13-.64.2.19.72,4,4.38,4.28,4,.08-.12-.13-.5-.08-.56.18-.22.78.84,1.11.61s-.24-.48,0-.63c.56-.3,2.88,4.22,3.16,4.75,1.09,2.08.37.8-.49,1.09a2,2,0,0,0-.21.7,11.72,11.72,0,0,1-3.9-1.86c-1.75-1.27.56,3.4-.45,2.82-.6-.34-.94-.83-1.66-.89-1.08-.12-1.37-1.23-2.34-1.57-.77-.26-3.92-.56-3.5-2,.33-1.23-1.24-2.24-1.78-2.7-.27-.25-3.73.2-4.3.38-.95.3-2.47.61-3,1.51-.92,1.66-3-.54-3.9-.2-.43.2,0,1.56-.23,2-.36.67-1.19.71-1.41,1.48-.36,1.41.7,2.59.22,3.89-.41,1-2.4,1.47-2.43,2.33a1.36,1.36,0,0,1-.53,1.21c-.91.52,0,1.72-.54,2.32-3.08,3.12,1,6.18.29,9.63-.4,2-.62,2.35.22,4,.18.42,0,3.45,1.58,2.22.2,1.76,2.45,2.13,2.84,3.81.51,2,2.45,2.85,4,4a11.41,11.41,0,0,0,1.82,1.44c1.25.66,2.08-.34,3.27-.67a4.56,4.56,0,0,1,3.21.28c.59.28,4.94-2.79,6.1-2.21.87.43.91,1.47,1.32,2.23.57,1.06,1.75-.33,2.55,0,1.44.64,1.85,5.84.65,6.81-.91.66,1.16,3.51,1.44,4.08a12.32,12.32,0,0,1,1.29,6.2c-.21,1.44.21,3.73-.63,5a28.32,28.32,0,0,0-1.95,4.07c-1.74,3.71-.1,7.91-1.55,11.76-.89,2-.74,4.08-1.22,6.13-.3,1.34-1.94,3.27-1.31,4.64,1-.87,2.41-.75,3.51-1.31,2.23-1.1,3.31-3.68,4.93-5.4a10.78,10.78,0,0,0,1.91-3.18c.5-1.07,1.48-1.77,2-2.8,1.11-2.64,2.16-5.29,3.29-7.93,2.4-5.69,2.81-11.17,3.63-17.27A58,58,0,0,0,177.78,123Zm-5.69-15c-.31-.76-4.36-6.68-3.88-7s9.16,14.92,8.23,17.28c-1.32-3.48-2.9-6.87-4.35-10.28Zm3.69,27c-.18-.4.06-.79.17-1.28C176.13,134.2,175.84,134.57,175.78,135Zm-.46,2.4a.81.81,0,0,1,.14-.65C175.58,137,175.47,137.14,175.32,137.36Zm-1.43,19.58-.46.16c-.28,0,.51-.37.54-.41,0,.14,0,.2-.08.25S173.94,156.89,173.89,156.94Zm.21-7.95c0-.72,0-.76.77-1.22C174.7,148.27,174.18,148.51,174.1,149Zm.82-3.7a20.26,20.26,0,0,1,.25-4.19c0,2.26.15,4.53.08,6.79a6.38,6.38,0,0,1-.33-2.6Zm1.2,4.22c0,1.22-.21,4.52-1,5.47.07-2,.82-3.9.85-5.95a.58.58,0,0,1,.15.48Zm.93-12.34c-.34,1.44,0,1.89-.87,2.7,0-1.09-.39-3.14.7-3.77a1.48,1.48,0,0,1,.17,1.07C176.9,137.75,177.15,136.73,177.05,137.17Zm-47.48,70.25c.11.23-9.53,2.92-10.51,3.15a77.49,77.49,0,0,1-12.16,1.56,70,70,0,0,1-23.36-2.59,12.13,12.13,0,0,0,3.09.44c-.93-.57-2.08-.38-2.91-1.11,3.13.51,6.1.27,9,.65-.29-.4-2.91-1-2.89-1.31.39,0,2.37-.08,2.47-.15.94-.72-1.5-.64-1.31-1.16.1-.15.76.08,1-.23.37-.49,0-.75.13-1a13.7,13.7,0,0,1,4.28-.71c-.45.27-.95,0-.78.69-.37,0-1.54,0-1.62.5a12.61,12.61,0,0,1,1.32,1.69c.45.68,2,1.1,2.08,1.91.26,1.37,7.44,1.24,8.49,1.12,2.69-.31,5.18-1.27,7.84-1.72,1.56-.29,3.12-.71,4.71-.88.72-.07,3.18-.93,3.76-.73.37,1.27,6.08-.4,7.42-.13C129.59,207.44,129.35,207.39,129.57,207.42Zm43.56-41.76c.31-.77.57-1.57.94-2.33A18.9,18.9,0,0,1,173.13,165.66Zm1.25-3.13a.87.87,0,0,1,.14-.27C174.52,162.36,174.42,162.44,174.38,162.53Zm-82.71-99c-.44-.07-.85,0-1.3-.09.24-.19,1.5-.23,1-.6,1.73-1.07,5.39-1.28,7.4-1,2.24.27,4.49-.41,6.72-.07a24.79,24.79,0,0,0,2.56.22c.8.09-.09.89.8,1,.5.07,1.56,1.25,2,1,0,.82-.39.24-.13,1,.06.19,1,.7,1,.77a22.2,22.2,0,0,1-2.48,0c-.2,0,0,.4.21.33a18.86,18.86,0,0,0,2.13,0c-1.29,1.14-3.18,1-4.57,1.93-.86.57-2.16.52-3.12.86A6.74,6.74,0,0,1,102.46,72c-.46.68-3.65-.92-4-1.31-.69-.84-2.29-3-.56-3.73,2.1-.82,0-.15-.62-.6.52-.7,1.07-.47,1.85-.35a1.09,1.09,0,0,0-1.51-.41c-.19-.61.87-1.14-.07-1.79-.4-.28-2.63.06-2.69-.34-.13-1,2.7-.44,3.2-1.24-2.11-.45-4.39,1.62-6.42,1.3Zm39.81,14.42c.34,0-.45-1.12-.63-1.34a.86.86,0,0,0,.66-.09A6.75,6.75,0,0,0,129,74.8c-.84.52-1.9-1.8-2-2.12,1.43-.18,2.32,1.34,3.6,2,1.11.53,5,2.42,5.16,3.6.09.59-3,.36-3.45,1-.35-.87.78-.84.76-1.11s-1.43-.27-1.58-.26ZM91.16,79A19.9,19.9,0,0,0,88.34,82c.06.23,2.79.06,3.24.34,0,.31-.39.15-.44.42.35,0,1.46-.7,1.61-.5a.82.82,0,0,1-.08.51c1.22,1.18,1.08-1.39,1.17-1.52-.85-.13.16-1.31-1.24-.81A5.44,5.44,0,0,0,91.13,80c-.15-.13,1.16-1.25,1.25-1.39-.77-.21-.86.14-1.22.4S91.26,79,91.16,79Zm2.65,2.81c.11.09-.19.09,0,0C93.84,81.85,93.78,81.84,93.81,81.83Zm-.6-.07c.07-.07.51-.26.22,0-.08.17-.46.3-.22,0C93.24,81.73,93.16,81.83,93.21,81.76Zm-1.92-3.08h0a0,0,0,0,0,0,0Zm-2.4,2.43a.25.25,0,0,1,.19,0c-.07,0-.36,0-.19,0S88.85,81.12,88.89,81.11ZM62.64,112.66c-.73.08.48-.57.39-.82-.52-1.13-3.94-1.39-4.26-2.31a.47.47,0,0,0,.3-.31c-1.18-.48-1.78,1-2.83.87,2.19-3.75,7.67.53,9.86,2.25-1.15.15-2.3.15-3.46.32Zm2.86,2c-.55-.24,1.81-.21,2.13-.34-.47-.72,0-1.11-.95-1.4.83-1,3.57.18,4.44.56-.08.12-.22,0-.32.18.08,0,1.89,1.55.67,1s-2.07.22-3,.75c-.74-1.06-2-.33-2.94-.8Zm64.06-38.27c1.28,1.34-.72,2.38-1.63,1.51-.43-.46-.16-1.53-1.2-1.84l.83-.28c-.7-1.65,1.66.28,2,.61S129.45,76.27,129.56,76.38Zm-16.75-8.09c-.08-.24,1.85-.15,2.17-.19.52-.1,4.34.29,3,.91-1.06.46-2.59,1-3.57.1a11.22,11.22,0,0,0-1.59-.74C112.76,68.12,112.87,68.57,112.81,68.29Zm35,19c.46,0,1.53,1.71,1.37,2-.51.81-1.39-1.23-1.93-1.56A2.45,2.45,0,0,0,147.82,87.32ZM88,64c1.31-1,1.6-.43,3.23-.25-.53.48-1.78.57-3.23.25C88.33,63.74,89.42,64.33,88,64Zm28.88-1.11a26,26,0,0,1-2.93-.7,9.18,9.18,0,0,1,3.26.54c.27.07-.39.14-.33.16C115.89,62.63,116.93,62.91,116.85,62.9Zm-2.93-.7a1.08,1.08,0,0,1-.32,0,.23.23,0,0,1,.32,0C113.82,62.23,113.87,62.19,113.92,62.2Zm-51,52.52a.35.35,0,0,1,.37.33c-.13.55-1.83-.24-2-.47A1.55,1.55,0,0,1,62.93,114.72Zm12.2,0c-.9,2.19-3.18-1.55,0,0C75,115,74.6,114.41,75.13,114.69Zm3.5,10.69h0c0-.07.09-.09.17-.1Zm.32-.07s.24-.9.83-.94c.67.42-.5,1-.83.94Zm7.16-61.76c-.61.41-1.33.13-2,.37a1.9,1.9,0,0,1,2-.37C85.5,64,86,63.51,86.11,63.55ZM63.37,107.9c-.23-.91-.58-.92,0-1.71.23.85.23,1.35,0,1.71C63.29,107.54,63.63,107.54,63.37,107.9ZM47,139.19c0,.32-.16.46-.47.33a2.27,2.27,0,0,1,0-1.41c.15.35.31.7.45,1.08C47,139.34,46.83,138.81,47,139.19ZM84.88,80a2.89,2.89,0,0,1,1.9.65A2,2,0,0,1,84.88,80Zm62.65,7h0c-.2-.07-1.42-.82-.94-1.22S147.48,86.88,147.53,87Zm12.72,6.3c-.25-.25-.75-.08-.88-.58.42.24.9.12,1.3.44-.13.12-.29.28-.42.14S160.38,93.46,160.25,93.32ZM87.18,64c-.13-.18-.33-.06-.46-.23.35-.38.82-.25,1.25-.36,0,0-.52,1-.79.59C87.05,63.79,87.24,64.09,87.18,64Zm-2.13.46a2.75,2.75,0,0,1-1.9.77A3.23,3.23,0,0,1,85.05,64.43Zm-.18,18.72a1.5,1.5,0,0,0,.54,0c-.73.91-1.6-.36-1.42-.4-.13,0,.82.43.88.43S84.57,83.11,84.87,83.15Zm.3-18.36a2.47,2.47,0,0,1,1.77-.44A2.81,2.81,0,0,1,85.17,64.79Zm59.2,24.34c-.59-.09,1.12-.64.51.16a1.13,1.13,0,0,1-.51-.16C144.29,89.11,144.56,89.14,144.37,89.13Zm18.91,4.31a.65.65,0,0,1-.4-.83A.9.9,0,0,1,163.28,93.44Zm-76.8-25.9c.21-.37.44-.48,1.19-.48A1.38,1.38,0,0,1,86.48,67.54ZM81,70.08a2.17,2.17,0,0,1-1.22.37C80.12,70.08,80.49,70.1,81,70.08Zm45.39,3.11c-.08.17,0,.28.13.4-.15-.06-.68-.72-.25-.82a.27.27,0,0,1,.12.42C126.33,73.36,126.46,73.11,126.41,73.19ZM58,110.26c0,.25-.15.37-.39.37-.13-.21.26-.84.39-.37Zm25.47,78.55a.53.53,0,0,1,.34.44c0,.67-1.2-.35-.34-.44ZM81.75,70.47a1.11,1.11,0,0,1-.66.43A.68.68,0,0,1,81.75,70.47Zm-34.22,68.6c-.06.75-.22-.74,0,0C47.53,139.17,47.5,139,47.53,139.07ZM86.8,71.73s.07,0,.09,0S86.63,71.8,86.8,71.73Zm-3.39-7.22-.25,0A.25.25,0,0,1,83.41,64.51Zm-.29.06c-.07,0,0,0,0,0A0,0,0,0,0,83.12,64.57Zm-.36.1h0S82.75,64.67,82.76,64.67Zm0,0c.09-.12.21-.1.34-.1A.26.26,0,0,1,82.76,64.67Zm2.4.12h0Zm0,0c0,.15-.13.13-.23.13S85.05,64.79,85.16,64.79ZM57.32,142.3c-.16-.13.11.11,0,0S57.41,142.38,57.32,142.3Zm80.92-71.57c.45.13,0,.11,0,0Zm-11.69,2.88s0,0,0,0,0,0,0,.1,0-.06,0-.08ZM84.9,64.92h0s0,0,0,0Zm-.13,0,.13,0c-.05.11-.11.11-.13,0S84.78,65,84.77,64.94Zm68.94,23.39ZM93.65,137.11c-.24-.19.17-.15,0,0C93.62,137.09,93.7,137.06,93.65,137.11Zm36,70.3h-.05s0-.06.05,0Zm-.05,0ZM69.13,83.55s.73-.1.49.19-.44.07-.49-.19C69.2,83.55,69.13,83.7,69.13,83.55Zm-4.42-6.14c-.2-.14-.16-.28.14-.43.23.1.18.24-.14.43C64.61,77.4,64.87,77.35,64.71,77.41Z" style="fill:#fff;fill-rule:evenodd"/><path d="M129.08,102h0s0,0,0,0a.05.05,0,0,1,0,.06l-.07,0a.3.3,0,0,0-.14.11l0,0,0,0a.05.05,0,0,0,0,.07.06.06,0,0,1,0,.07.87.87,0,0,0-.07.17.08.08,0,0,1,0,.07s0,0,0,0a.39.39,0,0,1-.08.1l0,0h0l-.07,0-.09,0h0s0,0,0,0v0l0,0s0,0,0,0l0-.06a.13.13,0,0,1-.06-.07.05.05,0,0,0,0,0,.05.05,0,0,1,0-.06.19.19,0,0,0-.07-.14l0,0s0,0,0,0l.08,0h.17l.08,0h.11a.09.09,0,0,0,.06,0h.06l0,0,0,0,0,0,0,0s0,0,.06,0a.09.09,0,0,0,.06,0l0,0H129l0,0Z" style="fill:#f2f2f2"/><path d="M132.9,101s0,0,0,.07a.09.09,0,0,1,0,.07s0,0,0,0a.08.08,0,0,1,0,.08v0a.11.11,0,0,1,0,.09l-.06,0h0l-.05,0a.13.13,0,0,1-.1,0h0a.07.07,0,0,0-.07,0l0,0s0,0,0,0h-.11a0,0,0,0,1,0,0,0,0,0,0,1,0,0l0,0s0,0,0,0v-.06s0,0,0,0a.43.43,0,0,1,.1-.09h0a.09.09,0,0,0,.08,0,.09.09,0,0,1,.06,0h.12s0,0,0,0l.05-.12,0,0Z" style="fill:#f2f2f2"/><path d="M132.28,101.75h0c.05,0,.05,0,.05.12a.11.11,0,0,1,0,0s0,0,0,.06a.23.23,0,0,1,0,.14.14.14,0,0,0,0,.11s0,0,0,0l0,0s0,.05,0,.07,0,0,0,0,0,0,0,.06a.05.05,0,0,1-.06,0h0l-.14,0-.1,0-.06,0a.05.05,0,0,0,0,0h0a1.31,1.31,0,0,1-.11.12.11.11,0,0,1-.07,0h0l-.05,0h-.13s0,0,0,0,0,0,0,0h.08l.1,0a.59.59,0,0,0,.18-.13.07.07,0,0,0,0-.07.16.16,0,0,1,0-.12.2.2,0,0,0,0-.08.12.12,0,0,1,0-.09.22.22,0,0,0,.05-.08.61.61,0,0,1,.07-.1.06.06,0,0,0,0,0,.14.14,0,0,1,0-.06.15.15,0,0,0,0-.07.05.05,0,0,1,0,0l.06,0,.08,0Z" style="fill:#f2f2f2"/><path d="M130.11,102.62a0,0,0,0,1,0,0s0,0,0,0,0,0,0,0a0,0,0,0,1,0,.05.06.06,0,0,0,0,.08s0,0,0,0,0,0,0,.07a0,0,0,0,1,0,0,0,0,0,0,0,0,.06h0s0,0,0,0l0,0,0,0a.07.07,0,0,1-.06,0l-.08,0s-.05,0-.06,0l0,0h0l-.08,0h0s0,0,0,0a.31.31,0,0,1-.09-.07l0,0s0,0-.05-.06a.15.15,0,0,1,0-.07s0-.05,0-.07v0s0,0,0,0h0a.73.73,0,0,0,.09-.08v0a.44.44,0,0,0,0-.1s0,0,0,0h0l.07,0h.13a.08.08,0,0,1,.07,0h0s0,0,0,0A0,0,0,0,1,130.11,102.62Z" style="fill:#f2f2f2"/><path d="M126.57,101.62h.15s0,0,.06,0a.2.2,0,0,0,0,.09,0,0,0,0,1,0,0l0,0a.08.08,0,0,0,0,.08v0a.07.07,0,0,1,0,.06.08.08,0,0,1,0,0,.15.15,0,0,0,0,.07h0l0,.06h0l0,0s0,0,0-.07a.09.09,0,0,0,0-.06.05.05,0,0,1,0,0s0,0,0,0a.21.21,0,0,1,0-.07.24.24,0,0,0-.06-.08s0,0,0,0a.32.32,0,0,1,.12-.11Z" style="fill:#f2f2f2"/><path d="M127.49,102.57s0,0,0,0h0l0,0,.09,0a.07.07,0,0,1,0,.11s0,0-.07.06a.06.06,0,0,1-.06,0h-.1l0,0s-.06-.06-.05-.1v0a.12.12,0,0,1,.09-.1Z" style="fill:#f2f2f2"/><path d="M126.55,103.1s0,0,0,0l0,0a0,0,0,0,1,0,0s0,0,0,.07a.21.21,0,0,1,0,.06.08.08,0,0,0,0,.05v0l0,0h0l0,0s0,0,0,0,0,0,0,0h-.1a.07.07,0,0,1,0-.07,0,0,0,0,1,0,0h.11l0,0,0,0h0s0,0,0,0l0,0Z" style="fill:#f2f2f2"/><path d="M98.2,138s-46.11,0-59-37.25c0,0,51.55-6.56,64.76,36.43a41.52,41.52,0,0,0-30.52-20.95S92.43,122.13,98.2,138Z" style="fill:#05aaab"/><path d="M107,125.37s23.17-15.43,15-40.5c0,0-28.46,14.35-18.2,42.6a27.56,27.56,0,0,1,7.61-23.67S103.73,114.6,107,125.37Z" style="fill:#04b8b5"/><path d="M156,183.19a31.61,31.61,0,0,0-4.41-8.11,77.6,77.6,0,0,0-5.67-7c-8.09-8.82-17.38-16.16-27-22.9q-3.61-2.52-7.28-4.95c-1.22-.8-2.44-1.62-3.69-2.38l-3.44-2.15a18.26,18.26,0,0,1-2.39-3.11l-2.38-3.66a41.07,41.07,0,0,0-2.65-3.6,12.25,12.25,0,0,0-1.61-1.61,3.31,3.31,0,0,0-2.06-.91A3.32,3.32,0,0,1,95,124.16,16.75,16.75,0,0,1,96.05,126c.63,1.28,1.2,2.61,1.76,3.94s1.16,2.68,1.78,4a17.67,17.67,0,0,0,2.49,4.12,16.54,16.54,0,0,0,2,1.59l1.76,1.29,3.5,2.59q3.51,2.58,6.95,5.23c4.57,3.56,9.14,7.11,13.48,10.89a157,157,0,0,1,12.57,11.71,57.91,57.91,0,0,1,9.91,13.38c1.22,2.37,2.36,4.86,2.3,7.56,0,1.19-1.81,4.52-7.48,6,.35.07,5-1.69,5.32-1.49a6.56,6.56,0,0,0,4.11-4.2A16.2,16.2,0,0,0,156,183.19Z" style="fill:#05aaab"/></g></svg>