<?xml version="1.0" encoding="utf-8"?>
<!-- Generator: Adobe Illustrator 24.1.3, SVG Export Plug-In . SVG Version: 6.00 Build 0)  -->
<svg version="1.1" id="Wortbildmarke" xmlns="http://www.w3.org/2000/svg" xmlns:xlink="http://www.w3.org/1999/xlink" x="0px"
	 y="0px" viewBox="0 0 280.6 38" style="enable-background:new 0 0 280.6 38;" xml:space="preserve">
<style type="text/css">
	.st0{fill:#212934;}
	.st1{fill:#E11E19;}
</style>
<g>
	<path class="st0" d="M188.9,26.6v3.1h-1v-8.3h2.3c0.9,0,1.6,0.2,2.1,0.6c0.5,0.4,0.7,1,0.7,1.8s-0.3,1.4-0.8,1.9s-1.3,0.8-2.2,0.8
		H188.9z M188.9,22.3v3.4h1c0.7,0,1.2-0.2,1.5-0.5c0.4-0.3,0.5-0.7,0.5-1.3c0-1.1-0.6-1.6-1.9-1.6H188.9z"/>
	<path class="st0" d="M198.2,29.9c-1.2,0-2.1-0.4-2.8-1.2c-0.7-0.8-1.1-1.8-1.1-3c0-1.3,0.4-2.4,1.1-3.2c0.7-0.8,1.7-1.2,2.9-1.2
		c1.1,0,2.1,0.4,2.8,1.2c0.7,0.8,1,1.8,1,3c0,1.4-0.4,2.4-1.1,3.2S199.4,29.9,198.2,29.9z M198.2,22.2c-0.9,0-1.6,0.3-2.1,0.9
		c-0.5,0.6-0.8,1.4-0.8,2.5c0,1,0.3,1.8,0.8,2.5c0.5,0.6,1.2,0.9,2.1,0.9c0.9,0,1.6-0.3,2.1-0.9c0.5-0.6,0.8-1.4,0.8-2.5
		c0-1.1-0.3-1.9-0.8-2.5C199.8,22.5,199.1,22.2,198.2,22.2z"/>
	<path class="st0" d="M213.6,21.5l-2.3,8.3h-1.1l-1.7-6c-0.1-0.3-0.1-0.5-0.1-0.8h0c0,0.3-0.1,0.6-0.1,0.8l-1.7,6.1h-1.1l-2.4-8.3
		h1.1l1.8,6.3c0.1,0.3,0.1,0.5,0.1,0.8h0c0-0.2,0.1-0.5,0.2-0.8l1.8-6.3h0.9l1.8,6.4c0.1,0.2,0.1,0.5,0.1,0.8h0
		c0-0.2,0.1-0.5,0.2-0.8l1.7-6.4H213.6z"/>
	<path class="st0" d="M219.5,29.7h-4.4v-8.3h4.2v0.9h-3.2v2.8h3V26h-3v2.9h3.4V29.7z"/>
	<path class="st0" d="M227.3,29.7h-1.2l-1.4-2.3c-0.1-0.2-0.2-0.4-0.4-0.6c-0.1-0.2-0.2-0.3-0.4-0.4c-0.1-0.1-0.3-0.2-0.4-0.2
		s-0.3-0.1-0.5-0.1h-0.8v3.5h-1v-8.3h2.5c0.4,0,0.7,0,1,0.1c0.3,0.1,0.6,0.2,0.8,0.4c0.2,0.2,0.4,0.4,0.5,0.7s0.2,0.6,0.2,1
		c0,0.3,0,0.6-0.1,0.8c-0.1,0.2-0.2,0.5-0.4,0.6c-0.2,0.2-0.4,0.3-0.6,0.5c-0.2,0.1-0.5,0.2-0.8,0.3v0c0.1,0.1,0.3,0.1,0.4,0.2
		c0.1,0.1,0.2,0.2,0.3,0.3c0.1,0.1,0.2,0.2,0.3,0.4s0.2,0.3,0.3,0.5L227.3,29.7z M222.3,22.3v3h1.3c0.2,0,0.5,0,0.7-0.1
		c0.2-0.1,0.4-0.2,0.5-0.3s0.3-0.3,0.4-0.5s0.1-0.4,0.1-0.7c0-0.4-0.1-0.8-0.4-1c-0.3-0.2-0.7-0.4-1.2-0.4H222.3z"/>
	<path class="st0" d="M233.1,29.7h-4.4v-8.3h4.2v0.9h-3.2v2.8h3V26h-3v2.9h3.4V29.7z"/>
	<path class="st0" d="M235,29.7v-8.3h2.3c2.9,0,4.4,1.3,4.4,4c0,1.3-0.4,2.3-1.2,3.1c-0.8,0.8-1.9,1.2-3.3,1.2H235z M236,22.3v6.5
		h1.2c1.1,0,1.9-0.3,2.5-0.9s0.9-1.4,0.9-2.5c0-2.1-1.1-3.2-3.4-3.2H236z"/>
	<path class="st0" d="M247.1,29.7v-8.3h2.4c0.7,0,1.3,0.2,1.7,0.5c0.4,0.4,0.6,0.8,0.6,1.4c0,0.5-0.1,0.9-0.4,1.2
		c-0.3,0.3-0.6,0.6-1.1,0.7v0c0.6,0.1,1,0.3,1.3,0.6c0.3,0.4,0.5,0.8,0.5,1.4c0,0.7-0.3,1.3-0.8,1.7s-1.1,0.7-1.9,0.7H247.1z
		 M248.1,22.3V25h1c0.5,0,0.9-0.1,1.3-0.4c0.3-0.3,0.5-0.6,0.5-1.1c0-0.8-0.5-1.2-1.6-1.2H248.1z M248.1,25.9v3h1.3
		c0.6,0,1-0.1,1.3-0.4c0.3-0.3,0.5-0.6,0.5-1.1c0-1-0.7-1.5-2-1.5H248.1z"/>
	<path class="st0" d="M259.2,21.5l-2.7,5.2v3.1h-1v-3l-2.7-5.2h1.1l1.9,3.7c0,0,0.1,0.2,0.2,0.5h0c0-0.1,0.1-0.3,0.2-0.5l1.9-3.7
		H259.2z"/>
	<path class="st0" d="M269.8,29.4c-0.6,0.3-1.4,0.5-2.3,0.5c-1.2,0-2.1-0.4-2.8-1.1c-0.7-0.8-1.1-1.8-1.1-3c0-1.3,0.4-2.4,1.2-3.2
		c0.8-0.8,1.8-1.2,3-1.2c0.8,0,1.4,0.1,2,0.3v1c-0.6-0.3-1.2-0.5-2-0.5c-1,0-1.7,0.3-2.3,1s-0.9,1.5-0.9,2.5c0,1,0.3,1.8,0.8,2.4
		s1.3,0.9,2.2,0.9c0.8,0,1.6-0.2,2.2-0.6V29.4z"/>
	<path class="st0" d="M272.7,29.7h-1v-8.3h1V29.7z"/>
	<path class="st0" d="M275.2,29.7v-8.3h2.4c0.7,0,1.3,0.2,1.7,0.5c0.4,0.4,0.6,0.8,0.6,1.4c0,0.5-0.1,0.9-0.4,1.2s-0.6,0.6-1,0.7v0
		c0.6,0.1,1,0.3,1.3,0.6c0.3,0.4,0.5,0.8,0.5,1.4c0,0.7-0.3,1.3-0.8,1.7c-0.5,0.4-1.1,0.7-1.9,0.7H275.2z M276.2,22.3V25h1
		c0.5,0,0.9-0.1,1.3-0.4c0.3-0.3,0.5-0.6,0.5-1.1c0-0.8-0.5-1.2-1.6-1.2H276.2z M276.2,25.9v3h1.3c0.6,0,1-0.1,1.3-0.4
		s0.5-0.6,0.5-1.1c0-1-0.7-1.5-2-1.5H276.2z"/>
</g>
<g>
	<path class="st0" d="M41.6,29.4H29.9V8.3h3.5v18.2h8.2V29.4z"/>
	<path class="st0" d="M46.8,11.1c-0.6,0-1-0.2-1.4-0.5c-0.4-0.4-0.6-0.8-0.6-1.4c0-0.6,0.2-1,0.6-1.4c0.4-0.4,0.9-0.6,1.4-0.6
		c0.6,0,1.1,0.2,1.5,0.6s0.6,0.8,0.6,1.4c0,0.5-0.2,1-0.6,1.4S47.3,11.1,46.8,11.1z M48.5,29.4H45V14.3h3.4V29.4z"/>
	<path class="st0" d="M57.2,27.3L57.2,27.3l-0.1,2.2h-3.4V7h3.4V17h0.1c1.2-2,2.9-3,5.1-3c1.9,0,3.4,0.7,4.5,2s1.6,3.2,1.6,5.4
		c0,2.5-0.6,4.6-1.8,6.1c-1.2,1.5-2.9,2.3-5,2.3C59.7,29.8,58.2,28.9,57.2,27.3z M57.1,21.2v1.9c0,1.1,0.4,2,1.1,2.8
		c0.7,0.8,1.6,1.2,2.7,1.2c1.3,0,2.3-0.5,3-1.5c0.7-1,1.1-2.4,1.1-4.1c0-1.5-0.3-2.7-1-3.5c-0.7-0.8-1.6-1.3-2.7-1.3
		c-1.2,0-2.2,0.4-2.9,1.3C57.5,18.9,57.1,19.9,57.1,21.2z"/>
	<path class="st0" d="M81.4,17.6c-0.4-0.3-1-0.5-1.8-0.5c-1,0-1.9,0.5-2.5,1.4c-0.7,0.9-1,2.2-1,3.7v7.2h-3.4V14.3h3.4v3.1h0.1
		c0.3-1.1,0.8-1.9,1.5-2.5c0.7-0.6,1.5-0.9,2.3-0.9c0.6,0,1.1,0.1,1.4,0.3V17.6z"/>
	<path class="st0" d="M97.2,22.8H86.9c0,1.4,0.5,2.5,1.3,3.2c0.8,0.8,2,1.1,3.4,1.1c1.6,0,3.1-0.5,4.4-1.4v2.8
		c-1.4,0.9-3.2,1.3-5.5,1.3c-2.2,0-4-0.7-5.2-2.1s-1.9-3.3-1.9-5.8c0-2.4,0.7-4.3,2.1-5.8s3.1-2.2,5.2-2.2c2.1,0,3.7,0.7,4.8,2
		s1.7,3.2,1.7,5.5V22.8z M93.9,20.4c0-1.2-0.3-2.2-0.9-2.9c-0.6-0.7-1.4-1-2.4-1c-1,0-1.8,0.4-2.5,1.1s-1.1,1.7-1.3,2.8H93.9z"/>
	<path class="st0" d="M110.3,29.8c-3,0-5.4-1-7.2-3c-1.8-2-2.7-4.6-2.7-7.7c0-3.4,0.9-6.1,2.8-8.2c1.8-2,4.3-3,7.5-3
		c2.9,0,5.3,1,7.1,3c1.8,2,2.7,4.5,2.7,7.7c0,3.5-0.9,6.2-2.7,8.2S113.3,29.8,110.3,29.8z M110.4,10.1c-2.2,0-4,0.8-5.4,2.4
		s-2.1,3.7-2.1,6.3s0.7,4.7,2,6.3c1.4,1.6,3.1,2.4,5.3,2.4c2.3,0,4.2-0.8,5.5-2.3c1.3-1.5,2-3.6,2-6.4c0-2.8-0.6-5-1.9-6.5
		C114.5,10.9,112.7,10.1,110.4,10.1z"/>
	<path class="st0" d="M132.4,9.2c-0.5-0.3-1-0.4-1.6-0.4c-1.7,0-2.5,1.1-2.5,3.2v2.3h3.5v2.1h-3.5v13.1h-2.4V16.4h-2.6v-2.1h2.6
		v-2.5c0-1.6,0.5-2.8,1.4-3.8c0.9-0.9,2.1-1.4,3.4-1.4c0.7,0,1.3,0.1,1.8,0.3V9.2z"/>
	<path class="st0" d="M142.7,9.2c-0.5-0.3-1-0.4-1.6-0.4c-1.7,0-2.5,1.1-2.5,3.2v2.3h3.5v2.1h-3.5v13.1h-2.4V16.4h-2.6v-2.1h2.6
		v-2.5c0-1.6,0.5-2.8,1.4-3.8c0.9-0.9,2.1-1.4,3.4-1.4c0.7,0,1.3,0.1,1.8,0.3V9.2z"/>
	<path class="st0" d="M146.7,10.5c-0.4,0-0.8-0.1-1.1-0.4s-0.5-0.7-0.5-1.1c0-0.5,0.2-0.8,0.5-1.1c0.3-0.3,0.7-0.4,1.1-0.4
		c0.4,0,0.8,0.1,1.1,0.4c0.3,0.3,0.5,0.7,0.5,1.1c0,0.4-0.2,0.8-0.5,1.1C147.5,10.3,147.1,10.5,146.7,10.5z M147.8,29.4h-2.4V14.3
		h2.4V29.4z"/>
	<path class="st0" d="M163.8,28.7c-1.2,0.7-2.5,1-4.1,1c-2.2,0-3.9-0.7-5.2-2.1c-1.3-1.4-2-3.2-2-5.5c0-2.5,0.7-4.5,2.1-6
		s3.3-2.3,5.7-2.3c1.3,0,2.5,0.2,3.5,0.7v2.5c-1.1-0.8-2.3-1.2-3.6-1.2c-1.5,0-2.8,0.6-3.8,1.7c-1,1.1-1.5,2.6-1.5,4.4
		c0,1.8,0.5,3.2,1.4,4.2c0.9,1,2.2,1.5,3.7,1.5c1.3,0,2.6-0.4,3.7-1.3V28.7z"/>
	<path class="st0" d="M180.4,22.5h-10.7c0,1.7,0.5,3,1.4,3.9c0.9,0.9,2.1,1.4,3.6,1.4c1.7,0,3.3-0.6,4.7-1.7v2.3
		c-1.3,1-3.1,1.4-5.3,1.4c-2.1,0-3.8-0.7-5-2.1s-1.8-3.3-1.8-5.8c0-2.4,0.7-4.3,2-5.8c1.3-1.5,3-2.2,5-2.2s3.5,0.6,4.6,1.9
		c1.1,1.3,1.6,3.1,1.6,5.3V22.5z M177.9,20.4c0-1.4-0.3-2.5-1-3.3c-0.7-0.8-1.6-1.2-2.8-1.2c-1.1,0-2.1,0.4-2.9,1.2
		s-1.3,1.9-1.5,3.2H177.9z"/>
</g>
<g id="g6082_4_">
	<g id="path6084_4_">
		<path class="st1" d="M14.4,8c-0.2,0-0.4,0.1-0.5,0.3c-0.1,0.2,0,0.4,0.1,0.6l4.7,4.7c0.2,0.2,0.4,0.2,0.6,0.1
			c0.2-0.1,0.3-0.3,0.3-0.5V8.5c0-0.3-0.3-0.5-0.5-0.5L14.4,8z"/>
	</g>
	<g id="path6088_4_">
		<path class="st1" d="M1.3,8C1,8,0.8,8.2,0.8,8.5v21.4c0,0.3,0.3,0.6,0.6,0.6h12.4c1.8,0,5.8-3.9,5.8-5.8v-8.5
			c0-0.1-0.1-0.3-0.2-0.4l-7.7-7.6C11.7,8,11.6,8,11.4,8H1.3z M1.9,9.1h9.3l7.4,7.3v7.9c0,1.5-3.4,5.1-5.3,5.1H1.9V9.1z"/>
	</g>
</g>
</svg>
