<svg id="Layer_1" data-name="Layer 1" xmlns="http://www.w3.org/2000/svg" viewBox="0 0 260 260"><defs><style>.cls-1{fill:#e11e19;}</style></defs><g id="g6082"><g id="path6084"><path class="cls-1" d="M178.08,7.58a6.3,6.3,0,0,0-5.78,3.61,6.14,6.14,0,0,0,1.35,6.59l52.18,51.64a6.51,6.51,0,0,0,6.68,1.36,6.07,6.07,0,0,0,3.8-5.51V13.54a6.24,6.24,0,0,0-6.05-6Z"/></g><g id="path6088"><path class="cls-1" d="M34.62,7.58a6.23,6.23,0,0,0-6.14,6.14V249.44a6.23,6.23,0,0,0,6.14,6.14H171.85c20.22,0,64.46-42.79,64.46-64.46V97.68a6,6,0,0,0-1.81-4.33L149.91,9.48a6,6,0,0,0-4.34-1.9Zm6.14,12.64H143l81.25,80.35v86.85c0,16.25-38,56.42-58,56.42H40.76Z"/></g></g></svg>