<svg id="Ameise_1" data-name="Ameise 1" xmlns="http://www.w3.org/2000/svg" xmlns:xlink="http://www.w3.org/1999/xlink" viewBox="0 0 834.18 1295.5"><defs><style>.cls-1{fill:url(#radial-gradient);}.cls-2{fill:url(#radial-gradient-2);}.cls-3{fill:url(#radial-gradient-3);}.cls-4{fill:url(#radial-gradient-4);}.cls-5{fill:url(#radial-gradient-5);}.cls-6{fill:url(#radial-gradient-6);}.cls-7{fill:url(#radial-gradient-7);}.cls-8{fill:url(#radial-gradient-8);}.cls-9{fill:url(#linear-gradient);}.cls-10{fill:url(#linear-gradient-2);}.cls-11{fill:url(#radial-gradient-9);}.cls-12{fill:url(#radial-gradient-10);}</style><radialGradient id="radial-gradient" cx="539.48" cy="1069.52" r="76" gradientUnits="userSpaceOnUse"><stop offset="0" stop-color="#e11e19"/><stop offset="0.46" stop-color="#df1e19"/><stop offset="0.64" stop-color="#d81e1b"/><stop offset="0.76" stop-color="#cc1e1d"/><stop offset="0.86" stop-color="#bb1e21"/><stop offset="0.95" stop-color="#a51e25"/><stop offset="1" stop-color="#961e28"/></radialGradient><radialGradient id="radial-gradient-2" cx="268.94" cy="1077.32" r="91.06" xlink:href="#radial-gradient"/><radialGradient id="radial-gradient-3" cx="425.78" cy="781.01" r="229.81" xlink:href="#radial-gradient"/><radialGradient id="radial-gradient-4" cx="524.33" cy="1162.37" r="117.58" xlink:href="#radial-gradient"/><radialGradient id="radial-gradient-5" cx="305.73" cy="1121.94" r="152.77" xlink:href="#radial-gradient"/><radialGradient id="radial-gradient-6" cx="409.36" cy="654.59" r="128.78" xlink:href="#radial-gradient"/><radialGradient id="radial-gradient-7" cx="405.96" cy="297.1" r="212.45" xlink:href="#radial-gradient"/><radialGradient id="radial-gradient-8" cx="392.78" cy="410.3" fy="450.1057999790125" r="197.1" xlink:href="#radial-gradient"/><linearGradient id="linear-gradient" x1="674.64" y1="496.18" x2="674.56" y2="655.03" xlink:href="#radial-gradient"/><linearGradient id="linear-gradient-2" x1="164.51" y1="476.61" x2="147.82" y2="638.59" xlink:href="#radial-gradient"/><radialGradient id="radial-gradient-9" cx="299.92" cy="373.02" r="11.7" gradientUnits="userSpaceOnUse"><stop offset="0" stop-color="#fff"/><stop offset="1"/></radialGradient><radialGradient id="radial-gradient-10" cx="434.92" cy="362.02" r="11.7" xlink:href="#radial-gradient-9"/></defs><g id="Ebene_3" data-name="Ebene 3"><path class="cls-1" d="M573.52,1070.06c10,58,0,95.37-58.49,88.5-46.83-5.5-42.89-18.94-47.15-81.63-3.26-48-25.85-66,47.15-95.36C563.61,962,564.89,1019.89,573.52,1070.06Z"/><path class="cls-2" d="M360.54,1048.32c0,60.88,27.11,109.21-51.75,110.24-52,.68-47.6-19.22-51.75-110.24-2.73-59.88,23.17-110.25,51.75-110.25S360.54,987.43,360.54,1048.32Z"/><path class="cls-3" d="M590,878.08c0,103.49-76.52,162.86-173.85,162.86s-178.63-51-178.63-162.86c0-96.1,58.38-174,176.24-174C524.88,704.08,590,782,590,878.08Z"/><path class="cls-4" d="M611.47,1206c6,49-40.06,89.47-89.47,89.47s-106.46-42.34-96.12-90.66c16.15-75.41,48.37-78.1,96.12-88.28C590,1102.06,602.88,1135.43,611.47,1206Z"/><path class="cls-5" d="M387.79,1193.93c0,52.49-41.14,91.87-91.87,91.87-58.38,0-101.61-42.07-91.88-91.87,6.79-34.69,41.14-91.87,91.88-91.87A91.87,91.87,0,0,1,387.79,1193.93Z"/></g><ellipse class="cls-6" cx="409.36" cy="654.59" rx="135.67" ry="121.49"/><path class="cls-7" d="M573.52,412.6c0,101.89-82.6,184.49-184.49,184.49S214.39,514.49,214.39,412.6,287.14,228.11,389,228.11A184.48,184.48,0,0,1,573.52,412.6Z"/><path class="cls-8" d="M515,501.59c0,69.59-60.78,126-135.75,126s-135.74-56.41-135.74-126S306.72,389,381.69,389,515,432,515,501.59Z"/><path class="cls-9" d="M515,578.35c159.6-22.76,200.48,7.3,210-12.26,49.6-101.62,69-12,52.49,13.5,0,0,85.43,30,46.5,75-28.13,32.52-121.46-.86-121.46-.86s-127.16-26.14-167.92,23.5C518.63,696.71,515,578.35,515,578.35Z"/><path class="cls-10" d="M285.47,605c-156.55-38.5-157.66-38.08-168.32-57-54.25-96.5-82.75-38-57.25,1,0,0-91.75,44.1-48.15,84.59,22.65,21,94.09-6.14,94.09-6.14s131.7,31.08,182.39,66.08C302.86,703.6,285.47,605,285.47,605Z"/><path d="M331.39,377.22a24.75,24.75,0,1,1-24.75-24.75A24.75,24.75,0,0,1,331.39,377.22Z"/><path d="M467.88,369.33A25.86,25.86,0,1,1,442,343.47,25.85,25.85,0,0,1,467.88,369.33Z"/><path d="M467.88,123C492.21,58.48,590,61.48,573.52,9c-6.46-20.56-96.64-14.37-141,111-23.84,67.41-37.91,126-16.36,126S442.44,190.45,467.88,123Z"/><path d="M243.54,135.57C219.22,71.08,115.4,73.48,131.9,21c6.46-20.56,105.64-10.78,150,114.58C305.74,203,333.29,259,311.74,259S269,203,243.54,135.57Z"/><path class="cls-11" d="M311.62,373a11.7,11.7,0,1,1-11.7-11.69A11.7,11.7,0,0,1,311.62,373Z"/><path class="cls-12" d="M446.62,362a11.7,11.7,0,1,1-11.7-11.69A11.7,11.7,0,0,1,446.62,362Z"/></svg>