<svg xmlns="http://www.w3.org/2000/svg" xmlns:xlink="http://www.w3.org/1999/xlink" viewBox="0 0 215 215"><defs><style>.cls-1{isolation:isolate;}.cls-2,.cls-28{fill:#fff;}.cls-3{fill:#155992;}.cls-4{fill:#0e3c62;}.cls-5{fill:#e11e19;}.cls-6{fill:#071e31;}.cls-7{fill:#c60006;}.cls-13,.cls-8{fill:#212934;}.cls-8{opacity:0.2;}.cls-9{fill:#d6e6f2;}.cls-10,.cls-28{opacity:0.5;}.cls-11{opacity:0.7;}.cls-12{fill:#f7fbff;}.cls-14{fill:#cac9c8;}.cls-15{fill:#9e9e9e;}.cls-16{fill:#8a8786;}.cls-17{fill:url(#linear-gradient);}.cls-18{fill:#94918f;}.cls-19{fill:#8895a7;}.cls-20{fill:url(#linear-gradient-2);}.cls-21{fill:url(#linear-gradient-4);}.cls-22{fill:url(#linear-gradient-5);}.cls-23{fill:#ced5dc;}.cls-24{fill:#5b5b5b;}.cls-25{fill:url(#linear-gradient-6);}.cls-26{fill:#586371;}.cls-27{fill:#312783;}.cls-28{mix-blend-mode:screen;}.cls-29{fill:url(#linear-gradient-7);}.cls-30{fill:#16285b;}.cls-31{fill:#1e5a9b;}.cls-32{fill:#fc0;}.cls-33{fill:#ffbc00;}.cls-34{fill:#58595b;}.cls-35{opacity:0.66;}.cls-36{opacity:0.4;}</style><linearGradient id="linear-gradient" x1="2649.8" y1="-6790.72" x2="2677.83" y2="-6778.61" gradientTransform="matrix(0.95, 0.31, 0.31, -0.95, -287.69, -7084.77)" gradientUnits="userSpaceOnUse"><stop offset="0" stop-color="#e2e1e0"/><stop offset="0.1" stop-color="#e6e3e2"/><stop offset="0.18" stop-color="#bdbcbb"/><stop offset="0.38" stop-color="#ebe9e9"/><stop offset="0.56" stop-color="#d6d4d3"/><stop offset="0.81" stop-color="#fff"/><stop offset="1" stop-color="#c7c4c4"/></linearGradient><linearGradient id="linear-gradient-2" x1="2649.8" y1="-6791.02" x2="2677.83" y2="-6778.91" gradientTransform="matrix(0.95, 0.31, 0.31, -0.95, -287.69, -7084.77)" gradientUnits="userSpaceOnUse"><stop offset="0" stop-color="#bebab8"/><stop offset="0.1" stop-color="#c6c0bd"/><stop offset="0.18" stop-color="#6a6664"/><stop offset="0.38" stop-color="#d2cecc"/><stop offset="0.56" stop-color="#a29e9c"/><stop offset="0.81" stop-color="#fff"/><stop offset="1" stop-color="#7f7a78"/></linearGradient><linearGradient id="linear-gradient-4" x1="2649.8" y1="-6791.02" x2="2677.83" y2="-6778.91" gradientTransform="matrix(0.95, 0.31, 0.31, -0.95, -287.69, -7084.77)" gradientUnits="userSpaceOnUse"><stop offset="0" stop-color="#989593"/><stop offset="0.1" stop-color="#9e9a97"/><stop offset="0.18" stop-color="#555250"/><stop offset="0.38" stop-color="#a8a5a3"/><stop offset="0.56" stop-color="#827e7d"/><stop offset="0.81" stop-color="#ccc"/><stop offset="1" stop-color="#666260"/></linearGradient><linearGradient id="linear-gradient-5" x1="2647.3" y1="-6785.55" x2="2680.32" y2="-6785.55" gradientTransform="matrix(0.95, 0.31, 0.31, -0.95, -287.69, -7084.77)" gradientUnits="userSpaceOnUse"><stop offset="0" stop-color="#bebab8"/><stop offset="0.1" stop-color="#c6c0bd"/><stop offset="0.24" stop-color="#8a8684"/><stop offset="0.38" stop-color="#d2cecc"/><stop offset="0.56" stop-color="#a29e9c"/><stop offset="0.93" stop-color="#fff"/><stop offset="0.97" stop-color="#7f7a78"/></linearGradient><linearGradient id="linear-gradient-6" x1="2683.6" y1="-120.08" x2="2683.6" y2="-123.13" gradientTransform="translate(-2462.34 -522.7) rotate(18.32)" gradientUnits="userSpaceOnUse"><stop offset="0" stop-color="#fff"/><stop offset="0.1" stop-color="#c6c0bd"/><stop offset="0.18" stop-color="#6a6664"/><stop offset="0.28"/><stop offset="0.47" stop-color="#a29e9c"/><stop offset="0.59" stop-color="#646261"/><stop offset="0.68" stop-color="#d2cecc"/><stop offset="0.81" stop-color="#fff"/><stop offset="1" stop-color="#7f7a78"/></linearGradient><linearGradient id="linear-gradient-7" x1="2682.75" y1="-119.14" x2="2682.75" y2="-124.06" gradientTransform="translate(-2462.34 -522.7) rotate(18.32)" gradientUnits="userSpaceOnUse"><stop offset="0" stop-color="#7f7a78"/><stop offset="0.19" stop-color="#fff"/><stop offset="0.32" stop-color="#d2cecc"/><stop offset="0.61" stop-color="#a29e9c"/><stop offset="0.72" stop-color="#fff"/><stop offset="0.82" stop-color="#6a6664"/><stop offset="0.9" stop-color="#c6c0bd"/><stop offset="1" stop-color="#bebab8"/></linearGradient></defs><g class="cls-1"><g id="tpex"><rect class="cls-2" x="-124.76" y="-19.08" width="381.61" height="253.16" rx="12"/></g><g id="Layer_1" data-name="Layer 1"><path class="cls-3" d="M51.63,85.23v77.08c0,10.63,17.26,19.26,38.55,19.26s38.53-8.63,38.53-19.26V85.23Z"/><path class="cls-4" d="M90.18,168.72c21.28,0,38.53-8.62,38.53-19.26v12.85c0,10.63-17.25,19.26-38.53,19.26s-38.55-8.63-38.55-19.26V149.46C51.63,160.1,68.89,168.72,90.18,168.72Z"/><path class="cls-4" d="M87.11,61.07a6.88,6.88,0,0,1,6.13,0L174,101.43a3.43,3.43,0,0,1,0,6.14L93.24,147.93a6.8,6.8,0,0,1-6.13,0L6.37,107.57a3.44,3.44,0,0,1,0-6.14Z"/><polygon class="cls-5" points="43.4 126.06 38.8 123.77 89.26 98.55 91.09 102.23 43.4 126.06"/><path class="cls-6" d="M82.46,100.39c0,2.13,3.46,3.85,7.72,3.85s7.7-1.72,7.7-3.85-3.45-3.86-7.7-3.86S82.46,98.26,82.46,100.39Z"/><polygon class="cls-7" points="43.4 156.59 38.8 154.3 38.8 123.77 43.4 126.06 43.4 156.59"/><polygon class="cls-2" points="43.4 162.31 38.8 160.01 38.8 154.3 43.4 156.59 43.4 162.31"/><path class="cls-8" d="M129.36,170.79l-1.48-.29a1.78,1.78,0,0,1,1.59-.77v0h.12l.14,0v0a1.55,1.55,0,0,1,1.25,1Z"/><path class="cls-9" d="M105.07,171.3c-2.39,1.61-22,11.21-22,11.21s-2.23.52-.9,1.69a5.87,5.87,0,0,0,5.44,1.33c3.64-.9,20.83-12.82,20.83-12.82a11.16,11.16,0,0,1,5.6-1.29c3.46.05,50.14-2.22,50.14-2.22l.17-2.29-54.51,2.49A12.13,12.13,0,0,0,105.07,171.3Z"/><path class="cls-9" d="M169.28,189s-17.94-12.41-20.06-14.36a12,12,0,0,0-4.45-2.59l-53.53-10.6-.18,2.3s45.82,9.2,49.25,9.67a11.13,11.13,0,0,1,5.35,2.11s15.21,14.36,18.68,15.79a5.91,5.91,0,0,0,5.57-.5C171.41,189.83,169.28,189,169.28,189Z"/><g class="cls-10"><path class="cls-9" d="M109.08,160.34c-13.74-1.29-18.77.89-17.21,10.75s4.73,15.58,16.34,14.55c5.09-.45,15.28-3.87,16.13-16.87C124.6,164.63,122.82,161.62,109.08,160.34Z"/></g><g class="cls-10"><path class="cls-9" d="M146.94,163.18c-13.78-.78-16,1.93-16.34,6.06-1.11,13,8.46,17.88,13.43,19.09,11.33,2.75,15.3-2.44,18.32-12S160.72,164,146.94,163.18Z"/></g><g class="cls-11"><path class="cls-12" d="M94.12,171.84c.14.84.29,1.65.45,2.42a24,24,0,0,1,7-4.43,44.88,44.88,0,0,1,10-3.16,60.83,60.83,0,0,1,9.45-1.22c-1.76-1.41-5.23-2.47-11.77-3.08C97.18,161.24,92.74,163.16,94.12,171.84Z"/></g><g class="cls-11"><path class="cls-12" d="M146.84,164.7c-11.54-.65-13.4,1.62-13.69,5.08a17.17,17.17,0,0,0,.39,5.64c4-4,10.08-5.33,15.6-5.92a60.9,60.9,0,0,1,10-.27l.73-.11C158.45,166.27,154.2,165.12,146.84,164.7Z"/></g><path class="cls-13" d="M166.59,166.09l.06-.05a54.87,54.87,0,0,0-14.35-3.45l.14.06c-1.12-.15-2.34-.28-3.66-.38l-1.78-.11c-5.48-.31-9.43-.12-12.17.69-.4.1-.87.24-1.39.4a21,21,0,0,1-5.49,1.18,22.77,22.77,0,0,1-5.51-2c-.54-.27-1-.49-1.43-.65-2.59-1.19-6.43-2-11.83-2.46l-1.78-.15c-1.2-.09-2.31-.15-3.35-.17l.09,0a54.51,54.51,0,0,0-14.7,1.28.76.76,0,0,0-.82.71l-.17,2.32a.76.76,0,0,0,.7.82l.34,0a2,2,0,0,1,1.05,2,4.29,4.29,0,0,0,.06.91,19.67,19.67,0,0,0,.26,4.19c1.4,8.8,4.16,14.8,13.08,15.47a26.8,26.8,0,0,0,4.36-.06c6.8-.61,14.88-5,16.72-15.11l0,.14c0-.24,0-.46.07-.68l.06-.48c.45-2.86,1.83-3,2.41-3v0l.12,0,.13,0v0c.5,0,1.54.41,1.67,2.84,0,.42,0,.82,0,1.22l0,.4,0-.08c.33,10.28,7.66,15.77,14.28,17.38a27.34,27.34,0,0,0,4.29.71c8.93.67,12.55-4.85,15.25-13.34a19.07,19.07,0,0,0,.9-4.35,5.52,5.52,0,0,0,.12-.65,2,2,0,0,1,1.34-1.85l.34,0a.77.77,0,0,0,.82-.71l.17-2.32A.75.75,0,0,0,166.59,166.09Zm-58.47,18.53a24.93,24.93,0,0,1-4,.06c-7.64-.57-9.9-5.48-11.22-13.75-.58-3.66-.21-6.06,1.16-7.56,1.88-2,5.95-2.71,13.2-2.16l1.75.14c13.61,1.28,14.54,4.09,14.33,7.35C122.41,182.65,110.5,184.41,108.12,184.62Zm53.26-8.55c-2.54,8-5.5,12.5-13.14,11.92a24.48,24.48,0,0,1-4-.66c-2.32-.56-13.84-4.08-12.65-18,.28-3.26,1.62-5.89,15.27-5.12l1.74.11c7.25.55,11.17,1.82,12.73,4.11C162.49,170.11,162.5,172.54,161.38,176.07Z"/><polygon class="cls-14" points="117.4 198.3 111.71 196.54 112.56 199.75 118.24 201.51 117.4 198.3"/><polygon class="cls-15" points="117.4 198.3 111.71 196.54 112.56 199.75 118.24 201.51 117.4 198.3"/><polygon class="cls-16" points="116.97 198.16 111.29 196.4 112.14 199.61 117.83 201.37 116.97 198.16"/><polygon class="cls-15" points="116.97 198.16 111.29 196.4 112.14 199.61 117.83 201.37 116.97 198.16"/><path class="cls-17" d="M93.72,191a2.19,2.19,0,0,1-2.32.29c-1.85-.61-1.71-1.93-1.48-2.6l29.47,9.76-.31.95Z"/><path class="cls-15" d="M93.72,191a2.19,2.19,0,0,1-2.32.29c-1.85-.61-1.71-1.93-1.48-2.6l29.47,9.76-.31.95Z"/><polygon class="cls-18" points="117.19 198.23 111.5 196.47 112.35 199.68 118.03 201.44 117.19 198.23"/><polygon class="cls-19" points="117.19 198.23 111.5 196.47 112.35 199.68 118.03 201.44 117.19 198.23"/><path class="cls-20" d="M93.62,191.23a2.17,2.17,0,0,1-2.31.3c-1.86-.62-1.72-1.93-1.49-2.61l29.47,9.76-.31,1Z"/><path class="cls-20" d="M93.62,191.23a2.17,2.17,0,0,1-2.31.3c-1.86-.62-1.72-1.93-1.49-2.61l29.47,9.76-.31,1Z"/><path class="cls-21" d="M93.62,191.23a2.17,2.17,0,0,1-2.31.3c-1.86-.62-1.72-1.93-1.49-2.61l29.47,9.76-.31,1Z"/><path class="cls-15" d="M93.62,191.23a2.17,2.17,0,0,1-2.31.3c-1.86-.62-1.72-1.93-1.49-2.61l29.47,9.76-.31,1Z"/><path class="cls-22" d="M93.67,191.09a2.17,2.17,0,0,1-2.31.29c-1.86-.61-1.72-1.93-1.49-2.6l29.47,9.76-.31,1Z"/><path class="cls-23" d="M93.67,191.09a2.17,2.17,0,0,1-2.31.29c-1.86-.61-1.72-1.93-1.49-2.6l29.47,9.76-.31,1Z"/><path class="cls-24" d="M37.15,176.83c0,.18-.38.57-.68.46s-.58-.52-.4-.83a.61.61,0,0,1,.78-.29A.56.56,0,0,1,37.15,176.83Z"/><path class="cls-25" d="M127.51,205.83c.07-.23-.22-.52-.66-.68L120.69,203a1,1,0,0,0-.44-.05.28.28,0,0,0-.25.14h0c-.06,0-.11,0-.12,0l-.31,1.11v0l-.41,1.08s0,.06.08.08h0a.29.29,0,0,0,.11.26,1.13,1.13,0,0,0,.39.22l6.25,1.94c.44.13.85.06.92-.16Z"/><path class="cls-26" d="M127.51,205.83c.07-.23-.22-.52-.66-.68L120.69,203a1,1,0,0,0-.44-.05.28.28,0,0,0-.25.14h0c-.06,0-.11,0-.12,0l-.31,1.11v0l-.41,1.08s0,.06.08.08h0a.29.29,0,0,0,.11.26,1.13,1.13,0,0,0,.39.22l6.25,1.94c.44.13.85.06.92-.16Z"/><path class="cls-27" d="M70.86,185c-7.7-2.47-15.34-4.93-23.21-7.08l-1.51,4.56c7.44,2.9,15.2,5.56,22.85,8.18Z"/><path class="cls-3" d="M70.86,185c-7.7-2.47-15.34-4.93-23.21-7.08l-1.51,4.56c7.44,2.9,15.2,5.56,22.85,8.18Z"/><path class="cls-28" d="M70,187.44l.53-1.61c-7.7-2.47-15.36-4.92-23.21-7.11L47,179.81Z"/><path class="cls-28" d="M70,187.44l.53-1.61c-7.7-2.47-15.36-4.92-23.21-7.11L47,179.81Z"/><path class="cls-23" d="M36.52,177.43a65.67,65.67,0,0,0,9.62,5l0-.17.38-1.14c.09-.25.17-.5.25-.75l.21-.63c.1-.33.21-.66.32-1l.3-.89A59.47,59.47,0,0,0,37,176.14l-.09.25-.09.28-.06.18-.07.21-.11.32Z"/><path class="cls-23" d="M72.85,185.58l-2-.63L69,190.61l2,.67Z"/><path class="cls-27" d="M120.41,201.84q-23.64-8.52-47.56-16.26L71,191.28q23.81,8.06,47.87,15.34Z"/><path class="cls-3" d="M120.41,201.84q-23.64-8.52-47.56-16.26L71,191.28q23.81,8.06,47.87,15.34Z"/><path class="cls-28" d="M119.73,203.89l.39-1.18q-23.66-8.51-47.57-16.25L72,188.09Z"/><path class="cls-28" d="M119.73,203.89l.39-1.18q-23.66-8.51-47.57-16.25L72,188.09Z"/><path class="cls-26" d="M123.16,202.81l-2.7-1-1.59,4.78,2.74.85Z"/><polygon class="cls-29" points="123.16 202.81 123.46 203.01 121.98 207.49 121.61 207.48 123.16 202.81"/><polygon class="cls-15" points="123.16 202.81 123.46 203.01 121.98 207.49 121.61 207.48 123.16 202.81"/><path class="cls-30" d="M152.23,127.58c0,6.56,5.65,11.88,12.61,11.88s12.62-5.32,12.62-11.88-5.65-11.87-12.62-11.87S152.23,121,152.23,127.58Z"/><path class="cls-31" d="M150.68,126.58h27.06c2,0,3.66,1.36,3.66,3a4.51,4.51,0,0,1-3.61,3.92c-10.73,2.28-16.43,2.28-27.16,0a4.51,4.51,0,0,1-3.62-3.92C147,127.94,148.65,126.58,150.68,126.58Z"/><path class="cls-30" d="M180.38,132a5,5,0,0,1-2.59,1.58c-10.73,2.28-16.43,2.28-27.16,0A5,5,0,0,1,148,132C160.78,134.72,167.64,134.72,180.38,132Z"/><path class="cls-31" d="M150.68,120.46h27.06c2,0,3.66,1.36,3.66,3a4.5,4.5,0,0,1-3.61,3.92c-10.73,2.28-16.43,2.28-27.16,0A4.5,4.5,0,0,1,147,123.5C147,121.82,148.65,120.46,150.68,120.46Z"/><path class="cls-30" d="M180.38,125.85a5,5,0,0,1-2.59,1.57c-10.73,2.28-16.43,2.28-27.16,0a5,5,0,0,1-2.6-1.57C160.78,128.6,167.64,128.6,180.38,125.85Z"/><path class="cls-31" d="M150.68,114.34h27.06c2,0,3.66,1.36,3.66,3a4.5,4.5,0,0,1-3.61,3.92c-10.73,2.29-16.43,2.29-27.16,0a4.52,4.52,0,0,1-3.62-3.93C147,115.7,148.65,114.34,150.68,114.34Z"/><path class="cls-30" d="M180.38,119.73a4.9,4.9,0,0,1-2.59,1.57c-10.73,2.29-16.43,2.29-27.16,0a5,5,0,0,1-2.6-1.58C160.78,122.49,167.64,122.49,180.38,119.73Z"/><path class="cls-32" d="M194.81,19.3a41.07,41.07,0,0,0-30.1-12.41h-1A41.06,41.06,0,0,0,133.56,19.3a41.18,41.18,0,0,0-12.42,30.1,47.34,47.34,0,0,0,.92,9.31A47.31,47.31,0,0,0,127.13,72c2.27,4,7.15,9.5,14.56,16.65s10.13,15.8,8.25,26h28.48c-1.88-10.21.85-18.92,8.27-26S199,76,201.24,72a47.63,47.63,0,0,0,5.08-13.32,48.11,48.11,0,0,0,.91-9.31A41.22,41.22,0,0,0,194.81,19.3Z"/><path class="cls-33" d="M149.94,114.69a50.54,50.54,0,0,0,28.48,0,31.53,31.53,0,0,1-.38-9.37H150.32A31.87,31.87,0,0,1,149.94,114.69Z"/><path class="cls-34" d="M169.84,116.33c-.2-31.47,12.94-47.36,18.59-52.73l.86.91c-5.54,5.26-18.4,20.83-18.2,51.81Z"/><path class="cls-34" d="M157.57,116.28c-.43-29.38-12.82-39.82-18.12-42.94l.63-1.08c5.49,3.24,18.3,14,18.74,44Z"/><polygon class="cls-34" points="147.71 79.02 146.7 78.29 152.92 69.78 158.7 75.63 164.47 67.71 170.24 73.56 176.01 65.65 182.3 72.02 181.41 72.89 176.16 67.57 170.38 75.48 164.61 69.64 158.84 77.55 153.06 71.7 147.71 79.02"/><g class="cls-35"><path class="cls-2" d="M131.31,66.68A2.61,2.61,0,0,1,129,65.25a58.89,58.89,0,0,1-3.15-7.54,2.59,2.59,0,1,1,4.91-1.64,50.53,50.53,0,0,0,2.87,6.86,2.58,2.58,0,0,1-1.16,3.47A2.5,2.5,0,0,1,131.31,66.68Z"/></g><g class="cls-36"><path class="cls-2" d="M129.32,48.19l-.27,0a2.59,2.59,0,0,1-2.31-2.84c2.17-20.71,18.08-29,24.82-31.55a2.59,2.59,0,1,1,1.85,4.83c-5.85,2.25-19.65,9.4-21.52,27.26A2.59,2.59,0,0,1,129.32,48.19Z"/></g></g></g></svg>