<svg xmlns="http://www.w3.org/2000/svg" width="109" height="108" viewBox="0 0 109 108">
    <defs>
        <style>
            .cls-2{fill:#3d82ab}
        </style>
    </defs>
    <g id="overview" transform="translate(-2287 -2937)">
        <g id="Ellipse_27" fill="none" stroke="#3d82ab" stroke-width="2px" transform="translate(2287 2937)">
            <ellipse cx="54.5" cy="54" stroke="none" rx="54.5" ry="54"/>
            <ellipse cx="54.5" cy="54" rx="53.5" ry="53"/>
        </g>
        <g id="Group_10725" transform="translate(258 525)">
            <path id="Path_2222" d="M40.806 177.613h20.162a.806.806 0 0 0 0-1.613H40.806a.806.806 0 0 0 0 1.613z" class="cls-2" transform="translate(2022.226 2281.936)"/>
            <path id="Path_2223" d="M40.806 209.613h20.968a.806.806 0 1 0 0-1.613H40.806a.806.806 0 1 0 0 1.613z" class="cls-2" transform="translate(2022.226 2253.161)"/>
            <path id="Path_2224" d="M40.806 241.613h16.129a.806.806 0 1 0 0-1.613H40.806a.806.806 0 1 0 0 1.613z" class="cls-2" transform="translate(2022.226 2224.387)"/>
            <path id="Path_2226" d="M66.613 368H40.806a.806.806 0 0 0 0 1.613h25.807a.806.806 0 0 0 0-1.613z" class="cls-2" transform="translate(2022.226 2109.29)"/>
            <path id="Path_2227" d="M66.613 400H40.806a.806.806 0 0 0 0 1.613h25.807a.806.806 0 0 0 0-1.613z" class="cls-2" transform="translate(2022.226 2080.516)"/>
            <path id="Path_2228" d="M56.935 432H40.806a.806.806 0 1 0 0 1.613h16.129a.806.806 0 1 0 0-1.613z" class="cls-2" transform="translate(2022.226 2051.742)"/>
            <path id="Path_2230" d="M136 272.806a.806.806 0 0 0 .806.806h16.129a.806.806 0 0 0 0-1.613h-16.129a.806.806 0 0 0-.806.807z" class="cls-2" transform="translate(1935.903 2195.613)"/>
            <path id="Path_2231" d="M152.935 304h-16.129a.806.806 0 1 0 0 1.613h16.129a.806.806 0 1 0 0-1.613z" class="cls-2" transform="translate(1935.903 2166.839)"/>
            <path id="Path_2232" d="M143.258 337.613a.806.806 0 0 0 0-1.613h-6.452a.806.806 0 1 0 0 1.613z" class="cls-2" transform="translate(1935.903 2138.064)"/>
            <path id="Path_2234" d="M40.806 280.064h6.452a.806.806 0 0 0 .806-.806v-6.452a.806.806 0 0 0-.806-.806h-6.452a.806.806 0 0 0-.806.806v6.452a.806.806 0 0 0 .806.806zm.806-6.452h4.839v4.839h-4.838z" class="cls-2" transform="translate(2022.226 2195.613)"/>
            <g id="Group_10724" transform="translate(2059 2441)">
                <path id="Path_2235" d="M52.355 35.419H41.871v-3.508a10.487 10.487 0 0 0 12.9-10.2.806.806 0 0 0-.806-.806H45.1v-8.873a.806.806 0 0 0-.806-.806 10.462 10.462 0 0 0-2.419.282v-2.7a.806.806 0 0 0-.81-.808H8.806A.806.806 0 0 0 8 8.806v42.742A6.459 6.459 0 0 0 14.452 58H46.71a6.459 6.459 0 0 0 6.452-6.452V36.226a.806.806 0 0 0-.807-.807zm-8.871-22.544v8.835a.806.806 0 0 0 .806.806h8.835a8.871 8.871 0 0 1-17.675-.073v-.016q-.029-.355-.029-.718a8.883 8.883 0 0 1 8.063-8.834zm-9.678 8.835H12.839v-8.871h24.193v1.314a10.452 10.452 0 0 0-3.226 7.557zM14.452 56.387a4.844 4.844 0 0 1-4.839-4.839V9.613h30.645v2.419a10.533 10.533 0 0 0-1.613.847v-.847a.806.806 0 0 0-.806-.806H12.032a.806.806 0 0 0-.806.806v10.484a.806.806 0 0 0 .806.806h21.9a10.517 10.517 0 0 0 6.328 8.065v20.161a6.436 6.436 0 0 0 2.192 4.839zm37.1-4.839a4.839 4.839 0 1 1-9.677 0V37.032h9.677z" class="cls-2" transform="translate(-8 -8)"/>
                <path id="Path_2236" d="M392.806 8a.806.806 0 0 0-.806.806v9.677a.806.806 0 0 0 .806.806h9.677a.806.806 0 0 0 .806-.806A10.5 10.5 0 0 0 392.806 8zm.806 9.677V9.649a8.884 8.884 0 0 1 8.028 8.028z" class="cls-2" transform="translate(-353.29 -8)"/>
            </g>
        </g>
    </g>
</svg>
