<svg id="Layer_1" data-name="Layer 1" xmlns="http://www.w3.org/2000/svg" viewBox="0 0 321.22 95.57"><defs><style>.cls-1,.cls-3{fill:#fff;}.cls-2{isolation:isolate;}.cls-3{stroke:#fff;stroke-miterlimit:10;stroke-width:0.5px;}</style></defs><path class="cls-1" d="M354,71a21.3,21.3,0,0,0-4.7-7.9c-6.2-6.2-16.5-6.9-24.2-3.6-2.7,1.2-6.7,3.5-8.2,6.2-2.3-1.8-2.6-3.4-6.7-5.7-7.8-4.2-18.4-2.9-24.7,3.3a5.58,5.58,0,0,0-1.5-3.5,5.77,5.77,0,0,0-8,.2,6.63,6.63,0,0,0-1.3,4.5v44.6c0,3.3,1.2,6.2,5,6.2a8.2,8.2,0,0,0,2.2-.2c4.6-1.3,3.6-7.5,3.6-11.1V84.9c0-5.3-.5-9.4,3.4-13.7,4.4-4.9,13.1-5.4,17.7-.5,2.4,2.6,3.2,6.4,3.2,9.8v29a5.82,5.82,0,0,0,.7,3.4,5.42,5.42,0,0,0,2.4,2.1,6.74,6.74,0,0,0,6-.9,5.23,5.23,0,0,0,1.5-4.3V86.6c0-4.5-.3-9.4,2.1-13.4a12.92,12.92,0,0,1,5.3-4.8c4.2-1.9,10.1-1.1,13.4,2.2,2.5,2.5,3.4,6.2,3.4,9.6v29.3c0,3.9,1.7,6,5.8,6,3.8-.1,5-2.9,5-6.2v-22C355.4,82.2,355.6,75.9,354,71Z" transform="translate(-34.68 -52.61)"/><path class="cls-1" d="M189.1,65c-10.8-9.8-28.3-9.7-39.1,0a29.26,29.26,0,0,0-9.3,21.6v47a6.45,6.45,0,0,0,1.5,4.8,5.74,5.74,0,0,0,8.4-.7,7.1,7.1,0,0,0,.9-4.1V106.5a27.35,27.35,0,0,0,8.4,6.7,27,27,0,0,0,28.1-2.9,28.53,28.53,0,0,0,8.3-11.4,30.39,30.39,0,0,0,2-9.3V83.1A30.13,30.13,0,0,0,189.1,65Zm-9.4,38.4c-4,2.7-7.1,3-11.8,2.9a14.85,14.85,0,0,1-6.5-1.6,19.21,19.21,0,0,1-5-3.4c-6-6-7.1-16.2-3.5-23.7a18.32,18.32,0,0,1,11.4-9.7l3.4-.6a18.87,18.87,0,0,1,6.7.6,18,18,0,0,1,9.5,6.3C190.8,82.8,189,97.1,179.7,103.4Z" transform="translate(-34.68 -52.61)"/><path class="cls-1" d="M255.5,65.8c-12-11.5-32.2-10.8-42.8,2.3-4.8,6-6.4,12.6-6.3,20.2a30.34,30.34,0,0,0,1.6,8.9c3.9,11.6,13.5,18.9,25.8,18.7a28.35,28.35,0,0,0,7-1.1c5.5-1.5,8.8-4.4,12.7-8.3v3.1c0,2,.4,3.7,2.2,5a4.28,4.28,0,0,0,2.9.8c3.2,0,5.5-1.7,5.5-5V85.1A29.87,29.87,0,0,0,255.5,65.8Zm-1.9,22.4a18.8,18.8,0,0,1-8.9,15.6c-3.7,2.3-6.9,2.5-11,2.4-6.3-.1-12.5-4.7-15.2-10.3a21.93,21.93,0,0,1-1.9-10.1,18.49,18.49,0,0,1,16.8-18.7,20.79,20.79,0,0,1,7,.6,18.53,18.53,0,0,1,13.2,17.1v3.4Z" transform="translate(-34.68 -52.61)"/><path class="cls-1" d="M119.3,77.1a5.53,5.53,0,0,0-1.9-1.4l-3.8-2.3L95.3,62.5,82.6,54.9c-1.6-1-3.6-2.7-5.5-2.2L65.6,59,44.7,70.6l-6.2,3.5c-.8.5-2.4,1.2-2.9,1.9a4.25,4.25,0,0,0-.5,2.7V93.6l-.2,3.6v15.5l-.2,3.8v5.3a4,4,0,0,0,.2,1.9,4.5,4.5,0,0,0,1.9,1.4l3.8,2.2,19,11.1,13,7.6c1.2.7,3.7,2.6,5,2.1l3.8-2.1,7-3.9,21.4-12.2,6.7-3.8c.6-.4,2.3-1.2,2.6-1.7a3.72,3.72,0,0,0,.2-1.8V107.5l.2-3.6V79.1A3.38,3.38,0,0,0,119.3,77.1ZM91.7,61.6l16.8,10,9.8,5.8-3.5,7.4L109,96.3l-6.7-9.4-14.6-21-5.3-7.7c-.6-.9-1.7-2.1-1.7-3.1ZM78.1,53.9l4.9,7L94.6,77.7l8.2,11.8,4.6,6.7L94.1,89.3l-19-10L66.9,75l-3.1-1.6c.6-1.6,4-6,5.3-7.7l5.5-7.4A26,26,0,0,1,78.1,53.9Zm29.2,43.7-8.4,2.1-14.4,3.4-22.1,5.3-12,2.9,2.7-7.9,6.3-18.2,3.7-10.8L72,78.9l15.4,8.2,12.7,6.6ZM46.1,71.1l10.8-6,12.5-7,6.2-3.3L66.8,67l-4.1,5.3-2.3.5-4.3.5L38.8,75.1Zm-.9,4.7,17-2-5,14.6-1.6,4.8-6.1,17.3-1.8-4.3L44.6,98,36.5,76.7Zm-9.4,39.1.2-3.8V94.7l.2-4.1V84.8l.2-5.3L40,89.3l5.1,13.4,2.3,6c.3.7,1,2.2.8,2.9-.2.9-2.4,2.4-3.2,3.1l-9.4,7.5v-7.3Zm28.8,25.2L47.3,130l-10.8-6.2c.7-1.4,2.2-2.3,3.4-3.3l6.2-5.1c.7-.5,2.5-2.3,3.3-2.1.6.2,1.5,1.6,1.9,2.1l4.4,5.8L67.8,137c1.3,1.7,5.6,7,6.3,8.6Zm12.5,6.7h-.5l-7.1-9.4L58.2,122.6l-4.6-6c-1-1.3-2.4-2.8-2.9-4.3l5-1.1,12.5-3,25-6,14.4-3.4-7.5,12L84.9,134.6Zm38.2-21.4-6.7,3.9L89.4,140.2l-6.5,3.7-3.8,1.9,2.1-3.6,5.1-7.9,15.1-23.5,7.3-11.5h.5l6.6,18,1.6,4.3.5,2.1Zm3.1-41.5v26.6l-.3,4.2v5.8c-.7-1-1.5-3.8-2-5l-3.7-9.8-2.6-7.2c-.2-1.2,1.3-3.6,1.9-4.8l4.4-8.9c.7-1.3,1.4-3.3,2.5-4.3Z" transform="translate(-34.68 -52.61)"/><g class="cls-2"><path class="cls-1" d="M217,128.4a6.36,6.36,0,0,1,2,2,5.55,5.55,0,0,1,.7,2.8,5.92,5.92,0,0,1-.7,2.9,5.48,5.48,0,0,1-2,2,5.55,5.55,0,0,1-2.8.7,5.3,5.3,0,0,1-2.8-.7,5.48,5.48,0,0,1-2-2,5.66,5.66,0,0,1-.7-2.9v-9.4a1.42,1.42,0,0,1,.2-.6c.1-.2.3-.2.6-.2a1.42,1.42,0,0,1,.6.2.85.85,0,0,1,.2.6v5.9a6.55,6.55,0,0,1,1.8-1.5,4.75,4.75,0,0,1,2.4-.6A4.9,4.9,0,0,1,217,128.4Zm-.8,8.5a5.36,5.36,0,0,0,1.5-1.5,3.84,3.84,0,0,0,.5-2.1,5,5,0,0,0-.5-2.1,4.31,4.31,0,0,0-1.5-1.5,4.35,4.35,0,0,0-4.8.5,4.07,4.07,0,0,0-1.3,2.6v.6a4.65,4.65,0,0,0,.5,2.1,4.31,4.31,0,0,0,1.5,1.5,3.7,3.7,0,0,0,2.1.6A15.87,15.87,0,0,0,216.2,136.9Z" transform="translate(-34.68 -52.61)"/><path class="cls-1" d="M231.5,128.4a.76.76,0,0,1-.1.4l-6.5,14.3a.63.63,0,0,1-.6.5.6.6,0,0,1-.4-.1.63.63,0,0,1-.5-.6.76.76,0,0,1,.1-.4l2-4.4h0l-4.5-9.3c-.1-.1-.1-.2-.1-.4a.55.55,0,0,1,.4-.6c.1-.1.2-.1.4-.1a.55.55,0,0,1,.6.4l3.9,8.3,3.7-8.2a.55.55,0,0,1,.6-.4.76.76,0,0,1,.4.1C231.4,127.9,231.5,128.1,231.5,128.4Z" transform="translate(-34.68 -52.61)"/></g><g class="cls-2"><path class="cls-1" d="M287.3,132.3a6.9,6.9,0,0,1-1.8,5.1,7.15,7.15,0,0,1-5.2,1.8h-3.7V125.7h4.1a6.94,6.94,0,0,1,4.9,1.7A6.52,6.52,0,0,1,287.3,132.3Zm-1.6.1a5.36,5.36,0,0,0-1.3-4,5.26,5.26,0,0,0-3.9-1.3h-2.3v10.8h1.9a5.74,5.74,0,0,0,4.2-1.4A5.81,5.81,0,0,0,285.7,132.4Z" transform="translate(-34.68 -52.61)"/></g><g class="cls-2"><path class="cls-1" d="M293.6,139.4a4.51,4.51,0,0,1-3.5-1.4,5.17,5.17,0,0,1-1.3-3.8,6.05,6.05,0,0,1,1.2-3.9,3.85,3.85,0,0,1,3.2-1.4,3.54,3.54,0,0,1,3,1.3,4.86,4.86,0,0,1,1.1,3.3v1h-7a3.67,3.67,0,0,0,.9,2.7,3.24,3.24,0,0,0,2.4.9,7.11,7.11,0,0,0,3.2-.7v1.4a13.14,13.14,0,0,1-1.5.5A8.12,8.12,0,0,1,293.6,139.4Zm-.4-9.2a2.41,2.41,0,0,0-1.9.8,3.69,3.69,0,0,0-.9,2.2h5.3a3.4,3.4,0,0,0-.6-2.2A2.41,2.41,0,0,0,293.2,130.2Z" transform="translate(-34.68 -52.61)"/></g><g class="cls-2"><path class="cls-1" d="M305.9,136.4a2.66,2.66,0,0,1-1.1,2.2,5.1,5.1,0,0,1-3,.8,6.56,6.56,0,0,1-3.1-.6v-1.4c.5.2,1,.4,1.6.6a10,10,0,0,0,1.6.2,3,3,0,0,0,1.8-.4,1.31,1.31,0,0,0,.6-1.2,1.39,1.39,0,0,0-.5-1,7.12,7.12,0,0,0-2-1c-.9-.4-1.6-.7-2-.9a3.82,3.82,0,0,1-.9-.9,2.13,2.13,0,0,1-.3-1.2,2.33,2.33,0,0,1,1-2,4.65,4.65,0,0,1,2.8-.7,7.11,7.11,0,0,1,3.2.7l-.5,1.2a7.44,7.44,0,0,0-2.8-.6,3.23,3.23,0,0,0-1.6.3,1,1,0,0,0-.6.9,1.45,1.45,0,0,0,.2.7,1.28,1.28,0,0,0,.7.5,9.5,9.5,0,0,0,1.8.7,6.35,6.35,0,0,1,2.4,1.3A2.87,2.87,0,0,1,305.9,136.4Z" transform="translate(-34.68 -52.61)"/></g><g class="cls-2"><path class="cls-1" d="M309.5,134.4q.45-.6,1.2-1.5l3.3-3.5h1.8l-4.1,4.3,4.4,5.8h-1.9l-3.6-4.8-1.2,1v3.8H308V125.1h1.5v9.3Z" transform="translate(-34.68 -52.61)"/></g><g class="cls-2"><path class="cls-1" d="M328.8,139.6H327l-7.4-11.3h-.1c.1,1.3.1,2.5.1,3.7v7.7h-1.5V126.2h1.8l7.4,11.3h.1a13.61,13.61,0,0,0-.1-1.6,11.58,11.58,0,0,1,0-1.9v-7.7h1.5Z" transform="translate(-34.68 -52.61)"/></g><g class="cls-2"><path class="cls-1" d="M339.7,134.5a6.05,6.05,0,0,1-1.2,3.9,4.44,4.44,0,0,1-3.4,1.4,4.75,4.75,0,0,1-2.4-.6,4,4,0,0,1-1.6-1.8,6.09,6.09,0,0,1-.6-2.8,5.87,5.87,0,0,1,1.2-3.9,4.44,4.44,0,0,1,3.4-1.4,4.6,4.6,0,0,1,3.4,1.4A5.59,5.59,0,0,1,339.7,134.5Zm-7.7,0a5.1,5.1,0,0,0,.8,3,3.14,3.14,0,0,0,4.6,0,5.1,5.1,0,0,0,.8-3,4.56,4.56,0,0,0-.8-2.9,3.15,3.15,0,0,0-4.6,0A4.56,4.56,0,0,0,332,134.5Z" transform="translate(-34.68 -52.61)"/></g><g class="cls-2"><path class="cls-1" d="M351.3,139.6l-1.9-5.9c-.1-.4-.3-1.2-.7-2.5h-.1c-.2,1.1-.5,1.9-.6,2.5l-1.9,5.9h-1.8l-2.8-10.1h1.6c.7,2.5,1.1,4.5,1.5,5.8a20.27,20.27,0,0,1,.6,2.7h.1c.1-.4.2-.8.3-1.4s.3-1,.4-1.3l1.9-5.8h1.7l1.8,5.8a21.76,21.76,0,0,1,.7,2.7h.1a5.76,5.76,0,0,1,.2-1c.1-.5.7-2.9,1.9-7.5h1.6l-2.8,10.1Z" transform="translate(-34.68 -52.61)"/></g><path class="cls-1" d="M266.6,127.5a.22.22,0,0,0-.2-.2l-4.3-3.9a1.26,1.26,0,0,0-1.3-.2L246,127.7h-.2a.68.68,0,0,0-.4.6v8.6a.71.71,0,0,0,.3.6l4.6,4.6a.76.76,0,0,0,.5.2h.3a.62.62,0,0,0,.4-.6V133l9.5-2.8v1.7a.71.71,0,0,0,.3.6l4.6,4.6a.76.76,0,0,0,.5.2h.3a.82.82,0,0,0,.4-.6v-8.8Zm-16.1,13.3-4-4v-7.6l4,4Zm.2-8.9-3.3-3.6,13.7-4.2h.1a.6.6,0,0,1,.4.1l4,3.6h-.1l-3.4,1-1,.3Zm15.3,3.9-4-4v-2l4-1.2Z" transform="translate(-34.68 -52.61)"/><line class="cls-3" x1="237.32" y1="65.39" x2="237.32" y2="94.09"/></svg>