<?xml version="1.0" encoding="utf-8"?>
<!-- Generator: Adobe Illustrator 25.0.1, SVG Export Plug-In . SVG Version: 6.00 Build 0)  -->
<svg version="1.1" id="Layer_1" xmlns="http://www.w3.org/2000/svg" xmlns:xlink="http://www.w3.org/1999/xlink" x="0px" y="0px"
	 viewBox="0 0 400 200" style="enable-background:new 0 0 400 200;" xml:space="preserve">
<style type="text/css">
	.st0{fill:#FFFFFF;}
	.st1{fill:#3D82AB;}
	.st2{enable-background:new    ;}
	.st3{fill:none;stroke:#FFFFFF;stroke-width:0.5;stroke-miterlimit:10;}
</style>
<path class="st0" d="M396,64.1c-1.1-3.3-3.2-7.2-5.8-9.8c-7.7-7.7-20.5-8.6-30-4.5c-3.3,1.5-8.3,4.3-10.2,7.7
	c-2.9-2.2-3.2-4.2-8.3-7.1c-9.7-5.2-22.8-3.6-30.6,4.1c-0.2-1.7-0.6-3.1-1.9-4.3c-2.5-2.6-7.6-2.5-9.9,0.2c-1.4,1.6-1.6,3.6-1.6,5.6
	v55.3c0,4.1,1.5,7.7,6.2,7.7c0.9,0,1.9,0,2.7-0.2c5.7-1.6,4.5-9.3,4.5-13.8V81.3c0-6.6-0.6-11.7,4.2-17c5.5-6.1,16.2-6.7,22-0.6
	c3,3.2,4,7.9,4,12.2v36c0,1.6,0,2.7,0.9,4.2c0.6,1.1,1.9,2.1,3,2.6c2.1,0.9,5.7,0.4,7.4-1.1c1.6-1.6,1.9-3.1,1.9-5.3V83.4
	c0-5.6-0.4-11.7,2.6-16.6c1.4-2.4,4.1-4.8,6.6-6c5.2-2.4,12.5-1.4,16.6,2.7c3.1,3.1,4.2,7.7,4.2,11.9v36.3c0,4.8,2.1,7.4,7.2,7.4
	c4.7-0.1,6.2-3.6,6.2-7.7V84.3C397.7,78,398,70.2,396,64.1z"/>
<g>
	<path class="st0" d="M191.5,56.7c-13.4-12.2-35.1-12-48.5,0c-7.4,6.7-11.5,16.7-11.5,26.8v58.3c0,2.2,0.2,4.2,1.9,6
		c2.7,2.9,8.2,2.4,10.4-0.9c1-1.5,1.1-3.2,1.1-5.1v-33.6c3,3.5,6.3,6.2,10.4,8.3c10.9,5.5,25.3,4.1,34.8-3.6
		c4.6-3.7,8.1-8.7,10.3-14.1c1.2-3.1,2.5-8.3,2.5-11.5v-8.1C201.7,70.5,197.8,62.4,191.5,56.7z M179.8,104.3
		c-5,3.3-8.8,3.7-14.6,3.6c-2.7,0-5.6-0.7-8.1-2c-2.2-1.1-4.5-2.5-6.2-4.2c-7.4-7.4-8.8-20.1-4.3-29.4c2.9-6,7.9-10.2,14.1-12
		l4.2-0.7c2.5-0.2,6,0,8.3,0.7c4.7,1.4,8.7,3.8,11.8,7.8C193.6,78.7,191.4,96.5,179.8,104.3z"/>
</g>
<g>
	<path class="st0" d="M273.9,57.6c-14.9-14.3-39.9-13.4-53.1,2.9c-6,7.4-7.9,15.6-7.8,25.1c0,3.5,0.9,7.7,2,11
		c4.8,14.4,16.7,23.4,32,23.2c2.2,0,6.4-0.6,8.7-1.4c6.8-1.9,10.9-5.5,15.8-10.3v3.8c0,2.5,0.5,4.6,2.7,6.2c1.2,0.9,2.1,1,3.6,1
		c4,0,6.8-2.1,6.8-6.2V81.6C284.3,73.1,279.9,63.5,273.9,57.6z M271.5,85.4c0,7.8-4.5,15.3-11,19.3c-4.6,2.9-8.6,3.1-13.6,3
		c-7.8-0.1-15.5-5.8-18.9-12.8c-2-4.3-2.4-7.8-2.4-12.5c0-8.3,4.6-16.5,11.9-20.5c3.2-1.7,5.5-2.2,8.9-2.7c2.9-0.2,5.8,0,8.7,0.7
		c9.2,2.5,16.2,11.7,16.4,21.2V85.4L271.5,85.4z"/>
</g>
<path class="st1" d="M104.9,71.7c-0.4-0.6-1.6-1.4-2.4-1.7l-4.7-2.9L75.2,53.6l-15.8-9.4c-2-1.2-4.5-3.3-6.8-2.7l-14.3,7.8
	L12.4,63.6l-7.7,4.3c-1,0.6-3,1.5-3.6,2.4c-0.7,1-0.6,2.2-0.6,3.3v18.5l-0.2,4.5v19.2L0,120.5v6.6c0,0.7-0.1,1.7,0.2,2.4
	c0.4,0.7,1.6,1.4,2.4,1.7l4.7,2.7l23.6,13.8l16.1,9.4c1.5,0.9,4.6,3.2,6.2,2.6l4.7-2.6l8.7-4.8l26.5-15.1l8.3-4.7
	c0.7-0.5,2.9-1.5,3.2-2.1c0.4-0.6,0.2-1.6,0.2-2.2v-18.7l0.2-4.5V74.1C105.3,73.4,105.3,72.3,104.9,71.7z M70.7,52.4l20.8,12.4
	l12.2,7.2l-4.3,9.2l-7.2,14.3l-8.3-11.7l-18.1-26l-6.6-9.5c-0.7-1.1-2.1-2.6-2.1-3.8L70.7,52.4z M53.8,42.9l6.1,8.7l14.4,20.8
	L84.5,87l5.7,8.3l-16.5-8.6L50.1,74.4L40,69.1l-3.8-2c0.7-2,5-7.4,6.6-9.5l6.8-9.2C50.7,46.6,52.4,44.1,53.8,42.9z M90.1,97.1
	l-10.4,2.6l-17.9,4.2l-27.4,6.6l-14.9,3.6l3.3-9.8l7.8-22.6l4.6-13.4l11,5.6l19.1,10.2l15.8,8.2L90.1,97.1z M14.2,64.2l13.4-7.4
	l15.5-8.7l7.7-4.1L39.8,59.1l-5.1,6.6l-2.9,0.6l-5.3,0.6L5.1,69.2L14.2,64.2z M13,70l21.1-2.5l-6.2,18.1l-2,6l-7.6,21.5l-2.2-5.3
	l-3.8-10.2l-10-26.4L13,70z M1.4,118.5l0.2-4.7V93.5l0.2-5.1v-7.2l0.2-6.6l4.5,12.2l6.3,16.6l2.9,7.4c0.4,0.9,1.2,2.7,1,3.6
	c-0.2,1.1-3,3-4,3.8l-11.7,9.3v-9.1C1.1,118.5,1.4,118.5,1.4,118.5z M37.1,149.8l-21.5-12.5l-13.4-7.7c0.9-1.7,2.7-2.9,4.2-4.1
	l7.7-6.3c0.9-0.6,3.1-2.9,4.1-2.6c0.7,0.2,1.9,2,2.4,2.6l5.5,7.2l15,19.6c1.6,2.1,6.9,8.7,7.8,10.7L37.1,149.8z M52.6,158.1H52
	l-8.8-11.7l-14-18.4l-5.7-7.4c-1.2-1.6-3-3.5-3.6-5.3l6.2-1.4l15.5-3.7l31-7.4l17.9-4.2l-9.3,14.9L62.3,143L52.6,158.1z M100,131.6
	l-8.3,4.8l-23.8,13.5l-8.1,4.6l-4.7,2.4l2.6-4.5l6.3-9.8l18.7-29.1l9.1-14.3h0.6l8.2,22.3l2,5.3l0.6,2.6L100,131.6z M103.8,80.1v33
	l-0.4,5.2v7.2c-0.9-1.2-1.9-4.7-2.5-6.2l-4.6-12.2l-3.2-8.9c-0.2-1.5,1.6-4.5,2.4-6l5.5-11c0.9-1.6,1.7-4.1,3.1-5.3L103.8,80.1z"/>
<g class="st2">
	<path class="st0" d="M226.1,135.3c1,0.6,1.9,1.5,2.5,2.5c0.6,1.1,0.9,2.2,0.9,3.5s-0.2,2.5-0.9,3.6c-0.6,1.1-1.5,1.9-2.5,2.5
		c-1.1,0.6-2.2,0.9-3.5,0.9c-1.2,0-2.5-0.2-3.5-0.9c-1.1-0.6-1.9-1.5-2.5-2.5c-0.6-1.1-0.9-2.2-0.9-3.6v-5.8c0-0.1,0-0.1,0-0.2v-5.6
		c0-0.2,0.1-0.5,0.2-0.7s0.4-0.2,0.7-0.2c0.2,0,0.5,0.1,0.7,0.2c0.1,0.1,0.2,0.4,0.2,0.7v7.3c0.6-0.7,1.4-1.4,2.2-1.9
		c0.9-0.5,1.9-0.7,3-0.7C224,134.3,225.1,134.7,226.1,135.3z M225.1,145.8c0.7-0.5,1.4-1.1,1.9-1.9c0.5-0.7,0.6-1.7,0.6-2.6
		s-0.2-1.9-0.6-2.6c-0.5-0.7-1-1.4-1.9-1.9c-0.7-0.5-1.6-0.6-2.6-0.6c-1.4,0-2.5,0.4-3.3,1.2c-0.9,0.9-1.5,1.9-1.6,3.2v0.1
		c0,0.1,0,0.4,0,0.6c0,1,0.2,1.9,0.6,2.6c0.5,0.7,1,1.4,1.9,1.9c0.7,0.5,1.6,0.7,2.6,0.7C223.5,146.4,224.2,146.2,225.1,145.8z"/>
	<path class="st0" d="M244.1,135.3c0,0.1,0,0.2-0.1,0.5l-8.1,17.7c-0.1,0.4-0.4,0.6-0.7,0.6c-0.1,0-0.4,0-0.5-0.1
		c-0.4-0.1-0.6-0.4-0.6-0.7c0-0.1,0-0.2,0.1-0.5l2.5-5.5l0,0l-5.6-11.5c-0.1-0.1-0.1-0.2-0.1-0.5c0-0.4,0.1-0.6,0.5-0.7
		c0.1-0.1,0.2-0.1,0.5-0.1c0.4,0,0.6,0.1,0.7,0.5l4.8,10.3l4.6-10.2c0.1-0.4,0.4-0.5,0.7-0.5c0.1,0,0.2,0,0.5,0.1
		C244,134.7,244.1,134.9,244.1,135.3z"/>
</g>
<g class="st2">
	<path class="st0" d="M313.3,140.1c0,2.7-0.7,4.8-2.2,6.3c-1.5,1.5-3.7,2.2-6.4,2.2H300v-16.7h5.1c2.6,0,4.6,0.7,6.1,2.1
		C312.7,135.5,313.3,137.5,313.3,140.1z M311.3,140.2c0-2.2-0.5-3.8-1.6-5s-2.7-1.6-4.8-1.6H302v13.4h2.4c2.4,0,4.1-0.6,5.2-1.7
		C310.7,144.1,311.3,142.5,311.3,140.2z"/>
</g>
<g class="st2">
	<path class="st0" d="M321.1,148.9c-1.9,0-3.3-0.6-4.3-1.7c-1.1-1.1-1.6-2.7-1.6-4.7s0.5-3.6,1.5-4.8c1-1.2,2.4-1.7,4-1.7
		c1.6,0,2.9,0.5,3.7,1.6c0.9,1,1.4,2.4,1.4,4.1v1.2H317c0,1.5,0.4,2.6,1.1,3.3c0.7,0.7,1.7,1.1,3,1.1c1.4,0,2.7-0.2,4-0.9v1.7
		c-0.6,0.2-1.4,0.5-1.9,0.6S322,148.9,321.1,148.9z M320.6,137.5c-1,0-1.9,0.4-2.4,1c-0.6,0.6-1,1.6-1.1,2.7h6.6
		c0-1.2-0.2-2.1-0.7-2.7C322.5,137.9,321.6,137.5,320.6,137.5z"/>
</g>
<g class="st2">
	<path class="st0" d="M336.4,145.2c0,1.1-0.5,2.1-1.4,2.7c-0.9,0.6-2.1,1-3.7,1c-1.6,0-3-0.2-3.8-0.7v-1.7c0.6,0.2,1.2,0.5,2,0.7
		c0.7,0.1,1.4,0.2,2,0.2c1,0,1.7-0.1,2.2-0.5c0.5-0.4,0.7-0.7,0.7-1.5c0-0.5-0.2-0.9-0.6-1.2s-1.2-0.7-2.5-1.2
		c-1.1-0.5-2-0.9-2.5-1.1c-0.5-0.4-0.9-0.7-1.1-1.1c-0.2-0.4-0.4-0.9-0.4-1.5c0-1,0.4-1.9,1.2-2.5c0.9-0.6,2-0.9,3.5-0.9
		c1.4,0,2.7,0.2,4,0.9l-0.6,1.5c-1.2-0.5-2.4-0.7-3.5-0.7c-0.9,0-1.6,0.1-2,0.4c-0.5,0.2-0.7,0.6-0.7,1.1c0,0.4,0.1,0.6,0.2,0.9
		s0.5,0.5,0.9,0.6c0.4,0.2,1.1,0.5,2.2,0.9c1.5,0.5,2.5,1.1,3,1.6C336,143.5,336.4,144.5,336.4,145.2z"/>
</g>
<g class="st2">
	<path class="st0" d="M340.8,142.7c0.4-0.5,0.9-1.1,1.5-1.9l4.1-4.3h2.2l-5.1,5.3l5.5,7.2h-2.4l-4.5-6l-1.5,1.2v4.7H339v-17.9h1.9
		v9.4C340.8,141.2,340.8,141.9,340.8,142.7L340.8,142.7z"/>
</g>
<g class="st2">
	<path class="st0" d="M364.8,149.2h-2.2l-9.2-14h-0.1c0.1,1.6,0.1,3.1,0.1,4.6v9.5h-1.9v-16.7h2.2l9.2,14h0.1c0-0.2,0-0.9-0.1-2
		c0-1.1-0.1-1.9,0-2.4v-9.5h1.9V149.2z"/>
</g>
<g class="st2">
	<path class="st0" d="M378.3,142.8c0,2-0.5,3.6-1.5,4.8c-1,1.1-2.5,1.7-4.2,1.7c-1.1,0-2.1-0.2-3-0.7c-0.9-0.5-1.5-1.2-2-2.2
		s-0.7-2.1-0.7-3.5c0-2.1,0.5-3.6,1.5-4.8c1-1.1,2.5-1.7,4.2-1.7c1.7,0,3.1,0.6,4.2,1.7C377.8,139.3,378.3,140.9,378.3,142.8z
		 M368.7,142.8c0,1.6,0.4,2.9,1,3.7c0.6,0.9,1.6,1.2,2.9,1.2c1.2,0,2.2-0.4,2.9-1.2c0.6-0.9,1-2.1,1-3.7s-0.4-2.9-1-3.6
		c-0.6-0.9-1.6-1.2-2.9-1.2c-1.2,0-2.2,0.4-2.9,1.2C369.1,140,368.7,141.2,368.7,142.8z"/>
</g>
<g class="st2">
	<path class="st0" d="M392.7,149.2l-2.4-7.3c-0.1-0.5-0.4-1.5-0.9-3.1h-0.1c-0.2,1.4-0.6,2.4-0.7,3.1l-2.4,7.3H384l-3.5-12.5h2
		c0.9,3.1,1.4,5.6,1.9,7.2c0.5,1.6,0.6,2.7,0.7,3.3h0.1c0.1-0.5,0.2-1,0.4-1.7c0.2-0.7,0.4-1.2,0.5-1.6l2.4-7.2h2.1l2.2,7.2
		c0.4,1.4,0.7,2.4,0.9,3.3h0.1c0-0.2,0.1-0.7,0.2-1.2c0.1-0.6,0.9-3.6,2.4-9.3h2l-3.5,12.5H392.7z"/>
</g>
<g>
	<path class="st0" d="M287.6,134.2c0-0.1-0.1-0.2-0.2-0.2l-5.3-4.8c-0.5-0.4-1.1-0.5-1.6-0.2l-18.4,5.6c-0.1,0-0.2,0-0.2,0
		c-0.2,0.1-0.5,0.4-0.5,0.7v10.7c0,0.2,0.1,0.6,0.4,0.7l5.7,5.7c0.1,0.1,0.4,0.2,0.6,0.2c0.1,0,0.2,0,0.4,0c0.4-0.1,0.5-0.5,0.5-0.7
		V141l11.8-3.5v2.1c0,0.2,0.1,0.6,0.4,0.7l5.7,5.7c0.1,0.1,0.4,0.2,0.6,0.2c0.1,0,0.2,0,0.4,0c0.2-0.1,0.5-0.5,0.5-0.7v-10.9
		L287.6,134.2z M267.7,150.7l-5-5v-9.4l5,5V150.7z M267.9,139.6l-4.1-4.5l17-5.2h0.1c0.1,0,0.4,0,0.5,0.1l5,4.5h-0.1l-4.2,1.2
		l-1.2,0.4L267.9,139.6z M286.9,144.5l-5-5V137l5-1.5V144.5z"/>
</g>
<line class="st3" x1="294.3" y1="122.4" x2="294.3" y2="158"/>
</svg>
