<svg xmlns="http://www.w3.org/2000/svg" width="480" height="51" viewBox="0 0 480 51">
    <defs>
        <style>
            .cls-1{fill:#3d82ab;fill-rule:evenodd}.cls-2{fill:#fff}
        </style>
    </defs>
    <g id="Group_10715" transform="translate(-5207 -1696)">
        <path id="Path_1595" d="M159.2 51a25.433 25.433 0 0 0 18.766-8.234c6.209-6.746 13.51-14.406 22.679-14.406h42.443a3.039 3.039 0 1 0 0-6.077h-42.717c-9.072 0-16.321-7.5-22.5-14.146a25.5 25.5 0 0 0-37.35 0c-6.178 6.642-13.428 14.146-22.5 14.146H95.208a3.039 3.039 0 1 0 0 6.077h22.544c9.168 0 16.469 7.661 22.679 14.406A25.431 25.431 0 0 0 159.2 51z" class="cls-1" transform="translate(5206.873 1696)"/>
        <path id="Path_1596" d="M309.1 51a25.431 25.431 0 0 0 18.765-8.234c6.21-6.746 13.511-14.406 22.68-14.406h42.443a3.039 3.039 0 1 0 0-6.077h-42.715c-9.072 0-16.321-7.5-22.5-14.146a25.5 25.5 0 0 0-37.35 0c-6.179 6.642-13.428 14.146-22.5 14.146H245.11a3.039 3.039 0 1 0 0 6.077h22.544c9.168 0 16.469 7.661 22.679 14.406A25.431 25.431 0 0 0 309.1 51z" class="cls-1" transform="translate(5206.667 1696)"/>
        <path id="Path_1597" d="M454.949 51a25.5 25.5 0 1 0-18.675-42.864c-6.179 6.642-13.428 14.146-22.5 14.146H390.96a3.039 3.039 0 0 0 0 6.077h22.54c9.169 0 16.47 7.661 22.679 14.406A25.435 25.435 0 0 0 454.949 51z" class="cls-1" transform="translate(5206.551 1696)"/>
        <path id="Path_1598" d="M66.944 28.36c-9.169 0-16.469 7.661-22.679 14.406a25.5 25.5 0 1 1-.09-34.63c6.179 6.642 13.428 14.146 22.5 14.146h31.571a3.039 3.039 0 0 1 0 6.077z" class="cls-1" transform="translate(5207 1696)"/>
        <path id="Path_1599" d="M32.482 17l-1.259 1.27c-3.415 3.422-6.023 6.281-9.192 9.515l-3.376-2.852-1.355-1.148L15 26.5l1.359 1.159 4.635 3.922 1.248 1.059 1.158-1.155c3.84-3.848 6.573-6.922 10.34-10.7L35 19.518z" class="cls-2" transform="translate(5207 1696)"/>
        <path id="Path_1600" d="M155.229 31.193v-1.854l4.3-4.428a4.18 4.18 0 0 0 1.44-2.52 1.572 1.572 0 0 0-1.638-1.638 2.226 2.226 0 0 0-2.106 1.476L155.139 21a4.4 4.4 0 0 1 1.71-1.98 4.6 4.6 0 0 1 2.448-.684 4.284 4.284 0 0 1 2.934 1.08 3.617 3.617 0 0 1 1.224 2.88 5.885 5.885 0 0 1-2.07 4.032l-2.466 2.472h4.734v2.394z" class="cls-2" transform="translate(5206.853 1696)"/>
        <path id="Path_1601" d="M310.876 23.7a4.146 4.146 0 0 1 2.07 1.332 3.347 3.347 0 0 1 .81 2.268 3.749 3.749 0 0 1-1.314 3.042 4.76 4.76 0 0 1-3.186 1.1 5.253 5.253 0 0 1-2.646-.666 3.938 3.938 0 0 1-1.674-2l2.124-1.224a2.053 2.053 0 0 0 2.2 1.458 2.192 2.192 0 0 0 1.476-.45 1.582 1.582 0 0 0 .54-1.26 1.562 1.562 0 0 0-.54-1.242 2.136 2.136 0 0 0-1.476-.468h-.54l-.954-1.44 2.484-3.24h-4.932v-2.317h7.92v2.052z" class="cls-2" transform="translate(5206.709 1696)"/>
        <path id="Path_1602" d="M460.243 26.747v2.3h-1.35v2.142h-2.5v-2.138h-5.958v-2.3l4.194-8.154h2.664l-4.176 8.154h3.276v-2.992h2.5v2.988z" class="cls-2" transform="translate(5206.551 1696)"/>
    </g>
</svg>
