<svg id="Ilustraciones" xmlns="http://www.w3.org/2000/svg" viewBox="0 0 120 120"><defs><style>.cls-1{fill:#bfe1ef;}.cls-2{fill:#7fc3de;}.cls-3{fill:#f2bb93;}.cls-4{fill:#fff;}.cls-5{fill:#f4c5ab;}.cls-6{fill:#ec9a5e;}</style></defs><circle class="cls-1" cx="60" cy="60" r="60"/><circle class="cls-2" cx="60" cy="60" r="60"/><path class="cls-2" d="M119.464,55.8a60.647,60.647,0,0,0-.68-6.267L98.415,59.509C104.739,58.673,113.95,56.9,119.464,55.8Z"/><path class="cls-3" d="M82.149,41.311a11.421,11.421,0,0,0-3.1-.022A5.6,5.6,0,0,1,82.334,45.3a7.877,7.877,0,0,1,1.093-.078A7.716,7.716,0,0,1,89.7,57.451a11.714,11.714,0,0,0,1.954,2.283c.508.425,3.172.25,6.765-.225l20.369-9.977a59.678,59.678,0,0,0-10.725-25.691c-1.632,1.286-3.353,2.636-4.229,3.309C102.7,28.022,83.868,41.661,82.149,41.311Z"/><path class="cls-3" d="M30.122,90.519a9.484,9.484,0,0,0-.966.941C29.581,91.083,29.919,90.711,30.122,90.519Z"/><path class="cls-3" d="M32.4,74.036c-.243-.029-.451-.059-.651-.089l-.194.181a6.009,6.009,0,0,1,.846-.091Z"/><path class="cls-3" d="M39.192,87.805a7.505,7.505,0,0,1-4.737-8.6A14.675,14.675,0,0,1,30.013,76.9a1.672,1.672,0,0,1-.413-.963c-.849.783-1.506,1.381-1.842,1.671a37.425,37.425,0,0,0-3.649,3.66c-1.8,1.99-1.284,6.515,3.7,3.686-1.416,1.5-4.732,4.245-3.276,6.253,1.679,2.317,3.476,1.264,4.618.249a9.484,9.484,0,0,1,.966-.941c-.2.192-.541.564-.966.941-3.193,3.613,1.251,5.641,5.252,2.42a79.521,79.521,0,0,1,8.081-4.808c-.028-.274-.066-.548-.068-.827A7.478,7.478,0,0,1,39.192,87.805Z"/><path class="cls-3" d="M37.953,94.933c.539,1.135,3.859.219,6.555-1.06A8.883,8.883,0,0,1,42.49,89.09C37.977,91.639,37.223,93.4,37.953,94.933Z"/><path class="cls-4" d="M52.267,46.749c.552-.124,1.1-.268,1.646-.406.529-.149,1.061-.282,1.6-.393.741-.189,1.481-.38,2.228-.544.568-.125,1.393-.246,2.336-.358A20.463,20.463,0,0,1,57.686,40.4c-.083.182-.182.355-.253.543A7.513,7.513,0,0,0,46.74,47.75c0,.059.009.115.011.174a6.871,6.871,0,0,1,.824-.276A40,40,0,0,1,52.267,46.749Z"/><path class="cls-4" d="M64.752,38.936c1.048.785,4.186,2.512,6.206,3.884a59.527,59.527,0,0,1,8.088-1.531,5.522,5.522,0,0,0-4.819.177,8.822,8.822,0,0,0-12.038-5.505l.268.277A28.944,28.944,0,0,0,64.752,38.936Z"/><path class="cls-4" d="M51.989,54.412c.224-.03.448-.06.672-.092-.222.008-.415.018-.564.031C52.062,54.371,52.024,54.39,51.989,54.412Z"/><path class="cls-4" d="M72.509,44.049a9.392,9.392,0,0,0,5.778,3.133,9.083,9.083,0,0,1,4.366,1.54c1.221.917,5.035,6.029,6.06,7.367.334.437.656.9.983,1.362a7.716,7.716,0,0,0-6.269-12.227,7.877,7.877,0,0,0-1.093.078,5.6,5.6,0,0,0-3.288-4.013,59.527,59.527,0,0,0-8.088,1.531A9.466,9.466,0,0,1,72.509,44.049Z"/><path class="cls-4" d="M42.489,89.072v.018c.259-.146.524-.294.808-.445C43.12,88.736,42.836,88.886,42.489,89.072Z"/><path class="cls-4" d="M73.825,89.422c-2.112-.3-4.206-.905-6.314-1.284-1.93-.346-3.837-.8-5.743-1.248-.161.095-.32.188-.489.29-7.934,4.8-12.9,4.381-14.721,5.569a17.986,17.986,0,0,1-2.05,1.124,8.833,8.833,0,0,0,13.847-.3,5.607,5.607,0,0,0,8.934-.789,7.911,7.911,0,0,0,1,.452,7.719,7.719,0,0,0,9.8-4.291A12.352,12.352,0,0,1,73.825,89.422Z"/><polygon class="cls-4" points="32.406 74.037 32.401 74.036 32.402 74.037 32.406 74.037"/><path class="cls-4" d="M61.279,87.18c.169-.1.328-.2.489-.29-2.109-.5-4.216-1-6.351-1.362a42.207,42.207,0,0,1-6.032-1.377c-1.944-.636-5-1.818-6.991-2.323a82.129,82.129,0,0,1-7.939-2.619,7.5,7.5,0,0,0,7.966,9.036c0,.279.04.553.068.827.347-.186.631-.336.809-.427-.284.151-.549.3-.808.445a8.883,8.883,0,0,0,2.018,4.783,17.986,17.986,0,0,0,2.05-1.124C48.382,91.561,53.345,91.985,61.279,87.18Z"/><path class="cls-4" d="M39.176,54.85c.524.046,1.024.072,1.515.089-.066-.039-.137-.067-.2-.109-1.086-.708-2.594-2.312-2.316-3.706-.085-.006-.165-.026-.25-.026a4.016,4.016,0,0,0-4,3.77A28.77,28.77,0,0,1,39.176,54.85Z"/><path class="cls-3" d="M43.018,49.132a7.044,7.044,0,0,0,1.865-.39,7.939,7.939,0,0,1-1.54.288c-.585.049-1.171.1-1.756.174a9.814,9.814,0,0,0-1.527.278,9.419,9.419,0,0,1,1.3-.206C41.911,49.217,42.464,49.171,43.018,49.132Z"/><path class="cls-3" d="M68.165,52.893c.033,0,.069,0,.1.007a2.52,2.52,0,0,0-.158-.284c-.081.022-.16.048-.241.068C67.989,52.773,68.09,52.843,68.165,52.893Z"/><path class="cls-3" d="M51.768,54.4c-.058.019-.105.042-.156.063l.377-.052c.035-.022.073-.041.108-.061A1.942,1.942,0,0,0,51.768,54.4Z"/><path class="cls-3" d="M67.867,52.684c.081-.02.16-.046.241-.068a21.326,21.326,0,0,0-2.763-2.769c-1.188-1.275-2.591-1.692-3.746-2.913a16.446,16.446,0,0,1-1.525-1.886c-.943.112-1.768.233-2.336.358-.747.164-1.487.355-2.228.544.355-.073.71-.143,1.071-.182C58.58,45.549,65.957,51.3,67.867,52.684Z"/><path class="cls-3" d="M53.913,46.343c-.548.138-1.094.282-1.646.406a40,40,0,0,0-4.692.9c1.253-.33,2.556-.354,3.851-.637C52.262,46.829,53.087,46.577,53.913,46.343Z"/><path class="cls-5" d="M59.385,33.724c.061.025.124.048.185.077C59.508,33.772,59.446,33.749,59.385,33.724Z"/><path class="cls-5" d="M62.189,35.961c-.066-.07-.132-.137-.2-.208.067.07.135.139.2.208Z"/><path class="cls-5" d="M19.31,61.682c.037-.05.071-.1.113-.151C19.381,61.58,19.347,61.632,19.31,61.682Z"/><path class="cls-5" d="M24.128,58.131a1.8,1.8,0,0,1-.069-.383A1.868,1.868,0,0,0,24.128,58.131Z"/><path class="cls-5" d="M19.014,62.248a1.755,1.755,0,0,1,.06-.167A1.755,1.755,0,0,0,19.014,62.248Z"/><path class="cls-5" d="M58.21,34.4c.053-.55.4-.891.907-.764a2.637,2.637,0,0,0-.825-.136c-2.276.04-1.417,4.265-1.11,5.363.142.51.316,1.025.5,1.541A8.834,8.834,0,0,1,59.3,37.995,6.686,6.686,0,0,1,58.21,34.4Z"/><path class="cls-5" d="M24.518,56.492a2.607,2.607,0,0,1,.388-.346A2.607,2.607,0,0,0,24.518,56.492Z"/><path class="cls-5" d="M61.062,34.843l.164.152Z"/><path class="cls-5" d="M61.522,35.28c.054.054.109.107.161.16C61.63,35.386,61.577,35.334,61.522,35.28Z"/><path class="cls-5" d="M24.512,58.9a2.794,2.794,0,0,1-.208-.332A2.794,2.794,0,0,0,24.512,58.9Z"/><path class="cls-5" d="M24.8,59.242a2.986,2.986,0,0,1-.26-.3A2.986,2.986,0,0,0,24.8,59.242Z"/><path class="cls-5" d="M19.794,61.181a3.1,3.1,0,0,1,.462-.313A3.839,3.839,0,0,0,19.794,61.181Z"/><path class="cls-5" d="M24.232,56.9a1.9,1.9,0,0,1,.262-.38A1.9,1.9,0,0,0,24.232,56.9Z"/><path class="cls-5" d="M60.584,34.438c.039.03.075.063.114.094C60.659,34.5,60.623,34.468,60.584,34.438Z"/><path class="cls-5" d="M24.283,58.528a2.35,2.35,0,0,1-.146-.359A2.35,2.35,0,0,0,24.283,58.528Z"/><path class="cls-5" d="M119.464,55.8c-5.514,1.1-14.725,2.874-21.049,3.71l-4.942,2.42a75.742,75.742,0,0,0-10.959,8.726c3.607.776,5.946,1.281,5.875,1.256.372.133-4.345,4.687-4.619,4.908-.663.536-4.068,2.457-6.934,4.16a7.722,7.722,0,0,1,1.374,7.694c-.035.095-.08.184-.118.277.658-.148,1.308-.29,1.932-.37,2.258-.291,4.5-.713,6.753-1.036,2.153-.309,14.968-4.645,17.239-4.849,1.248-.113,7.211-1.664,11.909-2.922a59.878,59.878,0,0,0,3.637-20.619C119.562,58.028,119.525,56.911,119.464,55.8Z"/><path class="cls-5" d="M24.058,57.725a1.609,1.609,0,0,1,.17-.814A1.609,1.609,0,0,0,24.058,57.725Z"/><path class="cls-5" d="M18.932,62.648c0,.055-.011.109-.011.165C18.921,62.757,18.927,62.7,18.932,62.648Z"/><path class="cls-5" d="M30.049,74.8a2.026,2.026,0,0,1,.421-.307A2.024,2.024,0,0,0,30.049,74.8Z"/><path class="cls-5" d="M23.752,66.193a15.508,15.508,0,0,0,1.625.184A3.753,3.753,0,0,0,23.752,66.193Z"/><path class="cls-5" d="M31.556,74.128a4.165,4.165,0,0,0-.46.106c.109.01.193.033.295.047Z"/><path class="cls-5" d="M32.027,69.349a5.565,5.565,0,0,1,7.888-3c1.094-1.008,1.877-1.718,2.092-1.88,1.032-1.011,2.678-1.085,4.077-1.167,1.519-.087,20.324,3.9,32.345,6.477-2.283-4.1-6.148-11.772-9.065-17.607-.027.013-.057.023-.085.035a10.086,10.086,0,0,1-.924,1.294,4.887,4.887,0,0,1-3.62,1.172c-.405-.007-1.174-.049-2.121-.106-1.131-.045-2.992-.121-4.874-.179a7.458,7.458,0,0,1-3.488.875,7.54,7.54,0,0,1-1.907-.244c0,.017,0,.033,0,.051a5.6,5.6,0,0,1-10.87,1.915A4.015,4.015,0,0,1,33.9,55.126c0-.088.02-.171.026-.258-.635.031-1.377.052-2.364.038-3.584-.051-5.6.479-6.618,1.215,1.709-.372,3.752-.265,4.692,1,.393.53.246.884.142,1.487-.246,1.421-1.3,1.418-2.182,1.387a7.063,7.063,0,0,1-2.775-.742,2.878,2.878,0,0,0,1.062.686,10.045,10.045,0,0,0-5.546.881,3.56,3.56,0,0,1,2.032-.348c1.323.155,2.868.693,2.895,1.762a3.213,3.213,0,0,1-.9,2.643,2.964,2.964,0,0,1-2.13.185,5.749,5.749,0,0,1-3.024-1.279c.589,1.045,2.1,2,4.544,2.406a3.753,3.753,0,0,1,1.625.184,15.508,15.508,0,0,1-1.625-.184A3.41,3.41,0,0,0,21.168,67.6,1.979,1.979,0,0,1,23.3,66.72a8.839,8.839,0,0,1,2.317.889c.732.619.089,2.007-.186,2.483-.523.908-2.777.322-3.717-.311a1.742,1.742,0,0,1-.574-2.136c-.8,1.425.355,3.605,6.61,5.263a29.028,29.028,0,0,0,4,1.039l.413-.384A5.592,5.592,0,0,1,32.027,69.349Z"/><path class="cls-5" d="M29.634,75.505a1.412,1.412,0,0,1,.4-.689A1.435,1.435,0,0,0,29.634,75.505Z"/><path class="cls-5" d="M30.478,74.486a3.284,3.284,0,0,1,.588-.245A3.033,3.033,0,0,0,30.478,74.486Z"/><path class="cls-5" d="M29.625,75.54a1.392,1.392,0,0,0-.025.4l.027-.024A.977.977,0,0,1,29.625,75.54Z"/><path class="cls-5" d="M19.026,63.413c-.018-.053-.029-.106-.042-.159C19,63.307,19.008,63.36,19.026,63.413Z"/><path class="cls-5" d="M59.963,34.013c.041.025.084.046.125.072C60.047,34.059,60,34.038,59.963,34.013Z"/><path class="cls-5" d="M91.65,59.734A11.714,11.714,0,0,1,89.7,57.451a7.719,7.719,0,0,1-13.994-4.5,7.8,7.8,0,0,1,.069-1.02,5.6,5.6,0,0,1-3.333-2.035,8.9,8.9,0,0,1-3.074,2.276c2.917,5.835,6.782,13.508,9.065,17.607,1.48.317,2.855.613,4.085.878a75.742,75.742,0,0,1,10.959-8.726l4.942-2.42C94.822,59.984,92.158,60.159,91.65,59.734Z"/><path class="cls-5" d="M32.761,74.6a5.526,5.526,0,0,1-.359-.563,6.009,6.009,0,0,0-.846.091l-.165.153A6.478,6.478,0,0,1,32.761,74.6Z"/><path class="cls-5" d="M34.455,79.209a7.213,7.213,0,0,1,1.076-2.594c-.063-.02-.125-.041-.188-.064a5.613,5.613,0,0,1-1.172-.6,1.555,1.555,0,0,1-.524,1.275c-.786.8-2.211.08-3.381-.433a1.207,1.207,0,0,1-.639-.873l-.027.024a1.672,1.672,0,0,0,.413.963A14.675,14.675,0,0,0,34.455,79.209Z"/><path class="cls-5" d="M32.163,73.563l-.413.384c.2.03.408.06.651.089Q32.271,73.805,32.163,73.563Z"/><path class="cls-5" d="M80.269,72.643a12.752,12.752,0,0,1-1.84-2.866C66.408,67.2,47.6,63.213,46.084,63.3c-1.4.082-3.045.156-4.077,1.167-.215.162-1,.872-2.092,1.88a5.6,5.6,0,0,1,2.63,6.889c-.006.016-.013.031-.019.046a7.522,7.522,0,0,1,6.685,6.281A8.875,8.875,0,0,1,59.6,85.051a5.605,5.605,0,0,1,3.831-.753,7.864,7.864,0,0,1,.289-.98,7.721,7.721,0,0,1,13.118-2.339c2.866-1.7,6.271-3.624,6.934-4.16.274-.221,4.991-4.775,4.619-4.908.071.025-2.268-.48-5.875-1.256C81.081,72.062,80.53,72.747,80.269,72.643Z"/><path class="cls-5" d="M80.269,72.643c.261.1.812-.581,2.245-1.988-1.23-.265-2.6-.561-4.085-.878A12.752,12.752,0,0,0,80.269,72.643Z"/><path class="cls-5" d="M62.457,36.238l-.268-.277h0C62.281,36.055,62.371,36.15,62.457,36.238Z"/><path class="cls-5" d="M65.56,44.578a.659.659,0,0,0-.079-.133,47.757,47.757,0,0,1,5.477-1.625c-2.02-1.372-5.158-3.1-6.206-3.884a28.944,28.944,0,0,1-2.295-2.7c.5.51.578.817,1.181,1.5-.27.18-1.025.912-1.815,1.512a1.354,1.354,0,0,1-1.944-.324c-.185-.276-.382-.593-.575-.93A8.834,8.834,0,0,0,57.686,40.4a20.463,20.463,0,0,0,2.388,4.646C61.743,44.849,63.8,44.68,65.56,44.578Z"/><path class="cls-5" d="M69.279,52.205c.028-.012.058-.022.085-.035l-.028-.057Z"/><path class="cls-5" d="M52.661,54.32c-.224.032-.448.062-.672.092a12.074,12.074,0,0,1-2.5,1.43,4.189,4.189,0,0,1-.725.236,8.979,8.979,0,0,1-4.537.072,16.94,16.94,0,0,1-2.32-.636,3.964,3.964,0,0,1-.434,1.469,5.6,5.6,0,0,0,10.87-1.915c0-.018,0-.034,0-.051a7.54,7.54,0,0,0,1.907.244,7.458,7.458,0,0,0,3.488-.875C55.759,54.324,53.789,54.284,52.661,54.32Z"/><path class="cls-5" d="M82.653,48.722a9.083,9.083,0,0,0-4.366-1.54,9.392,9.392,0,0,1-5.778-3.133,9.466,9.466,0,0,0-1.551-1.229,47.757,47.757,0,0,0-5.477,1.625.659.659,0,0,1,.079.133,30.29,30.29,0,0,1,3.7-.073c1.033.135,2.441.221,2.762,1.353.234.823-1.4,4.189-2.688,6.255l.028.057a8.9,8.9,0,0,0,3.074-2.276,5.6,5.6,0,0,0,3.333,2.035,7.715,7.715,0,0,0,7.656,8.745A7.709,7.709,0,0,0,89.7,57.451c-.327-.463-.649-.925-.983-1.362C87.688,54.751,83.874,49.639,82.653,48.722Z"/><path class="cls-5" d="M32.027,69.349a5.592,5.592,0,0,0,.136,4.214c2.6-2.425,5.719-5.342,7.752-7.216a5.565,5.565,0,0,0-7.888,3Z"/><path class="cls-5" d="M70.827,82.861A15.964,15.964,0,0,0,66.7,84.273c-1.889.984-3.184,1.59-4.928,2.617,1.906.451,3.813.9,5.743,1.248,2.108.379,4.2.985,6.314,1.284a12.352,12.352,0,0,0,4.267-.472c.038-.093.083-.182.118-.277a7.722,7.722,0,0,0-1.374-7.694c-.716.425-1.4.837-2,1.21C73.636,82.94,72.2,82.622,70.827,82.861Z"/><path class="cls-5" d="M73.642,78.749a7.725,7.725,0,0,0-9.924,4.569,7.864,7.864,0,0,0-.289.98,5.605,5.605,0,0,0-3.831.753,8.875,8.875,0,0,0-10.387-5.488,7.522,7.522,0,0,0-6.685-6.281c.006-.015.013-.03.019-.046a5.6,5.6,0,0,0-2.63-6.889c-2.033,1.874-5.148,4.791-7.752,7.216q.108.242.238.473h0a5.526,5.526,0,0,0,.359.563c.888.329,1.344.814,1.41,1.348a5.613,5.613,0,0,0,1.172.6c.063.023.125.044.188.064a7.213,7.213,0,0,0-1.076,2.594,82.129,82.129,0,0,0,7.939,2.619c1.988.5,5.047,1.687,6.991,2.323a42.207,42.207,0,0,0,6.032,1.377c2.135.364,4.242.863,6.351,1.362,1.744-1.027,3.039-1.633,4.928-2.617a15.964,15.964,0,0,1,4.131-1.412c1.374-.239,2.809.079,4.013-.672.6-.373,1.28-.785,2-1.21A7.686,7.686,0,0,0,73.642,78.749Z"/><path class="cls-5" d="M37.923,59.154a4.012,4.012,0,0,0,3.554-2.171,5.592,5.592,0,0,1-.337-1.8q-.228-.113-.449-.244c-.491-.017-.991-.043-1.515-.089a28.77,28.77,0,0,0-5.255.018c-.006.087-.026.17-.026.258A4.027,4.027,0,0,0,37.923,59.154Z"/><path class="cls-5" d="M41.14,55.183a5.592,5.592,0,0,0,.337,1.8,3.964,3.964,0,0,0,.434-1.469A7.579,7.579,0,0,1,41.14,55.183Z"/><path class="cls-5" d="M68.213,52.924l.053-.024c-.032,0-.068,0-.1-.007Z"/><path class="cls-5" d="M68.266,52.9c.1.1.068.1-.053.024-.448.207-3.752,1.711-4.821,1.672l-.778-.031c.947.057,1.716.1,2.121.106a4.887,4.887,0,0,0,3.62-1.172,10.086,10.086,0,0,0,.924-1.294,8.818,8.818,0,0,1-1.171.411A2.52,2.52,0,0,1,68.266,52.9Z"/><path class="cls-5" d="M65.56,44.578c-1.765.1-3.817.271-5.486.47A16.446,16.446,0,0,0,61.6,46.934c1.155,1.221,2.558,1.638,3.746,2.913a21.326,21.326,0,0,1,2.763,2.769,8.818,8.818,0,0,0,1.171-.411l.057-.092C67.4,48.239,65.9,45.205,65.56,44.578Z"/><path class="cls-5" d="M48.953,56.012c-.058.026-.125.043-.185.066a4.189,4.189,0,0,0,.725-.236,12.074,12.074,0,0,0,2.5-1.43l-.377.052A22.289,22.289,0,0,1,48.953,56.012Z"/><path class="cls-5" d="M72.024,45.858c-.321-1.132-1.729-1.218-2.762-1.353a30.29,30.29,0,0,0-3.7.073c.337.627,1.84,3.661,3.776,7.535C70.621,50.047,72.258,46.681,72.024,45.858Z"/><path class="cls-6" d="M60.088,34.085c.169.108.335.226.5.353C60.423,34.311,60.257,34.193,60.088,34.085Z"/><path class="cls-6" d="M59.186,33.641c-.025-.008-.045,0-.069-.007.089.027.179.054.268.09C59.318,33.7,59.253,33.664,59.186,33.641Z"/><path class="cls-6" d="M61.226,34.995c.1.1.2.189.3.285C61.426,35.184,61.327,35.09,61.226,34.995Z"/><path class="cls-6" d="M59.57,33.8a4.162,4.162,0,0,1,.393.212A4.162,4.162,0,0,0,59.57,33.8Z"/><path class="cls-6" d="M60.7,34.532c.123.1.245.2.364.311C60.943,34.736,60.821,34.633,60.7,34.532Z"/><path class="cls-6" d="M61.683,35.44l.306.313C61.889,35.65,61.788,35.546,61.683,35.44Z"/><path class="cls-6" d="M58.21,34.4a6.686,6.686,0,0,0,1.094,3.6,8.867,8.867,0,0,1,2.885-2.034c-.065-.069-.133-.138-.2-.208l-.306-.313c-.052-.053-.107-.106-.161-.16-.1-.1-.2-.19-.3-.285l-.164-.152c-.119-.107-.241-.21-.364-.311-.039-.031-.075-.064-.114-.094-.161-.127-.327-.245-.5-.353-.041-.026-.084-.047-.125-.072a4.162,4.162,0,0,0-.393-.212c-.061-.029-.124-.052-.185-.077-.089-.036-.179-.063-.268-.09C58.608,33.507,58.263,33.848,58.21,34.4Z"/><path class="cls-6" d="M59.3,37.995c.193.337.39.654.575.93a1.354,1.354,0,0,0,1.944.324c.79-.6,1.545-1.332,1.815-1.512-.6-.682-.685-.989-1.181-1.5-.086-.088-.176-.183-.268-.277A8.867,8.867,0,0,0,59.3,37.995Z"/><path class="cls-6" d="M24.932,56.123c-.01.007-.016.016-.026.023l.033-.025Z"/><path class="cls-6" d="M24.494,56.522l.024-.03Z"/><path class="cls-6" d="M24.813,59.255l0,0-.014-.015Z"/><path class="cls-6" d="M24.542,58.941l-.03-.039Z"/><path class="cls-6" d="M24.228,56.911l0-.009Z"/><path class="cls-6" d="M24.137,58.169l-.009-.038Z"/><path class="cls-6" d="M24.3,58.57l-.021-.042Z"/><path class="cls-6" d="M24.059,57.748v0Z"/><path class="cls-6" d="M29.773,58.612c.1-.6.251-.957-.142-1.487-.94-1.269-2.983-1.376-4.692-1l-.033.025a2.607,2.607,0,0,0-.388.346l-.024.03a1.9,1.9,0,0,0-.262.38l0,.009a1.609,1.609,0,0,0-.17.814v.023a1.8,1.8,0,0,0,.069.383l.009.038a2.35,2.35,0,0,0,.146.359l.021.042a2.794,2.794,0,0,0,.208.332l.03.039a2.986,2.986,0,0,0,.26.3l.014.015A7.063,7.063,0,0,0,27.591,60C28.474,60.03,29.527,60.033,29.773,58.612Z"/><path class="cls-6" d="M19.181,63.767c.008.007.019.012.027.02a2.3,2.3,0,0,1-.182-.374A2.322,2.322,0,0,0,19.181,63.767Z"/><path class="cls-6" d="M18.984,63.254a1.87,1.87,0,0,1-.063-.441A1.82,1.82,0,0,0,18.984,63.254Z"/><path class="cls-6" d="M19.722,61.23a2.735,2.735,0,0,0-.3.3,2.974,2.974,0,0,1,.371-.35C19.772,61.2,19.745,61.211,19.722,61.23Z"/><path class="cls-6" d="M20.256,60.868l.076-.044C20.306,60.838,20.282,60.854,20.256,60.868Z"/><path class="cls-6" d="M18.932,62.648a1.789,1.789,0,0,1,.082-.4A1.789,1.789,0,0,0,18.932,62.648Z"/><path class="cls-6" d="M19.074,62.081a2.187,2.187,0,0,1,.236-.4A2.132,2.132,0,0,0,19.074,62.081Z"/><path class="cls-6" d="M24.362,64.881a3.213,3.213,0,0,0,.9-2.643c-.027-1.069-1.572-1.607-2.895-1.762a3.56,3.56,0,0,0-2.032.348l-.076.044a3.1,3.1,0,0,0-.462.313,2.974,2.974,0,0,0-.371.35c-.042.049-.076.1-.113.151a2.187,2.187,0,0,0-.236.4,1.755,1.755,0,0,0-.06.167,1.789,1.789,0,0,0-.082.4c0,.055-.011.109-.011.165a1.87,1.87,0,0,0,.063.441c.013.053.024.106.042.159a2.3,2.3,0,0,0,.182.374,5.749,5.749,0,0,0,3.024,1.279A2.964,2.964,0,0,0,24.362,64.881Z"/><path class="cls-6" d="M21.155,67.616l-.011.029c.008-.014.015-.03.024-.044C21.165,67.607,21.158,67.611,21.155,67.616Z"/><path class="cls-6" d="M21.718,69.781c.94.633,3.194,1.219,3.717.311.275-.476.918-1.864.186-2.483A8.839,8.839,0,0,0,23.3,66.72a1.979,1.979,0,0,0-2.136.881c-.009.014-.016.03-.024.044A1.742,1.742,0,0,0,21.718,69.781Z"/><path class="cls-6" d="M30.031,74.816l.018-.018Z"/><path class="cls-6" d="M30.47,74.491l.008,0Z"/><path class="cls-6" d="M29.625,75.528s0,.008,0,.012l.009-.035C29.632,75.512,29.627,75.52,29.625,75.528Z"/><path class="cls-6" d="M31.088,74.232c-.009,0-.014.007-.022.009l.03-.007Z"/><path class="cls-6" d="M29.627,75.917c.524-.484,1.121-1.038,1.764-1.636-.1-.014-.186-.037-.295-.047l-.03.007a3.284,3.284,0,0,0-.588.245l-.008,0a2.026,2.026,0,0,0-.421.307l-.018.018a1.412,1.412,0,0,0-.4.689l-.009.035A.977.977,0,0,0,29.627,75.917Z"/><path class="cls-6" d="M29.627,75.917a1.207,1.207,0,0,0,.639.873c1.17.513,2.595,1.234,3.381.433a1.555,1.555,0,0,0,.524-1.275,5.588,5.588,0,0,1-1.41-1.348,6.478,6.478,0,0,0-1.37-.319C30.748,74.879,30.151,75.433,29.627,75.917Z"/><path class="cls-6" d="M34.171,75.948c-.066-.534-.522-1.019-1.41-1.348A5.588,5.588,0,0,0,34.171,75.948Z"/><path class="cls-3" d="M38.9,50.036a3.211,3.211,0,0,1,1.161-.554,3,3,0,0,0-1.232.576,1.841,1.841,0,0,0-.655,1.066h.012A1.935,1.935,0,0,1,38.9,50.036Z"/><path class="cls-3" d="M46.751,47.924a5.4,5.4,0,0,0-.5.223,10.657,10.657,0,0,1-1.367.595,10.615,10.615,0,0,0,1.872-.75C46.754,47.969,46.751,47.946,46.751,47.924Z"/><path class="cls-3" d="M46.776,47.982a6.836,6.836,0,0,1,.8-.334,6.871,6.871,0,0,0-.824.276c0,.022,0,.045,0,.068Z"/><path class="cls-3" d="M52.5,54.173a2.21,2.21,0,0,0-.4.178c.149-.013.342-.023.564-.031q.757-.1,1.514-.2A8.158,8.158,0,0,0,52.5,54.173Z"/><path class="cls-3" d="M53.913,46.343c.532-.134,1.066-.256,1.6-.393C54.974,46.061,54.442,46.194,53.913,46.343Z"/><path class="cls-3" d="M40.489,54.83c.065.042.136.07.2.109l.157.006c-.092-.049-.19-.086-.279-.14-1.133-.692-2.7-2.275-2.384-3.68h-.012C37.9,52.518,39.4,54.122,40.489,54.83Z"/><path class="cls-3" d="M58.975,53.581c1.9-.227,3.967-.554,5.948-.694a8.823,8.823,0,0,1-4.131-1.445A7.551,7.551,0,0,1,58.975,53.581Z"/><path class="cls-3" d="M38.185,51.125a4,4,0,0,1,3.266,2.1,5.605,5.605,0,0,1,5.289-3.761c.067,0,.133,0,.2.005a7.449,7.449,0,0,1-.185-1.474,10.615,10.615,0,0,1-1.872.75,7.044,7.044,0,0,1-1.865.39c-.554.039-1.107.085-1.659.144a9.419,9.419,0,0,0-1.3.206,3.211,3.211,0,0,0-1.161.554A1.935,1.935,0,0,0,38.185,51.125Z"/><path class="cls-3" d="M67.132,52.827c.352.011.7.032,1.033.066-.075-.05-.176-.12-.3-.209C67.626,52.743,67.38,52.788,67.132,52.827Z"/><path class="cls-3" d="M45.455,54.95a43.864,43.864,0,0,0,6.157-.486c.051-.021.1-.044.156-.063a1.942,1.942,0,0,1,.329-.05,2.21,2.21,0,0,1,.4-.178,8.158,8.158,0,0,1,1.677-.058c1.116-.15,2.229-.288,3.336-.38.471-.039.962-.094,1.464-.154a7.551,7.551,0,0,0,1.817-2.139,8.823,8.823,0,0,0,4.131,1.445c.755-.053,1.5-.081,2.209-.06.248-.039.494-.084.735-.143-1.91-1.382-9.287-7.135-11.286-6.916-.361.039-.716.109-1.071.182-.531.137-1.065.259-1.6.393-.826.234-1.651.486-2.487.668-1.3.283-2.6.307-3.851.637a6.836,6.836,0,0,0-.8.334l-.021.01a7.449,7.449,0,0,0,.185,1.474c-.067,0-.133-.005-.2-.005a5.605,5.605,0,0,0-5.289,3.761,3.987,3.987,0,0,1,.483,1.738C43.073,54.965,44.2,54.939,45.455,54.95Z"/><path class="cls-3" d="M41.451,53.222a4,4,0,0,0-3.266-2.1c-.312,1.405,1.251,2.988,2.384,3.68.089.054.187.091.279.14.1,0,.194,0,.292,0A5.606,5.606,0,0,1,41.451,53.222Z"/><path class="cls-3" d="M41.934,54.96a3.987,3.987,0,0,0-.483-1.738,5.606,5.606,0,0,0-.311,1.727Q41.539,54.958,41.934,54.96Z"/><path class="cls-3" d="M57.74,54.386c1.882.058,3.743.134,4.874.179-1.335-.079-3.033-.189-4.671-.283C57.877,54.32,57.807,54.35,57.74,54.386Z"/><path class="cls-3" d="M44.5,56.066a17.357,17.357,0,0,1-2.58-.647c0,.032-.007.064-.01.1a16.94,16.94,0,0,0,2.32.636,8.979,8.979,0,0,0,4.537-.072A11.045,11.045,0,0,1,44.5,56.066Z"/><path class="cls-3" d="M54.175,54.115q-.756.1-1.514.2c1.128-.036,3.1,0,5.079.066.067-.036.137-.066.2-.1C56.532,54.2,55.189,54.136,54.175,54.115Z"/><path class="cls-3" d="M40.848,54.945l-.157-.006q.221.132.449.244c0-.031-.005-.061-.005-.093C41.038,55.044,40.942,55,40.848,54.945Z"/><path class="cls-3" d="M41.921,55.419a7.623,7.623,0,0,1-.786-.329c0,.032,0,.062.005.093a7.579,7.579,0,0,0,.771.331C41.914,55.483,41.919,55.451,41.921,55.419Z"/><path class="cls-3" d="M68.266,52.9l-.053.024C68.334,53,68.363,53,68.266,52.9Z"/><path class="cls-3" d="M68.213,52.924l-.048-.031c-.336-.034-.681-.055-1.033-.066a8.859,8.859,0,0,1-1.391.122c-.278,0-.547-.037-.818-.062-1.981.14-4.052.467-5.948.694a7.433,7.433,0,0,1-1.032.7c1.638.094,3.336.2,4.671.283l.778.031C64.461,54.635,67.765,53.131,68.213,52.924Z"/><path class="cls-3" d="M51.612,54.464a43.864,43.864,0,0,1-6.157.486c-1.255-.011-2.382.015-3.521.01,0,.056.016.109.016.166,0,.1-.022.194-.029.293a17.357,17.357,0,0,0,2.58.647,11.045,11.045,0,0,0,4.267.012c.06-.023.127-.04.185-.066A22.289,22.289,0,0,0,51.612,54.464Z"/><path class="cls-3" d="M64.923,52.887c.271.025.54.062.818.062a8.859,8.859,0,0,0,1.391-.122C66.42,52.806,65.678,52.834,64.923,52.887Z"/><path class="cls-3" d="M54.175,54.115c1.014.021,2.357.087,3.768.167a7.433,7.433,0,0,0,1.032-.7c-.5.06-.993.115-1.464.154C56.4,53.827,55.291,53.965,54.175,54.115Z"/><path class="cls-3" d="M41.134,55.068c0-.04.005-.079.006-.119-.1,0-.193,0-.292,0,.094.052.19.1.287.145Z"/><path class="cls-3" d="M41.934,54.96q-.394,0-.794-.011c0,.04-.006.079-.006.119v.022a7.623,7.623,0,0,0,.786.329c.007-.1.029-.192.029-.293C41.95,55.069,41.936,55.016,41.934,54.96Z"/><circle class="cls-4" cx="40.318" cy="39.878" r="4.028"/><path class="cls-4" d="M49.9,24.89a5.142,5.142,0,1,0-5.142-5.142A5.143,5.143,0,0,0,49.9,24.89Z"/><circle class="cls-4" cx="78.093" cy="30.088" r="2.546"/></svg>