<svg id="Ilustraciones" xmlns="http://www.w3.org/2000/svg" xmlns:xlink="http://www.w3.org/1999/xlink" viewBox="0 0 120 120"><defs><style>.cls-1{fill:none;}.cls-2{clip-path:url(#clip-path);}.cls-3{fill:#7fc3de;}.cls-4{fill:#fff;}.cls-5{fill:#edfbff;}.cls-6{fill:#0eb0b4;}.cls-7{fill:#f2bb93;}.cls-8{fill:#f4c5ab;}.cls-9{fill:#ec9a5e;}.cls-10{fill:#1c1a21;}.cls-11{fill:#b2d0e4;}.cls-12{fill:#bfe1ef;}.cls-13{fill:#ffad77;}</style><clipPath id="clip-path"><circle id="SVGID" class="cls-1" cx="60" cy="60" r="60"/></clipPath></defs><g class="cls-2"><circle class="cls-3" cx="60" cy="60" r="60"/><path class="cls-4" d="M26.293,77.73c.026.2.051.4.074.581a9.09,9.09,0,0,1,.527-.8,1.494,1.494,0,0,1-.527-.165Z"/><path class="cls-5" d="M62.4,79.4a11.592,11.592,0,0,1-3.032.534l.312-3.072.343-3.263a12.167,12.167,0,0,0,1.984-.1,8.886,8.886,0,0,0,.423,4.3,1.421,1.421,0,0,0-.081.352A7.633,7.633,0,0,0,62.4,79.4Z"/><path class="cls-5" d="M78.207,64.35l-.675,1.279-2.367-1.823C76.242,63.967,77.26,64.148,78.207,64.35Z"/><path class="cls-5" d="M51.034,64.442c-.7.183-1.375.384-2.01.606q1.007.033,2.01.1Z"/><path class="cls-5" d="M67.268,80.284c0,2.206-.151,4-.252,5.54L57.185,104.68l-4.31-20.4a58.015,58.015,0,0,0,5.962-2.236.677.677,0,0,0,.383-.574l.07-.695a12.07,12.07,0,0,0,3.244-.524,1.922,1.922,0,0,0,.3.8,2.471,2.471,0,0,0,.9.917,2.319,2.319,0,0,0,3.213-.444c.323-.483,0-1.017-.544-1.53.172.05.484.131.857.231A.129.129,0,0,1,67.268,80.284Z"/><path class="cls-6" d="M112.271,89.481c-3.918,6.043-8.652,12.348-14.212,16.9-.04.03-.07.061-.11.091L91.18,99.14,81.2,88.342l.192-11.986c.14-1.007.281-1.974.372-2.86a5.66,5.66,0,0,0-.252-4.311,4.906,4.906,0,0,0-.534-.9l-3.444-2.659.675-1.279v-.01c15.108,2.589,27.094,8.068,29.864,14.142A87.316,87.316,0,0,1,112.271,89.481Z"/><path class="cls-6" d="M27.582,76.661c.041.3.042.574-.105.7a.729.729,0,0,1-.583.147,9.09,9.09,0,0,0-.527.8c.063.509.108.891.1.917-.036.2-.242.34-.5.405-.045.352-.1.712-.184,1.083a9.521,9.521,0,0,0,5.519.624L30.1,74.357A19.213,19.213,0,0,0,27.582,76.661Z"/><path class="cls-6" d="M43.215,117.925h-.091a.035.035,0,0,0,.01-.02A.2.2,0,0,0,43.215,117.925Z"/><path class="cls-6" d="M81.39,76.356,81.2,88.342,80.5,87.6A57.533,57.533,0,0,1,81.39,76.356Z"/><path class="cls-6" d="M79.627,117.3c-.655.221-1.31.433-1.974.624a60.364,60.364,0,0,1-34.438,0,.2.2,0,0,1-.081-.02,60.282,60.282,0,0,1-22.663-12.591l-.01-.8.8-13.125c.584-1.178,3.233-5.8,4.321-9.82a9.55,9.55,0,0,0,3.9.8,12.26,12.26,0,0,0,1.974-.181l.051.3a.645.645,0,0,0,.332.473,24.086,24.086,0,0,0,14.061,2.781,35.023,35.023,0,0,0,6.981-1.451l4.31,20.4,9.831-18.856c-.242,3.637-.141,5.792,3.183,8.37l4.482,10Z"/><path class="cls-7" d="M74.843,49.02V63.564l-2.63-2.034a1.817,1.817,0,0,0-1.611-.3l-6.144,1.814a54.78,54.78,0,0,0-13.427,1.4V62.214a6.072,6.072,0,0,0,1.612.232,28.03,28.03,0,0,0,16.74-5.469l2.186-1.652a5,5,0,0,0,1.7-3.424V45.948a1.669,1.669,0,0,0,.272.191,1.944,1.944,0,0,0,1.289.071Z"/><path class="cls-7" d="M72.626,68.2c-.786-.221-1.47-.412-1.984-.564l-.372-.13a4.3,4.3,0,0,0-.706-.9.524.524,0,0,0-.11-.1,4.395,4.395,0,0,0,1.289-.454A17.579,17.579,0,0,0,72.626,68.2Z"/><path class="cls-7" d="M64.458,63.041l-.584.171A1.734,1.734,0,0,0,63,63.8l-1.984,2.417c-.292.1-.594.212-.9.333a54.176,54.176,0,0,0-9.086-1.4V64.44A54.78,54.78,0,0,1,64.458,63.041Z"/><path class="cls-7" d="M64.447,70.655l-.342.433a1.216,1.216,0,0,0-1.078.383A4.252,4.252,0,0,0,62.01,73.5a12.167,12.167,0,0,1-1.984.1l.02-.242.433-4.261a2.5,2.5,0,0,0,1.531.1,2.689,2.689,0,0,0,.846-.433c.272.251.554.493.766.694a3.694,3.694,0,0,1,.785,1.1Z"/><path class="cls-8" d="M72.526,44.92a5.249,5.249,0,0,1-.131-2.669l-1.2.8c2-12.006-2.377-10.385-2.377-14.595,0-10.818-16.448-4.634-16.448-4.634s-8.119-4.119-9.378,3.606c-.161.978-.242,3.173-.262,3.566.02.544.051,1.108.1,1.692l-.09,9.73a9.459,9.459,0,0,0,.392,3.677l3.828,12.2a5.958,5.958,0,0,0,4.069,3.928,6.072,6.072,0,0,0,1.612.232,28.03,28.03,0,0,0,16.74-5.469l2.186-1.652a5,5,0,0,0,1.7-3.424V45.948A2.157,2.157,0,0,1,72.526,44.92ZM56.783,38.867v-.031a2.16,2.16,0,0,1,1.913-2.1c.01-.01.01-.02.02-.03h1.693c.01.01.01.02.02.03a2.172,2.172,0,0,1,1.843,2.1v.031a3.1,3.1,0,0,1-.111.815H56.893A3.137,3.137,0,0,1,56.783,38.867Zm-1.1-5.389h7.141a.872.872,0,0,1,0,1.743H55.685a.872.872,0,1,1,0-1.743ZM51.031,47.469a17.9,17.9,0,0,0,3.777-1.179,1.576,1.576,0,0,1-1.571,1.582H50.155a1.578,1.578,0,0,1-1.581-1.582A2.117,2.117,0,0,0,51.031,47.469ZM42.993,34.908v-.9a.385.385,0,0,1,.393-.383h5.036a.385.385,0,0,1,.393.383v.9a.393.393,0,0,1-.393.393H43.386A.394.394,0,0,1,42.993,34.908Zm1.118,4.644a3.149,3.149,0,0,1-.1-.766v-.02a2.092,2.092,0,0,1,1.814-2.035c.01-.01.01-.02.02-.03h1.37c.02.02.04.051.06.071a2.089,2.089,0,0,1,1.581,1.994v.02a3.149,3.149,0,0,1-.1.766ZM54.123,55.839a1.165,1.165,0,0,1-.654.2h-2.73a1.142,1.142,0,0,1-.655-.2l-1.652-.826h7.343Zm-6.668-2.327a4.292,4.292,0,0,1,2.982-1.2h3.132a4.208,4.208,0,0,1,1.793.393l1.763.806Z"/><path class="cls-9" d="M48.574,46.292a1.578,1.578,0,0,0,1.577,1.578h.883v-.4A2.126,2.126,0,0,1,48.574,46.292Z"/><path class="cls-9" d="M53.235,47.87a1.579,1.579,0,0,0,1.578-1.578,17.943,17.943,0,0,1-3.779,1.178v.4Z"/><path class="cls-9" d="M47.457,53.509h3.577v-1.2h-.6A4.3,4.3,0,0,0,47.457,53.509Z"/><path class="cls-9" d="M57.122,53.509,55.366,52.7a4.3,4.3,0,0,0-1.793-.392H51.034v1.2Z"/><path class="cls-9" d="M50.085,55.842a1.141,1.141,0,0,0,.657.2h.292V55.014h-2.6Z"/><path class="cls-9" d="M53.464,56.045a1.143,1.143,0,0,0,.657-.2l1.654-.828H51.034v1.031Z"/><path class="cls-10" d="M55.324,17.832c7.138,0,16.527-.538,17.95,12.154v9.77c1.22-2.332,3.195-3.7,4.575-3.069,1.468.668,1.694,3.326.5,5.935A6.228,6.228,0,0,1,74.846,46.2v2.818c8.444-5.677,5.84-25.249,5.389-27.165-.416-1.768-3.092-3.663-4.745-4.17-.225-.069-.743-.249-.743-.249-.147-.16-1.7-2.773-2.516-3.766A23.544,23.544,0,0,0,67.94,9.847a20.36,20.36,0,0,0-11.192-4.34,12.688,12.688,0,0,0-3.83.459A8.77,8.77,0,0,0,49.73,7.507a2.6,2.6,0,0,0-.768,2.684,2.118,2.118,0,0,0,.313.642,7.438,7.438,0,0,0-3.689-.31,7.306,7.306,0,0,0-4.533,2.919,8.911,8.911,0,0,0-1.371,5.15,25.385,25.385,0,0,0,.48,5.125,7.48,7.48,0,0,0-.276,1.494,6.335,6.335,0,0,0,.656,3.032,12.4,12.4,0,0,0,.823,1.511A10.706,10.706,0,0,0,42.73,31.06l0-.067C42.312,19.7,48.514,17.832,55.324,17.832Z"/><path class="cls-10" d="M74.835,46.207l.008,2.816,0,0V46.2Z"/><path class="cls-10" d="M52.374,23.819s16.443-6.183,16.443,4.628c0,4.211,4.372,2.6,2.375,14.6l1.2-.8A8.626,8.626,0,0,1,73.04,40.2c.071-.157.156-.3.234-.446v-9.77c-1.423-12.692-10.812-12.154-17.95-12.154-6.81,0-13.012,1.868-12.591,13.161.014-.392.1-2.59.259-3.564C44.255,19.7,52.374,23.819,52.374,23.819Z"/><path class="cls-8" d="M73.9,43.009c.8-.663.576-1.068.191-1.446a.916.916,0,0,1-.2-.3l-.612.407v3.252h1.557l0-.649C74,44.65,73.167,43.614,73.9,43.009Z"/><path class="cls-8" d="M73.274,44.917v1.034a1.675,1.675,0,0,0,.271.187,1.914,1.914,0,0,0,1.29.069l0-1.29Z"/><path class="cls-8" d="M73.274,41.665l-.878.585a5.169,5.169,0,0,0,.134,2.667h.744Z"/><path class="cls-8" d="M72.53,44.917a2.162,2.162,0,0,0,.744,1.034V44.917Z"/><path class="cls-8" d="M73.886,41.258a.851.851,0,0,1,.169-.92s2.877-4.017,3.47-1.757a4.539,4.539,0,0,1-.012,1.37c-.338,2.234-.385,2.486-2.457,4.188a.966.966,0,0,1-.132.094c-.032.018-.063.02-.1.035l0,.649h.015V46.2a6.228,6.228,0,0,0,3.508-3.581c1.189-2.609.963-5.267-.5-5.935-1.38-.628-3.355.737-4.575,3.069v1.909Z"/><path class="cls-8" d="M74.846,44.917h-.015l0,1.29.011,0Z"/><path class="cls-8" d="M73.274,39.756c-.078.149-.163.289-.234.446A8.626,8.626,0,0,0,72.4,42.25l.878-.585Z"/><path class="cls-9" d="M73.9,43.009c-.733.6.1,1.641.929,1.259l-.01-3.631-.933.621a.916.916,0,0,0,.2.3C74.476,41.941,74.7,42.346,73.9,43.009Z"/><path class="cls-9" d="M74.829,44.268c.032-.015.063-.017.1-.035a.966.966,0,0,0,.132-.094c2.072-1.7,2.119-1.954,2.457-4.188a4.539,4.539,0,0,0,.012-1.37c-.593-2.26-3.47,1.757-3.47,1.757a.851.851,0,0,0-.169.92l.933-.621Z"/><path class="cls-10" d="M55.682,35.217h7.143a.87.87,0,1,0,0-1.74H55.682a.87.87,0,0,0,0,1.74Z"/><rect class="cls-10" x="42.992" y="33.624" width="5.826" height="1.672" rx="0.391"/><path class="cls-4" d="M60.43,36.734a1.982,1.982,0,0,1,.408,1.238c0,.939-.572,1.7-1.276,1.7a1.076,1.076,0,0,1-.734-.312.56.56,0,0,1-.059.012.6.6,0,0,1-.58-.612.618.618,0,0,1,.137-.383,2.244,2.244,0,0,1-.041-.406,1.981,1.981,0,0,1,.413-1.245,2.165,2.165,0,0,0-1.915,2.114v.025a3.061,3.061,0,0,0,.111.819h5.268a3.062,3.062,0,0,0,.112-.819v-.025A2.166,2.166,0,0,0,60.43,36.734Z"/><path class="cls-10" d="M58.716,36.7c-.007.008-.011.018-.018.027a2.2,2.2,0,0,1,.271-.027Z"/><path class="cls-10" d="M60.407,36.7h-.32a2.143,2.143,0,0,1,.343.034C60.421,36.723,60.416,36.71,60.407,36.7Z"/><path class="cls-10" d="M58.326,38.378a.563.563,0,0,1,.443-.23.61.61,0,0,1,.059,1.213,1.076,1.076,0,0,0,.734.312c.7,0,1.276-.762,1.276-1.7a1.982,1.982,0,0,0-.408-1.238,2.143,2.143,0,0,0-.343-.034H58.969a2.2,2.2,0,0,0-.271.027,1.981,1.981,0,0,0-.413,1.245A2.244,2.244,0,0,0,58.326,38.378Z"/><path class="cls-4" d="M58.189,38.761a.6.6,0,0,0,.58.612.56.56,0,0,0,.059-.012,1.8,1.8,0,0,1-.5-.983A.618.618,0,0,0,58.189,38.761Z"/><path class="cls-4" d="M59.349,38.761a.6.6,0,0,0-.58-.613.563.563,0,0,0-.443.23,1.8,1.8,0,0,0,.5.983A.6.6,0,0,0,59.349,38.761Z"/><path class="cls-4" d="M48.855,38.791v-.025a2.086,2.086,0,0,0-1.581-1.992,1.849,1.849,0,0,1,.4,1.187c0,.871-.512,1.577-1.143,1.577a.91.91,0,0,1-.576-.222.566.566,0,0,1-.056.013.542.542,0,0,1-.512-.568.6.6,0,0,1,.071-.272,2.1,2.1,0,0,1-.071-.528,1.834,1.834,0,0,1,.436-1.232,2.091,2.091,0,0,0-1.812,2.037v.025a2.957,2.957,0,0,0,.1.759h4.646A3,3,0,0,0,48.855,38.791Z"/><path class="cls-10" d="M45.847,36.7c-.008.008-.014.02-.023.029a2.1,2.1,0,0,1,.3-.029Z"/><path class="cls-10" d="M47.216,36.7h-.471a2.1,2.1,0,0,1,.528.074C47.253,36.751,47.237,36.722,47.216,36.7Z"/><path class="cls-10" d="M45.459,38.489a.5.5,0,0,1,.441-.3.569.569,0,0,1,.056,1.124.91.91,0,0,0,.576.222c.631,0,1.143-.706,1.143-1.577a1.849,1.849,0,0,0-.4-1.187,2.1,2.1,0,0,0-.528-.074h-.623a2.1,2.1,0,0,0-.3.029,1.834,1.834,0,0,0-.436,1.232A2.1,2.1,0,0,0,45.459,38.489Z"/><path class="cls-4" d="M45.459,38.489a.6.6,0,0,0-.071.272.542.542,0,0,0,.512.568.566.566,0,0,0,.056-.013A1.554,1.554,0,0,1,45.459,38.489Z"/><path class="cls-4" d="M46.412,38.761a.543.543,0,0,0-.512-.569.5.5,0,0,0-.441.3,1.554,1.554,0,0,0,.5.827A.543.543,0,0,0,46.412,38.761Z"/><path class="cls-9" d="M66.885,67.6l-2.438,3.052-.04-.1a3.694,3.694,0,0,0-.785-1.1c-.212-.2-.494-.443-.766-.694a22.276,22.276,0,0,0,2.488-2.156A9.317,9.317,0,0,1,66.885,67.6Z"/><path class="cls-11" d="M59.376,79.928l-.087.854a12.352,12.352,0,0,0,3.247-.529A8.022,8.022,0,0,1,62.4,79.4,11.268,11.268,0,0,1,59.376,79.928Z"/><path class="cls-11" d="M70.27,67.5l-.343-.111-1.37-.463a3.9,3.9,0,0,0-.6-.333,7.48,7.48,0,0,0,1.5-.09.524.524,0,0,1,.11.1A4.3,4.3,0,0,1,70.27,67.5Z"/><path class="cls-11" d="M61.013,66.213l-.483.585a.6.6,0,0,0-.343-.242c-.02,0-.05-.01-.07-.01C60.419,66.425,60.721,66.314,61.013,66.213Z"/><path class="cls-7" d="M24.53,69.91a8.288,8.288,0,0,1,3.079.965l-.181.941.691-2.107c-.161-.037-.326-.076-.51-.135-.615-.2-1.23-1.181-1.5-1.655a5.2,5.2,0,0,0-2.565.94Z"/><path class="cls-7" d="M28.182,65.48l.8,1.763a4.017,4.017,0,0,1,.393-.6c.836-1.053,3.3-2.943,1.535-3.606-1.491-.56-3.069.529-4.155,1.577l.728.274A1.558,1.558,0,0,1,28.182,65.48Z"/><path class="cls-4" d="M29.35,67.37c-.117-.029-.234-.06-.347-.085l.125.275A.618.618,0,0,1,29.35,67.37Z"/><path class="cls-4" d="M31.45,82.178a12.26,12.26,0,0,1-1.974.181,9.55,9.55,0,0,1-3.9-.8c.07-.282.141-.564.2-.846a9.555,9.555,0,0,0,5.519.624Z"/><path class="cls-4" d="M29.441,68.249l.274.6c.274.427.128.8-.413.923l.67,3.872c.494-.1.986-.194,1.477-.283,6.3-4.377,15.614-7.729,17.369-8.247.067-.024.138-.046.206-.069a72.054,72.054,0,0,0-19.545,2.261.663.663,0,0,0-.129.061c.107.027.208.048.317.078Z"/><path class="cls-4" d="M50.44,72.782c2.28.137,4.6.3,6.969.435a9.278,9.278,0,0,1-6.158-5.783,2.838,2.838,0,0,1-.217-1.087v-1.2q-1.005-.069-2.01-.1c-.068.023-.139.045-.206.069Z"/><path class="cls-4" d="M47.327,72.615c.564-4.392,1.086-7.32,1.491-7.5-1.755.518-11.066,3.87-17.369,8.247A69.96,69.96,0,0,1,47.327,72.615Z"/><path class="cls-4" d="M47.327,72.615c1.033.048,2.068.1,3.113.167l-1.622-7.665C48.413,65.3,47.891,68.223,47.327,72.615Z"/><path class="cls-4" d="M60.479,69.094l-.433,4.261c-.887-.041-1.763-.091-2.639-.142a9.262,9.262,0,0,1-6.154-5.781,2.878,2.878,0,0,1-.222-1.088v-1.2a54.176,54.176,0,0,1,9.086,1.4c-.061.02-.112.04-.172.06l.262.584-.1.121A1.137,1.137,0,0,0,60.479,69.094Z"/><path class="cls-4" d="M60.208,67.188l.324-.395a.612.612,0,0,0-.343-.232c-.025-.007-.051-.012-.076-.018-.056.022-.109.04-.166.062Z"/><path class="cls-4" d="M29.128,67.56l.313.689.226-.8c-.109-.03-.21-.051-.317-.078A.618.618,0,0,0,29.128,67.56Z"/><polygon class="cls-12" points="30.095 74.357 30.095 74.357 29.972 73.647 29.972 73.647 30.095 74.357"/><polygon class="cls-12" points="60.023 73.599 60.023 73.599 59.376 79.928 59.376 79.928 60.023 73.599"/><polygon class="cls-12" points="59.218 81.469 59.289 80.782 59.289 80.782 59.218 81.469"/><polygon class="cls-12" points="30.095 74.357 31.301 81.34 31.301 81.34 30.095 74.357 30.095 74.357"/><polygon class="cls-12" points="60.048 73.356 60.048 73.356 60.023 73.599 60.023 73.599 60.048 73.356"/><polygon class="cls-12" points="59.376 79.928 59.289 80.782 59.289 80.782 59.376 79.928 59.376 79.928"/><polygon class="cls-12" points="31.301 81.34 31.301 81.34 31.447 82.181 31.447 82.181 31.301 81.34"/><path class="cls-12" d="M31.449,73.364c-.491.089-.983.179-1.477.283l.123.71C30.526,74.021,30.98,73.691,31.449,73.364Z"/><polygon class="cls-12" points="59.287 80.782 59.218 81.469 59.289 80.782 59.287 80.782"/><path class="cls-12" d="M59.681,76.862l-.308,3.066h0l.647-6.329a10.646,10.646,0,0,1-2.614-.382c-2.372-.136-4.689-.3-6.969-.435L51.627,78.4C54.235,77.9,56.9,77.346,59.681,76.862Z"/><path class="cls-12" d="M31.3,81.34h0l-.493-2.856a37.18,37.18,0,0,0,15.748.763c.261-2.427.52-4.675.771-6.632a69.96,69.96,0,0,0-15.878.749c-.469.327-.923.657-1.354.993Z"/><path class="cls-12" d="M46.556,79.247c1.679-.232,3.365-.527,5.071-.851L50.44,72.782c-1.045-.064-2.08-.119-3.113-.167C47.076,74.572,46.817,76.82,46.556,79.247Z"/><path class="cls-12" d="M60.048,73.356c-.89-.04-1.767-.088-2.639-.139a10.646,10.646,0,0,0,2.614.382Z"/><polygon class="cls-12" points="59.376 79.928 59.373 79.928 59.287 80.782 59.289 80.782 59.376 79.928"/><polygon class="cls-12" points="31.447 82.181 31.447 82.181 31.301 81.34 31.301 81.34 31.447 82.181"/><path class="cls-3" d="M59.218,81.469l.069-.687c-.126,0-.251.014-.378.014H58.88l0-.85h.027c.158,0,.309-.012.464-.018l.308-3.066c-2.786.484-5.446,1.039-8.054,1.534l1.246,5.886a57.41,57.41,0,0,0,5.962-2.238A.66.66,0,0,0,59.218,81.469Z"/><path class="cls-3" d="M46.559,79.247c-.222,2.055-.443,4.241-.665,6.487a24.086,24.086,0,0,1-14.061-2.781.645.645,0,0,1-.332-.473l-.051-.3a8.478,8.478,0,0,0,.846-.141l-.181-.826c-.282.06-.544.091-.816.131l-.493-2.86A37.078,37.078,0,0,0,46.559,79.247Z"/><path class="cls-3" d="M52.875,84.283a35.023,35.023,0,0,1-6.981,1.451c.222-2.246.443-4.432.665-6.487,1.672-.232,3.364-.524,5.066-.846Z"/><path class="cls-3" d="M58.909,79.946h-.027l0,.85h.029c.127,0,.252-.01.378-.014l.086-.854C59.218,79.934,59.067,79.946,58.909,79.946Z"/><path class="cls-3" d="M32.3,82.04l-.182-.83c-.276.061-.542.088-.813.13l.146.841C31.729,82.137,32.008,82.1,32.3,82.04Z"/><path class="cls-7" d="M29.3,69.775l-.277-1.6c-.126-.03-.251-.06-.374-.085l-.532,1.623A2.8,2.8,0,0,0,29.3,69.775Z"/><path class="cls-7" d="M29,67.285l-.019-.042c-.006.011-.008.023-.014.034Z"/><path class="cls-7" d="M22.037,66.562a4.709,4.709,0,0,0,2.3.891c.025-.01.052-.017.078-.027a10.811,10.811,0,0,0,.973-1.246,12.073,12.073,0,0,1,1.369-1.566l-5.393-2.038a1.56,1.56,0,0,0-1.411.093L12,68.091A3.188,3.188,0,0,0,10.384,70.4l10.564-2.886A8.936,8.936,0,0,0,22.037,66.562Z"/><path class="cls-7" d="M25.388,66.18a10.811,10.811,0,0,1-.973,1.246,7.935,7.935,0,0,1,4.555-.149c.006-.011.008-.023.014-.034l-.8-1.763a1.558,1.558,0,0,0-.7-.592l-.728-.274A12.073,12.073,0,0,0,25.388,66.18Z"/><path class="cls-7" d="M26.112,67.919c.267.474.882,1.456,1.5,1.655.184.059.349.1.51.135l.532-1.623A8.349,8.349,0,0,0,26.112,67.919Z"/><path class="cls-7" d="M28.713,67.894l-.062.192c.123.025.248.055.374.085l-.017-.1a.689.689,0,0,1,.12-.514L29,67.285l-.033-.008A3.64,3.64,0,0,0,28.713,67.894Z"/><path class="cls-7" d="M24.415,67.426c-.026.01-.053.017-.078.027l.049.007Z"/><path class="cls-7" d="M25.974,67.661s.051.1.138.258a8.349,8.349,0,0,1,2.539.167l.062-.192a3.64,3.64,0,0,1,.257-.617,7.935,7.935,0,0,0-4.555.149l-.029.034C24.837,67.523,25.341,67.57,25.974,67.661Z"/><path class="cls-7" d="M29.715,68.852l-.274-.6,0,.017c-.14-.04-.273-.061-.411-.095l.277,1.6C29.843,69.656,29.989,69.279,29.715,68.852Z"/><path class="cls-7" d="M29.441,68.249l-.313-.689a.689.689,0,0,0-.12.514l.017.1c.138.034.271.055.411.095Z"/><path class="cls-8" d="M20.315,74.807c-.174.092-.377.185-.577.278l1.034.577c-.034-.148-.073-.3-.1-.443C20.556,75.092,20.438,74.956,20.315,74.807Z"/><path class="cls-8" d="M23.327,76.859a6.592,6.592,0,0,1-1.541-.687c.008.024.019.047.027.072l1.567.875C23.362,77.034,23.343,76.956,23.327,76.859Z"/><path class="cls-8" d="M24.55,79.147c-.064-.087-.123-.163-.181-.237l.088,1.032a7.3,7.3,0,0,0,.868.56c.131-.3.254-.583.364-.83A1.206,1.206,0,0,1,24.55,79.147Z"/><path class="cls-8" d="M24.642,82.122c.119-.288.237-.57.346-.83-.151-.081-.294-.173-.439-.263Z"/><polygon class="cls-8" points="27.02 73.943 27.428 71.816 26.906 73.41 27.02 73.943"/><path class="cls-8" d="M26.233,77.264c.02.156.04.312.06.466l.074-.384C26.32,77.321,26.277,77.292,26.233,77.264Z"/><path class="cls-8" d="M25.578,81.564c-1.088,4.019-3.737,8.642-4.321,9.82l-.8,13.125c-.231.07-.463.131-.7.191-1.007-.917-1.984-1.884-2.931-2.871,2.75-7.06,5.328-13.648,7.131-18.059a.49.49,0,0,0,.121,0c.857-.081.7-.514.574-1.36l-.02-.292c.121-.282.242-.564.343-.826C25.175,81.392,25.377,81.483,25.578,81.564Z"/><path class="cls-8" d="M25.689,79.672c-.11.247-.233.526-.364.83.147.081.3.143.457.214.081-.371.139-.731.184-1.083A1.434,1.434,0,0,1,25.689,79.672Z"/><path class="cls-8" d="M24.042,73.271l.3.294c-.01-.061-.031-.117-.038-.179C24.21,73.35,24.132,73.307,24.042,73.271Z"/><path class="cls-8" d="M24.53,69.91l1.8,1.925a1.664,1.664,0,0,1,.408.788l.167.787.522-1.594.181-.941A8.288,8.288,0,0,0,24.53,69.91Z"/><path class="cls-8" d="M21.786,76.172a5.453,5.453,0,0,1-1.114-.953c.027.148.066.3.1.443l1.041.582C21.805,76.219,21.794,76.2,21.786,76.172Z"/><path class="cls-8" d="M24.457,79.942l.092,1.087c.145.09.288.182.439.263.12-.283.23-.542.337-.79A7.3,7.3,0,0,1,24.457,79.942Z"/><path class="cls-8" d="M25.325,80.5c-.107.248-.217.507-.337.79.189.1.388.188.585.276.078-.288.149-.572.209-.852C25.63,80.645,25.472,80.583,25.325,80.5Z"/><path class="cls-8" d="M26.894,77.511c.211-.285.436-.569.688-.85-.024-.173-.058-.352-.093-.515l-.469-2.2-.653,3.4A1.494,1.494,0,0,0,26.894,77.511Z"/><path class="cls-8" d="M10.384,70.4l-.216.059a1.651,1.651,0,0,0-1.046,2.234c.378-.559.832-1.14,1.319-1.765A1.9,1.9,0,0,1,10.384,70.4Z"/><path class="cls-8" d="M27.477,77.364c.147-.129.146-.407.105-.7-.252.281-.477.565-.688.85A.729.729,0,0,0,27.477,77.364Z"/><path class="cls-8" d="M24.53,69.91l-.983-1.051a4.749,4.749,0,0,0-.984.949A13.975,13.975,0,0,1,24.53,69.91Z"/><path class="cls-8" d="M23.269,68.562l-.313-.336a5.76,5.76,0,0,0-1.15,1.162c-.106.143-.183.306-.276.459l.16-.011C22.17,69.475,22.713,69.055,23.269,68.562Z"/><path class="cls-8" d="M23.547,68.859l-.278-.3c-.556.493-1.1.913-1.579,1.274.294-.017.585-.024.873-.028A4.749,4.749,0,0,1,23.547,68.859Z"/><path class="cls-8" d="M24.551,81.03l.09,1.088c-.211.513-.433,1.057-.675,1.652-1.8,4.411-4.381,11-7.131,18.059a60.436,60.436,0,0,1-6.305-7.745l.262-.645a7.072,7.072,0,0,0,.251-4.6c-.9-3.132-1.893-9.166-2.3-11.311-1.168-1.8-.7-3.224.373-4.835.383-.554.836-1.138,1.319-1.762a1.907,1.907,0,0,1-.05-.525l10.556-2.89.211-.051a1.492,1.492,0,0,1,1.491.433l.312.333A6.008,6.008,0,0,0,21.8,69.386c-.1.141-.181.312-.272.463-.04.061-.081.131-.121.192-.12.1-.241.191-.353.272a.621.621,0,0,0-.009.312,1.441,1.441,0,0,0-.8.04L10.268,74.02a2.822,2.822,0,0,0,2.387.241c2.337-.815,6.154-2.186,8.27-3.112a8.236,8.236,0,0,0-.252,4.069c-.121-.121-.232-.262-.363-.413-.171.091-.373.191-.574.282l1.038.574a8.656,8.656,0,0,0,1.178,2.821A8.243,8.243,0,0,0,24.551,81.03Z"/><path class="cls-8" d="M26.293,77.726l-.211,1.108c-.111.222-.242.494-.393.836a1.2,1.2,0,0,1-1.138-.524,2.328,2.328,0,0,0-.182-.231l-.03-.393a1.713,1.713,0,0,0-.886-1.36l-.01-.01-.061-.03a2.029,2.029,0,0,1-.05-.262,6.966,6.966,0,0,1-1.551-.685,7.7,7.7,0,0,1-.2-4.281A7.529,7.529,0,0,0,24.762,75,11.053,11.053,0,0,0,25.8,76.86a1.4,1.4,0,0,0,.434.4C26.253,77.424,26.273,77.575,26.293,77.726Z"/><path class="cls-8" d="M26.539,74.532a1.443,1.443,0,0,1-.737.537,1.694,1.694,0,0,1,.2.457s.112.851.227,1.738c.044.028.087.057.134.082l.653-3.4-.114-.533Z"/><path class="cls-8" d="M24.305,73.386c.007.062.028.118.038.179l1.221,1.2a1.526,1.526,0,0,1,.238.308,1.443,1.443,0,0,0,.737-.537l.367-1.122-.167-.787a1.664,1.664,0,0,0-.408-.788l-1.8-1.925a13.975,13.975,0,0,0-1.967-.1c-.023.03-.051.053-.073.084a5.459,5.459,0,0,0-.651,1.222l2.2,2.157C24.132,73.307,24.21,73.35,24.305,73.386Z"/><path class="cls-8" d="M21.411,70.046l-.355.266a.619.619,0,0,0-.013.316c.024.006.045.02.068.027A6.254,6.254,0,0,1,21.411,70.046Z"/><path class="cls-8" d="M21.53,69.847c-.04.066-.081.131-.119.2.09-.068.183-.139.279-.21Z"/><path class="cls-8" d="M21.74,71.017l.1.1a5.459,5.459,0,0,1,.651-1.222c.022-.031.05-.054.073-.084-.288,0-.579.011-.873.028-.1.071-.189.142-.279.21a6.254,6.254,0,0,0-.3.609A1.483,1.483,0,0,1,21.74,71.017Z"/><path class="cls-8" d="M10.886,70.356q-.226.294-.445.574a2.219,2.219,0,0,0,.24.574c.274.465,3.022.08,3.3-.083.588-.335,1.217-.66,1.857-.984A19.254,19.254,0,0,1,10.886,70.356Z"/><path class="cls-8" d="M26.081,78.833c.049-.1.1-.208.143-.284s.1-.159.143-.238c-.023-.181-.048-.378-.074-.581Z"/><path class="cls-8" d="M26.081,78.833l-.056.292c-.012.164-.038.338-.059.508.262-.065.468-.2.5-.405.005-.026-.04-.408-.1-.917-.047.079-.1.159-.143.238S26.13,78.733,26.081,78.833Z"/><path class="cls-8" d="M26.081,78.833c-.111.226-.239.5-.392.839a1.434,1.434,0,0,0,.277-.039c.021-.17.047-.344.059-.508Z"/><path class="cls-8" d="M24.761,75a5.922,5.922,0,0,1-.418-1.434l-.3-.294a6.277,6.277,0,0,1-2.393-1.652c-.028.091-.048.185-.071.279A7.589,7.589,0,0,0,24.761,75Z"/><path class="cls-8" d="M21.786,76.172a7.711,7.711,0,0,1-.208-4.274,5.56,5.56,0,0,1-.419-.851l0,0c-.069.031-.158.067-.231.1a8.23,8.23,0,0,0-.253,4.075A5.453,5.453,0,0,0,21.786,76.172Z"/><path class="cls-8" d="M21.159,71.047a5.56,5.56,0,0,0,.419.851c.023-.094.043-.188.071-.279C21.485,71.439,21.321,71.262,21.159,71.047Z"/><path class="cls-8" d="M12.652,74.263c2.336-.814,6.162-2.183,8.273-3.119.043-.13.094-.255.145-.381-.011-.047-.021-.093-.027-.135a1.423,1.423,0,0,0-.791.035l-9.986,3.353A2.842,2.842,0,0,0,12.652,74.263Z"/><path class="cls-8" d="M25.8,75.069A1.62,1.62,0,0,1,24.761,75a11.094,11.094,0,0,0,1.038,1.86,1.463,1.463,0,0,0,.434.405c-.115-.887-.227-1.738-.227-1.738A1.694,1.694,0,0,0,25.8,75.069Z"/><path class="cls-8" d="M25.8,75.069a1.526,1.526,0,0,0-.238-.308l-1.221-1.2A5.922,5.922,0,0,0,24.761,75,1.62,1.62,0,0,0,25.8,75.069Z"/><path class="cls-8" d="M21.043,70.628c.006.042.016.088.027.135.014-.036.026-.073.041-.108C21.088,70.648,21.067,70.634,21.043,70.628Z"/><path class="cls-8" d="M24.042,73.271l-2.2-2.157c-.067.167-.138.331-.19.5A6.277,6.277,0,0,0,24.042,73.271Z"/><path class="cls-8" d="M21.159,71.047a2.512,2.512,0,0,1-.089-.284c-.051.126-.1.251-.145.381.073-.033.162-.069.231-.1Z"/><path class="cls-8" d="M21.649,71.619c.052-.174.123-.338.19-.5l-.1-.1a1.483,1.483,0,0,0-.629-.362c-.015.035-.027.072-.041.108a2.512,2.512,0,0,0,.089.284C21.321,71.262,21.485,71.439,21.649,71.619Z"/><path class="cls-8" d="M23.38,77.119l-1.567-.875a8.033,8.033,0,0,0,.847,1.776,7.473,7.473,0,0,0,1.8,1.922l-.088-1.032A3.587,3.587,0,0,1,23.38,77.119Z"/><path class="cls-8" d="M24.666,82.407l-.024-.285c-.211.507-.437,1.058-.678,1.647.043,0,.088.007.128,0C24.947,83.689,24.782,83.257,24.666,82.407Z"/><path class="cls-8" d="M22.66,78.02a8.033,8.033,0,0,1-.847-1.776l-1.041-.582a8.881,8.881,0,0,0,1.176,2.821,8.272,8.272,0,0,0,2.6,2.546l-.092-1.087A7.473,7.473,0,0,1,22.66,78.02Z"/><path class="cls-8" d="M12.252,77.9c2.126-.883,5.424-1.86,7.486-2.815l-.142-.08a1.557,1.557,0,0,0-1.591.044L10.56,78.028A2.737,2.737,0,0,0,12.252,77.9Z"/><path class="cls-8" d="M23.453,77.159l-.008,0-.065-.036a3.587,3.587,0,0,0,.989,1.791l-.033-.388A1.728,1.728,0,0,0,23.453,77.159Z"/><path class="cls-8" d="M75.165,63.806c-.111-.02-.212-.03-.322-.05v-.192Z"/><path class="cls-8" d="M60.67,67.241v.01c-.121.05-.241.09-.372.141l-.091-.2.323-.392A.631.631,0,0,1,60.67,67.241Z"/><path class="cls-8" d="M73.412,73.536l-.262.514-.826-.272c.111-.172.212-.332.293-.484C72.878,73.375,73.15,73.455,73.412,73.536Z"/><path class="cls-8" d="M81.762,73.5c-.091.886-.232,1.853-.372,2.86l.05-2.729C81.6,73.617,81.722,73.586,81.762,73.5Z"/><path class="cls-8" d="M81.2,88.342,80.5,87.6a57.533,57.533,0,0,1,.887-11.241l.05-2.729c.161-.01.282-.041.322-.131a5.66,5.66,0,0,0-.252-4.311,4.906,4.906,0,0,0-.534-.9l-3.444-2.659-2.367-1.823c-.111-.02-.212-.03-.322-.05v-.192l-2.63-2.034a1.817,1.817,0,0,0-1.611-.3l-6.144,1.814-.584.171A1.734,1.734,0,0,0,63,63.8l-1.984,2.417-.483.585a.631.631,0,0,1,.14.443v.01c-.121.05-.241.09-.372.141l-.091-.2-.1.121a1.137,1.137,0,0,0,.373,1.783,2.5,2.5,0,0,0,1.531.1,2.689,2.689,0,0,0,.846-.433,22.276,22.276,0,0,0,2.488-2.156,9.317,9.317,0,0,1,1.541,1l-2.438,3.052.272.615-.433-.141-.01-.011a1.249,1.249,0,0,0-.171-.03,1.216,1.216,0,0,0-1.078.383A4.252,4.252,0,0,0,62.01,73.5a8.886,8.886,0,0,0,.423,4.3,1.421,1.421,0,0,0-.081.352A7.633,7.633,0,0,0,62.4,79.4c.312-.1.614-.222.916-.342.273-.443.464-.695,1-.494-.322.181-.655.343-1,.494-.09.141-.181.3-.3.473a1.941,1.941,0,0,0-.292.665,1.354,1.354,0,0,0,.111.856c.514-1.209.7-.393,3.394-1.1a1.749,1.749,0,0,1,.171.041c.172.05.484.131.857.231a.129.129,0,0,1,.01.06c0,2.206-.151,4-.252,5.54-.242,3.637-.141,5.792,3.183,8.37l4.482,10a21.458,21.458,0,0,0,6.255-.192A22.933,22.933,0,0,0,91.18,99.14ZM64.689,76.286c-.09.191-.191.393-.292.574-.04-.05-.06-.1-.1-.151a3.11,3.11,0,0,1-.251-.342c.07-.041.131-.091.191-.132-.02-.06-.02-.11-.04-.171.05.02.111.051.171.071.222-.161.413-.3.574-.423C64.861,75.913,64.78,76.1,64.689,76.286Zm1-2.851a.953.953,0,0,0-.16.061c0,.01-.011.01-.011.02a2.741,2.741,0,0,1-1-.373c-.05-.04-.091-.08-.141-.121q.5-.135,1-.3c.111-.04.232-.08.343-.121.01.262.03.524.06.8.02.121.03.232.051.342Zm1.9,3.788c-.342-.091-.675-.192-1-.283a.517.517,0,0,1-.08.071.364.364,0,0,0-.021-.1c.03.01.071.021.1.03.161-.141.312-.292.463-.443a1.517,1.517,0,0,0,.826.423C67.782,77.021,67.681,77.122,67.59,77.223Zm2.438-6.679v-.13a.55.55,0,0,0,.09.07Zm.242-3.031a3.3,3.3,0,0,1-.343-.121l-1.37-.463a3.9,3.9,0,0,0-.6-.333,7.48,7.48,0,0,0,1.5-.09,4.395,4.395,0,0,0,1.289-.454A17.579,17.579,0,0,0,72.626,68.2l.514.151c-.03.031-.07.061-.1.091a.67.67,0,0,0-.091.081c-.061-.06-.111-.121-.172-.172l-2.135-.715C70.5,67.593,70.38,67.553,70.27,67.513Zm2.88,6.537-.826-.272c.111-.172.212-.332.293-.484.261.081.533.161.8.242Z"/><path class="cls-8" d="M72.777,68.348l-2.135-.715c.514.152,1.2.343,1.984.564Z"/><path class="cls-8" d="M73.14,68.348c-.03.031-.07.061-.1.091l-.263-.091-.151-.151Z"/><path class="cls-13" d="M64.367,76.135a.649.649,0,0,0-.131.1c-.02-.06-.02-.11-.04-.171C64.246,76.084,64.307,76.115,64.367,76.135Z"/><polygon class="cls-8" points="64.452 70.658 64.452 70.658 64.105 71.093 64.105 71.093 64.452 70.658"/><path class="cls-8" d="M70.642,67.633c-.141-.04-.262-.08-.372-.12V67.5Z"/><path class="cls-8" d="M64.719,71.27l-.433-.141-.01-.011a1.249,1.249,0,0,0-.171-.03l.342-.433Z"/><path class="cls-8" d="M70.27,67.5v.01a3.3,3.3,0,0,1-.343-.121Z"/><path class="cls-8" d="M70.118,70.484l-.09.06v-.13A.55.55,0,0,0,70.118,70.484Z"/><path class="cls-8" d="M73.04,68.439a.67.67,0,0,0-.091.081c-.061-.06-.111-.121-.172-.172Z"/><path class="cls-8" d="M65.828,73.737l-.142-.3c.031-.01.061-.03.091-.04C65.8,73.516,65.807,73.627,65.828,73.737Z"/><path class="cls-8" d="M65.686,73.435a.953.953,0,0,0-.16.061c0,.01-.011.01-.011.02a2.741,2.741,0,0,1-1-.373c-.05-.04-.091-.08-.141-.121q.5-.135,1-.3Z"/><path class="cls-8" d="M65.777,73.4c-.03.01-.06.03-.091.04l-.312-.715c.111-.04.232-.08.343-.121C65.727,72.861,65.747,73.123,65.777,73.4Z"/><path class="cls-7" d="M66.945,81.523a2.319,2.319,0,0,1-3.213.444,2.471,2.471,0,0,1-.9-.917c.514-1.209.7-.393,3.394-1.1a1.749,1.749,0,0,1,.171.041C66.945,80.506,67.268,81.04,66.945,81.523Z"/><path class="cls-8" d="M62.836,81.05a1.922,1.922,0,0,1-.3-.8c.07-.02.131-.04.191-.06A1.354,1.354,0,0,0,62.836,81.05Z"/><path class="cls-8" d="M63.319,79.056c-.09.141-.181.3-.3.473a1.941,1.941,0,0,0-.292.665c-.06.02-.121.04-.191.06-.05-.261-.1-.553-.131-.856C62.715,79.3,63.017,79.176,63.319,79.056Z"/><path class="cls-8" d="M66.593,76.94a.517.517,0,0,1-.08.071.364.364,0,0,0-.021-.1C66.522,76.92,66.563,76.931,66.593,76.94Z"/><path class="cls-8" d="M64.689,76.286c-.09.191-.191.393-.292.574-.04-.05-.06-.1-.1-.151a1.32,1.32,0,0,0-.06-.474.649.649,0,0,1,.131-.1C64.468,76.185,64.578,76.235,64.689,76.286Z"/><path class="cls-8" d="M67.882,76.92c-.1.1-.2.2-.292.3-.342-.091-.675-.192-1-.283.161-.141.312-.292.463-.443A1.517,1.517,0,0,0,67.882,76.92Z"/><path class="cls-8" d="M64.941,75.712c-.08.2-.161.392-.252.574-.111-.051-.221-.1-.322-.151C64.589,75.974,64.78,75.832,64.941,75.712Z"/><path class="cls-8" d="M64.3,76.709a3.11,3.11,0,0,1-.251-.342c.07-.041.131-.091.191-.132A1.32,1.32,0,0,1,64.3,76.709Z"/><path class="cls-8" d="M64.317,78.562c-.322.181-.655.343-1,.494C63.592,78.613,63.783,78.361,64.317,78.562Z"/><path class="cls-5" d="M91.176,99.142l7.251,7.846.115-.091-7.366-7.755Z"/><path class="cls-5" d="M98.6,107.173l-.17-.185c-.078.063-.158.122-.235.185Z"/><path class="cls-5" d="M80.886,107.173v0h17.3c.081-.06.161-.121.232-.181l-.473-.514L91.18,99.14a22.933,22.933,0,0,1-10.244,4.865,21.458,21.458,0,0,1-6.255.192l4.946,13.1c.362-.121.735-.242,1.1-.363v0a60.336,60.336,0,0,0,17.467-9.76Z"/><path class="cls-5" d="M20.471,105.314c-.02-.009-.03-.03-.05-.04l.04-.765Z"/><path class="cls-5" d="M19.767,104.7c.212.194.436.376.651.567l.046-.758C20.23,104.584,20,104.637,19.767,104.7Z"/></g></svg>