<svg id="Ilustraciones" xmlns="http://www.w3.org/2000/svg" xmlns:xlink="http://www.w3.org/1999/xlink" viewBox="0 0 120 120"><defs><style>.cls-1{fill:none;}.cls-2{clip-path:url(#clip-path);}.cls-3{fill:#7fc3de;}.cls-4{fill:#edfbff;}.cls-5{fill:#0eb0b4;}.cls-6{fill:#f2bb93;}.cls-7{fill:#f4c5ab;}.cls-8{fill:#1c1a21;}.cls-9{fill:#ec9a5e;}.cls-10{fill:#fff;}.cls-11{fill:#ffbd85;}.cls-12{fill:#bfe1ef;}</style><clipPath id="clip-path"><circle id="SVGID" class="cls-1" cx="60" cy="60" r="60"/></clipPath></defs><g id="_3" data-name="3"><g class="cls-2"><circle class="cls-3" cx="60" cy="60" r="60"/><path class="cls-1" d="M47.479,60.8a16.425,16.425,0,0,1-.729-1.684c-.01-.027-.023-.053-.033-.08-.2-.55-.371-1.111-.52-1.68-.013-.053-.029-.1-.043-.156-.006-.023-.013-.046-.019-.069l.005,0a31.111,31.111,0,0,1-.788-6.546l-.008.012c0-.157,0-.324-.005-.482q-.024-1-.023-2.038c0-.208,0-.416,0-.626,0-.042,0-.081,0-.123l-4.728.469-1.889.784.035.136,4.141-.379c.826.013.873,1,1.059,1.809.212.914-.3,1.258-1.947,2.2l-2.257.922h0s.057.234.218.171c4.392-1.715,3.24,2.434,2.17,2.925A39.72,39.72,0,0,1,38.486,58.2a14.875,14.875,0,0,0-4,2.136,21.945,21.945,0,0,1-8.538,4.349l-5.341,6.261,4.863-2.128a36.048,36.048,0,0,1,12-3c4.967-.352,12.275-.861,13.672-1.271.209-.075.427-.146.644-.216Z"/><path class="cls-1" d="M11.075,60.6c4.123-2.52,8.948-5.7,11.268-8.088,2-2.058,4.813-6.273,6.5-8.445a10.883,10.883,0,0,0,.9-1.4,5.25,5.25,0,0,1,3.338-2.111h.009a14.076,14.076,0,0,1,1.687-.337l5.5-1.1a3.789,3.789,0,0,1,1.815.03l3.079.813.08-7.533c-.05-.578-.079-1.128-.1-1.663l0,.064a10.725,10.725,0,0,1-1.35-1.3,12.233,12.233,0,0,1-.813-1.5,6.25,6.25,0,0,1-.646-3,7.4,7.4,0,0,1,.274-1.479,25.1,25.1,0,0,1-.469-5.075,8.815,8.815,0,0,1,1.362-5.1A7.233,7.233,0,0,1,48,10.491a7.362,7.362,0,0,1,3.652.31,2.1,2.1,0,0,1-.31-.636,2.575,2.575,0,0,1,.764-2.656,8.717,8.717,0,0,1,3.158-1.522,12.541,12.541,0,0,1,3.792-.45A20.157,20.157,0,0,1,70.132,9.845a23.406,23.406,0,0,1,4.245,3.791c.808.985,2.341,3.573,2.486,3.733,0,0,.513.178.736.246,1.637.5,4.283,2.384,4.694,4.134.422,1.8,2.739,19.344-4.179,25.923A16.1,16.1,0,0,1,80.8,54.946c-.009,1.752-.431,2.848-2.9,3.042l-.985.106,0,5.135c1.187.171,2.3.368,3.322.586l0,0c14.96,2.582,26.815,8.018,29.553,14.032,1.223,2.688,2.409,5.724,3.526,9.019A60,60,0,1,0-.332,60a60.618,60.618,0,0,0,.41,6.923Z"/><path class="cls-1" d="M76.919,56.94c.7-.128,1.316-.254,1.752-.348a1.126,1.126,0,0,0,.765-.9c.474-1.569-.892-5.473-2.236-7.26-.092.067-.178.141-.273.2Z"/><polygon class="cls-1" points="37.49 43.992 37.527 44.132 38.783 43.67 37.49 43.992"/><path class="cls-4" d="M58.725,93.741a5.856,5.856,0,0,1-1.658-1.022l2.315,11.009,2.844-5.443-1.332-2.628A4.1,4.1,0,0,0,58.725,93.741Z"/><path class="cls-4" d="M75.007,67.957a25.752,25.752,0,0,1-6.568,3.8,75.382,75.382,0,0,0,1.478,11.806l10.317-19.75c-1.021-.218-2.135-.415-3.322-.586v.828A4.979,4.979,0,0,1,75.007,67.957Z"/><path class="cls-4" d="M53.96,68.662l-.005-.037a1.864,1.864,0,0,1,.085-.734c-.175-.333-.342-.677-.494-1.047a2.818,2.818,0,0,1-.214-1.076V65.6l-1.549-1.271c-.217.07-.435.141-.644.216l1.071,5.084a2.111,2.111,0,0,1,1.52-.53C53.914,69.115,53.983,68.828,53.96,68.662Z"/><path class="cls-5" d="M80.236,63.813l0,0L69.917,83.565q.454,2.145,1.037,4.159l7.023,9.185L91.71,110.718a60.249,60.249,0,0,0,21.605-23.854c-1.117-3.3-2.3-6.331-3.526-9.019C107.051,71.831,95.2,66.4,80.236,63.813Z"/><path class="cls-5" d="M66.569,106.848l-4.343-8.563-2.844,5.443L57.067,92.719c-3.3-2.808-5.075-9.459-8.511-15.4a3.259,3.259,0,0,1-.383-2.387,2.3,2.3,0,0,1,2.692-1.25c.27.088.349-.359.27-.572a10.474,10.474,0,0,1-.025-1.278,3.033,3.033,0,0,1,1.1-2.2l-1.071-5.084c-1.4.41-8.705.919-13.672,1.271a36.048,36.048,0,0,0-12,3l-4.863,2.128-1.541,1.808L6.856,88.494A60.058,60.058,0,0,0,71.51,118.826Z"/><path class="cls-6" d="M76.92,45.89a1.837,1.837,0,0,1-1.115-.106,1.652,1.652,0,0,1-.43-.3v.207a5.2,5.2,0,0,1,1.546.76Z"/><path class="cls-6" d="M73.676,54.877,71.509,56.51c-.424.332-.879.634-1.334.936l1.064,1.239.989-.667a3.914,3.914,0,0,1,1.781-.649c1.02-.107,2.035-.27,2.91-.429l.008-8.3,0,0V48.1a2.776,2.776,0,0,0-.431-.4,3.846,3.846,0,0,0-1.12-.658l-.005,4.448A4.947,4.947,0,0,1,73.676,54.877Z"/><path class="cls-6" d="M72.553,59.409l-.423.315.456.532a.824.824,0,0,1-.259,1.275L65.838,64.87a12.33,12.33,0,0,1,.611,2.62c0,.055.014.107.018.162.389.346.775.707,1.156,1.1a2.755,2.755,0,0,1,.756,1.8c.015.405.04.8.06,1.2a25.752,25.752,0,0,0,6.568-3.8,4.979,4.979,0,0,0,1.9-3.9v-.828l0-5.135-1.376.148A6.1,6.1,0,0,0,72.553,59.409Z"/><path class="cls-6" d="M53.332,65.6v.165a2.818,2.818,0,0,0,.214,1.076c.152.37.319.714.494,1.047a2,2,0,0,1,.393-.757c.134-.147.243-.264.349-.375-.093-.067-.191-.124-.28-.2Z"/><path class="cls-7" d="M47.515,40.662a24.892,24.892,0,0,1,1.9,1.657l1.765-.728a3.539,3.539,0,0,1,2.159-.168l14.633,3.494a1.515,1.515,0,0,1,.869.569,1.5,1.5,0,0,1,.181.368A17.674,17.674,0,0,1,74.48,45.5a5.687,5.687,0,0,1,.895.194v-.207c-.754-.687-1-2.083-.686-3.672l-1.373.911c1.99-11.885-2.341-10.292-2.336-14.461.012-10.705-16.274-4.6-16.274-4.6s-8.034-4.049-9.294,3.606c-.159.966-.246,3.117-.26,3.5.02.535.049,1.085.1,1.663l-.08,7.533,1.988.525A1,1,0,0,1,47.515,40.662Zm17-1.28-5.216,0a3.053,3.053,0,0,1-.109-.811v-.025a2.145,2.145,0,0,1,1.9-2.092c.006-.008.011-.018.018-.026H62.78a.35.35,0,0,1,.023.035,2.146,2.146,0,0,1,1.824,2.088v.025A3.035,3.035,0,0,1,64.515,39.382Zm-6.409-6.153,7.072.007a.862.862,0,1,1,0,1.723L58.1,34.951a.861.861,0,1,1,0-1.722ZM45.54,34.606v-.835a.411.411,0,0,1,.411-.41l4.948.006a.408.408,0,0,1,.409.41v.835a.409.409,0,0,1-.41.41l-4.949,0A.411.411,0,0,1,45.54,34.606Zm1.006,3.871v-.025a2.067,2.067,0,0,1,1.8-2.014c.008-.009.015-.02.023-.029h1.354c.022.022.038.051.058.074a2.067,2.067,0,0,1,1.564,1.973v.025a2.947,2.947,0,0,1-.1.752l-4.6-.005A2.991,2.991,0,0,1,46.546,38.477Z"/><path class="cls-7" d="M67.9,50.139a5.057,5.057,0,0,0-.249.67c-.022.074-.036.15-.055.226-.039.152-.074.305-.1.459-.015.091-.023.181-.032.271-.014.142-.026.283-.029.425,0,.094,0,.189,0,.283a5.254,5.254,0,0,0,1.269,3.266l1.463,1.707c.455-.3.91-.6,1.334-.936l2.167-1.633a4.947,4.947,0,0,0,1.692-3.389l.005-4.448c-1.821-.718-4.286-.327-6.344.164a4.429,4.429,0,0,1-.342,1.211Z"/><path class="cls-8" d="M76.927,48.639c.095-.063.181-.137.273-.2q-.14-.186-.276-.337v.544Z"/><path class="cls-8" d="M54.706,23.663s16.286-6.1,16.274,4.6c-.005,4.169,4.326,2.576,2.336,14.461l1.373-.911a8.738,8.738,0,0,1,.622-1.907c1.18-2.583,3.314-4.139,4.767-3.475s1.673,3.3.493,5.877c-.9,1.978-2.363,3.344-3.651,3.582v.562a4.464,4.464,0,0,1,1.013.952c.062.082.12.181.18.268,6.918-6.579,4.6-24.122,4.179-25.923-.411-1.75-3.057-3.63-4.694-4.134-.223-.068-.736-.246-.736-.246-.145-.16-1.678-2.748-2.486-3.733a23.406,23.406,0,0,0-4.245-3.791A20.157,20.157,0,0,0,59.055,5.537a12.541,12.541,0,0,0-3.792.45,8.717,8.717,0,0,0-3.158,1.522,2.575,2.575,0,0,0-.764,2.656,2.1,2.1,0,0,0,.31.636A7.362,7.362,0,0,0,48,10.491a7.233,7.233,0,0,0-4.492,2.885,8.815,8.815,0,0,0-1.362,5.1,25.1,25.1,0,0,0,.469,5.075,7.4,7.4,0,0,0-.274,1.479,6.25,6.25,0,0,0,.646,3,12.233,12.233,0,0,0,.813,1.5,10.725,10.725,0,0,0,1.35,1.3l0-.064c.014-.378.1-2.529.26-3.5C46.672,19.614,54.706,23.663,54.706,23.663Z"/><path class="cls-7" d="M76.92,45.89c1.288-.238,2.748-1.6,3.651-3.582,1.18-2.582.959-5.214-.493-5.877s-3.587.892-4.767,3.475a8.738,8.738,0,0,0-.622,1.907c-.315,1.589-.068,2.985.686,3.672a1.652,1.652,0,0,0,.43.3A1.837,1.837,0,0,0,76.92,45.89Zm2.935-7.584a4.482,4.482,0,0,1-.014,1.356,6.688,6.688,0,0,1-2.436,4.145,1.147,1.147,0,0,1-.131.092c-.852.507-1.766-.591-1.013-1.213.793-.656.572-1.056.191-1.431-.347-.341-.12-.859.21-1.213C76.662,40.042,79.271,36.068,79.855,38.306Z"/><path class="cls-9" d="M76.452,41.255c.381.375.6.775-.191,1.431-.753.622.161,1.72,1.013,1.213a1.147,1.147,0,0,0,.131-.092,6.688,6.688,0,0,0,2.436-4.145,4.482,4.482,0,0,0,.014-1.356c-.584-2.238-3.193,1.736-3.193,1.736C76.332,40.4,76.105,40.914,76.452,41.255Z"/><path class="cls-10" d="M62.8,36.459a1.959,1.959,0,0,1,.4,1.225c0,.93-.568,1.684-1.266,1.683a1.061,1.061,0,0,1-.725-.31.416.416,0,0,1-.059.013.592.592,0,0,1-.574-.607.617.617,0,0,1,.136-.379,2.292,2.292,0,0,1-.04-.4,1.966,1.966,0,0,1,.411-1.233,2.145,2.145,0,0,0-1.9,2.092v.025a3.053,3.053,0,0,0,.109.811l5.216,0a3.035,3.035,0,0,0,.112-.81v-.025A2.146,2.146,0,0,0,62.8,36.459Z"/><path class="cls-8" d="M60.718,38.084a.554.554,0,0,1,.439-.227.6.6,0,0,1,.058,1.2,1.061,1.061,0,0,0,.725.31c.7,0,1.265-.753,1.266-1.683a1.959,1.959,0,0,0-.4-1.225.35.35,0,0,0-.023-.035H61.107c-.007.008-.012.018-.018.026a1.966,1.966,0,0,0-.411,1.233A2.292,2.292,0,0,0,60.718,38.084Z"/><path class="cls-10" d="M61.731,38.464a.591.591,0,0,0-.574-.607.554.554,0,0,0-.439.227.617.617,0,0,0-.136.379.592.592,0,0,0,.574.607.416.416,0,0,0,.059-.013A.587.587,0,0,0,61.731,38.464Z"/><path class="cls-10" d="M51.341,38.482v-.025a2.067,2.067,0,0,0-1.564-1.973,1.831,1.831,0,0,1,.4,1.175c0,.863-.508,1.561-1.133,1.56A.906.906,0,0,1,48.469,39a.471.471,0,0,1-.054.012.538.538,0,0,1-.507-.563.6.6,0,0,1,.07-.269,2.1,2.1,0,0,1-.069-.523,1.821,1.821,0,0,1,.433-1.219,2.067,2.067,0,0,0-1.8,2.014v.025a2.991,2.991,0,0,0,.1.752l4.6.005A2.947,2.947,0,0,0,51.341,38.482Z"/><path class="cls-8" d="M47.978,38.18a.5.5,0,0,1,.438-.293A.563.563,0,0,1,48.469,39a.906.906,0,0,0,.571.219c.625,0,1.132-.7,1.133-1.56a1.831,1.831,0,0,0-.4-1.175c-.02-.023-.036-.052-.058-.074H48.365c-.008.009-.015.02-.023.029a1.821,1.821,0,0,0-.433,1.219A2.1,2.1,0,0,0,47.978,38.18Z"/><path class="cls-10" d="M48.922,38.45a.536.536,0,0,0-.506-.563.5.5,0,0,0-.438.293.6.6,0,0,0-.07.269.538.538,0,0,0,.507.563A.471.471,0,0,0,48.469,39,.539.539,0,0,0,48.922,38.45Z"/><path class="cls-8" d="M58.1,34.951l7.072.008a.862.862,0,1,0,0-1.723l-7.072-.007a.861.861,0,1,0,0,1.722Z"/><path class="cls-8" d="M48.006,31.307h.836a.41.41,0,0,1,.41.41v4.948a.411.411,0,0,1-.411.411h-.835a.41.41,0,0,1-.41-.41V31.717A.41.41,0,0,1,48.006,31.307Z" transform="translate(14.176 82.576) rotate(-89.933)"/><path class="cls-11" d="M66.467,67.652c0-.055-.014-.107-.018-.162a12.33,12.33,0,0,0-.611-2.62l-1.778.915A23.171,23.171,0,0,1,66.467,67.652Z"/><path class="cls-10" d="M76.921,46.452a5.2,5.2,0,0,0-1.546-.76,5.687,5.687,0,0,0-.895-.194,17.674,17.674,0,0,0-5.459.356,1.417,1.417,0,0,1,.094.612h0l-.046.512c-.007.076-.029.15-.04.226,2.058-.491,4.523-.882,6.344-.164a3.846,3.846,0,0,1,1.12.658,2.776,2.776,0,0,1,.431.4q.136.151.276.337c1.344,1.787,2.71,5.691,2.236,7.26a1.126,1.126,0,0,1-.765.9c-.436.094-1.05.22-1.752.348-.875.159-1.89.322-2.91.429a3.914,3.914,0,0,0-1.781.649l-.989.667.891,1.039.423-.315a6.1,6.1,0,0,1,2.988-1.167l1.376-.148.985-.106c2.466-.194,2.888-1.29,2.9-3.042a16.1,16.1,0,0,0-2.685-7.274c-.06-.087-.118-.186-.18-.268A4.464,4.464,0,0,0,76.921,46.452Z"/><path class="cls-10" d="M49.306,58.23a11.54,11.54,0,0,0,5.043.254c.886-.176,1.742-.474,2.617-.694a20.051,20.051,0,0,1,2.573-.488,34.457,34.457,0,0,0,4.834-.943c1.32-.351,2.624-.753,3.923-1.174a5.2,5.2,0,0,0,.416.554,5.254,5.254,0,0,1-1.269-3.266c0,.067,0,.135,0,.2q-.73-.21-1.46-.424c-1.739-.515-3.47-1.06-5.177-1.675s-3.371-1.343-5.086-1.942a25.841,25.841,0,0,0-2.511-.759,1.1,1.1,0,0,1-.071.984c-.529.811-2.966-.058-4.7-.812a6.381,6.381,0,0,0-1.093.539,6.041,6.041,0,0,0-.648.46,6.1,6.1,0,0,0-1.286,1.445c-.021.031-.04.061-.06.093l0,0a31.111,31.111,0,0,0,.788,6.546c.262.11.522.226.785.334A18.312,18.312,0,0,0,49.306,58.23Z"/><path class="cls-10" d="M46.75,59.117c-.01-.027-.023-.053-.033-.08C46.727,59.064,46.74,59.09,46.75,59.117Z"/><path class="cls-10" d="M45.339,50.119c-.016-.67-.024-1.348-.023-2.038Q45.314,49.116,45.339,50.119Z"/><path class="cls-10" d="M45.316,47.332c0,.042,0,.081,0,.123,0-.04,0-.083,0-.123Z"/><path class="cls-10" d="M46.2,57.357c-.014-.053-.029-.1-.043-.156C46.168,57.253,46.184,57.3,46.2,57.357Z"/><path class="cls-10" d="M52.942,65.283a4.521,4.521,0,0,0,.6.135c-.2-.051-.411-.08-.61-.141L47.479,60.8l4.3,3.531L53.332,65.6l1.17.959Z"/><path class="cls-10" d="M67.44,52.19c0-.142.015-.283.029-.425C67.455,51.907,67.443,52.048,67.44,52.19Z"/><path class="cls-10" d="M67.5,51.494c.024-.154.059-.307.1-.459C67.56,51.187,67.525,51.34,67.5,51.494Z"/><path class="cls-10" d="M67.654,50.809a5.057,5.057,0,0,1,.249-.67A5.057,5.057,0,0,0,67.654,50.809Z"/><polygon class="cls-10" points="68.712 55.739 70.563 57.898 70.563 57.898 72.586 60.256 72.13 59.724 71.239 58.685 70.175 57.446 68.712 55.739"/><path class="cls-10" d="M69.115,46.466h0a1.417,1.417,0,0,0-.094-.612,1.5,1.5,0,0,0-.181-.368A1.43,1.43,0,0,1,69.115,46.466Z"/><path class="cls-10" d="M45.415,50.491A6.1,6.1,0,0,1,46.7,49.046a6.041,6.041,0,0,1,.648-.46,6.381,6.381,0,0,1,1.093-.539c-1.018-.443-1.793-.847-1.793-.847l-1.332.132c0,.04,0,.083,0,.123,0,.21,0,.418,0,.626,0,.69.007,1.368.023,2.038,0,.158,0,.325.005.482l.008-.012,0,0C45.375,50.552,45.394,50.522,45.415,50.491Z"/><path class="cls-10" d="M53.211,47.875a25.841,25.841,0,0,1,2.511.759c1.715.6,3.379,1.327,5.086,1.942s3.438,1.16,5.177,1.675q.729.215,1.46.424c0-.067,0-.135,0-.2,0-.094,0-.189,0-.283,0-.142.015-.283.029-.425.009-.09.017-.18.032-.271.024-.154.059-.307.1-.459.019-.076.033-.152.055-.226a5.057,5.057,0,0,1,.249-.67l.784-1.724a4.429,4.429,0,0,0,.342-1.211c.011-.076.033-.15.04-.226l.046-.512h0a1.43,1.43,0,0,0-.275-.98,1.515,1.515,0,0,0-.869-.569L53.338,41.423a3.539,3.539,0,0,0-2.159.168l-1.765.728a13.853,13.853,0,0,1,2.35,2.864.7.7,0,0,1-.534,1l1.366.869A1.656,1.656,0,0,1,53.211,47.875Z"/><path class="cls-3" d="M53.544,65.418a4.521,4.521,0,0,1-.6-.135l1.56,1.279c.089.073.187.13.28.2.182-.19.348-.357.582-.589a1.835,1.835,0,0,1,1.57-.429l.035.009c.164.043.393-.06.406-.217,0-.036.017-.067.021-.1A8.536,8.536,0,0,1,53.544,65.418Z"/><path class="cls-3" d="M70.563,57.9c-1.72.483-5.262,3.98-9.358,6.107,1,.592,1.95,1.166,2.855,1.78l1.778-.915,6.489-3.339a.824.824,0,0,0,.259-1.275Z"/><path class="cls-12" d="M70.563,57.9h0l-1.851-2.159a5.2,5.2,0,0,1-.416-.554c-1.3.421-2.6.823-3.923,1.174a34.457,34.457,0,0,1-4.834.943,20.051,20.051,0,0,0-2.573.488c-.875.22-1.731.518-2.617.694a11.54,11.54,0,0,1-5.043-.254,18.312,18.312,0,0,1-2.381-.761c-.263-.108-.523-.224-.785-.334l-.005,0c.006.023.013.046.019.069.014.052.029.1.043.156.149.569.319,1.13.52,1.68.01.027.023.053.033.08a16.425,16.425,0,0,0,.729,1.684l5.455,4.476c.2.061.407.09.61.141a8.536,8.536,0,0,0,3.852.013c.2-1.554,1.891-2.554,3.045-1.876l.764.45C65.3,61.878,68.843,58.381,70.563,57.9Z"/><path class="cls-7" d="M68.379,70.559a2.755,2.755,0,0,0-.756-1.8c-.381-.4-.767-.758-1.156-1.1a23.171,23.171,0,0,0-2.407-1.867c-.905-.614-1.852-1.188-2.855-1.78l-.764-.45c-1.154-.678-2.847.322-3.045,1.876,0,.035-.018.066-.021.1-.013.157-.242.26-.406.217l-.035-.009a1.835,1.835,0,0,0-1.57.429c-.234.232-.4.4-.582.589-.106.111-.215.228-.349.375a2,2,0,0,0-.393.757,1.864,1.864,0,0,0-.085.734l.005.037c.023.166-.046.453-.23.44a2.111,2.111,0,0,0-1.52.53,3.033,3.033,0,0,0-1.1,2.2,10.474,10.474,0,0,0,.025,1.278c.079.213,0,.66-.27.572a2.3,2.3,0,0,0-2.692,1.25,3.259,3.259,0,0,0,.383,2.387c3.436,5.94,5.21,12.591,8.511,15.4a5.856,5.856,0,0,0,1.658,1.022,4.1,4.1,0,0,1,2.169,1.916l1.332,2.628,4.343,8.563-.5-1.215c5.1-.624,10.066-3.393,11.323-9.315l.587.591-7.023-9.185q-.585-2.012-1.037-4.159a75.382,75.382,0,0,1-1.478-11.806C68.419,71.359,68.394,70.964,68.379,70.559Z"/><path class="cls-4" d="M77.977,96.909l-.587-.591c-1.257,5.922-6.225,8.691-11.323,9.315l.5,1.215,4.941,11.978a59.62,59.62,0,0,0,20.2-8.108Z"/><path class="cls-7" d="M33.087,40.551l1.687-.337A14.076,14.076,0,0,0,33.087,40.551Z"/><path class="cls-7" d="M19.064,72.754h0l1.541-1.808,5.341-6.261a21.945,21.945,0,0,0,8.538-4.349,14.875,14.875,0,0,1,4-2.136,39.72,39.72,0,0,0,3.632-1.827c1.07-.491,2.222-4.64-2.17-2.925-.161.063-.218-.171-.218-.171h0l2.257-.922c1.647-.947,2.159-1.291,1.947-2.2-.186-.805-.233-1.8-1.059-1.809l-4.141.379-.035-.136-5.731,2.379q-.176-.673-.31-1.356c-.154-.8-.276-1.606-.391-2.411-.052-.362-.085-.726-.1-1.091l5.364-1.974-.037-.14-2.584.644c-.006-.068-.012-.138-.017-.207a25.8,25.8,0,0,1,.018-3.325c.016-.264-1.856-.29-1.829-.551a5.25,5.25,0,0,0-3.338,2.111,10.883,10.883,0,0,1-.9,1.4c-1.684,2.172-4.5,6.387-6.5,8.445C20.023,54.9,15.2,58.079,11.075,60.6l.017-.01C11.508,66.241,14.476,70.075,19.064,72.754Z"/><path class="cls-7" d="M45.316,47.332h0l1.332-.132s.775.4,1.793.847c1.732.754,4.169,1.623,4.7.812a1.1,1.1,0,0,0,.071-.984,1.656,1.656,0,0,0-.615-.821l-1.366-.869a.684.684,0,0,1-.7-.165h0a6.057,6.057,0,0,0-3.4-1.94l-5.864-1.029-2.483.619-1.256.462-5.364,1.974c.019.365.052.729.1,1.091.115.8.237,1.612.391,2.411q.133.683.31,1.356L38.7,48.585l1.889-.784Z"/><path class="cls-7" d="M34.907,41.1a25.8,25.8,0,0,0-.018,3.325c0,.069.011.139.017.207l2.584-.644,1.293-.322,2.483-.619L47.13,44.08a6.057,6.057,0,0,1,3.4,1.94h0a.684.684,0,0,0,.7.165.7.7,0,0,0,.534-1,13.853,13.853,0,0,0-2.35-2.864,24.892,24.892,0,0,0-1.9-1.657,1,1,0,0,0-.356-.177l-1.988-.525-3.079-.813a3.789,3.789,0,0,0-1.815-.03l-5.5,1.1-1.687.337h-.009C33.051,40.814,34.923,40.84,34.907,41.1Z"/><path class="cls-4" d="M19.064,72.754c-4.588-2.679-7.556-6.513-7.972-12.165l-.017.01-11,6.324A59.59,59.59,0,0,0,6.856,88.494L19.064,72.755Z"/></g></g></svg>