<svg id="Ilustraciones" xmlns="http://www.w3.org/2000/svg" xmlns:xlink="http://www.w3.org/1999/xlink" viewBox="0 0 120 120"><defs><style>.cls-1{fill:none;}.cls-2{clip-path:url(#clip-path);}.cls-3{fill:#7fc3de;}.cls-4{fill:#edfbff;}.cls-5{fill:#009ba1;}.cls-6{fill:#f2bb93;}.cls-7{fill:#f4c5ab;}.cls-8{fill:#1c1a21;}.cls-9{fill:#fff;}.cls-10{fill:#ec9a5e;}.cls-11{fill:#cde2f0;}.cls-12{fill:#d8f1ff;}.cls-13{fill:#e11e19;}</style><clipPath id="clip-path"><circle id="SVGID" class="cls-1" cx="60" cy="60" r="60"/></clipPath></defs><g id="_5" data-name="5"><g class="cls-2"><circle class="cls-3" cx="60" cy="60" r="60"/><path class="cls-1" d="M18.925,77.257c1.372-2.179,4.3-4.093,7.763-5.72-.433-1.041-.9-2.434-1.151-2.942a13.194,13.194,0,0,0-1.064-1.286c-.416-.58-1.079-1.387-.91-2.163.232-1.063,2.154-.332,2.646-.1a9.125,9.125,0,0,1,3.414,2.7c.47.636.536,1.326,1.03,1.981.025.033.051.079.075.116.513-.194,1.029-.38,1.545-.562.307-1,.7-2.024.955-2.919.529-1.842,1.345-3.672,1.7-5.551.2-1.048.423-1.892.539-2.949a35.078,35.078,0,0,1,.739-3.563c.876-4.744,2.775-3.3,2.918-2.267.253-1.918.986-2.889,1.683-3.033C40.648,48,40.5,47,40.353,46c-.086-.583-.2-2.216-.2-2.278a.959.959,0,0,1,.643-.849l.027-.006c.006-.094,0-.187.012-.281l.092-9.706c-.051-.583-.081-1.136-.1-1.675l0,.064a10.917,10.917,0,0,1-1.361-1.309,12.34,12.34,0,0,1-.821-1.507,6.318,6.318,0,0,1-.654-3.025,7.428,7.428,0,0,1,.274-1.489,25.4,25.4,0,0,1-.478-5.112A8.881,8.881,0,0,1,39.148,13.7a7.277,7.277,0,0,1,4.52-2.911,7.41,7.41,0,0,1,3.679.309,2.122,2.122,0,0,1-.312-.641A2.591,2.591,0,0,1,47.8,7.776,8.754,8.754,0,0,1,50.98,6.239a12.63,12.63,0,0,1,3.82-.457,20.3,20.3,0,0,1,11.162,4.327,23.534,23.534,0,0,1,4.28,3.814c.815.991,2.363,3.6,2.509,3.757,0,0,.516.179.741.248,1.649.506,4.318,2.4,4.733,4.159.45,1.91,3.046,21.43-5.375,27.092v14.7c1.2.17,2.318.368,3.348.587v0c15.073,2.584,27.021,8.047,29.785,14.1a108.912,108.912,0,0,1,5.146,14.076A60.431,60.431,0,1,0-.435,60.435a60.124,60.124,0,0,0,9.7,32.811Z"/><path class="cls-1" d="M48.751,63.568l0,.047.005-.041Z"/><path class="cls-4" d="M73.713,65.129c.062.792-.7,1.5-1.194,2.02-.175.185-.467.409-.736.636a5.075,5.075,0,0,1-.557.6,33.341,33.341,0,0,1-2.164,3.658,4.3,4.3,0,0,0-1.336,2.8,4.187,4.187,0,0,1-.612,2.1,33.033,33.033,0,0,1-3.36,2.985,9.784,9.784,0,0,0-1.665,1.447c-.3.4,1.021,3.095,2.038,6.259L76.2,64.462c-1.03-.219-2.151-.417-3.348-.587v.579C73.3,64.5,73.677,64.677,73.713,65.129Z"/><path class="cls-5" d="M32.881,82.811a9.708,9.708,0,0,0-1.453-1.659A33.17,33.17,0,0,1,28.5,77.74a4.194,4.194,0,0,1-.322-2.165,4.3,4.3,0,0,0-.946-2.95,5.537,5.537,0,0,1-.547-1.088c-3.462,1.627-6.391,3.541-7.763,5.72L9.26,93.246a60.7,60.7,0,0,0,8.43,10.326L30.38,88.164C32.758,85.207,33.106,83.206,32.881,82.811Z"/><path class="cls-5" d="M76.2,64.46v0L64.127,87.629c.207.644.4,1.3.567,1.973h0l15.423,27.824A60.593,60.593,0,0,0,111.13,92.638a108.912,108.912,0,0,0-5.146-14.076C103.22,72.507,91.272,67.044,76.2,64.46Z"/><path class="cls-5" d="M31.827,71.328a10.143,10.143,0,0,1,.446-2.052c-.516.182-1.032.368-1.545.562A5.579,5.579,0,0,0,31.827,71.328Z"/><path class="cls-5" d="M49.935,91.388c-.189-1.076-1.129-10.955-1.34-11.977-.1-.5-.216-.991-.328-1.486-.208.574-.445,1.148-.628,1.69-.349,1.035-.758,2.051-1.122,3.081-.347.984-4.243,10.537-4.552,11.585h0l-6.739,21.274a60.056,60.056,0,0,0,19.85,5.1Z"/><path class="cls-6" d="M72.839,46.315A1.975,1.975,0,0,1,71.39,46.3c-.04-.018-.07-.053-.108-.074v2.585a21.051,21.051,0,0,0,1.558-1.867Z"/><path class="cls-6" d="M72.845,48.716c-.51.635-1.044,1.224-1.563,1.757V52.05a4.981,4.981,0,0,1-1.7,3.416l-.811.612c-.744,1.763-2.849,4.022-5.349,5.981.192.991.409,1.98.551,2.961a29.174,29.174,0,0,1,.715,5.116c.515-.243.987-1.036,1.38-1.432.578-.583.738-1.258,1.29-1.824a9.121,9.121,0,0,1,3.747-2.211,5.08,5.08,0,0,1,1.745-.215V49.179l0,0Z"/><path class="cls-6" d="M71.29,68.279c-.018.027-.044.072-.064.105a5.075,5.075,0,0,0,.557-.6A2.79,2.79,0,0,0,71.29,68.279Z"/><path class="cls-7" d="M49.476,41.184,64.79,43.517c-.007.295-.009.578-.011.863.539-.568,1.091-1.127,1.55-1.565a22.147,22.147,0,0,1,3.285-2.707c.777-8.6-2.777-7.655-2.777-11.448,0-10.782-16.4-4.616-16.4-4.616s-8.1-4.068-9.358,3.643c-.159.974-.244,3.143-.258,3.522.02.539.05,1.092.1,1.675l-.092,9.706c-.009.094-.006.187-.012.281l7.29-1.611A4.186,4.186,0,0,1,49.476,41.184Zm10.861-1.316H55.083a3.045,3.045,0,0,1-.111-.816v-.026a2.159,2.159,0,0,1,1.91-2.108c.007-.009.012-.019.018-.027h1.686c.009.01.015.023.024.034a2.16,2.16,0,0,1,1.838,2.1v.026A3.045,3.045,0,0,1,60.337,39.868Zm-6.462-6.192H61a.868.868,0,0,1,0,1.736H53.875a.868.868,0,0,1,0-1.736ZM41.218,35.1v-.887a.39.39,0,0,1,.39-.39h5.031a.39.39,0,0,1,.39.39V35.1a.391.391,0,0,1-.39.39H41.608A.391.391,0,0,1,41.218,35.1Zm5.749,4.632H42.334a2.936,2.936,0,0,1-.1-.757v-.025a2.083,2.083,0,0,1,1.807-2.031c.008-.009.015-.021.023-.029H45.43c.021.021.038.05.058.074a2.081,2.081,0,0,1,1.577,1.986v.025A2.936,2.936,0,0,1,46.967,39.733Z"/><path class="cls-7" d="M69.762,51.916a30.715,30.715,0,0,1-3.175,2.439q.142.219.287.407c.02.025.042.046.063.071a9.05,9.05,0,0,0,1.834,1.245h0l.811-.612a4.981,4.981,0,0,0,1.7-3.416V50.473C70.743,51.028,70.219,51.522,69.762,51.916Z"/><path class="cls-7" d="M65.828,52.823c.053.14.105.28.164.415l.013.03.018.036a31.426,31.426,0,0,0,5.259-4.489V46.23c-.964-.535-1.333-1.98-1.054-3.686l-1.022.68c.115-.689.206-1.329.28-1.932a31.678,31.678,0,0,0-4.694,4.728,28.691,28.691,0,0,0,.466,4.735,15.506,15.506,0,0,0,.472,1.8C65.762,52.646,65.8,52.734,65.828,52.823Z"/><path class="cls-8" d="M73.464,46.037a3.376,3.376,0,0,1-.625.278v.633C73.063,46.645,73.273,46.341,73.464,46.037Z"/><path class="cls-8" d="M50.439,24.044s16.4-6.166,16.4,4.616c0,3.793,3.554,2.852,2.777,11.448a7.408,7.408,0,0,1,1.928-.9c1.218-1.869,2.915-2.89,4.14-2.332,1.464.666,1.69,3.317.5,5.92a8.839,8.839,0,0,1-.778,1.35,13.55,13.55,0,0,1-2.564,4.568l0,.465,0,0C81.271,43.517,78.675,24,78.225,22.087c-.415-1.763-3.084-3.653-4.733-4.159-.225-.069-.741-.248-.741-.248-.146-.16-1.694-2.766-2.509-3.757a23.534,23.534,0,0,0-4.28-3.814A20.3,20.3,0,0,0,54.8,5.782a12.63,12.63,0,0,0-3.82.457A8.754,8.754,0,0,0,47.8,7.776a2.591,2.591,0,0,0-.766,2.676,2.122,2.122,0,0,0,.312.641,7.41,7.41,0,0,0-3.679-.309,7.277,7.277,0,0,0-4.52,2.911,8.881,8.881,0,0,0-1.368,5.136,25.4,25.4,0,0,0,.478,5.112,7.428,7.428,0,0,0-.274,1.489,6.318,6.318,0,0,0,.654,3.025,12.34,12.34,0,0,0,.821,1.507,10.917,10.917,0,0,0,1.361,1.309l0-.064c.014-.379.1-2.548.258-3.522C42.342,19.976,50.439,24.044,50.439,24.044Z"/><path class="cls-8" d="M70.889,40.379a10.108,10.108,0,0,0-1.4.913c-.074.6-.165,1.243-.28,1.932l1.022-.68a8.552,8.552,0,0,1,.658-2.16Z"/><path class="cls-9" d="M69.486,41.292a10.108,10.108,0,0,1,1.4-.913,8.842,8.842,0,0,1,.653-1.169,7.408,7.408,0,0,0-1.928.9,22.147,22.147,0,0,0-3.285,2.707c-.459.438-1.011,1-1.55,1.565,0,.564,0,1.113.013,1.64A31.678,31.678,0,0,1,69.486,41.292Z"/><path class="cls-9" d="M73.464,46.037c-.191.3-.4.608-.624.911a21.051,21.051,0,0,1-1.558,1.867A31.426,31.426,0,0,1,66.023,53.3a8.034,8.034,0,0,0,.564,1.051,30.715,30.715,0,0,0,3.175-2.439c.457-.394.981-.888,1.52-1.443.519-.533,1.053-1.122,1.563-1.757a13.55,13.55,0,0,0,2.564-4.568A6.178,6.178,0,0,1,73.464,46.037Z"/><path class="cls-7" d="M70.889,40.379l0,.005a8.552,8.552,0,0,0-.658,2.16c-.279,1.706.09,3.151,1.054,3.686.038.021.068.056.108.074a1.975,1.975,0,0,0,1.449.011,3.376,3.376,0,0,0,.625-.278,6.178,6.178,0,0,0,1.945-1.889,8.839,8.839,0,0,0,.778-1.35c1.185-2.6.959-5.254-.5-5.92-1.225-.558-2.922.463-4.14,2.332A8.842,8.842,0,0,0,70.889,40.379Zm4.865-1.612a4.546,4.546,0,0,1-.013,1.366,6.738,6.738,0,0,1-2.449,4.178,1.254,1.254,0,0,1-.132.092c-.859.512-1.78-.593-1.022-1.22.8-.661.575-1.065.191-1.442a.858.858,0,0,1-.036-1.222S75.163,36.513,75.754,38.767Z"/><path class="cls-10" d="M72.293,40.519a.858.858,0,0,0,.036,1.222c.384.377.608.781-.191,1.442-.758.627.163,1.732,1.022,1.22a1.254,1.254,0,0,0,.132-.092,6.738,6.738,0,0,0,2.449-4.178,4.546,4.546,0,0,0,.013-1.366C75.163,36.513,72.293,40.519,72.293,40.519Z"/><path class="cls-9" d="M58.61,36.925a1.977,1.977,0,0,1,.406,1.234c0,.937-.57,1.7-1.273,1.7a1.063,1.063,0,0,1-.73-.311.429.429,0,0,1-.06.013.6.6,0,0,1-.579-.611.626.626,0,0,1,.137-.382,2.216,2.216,0,0,1-.04-.405,1.97,1.97,0,0,1,.411-1.241,2.159,2.159,0,0,0-1.91,2.108v.026a3.045,3.045,0,0,0,.111.816h5.254a3.045,3.045,0,0,0,.111-.816v-.026A2.16,2.16,0,0,0,58.61,36.925Z"/><path class="cls-8" d="M56.511,38.564a.561.561,0,0,1,.442-.229.608.608,0,0,1,.06,1.209,1.063,1.063,0,0,0,.73.311c.7,0,1.273-.759,1.273-1.7a1.977,1.977,0,0,0-.406-1.234c-.009-.011-.015-.024-.024-.034H56.9c-.006.008-.011.018-.018.027a1.97,1.97,0,0,0-.411,1.241A2.216,2.216,0,0,0,56.511,38.564Z"/><path class="cls-9" d="M57.532,38.946a.6.6,0,0,0-.579-.611.561.561,0,0,0-.442.229.626.626,0,0,0-.137.382.6.6,0,0,0,.579.611.429.429,0,0,0,.06-.013A.593.593,0,0,0,57.532,38.946Z"/><path class="cls-9" d="M45.488,36.965a1.845,1.845,0,0,1,.4,1.184c0,.868-.51,1.572-1.14,1.572a.911.911,0,0,1-.574-.221.456.456,0,0,1-.566-.554.6.6,0,0,1,.07-.27,2.142,2.142,0,0,1-.07-.527,1.831,1.831,0,0,1,.435-1.229,2.083,2.083,0,0,0-1.807,2.031v.025a2.936,2.936,0,0,0,.1.757h4.633a2.936,2.936,0,0,0,.1-.757v-.025A2.081,2.081,0,0,0,45.488,36.965Z"/><path class="cls-8" d="M43.678,38.676a.5.5,0,0,1,.441-.3.568.568,0,0,1,.055,1.121.911.911,0,0,0,.574.221c.63,0,1.14-.7,1.14-1.572a1.845,1.845,0,0,0-.4-1.184c-.02-.024-.037-.053-.058-.074H44.066c-.008.008-.015.02-.023.029a1.831,1.831,0,0,0-.435,1.229A2.142,2.142,0,0,0,43.678,38.676Z"/><path class="cls-9" d="M44.629,38.946a.541.541,0,0,0-.51-.567.5.5,0,0,0-.441.3.6.6,0,0,0-.07.27.512.512,0,1,0,1.021,0Z"/><path class="cls-8" d="M53.875,35.412H61a.868.868,0,0,0,0-1.736H53.875a.868.868,0,0,0,0,1.736Z"/><rect class="cls-8" x="41.218" y="33.824" width="5.811" height="1.668" rx="0.39"/><path class="cls-6" d="M28.181,75.575A4.194,4.194,0,0,0,28.5,77.74a33.17,33.17,0,0,0,2.925,3.412,9.708,9.708,0,0,1,1.453,1.659c.225.395-.123,2.4-2.5,5.353l.724-.88c2.111,5.354,6.233,6.51,11.226,5.843l-.365,1.154h0c.309-1.048,4.2-10.6,4.552-11.585.364-1.03.773-2.046,1.122-3.081.183-.542.42-1.116.628-1.69-.129-.572-.257-1.144-.367-1.719a11.816,11.816,0,0,1-.585-2.943c.082-1.011.312-2.017.432-3.027.231-1.947.686-3.851.9-5.8.031-.275.071-.549.107-.823l0-.047c-1.231-.871-2.494-1.825-3.615-2.771-.661-.551-1.279-1.1-1.807-1.636a1.889,1.889,0,0,1-.493-.876c-.007-.033-.015-.066-.023-.1v0c-.263-1.08-.525-2.159-.778-3.241h0v0l0-.008h0c-.009-.038-.016-.077-.025-.115-.321-1.373-.629-2.748-.906-4.131-.021-.106-.041-.212-.061-.318l.006,0c-.087-.456-.163-.914-.237-1.372-.7.144-1.43,1.115-1.683,3.033-.143-1.034-2.042-2.477-2.918,2.267a35.078,35.078,0,0,0-.739,3.563c-.116,1.057-.34,1.9-.539,2.949-.357,1.879-1.173,3.709-1.7,5.551-.257.895-.648,1.914-.955,2.919a10.143,10.143,0,0,0-.446,2.052,5.579,5.579,0,0,1-1.1-1.49c-.024-.037-.05-.083-.075-.116-.494-.655-.56-1.345-1.03-1.981a9.125,9.125,0,0,0-3.414-2.7c-.492-.229-2.414-.96-2.646.1-.169.776.494,1.583.91,2.163A13.194,13.194,0,0,1,25.537,68.6c.253.508.718,1.9,1.151,2.942a5.537,5.537,0,0,0,.547,1.088A4.3,4.3,0,0,1,28.181,75.575Z"/><path class="cls-4" d="M42.33,93.127c-4.993.667-9.115-.489-11.226-5.843l-.724.88L17.69,103.572a60.526,60.526,0,0,0,17.536,11.983l6.739-21.274Z"/><path class="cls-9" d="M65.73,52.553c.009.027.018.062.027.088.022.063.048.121.071.182C65.8,52.734,65.762,52.646,65.73,52.553Z"/><path class="cls-9" d="M66.937,54.833c-.021-.025-.043-.046-.063-.071l.013.019C66.9,54.8,66.922,54.816,66.937,54.833Z"/><path class="cls-9" d="M65.992,53.238l.013.03Z"/><path class="cls-9" d="M43.522,49.2a11.4,11.4,0,0,1,5.275-.9,51.4,51.4,0,0,1,5.662.894c1-2.361,2.357-1.34,2.545-.094.351-3.363,3.083-3.214,3.065.916.221-.788,1.544-1.667,2.214.314.988.114,1.977.23,2.963.361,0,.019.009.037.012.056a28.691,28.691,0,0,1-.466-4.735c-.014-.527-.017-1.076-.013-1.64,0-.285,0-.568.011-.863L49.476,41.184a4.186,4.186,0,0,0-1.366.076l-7.29,1.611-.027.006a.959.959,0,0,0-.643.849c.008.062.117,1.7.2,2.278.148,1,.3,2,.456,2.99.074.458.15.916.237,1.372C41.88,50,42.693,49.567,43.522,49.2Z"/><path class="cls-9" d="M42.813,58.186c.008.033.016.066.023.1a1.889,1.889,0,0,0,.493.876c.528.533,1.146,1.085,1.807,1.636-.644-.542-1.242-1.081-1.756-1.6A2.17,2.17,0,0,1,42.813,58.186Z"/><path class="cls-9" d="M42.007,54.817c-.321-1.373-.629-2.748-.906-4.131C41.378,52.069,41.686,53.444,42.007,54.817Z"/><path class="cls-11" d="M66.937,54.833c-.015-.017-.036-.035-.05-.052a29.707,29.707,0,0,1-3.807,4.273l-.054.051c0,.063.008.121.012.185a20.12,20.12,0,0,0,.384,2.769c2.5-1.959,4.605-4.218,5.349-5.981h0A9.05,9.05,0,0,1,66.937,54.833Z"/><path class="cls-12" d="M49.132,61.545c.238-.9.68-2.273.88-3.227a11.756,11.756,0,0,1-2.066-.451,55.787,55.787,0,0,1-5.912-2.925c.253,1.082.515,2.161.778,3.241v0A2.17,2.17,0,0,0,43.38,59.2c.514.516,1.112,1.055,1.756,1.6,1.121.946,2.384,1.9,3.615,2.771l.008.006A15.924,15.924,0,0,1,49.132,61.545Z"/><polygon class="cls-12" points="42.032 54.932 42.034 54.94 42.032 54.932 42.032 54.932"/><path class="cls-12" d="M66.887,54.781l-.013-.019q-.144-.187-.287-.407a8.034,8.034,0,0,1-.564-1.051l-.018-.036-.013-.03c-.059-.135-.111-.275-.164-.415-.023-.061-.049-.119-.071-.182-.983.485-1.977.985-2.979,1.463A11.855,11.855,0,0,1,62.9,56.3c-.027,1,.066,1.83.123,2.809l.054-.051A29.707,29.707,0,0,0,66.887,54.781Z"/><path class="cls-9" d="M62.778,54.1c1-.478,2-.978,2.979-1.463-.009-.026-.018-.061-.027-.088a15.506,15.506,0,0,1-.472-1.8c0-.019-.009-.037-.012-.056-.986-.131-1.975-.247-2.963-.361a8.665,8.665,0,0,1,.371,2.328C62.684,53.307,62.731,53.734,62.778,54.1Z"/><path class="cls-9" d="M47.946,57.867a11.756,11.756,0,0,0,2.066.451c.009-.043.024-.095.031-.136.23-1.187,1.292-5.29,2-5.965.432-.409,1.306-.334,1.447,1.1a11.033,11.033,0,0,1,.406-2.232,9.757,9.757,0,0,1,.56-1.886,51.4,51.4,0,0,0-5.662-.894,11.4,11.4,0,0,0-5.275.9c-.829.364-1.642.793-2.476,1.163l-.006,0c.02.106.04.212.061.318.277,1.383.585,2.758.906,4.131.009.038.016.077.025.115l0,.008v0h0A55.787,55.787,0,0,0,47.946,57.867Z"/><path class="cls-7" d="M62.089,81.37a9.784,9.784,0,0,1,1.665-1.447,33.033,33.033,0,0,0,3.36-2.985,4.187,4.187,0,0,0,.612-2.1,4.3,4.3,0,0,1,1.336-2.8,33.341,33.341,0,0,0,2.164-3.658c.02-.033.046-.078.064-.105a2.79,2.79,0,0,1,.493-.494c.269-.227.561-.451.736-.636.49-.518,1.256-1.228,1.194-2.02-.036-.452-.409-.627-.863-.675a5.08,5.08,0,0,0-1.745.215,9.121,9.121,0,0,0-3.747,2.211c-.552.566-.712,1.241-1.29,1.824-.393.4-.865,1.189-1.38,1.432a29.174,29.174,0,0,0-.715-5.116c-.142-.981-.359-1.97-.551-2.961a20.12,20.12,0,0,1-.384-2.769c0-.064-.008-.122-.012-.185-.057-.979-.15-1.81-.123-2.809a11.855,11.855,0,0,0-.125-2.192c-.047-.37-.094-.8-.124-1.438a8.665,8.665,0,0,0-.371-2.328c-.67-1.981-1.993-1.1-2.214-.314.018-4.13-2.714-4.279-3.065-.916-.188-1.246-1.542-2.267-2.545.094a9.757,9.757,0,0,0-.56,1.886,11.033,11.033,0,0,0-.406,2.232c-.141-1.437-1.015-1.512-1.447-1.1-.711.675-1.773,4.778-2,5.965-.007.041-.022.093-.031.136-.2.954-.642,2.332-.88,3.227a15.924,15.924,0,0,0-.373,2.029l-.005.041c-.036.274-.076.548-.107.823-.214,1.947-.669,3.851-.9,5.8-.12,1.01-.35,2.016-.432,3.027a11.816,11.816,0,0,0,.585,2.943c.11.575.238,1.147.367,1.719.112.5.225.99.328,1.486.211,1.022,1.151,10.9,1.34,11.977,7.1,4.329,12.675.606,14.759-1.786h0c-.165-.668-.36-1.329-.567-1.973C63.11,84.465,61.784,81.771,62.089,81.37Z"/><path class="cls-4" d="M64.694,89.6h0c-2.084,2.392-7.658,6.115-14.759,1.786l5.141,29.264c1.626.132,3.264.217,4.924.217a60.315,60.315,0,0,0,20.117-3.443Z"/></g><polygon class="cls-13" points="96.784 58.104 92.208 53.527 81.39 64.344 70.573 53.527 65.996 58.104 76.814 68.921 65.996 79.739 70.573 84.315 81.39 73.498 92.208 84.315 96.784 79.739 85.967 68.921 96.784 58.104"/></g></svg>