<svg id="Ilustraciones" xmlns="http://www.w3.org/2000/svg" xmlns:xlink="http://www.w3.org/1999/xlink" viewBox="0 0 120 120"><defs><style>.cls-1{fill:none;}.cls-2{clip-path:url(#clip-path);}.cls-3{fill:#7fc3de;}.cls-4{fill:#ec9a5e;}.cls-5{fill:#a1b2b0;}.cls-6{fill:#6bcaca;}.cls-7{fill:#fff;}.cls-8{fill:#c7c8c3;}.cls-9{fill:#d5dbda;}.cls-10{fill:#f0eeeb;}.cls-11{fill:#e7e7e7;}.cls-12{fill:#e11e19;}.cls-13{fill:#f2bb93;}.cls-14{fill:#b65e62;}.cls-15{fill:#f4c5ab;}.cls-16{fill:#b75d42;}.cls-17{fill:#bde5e8;}</style><clipPath id="clip-path"><circle id="SVGID" class="cls-1" cx="60" cy="60" r="60"/></clipPath></defs><g id="_7" data-name="7"><g class="cls-2"><circle class="cls-3" cx="60" cy="60" r="60"/><path class="cls-1" d="M56.868,50.52l.893-1.136q-.437.275-.917.542C56.863,50.125,56.864,50.322,56.868,50.52Z"/><path class="cls-1" d="M60.961,54.782c.045-.042.085-.087.133-.127-.046.024-.086.047-.133.07C60.962,54.746,60.96,54.761,60.961,54.782Z"/><path class="cls-1" d="M64.215,91.762c-5.671-2.406-12.058-3.357-17.881-4.179-1.673-.236-9.317-3.083-11.51-4.59-2.178-1.5-10.614-1.437-13.7-1.508a35.261,35.261,0,0,1-8.015-.685c-2.568-.681-6.608-1.954-4.676-5.288,2.257-3.9,6.973-4.772,11.181-4.79,1.494-.007,2.989.06,4.484.141-1.707-1.691-3.519-3.238-4.489-5.439-2.253-5.108-5.062-7.917-6.295-10.452-1.172-2.41-2.374-3.524-1.328-6.352.581-1.569,2.851-1.143,4.342-1.047-1.918-2.535-2.862-4.944-1.165-6.44a3.822,3.822,0,0,1,3.769-.617,21.464,21.464,0,0,1,3.014,2.193c2.055-1.987,5,.617,6.919,3.22,1.173,1.592,5,5.618,5,5.618.642-.737,1.919-1.645,5.983.467a42.552,42.552,0,0,1,4.953,3.4l.534-.751.111,1.246c2.689,2.075,5.5,4.4,6.986,5.705a28.2,28.2,0,0,0,8.822,4.831c.066-.19.148-.4.248-.641-.548-.261-.51-.946-.586-1.975l-.8-5.929c-.2.326-.427.691-.675,1.154-.487,1.394-3.371,1.819-3.81.9-.034-.071-.2-1.957-.337-3.665l-.045.1c-.457.975-2.112,2.006-3.163,1.519-.552-.255-.526-1.269-.516-2.053l.083-6.247a2.361,2.361,0,0,1,.024-.252,32.953,32.953,0,0,0-3.235,2.425c-1.039.913-2.1.766-2.406-.118h0a1.557,1.557,0,0,1-.067-.3c-.005-.036,0-.075-.007-.112a1.816,1.816,0,0,1-.006-.235c0-.048.009-.1.014-.149.008-.079.018-.159.034-.243.011-.056.024-.114.039-.172.022-.086.047-.174.076-.265.021-.061.041-.123.066-.186.036-.1.08-.2.125-.3.029-.063.056-.126.09-.192.057-.114.125-.231.193-.35.034-.058.063-.114.1-.174.112-.181.236-.366.377-.558,1.967-2.611,5.053-3.838,8.264-5.658a6,6,0,0,1-1.353-.208,2.16,2.16,0,0,1-1.38-2,2.585,2.585,0,0,1,.781-1.506l.013-.015c1.215-1.462,3.534-3.4,4.8-5.117a21.986,21.986,0,0,1,2.766-2.564c1.276-1.071,6.666-1.02,8.036-1.118,2.114-.151,7.514-1.879,8.726-.638,1.719,1.761,8.937,10.247,10.8,12.347A58.1,58.1,0,0,0,95,47.963c2.731,2.266,10.551,9.247,12.271,11.417,2.1,2.648,6.378,5.183,9.155,7.025.7.462,1.739,1.06,3.008,1.744A60,60,0,1,0,60,120a59.914,59.914,0,0,0,18.815-3.027C76.205,110.161,69.544,94.023,64.215,91.762Z"/><path class="cls-1" d="M107.976,87.724c-2.911-.172-6.444.2-9.487.224-.233.185-.465.37-.7.556.18.349.361.7.535,1.049,1.892,3.818,3.551,7.748,5.273,11.648a60.138,60.138,0,0,0,8.853-12.062l-.013-.007A13.166,13.166,0,0,0,107.976,87.724Z"/><path class="cls-1" d="M72.951,39.042l-.068-.086-4.2-.863-3.428.088s-.3.179-.743.454c.041.048.077.1.116.152Z"/><path class="cls-4" d="M65.184,41.905a3.5,3.5,0,0,1-.33.585l.5.653,11.385.906c-1.538-2.134-3.427-4.543-3.791-5.007l-8.326-.255C65.387,39.764,65.762,41.088,65.184,41.905Z"/><path class="cls-4" d="M55.642,52.078l1.226-1.558c0-.2-.005-.4-.024-.594q.481-.269.917-.542L59.8,46.8l-.539-.7a.425.425,0,0,0-.134-.093,22.946,22.946,0,0,0-7.449,3.344,2.361,2.361,0,0,0-.024.252l-.083,6.247c-.01.784-.036,1.8.516,2.053,1.051.487,2.706-.544,3.163-1.519l.045-.1c-.118-1.436-.222-2.748-.222-2.748A2.67,2.67,0,0,1,55.642,52.078Z"/><path class="cls-4" d="M60.961,54.782c0-.021,0-.036,0-.057.047-.023.087-.046.133-.07.016-.013.028-.029.045-.043l-.456-.591h0l-.127-.166a1.383,1.383,0,0,1,.252-1.942L62.645,50.5,59.8,46.8l-2.034,2.585-.893,1.136-1.226,1.558a2.67,2.67,0,0,0-.574,1.462s.1,1.312.222,2.748c.141,1.708.3,3.594.337,3.665.439.924,3.323.5,3.81-.9.248-.463.475-.828.675-1.154l-.1-.738A2.77,2.77,0,0,1,60.961,54.782Z"/><path class="cls-4" d="M67.9,46.447,69.774,45a1.386,1.386,0,0,1,1.943.252l.128.165h0l2.73,3.545a.666.666,0,0,1,.125.3l4.825.621c.319-.065.638-.13.954-.192-.756-1.116-1.5-2.215-2.074-3.18-.377-.638-.986-1.524-1.663-2.462l-11.385-.906Z"/><path class="cls-4" d="M65.145,58.474l-.661-.857-.1.075a.7.7,0,0,1-.974-.127l-2.275-2.953c-.017.014-.029.03-.045.043-.048.04-.088.085-.133.127a2.77,2.77,0,0,0-.949,2.384l.1.738.8,5.929c.076,1.029.038,1.714.586,1.975,1.035-2.484,3.618-7.314,3.618-7.314Z"/><path class="cls-4" d="M74.449,49.939l-.146.113.66.858.026-.02s2.236-.532,4.536-1.007L74.7,49.262A.687.687,0,0,1,74.449,49.939Z"/><polygon class="cls-5" points="69.418 53.816 64.484 57.617 65.145 58.474 70.054 54.692 74.963 50.91 74.303 50.052 69.418 53.816"/><path class="cls-6" d="M98.489,87.948c-.336,0-.668,0-.989,0,.1.186.19.374.287.561C98.024,88.318,98.256,88.133,98.489,87.948Z"/><path class="cls-6" d="M61.842,66.656a36.161,36.161,0,0,0,3.5,1.017c.223.038.447.077.659.111a33.469,33.469,0,0,1,4.927,1.353l-2.754-3.573A.834.834,0,0,1,68.32,64.4L79.879,55.49a.834.834,0,0,1,1.168.152l4.768,6.189a25.749,25.749,0,0,0-2.792-8.106c-.382-.721-.872-1.507-1.4-2.312Z"/><path class="cls-7" d="M81.626,51.413c-.372-.57-.759-1.147-1.147-1.722-.316.062-.635.127-.954.192-2.3.475-4.536,1.007-4.536,1.007l-.026.02-4.909,3.782-4.909,3.782-.026.02s-2.583,4.83-3.618,7.314c-.1.24-.182.451-.248.641.2.071.4.142.589.207Z"/><path class="cls-8" d="M67.9,46.447l-2.545-3.3-.5-.653c-.984,1.435-3.2,2.7-5.709,3.51l-.023.006a.425.425,0,0,1,.134.093l.539.7,2.85,3.7,2.646-2.04Z"/><path class="cls-9" d="M46.306,49.7c.029-.063.057-.127.09-.192C46.362,49.576,46.335,49.639,46.306,49.7Z"/><path class="cls-9" d="M46,50.622c.011-.056.024-.114.039-.172C46.024,50.508,46.011,50.566,46,50.622Z"/><path class="cls-9" d="M46.589,49.16c.034-.058.063-.114.1-.174C46.652,49.046,46.623,49.1,46.589,49.16Z"/><path class="cls-9" d="M46.115,50.185c.021-.061.041-.123.066-.186C46.156,50.062,46.136,50.124,46.115,50.185Z"/><path class="cls-9" d="M45.952,51.014c0-.048.009-.1.014-.149C45.961,50.915,45.954,50.966,45.952,51.014Z"/><path class="cls-9" d="M45.965,51.361c-.005-.036,0-.075-.007-.112C45.961,51.286,45.96,51.325,45.965,51.361Z"/><path class="cls-9" d="M59.145,46c2.506-.807,4.725-2.075,5.709-3.51a3.5,3.5,0,0,0,.33-.585c.578-.817.2-2.141-.559-3.118-.039-.051-.075-.1-.116-.152q-.207.128-.449.28c-.514,3.454-16.381,6.686-18.028,12.742.3.884,1.367,1.031,2.406.118a32.953,32.953,0,0,1,3.235-2.425,22.946,22.946,0,0,1,7.449-3.344Z"/><path class="cls-10" d="M64.06,38.915c-.827.521-1.907,1.227-2.652,1.813a9.421,9.421,0,0,1-6.077,2.042c-3.211,1.82-6.3,3.047-8.264,5.658-.141.192-.265.377-.377.558-.038.06-.067.116-.1.174-.068.119-.136.236-.193.35-.033.065-.061.129-.09.192-.045.1-.089.2-.125.3-.025.063-.045.125-.066.186-.029.091-.054.179-.076.265-.015.058-.028.116-.039.172-.016.084-.026.164-.034.243-.005.05-.012.1-.014.149a1.816,1.816,0,0,0,.006.235c0,.037,0,.076.007.112a1.557,1.557,0,0,0,.067.3h0C47.679,45.6,63.546,42.369,64.06,38.915Z"/><path class="cls-10" d="M74.3,50.052l.146-.113a.687.687,0,0,0,.251-.677.666.666,0,0,0-.125-.3l-2.73-3.545-11.162,8.6.456.591,2.275,2.953a.7.7,0,0,0,.974.127l.1-.075,4.934-3.8Z"/><path class="cls-11" d="M71.845,45.421h0l-.128-.165A1.386,1.386,0,0,0,69.774,45L67.9,46.447l-2.611,2.011L62.645,50.5l-1.837,1.415a1.383,1.383,0,0,0-.252,1.942l.127.166h0Z"/><path class="cls-7" d="M81.047,55.642a.834.834,0,0,0-1.168-.152L68.32,64.4a.834.834,0,0,0-.151,1.168l2.754,3.573c1.548.527,2.841,1.03,3.234,1.192l.04.008-1.3-1.692a.642.642,0,0,1,.117-.9l8.907-6.863a.643.643,0,0,1,.9.117l3.245,4.211a20.049,20.049,0,0,0-.249-3.378Z"/><path class="cls-12" d="M81.918,60.881l-8.907,6.863a.642.642,0,0,0-.117.9l1.3,1.692c.516.1,2.208.5,2.987.744.089.027.179.04.27.063l-.5-.65L79.54,68.5l-1.993-2.588,1.461-1.126L81,67.375l2.587-1.994,1.126,1.462-2.587,1.993,1.993,2.588-.581.447c.287.052.571.109.856.172a5.691,5.691,0,0,0,1.089-2.337,21.6,21.6,0,0,0,.579-4.5L82.819,61A.643.643,0,0,0,81.918,60.881Z"/><path class="cls-12" d="M78.818,71.386c.641.066,1.288.092,1.938.14.4.03.8.069,1.2.115l-1.294-1.679Z"/><path class="cls-7" d="M82.128,68.836l2.587-1.993-1.126-1.462L81,67.375l-1.994-2.588-1.461,1.126L79.54,68.5l-2.587,1.993.5.65a8.984,8.984,0,0,0,1.364.242l1.848-1.424,1.294,1.679c.526.06,1.055.136,1.58.23l.581-.447Z"/><path class="cls-13" d="M107.272,59.38c-1.72-2.17-9.54-9.151-12.271-11.417a58.1,58.1,0,0,1-6.478-6.016c-1.862-2.1-9.08-10.586-10.8-12.347-1.212-1.241-6.612.487-8.726.638-1.37.1-6.76.047-8.036,1.118A21.986,21.986,0,0,0,58.2,33.92c-1.27,1.72-3.589,3.655-4.8,5.117,1.009-1.208,2.56-2.36,3.856-3.981.525.318,2.741,2.017,1.105,3.624a9.433,9.433,0,0,1-3.33,1.956,1.419,1.419,0,0,1-1.247-.1c-.428-.26-.9-.63-.788-.968.118-.174.249-.345.391-.515a2.585,2.585,0,0,0-.781,1.506,2.16,2.16,0,0,0,1.38,2,6,6,0,0,0,1.353.208,9.421,9.421,0,0,0,6.077-2.042c.745-.586,1.825-1.292,2.652-1.813q.242-.153.449-.28c.443-.275.743-.454.743-.454l3.428-.088,4.2.863.068.086c.364.464,2.253,2.873,3.791,5.007.677.938,1.286,1.824,1.663,2.462.572.965,1.318,2.064,2.074,3.18.388.575.775,1.152,1.147,1.722.525.805,1.015,1.591,1.4,2.312a25.749,25.749,0,0,1,2.792,8.106,20.049,20.049,0,0,1,.249,3.378,21.6,21.6,0,0,1-.579,4.5A5.691,5.691,0,0,1,84.4,72.043,11.594,11.594,0,0,1,91.8,76.549,38.162,38.162,0,0,1,94.9,82.762c.784,1.768,1.709,3.467,2.6,5.181.321.007.653.007.989,0,3.043-.024,6.576-.4,9.487-.224a13.166,13.166,0,0,1,4.459,1.408l.013.007a59.606,59.606,0,0,0,6.987-20.99c-1.269-.684-2.312-1.282-3.008-1.744C113.65,64.563,109.371,62.028,107.272,59.38Z"/><path class="cls-14" d="M53.776,40.535a1.419,1.419,0,0,0,1.247.1,9.433,9.433,0,0,0,3.33-1.956c1.636-1.607-.58-3.306-1.105-3.624-1.3,1.621-2.847,2.773-3.856,3.981l-.013.015c-.142.17-.273.341-.391.515C52.875,39.905,53.348,40.275,53.776,40.535Z"/><path class="cls-13" d="M39.091,71.022c3.456-.607,15.6-3.839,18.239-4.133,2.4-.27,5.5.358,8.007.784a36.161,36.161,0,0,1-3.5-1.017c-.191-.065-.39-.136-.589-.207a28.2,28.2,0,0,1-8.822-4.831c-1.489-1.3-4.3-3.63-6.986-5.705l.486,5.4c.208,2.317-1.624,4.426-3.433,3.952-1.829-.479-2.378-3.266-1.019-5.177L44.8,55.418a42.552,42.552,0,0,0-4.953-3.4c-4.064-2.112-5.341-1.2-5.983-.467,0,0-3.828-4.026-5-5.618-1.918-2.6-4.864-5.207-6.919-3.22a21.464,21.464,0,0,0-3.014-2.193,3.822,3.822,0,0,0-3.769.617c-1.7,1.5-.753,3.9,1.165,6.44-1.491-.1-3.761-.522-4.342,1.047-1.046,2.828.156,3.942,1.328,6.352,1.233,2.535,4.042,5.344,6.3,10.452.97,2.2,2.782,3.748,4.489,5.439,1.8.1,3.6.218,5.391.276C32.639,71.239,35.968,71.571,39.091,71.022Z"/><path class="cls-15" d="M97.787,88.5c-.1-.187-.19-.375-.287-.561-.894-1.714-1.819-3.413-2.6-5.181A38.162,38.162,0,0,0,91.8,76.549,11.594,11.594,0,0,0,84.4,72.043c-.285-.063-.569-.12-.856-.172-.525-.094-1.054-.17-1.58-.23-.4-.046-.806-.085-1.2-.115-.65-.048-1.3-.074-1.938-.14a8.984,8.984,0,0,1-1.364-.242c-.091-.023-.181-.036-.27-.063-.779-.239-2.471-.64-2.987-.744l-.04-.008c-.393-.162-1.686-.665-3.234-1.192A33.469,33.469,0,0,0,66,67.784c-.212-.034-.436-.073-.659-.111-2.507-.426-5.6-1.054-8.007-.784-2.636.294-14.783,3.526-18.239,4.133-3.123.549-6.452.217-9.6.117-1.795-.058-3.593-.178-5.391-.276-1.5-.081-2.99-.148-4.484-.141-4.208.018-8.924.894-11.181,4.79C6.5,78.846,10.539,80.119,13.107,80.8a35.261,35.261,0,0,0,8.015.685c3.088.071,11.524.01,13.7,1.508,2.193,1.507,9.837,4.354,11.51,4.59,5.823.822,12.21,1.773,17.881,4.179,5.329,2.261,11.99,18.4,14.6,25.211A60,60,0,0,0,103.6,101.2c-1.722-3.9-3.381-7.83-5.273-11.648C98.148,89.2,97.967,88.853,97.787,88.5ZM16.206,78.4a.838.838,0,0,1-.839.839H11.812a2.876,2.876,0,0,1-.337-.047c-5.939-.791-3.343-6.8,3.895-6.133a.683.683,0,0,1,.836.666Z"/><path class="cls-16" d="M15.37,73.06c-7.238-.669-9.834,5.342-3.895,6.133a2.876,2.876,0,0,0,.337.047h3.555a.838.838,0,0,0,.839-.839V73.726A.683.683,0,0,0,15.37,73.06Z"/><path class="cls-17" d="M42.5,65.266c1.809.474,3.641-1.635,3.433-3.952l-.486-5.4-.111-1.246-.534.751-3.321,4.671C40.12,62,40.669,64.787,42.5,65.266Z"/></g></g></svg>