<svg xmlns="http://www.w3.org/2000/svg" xmlns:xlink="http://www.w3.org/1999/xlink" viewBox="0 0 120 120"><defs><style>.cls-1{fill:none;}.cls-2{isolation:isolate;}.cls-3{clip-path:url(#clip-path);}.cls-4{fill:#7fc3de;}.cls-5{fill:#f2fcff;}.cls-6{fill:#64afb3;}.cls-7{fill:#f2bb93;}.cls-8{fill:#fff;}.cls-9{fill:#f4c5ab;}.cls-10{fill:#212026;}.cls-11{fill:#e29c6d;}.cls-12{fill:#bfe1ef;}.cls-13{opacity:0.51;mix-blend-mode:multiply;}.cls-14{fill:#00558c;}.cls-15{fill:#e11e19;}</style><clipPath id="clip-path"><circle class="cls-1" cx="60" cy="60" r="60"/></clipPath></defs><g class="cls-2"><g id="Ilustraciones"><g class="cls-3"><circle class="cls-4" cx="60" cy="60" r="60"/><path class="cls-1" d="M77.686,51.279c-.179-1.042-.473-2.153-.754-3.27-.416-.121-.811-.248-1.182-.383a8.809,8.809,0,0,1-1.241,1.023V62.942c1.165.166,2.255.358,3.257.571v0c.566.1,1.119.206,1.676.311C76.258,60.7,77.686,57.854,77.686,51.279Z"/><path class="cls-1" d="M51.412,62.884l-.126-.087c-1.262-.886-2.573-1.872-3.728-2.846-.644-.537-1.246-1.074-1.76-1.594a1.824,1.824,0,0,1-.479-.851l-.023-.1v0c-.14-.57-.274-1.141-.412-1.712A53.239,53.239,0,0,0,40.3,59.6c-1.569,1.554-3.851,4.741-7.391,5-1.023.077-2.18,1.6-2.9,2.255-.58.524-1.3,1.279-2.021,2.082a16.408,16.408,0,0,1,4.885-2.025c5.267-1.228,15.422-2.367,16.394-2.653.673-.243,1.4-.459,2.149-.654Z"/><path class="cls-1" d="M14.782,66.8c.335-.457.611-.851.779-1.124a14.456,14.456,0,0,1,3.333-3.926C22.66,58.294,21.783,50.859,24.3,46.34c1.275-2.285,1.6-2.03,4-2.3,1.435-.159,4.568-1.726,6.683-.833a6.3,6.3,0,0,1,2.689-.888,3.614,3.614,0,0,1,1.059-1.987c-.534.523-.189.185.06-.059l.012-.012h0l-.012.012-.06.059c1.314-1.29,3.059-.784,4.653.208l.074-7.745c-.05-.567-.079-1.1-.1-1.629,0,.037,0,.063,0,.063a10.632,10.632,0,0,1-1.325-1.274,12.135,12.135,0,0,1-.8-1.465,6.135,6.135,0,0,1-.636-2.942,7.327,7.327,0,0,1,.267-1.449,24.576,24.576,0,0,1-.464-4.971,8.631,8.631,0,0,1,1.329-4.995,7.081,7.081,0,0,1,4.4-2.831,7.2,7.2,0,0,1,3.579.3,2.075,2.075,0,0,1-.3-.623,2.519,2.519,0,0,1,.745-2.6,8.519,8.519,0,0,1,3.092-1.495,12.291,12.291,0,0,1,3.715-.445A19.741,19.741,0,0,1,67.81,10.65a22.852,22.852,0,0,1,4.163,3.71c.792.963,2.3,3.5,2.44,3.653,0,0,.5.174.721.242,1.6.491,4.2,2.33,4.6,4.044a52.248,52.248,0,0,1,.675,10.647l.5-.148a1.751,1.751,0,0,1,1.564.292l8.5,6.551a5.479,5.479,0,0,1,.764,5.054c-.409,3.843-1.519,9.2-1.216,13.679l6.517,7.052h0l17.736,19.049A59.991,59.991,0,1,0,3.568,80.414Z"/><path class="cls-1" d="M41.691,51.735a7.274,7.274,0,0,1-.575-1.841c-.368-.412-.731-.849-1.081-1.3.077,1.535.135,2.889.168,3.256a2.242,2.242,0,0,1-.446,1.713,1.016,1.016,0,0,1-.732.323,5.244,5.244,0,0,1,.161.61,22.958,22.958,0,0,1,2.962-2.274A1.489,1.489,0,0,1,41.691,51.735Z"/><path class="cls-1" d="M81.842,39.266l1.038.292a17.143,17.143,0,0,1-1.821-2.081,4.31,4.31,0,0,1-1.1.4q-.056.357-.118.713Z"/><path class="cls-1" d="M40.269,41.616a1.251,1.251,0,0,1,1.836.363,6.458,6.458,0,0,1,.472,1.186c.049.146.1.292.148.438-.01-.143-.017-.244-.019-.258a.934.934,0,0,1,.625-.826l.027,0c.005-.091,0-.182.01-.273l.007-.656c-1.725-1.259-3.388-1.806-4.344-.391a2.97,2.97,0,0,0-.48,1.238,1.76,1.76,0,0,1,.566.3A3.847,3.847,0,0,1,40.269,41.616Z"/><path class="cls-5" d="M74.509,63.753a4.873,4.873,0,0,1-1.86,3.823c-7.444,5.88-17.449,7.591-21.027-1.067a2.761,2.761,0,0,1-.21-1.054V63.608c-.754.2-1.476.411-2.149.654l8.118,38.375L77.766,63.513c-1-.213-2.092-.405-3.257-.571Z"/><path class="cls-6" d="M80.528,64.772a11.987,11.987,0,0,1-1.085-.95c-.557-.105-1.11-.214-1.676-.311v0L57.381,102.637,49.263,64.262c-.972.286-11.127,1.425-16.394,2.653a16.408,16.408,0,0,0-4.885,2.025c-.911,1.009-1.828,2.09-2.505,2.9l-9.243,29.18a59.946,59.946,0,0,0,82.805,4.517L83.092,69.586Z"/><path class="cls-7" d="M74.506,48.482a1.857,1.857,0,0,1-.612.445c-.3.347-.609.671-.909.98v1.534a4.849,4.849,0,0,1-1.654,3.322l-.789.6c-1.634,3.873-10,10.192-14.328,10.061a3.352,3.352,0,0,1-.67-.067c-.015,0-.031,0-.046-.008a2.4,2.4,0,0,1-.726-.292c-.882-.544-1.72-1.025-3.36-2.169v2.571a2.761,2.761,0,0,0,.21,1.054c3.578,8.658,13.583,6.947,21.027,1.067a4.873,4.873,0,0,0,1.86-3.823v-15.1l0,0Z"/><path class="cls-8" d="M38.792,40.278l.012-.012Z"/><path class="cls-8" d="M38.732,40.337l.06-.059C38.543,40.522,38.2,40.86,38.732,40.337Z"/><path class="cls-8" d="M38.8,40.266c.286-.28.174-.171,0,0Z"/><path class="cls-8" d="M41.026,49.559a23.168,23.168,0,0,0-1.086-2.743c.034.589.066,1.193.095,1.773.35.456.713.893,1.081,1.3C41.087,49.782,41.061,49.669,41.026,49.559Z"/><path class="cls-8" d="M39.031,41.194c.956-1.415,2.619-.868,4.344.391l.01-1.04c-1.594-.992-3.339-1.5-4.653-.208a3.614,3.614,0,0,0-1.059,1.987,2.541,2.541,0,0,1,.878.108A2.97,2.97,0,0,1,39.031,41.194Z"/><path class="cls-9" d="M43.631,50.115l-.06-.309.006,0c-.269-1.407-.464-2.826-.674-4.243-.065-.436-.142-1.475-.178-1.957-.05-.146-.1-.292-.148-.438a6.458,6.458,0,0,0-.472-1.186,1.251,1.251,0,0,0-1.836-.363,3.847,3.847,0,0,0-1.152,1.118,1.7,1.7,0,0,1,.372.392c.172-.344.327,1.563.451,3.69a23.168,23.168,0,0,1,1.086,2.743c.035.11.061.223.09.335a7.274,7.274,0,0,0,.575,1.841,1.489,1.489,0,0,0,.457.482,15.5,15.5,0,0,1,1.728-.977C43.8,50.865,43.706,50.491,43.631,50.115Z"/><path class="cls-9" d="M43.368,42.241c-.007.091-.005.182-.01.273l7.089-1.568a4.132,4.132,0,0,1,1.33-.073L66.67,43.142c-.007.287-.008.562-.01.839.524-.552,1.061-1.095,1.507-1.521a24.6,24.6,0,0,1,2.616-2.242,1.132,1.132,0,0,1-.043-1.524l.728-.887c.06-6.211-2.807-5.755-2.807-9.114,0-10.487-15.949-4.489-15.949-4.489s-7.875-3.958-9.1,3.542c-.155.947-.238,3.054-.252,3.425.02.524.049,1.062.1,1.629l-.074,7.745-.01,1.04Zm18.971-2.648H57.23a2.962,2.962,0,0,1-.109-.794v-.025a2.1,2.1,0,0,1,1.857-2.05c.007-.009.011-.019.018-.027h1.64c.008.01.014.023.022.034a2.1,2.1,0,0,1,1.788,2.043V38.8A2.961,2.961,0,0,1,62.339,39.593Zm-6.285-6.022h6.929a.844.844,0,0,1,0,1.688H56.054a.844.844,0,0,1,0-1.688Zm-6.623,5.155a2.872,2.872,0,0,1-.095.736H44.83a2.872,2.872,0,0,1-.1-.736V38.7a2.026,2.026,0,0,1,1.757-1.975c.008-.009.014-.02.022-.029h1.327c.021.022.037.05.056.073A2.022,2.022,0,0,1,49.431,38.7Zm-5.687-4.249a.763.763,0,0,1,.764-.762h4.125a.763.763,0,0,1,.763.762v.1a.763.763,0,0,1-.763.763H44.508a.763.763,0,0,1-.764-.763Z"/><path class="cls-9" d="M70.543,55.359h0l.789-.6a4.849,4.849,0,0,0,1.654-3.322V49.907c-.525.54-1.035,1.021-1.478,1.4a29.958,29.958,0,0,1-3.089,2.372c.092.142.185.275.279.4.02.024.041.044.061.068A8.837,8.837,0,0,0,70.543,55.359Z"/><path class="cls-9" d="M72.863,48.424a8.7,8.7,0,0,1-.376-3.069,4.05,4.05,0,0,1-.528-3.159l-.994.661c.111-.67.2-1.292.273-1.878a30.757,30.757,0,0,0-4.566,4.6,27.664,27.664,0,0,0,.454,4.6,14.811,14.811,0,0,0,.459,1.751c.03.089.063.174.094.259.052.137.1.274.16.406l.013.028c.006.013.012.024.017.036A30.6,30.6,0,0,0,72.863,48.424Z"/><path class="cls-10" d="M74.8,47.814a1.159,1.159,0,0,1-.294.668v.169l0,0a8.809,8.809,0,0,0,1.241-1.023c-.219-.079-.424-.162-.62-.248C75.023,47.526,74.911,47.669,74.8,47.814Z"/><path class="cls-10" d="M79.838,38.594q.063-.355.118-.713A6.635,6.635,0,0,1,78.3,38c.01.032.026.057.036.09Z"/><path class="cls-10" d="M52.712,24.2s15.949-6,15.949,4.489c0,3.359,2.867,2.9,2.807,9.114l2.069-2.519a1.744,1.744,0,0,1,.858-.569l6.017-1.773A52.248,52.248,0,0,0,79.737,22.3c-.4-1.714-3-3.553-4.6-4.044-.219-.068-.721-.242-.721-.242-.142-.155-1.648-2.69-2.44-3.653a22.852,22.852,0,0,0-4.163-3.71A19.741,19.741,0,0,0,56.954,6.441a12.291,12.291,0,0,0-3.715.445,8.519,8.519,0,0,0-3.092,1.5,2.519,2.519,0,0,0-.745,2.6,2.075,2.075,0,0,0,.3.623,7.2,7.2,0,0,0-3.579-.3,7.081,7.081,0,0,0-4.4,2.831A8.631,8.631,0,0,0,40.4,19.133a24.576,24.576,0,0,0,.464,4.971,7.327,7.327,0,0,0-.267,1.449,6.135,6.135,0,0,0,.636,2.942,12.135,12.135,0,0,0,.8,1.465,10.632,10.632,0,0,0,1.325,1.274s0-.026,0-.063c.014-.371.1-2.478.252-3.425C44.837,20.246,52.712,24.2,52.712,24.2Z"/><path class="cls-10" d="M70.965,42.857l.994-.661a8.187,8.187,0,0,1,.468-1.658,3.381,3.381,0,0,1-.646.048c-.18.122-.361.254-.543.393C71.165,41.565,71.076,42.187,70.965,42.857Z"/><path class="cls-8" d="M66.672,45.576a30.757,30.757,0,0,1,4.566-4.6c.182-.139.363-.271.543-.393a1.473,1.473,0,0,1-1-.368,24.6,24.6,0,0,0-2.616,2.242c-.446.426-.983.969-1.507,1.521C66.655,44.53,66.658,45.064,66.672,45.576Z"/><path class="cls-8" d="M72.985,49.907c.3-.309.605-.633.909-.98a1.521,1.521,0,0,1-.844.162c-.015-.1-.092-.337-.187-.665a30.6,30.6,0,0,1-4.994,4.237,7.722,7.722,0,0,0,.549,1.022,29.958,29.958,0,0,0,3.089-2.372C71.95,50.928,72.46,50.447,72.985,49.907Z"/><path class="cls-8" d="M74.7,47.185a1.206,1.206,0,0,1,.1.629c.111-.145.223-.288.33-.436C74.984,47.314,74.83,47.253,74.7,47.185Z"/><path class="cls-9" d="M72.487,45.355a4.5,4.5,0,0,1,.78-2.242l0-.006L74.6,41.249a.819.819,0,0,1,.081-1.023,8.553,8.553,0,0,1,2.337-2.282c-.355-.016-.722-.027-1.114-.018,0,0-2.374,2.411-3.322,2.6-.057.011-.1.006-.153.015a8.187,8.187,0,0,0-.468,1.658A4.05,4.05,0,0,0,72.487,45.355Z"/><path class="cls-9" d="M78.3,38l-.254-.007.29.1C78.326,38.058,78.31,38.033,78.3,38Z"/><path class="cls-11" d="M74.679,40.226a.819.819,0,0,0-.081,1.023l2.026-2.822a1.317,1.317,0,0,1,.723-.469c-.107-.006-.221-.009-.331-.014A8.553,8.553,0,0,0,74.679,40.226Z"/><path class="cls-8" d="M60.659,36.731a1.918,1.918,0,0,1,.4,1.2c0,.911-.554,1.65-1.238,1.65a1.036,1.036,0,0,1-.711-.3.543.543,0,0,1-.058.013.579.579,0,0,1-.563-.595.608.608,0,0,1,.133-.371,2.193,2.193,0,0,1-.039-.394,1.923,1.923,0,0,1,.4-1.207,2.1,2.1,0,0,0-1.857,2.05V38.8a2.962,2.962,0,0,0,.109.794h5.109a2.961,2.961,0,0,0,.108-.794v-.025A2.1,2.1,0,0,0,60.659,36.731Z"/><path class="cls-10" d="M58.618,38.325a.546.546,0,0,1,.43-.223.592.592,0,0,1,.058,1.176,1.036,1.036,0,0,0,.711.3c.684,0,1.238-.739,1.238-1.65a1.918,1.918,0,0,0-.4-1.2c-.008-.011-.014-.024-.022-.034H59c-.007.008-.011.018-.018.027a1.923,1.923,0,0,0-.4,1.207A2.193,2.193,0,0,0,58.618,38.325Z"/><path class="cls-8" d="M59.611,38.7a.579.579,0,0,0-.563-.594.546.546,0,0,0-.43.223.608.608,0,0,0-.133.371.579.579,0,0,0,.563.595.543.543,0,0,0,.058-.013A.577.577,0,0,0,59.611,38.7Z"/><path class="cls-8" d="M47.9,36.77a1.791,1.791,0,0,1,.39,1.151c0,.845-.5,1.529-1.109,1.529a.884.884,0,0,1-.559-.215.454.454,0,0,1-.053.012.525.525,0,0,1-.5-.551.58.58,0,0,1,.068-.263,2.068,2.068,0,0,1-.068-.512,1.779,1.779,0,0,1,.423-1.2A2.026,2.026,0,0,0,44.735,38.7v.025a2.872,2.872,0,0,0,.1.736h4.506a2.872,2.872,0,0,0,.095-.736V38.7A2.022,2.022,0,0,0,47.9,36.77Z"/><path class="cls-10" d="M46.137,38.433a.488.488,0,0,1,.429-.288.552.552,0,0,1,.053,1.09.884.884,0,0,0,.559.215c.612,0,1.109-.684,1.109-1.529a1.791,1.791,0,0,0-.39-1.151c-.019-.023-.035-.051-.056-.073H46.514c-.008.009-.014.02-.022.029a1.779,1.779,0,0,0-.423,1.2A2.068,2.068,0,0,0,46.137,38.433Z"/><path class="cls-8" d="M47.062,38.7a.526.526,0,0,0-.5-.551.488.488,0,0,0-.429.288.58.58,0,0,0-.068.263.525.525,0,0,0,.5.551.454.454,0,0,0,.053-.012A.527.527,0,0,0,47.062,38.7Z"/><path class="cls-10" d="M56.054,35.259h6.929a.844.844,0,0,0,0-1.688H56.054a.844.844,0,0,0,0,1.688Z"/><rect class="cls-10" x="43.744" y="33.715" width="5.651" height="1.622" rx="0.763"/><path class="cls-9" d="M25.479,71.844h0c.677-.814,1.594-1.895,2.505-2.9.724-.8,1.441-1.558,2.021-2.082.724-.655,1.881-2.178,2.9-2.255,3.54-.263,5.822-3.45,7.391-5a53.239,53.239,0,0,1,4.583-3.9c-.115-.48-.232-.959-.345-1.44h0v-.01h0c-.009-.038-.016-.076-.025-.113-.224-.961-.431-1.926-.635-2.891a15.5,15.5,0,0,0-1.728.977,22.958,22.958,0,0,0-2.962,2.274,5.244,5.244,0,0,0-.161-.61,1.016,1.016,0,0,0,.732-.323,2.242,2.242,0,0,0,.446-1.713c-.033-.367-.091-1.721-.168-3.256-.029-.58-.061-1.184-.095-1.773-.124-2.127-.279-4.034-.451-3.69a1.7,1.7,0,0,0-.372-.392,1.76,1.76,0,0,0-.566-.3,2.541,2.541,0,0,0-.878-.108,6.3,6.3,0,0,0-2.689.888c-2.115-.893-5.248.674-6.683.833-2.4.265-2.725.01-4,2.3-2.518,4.519-1.641,11.954-5.407,15.407a14.456,14.456,0,0,0-3.333,3.926c-.168.273-.444.667-.779,1.124h0C13.886,70,20.268,70.722,25.479,71.844Z"/><path class="cls-5" d="M25.479,71.844C20.268,70.722,13.886,70,14.782,66.8h0L3.568,80.414a59.97,59.97,0,0,0,12.668,20.61l9.243-29.18Z"/><path class="cls-8" d="M42.706,43.345c0,.014.009.115.019.258.036.482.113,1.521.178,1.957.21,1.417.405,2.836.674,4.243.812-.36,1.6-.777,2.409-1.131a11.093,11.093,0,0,1,5.129-.871,50.528,50.528,0,0,1,5.533.875c1.757.326,3.514.616,5.29.832,1.724.211,3.454.39,5.175.619,0,.018.009.036.013.054a27.664,27.664,0,0,1-.454-4.6c-.014-.512-.017-1.046-.012-1.595,0-.277,0-.552.01-.839L51.777,40.873a4.132,4.132,0,0,0-1.33.073l-7.089,1.568-.027,0A.934.934,0,0,0,42.706,43.345Z"/><path class="cls-8" d="M45.3,57.409l.023.1a1.824,1.824,0,0,0,.479.851c.514.52,1.116,1.057,1.76,1.594-.627-.528-1.21-1.053-1.711-1.556A2.1,2.1,0,0,1,45.3,57.409Z"/><path class="cls-8" d="M55.5,65.345a2.467,2.467,0,0,1-.726-.292A2.4,2.4,0,0,0,55.5,65.345Z"/><path class="cls-8" d="M56.214,65.42a3.666,3.666,0,0,1-.67-.067A3.352,3.352,0,0,0,56.214,65.42Z"/><path class="cls-8" d="M67.852,52.625l-.013-.028Z"/><path class="cls-8" d="M67.611,52.017c.021.059.046.115.068.174-.031-.085-.064-.17-.094-.259C67.594,51.958,67.6,51.991,67.611,52.017Z"/><path class="cls-8" d="M68.7,54.08l.013.018h0c.013.015.033.033.048.05C68.738,54.124,68.717,54.1,68.7,54.08Z"/><path class="cls-8" d="M43.631,50.115c.075.376.165.75.245,1.125.2.965.411,1.93.635,2.891C44.2,52.8,43.9,51.459,43.631,50.115Z"/><path class="cls-4" d="M54.772,65.053a2.467,2.467,0,0,0,.726.292c.015,0,.031,0,.046.008a3.666,3.666,0,0,0,.67.067c4.325.131,12.694-6.188,14.328-10.061h0a8.837,8.837,0,0,1-1.785-1.211c-.015-.017-.035-.035-.048-.05a28.92,28.92,0,0,1-3.7,4.156,28.886,28.886,0,0,1-3.835,3.2,9.832,9.832,0,0,1-4.242,1.711c-1.839.239-3.791-.253-5.644-.367l.126.087C53.052,64.028,53.89,64.509,54.772,65.053Z"/><path class="cls-12" d="M45.3,57.409a2.1,2.1,0,0,0,.551.986c.5.5,1.084,1.028,1.711,1.556,1.155.974,2.466,1.96,3.728,2.846,1.853.114,3.805.606,5.644.367a9.832,9.832,0,0,0,4.242-1.711,28.886,28.886,0,0,0,3.835-3.2,28.92,28.92,0,0,0,3.7-4.156h0L68.7,54.08c-.094-.122-.187-.255-.279-.4a7.722,7.722,0,0,1-.549-1.022c0-.012-.011-.023-.017-.036l-.013-.028c-.058-.132-.108-.269-.16-.406-.022-.059-.047-.115-.068-.174-1.623.8-3.276,1.654-4.952,2.348-1.459.6-2.954,1.115-4.414,1.719a21.466,21.466,0,0,1-4.282,1.426,7.886,7.886,0,0,1-3.675-.411,54.382,54.382,0,0,1-5.75-2.845c.113.481.23.96.345,1.44.138.571.272,1.142.412,1.712Z"/><polygon class="cls-12" points="44.536 54.244 44.537 54.248 44.536 54.244 44.536 54.244"/><path class="cls-8" d="M50.288,57.1a7.886,7.886,0,0,0,3.675.411,21.466,21.466,0,0,0,4.282-1.426c1.46-.6,2.955-1.115,4.414-1.719,1.676-.694,3.329-1.549,4.952-2.348-.009-.026-.017-.059-.026-.085a14.811,14.811,0,0,1-.459-1.751c0-.018-.009-.036-.013-.054-1.721-.229-3.451-.408-5.175-.619-1.776-.216-3.533-.506-5.29-.832a50.528,50.528,0,0,0-5.533-.875,11.093,11.093,0,0,0-5.129.871c-.807.354-1.6.771-2.409,1.131l-.006,0,.06.309c.269,1.344.568,2.681.88,4.016.009.037.016.075.025.113v.01h0A54.382,54.382,0,0,0,50.288,57.1Z"/><path class="cls-9" d="M73.537,35.288l-2.069,2.519-.728.887a1.132,1.132,0,0,0,.043,1.524,1.473,1.473,0,0,0,1,.368,3.381,3.381,0,0,0,.646-.048c.054-.009.1,0,.153-.015.948-.186,3.322-2.6,3.322-2.6.392-.009.759,0,1.114.018.11,0,.224.008.331.014a1.148,1.148,0,0,1,.646.018l.053.018L78.3,38a6.635,6.635,0,0,0,1.656-.12,4.31,4.31,0,0,0,1.1-.4,17.143,17.143,0,0,0,1.821,2.081c3.757,1.058,9.747,2.848,8.861,5.137a5.479,5.479,0,0,0-.764-5.054l-8.5-6.551a1.751,1.751,0,0,0-1.564-.292l-.5.148L74.4,34.719A1.744,1.744,0,0,0,73.537,35.288Z"/><path class="cls-9" d="M82.88,39.558l-1.038-.292L88.1,41.361a1.9,1.9,0,0,1,1.044,2.184,2.151,2.151,0,0,1-.088.3,2.424,2.424,0,0,1-3.218,1.6c-2.225-.943-5.626-1.646-7.518-2.685a2.548,2.548,0,0,1-.544.61l6.691,2.21a1.483,1.483,0,0,1,.912,1.839,1.57,1.57,0,0,1-.1.248c-.579,1.18-2.168,2.3-3.385,1.8-1.4-.574-3.307-.986-4.957-1.468.281,1.117.575,2.228.754,3.27,0,6.575-1.428,9.416,1.757,12.543a11.987,11.987,0,0,0,1.085.95l2.564,4.814h0c5.911-.127,10.47-1.605,13.95-4.16l-6.517-7.052c-.3-4.474.807-9.836,1.216-13.679C92.627,42.406,86.637,40.616,82.88,39.558Z"/><path class="cls-9" d="M74.6,41.249l-1.333,1.858,0,.006a4.073,4.073,0,0,1,.3-.382,1.165,1.165,0,0,1,1.217-.338l.009,0,2.979.984a2.548,2.548,0,0,0,.544-.61c1.892,1.039,5.293,1.742,7.518,2.685a2.424,2.424,0,0,0,3.218-1.6,2.151,2.151,0,0,0,.088-.3A1.9,1.9,0,0,0,88.1,41.361l-6.253-2.095-2-.672-1.5-.5-.29-.1-.053-.018a1.148,1.148,0,0,0-.646-.018,1.317,1.317,0,0,0-.723.469Z"/><path class="cls-9" d="M74.792,42.4l-.009,0a1.165,1.165,0,0,0-1.217.338,4.073,4.073,0,0,0-.3.382,4.5,4.5,0,0,0-.78,2.242,8.7,8.7,0,0,0,.376,3.069c.095.328.172.566.187.665a1.521,1.521,0,0,0,.844-.162,1.857,1.857,0,0,0,.612-.445,1.159,1.159,0,0,0,.294-.668,1.206,1.206,0,0,0-.1-.629c.131.068.285.129.431.193.2.086.4.169.62.248.371.135.766.262,1.182.383,1.65.482,3.554.894,4.957,1.468,1.217.5,2.806-.62,3.385-1.8a1.57,1.57,0,0,0,.1-.248,1.483,1.483,0,0,0-.912-1.839l-6.691-2.21Z"/><path class="cls-5" d="M97.042,65.426c-3.48,2.555-8.039,4.033-13.95,4.16h0l15.949,35.955a60.155,60.155,0,0,0,15.737-21.066L97.042,65.426Z"/></g><g class="cls-13"><path class="cls-14" d="M62.035,58.513c-1.353,1.7-1.353,4.156-1.353,5.384C57,67.582,49.628,63.9,48.4,58.985a6.753,6.753,0,0,1,3.685-6.141c2.456,7.369,4.912-4.913,7.792,3.162C60.393,56.9,62.035,57.409,62.035,58.513Z"/></g><path class="cls-14" d="M64.54,71.079a2.51,2.51,0,1,1-5.01,0c0-1.383,2.5-4.866,2.5-4.866S64.54,69.7,64.54,71.079Z"/><polygon class="cls-15" points="103.219 59.242 98.675 54.699 87.936 65.438 77.196 54.699 72.652 59.242 83.392 69.982 72.652 80.722 77.196 85.265 87.936 74.526 98.675 85.265 103.219 80.722 92.479 69.982 103.219 59.242"/></g></g></svg>