<svg id="Ilustraciones" xmlns="http://www.w3.org/2000/svg" xmlns:xlink="http://www.w3.org/1999/xlink" viewBox="0 0 120 120"><defs><style>.cls-1{fill:none;}.cls-2{fill:#7fc3de;}.cls-3{fill:#e5f3f8;}.cls-4{fill:#fff;}.cls-5{fill:#10303f;}.cls-6{fill:#1c4156;}.cls-7{fill:#00558c;}.cls-8{fill:#e11e19;}.cls-9{clip-path:url(#clip-path);}.cls-10{fill:#0087be;}.cls-11{fill:#bfe1ef;}</style><clipPath id="clip-path"><circle class="cls-1" cx="62.103" cy="61.457" r="15.191"/></clipPath></defs><circle class="cls-2" cx="60" cy="60" r="60"/><path class="cls-3" d="M30.761,16.431a1.722,1.722,0,0,0-1.722,1.722v83.694a1.722,1.722,0,0,0,1.722,1.722H62.1V16.431Z"/><path class="cls-3" d="M93.445,16.431H62.1v87.138H93.445a1.722,1.722,0,0,0,1.722-1.722V18.153A1.722,1.722,0,0,0,93.445,16.431Z"/><path class="cls-4" d="M30.761,16.431c-.951,0-1.722.488-1.722,1.44v2H62.1V16.431Z"/><path class="cls-4" d="M95.167,17.871c0-.952-.771-1.44-1.722-1.44H62.1v3.444H95.167Z"/><rect class="cls-4" x="29.039" y="34.341" width="66.129" height="1.722"/><rect class="cls-4" x="29.039" y="91.17" width="66.129" height="1.722"/><path class="cls-4" d="M62.1,38.036V84.878a23.421,23.421,0,0,0,0-46.842Z"/><path class="cls-4" d="M38.682,61.457A23.421,23.421,0,0,0,62.1,84.878V38.036A23.421,23.421,0,0,0,38.682,61.457Z"/><path class="cls-5" d="M43.994,61.457A18.109,18.109,0,0,0,62.1,79.566V43.348A18.109,18.109,0,0,0,43.994,61.457Z"/><path class="cls-5" d="M62.1,43.348V79.566a18.109,18.109,0,0,0,0-36.218Z"/><path class="cls-6" d="M47.034,61.457A15.069,15.069,0,0,0,62.1,76.525V46.388A15.069,15.069,0,0,0,47.034,61.457Z"/><path class="cls-6" d="M62.1,46.388V76.525a15.069,15.069,0,1,0,0-30.137Z"/><path class="cls-4" d="M75.461,68.587l5.93,2.695V52.665l-5.93,2.7a1.692,1.692,0,0,0-.959,1.613v10A1.692,1.692,0,0,0,75.461,68.587Z"/><rect class="cls-4" x="31.191" y="22.286" width="19.632" height="9.988" rx="1.205"/><path class="cls-7" d="M33.43,30.552H48.584V29.06c0-.677-.463-.919-1.14-.919H34.57c-.677,0-1.14.242-1.14.919Z"/><circle class="cls-4" cx="62.103" cy="27.101" r="3.358"/><rect class="cls-5" x="74.158" y="22.286" width="18.599" height="4.822"/><circle class="cls-8" cx="76.569" cy="29.483" r="1.033"/><circle class="cls-7" cx="80.013" cy="29.483" r="1.033"/><circle class="cls-7" cx="83.457" cy="29.483" r="1.033"/><circle class="cls-7" cx="86.901" cy="29.483" r="1.033"/><circle class="cls-7" cx="90.346" cy="29.483" r="1.033"/><g class="cls-9"><path class="cls-4" d="M61.864,66.429l-.4.481c-4.865-4.083-8.819-7.61-11.433-10.2a33.649,33.649,0,0,1-2.721-2.949c-.7-.9-.887-1.4-.641-1.73s.789-.36,2.58.6a66.259,66.259,0,0,1,5.608,3.533l-.355.518c-5.473-3.742-6.936-4.191-7.291-4.228C47.46,53.29,50.73,57.083,61.864,66.429Z"/><path class="cls-10" d="M71.8,60.642l-8.575,5.27c-3.287-4.7-6.952-9.491-7.506-13.46a.583.583,0,0,1,.254-.81l9.34-4.552Z"/><path class="cls-4" d="M70.818,63.361a27.244,27.244,0,0,1-8.551,3.957.744.744,0,0,1-.985-.357A30.828,30.828,0,0,0,54.431,56.71a.557.557,0,0,1,.048-.821,70.959,70.959,0,0,0,10.831-8.8,6.99,6.99,0,0,1,3.476,5.527C69.84,56.056,71.566,59,71.8,60.642A2.031,2.031,0,0,1,70.818,63.361Z"/><path class="cls-2" d="M66.174,57.994c-1.765.71-3.542,1.445-5.352,2.033a12.959,12.959,0,0,1-2.987.7,25.805,25.805,0,0,1,3.447,6.231.744.744,0,0,0,.985.357,27.244,27.244,0,0,0,8.551-3.957,2.031,2.031,0,0,0,.979-2.719,22.7,22.7,0,0,0-1.623-4.329Q68.187,57.182,66.174,57.994Z"/><path class="cls-11" d="M59.887,62.8c.854-.068,1.722-.125,2.568-.256a22.278,22.278,0,0,0,5.974-1.993c.98-.456,1.97-.9,2.956-1.346-.619-1.653-1.763-3.912-2.556-6.447a35.209,35.209,0,0,1-4.051,2.513,23.457,23.457,0,0,1-5.831,2.2,13.921,13.921,0,0,1-3.452.379,34.862,34.862,0,0,1,3.753,4.984C59.461,62.827,59.674,62.813,59.887,62.8Z"/><path class="cls-4" d="M57.427,52.555a.317.317,0,0,1-.25.157c-3.607.258-7.057-.755-10.394-1.734l-.189-.056a.314.314,0,1,1,.176-.6l.19.055c3.283.964,6.678,1.961,10.172,1.71a.315.315,0,0,1,.336.291A.32.32,0,0,1,57.427,52.555Z"/><path class="cls-4" d="M55.126,73.43a4.9,4.9,0,0,1,.647.164,3.415,3.415,0,0,1,5.273-1.432,5.409,5.409,0,0,1,10.129,1.486,4.576,4.576,0,0,1,5.381,6.234c.04.006.079.011.12.019a3.416,3.416,0,1,1-3.963,2.762l.006-.031a4.578,4.578,0,0,1-4.684-3.048,5.4,5.4,0,0,1-6.818-2.176A3.412,3.412,0,0,1,59,78.272a4.881,4.881,0,0,1-.068.619,4.707,4.707,0,1,1-3.806-5.461Z"/><circle class="cls-4" cx="52.332" cy="66.74" r="2.816"/><circle class="cls-4" cx="72.135" cy="54.523" r="2.069"/><circle class="cls-4" cx="71.157" cy="71.282" r="2.582"/></g></svg>