<?xml version="1.0" encoding="utf-8"?>
<!-- Generator: Adobe Illustrator 24.1.1, SVG Export Plug-In . SVG Version: 6.00 Build 0)  -->
<svg version="1.1" id="Layer_1" xmlns="http://www.w3.org/2000/svg" xmlns:xlink="http://www.w3.org/1999/xlink" x="0px" y="0px"
	 viewBox="0 0 120 120" style="enable-background:new 0 0 120 120;" xml:space="preserve">
<style type="text/css">
	.st0{fill:#7FC3DE;}
	.st1{fill:#FFFFFF;}
	.st2{fill:#BFE1EF;}
	.st3{opacity:0.42;fill:#FFFFFF;enable-background:new    ;}
	.st4{fill:#060606;fill-opacity:0;}
	.st5{opacity:4.800000e-02;fill:#0E0E0E;enable-background:new    ;}
	.st6{opacity:9.500000e-02;fill:#161616;enable-background:new    ;}
	.st7{opacity:0.143;fill:#1E1E1E;enable-background:new    ;}
	.st8{opacity:0.19;fill:#262626;enable-background:new    ;}
	.st9{opacity:0.238;fill:#2E2E2E;enable-background:new    ;}
	.st10{opacity:0.286;fill:#363636;enable-background:new    ;}
	.st11{opacity:0.333;fill:#3E3E3E;enable-background:new    ;}
	.st12{opacity:0.381;fill:#464646;enable-background:new    ;}
	.st13{opacity:0.429;fill:#4E4E4E;enable-background:new    ;}
	.st14{opacity:0.476;fill:#565656;enable-background:new    ;}
	.st15{opacity:0.524;fill:#5F5F5F;enable-background:new    ;}
	.st16{opacity:0.571;fill:#676767;enable-background:new    ;}
	.st17{opacity:0.619;fill:#6F6F6F;enable-background:new    ;}
	.st18{opacity:0.667;fill:#777777;enable-background:new    ;}
	.st19{opacity:0.714;fill:#7F7F7F;enable-background:new    ;}
	.st20{opacity:0.762;fill:#878787;enable-background:new    ;}
	.st21{opacity:0.81;fill:#8F8F8F;enable-background:new    ;}
	.st22{opacity:0.857;fill:#979797;enable-background:new    ;}
	.st23{opacity:0.905;fill:#9F9F9F;enable-background:new    ;}
	.st24{opacity:0.952;fill:#A7A7A7;enable-background:new    ;}
	.st25{fill:#AFAFAF;}
	.st26{opacity:0.7;}
	.st27{fill:#E11E19;}
</style>
<g>
	<g id="Ilustraciones">
		<circle class="st0" cx="60" cy="60" r="60"/>
		<path class="st1" d="M54.4,77.4L54.4,77.4h1l0,0c0,5.2,3.1,10,7.8,12.1c2.9,1.3,5.5,1.1,7-0.5c1.7-1.8,1.6-5.4-0.2-10.1l0.9-0.4
			c2.6,6.5,1.4,9.7,0,11.2c-1.7,1.9-4.8,2.1-8.1,0.7c-2.3-1.1-4.4-2.7-5.8-4.8C55.3,83.3,54.3,80.4,54.4,77.4z"/>
		<path class="st1" d="M52.5,43.1c-0.1-3.5,1.6-6.8,4.5-8.8c3.3-2.2,7.8-2.2,10.6-0.2c1.5,1.1,3.8,3.8,2.3,9.2l-1-0.3
			c1-3.6,0.3-6.5-1.9-8.1c-2.5-1.8-6.5-1.7-9.5,0.2c-3.4,2.2-4.8,6.2-3.7,11l-1,0.2C52.7,45.3,52.5,44.2,52.5,43.1z"/>
		<path class="st1" d="M52.9,77.3C48,66.1,46.4,56,51.8,45.8c0.1-0.2,0.3-0.3,0.5-0.4l16.8-2.9c0.4-0.1,0.8,0.2,0.9,0.5
			c3,12.2,3.8,24,0.9,35.8c-0.1,0.4-0.4,0.6-0.8,0.6l-16.6-1.7C53.3,77.8,53,77.6,52.9,77.3z"/>
		<path class="st2" d="M62.7,43.7l-10.3,1.8c-0.2,0-0.4,0.2-0.5,0.4c-5.4,10.2-3.9,20.2,1,31.5c0.1,0.3,0.4,0.4,0.7,0.4l9.5,1
			C63.6,66.4,65.2,55.5,62.7,43.7z"/>
		<path class="st0" d="M57,44.7l-4.7,0.8c-0.2,0-0.4,0.2-0.5,0.4c-5.4,10.2-3.8,20.2,1.1,31.5c0.1,0.3,0.4,0.4,0.7,0.4l5.4,0.5
			C56.9,66.5,53.7,56.6,57,44.7z"/>
		<rect x="34.5" y="17.1" class="st3" width="56.7" height="85.8"/>
		<g>
			<rect x="34.5" y="25.5" class="st4" width="56.7" height="1.8"/>
			<rect x="34.5" y="25.5" class="st5" width="56.7" height="1.7"/>
			<rect x="34.5" y="25.6" class="st6" width="56.7" height="1.6"/>
			<rect x="34.5" y="25.6" class="st7" width="56.7" height="1.6"/>
			<rect x="34.5" y="25.6" class="st8" width="56.7" height="1.5"/>
			<rect x="34.5" y="25.7" class="st9" width="56.7" height="1.4"/>
			<rect x="34.5" y="25.7" class="st10" width="56.7" height="1.4"/>
			<rect x="34.5" y="25.7" class="st11" width="56.7" height="1.3"/>
			<rect x="34.5" y="25.8" class="st12" width="56.7" height="1.2"/>
			<rect x="34.5" y="25.8" class="st13" width="56.7" height="1.2"/>
			<rect x="34.5" y="25.9" class="st14" width="56.7" height="1.1"/>
			<rect x="34.5" y="25.9" class="st15" width="56.7" height="1"/>
			<rect x="34.5" y="25.9" class="st16" width="56.7" height="0.9"/>
			<rect x="34.5" y="26" class="st17" width="56.7" height="0.9"/>
			<rect x="34.5" y="26" class="st18" width="56.7" height="0.8"/>
			<rect x="34.5" y="26" class="st19" width="56.7" height="0.7"/>
			<rect x="34.5" y="26.1" class="st20" width="56.7" height="0.7"/>
			<rect x="34.5" y="26.1" class="st21" width="56.7" height="0.6"/>
			<rect x="34.5" y="26.1" class="st22" width="56.7" height="0.5"/>
			<rect x="34.5" y="26.2" class="st23" width="56.7" height="0.4"/>
			<rect x="34.5" y="26.2" class="st24" width="56.7" height="0.4"/>
			<rect x="34.5" y="26.2" class="st25" width="56.7" height="0.3"/>
		</g>
		<g class="st26">
			<rect x="34.5" y="19.4" class="st27" width="56.7" height="0.8"/>
		</g>
		<rect x="34.5" y="18.6" class="st25" width="56.7" height="0.1"/>
		<rect x="34.5" y="20.7" class="st25" width="56.7" height="0.1"/>
		<rect x="34.5" y="21.5" class="st25" width="56.7" height="0.1"/>
		<rect x="34.5" y="22.4" class="st25" width="56.7" height="0.1"/>
		<rect x="34.5" y="23.3" class="st25" width="56.7" height="0.1"/>
	</g>
</g>
</svg>
