<svg id="Ilustraciones" xmlns="http://www.w3.org/2000/svg" viewBox="0 0 120 120"><defs><style>.cls-1{fill:#7fc3de;}.cls-2{fill:#e11e19;}.cls-3{fill:#00558c;}.cls-4{fill:#f0c32d;}.cls-5{fill:#fff;}.cls-6{fill:#d1ecfb;}.cls-7{fill:#009ba1;}.cls-8{fill:#10303f;}</style></defs><circle class="cls-1" cx="60" cy="60" r="60"/><path class="cls-2" d="M56.8,42.33h7.35a2.116,2.116,0,0,0,2.034-2.172v-3.58H56.8Z"/><path class="cls-3" d="M95.188,38.792,89.7,35.4l6.923-9.839a1.251,1.251,0,0,1,1.652-.055L100.2,26.7c.628.388.933,1.051.69,1.5Z"/><path class="cls-4" d="M44.688,38.225h9.081V32.777H46.956a2.3,2.3,0,0,0-2.268,2.084Z"/><path class="cls-5" d="M82.371,50.92,66.655,53.571l-.4-2.377a1.316,1.316,0,0,1,1.079-1.517l13.118-2.213a1.317,1.317,0,0,1,1.518,1.079Z"/><path class="cls-5" d="M103.534,62.161,92.63,31.683a3.143,3.143,0,0,0-3-2.067H70.785A46.044,46.044,0,0,0,35.213,46.1L11.762,74.113H88.119c4.675-5.752,11.036-8.394,14.188-9.521A1.857,1.857,0,0,0,103.534,62.161ZM87.92,49.094,64.378,52.967A6.036,6.036,0,0,1,57.4,47.036v-.057a9.869,9.869,0,0,1,9.648-9.19H83.5a3.314,3.314,0,0,1,3.043,2.292L88.961,47.3A1.38,1.38,0,0,1,87.92,49.094Z"/><path class="cls-6" d="M11.762,74.113H88.119c4.675-5.752,11.036-8.394,14.188-9.521a1.943,1.943,0,0,0,1.227-2.514l-1.712-4.75L18.883,65.58Z"/><path class="cls-3" d="M37.636,52.358A59.754,59.754,0,0,1,50.14,40.5a8.825,8.825,0,0,0,3.629-7.46v-.259A45.237,45.237,0,0,0,35.144,46.182l-10.966,13.1h7.831Z"/><path class="cls-7" d="M18.787,65.72l74.34-7.482-3.16-8a1.859,1.859,0,0,0-2.027-1.152h0l-.02.005L64.556,52.967a5.885,5.885,0,0,1-1,.08L24.178,59.281Z"/><rect class="cls-8" x="7.759" y="74.113" width="83.242" height="3.027" rx="1.444"/><path class="cls-5" d="M47.184,100.59s4.186-3.749,1.14-7.563-6.676-9.541.052-14.2c-2.736,6.25,2.285,7.8,4.075,12.73S49.917,99.916,47.184,100.59Z"/><path class="cls-5" d="M62.244,93.541s2.891-2.474.886-5.1-4.374-6.559.251-9.608c-1.947,4.189,1.428,5.314,2.565,8.679S64.1,93.126,62.244,93.541Z"/><path class="cls-5" d="M31.044,95.78s3.484-2.794,1.231-5.951-4.884-7.859.656-11.262c-2.441,4.841,1.475,6.287,2.682,10.277S33.241,95.363,31.044,95.78Z"/></svg>