<?xml version="1.0" encoding="utf-8"?>
<!-- Generator: Adobe Illustrator 24.1.1, SVG Export Plug-In . SVG Version: 6.00 Build 0)  -->
<svg version="1.1" id="Layer_1" xmlns="http://www.w3.org/2000/svg" xmlns:xlink="http://www.w3.org/1999/xlink" x="0px" y="0px"
	 viewBox="0 0 70 70" style="enable-background:new 0 0 70 70;" xml:space="preserve">
<style type="text/css">
	.st0{clip-path:url(#SVGID_2_);}
	.st1{fill:#96A0A5;}
</style>
<g>
	<defs>
		<rect id="SVGID_1_" width="70" height="70"/>
	</defs>
	<clipPath id="SVGID_2_">
		<use xlink:href="#SVGID_1_"  style="overflow:visible;"/>
	</clipPath>
	<g id="guias" class="st0">
		<path class="st1" d="M54.6,45.4c0.7-1.4,1.1-2.9,1.2-4.4l0.1-1.2l-1.3-0.3c-4.3-1-8.9-0.3-12.7,2.1c-0.3,0.2-0.5,0.4-0.8,0.6
			c-0.3-4-2.3-7.7-5.5-10l-1-0.8l-1,0.8c-3.2,2.4-5.3,6.1-5.5,10.1c-0.3-0.2-0.6-0.4-0.9-0.6c-3.8-2.4-8.4-3.1-12.7-2.1l-1.3,0.3
			l0.1,1.2c0.1,1.5,0.5,3,1.2,4.4c-4.4-1.9-7.2-6.1-7.3-10.9c0-6.4,5.4-11.6,12.5-12.2l1.4-0.1l0-1.3c0.1-6.6,6.2-12,13.6-12
			s13.4,5.4,13.6,12l0,1.3l1.4,0.1c7,0.5,12.4,5.9,12.4,12.2C61.9,39.2,59,43.5,54.6,45.4 M47.7,48.8c-2.6,1.6-5.7,2.3-8.8,1.9
			c0.6-2.8,2.3-5.3,4.8-6.9c2.6-1.6,5.7-2.3,8.7-1.9C51.9,44.8,50.2,47.3,47.7,48.8 M34.6,50.1c-4.1-3.6-4.6-9.9-0.9-14.1
			c0.3-0.3,0.6-0.6,0.9-0.9c4.1,3.6,4.6,9.9,0.9,14.1C35.2,49.5,34.9,49.8,34.6,50.1 M21.4,48.8c-2.5-1.5-4.2-4-4.8-6.9
			c3-0.4,6.1,0.2,8.7,1.9c2.5,1.5,4.2,4,4.8,6.9C27.1,51.2,24,50.5,21.4,48.8 M65.2,34.4c0-3.9-1.6-7.6-4.4-10.2
			c-2.6-2.5-5.9-4.1-9.5-4.6c-0.4-3.6-2.2-6.9-4.9-9.3c-6.7-5.8-16.7-5.8-23.4,0c-2.7,2.4-4.5,5.7-4.9,9.3c-3.6,0.5-7,2.1-9.6,4.7
			C5.6,26.9,4,30.6,4,34.4c0,7.2,5.6,13.2,13.1,14.7c0.7,0.7,1.5,1.4,2.4,2c2.6,1.7,5.7,2.5,8.8,2.5c1.3,0,2.6-0.1,3.9-0.4l0.7-0.2
			V69h3.1V53.1l0.7,0.1c1.3,0.3,2.6,0.4,3.9,0.4c3.1,0,6.2-0.8,8.8-2.5c0.9-0.6,1.7-1.2,2.4-1.9C59.5,47.8,65.2,41.7,65.2,34.4"/>
	</g>
</g>
</svg>
