<?xml version="1.0" encoding="utf-8"?>
<!-- Generator: Adobe Illustrator 24.1.1, SVG Export Plug-In . SVG Version: 6.00 Build 0)  -->
<svg version="1.1" id="Layer_1" xmlns="http://www.w3.org/2000/svg" xmlns:xlink="http://www.w3.org/1999/xlink" x="0px" y="0px"
	 viewBox="0 0 70 70" style="enable-background:new 0 0 70 70;" xml:space="preserve">
<style type="text/css">
	.st0{clip-path:url(#SVGID_2_);}
	.st1{fill:#96A0A5;}
</style>
<g>
	<defs>
		<rect id="SVGID_1_" width="70" height="70"/>
	</defs>
	<clipPath id="SVGID_2_">
		<use xlink:href="#SVGID_1_"  style="overflow:visible;"/>
	</clipPath>
	<g id="Ebene_11" class="st0">
		<path class="st1" d="M36.5,44.7c-2.3,0-4.2,1.9-4.2,4.2s1.9,4.2,4.2,4.2s4.2-1.9,4.2-4.2c0,0,0,0,0,0
			C40.7,46.5,38.8,44.7,36.5,44.7C36.5,44.7,36.5,44.7,36.5,44.7"/>
		<path class="st1" d="M25.9,44.7c-2.3,0-4.2,1.9-4.2,4.2c0,2.3,1.9,4.2,4.2,4.2c2.3,0,4.2-1.9,4.2-4.2
			C30.1,46.5,28.2,44.7,25.9,44.7C25.9,44.7,25.9,44.7,25.9,44.7"/>
		<path class="st1" d="M47,53.1c2.3,0,4.2-1.9,4.2-4.2s-1.9-4.2-4.2-4.2s-4.2,1.9-4.2,4.2l0,0C42.8,51.2,44.7,53.1,47,53.1"/>
		<path class="st1" d="M61.2,60.1H7.5c-0.7-3.6-1.2-13.4,10.8-19c12.3-5.8,32-4.4,42.8-2.5V60.1z M65,62V19c0-1.1-0.9-1.9-1.9-1.9
			H16.2c-1.1,0-1.9,0.9-1.9,1.9s0.9,1.9,1.9,1.9h45v13.8c-13.4-2.3-32.3-2.8-44.4,2.9C-1,46,4.1,62.5,4.2,62.6C4.5,63.4,5.2,64,6,64
			h57.1C64.1,64,65,63.1,65,62"/>
	</g>
</g>
</svg>
