<?xml version="1.0" encoding="utf-8"?>
<!-- Generator: Adobe Illustrator 24.1.3, SVG Export Plug-In . SVG Version: 6.00 Build 0)  -->
<svg version="1.1" id="Layer_1" xmlns="http://www.w3.org/2000/svg" xmlns:xlink="http://www.w3.org/1999/xlink" x="0px" y="0px"
	 viewBox="0 0 600 354" style="enable-background:new 0 0 600 354;" xml:space="preserve">
<style type="text/css">
	.st0{fill:none;}
	.st1{fill:#E11E19;}
	.st2{fill:#FFFFFF;}
	.st3{fill:#F2BB93;}
	.st4{fill:#A55612;}
	.st5{fill:#0087BE;}
	.st6{fill:#CD9443;}
	.st7{fill:#C3C3C7;}
	.st8{fill:#1C1A21;}
	.st9{fill:#F7A91C;}
	.st10{fill:#FFFAC0;}
	.st11{fill:#F9DDC9;}
	.st12{fill:#E5BA68;}
	.st13{fill:#404040;}
	.st14{fill:#FFC431;}
	.st15{fill:url(#SVGID_4_);}
	.st16{fill:url(#SVGID_5_);}
	.st17{fill:url(#SVGID_6_);}
	.st18{opacity:0.3;}
	.st19{opacity:0.47;}
</style>
<pattern  y="354" width="122.4" height="122.6" patternUnits="userSpaceOnUse" id="SVGID_1_" viewBox="0 -122.6 122.4 122.6" style="overflow:visible;">
	<g>
		<rect y="-122.6" class="st0" width="122.4" height="122.6"/>
		<g>
			<rect y="-122.6" class="st0" width="122.4" height="122.6"/>
			<g>
				<rect y="-122.6" class="st0" width="122.4" height="122.6"/>
				<g>
					<rect y="-122.6" class="st0" width="122.4" height="122.6"/>
					<rect y="-122.6" class="st0" width="122.4" height="122.6"/>
					<rect y="-122.6" class="st1" width="122.4" height="122.4"/>
					<path class="st0" d="M122.4-51.9v42.4c-5.1,0-9.3,4.2-9.3,9.3l0,0v0.1H90.9v-0.1c-0.1-5.2-4.3-9.3-9.4-9.2
						c-5.1,0.1-9.2,4.2-9.2,9.2v0.1H50.1v-0.1c-0.1-5.2-4.3-9.3-9.4-9.2c-5.1,0.1-9.2,4.2-9.2,9.2v0.1H9.3v-0.1
						c0-5.1-4.2-9.3-9.3-9.3l0,0v-42.4c5.1,0,9.3-4.2,9.3-9.3l0,0c0-5.2-4.1-9.4-9.3-9.4l0,0V-113c5.1,0,9.3-4.2,9.3-9.3l0,0v-0.1
						h22.2v0.1c0.1,5.2,4.3,9.3,9.4,9.2s9.2-4.2,9.2-9.2v-0.1h22.2v0.1c0.1,5.2,4.3,9.3,9.4,9.2s9.2-4.2,9.2-9.2v-0.1h22.2v0.1
						c0,5.1,4.2,9.3,9.3,9.3l0,0v42.4c-5.1,0.1-9.3,4.3-9.2,9.4C113.2-56.1,117.3-52,122.4-51.9z M9.3-91.8c0,5.2,4.2,9.3,9.3,9.3
						s9.4-4.1,9.4-9.3c0-5.2-4.2-9.3-9.3-9.3C13.5-101.1,9.3-96.9,9.3-91.8z M29.7-30.7c0-5.2-4.2-9.3-9.3-9.3s-9.3,4.2-9.3,9.3
						c0,5.2,4.2,9.3,9.3,9.3C25.6-21.4,29.7-25.6,29.7-30.7L29.7-30.7z M50.1-61.3c0-5.2-4.2-9.3-9.3-9.3s-9.3,4.2-9.3,9.3
						s4.2,9.3,9.3,9.3l0,0C46-51.9,50.1-56.1,50.1-61.3L50.1-61.3L50.1-61.3z M50.1-91.8c0,5.2,4.2,9.3,9.3,9.3
						c5.2,0,9.3-4.2,9.3-9.3c0-5.1-4.2-9.3-9.3-9.3S50.1-96.9,50.1-91.8L50.1-91.8L50.1-91.8z M70.5-30.7c0-5.2-4.2-9.3-9.3-9.3
						s-9.3,4.2-9.3,9.3c0,5.1,4.2,9.3,9.3,9.3l0,0C66.4-21.4,70.5-25.6,70.5-30.7L70.5-30.7L70.5-30.7z M90.9-61.3
						c0-5.2-4.2-9.3-9.3-9.3c-5.2,0-9.3,4.2-9.3,9.3s4.2,9.3,9.3,9.3l0,0C86.8-51.9,90.9-56.1,90.9-61.3L90.9-61.3L90.9-61.3z
						 M90.9-91.8c0,5.1,4.2,9.3,9.3,9.3c5.1,0,9.3-4.2,9.3-9.3c0-5.1-4.2-9.3-9.3-9.3S90.9-96.9,90.9-91.8L90.9-91.8z M111.3-30.7
						c0-5.1-4.2-9.3-9.3-9.3s-9.3,4.2-9.3,9.3c0,5.1,4.2,9.3,9.3,9.3C107.2-21.4,111.3-25.6,111.3-30.7L111.3-30.7L111.3-30.7z"/>
					<path class="st2" d="M9.3-122.3L9.3-122.3L0-122.4v9.5C5.1-113,9.3-117.2,9.3-122.3L9.3-122.3z"/>
					<path class="st2" d="M40.8-113c5.2,0,9.3-4.2,9.3-9.3l0,0v-0.1H31.5v0.1C31.5-117.2,35.7-113,40.8-113L40.8-113z"/>
					<path class="st2" d="M81.6-113c5.1,0,9.3-4.2,9.3-9.3l0,0v-0.1H72.3v0.1C72.3-117.2,76.5-113,81.6-113L81.6-113z"/>
					<path class="st2" d="M122.4-113v-9.5h-9.3v0.1C113.1-117.2,117.3-113,122.4-113L122.4-113z"/>
					<path class="st2" d="M18.7-82.5c5.2,0,9.3-4.2,9.3-9.3c0-5.1-4.2-9.3-9.3-9.3s-9.3,4.2-9.3,9.3C9.3-86.6,13.5-82.5,18.7-82.5
						C18.6-82.5,18.6-82.5,18.7-82.5z"/>
					<path class="st2" d="M59.5-82.5c5.2,0,9.3-4.2,9.3-9.3c0-5.1-4.2-9.3-9.3-9.3s-9.3,4.2-9.3,9.3l0,0
						C50.1-86.6,54.3-82.5,59.5-82.5L59.5-82.5z"/>
					<path class="st2" d="M100.3-82.5c5.2,0,9.3-4.2,9.3-9.3c0-5.2-4.2-9.3-9.3-9.3S91-96.9,91-91.8l0,0
						C90.9-86.6,95.1-82.5,100.3-82.5L100.3-82.5z"/>
					<path class="st2" d="M0-9.5V0h9.3v-0.1C9.3-5.3,5.2-9.5,0-9.5L0-9.5z"/>
					<path class="st2" d="M40.8-9.5c-5.1,0-9.3,4.2-9.3,9.3v0.1h18.6v-0.1C50.1-5.3,46-9.5,40.8-9.5z"/>
					<path class="st2" d="M81.6-9.5c-5.2,0-9.3,4.2-9.3,9.3v0.1h18.6v-0.1C90.9-5.3,86.8-9.5,81.6-9.5L81.6-9.5z"/>
					<path class="st2" d="M113.1-0.2L113.1-0.2l9.3,0.1v-9.5C117.3-9.5,113.1-5.3,113.1-0.2L113.1-0.2z"/>
					<path class="st2" d="M20.4-40c-5.2,0-9.3,4.2-9.3,9.3c0,5.2,4.2,9.3,9.3,9.3s9.3-4.2,9.3-9.3C29.7-35.9,25.6-40,20.4-40
						L20.4-40z"/>
					<path class="st2" d="M61.2-40c-5.2,0-9.3,4.2-9.3,9.3c0,5.2,4.2,9.3,9.3,9.3c5.2,0,9.3-4.2,9.3-9.3l0,0
						C70.5-35.9,66.4-40,61.2-40z"/>
					<path class="st2" d="M102-40c-5.2,0-9.3,4.2-9.3,9.3c0,5.2,4.2,9.3,9.3,9.3c5.2,0,9.3-4.2,9.3-9.3l0,0
						C111.3-35.9,107.2-40,102-40L102-40z"/>
					<path class="st2" d="M9.3-61.3c0-5.1-4.1-9.3-9.3-9.3l0,0V-52C5.1-51.9,9.3-56.1,9.3-61.3L9.3-61.3z"/>
					<path class="st2" d="M40.8-70.6c-5.2,0-9.3,4.2-9.3,9.3s4.2,9.3,9.3,9.3s9.3-4.2,9.3-9.3C50.1-66.4,46-70.6,40.8-70.6z"/>
					<path class="st2" d="M81.6-70.6c-5.2,0-9.3,4.2-9.3,9.3c0,5.2,4.2,9.3,9.3,9.3c5.2,0,9.3-4.2,9.3-9.3l0,0
						C90.9-66.4,86.8-70.6,81.6-70.6z"/>
					<path class="st2" d="M113.1-61.3c0,5.1,4.2,9.3,9.3,9.3l0,0v-18.6C117.3-70.6,113.1-66.4,113.1-61.3L113.1-61.3z"/>
				</g>
			</g>
		</g>
	</g>
</pattern>
<pattern  y="354" width="122.4" height="122.4" patternUnits="userSpaceOnUse" id="SVGID_2_" viewBox="0 -122.5 122.4 122.4" style="overflow:visible;">
	<g>
		<rect y="-122.5" class="st0" width="122.4" height="122.4"/>
		<g>
			<rect y="-122.5" class="st0" width="122.4" height="122.4"/>
			<g>
				<rect y="-122.5" class="st0" width="122.4" height="122.4"/>
				<g>
					<rect y="-122.5" class="st0" width="122.4" height="122.4"/>
					<rect y="-122.5" class="st0" width="122.4" height="122.4"/>
					<path class="st0" d="M122.4-52v42.5c-5.1,0-9.3,4.2-9.3,9.3l0,0v0.1H90.9v-0.1c-0.1-5.2-4.3-9.3-9.4-9.2s-9.2,4.2-9.2,9.2v0.1
						H50.1v-0.1c-0.1-5.2-4.3-9.3-9.4-9.2s-9.2,4.2-9.2,9.2v0.1H9.3v-0.1c0-5.1-4.2-9.3-9.3-9.3l0,0v-42.4c5.1,0,9.3-4.2,9.3-9.3
						l0,0c0-5.1-4.2-9.3-9.3-9.3l0,0v-42.4c5.1,0,9.3-4.2,9.3-9.3l0,0v-0.1h22.2v0.1c-0.1,5.2,4.1,9.4,9.2,9.4s9.4-4.1,9.4-9.2
						c0-0.1,0-0.1,0-0.2v-0.1h22.2v0.1c0,5.2,4.2,9.3,9.3,9.3c5.1,0,9.3-4.2,9.3-9.3l0,0v-0.1h22.2v0.1c0,5.1,4.2,9.3,9.3,9.3l0,0
						v42.4c-5.1,0-9.3,4.2-9.3,9.3C113.1-56.1,117.3-52,122.4-52z M9.3-91.8c0,5.2,4.2,9.3,9.3,9.3s9.3-4.2,9.3-9.3
						c0-5.2-4.2-9.3-9.3-9.3C13.5-101.2,9.3-97,9.3-91.8z M29.7-30.8c0-5.2-4.2-9.3-9.3-9.3s-9.3,4.2-9.3,9.3c0,5.1,4.2,9.3,9.3,9.3
						C25.6-21.4,29.7-25.6,29.7-30.8L29.7-30.8z M50.1-61.3c0-5.2-4.2-9.3-9.3-9.3s-9.3,4.2-9.3,9.3c0,5.1,4.2,9.3,9.3,9.3l0,0
						C46-52,50.1-56.1,50.1-61.3L50.1-61.3L50.1-61.3z M50.1-91.8c0,5.2,4.2,9.3,9.3,9.3s9.3-4.2,9.3-9.3c0-5.1-4.2-9.3-9.3-9.3
						C54.3-101.2,50.1-97,50.1-91.8L50.1-91.8z M70.5-30.8c0-5.2-4.2-9.3-9.3-9.3s-9.3,4.2-9.3,9.3c0,5.1,4.2,9.3,9.3,9.3l0,0
						C66.4-21.4,70.5-25.6,70.5-30.8L70.5-30.8L70.5-30.8z M90.9-61.3c0-5.2-4.2-9.3-9.3-9.3c-5.2,0-9.3,4.2-9.3,9.3
						c0,5.1,4.2,9.3,9.3,9.3l0,0C86.8-52,90.9-56.1,90.9-61.3L90.9-61.3L90.9-61.3z M90.9-91.8c0,5.1,4.2,9.3,9.3,9.3
						c5.1,0,9.3-4.2,9.3-9.3c0-5.1-4.2-9.3-9.3-9.3S90.9-97,90.9-91.8L90.9-91.8z M111.3-30.8c0-5.1-4.2-9.3-9.3-9.3
						s-9.3,4.2-9.3,9.3c0,5.1,4.2,9.3,9.3,9.3C107.2-21.4,111.3-25.6,111.3-30.8C111.3-30.7,111.3-30.8,111.3-30.8L111.3-30.8z"/>
					<path class="st2" d="M9.3-122.4L9.3-122.4L0-122.5v9.5C5.1-113,9.3-117.2,9.3-122.4L9.3-122.4z"/>
					<path class="st2" d="M40.8-113c5.2,0,9.3-4.2,9.3-9.3l0,0v-0.1H31.5v0.1C31.5-117.2,35.7-113,40.8-113z"/>
					<path class="st2" d="M81.6-113c5.1,0,9.3-4.2,9.3-9.3l0,0v-0.1H72.3v0.1C72.3-117.2,76.5-113,81.6-113z"/>
					<path class="st2" d="M122.4-113v-9.5h-9.3v0.1C113.1-117.2,117.3-113,122.4-113L122.4-113z"/>
					<path class="st2" d="M18.7-82.5c5.2,0,9.3-4.2,9.3-9.3c0-5.1-4.2-9.3-9.3-9.3s-9.3,4.2-9.3,9.3C9.3-86.7,13.5-82.5,18.7-82.5
						C18.6-82.5,18.7-82.5,18.7-82.5z"/>
					<path class="st2" d="M59.5-82.5c5.2,0,9.3-4.2,9.3-9.3c0-5.1-4.2-9.3-9.3-9.3c-5.2,0-9.3,4.2-9.3,9.3
						C50.2-86.7,54.3-82.5,59.5-82.5L59.5-82.5z"/>
					<path class="st2" d="M100.3-82.5c5.2,0,9.3-4.2,9.3-9.3c0-5.2-4.2-9.3-9.3-9.3S91-96.9,91-91.8l0,0
						C90.9-86.7,95.1-82.5,100.3-82.5L100.3-82.5z"/>
					<path class="st2" d="M0-9.5V0h9.3v-0.1C9.3-5.4,5.2-9.5,0-9.5L0-9.5z"/>
					<path class="st2" d="M40.8-9.5c-5.1,0-9.3,4.2-9.3,9.3v0.1h18.6v-0.1C50.1-5.4,46-9.5,40.8-9.5z"/>
					<path class="st2" d="M81.6-9.5c-5.2,0-9.3,4.2-9.3,9.3v0.1h18.6v-0.1C90.9-5.4,86.8-9.5,81.6-9.5L81.6-9.5z"/>
					<path class="st2" d="M113.1-0.2L113.1-0.2l9.3,0.1v-9.5C117.3-9.5,113.1-5.4,113.1-0.2L113.1-0.2z"/>
					<path class="st2" d="M20.4-40.1c-5.2,0-9.3,4.2-9.3,9.3c0,5.2,4.2,9.3,9.3,9.3s9.3-4.2,9.3-9.3S25.6-40.1,20.4-40.1L20.4-40.1z
						"/>
					<path class="st2" d="M61.2-40.1c-5.2,0-9.3,4.2-9.3,9.3c0,5.2,4.2,9.3,9.3,9.3c5.2,0,9.3-4.2,9.3-9.3l0,0
						C70.5-35.9,66.4-40.1,61.2-40.1z"/>
					<path class="st2" d="M102-40.1c-5.2,0-9.3,4.2-9.3,9.3c0,5.2,4.2,9.3,9.3,9.3c5.2,0,9.3-4.2,9.3-9.3l0,0
						C111.3-35.9,107.2-40.1,102-40.1L102-40.1z"/>
					<path class="st2" d="M9.3-61.3c0-5.1-4.2-9.3-9.3-9.3l0,0V-52C5.1-52,9.3-56.1,9.3-61.3L9.3-61.3z"/>
					<path class="st2" d="M40.8-70.6c-5.1,0-9.3,4.2-9.3,9.3c0,5.1,4.2,9.3,9.3,9.3s9.3-4.2,9.3-9.3S46-70.6,40.8-70.6L40.8-70.6z"
						/>
					<path class="st2" d="M81.6-70.6c-5.1,0-9.3,4.2-9.3,9.3c0,5.1,4.2,9.3,9.3,9.3c5.1,0,9.3-4.2,9.3-9.3l0,0
						C90.9-66.4,86.8-70.6,81.6-70.6z"/>
					<path class="st2" d="M113.1-61.3c0,5.1,4.2,9.3,9.3,9.3l0,0v-18.6C117.3-70.6,113.1-66.4,113.1-61.3L113.1-61.3z"/>
				</g>
			</g>
		</g>
	</g>
</pattern>
<pattern  y="354" width="61.2" height="61.2" patternUnits="userSpaceOnUse" id="SVGID_3_" viewBox="0 -61.3 61.2 61.2" style="overflow:visible;">
	<g>
		<rect y="-61.3" class="st0" width="61.2" height="61.2"/>
		<g>
			<rect y="-61.3" class="st0" width="61.2" height="61.2"/>
			<g>
				<rect y="-61.3" class="st0" width="61.2" height="61.2"/>
				<g>
					<rect y="-61.3" class="st0" width="61.2" height="61.2"/>
					<rect y="-61.3" class="st0" width="61.2" height="61.2"/>
					<path class="st0" d="M61.2-26v21.2c-2.6,0-4.7,2.1-4.7,4.7c0,0,0,0,0,0.1h-11c0,0,0,0,0-0.1c0-2.6-2.1-4.7-4.7-4.7
						c-2.6,0-4.7,2.1-4.7,4.7l0,0c0,0,0,0,0,0.1h-11c0,0,0,0,0-0.1c0-2.6-2-4.7-4.6-4.7s-4.7,2-4.7,4.6v0.1c0,0,0,0,0,0.1H4.7
						c0,0,0,0,0-0.1c0-2.6-2.1-4.7-4.7-4.7V-26c2.6,0,4.7-2.1,4.7-4.7S2.6-35.4,0-35.4v-21.2c2.6,0,4.7-2.1,4.7-4.7c0,0,0,0,0-0.1
						h11.1c0,0,0,0,0,0.1c0,2.6,2,4.7,4.6,4.7s4.7-2,4.7-4.6v-0.1c0,0,0,0,0-0.1h11.1c0,0,0,0,0,0.1c0,2.6,2.1,4.7,4.7,4.7
						c2.6,0,4.7-2.1,4.7-4.7c0,0,0,0,0-0.1h11.1c0,0,0,0,0,0.1c0,2.6,2.1,4.7,4.7,4.7v21.2c-2.6,0-4.7,2.1-4.7,4.7S58.6-26,61.2-26z
						 M4.7-46c0,2.6,2.1,4.7,4.7,4.7s4.7-2.1,4.7-4.7c0-2.6-2.1-4.7-4.7-4.7C6.8-50.6,4.7-48.5,4.7-46L4.7-46z M14.9-15.4
						c0-2.6-2.1-4.7-4.7-4.7S5.5-18,5.5-15.4s2.1,4.7,4.7,4.7l0,0C12.8-10.8,14.9-12.8,14.9-15.4L14.9-15.4L14.9-15.4z M25.1-30.7
						c0-2.6-2.1-4.7-4.7-4.7s-4.7,2.1-4.7,4.7s2.1,4.7,4.7,4.7l0,0C23-26,25.1-28.1,25.1-30.7L25.1-30.7L25.1-30.7z M25.1-46
						c0,2.6,2.1,4.7,4.7,4.7s4.7-2.1,4.7-4.7c0-2.6-2.1-4.7-4.7-4.7l0,0C27.2-50.6,25.1-48.5,25.1-46L25.1-46z M35.3-15.4
						c0-2.6-2.1-4.7-4.7-4.7s-4.7,2.1-4.7,4.7c0,2.6,2.1,4.7,4.7,4.7C33.2-10.8,35.3-12.8,35.3-15.4L35.3-15.4L35.3-15.4z
						 M45.5-30.7c0-2.6-2.1-4.7-4.7-4.7c-2.6,0-4.7,2.1-4.7,4.7s2.1,4.7,4.7,4.7l0,0C43.4-26,45.5-28.1,45.5-30.7L45.5-30.7
						L45.5-30.7z M45.5-46c0,2.6,2.1,4.7,4.7,4.7c2.6,0,4.7-2.1,4.7-4.7c0-2.6-2.1-4.7-4.7-4.7C47.6-50.6,45.5-48.5,45.5-46L45.5-46
						z M55.7-15.4c0-2.6-2.1-4.7-4.7-4.7s-4.7,2.1-4.7,4.7c0,2.6,2.1,4.7,4.7,4.7C53.6-10.8,55.7-12.8,55.7-15.4L55.7-15.4
						L55.7-15.4z"/>
					<path class="st2" d="M4.7-61.2C4.7-61.3,4.7-61.3,4.7-61.2L0-61.3v4.7C2.6-56.6,4.7-58.7,4.7-61.2z"/>
					<path class="st2" d="M20.4-56.6c2.6,0,4.7-2.1,4.7-4.7l0,0c0,0,0,0,0-0.1h-9.3c0,0,0,0,0,0.1C15.7-58.7,17.8-56.6,20.4-56.6z"
						/>
					<path class="st2" d="M40.8-56.6c2.6,0,4.7-2.1,4.7-4.7c0,0,0,0,0-0.1h-9.3c0,0,0,0,0,0.1C36.1-58.7,38.2-56.6,40.8-56.6z"/>
					<path class="st2" d="M61.2-56.6v-4.7h-4.7c0,0,0,0,0,0.1C56.5-58.7,58.6-56.6,61.2-56.6z"/>
					<path class="st2" d="M9.3-41.3c2.6,0,4.7-2.1,4.7-4.7s-2.1-4.7-4.7-4.7S4.6-48.6,4.6-46C4.7-43.4,6.7-41.3,9.3-41.3L9.3-41.3z"
						/>
					<path class="st2" d="M29.7-41.3c2.6,0,4.7-2.1,4.7-4.7s-2.1-4.7-4.7-4.7S25-48.6,25-46l0,0C25.1-43.4,27.2-41.3,29.7-41.3z"/>
					<path class="st2" d="M50.1-41.3c2.6,0,4.7-2.1,4.7-4.7s-2.1-4.7-4.7-4.7s-4.7,2.1-4.7,4.7l0,0C45.5-43.4,47.6-41.3,50.1-41.3z"
						/>
					<path class="st2" d="M0-4.8v4.7h4.7c0,0,0,0,0-0.1C4.7-2.7,2.6-4.8,0-4.8z"/>
					<path class="st2" d="M20.4-4.8c-2.6,0-4.7,2.1-4.7,4.7c0,0,0,0,0,0.1H25c0,0,0,0,0-0.1C25.1-2.7,23-4.8,20.4-4.8L20.4-4.8z"/>
					<path class="st2" d="M40.8-4.8c-2.6,0-4.7,2.1-4.7,4.7c0,0,0,0,0,0.1h9.3c0,0,0,0,0-0.1C45.5-2.7,43.4-4.8,40.8-4.8z"/>
					<path class="st2" d="M56.5-0.2C56.5-0.1,56.6-0.1,56.5-0.2l4.7,0.1v-4.7C58.6-4.8,56.5-2.7,56.5-0.2z"/>
					<path class="st2" d="M10.2-20.1c-2.6,0-4.7,2.1-4.7,4.7s2.1,4.7,4.7,4.7s4.7-2.1,4.7-4.7l0,0C14.9-18,12.8-20.1,10.2-20.1
						L10.2-20.1z"/>
					<path class="st2" d="M30.6-20.1c-2.6,0-4.7,2.1-4.7,4.7s2.1,4.7,4.7,4.7s4.7-2.1,4.7-4.7l0,0C35.3-18,33.2-20.1,30.6-20.1z"/>
					<path class="st2" d="M51-20.1c-2.6,0-4.7,2.1-4.7,4.7s2.1,4.7,4.7,4.7s4.7-2.1,4.7-4.7l0,0C55.7-18,53.6-20.1,51-20.1z"/>
					<path class="st2" d="M4.7-30.7c0-2.6-2.1-4.7-4.7-4.7v9.3C2.6-26,4.7-28.1,4.7-30.7L4.7-30.7z"/>
					<path class="st2" d="M20.4-35.4c-2.6,0-4.7,2.1-4.7,4.7s2.1,4.7,4.7,4.7s4.7-2.1,4.7-4.7C25.1-33.3,23-35.4,20.4-35.4
						L20.4-35.4z"/>
					<path class="st2" d="M40.8-35.4c-2.6,0-4.7,2.1-4.7,4.7s2.1,4.7,4.7,4.7c2.6,0,4.7-2.1,4.7-4.7l0,0
						C45.5-33.3,43.4-35.4,40.8-35.4z"/>
					<path class="st2" d="M56.5-30.7c0,2.6,2.1,4.7,4.7,4.7l0,0v-9.3C58.6-35.4,56.5-33.3,56.5-30.7L56.5-30.7z"/>
				</g>
			</g>
		</g>
	</g>
</pattern>
<g>
	<g id="oro">
		<path class="st3" d="M265.3,188.5c-2.7-3.9-1.8-9.3,2.2-12l0.1-0.1c23-15.6,34.5-43.5,29.2-70.8c-7-36-41.2-60.5-77.5-55.6
			c-33.5,4.6-58.9,32.6-60.1,66.3c-0.1,1.5-0.4,3-1.2,4.4c-0.3,0.6-10.3,11.5-16.7,18.4c-2.6,2.8-2.4,7.2,0.4,9.8
			c0.1,0.1,0.4,0.3,0.5,0.4l3.6,2.7c0.6,0.4,0.8,1.1,0.6,1.8c-0.9,2.5-2.3,4.7-4.2,6.6c-0.1,0.1-0.2,0.2-0.4,0.4l-0.1,0.1
			c-0.1,0.1-0.2,0.2-0.3,0.4c-0.1,0.1-0.1,0.2-0.2,0.4c-0.1,0.1-0.1,0.1-0.1,0.3c-0.1,0.1-0.1,0.2-0.1,0.3c-0.1,0.1-0.1,0.2-0.1,0.3
			c-0.1,0.1-0.1,0.3-0.1,0.4c-0.1,0.2-0.1,0.4-0.1,0.6c0,0.1,0,0.2,0,0.3c-0.1,0.5,0,1,0.1,1.5c0,0.1,0.1,0.4,0.1,0.5
			c0.2,0.8,0.7,1.6,1.3,2.3c1.2,1.3,2.5,2.3,4,3.2c-0.3,0.1-0.5,0.4-0.7,0.5c-0.1,0.1-0.2,0.1-0.3,0.2c-0.1,0.1-0.4,0.3-0.5,0.4
			c-0.1,0.1-0.3,0.3-0.4,0.4c-0.1,0.1-0.4,0.3-0.5,0.5c-0.1,0.1-0.2,0.2-0.3,0.4c-0.2,0.2-0.4,0.4-0.6,0.6c-0.2,0.2-0.4,0.5-0.5,0.7
			c0,0,0,0-0.1,0.1c-0.2,0.3-0.4,0.6-0.6,0.9c-0.1,0.3-0.3,0.5-0.4,0.8c-0.1,0.1-0.1,0.1-0.1,0.3c-0.1,0.3-0.2,0.6-0.3,0.8
			c0,0.1,0,0.1-0.1,0.1c-0.2,0.8,0.1,1.6,0.7,2.1c0.9,0.6,1.8,1.4,2.5,2.3c1.1,1.2,1.2,2.9,0.4,4.2c-1.4,2.4-2,5.2-1.6,8
			c0.6,5.4,4.9,9.8,10.2,10.7c2.3,0.4,25-2.7,25-2.7c6.1-0.7,12,2.2,15.3,7.4l58.8,94.4l80.8-18.6L265.3,188.5z"/>
		<path class="st4" d="M211,185.4c4.4-1.8,7.8-5.3,9.5-9.6l5.8-14.6c0,0-0.4,3.2-1.1,8.4c0.4,0.7,1.1,1.3,1.8,1.6
			c0.1,0,0.1,0.1,0.1,0.1c7.2,2.9,17.7-1.7,24.8-11.3c2.3-3,4-6.5,5.2-10.1c-0.6,5.8-2.9,11.2-6.4,15.8
			c-7.1,9.6-17.7,14.2-24.8,11.3c-0.1,0-0.1-0.1-0.1-0.1c-0.6-0.3-1-0.6-1.4-1.1c-0.1,0.6-0.1,1.3-0.2,2v0.1c0,0.1,0-0.1,0,0.1l0,0
			v0.1l-0.1,0.2l-0.1,0.5c-0.1,0.4-0.1,0.8-0.3,1.1c-0.1,0.4-0.2,0.7-0.3,1.1c-0.1,0.4-0.2,0.8-0.4,1.1c-1.2,3.2-3.2,6.2-5.8,8.4
			c-0.7,0.6-1.5,1.2-2.3,1.8l-1.9,1.4l-16,11.5l-4.8,3.4c-3.4-4.4-8.8-6.7-14.3-6c0,0-6.8,0.9-13.4,1.7L211,185.4z"/>
		<path class="st5" d="M192.4,341H372c-50.7-95.7-83.3-120-83.3-120l-72.3,48.8c-13.2,8.9-21.5,23.5-22.3,39.5L192.4,341z"/>
		<path class="st6" d="M153.8,173.1l-9.2,6.3c-1,0.7-2.3,0.8-3.4,0.4c-0.4-0.5-0.5-1.1-0.4-1.7c0-0.1,0-0.1,0.1-0.1
			c0.1-0.3,0.2-0.6,0.3-0.8c0.1-0.1,0.1-0.1,0.1-0.3c0.1-0.3,0.3-0.6,0.4-0.8c0.1-0.3,0.4-0.6,0.6-0.9c0,0,0-0.1,0.1-0.1
			c0.1-0.3,0.4-0.5,0.5-0.7s0.4-0.4,0.6-0.6c0.1-0.1,0.2-0.2,0.3-0.4c0.1-0.1,0.3-0.4,0.5-0.5c0.1-0.1,0.3-0.3,0.4-0.4
			c0.1-0.1,0.4-0.3,0.5-0.4c0.1-0.1,0.2-0.1,0.3-0.2c0.2-0.1,0.5-0.4,0.7-0.5c-1.5-0.9-2.8-2-4-3.2c-0.6-0.6-1.1-1.4-1.3-2.3
			c-0.1-0.1-0.1-0.4-0.1-0.5c-0.1-0.5-0.1-1-0.1-1.5c0-0.1,0-0.2,0-0.3c0-0.2,0.1-0.4,0.1-0.6c0-0.1,0.1-0.3,0.1-0.4
			c0-0.1,0.1-0.2,0.1-0.3c0.1-0.1,0.1-0.2,0.1-0.3s0.1-0.1,0.1-0.3c0.1-0.1,0.1-0.2,0.2-0.4c0.1-0.1,0.1-0.2,0.3-0.4l0.1-0.1
			L153.8,173.1z"/>
		<path class="st6" d="M147.6,149.8c-0.4-0.7-0.9-1.3-1.3-2l-0.4-0.5c-0.1-0.2-0.3-0.4-0.4-0.6c-0.4-0.4-1.1-0.3-1.5,0.1l0,0
			c-0.2,0.2-0.4,0.5-0.4,0.8c0,0.4,0.1,0.6,0.3,0.8c0.1,0.1,0.2,0.2,0.4,0.3l0.3,0.2l3.7,1.8L147.6,149.8z"/>
		<path class="st6" d="M155.8,146c-0.1-0.4-0.1-0.8-0.3-1.3c-0.1-0.4-0.3-0.7-0.4-1.1c-0.1-0.3-0.3-0.5-0.4-0.8
			c-0.1-0.2-0.2-0.4-0.3-0.4l-0.1-0.1l0.3,0.7c0.1,0.2,0.1,0.5,0.2,0.8c0.1,0.3,0.1,0.6,0.2,1.1c0,0.2,0.1,0.4,0.1,0.6
			c0,0.2,0.1,0.4,0.1,0.6c0,0.4,0,0.9-0.1,1.3c-0.1,0.5-0.1,1-0.2,1.4c-0.1,0.2-0.1,0.5-0.2,0.7c-0.1,0.2-0.1,0.5-0.2,0.7
			c-0.1,0.4-0.4,0.8-0.7,1.1c-0.3,0.4-0.7,0.6-1.1,0.7c-0.4,0.1-0.8,0.2-1.3,0.2c-0.4,0-0.8-0.1-1.1-0.2c-0.3-0.1-0.6-0.3-0.8-0.6
			l-0.2-0.1c-0.1,0-0.1-0.1-0.1-0.1s-0.2-0.2-0.3-0.3c-0.4-0.4-0.6-0.5-0.6-0.5s0.1,0.2,0.4,0.6c0.1,0.1,0.1,0.2,0.2,0.4
			c0.1,0.1,0.1,0.1,0.1,0.2l0.1,0.2c0.2,0.3,0.6,0.6,0.8,0.8c0.4,0.2,0.8,0.4,1.3,0.5c0.6,0.1,1.1,0,1.6-0.1
			c0.6-0.1,1.1-0.5,1.5-0.8c0.4-0.4,0.8-0.9,1-1.5c0.1-0.2,0.1-0.5,0.3-0.8c0.1-0.3,0.1-0.6,0.2-0.8c0.1-0.5,0.1-1.1,0.2-1.6
			C155.9,147,155.9,146.5,155.8,146z"/>
		<path class="st2" d="M140.6,146.5c0.1,0.6,0.6,1.1,1.3,1l0,0l91.3-11.2c10.1-1.3,19.3,5.8,20.5,16c0.8,6.5-1.8,12.9-7,16.9
			l-73.9,57.3l0.3,1.3l75.1-56.8c3.8-2.9,6.5-7,7.6-11.6c1.9-8.7-1.8-17.7-9.3-22.5c-4.1-2.5-8.9-3.5-13.6-2.9l-91.4,11.3
			C141,145.3,140.5,145.9,140.6,146.5z"/>
		<path class="st3" d="M253.8,130.9c-2-1.4-4.3-2.2-6.7-2.2c-6.5-0.1-12.2,4.2-14.1,10.4l-8.2,26.7c-0.6,2.1,0.4,4.4,2.3,5.3
			c0.1,0,0.1,0.1,0.1,0.1c7.2,2.9,17.7-1.7,24.8-11.3C260.1,149.1,260.8,136.1,253.8,130.9z"/>
		<path class="st4" d="M255,139.9c-0.1-1.5-0.6-3-1.4-4.3c-0.4-0.7-1-1.4-1.7-1.9c-0.7-0.6-1.5-1-2.4-1.3s-1.8-0.4-2.7-0.4h-0.6
			c-0.2,0-0.5,0.1-0.7,0.1s-0.5,0.1-0.7,0.1s-0.5,0.1-0.7,0.1c-0.9,0.2-1.8,0.6-2.6,1.1c-0.4,0.2-0.8,0.5-1.2,0.8s-0.8,0.6-1.1,0.9
			c-1.3,1.3-2.4,3-3,4.8c-0.5,1.7-1,3.3-1.4,4.9c-0.4,1.3-0.7,2.6-1.1,3.9l0,0c-0.1,0.6-0.1,1.2,0.1,1.8c0,0.1,0.1,0.1,0.1,0.1
			c0.2,0.4,0.3,0.9,0.3,1.4c-0.1,1.1-0.1,1.2-0.1,1.3l-1.2,1.9c-0.6,0.8-0.4,1.9,0.4,2.5s2,0.4,2.5-0.4c0-0.1,0.1-0.1,0.1-0.1
			s0.1-0.2,0.3-0.5c1-1.5,2.5-2.7,4.2-3.4c1.2-0.4,2.2-1.3,2.7-2.5c0.8-1.5,0.1-3.3-1.3-4.1c-0.4-0.1-0.7-0.3-1.1-0.3l-0.7-0.1
			c-1.5-0.1-2.7-1.5-2.5-3c0-0.2,0.1-0.4,0.1-0.6l0.8-2.2c1-2.9,3.4-5.1,6.3-6c0.2-0.1,0.4-0.1,0.6-0.1c0.1-0.1,0.4-0.1,0.5-0.1
			s0.4-0.1,0.5-0.1h0.6h0.1h0.1l0,0c0,0,0.1,0-0.1,0h0.1c0.1,0,0.2,0,0.3,0c0.2,0,0.4,0,0.6,0.1c0.4,0.1,0.7,0.1,1,0.2
			c0.4,0.1,0.6,0.2,0.9,0.4c0.1,0.1,0.3,0.1,0.4,0.2c0.1,0.1,0.1,0.1,0.2,0.1l0.1,0.1l0.1,0.1c0.6,0.4,1,0.8,1.4,1.3
			c0.2,0.3,0.4,0.6,0.5,0.8c0.1,0.1,0.1,0.3,0.2,0.4l0.2,0.4c0.3,0.6,0.4,1.2,0.6,1.8c0.1,0.6,0.2,1.2,0.3,1.8
			c0.1,0.6,0.1,1.1,0.1,1.7c0,1.1-0.1,2-0.1,2.7c-0.1,0.8-0.1,1.3-0.2,1.8l-0.1,0.6l0.2-0.6c0.1-0.4,0.4-1,0.6-1.7
			c0.3-0.9,0.4-1.8,0.6-2.7c0.1-0.6,0.1-1.2,0.1-1.8C255.1,141.2,255.1,140.5,255,139.9z"/>
		<path d="M165.3,120.3c0,1.5,0.8,2.7,2.2,3.4c1.1-2.1,1.1-4.6,0-6.8C166.1,117.6,165.3,118.9,165.3,120.3z"/>
		<path d="M165.5,110.9c5,0.4,7.5,1.1,15.8,2c0.5,0.1,1.1,0.1,1.4-0.3l0,0c-2.7-2.8-6.2-4.9-10-5.9c-2.6-0.4-10.9-3.3-11.2,0.6
			C161.2,109.7,162.3,110.2,165.5,110.9z"/>
		<path class="st7" d="M150.8,126.3l-19.3,16l3.4,52.3l38.3,33.1l41.6-32.2c0,0-19.1-18.9-7-56.2L150.8,126.3z"/>
		<path class="st8" d="M190.6,62c21.9,0,47.4-6.4,51.8,32.5l-8,44.3c1.7-16.3,15.1-12,19.3-10.1c4.5,2,7.2,9.7,3.7,17.7
			c-2,4.6-1.1,6.3,0.1,8.6c0.5,1,0.1,2.3,0.8,3l7.5,20.1c63.5-42.6,21.6-96.9,17.3-103.7c-3-4.7-9.5-11.3-14.6-12.8
			c-0.7-0.2-2.3-0.8-2.3-0.8c-0.4-0.5-12.6-7.4-15.1-10.5c-3.7-4.5-8.4-8.3-13.2-11.7c-9.8-7.2-21.7-12.8-34.3-13.2
			c-3.9-0.1-8,0.4-11.7,1.4c-3.4,1-7,2.5-9.8,4.7c-2.3,2-3.2,5.3-2.3,8.2c0.2,0.7,0.6,1.4,1,2c-3.7-1.3-7.5-1.6-11.3-1
			c-5.6,1.1-10.6,4.3-13.9,8.9c-3.3,4.6-4.1,10.2-4.2,15.8c-0.1,5.3,0.4,10.6,1.5,15.7c-0.4,1.5-0.7,3-0.8,4.6
			c-0.3,3.2,0.7,6.4,2,9.3c0.7,1.6,1.5,3.2,2.5,4.6c0.7,1.1,3.9,3.8,4.2,4c0,0,0-0.1,0-0.2C169.9,70.9,169.8,62,190.6,62z"/>
		<path class="st8" d="M181.3,67.7c0,0,54.9,1.3,37.9,30.3c-6.5,11.1,13.4,8,7.2,44.7l3.6-0.4c0.4-2,2.3-2.1,3.3-4.2
			c0.2-0.5,0.4-8.2,0.7-8.6l21-32.4c-4.4-38.9-39.6-40.7-61.4-40.7c-20.9,0-33.4,9.1-32.2,43.8c0.1-1.2,1.8-5.4,3.1-8.2
			C173,74.1,181.3,67.7,181.3,67.7z"/>
		<path class="st9" d="M337.6,132.9l-61,29.8c-8.2-22.8-14.8-40.6-15.9-51.5c-3.2-29.8-13.3-69.7,12.7-80.8c2.5-1.1,5.1-2.1,7.7-3.1
			c8.7-3.3,17.8-5.3,27.1-5.8c-8.8,3.2-17,7.9-24.1,13.9c-1.6,2.5-3,5-4.4,7.6c3.9,15.3,35.1,44.5,49.1,68.2
			c0.7,1.3,1.4,2.5,2.1,3.8c1.9,3.7,3.4,7.4,4.8,11.3C336.3,128.5,337,130.7,337.6,132.9z"/>
		<path class="st10" d="M376.2,173.5c-3-4.3-1.9-10.2,2.4-13.2l0.1-0.1c25.3-17.2,37.9-47.8,32.1-77.8
			c-7.7-39.5-45.3-66.5-85.1-61.1c-36.9,5-64.7,35.7-66.1,72.9c-0.1,1.7-0.5,3.4-1.3,4.9c-0.4,0.6-11.3,12.7-18.4,20.3
			c-2.9,3.1-2.7,8,0.4,10.8c0.2,0.1,0.4,0.4,0.6,0.5l3.9,3c0.7,0.4,1,1.3,0.7,2c-1,2.7-2.5,5.2-4.5,7.2c-0.1,0.1-0.2,0.3-0.4,0.4
			l-0.1,0.1c-0.1,0.1-0.2,0.3-0.3,0.4c-0.1,0.1-0.1,0.3-0.2,0.4c-0.1,0.1-0.1,0.2-0.1,0.3c-0.1,0.1-0.1,0.2-0.1,0.4
			c-0.1,0.1-0.1,0.2-0.1,0.3c-0.1,0.1-0.1,0.4-0.1,0.5c-0.1,0.2-0.1,0.5-0.1,0.7c0,0.1-0.1,0.2-0.1,0.3c-0.1,0.6,0,1.1,0.1,1.6
			c0,0.2,0.1,0.4,0.1,0.6c0.3,0.9,0.8,1.8,1.4,2.5c1.3,1.3,2.8,2.5,4.4,3.5c-0.3,0.1-0.6,0.4-0.8,0.6c-0.1,0.1-0.2,0.1-0.4,0.3
			c-0.2,0.1-0.4,0.3-0.6,0.4c-0.1,0.1-0.4,0.3-0.5,0.4c-0.2,0.1-0.4,0.4-0.5,0.5s-0.2,0.2-0.4,0.4c-0.2,0.2-0.4,0.4-0.6,0.7
			s-0.4,0.5-0.6,0.8l-0.1,0.1c-0.2,0.3-0.4,0.6-0.6,1c-0.1,0.3-0.3,0.6-0.4,0.8c-0.1,0.1-0.1,0.2-0.1,0.3c-0.1,0.3-0.2,0.6-0.4,0.9
			c0,0.1-0.1,0.1-0.1,0.1c-0.3,0.8,0.1,1.8,0.8,2.3c1.1,0.7,2,1.5,2.8,2.5c1.1,1.3,1.3,3.2,0.4,4.6c-1.5,2.7-2.2,5.8-1.8,8.8
			c0.7,6,5.3,10.8,11.3,11.7c2.5,0.4,27.5-3,27.5-3c6.7-0.8,13.2,2.4,16.7,8.1L361.7,301l88.7-20.4L376.2,173.5z"/>
		<path class="st11" d="M376.2,173.5c-3-4.3-1.9-10.2,2.4-13.2l0.1-0.1c25.3-17.2,37.9-47.8,32.1-77.8
			c-7.7-39.5-45.3-66.5-85.1-61.1c-36.9,5-64.7,35.7-66.1,72.9c-0.1,1.7-0.5,3.4-1.3,4.9c-0.4,0.6-11.3,12.7-18.4,20.3
			c-2.9,3.1-2.7,8,0.4,10.8c0.2,0.1,0.4,0.4,0.6,0.5l3.9,3c0.7,0.4,1,1.3,0.7,2c-1,2.7-2.5,5.2-4.5,7.2c-0.1,0.1-0.2,0.3-0.4,0.4
			l-0.1,0.1c-0.1,0.1-0.2,0.3-0.3,0.4c-0.1,0.1-0.1,0.3-0.2,0.4c-0.1,0.1-0.1,0.2-0.1,0.3c-0.1,0.1-0.1,0.2-0.1,0.4
			c-0.1,0.1-0.1,0.2-0.1,0.3c-0.1,0.1-0.1,0.4-0.1,0.5c-0.1,0.2-0.1,0.5-0.1,0.7c0,0.1-0.1,0.2-0.1,0.3c-0.1,0.6,0,1.1,0.1,1.6
			c0,0.2,0.1,0.4,0.1,0.6c0.3,0.9,0.8,1.8,1.4,2.5c1.3,1.3,2.8,2.5,4.4,3.5c-0.3,0.1-0.6,0.4-0.8,0.6c-0.1,0.1-0.2,0.1-0.4,0.3
			c-0.2,0.1-0.4,0.3-0.6,0.4c-0.1,0.1-0.4,0.3-0.5,0.4c-0.2,0.1-0.4,0.4-0.5,0.5s-0.2,0.2-0.4,0.4c-0.2,0.2-0.4,0.4-0.6,0.7
			s-0.4,0.5-0.6,0.8l-0.1,0.1c-0.2,0.3-0.4,0.6-0.6,1c-0.1,0.3-0.3,0.6-0.4,0.8c-0.1,0.1-0.1,0.2-0.1,0.3c-0.1,0.3-0.2,0.6-0.4,0.9
			c0,0.1-0.1,0.1-0.1,0.1c-0.3,0.8,0.1,1.8,0.8,2.3c1.1,0.7,2,1.5,2.8,2.5c1.1,1.3,1.3,3.2,0.4,4.6c-1.5,2.7-2.2,5.8-1.8,8.8
			c0.7,6,5.3,10.8,11.3,11.7c2.5,0.4,27.5-3,27.5-3c6.7-0.8,13.2,2.4,16.7,8.1L361.7,301l88.7-20.4L376.2,173.5z"/>
		<path class="st12" d="M313.7,119.5c-7.2,36,6,52.9,6,52.9l-10.3,2l-45.9-24.1l-18.3-36.9c3.4-3.7,6.9-7.5,9.4-10.3L313.7,119.5z"
			/>
		<path class="st3" d="M265.8,191c0.1,0,0.1,0,0.1,0s0.2,0,0.3,0l0.9-0.1c0.1,0,0.2,0,0.4-0.1c0.3,0,0.5-0.1,0.8-0.1
			c0.1,0,0.2,0,0.3-0.1c6.3-0.8,12-1.5,12-1.5c6.1-0.7,12,1.8,15.8,6.6c0.4,0.5,0.7,1,1.1,1.5l16.7,26.9
			c10.3-11.6,17.4-27.4,19.3-45.2l23.5-18l-3-5.6l-2-3.9c-6,3.8-12.4,5.1-17.4,3c-0.1,0-0.1-0.1-0.1-0.1c-0.8-0.4-1.5-1-2-1.8
			c0.7-5.8,1.1-9.3,1.1-9.3l-6.5,16.1c-1.9,4.8-5.7,8.6-10.5,10.6L265.8,191z"/>
		<path class="st1" d="M296,341h187.2c-7.4-118.2-81.4-131.8-81.4-131.8l-79.5,53.5c-14.6,9.8-23.6,25.8-24.5,43.3L296,341z"/>
		<path class="st6" d="M253.7,156.5l-10.1,7c-1.1,0.8-2.5,0.9-3.7,0.5c-0.4-0.6-0.6-1.2-0.4-1.8c0-0.1,0.1-0.1,0.1-0.1
			c0.1-0.3,0.2-0.6,0.4-0.9c0.1-0.1,0.1-0.2,0.1-0.3c0.1-0.3,0.3-0.6,0.4-0.8c0.1-0.4,0.4-0.6,0.6-1c0,0,0-0.1,0.1-0.1
			c0.2-0.3,0.4-0.6,0.6-0.8s0.4-0.5,0.6-0.7c0.1-0.1,0.2-0.3,0.4-0.4c0.1-0.2,0.4-0.4,0.5-0.5s0.3-0.3,0.5-0.4
			c0.1-0.1,0.4-0.3,0.6-0.4c0.1-0.1,0.2-0.1,0.4-0.3c0.3-0.2,0.5-0.4,0.8-0.6c-1.6-1-3.1-2.2-4.4-3.5c-0.7-0.7-1.1-1.5-1.4-2.5
			c-0.1-0.2-0.1-0.4-0.1-0.6c-0.1-0.6-0.1-1.1-0.1-1.6c0-0.1,0-0.2,0.1-0.3c0-0.2,0.1-0.5,0.1-0.7c0.1-0.1,0.1-0.4,0.1-0.5
			s0.1-0.2,0.1-0.3c0.1-0.1,0.1-0.2,0.1-0.4c0.1-0.1,0.1-0.2,0.1-0.3c0.1-0.1,0.1-0.3,0.2-0.4c0.1-0.1,0.2-0.3,0.3-0.4l0.1-0.1
			L253.7,156.5z"/>
		<path class="st6" d="M246.8,130.9c-0.5-0.8-1-1.5-1.5-2.3l-0.4-0.6c-0.1-0.2-0.3-0.4-0.5-0.6c-0.5-0.4-1.2-0.4-1.6,0.1l0,0
			c-0.3,0.2-0.4,0.6-0.4,0.9c0,0.4,0.1,0.7,0.4,1c0.1,0.1,0.2,0.2,0.4,0.3l0.4,0.2l4,2L246.8,130.9z"/>
		<path class="st6" d="M255.8,126.8c-0.1-0.5-0.2-1-0.4-1.4c-0.1-0.4-0.3-0.8-0.5-1.1c-0.1-0.3-0.3-0.6-0.5-0.8
			c-0.1-0.2-0.3-0.4-0.4-0.5l-0.1-0.1l0.3,0.8c0.1,0.2,0.2,0.6,0.3,0.8c0.1,0.3,0.1,0.7,0.2,1.1c0,0.2,0.1,0.4,0.1,0.6
			s0.1,0.5,0.1,0.7c0,0.5,0,1-0.1,1.5c-0.1,0.6-0.1,1.1-0.3,1.6c-0.1,0.3-0.1,0.6-0.2,0.8s-0.1,0.5-0.3,0.8
			c-0.1,0.5-0.4,0.9-0.8,1.3s-0.8,0.6-1.2,0.8c-0.4,0.1-0.9,0.2-1.3,0.2s-0.8-0.1-1.3-0.3c-0.4-0.1-0.6-0.4-0.9-0.6l-0.2-0.1
			c-0.1-0.1-0.1-0.1-0.1-0.1l-0.3-0.3c-0.4-0.4-0.6-0.6-0.6-0.6s0.1,0.3,0.4,0.7l0.2,0.4c0.1,0.1,0.1,0.1,0.1,0.2l0.1,0.2
			c0.3,0.4,0.6,0.6,1,0.8c0.4,0.3,0.9,0.4,1.5,0.5s1.2,0,1.8-0.1c0.6-0.2,1.2-0.5,1.6-1c0.5-0.5,0.8-1.1,1.1-1.7
			c0.1-0.3,0.2-0.6,0.3-0.8c0.1-0.3,0.1-0.6,0.2-0.9c0.1-0.6,0.2-1.1,0.2-1.8C256,127.9,255.9,127.3,255.8,126.8z"/>
		<path class="st9" d="M423.3,88.3c-1.4,0.5-2.9,0.9-4.4,1.2c-7,1.3-14.4,0-21-3.4l4.6,15.1l-64.9,31.7c-0.6-2.2-1.3-4.4-2-6.5
			c-1.3-3.9-3-7.7-4.8-11.3c-0.6-1.3-1.3-2.5-2.1-3.8c-13.9-23.8-45.1-53-49.1-68.2c1.3-2.6,2.8-5.1,4.4-7.6
			c25.5-21,61.1-24.8,90.5-9.7c3.4-9.6,10.1-17.1,19.3-20.3c18.6-6.5,30.3,10.6,38.5,33.4S441.9,81.7,423.3,88.3z"/>
		<path class="st9" d="M419.5,99.3c0,30.6-16.9,58.7-43.9,73.1c-13.5-1.2-26-7.9-34.5-18.5c-0.6-7.1-1.8-14.1-3.6-21l64.9-31.8
			L397.8,86c6.7,3.4,14,4.8,21,3.4c0.1,0.7,0.1,1.5,0.2,2.2C419.4,94.2,419.5,96.7,419.5,99.3z"/>
		<path class="st2" d="M239.2,127.3c0.1,0.7,0.7,1.2,1.4,1.1l0,0l1.8-0.2l2.5-0.3l10.1-1.3l0.8-0.1l8.1-1l68-8.3l9.1-1.1
			c0.4-0.1,0.7-0.1,1.1-0.1c1.3-0.1,2.7-0.1,4.1,0.1c1,0.1,2,0.3,3,0.6c3.7,1,7,3,9.5,5.9c1.5,1.8,2.7,3.7,3.7,5.9
			c1.4,3.4,1.9,7.1,1.4,10.7l0,0c-0.8,5.2-3.5,9.8-7.7,13l-9.4,7.3l-0.7,0.6l-48.3,37.4L276,212.7l1.6,2l21.1-15l49.6-38.4l9.1-7
			c4.2-3.2,7.1-7.7,8.3-12.7c0.4-1.5,0.6-3.1,0.6-4.7c0-0.8,0-1.7-0.1-2.5l0,0c-0.2-2.3-0.8-4.6-1.7-6.8c-0.1-0.2-0.2-0.5-0.3-0.7
			c-0.1-0.4-0.4-0.7-0.5-1.1c-0.8-1.5-1.8-3-2.8-4.3c-1.5-1.8-3.3-3.4-5.3-4.7c-2.3-1.4-4.7-2.4-7.2-2.9c-1.5-0.3-3-0.4-4.5-0.4
			c-1.1,0-2.1,0.1-3.1,0.2l-9.9,1.2l-67.5,8.2l-8.2,1l-0.4,0.1l-14.3,1.8C239.6,126.1,239.1,126.7,239.2,127.3L239.2,127.3z"/>
		<path class="st11" d="M363.5,110.2c-2.1-1.5-4.7-2.4-7.3-2.4c-7.2-0.1-13.5,4.6-15.5,11.4l-8.9,29.3c-0.7,2.3,0.4,4.8,2.5,5.9
			c0.1,0,0.1,0.1,0.1,0.1c8,3.2,19.5-1.9,27.3-12.5C370.5,130.1,371.3,115.9,363.5,110.2z"/>
		<path class="st3" d="M364.8,120c-0.1-1.7-0.7-3.2-1.5-4.7c-0.5-0.8-1.1-1.5-1.8-2.1c-0.8-0.6-1.7-1.1-2.6-1.4c-1-0.3-2-0.5-3-0.5
			h-0.7c-0.3,0-0.6,0.1-0.8,0.1c-0.3,0-0.5,0.1-0.8,0.1c-0.3,0.1-0.5,0.1-0.8,0.1c-1,0.3-2,0.6-2.9,1.2c-0.5,0.3-0.9,0.6-1.3,0.8
			c-0.4,0.4-0.8,0.6-1.2,1.1c-1.5,1.5-2.6,3.2-3.3,5.3c-0.6,1.9-1.1,3.7-1.5,5.4c-0.4,1.5-0.8,2.9-1.2,4.2l0,0
			c-0.1,0.6-0.1,1.3,0.1,2c0,0.1,0.1,0.1,0.1,0.2c0.2,0.5,0.4,1,0.3,1.5c-0.1,1.2-0.1,1.3-0.1,1.4l-1.3,2.1
			c-0.6,0.9-0.4,2.1,0.4,2.7c0.9,0.6,2.2,0.5,2.8-0.4c0-0.1,0.1-0.1,0.1-0.1s0.1-0.2,0.4-0.6c1.1-1.7,2.7-3,4.6-3.7
			c1.3-0.5,2.4-1.5,3-2.7c0.8-1.6,0.1-3.7-1.5-4.5c-0.4-0.2-0.8-0.3-1.1-0.4l-0.8-0.1c-1.7-0.1-3-1.7-2.7-3.4c0-0.2,0.1-0.5,0.1-0.7
			c0.3-0.9,0.6-1.8,0.8-2.4c1.1-3.2,3.7-5.6,7-6.6c0.2-0.1,0.4-0.1,0.6-0.1c0.2-0.1,0.4-0.1,0.6-0.1s0.4-0.1,0.6-0.1h0.7h0.1h0.1
			l0,0c0,0,0.1,0-0.1,0h0.1c0.1,0,0.2,0,0.3,0c0.2,0,0.4,0,0.6,0.1c0.4,0.1,0.8,0.1,1.1,0.2c0.4,0.1,0.7,0.2,1.1,0.4
			c0.1,0.1,0.4,0.1,0.5,0.2s0.1,0.1,0.2,0.1l0.1,0.1l0.1,0.1c0.6,0.4,1.1,0.9,1.5,1.5c0.2,0.3,0.4,0.6,0.6,0.9l0.3,0.5l0.2,0.5
			c0.3,0.6,0.5,1.3,0.6,2c0.1,0.6,0.2,1.3,0.3,2c0.1,0.6,0.1,1.2,0.1,1.8c0,1-0.1,2-0.1,3c-0.1,0.8-0.1,1.5-0.3,2
			c-0.1,0.4-0.1,0.7-0.1,0.7l0.3-0.6c0.1-0.4,0.4-1.1,0.6-1.9c0.3-1,0.5-2,0.6-3c0.1-0.6,0.1-1.3,0.2-1.9
			C365,121.4,364.9,120.7,364.8,120z"/>
		<path class="st13" d="M266.3,98.6c0,1.6,0.9,3,2.4,3.7c1.2-2.3,1.2-5.1,0-7.4C267.2,95.5,266.3,96.9,266.3,98.6z"/>
		<path class="st13" d="M268.6,94.1c-1.1,0.7-6.6,0.3-7.7-0.6c6.1,7.7,21,5.6,21,5.6C273.6,97.6,269.6,94.9,268.6,94.1z"/>
		<path class="st14" d="M266.5,88.2c2-0.7,8.9-2.4,17.3,2.3c0.5,0.3,1.1,0.1,1.5-0.3l0,0c0,0-1.3-1.3-1.7-1.5
			c-0.4-0.3-0.8-0.6-1.3-1s-1-0.7-1.5-1.1L280,86l-0.5-0.3l-0.5-0.3l-1.1-0.5l-1-0.4c-0.4-0.2-0.8-0.4-1.3-0.5
			c-0.4-0.1-0.8-0.3-1.3-0.4c-0.7-0.2-1.4-0.4-2.1-0.6c-0.8-0.2-1.5-0.3-2.3-0.4c-1.5-0.2-2.9-0.4-4.1-0.4c-0.4,0-0.9-0.1-1.5-0.1
			c-1.2-0.1-2.2,0.8-2.3,2c0,0.1,0,0.1,0,0.2l0.1,1.2c0.1,1.6,1.4,2.9,3,2.9C265.7,88.4,266.1,88.4,266.5,88.2z"/>
		<g>
			<pattern  id="SVGID_4_" xlink:href="#SVGID_1_" patternTransform="matrix(-0.3919 0 0 0.3919 -41585.4219 10666.7334)">
			</pattern>
			<path class="st15" d="M302.2,124.4l-54.5,0.7c-2.6,0-4.7,2.2-4.7,4.8c0,0.1,0,0.4,0,0.5l0,0c0.3,2.6,2.7,4.4,5.3,4.2
				c0.1,0,0.2,0,0.3-0.1L302.2,124.4z M257.1,180.7c-3.8,2.6-8.9,1.7-11.6-2.1l-0.1-0.1l-2.6-3.9c-1.5-2.2-0.9-5.2,1.3-6.7
				c0.4-0.3,0.8-0.5,1.2-0.6l57.3-18.3L257.1,180.7z M309.4,180.2c0,0-34.3,23.7-34.5,24c0,0-0.1-0.1-0.4-0.3
				c-3.2-3.1-3.4-8.3-0.3-11.5c1-1,2.1-1.8,3.4-2.1L309.4,180.2z"/>
		</g>
		<path class="st1" d="M252.4,103.2l-21.2,17.6l3.7,57.4l42,36.4l45.7-35.4c0,0-20.9-20.8-7.7-61.8L252.4,103.2z"/>
		<pattern  id="SVGID_5_" xlink:href="#SVGID_2_" patternTransform="matrix(-0.3919 0 0 0.3919 -41583.4023 10668.791)">
		</pattern>
		<path class="st16" d="M252.4,103.2l-21.2,17.6l3.7,57.4l42,36.4l45.7-35.4c0,0-20.9-20.8-7.7-61.8L252.4,103.2z"/>
		<pattern  id="SVGID_6_" xlink:href="#SVGID_3_" patternTransform="matrix(-0.3919 0 0 0.3919 -41585.4063 10659.999)">
		</pattern>
		<path class="st17" d="M150.8,126.3l-19.3,16l3.4,52.3l38.3,33.1l41.6-32.2c0,0-19.1-18.9-7-56.2L150.8,126.3z"/>
		<g class="st18">
			<path d="M196.2,143.9l-49.5,0.6c-2.4,0-4.3,2-4.3,4.4c0,0.1,0,0.3,0,0.5l0,0c0.3,2.4,2.5,4.1,4.8,3.8c0.1,0,0.2,0,0.3-0.1
				L196.2,143.9z M155.2,195.2c-3.4,2.4-8.2,1.5-10.6-1.9l-0.1-0.1l-2.4-3.5c-1.3-2-0.8-4.7,1.2-6.1c0.4-0.2,0.7-0.4,1.1-0.6
				l52.1-16.7L155.2,195.2z M202.7,194.7c0,0-31.2,21.5-31.4,21.8c0,0-0.1-0.1-0.3-0.2c-3-2.8-3.1-7.5-0.2-10.5c0.8-0.9,2-1.5,3.2-2
				L202.7,194.7z"/>
		</g>
		<g class="st19">
			<path d="M299.5,129.4L250,130c-2.4,0-4.3,2-4.3,4.4c0,0.1,0,0.3,0,0.5l0,0c0.3,2.4,2.5,4.1,4.8,3.8c0.1,0,0.2,0,0.3-0.1
				L299.5,129.4z M258.4,180.7c-3.4,2.4-8.2,1.5-10.6-1.9l-0.1-0.1l-2.4-3.5c-1.3-2-0.8-4.7,1.2-6.1c0.4-0.2,0.7-0.4,1.1-0.6
				l52.1-16.7L258.4,180.7z M306,180.2c0,0-31.2,21.5-31.4,21.8c0,0-0.1-0.1-0.3-0.2c-3-2.8-3.1-7.5-0.2-10.5c0.8-0.9,2-1.5,3.2-2
				L306,180.2z"/>
		</g>
	</g>
</g>
<ellipse class="st2" cx="418" cy="350.5" rx="249" ry="39.5"/>
</svg>
