<?xml version="1.0" encoding="utf-8"?>
<!-- Generator: Adobe Illustrator 24.1.1, SVG Export Plug-In . SVG Version: 6.00 Build 0)  -->
<svg version="1.1" id="Layer_1" xmlns="http://www.w3.org/2000/svg" xmlns:xlink="http://www.w3.org/1999/xlink" x="0px" y="0px"
	 viewBox="0 0 70 70" style="enable-background:new 0 0 70 70;" xml:space="preserve">
<style type="text/css">
	.st0{clip-path:url(#SVGID_2_);}
	.st1{fill:#96A0A5;}
	.st2{fill:#E11E19;}
</style>
<g>
	<defs>
		<rect id="SVGID_1_" width="70" height="70"/>
	</defs>
	<clipPath id="SVGID_2_">
		<use xlink:href="#SVGID_1_"  style="overflow:visible;"/>
	</clipPath>
	<g id="Ebene_11" class="st0">
		<path class="st1" d="M9.2,17.5v26.1c0,3.5,3.8,8.7,10.7,14.5c3.7,3.2,7.7,6,11.9,8.5c4.2-2.5,8.2-5.4,11.9-8.5
			c6.9-5.8,10.7-11,10.7-14.5V17.5c-6.6-0.7-18.4-5.6-22.6-9.4C27.6,11.9,15.8,16.8,9.2,17.5 M31.8,69.6c-0.1,0-0.2,0-0.3,0
			c-1.1-0.3-7.5-4.4-12.9-9c-8-6.7-12-12.4-12-17V16.1c0-0.8,0.6-1.4,1.3-1.4c2.9,0,7.9-1.4,13.1-3.6c5.6-2.4,9-4.8,9.7-5.9
			c0.4-0.6,1.1-0.8,1.7-0.4c0.2,0.1,0.3,0.2,0.4,0.4c0.8,1.1,4.1,3.5,9.7,5.9c5.2,2.2,10.2,3.6,13.1,3.6c0.8,0,1.4,0.7,1.3,1.4v27.5
			c0,4.6-4,10.3-12,17c-5.5,4.6-11.8,8.7-12.9,9C32,69.6,31.9,69.6,31.8,69.6"/>
		<path class="st1" d="M38.3,47c-0.4,0-0.8-0.2-1.1-0.6c-0.4-0.7-0.3-1.5,0.3-2c0.5-0.4,0.9-0.8,1.3-1.3c0.4-0.5,1.2-0.6,1.8-0.2
			c0,0,0.1,0.1,0.1,0.1c0.5,0.6,0.6,1.5,0.1,2c-0.5,0.6-1.1,1.1-1.7,1.6C38.8,46.9,38.6,47,38.3,47"/>
		<path class="st1" d="M42,41.7c-0.2,0-0.3,0-0.5-0.1c-0.7-0.3-1-1.1-0.8-1.9c0.4-1,0.6-2.1,0.6-3.2c0-0.8,0.6-1.4,1.4-1.4
			c0,0,0,0,0,0c0.8,0.1,1.3,0.8,1.3,1.5c-0.1,1.4-0.3,2.7-0.8,4C43.1,41.3,42.6,41.7,42,41.7"/>
		<path class="st1" d="M35.9,26.6c-0.2,0-0.3,0-0.5-0.1c-0.9-0.4-2-0.6-3-0.7c-0.8-0.1-1.3-0.7-1.3-1.5c0-0.8,0.6-1.4,1.4-1.4
			c0,0,0,0,0,0c1.3,0.1,2.6,0.4,3.8,0.9c0.7,0.3,1,1.1,0.8,1.9C36.9,26.2,36.4,26.6,35.9,26.6"/>
		<path class="st1" d="M40.2,30.3c-0.4,0-0.8-0.2-1.1-0.6c-0.3-0.5-0.7-0.9-1.1-1.3c-0.5-0.6-0.5-1.5,0-2c0.4-0.5,1.2-0.6,1.8-0.1
			c0,0,0.1,0.1,0.1,0.1c0.5,0.5,0.9,1.1,1.3,1.7c0.4,0.6,0.3,1.5-0.3,2C40.8,30.2,40.5,30.3,40.2,30.3"/>
		<path class="st1" d="M30.9,49.4L30.9,49.4c-1.4-0.1-2.7-0.4-3.9-0.9c-0.7-0.3-1-1.1-0.8-1.9c0.2-0.7,0.9-1.1,1.6-0.9
			c0,0,0.1,0,0.1,0c0.9,0.4,2,0.6,3,0.7c0.8,0.1,1.3,0.7,1.3,1.5C32.2,48.8,31.6,49.4,30.9,49.4"/>
		<path class="st1" d="M24.2,46.5c-0.3,0-0.6-0.1-0.9-0.4c-0.6-0.6-1.2-1.3-1.7-2c-0.4-0.6-0.3-1.5,0.3-2c0.5-0.4,1.3-0.4,1.8,0.2
			c0,0,0.1,0.1,0.1,0.1c0.4,0.6,0.8,1.1,1.3,1.6c0.6,0.6,0.6,1.4,0.1,2C24.9,46.3,24.6,46.5,24.2,46.5"/>
		<path class="st1" d="M22.6,30.9c-0.2,0-0.5-0.1-0.6-0.2l-4.4-2.7c-0.6-0.4-0.9-1.3-0.5-2c0.3-0.6,1.1-0.9,1.7-0.6
			c0,0,0.1,0,0.1,0.1l3.4,2.1c0.6-0.7,1.3-1.4,2-2c0.5-0.4,1.3-0.3,1.8,0.2c0,0,0.1,0.1,0.1,0.1c0.4,0.7,0.3,1.5-0.3,2
			c-0.8,0.7-1.6,1.5-2.2,2.3C23.4,30.7,23,30.9,22.6,30.9"/>
		<path class="st1" d="M20.6,37.1C20.6,37.1,20.5,37.1,20.6,37.1c-0.8-0.1-1.4-0.8-1.3-1.5c0-0.9,0.2-1.8,0.4-2.7
			c0.1-0.7,0.8-1.2,1.5-1c0,0,0.1,0,0.1,0c0.7,0.3,1.1,1,0.9,1.8c-0.2,0.7-0.3,1.4-0.3,2.1C21.9,36.5,21.3,37.1,20.6,37.1"/>
		<path class="st1" d="M17.5,29.8c-0.2,0-0.4-0.1-0.6-0.1c-0.7-0.4-0.9-1.2-0.6-1.9l1.3-3c0.3-0.7,1-1,1.7-0.7c0,0,0.1,0,0.1,0
			c0.7,0.4,0.9,1.2,0.6,1.9l-1.3,3C18.5,29.5,18,29.8,17.5,29.8"/>
		<path class="st1" d="M17.5,42.3c-0.6,0-1.1-0.4-1.3-1c-0.2-0.7,0.2-1.5,0.9-1.8l6.4-2.1c0.7-0.2,1.4,0.2,1.6,0.9c0,0,0,0.1,0,0.1
			c0.2,0.7-0.2,1.5-0.9,1.8l-6.4,2.1C17.8,42.3,17.7,42.3,17.5,42.3"/>
		<path class="st1" d="M17.9,43.6c-0.6,0-1.1-0.4-1.3-1l-0.9-2.9c-0.2-0.7,0.1-1.5,0.9-1.8c0.7-0.2,1.4,0.2,1.7,0.8c0,0,0,0.1,0,0.1
			l0.9,2.9c0.2,0.7-0.1,1.5-0.9,1.8C18.2,43.6,18.1,43.6,17.9,43.6"/>
		<path class="st1" d="M26.3,36c-0.8,0-1.4-0.7-1.3-1.4v-1.4c-0.1-0.7,0.5-1.4,1.2-1.4c0.7-0.1,1.4,0.5,1.4,1.2c0,0.1,0,0.1,0,0.2
			v1.4C27.6,35.4,27,36,26.3,36"/>
		<path class="st1" d="M28.8,44.2c-0.8,0-1.4-0.7-1.3-1.4v-1.4c-0.1-0.7,0.5-1.4,1.2-1.4c0.7-0.1,1.4,0.5,1.4,1.2c0,0.1,0,0.1,0,0.2
			v1.4C30.1,43.5,29.5,44.2,28.8,44.2"/>
		<path class="st1" d="M30.7,38.1c-0.8,0-1.4-0.7-1.3-1.4v-1.4c-0.1-0.7,0.5-1.4,1.2-1.4c0.7-0.1,1.4,0.5,1.4,1.2c0,0.1,0,0.1,0,0.2
			v1.4C32,37.4,31.4,38,30.7,38.1"/>
		<path class="st1" d="M35,33.3c-0.8,0-1.4-0.7-1.3-1.4v-1.4c-0.1-0.7,0.5-1.4,1.2-1.4c0.7-0.1,1.4,0.5,1.4,1.2c0,0.1,0,0.1,0,0.2
			v1.4C36.4,32.6,35.8,33.3,35,33.3"/>
		<path class="st1" d="M35.7,40.1c-0.8,0-1.4-0.7-1.3-1.4v-1.4c-0.1-0.7,0.5-1.4,1.2-1.4c0.7-0.1,1.4,0.5,1.4,1.2c0,0.1,0,0.1,0,0.2
			v1.4C37,39.4,36.4,40.1,35.7,40.1"/>
		<path class="st1" d="M36.1,52.7c-0.6,0-1.1-0.4-1.2-0.9L32.4,45c-0.3-0.7,0-1.5,0.7-1.9c0.7-0.3,1.4,0,1.7,0.7c0,0,0,0.1,0,0.1
			l2.5,6.7c0.3,0.7,0,1.5-0.7,1.9C36.5,52.6,36.3,52.7,36.1,52.7"/>
		<path class="st1" d="M34.8,53.3c-0.6,0-1-0.4-1.2-0.9c-0.3-0.7,0-1.5,0.7-1.9l2.6-1.2c0.7-0.3,1.4,0,1.7,0.7c0,0,0,0.1,0,0.1
			c0.3,0.7,0,1.5-0.7,1.9l-2.6,1.2C35.1,53.2,35,53.3,34.8,53.3"/>
		<path class="st1" d="M39.7,34.7c-0.6,0-1.2-0.5-1.3-1.1c-0.2-0.7,0.2-1.5,0.9-1.8l6.4-1.9c0.7-0.2,1.4,0.2,1.6,0.9
			c0,0,0,0.1,0,0.1c0.2,0.7-0.2,1.5-0.9,1.8l-6.4,1.9C40,34.7,39.9,34.7,39.7,34.7"/>
		<path class="st1" d="M46.5,34.1c-0.6,0-1.1-0.4-1.3-1l-0.8-3c-0.2-0.7,0.2-1.5,0.9-1.8c0.7-0.2,1.4,0.2,1.6,0.9c0,0,0,0.1,0,0.1
			l0.8,3c0.2,0.7-0.2,1.5-0.9,1.8C46.8,34.1,46.6,34.1,46.5,34.1"/>
		<path class="st1" d="M29.1,29.6c-0.6,0-1.2-0.5-1.3-1.1l-1.4-7.1c-0.2-0.8,0.3-1.5,1-1.7c0.7-0.2,1.4,0.3,1.6,1c0,0,0,0,0,0.1
			l1.4,7.1c0.2,0.8-0.3,1.5-1,1.7C29.3,29.6,29.2,29.6,29.1,29.6"/>
		<path class="st1" d="M26.3,22.9c-0.6,0-1.2-0.5-1.3-1.1c-0.2-0.7,0.2-1.5,1-1.7l2.8-0.7c0.7-0.2,1.4,0.3,1.6,1c0,0,0,0,0,0.1
			c0.2,0.7-0.2,1.5-1,1.7l-2.8,0.7C26.5,22.9,26.4,22.9,26.3,22.9"/>
		<path class="st1" d="M25.4,54.5c-0.2,0-0.3,0-0.5-0.1c-0.7-0.3-1-1.1-0.8-1.9l2.1-5.9c0.2-0.7,0.9-1.1,1.6-0.9c0,0,0.1,0,0.1,0
			c0.7,0.3,1,1.1,0.8,1.9l-2.1,5.9C26.4,54.1,25.9,54.5,25.4,54.5"/>
		<path class="st1" d="M26.6,55.1c-0.2,0-0.4,0-0.5-0.1l-2.5-1.2c-0.7-0.4-1-1.2-0.7-1.9c0.2-0.7,1-1,1.6-0.8c0,0,0.1,0,0.1,0
			l2.5,1.2c0.7,0.4,1,1.2,0.7,1.9C27.6,54.7,27.1,55.1,26.6,55.1"/>
		<path class="st1" d="M47.3,44c-0.2,0-0.3,0-0.5-0.1l-5.3-2.3c-0.7-0.3-1-1.2-0.7-1.9c0.2-0.7,0.9-1.1,1.6-0.8c0,0,0.1,0,0.1,0
			l5.3,2.3c0.7,0.3,1,1.2,0.7,1.9C48.3,43.6,47.8,44,47.3,44"/>
		<path class="st1" d="M46.7,45.3c-0.2,0-0.4,0-0.6-0.1c-0.7-0.4-1-1.2-0.7-1.9l1.1-2.7c0.2-0.7,1-1,1.7-0.8c0,0,0.1,0,0.1,0
			c0.7,0.4,1,1.2,0.7,1.9L48,44.4C47.8,44.9,47.3,45.2,46.7,45.3"/>
		<path class="st1" d="M35.9,26.6c-0.2,0-0.4,0-0.5-0.1c-0.7-0.4-1-1.2-0.7-1.9l2.2-5.3c0.2-0.7,1-1,1.6-0.8c0,0,0.1,0,0.1,0
			c0.7,0.4,1,1.2,0.7,1.9l-2.2,5.3C36.9,26.3,36.4,26.6,35.9,26.6"/>
		<path class="st1" d="M38.9,21.7c-0.2,0-0.3,0-0.5-0.1l-1.8-0.7c-0.7-0.3-1.1-1.1-0.8-1.9c0.2-0.7,0.9-1.1,1.6-0.9c0,0,0.1,0,0.1,0
			l1.8,0.7c0.7,0.3,1.1,1.1,0.8,1.9C40,21.3,39.5,21.7,38.9,21.7"/>
		<path d="M57.6,12.3l1.4-1.6L64,5c0.3-0.4,0.3-1,0-1.4c-0.3-0.3-0.8-0.4-1.1-0.1c0,0-0.1,0.1-0.1,0.1l-5.2,6L56,11.4l-2.8,3.3
			l-0.4,0.4l-0.4-0.4l-2.2-2.5l-1.4-1.6l-5.9-6.8c-0.3-0.3-0.8-0.4-1.1-0.1c0,0-0.1,0.1-0.1,0.1c-0.3,0.4-0.4,1,0,1.4l5.8,6.7
			l1.4,1.6l2.4,2.7l0.4,0.4l-0.4,0.4L48,20.6l-1.4,1.7l-4.9,5.6c-0.3,0.4-0.3,1,0,1.4c0.3,0.3,0.8,0.4,1.1,0.1c0,0,0.1-0.1,0.1-0.1
			l5.2-6l1.5-1.7l2.8-3.3l0.4-0.4l0.4,0.4l2.2,2.5l1.4,1.6l5.9,6.8c0.3,0.3,0.8,0.4,1.1,0.1c0,0,0.1-0.1,0.1-0.1
			c0.3-0.4,0.4-1,0-1.4l-5.8-6.7l-1.4-1.6l-2.4-2.7L54,16.5l0.4-0.4L57.6,12.3z"/>
		<path class="st2" d="M63.3,31.8c-0.9,0-1.8-0.4-2.4-1.1l-8.1-9.4l-8.1,9.4c-1.1,1.3-3.1,1.5-4.4,0.3c-0.1-0.1-0.2-0.2-0.3-0.3
			c-1.1-1.2-1.2-3.2-0.1-4.4l8.6-9.9l-8.6-9.9c-1.1-1.3-1.1-3.2,0.1-4.5c0.6-0.7,1.5-1,2.3-1c0.9,0,1.7,0.4,2.3,1.1l8.1,9.4L61,2.2
			c0.6-0.7,1.4-1.1,2.3-1.1h0.1c0.9,0,1.7,0.4,2.3,1c1.1,1.3,1.2,3.2,0.1,4.4l-8.6,9.9l8.6,9.9c1.1,1.3,1.1,3.2-0.1,4.5
			C65,31.5,64.2,31.8,63.3,31.8z M62.2,29.4L62.2,29.4z M43.4,29.4L43.4,29.4z M41.2,27.7L41.2,27.7L41.2,27.7z M64.4,27.7
			L64.4,27.7L64.4,27.7z M41.2,5.2L41.2,5.2L41.2,5.2z M62.2,3.5L62.2,3.5z M43.4,3.5L43.4,3.5z"/>
	</g>
</g>
</svg>
