<?xml version="1.0" encoding="utf-8"?>
<!-- Generator: Adobe Illustrator 24.1.1, SVG Export Plug-In . SVG Version: 6.00 Build 0)  -->
<svg version="1.1" id="Layer_1" xmlns="http://www.w3.org/2000/svg" xmlns:xlink="http://www.w3.org/1999/xlink" x="0px" y="0px"
	 viewBox="0 0 70 70" style="enable-background:new 0 0 70 70;" xml:space="preserve">
<style type="text/css">
	.st0{clip-path:url(#SVGID_2_);}
	.st1{fill:#96A0A5;}
	.st2{fill:#E11E19;}
</style>
<g>
	<defs>
		<rect id="SVGID_1_" width="70" height="70"/>
	</defs>
	<clipPath id="SVGID_2_">
		<use xlink:href="#SVGID_1_"  style="overflow:visible;"/>
	</clipPath>
	<g id="Ebene_11" class="st0">
		<path class="st1" d="M34.3,69.4c-0.3,0-0.7,0-1,0c-7.8-0.1-15-4.1-19.3-10.6c-1.5-2.4-2.6-5-3.4-7.7c-2.3,0-4.5-1.1-5.8-3.1
			c-2.6-3.8-2.6-8.8,0-12.6c1.4-2.1,3.8-3.2,6.3-3c1.5-4.6,4.2-8.7,7.7-12c4.2-3.9,9.8-6.1,15.6-6.2c5.8,0.1,11.3,2.3,15.6,6.2
			c3.6,3.3,6.2,7.4,7.8,12c2.5-0.2,4.9,1,6.2,3c2.6,3.8,2.6,8.8,0,12.6c-1.3,1.9-3.5,3.1-5.8,3.1c-1.1,3.3-2.7,6.4-4.8,9.2l0,0
			C48.8,66.2,41.7,69.6,34.3,69.4z M11.7,47.9c0.7,0,1.3,0.5,1.5,1.2c0.7,2.9,1.8,5.6,3.4,8.1c3.7,5.7,10.1,9.1,16.9,9.2
			c7.1,0.3,13.6-2.7,17.5-7.9l0,0c2.2-2.8,3.8-6,4.7-9.5c0.2-0.8,1-1.3,1.8-1.1c0,0,0,0,0.1,0c1.6,0.4,3.2-0.3,4.1-1.7
			c0.9-1.3,1.4-2.9,1.4-4.5c0-1.6-0.5-3.2-1.4-4.5c-0.9-1.5-2.7-2.2-4.3-1.6c-0.8,0.3-1.6-0.1-1.9-0.9c0,0,0-0.1,0-0.1
			c-1.3-4.6-3.8-8.7-7.3-12c-1.8-1.7-3.9-3-6.2-3.9c0.2,1,0.4,2.1,0.6,3.1c0.3,2.4,0.3,5.7-1.6,7.3c-0.6,0.5-1.6,0.4-2.1-0.2
			s-0.4-1.6,0.2-2.1l0,0c0.5-0.4,0.9-1.8,0.6-4.6c-0.2-1.4-0.5-2.7-0.8-4c0-0.2-0.1-0.3-0.1-0.5c-0.5-0.1-0.9-0.2-1.4-0.2
			c0,2.1-0.1,4.1-0.5,6.2c-0.5,2.4-1.5,5.5-3.9,6.3c-0.8,0.2-1.6-0.3-1.8-1.1c-0.2-0.7,0.2-1.4,0.9-1.7c0.4-0.1,1.3-1.1,1.9-4
			c0.4-1.9,0.5-3.8,0.5-5.8c-0.5,0-0.9,0-1.4,0.1c-0.6,2.5-1.5,4.8-2.7,7c-1.8,3.1-3.7,4.6-5.7,4.5c-0.8-0.1-1.4-0.9-1.2-1.7
			c0.1-0.7,0.7-1.3,1.5-1.3c0.4,0,1.5-0.5,2.9-3c0.9-1.6,1.6-3.2,2.1-5c-3.2,0.9-6.2,2.5-8.7,4.8c-3.5,3.2-6,7.4-7.3,12
			c-0.2,0.8-1.1,1.3-1.8,1c0,0-0.1,0-0.1,0c-1.6-0.5-3.5,0.1-4.3,1.6c-0.9,1.3-1.4,2.9-1.4,4.5c0,1.6,0.5,3.2,1.4,4.5
			c0.8,1.4,2.5,2.1,4.1,1.7C11.5,47.9,11.6,47.9,11.7,47.9z M52.1,59.4L52.1,59.4z M34.1,59.6c-0.2,0-0.4,0-0.6,0
			c-2.6-0.1-5.1-1.2-6.8-3.2c-0.5-0.7-0.4-1.6,0.3-2.1c0.6-0.5,1.6-0.4,2.1,0.2c1.2,1.3,2.8,2.1,4.6,2.1c2.2,0.1,4.4-0.7,6-2.2
			c0.6-0.6,1.5-0.6,2.1,0c0.6,0.6,0.6,1.5,0,2.1c0,0,0,0,0,0C39.8,58.5,37,59.7,34.1,59.6L34.1,59.6z M42.1,48
			c-1.5,0.1-2.8-1.1-2.8-2.6c-0.1-1.5,1.1-2.8,2.6-2.8c1.5-0.1,2.8,1.1,2.8,2.6c0,0,0,0.1,0,0.1C44.7,46.7,43.5,47.9,42.1,48
			L42.1,48z M26.7,48c-1.5,0.1-2.8-1.1-2.8-2.6s1.1-2.8,2.6-2.8s2.8,1.1,2.8,2.6c0,0,0,0.1,0,0.1C29.3,46.7,28.1,47.9,26.7,48
			L26.7,48z M57.4,46.9c-0.8,0-1.5-0.7-1.5-1.5c0-0.7,0.5-1.2,1.1-1.4c1-0.3,1.7-1.3,1.5-2.3c0-0.8-0.6-1.4-1.4-1.4c0,0,0,0,0,0
			c-0.8,0-1.5-0.7-1.4-1.5c0-0.8,0.7-1.4,1.5-1.4h0c2.3,0,4.2,1.8,4.3,4.1c0.3,2.5-1.3,4.9-3.8,5.5C57.7,46.8,57.5,46.9,57.4,46.9
			L57.4,46.9z M11.3,46.9c-0.1,0-0.2,0-0.3,0c-2.5-0.6-4.1-3-3.8-5.5c0.1-2.3,2-4.1,4.3-4.1h0c0.8,0,1.5,0.7,1.5,1.5
			c0,0.8-0.6,1.5-1.4,1.5c-0.8,0-1.4,0.6-1.4,1.3c0,0,0,0,0,0c-0.1,1,0.5,2,1.5,2.3c0.8,0.2,1.3,1,1.1,1.8
			C12.6,46.4,12,46.8,11.3,46.9L11.3,46.9z"/>
		<path class="st2" d="M63,33.1c-0.9,0-1.8-0.4-2.5-1.1l-8.5-9.7L43.6,32c-1.2,1.4-3.2,1.5-4.6,0.3c-0.1-0.1-0.2-0.2-0.3-0.2
			c-1.2-1.3-1.2-3.3-0.1-4.6l8.9-10.3L38.7,6.9c-1.1-1.3-1.1-3.3,0.1-4.6C40,1,42.1,0.9,43.4,2.1c0.1,0.1,0.2,0.2,0.3,0.3l8.5,9.7
			l8.5-9.7C61.7,1,63.8,0.9,65.1,2c0.1,0.1,0.2,0.2,0.3,0.3c1.2,1.3,1.2,3.3,0.1,4.6l-9,10.3l8.9,10.3c1.1,1.3,1.1,3.3-0.1,4.6
			C64.8,32.8,63.9,33.1,63,33.1z M40,28.9L40,28.9z M64.2,28.9L64.2,28.9z M40,5.5L40,5.5z"/>
	</g>
</g>
</svg>
