<?xml version="1.0" encoding="utf-8"?>
<!-- Generator: Adobe Illustrator 24.1.1, SVG Export Plug-In . SVG Version: 6.00 Build 0)  -->
<svg version="1.1" id="Layer_1" xmlns="http://www.w3.org/2000/svg" xmlns:xlink="http://www.w3.org/1999/xlink" x="0px" y="0px"
	 viewBox="0 0 70 70" style="enable-background:new 0 0 70 70;" xml:space="preserve">
<style type="text/css">
	.st0{clip-path:url(#SVGID_2_);}
	.st1{fill:#96A0A5;}
	.st2{fill:none;stroke:#E11E19;stroke-width:5.225;stroke-miterlimit:10;}
</style>
<g>
	<defs>
		<rect id="SVGID_1_" width="70" height="70"/>
	</defs>
	<clipPath id="SVGID_2_">
		<use xlink:href="#SVGID_1_"  style="overflow:visible;"/>
	</clipPath>
	<g id="Ebene_11" class="st0">
		<path class="st1" d="M55.7,17.3H10.2c-1,0-1.8,0.8-1.8,1.7c0,0,0,0,0,0v45.6c0,1,0.8,1.8,1.7,1.8c0,0,0,0,0,0h45.6
			c1,0,1.8-0.8,1.8-1.8c0,0,0,0,0,0V19C57.5,18,56.7,17.3,55.7,17.3C55.7,17.3,55.7,17.3,55.7,17.3z M54,34
			c-2.3-6.1-7.1-10.9-13.2-13.2H54V34z M51.9,41.8c0,10.5-8.5,18.9-18.9,18.9S14,52.3,14,41.8S22.5,22.9,33,22.9c0,0,0,0,0,0
			C43.4,22.9,51.9,31.3,51.9,41.8L51.9,41.8z M25.1,20.8C19,23,14.2,27.9,11.9,34V20.8H25.1z M11.9,49.6c2.3,6.1,7.1,10.9,13.2,13.2
			H11.9V49.6z M40.8,62.8c6.1-2.3,10.9-7.1,13.2-13.2v13.2H40.8z"/>
		<path class="st2" d="M55.3,15.6l1.6-1.9l5.5-6.4c0.4-0.4,0.4-1.1,0-1.5c-0.3-0.4-0.9-0.4-1.3-0.1c0,0-0.1,0.1-0.1,0.1l-5.9,6.7
			l-1.7,2l-3.2,3.7l-0.4,0.5l-0.4-0.5L47,15.4l-1.6-1.9l-6.7-7.7c-0.3-0.4-0.9-0.4-1.3-0.1c0,0-0.1,0.1-0.1,0.1
			c-0.4,0.4-0.4,1.1,0,1.5l6.6,7.5l1.6,1.8l2.7,3.1l0.4,0.5l-0.4,0.5l-3.7,4.2l-1.6,1.9l-5.5,6.4c-0.4,0.4-0.4,1.1,0,1.5
			c0.3,0.4,0.9,0.4,1.3,0.1c0,0,0.1-0.1,0.1-0.1l5.9-6.7l1.7-2l3.2-3.7l0.4-0.5l0.4,0.5l2.5,2.9l1.6,1.9l6.7,7.7
			c0.3,0.4,0.9,0.4,1.3,0.1c0,0,0.1-0.1,0.1-0.1c0.4-0.4,0.4-1.1,0-1.5l-6.6-7.5l-1.6-1.8l-2.7-3.1l-0.4-0.5l0.4-0.5L55.3,15.6z"/>
	</g>
</g>
</svg>
