<?xml version="1.0" encoding="utf-8"?>
<!-- Generator: Adobe Illustrator 24.1.1, SVG Export Plug-In . SVG Version: 6.00 Build 0)  -->
<svg version="1.1" id="Layer_1" xmlns="http://www.w3.org/2000/svg" xmlns:xlink="http://www.w3.org/1999/xlink" x="0px" y="0px"
	 viewBox="0 0 70 70" style="enable-background:new 0 0 70 70;" xml:space="preserve">
<style type="text/css">
	.st0{clip-path:url(#SVGID_2_);}
	.st1{fill:#96A0A5;}
	.st2{clip-path:url(#SVGID_4_);}
</style>
<g>
	<defs>
		<rect id="SVGID_1_" width="70" height="70"/>
	</defs>
	<clipPath id="SVGID_2_">
		<use xlink:href="#SVGID_1_"  style="overflow:visible;"/>
	</clipPath>
	<g id="Ebene_10" class="st0">
		<path class="st1" d="M11.1,26.8c3.2,0.1,6.3-0.8,9-2.4c4.3-2.4,9.5-2.4,13.8,0c2.7,1.6,5.9,2.5,9,2.4c3.2,0.1,6.3-0.8,9-2.4l0,0
			c3.4-2.1,8.8-2.3,12.6-0.6l-7.3,37.1H12.8L5.9,26.1C7.6,26.6,9.4,26.8,11.1,26.8 M1.2,23.1l7.9,40.2c0.2,0.9,1,1.6,2,1.6h47.8
			c1,0,1.8-0.7,2-1.6L70,17.2c0.2-1.1-0.5-2.2-1.5-2.4s-2.2,0.5-2.4,1.5c0,0,0,0,0,0.1l-0.7,3.4c-4.9-1.9-11.2-1.5-15.5,1.2h0
			c-4.3,2.4-9.5,2.4-13.8,0c-5.6-3.2-12.5-3.2-18.1,0c-3.5,2.2-9.3,2.3-13,0.4l-1-5c-0.2-1.1-1.3-1.8-2.3-1.6C0.6,15-0.2,16,0,17.1
			c0,0,0,0,0,0.1L1.2,23.1L1.2,23.1z"/>
		<g>
			<defs>
				<rect id="SVGID_3_" x="17.9" y="33.6" width="36.9" height="19.9"/>
			</defs>
			<clipPath id="SVGID_4_">
				<use xlink:href="#SVGID_3_"  style="overflow:visible;"/>
			</clipPath>
			<g class="st2">
				<path class="st1" d="M22.7,44.2c0.8-1,2.3-1.1,3.3-0.3c0.1,0.1,0.2,0.2,0.3,0.3c0.6,0.8,0.8,1.8,0.7,2.8
					c0.1,0.9-0.2,1.9-0.7,2.6c-0.4,0.5-1,0.8-1.7,0.8c-0.7,0-1.4-0.4-1.9-1c-0.6-0.8-0.9-1.8-0.8-2.8C21.9,45.8,22.2,44.9,22.7,44.2
					 M24.5,53.5c1.7,0.1,3.3-0.6,4.4-1.8c1.2-1.3,1.8-3,1.7-4.7c0.1-1.7-0.5-3.3-1.6-4.5c-1-1.1-2.4-1.8-3.9-1.8
					c-1.3,0-2.6,0.6-3.4,1.6c0.1-2.2,0.5-3.7,1-4.4c0.4-0.7,1.2-1,2-1c0.5,0,1,0.2,1.4,0.5c0.4,0.4,0.7,1,0.7,1.6l3.5-0.4
					c-0.2-1.4-0.8-2.6-1.8-3.6c-1-0.8-2.3-1.3-3.6-1.2c-2-0.1-3.8,0.8-5,2.3c-1.3,1.6-1.9,4.1-2,7.6c0,3.4,0.6,5.9,1.9,7.4
					C20.9,52.7,22.7,53.5,24.5,53.5"/>
				<path class="st1" d="M36.4,38.8c0.1-0.6,0.4-1.1,0.8-1.5c0.7-0.6,1.7-0.6,2.4,0c0.4,0.5,0.7,1.1,0.9,1.7
					c0.3,1.5,0.4,3.1,0.3,4.7c0.1,1.6-0.1,3.2-0.4,4.8c-0.1,0.6-0.4,1.1-0.8,1.5c-0.7,0.6-1.7,0.6-2.4,0c-0.4-0.5-0.7-1.1-0.9-1.7
					c-0.3-1.5-0.4-3.1-0.3-4.7C36,42.1,36.1,40.4,36.4,38.8 M38.4,53.5c1.7,0.1,3.3-0.7,4.3-2c1.3-1.6,1.9-4.2,1.9-7.9
					c0-3.7-0.6-6.3-1.9-7.8c-1-1.3-2.7-2.1-4.3-2c-1.7-0.1-3.3,0.7-4.3,2c-1.3,1.6-1.9,4.2-1.9,7.8c0,3.7,0.6,6.3,1.7,7.7
					C35,52.7,36.7,53.5,38.4,53.5"/>
				<path class="st1" d="M49,36.5c0.5-0.7,1.6-0.8,2.2-0.3c0.1,0.1,0.2,0.2,0.3,0.3c0.4,0.6,0.6,1.3,0.5,2.1
					c0.1,0.7-0.1,1.4-0.5,2.1c-0.5,0.7-1.6,0.8-2.2,0.3c-0.1-0.1-0.2-0.2-0.3-0.3c-0.4-0.6-0.5-1.3-0.5-2.1
					C48.5,37.8,48.6,37.1,49,36.5 M50.3,43.4c1.2,0.1,2.4-0.4,3.3-1.3c0.9-1,1.3-2.3,1.2-3.6c0.1-1.3-0.4-2.6-1.2-3.6
					c-1.8-1.7-4.7-1.7-6.6,0c-0.9,1-1.3,2.3-1.2,3.6c-0.1,1.3,0.4,2.6,1.2,3.6C47.9,43,49.1,43.5,50.3,43.4"/>
			</g>
		</g>
	</g>
</g>
</svg>
