<?xml version="1.0" encoding="utf-8"?>
<!-- Generator: Adobe Illustrator 24.1.3, SVG Export Plug-In . SVG Version: 6.00 Build 0)  -->
<svg version="1.1" id="Wortbildmarke" xmlns="http://www.w3.org/2000/svg" xmlns:xlink="http://www.w3.org/1999/xlink" x="0px"
	 y="0px" viewBox="0 0 234 38" style="enable-background:new 0 0 234 38;" xml:space="preserve">
<style type="text/css">
	.st0{fill:#212934;}
	.st1{fill:#E11E19;}
</style>
<g>
	<path class="st0" d="M44,29.8c-1.5,0.8-3.3,1.2-5.5,1.2c-2.9,0-5.1-0.9-6.9-2.8C29.9,26.4,29,24,29,21c0-3.2,1-5.8,2.9-7.8
		c1.9-2,4.4-3,7.4-3c1.9,0,3.5,0.3,4.7,0.8v2.5c-1.4-0.8-3-1.2-4.8-1.2c-2.3,0-4.2,0.8-5.6,2.3s-2.1,3.6-2.1,6.2
		c0,2.4,0.7,4.4,2,5.8c1.3,1.5,3.1,2.2,5.3,2.2c2,0,3.8-0.4,5.2-1.3V29.8z"/>
	<path class="st0" d="M51.2,30.7h-2.4V10.6h2.4V30.7z"/>
	<path class="st0" d="M57.2,30.7V10.6h5.7c1.7,0,3.1,0.4,4.1,1.3c1,0.8,1.5,2,1.5,3.3c0,1.1-0.3,2.1-0.9,3C67,19,66.1,19.6,65.1,20
		V20c1.4,0.2,2.4,0.7,3.2,1.5s1.2,2,1.2,3.4c0,1.7-0.6,3.1-1.8,4.2c-1.2,1.1-2.8,1.6-4.7,1.6H57.2z M59.5,12.7v6.5h2.4
		c1.3,0,2.3-0.3,3-0.9c0.7-0.6,1.1-1.5,1.1-2.6c0-2-1.3-2.9-3.8-2.9H59.5z M59.5,21.3v7.2h3.2c1.4,0,2.5-0.3,3.2-1s1.1-1.5,1.1-2.7
		c0-2.4-1.6-3.6-4.8-3.6H59.5z"/>
</g>
<g>
	<path class="st0" d="M91.9,30.9h-3.2L82.4,24h-0.1v6.9H80V9.7h2.3v13.5h0.1l6-6.6h3l-6.6,6.9L91.9,30.9z"/>
	<path class="st0" d="M105.2,30.9h-2.3v-2.2h-0.1c-1,1.7-2.5,2.6-4.4,2.6c-1.4,0-2.5-0.4-3.4-1.1c-0.8-0.8-1.2-1.8-1.2-3
		c0-2.7,1.6-4.2,4.7-4.7l4.3-0.6c0-2.4-1-3.7-3-3.7c-1.7,0-3.3,0.6-4.7,1.8v-2.4c1.4-0.9,3-1.3,4.9-1.3c3.4,0,5.1,1.8,5.1,5.3V30.9z
		 M102.9,23.6l-3.5,0.5c-1.1,0.1-1.9,0.4-2.4,0.8s-0.8,1-0.8,2c0,0.7,0.2,1.3,0.7,1.7s1.2,0.7,2,0.7c1.1,0,2.1-0.4,2.8-1.2
		c0.7-0.8,1.1-1.8,1.1-3V23.6z"/>
	<path class="st0" d="M122.2,30.9h-2.3v-8.2c0-3-1.1-4.6-3.3-4.6c-1.1,0-2.1,0.4-2.8,1.3c-0.8,0.9-1.1,2-1.1,3.3v8.2h-2.3V16.5h2.3
		v2.4h0.1c1.1-1.8,2.7-2.7,4.7-2.7c1.6,0,2.8,0.5,3.6,1.5c0.8,1,1.2,2.5,1.2,4.4V30.9z"/>
	<path class="st0" d="M137.2,17.2l-8.5,11.7h8.4v2h-11.8v-0.7l8.5-11.7h-7.7v-2h11.1V17.2z"/>
	<path class="st0" d="M143.2,30.9h-2.3V9.7h2.3V30.9z"/>
	<path class="st0" d="M160.1,24.3H150c0,1.6,0.5,2.8,1.3,3.7s2,1.3,3.4,1.3c1.6,0,3.1-0.5,4.5-1.6v2.2c-1.3,0.9-2.9,1.4-5,1.4
		c-2,0-3.6-0.7-4.8-2s-1.7-3.1-1.7-5.5c0-2.2,0.6-4,1.9-5.5c1.3-1.4,2.8-2.1,4.7-2.1s3.3,0.6,4.4,1.8c1,1.2,1.5,2.9,1.5,5.1V24.3z
		 M157.7,22.3c0-1.3-0.3-2.4-1-3.1s-1.5-1.1-2.6-1.1c-1.1,0-2,0.4-2.8,1.2c-0.8,0.8-1.2,1.8-1.4,3H157.7z"/>
	<path class="st0" d="M165.5,12.9c-0.4,0-0.8-0.1-1-0.4c-0.3-0.3-0.4-0.6-0.4-1.1c0-0.4,0.1-0.8,0.4-1.1c0.3-0.3,0.6-0.4,1-0.4
		c0.4,0,0.8,0.1,1.1,0.4s0.4,0.6,0.4,1.1c0,0.4-0.1,0.8-0.4,1.1C166.2,12.8,165.9,12.9,165.5,12.9z M166.6,30.9h-2.3V16.5h2.3V30.9z
		"/>
</g>
<g>
	<path class="st0" d="M188.1,30.9h-2.3v-2.2h-0.1c-1,1.7-2.5,2.6-4.4,2.6c-1.4,0-2.5-0.4-3.4-1.1s-1.2-1.8-1.2-3
		c0-2.7,1.6-4.2,4.7-4.7l4.3-0.6c0-2.4-1-3.7-3-3.7c-1.7,0-3.3,0.6-4.7,1.8v-2.4c1.4-0.9,3-1.3,4.9-1.3c3.4,0,5.1,1.8,5.1,5.3V30.9z
		 M185.8,23.6l-3.5,0.5c-1.1,0.1-1.9,0.4-2.4,0.8c-0.5,0.4-0.8,1-0.8,2c0,0.7,0.2,1.3,0.7,1.7c0.5,0.4,1.2,0.7,2,0.7
		c1.1,0,2.1-0.4,2.8-1.2s1.1-1.8,1.1-3V23.6z"/>
	<path class="st0" d="M195.5,28.8L195.5,28.8l-0.1,8.7h-2.3V16.5h2.3v2.5h0.1c1.1-1.9,2.8-2.9,5-2.9c1.8,0,3.3,0.6,4.3,1.9
		s1.6,3,1.6,5.2c0,2.4-0.6,4.3-1.8,5.8c-1.2,1.4-2.8,2.2-4.8,2.2C197.9,31.2,196.5,30.4,195.5,28.8z M195.4,23v2
		c0,1.2,0.4,2.2,1.2,3c0.8,0.8,1.7,1.2,2.9,1.2c1.4,0,2.5-0.5,3.3-1.6c0.8-1.1,1.2-2.5,1.2-4.4c0-1.6-0.4-2.8-1.1-3.8
		s-1.7-1.4-3-1.4c-1.3,0-2.4,0.5-3.2,1.4C195.8,20.5,195.4,21.6,195.4,23z"/>
	<path class="st0" d="M213.1,28.8L213.1,28.8l-0.1,8.7h-2.3V16.5h2.3v2.5h0.1c1.1-1.9,2.8-2.9,5-2.9c1.8,0,3.3,0.6,4.3,1.9
		s1.6,3,1.6,5.2c0,2.4-0.6,4.3-1.8,5.8c-1.2,1.4-2.8,2.2-4.8,2.2C215.5,31.2,214.1,30.4,213.1,28.8z M213,23v2c0,1.2,0.4,2.2,1.2,3
		c0.8,0.8,1.7,1.2,2.9,1.2c1.4,0,2.5-0.5,3.3-1.6c0.8-1.1,1.2-2.5,1.2-4.4c0-1.6-0.4-2.8-1.1-3.8s-1.7-1.4-3-1.4
		c-1.3,0-2.4,0.5-3.2,1.4C213.4,20.5,213,21.6,213,23z"/>
</g>
<g>
	<g>
		<polygon class="st1" points="7.6,29.2 1.6,23.4 1.6,26.8 7.6,32.8 19.8,20.3 19.8,16.7 		"/>
	</g>
	<g>
		<path class="st1" d="M17.5,16.3V9.6l-15.2,0v11.6l5.1,5.1L17.5,16.3z M4,20.4v-2.7h4.4c0.3,0,0.6-0.3,0.6-0.6s-0.3-0.6-0.6-0.6H4
			v-2.2h6.3c0.3,0,0.6-0.3,0.6-0.6v0c0-0.3-0.3-0.6-0.6-0.6H4v-2h11.6l0,4.2l-8.2,8.3L4,20.4z"/>
	</g>
</g>
</svg>
