<?xml version="1.0" encoding="utf-8"?>
<!-- Generator: Adobe Illustrator 24.1.3, SVG Export Plug-In . SVG Version: 6.00 Build 0)  -->
<svg version="1.1" id="Ebene_1" xmlns="http://www.w3.org/2000/svg" xmlns:xlink="http://www.w3.org/1999/xlink" x="0px" y="0px"
	 viewBox="0 0 307.9 38" style="enable-background:new 0 0 307.9 38;" xml:space="preserve">
<style type="text/css">
	.st0{fill:#E11E19;}
	.st1{fill:#FFFFFF;}
	.st2{fill:#212934;}
</style>
<g>
	<g>
		<path class="st0" d="M13.3,27.8H7.1V12.3h10.5v11.4C17.6,26,15.6,27.8,13.3,27.8z"/>
	</g>
	<g>
		<path class="st0" d="M22.7,30.8h-5.8c-0.4,0-0.8-0.4-0.8-0.8s0.4-0.8,0.8-0.8h4.2v-4.1c0-0.4,0.4-0.8,0.8-0.8s0.8,0.4,0.8,0.8
			V30.8z"/>
	</g>
	<g>
		<path class="st0" d="M1.1,14.7c-0.4,0-0.8-0.4-0.8-0.8V8.2h5.8c0.4,0,0.8,0.4,0.8,0.8c0,0.4-0.4,0.8-0.8,0.8H1.8v4.1
			C1.8,14.3,1.5,14.7,1.1,14.7z"/>
	</g>
	<g>
		<rect x="8.9" y="14.9" class="st1" width="6.7" height="2"/>
	</g>
	<g>
		<rect x="8.9" y="18.1" class="st1" width="6.7" height="2"/>
	</g>
</g>
<g>
	<path class="st2" d="M48.3,28.6c-1.5,0.8-3.3,1.2-5.5,1.2c-2.9,0-5.1-0.9-6.9-2.8c-1.7-1.8-2.6-4.3-2.6-7.2c0-3.2,1-5.8,2.9-7.8
		s4.4-3,7.4-3c1.9,0,3.5,0.3,4.7,0.8v2.5c-1.4-0.8-3-1.2-4.8-1.2c-2.3,0-4.2,0.8-5.6,2.3s-2.1,3.6-2.1,6.2c0,2.4,0.7,4.4,2,5.8
		c1.3,1.5,3.1,2.2,5.3,2.2c2,0,3.8-0.4,5.2-1.3C48.3,26.3,48.3,28.6,48.3,28.6z"/>
	<path class="st2" d="M55.4,29.4H53v-20h2.4V29.4z"/>
	<path class="st2" d="M61.4,29.4v-20h5.7c1.7,0,3.1,0.4,4.1,1.3c1,0.8,1.5,2,1.5,3.3c0,1.1-0.3,2.1-0.9,3c-0.6,0.8-1.5,1.4-2.5,1.8
		v0.1c1.4,0.2,2.4,0.7,3.2,1.5c0.8,0.9,1.2,2,1.2,3.4c0,1.7-0.6,3.1-1.8,4.2c-1.2,1.1-2.8,1.6-4.7,1.6h-5.8V29.4z M63.8,11.5V18h2.4
		c1.3,0,2.3-0.3,3-0.9s1.1-1.5,1.1-2.6c0-2-1.3-2.9-3.8-2.9h-2.7V11.5z M63.8,20.1v7.2H67c1.4,0,2.5-0.3,3.2-1s1.1-1.5,1.1-2.7
		c0-2.4-1.6-3.6-4.8-3.6h-2.7V20.1z"/>
</g>
<g>
	<path class="st2" d="M95.3,29.7H93v-2.4h-0.1C91.8,29.1,90.2,30,88,30c-1.8,0-3.2-0.6-4.3-1.9S82,25,82,22.8c0-2.4,0.6-4.3,1.8-5.7
		c1.2-1.4,2.8-2.1,4.8-2.1c2,0,3.4,0.8,4.3,2.3H93V8.4h2.3V29.7z M93,23.2v-2.1c0-1.2-0.4-2.1-1.1-2.9s-1.7-1.2-2.9-1.2
		c-1.4,0-2.5,0.5-3.3,1.5s-1.2,2.4-1.2,4.3c0,1.7,0.4,3,1.2,3.9c0.8,1,1.8,1.4,3.1,1.4c1.3,0,2.3-0.5,3.1-1.4S93,24.6,93,23.2z"/>
	<path class="st2" d="M106.6,30c-2.1,0-3.8-0.7-5.1-2c-1.3-1.3-1.9-3.1-1.9-5.3c0-2.4,0.7-4.3,2-5.6c1.3-1.4,3.1-2,5.3-2
		c2.1,0,3.8,0.7,5,2s1.8,3.1,1.8,5.5c0,2.3-0.6,4.1-1.9,5.5S108.8,30,106.6,30z M106.8,16.9c-1.5,0-2.6,0.5-3.5,1.5
		c-0.9,1-1.3,2.4-1.3,4.2c0,1.7,0.4,3,1.3,4c0.9,1,2,1.5,3.5,1.5c1.5,0,2.6-0.5,3.4-1.4c0.8-1,1.2-2.3,1.2-4.1
		c0-1.8-0.4-3.2-1.2-4.1C109.4,17.4,108.3,16.9,106.8,16.9z"/>
	<path class="st2" d="M132.3,29.7h-2.9l-4.6-7.7c-0.1-0.2-0.3-0.6-0.5-1h-0.1c-0.1,0.2-0.3,0.5-0.5,1l-4.8,7.7h-2.9l6.7-10.1
		l-6.2-10h2.9l4.1,7.1c0.3,0.5,0.5,0.9,0.7,1.4h0.1c0.3-0.6,0.6-1.1,0.8-1.5l4.3-7h2.7l-6.3,10L132.3,29.7z"/>
	<path class="st2" d="M136.9,11.7c-0.4,0-0.8-0.1-1-0.4c-0.3-0.3-0.4-0.6-0.4-1.1c0-0.4,0.1-0.8,0.4-1.1c0.3-0.3,0.6-0.4,1-0.4
		c0.4,0,0.8,0.1,1.1,0.4s0.4,0.6,0.4,1.1c0,0.4-0.1,0.8-0.4,1.1C137.7,11.5,137.4,11.7,136.9,11.7z M138.1,29.7h-2.3V15.3h2.3V29.7z
		"/>
	<path class="st2" d="M145.8,27.6L145.8,27.6l-0.1,2.1h-2.3V8.4h2.3v9.4h0.1c1.1-1.9,2.8-2.9,5-2.9c1.8,0,3.3,0.6,4.3,1.9
		c1,1.3,1.6,3,1.6,5.2c0,2.4-0.6,4.3-1.8,5.8c-1.2,1.4-2.8,2.2-4.8,2.2C148.2,30,146.8,29.2,145.8,27.6z M145.7,21.8v2
		c0,1.2,0.4,2.2,1.2,3c0.8,0.8,1.7,1.2,2.9,1.2c1.4,0,2.5-0.5,3.3-1.6c0.8-1.1,1.2-2.5,1.2-4.4c0-1.6-0.4-2.8-1.1-3.8
		s-1.7-1.4-3-1.4c-1.3,0-2.4,0.5-3.2,1.4C146.1,19.2,145.7,20.4,145.7,21.8z"/>
	<path class="st2" d="M167,30c-2.1,0-3.8-0.7-5.1-2c-1.3-1.3-1.9-3.1-1.9-5.3c0-2.4,0.7-4.3,2-5.6c1.3-1.4,3.1-2,5.3-2
		c2.1,0,3.8,0.7,5,2c1.2,1.3,1.8,3.1,1.8,5.5c0,2.3-0.6,4.1-1.9,5.5S169.2,30,167,30z M167.2,16.9c-1.5,0-2.6,0.5-3.5,1.5
		c-0.9,1-1.3,2.4-1.3,4.2c0,1.7,0.4,3,1.3,4c0.9,1,2,1.5,3.5,1.5c1.5,0,2.6-0.5,3.4-1.4c0.8-1,1.2-2.3,1.2-4.1
		c0-1.8-0.4-3.2-1.2-4.1C169.8,17.4,168.6,16.9,167.2,16.9z"/>
	<path class="st2" d="M189,15.3l-4.8,7.3l4.7,7.1h-2.7l-2.8-4.6c-0.2-0.3-0.4-0.7-0.6-1.1h-0.1c0,0.1-0.3,0.4-0.7,1.1l-2.9,4.6h-2.6
		l4.9-7l-4.7-7.3h2.7l2.8,4.9c0.2,0.4,0.4,0.7,0.6,1.1h0.1l3.6-6H189z"/>
	<path class="st2" d="M218.9,30c-0.5,0-1-0.1-1.4-0.2c-0.4-0.1-0.8-0.4-1.1-0.6c-0.3-0.3-0.7-0.6-1-1c-0.3-0.4-0.7-0.8-1-1.3
		c-0.4,0.4-0.8,0.8-1.3,1.2c-0.5,0.4-1,0.7-1.6,1c-0.6,0.3-1.3,0.5-2,0.7c-0.7,0.2-1.5,0.3-2.3,0.3c-1,0-1.9-0.1-2.8-0.4
		s-1.6-0.6-2.2-1.1c-0.6-0.5-1.1-1.1-1.4-1.8s-0.5-1.5-0.5-2.5c0-1.4,0.4-2.6,1.2-3.7c0.8-1,2-1.8,3.4-2.5c-0.3-0.2-0.6-0.4-0.8-0.7
		c-0.3-0.3-0.5-0.6-0.7-0.9c-0.2-0.4-0.4-0.7-0.5-1.2c-0.1-0.4-0.2-0.9-0.2-1.4c0-0.7,0.1-1.4,0.4-2c0.3-0.6,0.6-1,1.1-1.4
		s1-0.7,1.7-0.9c0.6-0.2,1.3-0.3,2.1-0.3c0.7,0,1.4,0.1,2,0.3c0.6,0.2,1.1,0.5,1.6,0.9c0.4,0.4,0.8,0.8,1,1.3
		c0.2,0.5,0.4,1.1,0.4,1.8c0,1.1-0.3,2.1-1,2.8s-1.6,1.4-2.9,1.9c0.6,0.3,1.2,0.6,1.8,0.9c0.5,0.4,1,0.8,1.4,1.2
		c0.4,0.4,0.9,0.9,1.2,1.4c0.4,0.5,0.8,1,1.1,1.6c0.8-1.1,1.3-2.2,1.7-3.5c0.4-1.3,0.6-2.6,0.6-4c0-0.4,0-0.7-0.1-1
		s-0.1-0.6-0.2-0.9h2.2c0.1,0.3,0.1,0.6,0.1,0.9c0,0.3,0,0.6,0,1c0,0.8-0.1,1.7-0.3,2.6c-0.2,0.9-0.4,1.7-0.7,2.5s-0.6,1.6-1,2.3
		c-0.4,0.7-0.8,1.4-1.3,2c0.3,0.4,0.6,0.8,0.9,1.2c0.3,0.3,0.5,0.6,0.8,0.8c0.3,0.2,0.6,0.4,0.9,0.5s0.6,0.2,1,0.2
		c0.3,0,0.6,0,0.9-0.1c0.3-0.1,0.6-0.2,0.9-0.3v2.1c-0.3,0.1-0.7,0.2-1.1,0.3C219.6,29.9,219.2,30,218.9,30z M207.1,28
		c0.7,0,1.4-0.1,2-0.2c0.6-0.2,1.1-0.4,1.7-0.6s1-0.6,1.4-0.9c0.4-0.3,0.8-0.7,1.1-1.1c-0.6-0.9-1.1-1.6-1.6-2.3s-1-1.2-1.5-1.6
		s-1-0.8-1.6-1.2c-0.6-0.3-1.2-0.6-1.9-0.9c-0.6,0.2-1.1,0.5-1.6,0.8c-0.5,0.3-0.9,0.6-1.3,1s-0.6,0.8-0.8,1.4
		c-0.2,0.5-0.3,1.1-0.3,1.8c0,0.6,0.1,1.2,0.3,1.7s0.6,0.9,1,1.2c0.4,0.3,0.9,0.6,1.4,0.7C205.9,27.9,206.5,28,207.1,28z
		 M210.6,13.7c0-0.5-0.1-0.9-0.3-1.2c-0.2-0.3-0.4-0.6-0.7-0.8c-0.3-0.2-0.6-0.4-0.9-0.5c-0.3-0.1-0.6-0.1-1-0.1
		c-0.9,0-1.6,0.2-2.2,0.7c-0.5,0.5-0.8,1.2-0.8,2c0,0.4,0.1,0.7,0.2,1.1c0.1,0.3,0.3,0.6,0.5,0.9s0.5,0.5,0.7,0.8
		c0.3,0.2,0.6,0.4,0.9,0.6c1.2-0.4,2.1-0.9,2.6-1.4C210.3,15.2,210.6,14.5,210.6,13.7z"/>
	<path class="st2" d="M240.5,22.6h-7.6v-1.8h7.6V22.6z"/>
	<path class="st2" d="M255.2,29c-1.1,0.7-2.4,1-3.9,1c-2,0-3.7-0.7-4.9-2c-1.3-1.3-1.9-3.1-1.9-5.2c0-2.4,0.7-4.3,2-5.7
		c1.4-1.4,3.2-2.1,5.4-2.1c1.3,0,2.4,0.2,3.3,0.7V18c-1.1-0.7-2.2-1.1-3.4-1.1c-1.5,0-2.7,0.5-3.6,1.6c-0.9,1.1-1.4,2.4-1.4,4.1
		c0,1.7,0.4,3,1.3,4c0.9,1,2.1,1.5,3.5,1.5c1.3,0,2.4-0.4,3.5-1.2V29z"/>
	<path class="st2" d="M266.8,17.6c-0.4-0.3-1-0.5-1.7-0.5c-1,0-1.8,0.5-2.5,1.4c-0.7,0.9-1,2.2-1,3.8v7.3h-2.3V15.3h2.3v3h0.1
		c0.3-1,0.8-1.8,1.5-2.4c0.7-0.6,1.4-0.8,2.3-0.8c0.6,0,1.1,0.1,1.4,0.2V17.6z"/>
	<path class="st2" d="M280.3,29.7H278v-2.2h-0.1c-1,1.7-2.5,2.6-4.4,2.6c-1.4,0-2.5-0.4-3.4-1.1s-1.2-1.8-1.2-3
		c0-2.7,1.6-4.2,4.7-4.7l4.3-0.6c0-2.4-1-3.7-3-3.7c-1.7,0-3.3,0.6-4.7,1.8v-2.4c1.4-0.9,3-1.3,4.9-1.3c3.4,0,5.1,1.8,5.1,5.3V29.7z
		 M278,22.4l-3.5,0.5c-1.1,0.1-1.9,0.4-2.4,0.8s-0.8,1-0.8,2c0,0.7,0.2,1.3,0.7,1.7c0.5,0.4,1.2,0.7,2,0.7c1.1,0,2.1-0.4,2.8-1.2
		s1.1-1.8,1.1-3V22.4z"/>
	<path class="st2" d="M292,29.5c-0.5,0.3-1.3,0.4-2.1,0.4c-2.5,0-3.8-1.4-3.8-4.2v-8.5h-2.5v-2h2.5v-3.5l2.3-0.7v4.2h3.6v2h-3.6v8.1
		c0,1,0.2,1.6,0.5,2.1c0.3,0.4,0.9,0.6,1.6,0.6c0.6,0,1.1-0.2,1.5-0.5V29.5z"/>
	<path class="st2" d="M307.3,23.1h-10.1c0,1.6,0.5,2.8,1.3,3.7s2,1.3,3.4,1.3c1.6,0,3.1-0.5,4.5-1.6v2.2c-1.3,0.9-2.9,1.4-5,1.4
		c-2,0-3.6-0.7-4.8-2c-1.2-1.3-1.7-3.1-1.7-5.5c0-2.2,0.6-4,1.9-5.5c1.3-1.4,2.8-2.1,4.7-2.1s3.3,0.6,4.4,1.8c1,1.2,1.5,2.9,1.5,5.1
		V23.1z M304.9,21.1c0-1.3-0.3-2.4-1-3.1s-1.5-1.1-2.6-1.1c-1.1,0-2,0.4-2.8,1.2c-0.8,0.8-1.2,1.8-1.4,3H304.9z"/>
</g>
</svg>
