<?xml version="1.0" encoding="utf-8"?>
<!-- Generator: Adobe Illustrator 24.1.3, SVG Export Plug-In . SVG Version: 6.00 Build 0)  -->
<svg version="1.1" id="Ebene_1" xmlns="http://www.w3.org/2000/svg" xmlns:xlink="http://www.w3.org/1999/xlink" x="0px" y="0px"
	 viewBox="0 0 311.7 38" style="enable-background:new 0 0 311.7 38;" xml:space="preserve">
<style type="text/css">
	.st0{clip-path:url(#SVGID_2_);}
	.st1{fill:#212934;}
	.st2{fill:#E11E19;}
</style>
<g>
	<defs>
		<rect id="SVGID_1_" x="1" y="0.5" width="314" height="38"/>
	</defs>
	<clipPath id="SVGID_2_">
		<use xlink:href="#SVGID_1_"  style="overflow:visible;"/>
	</clipPath>
	<g class="st0">
		<g>
			<path class="st1" d="M49.5,28.7c-1.5,0.8-3.3,1.2-5.5,1.2c-2.9,0-5.1-0.9-6.9-2.8c-1.7-1.8-2.6-4.3-2.6-7.2c0-3.2,1-5.8,2.9-7.8
				c1.9-2,4.4-3,7.3-3c1.9,0,3.5,0.3,4.7,0.8v2.5c-1.4-0.8-3-1.2-4.8-1.2c-2.3,0-4.2,0.8-5.6,2.3S37,17.2,37,19.8
				c0,2.4,0.7,4.4,2,5.8c1.3,1.5,3.1,2.2,5.3,2.2c2,0,3.8-0.4,5.2-1.3V28.7z"/>
			<path class="st1" d="M56.7,29.6h-2.4V9.5h2.4V29.6z"/>
			<path class="st1" d="M62.7,29.6V9.5h5.7c1.7,0,3.1,0.4,4.1,1.3c1,0.8,1.5,2,1.5,3.3c0,1.1-0.3,2.1-0.9,3
				c-0.6,0.8-1.5,1.4-2.5,1.8v0.1c1.4,0.2,2.4,0.7,3.2,1.5c0.8,0.9,1.2,2,1.2,3.4c0,1.7-0.6,3.1-1.8,4.2c-1.2,1.1-2.8,1.6-4.7,1.6
				H62.7z M65.1,11.6v6.5h2.4c1.3,0,2.3-0.3,3-0.9c0.7-0.6,1.1-1.5,1.1-2.6c0-2-1.3-2.9-3.8-2.9H65.1z M65.1,20.2v7.2h3.2
				c1.4,0,2.5-0.3,3.2-1c0.8-0.7,1.1-1.5,1.1-2.7c0-2.4-1.6-3.6-4.8-3.6H65.1z"/>
		</g>
		<g>
			<path class="st1" d="M94,10.5c-0.4-0.3-1-0.4-1.5-0.4c-1.6,0-2.4,1-2.4,3v2.2h3.4v2h-3.4v12.4h-2.3V17.4h-2.4v-2h2.4v-2.3
				c0-1.5,0.4-2.7,1.3-3.6c0.9-0.9,2-1.3,3.2-1.3c0.7,0,1.3,0.1,1.7,0.3V10.5z"/>
			<path class="st1" d="M98.9,29.8h-2.3V8.5h2.3V29.8z"/>
			<path class="st1" d="M115.9,29.8h-2.3v-2.3h-0.1c-1,1.7-2.4,2.6-4.4,2.6c-3.4,0-5.1-2-5.1-6.1v-8.6h2.3v8.2c0,3,1.2,4.5,3.5,4.5
				c1.1,0,2-0.4,2.8-1.2c0.7-0.8,1.1-1.9,1.1-3.2v-8.3h2.3V29.8z"/>
			<path class="st1" d="M135.4,29.8h-2.9l-4.6-7.7c-0.1-0.2-0.3-0.6-0.5-1h-0.1c-0.1,0.2-0.3,0.5-0.5,1l-4.8,7.7h-2.9l6.7-10.1
				l-6.2-10h2.9l4.1,7.1c0.3,0.5,0.5,0.9,0.7,1.4h0.1c0.3-0.6,0.6-1.1,0.8-1.5l4.3-7h2.7l-6.3,10L135.4,29.8z"/>
			<path class="st1" d="M150.7,29.8h-3.2l-6.3-6.9h-0.1v6.9h-2.3V8.5h2.3V22h0.1l6-6.6h3l-6.7,6.9L150.7,29.8z"/>
			<path class="st1" d="M159.8,30.1c-2.1,0-3.8-0.7-5.1-2c-1.3-1.3-1.9-3.1-1.9-5.3c0-2.4,0.7-4.3,2-5.6c1.3-1.4,3.1-2,5.3-2
				c2.1,0,3.8,0.7,5,2c1.2,1.3,1.8,3.1,1.8,5.5c0,2.3-0.6,4.1-1.9,5.5S162,30.1,159.8,30.1z M160,17c-1.5,0-2.6,0.5-3.5,1.5
				c-0.9,1-1.3,2.4-1.3,4.2c0,1.7,0.4,3,1.3,4c0.9,1,2,1.5,3.5,1.5c1.5,0,2.6-0.5,3.4-1.4c0.8-1,1.2-2.3,1.2-4.1
				c0-1.8-0.4-3.2-1.2-4.1C162.6,17.5,161.5,17,160,17z"/>
			<path class="st1" d="M191.7,29.8h-2.3v-8.2c0-1.6-0.2-2.7-0.7-3.4c-0.5-0.7-1.3-1.1-2.5-1.1c-1,0-1.8,0.4-2.5,1.3
				c-0.7,0.9-1,2-1,3.2v8.2h-2.3v-8.5c0-2.8-1.1-4.2-3.3-4.2c-1,0-1.8,0.4-2.5,1.3c-0.7,0.8-1,1.9-1,3.3v8.2h-2.3V15.4h2.3v2.3h0.1
				c1-1.7,2.5-2.6,4.5-2.6c1,0,1.8,0.3,2.6,0.8c0.7,0.5,1.2,1.3,1.5,2.2c1.1-2,2.7-3,4.8-3c3.2,0,4.7,1.9,4.7,5.8V29.8z"/>
			<path class="st1" d="M199.1,27.7L199.1,27.7l-0.1,8.7h-2.3V15.4h2.3v2.5h0.1c1.1-1.9,2.8-2.9,5-2.9c1.8,0,3.3,0.6,4.3,1.9
				c1,1.3,1.6,3,1.6,5.2c0,2.4-0.6,4.3-1.8,5.8s-2.8,2.2-4.8,2.2C201.5,30.1,200.1,29.3,199.1,27.7z M199,21.9v2
				c0,1.2,0.4,2.2,1.2,3c0.8,0.8,1.7,1.2,2.9,1.2c1.4,0,2.5-0.5,3.3-1.6c0.8-1.1,1.2-2.5,1.2-4.4c0-1.6-0.4-2.8-1.1-3.8
				c-0.7-0.9-1.7-1.4-3-1.4c-1.3,0-2.4,0.5-3.2,1.4C199.4,19.3,199,20.5,199,21.9z"/>
			<path class="st1" d="M221.8,17.7c-0.4-0.3-1-0.5-1.7-0.5c-1,0-1.8,0.5-2.5,1.4c-0.7,0.9-1,2.2-1,3.8v7.3h-2.3V15.4h2.3v3h0.1
				c0.3-1,0.8-1.8,1.5-2.4c0.7-0.6,1.4-0.8,2.3-0.8c0.6,0,1.1,0.1,1.4,0.2V17.7z"/>
			<path class="st1" d="M226.2,11.8c-0.4,0-0.8-0.1-1-0.4c-0.3-0.3-0.4-0.6-0.4-1.1c0-0.4,0.1-0.8,0.4-1.1c0.3-0.3,0.6-0.4,1-0.4
				c0.4,0,0.8,0.1,1.1,0.4c0.3,0.3,0.4,0.6,0.4,1.1c0,0.4-0.1,0.8-0.4,1C227,11.6,226.6,11.8,226.2,11.8z M227.3,29.8H225V15.4h2.3
				V29.8z"/>
			<path class="st1" d="M253,29.8h-2.3v-8.2c0-1.6-0.2-2.7-0.7-3.4c-0.5-0.7-1.3-1.1-2.5-1.1c-1,0-1.8,0.4-2.5,1.3
				c-0.7,0.9-1,2-1,3.2v8.2h-2.3v-8.5c0-2.8-1.1-4.2-3.3-4.2c-1,0-1.8,0.4-2.5,1.3c-0.7,0.8-1,1.9-1,3.3v8.2h-2.3V15.4h2.3v2.3h0.1
				c1-1.7,2.5-2.6,4.5-2.6c1,0,1.8,0.3,2.6,0.8c0.7,0.5,1.2,1.3,1.5,2.2c1.1-2,2.7-3,4.8-3c3.2,0,4.7,1.9,4.7,5.8V29.8z"/>
			<path class="st1" d="M268.3,29.8H266v-2.2H266c-1,1.7-2.5,2.6-4.4,2.6c-1.4,0-2.5-0.4-3.4-1.1c-0.8-0.8-1.2-1.8-1.2-3
				c0-2.7,1.6-4.2,4.7-4.7l4.3-0.6c0-2.4-1-3.7-3-3.7c-1.7,0-3.3,0.6-4.7,1.8v-2.4c1.4-0.9,3-1.3,4.9-1.3c3.4,0,5.1,1.8,5.1,5.3
				V29.8z M266,22.5l-3.5,0.5c-1.1,0.1-1.9,0.4-2.4,0.8c-0.5,0.4-0.8,1-0.8,2c0,0.7,0.2,1.3,0.7,1.7c0.5,0.4,1.2,0.7,2,0.7
				c1.1,0,2.1-0.4,2.8-1.2c0.7-0.8,1.1-1.8,1.1-3V22.5z"/>
			<path class="st1" d="M280,29.6c-0.5,0.3-1.3,0.4-2.1,0.4c-2.5,0-3.8-1.4-3.8-4.2v-8.5h-2.5v-2h2.5v-3.5l2.3-0.7v4.2h3.6v2h-3.6
				v8.1c0,1,0.2,1.6,0.5,2.1c0.3,0.4,0.9,0.6,1.6,0.6c0.6,0,1.1-0.2,1.5-0.5V29.6z"/>
			<path class="st1" d="M289.8,30.1c-2.1,0-3.8-0.7-5.1-2s-1.9-3.1-1.9-5.3c0-2.4,0.7-4.3,2-5.6c1.3-1.4,3.1-2,5.3-2
				c2.1,0,3.8,0.7,5,2c1.2,1.3,1.8,3.1,1.8,5.5c0,2.3-0.6,4.1-1.9,5.5S292,30.1,289.8,30.1z M290,17c-1.5,0-2.6,0.5-3.5,1.5
				c-0.9,1-1.3,2.4-1.3,4.2c0,1.7,0.4,3,1.3,4c0.9,1,2,1.5,3.5,1.5c1.5,0,2.6-0.5,3.4-1.4c0.8-1,1.2-2.3,1.2-4.1
				c0-1.8-0.4-3.2-1.2-4.1C292.6,17.5,291.5,17,290,17z"/>
			<path class="st1" d="M308.8,17.7c-0.4-0.3-1-0.5-1.7-0.5c-1,0-1.8,0.5-2.5,1.4c-0.7,0.9-1,2.2-1,3.8v7.3h-2.3V15.4h2.3v3h0.1
				c0.3-1,0.8-1.8,1.5-2.4c0.7-0.6,1.4-0.8,2.3-0.8c0.6,0,1.1,0.1,1.4,0.2V17.7z"/>
		</g>
		<g>
			<polygon class="st2" points="23,22.5 23,20.4 16,22.5 20.2,22.5 			"/>
			<polygon class="st2" points="16,13.7 16,15.9 23,13.7 18.8,13.7 			"/>
			<polygon class="st2" points="16,20.6 23,17.8 23,15 16,18.2 			"/>
			<path class="st2" d="M24.5,8.1l-17.7,0c-0.7,0-2,2.1-2,3.2h15.5h4.3C24.5,11.3,24.5,8.1,24.5,8.1z"/>
			<path class="st2" d="M5.2,24.1c0,1.7,1,3.2,2.1,3.2h10.9v3.3l4.7,0v-3.8l1.5,0l0-2.7h-1H5.2z"/>
			<path class="st2" d="M10.8,20.3v-7.7H2v10.5h6.4C9.7,23.1,10.8,21.9,10.8,20.3z M3.2,14.1h6.3v6.2c0,0.7-0.5,1.4-1.1,1.4H3.2
				V14.1z"/>
		</g>
	</g>
</g>
</svg>
