<svg id="Ebene_3" data-name="Ebene 3" xmlns="http://www.w3.org/2000/svg" viewBox="0 0 260 180">
  <title>LibreOffice powered by CIB</title>
  <path d="M0,140v.5C80.8,56.3,186,113,260,72V67.7C187,107.8,74.5,54.1,0,140Z" fill="#fff"/>
  <path d="M0,0V140c74.5-85.9,187-32.2,260-72.3V0Z" fill="#18a303"/>
  <path d="M0,140.5V180H260V72C186,113,80.8,56.3,0,140.5Z" fill="#e11e19"/>
  <g id="Libre">
    <polyline points="73.7 39.7 73.7 64.4 89.6 64.4 89.6 60.7 78.6 60.7 78.6 39.7 73.7 39.7" fill="#fff"/>
    <path d="M92.6,64.4h4.9V46.6H92.6V64.4M95,45.1a2.8,2.8,0,1,0-2.8-2.8h0A2.73,2.73,0,0,0,95,45.1h0" fill="#fff"/>
    <path d="M105.9,48.7h0l-.1-10.5H101V64.5h4.8l.1-2.1h.1a6.28,6.28,0,0,0,5.6,2.4c4.7,0,7.8-4.3,7.8-9.6,0-5.1-2.8-8.9-7.6-8.9a7.56,7.56,0,0,0-5.9,2.4m0,6.4c0-3.1,1.4-5.1,4-5.1,2.9,0,4.3,2.1,4.3,5.5s-1.4,5.5-4.3,5.5c-2.5,0-4.1-2-4.1-5.1v-.8" fill="#fff"/>
    <path d="M132.4,46.3a7.29,7.29,0,0,0-5.6,3.5h-.1l-.1-3.2h-4.8V64.4h4.9V57.7c0-3.6.7-4.9,1.8-5.6a7,7,0,0,1,3.7-1.1l.2-4.7" fill="#fff"/>
    <path d="M150.3,54.5c0-4.4-2.7-8.2-7.3-8.2-5.6,0-9.2,3.9-9.2,9.7s3.7,8.8,9.2,8.8a12.82,12.82,0,0,0,6.1-1.2l-.5-3.6a14.5,14.5,0,0,1-5,1.1c-2.9,0-4.8-1.4-5-4.1H150a11.34,11.34,0,0,0,.3-2.5M142.4,50c2.1,0,3.1,1.7,3.2,3.5h-6.9a4,4,0,0,1,3.7-3.5" fill="#fff"/>
    <path d="M165,39.4c-6.5,0-11.9,4.8-11.9,12.7s5.4,12.7,11.9,12.7,12-4.8,12-12.7-5.4-12.7-12-12.7m.1,2.4c4.9,0,8.6,3.6,8.6,10.3s-3.7,10.2-8.6,10.2-8.6-3.6-8.6-10.2,3.7-10.3,8.6-10.3" fill="#fff"/>
    <path d="M181.6,45.7v1.1h-2.9v2.3h2.9V64.4h3V49.1h4.5V46.8h-4.5V45.2c0-3.2,1.3-5,3.8-5a6.9,6.9,0,0,1,2.5.4l.3-2.3a9.29,9.29,0,0,0-2.9-.5c-4.3.1-6.7,2.9-6.7,7.9" fill="#fff"/>
    <path d="M191.7,45.7v1.1h-2.9v2.3h2.9V64.4h3V49.1h4.5V46.8h-4.5V45.2c0-3.2,1.3-5,3.8-5a6.9,6.9,0,0,1,2.5.4l.3-2.3a9.29,9.29,0,0,0-2.9-.5c-4.2.1-6.7,2.9-6.7,7.9" fill="#fff"/>
    <path d="M202.8,64.4h3V46.8h-3V64.4m1.5-20.2a1.9,1.9,0,1,0-1.9-1.9h0a2,2,0,0,0,1.9,1.9h0" fill="#fff"/>
    <path d="M212.2,55.5c0-4.5,2.6-6.8,6.1-6.8a11.16,11.16,0,0,1,4.7,1.1l.3-2.3a11.25,11.25,0,0,0-4.8-1.1c-5.4,0-9.6,3.3-9.6,9.5,0,5.8,3.7,8.9,8.6,8.9a12.81,12.81,0,0,0,5.5-1l-.3-2.3a11,11,0,0,1-4.7,1c-3.3,0-5.8-2.2-5.8-7" fill="#fff"/>
    <path d="M240.5,56.3a10.87,10.87,0,0,0,.1-1.8c0-4.5-2.4-8.1-6.9-8.1-4.9,0-8.5,4.1-8.5,9.5,0,6,3.6,8.9,8.5,8.9a14.51,14.51,0,0,0,5.5-1l-.3-2.4a11.17,11.17,0,0,1-4.8,1c-3.5,0-5.8-2.1-5.9-6.2l12.3.1m-6.9-7.6c2.7,0,4.1,2.2,4.1,5.1h-9.2c.5-3,2.2-5.1,5.1-5.1" fill="#fff"/>
    <path d="M47.3,23a1.1,1.1,0,0,0-1,.6.91.91,0,0,0,.2,1.1l8.7,8.8a.91.91,0,0,0,1.1.2.87.87,0,0,0,.6-.9V24a1.08,1.08,0,0,0-1-1Z" fill="#fff"/>
    <path d="M23.4,23a1.08,1.08,0,0,0-1,1V64a1.08,1.08,0,0,0,1,1H56a1.08,1.08,0,0,0,1-1V38.3a.91.91,0,0,0-.3-.7L42.6,23.3a1.08,1.08,0,0,0-.7-.3Zm1,2.1H41.5L55,38.7V63H24.4V25.1Z" fill="#fff"/>
  </g>
  <g id="CIB">
    <path d="M207.1,135.2a3.54,3.54,0,0,0-.9-2.8,4.83,4.83,0,0,0-3.1-.8H197v7.3h6.3a3.89,3.89,0,0,0,2.9-.9,3.54,3.54,0,0,0,.9-2.8Zm.8,13.3a4,4,0,0,0-1-3.1,5.43,5.43,0,0,0-3.5-.9h-6.5v8.1h6.7s2.6-.3,3.3-.9,1-1.6,1-3.2Zm-14.3-23.3h9.7c3.7,0,6.4.8,8.2,2.3a8.8,8.8,0,0,1,1.5,10.9,6.76,6.76,0,0,1-3.2,2.6v.1c3.8,1,5.7,3.7,5.7,7.9a11.41,11.41,0,0,1-.7,4.1,9.45,9.45,0,0,1-2.1,3.1,10.23,10.23,0,0,1-3.7,2,20,20,0,0,1-5.4.7H189.8V129.3c-.1-1.7,2.2-4.1,3.8-4.1Z" fill="#fff"/>
    <path d="M167.1,131.7c-9.4-1.4-11.6,1.8-11.6,10.3,0,8.2,2.3,11.3,12.4,10.3,3.2-.3,3.9.7,4.5,5.6-1.1.6-5.9,1.4-9.3,1.3-5.1-.2-9.3-1.4-11.7-4.3s-3.7-7.2-3.7-13.2c0-12,5.4-17,15.9-17a25.11,25.11,0,0,1,8.6,1.5c-1,5.6-1.9,6-5.1,5.5Z" fill="#fff"/>
    <path d="M185.1,154.8c0,1.9-2.3,4-4.2,4h-3.4V125.3h7.6v29.5Z" fill="#fff"/>
    <path d="M234.5,144.5c2.5,0,6.2-4,6.2-6.1v-21H221.4v27.2l13.1-.1Z" fill="#fff"/>
  </g>
  <g id="powered_by" data-name="powered by" style="isolation: isolate">
    <path d="M22.5,150.9h1.1l.2,1a3.13,3.13,0,0,1,1.1-.9,2.77,2.77,0,0,1,1.3-.3,3.59,3.59,0,0,1,1.1.2,1.6,1.6,0,0,1,.9.7,2.59,2.59,0,0,1,.6,1.4,12.73,12.73,0,0,1,.2,2.2,6.33,6.33,0,0,1-.7,3.5,2.53,2.53,0,0,1-2.2,1.1,2.77,2.77,0,0,1-1.3-.3,3.59,3.59,0,0,1-1-.7v4.1H22.3v-12Zm3.3,7.5a2,2,0,0,0,.8-.1.82.82,0,0,0,.5-.5,4.05,4.05,0,0,0,.3-1,7.59,7.59,0,0,0,.1-1.6,8.62,8.62,0,0,0-.1-1.7,6.21,6.21,0,0,0-.3-1,1.21,1.21,0,0,0-.5-.5,1.48,1.48,0,0,0-.7-.1,2,2,0,0,0-1.1.3,5.5,5.5,0,0,0-.9.7v4.6a3.49,3.49,0,0,0,.9.6A1.93,1.93,0,0,0,25.8,158.4Z" fill="#fff"/>
    <path d="M34.6,159.6a3.19,3.19,0,0,1-1.4-.3,2.84,2.84,0,0,1-1.1-.8,4.58,4.58,0,0,1-.7-1.4,6.65,6.65,0,0,1-.3-2.1,10.31,10.31,0,0,1,.2-2,4.58,4.58,0,0,1,.7-1.4,2.84,2.84,0,0,1,1.1-.8,3.18,3.18,0,0,1,1.4-.2,5.9,5.9,0,0,1,1.4.2,2.1,2.1,0,0,1,1.1.8,4.58,4.58,0,0,1,.7,1.4,6,6,0,0,1,.3,2,12.48,12.48,0,0,1-.2,2.1,4.58,4.58,0,0,1-.7,1.4,2.84,2.84,0,0,1-1.1.8A2.38,2.38,0,0,1,34.6,159.6Zm0-1.1a1.88,1.88,0,0,0,.8-.2,2.65,2.65,0,0,0,.6-.5,1.49,1.49,0,0,0,.3-1,12.85,12.85,0,0,0,0-3.2,2.32,2.32,0,0,0-.4-1,2.65,2.65,0,0,0-.6-.5,1.88,1.88,0,0,0-.8-.2,2.77,2.77,0,0,0-.9.1,2.65,2.65,0,0,0-.6.5,1.49,1.49,0,0,0-.3,1,7.59,7.59,0,0,0-.1,1.6,7.12,7.12,0,0,0,.1,1.6,2.32,2.32,0,0,0,.4,1,2.65,2.65,0,0,0,.6.5A1.22,1.22,0,0,0,34.6,158.5Z" fill="#fff"/>
    <path d="M39.5,150.9h1.6l1,4.4c.1.2.1.5.2.8s.1.5.1.8.1.6.1.9h0c0-.3.1-.6.1-.8s.1-.5.1-.7a6.37,6.37,0,0,1,.2-.7l1.2-4.5h1.5l1.1,4.4c.1.2.1.5.2.8s.1.5.2.8a1.88,1.88,0,0,0,.2.8h0c.1-.3.1-.6.2-.9s.1-.5.1-.8a2,2,0,0,0,.1-.7l1.1-4.4h1.5l-2.2,8.5H46.6l-1.2-4.5a6.37,6.37,0,0,1-.2-.7,2,2,0,0,1-.1-.7l-.1-.6a4.33,4.33,0,0,0-.1-.5h0a4.33,4.33,0,0,0-.1.5c0,.2-.1.4-.1.6s-.1.5-.1.7-.1.5-.2.7l-1.2,4.5H41.7Z" fill="#fff"/>
    <path d="M55.2,159.6a3.25,3.25,0,0,1-2.6-1,5.13,5.13,0,0,1-.9-3.4,12.48,12.48,0,0,1,.2-2.1,4.58,4.58,0,0,1,.7-1.4,2.26,2.26,0,0,1,1.1-.8,3.4,3.4,0,0,1,1.4-.2,5.9,5.9,0,0,1,1.4.2,3.59,3.59,0,0,1,1,.7,2.62,2.62,0,0,1,.6,1.3,10.31,10.31,0,0,1,.2,2v.6H53.4c0,.6.1,1.1.1,1.4a2.39,2.39,0,0,0,.3.9,2.65,2.65,0,0,0,.6.5,2.22,2.22,0,0,0,.9.1,3.09,3.09,0,0,0,1.1-.2,4.7,4.7,0,0,0,.9-.6l.8,1.1a3.29,3.29,0,0,1-1.3.7A3.9,3.9,0,0,1,55.2,159.6Zm-.2-7.7a1.7,1.7,0,0,0-.7.1,1,1,0,0,0-.5.4,1.49,1.49,0,0,0-.3.8c0,.4-.2.7-.2,1.2h3.4a4.12,4.12,0,0,0-.1-1.2,6.89,6.89,0,0,0-.3-.8,1,1,0,0,0-.5-.4A2,2,0,0,0,55,151.9Z" fill="#fff"/>
    <path d="M60.7,150.9h1.1l.2,1.2a5.24,5.24,0,0,1,1.1-1,2,2,0,0,1,1.3-.4h.3l-.2,1.6c-.1,0-.2,0-.2-.1H64a3,3,0,0,0-1,.2,2.76,2.76,0,0,0-.9.7v6.3H60.6v-8.5Z" fill="#fff"/>
    <path d="M69.7,159.6a3.25,3.25,0,0,1-2.6-1,5.13,5.13,0,0,1-.9-3.4,12.48,12.48,0,0,1,.2-2.1,4.58,4.58,0,0,1,.7-1.4,2.26,2.26,0,0,1,1.1-.8,3.4,3.4,0,0,1,1.4-.2,5.9,5.9,0,0,1,1.4.2,3.59,3.59,0,0,1,1,.7,2.62,2.62,0,0,1,.6,1.3,10.31,10.31,0,0,1,.2,2v.6H67.9c0,.6.1,1.1.1,1.4a2.39,2.39,0,0,0,.3.9,2.65,2.65,0,0,0,.6.5,2.22,2.22,0,0,0,.9.1,3.09,3.09,0,0,0,1.1-.2,4.7,4.7,0,0,0,.9-.6l.8,1.1a3.29,3.29,0,0,1-1.3.7A4.14,4.14,0,0,1,69.7,159.6Zm-.2-7.7a1.7,1.7,0,0,0-.7.1,1,1,0,0,0-.5.4,1.49,1.49,0,0,0-.3.8c0,.4-.2.7-.2,1.2h3.4a4.12,4.12,0,0,0-.1-1.2,6.89,6.89,0,0,0-.3-.8,1,1,0,0,0-.5-.4A2.2,2.2,0,0,0,69.5,151.9Z" fill="#fff"/>
    <path d="M77.6,159.6a3.59,3.59,0,0,1-1.1-.2,1.6,1.6,0,0,1-.9-.7,2.59,2.59,0,0,1-.6-1.4,12.73,12.73,0,0,1-.2-2.2,6.33,6.33,0,0,1,.7-3.5,2.53,2.53,0,0,1,2.2-1.1,2.77,2.77,0,0,1,1.3.3,8.65,8.65,0,0,1,1,.7v-4.6h1.5v12.3H80.4l-.2-.9a2.84,2.84,0,0,1-1.1.8A2.87,2.87,0,0,1,77.6,159.6Zm.2-1.2a3.59,3.59,0,0,0,1.1-.2,5.5,5.5,0,0,0,.9-.7v-4.6a2,2,0,0,0-.9-.6,1.93,1.93,0,0,0-1-.3,2,2,0,0,0-.8.1.82.82,0,0,0-.5.5,4.05,4.05,0,0,0-.3,1,7.59,7.59,0,0,0-.1,1.6,8.62,8.62,0,0,0,.1,1.7c.1.5.1.8.3,1a1.21,1.21,0,0,0,.5.5C77.3,158.5,77.5,158.4,77.8,158.4Z" fill="#fff"/>
    <path d="M92.1,159.6a2.77,2.77,0,0,1-1.3-.3,2.55,2.55,0,0,1-1-.7l-.2.8H88.5V147.1H90v4.7a3.92,3.92,0,0,1,1-.8,2.66,2.66,0,0,1,1.2-.3,3.59,3.59,0,0,1,1.1.2,1.6,1.6,0,0,1,.9.7,2.59,2.59,0,0,1,.6,1.4,12.73,12.73,0,0,1,.2,2.2,6.33,6.33,0,0,1-.7,3.5A2.53,2.53,0,0,1,92.1,159.6Zm-.3-1.2a2,2,0,0,0,.8-.1.82.82,0,0,0,.5-.5,4.05,4.05,0,0,0,.3-1,7.59,7.59,0,0,0,.1-1.6,8.62,8.62,0,0,0-.1-1.7,6.21,6.21,0,0,0-.3-1,1.21,1.21,0,0,0-.5-.5,1.48,1.48,0,0,0-.7-.1,2,2,0,0,0-1.1.3,5.5,5.5,0,0,0-.9.7v4.6a3.49,3.49,0,0,0,.9.6A1.69,1.69,0,0,0,91.8,158.4Z" fill="#fff"/>
    <path d="M97.3,161.7l.9-.3a.92.92,0,0,0,.6-.4c.2-.2.3-.4.5-.6a6.89,6.89,0,0,1,.4-1h-.4l-2.7-8.5h1.6l1.5,5a10.38,10.38,0,0,1,.3,1.2,5,5,0,0,1,.2,1.2h0c.1-.3.1-.7.2-1.1l.3-1.2,1.5-5h1.5l-2.8,8.8a11.64,11.64,0,0,1-.6,1.5,2.18,2.18,0,0,1-.7.9,2.62,2.62,0,0,1-.9.5l-1.1.3Z" fill="#fff"/>
  </g>
</svg>
