<svg xmlns="http://www.w3.org/2000/svg" viewBox="0 0 76 76"><defs><style>.cls-1{isolation:isolate;}.cls-2{fill:#e95653;}.cls-3{fill:none;}.cls-4{opacity:0.15;mix-blend-mode:multiply;}.cls-5{fill:#fff;}.cls-6{fill:#f9d2d1;}.cls-7{fill:#f08e8c;}</style></defs><title>ressourcen</title><g class="cls-1"><g id="Layer_1" data-name="Layer 1"><circle class="cls-2" cx="38" cy="38" r="37.5"/><path class="cls-3" d="M48.073,74.056c-.026-.018-.05-.043-.076-.062h0c-.027-.019-.051-.043-.077-.062h0c-.027-.018-.051-.043-.077-.062h0c-.027-.019-.05-.043-.077-.062h0c-.026-.018-.05-.043-.077-.062h0c-.026-.019-.05-.043-.076-.062h0c-.026-.019-.05-.043-.076-.062h0c-.027-.019-.051-.043-.077-.063h0c-.027-.019-.05-.043-.077-.062h0c-.027-.019-.05-.044-.077-.063h0c-.026-.019-.05-.043-.076-.062h0c-.026-.019-.05-.044-.076-.063h0c-.027-.019-.051-.043-.077-.062h0c-.027-.019-.05-.044-.077-.063h0c-.027-.019-.05-.043-.077-.062h0c-.026-.019-.05-.044-.076-.063h0c-.026-.019-.05-.043-.076-.062h0c-.027-.018-.051-.043-.077-.062h0c-.027-.019-.05-.043-.077-.062h0c-.027-.018-.05-.043-.077-.062h0c-.026-.019-.05-.043-.077-.062h0c-.026-.018-.05-.043-.076-.062h0c-.027-.019-.051-.043-.077-.062h0c-.027-.018-.05-.043-.077-.062h0c-.027-.019-.05-.043-.077-.062h0c-.026-.018-.05-.043-.077-.062h0c-.026-.019-.05-.043-.076-.062h0c-.026-.019-.05-.043-.076-.062h0c-.027-.019-.051-.043-.077-.062h0c-.027-.019-.05-.043-.077-.062h0c-.026-.019-.05-.043-.077-.062h0c-.026-.019-.05-.043-.076-.062h0c-.026-.019-.05-.043-.076-.062h0c-.027-.019-.051-.043-.077-.062h0c-.027-.019-.05-.043-.077-.063h0c-.026-.019-.05-.043-.077-.062h0c-.026-.019-.05-.044-.076-.062h0c-.026-.019-.05-.043-.076-.062h0c-.027-.019-.051-.043-.077-.063h0c-.027-.019-.05-.043-.077-.062h0c-.027-.018-.05-.043-.077-.062h0c-.026-.019-.05-.043-.076-.062h0c-.026-.018-.05-.043-.076-.062h0c-.027-.019-.051-.043-.077-.062h0c-.027-.018-.05-.043-.077-.062h0c-.027-.019-.05-.043-.077-.062h0c-.026-.018-.05-.043-.076-.062h0c-.026-.019-.05-.043-.076-.062h0c-.027-.019-.051-.043-.077-.062h0c-.027-.019-.05-.043-.077-.062h0c-.027-.018-.05-.043-.077-.062h0c-.026-.019-.05-.043-.077-.062h0c-.026-.018-.05-.043-.076-.062h0c-.027-.019-.051-.043-.077-.062h0c-.027-.018-.051-.043-.077-.062h0c-.027-.019-.05-.043-.077-.062h0c-.026-.018-.05-.043-.077-.062h0c-.026-.019-.05-.043-.076-.062h0c-.027-.019-.051-.043-.077-.062h0c-.027-.019-.051-.043-.077-.062h0c-.027-.019-.05-.043-.077-.062h0c-.026-.019-.05-.044-.077-.063h0c-.026-.019-.05-.043-.076-.062h0c-.026-.019-.05-.044-.076-.063h0c-.027-.019-.051-.043-.077-.062h0c-.027-.019-.05-.044-.077-.063h0c-.027-.019-.05-.043-.077-.062h0c-.026-.019-.05-.044-.076-.063h0c-.026-.019-.05-.043-.076-.062h0c-.027-.019-.051-.044-.077-.063h0c-.027-.019-.05-.043-.077-.062h0c-.027-.018-.05-.043-.077-.062h0c-.026-.019-.05-.043-.076-.062h0c-.026-.018-.05-.043-.076-.062h0c-.027-.019-.051-.043-.077-.062h0c-.027-.018-.05-.043-.077-.062h0c-.027-.019-.05-.043-.077-.062h0c-.026-.018-.05-.043-.076-.062h0c-.026-.019-.05-.043-.076-.062h0c-.027-.019-.051-.043-.077-.062h0c-.027-.019-.05-.043-.077-.062h0c-.027-.019-.05-.043-.077-.062h0c-.026-.019-.05-.043-.077-.062h0c-.026-.019-.05-.043-.076-.062h0c-.026-.019-.05-.043-.076-.062h0c-.027-.019-.051-.043-.077-.062h0c-.027-.019-.05-.043-.077-.063h0c-.026-.019-.05-.043-.077-.062h0c-.026-.019-.05-.044-.076-.063h0c-.026-.019-.05-.043-.076-.062h0c-.027-.019-.051-.044-.077-.063h0c-.027-.019-.05-.043-.077-.062h0c-.026-.018-.05-.042-.077-.062h0c-.026-.019-.05-.043-.076-.062h0c-.026-.018-.05-.043-.076-.062h0c-.027-.019-.051-.043-.077-.062h0c-.027-.018-.05-.043-.077-.062h0c-.027-.019-.05-.043-.077-.062h0c-.026-.018-.05-.043-.076-.062h0c-.026-.019-.05-.043-.076-.062h0c-.027-.018-.051-.043-.077-.062h0c-.027-.019-.05-.043-.077-.062h0c-.027-.018-.05-.043-.077-.062h0c-.026-.019-.05-.043-.076-.062h0c-.026-.019-.05-.043-.076-.062h0c-.027-.019-.051-.043-.077-.062h0c-.027-.018-.051-.043-.077-.062h0c-.027-.019-.05-.043-.077-.062h0c-.026-.018-.05-.043-.077-.062h0c-.026-.019-.05-.043-.076-.062h0c-.027-.019-.051-.043-.077-.062h0c-.027-.019-.051-.043-.077-.062h0c-.027-.019-.05-.043-.077-.062h0c-.026-.019-.05-.043-.077-.063h0c-.026-.019-.05-.043-.076-.062h0c-.027-.019-.051-.044-.077-.063h0c-.027-.019-.051-.043-.077-.062h0c-.027-.019-.05-.044-.077-.063h0c-.026-.019-.05-.043-.077-.062h0c-.026-.018-.05-.043-.076-.062h0c-.026-.019-.05-.043-.076-.062h0c-.027-.019-.051-.044-.077-.063h0c-.027-.019-.05-.043-.077-.062h0c-.027-.019-.05-.044-.077-.063h0c-.026-.019-.05-.043-.076-.062h0c-.026-.018-.05-.043-.076-.062h0c-.027-.019-.051-.043-.077-.062h0c-.027-.018-.05-.043-.077-.062h0c-.027-.019-.05-.043-.077-.062h0c-.026-.018-.05-.043-.076-.062h0c-.026-.019-.05-.043-.076-.062h0c-.027-.018-.051-.043-.077-.062h0c-.027-.019-.051-.043-.077-.062h0c-.027-.019-.05-.043-.077-.062h0c-.026-.019-.05-.043-.077-.062h0c-.026-.019-.05-.043-.076-.062h0c-.027-.019-.051-.043-.077-.062h0c-.027-.019-.05-.043-.077-.062h0c-.027-.019-.05-.043-.077-.062h0c-.026-.019-.05-.043-.077-.062h0c-.026-.019-.05-.043-.076-.063h0c-.026-.019-.05-.043-.076-.062h0c-.027-.019-.051-.044-.077-.063h0c-.027-.019-.05-.043-.077-.062h0c-.027-.019-.05-.044-.077-.063h0c-.026-.019-.05-.043-.076-.062h0c-.026-.018-.05-.043-.076-.062h0c-.027-.019-.051-.043-.077-.062h0c-.027-.018-.05-.043-.077-.062h0c-.026-.019-.05-.043-.077-.062h0c-.026-.018-.05-.043-.076-.062h0c-.026-.019-.05-.043-.076-.062h0c-.027-.018-.051-.043-.077-.062h0c-.027-.019-.05-.043-.077-.062h0c-.027-.019-.05-.043-.077-.062h0c-.026-.019-.05-.043-.077-.062h0c-.026-.018-.05-.043-.076-.062h0c-.027-.019-.051-.043-.077-.062h0c-.027-.018-.05-.043-.077-.062h0c-.027-.019-.05-.043-.077-.062h0c-.026-.019-.05-.043-.077-.062h0c-.026-.019-.05-.043-.076-.062h0c-.027-.018-.051-.043-.077-.062h0c-.027-.019-.051-.043-.077-.062h0c-.027-.019-.05-.043-.077-.062h0c-.026-.019-.05-.043-.077-.062h0c-.026-.019-.05-.043-.076-.062h0c-.026-.019-.05-.043-.076-.063h0c-.027-.019-.051-.043-.077-.062h0c-.027-.019-.05-.044-.077-.063h0c-.026-.019-.05-.043-.077-.062h0c-.026-.018-.05-.043-.076-.062h0c-.026-.019-.05-.043-.076-.062h0c-.027-.018-.051-.043-.077-.062h0c-.027-.019-.05-.043-.077-.062h0c-.027-.018-.05-.043-.077-.062h0c-.026-.019-.05-.043-.076-.062h0c-.026-.018-.05-.043-.076-.062h0c-.027-.019-.051-.043-.077-.062h0c-.027-.018-.05-.043-.077-.062h0c-.027-.019-.05-.043-.077-.062h0c-.026-.018-.05-.043-.076-.062h0c-.026-.019-.05-.043-.076-.062h0c-.027-.018-.051-.043-.077-.062h0c-.027-.019-.05-.043-.077-.062h0c-.027-.019-.05-.043-.077-.062h0c-.026-.019-.05-.043-.076-.062h0c-.026-.019-.05-.043-.076-.062h0c-.027-.019-.051-.043-.077-.063h0c-.027-.019-.05-.043-.077-.062h0c-.027-.019-.05-.043-.077-.062h0c-.026-.019-.05-.043-.077-.062h0c-.026-.019-.05-.043-.076-.063h0c-.027-.019-.051-.043-.077-.062h0c-.027-.019-.051-.044-.077-.063h0c-.027-.019-.05-.043-.077-.062h0c-.026-.019-.05-.044-.077-.063h0c-.026-.019-.05-.043-.076-.062h0c-.026-.018-.05-.043-.076-.062h0c-.027-.019-.051-.043-.077-.062h0c-.027-.018-.05-.043-.077-.062h0c-.027-.019-.05-.043-.077-.062h0c-.026-.018-.05-.043-.076-.062h0c-.026-.019-.05-.043-.076-.062h0c-.027-.018-.051-.043-.077-.062h0c-.027-.019-.05-.043-.077-.062h0c-.027-.018-.05-.043-.077-.062h0c-.026-.019-.05-.043-.076-.062h0c-.026-.018-.05-.043-.076-.062h0c-.027-.019-.051-.043-.077-.062h0c-.027-.018-.05-.043-.077-.062h0c-.027-.019-.05-.043-.077-.062h0c-.026-.019-.05-.043-.077-.062h0c-.026-.019-.05-.043-.076-.062h0c-.027-.019-.051-.043-.077-.062h0c-.027-.019-.05-.043-.077-.062h0c-.027-.019-.05-.043-.077-.062h0c-.026-.019-.05-.043-.076-.062h0c-.026-.019-.05-.043-.076-.062h0c-.027-.019-.051-.043-.077-.063h0c-.027-.019-.051-.043-.077-.062h0c-.027-.019-.05-.044-.077-.063h0c-.026-.019-.05-.043-.077-.062h0c-.026-.019-.05-.044-.076-.063h0c-.026-.019-.05-.043-.076-.062h0c-.027-.018-.051-.043-.077-.062h0c-.027-.019-.05-.043-.077-.062h0c-.026-.018-.05-.043-.077-.062h0c-.026-.019-.05-.043-.076-.062h0c-.026-.018-.05-.043-.076-.062h0c-.027-.019-.051-.043-.077-.062h0c-.027-.018-.05-.043-.077-.062h0c-.027-.019-.05-.043-.077-.062h0c-.026-.018-.05-.043-.076-.062h0c-.026-.019-.05-.043-.076-.062h0c-.027-.018-.051-.043-.077-.062h0c-.027-.019-.05-.043-.077-.062h0c-.027-.018-.05-.043-.077-.062h0c-.026-.019-.05-.043-.076-.062h0c-.026-.019-.05-.043-.076-.062h0c-.027-.019-.051-.043-.077-.063h0c-.027-.019-.05-.043-.077-.062h0c-.027-.019-.05-.044-.077-.063h0c-.026-.019-.05-.043-.077-.062h0c-.026-.019-.05-.044-.076-.062h0c-.027-.019-.051-.043-.077-.062h0c-.027-.019-.051-.043-.077-.063h0c-.027-.019-.05-.043-.077-.062h0c-.026-.019-.05-.044-.077-.063h0c-.026-.019-.05-.043-.076-.062h0c-.027-.019-.051-.044-.077-.063h0c-.027-.019-.051-.043-.077-.062h0c-.027-.018-.05-.043-.077-.062h0c-.026-.019-.05-.043-.077-.062h0c-.026-.018-.05-.043-.076-.062h0c-.026-.019-.05-.043-.076-.062h0c-.027-.018-.051-.043-.077-.062h0c-.027-.019-.05-.043-.077-.062h0c-.027-.018-.05-.043-.077-.062h0c-.026-.019-.05-.043-.076-.062h0c-.026-.018-.05-.043-.076-.062h0c-.027-.019-.051-.043-.077-.062h0c-.027-.018-.05-.043-.077-.062h0c-.027-.019-.05-.043-.077-.062h0c-.026-.018-.05-.043-.076-.062h0c-.026-.019-.05-.043-.076-.062h0c-.027-.019-.051-.043-.077-.062h0c-.027-.019-.05-.043-.077-.062h0c-.027-.019-.05-.043-.077-.062h0c-.026-.019-.05-.043-.077-.062h0c-.026-.019-.05-.043-.076-.062h0c-.027-.019-.051-.043-.077-.062h0c-.027-.019-.05-.043-.077-.062h0c-.027-.019-.05-.043-.077-.063h0c-.026-.019-.05-.043-.077-.062h0c-.026-.019-.05-.044-.076-.063h0c-.027-.019-.051-.043-.077-.062h0c-.027-.019-.051-.044-.077-.063h0c-.027-.019-.05-.043-.077-.062h0c-.026-.018-.05-.043-.077-.062h0c-.026-.019-.05-.043-.076-.062h0c-.026-.018-.05-.043-.076-.062h0c-.027-.019-.051-.043-.077-.062h0c-.027-.018-.05-.043-.077-.062h0c-.026-.019-.05-.043-.077-.062h0c-.026-.018-.05-.043-.076-.062h0c-.026-.019-.05-.043-.076-.062h0c-.027-.018-.051-.043-.077-.062h0c-.027-.019-.05-.043-.077-.062h0c-.027-.018-.05-.043-.077-.062h0c-.026-.019-.05-.043-.076-.062h0c-.026-.019-.05-.043-.076-.062h0c-.027-.019-.051-.043-.077-.062h0c-.027-.019-.05-.043-.077-.062h0c-.027-.019-.05-.043-.077-.063h0c-.026-.019-.05-.043-.077-.062h0c-.026-.019-.05-.044-.076-.063h0c-.027-.019-.051-.043-.077-.062h0c-.027-.019-.05-.044-.077-.063h0c-.027-.019-.05-.043-.077-.062h0c-.026-.019-.05-.044-.076-.063h0c-.026-.019-.05-.043-.076-.062h0c-.027-.019-.051-.044-.077-.063h0c-.027-.019-.051-.043-.077-.062h0c-.027-.018-.05-.043-.077-.062h0c-.026-.019-.05-.043-.077-.062h0c-.026-.018-.05-.043-.076-.062h0c-.026-.019-.05-.043-.076-.062h0c-.027-.018-.051-.043-.077-.062h0c-.027-.019-.05-.043-.077-.062h0c-.026-.018-.05-.043-.077-.062h0c-.026-.019-.05-.043-.076-.062h0c-.026-.018-.05-.043-.076-.062h0c-.027-.019-.051-.043-.077-.062h0c-.027-.019-.05-.043-.077-.062h0c-.027-.019-.05-.043-.077-.062h0c-.026-.018-.05-.043-.076-.062h0c-.026-.019-.05-.043-.076-.062h0c-.027-.019-.051-.043-.077-.062h0c-.027-.019-.05-.043-.077-.062h0c-.027-.019-.05-.043-.077-.062h0c-.026-.019-.05-.043-.076-.062h0c-.026-.019-.05-.043-.076-.062h0c-.027-.019-.051-.043-.077-.062h0c-.027-.019-.05-.043-.077-.062h0c-.027-.019-.05-.043-.077-.063h0c-.026-.019-.05-.043-.077-.062h0c-.026-.018-.05-.043-.076-.062h0c-.027-.019-.051-.043-.077-.062h0c-.027-.019-.051-.044-.077-.063h0c-.027-.019-.05-.043-.077-.062h0c-.026-.018-.05-.043-.077-.062h0c-.026-.019-.05-.043-.076-.062h0c-.027-.018-.051-.043-.077-.062h0c-.027-.019-.051-.043-.077-.062h0c-.027-.018-.05-.043-.077-.062h0c-.026-.019-.05-.043-.077-.062h0c-.026-.018-.05-.043-.076-.062h0c-.026-.019-.05-.043-.076-.062h0c-.027-.018-.051-.043-.077-.062h0c-.027-.019-.05-.043-.077-.062h0c-.027-.018-.05-.043-.077-.062h0c-.026-.019-.05-.043-.076-.062h0c-.026-.018-.05-.043-.076-.062h0c-.027-.019-.051-.043-.077-.062h0c-.027-.019-.05-.043-.077-.062h0c-.027-.019-.05-.043-.077-.063h0c-.026-.019-.05-.043-.076-.062h0c-.026-.019-.05-.044-.076-.063h0c-.027-.019-.051-.043-.077-.062h0c-.027-.019-.05-.044-.077-.063h0c-.027-.019-.05-.043-.077-.062h0c-.026-.019-.05-.044-.077-.063h0c-.026-.019-.05-.043-.076-.062h0c-.027-.019-.051-.044-.077-.063h0c-.027-.019-.05-.043-.077-.062h0c-.027-.019-.05-.044-.077-.063h0c-.026-.019-.05-.043-.077-.062h0c-.026-.018-.05-.043-.076-.062h0c-.026-.019-.05-.043-.076-.062h0c-.027-.018-.051-.043-.077-.062h0c-.027-.019-.05-.043-.077-.062h0c-.026-.018-.05-.043-.077-.062h0c-.026-.019-.05-.043-.076-.062h0c-.026-.018-.05-.043-.076-.062h0c-.027-.019-.051-.043-.077-.062h0c-.027-.019-.05-.043-.077-.062h0c-.026-.019-.05-.043-.077-.062h0c-.026-.019-.05-.043-.076-.062h0c-.026-.019-.05-.043-.076-.062h0c-.027-.019-.051-.043-.077-.062h0c-.027-.019-.05-.043-.077-.062h0c-.027-.019-.05-.043-.077-.062h0c-.026-.019-.05-.043-.076-.062h0c-.026-.019-.05-.043-.076-.062h0c-.027-.019-.051-.043-.077-.062h0c-.027-.019-.05-.043-.077-.062h0c-.027-.019-.05-.043-.077-.062h0c-.026-.019-.05-.043-.076-.062h0c-.026-.018-.05-.042-.076-.062h0c-.027-.019-.051-.043-.077-.062h0c-.027-.018-.05-.043-.077-.062h0c-.027-.019-.05-.043-.077-.062h0c-.026-.018-.05-.043-.077-.062h0c-.026-.019-.05-.043-.076-.062h0c-.027-.018-.051-.043-.077-.062h0c-.027-.019-.051-.043-.077-.062h0c-.027-.018-.05-.043-.077-.062h0c-.026-.019-.05-.043-.077-.062h0c-.026-.018-.05-.043-.076-.062h0c-.027-.019-.051-.043-.077-.062h0c-.027-.018-.051-.043-.077-.062h0c-.027-.019-.05-.043-.077-.062h0c-.026-.018-.05-.043-.077-.062h0c-.026-.019-.05-.043-.076-.062h0c-.026-.018-.05-.043-.076-.062h0c-.027-.019-.051-.043-.077-.062h0c-.027-.018-.05-.043-.077-.062h0c-.027-.019-.05-.043-.077-.062h0c-.026-.019-.05-.043-.076-.062h0c-.026-.019-.05-.043-.076-.063h0c-.027-.019-.051-.043-.077-.062h0c-.027-.019-.05-.044-.077-.063h0c-.027-.019-.05-.043-.077-.062h0c-.026-.019-.05-.044-.076-.063h0c-.026-.019-.05-.043-.076-.062h0c-.027-.019-.051-.044-.077-.063h0c-.027-.019-.051-.043-.077-.062h0c-.027-.019-.05-.044-.077-.063h0c-.026-.019-.05-.043-.077-.062h0c-.026-.018-.05-.043-.076-.062h0c-.027-.019-.051-.043-.077-.062h0c-.027-.018-.05-.043-.077-.062h0c-.027-.019-.05-.043-.077-.062h0c-.026-.018-.05-.043-.077-.062h0c-.026-.019-.05-.043-.076-.062h0c-.026-.018-.05-.043-.076-.062h0c-.027-.019-.051-.043-.077-.062h0c-.027-.018-.05-.043-.077-.062h0c-.027-.019-.05-.043-.077-.062h0c-.026-.019-.05-.043-.076-.062h0c-.026-.019-.05-.043-.076-.062h0c-.027-.019-.051-.043-.077-.062h0c-.027-.019-.05-.043-.077-.062h0c-.026-.019-.05-.043-.077-.062h0c-.026-.019-.05-.043-.076-.062h0c-.026-.019-.05-.043-.076-.062h0c-.027-.019-.051-.043-.077-.062h0c-.027-.019-.05-.043-.077-.062h0c-.027-.019-.05-.043-.077-.062h0c-.026-.019-.05-.043-.077-.062h0c-.026-.019-.05-.043-.076-.063h0c-.027-.019-.051-.043-.077-.062h0c-.027-.018-.05-.043-.077-.062h0c-.027-.019-.05-.043-.077-.062h0c-.026-.018-.05-.043-.077-.062h0c-.026-.019-.05-.043-.076-.062h0c-.027-.018-.051-.043-.077-.062h0c-.027-.019-.051-.043-.077-.062h0c-.027-.018-.05-.043-.077-.062h0c-.026-.019-.05-.043-.077-.062h0c-.026-.018-.05-.043-.076-.062h0c-.026-.019-.05-.043-.076-.062h0c-.027-.018-.051-.043-.077-.062h0c-.027-.019-.05-.043-.077-.062h0c-.026-.018-.05-.043-.077-.062h0c-.026-.019-.05-.043-.076-.062h0c-.026-.019-.05-.043-.076-.062h0c-.027-.019-.051-.043-.077-.062h0c-.027-.018-.05-.043-.077-.062h0c-.027-.019-.05-.043-.077-.062h0c-.026-.019-.05-.043-.076-.062h0c-.026-.019-.05-.043-.076-.062h0c-.027-.019-.051-.043-.077-.062h0c-.027-.019-.05-.044-.077-.063h0c-.027-.019-.05-.043-.077-.062h0c-.026-.019-.05-.044-.076-.063h0c-.026-.019-.05-.043-.076-.062h0c-.027-.019-.051-.044-.077-.063h0c-.027-.019-.05-.043-.077-.062h0c-.027-.019-.05-.044-.077-.063h0c-.026-.019-.05-.043-.076-.062h0c-.026-.019-.05-.044-.076-.063h0c-.027-.019-.051-.043-.077-.062h0c-.027-.018-.051-.043-.077-.062h0c-.027-.019-.05-.043-.077-.062h0c-.026-.018-.05-.043-.077-.062h0c-.026-.019-.05-.043-.076-.062h0c-.027-.018-.051-.043-.077-.062h0c-.027-.019-.051-.043-.077-.062h0c-.027-.018-.05-.043-.077-.062h0c-.026-.019-.05-.043-.077-.062h0c-.026-.019-.05-.043-.076-.062h0c-.026-.019-.05-.043-.076-.062h0c-.027-.019-.051-.043-.077-.062h0c-.027-.019-.05-.043-.077-.062h0c-.027-.019-.05-.043-.077-.062h0c-.026-.019-.05-.043-.076-.062h0c-.026-.019-.05-.043-.076-.062h0c-.027-.019-.051-.043-.077-.063h0c-.027-.019-.05-.043-.077-.062h0a10.561,10.561,0,0,1-2.13-1.985l.572-2.752h0l0-.019-.076-.043,0-.019L8.45,39.6l0-.018-.077-.043,0-.019-.077-.043,0-.018-.077-.043,0-.019-.076-.043,0-.018L8.056,39.3l0-.019-.077-.043,0-.018L7.9,39.174l0-.019-.077-.043,0-.018-.077-.043v-.019l-.077-.043,0-.018-.077-.043,0-.019L7.5,38.866l0-.018-.077-.043,0-.019-.077-.043v-.018l-.077-.043,0-.019-.077-.043,0-.018-.077-.043,0-.019L7.031,38.5l0-.018-.077-.043v-.019l-.077-.043,0-.018L6.8,38.313l0-.019-.077-.043,0-.018-.077-.043,0-.019-.077-.043,0-.018-.076-.043,0-.019L6.4,38.005l0-.018-.077-.044,0-.018-.077-.043,0-.018-.077-.044,0-.018-.076-.043,0-.019L6.007,37.7l0-.018-.077-.043,0-.019-.077-.043,0-.018-.077-.043a10.821,10.821,0,0,1-.1-2.909L8.5,32.747l-.92-3.258a10.519,10.519,0,0,1,1.984-2.13l3.315.689,1.653-2.956a10.821,10.821,0,0,1,2.909-.1l.039.061h.04l.039.06H17.6l.04.061h.039l.04.06h.039l.039.061h.04l.039.06h.04l.039.061h.039l.04.06h.039l.04.061h.039l.04.06h.039l.039.061h.04l.039.06c.013,0,.026,0,.039,0l.04.06h.039l.04.06c.013,0,.026,0,.039,0l.04.06h.039l.039.06c.013,0,.027,0,.04,0l.039.06h.039l.04.06c.013,0,.026,0,.039,0l.04.06h.039l.04.06c.013,0,.026,0,.039,0l.039.06h.04l.039.06c.013,0,.026,0,.039,0l.04.06h.039l.04.06c.013,0,.026,0,.039,0l.04.06h.039l.039.061h.04l.039.06h.04l.039.06c.013,0,.026,0,.039,0l.04.06h.039l.04.06c.013,0,.026,0,.039,0l.04.06h.039l.039.061h.04l.039.06h.039l.04.061h.039l.04.06H20.2l.04.061h.039l.039.06c.013,0,.027,0,.04,0l.039.06h.039l.04.06c.013,0,.026,0,.039,0l.04.06h.039l0,0,1.46-.412c-.015-.015-.028-.032-.044-.047l-.017,0c-.022-.02-.04-.044-.062-.064l-.017,0c-.022-.02-.04-.045-.061-.065l-.018,0c-.021-.02-.04-.044-.061-.064l-.018,0c-.021-.019-.04-.044-.061-.064l-.017,0c-.022-.02-.04-.044-.062-.064l-.017,0c-.022-.019-.04-.044-.062-.064l-.017,0c-.022-.02-.04-.044-.061-.064l-.018,0c-.021-.019-.04-.044-.061-.064l-.018,0c-.021-.02-.04-.044-.061-.064l-.017,0c-.022-.019-.04-.044-.062-.064l-.017,0c-.022-.02-.04-.044-.062-.064l-.017,0c-.022-.019-.04-.044-.061-.064l-.018,0a9.4,9.4,0,0,1-1.65-1.98l.947-2.756-.021-.015v0l-.079-.058v0l-.079-.058v0l-.079-.059v0l-.079-.058v0L19.93,21.2v0l-.079-.058v0l-.079-.058v0l-.079-.058v0l-.079-.058v0l-.079-.058v0l-.079-.058v0l-.078-.058v0l-.079-.058v0l-.079-.059v0l-.079-.058v0l-.079-.059v0l-.078-.058v0l-.079-.059v0l-.079-.058v0l-.079-.059v0l-.079-.058v0l-.078-.059v0l-.079-.058v0l-.079-.059v0l-.079-.058v0l-.079-.059v0l-.079-.058v0l-.079-.058v0l-.079-.058v0l-.079-.058a9.547,9.547,0,0,1,.234-2.566l2.694-1.316-.446-2.965a9.4,9.4,0,0,1,1.98-1.65l2.835.974,1.781-2.412a9.581,9.581,0,0,1,2.566.234l.026.053c.018,0,.036,0,.053.008l.026.053c.018,0,.036,0,.053.009l.026.053c.017,0,.035,0,.053.008l.026.053c.017,0,.035.005.052.009l.026.053c.018,0,.036,0,.053.008l.026.053c.018,0,.036.005.053.009l.026.053c.018,0,.036,0,.053.008l.026.053c.017,0,.035,0,.053.009l.026.053c.017,0,.035,0,.053.008l.025.053c.018,0,.036.005.053.009l.026.053c.018,0,.036,0,.053.008l.026.054c.018,0,.036,0,.053.008l.026.053c.017,0,.035,0,.053.008l.026.053c.017,0,.035.005.053.009l.026.053c.017,0,.035,0,.052.009l.026.053c.018,0,.036,0,.053.008l.026.053c.018,0,.036,0,.053.009l.026.053c.017,0,.035,0,.053.008l.026.053c.017,0,.035,0,.053.009l.026.053c.017,0,.035,0,.052.008l.026.053c.018,0,.036.005.053.009l.026.053c.018,0,.036,0,.053.008l.026.053c.017,0,.035,0,.053.009l.026.053c.017,0,.035,0,.053.008l.026.053c.017,0,.035.005.052.009l.026.053c.018,0,.036,0,.053.008l.026.053c.018,0,.036,0,.053.009l.026.053c.017,0,.035,0,.053.008l.026.053c.017,0,.035.005.053.009l.026.053c.017,0,.035,0,.053.008l.025.053c.018,0,.036.005.053.009l.026.053c.018,0,.036,0,.053.008l.026.053c.017,0,.036,0,.053.009l.026.053c.017,0,.035,0,.053.008l.026.053c.017,0,.035.005.053.009l.025.053c.018,0,.036,0,.053.008l.026.053c.018,0,.036.005.053.009l.026.053c.018,0,.036,0,.053.008l.026.054c.017,0,.035,0,.053.008l.014.028,1.193-.179c.022.019.04.044.062.064l.017,0c.022.02.04.044.061.064l.018,0c.021.02.04.044.061.064l.018,0c.021.02.04.044.061.064l.017,0c.022.02.04.044.062.064l.017,0c.022.02.04.045.062.065l.017,0c.022.02.04.044.061.064l.018,0c.021.02.04.045.061.065l.018,0c.021.02.04.044.061.064l.017,0c.022.02.04.045.062.065l.017,0c.022.02.04.044.062.064l.017,0c.022.02.04.045.061.065l.018,0c.021.02.04.044.061.064l.018,0c.021.019.04.044.061.064l.017,0c.022.02.04.044.062.064l.017,0c.022.019.04.044.062.064l.017,0c.022.02.04.044.061.064l.018,0c.021.019.04.044.061.064l.018,0c.021.02.04.044.061.064l.018,0c.021.019.039.044.061.064l.017,0c.022.02.04.044.062.064l.017,0c.022.019.04.044.062.064l.017,0c.022.02.04.044.061.064l.018,0c.021.02.04.044.061.064l.018,0c.021.02.04.044.061.064l.017,0c.022.02.04.044.062.064l.017,0c.022.02.04.045.062.064l.017,0c.021.02.04.044.061.064l.018,0c.021.02.04.044.061.064l.018,0c.021.02.04.044.061.064l.017,0c.022.02.04.044.062.064l.017,0c.022.02.04.044.062.064l.017,0c.022.02.04.045.061.064l.018,0c.021.02.04.044.061.064l.018,0c.021.02.04.045.061.064l.017,0c.022.02.04.044.062.064l.017,0c.022.02.04.045.062.065l.017,0c.022.02.04.044.061.064l.018,0c.021.02.04.045.061.065l.018,0c.021.02.04.044.061.064l.017,0c.022.019.04.044.062.064l.017,0c.022.02.04.044.062.064l.017,0c.022.02.04.045.061.065l.018,0c.021.02.04.044.061.064l.018,0c.021.019.04.044.061.064l.017,0c.022.02.04.044.062.064l.017,0c.022.019.04.044.062.064l.017,0c.022.02.04.044.062.064l.017,0c.021.019.04.044.061.064l.018,0c.021.02.04.044.061.064l.018,0c.021.019.039.044.061.064l.017,0c.022.02.04.044.062.064l.017,0c.022.019.04.044.062.064l.017,0c.021.02.04.044.061.064l.018,0c.021.02.04.044.061.064l.018,0c.021.02.04.044.061.064l.017,0c.022.02.04.044.062.064l.017,0c.022.02.04.044.062.065l.017,0c.022.02.04.044.061.064l.018,0c.021.02.04.045.061.065l.018,0c.021.02.04.044.061.064l.017,0c.022.02.04.045.062.065l.017,0c.022.02.04.044.062.064l.017,0c.022.02.04.045.061.065l.018,0c.021.02.04.044.061.064l.018,0c.021.02.04.045.061.065l.017,0c.022.02.04.044.062.064l.017,0c.022.019.04.044.062.064l.017,0c.022.02.04.044.061.064l.018,0c.021.019.04.044.061.064l.018,0c.021.02.04.044.061.064l.017,0c.022.019.04.044.062.064l.017,0c.022.02.04.044.062.064l.017,0c.022.019.04.044.061.064l.018,0c.021.02.04.044.061.064l.018,0c.021.02.04.044.061.064l.018,0c.021.02.039.044.061.064l.017,0c.022.02.04.044.062.064l.017,0c.022.02.04.044.062.064l.017,0c.022.02.04.044.061.064l.018,0c.021.02.04.045.061.064l.018,0c.021.02.04.044.061.064l.017,0c.022.02.04.045.062.064l.017,0c.022.02.04.044.062.064l.017,0c.022.02.04.045.061.064l.018,0c.021.02.04.044.061.064l.018,0c.021.02.04.045.061.064l.017,0c.022.02.04.044.062.064l.017,0c.013.012.024.027.037.039a8.533,8.533,0,0,1,6.219-2.948A8.146,8.146,0,0,1,52,16.469c.027.02.053.042.079.062s.053.042.079.062l.079.061c.027.02.052.042.079.062l.078.061.08.062.078.061c.027.02.053.042.079.062l.079.061c.027.02.052.042.079.062l.078.061c.027.02.053.042.079.062l.079.061c.027.02.052.042.079.062l.079.061c.026.02.052.042.079.062l.078.061c.027.02.053.042.079.062l.079.061c.027.02.052.042.079.062l.079.061.078.062c.027.02.053.041.079.062l.079.061c.027.02.052.041.079.062l.079.061.078.061c.027.02.052.042.079.062s.053.041.079.062l.079.061c.027.02.052.041.079.062l.078.061c.027.02.053.041.079.062l.079.061c.027.02.052.042.079.062l.079.061c.026.02.052.042.079.062l.078.061c.027.02.052.041.079.062l.079.061c.027.02.052.041.078.062l.08.061.078.062c.027.02.053.041.079.062s.052.041.079.061l.079.062c.026.019.052.041.079.061l.078.062c.027.019.053.041.079.061l.079.061c.026.02.052.042.079.062s.052.041.079.062.052.041.078.061.053.041.079.062l.079.061.079.061c.026.02.052.042.079.062l.078.062.079.061c.027.02.053.042.079.062l.079.061.078.062.08.061.078.062.079.061c.027.02.052.042.079.062s.052.041.078.061l.08.062.078.061c.027.02.053.042.079.062l.079.061c.027.02.052.042.079.062l.078.061c.027.02.053.042.079.062l.079.061c.027.021.052.042.079.062s.052.041.079.062.052.041.078.061.053.041.079.062l.079.061c.027.02.053.041.079.062l.079.061.078.061c.027.02.053.042.079.062s.053.041.079.062l.079.061c.027.02.052.042.079.062l.079.061.078.062.079.061c.027.02.053.042.079.062l.079.061c.027.02.052.042.079.062l.079.061.078.062.079.061c.027.02.052.042.079.062s.052.041.079.062.052.041.079.061l.078.062c.027.019.052.041.079.061s.052.041.079.062.052.041.079.061l.079.062c.026.019.052.041.078.061l.079.061c.027.02.052.042.079.062s.052.042.079.062l.079.061.078.061c.027.02.053.042.079.062l.079.061c.026.021.052.042.079.062s.052.042.079.062l.078.061c.027.02.053.042.079.062l.079.061c.027.02.052.041.079.062l.079.061c.026.02.052.042.079.062l.078.061c.027.02.053.042.079.062l.079.061.078.062.08.061.078.062.079.061c.027.02.052.042.079.062s.052.041.078.061l.08.062.078.062.079.061c.027.02.053.041.079.062l.079.061.078.061c.027.02.053.042.079.062s.053.042.079.062.052.041.079.061l.079.062.078.061c.027.02.053.042.079.062l.079.061c.027.02.053.042.079.062l.079.061c.027.02.052.042.079.062l.078.061c.027.02.053.042.079.062l.079.061c.027.02.052.042.079.062s.052.041.079.062.052.041.078.061l.079.061c.027.02.053.042.079.062s.052.041.079.062.052.041.079.061l.079.062c.026.019.052.041.078.061s.053.041.079.062.053.041.079.061.052.041.079.062l.079.061.078.062.079.061c.027.02.052.041.079.062L65,26.62l.078.061c.027.02.053.042.079.062s.053.041.079.062l.079.061c.027.02.052.042.079.062l.079.061.078.062.079.061c.027.02.052.042.079.062l.079.061c.027.02.052.042.079.062l.079.062c.026.019.052.041.078.061l.079.061.079.062.079.061c.026.021.052.042.079.062l.078.062.079.061.079.061c.026.02.052.042.079.062l.079.062.078.061c.027.02.053.042.079.062l.079.061c.027.02.052.041.078.061l.08.062.078.062.079.061c.027.02.052.042.079.062l.079.061c.026.02.052.042.079.062l.078.061c.027.02.053.042.079.062l.079.061c.027.02.052.042.079.062l.078.061.08.062.078.062c.027.019.053.041.079.061s.052.041.079.062.052.041.079.061l.078.061c.027.02.053.042.079.062s.053.041.079.062.052.041.079.061.052.041.079.062.052.041.078.061.053.041.079.062l.079.061c.027.02.053.042.079.062l.079.061c.026.02.052.042.079.062l.078.061c.027.02.053.042.079.062l.079.061c.027.02.052.041.078.061l.08.062.078.062.079.061c.027.02.053.042.079.062l.079.061c.027.02.052.042.079.062l.078.061c.027.02.053.042.079.062s.053.041.079.062.052.041.079.061.052.041.079.062.052.041.079.061l.078.062c.027.019.052.041.078.061l.08.062.079.061.079.062.078.061.079.061c.027.02.052.042.079.062s.052.042.079.062l.079.061.078.062.079.061c.027.02.052.041.079.062l.079.061c.027.02.052.042.079.062l.078.061c.027.02.053.042.079.062l.079.061c.026.02.052.042.079.062l.079.061.078.062c.027.02.053.041.079.062s.053.041.079.061l.079.061c.026.02.052.042.079.062l.079.062c.026.019.052.041.078.061s.053.041.079.062.052.041.078.061l.079.061.08.062.078.062.079.061c.027.02.052.042.079.062s.052.041.078.061l.08.062.078.061c.027.02.053.042.079.062l.079.061c.027.02.052.042.079.062l.078.061c.027.02.053.042.079.062l.079.061c.027.02.052.042.079.062l.079.061c.027.02.052.042.079.062l.078.061c.027.02.053.042.079.062s.053.041.079.062.052.041.079.061.052.041.079.062.052.041.078.061.053.041.079.062l.079.061c.027.02.052.042.079.062l.079.061.078.061c.027.02.053.042.079.062s.053.041.079.062l.079.061c.027.02.052.042.079.062l.079.061.024.019A37.5,37.5,0,1,0,48.134,74.1c-.02-.016-.038-.033-.059-.047Z"/><path class="cls-4" d="M75.5,38c0-1.114-.058-2.213-.153-3.3l-.024-.019-.079-.061c-.027-.02-.052-.042-.079-.062l-.079-.061c-.026-.021-.052-.042-.079-.062s-.052-.042-.079-.062l-.078-.061-.079-.061c-.027-.02-.052-.042-.079-.062l-.079-.061c-.026-.021-.052-.042-.079-.062s-.052-.042-.078-.061-.052-.042-.079-.062-.052-.042-.079-.061-.052-.042-.079-.062-.052-.042-.079-.062l-.078-.061c-.027-.02-.052-.042-.079-.062l-.079-.061c-.027-.02-.052-.042-.079-.062l-.079-.061c-.026-.02-.052-.042-.079-.062l-.078-.061c-.027-.02-.052-.042-.079-.062l-.079-.061c-.026-.02-.052-.042-.079-.062l-.078-.061-.08-.062c-.026-.02-.051-.041-.078-.061s-.052-.042-.079-.062l-.079-.061-.078-.062-.08-.062-.079-.061c-.026-.02-.051-.042-.078-.061s-.052-.042-.079-.062-.052-.042-.078-.061l-.079-.062c-.027-.02-.053-.042-.079-.062l-.079-.061c-.026-.02-.052-.042-.079-.061s-.052-.042-.079-.062l-.078-.062-.079-.061c-.027-.02-.053-.042-.079-.062l-.079-.061c-.026-.02-.052-.042-.079-.062l-.078-.061c-.027-.02-.052-.042-.079-.062l-.079-.061c-.027-.021-.052-.042-.079-.062l-.079-.061-.078-.062-.079-.061c-.027-.02-.052-.042-.079-.062s-.052-.042-.079-.062l-.079-.061-.078-.061-.079-.062-.079-.061-.08-.062c-.026-.02-.051-.042-.078-.061l-.078-.062c-.027-.02-.053-.042-.079-.061s-.052-.042-.079-.062-.052-.042-.079-.061-.052-.042-.079-.062-.052-.042-.079-.062l-.078-.061c-.027-.02-.052-.042-.079-.062l-.079-.061c-.026-.02-.052-.042-.079-.062l-.079-.061-.078-.062-.08-.062c-.026-.02-.051-.041-.078-.061L69.333,30c-.026-.02-.052-.042-.079-.062l-.078-.061c-.027-.02-.053-.042-.079-.062l-.079-.061c-.026-.02-.052-.042-.079-.062l-.079-.061c-.026-.021-.052-.042-.079-.062s-.052-.042-.078-.061-.052-.042-.079-.062-.052-.042-.079-.061-.052-.042-.079-.062-.052-.042-.079-.062l-.078-.061c-.027-.02-.052-.042-.079-.061s-.052-.042-.079-.062-.052-.042-.079-.061l-.078-.062-.08-.062-.078-.061c-.027-.02-.052-.042-.079-.062l-.079-.061c-.026-.02-.052-.042-.079-.062l-.078-.061c-.027-.02-.053-.042-.079-.062l-.079-.061c-.027-.02-.052-.042-.079-.062l-.079-.061-.078-.062-.08-.062c-.026-.02-.051-.041-.078-.061L66.89,28.1c-.026-.02-.052-.042-.079-.062l-.078-.061-.079-.062c-.027-.02-.053-.042-.079-.062l-.079-.061-.079-.061-.078-.062c-.027-.02-.053-.041-.079-.062l-.079-.061-.079-.062-.079-.061c-.026-.02-.052-.042-.078-.061l-.079-.062c-.027-.02-.052-.042-.079-.062l-.079-.061c-.027-.02-.052-.042-.079-.062l-.079-.061-.078-.062-.079-.061c-.027-.02-.052-.042-.079-.062l-.079-.061c-.026-.021-.052-.042-.079-.062s-.052-.042-.079-.062L65,26.62l-.079-.061c-.027-.021-.052-.042-.079-.062l-.079-.061-.078-.062-.079-.061c-.027-.021-.052-.042-.079-.062s-.052-.042-.079-.061-.052-.042-.079-.062-.052-.042-.078-.061l-.079-.062c-.027-.02-.052-.042-.079-.061s-.052-.042-.079-.062-.052-.042-.079-.062l-.079-.061c-.026-.02-.052-.042-.078-.061s-.052-.042-.079-.062-.052-.042-.079-.062l-.079-.061c-.026-.02-.052-.042-.079-.062l-.078-.061c-.027-.02-.052-.042-.079-.062l-.079-.061c-.026-.02-.052-.042-.079-.062l-.079-.061c-.026-.02-.052-.042-.079-.062l-.078-.061-.079-.062c-.027-.02-.052-.042-.079-.061s-.052-.042-.079-.062-.052-.042-.079-.062l-.078-.061-.079-.061c-.026-.021-.052-.042-.079-.062l-.079-.061-.078-.062-.08-.062c-.026-.02-.051-.041-.078-.061s-.052-.042-.079-.062l-.079-.061-.078-.062-.08-.061-.078-.062-.079-.061c-.026-.02-.052-.042-.079-.062l-.078-.061c-.027-.02-.053-.042-.079-.062l-.079-.061c-.027-.021-.052-.042-.079-.062l-.079-.061c-.026-.02-.052-.042-.079-.062l-.078-.061c-.027-.02-.052-.042-.079-.062s-.053-.041-.079-.062l-.079-.061c-.026-.02-.052-.042-.079-.062l-.078-.061-.079-.061c-.027-.02-.052-.042-.079-.062s-.052-.042-.079-.062l-.079-.061c-.026-.02-.052-.042-.078-.061l-.079-.062c-.027-.02-.052-.042-.079-.061s-.052-.042-.079-.062-.052-.042-.079-.061L59.8,22.56c-.027-.02-.053-.042-.079-.061s-.052-.042-.079-.062-.052-.042-.079-.062l-.079-.061-.078-.062-.079-.061c-.027-.02-.052-.042-.079-.062l-.079-.061c-.026-.02-.052-.042-.079-.062l-.079-.061-.078-.062-.079-.061c-.027-.02-.052-.042-.079-.062l-.079-.061c-.026-.021-.052-.042-.079-.062s-.052-.042-.079-.062l-.078-.061-.079-.061c-.026-.021-.052-.042-.079-.062l-.079-.061c-.026-.021-.052-.042-.079-.062s-.052-.042-.078-.061-.052-.042-.079-.062-.052-.041-.079-.062l-.079-.061c-.026-.02-.052-.042-.079-.062L57.67,20.9c-.027-.02-.052-.042-.079-.062l-.079-.061c-.026-.02-.052-.042-.079-.062l-.078-.061-.08-.062c-.026-.02-.051-.041-.078-.061s-.052-.042-.079-.062l-.079-.061-.078-.062-.08-.061-.078-.062-.079-.061c-.026-.02-.052-.042-.079-.062l-.079-.061-.078-.062c-.027-.02-.053-.042-.079-.062l-.079-.061-.079-.061c-.026-.021-.052-.042-.079-.062s-.052-.042-.078-.061-.052-.042-.079-.062-.053-.042-.079-.062l-.079-.061c-.026-.02-.052-.042-.079-.061l-.078-.062c-.027-.02-.053-.042-.079-.061l-.079-.062c-.027-.02-.052-.042-.079-.061s-.052-.042-.079-.062l-.078-.062-.08-.061c-.026-.021-.051-.042-.078-.062l-.079-.061c-.027-.021-.052-.042-.079-.062l-.078-.061c-.027-.02-.053-.042-.079-.062l-.079-.061c-.027-.02-.052-.042-.079-.062L54.6,18.5c-.026-.021-.052-.042-.079-.062l-.078-.061c-.027-.021-.052-.042-.079-.062l-.079-.061c-.026-.021-.052-.042-.079-.062s-.052-.042-.079-.062l-.078-.061-.079-.061c-.027-.021-.052-.042-.079-.062l-.079-.061c-.026-.021-.052-.042-.079-.062l-.078-.062-.079-.061c-.027-.02-.052-.042-.079-.062l-.079-.061c-.026-.02-.052-.042-.079-.062l-.078-.061c-.027-.02-.053-.042-.079-.062l-.079-.061c-.027-.02-.052-.042-.079-.062l-.079-.061c-.026-.02-.052-.042-.079-.062l-.078-.061c-.027-.02-.052-.042-.079-.062l-.079-.061c-.026-.02-.052-.042-.079-.062l-.078-.061-.08-.062-.078-.061c-.027-.02-.052-.042-.079-.062l-.079-.061c-.026-.02-.052-.042-.079-.062s-.052-.042-.079-.062a8.146,8.146,0,0,0-4.919-1.755,8.533,8.533,0,0,0-6.219,2.948c-.013-.012-.024-.027-.037-.039l-.017,0c-.022-.02-.04-.044-.062-.064l-.017,0c-.021-.019-.04-.044-.061-.064l-.018,0c-.021-.02-.04-.044-.061-.064l-.018,0c-.021-.019-.039-.044-.061-.064l-.017,0c-.022-.02-.04-.044-.062-.064l-.017,0c-.022-.019-.04-.044-.062-.064l-.017,0c-.021-.02-.04-.044-.061-.064l-.018,0c-.021-.019-.04-.044-.061-.064l-.018,0c-.021-.02-.039-.044-.061-.064l-.017,0c-.022-.02-.04-.044-.062-.064l-.017,0c-.022-.02-.04-.044-.062-.064l-.017,0c-.022-.02-.04-.044-.061-.064l-.018,0c-.021-.02-.04-.044-.061-.064l-.018,0c-.021-.02-.04-.044-.061-.064l-.018,0c-.021-.02-.039-.045-.061-.064l-.017,0c-.022-.02-.04-.044-.062-.064l-.017,0c-.022-.02-.04-.045-.062-.064l-.017,0c-.021-.02-.04-.044-.061-.064l-.018,0c-.021-.02-.04-.045-.061-.064l-.018,0c-.021-.02-.039-.044-.061-.064l-.017,0c-.022-.02-.04-.045-.062-.064l-.017,0c-.022-.02-.04-.044-.062-.064l-.017,0c-.021-.02-.04-.045-.061-.065l-.018,0c-.021-.02-.04-.044-.061-.064l-.018,0c-.021-.02-.039-.045-.061-.065l-.017,0c-.022-.02-.04-.044-.062-.064l-.017,0c-.022-.02-.04-.045-.062-.065l-.017,0c-.021-.02-.04-.044-.061-.064l-.018,0c-.021-.02-.04-.045-.061-.065l-.018,0c-.021-.02-.039-.044-.061-.064l-.017,0c-.022-.021-.04-.045-.062-.065l-.017,0c-.022-.02-.04-.044-.062-.064l-.017,0c-.021-.02-.04-.044-.061-.064l-.018,0c-.021-.02-.04-.044-.061-.064l-.018,0c-.021-.02-.04-.044-.061-.064l-.017,0c-.022-.02-.04-.045-.062-.064l-.017,0c-.022-.02-.04-.044-.062-.064l-.017,0c-.022-.02-.04-.045-.061-.064l-.018,0c-.021-.02-.04-.044-.061-.064l-.018,0c-.021-.02-.04-.045-.061-.064l-.017,0c-.022-.02-.04-.044-.062-.064l-.017,0c-.022-.02-.04-.045-.062-.064l-.017,0c-.022-.02-.04-.044-.062-.064l-.017,0c-.021-.02-.04-.045-.061-.064l-.018,0c-.021-.02-.04-.044-.061-.064l-.018,0c-.021-.02-.039-.045-.061-.065l-.017,0c-.022-.02-.04-.044-.062-.064l-.017,0c-.022-.02-.04-.045-.062-.064l-.017,0c-.021-.02-.04-.044-.061-.064l-.018,0c-.021-.02-.04-.045-.061-.065l-.018,0c-.021-.02-.039-.044-.061-.064l-.017,0c-.022-.02-.04-.045-.062-.065l-.017,0c-.022-.02-.04-.044-.062-.064l-.017,0c-.021-.019-.04-.044-.061-.064l-.018,0c-.021-.02-.04-.044-.061-.064l-.018,0c-.021-.019-.039-.044-.061-.064l-.017,0c-.022-.02-.04-.044-.062-.064l-.017,0c-.022-.02-.04-.044-.062-.064l-.017,0c-.021-.02-.04-.044-.061-.064l-.018,0c-.021-.02-.04-.044-.061-.064l-.018,0c-.021-.02-.04-.044-.061-.064l-.017,0c-.022-.019-.04-.044-.062-.064l-.017,0c-.022-.02-.04-.044-.062-.064l-.017,0c-.021-.02-.04-.044-.061-.064l-.018,0c-.021-.02-.04-.044-.061-.064l-.018,0c-.021-.02-.039-.044-.061-.064l-.017,0c-.022-.02-.04-.045-.062-.064l-.017,0c-.022-.02-.04-.044-.062-.064l-.017,0c-.022-.02-.04-.045-.061-.064l-.018,0c-.021-.02-.04-.044-.061-.064l-.018,0c-.021-.02-.04-.045-.061-.064l-.018,0c-.021-.02-.039-.044-.061-.064l-.017,0c-.022-.02-.04-.045-.062-.064l-.017,0c-.022-.02-.04-.044-.062-.064l-.017,0c-.021-.02-.04-.045-.061-.064l-.018,0c-.021-.02-.04-.044-.061-.064l-.018,0c-.021-.02-.039-.045-.061-.065l-.017,0c-.022-.02-.04-.044-.062-.064l-.017,0c-.022-.02-.04-.045-.062-.065l-.017,0c-.021-.02-.04-.044-.061-.064l-.018,0c-.021-.02-.04-.045-.061-.065l-.018,0c-.021-.02-.039-.044-.061-.064l-.017,0c-.022-.02-.04-.045-.062-.065l-.017,0c-.022-.02-.04-.044-.062-.064l-.017,0c-.021-.02-.04-.044-.061-.064l-.018,0c-.021-.02-.04-.044-.061-.064l-.018,0c-.021-.02-.039-.044-.061-.064l-.017,0c-.022-.02-.04-.045-.062-.064l-1.193.179-.014-.028c-.018,0-.036-.005-.053-.008L32.6,12.3c-.017,0-.035,0-.053-.008l-.026-.053c-.017,0-.035,0-.053-.009l-.026-.053c-.017,0-.035,0-.053-.008l-.025-.053c-.018,0-.036-.005-.053-.009l-.026-.053c-.018,0-.036,0-.053-.008l-.026-.053c-.017,0-.036-.005-.053-.009l-.026-.053c-.017,0-.035,0-.053-.008l-.026-.053c-.017,0-.035,0-.053-.009l-.025-.053c-.018,0-.036,0-.053-.008l-.026-.053c-.018,0-.036-.005-.053-.009l-.026-.053c-.018,0-.036,0-.053-.008l-.026-.053c-.017,0-.035,0-.053-.009l-.026-.053c-.017,0-.035,0-.053-.008l-.026-.053c-.017,0-.035-.005-.052-.009l-.026-.053c-.018,0-.036,0-.053-.008l-.026-.053c-.018,0-.036-.005-.053-.009l-.026-.053c-.017,0-.035,0-.053-.008l-.026-.053c-.017,0-.035,0-.053-.009l-.026-.053c-.017,0-.035,0-.052-.008l-.026-.053c-.018-.005-.036-.005-.053-.009l-.026-.053c-.018,0-.036-.005-.053-.008l-.026-.053c-.017,0-.035,0-.053-.009l-.026-.053c-.017,0-.035,0-.053-.008l-.026-.053c-.017,0-.035,0-.052-.009l-.026-.053c-.018,0-.036-.005-.053-.009l-.026-.053c-.018,0-.036,0-.053-.008L30.55,10.7c-.017,0-.035,0-.053-.008l-.026-.054c-.017,0-.035,0-.053-.008l-.026-.053c-.017,0-.035-.005-.053-.009l-.025-.053c-.018,0-.036,0-.053-.008l-.026-.053c-.018,0-.036-.005-.053-.009l-.026-.053c-.017,0-.035,0-.053-.008l-.026-.053c-.017,0-.035,0-.053-.009L30,10.269c-.017,0-.035,0-.053-.008l-.026-.053c-.017,0-.035-.005-.052-.009l-.026-.053c-.018,0-.036,0-.053-.008l-.026-.053c-.017,0-.035-.005-.053-.009l-.026-.053c-.017,0-.035,0-.053-.008L29.6,9.962a9.581,9.581,0,0,0-2.566-.234L25.257,12.14l-2.835-.974a9.4,9.4,0,0,0-1.98,1.65l.446,2.965L18.194,17.1a9.547,9.547,0,0,0-.234,2.566l.079.058v0l.079.058v0l.079.058v0l.079.058v0l.079.059v0l.079.058v0l.079.059v0l.079.058v0l.078.059v0l.079.058v0l.079.059v0l.079.058v0l.079.059v0l.078.058v0l.079.059v0l.079.058v0l.079.059v0l.079.058v0l.078.058v0l.079.058v0l.079.058v0l.079.058v0l.079.058v0l.079.058v0l.079.058v0l.079.059v0l.079.058v0l.079.059v0l.079.058v0l.079.058v0l.021.015L19.4,24.28a9.4,9.4,0,0,0,1.65,1.98l.018,0c.021.02.039.045.061.064l.017,0c.022.02.04.044.062.064l.017,0c.022.02.04.045.062.064l.017,0c.021.02.04.044.061.064l.018,0c.021.02.04.045.061.064l.018,0c.021.02.039.044.061.064l.017,0c.022.02.04.045.062.064l.017,0c.022.02.04.044.062.064l.017,0c.021.02.04.045.061.064l.018,0c.021.02.04.044.061.064l.018,0c.021.02.039.045.061.065l.017,0c.022.02.04.044.062.064l.017,0c.016.015.029.032.044.047l-1.46.412,0,0h-.039l-.04-.06c-.013,0-.026,0-.039,0l-.04-.06H20.4l-.039-.06c-.013,0-.027,0-.04,0l-.039-.06h-.039l-.04-.061h-.039l-.04-.06H20.08l-.04-.061H20l-.039-.06h-.04l-.039-.061h-.039l-.04-.06c-.013,0-.026,0-.039,0l-.04-.06h-.039l-.04-.06c-.013,0-.026,0-.039,0l-.039-.06h-.04l-.039-.06h-.04l-.039-.061h-.039l-.04-.06c-.013,0-.026,0-.039,0l-.04-.06h-.039l-.04-.06c-.013,0-.026,0-.039,0l-.039-.06h-.04l-.039-.06c-.013,0-.026,0-.039,0l-.04-.06H18.9l-.04-.06c-.013,0-.026,0-.039,0l-.04-.06H18.74l-.039-.06c-.013,0-.027,0-.04,0l-.039-.06h-.039l-.04-.06c-.013,0-.026,0-.039,0l-.04-.06h-.039l-.04-.06c-.013,0-.026,0-.039,0l-.039-.06h-.04l-.039-.061h-.039l-.04-.06H18.11l-.04-.061h-.039l-.04-.06h-.039l-.039-.061h-.04l-.039-.06h-.04l-.039-.061h-.039l-.04-.06h-.039l-.04-.061h-.039l-.039-.06h-.04l-.039-.061a10.821,10.821,0,0,0-2.909.1l-1.653,2.956-3.315-.689a10.519,10.519,0,0,0-1.984,2.13l.92,3.258L5.668,34.6a10.821,10.821,0,0,0,.1,2.909l.077.043,0,.018.077.043,0,.019.077.043,0,.018.077.043,0,.019.076.043,0,.018.077.044,0,.018.077.043,0,.018.077.044,0,.018.077.043,0,.019.076.043,0,.018.077.043,0,.019.077.043,0,.018.077.043,0,.019.077.043,0,.018.077.043v.019l.077.043,0,.018.077.043,0,.019.077.043,0,.018.077.043,0,.019.077.043v.018l.077.043,0,.019.077.043,0,.018.077.043,0,.019.077.043,0,.018.077.043v.019l.077.043,0,.018.077.043,0,.019.077.043,0,.018.077.043,0,.019.077.043,0,.018.076.043,0,.019.077.043,0,.018.077.043,0,.019.077.043,0,.018.077.043,0,.019.076.043,0,.019h0l-.572,2.752a10.561,10.561,0,0,0,2.13,1.985h0c.027.019.05.043.077.062h0c.026.02.05.044.077.063h0c.026.019.05.043.076.062h0c.026.019.05.043.076.062h0c.027.019.05.043.077.062h0c.027.019.05.043.077.062h0c.026.019.05.043.077.062h0c.026.019.05.043.076.062h0c.026.019.05.043.076.062h0c.027.019.051.043.077.062h0c.027.019.05.044.077.062h0c.026.019.05.043.077.062h0c.026.019.05.044.077.062h0c.026.019.05.043.076.062h0c.027.019.051.044.077.062h0c.027.019.05.043.077.062h0c.026.019.05.044.077.062h0c.026.019.05.043.077.062h0c.026.019.05.044.076.063h0c.026.019.05.043.076.062h0c.027.019.05.044.077.063h0c.027.019.05.043.077.062h0c.026.019.05.044.077.063h0c.026.019.05.043.076.062h0c.026.019.05.044.076.063h0c.027.019.05.043.077.062h0c.027.019.05.044.077.063h0c.026.019.05.043.077.062h0c.026.019.05.043.076.062h0c.026.019.05.043.076.062h0c.027.019.05.043.077.062h0c.027.019.05.044.077.062h0c.026.019.05.043.077.062h0c.026.019.05.043.076.062h0c.026.019.05.043.076.062h0c.027.019.051.044.077.062h0c.027.019.05.043.077.062h0c.026.019.05.044.077.062h0c.026.019.05.043.076.062h0c.026.019.05.044.076.062h0c.027.019.051.043.077.062h0c.027.019.05.044.077.062h0c.026.019.05.043.077.062h0c.026.019.05.044.077.062h0c.026.019.05.043.076.062h0c.027.019.051.044.077.062h0c.027.019.05.043.077.062h0c.027.019.05.044.077.062h0c.026.019.05.043.077.062h0c.026.02.05.044.076.063h0c.027.019.051.043.077.062h0c.027.019.05.043.077.062h0c.027.019.05.043.077.062h0c.026.019.05.043.077.062h0c.026.019.05.043.076.062h0c.026.019.05.043.076.062h0c.027.019.051.043.077.062h0c.027.019.05.043.077.062h0c.026.019.05.043.077.062h0c.026.019.05.043.076.062h0c.026.019.05.043.076.062h0c.027.019.05.043.077.062h0c.027.019.05.044.077.062h0c.026.019.05.043.077.062h0c.026.019.05.044.076.062h0c.026.019.05.043.076.062h0c.027.019.051.044.077.062h0c.027.019.05.043.077.062h0c.027.019.05.044.077.062h0c.026.019.05.043.077.062h0c.026.019.05.044.076.062h0c.027.019.051.043.077.062h0c.027.019.05.044.077.063h0c.026.019.05.043.077.062h0c.026.019.05.044.077.063h0c.026.019.05.043.076.062h0c.026.019.05.044.076.063h0c.027.019.05.043.077.062h0c.027.019.05.044.077.063h0c.026.019.05.043.077.062h0c.026.02.05.044.076.063h0c.026.019.05.043.076.062h0c.027.019.05.043.077.062h0c.027.019.05.044.077.062h0c.026.019.05.043.077.062h0c.026.019.05.044.076.062h0c.026.019.05.043.076.062h0c.027.019.051.044.077.062h0c.027.019.05.043.077.062h0c.026.019.05.044.077.062h0c.026.019.05.043.077.062h0c.026.019.05.044.076.062h0c.027.019.051.043.077.062h0c.027.019.05.044.077.062h0c.026.019.05.043.077.062h0c.026.019.05.044.077.062h0c.026.019.05.043.076.062h0c.027.019.051.044.077.062h0c.027.019.05.043.077.062h0c.027.019.05.044.077.062h0c.026.019.05.043.077.062h0c.026.02.05.044.076.062h0c.026.019.05.043.076.062h0c.027.019.05.043.077.062h0c.027.019.05.043.077.062h0c.026.019.05.043.077.062h0c.026.019.05.043.076.062h0c.026.019.05.043.076.062h0c.027.019.05.043.077.062h0c.027.019.05.043.077.062h0c.026.019.05.043.077.062h0c.026.019.05.043.076.062h0c.026.019.05.043.076.062h0c.027.019.051.043.077.062h0c.027.019.05.043.077.062h0c.026.019.05.043.077.062h0c.026.019.05.044.076.062h0c.026.019.05.043.076.062h0c.027.019.051.044.077.062h0c.027.019.05.043.077.062h0c.026.019.05.044.077.062h0c.026.019.05.043.076.062h0c.026.019.05.044.076.062h0c.027.019.051.043.077.062h0c.027.019.05.044.077.063h0c.027.019.05.043.077.062h0c.026.019.05.044.077.063h0c.026.019.05.043.076.062h0c.027.019.051.044.077.063h0c.027.019.05.043.077.062h0c.027.019.05.044.077.063h0c.026.019.05.043.077.062h0c.026.019.05.044.076.063h0c.026.019.05.043.076.062h0c.027.02.05.044.077.063h0c.027.019.05.043.077.062h0c.026.019.05.043.077.062h0c.026.019.05.044.076.062h0c.026.019.05.043.076.062h0c.027.019.05.044.077.062h0c.027.019.05.043.077.062h0c.026.019.05.044.077.062h0c.026.019.05.043.076.062h0c.026.019.05.044.076.062h0c.027.019.051.043.077.062h0c.027.019.05.044.077.062h0c.026.019.05.043.077.062h0c.026.019.05.044.077.062h0c.026.019.05.043.076.062h0c.027.019.051.044.077.062h0c.027.019.05.043.077.062h0c.026.019.05.044.077.063h0c.026.019.05.043.077.062h0c.026.019.05.044.076.062h0c.027.019.051.043.077.062h0c.027.02.05.044.077.063h0c.027.019.05.043.077.062h0c.026.019.05.043.077.062h0c.026.019.05.043.076.062h0c.026.019.05.043.076.062h0c.027.019.05.043.077.062h0c.027.019.05.043.077.062h0c.026.019.05.043.077.062h0c.026.019.05.043.076.062h0c.026.019.05.044.076.062h0c.027.019.05.043.077.062h0c.027.019.05.043.077.062h0c.026.019.05.043.077.062h0c.026.019.05.044.076.062h0c.026.019.05.043.076.062h0c.027.019.051.044.077.062h0c.027.019.05.043.077.062h0c.026.019.05.044.077.062h0c.026.019.05.043.076.062h0c.026.019.05.044.076.062h0c.027.019.051.043.077.062h0c.027.019.05.044.077.062h0c.026.019.05.043.077.062h0c.026.019.05.044.077.063h0c.026.019.05.043.076.062h0c.026.019.05.044.076.063h0c.027.019.05.043.077.062h0c.027.019.05.044.077.063h0c.026.019.05.043.077.062h0c.026.019.05.044.076.063h0c.027.019.051.043.077.062h0c.027.02.05.044.077.063h0c.027.019.05.043.077.062h0c.026.019.05.043.077.062h0c.026.019.05.043.076.062h0c.026.019.05.043.076.062h0c.027.019.05.044.077.062h0c.027.019.05.043.077.062h0c.026.019.05.044.077.062h0c.026.019.05.043.076.062h0c.026.019.05.044.076.062h0c.027.019.051.043.077.062h0c.027.019.05.044.077.062h0c.026.019.05.043.077.062h0c.026.019.05.044.076.062h0c.026.019.05.043.076.062h0c.027.019.051.044.077.062h0c.027.019.05.043.077.062h0c.026.019.05.044.077.063h0c.026.019.05.043.077.062h0c.026.019.05.044.076.063h0c.027.019.051.043.077.062h0c.027.02.05.044.077.063h0c.027.019.05.043.077.062h0c.026.019.05.043.077.062h0c.026.019.05.043.076.062h0c.027.019.051.043.077.062h0c.027.019.05.043.077.062h0c.027.019.05.043.077.062h0c.026.019.05.043.077.062h0c.026.019.05.043.076.062h0c.026.019.05.044.076.062h0c.027.019.05.043.077.062h0c.027.019.05.044.077.062h0c.026.019.05.043.077.062h0c.026.019.05.044.076.062h0c.026.019.05.043.076.062h0c.027.019.05.044.077.062h0c.027.019.05.043.077.062h0c.026.019.05.044.077.062h0c.026.019.05.043.076.062h0c.026.019.05.044.076.062h0c.027.019.051.043.077.062h0c.027.019.05.044.077.062h0c.026.019.05.043.077.062h0c.026.019.05.044.077.063h0c.026.019.05.043.076.062h0c.027.019.051.044.077.063h0c.027.019.05.043.077.062h0c.026.02.05.044.077.063h0c.026.019.05.043.077.062h0c.026.018.05.043.076.062h0c.027.019.051.043.077.062h0c.027.019.05.044.077.063h0c.027.019.05.043.077.062h0c.026.02.05.044.077.063h0c.026.019.05.043.076.062h0c.026.019.05.043.076.062h0c.027.019.05.044.077.062h0c.027.019.05.043.077.062h0c.026.019.05.044.077.062h0c.026.019.05.043.076.062h0c.026.019.05.044.076.062h0c.027.019.05.043.077.062h0c.027.019.05.044.077.062h0c.026.019.05.043.077.062h0c.026.019.05.044.076.062h0c.026.019.05.043.076.062h0c.027.019.051.044.077.062h0c.027.019.05.043.077.062h0c.026.019.05.044.077.062h0c.026.019.05.043.076.062h0c.026.019.05.044.076.063h0c.027.019.051.043.077.062h0c.027.019.05.044.077.063h0c.026.019.05.043.077.062h0c.026.02.05.044.077.063h0c.026.019.05.043.076.062h0c.026.019.05.043.076.062h0c.027.019.05.043.077.062h0c.027.019.05.043.077.062h0c.026.019.05.043.077.062h0c.026.019.05.043.076.062h0c.027.019.051.043.077.062h0c.027.019.05.043.077.062h0c.027.019.05.044.077.062h0c.026.019.05.043.077.062h0c.026.019.05.044.076.062h0c.026.019.05.043.076.062h0c.027.019.05.044.077.062h0c.027.019.05.043.077.062h0c.026.019.05.044.077.062h0c.026.019.05.043.076.062h0c.026.019.05.044.076.062h0c.027.019.05.043.077.062h0c.027.019.05.044.077.062h0c.026.019.05.043.077.062h0c.026.019.05.044.076.062h0c.026.019.05.043.076.062h0c.027.019.051.044.077.063h0c.027.019.05.043.077.062h0c.026.019.05.044.077.063h0c.026.019.05.043.077.062h0c.026.02.05.044.076.063h0c.027.019.051.043.077.062h0c.027.019.05.043.077.062h0c.027.019.05.043.077.062h0c.026.02.05.044.077.063h0c.026.019.05.043.076.062h0c.026.019.05.043.076.062h0c.027.019.05.043.077.062h0c.027.019.05.043.077.062h0c.026.019.05.044.077.062h0c.026.019.05.043.076.062h0c.026.019.05.044.076.062h0c.027.019.05.043.077.062h0c.027.019.05.044.077.062h0c.026.019.05.043.077.062h0c.026.019.05.044.076.062h0c.026.019.05.043.076.062h0c.027.019.05.044.077.062h0c.027.019.05.043.077.062h0c.026.019.05.044.077.062h0c.026.019.05.043.076.062h0c.026.019.05.044.076.062h0c.027.019.051.043.077.062h0c.027.019.05.044.077.063h0c.026.019.05.043.077.062h0c.026.02.05.044.076.063h0c.026.019.05.043.076.062h0c.027.019.051.043.077.062h0c.027.019.05.043.077.062h0c.026.019.05.043.077.062h0c.026.019.05.044.077.062h0c.026.019.05.043.076.062h0c.027.019.051.043.077.062h0c.027.019.05.043.077.062h0c.027.019.05.044.077.062h0c.026.019.05.043.077.062h0c.026.019.05.044.076.062h0c.027.019.051.043.077.062h0c.027.019.05.043.077.062h0c.027.019.05.043.077.062h0c.026.019.05.044.077.062h0c.026.019.05.043.076.062h0c.026.019.05.044.076.062h0c.027.019.051.043.077.062h0c.027.019.05.044.077.062h0c.026.019.05.043.077.062h0c.026.019.05.044.076.062h0c.026.019.05.043.076.062h0c.027.019.05.044.077.063h0c.027.019.05.043.077.062h0c.026.019.05.044.077.063h0c.026.019.05.043.076.062h0c.026.02.05.044.076.063h0c.027.019.051.043.077.062h0c.027.019.05.043.077.062h0c.027.019.05.043.077.062h0c.026.019.05.043.077.062h0c.026.019.05.043.076.062h0c.027.019.051.043.077.062h0c.027.019.05.043.077.062h0c.026.019.05.043.077.062h0c.026.019.05.044.077.062h0c.026.019.05.043.076.062h0c.026.019.05.044.076.062h0c.027.019.05.043.077.062h0c.027.019.05.044.077.062h0c.026.019.05.043.077.062h0c.026.019.05.044.076.062h0c.026.019.05.043.076.062h0c.027.019.05.044.077.063h0c.027.019.05.043.077.062h0c.026.019.05.044.077.063h0c.026.019.05.043.076.062h0c.026.019.05.044.076.062h0c.027.019.051.043.077.062h0c.027.019.05.044.077.063h0c.026.019.05.043.077.062h0c.026.019.05.044.077.063h0c.026.019.05.043.076.062h0c.027.02.051.044.077.063h0c.027.019.05.043.077.062h0c.026.019.05.043.077.062h0c.026.019.05.043.077.062h0c.026.019.05.043.076.062h0c.027.019.051.044.077.062h0c.027.019.05.043.077.062h0c.026.019.05.044.077.062h0c.026.019.05.043.077.062h0c.026.019.05.043.076.062h0c.026.019.05.043.076.062h0c.027.019.05.044.077.062h0c.027.019.05.043.077.062h0c.026.019.05.044.077.062h0c.026.019.05.043.076.062h0c.026.019.05.044.076.062h0c.027.019.05.043.077.062h0c.027.019.05.044.077.062h0c.026.019.05.043.077.062h0c.026.019.05.044.076.062h0c.026.019.05.043.076.062h0c.027.02.051.044.077.062h0c.027.019.05.043.077.062h0c.026.019.05.044.077.063h0c.026.019.05.043.076.062h0c.026.019.05.044.076.063h0c.027.019.051.043.077.062h0c.027.02.05.044.077.063h0c.026.019.05.043.077.062h0c.026.019.05.043.076.062h0c.026.019.05.043.076.062h0c.027.019.051.043.077.062h0c.027.019.05.043.077.062h0c.027.019.05.043.077.062h0c.026.019.05.043.077.062h0c.026.019.05.043.076.062h0c.026.019.05.044.076.062h0c.027.019.05.043.077.062h0c.027.019.05.044.077.062h0c.026.019.05.043.077.062h0c.026.019.05.044.076.062h0c.026.019.05.043.076.062h0c.027.019.05.044.077.062h0c.027.019.05.043.077.062h0c.026.019.05.044.077.063h0c.026.019.05.043.076.062h0c.026.019.05.044.076.063h0c.027.019.05.043.077.062h0c.027.019.05.044.077.063h0c.026.019.05.043.077.062h0c.026.019.05.044.076.063h0c.026.019.05.043.076.062h0c.027.019.051.044.077.063h0c.027.019.05.043.077.062h0c.026.019.05.043.077.062h0c.026.019.05.043.077.062h0c.026.019.05.043.076.062h0c.027.019.051.044.077.062h0c.027.019.05.043.077.062h0c.026.019.05.044.077.062h0c.026.019.05.043.077.062h0c.026.019.05.044.076.062h0c.027.019.051.043.077.062h0c.027.019.05.044.077.062h0c.027.019.05.043.077.062h0c.026.019.05.043.077.062h0c.026.019.05.043.076.062h0c.026.019.05.044.076.062h0c.027.019.05.043.077.062h0c.027.019.05.044.077.062h0c.026.019.05.043.077.062h0c.026.019.05.044.076.062h0c.026.019.05.043.076.062h0c.027.019.05.044.077.062h0c.027.019.05.043.077.062h0c.026.02.05.044.077.063h0c.026.019.05.043.076.062h0c.026.018.05.043.076.062h0c.027.019.051.043.077.062h0c.027.02.05.044.077.063h0c.026.019.05.043.077.062h0c.026.019.05.043.076.062h0c.026.019.05.043.076.062h0c.027.019.051.043.077.062h0c.027.019.05.043.077.062h0c.026.019.05.043.077.062h0c.026.019.05.043.076.062h0c.026.019.05.043.076.062h0c.027.019.051.044.077.062h0c.027.019.05.043.077.062h0c.027.019.05.044.077.062h0c.026.019.05.043.077.062h0c.026.019.05.044.076.062h0c.027.019.051.043.077.062h0c.027.019.05.044.077.062h0c.027.019.05.043.077.062h0c.026.019.05.044.077.062h0c.026.019.05.043.076.062h0c.026.019.05.044.076.063h0c.027.019.05.043.077.062h0c.027.019.05.044.077.063h0c.026.019.05.043.077.062h0c.026.019.05.044.076.063h0c.026.019.05.043.076.062h0c.027.019.05.044.077.063h0c.027.019.05.043.077.062h0c.026.02.05.044.077.063h0c.026.019.05.043.076.062h0c.026.019.05.043.076.062h0c.027.019.051.044.077.062h0c.027.019.05.043.077.062h0c.026.019.05.044.077.062h0c.026.019.05.043.077.062h0c.026.019.05.044.076.062h0c.021.014.039.031.059.047A37.507,37.507,0,0,0,75.5,38Z"/><path class="cls-5" d="M61.911,59.2s-2.183,5.056-16.56,5.056c-13.155,0-13.734-5.476-13.734-5.476S31.623,36.9,47.185,36.9C61.549,36.9,61.911,59.2,61.911,59.2Z"/><path class="cls-5" d="M55.952,24.791a9.223,9.223,0,0,1-8.939,9.481,9.223,9.223,0,0,1-8.939-9.481c0-5.535,4.3-10.023,8.939-10.023S55.952,19.256,55.952,24.791Z"/><path class="cls-6" d="M23.626,27.873a10.639,10.639,0,0,0-1.134-.918l-3.258.92-1.857-2.831a10.821,10.821,0,0,0-2.909.1L12.815,28.1,9.5,27.413a10.633,10.633,0,0,0-1.985,2.13L8.436,32.8,5.6,34.659a10.815,10.815,0,0,0,.1,2.908L8.663,39.22l-.689,3.316a11.074,11.074,0,0,0,1,1.066,10.868,10.868,0,0,0,1.134.918l3.258-.921,1.858,2.832a10.815,10.815,0,0,0,2.908-.1l1.653-2.955,3.315.688a10.717,10.717,0,0,0,1.066-1,10.867,10.867,0,0,0,.919-1.133l-.921-3.259,2.832-1.857a10.823,10.823,0,0,0-.1-2.909l-2.956-1.653.689-3.315A10.836,10.836,0,0,0,23.626,27.873ZM22.185,41.246a8.046,8.046,0,1,1-.4-11.371A8.045,8.045,0,0,1,22.185,41.246Z"/><path class="cls-7" d="M34.715,13.2a9.519,9.519,0,0,0-.893-.933l-2.964.446-1.317-2.694a9.543,9.543,0,0,0-2.566-.233L25.194,12.2l-2.835-.974a9.538,9.538,0,0,0-1.048.756,9.647,9.647,0,0,0-.933.894l.447,2.964L18.13,17.152a9.58,9.58,0,0,0-.233,2.566L20.309,21.5l-.974,2.835a9.661,9.661,0,0,0,.756,1.047,9.533,9.533,0,0,0,.894.933l2.964-.446,1.317,2.694a9.584,9.584,0,0,0,2.566.234l1.781-2.412,2.835.974a9.375,9.375,0,0,0,1.981-1.65l-.447-2.965,2.7-1.316a9.587,9.587,0,0,0,.233-2.566L34.5,17.08l.974-2.836A9.633,9.633,0,0,0,34.715,13.2ZM31.771,24.751a6.852,6.852,0,1,1,.879-9.65A6.851,6.851,0,0,1,31.771,24.751Z"/></g></g></svg>