<svg xmlns="http://www.w3.org/2000/svg" xmlns:xlink="http://www.w3.org/1999/xlink" viewBox="0 0 182.34 199.23"><defs><style>.cls-1{fill:#dee3e8;}.cls-2{fill:#f08e8c;}.cls-3{clip-path:url(#clip-path);}.cls-4,.cls-9{fill:#fff;}.cls-4{opacity:0.42;}.cls-5{clip-path:url(#clip-path-2);}.cls-6{fill:#e95653;}.cls-7{clip-path:url(#clip-path-3);}.cls-8{fill:#fbdddd;}.cls-10{fill:none;stroke:#e11e19;stroke-miterlimit:10;stroke-width:0.54px;}</style><clipPath id="clip-path"><path id="_Zuschneidungspfad_" data-name="&lt;Zuschneidungspfad&gt;" class="cls-1" d="M118.64,180.91s-20.15,18.32-64.15,18.32c-40.26,0-53.08-20.15-53.08-20.15s11-64.85,58.64-64.85C104,114.23,118.64,180.91,118.64,180.91Z"/></clipPath><clipPath id="clip-path-2"><path id="_Zuschneidungspfad_2" data-name="&lt;Zuschneidungspfad&gt;" class="cls-1" d="M86.94,75.68c0,16.94-13.16,29-27.36,29s-27.36-12.08-27.36-29S45.39,45,59.58,45,86.94,58.74,86.94,75.68Z"/></clipPath><clipPath id="clip-path-3"><path id="_Zuschneidungspfad_3" data-name="&lt;Zuschneidungspfad&gt;" class="cls-2" d="M99.43,24.87V41.59a20.81,20.81,0,0,0,18.42,20.6l0,17.85,17.4-17.72h26.4a20.79,20.79,0,0,0,20.73-20.73V24.87A20.79,20.79,0,0,0,161.62,4.14H120.16A20.79,20.79,0,0,0,99.43,24.87Z"/></clipPath></defs><title>telefon-support</title><g id="Ebene_2" data-name="Ebene 2"><g id="textos_y_elementos" data-name="textos y elementos"><path id="_Zuschneidungspfad_4" data-name="&lt;Zuschneidungspfad&gt;" class="cls-1" d="M118.64,180.91s-20.15,18.32-64.15,18.32c-40.26,0-53.08-20.15-53.08-20.15s11-64.85,58.64-64.85C104,114.23,118.64,180.91,118.64,180.91Z"/><g class="cls-3"><polygon id="_Polygon_" data-name="&lt;Polygon&gt;" class="cls-4" points="70.04 87.48 4.94 135.91 0 182.96 70.04 87.48"/></g><path id="_Zuschneidungspfad_5" data-name="&lt;Zuschneidungspfad&gt;" class="cls-1" d="M86.94,75.68c0,16.94-13.16,29-27.36,29s-27.36-12.08-27.36-29S45.39,45,59.58,45,86.94,58.74,86.94,75.68Z"/><g class="cls-5"><polygon id="_Polygon_2" data-name="&lt;Polygon&gt;" class="cls-4" points="62.85 41.13 29.62 52.32 29.95 95.1 62.85 41.13"/></g><path class="cls-6" d="M24,67.73a35.19,35.19,0,0,1,9.76-25.4,36,36,0,0,1,51.3-.5,36.53,36.53,0,0,1,8,11.86c.41,1.13.86,2.24,1.22,3.39s.63,2.32.88,3.49.39,2.37.54,3.56l.1,1.8c-.09.59.64,1.21-1.46,1.8a3,3,0,0,1-1.53,0l-.1,0c-2.16-.53-1.48-1-1.63-1.57L91,64.6c-.13-1-.31-2.07-.45-3.11s-.51-2-.75-3-.7-2-1-3A32.46,32.46,0,0,0,71.48,38a33.06,33.06,0,0,0-42.89,17,34.78,34.78,0,0,0-2.94,12.67.82.82,0,0,1-1.63,0Z"/><rect class="cls-6" x="15.87" y="62.91" width="10.85" height="23.88" rx="2.7" ry="2.7"/><path class="cls-6" d="M25.65,80.76A10,10,0,0,0,29,87.89a16.89,16.89,0,0,0,7.46,3.26c5.54,1.16,11.46,1,17.3.73h0a2.88,2.88,0,1,1,.29,5.74h-.32c-3-.18-6.11-.44-9.16-.86a51.12,51.12,0,0,1-9.13-2.05,26.16,26.16,0,0,1-4.4-1.91A23.36,23.36,0,0,1,29,91.46a19.28,19.28,0,0,1-1.85-1.67,11.22,11.22,0,0,1-1.5-2c-.2-.37-.44-.71-.61-1.09l-.43-1.17-.21-.58-.11-.6-.21-1.2c-.08-.8-.05-1.6-.08-2.39a.81.81,0,0,1,1.63-.07Z"/><path id="_Zuschneidungspfad_6" data-name="&lt;Zuschneidungspfad&gt;" class="cls-2" d="M99.43,24.87V41.59a20.81,20.81,0,0,0,18.42,20.6l0,17.85,17.4-17.72h26.4a20.79,20.79,0,0,0,20.73-20.73V24.87A20.79,20.79,0,0,0,161.62,4.14H120.16A20.79,20.79,0,0,0,99.43,24.87Z"/><g class="cls-7"><polygon id="_Polygon_3" data-name="&lt;Polygon&gt;" class="cls-8" points="135.25 0 101.02 7.24 95.1 57.26 135.25 0"/></g><circle class="cls-9" cx="155.24" cy="34.98" r="4.18"/><circle class="cls-9" cx="141.08" cy="34.98" r="4.18"/><circle class="cls-9" cx="126.93" cy="34.98" r="4.18"/><path class="cls-10" d="M168,4.14"/></g></g></svg>