<svg xmlns="http://www.w3.org/2000/svg" viewBox="0 0 76 76"><defs><style>.cls-1{isolation:isolate;}.cls-2{fill:#e95653;}.cls-3{fill:none;}.cls-4{opacity:0.15;mix-blend-mode:multiply;}.cls-5{fill:#fff;}.cls-6{fill:#f9d2d1;}</style></defs><title>updates</title><g class="cls-1"><g id="Layer_1" data-name="Layer 1"><circle class="cls-2" cx="38" cy="38" r="37.5"/><path class="cls-3" d="M25.182,70.838a2.492,2.492,0,0,1-.357-.391,11.879,11.879,0,0,1-.418-1.394q-.954-3.618-1.909-7.238c-.422-1.6-1.137-1.985-2-2.914-1.394-1.5-2.828-2.889-4.221-4.39-.33-.357-.691-.705-1.043-1.077a17.069,17.069,0,0,1-2.912-5.628A26.634,26.634,0,0,1,37.891,12.647a26.572,26.572,0,0,1,6.193.823c.536.137,2.223.959,2.661.791.14-.054.351-.6.423-.726L50.333,8.1a7.554,7.554,0,0,0,1.261,1.324c.867.939,1.648,1.868,2.6,2.753.86.8,1.808,1.751,2.617,2.628.869.942,1.647,1.868,2.6,2.754.866.8,1.764,1.783,2.617,2.628.918.909,1.64,1.861,2.6,2.753.866.8,1.762,1.78,2.618,2.628.915.908,1.639,1.86,2.6,2.754.854.794,1.753,1.8,2.609,2.595.971.9,1.637,1.883,2.608,2.786.069.064.14.136.21.2A37.5,37.5,0,1,0,28.569,74.3c-.193-.2-.388-.394-.578-.591C27.064,72.756,26.07,71.8,25.182,70.838Z"/><path class="cls-4" d="M75.5,38a37.887,37.887,0,0,0-.226-4.092c-.07-.067-.141-.139-.21-.2-.971-.9-1.637-1.883-2.608-2.786-.856-.8-1.755-1.8-2.609-2.595-.961-.894-1.685-1.846-2.6-2.754-.856-.848-1.752-1.823-2.618-2.628-.96-.892-1.682-1.844-2.6-2.753-.853-.845-1.751-1.823-2.617-2.628-.954-.886-1.732-1.812-2.6-2.754-.809-.877-1.757-1.828-2.617-2.628-.952-.885-1.733-1.814-2.6-2.753A7.554,7.554,0,0,1,50.333,8.1l-3.165,5.433c-.072.123-.283.672-.423.726-.438.168-2.125-.654-2.661-.791a26.55,26.55,0,0,0-27.933,9.96,26.85,26.85,0,0,0-3.827,24.376,17.069,17.069,0,0,0,2.912,5.628c.352.372.713.72,1.043,1.077,1.393,1.5,2.827,2.889,4.221,4.39.861.929,1.576,1.31,2,2.914q.956,3.619,1.909,7.238a11.879,11.879,0,0,0,.418,1.394,2.492,2.492,0,0,0,.357.391c.888.962,1.882,1.918,2.809,2.873.19.2.385.394.578.591A37.525,37.525,0,0,0,75.5,38Z"/><path class="cls-5" d="M63.986,42.187A26.671,26.671,0,0,1,27.41,64.027l1.4-3.414A22.947,22.947,0,0,0,57.832,28.769l3.272-1.7A26.606,26.606,0,0,1,63.986,42.187Z"/><polygon class="cls-5" points="24.707 70.544 33.729 55.055 21.475 58.289 24.707 70.544"/><path class="cls-6" d="M47.563,14.721l-1.4,3.415A22.947,22.947,0,0,0,17.761,51.093L14.59,52.977A26.636,26.636,0,0,1,47.563,14.721Z"/><polygon class="cls-6" points="50.267 8.205 41.244 23.694 53.498 20.46 50.267 8.205"/></g></g></svg>