<svg xmlns="http://www.w3.org/2000/svg" viewBox="0 0 101.84 102.1"><defs><style>.cls-1{fill:#bec8d2;}</style></defs><title>windows-logo</title><g id="Layer_2" data-name="Layer 2"><g id="textos_y_elementos" data-name="textos y elementos"><path id="path5" class="cls-1" d="M46.65,8Q74.21,3.8,101.83,0q0,24.2,0,48.38c-18.39.07-36.78.35-55.19.41q0-20.4,0-40.78Z"/><path id="path7" class="cls-1" d="M0,14.52c13.83-2.13,27.72-4,41.61-5.71q0,20.06,0,40.12c-13.88,0-27.76.19-41.64.16V14.52Z"/><path id="path29" class="cls-1" d="M0,53.3c13.87,0,27.73.17,41.6.15,0,13.41,0,26.83,0,40.24C27.76,91.63,13.88,89.84,0,88Z"/><path id="path31" class="cls-1" d="M46.57,53.84h55.26q0,24.12,0,48.26c-18.37-2.76-36.77-5.31-55.18-7.81Q46.62,74.07,46.57,53.84Z"/></g></g></svg>