<svg xmlns="http://www.w3.org/2000/svg" viewBox="0 0 76 76"><defs><style>.cls-1{isolation:isolate;}.cls-2{fill:#e95653;}.cls-3{fill:none;}.cls-4{opacity:0.15;mix-blend-mode:multiply;}.cls-5{fill:#f9d2d1;}.cls-6{fill:#fff;}.cls-7{fill:#f08e8c;}</style></defs><title>zeitsparen</title><g class="cls-1"><g id="Layer_1" data-name="Layer 1"><circle class="cls-2" cx="38" cy="38" r="37.5"/><path class="cls-3" d="M20.839,64.542a38.908,38.908,0,0,1-8.1-8.221A29.44,29.44,0,0,1,36.351,10.413c-.349-.469-.16-1.039-.215-1.572-.067-.65-.193-.661-.74-1.03-1.1-.741-1.413-2.128.23-2.288a17.094,17.094,0,0,1,3.052,0c1.183.113,1.87,1.224,2.72,1.916l3.08,2.508c.425.346.9.645,1.364.959.549.371.981,1.03,1.6,1.351,1.529.79,3.154,1.334,4.652,2.215a33.084,33.084,0,0,1,4.159,2.962c5.888,4.826,11.809,9.612,17.713,14.418.386.315.776.625,1.163.939a37.5,37.5,0,1,0-41.1,42.5C33.1,74.528,32.171,73.76,31.239,73Q26.04,68.77,20.839,64.542Z"/><path class="cls-4" d="M75.5,38a37.75,37.75,0,0,0-.368-5.209c-.387-.314-.777-.624-1.163-.939-5.9-4.806-11.825-9.592-17.713-14.418A33.084,33.084,0,0,0,52.1,14.472c-1.5-.881-3.123-1.425-4.652-2.215-.622-.321-1.054-.98-1.6-1.351-.464-.314-.939-.613-1.364-.959L41.4,7.439c-.85-.692-1.537-1.8-2.72-1.916a17.094,17.094,0,0,0-3.052,0c-1.643.16-1.327,1.547-.23,2.288.547.369.673.38.74,1.03.055.533-.134,1.1.215,1.572A29.44,29.44,0,0,0,12.737,56.321a38.908,38.908,0,0,0,8.1,8.221q5.2,4.231,10.4,8.459c.932.759,1.86,1.527,2.791,2.288A37.5,37.5,0,0,0,75.5,38Z"/><circle class="cls-5" cx="37.169" cy="39.869" r="29.456"/><circle class="cls-6" cx="37.047" cy="39.832" r="28.511"/><path class="cls-5" d="M39.945,6.56A1.013,1.013,0,0,1,38.93,7.569h-.747v2.27a1.016,1.016,0,1,1-2.031,0V7.569h-.746a1.013,1.013,0,0,1,0-2.025H38.93A1.019,1.019,0,0,1,39.945,6.56Z"/><path class="cls-7" d="M37.2,43.715,10.243,29.789A28.692,28.692,0,0,1,35.682,11.3Z"/><path class="cls-7" d="M14.38,22.522,37.243,43.676l-26.9-13.9A28.617,28.617,0,0,1,14.38,22.522Z"/><polygon class="cls-7" points="37.298 43.706 37.267 43.694 37.292 43.59 37.298 43.706"/></g></g></svg>