<?xml version="1.0" encoding="utf-8"?>
<!-- Generator: Adobe Illustrator 25.0.1, SVG Export Plug-In . SVG Version: 6.00 Build 0)  -->
<svg version="1.1" id="Layer_1" xmlns="http://www.w3.org/2000/svg" xmlns:xlink="http://www.w3.org/1999/xlink" x="0px" y="0px"
	 viewBox="0 0 512 512" style="enable-background:new 0 0 512 512;" xml:space="preserve">
<style type="text/css">
	.st0{fill-rule:evenodd;clip-rule:evenodd;fill:#3D82AB;}
	.st1{fill:#3D82AB;}
</style>
<g>
	<path class="st0" d="M291.3,263.2c0,26.9-2.3,51.2-6.9,72.9c-4.6,21.7-12.1,40.2-22.5,55.5c-10.4,15.3-23.9,27-40.5,35.1
		c-16.6,8.2-37,12.3-61.1,12.3c-24.4,0-44.7-3.9-60.7-11.8c-16-7.9-28.7-19.3-38-34.1c-9.4-14.8-16-33-19.7-54.4
		c-3.8-21.4-5.6-45.7-5.6-72.7c0-26.8,2.4-51,7.1-72.8c4.7-21.8,12.2-40.3,22.6-55.6c10.4-15.3,23.9-27,40.5-35.1
		c16.6-8.2,37-12.3,60.8-12.3c24.4,0,44.7,3.9,60.7,11.8s28.9,19.3,38.2,34.1c9.4,14.8,15.9,33,19.6,54.4
		C289.4,211.9,291.3,236.1,291.3,263.2L291.3,263.2z M218.5,266.7c0-16-0.5-30-1.4-42.2c-0.9-12.3-2.4-22.8-4.2-31.9
		c-2-9-4.4-16.6-7.2-22.8c-2.8-6.2-6.3-11.3-10.4-14.9c-4-3.7-8.7-6.4-13.8-8c-5.2-1.5-10.9-2.3-17.2-2.3c-10.8,0-19.8,2.5-27,7.4
		c-7.1,5-12.7,12.4-16.9,22.3c-4.1,9.9-7.1,22.1-8.7,36.9c-1.7,14.8-2.5,31.9-2.5,51.5c0,23.9,1,43.7,3,59.4
		c2.1,15.7,5.3,28.2,9.6,37.5c4.3,9.2,10,15.7,16.7,19.5c6.9,3.7,15,5.6,24.7,5.6c7.1,0,13.5-1.1,19.1-3.3
		c5.5-2.1,10.3-5.4,14.6-9.7c4.1-4.4,7.6-9.8,10.3-16.4c2.8-6.6,5.1-14.2,6.8-22.8c1.8-8.7,3-18.5,3.7-29.4
		C218.2,292,218.5,279.9,218.5,266.7z"/>
</g>
<g>
	<g>
		<path class="st1" d="M447.7,423.8c-22.1,0-41.2-13.5-50.8-33.2h50.8v-19h-56.5c-0.4-3.1-0.7-6.3-0.7-9.5c0-3.2,0.3-6.4,0.7-9.5
			h56.5v-19h-50.8c9.6-19.7,28.7-33.2,50.8-33.2c14.2,0,27.2,5.6,37.2,14.8l15.6-16.7c-14-13.5-32.5-21.8-52.8-21.8
			c-34.5,0-63.8,23.8-74.6,56.9h-31v19h27c-0.4,3.1-0.5,6.3-0.5,9.5c0,3.2,0.2,6.4,0.5,9.5h-27v19h31c10.9,33.1,40.2,56.9,74.6,56.9
			c20.3,0,38.8-8.3,52.8-21.8l-15.6-16.8C474.9,418.1,461.9,423.8,447.7,423.8z"/>
	</g>
</g>
</svg>
