<svg id="elements" xmlns="http://www.w3.org/2000/svg" xmlns:xlink="http://www.w3.org/1999/xlink" viewBox="0 0 277 230"><defs><style>.cls-1{fill:none;}.cls-2{clip-path:url(#clip-path);}.cls-3{fill:#b7b7b7;}.cls-4{fill:#f2f2f2;}.cls-5{fill:#dee2e1;}.cls-6{fill:#787c7f;}.cls-7{fill:#c5c9c8;}.cls-8{fill:#8e949a;}.cls-9{fill:#bec8d2;}.cls-10{fill:#eff1f4;}.cls-11{fill:#223a3f;}.cls-12{fill:#fff;}.cls-13{fill:#788287;}.cls-14{fill:#b3b3b3;}.cls-15{fill:#ccc;}.cls-16{fill:#e6e6e6;}.cls-17{fill:#75868e;}.cls-18{fill:#556a70;}.cls-19{fill:#40a5ce;}.cls-20{fill:#f0f;}.cls-21{fill:#f4d262;}.cls-22{fill:#1d1d1b;}.cls-23{fill:#789aa3;}.cls-24{fill:#ffefdc;}.cls-25{fill:#bfe1ef;}.cls-26{fill:#ef78de;}.cls-27{fill:#fff7bb;}.cls-28{fill:#3f3f3f;}.cls-29{fill:#4c4c4b;}.cls-30{fill:#164456;}.cls-31{fill:#5e161d;}.cls-32{fill:#706514;}.cls-33{fill:#60605f;}.cls-34{fill:#fafafa;}</style><clipPath id="clip-path"><rect class="cls-1" width="277" height="230"/></clipPath></defs><g class="cls-2"><path class="cls-3" d="M40.877,204.416q0,7.622-5.524,11.821t-15.8,4.2a44.846,44.846,0,0,1-7.586-.645,32.423,32.423,0,0,1-6.444-1.712v-12.3a22.059,22.059,0,0,0,5.634,2.319,24.683,24.683,0,0,0,6.408.848A10.34,10.34,0,0,0,23.33,207.6a4.355,4.355,0,0,0,2.007-3.848,4.419,4.419,0,0,0-2.468-3.977,13.766,13.766,0,0,0-6.886-1.436H10.9V186.777h4.492q4.455,0,6.573-1.381a4.144,4.144,0,0,0,2.118-3.59,3.935,3.935,0,0,0-1.6-3.314,8.114,8.114,0,0,0-4.916-1.216,20.367,20.367,0,0,0-10.238,2.946V168.475a34.9,34.9,0,0,1,13.478-2.651q8.765,0,13.736,3.572a11.518,11.518,0,0,1,4.971,9.905,12.878,12.878,0,0,1-2.67,8.286,12.549,12.549,0,0,1-7.493,4.382v.185a13.614,13.614,0,0,1,8.432,4.068A11.594,11.594,0,0,1,40.877,204.416Z"/><path class="cls-4" d="M232.78,170.024v-58H180.729v58.6h.26v.008c0,3.941,11.616,7.135,25.945,7.135s25.946-3.194,25.946-7.135A2.067,2.067,0,0,0,232.78,170.024Z"/><path class="cls-5" d="M232.779,112.412c0,3.941-11.616,7.136-25.945,7.136s-25.945-3.2-25.945-7.136,11.616-7.135,25.945-7.135S232.779,108.472,232.779,112.412Z"/><path class="cls-6" d="M211.5,111.118c0,.825-2.43,1.494-5.429,1.494s-5.429-.669-5.429-1.494,2.431-1.493,5.429-1.493S211.5,110.294,211.5,111.118Z"/><path class="cls-7" d="M206.578,117.928c-12.085,0-21.881-2.61-21.881-5.83s9.8-5.831,21.881-5.831c8.082,0,15.136,1.169,18.925,2.905-3.775-1.808-10.861-3.027-18.986-3.027-12.084,0-21.881,2.693-21.881,6.016s9.8,6.018,21.881,6.018c10.958,0,20.035-2.216,21.631-5.106C226.405,115.828,217.415,117.928,206.578,117.928Z"/><path class="cls-7" d="M206.548,116.745c-10.129,0-18.341-2.187-18.341-4.888s8.212-4.887,18.341-4.887c6.774,0,12.687.98,15.863,2.436-3.164-1.515-9.1-2.538-15.914-2.538-10.129,0-18.341,2.258-18.341,5.044s8.212,5.043,18.341,5.043c9.186,0,16.793-1.857,18.131-4.279C223.168,114.985,215.631,116.745,206.548,116.745Z"/><path class="cls-7" d="M206.521,115.846c-8.391,0-15.193-1.812-15.193-4.048s6.8-4.049,15.193-4.049c5.611,0,10.51.811,13.14,2.017-2.62-1.255-7.54-2.1-13.182-2.1-8.391,0-15.193,1.87-15.193,4.178s6.8,4.177,15.193,4.177c7.609,0,13.911-1.538,15.019-3.545C220.288,114.388,214.046,115.846,206.521,115.846Z"/><path class="cls-7" d="M206.394,114.241c-5.856,0-10.6-1.265-10.6-2.826s4.748-2.825,10.6-2.825c3.916,0,7.335.566,9.171,1.408-1.829-.876-5.262-1.467-9.2-1.467-5.857,0-10.6,1.3-10.6,2.915s4.747,2.917,10.6,2.917c5.31,0,9.709-1.074,10.482-2.474C216,113.223,211.646,114.241,206.394,114.241Z"/><path class="cls-8" d="M201.681,111.9a15.833,15.833,0,0,1,8.878,0c.622-.243.991-.538.991-.858,0-.825-2.432-1.493-5.429-1.493s-5.43.668-5.43,1.493C200.691,111.365,201.059,111.66,201.681,111.9Z"/><path class="cls-4" d="M258.855,190.821v-58H206.8v58.6h.261v.008c0,3.941,11.616,7.135,25.946,7.135s25.945-3.194,25.945-7.135A2.04,2.04,0,0,0,258.855,190.821Z"/><path class="cls-5" d="M258.855,133.21c0,3.94-11.617,7.135-25.945,7.135s-25.946-3.195-25.946-7.135,11.616-7.135,25.946-7.135S258.855,129.269,258.855,133.21Z"/><path class="cls-6" d="M237.578,131.915c0,.825-2.431,1.494-5.43,1.494s-5.428-.669-5.428-1.494,2.431-1.492,5.428-1.492S237.578,131.091,237.578,131.915Z"/><path class="cls-7" d="M232.654,138.725c-12.085,0-21.882-2.61-21.882-5.83s9.8-5.831,21.882-5.831c8.081,0,15.135,1.169,18.925,2.905-3.776-1.808-10.861-3.027-18.986-3.027-12.085,0-21.881,2.693-21.881,6.017s9.8,6.018,21.881,6.018c10.958,0,20.034-2.216,21.63-5.107C252.481,136.625,243.49,138.725,232.654,138.725Z"/><path class="cls-7" d="M232.624,137.542c-10.13,0-18.342-2.187-18.342-4.887s8.212-4.888,18.342-4.888c6.774,0,12.686.98,15.863,2.436-3.164-1.515-9.1-2.538-15.915-2.538-10.129,0-18.341,2.259-18.341,5.044s8.212,5.044,18.341,5.044c9.186,0,16.794-1.857,18.132-4.28C249.243,135.782,241.707,137.542,232.624,137.542Z"/><path class="cls-7" d="M232.6,136.644c-8.391,0-15.194-1.813-15.194-4.049s6.8-4.049,15.194-4.049c5.611,0,10.509.811,13.14,2.017-2.621-1.255-7.54-2.1-13.183-2.1-8.391,0-15.193,1.87-15.193,4.178s6.8,4.178,15.193,4.178c7.61,0,13.912-1.539,15.02-3.546C246.364,135.186,240.121,136.644,232.6,136.644Z"/><path class="cls-7" d="M232.47,135.038c-5.856,0-10.6-1.264-10.6-2.825s4.748-2.826,10.6-2.826c3.916,0,7.335.566,9.171,1.408-1.83-.876-5.263-1.467-9.2-1.467-5.857,0-10.6,1.306-10.6,2.915s4.747,2.917,10.6,2.917c5.31,0,9.709-1.074,10.483-2.474C242.078,134.021,237.721,135.038,232.47,135.038Z"/><path class="cls-8" d="M227.757,132.7a15.83,15.83,0,0,1,8.877,0c.623-.243.991-.538.991-.858,0-.825-2.431-1.493-5.429-1.493s-5.43.668-5.43,1.493C226.766,132.162,227.134,132.457,227.757,132.7Z"/><path class="cls-9" d="M88.505,209.737a4.684,4.684,0,0,1-4.583,4.779H72.285a4.685,4.685,0,0,1-4.584-4.779V91.077A4.685,4.685,0,0,1,72.285,86.3H83.922a4.684,4.684,0,0,1,4.583,4.779Z"/><path class="cls-9" d="M205.823,210.159a4.693,4.693,0,0,1-4.583,4.8H189.6a4.693,4.693,0,0,1-4.582-4.8V91.094a4.694,4.694,0,0,1,4.582-4.8H201.24a4.694,4.694,0,0,1,4.583,4.8Z"/><path class="cls-10" d="M192.406,206.971a4.209,4.209,0,0,1-4.262,4.156H85.2a4.21,4.21,0,0,1-4.263-4.156V58.476A4.209,4.209,0,0,1,85.2,54.321H188.144a4.209,4.209,0,0,1,4.262,4.155Z"/><path class="cls-11" d="M182,151.574a3.6,3.6,0,0,1-3.836,3.3H94.372a3.6,3.6,0,0,1-3.836-3.3v-79a3.6,3.6,0,0,1,3.836-3.3h83.787a3.6,3.6,0,0,1,3.836,3.3Z"/><polygon class="cls-12" points="112.402 69.266 95.145 85.932 175.681 85.932 156.719 69.266 112.402 69.266"/><polygon class="cls-9" points="102.706 179.734 85.654 203.621 137.032 203.621 137.032 180.991 102.706 179.734"/><polygon class="cls-9" points="170.72 179.734 187.772 203.621 136.394 203.621 136.394 180.991 170.72 179.734"/><rect class="cls-13" x="85.474" y="203.558" width="102.416" height="17.163"/><polygon class="cls-14" points="112.924 184.742 95.667 200.509 176.203 200.509 157.241 184.742 112.924 184.742"/><polygon class="cls-15" points="112.924 181.984 95.667 197.75 176.203 197.75 157.241 181.984 112.924 181.984"/><polygon class="cls-15" points="112.924 178.339 95.667 194.105 176.203 194.105 157.241 178.339 112.924 178.339"/><polygon class="cls-16" points="112.924 176.062 95.667 191.828 176.203 191.828 157.241 176.062 112.924 176.062"/><polygon class="cls-4" points="112.924 173.047 95.667 188.813 176.203 188.813 157.241 173.047 112.924 173.047"/><path class="cls-17" d="M70.813,114.871c0,.393-.218.713-.487.713h0c-.268,0-.486-.32-.486-.713V92.063c0-.394.218-.713.486-.713h0c.269,0,.487.319.487.713Z"/><path class="cls-17" d="M73.164,114.871c0,.393-.218.713-.487.713h0c-.269,0-.487-.32-.487-.713V92.063c0-.394.218-.713.487-.713h0c.269,0,.487.319.487.713Z"/><path class="cls-17" d="M75.329,114.871c0,.393-.218.713-.487.713h0c-.268,0-.486-.32-.486-.713V92.063c0-.394.218-.713.486-.713h0c.269,0,.487.319.487.713Z"/><path class="cls-17" d="M77.68,114.871c0,.393-.218.713-.487.713h0c-.269,0-.486-.32-.486-.713V92.063c0-.394.217-.713.486-.713h0c.269,0,.487.319.487.713Z"/><path class="cls-17" d="M196.946,114.871c0,.393-.218.713-.486.713h0c-.269,0-.488-.32-.488-.713V92.063c0-.394.219-.713.488-.713h0c.268,0,.486.319.486.713Z"/><path class="cls-17" d="M199.3,114.871c0,.393-.218.713-.487.713h0c-.268,0-.487-.32-.487-.713V92.063c0-.394.219-.713.487-.713h0c.269,0,.487.319.487.713Z"/><path class="cls-17" d="M201.463,114.871c0,.393-.218.713-.487.713h0c-.269,0-.487-.32-.487-.713V92.063c0-.394.218-.713.487-.713h0c.269,0,.487.319.487.713Z"/><path class="cls-17" d="M203.813,114.871c0,.393-.217.713-.486.713h0c-.269,0-.488-.32-.488-.713V92.063c0-.394.219-.713.488-.713h0c.269,0,.486.319.486.713Z"/><polygon class="cls-9" points="170.467 143.677 173.427 138.627 173.427 138.402 97.362 138.402 101.06 143.677 170.467 143.677"/><polygon class="cls-10" points="170.336 142.385 173.245 138.176 173.245 137.989 98.471 137.989 102.106 142.385 170.336 142.385"/><polygon class="cls-9" points="101.198 145.985 98.239 151.036 98.239 151.262 174.304 151.262 170.605 145.985 101.198 145.985"/><polygon class="cls-10" points="101.33 147.278 98.42 151.486 98.42 151.674 173.195 151.674 169.56 147.278 101.33 147.278"/><rect class="cls-18" x="95.455" y="150.557" width="81.238" height="4.382"/><rect class="cls-18" x="95.239" y="135.236" width="81.687" height="3.399"/><polygon class="cls-4" points="165.514 76.852 156.789 69.184 112.473 69.184 104.531 76.852 165.514 76.852"/><polygon class="cls-12" points="114.498 144.789 98.517 163.432 173.099 163.432 155.537 144.789 114.498 144.789"/><polygon class="cls-19" points="155.529 144.394 173.099 163.527 151.29 163.527 141.388 144.821 155.529 144.394"/><polygon class="cls-12" points="112.924 168.623 95.667 184.389 176.203 184.389 157.241 168.623 112.924 168.623"/><polygon class="cls-12" points="112.402 121.266 95.145 102.943 175.681 102.943 156.719 121.266 112.402 121.266"/><polygon class="cls-3" points="104.621 105.916 119.4 105.76 118.947 106.853 104.893 107.009 104.621 105.916"/><polygon class="cls-3" points="104.69 107.81 119.4 107.72 118.893 108.529 105.603 108.799 104.69 107.81"/><polygon class="cls-19" points="153.828 102.52 175.681 102.943 157.738 121.266 149.43 121.266 153.828 102.52"/><polygon class="cls-3" points="109.077 113.43 137.099 113.186 135.205 114.332 110.96 114.407 109.077 113.43"/><polygon class="cls-3" points="110.56 115.473 135.134 115.263 133.473 116.248 112.212 116.312 110.56 115.473"/><polygon class="cls-3" points="111.478 117.445 134.391 117.283 132.842 118.042 113.018 118.092 111.478 117.445"/><polygon class="cls-3" points="112.241 119.415 135.154 119.253 133.605 120.012 113.781 120.062 112.241 119.415"/><polygon class="cls-12" points="153.657 114.844 162.279 114.954 161.38 116.213 154.197 116.103 153.657 114.844"/><rect class="cls-19" x="109.3" y="28.206" width="10.982" height="7.804"/><path class="cls-19" d="M116.521,28.321a1.73,1.73,0,0,1-1.73,1.73h0a1.731,1.731,0,0,1-1.73-1.73V23.335a1.73,1.73,0,0,1,1.73-1.73h0a1.729,1.729,0,0,1,1.73,1.73Z"/><rect class="cls-20" x="125.267" y="28.206" width="10.982" height="7.804"/><path class="cls-20" d="M132.488,27.858a1.731,1.731,0,0,1-1.73,1.73h0a1.73,1.73,0,0,1-1.73-1.73V22.872a1.73,1.73,0,0,1,1.73-1.73h0a1.731,1.731,0,0,1,1.73,1.73Z"/><rect class="cls-21" x="140.073" y="28.206" width="10.981" height="7.804"/><path class="cls-21" d="M147.294,28.57a1.73,1.73,0,0,1-1.73,1.73h0a1.729,1.729,0,0,1-1.73-1.73V23.584a1.729,1.729,0,0,1,1.73-1.729h0a1.73,1.73,0,0,1,1.73,1.729Z"/><rect class="cls-22" x="154.212" y="28.206" width="10.982" height="7.804"/><path class="cls-22" d="M161.433,27.96a1.731,1.731,0,0,1-1.731,1.73h0a1.73,1.73,0,0,1-1.729-1.73V22.974a1.73,1.73,0,0,1,1.729-1.73h0a1.731,1.731,0,0,1,1.731,1.73Z"/><path class="cls-9" d="M175.6,45.309c0,5.671-2.313,10.269-5.167,10.269h-67c-2.853,0-5.167-4.6-5.167-10.269h0c0-5.672,2.314-10.27,5.167-10.27h67c2.854,0,5.167,4.6,5.167,10.27Z"/><path class="cls-10" d="M148.52,38.587a2.442,2.442,0,1,1-2.442-2.442A2.443,2.443,0,0,1,148.52,38.587Z"/><path class="cls-21" d="M147.96,38.587a1.882,1.882,0,1,1-1.882-1.882A1.882,1.882,0,0,1,147.96,38.587Z"/><path class="cls-23" d="M190.557,57.3a.408.408,0,0,0-.408-.408H82.9a.408.408,0,0,0-.407.408h0a.407.407,0,0,0,.407.406H190.149a.407.407,0,0,0,.408-.406Z"/><path class="cls-10" d="M172.3,42.645c0-.225-.12-.407-.268-.407h-70.7c-.149,0-.269.182-.269.407h0c0,.225.12.407.269.407h70.7c.148,0,.268-.182.268-.407Z"/><path class="cls-24" d="M178.532,93.363a2.518,2.518,0,0,1-2.518,2.518H95.932a2.518,2.518,0,0,1-2.518-2.518h0a2.518,2.518,0,0,1,2.518-2.517h80.082a2.517,2.517,0,0,1,2.518,2.517Z"/><path class="cls-24" d="M174.216,128.249a2.411,2.411,0,0,1-2.287,2.518H99.178a2.411,2.411,0,0,1-2.287-2.518h0a2.41,2.41,0,0,1,2.287-2.517h72.751a2.41,2.41,0,0,1,2.287,2.517Z"/><path class="cls-19" d="M178.317,90.1c0,.916-1.552,1.658-3.468,1.658H96.264c-1.915,0-3.468-.742-3.468-1.658V87.239c0-.916,1.553-1.659,3.468-1.659h78.585c1.916,0,3.468.743,3.468,1.659Z"/><path class="cls-20" d="M178.664,100.745c0,1.1-1.57,2-3.507,2H95.67c-1.938,0-3.508-.9-3.508-2V97.29c0-1.106,1.57-2,3.508-2h79.487c1.937,0,3.507.9,3.507,2Z"/><path class="cls-21" d="M174.327,126.185c0,1-1.407,1.82-3.145,1.82H99.918c-1.737,0-3.145-.815-3.145-1.82v-3.141c0-1,1.408-1.82,3.145-1.82h71.264c1.738,0,3.145.815,3.145,1.82Z"/><path class="cls-22" d="M174.186,134.4c0,1-1.408,1.82-3.146,1.82H99.776c-1.736,0-3.144-.815-3.144-1.82v-3.142c0-1.006,1.408-1.82,3.144-1.82H171.04c1.738,0,3.146.814,3.146,1.82Z"/><path class="cls-25" d="M176.854,87.489c0,.549-.11.994-.244.994H94.617c-.135,0-.244-.445-.244-.994h0c0-.548.109-.993.244-.993H176.61c.134,0,.244.445.244.993Z"/><path class="cls-26" d="M176.374,97.32c0,.549-.109.993-.244.993H94.138c-.135,0-.245-.444-.245-.993h0c0-.549.11-.993.245-.993H176.13c.135,0,.244.444.244.993Z"/><path class="cls-27" d="M173.017,123.215c0,.549-.1.993-.222.993H98.072c-.122,0-.222-.444-.222-.993h0c0-.549.1-.994.222-.994H172.8c.123,0,.222.445.222.994Z"/><path class="cls-28" d="M173.256,131.846c0,.549-.1.994-.221.994H98.312c-.123,0-.222-.445-.222-.994h0c0-.548.1-.993.222-.993h74.723c.122,0,.221.445.221.993Z"/><path class="cls-10" d="M162.609,38.587a2.442,2.442,0,1,1-2.442-2.442A2.442,2.442,0,0,1,162.609,38.587Z"/><path class="cls-29" d="M162.05,38.587a1.883,1.883,0,1,1-1.883-1.882A1.883,1.883,0,0,1,162.05,38.587Z"/><path class="cls-10" d="M133.014,38.587a2.442,2.442,0,1,1-2.442-2.442A2.443,2.443,0,0,1,133.014,38.587Z"/><path class="cls-20" d="M132.454,38.587a1.883,1.883,0,1,1-1.882-1.882A1.883,1.883,0,0,1,132.454,38.587Z"/><path class="cls-10" d="M116.563,38.587a2.442,2.442,0,1,1-2.442-2.442A2.443,2.443,0,0,1,116.563,38.587Z"/><path class="cls-19" d="M116,38.587a1.882,1.882,0,1,1-1.882-1.882A1.882,1.882,0,0,1,116,38.587Z"/><rect class="cls-30" x="111.813" y="43.804" width="4.347" height="10.203"/><rect class="cls-31" x="128.283" y="43.702" width="4.347" height="10.114"/><rect class="cls-32" x="143.454" y="43.525" width="4.347" height="10.469"/><rect class="cls-22" x="157.738" y="43.259" width="4.348" height="10.558"/><rect class="cls-19" x="112.224" y="49.866" width="3.492" height="3.596"/><rect class="cls-20" x="128.741" y="45.135" width="3.389" height="8.047"/><rect class="cls-21" x="143.89" y="46.892" width="3.411" height="6.384"/><rect class="cls-33" x="158.249" y="51.774" width="3.425" height="1.737"/><path class="cls-34" d="M166.022,109.414a6.285,6.285,0,0,1-11.654,0c-.765-2.449,1.8-5.4,5.827-5.4S166.787,106.963,166.022,109.414Z"/><path class="cls-34" d="M163.991,159.185c-.452,1.49-2.828,2.1-5.363,2.125-2.535-.02-4.931-1.313-5.382-2.8-.461-1.465,1.925-2.8,5.382-2.8S164.452,157.72,163.991,159.185Z"/><polygon class="cls-12" points="161.023 154.48 152.014 154.819 151.304 153.71 160.198 153.57 161.023 154.48"/><polygon class="cls-12" points="156.093 146.119 147.036 146.119 146.514 145.512 155.408 145.458 156.093 146.119"/><polygon class="cls-3" points="142.374 158.964 132.871 158.964 133.045 158.13 141.932 158.13 142.374 158.964"/><polygon class="cls-3" points="141.888 157.679 131.656 157.679 131.83 156.846 141.446 156.846 141.888 157.679"/><polygon class="cls-3" points="141.144 154.869 115.027 154.944 115.687 153.96 140.703 154.035 141.144 154.869"/><polygon class="cls-3" points="140.556 153.57 115.791 153.411 116.208 152.748 140.115 152.736 140.556 153.57"/><polygon class="cls-3" points="140.18 152.346 116.208 152.346 116.84 151.512 139.739 151.512 140.18 152.346"/><polygon class="cls-3" points="139.674 150.974 116.84 150.974 117.43 150.14 139.233 150.14 139.674 150.974"/><polygon class="cls-3" points="139.051 149.457 117.43 149.457 117.961 148.623 138.61 148.623 139.051 149.457"/><polygon class="cls-3" points="143.554 181.232 134.052 181.232 134.225 180.3 143.113 180.3 143.554 181.232"/><polygon class="cls-3" points="143.068 179.795 132.837 179.795 133.01 178.863 142.627 178.863 143.068 179.795"/><polygon class="cls-3" points="142.324 176.651 116.208 176.735 116.867 175.635 141.883 175.719 142.324 176.651"/><polygon class="cls-3" points="141.736 175.198 116.972 175.02 117.388 174.279 141.295 174.266 141.736 175.198"/><polygon class="cls-3" points="141.36 173.829 117.388 173.829 118.021 172.897 140.919 172.897 141.36 173.829"/><polygon class="cls-3" points="140.854 172.294 118.021 172.294 118.611 171.362 140.413 171.362 140.854 172.294"/><polygon class="cls-3" points="140.231 170.597 118.611 170.597 119.142 169.666 139.79 169.666 140.231 170.597"/><polygon class="cls-12" points="156.756 147.021 147.741 147.021 147.219 146.414 156.114 146.361 156.756 147.021"/><polygon class="cls-12" points="157.485 147.936 151.603 147.911 151.081 147.304 156.839 147.278 157.485 147.936"/><polygon class="cls-12" points="160.155 152.932 150.841 152.932 150.345 152.069 159.24 151.929 160.155 152.932"/><polygon class="cls-19" points="158.655 167.932 176.693 184.795 154.304 184.795 144.139 168.309 158.655 167.932"/><path class="cls-34" d="M167.343,180.968c-.464,1.313-2.9,1.854-5.506,1.873-2.6-.018-5.062-1.157-5.525-2.47-.473-1.292,1.976-2.471,5.525-2.47S167.816,179.677,167.343,180.968Z"/><polygon class="cls-12" points="164.296 176.822 155.047 177.12 154.318 176.143 163.449 176.019 164.296 176.822"/><polygon class="cls-12" points="159.235 169.452 149.937 169.452 149.401 168.917 158.532 168.87 159.235 169.452"/><polygon class="cls-12" points="159.915 170.248 150.661 170.248 150.125 169.713 159.256 169.666 159.915 170.248"/><polygon class="cls-12" points="160.664 171.054 154.626 171.032 154.09 170.497 160 170.474 160.664 171.054"/><polygon class="cls-12" points="163.405 175.457 153.843 175.457 153.334 174.697 162.465 174.573 163.405 175.457"/></g></svg>