<svg xmlns="http://www.w3.org/2000/svg" width="80" height="80" viewBox="0 0 80 80">
    <defs>
        <style>
            .cls-1{fill:#fff}
        </style>
    </defs>
    <g id="Asset_Management" transform="translate(-410 -3679)">
        <g id="Group_10957" transform="translate(-135 -91)">
            <g id="Group_10740" transform="translate(552 3777)">
                <g id="Group_171">
                    <g id="Group_170">
                        <path id="Path_84" d="M61.112 0H4.956A4.972 4.972 0 0 0 0 4.988v39.9a4.972 4.972 0 0 0 4.955 4.988h21.472v-3.32H4.956A1.657 1.657 0 0 1 3.3 44.893V4.988a1.657 1.657 0 0 1 1.656-1.663h56.156a1.657 1.657 0 0 1 1.652 1.663v29.929h3.3V4.988A4.972 4.972 0 0 0 61.112 0z" class="cls-1" transform="translate(-.001)"/>
                    </g>
                </g>
                <g id="Group_173" transform="translate(19.812 48.217)">
                    <g id="Group_172">
                        <path id="Rectangle_117" d="M0 0H3.327V9.981H0z" class="cls-1"/>
                    </g>
                </g>
                <g id="Group_175" transform="translate(6.655 34.919)">
                    <g id="Group_174">
                        <path id="Path_85" d="M47.659 228.991a1.664 1.664 0 0 1-1.664-1.664V224h-3.327v3.327a4.991 4.991 0 0 0 4.991 4.991h3.327v-3.327z" class="cls-1" transform="translate(-42.668 -224)"/>
                    </g>
                </g>
                <g id="Group_177" transform="translate(6.655 28.269)">
                    <g id="Group_176">
                        <path id="Rectangle_118" d="M0 0H3.327V3.327H0z" class="cls-1"/>
                    </g>
                </g>
                <g id="Group_179" transform="translate(29.466 29.917)">
                    <g id="Group_178">
                        <path id="Path_86" d="M222.842 197.284a18.074 18.074 0 1 0 0 25.561 18.074 18.074 0 0 0 0-25.561zm-12.791 27.528A14.747 14.747 0 1 1 224.8 210.07a14.747 14.747 0 0 1-14.749 14.742z" class="cls-1" transform="translate(-191.986 -191.989)"/>
                    </g>
                </g>
                <g id="Group_187" transform="translate(16.486 56.535)">
                    <g id="Group_186">
                        <path id="Rectangle_120" d="M0 0H13.308V3.327H0z" class="cls-1"/>
                    </g>
                </g>
                <g id="Group_189" transform="translate(19.794 6.654)">
                    <g id="Group_188">
                        <path id="Path_89" d="M132.992 42.667a4.991 4.991 0 1 0 4.991 4.991 4.991 4.991 0 0 0-4.991-4.991zm0 6.654a1.664 1.664 0 1 1 1.664-1.664 1.664 1.664 0 0 1-1.664 1.664z" class="cls-1" transform="translate(-128.001 -42.667)"/>
                    </g>
                </g>
                <g id="Group_191" transform="translate(31.341 18.29)">
                    <g id="Group_190">
                        <path id="Path_90" d="M207.659 117.333a4.991 4.991 0 1 0 4.991 4.991 4.991 4.991 0 0 0-4.991-4.991zm0 6.654a1.664 1.664 0 1 1 1.664-1.664 1.664 1.664 0 0 1-1.664 1.664z" class="cls-1" transform="translate(-202.668 -117.333)"/>
                    </g>
                </g>
                <g id="Group_193" transform="translate(13.678 12.127)">
                    <g id="Group_192">
                        <path id="Rectangle_121" d="M0 0H11.763V3.327H0z" class="cls-1" transform="rotate(-45 10.04 4.159)"/>
                    </g>
                </g>
                <g id="Group_195" transform="translate(25.217 12.131)">
                    <g id="Group_194">
                        <path id="Rectangle_122" d="M0 0H3.327V11.763H0z" class="cls-1" transform="rotate(-45 2.84 1.177)"/>
                    </g>
                </g>
                <g id="Group_197" transform="translate(42.888 6.654)">
                    <g id="Group_196">
                        <path id="Path_91" d="M282.325 42.667a4.991 4.991 0 1 0 4.991 4.991 4.991 4.991 0 0 0-4.991-4.991zm0 6.654a1.664 1.664 0 1 1 1.664-1.664 1.664 1.664 0 0 1-1.664 1.664z" class="cls-1" transform="translate(-277.334 -42.667)"/>
                    </g>
                </g>
                <g id="Group_199" transform="translate(36.768 12.133)">
                    <g id="Group_198">
                        <path id="Rectangle_123" d="M0 0H11.763V3.327H0z" class="cls-1" transform="rotate(-45 10.04 4.159)"/>
                    </g>
                </g>
                <path id="Path_1578" d="M212.066 170.874a4.188 4.188 0 0 1-3.235 3.939v1.423h-2.556v-1.423a4.188 4.188 0 0 1-3.235-3.939h2.56a2.009 2.009 0 1 0 1.956-1.553 4.33 4.33 0 0 1-4.513-4.109 4.188 4.188 0 0 1 3.235-3.939v-1.423h2.556v1.423a4.188 4.188 0 0 1 3.235 3.939h-2.556a2.009 2.009 0 1 0-1.957 1.553 4.33 4.33 0 0 1 4.51 4.109z" class="cls-1" transform="translate(-159.906 -120.039)"/>
            </g>
        </g>
        <path id="Path_252" fill="none" d="M0 0h80v80H0zm0 0h80v80H0z" transform="translate(410 3679)"/>
    </g>
</svg>
