<svg xmlns="http://www.w3.org/2000/svg" width="80" height="80" viewBox="0 0 80 80">
    <defs>
        <style>
            .cls-2{fill:#fff}
        </style>
    </defs>
    <g id="Booking_Management" transform="translate(-746 -3758)">
        <path id="Path_252" fill="none" d="M0 0h80v80H0zm0 0h80v80H0z" transform="translate(746 3758)"/>
        <g id="calendar_9_" transform="translate(753 3765)">
            <g id="Group_10930">
                <g id="Group_10929">
                    <path id="Path_12312" d="M114.382 93.546a1.291 1.291 0 0 0-1.29 1.289v2.573h-2.869a4.228 4.228 0 0 0-4.223 4.224v27.951a4.228 4.228 0 0 0 4.223 4.224h30.225a4.228 4.228 0 0 0 4.223-4.224v-27.951a4.228 4.228 0 0 0-4.223-4.223h-2.864v-2.574a1.289 1.289 0 1 0-2.578 0v2.573h-4.726v-2.592a1.289 1.289 0 0 0-2.578 0v2.593h-4.727v-2.593a1.289 1.289 0 0 0-2.578 0v2.593h-4.727v-2.574a1.29 1.29 0 0 0-1.288-1.289zm27.711 36.037a1.647 1.647 0 0 1-1.645 1.645h-30.226a1.647 1.647 0 0 1-1.645-1.645V109.26h33.516zm-21.7-29.6v2.544a1.289 1.289 0 0 0 2.578 0v-2.54h4.729v2.544a1.289 1.289 0 1 0 2.578 0v-2.544h4.726v2.564a1.289 1.289 0 0 0 2.578 0v-2.564h2.864a1.647 1.647 0 0 1 1.645 1.645v5.049h-33.514v-5.049a1.647 1.647 0 0 1 1.645-1.645h2.869v2.564a1.289 1.289 0 1 0 2.578 0v-2.564z" class="cls-2" transform="translate(-92.335 -81.471)"/>
                    <path id="Path_12313" d="M157.288 250.577h23.2a1.289 1.289 0 0 0 0-2.578h-23.2a1.289 1.289 0 0 0 0 2.578z" class="cls-2" transform="translate(-135.89 -216.03)"/>
                    <path id="Path_12314" d="M157.288 292.578h23.2a1.289 1.289 0 0 0 0-2.578h-23.2a1.289 1.289 0 1 0 0 2.578z" class="cls-2" transform="translate(-135.89 -252.617)"/>
                    <path id="Path_12315" d="M157.288 334.578h23.2a1.289 1.289 0 1 0 0-2.578h-23.2a1.289 1.289 0 1 0 0 2.578z" class="cls-2" transform="translate(-135.89 -289.203)"/>
                    <path id="Path_12316" d="M49.925 7.713l-2.6.571a1.289 1.289 0 0 0 .275 2.548c.092 0 5.577-1.2 5.585-1.2a1.332 1.332 0 0 0 .895-1.9l-1.238-5.139a1.289 1.289 0 1 0-2.506.605l.489 2.024A33 33 0 0 0 7.346 53.76a1.315 1.315 0 0 0 1.813.189 1.289 1.289 0 0 0 .189-1.813A30.427 30.427 0 0 1 49.925 7.713z" class="cls-2"/>
                    <path id="Path_12317" d="M137.932 91.727a1.289 1.289 0 1 0-2 1.624 30.426 30.426 0 0 1-40.6 44.41l2.547-.56a1.289 1.289 0 1 0-.554-2.518l-5.307 1.167a1.306 1.306 0 0 0-.976 1.561l1.323 5.48a1.29 1.29 0 0 0 2.506-.6l-.5-2.072a32.923 32.923 0 0 0 17.9 5.273q.813 0 1.631-.04a33 33 0 0 0 24.029-53.72z" class="cls-2" transform="translate(-79.278 -79.487)"/>
                </g>
            </g>
        </g>
    </g>
</svg>
