<svg xmlns="http://www.w3.org/2000/svg" width="109" height="108" viewBox="0 0 109 108">
    <g>
        <g fill="none" stroke="#3c81a9" stroke-width="2px" transform="translate(-1111 -2505) translate(1111 2505)">
            <ellipse cx="54.5" cy="54" stroke="none" rx="54.5" ry="54"/>
            <ellipse cx="54.5" cy="54" rx="53.5" ry="53"/>
        </g>
        <g>
            <path fill="#3c81a9" d="M25.085 40.735a.735.735 0 0 0-.735.735v5.23a.735.735 0 1 0 1.47 0v-5.23a.735.735 0 0 0-.735-.735zm0-2.94a.735.735 0 1 0 .735.735.735.735 0 0 0-.735-.73zm0-2.739a7.556 7.556 0 1 0 7.556 7.556 7.565 7.565 0 0 0-7.556-7.555zm0 13.643a6.086 6.086 0 1 1 6.086-6.086 6.093 6.093 0 0 1-6.086 6.087zM48.454 25.77H34.991v-2.024h4.648a2.207 2.207 0 0 0 2.2-2.2V12.46a2.207 2.207 0 0 0-2.2-2.2H25.934a2.207 2.207 0 0 0-2.2 2.2v3.168l-3.141-.957c-.812-.213-1-1.1-.918-1.831a5.243 5.243 0 0 0 1.776-3.94V3.385A3.389 3.389 0 0 0 18.066 0h-3.741a3.389 3.389 0 0 0-3.385 3.385V8.9a5.245 5.245 0 0 0 1.867 4.013 1.514 1.514 0 0 1-.918 1.771l-4.154 1.269a4.772 4.772 0 0 0-3.4 4.59v3.023a.735.735 0 1 0 1.47 0v-3.023a3.31 3.31 0 0 1 2.358-3.184l1.591-.485 3.043 2.6a1.427 1.427 0 0 0 1.988-.138l.675-.762v7.196h-4.75V24.5a.735.735 0 0 0-1.47 0v1.27H1.715A1.717 1.717 0 0 0 0 27.485v2.45a1.717 1.717 0 0 0 1.715 1.715h1.96v17.784a.735.735 0 0 0 1.47 0V31.65h43.31a1.717 1.717 0 0 0 1.715-1.715v-2.45a1.717 1.717 0 0 0-1.715-1.715zM25.2 16.62v-4.16a.736.736 0 0 1 .735-.735h13.704a.736.736 0 0 1 .735.735v9.081a.736.736 0 0 1-.735.735h-4.648v-1.65a2.2 2.2 0 1 0-4.409 0v1.65h-4.648a.736.736 0 0 1-.735-.735zm8.322 6.4v2.75h-1.47v-5.144a.735.735 0 0 1 1.47 0v2.381l-.001.008zm-2.94.731v2.019H28.2v-2.024zM23.73 17.17v4.377a2.207 2.207 0 0 0 2.2 2.2h.792v2.023H23.15V24.5a.735.735 0 1 0-1.47 0v1.27h-4.75v-7.227l.739.815a1.414 1.414 0 0 0 1.974.127l3.081-2.626zm-3.57-1.093l.9.273-2.33 1.985-1.379-1.522 1.974-1.16a2.761 2.761 0 0 0 .839.423zM12.409 3.385a1.918 1.918 0 0 1 1.916-1.915h3.741a1.918 1.918 0 0 1 1.916 1.915v2a5.51 5.51 0 0 0-4.706-.585l-2.866.944V3.385zm0 5.516V7.289l3.326-1.1a4.054 4.054 0 0 1 3.555.49l.691.465V8.9a3.786 3.786 0 1 1-7.572 0zm1.308 9.427l-2.3-1.964.9-.273a2.765 2.765 0 0 0 .838-.422l1.9 1.143zm.347-3.828a2.771 2.771 0 0 0 .189-.717 5.244 5.244 0 0 0 3.967-.033 2.766 2.766 0 0 0 .19.733l-2.211 1.3zM48.7 29.935a.245.245 0 0 1-.245.245H1.715a.245.245 0 0 1-.245-.245v-2.45a.245.245 0 0 1 .245-.245h46.739a.245.245 0 0 1 .245.245zm-2.94 3.553a.735.735 0 0 0-.735.735v15.211a.735.735 0 1 0 1.47 0V34.223a.735.735 0 0 0-.735-.735z" transform="translate(-1111 -2505) translate(828 2505) translate(312 29)"/>
        </g>
    </g>
</svg>
