<?xml version="1.0" encoding="utf-8"?>
<!-- Generator: Adobe Illustrator 24.1.3, SVG Export Plug-In . SVG Version: 6.00 Build 0)  -->
<svg version="1.1" id="Layer_1" xmlns="http://www.w3.org/2000/svg" xmlns:xlink="http://www.w3.org/1999/xlink" x="0px" y="0px"
	 viewBox="0 0 203.9 38" style="enable-background:new 0 0 203.9 38;" xml:space="preserve">
<style type="text/css">
	.st0{clip-path:url(#SVGID_2_);}
	.st1{fill:#212934;}
	.st2{fill:#E11E19;}
</style>
<g>
	<defs>
		<rect id="SVGID_1_" x="-4.5" y="0.5" width="229" height="38"/>
	</defs>
	<clipPath id="SVGID_2_">
		<use xlink:href="#SVGID_1_"  style="overflow:visible;"/>
	</clipPath>
	<g class="st0">
		<g>
			<path class="st1" d="M51.2,28.9c-1.5,0.8-3.3,1.2-5.5,1.2c-2.9,0-5.1-0.9-6.9-2.8c-1.7-1.8-2.6-4.3-2.6-7.2c0-3.2,1-5.8,2.9-7.8
				s4.4-3,7.4-3c1.9,0,3.5,0.3,4.7,0.8v2.5c-1.4-0.8-3-1.2-4.8-1.2c-2.3,0-4.2,0.8-5.6,2.3s-2.1,3.6-2.1,6.2c0,2.4,0.7,4.4,2,5.8
				c1.3,1.5,3.1,2.2,5.3,2.2c2,0,3.8-0.4,5.2-1.3V28.9z"/>
			<path class="st1" d="M58.4,29.7H56V9.6h2.4V29.7z"/>
			<path class="st1" d="M64.4,29.7V9.6h5.7c1.7,0,3.1,0.4,4.1,1.3c1,0.8,1.5,2,1.5,3.3c0,1.1-0.3,2.1-0.9,3
				c-0.6,0.8-1.5,1.4-2.5,1.8V19c1.4,0.2,2.4,0.7,3.2,1.5s1.2,2,1.2,3.4c0,1.7-0.6,3.1-1.8,4.2c-1.2,1.1-2.8,1.6-4.7,1.6H64.4z
				 M66.7,11.7v6.5h2.4c1.3,0,2.3-0.3,3-0.9s1.1-1.5,1.1-2.6c0-2-1.3-2.9-3.8-2.9H66.7z M66.7,20.3v7.2h3.2c1.4,0,2.5-0.3,3.2-1
				s1.1-1.5,1.1-2.7c0-2.4-1.6-3.6-4.8-3.6H66.7z"/>
		</g>
		<g>
			<path class="st1" d="M95.3,10.7c-0.4-0.3-1-0.4-1.5-0.4c-1.6,0-2.4,1-2.4,3v2.2h3.4v2h-3.4v12.4h-2.3V17.5h-2.4v-2h2.4v-2.3
				c0-1.5,0.4-2.7,1.3-3.6c0.9-0.9,2-1.3,3.2-1.3c0.7,0,1.3,0.1,1.7,0.3V10.7z"/>
			<path class="st1" d="M108.1,29.9h-2.3v-2.2h-0.1c-1,1.7-2.5,2.6-4.4,2.6c-1.4,0-2.5-0.4-3.4-1.1c-0.8-0.8-1.2-1.8-1.2-3
				c0-2.7,1.6-4.2,4.7-4.7l4.3-0.6c0-2.4-1-3.7-3-3.7c-1.7,0-3.3,0.6-4.7,1.8v-2.4c1.4-0.9,3-1.3,4.9-1.3c3.4,0,5.1,1.8,5.1,5.3
				V29.9z M105.8,22.6l-3.5,0.5c-1.1,0.1-1.9,0.4-2.4,0.8s-0.8,1-0.8,2c0,0.7,0.2,1.3,0.7,1.7s1.2,0.7,2,0.7c1.1,0,2.1-0.4,2.8-1.2
				c0.7-0.8,1.1-1.8,1.1-3V22.6z"/>
			<path class="st1" d="M114.4,11.9c-0.4,0-0.8-0.1-1-0.4c-0.3-0.3-0.4-0.6-0.4-1.1c0-0.4,0.1-0.8,0.4-1.1c0.3-0.3,0.6-0.4,1-0.4
				c0.4,0,0.8,0.1,1.1,0.4c0.3,0.3,0.4,0.6,0.4,1.1c0,0.4-0.1,0.8-0.4,1.1S114.8,11.9,114.4,11.9z M115.5,29.9h-2.3V15.5h2.3V29.9z"
				/>
			<path class="st1" d="M128.3,17.9c-0.4-0.3-1-0.5-1.7-0.5c-1,0-1.8,0.5-2.5,1.4s-1,2.2-1,3.8v7.3h-2.3V15.5h2.3v3h0.1
				c0.3-1,0.8-1.8,1.5-2.4s1.4-0.8,2.3-0.8c0.6,0,1.1,0.1,1.4,0.2V17.9z"/>
			<path class="st1" d="M131.8,29.9V9.8h5.7c1.7,0,3.1,0.4,4.1,1.3c1,0.8,1.5,2,1.5,3.3c0,1.1-0.3,2.1-0.9,3
				c-0.6,0.8-1.5,1.4-2.5,1.8v0.1c1.4,0.2,2.4,0.7,3.2,1.5c0.8,0.9,1.2,2,1.2,3.4c0,1.7-0.6,3.1-1.8,4.2c-1.2,1.1-2.8,1.6-4.7,1.6
				H131.8z M134.2,11.9v6.5h2.4c1.3,0,2.3-0.3,3-0.9s1.1-1.5,1.1-2.6c0-2-1.3-2.9-3.9-2.9H134.2z M134.2,20.5v7.2h3.2
				c1.4,0,2.5-0.3,3.2-1s1.1-1.5,1.1-2.7c0-2.4-1.6-3.6-4.8-3.6H134.2z"/>
			<path class="st1" d="M156.2,17.9c-0.4-0.3-1-0.5-1.7-0.5c-1,0-1.8,0.5-2.5,1.4c-0.7,0.9-1,2.2-1,3.8v7.3h-2.3V15.5h2.3v3h0.1
				c0.3-1,0.8-1.8,1.5-2.4s1.4-0.8,2.3-0.8c0.6,0,1.1,0.1,1.4,0.2V17.9z"/>
			<path class="st1" d="M160.5,11.9c-0.4,0-0.8-0.1-1-0.4c-0.3-0.3-0.4-0.6-0.4-1.1c0-0.4,0.1-0.8,0.4-1.1c0.3-0.3,0.6-0.4,1-0.4
				c0.4,0,0.8,0.1,1.1,0.4c0.3,0.3,0.4,0.6,0.4,1.1c0,0.4-0.1,0.8-0.4,1.1S161,11.9,160.5,11.9z M161.7,29.9h-2.3V15.5h2.3V29.9z"/>
			<path class="st1" d="M178.6,23.3h-10.1c0,1.6,0.5,2.8,1.3,3.7s2,1.3,3.4,1.3c1.6,0,3.1-0.5,4.5-1.6v2.2c-1.3,0.9-2.9,1.4-5,1.4
				c-2,0-3.6-0.7-4.8-2c-1.2-1.3-1.7-3.1-1.7-5.5c0-2.2,0.6-4,1.9-5.5s2.8-2.1,4.7-2.1s3.3,0.6,4.4,1.8s1.5,2.9,1.5,5.1V23.3z
				 M176.2,21.3c0-1.3-0.3-2.4-1-3.1s-1.5-1.1-2.6-1.1c-1.1,0-2,0.4-2.8,1.2c-0.8,0.8-1.2,1.8-1.4,3H176.2z"/>
			<path class="st1" d="M189.8,10.7c-0.4-0.3-1-0.4-1.5-0.4c-1.6,0-2.4,1-2.4,3v2.2h3.4v2h-3.4v12.4h-2.3V17.5h-2.5v-2h2.5v-2.3
				c0-1.5,0.4-2.7,1.3-3.6c0.9-0.9,2-1.3,3.2-1.3c0.7,0,1.3,0.1,1.7,0.3V10.7z"/>
			<path class="st1" d="M199.1,29.7c-0.5,0.3-1.3,0.4-2.1,0.4c-2.5,0-3.8-1.4-3.8-4.2v-8.5h-2.5v-2h2.5V12l2.3-0.7v4.2h3.6v2h-3.6
				v8.1c0,1,0.2,1.6,0.5,2.1c0.3,0.4,0.9,0.6,1.6,0.6c0.6,0,1.1-0.2,1.5-0.5V29.7z"/>
		</g>
		<g>
			<path class="st2" d="M21.2,16.9c0,0-2.7,2.7-5,5c-0.9,0.9-1.6,1.4-2,1.4c0,0,0,0,0,0c-0.4,0-1-0.4-2-1.3L10,19.6l-1.2,1.1L9.9,22
				L5.8,26L7,27.2l4.1-4c1.2,1.2,2.1,1.8,3.1,1.8c1,0,2-0.6,3.2-1.9c0,0,0,0,0.1-0.1l4.2,4.2l1.2-1.2l-4.2-4.2
				c1.9-1.9,3.7-3.7,3.8-3.8L21.2,16.9z"/>
			<path class="st2" d="M26.3,27.3V13c0-0.5-0.4-1-1-1h-6.9v1.7h6.1v13.6l0,0c0,0.7-0.1,1.1-0.4,1.4c-0.3,0.3-0.8,0.4-1.6,0.4H3.9
				v-3.9L2.3,24v5.8c0,0.5,0.5,0.9,1,0.9h19.4c1.3,0,2.1-0.2,2.7-0.9C26.1,29.3,26.4,28.4,26.3,27.3z"/>
			<path class="st2" d="M7.5,19.9l6.8-7.2v4l1.8-1.6V8.9c0-0.3-0.3-0.6-0.6-0.6l-6.6,0L7.5,9.9l4.1,0l-9.3,9.3
				C5,22,6.6,20.8,7.5,19.9z"/>
		</g>
	</g>
</g>
</svg>
