<svg xmlns="http://www.w3.org/2000/svg" width="80" height="80" viewBox="0 0 80 80">
    <defs>
        <style>
            .cls-1{fill:#fff}
        </style>
    </defs>
    <g id="Complete_CRM" transform="translate(-976 -3691)">
        <g id="Group_10961" transform="translate(-12634 2755)">
            <g id="Group_151" transform="translate(13620 947)">
                <g id="Group_150">
                    <path id="Path_74" d="M55.432 8.533H3.96A3.965 3.965 0 0 0 0 12.493v32.665a.99.99 0 0 0 .99.99H58.4a.99.99 0 0 0 .99-.99V12.493a3.965 3.965 0 0 0-3.958-3.96zm1.981 35.635H1.98V12.493a1.983 1.983 0 0 1 1.98-1.98h51.472a1.983 1.983 0 0 1 1.981 1.981z" class="cls-1" transform="translate(0 -8.533)"/>
                </g>
            </g>
            <g id="Group_153" transform="translate(13620 982.635)">
                <g id="Group_152">
                    <path id="Path_75" d="M58.4 315.733H.99a.99.99 0 0 0-.99.99v4.948a3.965 3.965 0 0 0 3.96 3.96h51.472a3.965 3.965 0 0 0 3.96-3.96v-4.948a.99.99 0 0 0-.992-.99zm-.99 5.938a1.983 1.983 0 0 1-1.981 1.981H3.96a1.983 1.983 0 0 1-1.981-1.981v-3.959h55.434v3.959z" class="cls-1" transform="translate(0 -315.733)"/>
                </g>
            </g>
            <g id="Group_155" transform="translate(13645.736 986.595)">
                <g id="Group_154">
                    <path id="Path_76" d="M228.8 349.867h-5.939a.99.99 0 1 0 0 1.98h5.939a.99.99 0 1 0 0-1.98z" class="cls-1" transform="translate(-221.867 -349.867)"/>
                </g>
            </g>
            <g id="Group_157" transform="translate(13623.959 950.96)">
                <g id="Group_156">
                    <path id="Path_77" d="M84.617 42.667H35.124a.99.99 0 0 0-.99.99v31.676a.99.99 0 0 0 .99.99h49.493a.99.99 0 0 0 .99-.99V43.657a.99.99 0 0 0-.99-.99zm-.99 31.676H36.114v-29.7h47.513z" class="cls-1" transform="translate(-34.134 -42.667)"/>
                </g>
            </g>
            <g id="Group_159" transform="translate(13633.858 998.473)">
                <g id="Group_158">
                    <path id="Path_78" d="M148.173 452.267h-25.736a2.97 2.97 0 1 0 0 5.939h25.737a2.97 2.97 0 1 0 0-5.939zm0 3.959h-25.736a.99.99 0 0 1 0-1.98h25.737a.99.99 0 1 1 0 1.98z" class="cls-1" transform="translate(-119.467 -452.267)"/>
                </g>
            </g>
            <g id="Group_161" transform="translate(13637.818 990.554)">
                <g id="Group_160">
                    <path id="Path_79" d="M176.368 391.92c-3.284 0-4.949-2.331-4.949-6.929a.99.99 0 0 0-.99-.99h-9.9a.99.99 0 0 0-.99.99c0 4.6-1.665 6.929-4.949 6.929a.99.99 0 0 0 0 1.98h21.777a.99.99 0 0 0 0-1.98zm-16.956 0a9.483 9.483 0 0 0 2.081-5.939h7.973a9.472 9.472 0 0 0 2.081 5.939z" class="cls-1" transform="translate(-153.601 -384.001)"/>
                </g>
            </g>
            <g id="Group_163" transform="translate(13654.652 967.787)">
                <g id="Group_162">
                    <path id="Path_80" d="M311.371 196.11l-2.389-2.389 1.329-1.329a.99.99 0 0 0-.415-1.648l-9.9-2.97a.99.99 0 0 0-1.232 1.232l2.97 9.9a.989.989 0 0 0 1.648.416l1.4-1.4 2.389 2.391a.989.989 0 0 0 1.4 0l2.8-2.8a.989.989 0 0 0 0-1.403zm-3.5 2.1l-2.176-2.177a1.294 1.294 0 0 0-1.827 0l-.715.715-1.965-6.55 6.55 1.965-.766.766a1.122 1.122 0 0 0 0 1.585l2.3 2.3z" class="cls-1" transform="translate(-298.723 -187.731)"/>
                </g>
            </g>
            <g id="Group_165" transform="translate(13632.868 954.919)">
                <g id="Group_164">
                    <path id="Path_81" d="M139.64 76.8h-27.716a.99.99 0 0 0-.99.99v4.949a.99.99 0 0 0 .99.99h27.716a.99.99 0 0 0 .99-.99V77.79a.99.99 0 0 0-.99-.99zm-.99 4.949h-25.736V78.78h25.736z" class="cls-1" transform="translate(-110.934 -76.8)"/>
                </g>
            </g>
            <g id="Group_167" transform="translate(13636.828 965.808)">
                <g id="Group_166">
                    <path id="Path_82" d="M153.976 170.667h-7.919a.99.99 0 0 0-.99.99v3.959a.99.99 0 0 0 .99.99h7.919a.99.99 0 0 0 .99-.99v-3.959a.99.99 0 0 0-.99-.99zm-.99 3.959h-5.939v-1.98h5.939z" class="cls-1" transform="translate(-145.067 -170.667)"/>
                </g>
            </g>
            <g id="Group_169" transform="translate(13632.868 954.919)">
                <g id="Group_168">
                    <path id="Path_83" d="M139.64 76.8h-27.716a.99.99 0 0 0-.99.99V96.6a.99.99 0 0 0 .99.99h23.565a.991.991 0 0 0 .948-1.275l-1.253-4.178 4.172 1.252a.99.99 0 0 0 1.274-.948V77.79a.99.99 0 0 0-.99-.99zm-.99 14.308l-4.659-1.4a.99.99 0 0 0-1.232 1.233l1.4 4.664h-21.245V78.78h25.736z" class="cls-1" transform="translate(-110.934 -76.8)"/>
                </g>
            </g>
            <g id="Group_10887" transform="translate(13620 947)">
                <g id="Group_150-2">
                    <path id="Path_74-2" d="M55.432 8.533H3.96A3.965 3.965 0 0 0 0 12.493v32.665a.99.99 0 0 0 .99.99H58.4a.99.99 0 0 0 .99-.99V12.493a3.965 3.965 0 0 0-3.958-3.96zm1.981 35.635H1.98V12.493a1.983 1.983 0 0 1 1.98-1.98h51.472a1.983 1.983 0 0 1 1.981 1.981z" class="cls-1" transform="translate(0 -8.533)"/>
                </g>
            </g>
            <g id="Group_10888" transform="translate(13620 982.635)">
                <g id="Group_152-2">
                    <path id="Path_75-2" d="M58.4 315.733H.99a.99.99 0 0 0-.99.99v4.948a3.965 3.965 0 0 0 3.96 3.96h51.472a3.965 3.965 0 0 0 3.96-3.96v-4.948a.99.99 0 0 0-.992-.99zm-.99 5.938a1.983 1.983 0 0 1-1.981 1.981H3.96a1.983 1.983 0 0 1-1.981-1.981v-3.959h55.434v3.959z" class="cls-1" transform="translate(0 -315.733)"/>
                </g>
            </g>
            <g id="Group_10889" transform="translate(13645.736 986.595)">
                <g id="Group_154-2">
                    <path id="Path_76-2" d="M228.8 349.867h-5.939a.99.99 0 1 0 0 1.98h5.939a.99.99 0 1 0 0-1.98z" class="cls-1" transform="translate(-221.867 -349.867)"/>
                </g>
            </g>
            <g id="Group_10890" transform="translate(13623.959 950.96)">
                <g id="Group_156-2">
                    <path id="Path_77-2" d="M84.617 42.667H35.124a.99.99 0 0 0-.99.99v31.676a.99.99 0 0 0 .99.99h49.493a.99.99 0 0 0 .99-.99V43.657a.99.99 0 0 0-.99-.99zm-.99 31.676H36.114v-29.7h47.513z" class="cls-1" transform="translate(-34.134 -42.667)"/>
                </g>
            </g>
            <g id="Group_10891" transform="translate(13633.858 998.473)">
                <g id="Group_158-2">
                    <path id="Path_78-2" d="M148.173 452.267h-25.736a2.97 2.97 0 1 0 0 5.939h25.737a2.97 2.97 0 1 0 0-5.939zm0 3.959h-25.736a.99.99 0 0 1 0-1.98h25.737a.99.99 0 1 1 0 1.98z" class="cls-1" transform="translate(-119.467 -452.267)"/>
                </g>
            </g>
            <g id="Group_10892" transform="translate(13637.818 990.554)">
                <g id="Group_160-2">
                    <path id="Path_79-2" d="M176.368 391.92c-3.284 0-4.949-2.331-4.949-6.929a.99.99 0 0 0-.99-.99h-9.9a.99.99 0 0 0-.99.99c0 4.6-1.665 6.929-4.949 6.929a.99.99 0 0 0 0 1.98h21.777a.99.99 0 0 0 0-1.98zm-16.956 0a9.483 9.483 0 0 0 2.081-5.939h7.973a9.472 9.472 0 0 0 2.081 5.939z" class="cls-1" transform="translate(-153.601 -384.001)"/>
                </g>
            </g>
            <g id="Group_10893" transform="translate(13654.652 967.787)">
                <g id="Group_162-2">
                    <path id="Path_80-2" d="M311.371 196.11l-2.389-2.389 1.329-1.329a.99.99 0 0 0-.415-1.648l-9.9-2.97a.99.99 0 0 0-1.232 1.232l2.97 9.9a.989.989 0 0 0 1.648.416l1.4-1.4 2.389 2.391a.989.989 0 0 0 1.4 0l2.8-2.8a.989.989 0 0 0 0-1.403zm-3.5 2.1l-2.176-2.177a1.294 1.294 0 0 0-1.827 0l-.715.715-1.965-6.55 6.55 1.965-.766.766a1.122 1.122 0 0 0 0 1.585l2.3 2.3z" class="cls-1" transform="translate(-298.723 -187.731)"/>
                </g>
            </g>
            <g id="Group_10894" transform="translate(13632.868 954.919)">
                <g id="Group_164-2">
                    <path id="Path_81-2" d="M139.64 76.8h-27.716a.99.99 0 0 0-.99.99v4.949a.99.99 0 0 0 .99.99h27.716a.99.99 0 0 0 .99-.99V77.79a.99.99 0 0 0-.99-.99zm-.99 4.949h-25.736V78.78h25.736z" class="cls-1" transform="translate(-110.934 -76.8)"/>
                </g>
            </g>
            <g id="Group_10895" transform="translate(13636.828 965.808)">
                <g id="Group_166-2">
                    <path id="Path_82-2" d="M153.976 170.667h-7.919a.99.99 0 0 0-.99.99v3.959a.99.99 0 0 0 .99.99h7.919a.99.99 0 0 0 .99-.99v-3.959a.99.99 0 0 0-.99-.99zm-.99 3.959h-5.939v-1.98h5.939z" class="cls-1" transform="translate(-145.067 -170.667)"/>
                </g>
            </g>
            <g id="Group_10896" transform="translate(13632.868 954.919)">
                <g id="Group_168-2">
                    <path id="Path_83-2" d="M139.64 76.8h-27.716a.99.99 0 0 0-.99.99V96.6a.99.99 0 0 0 .99.99h23.565a.991.991 0 0 0 .948-1.275l-1.253-4.178 4.172 1.252a.99.99 0 0 0 1.274-.948V77.79a.99.99 0 0 0-.99-.99zm-.99 14.308l-4.659-1.4a.99.99 0 0 0-1.232 1.233l1.4 4.664h-21.245V78.78h25.736z" class="cls-1" transform="translate(-110.934 -76.8)"/>
                </g>
            </g>
        </g>
        <path id="Path_252" fill="none" d="M0 0h80v80H0zm0 0h80v80H0z" transform="translate(976 3691)"/>
    </g>
</svg>
