<svg xmlns="http://www.w3.org/2000/svg" viewBox="0 0 345 80"><defs><style>.cls-1{fill:#ee402e;fill-rule:evenodd;}.cls-2{fill:none;}</style></defs><title>eon_logo_345x80</title><g id="Layer_2" data-name="Layer 2"><g id="textos_y_elementos" data-name="textos y elementos"><path class="cls-1" d="M251.52,31.45c.06,5.57-6.51,24.4-7.65,27.19-.63,1.89-2,2.15-3.73,2.15-3.22,0-5.56-.76-6.76-1.71a1,1,0,0,1-.32-1.2c1.2-3.54,5.69-16.38,5.69-19.09,0-1.58-.44-2.66-2-2.66-9.17,0-26,19.53-29.14,23-1,1.2-2.47,1.39-4.24,1.39a12,12,0,0,1-4.68-1.26c-.69-.32-.75-.76-.5-1.58l.5-2.28A278.88,278.88,0,0,1,209,26.65a1.16,1.16,0,0,1,1.14-.76,14.77,14.77,0,0,1,3.41-.32,11.46,11.46,0,0,1,5,.76v2c0,.88.13,3.91,3,4,4.86-.07,13.78-8.41,21.55-8.41,6.89,0,8.47,4.3,8.41,7.52Z"/><path class="cls-1" d="M154.23,38.41a18.88,18.88,0,0,1-1.52,4.74c-1.14,3-4.3,3.41-6.51,3.47-3.29-.06-4.49-1.26-4.49-3.09,0-1.52,1.27-4,1.39-4.36,1.52-3.42,4.18-3.8,6.83-3.8,2.21,0,4.3,1,4.3,3Z"/><path class="cls-1" d="M125.91,31.2c0-2.21-.13-5.31-1.84-5.31-5.5,0-15.23,8.47-16.24,9.42-.7.76-.13.69.82.69H121.1c4.43,0,4.81-.75,4.81-4.8Zm13.27,1.14c0,10.68-6.57,12.83-13.84,12.89h-5.12c-5.06-.06-15.36-.31-15.36-.31-.83-.07-1.46-.19-1.46.31,0,3.42,3.92,8.66,9.93,8.66a11.79,11.79,0,0,0,8.4-3.6,80.06,80.06,0,0,1,8.92-.63c3.35-.06,8.41.51,8.41,2.46,0,3.73-12.2,9.68-22.44,9.68-15.43,0-29.34-8.35-29.34-18.46,0-16.94,32.62-29.65,42.17-29.65,8.6,0,9.73,13.65,9.73,18.65Z"/><path class="cls-1" d="M180.15,32c-1.2,0-2.91.19-3.67,1.26-3,4.05-4.93,14.23-4.93,17.07,0,1.9,1.39,1.77,3.16,1.77,1,0,2.72,0,3.67-1,2.59-2.71,4.8-14.85,4.8-17.06,0-1.52-.12-2.09-3-2.09Zm19.34-.51c0,4.62-4.55,14.73-6.07,17.64-6.13,11.76-14.35,11.7-23.58,11.7-4.55,0-14.66.06-14.66-8.41,0-3.8,3.35-10.75,6-17.32,1.2-2.85,6.14-12.27,22.82-12.27,7,0,15.49,1.08,15.49,8.66Z"/><rect class="cls-2" width="345" height="80"/></g></g></svg>