<svg xmlns="http://www.w3.org/2000/svg" id="facebook" width="38" height="38" viewBox="0 0 38 38">
    <defs>
        <style>
            .cls-1{fill:#3d82ab}
        </style>
    </defs>
    <path id="Path_12239" d="M912.321 638.989c-.158.026-.318.05-.477.071.159-.021.319-.046.477-.071zm0 0" class="cls-1" transform="translate(-890.257 -601.236)"/>
    <path id="Path_12240" d="M913.372 638.855l-.227.04.227-.04zm0 0" class="cls-1" transform="translate(-890.928 -601.167)"/>
    <path id="Path_12241" d="M910.372 639.245c-.185.021-.372.04-.559.055.187-.016.374-.034.559-.055zm0 0" class="cls-1" transform="translate(-889.209 -601.368)"/>
    <path id="Path_12242" d="M911.436 639.153l-.268.033.268-.033zm0 0" class="cls-1" transform="translate(-889.908 -601.321)"/>
    <path id="Path_12243" d="M914.469 638.643l-.2.042.2-.042zm0 0" class="cls-1" transform="translate(-891.508 -601.058)"/>
    <path id="Path_12244" d="M917.162 637.984l-.162.045.162-.045zm0 0" class="cls-1" transform="translate(-892.917 -600.718)"/>
    <path id="Path_12245" d="M916.344 638.2l-.176.046.176-.046zm0 0" class="cls-1" transform="translate(-892.488 -600.831)"/>
    <path id="Path_12246" d="M915.283 638.466l-.187.042.187-.042zm0 0" class="cls-1" transform="translate(-891.935 -600.967)"/>
    <path id="Path_12247" d="M909.481 639.36c-.1.009-.2.016-.3.023.1-.007.2-.014.3-.023zm0 0" class="cls-1" transform="translate(-888.883 -601.428)"/>
    <path id="Path_12248" d="M905.25 580a19 19 0 1 0-19 19h.334v-14.795H882.5v-4.757h4.082v-3.5c0-4.06 2.478-6.27 6.1-6.27a33.472 33.472 0 0 1 3.66.187v4.243h-2.5c-1.971 0-2.352.937-2.352 2.31v3.03h4.712l-.614 4.757h-4.1v14.061A19.011 19.011 0 0 0 905.25 580zm0 0" class="cls-1" transform="translate(-867.25 -561)"/>
    <path id="Path_12249" d="M908.458 639.413q-.3.019-.6.03.3-.01.6-.03zm0 0" class="cls-1" transform="translate(-888.203 -601.455)"/>
    <path id="Path_12250" d="M907.506 639.475l-.315.008.315-.008zm0 0" class="cls-1" transform="translate(-887.857 -601.487)"/>
</svg>
