<svg xmlns="http://www.w3.org/2000/svg" width="80" height="80" viewBox="0 0 80 80">
    <defs>
        <style>
            .cls-1{fill:#fff}
        </style>
    </defs>
    <g id="Full_Overview" transform="translate(-649 -3617)">
        <g id="report_4_" transform="translate(596.271 3624)">
            <g id="Group_10817" transform="translate(68.729)">
                <g id="Group_10816">
                    <path id="Path_12274" d="M111.4 4.314h-4.657A5.257 5.257 0 0 0 101.568 0H84.386a5.257 5.257 0 0 0-5.173 4.314h-4.657a5.82 5.82 0 0 0-5.827 5.8V60.2a5.82 5.82 0 0 0 5.827 5.8H111.4a5.82 5.82 0 0 0 5.827-5.8V10.115a5.82 5.82 0 0 0-5.827-5.801zm-28.384.919a1.37 1.37 0 0 1 1.372-1.366h17.182a1.37 1.37 0 0 1 1.372 1.366v4.044a1.37 1.37 0 0 1-1.372 1.366H84.386a1.37 1.37 0 0 1-1.372-1.366V5.233zm28.384 56.9H74.556a1.94 1.94 0 0 1-1.943-1.933V10.115a1.94 1.94 0 0 1 1.942-1.934h4.574v1.1a5.25 5.25 0 0 0 5.256 5.233h17.182a5.25 5.25 0 0 0 5.256-5.233v-1.1h4.577a1.94 1.94 0 0 1 1.942 1.934V60.2a1.94 1.94 0 0 1-1.942 1.933z" class="cls-1" transform="translate(-68.729)"/>
                </g>
            </g>
            <g id="Group_10819" transform="translate(91.713 25.094)">
                <g id="Group_10818">
                    <path id="Path_12275" d="M261.338 194.666h-13.155a1.934 1.934 0 1 0 0 3.867h13.155a1.934 1.934 0 1 0 0-3.867z" class="cls-1" transform="translate(-246.241 -194.666)"/>
                </g>
            </g>
            <g id="Group_10821" transform="translate(77.327 18.1)">
                <g id="Group_10820">
                    <path id="Path_12276" d="M146.711 140.758a1.948 1.948 0 0 0-2.7.491l-4.341 6.251-.915-1.556a1.94 1.94 0 0 0-3.355 1.956l2.455 4.175a1.944 1.944 0 0 0 1.6.955h.073a1.945 1.945 0 0 0 1.6-.834l6.075-8.747a1.928 1.928 0 0 0-.492-2.691z" class="cls-1" transform="translate(-135.134 -140.414)"/>
                </g>
            </g>
            <g id="Group_10823" transform="translate(91.713 38.09)">
                <g id="Group_10822">
                    <path id="Path_12277" d="M261.338 295.487h-13.155a1.934 1.934 0 1 0 0 3.867h13.155a1.934 1.934 0 1 0 0-3.867z" class="cls-1" transform="translate(-246.241 -295.487)"/>
                </g>
            </g>
            <g id="Group_10825" transform="translate(77.327 31.097)">
                <g id="Group_10824">
                    <path id="Path_12278" d="M146.711 241.578a1.947 1.947 0 0 0-2.7.491l-4.341 6.251-.915-1.556a1.94 1.94 0 0 0-3.352 1.954l2.455 4.175a1.944 1.944 0 0 0 1.6.955h.073a1.945 1.945 0 0 0 1.6-.834l6.075-8.747a1.928 1.928 0 0 0-.495-2.689z" class="cls-1" transform="translate(-135.134 -241.235)"/>
                </g>
            </g>
            <g id="Group_10827" transform="translate(91.713 31.544)">
                <g id="Group_10826">
                    <path id="Path_12279" d="M261.338 244.7h-13.155a1.934 1.934 0 1 0 0 3.867h13.155a1.934 1.934 0 1 0 0-3.867z" class="cls-1" transform="translate(-246.241 -244.702)"/>
                </g>
            </g>
        </g>
        <path id="Path_252" fill="none" d="M0 0h80v80H0zm0 0h80v80H0z" transform="translate(649 3617)"/>
    </g>
</svg>
