<svg xmlns="http://www.w3.org/2000/svg" width="109" height="108" viewBox="0 0 109 108">
    <defs>
        <style>
            .cls-2{fill:#3c81a9}
        </style>
    </defs>
    <g id="full_asset" transform="translate(-1523 -2505)">
        <g id="Ellipse_27" fill="none" stroke="#3c81a9" stroke-width="2px" transform="translate(1523 2505)">
            <ellipse cx="54.5" cy="54" stroke="none" rx="54.5" ry="54"/>
            <ellipse cx="54.5" cy="54" rx="53.5" ry="53"/>
        </g>
        <g id="Group_10740" transform="translate(-875.399 -657.398)">
            <g id="Group_171" transform="translate(2428.398 3191.398)">
                <g id="Group_170">
                    <path id="Path_84" d="M46.251 0h-42.5A3.763 3.763 0 0 0 0 3.775v30.2a3.763 3.763 0 0 0 3.75 3.775H20v-2.515H3.751A1.254 1.254 0 0 1 2.5 33.976V3.775a1.254 1.254 0 0 1 1.25-1.258h42.5a1.254 1.254 0 0 1 1.25 1.258v22.651H50V3.775A3.763 3.763 0 0 0 46.251 0z" class="cls-2" transform="translate(-.001)"/>
                </g>
            </g>
            <g id="Group_173" transform="translate(2443.393 3227.891)">
                <g id="Group_172">
                    <path id="Rectangle_117" d="M0 0H2.518V7.554H0z" class="cls-2"/>
                </g>
            </g>
            <g id="Group_175" transform="translate(2433.435 3217.826)">
                <g id="Group_174">
                    <path id="Path_85" d="M46.445 227.777a1.259 1.259 0 0 1-1.259-1.259V224h-2.518v2.518a3.777 3.777 0 0 0 3.777 3.777h2.518v-2.518z" class="cls-2" transform="translate(-42.668 -224)"/>
                </g>
            </g>
            <g id="Group_177" transform="translate(2433.435 3212.793)">
                <g id="Group_176">
                    <path id="Rectangle_118" d="M0 0H2.518V2.518H0z" class="cls-2"/>
                </g>
            </g>
            <g id="Group_179" transform="translate(2450.699 3214.041)">
                <g id="Group_178">
                    <path id="Path_86" d="M215.338 196a13.679 13.679 0 1 0 0 19.345 13.679 13.679 0 0 0 0-19.345zm-9.68 20.834a11.161 11.161 0 1 1 11.165-11.157 11.161 11.161 0 0 1-11.165 11.153z" class="cls-2" transform="translate(-191.986 -191.989)"/>
                </g>
            </g>
            <g id="Group_187" transform="translate(2440.876 3234.186)">
                <g id="Group_186">
                    <path id="Rectangle_120" d="M0 0H10.072V2.518H0z" class="cls-2"/>
                </g>
            </g>
            <g id="Group_189" transform="translate(2443.379 3196.435)">
                <g id="Group_188">
                    <path id="Path_89" d="M131.778 42.667a3.777 3.777 0 1 0 3.777 3.777 3.777 3.777 0 0 0-3.777-3.777zm0 5.036a1.259 1.259 0 1 1 1.259-1.259 1.259 1.259 0 0 1-1.259 1.256z" class="cls-2" transform="translate(-128.001 -42.667)"/>
                </g>
            </g>
            <g id="Group_191" transform="translate(2452.118 3205.241)">
                <g id="Group_190">
                    <path id="Path_90" d="M206.445 117.333a3.777 3.777 0 1 0 3.777 3.777 3.777 3.777 0 0 0-3.777-3.777zm0 5.036a1.259 1.259 0 1 1 1.259-1.259 1.259 1.259 0 0 1-1.259 1.259z" class="cls-2" transform="translate(-202.668 -117.333)"/>
                </g>
            </g>
            <g id="Group_193" transform="translate(2438.75 3200.576)">
                <g id="Group_192">
                    <path id="Rectangle_121" d="M0 0H8.902V2.518H0z" class="cls-2" transform="rotate(-45 7.599 3.147)"/>
                </g>
            </g>
            <g id="Group_195" transform="translate(2447.483 3200.58)">
                <g id="Group_194">
                    <path id="Rectangle_122" d="M0 0H2.518V8.902H0z" class="cls-2" transform="rotate(-45 2.149 .89)"/>
                </g>
            </g>
            <g id="Group_197" transform="translate(2460.857 3196.435)">
                <g id="Group_196">
                    <path id="Path_91" d="M281.111 42.667a3.777 3.777 0 1 0 3.777 3.777 3.777 3.777 0 0 0-3.777-3.777zm0 5.036a1.259 1.259 0 1 1 1.259-1.259 1.259 1.259 0 0 1-1.259 1.256z" class="cls-2" transform="translate(-277.334 -42.667)"/>
                </g>
            </g>
            <g id="Group_199" transform="translate(2456.226 3200.581)">
                <g id="Group_198">
                    <path id="Rectangle_123" d="M0 0H8.902V2.518H0z" class="cls-2" transform="rotate(-45 7.599 3.147)"/>
                </g>
            </g>
            <path id="Path_1578" d="M209.871 168.193a3.169 3.169 0 0 1-2.448 2.981v1.077h-1.935v-1.077a3.169 3.169 0 0 1-2.448-2.981h1.935a1.52 1.52 0 1 0 1.481-1.175 3.277 3.277 0 0 1-3.415-3.11 3.169 3.169 0 0 1 2.448-2.981v-1.077h1.935v1.077a3.169 3.169 0 0 1 2.448 2.981h-1.935a1.52 1.52 0 1 0-1.481 1.175 3.277 3.277 0 0 1 3.415 3.11z" class="cls-2" transform="translate(2258.004 3061.679)"/>
        </g>
    </g>
</svg>
