<?xml version="1.0" encoding="utf-8"?>
<!-- Generator: Adobe Illustrator 25.0.1, SVG Export Plug-In . SVG Version: 6.00 Build 0)  -->
<svg version="1.1" id="Layer_1" xmlns="http://www.w3.org/2000/svg" xmlns:xlink="http://www.w3.org/1999/xlink" x="0px" y="0px"
	 viewBox="0 0 215 215" style="enable-background:new 0 0 215 215;" xml:space="preserve">
<style type="text/css">
	.st0{fill:#FFFFFF;}
	.st1{fill:#155992;}
	.st2{fill:#0E3C62;}
	.st3{fill:#A4C9E7;}
	.st4{fill:#071E31;}
	.st5{opacity:0.2;fill:#212934;}
	.st6{fill:#D6E6F2;}
	.st7{opacity:0.5;}
	.st8{opacity:0.7;}
	.st9{fill:#F7FBFF;}
	.st10{fill:#212934;}
	.st11{fill:#CAC9C8;}
	.st12{fill:#9E9E9E;}
	.st13{fill:#8A8786;}
	.st14{fill:url(#SVGID_1_);}
	.st15{fill:#94918F;}
	.st16{fill:#8895A7;}
	.st17{fill:url(#SVGID_2_);}
	.st18{fill:url(#SVGID_3_);}
	.st19{fill:url(#SVGID_4_);}
	.st20{fill:url(#SVGID_5_);}
	.st21{fill:#CED5DC;}
	.st22{fill:#5B5B5B;}
	.st23{fill:url(#SVGID_6_);}
	.st24{fill:#586371;}
	.st25{fill:#312783;}
	.st26{opacity:0.5;fill:#FFFFFF;}
	.st27{fill:url(#SVGID_7_);}
	.st28{fill:#16285B;}
	.st29{fill:#1E5A9B;}
	.st30{fill:#E9F5FF;}
	.st31{fill:#77ADDB;}
	.st32{fill:#58595B;}
	.st33{opacity:0.66;}
	.st34{opacity:0.4;}
</style>
<g>
	<g id="tpex">
		<path class="st0" d="M-112.8-19.1h357.6c6.6,0,12,5.4,12,12v229.2c0,6.6-5.4,12-12,12h-357.6c-6.6,0-12-5.4-12-12V-7.1
			C-124.8-13.7-119.4-19.1-112.8-19.1z"/>
	</g>
	<g>
		<g>
			<g>
				<path class="st1" d="M52,86.7v75.4c0,10.4,16.9,18.8,37.7,18.8c20.8,0,37.7-8.4,37.7-18.8V86.7H52z"/>
				<path class="st2" d="M89.7,168.4c20.8,0,37.7-8.4,37.7-18.8v12.6c0,10.4-16.9,18.8-37.7,18.8c-20.8,0-37.7-8.4-37.7-18.8v-12.6
					C52,160,68.9,168.4,89.7,168.4z"/>
				<path class="st2" d="M86.7,63.1c0.9-0.5,1.9-0.7,3-0.7c1.1,0,2.1,0.3,3,0.7l79,39.5c1.1,0.6,1.9,1.7,1.9,3c0,1.3-0.8,2.4-1.9,3
					l-79,39.5c-0.9,0.5-1.9,0.7-3,0.7c-1.1,0-2.1-0.3-3-0.7l-79-39.5c-1.1-0.6-1.9-1.7-1.9-3c0-1.3,0.8-2.4,1.9-3L86.7,63.1z"/>
				<polygon class="st3" points="44,126.7 39.5,124.4 88.8,99.8 90.6,103.4 				"/>
				<path class="st4" d="M82.2,101.6c0,2.1,3.4,3.8,7.5,3.8c4.2,0,7.5-1.7,7.5-3.8c0-2.1-3.4-3.8-7.5-3.8
					C85.6,97.8,82.2,99.5,82.2,101.6z"/>
				<polygon class="st3" points="44,156.5 39.5,154.3 39.5,124.4 44,126.7 				"/>
				<polygon class="st0" points="44,162.1 39.5,159.9 39.5,154.3 44,156.5 				"/>
			</g>
			<g>
				<g>
					<path class="st5" d="M148.1,167.6l-1.7-0.3c0.6-0.8,1.4-0.9,1.8-0.9l0,0c0,0,0.1,0,0.1,0c0.1,0,0.2,0,0.2,0l0,0
						c0.4,0,1,0.2,1.4,1.1L148.1,167.6z"/>
					<g>
						<g>
							<path class="st6" d="M120.6,168.2c-2.7,1.8-24.8,12.7-24.8,12.7s-2.5,0.6-1,1.9c1.5,1.3,3.6,2.1,6.1,1.5
								c4.1-1,23.5-14.5,23.5-14.5s2.4-1.5,6.3-1.5c3.9,0.1,56.6-2.5,56.6-2.5l0.2-2.6L126,166C126,166,123.3,166.4,120.6,168.2z"/>
						</g>
						<g>
							<path class="st6" d="M193.1,188.1c0,0-20.3-14-22.7-16.2c-2.4-2.2-5-2.9-5-2.9L105,157l-0.2,2.6c0,0,51.8,10.4,55.6,10.9
								c3.9,0.5,6,2.4,6,2.4s17.2,16.2,21.1,17.8c2.4,1,4.6,0.5,6.3-0.6C195.6,189.1,193.1,188.1,193.1,188.1z"/>
						</g>
						<g>
							<g class="st7">
								<path class="st6" d="M125.2,155.8c-15.5-1.5-21.2,1-19.4,12.1c1.8,11.1,5.3,17.6,18.4,16.4c5.7-0.5,17.3-4.4,18.2-19.1
									C142.7,160.7,140.7,157.3,125.2,155.8z"/>
							</g>
							<g class="st7">
								<path class="st6" d="M167.9,159c-15.6-0.9-18.1,2.2-18.5,6.8c-1.2,14.7,9.6,20.2,15.2,21.6c12.8,3.1,17.3-2.8,20.7-13.5
									C188.7,163.2,183.5,159.9,167.9,159z"/>
							</g>
							<g class="st8">
								<path class="st9" d="M108.3,168.8c0.2,1,0.3,1.9,0.5,2.7c2.2-2.2,5.1-3.7,7.9-5c3.6-1.7,7.5-2.8,11.3-3.6
									c3.4-0.7,7-1.2,10.7-1.4c-2-1.6-5.9-2.8-13.3-3.5C111.7,156.8,106.7,159,108.3,168.8z"/>
							</g>
							<g class="st8">
								<path class="st9" d="M167.8,160.7c-13-0.7-15.1,1.8-15.5,5.7c-0.2,2.4,0,4.5,0.4,6.4c4.5-4.5,11.4-6,17.6-6.7
									c3.7-0.4,7.5-0.5,11.3-0.3c0.3,0,0.6-0.1,0.8-0.1C180.9,162.5,176.1,161.2,167.8,160.7z"/>
							</g>
							<path class="st10" d="M190.1,162.3L190.1,162.3c0.1-0.1-7.1-3.1-16.1-4l0.2,0.1c-1.3-0.2-2.6-0.3-4.1-0.4
								c-0.7,0-1.3-0.1-2-0.1c-6.2-0.3-10.7-0.1-13.7,0.8c-0.4,0.1-1,0.3-1.6,0.4c-1.8,0.6-4.6,1.4-6.2,1.3
								c-1.6-0.2-4.5-1.4-6.2-2.3c-0.6-0.3-1.2-0.5-1.6-0.7c-2.9-1.3-7.3-2.2-13.4-2.8c-0.7-0.1-1.4-0.1-2-0.2
								c-1.3-0.1-2.6-0.2-3.8-0.2l0.1,0c-9-0.5-16.6,1.4-16.6,1.4c-0.5,0-0.9,0.3-0.9,0.8l-0.2,2.6c0,0.5,0.3,0.9,0.8,0.9l0.4,0
								c0,0,1.2,0.5,1.2,2.3c0,0.5,0,0.8,0.1,1c-0.1,1.4,0,3,0.3,4.7c1.6,9.9,4.7,16.7,14.8,17.5c1.5,0.1,3.1,0.1,4.9-0.1
								c7.7-0.7,16.8-5.6,18.9-17.1l0,0.2c0-0.3,0-0.5,0.1-0.8c0-0.2,0-0.4,0.1-0.5c0.5-3.2,2.1-3.4,2.7-3.4l0,0c0,0,0.1,0,0.1,0
								c0.1,0,0.2,0,0.2,0l0,0c0.6,0,1.7,0.5,1.9,3.2c0,0.5,0,0.9,0,1.4c0,0.1,0,0.3,0,0.5l0-0.1c0.4,11.6,8.6,17.8,16.1,19.6
								c1.7,0.4,3.4,0.7,4.8,0.8c10.1,0.8,14.2-5.5,17.2-15.1c0.6-1.8,0.9-3.5,1-4.9c0.1-0.2,0.1-0.4,0.1-0.7
								c0.3-1.8,1.5-2.1,1.5-2.1l0.4,0c0.5,0,0.9-0.3,0.9-0.8l0.2-2.6C190.6,162.8,190.4,162.5,190.1,162.3z M124.1,183.2
								c-1.7,0.1-3.2,0.2-4.5,0.1c-8.6-0.6-11.2-6.2-12.7-15.5c-0.7-4.1-0.2-6.8,1.3-8.5c2.1-2.3,6.7-3.1,14.9-2.4
								c0.6,0,1.3,0.1,2,0.2c15.4,1.4,16.4,4.6,16.2,8.3C140.2,181,126.8,183,124.1,183.2z M184.2,173.6c-2.9,9-6.2,14.1-14.8,13.5
								c-1.4-0.1-2.9-0.4-4.5-0.7c-2.6-0.6-15.6-4.6-14.3-20.3c0.3-3.7,1.8-6.7,17.2-5.8c0.7,0,1.3,0.1,2,0.1
								c8.2,0.6,12.6,2,14.4,4.6C185.5,166.8,185.5,169.6,184.2,173.6z"/>
						</g>
					</g>
				</g>
			</g>
			<g>
				<g>
					<g>
						<polygon class="st11" points="119.5,203.2 113.1,201.2 114.1,204.8 120.5,206.8 						"/>
						<polygon class="st12" points="119.5,203.2 113.1,201.2 114.1,204.8 120.5,206.8 						"/>
						<polygon class="st13" points="119.1,203 112.6,201 113.6,204.7 120,206.7 						"/>
						<polygon class="st12" points="119.1,203 112.6,201 113.6,204.7 120,206.7 						"/>
						
							<linearGradient id="SVGID_1_" gradientUnits="userSpaceOnUse" x1="1624.7677" y1="-448.7237" x2="1656.4204" y2="-435.0416" gradientTransform="matrix(0.9492 0.3148 0.3148 -0.9492 -1312.5712 -737.6326)">
							<stop  offset="0" style="stop-color:#E2E1E0"/>
							<stop  offset="0.103" style="stop-color:#E6E3E2"/>
							<stop  offset="0.1818" style="stop-color:#BDBCBB"/>
							<stop  offset="0.3831" style="stop-color:#EBE9E9"/>
							<stop  offset="0.5634" style="stop-color:#D6D4D3"/>
							<stop  offset="0.8061" style="stop-color:#FFFFFF"/>
							<stop  offset="1" style="stop-color:#C7C4C4"/>
						</linearGradient>
						<path class="st14" d="M92.8,194.9c-0.5,0.6-1.5,0.7-2.6,0.3c-2.1-0.7-1.9-2.2-1.7-2.9l33.3,11l-0.4,1.1L92.8,194.9z"/>
						<path class="st12" d="M92.8,194.9c-0.5,0.6-1.5,0.7-2.6,0.3c-2.1-0.7-1.9-2.2-1.7-2.9l33.3,11l-0.4,1.1L92.8,194.9z"/>
						<polygon class="st15" points="119.3,203.1 112.9,201.1 113.8,204.7 120.3,206.7 						"/>
						<polygon class="st16" points="119.3,203.1 112.9,201.1 113.8,204.7 120.3,206.7 						"/>
						
							<linearGradient id="SVGID_2_" gradientUnits="userSpaceOnUse" x1="1624.7646" y1="-449.0608" x2="1656.4178" y2="-435.3786" gradientTransform="matrix(0.9492 0.3148 0.3148 -0.9492 -1312.5712 -737.6326)">
							<stop  offset="0" style="stop-color:#BEBAB8"/>
							<stop  offset="0.103" style="stop-color:#C6C0BD"/>
							<stop  offset="0.1818" style="stop-color:#6A6664"/>
							<stop  offset="0.3831" style="stop-color:#D2CECC"/>
							<stop  offset="0.5634" style="stop-color:#A29E9C"/>
							<stop  offset="0.8061" style="stop-color:#FFFFFF"/>
							<stop  offset="1" style="stop-color:#7F7A78"/>
						</linearGradient>
						<path class="st17" d="M92.7,195.2c-0.5,0.6-1.5,0.7-2.6,0.3c-2.1-0.7-1.9-2.2-1.7-2.9l33.3,11l-0.4,1.1L92.7,195.2z"/>
						
							<linearGradient id="SVGID_3_" gradientUnits="userSpaceOnUse" x1="1624.7646" y1="-449.0608" x2="1656.4178" y2="-435.3786" gradientTransform="matrix(0.9492 0.3148 0.3148 -0.9492 -1312.5712 -737.6326)">
							<stop  offset="0" style="stop-color:#BEBAB8"/>
							<stop  offset="0.103" style="stop-color:#C6C0BD"/>
							<stop  offset="0.1818" style="stop-color:#6A6664"/>
							<stop  offset="0.3831" style="stop-color:#D2CECC"/>
							<stop  offset="0.5634" style="stop-color:#A29E9C"/>
							<stop  offset="0.8061" style="stop-color:#FFFFFF"/>
							<stop  offset="1" style="stop-color:#7F7A78"/>
						</linearGradient>
						<path class="st18" d="M92.7,195.2c-0.5,0.6-1.5,0.7-2.6,0.3c-2.1-0.7-1.9-2.2-1.7-2.9l33.3,11l-0.4,1.1L92.7,195.2z"/>
						
							<linearGradient id="SVGID_4_" gradientUnits="userSpaceOnUse" x1="1624.7646" y1="-449.0608" x2="1656.4178" y2="-435.3786" gradientTransform="matrix(0.9492 0.3148 0.3148 -0.9492 -1312.5712 -737.6326)">
							<stop  offset="0" style="stop-color:#989593"/>
							<stop  offset="0.103" style="stop-color:#9E9A97"/>
							<stop  offset="0.1818" style="stop-color:#555250"/>
							<stop  offset="0.3831" style="stop-color:#A8A5A3"/>
							<stop  offset="0.5634" style="stop-color:#827E7D"/>
							<stop  offset="0.8061" style="stop-color:#CCCCCC"/>
							<stop  offset="1" style="stop-color:#666260"/>
						</linearGradient>
						<path class="st19" d="M92.7,195.2c-0.5,0.6-1.5,0.7-2.6,0.3c-2.1-0.7-1.9-2.2-1.7-2.9l33.3,11l-0.4,1.1L92.7,195.2z"/>
						<path class="st12" d="M92.7,195.2c-0.5,0.6-1.5,0.7-2.6,0.3c-2.1-0.7-1.9-2.2-1.7-2.9l33.3,11l-0.4,1.1L92.7,195.2z"/>
						
							<linearGradient id="SVGID_5_" gradientUnits="userSpaceOnUse" x1="1621.9369" y1="-442.8738" x2="1659.23" y2="-442.8738" gradientTransform="matrix(0.9492 0.3148 0.3148 -0.9492 -1312.5712 -737.6326)">
							<stop  offset="0" style="stop-color:#BEBAB8"/>
							<stop  offset="0.103" style="stop-color:#C6C0BD"/>
							<stop  offset="0.2435" style="stop-color:#8A8684"/>
							<stop  offset="0.3831" style="stop-color:#D2CECC"/>
							<stop  offset="0.5634" style="stop-color:#A29E9C"/>
							<stop  offset="0.9261" style="stop-color:#FFFFFF"/>
							<stop  offset="0.971" style="stop-color:#7F7A78"/>
						</linearGradient>
						<path class="st20" d="M92.7,195c-0.5,0.6-1.5,0.7-2.6,0.3c-2.1-0.7-1.9-2.2-1.7-2.9l33.3,11l-0.4,1.1L92.7,195z"/>
						<path class="st21" d="M92.7,195c-0.5,0.6-1.5,0.7-2.6,0.3c-2.1-0.7-1.9-2.2-1.7-2.9l33.3,11l-0.4,1.1L92.7,195z"/>
					</g>
					<path class="st22" d="M28.9,178.9c-0.1,0.2-0.4,0.6-0.8,0.5c-0.3-0.1-0.7-0.6-0.5-0.9c0.2-0.4,0.6-0.4,0.9-0.3
						C28.9,178.3,29,178.7,28.9,178.9z"/>
					
						<linearGradient id="SVGID_6_" gradientUnits="userSpaceOnUse" x1="1664.8201" y1="-877.1439" x2="1664.8201" y2="-880.5881" gradientTransform="matrix(0.9493 0.3144 -0.3144 0.9493 -1730.371 522.2232)">
						<stop  offset="0" style="stop-color:#FFFFFF"/>
						<stop  offset="0.103" style="stop-color:#C6C0BD"/>
						<stop  offset="0.1818" style="stop-color:#6A6664"/>
						<stop  offset="0.2848" style="stop-color:#000000"/>
						<stop  offset="0.4667" style="stop-color:#A29E9C"/>
						<stop  offset="0.5879" style="stop-color:#646261"/>
						<stop  offset="0.6848" style="stop-color:#D2CECC"/>
						<stop  offset="0.8061" style="stop-color:#FFFFFF"/>
						<stop  offset="1" style="stop-color:#7F7A78"/>
					</linearGradient>
					<path class="st23" d="M131,211.7c0.1-0.3-0.2-0.6-0.7-0.8c-2.3-0.8-4.6-1.6-7-2.5c-0.2-0.1-0.4-0.1-0.5-0.1
						c-0.1,0-0.2,0.1-0.3,0.2c0,0,0,0,0,0l0,0c-0.1,0-0.1,0-0.1,0c-0.1,0.5-0.2,0.9-0.4,1.3c0,0,0,0,0,0c-0.1,0.4-0.3,0.7-0.5,1.2
						c0,0,0,0.1,0.1,0.1c0,0,0,0,0,0c0,0.1,0,0.2,0.1,0.3c0.1,0.1,0.3,0.2,0.4,0.2c2.4,0.7,4.7,1.5,7.1,2.2c0.5,0.2,1,0.1,1-0.2
						L131,211.7z"/>
					<path class="st24" d="M131,211.7c0.1-0.3-0.2-0.6-0.7-0.8c-2.3-0.8-4.6-1.6-7-2.5c-0.2-0.1-0.4-0.1-0.5-0.1
						c-0.1,0-0.2,0.1-0.3,0.2c0,0,0,0,0,0l0,0c-0.1,0-0.1,0-0.1,0c-0.1,0.5-0.2,0.9-0.4,1.3c0,0,0,0,0,0c-0.1,0.4-0.3,0.7-0.5,1.2
						c0,0,0,0.1,0.1,0.1c0,0,0,0,0,0c0,0.1,0,0.2,0.1,0.3c0.1,0.1,0.3,0.2,0.4,0.2c2.4,0.7,4.7,1.5,7.1,2.2c0.5,0.2,1,0.1,1-0.2
						L131,211.7z"/>
					<path class="st25" d="M67,188.1c-8.7-2.8-17.3-5.6-26.2-8l-1.7,5.1c8.4,3.3,17.2,6.3,25.8,9.2L67,188.1z"/>
					<path class="st1" d="M67,188.1c-8.7-2.8-17.3-5.6-26.2-8l-1.7,5.1c8.4,3.3,17.2,6.3,25.8,9.2L67,188.1z"/>
					<path class="st26" d="M66,190.9l0.6-1.8c-8.7-2.8-17.3-5.6-26.2-8l-0.4,1.2L66,190.9z"/>
					<path class="st26" d="M66,190.9l0.6-1.8c-8.7-2.8-17.3-5.6-26.2-8l-0.4,1.2L66,190.9z"/>
					<path class="st21" d="M28.2,179.6c3.4,2.2,8.5,4.7,10.9,5.7c0-0.1,0-0.1,0.1-0.2c0.1-0.4,0.3-0.9,0.4-1.3
						c0.1-0.3,0.2-0.6,0.3-0.8c0.1-0.2,0.2-0.5,0.2-0.7c0.1-0.4,0.2-0.7,0.4-1.1c0.1-0.3,0.2-0.7,0.3-1c-3.6-0.9-8.1-1.7-12.1-2
						c0,0.1-0.1,0.2-0.1,0.3c0,0.1-0.1,0.2-0.1,0.3c0,0.1,0,0.1-0.1,0.2c0,0.1-0.1,0.2-0.1,0.2C28.3,179.3,28.2,179.4,28.2,179.6
						C28.2,179.6,28.2,179.6,28.2,179.6z"/>
					<path class="st21" d="M69.2,188.8c-0.9-0.3-1.3-0.4-2.2-0.7l-2.1,6.4c0.9,0.3,1.3,0.5,2.2,0.8L69.2,188.8z"/>
					<path class="st25" d="M122.9,207.2c-17.8-6.4-35.7-12.5-53.7-18.4l-2.1,6.4c17.9,6.1,36,11.8,54.1,17.3L122.9,207.2z"/>
					<path class="st1" d="M122.9,207.2c-17.8-6.4-35.7-12.5-53.7-18.4l-2.1,6.4c17.9,6.1,36,11.8,54.1,17.3L122.9,207.2z"/>
					<path class="st26" d="M122.2,209.5l0.4-1.3c-17.8-6.4-35.7-12.5-53.7-18.4l-0.6,1.8L122.2,209.5z"/>
					<path class="st26" d="M122.2,209.5l0.4-1.3c-17.8-6.4-35.7-12.5-53.7-18.4l-0.6,1.8L122.2,209.5z"/>
					<path class="st24" d="M126,208.3c-1.2-0.4-1.8-0.6-3.1-1.1l-1.8,5.4c1.2,0.4,1.9,0.6,3.1,1L126,208.3z"/>
					
						<linearGradient id="SVGID_7_" gradientUnits="userSpaceOnUse" x1="1663.8567" y1="-876.0847" x2="1663.8567" y2="-881.6465" gradientTransform="matrix(0.9493 0.3144 -0.3144 0.9493 -1730.3705 522.2232)">
						<stop  offset="0" style="stop-color:#7F7A78"/>
						<stop  offset="0.1939" style="stop-color:#FFFFFF"/>
						<stop  offset="0.3152" style="stop-color:#D2CECC"/>
						<stop  offset="0.6121" style="stop-color:#A29E9C"/>
						<stop  offset="0.7152" style="stop-color:#FFFFFF"/>
						<stop  offset="0.8182" style="stop-color:#6A6664"/>
						<stop  offset="0.897" style="stop-color:#C6C0BD"/>
						<stop  offset="1" style="stop-color:#BEBAB8"/>
					</linearGradient>
					<polygon class="st27" points="126,208.3 126.4,208.5 124.7,213.6 124.3,213.6 					"/>
					<polygon class="st12" points="126,208.3 126.4,208.5 124.7,213.6 124.3,213.6 					"/>
				</g>
			</g>
		</g>
		<g>
			<g>
				<path class="st28" d="M146.9,138.3c0,7.4,6.4,13.4,14.2,13.4s14.2-6,14.2-13.4s-6.4-13.4-14.2-13.4S146.9,130.9,146.9,138.3z"/>
				<g>
					<g>
						<g>
							<path class="st29" d="M145.1,137.2c12.2,0,18.3,0,30.6,0c2.3,0,4.1,1.5,4.1,3.4c0,1.9-1.8,3.9-4.1,4.4
								c-12.1,2.6-18.6,2.6-30.7,0c-2.3-0.5-4.1-2.5-4.1-4.4C141,138.7,142.8,137.2,145.1,137.2z"/>
							<path class="st28" d="M178.7,143.3c-0.7,0.8-1.8,1.5-2.9,1.8c-12.1,2.6-18.6,2.6-30.7,0c-1.2-0.2-2.2-0.9-2.9-1.8
								C156.5,146.4,164.3,146.4,178.7,143.3z"/>
						</g>
					</g>
					<g>
						<g>
							<path class="st29" d="M145.1,130.3c12.2,0,18.3,0,30.6,0c2.3,0,4.1,1.5,4.1,3.4c0,1.9-1.8,3.9-4.1,4.4
								c-12.1,2.6-18.6,2.6-30.7,0c-2.3-0.5-4.1-2.5-4.1-4.4C141,131.8,142.8,130.3,145.1,130.3z"/>
							<path class="st28" d="M178.7,136.4c-0.7,0.8-1.8,1.5-2.9,1.8c-12.1,2.6-18.6,2.6-30.7,0c-1.2-0.2-2.2-0.9-2.9-1.8
								C156.5,139.5,164.3,139.5,178.7,136.4z"/>
						</g>
					</g>
					<g>
						<g>
							<path class="st29" d="M145.1,123.4c12.2,0,18.3,0,30.6,0c2.3,0,4.1,1.5,4.1,3.4c0,1.9-1.8,3.9-4.1,4.4
								c-12.1,2.6-18.6,2.6-30.7,0c-2.3-0.5-4.1-2.5-4.1-4.4C141,124.9,142.8,123.4,145.1,123.4z"/>
							<path class="st28" d="M178.7,129.4c-0.7,0.8-1.8,1.5-2.9,1.8c-12.1,2.6-18.6,2.6-30.7,0c-1.2-0.2-2.2-0.9-2.9-1.8
								C156.5,132.6,164.3,132.6,178.7,129.4z"/>
						</g>
					</g>
				</g>
				<g>
					<path class="st30" d="M195,16c-9.3-9.3-20.7-14-34-14c-0.2,0-0.3,0-0.4,0c-0.1,0-0.3,0-0.4,0c-0.1,0-0.2,0-0.4,0
						c-13.3,0-24.7,4.7-34,14c-9.3,9.4-14,20.7-14,34c0,3.6,0.4,7.1,1,10.5c1.2,5.6,3.2,10.6,5.7,15.1c2.6,4.5,8.1,10.7,16.4,18.8
						c8.4,8,11.4,17.8,9.3,29.4h32.2c-2.1-11.5,1-21.4,9.3-29.4c8.4-8.1,13.9-14.3,16.4-18.8c2.6-4.5,4.5-9.5,5.7-15.1
						c0.7-3.4,1-6.9,1-10.5C209,36.7,204.3,25.4,195,16z"/>
					<g>
						<path class="st31" d="M144.3,123.8c9.6,3.1,22.5,3.1,32.2,0c-0.7-3.5-0.8-7.2-0.4-10.6c-10.4,0-20.9,0-31.3,0
							C145.1,116.6,145,120.2,144.3,123.8z"/>
					</g>
				</g>
				<g>
					<g>
						<path class="st32" d="M166.8,125.6c-0.2-35.5,14.6-53.5,21-59.6l1,1c-6.3,5.9-20.8,23.5-20.6,58.5L166.8,125.6z"/>
					</g>
					<g>
						<path class="st32" d="M152.9,125.6c-0.5-33.2-14.5-45-20.5-48.5l0.7-1.2c6.2,3.6,20.7,15.8,21.2,49.7L152.9,125.6z"/>
					</g>
					<g>
						<polygon class="st32" points="141.8,83.5 140.6,82.6 147.7,73 154.2,79.6 160.7,70.7 167.2,77.3 173.7,68.4 180.8,75.6 
							179.8,76.6 173.9,70.5 167.4,79.5 160.9,72.9 154.3,81.8 147.8,75.2 						"/>
					</g>
				</g>
			</g>
			<g class="st33">
				<path class="st0" d="M123.2,69.5c-1.1,0-2.1-0.6-2.6-1.6c-1.4-2.8-2.6-5.7-3.6-8.5c-0.5-1.5,0.3-3.2,1.8-3.7
					c1.5-0.5,3.2,0.3,3.7,1.8c0.9,2.6,1.9,5.2,3.2,7.8c0.7,1.4,0.1,3.2-1.3,3.9C124.1,69.4,123.7,69.5,123.2,69.5z"/>
			</g>
			<g class="st34">
				<path class="st0" d="M121,48.6c-0.1,0-0.2,0-0.3,0c-1.6-0.2-2.8-1.6-2.6-3.2c2.4-23.4,20.4-32.7,28-35.6
					c1.5-0.6,3.2,0.2,3.8,1.7c0.6,1.5-0.2,3.2-1.7,3.8c-6.6,2.5-22.2,10.6-24.3,30.8C123.7,47.5,122.5,48.6,121,48.6z"/>
			</g>
		</g>
	</g>
</g>
</svg>
