<svg xmlns="http://www.w3.org/2000/svg" id="ic_insta" width="38" height="38" viewBox="0 0 38 38">
    <defs>
        <style>
            .cls-1{fill:#3d82ab}
        </style>
    </defs>
    <path id="Path_12253" d="M641.308 338.654a3.654 3.654 0 1 1-3.654-3.654 3.654 3.654 0 0 1 3.654 3.654zm0 0" class="cls-1" transform="translate(-618.654 -319.654)"/>
    <path id="Path_12254" d="M580.017 266.01a3.629 3.629 0 0 0-2.081-2.081 6.067 6.067 0 0 0-2.035-.377c-1.156-.053-1.5-.064-4.43-.064s-3.274.011-4.43.064a6.072 6.072 0 0 0-2.035.377 3.631 3.631 0 0 0-2.081 2.081 6.067 6.067 0 0 0-.377 2.036c-.053 1.156-.064 1.5-.064 4.43s.011 3.273.064 4.43a6.064 6.064 0 0 0 .377 2.035 3.629 3.629 0 0 0 2.08 2.081 6.06 6.06 0 0 0 2.036.377c1.156.053 1.5.064 4.429.064s3.274-.011 4.43-.064a6.059 6.059 0 0 0 2.036-.377 3.63 3.63 0 0 0 2.081-2.081 6.073 6.073 0 0 0 .378-2.035c.053-1.156.064-1.5.064-4.43s-.011-3.274-.064-4.43a6.059 6.059 0 0 0-.378-2.036zm-8.546 12.09a5.629 5.629 0 1 1 5.629-5.629 5.629 5.629 0 0 1-5.629 5.629zm5.852-10.165a1.316 1.316 0 1 1 1.315-1.316 1.316 1.316 0 0 1-1.315 1.316zm0 0" class="cls-1" transform="translate(-552.471 -253.475)"/>
    <path id="Path_12255" d="M446 128a19 19 0 1 0 19 19 19 19 0 0 0-19-19zm10.844 23.5a8 8 0 0 1-.507 2.648 5.578 5.578 0 0 1-3.191 3.191 8.01 8.01 0 0 1-2.648.507c-1.163.053-1.535.066-4.5.066s-3.335-.013-4.5-.066a8.009 8.009 0 0 1-2.648-.507 5.579 5.579 0 0 1-3.191-3.191 8 8 0 0 1-.507-2.648c-.054-1.164-.066-1.535-.066-4.5s.013-3.335.066-4.5a8.007 8.007 0 0 1 .507-2.648 5.582 5.582 0 0 1 3.191-3.191 8.01 8.01 0 0 1 2.648-.507c1.163-.053 1.535-.066 4.5-.066s3.335.013 4.5.066a8.012 8.012 0 0 1 2.648.506 5.58 5.58 0 0 1 3.191 3.191 8.005 8.005 0 0 1 .507 2.648c.053 1.163.066 1.535.066 4.5s-.013 3.335-.066 4.5zm0 0" class="cls-1" transform="translate(-427 -128)"/>
</svg>
