<?xml version="1.0" encoding="utf-8"?>
<!-- Generator: Adobe Illustrator 25.0.1, SVG Export Plug-In . SVG Version: 6.00 Build 0)  -->
<svg version="1.1" id="Layer_1" xmlns="http://www.w3.org/2000/svg" xmlns:xlink="http://www.w3.org/1999/xlink" x="0px" y="0px"
	 viewBox="0 0 215 215" style="enable-background:new 0 0 215 215;" xml:space="preserve">
<style type="text/css">
	.st0{clip-path:url(#SVGID_2_);}
	.st1{fill:#D6E6F2;}
	.st2{fill:#77ADDB;}
	.st3{fill:#A4C9E7;}
	.st4{fill:#E5F4EB;}
	.st5{fill:#0E3C62;}
	.st6{fill:#FFCC00;}
	.st7{opacity:0.73;}
	.st8{fill:#CCE4F2;}
	.st9{fill:#1C77C3;}
	.st10{opacity:0.23;}
</style>
<g>
	<defs>
		<rect id="SVGID_1_" x="-0.8" width="215" height="215"/>
	</defs>
	<clipPath id="SVGID_2_">
		<use xlink:href="#SVGID_1_"  style="overflow:visible;"/>
	</clipPath>
	<g class="st0">
		<g>
			<g>
				<g>
					<g>
						<path class="st1" d="M135.5,58.3c-7.3-5.6-14.8-8-19.9-9c-2.6-0.4-4.7-0.7-6.1-0.7c-1.4-0.1-2.2-0.1-2.2-0.1l-0.2,12.6
							c0,0,0.5,0,1.6,0.1c1,0,2.6,0.3,4.5,0.6c3.8,0.7,9.4,2.5,14.7,6.6c3.8,2.9,7.3,7,9.9,12.1l11.5-4.9
							C145.9,68.2,140.9,62.4,135.5,58.3z"/>
					</g>
				</g>
				<g>
					<path class="st2" d="M105,36c-1.8,0-4.3,0.2-7.5,0.7c-6.3,1-15.6,3.4-24.8,9.9c-9.2,6.2-18,16.6-22.6,29.8
						c-2.3,6.6-3.4,13.9-3.2,21.2c0.2,7.3,1.8,14.6,4.6,21.5c1.3,3.2,3,6.2,4.8,9.1l10.7-6.5c-1.5-2.3-2.9-4.8-3.9-7.4
						c-4.6-10.8-4.8-23.3-1.2-33.7C65.6,70,72.6,61.8,79.8,56.9c7.2-5.1,14.6-7,19.6-7.8c2.5-0.3,4.5-0.6,5.9-0.5c1.4,0,2.1,0,2.1,0
						l0.2-12.6C107.7,36,106.7,36,105,36z"/>
					<path class="st3" d="M153.3,87.9c0,0-0.1-0.6-0.3-1.6c-0.3-1-0.5-2.5-1.1-4.2c-1-3.5-3-7.9-5.5-12c-2.6-4.1-6-7.6-8.7-10
						c-1.4-1.1-2.6-2-3.4-2.7c-0.9-0.6-1.4-0.9-1.4-0.9l7-10.4c0,0,0.6,0.4,1.7,1.2c1.1,0.8,2.6,2,4.3,3.4c3.4,3,7.7,7.4,11,12.6
						c3.3,5.1,5.8,10.8,7,15.2c0.7,2.2,1,4,1.3,5.3c0.3,1.3,0.4,2,0.4,2L153.3,87.9z"/>
					<path class="st3" d="M82.6,70.8c0,0-0.4,0.4-1.1,1.2c-0.8,0.7-1.7,1.9-2.9,3.5c-2.3,3.1-5.1,8.2-6.1,14.8
						c-1.1,6.6-0.3,14.7,3.7,22.1c3.9,7.4,11.1,13.7,19.6,16.4c8.5,2.9,18,2.1,25.5-1.5c7.6-3.5,13.2-9.6,16.2-15.5
						c3.2-5.9,3.8-11.7,3.9-15.5c0-1,0-1.8,0-2.6c-0.1-0.8-0.2-1.4-0.2-1.9c-0.1-1-0.2-1.6-0.2-1.6l12.4-2.1c0,0,0.1,0.8,0.3,2.2
						c0.1,0.7,0.2,1.6,0.3,2.6c0,1,0,2.2,0.1,3.5c-0.1,5.3-1,13.1-5.3,21.2c-4,8.1-11.6,16.3-22,21.2c-5.2,2.4-10.9,3.9-16.9,4.3
						c-6,0.4-12.1-0.4-17.9-2.3c-11.6-3.8-21.3-12.3-26.7-22.4c-5.5-10.1-6.6-21.1-5.1-30.1c1.5-9.1,5.3-15.9,8.4-20.1
						c1.6-2.1,2.9-3.7,4-4.7c1-1,1.5-1.6,1.5-1.6L82.6,70.8z"/>
					<path class="st2" d="M128.5,92.1c0,0-0.1-0.4-0.2-1c-0.1-0.3-0.2-0.7-0.3-1.2c-0.2-0.5-0.3-1-0.5-1.6c-0.9-2.3-2.4-5.7-5.7-8.6
						c-3.1-3-7.8-5.5-13.2-5.9c-5.4-0.5-11.4,1.1-15.8,4.7c-4.5,3.6-7.5,9.1-8.1,14.4c-0.7,5.3,0.7,10.6,2.9,14.2
						c2.2,3.7,5.1,6.1,7.2,7.4c1,0.8,2,1.1,2.6,1.4c0.6,0.3,1,0.4,1,0.4l-4.7,11.6c0,0-2.2-0.7-5.5-2.8c-3.3-2.1-7.9-5.7-11.3-11.6
						c-3.5-5.8-5.6-13.8-4.6-22.2c1.1-8.4,5.6-16.9,12.7-22.5c7-5.7,16.4-8.3,24.8-7.5c8.5,0.7,15.8,4.6,20.7,9.3
						c5,4.6,7.6,9.9,8.9,13.5c0.3,0.9,0.6,1.8,0.8,2.5c0.2,0.7,0.3,1.4,0.4,1.9c0.2,1,0.3,1.6,0.3,1.6L128.5,92.1z"/>
					<path class="st3" d="M119,114.2c0,0,0.6-0.4,1.5-1.1c0.4-0.4,0.9-0.8,1.4-1.2c0.5-0.5,1-1,1.5-1.5c2-2.2,3.2-4.8,3.2-4.8
						l11.3,5.6c0,0-1.9,4.2-5,7.6c-0.8,0.8-1.6,1.6-2.3,2.4c-0.8,0.7-1.6,1.3-2.2,1.9c-1.4,1-2.3,1.7-2.3,1.7L119,114.2z"/>
					<path class="st4" d="M103.3,86.8c0.1,0.1-2.6,0.6-4.7,3.9c-1.1,1.6-1.7,3.7-1.4,6.1c0.3,2.5,1.4,4.7,3.4,6.3
						c2,1.6,4.5,2.4,6.8,2.2c2.5-0.2,4.4-1.3,5.8-2.5c1.3-1.4,2.2-2.8,2.5-3.8c0.3-1,0.4-1.7,0.4-1.7l12.4,2c0,0-0.2,1.4-1,3.9
						c-0.8,2.4-2.6,5.7-5.7,8.8c-3.2,2.9-7.8,5.5-13.4,5.9c-5.4,0.5-11.3-1.2-15.9-5c-4.6-3.7-7.4-9.1-7.9-14.6
						c-0.7-5.4,0.9-10.5,3.2-14.2c2.3-3.8,5.3-6,7.4-7.3c1.1-0.7,2-1.1,2.6-1.3c0.6-0.3,1-0.4,1-0.4L103.3,86.8z"/>
					<path class="st3" d="M115.6,92.2c0,0-0.3-0.7-0.9-1.7c-0.6-1-1.7-2.1-3-2.9c-2.7-1.7-5.8-1.3-5.8-1.3l-1.2-12.5
						c0,0,1.8-0.3,4.4,0c2.6,0.3,6.1,1.1,9.1,3.1c3,1.9,5.6,4.5,7,6.7c0.7,1.1,1.3,2.1,1.6,2.8c0.3,0.7,0.5,1.1,0.5,1.1L115.6,92.2z
						"/>
					<path class="st2" d="M130.2,40.8c-3-1.3-5.4-2-7.1-2.5c-1.7-0.4-2.6-0.6-2.6-0.6l-2.9,12.2c0,0,0.7,0.2,2,0.5
						c1.3,0.4,3.2,1,5.6,2c1.2,0.5,2.6,1.2,4,1.9l5.3-11.4C133,42,131.5,41.3,130.2,40.8z"/>
					<path class="st2" d="M153.2,104.6c-1.3,6.6-4,13-8,18.6l10.4,7.1c4.9-6.9,8.3-14.8,9.9-22.9L153.2,104.6z"/>
				</g>
				<g>
					<path class="st5" d="M124.2,182.5H88.4c-1.7,0-3.2-1.4-3.2-3.2l0,0c0-1.7,1.4-3.2,3.2-3.2h35.8c1.7,0,3.2,1.4,3.2,3.2l0,0
						C127.4,181.1,125.9,182.5,124.2,182.5z"/>
					<path class="st5" d="M124.2,191.4H88.4c-1.7,0-3.2-1.4-3.2-3.2l0,0c0-1.7,1.4-3.2,3.2-3.2h35.8c1.7,0,3.2,1.4,3.2,3.2l0,0
						C127.4,190,125.9,191.4,124.2,191.4z"/>
					<path class="st5" d="M90.4,194c1.7,4.4,6,7.6,11,7.6h9.9c5,0,9.3-3.2,11-7.6H90.4z"/>
				</g>
				<path class="st6" d="M141,128.2c0,0-0.5,0.5-1.5,1.5c-1,0.9-2.5,2.3-4.5,3.9c-4,3.1-10.6,6.8-19.3,8.6
					c-8.5,1.8-19.4,1.1-29.3-3.7c-5.6-2.6-10.9-6.6-15.2-11.5l-7.9,9.9c5.2,5.5,11.2,9.9,17.7,12.9c0,0,0.1,0,0.1,0
					c5.1,2.4,8.5,7.5,8.5,13.1v9.4H123v-9.1c0-5.7,3.4-10.8,8.6-13.2c4.6-2.1,8.3-4.4,11-6.5c2.6-2,4.5-3.7,5.7-4.9
					c1.2-1.2,1.9-1.9,1.9-1.9L141,128.2z"/>
			</g>
			<g class="st7">
				<path class="st3" d="M183.3,127.7c0,0-0.1,0.3-0.4,1c-0.3,0.6-0.8,1.6-1.4,2.8c-0.6,1.2-1.3,2.8-2.3,4.5c-1,1.7-2.2,3.6-3.5,5.8
					c0,0.1-0.1,0.1-0.1,0.2c-1.5,2-3.1,4.3-5,6.7c0,0-0.1,0.1-0.1,0.1c-1,1.1-2.1,2.3-3.2,3.5c-0.6,0.6-1.1,1.2-1.7,1.9
					c-0.6,0.6-1.3,1.2-1.9,1.8c-1.3,1.2-2.6,2.4-4,3.6c0,0-0.1,0.1-0.1,0.1c-1.5,1.1-3,2.3-4.6,3.5c-0.4,0.3-0.7,0.6-1.1,0.8
					c-0.9,0.7-1.2,2-0.5,2.9l0,0c0.7,0.9,1.9,1.1,2.8,0.5c0.4-0.3,0.8-0.6,1.2-0.9c1.7-1.2,3.3-2.5,4.8-3.6c0.1,0,0.1-0.1,0.1-0.1
					c1.5-1.3,2.9-2.6,4.2-3.8c0.7-0.6,1.4-1.2,2-1.9c0.6-0.7,1.2-1.3,1.8-2c1.2-1.3,2.3-2.5,3.3-3.7c0,0,0.1-0.1,0.1-0.1
					c2-2.5,3.7-4.9,5.3-7c0,0,0.1-0.1,0.1-0.1c1.4-2.3,2.6-4.3,3.7-6.1c1.1-1.8,1.7-3.5,2.4-4.7c0.6-1.3,1.1-2.3,1.4-3
					c0.3-0.7,0.5-1,0.5-1L183.3,127.7z"/>
				<path class="st8" d="M49.1,147.7c-0.6-0.6-1.1-1.3-1.7-1.9c-1-1.1-2.6-1.3-3.7-0.3h0c-1.1,0.9-1.2,2.6-0.3,3.6
					c0.6,0.7,1.2,1.4,1.8,2.1c4.9,5.5,10.4,10,16.1,13.7c1.2,0.8,2.8,0.5,3.6-0.7l0,0c0.8-1.2,0.5-2.8-0.7-3.6
					C58.9,157.1,53.7,152.9,49.1,147.7z"/>
				<path class="st2" d="M189.5,90.8c0-3.1-0.6-7.5-1.7-13.1c0-0.1,0-0.1,0-0.2c-0.4-1.4-0.7-2.8-1.1-4.3c-0.2-0.7-0.4-1.5-0.6-2.2
					c0-0.1,0-0.2-0.1-0.2c-0.3-0.7-0.5-1.5-0.8-2.3c-0.6-1.6-1.2-3.2-1.8-5c0-0.1,0-0.1-0.1-0.2c-0.7-1.7-1.6-3.4-2.4-5.1
					c-3.6-7.1-8.7-14.7-15.6-21.6c-6.9-6.9-15.8-13.2-26.2-17.6c-10.4-4.4-22.3-6.8-34.6-6.4c-12.3,0.3-24.9,3.5-36.3,9.4
					C56.7,27.9,46.7,36.9,39,47.5c-7.7,10.6-12.5,23.2-14.4,35.9c-0.9,6.4-1.1,12.9-0.6,19.2c0.1,1.4,1.3,2.5,2.8,2.4l0,0
					c1.5-0.1,2.6-1.3,2.5-2.8c-0.5-6-0.3-12.1,0.5-18.1c1.8-11.9,6.2-23.7,13.5-33.7c7.2-9.9,16.6-18.4,27.3-23.9
					c10.7-5.6,22.5-8.5,34-8.8c11.5-0.3,22.7,1.9,32.4,6c9.7,4.1,18,10,24.5,16.5c6.5,6.5,11.3,13.6,14.6,20.3
					c0.8,1.7,1.6,3.2,2.3,4.8c0,0.1,0.1,0.1,0.1,0.2c0.6,1.6,1.2,3.2,1.7,4.6c0.3,0.7,0.5,1.4,0.8,2.1c0,0.1,0.1,0.2,0.1,0.2
					c0.2,0.7,0.4,1.4,0.5,2.1c0.4,1.4,0.7,2.8,1,4c0,0.1,0,0.1,0,0.2c1,5.2,1.6,9.4,1.6,12.3l0.1,1.9c0.1,1.4,1.2,2.5,2.6,2.5h0
					c1.5,0,2.7-1.2,2.6-2.7C189.6,92.2,189.6,91.6,189.5,90.8z"/>
				<path class="st9" d="M181,95.5c-1,0-1.8,0.8-1.9,1.8c0,0.3,0,0.7-0.1,1.2c0,1-0.1,2.1-0.2,3.5c0,1.4-0.4,3-0.6,4.7
					c-1,7-3.8,17.1-10.3,27.5c-0.4,0.6-0.8,1.3-1.2,1.9c0,0-0.1,0.1-0.1,0.1c-0.5,0.6-0.9,1.2-1.4,1.8c-1,1.2-1.9,2.6-2.9,3.8
					c0,0-0.1,0.1-0.1,0.1c-2.2,2.4-4.4,5-7.1,7.3c-1.3,1.2-2.6,2.4-4.1,3.4c-1.5,1.1-2.9,2.2-4.4,3.2c-1.6,1-3.2,1.9-4.8,2.9
					c0,0-0.1,0-0.1,0.1c-0.9,0.5-1.2,1.7-0.7,2.6l0.8,1.3c0.5,0.8,1.6,1.1,2.5,0.6c0,0,0,0,0,0c1.7-1,3.4-2.1,5.1-3.1
					c1.6-1.1,3.2-2.3,4.7-3.5c1.6-1.1,3-2.4,4.4-3.7c2.9-2.4,5.2-5.2,7.6-7.8c0,0,0.1-0.1,0.1-0.1c1.1-1.4,2.1-2.8,3.1-4.1
					c0.5-0.7,1-1.3,1.5-2c0,0,0.1-0.1,0.1-0.1c0.4-0.7,0.8-1.4,1.3-2.1c7-11.2,9.9-22,11.1-29.5c0.2-1.9,0.7-3.6,0.7-5.1
					c0.1-1.5,0.1-2.8,0.2-3.8c0-0.4,0-0.8,0.1-1.2c0.1-1.1-0.8-1.9-1.9-1.9H181z"/>
				<path class="st9" d="M167.4,55.9c-0.7-1.3-1.9-2.6-3.1-4.3c-0.6-0.8-1.2-1.8-2-2.6c-0.8-0.9-1.6-1.8-2.5-2.8
					c-1.7-2.1-4-3.9-6.3-6.1c-1.2-1.1-2.6-2-4-3.1c-0.7-0.5-1.4-1-2.1-1.5c0,0-0.1-0.1-0.1-0.1c-0.7-0.5-1.5-0.9-2.3-1.4
					c-6.3-3.9-14-7.5-22.9-9.4c-8.9-1.9-19-2.3-29.3-0.3c-10.3,1.9-20.6,6.5-29.7,13.3C44.6,51.1,32.5,75.5,34.3,99.9
					c0,3.1,0.7,6,1.1,9.1c0.1,1.5,0.7,3,1,4.4c0.4,1.5,0.7,3,1.2,4.4c1.1,2.8,1.9,5.8,3.4,8.4l1.9,4c0,0,0,0.1,0.1,0.1l2.3,3.8
					c6.2,10.3,15.3,18.4,25.1,24.2c0.5,0.3,1,0.6,1.5,0.8c0.8,0.4,1.8,0.1,2.2-0.6l0,0c0.5-0.8,0.2-1.8-0.6-2.3
					c-0.5-0.3-1-0.5-1.4-0.8c-9.3-5.5-18-13.3-23.9-23.1l-2.2-3.6c0,0-0.1-0.1-0.1-0.1l-1.8-3.8c-1.4-2.5-2.1-5.3-3.2-8
					c-0.5-1.4-0.7-2.8-1.1-4.2c-0.3-1.4-0.8-2.8-1-4.2c-0.4-2.9-1-5.7-1-8.6c-1.7-23.3,9.7-46.6,27.4-59.4
					c8.7-6.5,18.6-10.9,28.4-12.7c9.8-1.9,19.5-1.5,27.9,0.3c8.5,1.8,15.9,5.2,21.9,8.9c0.7,0.4,1.5,0.9,2.2,1.3
					c0,0,0.1,0.1,0.1,0.1c0.7,0.5,1.3,1,1.9,1.5c1.3,1,2.7,1.9,3.8,2.9c2.2,2.1,4.4,3.9,6.1,5.8c0.9,0.9,1.7,1.8,2.4,2.7
					c0.8,0.8,1.3,1.7,1.9,2.5c1.1,1.6,2.3,2.9,2.9,4.1c0.5,0.9,1,1.6,1.3,2.2c0.5,0.8,1.5,1,2.2,0.6l0,0c0.8-0.5,1.1-1.5,0.6-2.3
					C168.5,57.6,168,56.8,167.4,55.9z"/>
			</g>
		</g>
		<path class="st8" d="M32.9,137.4c0.3-1.9,1.7-3.4,3.7-3.4c1.6,0,2.8,1.2,3.7,2.5c1.5,2.3,2,5.1,1.5,7.8c-0.5-1.8-1.8-3.3-3.6-3.7
			c-1.4-0.4-3.1,0.3-4.4-0.6C33.1,139.5,32.8,138.4,32.9,137.4z"/>
		<path class="st2" d="M171.1,73.4c1.7,0.6,3.7,0,4.5-1.7c0.7-1.4,0.2-3-0.6-4.3c-1.3-2.3-3.5-4-6-4.7c1.3,1.2,2,3,1.6,4.7
			c-0.3,1.4-1.6,2.6-1.4,4C169.4,72.4,170.2,73.1,171.1,73.4z"/>
		<path class="st9" d="M166,109.5c-4.4,12.9-12.5,36.8-57.7-5.4c-21.6-20.2-28.9-27-44.7-19.2c-11,5.4-25,24.5-9.2,45.8
			c3.2,4.1,3.3,4.1,5.3,6.2c3.3,3.2,3.4,3.3,5.4,4.9c3.3,2.5,3.3,2.5,5.1,3.8c3.2,2,3.2,2,4.9,2.9l1.7,0.9c0,0,0,0,0.1,0
			c4.4,2,7.2,6.3,7.2,11.1v11.7h40.1v-10.9c0-4.9,2.8-9.4,7.4-11.3c2.2-0.9,4.4-2,6.5-3.1c0.3-0.2,0.7-0.4,1-0.6
			c4-2.7,5.4-3.7,10.1-7.9c4-4.2,6.4-6.7,10.2-12.9c3-5.6,3.4-6.2,5-10.4c2-6.2,2.2-6.7,3.1-11.2l0.6-3.9
			C167.3,104.6,167,106.5,166,109.5z"/>
		<g class="st10">
			<path class="st3" d="M63.7,200c0,0-0.4-0.1-1.3-0.5c-0.8-0.3-2.1-0.8-3.7-1.5c-1.6-0.7-3.7-1.3-5.9-2.5c-2.2-1.1-4.8-2.4-7.6-3.9
				c-0.1,0-0.1-0.1-0.2-0.1c-2.7-1.7-5.7-3.6-8.8-5.7c-0.1,0-0.1-0.1-0.2-0.1c-1.5-1.2-3.1-2.4-4.7-3.7c-0.8-0.7-1.7-1.3-2.5-2
				c-0.8-0.7-1.6-1.5-2.4-2.3c-1.6-1.5-3.3-3.1-5-4.7c-0.1-0.1-0.1-0.1-0.2-0.2c-1.5-1.8-3.1-3.6-4.8-5.5c-0.4-0.4-0.8-0.9-1.1-1.3
				c-0.9-1.1-2.6-1.3-3.7-0.4h0c-1.1,0.9-1.2,2.5-0.4,3.6c0.4,0.5,0.8,0.9,1.2,1.4c1.7,2,3.4,3.9,5,5.8c0.1,0.1,0.1,0.1,0.2,0.2
				c1.8,1.7,3.5,3.4,5.2,5c0.9,0.8,1.7,1.6,2.6,2.4c0.9,0.7,1.8,1.4,2.7,2.1c1.7,1.3,3.4,2.6,5,3.9c0.1,0,0.1,0.1,0.2,0.1
				c3.3,2.3,6.5,4.2,9.3,6c0.1,0,0.1,0.1,0.2,0.1c3,1.5,5.7,2.9,8,4.1c2.4,1.2,4.5,1.9,6.2,2.6c1.7,0.7,3,1.2,3.9,1.5
				c0.9,0.4,1.3,0.5,1.3,0.5L63.7,200z"/>
			<path class="st8" d="M62,20.1c0.9-0.5,1.9-1,2.9-1.5c1.7-0.8,2.3-2.9,1.5-4.5v0c-0.8-1.6-2.8-2.2-4.4-1.4c-1,0.5-2.1,1-3.1,1.6
				c-8.2,4.4-15.4,9.8-21.7,15.6c-1.3,1.2-1.4,3.3-0.2,4.7l0,0c1.2,1.4,3.3,1.5,4.7,0.2C47.5,29.3,54.3,24.3,62,20.1z"/>
			<path class="st2" d="M30.2,165.4c2.4,3,6.5,7,11.9,11.7c0.1,0,0.1,0.1,0.2,0.1c1.4,1.1,2.9,2.2,4.4,3.4c0.8,0.6,1.5,1.2,2.3,1.8
				c0.1,0.1,0.2,0.1,0.2,0.2c0.8,0.5,1.7,1.1,2.6,1.6c1.8,1.1,3.7,2.3,5.7,3.5c0.1,0,0.1,0.1,0.2,0.1c2,1.1,4.2,2.1,6.4,3.2
				c9.1,4.3,20.1,7.9,32.4,9.5c12.3,1.5,26,0.9,39.8-2.8c13.8-3.7,27.5-10.5,39.5-20.4c12-9.8,22.2-22.8,29-37.6
				c6.9-14.8,9.9-31.6,9.3-48.1c-0.5-16.6-5.5-32.9-13.5-47.1c-4.1-7.1-8.9-13.7-14.4-19.7c-1.2-1.3-3.3-1.5-4.6-0.3l0,0
				c-1.4,1.2-1.5,3.3-0.3,4.7c5.1,5.6,9.7,11.8,13.5,18.5c7.5,13.3,12.2,28.5,12.7,44.1c0.6,15.5-2.3,31.2-8.7,45.1
				c-6.4,13.9-15.9,26-27.1,35.2c-11.2,9.3-24.1,15.7-37,19.1c-12.9,3.4-25.7,4-37.3,2.6c-11.6-1.4-21.8-4.9-30.4-8.9
				c-2.1-1-4.1-2-6-3c-0.1,0-0.2-0.1-0.2-0.1c-1.8-1.1-3.6-2.3-5.3-3.3c-0.8-0.5-1.6-1-2.4-1.5c-0.1-0.1-0.2-0.1-0.3-0.2
				c-0.7-0.6-1.4-1.1-2.2-1.7c-1.5-1.1-2.8-2.2-4.2-3.2c-0.1,0-0.1-0.1-0.2-0.1c-5.1-4.4-8.9-8.1-11.1-11l-1.6-1.8
				c-1.2-1.3-3.1-1.5-4.5-0.5h0c-1.5,1.2-1.7,3.3-0.5,4.8C29.1,164.1,29.6,164.7,30.2,165.4z"/>
			<path class="st9" d="M35.1,154.1c1-0.8,1.2-2.2,0.5-3.2c-0.2-0.4-0.5-0.8-0.9-1.2c-0.7-1-1.6-2.2-2.6-3.7c-1.1-1.4-1.9-3.3-3-5.2
				c-4.4-7.8-9.5-20-11.1-35.5c-0.1-0.9-0.2-1.9-0.3-2.8c0-0.1,0-0.1,0-0.2c0-1,0-1.9,0-2.9c0-2-0.1-4-0.1-6.1c0-0.1,0-0.1,0-0.2
				c0.4-4.1,0.5-8.4,1.4-12.8c0.4-2.2,0.7-4.4,1.4-6.6c0.6-2.2,1.1-4.4,1.9-6.7c0.8-2.2,1.7-4.4,2.5-6.6c0,0,0-0.1,0.1-0.1
				c0.5-1.3-0.1-2.7-1.4-3.1l-1.8-0.6c-1.2-0.4-2.5,0.1-2.9,1.3c0,0,0,0,0,0c-0.9,2.4-1.8,4.7-2.7,7.1c-0.8,2.4-1.4,4.8-2,7.1
				c-0.7,2.3-1.1,4.7-1.5,7.1c-1,4.6-1.2,9.3-1.5,13.7c0,0.1,0,0.1,0,0.2c-0.1,2.2,0.1,4.4,0.1,6.5c0,1,0,2.1,0.1,3.1
				c0,0.1,0,0.1,0,0.2c0.1,1,0.2,2,0.3,3c1.6,16.6,7.1,29.7,11.9,38.1c1.2,2.1,2.1,4.1,3.3,5.6c1.1,1.5,2,2.9,2.7,3.9
				c0.3,0.5,0.6,0.9,0.9,1.2c0.8,1.1,2.3,1.3,3.4,0.5L35.1,154.1z"/>
			<path class="st9" d="M79.5,183.2c1.7,0.7,3.9,1.1,6.4,1.9c1.3,0.3,2.6,0.8,4.1,1.1c1.5,0.3,3,0.5,4.7,0.8c3.3,0.7,7,0.8,11.1,1.2
				c2,0.2,4.1,0,6.3,0c1.1,0,2.1,0,3.2-0.1c0.1,0,0.1,0,0.2,0c1.1-0.1,2.2-0.3,3.3-0.4c9.3-0.9,19.8-3.4,30.2-8.5
				c10.4-5,20.7-12.5,29.5-22.4c8.8-9.9,15.6-22.5,19.4-36.4c8-27.8,1.1-61.5-19.7-84.5c-2.4-3-5.3-5.5-8.1-8.2
				c-1.3-1.4-3-2.4-4.5-3.6c-1.5-1.1-3-2.4-4.6-3.4c-3.3-1.9-6.4-4.3-9.9-5.8l-5-2.5c-0.1,0-0.1-0.1-0.2-0.1l-5.2-2
				c-14.2-5.4-29.5-6.5-43.8-4.7c-0.7,0.1-1.4,0.2-2.1,0.3C93.6,6,92.8,7.1,93,8.2v0c0.1,1.2,1.2,2,2.4,1.8c0.7-0.1,1.4-0.2,2.1-0.3
				C111,8,125.7,9,139.2,14.2l5,1.9c0.1,0,0.1,0.1,0.2,0.1l4.8,2.4c3.4,1.4,6.3,3.7,9.4,5.5c1.5,1,2.9,2.2,4.4,3.3
				c1.4,1.2,3,2.1,4.3,3.5c2.6,2.6,5.5,4.9,7.7,7.8c19.8,21.9,26.4,54.1,18.8,80.6c-3.6,13.3-10,25.3-18.5,34.7
				c-8.3,9.5-18.2,16.6-28.1,21.4c-9.9,4.9-19.9,7.2-28.8,8.1c-1.1,0.1-2.1,0.2-3.2,0.4c-0.1,0-0.1,0-0.2,0c-1,0-2.1,0-3.1,0
				c-2.1,0-4.1,0.2-6,0c-3.9-0.4-7.4-0.4-10.6-1.1c-1.6-0.3-3.1-0.5-4.5-0.8c-1.4-0.2-2.7-0.7-3.9-1c-2.4-0.7-4.5-1.1-6.1-1.8
				c-1.2-0.5-2.2-0.9-3-1.2c-1.1-0.4-2.3,0.1-2.7,1.2l0,0c-0.5,1.1,0.1,2.3,1.2,2.8C77.1,182.3,78.2,182.7,79.5,183.2z"/>
		</g>
	</g>
</g>
</svg>
