<svg xmlns="http://www.w3.org/2000/svg" width="38" height="38" viewBox="0 0 38 38">
    <path fill="#3d82ab" d="M770.5 561a19 19 0 1 0 19 19 19 19 0 0 0-19-19zm-5.521 28.723h-4.627V575.8h4.627zm-2.314-15.823h-.03a2.644 2.644 0 1 1 .03 0zm19 15.823h-4.627v-7.448c0-1.872-.67-3.148-2.344-3.148a2.533 2.533 0 0 0-2.374 1.692 3.167 3.167 0 0 0-.152 1.129v7.774h-4.628s.061-12.616 0-13.922h4.627v1.971a4.593 4.593 0 0 1 4.17-2.3c3.044 0 5.327 1.99 5.327 6.266zm0 0" transform="translate(-751.5 -561)"/>
</svg>
