<svg xmlns="http://www.w3.org/2000/svg" viewBox="0 0 345 80"><defs><style>.cls-1{fill:#4f4c4c;}.cls-2{fill:#079ae1;}.cls-3{fill:#fff;}.cls-4{fill:none;}</style></defs><title>muenchener_verein_logo_345x80</title><g id="Layer_2" data-name="Layer 2"><g id="textos_y_elementos" data-name="textos y elementos"><g id="g16"><path id="path22" class="cls-1" d="M117.9,33.7v8a1.38,1.38,0,0,1-1.44,1.46A1.4,1.4,0,0,1,115,41.74V33.58A2.34,2.34,0,0,0,112.51,31a4.4,4.4,0,0,0-2.43.79v9.93a1.38,1.38,0,0,1-1.43,1.46,1.4,1.4,0,0,1-1.47-1.46v-9a1.57,1.57,0,0,0-.85-1.44,2.68,2.68,0,0,0-1.41-.31,9.28,9.28,0,0,0-2.65.39V41.74a1.38,1.38,0,0,1-1.44,1.46,1.4,1.4,0,0,1-1.46-1.46v-11a1.72,1.72,0,0,1,1.27-1.67,14.24,14.24,0,0,1,4.4-.73,5.17,5.17,0,0,1,3.55,1.21,7.35,7.35,0,0,1,3.89-1.21c3.42,0,5.42,2,5.42,5.36"/><path id="path24" class="cls-1" d="M131.75,24.56A1.71,1.71,0,1,1,130,22.87,1.71,1.71,0,0,1,131.75,24.56Zm-5.33,0a1.7,1.7,0,1,1-1.7-1.69A1.71,1.71,0,0,1,126.42,24.56ZM133,29.78v11a1.7,1.7,0,0,1-1.27,1.64,14.09,14.09,0,0,1-4.4.73c-3.78,0-5.69-1.89-5.69-5.55V29.78a1.45,1.45,0,0,1,2.9,0v8a2.49,2.49,0,0,0,2.79,2.79,11.57,11.57,0,0,0,2.77-.39V29.78a1.45,1.45,0,0,1,2.9,0"/><path id="path26" class="cls-1" d="M148.47,33.89v7.87a1.45,1.45,0,0,1-2.9,0v-8a2.5,2.5,0,0,0-2.8-2.76,10.06,10.06,0,0,0-2.76.39V41.76a1.46,1.46,0,0,1-2.91,0v-11a1.7,1.7,0,0,1,1.27-1.67,14.19,14.19,0,0,1,4.4-.73c3.78,0,5.7,1.92,5.7,5.55"/><path id="path28" class="cls-1" d="M161.62,29.33a1.38,1.38,0,0,1,.73,1.21,1.27,1.27,0,0,1-1.3,1.32,3.28,3.28,0,0,1-1.41-.45A5.8,5.8,0,0,0,157.5,31c-1.7,0-2.74,1-2.74,3v3.52c0,2,1,3,2.74,3a5.34,5.34,0,0,0,2.17-.45,3.23,3.23,0,0,1,1.33-.39A1.28,1.28,0,0,1,162.35,41a1.38,1.38,0,0,1-.73,1.21,8.92,8.92,0,0,1-4.07,1,5.28,5.28,0,0,1-5.69-5.67V34c0-3.64,2.34-5.67,5.69-5.67a8.57,8.57,0,0,1,4.07,1"/><path id="path30" class="cls-1" d="M167.85,24.3v4.86a7.28,7.28,0,0,1,3.16-.82c3.41,0,5.3,2,5.3,5.61v7.81a1.45,1.45,0,0,1-2.9,0v-8A2.47,2.47,0,0,0,170.67,31a4.49,4.49,0,0,0-2.82,1v9.75a1.46,1.46,0,0,1-2.91,0V24.3a1.46,1.46,0,0,1,2.91,0"/><path id="path32" class="cls-1" d="M182.6,33.92v.51h5.56V34c0-1.89-.82-3-2.77-3S182.6,32.12,182.6,33.92Zm8.46.09v1.38a1.74,1.74,0,0,1-1.78,1.72H182.6v.54a2.62,2.62,0,0,0,2.79,2.9,7.45,7.45,0,0,0,2.85-.59,2.64,2.64,0,0,1,1-.25A1.3,1.3,0,0,1,190.55,41a1.25,1.25,0,0,1-.76,1.21,11.49,11.49,0,0,1-4.4,1,5.33,5.33,0,0,1-5.7-5.67V34a5.69,5.69,0,0,1,11.37,0"/><path id="path34" class="cls-1" d="M206,33.89v7.87a1.45,1.45,0,0,1-2.9,0v-8A2.49,2.49,0,0,0,200.29,31a10.07,10.07,0,0,0-2.77.39V41.76a1.45,1.45,0,0,1-2.9,0v-11a1.69,1.69,0,0,1,1.26-1.67,14.2,14.2,0,0,1,4.41-.73c3.77,0,5.69,1.92,5.69,5.55"/><path id="path36" class="cls-1" d="M212.27,33.92v.51h5.56V34c0-1.89-.82-3-2.77-3S212.27,32.12,212.27,33.92Zm8.46.09v1.38A1.73,1.73,0,0,1,219,37.11h-6.69v.54a2.62,2.62,0,0,0,2.79,2.9,7.41,7.41,0,0,0,2.85-.59,2.69,2.69,0,0,1,1-.25A1.31,1.31,0,0,1,220.23,41a1.26,1.26,0,0,1-.77,1.21,11.41,11.41,0,0,1-4.4,1,5.33,5.33,0,0,1-5.69-5.67V34a5.68,5.68,0,0,1,11.36,0"/><path id="path38" class="cls-1" d="M230.63,28.54a1.32,1.32,0,0,1,1.16,1.38,1.3,1.3,0,0,1-1.38,1.32c-.42,0-1-.17-1.69-.17a1.48,1.48,0,0,0-1.53,1.61v9.08a1.45,1.45,0,0,1-2.9,0V32.6a4,4,0,0,1,4.23-4.26,10.13,10.13,0,0,1,2.11.2"/><path id="path40" class="cls-1" d="M251.25,29.75a2.53,2.53,0,0,1-.14.73l-3.84,11.4a1.86,1.86,0,0,1-1.89,1.32,1.88,1.88,0,0,1-1.91-1.32l-3.84-11.45a2.29,2.29,0,0,1-.14-.68,1.44,1.44,0,0,1,2.82-.4L245.38,39l3.08-9.65a1.43,1.43,0,0,1,2.79.4"/><path id="path42" class="cls-1" d="M256.3,33.92v.51h5.56V34c0-1.89-.82-3-2.77-3S256.3,32.12,256.3,33.92Zm8.46.09v1.38A1.74,1.74,0,0,1,263,37.11H256.3v.54a2.62,2.62,0,0,0,2.79,2.9,7.45,7.45,0,0,0,2.85-.59,2.64,2.64,0,0,1,1-.25A1.3,1.3,0,0,1,264.25,41a1.25,1.25,0,0,1-.76,1.21,11.49,11.49,0,0,1-4.4,1,5.33,5.33,0,0,1-5.7-5.67V34a5.69,5.69,0,0,1,11.37,0"/><path id="path44" class="cls-1" d="M274.66,28.54a1.32,1.32,0,0,1,1.16,1.38,1.3,1.3,0,0,1-1.38,1.32c-.43,0-1-.17-1.7-.17a1.47,1.47,0,0,0-1.52,1.61v9.08a1.45,1.45,0,0,1-2.9,0V32.6a4,4,0,0,1,4.23-4.26,10.2,10.2,0,0,1,2.11.2"/><path id="path46" class="cls-1" d="M280.53,33.92v.51h5.56V34c0-1.89-.82-3-2.77-3S280.53,32.12,280.53,33.92ZM289,34v1.38a1.74,1.74,0,0,1-1.78,1.72h-6.68v.54a2.62,2.62,0,0,0,2.79,2.9,7.45,7.45,0,0,0,2.85-.59,2.6,2.6,0,0,1,1-.25A1.3,1.3,0,0,1,288.48,41a1.25,1.25,0,0,1-.76,1.21,11.49,11.49,0,0,1-4.4,1,5.33,5.33,0,0,1-5.7-5.67V34A5.69,5.69,0,0,1,289,34"/><path id="path48" class="cls-1" d="M295.45,29.78v12A1.38,1.38,0,0,1,294,43.2a1.4,1.4,0,0,1-1.47-1.44v-12A1.4,1.4,0,0,1,294,28.34,1.38,1.38,0,0,1,295.45,29.78Zm.25-5.22A1.69,1.69,0,1,1,294,22.87a1.7,1.7,0,0,1,1.69,1.69"/><path id="path50" class="cls-1" d="M310.88,33.89v7.87a1.46,1.46,0,0,1-2.91,0v-8A2.49,2.49,0,0,0,305.18,31a10,10,0,0,0-2.76.39V41.76a1.46,1.46,0,0,1-2.91,0v-11a1.69,1.69,0,0,1,1.27-1.67,14.14,14.14,0,0,1,4.4-.73c3.78,0,5.7,1.92,5.7,5.55"/><path id="path52" class="cls-1" d="M107,58.56a.76.76,0,0,1,.81.75.75.75,0,0,1-.15.43l-6.81,11.1h6.4a.64.64,0,0,1,0,1.28H99.88a.73.73,0,0,1-.77-.73.9.9,0,0,1,.15-.49l6.81-11.06H99.78a.64.64,0,0,1,0-1.28H107"/><path id="path54" class="cls-1" d="M117.1,62.91V71a.81.81,0,0,1-.64.79,9.26,9.26,0,0,1-2.92.48c-2.38,0-3.58-1.27-3.58-3.46V62.91a.63.63,0,0,1,.66-.66.64.64,0,0,1,.65.66v6a2,2,0,0,0,2.27,2.2,7.94,7.94,0,0,0,2.24-.34V62.91a.64.64,0,0,1,.66-.66.63.63,0,0,1,.66.66"/><path id="path56" class="cls-1" d="M121.55,59v6.91l4.1-3.48a.76.76,0,0,1,.5-.2.61.61,0,0,1,.62.64.63.63,0,0,1-.25.51l-4,3.3,4.22,4.53a.58.58,0,0,1,.19.45.61.61,0,0,1-.63.63.59.59,0,0,1-.51-.23l-4.25-4.64v4.22a.66.66,0,0,1-1.32,0V59a.66.66,0,0,1,1.32,0"/><path id="path58" class="cls-1" d="M136.13,62.91V71a.81.81,0,0,1-.64.79,9.21,9.21,0,0,1-2.92.48c-2.38,0-3.58-1.27-3.58-3.46V62.91a.63.63,0,0,1,.66-.66.64.64,0,0,1,.66.66v6a2,2,0,0,0,2.26,2.2,8,8,0,0,0,2.25-.34V62.91a.64.64,0,0,1,.65-.66.63.63,0,0,1,.66.66"/><path id="path60" class="cls-1" d="M146.42,65.72v5.94a.64.64,0,0,1-.66.65.62.62,0,0,1-.65-.65v-6a2,2,0,0,0-2.27-2.23,8.08,8.08,0,0,0-2.26.35v7.84a.63.63,0,0,1-.66.65.64.64,0,0,1-.66-.65V63.55a.81.81,0,0,1,.66-.81,9.77,9.77,0,0,1,2.92-.49c2.36,0,3.58,1.28,3.58,3.47"/><path id="path62" class="cls-1" d="M153.13,58.46a.62.62,0,0,1,.54.6.57.57,0,0,1-.59.56c-.26,0-.45-.09-1-.09a1.28,1.28,0,0,0-1.36,1.29v1.63H153a.61.61,0,0,1,.65.64.6.6,0,0,1-.65.61h-2.27v8a.62.62,0,0,1-.65.65.64.64,0,0,1-.66-.65V61a2.43,2.43,0,0,1,2.61-2.59,5.08,5.08,0,0,1,1.08.09"/><path id="path64" class="cls-1" d="M156.71,59v3.43H159a.61.61,0,0,1,.65.64.6.6,0,0,1-.65.61h-2.27v5.87c0,1,.49,1.51,1.34,1.51.52,0,.69-.1.94-.1a.59.59,0,0,1,.64.62.61.61,0,0,1-.56.62,5.55,5.55,0,0,1-1.06.09,2.48,2.48,0,0,1-2.61-2.76V59a.64.64,0,0,1,.65-.65.63.63,0,0,1,.66.65"/><path id="path66" class="cls-1" d="M163.09,71.37a.95.95,0,1,1-.94-1,.94.94,0,0,1,.94,1"/><path id="path68" class="cls-1" d="M171.57,59V71.66a.68.68,0,0,1-1.36,0V59a.68.68,0,0,1,1.36,0"/><path id="path70" class="cls-1" d="M182,65.72v5.94a.64.64,0,0,1-.66.65.63.63,0,0,1-.66-.65v-6a2,2,0,0,0-2.26-2.23,8.16,8.16,0,0,0-2.27.35v7.84a.63.63,0,0,1-.66.65.64.64,0,0,1-.65-.65V63.55a.8.8,0,0,1,.65-.81,9.78,9.78,0,0,1,2.93-.49c2.36,0,3.58,1.28,3.58,3.47"/><path id="path72" class="cls-1" d="M191.35,64.32v6.45a7.46,7.46,0,0,0,2.27.32,2.05,2.05,0,0,0,2.26-2.22V65.7a2,2,0,0,0-2.26-2.23A3.57,3.57,0,0,0,191.35,64.32Zm0-5.3v4a4.36,4.36,0,0,1,2.38-.76,3.22,3.22,0,0,1,3.47,3.52v3a3.25,3.25,0,0,1-3.58,3.54,8.7,8.7,0,0,1-3-.5A.79.79,0,0,1,190,71V59a.64.64,0,0,1,.66-.65.62.62,0,0,1,.65.65"/><path id="path74" class="cls-1" d="M201,65.76v.77h4.53v-.74a2.27,2.27,0,1,0-4.53,0Zm5.84,0v1.13a.83.83,0,0,1-.85.83h-5v1a2.1,2.1,0,0,0,2.26,2.28,5.63,5.63,0,0,0,2.15-.44,1.3,1.3,0,0,1,.46-.12.61.61,0,0,1,.62.6.58.58,0,0,1-.36.57,8,8,0,0,1-2.87.61,3.35,3.35,0,0,1-3.58-3.56V65.81a3.58,3.58,0,0,1,7.16,0"/><path id="path76" class="cls-1" d="M214.53,62.78a.6.6,0,0,1-.21,1.16,1.42,1.42,0,0,1-.47-.1,4.5,4.5,0,0,0-1.78-.37,1.58,1.58,0,0,0-1.76,1.4c0,.73.58,1.12,1.26,1.41l1.68.71a2.66,2.66,0,0,1,1.92,2.52,2.83,2.83,0,0,1-3.14,2.8,6,6,0,0,1-2.63-.58.58.58,0,0,1-.37-.54.57.57,0,0,1,.6-.6,1.63,1.63,0,0,1,.45.14,5.33,5.33,0,0,0,1.89.36c1.15,0,1.92-.67,1.92-1.54,0-.68-.56-1.24-1.66-1.69l-1.44-.6A2.47,2.47,0,0,1,209,64.85a2.73,2.73,0,0,1,3-2.6,6.31,6.31,0,0,1,2.48.53"/><path id="path78" class="cls-1" d="M219.11,59v3.43h2.27a.61.61,0,0,1,.65.64.6.6,0,0,1-.65.61h-2.27v5.87c0,1,.49,1.51,1.34,1.51.52,0,.69-.1.94-.1a.59.59,0,0,1,.64.62.61.61,0,0,1-.56.62,5.49,5.49,0,0,1-1.06.09,2.48,2.48,0,0,1-2.61-2.76V59a.64.64,0,0,1,.65-.65.63.63,0,0,1,.66.65"/><path id="path80" class="cls-1" d="M224.84,65.76v.77h4.53v-.74a2.27,2.27,0,1,0-4.53,0Zm5.84,0v1.13a.83.83,0,0,1-.85.83h-5v1a2.1,2.1,0,0,0,2.26,2.28,5.63,5.63,0,0,0,2.15-.44,1.3,1.3,0,0,1,.46-.12.61.61,0,0,1,.62.6.58.58,0,0,1-.37.57,7.91,7.91,0,0,1-2.86.61,3.35,3.35,0,0,1-3.58-3.56V65.81a3.58,3.58,0,0,1,7.16,0"/><path id="path82" class="cls-1" d="M240.57,65.72v5.94a.64.64,0,0,1-.66.65.63.63,0,0,1-.66-.65v-6A2,2,0,0,0,237,63.47a8.16,8.16,0,0,0-2.27.35v7.84a.63.63,0,0,1-.66.65.64.64,0,0,1-.65-.65V63.55a.8.8,0,0,1,.65-.81,9.78,9.78,0,0,1,2.93-.49c2.36,0,3.58,1.28,3.58,3.47"/><path id="path84" class="cls-1" d="M257.28,59V71.66a.67.67,0,0,1-1.34,0V65.72H250.1v5.94a.68.68,0,0,1-1.35,0V59a.68.68,0,0,1,1.35,0v5.4h5.84V59a.67.67,0,0,1,1.34,0"/><path id="path86" class="cls-1" d="M266.33,59.62a.83.83,0,1,1-1.66,0,.83.83,0,1,1,1.66,0Zm-3.4,0a.84.84,0,1,1-1.67,0,.84.84,0,0,1,1.67,0Zm.71,8c-1.41,0-2.44.47-2.44,1.74s1,1.72,2.5,1.72a7.5,7.5,0,0,0,2-.3V67.63Zm3.41-2.49v5.94a.81.81,0,0,1-.57.79,8.81,8.81,0,0,1-2.78.44c-2.28,0-3.81-.83-3.81-3s1.76-2.94,3.79-2.94h2.05V65.14c0-1-.75-1.67-2.05-1.67a4.19,4.19,0,0,0-1.94.45,1.5,1.5,0,0,1-.65.21A.61.61,0,0,1,260.8,63a5.75,5.75,0,0,1,2.82-.74c1.9,0,3.43,1,3.43,2.89"/><path id="path88" class="cls-1" d="M277.2,65.72v5.94a.64.64,0,0,1-.66.65.62.62,0,0,1-.65-.65v-6a2,2,0,0,0-2.27-2.23,8.08,8.08,0,0,0-2.26.35v7.84a.63.63,0,0,1-.66.65.64.64,0,0,1-.66-.65V63.55a.81.81,0,0,1,.66-.81,9.77,9.77,0,0,1,2.92-.49c2.36,0,3.58,1.28,3.58,3.47"/><path id="path90" class="cls-1" d="M281.24,65.7v3.19a2.06,2.06,0,0,0,2.29,2.2,7.44,7.44,0,0,0,2.26-.32V64.32a3.63,3.63,0,0,0-2.26-.85A2.06,2.06,0,0,0,281.24,65.7ZM287.1,59V71a.81.81,0,0,1-.58.79,8.61,8.61,0,0,1-3,.5,3.25,3.25,0,0,1-3.6-3.52v-3a3.22,3.22,0,0,1,3.46-3.52,4.37,4.37,0,0,1,2.4.76V59a.63.63,0,0,1,.66-.65.64.64,0,0,1,.65.65"/><path id="path92" class="cls-1" d="M291.15,65.76v.77h4.52v-.74a2.26,2.26,0,1,0-4.52,0Zm5.84,0v1.13a.83.83,0,0,1-.85.83h-5v1a2.1,2.1,0,0,0,2.26,2.28,5.63,5.63,0,0,0,2.15-.44,1.3,1.3,0,0,1,.46-.12.61.61,0,0,1,.62.6.59.59,0,0,1-.37.57,7.91,7.91,0,0,1-2.86.61,3.35,3.35,0,0,1-3.58-3.56V65.81a3.58,3.58,0,0,1,7.16,0"/><path id="path94" class="cls-1" d="M306.87,65.72v5.94a.64.64,0,0,1-.65.65.63.63,0,0,1-.66-.65v-6a2,2,0,0,0-2.27-2.23,8.14,8.14,0,0,0-2.26.35v7.84a.63.63,0,0,1-.66.65.64.64,0,0,1-.66-.65V63.55a.81.81,0,0,1,.66-.81,9.77,9.77,0,0,1,2.92-.49c2.36,0,3.58,1.28,3.58,3.47"/><path id="path96" class="cls-1" d="M311.38,71.37a.95.95,0,1,1-.95-1,1,1,0,0,1,.95,1"/><path id="path98" class="cls-2" d="M33.62,33.09A25.41,25.41,0,1,1,59,58.5,25.4,25.4,0,0,1,33.62,33.09"/><path id="path100" class="cls-3" d="M60.68,27.56A7.8,7.8,0,0,0,56.8,28.7a5.56,5.56,0,0,0-3.58-1.14,14.47,14.47,0,0,0-4.51.76,2,2,0,0,0-1.5,2v11a1.74,1.74,0,0,0,1.8,1.8,1.71,1.71,0,0,0,1.77-1.8V31.23a8.59,8.59,0,0,1,2.32-.32,2.37,2.37,0,0,1,1.25.27A1.23,1.23,0,0,1,55,32.33v9a1.74,1.74,0,0,0,1.79,1.8,1.7,1.7,0,0,0,1.77-1.8V31.55a4,4,0,0,1,2.1-.64,2,2,0,0,1,2.16,2.24v8.18a1.74,1.74,0,0,0,1.8,1.8,1.71,1.71,0,0,0,1.77-1.8V33.27c0-3.57-2.15-5.71-5.75-5.71"/><path id="path102" class="cls-3" d="M73.92,38.26l-2.81-9.42a1.77,1.77,0,0,0-3.47.49,2.52,2.52,0,0,0,.16.79l3.85,11.46a2.23,2.23,0,0,0,2.23,1.55,2.18,2.18,0,0,0,2.2-1.54l6.86-17.11a24.76,24.76,0,0,0-2-4.23,1.93,1.93,0,0,0-.41.68L73.92,38.26"/></g><rect class="cls-4" width="345" height="80"/></g></g></svg>