<svg xmlns="http://www.w3.org/2000/svg" width="80" height="80" viewBox="0 0 80 80">
    <defs>
        <style>
            .cls-1{fill:#fff}
        </style>
    </defs>
    <g id="Multiple_Desks" transform="translate(-1192 -3706)">
        <g id="skills" transform="translate(1195 3686)">
            <g id="Group_10941" transform="translate(15.865 46.887)">
                <g id="Group_10940">
                    <path id="Path_12320" d="M138.835 188.03a1.445 1.445 0 0 0-.622-.043h-.073a10.027 10.027 0 0 0 3.035-7.191v-14.355a1.441 1.441 0 0 0-1.441-1.441H129.06a8.011 8.011 0 0 0-8 8v7.792a10.027 10.027 0 0 0 3.035 7.191h-.073a1.448 1.448 0 0 0-.622.043 14.646 14.646 0 0 0-13.31 14.574v7.076a1.441 1.441 0 0 0 1.441 1.441H150.7a1.441 1.441 0 0 0 1.441-1.441V202.6a14.647 14.647 0 0 0-13.306-14.57zm-14.9-13.01V173a5.125 5.125 0 0 1 5.119-5.119h9.234v3.856a3.538 3.538 0 0 1-3.534 3.534H123.94v-.252zm0 5.773v-2.639h10.819a6.378 6.378 0 0 0 3.534-1.065v3.7a7.177 7.177 0 0 1-14.353 0zm11 10.059l-3.827 3.827-3.827-3.827zm14.317 17.38h-36.28v-4.147h11.76a1.441 1.441 0 1 0 0-2.882h-11.674A11.764 11.764 0 0 1 123.3 190.94l6.8 6.8a1.441 1.441 0 0 0 2.038 0l6.8-6.8a11.76 11.76 0 0 1 10.33 11.656z" class="cls-1" transform="translate(-110.09 -165)"/>
                </g>
            </g>
            <g id="Group_10943" transform="translate(35.45 83.089)">
                <g id="Group_10942">
                    <path id="Path_12321" d="M248.46 416.642a1.44 1.44 0 1 0 .422 1.019 1.451 1.451 0 0 0-.422-1.019z" class="cls-1" transform="translate(-246 -416.22)"/>
                </g>
            </g>
            <g id="Group_10945" transform="translate(31.433 27)">
                <g id="Group_10944">
                    <path id="Path_12322" d="M223.6 27a5.476 5.476 0 0 0-1.441 10.758v3.519a1.441 1.441 0 1 0 2.882 0v-3.519A5.476 5.476 0 0 0 223.6 27zm0 8.07a2.594 2.594 0 1 1 2.594-2.594 2.6 2.6 0 0 1-2.594 2.594z" class="cls-1" transform="translate(-218.127 -27)"/>
                </g>
            </g>
            <g id="Group_10947" transform="translate(54.302 36.636)">
                <g id="Group_10946">
                    <path id="Path_12323" d="M388.361 95.475a5.476 5.476 0 0 0-8.626 6.588l-2.489 2.489a1.441 1.441 0 0 0 2.038 2.038l2.488-2.488a5.476 5.476 0 0 0 6.589-8.627zm-2.038 5.707a2.594 2.594 0 1 1 .76-1.834 2.6 2.6 0 0 1-.76 1.833z" class="cls-1" transform="translate(-376.824 -93.871)"/>
                </g>
            </g>
            <g id="Group_10949" transform="translate(58.063 61.705)">
                <g id="Group_10948">
                    <path id="Path_12324" d="M413.165 267.833a5.485 5.485 0 0 0-5.282 4.035h-3.52a1.441 1.441 0 0 0 0 2.882h3.52a5.476 5.476 0 1 0 5.282-6.917zm0 8.07a2.594 2.594 0 1 1 2.594-2.594 2.6 2.6 0 0 1-2.594 2.591z" class="cls-1" transform="translate(-402.922 -267.833)"/>
                </g>
            </g>
            <g id="Group_10951" transform="translate(52.598 65.74)">
                <g id="Group_10950">
                    <path id="Path_12325" d="M367.46 296.252a1.44 1.44 0 1 0 .422 1.019 1.451 1.451 0 0 0-.422-1.019z" class="cls-1" transform="translate(-365 -295.83)"/>
                </g>
            </g>
            <g id="Group_10953" transform="translate(0 61.669)">
                <g id="Group_10952">
                    <path id="Path_12326" d="M14.278 271.614h-3.52a5.476 5.476 0 1 0 0 2.882h3.519a1.441 1.441 0 0 0 0-2.882zm-8.8 4.035a2.594 2.594 0 1 1 2.594-2.594 2.6 2.6 0 0 1-2.596 2.594z" class="cls-1" transform="translate(0 -267.579)"/>
                </g>
            </g>
            <g id="Group_10955" transform="translate(6.254 36.498)">
                <g id="Group_10954">
                    <path id="Path_12327" d="M56.115 103.588l-2.488-2.488a5.474 5.474 0 1 0-2.038 2.038l2.488 2.488a1.441 1.441 0 1 0 2.038-2.038zm-5.408-3.371a2.594 2.594 0 1 1 .76-1.834 2.6 2.6 0 0 1-.761 1.834z" class="cls-1" transform="translate(-43.399 -92.907)"/>
                </g>
            </g>
        </g>
        <path id="Path_252" fill="none" d="M0 0h80v80H0zm0 0h80v80H0z" transform="translate(1192 3706)"/>
    </g>
</svg>
