<?xml version="1.0" encoding="utf-8"?>
<!-- Generator: Adobe Illustrator 25.0.1, SVG Export Plug-In . SVG Version: 6.00 Build 0)  -->
<svg version="1.1" id="Layer_1" xmlns="http://www.w3.org/2000/svg" xmlns:xlink="http://www.w3.org/1999/xlink" x="0px" y="0px"
	 viewBox="0 0 215 215" style="enable-background:new 0 0 215 215;" xml:space="preserve">
<style type="text/css">
	.st0{clip-path:url(#SVGID_2_);}
	.st1{clip-path:url(#SVGID_4_);}
	.st2{fill:#1C77C3;}
	.st3{fill:#E5F4EB;}
	.st4{clip-path:url(#SVGID_6_);}
	.st5{clip-path:url(#SVGID_8_);}
	.st6{fill:#A4C9E7;}
	.st7{fill:#05AAAB;}
	.st8{clip-path:url(#SVGID_10_);}
	.st9{fill:#04B8B5;}
	.st10{fill:#77ADDB;}
	.st11{fill-rule:evenodd;clip-rule:evenodd;fill:#FFFFFF;}
	.st12{fill:#F2F2F2;}
</style>
<g>
	<defs>
		<rect id="SVGID_1_" x="-1.6" width="215" height="215"/>
	</defs>
	<clipPath id="SVGID_2_">
		<use xlink:href="#SVGID_1_"  style="overflow:visible;"/>
	</clipPath>
	<g class="st0">
		<g>
			<defs>
				<path id="SVGID_3_" d="M163.5,164.9l13.7-1.5c15.9-22.1,28-46.2,36.5-55.6c-2.8,0.8-34.1,11-53,20l-0.6,10l-3.3-8.1
					c-2,1-3.7,2-5.2,3c-21.4,13.8-45.6,37.1-42.4,65.1c1.4,11.7,14,9,22,6.2c16.2-5.7,30.3-19.8,42.3-35.6L163.5,164.9z"/>
			</defs>
			<use xlink:href="#SVGID_3_"  style="overflow:visible;fill:#66AEDE;"/>
			<clipPath id="SVGID_4_">
				<use xlink:href="#SVGID_3_"  style="overflow:visible;"/>
			</clipPath>
			<g class="st1">
				<g>
					<path class="st2" d="M190,129.7c-2.9,0.4-5.5,0.6-7.1,0.6l0-0.8c6.1,0.1,27.3-4,27.5-4l0.1,0.8
						C210,126.5,198.5,128.7,190,129.7z"/>
				</g>
				<g>
					<g>
						<path class="st2" d="M109.2,212.6l-0.7-0.4c11.1-19.7,26.3-39.2,45.2-57.9c16.2-16.1,35-29.4,53.2-42.2
							c2.7-1.9,5.5-3.9,8.2-5.8l0.5,0.6c-2.7,1.9-5.5,3.9-8.2,5.8c-18.2,12.8-36.9,26.1-53.1,42.1
							C135.5,173.6,120.3,193,109.2,212.6z"/>
					</g>
					<g>
						<path class="st3" d="M168.7,141.6l-0.8,0c0.4-10.5,5-30.9,5-31.1l0.8,0.2C173.6,110.9,169.1,131.2,168.7,141.6z"/>
					</g>
					<g>
						<path class="st3" d="M148.9,159.5c0-0.2-2.4-17.4-1-35.4l0.8,0.1c-1.4,17.9,1,35,1,35.2L148.9,159.5z"/>
					</g>
					<g>
						<path class="st2" d="M197.3,153.2c-11.5,1.5-32.7,0.3-40.7-0.7l0.1-0.8c9.2,1.2,35.5,2.5,44.8-0.1l0.2,0.8
							C200.5,152.7,199,153,197.3,153.2z"/>
					</g>
					<g>
						<path class="st3" d="M170.2,179.3c-10.1,1.3-21.4,0.3-36.9-1.8l0.1-0.8c19.9,2.7,33,3.5,45.2,0l0.2,0.8
							C176,178.4,173.2,178.9,170.2,179.3z"/>
					</g>
					<g>
						<path class="st3" d="M128.9,182.3c-0.3-1.9-0.6-3.9-1-6c-1.9-11.8-4.3-26.6-1.4-38.4l0.8,0.2c-2.9,11.7-0.5,26.3,1.4,38.1
							c0.3,2.1,0.7,4.1,1,6L128.9,182.3z"/>
					</g>
				</g>
			</g>
		</g>
		<g>
			<defs>
				<path id="SVGID_5_" d="M47.7,78L34,73.1C23.2,46.4,16.8,18.6,10.5,6.8c2.6,1.5,32.2,19.8,49.4,33.9L58,51.1l5.4-7.5
					c1.8,1.5,3.3,3,4.6,4.4c18.6,19.5,37.5,49.6,27.2,77.5c-4.3,11.7-16.6,5.7-24.1,0.9C55.9,116.5,45,98.5,36.6,79.1L47.7,78z"/>
			</defs>
			<use xlink:href="#SVGID_5_"  style="overflow:visible;fill:#1C77C3;"/>
			<clipPath id="SVGID_6_">
				<use xlink:href="#SVGID_5_"  style="overflow:visible;"/>
			</clipPath>
			<g class="st4">
				<g>
					<path class="st3" d="M29.4,35.3c2.9,1.1,5.5,2,7.1,2.4l0.2-0.8c-6.3-1.4-27-10.9-27.2-11l-0.3,0.8C9.7,26.9,21,32.1,29.4,35.3z
						"/>
				</g>
				<g>
					<g>
						<path class="st3" d="M91.5,140.7l0.8-0.2c-6.5-23-17.2-46.8-31.9-70.8C47.8,49.1,31.9,30.7,16.4,13c-2.3-2.6-4.6-5.3-7-8
							L8.8,5.5c2.3,2.7,4.7,5.4,7,8c15.4,17.7,31.4,36.1,43.9,56.6C74.3,94,85,117.7,91.5,140.7z"/>
					</g>
					<g>
						<path class="st3" d="M48.3,52.9l0.8,0.2c2.2-10.9,2.6-32.9,2.6-33.2l-0.8,0C50.9,20.1,50.5,42,48.3,52.9z"/>
					</g>
					<g>
						<path class="st3" d="M64.1,76.2c0.1-0.2,6.8-17.2,9.9-36.1l-0.8-0.1c-3.1,18.7-9.8,35.7-9.9,35.9L64.1,76.2z"/>
					</g>
					<g>
						<path class="st3" d="M16,57.5c11.5,4.4,33.5,8.6,42,9.6l0.1-0.8c-9.7-1.1-37.1-6.4-46-11.4l-0.4,0.7
							C12.9,56.2,14.3,56.9,16,57.5z"/>
					</g>
					<g>
						<path class="st3" d="M37.3,91.2c10,3.9,21.9,5.7,38.3,7.4l0.1-0.8c-21.1-2.2-34.8-4.6-46.4-11.3l-0.4,0.7
							C31.5,88.7,34.3,90,37.3,91.2z"/>
					</g>
					<g>
						<path class="st3" d="M78.9,104.6c0.8-1.9,1.6-3.9,2.5-6c5-11.7,11.1-26.2,11.1-39.1l-0.8,0c0,12.7-6.1,27.1-11.1,38.7
							c-0.9,2.1-1.7,4.1-2.5,6L78.9,104.6z"/>
					</g>
				</g>
			</g>
		</g>
		<g>
			<defs>
				<path id="SVGID_7_" d="M165.9,130.1c-7.1,3.5-18.5,9.3-26.2,4.7c-2.5-1.5-4.3-3.9-5.8-6.3c-3.9-6.3-6.6-13.3-7.8-20.6
					c-0.4-2.2-0.6-4.5,0.1-6.7c0.7-2.1,2.7-4,4.9-3.9c2.2,0.1,4.1,1.2,5.4-1.4c2.3-4.7,0.8-11.1,1-16.1c0.1-3.6,1.1-10.9,5.6-11.8
					c3.1-0.6,5.7,3.4,8.8,2c1.1-0.5,1.7-1.7,2-2.9c1.7-7,0.2-18,7-22.7c1.4-1,3.3-1.5,4.9-0.8c1.7,0.7,2.6,2.6,4.3,3.4
					c1.9,1,4.4,0.2,6-1.2c1.6-1.4,2.6-3.4,3.6-5.4c2.4-4.8,5.2-9.6,9.4-13c6.8-5.4,18.5-5.1,18.2,6c-0.1,4.3-3.5,7.8-6.8,10.7
					c-3,2.6-12.5,10.3-5.4,13.6c1.4,0.6,2.9,1,4,1.9c2.4,1.8,2.8,5.5,1.5,8.2c-1.3,2.7-3.8,4.6-6.5,6c-2.6,1.4-5.5,2.5-8,4.1
					c-1.9,1.2-3.7,3.4-2.8,5.4c0.9,2.1,3.9,2.2,5.7,3.7c2,1.7,2,4.9,0.8,7.2c-1.3,2.3-3.5,3.8-5.7,5.3c-2.1,1.5-4.3,2.9-6.4,4.4
					c-2.3,1.6-4.9,3.7-4.5,6.4c0.2,1.7,1.5,3,2.2,4.5c1.4,3,0.6,6.8-1.4,9.4C171.9,126.8,168.9,128.6,165.9,130.1z"/>
			</defs>
			<use xlink:href="#SVGID_7_"  style="overflow:visible;fill:#1C77C3;"/>
			<clipPath id="SVGID_8_">
				<use xlink:href="#SVGID_7_"  style="overflow:visible;"/>
			</clipPath>
			<g class="st5">
				<g>
					<path class="st6" d="M135.4,149.9l-0.8-0.3c4.6-12.3,9.5-24.6,14.7-36.6c3.3-7.7,7.2-15.2,11-22.3c1.6-3,3.2-6.1,4.8-9.1
						c2.2-4.3,4.5-8.8,6.8-13.1c10.3-18.6,23.5-35.6,36.2-52l0.7,0.5c-12.7,16.4-25.9,33.4-36.1,51.9c-2.4,4.3-4.6,8.7-6.8,13
						c-1.6,3.1-3.2,6.2-4.8,9.2c-3.8,7.2-7.7,14.6-10.9,22.3C144.9,125.4,140,137.7,135.4,149.9z"/>
				</g>
				<g>
					<path class="st6" d="M154.2,103.3l-0.2-0.3c-5.8-12.5-12.7-38.3-13-48.4l0.9,0c0.3,10,7,35.2,12.7,47.8
						c4.2-1.1,43.9-11.9,53.8-24.2l0.7,0.6c-10.6,13.2-52.9,24.1-54.6,24.6L154.2,103.3z"/>
				</g>
				<g>
					<path class="st6" d="M167.6,77.1l-0.1-0.5c-0.1-0.3-5.8-33.2-4-48.2l0.9,0.1c-1.7,13.8,3.1,43.1,3.9,47.4
						c4.3-1.6,34.9-13.1,43.2-19.6l0.5,0.7c-9.1,7-42.6,19.4-44,19.9L167.6,77.1z"/>
				</g>
				<g>
					<path class="st7" d="M146.3,124.5c-0.8,0-1.2,0-1.2,0l-0.2,0l-0.1-0.1c-11.2-10-16.2-22.7-20-33.8l0.8-0.3
						c3.8,11,8.7,23.5,19.6,33.3c2.2,0,26.8,0.2,41.8-7.3l0.4,0.8C173.5,124.1,151.6,124.5,146.3,124.5z"/>
				</g>
			</g>
		</g>
		<g>
			<defs>
				<path id="SVGID_9_" d="M49.3,190.6c7.2,3.5,18.7,9.4,26.6,4.7c2.5-1.5,4.3-3.9,5.9-6.4c4-6.4,6.7-13.5,7.9-20.9
					c0.4-2.2,0.6-4.6-0.2-6.7c-0.8-2.1-2.7-4-5-3.9c-2.3,0.1-4.1,1.2-5.5-1.4c-2.4-4.7-0.9-11.3-1.1-16.4c-0.1-3.7-1.2-11.1-5.7-12
					c-3.1-0.6-5.8,3.5-8.9,2.1c-1.1-0.5-1.7-1.7-2-2.9c-1.7-7.1-0.3-18.3-7.1-23c-1.4-1-3.4-1.5-5-0.8c-1.7,0.8-2.7,2.6-4.3,3.4
					c-2,1-4.4,0.2-6.1-1.2c-1.6-1.5-2.6-3.5-3.6-5.4c-2.5-4.9-5.3-9.8-9.6-13.1c-6.9-5.5-18.8-5.2-18.4,6.1
					c0.2,4.4,3.6,7.9,6.9,10.8c3.1,2.6,12.7,10.4,5.6,13.7c-1.4,0.6-2.9,1-4.1,1.9c-2.4,1.8-2.8,5.5-1.5,8.3
					c1.3,2.8,3.9,4.7,6.6,6.1c2.7,1.4,5.6,2.5,8.1,4.2c1.9,1.2,3.7,3.5,2.8,5.5c-0.9,2.1-4,2.2-5.8,3.7c-2,1.7-2,5-0.7,7.3
					c1.3,2.3,3.6,3.9,5.7,5.3c2.2,1.5,4.3,2.9,6.5,4.4c2.3,1.6,4.9,3.7,4.6,6.5c-0.2,1.7-1.5,3-2.2,4.6c-1.4,3.1-0.6,6.8,1.5,9.6
					C43.3,187.3,46.3,189.1,49.3,190.6z"/>
			</defs>
			<use xlink:href="#SVGID_9_"  style="overflow:visible;fill:#77ADDB;"/>
			<clipPath id="SVGID_10_">
				<use xlink:href="#SVGID_9_"  style="overflow:visible;"/>
			</clipPath>
			<g class="st8">
				<g>
					<path class="st2" d="M80.3,210.7l0.8-0.3c-4.7-12.4-9.7-24.9-15-37.1c-3.4-7.8-7.3-15.4-11.2-22.6c-1.6-3-3.2-6.1-4.8-9.3
						c-2.2-4.4-4.6-8.9-7-13.2c-10.5-18.8-23.9-36-36.8-52.6L5.6,76c12.9,16.6,26.3,33.8,36.8,52.5c2.4,4.3,4.7,8.8,7,13.2
						c1.6,3.1,3.3,6.3,4.9,9.3c3.8,7.3,7.8,14.8,11.2,22.6C70.6,185.8,75.6,198.3,80.3,210.7z"/>
				</g>
				<g>
					<path class="st9" d="M61.1,163.4l0.2-0.3c5.8-12.7,12.8-38.8,13-49.1l-0.9,0c-0.2,10.1-7,35.7-12.8,48.4
						C56.3,161.2,16.1,150.5,6,138l-0.7,0.6c10.8,13.3,53.6,24.3,55.5,24.8L61.1,163.4z"/>
				</g>
				<g>
					<path class="st2" d="M47.4,137l0.1-0.5c0.1-0.3,5.8-33.6,3.9-48.8l-0.9,0.1c1.7,14-3,43.7-3.8,48c-4.4-1.6-35.4-13.2-43.9-19.7
						l-0.6,0.7c9.2,7.1,43.2,19.5,44.6,20.1L47.4,137z"/>
				</g>
				<g>
					<path class="st9" d="M69.2,184.9c0.8,0,1.2,0,1.2,0l0.2,0l0.1-0.1c11.3-10.1,16.3-23,20.2-34.3l-0.9-0.3
						c-3.8,11.2-8.8,23.9-19.8,33.8c-2.3,0-27.1,0.3-42.3-7.3l-0.4,0.8C41.6,184.5,63.8,184.9,69.2,184.9z"/>
				</g>
			</g>
		</g>
		<g>
			<g>
				<path class="st2" d="M78.2,123l-0.8-0.2c5.8-21.3,17.9-46.3,24.6-59.3c9.5-18.4,19.8-35.4,25.7-42.4l0.6,0.5
					c-5.8,6.9-16.1,23.9-25.6,42.2C96,76.9,83.9,101.8,78.2,123z"/>
			</g>
			<g>
				<path class="st2" d="M132.7,11.7c1.1-2,2.2-4,3.9-5.5c1-0.9,3.2-2.3,4.6-1.3c4.1,2.9-6.4,11.6-8.1,12.9
					c-2.1,1.5-6.1,4.9-6.1,4.9S130.8,15.2,132.7,11.7z"/>
			</g>
			<g>
				<path class="st2" d="M130.7,25.4c1.6-0.7,3.3-1.4,5-1.6c1.1-0.1,3.1,0.1,3.5,1.3c1.2,3.8-9.4,4.2-11.1,4.1c-2,0-6.1,0.2-6.1,0.2
					S127.9,26.7,130.7,25.4z"/>
			</g>
			<g>
				<path class="st2" d="M119.5,20.2c-0.4-1.7-0.8-3.4-0.7-5.2c0.1-1.1,0.6-3,1.9-3.2c3.9-0.5,2.5,10,2.1,11.6c-0.4,2-0.9,6-0.9,6
					S120.3,23.2,119.5,20.2z"/>
			</g>
			<g>
				<path class="st2" d="M124.2,35.1c1.6-0.8,3.2-1.6,4.9-1.9c1-0.2,3.1-0.1,3.5,1.1c1.4,3.7-9.2,4.7-10.8,4.7
					c-2,0.1-6.1,0.5-6.1,0.5S121.4,36.5,124.2,35.1z"/>
			</g>
			<g>
				<path class="st2" d="M112.8,30.5c-0.5-1.7-1-3.4-1-5.2c0-1.1,0.4-3,1.7-3.3c3.9-0.7,3,9.8,2.8,11.5c-0.3,2-0.5,6.1-0.5,6.1
					S113.7,33.5,112.8,30.5z"/>
			</g>
			<g>
				<path class="st2" d="M118.3,46.9c1.8-0.9,3.6-1.9,5.6-2.2c1.2-0.2,3.5-0.2,4.1,1.3c1.6,4.2-10.5,5.5-12.4,5.6
					c-2.3,0.1-7,0.7-7,0.7S115.1,48.5,118.3,46.9z"/>
			</g>
			<g>
				<path class="st2" d="M105,41.7c-0.6-1.9-1.2-3.9-1.2-5.9c0-1.2,0.4-3.5,1.9-3.8c4.4-0.9,3.6,11.3,3.4,13.2c-0.3,2.3-0.5,7-0.5,7
					S106.1,45.2,105,41.7z"/>
			</g>
			<g>
				<path class="st2" d="M111.1,59.4c1.8-1,3.5-2,5.5-2.5c1.2-0.3,3.5-0.3,4.1,1.1c1.8,4.2-10.2,6-12.2,6.1c-2.3,0.2-6.9,1-6.9,1
					S108,61.2,111.1,59.4z"/>
			</g>
			<g>
				<path class="st2" d="M97.7,54.9C97,53,96.3,51,96.2,49c-0.1-1.2,0.3-3.5,1.8-3.9c4.4-1.1,4.1,11.1,3.9,13c-0.2,2.3-0.2,7-0.2,7
					S98.9,58.2,97.7,54.9z"/>
			</g>
			<g>
				<path class="st2" d="M104.4,73.7c2-1.3,3.9-2.6,6.2-3.2c1.4-0.4,4-0.6,4.8,1c2.3,4.7-11.4,7.5-13.6,7.8
					c-2.7,0.4-7.9,1.6-7.9,1.6S101,76,104.4,73.7z"/>
			</g>
			<g>
				<path class="st2" d="M88.7,69.3c-0.9-2.1-1.8-4.3-2.1-6.6c-0.1-1.4,0.1-4,1.8-4.5c5-1.5,5.4,12.5,5.3,14.7
					c-0.1,2.7,0.2,8.1,0.2,8.1S90.3,73.1,88.7,69.3z"/>
			</g>
			<g>
				<path class="st2" d="M97,88.5c1.8-1.4,3.7-2.8,5.9-3.6c1.3-0.5,4-0.9,4.9,0.6c2.7,4.5-10.8,8.3-13,8.8c-2.6,0.6-7.8,2.2-7.8,2.2
					S93.7,91,97,88.5z"/>
			</g>
			<g>
				<path class="st2" d="M81,85.3c-1.1-2.1-2.2-4.2-2.6-6.5c-0.2-1.4-0.2-4,1.5-4.7c4.9-1.9,6.3,12.1,6.4,14.3c0.1,2.7,0.8,8,0.8,8
					S82.9,89,81,85.3z"/>
			</g>
		</g>
		<path class="st10" d="M73.6,35.6c2.6-1.6,4.9-6,3.7-8c-0.7-1.1-2.1-1.5-3.4-1.3c-1.3,0.2-2.3,1-3.3,1.9c-2,1.8-3.6,6.7,0.3,7.9
			C71.8,36.4,72.7,36.1,73.6,35.6z"/>
		<path class="st10" d="M170.2,24.6c2.3-0.7,4.9-3.5,4.4-5.3c-0.3-1-1.3-1.6-2.3-1.6c-1-0.1-2,0.3-2.9,0.8c-1.9,1-4,4.4-1.3,6
			C168.7,24.9,169.5,24.9,170.2,24.6z"/>
		<path class="st10" d="M157,41c1.5-0.7,3.1-2.8,2.6-4c-0.3-0.6-1-1-1.7-0.9c-0.7,0-1.3,0.4-1.9,0.8c-1.2,0.8-2.4,3.3-0.4,4.3
			C156,41.3,156.5,41.3,157,41z"/>
		<path class="st10" d="M93.5,13.4c1.1-1.3,1.6-3.9,0.7-4.7c-0.5-0.5-1.3-0.5-2-0.1c-0.6,0.3-1.1,0.9-1.4,1.5
			c-0.7,1.3-0.8,4,1.4,4.1C92.7,14.2,93.1,13.9,93.5,13.4z"/>
		<path class="st10" d="M74,12.9c1.1-1.2,1.7-3.8,0.8-4.7c-0.5-0.5-1.3-0.5-2-0.2c-0.6,0.3-1.1,0.9-1.5,1.5c-0.8,1.2-0.9,4,1.3,4.1
			C73.2,13.6,73.7,13.3,74,12.9z"/>
		<g>
			<g>
				<circle class="st6" cx="101.4" cy="136.5" r="75.6"/>
				<g>
					<g>
						<path class="st11" d="M83.7,199.7c0.3,0.1,1.1-0.2,1.4-0.3c-0.5-0.4-1.8-0.5-2.5-0.9c0.1,0-2.3-1.4-1.8-0.2
							c0.1,0.3,0.6,0,0.8,0.2c-0.3,0.4-0.4,0.3-0.1,0.5c0,0-2.6-1.4,0-1.5c-1.8-1.6,0.1-1.1-0.5-2.1c-0.4-0.7,1.5-1.4,0.5-2
							c-0.5-0.3-1-0.2-1.5-0.6c-0.7-0.5,0-1.5,0.6-1.3c0.1,0,0.4-1.6,0.5-1.9c-0.2-0.1-1.5-1.7-1.2-2.1c0.4-0.4,2.1,1.1,2.6,0
							c0.2-0.4-0.6-1.5-0.5-1.9c0.8-0.1,6,0.1,5.1-2.2c-0.3-0.8-2.5-2.1-2.3-2.7c0.8,0.1,2,1.2,2.8,0.8c0.7-0.3,1.2,0.4,1.9-0.4
							c0.1-0.1,1.3-1.4,0.9-1.6c-0.4,0-0.6,0.2-0.6,0.6c-0.4-0.6,0.3-0.9,0.7-1.3c0.1,0.1,0.2,0.3,0.3,0.4c0.4-0.7,2.8-3.7,2.9-3.8
							c1.2-1.4,0.2-3.3,1.4-4.5c1.1-1,2.3-1.7,3.7-2.3c0.4-0.2,2-1,2.3-0.9c2.5,0.8,2.2-2.2,3.8-3.6c1.6-1.4,0.4-8.4,1.8-8.9
							c0.7-0.3,2.9-2.9,4-4.2c1.1-1.1,1.2-2.7,0.8-4.1c-0.6-2.3-1.3-1-2.9-2c-1.3-0.8-2.3-2.3-3.9-2.6c-0.9-0.1-1.9,0.1-2.9-0.1
							c-0.4-0.1-1.5-0.8-1.9-0.2c0.1-0.1-0.9,0.4-0.8,0.4c-0.1-0.1,0-1.2-0.3-1.5c-0.5-0.5-2.2-0.9-2.8-1.1
							c-1.4-0.4-1.8,1.3-2.1-0.7c-1.2-0.3-2.3-1.7-2.1-2c0.1-0.1-1.8-4.2-2.1-3.8c0-1.4-4.2-3-5.3-2.4c-1,0.7-2.7-0.6-3.3-1.3
							c-0.7-0.7-0.6-1.5-1.8-2c-0.5-0.2-1.3-0.1-1.1-0.9c0.2-0.9-2.1-1-2.3-1.9c0.3,0.1,0.6-0.1,0.9-0.2c-0.9,0.3-1.9-0.3-2.8,0.4
							c-1.3,1-2-0.5-3.4-0.2c-1.8,0.3-0.6-0.3-1.7-1c0.5,0.3-2-1.1-1.5-1.1c-0.5-0.1,0.1,0.9-0.5,1.1c-0.9,0.3-1.7,0.5-1.1,1.6
							c1,2-2.1,1.1-0.6-0.3c0.3-0.2,0.3-2.8,0.6-2.8c-0.4-0.1-3.2,1.7-3.5,2.1c-0.9-1.5-2.4,3.6-3,3.7c-0.3-1.2-1.5-1.8-2.5-2.1
							c-0.9-0.3-1.8,1.8-2.9,0.6c-2-2.1-1.1-5.4-0.1-7.8c0.4-1.1-3.8-1.4-4.3-1c-1,0.8,0.2-1.7,0.1-1.7c0.1-1.1,0.4-1.7,0.8-1.7
							c0.3-0.6,1.8-3.4,1.7-3.8c-0.6-1.5-3.3,1.1-3.5,1.8c-0.3,0.6-0.8,1-1,1.6c-0.3,0.6-0.7-0.1-1.2,0.1c-1.1,0.7-2.8,0.3-2.5-1.3
							c0.3-2-0.5-6,1.7-7.3c0.7-0.4,0.8-2.4,1.6-3.1c0.1-0.1,2.4-1.4,2.2-1.7c0.3,0.4,2.1-0.4,2.3,0.1c0.2,0.4,1.2,0.8,1.6,0.6
							c0,0,0.2-0.9,0.2-0.9c0,0-0.7-0.1-0.7-0.3c0.1-0.3,2.2-0.1,2.3-0.1c1,0.1,1.8,0.9,2.5,0.4c1.2-0.8,0.5,4.4,0.9,4.9
							c0.3,0.3,0.1,0.9,0.6,0.8c0.7-0.1,0.9-6.7,2.6-8.1c1.3-1,2.6-1.9,4-2.7c0.4-0.2,1.6-0.8,1.8-1.2c-0.1-0.2-0.3-0.5-0.5-0.2
							c-0.1-0.4,0.6-0.2,0.7-0.6c0.1-0.4-0.4-0.6-0.3-0.7c0,0,0.4-0.9,0.3-0.8c0,0,0,0.1,0,0.1c0.7,0.1-0.1-0.6-0.2-0.7
							c0.9,0.5,0.5-1,1.4-1.1c-0.6,0.3-0.5,1-0.4,1.4c0.2,1,1-1.3,0.9-1.2c0.9-0.4,2.2-1.1,3.1-1.7c-0.2-0.1-0.4,0.1-0.7-0.1
							c0.9-0.3,2-0.2,2.9-0.7c0-0.9,0.5-1.9,1.6-2.1c1.6-0.3,3.5-1.2,5.1-1.8c-0.2,0.5,0.1,0.1,0.6,0.3c-0.5-1.4-3.4,2.5-2,1.7
							c1.2-0.7,5-1.3,5.6-2.4c0-0.1-0.3-0.8-0.2-0.8c-1,0-1,1.2-2.2,1.2c-2.1,0-0.8-1.3-1.3-1.9c-0.4,0.1-0.7,0-1-0.3
							c0.2,0,2.9-0.7,1.5-1c-2.3-0.5-3.8,2-5.6,2c1.4-0.9,3.3-2.7,5-2.9c1.8-0.3,4.3,0.6,5.9-0.5c1.4-1,2.4-0.3,3.2-1.8
							c0.3-0.4-1-1-1.3-1.1c0.1-0.2,0.4,0,0.5-0.3c-2.1-0.9-2.6-1.9-2.8-4.3c-1.1,0.8-4.7,2.5-2.8-0.3c-0.7-0.3-2.9-2.1-3.7-0.9
							c-0.4,0.6-1,1.5-1.6,1.8c-1.4,0.7-0.2,0.5-0.7,1.5c-0.8,1.6-2.8,1.4-3.7,2.8c-0.6,0.9-0.8,1.5-1.7,1.9
							c-0.8,0.4-1.1-0.6-0.7-1.3c0.3,0.3,0.5,0.4,0.8,0.1c0.1-0.4-0.4-0.2-0.6-0.3c0.3-0.5,0.6-0.9,1-1.4c-0.1-0.1-2.2-0.4-2.1-0.9
							c0.1-1.1-1.3-0.5-1.5-0.8c1.1-1.4,1.1-2,3.2-3.1c0.7-0.4,4.8-2.4,5.6-1.9c-0.1,0.5-0.6,0.4-0.9,0.6c0.6,0.1,2.3,0.4,2.9-0.1
							c-0.1-0.1-0.8-1.2-0.5-1.5c-0.1,0.1,1.2,0,1.3,0c0.7-0.2,1.4-0.2,1.7-0.9c0.3-0.6,2.5-1.4,3-1.1c2.8,1.6-3.8,3.3-3.9,3.1
							c0.1,0.5,1.9-0.3,2.4,0.9c0.1,0.3,2.1,1,2.3,0.7c0.1-0.1-0.6-0.9-0.6-1.1c2.1,1,2,0.5,1.7-0.9c-0.3-1.4,1.3,0.1,1.3,0.1
							c0.3,0.2,1.8-0.7,2-0.9c-0.5-0.4-1.4-0.4-1.9-0.9c-0.4-0.4,1.1-0.5,0.6-1c-0.6-0.5-1.7-0.4-1.3-1.4c-0.4-0.1-0.7-0.1-1.1,0.1
							c0.1,0.2,0.3,0,0.4,0.2C87.6,65,87.2,65,86.8,65c0.1-0.2,0.5-0.2,0.5-0.5c-1.1-0.1-1.7,0.5-2.7,0.8c0.3-0.4,0.7-0.5,1.1-0.8
							c-1.1,0.1-2.1,0.5-2.9,1.2c0.1,0.1,0.2,0.2,0.3,0.4c-0.8,0.7-1.9,0.9-2.8,1.4c0.2-0.6,0.8-0.5,1.1-0.9c-0.4,0-0.7,0.1-1,0.2
							c0.4-0.1,1.6-1.2,1.9-1.5c-1.7-0.2-2.4,2-4.1,1.7c0.3-0.4,1-0.2,1.3-0.8c-0.6,0.1-2.9,1.6-3.2,0.8c0-0.1,4.2-1.7,4.6-2.3
							c-0.3,0-0.6,0.3-0.9-0.1c0.2-0.2,0.5-0.3,0.8-0.5c-1.4,0-5.5,1.7-5.1,2.6c-0.5,0.4-1.1,0.5-1.7,0.3c0.2-0.4,1.1-0.4,0.4-1
							c-1.3,0.5-2.6,1-3.9,1.6c-3,1.3-5.8,2.8-8.6,4.5c-4.5,2.8-8.3,6.1-12,9.9c-2,2-9.5,10.8-9.5,12.7c0,1.4-0.8,2.6-1.3,3.8
							c-0.4,1-0.5,2.4-1,3.3c-1.1,2-0.6,4.2-1.1,6.5c0.6-0.5,1.9-10.8,3-10.4c0.2,0.1-0.7,4.3-0.9,4.8c-0.9,2.2,0.3,4.8-0.3,7.1
							c-0.1,0.2-0.4,1.4-0.4,1.6c-1,0.8,0.3,2,0.3,2.9c0,0.5,2.7,2.8,3.2,3.2c1.1,0.7,1.3-0.5,2.3-0.3c0.9,0.2,1.2,1.9,1.7,2.6
							c0.6,1,3.1,0.9,3.6,1.3c0.3,0.4,0,2.3,1.2,2.5c0-0.1,0-0.8,0.1-0.9c0.3-0.2,1.1,1.1,0.8,1.3c-0.4,0.1-0.7-0.1-0.9-0.4
							c0,0.2-0.2,2.7,0.5,2.2c0-0.1,0.1-0.3,0.1-0.5c1,0.4,0.9,1.8,1.6,2c0.9,0.3,1.6,1.4,2.3,1.7c0.6,0.3,0.5-2.2,1.6-2.3
							c1-0.1,1.5,2.4,1.8,3c0.5,0.9-0.7,3,0,3.6c0.7,0.7-1.6,2.4-1.8,3.1c-0.1,0.5-1.2,1.1-1.2,1.2c0.1,0.6-0.3,1.4-0.5,1.9
							c-0.6,1.6-0.3,1.7,0.7,2.4c0,0-1.9,3.8-0.8,4.7c1.7,1.4,4,4.9,4.6,7.1c1.1,3,2.8,4.9,5.7,6.4c2.3,1.2,4,3.3,4,6.1
							c0.1,1.6-0.2,3.7,0.5,5.3c0.5,1.1-0.4,2.9,0.3,3.8c0.5,0.6-0.1,1,0.1,1.5c0.3,0.6,0.9,1.6,0.9,2.3c0,1.2,0,2.6,0.1,3.8
							c0,0.4-0.4,1.1-0.2,1.3c0.3,0.3,1.9,4.3,1.9,5.4c0,0.3,1.2-0.1,0.1-1.2c1.3-0.7,1,2.4,1.1,2.4c-1.2-0.4-0.4-0.1-0.3,1.5
							c0.1,0.9-0.2,0.5,0.5,0.6c1.2,0.3,0,1,0.4,1.7c0.9,1.3,2.2,2.4,3.2,3.4C79.4,199.6,81.9,199.4,83.7,199.7
							C84,199.8,83.4,199.7,83.7,199.7z M88.7,76.4c-0.4,0.4-0.9,0.4-1.3,0.6C87.7,76.5,88.2,76.6,88.7,76.4z M84.7,76.1
							c0.3,0,0.6,0,0.7,0.3c0,0.1-1.6,0.2-1.9,0.6C83.8,76.3,84.4,76.4,84.7,76.1C84.9,76.3,84.4,76.4,84.7,76.1z M80.8,78.9
							C81.1,79,80.3,78.8,80.8,78.9C80.8,78.9,80.7,78.9,80.8,78.9z M78.6,74.7c0.1-0.2,0.3-0.1,0.3,0.1C78.8,75,78.7,75,78.6,74.7
							C78.6,74.6,78.6,74.8,78.6,74.7z M76.4,81.2C75.8,81.2,77.1,81.2,76.4,81.2C76.4,81.2,76.5,81.2,76.4,81.2z M77.1,78.7
							c-2.1,2-0.5,0-1.1,0.6c0,0,0,0.1,0,0.1C75.8,79.2,77,78.7,77.1,78.7C76.8,79,76.7,78.8,77.1,78.7z M76.3,76.4
							c-0.4,0.4-0.4,0.4-0.9,0.3C75.7,76.5,76,76.6,76.3,76.4z M85.7,68.9c-0.1,0-0.3,0-0.5,0C85.9,68.4,85.8,68.9,85.7,68.9
							C85.6,68.9,85.8,68.9,85.7,68.9z M87.2,67.9c-0.2,0.3-0.6,0.1-0.8,0.2C86.7,67.6,86.7,67.6,87.2,67.9z M78.7,68.6
							c0.2-0.2,0.4-0.3,0.6-0.2C79.5,68.7,78,68.9,78.7,68.6C78.8,68.5,78.6,68.7,78.7,68.6z M78.3,68.2c0.2,0.1,0.2,0.2-0.1,0.3
							C78.1,68.4,78.1,68.3,78.3,68.2C78.4,68.2,78.2,68.2,78.3,68.2z M67.3,87c0,0-3.3,1.3-3.1,0.5c-0.1,0.3,1.1-0.9,0.9-0.8
							c0.3-0.1,2.5-0.3,3.2-0.3C67.9,86.8,67.6,86.9,67.3,87C66.6,87.3,67.6,86.9,67.3,87z M69.9,85.4c2.7,0.3-1.6,1.1-2.1,0.6
							C68.5,85.4,69.2,85.3,69.9,85.4C70.2,85.4,69.2,85.3,69.9,85.4z M69.5,68.3c0.7-0.5,1.5-0.8,2.5-1
							C71.3,67.9,70.3,68.1,69.5,68.3L69.5,68.3z M69.6,83.1c-0.1,0.1-0.2,0.1-0.4,0C69.5,83.1,69.6,83,69.6,83.1
							C69.7,83.3,69.6,83,69.6,83.1z M68.8,84.8C68.8,84.8,68.6,84.7,68.8,84.8C68.9,84.8,68.7,84.8,68.8,84.8z M68,83.4
							c1,0.5,0.4,2-0.4,0.8c0,0.7-1.3,1.9-1.9,2.1c0.2-0.3,0.3-0.6,0.2-0.9c-0.2-0.2-0.6,0.3-0.9,0.3c0.1,0.4,1.8-2.9,0.4-1.9
							c-0.5,0.4-3.9,4-4.1,3.8c-0.3-0.3,1.5-3,1.7-3.1C64.1,83.5,66.6,82.7,68,83.4z M66.1,70.7c0.1-0.1,1.2-0.8,1.4-0.6
							c0.3,0.4-1.8,1-1.9,1C65.7,70.8,66,70.8,66.1,70.7C66.5,70.5,66,70.8,66.1,70.7z M66.4,79.6c0,0-0.4,0.9-0.7,0.5
							C65.4,79.9,66.3,79.2,66.4,79.6C66.3,79.8,66.3,79.5,66.4,79.6z M64,72.7c0.1,0,1.9-1.1,2-0.7C65.9,72.2,63.7,72.7,64,72.7z
							 M63.5,74.5c-0.1,0.2-0.2,0.3-0.5,0.3C63.1,74.6,63.2,74.6,63.5,74.5z M62.2,78.8c0.2-0.2,0.8-1.1,0.5-1.5
							c0.2,0.2-1.1-0.1-0.5-0.3c0.2-0.1,1.6-0.8,1.8-0.6c0.4,0.4-1.7,2.7-2.2,2.8C62,79,62.1,78.9,62.2,78.8
							C62.6,78.6,62.1,78.9,62.2,78.8z M63.4,81.6c1.5-0.5,2.1-1.4,3-0.2c0.4,0.4,0.3,1.6-0.5,1.3c0.2,0.1-2.5-0.2-2-0.5
							c-0.5,0.3-1.6,0.6-2.2,0.3C62.3,82.2,62.8,81.8,63.4,81.6C63.8,81.5,62.8,81.8,63.4,81.6z M61.3,78.8c0.1,0.4,0,0.5-0.4,0.6
							C61.1,79.2,61.2,79,61.3,78.8z M39.6,111.8C38.9,111.8,40.1,111.8,39.6,111.8C39.5,111.8,39.7,111.8,39.6,111.8z M48.4,118.1
							C48.1,118.2,48.9,118,48.4,118.1C48.3,118.1,48.4,118.1,48.4,118.1z M69.7,125.2C69.4,125.1,70.2,125.2,69.7,125.2
							C69.7,125.2,69.8,125.2,69.7,125.2z M73.2,187.9C72.6,187.8,73.6,187.4,73.2,187.9C73.1,187.9,73.3,187.9,73.2,187.9z
							 M74.8,156.5C74.6,156.3,74.9,156.6,74.8,156.5C74.8,156.5,74.8,156.5,74.8,156.5z M75,176C74.6,176.2,75.5,175.9,75,176
							C74.9,176.1,75.1,176,75,176z M77.1,197.1c-0.3-0.2-0.3-0.3,0-0.3C77.4,196.9,77.4,197,77.1,197.1
							C77,197.1,77.2,197.1,77.1,197.1z M79.8,198.3c-0.3-0.1-0.3-0.2,0.1-0.3C80.2,198,80.1,198.2,79.8,198.3
							C79.7,198.3,79.9,198.3,79.8,198.3z M74.1,190.5C74,190.5,74,190.5,74.1,190.5C74,190.5,74.1,190.5,74.1,190.5z M80.8,64.6
							L80.8,64.6L80.8,64.6L80.8,64.6z M55.1,76.8C55.1,76.8,55.1,76.8,55.1,76.8L55.1,76.8z M55.8,76.2L55.8,76.2L55.8,76.2z
							 M175.9,122.9L175.9,122.9c-1.5-5.5-2.6-10.8-4.8-16.1c-2.7-6.3-6.2-12.2-10.5-17.5c-4-5-8.7-9.5-13.8-13.4
							c-2.5-1.9-5.1-3.6-7.9-5.1c-1.3-0.8-2.6-1.5-4-2.1c-0.6-0.3-2.6-0.8-2.9-1.3c0,0.2,1.2,0.8,1.3,1c-0.8-0.2-2.9-1.1-2.9-1.2
							c0.1-0.1,0.2,0,0.2-0.2c-1.2-0.8-5.6-2.4-6.5-1.2c0.2-0.3,3.1,3.1,3.1,3.7c0.2,1.3,2.2,2.7,3.5,3.1c1.8,0.6,0.4-0.2,1.2-0.6
							c0.5-0.2,1,0.8,1.4,0.6c0,0,0,0,0,0c-0.1-0.3-0.3-0.5-0.4-0.7c-0.1,0,3.3,3.5,3.7,2.7c-0.4-0.9-1-2-2-2.9
							c-0.8-0.8-2.2-0.9-3.1-1.7c-0.5-0.4-2.2-1.7-2.4-2.3c2.3,0.1,4.9,4.9,7.2,3c-0.3-0.2-0.6-0.4-0.9-0.7c0.4,0.1,2.3,0.7,1.7,1.5
							c-1.8-0.3,1.5,1.5,1.6,1.7c-0.3,0-0.6-0.3-0.9-0.3c0.1,0.6,1.9,1.3,2.1,2.4c-1.1,0.2-0.6-0.7-1.3,0.2
							c-0.2,0.3-1.2,0.2-1.7,0.2c-1.3,0.1-2.7-2-3.6-2.7c0.4,1.2,1,1.7,2.4,2.6c0.6,0.4-0.9,0.5-0.9,1.1c0,0,0.4,0.2,0.4,0.3
							c0,0.1-0.3-0.2-0.4-0.3c0.1-0.1-0.2,2.1-0.3,2c1,1.2-1.4,0.8-1.4,0.9c0.2,0.3,0.6,0.4,0.7,0.8c-0.7,0-1.3-0.1-1.9,0.2
							c1,0.3,6.4,2.8,5.2,4.7c-0.4,0.6-4-0.1-4.7-0.2c-1.4-0.1-0.1,1.4-0.1,1.5c0.2,1.1,1.1,1.6,1,2.8c-0.1,0.9,0.9,0.9,1.1,1.7
							c0.3,0.7,0.1,0.7,0.8,0.8c1.2,0.2,1.2,0,2.3,0.8c0.7,0.6,1-0.5,1.9-0.5c2.2-0.1,0.3-0.5,1.3-0.8c1.3-0.3-0.4-2.3-0.3-2.7
							c0.1-0.5-0.1-1.1,0.6-1.3c1.1-0.3-0.3-1.4-0.4-1.7c-0.2-0.9,3,0.7,2.6-1.5c1.9,0.6,3.8,2.2,5.5,3.2c1,0.6,2,1.2,2.8,2.1
							c0.9,1.1-1.3,0.7-1.4,1c-0.1,0.4,1.9,1.3,2.2,1.2c0-0.2-0.3-1.3-0.3-1.6c-0.1-0.8-1.3-1.6-1.2-2.2c0.4,0,0.7,0.2,1,0.4
							c-1.1-1.3-2.9-1.5-4.1-2.4c-0.7-0.6-1.7-1.1-2.4-1.7c0,0-1.3-1.7-0.4-1.4c1.5,0.5,3,2,4.5,2.7c1.2,0.6,1.4,1,2.3,2
							c0.3,0.4,2.1,2.5,2.6,2.6c0,0,1.4,1.3,2,1.5c-0.3-0.6-0.5-1.4-0.8-1.9c-0.4-0.7-2.1-1-2.1-2c0.4,0,0.4-0.4,1.2-0.3
							c-0.4,0,0.5-0.6,0.5-0.5c-1.6-0.9-3.7-3.5-4.2-5.3c0.4,0,0.7,0.6,1.1,0.3c-0.1-0.3-0.2-0.6-0.1-0.9c0.1,0.1,1.6,1.4,1.3,1.7
							c-0.4,0-0.7-0.2-1.1-0.5c0.2,0.7,1,0.8,1.3,1.3c0-0.2-0.1-0.4,0.1-0.6c1.3,0.5,3.9,2.6,4.3,4.1c-0.6,0.1-1.6-1.1-2-0.8
							c-0.1,0.3-0.1,0.6,0.1,0.9c-0.2,0-0.3,0.1-0.5,0.1c0.2,0.2,0.3,0.4,0.3,0.6c-0.2,0.1-0.4,0.1-0.6,0.2c0.2,0.7,4,4.4,4.3,4
							c0.1-0.1-0.1-0.5-0.1-0.6c0.2-0.2,0.8,0.8,1.1,0.6c0.3-0.1-0.2-0.5,0-0.6c0.6-0.3,2.9,4.2,3.2,4.7c1.1,2.1,0.4,0.8-0.5,1.1
							c-0.1,0.2-0.2,0.4-0.2,0.7c-1.3-0.3-2.8-1.1-3.9-1.9c-1.7-1.3,0.6,3.4-0.5,2.8c-0.6-0.3-0.9-0.8-1.7-0.9
							c-1.1-0.1-1.4-1.2-2.3-1.6c-0.8-0.3-3.9-0.6-3.5-2c0.3-1.2-1.2-2.2-1.8-2.7c-0.3-0.2-3.7,0.2-4.3,0.4c-0.9,0.3-2.5,0.6-3,1.5
							c-0.9,1.7-3-0.5-3.9-0.2c-0.4,0.2,0,1.6-0.2,2c-0.4,0.7-1.2,0.7-1.4,1.5c-0.4,1.4,0.7,2.6,0.2,3.9c-0.4,1-2.4,1.5-2.4,2.3
							c0,0.5-0.1,1-0.5,1.2c-0.9,0.5,0,1.7-0.5,2.3c-3.1,3.1,1,6.2,0.3,9.6c-0.4,2-0.6,2.3,0.2,4c0.2,0.4,0,3.5,1.6,2.2
							c0.2,1.8,2.5,2.1,2.8,3.8c0.5,2,2.4,2.9,4,4c0.6,0.5,1.1,1.1,1.8,1.4c1.2,0.7,2.1-0.3,3.3-0.7c1.1-0.3,2.2-0.2,3.2,0.3
							c0.6,0.3,4.9-2.8,6.1-2.2c0.9,0.4,0.9,1.5,1.3,2.2c0.6,1.1,1.7-0.3,2.6,0c1.4,0.6,1.8,5.8,0.6,6.8c-0.9,0.7,1.2,3.5,1.4,4.1
							c0.8,1.6,1.6,4.4,1.3,6.2c-0.2,1.4,0.2,3.7-0.6,5c-0.8,1.3-1.3,2.6-2,4.1c-1.7,3.7-0.1,7.9-1.5,11.8c-0.9,2-0.7,4.1-1.2,6.1
							c-0.3,1.3-1.9,3.3-1.3,4.6c1-0.9,2.4-0.8,3.5-1.3c2.2-1.1,3.3-3.7,4.9-5.4c0.9-0.9,1.4-2.1,1.9-3.2c0.5-1.1,1.5-1.8,2-2.8
							c1.1-2.6,2.2-5.3,3.3-7.9c2.4-5.7,2.8-11.2,3.6-17.3C177.1,135.5,177.1,129.4,175.9,122.9z M170.2,107.9
							c-0.3-0.8-4.4-6.7-3.9-7c0.5-0.3,9.2,14.9,8.2,17.3C173.2,114.7,171.6,111.3,170.2,107.9C170.2,107.9,170.5,108.6,170.2,107.9
							z M173.9,134.9c-0.2-0.4,0.1-0.8,0.2-1.3C174.2,134.1,173.9,134.5,173.9,134.9z M173.4,137.3c0-0.3,0-0.5,0.1-0.7
							C173.7,136.9,173.6,137.1,173.4,137.3z M172,156.9c-0.2,0-0.3,0.1-0.5,0.2c-0.3,0,0.5-0.4,0.5-0.4
							C172,156.8,172,156.8,172,156.9C171.9,157,172,156.8,172,156.9z M172.2,148.9c0-0.7,0-0.8,0.8-1.2
							C172.8,148.2,172.3,148.4,172.2,148.9z M173,145.2c0-1.3,0-2.9,0.2-4.2c0,2.3,0.1,4.5,0.1,6.8C173,147.4,173,145.8,173,145.2
							C173,144.7,173,145.7,173,145.2z M174.2,149.4c0,1.2-0.2,4.5-1,5.5c0.1-2,0.8-3.9,0.8-6C174.2,149.2,174.2,149.3,174.2,149.4
							C174.2,149.6,174.2,149.3,174.2,149.4z M175.1,137.1c-0.3,1.4,0,1.9-0.9,2.7c0-1.1-0.4-3.1,0.7-3.8
							C175.1,136.4,175.2,136.7,175.1,137.1C175,137.7,175.2,136.7,175.1,137.1z M127.6,207.4c0.1,0.2-9.5,2.9-10.5,3.1
							c-4,0.8-8.1,1.4-12.2,1.6c-7.8,0.4-15.9-0.3-23.4-2.6c1,0.1,2.1,0.6,3.1,0.4c-0.9-0.6-2.1-0.4-2.9-1.1
							c3.1,0.5,6.1,0.3,8.9,0.6c-0.3-0.4-2.9-1-2.9-1.3c0.4,0,2.4-0.1,2.5-0.2c0.9-0.7-1.5-0.6-1.3-1.2c0.1-0.1,0.8,0.1,1-0.2
							c0.4-0.5,0-0.8,0.1-1c0.1-0.2,3.9-0.9,4.3-0.7c-0.5,0.3-1,0-0.8,0.7c-0.4,0-1.5,0-1.6,0.5c0-0.1,1.3,1.6,1.3,1.7
							c0.4,0.7,2,1.1,2.1,1.9c0.3,1.4,7.4,1.2,8.5,1.1c2.7-0.3,5.2-1.3,7.8-1.7c1.6-0.3,3.1-0.7,4.7-0.9c0.7-0.1,3.2-0.9,3.8-0.7
							C120.6,208.7,126.3,207.1,127.6,207.4C127.7,207.4,127.4,207.3,127.6,207.4z M171.2,165.6c0.3-0.8,0.6-1.6,0.9-2.3
							C171.9,164.1,171.6,164.8,171.2,165.6z M172.5,162.5c0-0.1,0.1-0.2,0.1-0.3C172.6,162.3,172.5,162.4,172.5,162.5z M89.7,63.4
							c-0.4-0.1-0.8,0-1.3-0.1c0.2-0.2,1.5-0.2,1-0.6c1.7-1.1,5.4-1.3,7.4-1c2.2,0.3,4.5-0.4,6.7-0.1c0.9,0.1,1.7,0.2,2.6,0.2
							c0.8,0.1-0.1,0.9,0.8,1c0.5,0.1,1.6,1.2,2,1c0,0.8-0.4,0.2-0.1,1c0.1,0.2,1,0.7,0.9,0.8c-0.1,0.1-2.6-0.1-2.5,0
							c-0.2,0,0,0.4,0.2,0.3c0.5,0.1,1.6,0,2.1,0c-1.3,1.1-3.2,1-4.6,1.9c-0.9,0.6-2.2,0.5-3.1,0.9c0,1-0.7,2.1-1.4,3.1
							c-0.5,0.7-3.7-0.9-4-1.3c-0.7-0.8-2.3-3-0.6-3.7c2.1-0.8,0-0.2-0.6-0.6c0.5-0.7,1.1-0.5,1.9-0.3c-0.4-0.6-0.9-0.7-1.5-0.4
							c-0.2-0.6,0.9-1.1-0.1-1.8c-0.4-0.3-2.6,0.1-2.7-0.3c-0.1-1,2.7-0.4,3.2-1.2C94.1,61.7,91.8,63.7,89.7,63.4
							C89.3,63.3,90.1,63.5,89.7,63.4z M129.6,77.8c0.3,0-0.4-1.1-0.6-1.3c0.2,0,0.4,0.1,0.7-0.1c-0.2-0.5-2.4-1.8-2.5-1.7
							c-0.8,0.5-1.9-1.8-2-2.1c1.4-0.2,2.3,1.3,3.6,2c1.1,0.5,5,2.4,5.2,3.6c0.1,0.6-3,0.4-3.5,1c-0.4-0.9,0.8-0.8,0.8-1.1
							C131.1,77.9,129.7,77.8,129.6,77.8C129.5,77.9,130,77.8,129.6,77.8z M89.2,79c-0.2,0.1-2.9,2.7-2.8,2.9
							c0.1,0.2,2.8,0.1,3.2,0.3c0,0.3-0.4,0.1-0.4,0.4c0.4,0,1.5-0.7,1.6-0.5c0,0.2,0,0.4-0.1,0.5c1.2,1.2,1.1-1.4,1.2-1.5
							c-0.9-0.1,0.2-1.3-1.2-0.8c0.1,0-1.5-0.5-1.5-0.4c-0.1-0.1,1.2-1.2,1.3-1.4C89.7,78.3,89.6,78.7,89.2,79
							C88.8,79.3,89.3,78.9,89.2,79z M91.9,81.8C92,81.8,91.7,81.8,91.9,81.8C91.9,81.8,91.9,81.8,91.9,81.8z M91.3,81.7
							c0.1-0.1,0.5-0.3,0.2,0C91.4,81.8,91,82,91.3,81.7C91.3,81.7,91.2,81.8,91.3,81.7z M89.4,78.6L89.4,78.6
							C89.4,78.6,89.4,78.6,89.4,78.6C89.4,78.6,89.4,78.6,89.4,78.6z M87,81c0.1,0,0.1,0,0.2,0.1C87.1,81.1,86.8,81.1,87,81
							C87.1,81,86.9,81,87,81z M60.7,112.6c-0.7,0.1,0.5-0.6,0.4-0.8c-0.5-1.1-3.9-1.4-4.3-2.3c0.1-0.1,0.3-0.2,0.3-0.3
							c-1.2-0.5-1.8,0.9-2.8,0.9c2.2-3.7,7.7,0.5,9.9,2.3C63,112.4,61.9,112.4,60.7,112.6C60.6,112.6,61.4,112.5,60.7,112.6z
							 M63.6,114.6c-0.5-0.2,1.8-0.2,2.1-0.3c-0.5-0.7,0-1.1-0.9-1.4c0.8-1,3.6,0.2,4.4,0.6c-0.1,0.1-0.2,0-0.3,0.2
							c0.1,0,1.9,1.6,0.7,1.1c-1.3-0.6-2.1,0.2-3,0.8C65.8,114.3,64.6,115,63.6,114.6C63.5,114.5,63.8,114.7,63.6,114.6z
							 M127.6,76.3c1.3,1.3-0.7,2.4-1.6,1.5c-0.4-0.5-0.2-1.5-1.2-1.8c0.3-0.1,0.5-0.2,0.8-0.3C124.9,74,127.3,76,127.6,76.3
							C127.9,76.6,127.5,76.2,127.6,76.3z M110.9,68.2c-0.1-0.2,1.9-0.1,2.2-0.2c0.5-0.1,4.3,0.3,3,0.9c-1.1,0.5-2.6,1-3.6,0.1
							C112.2,68.8,110.9,68.3,110.9,68.2C110.8,68.1,111,68.5,110.9,68.2z M145.9,87.2c0.5,0,1.5,1.7,1.4,2
							c-0.5,0.8-1.4-1.2-1.9-1.6C145.5,87.6,145.7,87.4,145.9,87.2z M86.1,63.9c1.3-1,1.6-0.4,3.2-0.3
							C88.7,64.2,87.5,64.3,86.1,63.9C86.4,63.7,87.5,64.3,86.1,63.9z M114.9,62.8c-1-0.3-2-0.3-2.9-0.7c1.1-0.1,2.5,0.3,3.3,0.5
							C115.5,62.7,114.9,62.8,114.9,62.8C114,62.6,115,62.8,114.9,62.8z M112,62.1c-0.1,0-0.2,0-0.3,0
							C111.8,62.1,111.9,62.1,112,62.1C111.9,62.2,111.9,62.1,112,62.1z M61,114.6c0.2,0,0.3,0.1,0.4,0.3c-0.1,0.5-1.8-0.2-2-0.5
							C60,114.2,60.5,114.4,61,114.6z M73.2,114.6C72.3,116.8,70,113.1,73.2,114.6C73.1,114.9,72.7,114.3,73.2,114.6z M76.7,125.3
							L76.7,125.3c0-0.1,0.1-0.1,0.2-0.1C76.8,125.2,76.8,125.3,76.7,125.3z M77,125.2c0,0,0.2-0.9,0.8-0.9
							C78.5,124.7,77.4,125.3,77,125.2C77,125.2,77.8,125.3,77,125.2z M84.2,63.5c-0.6,0.4-1.3,0.1-2,0.4
							C83.1,63.3,83.5,63.3,84.2,63.5C83.6,63.9,84.1,63.4,84.2,63.5z M61.4,107.8c-0.2-0.9-0.6-0.9,0-1.7
							C61.7,107,61.7,107.5,61.4,107.8C61.4,107.5,61.7,107.5,61.4,107.8z M45.1,139.1c0,0.3-0.2,0.5-0.5,0.3
							c-0.1-0.1-0.2-1.2,0-1.4C44.8,138.4,44.9,138.7,45.1,139.1C45.1,139.3,44.9,138.7,45.1,139.1z M83,79.9c0.7,0,1.3,0.2,1.9,0.7
							C84,80.8,83.5,80.4,83,79.9z M145.6,86.9L145.6,86.9c-0.2-0.1-1.4-0.8-0.9-1.2C145.1,85.5,145.6,86.8,145.6,86.9z M158.3,93.2
							c-0.2-0.3-0.7-0.1-0.9-0.6c0.4,0.2,0.9,0.1,1.3,0.4C158.6,93.2,158.5,93.4,158.3,93.2C158.1,93,158.5,93.4,158.3,93.2z
							 M85.3,63.9c-0.1-0.2-0.3-0.1-0.5-0.2c0.4-0.4,0.8-0.3,1.3-0.4C86,63.3,85.5,64.3,85.3,63.9C85.1,63.7,85.3,64,85.3,63.9z
							 M83.1,64.4c-0.5,0.4-1.1,0.8-1.9,0.8C81.7,64.6,82.5,64.5,83.1,64.4z M82.9,83.1c0.1,0,0.3,0,0.5,0c-0.7,0.9-1.6-0.4-1.4-0.4
							C81.9,82.7,82.9,83.1,82.9,83.1C83.1,83.1,82.6,83,82.9,83.1z M83.3,64.7c0.5-0.4,1.1-0.5,1.8-0.4
							C84.5,64.6,83.9,64.8,83.3,64.7z M142.4,89.1c-0.6-0.1,1.1-0.6,0.5,0.2C142.8,89.2,142.6,89.1,142.4,89.1
							C142.4,89,142.6,89.1,142.4,89.1z M161.4,93.4c-0.4-0.2-0.5-0.4-0.4-0.8C161.2,92.8,161.4,93,161.4,93.4z M84.6,67.5
							c0.2-0.4,0.4-0.5,1.2-0.5C85.4,67.4,85,67.5,84.6,67.5z M79.1,70c-0.4,0.2-0.8,0.4-1.2,0.4C78.2,70,78.6,70,79.1,70z
							 M124.5,73.1c-0.1,0.2,0,0.3,0.1,0.4c-0.1-0.1-0.7-0.7-0.3-0.8C124.5,72.8,124.6,72.9,124.5,73.1
							C124.4,73.3,124.5,73,124.5,73.1z M56.1,110.2c0,0.3-0.2,0.4-0.4,0.4C55.6,110.3,56,109.7,56.1,110.2
							C56.1,110.3,56,110.1,56.1,110.2z M81.6,188.7c0.2,0.1,0.3,0.2,0.3,0.4C81.9,189.8,80.7,188.8,81.6,188.7
							C81.7,188.7,81.4,188.8,81.6,188.7z M79.8,70.4c-0.1,0.2-0.3,0.3-0.7,0.4C79.3,70.5,79.6,70.4,79.8,70.4z M45.6,139
							C45.6,139.7,45.4,138.3,45.6,139C45.6,139.1,45.6,138.9,45.6,139z M84.9,71.7C84.9,71.7,84.9,71.7,84.9,71.7
							C84.9,71.7,84.7,71.7,84.9,71.7z M81.5,64.4c-0.1,0-0.2,0-0.3,0C81.3,64.4,81.4,64.4,81.5,64.4z M81.2,64.5
							C81.1,64.5,81.2,64.5,81.2,64.5C81.2,64.5,81.2,64.5,81.2,64.5z M80.8,64.6L80.8,64.6C80.8,64.6,80.8,64.6,80.8,64.6z
							 M80.8,64.6c0.1-0.1,0.2-0.1,0.3-0.1C81.1,64.6,81,64.6,80.8,64.6z M83.2,64.7L83.2,64.7L83.2,64.7z M83.2,64.7
							c0,0.1-0.1,0.1-0.2,0.1C83.1,64.7,83.1,64.7,83.2,64.7z M55.4,142.2C55.2,142.1,55.5,142.3,55.4,142.2
							C55.3,142.2,55.5,142.3,55.4,142.2z M136.3,70.7C136.8,70.8,136.3,70.8,136.3,70.7C136.3,70.7,136.3,70.7,136.3,70.7z
							 M124.6,73.5C124.6,73.5,124.6,73.5,124.6,73.5C124.7,73.5,124.7,73.6,124.6,73.5C124.7,73.6,124.6,73.6,124.6,73.5
							C124.6,73.5,124.6,73.6,124.6,73.5z M83,64.9C83,64.9,83,64.9,83,64.9C83,64.9,83,64.9,83,64.9L83,64.9z M82.9,64.9
							c0,0,0.1,0,0.1,0C82.9,65,82.9,65,82.9,64.9C82.9,64.9,82.9,64.9,82.9,64.9z M151.8,88.3L151.8,88.3L151.8,88.3L151.8,88.3z
							 M91.7,137C91.5,136.8,91.9,136.9,91.7,137C91.7,137,91.8,137,91.7,137z M127.7,207.3C127.7,207.4,127.7,207.4,127.7,207.3
							C127.7,207.3,127.7,207.3,127.7,207.3L127.7,207.3z M127.6,207.4C127.6,207.4,127.6,207.4,127.6,207.4L127.6,207.4z
							 M67.2,83.5c0,0,0.7-0.1,0.5,0.2C67.4,83.8,67.3,83.7,67.2,83.5C67.3,83.5,67.2,83.6,67.2,83.5z M62.8,77.3
							c-0.2-0.1-0.2-0.3,0.1-0.4C63.2,77,63.1,77.1,62.8,77.3C62.7,77.3,62.9,77.3,62.8,77.3z"/>
						<g>
							<g>
								<path class="st12" d="M127.2,101.9C127.2,101.9,127.2,101.9,127.2,101.9C127.2,102,127.2,102,127.2,101.9c0,0.1,0,0.1,0,0.1
									c0,0,0,0-0.1,0c-0.1,0-0.1,0.1-0.1,0.1c0,0,0,0,0,0c0,0,0,0,0,0c0,0,0,0,0,0.1c0,0,0,0,0,0.1c0,0.1-0.1,0.1-0.1,0.2
									c0,0,0,0,0,0.1c0,0,0,0,0,0c0,0-0.1,0.1-0.1,0.1c0,0,0,0,0,0c0,0,0,0,0,0c0,0-0.1,0-0.1,0c0,0-0.1,0-0.1,0c0,0,0,0,0,0
									c0,0,0,0,0,0c0,0,0,0,0,0c0,0,0,0,0,0c0,0,0,0,0-0.1c0,0,0,0,0-0.1c0,0,0,0-0.1-0.1c0,0,0,0,0,0c0,0,0,0,0-0.1
									c0-0.1,0-0.1-0.1-0.1c0,0,0,0,0,0c0,0,0,0,0,0c0,0,0.1,0,0.1,0c0,0,0,0,0,0c0,0,0,0,0,0c0,0,0,0,0.1,0c0,0,0,0,0.1,0
									c0,0,0.1,0,0.1,0c0,0,0,0,0,0c0,0,0,0,0,0c0,0,0,0,0.1,0c0,0,0,0,0,0c0,0,0,0,0.1,0c0,0,0,0,0,0c0,0,0,0,0,0c0,0,0,0,0,0
									c0,0,0,0,0,0c0,0,0,0,0,0c0,0,0,0,0,0c0,0,0,0,0,0c0,0,0,0,0.1,0c0,0,0,0,0.1,0c0,0,0,0,0,0c0,0,0,0,0,0c0,0,0.1,0,0.1,0
									C127,102,127,102,127.2,101.9C127.1,102,127.1,102,127.2,101.9C127.1,102,127.1,101.9,127.2,101.9
									C127.1,101.9,127.2,101.9,127.2,101.9z"/>
							</g>
							<g>
								<path class="st12" d="M131,101C131,101,131,101,131,101c0,0.1,0,0.1,0,0.1c0,0,0,0,0,0c0,0,0,0,0,0.1c0,0,0,0,0,0
									c0,0,0,0.1-0.1,0.1c0,0,0,0-0.1,0c0,0,0,0,0,0c0,0,0,0,0,0c0,0,0,0,0,0c0,0-0.1,0-0.1,0c0,0,0,0,0,0c0,0,0,0,0,0
									c0,0,0,0,0,0c0,0-0.1,0-0.1,0c0,0,0,0,0,0c0,0,0,0,0,0c0,0,0,0,0,0c0,0-0.1,0-0.1,0c0,0,0,0,0,0c0,0,0,0,0,0c0,0,0,0,0,0
									c0,0,0,0,0-0.1c0,0,0,0,0-0.1c0,0,0,0,0,0c0,0,0.1-0.1,0.1-0.1c0,0,0,0,0,0c0,0,0.1,0,0.1,0c0,0,0,0,0.1,0c0,0,0,0,0,0
									c0,0,0,0,0,0c0,0,0,0,0,0c0,0,0,0,0,0c0,0,0,0,0,0C130.9,101.1,130.9,101,131,101C130.9,101,130.9,101,131,101
									C131,101,131,101,131,101z"/>
							</g>
							<g>
								<path class="st12" d="M130.4,101.7C130.4,101.7,130.4,101.7,130.4,101.7C130.4,101.7,130.4,101.7,130.4,101.7
									c0.1,0.1,0.1,0.1,0.1,0.1c0,0,0,0,0,0.1c0,0,0,0,0,0.1c0,0,0,0.1,0,0.1c0,0,0,0.1,0,0.1c0,0,0,0,0,0.1c0,0,0,0,0,0
									c0,0,0,0,0,0.1c0,0,0,0,0,0c0,0,0,0,0,0.1c0,0,0,0-0.1,0c0,0,0,0,0,0c0,0,0,0,0,0c0,0-0.1,0-0.1,0c0,0-0.1,0-0.1,0
									c0,0,0,0-0.1,0c0,0,0,0,0,0c0,0,0,0,0,0c0,0-0.1,0.1-0.1,0.1c0,0,0,0-0.1,0c0,0,0,0,0,0c0,0,0,0-0.1,0c0,0,0,0-0.1,0
									c0,0,0,0,0,0c0,0,0,0,0,0c0,0,0,0,0,0c0,0,0,0,0,0c0,0,0,0,0,0c0,0,0,0,0,0c0,0,0,0,0,0c0,0,0,0,0,0c0,0,0,0,0,0
									c0,0,0.1,0,0.1,0c0.1,0,0.1-0.1,0.2-0.1c0,0,0,0,0-0.1c0,0,0-0.1,0-0.1c0,0,0,0,0-0.1c0,0,0-0.1,0-0.1c0,0,0-0.1,0.1-0.1
									c0,0,0-0.1,0.1-0.1c0,0,0,0,0,0c0,0,0,0,0-0.1c0,0,0,0,0-0.1c0,0,0,0,0-0.1C130.2,101.7,130.3,101.7,130.4,101.7
									C130.3,101.7,130.3,101.7,130.4,101.7C130.4,101.7,130.4,101.7,130.4,101.7z"/>
							</g>
							<g>
								<path class="st12" d="M128.2,102.5C128.2,102.5,128.2,102.6,128.2,102.5C128.2,102.6,128.2,102.6,128.2,102.5
									C128.2,102.6,128.2,102.6,128.2,102.5c0,0.1,0,0.1,0,0.1c0,0,0,0.1,0,0.1c0,0,0,0,0,0c0,0,0,0,0,0.1c0,0,0,0,0,0
									c0,0,0,0,0,0.1c0,0,0,0,0,0c0,0,0,0,0,0c0,0,0,0,0,0c0,0,0,0,0,0c0,0,0,0-0.1,0c0,0-0.1,0-0.1,0c0,0,0,0-0.1,0c0,0,0,0,0,0
									c0,0,0,0,0,0c0,0-0.1,0-0.1,0c0,0,0,0,0,0c0,0,0,0,0,0c0,0-0.1,0-0.1-0.1c0,0,0,0,0,0c0,0,0,0-0.1-0.1c0,0,0,0,0-0.1
									c0,0,0,0,0-0.1c0,0,0,0,0,0c0,0,0,0,0,0c0,0,0,0,0,0c0,0,0.1,0,0.1-0.1c0,0,0,0,0,0c0,0,0-0.1,0-0.1c0,0,0,0,0,0
									c0,0,0,0,0,0c0,0,0,0,0,0c0,0,0.1,0,0.1,0c0,0,0,0,0,0c0,0,0,0,0,0c0,0,0,0,0,0c0,0,0,0,0,0
									C128,102.6,128.1,102.6,128.2,102.5C128.1,102.6,128.1,102.6,128.2,102.5C128.1,102.6,128.1,102.6,128.2,102.5
									C128.1,102.6,128.2,102.6,128.2,102.5C128.2,102.6,128.2,102.5,128.2,102.5z"/>
							</g>
							<g>
								<path class="st12" d="M124.7,101.5C124.7,101.5,124.7,101.5,124.7,101.5C124.7,101.5,124.7,101.6,124.7,101.5
									C124.7,101.6,124.7,101.6,124.7,101.5c0.1,0,0.1,0,0.1,0c0,0,0,0,0,0c0,0,0,0,0.1,0c0,0,0,0.1,0.1,0.1c0,0,0,0,0,0
									c0,0,0,0,0,0c0,0,0,0.1,0,0.1c0,0,0,0,0,0c0,0,0,0,0,0.1c0,0,0,0,0,0c0,0,0,0,0,0.1c0,0,0,0,0,0c0,0,0,0-0.1,0.1
									c0,0,0,0,0,0c0,0,0,0,0,0c0,0,0,0,0,0c0,0,0,0,0-0.1c0,0,0,0,0-0.1c0,0,0,0,0-0.1c0,0,0,0,0,0c0,0,0,0,0-0.1
									c0,0,0-0.1-0.1-0.1c0,0,0,0,0-0.1C124.5,101.6,124.6,101.6,124.7,101.5C124.6,101.5,124.6,101.5,124.7,101.5z"/>
							</g>
							<g>
								<path class="st12" d="M125.6,102.5C125.6,102.5,125.6,102.5,125.6,102.5C125.6,102.5,125.6,102.5,125.6,102.5
									c0.1,0,0.1,0,0.1,0c0,0,0.1,0,0.1,0.1c0,0,0,0.1,0,0.1c0,0,0,0-0.1,0.1c0,0,0,0-0.1,0c0,0,0,0,0,0c0,0,0,0,0,0c0,0,0,0,0,0
									c0,0,0,0,0,0c0,0,0,0,0,0c0,0,0,0,0,0c0,0-0.1-0.1-0.1-0.1c0,0,0,0,0,0C125.5,102.6,125.5,102.5,125.6,102.5
									C125.6,102.5,125.6,102.5,125.6,102.5z"/>
							</g>
							<g>
								<path class="st12" d="M124.6,103C124.6,103,124.7,103,124.6,103C124.7,103.1,124.7,103.1,124.6,103
									C124.7,103.1,124.7,103.1,124.6,103c0,0.1,0,0.1,0,0.2c0,0,0,0,0,0.1c0,0,0,0,0,0c0,0,0,0,0,0c0,0,0,0,0,0c0,0,0,0,0,0
									c0,0,0,0,0,0c0,0,0,0,0,0c0,0,0,0,0,0c0,0-0.1,0-0.1,0c0,0-0.1,0-0.1-0.1c0,0,0,0,0,0c0,0,0,0,0,0c0,0,0.1,0,0.1,0
									c0,0,0,0,0,0c0,0,0,0,0,0c0,0,0,0,0,0c0,0,0,0,0,0C124.5,103.1,124.5,103.1,124.6,103C124.6,103,124.6,103,124.6,103
									C124.6,103,124.6,103,124.6,103z"/>
							</g>
						</g>
					</g>
				</g>
			</g>
		</g>
		<g>
			<g>
				<path class="st2" d="M96.3,137.9c0,0-46.1,0-59-37.2c0,0,51.5-6.6,64.8,36.4c0,0-8.4-17.6-30.5-21
					C71.5,116.1,90.5,122.1,96.3,137.9z"/>
				<path class="st2" d="M105.1,125.3c0,0,23.2-15.4,15-40.5c0,0-28.5,14.3-18.2,42.6c0,0-2.8-13,7.6-23.7
					C109.5,103.7,101.8,114.5,105.1,125.3z"/>
			</g>
			<path class="st2" d="M154.1,183.1c-1-3-2.7-5.6-4.4-8.1c-1.8-2.5-3.7-4.8-5.7-7c-8.1-8.8-17.4-16.2-27-22.9
				c-2.4-1.7-4.8-3.3-7.3-4.9c-1.2-0.8-2.4-1.6-3.7-2.4l-3.4-2.1c-0.8-0.7-1.6-2-2.4-3.1l-2.4-3.7c-0.8-1.2-1.7-2.5-2.7-3.6
				c-0.5-0.6-1-1.1-1.6-1.6c-0.6-0.5-1.3-0.9-2.1-0.9c0.7,0.2,1.2,0.8,1.6,1.4c0.4,0.6,0.7,1.2,1.1,1.8c0.6,1.3,1.2,2.6,1.8,3.9
				c0.6,1.3,1.2,2.7,1.8,4c0.7,1.4,1.3,2.7,2.5,4.1c0.9,0.9,1.3,1.1,2,1.6l1.8,1.3l3.5,2.6c2.3,1.7,4.7,3.5,6.9,5.2
				c4.6,3.6,9.1,7.1,13.5,10.9c4.4,3.7,8.6,7.6,12.6,11.7c3.9,4.1,7.4,8.6,9.9,13.4c1.2,2.4,2.4,4.9,2.3,7.6c0,1.2-1.8,4.5-7.5,6
				c0.3,0.1,5-1.7,5.3-1.5c2.6-1,3.7-2.9,4.1-4.2C155.4,189.5,155.1,186.1,154.1,183.1z"/>
		</g>
	</g>
</g>
</svg>
