<?xml version="1.0" encoding="utf-8"?>
<!-- Generator: Adobe Illustrator 24.3.0, SVG Export Plug-In . SVG Version: 6.00 Build 0)  -->
<svg version="1.1" id="Layer_1" xmlns="http://www.w3.org/2000/svg" xmlns:xlink="http://www.w3.org/1999/xlink" x="0px" y="0px"
	 viewBox="0 0 31 31.1" style="enable-background:new 0 0 31 31.1;" xml:space="preserve">
<style type="text/css">
	.st0{fill:#3D82AB;}
</style>
<path id="pinterest_color" class="st0" d="M15.5,0.5c-8.3,0-15,6.7-15,15c0,6,3.5,11.3,9,13.7c-0.1-1.2,0-2.3,0.3-3.5
	c0.3-1.2,1.9-8.2,1.9-8.2c-0.3-0.8-0.5-1.6-0.5-2.4c0-2.2,1.3-3.9,2.9-3.9c1.1,0,2,0.9,2,2c0,0.1,0,0.2,0,0.3c0,1.3-0.9,3.4-1.3,5.3
	c-0.3,1.2,0.4,2.5,1.7,2.8c0.2,0.1,0.5,0.1,0.7,0.1c2.8,0,4.8-3.7,4.8-8c0-3.3-2.2-5.7-6.2-5.7C11.7,8,8.4,11.1,8.3,15
	c0,0.1,0,0.2,0,0.3c-0.1,1.1,0.3,2.1,1,2.9c0.2,0.2,0.3,0.5,0.2,0.8c-0.1,0.3-0.3,0.9-0.3,1.2c-0.1,0.3-0.3,0.5-0.6,0.4
	c-0.1,0-0.1,0-0.2-0.1c-2.1-0.9-3-3.1-3-5.7c0-4.2,3.6-9.3,10.7-9.3c5.7,0,9.5,4.1,9.5,8.6c0,5.9-3.3,10.3-8.1,10.3
	c-1.5,0-2.8-0.7-3.7-1.9c0,0-0.9,3.5-1,4.1c-0.3,1.1-0.8,2.2-1.5,3.2c1.4,0.4,2.8,0.6,4.2,0.6c8.3,0,15-6.7,15-15S23.8,0.5,15.5,0.5
	L15.5,0.5"/>
</svg>
