<svg xmlns="http://www.w3.org/2000/svg" width="109" height="108" viewBox="0 0 109 108">
    <defs>
        <style>
            .cls-2{fill:#3d82ab}
        </style>
    </defs>
    <g id="real_time" transform="translate(-713 -2700)">
        <g id="Ellipse_27" fill="none" stroke="#3c81a9" stroke-width="2px" transform="translate(713 2700)">
            <ellipse cx="54.5" cy="54" stroke="none" rx="54.5" ry="54"/>
            <ellipse cx="54.5" cy="54" rx="53.5" ry="53"/>
        </g>
        <g id="Group_10729" transform="translate(4 4)">
            <g id="Group_167" transform="translate(752.693 2741.379)">
                <g id="Group_166">
                    <path id="Path_82" d="M152.972 170.667h-7.027a.871.871 0 0 0-.878.862v3.448a.871.871 0 0 0 .878.862h7.027a.871.871 0 0 0 .878-.862v-3.448a.871.871 0 0 0-.878-.862zm-.878 3.448h-5.27v-1.724h5.27z" class="cls-2" transform="translate(-145.067 -170.667)"/>
                </g>
            </g>
            <g id="Group_10728" transform="translate(738 2725)">
                <g id="Group_153" transform="translate(0 31.034)">
                    <g id="Group_152">
                        <path id="Path_75" d="M51.133 315.733H.867A.865.865 0 0 0 0 316.6v4.3a3.462 3.462 0 0 0 3.468 3.449h45.064A3.462 3.462 0 0 0 52 320.9v-4.3a.865.865 0 0 0-.867-.867zm-.867 5.172a1.731 1.731 0 0 1-1.734 1.725H3.468a1.731 1.731 0 0 1-1.735-1.73v-3.447h48.534v3.447z" class="cls-2" transform="translate(0 -315.733)"/>
                    </g>
                </g>
                <g id="Group_10727">
                    <g id="Group_151">
                        <g id="Group_150">
                            <path id="Path_74" d="M48.532 8.533H3.468A3.462 3.462 0 0 0 0 11.982v28.447a.865.865 0 0 0 .867.862h50.266a.865.865 0 0 0 .867-.862V11.982a3.462 3.462 0 0 0-3.468-3.449zm1.734 31.034H1.733V11.982a1.731 1.731 0 0 1 1.734-1.725h45.065a1.731 1.731 0 0 1 1.734 1.725z" class="cls-2" transform="translate(0 -8.533)"/>
                        </g>
                    </g>
                    <g id="Group_155" transform="translate(22.487 34.483)">
                        <g id="Group_154">
                            <path id="Path_76" d="M228.016 349.867h-5.27a.862.862 0 1 0 0 1.724h5.27a.862.862 0 1 0 0-1.724z" class="cls-2" transform="translate(-221.867 -349.867)"/>
                        </g>
                    </g>
                    <g id="Group_157" transform="translate(3.513 3.448)">
                        <g id="Group_156">
                            <path id="Path_77" d="M78.242 42.667H35a.864.864 0 0 0-.865.862v27.586a.864.864 0 0 0 .865.862h43.242a.864.864 0 0 0 .865-.862V43.529a.864.864 0 0 0-.865-.862zm-.865 27.586H35.864V44.391h41.513z" class="cls-2" transform="translate(-34.134 -42.667)"/>
                        </g>
                    </g>
                    <g id="Group_159" transform="translate(11.946 44.828)">
                        <g id="Group_158">
                            <path id="Path_78" d="M144.94 452.267H122.1a2.587 2.587 0 1 0 0 5.172h22.84a2.587 2.587 0 1 0 0-5.172zm0 3.448H122.1a.862.862 0 1 1 0-1.724h22.84a.862.862 0 1 1 0 1.724z" class="cls-2" transform="translate(-119.467 -452.267)"/>
                        </g>
                    </g>
                    <g id="Group_161" transform="translate(15.46 37.931)">
                        <g id="Group_160">
                            <path id="Path_79" d="M173.8 390.9c-2.914 0-4.392-2.03-4.392-6.034a.871.871 0 0 0-.878-.862h-8.78a.871.871 0 0 0-.878.862c0 4-1.477 6.034-4.392 6.034a.862.862 0 1 0 0 1.724h19.32a.862.862 0 1 0 0-1.724zm-15.046 0a8.166 8.166 0 0 0 1.846-5.172h7.075a8.156 8.156 0 0 0 1.846 5.172z" class="cls-2" transform="translate(-153.601 -384.001)"/>
                        </g>
                    </g>
                    <g id="Group_163" transform="translate(30.225 18.103)">
                        <g id="Group_162">
                            <path id="Path_80" d="M309.947 195.028l-2.12-2.081 1.18-1.158a.852.852 0 0 0 .231-.821.87.87 0 0 0-.6-.615l-8.784-2.586a.889.889 0 0 0-.873.216.849.849 0 0 0-.221.857l2.635 8.621a.87.87 0 0 0 .626.589.9.9 0 0 0 .836-.227l1.242-1.22 2.12 2.082a.89.89 0 0 0 1.242 0l2.484-2.439a.85.85 0 0 0 .002-1.218zm-3.105 1.829l-1.931-1.9a1.164 1.164 0 0 0-1.621 0l-.634.622-1.744-5.7 5.812 1.711-.68.667a.964.964 0 0 0 0 1.38l2.038 2z" class="cls-2" transform="translate(-298.723 -187.731)"/>
                        </g>
                    </g>
                    <g id="Group_165" transform="translate(11.114 6.897)">
                        <g id="Group_164">
                            <path id="Path_81" d="M136.407 76.8h-24.595a.871.871 0 0 0-.878.862v4.31a.871.871 0 0 0 .878.862h24.594a.871.871 0 0 0 .878-.862v-4.31a.871.871 0 0 0-.877-.862zm-.878 4.31h-22.838v-2.586h22.838z" class="cls-2" transform="translate(-110.934 -76.8)"/>
                        </g>
                    </g>
                    <g id="Group_169" transform="translate(11.114 6.897)">
                        <g id="Group_168">
                            <path id="Path_83" d="M136.407 76.8h-24.595a.871.871 0 0 0-.878.862v16.379a.871.871 0 0 0 .878.862h20.911a.881.881 0 0 0 .7-.347.849.849 0 0 0 .137-.763l-1.112-3.639 3.7 1.091a.889.889 0 0 0 .776-.134.855.855 0 0 0 .354-.691V77.662a.871.871 0 0 0-.871-.862zm-.878 12.46l-4.135-1.217a.888.888 0 0 0-.873.216.85.85 0 0 0-.221.858l1.242 4.062h-18.851V78.524h22.838z" class="cls-2" transform="translate(-110.934 -76.8)"/>
                        </g>
                    </g>
                </g>
            </g>
        </g>
    </g>
</svg>
