<svg xmlns="http://www.w3.org/2000/svg" viewBox="0 0 242.663 97.065"><defs><style>.cls-1{fill:#555a5f;}.cls-2{fill:none;}</style></defs><g id="Layer_2" data-name="Layer 2"><g id="Layer_5" data-name="Layer 5"><path class="cls-1" d="M105.081,30.709h14.747l-7.784-12.516-14.2,22.568H91.285L108.63,13.612a3.945,3.945,0,0,1,3.414-1.674,4.1,4.1,0,0,1,3.413,1.674L132.8,40.761h-6.556l-3-5.024H108.36Zm67.46,5.028V12.161h-5.6V38.082a3.472,3.472,0,0,0,.816,1.9,2.93,2.93,0,0,0,2.049.781h25.128l3.28-5.024ZM81.455,31.491a9.665,9.665,0,1,0,0-19.33H57.421v28.6h5.461V17.186H81.047a4.665,4.665,0,0,1,4.643,4.7,4.57,4.57,0,0,1-4.643,4.582H65.614L82,40.761h7.924l-11.063-9.27Zm-57.9,9.27a14.3,14.3,0,1,1,0-28.6H40.079a14.3,14.3,0,1,1,0,28.6Zm16.251-5.024a9.276,9.276,0,1,0,0-18.551H23.828a9.276,9.276,0,1,0,0,18.551Zm104.466,5.024a14.3,14.3,0,1,1,0-28.6h19.8L160.8,17.186H144.685a9.276,9.276,0,1,0,0,18.551h19.8l-3.279,5.024ZM211.6,35.737a9.165,9.165,0,0,1-8.877-6.7h23.485l3.28-5.028H202.722a9.26,9.26,0,0,1,8.877-6.819h16.113l3.279-5.025H211.186a14.3,14.3,0,0,0,0,28.6h17.072l3.141-5.024Z"/><path class="cls-1" d="M136.8,66.7h6.826c1.913,0,3.962,0,5.328,1.232a4.256,4.256,0,0,1,1.638,3.463,4.524,4.524,0,0,1-3.687,4.356c2.59.223,2.865,1.791,3.141,4.023a28.816,28.816,0,0,0,.546,3.463,3.978,3.978,0,0,0,.545,1.339h-4.232c-.138-1.006-.684-5.469-.959-6.254-.27-1.006-1.223-1.006-1.912-1.006h-3.409v7.26H136.8Zm3.825,7.822h3a2.732,2.732,0,0,0,1.913-.557,2.252,2.252,0,0,0,1.09-2.011,2.413,2.413,0,0,0-.953-2.011,4.35,4.35,0,0,0-2.6-.449h-2.455Z"/><path class="cls-1" d="M62.822,78.874c0,.788-.137,3.356,3.136,3.356,2.05,0,3.417-1,3.417-2.458,0-1.565-1.1-1.9-3.417-2.458-4.227-1.006-6.551-2.237-6.551-5.362,0-2.907,2.049-5.59,7.1-5.59a6.749,6.749,0,0,1,5.329,2.124,5.64,5.64,0,0,1,.953,3.353H69.236c-.137-.672-.274-2.68-2.87-2.68-1.907,0-3,.892-3,2.347,0,1.672,1.229,2.006,3.819,2.565,3.141.785,6.144,1.678,6.144,5.139,0,3.13-2.59,5.7-7.642,5.7-6.829,0-6.829-4.356-6.829-6.036Z"/><path class="cls-1" d="M167.63,78.874c0,.788-.137,3.356,3.136,3.356,2.05,0,3.417-1,3.417-2.458,0-1.565-1.1-1.9-3.417-2.458-4.226-1.006-6.551-2.237-6.551-5.362,0-2.907,2.049-5.59,7.1-5.59a6.749,6.749,0,0,1,5.329,2.124,5.64,5.64,0,0,1,.953,3.353h-3.548c-.138-.672-.275-2.68-2.871-2.68-1.906,0-3,.892-3,2.347,0,1.672,1.229,2.006,3.819,2.565,3.141.785,6.144,1.678,6.144,5.139,0,3.13-2.59,5.7-7.642,5.7-6.829,0-6.829-4.356-6.829-6.036Z"/><rect class="cls-1" x="10.989" y="55.715" width="222.46" height="1.736"/><rect class="cls-1" x="155.785" y="66.585" width="3.467" height="18.102"/><path class="cls-1" d="M85.717,85.127a8.54,8.54,0,0,1-6.425-2.566,9.208,9.208,0,0,1-2.484-6.688,9.873,9.873,0,0,1,2.521-7.04,8.731,8.731,0,0,1,6.682-2.688,8.334,8.334,0,0,1,6.355,2.573A9.486,9.486,0,0,1,94.791,75.5a9.711,9.711,0,0,1-2.515,6.976A8.633,8.633,0,0,1,85.717,85.127ZM85.9,69.7a4.159,4.159,0,0,0-3.456,1.633,6.8,6.8,0,0,0-1.28,4.319,6.676,6.676,0,0,0,1.28,4.314,4.1,4.1,0,0,0,3.354,1.587,4.145,4.145,0,0,0,3.392-1.542,6.61,6.61,0,0,0,1.254-4.282,7.154,7.154,0,0,0-1.217-4.441A3.964,3.964,0,0,0,85.9,69.7Z"/><path class="cls-1" d="M110.245,84.813H99.315V66.459h4.133v15h6.8Z"/><path class="cls-1" d="M133.522,84.813h-4.5l-1.306-4.083h-6.528l-1.292,4.083h-4.48l6.681-18.354h4.9Zm-6.758-7.257-1.971-6.169a8.141,8.141,0,0,1-.308-1.651h-.1a7.061,7.061,0,0,1-.32,1.6l-2,6.22Z"/><rect class="cls-2" width="242.663" height="97.065"/></g></g></svg>