<?xml version="1.0" encoding="utf-8"?>
<!-- Generator: Adobe Illustrator 25.0.1, SVG Export Plug-In . SVG Version: 6.00 Build 0)  -->
<svg version="1.1" id="Layer_1" xmlns="http://www.w3.org/2000/svg" xmlns:xlink="http://www.w3.org/1999/xlink" x="0px" y="0px"
	 viewBox="0 0 215 215" style="enable-background:new 0 0 215 215;" xml:space="preserve">
<style type="text/css">
	.st0{clip-path:url(#SVGID_2_);}
	.st1{opacity:0.38;fill:#77ADDB;}
	.st2{fill:#FFFFFF;}
	.st3{fill:#FEFEFF;}
	.st4{fill:#FDFEFE;}
	.st5{fill:#FCFDFE;}
	.st6{fill:#FBFDFE;}
	.st7{fill:#FAFCFE;}
	.st8{fill:#F9FBFD;}
	.st9{fill:#F8FBFD;}
	.st10{fill:#F7FAFD;}
	.st11{fill:#F6FAFD;}
	.st12{fill:#F5F9FC;}
	.st13{fill:#F4F9FC;}
	.st14{fill:#F3F8FC;}
	.st15{fill:#F2F7FC;}
	.st16{fill:#F1F7FB;}
	.st17{fill:#F0F6FB;}
	.st18{fill:#EFF6FB;}
	.st19{fill:#EEF5FB;}
	.st20{fill:#EDF4FA;}
	.st21{fill:#ECF4FA;}
	.st22{fill:#EBF3FA;}
	.st23{fill:#EAF3FA;}
	.st24{fill:#E9F2F9;}
	.st25{fill:#E8F1F9;}
	.st26{fill:#E7F1F9;}
	.st27{fill:#E6F0F8;}
	.st28{fill:#E5F0F8;}
	.st29{fill:#E4EFF8;}
	.st30{fill:#E3EFF8;}
	.st31{fill:#E2EEF7;}
	.st32{fill:#E1EDF7;}
	.st33{fill:#E0EDF7;}
	.st34{fill:#DFECF7;}
	.st35{fill:#DEECF6;}
	.st36{fill:#DDEBF6;}
	.st37{fill:#DCEAF6;}
	.st38{fill:#DBEAF6;}
	.st39{fill:#DAE9F5;}
	.st40{fill:#D9E9F5;}
	.st41{fill:#D8E8F5;}
	.st42{fill:#D7E8F5;}
	.st43{fill:#D6E7F4;}
	.st44{fill:#D5E6F4;}
	.st45{fill:#D4E6F4;}
	.st46{fill:#D3E5F4;}
	.st47{fill:#D2E5F3;}
	.st48{fill:#D2E4F3;}
	.st49{fill:#D1E3F3;}
	.st50{fill:#D0E3F2;}
	.st51{fill:#CFE2F2;}
	.st52{fill:#CEE2F2;}
	.st53{fill:#CDE1F2;}
	.st54{fill:#CCE0F1;}
	.st55{fill:#CBE0F1;}
	.st56{fill:#CADFF1;}
	.st57{fill:#C9DFF1;}
	.st58{fill:#C8DEF0;}
	.st59{fill:#C7DEF0;}
	.st60{fill:#C6DDF0;}
	.st61{fill:#C5DCF0;}
	.st62{fill:#C4DCEF;}
	.st63{fill:#C3DBEF;}
	.st64{fill:#C2DBEF;}
	.st65{fill:#C1DAEF;}
	.st66{fill:#C0D9EE;}
	.st67{fill:#BFD9EE;}
	.st68{fill:#BED8EE;}
	.st69{fill:#BDD8EE;}
	.st70{fill:#BCD7ED;}
	.st71{fill:#BBD7ED;}
	.st72{fill:#BAD6ED;}
	.st73{fill:#B9D5EC;}
	.st74{fill:#B8D5EC;}
	.st75{fill:#B7D4EC;}
	.st76{fill:#B6D4EC;}
	.st77{fill:#B5D3EB;}
	.st78{fill:#B4D2EB;}
	.st79{fill:#B3D2EB;}
	.st80{fill:#B2D1EB;}
	.st81{fill:#B1D1EA;}
	.st82{fill:#B0D0EA;}
	.st83{fill:#AFCFEA;}
	.st84{fill:#AECFEA;}
	.st85{fill:#ADCEE9;}
	.st86{fill:#ACCEE9;}
	.st87{fill:#ABCDE9;}
	.st88{fill:#AACDE9;}
	.st89{fill:#A9CCE8;}
	.st90{fill:#A8CBE8;}
	.st91{fill:#A7CBE8;}
	.st92{fill:#A6CAE8;}
	.st93{fill:#A5CAE7;}
	.st94{fill:#A4C9E7;}
	.st95{clip-path:url(#XMLID_4_);fill:#77ADDB;}
	.st96{opacity:0.31;clip-path:url(#XMLID_5_);fill:#FFFFFF;}
	.st97{opacity:0.46;fill:#CCE4F2;}
</style>
<g>
	<defs>
		<rect id="SVGID_1_" x="0.2" width="215" height="215"/>
	</defs>
	<clipPath id="SVGID_2_">
		<use xlink:href="#SVGID_1_"  style="overflow:visible;"/>
	</clipPath>
	<g class="st0">
		<path class="st1" d="M62.3,203.1C42.4,204.9,12,180.7,20.5,151s27-19.1,28.2-38.6c1.1-19.5-5.7-37.9,11.6-51.8
			c17.3-13.9,33.3,0.4,57.3-8.9c24-9.3,47-28.2,73.9-6.5c19.2,15.5,19.4,39.3,8.5,57.2c-4.3,7.2-20.7,14.4-22.1,20.8
			c-4.7,22.6,16.3,26-4.8,48.6c-21.1,22.6-52,4.9-73.1,13.9S82.2,201.3,62.3,203.1z"/>
		<ellipse transform="matrix(0.9875 -0.1574 0.1574 0.9875 -3.6978 12.4029)" class="st1" cx="76.5" cy="29.5" rx="13" ry="7.1"/>
		<g>
			<g>
				<path class="st2" d="M136.5,160c-8.6,0.7-17.1,1-25.6,1c-12.8,0-25.5-0.8-37.9-2.3c-6.1-0.7-11.8-1.6-17-2.6
					c16.4,17.7,34.8,32.8,45.7,41.2c5.6,4.3,13.4,4.3,19,0c10.8-8.3,29.1-23.3,45.5-41C156.3,158,146.4,159.3,136.5,160z"/>
				<path class="st3" d="M136.5,160c-8.6,0.7-17.1,1-25.6,1c-12.8,0-25.5-0.8-37.9-2.3c-6.1-0.7-11.8-1.6-17-2.6
					c16.4,17.7,34.8,32.8,45.7,41.2c5.6,4.3,13.4,4.3,19,0c10.8-8.3,29.1-23.3,45.5-41C156.3,158,146.4,159.2,136.5,160z"/>
				<path class="st4" d="M136.5,159.9c-8.6,0.7-17.1,1-25.6,1c-12.8,0-25.5-0.8-37.9-2.3c-6.1-0.7-11.8-1.6-17-2.6
					c16.4,17.7,34.8,32.8,45.7,41.2c5.6,4.3,13.4,4.3,19,0c10.8-8.3,29.1-23.3,45.5-41C156.3,158,146.4,159.2,136.5,159.9z"/>
				<path class="st5" d="M136.5,159.9c-8.6,0.7-17.1,1-25.6,1c-12.8,0-25.5-0.8-37.9-2.3c-6.1-0.7-11.8-1.6-17-2.6
					c16.4,17.7,34.8,32.8,45.7,41.2c5.6,4.3,13.4,4.3,19,0c10.8-8.3,29.1-23.3,45.5-41C156.3,157.9,146.4,159.1,136.5,159.9z"/>
				<path class="st6" d="M136.5,159.9c-8.6,0.7-17.1,1-25.6,1c-12.8,0-25.5-0.8-37.9-2.3c-6.1-0.7-11.8-1.6-17-2.6
					c16.4,17.7,34.8,32.8,45.7,41.2c5.6,4.3,13.4,4.3,19,0c10.8-8.3,29.1-23.3,45.5-41C156.3,157.9,146.4,159.1,136.5,159.9z"/>
				<path class="st7" d="M136.5,159.8c-8.6,0.7-17.1,1-25.6,1c-12.8,0-25.5-0.8-37.9-2.3c-6.1-0.7-11.8-1.6-17-2.6
					c16.4,17.7,34.8,32.8,45.7,41.2c5.6,4.3,13.4,4.3,19,0c10.8-8.3,29.1-23.3,45.5-41C156.3,157.8,146.4,159.1,136.5,159.8z"/>
				<path class="st8" d="M136.5,159.8c-8.6,0.7-17.1,1-25.6,1c-12.8,0-25.5-0.8-37.9-2.3c-6.1-0.7-11.8-1.6-17-2.6
					c16.4,17.7,34.8,32.8,45.7,41.2c5.6,4.3,13.4,4.3,19,0c10.8-8.3,29.1-23.3,45.5-41C156.3,157.8,146.4,159,136.5,159.8z"/>
				<path class="st9" d="M136.5,159.8c-8.6,0.7-17.1,1-25.6,1c-12.8,0-25.5-0.8-37.9-2.3c-6.1-0.7-11.8-1.6-17-2.6
					c16.4,17.7,34.8,32.8,45.7,41.2c5.6,4.3,13.4,4.3,19,0c10.8-8.3,29.1-23.3,45.5-41C156.3,157.8,146.4,159,136.5,159.8z"/>
				<path class="st10" d="M136.5,159.7c-8.6,0.7-17.1,1-25.6,1c-12.8,0-25.5-0.8-37.9-2.3c-6.1-0.7-11.8-1.6-17-2.6
					c16.4,17.7,34.8,32.8,45.7,41.2c5.6,4.3,13.4,4.3,19,0c10.8-8.3,29.1-23.3,45.5-41C156.3,157.7,146.4,158.9,136.5,159.7z"/>
				<path class="st11" d="M136.5,159.7c-8.6,0.7-17.1,1-25.6,1c-12.8,0-25.5-0.8-37.9-2.3c-6.1-0.7-11.8-1.6-17-2.6
					c16.4,17.7,34.8,32.8,45.7,41.2c5.6,4.3,13.4,4.3,19,0c10.8-8.3,29.1-23.3,45.5-41C156.3,157.7,146.4,158.9,136.5,159.7z"/>
				<path class="st12" d="M136.5,159.6c-8.6,0.7-17.1,1-25.6,1c-12.8,0-25.5-0.8-37.9-2.3c-6.1-0.7-11.8-1.6-17-2.6
					c16.4,17.7,34.8,32.8,45.7,41.2c5.6,4.3,13.4,4.3,19,0c10.8-8.3,29.1-23.3,45.5-41C156.3,157.6,146.4,158.9,136.5,159.6z"/>
				<path class="st13" d="M136.5,159.6c-8.6,0.7-17.1,1-25.6,1c-12.8,0-25.5-0.8-37.9-2.3c-6.1-0.7-11.8-1.6-17-2.6
					c16.4,17.7,34.8,32.8,45.7,41.2c5.6,4.3,13.4,4.3,19,0c10.8-8.3,29.1-23.3,45.5-41C156.3,157.6,146.4,158.8,136.5,159.6z"/>
				<path class="st14" d="M136.5,159.6c-8.6,0.7-17.1,1-25.6,1c-12.8,0-25.5-0.8-37.9-2.3c-6.1-0.7-11.8-1.6-17-2.6
					c16.4,17.7,34.8,32.8,45.7,41.2c5.6,4.3,13.4,4.3,19,0c10.8-8.3,29.1-23.3,45.5-41C156.3,157.6,146.4,158.8,136.5,159.6z"/>
				<path class="st15" d="M136.5,159.5c-8.6,0.7-17.1,1-25.6,1c-12.8,0-25.5-0.8-37.9-2.3c-6.1-0.7-11.8-1.6-17-2.6
					c16.4,17.7,34.8,32.8,45.7,41.2c5.6,4.3,13.4,4.3,19,0c10.8-8.3,29.1-23.3,45.5-41C156.3,157.5,146.4,158.7,136.5,159.5z"/>
				<path class="st16" d="M136.5,159.5c-8.6,0.7-17.1,1-25.6,1c-12.8,0-25.5-0.8-37.9-2.3c-6.1-0.7-11.8-1.6-17-2.6
					c16.4,17.7,34.8,32.8,45.7,41.2c5.6,4.3,13.4,4.3,19,0c10.8-8.3,29.1-23.3,45.5-41C156.3,157.5,146.4,158.7,136.5,159.5z"/>
				<path class="st17" d="M136.5,159.4c-8.6,0.7-17.1,1-25.6,1c-12.8,0-25.5-0.8-37.9-2.3c-6.1-0.7-11.8-1.6-17-2.6
					c16.4,17.7,34.8,32.8,45.7,41.2c5.6,4.3,13.4,4.3,19,0c10.8-8.3,29.1-23.3,45.5-41C156.3,157.4,146.4,158.7,136.5,159.4z"/>
				<path class="st18" d="M136.5,159.4c-8.6,0.7-17.1,1-25.6,1c-12.8,0-25.5-0.8-37.9-2.3c-6.1-0.7-11.8-1.6-17-2.6
					c16.4,17.7,34.8,32.8,45.7,41.2c5.6,4.3,13.4,4.3,19,0c10.8-8.3,29.1-23.3,45.5-41C156.3,157.4,146.4,158.6,136.5,159.4z"/>
				<path class="st19" d="M136.5,159.4c-8.6,0.7-17.1,1-25.6,1c-12.8,0-25.5-0.8-37.9-2.3c-6.1-0.7-11.8-1.6-17-2.6
					c16.4,17.7,34.8,32.8,45.7,41.2c5.6,4.3,13.4,4.3,19,0c10.8-8.3,29.1-23.3,45.5-41C156.3,157.4,146.4,158.6,136.5,159.4z"/>
				<path class="st20" d="M136.5,159.3c-8.6,0.7-17.1,1-25.6,1c-12.8,0-25.5-0.8-37.9-2.3c-6.1-0.7-11.8-1.6-17-2.6
					c16.4,17.7,34.8,32.8,45.7,41.2c5.6,4.3,13.4,4.3,19,0c10.8-8.3,29.1-23.3,45.5-41C156.3,157.3,146.4,158.6,136.5,159.3z"/>
				<path class="st21" d="M136.5,159.3c-8.7,0.7-17.1,1-25.6,1c-12.8,0-25.5-0.8-37.9-2.3c-6.1-0.7-11.8-1.6-17-2.6
					c16.4,17.7,34.8,32.8,45.7,41.2c5.6,4.3,13.4,4.3,19,0c10.8-8.3,29.1-23.3,45.5-41C156.3,157.3,146.4,158.5,136.5,159.3z"/>
				<path class="st22" d="M136.5,159.2c-8.7,0.7-17.1,1-25.6,1c-12.8,0-25.5-0.8-37.9-2.3c-6.1-0.7-11.8-1.6-17-2.6
					c16.4,17.7,34.8,32.8,45.7,41.2c5.6,4.3,13.4,4.3,19,0c10.8-8.3,29.1-23.3,45.5-41C156.3,157.2,146.4,158.5,136.5,159.2z"/>
				<path class="st23" d="M136.5,159.2c-8.7,0.7-17.1,1-25.6,1c-12.8,0-25.5-0.8-37.9-2.3c-6.1-0.7-11.8-1.6-17-2.6
					c16.4,17.7,34.8,32.8,45.7,41.2c5.6,4.3,13.4,4.3,19,0c10.8-8.3,29.1-23.3,45.5-41C156.3,157.2,146.4,158.4,136.5,159.2z"/>
				<path class="st24" d="M136.5,159.2c-8.7,0.7-17.1,1-25.6,1c-12.8,0-25.5-0.8-37.9-2.3c-6.1-0.7-11.8-1.6-17-2.6
					c16.4,17.7,34.8,32.8,45.7,41.2c5.6,4.3,13.4,4.3,19,0c10.8-8.3,29.1-23.3,45.5-41C156.3,157.2,146.4,158.4,136.5,159.2z"/>
				<path class="st25" d="M136.5,159.1c-8.7,0.7-17.1,1-25.6,1c-12.8,0-25.5-0.8-37.9-2.3c-6.1-0.7-11.8-1.6-17-2.6
					c16.4,17.7,34.8,32.8,45.7,41.2c5.6,4.3,13.4,4.3,19,0c10.8-8.3,29.1-23.3,45.5-41C156.3,157.1,146.4,158.4,136.5,159.1z"/>
				<path class="st26" d="M136.5,159.1c-8.7,0.7-17.1,1-25.6,1c-12.8,0-25.5-0.8-37.9-2.3c-6.1-0.7-11.8-1.6-17-2.6
					c16.4,17.7,34.8,32.8,45.7,41.2c5.6,4.3,13.4,4.3,19,0c10.8-8.3,29.1-23.3,45.5-41C156.3,157.1,146.4,158.3,136.5,159.1z"/>
				<path class="st27" d="M136.5,159.1c-8.7,0.7-17.1,1-25.6,1c-12.8,0-25.5-0.8-37.9-2.3c-6.1-0.7-11.8-1.6-17-2.6
					c16.4,17.7,34.8,32.8,45.7,41.2c5.6,4.3,13.4,4.3,19,0c10.8-8.3,29.1-23.3,45.5-41C156.3,157.1,146.4,158.3,136.5,159.1z"/>
				<path class="st28" d="M136.5,159c-8.7,0.7-17.1,1-25.6,1c-12.8,0-25.5-0.8-37.9-2.3c-6.1-0.7-11.8-1.6-17-2.6
					c16.4,17.7,34.8,32.8,45.7,41.2c5.6,4.3,13.4,4.3,19,0c10.8-8.3,29.1-23.3,45.5-41C156.3,157,146.4,158.2,136.5,159z"/>
				<path class="st29" d="M136.5,159c-8.7,0.7-17.1,1-25.6,1c-12.8,0-25.5-0.8-37.9-2.3c-6.1-0.7-11.8-1.6-17-2.6
					c16.4,17.7,34.8,32.8,45.7,41.2c5.6,4.3,13.4,4.3,19,0c10.8-8.3,29.1-23.3,45.5-41C156.3,157,146.4,158.2,136.5,159z"/>
				<path class="st30" d="M136.5,158.9c-8.7,0.7-17.1,1-25.6,1c-12.8,0-25.5-0.8-37.9-2.3c-6.1-0.7-11.8-1.6-17-2.6
					c16.4,17.7,34.8,32.8,45.7,41.2c5.6,4.3,13.4,4.3,19,0c10.8-8.3,29.1-23.3,45.5-41C156.3,156.9,146.4,158.2,136.5,158.9z"/>
				<path class="st31" d="M136.5,158.9c-8.7,0.7-17.1,1-25.6,1c-12.8,0-25.5-0.8-37.9-2.3c-6.1-0.7-11.8-1.6-17-2.6
					c16.4,17.7,34.8,32.8,45.7,41.2c5.6,4.3,13.4,4.3,19,0c10.8-8.3,29.1-23.3,45.5-41C156.3,156.9,146.4,158.1,136.5,158.9z"/>
				<path class="st32" d="M136.5,158.9c-8.7,0.7-17.1,1-25.6,1c-12.8,0-25.5-0.8-37.9-2.3c-6.1-0.7-11.8-1.6-17-2.6
					c16.4,17.7,34.8,32.8,45.7,41.2c5.6,4.3,13.4,4.3,19,0c10.8-8.3,29.1-23.3,45.5-41C156.3,156.9,146.4,158.1,136.5,158.9z"/>
				<path class="st33" d="M136.5,158.8c-8.7,0.7-17,1-25.6,1c-12.8,0-25.5-0.8-37.9-2.3c-6.1-0.7-11.8-1.6-17-2.6
					c16.4,17.7,34.8,32.8,45.7,41.2c5.6,4.3,13.4,4.3,19,0c10.8-8.3,29.1-23.3,45.5-41C156.3,156.8,146.4,158,136.5,158.8z"/>
				<path class="st34" d="M136.5,158.8c-8.7,0.7-17,1-25.6,1c-12.8,0-25.5-0.8-37.9-2.3c-6.1-0.7-11.8-1.6-17-2.6
					c16.4,17.7,34.8,32.8,45.7,41.2c5.6,4.3,13.4,4.3,19,0c10.8-8.3,29.1-23.3,45.5-41C156.3,156.8,146.4,158,136.5,158.8z"/>
				<path class="st35" d="M136.5,158.7c-8.7,0.7-17,1-25.6,1c-12.8,0-25.5-0.8-37.9-2.3c-6.1-0.7-11.8-1.6-17-2.6
					c16.4,17.7,34.8,32.8,45.7,41.2c5.6,4.3,13.4,4.3,19,0c10.8-8.3,29.1-23.3,45.5-41C156.3,156.7,146.4,158,136.5,158.7z"/>
				<path class="st36" d="M136.5,158.7c-8.7,0.7-17,1-25.6,1c-12.8,0-25.5-0.8-37.9-2.3c-6.1-0.7-11.8-1.6-17-2.6
					c16.4,17.7,34.8,32.8,45.7,41.2c5.6,4.3,13.4,4.3,19,0c10.8-8.3,29.1-23.3,45.5-41C156.3,156.7,146.4,157.9,136.5,158.7z"/>
				<path class="st37" d="M136.5,158.7c-8.7,0.7-17,1-25.6,1c-12.8,0-25.5-0.8-37.9-2.3c-6.1-0.7-11.8-1.6-17-2.6
					c16.4,17.7,34.8,32.8,45.7,41.2c5.6,4.3,13.4,4.3,19,0c10.8-8.3,29.1-23.3,45.5-41C156.3,156.7,146.4,157.9,136.5,158.7z"/>
				<path class="st38" d="M136.5,158.6c-8.7,0.7-17,1-25.6,1c-12.8,0-25.5-0.8-37.9-2.3c-6.1-0.7-11.8-1.6-17-2.6
					c16.4,17.7,34.8,32.8,45.7,41.2c5.6,4.3,13.4,4.3,19,0c10.8-8.3,29.1-23.3,45.5-41C156.3,156.6,146.4,157.9,136.5,158.6z"/>
				<path class="st39" d="M136.5,158.6c-8.7,0.7-17,1-25.6,1c-12.8,0-25.5-0.8-37.9-2.3c-6.1-0.7-11.8-1.6-17-2.6
					c16.4,17.7,34.8,32.8,45.7,41.2c5.6,4.3,13.4,4.3,19,0c10.8-8.3,29.1-23.3,45.5-41C156.3,156.6,146.4,157.8,136.5,158.6z"/>
				<path class="st40" d="M136.5,158.5c-8.7,0.7-17,1-25.6,1c-12.8,0-25.5-0.8-37.9-2.3c-6.1-0.7-11.8-1.6-17-2.6
					c16.4,17.7,34.8,32.8,45.7,41.2c5.6,4.3,13.4,4.3,19,0c10.8-8.3,29.1-23.3,45.5-41C156.3,156.5,146.4,157.8,136.5,158.5z"/>
				<path class="st41" d="M136.5,158.5c-8.7,0.7-17,1-25.6,1c-12.8,0-25.5-0.8-37.9-2.3c-6.1-0.7-11.8-1.6-17-2.6
					c16.4,17.7,34.8,32.8,45.7,41.2c5.6,4.3,13.4,4.3,19,0c10.8-8.3,29.1-23.3,45.5-41C156.3,156.5,146.4,157.7,136.5,158.5z"/>
				<path class="st42" d="M136.5,158.5c-8.8,0.7-17,1-25.6,1c-12.8,0-25.5-0.8-37.9-2.3c-6.1-0.7-11.8-1.6-17-2.6
					c16.4,17.7,34.8,32.8,45.7,41.2c5.6,4.3,13.4,4.3,19,0c10.8-8.3,29.1-23.3,45.5-41C156.3,156.5,146.4,157.7,136.5,158.5z"/>
				<path class="st43" d="M136.5,158.4c-8.8,0.7-17,1-25.6,1c-12.8,0-25.5-0.8-37.9-2.3c-6.1-0.7-11.8-1.6-17-2.6
					c16.4,17.7,34.8,32.8,45.7,41.2c5.6,4.3,13.4,4.3,19,0c10.8-8.3,29.1-23.3,45.5-41C156.3,156.4,146.4,157.7,136.5,158.4z"/>
				<path class="st44" d="M136.5,158.4c-8.8,0.7-17,1-25.6,1c-12.8,0-25.5-0.8-37.9-2.3c-6.1-0.7-11.8-1.6-17-2.6
					c16.4,17.7,34.8,32.8,45.7,41.2c5.6,4.3,13.4,4.3,19,0c10.8-8.3,29.1-23.3,45.5-41C156.3,156.4,146.4,157.6,136.5,158.4z"/>
				<path class="st45" d="M136.5,158.4c-8.8,0.7-17,1-25.6,1c-12.8,0-25.5-0.8-37.9-2.3c-6.1-0.7-11.8-1.6-17-2.6
					c16.4,17.7,34.8,32.8,45.7,41.2c5.6,4.3,13.4,4.3,19,0c10.8-8.3,29.1-23.3,45.5-41C156.3,156.4,146.4,157.6,136.5,158.4z"/>
				<path class="st46" d="M136.5,158.3c-8.8,0.7-17,1-25.6,1c-12.8,0-25.5-0.8-37.9-2.3c-6.1-0.7-11.8-1.6-17-2.6
					c16.4,17.7,34.8,32.8,45.7,41.2c5.6,4.3,13.4,4.3,19,0c10.8-8.3,29.1-23.3,45.5-41C156.3,156.3,146.4,157.5,136.5,158.3z"/>
				<path class="st47" d="M136.5,158.3c-8.8,0.7-17,1-25.6,1c-12.8,0-25.5-0.8-37.9-2.3c-6.1-0.7-11.8-1.6-17-2.6
					c16.4,17.7,34.8,32.8,45.7,41.2c5.6,4.3,13.4,4.3,19,0c10.8-8.3,29.1-23.3,45.5-41C156.3,156.3,146.4,157.5,136.5,158.3z"/>
				<path class="st48" d="M136.5,158.2c-8.8,0.7-17,1-25.6,1c-12.8,0-25.5-0.8-37.9-2.3c-6.1-0.7-11.8-1.6-17-2.6
					c16.4,17.7,34.8,32.8,45.7,41.2c5.6,4.3,13.4,4.3,19,0c10.8-8.3,29.1-23.3,45.5-41C156.3,156.2,146.4,157.5,136.5,158.2z"/>
				<path class="st49" d="M136.5,158.2c-8.8,0.7-17,1-25.6,1c-12.8,0-25.5-0.8-37.9-2.3c-6.1-0.7-11.8-1.6-17-2.6
					c16.4,17.7,34.8,32.8,45.7,41.2c5.6,4.3,13.4,4.3,19,0c10.8-8.3,29.1-23.3,45.5-41C156.3,156.2,146.4,157.4,136.5,158.2z"/>
				<path class="st50" d="M136.5,158.2c-8.8,0.7-17,1-25.6,1c-12.8,0-25.5-0.8-37.9-2.3c-6.1-0.7-11.8-1.6-17-2.6
					c16.4,17.7,34.8,32.8,45.7,41.2c5.6,4.3,13.4,4.3,19,0c10.8-8.3,29.1-23.3,45.5-41C156.3,156.2,146.4,157.4,136.5,158.2z"/>
				<path class="st51" d="M136.5,158.1c-8.8,0.7-17,1-25.6,1c-12.8,0-25.5-0.8-37.9-2.3c-6.1-0.7-11.8-1.6-17-2.6
					c16.4,17.7,34.8,32.8,45.7,41.2c5.6,4.3,13.4,4.3,19,0c10.8-8.3,29.1-23.3,45.5-41C156.3,156.1,146.4,157.3,136.5,158.1z"/>
				<path class="st52" d="M136.5,158.1c-8.8,0.7-17,1-25.6,1c-12.8,0-25.5-0.8-37.9-2.3c-6.1-0.7-11.8-1.6-17-2.6
					c16.4,17.7,34.8,32.8,45.7,41.2c5.6,4.3,13.4,4.3,19,0c10.8-8.3,29.1-23.3,45.5-41C156.3,156.1,146.4,157.3,136.5,158.1z"/>
				<path class="st53" d="M136.5,158c-8.8,0.7-17,1-25.6,1c-12.8,0-25.5-0.8-37.9-2.3c-6.1-0.7-11.8-1.6-17-2.6
					c16.4,17.7,34.8,32.8,45.7,41.2c5.6,4.3,13.4,4.3,19,0c10.8-8.3,29.1-23.3,45.5-41C156.3,156,146.4,157.3,136.5,158z"/>
				<path class="st54" d="M136.5,158c-8.8,0.7-17,1-25.6,1c-12.8,0-25.5-0.8-37.9-2.3c-6.1-0.7-11.8-1.6-17-2.6
					c16.4,17.7,34.8,32.8,45.7,41.2c5.6,4.3,13.4,4.3,19,0c10.8-8.3,29.1-23.3,45.5-41C156.3,156,146.4,157.2,136.5,158z"/>
				<path class="st55" d="M136.5,158c-8.8,0.7-17,1-25.6,1c-12.8,0-25.5-0.8-37.9-2.3c-6.1-0.7-11.8-1.6-17-2.6
					c16.4,17.7,34.8,32.8,45.7,41.2c5.6,4.3,13.4,4.3,19,0c10.8-8.3,29.1-23.3,45.5-41C156.3,156,146.4,157.2,136.5,158z"/>
				<path class="st56" d="M136.5,157.9c-8.8,0.7-17,1-25.6,1c-12.8,0-25.5-0.8-37.9-2.3c-6.1-0.7-11.8-1.6-17-2.6
					c16.4,17.7,34.8,32.8,45.7,41.2c5.6,4.3,13.4,4.3,19,0c10.8-8.3,29.1-23.3,45.5-41C156.3,155.9,146.4,157.2,136.5,157.9z"/>
				<path class="st57" d="M136.5,157.9c-8.8,0.7-17,1-25.6,1c-12.8,0-25.5-0.8-37.9-2.3c-6.1-0.7-11.8-1.6-17-2.6
					c16.4,17.7,34.8,32.8,45.7,41.2c5.6,4.3,13.4,4.3,19,0c10.8-8.3,29.1-23.3,45.5-41C156.3,155.9,146.4,157.1,136.5,157.9z"/>
				<path class="st58" d="M136.5,157.8c-8.8,0.7-17,1-25.6,1c-12.8,0-25.5-0.8-37.9-2.3c-6.1-0.7-11.8-1.6-17-2.6
					c16.4,17.7,34.8,32.8,45.7,41.2c5.6,4.3,13.4,4.3,19,0c10.8-8.3,29.1-23.3,45.5-41C156.3,155.8,146.4,157.1,136.5,157.8z"/>
				<path class="st59" d="M136.5,157.8c-8.8,0.7-17,1-25.6,1c-12.8,0-25.5-0.8-37.9-2.3c-6.1-0.7-11.8-1.6-17-2.6
					c16.4,17.7,34.8,32.8,45.7,41.2c5.6,4.3,13.4,4.3,19,0c10.8-8.3,29.1-23.3,45.5-41C156.3,155.8,146.4,157,136.5,157.8z"/>
				<path class="st60" d="M136.5,157.8c-8.8,0.7-17,1-25.6,1c-12.8,0-25.5-0.8-37.9-2.3c-6.1-0.7-11.8-1.6-17-2.6
					c16.4,17.7,34.8,32.8,45.7,41.2c5.6,4.3,13.4,4.3,19,0c10.8-8.3,29.1-23.3,45.5-41C156.3,155.8,146.4,157,136.5,157.8z"/>
				<path class="st61" d="M136.5,157.7c-8.8,0.7-17,1-25.6,1c-12.8,0-25.5-0.8-37.9-2.3c-6.1-0.7-11.8-1.6-17-2.6
					c16.4,17.7,34.8,32.8,45.7,41.2c5.6,4.3,13.4,4.3,19,0c10.8-8.3,29.1-23.3,45.5-41C156.3,155.7,146.4,157,136.5,157.7z"/>
				<path class="st62" d="M136.5,157.7c-8.8,0.7-17,1-25.6,1c-12.8,0-25.5-0.8-37.9-2.3c-6.1-0.7-11.8-1.6-17-2.6
					c16.4,17.7,34.8,32.8,45.7,41.2c5.6,4.3,13.4,4.3,19,0c10.8-8.3,29.1-23.3,45.5-41C156.3,155.7,146.4,156.9,136.5,157.7z"/>
				<path class="st63" d="M136.5,157.7c-8.9,0.7-17,1-25.6,1c-12.8,0-25.5-0.8-37.9-2.3c-6.1-0.7-11.8-1.6-17-2.6
					c16.4,17.7,34.8,32.8,45.7,41.2c5.6,4.3,13.4,4.3,19,0c10.8-8.3,29.1-23.3,45.5-41C156.3,155.7,146.4,156.9,136.5,157.7z"/>
				<path class="st64" d="M136.5,157.6c-8.9,0.7-17,1-25.6,1c-12.8,0-25.5-0.8-37.9-2.3c-6.1-0.7-11.8-1.6-17-2.6
					c16.4,17.7,34.8,32.8,45.7,41.2c5.6,4.3,13.4,4.3,19,0c10.8-8.3,29.1-23.3,45.5-41C156.3,155.6,146.4,156.8,136.5,157.6z"/>
				<path class="st65" d="M136.5,157.6c-8.9,0.7-17,1-25.6,1c-12.8,0-25.5-0.8-37.9-2.3c-6.1-0.7-11.8-1.6-17-2.6
					c16.4,17.7,34.8,32.8,45.7,41.2c5.6,4.3,13.4,4.3,19,0c10.8-8.3,29.1-23.3,45.5-41C156.3,155.6,146.4,156.8,136.5,157.6z"/>
				<path class="st66" d="M136.5,157.5c-8.9,0.7-17,1-25.6,1c-12.8,0-25.5-0.8-37.9-2.3c-6.1-0.7-11.8-1.6-17-2.6
					c16.4,17.7,34.8,32.8,45.7,41.2c5.6,4.3,13.4,4.3,19,0c10.8-8.3,29.1-23.3,45.5-41C156.3,155.5,146.4,156.8,136.5,157.5z"/>
				<path class="st67" d="M136.5,157.5c-8.9,0.7-17,1-25.6,1c-12.8,0-25.5-0.8-37.9-2.3c-6.1-0.7-11.8-1.6-17-2.6
					c16.4,17.7,34.8,32.8,45.7,41.2c5.6,4.3,13.4,4.3,19,0c10.8-8.3,29.1-23.3,45.5-41C156.3,155.5,146.4,156.7,136.5,157.5z"/>
				<path class="st68" d="M136.5,157.5c-8.9,0.7-17,1-25.6,1c-12.8,0-25.5-0.8-37.9-2.3c-6.1-0.7-11.8-1.6-17-2.6
					c16.4,17.7,34.8,32.8,45.7,41.2c5.6,4.3,13.4,4.3,19,0c10.8-8.3,29.1-23.3,45.5-41C156.3,155.5,146.4,156.7,136.5,157.5z"/>
				<path class="st69" d="M136.5,157.4c-8.9,0.7-17,1-25.6,1c-12.8,0-25.5-0.8-37.9-2.3c-6.1-0.7-11.8-1.6-17-2.6
					c16.4,17.7,34.8,32.8,45.7,41.2c5.6,4.3,13.4,4.3,19,0c10.8-8.3,29.1-23.3,45.5-41C156.3,155.4,146.4,156.6,136.5,157.4z"/>
				<path class="st70" d="M136.5,157.4c-8.9,0.7-17,1-25.6,1c-12.8,0-25.5-0.8-37.9-2.3c-6.1-0.7-11.8-1.6-17-2.6
					c16.4,17.7,34.8,32.8,45.7,41.2c5.6,4.3,13.4,4.3,19,0c10.8-8.3,29.1-23.3,45.5-41C156.3,155.4,146.4,156.6,136.5,157.4z"/>
				<path class="st71" d="M136.5,157.3c-8.9,0.7-17,1-25.6,1c-12.8,0-25.5-0.8-37.9-2.3c-6.1-0.7-11.8-1.6-17-2.6
					c16.4,17.7,34.8,32.8,45.7,41.2c5.6,4.3,13.4,4.3,19,0c10.8-8.3,29.1-23.3,45.5-41C156.3,155.3,146.4,156.6,136.5,157.3z"/>
				<path class="st72" d="M136.5,157.3c-8.9,0.7-17,1-25.6,1c-12.8,0-25.5-0.8-37.9-2.3c-6.1-0.7-11.8-1.6-17-2.6
					c16.4,17.7,34.8,32.8,45.7,41.2c5.6,4.3,13.4,4.3,19,0c10.8-8.3,29.1-23.3,45.5-41C156.3,155.3,146.4,156.5,136.5,157.3z"/>
				<path class="st73" d="M136.5,157.3c-8.9,0.7-17,1-25.6,1c-12.8,0-25.5-0.8-37.9-2.3c-6.1-0.7-11.8-1.6-17-2.6
					c16.4,17.7,34.8,32.8,45.7,41.2c5.6,4.3,13.4,4.3,19,0c10.8-8.3,29.1-23.3,45.5-41C156.3,155.3,146.4,156.5,136.5,157.3z"/>
				<path class="st74" d="M136.5,157.2c-8.9,0.7-17,1-25.6,1c-12.8,0-25.5-0.8-37.9-2.3c-6.1-0.7-11.8-1.6-17-2.6
					c16.4,17.7,34.8,32.8,45.7,41.2c5.6,4.3,13.4,4.3,19,0c10.8-8.3,29.1-23.3,45.5-41C156.3,155.2,146.4,156.4,136.5,157.2z"/>
				<path class="st75" d="M136.5,157.2c-8.9,0.7-17,1-25.6,1c-12.8,0-25.5-0.8-37.9-2.3c-6.1-0.7-11.8-1.6-17-2.6
					c16.4,17.7,34.8,32.8,45.7,41.2c5.6,4.3,13.4,4.3,19,0c10.8-8.3,29.1-23.3,45.5-41C156.3,155.2,146.4,156.4,136.5,157.2z"/>
				<path class="st76" d="M136.5,157.1c-8.9,0.7-17,1-25.6,1c-12.8,0-25.5-0.8-37.9-2.3c-6.1-0.7-11.8-1.6-17-2.6
					c16.4,17.7,34.8,32.8,45.7,41.2c5.6,4.3,13.4,4.3,19,0c10.8-8.3,29.1-23.3,45.5-41C156.3,155.1,146.4,156.4,136.5,157.1z"/>
				<path class="st77" d="M136.5,157.1c-8.9,0.7-17,1-25.6,1c-12.8,0-25.5-0.8-37.9-2.3c-6.1-0.7-11.8-1.6-17-2.6
					c16.4,17.7,34.8,32.8,45.7,41.2c5.6,4.3,13.4,4.3,19,0c10.8-8.3,29.1-23.3,45.5-41C156.3,155.1,146.4,156.3,136.5,157.1z"/>
				<path class="st78" d="M136.5,157.1c-8.9,0.7-17,1-25.6,1c-12.8,0-25.5-0.8-37.9-2.3c-6.1-0.7-11.8-1.6-17-2.6
					c16.4,17.7,34.8,32.8,45.7,41.2c5.6,4.3,13.4,4.3,19,0c10.8-8.3,29.1-23.3,45.5-41C156.3,155.1,146.4,156.3,136.5,157.1z"/>
				<path class="st79" d="M136.5,157c-8.9,0.7-16.9,1-25.6,1c-12.8,0-25.5-0.8-37.9-2.3c-6.1-0.7-11.8-1.6-17-2.6
					c16.4,17.7,34.8,32.8,45.7,41.2c5.6,4.3,13.4,4.3,19,0c10.8-8.3,29.1-23.3,45.5-41C156.3,155,146.4,156.3,136.5,157z"/>
				<path class="st80" d="M136.5,157c-8.9,0.7-16.9,1-25.6,1c-12.8,0-25.5-0.8-37.9-2.3c-6.1-0.7-11.8-1.6-17-2.6
					c16.4,17.7,34.8,32.8,45.7,41.2c5.6,4.3,13.4,4.3,19,0c10.8-8.3,29.1-23.3,45.5-41C156.3,155,146.4,156.2,136.5,157z"/>
				<path class="st81" d="M136.5,156.9c-8.9,0.7-16.9,1-25.6,1c-12.8,0-25.5-0.8-37.9-2.3c-6.1-0.7-11.8-1.6-17-2.6
					c16.4,17.7,34.8,32.8,45.7,41.2c5.6,4.3,13.4,4.3,19,0c10.8-8.3,29.1-23.3,45.5-41C156.3,155,146.4,156.2,136.5,156.9z"/>
				<path class="st82" d="M136.5,156.9c-8.9,0.7-16.9,1-25.6,1c-12.8,0-25.5-0.8-37.9-2.3c-6.1-0.7-11.8-1.6-17-2.6
					c16.4,17.7,34.8,32.8,45.7,41.2c5.6,4.3,13.4,4.3,19,0c10.8-8.3,29.1-23.3,45.5-41C156.3,154.9,146.4,156.1,136.5,156.9z"/>
				<path class="st83" d="M136.5,156.9c-8.9,0.7-16.9,1-25.6,1c-12.8,0-25.5-0.8-37.9-2.3c-6.1-0.7-11.8-1.6-17-2.6
					c16.4,17.7,34.8,32.8,45.7,41.2c5.6,4.3,13.4,4.3,19,0c10.8-8.3,29.1-23.3,45.5-41C156.3,154.9,146.4,156.1,136.5,156.9z"/>
				<path class="st84" d="M136.5,156.8c-9,0.7-16.9,1-25.6,1c-12.8,0-25.5-0.8-37.9-2.3c-6.1-0.7-11.8-1.6-17-2.6
					c16.4,17.7,34.8,32.8,45.7,41.2c5.6,4.3,13.4,4.3,19,0c10.8-8.3,29.1-23.3,45.5-41C156.3,154.8,146.4,156.1,136.5,156.8z"/>
				<path class="st85" d="M136.5,156.8c-9,0.7-16.9,1-25.6,1c-12.8,0-25.5-0.8-37.9-2.3c-6.1-0.7-11.8-1.6-17-2.6
					c16.4,17.7,34.8,32.8,45.7,41.2c5.6,4.3,13.4,4.3,19,0c10.8-8.3,29.1-23.3,45.5-41C156.3,154.8,146.4,156,136.5,156.8z"/>
				<path class="st86" d="M136.5,156.8c-9,0.7-16.9,1-25.6,1c-12.8,0-25.5-0.8-37.9-2.3c-6.1-0.7-11.8-1.6-17-2.6
					c16.4,17.7,34.8,32.8,45.7,41.2c5.6,4.3,13.4,4.3,19,0c10.8-8.3,29.1-23.3,45.5-41C156.3,154.8,146.4,156,136.5,156.8z"/>
				<path class="st87" d="M136.5,156.7c-9,0.7-16.9,1-25.6,1c-12.8,0-25.5-0.8-37.9-2.3c-6.1-0.7-11.8-1.6-17-2.6
					c16.4,17.7,34.8,32.8,45.7,41.2c5.6,4.3,13.4,4.3,19,0c10.8-8.3,29.1-23.3,45.5-41C156.3,154.7,146.4,155.9,136.5,156.7z"/>
				<path class="st88" d="M136.5,156.7c-9,0.7-16.9,1-25.6,1c-12.8,0-25.5-0.8-37.9-2.3c-6.1-0.7-11.8-1.6-17-2.6
					c16.4,17.7,34.8,32.8,45.7,41.2c5.6,4.3,13.4,4.3,19,0c10.8-8.3,29.1-23.3,45.5-41C156.3,154.7,146.4,155.9,136.5,156.7z"/>
				<path class="st89" d="M136.5,156.6c-9,0.7-16.9,1-25.6,1c-12.8,0-25.5-0.8-37.9-2.3c-6.1-0.7-11.8-1.6-17-2.6
					c16.4,17.7,34.8,32.8,45.7,41.2c5.6,4.3,13.4,4.3,19,0c10.8-8.3,29.1-23.3,45.5-41C156.3,154.6,146.4,155.9,136.5,156.6z"/>
				<path class="st90" d="M136.5,156.6c-9,0.7-16.9,1-25.6,1c-12.8,0-25.5-0.8-37.9-2.3c-6.1-0.7-11.8-1.6-17-2.6
					c16.4,17.7,34.8,32.8,45.7,41.2c5.6,4.3,13.4,4.3,19,0c10.8-8.3,29.1-23.3,45.5-41C156.3,154.6,146.4,155.8,136.5,156.6z"/>
				<path class="st91" d="M136.5,156.6c-9,0.7-16.9,1-25.6,1c-12.8,0-25.5-0.8-37.9-2.3c-6.1-0.7-11.8-1.6-17-2.6
					c16.4,17.7,34.8,32.8,45.7,41.2c5.6,4.3,13.4,4.3,19,0c10.8-8.3,29.1-23.3,45.5-41C156.3,154.6,146.4,155.8,136.5,156.6z"/>
				<path class="st92" d="M136.5,156.5c-9,0.7-16.9,1-25.6,1c-12.8,0-25.5-0.8-37.9-2.3c-6.1-0.7-11.8-1.6-17-2.6
					c16.4,17.7,34.8,32.8,45.7,41.2c5.6,4.3,13.4,4.3,19,0c10.8-8.3,29.1-23.3,45.5-41C156.3,154.5,146.4,155.7,136.5,156.5z"/>
				<path class="st93" d="M136.5,156.5c-9,0.7-16.9,1-25.6,1c-12.8,0-25.5-0.8-37.9-2.3c-6.1-0.7-11.8-1.6-17-2.6
					c16.4,17.7,34.8,32.8,45.7,41.2c5.6,4.3,13.4,4.3,19,0c10.8-8.3,29.1-23.3,45.5-41C156.3,154.5,146.4,155.7,136.5,156.5z"/>
				<path class="st94" d="M136.5,156.4c-9,0.7-16.9,1-25.6,1c-12.8,0-25.5-0.8-37.9-2.3c-6.1-0.7-11.8-1.6-17-2.6
					c16.4,17.7,34.8,32.8,45.7,41.2c5.6,4.3,13.4,4.3,19,0c10.8-8.3,29.1-23.3,45.5-41C156.3,154.4,146.4,155.7,136.5,156.4z"/>
			</g>
			<g>
				<path class="st94" d="M152.1,96.1c6.8-4.2,10.1-14.8,10.1-14.9c0.4-1.4,1.8-2.1,3.2-1.7c1.4,0.4,2.1,1.8,1.7,3.2
					c-0.1,0.2-0.9,2.8-2.5,6.1c-0.6,1.1,0.3,2.4,1.5,2.3c5.1-0.4,11.6-4.4,14-6.3c0.9-0.7,2.3-0.6,3,0.3c0.8,0.9,0.6,2.3-0.4,3.1
					c-0.3,0.3-5.9,4.4-12.1,6.3c-0.2,0.1-0.4,0.3-0.4,0.5l0,0.3c0,0.3,0.3,0.6,0.6,0.6c6.2-0.8,12.2-4.4,12.3-4.5
					c1-0.6,2.3-0.3,3,0.7c0.6,1,0.3,2.3-0.7,2.9c-0.4,0.2-7.5,4.5-15.1,5.2c-0.3,0-0.5,0.2-0.5,0.5l0,0c0,0.3,0.2,0.5,0.5,0.6
					c7.2,0.9,14.4-2.2,14.5-2.2c1.1-0.5,2.4,0,2.8,1.1c0.5,1.1,0,2.4-1.1,2.8c-0.4,0.2-7,3-14.5,2.8c-0.8,0-1.6-0.1-2.4-0.2
					c-0.2,0-0.3,0.1-0.3,0.2l0,0c0,0.1,0.1,0.3,0.2,0.3c6,1.5,12,2.1,12.1,2.1c1,0.1,1.8,1,1.7,2c-0.1,1-0.9,1.7-1.9,1.7
					c0,0-0.1,0-0.1,0c-0.4,0-8.6-0.8-15.7-3c-3.6-0.1-16.2,6.2-34.5,11.1c-31.3,6.1-57.1,0.1-64.5-2.6c-7.5-3-12.7-13.1-12.7-13.2
					c-0.7-1.3-2.2-1.8-3.5-1.2c-1.3,0.6-1.8,2.2-1.2,3.5c0.1,0.2,1.4,2.8,3.7,5.9c0.7,0.9,0.1,2.2-1,2.3c-5.2,0.7-12.6-2.3-15.4-3.8
					c-1-0.5-2.4-0.2-2.9,0.8c-0.6,1.1-0.2,2.5,0.9,3c0.4,0.2,6.6,3.4,13.1,4.2c0.3,0,0.5,0.2,0.6,0.5l0,0c0.1,0.4-0.2,0.9-0.6,0.9
					c-6.3,0.2-12.7-2.3-12.8-2.3c-1.1-0.4-2.4,0.1-2.8,1.2c-0.4,1.1,0.1,2.4,1.2,2.8c0.4,0.2,8.2,3.2,15.9,2.6
					c0.3,0,0.5,0.1,0.6,0.4v0c0.1,0.3-0.1,0.6-0.4,0.7c-7,2.2-14.8,0.3-14.8,0.3c-1.2-0.3-2.3,0.4-2.6,1.6c-0.3,1.2,0.4,2.4,1.6,2.7
					c0.4,0.1,7.5,1.8,14.9,0.2c0.8-0.2,1.5-0.4,2.3-0.6c0.2,0,0.3,0,0.4,0.2l0,0c0,0.1,0,0.3-0.2,0.3c-5.7,2.6-11.6,4.2-11.7,4.2
					c-1,0.3-1.6,1.3-1.3,2.3c0.3,1,1.2,1.6,2.2,1.4c0,0,0.1,0,0.1,0c0.4-0.1,8.4-2.3,15.1-5.8c6.1-1.2,51.5,21.2,120.6,1.6
					c6.6-1.9,24.7-19.8,24.7-47.3c0-49.6-89.7-57.1-89.7,9.4c0-48.9-48.6-57.8-74.3-39.3C26,64.5,25.3,92.3,38.1,95.6
					C131.4,119.8,148,97.5,152.1,96.1z"/>
			</g>
		</g>
		<g>
			<g>
				<defs>
					<path id="XMLID_2_" d="M136.9,156.3c-8.7,0.7-17.4,1-26,1c-13,0-25.9-0.8-38.5-2.3c-6.2-0.8-11.9-1.6-17.2-2.6
						c16.7,18,35.4,33.3,46.4,41.8c5.7,4.4,13.6,4.4,19.3,0c11-8.5,29.6-23.7,46.2-41.6C157,154.3,146.9,155.5,136.9,156.3z"/>
				</defs>
				<use xlink:href="#XMLID_2_"  style="overflow:visible;fill:#1C77C3;"/>
				<clipPath id="XMLID_4_">
					<use xlink:href="#XMLID_2_"  style="overflow:visible;"/>
				</clipPath>
				<path class="st95" d="M175.5,146.4c-1-0.9-70.3,53.9-99.6,43.5c-8.1-2.9,51.4,22.4,52.6,22.7c1.3,0.3,45.1-17,52.3-27.7
					C188.1,174.1,175.5,146.4,175.5,146.4z"/>
			</g>
			<g>
				<defs>
					<path id="XMLID_1_" d="M152.9,96.8c6.9-4.3,10.3-15,10.3-15.2c0.4-1.4,1.9-2.2,3.3-1.8c1.4,0.4,2.2,1.9,1.8,3.3
						c-0.1,0.2-0.9,2.9-2.5,6.2c-0.6,1.1,0.3,2.4,1.6,2.3c5.2-0.4,11.8-4.5,14.3-6.4c0.9-0.7,2.3-0.6,3.1,0.3c0.8,1,0.6,2.4-0.4,3.1
						c-0.3,0.3-6,4.5-12.3,6.4c-0.2,0.1-0.4,0.3-0.4,0.5l0,0.3c0,0.4,0.3,0.6,0.6,0.6c6.3-0.9,12.4-4.5,12.4-4.5
						c1-0.6,2.4-0.3,3,0.7c0.6,1,0.3,2.4-0.7,3c-0.4,0.2-7.6,4.6-15.3,5.2c-0.3,0-0.5,0.2-0.5,0.5l0,0c0,0.3,0.2,0.5,0.5,0.6
						c7.3,0.9,14.7-2.2,14.8-2.3c1.1-0.5,2.4,0,2.9,1.1c0.5,1.1,0,2.4-1.1,2.9c-0.4,0.2-7.1,3.1-14.7,2.8c-0.8,0-1.6-0.1-2.4-0.2
						c-0.2,0-0.3,0.1-0.3,0.2l0,0c0,0.1,0.1,0.3,0.2,0.3c6.1,1.5,12.2,2.1,12.3,2.1c1,0.1,1.8,1,1.7,2.1c-0.1,1-1,1.7-1.9,1.7
						c0,0-0.1,0-0.1,0c-0.4,0-8.7-0.8-15.9-3.1c-3.7-0.1-16.5,6.3-35.1,11.3c-31.8,6.2-57.9,0.1-65.5-2.6
						c-7.6-3.1-12.9-13.3-12.9-13.4c-0.7-1.3-2.3-1.9-3.6-1.2c-1.3,0.7-1.8,2.3-1.2,3.6c0.1,0.2,1.4,2.9,3.8,6
						c0.7,0.9,0.1,2.2-1,2.3c-5.3,0.7-12.8-2.4-15.7-3.9c-1.1-0.5-2.4-0.2-3,0.8c-0.6,1.1-0.2,2.5,0.9,3.1c0.4,0.2,6.7,3.5,13.3,4.3
						c0.3,0,0.5,0.2,0.6,0.5l0,0c0.1,0.4-0.2,0.9-0.7,0.9c-6.4,0.2-12.9-2.3-13-2.4c-1.1-0.4-2.4,0.1-2.9,1.3
						c-0.4,1.1,0.1,2.4,1.3,2.9c0.4,0.2,8.3,3.3,16.1,2.6c0.3,0,0.5,0.1,0.6,0.4v0c0.1,0.3-0.1,0.6-0.4,0.7
						c-7.1,2.2-15,0.3-15.1,0.3c-1.2-0.3-2.4,0.4-2.7,1.6c-0.3,1.2,0.4,2.4,1.6,2.7c0.4,0.1,7.6,1.9,15.1,0.2
						c0.8-0.2,1.6-0.4,2.3-0.6c0.2,0,0.3,0,0.4,0.2l0,0c0,0.1,0,0.3-0.2,0.3c-5.8,2.6-11.8,4.3-11.8,4.3c-1,0.3-1.6,1.3-1.3,2.4
						c0.3,1,1.3,1.6,2.2,1.4c0,0,0.1,0,0.1,0c0.4-0.1,8.5-2.4,15.3-5.9c6.2-1.2,52.2,21.5,122.5,1.6c6.7-1.9,25.1-20.1,25.1-48.1
						c0-50.3-91.1-57.9-91.1,9.6c0-49.7-49.4-58.7-75.4-39.9C24.8,64.8,24.6,87.7,35.8,95C123.7,115.4,148.7,98.2,152.9,96.8z"/>
				</defs>
				<use xlink:href="#XMLID_1_"  style="overflow:visible;fill:#1C77C3;"/>
				<clipPath id="XMLID_5_">
					<use xlink:href="#XMLID_1_"  style="overflow:visible;"/>
				</clipPath>
				<path class="st96" d="M111.3,92.7c0,0-11.7-45.8-56.2-32.7c-29.7,8.8-37.5,35.6-37.5,35.6L-5.2,55.9l108.6-33.7L111.3,92.7z"/>
				<path class="st96" d="M206.1,81.8c0,0-29.6-37.8-65.2-22.1c-34.8,15.4-29.7,37.1-29.7,37.1l12-76.8l54.8,4.1L206.1,81.8z"/>
			</g>
		</g>
		<path class="st97" d="M142.9,31.3c-2.4,2.8-8.1,3.8-8.6,3.9c-0.1,0-4.3-4.9-3.9-8.6c0.4-3.4,4.1-6.8,7.6-1.2
			C144.6,23.6,145.2,28.6,142.9,31.3z"/>
		<path class="st97" d="M109.7,9.6c0.1,3.7-3.6,8.1-3.9,8.6c-0.1,0-6.5-0.9-8.6-3.9c-1.9-2.8-1.4-7.8,4.9-5.9
			C105.9,2.6,109.6,6.1,109.7,9.6z"/>
	</g>
</g>
</svg>
