<svg xmlns="http://www.w3.org/2000/svg" width="38" height="38" viewBox="0 0 38 38">
    <path fill="#3d82ab" d="M446 128a19 19 0 1 0 19 19 19 19 0 0 0-19-19zm8.675 14.814q.013.28.013.564a12.324 12.324 0 0 1-12.408 12.408 12.344 12.344 0 0 1-6.685-1.959 8.867 8.867 0 0 0 1.04.06 8.751 8.751 0 0 0 5.417-1.867 4.366 4.366 0 0 1-4.074-3.029 4.346 4.346 0 0 0 1.97-.075 4.362 4.362 0 0 1-3.5-4.275v-.056a4.332 4.332 0 0 0 1.975.545 4.365 4.365 0 0 1-1.35-5.822 12.382 12.382 0 0 0 8.989 4.557 4.363 4.363 0 0 1 7.431-3.977 8.749 8.749 0 0 0 2.769-1.059 4.379 4.379 0 0 1-1.918 2.412 8.7 8.7 0 0 0 2.5-.687 8.863 8.863 0 0 1-2.175 2.258zm0 0" transform="translate(-427 -128)"/>
</svg>
