<svg xmlns="http://www.w3.org/2000/svg" viewBox="0 0 75 75"><defs><style>.cls-1{fill:#e95653;}.cls-2{fill:#b0565f;}.cls-3{fill:#fff;}</style></defs><title>Effizienz-icon</title><g id="Layer_2" data-name="Layer 2"><g id="Layer_1-2" data-name="Layer 1"><circle class="cls-1" cx="37.5" cy="37.5" r="37.5"/><path class="cls-2" d="M75,37.5a37.6,37.6,0,0,0-.43-5.66c-7.26-5.62-15.86-12.28-17.71-13.45-6,8-11.19,24.23-19.36,26.11-3.12.72-6.85-1.85-11-6-7.49,3-14.94,19.78-16,20,4,2.46,19,12,27.26,16.49A37.49,37.49,0,0,0,75,37.5Z"/><polygon class="cls-3" points="62.36 30.73 54.9 25.54 38.09 49.71 26.38 40.75 11.68 60.57 8.79 58.44 25.66 35.7 37.28 44.59 51.95 23.49 44.49 18.3 59.64 15.59 62.36 30.73"/></g></g></svg>