<?xml version="1.0" encoding="utf-8"?>
<!-- Generator: Adobe Illustrator 24.1.3, SVG Export Plug-In . SVG Version: 6.00 Build 0)  -->
<svg version="1.1" id="Ebene_1" xmlns="http://www.w3.org/2000/svg" xmlns:xlink="http://www.w3.org/1999/xlink" x="0px" y="0px"
	 viewBox="0 0 965 625" style="enable-background:new 0 0 965 625;" xml:space="preserve">
<style type="text/css">
	.st0{fill:none;stroke:#96A0A5;stroke-width:4.7557;stroke-miterlimit:10;}
	.st1{fill:#333333;}
	.st2{fill:#F8F9FA;stroke:#7FAAC5;stroke-width:0.8807;stroke-miterlimit:10;}
	.st3{fill:#788287;}
	.st4{fill:#96A0A5;stroke:#BFD4E2;stroke-width:0.7446;stroke-miterlimit:10;}
	.st5{opacity:0.4;fill:#FFFFFF;enable-background:new    ;}
	.st6{fill:#4A4A49;}
	.st7{fill:#F39200;}
	.st8{fill:#FF7D1F;}
	.st9{fill:#FFFFFF;}
	.st10{fill:#8C8D90;}
	.st11{fill:#808080;}
	.st12{fill:#1A1A1A;}
	.st13{fill:#003D9D;}
	.st14{fill:#6E6E6D;}
	.st15{fill:#E11E19;}
	.st16{clip-path:url(#SVGID_2_);}
	.st17{opacity:0.24;fill:#FFFFFF;enable-background:new    ;}
	.st18{clip-path:url(#SVGID_4_);}
	.st19{fill:none;}
	.st20{fill:#F0C32D;}
	.st21{opacity:0.24;clip-path:url(#SVGID_6_);fill:#FFFFFF;enable-background:new    ;}
	.st22{enable-background:new    ;}
	.st23{fill:#E95653;}
	.st24{fill:#F08E8C;}
</style>
<path class="st0" d="M488.3,8.2h207.4c21.2,0,38.4,17.2,38.4,38.4v509.6c0,21.2-17.2,38.4-38.4,38.4H488.3
	c-21.2,0-38.4-17.2-38.4-38.4V46.7C449.9,25.4,467.1,8.2,488.3,8.2z"/>
<path class="st1" d="M488.3,8.2h207.4c21.2,0,38.4,17.2,38.4,38.4v509.6c0,21.2-17.2,38.4-38.4,38.4H488.3
	c-21.2,0-38.4-17.2-38.4-38.4V46.7C449.9,25.4,467.1,8.2,488.3,8.2z"/>
<path class="st2" d="M488.5,15.3H694c18.3,0,33.1,14.8,33.1,33.1v503.3c0,18.3-14.8,33.1-33.1,33.1H488.5
	c-18.3,0-33.1-14.8-33.1-33.1V48.3C455.5,30.1,470.3,15.3,488.5,15.3z"/>
<path class="st1" d="M662.7,13.7V22c0,5.8-4.7,10.5-10.5,10.5H531c-5.8,0-10.5-4.7-10.5-10.5v-8.2"/>
<path class="st3" d="M614.9,21.8h-48.7c-0.7,0-1.3-0.6-1.3-1.3c0-0.7,0.6-1.3,1.3-1.3h48.7c0.7,0,1.3,0.6,1.3,1.3
	C616.2,21.3,615.6,21.8,614.9,21.8z"/>
<circle class="st4" cx="625.9" cy="20.6" r="3.9"/>
<path class="st4" d="M625.9,25.1c-2.5,0-4.6-2.1-4.6-4.6s2.1-4.6,4.6-4.6s4.6,2.1,4.6,4.6S628.4,25.1,625.9,25.1z M625.9,17.2
	c-1.8,0-3.4,1.5-3.4,3.4c0,1.8,1.5,3.4,3.4,3.4s3.4-1.5,3.4-3.4l0,0C629.3,18.7,627.8,17.2,625.9,17.2z"/>
<path class="st5" d="M448.4,559.6l0.7-513.1c0.1-21.9,17.9-39.7,39.8-39.8H601"/>
<path class="st6" d="M692.7,227.2h1.9v-5.8h1.1l1.8,5.8h2l-2.1-6.2c0.6-0.3,1-0.8,1.3-1.4c0.2-0.6,0.4-1.3,0.4-2
	c0-2.6-1.1-3.9-3.4-3.9h-3.1L692.7,227.2L692.7,227.2z M694.6,215.6h1c0.3,0,0.6,0,0.9,0.2c0.2,0.1,0.4,0.2,0.5,0.4
	c0.2,0.2,0.2,0.4,0.2,0.6c0.1,0.6,0.1,1.2,0,1.8c0,0.2-0.1,0.5-0.2,0.6c-0.1,0.2-0.2,0.3-0.5,0.4s-0.6,0.2-0.8,0.2h-1.1L694.6,215.6
	L694.6,215.6z M685.6,227.2h5.8v-1.9h-3.8v-3.9h3.4v-1.8h-3.4v-3.9h3.8v-1.8h-5.8V227.2z M677.6,227.2h1.9v-6h2.4v6h1.9v-13.5H682
	v5.8h-2.4v-5.8h-1.9L677.6,227.2L677.6,227.2z M676,223.3h-1.9v0.6c0,0.2,0,0.4-0.1,0.6c-0.1,0.2-0.2,0.3-0.3,0.4s-0.2,0.2-0.4,0.2
	c-0.2,0.1-0.2,0.1-0.4,0.1c-0.3,0.1-0.7-0.1-0.9-0.4c-0.2-0.3-0.2-0.6-0.2-1v-6.9c0-0.4,0.1-0.8,0.2-1.1c0.2-0.3,0.6-0.5,1-0.5
	c0.3,0,0.6,0.2,0.9,0.4s0.3,0.6,0.3,1v0.6h1.9v-0.7c0-0.4-0.1-0.9-0.2-1.3c-0.2-0.4-0.4-0.7-0.6-1s-0.6-0.5-1-0.6
	c-0.4-0.2-0.8-0.2-1.2-0.2s-0.9,0.1-1.3,0.2c-0.3,0.2-0.7,0.4-1,0.6c-0.2,0.3-0.5,0.6-0.6,1c-0.2,0.4-0.2,0.8-0.2,1.2v7.4
	c0,0.6,0.1,1,0.3,1.5c0.2,0.4,0.4,0.7,0.7,1c0.3,0.2,0.6,0.4,1,0.5s0.7,0.2,1.1,0.2s0.8-0.1,1.2-0.2c0.3-0.2,0.7-0.4,1-0.6
	c0.2-0.3,0.5-0.6,0.6-1c0.2-0.4,0.2-0.8,0.2-1.2L676,223.3z M661.4,227.2h1.9l0.6-2.9h2.6l0.6,2.9h1.9l-3-13.5h-1.6L661.4,227.2z
	 M666.1,222.5h-1.9l1-4.9l0,0L666.1,222.5z M656.3,215.6h0.8c0.5-0.1,1,0.1,1.4,0.5c0.2,0.4,0.4,0.9,0.4,1.4s-0.1,1-0.3,1.4
	c-0.3,0.4-0.8,0.6-1.3,0.5h-0.9L656.3,215.6L656.3,215.6z M656.3,220.9h0.9c0.3,0,0.6,0,0.9,0.2c0.2,0.1,0.4,0.2,0.5,0.4
	c0.2,0.2,0.2,0.4,0.2,0.6c0.1,0.3,0.1,0.6,0.1,0.9v0.9c0,0.2-0.1,0.5-0.2,0.7c-0.1,0.2-0.2,0.4-0.5,0.5c-0.2,0.2-0.6,0.2-0.9,0.2
	h-0.8L656.3,220.9L656.3,220.9z M654.4,227.2h2.6c1,0.1,2-0.2,2.7-1c0.6-0.8,1-1.8,0.9-2.7v-0.7c0-0.6-0.1-1.1-0.3-1.7
	c-0.2-0.4-0.6-0.7-1-1c0.2-0.1,0.4-0.2,0.6-0.4c0.2-0.2,0.3-0.3,0.4-0.5c0.1-0.2,0.2-0.4,0.2-0.6c0.1-0.3,0.1-0.6,0.1-1v-0.5
	c0-0.4-0.1-0.9-0.2-1.3c-0.1-0.4-0.3-0.8-0.6-1.1s-0.6-0.6-1-0.7c-0.5-0.2-1-0.3-1.6-0.3h-2.8L654.4,227.2L654.4,227.2z
	 M646.4,227.2h1.9v-5.8h1.1l1.8,5.8h2l-2.1-6.2c0.6-0.3,1-0.8,1.3-1.4c0.2-0.6,0.4-1.3,0.4-2c0-2.6-1.1-3.9-3.4-3.9h-3.1
	L646.4,227.2L646.4,227.2z M648.3,215.6h1c0.3,0,0.6,0,0.9,0.2c0.2,0.1,0.4,0.2,0.5,0.4c0.2,0.2,0.2,0.4,0.2,0.6
	c0.1,0.6,0.1,1.2,0,1.8c0,0.2-0.1,0.5-0.2,0.6c-0.1,0.2-0.2,0.3-0.5,0.4s-0.6,0.2-0.8,0.2h-1.1L648.3,215.6L648.3,215.6z
	 M639.5,227.2h5.8v-1.9h-3.8v-3.9h3.4v-1.8h-3.4v-3.9h3.8v-1.8h-5.8V227.2z M628.9,227.2h1.9V219l0,0l1.9,5.8h1l1.9-5.8l0,0v8.2h1.9
	v-13.5h-1.8l-2.5,7.1l0,0l-2.5-7.1h-1.8L628.9,227.2L628.9,227.2z M618.4,227.2h1.9V219l0,0l1.9,5.8h1l1.9-5.8l0,0v8.2h1.9v-13.5
	h-1.8l-2.5,7.1l0,0l-2.5-7.1h-1.8L618.4,227.2L618.4,227.2z M609.9,227.2h1.9l0.6-2.9h2.6l0.6,2.9h1.9l-3-13.5H613L609.9,227.2z
	 M614.6,222.5h-1.9l1-4.9l0,0L614.6,222.5z M602.7,227.2h1.9v-6h2.4v6h1.9v-13.5H607v5.8h-2.4v-5.8h-1.9L602.7,227.2L602.7,227.2z"
	/>
<path class="st6" d="M590,227.4h1.9v-4l1-1.9l2.2,6h2l-3.1-8.1l2.6-5.4h-1.9l-2.8,6.2l0,0V214H590V227.4L590,227.4z M583,227.4h5.8
	v-1.9H585v-3.9h3.4v-1.8H585v-3.9h3.8v-1.8H583V227.4z M574.6,227.4h1.9v-8.1l0,0l3,8.1h1.8v-13.5h-1.9v8.1l0,0l-2.9-8.1h-1.8
	L574.6,227.4z M566.1,227.4h1.9l0.6-2.9h2.6l0.6,2.9h1.9l-3-13.5h-1.6L566.1,227.4z M570.8,222.6h-1.9l1-4.9l0,0L570.8,222.6z
	 M561.9,215.7h1c0.3,0,0.6,0.1,0.9,0.2c0.2,0.1,0.3,0.3,0.5,0.5c0.1,0.2,0.2,0.5,0.2,0.7v1.8c0,0.2-0.1,0.5-0.2,0.7
	s-0.2,0.4-0.5,0.5c-0.2,0.2-0.6,0.2-0.9,0.2h-1V215.7L561.9,215.7z M559.9,227.4h1.9v-5.3h1c0.6,0,1.2-0.1,1.8-0.4
	c0.4-0.2,0.8-0.6,1-1s0.4-0.8,0.5-1.2c0.1-0.5,0.1-1,0.1-1.5c0-0.6-0.1-1.3-0.2-1.9c-0.1-0.5-0.3-0.9-0.6-1.2s-0.7-0.6-1.1-0.7
	c-0.4-0.2-0.9-0.2-1.4-0.2H560L559.9,227.4L559.9,227.4z"/>
<path class="st6" d="M545.9,227.2h1.9v-8.1l0,0l3,8.1h1.8v-13.5h-1.9v8.1l0,0l-2.9-8.1H546L545.9,227.2L545.9,227.2z M539.1,227.2
	h5.8v-1.9H541v-3.9h3.4v-1.8H541v-3.9h3.8v-1.8H539L539.1,227.2L539.1,227.2z M531,227.2h1.9v-4l1-1.9l2.2,6h2l-3.1-8.1l2.6-5.4
	h-1.9L533,220l0,0v-6.2h-2V227.2z M529.4,223.3h-1.9v0.6c0,0.2,0,0.4-0.1,0.6c-0.1,0.2-0.2,0.3-0.3,0.4c-0.2,0.1-0.2,0.2-0.4,0.2
	c-0.2,0.1-0.2,0.1-0.4,0.1c-0.3,0.1-0.7-0.1-0.9-0.4c-0.2-0.3-0.2-0.6-0.2-1v-6.9c0-0.4,0.1-0.8,0.2-1.1c0.2-0.3,0.6-0.5,1-0.5
	c0.3,0,0.6,0.2,0.9,0.4c0.2,0.2,0.3,0.6,0.3,1v0.6h1.9v-0.7c0-0.4-0.1-0.9-0.2-1.3c-0.2-0.4-0.4-0.7-0.6-1c-0.2-0.3-0.6-0.5-1-0.6
	c-0.4-0.2-0.8-0.2-1.2-0.2s-0.9,0.1-1.3,0.2c-0.3,0.2-0.7,0.4-1,0.6c-0.2,0.3-0.5,0.6-0.6,1c-0.2,0.4-0.2,0.8-0.2,1.2v7.4
	c0,0.6,0.1,1,0.3,1.5c0.2,0.4,0.4,0.7,0.7,1c0.3,0.2,0.6,0.4,1,0.5s0.7,0.2,1.1,0.2c0.4,0,0.8-0.1,1.2-0.2c0.3-0.2,0.7-0.4,1-0.6
	c0.2-0.3,0.5-0.6,0.6-1c0.2-0.4,0.2-0.8,0.2-1.2L529.4,223.3z M514.8,227.2h1.9l0.6-2.9h2.6l0.6,2.9h1.9l-3-13.5h-1.6L514.8,227.2z
	 M519.5,222.5h-1.9l1-4.9l0,0L519.5,222.5z M507.2,227.2h1.9v-8.1l0,0l3,8.1h1.8v-13.5H512v8.1l0,0l-2.9-8.1h-1.8L507.2,227.2z
	 M499.3,227.2h1.9v-6h2.4v6h1.9v-13.5h-1.9v5.8h-2.4v-5.8h-1.9V227.2z M497.7,223.3h-1.9v0.6c0,0.2,0,0.4-0.1,0.6
	c-0.1,0.2-0.2,0.3-0.3,0.4c-0.2,0.1-0.2,0.2-0.4,0.2c-0.2,0.1-0.2,0.1-0.4,0.1c-0.3,0.1-0.7-0.1-0.9-0.4c-0.2-0.3-0.2-0.6-0.2-1
	v-6.9c0-0.4,0.1-0.8,0.2-1.1c0.2-0.3,0.6-0.5,1-0.5c0.3,0,0.6,0.2,0.9,0.4c0.2,0.2,0.3,0.6,0.3,1v0.6h1.9v-0.7
	c0-0.4-0.1-0.9-0.2-1.3c-0.2-0.4-0.4-0.7-0.6-1s-0.6-0.5-1-0.6c-0.4-0.2-0.8-0.2-1.2-0.2c-0.4,0-0.9,0.1-1.3,0.2
	c-0.3,0.2-0.7,0.4-1,0.6c-0.2,0.3-0.5,0.6-0.6,1c-0.2,0.4-0.2,0.8-0.2,1.2v7.4c0,0.6,0.1,1,0.3,1.5c0.2,0.4,0.4,0.7,0.7,1
	c0.3,0.2,0.6,0.4,1,0.5s0.7,0.2,1.1,0.2s0.8-0.1,1.2-0.2c0.3-0.2,0.7-0.4,1-0.6c0.2-0.3,0.5-0.6,0.6-1c0.2-0.4,0.2-0.8,0.2-1.2
	L497.7,223.3z M490.1,216.7c0-0.4-0.1-0.8-0.2-1.1c-0.2-0.3-0.4-0.7-0.6-1c-0.3-0.3-0.6-0.6-1-0.7c-0.4-0.2-0.9-0.2-1.3-0.2
	c-0.5,0-1,0.1-1.4,0.3s-0.7,0.5-1,0.8s-0.6,0.7-0.6,1.2c-0.2,0.5-0.2,1-0.2,1.4c0,0.7,0.2,1.4,0.4,2.1c0.4,0.6,1,1.1,1.7,1.4
	l1.4,0.6c0.2,0.1,0.4,0.2,0.6,0.3s0.2,0.2,0.3,0.3c0.1,0.2,0.2,0.4,0.2,0.6c0.1,0.3,0.1,0.6,0,0.9v0.8c0,0.2-0.1,0.4-0.2,0.6
	c-0.1,0.2-0.2,0.3-0.4,0.4c-0.2,0.1-0.6,0.2-0.8,0.2c-0.4,0.1-0.8-0.1-1-0.4c-0.2-0.2-0.3-0.6-0.3-1v-0.6h-1.9v0.7
	c0,1.3,0.8,2.5,2,3c0.4,0.2,0.9,0.2,1.3,0.2c0.6,0,1.1-0.1,1.6-0.3c0.4-0.2,0.7-0.5,1-0.8c0.2-0.4,0.5-0.8,0.6-1.3
	c0.1-0.6,0.2-1,0.2-1.6c0-0.4,0-0.9-0.1-1.3c-0.1-0.3-0.2-0.7-0.3-1c-0.2-0.3-0.4-0.6-0.6-0.8c-0.3-0.2-0.6-0.5-1-0.6l-1.4-0.6
	c-0.2-0.1-0.4-0.2-0.6-0.3s-0.2-0.2-0.3-0.3c-0.1-0.2-0.2-0.3-0.2-0.5v-0.6c0-0.2,0-0.4,0.1-0.6c0-0.2,0.1-0.4,0.2-0.6
	c0.1-0.2,0.2-0.3,0.4-0.4c0.2-0.1,0.4-0.2,0.6-0.2c0.4,0,0.8,0.2,1,0.5s0.3,0.7,0.3,1.1v0.4h1.9L490.1,216.7z"/>
<path class="st6" d="M649.3,236.1h1.8v-0.4h-4.2v0.4h1.8v5.8h0.5L649.3,236.1L649.3,236.1z M645.3,241.9h0.5v-6.2h-0.5v2.9H642v-2.9
	h-0.5v6.2h0.5v-3h3.3V241.9z M639.9,240.2h-0.5c-0.1,0.9-0.9,1.5-1.8,1.4c-0.1,0-0.1,0-0.2,0c-0.3-0.1-0.6-0.2-0.9-0.5
	c-0.5-0.5-0.5-1-0.5-2.3c0-1.4,0-1.8,0.5-2.3c0.3-0.3,0.7-0.5,1.2-0.5c0.8,0,1.5,0.6,1.7,1.4h0.5c-0.2-1-1.1-1.8-2.2-1.8
	c-0.6,0-1.1,0.2-1.6,0.6c-0.6,0.6-0.6,1.1-0.6,2.6c0,1.4,0,2,0.6,2.6c0.4,0.4,1,0.6,1.6,0.6C638.8,242,639.8,241.2,639.9,240.2
	 M630.6,241.9h3.8v-0.4H631V239h2.8v-0.4H631v-2.5h3.4v-0.4h-3.8L630.6,241.9L630.6,241.9z M628.5,237.4c0.1,0.6-0.4,1.2-1.1,1.3
	l0,0h-2.1v-2.6h1.8c0.6-0.1,1.3,0.3,1.4,1c0,0,0,0,0,0.1L628.5,237.4 M628.5,241.9h0.6l-1.5-2.9c0.9-0.1,1.5-0.8,1.4-1.6
	c0,0,0,0,0-0.1c0.1-0.9-0.6-1.6-1.5-1.7h-0.1h-2.6v6.2h0.5V239h1.8L628.5,241.9z M618.6,236.1h1.8v-0.4h-4.2v0.4h1.8v5.8h0.5
	L618.6,236.1z M612.4,236.1h3.4v-0.4H612v6.2h0.5V239h2.8v-0.4h-2.8L612.4,236.1L612.4,236.1z M608.2,236.3l1.3,3.7h-2.6
	L608.2,236.3z M610.2,241.9h0.5l-2.3-6.2H608l-2.3,6.2h0.5l0.6-1.5h3L610.2,241.9z M604.1,241.9h0.5v-6.2h-0.5v2.9h-3.3v-2.9h-0.5
	v6.2h0.5v-3h3.3V241.9z M598.8,240.2h-0.5c-0.1,0.9-0.9,1.5-1.8,1.4c-0.1,0-0.1,0-0.2,0c-0.3-0.1-0.6-0.2-0.9-0.5
	c-0.5-0.5-0.5-1-0.5-2.3c0-1.4,0-1.8,0.5-2.3c0.3-0.3,0.7-0.5,1.2-0.5c0.8,0,1.5,0.6,1.7,1.4h0.5c-0.2-1-1.1-1.8-2.2-1.8
	c-0.6,0-1.1,0.2-1.6,0.6c-0.6,0.6-0.6,1.1-0.6,2.6c0,1.4,0,2,0.6,2.6c0.4,0.4,1,0.6,1.6,0.6C597.7,242,598.6,241.2,598.8,240.2
	 M593.3,240.2c0-0.5-0.2-0.9-0.6-1.2c-0.3-0.2-0.7-0.4-1.1-0.4l-0.6-0.1c-0.3-0.1-0.6-0.2-1-0.4c-0.2-0.2-0.3-0.5-0.3-0.8
	c0-0.7,0.6-1.3,1.2-1.3c0.1,0,0.2,0,0.2,0c0.6,0,1.1,0.2,1.5,0.6l0.3-0.3c-0.5-0.5-1.2-0.7-1.8-0.6c-1.2,0-1.9,0.6-1.9,1.7
	c0,0.4,0.2,0.8,0.5,1.1c0.3,0.2,0.7,0.4,1.1,0.5l0.7,0.1c0.3,0,0.6,0.2,0.9,0.3c0.2,0.2,0.4,0.6,0.3,0.9c0,0.8-0.6,1.3-1.6,1.3
	c-0.6,0-1.3-0.2-1.8-0.7l-0.3,0.3c0.6,0.6,1.3,0.9,2.1,0.8C592.5,242,593.3,241.3,593.3,240.2 M586.4,236.1h1.8v-0.4H584v0.4h1.8
	v5.8h0.5L586.4,236.1z M582.8,237.4c0.1,0.6-0.4,1.2-1.1,1.3l0,0h-2.1v-2.6h1.8c0.6-0.1,1.3,0.3,1.4,1c0,0,0,0,0,0.1L582.8,237.4
	 M582.8,241.9h0.6l-1.5-2.9c0.9-0.1,1.5-0.8,1.4-1.6c0,0,0,0,0-0.1c0.1-0.9-0.6-1.6-1.5-1.7h-0.1H579v6.2h0.5V239h1.8L582.8,241.9z
	 M576.6,241.9h0.5v-6.2h-0.5V241.9z M573.9,241.9l1.6-6.2H575l-1.4,5.4l-1.4-5.4h-0.5l-1.4,5.4l-1.4-5.4h-0.5l1.6,6.2h0.5l1.4-5.4
	l1.4,5.4H573.9z M562.6,237.4c0.1,0.6-0.4,1.2-1.1,1.3l0,0h-2.1v-2.6h1.8c0.6-0.1,1.3,0.3,1.4,1c0,0,0,0,0,0.1
	C562.6,237.2,562.7,237.3,562.6,237.4 M562.6,241.9h0.6l-1.5-2.9c0.9-0.1,1.5-0.8,1.4-1.6c0,0,0,0,0-0.1c0.1-0.9-0.6-1.6-1.5-1.7
	h-0.1h-2.6v6.2h0.5V239h1.8L562.6,241.9z M553.6,241.9h3.8v-0.4H554V239h2.8v-0.4H554v-2.5h3.4v-0.4h-3.8L553.6,241.9L553.6,241.9z
	 M551.8,239.9v-4.2h-0.5v4.2c0.1,1-0.6,1.7-1.6,1.8s-1.7-0.6-1.8-1.6l0,0v-4.2h-0.5v4.2c0,1.2,1,2.1,2.2,2.1l0,0
	C550.8,242,551.7,241,551.8,239.9 M542.3,241.9h3.8v-0.4h-3.4V239h2.8v-0.4h-2.8v-2.5h3.4v-0.4h-3.8V241.9L542.3,241.9z
	 M539.2,236.1h1.8v-0.4h-4.2v0.4h1.8v5.8h0.5L539.2,236.1z M536.1,240.2c0-0.5-0.2-0.9-0.6-1.2c-0.3-0.2-0.7-0.4-1.1-0.4l-0.6-0.1
	c-0.3-0.1-0.6-0.2-1-0.4c-0.2-0.2-0.3-0.5-0.3-0.8c0-0.7,0.6-1.3,1.2-1.3c0.1,0,0.2,0,0.2,0c0.6,0,1.1,0.2,1.5,0.6l0.3-0.3
	c-0.5-0.5-1.2-0.7-1.8-0.6c-1.2,0-1.9,0.6-1.9,1.7c0,0.4,0.2,0.8,0.5,1.1c0.3,0.2,0.7,0.4,1.1,0.5l0.7,0.1c0.3,0,0.6,0.2,0.9,0.3
	c0.2,0.2,0.4,0.6,0.3,0.9c0,0.8-0.6,1.3-1.6,1.3c-0.6,0-1.3-0.2-1.8-0.7l-0.3,0.3c0.6,0.6,1.3,0.9,2.1,0.8
	C535.3,242,536.1,241.3,536.1,240.2"/>
<path class="st7" d="M588.4,174.7c-0.3,0-0.6,0.1-1,0.2c-0.2,0.2-0.4,0.3-0.6,0.6c-0.2,0.2-0.2,0.6-0.3,0.8c-0.1,0.6-0.1,1.3,0,1.9
	c0,0.2,0.1,0.5,0.2,0.7c0.1,0.2,0.3,0.4,0.5,0.5c0.3,0.2,0.6,0.3,0.9,0.5l2.2,0.9c0.1,0,0.1,0.1,0.2,0.1v-3.8c0-0.6-0.2-1.2-0.5-1.7
	C589.7,174.8,589,174.6,588.4,174.7z"/>
<path class="st7" d="M591.6,165.6c-9,0-16.3,7.3-16.3,16.3s7.3,16.3,16.3,16.3s16.3-7.3,16.3-16.3l0,0l0,0
	C607.8,172.9,600.5,165.6,591.6,165.6z M599.6,178.9v11.4h-2.8v-6.2h-3.5v2.2c0,0.7-0.1,1.4-0.2,2.2c-0.2,0.6-0.4,1.3-0.8,1.8
	s-0.9,1-1.5,1.2c-0.7,0.3-1.5,0.5-2.3,0.5c-0.6,0-1.4-0.1-1.9-0.4c-1.1-0.5-2.1-1.4-2.6-2.5c-0.2-0.6-0.4-1.2-0.4-1.8v-1h2.8v0.9
	c0,0.5,0.2,1,0.5,1.4c0.3,0.5,1,0.7,1.5,0.6c0.4,0,0.8-0.1,1.1-0.2c0.2-0.2,0.5-0.3,0.6-0.6c0.2-0.3,0.2-0.6,0.2-1s0.1-0.8,0.1-1.2
	s0-0.9-0.1-1.3c0-0.6-0.3-1-0.7-1.3c-0.2-0.2-0.6-0.3-0.9-0.4l-2-0.8c-1-0.3-1.9-1-2.5-2c-0.5-1-0.6-2.1-0.6-3.1
	c0-0.7,0.1-1.4,0.3-2.1c0.2-0.6,0.5-1.2,0.9-1.7s1-0.9,1.5-1.1c0.6-0.3,1.4-0.5,2.2-0.4c0.3,0,0.6,0,0.9,0.1c0.3,0.1,0.6,0.1,1,0.1
	h4.2c0.7,0,1.4,0.1,2.1,0.3s1.2,0.6,1.6,1.1c0.5,0.5,0.8,1.1,1,1.8c0.2,0.9,0.3,1.8,0.2,2.8C599.6,178.4,599.6,178.9,599.6,178.9
	L599.6,178.9z"/>
<path class="st7" d="M596.6,175.6c-0.2-0.3-0.4-0.6-0.6-0.7c-0.4-0.2-0.8-0.3-1.3-0.2h-1.4v1.6l0,0v1.4l0,0v3.6h3.5V176
	C596.7,175.9,596.7,175.7,596.6,175.6z"/>
<rect x="499.3" y="366.5" class="st8" width="184.5" height="29.4"/>
<path class="st9" d="M566.4,385.4h-4.1v-6.8h3.9v1.3h-2.4v1.5h2.2v1.3h-2.2v1.5h2.6V385.4z"/>
<path class="st9" d="M574,385.4h-1.5l-2.8-4.2c-0.2-0.2-0.2-0.3-0.3-0.6l0,0v4.9H568v-6.8h1.7l2.7,4.2c0.2,0.2,0.2,0.3,0.3,0.6l0,0
	c0-0.3,0-0.6,0-1v-3.8h1.4L574,385.4z"/>
<path class="st9" d="M580.6,379.9h-1.9v5.5h-1.5v-5.5h-1.9v-1.3h5.4L580.6,379.9z"/>
<path class="st9" d="M581.6,385.2v-1.5c0.5,0.5,1.1,0.7,1.8,0.7c0.2,0,0.3,0,0.5-0.1c0.2,0,0.2-0.1,0.4-0.2l0.2-0.2
	c0.1-0.1,0.1-0.2,0.1-0.2c0-0.2,0-0.2-0.1-0.3c-0.1-0.1-0.2-0.2-0.3-0.3l-0.5-0.2c-0.2-0.1-0.4-0.2-0.6-0.2
	c-0.5-0.2-0.9-0.5-1.2-0.8c-0.2-0.3-0.4-0.7-0.4-1.1c0-0.3,0.1-0.6,0.2-0.9c0.2-0.2,0.3-0.5,0.6-0.6s0.6-0.3,0.9-0.4s0.7-0.1,1-0.1
	s0.6,0,1,0.1c0.2,0,0.5,0.1,0.7,0.2v1.4c-0.2-0.1-0.2-0.2-0.4-0.2c-0.2-0.1-0.2-0.1-0.4-0.2c-0.2,0-0.2-0.1-0.4-0.1h-0.4
	c-0.2,0-0.3,0-0.5,0.1c-0.2,0-0.2,0.1-0.4,0.2l-0.2,0.2c-0.1,0.1-0.1,0.2-0.1,0.3c0,0.1,0,0.2,0.1,0.3l0.2,0.2
	c0.2,0.1,0.2,0.2,0.4,0.2s0.4,0.2,0.6,0.2c0.2,0.1,0.5,0.2,0.7,0.4c0.2,0.1,0.4,0.2,0.6,0.4c0.2,0.2,0.2,0.3,0.3,0.6
	c0.1,0.2,0.2,0.5,0.2,0.7c0,0.3-0.1,0.6-0.2,1c-0.2,0.2-0.3,0.5-0.6,0.6s-0.6,0.3-0.9,0.3c-0.7,0.1-1.4,0.1-2.1,0
	C582.2,385.4,581.9,385.2,581.6,385.2z"/>
<path class="st9" d="M589.3,383.1v2.3h-1.6v-6.8h2.4c1.7,0,2.6,0.7,2.6,2.2c0,0.6-0.2,1.3-0.7,1.7c-0.6,0.5-1.3,0.6-2,0.6
	L589.3,383.1L589.3,383.1z M589.3,379.8v2.2h0.6c0.8,0,1.2-0.3,1.2-1s-0.4-1-1.2-1L589.3,379.8z"/>
<path class="st9" d="M597.9,385.4h-4.1v-6.8h3.9v1.3h-2.4v1.5h2.2v1.3h-2.2v1.5h2.6V385.4z"/>
<path class="st9" d="M605.1,385.4h-1.8l-1-1.8c-0.1-0.2-0.2-0.2-0.2-0.3l-0.2-0.2c-0.1-0.1-0.2-0.2-0.2-0.2c-0.1,0-0.2-0.1-0.2-0.1
	h-0.4v2.6h-1.5v-6.8h2.4c1.7,0,2.5,0.6,2.5,1.8c0,0.2,0,0.4-0.1,0.6s-0.2,0.4-0.3,0.6c-0.2,0.2-0.3,0.3-0.5,0.4
	c-0.2,0.2-0.4,0.2-0.6,0.2l0,0c0.2,0,0.2,0.1,0.3,0.2l0.2,0.2c0.1,0.1,0.2,0.2,0.2,0.3c0.1,0.1,0.2,0.2,0.2,0.3L605.1,385.4z
	 M600.9,379.8v1.9h0.6c0.3,0,0.6-0.1,0.8-0.3c0.2-0.2,0.3-0.5,0.3-0.7c0-0.6-0.3-0.9-1-0.9H600.9z"/>
<path class="st9" d="M611.8,385.4H610l-1-1.8c-0.1-0.2-0.2-0.2-0.2-0.3l-0.2-0.2c-0.1-0.1-0.2-0.2-0.2-0.2c-0.1,0-0.2-0.1-0.2-0.1
	h-0.4v2.6h-1.5v-6.8h2.4c1.7,0,2.5,0.6,2.5,1.8c0,0.2,0,0.4-0.1,0.6s-0.2,0.4-0.3,0.6c-0.2,0.2-0.3,0.3-0.5,0.4
	c-0.2,0.2-0.4,0.2-0.6,0.2l0,0c0.2,0,0.2,0.1,0.3,0.2l0.2,0.2c0.1,0.1,0.2,0.2,0.2,0.3c0.1,0.1,0.2,0.2,0.2,0.3L611.8,385.4z
	 M607.7,379.8v1.9h0.6c0.3,0,0.6-0.1,0.8-0.3c0.2-0.2,0.3-0.5,0.3-0.7c0-0.6-0.3-0.9-1-0.9H607.7z"/>
<path class="st9" d="M617,385.4h-4.1v-6.8h3.9v1.3h-2.4v1.5h2.2v1.3h-2.2v1.5h2.6V385.4L617,385.4z"/>
<path class="st9" d="M624.6,385.4H623l-2.8-4.2c-0.2-0.2-0.2-0.3-0.3-0.6l0,0v4.9h-1.4v-6.8h1.7l2.7,4.2c0.2,0.2,0.2,0.3,0.3,0.6
	l0,0c0-0.3,0-0.6,0-1v-3.8h1.4L624.6,385.4z"/>
<path class="st3" d="M671.2,335.4c-3.1,5.7-10.3,7.8-16,4.6c-1.9-1-3.6-2.7-4.6-4.6l0,0c3.1-5.7,10.3-7.8,16-4.6
	C668.6,331.8,670.2,333.4,671.2,335.4z"/>
<circle class="st9" cx="660.9" cy="335.4" r="4.4"/>
<circle class="st3" cx="660.9" cy="335.4" r="2.6"/>
<rect x="512.6" y="331.3" class="st10" width="14.9" height="13.4"/>
<path class="st10" d="M526.2,328.3v3.1h-1.8v-3.1c0-2.4-1.9-4.3-4.3-4.3c-2.4,0-4.3,1.9-4.3,4.3l0,0l0,0v3.1H514v-3.1
	c0-3.4,2.7-6.1,6.1-6.1C523.4,322.2,526.2,324.9,526.2,328.3z"/>
<rect x="518.2" y="336" transform="matrix(0.7071 -0.7071 0.7071 0.7071 -86.5927 466.7093)" class="st9" width="3.8" height="3.8"/>
<rect x="504.5" y="350.9" class="st11" width="174.1" height="0.7"/>
<path class="st10" d="M537.4,339.5v2.4h-0.7v-6.3h1.8c0.6,0,1.1,0.2,1.6,0.5c0.4,0.3,0.6,0.9,0.6,1.4c0,0.6-0.2,1-0.6,1.4
	c-0.5,0.4-1,0.6-1.7,0.6H537.4z M537.4,336.2v2.6h0.8c0.4,0,0.8-0.1,1.2-0.3c0.2-0.2,0.4-0.6,0.4-1c0-0.8-0.5-1.3-1.4-1.3
	L537.4,336.2L537.4,336.2z"/>
<path class="st10" d="M545,341.8h-0.7v-0.7l0,0c-0.2,0.5-0.8,0.8-1.4,0.8c-0.4,0-0.7-0.1-1-0.3c-0.2-0.2-0.4-0.6-0.4-1
	c0-0.8,0.5-1.4,1.5-1.4l1.4-0.2c0-0.8-0.3-1.1-1-1.1c-0.6,0-1,0.2-1.4,0.6v-0.7c0.5-0.3,1-0.4,1.5-0.4c0.8-0.1,1.5,0.5,1.6,1.3
	c0,0.2,0,0.2,0,0.4L545,341.8z M544.3,339.6l-1.1,0.2c-0.2,0-0.5,0.1-0.7,0.2c-0.2,0.2-0.3,0.4-0.2,0.6c0,0.2,0.1,0.4,0.2,0.6
	c0.2,0.2,0.4,0.2,0.6,0.2c0.3,0,0.6-0.2,0.9-0.4c0.2-0.2,0.4-0.6,0.3-1V339.6z"/>
<path class="st10" d="M546.3,341.7v-0.8c0.4,0.3,0.8,0.4,1.3,0.4c0.6,0,1-0.2,1-0.6c0-0.1,0-0.2-0.1-0.3l-0.2-0.2
	c-0.1-0.1-0.2-0.2-0.3-0.2c-0.2-0.1-0.2-0.1-0.4-0.2s-0.4-0.2-0.6-0.2c-0.2-0.1-0.2-0.2-0.4-0.2c-0.2-0.1-0.2-0.2-0.2-0.3
	c-0.1-0.2-0.1-0.3-0.1-0.5s0.1-0.4,0.2-0.6s0.2-0.3,0.4-0.4s0.4-0.2,0.6-0.2c0.2-0.1,0.4-0.1,0.6-0.1c0.4,0,0.7,0.1,1,0.2v0.7
	c-0.3-0.2-0.7-0.3-1.1-0.3c-0.2,0-0.2,0-0.4,0.1c-0.1,0-0.2,0.1-0.2,0.2l-0.2,0.2c-0.1,0.1-0.1,0.2-0.1,0.2c0,0.1,0,0.2,0.1,0.3
	c0.1,0.1,0.1,0.2,0.2,0.2c0.1,0.1,0.2,0.2,0.3,0.2c0.1,0.1,0.2,0.1,0.4,0.2s0.4,0.2,0.6,0.2c0.2,0.1,0.2,0.2,0.4,0.2
	c0.1,0.1,0.2,0.2,0.2,0.3c0.2,0.3,0.1,0.7-0.1,1c-0.1,0.2-0.2,0.3-0.4,0.4s-0.4,0.2-0.6,0.2c-0.2,0.1-0.4,0.1-0.6,0.1
	C547.1,342,546.7,341.9,546.3,341.7z"/>
<path class="st10" d="M550.4,341.7v-0.8c0.4,0.3,0.8,0.4,1.3,0.4c0.6,0,1-0.2,1-0.6c0-0.1,0-0.2-0.1-0.3l-0.2-0.2
	c-0.1-0.1-0.2-0.2-0.3-0.2c-0.2-0.1-0.2-0.1-0.4-0.2s-0.4-0.2-0.6-0.2c-0.2-0.1-0.2-0.2-0.4-0.2c-0.2-0.1-0.2-0.2-0.2-0.3
	c-0.1-0.2-0.1-0.3-0.1-0.5s0.1-0.4,0.2-0.6s0.2-0.3,0.4-0.4s0.4-0.2,0.6-0.2c0.2-0.1,0.4-0.1,0.6-0.1c0.4,0,0.7,0.1,1,0.2v0.7
	c-0.3-0.2-0.7-0.3-1.1-0.3c-0.2,0-0.2,0-0.4,0.1c-0.1,0-0.2,0.1-0.2,0.2l-0.2,0.2c-0.1,0.1-0.1,0.2-0.1,0.2c0,0.1,0,0.2,0.1,0.3
	c0.1,0.1,0.1,0.2,0.2,0.2c0.1,0.1,0.2,0.2,0.3,0.2c0.1,0.1,0.2,0.1,0.4,0.2s0.4,0.2,0.6,0.2c0.2,0.1,0.2,0.2,0.4,0.2
	c0.1,0.1,0.2,0.2,0.2,0.3c0.1,0.2,0.1,0.3,0.1,0.5s-0.1,0.4-0.2,0.6c-0.1,0.2-0.2,0.3-0.4,0.4s-0.4,0.2-0.6,0.2
	c-0.2,0.1-0.4,0.1-0.6,0.1C551.2,341.9,550.8,341.8,550.4,341.7z"/>
<path class="st10" d="M560.6,337.4l-1.4,4.5h-0.7l-1-3.2c0-0.2-0.1-0.2-0.1-0.4l0,0c0,0.2-0.1,0.2-0.1,0.4l-1,3.2h-0.8l-1.4-4.5h0.7
	l1,3.4c0,0.2,0.1,0.2,0.1,0.4l0,0c0-0.2,0-0.2,0.1-0.4l1-3.4h0.6l1,3.4c0,0.2,0.1,0.2,0.1,0.4l0,0c0-0.2,0-0.2,0.1-0.4l0.9-3.4
	H560.6z"/>
<path class="st10" d="M563.5,342c-0.6,0-1.2-0.2-1.6-0.6c-0.4-0.5-0.6-1-0.6-1.7c0-0.6,0.2-1.3,0.6-1.8c0.5-0.4,1-0.6,1.7-0.6
	s1.2,0.2,1.6,0.6c0.4,0.5,0.6,1,0.6,1.7c0.1,0.6-0.2,1.3-0.6,1.7C564.8,341.8,564.1,342,563.5,342z M563.6,337.8
	c-0.4,0-0.8,0.2-1.1,0.5c-0.6,0.8-0.6,1.8,0,2.6c0.2,0.3,0.7,0.5,1.1,0.5c0.4,0,0.8-0.2,1-0.5c0.2-0.4,0.4-0.8,0.4-1.3
	c0.1-0.5-0.1-1-0.4-1.3C564.4,338,564,337.8,563.6,337.8z"/>
<path class="st10" d="M569.5,338.1c-0.2-0.1-0.4-0.2-0.6-0.2c-0.3,0-0.6,0.2-0.8,0.4c-0.2,0.3-0.3,0.8-0.3,1.2v2.3h-0.7v-4.5h0.7v1
	l0,0c0.1-0.3,0.2-0.6,0.5-0.7c0.2-0.2,0.5-0.2,0.7-0.2s0.3,0,0.4,0.1L569.5,338.1L569.5,338.1z"/>
<path class="st10" d="M574.4,341.8h-0.7V341l0,0c-0.5,0.9-1.6,1.1-2.5,0.6l0,0c-0.2-0.1-0.3-0.2-0.4-0.3c-0.4-0.5-0.6-1.1-0.5-1.7
	c0-0.6,0.2-1.3,0.6-1.8c0.3-0.5,1-0.7,1.5-0.6c0.6,0,1,0.2,1.4,0.7l0,0v-2.8h0.7L574.4,341.8z M573.7,339.8v-0.6
	c0-0.3-0.2-0.6-0.3-0.9c-0.5-0.5-1.3-0.6-1.8-0.1c-0.1,0.1-0.1,0.1-0.2,0.2c-0.2,0.4-0.4,0.9-0.4,1.4c0,0.4,0.1,0.9,0.4,1.2
	c0.2,0.3,0.6,0.5,1,0.5s0.7-0.2,1-0.4C573.6,340.6,573.7,340.2,573.7,339.8z"/>
<path class="st12" d="M533.4,413v-6.3h1.8c2.2,0,3.4,1,3.4,3c0,0.9-0.3,1.7-1,2.3c-0.6,0.6-1.6,1-2.5,0.9L533.4,413z M534.2,407.4v5
	h1c0.7,0.1,1.4-0.2,1.9-0.6c0.5-0.5,0.7-1.1,0.7-1.8c0-1.6-0.9-2.4-2.6-2.4L534.2,407.4z"/>
<path class="st12" d="M543.1,413h-0.7v-0.7l0,0c-0.2,0.5-0.8,0.8-1.4,0.8c-0.4,0-0.7-0.1-1-0.3c-0.2-0.2-0.4-0.6-0.4-1
	c0-0.8,0.5-1.4,1.5-1.4l1.4-0.2c0-0.8-0.3-1.1-1-1.1c-0.6,0-1,0.2-1.4,0.6V409c0.5-0.3,1-0.4,1.5-0.4c0.8-0.1,1.5,0.5,1.6,1.3
	c0,0.2,0,0.2,0,0.4L543.1,413z M542.4,410.8l-1.1,0.2c-0.2,0-0.5,0.1-0.7,0.2c-0.2,0.2-0.3,0.4-0.2,0.6c0,0.2,0.1,0.4,0.2,0.6
	c0.2,0.2,0.4,0.2,0.6,0.2c0.3,0,0.6-0.2,0.9-0.4c0.2-0.2,0.4-0.6,0.3-1V410.8z"/>
<path class="st12" d="M546.8,412.9c-0.2,0.1-0.4,0.2-0.6,0.2c-0.8,0-1.2-0.4-1.2-1.3v-2.7h-0.8v-0.6h0.8v-1.1l0.7-0.2v1.4h1.1v0.6
	h-1.1v2.6c0,0.2,0,0.5,0.2,0.6c0.2,0.2,0.3,0.2,0.5,0.2s0.3-0.1,0.5-0.2L546.8,412.9z"/>
<path class="st12" d="M551.6,410.9h-3.2c0,0.4,0.2,0.8,0.4,1.1s0.6,0.5,1,0.4c0.5,0,1-0.2,1.4-0.5v0.6c-0.5,0.3-1,0.5-1.6,0.4
	c-0.6,0-1.1-0.2-1.5-0.6c-0.4-0.5-0.6-1-0.6-1.7s0.2-1.2,0.6-1.7c0.4-0.4,0.9-0.6,1.4-0.6s1,0.2,1.4,0.6c0.3,0.5,0.5,1,0.5,1.6
	L551.6,410.9z M550.9,410.3c0-0.3-0.1-0.7-0.3-1c-0.2-0.2-0.5-0.4-0.8-0.3c-0.3,0-0.6,0.2-0.9,0.4c-0.2,0.2-0.4,0.6-0.4,1
	L550.9,410.3L550.9,410.3z"/>
<path class="st12" d="M553.4,407.4c-0.2,0-0.2-0.1-0.3-0.2s-0.2-0.2-0.2-0.3c0-0.2,0.2-0.5,0.5-0.5l0,0l0,0c0.2,0,0.2,0.1,0.3,0.2
	c0.2,0.2,0.2,0.5,0,0.6C553.6,407.3,553.5,407.4,553.4,407.4z M553.7,413H553v-4.5h0.7V413z"/>
<path class="st12" d="M559,413h-0.7v-6.6h0.7V413z"/>
<path class="st12" d="M562.6,413.1c-0.6,0-1.2-0.2-1.6-0.6c-0.4-0.5-0.6-1-0.6-1.7c0-0.6,0.2-1.3,0.6-1.8c0.5-0.4,1-0.6,1.7-0.6
	c0.6,0,1.2,0.2,1.6,0.6c0.4,0.5,0.6,1,0.6,1.7c0.1,0.6-0.2,1.3-0.6,1.7C563.9,412.9,563.2,413.2,562.6,413.1z M562.6,409
	c-0.4,0-0.8,0.2-1.1,0.5c-0.6,0.8-0.6,1.8,0,2.6c0.2,0.3,0.7,0.5,1.1,0.5c0.4,0,0.8-0.2,1-0.5c0.2-0.4,0.4-0.8,0.4-1.3
	c0.1-0.5-0.1-1-0.4-1.3C563.4,409.2,563,408.9,562.6,409z M561.8,407.7c-0.2,0-0.2-0.1-0.3-0.2c-0.2-0.2-0.2-0.5,0-0.6l0,0
	c0.1-0.1,0.2-0.2,0.3-0.2c0.2,0,0.2,0.1,0.3,0.2s0.2,0.2,0.2,0.3s-0.1,0.2-0.2,0.3C562,407.7,561.9,407.7,561.8,407.7z M563.5,407.7
	c-0.2,0-0.2-0.1-0.3-0.2c-0.2-0.2-0.2-0.5,0-0.6c0.1-0.1,0.2-0.2,0.3-0.2s0.2,0.1,0.3,0.2s0.2,0.2,0.2,0.3s-0.1,0.2-0.2,0.3
	C563.7,407.6,563.6,407.7,563.5,407.7z"/>
<path class="st12" d="M566.1,412.9v-0.8c0.4,0.3,0.8,0.4,1.3,0.4c0.6,0,1-0.2,1-0.6c0-0.1,0-0.2-0.1-0.3l-0.2-0.2
	c-0.1-0.1-0.2-0.2-0.3-0.2c-0.2-0.1-0.2-0.1-0.4-0.2s-0.4-0.2-0.6-0.2c-0.2-0.1-0.2-0.2-0.4-0.2c-0.2-0.1-0.2-0.2-0.2-0.3
	c-0.1-0.2-0.1-0.3-0.1-0.5s0.1-0.4,0.2-0.6c0.1-0.2,0.2-0.3,0.4-0.4s0.4-0.2,0.6-0.2c0.2-0.1,0.4-0.1,0.6-0.1c0.4,0,0.7,0.1,1,0.2
	v0.7c-0.3-0.2-0.7-0.3-1.1-0.3c-0.2,0-0.2,0-0.4,0.1c-0.1,0-0.2,0.1-0.2,0.2c-0.1,0.1-0.2,0.1-0.2,0.2c-0.1,0.1-0.1,0.2-0.1,0.2
	c0,0.1,0,0.2,0.1,0.3s0.1,0.2,0.2,0.2c0.1,0.1,0.2,0.2,0.3,0.2c0.1,0.1,0.2,0.1,0.4,0.2s0.4,0.2,0.6,0.2s0.2,0.2,0.4,0.2
	c0.1,0.1,0.2,0.2,0.2,0.3c0.1,0.2,0.1,0.3,0.1,0.5s-0.1,0.4-0.2,0.6c-0.1,0.2-0.2,0.3-0.4,0.4s-0.4,0.2-0.6,0.2
	c-0.2,0.1-0.4,0.1-0.6,0.1C566.9,413.1,566.5,413,566.1,412.9z"/>
<path class="st12" d="M573.6,412.8c-0.4,0.2-0.8,0.3-1.2,0.3c-0.6,0-1.1-0.2-1.5-0.6s-0.6-1-0.6-1.6s0.2-1.3,0.6-1.8
	c0.4-0.5,1-0.7,1.7-0.6c0.4,0,0.7,0.1,1,0.2v0.7c-0.3-0.2-0.6-0.3-1-0.3s-0.8,0.2-1.1,0.5s-0.5,0.8-0.5,1.3s0.2,0.9,0.4,1.3
	c0.3,0.3,0.7,0.5,1.1,0.5s0.8-0.2,1.1-0.4V412.8L573.6,412.8z"/>
<path class="st12" d="M578.5,413h-0.7v-2.6c0-1-0.3-1.4-1-1.4c-0.3,0-0.6,0.2-0.9,0.4c-0.2,0.3-0.4,0.6-0.3,1v2.6h-0.7v-6.6h0.7v2.9
	l0,0c0.3-0.6,0.8-0.9,1.4-0.9c1,0,1.5,0.6,1.5,1.8V413L578.5,413z"/>
<path class="st12" d="M583.8,410.9h-3.2c0,0.4,0.2,0.8,0.4,1.1s0.6,0.5,1,0.4c0.5,0,1-0.2,1.4-0.5v0.6c-0.5,0.3-1,0.5-1.6,0.4
	c-0.6,0-1.1-0.2-1.5-0.6c-0.4-0.5-0.6-1-0.6-1.7s0.2-1.2,0.6-1.7c0.4-0.4,0.9-0.6,1.4-0.6s1,0.2,1.4,0.6c0.3,0.5,0.5,1,0.5,1.6
	L583.8,410.9z M583.1,410.3c0-0.3-0.1-0.7-0.3-1c-0.2-0.2-0.5-0.4-0.8-0.3c-0.3,0-0.6,0.2-0.9,0.4c-0.2,0.2-0.4,0.6-0.4,1
	L583.1,410.3L583.1,410.3z"/>
<path class="st12" d="M588.9,413h-0.7v-2.6c0-1-0.3-1.4-1-1.4c-0.3,0-0.6,0.2-0.9,0.4c-0.2,0.3-0.4,0.6-0.3,1v2.6h-0.7v-4.5h0.7v0.7
	l0,0c0.3-0.6,0.8-0.9,1.4-0.9c0.4,0,0.8,0.2,1.1,0.5c0.3,0.4,0.4,0.9,0.4,1.4V413z"/>
<path class="st12" d="M597,413h-0.7v-0.7l0,0c-0.2,0.6-0.8,0.9-1.4,0.8c-1,0-1.6-0.6-1.6-1.9v-2.7h0.7v2.6c0,1,0.4,1.4,1.1,1.4
	c0.3,0,0.6-0.2,0.9-0.4c0.2-0.3,0.3-0.6,0.3-1v-2.6h0.7V413L597,413z"/>
<path class="st12" d="M602.4,413h-0.7v-2.6c0-1-0.3-1.4-1-1.4c-0.3,0-0.6,0.2-0.9,0.4c-0.2,0.3-0.4,0.6-0.3,1v2.6h-0.7v-4.5h0.7v0.7
	l0,0c0.3-0.6,0.8-0.9,1.4-0.9c0.4,0,0.8,0.2,1.1,0.5c0.3,0.4,0.4,0.9,0.4,1.4V413z"/>
<path class="st12" d="M607.9,413h-0.7v-0.8l0,0c-0.3,0.6-0.9,0.9-1.5,0.9s-1-0.2-1.4-0.6c-0.3-0.5-0.5-1-0.5-1.6s0.2-1.3,0.6-1.8
	c0.3-0.5,1-0.7,1.5-0.6c0.6,0,1,0.2,1.4,0.7l0,0v-2.8h0.7L607.9,413z M607.2,411v-0.6c0-0.3-0.2-0.6-0.3-0.9
	c-0.5-0.5-1.3-0.6-1.8-0.1c-0.1,0.1-0.1,0.1-0.2,0.2c-0.2,0.4-0.4,0.9-0.4,1.4c0,0.4,0.1,0.9,0.4,1.2c0.2,0.3,0.6,0.5,1,0.5
	s0.7-0.2,1-0.4C607.1,411.8,607.2,411.4,607.2,411L607.2,411z"/>
<path class="st12" d="M615.6,408.7l-2.6,3.7h2.6v0.6h-3.7v-0.2l2.6-3.7h-2.4v-0.6h3.4v0.2H615.6z"/>
<path class="st12" d="M620.5,413h-0.7v-0.7l0,0c-0.2,0.5-0.8,0.8-1.4,0.8c-1,0-1.6-0.6-1.6-1.9v-2.7h0.7v2.6c0,1,0.4,1.4,1.1,1.4
	c0.3,0,0.6-0.2,0.9-0.4c0.2-0.3,0.3-0.6,0.3-1v-2.6h0.7V413L620.5,413z"/>
<path class="st12" d="M624.5,409.3c-0.2-0.1-0.4-0.2-0.6-0.2c-0.3,0-0.6,0.2-0.8,0.4c-0.2,0.3-0.3,0.8-0.3,1.2v2.3h-0.7v-4.5h0.7v1
	l0,0c0.1-0.3,0.2-0.6,0.5-0.7c0.2-0.2,0.5-0.2,0.7-0.2s0.3,0,0.4,0.1L624.5,409.3z"/>
<path class="st12" d="M629.3,413h-0.7v-0.7l0,0c-0.2,0.6-0.8,0.9-1.4,0.8c-1,0-1.6-0.6-1.6-1.9v-2.7h0.7v2.6c0,1,0.4,1.4,1.1,1.4
	c0.3,0,0.6-0.2,0.9-0.4c0.2-0.3,0.3-0.6,0.3-1v-2.6h0.7V413L629.3,413z M626.6,407.7c-0.2,0-0.2-0.1-0.3-0.2c-0.2-0.2-0.2-0.5,0-0.6
	l0,0c0.1-0.1,0.2-0.2,0.3-0.2s0.2,0.1,0.3,0.2s0.2,0.2,0.2,0.3s-0.1,0.2-0.2,0.3C626.8,407.7,626.7,407.7,626.6,407.7L626.6,407.7z
	 M628.3,407.7c-0.2,0-0.2-0.1-0.3-0.2c-0.2-0.2-0.2-0.5,0-0.6c0.1-0.1,0.2-0.2,0.3-0.2c0.2,0,0.2,0.1,0.3,0.2s0.2,0.2,0.2,0.3
	s-0.1,0.2-0.2,0.3C628.5,407.7,628.4,407.7,628.3,407.7L628.3,407.7z"/>
<path class="st12" d="M634,412.8c-0.4,0.2-0.8,0.3-1.2,0.3c-0.6,0-1.1-0.2-1.5-0.6s-0.6-1-0.6-1.6s0.2-1.3,0.6-1.8
	c0.4-0.5,1-0.7,1.7-0.6c0.4,0,0.7,0.1,1,0.2v0.7c-0.3-0.2-0.6-0.3-1-0.3s-0.8,0.2-1.1,0.5s-0.5,0.8-0.5,1.3s0.2,0.9,0.4,1.3
	c0.3,0.3,0.7,0.5,1.1,0.5c0.4,0,0.8-0.2,1.1-0.4V412.8L634,412.8z"/>
<path class="st12" d="M639.1,413h-1l-2-2.2l0,0v2.2h-0.7v-6.6h0.7v4.2l0,0l1.9-2.1h1l-2.1,2.2L639.1,413z"/>
<path class="st12" d="M640,412.9v-0.8c0.4,0.3,0.8,0.4,1.3,0.4c0.6,0,1-0.2,1-0.6c0-0.1,0-0.2-0.1-0.3l-0.2-0.2
	c-0.1-0.1-0.2-0.2-0.3-0.2c-0.2-0.1-0.2-0.1-0.4-0.2s-0.4-0.2-0.6-0.2c-0.2-0.1-0.2-0.2-0.4-0.2s-0.2-0.2-0.2-0.3
	c-0.1-0.2-0.1-0.3-0.1-0.5s0.1-0.4,0.2-0.6c0.1-0.2,0.2-0.3,0.4-0.4s0.4-0.2,0.6-0.2c0.2-0.1,0.4-0.1,0.6-0.1c0.4,0,0.7,0.1,1,0.2
	v0.7c-0.3-0.2-0.7-0.3-1.1-0.3c-0.2,0-0.2,0-0.4,0.1c-0.1,0-0.2,0.1-0.2,0.2c-0.1,0.1-0.2,0.1-0.2,0.2c-0.1,0.1-0.1,0.2-0.1,0.2
	c0,0.1,0,0.2,0.1,0.3c0.1,0.1,0.1,0.2,0.2,0.2c0.1,0.1,0.2,0.2,0.3,0.2c0.1,0.1,0.2,0.1,0.4,0.2s0.4,0.2,0.6,0.2
	c0.2,0.1,0.2,0.2,0.4,0.2c0.1,0.1,0.2,0.2,0.2,0.3c0.1,0.2,0.1,0.3,0.1,0.5s-0.1,0.4-0.2,0.6c-0.1,0.2-0.2,0.3-0.4,0.4
	s-0.4,0.2-0.6,0.2c-0.2,0.1-0.4,0.1-0.6,0.1C640.8,413.1,640.4,413,640,412.9z"/>
<path class="st12" d="M648,410.9h-3.2c0,0.4,0.2,0.8,0.4,1.1s0.6,0.5,1,0.4c0.5,0,1-0.2,1.4-0.5v0.6c-0.5,0.3-1,0.5-1.6,0.4
	c-0.6,0-1.1-0.2-1.5-0.6c-0.4-0.5-0.6-1-0.6-1.7s0.2-1.2,0.6-1.7c0.4-0.4,0.9-0.6,1.4-0.6s1,0.2,1.4,0.6c0.3,0.5,0.5,1,0.5,1.6
	L648,410.9z M647.3,410.3c0-0.3-0.1-0.7-0.3-1c-0.2-0.2-0.5-0.4-0.8-0.3c-0.3,0-0.6,0.2-0.9,0.4c-0.2,0.2-0.4,0.6-0.4,1L647.3,410.3
	L647.3,410.3z"/>
<path class="st12" d="M651.5,412.9c-0.2,0.1-0.4,0.2-0.6,0.2c-0.8,0-1.2-0.4-1.2-1.3v-2.7h-0.8v-0.6h0.8v-1.1l0.7-0.2v1.4h1.1v0.6
	h-1.1v2.6c0,0.2,0,0.5,0.2,0.6s0.3,0.2,0.5,0.2s0.3-0.1,0.5-0.2v0.5H651.5z"/>
<path class="st12" d="M656.1,408.7l-2.6,3.7h2.6v0.6h-3.7v-0.2l2.6-3.7h-2.4v-0.6h3.4v0.2H656.1z"/>
<path class="st12" d="M660.8,410.9h-3.2c0,0.4,0.2,0.8,0.4,1.1c0.2,0.3,0.6,0.5,1,0.4c0.5,0,1-0.2,1.4-0.5v0.6
	c-0.5,0.3-1,0.5-1.6,0.4c-0.6,0-1.1-0.2-1.5-0.6c-0.4-0.5-0.6-1-0.6-1.7s0.2-1.2,0.6-1.7c0.4-0.4,0.9-0.6,1.4-0.6s1,0.2,1.4,0.6
	c0.3,0.5,0.5,1,0.5,1.6L660.8,410.9z M660.1,410.3c0-0.3-0.1-0.7-0.3-1c-0.2-0.2-0.5-0.4-0.8-0.3c-0.3,0-0.6,0.2-0.9,0.4
	c-0.2,0.2-0.4,0.6-0.4,1L660.1,410.3L660.1,410.3z"/>
<path class="st12" d="M666,413h-0.7v-2.6c0-1-0.3-1.4-1-1.4c-0.3,0-0.6,0.2-0.9,0.4c-0.2,0.3-0.4,0.6-0.3,1v2.6h-0.7v-4.5h0.7v0.7
	l0,0c0.3-0.6,0.8-0.9,1.4-0.9c0.4,0,0.8,0.2,1.1,0.5c0.3,0.4,0.4,0.9,0.4,1.4V413z"/>
<path class="st0" d="M194.2,8.9h207.4c21.2,0,38.4,17.2,38.4,38.4l0,0V557c0,21.2-17.2,38.4-38.4,38.4H194.2
	c-21.2,0-38.4-17.2-38.4-38.4V47.4C155.8,26.2,173,8.9,194.2,8.9L194.2,8.9z"/>
<path class="st1" d="M194.2,8.9h207.4c21.2,0,38.4,17.2,38.4,38.4l0,0V557c0,21.2-17.2,38.4-38.4,38.4H194.2
	c-21.2,0-38.4-17.2-38.4-38.4V47.4C155.8,26.2,173,8.9,194.2,8.9L194.2,8.9z"/>
<path class="st2" d="M194.5,16H400c18.3,0,33.1,14.8,33.1,33.1v503.4c0,18.3-14.8,33.1-33.1,33.1H194.5c-18.3,0-33.1-14.8-33.1-33.1
	V49.1C161.4,30.8,176.2,16,194.5,16z"/>
<rect x="196.1" y="366.5" class="st13" width="184.5" height="29.4"/>
<path class="st9" d="M262.8,385.4h-4.1v-6.8h3.9v1.3h-2.4v1.5h2.2v1.3h-2.2v1.5h2.6V385.4z"/>
<path class="st9" d="M270.4,385.4h-1.5l-2.8-4.2c-0.2-0.2-0.2-0.3-0.3-0.6l0,0v4.9h-1.4v-6.8h1.7l2.7,4.2c0.2,0.2,0.2,0.3,0.3,0.6
	l0,0c0-0.3,0-0.6,0-1v-3.8h1.4L270.4,385.4L270.4,385.4z"/>
<path class="st9" d="M277,379.9h-1.9v5.5h-1.5v-5.5h-1.9v-1.3h5.4L277,379.9z"/>
<path class="st9" d="M278,385.2v-1.5c0.5,0.5,1.1,0.7,1.8,0.7c0.2,0,0.3,0,0.5-0.1c0.2,0,0.2-0.1,0.4-0.2l0.2-0.2
	c0.1-0.1,0.1-0.2,0.1-0.2c0-0.2,0-0.2-0.1-0.3c-0.1-0.1-0.2-0.2-0.3-0.3l-0.5-0.2c-0.2-0.1-0.4-0.2-0.6-0.2
	c-0.5-0.2-0.9-0.5-1.2-0.8c-0.2-0.3-0.4-0.7-0.4-1.1c0-0.3,0.1-0.6,0.2-0.9c0.2-0.2,0.3-0.5,0.6-0.6c0.2-0.2,0.6-0.3,0.9-0.4
	s0.7-0.1,1-0.1s0.6,0,1,0.1c0.2,0,0.5,0.1,0.7,0.2v1.4c-0.2-0.1-0.2-0.2-0.4-0.2c-0.2-0.1-0.2-0.1-0.4-0.2c-0.2,0-0.2-0.1-0.4-0.1
	h-0.4c-0.2,0-0.3,0-0.5,0.1c-0.2,0-0.2,0.1-0.4,0.2l-0.2,0.2c-0.1,0.1-0.1,0.2-0.1,0.3c0,0.1,0,0.2,0.1,0.3l0.2,0.2
	c0.2,0.1,0.2,0.2,0.4,0.2s0.4,0.2,0.6,0.2c0.2,0.1,0.5,0.2,0.7,0.4c0.2,0.1,0.4,0.2,0.6,0.4c0.2,0.2,0.2,0.3,0.3,0.6
	c0.1,0.2,0.2,0.5,0.2,0.7c0,0.3-0.1,0.6-0.2,1c-0.2,0.2-0.3,0.5-0.6,0.6c-0.2,0.2-0.6,0.3-0.9,0.3c-0.7,0.1-1.4,0.1-2.1,0
	C278.5,385.4,278.2,385.3,278,385.2z"/>
<path class="st9" d="M285.6,383.1v2.3h-1.5v-6.8h2.4c1.7,0,2.6,0.7,2.6,2.2c0,0.6-0.2,1.3-0.7,1.7c-0.6,0.5-1.3,0.6-2,0.6
	L285.6,383.1L285.6,383.1z M285.6,379.8v2.2h0.6c0.8,0,1.2-0.3,1.2-1s-0.4-1-1.2-1L285.6,379.8z"/>
<path class="st9" d="M294.3,385.4h-4.1v-6.8h3.9v1.3h-2.4v1.5h2.2v1.3h-2.2v1.5h2.6V385.4z"/>
<path class="st9" d="M301.5,385.4h-1.8l-1-1.8c-0.1-0.2-0.2-0.2-0.2-0.3l-0.2-0.2c-0.1-0.1-0.2-0.2-0.2-0.2l-0.2-0.1h-0.4v2.6H296
	v-6.8h2.4c1.7,0,2.5,0.6,2.5,1.8c0,0.2,0,0.4-0.1,0.6s-0.2,0.4-0.3,0.6c-0.2,0.2-0.3,0.3-0.5,0.4c-0.2,0.2-0.4,0.2-0.6,0.2l0,0
	c0.2,0,0.2,0.1,0.3,0.2l0.2,0.2c0.1,0.1,0.2,0.2,0.2,0.3c0.1,0.1,0.2,0.2,0.2,0.3L301.5,385.4z M297.3,379.8v1.9h0.6
	c0.3,0,0.6-0.1,0.8-0.3c0.2-0.2,0.3-0.5,0.3-0.7c0-0.6-0.3-0.9-1-0.9H297.3z"/>
<path class="st9" d="M308.2,385.4h-1.8l-1-1.8c-0.1-0.2-0.2-0.2-0.2-0.3l-0.2-0.2c-0.1-0.1-0.2-0.2-0.2-0.2c-0.1,0-0.2-0.1-0.2-0.1
	H304v2.6h-1.5v-6.8h2.4c1.7,0,2.5,0.6,2.5,1.8c0,0.2,0,0.4-0.1,0.6s-0.2,0.4-0.3,0.6c-0.2,0.2-0.3,0.3-0.5,0.4
	c-0.2,0.2-0.4,0.2-0.6,0.2l0,0c0.2,0,0.2,0.1,0.3,0.2l0.2,0.2c0.1,0.1,0.2,0.2,0.2,0.3c0.1,0.1,0.2,0.2,0.2,0.3L308.2,385.4z
	 M304,379.8v1.9h0.6c0.3,0,0.6-0.1,0.8-0.3c0.2-0.2,0.3-0.5,0.3-0.7c0-0.6-0.3-0.9-1-0.9H304z"/>
<path class="st9" d="M313.3,385.4h-4.1v-6.8h3.9v1.3h-2.4v1.5h2.2v1.3h-2.2v1.5h2.6V385.4z"/>
<path class="st9" d="M320.9,385.4h-1.5l-2.8-4.2c-0.2-0.2-0.2-0.3-0.3-0.6l0,0v4.9h-1.4v-6.8h1.7l2.7,4.2c0.2,0.2,0.2,0.3,0.3,0.6
	l0,0c0-0.3,0-0.6,0-1v-3.8h1.4L320.9,385.4z"/>
<path class="st3" d="M367.6,335.4c-3.1,5.7-10.3,7.8-16,4.6c-1.9-1-3.6-2.7-4.6-4.6l0,0c3.1-5.7,10.3-7.8,16-4.6
	C365,331.8,366.6,333.4,367.6,335.4z"/>
<circle class="st9" cx="357.3" cy="335.4" r="4.4"/>
<circle class="st3" cx="357.3" cy="335.4" r="2.6"/>
<rect x="209.1" y="331.3" class="st10" width="14.9" height="13.4"/>
<path class="st10" d="M222.6,328.3v3.1h-1.8v-3.1c0-2.4-1.9-4.3-4.3-4.3c-2.4,0-4.3,1.9-4.3,4.3l0,0l0,0v3.1h-1.8v-3.1
	c0-3.4,2.7-6.1,6.1-6.1S222.6,324.9,222.6,328.3z"/>
<rect x="214.6" y="336.1" transform="matrix(0.7071 -0.7071 0.7071 0.7071 -175.6077 252.077)" class="st9" width="3.8" height="3.8"/>
<rect x="201.3" y="351.3" class="st11" width="174.1" height="0.7"/>
<path class="st10" d="M235.8,339.5v2.4h-0.7v-6.3h1.8c0.6,0,1.1,0.2,1.6,0.5c0.4,0.3,0.6,0.9,0.6,1.4c0,0.6-0.2,1-0.6,1.4
	c-0.5,0.4-1,0.6-1.7,0.6H235.8z M235.8,336.2v2.6h0.8c0.4,0,0.8-0.1,1.2-0.3c0.2-0.2,0.4-0.6,0.4-1c0-0.8-0.5-1.3-1.4-1.3
	L235.8,336.2L235.8,336.2z"/>
<path class="st10" d="M243.3,341.8h-0.7v-0.7l0,0c-0.2,0.5-0.8,0.8-1.4,0.8c-0.4,0-0.7-0.1-1-0.3c-0.2-0.2-0.4-0.6-0.4-1
	c0-0.8,0.5-1.4,1.5-1.4l1.4-0.2c0-0.8-0.3-1.1-1-1.1c-0.6,0-1,0.2-1.4,0.6v-0.7c0.5-0.3,1-0.4,1.5-0.4c0.8-0.1,1.5,0.5,1.6,1.3
	c0,0.2,0,0.2,0,0.4L243.3,341.8z M242.6,339.6l-1.1,0.2c-0.2,0-0.5,0.1-0.7,0.2c-0.2,0.2-0.3,0.4-0.2,0.6c0,0.2,0.1,0.4,0.2,0.6
	c0.2,0.2,0.4,0.2,0.6,0.2c0.3,0,0.6-0.2,0.9-0.4s0.4-0.6,0.3-1V339.6z"/>
<path class="st10" d="M244.7,341.7v-0.8c0.4,0.3,0.8,0.4,1.3,0.4c0.6,0,1-0.2,1-0.6c0-0.1,0-0.2-0.1-0.3l-0.2-0.2
	c-0.1-0.1-0.2-0.2-0.3-0.2c-0.2-0.1-0.2-0.1-0.4-0.2s-0.4-0.2-0.6-0.2c-0.2-0.1-0.2-0.2-0.4-0.2s-0.2-0.2-0.2-0.3
	c-0.1-0.2-0.1-0.3-0.1-0.5s0.1-0.4,0.2-0.6s0.2-0.3,0.4-0.4s0.4-0.2,0.6-0.2c0.2-0.1,0.4-0.1,0.6-0.1c0.4,0,0.7,0.1,1,0.2v0.7
	c-0.3-0.2-0.7-0.3-1.1-0.3c-0.2,0-0.2,0-0.4,0.1c-0.1,0-0.2,0.1-0.2,0.2l-0.2,0.2c-0.1,0.1-0.1,0.2-0.1,0.2c0,0.1,0,0.2,0.1,0.3
	c0.1,0.1,0.1,0.2,0.2,0.2c0.1,0.1,0.2,0.2,0.3,0.2c0.1,0.1,0.2,0.1,0.4,0.2s0.4,0.2,0.6,0.2s0.2,0.2,0.4,0.2
	c0.1,0.1,0.2,0.2,0.2,0.3c0.2,0.3,0.1,0.7-0.1,1c-0.1,0.2-0.2,0.3-0.4,0.4s-0.4,0.2-0.6,0.2c-0.2,0.1-0.4,0.1-0.6,0.1
	C245.5,342,245,341.9,244.7,341.7z"/>
<path class="st10" d="M248.8,341.7v-0.8c0.4,0.3,0.8,0.4,1.3,0.4c0.6,0,1-0.2,1-0.6c0-0.1,0-0.2-0.1-0.3l-0.2-0.2
	c-0.1-0.1-0.2-0.2-0.3-0.2c-0.2-0.1-0.2-0.1-0.4-0.2s-0.4-0.2-0.6-0.2c-0.2-0.1-0.2-0.2-0.4-0.2s-0.2-0.2-0.2-0.3
	c-0.1-0.2-0.1-0.3-0.1-0.5s0.1-0.4,0.2-0.6s0.2-0.3,0.4-0.4s0.4-0.2,0.6-0.2c0.2-0.1,0.4-0.1,0.6-0.1c0.4,0,0.7,0.1,1,0.2v0.7
	c-0.3-0.2-0.7-0.3-1.1-0.3c-0.2,0-0.2,0-0.4,0.1c-0.1,0-0.2,0.1-0.2,0.2l-0.2,0.2c-0.1,0.1-0.1,0.2-0.1,0.2c0,0.1,0,0.2,0.1,0.3
	c0.1,0.1,0.1,0.2,0.2,0.2c0.1,0.1,0.2,0.2,0.3,0.2c0.1,0.1,0.2,0.1,0.4,0.2s0.4,0.2,0.6,0.2s0.2,0.2,0.4,0.2
	c0.1,0.1,0.2,0.2,0.2,0.3c0.1,0.2,0.1,0.3,0.1,0.5s-0.1,0.4-0.2,0.6c-0.1,0.2-0.2,0.3-0.4,0.4s-0.4,0.2-0.6,0.2
	c-0.2,0.1-0.4,0.1-0.6,0.1C249.6,342,249.1,341.9,248.8,341.7z"/>
<path class="st10" d="M258.9,337.4l-1.4,4.5h-0.7l-1-3.2c0-0.2-0.1-0.2-0.1-0.4l0,0c0,0.2-0.1,0.2-0.1,0.4l-1,3.2H254l-1.4-4.5h0.7
	l1,3.4c0,0.2,0.1,0.2,0.1,0.4l0,0c0-0.2,0-0.2,0.1-0.4l1-3.4h0.6l1,3.4c0,0.2,0.1,0.2,0.1,0.4l0,0c0-0.2,0-0.2,0.1-0.4l0.9-3.4
	H258.9z"/>
<path class="st10" d="M261.9,342c-0.6,0-1.2-0.2-1.6-0.6c-0.4-0.5-0.6-1-0.6-1.7c0-0.6,0.2-1.3,0.6-1.8c0.5-0.4,1-0.6,1.7-0.6
	c0.6,0,1.2,0.2,1.6,0.6c0.4,0.5,0.6,1,0.6,1.7c0.1,0.6-0.2,1.3-0.6,1.7C263.1,341.8,262.5,342,261.9,342z M261.9,337.8
	c-0.4,0-0.8,0.2-1.1,0.5c-0.6,0.8-0.6,1.8,0,2.6c0.2,0.3,0.7,0.5,1.1,0.5s0.8-0.2,1-0.5c0.2-0.4,0.4-0.8,0.4-1.3
	c0.1-0.5-0.1-1-0.4-1.3C262.7,338,262.3,337.8,261.9,337.8z"/>
<path class="st10" d="M267.9,338.1c-0.2-0.1-0.4-0.2-0.6-0.2c-0.3,0-0.6,0.2-0.8,0.4c-0.2,0.3-0.3,0.8-0.3,1.2v2.3h-0.7v-4.5h0.7v1
	l0,0c0.1-0.3,0.2-0.6,0.5-0.7c0.2-0.2,0.5-0.2,0.7-0.2s0.3,0,0.4,0.1L267.9,338.1z"/>
<path class="st10" d="M272.8,341.8H272V341l0,0c-0.5,0.9-1.6,1.1-2.5,0.6l0,0c-0.2-0.1-0.3-0.2-0.4-0.3c-0.4-0.5-0.6-1.1-0.5-1.7
	c0-0.6,0.2-1.3,0.6-1.8c0.3-0.5,1-0.7,1.5-0.6c0.6,0,1,0.2,1.4,0.7l0,0v-2.8h0.7L272.8,341.8z M272,339.8v-0.6
	c0-0.3-0.2-0.6-0.3-0.9c-0.5-0.5-1.3-0.6-1.8-0.1c-0.1,0.1-0.1,0.1-0.2,0.2c-0.2,0.4-0.4,0.9-0.4,1.4c0,0.4,0.1,0.9,0.4,1.2
	c0.2,0.3,0.6,0.5,1,0.5s0.7-0.2,1-0.4C272,340.7,272.1,340.2,272,339.8z"/>
<path class="st12" d="M227,413v-6.3h1.8c2.2,0,3.4,1,3.4,3c0,0.9-0.3,1.7-1,2.3c-0.6,0.6-1.6,1-2.5,0.9L227,413z M227.8,407.4v5h1
	c0.7,0.1,1.4-0.2,1.9-0.6c0.5-0.5,0.7-1.1,0.7-1.8c0-1.6-0.9-2.4-2.6-2.4L227.8,407.4z"/>
<path class="st12" d="M236.7,413H236v-0.7l0,0c-0.2,0.5-0.8,0.8-1.4,0.8c-0.4,0-0.7-0.1-1-0.3c-0.2-0.2-0.4-0.6-0.4-1
	c0-0.8,0.5-1.4,1.5-1.4l1.4-0.2c0-0.8-0.3-1.1-1-1.1c-0.6,0-1,0.2-1.4,0.6V409c0.5-0.3,1-0.4,1.5-0.4c0.8-0.1,1.5,0.5,1.6,1.3
	c0,0.2,0,0.2,0,0.4L236.7,413z M236,410.7l-1.1,0.2c-0.2,0-0.5,0.1-0.7,0.2c-0.2,0.2-0.3,0.4-0.2,0.6c0,0.2,0.1,0.4,0.2,0.6
	s0.4,0.2,0.6,0.2c0.3,0,0.6-0.2,0.9-0.4s0.4-0.6,0.3-1V410.7z"/>
<path class="st12" d="M240.4,412.9c-0.2,0.1-0.4,0.2-0.6,0.2c-0.8,0-1.2-0.4-1.2-1.3v-2.7h-0.8v-0.6h0.8v-1.1l0.7-0.2v1.4h1.1v0.6
	h-1.1v2.6c0,0.2,0,0.5,0.2,0.6c0.2,0.2,0.3,0.2,0.5,0.2s0.3-0.1,0.5-0.2L240.4,412.9L240.4,412.9z"/>
<path class="st12" d="M245.2,410.9H242c0,0.4,0.2,0.8,0.4,1.1s0.6,0.5,1,0.4c0.5,0,1-0.2,1.4-0.5v0.6c-0.5,0.3-1,0.5-1.6,0.4
	c-0.6,0-1.1-0.2-1.5-0.6c-0.4-0.5-0.6-1-0.6-1.7s0.2-1.2,0.6-1.7c0.4-0.4,0.9-0.6,1.4-0.6s1,0.2,1.4,0.6c0.3,0.5,0.5,1,0.5,1.6
	L245.2,410.9z M244.5,410.3c0-0.3-0.1-0.7-0.3-1c-0.2-0.2-0.5-0.4-0.8-0.3c-0.3,0-0.6,0.2-0.9,0.4c-0.2,0.2-0.4,0.6-0.4,1
	L244.5,410.3z"/>
<path class="st12" d="M247,407.4c-0.2,0-0.2-0.1-0.3-0.2s-0.2-0.2-0.2-0.3c0-0.2,0.2-0.5,0.5-0.5l0,0l0,0c0.2,0,0.2,0.1,0.3,0.2
	c0.2,0.2,0.2,0.5,0,0.6l0,0C247.2,407.3,247.1,407.4,247,407.4z M247.3,413h-0.7v-4.5h0.7V413z"/>
<path class="st12" d="M252.6,413h-0.7v-6.6h0.7V413z"/>
<path class="st12" d="M256.2,413.1c-0.6,0-1.2-0.2-1.6-0.6c-0.4-0.5-0.6-1-0.6-1.7c0-0.6,0.2-1.3,0.6-1.8c0.5-0.4,1-0.6,1.7-0.6
	c0.6,0,1.2,0.2,1.6,0.6c0.4,0.5,0.6,1,0.6,1.7c0.1,0.6-0.2,1.3-0.6,1.7C257.5,412.9,256.8,413.2,256.2,413.1z M256.3,409
	c-0.4,0-0.8,0.2-1.1,0.5c-0.6,0.8-0.6,1.8,0,2.6c0.2,0.3,0.7,0.5,1.1,0.5c0.4,0,0.8-0.2,1-0.5c0.2-0.4,0.4-0.8,0.4-1.3
	c0.1-0.5-0.1-1-0.4-1.3C257.1,409.2,256.7,409,256.3,409z M255.4,407.7c-0.2,0-0.2-0.1-0.3-0.2s-0.2-0.2-0.2-0.3
	c0-0.2,0.1-0.2,0.2-0.3c0.1-0.1,0.2-0.2,0.3-0.2c0.2,0,0.2,0.1,0.3,0.2s0.2,0.2,0.2,0.3s-0.1,0.2-0.2,0.3
	C255.6,407.6,255.6,407.7,255.4,407.7z M257.1,407.7c-0.2,0-0.4-0.2-0.4-0.5c0-0.2,0.1-0.2,0.2-0.3c0.1-0.1,0.2-0.2,0.3-0.2
	s0.2,0.1,0.3,0.2c0.1,0.1,0.2,0.2,0.2,0.3s-0.1,0.2-0.2,0.3C257.4,407.6,257.2,407.7,257.1,407.7L257.1,407.7z"/>
<path class="st12" d="M259.6,412.9v-0.8c0.4,0.3,0.8,0.4,1.3,0.4c0.6,0,1-0.2,1-0.6c0-0.1,0-0.2-0.1-0.3l-0.2-0.2
	c-0.1-0.1-0.2-0.2-0.3-0.2c-0.2-0.1-0.2-0.1-0.4-0.2c-0.2-0.1-0.4-0.2-0.6-0.2s-0.2-0.2-0.4-0.2s-0.2-0.2-0.2-0.3
	c-0.1-0.2-0.1-0.3-0.1-0.5s0.1-0.4,0.2-0.6s0.2-0.3,0.4-0.4s0.4-0.2,0.6-0.2c0.2-0.1,0.4-0.1,0.6-0.1c0.4,0,0.7,0.1,1,0.2v0.7
	c-0.3-0.2-0.7-0.3-1.1-0.3c-0.2,0-0.2,0-0.4,0.1c-0.1,0-0.2,0.1-0.2,0.2l-0.2,0.2c-0.1,0.1-0.1,0.2-0.1,0.2c0,0.1,0,0.2,0.1,0.3
	c0.1,0.1,0.1,0.2,0.2,0.2c0.1,0.1,0.2,0.2,0.3,0.2c0.1,0.1,0.2,0.1,0.4,0.2c0.2,0.1,0.4,0.2,0.6,0.2s0.2,0.2,0.4,0.2
	c0.1,0.1,0.2,0.2,0.2,0.3c0.1,0.2,0.1,0.3,0.1,0.5s-0.1,0.4-0.2,0.6s-0.2,0.3-0.4,0.4s-0.4,0.2-0.6,0.2c-0.2,0.1-0.4,0.1-0.6,0.1
	C260.4,413.1,260,413,259.6,412.9z"/>
<path class="st12" d="M267.1,412.8c-0.4,0.2-0.8,0.3-1.2,0.3c-0.6,0-1.1-0.2-1.5-0.6s-0.6-1-0.6-1.6s0.2-1.3,0.6-1.8s1-0.7,1.7-0.6
	c0.4,0,0.7,0.1,1,0.2v0.7c-0.3-0.2-0.6-0.3-1-0.3s-0.8,0.2-1.1,0.5c-0.3,0.3-0.5,0.8-0.4,1.3c0,0.5,0.2,0.9,0.4,1.3
	c0.3,0.3,0.7,0.5,1.1,0.5s0.8-0.2,1.1-0.4v0.6L267.1,412.8z"/>
<path class="st12" d="M272.1,413h-0.7v-2.6c0-1-0.3-1.4-1-1.4c-0.3,0-0.6,0.2-0.9,0.4c-0.2,0.3-0.4,0.6-0.3,1v2.6h-0.7v-6.6h0.7v2.9
	l0,0c0.3-0.6,0.8-0.9,1.4-0.9c1,0,1.5,0.6,1.5,1.8V413z"/>
<path class="st12" d="M277.3,410.9h-3.2c0,0.4,0.2,0.8,0.4,1.1c0.2,0.3,0.6,0.5,1,0.4c0.5,0,1-0.2,1.4-0.5v0.6
	c-0.5,0.3-1,0.5-1.6,0.4c-0.6,0-1.1-0.2-1.5-0.6c-0.4-0.5-0.6-1-0.6-1.7s0.2-1.2,0.6-1.7c0.4-0.4,0.9-0.6,1.4-0.6s1,0.2,1.4,0.6
	c0.3,0.5,0.5,1,0.5,1.6L277.3,410.9z M276.6,410.3c0-0.3-0.1-0.7-0.3-1c-0.2-0.2-0.5-0.4-0.8-0.3c-0.3,0-0.6,0.2-0.9,0.4
	c-0.2,0.2-0.4,0.6-0.4,1L276.6,410.3z"/>
<path class="st12" d="M282.5,413h-0.6v-2.6c0-1-0.3-1.4-1-1.4c-0.3,0-0.6,0.2-0.9,0.4c-0.2,0.3-0.4,0.6-0.3,1v2.6H279v-4.5h0.7v0.7
	l0,0c0.3-0.6,0.8-0.9,1.4-0.9c0.4,0,0.8,0.2,1.1,0.5c0.3,0.4,0.4,0.9,0.4,1.4L282.5,413z"/>
<path class="st12" d="M290.5,413h-0.7v-0.7l0,0c-0.2,0.6-0.8,0.9-1.4,0.8c-1,0-1.6-0.6-1.6-1.9v-2.7h0.7v2.6c0,1,0.4,1.4,1.1,1.4
	c0.3,0,0.6-0.2,0.9-0.4c0.2-0.3,0.3-0.6,0.3-1v-2.6h0.7V413L290.5,413z"/>
<path class="st12" d="M296,413h-0.7v-2.6c0-1-0.3-1.4-1-1.4c-0.3,0-0.6,0.2-0.9,0.4c-0.2,0.3-0.4,0.6-0.3,1v2.6h-0.8v-4.5h0.7v0.7
	l0,0c0.3-0.6,0.8-0.9,1.4-0.9c0.4,0,0.8,0.2,1.1,0.5c0.3,0.4,0.4,0.9,0.4,1.4L296,413z"/>
<path class="st12" d="M301.4,413h-0.7v-0.8l0,0c-0.3,0.6-0.9,0.9-1.5,0.9s-1-0.2-1.4-0.6c-0.4-0.5-0.6-1.1-0.5-1.7
	c0-0.6,0.2-1.3,0.6-1.8c0.3-0.5,1-0.7,1.5-0.6c0.6,0,1,0.2,1.4,0.7l0,0v-2.8h0.7L301.4,413z M300.7,411v-0.6c0-0.3-0.2-0.6-0.3-0.9
	c-0.5-0.5-1.3-0.6-1.8-0.1c-0.1,0.1-0.1,0.1-0.2,0.2c-0.2,0.4-0.4,0.9-0.4,1.4c0,0.4,0.1,0.9,0.4,1.2c0.2,0.3,0.6,0.5,1,0.5
	s0.7-0.2,1-0.4C300.6,411.9,300.7,411.4,300.7,411L300.7,411z"/>
<path class="st12" d="M309.1,408.7l-2.6,3.7h2.6v0.6h-3.7v-0.2l2.6-3.7h-2.4v-0.6h3.4v0.2H309.1z"/>
<path class="st12" d="M314,413h-0.7v-0.7l0,0c-0.2,0.5-0.8,0.8-1.4,0.8c-1,0-1.6-0.6-1.6-1.9v-2.7h0.7v2.6c0,1,0.4,1.4,1.1,1.4
	c0.3,0,0.6-0.2,0.9-0.4c0.2-0.3,0.3-0.6,0.3-1v-2.6h0.7V413L314,413z"/>
<path class="st12" d="M318,409.3c-0.2-0.1-0.4-0.2-0.6-0.2c-0.3,0-0.6,0.2-0.8,0.4c-0.2,0.3-0.3,0.8-0.3,1.2v2.3h-0.7v-4.5h0.7v1
	l0,0c0.1-0.3,0.2-0.6,0.5-0.7c0.2-0.2,0.5-0.2,0.7-0.2s0.3,0,0.4,0.1L318,409.3z"/>
<path class="st12" d="M322.8,413h-0.7v-0.7l0,0c-0.2,0.6-0.8,0.9-1.4,0.8c-1,0-1.6-0.6-1.6-1.9v-2.7h0.7v2.6c0,1,0.4,1.4,1.1,1.4
	c0.3,0,0.6-0.2,0.9-0.4c0.2-0.3,0.3-0.6,0.3-1v-2.6h0.7V413z M320.2,407.7c-0.2,0-0.2-0.1-0.3-0.2c-0.1-0.1-0.2-0.2-0.2-0.3
	c0-0.2,0.1-0.2,0.2-0.3c0.1-0.1,0.2-0.2,0.3-0.2c0.2,0,0.2,0.1,0.3,0.2c0.1,0.1,0.2,0.2,0.2,0.3s-0.1,0.2-0.2,0.3
	C320.4,407.6,320.3,407.7,320.2,407.7z M321.8,407.7c-0.2,0-0.4-0.2-0.4-0.5c0-0.2,0.1-0.2,0.2-0.3c0.1-0.1,0.2-0.2,0.3-0.2
	s0.2,0.1,0.3,0.2c0.1,0.1,0.2,0.2,0.2,0.3s-0.1,0.2-0.2,0.3C322.2,407.6,322,407.7,321.8,407.7L321.8,407.7z"/>
<path class="st12" d="M327.6,412.8c-0.4,0.2-0.8,0.3-1.2,0.3c-0.6,0-1.1-0.2-1.5-0.6s-0.6-1-0.6-1.6s0.2-1.3,0.6-1.8s1-0.7,1.7-0.6
	c0.4,0,0.7,0.1,1,0.2v0.7c-0.3-0.2-0.6-0.3-1-0.3s-0.8,0.2-1.1,0.5c-0.3,0.3-0.5,0.8-0.4,1.3c0,0.5,0.2,0.9,0.4,1.3
	c0.3,0.3,0.7,0.5,1.1,0.5s0.8-0.2,1.1-0.4L327.6,412.8z"/>
<path class="st12" d="M332.6,413h-1l-2-2.2l0,0v2.2h-0.7v-6.6h0.7v4.2l0,0l1.9-2.1h1l-2.1,2.2L332.6,413z"/>
<path class="st12" d="M333.5,412.9v-0.8c0.4,0.3,0.8,0.4,1.3,0.4c0.6,0,1-0.2,1-0.6c0-0.1,0-0.2-0.1-0.3l-0.2-0.2
	c-0.1-0.1-0.2-0.2-0.3-0.2c-0.2-0.1-0.2-0.1-0.4-0.2c-0.2-0.1-0.4-0.2-0.6-0.2s-0.2-0.2-0.4-0.2s-0.2-0.2-0.2-0.3
	c-0.1-0.2-0.1-0.3-0.1-0.5s0.1-0.4,0.2-0.6s0.2-0.3,0.4-0.4s0.4-0.2,0.6-0.2c0.2-0.1,0.4-0.1,0.6-0.1c0.4,0,0.7,0.1,1,0.2v0.7
	c-0.3-0.2-0.7-0.3-1.1-0.3c-0.2,0-0.2,0-0.4,0.1c-0.1,0-0.2,0.1-0.2,0.2l-0.2,0.2c-0.1,0.1-0.1,0.2-0.1,0.2c0,0.1,0,0.2,0.1,0.3
	c0.1,0.1,0.1,0.2,0.2,0.2c0.1,0.1,0.2,0.2,0.3,0.2c0.1,0.1,0.2,0.1,0.4,0.2c0.2,0.1,0.4,0.2,0.6,0.2s0.2,0.2,0.4,0.2
	c0.1,0.1,0.2,0.2,0.2,0.3c0.1,0.2,0.1,0.3,0.1,0.5s-0.1,0.4-0.2,0.6s-0.2,0.3-0.4,0.4s-0.4,0.2-0.6,0.2c-0.2,0.1-0.4,0.1-0.6,0.1
	C334.3,413.1,333.9,413,333.5,412.9z"/>
<path class="st12" d="M341.5,410.9h-3.2c0,0.4,0.2,0.8,0.4,1.1c0.2,0.3,0.6,0.5,1,0.4c0.5,0,1-0.2,1.4-0.5v0.6
	c-0.5,0.3-1,0.5-1.6,0.4c-0.6,0-1.1-0.2-1.5-0.6c-0.4-0.5-0.6-1-0.6-1.7s0.2-1.2,0.6-1.7c0.4-0.4,0.9-0.6,1.4-0.6s1,0.2,1.4,0.6
	c0.3,0.5,0.5,1,0.5,1.6L341.5,410.9z M340.8,410.3c0-0.3-0.1-0.7-0.3-1c-0.2-0.2-0.5-0.4-0.8-0.3c-0.3,0-0.6,0.2-0.9,0.4
	c-0.2,0.2-0.4,0.6-0.4,1L340.8,410.3z"/>
<path class="st12" d="M345.1,412.9c-0.2,0.1-0.4,0.2-0.6,0.2c-0.8,0-1.2-0.4-1.2-1.3v-2.7h-0.8v-0.6h0.8v-1.1l0.7-0.2v1.4h1.1v0.6
	H344v2.6c0,0.2,0,0.5,0.2,0.6s0.3,0.2,0.5,0.2s0.3-0.1,0.5-0.2v0.5H345.1z"/>
<path class="st12" d="M349.7,408.7l-2.6,3.7h2.6v0.6H346v-0.2l2.6-3.7h-2.4v-0.6h3.4v0.2H349.7z"/>
<path class="st12" d="M354.4,410.9h-3.2c0,0.4,0.2,0.8,0.4,1.1c0.2,0.3,0.6,0.5,1,0.4c0.5,0,1-0.2,1.4-0.5v0.6
	c-0.5,0.3-1,0.5-1.6,0.4c-0.6,0-1.1-0.2-1.5-0.6c-0.4-0.5-0.6-1-0.6-1.7s0.2-1.2,0.6-1.7c0.4-0.4,0.9-0.6,1.4-0.6s1,0.2,1.4,0.6
	c0.3,0.5,0.5,1,0.5,1.6L354.4,410.9z M353.7,410.3c0-0.3-0.1-0.7-0.3-1c-0.2-0.2-0.5-0.4-0.8-0.3c-0.3,0-0.6,0.2-0.9,0.4
	c-0.2,0.2-0.4,0.6-0.4,1L353.7,410.3z"/>
<path class="st12" d="M359.6,413h-0.7v-2.6c0-1-0.3-1.4-1-1.4c-0.3,0-0.6,0.2-0.9,0.4c-0.2,0.3-0.4,0.6-0.3,1v2.6H356v-4.5h0.7v0.7
	l0,0c0.3-0.6,0.8-0.9,1.4-0.9c0.4,0,0.8,0.2,1.1,0.5c0.3,0.4,0.4,0.9,0.4,1.4V413z"/>
<path class="st14" d="M370,220.7l0.1-2.5c3.8-4.3,4.8-8.6,4.8-14.4c0-13.2-10.6-23.9-23.9-23.9c-13.2,0-23.9,10.6-23.9,23.9
	c0,2.3,0.3,4.6,1,6.9l-2,0.6c-4.2-13.7,3.6-28.2,17.3-32.3s28.2,3.6,32.3,17.3l0,0c0.7,2.5,1.1,5,1.1,7.5
	C376.9,210.1,374.2,218.4,370,220.7z"/>
<path d="M216.4,223.7h-5l-1.3,3.1h-1.4l5.4-12.6h0.8l5.8,12.6h-3.1L216.4,223.7z M213.8,218l-1.9,4.6h4L213.8,218z"/>
<path d="M225.6,227l-5.1-12.6h3l3.4,8.5l3.4-8.5h1.4l3.5,8.4l3.1-8.4h1.3l-4.7,12.6h-0.8l-3.8-9.2l-3.7,9.2H225.6z"/>
<path d="M244.8,227h-2.9v-12.6h2.9V227z"/>
<path d="M264.4,215.4v11.9h-2v-11.8h-4.6v-1H269v1L264.4,215.4L264.4,215.4z"/>
<path d="M275,221.5h-1.4v5.8h-2v-12.9h4.1c2.8,0,4.6,1.2,4.6,3.4c-0.1,1.8-1.4,3.3-3.2,3.5l4.2,5.9H279L275,221.5z M273.6,215.4v5.1
	h2.6c1,0,1.9-0.6,1.9-2.6c0-1.9-1.1-2.5-2.5-2.5H273.6z"/>
<path d="M284.3,214.5h7.4v1h-5.4v5h5v1h-5v5h5.8v1h-7.8V214.5L284.3,214.5z"/>
<path d="M304.1,214.3h1.2v8.2c0,3.2-2.1,4.8-4.8,4.8c-3.2,0-5.2-1.4-5.2-5v-8h1.9v8c0,3,1.5,4,3.5,4c1.8,0.1,3.3-1.3,3.4-3v-0.5
	V214.3z"/>
<path d="M318.5,221.4h-6.7v5.9h-2v-12.9h2v5.9h6.7v-5.9h2v12.9h-2V221.4z"/>
<path d="M331.8,223.4H327l-1.5,3.9h-1.2l5.3-13h0.6l5.4,13h-2.2L331.8,223.4z M329.4,217.4l-2,5h4.1L329.4,217.4z"/>
<path d="M347.7,227.4l-8.1-10.9v10.8h-1v-12.9h1.9l7,9.5v-9.5h1v13L347.7,227.4L347.7,227.4z"/>
<path d="M354.4,214.5h4.9c3.8,0,5.9,3,5.9,6.4s-2.2,6.5-5.9,6.5h-4.9V214.5z M356.4,215.4v10.9h3c2.2,0,3.8-1.2,3.8-5.5
	c0-4.1-1.6-5.4-3.8-5.4H356.4L356.4,215.4z"/>
<path d="M264.7,244.2l-2.2-8.7h1.1l1,4.4c0.2,1.1,0.5,2.2,0.6,3l0,0c0.2-0.9,0.4-1.9,0.7-3l1.1-4.4h1.1l1,4.4c0.2,1,0.4,2,0.6,3l0,0
	c0.2-1,0.4-1.9,0.6-3l1.1-4.4h1.1l-2.4,8.7H269l-1-4.6c-0.2-1-0.4-1.9-0.6-2.9l0,0c-0.2,1-0.4,1.9-0.6,2.9l-1.2,4.6H264.7
	L264.7,244.2z"/>
<path d="M276,236.2c0,0.3-0.3,0.6-0.6,0.6s-0.6-0.3-0.6-0.6c0-0.4,0.2-0.7,0.6-0.7c0,0,0,0,0.1,0l0,0
	C275.8,235.4,276,235.8,276,236.2z M274.8,244.2V238h1.1v6.2H274.8z"/>
<path d="M278.1,239.9c0-0.6,0-1.3-0.1-1.9h1v1.2h0.1c0.2-0.8,0.9-1.4,1.7-1.4h0.3v1c-0.8-0.2-1.6,0.3-1.8,1.1v0.3
	c0,0.2-0.1,0.3-0.1,0.6v3.4H278L278.1,239.9z"/>
<path d="M284.9,236v1.8h1.6v0.9h-1.6v3.4c0,0.8,0.2,1.2,0.8,1.2c0.2,0,0.4,0,0.6-0.1l0.1,0.9c-0.3,0.1-0.6,0.2-1,0.2
	c-0.5,0-0.9-0.2-1.2-0.5c-0.3-0.5-0.5-1-0.4-1.6v-3.4h-1v-0.9h1V236H284.9z"/>
<path d="M287.6,242.9c0.4,0.2,1,0.5,1.4,0.5c0.8,0,1.2-0.4,1.2-1s-0.3-0.9-1.1-1.1c-1.1-0.4-1.6-1-1.6-1.8c0-1,0.9-1.8,1.9-1.8l0,0
	h0.2c0.6,0,1,0.2,1.5,0.4l-0.2,0.8c-0.3-0.2-0.8-0.4-1.2-0.4c-0.5-0.1-1,0.2-1,0.7c0,0,0,0,0,0.1v0.1c0,0.5,0.4,0.7,1.1,1
	c1,0.4,1.6,1,1.6,1.9c0,1.1-0.8,1.8-2.2,1.8c-0.6,0-1.1-0.2-1.7-0.4L287.6,242.9z"/>
<path d="M297.5,243.8c-0.6,0.2-1.1,0.4-1.8,0.4c-1.6,0.1-3-1.2-3-2.8c0-0.2,0-0.2,0-0.4c-0.1-1.7,1.2-3.1,2.9-3.3h0.3
	c0.6,0,1,0.1,1.5,0.3l-0.2,0.9c-0.4-0.2-0.8-0.3-1.3-0.3c-1.2,0-2.2,1-2.2,2.2l0,0v0.2c-0.2,1.1,0.6,2.2,1.8,2.3l0,0h0.2
	c0.5,0,1-0.1,1.4-0.3L297.5,243.8z"/>
<path d="M299.5,235h1.1v3.9l0,0c0.2-0.3,0.5-0.6,0.8-0.8s0.7-0.3,1.1-0.3c0.8,0,2.1,0.5,2.1,2.6v3.8h-1.1v-3.6c0-1-0.4-1.8-1.4-1.8
	c-0.7,0-1.3,0.5-1.4,1.1c-0.1,0.2-0.1,0.4-0.1,0.6v3.8h-1.1V235z"/>
<path d="M310.2,244.1l-0.1-0.8l0,0c-0.4,0.6-1.1,1-1.8,1c-1,0-1.8-0.7-1.8-1.7v-0.2c0-1.5,1.3-2.3,3.6-2.3v-0.2
	c0.1-0.7-0.4-1.4-1-1.4h-0.3c-0.6,0-1.1,0.2-1.6,0.5l-0.2-0.7c0.6-0.4,1.3-0.6,2-0.6c1.8,0,2.3,1.3,2.3,2.6v2.3c0,0.5,0,1,0.1,1.5
	L310.2,244.1L310.2,244.1z M310,240.9c-1.2,0-2.6,0.2-2.6,1.4c-0.1,0.6,0.3,1,0.9,1.1l0,0h0.2c0.6,0,1.3-0.4,1.4-1
	c0-0.2,0.1-0.2,0.1-0.4V240.9z"/>
<path d="M314,244.2v-5.4h-0.9V238h0.9v-0.3c-0.1-0.8,0.2-1.6,0.7-2.2c0.4-0.4,0.9-0.6,1.4-0.6c0.3,0,0.6,0.1,1,0.2L317,236
	c-0.2-0.1-0.5-0.2-0.7-0.2c-1,0-1.2,0.9-1.2,1.8v0.3h1.4v0.9H315v5.4H314z"/>
<path d="M319.8,236v1.8h1.6v0.9h-1.6v3.4c0,0.8,0.2,1.2,0.8,1.2c0.2,0,0.4,0,0.6-0.1l0.1,0.9c-0.3,0.1-0.6,0.2-1,0.2
	c-0.5,0-0.9-0.2-1.2-0.5c-0.3-0.5-0.5-1-0.4-1.6v-3.4h-1v-0.9h1v-1.5L319.8,236z"/>
<path d="M333.8,235.7c0.7-0.2,1.4-0.2,2.1-0.2c0.9-0.1,1.8,0.2,2.4,0.7c0.4,0.4,0.6,1,0.6,1.6c0,1-0.6,1.8-1.6,2.2l0,0
	c0.6,0.3,1.1,1,1.2,1.7c0.2,0.8,0.4,1.5,0.6,2.3H338c-0.2-0.6-0.4-1.4-0.6-2c-0.2-1.1-0.7-1.6-1.7-1.6h-1v3.6h-1.1L333.8,235.7z
	 M334.9,239.5h1.1c1.1,0,1.9-0.6,1.9-1.6c0-1.1-0.8-1.5-1.9-1.6c-0.3,0-0.7,0-1,0.1L334.9,239.5z"/>
<path d="M351.6,243.6c-0.6,0.2-1.1,0.4-1.8,0.3c-1.6,0.1-3-1.1-3-2.7l0,0v-0.4c-0.1-1.7,1.2-3.1,2.9-3.2c0,0,0,0,0.1,0h0.3
	c0.6,0,1,0.1,1.5,0.3l-0.2,0.9c-0.4-0.2-0.8-0.3-1.3-0.3c-1.3,0.1-2.2,1.1-2.2,2.4c0.1,1.1,1,2,2.1,2.2c0.5,0,1-0.1,1.4-0.3
	L351.6,243.6z"/>
<path d="M353.5,235.1h1.1v3.8l0,0c0.2-0.3,0.5-0.6,0.8-0.8s0.7-0.3,1.1-0.3c0.8,0,2.1,0.5,2.1,2.6v3.6h-1.1v-3.4
	c0-1-0.4-1.8-1.4-1.8c-0.6,0-1.3,0.5-1.4,1.1c-0.1,0.2-0.1,0.4-0.1,0.6v3.6h-1.1V235.1z"/>
<path d="M362.4,236v1.8h1.6v0.8h-1.6v3.3c0,0.7,0.2,1.2,0.8,1.2c0.2,0,0.4,0,0.6-0.1l0.1,0.8c-0.3,0.1-0.6,0.2-1,0.2
	c-0.5,0-0.9-0.2-1.2-0.5c-0.3-0.5-0.5-1-0.4-1.6v-3.3h-1v-0.8h1V236H362.4z"/>
<path d="M341.9,240.1c-0.3,1.5,0.6,3,1.8,3c0.6,0,1-0.1,1.5-0.3l0.2,0.8c-0.6,0.2-1.2,0.4-1.8,0.4c-1.9,0-2.6-2.2-2.6-4.1
	c0-1.8,0.7-3.1,2.3-3.1c1.8,0,2.2,1.8,2.2,2.9v0.5L341.9,240.1z M344.5,239.3c0-0.7-0.2-1.8-1.4-1.8c-1.1,0-1.2,1-1.3,1.8H344.5z"/>
<path d="M209.1,243c0.6,0.4,1.2,0.6,1.9,0.6c0.9,0.1,1.7-0.6,1.8-1.4l0,0V242c0-0.9-0.5-1.4-1.6-1.9c-1.4-0.6-2.2-1.4-2.2-2.7
	c0-1.4,1-2.6,2.5-2.6h0.2c0.6,0,1.3,0.2,1.8,0.5l-0.3,1c-0.5-0.3-1-0.5-1.6-0.5c-0.8-0.1-1.5,0.5-1.6,1.3l0,0v0.2
	c0,0.9,0.5,1.4,1.7,1.8c1.4,0.6,2.2,1.4,2.2,2.8c0,1.4-1.1,2.7-2.6,2.8h-0.4c-0.8,0-1.5-0.2-2.2-0.6L209.1,243z"/>
<path d="M217,236.2v1.8h1.6v0.9H217v3.5c0,0.8,0.2,1.3,0.8,1.3c0.2,0,0.4,0,0.6-0.1l0.1,0.9c-0.3,0.1-0.6,0.2-1,0.2
	c-0.5,0-0.9-0.2-1.2-0.5c-0.3-0.5-0.5-1.1-0.4-1.7V239h-1v-0.9h1v-1.9L217,236.2L217,236.2z"/>
<path d="M221.4,241c-0.3,1.5,0.6,3,1.8,3c0.6,0,1-0.1,1.5-0.3l0.2,0.8c-0.6,0.2-1.2,0.4-1.8,0.4c-1.9,0-2.6-2.2-2.6-4.1
	c0-1.8,0.7-3.1,2.3-3.1c1.8,0,2.2,1.8,2.2,2.9v0.5L221.4,241z M224.1,240.2c0-0.7-0.2-1.8-1.4-1.8s-1.2,1-1.3,1.8H224.1z"/>
<path d="M235.3,240.9c-0.3,1.5,0.6,3,1.8,3c0.6,0,1-0.1,1.5-0.3l0.2,0.8c-0.6,0.2-1.2,0.4-1.8,0.4c-1.9,0-2.6-2.2-2.6-4.1
	c0-1.8,0.7-3.1,2.3-3.1c1.8,0,2.2,1.8,2.2,2.9v0.5L235.3,240.9z M237.9,240.2c0-0.7-0.2-1.8-1.4-1.8c-1.1,0-1.2,1-1.3,1.8H237.9z"/>
<path d="M232.1,242.8c0,0.6,0,1.2,0.1,1.8h-1l-0.1-1.1l0,0c-0.3,0.8-1.1,1.3-2,1.3c-1,0-2.1-0.6-2.1-3v-3.9h1.1v3.8
	c0,1.3,0.3,2.2,1.4,2.2c0.6,0,1.3-0.5,1.4-1.1c0.1-0.2,0.1-0.4,0.1-0.6V238h1.1V242.8z"/>
<path d="M240.9,240c0-0.7,0-1.4-0.1-2.1h1v1.3h0.1c0.2-0.8,0.9-1.4,1.7-1.4c0.1,0,0.2,0,0.3,0.1v1.1c-0.2,0-0.2-0.1-0.4-0.1
	c-0.8,0-1.4,0.7-1.4,1.5c0,0.2-0.1,0.4-0.1,0.6v3.5h-1.1V240z"/>
<path d="M245.8,239.7c0-0.6,0-1.2-0.1-1.8h1l0.1,1l0,0c0.4-0.7,1.2-1.2,2-1.2s2.2,0.6,2.2,2.8v3.9h-1.1v-3.8c0-1-0.4-1.9-1.4-1.9
	c-0.7,0-1.3,0.5-1.4,1.2c-0.1,0.2-0.1,0.4-0.1,0.6v3.9h-1.1L245.8,239.7L245.8,239.7z"/>
<circle class="st13" cx="327.1" cy="241" r="1.3"/>
<ellipse transform="matrix(0.4641 -0.8858 0.8858 0.4641 -75.9526 356.446)" class="st13" cx="256.6" cy="241" rx="1.3" ry="1.3"/>
<rect x="252.1" y="212.5" class="st13" width="1.4" height="16.2"/>
<rect x="339.1" y="164.2" class="st13" width="2.9" height="38"/>
<rect x="349.5" y="164.2" class="st13" width="2.9" height="38"/>
<rect x="360.1" y="164.2" class="st13" width="2.9" height="38"/>
<path class="st1" d="M368.7,14.5v8.2c0,5.8-4.7,10.5-10.5,10.5H237c-5.8,0-10.5-4.7-10.5-10.5v-8.2"/>
<path class="st3" d="M320.8,22.6h-48.7c-0.7,0-1.3-0.6-1.3-1.3s0.6-1.3,1.3-1.3l0,0h48.7c0.7,0,1.3,0.6,1.3,1.3
	S321.5,22.6,320.8,22.6z"/>
<circle class="st4" cx="331.9" cy="21.4" r="3.9"/>
<path class="st4" d="M331.9,25.8c-2.5,0-4.6-2.1-4.6-4.6s1.9-4.6,4.5-4.6h0.1c2.5,0,4.6,2.1,4.6,4.6S334.3,25.8,331.9,25.8z
	 M331.9,18c-1.8,0-3.4,1.5-3.4,3.4s1.5,3.4,3.4,3.4c1.8,0,3.4-1.5,3.4-3.4l0,0l0,0C335.2,19.5,333.7,18,331.9,18z"/>
<path class="st5" d="M154.4,560.3l0.7-513.1c0.1-21.9,17.9-39.7,39.8-39.8H307"/>
<circle class="st15" cx="816.8" cy="443.8" r="146.9"/>
<g>
	<g>
		<g>
			<g>
				<g>
					<g>
						<g>
							<defs>
								<circle id="SVGID_1_" cx="817.8" cy="443.8" r="146.9"/>
							</defs>
							<clipPath id="SVGID_2_">
								<use xlink:href="#SVGID_1_"  style="overflow:visible;"/>
							</clipPath>
							<g class="st16">
								<polygon class="st17" points="504.4,211.9 664.5,575.5 828.5,288 								"/>
							</g>
						</g>
					</g>
				</g>
			</g>
		</g>
	</g>
</g>
<g>
	<g>
		<g>
			<g>
				<g>
					<g>
						<g>
							<defs>
								<polygon id="SVGID_3_" points="889.7,174.4 904.6,180.5 920.7,180.5 932.1,191.9 947,198 953.1,212.9 964.6,224.3 
									964.6,240.5 970.8,255.3 964.6,270.2 964.6,286.4 953.1,297.7 947,312.6 932.1,318.8 920.7,330.2 904.6,330.2 889.7,336.3 
									874.8,330.2 858.7,330.2 847.4,318.8 832.5,312.6 826.3,297.7 814.9,286.4 814.9,270.2 808.7,255.3 814.9,240.5 
									814.9,224.3 826.3,212.9 832.5,198 847.4,191.9 858.7,180.5 874.8,180.5 								"/>
							</defs>
							<clipPath id="SVGID_4_">
								<use xlink:href="#SVGID_3_"  style="overflow:visible;"/>
							</clipPath>
							<g class="st18">
								<polygon class="st17" points="694.7,75.8 814.4,347.8 937.1,132.7 								"/>
							</g>
						</g>
					</g>
				</g>
			</g>
		</g>
	</g>
</g>
<path class="st9" d="M731.7,509.2v-14.1h3.9c5,0,7.4,2.3,7.4,6.9c0.1,2-0.6,3.9-2.1,5.3s-3.5,2.1-5.5,2L731.7,509.2z M733.3,496.5
	v11.1h2.1c1.6,0.1,3.1-0.4,4.3-1.4c1.1-1.1,1.7-2.6,1.5-4.2c0-3.6-1.9-5.4-5.8-5.4L733.3,496.5z"/>
<path class="st9" d="M753.7,504.5h-7.1c0,1,0.3,1.9,0.9,2.6c0.6,0.6,1.5,1,2.4,0.9c1.1,0,2.2-0.4,3.1-1.1v1.5c-1,0.7-2.2,1-3.5,1
	c-1.3,0.1-2.5-0.5-3.4-1.4c-0.9-1.1-1.3-2.5-1.2-3.8c-0.1-1.4,0.4-2.8,1.4-3.8c0.8-1,2.1-1.5,3.4-1.5c1.2-0.1,2.3,0.4,3,1.3
	c0.8,1,1.1,2.3,1,3.6L753.7,504.5z M752.1,503.2c0.1-0.8-0.2-1.5-0.6-2.2c-0.5-0.6-1.1-0.8-1.8-0.8s-1.4,0.2-1.9,0.8
	c-0.6,0.6-0.9,1.4-1,2.2H752.1z"/>
<path class="st9" d="M770.5,509.2h-1.6v-5.8c0.1-0.8-0.2-1.7-0.6-2.4c-0.4-0.6-1-0.8-1.8-0.7c-0.7,0-1.4,0.4-1.8,1
	c-0.5,0.6-0.7,1.4-0.7,2.2v5.8h-1.6v-6c0-2-0.8-3-2.3-3c-0.7,0-1.4,0.3-1.8,0.9c-0.5,0.6-0.7,1.5-0.7,2.3v5.8H756v-10.1h1.6v1.6l0,0
	c0.6-1.2,1.8-1.8,3.1-1.8s2.5,0.8,2.9,2.1c0.6-1.3,1.9-2.2,3.4-2.1c2.2,0,3.4,1.4,3.4,4.1L770.5,509.2z"/>
<path class="st9" d="M777.8,509.4c-1.4,0.1-2.6-0.5-3.6-1.4c-1-1-1.4-2.4-1.4-3.8c-0.1-1.4,0.4-2.9,1.4-4c1-1,2.4-1.5,3.8-1.4
	c1.4-0.1,2.6,0.4,3.5,1.4s1.4,2.5,1.3,3.8c0.1,1.4-0.4,2.8-1.4,3.8C780.5,508.9,779.2,509.5,777.8,509.4z M778,500.2
	c-1,0-1.8,0.3-2.5,1c-0.6,0.8-1,1.8-0.9,3c-0.1,1,0.2,2,0.9,2.8c0.6,0.7,1.5,1,2.5,1c0.9,0.1,1.8-0.3,2.4-1c0.6-0.8,0.9-1.8,0.9-2.9
	c0.1-1-0.2-2.1-0.9-2.9C779.7,500.5,778.8,500.1,778,500.2z"/>
<path class="st9" d="M784.8,508.9v-1.8c0.8,0.6,1.8,1,2.9,1c1.4,0,2.2-0.5,2.2-1.4c0-0.2-0.1-0.5-0.2-0.7c-0.2-0.2-0.3-0.4-0.5-0.5
	c-0.2-0.2-0.5-0.3-0.7-0.4l-0.9-0.4c-0.4-0.2-0.8-0.3-1.2-0.6c-0.3-0.2-0.6-0.4-0.9-0.6c-0.2-0.2-0.4-0.5-0.5-0.8s-0.2-0.6-0.2-1
	c0-0.5,0.1-0.9,0.3-1.3s0.5-0.6,0.9-0.9c0.4-0.2,0.8-0.5,1.2-0.6c0.5-0.2,1-0.2,1.4-0.2c0.8,0,1.6,0.2,2.3,0.5v1.6
	c-0.8-0.5-1.7-0.7-2.6-0.7c-0.2,0-0.6,0-0.8,0.1s-0.4,0.2-0.6,0.3c-0.2,0.1-0.3,0.2-0.4,0.5c-0.1,0.2-0.2,0.4-0.2,0.6
	s0.1,0.5,0.2,0.6c0.1,0.2,0.2,0.3,0.4,0.5s0.4,0.2,0.6,0.4c0.2,0.2,0.6,0.2,0.9,0.4c0.4,0.2,0.8,0.3,1.2,0.6
	c0.3,0.2,0.6,0.4,0.9,0.6s0.4,0.5,0.6,0.8c0.3,0.8,0.2,1.6-0.2,2.4c-0.2,0.4-0.6,0.7-0.9,1c-0.4,0.2-0.8,0.4-1.3,0.6s-1,0.2-1.5,0.2
	C786.6,509.5,785.6,509.3,784.8,508.9z"/>
<path class="st9" d="M800.4,496.5c-0.2,0-0.6-0.1-0.7-0.3c-0.4-0.4-0.4-1.1,0-1.5c0.2-0.2,0.5-0.3,0.7-0.3c0.3,0,0.6,0.1,0.8,0.3
	c0.2,0.2,0.3,0.5,0.3,0.7s-0.1,0.6-0.3,0.7C800.9,496.4,800.6,496.5,800.4,496.5z M801.2,509.2h-1.6v-10.1h1.6V509.2z"/>
<path class="st9" d="M818.8,509.2h-1.6v-5.8c0.1-0.8-0.2-1.7-0.6-2.4c-0.4-0.6-1-0.8-1.8-0.7c-0.7,0-1.4,0.4-1.8,1
	c-0.5,0.6-0.7,1.4-0.7,2.2v5.8h-1.6v-6c0-2-0.8-3-2.3-3c-0.7,0-1.4,0.3-1.8,0.9c-0.5,0.6-0.7,1.5-0.7,2.3v5.8h-1.6v-10.1h1.6v1.6
	l0,0c0.6-1.2,1.8-1.8,3.1-1.8c0.6,0,1.3,0.2,1.8,0.6s0.9,0.9,1,1.5c0.6-1.3,1.9-2.2,3.4-2.1c2.2,0,3.4,1.4,3.4,4.1L818.8,509.2z"/>
<path class="st9" d="M838.5,509.2h-1.8l-1.5-4h-6l-1.4,4H826l5.4-14.2h1.7L838.5,509.2z M834.6,503.7l-2.2-6c-0.1-0.3-0.2-0.6-0.2-1
	l0,0c-0.1,0.3-0.2,0.6-0.2,1l-2.2,6H834.6z"/>
<path class="st9" d="M842.1,507.7L842.1,507.7v6.1h-1.6v-14.7h1.6v1.8l0,0c0.7-1.3,2.1-2.1,3.5-2c1.2-0.1,2.3,0.5,3,1.4
	c0.8,1,1.2,2.3,1.1,3.6c0.1,1.4-0.4,2.9-1.2,4.1c-0.8,1-2.1,1.6-3.4,1.5C843.9,509.5,842.6,508.9,842.1,507.7z M842.1,503.6v1.4
	c0,0.8,0.2,1.5,0.8,2.2c1.1,1.1,3,1.2,4.1,0.1c0.1-0.1,0.2-0.2,0.2-0.3c0.6-1,0.9-2,0.8-3.1c0.1-1-0.2-1.8-0.8-2.6
	c-0.5-0.6-1.3-1-2.1-1c-0.9,0-1.7,0.3-2.2,1C842.2,501.9,841.9,502.8,842.1,503.6L842.1,503.6z"/>
<path class="st9" d="M853.9,507.7L853.9,507.7v6.1h-1.6v-14.7h1.6v1.8l0,0c0.7-1.3,2-2.1,3.5-2c1.2-0.1,2.3,0.5,3,1.4
	c0.8,1,1.2,2.3,1.1,3.6c0.1,1.4-0.4,2.9-1.2,4.1c-0.8,1-2.1,1.6-3.4,1.5C855.7,509.5,854.6,508.9,853.9,507.7z M853.9,503.6v1.4
	c0,0.8,0.2,1.5,0.8,2.2c1.1,1.1,3,1.2,4.1,0.1c0.1-0.1,0.2-0.2,0.2-0.3c0.6-1,0.9-2,0.8-3.1c0.1-1-0.2-1.8-0.8-2.6
	c-0.5-0.6-1.3-1-2.1-1c-0.9,0-1.7,0.3-2.2,1C854.1,501.9,853.9,502.8,853.9,503.6L853.9,503.6z"/>
<path class="st9" d="M869.2,508.6v-1.9c0.2,0.2,0.5,0.4,0.8,0.6s0.6,0.3,1,0.4s0.7,0.2,1,0.2s0.6,0.1,1,0.1c0.8,0.1,1.6-0.2,2.3-0.6
	c0.8-0.6,1-1.8,0.5-2.6c-0.2-0.3-0.4-0.6-0.7-0.8c-0.3-0.2-0.7-0.5-1-0.6l-1.3-0.6c-0.5-0.2-1-0.5-1.4-0.8c-0.4-0.2-0.8-0.6-1.1-0.9
	s-0.6-0.6-0.7-1c-0.2-0.4-0.3-0.9-0.2-1.4c0-0.6,0.2-1.2,0.4-1.7c0.3-0.5,0.6-0.9,1.1-1.2s1-0.6,1.6-0.7c0.6-0.2,1.2-0.2,1.8-0.2
	c1-0.1,2.1,0.1,3,0.5v1.9c-1-0.6-2.1-0.9-3.2-0.9c-0.4,0-0.7,0.1-1.1,0.2c-0.3,0.1-0.6,0.2-1,0.4c-0.2,0.2-0.5,0.4-0.7,0.6
	c-0.2,0.3-0.2,0.6-0.2,1c0,0.3,0.1,0.6,0.2,1c0.2,0.2,0.3,0.6,0.6,0.7c0.3,0.2,0.6,0.5,1,0.6c0.4,0.2,0.8,0.4,1.3,0.6s1,0.5,1.4,0.8
	c0.4,0.2,0.8,0.6,1.2,1c0.3,0.3,0.6,0.7,0.8,1.1s0.3,0.9,0.3,1.4c0,0.6-0.2,1.2-0.4,1.8c-0.2,0.5-0.6,0.9-1.1,1.2
	c-0.5,0.3-1,0.6-1.6,0.6c-0.6,0.2-1.3,0.2-1.9,0.2c-0.2,0-0.5,0-0.8-0.1s-0.6-0.1-1-0.2c-0.3-0.1-0.6-0.2-1-0.2
	C869.8,508.9,869.5,508.8,869.2,508.6z"/>
<path class="st9" d="M884.4,509.1c-0.5,0.2-1,0.3-1.5,0.3c-1.8,0-2.6-1-2.6-3v-6h-1.8V499h1.8v-2.5l1.6-0.6v3h2.6v1.4h-2.6v5.7
	c-0.1,0.5,0.1,1,0.3,1.4c0.3,0.3,0.7,0.5,1.1,0.4c0.4,0,0.7-0.1,1-0.3L884.4,509.1z"/>
<path class="st9" d="M890.8,509.4c-1.4,0.1-2.6-0.5-3.6-1.4c-1-1-1.4-2.4-1.4-3.8c-0.1-1.4,0.4-2.9,1.4-4c1-1,2.4-1.5,3.8-1.4
	c1.4-0.1,2.6,0.4,3.5,1.4s1.4,2.5,1.3,3.8c0.1,1.4-0.4,2.8-1.4,3.8C893.6,508.9,892.2,509.5,890.8,509.4z M890.9,500.2
	c-1,0-1.8,0.3-2.5,1c-0.6,0.8-1,1.8-0.9,3c-0.1,1,0.2,2,0.9,2.8c0.6,0.7,1.5,1,2.5,1c0.9,0.1,1.8-0.3,2.4-1c0.6-0.9,0.9-1.8,0.8-2.9
	c0.1-1-0.2-2.1-0.8-2.9C892.8,500.5,891.9,500.2,890.9,500.2z"/>
<path class="st9" d="M903.7,500.8c-0.3-0.2-0.8-0.3-1.2-0.3c-0.7,0-1.4,0.4-1.8,1c-0.5,0.8-0.7,1.8-0.7,2.6v5.1h-1.6v-10.1h1.6v2.1
	l0,0c0.2-0.6,0.6-1.2,1-1.7c0.5-0.4,1-0.6,1.6-0.6c0.3,0,0.6,0,1,0.2L903.7,500.8z"/>
<path class="st9" d="M913.6,504.5h-7.1c0,1,0.3,1.9,0.9,2.6c0.6,0.6,1.5,1,2.4,0.9c1.1,0,2.2-0.4,3.1-1.1v1.5c-1,0.7-2.2,1-3.5,1
	c-1.3,0.1-2.5-0.5-3.4-1.4c-0.9-1.1-1.3-2.5-1.2-3.8c-0.1-1.4,0.4-2.8,1.4-3.8c0.8-1,2.1-1.5,3.4-1.5c1.2-0.1,2.3,0.4,3,1.3
	c0.8,1,1.2,2.3,1.1,3.6L913.6,504.5z M911.9,503.2c0.1-0.8-0.2-1.5-0.6-2.2c-0.5-0.6-1.1-0.8-1.8-0.8s-1.4,0.2-1.9,0.8
	c-0.6,0.6-0.9,1.4-1,2.2H911.9z"/>
<path class="st9" d="M758.4,533.4h-1.6v-1.6l0,0c-0.6,1.2-1.8,1.9-3.1,1.8c-2.4,0-3.6-1.4-3.6-4.3v-6h1.6v5.8c0,2.2,0.8,3.2,2.5,3.2
	c0.7,0,1.4-0.3,1.9-0.9c0.6-0.6,0.8-1.4,0.8-2.2v-5.8h1.6L758.4,533.4z"/>
<path class="st9" d="M770,533.4h-1.6v-5.8c0-2.2-0.8-3.2-2.3-3.2c-0.8,0-1.5,0.3-2,0.9c-0.6,0.6-0.8,1.4-0.8,2.3v5.8h-1.6v-10.1h1.6
	v1.7l0,0c0.6-1.2,1.9-1.9,3.3-1.9c1-0.1,1.9,0.3,2.6,1c0.6,0.9,1,2,0.9,3.1L770,533.4z"/>
<path class="st9" d="M781.7,533.4h-1.6v-1.8l0,0c-0.7,1.3-2,2-3.4,1.9c-1.2,0.1-2.3-0.5-3-1.4c-0.8-1-1.2-2.4-1.1-3.7
	c-0.1-1.4,0.4-2.9,1.3-4c0.8-1,2.1-1.5,3.4-1.5c1.3-0.1,2.4,0.6,3,1.6l0,0v-6.2h1.6L781.7,533.4z M780.1,528.9v-1.5
	c0-0.8-0.2-1.5-0.8-2.1s-1.3-0.9-2.1-0.9c-0.9,0-1.8,0.4-2.3,1.1c-0.6,0.9-0.9,1.9-0.9,3c-0.1,1,0.2,2,0.8,2.8c0.6,0.6,1.4,1,2.2,1
	c0.9,0,1.7-0.3,2.2-1C779.9,530.6,780.1,529.7,780.1,528.9L780.1,528.9z"/>
<path class="st9" d="M801.3,532.5c-1.4,0.8-3,1.2-4.7,1.2c-1.8,0.1-3.6-0.6-4.9-1.9c-1.3-1.4-1.9-3.3-1.8-5.2
	c-0.1-2,0.7-3.9,2.1-5.4c1.4-1.4,3.3-2.2,5.3-2.1c1.4-0.1,2.6,0.2,3.8,0.7v1.8c-1.2-0.7-2.6-1.1-4.1-1.1c-1.4-0.1-2.9,0.6-3.9,1.6
	c-2,2.5-2,5.9-0.1,8.5c1,1,2.4,1.6,3.8,1.5c1,0,2-0.2,2.9-0.6v-4h-3.1v-1.4h4.7V532.5z"/>
<path class="st9" d="M808.6,533.7c-1.4,0.1-2.6-0.5-3.6-1.4c-1-1-1.4-2.4-1.4-3.8c-0.1-1.4,0.4-2.9,1.4-4c1-1,2.3-1.5,3.8-1.4
	c1.4-0.1,2.6,0.4,3.5,1.4s1.4,2.5,1.3,3.8c0.1,1.4-0.4,2.8-1.4,3.8C811.3,533.2,810,533.8,808.6,533.7z M808.8,524.5
	c-1-0.1-1.8,0.3-2.5,1c-0.6,0.8-1,1.8-0.9,3c-0.1,1,0.2,2,1,2.8c0.6,0.7,1.5,1,2.5,1c0.9,0.1,1.8-0.3,2.4-1c0.6-0.8,0.9-1.8,0.8-2.9
	c0.1-1-0.2-2.1-0.8-3C810.5,524.8,809.7,524.4,808.8,524.5L808.8,524.5z"/>
<path class="st9" d="M820.5,533.7c-1.4,0.1-2.6-0.5-3.6-1.4c-1-1-1.4-2.4-1.4-3.8c-0.1-1.4,0.4-2.9,1.4-4c1-1,2.3-1.5,3.8-1.4
	c1.4-0.1,2.6,0.4,3.5,1.4s1.4,2.5,1.3,3.8c0.1,1.4-0.4,2.8-1.4,3.8C823.2,533.2,821.8,533.8,820.5,533.7z M820.6,524.5
	c-1-0.1-1.8,0.3-2.5,1c-0.6,0.8-1,1.8-0.9,3c-0.1,1,0.2,2,1,2.8c0.6,0.7,1.5,1,2.5,1c0.9,0.1,1.8-0.3,2.4-1c0.6-0.8,0.9-1.8,0.8-2.9
	c0.1-1-0.2-2.1-0.8-3C822.4,524.8,821.5,524.4,820.6,524.5z"/>
<path class="st9" d="M836.7,532.6c0,3.8-1.8,5.6-5.4,5.6c-1.1,0-2.2-0.2-3.3-0.7v-1.6c1,0.6,2.1,0.9,3.3,1c2.5,0,3.8-1.4,3.8-4v-1.1
	l0,0c-1.2,1.9-3.7,2.5-5.6,1.3c-0.3-0.2-0.6-0.5-0.9-0.7c-0.8-1-1.2-2.3-1.1-3.6c-0.1-1.4,0.3-2.9,1.2-4.1c0.8-1,2.1-1.6,3.4-1.5
	c1.2-0.1,2.4,0.6,3,1.6l0,0v-1.4h1.6V532.6z M835.1,528.9v-1.5c0-0.8-0.2-1.5-0.8-2.1s-1.3-0.9-2-0.9c-0.9-0.1-1.8,0.4-2.3,1.1
	c-0.6,0.9-0.9,2-0.9,3c-0.1,1,0.2,1.9,0.8,2.7c0.5,0.6,1.4,1,2.2,1s1.7-0.3,2.2-1C834.8,530.6,835.1,529.7,835.1,528.9L835.1,528.9z
	"/>
<path class="st9" d="M841.6,533.4H840v-15h1.6V533.4z"/>
<path class="st9" d="M853,528.8h-7.1c0,1,0.3,1.8,0.9,2.6c0.6,0.6,1.5,1,2.4,1c1.1,0,2.2-0.4,3.1-1.1v1.5c-1,0.7-2.2,1-3.5,1
	c-1.3,0.1-2.5-0.4-3.4-1.4c-0.9-1.1-1.3-2.5-1.2-3.8c-0.1-1.4,0.4-2.8,1.4-3.8c0.8-1,2.1-1.5,3.4-1.5c1.2-0.1,2.3,0.4,3,1.3
	c0.8,1,1.2,2.3,1.1,3.6L853,528.8z M851.4,527.4c0.1-0.8-0.2-1.6-0.6-2.2s-1.1-0.8-1.8-0.8s-1.4,0.2-1.9,0.8c-0.6,0.6-0.9,1.4-1,2.2
	H851.4z"/>
<path class="st9" d="M862.8,528.1v5.4h-1.7v-14.2h3.8c1.3-0.1,2.6,0.3,3.5,1.1s1.3,1.9,1.3,3.1c0,1.3-0.5,2.5-1.4,3.3
	c-1,0.9-2.4,1.4-3.8,1.3L862.8,528.1L862.8,528.1z M862.8,520.8v5.8h1.8c1,0.1,1.8-0.2,2.6-0.8c0.6-0.6,1-1.4,0.9-2.2
	c0-1.8-1.1-2.8-3.3-2.8H862.8z"/>
<path class="st9" d="M873.9,533.4h-1.6v-15h1.6V533.4z"/>
<path class="st9" d="M884.4,533.4h-1.6v-1.6l0,0c-0.6,1.1-1.8,1.8-3.1,1.8c-0.9,0.1-1.8-0.2-2.4-0.8c-0.6-0.6-0.9-1.4-0.9-2.2
	c0-1.8,1.1-3,3.4-3.3l3-0.4c0-1.8-0.7-2.6-2.1-2.6c-1.2,0-2.4,0.4-3.3,1.2V524c1-0.6,2.2-1,3.4-1c2.4,0,3.6,1.3,3.6,3.8L884.4,533.4
	z M882.8,528.3l-2.4,0.3c-0.6,0.1-1.2,0.2-1.7,0.6c-0.4,0.3-0.6,0.9-0.6,1.4s0.2,0.9,0.6,1.2c0.4,0.3,0.9,0.5,1.4,0.5
	c0.7,0,1.4-0.2,2-0.8s0.8-1.4,0.8-2.2L882.8,528.3z"/>
<path class="st9" d="M895.5,523.3l-4.6,11.7c-0.8,2.1-2,3.1-3.5,3.1c-0.3,0-0.7,0-1-0.2v-1.4c0.3,0.1,0.6,0.2,1,0.2
	c0.9,0,1.6-0.6,1.8-1.4l0.8-1.9l-3.9-10.1h1.8l2.7,7.8c0,0.1,0.1,0.3,0.2,0.8h0.1c0-0.2,0.1-0.4,0.2-0.7l2.9-7.8L895.5,523.3
	L895.5,523.3z"/>
<rect x="463.1" y="96" class="st19" width="0" height="20.8"/>
<g>
	<g>
		<polygon id="XMLID_3_" class="st20" points="825.5,121.7 845.6,130 867.3,130 882.7,145.4 902.8,153.7 911.1,173.8 926.6,189.2 
			926.6,211 934.9,231.1 926.6,251.2 926.6,273 911.1,288.4 902.8,308.5 882.7,316.8 867.3,332.2 845.6,332.2 825.5,340.6 
			805.3,332.2 783.6,332.2 768.2,316.8 748.1,308.5 739.7,288.4 724.4,273 724.4,251.2 716,231.1 724.4,211 724.4,189.2 
			739.7,173.8 748.1,153.7 768.2,145.4 783.6,130 805.3,130 		"/>
	</g>
	<g>
		<g>
			<g>
				<g>
					<g>
						<defs>
							<polygon id="SVGID_5_" points="825.5,121.7 845.6,130 867.3,130 882.7,145.4 902.8,153.7 911.1,173.8 926.6,189.2 926.6,211 
								934.9,231.1 926.6,251.2 926.6,273 911.1,288.4 902.8,308.5 882.7,316.8 867.3,332.2 845.6,332.2 825.5,340.6 805.3,332.2 
								783.6,332.2 768.2,316.8 748.1,308.5 739.7,288.4 724.4,273 724.4,251.2 716,231.1 724.4,211 724.4,189.2 739.7,173.8 
								748.1,153.7 768.2,145.4 783.6,130 805.3,130 							"/>
						</defs>
						<clipPath id="SVGID_6_">
							<use xlink:href="#SVGID_5_"  style="overflow:visible;"/>
						</clipPath>
						<polygon class="st21" points="561.8,-11.6 723.7,356 889.4,65.5 						"/>
					</g>
				</g>
			</g>
		</g>
	</g>
</g>
<g>
	<path d="M805.7,197.2c0,2.4-0.6,4.2-1.9,5.6c-1.3,1.4-3,2-5.1,2c-1,0-1.8-0.1-2.5-0.3v-3.1c0.6,0.4,1.4,0.6,2.2,0.6
		c2.4,0,3.7-1.8,3.7-5.2v-12.4h3.7L805.7,197.2L805.7,197.2z"/>
	<path d="M823.8,198h-10.7c0.1,1.4,0.5,2.3,1.4,3s2,1.1,3.5,1.1c1.7,0,3.2-0.5,4.6-1.4v2.6c-1.4,0.8-3.3,1.2-5.7,1.2
		c-2.3,0-4.1-0.6-5.4-2c-1.4-1.4-2-3.1-2-5.5c0-2.2,0.7-4.1,2.2-5.4c1.4-1.4,3.2-2.1,5.4-2.1s3.8,0.6,5,1.9s1.8,3,1.8,5.3L823.8,198
		L823.8,198z M820.4,195.7c0-1.2-0.3-2.1-0.9-2.7c-0.6-0.6-1.4-1-2.5-1c-1,0-1.9,0.3-2.6,1c-0.7,0.7-1.1,1.6-1.3,2.7H820.4
		L820.4,195.7L820.4,195.7z"/>
	<path d="M835.5,204.2c-0.7,0.3-1.6,0.5-2.7,0.5c-3,0-4.6-1.4-4.6-4v-8.2h-2.6V190h2.6v-3.4l3.5-1v4.2h3.8v2.6h-3.8v7.2
		c0,0.9,0.2,1.4,0.5,1.8c0.3,0.4,0.9,0.6,1.7,0.6c0.6,0,1.1-0.2,1.6-0.5V204.2L835.5,204.2z"/>
	<path d="M850.2,191.3l-8.5,10.5h8.4v2.6h-13.5v-1.2l8.6-10.6h-7.8V190H850L850.2,191.3L850.2,191.3z"/>
	<path d="M861.4,204.2c-0.7,0.3-1.6,0.5-2.7,0.5c-3,0-4.6-1.4-4.6-4v-8.2h-2.6V190h2.6v-3.4l3.5-1v4.2h3.8v2.6h-3.8v7.2
		c0,0.9,0.2,1.4,0.5,1.8c0.3,0.4,0.9,0.6,1.7,0.6c0.6,0,1.1-0.2,1.6-0.5V204.2L861.4,204.2z"/>
	<path d="M763.6,231.7v7.3H760v-20.2h6.6c2.6,0,4.5,0.6,5.8,1.6s2.1,2.6,2.1,4.6s-0.7,3.6-2.2,4.8c-1.4,1.2-3.4,1.8-5.8,1.8
		L763.6,231.7L763.6,231.7L763.6,231.7z M763.6,221.5v7.4h2.3c1.6,0,2.7-0.3,3.6-1s1.2-1.6,1.2-2.8c0-2.4-1.5-3.5-4.5-3.5
		L763.6,221.5L763.6,221.5L763.6,221.5z"/>
	<path d="M795.3,239h-4.2l-3.5-5.4c-0.3-0.5-0.6-1-1-1.3c-0.3-0.3-0.6-0.6-0.9-0.9c-0.3-0.2-0.6-0.4-1-0.5s-0.8-0.2-1.3-0.2H782v8.2
		h-3.6v-20.2h7.2c1,0,2,0.1,2.9,0.3s1.6,0.6,2.2,1c0.6,0.5,1.1,1,1.5,1.7c0.4,0.6,0.6,1.4,0.6,2.4c0,0.7-0.1,1.4-0.3,2
		s-0.6,1.1-1,1.6s-1,0.9-1.5,1.2c-0.6,0.3-1.3,0.6-2,0.7v0.1c0.4,0.2,0.7,0.4,1,0.7c0.3,0.2,0.6,0.5,0.9,0.8
		c0.2,0.2,0.6,0.6,0.8,0.9s0.6,0.7,0.9,1.2L795.3,239z M782,221.5v6.6h3c0.6,0,1-0.1,1.5-0.2c0.5-0.2,0.9-0.4,1.2-0.7
		s0.6-0.6,0.8-1.1c0.2-0.4,0.3-0.9,0.3-1.4c0-1-0.3-1.8-1-2.2c-0.6-0.5-1.6-0.8-2.9-0.8L782,221.5L782,221.5z"/>
	<path d="M810.2,239h-12.3v-20.2h11.8v2.9h-8.2v5.7h7.5v2.8h-7.5v6h8.6v2.8H810.2z"/>
	<path d="M837.8,239h-3.6v-13.1c0-1,0.1-2.4,0.2-3.9h-0.2c-0.2,0.9-0.4,1.5-0.6,1.9L827,239h-2.5l-6.6-15c-0.2-0.5-0.4-1.1-0.6-2
		h-0.1c0.1,0.8,0.2,2.2,0.2,3.9V239H814v-20.2h5.1l5.8,13.5c0.4,1,0.7,1.8,0.9,2.3h0.1c0.4-1,0.7-1.8,0.9-2.4l5.8-13.4h5L837.8,239
		L837.8,239z"/>
	<path d="M846.9,239h-3.8v-20.2h3.8V239z"/>
	<path d="M869.2,230.8c0,5.7-2.9,8.5-8.7,8.5c-5.6,0-8.4-2.7-8.4-8.2v-12.3h3.7v11.7c0,3.9,1.7,5.9,5,5.9c3.2,0,4.8-1.9,4.8-5.8
		v-11.8h3.7L869.2,230.8L869.2,230.8z"/>
	<path d="M898,239h-3.7v-13.1c0-1,0.1-2.4,0.2-3.9h-0.1c-0.2,0.9-0.4,1.5-0.6,1.9l-6.6,15.1h-2.5l-6.6-15c-0.2-0.5-0.4-1.1-0.6-2
		h-0.1c0.1,0.8,0.2,2.2,0.2,3.9V239h-3.4v-20.2h5.1l5.8,13.5c0.4,1,0.7,1.8,0.9,2.3h0.1c0.4-1,0.7-1.8,0.9-2.4l5.8-13.4h5V239H898z"
		/>
	<path d="M766,271.5L766,271.5l-0.1,2.1h-3.5v-21.3h3.5v9.4h0.1c1.2-1.9,3-2.9,5.4-2.9c2,0,3.5,0.6,4.6,1.9s1.7,3,1.7,5.2
		c0,2.4-0.6,4.3-1.9,5.8c-1.3,1.4-3,2.2-5.1,2.2C768.6,273.9,767,273.1,766,271.5z M765.9,265.8v1.8c0,1,0.4,1.9,1.1,2.6
		c0.7,0.7,1.7,1.1,2.8,1.1c1.3,0,2.3-0.5,3.1-1.4c0.8-1,1.1-2.2,1.1-3.9c0-1.4-0.3-2.6-1-3.4s-1.7-1.2-2.8-1.2c-1.3,0-2.3,0.4-3,1.2
		C766.3,263.5,765.9,264.5,765.9,265.8z"/>
	<path d="M794.5,267.2h-10.7c0.1,1.4,0.5,2.3,1.4,3s2,1.1,3.5,1.1c1.7,0,3.2-0.5,4.6-1.4v2.6c-1.4,0.8-3.3,1.2-5.7,1.2
		c-2.3,0-4.1-0.6-5.4-2c-1.4-1.4-2-3.1-2-5.5c0-2.2,0.7-4.1,2.2-5.4c1.4-1.4,3.2-2.1,5.4-2.1s3.8,0.6,5,1.9c1.1,1.3,1.8,3,1.8,5.3
		L794.5,267.2L794.5,267.2z M791.1,264.9c0-1.2-0.3-2.1-0.9-2.7c-0.6-0.6-1.4-1-2.5-1c-1,0-1.9,0.3-2.6,1c-0.7,0.7-1.1,1.6-1.3,2.7
		H791.1L791.1,264.9z"/>
	<path d="M796.9,273.1v-3c1.4,1,2.8,1.4,4.4,1.4c2.2,0,3.2-0.6,3.2-1.8c0-0.3-0.1-0.6-0.2-0.8c-0.2-0.2-0.4-0.4-0.7-0.6
		s-0.6-0.3-1.1-0.5s-0.9-0.3-1.4-0.5c-0.6-0.2-1.2-0.5-1.8-0.7c-0.5-0.2-1-0.6-1.3-0.9s-0.6-0.7-0.8-1.1s-0.2-0.9-0.2-1.4
		c0-0.7,0.2-1.3,0.6-1.8c0.3-0.6,0.8-1,1.4-1.4c0.6-0.4,1.3-0.6,2.1-0.8c0.8-0.2,1.5-0.2,2.4-0.2c1.4,0,2.7,0.2,3.9,0.6v2.9
		c-1.1-0.7-2.4-1-3.8-1c-0.5,0-0.9,0.1-1.2,0.2c-0.4,0.1-0.6,0.2-1,0.3c-0.2,0.2-0.5,0.3-0.6,0.6s-0.2,0.5-0.2,0.7
		c0,0.3,0.1,0.6,0.2,0.8c0.2,0.2,0.3,0.4,0.6,0.6s0.6,0.3,1,0.5s0.9,0.3,1.4,0.5c0.6,0.2,1.3,0.5,1.8,0.8c0.6,0.3,1,0.6,1.4,0.9
		s0.6,0.7,0.9,1.1c0.2,0.4,0.3,1,0.3,1.5c0,0.7-0.2,1.4-0.6,1.9c-0.4,0.6-0.9,1-1.4,1.4c-0.6,0.4-1.3,0.6-2.2,0.8
		c-0.8,0.2-1.7,0.2-2.6,0.2C799.7,273.9,798.2,273.6,796.9,273.1z"/>
	<path d="M819.8,273.4c-0.7,0.3-1.6,0.5-2.7,0.5c-3,0-4.6-1.4-4.6-4v-8.2h-2.6v-2.6h2.6v-3.4l3.5-1v4.2h3.8v2.6H816v7.2
		c0,0.9,0.2,1.4,0.5,1.8s0.9,0.6,1.7,0.6c0.6,0,1.1-0.2,1.6-0.5V273.4L819.8,273.4z"/>
	<path d="M835.9,267.2h-10.7c0.1,1.4,0.5,2.3,1.4,3s2,1.1,3.5,1.1c1.7,0,3.2-0.5,4.6-1.4v2.6c-1.4,0.8-3.3,1.2-5.7,1.2
		c-2.3,0-4.1-0.6-5.4-2c-1.4-1.4-2-3.1-2-5.5c0-2.2,0.7-4.1,2.2-5.4c1.4-1.4,3.2-2.1,5.4-2.1s3.8,0.6,5,1.9s1.8,3,1.8,5.3
		L835.9,267.2L835.9,267.2z M832.5,264.9c0-1.2-0.3-2.1-0.9-2.7c-0.6-0.6-1.4-1-2.5-1c-1,0-1.9,0.3-2.6,1c-0.7,0.7-1.1,1.6-1.3,2.7
		H832.5L832.5,264.9z"/>
	<path d="M842.9,273.5h-3.6v-21.3h3.6V273.5z"/>
	<path d="M851.1,273.5h-3.6v-21.3h3.6V273.5z"/>
	<path d="M869,267.2h-10.7c0.1,1.4,0.5,2.3,1.4,3s2,1.1,3.5,1.1c1.7,0,3.2-0.5,4.6-1.4v2.6c-1.4,0.8-3.3,1.2-5.7,1.2
		c-2.3,0-4.1-0.6-5.4-2c-1.4-1.4-2-3.1-2-5.5c0-2.2,0.7-4.1,2.2-5.4c1.4-1.4,3.2-2.1,5.4-2.1s3.8,0.6,5,1.9c1.1,1.3,1.8,3,1.8,5.3
		L869,267.2L869,267.2z M865.5,264.9c0-1.2-0.3-2.1-0.9-2.7c-0.6-0.6-1.4-1-2.5-1c-1,0-1.9,0.3-2.6,1c-0.7,0.7-1.1,1.6-1.3,2.7
		H865.5L865.5,264.9z"/>
	<path d="M886.4,273.5h-3.5v-8.1c0-2.7-1-4-3.1-4c-1.1,0-2,0.4-2.6,1.1c-0.7,0.7-1,1.7-1,2.8v8.2h-3.6v-14.4h3.6v2.4h0.1
		c1.2-1.8,2.9-2.7,5.1-2.7c1.7,0,3,0.5,3.9,1.5s1.4,2.5,1.4,4.4v8.7h-0.3L886.4,273.5L886.4,273.5z"/>
	<path d="M893.1,273.9c-0.6,0-1.1-0.2-1.6-0.6c-0.4-0.4-0.6-0.8-0.6-1.3c0-0.6,0.2-1,0.6-1.4c0.4-0.4,1-0.6,1.6-0.6s1.1,0.2,1.5,0.6
		s0.6,0.8,0.6,1.4c0,0.5-0.2,1-0.6,1.3C894.2,273.6,893.7,273.9,893.1,273.9z M894.9,253.4l-0.3,14.3h-2.9l-0.4-14.3L894.9,253.4
		L894.9,253.4z"/>
</g>
<g>
	<path class="st9" d="M772.7,458.7c-7.6,0-13.5-3.1-17.8-9.3c-4.2-6.2-6.4-15.1-6.4-26.9c0-12.9,2.2-22.6,6.6-29.2
		c4.4-6.6,10.8-9.9,19.2-9.9c16,0,24,12.5,24,37.4c0,12.3-2.2,21.8-6.8,28.3S780.8,458.7,772.7,458.7z M773.9,392.8
		c-8.9,0-13.3,9.8-13.3,29.2c0,18.3,4.3,27.4,13.1,27.4c8.6,0,12.8-9.3,12.8-27.8C786.4,402.3,782.2,392.7,773.9,392.8L773.9,392.8z
		"/>
	<path class="st9" d="M822.2,410.5c-1.2,0.7-2.6,1-4,1c-4,0-6.4-2.4-7.1-7h-1.7v-2h1.5c-0.1-0.3-0.1-0.7-0.1-1c0-0.5,0-1,0.1-1.5
		h-1.5v-2h1.8c0.3-2,1.3-3.8,2.7-5.3c1.3-1.3,3-1.9,4.8-1.9c1.2,0,2.4,0.2,3.4,0.8v2.2c-1-0.7-2.3-1.1-3.6-1.1
		c-1.2,0-2.3,0.6-3.1,1.4c-1,1-1.6,2.4-1.9,3.8h7v2h-7.3c-0.1,0.9-0.1,1.8,0,2.6h7.3v2h-7c0.6,3.4,2.3,5.1,4.9,5.1
		c1.4-0.1,2.7-0.5,3.8-1.3L822.2,410.5L822.2,410.5z"/>
	<path class="st9" d="M817.1,432.2l-10.8,26.3h-2.4l10.8-26.3H817.1z"/>
	<path class="st9" d="M851.6,454.7H849v-15.1c0-1.2,0.1-2.6,0.2-4.4h-0.1c-0.2,0.7-0.4,1.4-0.6,2.2l-7.7,17.3h-1.3l-7.6-17.2
		c-0.3-0.7-0.6-1.5-0.6-2.3H831c0.1,0.9,0.2,2.4,0.2,4.4v15.1h-2.6V432h3.5l6.9,15.7c0.4,0.9,0.7,1.8,1,2.7h0.1
		c0.5-1.2,0.8-2.2,1.1-2.8l7-15.6h3.3L851.6,454.7z"/>
	<path class="st9" d="M863.9,455.1c-2.2,0.1-4.2-0.7-5.7-2.2c-1.4-1.6-2.2-3.8-2.2-6c0-2.7,0.7-4.8,2.2-6.3c1.6-1.5,3.8-2.4,6-2.2
		c2.1-0.1,4.2,0.7,5.6,2.2c1.4,1.4,2,3.5,2,6.2c0.1,2.2-0.6,4.5-2.2,6.2C868.2,454.3,866.1,455.1,863.9,455.1z M864.1,440.4
		c-1.5-0.1-3,0.6-3.9,1.7c-1,1.4-1.5,3-1.4,4.6c-0.1,1.6,0.4,3.3,1.4,4.5c1,1.1,2.4,1.7,3.9,1.7c1.4,0.1,2.9-0.5,3.8-1.6
		c1-1.4,1.4-3,1.4-4.6c0.1-1.7-0.4-3.3-1.4-4.6C867,440.9,865.5,440.3,864.1,440.4z"/>
	<path class="st9" d="M889.4,454.7h-2.6v-9.2c0-3.4-1.2-5.1-3.8-5.1c-1.2,0-2.4,0.5-3.2,1.4c-0.9,1-1.3,2.3-1.3,3.7v9.2H876v-16.1
		h2.6v2.6h0.1c1-1.9,3-3.1,5.3-3c1.5-0.1,3,0.6,4,1.7c1,1.4,1.5,3.2,1.4,5L889.4,454.7z"/>
	<path class="st9" d="M905.7,454.7h-2.6v-2.5H903c-1,1.8-2.9,3-5,2.9c-1.4,0.1-2.7-0.4-3.8-1.3c-0.9-0.9-1.4-2.1-1.4-3.4
		c0-3,1.8-4.7,5.3-5.3l4.8-0.6c0-2.7-1.1-4.1-3.3-4.1c-1.9,0-3.8,0.7-5.2,2v-2.6c1.6-1,3.5-1.5,5.4-1.5c3.8,0,5.7,2,5.7,6
		L905.7,454.7z M903.2,446.6l-3.8,0.6c-1,0.1-1.8,0.4-2.7,0.9c-0.6,0.6-1,1.4-0.9,2.2c0,0.7,0.2,1.4,0.8,1.9
		c0.6,0.6,1.4,0.8,2.2,0.7c1.2,0,2.3-0.5,3.2-1.4c0.9-1,1.3-2.2,1.3-3.4L903.2,446.6z"/>
	<path class="st9" d="M918.1,454.5c-0.7,0.4-1.6,0.6-2.4,0.5c-2.8,0-4.2-1.6-4.2-4.7v-9.5h-2.7v-2.2h2.8v-3.9l2.6-0.8v4.8h4.1v2.2
		h-4.1v9c-0.1,0.8,0.2,1.6,0.6,2.3c0.5,0.5,1.1,0.8,1.8,0.7c0.6,0,1.2-0.2,1.7-0.6L918.1,454.5z"/>
	<g>
		<path class="st9" d="M733.3,456.3h-2.5l-1.2-3.4h-5.3l-1.2,3.4h-2.4l5-13.5h2.5L733.3,456.3z M729,451l-1.8-5.4
			c-0.1-0.2-0.1-0.5-0.2-0.9l0,0c-0.1,0.3-0.1,0.6-0.2,0.9L725,451H729z"/>
		<path class="st9" d="M737,455L737,455v1.4h-2.2v-14.3h2.2v6.3l0,0c0.7-1.3,1.8-1.9,3.3-1.9c1.2,0,2.2,0.4,2.9,1.3s1,2,1,3.4
			c0,1.6-0.4,2.9-1.1,3.8s-1.8,1.4-3.1,1.4C738.6,456.6,737.7,456,737,455z M737,451.1v1.2c0,0.7,0.2,1.3,0.6,1.8s1,0.7,1.7,0.7
			c0.8,0,1.4-0.3,1.9-1s0.7-1.5,0.7-2.6c0-1-0.2-1.7-0.6-2.2c-0.4-0.6-1-0.8-1.8-0.8s-1.4,0.2-1.8,0.8S737,450.3,737,451.1z"/>
	</g>
</g>
<g>
	<g>
		<g>
			<g>
				<g>
					<g>
						<g>
							<g>
								<g class="st22">
									<g>
										<polygon class="st23" points="80,462.7 80,624.8 1.8,581.4 1.8,419.4 										"/>
									</g>
									<g>
										<polygon class="st24" points="228.3,441.6 80,462.7 1.8,419.4 149.7,398.3 										"/>
									</g>
									<g>
										<path class="st15" d="M228.3,441.6v118.9c0,23.8-18.2,45.6-39.9,48.7L80,624.7v-162L228.3,441.6z"/>
									</g>
								</g>
							</g>
						</g>
					</g>
				</g>
			</g>
		</g>
	</g>
	<g>
		<g class="st22">
			<g>
				<polygon class="st24" points="147.6,574.7 143.5,572.4 194.9,509 199,511.2 				"/>
			</g>
			<g>
				<polygon class="st23" points="181.4,507.8 177.2,505.6 177.4,486.6 181.5,488.8 				"/>
			</g>
			<g>
				<polygon class="st24" points="146.7,550.2 142.6,548 177.2,505.6 181.4,507.8 				"/>
			</g>
			<g>
				<polygon class="st23" points="147.6,591.2 143.5,588.9 118.2,565.5 122.4,567.7 				"/>
			</g>
			<g>
				<polygon class="st23" points="122.4,567.7 118.2,565.5 118.2,549.7 122.4,551.9 				"/>
			</g>
			<g>
				<polygon class="st9" points="199,511.2 199,527.2 147.6,591.2 122.4,567.7 122.4,551.9 147.6,574.7 				"/>
			</g>
			<g>
				<polygon class="st23" points="146.8,562.3 142.7,560.1 121.2,539.8 125.4,542.1 				"/>
			</g>
			<path class="st24" d="M152.4,517.4c-1.1-0.5-4.4-2.8-5.4-2.5l-18.4,2.6l4.1,2.2l18.4-2.6C151.6,517.1,152,517.2,152.4,517.4z"/>
			<path class="st24" d="M160.6,501.3c-1.2-0.5-4.4-2.8-5.4-2.5l-26.6,3.7l4.1,2.2l26.6-3.7C159.8,501,160.2,501.1,160.6,501.3z"/>
			<g>
				<path class="st9" d="M125.5,489.5l63.9-9.1l-0.1,30l-42.5,52l-21.5-20.3L125.5,489.5z M181.4,507.8l0.1-19l-48.8,6.9v9.1
					l26.6-3.7c1.3-0.2,2.4,0.8,2.4,2.3c0,1.4-1.1,2.8-2.4,3l-26.6,3.7v9.8l18.4-2.6c1.3-0.2,2.4,0.9,2.4,2.3c0,1.4-1.1,2.8-2.4,3
					l-18.4,2.6v12l14.1,13.2L181.4,507.8"/>
			</g>
			<g>
				<polygon class="st23" points="125.4,542.1 121.2,539.8 121.3,487.2 125.5,489.5 				"/>
			</g>
			<g>
				<polygon class="st24" points="125.5,489.5 121.3,487.2 185.2,478.1 189.4,480.4 				"/>
			</g>
		</g>
	</g>
	<g>
		<g class="st22">
			<g>
				<polygon class="st15" points="26.3,535.4 35.3,534.7 35,569.7 26,570.4 				"/>
			</g>
			<g>
				<polygon class="st15" points="26.6,465.7 35.6,464.9 35.2,531.6 26.2,532.4 				"/>
			</g>
			<g>
				<polygon class="st24" points="15.7,459.4 24.7,458.7 35.6,464.9 26.6,465.7 				"/>
			</g>
			<g>
				<polygon class="st15" points="37.1,539.2 46.1,538.4 59.4,583.7 50.4,584.5 				"/>
			</g>
			<g>
				<polygon class="st15" points="49.9,513.2 58.9,512.4 46.1,538.4 37.1,539.2 				"/>
			</g>
			<g>
				<polygon class="st24" points="37,505.8 46,505 58.9,512.4 49.9,513.2 				"/>
			</g>
			<g>
				<polygon class="st9" points="26.6,465.7 26.2,532.4 37,505.8 49.9,513.2 37.1,539.2 50.4,584.5 37.4,577 26.3,535.4 26,570.4 
					15.2,564.2 15.7,459.4 				"/>
			</g>
		</g>
	</g>
</g>
</svg>
