<svg xmlns="http://www.w3.org/2000/svg" viewBox="0 0 75 75"><defs><style>.cls-1{fill:#e95653;}.cls-2{fill:#b0565f;}.cls-3{fill:#f9d2d1;}.cls-4{fill:none;stroke-width:0.48px;}.cls-4,.cls-5{stroke:#e95653;}.cls-4,.cls-5,.cls-7{stroke-miterlimit:10;}.cls-5{fill:#f8f9fa;stroke-width:0.09px;}.cls-6{fill:#788287;}.cls-7,.cls-8{fill:#fff;}.cls-7{stroke:#e11e19;stroke-width:0.08px;}.cls-8{opacity:0.4;}</style></defs><title>individuell-kApp-icon</title><g id="Layer_2" data-name="Layer 2"><g id="Layer_1-2" data-name="Layer 1"><circle class="cls-1" cx="37.5" cy="37.5" r="37.5"/><path class="cls-2" d="M75,37.5a37.6,37.6,0,0,0-.43-5.66C66.56,25.38,40.81,9.72,39,9c-4.32,18.25-.87,42.05-9.51,32C22,44,25.06,65.78,24,66c5.74,2.65,6.76,2.94,13.76,9A37.49,37.49,0,0,0,75,37.5Z"/><rect class="cls-3" x="14.7" y="23.83" width="0.65" height="3.77" rx="0.32" transform="translate(-4.77 3.46) rotate(-11.36)"/><rect class="cls-3" x="15.87" y="28.8" width="0.65" height="5.55" rx="0.32" transform="translate(-5.9 3.81) rotate(-11.36)"/><rect class="cls-3" x="17.18" y="35.31" width="0.65" height="5.55" rx="0.32" transform="translate(-7.16 4.19) rotate(-11.36)"/><rect class="cls-3" x="45.16" y="24.34" width="0.65" height="9.43" rx="0.32" transform="translate(-4.83 9.53) rotate(-11.36)"/><rect class="cls-4" x="18.15" y="9.19" width="28.99" height="59.81" rx="3.92" transform="translate(-7.06 7.2) rotate(-11.36)"/><rect class="cls-3" x="18.15" y="9.19" width="28.99" height="59.81" rx="3.92" transform="translate(-7.06 7.2) rotate(-11.36)"/><rect class="cls-5" x="18.69" y="9.92" width="27.7" height="58.06" rx="3.73" transform="translate(-7.04 7.17) rotate(-11.36)"/><path class="cls-3" d="M33.94,8.91l.16.82A1.07,1.07,0,0,1,33.26,11L21.15,13.42a1.07,1.07,0,0,1-1.26-.83l-.17-.83"/><line class="cls-6" x1="24.42" y1="11.53" x2="29.29" y2="10.55"/><path class="cls-3" d="M29.31,10.68l-4.86,1a.14.14,0,0,1-.16-.1.14.14,0,0,1,.11-.16l4.86-1a.13.13,0,0,1,.15.11A.12.12,0,0,1,29.31,10.68Z"/><circle class="cls-7" cx="30.39" cy="10.33" r="0.4"/><path class="cls-7" d="M30.48,10.78a.46.46,0,1,1-.18-.9.46.46,0,1,1,.18.9ZM30.32,10a.35.35,0,1,0,.4.27A.34.34,0,0,0,30.32,10Z"/><path class="cls-1" d="M29,23.64a5.86,5.86,0,1,0,6.9,4.59A5.86,5.86,0,0,0,29,23.64Zm5,9.72-3.4-1.56-2.53,2.75.43-3.72-3.4-1.56,3.67-.73.43-3.72,1.83,3.26,3.67-.73L32.23,30.1Z"/><path class="cls-8" d="M24,68.29,13.78,17A4.07,4.07,0,0,1,17,12.2L28.16,10"/><path class="cls-1" d="M36.88,57s0,0-.05,0a1.68,1.68,0,0,0-.86-.35,1.54,1.54,0,0,0-1,.2.08.08,0,0,1-.11,0,.09.09,0,0,1,0-.12,1.83,1.83,0,0,1,2,.17A.09.09,0,0,1,37,57,.09.09,0,0,1,36.88,57Z"/><path class="cls-1" d="M37.52,58.2a.1.1,0,0,1-.08-.05,1.68,1.68,0,0,0-3-.14.09.09,0,0,1-.12,0,.08.08,0,0,1,0-.11,1.82,1.82,0,0,1,1.84-1,1.85,1.85,0,0,1,1.52,1.13.09.09,0,0,1-.05.11Z"/><path class="cls-1" d="M35,60l-.06,0a1.31,1.31,0,0,1,1.55-2,1.37,1.37,0,0,1,.66,1.16.09.09,0,0,1-.08.09h0A.08.08,0,0,1,37,59.1a1.26,1.26,0,0,0-.57-1,1.1,1.1,0,0,0-1.47.5A1.08,1.08,0,0,0,35,59.85.08.08,0,0,1,35,60Z"/><path class="cls-1" d="M36.13,60.4h0a1.17,1.17,0,0,1-1-1.63,1,1,0,0,1,.56-.46.64.64,0,0,1,.53,0c.32.19.43.41.48,1a.24.24,0,0,0,.16.2.61.61,0,0,0,.51-.15.87.87,0,0,0,.07-.69,1.88,1.88,0,0,0-.93-1,1.55,1.55,0,0,0-1-.11,1.23,1.23,0,0,0-.86.68,1.13,1.13,0,0,0-.12.51.08.08,0,0,1-.08.08h0a.09.09,0,0,1-.08-.08,1.29,1.29,0,0,1,.13-.58,1.42,1.42,0,0,1,1-.78,1.8,1.8,0,0,1,1.12.13,2.06,2.06,0,0,1,1,1.14,1,1,0,0,1-.1.83v0a.77.77,0,0,1-.68.2.41.41,0,0,1-.27-.33h0c-.05-.59-.15-.74-.4-.89a.54.54,0,0,0-.4,0,.76.76,0,0,0-.46.38,1.07,1.07,0,0,0,0,.84,1.09,1.09,0,0,0,.84.55.08.08,0,0,1,.07.1A.08.08,0,0,1,36.13,60.4Z"/><path class="cls-1" d="M37,60.23H36.8a1.16,1.16,0,0,1-1-1.2.08.08,0,0,1,.09-.08.08.08,0,0,1,.07.09,1,1,0,0,0,.91,1c.48.07,1.05-.18,1.2-1.06a.09.09,0,0,1,.1-.07.08.08,0,0,1,.07.1A1.27,1.27,0,0,1,37,60.23Z"/><rect class="cls-1" x="26.54" y="48.63" width="16.09" height="3.19" transform="translate(-8.9 7.47) rotate(-10.93)"/></g></g></svg>