<svg id="Ebene_1" data-name="Ebene 1" xmlns="http://www.w3.org/2000/svg" viewBox="0 0 452.01 450.79"><defs><style>.cls-1{fill:#3f4040;}</style></defs><title>Zeichenfläche 1</title><rect class="cls-1" x="3.51" y="2.1" width="13.49" height="40.46"/><rect class="cls-1" x="3.51" y="42.55" width="13.49" height="53.94"/><rect class="cls-1" x="3.51" y="109.98" width="13.49" height="40.46"/><rect class="cls-1" x="3.51" y="177.42" width="13.49" height="13.49"/><rect class="cls-1" x="3.51" y="204.38" width="13.49" height="53.94"/><rect class="cls-1" x="3.51" y="271.81" width="13.49" height="26.97"/><rect class="cls-1" x="3.51" y="325.76" width="13.49" height="13.49"/><rect class="cls-1" x="3.51" y="352.73" width="13.49" height="67.43"/><rect class="cls-1" x="3.51" y="420.16" width="13.49" height="26.97"/><rect class="cls-1" x="17" y="2.1" width="13.49" height="13.49"/><rect class="cls-1" x="17" y="83.01" width="13.49" height="13.49"/><rect class="cls-1" x="17" y="123.47" width="13.49" height="26.97"/><rect class="cls-1" x="17" y="190.9" width="13.49" height="53.94"/><rect class="cls-1" x="17" y="258.33" width="13.49" height="13.49"/><rect class="cls-1" x="17" y="312.27" width="13.49" height="13.49"/><rect class="cls-1" x="17" y="352.73" width="13.49" height="13.49"/><rect class="cls-1" x="17" y="433.65" width="13.49" height="13.49"/><rect class="cls-1" x="30.49" y="2.1" width="13.49" height="13.49"/><rect class="cls-1" x="30.49" y="29.07" width="13.49" height="13.49"/><rect class="cls-1" x="30.49" y="42.55" width="13.49" height="26.97"/><rect class="cls-1" x="30.49" y="83.01" width="13.49" height="13.49"/><rect class="cls-1" x="30.49" y="109.98" width="13.49" height="13.49"/><rect class="cls-1" x="30.49" y="150.44" width="13.49" height="67.43"/><rect class="cls-1" x="30.49" y="231.36" width="13.49" height="13.49"/><rect class="cls-1" x="30.49" y="271.81" width="13.49" height="13.49"/><rect class="cls-1" x="30.49" y="312.27" width="13.49" height="13.49"/><rect class="cls-1" x="30.49" y="352.73" width="13.49" height="13.49"/><rect class="cls-1" x="30.49" y="379.7" width="13.49" height="40.46"/><rect class="cls-1" x="30.49" y="433.65" width="13.49" height="13.49"/><rect class="cls-1" x="43.97" y="2.1" width="13.49" height="13.49"/><rect class="cls-1" x="43.97" y="29.07" width="13.49" height="13.49"/><rect class="cls-1" x="43.97" y="42.55" width="13.49" height="26.97"/><rect class="cls-1" x="43.97" y="83.01" width="13.49" height="13.49"/><rect class="cls-1" x="43.97" y="109.98" width="13.49" height="26.97"/><rect class="cls-1" x="43.97" y="190.9" width="13.49" height="53.94"/><rect class="cls-1" x="43.97" y="285.3" width="13.49" height="13.49"/><rect class="cls-1" x="43.97" y="312.27" width="13.49" height="13.49"/><rect class="cls-1" x="43.97" y="352.73" width="13.49" height="13.49"/><rect class="cls-1" x="43.97" y="379.7" width="13.49" height="40.46"/><rect class="cls-1" x="43.97" y="433.65" width="13.49" height="13.49"/><rect class="cls-1" x="57.46" y="2.1" width="13.49" height="13.49"/><rect class="cls-1" x="57.46" y="29.07" width="13.49" height="13.49"/><rect class="cls-1" x="57.46" y="42.55" width="13.49" height="26.97"/><rect class="cls-1" x="57.46" y="83.01" width="13.49" height="13.49"/><rect class="cls-1" x="57.46" y="123.47" width="13.49" height="80.92"/><rect class="cls-1" x="57.46" y="258.33" width="13.49" height="26.97"/><rect class="cls-1" x="57.46" y="298.79" width="13.49" height="40.46"/><rect class="cls-1" x="57.46" y="352.73" width="13.49" height="13.49"/><rect class="cls-1" x="57.46" y="379.7" width="13.49" height="40.46"/><rect class="cls-1" x="57.46" y="433.65" width="13.49" height="13.49"/><rect class="cls-1" x="70.94" y="2.1" width="13.49" height="13.49"/><rect class="cls-1" x="70.94" y="83.01" width="13.49" height="13.49"/><rect class="cls-1" x="70.94" y="109.98" width="13.49" height="13.49"/><rect class="cls-1" x="70.94" y="136.95" width="13.49" height="26.97"/><rect class="cls-1" x="70.94" y="204.38" width="13.49" height="26.97"/><rect class="cls-1" x="70.94" y="298.79" width="13.49" height="13.49"/><rect class="cls-1" x="70.94" y="352.73" width="13.49" height="13.49"/><rect class="cls-1" x="70.94" y="433.65" width="13.49" height="13.49"/><rect class="cls-1" x="84.43" y="2.1" width="13.49" height="40.46"/><rect class="cls-1" x="84.43" y="42.55" width="13.49" height="53.94"/><rect class="cls-1" x="84.43" y="109.98" width="13.49" height="13.49"/><rect class="cls-1" x="84.43" y="136.95" width="13.49" height="13.49"/><rect class="cls-1" x="84.43" y="163.93" width="13.49" height="13.49"/><rect class="cls-1" x="84.43" y="190.9" width="13.49" height="13.49"/><rect class="cls-1" x="84.43" y="217.87" width="13.49" height="13.49"/><rect class="cls-1" x="84.43" y="244.85" width="13.49" height="13.49"/><rect class="cls-1" x="84.43" y="271.81" width="13.49" height="13.49"/><rect class="cls-1" x="84.43" y="298.79" width="13.49" height="13.49"/><rect class="cls-1" x="84.43" y="325.76" width="13.49" height="13.49"/><rect class="cls-1" x="84.43" y="352.73" width="13.49" height="67.43"/><rect class="cls-1" x="84.43" y="420.16" width="13.49" height="26.97"/><rect class="cls-1" x="97.91" y="109.98" width="13.49" height="26.97"/><rect class="cls-1" x="97.91" y="150.44" width="13.49" height="13.49"/><rect class="cls-1" x="97.91" y="204.38" width="13.49" height="94.4"/><rect class="cls-1" x="97.91" y="325.76" width="13.49" height="13.49"/><rect class="cls-1" x="111.4" y="2.1" width="13.49" height="26.97"/><rect class="cls-1" x="111.4" y="42.55" width="13.49" height="13.49"/><rect class="cls-1" x="111.4" y="83.01" width="13.49" height="26.97"/><rect class="cls-1" x="111.4" y="123.47" width="13.49" height="26.97"/><rect class="cls-1" x="111.4" y="177.42" width="13.49" height="40.46"/><rect class="cls-1" x="111.4" y="244.85" width="13.49" height="13.49"/><rect class="cls-1" x="111.4" y="271.81" width="13.49" height="13.49"/><rect class="cls-1" x="111.4" y="298.79" width="13.49" height="53.94"/><rect class="cls-1" x="111.4" y="352.73" width="13.49" height="26.97"/><rect class="cls-1" x="111.4" y="393.19" width="13.49" height="26.97"/><rect class="cls-1" x="111.4" y="433.65" width="13.49" height="13.49"/><rect class="cls-1" x="124.89" y="2.1" width="13.49" height="13.49"/><rect class="cls-1" x="124.89" y="29.07" width="13.49" height="13.49"/><rect class="cls-1" x="124.89" y="56.04" width="13.49" height="13.49"/><rect class="cls-1" x="124.89" y="190.9" width="13.49" height="26.97"/><rect class="cls-1" x="124.89" y="231.36" width="13.49" height="13.49"/><rect class="cls-1" x="124.89" y="298.79" width="13.49" height="13.49"/><rect class="cls-1" x="124.89" y="339.25" width="13.49" height="13.49"/><rect class="cls-1" x="124.89" y="379.7" width="13.49" height="40.46"/><rect class="cls-1" x="124.89" y="420.16" width="13.49" height="13.49"/><rect class="cls-1" x="138.37" y="2.1" width="13.49" height="13.49"/><rect class="cls-1" x="138.37" y="56.04" width="13.49" height="13.49"/><rect class="cls-1" x="138.37" y="83.01" width="13.49" height="13.49"/><rect class="cls-1" x="138.37" y="109.98" width="13.49" height="26.97"/><rect class="cls-1" x="138.37" y="163.93" width="13.49" height="13.49"/><rect class="cls-1" x="138.37" y="204.38" width="13.49" height="13.49"/><rect class="cls-1" x="138.37" y="244.85" width="13.49" height="13.49"/><rect class="cls-1" x="138.37" y="312.27" width="13.49" height="26.97"/><rect class="cls-1" x="138.37" y="352.73" width="13.49" height="40.46"/><rect class="cls-1" x="138.37" y="406.68" width="13.49" height="13.49"/><rect class="cls-1" x="151.86" y="15.58" width="13.49" height="26.97"/><rect class="cls-1" x="151.86" y="69.53" width="13.49" height="13.49"/><rect class="cls-1" x="151.86" y="123.47" width="13.49" height="53.94"/><rect class="cls-1" x="151.86" y="231.36" width="13.49" height="13.49"/><rect class="cls-1" x="151.86" y="285.3" width="13.49" height="13.49"/><rect class="cls-1" x="151.86" y="298.79" width="13.49" height="26.97"/><rect class="cls-1" x="151.86" y="352.73" width="13.49" height="13.49"/><rect class="cls-1" x="151.86" y="379.7" width="13.49" height="26.97"/><rect class="cls-1" x="151.86" y="420.16" width="13.49" height="26.97"/><rect class="cls-1" x="165.34" y="2.1" width="13.49" height="26.97"/><rect class="cls-1" x="165.34" y="56.04" width="13.49" height="13.49"/><rect class="cls-1" x="165.34" y="83.01" width="13.49" height="13.49"/><rect class="cls-1" x="165.34" y="109.98" width="13.49" height="13.49"/><rect class="cls-1" x="165.34" y="136.95" width="13.49" height="13.49"/><rect class="cls-1" x="165.34" y="217.87" width="13.49" height="26.97"/><rect class="cls-1" x="165.34" y="258.33" width="13.49" height="13.49"/><rect class="cls-1" x="165.34" y="285.3" width="13.49" height="13.49"/><rect class="cls-1" x="165.34" y="298.79" width="13.49" height="13.49"/><rect class="cls-1" x="165.34" y="325.76" width="13.49" height="26.97"/><rect class="cls-1" x="165.34" y="352.73" width="13.49" height="40.46"/><rect class="cls-1" x="165.34" y="406.68" width="13.49" height="13.49"/><rect class="cls-1" x="165.34" y="420.16" width="13.49" height="26.97"/><rect class="cls-1" x="178.83" y="15.58" width="13.49" height="13.49"/><rect class="cls-1" x="178.83" y="69.53" width="13.49" height="13.49"/><rect class="cls-1" x="178.83" y="136.95" width="13.49" height="13.49"/><rect class="cls-1" x="178.83" y="177.42" width="13.49" height="13.49"/><rect class="cls-1" x="178.83" y="204.38" width="13.49" height="40.46"/><rect class="cls-1" x="178.83" y="258.33" width="13.49" height="26.97"/><rect class="cls-1" x="178.83" y="312.27" width="13.49" height="26.97"/><rect class="cls-1" x="178.83" y="366.21" width="13.49" height="53.94"/><rect class="cls-1" x="178.83" y="420.16" width="13.49" height="26.97"/><rect class="cls-1" x="192.32" y="2.1" width="13.49" height="40.46"/><rect class="cls-1" x="192.32" y="42.55" width="13.49" height="13.49"/><rect class="cls-1" x="192.32" y="83.01" width="13.49" height="80.92"/><rect class="cls-1" x="192.32" y="177.42" width="13.49" height="67.43"/><rect class="cls-1" x="192.32" y="258.33" width="13.49" height="13.49"/><rect class="cls-1" x="192.32" y="312.27" width="13.49" height="13.49"/><rect class="cls-1" x="192.32" y="352.73" width="13.49" height="13.49"/><rect class="cls-1" x="192.32" y="379.7" width="13.49" height="13.49"/><rect class="cls-1" x="205.8" y="42.55" width="13.49" height="13.49"/><rect class="cls-1" x="205.8" y="96.5" width="13.49" height="13.49"/><rect class="cls-1" x="205.8" y="150.44" width="13.49" height="13.49"/><rect class="cls-1" x="205.8" y="190.9" width="13.49" height="13.49"/><rect class="cls-1" x="205.8" y="231.36" width="13.49" height="26.97"/><rect class="cls-1" x="205.8" y="298.79" width="13.49" height="53.94"/><rect class="cls-1" x="205.8" y="366.21" width="13.49" height="13.49"/><rect class="cls-1" x="205.8" y="406.68" width="13.49" height="13.49"/><rect class="cls-1" x="219.29" y="2.1" width="13.49" height="40.46"/><rect class="cls-1" x="219.29" y="56.04" width="13.49" height="13.49"/><rect class="cls-1" x="219.29" y="83.01" width="13.49" height="67.43"/><rect class="cls-1" x="219.29" y="163.93" width="13.49" height="53.94"/><rect class="cls-1" x="219.29" y="231.36" width="13.49" height="40.46"/><rect class="cls-1" x="219.29" y="285.3" width="13.49" height="13.49"/><rect class="cls-1" x="219.29" y="298.79" width="13.49" height="26.97"/><rect class="cls-1" x="219.29" y="339.25" width="13.49" height="13.49"/><rect class="cls-1" x="219.29" y="352.73" width="13.49" height="40.46"/><rect class="cls-1" x="219.29" y="433.65" width="13.49" height="13.49"/><rect class="cls-1" x="232.77" y="29.07" width="13.49" height="13.49"/><rect class="cls-1" x="232.77" y="42.55" width="13.49" height="40.46"/><rect class="cls-1" x="232.77" y="96.5" width="13.49" height="26.97"/><rect class="cls-1" x="232.77" y="150.44" width="13.49" height="13.49"/><rect class="cls-1" x="232.77" y="190.9" width="13.49" height="13.49"/><rect class="cls-1" x="232.77" y="231.36" width="13.49" height="13.49"/><rect class="cls-1" x="232.77" y="271.81" width="13.49" height="26.97"/><rect class="cls-1" x="232.77" y="298.79" width="13.49" height="13.49"/><rect class="cls-1" x="232.77" y="325.76" width="13.49" height="26.97"/><rect class="cls-1" x="232.77" y="379.7" width="13.49" height="40.46"/><rect class="cls-1" x="232.77" y="420.16" width="13.49" height="26.97"/><rect class="cls-1" x="246.26" y="2.1" width="13.49" height="40.46"/><rect class="cls-1" x="246.26" y="42.55" width="13.49" height="13.49"/><rect class="cls-1" x="246.26" y="83.01" width="13.49" height="67.43"/><rect class="cls-1" x="246.26" y="190.9" width="13.49" height="13.49"/><rect class="cls-1" x="246.26" y="217.87" width="13.49" height="13.49"/><rect class="cls-1" x="246.26" y="244.85" width="13.49" height="13.49"/><rect class="cls-1" x="246.26" y="298.79" width="13.49" height="40.46"/><rect class="cls-1" x="246.26" y="379.7" width="13.49" height="13.49"/><rect class="cls-1" x="246.26" y="420.16" width="13.49" height="26.97"/><rect class="cls-1" x="259.74" y="2.1" width="13.49" height="13.49"/><rect class="cls-1" x="259.74" y="42.55" width="13.49" height="40.46"/><rect class="cls-1" x="259.74" y="123.47" width="13.49" height="13.49"/><rect class="cls-1" x="259.74" y="150.44" width="13.49" height="13.49"/><rect class="cls-1" x="259.74" y="177.42" width="13.49" height="26.97"/><rect class="cls-1" x="259.74" y="312.27" width="13.49" height="13.49"/><rect class="cls-1" x="259.74" y="339.25" width="13.49" height="13.49"/><rect class="cls-1" x="259.74" y="352.73" width="13.49" height="13.49"/><rect class="cls-1" x="273.23" y="2.1" width="13.49" height="40.46"/><rect class="cls-1" x="273.23" y="42.55" width="13.49" height="13.49"/><rect class="cls-1" x="273.23" y="83.01" width="13.49" height="26.97"/><rect class="cls-1" x="273.23" y="150.44" width="13.49" height="13.49"/><rect class="cls-1" x="273.23" y="177.42" width="13.49" height="13.49"/><rect class="cls-1" x="273.23" y="217.87" width="13.49" height="26.97"/><rect class="cls-1" x="273.23" y="271.81" width="13.49" height="13.49"/><rect class="cls-1" x="273.23" y="298.79" width="13.49" height="26.97"/><rect class="cls-1" x="273.23" y="379.7" width="13.49" height="40.46"/><rect class="cls-1" x="273.23" y="420.16" width="13.49" height="26.97"/><rect class="cls-1" x="286.72" y="2.1" width="13.49" height="13.49"/><rect class="cls-1" x="286.72" y="69.53" width="13.49" height="13.49"/><rect class="cls-1" x="286.72" y="109.98" width="13.49" height="26.97"/><rect class="cls-1" x="286.72" y="177.42" width="13.49" height="53.94"/><rect class="cls-1" x="286.72" y="244.85" width="13.49" height="13.49"/><rect class="cls-1" x="286.72" y="271.81" width="13.49" height="26.97"/><rect class="cls-1" x="286.72" y="339.25" width="13.49" height="13.49"/><rect class="cls-1" x="286.72" y="352.73" width="13.49" height="40.46"/><rect class="cls-1" x="286.72" y="406.68" width="13.49" height="13.49"/><rect class="cls-1" x="286.72" y="433.65" width="13.49" height="13.49"/><rect class="cls-1" x="300.21" y="2.1" width="13.49" height="13.49"/><rect class="cls-1" x="300.21" y="42.55" width="13.49" height="80.92"/><rect class="cls-1" x="300.21" y="150.44" width="13.49" height="40.46"/><rect class="cls-1" x="300.21" y="217.87" width="13.49" height="26.97"/><rect class="cls-1" x="300.21" y="271.81" width="13.49" height="13.49"/><rect class="cls-1" x="300.21" y="325.76" width="13.49" height="26.97"/><rect class="cls-1" x="300.21" y="366.21" width="13.49" height="40.46"/><rect class="cls-1" x="313.69" y="2.1" width="13.49" height="26.97"/><rect class="cls-1" x="313.69" y="96.5" width="13.49" height="80.92"/><rect class="cls-1" x="313.69" y="231.36" width="13.49" height="13.49"/><rect class="cls-1" x="313.69" y="258.33" width="13.49" height="13.49"/><rect class="cls-1" x="313.69" y="285.3" width="13.49" height="13.49"/><rect class="cls-1" x="313.69" y="298.79" width="13.49" height="13.49"/><rect class="cls-1" x="313.69" y="352.73" width="13.49" height="40.46"/><rect class="cls-1" x="313.69" y="406.68" width="13.49" height="13.49"/><rect class="cls-1" x="313.69" y="420.16" width="13.49" height="26.97"/><rect class="cls-1" x="327.17" y="15.58" width="13.49" height="26.97"/><rect class="cls-1" x="327.17" y="42.55" width="13.49" height="67.43"/><rect class="cls-1" x="327.17" y="150.44" width="13.49" height="26.97"/><rect class="cls-1" x="327.17" y="190.9" width="13.49" height="26.97"/><rect class="cls-1" x="327.17" y="231.36" width="13.49" height="13.49"/><rect class="cls-1" x="327.17" y="258.33" width="13.49" height="13.49"/><rect class="cls-1" x="327.17" y="298.79" width="13.49" height="53.94"/><rect class="cls-1" x="327.17" y="352.73" width="13.49" height="40.46"/><rect class="cls-1" x="327.17" y="406.68" width="13.49" height="13.49"/><rect class="cls-1" x="327.17" y="420.16" width="13.49" height="13.49"/><rect class="cls-1" x="340.66" y="136.95" width="13.49" height="53.94"/><rect class="cls-1" x="340.66" y="204.38" width="13.49" height="40.46"/><rect class="cls-1" x="340.66" y="325.76" width="13.49" height="13.49"/><rect class="cls-1" x="340.66" y="379.7" width="13.49" height="13.49"/><rect class="cls-1" x="340.66" y="406.68" width="13.49" height="13.49"/><rect class="cls-1" x="340.66" y="420.16" width="13.49" height="26.97"/><rect class="cls-1" x="354.15" y="2.1" width="13.49" height="40.46"/><rect class="cls-1" x="354.15" y="42.55" width="13.49" height="53.94"/><rect class="cls-1" x="354.15" y="109.98" width="13.49" height="26.97"/><rect class="cls-1" x="354.15" y="150.44" width="13.49" height="13.49"/><rect class="cls-1" x="354.15" y="190.9" width="13.49" height="67.43"/><rect class="cls-1" x="354.15" y="285.3" width="13.49" height="13.49"/><rect class="cls-1" x="354.15" y="325.76" width="13.49" height="13.49"/><rect class="cls-1" x="354.15" y="352.73" width="13.49" height="13.49"/><rect class="cls-1" x="354.15" y="379.7" width="13.49" height="13.49"/><rect class="cls-1" x="354.15" y="406.68" width="13.49" height="13.49"/><rect class="cls-1" x="367.64" y="2.1" width="13.49" height="13.49"/><rect class="cls-1" x="367.64" y="83.01" width="13.49" height="13.49"/><rect class="cls-1" x="367.64" y="123.47" width="13.49" height="94.4"/><rect class="cls-1" x="367.64" y="244.85" width="13.49" height="13.49"/><rect class="cls-1" x="367.64" y="298.79" width="13.49" height="13.49"/><rect class="cls-1" x="367.64" y="325.76" width="13.49" height="13.49"/><rect class="cls-1" x="367.64" y="379.7" width="13.49" height="40.46"/><rect class="cls-1" x="367.64" y="420.16" width="13.49" height="13.49"/><rect class="cls-1" x="381.12" y="2.1" width="13.49" height="13.49"/><rect class="cls-1" x="381.12" y="29.07" width="13.49" height="13.49"/><rect class="cls-1" x="381.12" y="42.55" width="13.49" height="26.97"/><rect class="cls-1" x="381.12" y="83.01" width="13.49" height="13.49"/><rect class="cls-1" x="381.12" y="136.95" width="13.49" height="13.49"/><rect class="cls-1" x="381.12" y="163.93" width="13.49" height="13.49"/><rect class="cls-1" x="381.12" y="190.9" width="13.49" height="13.49"/><rect class="cls-1" x="381.12" y="217.87" width="13.49" height="53.94"/><rect class="cls-1" x="381.12" y="298.79" width="13.49" height="13.49"/><rect class="cls-1" x="381.12" y="325.76" width="13.49" height="26.97"/><rect class="cls-1" x="381.12" y="352.73" width="13.49" height="40.46"/><rect class="cls-1" x="381.12" y="420.16" width="13.49" height="26.97"/><rect class="cls-1" x="394.6" y="2.1" width="13.49" height="13.49"/><rect class="cls-1" x="394.6" y="29.07" width="13.49" height="13.49"/><rect class="cls-1" x="394.6" y="42.55" width="13.49" height="26.97"/><rect class="cls-1" x="394.6" y="83.01" width="13.49" height="13.49"/><rect class="cls-1" x="394.6" y="109.98" width="13.49" height="134.86"/><rect class="cls-1" x="394.6" y="271.81" width="13.49" height="13.49"/><rect class="cls-1" x="394.6" y="298.79" width="13.49" height="13.49"/><rect class="cls-1" x="394.6" y="339.25" width="13.49" height="13.49"/><rect class="cls-1" x="394.6" y="366.21" width="13.49" height="13.49"/><rect class="cls-1" x="394.6" y="393.19" width="13.49" height="26.97"/><rect class="cls-1" x="408.09" y="2.1" width="13.49" height="13.49"/><rect class="cls-1" x="408.09" y="29.07" width="13.49" height="13.49"/><rect class="cls-1" x="408.09" y="42.55" width="13.49" height="26.97"/><rect class="cls-1" x="408.09" y="83.01" width="13.49" height="13.49"/><rect class="cls-1" x="408.09" y="123.47" width="13.49" height="13.49"/><rect class="cls-1" x="408.09" y="177.42" width="13.49" height="13.49"/><rect class="cls-1" x="408.09" y="204.38" width="13.49" height="26.97"/><rect class="cls-1" x="408.09" y="244.85" width="13.49" height="13.49"/><rect class="cls-1" x="408.09" y="271.81" width="13.49" height="26.97"/><rect class="cls-1" x="408.09" y="298.79" width="13.49" height="13.49"/><rect class="cls-1" x="408.09" y="366.21" width="13.49" height="53.94"/><rect class="cls-1" x="408.09" y="433.65" width="13.49" height="13.49"/><rect class="cls-1" x="421.58" y="2.1" width="13.49" height="13.49"/><rect class="cls-1" x="421.58" y="83.01" width="13.49" height="13.49"/><rect class="cls-1" x="421.58" y="109.98" width="13.49" height="13.49"/><rect class="cls-1" x="421.58" y="136.95" width="13.49" height="13.49"/><rect class="cls-1" x="421.58" y="177.42" width="13.49" height="13.49"/><rect class="cls-1" x="421.58" y="231.36" width="13.49" height="40.46"/><rect class="cls-1" x="421.58" y="298.79" width="13.49" height="26.97"/><rect class="cls-1" x="421.58" y="352.73" width="13.49" height="13.49"/><rect class="cls-1" x="435.06" y="2.1" width="13.49" height="40.46"/><rect class="cls-1" x="435.06" y="42.55" width="13.49" height="53.94"/><rect class="cls-1" x="435.06" y="109.98" width="13.49" height="53.94"/><rect class="cls-1" x="435.06" y="231.36" width="13.49" height="13.49"/><rect class="cls-1" x="435.06" y="271.81" width="13.49" height="26.97"/><rect class="cls-1" x="435.06" y="298.79" width="13.49" height="26.97"/><rect class="cls-1" x="435.06" y="379.7" width="13.49" height="26.97"/><rect class="cls-1" x="435.06" y="420.16" width="13.49" height="13.49"/></svg>