<svg xmlns="http://www.w3.org/2000/svg" viewBox="0 0 75 75"><defs><style>.cls-1{fill:#e95653;}.cls-2{fill:none;}.cls-3{fill:#b0565f;}.cls-4{fill:#f7f7f7;}.cls-5{fill:#fce8e8;}.cls-6{fill:#fff;}</style></defs><title>sicherheit-icon</title><g id="Layer_2" data-name="Layer 2"><g id="Layer_1-2" data-name="Layer 1"><circle class="cls-1" cx="37.5" cy="37.5" r="37.5"/><path class="cls-2" d="M18.54,57.19H56.78V29.74L72.42,51.18A37.5,37.5,0,1,0,37.5,75H38Z"/><path class="cls-3" d="M56.78,57.19H18.54L38,75A37.52,37.52,0,0,0,72.42,51.18L56.78,29.74Z"/><path class="cls-4" d="M24.11,30.28c0-.16,0-.32,0-.48,0-8.78,6.07-15.9,13.57-15.9S51,20.81,51.21,29.4c.88.44,1.74.94,2.58,1.47,0-.36.05-.71.05-1.07,0-10.47-7.25-19-16.18-19s-16.18,8.49-16.18,19c0,.7,0,1.4.1,2.08C22.4,31.31,23.25,30.77,24.11,30.28Z"/><path class="cls-5" d="M38.16,10.87c-.17,0-.33,0-.5,0-8.94,0-16.18,6.87-16.18,17.34,0,.7,0,1.4.1,2.08.82-.57.09-.05,1-.54,0-.16,0-.32,0-.48,0-8.78,4.73-15.8,14-17.93a9.93,9.93,0,0,1,1.65-.22A1.55,1.55,0,0,1,38.16,10.87Z"/><path class="cls-3" d="M46.31,51.43H30.21l4.66-8.26a4.77,4.77,0,0,1-1.95-3.92,5.08,5.08,0,0,1,5.16-5.06,5.1,5.1,0,0,1,5.05,5.15,5.09,5.09,0,0,1-1.74,3.79ZM32,50.39H44.48L40,42.87l.38-.28a4.09,4.09,0,0,0,1.68-3.26,4.06,4.06,0,0,0-4-4.1h0a4.07,4.07,0,0,0-4.07,4,3.82,3.82,0,0,0,1.87,3.31l.42.27Z"/><path class="cls-6" d="M18.1,29.48V56.93H57.32V29.48ZM31,50.07l4.2-7.44a4.11,4.11,0,0,1-2-3.55A4.32,4.32,0,1,1,40,42.63l4.41,7.44Z"/><path class="cls-5" d="M35.17,42.63a4.11,4.11,0,0,1-2-3.55,4.32,4.32,0,1,1,8.64.09,4.22,4.22,0,0,1-.77,2.42L57.32,29.48H18.1V56.93h2.34l11.48-8.54Z"/></g></g></svg>