<svg xmlns="http://www.w3.org/2000/svg" viewBox="0 0 75 75"><defs><style>.cls-1{fill:#e95653;}.cls-2{fill:#b0565f;}.cls-3{fill:#fff;}.cls-4{fill:#f9d2d1;}.cls-5,.cls-6{fill:none;stroke-linecap:round;stroke-linejoin:round;stroke-width:1.32px;}.cls-5{stroke:#f08e8c;}.cls-6{stroke:#e11e19;}</style></defs><title>spart zeit</title><g id="Layer_2" data-name="Layer 2"><g id="Layer_1-2" data-name="Layer 1"><circle class="cls-1" cx="37.5" cy="37.5" r="37.5"/><path class="cls-2" d="M74.66,42.47c0-.35,0-.68,0-1-6-9.1-11.81-18.28-13-20.49,1.25,33.83-38,39.71-40.56,40.23,5.54,6.69,7.2,8.6,10.36,13.29a38.08,38.08,0,0,0,6.08.5A37.49,37.49,0,0,0,74.66,42.47Z"/><circle class="cls-3" cx="37.66" cy="37.8" r="30.59"/><path class="cls-4" d="M10,39.77a30.4,30.4,0,0,0,10.9,23.34,30.46,30.46,0,1,1,36-49A30.46,30.46,0,0,0,10,39.77Z"/><line class="cls-5" x1="37.66" y1="15.55" x2="37.66" y2="8.16"/><line class="cls-5" x1="38.01" y1="67.14" x2="38.01" y2="59.76"/><line class="cls-5" x1="15.07" y1="38.86" x2="7.69" y2="38.86"/><line class="cls-5" x1="67.27" y1="38.86" x2="59.89" y2="38.86"/><polyline class="cls-6" points="56.65 28.31 37.66 42.02 28.86 30.07"/></g></g></svg>