<svg xmlns="http://www.w3.org/2000/svg" xmlns:xlink="http://www.w3.org/1999/xlink" viewBox="0 0 75 75"><defs><style>.cls-1{fill:#f7c7c5;}.cls-2,.cls-8{fill:#fff;}.cls-3{isolation:isolate;}.cls-4{fill:#e95653;}.cls-5{fill:none;}.cls-6{opacity:0.15;mix-blend-mode:multiply;}.cls-7{clip-path:url(#clip-path);}.cls-8{opacity:0.43;}.cls-9{clip-path:url(#clip-path-2);}</style><clipPath id="clip-path"><path class="cls-1" d="M31.13,21.373l.78,2.9,10.748-2.889a.68.68,0,0,1,.836.474l.516,1.921a.68.68,0,0,1-.485.83L32.777,27.5l.7,2.614,10.748-2.889a.678.678,0,0,1,.835.475l.517,1.92a.68.68,0,0,1-.486.83L34.347,33.34l.7,2.615L45.8,33.065a.68.68,0,0,1,.836.475l.516,1.921a.679.679,0,0,1-.485.829L35.916,39.18l.7,2.614,10.748-2.889a.68.68,0,0,1,.836.474l.516,1.921a.68.68,0,0,1-.485.83L37.486,45.019l.7,2.614,10.748-2.889a.681.681,0,0,1,.836.475l.516,1.921a.679.679,0,0,1-.485.829L39.056,50.858l.933,3.474,25.665-6.9A3.649,3.649,0,0,0,68.121,42.9L60.906,16.063a2.544,2.544,0,0,0-3.07-1.869Z"/></clipPath><clipPath id="clip-path-2"><path class="cls-2" d="M36.315,51.6l10.978-2.951a.687.687,0,0,0,.5-.833l-.517-1.921a.688.688,0,0,0-.85-.471L35.448,48.37l-.7-2.614,10.978-2.951a.688.688,0,0,0,.5-.834l-.517-1.921a.687.687,0,0,0-.85-.47L33.878,42.531l-.7-2.615,10.978-2.951a.687.687,0,0,0,.5-.833l-.516-1.921a.688.688,0,0,0-.85-.471L32.309,36.691l-.7-2.614,10.978-2.951a.687.687,0,0,0,.5-.834l-.516-1.92a.687.687,0,0,0-.85-.471L30.739,30.852l-.7-2.615,10.978-2.951a.687.687,0,0,0,.5-.833L41,22.532a.687.687,0,0,0-.85-.471L29.169,25.012l-.78-2.9L6.744,27.928l8.86,32.96L66.972,47.079h0l-29.723,7.99Z"/></clipPath></defs><title>dpER_API</title><g class="cls-3"><g id="Layer_2" data-name="Layer 2"><g id="Layer_1-2" data-name="Layer 1"><circle class="cls-4" cx="37.5" cy="37.5" r="37.5"/><path class="cls-5" d="M18.242,64.254a20.334,20.334,0,0,1-2.731-3.468,13.213,13.213,0,0,1-.569-2.117L13.8,54.419l-3.234-12.03Q9.116,37,7.666,31.6c-.274-1.021-.618-2.049-.829-3.085-.133-.651-.245-.393.183-.68.815-.546,2.459-.661,3.4-.914l5.61-1.508L26.89,22.5c.569-.152,1.2-.427,1.558-.228.274.152.5.7.7.952.221.278.5.576.72.853.117.147.212.4.372.471.361.161,1.061-.122,1.6-.267q-.392-1.45-.781-2.9l1.575-.424,21.208-5.7c2.126-.571,4.908-1.995,6.624,0,.975,1.133,1.862,2.357,2.789,3.531l11.217,14.2.289.366a37.5,37.5,0,1,0-49.779,39.5c-1.291-1.637-2.581-3.277-3.871-4.9C20.134,66.717,19.223,65.49,18.242,64.254Z"/><path class="cls-6" d="M75,37.5a37.9,37.9,0,0,0-.234-4.15l-.289-.366L63.26,18.78c-.927-1.174-1.814-2.4-2.789-3.531-1.716-1.993-4.5-.569-6.624,0l-21.208,5.7-1.575.424q.39,1.45.781,2.9c-.539.145-1.239.428-1.6.267-.16-.072-.255-.324-.372-.471-.22-.277-.5-.575-.72-.853-.2-.252-.431-.8-.7-.952-.361-.2-.989.076-1.558.228l-10.86,2.92-5.61,1.508c-.941.253-2.585.368-3.4.914-.428.287-.316.029-.183.68.211,1.036.555,2.064.829,3.085q1.45,5.392,2.9,10.785L13.8,54.419l1.143,4.25a13.213,13.213,0,0,0,.569,2.117,20.334,20.334,0,0,0,2.731,3.468c.981,1.236,1.892,2.463,2.874,3.7,1.29,1.624,2.58,3.264,3.871,4.9A37.505,37.505,0,0,0,75,37.5Z"/><path class="cls-1" d="M31.13,21.373l.78,2.9,10.748-2.889a.68.68,0,0,1,.836.474l.516,1.921a.68.68,0,0,1-.485.83L32.777,27.5l.7,2.614,10.748-2.889a.678.678,0,0,1,.835.475l.517,1.92a.68.68,0,0,1-.486.83L34.347,33.34l.7,2.615L45.8,33.065a.68.68,0,0,1,.836.475l.516,1.921a.679.679,0,0,1-.485.829L35.916,39.18l.7,2.614,10.748-2.889a.68.68,0,0,1,.836.474l.516,1.921a.68.68,0,0,1-.485.83L37.486,45.019l.7,2.614,10.748-2.889a.681.681,0,0,1,.836.475l.516,1.921a.679.679,0,0,1-.485.829L39.056,50.858l.933,3.474,25.665-6.9A3.649,3.649,0,0,0,68.121,42.9L60.906,16.063a2.544,2.544,0,0,0-3.07-1.869Z"/><g class="cls-7"><polygon class="cls-8" points="65.67 32.053 70.203 47.709 52.182 51.178 65.67 32.053"/></g><path class="cls-2" d="M36.315,51.6l10.978-2.951a.687.687,0,0,0,.5-.833l-.517-1.921a.688.688,0,0,0-.85-.471L35.448,48.37l-.7-2.614,10.978-2.951a.688.688,0,0,0,.5-.834l-.517-1.921a.687.687,0,0,0-.85-.47L33.878,42.531l-.7-2.615,10.978-2.951a.687.687,0,0,0,.5-.833l-.516-1.921a.688.688,0,0,0-.85-.471L32.309,36.691l-.7-2.614,10.978-2.951a.687.687,0,0,0,.5-.834l-.516-1.92a.687.687,0,0,0-.85-.471L30.739,30.852l-.7-2.615,10.978-2.951a.687.687,0,0,0,.5-.833L41,22.532a.687.687,0,0,0-.85-.471L29.169,25.012l-.78-2.9L6.744,27.928l8.86,32.96L66.972,47.079h0l-29.723,7.99Z"/><g class="cls-9"><polygon class="cls-8" points="9.543 47.147 4.92 26.656 23.782 22.229 9.543 47.147"/></g></g></g></g></svg>