<svg xmlns="http://www.w3.org/2000/svg" xmlns:xlink="http://www.w3.org/1999/xlink" viewBox="0 0 75 75"><defs><style>.cls-1,.cls-8{fill:#fff;}.cls-2{isolation:isolate;}.cls-3{fill:#e95653;}.cls-4{fill:none;}.cls-5{opacity:0.15;mix-blend-mode:multiply;}.cls-6{clip-path:url(#clip-path);}.cls-7{fill:#f08e8c;}.cls-8{opacity:0.29;}</style><clipPath id="clip-path"><path class="cls-1" d="M55.5,51.3c-.02,4.734-6.4,12.469-9.947,12.454l-26.224-.112.224-52.4,36.118.154L55.5,51.333Z"/></clipPath></defs><title>dpER_+_dokummente</title><g class="cls-2"><g id="Layer_2" data-name="Layer 2"><g id="Layer_1-2" data-name="Layer 1"><circle class="cls-3" cx="37.5" cy="37.5" r="37.5"/><path class="cls-4" d="M74.339,30.5c-.006-.031-.011-.063-.017-.1l-.088.1Z"/><path class="cls-4" d="M30.409,74.318v-.17h-.142v-.169h-.142v-.17h-.142v-.17h-.142v-.17H29.7v-.171h-.142v-.17H29.42v-.17h-.142v-.17h-.142v-.17H29v-.17h-.142v-.17h-.142V72.1h-.142v-.171H28.43v-.17h-.142v-.17h-.142v-.17h-.142v-.171h-.142v-.17h-.142V70.9h-.142v-.17H27.44v-.17H27.3v-.17h-.143v-.17h-.142v-.17h-.142v-.17h-.142v-.171h-.142v-.17H26.45v-.17h-.142V69.2h-.142v-.171h-.142v-.17h-.142v-.17h-.142v-.17H25.6v-.17h-.142v-.17h-.143V68h-.142v-.17h-.142v-.171H24.9v-.17h-.142v-.17h-.143v-.17h-.142l.047-11.005-.113.125,0-.325-.139.154,0-.325-.139.155,0-.325-.139.154,0-.325-.139.154,0-.325-.139.154,0-.325-.139.154,0-.324-.139.154,0-.325-.139.154,0-.325-.139.154,0-.325-.14.154-.286-40.714,37.549-.589-.159.175.3,0-.158.175.3-.005-.158.176.3-.005-.159.176.3,0-.158.176.3-.005-.159.175.3,0-.158.175.3-.005-.158.176.3,0-.159.175.3,0-.158.175.3,0-.158.175.3-.005-.158.176.3,0-.158.175.3,0-.159.175.3,0-.158.175.3,0-.158.176.3-.005-.158.176.3,0-.158.175.3,0-.159.175.3-.005-.158.176.3,0-.158.175.3,0-.159.175.3,0-.158.175.3-.005-.159.176.3,0-.158.176.3,0-.158.175.3,0-.158.175.3-.005-.158.176.3,0-.159.176.3,0-.158.175.3,0-.158.175.3-.005-.159.176.3,0-.158.176.3,0-.159.175.3,0-.158.175.3,0-.158.176.3,0-.159.176.3,0-.158.175.3,0-.158.175.3,0-.158.175.3,0-.158.176.3,0-.159.175.3,0-.158.175.3,0-.158.176.3,0-.159.176.3,0-.158.176.3,0-.159.175.3,0-.158.175.3,0-.158.176.3,0-.159.175.3,0-.158.175.3,0-.159.175.3,0-.158.176.3,0-.158.175.3,0-.159.175.3,0-.158.176.3,0-.158.176.3,0-.158.176.3-.005-.158.175.3,0-.159.175.3,0-.158.176.3,0-.158.176.3-.005-.158.175.3,0L69,24.188l.3,0-.159.176.3-.005-.158.176.3-.005-.158.175.3,0-.159.175.3,0-.158.176.3-.005-.159.176.3-.005-.158.175.3,0-.158.175.3,0-.159.176.3-.005-.158.176.3-.005-.159.175.3,0-.158.175.3,0-.158.176.3-.005-.159.176.3,0-.158.176.3,0-.158.175.3,0-.158.175.3-.005-.158.176.3,0-.159.175.3,0-.158.175.3,0-.158.175.3-.005-.158.176.3,0-.158.175.3,0-.159.175.3-.005-.158.176.3,0-.158.176.3,0-.159.176.3,0-.158.175.3,0-.159.175.3,0-.158.176.3,0-.158.175.3,0-.159.175.3,0-.158.175.3,0-.159.176.3,0-.158.176.3,0-.158.175.215,0A37.5,37.5,0,1,0,30.551,74.347v-.028Z"/><path class="cls-5" d="M74.393,30.331h-.085c0,.026.009.052.014.077Z"/><path class="cls-5" d="M75,37.5a37.68,37.68,0,0,0-.661-7l-.105,0,.088-.1c-.005-.025-.009-.051-.014-.077l-.215,0,.158-.175-.3,0,.158-.176-.3,0,.159-.176-.3,0,.158-.175-.3,0,.159-.175-.3,0,.158-.175-.3,0,.158-.176-.3,0,.159-.175-.3,0,.158-.175-.3,0,.159-.176-.3,0,.158-.176-.3,0,.158-.176-.3.005.159-.175-.3,0,.158-.175-.3,0,.158-.176-.3.005.158-.175-.3,0,.158-.175-.3,0,.159-.175-.3,0,.158-.176-.3.005.158-.175-.3,0,.158-.175-.3,0,.158-.176-.3,0,.159-.176-.3.005L71,26.232l-.3,0,.158-.175-.3,0,.159-.175-.3.005.158-.176-.3.005.159-.176-.3,0,.158-.175-.3,0,.158-.175-.3.005.159-.176-.3.005.158-.176-.3,0,.159-.175-.3,0,.158-.175-.3.005.158-.176-.3.005.159-.176-.3,0,.158-.175-.3,0,.158-.175-.3.005.158-.176-.3,0,.158-.176-.3,0,.159-.175-.142-.171-.141-.171-.142-.171-.141-.171-.141-.17-.142-.171-.141-.171-.141-.17-.142-.171-.141-.171-.142-.171-.141-.17-.141-.171-.142-.171-.141-.171-.142-.171-.141-.17-.141-.171-.142-.171-.141-.17-.142-.171-.141-.171-.141-.171-.142-.171-.141-.17-.141-.171-.142-.171-.141-.171-.142-.17-.141-.171-.141-.171-.142-.171-.141-.17-.142-.171-.141-.171-.141-.171-.142-.17-.141-.171-.142-.171L62.94,16.5l-.141-.17-.142-.171-.141-.171-.3.005.158-.176-.141-.17-.141-.171L61.95,15.3l-.141-.171-.142-.17-.141-.171-.141-.171-.142-.171-.141-.17-.141-.171-.142-.171-.141-.171-.142-.171-.141-.17-.141-.171-37.549.589.286,40.714.14-.154,0,.325.139-.154,0,.325.139-.154,0,.325.139-.154,0,.324.139-.154,0,.325.139-.154,0,.325.139-.154,0,.325.139-.154,0,.325.139-.155,0,.325.139-.154,0,.325.113-.125-5.31,5.826,11.2,12.351h.143v.028A37.483,37.483,0,0,0,75,37.5Z"/><path class="cls-1" d="M55.5,51.3c-.02,4.734-6.4,12.469-9.947,12.454l-26.224-.112.224-52.4,36.118.154L55.5,51.333Z"/><g class="cls-6"><rect class="cls-7" x="45.047" y="31.297" width="1.105" height="15.929" transform="translate(5.924 84.501) rotate(-89.478)"/><rect class="cls-7" x="45.065" y="29.309" width="1.105" height="15.929" transform="translate(7.93 82.548) rotate(-89.478)"/><rect class="cls-7" x="45.029" y="33.285" width="1.105" height="15.929" transform="translate(3.917 86.453) rotate(-89.478)"/><rect class="cls-7" x="44.992" y="37.262" width="1.105" height="15.929" transform="translate(-0.095 90.357) rotate(-89.478)"/><rect class="cls-7" x="45.01" y="35.273" width="1.105" height="15.929" transform="translate(1.911 88.404) rotate(-89.478)"/><rect class="cls-7" x="43.912" y="40.302" width="1.105" height="13.805" transform="translate(-3.144 91.237) rotate(-89.478)"/><rect class="cls-7" x="35.78" y="39.989" width="1.105" height="31.017" transform="translate(-19.494 91.322) rotate(-89.478)"/><rect class="cls-7" x="35.798" y="38" width="1.105" height="31.017" transform="translate(-17.488 89.37) rotate(-89.478)"/><rect class="cls-7" x="46.395" y="12.763" width="1.105" height="14.624" transform="translate(26.445 66.838) rotate(-89.478)"/><rect class="cls-7" x="46.413" y="10.775" width="1.105" height="14.624" transform="matrix(0.009, -1, 1, 0.009, 28.452, 64.886)"/><rect class="cls-7" x="45.463" y="13.829" width="1.105" height="16.452" transform="translate(23.542 67.868) rotate(-89.478)"/><rect class="cls-7" x="45.427" y="17.805" width="1.105" height="16.452" transform="translate(19.53 71.772) rotate(-89.478)"/><rect class="cls-7" x="45.445" y="15.817" width="1.105" height="16.452" transform="translate(21.536 69.82) rotate(-89.478)"/><rect class="cls-7" x="44.312" y="20.881" width="1.105" height="14.259" transform="translate(16.447 72.617) rotate(-89.478)"/><rect class="cls-7" x="36.922" y="18.328" width="3.101" height="1.316" transform="translate(19.136 57.284) rotate(-89.478)"/><rect class="cls-7" x="20.339" y="23.851" width="6.689" height="0.951" transform="translate(-0.858 47.788) rotate(-89.478)"/><rect class="cls-7" x="20.494" y="22.682" width="9.052" height="0.951" transform="translate(1.636 47.966) rotate(-89.478)"/><rect class="cls-7" x="23.614" y="24.504" width="5.431" height="0.951" transform="translate(1.11 51.08) rotate(-89.478)"/><rect class="cls-7" x="23.146" y="22.706" width="9.052" height="0.951" transform="translate(4.238 50.64) rotate(-89.478)"/><rect class="cls-7" x="25.125" y="23.378" width="7.732" height="0.951" transform="translate(4.874 52.625) rotate(-89.478)"/><rect class="cls-7" x="27.302" y="24.249" width="6.014" height="0.951" transform="translate(5.309 54.806) rotate(-89.478)"/><rect class="cls-7" x="27.455" y="23.078" width="8.38" height="0.951" transform="translate(7.804 54.982) rotate(-89.478)"/><polygon class="cls-7" points="32.671 27.845 22.422 27.752 22.511 18.024 22.695 18.026 22.608 27.569 32.673 27.661 32.671 27.845"/><path class="cls-7" d="M28.324,37.787l-.75,4.221,3.933.006h.355A4.334,4.334,0,0,0,28.324,37.787Z"/><path class="cls-7" d="M29.738,45.866A4.293,4.293,0,0,0,31.862,42.2l-4.238-.006.438.761Z"/><path class="cls-7" d="M27.426,46.516a4.338,4.338,0,0,0,2.153-.558l-2.115-3.673-.478.824L25.34,45.952A4.34,4.34,0,0,0,27.426,46.516Z"/><path class="cls-7" d="M28.143,37.754a4.4,4.4,0,0,0-5.009,3.577,4.3,4.3,0,0,0,2.047,4.529l2.2-3.792Z"/><polygon class="cls-8" points="17.85 51.058 17.563 10.344 55.112 9.755 17.85 51.058"/></g><circle class="cls-3" cx="54.584" cy="19.93" r="8.586"/><path class="cls-1" d="M60.175,19.269v1.086a.366.366,0,0,1-.367.366H55.615v4.351a.366.366,0,0,1-.366.367H53.864a.367.367,0,0,1-.367-.367V20.721H49.2a.366.366,0,0,1-.367-.366V19.269A.366.366,0,0,1,49.2,18.9h4.237V14.46a.366.366,0,0,1,.366-.367h1.362a.366.366,0,0,1,.366.367V18.9h4.281A.366.366,0,0,1,60.175,19.269Z"/></g></g></g></svg>