<?xml version="1.0" encoding="utf-8"?>
<!-- Generator: Adobe Illustrator 24.1.3, SVG Export Plug-In . SVG Version: 6.00 Build 0)  -->
<svg version="1.1" id="Layer_1" xmlns="http://www.w3.org/2000/svg" xmlns:xlink="http://www.w3.org/1999/xlink" x="0px" y="0px"
	 viewBox="0 0 220 220" style="enable-background:new 0 0 220 220;" xml:space="preserve">
<style type="text/css">
	.st0{clip-path:url(#SVGID_2_);}
	.st1{fill:#CED6DD;}
	.st2{fill:#EFF1F4;}
	.st3{fill:#DEE3E8;}
	.st4{fill:#E11E19;}
	.st5{fill:#96A0A5;}
	.st6{fill:#FFFFFF;stroke:#E3E4E8;stroke-miterlimit:10;}
	.st7{fill:url(#SVGID_3_);}
	.st8{fill:#E95653;}
	.st9{fill:#E0211C;}
	.st10{fill:#FFFFFF;}
	.st11{fill:#7CB892;}
	.st12{fill:url(#SVGID_4_);}
	.st13{fill:url(#SVGID_5_);}
	.st14{fill:none;stroke:#E11E19;stroke-width:0.7132;stroke-miterlimit:10;stroke-dasharray:1.1887,0.951;}
</style>
<g>
	<defs>
		<rect id="SVGID_1_" width="220" height="220"/>
	</defs>
	<clipPath id="SVGID_2_">
		<use xlink:href="#SVGID_1_"  style="overflow:visible;"/>
	</clipPath>
	<g class="st0">
		<polygon class="st1" points="170.5,37.7 138.7,34.7 138.7,9.3 162.3,6.1 165.8,9.2 		"/>
		<path class="st1" d="M119.5,29.6C82,28.4,83.3,43.4,84.2,5.7C116.4,0.2,109.3,1.3,119.5,29.6z"/>
		<path class="st2" d="M48,34.9c9.2-11.8,12.7-11.7,26.6-15.1c0,0,61.5-0.8,70.5,3.4s16.8-0.8,24.9,11.8
			c12.4,57.5,3.6,101.8,2,173.9c-11.8,20.2-122.4,1.5-122.4-2.1C38.7,194.5,38,93.3,37.9,80.5C37.8,72.6,36.6,40.4,48,34.9z"/>
		<path class="st3" d="M152.4,23.3c0-0.9,12.3-18,13.5-13.9c0.2-1.9-2.7-6.2-6.8-4.5s-19.8-0.4-19.8-0.4
			C114.7,28.1,131.2,22.2,152.4,23.3z"/>
		<path class="st3" d="M81.6,21.4c0,0,0.2-15.9,2.7-16.1c5,0.4,24.6-5.7,26.6,0.8c0,0-3.5-2.2-5.2,0.7c-1.6,2.7-1.8,15.4-0.8,16.5
			s-23.3-1.1-23.3-1.1V21.4z"/>
		<path class="st3" d="M159.8,136.7c2.6-0.9,13.8,5.1,23.3,2c1.5,2.8-7.7,60.6-8.2,66.1s-14.1,9.1-19,10.2S159.8,136.7,159.8,136.7z
			"/>
		<ellipse class="st4" cx="140.9" cy="26.4" rx="2.3" ry="1.4"/>
		<ellipse class="st4" cx="68" cy="23" rx="1.6" ry="1.1"/>
		<path class="st5" d="M135.6,26.7c-0.3-0.5-8.1-9.4-10.1-9.8s-43.2-1.2-44.2-1.2s-2.4,6.2-4.8,7c-1.3,0.5-2.7,0.8-4.1,1l3.1-2.6
			c0,0,7.7-8.7,9.1-8.9s29.5-4.3,41.2,0.8c7.3,3.6,7.8,4.9,7.8,4.9l5.8,5.8L135.6,26.7z"/>
		
			<rect x="30.8" y="30" transform="matrix(0.1205 -0.9927 0.9927 0.1205 10.2887 175.4065)" class="st6" width="146.6" height="103.8"/>
		
			<linearGradient id="SVGID_3_" gradientUnits="userSpaceOnUse" x1="-506.5727" y1="-89.5609" x2="-507.3327" y2="-165.8309" gradientTransform="matrix(0.117 -0.9931 -0.9931 -0.117 2.8515 -440.7096)">
			<stop  offset="0" style="stop-color:#E95653"/>
			<stop  offset="0.22" style="stop-color:#E11E19"/>
		</linearGradient>
		<polygon class="st7" points="44.1,148.5 61.7,2.8 113.7,9.1 96.1,154.8 		"/>
		<polyline class="st8" points="61.5,2.9 84.1,19.9 69.8,138.3 43.7,148.4 		"/>
		<path class="st9" d="M158.8,30.9c0.4,0.1,0.7,0.5,0.7,0.9l-0.1,0.6l-6.4-0.6l0.1-1.4L158.8,30.9z"/>
		<path class="st9" d="M153.4,28.6l0.2-1.8c0-0.6,0.2-1.1,0.6-1.5c0.3-0.3,0.8-0.5,1.3-0.4c0.3,0,0.6,0.1,0.9,0.3
			c0.2,0.2,0.4,0.4,0.4,0.7l0,0c0.2-0.7,0.9-1.1,1.6-0.9c0.3,0,0.5,0.1,0.8,0.2c0.2,0.1,0.4,0.3,0.5,0.5c0.1,0.2,0.3,0.5,0.3,0.7
			c0,0.3,0,0.7,0,1l-0.2,2.7l-5.6-0.6C153.7,29.3,153.4,29,153.4,28.6 M158.1,26.3c-0.2,0-0.4,0-0.6,0.1c-0.2,0.2-0.2,0.4-0.2,0.6
			l-0.1,1.2l1.5,0.2l0.1-1.3c0-0.2,0-0.5-0.1-0.6C158.5,26.4,158.3,26.3,158.1,26.3 M155.5,26.2c-0.2,0-0.4,0-0.6,0.1
			c-0.1,0.2-0.2,0.4-0.2,0.6l-0.1,1.1l1.4,0.1l0.1-1.2c0-0.2,0-0.4-0.1-0.6C155.9,26.3,155.7,26.2,155.5,26.2"/>
		<path class="st9" d="M154.1,33.7c-0.4,1.8,0.1,2.2,1.7,2.4s2.1-0.2,2.1-2.1c0-0.6,0.2-0.7,1.2-0.8c0.1,0.6,0.1,1.2,0.1,1.8
			c0,0.8-0.4,1.6-1,2.1c-0.8,0.5-1.7,0.6-2.6,0.4c-2.3-0.2-3.1-1.3-2.9-3.3c0.1-0.6,0.2-1.1,0.5-1.6C154.2,33,154.3,33.1,154.1,33.7
			"/>
		<path class="st9" d="M157.8,21.3c-0.1-0.6-0.5-1.1-1-1.3l-4-0.4l-0.4,3.6l5.2,0.5L157.8,21.3z"/>
		<path class="st1" d="M79.7,32c-29.1,1.9-33.5,4-33.5,6.7c79.9,8.5,106.8-35.3,111.4,81.8C161,25.5,170.7,34.4,79.7,32z"/>
		<path class="st10" d="M42.7,51.6c0.8-0.8-1.2-11.5,6.8-14.4s48.7-2.4,48.7-2.4s47,2.1,52.4,6.7c3.2,2.5,5.3,6.1,6,10.1l1.5,67.3
			c0,0,0.5,82.6,0.2,84.5s0.3,10.8-3.8,11.7s-105.4-8.5-107.5-10.8S37.7,56.7,42.7,51.6z"/>
		<path class="st3" d="M147.6,104.8L43.9,99.2c0,0-3.8-55.5,12.8-54.7c19.5-2.9,82.7,4.4,84.5,4.9c2.8,0.7,7.5,2.2,8.6,6.3
			S146,104.3,147.6,104.8z"/>
		<path class="st3" d="M150,127c0,0-2.9-7.5-9.9-7.5s-92-4.8-92-4.8s-7.4,1.6-7.3,7.2s2.6,80.1,6.4,82.4s105.5,11.5,106.5,10.7
			S150,127,150,127z"/>
		<circle class="st11" cx="54.8" cy="56.1" r="3"/>
		<circle class="st11" cx="137.6" cy="61.5" r="3.9"/>
		<g>
			<linearGradient id="SVGID_4_" gradientUnits="userSpaceOnUse" x1="87.8234" y1="154.8137" x2="206.9302" y2="154.8137">
				<stop  offset="0" style="stop-color:#FFFFFF"/>
				<stop  offset="0.323" style="stop-color:#F2F4F6"/>
				<stop  offset="0.912" style="stop-color:#D1D9DF"/>
				<stop  offset="0.965" style="stop-color:#CED6DD"/>
			</linearGradient>
			<path class="st12" d="M87.8,95.3v119.1h119.1V95.3H87.8z M146.8,148.9c-7.2,0-13-5.8-13-13c0-7.2,5.8-13,13-13
				c7.2,0,13,5.8,13,13C159.7,143.1,153.9,148.9,146.8,148.9z"/>
			<linearGradient id="SVGID_5_" gradientUnits="userSpaceOnUse" x1="86.3969" y1="162.3619" x2="208" y2="162.3619">
				<stop  offset="0" style="stop-color:#E95653"/>
				<stop  offset="0.5437" style="stop-color:#E11E19"/>
			</linearGradient>
			<rect x="86.4" y="130.7" class="st13" width="121.6" height="63.4"/>
			<g>
				<path class="st4" d="M143.1,114.8c0,0.6-0.8,1.4-1.4,1.4c-0.4,0-1.1,0-1.1,0l0-11.3h2.6V114.8z"/>
				<path class="st4" d="M146.7,104.8 M146.1,104.8c0.3,0,3.3,0,3.3,0c1.2,0,2.2,0.3,2.8,0.8c0.6,0.5,0.9,1.2,0.9,2.1
					c0,0.6-0.1,1.2-0.4,1.5c-0.3,0.4-0.6,0.7-1.1,0.9v0c1.3,0.4,1.9,1.2,1.9,2.7c0,0.5-0.1,1-0.2,1.4c-0.2,0.4-0.4,0.7-0.7,1
					c-0.3,0.3-0.7,0.5-1.3,0.7c-0.5,0.2-1.1,0.2-1.8,0.2h-4.7c0,0,0-10,0-10C144.8,105.7,145.6,104.8,146.1,104.8z M151,112.7
					c0-0.5-0.1-0.8-0.3-1c-0.2-0.2-0.6-0.3-1.2-0.3h-2.2v2.7h2.2c0.5,0,0.9-0.1,1.1-0.3C150.9,113.6,151,113.2,151,112.7z
					 M150.7,108.2c0-0.5-0.1-0.8-0.3-0.9c-0.2-0.2-0.6-0.3-1-0.3h-2.1v2.5h2.1c0.5,0,0.8-0.1,1-0.3
					C150.6,109,150.7,108.6,150.7,108.2z"/>
				<path class="st4" d="M137.2,107c-3.2-0.5-3.9,0.6-3.9,3.5c0,2.8,0.8,3.8,4.2,3.5c1.1-0.1,1.3,0.2,1.5,1.9
					c-0.4,0.2-2,0.5-3.1,0.4c-1.7-0.1-3.1-0.5-4-1.4c-0.8-1-1.2-2.4-1.2-4.5c0-4.1,1.8-5.7,5.4-5.7c1.7,0,2.9,0.5,2.9,0.5
					C138.6,107.1,138.3,107.2,137.2,107z"/>
				<path class="st4" d="M159.8,111.3c0.8,0,2.1-1.4,2.1-2.1c0,0,0-7.1,0-7.1h-6.5v9.2H159.8z"/>
			</g>
			<g>
				<path class="st10" d="M178.5,147.6c0,0.6-0.8,1.4-1.4,1.4c-0.4,0-1.1,0-1.1,0l0-11.3h2.6V147.6z"/>
				<path class="st10" d="M182.1,137.6 M181.6,137.6c0.3,0,3.3,0,3.3,0c1.2,0,2.2,0.3,2.8,0.8c0.6,0.5,0.9,1.2,0.9,2.1
					c0,0.6-0.1,1.2-0.4,1.5c-0.3,0.4-0.6,0.7-1.1,0.9v0c1.3,0.4,1.9,1.2,1.9,2.7c0,0.5-0.1,1-0.2,1.4c-0.2,0.4-0.4,0.7-0.7,1
					c-0.3,0.3-0.7,0.5-1.2,0.7c-0.5,0.2-1.1,0.2-1.8,0.2h-4.7c0,0,0-10,0-10C180.2,138.5,181,137.6,181.6,137.6z M186.4,145.5
					c0-0.5-0.1-0.8-0.3-1c-0.2-0.2-0.6-0.3-1.2-0.3h-2.2v2.7h2.2c0.5,0,0.9-0.1,1.1-0.3C186.3,146.4,186.4,146,186.4,145.5z
					 M186.1,141c0-0.5-0.1-0.8-0.3-0.9c-0.2-0.2-0.6-0.3-1-0.3h-2.1v2.5h2.1c0.5,0,0.8-0.1,1-0.3C186,141.8,186.1,141.5,186.1,141z"
					/>
				<path class="st10" d="M172.6,139.8c-3.2-0.5-3.9,0.6-3.9,3.5c0,2.8,0.8,3.8,4.2,3.5c1.1-0.1,1.3,0.2,1.5,1.9
					c-0.4,0.2-2,0.5-3.1,0.4c-1.7-0.1-3.1-0.5-4-1.4c-0.8-1-1.2-2.4-1.2-4.5c0-4.1,1.8-5.7,5.4-5.7c1.7,0,2.9,0.5,2.9,0.5
					C174,139.9,173.7,140,172.6,139.8z"/>
				<path class="st10" d="M195.2,144.1c0.8,0,2.1-1.4,2.1-2.1c0,0,0-7.1,0-7.1h-6.5v9.2H195.2z"/>
			</g>
			<g>
				<g>
					<path class="st4" d="M108,101.9l-0.1-0.1c-0.1-0.1-0.2-0.2-0.3-0.4l-0.1-0.1l0.3-0.2l0.1,0.1c0.1,0.1,0.2,0.2,0.3,0.4l0.1,0.1
						L108,101.9z M107,100.7l-0.1-0.1c-0.1-0.1-0.2-0.2-0.3-0.4l-0.1-0.1l0.3-0.2l0.1,0.1c0.1,0.1,0.2,0.2,0.3,0.4l0.1,0.1
						L107,100.7z M106.1,99.4l-0.1-0.2c-0.1-0.1-0.2-0.3-0.3-0.4l-0.1-0.2l0.3-0.2l0.1,0.2c0.1,0.1,0.2,0.3,0.3,0.4l0.1,0.2
						L106.1,99.4z M105.3,98.1l-0.1-0.2c-0.1-0.1-0.2-0.3-0.2-0.4l-0.1-0.2l0.3-0.2l0.1,0.2c0.1,0.1,0.2,0.3,0.2,0.4l0.1,0.2
						L105.3,98.1z M104.5,96.8l-0.1-0.2c-0.1-0.1-0.1-0.3-0.2-0.4l-0.1-0.2l0.3-0.2l0.1,0.2c0.1,0.1,0.1,0.3,0.2,0.4l0.1,0.2
						L104.5,96.8z M104.1,95.2l-0.3,0.2l-0.1-0.2"/>
				</g>
				<g>
					<polygon class="st4" points="108.9,102.9 108.5,102.4 108.8,102.2 109.2,102.6 					"/>
				</g>
				<g>
					<g>
						<polygon class="st4" points="107.7,103.3 110.3,104.1 109.7,101.4 						"/>
					</g>
				</g>
			</g>
			<g>
				<g>
					<path class="st4" d="M194.2,214.4l0-0.1l0.4,0l0,0.2 M194.1,213.6l0-0.2c0-0.2-0.1-0.3-0.1-0.5l0-0.2l0.4-0.1l0,0.2
						c0,0.2,0.1,0.3,0.1,0.5l0,0.2L194.1,213.6z M193.8,212.1l0-0.2c0-0.1-0.1-0.3-0.1-0.4l-0.1-0.2l0.4-0.1l0.1,0.2
						c0,0.2,0.1,0.3,0.1,0.5l0,0.2L193.8,212.1z M193.4,210.6l-0.1-0.2c0-0.1-0.1-0.3-0.2-0.4l-0.1-0.2l0.3-0.1l0.1,0.2
						c0.1,0.1,0.1,0.3,0.2,0.4l0.1,0.2L193.4,210.6z M192.9,209.2l-0.1-0.2c-0.1-0.1-0.1-0.3-0.2-0.4l-0.1-0.2l0.3-0.2l0.1,0.2
						c0.1,0.1,0.1,0.3,0.2,0.4l0.1,0.2L192.9,209.2z M192.2,207.8l-0.1-0.2c-0.1-0.1-0.1-0.3-0.2-0.4l-0.1-0.2l0.3-0.2l0.1,0.2
						c0.1,0.1,0.1,0.3,0.2,0.4l0.1,0.2L192.2,207.8z M191.5,206.4l-0.1-0.2c-0.1-0.1-0.2-0.3-0.2-0.4l-0.1-0.2l0.3-0.2l0.1,0.2
						c0.1,0.1,0.2,0.3,0.2,0.4l0.1,0.2L191.5,206.4z M190.7,205.1l-0.1-0.2c-0.1-0.1-0.2-0.3-0.3-0.4l-0.1-0.2l0.3-0.2l0.1,0.2
						c0.1,0.1,0.2,0.3,0.3,0.4l0.1,0.2L190.7,205.1z M189.8,203.9l-0.1-0.1c-0.1-0.1-0.2-0.2-0.3-0.4l-0.1-0.1l0.3-0.2l0.1,0.1
						c0.1,0.1,0.2,0.2,0.3,0.4l0.1,0.1L189.8,203.9z M188.8,202.7l-0.1-0.1c-0.1-0.1-0.2-0.2-0.3-0.4l-0.1-0.1l0.3-0.2l0.1,0.1
						c0.1,0.1,0.2,0.2,0.3,0.4l0.1,0.1L188.8,202.7z"/>
				</g>
				<g>
					<polygon class="st4" points="187.8,201.5 187.4,201 187.7,200.8 188.1,201.2 					"/>
				</g>
				<g>
					<g>
						<polygon class="st4" points="189,200.4 186.3,199.6 187,202.3 						"/>
					</g>
				</g>
			</g>
			<line class="st14" x1="92.5" y1="129" x2="134.8" y2="129.1"/>
			<line class="st14" x1="158.5" y1="129" x2="200.9" y2="129.1"/>
			<g>
				<path class="st10" d="M93.1,188.5c-0.3,0-0.5,0-0.7-0.1c-0.2-0.1-0.4-0.2-0.6-0.4c-0.2-0.2-0.3-0.5-0.4-0.8
					c-0.1-0.3-0.1-0.8-0.1-1.3c0-0.5,0-1,0.1-1.3c0.1-0.4,0.2-0.6,0.3-0.9c0.1-0.2,0.3-0.4,0.5-0.4c0.2-0.1,0.5-0.1,0.8-0.1
					c0.3,0,0.5,0.1,0.7,0.2c0.2,0.1,0.4,0.2,0.5,0.3V181h1.4v7.4h-1.2l-0.1-0.5c-0.2,0.2-0.4,0.4-0.6,0.5
					C93.6,188.4,93.3,188.5,93.1,188.5z M93.4,187.4c0.2,0,0.3,0,0.4-0.1c0.1-0.1,0.2-0.1,0.3-0.2v-2.6c-0.1-0.1-0.2-0.1-0.3-0.2
					c-0.1-0.1-0.2-0.1-0.4-0.1c-0.1,0-0.3,0-0.3,0.1c-0.1,0-0.2,0.1-0.2,0.2c-0.1,0.1-0.1,0.3-0.1,0.5c0,0.2,0,0.5,0,0.8
					c0,0.3,0,0.6,0,0.8c0,0.2,0,0.4,0.1,0.5c0,0.1,0.1,0.2,0.2,0.2C93.2,187.3,93.3,187.4,93.4,187.4z"/>
				<path class="st10" d="M98.8,188.5c-0.7,0-1.3-0.2-1.7-0.6c-0.4-0.4-0.6-1.1-0.6-2.1c0-0.5,0.1-0.9,0.2-1.2s0.2-0.6,0.4-0.8
					c0.2-0.2,0.4-0.4,0.7-0.5c0.3-0.1,0.6-0.1,0.9-0.1c0.4,0,0.7,0.1,0.9,0.2c0.3,0.1,0.5,0.3,0.7,0.5c0.2,0.2,0.3,0.5,0.4,0.8
					c0.1,0.3,0.2,0.8,0.2,1.2c0,0.5-0.1,0.9-0.2,1.2c-0.1,0.3-0.2,0.6-0.4,0.8c-0.2,0.2-0.4,0.4-0.7,0.5
					C99.5,188.4,99.2,188.5,98.8,188.5z M98.8,187.4c0.1,0,0.3,0,0.3-0.1c0.1-0.1,0.2-0.1,0.2-0.3c0.1-0.1,0.1-0.3,0.1-0.5
					c0-0.2,0-0.5,0-0.8c0-0.3,0-0.6,0-0.8s-0.1-0.4-0.1-0.5c-0.1-0.1-0.1-0.2-0.2-0.2c-0.1,0-0.2-0.1-0.3-0.1s-0.3,0-0.3,0.1
					s-0.2,0.1-0.2,0.3c-0.1,0.1-0.1,0.3-0.1,0.5c0,0.2,0,0.5,0,0.8c0,0.3,0,0.6,0,0.8c0,0.2,0.1,0.4,0.1,0.5
					c0.1,0.1,0.1,0.2,0.2,0.3C98.6,187.4,98.7,187.4,98.8,187.4z"/>
				<path class="st10" d="M103.5,184.7l-1.7-3.3h1.8l0.8,2l0.8-2h1.7l-1.7,3.2l1.9,3.8h-1.8l-1.1-2.4l-1,2.4h-1.7L103.5,184.7z"/>
				<path class="st10" d="M108.8,182.6c-0.2,0-0.4-0.1-0.6-0.2c-0.2-0.2-0.2-0.4-0.2-0.6c0-0.2,0.1-0.4,0.2-0.6
					c0.2-0.2,0.4-0.3,0.6-0.3c0.2,0,0.4,0.1,0.6,0.3c0.2,0.2,0.3,0.4,0.3,0.6c0,0.2-0.1,0.4-0.3,0.6
					C109.2,182.5,109,182.6,108.8,182.6z M108.1,184.3l-0.6-0.1v-0.9h2v5.1h-1.4V184.3z"/>
				<path class="st10" d="M112.7,188.5c-0.8,0-1.3-0.2-1.7-0.7c-0.4-0.4-0.5-1.1-0.5-2.1c0-1,0.2-1.6,0.5-2.1
					c0.4-0.4,0.9-0.6,1.6-0.6c0.3,0,0.6,0,0.9,0.1c0.3,0.1,0.5,0.2,0.7,0.4l-0.7,0.9c-0.1-0.1-0.2-0.2-0.3-0.3
					c-0.1-0.1-0.3-0.1-0.4-0.1c-0.1,0-0.2,0-0.3,0.1c-0.1,0-0.2,0.1-0.2,0.2c-0.1,0.1-0.1,0.3-0.1,0.5c0,0.2,0,0.5,0,0.8
					c0,0.3,0,0.6,0,0.8c0,0.2,0.1,0.4,0.1,0.5c0.1,0.1,0.1,0.2,0.2,0.2c0.1,0,0.2,0.1,0.4,0.1c0.2,0,0.4,0,0.5-0.1
					c0.1-0.1,0.2-0.2,0.4-0.3l0.6,0.9c-0.2,0.2-0.4,0.3-0.7,0.4C113.3,188.4,113,188.5,112.7,188.5z"/>
				<path class="st10" d="M115.1,183.2h1.2l0.1,0.6c0.2-0.2,0.3-0.4,0.5-0.5c0.2-0.1,0.4-0.2,0.7-0.2c0.1,0,0.1,0,0.2,0
					c0.1,0,0.1,0,0.2,0l-0.3,1.4c-0.1,0-0.1-0.1-0.2-0.1c-0.1,0-0.2,0-0.3,0c-0.2,0-0.3,0-0.4,0.1c-0.1,0-0.2,0.1-0.3,0.2v3.7h-1.4
					V183.2z"/>
				<path class="st10" d="M120,188.5c-0.5,0-0.9-0.1-1.2-0.4c-0.2-0.3-0.4-0.7-0.4-1.2c0-0.6,0.2-1,0.5-1.3c0.4-0.3,0.9-0.4,1.7-0.4
					h0.3V185c0-0.3,0-0.4-0.1-0.6c-0.1-0.1-0.2-0.2-0.5-0.2c-0.2,0-0.5,0-0.7,0.1s-0.4,0.2-0.6,0.3l-0.5-1c0.3-0.2,0.6-0.3,0.9-0.5
					c0.3-0.1,0.7-0.2,1.1-0.2c0.6,0,1.1,0.1,1.4,0.4c0.3,0.3,0.4,0.7,0.4,1.3v3.6h-1.1c0,0,0,0-0.1-0.1c0-0.1-0.1-0.2-0.1-0.3
					c-0.1,0.1-0.3,0.3-0.5,0.4C120.5,188.4,120.3,188.5,120,188.5z M120.4,187.5c0.1,0,0.3,0,0.4-0.1s0.2-0.1,0.3-0.2V186H121
					c-0.2,0-0.4,0-0.6,0c-0.1,0-0.2,0.1-0.3,0.1c-0.1,0.1-0.1,0.1-0.2,0.2c0,0.1,0,0.2,0,0.4c0,0.3,0,0.4,0.1,0.5
					C120.1,187.5,120.2,187.5,120.4,187.5z"/>
				<path class="st10" d="M123.2,183.2h0.5V182l1.4-0.2v1.5h0.9v1.1h-0.9v2.6c0,0.2,0,0.4,0.1,0.4c0.1,0.1,0.2,0.1,0.3,0.1
					c0.1,0,0.2,0,0.3,0c0.1,0,0.1-0.1,0.2-0.1l0.2,1c-0.1,0.1-0.2,0.1-0.4,0.2c-0.2,0-0.3,0.1-0.6,0.1c-0.2,0-0.4,0-0.6-0.1
					c-0.2,0-0.3-0.1-0.5-0.2c-0.1-0.1-0.2-0.2-0.3-0.4c-0.1-0.2-0.1-0.4-0.1-0.6v-2.9h-0.5V183.2z"/>
				<path class="st10" d="M129.3,188.5c-0.9,0-1.5-0.2-1.9-0.6c-0.4-0.4-0.6-1.1-0.6-2.1c0-0.5,0-0.9,0.1-1.2
					c0.1-0.3,0.2-0.6,0.4-0.8c0.2-0.2,0.4-0.4,0.7-0.5c0.3-0.1,0.6-0.1,0.9-0.1c0.8,0,1.3,0.2,1.7,0.7c0.3,0.4,0.5,1.1,0.5,2.1v0.4
					h-2.8c0,0.2,0,0.4,0.1,0.6c0,0.1,0.1,0.3,0.2,0.3c0.1,0.1,0.2,0.1,0.3,0.2c0.1,0,0.2,0,0.4,0c0.2,0,0.5,0,0.6-0.1
					c0.2-0.1,0.3-0.2,0.5-0.3l0.6,0.9c-0.2,0.2-0.4,0.3-0.7,0.4C130,188.4,129.6,188.5,129.3,188.5z M129,184.1
					c-0.1,0-0.2,0-0.3,0.1c-0.1,0-0.1,0.1-0.2,0.2c-0.1,0.1-0.1,0.2-0.1,0.4c0,0.2,0,0.3-0.1,0.6h1.3c0-0.2,0-0.4,0-0.5
					c0-0.1-0.1-0.3-0.1-0.4c-0.1-0.1-0.1-0.2-0.2-0.2C129.2,184.1,129.1,184.1,129,184.1z"/>
			</g>
			<g>
				<path class="st4" d="M192.7,125.7c0-0.1,0-0.1,0-0.2c0-0.1,0-0.1,0.1-0.1c0,0,0.1-0.1,0.1-0.1c0,0,0.1-0.1,0.2-0.1
					c-0.1-0.1-0.2-0.1-0.2-0.2c-0.1-0.1-0.1-0.2-0.1-0.3c0-0.1,0-0.1,0-0.2c0-0.1,0.1-0.1,0.1-0.2c0.1,0,0.1-0.1,0.2-0.1
					c0.1,0,0.2,0,0.3,0c0.1,0,0.2,0,0.3,0c0.1,0,0.1,0.1,0.2,0.1s0.1,0.1,0.1,0.2c0,0.1,0,0.1,0,0.2c0,0.1,0,0.2-0.1,0.3
					s-0.1,0.1-0.2,0.2c0.1,0,0.1,0.1,0.2,0.1c0,0,0.1,0.1,0.1,0.1s0.1,0.1,0.1,0.1c0,0.1,0,0.1,0,0.2c0,0.1,0,0.2-0.1,0.2
					c0,0.1-0.1,0.1-0.1,0.2s-0.1,0.1-0.2,0.1c-0.1,0-0.2,0-0.3,0c-0.1,0-0.2,0-0.3,0c-0.1,0-0.2-0.1-0.2-0.1s-0.1-0.1-0.1-0.2
					C192.7,125.9,192.7,125.8,192.7,125.7z M193.1,125.7c0,0,0,0.1,0,0.1c0,0,0,0.1,0.1,0.1c0,0,0.1,0,0.1,0.1c0,0,0.1,0,0.1,0
					c0,0,0.1,0,0.1,0c0,0,0.1,0,0.1-0.1c0,0,0-0.1,0.1-0.1s0-0.1,0-0.1c0,0,0-0.1,0-0.1c0,0,0-0.1-0.1-0.1s-0.1,0-0.1-0.1
					c0,0-0.1,0-0.1,0c0,0-0.1,0-0.1,0c0,0-0.1,0-0.1,0.1s0,0.1-0.1,0.1C193.1,125.6,193.1,125.6,193.1,125.7z M193.1,124.8
					C193.1,124.8,193.2,124.8,193.1,124.8c0,0.1,0,0.2,0.1,0.2c0,0,0,0,0.1,0.1c0,0,0.1,0,0.1,0c0,0,0.1,0,0.1,0s0.1,0,0.1-0.1
					c0,0,0-0.1,0.1-0.1c0,0,0-0.1,0-0.1c0,0,0-0.1,0-0.1s0-0.1-0.1-0.1c0,0,0,0-0.1-0.1s-0.1,0-0.1,0c0,0-0.1,0-0.1,0
					s-0.1,0-0.1,0.1C193.2,124.6,193.2,124.6,193.1,124.8C193.2,124.7,193.1,124.7,193.1,124.8z"/>
				<path class="st4" d="M196.3,126.2c-0.1,0.1-0.2,0.1-0.4,0.1c-0.2,0-0.4-0.1-0.5-0.2s-0.2-0.3-0.2-0.5c0-0.2,0.1-0.4,0.2-0.6
					c0.1-0.1,0.3-0.2,0.6-0.2c0.2,0,0.3,0,0.4,0.1v0.4c-0.1-0.1-0.2-0.1-0.3-0.1c-0.1,0-0.2,0-0.3,0.1c-0.1,0.1-0.1,0.2-0.1,0.3
					c0,0.1,0,0.2,0.1,0.3c0.1,0.1,0.2,0.1,0.3,0.1c0.1,0,0.2,0,0.3-0.1V126.2z"/>
				<path class="st4" d="M198.8,126.2h-0.4v-0.8c0-0.2-0.1-0.3-0.2-0.3c-0.1,0-0.1,0-0.2,0.1c0,0.1-0.1,0.1-0.1,0.2v0.8h-0.4v-0.8
					c0-0.2-0.1-0.3-0.2-0.3c-0.1,0-0.1,0-0.2,0.1c0,0.1-0.1,0.1-0.1,0.2v0.8h-0.4v-1.4h0.4v0.2h0c0-0.1,0.1-0.1,0.2-0.2
					c0.1,0,0.2-0.1,0.3-0.1c0.2,0,0.3,0.1,0.4,0.3c0.1-0.2,0.3-0.3,0.5-0.3c0.3,0,0.5,0.2,0.5,0.6V126.2z"/>
			</g>
		</g>
	</g>
</g>
</svg>
