<svg id="Layer_1" data-name="Layer 1" xmlns="http://www.w3.org/2000/svg" xmlns:xlink="http://www.w3.org/1999/xlink" viewBox="0 0 200 200"><defs><style>.cls-1{fill:url(#linear-gradient);}.cls-2{fill:url(#linear-gradient-2);}.cls-3{fill:url(#linear-gradient-3);}.cls-4{fill:url(#linear-gradient-4);}.cls-5{fill:url(#linear-gradient-5);}.cls-6{fill:url(#linear-gradient-6);}.cls-7{fill:url(#linear-gradient-7);}.cls-8{fill:#e11e19;}.cls-10,.cls-11,.cls-12,.cls-13,.cls-14,.cls-15,.cls-16,.cls-17,.cls-9{fill:none;stroke:#e11e19;stroke-miterlimit:10;}.cls-10,.cls-11,.cls-12,.cls-15,.cls-9{stroke-linecap:round;}.cls-10,.cls-11,.cls-12,.cls-13,.cls-15,.cls-9{stroke-width:0.32px;}.cls-10{stroke-dasharray:0 0.98;}.cls-11{stroke-dasharray:0 0.98;}.cls-12{stroke-dasharray:0 0.91;}.cls-14{stroke-width:0.64px;}.cls-15{stroke-dasharray:0 0.91;}.cls-16{stroke-width:0.23px;}.cls-17{stroke-width:0.66px;}</style><linearGradient id="linear-gradient" x1="110.03" y1="77.52" x2="125.22" y2="97.81" gradientUnits="userSpaceOnUse"><stop offset="0" stop-color="#fff"/><stop offset="0.32" stop-color="#f2f4f6"/><stop offset="0.91" stop-color="#d1d9df"/><stop offset="0.96" stop-color="#ced6dd"/></linearGradient><linearGradient id="linear-gradient-2" x1="124.22" y1="99.55" x2="193.98" y2="99.55" xlink:href="#linear-gradient"/><linearGradient id="linear-gradient-3" x1="2" y1="105.95" x2="93.85" y2="105.95" xlink:href="#linear-gradient"/><linearGradient id="linear-gradient-4" x1="85.82" y1="111.35" x2="132.25" y2="111.35" gradientUnits="userSpaceOnUse"><stop offset="0" stop-color="#fff"/><stop offset="0.26" stop-color="#fafbfc"/><stop offset="0.56" stop-color="#eceff2"/><stop offset="0.88" stop-color="#d5dce2"/><stop offset="0.96" stop-color="#ced6dd"/></linearGradient><linearGradient id="linear-gradient-5" x1="160.36" y1="91.54" x2="198" y2="91.54" xlink:href="#linear-gradient"/><linearGradient id="linear-gradient-6" x1="17.06" y1="17.74" x2="182.44" y2="17.74" xlink:href="#linear-gradient"/><linearGradient id="linear-gradient-7" x1="95.11" y1="42.46" x2="182.44" y2="42.46" gradientUnits="userSpaceOnUse"><stop offset="0" stop-color="#fff"/><stop offset="0.3" stop-color="#fcfcfd"/><stop offset="0.56" stop-color="#f1f4f6"/><stop offset="0.79" stop-color="#e0e5ea"/><stop offset="0.96" stop-color="#ced6dd"/></linearGradient></defs><polygon class="cls-1" points="124.22 147.23 105.14 149.74 100.38 24.26 125.72 19.75 124.22 147.23"/><path class="cls-2" d="M179.93,38.57l-42.66-3.26-12.21,8.25-.84,103.67s18.82,1.26,21.08,1.26,31.12,7,35.38,8.53S194,163.8,194,163.8ZM179.43,140c-6,3-31.56-5.09-35.89-5.27-11.54-.51-7.28-16.07-7.53-18.07s3.77-49.44,3.77-49.44-1-7-1-8.79,34.89-8.28,35.89-8.28,3.77,24.6,5,27.36S189.27,135,179.43,140Z"/><path class="cls-3" d="M17.06,18,5,121.38l-3,52,83.82,20.58,8-163.62ZM53.45,169.57l-35.89-7.78a19,19,0,0,1-3.76-17.07c2.5-10.54,25.34-80.55,25.34-80.55s2.51-5.53,8-5.78,7.78,7,7.78,7l8.54,91.85S62,167.31,53.45,169.57Z"/><polygon class="cls-4" points="85.82 193.91 97.36 196.67 126.48 69.94 132.25 44.09 130.49 26.02 93.85 30.29 85.82 193.91"/><path class="cls-5" d="M182.19,17.24,198,164.8s-4.27,1.26-5.27,1-.5-2.76-1.76-6.52-8.28-36.14-8.28-36.14L163.87,63.91l-3.51-20.07Z"/><path class="cls-6" d="M102.64,5.19l-14.81,3s-.25-1-2.26-1-9.29,1-10,1.75-29.86,5-29.86,5a9.77,9.77,0,0,0-3-.75c-1.26,0-8.54,1.51-8.54,1.51l-.75,1L17.06,18l76.79,12.3L182.44,17Zm-9.79,13.3c-1.76,0-10.29-2-10.29-2L99.12,14l16.06,2.51s-13.8,2.51-15.05,2.76S94.6,18.49,92.85,18.49Z"/><polygon class="cls-7" points="95.11 30.14 126.73 67.93 163.37 62.16 182.44 16.98 95.11 30.14"/><path class="cls-8" d="M13.24,57.28a.33.33,0,0,1-.23-.1.23.23,0,0,1-.07-.1.27.27,0,0,1,0-.12.15.15,0,0,1,0-.07.14.14,0,0,1,0-.06l0-.06,0,0a3848702555722,3848702555722,0,0,0,.1-.08h.25l.06,0,.05,0,0,0,0,.06a.14.14,0,0,0,0,.06V57a.5.5,0,0,1,0,.12.36.36,0,0,1-.07.1A.37.37,0,0,1,13.24,57.28Z"/><path class="cls-8" d="M38.75,61.81a.32.32,0,0,1-.26-.37h0a.32.32,0,0,1,.38-.26h0a.32.32,0,0,1,.26.37h0a.33.33,0,0,1-.32.27h-.06Zm-1.27-.22a.33.33,0,0,1-.27-.38h0a.33.33,0,0,1,.38-.26h0a.33.33,0,0,1,.26.38h0a.32.32,0,0,1-.32.26h-.05Zm-1.28-.23a.33.33,0,0,1-.27-.38h0a.34.34,0,0,1,.38-.26h0a.32.32,0,0,1,.26.38h0a.32.32,0,0,1-.32.26h0Zm-1.28-.23a.31.31,0,0,1-.26-.37h0A.31.31,0,0,1,35,60.5h0a.31.31,0,0,1,.26.37h0a.31.31,0,0,1-.31.27h-.06Zm-1.28-.22a.33.33,0,0,1-.26-.38h0a.32.32,0,0,1,.37-.26h0a.32.32,0,0,1,.27.37h0a.33.33,0,0,1-.32.27h-.06Zm-1.28-.23a.33.33,0,0,1-.26-.38h0a.32.32,0,0,1,.37-.26h0a.33.33,0,0,1,.27.38h0a.33.33,0,0,1-.32.26h-.06Zm-1.28-.23a.32.32,0,0,1-.26-.37h0a.32.32,0,0,1,.37-.27h0a.33.33,0,0,1,.27.38h0a.33.33,0,0,1-.32.27h-.06Zm-1.28-.22a.34.34,0,0,1-.26-.38h0a.33.33,0,0,1,.38-.26h0a.32.32,0,0,1,.26.37h0a.33.33,0,0,1-.32.27H29.8ZM28.53,60a.33.33,0,0,1-.27-.38h0a.33.33,0,0,1,.38-.26h0a.33.33,0,0,1,.26.38h0a.32.32,0,0,1-.32.26h0Zm-1.28-.23a.33.33,0,0,1-.27-.38h0a.34.34,0,0,1,.38-.26h0a.33.33,0,0,1,.26.38h0a.31.31,0,0,1-.32.27h-.05ZM26,59.54a.31.31,0,0,1-.26-.37h0a.31.31,0,0,1,.37-.26h0a.31.31,0,0,1,.26.37h0a.31.31,0,0,1-.32.27H26Zm-1.28-.22a.32.32,0,0,1-.26-.38h0a.32.32,0,0,1,.37-.26h0a.32.32,0,0,1,.26.38h0a.31.31,0,0,1-.31.26h-.06Zm-1.28-.23a.32.32,0,0,1-.26-.37h0a.32.32,0,0,1,.37-.27h0a.33.33,0,0,1,.27.38h0a.33.33,0,0,1-.32.26h-.06Zm-1.28-.23a.32.32,0,0,1-.26-.37h0a.31.31,0,0,1,.37-.26h0a.32.32,0,0,1,.27.37h0a.33.33,0,0,1-.32.27h-.06Zm-1.28-.23a.31.31,0,0,1-.26-.37h0A.32.32,0,0,1,21,58h0a.33.33,0,0,1,.26.38h0a.33.33,0,0,1-.32.26h-.06Zm-1.28-.22a.33.33,0,0,1-.26-.38h0a.33.33,0,0,1,.38-.26h0a.33.33,0,0,1,.26.38h0a.33.33,0,0,1-.32.26h-.06Zm-1.27-.23A.33.33,0,0,1,18,57.8h0a.34.34,0,0,1,.38-.26h0a.33.33,0,0,1,.26.38h0a.32.32,0,0,1-.32.27H18.3ZM17,58a.32.32,0,0,1-.27-.37h0a.33.33,0,0,1,.38-.26h0a.32.32,0,0,1,.26.37h0a.31.31,0,0,1-.32.27H17Zm-1.28-.22a.32.32,0,0,1-.26-.38h0a.32.32,0,0,1,.37-.26h0a.32.32,0,0,1,.26.37h0a.31.31,0,0,1-.31.27h-.06Zm-1.28-.23a.32.32,0,0,1-.26-.38h0a.32.32,0,0,1,.37-.26h0a.32.32,0,0,1,.26.38h0a.31.31,0,0,1-.31.27h-.06Z"/><path class="cls-8" d="M40.09,62.05a.34.34,0,0,1-.33-.33.27.27,0,0,1,0-.12.41.41,0,0,1,.07-.11.33.33,0,0,1,.35-.07.3.3,0,0,1,.18.18.25.25,0,0,1,0,.12.32.32,0,0,1-.09.23.3.3,0,0,1-.1.07Z"/><path class="cls-8" d="M6.76,119.47a.29.29,0,0,1-.23-.1.26.26,0,0,1-.07-.1.27.27,0,0,1,0-.12s0,0,0-.07,0,0,0-.06l0,0a.29.29,0,0,1,.09-.09l0,0,.07,0a.24.24,0,0,1,.12,0l.06,0,.06,0,0,0,0,0,0,0s0,0,0,.06v.07a.28.28,0,0,1-.09.22A.29.29,0,0,1,6.76,119.47Z"/><path class="cls-8" d="M20.77,122a.32.32,0,0,1-.26-.37h0a.31.31,0,0,1,.37-.26h0a.31.31,0,0,1,.26.37h0a.31.31,0,0,1-.31.27h-.06Zm-1.28-.23a.31.31,0,0,1-.26-.37h0a.32.32,0,0,1,.37-.26h0a.32.32,0,0,1,.27.37h0a.33.33,0,0,1-.32.27h-.06Zm-1.28-.22a.32.32,0,0,1-.26-.38h0a.32.32,0,0,1,.37-.26h0a.33.33,0,0,1,.27.38h0a.33.33,0,0,1-.32.26h-.06Zm-1.28-.23a.32.32,0,0,1-.26-.37h0a.33.33,0,0,1,.38-.27h0a.33.33,0,0,1,.26.38h0a.33.33,0,0,1-.32.27h-.06Zm-1.28-.22a.34.34,0,0,1-.26-.38h0a.32.32,0,0,1,.38-.26h0a.32.32,0,0,1,.26.37h0a.33.33,0,0,1-.32.27h-.06Zm-1.27-.23a.33.33,0,0,1-.27-.38h0a.34.34,0,0,1,.38-.26h0a.33.33,0,0,1,.26.38h0a.32.32,0,0,1-.32.26h0Zm-1.29-.23a.33.33,0,0,1-.26-.38h0a.33.33,0,0,1,.38-.26h0a.33.33,0,0,1,.26.38h0a.32.32,0,0,1-.32.27h-.06Zm-1.27-.23a.31.31,0,0,1-.26-.37h0a.33.33,0,0,1,.37-.27h0a.32.32,0,0,1,.26.38h0a.32.32,0,0,1-.32.27h0Zm-1.28-.22a.34.34,0,0,1-.27-.38h0a.33.33,0,0,1,.38-.26h0a.31.31,0,0,1,.26.37h0a.31.31,0,0,1-.31.27h-.06Zm-1.28-.23a.32.32,0,0,1-.26-.38H9a.32.32,0,0,1,.37-.26h0a.33.33,0,0,1,.27.38h0a.33.33,0,0,1-.32.27H9.26ZM8,119.69a.32.32,0,0,1-.26-.37h0a.33.33,0,0,1,.38-.27h0a.34.34,0,0,1,.26.38h0a.33.33,0,0,1-.32.27H8Z"/><path class="cls-8" d="M56,65a.32.32,0,0,1-.23-.09.26.26,0,0,1-.07-.11.27.27,0,0,1,0-.12.2.2,0,0,1,0-.07.39.39,0,0,1,0-.06l0,0,0,0a.1.1,0,0,1,0,0l0,0,.06,0a.28.28,0,0,1,.13,0l.06,0,.06,0,.05,0,0,0,0,0a.08.08,0,0,0,0,.06v.07a.5.5,0,0,1,0,.12.41.41,0,0,1-.07.11A.35.35,0,0,1,56,65Z"/><path class="cls-8" d="M81.55,69.49a.33.33,0,0,1-.26-.38h0a.33.33,0,0,1,.38-.26h0a.33.33,0,0,1,.26.38h0a.33.33,0,0,1-.32.26h-.06Zm-1.27-.23a.32.32,0,0,1-.27-.37h0a.33.33,0,0,1,.38-.27h0a.34.34,0,0,1,.26.38h0a.33.33,0,0,1-.32.27h0ZM79,69a.32.32,0,0,1-.27-.37h0a.32.32,0,0,1,.38-.26h0a.31.31,0,0,1,.26.37h0a.31.31,0,0,1-.32.27h0Zm-1.28-.22a.32.32,0,0,1-.26-.38h0a.31.31,0,0,1,.37-.26h0a.32.32,0,0,1,.26.38h0a.32.32,0,0,1-.31.26h-.06Zm-1.28-.23a.32.32,0,0,1-.26-.37h0a.32.32,0,0,1,.37-.27h0a.33.33,0,0,1,.27.38h0a.34.34,0,0,1-.32.27h-.06Zm-1.28-.23A.32.32,0,0,1,74.9,68h0a.31.31,0,0,1,.37-.26h0a.32.32,0,0,1,.27.37h0a.33.33,0,0,1-.32.27h-.06Zm-1.28-.22a.33.33,0,0,1-.26-.38h0a.32.32,0,0,1,.37-.26h0a.32.32,0,0,1,.27.37h0a.33.33,0,0,1-.32.27h-.06ZM72.6,67.9a.33.33,0,0,1-.26-.38h0a.33.33,0,0,1,.38-.26h0a.33.33,0,0,1,.26.38h0a.33.33,0,0,1-.32.26H72.6Zm-1.27-.23a.32.32,0,0,1-.27-.37h0a.33.33,0,0,1,.38-.27h0a.33.33,0,0,1,.26.38h0a.32.32,0,0,1-.32.27h0Zm-1.28-.22a.33.33,0,0,1-.27-.38h0a.33.33,0,0,1,.38-.26h0a.32.32,0,0,1,.26.37h0a.31.31,0,0,1-.32.27h0Zm-1.29-.23a.32.32,0,0,1-.25-.38h0a.31.31,0,0,1,.37-.26h0a.32.32,0,0,1,.26.38h0a.32.32,0,0,1-.32.26h-.06ZM67.49,67a.32.32,0,0,1-.27-.37h0a.34.34,0,0,1,.38-.27h0a.32.32,0,0,1,.26.38h0a.32.32,0,0,1-.31.27h-.06Zm-1.28-.23a.32.32,0,0,1-.26-.37h0a.32.32,0,0,1,.37-.27h0a.33.33,0,0,1,.27.38h0a.33.33,0,0,1-.32.27h-.06Zm-1.28-.22a.33.33,0,0,1-.26-.38h0A.32.32,0,0,1,65,65.9h0a.32.32,0,0,1,.27.37h0a.33.33,0,0,1-.32.27h-.06Zm-1.28-.23a.33.33,0,0,1-.26-.38h0a.33.33,0,0,1,.38-.26h0a.33.33,0,0,1,.26.38h0a.34.34,0,0,1-.32.27h-.06Zm-1.28-.23a.32.32,0,0,1-.26-.37h0a.33.33,0,0,1,.38-.27h0a.34.34,0,0,1,.26.38h0a.33.33,0,0,1-.32.27h-.06Zm-1.27-.23a.31.31,0,0,1-.27-.37h0a.33.33,0,0,1,.38-.26h0a.32.32,0,0,1,.26.37h0a.32.32,0,0,1-.32.27h0Zm-1.29-.22a.33.33,0,0,1-.26-.38h0a.33.33,0,0,1,.38-.26h0a.32.32,0,0,1,.26.38h0a.32.32,0,0,1-.32.26h-.06Zm-1.27-.23a.32.32,0,0,1-.26-.38h0a.31.31,0,0,1,.37-.26h0a.32.32,0,0,1,.26.38h0a.32.32,0,0,1-.31.27h-.06Zm-1.28-.23A.33.33,0,0,1,57,64.8h0a.32.32,0,0,1,.38-.26h0a.31.31,0,0,1,.26.37h0a.31.31,0,0,1-.31.27h-.06Z"/><path class="cls-8" d="M82.89,69.72a.29.29,0,0,1-.23-.1.3.3,0,0,1-.1-.22.31.31,0,0,1,0-.13.36.36,0,0,1,.07-.1A.32.32,0,0,1,83,69.1a.26.26,0,0,1,.11.07.36.36,0,0,1,.07.1.27.27,0,0,1,0,.13.29.29,0,0,1-.09.22.28.28,0,0,1-.11.08Z"/><path class="cls-8" d="M84.26,70a.34.34,0,0,1-.23-.1.32.32,0,0,1-.09-.23.5.5,0,0,1,0-.12.41.41,0,0,1,.07-.11.33.33,0,0,1,.35-.07.52.52,0,0,1,.11.07.41.41,0,0,1,.07.11.27.27,0,0,1,0,.12.33.33,0,0,1-.1.23.23.23,0,0,1-.1.07A.28.28,0,0,1,84.26,70Z"/><path class="cls-8" d="M85.6,70.27a.31.31,0,0,1-.32-.32.69.69,0,0,1,0-.13.36.36,0,0,1,.07-.1.33.33,0,0,1,.35-.07.21.21,0,0,1,.11.07.36.36,0,0,1,.07.1.3.3,0,0,1,0,.13.33.33,0,0,1-.09.23l-.1.07Z"/><path class="cls-8" d="M87.13,70.62a.29.29,0,0,1-.23-.1.3.3,0,0,1-.1-.22.31.31,0,0,1,0-.13.23.23,0,0,1,.07-.1.32.32,0,0,1,.35-.07.26.26,0,0,1,.11.07.36.36,0,0,1,.07.1.51.51,0,0,1,0,.13.29.29,0,0,1-.09.22.38.38,0,0,1-.11.08Z"/><path class="cls-8" d="M61.38,130.6a.3.3,0,0,1-.22-.1.35.35,0,0,1-.08-.1.59.59,0,0,1,0-.13v-.06a.14.14,0,0,0,0-.06l0-.06,0-.05,0,0,.06,0h.06a.29.29,0,0,1,.13,0h.06l.05,0,0,0,0,.05,0,.06a.14.14,0,0,1,0,.06.13.13,0,0,1,0,.06.31.31,0,0,1,0,.13.3.3,0,0,1-.07.1A.33.33,0,0,1,61.38,130.6Z"/><path class="cls-8" d="M81.78,134.22a.31.31,0,0,1-.25-.37h0a.3.3,0,0,1,.37-.26h0a.32.32,0,0,1,.26.37h0a.32.32,0,0,1-.32.27h-.06ZM80.51,134a.32.32,0,0,1-.26-.38h0a.32.32,0,0,1,.37-.26h0a.31.31,0,0,1,.26.37h0a.32.32,0,0,1-.31.27h-.06Zm-1.28-.23a.32.32,0,0,1-.26-.38h0a.32.32,0,0,1,.37-.26h0a.32.32,0,0,1,.26.38h0a.31.31,0,0,1-.31.26h-.06ZM78,133.54a.31.31,0,0,1-.26-.37h0a.32.32,0,0,1,.37-.27h0a.33.33,0,0,1,.27.38h0a.33.33,0,0,1-.32.27H78Zm-1.28-.22a.33.33,0,0,1-.26-.38h0a.32.32,0,0,1,.38-.26h0a.32.32,0,0,1,.26.37h0a.33.33,0,0,1-.32.27h-.06Zm-1.28-.23a.33.33,0,0,1-.26-.38h0a.33.33,0,0,1,.38-.26h0a.33.33,0,0,1,.26.38h0a.33.33,0,0,1-.32.26h-.06Zm-1.28-.23a.33.33,0,0,1-.26-.38h0a.33.33,0,0,1,.38-.26h0a.33.33,0,0,1,.26.38h0a.32.32,0,0,1-.32.27h-.06Zm-1.28-.23a.32.32,0,0,1-.26-.37h0A.33.33,0,0,1,73,132h0a.33.33,0,0,1,.26.38h0a.32.32,0,0,1-.32.27h-.06Zm-1.27-.22a.33.33,0,0,1-.27-.38h0a.32.32,0,0,1,.38-.26h0a.32.32,0,0,1,.26.37h0a.32.32,0,0,1-.32.27h0Zm-1.28-.23a.33.33,0,0,1-.27-.38h0a.34.34,0,0,1,.38-.26h0a.32.32,0,0,1,.26.38h0a.32.32,0,0,1-.31.27h-.06ZM69,132a.32.32,0,0,1-.26-.37h0a.32.32,0,0,1,.37-.27h0a.33.33,0,0,1,.27.38h0a.33.33,0,0,1-.32.27H69Zm-1.28-.23a.31.31,0,0,1-.26-.37h0a.32.32,0,0,1,.37-.26h0a.32.32,0,0,1,.27.37h0a.33.33,0,0,1-.32.27h-.06Zm-1.28-.22a.32.32,0,0,1-.26-.38h0a.33.33,0,0,1,.38-.26h0a.33.33,0,0,1,.26.38h0a.33.33,0,0,1-.32.26h-.06Zm-1.28-.23a.33.33,0,0,1-.26-.38h0a.33.33,0,0,1,.38-.26h0a.33.33,0,0,1,.26.38h0a.32.32,0,0,1-.32.27h-.06ZM63.88,131a.32.32,0,0,1-.26-.37h0a.32.32,0,0,1,.38-.26h0a.32.32,0,0,1,.26.37h0a.32.32,0,0,1-.32.27h-.06Zm-1.28-.22a.33.33,0,0,1-.26-.38h0a.33.33,0,0,1,.38-.26h0a.32.32,0,0,1,.26.37h0a.32.32,0,0,1-.32.27H62.6Z"/><line class="cls-9" x1="24.08" y1="19.62" x2="24.08" y2="19.62"/><path class="cls-10" d="M24.23,20.59a48.27,48.27,0,0,0,1.94,8.1"/><line class="cls-9" x1="26.35" y1="29.15" x2="26.35" y2="29.15"/><polygon class="cls-8" points="25.16 29.38 27.22 30.66 27.3 28.24 25.16 29.38"/><line class="cls-9" x1="77.12" y1="106.29" x2="77.12" y2="106.29"/><path class="cls-11" d="M78,106.71c2.35,1,9.26,2.66,18.38-5.15"/><line class="cls-9" x1="96.75" y1="101.23" x2="96.75" y2="101.23"/><polygon class="cls-8" points="97.27 102.35 98.03 100.05 95.66 100.54 97.27 102.35"/><line class="cls-9" x1="190.05" y1="88.34" x2="190.05" y2="88.34"/><path class="cls-12" d="M189.19,88.09a8.16,8.16,0,0,1-3.4-2.19"/><line class="cls-9" x1="185.51" y1="85.54" x2="185.51" y2="85.54"/><polygon class="cls-8" points="186.79 85.21 184.7 83.99 184.69 86.42 186.79 85.21"/><ellipse class="cls-13" cx="79.42" cy="102.37" rx="2.38" ry="2.82"/><ellipse class="cls-14" cx="142.96" cy="39.57" rx="4.43" ry="5.94"/><path class="cls-8" d="M79.85,101.82a.75.75,0,0,0,0-.23.55.55,0,0,0-.1-.17.39.39,0,0,0-.16-.1.65.65,0,0,0-.2,0,.62.62,0,0,0-.32.09,1.22,1.22,0,0,0-.29.23v-.27a1.12,1.12,0,0,1,.29-.19.78.78,0,0,1,.35-.07h.06l.06,0a.67.67,0,0,1,.24.07.49.49,0,0,1,.18.14.7.7,0,0,1,.11.21.86.86,0,0,1,0,.28,1,1,0,0,1,0,.31,1.23,1.23,0,0,1-.12.26,1.24,1.24,0,0,1-.19.22,2.54,2.54,0,0,1-.24.2l-.26.21a1.35,1.35,0,0,0-.17.17.55.55,0,0,0-.11.17.48.48,0,0,0,0,.18.11.11,0,0,0,0,0v.06h1.24v.22H78.65v-.13a1,1,0,0,1,0-.32,1.15,1.15,0,0,1,.12-.25,1.56,1.56,0,0,1,.22-.23l.31-.26.22-.19a.9.9,0,0,0,.16-.19.67.67,0,0,0,.1-.21A.88.88,0,0,0,79.85,101.82Z"/><line class="cls-9" x1="8.34" y1="93.57" x2="8.34" y2="93.57"/><path class="cls-15" d="M8.79,94.35c.68.93,2.21,2.3,5.29,2"/><line class="cls-9" x1="14.53" y1="96.33" x2="14.53" y2="96.33"/><path class="cls-8" d="M13.51,93.28V90.84a.48.48,0,0,1-.09.11l-.1.1-.11.08-.1.07V91a1.17,1.17,0,0,0,.27-.2,2.47,2.47,0,0,0,.24-.29h0v2.79Z"/><ellipse class="cls-16" cx="13.52" cy="91.86" rx="1.41" ry="2.48"/><polyline class="cls-17" points="140.87 40.49 142.71 42.33 145.22 37.31"/><path class="cls-8" d="M83.42,66.3a2.46,2.46,0,0,1,0-.26,2.17,2.17,0,0,1,.07-.24,1.28,1.28,0,0,1,.11-.2,1.06,1.06,0,0,1,.15-.15.93.93,0,0,1-.2-.3,1.3,1.3,0,0,1-.07-.41,1.15,1.15,0,0,1,0-.33.89.89,0,0,1,.12-.26.46.46,0,0,1,.17-.17.4.4,0,0,1,.21-.07.44.44,0,0,1,.22.07.46.46,0,0,1,.17.17,1,1,0,0,1,.12.26,1.66,1.66,0,0,1,0,.33,1.07,1.07,0,0,1-.08.41.91.91,0,0,1-.19.3,1.06,1.06,0,0,1,.15.15,1.28,1.28,0,0,1,.11.2,2.17,2.17,0,0,1,.07.24,2.46,2.46,0,0,1,0,.26,1.61,1.61,0,0,1,0,.39,1.42,1.42,0,0,1-.13.3.64.64,0,0,1-.2.2.46.46,0,0,1-.26.07.45.45,0,0,1-.25-.07.76.76,0,0,1-.2-.2,1,1,0,0,1-.13-.3A1.61,1.61,0,0,1,83.42,66.3Zm.24,0a2.46,2.46,0,0,0,0,.28.76.76,0,0,0,.08.2.4.4,0,0,0,.13.13.22.22,0,0,0,.16.05.23.23,0,0,0,.15-.05.4.4,0,0,0,.13-.13,1,1,0,0,0,.08-.21,1.14,1.14,0,0,0,0-.27.84.84,0,0,0-.1-.46.58.58,0,0,0-.12-.14.27.27,0,0,0-.16-.06.3.3,0,0,0-.16,0,.41.41,0,0,0-.12.14.66.66,0,0,0-.08.21A1.09,1.09,0,0,0,83.66,66.27Zm.07-1.5a.68.68,0,0,0,0,.21.75.75,0,0,0,.07.18.52.52,0,0,0,.1.11.2.2,0,0,0,.13,0,.19.19,0,0,0,.12,0,.4.4,0,0,0,.1-.12.8.8,0,0,0,.1-.38.78.78,0,0,0,0-.22.87.87,0,0,0-.07-.17.36.36,0,0,0-.1-.11.19.19,0,0,0-.12,0,.18.18,0,0,0-.13,0,.43.43,0,0,0-.11.12.56.56,0,0,0-.06.17A.71.71,0,0,0,83.73,64.77Z"/><path class="cls-8" d="M86.71,67.1a.52.52,0,0,1-.38.16.55.55,0,0,1-.48-.32,2.11,2.11,0,0,1,0-1.75.59.59,0,0,1,.52-.35.52.52,0,0,1,.32.11v.38a.43.43,0,0,0-.33-.18.41.41,0,0,0-.35.26,1.75,1.75,0,0,0,0,1.3.39.39,0,0,0,.35.24.46.46,0,0,0,.34-.2Z"/><path class="cls-8" d="M89,67.21h-.22V65.88a1.81,1.81,0,0,0-.07-.56.25.25,0,0,0-.24-.17c-.09,0-.17.07-.24.22a1.18,1.18,0,0,0-.1.52v1.32h-.22V65.83c0-.45-.11-.68-.32-.68s-.17.07-.24.21a1.3,1.3,0,0,0-.09.53v1.32H87V64.89h.22v.37h0c.09-.28.24-.42.42-.42a.3.3,0,0,1,.25.13.86.86,0,0,1,.15.35q.15-.48.45-.48c.31,0,.46.31.46.94Z"/><path class="cls-8" d="M76.07,128.2a.37.37,0,0,0,0-.21.38.38,0,0,0-.06-.16.25.25,0,0,0-.12-.11.44.44,0,0,0-.16-.06h-.15l-.15,0-.15.08a.81.81,0,0,0-.14.12l0-.33a.72.72,0,0,1,.27-.15.92.92,0,0,1,.34,0,1.06,1.06,0,0,1,.25.09.69.69,0,0,1,.18.16.64.64,0,0,1,.11.25.8.8,0,0,1,0,.31,1.28,1.28,0,0,1-.07.28,1,1,0,0,1-.13.22.85.85,0,0,1-.19.19,1.8,1.8,0,0,1-.25.18l-.29.19a.79.79,0,0,0-.19.15.48.48,0,0,0-.11.15.47.47,0,0,0-.06.19l1.13.16,0,.27-1.39-.2v-.13a1.84,1.84,0,0,1,.08-.3.79.79,0,0,1,.14-.23,1.46,1.46,0,0,1,.22-.2l.33-.22a1.53,1.53,0,0,0,.23-.17.8.8,0,0,0,.16-.16.54.54,0,0,0,.1-.18A.72.72,0,0,0,76.07,128.2Z"/><path class="cls-8" d="M78.12,129.13a2.9,2.9,0,0,1-.14.58,1.74,1.74,0,0,1-.21.41.72.72,0,0,1-.27.23.57.57,0,0,1-.34,0,.51.51,0,0,1-.29-.13.73.73,0,0,1-.19-.28,1.73,1.73,0,0,1-.08-.43,2.93,2.93,0,0,1,0-.57,3.88,3.88,0,0,1,.13-.6A1.38,1.38,0,0,1,77,128a.76.76,0,0,1,.27-.24.57.57,0,0,1,.34,0C78.08,127.75,78.25,128.23,78.12,129.13Zm-.27,0c.11-.75,0-1.14-.3-1.19s-.54.31-.65,1.07,0,1.09.32,1.14S77.75,129.85,77.85,129.12Z"/><path class="cls-8" d="M80.32,130.72a.78.78,0,0,1-.46.07.71.71,0,0,1-.52-.35,1,1,0,0,1-.11-.71,1.14,1.14,0,0,1,.34-.71.72.72,0,0,1,.65-.19.82.82,0,0,1,.36.14l0,.31a.59.59,0,0,0-.36-.2.48.48,0,0,0-.44.15.87.87,0,0,0-.23.52.78.78,0,0,0,.07.54.5.5,0,0,0,.37.25.61.61,0,0,0,.42-.11Z"/><path class="cls-8" d="M83,131.2l-.26,0,.16-1.08a.93.93,0,0,0,0-.46.27.27,0,0,0-.26-.18.33.33,0,0,0-.31.13.86.86,0,0,0-.18.41L82,131.05l-.26,0,.16-1.12c.06-.37,0-.57-.28-.6a.32.32,0,0,0-.31.12.73.73,0,0,0-.17.42L81,130.9l-.26,0L81,129l.25,0,0,.3h0a.55.55,0,0,1,.55-.27.46.46,0,0,1,.27.15.52.52,0,0,1,.13.31.59.59,0,0,1,.59-.32c.36.06.5.34.43.85Z"/><path class="cls-8" d="M40.58,50.88a1.33,1.33,0,0,1-.56-.2,1,1,0,0,1-.36-.46,2.11,2.11,0,0,1-.13-.78,5.32,5.32,0,0,1,.13-1.16,8.75,8.75,0,0,1,.34-1.2,2.78,2.78,0,0,1,.41-.74,1.09,1.09,0,0,1,.51-.34,1.37,1.37,0,0,1,.61,0,1.07,1.07,0,0,1,.52.22,2,2,0,0,1,.31.36l.5-2.34,1.1.17-1.35,6.67-.92-.14v-.45a2.13,2.13,0,0,1-.54.35A1,1,0,0,1,40.58,50.88Zm.51-1a.74.74,0,0,0,.34,0,1.51,1.51,0,0,0,.28-.15l.47-2.32A.6.6,0,0,0,42,47.2a.55.55,0,0,0-.29-.13.68.68,0,0,0-.29,0,.42.42,0,0,0-.21.19,1.82,1.82,0,0,0-.17.43,7.08,7.08,0,0,0-.18.73c-.06.29-.1.52-.12.7a1.67,1.67,0,0,0,0,.44.36.36,0,0,0,.12.23A.6.6,0,0,0,41.09,49.9Z"/><path class="cls-8" d="M45.13,51.55a1.54,1.54,0,0,1-1.2-.77,3,3,0,0,1-.09-2,4.47,4.47,0,0,1,.34-1.1,2.18,2.18,0,0,1,.49-.69,1.39,1.39,0,0,1,.63-.34,2,2,0,0,1,.77,0,1.93,1.93,0,0,1,.71.25,1.34,1.34,0,0,1,.46.51,2.11,2.11,0,0,1,.19.82A5.76,5.76,0,0,1,47,50.48a2.26,2.26,0,0,1-.48.7,1.42,1.42,0,0,1-.63.35A2.18,2.18,0,0,1,45.13,51.55Zm.18-.94a.51.51,0,0,0,.28,0,.49.49,0,0,0,.22-.21,2.45,2.45,0,0,0,.18-.46c0-.19.1-.44.16-.73s.1-.56.12-.75a1.66,1.66,0,0,0,0-.46.35.35,0,0,0-.13-.24.57.57,0,0,0-.26-.1.63.63,0,0,0-.28,0,.51.51,0,0,0-.22.2,2.61,2.61,0,0,0-.18.45c0,.19-.11.44-.17.75s-.09.54-.11.73a1.83,1.83,0,0,0,0,.47.4.4,0,0,0,.13.25A.51.51,0,0,0,45.31,50.61Z"/><path class="cls-8" d="M49.43,48.67l-.74-3.18,1.36.21.3,1.86,1-1.66,1.29.2-1.86,2.7.91,3.58-1.38-.2-.45-2.27-1.2,2-1.32-.19Z"/><path class="cls-8" d="M53.89,47.46a.57.57,0,0,1-.43-.29.79.79,0,0,1-.09-.57.85.85,0,0,1,.29-.52.61.61,0,0,1,.51-.15.6.6,0,0,1,.43.3.79.79,0,0,1,.09.57.82.82,0,0,1-.29.51A.62.62,0,0,1,53.89,47.46Zm-.82,1.4-.44-.19.16-.83,1.55.24-.79,4.58-1.11-.16Z"/><path class="cls-8" d="M56.07,53.15a1.52,1.52,0,0,1-1.22-.78,3.24,3.24,0,0,1-.11-1.9,3.11,3.11,0,0,1,.74-1.77,1.51,1.51,0,0,1,1.34-.36,1.72,1.72,0,0,1,.67.24,1.57,1.57,0,0,1,.48.48l-.68.74a1.18,1.18,0,0,0-.23-.29.56.56,0,0,0-.32-.14.61.61,0,0,0-.27,0,.42.42,0,0,0-.21.17,1.4,1.4,0,0,0-.17.4c-.05.18-.1.41-.15.7s-.07.52-.09.71a1.48,1.48,0,0,0,0,.45.48.48,0,0,0,.15.25.66.66,0,0,0,.28.1.68.68,0,0,0,.39,0,2.08,2.08,0,0,0,.33-.2l.34.9a1.78,1.78,0,0,1-.58.3A1.69,1.69,0,0,1,56.07,53.15Z"/><path class="cls-8" d="M58.69,48.75l.89.13,0,.54a1.48,1.48,0,0,1,.5-.38,1,1,0,0,1,.56-.07l.17,0,.13.05-.39,1.23a.66.66,0,0,0-.17-.12.74.74,0,0,0-.21-.07,1,1,0,0,0-.34,0,1.68,1.68,0,0,0-.28.13l-.5,3.24L58,53.3Z"/><path class="cls-8" d="M61.79,54a1,1,0,0,1-.85-.52,1.79,1.79,0,0,1-.12-1.11,1.41,1.41,0,0,1,.59-1.08,2.14,2.14,0,0,1,1.37-.14l.25,0,0-.17a1,1,0,0,0,0-.51c0-.12-.15-.19-.33-.22a1.36,1.36,0,0,0-.57,0,3.16,3.16,0,0,0-.54.2l-.26-.91a2.86,2.86,0,0,1,.76-.3,2.29,2.29,0,0,1,.87,0,1.49,1.49,0,0,1,1,.5A1.52,1.52,0,0,1,64.18,51l-.45,3.18L62.85,54s0,0,0-.12,0-.16,0-.25a1.6,1.6,0,0,1-.43.28A1,1,0,0,1,61.79,54Zm.44-.81a.5.5,0,0,0,.3,0,.79.79,0,0,0,.23-.14l.16-1.06h-.06a2.25,2.25,0,0,0-.43,0,.58.58,0,0,0-.27.08.43.43,0,0,0-.15.2,1.16,1.16,0,0,0-.08.31,1,1,0,0,0,0,.49A.34.34,0,0,0,62.23,53.17Z"/><path class="cls-8" d="M65,49.72l.41.06.16-1.11,1.13,0L66.51,50l.74.11-.14.95-.73-.11-.32,2.26a.65.65,0,0,0,0,.39.29.29,0,0,0,.21.13.47.47,0,0,0,.21,0l.15,0,0,.87-.33.09a1.51,1.51,0,0,1-.47,0,1.81,1.81,0,0,1-.46-.12.83.83,0,0,1-.33-.24.91.91,0,0,1-.19-.38,1.74,1.74,0,0,1,0-.56l.36-2.55-.4-.06Z"/><path class="cls-8" d="M69.08,55.05a1.9,1.9,0,0,1-1.41-.78,2.88,2.88,0,0,1-.22-1.9,4.09,4.09,0,0,1,.26-1.07,2,2,0,0,1,.43-.67,1.17,1.17,0,0,1,.58-.33,1.91,1.91,0,0,1,.72,0,1.46,1.46,0,0,1,1.2.77,3.37,3.37,0,0,1,.15,1.88l-.05.36L68.59,53a3,3,0,0,0,0,.51.86.86,0,0,0,.1.32.44.44,0,0,0,.2.18,1.07,1.07,0,0,0,.3.09,1.21,1.21,0,0,0,.51,0,2.1,2.1,0,0,0,.42-.22l.38.9a1.62,1.62,0,0,1-.62.29A1.87,1.87,0,0,1,69.08,55.05Zm.28-3.86a.49.49,0,0,0-.24,0,.37.37,0,0,0-.17.14,1.42,1.42,0,0,0-.14.3,3.32,3.32,0,0,0-.11.49l1,.16c0-.19,0-.34,0-.47a1.06,1.06,0,0,0,0-.33.39.39,0,0,0-.13-.2A.43.43,0,0,0,69.36,51.19Z"/><path class="cls-8" d="M133.81,56.55a1.2,1.2,0,0,1-.54,0,.84.84,0,0,1-.42-.34,2.42,2.42,0,0,1-.28-.73,6,6,0,0,1-.14-1.18,8.82,8.82,0,0,1,0-1.29,3.26,3.26,0,0,1,.19-.85,1.17,1.17,0,0,1,.35-.49,1.27,1.27,0,0,1,.53-.22.8.8,0,0,1,.49.06,1.21,1.21,0,0,1,.35.25l-.13-2.45,1-.18.41,7-.83.15-.11-.44a2.25,2.25,0,0,1-.39.51A1,1,0,0,1,133.81,56.55Zm.22-1.13a.69.69,0,0,0,.3-.13,1.21,1.21,0,0,0,.21-.24l-.13-2.43a.66.66,0,0,0-.21-.15.41.41,0,0,0-.27,0,.52.52,0,0,0-.25.11.53.53,0,0,0-.14.25,2.72,2.72,0,0,0,0,.48c0,.2,0,.46,0,.77s0,.54.05.73a1.67,1.67,0,0,0,.09.43.34.34,0,0,0,.15.19A.42.42,0,0,0,134,55.42Z"/><path class="cls-8" d="M137.94,55.79a1.18,1.18,0,0,1-1.22-.39,3.35,3.35,0,0,1-.54-1.9,5.65,5.65,0,0,1,0-1.19,2.67,2.67,0,0,1,.25-.85,1.42,1.42,0,0,1,.46-.53,1.72,1.72,0,0,1,.65-.27,1.49,1.49,0,0,1,.67,0,1.07,1.07,0,0,1,.52.37,2.22,2.22,0,0,1,.37.74,5.55,5.55,0,0,1,.2,1.16,5.17,5.17,0,0,1,0,1.19,2.75,2.75,0,0,1-.25.85,1.44,1.44,0,0,1-.46.54A1.59,1.59,0,0,1,137.94,55.79Zm-.07-1a.49.49,0,0,0,.25-.12.56.56,0,0,0,.13-.28,2.3,2.3,0,0,0,.05-.51c0-.21,0-.47,0-.78s0-.58-.09-.78a2.09,2.09,0,0,0-.11-.45.39.39,0,0,0-.17-.2.41.41,0,0,0-.25,0,.45.45,0,0,0-.24.11.49.49,0,0,0-.14.26,2.29,2.29,0,0,0,0,.5c0,.21,0,.47,0,.8s.05.56.08.76a2.39,2.39,0,0,0,.11.46.41.41,0,0,0,.18.22A.41.41,0,0,0,137.87,54.8Z"/><path class="cls-8" d="M140.94,51.56l-1.45-2.92,1.2-.23.75,1.75.38-2L143,48l-.86,3.29,1.72,3.31-1.24.23-1-2.14-.52,2.42-1.19.22Z"/><path class="cls-8" d="M144.4,48.92a.46.46,0,0,1-.44-.16.84.84,0,0,1-.23-.53,1.06,1.06,0,0,1,.1-.62.54.54,0,0,1,.38-.32.48.48,0,0,1,.44.16.84.84,0,0,1,.24.54,1,1,0,0,1-.1.61A.58.58,0,0,1,144.4,48.92Zm-.31,1.67-.42-.06-.1-.88,1.38-.26.57,4.87-1,.19Z"/><path class="cls-8" d="M147.82,54a1.23,1.23,0,0,1-1.26-.4,3.72,3.72,0,0,1-.61-1.89,4,4,0,0,1,.13-2,1.33,1.33,0,0,1,1-.8,1.21,1.21,0,0,1,.63,0,1.57,1.57,0,0,1,.54.33l-.36,1a1.08,1.08,0,0,0-.28-.22.46.46,0,0,0-.31,0,.54.54,0,0,0-.23.1.38.38,0,0,0-.12.23,1.53,1.53,0,0,0,0,.46,6.5,6.5,0,0,0,.07.75,6.59,6.59,0,0,0,.12.75,1.85,1.85,0,0,0,.14.45.48.48,0,0,0,.2.2.4.4,0,0,0,.27,0,.52.52,0,0,0,.32-.16,3.13,3.13,0,0,0,.23-.31l.53.81a1.46,1.46,0,0,1-.41.48A1.19,1.19,0,0,1,147.82,54Z"/><path class="cls-8" d="M148.79,48.65l.79-.15.17.53a1.56,1.56,0,0,1,.31-.54.75.75,0,0,1,.44-.26l.15,0h.13l0,1.38a.55.55,0,0,0-.18-.06.34.34,0,0,0-.2,0,.66.66,0,0,0-.28.11,1.37,1.37,0,0,0-.2.21l.51,3.48-1,.18Z"/><path class="cls-8" d="M152.94,53a.86.86,0,0,1-.88-.27,2.24,2.24,0,0,1-.43-1.09,1.78,1.78,0,0,1,.19-1.3,1.7,1.7,0,0,1,1.11-.59l.21,0,0-.18A1.38,1.38,0,0,0,153,49a.32.32,0,0,0-.35-.11,1.05,1.05,0,0,0-.46.23,3.41,3.41,0,0,0-.39.37l-.49-.84a2.36,2.36,0,0,1,.54-.55,1.67,1.67,0,0,1,.72-.3,1.17,1.17,0,0,1,1,.17,1.9,1.9,0,0,1,.51,1.16l.58,3.42-.78.15,0-.12c0-.07-.07-.16-.11-.25a1.52,1.52,0,0,1-.28.43A.85.85,0,0,1,152.94,53Zm.13-1a.41.41,0,0,0,.24-.13.83.83,0,0,0,.16-.21l-.19-1.15h0a1.31,1.31,0,0,0-.38.12.49.49,0,0,0-.2.17.55.55,0,0,0-.07.25,2.47,2.47,0,0,0,0,.35,1.15,1.15,0,0,0,.16.49A.27.27,0,0,0,153.07,52Z"/><path class="cls-8" d="M154.35,47.57l.35-.07-.21-1.19.91-.42.26,1.42.64-.12.19,1-.64.12.44,2.44a.91.91,0,0,0,.14.4.25.25,0,0,0,.22.07.75.75,0,0,0,.18-.08l.11-.09.3.89a1.82,1.82,0,0,1-.25.2,1.16,1.16,0,0,1-.4.14,1.27,1.27,0,0,1-.43,0,.67.67,0,0,1-.35-.14,1,1,0,0,1-.27-.33,2.24,2.24,0,0,1-.17-.58l-.49-2.75-.36.07Z"/><path class="cls-8" d="M159.43,51.76a1.52,1.52,0,0,1-1.43-.35,3.68,3.68,0,0,1-.8-1.9,7.12,7.12,0,0,1-.12-1.19,2.56,2.56,0,0,1,.14-.85,1.14,1.14,0,0,1,.38-.52,1.24,1.24,0,0,1,.58-.26,1.2,1.2,0,0,1,1.24.4,4.42,4.42,0,0,1,.74,1.9l.08.39-1.89.37a2.84,2.84,0,0,0,.16.53.82.82,0,0,0,.18.31.46.46,0,0,0,.22.13.75.75,0,0,0,.29,0,.79.79,0,0,0,.41-.2,3.44,3.44,0,0,0,.28-.36l.6.81a1.52,1.52,0,0,1-.41.51A1.44,1.44,0,0,1,159.43,51.76Zm-1-4.11a.44.44,0,0,0-.18.09.3.3,0,0,0-.1.2,1.21,1.21,0,0,0,0,.35,4.85,4.85,0,0,0,.07.55l.9-.18c0-.2-.08-.36-.12-.5a1.06,1.06,0,0,0-.14-.32.35.35,0,0,0-.41-.19Z"/></svg>