<svg id="Layer_1" data-name="Layer 1" xmlns="http://www.w3.org/2000/svg" xmlns:xlink="http://www.w3.org/1999/xlink" viewBox="0 0 200 200"><defs><style>.cls-1{fill:url(#linear-gradient);}.cls-2{fill:url(#linear-gradient-2);}.cls-3{fill:url(#linear-gradient-3);}.cls-4{fill:url(#linear-gradient-4);}.cls-5{fill:none;}.cls-6{fill:url(#linear-gradient-5);}.cls-7{fill:url(#linear-gradient-6);}.cls-8{fill:url(#linear-gradient-7);}.cls-9{fill:url(#linear-gradient-8);}.cls-10{fill:#fff;}.cls-11{fill:#1d1e1c;}.cls-12{fill:url(#linear-gradient-9);}.cls-13{fill:url(#linear-gradient-10);}.cls-14{fill:#dee3e8;}.cls-15{fill:url(#linear-gradient-11);}.cls-16{fill:url(#linear-gradient-12);}.cls-17{fill:url(#linear-gradient-13);}.cls-18{fill:url(#linear-gradient-14);}.cls-19{fill:url(#linear-gradient-15);}.cls-20{fill:url(#linear-gradient-16);}.cls-21{fill:url(#linear-gradient-17);}.cls-22{fill:url(#linear-gradient-18);}.cls-23{fill:url(#linear-gradient-19);}.cls-24{fill:url(#linear-gradient-20);}.cls-25{fill:url(#linear-gradient-21);}</style><linearGradient id="linear-gradient" x1="-1750.48" y1="-238.71" x2="-1750.07" y2="-238.73" gradientTransform="matrix(-0.27, -146.08, 146.08, -0.27, 34508.19, -255590.8)" gradientUnits="userSpaceOnUse"><stop offset="0" stop-color="#fff"/><stop offset="0.27" stop-color="#f7f9fa"/><stop offset="0.69" stop-color="#e2e7eb"/><stop offset="1" stop-color="#ced6dd"/></linearGradient><linearGradient id="linear-gradient-2" x1="-149.08" y1="131.97" x2="-56.07" y2="79.13" gradientTransform="matrix(1, 0, 0, -1, 172.84, 192.51)" gradientUnits="userSpaceOnUse"><stop offset="0" stop-color="#fff"/><stop offset="0.3" stop-color="#fcfcfd"/><stop offset="0.56" stop-color="#f1f4f6"/><stop offset="0.79" stop-color="#e0e5ea"/><stop offset="0.96" stop-color="#ced6dd"/></linearGradient><linearGradient id="linear-gradient-3" x1="-156.26" y1="76.78" x2="-13.86" y2="76.78" gradientTransform="matrix(1, 0, 0, -1, 172.84, 192.51)" gradientUnits="userSpaceOnUse"><stop offset="0" stop-color="#fff"/><stop offset="0.32" stop-color="#f2f4f6"/><stop offset="0.91" stop-color="#d1d9df"/><stop offset="0.96" stop-color="#ced6dd"/></linearGradient><linearGradient id="linear-gradient-4" x1="-102.03" y1="79.94" x2="-42.2" y2="101.16" gradientTransform="matrix(1, 0, 0, -1, 172.84, 192.51)" gradientUnits="userSpaceOnUse"><stop offset="0" stop-color="#fff"/><stop offset="0.26" stop-color="#fafbfc"/><stop offset="0.56" stop-color="#eceff2"/><stop offset="0.88" stop-color="#d5dce2"/><stop offset="0.96" stop-color="#ced6dd"/></linearGradient><linearGradient id="linear-gradient-5" x1="-1748.06" y1="-249.99" x2="-1747.82" y2="-249.88" gradientTransform="matrix(0.93, 494.67, -494.67, 0.93, -121867.06, 864953.92)" xlink:href="#linear-gradient-3"/><linearGradient id="linear-gradient-6" x1="-15.34" y1="119.03" x2="16.9" y2="126.37" gradientTransform="matrix(1, 0, 0, -1, 172.84, 192.51)" gradientUnits="userSpaceOnUse"><stop offset="0" stop-color="#fff"/><stop offset="0.5" stop-color="#e8ebef"/><stop offset="0.96" stop-color="#ced6dd"/></linearGradient><linearGradient id="linear-gradient-7" x1="-98.31" y1="138.69" x2="23.18" y2="187.66" gradientTransform="matrix(1, 0, 0, -1, 172.84, 192.51)" gradientUnits="userSpaceOnUse"><stop offset="0" stop-color="#fff"/><stop offset="0.31" stop-color="#f2f4f6"/><stop offset="0.89" stop-color="#d1d9df"/><stop offset="0.94" stop-color="#ced6dd"/></linearGradient><linearGradient id="linear-gradient-8" x1="-99.6" y1="143.45" x2="-16.11" y2="174.72" gradientTransform="matrix(1, 0, 0, -1, 172.84, 192.51)" gradientUnits="userSpaceOnUse"><stop offset="0" stop-color="#e95653"/><stop offset="0.1" stop-color="#e64440"/><stop offset="0.25" stop-color="#e32f2a"/><stop offset="0.39" stop-color="#e2221d"/><stop offset="0.52" stop-color="#e11e19"/></linearGradient><linearGradient id="linear-gradient-9" x1="-1749.43" y1="-239.02" x2="-1749.18" y2="-238.39" gradientTransform="matrix(-0.27, -146.08, 146.08, -0.27, 34508.19, -255590.8)" xlink:href="#linear-gradient-3"/><linearGradient id="linear-gradient-10" x1="-103.56" y1="169.91" x2="-68.59" y2="169.91" xlink:href="#linear-gradient-3"/><linearGradient id="linear-gradient-11" x1="-125.49" y1="156.96" x2="-127.05" y2="124.69" gradientTransform="matrix(1, 0, 0, -1, 172.84, 192.51)" gradientUnits="userSpaceOnUse"><stop offset="0" stop-color="#fff"/><stop offset="0.3" stop-color="#f4f6f8"/><stop offset="0.83" stop-color="#d8dfe4"/><stop offset="1" stop-color="#ced6dd"/></linearGradient><linearGradient id="linear-gradient-12" x1="-87.72" y1="168.53" x2="-88.54" y2="173.1" gradientTransform="matrix(1, 0, 0, -1, 172.84, 192.51)" gradientUnits="userSpaceOnUse"><stop offset="0" stop-color="#fff"/><stop offset="0.5" stop-color="#e7ebef"/><stop offset="0.96" stop-color="#ced6dd"/></linearGradient><linearGradient id="linear-gradient-13" x1="-78.7" y1="166.91" x2="-76.91" y2="172.95" xlink:href="#linear-gradient-12"/><linearGradient id="linear-gradient-14" x1="18.85" y1="155.83" x2="24.33" y2="155.83" gradientTransform="translate(16.17 7.1) rotate(0.54)" xlink:href="#linear-gradient-8"/><linearGradient id="linear-gradient-15" x1="12.93" y1="152.56" x2="19.72" y2="152.56" gradientTransform="translate(16.17 7.1) rotate(0.54)" xlink:href="#linear-gradient-8"/><linearGradient id="linear-gradient-16" x1="40.12" y1="164.21" x2="45.6" y2="164.21" gradientTransform="translate(16.17 7.1) rotate(0.54)" xlink:href="#linear-gradient-8"/><linearGradient id="linear-gradient-17" x1="33.87" y1="160.19" x2="39.91" y2="160.19" gradientTransform="translate(16.17 7.1) rotate(0.54)" xlink:href="#linear-gradient-8"/><linearGradient id="linear-gradient-18" x1="30.92" y1="160.04" x2="34.3" y2="160.04" gradientTransform="translate(16.17 7.1) rotate(0.54)" xlink:href="#linear-gradient-8"/><linearGradient id="linear-gradient-19" x1="23.72" y1="156.98" x2="32.05" y2="156.98" gradientTransform="translate(16.17 7.1) rotate(0.54)" xlink:href="#linear-gradient-8"/><linearGradient id="linear-gradient-20" x1="33.03" y1="154.53" x2="35.03" y2="154.53" gradientTransform="translate(16.17 7.1) rotate(0.54)" xlink:href="#linear-gradient-8"/><linearGradient id="linear-gradient-21" x1="44.72" y1="166.38" x2="51.68" y2="166.38" gradientTransform="translate(16.17 7.1) rotate(0.54)" xlink:href="#linear-gradient-8"/></defs><polygon class="cls-1" points="180.92 144.57 110.44 122.45 47.98 149.34 74.62 180.99 89.27 198.13 180.92 144.57"/><polygon class="cls-2" points="112.14 2.01 26.79 33.66 16.54 165.81 110.13 122.76 110.75 122.14 112.14 2.01"/><polygon class="cls-3" points="88.93 198.11 16.54 165.81 26.79 33.78 68.74 43.26 88.93 198.11"/><polyline class="cls-4" points="68.74 43.26 83.79 37.77 88.83 176.01 85.92 177.62 68.74 43.26"/><polyline class="cls-5" points="68.74 43.26 83.79 37.77 88.83 176.01 86.25 177.56 68.74 43.26"/><polygon class="cls-6" points="154.64 11.73 112.25 2.01 110.44 122.45 181 144.41 154.64 11.73"/><polygon class="cls-7" points="176.74 131.05 178.33 131.05 154.64 11.73 141.08 16.69 176.74 131.05"/><polygon class="cls-8" points="157.1 33.41 74.28 66.42 68.74 43.26 154.64 11.73 157.1 33.41"/><polygon class="cls-9" points="155.99 24.27 72.18 56.98 68.96 43.32 154.48 11.97 155.99 24.27"/><path class="cls-10" d="M96.6,47.85a2.06,2.06,0,0,1-.85.15,1.34,1.34,0,0,1-.76-.28,2.79,2.79,0,0,1-.69-.8,6.36,6.36,0,0,1-.62-1.41,9.4,9.4,0,0,1-.41-1.58,3.45,3.45,0,0,1,0-1.11,1.44,1.44,0,0,1,.41-.74,2.23,2.23,0,0,1,.75-.46,1.51,1.51,0,0,1,.81-.11,2.34,2.34,0,0,1,.64.18l-1-3,1.52-.59,2.85,8.54L98,47.13l-.32-.53a3.08,3.08,0,0,1-.44.77A1.6,1.6,0,0,1,96.6,47.85Zm0-1.48A1.17,1.17,0,0,0,97,46.1a1.85,1.85,0,0,0,.25-.37l-1-3a1.14,1.14,0,0,0-.37-.11,1,1,0,0,0-.8.29.54.54,0,0,0-.14.36,2.43,2.43,0,0,0,.07.61c.06.25.16.57.28,1s.24.68.33.89a1.83,1.83,0,0,0,.29.53.47.47,0,0,0,.29.18,1,1,0,0,0,.34-.09Z"/><path class="cls-10" d="M102.76,45.44a2.26,2.26,0,0,1-2,0,3.76,3.76,0,0,1-1.44-2.18A5.81,5.81,0,0,1,99,41.72a2.74,2.74,0,0,1,.15-1.14,2.1,2.1,0,0,1,.57-.84,3.36,3.36,0,0,1,1-.56,2.81,2.81,0,0,1,1.07-.22,1.82,1.82,0,0,1,.94.26,2.62,2.62,0,0,1,.79.8,6.85,6.85,0,0,1,1,2.87,3,3,0,0,1-.14,1.15,2.2,2.2,0,0,1-.57.84A3.29,3.29,0,0,1,102.76,45.44Zm-.39-1.21a.81.81,0,0,0,.34-.24.62.62,0,0,0,.13-.4,2,2,0,0,0-.08-.64c-.06-.26-.15-.58-.28-1a7.6,7.6,0,0,0-.36-.94,1.92,1.92,0,0,0-.32-.53.44.44,0,0,0-.32-.18.89.89,0,0,0-.4.07,1,1,0,0,0-.35.22.62.62,0,0,0-.14.39,2.22,2.22,0,0,0,.08.63,8.65,8.65,0,0,0,.29,1,9.33,9.33,0,0,0,.34.93,2.2,2.2,0,0,0,.32.53.62.62,0,0,0,.34.2.79.79,0,0,0,.4-.05Z"/><path class="cls-10" d="M106.29,39.07l-3.08-3.15,1.87-.73,1.64,1.93.12-2.63,1.79-.7-.58,4.45,3.52,3.56-1.88.73-2.06-2.3-.19,3.2-1.79.7Z"/><path class="cls-10" d="M111.17,34.47a.89.89,0,0,1-.75,0,1.06,1.06,0,0,1-.49-.59,1.16,1.16,0,0,1,0-.82,1,1,0,0,1,.55-.53.9.9,0,0,1,.75,0,1.09,1.09,0,0,1,.47,1.4,1,1,0,0,1-.55.54Zm-.12,2.22-.68.08L110,35.72l2.15-.84,2,6-1.52.59Z"/><path class="cls-10" d="M118.28,39.4a1.64,1.64,0,0,1-.88.1,2.2,2.2,0,0,1-.73-.26l.06.6-1.25.48-2.84-8.54,1.52-.59,1,3a2.63,2.63,0,0,1,.38-.56,1.71,1.71,0,0,1,.69-.49A2.3,2.3,0,0,1,117,33a1.3,1.3,0,0,1,.74.26,2.51,2.51,0,0,1,.66.79,7,7,0,0,1,.61,1.4,9.13,9.13,0,0,1,.4,1.62,3.07,3.07,0,0,1,0,1.13,1.44,1.44,0,0,1-.4.77A2.07,2.07,0,0,1,118.28,39.4Zm-.94-1.12a1,1,0,0,0,.34-.22.59.59,0,0,0,.13-.37,2.12,2.12,0,0,0-.07-.61c-.06-.25-.15-.56-.28-.95s-.24-.67-.33-.88a1.62,1.62,0,0,0-.29-.53.45.45,0,0,0-.3-.18.74.74,0,0,0-.36.06,1,1,0,0,0-.41.27,2.26,2.26,0,0,0-.26.37l1,3a1.27,1.27,0,0,0,.37.1A1,1,0,0,0,117.34,38.28Z"/><path class="cls-10" d="M123.39,37.41a2.28,2.28,0,0,1-2,0,3.75,3.75,0,0,1-1.43-2.18,5.83,5.83,0,0,1-.32-1.49,2.79,2.79,0,0,1,.15-1.14,2,2,0,0,1,.57-.83,3.18,3.18,0,0,1,1-.57,3.06,3.06,0,0,1,1.08-.22,1.79,1.79,0,0,1,.93.26,2.77,2.77,0,0,1,.8.8,6.64,6.64,0,0,1,.95,2.87,2.81,2.81,0,0,1-.15,1.15,2.07,2.07,0,0,1-.56.84A3.36,3.36,0,0,1,123.39,37.41ZM123,36.2a1,1,0,0,0,.35-.23.73.73,0,0,0,.13-.4,2.82,2.82,0,0,0-.08-.65c-.07-.26-.16-.58-.29-1s-.22-.63-.35-.94a2.2,2.2,0,0,0-.32-.53.48.48,0,0,0-.33-.18,1.08,1.08,0,0,0-.75.29.61.61,0,0,0-.13.39,2.33,2.33,0,0,0,.07.64c.06.25.16.58.29,1a9.38,9.38,0,0,0,.35.93,2.17,2.17,0,0,0,.31.53.66.66,0,0,0,.34.2.82.82,0,0,0,.41,0Z"/><path class="cls-10" d="M126.61,32.37l-2.4-2.19,1.77-.69.55.6a4.72,4.72,0,0,1,.41.5l.33.44h0a3.15,3.15,0,0,0,0-.53c0-.22,0-.45,0-.68l0-.85,1.71-.66-.6,3.31,2.73,2.59-1.76.69-.8-.88c-.15-.17-.29-.33-.41-.49l-.3-.4h0v.5a4,4,0,0,1,0,.69l-.1,1.23-1.71.66Z"/><path class="cls-11" d="M97.82,53.73a2.11,2.11,0,0,0,.23-.19.56.56,0,0,0,.14-.2.77.77,0,0,0,.07-.26,2,2,0,0,0,0-.35l-.1,0-1.68-2.39.46-.18,1,1.42c.07.09.13.21.21.34s.14.24.19.33h0a1.57,1.57,0,0,0,0-.37,1.24,1.24,0,0,1,0-.43l-.09-1.76.44-.17.11,3.1a4.68,4.68,0,0,1,0,.53,1.21,1.21,0,0,1-.11.37.7.7,0,0,1-.19.26l-.3.23Z"/><path class="cls-11" d="M100.83,51.8a1,1,0,0,1-.45.08.81.81,0,0,1-.4-.12,1.24,1.24,0,0,1-.36-.36,2.7,2.7,0,0,1-.29-.62,2.6,2.6,0,0,1-.15-.67,1.57,1.57,0,0,1,.06-.53.89.89,0,0,1,.23-.38,1.58,1.58,0,0,1,.39-.24,1.12,1.12,0,0,1,.45-.08.78.78,0,0,1,.41.12,1.17,1.17,0,0,1,.35.35,2.19,2.19,0,0,1,.29.62,2.67,2.67,0,0,1,.15.68,1.19,1.19,0,0,1-.06.53.89.89,0,0,1-.23.37A1.18,1.18,0,0,1,100.83,51.8Zm-.13-.37a.68.68,0,0,0,.23-.14.46.46,0,0,0,.12-.24,1,1,0,0,0,0-.35,4,4,0,0,0-.34-1,1,1,0,0,0-.21-.28.36.36,0,0,0-.24-.09.57.57,0,0,0-.26,0,.7.7,0,0,0-.23.15.4.4,0,0,0-.12.23,1.09,1.09,0,0,0,0,.36,4.59,4.59,0,0,0,.34,1,1.46,1.46,0,0,0,.21.28.52.52,0,0,0,.23.1.86.86,0,0,0,.27,0Z"/><path class="cls-11" d="M103.16,50.88a.6.6,0,0,1-.8-.31.65.65,0,0,1,0-.13l-.7-2.09.43-.16.65,1.93a.51.51,0,0,0,.19.3.28.28,0,0,0,.28,0,.56.56,0,0,0,.27-.21,2,2,0,0,0,.22-.34l-.68-2,.43-.17.9,2.7-.33.13-.18-.31a1.76,1.76,0,0,1-.24.42A.8.8,0,0,1,103.16,50.88Z"/><path class="cls-11" d="M104.05,47.4l.33-.13.2.35a1.9,1.9,0,0,1,.21-.43.72.72,0,0,1,.35-.27h.09l.12.52h-.16a.74.74,0,0,0-.27.19,1.27,1.27,0,0,0-.2.31l.67,2-.43.17Z"/><path class="cls-11" d="M108.41,48.83a1.33,1.33,0,0,1-.49.09,1,1,0,0,1-.41-.06l.06-.41a1.21,1.21,0,0,0,.38.06.75.75,0,0,0,.36-.07.45.45,0,0,0,.31-.24.38.38,0,0,0,0-.33.37.37,0,0,0-.08-.18.38.38,0,0,0-.13-.09.58.58,0,0,0-.19,0h-.55a.63.63,0,0,1-.47-.26A.9.9,0,0,1,107,47a1,1,0,0,1,0-.3.72.72,0,0,1,.06-.29.7.7,0,0,1,.19-.26,1.09,1.09,0,0,1,.33-.19,1.46,1.46,0,0,1,.41-.11,1.29,1.29,0,0,1,.34,0l0,.43a1.71,1.71,0,0,0-.32,0,.77.77,0,0,0-.26.07c-.27.1-.36.26-.29.49a1.09,1.09,0,0,0,.08.15.24.24,0,0,0,.12.07.45.45,0,0,0,.16,0h.55a.75.75,0,0,1,.29.06.88.88,0,0,1,.24.19,1,1,0,0,1,.18.35.82.82,0,0,1,0,.7A1.13,1.13,0,0,1,108.41,48.83Z"/><path class="cls-11" d="M110.82,47.88a.91.91,0,0,1-.86-.05,1.88,1.88,0,0,1-.61-1,2.65,2.65,0,0,1-.15-.69,1.31,1.31,0,0,1,0-.52.93.93,0,0,1,.23-.37,1.1,1.1,0,0,1,.4-.24,1.3,1.3,0,0,1,.4-.09,1.19,1.19,0,0,1,.41.11l-.15.43a.79.79,0,0,0-.27-.1.68.68,0,0,0-.28,0,.64.64,0,0,0-.22.14.48.48,0,0,0-.12.22,1,1,0,0,0,0,.35,5.08,5.08,0,0,0,.15.52,4.34,4.34,0,0,0,.2.5.83.83,0,0,0,.21.28.32.32,0,0,0,.23.09.66.66,0,0,0,.27-.06.48.48,0,0,0,.23-.17,2,2,0,0,0,.14-.25l.37.2a1.1,1.1,0,0,1-.23.37A1.05,1.05,0,0,1,110.82,47.88Z"/><path class="cls-11" d="M112.77,47.1a.71.71,0,0,1-.62,0,.93.93,0,0,1-.41-.56.89.89,0,0,1,0-.78,1.61,1.61,0,0,1,.81-.57l.2-.08-.07-.21a1.59,1.59,0,0,0-.07-.2.45.45,0,0,0-.1-.13.2.2,0,0,0-.14-.06.54.54,0,0,0-.21,0,1,1,0,0,0-.35.22,2.72,2.72,0,0,0-.29.3l-.29-.29a3,3,0,0,1,.35-.36,1.61,1.61,0,0,1,.48-.3.79.79,0,0,1,.62,0,.84.84,0,0,1,.4.52l.66,2-.34.14-.15-.24a1.35,1.35,0,0,1-.19.33A.64.64,0,0,1,112.77,47.1Zm-.07-.4a.55.55,0,0,0,.29-.23,1.4,1.4,0,0,0,.15-.3l-.24-.71-.15.06a2.53,2.53,0,0,0-.37.18.58.58,0,0,0-.19.19.31.31,0,0,0,0,.21,1.31,1.31,0,0,0,.06.27.59.59,0,0,0,.2.33.32.32,0,0,0,.3,0Z"/><path class="cls-11" d="M113.42,43.73l.33-.13.18.31a1.86,1.86,0,0,1,.25-.43,1,1,0,0,1,.37-.27.6.6,0,0,1,.49,0,.66.66,0,0,1,.34.44l.71,2.1-.43.17-.66-2a.51.51,0,0,0-.17-.29.34.34,0,0,0-.26,0,.65.65,0,0,0-.28.21,1.79,1.79,0,0,0-.22.34l.68,2-.43.17Z"/><path class="cls-11" d="M116,42.74l.33-.13.18.31a1.86,1.86,0,0,1,.25-.43.86.86,0,0,1,.38-.27.57.57,0,0,1,.48,0,.66.66,0,0,1,.34.43l.71,2.11-.43.17-.66-2a.51.51,0,0,0-.17-.29.3.3,0,0,0-.26,0,.67.67,0,0,0-.28.22,2,2,0,0,0-.22.34l.68,2-.43.17Z"/><path class="cls-11" d="M120.35,44.15a.93.93,0,0,1-.86,0,1.73,1.73,0,0,1-.63-1,2.67,2.67,0,0,1-.15-.68,1.35,1.35,0,0,1,.05-.53.87.87,0,0,1,.22-.37,1.23,1.23,0,0,1,.79-.32.77.77,0,0,1,.37.12,1.33,1.33,0,0,1,.33.34,3.24,3.24,0,0,1,.27.6l.05.18-1.46.57c.06.15.12.3.19.44a.91.91,0,0,0,.2.24.29.29,0,0,0,.22.07.67.67,0,0,0,.28-.06.72.72,0,0,0,.31-.21,1.38,1.38,0,0,0,.19-.28l.35.25a1.23,1.23,0,0,1-.73.63Zm-.88-2.44a.45.45,0,0,0-.29.29,1.41,1.41,0,0,0,0,.29,1.86,1.86,0,0,0,.08.41l1-.38a2.5,2.5,0,0,0-.15-.38.65.65,0,0,0-.16-.21.37.37,0,0,0-.2-.07.53.53,0,0,0-.25.05Z"/><path class="cls-11" d="M120.78,40.84l.34-.14.19.36a1.56,1.56,0,0,1,.21-.43.73.73,0,0,1,.35-.28H122l.12.53h-.15a.68.68,0,0,0-.28.18,1.49,1.49,0,0,0-.2.31l.67,2-.43.17Z"/><path class="cls-11" d="M123.41,39.82l.29-.11-.23-.69.39-.27.27.79.51-.2.13.37-.51.2.59,1.77c.06.16.15.22.29.17a.42.42,0,0,0,.14-.09l.11-.1.2.32a1.07,1.07,0,0,1-.16.14.78.78,0,0,1-.2.11.74.74,0,0,1-.49,0,.52.52,0,0,1-.32-.38l-.61-1.82-.28.11Z"/><path class="cls-11" d="M127,41.53a1.32,1.32,0,0,1-.44.08.82.82,0,0,1-.4-.13,1,1,0,0,1-.36-.36,2.34,2.34,0,0,1-.29-.62,2.51,2.51,0,0,1-.15-.67,1.35,1.35,0,0,1,.06-.53.8.8,0,0,1,.23-.37,1.24,1.24,0,0,1,.39-.25,1.32,1.32,0,0,1,.44-.08.73.73,0,0,1,.41.12,1.24,1.24,0,0,1,.36.36,2.84,2.84,0,0,1,.29.61,2.67,2.67,0,0,1,.15.68,1.35,1.35,0,0,1-.06.53.91.91,0,0,1-.24.37A1.16,1.16,0,0,1,127,41.53Zm-.12-.38a.79.79,0,0,0,.23-.14.51.51,0,0,0,.12-.23,1.09,1.09,0,0,0,0-.36,3.18,3.18,0,0,0-.14-.53,2.41,2.41,0,0,0-.21-.5,1.1,1.1,0,0,0-.2-.28.42.42,0,0,0-.24-.09.58.58,0,0,0-.26,0,.59.59,0,0,0-.23.14.35.35,0,0,0-.12.23,1.09,1.09,0,0,0,0,.36,3.18,3.18,0,0,0,.14.53,3,3,0,0,0,.2.49,1,1,0,0,0,.21.28.4.4,0,0,0,.23.1.86.86,0,0,0,.27-.05Z"/><path class="cls-11" d="M131.08,41a1.31,1.31,0,0,1-.85.11.67.67,0,0,1-.41-.44.62.62,0,0,1,0-.38A1.68,1.68,0,0,1,130,40a.45.45,0,0,1-.3-.3.77.77,0,0,1,0-.37.94.94,0,0,1,.12-.3.72.72,0,0,1-.34-.19,1,1,0,0,1-.22-.39.93.93,0,0,1,0-.75,1,1,0,0,1,.58-.48l.21-.06h.2l.73-.29.09.28-.3.23a1,1,0,0,1,.24.4.85.85,0,0,1,0,.73,1,1,0,0,1-.57.46,1.15,1.15,0,0,1-.33.09,1.17,1.17,0,0,0,0,.2.54.54,0,0,0,0,.18s0,.07.07.08a.14.14,0,0,0,.15,0l.44-.16a1,1,0,0,1,.71-.07.67.67,0,0,1,.43.49.9.9,0,0,1,0,.72A1.26,1.26,0,0,1,131.08,41Zm-.83-2.37a.5.5,0,0,0,.29-.24.56.56,0,0,0-.11-.74.47.47,0,0,0-.53,0,.51.51,0,0,0-.29.25.66.66,0,0,0,0,.44.41.41,0,0,0,.46.37h0a.34.34,0,0,0,.14,0Zm0,1.37a.79.79,0,0,0-.06.22.54.54,0,0,0,0,.25,1.42,1.42,0,0,0,.08.18.3.3,0,0,0,.13.09.46.46,0,0,0,.2,0l.3-.09c.4-.16.55-.39.44-.7,0-.14-.11-.21-.2-.23a.66.66,0,0,0-.34.06Z"/><path class="cls-11" d="M133.29,39.08a1.42,1.42,0,0,1-.45.08.93.93,0,0,1-.4-.12,1.37,1.37,0,0,1-.36-.36,2.7,2.7,0,0,1-.29-.62,2.67,2.67,0,0,1-.15-.68,1.54,1.54,0,0,1,.06-.52.78.78,0,0,1,.23-.38,1.21,1.21,0,0,1,.39-.24,1.12,1.12,0,0,1,.44-.09.93.93,0,0,1,.41.12,1.23,1.23,0,0,1,.36.36,2.34,2.34,0,0,1,.29.62,2.58,2.58,0,0,1,.15.68,1.16,1.16,0,0,1-.06.52,1,1,0,0,1-.24.38A1.19,1.19,0,0,1,133.29,39.08Zm-.13-.38a.79.79,0,0,0,.23-.14.51.51,0,0,0,.12-.23,1.09,1.09,0,0,0,0-.36,4.15,4.15,0,0,0-.34-1,1.46,1.46,0,0,0-.21-.28.42.42,0,0,0-.24-.09.58.58,0,0,0-.26,0,.59.59,0,0,0-.23.14.35.35,0,0,0-.12.23,1.09,1.09,0,0,0,0,.36,3.46,3.46,0,0,0,.14.53,3,3,0,0,0,.2.49,1.21,1.21,0,0,0,.21.28.43.43,0,0,0,.23.1.81.81,0,0,0,.27,0Z"/><polygon class="cls-12" points="154.36 11.7 112.02 2 27.06 33.77 68.62 43.2 153.92 11.89 154.36 11.7"/><polygon class="cls-13" points="93.77 26.58 103.88 22.76 87.55 18.93 77.39 22.75 93.77 26.58"/><polygon class="cls-10" points="93.54 25.8 101.85 22.78 88.43 19.77 80.08 22.78 93.54 25.8"/><polygon class="cls-14" points="29.81 35.41 27.21 34.27 29 47.48 67.72 56.66 67.9 43.03 29.81 35.41"/><polygon class="cls-15" points="26.74 33.66 26.58 33.54 28.91 46.67 66.68 55.15 67.31 42.91 26.74 33.66"/><polygon class="cls-16" points="85.24 24.06 88.5 22.66 88.49 19.73 80.08 22.76 85.24 24.06"/><polygon class="cls-17" points="88.38 22.98 95.97 25.08 101.89 22.76 88.42 19.77 88.38 22.98"/><polygon class="cls-10" points="93.65 25.85 97.35 24.58 88.42 22.43 84.45 23.86 93.65 25.85"/><path class="cls-18" d="M39,162.34a8.18,8.18,0,0,1-.28,1.8,7.75,7.75,0,0,1-.62,1.66,3.06,3.06,0,0,1-.79,1,1.61,1.61,0,0,1-.95.35,2.38,2.38,0,0,1-.68-.08,2.49,2.49,0,0,1-.41-.14,2.67,2.67,0,0,1-1.59-1.63,5.65,5.65,0,0,1,.12-3.18,8,8,0,0,1,.62-1.66,2.9,2.9,0,0,1,.79-1,1.59,1.59,0,0,1,.94-.34,2.76,2.76,0,0,1,1.1.22,3,3,0,0,1,1,.63,2.48,2.48,0,0,1,.59,1A3.9,3.9,0,0,1,39,162.34Zm-2,1.07c.13-.48.22-.88.27-1.18a2.93,2.93,0,0,0,0-.74.81.81,0,0,0-.15-.43.91.91,0,0,0-.37-.24l-.13,0a.51.51,0,0,0-.27,0,.55.55,0,0,0-.34.25,2.94,2.94,0,0,0-.31.66c-.1.29-.21.68-.33,1.15s-.21.85-.27,1.15a3.06,3.06,0,0,0,0,.76.76.76,0,0,0,.15.46.83.83,0,0,0,.36.25l.12,0a.58.58,0,0,0,.29,0,.64.64,0,0,0,.34-.27,2.74,2.74,0,0,0,.31-.68c.1-.29.21-.67.33-1.13"/><path class="cls-19" d="M32.92,154.35l1.56.63-2.69,10.3-1.28-.52,0-.72a2.65,2.65,0,0,1-.81.38,1.27,1.27,0,0,1-.58,0l-.23-.08a2.12,2.12,0,0,1-.76-.51,1.86,1.86,0,0,1-.45-.86,4,4,0,0,1-.09-1.3,9.08,9.08,0,0,1,.32-1.82,12,12,0,0,1,.61-1.82,3.52,3.52,0,0,1,.66-1.05,1.18,1.18,0,0,1,.75-.38,1.64,1.64,0,0,1,.57,0,1.82,1.82,0,0,1,.3.11,1.7,1.7,0,0,1,.72.53A3.56,3.56,0,0,1,32,158Zm-2.22,8.5.93-3.59a1.48,1.48,0,0,0-.23-.4.9.9,0,0,0-.4-.29l-.14,0a.64.64,0,0,0-.27,0,.51.51,0,0,0-.32.24,3,3,0,0,0-.3.64q-.15.42-.33,1.11c-.11.44-.2.81-.25,1.09a2.82,2.82,0,0,0-.07.7.67.67,0,0,0,.14.41.69.69,0,0,0,.33.22A.58.58,0,0,0,30,163a.71.71,0,0,0,.32,0,1.39,1.39,0,0,0,.42-.14"/><path class="cls-20" d="M60.21,170.92a7.68,7.68,0,0,1-.29,1.8,7.28,7.28,0,0,1-.61,1.66,3.06,3.06,0,0,1-.79,1,1.63,1.63,0,0,1-.94.35,2.4,2.4,0,0,1-.69-.08,3.84,3.84,0,0,1-.41-.13,2.69,2.69,0,0,1-1.59-1.64,5.65,5.65,0,0,1,.12-3.18,7.86,7.86,0,0,1,.62-1.65,2.74,2.74,0,0,1,.79-1,1.59,1.59,0,0,1,.94-.34,2.34,2.34,0,0,1,.68.08,2.21,2.21,0,0,1,.41.14,2.9,2.9,0,0,1,1,.63,2.38,2.38,0,0,1,.6,1A3.9,3.9,0,0,1,60.21,170.92Zm-2,1.07a12,12,0,0,0,.27-1.18,2.91,2.91,0,0,0,0-.74.81.81,0,0,0-.15-.43.91.91,0,0,0-.37-.24l-.14,0a.51.51,0,0,0-.27,0,.56.56,0,0,0-.33.25,2.56,2.56,0,0,0-.31.66c-.1.29-.21.68-.34,1.15s-.21.85-.26,1.15a3.75,3.75,0,0,0-.06.76.92.92,0,0,0,.15.46,1,1,0,0,0,.36.25l.13,0a.48.48,0,0,0,.29,0,.64.64,0,0,0,.34-.27,3.16,3.16,0,0,0,.31-.68c.1-.29.21-.67.33-1.13"/><path class="cls-21" d="M54.53,168.4a9.36,9.36,0,0,1-.33,1.81,11.6,11.6,0,0,1-.61,1.84,3.73,3.73,0,0,1-.68,1.06,1.28,1.28,0,0,1-.77.41,1.73,1.73,0,0,1-.59-.05l-.3-.1a1.79,1.79,0,0,1-.76-.6,3,3,0,0,1-.44-.82l-.3.61L48.47,172l2.7-10.3,1.56.63-.94,3.6a2.12,2.12,0,0,1,.64-.23,1.35,1.35,0,0,1,.63,0l.2.07a2.24,2.24,0,0,1,.76.5,1.71,1.71,0,0,1,.44.82A3.82,3.82,0,0,1,54.53,168.4Zm-1.77.14a2.62,2.62,0,0,0,.05-.7.66.66,0,0,0-.14-.4.72.72,0,0,0-.32-.23l-.15-.05a.79.79,0,0,0-.34,0,1.3,1.3,0,0,0-.42.14l-.94,3.6a2.06,2.06,0,0,0,.24.39.94.94,0,0,0,.41.28l.13.05a.64.64,0,0,0,.27,0,.56.56,0,0,0,.32-.25,2.48,2.48,0,0,0,.3-.63q.15-.42.33-1.11c.11-.44.2-.81.26-1.1"/><polygon class="cls-22" points="46.43 164.69 46.77 163.4 48.98 164.29 47.1 171.48 45.53 170.85 47.02 165.15 46.43 164.69"/><polygon class="cls-23" points="41.18 158.27 43.11 159.05 43.3 162.16 44.92 159.78 46.76 160.53 43.7 164.29 44.45 170.41 42.51 169.63 42.22 165.79 40.2 168.69 38.36 167.94 41.83 163.65 41.18 158.27"/><path class="cls-24" d="M49.62,161.37a1.5,1.5,0,0,1,.05,1,1.17,1.17,0,0,1-.49.73.77.77,0,0,1-.65.12l-.11,0a1,1,0,0,1-.58-.62,1.47,1.47,0,0,1-.05-.95,1.19,1.19,0,0,1,.49-.75.77.77,0,0,1,.65-.12l.11,0A1,1,0,0,1,49.62,161.37Z"/><path class="cls-25" d="M61.37,169.31l1.82.73.09,1a7.72,7.72,0,0,1,0,.79v.67c.07-.11.16-.28.28-.51a5.59,5.59,0,0,1,.39-.65l.53-.76,1.76.71L63.88,174l.68,4.58-1.82-.73-.13-1.47c0-.28,0-.55,0-.79v-.62h0c-.08.15-.17.31-.28.49s-.24.39-.42.63l-.8,1.08-1.76-.71L62,173.26Z"/></svg>