<svg id="Ebene_1" data-name="Ebene 1" xmlns="http://www.w3.org/2000/svg" xmlns:xlink="http://www.w3.org/1999/xlink" viewBox="0 0 500 500"><defs><style>.cls-1,.cls-11,.cls-15,.cls-16,.cls-17,.cls-39,.cls-40,.cls-41,.cls-44,.cls-45{fill:none;}.cls-2{clip-path:url(#clip-path);}.cls-3{fill:url(#linear-gradient);}.cls-4{clip-path:url(#clip-path-2);}.cls-5{fill:url(#linear-gradient-2);}.cls-6{clip-path:url(#clip-path-3);}.cls-7{fill:url(#linear-gradient-3);}.cls-8{clip-path:url(#clip-path-4);}.cls-9{fill:url(#linear-gradient-4);}.cls-10,.cls-12,.cls-18{fill:#e11e19;}.cls-11,.cls-15,.cls-16,.cls-17,.cls-39,.cls-40{stroke:#e11e19;}.cls-11,.cls-15,.cls-16,.cls-17,.cls-39,.cls-40,.cls-41,.cls-44,.cls-45{stroke-miterlimit:10;}.cls-11{stroke-width:0.35px;}.cls-12,.cls-18{isolation:isolate;font-family:SegoeUI-Semibold, Segoe UI;font-weight:600;}.cls-12{font-size:6.37px;}.cls-13{clip-path:url(#clip-path-5);}.cls-14{fill:url(#linear-gradient-5);}.cls-15,.cls-16{stroke-width:1.03px;}.cls-16{stroke-dasharray:1.07 1.07;}.cls-17{stroke-width:0.51px;}.cls-18{font-size:6.63px;}.cls-19{clip-path:url(#clip-path-6);}.cls-20{fill:url(#linear-gradient-6);}.cls-21{clip-path:url(#clip-path-7);}.cls-22{fill:url(#linear-gradient-7);}.cls-23{clip-path:url(#clip-path-8);}.cls-24{fill:url(#linear-gradient-8);}.cls-25{clip-path:url(#clip-path-9);}.cls-26{fill:url(#linear-gradient-9);}.cls-27{clip-path:url(#clip-path-10);}.cls-28{fill:url(#linear-gradient-10);}.cls-29{clip-path:url(#clip-path-11);}.cls-30{fill:url(#linear-gradient-11);}.cls-31{clip-path:url(#clip-path-12);}.cls-32{fill:url(#linear-gradient-12);}.cls-33{clip-path:url(#clip-path-13);}.cls-34{fill:url(#linear-gradient-13);}.cls-35{clip-path:url(#clip-path-14);}.cls-36{fill:url(#linear-gradient-14);}.cls-37{clip-path:url(#clip-path-15);}.cls-38{fill:url(#linear-gradient-15);}.cls-39{stroke-width:1.22px;}.cls-40{stroke-width:1.35px;}.cls-41{stroke:#788287;stroke-width:0.24px;}.cls-42{fill:#0a0e15;}.cls-43{fill:#1d1d1b;}.cls-44{stroke:#212934;}.cls-44,.cls-45{stroke-width:0.75px;}.cls-45{stroke:#96a0a5;}.cls-46{fill:#7aaaa6;}</style><clipPath id="clip-path"><path class="cls-1" d="M352.81,240.14s-18.41,38.91-18.41,41.34L366,372l24.26-122.5-34.55-12Z"/></clipPath><linearGradient id="linear-gradient" x1="-640.45" y1="-3448.18" x2="-638.97" y2="-3448.18" gradientTransform="translate(24476.32 130285.45) scale(37.7)" gradientUnits="userSpaceOnUse"><stop offset="0" stop-color="#fff"/><stop offset="0.32" stop-color="#f2f4f6"/><stop offset="0.91" stop-color="#d1d9df"/><stop offset="0.96" stop-color="#ced6dd"/><stop offset="1" stop-color="#ced6dd"/></linearGradient><clipPath id="clip-path-2"><path class="cls-1" d="M398.66,263.32a.66.66,0,0,0-.25-.34Zm-51.2,100.91,15.23,22.5c19.57-31,31-104.58,33-115.55,1.51-8.36,2.43-8.61,2.85-8.2l-8.2-13.47Z"/></clipPath><linearGradient id="linear-gradient-2" x1="-644.02" y1="-3419.15" x2="-642.53" y2="-3419.15" gradientTransform="matrix(-10.81, 79.22, -79.22, -10.81, -277438.82, 14313.15)" gradientUnits="userSpaceOnUse"><stop offset="0" stop-color="#fff"/><stop offset="0.15" stop-color="#f2f4f6"/><stop offset="0.48" stop-color="#d1d9df"/><stop offset="0.96" stop-color="#ced6dd"/><stop offset="1" stop-color="#ced6dd"/></linearGradient><clipPath id="clip-path-3"><path class="cls-1" d="M392.14,294.53s5.27-14.89,7.11-22.34,1.5-8.95-.59-8.95c-3.09.08-6.52,31.29-6.52,31.29"/></clipPath><linearGradient id="linear-gradient-3" x1="-580.24" y1="-3446.09" x2="-578.76" y2="-3446.09" gradientTransform="matrix(1.95, -16.5, 16.5, 1.95, 58376.63, -2538.38)" xlink:href="#linear-gradient"/><clipPath id="clip-path-4"><path class="cls-1" d="M390.21,249.51l8.45,13.81s1.34,0,1.59,3.68c.25,3.52-7.53,26.78-7.53,26.78s10-24.35,8.12-28.37-8.62-15.81-8.62-15.81h-2Z"/></clipPath><linearGradient id="linear-gradient-4" x1="-668.83" y1="-3549.85" x2="-667.35" y2="-3549.85" gradientTransform="translate(5292.85 26292.72) scale(7.33)" xlink:href="#linear-gradient"/><clipPath id="clip-path-5"><path class="cls-1" d="M56.79,264.57l-33,10.05s-1.84,4.68-1.5,7.78,1.5-1.26,1.5-1.26,1-1.5,2.6,1.17,23.93,61,23.93,61L77,335.86l3.68-24.1L58,264.66H56.79Z"/></clipPath><linearGradient id="linear-gradient-5" x1="-642.69" y1="-3447.12" x2="-641.21" y2="-3447.12" gradientTransform="translate(25362.84 136219.58) scale(39.43)" xlink:href="#linear-gradient"/><clipPath id="clip-path-6"><path class="cls-1" d="M133.18,243.57a5,5,0,0,0-3.85,4.77v38.57l7.53,3.52L201,270.18V241a4.47,4.47,0,0,0-4.35-4.27l-31.21-1.5Z"/></clipPath><linearGradient id="linear-gradient-6" x1="-645.7" y1="-3440.55" x2="-644.22" y2="-3440.55" gradientTransform="translate(-18535.44 165436.17) rotate(17.08) scale(47.49)" gradientUnits="userSpaceOnUse"><stop offset="0" stop-color="#fff"/><stop offset="0.25" stop-color="#f2f4f6"/><stop offset="0.54" stop-color="#d1d9df"/><stop offset="0.96" stop-color="#ced6dd"/><stop offset="1" stop-color="#ced6dd"/></linearGradient><clipPath id="clip-path-7"><polygon class="cls-1" points="50.01 392.59 94.11 421.46 100.8 330.17 46.5 318.71 50.01 392.59"/></clipPath><linearGradient id="linear-gradient-7" x1="-643.2" y1="-3448.25" x2="-641.72" y2="-3448.25" gradientTransform="translate(23659.1 126960.16) scale(36.71)" xlink:href="#linear-gradient"/><clipPath id="clip-path-8"><polygon class="cls-1" points="334.66 317.87 327.46 367.66 365.87 337.95 361.85 284.82 360.68 284.57 334.66 317.87"/></clipPath><linearGradient id="linear-gradient-8" x1="-643.89" y1="-3458.81" x2="-642.41" y2="-3458.81" gradientTransform="translate(17063.81 90229.91) scale(25.99)" xlink:href="#linear-gradient"/><clipPath id="clip-path-9"><path class="cls-1" d="M227.47,308.5l-40.91-6.19a1.69,1.69,0,0,1-.92-3.1l10.54-7.11a11.12,11.12,0,0,1,7.36-1.75l40.92,4.93c1.76.25,2.43,2.09,1.17,3l-10.54,8.2a9.69,9.69,0,0,1-5.94,1.93,2.36,2.36,0,0,1-1.68.08m-181,10.21,249.58,52.46,64.6-86.68L184.38,262.9Z"/></clipPath><linearGradient id="linear-gradient-9" x1="-634.77" y1="-3428.28" x2="-633.28" y2="-3428.28" gradientTransform="translate(134682.04 727465.65) scale(212.1)" xlink:href="#linear-gradient"/><clipPath id="clip-path-10"><path class="cls-1" d="M94.86,420.87l103.83,34.05,45.52-96-11.8-3.34-.67-4.69L200,345.23l-2.18,3.68-85-15.64v-4.35l-25.43-5.36-1,4-39.91-8.7c.09-.17,42.09,95.55,48.45,102"/></clipPath><linearGradient id="linear-gradient-10" x1="-635.81" y1="-3430.63" x2="-634.32" y2="-3430.63" gradientTransform="translate(84913.64 458307.41) scale(133.48)" xlink:href="#linear-gradient"/><clipPath id="clip-path-11"><path class="cls-1" d="M260.61,317.79C217.27,422.54,197.44,454,197.44,454L309.3,469.06l31.8-151.19s-34.22-1.5-58-1.5c-12-.09-21.25.25-22.5,1.42"/></clipPath><linearGradient id="linear-gradient-11" x1="-636.36" y1="-3433.11" x2="-634.87" y2="-3433.11" gradientTransform="translate(61888.44 333212.58) scale(96.94)" xlink:href="#linear-gradient"/><clipPath id="clip-path-12"><path class="cls-1" d="M263.12,317S276.5,422,277.51,433.76s12.05,13.05,12.05,13.05H315.5l25.6-129.19s-29.54-1.34-39-1.5h-1.76c-11.13.16-37.23.83-37.23.83"/></clipPath><linearGradient id="linear-gradient-12" x1="-638.77" y1="-3440.85" x2="-637.29" y2="-3440.85" gradientTransform="translate(33888.47 181509.18) scale(52.64)" xlink:href="#linear-gradient"/><clipPath id="clip-path-13"><path class="cls-1" d="M381.18,337.37s-2.76,9.12-3.52,13.3-5.27,11.63-5.27,11.63l-8.7,11.63s-4.69,4.27-6.78,3.1-4.27-19.41-4.27-19.41L330.81,438s22.76-26.86,29.7-36.39c3.1-4.27,10.63-18.16,10.63-18.16s8.2-29.54,9.45-35.73a79.21,79.21,0,0,0,1.34-14.05Z"/></clipPath><linearGradient id="linear-gradient-13" x1="-646.5" y1="-3411.24" x2="-645.02" y2="-3411.24" gradientTransform="matrix(-22.85, 44.96, -44.96, -22.85, -167775.08, -48547.2)" gradientUnits="userSpaceOnUse"><stop offset="0" stop-color="#fff"/><stop offset="0.35" stop-color="#f2f4f6"/><stop offset="0.91" stop-color="#d1d9df"/><stop offset="0.96" stop-color="#ced6dd"/><stop offset="1" stop-color="#ced6dd"/></linearGradient><clipPath id="clip-path-14"><path class="cls-1" d="M50,392.59c2.51,2.18,43.09,26.77,43.09,26.77-1.17-1.25-24.26-34.64-27.69-40.91s-39.5-98.15-39.5-98.15S47.5,390.5,50,392.59"/></clipPath><linearGradient id="linear-gradient-14" x1="-641.4" y1="-3443.78" x2="-639.92" y2="-3443.78" gradientTransform="translate(29108.33 156497.24) scale(45.34)" xlink:href="#linear-gradient"/><clipPath id="clip-path-15"><polygon class="cls-1" points="341.18 317.79 309.39 468.98 332.31 440.2 373.31 325.4 380.26 301.64 378.58 299.46 341.18 317.79"/></clipPath><linearGradient id="linear-gradient-15" x1="-639.03" y1="-3442.5" x2="-637.55" y2="-3442.5" gradientTransform="translate(30904.17 165199.59) scale(47.88)" xlink:href="#linear-gradient"/></defs><g class="cls-2"><rect class="cls-3" x="334.32" y="237.47" width="55.81" height="134.54"/></g><g class="cls-4"><polygon class="cls-5" points="417.07 252.02 397.74 393.59 329.05 384.22 348.46 242.65 417.07 252.02"/></g><g class="cls-6"><polygon class="cls-7" points="388.62 294.11 392.3 262.32 404.77 263.65 401.01 295.62 388.62 294.11"/></g><g class="cls-8"><rect class="cls-9" x="390.21" y="249.51" width="12.47" height="44.18"/></g><path class="cls-10" d="M368,297.88l-.09-.84L368,297c.33-.08.67-.33,1-.41H369l.09.83H369a5.33,5.33,0,0,0-1,.42Zm2.51-1-.09-.84,1.26-.25.08.84Zm2.51-.5-.09-.84,1.26-.25.08.84Zm2.76-.34-.09-.92h1.51l-.08.92Zm2.51,0-.09-.92h1.51l-.08.92Zm2.51-.25-.09-.92h.67l-.08.92Zm.67.25.08-.83.34.25-.09.92Zm.42.59.08-.84.25.25-.08.92Zm.5.42.08-.84.08.34-.08.92Zm.25.92.08-.84.09.42-.09.92Zm.17,1.17.08-.84.08.59-.08.92Z"/><path class="cls-10" d="M365.36,298.88l-.33-.59.25-.08a5.3,5.3,0,0,0,1.17-.84l.25.84-1.17.59Z"/><polygon class="cls-10" points="364.02 295.78 364.36 300.64 366.79 301.31 364.02 295.78"/><path class="cls-11" d="M382.35,304.15c-.42,2.43-1.51,4.27-2.26,4.1s-1-2.18-.59-4.6,1.51-4.27,2.26-4.1S382.77,301.72,382.35,304.15Z"/><text class="cls-12" transform="matrix(0.31, 0.05, -0.19, 0.98, 380.04, 306)">3</text><polygon class="cls-10" points="390.46 253.61 390.21 253.28 390.71 252.61 390.88 253.03 390.46 253.61"/><path class="cls-10" d="M394.81,261.06a2.76,2.76,0,0,0-.58-.92l.42-.59a8.2,8.2,0,0,0,.58.92Zm-1.17-1.84c-.25-.33-.33-.59-.58-.92l.42-.59c.25.34.33.59.58.92Zm-1-1.92c-.25-.34-.34-.59-.59-.92l.42-.59c.25.33.34.59.59.92Zm-1-1.85a10.55,10.55,0,0,0-.58-.92l.42-.58a4.08,4.08,0,0,0,.58.92Z"/><path class="cls-10" d="M395.48,262.4c-.08-.08-.08-.25-.25-.42l.59-.58c.08.08.08.33.25.41Z"/><g class="cls-13"><rect class="cls-14" x="21.9" y="264.57" width="58.82" height="78.73"/></g><polygon class="cls-10" points="30.26 276.46 29.76 275.37 30.43 275.12 30.77 276.37 30.26 276.46"/><path class="cls-10" d="M32.19,276l-.25-.58-.09-.67,1.26-.34.42,1.26Zm2.51-.83-.42-1.26,1.26-.33.41,1.25Zm2.59-.84L36.87,273l1.26-.34.42,1.26Zm2.68-.75-.42-1.26,1.26-.33.42,1.25Zm2.59-.84-.41-1.25,1.25-.34.42,1.26Zm2.68-.67-.42-1.25,1.26-.34.42,1.26Zm2.6-.84-.42-1.25,1.25-.34.42,1.26Zm2.67-.75-.42-1.25,1.26-.34.42,1.26Zm2.6-.84-.42-1.25,1.25-.33.42,1.25Zm2.67-.75-.41-1.25,1.25-.34.42,1.26Z"/><polygon class="cls-10" points="58.29 268 57.96 266.83 58.46 266.67 58.96 267.92 58.29 268"/><path class="cls-15" d="M42.73,322.73a2.61,2.61,0,0,0,.59-.34"/><path class="cls-16" d="M44.57,321.8c5-2.51,19.08-9.28,24.6-11.29"/><path class="cls-15" d="M69.67,310.26a2.61,2.61,0,0,0,.67-.25"/><path class="cls-17" d="M52.52,327.75c.34,2.51-.59,4.76-2.17,5s-3.18-1.76-3.52-4.27.59-4.77,2.18-5C50.6,323.39,52.19,325.24,52.52,327.75Z"/><text class="cls-18" transform="matrix(0.62, -0.08, 0.15, 0.99, 48.91, 330.53)">2</text><g class="cls-19"><polygon class="cls-20" points="135.44 215.04 216.35 239.89 194.76 310.59 113.77 285.66 135.44 215.04"/></g><g class="cls-21"><rect class="cls-22" x="46.5" y="318.71" width="54.3" height="102.58"/></g><g class="cls-23"><rect class="cls-24" x="327.46" y="284.57" width="38.57" height="83.08"/></g><polygon class="cls-10" points="132.76 247.42 132.26 246.25 132.93 246.08 133.43 247.17 132.76 247.42"/><path class="cls-10" d="M134.68,246.84l-.41-1.17,1.25-.34.42,1.17Zm2.6-.67-.42-1.17,1.25-.34.42,1.17Zm2.51-.67-.42-1.17,1.26-.34.41,1.17Zm2.68-.67-.42-1.17,1.25-.34.42,1.17Zm2.51-.75-.42-1.18,1.25-.33.42,1.17Zm2.59-.67-.42-1.18,1.26-.33.41,1.17Zm2.51-.67-.42-1.17,1.26-.34.41,1.17Zm2.68-.67-.42-1.17,1.25-.34.42,1.17Zm2.51-.67-.42-1.17,1.25-.34.42,1.17Zm2.59-.75-.42-1.18,1.26-.33.42,1.17Zm2.51-.67L160,238.8l1.26-.33.42,1.17Zm2.68-.67-.42-1.17,1.26-.34.41,1.17Z"/><polygon class="cls-10" points="168.08 209.57 167.61 208.25 168.36 208.06 168.83 209.28 168.08 209.57"/><g class="cls-25"><rect class="cls-26" x="46.33" y="262.98" width="314.26" height="108.35"/></g><g class="cls-27"><rect class="cls-28" x="46.33" y="318.71" width="197.8" height="136.13"/></g><g class="cls-29"><rect class="cls-30" x="197.44" y="316.28" width="143.66" height="152.7"/></g><g class="cls-31"><rect class="cls-32" x="263.12" y="316.28" width="77.98" height="130.61"/></g><g class="cls-33"><polygon class="cls-34" points="424.35 355.11 371.72 458.61 288.89 416.52 341.52 312.94 424.35 355.11"/></g><g class="cls-35"><rect class="cls-36" x="25.91" y="280.39" width="67.19" height="138.98"/></g><g class="cls-37"><rect class="cls-38" x="309.39" y="299.47" width="70.95" height="169.43"/></g><path class="cls-39" d="M158.45,382.21c-1.17,7.28-7.45,12.47-13.81,11.55-6.53-.92-10.88-7.7-9.7-15s7.44-12.46,13.8-11.54C155.27,368.24,159.62,374.85,158.45,382.21Z"/><polyline class="cls-40" points="140.29 380.71 144.14 386.4 154.43 376.27"/><path class="cls-10" d="M119.12,402.21a4.74,4.74,0,0,1-1-.42,2.56,2.56,0,0,1-.84-.83,3.35,3.35,0,0,1-.42-1.26,10.11,10.11,0,0,1-.25-1.84,10.44,10.44,0,0,1,.09-1.84,3.89,3.89,0,0,1,.41-1.17c.25-.25.42-.42.67-.42a4.31,4.31,0,0,1,1,.08,3.53,3.53,0,0,1,.92.42,4.43,4.43,0,0,0,.67.59v-3.68l1.92.42V402.8l-1.59-.34-.08-.67a2,2,0,0,1-.84.42c0,.09-.33.09-.67,0m.42-1.5c.25,0,.42.08.59,0a.56.56,0,0,0,.41-.26v-3.68l-.33-.33a.93.93,0,0,0-.59-.25h-.41a.27.27,0,0,0-.26.25c-.08.08-.08.33-.08.67v2.34a4.52,4.52,0,0,0,.08.67c.09.25.09.33.26.33,0,.17.25.26.33.26"/><path class="cls-10" d="M126.82,404.14a3.19,3.19,0,0,1-2.18-1.51,5,5,0,0,1-.83-3.18,5.54,5.54,0,0,1,.25-1.76,1.71,1.71,0,0,1,.58-1,1.89,1.89,0,0,1,.92-.42,7.1,7.1,0,0,1,1.26.08,3.51,3.51,0,0,1,1.25.59,4.72,4.72,0,0,1,.92.92,4.88,4.88,0,0,1,.59,1.34,6,6,0,0,1,.25,1.84,5.5,5.5,0,0,1-.25,1.76,1.64,1.64,0,0,1-.59,1,1.81,1.81,0,0,1-.92.42,2.15,2.15,0,0,1-1.25-.08m0-1.51h.42c.08,0,.25-.08.33-.33.09-.09.09-.34.09-.67V399.2c0-.33-.09-.59-.09-.84s-.08-.33-.33-.42c-.09-.08-.25-.08-.42-.25h-.42c-.08,0-.25.09-.33.34-.09.08-.09.33-.09.67V401c0,.34.09.59.09.84a1,1,0,0,0,.33.42c0,.25.25.33.42.33"/><polygon class="cls-10" points="133.09 400.29 130.92 394.85 133.26 395.44 134.35 398.61 135.6 396.02 137.78 396.61 135.35 400.71 137.78 406.81 135.44 406.23 134.1 402.3 132.59 405.56 130.42 404.97 133.09 400.29"/><path class="cls-10" d="M140.29,399.12a1.49,1.49,0,0,1-.84-.59,1.39,1.39,0,0,1-.33-.92,1.09,1.09,0,0,1,.33-.84c.25-.25.42-.25.84-.08a1.66,1.66,0,0,1,1.17,1.51,1.06,1.06,0,0,1-.33.83,2.41,2.41,0,0,1-.84.09m-1,2.09-.84-.34v-1.34l2.59.67-.25,7.45-1.84-.42Z"/><path class="cls-10" d="M145.06,408.82a3.61,3.61,0,0,1-2.18-1.5,6.07,6.07,0,0,1-.58-3.18,4.23,4.23,0,0,1,.84-2.76,2.27,2.27,0,0,1,2.17-.34,4.49,4.49,0,0,1,1.17.42,8,8,0,0,1,.92.92l-1,1.17c-.09-.25-.34-.33-.42-.59a1.7,1.7,0,0,0-.59-.33H145a.43.43,0,0,0-.34.25c-.08.08-.08.34-.25.59,0,.25-.08.67-.08,1.17v1.17c0,.33.08.59.08.84s.08.33.33.41c.09.09.26.26.42.26a1,1,0,0,0,.67,0c.09-.09.34-.09.42-.26l.67,1.59a1.23,1.23,0,0,1-.92.34,2.83,2.83,0,0,1-.92-.17"/><path class="cls-10" d="M148.66,402.13l1.5.33.09.92a2.09,2.09,0,0,1,.83-.58,1.6,1.6,0,0,1,.92,0,.52.52,0,0,1,.34.08.9.9,0,0,1,.25.08l-.42,1.93c-.08-.08-.25-.08-.33-.25a.49.49,0,0,0-.34-.09.72.72,0,0,0-.58,0c-.09,0-.34.09-.42.09l-.34,5.27-1.84-.42Z"/><path class="cls-10" d="M154.6,411.33a3.42,3.42,0,0,1-1.51-1,3.13,3.13,0,0,1-.33-1.84,1.82,1.82,0,0,1,.83-1.76,3.38,3.38,0,0,1,2.26,0l.42.08v-.25a2.38,2.38,0,0,0-.08-.83c-.09-.26-.25-.34-.59-.42a1.59,1.59,0,0,0-.92,0,1.43,1.43,0,0,0-.84.25l-.58-1.59a2.18,2.18,0,0,1,1.25-.34,9.51,9.51,0,0,1,1.51.09,3.73,3.73,0,0,1,1.84,1,3.51,3.51,0,0,1,.42,2.09l-.34,5.27-1.5-.33v-.25a.71.71,0,0,0-.09-.42c-.25.08-.41.34-.66.34a1.6,1.6,0,0,1-1.09-.09m.58-1.25h.42a.47.47,0,0,0,.34-.25l.08-1.76h-.08a2.55,2.55,0,0,0-.67-.09c-.25,0-.34,0-.42.09s-.25.08-.25.33c0,.09-.09.34-.09.42a2.19,2.19,0,0,0,.09.84,1.06,1.06,0,0,0,.58.42"/><path class="cls-10" d="M159.28,404.81l.67.25.09-1.84,1.84.08-.25,2.17,1.25.34-.08,1.59-1.26-.34-.33,3.77c0,.33,0,.59.08.67s.25.25.34.25h.58l.09,1.51a5.28,5.28,0,0,1-.59.08,3.66,3.66,0,0,1-.84-.08c-.25-.09-.58-.25-.83-.34a1.48,1.48,0,0,1-.59-.42c-.08-.25-.25-.42-.33-.67a2.9,2.9,0,0,1-.09-.92l.34-4.26-.67-.25Z"/><path class="cls-10" d="M166.4,414.43a3.38,3.38,0,0,1-2.26-1.59,4.8,4.8,0,0,1-.42-3.18c.08-.67.25-1.26.33-1.76a1.46,1.46,0,0,1,.67-1,1.85,1.85,0,0,1,.92-.42,5.71,5.71,0,0,1,1.17.08,3.16,3.16,0,0,1,2.1,1.51,7.42,7.42,0,0,1,.33,3.18l-.08.58-3.52-.92v.92a.8.8,0,0,0,.25.59l.34.33c.08.09.33.09.42.26a1.46,1.46,0,0,0,.83,0,1.34,1.34,0,0,0,.67-.34l.67,1.59a1.25,1.25,0,0,1-.92.33,2.25,2.25,0,0,1-1.5-.16m.16-6.36h-.33a.26.26,0,0,0-.25.25c-.09.08-.09.25-.25.42a2.16,2.16,0,0,0-.09.83l1.76.42v-.83a1.51,1.51,0,0,0-.08-.59.45.45,0,0,0-.26-.33.83.83,0,0,0-.5-.17"/><path class="cls-41" d="M305.45,281.31l39.5,7.53c2.84.58,4.68,1.92,4.1,3l-8.45,11.63c-.84.92-4,1-7.2.25l-44.76-10c-2.6-.59-3.77-1.51-2.6-2.26l13.39-9.37C300.52,281.39,303.2,281,305.45,281.31Z"/><path class="cls-42" d="M328.21,299.72l8.2,1.92a2.85,2.85,0,0,0,1.51-.08l.92-1.17c.08-.26-.25-.42-.92-.59L329.8,298c-.58-.08-1.25-.08-1.34.08l-1,1c-.17.33.17.58.75.67M330,300l1.34-1.51,4.94,1.17L335,301.14Zm8.45.42-.92,1.17c-.08.08-.42.08-.92,0l-1.17-.25,1.25-1.51,1.18.25c.33.08.66.25.58.34m-9.54-2.18a1.38,1.38,0,0,1,.84,0l1.17.25L329.55,300l-1.17-.25c-.33-.09-.59-.25-.42-.34Z"/><polygon class="cls-42" points="330.05 298.71 329.63 298.55 329.05 299.21 329.47 299.38 330.05 298.71"/><path class="cls-42" d="M336.91,300.89a1.45,1.45,0,0,0,.59,0c.08-.09-.08-.25-.33-.25a1.29,1.29,0,0,0-.59,0c-.08.08,0,.25.33.25"/><path d="M337.25,298.21l-.67-.08h.25c.08,0,.08,0,.25-.09s.09,0,.09-.08a.08.08,0,0,0,.08-.08c.08-.09.08-.09,0-.26a.52.52,0,0,0-.34-.08h-.75c-.08,0-.25,0-.25.08a.46.46,0,0,0-.33.09h-.67a.85.85,0,0,1-.42-.09,1.76,1.76,0,0,1-.42-.08c-.08-.08-.25-.08-.25-.25s-.08-.08-.08-.25,0-.09.08-.25.25-.25.33-.25l.67.08a.39.39,0,0,0-.42.25V297l.09.08a.34.34,0,0,0,.25.09h.75c.09,0,.25,0,.25-.09a.54.54,0,0,0,.34-.08h.67a1,1,0,0,1,.42.08,1.48,1.48,0,0,1,.41.09c.09.08.25.08.25.25s.09.08.09.25,0,.08-.09.25l-.08.08-.08.09s-.09,0-.09.08c-.16-.08-.16,0-.33,0"/><path d="M338.76,296.54a.26.26,0,0,1,0,.33,1.06,1.06,0,0,1-.67.25,6.75,6.75,0,0,1-1.18-.08,2.34,2.34,0,0,1-1-.42c-.25-.08-.25-.33-.08-.42s.25-.08.33-.25l.59.08a.49.49,0,0,0-.34.09.16.16,0,0,0,.09.25,1,1,0,0,0,.67.25,3.21,3.21,0,0,0,.83.08,1.76,1.76,0,0,0,.42-.08c.08-.08,0-.08-.08-.25Z"/><path d="M339.59,295.62l-.08.25-.42-.09h0c.33.09.42.25.33.42s-.25.09-.41.09a1.72,1.72,0,0,1-.67-.09c-.59-.08-.84-.33-.67-.58l.08-.34a1.43,1.43,0,0,0-.84,0c-.08.09,0,.25.09.34l-.59-.09a.39.39,0,0,1,0-.42c.25-.25.67-.25,1.34-.08Zm-1.67-.17-.08.25v.08a.45.45,0,0,0,.33.09h.33c.09,0,.26,0,.26-.09s0-.08-.09-.25-.25-.08-.42-.25Z"/><path d="M340.43,294.44l-.08.26-1.59-.34c-.59-.08-.92-.08-.92,0s0,.08.08.25.33.09.58.25l1.76.34-.08.25-3-.67.08-.25.42.08h0c-.34-.08-.42-.33-.34-.42a.66.66,0,0,1,.42-.08,3.9,3.9,0,0,1,.92.08Z"/><path d="M342.1,292.27l-.08.25-1.59-.33a2.55,2.55,0,0,0-.67-.09.5.5,0,0,0-.34.09.63.63,0,0,0,.09.25c.08.08.33.08.58.25l1.59.33-.08.25-1.59-.33c-.59-.08-.84-.08-.92,0s0,.08.08.25.34.08.59.25l1.59.34-.08.25-2.85-.67.08-.25.42.08h0c-.33-.08-.33-.25-.33-.42s.08-.08.33-.08h.42c-.33-.09-.42-.34-.33-.42.08-.25.58-.25,1.34-.08Z"/><path d="M341.6,290.93l-.42.67a1.89,1.89,0,0,0,.67,0,.53.53,0,0,0,.34-.08c.08-.09,0-.25-.09-.34l.59.09a.37.37,0,0,1,0,.41,1,1,0,0,1-.67.25,6.59,6.59,0,0,1-1.17-.08,4.73,4.73,0,0,1-1-.33.41.41,0,0,1-.25-.42,1,1,0,0,1,.59-.25,6.65,6.65,0,0,1,1.17.08ZM341,291c-.25,0-.41-.08-.58-.08a.55.55,0,0,0-.34.08c0,.09,0,.09.09.26s.25.08.42.25Z"/><polygon class="cls-43" points="295.67 292.69 296.08 292.52 302.61 293.78 302.11 294.11 295.67 292.69"/><polygon class="cls-43" points="298.26 290.76 304.7 292.02 302.61 293.78 301.61 293.52 303.36 292.19 298.85 291.26 297 292.6 296.08 292.52 298.26 290.76"/><polygon class="cls-43" points="305.04 294.7 305.37 294.36 303.53 294.03 303.2 294.19 305.04 294.7"/><polygon class="cls-43" points="313.82 296.54 314.16 296.29 313.15 296.04 312.82 296.29 313.82 296.54"/><polygon class="cls-43" points="315.75 296.95 316.08 296.62 315.16 296.54 314.83 296.7 315.75 296.95"/><polygon class="cls-43" points="299.43 291.68 302.11 292.27 301.02 293.11 298.26 292.52 299.43 291.68"/><polygon class="cls-43" points="304.2 293.44 303.87 293.61 304.79 293.86 305.12 293.61 304.2 293.44"/><polygon class="cls-43" points="314.49 295.95 314.16 296.29 315.16 296.54 315.41 296.12 315.75 295.78 316.75 296.04 317.17 295.78 315.08 295.37 314.83 295.62 314.49 295.95"/><polygon class="cls-43" points="320.43 296.12 323.44 296.87 322.52 297.79 319.43 297.04 320.43 296.12"/><polygon class="cls-43" points="309.89 295.7 310.31 295.37 312.23 295.78 311.9 296.04 309.89 295.7"/><polygon class="cls-43" points="306.04 294.86 306.38 294.53 307.3 294.78 306.96 295.03 306.04 294.86"/><polygon class="cls-43" points="310.98 292.6 311.98 292.86 311.31 293.44 310.31 293.19 309.89 293.52 310.98 293.78 311.31 293.44 312.23 293.61 311.9 293.86 312.9 294.11 312.57 294.44 311.56 294.19 311.14 294.53 310.31 294.36 310.64 294.03 309.72 293.78 309.39 294.11 310.31 294.36 309.89 294.53 310.81 294.78 311.14 294.53 313.15 294.86 312.82 295.28 313.82 295.45 313.15 296.04 311.14 295.62 311.56 295.28 312.57 295.45 312.82 295.28 311.9 295.03 311.56 295.28 310.48 295.11 310.31 295.37 309.22 295.11 309.56 294.86 308.63 294.7 308.3 295.03 305.37 294.36 306.04 293.78 305.12 293.61 305.45 293.27 304.53 293.11 304.87 292.86 307.71 293.44 307.05 294.03 307.96 294.19 309.72 292.69 310.64 292.94 310.98 292.6"/><polygon class="cls-43" points="313.49 294.7 314.49 294.78 314.16 295.11 313.15 294.86 313.49 294.7"/><polygon class="cls-43" points="315.75 294.78 316.75 294.86 316.42 295.28 314.49 294.78 315.08 294.19 316.08 294.44 315.75 294.78"/><polygon class="cls-43" points="316.75 297.21 317.17 296.87 324.2 298.46 324.03 298.8 316.75 297.21"/><polygon class="cls-43" points="319.09 295.11 326.04 296.62 324.2 298.46 323.19 298.21 324.78 296.7 319.76 295.62 318.17 297.04 317.17 296.87 319.09 295.11"/><polygon class="cls-43" points="306.12 292.69 306.46 292.52 305.54 292.27 305.2 292.52 306.12 292.69"/><polygon class="cls-43" points="308.13 293.11 308.47 292.86 307.55 292.6 307.21 292.94 308.13 293.11"/><polygon class="cls-43" points="303.2 291.43 303.53 291.1 302.61 291.01 302.27 291.26 303.2 291.43"/><polygon class="cls-43" points="305.04 291.85 305.37 291.43 304.45 291.35 304.12 291.6 305.04 291.85"/><polygon class="cls-43" points="307.3 291.94 308.22 292.02 307.88 292.35 306.96 292.19 307.3 291.94"/><polygon class="cls-43" points="321.6 294.86 322.61 295.11 322.27 295.45 321.35 295.28 321.6 294.86"/><polygon class="cls-43" points="324.36 295.78 324.7 295.62 323.61 295.37 323.28 295.7 324.36 295.78"/><polygon class="cls-43" points="326.37 296.29 326.62 296.04 325.62 295.78 325.37 296.04 326.37 296.29"/><polygon class="cls-43" points="309.81 290.6 310.81 290.76 310.14 291.35 311.06 291.6 310.39 292.19 309.47 291.94 309.14 292.27 305.37 291.43 305.71 291.26 306.63 291.35 306.96 291.1 307.96 291.26 307.63 291.6 308.55 291.85 309.22 291.26 307.3 290.76 307.63 290.6 309.56 290.93 309.81 290.6"/><polygon class="cls-43" points="310.98 292.6 311.31 292.35 310.39 292.19 310.06 292.52 310.98 292.6"/><polygon class="cls-43" points="316.08 291.1 317.92 291.6 317.67 291.85 315.75 291.43 316.08 291.1"/><polygon class="cls-43" points="313.57 291.35 313.9 291.01 317.67 291.85 317.34 292.19 315.41 291.68 315.16 292.02 316.08 292.27 315.41 292.86 316.42 293.11 316.08 293.27 315.08 293.19 315.41 292.86 314.49 292.6 314.16 292.94 313.24 292.69 312.9 293.11 311.98 292.86 312.23 292.52 311.31 292.35 311.98 291.68 312.9 291.94 312.57 292.27 313.57 292.35 314.49 291.6 313.57 291.35"/><polygon class="cls-43" points="317.34 293.19 318.42 293.44 318 293.78 318.93 294.03 318.76 294.19 319.68 294.44 319.34 294.78 318.42 294.53 317.67 295.11 316.75 294.86 317.17 294.7 316.08 294.44 316.42 294.11 315.41 294.03 315.08 294.19 314.16 294.03 313.82 294.36 312.9 294.11 313.24 293.86 312.23 293.61 312.9 293.11 315.75 293.61 316.08 293.27 317 293.52 317.34 293.19"/><polygon class="cls-43" points="320.35 293.86 319.34 293.61 318.93 294.03 320.01 294.19 320.35 293.86"/><polygon class="cls-43" points="323.86 293.86 324.78 294.11 324.53 294.44 325.45 294.7 325.29 294.86 327.21 295.37 326.96 295.7 323.86 295.03 323.61 295.37 320.68 294.7 321.27 294.11 323.19 294.44 323.86 293.86"/><polygon class="cls-43" points="319.34 293.61 319.68 293.27 318.59 293.19 318.42 293.44 319.34 293.61"/><polygon class="cls-43" points="304.7 290.35 306.38 290.68 306.71 290.35 305.96 290.18 306.29 289.84 305.37 289.76 305.04 290.01 304.7 290.35"/><polygon class="cls-43" points="300.85 288.84 300.52 289.17 301.36 289.26 301.77 289.09 300.85 288.84"/><polygon class="cls-43" points="306.29 289.84 306.63 289.68 310.14 290.35 309.81 290.6 307.96 290.18 307.63 290.6 306.71 290.35 307.21 290.09 306.29 289.84"/><polygon class="cls-43" points="308.63 289.68 310.48 290.01 310.14 290.35 308.3 290.01 308.63 289.68"/><polygon class="cls-43" points="312.32 291.43 313.24 291.68 313.57 291.35 312.65 291.1 312.32 291.43"/><polygon class="cls-43" points="318.26 292.35 317.34 292.19 317 292.35 316.67 292.69 317.67 292.94 318 292.6 318.26 292.35"/><polygon class="cls-43" points="319.85 293.11 319.68 293.27 320.6 293.52 320.93 293.27 321.27 292.94 320.18 292.69 319.85 293.11"/><polygon class="cls-43" points="326.71 293.44 327.63 293.61 327.46 293.86 326.37 293.61 326.71 293.44"/><polygon class="cls-43" points="326.04 294.03 326.37 293.61 327.46 293.86 326.87 294.53 324.78 294.11 325.12 293.78 326.04 294.03"/><polygon class="cls-43" points="326.87 294.53 327.8 294.78 327.54 295.03 326.54 294.78 326.87 294.53"/><polygon class="cls-43" points="303.03 287.08 304.79 287.5 304.45 287.83 303.53 287.58 303.2 287.92 304.12 288 303.78 288.42 304.53 288.5 304.2 288.84 303.28 288.59 302.94 288.92 302.11 288.75 302.53 288.5 301.61 288.25 303.03 287.08"/><polygon class="cls-43" points="301.77 289.09 302.11 288.75 305.71 289.43 305.37 289.76 304.45 289.51 303.78 290.09 302.86 290.01 302.53 290.18 303.36 290.43 303.78 290.09 304.7 290.35 304.2 290.6 306.04 290.93 305.71 291.26 304.79 291.01 304.45 291.35 303.53 291.1 303.87 290.93 302.94 290.68 302.61 291.01 300.85 290.6 300.44 290.93 299.51 290.68 300.69 289.84 301.61 290.01 301.94 289.76 301.02 289.68 301.36 289.26 302.27 289.51 302.61 289.17 301.77 289.09"/><polygon class="cls-43" points="304.2 288.84 305.12 288.92 304.79 289.26 303.87 289.09 304.2 288.84"/><polygon class="cls-43" points="311.39 290.18 311.06 290.43 312.06 290.68 312.32 290.35 311.39 290.18"/><polygon class="cls-43" points="318.59 292.02 319.51 292.27 319.85 291.94 318.93 291.68 318.59 292.02"/><polygon class="cls-43" points="321.27 292.94 321.44 292.6 325.37 293.52 325.12 293.78 323.19 293.44 322.86 293.61 321.85 293.44 322.19 293.19 321.27 292.94"/><polygon class="cls-43" points="323.78 292.69 325.7 293.19 325.37 293.52 323.44 293.11 323.78 292.69"/><polygon class="cls-43" points="328.71 293.78 328.88 293.52 327.96 293.27 327.63 293.61 328.71 293.78"/><polygon class="cls-43" points="323.61 291.6 325.62 292.02 325.29 292.27 324.36 292.19 323.78 292.69 322.77 292.52 322.52 292.86 320.6 292.35 320.93 292.19 319.85 291.94 320.18 291.6 319.18 291.43 319.51 291.1 322.36 291.68 322.19 292.02 323.11 292.27 323.61 291.6"/><polygon class="cls-43" points="326.96 293.11 327.29 292.69 326.29 292.52 325.95 292.86 326.96 293.11"/><polygon class="cls-43" points="309.39 289.09 310.31 289.26 310.64 288.92 312.4 289.26 312.06 289.68 314.83 290.18 314.49 290.43 315.5 290.68 315.75 290.35 314.83 290.18 315.16 289.84 317 290.18 316.67 290.6 317.67 290.76 317.92 290.43 318.93 290.68 318.26 291.26 316.42 290.76 316.08 291.1 315.16 290.93 314.83 291.26 312.99 290.93 313.24 290.6 312.32 290.35 312.65 290.09 308.97 289.43 308.63 289.68 306.96 289.26 307.3 289.09 308.13 289.17 308.47 288.92 307.63 288.75 307.96 288.42 309.72 288.75 309.39 289.09"/><path class="cls-43" d="M326.62,289.68l-1.84-.34-.33.34-1.84-.34-.59.59-.92-.25.34-.34-.92-.25-.34.33-.92-.25.34-.33-.93-.25-.92.92,1.85.33.33-.33.92.25-.92.92.92.25.33-.33.93.25-.34.33,1.92.42.34-.33,1.92.41.34-.33.92.25.25-.33-.92-.26.59-.66.92.25-.26.33.93.25.25-.33.92.25-.25.33,1,.25.84-.92-.92-.25-.26.34-.92-.25.26-.34-.92-.25-.26.34-1.84-.34Zm-.58.5-.92.92-2.85-.59.92-.92Z"/><polygon class="cls-43" points="329.47 292.86 329.8 292.52 329.8 292.52 330.05 292.27 327.21 291.6 326.87 291.94 325.95 291.68 325.62 292.02 329.47 292.86"/><polygon class="cls-43" points="306.46 287.83 306.79 287.5 305.12 287.25 304.79 287.5 306.46 287.83"/><polygon class="cls-43" points="316.75 289.43 318.59 289.84 318.26 290.09 318.26 290.09 317.92 290.43 317 290.18 317.34 290.01 316.42 289.76 316.75 289.43"/><path class="cls-43" d="M303.78,286.58l6,1.17,2.25-2.09-5.94-1Zm7.2-.84-1.59,1.51-4.35-.84,1.75-1.5Z"/><path class="cls-43" d="M315.5,288.5l-3.52-.67-.67.59-3.51-.67-.34.34-.92-.09-.33.34-.92-.09-.34.34,1.76.33.33-.33.92.08.34-.33,1.84.33-.33.34.92.25.33-.34,1.84.34-.33.33.92.25.33-.33,1.84.33.92-.92.92.25.34-.33L316,288.5Zm-1.26.09-.33.33-1.85-.33.34-.34Z"/><polygon class="cls-43" points="323.86 290.18 323.61 290.43 324.53 290.68 324.78 290.35 323.86 290.18"/><polygon class="cls-43" points="329.38 291.68 329.63 291.35 328.71 291.1 328.38 291.43 329.38 291.68"/><polygon class="cls-43" points="311.73 287 311.39 287.33 312.23 287.5 312.57 287.08 311.73 287"/><polygon class="cls-43" points="314.41 287.5 314.07 287.83 314.99 288 315.33 287.67 314.41 287.5"/><polygon class="cls-43" points="313.49 287.33 313.82 287 312.9 286.92 312.57 287.08 313.49 287.33"/><polygon class="cls-43" points="320.43 287.92 321.35 288.17 320.77 288.75 315.33 287.67 315.66 287.33 320.1 288.25 320.43 287.92"/><polygon class="cls-43" points="322.61 289.17 322.86 288.84 321.94 288.59 321.69 288.92 322.61 289.17"/><polygon class="cls-43" points="307.21 285.41 309.72 285.99 308.8 286.75 306.12 286.33 307.21 285.41"/><polygon class="cls-43" points="328.55 290.01 328.8 289.68 327.88 289.51 327.63 289.76 328.55 290.01"/><polygon class="cls-43" points="312.65 286.08 312.32 286.41 313.24 286.58 313.57 286.33 312.65 286.08"/><polygon class="cls-43" points="324.11 288.75 323.86 289.09 324.78 289.17 325.03 288.92 327.88 289.51 328.13 289.17 326.29 288.75 326.54 288.5 324.7 288 324.45 288.42 324.11 288.75"/><polygon class="cls-43" points="331.64 290.35 331.98 290.01 332.23 289.68 331.31 289.43 330.97 289.76 330.05 289.51 329.8 289.84 331.64 290.35"/><polygon class="cls-43" points="314.41 286.41 314.16 286.75 313.82 287 314.74 287.25 314.99 286.92 316.75 287.25 317.17 287 318 287.08 317.67 287.5 320.43 287.92 320.68 287.67 321.6 287.83 321.35 288.17 323.19 288.5 323.53 288.25 322.52 288 322.86 287.67 320.1 287.08 319.76 287.5 318.93 287.33 319.18 287 316.58 286.41 316.25 286.75 315.33 286.66 315.66 286.33 313.9 285.99 313.57 286.33 314.41 286.41"/><polygon class="cls-43" points="330.05 289.51 330.31 289.26 329.38 289.09 329.13 289.43 330.05 289.51"/><line class="cls-44" x1="471.02" y1="245.06" x2="471.02" y2="466.06"/><line class="cls-45" x1="463.52" y1="245.56" x2="478.52" y2="245.56"/><line class="cls-44" x1="463.52" y1="465.56" x2="478.52" y2="465.56"/><path class="cls-46" d="M71,462.86q0,11.07-8,17.17t-22.94,6.1a65.49,65.49,0,0,1-11-.94,46.35,46.35,0,0,1-9.36-2.49V464.84a32,32,0,0,0,8.18,3.37,35.91,35.91,0,0,0,9.31,1.23q5.46,0,8.37-1.95a6.33,6.33,0,0,0,2.91-5.59,6.42,6.42,0,0,0-3.58-5.78q-3.59-2.08-10-2.08H27.49v-16.8H34c4.32,0,7.5-.66,9.55-2A6,6,0,0,0,46.64,430a5.72,5.72,0,0,0-2.33-4.81q-2.33-1.77-7.14-1.77a29.61,29.61,0,0,0-14.87,4.28V410.66a50.86,50.86,0,0,1,19.58-3.85q12.72,0,19.95,5.19a16.74,16.74,0,0,1,7.22,14.39,18.73,18.73,0,0,1-3.88,12,18.21,18.21,0,0,1-10.89,6.36v.27Q62,446.13,66.53,451A16.82,16.82,0,0,1,71,462.86Z"/><path d="M487.16,391.54a4.33,4.33,0,0,1-1.35-.21,3.94,3.94,0,0,1-1.21-.61,4.9,4.9,0,0,1-1-1,5.61,5.61,0,0,1-.72-1.45,5,5,0,0,1-1.62,2,3.7,3.7,0,0,1-2.2.71,4,4,0,0,1-1.78-.41,4.28,4.28,0,0,1-1.42-1.12,5.07,5.07,0,0,1-.93-1.7,6.79,6.79,0,0,1-.33-2.16,6.89,6.89,0,0,1,.33-2.19,5.17,5.17,0,0,1,.93-1.72,4.21,4.21,0,0,1,1.4-1.12,3.86,3.86,0,0,1,1.76-.4,3.49,3.49,0,0,1,2.17.75,5.55,5.55,0,0,1,1.61,2.08,6,6,0,0,1,.72-1.45,4.72,4.72,0,0,1,1-1,4.22,4.22,0,0,1,1.23-.63,4.51,4.51,0,0,1,1.37-.21,4.31,4.31,0,0,1,3.49,1.66,5.52,5.52,0,0,1,1,1.88,7.73,7.73,0,0,1,.35,2.42,8,8,0,0,1-.34,2.4,5.84,5.84,0,0,1-1,1.89,4.64,4.64,0,0,1-1.52,1.23A4.24,4.24,0,0,1,487.16,391.54Zm-7.76-4a2.32,2.32,0,0,0,.84-.16,2.25,2.25,0,0,0,.68-.43,2,2,0,0,0,.45-.64,2,2,0,0,0,0-1.56,1.94,1.94,0,0,0-.46-.64,2.07,2.07,0,0,0-.68-.43,2,2,0,0,0-.83-.16,2.37,2.37,0,0,0-.85.15,1.92,1.92,0,0,0-.68.43,2.06,2.06,0,0,0-.45.64,1.92,1.92,0,0,0-.16.79,1.85,1.85,0,0,0,.17.82,1.91,1.91,0,0,0,.45.63,2.13,2.13,0,0,0,.68.41A2.4,2.4,0,0,0,479.4,387.52Zm7.44.51a3,3,0,0,0,1-.17,2.12,2.12,0,0,0,1.26-1.29,2.68,2.68,0,0,0,.17-1,2.64,2.64,0,0,0-.17-1,2.4,2.4,0,0,0-.49-.78,2.12,2.12,0,0,0-.78-.51,2.54,2.54,0,0,0-1-.19,2.85,2.85,0,0,0-1,.17,2.34,2.34,0,0,0-.79.51,2.47,2.47,0,0,0-.73,1.79,2.63,2.63,0,0,0,.18,1,2.14,2.14,0,0,0,.52.79,2.41,2.41,0,0,0,.79.52A2.64,2.64,0,0,0,486.84,388Z"/><path d="M492,371.86q0,6-8.43,6-4.37,0-6.66-1.62a5.4,5.4,0,0,1-2.29-4.71q0-5.85,8.56-5.86a11.32,11.32,0,0,1,6.54,1.6A5.27,5.27,0,0,1,492,371.86Zm-14.56-.16q0,2.4,6,2.4,5.69,0,5.68-2.36t-5.86-2.29Q477.42,369.45,477.42,371.7Z"/><path d="M491.68,337.63v3.69h-6.84q-2.61,0-2.61,1.92a1.77,1.77,0,0,0,.78,1.49,3.19,3.19,0,0,0,2,.58h6.71V349h-6.91c-1.7,0-2.54.63-2.54,1.89a1.79,1.79,0,0,0,.75,1.51,3.29,3.29,0,0,0,2,.57h6.66v3.71h-12V353h1.88v0a4.52,4.52,0,0,1-1.57-1.62,4.42,4.42,0,0,1-.6-2.26,3.45,3.45,0,0,1,2.24-3.48,4.46,4.46,0,0,1-2.24-4c0-2.6,1.61-3.91,4.83-3.91Z"/><path d="M491.68,315.65v3.69h-6.84q-2.61,0-2.61,1.92a1.77,1.77,0,0,0,.78,1.49,3.25,3.25,0,0,0,2,.57h6.71V327h-6.91c-1.7,0-2.54.62-2.54,1.88a1.82,1.82,0,0,0,.75,1.52,3.29,3.29,0,0,0,2,.57h6.66v3.7h-12V331h1.88V331a4.52,4.52,0,0,1-2.17-3.88,3.47,3.47,0,0,1,2.24-3.48,4.44,4.44,0,0,1-2.24-4q0-3.92,4.83-3.91Z"/></svg>