<?xml version="1.0" encoding="utf-8"?>
<!-- Generator: Adobe Illustrator 24.1.3, SVG Export Plug-In . SVG Version: 6.00 Build 0)  -->
<svg version="1.1" id="Ebene_1" xmlns="http://www.w3.org/2000/svg" xmlns:xlink="http://www.w3.org/1999/xlink" x="0px" y="0px"
	 viewBox="0 0 500 500" style="enable-background:new 0 0 500 500;" xml:space="preserve">
<style type="text/css">
	.st0{fill:none;stroke:#212934;stroke-width:0.75;stroke-miterlimit:10;}
	.st1{fill:url(#SVGID_1_);}
	.st2{fill:url(#SVGID_2_);}
	.st3{fill:url(#SVGID_3_);}
	.st4{fill:#D7DEE2;}
	.st5{fill:url(#SVGID_4_);}
	.st6{fill:url(#SVGID_5_);}
	.st7{fill:url(#SVGID_6_);}
	.st8{fill:url(#SVGID_7_);}
	.st9{fill:url(#SVGID_8_);}
	.st10{fill:url(#SVGID_9_);}
	.st11{fill:url(#SVGID_10_);}
	.st12{fill:url(#SVGID_11_);}
	.st13{fill:#E11E19;}
	.st14{fill:none;stroke:#788287;stroke-width:0.45;stroke-miterlimit:10;}
	.st15{fill:#0A0E15;}
	.st16{fill:#1D1D1B;}
	.st17{fill:#7AAAA6;}
</style>
<line class="st0" x1="471" y1="188.1" x2="471" y2="466.1"/>
<linearGradient id="SVGID_1_" gradientUnits="userSpaceOnUse" x1="465.8224" y1="104.5678" x2="456.4624" y2="61.6978" gradientTransform="matrix(0.9991 -4.222441e-02 -4.222441e-02 -0.9991 -66.2873 408.5648)">
	<stop  offset="0.32" style="stop-color:#F2F4F6"/>
	<stop  offset="0.68" style="stop-color:#D1D9DF"/>
	<stop  offset="0.96" style="stop-color:#CED6DD"/>
</linearGradient>
<path class="st1" d="M380.2,374.7c4.3-7,7.8-14.5,10.3-22.4c4.6-14.1,7.8-33.4,9.2-47.6c1.9-12.4-1.5-14.7-1.5-14.7l-10.6-18.3
	l-10.4,60.6L380.2,374.7z"/>
<linearGradient id="SVGID_2_" gradientUnits="userSpaceOnUse" x1="399.1938" y1="79.1196" x2="433.0671" y2="79.1196" gradientTransform="matrix(0.9991 -4.222441e-02 -4.222441e-02 -0.9991 -66.2873 408.5648)">
	<stop  offset="0" style="stop-color:#FFFFFF"/>
	<stop  offset="0.32" style="stop-color:#F2F4F6"/>
	<stop  offset="0.91" style="stop-color:#D1D9DF"/>
	<stop  offset="0.96" style="stop-color:#CED6DD"/>
</linearGradient>
<polygon class="st2" points="341.1,281.5 344.5,318.5 377.8,347 374.5,274.4 "/>
<linearGradient id="SVGID_3_" gradientUnits="userSpaceOnUse" x1="124.1338" y1="107.4674" x2="159.8838" y2="107.4674" gradientTransform="matrix(0.9991 -4.222441e-02 -4.222441e-02 -0.9991 -66.2873 408.5648)">
	<stop  offset="0" style="stop-color:#FFFFFF"/>
	<stop  offset="0.32" style="stop-color:#F2F4F6"/>
	<stop  offset="0.91" style="stop-color:#D1D9DF"/>
	<stop  offset="0.96" style="stop-color:#CED6DD"/>
</linearGradient>
<path class="st3" d="M67.1,266.4l20.9,4.4c0,0-7.9,25.9-12,34.1c-3.5,6.6-7.5,13-12.1,18.9c-1.6,1.9-12.6,1.2-8.9-10.8
	S67.1,266.4,67.1,266.4z"/>
<path class="st4" d="M116.1,173.8l-25.9,3.5c-1.2,0.3-2.3-0.5-2.6-1.7c0-0.1,0-0.3,0-0.4l0.2-3.2c0.1-1.1,1-2,2.2-2.2l25.8-3.5
	c1.2-0.3,2.3,0.5,2.6,1.7c0,0.1,0,0.3,0,0.4l-0.1,3.3C118.1,172.7,117.2,173.6,116.1,173.8z"/>
<path class="st4" d="M205.9,160.6l-23.3,3.5c-1.1,0.2-2.2-0.6-2.4-1.7c0-0.1,0-0.3,0-0.4l0.1-3.3c0-1.1,0.9-2,1.9-2.2l23.3-3.6
	c1.1-0.2,2.2,0.6,2.4,1.7c0,0.1,0,0.3,0,0.4l-0.1,3.3C207.8,159.5,207,160.4,205.9,160.6z"/>
<linearGradient id="SVGID_4_" gradientUnits="userSpaceOnUse" x1="105.8104" y1="77.9702" x2="267.7813" y2="77.9702" gradientTransform="matrix(0.9991 -4.222441e-02 -4.222441e-02 -0.9991 -66.2873 408.5648)">
	<stop  offset="0" style="stop-color:#FFFFFF"/>
	<stop  offset="0.32" style="stop-color:#F2F4F6"/>
	<stop  offset="0.91" style="stop-color:#D1D9DF"/>
	<stop  offset="0.96" style="stop-color:#CED6DD"/>
</linearGradient>
<path class="st5" d="M37,346.6c0,0,0.9-149,4.4-169.1C46.8,180,195,249.3,195,249.3s-35.7,212.3-32.1,219.4s-58-42.6-58-42.6
	L90.8,300.5c0,0-2.7-18.3-12-21.5s-13.4,5-13.4,5S52.2,371,50,371S37,346.6,37,346.6z"/>
<linearGradient id="SVGID_5_" gradientUnits="userSpaceOnUse" x1="100.6338" y1="105.6554" x2="110.2138" y2="105.6554" gradientTransform="matrix(0.9991 -4.222441e-02 -4.222441e-02 -0.9991 -66.2873 408.5648)">
	<stop  offset="0" style="stop-color:#FFFFFF"/>
	<stop  offset="0.32" style="stop-color:#F2F4F6"/>
	<stop  offset="0.91" style="stop-color:#D1D9DF"/>
	<stop  offset="0.96" style="stop-color:#CED6DD"/>
</linearGradient>
<path class="st6" d="M40.7,328.7c0.1-1.3-3.1-60.7-3.1-60.7s-10.6,4.1-8.2,14.5C31,290,40.7,328.7,40.7,328.7z"/>
<linearGradient id="SVGID_6_" gradientUnits="userSpaceOnUse" x1="224.0369" y1="35.9265" x2="355.6772" y2="35.9265" gradientTransform="matrix(0.9991 -4.222441e-02 -4.222441e-02 -0.9991 -66.2873 408.5648)">
	<stop  offset="0" style="stop-color:#FFFFFF"/>
	<stop  offset="0.32" style="stop-color:#F2F4F6"/>
	<stop  offset="0.91" style="stop-color:#D1D9DF"/>
	<stop  offset="0.96" style="stop-color:#CED6DD"/>
</linearGradient>
<polygon class="st7" points="193.6,248.6 285.8,316.1 230,473.1 160.5,469.9 "/>
<linearGradient id="SVGID_7_" gradientUnits="userSpaceOnUse" x1="433.5046" y1="107.9253" x2="475.8465" y2="107.9253" gradientTransform="matrix(0.9991 -4.222441e-02 -4.222441e-02 -0.9991 -66.2873 408.5648)">
	<stop  offset="0" style="stop-color:#FFFFFF"/>
	<stop  offset="0.32" style="stop-color:#F2F4F6"/>
	<stop  offset="0.91" style="stop-color:#D1D9DF"/>
	<stop  offset="0.96" style="stop-color:#CED6DD"/>
</linearGradient>
<path class="st8" d="M380.6,375c0,0-10.1-81.1-12.3-84.4s-6-7.8-6-7.8s38.3-96,38.4-95.4s-21.3,144.9-21.3,144.9L380.6,375z"/>
<linearGradient id="SVGID_8_" gradientUnits="userSpaceOnUse" x1="117.2575" y1="196.7498" x2="476.1923" y2="196.7498" gradientTransform="matrix(0.9991 -4.222441e-02 -4.222441e-02 -0.9991 -66.2873 408.5648)">
	<stop  offset="0" style="stop-color:#FFFFFF"/>
	<stop  offset="0.32" style="stop-color:#F2F4F6"/>
	<stop  offset="0.91" style="stop-color:#D1D9DF"/>
	<stop  offset="0.96" style="stop-color:#CED6DD"/>
</linearGradient>
<path class="st9" d="M235.6,150.9L41.3,177.5l152.3,71.1L401,187.8L235.6,150.9z M254.9,184.3l-37.3,8.1c-0.1,0-0.3,0-0.4,0
	l-31.5-10.4c-0.3-0.1-0.5-0.4-0.4-0.8c0.1-0.2,0.3-0.4,0.5-0.4l33.9-6.3c0.1,0,0.2,0,0.3,0l34.9,8.5c0.3,0.1,0.5,0.4,0.4,0.7
	C255.4,184.1,255.2,184.3,254.9,184.3z"/>
<linearGradient id="SVGID_9_" gradientUnits="userSpaceOnUse" x1="100.6803" y1="32.8681" x2="228.7836" y2="32.8681" gradientTransform="matrix(0.9991 -4.222441e-02 -4.222441e-02 -0.9991 -66.2873 408.5648)">
	<stop  offset="0" style="stop-color:#FFFFFF"/>
	<stop  offset="0.32" style="stop-color:#F2F4F6"/>
	<stop  offset="0.91" style="stop-color:#D1D9DF"/>
	<stop  offset="0.96" style="stop-color:#CED6DD"/>
</linearGradient>
<path class="st10" d="M37.2,267.7c0,0-10.6,6.9-6.2,16.3s13.6,51.6,129.9,91.1c2.2,0-2.7,94.6-2.7,94.6l-55.4-32.4l5.5-22.1
	c0,0,1.9-25.4-12.7-33.7s-56.4-54.7-56.4-54.7s-3.4-5-4.4,0s15.4,44.5,15.4,44.5s-19.8-23.1-18.5-30.7S29.6,284,29.6,284
	S26,273.4,37.2,267.7z"/>
<linearGradient id="SVGID_10_" gradientUnits="userSpaceOnUse" x1="231.6925" y1="-25.3555" x2="293.4325" y2="-42.9655" gradientTransform="matrix(0.9991 -4.222441e-02 -4.222441e-02 -0.9991 -66.2873 408.5648)">
	<stop  offset="1.000000e-02" style="stop-color:#FFFFFF"/>
	<stop  offset="0.31" style="stop-color:#F2F4F6"/>
	<stop  offset="1" style="stop-color:#CED6DD"/>
</linearGradient>
<path class="st11" d="M230.3,472.8c0,0-19.1-76-21.3-79.2s-7.4-5.8-7.4-5.8l-40.4-12.2l-3.4,94L230.3,472.8z"/>
<linearGradient id="SVGID_11_" gradientUnits="userSpaceOnUse" x1="266.3925" y1="136.4302" x2="476.2322" y2="136.4302" gradientTransform="matrix(0.9991 -4.222441e-02 -4.222441e-02 -0.9991 -66.2873 408.5648)">
	<stop  offset="0" style="stop-color:#FFFFFF"/>
	<stop  offset="0.32" style="stop-color:#F2F4F6"/>
	<stop  offset="0.91" style="stop-color:#D1D9DF"/>
	<stop  offset="0.96" style="stop-color:#CED6DD"/>
</linearGradient>
<path class="st12" d="M287.1,321.5c1.5,0,76.1-30.9,78.9-34.2s34.4-95.6,35-99.6l-27.6,8.7c0,0,0.3-3.6-4.7-2.2s-18.5,5.4-18.5,5.4
	l0.4,3.6l-66.6,19.3l-1.1-2.9l-32.4,9.9l-0.4,2.9c0,0-57.3,16.3-56.6,16.3S287.1,321.5,287.1,321.5z"/>
<path class="st13" d="M85.4,254c-0.4,1.4-1.9,2.3-2.7,1.8l-1.5-1l7-24.1l3.2,2.3L85.4,254z"/>
<path class="st13" d="M95.3,235.5l4.2,2.8c1.5,0.9,2.6,2.3,3.1,3.9c0.5,1.7,0.5,3.5,0,5.1c-0.2,1.1-0.7,2-1.4,2.9
	c-0.5,0.6-1.2,0.9-1.9,1v0.1c1.5,1.8,1.8,4.1,1,7.1c-0.3,0.9-0.7,1.8-1.2,2.7c-0.4,0.7-0.9,1.2-1.6,1.6c-0.6,0.4-1.3,0.5-2.1,0.4
	c-0.9-0.1-1.8-0.5-2.6-1l-6.1-3.7c0,0,6.1-21.1,6.1-21.1C93.1,236.1,94.6,235.1,95.3,235.5L95.3,235.5z M97,255.9
	c0.3-0.8,0.3-1.6,0.2-2.4c-0.2-0.7-0.7-1.2-1.4-1.6l-2.9-1.8l-1.7,5.8l2.9,1.8c0.5,0.4,1.1,0.5,1.7,0.3
	C96.3,257.7,96.6,257,97,255.9L97,255.9z M99.2,246.3c0.2-0.7,0.3-1.5,0.1-2.2c-0.2-0.6-0.6-1.1-1.2-1.4l-2.6-1.7l-1.4,5.1l2.7,1.8
	c0.4,0.3,1,0.4,1.4,0.2C98.8,247.6,99.1,247,99.2,246.3L99.2,246.3z"/>
<path class="st13" d="M82.8,232.3c-3.6-3.8-5.2-2.3-7,3.9c-1.8,6-1.5,9,3,11.2c1.4,0.7,1.5,1.6,0.7,5.4c-0.6,0.1-2.9-0.7-4.3-1.7
	c-2.2-1.6-3.6-3.9-4-6.6c-0.4-2.8,0.1-6.5,1.4-10.9c2.6-8.8,5.9-10.6,10.2-7.4c1.3,1,2.4,2.3,3.2,3.7
	C84.5,233.6,84,233.6,82.8,232.3z"/>
<path class="st13" d="M109.5,259.9c1.1,0.6,3.6-1.2,4-2.6l3.7-14.3l-8.5-5.2l-5.1,18.7L109.5,259.9z"/>
<path class="st13" d="M84.1,182l-0.5-0.2l-0.6-0.2h-1l-0.4-0.6h1c0.4,0.1,0.7,0.2,0.7,0.2l0.5,0.2L84.1,182z"/>
<path class="st13" d="M53.8,202c-0.1-0.7-0.2-1.5-0.3-2.2l1-0.4c0.1,0.7,0.2,1.5,0.3,2.2L53.8,202z M53.4,197.8c0-0.7,0-1.5,0-2.3
	l1-0.4c0,0.7,0,1.5,0,2.2L53.4,197.8z M54.3,193.1l-1,0.6c0.1-0.8,0.2-1.5,0.3-2.3l1-0.6C54.5,191.6,54.4,192.4,54.3,193.1
	L54.3,193.1z M54.7,189.3l-0.8,0.1c-0.3-0.6-0.3-1.4,0-2l1.1,0.1C54.7,188,54.4,188.5,54.7,189.3L54.7,189.3z M55.3,185.6l-0.8-0.1
	c0.5-0.6,0.7-1,1.5-1.3l0.6,0.5C56.2,184.4,55.7,184.9,55.3,185.6z M58.7,183.9h-1c0.9-0.4,1.8-0.8,2.7-1l0.9,0.1
	C60.5,183.3,59.6,183.6,58.7,183.9L58.7,183.9z M79.5,181.1c-0.8-0.2-1.8,0-2.7-0.1l-0.5-0.6c0.8,0.2,1.9-0.1,2.7,0.1L79.5,181.1z
	 M63.6,182.5l-1.6-0.1c0.8-0.2,1.7-0.4,2.6-0.5L66,182C65.2,182.1,64.3,182.3,63.6,182.5z M74.9,181.2c-0.8-0.1-2,0.1-2.8,0
	l-0.6-0.5c0.8,0.1,2-0.2,2.8,0L74.9,181.2z M70.9,181.3c-0.8,0-1.7,0.3-2.5,0.3l-1.6-0.5c0.8,0,1.7-0.3,2.6-0.3L70.9,181.3z"/>
<path class="st13" d="M54.4,205.6l-0.1-0.5l-0.1-0.6l-0.1-0.5l1-0.5l0.1,0.5c0,0.2,0.1,0.4,0.1,0.6l0.1,0.5L54.4,205.6z"/>
<polygon class="st13" points="52.9,208.2 56.3,211.3 56.7,204.9 "/>
<path class="st13" d="M171.6,341.6l3.2,1.4l-0.9,1.5l-3.2-1.5L171.6,341.6z"/>
<path class="st13" d="M164.9,340.5l1-1.5l3.2,1.5l-1,1.5L164.9,340.5z"/>
<path class="st13" d="M159.1,337.8l1-1.4l3.2,1.5l-1,1.5L159.1,337.8z"/>
<path class="st13" d="M153.4,335.1l1-1.4l3.2,1.5l-1,1.4L153.4,335.1z"/>
<path class="st13" d="M147.7,332.4l1-1.4l3.1,1.5l-1,1.5C149.8,333.4,148.8,332.9,147.7,332.4z"/>
<path class="st13" d="M142.1,329.7l1-1.4l3.1,1.5l-1,1.4C144.2,330.7,143.1,330.2,142.1,329.7z"/>
<path class="st13" d="M136.4,326.9l1-1.4l3.1,1.5l-1,1.4L136.4,326.9z"/>
<path class="st13" d="M130.8,324.2l1-1.4l3.1,1.5l-1,1.4L130.8,324.2z"/>
<path class="st13" d="M125.3,321.3l1.1-1.4l3.1,1.6l-1,1.4L125.3,321.3z"/>
<path class="st13" d="M119.8,318.5l1.1-1.4l3,1.6l-1.1,1.4L119.8,318.5z"/>
<path class="st13" d="M114.3,315.5l1.1-1.4l3,1.6l-1.1,1.4C116.3,316.6,115.3,316.1,114.3,315.5z"/>
<path class="st13" d="M108.9,312.6l1.2-1.4l3,1.7l-1.1,1.4L108.9,312.6z"/>
<path class="st13" d="M103.6,309.5l1.2-1.3c1,0.6,1.9,1.1,2.9,1.7l-1.2,1.3L103.6,309.5z"/>
<path class="st13" d="M98.3,306.3l1.3-1.3l2.8,1.8l-1.2,1.3C100.2,307.5,99.3,306.9,98.3,306.3z"/>
<path class="st13" d="M93.3,302.9l1.4-1.2c0.8,0.6,1.8,1.2,2.7,1.9l-1.3,1.3C95.1,304.2,94.1,303.5,93.3,302.9z"/>
<path class="st13" d="M65.6,281.5l-2.4-2l1.1-1.3c0.8,0.6,1.6,1.3,2.4,2L65.6,281.5z M61.3,277.9l-2.4-2l1.1-1.3l2.4,2L61.3,277.9z
	 M56.9,274.2l-2.4-2.1l1.1-1.2c0.8,0.7,1.5,1.4,2.4,2.1L56.9,274.2z M52.6,270.4c-0.8-0.8-1.6-1.5-2.4-2.2l1.2-1.2
	c0.7,0.7,1.5,1.4,2.3,2.2L52.6,270.4z M48.4,266.5c-0.8-0.8-1.6-1.6-2.3-2.3l1.2-1.1c0.7,0.7,1.5,1.5,2.3,2.2L48.4,266.5z
	 M44.3,262.3c-0.8-0.8-1.5-1.6-2.2-2.4l1.3-1c0.7,0.7,1.4,1.5,2.2,2.3L44.3,262.3z M40.3,257.9c-0.7-0.9-1.4-1.8-2-2.8l1.6-0.6
	c0.5,0.9,1.1,1.7,1.8,2.5L40.3,257.9z"/>
<path class="st13" d="M312.7,287.2c-0.2,0.1-0.5,0.1-0.8,0.1c-0.2,0-0.5-0.2-0.6-0.4c-0.2-0.3-0.4-0.6-0.5-1
	c-0.2-0.6-0.3-1.1-0.3-1.7c-0.1-0.6-0.1-1.3-0.1-1.9c0-0.4,0.1-0.9,0.2-1.3c0.1-0.3,0.2-0.6,0.5-0.8c0.2-0.2,0.5-0.4,0.7-0.5
	c0.2-0.1,0.5-0.1,0.7,0c0.2,0,0.4,0.1,0.5,0.3l-0.4-3.5l1.4-0.5l1.2,10.1l-1.2,0.5l-0.2-0.6c-0.1,0.3-0.3,0.6-0.5,0.9
	C313.2,286.9,313,287.1,312.7,287.2z M312.9,285.5c0.2-0.1,0.3-0.1,0.4-0.3c0.1-0.1,0.2-0.3,0.3-0.4l-0.4-3.5
	c-0.1-0.1-0.2-0.1-0.3-0.2c-0.1,0-0.3,0-0.4,0c-0.1,0-0.2,0.1-0.3,0.2c-0.1,0.1-0.2,0.3-0.2,0.4c0,0.2,0,0.5,0,0.7
	c0,0.3,0,0.7,0.1,1.1s0.1,0.8,0.1,1c0,0.2,0.1,0.4,0.2,0.6c0.1,0.1,0.1,0.2,0.2,0.2C312.7,285.5,312.8,285.5,312.9,285.5z"/>
<path class="st13" d="M318.5,285c-0.6,0.3-1.3,0.2-1.8-0.2c-0.6-0.8-0.9-1.7-0.9-2.6c-0.1-0.6-0.1-1.2,0-1.8c0-0.4,0.1-0.9,0.3-1.3
	c0.1-0.3,0.3-0.7,0.6-0.9c0.3-0.2,0.6-0.4,0.9-0.6c0.3-0.1,0.7-0.2,1-0.2c0.3,0,0.6,0.2,0.8,0.4c0.3,0.3,0.5,0.6,0.6,1
	c0.2,0.5,0.3,1.1,0.4,1.6c0.1,0.6,0.1,1.2,0.1,1.7c0,0.4-0.1,0.9-0.3,1.3c-0.1,0.3-0.4,0.7-0.6,0.9
	C319.2,284.7,318.9,284.9,318.5,285z M318.3,283.6c0.1-0.1,0.2-0.1,0.3-0.2c0.1-0.1,0.2-0.3,0.2-0.5c0-0.2,0-0.5,0-0.8
	c0-0.3-0.1-0.7-0.1-1.1s-0.1-0.9-0.2-1.1c0-0.2-0.1-0.4-0.2-0.6c-0.1-0.1-0.2-0.2-0.3-0.2c-0.1,0-0.2,0-0.4,0
	c-0.1,0.1-0.2,0.1-0.3,0.2c-0.1,0.1-0.2,0.3-0.2,0.4c0,0.2,0,0.5,0,0.7c0,0.3,0.1,0.7,0.1,1.1s0.1,0.8,0.2,1.1
	c0,0.2,0.1,0.4,0.2,0.6c0.1,0.1,0.1,0.2,0.3,0.3C318.1,283.6,318.2,283.6,318.3,283.6L318.3,283.6z"/>
<path class="st13" d="M322.5,278l-2.3-3.9l1.7-0.7l1.2,2.4l0.4-3l1.6-0.6l-1.1,5l2.7,4.4l-1.8,0.7l-1.5-2.9l-0.6,3.7l-1.7,0.6
	L322.5,278z"/>
<path class="st13" d="M327.3,273.1c-0.2,0.1-0.5,0.1-0.6-0.1c-0.2-0.2-0.3-0.4-0.4-0.7c-0.1-0.3,0-0.6,0.1-0.9
	c0.1-0.3,0.3-0.5,0.5-0.6c0.2-0.1,0.5,0,0.6,0.1c0.2,0.2,0.3,0.4,0.4,0.7c0,0.3,0,0.6-0.1,0.9C327.8,272.8,327.6,273,327.3,273.1z
	 M327,275.7h-0.6l-0.2-1.3l2-0.8l1.1,7l-1.4,0.5L327,275.7z"/>
<path class="st13" d="M332.5,279.6c-0.6,0.3-1.3,0.2-1.8-0.2c-0.6-0.7-0.9-1.6-1-2.6c-0.2-1-0.2-2,0.1-3c0.2-0.7,0.8-1.2,1.5-1.5
	c0.3-0.1,0.6-0.2,0.9-0.1c0.3,0,0.6,0.2,0.8,0.3l-0.5,1.5c-0.1-0.1-0.3-0.2-0.4-0.3c-0.1-0.1-0.3-0.1-0.5,0c-0.1,0-0.2,0.1-0.3,0.2
	c-0.1,0.1-0.2,0.2-0.2,0.4c0,0.2,0,0.4,0,0.7c0,0.3,0.1,0.6,0.1,1.1s0.1,0.8,0.2,1.1c0,0.2,0.1,0.4,0.2,0.6c0.1,0.1,0.2,0.2,0.3,0.2
	c0.1,0,0.3,0,0.4,0c0.2-0.1,0.3-0.2,0.5-0.3c0.1-0.2,0.2-0.3,0.3-0.5l0.8,1c-0.1,0.3-0.3,0.6-0.6,0.8
	C333.1,279.2,332.8,279.4,332.5,279.6z"/>
<path class="st13" d="M333.6,271.5l1.1-0.4l0.3,0.7c0.1-0.3,0.2-0.6,0.4-0.9c0.2-0.2,0.4-0.4,0.6-0.5c0.1,0,0.1-0.1,0.2-0.1h0.2
	l0.1,2c-0.1,0-0.2,0-0.3,0c-0.1,0-0.2,0-0.3,0c-0.1,0.1-0.3,0.1-0.4,0.3c-0.1,0.1-0.2,0.2-0.3,0.4l0.8,4.9l-1.4,0.5L333.6,271.5z"/>
<path class="st13" d="M339.7,276.8c-0.4,0.2-0.9,0.2-1.3-0.1c-0.4-0.4-0.6-0.9-0.6-1.5c-0.2-0.7-0.1-1.3,0.2-1.9
	c0.4-0.6,0.9-1,1.6-1.2l0.3-0.1v-0.3c0-0.3-0.1-0.5-0.2-0.7c-0.1-0.1-0.3-0.2-0.5-0.1c-0.2,0.1-0.5,0.3-0.7,0.5
	c-0.2,0.2-0.4,0.4-0.5,0.7l-0.7-1.1c0.2-0.4,0.5-0.7,0.8-1c0.3-0.3,0.6-0.5,1-0.6c0.5-0.2,1-0.2,1.5,0c0.4,0.4,0.7,1,0.8,1.5
	l0.9,4.8l-1.1,0.4c0,0,0,0-0.1-0.1l-0.2-0.3c-0.1,0.2-0.2,0.5-0.4,0.7C340.2,276.5,340,276.7,339.7,276.8z M339.9,275.3
	c0.1-0.1,0.3-0.1,0.3-0.3c0.1-0.1,0.2-0.2,0.2-0.4l-0.3-1.6h-0.1c-0.2,0.1-0.4,0.2-0.5,0.3c-0.1,0.1-0.2,0.2-0.3,0.3
	c-0.1,0.1-0.1,0.2-0.1,0.4c0,0.2,0,0.3,0,0.5c0,0.2,0.1,0.5,0.2,0.7C339.6,275.3,339.8,275.4,339.9,275.3z"/>
<path class="st13" d="M341.7,268.4l0.5-0.2l-0.3-1.7l1.3-0.9l0.4,2l0.9-0.4l0.3,1.4l-0.9,0.4l0.7,3.4c0,0.2,0.1,0.4,0.2,0.5
	c0.1,0.1,0.2,0.1,0.3,0c0.1,0,0.2-0.1,0.3-0.2c0-0.1,0.1-0.1,0.2-0.1l0.4,1.2c-0.1,0.1-0.2,0.3-0.4,0.4c-0.2,0.1-0.4,0.2-0.6,0.3
	c-0.2,0.1-0.4,0.1-0.6,0.1c-0.2,0-0.3,0-0.5-0.1c-0.2-0.1-0.3-0.2-0.4-0.4c-0.1-0.2-0.2-0.5-0.3-0.8l-0.7-3.9l-0.5,0.2L341.7,268.4z
	"/>
<path class="st13" d="M349,273.1c-0.6,0.3-1.4,0.3-2-0.1c-0.7-0.7-1.1-1.6-1.1-2.5c-0.1-0.6-0.2-1.1-0.2-1.7c0-0.4,0.1-0.9,0.2-1.3
	c0.1-0.3,0.3-0.6,0.5-0.9c0.2-0.2,0.5-0.4,0.8-0.5c0.6-0.3,1.3-0.2,1.8,0.3c0.6,0.8,0.9,1.6,1,2.6l0.1,0.5l-2.7,1.1
	c0.1,0.3,0.1,0.5,0.2,0.7c0.1,0.2,0.1,0.3,0.3,0.4c0.1,0.1,0.2,0.1,0.3,0.1c0.1,0,0.3,0,0.4-0.1c0.2-0.1,0.4-0.2,0.6-0.4
	c0.2-0.2,0.3-0.4,0.4-0.6l0.9,1c-0.1,0.3-0.3,0.6-0.6,0.9C349.7,272.8,349.4,273,349,273.1z M347.5,267.4c-0.1,0-0.2,0.1-0.3,0.2
	c-0.1,0.1-0.1,0.2-0.1,0.3c0,0.2,0,0.4,0,0.5c0,0.3,0.1,0.5,0.1,0.8l1.3-0.5c-0.1-0.3-0.1-0.5-0.2-0.7c0-0.2-0.1-0.3-0.2-0.4
	c-0.1-0.1-0.2-0.2-0.3-0.2C347.8,267.4,347.6,267.4,347.5,267.4L347.5,267.4z"/>
<path class="st13" d="M327.6,269c-6.1,0-11.1-6.7-11.1-14.9s4.8-15,10.9-15s11,6.7,11.1,14.9S333.7,269,327.6,269z M327.4,240.5
	c-5.2,0-9.3,6.1-9.3,13.6s4.3,13.5,9.5,13.5s9.4-6.1,9.3-13.6S332.5,240.4,327.4,240.5L327.4,240.5z"/>
<polygon class="st13" points="327.2,262 322.1,256.7 323.3,255.7 326.7,259.2 331.9,248.3 333.4,248.8 "/>
<path class="st14" d="M198.8,204.7l43.6,15.9c3,1.2,3.8,2.8,1.6,3.6l-27.8,8.1c-2.4,0.6-7.1,0-10.3-1.3l-45.8-17.5
	c-2.8-1-2.9-2.2-0.3-2.6l29.9-6.6C192.7,203.7,195.8,203.8,198.8,204.7z"/>
<path class="st15" d="M203.6,226l9,3.6c0.7,0.3,1.4,0.4,2.1,0.4l2.8-0.5c0.5-0.1,0.3-0.4-0.4-0.7l-8.9-3.6c-0.7-0.3-1.4-0.4-2.1-0.3
	l-2.9,0.5C202.8,225.4,203,225.7,203.6,226z M205.7,226.6l3.9-0.7l5.4,2.2l-3.9,0.7L205.7,226.6z M217,229.2l-2.8,0.5
	c-0.4,0-0.9,0-1.3-0.2l-1.3-0.5l3.9-0.7l1.3,0.5C217.2,229,217.3,229.2,217,229.2z M206.6,225.1c0.4,0,0.9,0,1.3,0.2l1.2,0.5
	l-3.9,0.7L204,226c-0.4-0.2-0.5-0.3-0.2-0.4L206.6,225.1z"/>
<polygon class="st15" points="207.6,225.8 207.1,225.6 205.3,225.9 205.8,226.1 "/>
<path class="st15" d="M214.3,229.2c0.3,0.1,0.6,0.2,0.9,0.1c0.2,0,0.1-0.2-0.1-0.3c-0.3-0.1-0.6-0.2-0.9-0.1
	C214,228.9,214,229.1,214.3,229.2z"/>
<path d="M218.5,227.3l-0.8-0.3h0.4h0.4h0.3h0.2c0.2-0.1,0.3-0.1,0.3-0.2s-0.1-0.1-0.3-0.2c-0.1,0-0.2-0.1-0.3-0.1l-0.4-0.1
	c-0.1,0-0.3,0-0.4,0h-0.5h-0.6c-0.2,0-0.4,0-0.5-0.1c-0.2,0-0.3-0.1-0.5-0.1c-0.2,0-0.4-0.1-0.5-0.2c-0.2-0.1-0.3-0.1-0.5-0.3
	c-0.1,0-0.1-0.1-0.1-0.2c0-0.1,0.1-0.1,0.1-0.2c0.1-0.1,0.2-0.1,0.4-0.1c0.3-0.1,0.6-0.1,0.9-0.1l0.8,0.3c-0.3-0.1-0.7-0.1-1,0
	c-0.1,0-0.1,0-0.2,0.1c0,0-0.1,0-0.1,0.1c0,0,0,0.1,0,0.1c0.1,0.1,0.1,0.1,0.2,0.1c0.1,0,0.2,0.1,0.3,0.1c0.1,0,0.2,0.1,0.3,0.1h0.4
	h0.5h0.6l0.6,0.1l0.6,0.1c0.2,0,0.4,0.1,0.5,0.2c0.2,0.1,0.3,0.2,0.5,0.3c0.1,0.1,0.1,0.1,0.1,0.2s-0.1,0.1-0.2,0.2
	c-0.1,0.1-0.3,0.1-0.4,0.1h-0.2h-0.3L218.5,227.3L218.5,227.3z"/>
<path d="M222.8,226.4c0,0.1-0.2,0.2-0.4,0.2c-0.4,0.1-0.9,0.1-1.3,0c-0.5-0.1-1-0.2-1.5-0.4c-0.4-0.1-0.7-0.3-1-0.6
	c-0.1-0.2,0-0.3,0.4-0.4c0.2,0,0.5-0.1,0.7-0.1l0.7,0.3c-0.3,0-0.5,0-0.8,0c-0.2,0.1-0.3,0.1-0.2,0.3c0.2,0.2,0.4,0.3,0.6,0.4
	c0.3,0.1,0.7,0.2,1,0.3c0.3,0.1,0.5,0.1,0.8,0c0.2,0,0.3-0.1,0.2-0.2L222.8,226.4z"/>
<path d="M225.1,226l-0.5,0.1l-0.5-0.2l0,0c0.2,0.2,0.2,0.3-0.1,0.4c-0.3,0-0.5,0-0.8,0c-0.3-0.1-0.6-0.1-0.9-0.2
	c-0.6-0.3-0.7-0.4-0.4-0.6l0.5-0.2c-0.4-0.2-0.8-0.2-1.2-0.2c-0.3,0.1-0.4,0.2-0.3,0.3l-0.6-0.3c0-0.1,0.2-0.2,0.5-0.3
	c0.7-0.1,1.4,0,2.1,0.3L225.1,226z M223,225.5l-0.4,0.1c-0.1,0-0.2,0.1-0.2,0.1s0.1,0.1,0.3,0.2c0.1,0.1,0.3,0.1,0.4,0.1
	c0.1,0,0.3,0,0.4,0c0.2,0,0.2-0.1,0.1-0.2c-0.1-0.1-0.3-0.2-0.4-0.3L223,225.5z"/>
<path d="M227.7,225.4l-0.5,0.1l-1.9-0.7c-0.4-0.2-0.9-0.3-1.4-0.3c-0.1,0-0.2,0.1-0.1,0.2c0.1,0.1,0.3,0.2,0.5,0.3l1.9,0.8l-0.5,0.1
	l-3.3-1.3l0.5-0.1l0.5,0.2l0,0c-0.2-0.2-0.2-0.3,0.1-0.4c0.3-0.1,0.6-0.1,0.9,0c0.4,0.1,0.8,0.2,1.2,0.4L227.7,225.4z"/>
<path d="M232.8,224.1l-0.5,0.1l-1.8-0.7c-0.3-0.1-0.5-0.2-0.8-0.3c-0.2,0-0.4,0-0.6,0c-0.1,0-0.1,0.1,0,0.2c0.2,0.1,0.4,0.2,0.6,0.3
	l1.8,0.7l-0.5,0.1l-1.8-0.7c-0.4-0.2-0.9-0.3-1.3-0.3c-0.1,0-0.1,0.1-0.1,0.2c0.2,0.1,0.4,0.2,0.6,0.3l1.8,0.7l-0.5,0.1l-3.3-1.3
	l0.5-0.1l0.5,0.2l0,0c-0.2-0.2-0.2-0.3,0.1-0.4c0.2,0,0.4,0,0.6,0c0.2,0,0.5,0.1,0.7,0.1c-0.3-0.2-0.3-0.4,0-0.4
	c0.7-0.1,1.4,0,2,0.3L232.8,224.1z"/>
<path d="M233.8,222.8l-1.4,0.4c0.3,0.1,0.6,0.2,0.9,0.2c0.2,0,0.5,0,0.7,0c0.2-0.1,0.3-0.2,0.3-0.3l0.6,0.2c0,0.1-0.2,0.2-0.5,0.3
	c-0.4,0.1-0.8,0.1-1.2,0c-0.5-0.1-1-0.2-1.5-0.4c-0.4-0.1-0.7-0.3-0.9-0.6c-0.1-0.2,0-0.3,0.3-0.4c0.4-0.1,0.7-0.1,1.1,0
	c0.5,0.1,1,0.2,1.4,0.4L233.8,222.8z M232.8,222.8c-0.2-0.1-0.5-0.2-0.7-0.2c-0.2,0-0.4,0-0.6,0c-0.1,0-0.2,0.1-0.1,0.2
	c0.1,0.1,0.3,0.2,0.4,0.3L232.8,222.8z"/>
<polygon class="st16" points="165.3,211.9 166.3,211.7 173.7,214.7 172.7,214.9 "/>
<polygon class="st16" points="172.4,210.6 179.7,213.5 173.7,214.7 172.6,214.3 177.7,213.3 172.4,211.2 167.4,212.1 166.3,211.7 
	"/>
<polygon class="st16" points="175.9,216.2 176.9,216 174.8,215.1 173.7,215.3 "/>
<polygon class="st16" points="185.6,220.2 186.6,220 185.5,219.6 184.5,219.8 "/>
<polygon class="st16" points="187.8,221.2 188.8,221 187.7,220.5 186.7,220.7 "/>
<polygon class="st16" points="172.5,211.8 175.6,213.1 172.6,213.6 169.4,212.4 "/>
<polygon class="st16" points="176.8,214.7 175.8,214.9 176.8,215.4 177.8,215.2 "/>
<polygon class="st16" points="187.6,219.8 186.6,220 187.7,220.5 188.7,220.3 189.7,220.1 190.8,220.6 191.8,220.3 189.6,219.4 
	188.6,219.6 "/>
<polygon class="st16" points="196.1,221.5 199.4,222.9 196.4,223.6 193.1,222.2 "/>
<polygon class="st16" points="181.3,218.4 182.3,218.2 184.4,219.1 183.4,219.3 "/>
<polygon class="st16" points="176.9,216.6 177.9,216.4 179,216.9 178,217.1 "/>
<polygon class="st16" points="188.1,215.7 189.1,216.1 187.2,216.5 186.1,216.1 185.1,216.3 186.2,216.8 187.2,216.5 188.2,217 
	187.3,217.2 188.3,217.6 187.3,217.9 186.3,217.4 185.3,217.6 184.2,217.2 185.2,217 184.1,216.5 183.1,216.7 184.2,217.2 
	183.2,217.4 184.3,217.8 185.3,217.6 187.4,218.5 186.4,218.7 187.5,219.2 185.5,219.6 183.3,218.7 184.3,218.5 185.4,218.9 
	186.4,218.7 185.3,218.3 184.3,218.5 183.3,218 182.3,218.2 181.2,217.8 182.2,217.6 181.1,217.1 180.1,217.3 176.9,216 
	178.9,215.6 177.8,215.2 178.8,215 177.8,214.5 178.8,214.3 182,215.6 180,216 181,216.5 186,215.4 187.1,215.9 "/>
<polygon class="st16" points="188.4,218.3 189.5,218.8 188.5,219 187.4,218.5 "/>
<polygon class="st16" points="191.6,219 192.7,219.5 191.7,219.7 189.5,218.8 191.5,218.3 192.6,218.8 "/>
<polygon class="st16" points="188.9,221.6 189.9,221.4 197.7,224.8 196.7,225 "/>
<polygon class="st16" points="195.8,220.2 203.6,223.4 197.7,224.8 196.6,224.3 201.5,223.2 196,220.8 191,221.9 189.9,221.4 "/>
<polygon class="st16" points="180.8,214.6 181.8,214.4 180.8,213.9 179.8,214.1 "/>
<polygon class="st16" points="183,215.4 184,215.2 182.9,214.8 181.9,215 "/>
<polygon class="st16" points="178.6,212.4 179.6,212.2 178.6,211.8 177.6,212 "/>
<polygon class="st16" points="180.7,213.3 181.7,213.1 180.7,212.7 179.7,212.9 "/>
<polygon class="st16" points="183.8,213.9 184.9,214.4 183.9,214.6 182.8,214.1 "/>
<polygon class="st16" points="200,220.6 201.1,221.1 200.1,221.3 199,220.9 "/>
<polygon class="st16" points="202.3,222.3 203.3,222.1 202.2,221.6 201.2,221.8 "/>
<polygon class="st16" points="204.6,223.2 205.5,223 204.4,222.5 203.4,222.8 "/>
<polygon class="st16" points="189.8,213.3 190.8,213.7 188.9,214.2 189.9,214.6 188,215 186.9,214.6 185.9,214.8 181.7,213.1 
	182.7,212.9 183.8,213.3 184.7,213.1 185.8,213.5 184.8,213.7 185.9,214.2 187.8,213.7 185.7,212.9 186.7,212.7 188.8,213.5 "/>
<polygon class="st16" points="188.1,215.7 189.1,215.5 188,215 187,215.2 "/>
<polygon class="st16" points="198.1,215.4 200.2,216.3 199.3,216.6 197.1,215.7 "/>
<polygon class="st16" points="194,215 195,214.8 199.3,216.6 198.3,216.8 196.2,215.9 195.2,216.1 196.3,216.6 194.3,217 
	195.4,217.5 194.4,217.7 193.3,217.2 194.3,217 193.2,216.6 192.3,216.8 191.2,216.4 190.2,216.6 189.1,216.1 190.1,215.9 
	189.1,215.5 191,215 192.1,215.5 191.1,215.7 192.2,216.1 195.1,215.5 "/>
<polygon class="st16" points="196.5,217.9 197.6,218.4 196.6,218.6 197.7,219 196.7,219.3 197.8,219.7 196.8,219.9 195.7,219.5 
	193.8,219.9 192.7,219.5 193.6,219.3 192.6,218.8 193.6,218.6 192.5,218.1 191.5,218.3 190.4,217.9 189.4,218.1 188.3,217.6 
	189.3,217.4 188.2,217 190.2,216.6 193.4,217.9 194.4,217.7 195.5,218.1 "/>
<polygon class="st16" points="199.7,219.3 198.6,218.8 197.7,219 198.8,219.5 "/>
<polygon class="st16" points="205,220.2 206.1,220.7 205.1,220.9 206.2,221.4 205.2,221.6 207.5,222.5 206.5,222.8 203.2,221.4 
	202.2,221.6 198.9,220.2 200.8,219.7 203,220.7 "/>
<polygon class="st16" points="198.6,218.8 199.6,218.6 198.5,218.1 197.6,218.4 "/>
<polygon class="st16" points="182.6,211.6 184.7,212.4 185.7,212.2 184.6,211.8 185.6,211.6 184.6,211.2 183.6,211.4 "/>
<polygon class="st16" points="179.4,209.1 178.4,209.3 179.4,209.8 180.4,209.5 "/>
<polygon class="st16" points="185.6,211.6 186.6,211.4 190.8,213.1 189.8,213.3 187.7,212.4 186.7,212.7 185.7,212.2 186.6,212 "/>
<polygon class="st16" points="189.6,212 191.7,212.8 190.8,213.1 188.7,212.2 "/>
<polygon class="st16" points="192,214.8 193.1,215.3 194,215 193,214.6 "/>
<polygon class="st16" points="199.4,217.2 198.3,216.8 197.3,217 196.4,217.2 197.4,217.7 198.4,217.5 "/>
<polygon class="st16" points="200.6,218.4 199.6,218.6 200.7,219.1 201.7,218.8 202.6,218.6 201.6,218.1 "/>
<polygon class="st16" points="210,220.4 211.1,220.9 210.2,221.1 209.1,220.7 "/>
<polygon class="st16" points="208.1,220.9 209.1,220.7 210.2,221.1 208.3,221.6 206.1,220.7 207,220.4 "/>
<polygon class="st16" points="208.3,221.6 209.4,222.1 208.4,222.3 207.3,221.8 "/>
<polygon class="st16" points="185.3,207.8 187.3,208.6 186.3,208.8 185.3,208.4 184.3,208.7 185.4,209.1 184.4,209.3 185.4,209.7 
	184.4,209.9 183.4,209.5 182.4,209.7 181.4,209.3 182.4,209.1 181.4,208.7 "/>
<polygon class="st16" points="180.4,209.5 181.4,209.3 185.5,211 184.6,211.2 183.5,210.8 181.5,211.2 180.5,210.8 179.5,211 
	180.6,211.4 181.5,211.2 182.6,211.6 181.6,211.8 183.7,212.7 182.7,212.9 181.6,212.5 180.7,212.7 179.6,212.2 180.6,212 
	179.6,211.6 178.6,211.8 176.5,211 175.5,211.2 174.5,210.8 177.4,210.2 178.5,210.6 179.5,210.4 178.4,210 179.4,209.8 
	180.5,210.2 181.4,209.9 "/>
<polygon class="st16" points="184.4,209.9 185.5,210.3 184.5,210.6 183.5,210.1 "/>
<polygon class="st16" points="192.8,213.3 191.8,213.5 192.9,213.9 193.8,213.7 "/>
<polygon class="st16" points="200.4,217 201.4,217.4 202.4,217.2 201.3,216.8 "/>
<polygon class="st16" points="202.6,218.6 203.6,218.4 208,220.2 207,220.4 204.8,219.5 203.9,219.7 202.8,219.3 203.7,219.1 "/>
<polygon class="st16" points="206.7,219 208.9,219.9 208,220.2 205.8,219.3 "/>
<polygon class="st16" points="212.2,221.4 213.2,221.1 212.1,220.6 211.1,220.9 "/>
<polygon class="st16" points="208.5,217.9 210.7,218.8 209.7,219 208.6,218.6 206.7,219 205.6,218.6 204.7,218.8 202.5,217.9 
	203.5,217.7 202.4,217.2 203.4,217 202.3,216.5 203.2,216.3 206.5,217.6 205.5,217.9 206.6,218.3 "/>
<polygon class="st16" points="211,220.2 211.9,219.9 210.8,219.5 209.9,219.7 "/>
<polygon class="st16" points="191.6,211.5 192.6,212 193.6,211.7 195.7,212.6 194.7,212.8 197.9,214.1 196.9,214.3 198,214.8 
	198.9,214.5 197.9,214.1 198.8,213.9 201,214.7 200,215 201.1,215.4 202,215.2 203.1,215.6 201.2,216.1 199.1,215.2 198.1,215.4 
	197,215 196.1,215.2 193.9,214.4 194.9,214.1 193.8,213.7 194.8,213.5 190.6,211.8 189.6,212 187.5,211.2 188.5,210.9 189.6,211.4 
	190.5,211.1 189.5,210.7 190.4,210.5 192.5,211.3 "/>
<path class="st16" d="M216.1,216.5l-2.2-0.9l-0.9,0.3l-2.1-0.9l-1.9,0.5l-1.1-0.4l0.9-0.3l-1.1-0.4l-0.9,0.3l-1.1-0.4l0.9-0.3
	l-1.1-0.4l-2.8,0.7l2.1,0.9l0.9-0.3l1.1,0.4l-2.8,0.7l1.1,0.4l0.9-0.2l1.1,0.4l-0.9,0.3l2.2,0.9l0.9-0.3l2.2,0.9l0.9-0.3l1.1,0.5
	l0.9-0.3l-1.1-0.5l1.9-0.5l1.1,0.4l-0.9,0.3l1.1,0.5l0.9-0.3l1.1,0.5l-0.9,0.3l1.1,0.5l2.8-0.8l-1.1-0.5l-0.9,0.3l-1.1-0.4l0.9-0.3
	l-1.1-0.4l-0.9,0.3l-2.2-0.9L216.1,216.5z M214.3,217.1l-2.8,0.8l-3.3-1.4l2.8-0.8L214.3,217.1z"/>
<polygon class="st16" points="215.1,220.6 216,220.4 216,220.4 216.9,220.1 213.7,218.7 212.7,219 211.6,218.5 210.7,218.8 "/>
<polygon class="st16" points="189.4,209.4 190.3,209.2 188.3,208.4 187.3,208.6 "/>
<polygon class="st16" points="201.8,213.8 203.9,214.7 203,214.9 203,214.9 202,215.2 201,214.7 201.9,214.5 200.9,214.1 "/>
<path class="st16" d="M187.2,207.4l7.2,2.8l6.6-1.7l-7.1-2.8L187.2,207.4z M199,208.4l-4.7,1.2l-5.1-2l4.8-1.2L199,208.4z"/>
<path class="st16" d="M201.6,212.5l-4.2-1.7l-1.9,0.5l-4.1-1.6l-1,0.2l-1-0.4l-1,0.2l-1-0.4l-1,0.2l2.1,0.8l1-0.2l1,0.4l1-0.2
	l2.1,0.8l-1,0.2l1.1,0.4l1-0.2l2.1,0.8l-1,0.2l1.1,0.4l1-0.2l2.1,0.9l2.9-0.7l1.1,0.4l0.9-0.3l-2.1-0.9L201.6,212.5z M199.6,212.3
	l-1,0.2l-2.1-0.9l1-0.2L199.6,212.3z"/>
<polygon class="st16" points="211.2,216.4 210.3,216.6 211.3,217.1 212.3,216.9 "/>
<polygon class="st16" points="216.8,219.4 217.7,219.1 216.6,218.7 215.7,218.9 "/>
<polygon class="st16" points="198.3,209.9 197.3,210.1 198.4,210.5 199.3,210.3 "/>
<polygon class="st16" points="201.4,211.1 200.4,211.4 201.5,211.8 202.4,211.6 "/>
<polygon class="st16" points="200.3,210.7 201.3,210.5 200.3,210.1 199.3,210.3 "/>
<polygon class="st16" points="209.6,213.2 210.6,213.6 208.8,214.1 202.4,211.6 203.4,211.3 208.6,213.4 "/>
<polygon class="st16" points="210.9,215 211.8,214.8 210.8,214.3 209.8,214.6 "/>
<polygon class="st16" points="194,207 197.1,208.2 194.2,208.9 191.1,207.7 "/>
<polygon class="st16" points="218.3,217.4 219.2,217.2 218.1,216.7 217.2,217 "/>
<polygon class="st16" points="201.1,209.1 200.1,209.4 201.2,209.8 202.1,209.6 "/>
<polygon class="st16" points="213.8,214.9 212.9,215.2 214,215.6 214.9,215.4 218.1,216.7 219.1,216.4 216.9,215.6 217.8,215.3 
	215.7,214.4 214.8,214.7 "/>
<polygon class="st16" points="222.5,218.5 223.4,218.3 223.4,218.3 224.3,218 223.3,217.5 222.3,217.8 221.2,217.4 220.3,217.6 "/>
<polygon class="st16" points="203.2,210 202.2,210.2 201.3,210.5 202.3,210.9 203.3,210.6 205.4,211.5 206.3,211.2 207.3,211.6 
	206.4,211.9 209.6,213.2 210.5,212.9 211.6,213.4 210.6,213.6 212.8,214.5 213.7,214.2 212.6,213.8 213.6,213.5 210.4,212.2 
	209.4,212.5 208.4,212.1 209.3,211.8 206.2,210.5 205.3,210.8 204.2,210.4 205.1,210.1 203.1,209.3 202.1,209.6 "/>
<polygon class="st16" points="221.2,217.4 222.2,217.1 221.1,216.6 220.2,216.9 "/>
<path class="st13" d="M87.9,191.1c-3.6,0-6.8-0.8-8-2.1c-1.4-1.7,1-3.6,5.5-4.2s9.3,0.2,10.8,1.9s-1,3.6-5.5,4.2l0,0
	C89.7,191,88.8,191.1,87.9,191.1z M88.2,185.1c-0.8,0-1.6,0.1-2.3,0.2c-1.5,0.1-2.9,0.6-4.2,1.4c-0.9,0.7-1,1.4-0.4,2.1
	c1.2,1.4,5.2,2.1,9,1.6l0,0c3.7-0.5,5.8-2.1,4.6-3.5C93.9,185.8,91.2,185.1,88.2,185.1L88.2,185.1z"/>
<path class="st13" d="M84,187.4l1.1-0.2c-0.2,0.2-0.2,0.5-0.1,0.6c0,0,0,0,0.1,0.1c0.2,0.2,0.4,0.3,0.7,0.4c0.3,0.1,0.7,0.1,1,0
	c0.8-0.1,1.1-0.4,0.6-0.9l-0.2-0.2l1-0.1l0.2,0.2c0.5,0.5,1.1,0.6,1.8,0.5c0.7-0.1,1-0.3,0.7-0.7c-0.3-0.3-0.6-0.4-1-0.5l1.1-0.1
	c0.4,0.1,0.7,0.3,1,0.6c0.2,0.2,0.2,0.4,0,0.6c0,0,0,0,0,0c-0.3,0.2-0.7,0.4-1.1,0.4c-0.8,0.2-1.6,0.1-2.4-0.3l0,0
	c0.1,0.2,0.1,0.4-0.1,0.5c0,0,0,0,0,0c-0.3,0.2-0.7,0.3-1.1,0.4c-0.6,0.1-1.2,0.1-1.9-0.1c-0.5-0.1-0.9-0.3-1.3-0.7
	C83.9,187.9,83.9,187.6,84,187.4z"/>
<path class="st13" d="M161.1,332.7c0-0.1,0.1-0.3,0.2-0.4c0.1-0.2,0.4-0.4,0.6-0.5c0.1-0.1,0.3-0.1,0.4-0.1
	c-0.2-0.2-0.3-0.4-0.4-0.6c-0.1-0.2-0.1-0.5,0-0.8c0.1-0.2,0.1-0.4,0.3-0.5c0.1-0.1,0.3-0.3,0.4-0.3c0.2-0.1,0.3-0.1,0.5-0.1
	c0.2,0,0.4,0,0.6,0.1c0.2,0.1,0.4,0.2,0.6,0.3c0.2,0.1,0.3,0.3,0.4,0.5c0.1,0.2,0.2,0.3,0.2,0.5c0,0.2,0,0.4,0,0.6
	c-0.1,0.2-0.2,0.5-0.4,0.6c-0.2,0.2-0.4,0.3-0.7,0.3c0.1,0.1,0.2,0.2,0.3,0.4c0.1,0.1,0.1,0.3,0.2,0.4c0,0.1,0.1,0.3,0.1,0.4
	c0,0.2,0,0.3-0.1,0.5c0,0.2-0.1,0.4-0.3,0.6c-0.1,0.2-0.3,0.3-0.4,0.4c-0.2,0.1-0.4,0.1-0.6,0.1c-0.2,0-0.5,0-0.7-0.1
	c-0.2-0.1-0.4-0.2-0.6-0.3c-0.2-0.1-0.3-0.3-0.4-0.5c-0.1-0.2-0.2-0.4-0.2-0.6C161.1,333.2,161.1,332.9,161.1,332.7z M162.1,332.9
	c0,0.1,0,0.2,0,0.3c0,0.1,0,0.2,0.1,0.3c0,0.1,0.1,0.2,0.2,0.2c0.1,0.1,0.2,0.1,0.3,0.1c0.1,0,0.2,0,0.3,0c0.1,0,0.2,0,0.3-0.1
	c0.1,0,0.1-0.1,0.2-0.2c0.1-0.1,0.1-0.2,0.1-0.3c0-0.1,0-0.2,0-0.3c0-0.1,0-0.2-0.1-0.3c0-0.1-0.1-0.2-0.2-0.2
	c-0.1-0.1-0.2-0.1-0.3-0.2c-0.1,0-0.2,0-0.3,0c-0.1,0-0.2,0-0.3,0.1c-0.1,0.1-0.2,0.1-0.2,0.2C162.2,332.7,162.1,332.8,162.1,332.9
	L162.1,332.9z M162.9,330.6c0,0.1,0,0.2,0,0.3c0,0.1,0,0.2,0.1,0.3c0,0.1,0.1,0.1,0.1,0.2c0.1,0.1,0.1,0.1,0.2,0.1
	c0.1,0,0.1,0,0.2,0c0.1,0,0.1,0,0.2-0.1c0.1,0,0.1-0.1,0.2-0.2c0.1-0.1,0.1-0.2,0.1-0.3c0-0.1,0-0.2,0-0.3c0-0.1,0-0.2,0-0.3
	c0-0.1-0.1-0.1-0.1-0.2c-0.1-0.1-0.1-0.1-0.2-0.1c-0.1,0-0.2,0-0.2,0c-0.1,0-0.1,0-0.2,0.1c-0.1,0.1-0.1,0.1-0.2,0.2
	C163,330.4,162.9,330.5,162.9,330.6L162.9,330.6z"/>
<path class="st13" d="M168.8,336.7c-0.3,0.1-0.7,0-1-0.1c-0.4-0.2-0.8-0.5-1-0.9c-0.4-1-0.1-2.2,0.8-2.9c0.4-0.3,1-0.3,1.4-0.1
	c0.3,0.1,0.6,0.2,0.8,0.5l-0.3,1c-0.1-0.2-0.4-0.4-0.6-0.5c-0.2-0.1-0.5-0.1-0.7,0.1c-0.2,0.2-0.4,0.4-0.5,0.7
	c-0.1,0.3-0.1,0.6,0,0.9c0.1,0.2,0.3,0.4,0.6,0.5c0.3,0.1,0.5,0.1,0.8,0L168.8,336.7z"/>
<path class="st13" d="M174.4,338.8l-1-0.3l0.6-2.2c0.1-0.6,0-0.9-0.3-1c-0.2-0.1-0.3,0-0.5,0.1c-0.2,0.2-0.3,0.4-0.3,0.6l-0.6,2.1
	l-1-0.3l0.6-2.2c0.1-0.5,0-0.9-0.3-1c-0.2-0.1-0.3,0-0.5,0.1c-0.2,0.2-0.3,0.4-0.3,0.6l-0.6,2.1l-1-0.3l1-3.8l1,0.3l-0.1,0.6l0,0
	c0.2-0.2,0.3-0.3,0.6-0.4c0.2-0.1,0.4-0.1,0.6,0c0.4,0.1,0.7,0.5,0.7,1c0.3-0.4,0.8-0.5,1.3-0.4c0.7,0.2,0.9,0.9,0.6,1.9
	L174.4,338.8z"/>
<line class="st0" x1="463.5" y1="188.6" x2="478.5" y2="188.6"/>
<line class="st0" x1="464.5" y1="465.6" x2="479.5" y2="465.6"/>
<path class="st17" d="M18,483.2v-6.3c-0.1-3.9,0.5-7.9,1.6-11.6c1.1-3.4,2.9-6.5,5.2-9.2c2.4-2.9,6.5-6.6,12.3-11.1
	c2.9-2.2,5.7-4.6,8.3-7.1c1.2-1.2,2.3-2.6,3.1-4.2c0.7-1.4,1-2.9,1-4.4c0-5.2-3.1-7.8-9.4-7.8c-6.4,0-12.5,2.3-18.1,7v-19.2
	c3.9-2,8-3.6,12.2-4.6c3.8-0.9,7.7-1.3,11.7-1.3c8.5,0,15.2,2,19.8,6.1s7,9.8,7,17.2c0.2,5-1.1,10-3.6,14.4
	c-2.4,3.9-7,8.1-13.7,12.3c-3.5,2.2-6.9,4.6-10.1,7.2c-1.7,1.5-2.5,2.8-2.5,3.9h30.7v18.8L18,483.2z"/>
<path d="M490.5,403.1v-7.1h3.1v11.2h-1.3c-0.8,0-1.6-0.1-2.3-0.4c-0.7-0.3-1.3-0.6-1.8-1.1c-0.5-0.4-1-0.9-1.4-1.4
	c-0.4-0.5-0.8-1-1.1-1.5s-0.7-0.9-1-1.3c-0.3-0.3-0.6-0.7-1-0.9c-0.3-0.2-0.6-0.4-1-0.6c-0.3-0.1-0.7-0.2-1-0.2
	c-0.6,0-1.2,0.2-1.6,0.6c-0.4,0.5-0.6,1.2-0.5,1.9c0,1.5,0.7,3,1.7,4.1h-3.3c-0.9-1.5-1.4-3.2-1.4-4.9c0-0.8,0.1-1.6,0.3-2.3
	c0.2-0.6,0.5-1.2,1-1.7c0.4-0.5,0.9-0.8,1.5-1.1c0.6-0.3,1.3-0.4,2-0.4c0.7,0,1.4,0.1,2.1,0.4c0.6,0.2,1.2,0.6,1.6,1
	c0.5,0.4,1,0.9,1.4,1.4c0.4,0.5,0.8,1,1.2,1.6c0.3,0.4,0.5,0.7,0.8,1.1c0.2,0.3,0.5,0.6,0.8,0.9c0.2,0.2,0.5,0.5,0.8,0.6
	C490,403,490.3,403.1,490.5,403.1z"/>
<path d="M493.9,387.5c0,4-2.8,6-8.4,6c-2.9,0-5.1-0.5-6.7-1.6c-1.5-1.1-2.4-2.9-2.3-4.7c0-3.9,2.9-5.9,8.6-5.9
	c2.3-0.1,4.6,0.4,6.5,1.6C493.1,383.9,494,385.7,493.9,387.5z M479.3,387.3c0,1.6,2,2.4,6,2.4c3.8,0,5.7-0.8,5.7-2.4
	c0-1.5-2-2.3-5.9-2.3S479.3,385.8,479.3,387.3z"/>
<path d="M493.6,338.3v3.7h-6.9c-1.7,0-2.6,0.6-2.6,1.9c0,0.6,0.3,1.2,0.8,1.5c0.6,0.4,1.3,0.6,2,0.6h6.7v3.7h-6.9
	c-1.7,0-2.5,0.6-2.5,1.9c0,0.6,0.3,1.2,0.8,1.5c0.6,0.4,1.3,0.6,2,0.6h6.7v3.7h-12v-3.7h1.9l0,0c-1.3-0.8-2.2-2.3-2.2-3.9
	c-0.1-1.5,0.8-2.9,2.2-3.5c-1.4-0.8-2.3-2.4-2.2-4c0-2.6,1.6-3.9,4.8-3.9L493.6,338.3z"/>
<path d="M493.6,316.3v3.7h-6.9c-1.7,0-2.6,0.6-2.6,1.9c0,0.6,0.3,1.2,0.8,1.5c0.6,0.4,1.3,0.6,2,0.6h6.7v3.7h-6.9
	c-1.7,0-2.5,0.6-2.5,1.9c0,0.6,0.3,1.2,0.8,1.5c0.6,0.4,1.3,0.6,2,0.6h6.7v3.7h-12v-3.7h1.9v0c-0.7-0.4-1.2-0.9-1.6-1.6
	c-0.4-0.7-0.6-1.5-0.6-2.3c-0.1-1.5,0.8-2.9,2.2-3.5c-1.4-0.8-2.3-2.4-2.2-4c0-2.6,1.6-3.9,4.8-3.9L493.6,316.3z"/>
<path d="M493.7,372.7c0,4-2.8,6-8.4,6c-2.9,0-5.1-0.5-6.7-1.6c-1.5-1.1-2.4-2.9-2.3-4.7c0-3.9,2.9-5.9,8.6-5.9
	c2.3-0.1,4.6,0.4,6.5,1.6C492.9,369.1,493.8,370.9,493.7,372.7z M479.1,372.5c0,1.6,2,2.4,6,2.4c3.8,0,5.7-0.8,5.7-2.4
	c0-1.5-2-2.3-5.9-2.3S479.1,371,479.1,372.5z"/>
</svg>
