<svg id="Ebene_1" data-name="Ebene 1" xmlns="http://www.w3.org/2000/svg" xmlns:xlink="http://www.w3.org/1999/xlink" viewBox="0 0 500 500"><defs><style>.cls-1{fill:#e11e19;}.cls-10,.cls-11,.cls-12,.cls-13,.cls-14,.cls-15,.cls-16,.cls-17,.cls-18,.cls-19,.cls-2,.cls-20,.cls-21{fill:none;stroke-miterlimit:10;}.cls-10,.cls-11,.cls-12,.cls-13,.cls-14,.cls-15,.cls-16,.cls-17,.cls-18,.cls-2{stroke:#e11e19;}.cls-2{stroke-width:1.23px;}.cls-3{fill:url(#linear-gradient);}.cls-4{fill:url(#linear-gradient-2);}.cls-5{fill:url(#linear-gradient-3);}.cls-6{fill:url(#linear-gradient-4);}.cls-7{fill:url(#linear-gradient-5);}.cls-8{fill:url(#linear-gradient-6);}.cls-9{fill:url(#linear-gradient-7);}.cls-10,.cls-11,.cls-12,.cls-13,.cls-16{stroke-linecap:round;}.cls-10,.cls-11,.cls-12,.cls-13,.cls-14,.cls-16{stroke-width:0.74px;}.cls-11{stroke-dasharray:0 2.23;}.cls-12{stroke-dasharray:0 2.23;}.cls-13{stroke-dasharray:0 2.06;}.cls-15{stroke-width:1.46px;}.cls-16{stroke-dasharray:0 2.07;}.cls-17{stroke-width:0.53px;}.cls-18{stroke-width:1.5px;}.cls-19,.cls-21{stroke:#212934;}.cls-19{stroke-width:0.75px;}.cls-20{stroke:#141b1e;}.cls-20,.cls-21{stroke-width:0.75px;}.cls-22{fill:#7aaaa6;}</style><linearGradient id="linear-gradient" x1="251.84" y1="213.44" x2="286.4" y2="259.61" gradientUnits="userSpaceOnUse"><stop offset="0" stop-color="#fff"/><stop offset="0.32" stop-color="#f2f4f6"/><stop offset="0.91" stop-color="#d1d9df"/><stop offset="0.96" stop-color="#ced6dd"/></linearGradient><linearGradient id="linear-gradient-2" x1="284.13" y1="263.57" x2="442.89" y2="263.57" xlink:href="#linear-gradient"/><linearGradient id="linear-gradient-3" x1="6.02" y1="278.14" x2="215.03" y2="278.14" xlink:href="#linear-gradient"/><linearGradient id="linear-gradient-4" x1="196.76" y1="290.41" x2="302.41" y2="290.41" gradientUnits="userSpaceOnUse"><stop offset="0" stop-color="#fff"/><stop offset="0.26" stop-color="#fafbfc"/><stop offset="0.56" stop-color="#eceff2"/><stop offset="0.88" stop-color="#d5dce2"/><stop offset="0.96" stop-color="#ced6dd"/></linearGradient><linearGradient id="linear-gradient-5" x1="366.36" y1="245.34" x2="452.02" y2="245.34" xlink:href="#linear-gradient"/><linearGradient id="linear-gradient-6" x1="40.29" y1="77.41" x2="416.62" y2="77.41" xlink:href="#linear-gradient"/><linearGradient id="linear-gradient-7" x1="217.89" y1="133.66" x2="416.62" y2="133.66" gradientUnits="userSpaceOnUse"><stop offset="0" stop-color="#fff"/><stop offset="0.3" stop-color="#fcfcfd"/><stop offset="0.56" stop-color="#f1f4f6"/><stop offset="0.79" stop-color="#e0e5ea"/><stop offset="0.96" stop-color="#ced6dd"/></linearGradient></defs><polygon class="cls-1" points="15.82 237.86 15.22 236.56 16.02 236.26 16.42 237.76 15.82 237.86"/><path class="cls-2" d="M30.72,293.16a2.77,2.77,0,0,0,.7-.4"/><polygon class="cls-3" points="284.13 372.08 240.73 377.79 229.88 92.26 287.56 81.98 284.13 372.08"/><path class="cls-4" d="M410.91,124.81l-97.08-7.43-27.77,18.79-1.93,235.91s42.83,2.85,48,2.85,70.81,16,80.52,19.42,30.27,15.42,30.27,15.42Zm-1.14,230.71c-13.71,6.85-71.82-11.57-81.67-12C301.83,342.38,311.54,307,311,302.41s8.57-112.5,8.57-112.5-2.29-16-2.29-20,79.38-18.84,81.66-18.84,8.57,56,11.43,62.24S432.15,344.32,409.77,355.52Z"/><path class="cls-5" d="M40.29,78,12.88,313.26,6,431.47l190.74,46.82L215,106Zm82.8,344.92L41.43,405.2s-14.28-14.85-8.57-38.83S90.54,183.05,90.54,183.05s5.71-12.56,18.27-13.13,17.71,16,17.71,16l19.41,209S142.51,417.76,123.09,422.9Z"/><polygon class="cls-6" points="196.76 478.29 223.03 484.58 289.27 196.19 302.4 137.37 298.41 96.25 215.03 105.96 196.76 478.29"/><path class="cls-7" d="M416.05,76.27l36,335.78s-9.7,2.86-12,2.29-1.14-6.29-4-14.85-18.84-82.24-18.84-82.24L374.36,182.48l-8-45.68Z"/><path class="cls-8" d="M235,48.86l-33.69,6.85s-.57-2.29-5.14-2.29-21.13,2.29-22.84,4-68,11.42-68,11.42a22.15,22.15,0,0,0-6.85-1.71c-2.86,0-19.42,3.43-19.42,3.43l-1.71,2.28L40.29,78,215,106,416.62,75.7ZM212.75,79.12c-4,0-23.42-4.57-23.42-4.57L227,68.84l36.55,5.71s-31.41,5.71-34.26,6.28S216.75,79.12,212.75,79.12Z"/><polygon class="cls-9" points="217.89 105.63 289.84 191.62 373.22 178.49 416.62 75.69 217.89 105.63"/><path class="cls-1" d="M31.59,167.39a.75.75,0,0,1-.52-.23.63.63,0,0,1-.16-.23.94.94,0,0,1-.06-.28.77.77,0,0,1,0-.15s0-.09,0-.14l.07-.12.09-.12a.36.36,0,0,1,.12-.08.5.5,0,0,1,.12-.08.58.58,0,0,1,.14,0,.48.48,0,0,1,.29,0l.14,0L32,166a.24.24,0,0,1,.11.08l.1.12a.75.75,0,0,0,.07.12s0,.1,0,.14a.77.77,0,0,1,0,.15.94.94,0,0,1-.06.28.55.55,0,0,1-.17.23A.74.74,0,0,1,31.59,167.39Z"/><path class="cls-1" d="M89.66,177.71a.75.75,0,0,1-.6-.86h0a.74.74,0,0,1,.85-.6h0a.74.74,0,0,1,.6.86h0a.74.74,0,0,1-.72.61h-.13Zm-2.91-.52a.74.74,0,0,1-.6-.86h0a.73.73,0,0,1,.86-.59h0a.74.74,0,0,1,.6.85h0a.75.75,0,0,1-.73.61h-.13Zm-2.91-.52a.74.74,0,0,1-.6-.85h0a.75.75,0,0,1,.86-.6h0a.73.73,0,0,1,.59.86h0a.73.73,0,0,1-.72.6h-.13Zm-2.91-.51a.75.75,0,0,1-.6-.86h0a.74.74,0,0,1,.86-.6h0a.75.75,0,0,1,.6.86h0a.75.75,0,0,1-.73.6h-.13ZM78,175.64a.73.73,0,0,1-.59-.86h0a.71.71,0,0,1,.84-.59h0a.74.74,0,0,1,.61.85h0a.75.75,0,0,1-.73.61H78Zm-2.91-.52a.74.74,0,0,1-.6-.85h0a.74.74,0,0,1,.86-.6h0a.75.75,0,0,1,.6.86h0a.75.75,0,0,1-.73.6h-.13Zm-2.91-.51a.74.74,0,0,1-.59-.86h0a.73.73,0,0,1,.85-.6h0a.73.73,0,0,1,.59.86h0a.73.73,0,0,1-.72.6H72.2Zm-2.91-.52a.75.75,0,0,1-.6-.86h0a.74.74,0,0,1,.86-.59h0a.73.73,0,0,1,.6.85h0a.75.75,0,0,1-.73.61h-.13Zm-2.91-.52a.72.72,0,0,1-.59-.85h0a.72.72,0,0,1,.85-.6h0a.73.73,0,0,1,.59.86h0a.73.73,0,0,1-.72.6h-.13Zm-2.91-.51a.76.76,0,0,1-.6-.86h0a.75.75,0,0,1,.86-.6h0a.75.75,0,0,1,.6.86h0a.74.74,0,0,1-.73.61h-.13Zm-2.91-.53a.72.72,0,0,1-.59-.85h0a.72.72,0,0,1,.85-.59h0a.74.74,0,0,1,.6.85h0a.75.75,0,0,1-.73.61h0ZM57.65,172a.74.74,0,0,1-.6-.85h0a.74.74,0,0,1,.86-.6h0a.73.73,0,0,1,.6.86h0a.75.75,0,0,1-.73.6h-.13Zm-2.91-.52a.72.72,0,0,1-.59-.85h0a.73.73,0,0,1,.85-.6h0a.74.74,0,0,1,.6.85h0a.75.75,0,0,1-.73.62h0ZM51.83,171a.74.74,0,0,1-.6-.86h0a.74.74,0,0,1,.86-.59h0a.73.73,0,0,1,.6.85h0A.75.75,0,0,1,52,171h-.13Zm-2.9-.52a.73.73,0,0,1-.6-.86h0a.74.74,0,0,1,.85-.59h0a.74.74,0,0,1,.6.86h0a.75.75,0,0,1-.73.6h-.12ZM46,170a.74.74,0,0,1-.6-.85h0a.75.75,0,0,1,.86-.6h0a.75.75,0,0,1,.6.86h0a.74.74,0,0,1-.73.61h0Zm-2.9-.51a.73.73,0,0,1-.6-.86h0a.75.75,0,0,1,.85-.6h0a.75.75,0,0,1,.6.86h0a.75.75,0,0,1-.73.61h-.12Zm-2.92-.52a.75.75,0,0,1-.6-.86h0a.75.75,0,0,1,.86-.59h0a.73.73,0,0,1,.6.85h0a.73.73,0,0,1-.73.61h-.13Zm-2.9-.52a.72.72,0,0,1-.6-.85h0a.73.73,0,0,1,.85-.6h0a.75.75,0,0,1,.6.86h0a.74.74,0,0,1-.72.61h0Zm-2.92-.51a.75.75,0,0,1-.6-.86h0a.76.76,0,0,1,.87-.6h0a.74.74,0,0,1,.59.86h0a.73.73,0,0,1-.73.61h-.13Z"/><path class="cls-1" d="M92.7,178.24a.79.79,0,0,1-.53-.22.78.78,0,0,1-.21-.52.82.82,0,0,1,.21-.53.78.78,0,0,1,.81-.16,1,1,0,0,1,.24.16.78.78,0,0,1,.16.24.78.78,0,0,1-.16.81.78.78,0,0,1-.24.16A.88.88,0,0,1,92.7,178.24Z"/><path class="cls-1" d="M16.85,308.9a.74.74,0,0,1-.52-.22.63.63,0,0,1-.16-.23.71.71,0,0,1-.06-.28.68.68,0,0,1,0-.15s0-.09,0-.14,0-.08.07-.13l.09-.11.11-.09.13-.07.14,0a.71.71,0,0,1,.29,0l.14,0a.47.47,0,0,1,.12.07.53.53,0,0,1,.11.09l.1.11a.83.83,0,0,0,.07.13c0,.05,0,.1,0,.14a.71.71,0,0,1,0,.15.92.92,0,0,1-.05.28.55.55,0,0,1-.17.23A.73.73,0,0,1,16.85,308.9Z"/><path class="cls-1" d="M48.73,314.58a.76.76,0,0,1-.6-.87h0a.75.75,0,0,1,.86-.59h0a.74.74,0,0,1,.6.86h0a.74.74,0,0,1-.73.6h-.13Zm-2.91-.53a.72.72,0,0,1-.59-.85h0a.72.72,0,0,1,.85-.59h0a.73.73,0,0,1,.6.85h0a.75.75,0,0,1-.73.61h0Zm-2.91-.51a.74.74,0,0,1-.6-.85h0a.76.76,0,0,1,.86-.61h0a.76.76,0,0,1,.6.87h0a.75.75,0,0,1-.73.6h-.13ZM40,313a.72.72,0,0,1-.59-.85h0a.73.73,0,0,1,.85-.6h0a.74.74,0,0,1,.6.85h0a.75.75,0,0,1-.73.61H40Zm-2.91-.51a.75.75,0,0,1-.6-.86h0a.74.74,0,0,1,.86-.59h0a.73.73,0,0,1,.6.85h0a.75.75,0,0,1-.73.61h-.13ZM34.18,312a.73.73,0,0,1-.59-.86h0a.74.74,0,0,1,.85-.6h0a.76.76,0,0,1,.6.87h0a.75.75,0,0,1-.73.6h-.13Zm-2.91-.52a.74.74,0,0,1-.6-.85h0a.75.75,0,0,1,.86-.6h0a.74.74,0,0,1,.6.85h0a.74.74,0,0,1-.73.62h0ZM28.36,311a.73.73,0,0,1-.59-.86h0a.74.74,0,0,1,.85-.6h0a.75.75,0,0,1,.6.86h0a.75.75,0,0,1-.73.61h-.13Zm-2.91-.52a.75.75,0,0,1-.6-.86h0a.74.74,0,0,1,.86-.59h0a.74.74,0,0,1,.6.85h0a.73.73,0,0,1-.73.61h-.13Zm-2.91-.52a.72.72,0,0,1-.59-.85h0a.73.73,0,0,1,.85-.6h0a.75.75,0,0,1,.6.86h0a.74.74,0,0,1-.72.61h0Zm-2.91-.51a.75.75,0,0,1-.6-.86h0a.76.76,0,0,1,.87-.6h0a.75.75,0,0,1,.59.86h0a.73.73,0,0,1-.73.61h-.13Z"/><path class="cls-1" d="M129,184.85a.74.74,0,0,1-.52-.22.78.78,0,0,1-.16-.24.88.88,0,0,1-.06-.28.77.77,0,0,1,0-.15s0-.09,0-.14l.07-.12.09-.11a.27.27,0,0,1,.12-.09l.12-.08a.7.7,0,0,1,.14,0,.71.71,0,0,1,.29,0l.14,0a1.25,1.25,0,0,1,.12.08.27.27,0,0,1,.12.09l.09.11.07.12c0,.05,0,.1,0,.14a.77.77,0,0,1,0,.15.88.88,0,0,1-.06.28.78.78,0,0,1-.16.24A.77.77,0,0,1,129,184.85Z"/><path class="cls-1" d="M187.05,195.17a.75.75,0,0,1-.6-.86h0a.75.75,0,0,1,.86-.6h0a.74.74,0,0,1,.59.86h0a.74.74,0,0,1-.72.61h-.13Zm-2.91-.52a.74.74,0,0,1-.6-.85h0a.74.74,0,0,1,.86-.6h0a.74.74,0,0,1,.6.85h0a.76.76,0,0,1-.73.62h0Zm-2.91-.52a.74.74,0,0,1-.6-.85h0a.75.75,0,0,1,.86-.6h0a.73.73,0,0,1,.59.86h0a.73.73,0,0,1-.72.6h-.13Zm-2.91-.51a.75.75,0,0,1-.6-.86h0a.74.74,0,0,1,.86-.6h0a.75.75,0,0,1,.6.86h0a.75.75,0,0,1-.73.61h-.13Zm-2.91-.52a.73.73,0,0,1-.59-.85h0a.72.72,0,0,1,.85-.6h0a.74.74,0,0,1,.6.85h0a.76.76,0,0,1-.73.62h0Zm-2.91-.51a.75.75,0,0,1-.6-.86h0a.74.74,0,0,1,.86-.6h0a.75.75,0,0,1,.6.86h0a.75.75,0,0,1-.73.6h-.13Zm-2.91-.52a.73.73,0,0,1-.59-.86h0a.72.72,0,0,1,.85-.59h0a.72.72,0,0,1,.59.85h0a.73.73,0,0,1-.72.61h-.13Zm-2.91-.52a.74.74,0,0,1-.6-.85h0a.75.75,0,0,1,.86-.6h0a.74.74,0,0,1,.6.86h0a.75.75,0,0,1-.73.6h-.13Zm-2.91-.51a.74.74,0,0,1-.59-.86h0a.72.72,0,0,1,.85-.6h0a.73.73,0,0,1,.59.86h0a.73.73,0,0,1-.72.6h-.13Zm-2.91-.52a.75.75,0,0,1-.6-.86h0a.74.74,0,0,1,.86-.59h0a.73.73,0,0,1,.6.85h0a.74.74,0,0,1-.73.61h-.13ZM158,190a.73.73,0,0,1-.59-.86h0a.72.72,0,0,1,.85-.59h0a.74.74,0,0,1,.6.86h0a.75.75,0,0,1-.73.6H158Zm-2.91-.52a.74.74,0,0,1-.6-.85h0a.75.75,0,0,1,.86-.6h0a.73.73,0,0,1,.6.86h0a.75.75,0,0,1-.73.6H155Zm-2.9-.52a.71.71,0,0,1-.6-.84h0a.73.73,0,0,1,.85-.61h0a.75.75,0,0,1,.6.86h0a.75.75,0,0,1-.73.61h0Zm-2.92-.51a.74.74,0,0,1-.6-.86h0a.74.74,0,0,1,.86-.59h0a.73.73,0,0,1,.6.85h0a.75.75,0,0,1-.73.61h-.13Zm-2.9-.52a.73.73,0,0,1-.6-.85h0a.74.74,0,0,1,.85-.6h0a.75.75,0,0,1,.6.86h0a.75.75,0,0,1-.73.61h0Zm-2.92-.51a.75.75,0,0,1-.6-.86h0a.76.76,0,0,1,.86-.6h0a.75.75,0,0,1,.6.86h0a.74.74,0,0,1-.73.61h-.13Zm-2.9-.52a.73.73,0,0,1-.6-.86h0a.73.73,0,0,1,.85-.59h0a.74.74,0,0,1,.6.85h0a.75.75,0,0,1-.73.61h-.12Zm-2.92-.52a.74.74,0,0,1-.6-.85h0a.75.75,0,0,1,.86-.6h0a.73.73,0,0,1,.6.85h0a.73.73,0,0,1-.73.62h0Zm-2.9-.51a.73.73,0,0,1-.6-.86h0a.74.74,0,0,1,.85-.6h0a.75.75,0,0,1,.6.86h0a.74.74,0,0,1-.72.61h-.13Zm-2.92-.52a.75.75,0,0,1-.6-.86h0a.75.75,0,0,1,.87-.59h0a.73.73,0,0,1,.59.85h0a.73.73,0,0,1-.73.61h-.13Z"/><path class="cls-1" d="M190.09,195.7a.75.75,0,0,1-.53-.22.78.78,0,0,1-.21-.52.75.75,0,0,1,.06-.29.61.61,0,0,1,.15-.23.76.76,0,0,1,.81-.17.81.81,0,0,1,.24.17.63.63,0,0,1,.16.23.78.78,0,0,1-.16.81.78.78,0,0,1-.24.16A.67.67,0,0,1,190.09,195.7Z"/><path class="cls-1" d="M193.21,196.28a.74.74,0,0,1-.52-.22.7.7,0,0,1-.22-.51.72.72,0,0,1,.06-.29.78.78,0,0,1,.16-.24.76.76,0,0,1,.8-.16.72.72,0,0,1,.24.16,1,1,0,0,1,.17.24.88.88,0,0,1,0,.29.7.7,0,0,1-.22.51.51.51,0,0,1-.23.16A.75.75,0,0,1,193.21,196.28Z"/><path class="cls-1" d="M196.26,197a.75.75,0,0,1-.53-.22.74.74,0,0,1-.21-.51.72.72,0,0,1,.06-.29.75.75,0,0,1,.15-.24.78.78,0,0,1,.81-.16,1,1,0,0,1,.24.16.78.78,0,0,1,.16.24.68.68,0,0,1,.05.29.69.69,0,0,1-.21.51.54.54,0,0,1-.24.16A.67.67,0,0,1,196.26,197Z"/><path class="cls-1" d="M199.73,197.75a.8.8,0,0,1-.53-.23A.74.74,0,0,1,199,197a.75.75,0,0,1,.06-.29,1,1,0,0,1,.15-.24.78.78,0,0,1,.81-.16.72.72,0,0,1,.24.16,1,1,0,0,1,.17.24,1,1,0,0,1,.05.29.7.7,0,0,1-.22.51.63.63,0,0,1-.23.17A1,1,0,0,1,199.73,197.75Z"/><path class="cls-1" d="M141.15,334.22a.74.74,0,0,1-.52-.22.78.78,0,0,1-.16-.24.67.67,0,0,1-.06-.28.89.89,0,0,1,0-.15,1.27,1.27,0,0,0,0-.14.75.75,0,0,1,.07-.12l.09-.11a.31.31,0,0,1,.11-.09l.13-.07.14,0a.71.71,0,0,1,.29,0l.14,0,.12.07a.24.24,0,0,1,.11.09.52.52,0,0,1,.1.11l.06.12a1.09,1.09,0,0,0,0,.14.81.81,0,0,1,0,.15.67.67,0,0,1-.06.28.54.54,0,0,1-.16.24A.73.73,0,0,1,141.15,334.22Z"/><path class="cls-1" d="M187.57,342.47a.74.74,0,0,1-.59-.85h0a.73.73,0,0,1,.85-.6h0a.75.75,0,0,1,.61.86h0a.76.76,0,0,1-.73.61h0Zm-2.9-.51a.75.75,0,0,1-.6-.86h0a.75.75,0,0,1,.86-.6h0a.74.74,0,0,1,.59.86h0a.73.73,0,0,1-.72.6h-.13Zm-2.91-.52a.74.74,0,0,1-.6-.85h0a.72.72,0,0,1,.85-.6h0a.73.73,0,0,1,.6.85h0a.74.74,0,0,1-.72.61h-.13Zm-2.91-.52a.74.74,0,0,1-.6-.85h0a.75.75,0,0,1,.86-.6h0a.73.73,0,0,1,.59.86h0a.73.73,0,0,1-.72.6h-.13Zm-2.91-.51a.75.75,0,0,1-.6-.86h0a.74.74,0,0,1,.86-.6h0a.74.74,0,0,1,.59.86h0a.73.73,0,0,1-.72.61h-.13Zm-2.91-.52a.75.75,0,0,1-.6-.86h0a.74.74,0,0,1,.86-.59h0a.72.72,0,0,1,.59.85h0a.72.72,0,0,1-.72.61H173Zm-2.92-.52a.73.73,0,0,1-.58-.86h0a.72.72,0,0,1,.85-.59h0a.75.75,0,0,1,.6.86h0a.75.75,0,0,1-.73.6h-.14Zm-2.9-.52a.73.73,0,0,1-.6-.85h0a.75.75,0,0,1,.86-.6h0a.73.73,0,0,1,.59.86h0a.73.73,0,0,1-.72.61h0Zm-2.91-.51a.72.72,0,0,1-.59-.85h0a.74.74,0,0,1,.85-.61h0a.76.76,0,0,1,.6.86h0a.75.75,0,0,1-.73.61h-.13Zm-2.91-.51a.76.76,0,0,1-.6-.87h0a.74.74,0,0,1,.86-.59h0a.72.72,0,0,1,.59.85h0a.73.73,0,0,1-.72.61h-.13Zm-2.91-.53a.72.72,0,0,1-.59-.85h0a.74.74,0,0,1,.85-.6h0a.75.75,0,0,1,.6.86h0a.75.75,0,0,1-.73.61h0Zm-2.91-.51a.75.75,0,0,1-.6-.86h0a.76.76,0,0,1,.86-.6h0a.74.74,0,0,1,.59.86h0a.72.72,0,0,1-.72.61h-.13Zm-2.91-.52a.73.73,0,0,1-.59-.86h0a.74.74,0,0,1,.85-.59h0a.74.74,0,0,1,.6.85h0a.75.75,0,0,1-.73.61h-.13Zm-2.91-.52a.74.74,0,0,1-.6-.85h0a.75.75,0,0,1,.86-.6h0a.75.75,0,0,1,.6.86h0a.73.73,0,0,1-.73.61h0Zm-2.91-.51a.73.73,0,0,1-.59-.86h0a.74.74,0,0,1,.85-.6h0a.75.75,0,0,1,.6.86h0a.74.74,0,0,1-.72.61h-.14Zm-2.91-.52a.75.75,0,0,1-.6-.85h0a.75.75,0,0,1,.87-.6h0a.74.74,0,0,1,.59.85h0a.73.73,0,0,1-.73.62h0Z"/><line class="cls-10" x1="56.28" y1="81.69" x2="56.28" y2="81.69"/><path class="cls-11" d="M56.62,83.9c.65,4,2.23,12.71,4.41,18.44"/><line class="cls-10" x1="61.44" y1="103.37" x2="61.44" y2="103.37"/><polygon class="cls-1" points="58.73 103.9 63.41 106.82 63.6 101.31 58.73 103.9"/><line class="cls-10" x1="176.96" y1="278.9" x2="176.96" y2="278.9"/><path class="cls-12" d="M179,279.87c5.36,2.19,21.08,6.05,41.82-11.73"/><line class="cls-10" x1="221.62" y1="267.41" x2="221.62" y2="267.41"/><polygon class="cls-1" points="222.81 269.95 224.55 264.72 219.15 265.83 222.81 269.95"/><line class="cls-10" x1="433.94" y1="238.07" x2="433.94" y2="238.07"/><path class="cls-13" d="M432,237.49a18.38,18.38,0,0,1-7.71-5"/><line class="cls-10" x1="423.6" y1="231.7" x2="423.6" y2="231.7"/><polygon class="cls-1" points="426.49 231.01 421.76 228.17 421.66 233.68 426.49 231.01"/><ellipse class="cls-14" cx="182.2" cy="270" rx="5.43" ry="6.42"/><ellipse class="cls-15" cx="326.77" cy="127.09" rx="10.09" ry="13.52"/><path class="cls-1" d="M183.18,268.73a1.62,1.62,0,0,0-.08-.52,1,1,0,0,0-.23-.38.82.82,0,0,0-.35-.23,1.14,1.14,0,0,0-.46-.08,1.47,1.47,0,0,0-.73.19,2.75,2.75,0,0,0-.66.53v-.61a2.18,2.18,0,0,1,.66-.44,2,2,0,0,1,.8-.16h.14l.13,0a1.56,1.56,0,0,1,.53.16,1.49,1.49,0,0,1,.41.33,1.42,1.42,0,0,1,.27.48,2.06,2.06,0,0,1,.09.62,2.63,2.63,0,0,1-.09.72,2.39,2.39,0,0,1-.28.58,2.72,2.72,0,0,1-.42.5,6.93,6.93,0,0,1-.56.47l-.58.48a3.1,3.1,0,0,0-.41.39,1.38,1.38,0,0,0-.24.37,1.3,1.3,0,0,0-.11.41.5.5,0,0,0,0,.12.61.61,0,0,0,0,.14h2.84v.49h-3.38V273a2.53,2.53,0,0,1,.09-.72,1.89,1.89,0,0,1,.28-.57,3,3,0,0,1,.49-.53c.2-.18.44-.38.72-.59s.35-.3.5-.44a2.35,2.35,0,0,0,.36-.43,1.86,1.86,0,0,0,.23-.47A2,2,0,0,0,183.18,268.73Z"/><line class="cls-10" x1="20.46" y1="249.96" x2="20.46" y2="249.96"/><path class="cls-16" d="M21.48,251.75c1.54,2.11,5,5.23,12,4.61"/><line class="cls-10" x1="34.54" y1="256.24" x2="34.54" y2="256.24"/><path class="cls-1" d="M32.22,249.29v-5.54A1.64,1.64,0,0,1,32,244l-.23.23-.25.19-.22.14v-.49a2.48,2.48,0,0,0,.6-.45,5.34,5.34,0,0,0,.55-.66h.1v6.33Z"/><ellipse class="cls-17" cx="32.23" cy="246.08" rx="3.21" ry="5.64"/><polyline class="cls-18" points="322.01 129.19 326.2 133.37 331.91 121.95"/><path class="cls-1" d="M191.29,187.92a3.92,3.92,0,0,1,.05-.59,3,3,0,0,1,.16-.55,2.37,2.37,0,0,1,.26-.47,1.18,1.18,0,0,1,.34-.33,1.88,1.88,0,0,1-.45-.69,2.52,2.52,0,0,1-.17-.93,3,3,0,0,1,.09-.75,2.29,2.29,0,0,1,.26-.59,1.21,1.21,0,0,1,.39-.39.91.91,0,0,1,.5-.15.88.88,0,0,1,.49.15,1.32,1.32,0,0,1,.39.39,2.05,2.05,0,0,1,.26.6,2.94,2.94,0,0,1,.09.74,2.33,2.33,0,0,1-.17.93,2,2,0,0,1-.44.69,1.32,1.32,0,0,1,.34.33,2.34,2.34,0,0,1,.25.47,3,3,0,0,1,.16.55,3.92,3.92,0,0,1,0,.59,3.43,3.43,0,0,1-.1.88,2.18,2.18,0,0,1-.3.69,1.26,1.26,0,0,1-.45.44,1,1,0,0,1-.57.16,1.08,1.08,0,0,1-.58-.16,1.45,1.45,0,0,1-.45-.44,2.17,2.17,0,0,1-.29-.69A3,3,0,0,1,191.29,187.92Zm.55-.07a3,3,0,0,0,.06.62,1.54,1.54,0,0,0,.18.47.81.81,0,0,0,.28.3.64.64,0,0,0,.36.11.61.61,0,0,0,.35-.11.93.93,0,0,0,.29-.3,1.78,1.78,0,0,0,.18-.48,2.84,2.84,0,0,0,.07-.61,2.63,2.63,0,0,0-.07-.58,1.71,1.71,0,0,0-.18-.48,1,1,0,0,0-.28-.32.58.58,0,0,0-.36-.12.61.61,0,0,0-.35.11,1.05,1.05,0,0,0-.28.31,1.84,1.84,0,0,0-.19.47A2.93,2.93,0,0,0,191.84,187.85Zm.15-3.42a1.88,1.88,0,0,0,.06.49,1.76,1.76,0,0,0,.15.39.87.87,0,0,0,.24.26.47.47,0,0,0,.28.09.49.49,0,0,0,.28-.09.87.87,0,0,0,.23-.27,1.38,1.38,0,0,0,.16-.39,1.86,1.86,0,0,0,.06-.48,1.88,1.88,0,0,0-.06-.49,1.76,1.76,0,0,0-.15-.39,1,1,0,0,0-.23-.26.46.46,0,0,0-.29-.1.54.54,0,0,0-.3.1,1,1,0,0,0-.23.26,2.08,2.08,0,0,0-.15.4A2.44,2.44,0,0,0,192,184.43Z"/><path class="cls-1" d="M198.77,189.73a1.15,1.15,0,0,1-.86.37,1.23,1.23,0,0,1-1.08-.73,3.82,3.82,0,0,1-.41-1.9,4.19,4.19,0,0,1,.44-2.09,1.33,1.33,0,0,1,1.19-.79,1.14,1.14,0,0,1,.73.26v.86a1,1,0,0,0-.75-.41.9.9,0,0,0-.79.58,3.16,3.16,0,0,0-.31,1.52,3.08,3.08,0,0,0,.29,1.45.87.87,0,0,0,.78.54,1,1,0,0,0,.77-.46Z"/><path class="cls-1" d="M204,190h-.5v-3a3.51,3.51,0,0,0-.16-1.26.56.56,0,0,0-.54-.39c-.22,0-.4.16-.55.49A2.85,2.85,0,0,0,202,187v3h-.5v-3.12c0-1-.24-1.55-.71-1.55-.23,0-.41.15-.55.46A3,3,0,0,0,200,187v3h-.5v-5.26h.5v.84h0c.22-.64.55-1,1-1a.69.69,0,0,1,.56.3,1.73,1.73,0,0,1,.33.79c.24-.73.58-1.09,1.05-1.09.69,0,1,.71,1,2.14Z"/><path class="cls-1" d="M174.58,328.78a1.34,1.34,0,0,0,0-.49,1,1,0,0,0-.15-.37.91.91,0,0,0-.27-.25,1.07,1.07,0,0,0-.37-.12,1,1,0,0,0-.34,0,1.57,1.57,0,0,0-.35.11,2.68,2.68,0,0,0-.33.18,2.6,2.6,0,0,0-.32.26l.11-.74a1.8,1.8,0,0,1,.62-.34,1.61,1.61,0,0,1,.77,0,1.54,1.54,0,0,1,.57.19,1.28,1.28,0,0,1,.42.38,1.53,1.53,0,0,1,.24.55,2.09,2.09,0,0,1,0,.71,2.9,2.9,0,0,1-.16.63,2.32,2.32,0,0,1-.29.51,3,3,0,0,1-.43.44,5.82,5.82,0,0,1-.58.4l-.67.43a2.8,2.8,0,0,0-.43.34,1.14,1.14,0,0,0-.25.35,1.29,1.29,0,0,0-.12.42l2.57.37-.09.62-3.18-.47,0-.29a2.84,2.84,0,0,1,.17-.67,1.87,1.87,0,0,1,.32-.52,2.61,2.61,0,0,1,.51-.47c.2-.15.45-.31.74-.49a4.32,4.32,0,0,0,.53-.38,2.24,2.24,0,0,0,.37-.39,1.8,1.8,0,0,0,.23-.4A2.37,2.37,0,0,0,174.58,328.78Z"/><path class="cls-1" d="M179.24,330.88a7.8,7.8,0,0,1-.31,1.32,3.37,3.37,0,0,1-.49.93,1.57,1.57,0,0,1-.63.53,1.29,1.29,0,0,1-.76.1,1.26,1.26,0,0,1-.66-.3,1.61,1.61,0,0,1-.43-.65,3.43,3.43,0,0,1-.18-1,6.65,6.65,0,0,1,.08-1.29,8.47,8.47,0,0,1,.31-1.37,3.9,3.9,0,0,1,.48-1,1.7,1.7,0,0,1,.64-.54,1.41,1.41,0,0,1,.77-.09C179.14,327.73,179.53,328.84,179.24,330.88Zm-.62,0c.25-1.7,0-2.61-.67-2.71s-1.23.71-1.48,2.45,0,2.48.73,2.58S178.38,332.51,178.62,330.86Z"/><path class="cls-1" d="M184.25,334.5a1.68,1.68,0,0,1-1.05.15,1.6,1.6,0,0,1-1.19-.78,2.39,2.39,0,0,1-.25-1.62,2.63,2.63,0,0,1,.76-1.62,1.74,1.74,0,0,1,1.49-.44,1.69,1.69,0,0,1,.82.34l-.1.7a1.32,1.32,0,0,0-.83-.46,1.11,1.11,0,0,0-1,.33,2,2,0,0,0-.54,1.18,1.88,1.88,0,0,0,.16,1.24,1.15,1.15,0,0,0,.85.57,1.44,1.44,0,0,0,1-.24Z"/><path class="cls-1" d="M190.33,335.59l-.59-.09.36-2.46a2,2,0,0,0,0-1.05.67.67,0,0,0-.58-.41.75.75,0,0,0-.7.3,1.77,1.77,0,0,0-.41.93l-.35,2.44-.59-.09.37-2.54q.18-1.26-.66-1.38a.73.73,0,0,0-.69.28,1.76,1.76,0,0,0-.4,1l-.35,2.44-.59-.08.62-4.28.59.08-.1.68h0a1.24,1.24,0,0,1,1.25-.61,1,1,0,0,1,.63.34,1.27,1.27,0,0,1,.29.7,1.33,1.33,0,0,1,1.35-.71q1.22.18,1,1.92Z"/><line class="cls-19" x1="472.44" y1="69.06" x2="472.44" y2="466.06"/><line class="cls-20" x1="465.02" y1="68.06" x2="480.02" y2="68.06"/><line class="cls-21" x1="464.52" y1="465.56" x2="479.52" y2="465.56"/><path class="cls-22" d="M38.78,403v75.47H22.63V421.3a19.88,19.88,0,0,1-3.15,2.24,34.76,34.76,0,0,1-3.87,1.9,33.32,33.32,0,0,1-4.26,1.44,29.93,29.93,0,0,1-4.36.85V414a67.72,67.72,0,0,0,11.9-4.74A67.84,67.84,0,0,0,29,403Z"/><path d="M493.5,398.33h-2.84a6.45,6.45,0,0,0,1.08-3.71,3.53,3.53,0,0,0-.54-2.09,1.73,1.73,0,0,0-1.49-.74,1.68,1.68,0,0,0-1.53.92,5,5,0,0,0-.54,2.54v1.47h-2.5v-1.36c0-2.07-.64-3.1-1.92-3.1s-1.81.8-1.81,2.38a5.72,5.72,0,0,0,1,3.1h-2.66a9,9,0,0,1-.79-3.9,6.16,6.16,0,0,1,1-3.78,3.18,3.18,0,0,1,2.66-1.36c1.93,0,3.15,1.05,3.64,3.15h.05a4.41,4.41,0,0,1,1.14-2.65,3.1,3.1,0,0,1,2.32-1,3.87,3.87,0,0,1,3.28,1.62,7.37,7.37,0,0,1,1.21,4.49A9.26,9.26,0,0,1,493.5,398.33Z"/><path d="M494.24,380.18q0,5.65-7.43,5.66a9.6,9.6,0,0,1-5.87-1.53,5.22,5.22,0,0,1-2-4.44q0-5.53,7.55-5.53a9.44,9.44,0,0,1,5.77,1.51A5.1,5.1,0,0,1,494.24,380.18ZM481.41,380q0,2.26,5.32,2.27,5,0,5-2.22t-5.16-2.17Q481.41,377.9,481.41,380Z"/><path d="M494.24,367.15q0,5.67-7.43,5.66a9.6,9.6,0,0,1-5.87-1.53,5.22,5.22,0,0,1-2-4.44q0-5.52,7.55-5.53a9.51,9.51,0,0,1,5.77,1.51A5.11,5.11,0,0,1,494.24,367.15ZM481.41,367q0,2.26,5.32,2.26,5,0,5-2.22c0-1.44-1.72-2.17-5.16-2.17S481.41,365.58,481.41,367Z"/><path d="M494,334.85v3.49h-6c-1.54,0-2.3.6-2.3,1.81a1.7,1.7,0,0,0,.69,1.4,2.72,2.72,0,0,0,1.72.55H494v3.49h-6.09c-1.5,0-2.24.59-2.24,1.78a1.75,1.75,0,0,0,.66,1.43,2.76,2.76,0,0,0,1.8.54H494v3.49H483.4v-3.49h1.66v0a3.92,3.92,0,0,1-1.38-1.52,4.33,4.33,0,0,1-.53-2.14,3.26,3.26,0,0,1,2-3.28,4.24,4.24,0,0,1-2-3.8q0-3.71,4.25-3.7Z"/><path d="M494,314.11v3.48h-6c-1.54,0-2.3.61-2.3,1.82a1.7,1.7,0,0,0,.69,1.4,2.72,2.72,0,0,0,1.72.54H494v3.5h-6.09c-1.5,0-2.24.59-2.24,1.78a1.76,1.76,0,0,0,.66,1.43,2.76,2.76,0,0,0,1.8.53H494v3.5H483.4v-3.5h1.66v0a4,4,0,0,1-1.38-1.52,4.35,4.35,0,0,1-.53-2.14,3.26,3.26,0,0,1,2-3.28,4.26,4.26,0,0,1-2-3.81q0-3.69,4.25-3.69Z"/></svg>