<?xml version="1.0" encoding="utf-8"?>
<!-- Generator: Adobe Illustrator 22.1.0, SVG Export Plug-In . SVG Version: 6.00 Build 0)  -->
<svg version="1.1" id="artwork" xmlns="http://www.w3.org/2000/svg" xmlns:xlink="http://www.w3.org/1999/xlink" x="0px" y="0px"
	 viewBox="0 0 152.1 43.2" style="enable-background:new 0 0 152.1 43.2;" xml:space="preserve">
<style type="text/css">
	.st0{fill:#FFFFFF;fill-opacity:0;}
	.st1{fill:#A6A6A6;}
	.st2{fill:#FFFFFF;}
	.st3{fill:url(#SVGID_1_);}
	.st4{fill:url(#SVGID_2_);}
	.st5{fill:url(#SVGID_3_);}
	.st6{fill:url(#SVGID_4_);}
	.st7{opacity:0.2;enable-background:new    ;}
	.st8{opacity:0.12;enable-background:new    ;}
	.st9{opacity:0.25;fill:#FFFFFF;enable-background:new    ;}
	.st10{fill:#FFFFFF;stroke:#FFFFFF;stroke-width:0.2;stroke-miterlimit:10;}
</style>
<g>
	<rect class="st0" width="152.1" height="43.2"/>
	<g>
		<path d="M146.4,43.2H5.6c-3.2,0-5.6-2.5-5.6-5.4V5.4C0,2.4,2.6,0,5.6,0h140.8c3.2,0,5.6,2.5,5.6,5.4v32.4
			C152.1,40.7,149.6,43.2,146.4,43.2z"/>
	</g>
	<g>
		<g>
			<path class="st1" d="M146.4,0.9c2.6,0,4.7,2.1,4.7,4.5v32.4c0,2.5-2.1,4.5-4.7,4.5H5.6c-2.6,0-4.7-2.1-4.7-4.5V5.4
				c0-2.5,2.1-4.5,4.7-4.5H146.4 M146.4,0H5.6C2.5,0,0,2.5,0,5.4v32.4c0,3,2.6,5.4,5.6,5.4h140.8c3.2,0,5.6-2.5,5.6-5.4V5.4
				C152.1,2.5,149.6,0,146.4,0L146.4,0z"/>
		</g>
	</g>
	<path class="st2" d="M76.7,23.5c-2.7,0-4.8,1.9-4.8,4.6c0,2.6,2.1,4.6,4.8,4.6s4.8-1.9,4.8-4.6C81.6,25.4,79.4,23.5,76.7,23.5z
		 M76.7,30.9c-1.5,0-2.7-1.2-2.7-2.8c0-1.6,1.2-2.8,2.7-2.8c1.5,0,2.7,1.1,2.7,2.8C79.4,29.7,78.2,30.9,76.7,30.9z M66.2,23.5
		c-2.7,0-4.8,1.9-4.8,4.6c0,2.6,2.1,4.6,4.8,4.6c2.7,0,4.8-1.9,4.8-4.6C71.1,25.4,68.9,23.5,66.2,23.5z M66.2,30.9
		c-1.5,0-2.7-1.2-2.7-2.8c0-1.6,1.2-2.8,2.7-2.8c1.5,0,2.7,1.1,2.7,2.8C68.9,29.7,67.7,30.9,66.2,30.9z M53.7,24.9v1.9h4.8
		c-0.1,1.1-0.6,1.9-1.1,2.5c-0.7,0.6-1.8,1.4-3.7,1.4c-3,0-5.3-2.3-5.3-5.2s2.4-5.2,5.3-5.2c1.6,0,2.8,0.6,3.7,1.4l1.5-1.4
		c-1.2-1.1-2.8-1.9-5.1-1.9c-4.1,0-7.5,3.2-7.5,7.1s3.5,7.1,7.5,7.1c2.3,0,3.8-0.6,5.2-2.1c1.4-1.3,1.8-3.1,1.8-4.5
		c0-0.4,0-0.9-0.1-1.2C60.7,24.9,53.7,24.9,53.7,24.9z M104.9,26.5c-0.5-1.1-1.6-2.9-4.1-2.9s-4.5,1.8-4.5,4.6c0,2.6,2,4.6,4.7,4.6
		c2.1,0,3.5-1.3,3.9-2.1l-1.6-1.1c-0.6,0.8-1.2,1.3-2.4,1.3c-1.1,0-1.8-0.4-2.4-1.4l6.4-2.6L104.9,26.5z M98.3,28
		c0-1.7,1.5-2.7,2.5-2.7c0.8,0,1.6,0.4,1.8,1L98.3,28z M93,32.4h2.1V18.9H93V32.4z M89.7,24.5L89.7,24.5c-0.6-0.5-1.5-1.1-2.6-1.1
		c-2.4,0-4.6,2.1-4.6,4.6c0,2.6,2.1,4.5,4.6,4.5c1.1,0,2-0.5,2.5-1.1h0.1v0.6c0,1.7-1,2.7-2.6,2.7c-1.2,0-2.1-0.9-2.4-1.6L82.9,34
		c0.6,1.2,1.9,2.7,4.3,2.7c2.5,0,4.5-1.4,4.5-4.8v-8.2h-2C89.7,23.8,89.7,24.5,89.7,24.5z M87.2,30.9c-1.5,0-2.7-1.2-2.7-2.8
		c0-1.6,1.2-2.8,2.7-2.8s2.6,1.2,2.6,2.8C89.8,29.7,88.7,30.9,87.2,30.9z M114.7,18.9h-5.1v13.5h2.1v-5.1h2.9c2.4,0,4.6-1.6,4.6-4.2
		S117,18.9,114.7,18.9z M114.8,25.4h-3v-4.6h3c1.6,0,2.5,1.3,2.5,2.3C117.2,24.2,116.2,25.4,114.8,25.4z M127.7,23.4
		c-1.6,0-3.2,0.6-3.7,2.1l1.9,0.8c0.5-0.8,1.1-1,1.9-1c1.1,0,2.1,0.6,2.3,1.7v0.1c-0.3-0.2-1.2-0.5-2.1-0.5c-2,0-4.1,1.1-4.1,3
		c0,1.8,1.7,3,3.5,3c1.5,0,2.1-0.6,2.7-1.3h0.1v1.1h2v-5.2C132,24.8,130.1,23.4,127.7,23.4z M127.5,30.9c-0.7,0-1.7-0.3-1.7-1.2
		c0-1.1,1.2-1.4,2.3-1.4c0.9,0,1.4,0.2,1.9,0.4C129.8,30,128.6,30.9,127.5,30.9z M139.3,23.8l-2.4,5.8h-0.1l-2.5-5.8h-2.3l3.7,8.2
		l-2.1,4.5h2.1l5.7-12.7H139.3z M120.4,32.4h2.1V18.9h-2.1V32.4z"/>
	<g>
		
			<linearGradient id="SVGID_1_" gradientUnits="userSpaceOnUse" x1="24.5475" y1="407.1073" x2="6.0351" y2="425.6196" gradientTransform="matrix(1 0 0 1 0 -398)">
			<stop  offset="0" style="stop-color:#00A0FF"/>
			<stop  offset="6.574450e-03" style="stop-color:#00A1FF"/>
			<stop  offset="0.2601" style="stop-color:#00BEFF"/>
			<stop  offset="0.5122" style="stop-color:#00D2FF"/>
			<stop  offset="0.7604" style="stop-color:#00DFFF"/>
			<stop  offset="1" style="stop-color:#00E3FF"/>
		</linearGradient>
		<path class="st3" d="M11.7,8.1c-0.3,0.3-0.6,0.9-0.6,1.5v23.9c0,0.6,0.2,1.2,0.6,1.5l0.1,0.1l14-13.4v-0.1v-0.1L11.7,8.1L11.7,8.1
			z"/>
		
			<linearGradient id="SVGID_2_" gradientUnits="userSpaceOnUse" x1="38.1128" y1="419.6476" x2="10.8562" y2="419.6476" gradientTransform="matrix(1 0 0 1 0 -398)">
			<stop  offset="0" style="stop-color:#FFE000"/>
			<stop  offset="0.4087" style="stop-color:#FFBD00"/>
			<stop  offset="0.7754" style="stop-color:#FFA500"/>
			<stop  offset="1" style="stop-color:#FF9C00"/>
		</linearGradient>
		<path class="st4" d="M30.4,26.2l-4.6-4.4v-0.2v-0.1l4.6-4.4l0.1,0.1l5.5,3c1.6,0.9,1.6,2.3,0,3.1L30.4,26.2L30.4,26.2z"/>
		
			<linearGradient id="SVGID_3_" gradientUnits="userSpaceOnUse" x1="27.8592" y1="421.8706" x2="2.5765" y2="447.1533" gradientTransform="matrix(1 0 0 1 0 -398)">
			<stop  offset="0" style="stop-color:#FF3A44"/>
			<stop  offset="1" style="stop-color:#C31162"/>
		</linearGradient>
		<path class="st5" d="M30.5,26.1l-4.7-4.5L11.7,35.1c0.6,0.5,1.4,0.5,2.4,0.1L30.5,26.1"/>
		
			<linearGradient id="SVGID_4_" gradientUnits="userSpaceOnUse" x1="8.3569" y1="397.8683" x2="19.648" y2="409.1593" gradientTransform="matrix(1 0 0 1 0 -398)">
			<stop  offset="0" style="stop-color:#32A071"/>
			<stop  offset="6.850000e-02" style="stop-color:#2DA771"/>
			<stop  offset="0.4762" style="stop-color:#15CF74"/>
			<stop  offset="0.8009" style="stop-color:#06E775"/>
			<stop  offset="1" style="stop-color:#00F076"/>
		</linearGradient>
		<path class="st6" d="M30.5,17.1l-16.4-9c-1-0.5-1.8-0.4-2.4,0.1l14.1,13.4L30.5,17.1z"/>
		<g>
			<path class="st7" d="M30.4,26l-16.3,8.9c-0.9,0.5-1.7,0.4-2.3,0l0,0L11.7,35l0,0l0.1,0.1l0,0c0.6,0.4,1.4,0.5,2.3,0L30.4,26
				L30.4,26z"/>
			<path class="st8" d="M11.7,34.9c-0.3-0.3-0.5-0.9-0.5-1.5v0.1c0,0.6,0.2,1.2,0.6,1.5v-0.1H11.7z"/>
		</g>
		<path class="st8" d="M36,23l-5.6,3l0.1,0.1l5.5-3c0.8-0.4,1.1-1,1.1-1.5l0,0C37.2,22.1,36.7,22.6,36,23z"/>
		<path class="st9" d="M14.1,8.2l22,12c0.7,0.4,1.1,0.9,1.1,1.4l0,0c0-0.5-0.3-1.1-1.1-1.5l-22-12c-1.6-0.9-2.8-0.1-2.8,1.6v0.1
			C11.3,8.1,12.5,7.3,14.1,8.2z"/>
	</g>
</g>
<g>
	<path class="st10" d="M48.5,13.2c-0.5,0-0.9-0.1-1.3-0.5c-0.3-0.2-0.6-0.7-0.8-1.1l0.8-0.3c0.2,0.7,0.6,1,1.3,1
		c0.5,0,0.7-0.1,0.9-0.3c0.2-0.2,0.3-0.6,0.3-1V6.2h0.9v4.7c0,0.8-0.2,1.4-0.6,1.7C49.6,13.1,49.2,13.2,48.5,13.2z"/>
	<path class="st10" d="M56.2,7h-3.1v2.2h2.9V10h-2.9v2.2h3.1v0.9h-4V6.2h4V7z"/>
	<path class="st10" d="M59.9,13.1H59V7h-2V6.2h4.7V7h-1.8V13.1z"/>
	<path class="st10" d="M62.6,13.1v-0.9L66.3,7h-3.6V6.2h4.6v0.9l-3.7,5.2h3.7v0.8H62.6z"/>
	<path class="st10" d="M70.9,13.1h-0.9V7h-2V6.2h4.7V7h-2v6.1H70.9z"/>
	<path class="st10" d="M76.2,13.1V6.2h2.5c0.6,0,1,0.2,1.4,0.6c0.3,0.3,0.6,0.8,0.6,1.4c0,0.3-0.1,0.6-0.2,0.9
		c-0.1,0.2-0.3,0.5-0.7,0.6l0,0c0.3,0.1,0.6,0.3,0.8,0.6c0.2,0.2,0.3,0.6,0.3,1c0,0.6-0.2,1-0.6,1.4c-0.5,0.2-0.9,0.5-1.5,0.5H76.2z
		 M77.2,9.2h1.6c0.3,0,0.6-0.1,0.8-0.3c0.2-0.2,0.3-0.5,0.3-0.7c0-0.2-0.1-0.5-0.3-0.7c-0.2-0.2-0.5-0.3-0.8-0.3h-1.6V9.2z
		 M77.2,12.3H79c0.3,0,0.6-0.1,0.8-0.3c0.2-0.2,0.3-0.5,0.3-0.8c0-0.2-0.1-0.6-0.3-0.8C79.6,10.1,79.3,10,79,10h-1.8V12.3z"/>
	<path class="st10" d="M86.2,7h-3.1v2.2H86V10h-2.9v2.2h3.1v0.9h-4V6.2h4V7z"/>
	<path class="st10" d="M87.6,13.1V6.2h0.9v6.9H87.6z"/>
</g>
</svg>
