<?xml version="1.0" encoding="utf-8"?>
<!-- Generator: Adobe Illustrator 24.1.3, SVG Export Plug-In . SVG Version: 6.00 Build 0)  -->
<svg version="1.1" id="Layer_1" xmlns="http://www.w3.org/2000/svg" xmlns:xlink="http://www.w3.org/1999/xlink" x="0px" y="0px"
	 viewBox="0 0 220 220" style="enable-background:new 0 0 220 220;" xml:space="preserve">
<style type="text/css">
	.st0{opacity:0.3;clip-path:url(#SVGID_2_);}
	.st1{clip-path:url(#SVGID_2_);fill:#96A0A5;}
	.st2{clip-path:url(#SVGID_2_);fill:#FFFFFF;}
	.st3{clip-path:url(#SVGID_2_);fill:#DEE3E8;}
	.st4{clip-path:url(#SVGID_2_);fill:#FFFFFE;}
	.st5{clip-path:url(#SVGID_2_);fill:#CED6DD;}
	.st6{clip-path:url(#SVGID_2_);fill:#7CB892;}
	.st7{clip-path:url(#SVGID_2_);fill:#BED3E1;}
	.st8{clip-path:url(#SVGID_2_);fill:#959FA4;}
	.st9{clip-path:url(#SVGID_2_);fill:url(#SVGID_3_);}
	.st10{clip-path:url(#SVGID_2_);fill:#E6E7E8;}
	.st11{clip-path:url(#SVGID_2_);fill:#414042;}
	.st12{opacity:0.6;clip-path:url(#SVGID_2_);fill:#969696;enable-background:new    ;}
	.st13{opacity:0.6;clip-path:url(#SVGID_2_);fill:#FFFFFF;enable-background:new    ;}
	.st14{clip-path:url(#SVGID_2_);fill:#C8C8C8;}
	.st15{clip-path:url(#SVGID_2_);}
	.st16{fill:#E11E19;}
</style>
<g>
	<g id="Layer_1_1_">
		<g>
			<g>
				<defs>
					<rect id="SVGID_1_" width="220" height="220"/>
				</defs>
				<clipPath id="SVGID_2_">
					<use xlink:href="#SVGID_1_"  style="overflow:visible;"/>
				</clipPath>
				<g class="st0">
					<path d="M22.4,200.4V23.9c0-7.6,6.1-13.7,13.7-13.7h71.7c7.6,0,13.7,6.1,13.7,13.7v176.6c0,7.6-6.1,13.7-13.7,13.7H36.1
						C28.5,214.2,22.4,208,22.4,200.4z"/>
				</g>
				<path class="st1" d="M35.1,216.6l74.1,0.1c7.8,0,14.1-6.2,14.2-14l0.3-180.9c0-7.8-6.3-14.1-14.1-14.1h-0.1l-74-0.2
					c-7.8,0-14.2,6.2-14.2,14l0,0l-0.3,181C21,210.2,27.3,216.5,35.1,216.6z"/>
				<path class="st2" d="M22.6,200.4l0.3-176.5c0-7.6,6.2-13.7,13.8-13.7l71.7,0.1c7.6,0,13.7,6.2,13.7,13.8l-0.3,176.5
					c0,7.6-6.2,13.7-13.8,13.7l-71.7-0.1C28.7,214.2,22.6,208,22.6,200.4z"/>
				<path class="st3" d="M22.6,156.2l-0.1,44.5c0,7.6,6.1,13.7,13.7,13.8l0,0l71.7,0.1c7.6,0,13.7-6.1,13.8-13.7l0,0L121.9,57
					L22.6,156.2z"/>
				<path class="st1" d="M20.7,51.8h0.7c0.3,0,0.5,0.2,0.5,0.5v25.8c0,0.3-0.2,0.5-0.5,0.5h-0.7c-0.3,0-0.5-0.2-0.5-0.5V52.4
					C20.2,52.1,20.4,51.8,20.7,51.8z"/>
				<path class="st1" d="M123.3,36.4h0.8c0.4,0,0.7,0.3,0.7,0.7v6.8c0,0.4-0.3,0.7-0.7,0.7h-0.8c-0.4,0-0.7-0.3-0.7-0.7v-6.8
					C122.7,36.7,123,36.4,123.3,36.4z"/>
				<path class="st1" d="M123.3,50.1h0.8c0.4,0,0.7,0.3,0.7,0.7v12.7c0,0.4-0.3,0.7-0.7,0.7h-0.8c-0.4,0-0.7-0.3-0.7-0.7V50.8
					C122.7,50.4,123,50.1,123.3,50.1z"/>
				<path class="st1" d="M123.4,67.4h0.8c0.4,0,0.6,0.3,0.6,0.6v13.4c0,0.4-0.3,0.6-0.6,0.6h-0.8c-0.4,0-0.6-0.3-0.6-0.6V68.1
					C122.7,67.7,123,67.4,123.4,67.4z"/>
				<path class="st3" d="M27.1,41.8V22.7c0-4.4,3.6-8,8-8h17.3c4.4,0,8,3.6,8,8v19.1c0,4.4-3.6,8-8,8H35.1
					C30.7,49.8,27.1,46.2,27.1,41.8z"/>
				<path class="st1" d="M29.1,40.6V23.9c0-3.9,3.2-7,7-7h15.2c3.9,0,7,3.2,7,7v16.8c0,3.9-3.2,7-7,7H36.1
					C32.2,47.7,29.1,44.5,29.1,40.6z"/>
				<circle class="st3" cx="51.4" cy="32.5" r="4.2"/>
				<circle class="st3" cx="36.4" cy="23.9" r="4.2"/>
				<circle class="st3" cx="36.4" cy="41.2" r="4.2"/>
				<circle class="st4" cx="50.2" cy="21.3" r="2.6"/>
				<circle class="st5" cx="51.4" cy="32.5" r="2.1"/>
				<circle class="st5" cx="36.4" cy="23.9" r="2.5"/>
				<path class="st5" d="M38.3,41.2c0,1-0.8,1.9-1.9,1.9s-1.9-0.8-1.9-1.9c0-1,0.8-1.9,1.9-1.9l0,0C37.5,39.3,38.3,40.2,38.3,41.2z"
					/>
				<path class="st3" d="M70.7,65.9H72c0.2,0,0.3,0.1,0.3,0.3v11c0,0.2-0.1,0.3-0.3,0.3h-1.3c-0.2,0-0.3-0.1-0.3-0.3v-11
					C70.4,66,70.5,65.9,70.7,65.9z"/>
				<path class="st3" d="M70.7,81.5H72c0.2,0,0.3,0.1,0.3,0.3v16.4c0,0.2-0.1,0.3-0.3,0.3h-1.3c-0.2,0-0.3-0.1-0.3-0.3V81.8
					C70.4,81.7,70.5,81.5,70.7,81.5z"/>
				<path class="st3" d="M70.7,101.9H72c0.2,0,0.3,0.1,0.3,0.3v16.4c0,0.2-0.1,0.3-0.3,0.3h-1.3c-0.2,0-0.3-0.1-0.3-0.3v-16.4
					C70.4,102.1,70.5,101.9,70.7,101.9z"/>
				<path class="st3" d="M163.8,85.7h1.3c0.2,0,0.3,0.1,0.3,0.3v28.4c0,0.2-0.1,0.3-0.3,0.3h-1.3c-0.2,0-0.3-0.1-0.3-0.3V86
					C163.4,85.8,163.6,85.7,163.8,85.7z"/>
				<path class="st6" d="M150.5,216.7h-65c-7.8,0-14.1-6.3-14.1-14.1V42.8c0-7.8,6.3-14.1,14.1-14.1h65c7.8,0,14.1,6.3,14.1,14.1
					v159.8C164.6,210.3,158.3,216.6,150.5,216.7z M85.5,32.8c-5.5,0-10,4.5-10,10v159.7c0,5.5,4.5,10,10,10h65c5.5,0,10-4.5,10-10
					V42.8c0-5.5-4.5-10-10-10H85.5z"/>
				<path class="st3" d="M85.5,30.7h65c6.7,0,12.1,5.4,12.1,12.1v159.8c0,6.7-5.4,12.1-12.1,12.1h-65c-6.7,0-12.1-5.4-12.1-12.1
					V42.8C73.5,36.1,78.9,30.7,85.5,30.7z"/>
				<path class="st2" d="M150.5,211.6H85.2c-5.6,0-10.1-4.5-10.1-10.1V42.9c0-5.6,4.5-10.1,10.1-10.1h65.3c5.6,0,10.1,4.5,10.1,10.1
					v158.6C160.5,207.1,156,211.6,150.5,211.6z"/>
				<path class="st3" d="M140.2,32.5v2.6c0,1.8-1.5,3.3-3.3,3.3h-38c-1.8,0-3.3-1.5-3.3-3.3v-2.6"/>
				<path class="st1" d="M125.2,35h-15.3c-0.2,0-0.4-0.2-0.4-0.4s0.2-0.4,0.4-0.4h15.3c0.2,0,0.4,0.2,0.4,0.4S125.4,35,125.2,35z"/>
				<circle class="st1" cx="128.6" cy="34.6" r="1.2"/>
				<path class="st7" d="M128.6,36.2c-0.9,0-1.6-0.7-1.6-1.6c0-0.9,0.7-1.6,1.6-1.6c0.9,0,1.6,0.7,1.6,1.6l0,0
					C130.2,35.5,129.5,36.2,128.6,36.2z M128.6,33.7c-0.5,0-0.9,0.4-0.9,0.9s0.4,0.9,0.9,0.9s0.9-0.4,0.9-0.9
					C129.6,34.1,129.2,33.7,128.6,33.7z"/>
				<path class="st8" d="M128.6,36c-0.8,0-1.4-0.6-1.4-1.4c0-0.8,0.6-1.4,1.4-1.4s1.4,0.6,1.4,1.4l0,0C130.1,35.4,129.4,36,128.6,36
					z M128.6,33.6c-0.6,0-1.1,0.5-1.1,1.1s0.5,1.1,1.1,1.1s1.1-0.5,1.1-1.1l0,0C129.7,34,129.2,33.6,128.6,33.6z"/>
				<path class="st8" d="M145.8,65h48.6c6.9,0,12.6,5.6,12.6,12.6v126.6c0,6.9-5.6,12.6-12.6,12.6h-48.6c-6.9,0-12.6-5.6-12.6-12.6
					V77.5C133.3,70.6,138.9,65,145.8,65z"/>
				
					<linearGradient id="SVGID_3_" gradientUnits="userSpaceOnUse" x1="136.8" y1="271.1017" x2="206.1" y2="271.1017" gradientTransform="matrix(1 0 0 1 0 -128)">
					<stop  offset="0.25" style="stop-color:#919191"/>
					<stop  offset="0.88" style="stop-color:#F2F2F2"/>
					<stop  offset="1" style="stop-color:#B8B8B8"/>
				</linearGradient>
				<path class="st9" d="M203,70.5c1,1.7,1.5,3.6,1.5,5.5v126.5c0,6.1-5,11.1-11.1,11.1h-48.6c-3,0-5.9-1.2-8-3.4
					c2,3.4,5.6,5.6,9.6,5.5H195c6.1,0,11.1-5,11.1-11.1V78.1C206.1,75.3,205,72.5,203,70.5z"/>
				<path class="st3" d="M146,66.4h48.6c6.1,0,11.1,5,11.1,11.1V204c0,6.1-5,11.1-11.1,11.1H146c-6.1,0-11.1-5-11.1-11.1V77.5
					C134.9,71.4,139.9,66.4,146,66.4z"/>
				<path class="st3" d="M206.3,203.7V77.1c0-6.1-4.9-11.1-11.1-11.1h-48.6c-2,0-3.9,0.5-5.6,1.5c1.5-0.7,3.1-1.1,4.8-1.1h48.6
					c6.1,0,11.1,5,11.1,11.1V204c0,3.9-2.1,7.6-5.4,9.5C203.9,211.8,206.4,207.9,206.3,203.7z"/>
				<path class="st1" d="M202.5,197.9h-64.6V83.5h64.6V197.9z M138.4,197.3H202V84h-63.6V197.3z"/>
				<path class="st6" d="M200.7,85.9v1.6c0,0.3-0.3,0.6-0.6,0.5h-4.7c-0.3,0-0.6-0.2-0.6-0.5l0,0v-0.2c-0.1,0-0.3-0.1-0.3-0.2v-0.8
					c0-0.1,0.2-0.2,0.3-0.2v-0.2c0-0.3,0.3-0.6,0.6-0.5l0,0h4.7C200.4,85.3,200.7,85.6,200.7,85.9z M195,87.5c0,0.2,0.2,0.4,0.4,0.3
					h4.7c0.2,0,0.4-0.1,0.4-0.3l0,0v-1.6c0-0.2-0.2-0.4-0.4-0.3l0,0h-4.7c-0.2,0-0.4,0.1-0.4,0.3v0.3h-0.1c-0.1,0-0.1,0-0.2,0V87
					c0.1,0,0.1,0.1,0.2,0.1h0.1V87.5z"/>
				<rect x="195.3" y="85.8" class="st6" width="0.7" height="1.8"/>
				<rect x="196.4" y="85.8" class="st6" width="0.7" height="1.8"/>
				<rect x="197.4" y="85.8" class="st6" width="0.7" height="1.8"/>
				<rect x="198.4" y="85.8" class="st6" width="0.7" height="1.8"/>
				<rect x="199.4" y="85.8" class="st6" width="0.7" height="1.8"/>
				<rect x="139.7" y="85.3" class="st10" width="0.8" height="1"/>
				<rect x="140.9" y="85.3" class="st10" width="0.8" height="1"/>
				<rect x="142.1" y="85.3" class="st10" width="0.8" height="1"/>
				<rect x="143.2" y="85.3" class="st10" width="0.8" height="1"/>
				<rect x="144.4" y="85.3" class="st10" width="0.8" height="1"/>
				<rect x="145.6" y="85.3" class="st10" width="0.8" height="1"/>
				<path class="st2" d="M166.7,85.4L166.7,85.4l-0.2,0.1l-0.1-0.2l0.3-0.2h0.3v1.2h-0.3V85.4z"/>
				<path class="st2" d="M167.9,86.4v-0.3h-0.6v-0.2l0.5-0.7h0.4v0.7h0.1v0.2h-0.1v0.3H167.9z M167.9,85.9v-0.5l0,0
					c0,0.1-0.1,0.2-0.1,0.2l-0.2,0.3H167.9L167.9,85.9z"/>
				<path class="st2" d="M168.4,85.7c0-0.1,0.1-0.2,0.2-0.2c0.1,0,0.2,0.1,0.2,0.2s-0.1,0.2-0.2,0.2l0,0
					C168.5,85.8,168.5,85.8,168.4,85.7L168.4,85.7z M168.4,86.3c0-0.1,0.1-0.2,0.2-0.2c0.1,0,0.2,0.1,0.2,0.2s-0.1,0.2-0.2,0.2l0,0
					C168.5,86.4,168.5,86.4,168.4,86.3L168.4,86.3z"/>
				<path class="st2" d="M169,86.1c0.1,0,0.2,0.1,0.3,0.1s0.2-0.1,0.2-0.2s-0.1-0.2-0.3-0.2h-0.1v-0.2h0.1c0.1,0,0.2,0,0.2-0.1
					s-0.1-0.1-0.2-0.1c-0.1,0-0.2,0-0.3,0.1l-0.1-0.2c0.1-0.1,0.2-0.1,0.4-0.1c0.3,0,0.4,0.1,0.4,0.3c0,0.1-0.1,0.3-0.2,0.3l0,0
					c0.2,0,0.3,0.1,0.3,0.3c0,0.2-0.2,0.4-0.5,0.4c-0.1,0-0.3,0-0.4-0.1L169,86.1z"/>
				<path class="st2" d="M170.9,85.8c0,0.4-0.1,0.6-0.5,0.6s-0.5-0.3-0.5-0.6s0.1-0.6,0.5-0.6S170.9,85.5,170.9,85.8z M170.3,85.8
					c0,0.3,0.1,0.4,0.2,0.4c0.1,0,0.2-0.1,0.2-0.4s-0.1-0.4-0.2-0.4S170.3,85.5,170.3,85.8L170.3,85.8z"/>
				<path class="st2" d="M171.4,85.2c0.1,0,0.3,0,0.4,0c0.1,0,0.3,0,0.4,0.1c0.2,0.2,0.2,0.4,0,0.6l0,0c-0.1,0.1-0.3,0.1-0.4,0.1
					h-0.1v0.4h-0.3L171.4,85.2z M171.7,85.7h0.1c0.1,0,0.2-0.1,0.2-0.2s-0.1-0.2-0.2-0.2h-0.1V85.7z"/>
				<path class="st2" d="M173.6,85.9c0-0.2,0-0.3,0-0.5l0,0c0,0.2-0.1,0.3-0.1,0.5l-0.2,0.5h-0.2l-0.1-0.5c0-0.2-0.1-0.3-0.1-0.5
					l0,0c0,0.2,0,0.4,0,0.5v0.5h-0.3l0.1-1.3h0.4l0.1,0.4c0,0.1,0.1,0.3,0.1,0.4l0,0l0.1-0.5l0.1-0.4h0.4l0.1,1.3h-0.3L173.6,85.9z"
					/>
				<path class="st11" d="M164.9,75.8c0,0.2-0.2,0.3-0.4,0.3l0,0c-0.2,0-0.4-0.2-0.4-0.3l0,0c0-0.2,0.1-0.3,0.3-0.3l0,0
					C164.7,75.4,164.9,75.6,164.9,75.8L164.9,75.8z"/>
				<path class="st11" d="M165.7,75.8c0,0.2-0.2,0.3-0.4,0.3S165,76,165,75.8c0-0.2,0.2-0.3,0.4-0.3
					C165.6,75.5,165.7,75.6,165.7,75.8z"/>
				<path class="st11" d="M166.5,75.8c0,0.2-0.2,0.3-0.4,0.3s-0.3-0.1-0.3-0.3c0-0.2,0.2-0.3,0.4-0.3S166.5,75.6,166.5,75.8z"/>
				<path class="st11" d="M167.3,75.8c0,0.2-0.2,0.3-0.4,0.3s-0.3-0.1-0.3-0.3c0-0.2,0.2-0.3,0.4-0.3S167.3,75.6,167.3,75.8z"/>
				<path class="st11" d="M168.1,75.8c0,0.2-0.2,0.3-0.4,0.3l0,0c-0.2,0-0.4-0.2-0.4-0.3l0,0c0-0.2,0.2-0.3,0.4-0.3l0,0
					C168,75.4,168.1,75.5,168.1,75.8C168.1,75.7,168.1,75.7,168.1,75.8z"/>
				<path class="st11" d="M168.9,75.8c0,0.2-0.2,0.3-0.4,0.3l0,0c-0.2,0-0.4-0.2-0.4-0.3l0,0c0-0.2,0.1-0.3,0.3-0.3l0,0
					C168.8,75.4,168.9,75.6,168.9,75.8L168.9,75.8z"/>
				<path class="st11" d="M169.7,75.8c0,0.2-0.2,0.3-0.4,0.3S169,76,169,75.8c0-0.2,0.2-0.3,0.4-0.3
					C169.6,75.5,169.7,75.6,169.7,75.8z"/>
				<path class="st11" d="M170.6,75.8c0,0.2-0.2,0.3-0.4,0.3s-0.3-0.1-0.3-0.3c0-0.2,0.2-0.3,0.4-0.3
					C170.4,75.5,170.5,75.6,170.6,75.8z"/>
				<path class="st11" d="M171.4,75.8c0,0.2-0.2,0.3-0.4,0.3l0,0c-0.2,0-0.4-0.2-0.4-0.3l0,0c0-0.2,0.2-0.3,0.4-0.3l0,0
					C171.2,75.4,171.4,75.5,171.4,75.8C171.4,75.7,171.4,75.7,171.4,75.8z"/>
				<path class="st11" d="M172.2,75.8c0,0.2-0.2,0.3-0.4,0.3l0,0c-0.2,0-0.4-0.2-0.4-0.3l0,0c0-0.2,0.1-0.3,0.3-0.3l0,0
					C172,75.4,172.2,75.6,172.2,75.8L172.2,75.8z"/>
				<path class="st11" d="M173,75.8c0,0.2-0.2,0.3-0.4,0.3s-0.3-0.1-0.3-0.3c0-0.2,0.2-0.3,0.4-0.3S173,75.6,173,75.8z"/>
				<path class="st11" d="M173.8,75.8c0,0.2-0.2,0.3-0.4,0.3s-0.3-0.1-0.3-0.3c0-0.2,0.2-0.3,0.4-0.3S173.8,75.6,173.8,75.8z"/>
				<path class="st11" d="M174.6,75.8c0,0.2-0.2,0.3-0.4,0.3s-0.3-0.1-0.3-0.3c0-0.2,0.2-0.3,0.4-0.3S174.6,75.6,174.6,75.8z"/>
				<path class="st11" d="M175.4,75.8c0,0.2-0.2,0.3-0.4,0.3l0,0c-0.2,0-0.4-0.2-0.4-0.3l0,0c0-0.2,0.2-0.3,0.4-0.3l0,0
					C175.3,75.4,175.4,75.5,175.4,75.8C175.4,75.7,175.4,75.7,175.4,75.8z"/>
				<path class="st11" d="M176.2,75.8c0,0.2-0.2,0.3-0.4,0.3s-0.3-0.1-0.3-0.3c0-0.2,0.2-0.3,0.4-0.3
					C176.1,75.5,176.2,75.6,176.2,75.8z"/>
				<path class="st11" d="M177,75.8c0,0.2-0.2,0.3-0.4,0.3s-0.3-0.1-0.3-0.3c0-0.2,0.2-0.3,0.4-0.3S177,75.6,177,75.8z"/>
				<path class="st1" d="M164.9,76.6c0,0.2-0.2,0.4-0.4,0.4s-0.3-0.2-0.3-0.4c0-0.2,0.1-0.3,0.3-0.3
					C164.7,76.2,164.9,76.4,164.9,76.6L164.9,76.6z"/>
				<path class="st1" d="M165.7,76.6c0,0.2-0.2,0.4-0.3,0.4c-0.2,0-0.4-0.2-0.4-0.3c0-0.2,0.2-0.4,0.3-0.4l0,0
					C165.5,76.2,165.7,76.4,165.7,76.6z"/>
				<path class="st1" d="M166.5,76.6c0,0.2-0.2,0.4-0.3,0.4c-0.2,0-0.4-0.2-0.4-0.3c0-0.2,0.2-0.4,0.3-0.4l0,0
					C166.4,76.2,166.5,76.4,166.5,76.6z"/>
				<path class="st1" d="M167.3,76.6c0,0.2-0.1,0.4-0.3,0.4s-0.4-0.1-0.4-0.3v-0.1c0-0.2,0.2-0.3,0.4-0.3
					C167.2,76.3,167.3,76.4,167.3,76.6z"/>
				<path class="st1" d="M168.1,76.6c0,0.2-0.1,0.4-0.3,0.4l0,0c-0.2,0-0.3-0.2-0.3-0.4c0-0.2,0.1-0.3,0.3-0.3
					C168,76.2,168.1,76.4,168.1,76.6L168.1,76.6z"/>
				<path class="st1" d="M168.9,76.6c0,0.2-0.2,0.4-0.4,0.4s-0.3-0.2-0.3-0.4c0-0.2,0.1-0.3,0.3-0.3
					C168.8,76.2,168.9,76.4,168.9,76.6L168.9,76.6z"/>
				<path class="st1" d="M169.7,76.6c0,0.2-0.2,0.4-0.3,0.4c-0.2,0-0.4-0.2-0.4-0.3c0-0.2,0.2-0.4,0.3-0.4l0,0
					C169.6,76.2,169.7,76.4,169.7,76.6z"/>
				<path class="st1" d="M170.6,76.6c0,0.2-0.1,0.4-0.3,0.4s-0.4-0.1-0.4-0.3v-0.1c0-0.2,0.2-0.3,0.4-0.3
					C170.4,76.3,170.5,76.4,170.6,76.6z"/>
				<path class="st1" d="M171.4,76.6c0,0.2-0.1,0.4-0.3,0.4l0,0c-0.2,0-0.3-0.2-0.3-0.4c0-0.2,0.1-0.3,0.3-0.3
					C171.2,76.2,171.4,76.4,171.4,76.6L171.4,76.6z"/>
				<path class="st1" d="M172.2,76.6c0,0.2-0.2,0.4-0.4,0.4s-0.3-0.2-0.3-0.4c0-0.2,0.1-0.3,0.3-0.3C172,76.2,172.2,76.4,172.2,76.6
					L172.2,76.6z"/>
				<path class="st1" d="M173,76.6c0,0.2-0.2,0.4-0.3,0.4c-0.2,0-0.4-0.2-0.4-0.3c0-0.2,0.2-0.4,0.3-0.4l0,0
					C172.8,76.2,173,76.4,173,76.6z"/>
				<path class="st1" d="M173.8,76.6c0,0.2-0.1,0.4-0.3,0.4s-0.4-0.1-0.4-0.3v-0.1c0-0.2,0.2-0.3,0.4-0.3
					C173.7,76.3,173.8,76.4,173.8,76.6z"/>
				<path class="st1" d="M174.6,76.6c0,0.2-0.1,0.4-0.3,0.4s-0.4-0.1-0.4-0.3v-0.1c0-0.2,0.2-0.3,0.4-0.3
					C174.5,76.3,174.6,76.4,174.6,76.6z"/>
				<path class="st1" d="M175.4,76.6c0,0.2-0.1,0.4-0.3,0.4l0,0c-0.2,0-0.3-0.2-0.3-0.4c0-0.2,0.1-0.3,0.3-0.3
					C175.3,76.2,175.4,76.4,175.4,76.6L175.4,76.6z"/>
				<path class="st1" d="M176.2,76.6c0,0.2-0.2,0.4-0.3,0.4c-0.2,0-0.4-0.2-0.4-0.3c0-0.2,0.2-0.4,0.3-0.4l0,0
					C176.1,76.2,176.2,76.4,176.2,76.6z"/>
				<path class="st1" d="M177,76.6c0,0.2-0.2,0.4-0.3,0.4c-0.2,0-0.4-0.2-0.4-0.3c0-0.2,0.2-0.4,0.3-0.4l0,0
					C176.8,76.2,177,76.4,177,76.6z"/>
				<path class="st12" d="M173.6,201.7c2.4-0.1,4.5,1.7,4.6,4.2s-1.7,4.5-4.2,4.6c-0.1,0-0.3,0-0.4,0h-6.9c-2.4,0.1-4.5-1.7-4.6-4.2
					s1.7-4.5,4.2-4.6c0.1,0,0.3,0,0.4,0H173.6z"/>
				<path class="st13" d="M173.3,202.1c2.2,0.3,3.8,2.3,3.5,4.5c-0.2,1.8-1.7,3.3-3.5,3.5H167c-2.2-0.3-3.8-2.3-3.5-4.5
					c0.2-1.8,1.7-3.3,3.5-3.5H173.3z"/>
				<path class="st14" d="M177.1,206.2h-13.8c-0.1,0-0.1,0-0.1-0.1l0,0c0-0.1,0-0.1,0.1-0.1h13.9c0.1,0,0.1,0,0.1,0.1
					C177.2,206.1,177.1,206.2,177.1,206.2L177.1,206.2z"/>
				<path class="st2" d="M136.3,204V77.8c-0.1-6,4.8-10.9,10.8-11h-0.9c-6,0.1-10.8,5-10.8,11V204c-0.1,6,4.8,10.9,10.8,11h0.9
					C141,214.9,136.2,210,136.3,204z"/>
				<path class="st2" d="M204.3,204V77.8c0.1-6-4.8-10.9-10.8-11h0.9c6,0.1,10.8,5,10.8,11V204c0.1,6-4.8,10.9-10.8,11h-0.9
					C199.5,214.9,204.3,210,204.3,204z"/>
				<path class="st11" d="M194.9,70.8c0,0.3-0.4,0.6-0.7,0.5c-0.3,0-0.5-0.3-0.5-0.5c0-0.3,0.4-0.6,0.7-0.5
					C194.6,70.3,194.9,70.6,194.9,70.8z"/>
				<g class="st15">
					<path class="st16" d="M183.8,20.8c-0.7,0-1.3-0.5-1.5-1.2c-1.3-5.4-4.9-9.8-9.9-12.2c-4.7-2.3-10.2-2.5-15-0.6
						c-0.8,0.3-1.6,0.1-1.9-0.7l0-0.1c-0.2-0.8,0.1-1.7,0.9-1.9l0.1,0c11.2-4.3,23.8,1.3,27.9,12.5c0.3,0.7,0.5,1.5,0.7,2.3
						c0.3,0.8,0,1.6-0.8,1.9l-0.1,0C184.1,20.8,183.9,20.8,183.8,20.8z"/>
					<path class="st16" d="M178.6,29.8c-0.7,0-1.3-0.5-1.4-1.1c-1-5-4.2-9.3-8.7-11.6c-4.1-2.4-9.1-2.8-13.5-1.3
						c-0.8,0.1-1.6-0.6-1.6-1.4c0-0.6,0.2-1.1,0.7-1.4c5.4-2.1,11.4-1.6,16.5,1.2c5,2.9,8.5,7.8,9.6,13.4c0.1,0.8,0.3,1.9-0.6,2.2
						C179.3,29.7,178.7,29.8,178.6,29.8z"/>
					<path class="st16" d="M167.6,28.4c-0.6,0-1.1-0.4-1.4-0.9c-1.5-2.7-4.3-4.5-7.5-4.5c-0.9-0.1-1.5-0.8-1.4-1.7
						c0.1-0.6,0.5-1.1,1-1.3c4.3-0.5,9,2.9,10.6,6.2c0.3,0.8,0,1.7-0.7,2C168,28.3,167.8,28.4,167.6,28.4z"/>
				</g>
			</g>
		</g>
	</g>
</g>
</svg>
