<svg xmlns="http://www.w3.org/2000/svg" xmlns:xlink="http://www.w3.org/1999/xlink" viewBox="0 0 220 220"><defs><style>.cls-1,.cls-26,.cls-6{fill:none;}.cls-2{fill:#40a5ce;}.cls-3{isolation:isolate;}.cls-4{clip-path:url(#clip-path);}.cls-5{fill:#555a5f;}.cls-6{stroke:#96a0a5;stroke-width:1.65px;}.cls-10,.cls-26,.cls-6{stroke-miterlimit:10;}.cls-7{fill:#333;}.cls-8{fill:#bccfd3;}.cls-9{fill:#788287;}.cls-10{fill:#96a0a5;stroke:#bfd4e2;stroke-width:0.26px;}.cls-11,.cls-17{fill:#fff;}.cls-12{fill:#808387;}.cls-13{fill:#ced6dd;}.cls-14{clip-path:url(#clip-path-2);}.cls-15{fill:#f4d262;}.cls-16{fill:#10303f;}.cls-17{mix-blend-mode:soft-light;}.cls-18{fill:#e95653;}.cls-19{fill:#f08e8c;}.cls-20{fill:#e11e19;}.cls-21{fill:#df1d18;}.cls-22{fill:#dfdfdf;}.cls-23{clip-path:url(#clip-path-3);}.cls-24{clip-path:url(#clip-path-4);}.cls-25{fill:#7cb892;}.cls-26{stroke:#50a06e;stroke-width:4px;}</style><clipPath id="clip-path"><rect class="cls-1" width="220" height="220"/></clipPath><clipPath id="clip-path-2"><path class="cls-2" d="M157.55,45.85a2.77,2.77,0,0,1-2.93,2.7,3.23,3.23,0,0,1-1.77-.56,2.67,2.67,0,0,1,1.69-4.92A3,3,0,0,1,157.55,45.85Z"/></clipPath><clipPath id="clip-path-3"><path class="cls-1" d="M93.38,182l-1.5-.82a.76.76,0,0,1-.37-.53A9.19,9.19,0,0,0,87,174.15l1.5.82A9.2,9.2,0,0,1,93,181.45.78.78,0,0,0,93.38,182Z"/></clipPath><clipPath id="clip-path-4"><path class="cls-1" d="M87.69,181.36l-1.5-.82a.69.69,0,0,1-.31-.34,3.86,3.86,0,0,0-1.68-1.67l1.5.81A3.89,3.89,0,0,1,87.38,181,.68.68,0,0,0,87.69,181.36Z"/></clipPath></defs><g class="cls-3"><g id="Layer_1" data-name="Layer 1"><g class="cls-4"><rect class="cls-5" x="72.41" y="42.83" width="2.19" height="12.8" rx="1.05"/><rect class="cls-5" x="72.41" y="60.07" width="2.19" height="18.85" rx="1.05"/><rect class="cls-5" x="72.41" y="82.6" width="2.19" height="18.85" rx="1.05"/><rect class="cls-5" x="171.52" y="64.68" width="2.19" height="32.01" rx="1.05"/><rect class="cls-6" x="74.01" y="4.02" width="98.37" height="202.94" rx="13.3"/><rect class="cls-7" x="74.01" y="4.02" width="98.37" height="202.94" rx="13.3"/><rect class="cls-8" x="75.96" y="6.46" width="93.98" height="197.02" rx="12.65"/><path class="cls-7" d="M147.68,5.94V8.79a3.64,3.64,0,0,1-3.63,3.63H102.11a3.63,3.63,0,0,1-3.62-3.63V5.94"/><path class="cls-9" d="M131.11,8.75H114.27a.43.43,0,0,1-.44-.44.44.44,0,0,1,.44-.44h16.84a.44.44,0,0,1,.44.44A.44.44,0,0,1,131.11,8.75Z"/><circle class="cls-10" cx="134.92" cy="8.31" r="1.37"/><path class="cls-10" d="M134.92,9.88a1.57,1.57,0,1,1,1.57-1.57A1.57,1.57,0,0,1,134.92,9.88Zm0-2.74a1.17,1.17,0,1,0,1.17,1.17A1.18,1.18,0,0,0,134.92,7.14Z"/><path class="cls-11" d="M146.4,167.89H81.22L81.06,38l84.4-.1,1.65,111.83C167.13,164.34,161,167.87,146.4,167.89Z"/><path class="cls-12" d="M141.18,151.76c.85-.51,1.66-1,2.45-1.62.39-.29.78-.59,1.14-.9a5.21,5.21,0,0,0,.93-1,1.17,1.17,0,0,0,.13-.28.48.48,0,0,0,0-.24.34.34,0,0,0-.14-.18.46.46,0,0,0-.23-.06,1,1,0,0,0-.55.24,3.1,3.1,0,0,0-.5.46,6.78,6.78,0,0,0-.81,1.12,5.05,5.05,0,0,0-.53,1.25,1.87,1.87,0,0,0,0,.32.5.5,0,0,0,.06.26l0,0a.28.28,0,0,0,.11,0,1.71,1.71,0,0,0,.29-.16,14,14,0,0,1,1.18-.89,1.13,1.13,0,0,1,.39-.14.46.46,0,0,1,.23,0l.11.06a.23.23,0,0,1,.08.12.29.29,0,0,1,0,.22l-.11.16-.21.28c0,.05,0,.09,0,.1s.06,0,.11,0a1.53,1.53,0,0,0,.37,0l.18,0,.18,0,.36-.1a11,11,0,0,0,1.37-.57,9.2,9.2,0,0,0,1.24-.77,3.89,3.89,0,0,0,.53-.46,2,2,0,0,0,.38-.55.87.87,0,0,0,.08-.59,1.18,1.18,0,0,0-.33-.52l.16.06s0,0,0,0l-.11.08-.23.21c-.14.15-.28.32-.41.48-.27.33-.52.68-.77,1a20.33,20.33,0,0,0-1.34,2.16c-.09.19-.18.37-.25.55a.93.93,0,0,0,0,.13s0,.08,0,.08a0,0,0,0,1,0,0,.17.17,0,0,0-.07-.08h0s-.1-.05-.16,0l-.1,0h0l0,0,.14-.08,1.19-.62,1.2-.61.6-.3.31-.15.15-.07.08,0h0l.07,0h0a.24.24,0,0,1,.3.14,0,0,0,0,1,0,0,.58.58,0,0,1-.05.36.87.87,0,0,1-.15.25,4.32,4.32,0,0,1-.34.39l-.34.35-.15.18a.49.49,0,0,0-.09.15l-.23-.23a8.15,8.15,0,0,0,1.37-.29c.44-.14.89-.3,1.32-.47l1.3-.55,1.28-.59h0s0,0,0,0c-.41.23-.81.46-1.23.68s-.83.44-1.26.64-.87.38-1.32.54a6.83,6.83,0,0,1-1.43.37.21.21,0,0,1-.23-.16.22.22,0,0,1,0-.08h0a1,1,0,0,1,.13-.27c.05-.08.11-.14.16-.21l.33-.37a4.44,4.44,0,0,0,.3-.37.75.75,0,0,0,.1-.17.31.31,0,0,0,0-.11l.31.18h0l0,0-.07,0-.15.08-.29.15-.6.31-1.18.62-1.19.62-.15.08,0,0h0a.56.56,0,0,1-.11,0,.36.36,0,0,1-.16,0h0a.33.33,0,0,1-.13-.14.61.61,0,0,1,0-.11.56.56,0,0,1,0-.24.84.84,0,0,1,.05-.17,3.81,3.81,0,0,1,.29-.61,19.8,19.8,0,0,1,1.41-2.18c.26-.35.53-.7.81-1,.15-.17.29-.33.45-.49l.26-.24.16-.11a.76.76,0,0,1,.26-.09.23.23,0,0,1,.16.06h0a1.45,1.45,0,0,1,.41.71,1.23,1.23,0,0,1-.14.78,2.49,2.49,0,0,1-.47.6,5.53,5.53,0,0,1-.59.47,8.79,8.79,0,0,1-1.31.73,11.3,11.3,0,0,1-1.4.55l-.37.1-.2,0-.19,0a1.78,1.78,0,0,1-.4,0l-.11,0A.18.18,0,0,1,145,151a.24.24,0,0,1,0-.14,1,1,0,0,1,0-.1c.07-.11.15-.2.22-.3l.09-.14a.16.16,0,0,0,0-.11l0,0-.06,0a.22.22,0,0,0-.14,0,1,1,0,0,0-.31.13c-.39.26-.72.62-1.11.93a1.82,1.82,0,0,1-.34.22.65.65,0,0,1-.26,0,.37.37,0,0,1-.28-.15.82.82,0,0,1-.13-.42,1.58,1.58,0,0,1,0-.38,4.42,4.42,0,0,1,.5-1.37,5.83,5.83,0,0,1,.84-1.21,3.15,3.15,0,0,1,.57-.52,1.79,1.79,0,0,1,.36-.21,1.24,1.24,0,0,1,.45-.1.82.82,0,0,1,.5.15.74.74,0,0,1,.3.39.76.76,0,0,1,0,.45,1.52,1.52,0,0,1-.18.36,3.89,3.89,0,0,1-.48.58c-.18.17-.37.34-.56.49q-.58.47-1.2.87c-.42.27-.84.52-1.28.76s-.86.48-1.32.69c0,0,0,0,0,0a0,0,0,0,1,0,0Z"/><path class="cls-13" d="M90,58.38v.53c0,.24.08.43.19.43l20.32.08c.11,0,.2-.19.2-.43v-.53c0-.23-.08-.42-.19-.43L90.19,58C90.08,58,90,58.15,90,58.38Z"/><path class="cls-13" d="M90,54.41V55c0,.23.08.42.19.42l20.32.08c.11,0,.2-.19.2-.42v-.54c0-.23-.08-.42-.19-.42L90.19,54C90.08,54,90,54.18,90,54.41Z"/><path class="cls-13" d="M90,62v.53c0,.24.08.43.19.43L110.5,63c.11,0,.2-.19.2-.43V62c0-.23-.08-.42-.19-.43l-20.32-.07C90.08,61.53,90,61.72,90,62Z"/><path class="cls-13" d="M138.38,58.38v.53c0,.24.08.43.19.43l20.32.08c.11,0,.2-.19.2-.43v-.53c0-.23-.08-.42-.19-.43L138.58,58C138.47,58,138.38,58.15,138.38,58.38Z"/><path class="cls-13" d="M138.38,54.41V55c0,.23.08.42.19.42l20.32.08c.11,0,.2-.19.2-.42v-.54c0-.23-.08-.42-.19-.42L138.58,54C138.47,54,138.38,54.18,138.38,54.41Z"/><path class="cls-13" d="M138.38,62v.53c0,.24.08.43.19.43l20.32.08c.11,0,.2-.19.2-.43V62c0-.23-.08-.42-.19-.43l-20.32-.07C138.47,61.53,138.38,61.72,138.38,62Z"/><path class="cls-13" d="M91.58,85.83v.58c0,.25.14.46.32.46l33.16.12c.18,0,.32-.2.32-.45V86c0-.26-.14-.46-.31-.46L91.9,85.37C91.72,85.37,91.58,85.58,91.58,85.83Z"/><rect class="cls-13" x="121.79" y="61.17" width="1.94" height="62.37" rx="0.59" transform="translate(29.93 214.77) rotate(-89.78)"/><path class="cls-13" d="M91.58,97.62v.74a.6.6,0,0,0,.59.6l61.19.24a.61.61,0,0,0,.6-.6v-.75a.6.6,0,0,0-.59-.6L92.17,97A.59.59,0,0,0,91.58,97.62Z"/><path class="cls-13" d="M91.58,103.37v.75a.61.61,0,0,0,.59.6l61.19.23a.61.61,0,0,0,.6-.6v-.74a.59.59,0,0,0-.59-.6l-61.19-.24A.59.59,0,0,0,91.58,103.37Z"/><path class="cls-13" d="M90.47,117.37v.37a.34.34,0,0,0,.36.3l37.76.14a.34.34,0,0,0,.37-.3v-.37a.33.33,0,0,0-.36-.29l-37.77-.15A.33.33,0,0,0,90.47,117.37Z"/><path class="cls-13" d="M137.67,154.44v.21a.17.17,0,0,0,.17.16l17.9.07a.17.17,0,0,0,.18-.16v-.21a.17.17,0,0,0-.18-.17l-17.9-.07A.17.17,0,0,0,137.67,154.44Z"/><path class="cls-13" d="M142.83,117.45v.32c0,.14,0,.26.07.26l7,0s.07-.12.07-.26v-.32c0-.14,0-.26-.07-.26l-7,0S142.83,117.31,142.83,117.45Z"/><path class="cls-13" d="M90.47,123.91v.37a.33.33,0,0,0,.36.3l37.76.14a.33.33,0,0,0,.37-.29v-.37a.33.33,0,0,0-.36-.3l-37.77-.14A.32.32,0,0,0,90.47,123.91Z"/><path class="cls-13" d="M142.83,124v.32c0,.14,0,.25.07.25l7,0s.07-.11.07-.26V124c0-.14,0-.25-.07-.25l-7,0S142.83,123.85,142.83,124Z"/><path class="cls-13" d="M90.47,130.46v.37a.34.34,0,0,0,.36.3l37.76.14a.34.34,0,0,0,.37-.3v-.37a.34.34,0,0,0-.36-.3l-37.77-.14A.33.33,0,0,0,90.47,130.46Z"/><path class="cls-13" d="M142.83,130.54v.32c0,.14,0,.26.07.26l7,0s.07-.11.07-.25v-.32c0-.14,0-.26-.07-.26l-7,0S142.83,130.4,142.83,130.54Z"/><path class="cls-13" d="M159.61,50.08,149.2,50a.07.07,0,0,1-.08-.07v-.24a.08.08,0,0,1,.08-.08l10.41.13a.09.09,0,0,1,.08.08V50A.08.08,0,0,1,159.61,50.08Z"/><path class="cls-2" d="M157.55,45.85a2.77,2.77,0,0,1-2.93,2.7,3.23,3.23,0,0,1-1.77-.56,2.67,2.67,0,0,1,1.69-4.92A3,3,0,0,1,157.55,45.85Z"/><g class="cls-14"><path class="cls-15" d="M154.57,45.42c.43,0-2.08,2.71.89,2.35.84-.1.11.87.11.87a3.49,3.49,0,0,1-4.38-2.09C151.14,43.42,154.57,45.42,154.57,45.42Z"/></g><path class="cls-13" d="M152.91,119.1a1.53,1.53,0,0,1-.7.16,1.24,1.24,0,0,1-1.27-1.16h-.3v-.32h.26a1,1,0,0,1,0-.18,2.09,2.09,0,0,1,0-.24h-.27V117H151a1.53,1.53,0,0,1,.46-.85,1.24,1.24,0,0,1,.84-.3,1.48,1.48,0,0,1,.61.14v.37a1.17,1.17,0,0,0-.64-.19.75.75,0,0,0-.54.22,1.21,1.21,0,0,0-.33.61l1.23,0v.32l-1.28,0a2.94,2.94,0,0,0,0,.42l1.29,0v.32l-1.24,0c.12.56.42.84.87.84a1.25,1.25,0,0,0,.67-.19Z"/><path class="cls-13" d="M152.51,125.45a1.52,1.52,0,0,1-.69.16,1.24,1.24,0,0,1-1.28-1.17h-.3v-.32h.27a.72.72,0,0,1,0-.17c0-.07,0-.16,0-.25h-.27v-.32h.32a1.5,1.5,0,0,1,.46-.85,1.24,1.24,0,0,1,.85-.3,1.3,1.3,0,0,1,.6.14v.36a1.16,1.16,0,0,0-.63-.18.77.77,0,0,0-.55.22,1.17,1.17,0,0,0-.33.61l1.23,0v.31h-1.28a1.93,1.93,0,0,0,0,.42h1.28v.32H151c.13.55.42.83.88.84a1.37,1.37,0,0,0,.67-.19Z"/><path class="cls-13" d="M152.51,132.59a1.52,1.52,0,0,1-.69.16,1.24,1.24,0,0,1-1.28-1.17h-.3v-.32h.27a.72.72,0,0,1,0-.17c0-.08,0-.16,0-.25h-.27v-.32h.32a1.5,1.5,0,0,1,.46-.84,1.2,1.2,0,0,1,.85-.3,1.43,1.43,0,0,1,.6.13v.37a1.16,1.16,0,0,0-.63-.18.77.77,0,0,0-.55.22,1.17,1.17,0,0,0-.33.61l1.23,0v.31h-1.28a1.93,1.93,0,0,0,0,.42h1.28v.32H151c.13.55.42.83.88.84a1.37,1.37,0,0,0,.67-.19Z"/><rect class="cls-16" x="88.59" y="88.65" width="67.33" height="6.9"/><rect class="cls-16" x="86.59" y="50" width="25.42" height="6.6"/><rect class="cls-16" x="134.08" y="146.42" width="25.42" height="6.6"/><rect class="cls-16" x="137.67" y="51.06" width="22.79" height="5.54"/><path class="cls-17" d="M126.15,4H87.38C79.8,4,73.84,9.68,74.05,16.33l-.21,179.52Z"/><g class="cls-3"><polygon class="cls-18" points="55.33 159.34 55.33 218 27 202.29 27 143.64 55.33 159.34"/><polygon class="cls-19" points="109.01 151.7 55.33 159.34 27 143.64 80.57 135.99 109.01 151.7"/><path class="cls-20" d="M109,151.7v43.07c0,8.61-6.59,16.49-14.45,17.62L55.34,218V159.34Z"/></g><g class="cls-3"><polygon class="cls-19" points="31.95 157.43 34.02 157.19 37.15 158.88 35.23 159.22 31.95 157.43"/><polygon class="cls-21" points="38.84 185.55 40.91 185.31 38.08 192.47 35.98 192.79 38.84 185.55"/><polygon class="cls-19" points="35.08 159.24 37.15 158.88 41.25 175.75 39.19 175.99 35.08 159.24"/><polygon class="cls-19" points="40.5 181.35 42.56 181.11 48.07 203.63 46.13 203.94 40.5 181.35"/><polygon class="cls-21" points="45.1 170.06 47.16 169.83 42.56 181.11 40.5 181.35 45.1 170.06"/><polygon class="cls-19" points="42.14 168.41 44.2 168.16 47.16 169.83 45.1 170.06 42.14 168.41"/><polygon class="cls-11" points="35.23 159.22 39.19 175.99 42.14 168.41 45.1 170.06 40.5 181.35 46.13 203.94 42.91 202.18 38.84 185.55 35.98 192.79 33.23 191.25 37.53 180.22 31.95 157.43 35.23 159.22"/></g><g class="cls-3"><path class="cls-18" d="M97.38,194.2a4.36,4.36,0,0,0-1.88-5L94,188.42c3.7,2.07,1.93,8.16-2,9l1.49.81A5.44,5.44,0,0,0,97.38,194.2Z"/><path class="cls-19" d="M94.1,186.42a5.7,5.7,0,0,1,2.56.67c-2.13-1.39-4.61-2.06-7-.87l1.49.82A6.46,6.46,0,0,1,94.1,186.42Z"/><path class="cls-18" d="M88.42,186.94l-1.5-.81a3.29,3.29,0,0,1,1.64,3,4.2,4.2,0,0,1-.06.72h0l1.5.82a4.37,4.37,0,0,0,.06-.72A3.32,3.32,0,0,0,88.42,186.94Z"/><polygon class="cls-22" points="83.13 192.09 83.15 192.14 83.09 192.15 83.13 192.09"/><path class="cls-19" d="M87.52,184.13a4.48,4.48,0,0,1,1.6.47c-.23-.11-1.58-.89-1.8-.94a4.39,4.39,0,0,0-3.21-.13l1.49.81A4.47,4.47,0,0,1,87.52,184.13Z"/><g class="cls-3"><g class="cls-23"><path class="cls-18" d="M93.38,182l-1.5-.82a.76.76,0,0,1-.37-.53A9.19,9.19,0,0,0,87,174.15l1.5.82A9.2,9.2,0,0,1,93,181.45a.78.78,0,0,0,.37.54"/></g></g><path class="cls-18" d="M97.27,179.08a12.73,12.73,0,0,0-6.31-9l-1.49-.81a12.72,12.72,0,0,1,6.3,9,1,1,0,0,0,.51.73l1.5.82A1.05,1.05,0,0,1,97.27,179.08Z"/><g class="cls-3"><g class="cls-24"><g class="cls-3"><path class="cls-18" d="M87.69,181.36l-1.5-.82a.69.69,0,0,1-.31-.34,3.86,3.86,0,0,0-1.68-1.67l1.5.81A3.89,3.89,0,0,1,87.38,181a.68.68,0,0,0,.31.34"/></g></g></g><path class="cls-18" d="M81.52,183.46l-1.5-.81a5.28,5.28,0,0,1,2.67,4.42l1.49.82A5.32,5.32,0,0,0,81.52,183.46Z"/><path class="cls-19" d="M92,197.45l-.52.07L71,200.37a3.26,3.26,0,0,1-.62,0l-.18,0a2.7,2.7,0,0,1-.41-.06l-.19,0-.38-.14L69,200l1.5.81.11.06.11,0a2.92,2.92,0,0,0,.38.14l.1,0h.1a2.57,2.57,0,0,0,.4.06l.19,0a3.16,3.16,0,0,0,.61,0c.15,0,17.28-2.39,20.49-2.85l.52-.07Z"/><path class="cls-19" d="M84.4,177.06a5.18,5.18,0,0,1,2.19.64c-1.34-.76-2.91-1.71-4.51-1.43-1,0-1.74,1.17-.84,1.8l1.49.81a1,1,0,0,1,0-1.53A2.87,2.87,0,0,1,84.4,177.06Z"/><path class="cls-11" d="M83.58,177.09a5.4,5.4,0,0,1,5.31,3,1,1,0,0,1-.41,1.25.79.79,0,0,1-.35.13.69.69,0,0,1-.75-.41,4.05,4.05,0,0,0-3.81-2.14,1.36,1.36,0,0,0-.29.06l-.1,0a.72.72,0,0,1-.83-.68,1,1,0,0,1,.73-1.09A2.77,2.77,0,0,1,83.58,177.09Z"/><path class="cls-19" d="M85.18,171.61a9.68,9.68,0,0,1,4.25,1.13l-1.49-.81a10.08,10.08,0,0,0-6.15-1,12.43,12.43,0,0,0-4.21,1.43,1,1,0,0,0-.47.53,1.1,1.1,0,0,0,.4,1.28l1.49.81a1.08,1.08,0,0,1,.08-1.81A11.87,11.87,0,0,1,85.18,171.61Z"/><path class="cls-11" d="M83.28,171.7a10,10,0,0,1,5.71.82,10.67,10.67,0,0,1,5.73,7.92c.08.52.18,1.23-.37,1.49a4.77,4.77,0,0,1-.51.13.71.71,0,0,1-.83-.61,9.11,9.11,0,0,0-10.23-7.53,10.17,10.17,0,0,0-3.16,1,.7.7,0,0,1-1-.55,1,1,0,0,1,.49-1.25A12.32,12.32,0,0,1,83.28,171.7Z"/><path class="cls-11" d="M93,186.47c3.73-.52,6.75,2.31,6.75,6.31a8.55,8.55,0,0,1-5.29,7.82L70.36,204a5.68,5.68,0,0,1-3.81-5.64,8,8,0,0,1,4-6.8,9.91,9.91,0,0,1-.09-1.24c0-4.74,3.61-9.1,8-9.72a6.74,6.74,0,0,1,7.14,3.74,5,5,0,0,1,.85-.2,4.24,4.24,0,0,1,4.69,2.9A6.72,6.72,0,0,1,93,186.47Zm.49,11.79a5.54,5.54,0,0,0,4-5.3,3.89,3.89,0,0,0-4.42-4.13A5,5,0,0,0,90,190.66a4.37,4.37,0,0,0,.06-.72,3.12,3.12,0,0,0-3.54-3.32,4,4,0,0,0-2.34,1.27,5,5,0,0,0-5.77-5,7.18,7.18,0,0,0-5.81,7,5.93,5.93,0,0,0,.86,3.17,2.84,2.84,0,0,0-.92,0,4.62,4.62,0,0,0-3.75,4.55,3.28,3.28,0,0,0,3.73,3.49c.15,0,17.28-2.39,20.49-2.85l.52-.07"/><path class="cls-19" d="M70.52,189.15c.52-5.55,6.83-10.67,12.22-7.81l-1.49-.81C74.93,177.27,68,184.36,69,190.75c-4.33,2.32-5.66,9.53-1.08,12.05l1.5.81c-4.58-2.49-3.24-9.75,1.08-12.05A8.84,8.84,0,0,1,70.52,189.15Z"/><path class="cls-19" d="M86,166.2a14.05,14.05,0,0,1,6.27,1.72,16,16,0,0,0-7.77-2.54,16.43,16.43,0,0,0-8.37,2,1.57,1.57,0,0,0-.61.78,1.16,1.16,0,0,0,.43,1.39l1.49.81c-.88-.53-.47-1.93.39-2.29A16.62,16.62,0,0,1,86,166.2Z"/><path class="cls-11" d="M83.26,166.32a14.33,14.33,0,0,1,8.21,1.22c4,1.91,6.88,5.47,8,10.6a1.43,1.43,0,0,1-.76,1.7,1.36,1.36,0,0,1-.32.08,1,1,0,0,1-1.15-.84,12.28,12.28,0,0,0-14-10.29,15.86,15.86,0,0,0-4.8,1.54,1.38,1.38,0,0,1-.46.15.92.92,0,0,1-1.07-.67,1.47,1.47,0,0,1,.83-1.72A17.78,17.78,0,0,1,83.26,166.32Z"/></g><path class="cls-25" d="M172.6,75,142.9,88.83v25.43A44.18,44.18,0,0,0,172.6,156a44.19,44.19,0,0,0,29.69-41.74V88.83Z"/><path class="cls-11" d="M171.6,81.25v68.69a38.53,38.53,0,0,0,24-35.68V92.44Z"/><path class="cls-11" d="M147.57,92.44v21.82a38.53,38.53,0,0,0,24,35.68V81.25Z"/><polyline class="cls-26" points="155.44 115.14 167.08 124.78 188.34 100.77"/></g></g></g></svg>