<svg id="Layer_1" data-name="Layer 1" xmlns="http://www.w3.org/2000/svg" xmlns:xlink="http://www.w3.org/1999/xlink" viewBox="0 0 220 220"><defs><style>.cls-1{fill:none;}.cls-2{clip-path:url(#clip-path);}.cls-3{filter:url(#AI_GaussianBlur_4);}.cls-4{fill:#ced6dd;}.cls-5{fill:#e95653;}.cls-6{fill:#7cb892;}</style><clipPath id="clip-path"><rect class="cls-1" width="220" height="220"/></clipPath><filter id="AI_GaussianBlur_4" name="AI_GaussianBlur_4"><feGaussianBlur stdDeviation="4"/></filter></defs><g class="cls-2"><g class="cls-3"><path class="cls-4" d="M109,143.44V76.56h21.22q9.69,0,15.37,4.24a13.22,13.22,0,0,1,5.66,11.06,15.73,15.73,0,0,1-3.22,9.88,17.31,17.31,0,0,1-8.9,6v.19a17.49,17.49,0,0,1,11,5.11,15.57,15.57,0,0,1,4.12,11.21,16.82,16.82,0,0,1-6.76,13.9q-6.77,5.32-17.07,5.32Zm11-58v19h7.18c3.85,0,6.89-.91,9.07-2.73a9.46,9.46,0,0,0,3.29-7.72q0-8.58-11.47-8.58Zm0,27.93v21.18h9.47q6.19,0,9.58-2.87a9.83,9.83,0,0,0,3.38-7.91q0-10.39-14.41-10.4Z"/></g><g class="cls-3"><path class="cls-4" d="M209.24,140.77q-7.63,4-19,4-14.7,0-23.57-9.29t-8.86-24.37q0-16.21,10-26.22t25.2-10q9.79,0,16.26,2.78V88.77a29,29,0,0,0-15.08-4.06q-11,0-17.8,7t-6.81,18.76q0,11.18,6.36,17.8t16.74,6.62a30,30,0,0,0,16.59-4.52Z"/></g><path class="cls-1" d="M87.62,116.77l-1.2-3.45c-.46,1.17-1,2.33-1.49,3.45Z"/><path class="cls-4" d="M60.17,141.32l.59-1.76a44,44,0,0,1-5.11,1.76Z"/><path class="cls-4" d="M68.34,116.77,77,91.65a26.77,26.77,0,0,0,.88-4H78a28.25,28.25,0,0,0,.84,4l7.54,21.67a46.4,46.4,0,0,0,3.12-16.77c0-1.37-.07-2.73-.19-4.08L84.1,78.34H72.33l-23.58,63h6.9a44,44,0,0,0,5.11-1.76l4.85-14.27h14a46.55,46.55,0,0,0,5.34-8.52Z"/><path class="cls-5" d="M19.91,68.88a43,43,0,1,0,60.6,4.34A43,43,0,0,0,19.91,68.88ZM72.42,129.5A37.24,37.24,0,1,1,76.18,77,37.24,37.24,0,0,1,72.42,129.5Z"/><rect class="cls-5" x="90.69" y="123.16" width="10.64" height="71.1" rx="3.07" transform="translate(-80.47 101.61) rotate(-40.9)"/><polygon class="cls-6" points="33.05 112.21 19.51 98.67 24.02 94.16 33.05 103.18 53.34 82.89 57.85 87.4 33.05 112.21"/><g class="cls-3"><path class="cls-4" d="M58.8,142.61h0Z"/><path class="cls-4" d="M90.72,98.1c.07,1,.12,2,.12,3a42.64,42.64,0,0,1-8.12,25.08h7l5.79,16.4h11.72Z"/></g></g></svg>