<?xml version="1.0" encoding="utf-8"?>
<!-- Generator: Adobe Illustrator 24.1.3, SVG Export Plug-In . SVG Version: 6.00 Build 0)  -->
<svg version="1.1" id="Ebene_1" xmlns="http://www.w3.org/2000/svg" xmlns:xlink="http://www.w3.org/1999/xlink" x="0px" y="0px"
	 viewBox="0 0 800 476" style="enable-background:new 0 0 800 476;" xml:space="preserve">
<style type="text/css">
	.st0{fill:#F5F8FB;stroke:#B0B8BC;stroke-width:1.3022;stroke-miterlimit:10;stroke-dasharray:7.8134;}
	.st1{fill:none;stroke:#E11E19;stroke-width:0.6316;stroke-linecap:round;stroke-miterlimit:10;}
	.st2{fill:none;stroke:#E11E19;stroke-width:0.6316;stroke-linecap:round;stroke-miterlimit:10;stroke-dasharray:0,1.7665;}
	.st3{fill:#E11E19;}
	.st4{fill:url(#SVGID_1_);}
	.st5{fill:url(#SVGID_2_);}
	.st6{fill:url(#SVGID_3_);}
	.st7{fill:#E95653;}
	.st8{clip-path:url(#SVGID_5_);}
	.st9{fill:#FFFFFF;}
	.st10{fill:#BED3E1;}
	.st11{fill:#0099CC;}
	.st12{fill:#D1DEEB;}
	.st13{fill:#CED6DD;}
	.st14{fill:#2794AD;}
	.st15{clip-path:url(#SVGID_7_);}
	.st16{fill:#66AC80;}
	.st17{fill:#50A06E;}
	.st18{opacity:0.53;fill:url(#SVGID_8_);enable-background:new    ;}
	.st19{fill:url(#SVGID_9_);}
	.st20{fill:url(#SVGID_10_);}
	.st21{fill:url(#SVGID_11_);}
	.st22{fill:url(#SVGID_12_);}
	.st23{fill:none;stroke:#E11E19;stroke-width:0.6316;stroke-linecap:round;stroke-miterlimit:10;stroke-dasharray:0,1.9121;}
	.st24{fill:none;stroke:#E11E19;stroke-width:0.6316;stroke-linecap:round;stroke-miterlimit:10;stroke-dasharray:0,1.9057;}
	.st25{fill:none;stroke:#E11E19;stroke-width:0.6316;stroke-miterlimit:10;}
	.st26{fill:none;stroke:#E11E19;stroke-width:1.2493;stroke-miterlimit:10;}
	.st27{fill:none;stroke:#E11E19;stroke-width:0.6316;stroke-linecap:round;stroke-miterlimit:10;stroke-dasharray:0,1.7755;}
	.st28{fill:none;stroke:#E11E19;stroke-width:0.4553;stroke-miterlimit:10;}
	.st29{fill:none;stroke:#E11E19;stroke-width:1.2841;stroke-miterlimit:10;}
	.st30{fill:#8895A7;}
	.st31{fill:#E1E7EC;}
	.st32{fill:#BEC8D2;}
	.st33{fill:#909090;}
	.st34{fill:#C8C8C8;}
	.st35{fill:#E96A63;}
	.st36{fill:#E8B434;}
	.st37{fill:#38D289;}
	.st38{fill:#E4E5E9;}
	.st39{fill:#96A0A5;}
	.st40{fill:#F4F5F6;}
	.st41{fill:none;stroke:#404040;stroke-width:0.341;stroke-linecap:round;stroke-miterlimit:10;}
	.st42{fill:none;stroke:#BEC8D2;stroke-width:0.1362;stroke-miterlimit:10;}
	.st43{fill:#586371;}
	.st44{fill:#404040;}
	.st45{fill:none;stroke:#E11E19;stroke-width:0.2015;stroke-miterlimit:10;}
	.st46{fill:none;stroke:#404040;stroke-width:0.4292;stroke-linecap:round;stroke-miterlimit:10;}
	.st47{fill:#FFFFFF;stroke:#F4F5F6;stroke-width:0.773;stroke-miterlimit:10;}
	.st48{clip-path:url(#SVGID_14_);}
	.st49{fill:#212934;}
	.st50{fill:#475F78;}
	.st51{fill:#455769;}
	.st52{fill:url(#SVGID_15_);}
	.st53{fill:#BFD4E2;}
	.st54{clip-path:url(#SVGID_17_);}
</style>
<rect x="2" y="3" class="st0" width="798" height="472"/>
<g>
	<line class="st1" x1="703.3" y1="175.2" x2="703.3" y2="175.2"/>
	<path class="st2" d="M701.7,174.8c-2.5-0.8-4.8-2.3-6.6-4.3"/>
	<line class="st1" x1="694.5" y1="169.8" x2="694.5" y2="169.8"/>
	<polygon class="st3" points="697,169.2 693,166.7 692.8,171.4 	"/>
	
		<linearGradient id="SVGID_1_" gradientUnits="userSpaceOnUse" x1="184.5469" y1="-2079.25" x2="206.0621" y2="-2107.9924" gradientTransform="matrix(1 0 0 -1 0 -1831.3071)">
		<stop  offset="0" style="stop-color:#FFFFFF"/>
		<stop  offset="0.32" style="stop-color:#F2F4F6"/>
		<stop  offset="0.91" style="stop-color:#D1D9DF"/>
		<stop  offset="0.96" style="stop-color:#CED6DD"/>
	</linearGradient>
	<polygon class="st4" points="204.6,346.7 177.6,350.2 170.9,172.5 206.7,166 	"/>
	
		<linearGradient id="SVGID_2_" gradientUnits="userSpaceOnUse" x1="204.6" y1="-2110.457" x2="303.4" y2="-2110.457" gradientTransform="matrix(1 0 0 -1 0 -1831.3071)">
		<stop  offset="0" style="stop-color:#FFFFFF"/>
		<stop  offset="0.32" style="stop-color:#F2F4F6"/>
		<stop  offset="0.91" style="stop-color:#D1D9DF"/>
		<stop  offset="0.96" style="stop-color:#CED6DD"/>
	</linearGradient>
	<path class="st5" d="M283.5,192.7l-60.4-4.6l-16,11.7l-2.5,146.9c0,0,26.7,1.8,29.8,1.8s44.1,9.9,50.2,12.2s18.8,9.5,18.8,9.5
		L283.5,192.7z M282.9,336.4c-8.6,4.3-44.8-7.2-50.9-7.5c-16.3-0.7-10.4-22.8-10.6-25.7c-0.3-2.9,5.3-69.9,5.3-69.9
		s-1.4-9.9-1.4-12.4s49.5-11.7,50.9-11.7c1.4,0,5.4,34.8,7.2,38.7C285.1,251.7,296.8,329.4,282.9,336.4z"/>
	
		<linearGradient id="SVGID_3_" gradientUnits="userSpaceOnUse" x1="255.8277" y1="-2099.124" x2="309.1667" y2="-2099.124" gradientTransform="matrix(1 0 0 -1 0 -1831.3071)">
		<stop  offset="0" style="stop-color:#FFFFFF"/>
		<stop  offset="0.32" style="stop-color:#F2F4F6"/>
		<stop  offset="0.91" style="stop-color:#D1D9DF"/>
		<stop  offset="0.96" style="stop-color:#CED6DD"/>
	</linearGradient>
	<path class="st6" d="M286.7,162.6l22.4,208.9c0,0-5.9,1.8-7.5,1.5c-1.5-0.3-0.7-4-2.5-9.3s-11.7-51.3-11.7-51.3l-26.7-83.9l-5-28.5
		L286.7,162.6z"/>
	<path class="st7" d="M317.1,74l-1-0.7l0.4-0.7l1.1,0.8L317.1,74z M314.2,71.9l-1.8-1.4l0.4-0.6l1.8,1.2L314.2,71.9z M310.5,69.3
		l-1.9-1.2l0.4-0.7l1.9,1.2L310.5,69.3z M306.6,66.8l-1.9-1.2l0.4-0.7l1.9,1.2L306.6,66.8z M302.8,64.5l-2.1-1.1l0.4-0.7l1.9,1.1
		L302.8,64.5z M298.7,62.3l-2.1-1.1l0.3-0.7l2.1,1.1L298.7,62.3z M294.6,60.1l-2.1-1l0.3-0.7l2.2,1L294.6,60.1z M290.5,58.3l-2.1-1
		l0.3-0.7l2.1,0.8L290.5,58.3z M286.2,56.5l-2.1-0.8l0.3-0.7l2.1,0.8L286.2,56.5z M281.9,54.9l-2.2-0.7l0.3-0.7l2.2,0.7L281.9,54.9z
		 M277.5,53.7l-2.2-0.6v-0.8l2.3,0.6L277.5,53.7z M273,52.6l-2.2-0.4v-0.7l2.2,0.4V52.6z M193,109.5l-0.8-0.3
		c0.3-0.7,0.6-1.5,0.8-2.2l0.7,0.3L193,109.5z M268.5,51.9l-2.2-0.3v-0.8l2.3,0.3L268.5,51.9z M194.7,105.2l-0.8-0.3
		c0.3-0.7,0.7-1.4,1-2.2l0.7,0.4L194.7,105.2z M196.5,101l-0.7-0.3l1-2.1l0.7,0.3C197.2,99.6,196.9,100.3,196.5,101z M263.9,51.5
		h-2.2v-0.8h2.3L263.9,51.5z M198.4,97l-0.7-0.4c0.4-0.7,0.8-1.4,1.1-2.1l0.7,0.4L198.4,97z M259.4,51.4h-2.2v-0.7h2.2V51.4z
		 M200.6,92.8l-0.7-0.4c0.4-0.6,0.8-1.2,1.1-1.9l0.7,0.4L200.6,92.8z M254.8,51.6l-2.2,0.3v-0.8l2.3-0.3L254.8,51.6z M203,88.8
		l-0.7-0.3l1.2-2.1l0.7,0.4L203,88.8z M250.4,52.2l-2.3,0.4v-0.7l2.3-0.4V52.2z M205.5,84.9l-0.7-0.4l1.2-1.8l0.7,0.4L205.5,84.9z
		 M208.1,81.2l-0.7-0.4l1.4-1.8l0.6,0.4L208.1,81.2z M245.8,53.2l-2.1,0.7l-0.3-0.7l2.2-0.7L245.8,53.2z M210.9,77.6l-0.7-0.6
		l1.5-1.8l0.6,0.6L210.9,77.6z M241.5,54.5l-2.2,0.8l-0.3-0.7l2.2-0.8L241.5,54.5z M213.8,74l-0.6-0.4l1.5-1.8l0.6,0.6L213.8,74z
		 M237.3,56.2l-2.1,1l-0.3-0.7l2.1-1L237.3,56.2z M216.9,70.7l-0.6-0.6l1.7-1.5l0.4,0.6L216.9,70.7z M233.2,58.3l-2.1,1.1l-0.4-0.7
		l2.1-1.1L233.2,58.3z M220.3,67.5l-0.6-0.6l1.7-1.5L222,66L220.3,67.5z M229.2,60.6l-1.9,1.2l-0.4-0.6l1.9-1.4L229.2,60.6z
		 M223.7,64.6l-0.6-0.6l1.9-1.5l0.4,0.7L223.7,64.6z"/>
	<polygon class="st7" points="313.9,76.5 322.4,77.5 318.9,69.6 	"/>
	<g>
		<g>
			<g>
				<g>
					<g>
						<g>
							<defs>
								<polygon id="SVGID_4_" points="84.3,390.5 179.5,330.6 272.6,358.4 177.4,418.1 								"/>
							</defs>
							<clipPath id="SVGID_5_">
								<use xlink:href="#SVGID_4_"  style="overflow:visible;"/>
							</clipPath>
							<g class="st8">
								<path class="st9" d="M170.2,402.1h-1.7l-1.8,0.3l-1.4,0.4h4.8 M174.9,404.1h-3l-1.5,0.3h4L174.9,404.1l-0.1-0.3
									 M121.6,384.7L121.6,384.7 M121,384.1L121,384.1 M121.3,384.1L121.3,384.1 M131,378.2L131,378.2 M126.7,376.6L126.7,376.6
									 M129.9,377.5L129.9,377.5 M127.3,376.5c0,0-0.6,0-0.4,0.1h-3.4c-0.1-0.1-0.1,0-0.3,0h-0.3l9.4,2.8l-0.4-0.3h-0.1l-0.8-0.4
									h0.4l-0.6-0.3h-0.3c-0.1,0-0.1,0-0.1-0.1H130c0.1-0.1-0.1-0.1-0.1-0.1h-1c0.1,0-0.1,0,0.1-0.1h-1.8c0.3-0.1-0.3-0.1,0-0.3
									 M176,408.8l-19.6-5.8c0-0.1-0.1-0.1,0-0.1h0.4l19.7,5.8h-0.4 M169.3,403.9l2.5-0.4l1.5-0.3h1.7c0,0.1,0.1,0,0.3,0.1h0.1
									c0.1,0.1,0.1,0.4,0,0.6c-0.3,0.1-0.6,0.3-0.8,0.3h-1.1c0.1,0,0.3,0,0.1,0.1l0,0c0,0.1-0.1,0.1-0.3,0.1h-1.7l1.1,0.3h1.8
									l1.9,0.3h-3.7l-1.9-0.3l0,0c-0.1,0-0.1,0-0.1-0.1l0,0H165l1.5-0.6l1.8-0.3h2.6c0.1,0.1,0.1,0.3,0,0.4l0,0h-5.8
									c-0.1,0-0.1,0-0.1,0.1h3.3c0,0.1,0,0.1-0.1,0.1l0,0h-0.6c0,0.1,0.1,0.1,0.3,0.1h1.4 M114.1,382.4L114.1,382.4 M115.9,382.4
									L115.9,382.4 M115.7,382.3L115.7,382.3 M124.9,384.1L124.9,384.1 M124.9,384.1L124.9,384.1 M128.8,383.3L128.8,383.3
									 M130.9,382.9L130.9,382.9c0,0,0.1,0,0-0.1l0,0 M131,382.4L131,382.4 M131,382.4L131,382.4 M131,382.4L131,382.4
									 M131.4,382.2L131.4,382.2 M131.4,382.2L131.4,382.2 M131.4,382L131.4,382 M131.5,382L131.5,382 M132.2,382.2L132.2,382.2
									 M131.5,381.9L131.5,381.9 M132.8,381.5L132.8,381.5 M116.5,376.6L116.5,376.6 M133.2,381.1L133.2,381.1 M132.5,380.8
									L132.5,380.8 M119.1,380.8l3.9-0.6h3.9l3.7-0.3l1.1,0.6h-3.5l-2.9,0.6l-3.2,0.3h-3.2l-1-0.3v-1.4l0.4-1.2l1.4,0.4
									L119.1,380.8 M132.7,380.2L132.7,380.2 M121.6,376.2L121.6,376.2 M187,396l-7.6-2.3c0-0.1,0-0.1,0.1-0.1l0,0h0.4l7.7,2.3
									h-0.7 M121.2,375.9L121.2,375.9 M132.9,379.3L132.9,379.3 M132.9,379.3L132.9,379.3 M132.9,379.3L132.9,379.3 M188.2,396
									l1.1-0.3h1.1l0.7,0.3h-0.3l-0.6-0.3h-1.7l1.4,0.4h-0.3l-1.4-0.4h-0.3l1.4,0.4l-0.3,0.3l-1.2-0.4c-0.3,0.3-0.3,0.4,0.3,0.6
									h0.8v0.3l-1-0.3c-0.7-0.1-1-0.6-0.6-0.8h0.8 M132.4,378.4L132.4,378.4 M124.1,375.8L124.1,375.8 M131.4,377.6L131.4,377.6
									 M127,376.2L127,376.2 M130.2,377.2L130.2,377.2 M129.6,376.8L129.6,376.8 M128.1,376.2L128.1,376.2 M128.5,376.4h0.6
									c0.1,0,0,0.1,0,0.1h0.6l0.4,0.3c0-0.1,0-0.1,0.1-0.1l0,0c-0.1,0-0.3,0.1-0.1,0.1h1c0,0.1,0,0.1,0.1,0.3c0.1,0-0.1-0.1,0-0.1
									h0.8c0,0,0.1,0.1,0,0.1h0.1c0.1,0,0.1,0,0.1,0.1l0,0l0,0l0.4,0.3h-0.1c0.3,0.1,0.1,0.4,0.4,0.6h0.3l31.1,9.3
									c0.1,0.1,0.3,0.3,0.1,0.3h-1l-30-9.1h-0.3v0.3l0,0c0,0.1,0,0.1-0.1,0.3c0,0.1-0.1,0.3,0,0.3l0,0c0,0.1-0.3,0.1-0.1,0.3l0,0
									c0-0.1,0-0.1-0.1-0.1l0,0c-0.1,0.1,0.1,0.3-0.1,0.1h-0.6c0,0.1,0,0.1,0.1,0.1l0,0h-0.3c-0.1,0.1,0,0.1-0.1,0.1h-0.3
									c-0.1,0.1,0,0.3-0.3,0.3l0,0c-0.1,0-0.3,0-0.3,0.1l0,0c0-0.1,0-0.1,0.1-0.1l0,0h0.3c0.1-0.1,0-0.1,0-0.1h0.1
									c0-0.1,0.1-0.1,0.3-0.1h0.1c0-0.1-0.1-0.1-0.1-0.3s0.4-0.3,0.3-0.4l0,0c-0.1,0,0.1,0,0-0.1h0.3c0.1,0,0.1-0.1,0.1,0h0.1
									c-0.1-0.1,0.1-0.1-0.3-0.3h0.4c0.1,0-0.1-0.1-0.1-0.3l0,0c0.1,0,0.1-0.1,0-0.1l-10.5-3.2c-0.3-0.1-0.3-0.3-0.1-0.3h-0.1
									c0,0.1-0.3,0-0.4,0.1h-0.7c0.1,0.1-0.1,0.1-0.3,0.1h0.1c-0.1-0.1-0.3,0-0.4,0h-0.4l-1.7,0.4l0,0c-0.6,0-0.1,0.1-0.3,0.1
									l-2.1,0.7h0.3c-0.6,0-0.4,0.4-1,0.4s-0.4,0.3-0.3,0.4s-0.1,0.1-0.1,0h-0.1v0.3l0,0c0.1,0.1-0.6,0.3-0.4,0.6l0,0v0.4l0,0
									c0,0.1,0,0.3-0.1,0.4h0.3c0,0.1,0,0.1,0.1,0.1v0.3l0,0c0.1,0.1,0,0.1,0,0.1h-0.1c0-0.1,0-0.1,0.1-0.1h-0.1
									c0.1,0,0.3,0,0.3-0.1l0.4,0.6h-0.1c0.1,0,0.3,0.1,0.3,0.3l0,0h0.4c-0.1,0-0.1,0.1,0.1,0.3h0.6c0.3,0.1,0.1,0.1,0.1,0.3h0.3
									c0,0.1,0,0.1,0.1,0.1l0,0h0.3c0,0.3,0.7,0.3,1.1,0.6h0.4c0,0.1,0,0.1,0.1,0.1l0,0h5.3c0.1-0.1,0-0.1,0-0.1s0.4-0.1,0.7,0
									s-0.1,0,0,0.1h-0.1c0.1,0.1-0.3,0.1-0.1,0.1h0.4c0.1,0.1,0.1,0,0.3,0h1.2c0,0-0.1-0.1,0-0.1s-0.1,0,0,0.1l0,0
									c0-0.1,0-0.1,0.1-0.1l0,0h0.1c0.1-0.1,0.3,0,0.1-0.1h0.4c-0.1,0,0.3,0,0.1-0.1c-0.1-0.1-0.1,0.1,0.1,0.3l0,0
									c0-0.1,0.3-0.1,0.1-0.3h0.3l0.6-0.3h0.4v-0.3h0.6c-0.1,0,0.1,0,0.1-0.1l0,0c0-0.1,0.1-0.1,0.3-0.1h0.1c0-0.1,0-0.1,0.1-0.1
									l0,0h1c0.1,0.1,0.1,0.3,0,0.3h-1.1c-0.1,0.3-0.8,0.1-1,0.3h-0.4l-2.5,0.3l0,0c-0.7,0-1,0.4-1.8,0.3h-0.1
									c0-0.1,0-0.1,0.1-0.1l0,0h-0.1c0,0.1-0.4,0.1-0.7,0.1h-1l-0.6-0.3l0,0c0.1,0.1,0,0.1-0.1,0.1h-1.4c0.1,0,0,0,0-0.1H120
									c0-0.1-0.1,0-0.3,0s0-0.1-0.1-0.1h-2.8l-0.7-0.4h-0.4l-0.7-0.4h-0.3c0.1-0.1-0.8-0.3-0.7-0.6h-0.3c-0.1-0.1-0.3-0.1-0.1-0.3
									h0.1c0.1,0-0.1,0-0.1-0.1h-0.3c-0.1-0.3-0.6-0.6-0.3-0.7l-0.6-0.6l0,0c0-0.1,0.1-0.3,0.3-0.3l0,0c0-0.3-0.4-0.3-0.3-0.6h0.1
									c0.1,0,0,0,0-0.1l0,0c0.3-0.1,0-0.4,0.1-0.6h0.1c-0.1-0.1,0-0.3,0.1-0.4l0,0l0,0c0-0.1,0.4-0.1,0.4-0.3h-0.3
									c0.1-0.1,0.1-0.1,0-0.1h0.7c0,0.1,0,0.1,0.1,0.1h-0.1c0.3-0.1,0.7-0.3,0.8-0.6c0.1-0.3,0.6-0.1,0.8-0.1h0.1
									c0.1,0,0.3-0.1,0.3-0.3l0,0h-0.1c0-0.1,0.3-0.1,0.3-0.3v0.3c0.1,0,0.3-0.1,0.3-0.3l0,0h0.4l0.6-0.3l0,0c0.1,0,0.1-0.1,0.3,0
									h0.3c0.1,0,0-0.1,0-0.1s0.1,0,0.1,0.1l0.6-0.3h0.6c0.3,0,0.4-0.1,0.6,0h2.5c-0.1,0,0.1,0,0-0.1h3.3c0.3,0,0.3,0,0.1-0.1h0.6
									c0.1,0,0,0.1,0,0.1h1.2c0.3,0.1,0.4,0,0.6,0h0.1c-0.3-0.1,0,0-0.3,0h0.6 M191.8,390.3l-7.6-2.3c-0.1,0,0,0,0-0.1h0.6
									l7.7,2.3h-0.7 M168.3,383.3l-41.5-12.4c-0.1-0.1-0.3-0.1-0.1-0.3h0.3c0.1-0.1,0.6-0.1,0.7,0L169,383c0.3,0,0.3,0.1,0.1,0.1
									l-0.3,0.3h-0.6 M193.5,389.9h1.1c0.4-0.1,0.8,0,1.1,0.1c0.3,0,0.4,0.1,0.6,0.3H196c0-0.1-0.3-0.3-0.6-0.3h-1.5l1.4,0.4H195
									l-1.4-0.4l-0.3,0.3l1.4,0.4h-0.3l-1.4-0.4c-0.3,0.3-0.1,0.6,0.4,0.7h-0.3c-0.8-0.3-1-0.6-0.6-1h0.8 M196.6,387.4l-7.7-2.3
									h0.7l7.6,2.2L196.6,387.4 M173.1,380.4L131.6,368c-0.1,0-0.3-0.1-0.1-0.3h0.3c0.1,0,0.4-0.1,0.6,0l41.5,12.4
									c0.1,0,0.3,0.1,0.1,0.3H173.1 M197.9,387.1h0.7l1.1-0.3h1.1l0.6,0.3l-0.3,0.3l-0.6-0.4H199l1.2,0.4h-0.1l-1.4-0.4h-0.4
									l1.5,0.6h-0.3l-1.4-0.4c-0.3,0.3-0.1,0.4,0.4,0.7h0.8l-0.3,0.3h-0.8C197.5,387.8,197.3,387.6,197.9,387.1L197.9,387.1
									 M177.3,375.8l-38.1-11.5c-0.1,0-0.1-0.1,0-0.3l0.4-0.3h0.7l38.1,11.5c0.1,0,0.1,0.1,0,0.3l-0.4,0.3H177.3 M193.7,380.6
									l-14.2-1.5c0,0,0-0.1,0.3-0.3l0.4-0.3h0.4l14.2,4.3l-0.3,0.3h-0.4l-0.4,0.3 M207.7,387.4l-12-3.6h0.1l0.4-0.3h0.4l12,3.6
									h-0.1l-0.4,0.3c-0.1,0.1-0.4,0.3-0.4,0.1 M195.8,380.8c-0.6-0.1-0.7-0.6-0.3-0.7h0.3c0.4-0.3,1-0.3,1.5-0.1l15.2,4.6
									c0.6,0.1,0.7,0.4,0.3,0.6l-0.3,0.3c-0.6,0.3-1,0.3-1.5,0L195.8,380.8 M143.6,365c-0.6-0.1-0.6-0.4-0.1-0.7
									c0.6-0.3,1.2-0.4,1.8-0.3l13.1,4c0.6,0.1,0.6,0.4,0.1,0.7c-0.6,0.3-1.2,0.4-1.8,0.3L143.6,365 M160.3,370
									c-0.7-0.1-0.8-0.6-0.4-0.8c0.6-0.3,1.2-0.3,1.9-0.1l5.7,1.7c0.7,0.3,0.8,0.6,0.4,0.8c-0.6,0.3-1.2,0.4-1.9,0.3L160.3,370
									 M169.7,372.9c-0.7-0.3-0.8-0.6-0.4-0.8c0.6-0.3,1.2-0.4,1.9-0.1l5.8,1.7c0.7,0.1,0.8,0.6,0.4,0.8c-0.6,0.3-1.2,0.3-1.9,0.1
									L169.7,372.9 M178.3,375.4c-0.6-0.1-0.8-0.6-0.4-0.8c0.7-0.3,1.4-0.3,2.1-0.1l5.7,1.7c0.7,0.3,0.8,0.7,0.4,1
									c-0.6,0.3-1.2,0.3-1.9,0.1L178.3,375.4 M187.2,378.2c-0.6-0.3-0.7-0.6-0.3-0.8c0.6-0.3,1.2-0.4,1.9-0.3l5.4,1.7
									c0.6,0.1,0.7,0.6,0.3,0.8c-0.6,0.3-1.2,0.4-1.8,0.1L187.2,378.2 M214.2,382.6L214.2,382.6l-67-20.2
									c-0.4-0.1-0.6-0.3-0.3-0.4l0.6-0.4h1.1l67,20.2c0.4,0.1,0.6,0.3,0.3,0.6l-0.6,0.3L214.2,382.6 M189.4,370.8l-38-11.3
									c-0.3-0.1-0.3-0.3-0.1-0.4l0.4-0.3c0.3,0,0.6-0.1,0.7,0l38.1,11.5c0.3,0,0.3,0.1,0,0.3l-0.4,0.3
									C190,371,189.6,371,189.4,370.8 M205.9,375.7l-14.1-4.3h0.1l0.4-0.3h0.4l14.2,4.3h-0.1l-0.4,0.3H205.9 M219.8,379.8l-12-3.6
									l0.3-0.3l0.3-0.3h0.6l12,3.6c0,0.1-0.1,0.1-0.3,0.3l-0.4,0.3H219.8 M192.1,367.7l-36.4-11c-0.3,0-0.3-0.1-0.1-0.3l0.4-0.3
									h0.8L193,367c0.3,0.1,0.3,0.3,0.1,0.3l-0.4,0.3h-0.6 M193.6,351.9l-22.2-6.8c-0.1,0-0.1-0.1,0-0.1l0.4-0.3h0.6l22.2,6.6
									c0.1,0.1,0.1,0.1,0,0.3l-0.4,0.3H193.6 M246.8,367.7l-22.2-6.6c-0.1,0-0.1-0.1,0-0.3l0.4-0.3c0.1,0,0.4-0.1,0.6,0l22.2,6.6
									c0.1,0,0.1,0.1-0.1,0.3l-0.3,0.3C247.1,367.7,246.9,367.8,246.8,367.7 M196.2,350.2l-22.2-6.6c-0.1-0.1-0.1-0.1,0-0.3
									l0.4-0.3h0.6l22.2,6.6c0.1,0.1,0.1,0.3-0.1,0.3l-0.3,0.3H196.2 M249.4,366.1l-22.4-6.8V359h0.4c0.1-0.1,0.4-0.3,0.6-0.1
									l22.2,6.6c0.1,0,0.1,0.1-0.1,0.3l-0.4,0.3L249.4,366.1 M199,348.5l-22.2-6.8c-0.1,0-0.1-0.1,0-0.1l0.4-0.3h0.6l22.2,6.6
									c0.1,0.1,0.1,0.1-0.1,0.3l-0.3,0.3H199 M252.2,364.2l-22.4-6.6v-0.3l0.4-0.3c0.1,0,0.4-0.1,0.6,0l22.2,6.6
									c0.1,0,0,0.1-0.1,0.3l-0.4,0.3C252.4,364.2,252.1,364.3,252.2,364.2 M256.7,362l-11.3-3.5h0.3L257,362H256.7 M251.6,357.2
									c1.5-0.4,3-0.4,4.6,0l0,0c1.8,0.6,2.5,1.5,1.4,2.2c-1.7,0.7-3.6,0.8-5.3,0.3l0,0c-0.6-0.1-1.1-0.4-1.5-0.8s-0.4-1,0.3-1.4
									L251.6,357.2 M271.8,358.4l-92.6-27.5l-94.4,59.6l67,19.9c14.1,4.1,33.2,2.8,42.6-3l77.7-48.9"/>
								<path class="st10" d="M84.8,390.5l94.7-59.6l92.6,27.5l-77.7,48.9c-9.4,5.8-28.5,7.2-42.6,3L84.8,390.5 M272.5,358.4
									l-92.9-27.6h-0.1l-94.9,59.7h-0.1l67.3,20c14.2,4.1,33.4,2.8,43-3.2L272.5,358.4L272.5,358.4"/>
								<path class="st11" d="M165.4,402.8L165.4,402.8l1.4-0.4l1.8-0.3h-3.2 M170.4,403.3l1.5-0.3h3v0.3l-0.4,0.3h-4 M175.3,402.9
									c-0.1-0.1-0.3,0-0.3-0.1h-1.7l-1.5,0.3l-2.5,0.4h-1.4c-0.1,0-0.3,0-0.3-0.1h0.6c0.1,0,0.1,0,0.1-0.1l0,0H165
									c0-0.1,0-0.1,0.1-0.1h5.8c0.1-0.1,0.1-0.3,0-0.4l0,0h-2.6l-1.8,0.3l-1.5,0.6h5.7c0,0.1,0,0.1,0.1,0.1l0,0l0,0l1.9,0.3h3.7
									l-1.9-0.3h-1.8l-1.1-0.3h1.7c0.1,0,0.3,0,0.3-0.1l0,0c0.1-0.1,0-0.1-0.1-0.1h1.1C174.9,403.3,175.2,403.2,175.3,402.9
									c0.2,0,0.2-0.3,0.1-0.5h-0.1"/>
								<path class="st12" d="M174.9,342.9h-0.6l-0.4,0.3c-0.1,0.1-0.1,0.1,0,0.3l22.2,6.6h0.6l0.3-0.3c0.3,0,0.3-0.1,0.1-0.3
									L174.9,342.9"/>
								<path class="st12" d="M177.8,341.1h-0.6l-0.4,0.3c-0.1,0-0.1,0.1,0,0.1l22.2,6.8h0.6l0.3-0.3c0.3-0.1,0.3-0.1,0.1-0.3
									L177.8,341.1"/>
								<path class="st12" d="M172.3,344.6h-0.6l-0.4,0.3c-0.1,0-0.1,0.1,0,0.1l22.2,6.8h0.6l0.4-0.3c0.1-0.1,0.1-0.1,0-0.3
									L172.3,344.6"/>
								<path class="st12" d="M228.1,358.8c-0.1-0.1-0.4,0-0.6,0.1h-0.4v0.3l22.4,6.8h0.4l0.4-0.3c0.3-0.1,0.3-0.3,0.1-0.3
									L228.1,358.8"/>
								<path class="st12" d="M231,357c-0.1-0.1-0.4,0-0.6,0l-0.4,0.3v0.3l22.4,6.6c0,0.1,0.3,0,0.4,0l0.4-0.3
									c0.1-0.1,0.3-0.3,0.1-0.3L231,357"/>
								<path class="st12" d="M225.5,360.5c-0.1-0.1-0.4,0-0.6,0l-0.4,0.2c-0.1,0.1-0.1,0.3,0,0.3l22.2,6.6c0.1,0.1,0.3,0,0.6,0
									l0.3-0.3c0.3-0.1,0.3-0.3,0.1-0.3L225.5,360.5"/>
								<path class="st12" d="M156.8,356.1H156l-0.4,0.3c-0.1,0.1-0.1,0.3,0.1,0.3l36.3,10.9h0.7l0.4-0.3c0.1,0,0.1-0.1-0.1-0.3
									L156.8,356.1"/>
								<path class="st12" d="M152.4,358.8c-0.1-0.1-0.4,0-0.7,0l-0.4,0.3c-0.1,0.1-0.1,0.3,0.1,0.4l38,11.3c0.1,0.1,0.6,0.1,0.7,0
									l0.4-0.3c0.3-0.1,0.3-0.3,0-0.3L152.4,358.8"/>
								<path class="st12" d="M192.8,370.8h-0.4l-0.4,0.3h-0.1l14.1,4.3h0.6l0.4-0.3h0.1L192.8,370.8"/>
								<path class="st12" d="M208.9,375.5h-0.6l-0.3,0.3l-0.3,0.3l12,3.6h0.4l0.4-0.3c0.1-0.1,0.3-0.1,0.3-0.3L208.9,375.5"/>
								<path class="st12" d="M140.3,366.4h-0.7l-0.4,0.3c-0.1,0.1-0.1,0.3,0,0.3l38.1,11.5h0.7l0.4-0.3c0.1-0.1,0.1-0.3,0-0.3
									L140.3,366.4"/>
								<path class="st12" d="M180.6,378.4h-0.4l-0.4,0.3c-0.3,0.1-0.3,0.3-0.3,0.3l14.2,4.3l0.4-0.3h0.4l0.3-0.3L180.6,378.4"/>
								<path class="st12" d="M196.6,383.3h-0.4l-0.4,0.3h-0.1l12,3.6c0,0.1,0.3,0,0.4-0.1l0.4-0.3h0.1l-12-3.6"/>
								<path class="st12" d="M148.5,361.4h-1.1l-0.6,0.4c-0.3,0.1-0.1,0.3,0.3,0.4l67,20.3h1.1l0.6-0.3c0.3-0.3,0.1-0.4-0.3-0.6
									L148.5,361.4"/>
								<path class="st12" d="M132.4,370.3c-0.1-0.1-0.4,0-0.6,0h-0.3c-0.1,0.1,0,0.3,0.1,0.3l41.5,12.4h0.8c0.1-0.1,0-0.3-0.1-0.3
									L132.4,370.3"/>
								<path class="st13" d="M156.8,402.8h-0.4c-0.1,0,0,0,0,0.1l19.6,5.8h0.4l-19.6-5.8"/>
								<path class="st12" d="M189.6,387.4h-0.7l7.7,2.3h0.6L189.6,387.4"/>
								<path class="st12" d="M127.7,373.3c-0.1-0.1-0.6-0.1-0.7,0h-0.3c-0.1,0.1,0,0.1,0.1,0.3l41.5,12.4h0.6l0.3-0.3
									c0.1,0,0.1-0.1-0.1-0.1l-41.3-12.4"/>
								<path class="st12" d="M184.7,390.3h-0.6c0,0.1-0.1,0.1,0,0.1l7.6,2.3h0.7l-7.7-2.3"/>
								<path class="st12" d="M133.2,379.4L133.2,379.4c0.1,0-0.1,0,0,0.1h0.1c0,0.1,0,0.3,0.1,0.3l30,9.1h1c0.1,0,0-0.1-0.1-0.3
									L133.2,379.4 M122.3,376.4L122.3,376.4 M123,376.4L123,376.4c-0.1,0.1-0.3,0.1-0.4,0.1h-0.1c0,0.1-0.1,0.1-0.3,0.1h-0.1
									c-0.1,0-0.1,0.1,0.1,0.3l10.5,3.2c0-0.1-0.3-0.3-0.1-0.6h-0.1c-0.1-0.1-0.1-0.1-0.1-0.3h0.1L123,376.4"/>
								<path class="st12" d="M179.9,393.4h-0.4c-0.1,0-0.1,0-0.1,0.1l0,0l7.6,2.3h0.7l-7.7-2.3"/>
								<polyline class="st7" points="246,358.4 245.8,358.4 245.5,358.5 245.7,358.5 257,362 257.2,362 257.3,361.9 257.3,361.9 
									246,358.4 								"/>
								<path class="st14" d="M256.5,357.2c-1.5-0.4-3-0.4-4.6,0h1.2c0.6,0.1,1.2,0.6,1.7,1c0.4,0.1-3.7,0.6-1.2,1.2h0.7
									c0.4,0.1,0.1,0.3-0.3,0.3l-1.4-0.3l0,0c-0.6-0.1-1.1-0.4-1.5-0.8s-0.4-1,0.3-1.4s-0.7,1-0.3,1.4s1,0.7,1.5,0.8l0,0
									c1.7,0.6,3.6,0.4,5.3-0.3c1.1-0.7,0.4-1.7-1.4-2.2l0,0"/>
								<g>
									<g>
										<g>
											<g>
												<g>
													<defs>
														<path id="SVGID_6_" d="M257.8,359.4c-1.7,0.7-3.6,0.8-5.3,0.3c-0.6-0.1-1.1-0.4-1.5-0.8s-0.4-1,0.3-1.4
															c1.7-0.7,3.5-0.8,5.1-0.3C258.3,357.7,259,358.7,257.8,359.4"/>
													</defs>
													<clipPath id="SVGID_7_">
														<use xlink:href="#SVGID_6_"  style="overflow:visible;"/>
													</clipPath>
													<g class="st15">
														<path class="st7" d="M253.1,357.3h-1.2l-0.6,0.3c-0.7,0.4-0.7,1-0.3,1.4s1,0.7,1.5,0.8l0,0l1.4,0.3
															c0.4,0,0.7-0.1,0.3-0.3h-0.7c-2.5-0.7,1.7-1.1,1.2-1.2c-0.4-0.4-1.1-0.8-1.7-1"/>
													</g>
												</g>
											</g>
										</g>
									</g>
								</g>
								<path class="st12" d="M200.8,389.8h-1.1l-1.1,0.3h-0.8c-0.4,0.4-0.3,0.7,0.6,1h0.8l0.3-0.3h-0.8c-0.6-0.3-0.7-0.4-0.4-0.7
									l1.4,0.4h0.3l-1.5-0.6h0.4l1.4,0.4h0.1l-1.2-0.4h1.5l0.6,0.4l0.3-0.3L200.8,389.8L200.8,389.8"/>
								<path class="st12" d="M195.7,392.7c-0.3-0.1-0.7-0.3-1.1-0.1h-1.9c-0.4,0.4-0.3,0.7,0.6,1h0.3c-0.6-0.1-0.7-0.4-0.4-0.7
									l1.4,0.4h0.3l-1.4-0.4l0.3-0.3l1.4,0.4h0.3l-1.4-0.4h1.5c0.3,0,0.6,0.1,0.6,0.3h0.3c-0.1-0.1-0.3-0.3-0.6-0.3"/>
								<path class="st12" d="M190.4,395.8h-1.1l-1.1,0.3h-0.8c-0.4,0.3-0.1,0.7,0.6,0.8l1,0.3v-0.3h-0.8c-0.6-0.1-0.6-0.3-0.3-0.6
									l1.2,0.4l0.3-0.3L188,396h0.3l1.4,0.4h0.3l-1.4-0.4h1.7l0.6,0.3h0.3l-0.7-0.3"/>
								<polyline class="st16" points="130.6,382.9 130.6,382.9 130.6,382.9 130.7,382.9 130.6,382.9 								"/>
								<path class="st16" d="M131,382.6L131,382.6c0,0.1-0.1,0.1,0,0.1l0,0"/>
								<polyline class="st16" points="132.9,379.3 132.9,379.3 132.9,379.3 								"/>
								<polyline class="st16" points="130.2,377.2 130.2,377.2 130.2,377.2 								"/>
								<polyline class="st16" points="129.6,376.8 129.6,376.8 129.6,376.8 								"/>
								<polyline class="st16" points="132.9,379.1 132.9,379.3 132.9,379.1 								"/>
								<polyline class="st16" points="131.4,382.3 131.4,382.3 131.4,382.3 131.4,382.3 								"/>
								<polyline class="st16" points="133.5,380.2 133.5,380.2 133.5,380.2 133.5,380.2 								"/>
								<polyline class="st16" points="133.3,381.1 133.1,381.1 133.2,381.1 133.3,381.1 								"/>
								<polyline class="st16" points="132.1,382.2 132.2,382.3 132.1,382.2 								"/>
								<polyline class="st16" points="133.5,379.7 133.3,379.7 133.5,379.7 								"/>
								<polyline class="st16" points="128.8,383.3 128.8,383.4 128.8,383.3 								"/>
								<polyline class="st16" points="130.9,383 130.9,383 130.9,383 130.9,383 								"/>
								<polyline class="st16" points="128.1,376.2 128.1,376.2 128.1,376.2 								"/>
								<path class="st16" d="M114,378L114,378c0,0,0,0,0-0.1l0,0"/>
								<polyline class="st16" points="131.4,382.2 131.4,382.2 131.4,382.2 								"/>
								<polyline class="st16" points="114.1,378.2 114.1,378.2 114.1,378.2 								"/>
								<polyline class="st16" points="124.1,375.8 124.1,375.8 124.1,375.8 								"/>
								<polyline class="st16" points="127,376.2 127,376.2 127,376.2 								"/>
								<polyline class="st16" points="122.4,375.8 122.4,375.8 122.4,375.8 122.4,375.8 								"/>
								<polyline class="st16" points="120.9,375.9 120.9,375.9 120.9,375.9 120.9,375.9 								"/>
								<path class="st16" d="M125.1,384.1L125.1,384.1"/>
								<polyline class="st16" points="131.4,382.2 131.4,382.3 131.4,382.3 131.4,382.2 								"/>
								<polyline class="st16" points="122.6,376.4 122.3,376.4 122.6,376.4 								"/>
								<polyline class="st16" points="115.7,382.3 115.7,382.3 115.7,382.3 								"/>
								<polyline class="st16" points="121.6,376.4 121.5,376.4 121.5,376.4 121.6,376.4 								"/>
								<polyline class="st16" points="124.9,384.1 124.9,384.1 124.9,384.1 								"/>
								<path class="st16" d="M121.6,384.7L121.6,384.7 M114.3,381.3L114.3,381.3 M114.4,381.2c-0.1,0-0.1,0-0.1,0.1h0.1 M114,379.7
									L114,379.7 M126.8,376.8L126.8,376.8 M130.4,377.2L130.4,377.2 M127.5,376.2L127.5,376.2 M120.9,384.2L120.9,384.2
									 M121.2,384.2L121.2,384.2 M128.8,376.5H128c0.3,0,0-0.1,0.3,0h-0.1c-0.1,0-0.3,0.1-0.6,0h-1.2c0,0,0.1-0.1,0-0.1h-0.6
									c0.1,0.1,0.1,0.1-0.1,0.1h-3.5c0.1,0.1-0.1,0.1,0,0.1h-2.5c-0.1-0.1-0.3,0-0.6,0h-0.6l-0.6,0.3c0-0.1,0,0-0.1-0.1
									s0.1,0.1,0,0.1h-0.3c-0.1-0.1-0.1,0-0.3,0l0,0l-0.6,0.3h-0.4c0,0.1-0.1,0.3-0.3,0.3l0,0v-0.3c0,0.1-0.3,0.1-0.3,0.3h0.1
									c0,0.1-0.1,0.3-0.3,0.3l0,0h0.1c-0.3,0-0.4,0.3-0.8,0.1s-0.6,0.4-0.8,0.6h-0.7c0.1,0,0.1,0,0,0.1h0.3c0,0.1-0.4,0.1-0.4,0.3
									l0,0c-0.1,0-0.3,0.3-0.1,0.4l0,0h-0.1c-0.1,0.1,0.1,0.4-0.1,0.6l0,0c0,0.1,0.1,0.1,0,0.1h-0.3c-0.1,0.3,0.3,0.3,0.3,0.6
									c-0.1,0-0.3,0.1-0.3,0.3l0,0l0,0l0.6,0.6c-0.3,0.1,0.1,0.4,0.3,0.7h0.3c0,0.1,0.3,0.1,0.1,0.1h-0.1c-0.1,0.1,0,0.1,0.1,0.3
									h0.3c-0.1,0.3,0.8,0.4,0.7,0.6h0.3l0.7,0.4h0.4l0.7,0.4h2.8c0.1,0,0.1,0,0.1,0.1s0.3-0.1,0.3,0h0.3c0,0.1,0.1,0.1,0,0.1h1.4
									c0.1,0,0.3,0,0.1-0.1l0,0l0.6,0.3h1c0.3,0,0.7,0,0.7-0.1h0.3c-0.1,0-0.1,0-0.1,0.1l0,0h0.1c0.8,0.1,1.1-0.3,1.8-0.3l0,0
									l2.5-0.3h0.4c0.1-0.1,0.8,0,1-0.3h1.1c0.1,0,0.1-0.1,0-0.3h-1c-0.1,0-0.1,0-0.1,0.1l0,0h-0.1c-0.1,0-0.3,0-0.3,0.1l0,0
									c0,0.1-0.3,0.1-0.1,0.1h-0.6v0.3h-0.4l-0.6,0.3h-0.6c0.1,0.1-0.1,0.1-0.1,0.3l0,0c-0.3-0.1,0-0.1-0.1-0.3
									c-0.1-0.1-0.3,0.1-0.1,0.1h-0.3c0.1,0.1,0,0-0.1,0.1h-0.1c-0.1,0-0.1,0-0.1,0.1l0,0l0,0c-0.1-0.1,0-0.1,0-0.1v0.1h-1.2
									c-0.1,0-0.1,0.1-0.3,0h-0.6c-0.1,0,0.3,0,0.1-0.1h0.1c-0.1-0.1,0.3,0,0-0.1s-0.3,0-0.7,0s0.1,0,0,0.1h-5.4
									c-0.1,0-0.1,0-0.1-0.1l0,0h-0.4c-0.4-0.3-1.1-0.3-1.1-0.6h-0.3c-0.1,0-0.1,0-0.1-0.1l0,0h-0.3c0-0.1,0.1-0.1-0.1-0.3h-0.6
									c-0.3-0.1-0.3-0.3-0.1-0.3h-0.4c0-0.1-0.1-0.3-0.3-0.3l0,0h0.1l-0.4-1.5c0,0.1-0.1,0.1-0.3,0.1h0.1c0,0,0.1,0,0-0.1l0,0
									v-0.3c-0.1,0-0.1,0-0.1-0.1h-0.3c0.1-0.1,0.1-0.3,0.1-0.4l0,0v-0.4l0,0c-0.1-0.3,0.6-0.4,0.4-0.6l0,0V379l0,0
									c0,0.1,0,0.1,0.1,0s0.3-0.3,0.3-0.4s0.4-0.4,1-0.4h-0.1l2.1-0.7c0.1,0-0.3-0.1,0.3-0.1l0,0l1.7-0.4h0.4c0.1,0,0.3-0.1,0.4,0
									h-0.1c0.1,0,0.4,0,0.3-0.1h0.7c0.1-0.1,0.4,0,0.4-0.1h0.3c0.1,0,0.3,0,0.3-0.1h0.1c0.1,0,0.3,0,0.3-0.1h0.4
									c0.1,0,0.1-0.1,0.3,0h3.3c-0.1-0.1,0.4-0.1,0.4-0.1s0.3,0.1,0,0.3h1.8c-0.3,0.1,0,0.1-0.1,0.1h1c0,0,0.3,0,0.1,0.1h0.4
									c0,0.1,0,0.1,0.1,0.1h0.3l0.6,0.3h-0.4l0.8,0.4h0.1l0.4,0.3h-0.1c0,0.1,0,0.1,0.1,0.3h0.1c-0.1,0.3,0.1,0.4,0.1,0.6
									c0,0.1,0.1,0.1,0,0.1h0.1c0,0.1,0.3,0.3,0.1,0.3h-0.3c0.4,0.1,0.1,0.1,0.3,0.3h-0.1c0-0.1,0,0-0.1,0h-0.3
									c0.1,0.1-0.1,0.1,0,0.1l0,0c0.1,0.1-0.4,0.1-0.3,0.4c0.1,0.3,0.1,0.1,0.1,0.3H132c-0.1,0-0.3,0-0.3,0.1h-0.2
									c0,0,0.1,0,0,0.1h-0.3c-0.1,0-0.1,0-0.1,0.1l0,0l0,0c0-0.1,0.1-0.1,0.3-0.1l0,0c0.3,0,0.1-0.1,0.3-0.3h0.3
									c0.1,0,0,0,0.1-0.1h0.3c-0.1,0-0.1,0-0.1-0.1l0,0h0.6c0.3,0.1,0,0,0.1-0.1c0.1,0,0.1,0,0.1,0.1l0,0l0,0
									c-0.1-0.1,0.1-0.1,0.1-0.3l0,0c-0.1,0,0-0.1,0-0.3c0.1-0.1,0.1-0.1,0.1-0.3l0,0V379h0.3c-0.1,0-0.1-0.1-0.1-0.3h-0.1
									c-0.1-0.1,0.1-0.1,0.1-0.1h-0.4c-0.3-0.1-0.1-0.4-0.4-0.6h0.1l-0.4-0.3l0,0c0-0.1,0-0.1-0.1-0.1l0,0h-0.1c0.1,0,0-0.1,0-0.1
									h-1c-0.1,0,0.1,0.1,0,0.1c-0.1-0.1-0.1-0.1-0.1-0.3h-1c-0.1,0,0-0.1,0.1-0.1l0,0c-0.1,0-0.1,0-0.1,0.1l-0.4-0.3h-0.6
									c0,0,0.1-0.1,0-0.1h-0.3"/>
								<polyline class="st16" points="121.7,384.5 121.7,384.5 121.7,384.5 121.7,384.5 121.7,384.5 								"/>
								<polyline class="st16" points="132.9,379.3 132.9,379.3 132.9,379.3 132.9,379.3 								"/>
								<polyline class="st16" points="115.9,382.4 115.9,382.4 116.1,382.4 115.9,382.4 								"/>
								<polyline class="st16" points="132.7,380.4 132.7,380.4 132.7,380.4 								"/>
								<polyline class="st16" points="132.7,380.8 132.5,380.9 132.7,380.8 								"/>
								<polyline class="st16" points="132.5,381.2 132.5,381.2 132.4,381.2 132.5,381.2 132.5,381.2 								"/>
								<polyline class="st16" points="126.7,376.6 126.7,376.6 126.7,376.6 								"/>
								<polyline class="st16" points="130,377.5 129.9,377.5 130,377.5 								"/>
								<polyline class="st16" points="122.6,376.4 122.6,376.4 122.6,376.4 122.6,376.4 								"/>
								<polyline class="st16" points="129.7,377.3 129.9,377.5 129.7,377.3 								"/>
								<polyline class="st16" points="131,382.4 131,382.6 131,382.6 131,382.4 								"/>
								<polyline class="st16" points="131,382.6 131,382.6 131,382.6 								"/>
								<polyline class="st16" points="131,382.6 131,382.6 131,382.6 								"/>
								<polyline class="st16" points="131.5,382.2 131.5,382.2 131.5,382.2 								"/>
								<polyline class="st16" points="131.7,382 131.5,382 131.5,382.2 131.7,382 								"/>
								<path class="st16" d="M132.9,381.6L132.9,381.6"/>
								<path class="st16" d="M133.3,381.2L133.3,381.2"/>
								<polyline class="st16" points="132.5,378.3 132.4,378.4 132.5,378.3 								"/>
								<polyline class="st16" points="131,378 131,378.2 131.1,378.2 131,378 								"/>
								<polyline class="st16" points="131.3,377.5 131.4,377.6 131.5,377.6 131.3,377.5 								"/>
								<path class="st16" d="M121.2,375.8L121.2,375.8"/>
								<polyline class="st16" points="116.8,376.6 116.5,376.8 116.8,376.6 								"/>
								<polyline class="st16" points="114.1,382.4 114,382.3 114.1,382.4 114.1,382.4 								"/>
								<polyline class="st17" points="130.6,380 126.8,380.2 123,380.4 119.1,380.9 119.8,379 118.4,378.6 118,379.8 118,381.2 
									119,381.5 122.1,381.3 125.3,381.1 128.2,380.5 131.7,380.5 130.6,380 								"/>
								<path class="st12" d="M167.5,370.7l-5.7-1.7c-0.7-0.1-1.4-0.1-1.9,0.1c-0.4,0.3-0.3,0.7,0.4,0.8l5.7,1.8
									c0.7,0.1,1.4,0,1.9-0.3C168.3,371.3,168.2,371,167.5,370.7"/>
								<path class="st12" d="M177,373.6l-5.8-1.7c-0.7-0.3-1.4-0.1-1.9,0.1c-0.4,0.3-0.3,0.6,0.4,0.8l5.8,1.7
									c0.7,0.1,1.4,0.1,1.9-0.1C177.8,374.2,177.7,373.7,177,373.6"/>
								<path class="st12" d="M185.6,376.1l-5.7-1.7c-0.7-0.1-1.4-0.1-2.1,0.1c-0.4,0.3-0.1,0.7,0.4,0.8l5.8,1.8
									c0.7,0.1,1.4,0.1,1.9-0.1C186.4,376.8,186.3,376.4,185.6,376.1"/>
								<path class="st12" d="M194.3,378.7l-5.4-1.7c-0.7-0.1-1.4,0-1.9,0.3c-0.4,0.3-0.3,0.6,0.3,0.8l5.5,1.5
									c0.6,0.3,1.2,0.1,1.8-0.1C195,379.3,194.8,378.9,194.3,378.7"/>
								<path class="st12" d="M158.4,368.1l-13.1-4c-0.6-0.1-1.2,0-1.8,0.3c-0.4,0.3-0.4,0.6,0.1,0.7l13.1,4c0.6,0.1,1.2,0,1.8-0.3
									C158.9,368.5,158.9,368.2,158.4,368.1"/>
								<path class="st12" d="M212.5,384.2l-15.2-4.6c-0.6-0.1-1.1-0.1-1.5,0.1h-0.3c-0.4,0.1-0.3,0.6,0.3,0.7l15.2,4.4
									c0.6,0.3,1,0.3,1.5,0l0.3-0.3C213.2,384.5,213.1,384.2,212.5,384.2"/>
							</g>
						</g>
					</g>
				</g>
			</g>
		</g>
	</g>
	
		<linearGradient id="SVGID_8_" gradientUnits="userSpaceOnUse" x1="165.4" y1="-2014.0334" x2="165.4" y2="-2244.303" gradientTransform="matrix(1 0 0 -1 0 -1831.3071)">
		<stop  offset="0.21" style="stop-color:#E11E19"/>
		<stop  offset="0.29" style="stop-color:#E32A2D;stop-opacity:0.86"/>
		<stop  offset="0.58" style="stop-color:#E8556F;stop-opacity:0.4"/>
		<stop  offset="0.78" style="stop-color:#EC7099;stop-opacity:0.11"/>
		<stop  offset="0.88" style="stop-color:#ED7AA9;stop-opacity:0"/>
	</linearGradient>
	<polyline class="st18" points="172.3,164.1 117,368.9 213.8,395.2 	"/>
	
		<linearGradient id="SVGID_9_" gradientUnits="userSpaceOnUse" x1="31.5" y1="-2119.5571" x2="161.7" y2="-2119.5571" gradientTransform="matrix(1 0 0 -1 0 -1831.3071)">
		<stop  offset="0" style="stop-color:#FFFFFF"/>
		<stop  offset="0.32" style="stop-color:#F2F4F6"/>
		<stop  offset="0.91" style="stop-color:#D1D9DF"/>
		<stop  offset="0.96" style="stop-color:#CED6DD"/>
	</linearGradient>
	<path class="st19" d="M52.8,163.6l-17,146.5l-4.3,73.6l118.7,29.2L161.7,181L52.8,163.6z M104.3,378.3l-50.7-10.9
		c-5.7-6.6-7.6-15.8-5.4-24.2c3.6-14.9,35.9-114.1,35.9-114.1s3.6-7.9,11.3-8.2s11.1,9.9,11.1,9.9l12,130
		C118.6,360.9,116.5,375.1,104.3,378.3z"/>
	
		<linearGradient id="SVGID_10_" gradientUnits="userSpaceOnUse" x1="150.2" y1="-2127.1572" x2="216" y2="-2127.1572" gradientTransform="matrix(1 0 0 -1 0 -1831.3071)">
		<stop  offset="0" style="stop-color:#FFFFFF"/>
		<stop  offset="0.26" style="stop-color:#FAFBFC"/>
		<stop  offset="0.56" style="stop-color:#ECEFF2"/>
		<stop  offset="0.88" style="stop-color:#D5DCE2"/>
		<stop  offset="0.96" style="stop-color:#CED6DD"/>
	</linearGradient>
	<polygon class="st20" points="150.2,412.8 166.6,416.7 207.8,237.2 216,200.6 213.5,175 161.9,181 	"/>
	
		<linearGradient id="SVGID_11_" gradientUnits="userSpaceOnUse" x1="52.7" y1="-1994.5571" x2="287.1" y2="-1994.5571" gradientTransform="matrix(1 0 0 -1 0 -1831.3071)">
		<stop  offset="0" style="stop-color:#FFFFFF"/>
		<stop  offset="0.32" style="stop-color:#F2F4F6"/>
		<stop  offset="0.91" style="stop-color:#D1D9DF"/>
		<stop  offset="0.96" style="stop-color:#CED6DD"/>
	</linearGradient>
	<path class="st21" d="M174.1,145.5l-21,4.3c0,0-0.4-1.4-3.2-1.4s-13.1,1.4-14.2,2.5c-1.1,1.1-42.3,7-42.3,7c-1.4-0.6-2.8-0.8-4.3-1
		c-1.8,0-12.2,2.1-12.2,2.1l-1,1.4l-23.2,2.9L162.3,181l124.8-19.1L174.1,145.5z M160.1,164.4c-2.5,0-14.5-2.9-14.5-2.9l23.5-3.6
		l22.7,3.6l-21.3,3.9C168.7,165.8,162.6,164.4,160.1,164.4z"/>
	
		<linearGradient id="SVGID_12_" gradientUnits="userSpaceOnUse" x1="163.5" y1="-2029.5571" x2="287.1" y2="-2029.5571" gradientTransform="matrix(1 0 0 -1 0 -1831.3071)">
		<stop  offset="0" style="stop-color:#FFFFFF"/>
		<stop  offset="0.3" style="stop-color:#FCFCFD"/>
		<stop  offset="0.56" style="stop-color:#F1F4F6"/>
		<stop  offset="0.79" style="stop-color:#E0E5EA"/>
		<stop  offset="0.96" style="stop-color:#CED6DD"/>
	</linearGradient>
	<polygon class="st22" points="163.5,180.3 208.2,234.3 260.1,226.2 287.1,162.2 	"/>
	<path class="st3" d="M47.4,219.2h0.3c0.1,0,0.1,0,0.1,0.1l0,0h-0.4C47.4,219.3,47.4,219.2,47.4,219.2z"/>
	<path class="st3" d="M83.6,225.7c-0.3-0.1-0.4-0.3-0.4-0.6l0,0c0.1-0.3,0.3-0.4,0.6-0.4l0,0c0.3,0,0.4,0.3,0.4,0.6l0,0
		C84,225.6,83.9,225.7,83.6,225.7z M81.8,225.3c-0.3,0-0.4-0.1-0.4-0.4l0,0l0,0c0-0.3,0.3-0.6,0.6-0.4l0,0c0.3,0,0.4,0.3,0.4,0.6
		l0,0L81.8,225.3L81.8,225.3z M80,225.1c-0.3,0-0.4-0.3-0.4-0.6l0,0c0-0.3,0.3-0.4,0.6-0.4l0,0c0.3,0.1,0.4,0.3,0.4,0.6l0,0
		C80.4,224.9,80.3,225.1,80,225.1z M78.2,224.8c-0.3-0.1-0.4-0.3-0.4-0.6l0,0c0-0.3,0.3-0.4,0.6-0.4l0,0c0.3,0,0.4,0.3,0.3,0.6l0,0
		C78.6,224.6,78.5,224.8,78.2,224.8L78.2,224.8z M76.3,224.4c-0.1,0-0.4-0.3-0.3-0.4l0,0c0-0.3,0.3-0.4,0.6-0.4l0,0
		c0.3,0,0.4,0.3,0.3,0.6l0,0l0,0c0,0.1-0.1,0.3-0.4,0.3L76.3,224.4L76.3,224.4z M74.5,224.1c-0.3,0-0.4-0.3-0.3-0.6l0,0l0,0
		c0-0.3,0.3-0.4,0.4-0.3l0,0c0.3,0,0.6,0.3,0.4,0.4l0,0c0,0.3-0.1,0.4-0.4,0.4C74.6,224.1,74.6,224.1,74.5,224.1L74.5,224.1
		L74.5,224.1z M72.7,223.8c-0.3-0.1-0.4-0.3-0.3-0.6l0,0c0-0.3,0.1-0.4,0.4-0.4l0,0l0,0c0.3,0.1,0.4,0.3,0.4,0.6l0,0
		C73.2,223.7,73.1,223.8,72.7,223.8C72.8,223.8,72.8,223.8,72.7,223.8L72.7,223.8z M70.9,223.4c-0.3,0-0.4-0.1-0.4-0.4l0,0l0,0
		c0.1-0.3,0.3-0.4,0.6-0.4l0,0c0.3,0,0.4,0.3,0.4,0.6l0,0l-0.4,0.3L70.9,223.4L70.9,223.4z M69.1,223.1c-0.3,0-0.4-0.3-0.4-0.6l0,0
		c0.1-0.3,0.3-0.4,0.6-0.3l0,0c0.3,0,0.4,0.1,0.4,0.4l0,0l0,0c0,0.3-0.1,0.4-0.4,0.4l0,0L69.1,223.1L69.1,223.1z M67.3,222.8
		c-0.3-0.1-0.4-0.3-0.4-0.6l0,0c0.1-0.3,0.3-0.4,0.6-0.4l0,0c0.3,0.1,0.4,0.3,0.4,0.6l0,0C67.7,222.7,67.6,222.8,67.3,222.8z
		 M65.5,222.4c-0.3,0-0.4-0.1-0.4-0.4l0,0l0,0c0-0.3,0.3-0.4,0.6-0.4l0,0c0.3,0,0.4,0.3,0.4,0.6l0,0L65.5,222.4L65.5,222.4z
		 M63.7,222.2c-0.3,0-0.4-0.3-0.4-0.6l0,0c0-0.3,0.3-0.4,0.6-0.3l0,0c0.3,0,0.4,0.1,0.4,0.4l0,0l0,0C64.1,222,64,222.2,63.7,222.2
		L63.7,222.2z M61.9,221.9c-0.3-0.1-0.4-0.3-0.4-0.6l0,0c0-0.3,0.3-0.4,0.6-0.4l0,0c0.3,0.1,0.4,0.3,0.3,0.6l0,0
		C62.3,221.7,62.2,221.9,61.9,221.9L61.9,221.9z M60,221.5c-0.1,0-0.4-0.3-0.3-0.4l0,0c0-0.3,0.3-0.4,0.6-0.4l0,0
		c0.3,0,0.4,0.3,0.3,0.6l0,0l0,0c0,0.1-0.1,0.3-0.4,0.3H60V221.5z M58.2,221.2c-0.3,0-0.4-0.3-0.3-0.6l0,0l0,0
		c0-0.3,0.3-0.4,0.6-0.3l0,0c0.1,0,0.4,0.3,0.3,0.4l0,0c0,0.3-0.1,0.4-0.4,0.4l0,0L58.2,221.2L58.2,221.2z M56.4,220.9
		c-0.3-0.1-0.4-0.3-0.3-0.6l0,0c0-0.3,0.1-0.4,0.4-0.4l0,0l0,0c0.3,0.1,0.4,0.3,0.4,0.6l0,0c0,0.3-0.1,0.4-0.4,0.4
		C56.5,220.9,56.5,220.9,56.4,220.9L56.4,220.9z M54.6,220.5c-0.3,0-0.4-0.1-0.4-0.4l0,0l0,0c0.1-0.3,0.3-0.4,0.6-0.4l0,0
		c0.3,0,0.4,0.3,0.4,0.6l0,0l-0.4,0.4L54.6,220.5L54.6,220.5z M52.8,220.2c-0.3,0-0.4-0.3-0.4-0.6l0,0c0.1-0.3,0.3-0.4,0.6-0.3l0,0
		c0.3,0,0.4,0.1,0.4,0.4l0,0l0,0c0,0.3-0.1,0.4-0.4,0.4l0,0h-0.2C52.8,220.1,52.8,220.2,52.8,220.2z M51,219.9
		c-0.3-0.1-0.4-0.3-0.4-0.6l0,0c0.1-0.3,0.3-0.4,0.6-0.4l0,0c0.3,0.1,0.4,0.3,0.4,0.6l0,0l-0.4,0.4C51.1,219.9,51,219.9,51,219.9z
		 M49.2,219.5c-0.3,0-0.4-0.1-0.4-0.4l0,0l0,0c0-0.3,0.3-0.4,0.6-0.4l0,0c0.3,0,0.4,0.3,0.4,0.6l0,0
		C49.6,219.4,49.5,219.7,49.2,219.5L49.2,219.5L49.2,219.5z"/>
	<path class="st3" d="M85.5,226h-0.4v-0.6h1v0.6H85.5z"/>
	<path class="st3" d="M38.3,307.4h-0.4v-0.3h0.8v0.3H38.3z"/>
	<path class="st3" d="M58,310.9c-0.3,0-0.4-0.3-0.3-0.6l0,0l0,0c0-0.3,0.3-0.4,0.6-0.3l0,0l0,0c0.3,0,0.4,0.3,0.3,0.6l0,0l0,0
		c0,0.1-0.1,0.3-0.4,0.3H58z M56.2,310.6c-0.3,0-0.4-0.3-0.3-0.6l0,0l0,0c0-0.3,0.3-0.4,0.6-0.4l0,0c0.1,0.1,0.4,0.3,0.3,0.6l0,0
		c0,0.3-0.1,0.4-0.4,0.4l0,0H56.2z M54.4,310.3c-0.3-0.1-0.4-0.3-0.3-0.6l0,0c0-0.3,0.1-0.4,0.4-0.4l0,0l0,0c0.3,0,0.4,0.3,0.4,0.6
		l0,0c0,0.3-0.1,0.4-0.4,0.4C54.6,310.3,54.6,310.3,54.4,310.3L54.4,310.3z M52.6,309.9c-0.3,0-0.4-0.3-0.4-0.6l0,0
		c0.1-0.1,0.4-0.4,0.6-0.3l0,0c0.3,0,0.4,0.3,0.4,0.6l0,0c0,0.1-0.3,0.3-0.4,0.3C52.8,309.9,52.6,309.9,52.6,309.9z M50.8,309.6
		c-0.3,0-0.4-0.3-0.4-0.6l0,0c0.1-0.3,0.3-0.4,0.6-0.4l0,0c0.3,0.1,0.4,0.3,0.4,0.6l0,0c0,0.3-0.1,0.4-0.4,0.4l0,0H50.8z M49,309.3
		c-0.3-0.1-0.4-0.3-0.4-0.6l0,0c0.1-0.3,0.3-0.4,0.6-0.4l0,0c0.3,0,0.4,0.3,0.4,0.6l0,0c0,0.3-0.1,0.4-0.4,0.4l0,0H49z M47.3,308.9
		c-0.3,0-0.4-0.3-0.4-0.6l0,0c0-0.3,0.3-0.4,0.6-0.3l0,0l0,0c0.3,0,0.4,0.3,0.4,0.6l0,0L47.3,308.9z M45.5,308.7
		c-0.3,0-0.4-0.3-0.4-0.6l0,0c0-0.3,0.3-0.4,0.6-0.4l0,0c0.3,0.1,0.4,0.3,0.4,0.6l0,0C45.9,308.5,45.7,308.7,45.5,308.7z
		 M43.7,308.4c-0.3-0.1-0.4-0.3-0.4-0.6l0,0c0-0.3,0.3-0.4,0.6-0.4l0,0c0.3,0,0.4,0.3,0.3,0.6l0,0C44.1,308.2,43.9,308.4,43.7,308.4
		L43.7,308.4z M41.9,308c-0.3,0-0.6-0.3-0.4-0.6l0,0c0-0.3,0.3-0.4,0.6-0.3l0,0l0,0c0.3,0,0.4,0.3,0.3,0.6l0,0l0,0
		C42.3,307.8,42.1,308,41.9,308z M39.9,307.7c-0.3,0-0.4-0.3-0.3-0.6l0,0l0,0c0-0.3,0.3-0.4,0.6-0.4l0,0c0.1,0.1,0.4,0.4,0.3,0.6
		l0,0c0,0.3-0.1,0.4-0.4,0.4l0,0H39.9z"/>
	<path class="st3" d="M108.1,230.2L108.1,230.2z"/>
	<path class="st3" d="M144.3,236.5c-0.3,0-0.4-0.1-0.4-0.4l0,0l0,0c0-0.3,0.3-0.6,0.6-0.4l0,0c0.3,0,0.4,0.3,0.3,0.6l0,0
		C144.7,236.4,144.5,236.5,144.3,236.5L144.3,236.5z M142.5,236.2c-0.3,0-0.6-0.3-0.4-0.6l0,0c0-0.3,0.3-0.4,0.6-0.4l0,0
		c0.1,0.1,0.4,0.4,0.3,0.6l0,0C142.9,236.1,142.7,236.2,142.5,236.2L142.5,236.2z M140.5,236c-0.1-0.1-0.4-0.3-0.3-0.6l0,0
		c0-0.3,0.3-0.4,0.6-0.4l0,0c0.3,0,0.4,0.3,0.3,0.6l0,0l0,0c0,0.3-0.1,0.4-0.4,0.4H140.5L140.5,236z M138.7,235.6
		c-0.1,0-0.4-0.3-0.3-0.4l0,0c0-0.3,0.1-0.4,0.4-0.4l0,0l0,0c0.3,0,0.4,0.3,0.4,0.6l0,0l-0.4,0.3L138.7,235.6L138.7,235.6z
		 M136.9,235.3c-0.3,0-0.4-0.3-0.3-0.6l0,0c0-0.3,0.3-0.4,0.4-0.3l0,0c0.3,0,0.4,0.1,0.4,0.4l0,0l0,0c0,0.3-0.1,0.4-0.4,0.4l0,0
		L136.9,235.3L136.9,235.3z M135.1,235c-0.3-0.1-0.4-0.3-0.4-0.6l0,0c0.1-0.3,0.3-0.4,0.6-0.4l0,0c0.3,0,0.4,0.3,0.4,0.6l0,0
		c0,0.3-0.1,0.4-0.4,0.4H135.1L135.1,235z M133.3,234.6c-0.3,0-0.4-0.1-0.4-0.4l0,0l0,0c0.1-0.3,0.3-0.4,0.6-0.4l0,0
		c0.3,0,0.4,0.3,0.4,0.6l0,0C133.9,234.4,133.6,234.6,133.3,234.6L133.3,234.6L133.3,234.6z M131.5,234.3c-0.3,0-0.4-0.3-0.4-0.6
		l0,0c0-0.3,0.3-0.4,0.6-0.3l0,0c0.3,0,0.4,0.1,0.4,0.4l0,0l0,0C132,234.2,131.8,234.3,131.5,234.3L131.5,234.3z M129.7,234
		c-0.3-0.1-0.4-0.3-0.4-0.6l0,0c0-0.3,0.3-0.4,0.6-0.4l0,0c0.3,0.1,0.4,0.3,0.4,0.6l0,0C130.2,233.9,130,234,129.7,234z M128,233.6
		c-0.3,0-0.4-0.1-0.4-0.4l0,0l0,0c0-0.3,0.3-0.4,0.6-0.4l0,0c0.3,0,0.4,0.3,0.3,0.6l0,0C128.4,233.5,128.2,233.6,128,233.6
		L128,233.6z M126.2,233.3c-0.3,0-0.4-0.3-0.4-0.6l0,0c0-0.3,0.3-0.4,0.6-0.3l0,0c0.3,0,0.4,0.3,0.3,0.4l0,0
		C126.6,233.2,126.4,233.3,126.2,233.3L126.2,233.3L126.2,233.3z M124.2,233.1c-0.1-0.1-0.4-0.3-0.3-0.6l0,0c0-0.3,0.3-0.4,0.6-0.4
		l0,0c0.1,0.1,0.4,0.3,0.3,0.6l0,0c0,0.3-0.1,0.4-0.4,0.4H124.2L124.2,233.1L124.2,233.1z M122.4,232.7c-0.1,0-0.4-0.3-0.3-0.4l0,0
		c0-0.3,0.1-0.4,0.4-0.4l0,0l0,0c0.3,0,0.4,0.3,0.4,0.6l0,0l-0.4,0.3h-0.1V232.7z M120.6,232.4c-0.3,0-0.4-0.3-0.3-0.6l0,0
		c0-0.3,0.3-0.4,0.4-0.3l0,0c0.3,0,0.4,0.1,0.4,0.4l0,0l0,0c0,0.3-0.1,0.4-0.4,0.4l0,0h-0.1V232.4z M118.8,232.1
		c-0.3-0.1-0.4-0.3-0.4-0.6l0,0c0.1-0.3,0.3-0.4,0.6-0.4l0,0c0.3,0.1,0.4,0.3,0.4,0.6l0,0c0,0.3-0.1,0.4-0.4,0.4H118.8L118.8,232.1z
		 M117,231.7c-0.3,0-0.4-0.1-0.4-0.4l0,0l0,0c0.1-0.3,0.3-0.4,0.6-0.4l0,0c0.3,0,0.4,0.3,0.4,0.6l0,0L117,231.7L117,231.7L117,231.7
		z M115.2,231.4c-0.3,0-0.4-0.3-0.4-0.6l0,0c0.1-0.3,0.3-0.4,0.6-0.3l0,0c0.3,0,0.4,0.1,0.4,0.4l0,0l0,0
		C115.7,231.3,115.5,231.4,115.2,231.4L115.2,231.4z M113.4,231.1c-0.3-0.1-0.4-0.3-0.4-0.6l0,0c0-0.3,0.3-0.4,0.6-0.4l0,0
		c0.3,0.1,0.4,0.3,0.4,0.6l0,0C113.9,231,113.7,231.1,113.4,231.1z M111.6,230.7c-0.3,0-0.4-0.1-0.4-0.4l0,0l0,0
		c0-0.3,0.3-0.4,0.6-0.4l0,0c0.3,0,0.4,0.3,0.4,0.6l0,0C112.1,230.6,111.9,230.9,111.6,230.7L111.6,230.7L111.6,230.7z M109.9,230.4
		c-0.3,0-0.4-0.3-0.4-0.6l0,0c0-0.3,0.3-0.4,0.6-0.3l0,0c0.3,0,0.4,0.3,0.3,0.4l0,0C110.3,230.3,110.1,230.4,109.9,230.4
		L109.9,230.4L109.9,230.4z"/>
	<path class="st3" d="M146.1,236.9h-0.3c-0.1-0.1-0.1-0.3-0.1-0.4h1c0,0.1-0.1,0.3-0.1,0.4H146.1z"/>
	<path class="st3" d="M148,237.2h-0.3c-0.1,0-0.1-0.1-0.1-0.3h0.1c0.1-0.1,0.3-0.3,0.6-0.1h0.3v0.3h-0.4L148,237.2z"/>
	<path class="st3" d="M149.9,237.6h-0.3c-0.1,0-0.1-0.1-0.1-0.3h0.1c0.1-0.1,0.3-0.3,0.4-0.1h0.3c0,0.1,0,0.3-0.1,0.3h-0.3
		L149.9,237.6L149.9,237.6z"/>
	<path class="st3" d="M152.1,238.2h-0.4c0-0.1-0.1-0.1-0.1-0.3v-0.4h0.8v0.3c0,0.1,0,0.1-0.1,0.3H152L152.1,238.2z"/>
	<path class="st3" d="M115.7,323.2h-0.4v-0.3l0,0c0-0.1,0-0.1,0.1-0.1h0.7v0.3h-0.4L115.7,323.2z"/>
	<path class="st3" d="M144.5,328.3c-0.3,0-0.4-0.3-0.4-0.6l0,0c0.1-0.3,0.3-0.4,0.6-0.4l0,0c0.3,0.1,0.4,0.3,0.4,0.6l0,0
		C145.1,328.1,144.9,328.3,144.5,328.3L144.5,328.3z M142.7,328c-0.3-0.1-0.4-0.3-0.4-0.6l0,0c0.1-0.3,0.3-0.4,0.6-0.4l0,0
		c0.3,0,0.4,0.3,0.4,0.6l0,0C143.2,327.9,143,328,142.7,328z M140.9,327.6c-0.3,0-0.4-0.3-0.4-0.6l0,0c0-0.3,0.3-0.4,0.6-0.3l0,0
		l0,0c0.3,0,0.4,0.3,0.4,0.6l0,0L140.9,327.6z M139.1,327.3c-0.3,0-0.4-0.3-0.4-0.6l0,0c0-0.3,0.3-0.4,0.6-0.4l0,0
		c0.3,0.1,0.4,0.3,0.4,0.6l0,0C139.6,327.2,139.4,327.3,139.1,327.3z M137.3,327c-0.3-0.1-0.4-0.3-0.4-0.6l0,0
		c0-0.3,0.3-0.4,0.6-0.4l0,0c0.3,0,0.4,0.3,0.3,0.6l0,0C137.8,326.9,137.6,327,137.3,327z M135.4,326.6c-0.3,0-0.4-0.3-0.3-0.6l0,0
		l0,0c0-0.3,0.3-0.4,0.6-0.3l0,0l0,0c0.3,0,0.4,0.3,0.3,0.6l0,0l0,0C136,326.5,135.8,326.6,135.4,326.6L135.4,326.6z M133.6,326.3
		c-0.3,0-0.4-0.3-0.3-0.6l0,0l0,0c0-0.3,0.3-0.4,0.6-0.4l0,0c0.1,0.1,0.4,0.3,0.3,0.6l0,0C134.2,326.2,134,326.3,133.6,326.3
		L133.6,326.3z M131.8,326.1c-0.3-0.1-0.4-0.3-0.3-0.6l0,0c0-0.3,0.1-0.4,0.4-0.4l0,0c0.3,0,0.4,0.3,0.4,0.6l0,0
		C132.3,326,132.2,326.1,131.8,326.1C132,326.1,131.8,326.1,131.8,326.1z M130,325.6c-0.3,0-0.4-0.1-0.4-0.4l0,0
		c0.1-0.3,0.3-0.6,0.6-0.4l0,0c0.3,0,0.4,0.3,0.4,0.6l0,0L130,325.6L130,325.6L130,325.6z M128.2,325.4c-0.3,0-0.4-0.3-0.4-0.6l0,0
		c0.1-0.3,0.3-0.4,0.6-0.4l0,0c0.3,0.1,0.4,0.3,0.4,0.6l0,0C128.8,325.2,128.6,325.4,128.2,325.4L128.2,325.4z M126.4,325.1
		c-0.3-0.1-0.4-0.3-0.4-0.6l0,0c0.1-0.3,0.3-0.4,0.6-0.4l0,0c0.3,0,0.4,0.3,0.4,0.6l0,0C126.8,325,126.7,325.1,126.4,325.1z
		 M124.6,324.7c-0.3,0-0.4-0.3-0.4-0.6l0,0c0-0.1,0.3-0.3,0.6-0.3l0,0c0.3,0,0.4,0.3,0.4,0.6l0,0
		C125.1,324.5,124.9,324.7,124.6,324.7z M122.8,324.4c-0.3,0-0.4-0.3-0.4-0.6l0,0c0-0.3,0.3-0.4,0.6-0.4l0,0
		c0.3,0.1,0.4,0.3,0.4,0.6l0,0C123.3,324.3,123.1,324.4,122.8,324.4z M121,324.1c-0.3-0.1-0.4-0.3-0.4-0.6l0,0
		c0-0.3,0.3-0.4,0.6-0.4l0,0c0.3,0,0.4,0.3,0.3,0.6l0,0C121.5,324,121.3,324.1,121,324.1z M119.1,323.7c-0.1,0-0.4-0.3-0.3-0.4l0,0
		c0-0.3,0.3-0.4,0.6-0.4l0,0c0.3,0,0.4,0.3,0.3,0.6l0,0l0,0C119.7,323.6,119.5,323.7,119.1,323.7L119.1,323.7L119.1,323.7z
		 M117.3,323.4c-0.3,0-0.4-0.3-0.3-0.6l0,0l0,0c0-0.3,0.3-0.4,0.6-0.3l0,0c0.1,0,0.4,0.3,0.3,0.4l0,0
		C117.9,323.3,117.7,323.4,117.3,323.4L117.3,323.4L117.3,323.4z"/>
	<line class="st1" x1="62.7" y1="165.9" x2="62.7" y2="165.9"/>
	<path class="st23" d="M63,167.3c0.6,3.9,1.5,7.7,2.8,11.5"/>
	<line class="st1" x1="66" y1="179.5" x2="66" y2="179.5"/>
	<polygon class="st3" points="64.4,179.7 67.3,181.5 67.3,178.2 	"/>
	<line class="st1" x1="137.9" y1="288.8" x2="137.9" y2="288.8"/>
	<path class="st24" d="M139.1,289.3c3.3,1.4,13.1,3.7,26.1-7.3"/>
	<line class="st1" x1="165.7" y1="281.6" x2="165.7" y2="281.6"/>
	<polygon class="st3" points="166.5,283.1 167.6,279.9 164.2,280.6 	"/>
	<ellipse class="st25" cx="141.2" cy="283.1" rx="3.3" ry="4"/>
	<ellipse class="st26" cx="231.2" cy="194.2" rx="6.2" ry="8.4"/>
	<path class="st3" d="M141.8,282.4V282h-1.1l-0.4,0.4v-0.7l0.4-0.3h1.2v0.7c0,0.3-0.1,0.4-0.1,0.6v0.3l-0.3,0.4l-0.4,0.3l-0.3,0.3
		c-0.1,0-0.3,0.1-0.3,0.3h-0.1v0.3h1.8v0.4h-2.1v-0.7l0.3-0.4l0.3-0.3l0.4-0.4l0.3-0.3l0.3-0.3c0.1-0.1,0.1-0.1,0.1-0.3L141.8,282.4
		L141.8,282.4z"/>
	<line class="st1" x1="40.5" y1="270.7" x2="40.5" y2="270.7"/>
	<path class="st27" d="M41.2,271.8c1,1.4,3,3.3,7.5,2.9"/>
	<line class="st1" x1="49.3" y1="274.5" x2="49.3" y2="274.5"/>
	<path class="st3" d="M47.8,270.2v-3.5c0,0.1,0,0.1-0.1,0.1h-0.4v-0.3l0.4-0.3l0.3-0.4h0.1v3.9L47.8,270.2z"/>
	<ellipse class="st28" cx="47.8" cy="268.3" rx="1.9" ry="3.5"/>
	<polyline class="st29" points="228.3,195.5 230.8,198.1 234.4,191.1 	"/>
	<path class="st3" d="M146.9,232.1v-0.4c0-0.1,0-0.3,0.1-0.3c0-0.1,0-0.3,0.1-0.4h0.1l-0.3-0.4v-1.4l0.3-0.3h0.6l0.3,0.3
		c0.1,0,0.1,0.1,0.1,0.3s0.1,0.3,0.1,0.6v0.6l-0.3,0.4c0.1,0,0.1,0,0.1,0.1l0,0l0.3,0.4v0.7c0,0.1-0.1,0.3-0.1,0.6s-0.1,0.3-0.1,0.4
		l-0.3,0.3h-0.7l-0.3-0.3l-0.3-0.4L146.9,232.1z M147.2,232v0.7l0.3,0.3h0.4v-1.3c0-0.1,0-0.1-0.1-0.3v-0.3h-0.4l-0.3,0.3L147.2,232
		L147.2,232z M147.3,229.9v0.3c0,0.1,0.1,0.1,0.1,0.3h0.6c0.1-0.1,0.1-0.1,0.1-0.3v-0.6c0-0.1,0-0.1-0.1-0.3h-0.6
		c-0.1,0.1-0.1,0.1-0.1,0.3V229.9z"/>
	<path class="st3" d="M151.4,233.2l-0.4,0.3c-0.3,0-0.6-0.3-0.7-0.6c-0.3-0.3-0.3-0.7-0.3-1.1s0-1,0.3-1.4c0.1-0.3,0.4-0.4,0.7-0.4
		h0.4v0.6l-0.4-0.3c-0.3,0-0.4,0.1-0.4,0.4l0,0c-0.1,0.3-0.3,0.6-0.3,0.8c0,0.4,0.1,0.7,0.1,1s0.3,0.3,0.6,0.3s0.3,0,0.4-0.3
		L151.4,233.2L151.4,233.2z"/>
	<path class="st3" d="M154.8,233.3h-0.3v-1.9c0-0.3-0.1-0.4-0.1-0.7l-0.3-0.3l-0.4,0.3c-0.1,0.3-0.1,0.4-0.1,0.7v1.9h-0.3v-1.9
		c0-0.7-0.1-1-0.4-1l-0.4,0.3c-0.1,0.1-0.1,0.4-0.1,0.7v1.9h-0.3V230h0.3v0.6l0,0c0-0.3,0.4-0.6,0.7-0.6h0.3l0.3,0.6
		c0.1-0.6,0.3-0.7,0.6-0.7s0.7,0.4,0.7,1.2L154.8,233.3z"/>
	<path class="st3" d="M136.4,319.7c0.1-0.1,0.1-0.1,0-0.3v-0.3h-1.2v-0.4l0.4-0.3h0.8l0.3,0.3c0.1,0,0.1,0.1,0.1,0.3v0.4
		c0,0.1,0,0.3-0.1,0.4c0,0.1,0,0.3-0.1,0.4l-0.3,0.3H136l-0.4,0.3c-0.1,0.1-0.3,0.1-0.3,0.3h-0.1c-0.1,0.1-0.1,0.1-0.1,0.3l1.7,0.3
		v0.4l-1.9-0.3v-0.3c0-0.1,0-0.3,0.1-0.4c0-0.1,0.1-0.1,0.1-0.3l0.4-0.3c0-0.1,0.3-0.3,0.4-0.3l0.3-0.3L136.4,319.7
		c0.1-0.1,0.1-0.1,0.1-0.3L136.4,319.7z"/>
	<path class="st3" d="M139.3,321.1c0,0.3,0,0.6-0.1,0.8c-0.1,0.1-0.1,0.4-0.3,0.6l-0.4,0.2h-0.4c-0.3,0-0.4-0.1-0.4-0.3
		c0-0.1-0.3-0.1-0.3-0.4s-0.1-0.3-0.1-0.6v-0.7c0.1-0.3,0.1-0.6,0.3-0.8c0-0.3,0.1-0.4,0.3-0.6l0.4-0.4h0.4
		C139.3,319.2,139.6,319.8,139.3,321.1z M139,321.1c0.1-1.1,0-1.7-0.4-1.8c-0.4-0.1-0.8,0.6-1,1.5s0,1.7,0.4,1.7
		S138.9,322.1,139,321.1z"/>
	<path class="st3" d="M142.5,323.3h-0.7c-0.3-0.1-0.6-0.3-0.7-0.6c-0.1-0.3-0.3-0.7-0.1-1c0-0.4,0.1-0.7,0.4-1
		c0.3-0.3,0.6-0.4,1-0.3h0.6v0.4c-0.1-0.1-0.3-0.3-0.6-0.3s-0.4,0.1-0.6,0.3c-0.1,0.1-0.3,0.4-0.3,0.7c-0.1,0.3-0.1,0.6,0,0.8
		c0.1,0.1,0.3,0.3,0.6,0.3h0.6L142.5,323.3z"/>
	<path class="st3" d="M146.2,324h-0.3v-1.7c0.1-0.3,0.1-0.4,0-0.6c0-0.1-0.1-0.3-0.3-0.3l0,0H145c-0.1,0.1-0.1,0.4-0.1,0.6l-0.3,1.5
		h-0.4l0.3-1.5c0.1-0.6,0-0.8-0.4-1l-0.4,0.3c-0.1,0.1-0.3,0.3-0.3,0.6v1.5H143l0.4-2.8h0.3v0.4l0,0c0.1-0.3,0.6-0.4,0.8-0.4h0.3
		c0.1,0.1,0.3,0.3,0.3,0.6c0-0.4,0.4-0.7,0.8-0.6l0,0c0.4,0.1,0.7,0.6,0.6,1.2L146.2,324z"/>
	<path class="st3" d="M222.7,213.9h-0.8l-0.3-0.6l-0.4-1c-0.1-0.6-0.1-1,0-1.5c0.1-0.3,0.4-0.6,0.7-0.7h0.6l0.4,0.3l-0.4-2.1h0.6
		l1.1,5.4h-0.4v-0.4c-0.1,0.3-0.1,0.4-0.3,0.6H222.7z M222.7,213.3h0.4l0.3-0.4l-0.4-2.1h-1.1v0.7c0,0.3,0,0.6,0.1,0.8
		c0,0.3,0.1,0.4,0.1,0.7v0.4L222.7,213.3L222.7,213.3L222.7,213.3z"/>
	<path class="st3" d="M226.3,213h-1l-0.4-0.6c-0.1-0.3-0.1-0.7-0.3-1c-0.1-0.3-0.1-0.6-0.1-0.8c0-0.3,0.1-0.4,0.1-0.7l0.4-0.4
		l0.4-0.3h0.6l0.6,0.3l0.4,0.6c0,0.3,0.1,0.6,0.3,0.8c0,0.4,0.1,0.7,0,1v0.7l-0.4,0.4H226.3z M226.3,212.6h0.3
		c0-0.1,0.1-0.1,0.1-0.3v-1.2l-0.3-0.7c0-0.1-0.1-0.3-0.3-0.4h-0.8c-0.1,0-0.1,0.1-0.1,0.3c-0.1,0.1-0.1,0.3-0.1,0.4
		c0,0.3,0.1,0.4,0.1,0.7s0.1,0.6,0.3,0.7c0,0.1,0,0.3,0.1,0.4l0.3,0.3L226.3,212.6z"/>
	<path class="st3" d="M228.8,209.6l-1.5-2.1h0.7l1.1,1.5l0.3-1.9h0.7l-0.6,2.6l1.8,2.5h-0.7l-1.4-2.1l-0.4,2.5h-0.7L228.8,209.6z"/>
	<path class="st3" d="M231.6,208.5H231v-0.4h1l0.8,3.7h-0.6L231.6,208.5z M231.6,207.2h-0.3l-0.3-0.3c0-0.1,0-0.3,0.1-0.4h0.6v0.7
		H231.6L231.6,207.2z"/>
	<path class="st3" d="M235,211.2c-0.4,0-0.8,0-1.1-0.3c-0.3-0.4-0.6-0.8-0.6-1.4c-0.1-0.3-0.1-0.7-0.1-1s0-0.4,0.1-0.7l0.3-0.4h1
		l0.6,0.3l-0.3,0.6h-1c0,0.1-0.1,0.1-0.1,0.3v0.6c0,0.3,0,0.4,0.1,0.7c0,0.3,0.1,0.4,0.1,0.7l0.3,0.4h0.8l0.3-0.4l0.4,0.4l-0.3,0.4
		L235,211.2z"/>
	<path class="st3" d="M235.9,206.9h0.6v0.4l0.3-0.4c0.1-0.1,0.3-0.3,0.6-0.3l0,0v0.7h-0.6l-0.3,0.4l0.6,2.6h-0.6L235.9,206.9z"/>
	<path class="st3" d="M239.7,210.1c-0.3,0.1-0.6,0-0.7-0.1c-0.3-0.1-0.4-0.6-0.4-0.8c-0.1-0.3-0.1-0.7,0.1-1c0.1-0.3,0.4-0.4,1-0.6
		h0.3v-0.8h-1.1l-0.4,0.3l-0.3-0.4l0.4-0.4l0.7-0.3h0.7c0.3,0.1,0.4,0.6,0.4,0.8l0.7,2.6h-0.4l-0.3-0.3l-0.3,0.3
		C240.2,210,240,210.1,239.7,210.1z M239.7,209.6h0.4v-1.4h-0.6l-0.3,0.3v0.3c0,0.1,0.1,0.1,0.1,0.3c0,0.1,0.1,0.4,0.1,0.6
		L239.7,209.6z"/>
	<path class="st3" d="M241,205.8h0.4v-1l0.4-0.3l0.3,1.1h0.7v0.6h-0.7l0.6,2.3c0,0.3,0.1,0.4,0.3,0.3h0.1c0.1,0,0.1,0,0.1-0.1l0,0
		l0.3,0.4h-1.1c-0.1-0.1-0.3-0.3-0.3-0.6l-0.6-2.5h-0.4L241,205.8z"/>
	<path class="st3" d="M245.4,208.9c-0.4,0.1-0.8,0-1.1-0.1c-0.4-0.4-0.6-1-0.7-1.5v-1.6l0.4-0.4l0.4-0.3h0.6l0.4,0.3l0.4,0.6
		c0.1,0.1,0.1,0.4,0.3,0.8v0.3l-1.8,0.3c0,0.3,0.1,0.4,0.1,0.7l0.3,0.4h1l0.3-0.3l0.4,0.4l-0.4,0.4L245.4,208.9L245.4,208.9z
		 M244.6,205.6h-0.4v1l1.2-0.3c0-0.3-0.1-0.4-0.1-0.6l0,0L244.6,205.6L244.6,205.6z"/>
	<path class="st3" d="M87.3,195.2l-0.6-0.3c-0.1-0.1-0.4-0.3-0.4-0.6c-0.1-0.3-0.3-0.6-0.3-0.8c0-0.4,0-1,0.1-1.4
		c0-0.8,0.3-1.5,0.7-2.2c0.3-0.4,0.8-0.6,1.2-0.4l0.7,0.3l0.4,0.6l0.4-2.9h1l-1.1,7.9h-0.7v-0.7l-0.7,0.4L87.3,195.2z M87.6,194.4
		h0.6l0.7-0.4l0.4-2.9l-0.4-0.6h-1.4l-0.3,0.7c0,0.3-0.1,0.6-0.1,1c-0.1,0.4-0.1,0.7-0.1,1.1c0,0.3,0,0.4,0.1,0.7
		c0,0.1,0,0.3,0.1,0.3L87.6,194.4z"/>
	<path class="st3" d="M92.6,195.9l-0.7-0.3l-0.6-0.6c-0.1-0.3-0.3-0.7-0.3-1v-1.2l0.4-1.4l0.4-0.8l0.7-0.4h0.8l0.7,0.3
		c0.3,0.1,0.4,0.3,0.6,0.6s0.3,0.7,0.3,1c0,0.4,0,1-0.1,1.4c0,0.4-0.1,0.8-0.3,1.2l-0.6,0.8l-0.6,0.4H92.6z M92.7,195.2h0.4l0.4-0.3
		c0.1-0.1,0.1-0.3,0.3-0.6c0.1-0.3,0.1-0.6,0.1-1c0.1-0.4,0.1-0.7,0.1-1.1c0-0.3,0-0.4-0.1-0.7l-0.3-0.3h-0.8l-0.4,0.3
		c-0.1,0.1-0.3,0.3-0.3,0.6c-0.1,0.3-0.1,0.7-0.3,1v1.5c0.1,0.1,0.3,0.3,0.3,0.4L92.7,195.2z"/>
	<path class="st3" d="M97.6,192.4l-1-3.6h1l0.7,2.6l1.4-2.3h1l-2.1,3l1.2,4.4h-1l-0.8-3.3l-1.8,3h-1L97.6,192.4z"/>
	<path class="st3" d="M101.7,192.3h-0.6v-0.7l1.5,0.3l-0.8,5.4h-0.7L101.7,192.3z M102.4,190.6l-0.4-0.3v-0.4c0-0.3,0-0.4,0.1-0.4
		s0.3-0.3,0.4-0.1h0.4c0.1,0.1,0.1,0.4,0.1,0.6c0,0.1-0.1,0.3-0.3,0.4L102.4,190.6z"/>
	<path class="st3" d="M104.6,197.7c-0.4-0.1-0.7-0.1-0.8-0.4l-0.7-0.4l0.4-0.7l0.6,0.6h0.7c0.3,0.1,0.6,0,0.7-0.1s0.1-0.3,0.1-0.6
		c0.1-0.1,0.1-0.3,0-0.4l0,0v-0.3h-0.3l-0.6-0.3l-0.4-0.3l-0.3-0.3c-0.1-0.1-0.1-0.4-0.1-0.6c-0.1-0.1-0.1-0.6,0-0.7
		c0-0.1,0-0.4,0.1-0.6l0.3-0.4l0.6-0.3h1.4l0.6,0.4l-0.4,0.7l-0.6-0.4h-0.4c-0.4,0-0.7,0.1-0.8,0.7v0.6h0.6l0.6,0.3l0.4,0.4
		c0,0.1,0.1,0.4,0.1,0.6v0.8c0,0.4-0.1,0.8-0.6,1.1C105.6,197.7,105.2,197.7,104.6,197.7z"/>
	<path class="st3" d="M108.6,198.2c-0.6-0.1-0.8-0.3-1-0.6c-0.3-0.4-0.3-1-0.3-1.4c0.1-0.4,0.4-1,0.7-1.2c0.6-0.3,1.2-0.4,1.8-0.3
		h0.3v-1l-0.3-0.3H109l-0.7,0.3L108,193l0.8-0.3h1c0.6,0.1,0.8,0.3,1,0.6c0.1,0.3,0.3,0.7,0.3,1.4l-0.6,3.9h-0.7V198l-0.6,0.4
		L108.6,198.2z M108.7,197.4h0.7l0.4-0.4l0.3-1.4h-1.5l-0.3,0.3c0,0.1,0,0.4-0.1,0.6c0,0.3,0,0.6,0.1,0.8L108.7,197.4z"/>
	<path class="st3" d="M112.3,193.1h0.6v-0.8c0-0.3,0-0.6,0.1-0.7l0.4-0.6h1.4l0.4,0.3l-0.4,0.7l-0.6-0.3h-0.4l-0.3,0.6v0.8h1v0.8
		h-0.8l-0.7,4.6h-0.8l0.7-4.6h-0.6C112.3,193.9,112.3,193.1,112.3,193.1z"/>
	<path class="st3" d="M116.3,199.3c-0.6-0.1-1.1-0.4-1.2-0.8c-0.3-0.7-0.4-1.5-0.3-2.3l0.4-1.2l0.4-0.8l0.7-0.4h0.7l0.7,0.3
		c0.3,0.1,0.4,0.3,0.6,0.6c0.1,0.1,0.1,0.4,0.1,0.8s0,0.7,0,1.2v0.4l-2.6-0.4v1.5l0.3,0.3h1.1l0.6-0.3l0.4,0.7l-0.8,0.4H116.3z
		 M116.9,194.4h-0.3l-0.4,0.3l-0.3,0.4c0,0.3-0.1,0.6-0.1,0.8l1.8,0.3c0-0.3,0.1-0.6,0.1-0.8v-0.6l-0.3-0.3L116.9,194.4z"/>
	<path class="st30" d="M735.8,319.2c0,4.4-3.6,7.3-7.9,7.3l-353.8,0.8c-4,0.3-7.5-2.9-7.7-6.9c0-0.1,0-0.3,0-0.4V102.2
		c0-4.3-5.1-7.9-0.8-7.9l372.1-0.8c4.3,0-1.9,3.6-1.9,7.9L735.8,319.2L735.8,319.2z"/>
	<path class="st31" d="M481.3,110.2l-5.1-8.6c-0.6-1.1-1.7-1.8-2.9-1.9h-68.7c-1.2,0.1-2.3,0.8-2.9,1.9l-4.7,8.6h-30.5V125
		l369.4-0.8v-14.8L481.3,110.2z"/>
	<path class="st32" d="M478.8,101.7l5.1,8.6h72l-5.1-8.6c-0.6-1.1-1.7-1.8-2.9-1.9h-68.7c-0.6,0-1.2,0.3-1.7,0.7
		C478.1,100.7,478.5,101.1,478.8,101.7z"/>
	<path class="st33" d="M369.2,117.7l2.9,2.9l0.8-0.7c-0.6-0.6-1.1-1.1-1.7-1.7h4.3v-1.1h-4.3c0.6-0.6,1.1-1.1,1.7-1.7l-0.8-0.8
		L369.2,117.7z"/>
	<path class="st34" d="M387.3,117.7l-3,2.9l-0.8-0.7l1.7-1.7h-4.3v-1.1h4.3c-0.4-0.6-1-1.1-1.5-1.7l0.7-0.8L387.3,117.7z"/>
	<path class="st33" d="M731.1,97.8v3.2h-1c-0.1,0,0-1.4,0-1.4l-1.8,1.7l-0.7-0.7l1.7-1.8h-1.4v-1C727.9,97.8,731.1,97.8,731.1,97.8z
		"/>
	<path class="st33" d="M724.5,104.4v-3.2h1.1c-0.1,0.6-0.1,1,0,1.5l1.7-1.8c0,0,0.6,0.7,0.7,0.7l-1.7,1.8h1.5v1H724.5z"/>
	<path class="st35" d="M374.9,102.6c0-1.7-1.2-2.9-2.9-2.9l0,0c-1.5,0.1-2.8,1.4-2.9,2.9c0,1.7,1.2,2.9,2.9,2.9l0,0
		C373.6,105.5,374.9,104.3,374.9,102.6L374.9,102.6z"/>
	<path class="st36" d="M383.9,102.6c0-1.7-1.2-2.9-2.9-2.9l0,0c-1.5,0.1-2.8,1.4-2.9,2.9c0,1.7,1.2,2.9,2.9,2.9l0,0
		C382.6,105.5,383.9,104.3,383.9,102.6L383.9,102.6z"/>
	<path class="st37" d="M392.4,102.6c-0.1-1.5-1.4-2.8-2.9-2.9c-1.7,0-2.9,1.2-2.9,2.9l0,0c0,1.7,1.2,2.9,2.9,2.9l0,0
		C391.2,105.5,392.4,104.3,392.4,102.6L392.4,102.6z"/>
	<path class="st34" d="M474.7,105c0.1-1.5-1.1-2.8-2.6-2.9H472c-1.7,0-2.9,1.2-2.9,2.9l0,0c-0.4,1.5,0.7,3.2,2.2,3.5
		c1.5,0.4,3.2-0.7,3.5-2.2C474.8,105.8,474.8,105.4,474.7,105z"/>
	<path class="st9" d="M719.8,119.8c0,1-0.8,1.8-1.8,1.8l-311.5,0.8c-1,0-1.8-0.8-1.8-1.8v-6.5c0-1,0.8-1.8,1.8-1.8l311.5-0.8
		c1,0,1.8,0.8,1.8,1.8V119.8z"/>
	<path class="st34" d="M715.8,120.2h-0.3l-1.9-1.4l-1.9,1.4h-0.4c-0.1-0.1-0.1-0.3-0.1-0.4l0.7-2.3l-1.9-1.4
		c-0.1-0.1-0.1-0.3-0.1-0.4l0.4-0.3h2.3l0.8-2.2c0-0.3,0.6-0.3,0.6,0l0.8,2.2h2.3l0.4,0.3c0,0.1,0,0.3-0.1,0.4l-1.9,1.4l0.7,2.3
		c0,0.1,0,0.3-0.1,0.4H715.8z M713.6,118L713.6,118l1.5,1l-0.4-1.7c0-0.1,0-0.3,0.1-0.3l1.4-1.1h-1.8l-0.3-0.3l-0.6-1.5l-0.6,1.5
		l-0.3,0.3h-1.8l1.4,1.1c0.1,0,0.1,0.1,0.1,0.3l-0.6,1.7l1.5-1H713.6z"/>
	<path class="st33" d="M731.5,114.4c0,0.3-0.3,0.6-0.6,0.6l0,0h-6.1c-0.3,0-0.6-0.3-0.6-0.6l0,0l0,0c0-0.3,0.3-0.6,0.6-0.6l0,0h6.1
		C731.3,113.8,731.5,114.1,731.5,114.4L731.5,114.4z"/>
	<path class="st33" d="M731.5,116.7c0,0.3-0.3,0.6-0.6,0.6l0,0h-6.1c-0.3,0-0.6-0.3-0.6-0.6l0,0l0,0c0-0.3,0.3-0.6,0.6-0.6l0,0h6.1
		C731.3,116.2,731.5,116.4,731.5,116.7L731.5,116.7z"/>
	<path class="st33" d="M731.5,119.1c0,0.3-0.3,0.6-0.6,0.6l0,0h-6.1c-0.3,0-0.6-0.3-0.6-0.6l0,0l0,0c0-0.3,0.3-0.6,0.6-0.6l0,0h6.1
		C731.3,118.5,731.5,118.8,731.5,119.1L731.5,119.1z"/>
	<path class="st38" d="M472.6,105l1-0.8l-0.8-0.8l-0.8,0.8l-1-0.8l-0.7,0.8l0.8,0.8l-0.8,0.8l0.7,0.8l1-0.8l0.8,0.8l0.8-0.8
		L472.6,105z"/>
	<path class="st34" d="M548.9,105c0-1.7-1.2-2.9-2.9-2.9l0,0c-1.7,0-2.9,1.2-2.9,2.9l0,0c0,1.7,1.2,2.9,2.9,2.9l0,0
		C547.5,107.7,548.7,106.5,548.9,105z"/>
	<path class="st38" d="M546.6,105l1-0.8l-0.8-0.8l-0.8,0.8l-1-0.8l-0.7,0.8l0.8,0.8l-0.8,0.8l0.7,0.8l1-0.8l0.8,0.8l0.8-0.8
		L546.6,105z"/>
	<path class="st33" d="M397.3,119.9c-1.1-0.1-2.1-1.1-2.1-2.2s1-2.1,2.1-2.2c0.7,0,1.4,0.3,1.8,1h-1.4v0.7h2.6v-2.8h-0.7v1.4
		c-0.6-0.7-1.5-1.2-2.5-1.2c-1.7,0-3,1.4-3,3v0.1c0,1.7,1.4,3,3,3l0,0c1.1,0,2.2-0.6,2.8-1.5l-0.8-0.6
		C398.7,119.3,398.1,119.8,397.3,119.9z"/>
	<path class="st9" d="M366.5,125v194.6c0,4.3,3.5,7.7,7.7,7.7l0,0l353.8-0.8c4.3,0,7.7-3.5,7.9-7.7V124.2L366.5,125z"/>
	<path class="st32" d="M553.7,101.7l4,6.6h14.4l-4-6.6c-0.6-1.1-1.7-1.8-2.9-1.9h-14.4C552,99.9,553.1,100.5,553.7,101.7z"/>
	<rect x="368" y="123.9" class="st9" width="365.4" height="219.3"/>
	<rect x="630.9" y="135" class="st9" width="103.4" height="202"/>
	<path class="st39" d="M734.4,337.1H630.8V134.7h103.6L734.4,337.1L734.4,337.1z M631.2,336.7H734V135.2H631.2V336.7z"/>
	<rect x="367.6" y="124" class="st40" width="366.7" height="11.6"/>
	<polygon class="st40" points="631.6,144.6 631.6,135.5 640.1,135.5 640.1,144.6 	"/>
	<path class="st32" d="M639.9,135.6v8.8h-8.2v-8.8H639.9 M640.1,135.5h-8.4v9.1h8.4V135.5z"/>
	<polyline class="st41" points="635.1,142.4 636.9,139.9 634.8,137.7 	"/>
	<rect x="368" y="136.3" class="st9" width="71.4" height="185.6"/>
	<rect x="368" y="136.3" class="st42" width="71.4" height="185.6"/>
	<polygon class="st43" points="377.8,153.6 376.5,155.7 376.5,151.5 	"/>
	<path class="st43" d="M375.3,155.3h-1.7l0.3-0.3h1.4c0.1,0,0.3,0.1,0.3,0.3l0,0H375.3z"/>
	<path class="st43" d="M375.7,154H374c0-0.1,0.1-0.3,0.3-0.3l0,0h1.4c0.1,0,0.3,0.1,0.3,0.3l0,0H375.7z"/>
	<path class="st43" d="M374.9,152.8h-0.1v-0.3h1.1c0.1,0,0.1,0.1,0.1,0.3h-1.2H374.9z"/>
	<rect x="380.6" y="153.6" class="st12" width="17.1" height="1.8"/>
	<rect x="383.5" y="174.5" class="st12" width="13.5" height="2.3"/>
	<rect x="396" y="186.2" class="st43" width="28.5" height="1.2"/>
	<polygon class="st43" points="377.4,168.5 374.5,168.5 374.5,164.7 376.5,164.7 377,165.1 377.4,165.5 	"/>
	<polygon class="st43" points="376.4,165.6 376.4,164.8 377.2,165.6 	"/>
	<polygon class="st44" points="374.1,168.9 374.1,165.4 373.6,165.4 373.6,168.9 373.6,169.2 374.1,169.2 377.2,169.2 377.2,168.9 	
		"/>
	<rect x="379.6" y="165.9" class="st12" width="23.1" height="3.2"/>
	<rect x="381.2" y="220.5" class="st12" width="32.1" height="2.9"/>
	<rect x="381.9" y="209.3" class="st12" width="26.9" height="2.9"/>
	<rect x="379.3" y="200" class="st12" width="18.7" height="2.8"/>
	<rect x="379.6" y="235.6" class="st12" width="27.4" height="2.6"/>
	<path class="st45" d="M380.3,181.5H432c1.2,0,2.3,1.1,2.3,2.3v5.1c0,1.2-1.1,2.3-2.3,2.3h-51.7c-1.2,0-2.3-1.1-2.3-2.3v-5.1
		C377.9,182.6,379,181.5,380.3,181.5z"/>
	<path class="st43" d="M391.5,184.4c0.8,0,1.5,0.6,1.7,1.2v0.4h0.6c0.4,0,0.8,0.4,0.8,0.8l0,0c0,0.6-0.4,1-1,1l0,0h-3.9
		c-0.7,0-1.2-0.6-1.2-1.2c0-0.6,0.6-1.1,1.1-1.2h0.4v-0.3C390.4,184.6,390.9,184.3,391.5,184.4 M391.5,183.6c-0.8,0-1.5,0.6-1.9,1.2
		c-1,0.1-1.7,0.8-1.7,1.8s0.8,1.8,1.8,1.8h3.9c0.8,0,1.5-0.7,1.5-1.5l0,0c0-0.8-0.6-1.4-1.4-1.5
		C393.4,184.4,392.4,183.7,391.5,183.6L391.5,183.6z"/>
	<polygon class="st43" points="391.7,185.3 391.2,185.3 391.2,186.2 390.2,186.2 390.2,186.8 391.2,186.8 391.2,187.6 391.7,187.6 
		391.7,186.8 392.7,186.8 392.7,186.2 391.7,186.2 	"/>
	<polygon class="st43" points="375,220.2 374.5,220.2 375,221.3 375.4,221.3 376.7,219 376.4,219 375.3,220.8 	"/>
	<path class="st43" d="M377.2,222.3l-0.7-0.8h-0.1c0.3-0.3,0.4-0.6,0.4-1c0-0.3-0.1-0.6-0.3-0.8l-0.3,0.4c0.1,0.1,0.1,0.3,0.1,0.4
		c0,0.6-0.6,1.1-1.1,1.1c-0.6,0.1-1.1-0.4-1.2-1v-0.1c0-0.7,0.6-1.2,1.2-1.2h0.4l0.3-0.3h-0.7c-0.8,0-1.5,0.7-1.5,1.5
		s0.7,1.5,1.5,1.5l0,0h0.8l0.7,0.8h0.4c0.1,0,0.3-0.1,0.3-0.3C377.5,222.4,377.4,222.3,377.2,222.3z"/>
	<path class="st43" d="M375.3,208.6c0.4,0,0.7,0.4,0.7,0.8s-0.3,0.7-0.7,0.7c-0.6,0-0.8-0.3-0.8-0.7
		C374.5,209,374.9,208.6,375.3,208.6L375.3,208.6z M376.7,211.8h-3v-0.4c0-0.4,0.7-0.8,1.7-0.8s1.5,0.4,1.5,0.8L376.7,211.8z"/>
	<path class="st43" d="M375,199.5c0.4,0,0.7,0.3,0.7,0.7s-0.3,0.7-0.7,0.7c-0.4,0-0.7-0.3-0.7-0.7S374.6,199.5,375,199.5z
		 M376.4,202.4h-2.8V202c0-0.4,0.7-0.7,1.4-0.7s1.5,0.3,1.5,0.7L376.4,202.4z"/>
	<path class="st43" d="M377.1,200.9c0.3,0,0.6-0.4,0.6-0.7s-0.3-0.7-0.6-0.7c-0.4,0-0.7,0.3-0.7,0.7S376.7,200.9,377.1,200.9z"/>
	<path class="st43" d="M377.1,201.1h-0.8c0.4,0.1,0.6,0.3,0.6,0.6v0.6h1.5v-0.6C378.3,201.4,377.8,201.1,377.1,201.1z"/>
	<path class="st43" d="M376.1,235.4c0.7,0,1.2,0.6,1.2,1.2c0,0.4-0.3,0.8-0.7,1.1v0.4c0,0.1,0,0.3-0.1,0.3h-1v-0.7
		c-0.4-0.3-0.7-0.7-0.7-1.1C374.9,236,375.4,235.4,376.1,235.4C376.1,235.4,376.3,235.4,376.1,235.4 M376.7,238.6v0.3h-1v-0.3H376.7
		 M377.9,236.4h0.7v0.6h-0.7V236.4 M373.8,236.4h0.7v0.6h-0.7V236.4 M376.4,234.3v0.6H376v-0.6H376.4 M374.6,234.9l0.6,0.4l-0.3,0.3
		l-0.6-0.4L374.6,234.9 M377.2,235.3l0.6-0.4l0.3,0.3l-0.4,0.4L377.2,235.3z"/>
	<rect x="386.5" y="140.8" class="st12" width="42.4" height="2.6"/>
	<polyline class="st46" points="435.5,142.7 435,141.9 435.7,141.2 	"/>
	<path class="st3" d="M379.7,174.1h-0.3c-0.1-0.7-0.6-1.2-1.1-1.5c-0.6-0.3-1.1-0.3-1.7-0.1h-0.3c0-0.1,0-0.3,0.1-0.3
		c0.7-0.3,1.4-0.1,2.1,0.1c0.6,0.4,1,1,1.2,1.7C379.9,174.1,379.9,174.2,379.7,174.1L379.7,174.1z"/>
	<path class="st3" d="M379,174.3c-0.1,0-0.1,0-0.1-0.1l0,0c-0.1-0.4-0.4-0.8-0.8-1.1c-0.4-0.1-0.8-0.3-1.2-0.1h-0.1v-0.3
		c0.6-0.1,1.1-0.1,1.5,0.1c0.6,0.3,0.8,0.7,1,1.2v0.3L379,174.3L379,174.3z"/>
	<path class="st3" d="M378.9,174.9h-0.3c-0.1-0.3-0.6-0.4-0.8-0.4l0,0c-0.3-0.4-0.7-0.7-1.1-0.7c-0.7,0-1.2,0.6-1.2,1.2l0,0
		c-0.4,0.1-0.6,0.4-0.6,0.8c0,0.4,0.1,0.8,0.6,1h3.6c0.6-0.1,0.8-0.6,0.8-1.1C379.7,175.3,379.4,174.9,378.9,174.9z M378.9,176.5
		h-3.2c-0.3,0-0.6-0.3-0.6-0.6s0.3-0.6,0.6-0.6h0.1v-0.4c0-0.6,0.4-1,1-1l0,0c0.4,0,0.8,0.4,0.8,0.8l0,0h0.4c0.3,0,0.4,0.3,0.4,0.6
		l0,0l0.6-0.3c0.4,0,0.7,0.3,0.7,0.7s-0.3,0.7-0.7,0.7C379,176.5,378.9,176.5,378.9,176.5z"/>
	<path class="st3" d="M378.1,174.1L378.1,174.1c-0.1-0.3-0.4-0.4-0.7-0.4c-0.1,0-0.1,0-0.1-0.1h0.1c0.4,0,0.7,0.3,0.8,0.6
		L378.1,174.1L378.1,174.1z"/>
	<path class="st47" d="M626,125.8h50.9c0.8,0,1.5,0.7,1.5,1.5v4.7c0,0.8-0.7,1.5-1.5,1.5H626c-0.8,0-1.5-0.7-1.5-1.5v-4.7
		C624.4,126.5,625.1,125.8,626,125.8z"/>
	<path class="st44" d="M717.3,128.2c0.4,0,0.8,0.4,0.8,0.8s-0.4,0.8-0.8,0.8s-0.8-0.4-0.8-0.8S716.9,128.2,717.3,128.2z
		 M718.8,131.5h-3v-0.4c0-0.6,0.7-0.8,1.5-0.8s1.7,0.3,1.7,0.8L718.8,131.5z"/>
	<polygon class="st44" points="731,130.3 729.2,130.3 730.2,130.8 	"/>
	<polygon class="st44" points="711,130.3 709.2,130.3 710,130.8 	"/>
	<polygon class="st44" points="699.6,130.3 698,130.3 698.8,130.9 	"/>
	<rect x="627.2" y="128.2" class="st39" width="43.3" height="2.6"/>
	<path class="st44" d="M706.7,129.7l-0.3,0.3c-0.1,0.1-0.3,0.3-0.3,0.6h-0.4c0-0.3,0.1-0.6,0.3-0.7l0.3-0.3v-0.3
		c0-0.3-0.1-0.4-0.4-0.4s-0.4,0.1-0.4,0.4l0,0h-0.6c0-0.6,0.4-1,1-1l0,0c0.4,0.1,0.8,0.4,0.8,1C706.7,129.4,706.7,129.6,706.7,129.7
		 M706,131.5h-0.4v-0.4h0.4 M705.8,127.8c-1.2,0-2.2,1-2.2,2.2s1,2.2,2.2,2.2s2.2-1,2.2-2.2l0,0C708,128.9,707.1,127.9,705.8,127.8
		L705.8,127.8z"/>
	<path class="st44" d="M694.2,132.2h0.7c1.1-0.1,1.9-1.1,1.9-2.2c0-1.2-1-2.2-2.2-2.2s-2.2,1-2.2,2.2l0,0
		C692.4,131.1,693.1,132.1,694.2,132.2z M693.1,130.8h0.6c0.1,0.3,0.1,0.6,0.3,0.8C693.7,131.5,693.3,131.1,693.1,130.8z
		 M694.6,131.6c-0.1-0.3-0.4-0.6-0.4-0.8h0.7L694.6,131.6z M696.3,129.7v0.6h-0.7v-0.6H696.3z M696,129.2h-0.5
		c0-0.3-0.1-0.6-0.3-0.7C695.6,128.6,695.9,128.9,696,129.2z M695.5,130.8h0.6c-0.1,0.4-0.4,0.7-0.8,0.8
		C695.3,131.4,695.5,131.1,695.5,130.8z M694.6,128.3l0.3,0.8h-0.7L694.6,128.3z M694.1,129.7h1v0.6h-1V129.7z M694,128.5
		c0,0.3-0.1,0.4-0.3,0.7h-0.6L694,128.5z M693,130v-0.3h0.6v0.6H693V130z"/>
	<path class="st39" d="M685.4,129.4H685v-0.8h0.4 M685.4,130.4H685V130h0.4 M686.9,127.8h-3.6c-0.3,0-0.4,0.1-0.4,0.4v4l1-1h3
		c0.3,0,0.4-0.1,0.4-0.4v-2.6C687.3,127.9,687.2,127.8,686.9,127.8L686.9,127.8z"/>
	<rect x="721" y="129.2" class="st44" width="6.4" height="2.8"/>
	<g>
		<g>
			<g>
				<g>
					<g>
						<defs>
							<rect id="SVGID_13_" x="374.6" y="124.7" width="59.3" height="11.3"/>
						</defs>
						<clipPath id="SVGID_14_">
							<use xlink:href="#SVGID_13_"  style="overflow:visible;"/>
						</clipPath>
						<g class="st48">
							<path class="st49" d="M389.1,133.2c-0.6,0.3-1.1,0.4-1.7,0.4c-0.7,0-1.5-0.3-1.9-0.8c-0.6-0.6-0.8-1.4-0.8-2.2
								s0.3-1.7,0.8-2.3c0.6-0.6,1.4-0.8,2.2-0.8c0.4-0.1,1,0,1.4,0.3v0.7c-0.4-0.3-0.8-0.4-1.4-0.4c-0.7,0-1.2,0.3-1.7,0.7
								c-0.4,0.6-0.7,1.2-0.7,1.9s0.3,1.2,0.7,1.7c0.3,0.6,1,0.7,1.5,0.7s1.1-0.1,1.5-0.4v0.5L389.1,133.2L389.1,133.2z"/>
							<path class="st49" d="M391.3,133.4h-0.7v-6.1h0.7V133.4z"/>
							<path class="st49" d="M393.1,133.4v-6.1h1.7c0.4,0,1,0.1,1.2,0.4c0.3,0.3,0.6,0.6,0.6,1c0,0.3-0.1,0.7-0.3,1l-0.8,0.6l0,0
								c0.8,0,1.4,0.6,1.4,1.4c0,0.6-0.3,1-0.6,1.4c-0.4,0.3-0.8,0.4-1.4,0.4L393.1,133.4L393.1,133.4z M393.8,128v1.9h0.7l1-0.3
								c0.1-0.3,0.3-0.6,0.3-0.8c0-0.6-0.4-0.8-1.1-0.8L393.8,128z M393.8,130.7v2.1h1c0.4,0,0.7,0,1-0.3c0.3-0.1,0.3-0.4,0.3-0.8
								c0-0.4-0.4-1-1.4-1H393.8z"/>
							<path class="st49" d="M403.8,133.4h-0.7v-0.7l0,0c-0.3,0.6-0.8,0.8-1.4,0.8s-1-0.1-1.4-0.6c-0.3-0.4-0.4-1-0.4-1.5
								c-0.1-0.7,0.1-1.2,0.6-1.8c0.4-0.4,0.8-0.6,1.4-0.6s1,0.3,1.2,0.7l0,0v-2.8h0.7L403.8,133.4L403.8,133.4z M403.1,131.5v-0.6
								c0-0.4,0-0.7-0.3-1l-0.8-0.3c-0.4,0-0.8,0.1-1.1,0.4c-0.4,0.8-0.4,1.7,0,2.5c0.6,0.6,1.4,0.6,1.9,0
								C403.1,132.3,403.1,131.9,403.1,131.5z"/>
							<path class="st49" d="M407.2,133.6c-0.6,0-1.1-0.1-1.5-0.6c-1-0.8-1-2.2-0.3-3.2c0.4-0.6,1.1-0.8,1.9-0.7
								c0.6,0,1.1,0.1,1.5,0.6c0.4,0.4,0.6,1.1,0.6,1.7c0,0.7-0.3,1.2-0.7,1.7C408.3,133.4,407.8,133.7,407.2,133.6z M407.2,129.7
								c-0.4,0-0.7,0.1-1,0.4c-0.6,0.7-0.6,1.8,0,2.5c0.3,0.3,0.6,0.4,1,0.4s0.8-0.1,1.1-0.4c0.3-0.3,0.3-0.7,0.3-1.2s0-1-0.3-1.2
								C408.1,129.8,407.6,129.7,407.2,129.7z"/>
							<path class="st49" d="M415,133.4h-0.8l-1.4-2.2v-0.3h-0.1v0.3l-1.4,2.2h-0.8l1.9-2.9l-1.8-3h0.8l1.2,2.1l0.3,0.4l0,0
								c0-0.1,0.1-0.3,0.1-0.4l1.4-2.1h0.8l-1.9,2.9L415,133.4z"/>
							<path class="st49" d="M416.3,128H416c-0.1,0-0.1-0.1-0.1-0.3c0-0.1,0-0.3,0.1-0.3h0.6c0.1,0,0.1,0.1,0.1,0.3
								c0,0.1,0,0.3-0.1,0.3H416.3z M416.6,133.4h-0.7v-4.3h0.7V133.4z"/>
							<path class="st49" d="M418,133.3v-0.7c0.4,0.3,0.8,0.4,1.2,0.4c0.6,0,1-0.3,1-0.6V132h-1l-0.4-0.3l-0.4-0.3
								c-0.1-0.1-0.1-0.1-0.1-0.3c-0.1-0.1-0.1-0.3-0.1-0.4c0-0.3,0-0.4,0.1-0.6l0.4-0.4l0.6-0.3h1.5v0.7l-1.1-0.3h-0.6
								c-0.1,0-0.1,0-0.1,0.1l0,0c-0.1,0.1-0.1,0.1-0.1,0.3s0,0.3,0.1,0.3s0,0.1,0.1,0.3h0.7l0.4,0.3h0.4l0.3,0.4
								c0,0.1,0.1,0.3,0.1,0.4c0,0.1-0.1,0.4-0.1,0.6l-0.4,0.4l-0.6,0.3h-0.7C418.8,133.4,418.4,133.4,418,133.3z"/>
							<path class="st49" d="M425.2,133.4h-0.7v-0.6l0,0c-0.3,0.4-0.8,0.7-1.4,0.7l-1-0.3c-0.3-0.3-0.3-0.6-0.3-1
								c0-0.8,0.4-1.2,1.4-1.4h1.2c0-0.8-0.3-1.1-0.8-1.1c-0.6,0-1,0.1-1.4,0.6v-0.8l1.4-0.3c0.7-0.1,1.4,0.4,1.5,1.2
								c0,0.1,0,0.1,0,0.3L425.2,133.4z M424.5,131.4h-1.8c-0.1,0.1-0.1,0.4-0.1,0.7c0,0.1,0,0.4,0.1,0.4l0.7,0.3l0.8-0.4
								C424.4,132.1,424.5,131.8,424.5,131.4L424.5,131.4z"/>
							<path class="st49" d="M428.8,127.8h-0.4c-0.4,0-0.7,0.3-0.7,1v0.6h1v0.7h-1v3.6H427v-3.6h-0.7v-0.7h0.7v-0.7
								c0-0.4,0.1-0.7,0.4-1c0.3-0.3,0.6-0.4,1-0.4h0.4V127.8L428.8,127.8z"/>
							<path class="st49" d="M433.1,131.5h-3c0,0.4,0.1,0.8,0.4,1.1s0.6,0.4,1,0.4c0.6,0,1-0.1,1.4-0.6v0.7c-0.4,0.3-1,0.4-1.5,0.4
								c-0.6,0-1-0.1-1.4-0.6c-0.7-1-0.7-2.3,0-3.3c0.7-0.8,1.9-0.8,2.8,0l0,0c0.3,0.4,0.4,0.8,0.4,1.4L433.1,131.5z M432.4,130.9
								c0-0.3-0.1-0.7-0.3-1l-0.8-0.3l-0.8,0.3l-0.4,1H432.4z"/>
							<path class="st3" d="M381.4,130c-0.1,0-0.1,0-0.1-0.1l0,0c-0.3-0.8-0.8-1.7-1.5-2.1c-0.7-0.3-1.5-0.4-2.3-0.1h-0.3
								c-0.1-0.1,0-0.3,0.1-0.3c1-0.4,1.9-0.3,2.8,0.3c0.8,0.4,1.5,1.2,1.7,2.2c0,0.1,0,0.3-0.1,0.3L381.4,130z"/>
							<path class="st3" d="M380.4,130.3c-0.1,0-0.1,0-0.1-0.1l0,0c-0.1-0.6-0.4-1.1-1-1.4c-0.6-0.3-1.1-0.4-1.7-0.3
								c0,0.1,0,0.1-0.1,0.1s-0.1,0-0.1-0.1s0-0.3,0.1-0.3c0.7-0.3,1.4-0.1,1.9,0.1c0.7,0.3,1.1,1,1.2,1.7
								C380.7,130.1,380.7,130.3,380.4,130.3L380.4,130.3z"/>
							<path class="st3" d="M380.3,131.1H380c-0.1-0.4-0.6-0.7-1-0.7h-0.3c-0.3-0.4-0.8-0.8-1.4-0.8c-1,0-1.7,0.7-1.7,1.7l0,0l0,0
								c-0.4,0.3-0.8,0.7-0.8,1.2c0,0.6,0.4,1,0.8,1.1h5c0.6-0.1,1-0.7,1-1.2c0-0.7-0.6-1.2-1.2-1.2
								C380.4,131.1,380.3,131.1,380.3,131.1z M380.4,133.3h-4.3c-0.4,0-0.7-0.4-0.7-0.8c0-0.4,0.3-0.7,0.7-0.7h0.3
								c-0.1-0.1-0.3-0.4-0.3-0.6c0-0.7,0.6-1.2,1.2-1.2s1.1,0.6,1.1,1.1h0.6c0.4,0,0.7,0.3,0.7,0.7l0,0l0.6-0.3
								c0.4-0.3,1.1,0,1.2,0.4c0.3,0.4,0,1.1-0.4,1.2C380.8,133.3,380.7,133.4,380.4,133.3L380.4,133.3z"/>
							<path class="st3" d="M379.3,130c-0.1,0-0.1,0-0.1-0.1l0,0c-0.1-0.3-0.6-0.6-0.8-0.4h-0.1c0-0.1,0-0.3,0.1-0.3
								C378.8,129.2,379.2,129.4,379.3,130L379.3,130L379.3,130z"/>
						</g>
					</g>
				</g>
			</g>
		</g>
	</g>
	<polygon class="st12" points="645.3,160.5 644.9,160.9 643.9,160.7 644.8,160 	"/>
	<path class="st12" d="M646.3,156.8l5-4.3c0.3-0.1,0.6-0.1,0.8,0.1l0.6,0.6c0.3,0.1,0.3,0.6,0,0.8l0,0l-4.3,5l0,0l-0.4,0.6h-1.2
		l-0.8,0.7l-0.7-0.6l0.7-1v-1.4L646.3,156.8z"/>
	<polyline class="st12" points="642.7,163 643.8,162 652.8,162 651.8,163 	"/>
	<path class="st12" d="M647.8,165.9c-2.6-0.1-4.8,1.9-5.1,4.6c0,1,0.3,1.9,1,2.6l-1,2.9l3.6-1.2l1.5,0.3c2.5,0,4.6-2.1,4.6-4.6
		C652.4,168,650.3,165.9,647.8,165.9z M647.8,174.1h-1.5l-2.3,0.7l0.6-1.9c-0.6-0.6-1-1.4-1-2.2c0.1-2.1,1.9-3.7,4.1-3.6l0,0
		c2.1-0.3,4,1.2,4.3,3.5v0.1C651.7,172.7,649.9,174.2,647.8,174.1L647.8,174.1z"/>
	<rect x="645.2" y="169.9" class="st12" width="1" height="1"/>
	<rect x="649.3" y="169.9" class="st12" width="1" height="1"/>
	<rect x="647.2" y="169.9" class="st12" width="1" height="1"/>
	<path class="st12" d="M648.4,187.9c-0.6-0.1-1-0.4-1.2-0.8v0.6c0,0.4,0,0.7-0.3,0.8h-1.1v0.7h3.9v-0.7h-1.2
		C648.4,188.3,648.4,188.2,648.4,187.9z"/>
	<path class="st12" d="M647.1,183.6c0.3-0.4,0.7-0.7,1.2-1v-2.1h1.7c0.4,0,0.8,0,1.1,0.3c0.4,0.4,0.8,1,1,1.5l0.7-0.3l-0.8-2.9h-8.5
		l-0.8,2.9h0.7c0.3-0.6,0.6-1,0.8-1.4c0.4-0.3,0.8-0.3,1.2-0.3h1.7L647.1,183.6L647.1,183.6z"/>
	<path class="st12" d="M651.3,186.5c0.3-0.4,0.4-0.8,0.4-1.2c0-1.2-1-2.2-2.2-2.2l0,0c-1.2,0-2.2,1-2.2,2.2s1,2.2,2.2,2.2l0,0
		l1.1-0.3l1.5,1.5l0.7-0.7L651.3,186.5z M649.5,186.5c-0.7,0-1.2-0.6-1.2-1.2s0.6-1.2,1.2-1.2s1.2,0.6,1.2,1.2l0,0
		C650.7,185.9,650.1,186.5,649.5,186.5z"/>
	<path class="st12" d="M646.6,200.5L646.6,200.5l-0.7-0.3h-0.3l-0.7,0.6l-0.7-0.7l0.6-0.7v-0.3c-0.1-0.1-0.1-0.3-0.3-0.6l0,0
		l-0.8-0.3v-1h0.8v-0.3c0.1-0.1,0.1-0.3,0.3-0.6h0.1l-0.6-0.7l0.7-0.7l0.7,0.4h1l0.3-0.8h0.4v-0.7h-1l-0.3,1h-0.3l-1-0.6l-1.5,1.5
		l0.6,0.8c0,0.1,0,0.3-0.1,0.3l-1,0.3v2.1l1,0.3v0.3l-0.6,1l1.5,1.5l1-0.6h0.3l0.3,1h1v-0.8h-0.4L646.6,200.5z"/>
	<path class="st12" d="M647.2,196.4v-0.8c-1.1,0-1.9,0.8-1.9,1.9s0.8,1.9,1.9,1.9v-0.7c-0.6,0-1.1-0.6-1.1-1.1
		C646.1,197,646.7,196.4,647.2,196.4z"/>
	<path class="st12" d="M651.4,193h-2.3v-0.6h-0.7v10.1h0.7v-0.4h2.3c0.8,0,1.4-0.6,1.4-1.4v-6.4c0.1-0.7-0.4-1.2-1.1-1.4
		C651.5,193,651.5,193,651.4,193z M650.4,194.4c0.6,0,1.1,0.6,1.1,1.1c0,0.6-0.6,1.1-1.1,1.1s-1.1-0.6-1.1-1.1
		C649.3,194.9,649.9,194.4,650.4,194.4L650.4,194.4z M649,201v-1.7l0.7,1.1l0.8-1.2l1.2,1.8L649,201L649,201z"/>
	<polygon class="st12" points="652.9,267.8 652.9,266.2 651.9,266.2 651.9,267.8 650.3,267.8 650.3,268.9 651.9,268.9 651.9,270.4 
		652.9,270.4 652.9,268.9 654.4,268.9 654.4,267.8 	"/>
	<polygon class="st12" points="648.2,267.5 647.7,267.1 646.1,268.6 645.7,268.2 645.3,268.6 646.1,269.5 	"/>
	<path class="st12" d="M644.8,264.7h9.3c0.3,0,0.4-0.3,0.4-0.6v-3c0-0.3-0.1-0.6-0.4-0.6h-9.3c-0.3,0-0.6,0.3-0.6,0.6v3
		C644.2,264.4,644.5,264.7,644.8,264.7z M644.9,261.3h8.8v2.6h-8.8V261.3z"/>
	<path class="st12" d="M648.8,265.7h-4c-0.3,0-0.6,0.3-0.6,0.6v4.1c0,0.3,0.1,0.4,0.6,0.4h4c0.3,0,0.6-0.1,0.6-0.4v-4.1
		C649.3,266,649,265.7,648.8,265.7z M648.5,270.1h-3.6v-3.6h3.6V270.1z"/>
	<path class="st12" d="M647.9,296.9c0.6,0,1.1-0.6,1.1-1.1c-0.1-0.6-0.6-1-1.1-1s-1,0.4-1,1l0,0C647,296.4,647.4,296.8,647.9,296.9z
		"/>
	<path class="st12" d="M651,292.3h-0.6v-1c0-1.4-1.1-2.5-2.5-2.5s-2.5,1.1-2.5,2.5v1h-0.6c-0.6,0-1,0.4-1,1v5.1c0,0.6,0.4,1,1,1h6.1
		c0.6,0,1-0.4,1-1l0,0v-5.1C651.9,292.8,651.5,292.3,651,292.3L651,292.3z M646.4,291.4c0-0.8,0.7-1.5,1.5-1.5s1.5,0.7,1.5,1.5v1h-3
		V291.4z M651,298.4h-6.1v-5.1h6.1V298.4z"/>
	<path class="st12" d="M647.9,214.1c-1.2,0-2.5-0.8-3-1.9h2.6l0.4-1h-3.3v-1h3.7l0.4-1h-3.9c0.6-1.1,1.8-1.9,3-1.9
		c1,0,1.9,0.6,2.5,1.2v-1.2c-0.7-0.7-1.5-1-2.5-1c-1.8,0-3.5,1.2-4,2.9h-0.7l-0.6,1h1.1v1H643l-0.6,1h1.2c0.6,1.7,2.2,2.9,4,2.9
		c1,0,1.8-0.3,2.5-1v-1.2C649.9,213.6,648.9,214.1,647.9,214.1z"/>
	<polygon class="st12" points="651.8,210.4 651.8,209.3 651,209.3 651,210.4 649.9,210.4 649.9,211.1 651,211.1 651,212.2 
		651.8,212.2 651.8,211.1 652.8,211.1 652.8,210.4 	"/>
	<path class="st12" d="M646.8,282.3h-0.3l-0.6-0.3h-0.1l-0.8,0.4l-0.7-0.7l0.6-0.7h-0.1c-0.1-0.3-0.1-0.4-0.3-0.6v-0.3l-0.8-0.3V279
		l0.8-0.3l0,0l0.3-0.7h0.1l-0.6-0.7l0.7-0.7l0.8,0.4h0.1l0.6-0.3h0.3v-0.8h0.6v-0.8h-1.1l-0.3,1.1h-0.3l-1-0.4l-1.5,1.5l0.6,0.8
		c0,0.1,0,0.3-0.1,0.3l-1,0.3v1.5l1,0.3c0.1,0,0.1,0.1,0.1,0.3l-0.6,0.8l1.5,1.5l1-0.4h0.3l0.3,1.1h1.1V283h-0.6V282.3z"/>
	<path class="st12" d="M647.5,278.1v-0.8c-1.1,0-1.9,0.8-1.9,1.9s0.8,1.9,1.9,1.9v-0.8c-0.6,0-1.1-0.6-1.1-1.1
		S647,278.1,647.5,278.1z"/>
	<path class="st12" d="M651.1,274.5h-1.6v-0.4h-1v10.4h1v-0.6h2.8c0.6,0,1-0.4,1-1v-6.5L651.1,274.5z M651,275.5l1.1,1.1H651V275.5z
		 M652.2,283.1h-2.7v-0.7l0,0v-7h0.7v2.2h2.1L652.2,283.1L652.2,283.1z"/>
	<path class="st12" d="M647.4,308.9c1,0,1.7-0.7,1.7-1.7l0,0v-2.6c0-0.3-0.3-0.6-0.6-0.6h-3.9c-0.3,0-0.4,0.1-0.4,0.4v4
		c0,0.3,0.1,0.4,0.4,0.4L647.4,308.9z M645.2,305.1h2.9v2.2c-0.1,0.3-0.3,0.7-0.7,0.7h-2.2V305.1z"/>
	<path class="st12" d="M652.6,303.5c0-0.6-0.4-0.8-0.8-1h-6.5c-0.4,0-0.7,0.4-0.7,1H652.6L652.6,303.5z"/>
	<path class="st12" d="M644.6,309.6c0,0.4,0.3,0.8,0.7,1h5.3v1.5h2.1v-2.5H644.6z"/>
	<path class="st12" d="M652.1,305.8l-1.4,0.7c-0.1,0.1-0.3,0.4-0.1,0.6c0.1,0.1,0.3,0.3,0.6,0.3l1.4-0.6c0.1-0.1,0.1-0.6,0-0.7
		L652.1,305.8z"/>
	<path class="st12" d="M652.1,304l-1.4,0.7c-0.1,0.1-0.3,0.4-0.1,0.6c0.1,0.1,0.3,0.3,0.6,0.3l1.2-0.6c0.3-0.1,0.3-0.4,0.1-0.7
		S652.2,304,652.1,304z"/>
	<path class="st12" d="M652.1,307.5l-1.4,0.7c-0.1,0.1-0.3,0.3-0.1,0.6s0.3,0.3,0.6,0.3l1.4-0.6c0.1-0.1,0.1-0.6,0-0.7L652.1,307.5z
		"/>
	<rect x="668.1" y="153.6" class="st12" width="35.7" height="3.5"/>
	<rect x="668.1" y="182.5" class="st12" width="35.7" height="3.5"/>
	<rect x="668.1" y="168" class="st12" width="35.7" height="3.5"/>
	<rect x="668.1" y="196.9" class="st12" width="35.7" height="3.5"/>
	<rect x="668.1" y="211.4" class="st12" width="35.7" height="3.5"/>
	<rect x="668.1" y="255.5" class="st12" width="35.7" height="3.5"/>
	<rect x="668.1" y="273" class="st12" width="35.7" height="3.5"/>
	<rect x="668.1" y="290.6" class="st12" width="35.7" height="3.5"/>
	<rect x="668.1" y="308.1" class="st12" width="35.7" height="3.5"/>
	<rect x="632.5" y="221" class="st9" width="101.8" height="25.4"/>
	<polygon class="st3" points="659.4,230.4 657.1,230.4 659.3,232.7 659.3,232.7 657.1,232.7 654.8,232.7 654.8,234.9 657.1,234.9 
		659.3,234.9 659.3,234.9 657.1,237.1 659.4,237.1 662.6,233.8 	"/>
	<path class="st3" d="M650.3,241.5c-2.9,0-5.7-1.7-6.9-4.4h6.1l0.8-2.2h-7.5v-2.2h8.4l0.8-2.2h-8.7c1.2-2.8,3.9-4.6,6.9-4.6
		c2.3,0.1,4.6,1.2,5.9,3v-3c-1.7-1.4-3.7-2.1-5.9-2.2c-4.1,0.1-7.9,2.8-9.3,6.8h-1.7l-1.1,2.2h2.3v2.2h-1.2l-1.1,2.2h2.8
		c1.4,3.9,5.1,6.6,9.3,6.6c2.2,0,4.3-0.7,5.9-2.1v-3C654.8,240.4,652.6,241.5,650.3,241.5z"/>
	<rect x="668.1" y="231.7" class="st50" width="35.7" height="3.5"/>
	<path class="st51" d="M737.6,78.2H364.4c-7.9,0-14.2,6.4-14.2,14.2v244.3h401.7V92.4C751.9,84.5,745.5,78.2,737.6,78.2z
		 M734.7,319.6H367.3V95.3h367.4L734.7,319.6L734.7,319.6z"/>
	<path class="st9" d="M737.6,381.5H364.4c-7.9,0-14.2-6.4-14.2-14.2v-30.6h401.7v30.5C751.9,375.1,745.5,381.5,737.6,381.5
		L737.6,381.5z"/>
	
		<linearGradient id="SVGID_15_" gradientUnits="userSpaceOnUse" x1="545.3" y1="-2211.9541" x2="545.3" y2="-2257.1816" gradientTransform="matrix(1 0 0 -1 0 -1831.3071)">
		<stop  offset="0" style="stop-color:#CED6DD"/>
		<stop  offset="0.25" style="stop-color:#DEE3E8"/>
		<stop  offset="0.4" style="stop-color:#F2F4F6"/>
		<stop  offset="0.64" style="stop-color:#EFF1F4"/>
		<stop  offset="0.74" style="stop-color:#CED6DD"/>
		<stop  offset="0.85" style="stop-color:#FFFFFF"/>
		<stop  offset="1" style="stop-color:#555A5F"/>
	</linearGradient>
	<path class="st52" d="M609.7,418.5c0,0-13.1-11.9-14.5-17.1s0-19.9,0-19.9h-99.7c0,0,1.8,12.7,0,19.5s-14.6,17.5-14.6,17.5
		c-1.7,0-2.9,1.2-2.9,2.9l0,0c0.1,1.5,1.4,2.8,2.9,2.9h128.8c1.7,0,2.9-1.2,2.9-2.9l0,0C612.6,419.8,611.3,418.5,609.7,418.5
		L609.7,418.5z"/>
	<path class="st9" d="M594.9,143.5H482.4l0.3,173.1h97.4c8.3,0,14.9-6.6,14.9-14.9v-0.1L594.9,143.5z"/>
	<path class="st53" d="M482.5,316.8L482.5,316.8V143.7H595l0.3,158.1c0,4-1.7,7.9-4.4,10.6c-2.8,2.9-6.6,4.4-10.6,4.4H482.5z
		 M482.5,143.8v172.9h97.4c8.3,0,14.9-6.6,14.9-14.9l-0.3-157.9L482.5,143.8L482.5,143.8z"/>
	<path class="st11" d="M562.5,295.2l3.2-2.1l1.5-1.2c0.6-0.4,1-0.8,1.2-1.4l0.3-0.4v-0.3l-0.3-0.3h-0.3l-0.7,0.3
		c-0.3,0.1-0.6,0.4-0.7,0.7l-1.1,1.4c-0.3,0.6-0.6,1.1-0.7,1.7v0.8h0.3l0.3-0.3c0.6-0.4,1.1-0.8,1.7-1.1h1v0.6h-0.1l-0.3,0.4h1.5
		l1.9-0.8l1.7-1l0.7-0.7c0.3-0.1,0.4-0.4,0.4-0.7c0.1-0.3,0.3-0.6,0.1-0.8c0-0.3-0.3-0.4-0.4-0.7l0,0l-0.3,0.3
		c-0.3,0.1-0.4,0.4-0.6,0.7l-1.1,1.2l-1.8,2.9c0,0.3-0.1,0.6-0.3,0.8h-0.3l1.7-0.8l1.5-0.8l0.8-0.3l0.4-0.3h0.4
		c0.1-0.1,0.3,0,0.4,0.1l0,0l0,0c0.1,0.3,0,0.4,0,0.6l-0.3,0.3l-0.4,0.6l-0.4,0.4l-0.3,0.3v0.3l-0.3-0.4c0.7,0,1.2-0.1,1.8-0.4
		l1.8-0.6l1.8-0.7l1.7-0.8l0,0l-1.5,1l-1.8,0.8l-1.7,0.7l-1.9,0.6c-0.1,0-0.3-0.1-0.3-0.3l0,0l0,0c0-0.3,0-0.3,0.1-0.4l0.3-0.3
		l0.4-0.6l0.4-0.4v-0.3l0,0l0.4,0.3h-0.8l-0.7,0.4l-1.7,0.8l-1.5,0.8h-0.8c-0.1,0-0.1,0-0.1-0.1l0,0c0-0.1,0-0.3,0.1-0.3v-0.3
		l0.4-0.8l1.9-2.9l1-1.4l0.7-0.7l0.3-0.3h0.8c0.3,0.3,0.4,0.6,0.6,1c0,0.4,0,0.7-0.3,1c-0.1,0.3-0.3,0.6-0.6,0.8l-0.8,0.7l-1.7,1
		l-1.9,0.7h-1.8v-0.3h0.1c0-0.1,0.1-0.3,0.3-0.4h0.1c0-0.1,0-0.1-0.1-0.1l0,0h-0.3l-1.5,1.2l-0.4,0.4H565c-0.1,0-0.3-0.1-0.3-0.3
		l0,0c-0.1-0.1-0.3-0.3-0.3-0.6c0-0.1,0-0.3,0.1-0.4c0-0.7,0.3-1.2,0.6-1.8c0.3-0.7,0.7-1.2,1.2-1.7l0.7-0.7l0.4-0.3h1.4l0.4,0.6
		c0,0.3,0,0.4-0.1,0.6c-0.1,0.1-0.1,0.4-0.1,0.6l-0.7,0.8l-0.7,0.6l-1.7,1.2l-1.7,1l-1.8,1l0,0L562.5,295.2z"/>
	<path class="st12" d="M494.3,170.9v0.7c0,0.3,0.1,0.6,0.3,0.6h27.1c0.1,0,0.3-0.3,0.3-0.6v-0.7c0-0.4-0.1-0.7-0.3-0.7h-27.1
		C494.4,170.3,494.3,170.6,494.3,170.9z"/>
	<path class="st12" d="M494.3,165.6v0.7c0,0.3,0.1,0.6,0.3,0.6h27.1c0.1,0,0.3-0.3,0.3-0.7v-0.6c0-0.3-0.1-0.6-0.3-0.6h-27.1
		C494.4,164.9,494.3,165.2,494.3,165.6z"/>
	<path class="st12" d="M494.3,175.6v0.7c0,0.4,0.1,0.6,0.3,0.6h27.1c0.1,0,0.3-0.3,0.3-0.6v-0.7c0-0.3-0.1-0.6-0.3-0.6h-27.1
		C494.4,175,494.3,175.3,494.3,175.6z"/>
	<path class="st12" d="M558.8,170.9v0.7c0,0.3,0.1,0.6,0.3,0.6h27.1c0.1,0,0.1-0.3,0.1-0.6v-0.7c0-0.4,0-0.7-0.1-0.7h-27.1
		C558.9,170.3,558.8,170.6,558.8,170.9z"/>
	<path class="st12" d="M558.8,165.6v0.7c0,0.3,0.1,0.6,0.3,0.6h27.1c0.1,0,0.1-0.3,0.1-0.7v-0.6c0-0.3,0-0.6-0.1-0.6h-27.1
		C558.9,164.9,558.8,165.2,558.8,165.6z"/>
	<path class="st12" d="M558.8,175.6v0.7c0,0.4,0.1,0.6,0.3,0.6h27.1c0.1,0,0.1-0.3,0.1-0.6v-0.7c0-0.3,0-0.6-0.1-0.6h-27.1
		C558.9,175,558.8,175.3,558.8,175.6z"/>
	<path class="st12" d="M496.4,207.4v0.8c0,0.3,0.1,0.6,0.4,0.7H541c0.3,0,0.4-0.3,0.4-0.7v-0.7c0-0.4-0.1-0.7-0.4-0.7h-44.1
		C496.6,206.8,496.4,207.1,496.4,207.4L496.4,207.4z"/>
	<path class="st12" d="M496.4,215.2v0.8c0,0.3,0.3,0.6,0.6,0.6h46.3c0.3,0,0.4-0.3,0.4-0.6v-0.7c0-0.4-0.1-0.7-0.4-0.7H497
		C496.6,214.7,496.4,215,496.4,215.2L496.4,215.2z"/>
	<path class="st12" d="M545.5,215.2v0.7c0,0.1,0,0.4,0.1,0.6h17.3c0.1,0,0.1-0.3,0.1-0.6v-0.6c0-0.4,0-0.7-0.1-0.7h-17.3
		C545.5,214.8,545.5,215.1,545.5,215.2z"/>
	<path class="st12" d="M565.2,215.2v0.7c0,0.3,0.1,0.6,0.3,0.6H580c0.1,0,0.1-0.3,0.1-0.6v-0.8c0-0.3,0-0.6-0.1-0.6h-14.6
		C565.2,214.7,565.2,215,565.2,215.2z"/>
	<path class="st12" d="M496.4,237.5v0.7c0,0.3,0.3,0.7,0.6,0.7h46.3c0.3,0,0.4-0.3,0.4-0.6v-0.8c0-0.3-0.1-0.6-0.4-0.6H497
		C496.6,236.9,496.4,237.2,496.4,237.5L496.4,237.5z"/>
	<path class="st12" d="M545.5,237.5v0.7c0,0.1,0,0.4,0.1,0.6h17.3c0.1,0,0.1-0.3,0.1-0.6v-0.7c0-0.3,0-0.6-0.1-0.6h-17.3
		C545.5,237.1,545.5,237.4,545.5,237.5z"/>
	<path class="st12" d="M565.2,237.5v0.7c0,0.3,0.1,0.6,0.3,0.6H580c0.1,0,0.1-0.3,0.1-0.7v-0.6c0-0.3,0-0.6-0.1-0.6h-14.6
		C565.2,236.9,565.2,237.2,565.2,237.5z"/>
	<path class="st12" d="M496.4,223.1v1c0,0.4,0.4,0.8,0.8,0.8l0,0l81.5,0.3c0.4,0,0.8-0.3,0.8-0.7v-1.1c0-0.4-0.4-0.7-0.8-0.7
		l-81.5-0.4C496.8,222.3,496.4,222.7,496.4,223.1L496.4,223.1z"/>
	<path class="st12" d="M495,249.5v0.4c0,0.3,0.1,0.4,0.4,0.4h50.3c0.3,0,0.6-0.1,0.6-0.3v-0.6c0-0.3-0.3-0.4-0.6-0.4h-50.3
		C495.1,249.1,495,249.2,495,249.5L495,249.5z"/>
	<path class="st13" d="M557.8,298.8v0.3c0,0.1,0.1,0.3,0.3,0.3l0,0h23.8c0.1,0,0.3,0,0.3-0.1V299c0-0.1-0.1-0.3-0.3-0.3l0,0h-23.8
		C558,298.7,557.8,298.7,557.8,298.8z"/>
	<path class="st12" d="M564.8,249.5v0.8h9.4v-1.1h-9.4V249.5z"/>
	<path class="st12" d="M495,258.2v0.4c0,0.3,0.1,0.4,0.4,0.4l50.3,0.3c0.3,0,0.6-0.1,0.6-0.4v-0.6c0-0.3-0.3-0.4-0.6-0.4h-50.3
		C495.2,257.9,495,258.1,495,258.2z"/>
	<path class="st12" d="M564.8,258.4v0.7h9.4V258h-9.4V258.4z"/>
	<path class="st12" d="M495,266.9v0.4c0,0.3,0.1,0.4,0.4,0.4l50.3,0.3c0.3,0,0.6-0.1,0.6-0.4V267c0-0.3-0.3-0.4-0.6-0.4h-50.3
		C495.2,266.6,495,266.8,495,266.9z"/>
	<path class="st7" d="M587,159.8h-14v-0.4h14.1L587,159.8C587.1,159.8,587.1,159.8,587,159.8L587,159.8z"/>
	<path class="st14" d="M584.4,154.2c-0.1,2.1-1.8,3.7-3.9,3.6h-0.1c-0.8,0-1.7-0.3-2.3-0.7c-1-0.7-1.7-1.8-1.7-3
		c0.1-2.1,1.9-3.7,4-3.6C582.4,150.4,584.2,152.1,584.4,154.2z"/>
	<g>
		<g>
			<g>
				<g>
					<g>
						<defs>
							<path id="SVGID_16_" d="M584.4,154.2c-0.1,2.1-1.8,3.7-3.9,3.6h-0.1c-0.8,0-1.7-0.3-2.3-0.7c-1-0.7-1.7-1.8-1.7-3
								c0.1-2.1,1.9-3.7,4-3.6C582.4,150.4,584.2,152.1,584.4,154.2z"/>
						</defs>
						<clipPath id="SVGID_17_">
							<use xlink:href="#SVGID_16_"  style="overflow:visible;"/>
						</clipPath>
						<g class="st54">
							<path class="st7" d="M580.4,153.6c0.6,0-2.8,3.6,1.1,3.2c1.2-0.1,0.3,1.1,0.3,1.1c-2.3,0.8-5-0.4-5.9-2.8
								C575.8,151,580.4,153.6,580.4,153.6z"/>
						</g>
					</g>
				</g>
			</g>
		</g>
	</g>
	<path class="st12" d="M578.2,251.7l-1,0.3c-0.8,0.1-1.5-0.6-1.7-1.4v-0.1h-0.4v-0.4h0.3v-0.7h-0.3V249h0.4c0.1-0.4,0.3-0.8,0.6-1.1
		c0.4-0.3,0.8-0.4,1.2-0.4l0.7,0.3v0.4l-0.8-0.3c-0.3,0-0.4,0.1-0.7,0.4c-0.3,0.1-0.4,0.4-0.4,0.7h1.7v0.4H576v0.6h1.8v0.4h-1.7
		c0.1,0.7,0.6,1.1,1.1,1.1l1-0.3L578.2,251.7L578.2,251.7z"/>
	<path class="st12" d="M577.6,260.3h-1c-0.8,0-1.5-0.7-1.7-1.5h-0.4v-0.4h0.4v-0.6h-0.4v-0.4h0.4c0-0.6,0.3-1,0.7-1.2
		c0.3-0.3,0.6-0.3,1.1-0.3h0.8v0.4h-1c-0.3,0-0.6,0.1-0.7,0.3c-0.1,0.3-0.3,0.6-0.4,0.8h1.7v0.4h-1.6c-0.1,0.1-0.1,0.4,0,0.6h1.7
		v0.4h-1.7c0.1,0.7,0.6,1.1,1.2,1.1l0.8-0.3L577.6,260.3z"/>
	<path class="st14" d="M577.6,269.7l-1,0.3c-0.8,0-1.5-0.7-1.7-1.5h-0.4v-0.4h0.4v-0.6h-0.4v-0.4h0.4c0.1-0.4,0.3-0.8,0.7-1.1
		c0.3-0.3,0.7-0.4,1.1-0.4l0.8,0.3v0.4l-1-0.3l-0.7,0.4c-0.1,0.3-0.3,0.6-0.4,0.8h1.7v0.4h-1.6c-0.1,0.1-0.1,0.3,0,0.6h1.7v0.4h-1.7
		c0.1,0.7,0.6,1.1,1.2,1.1l0.8-0.3L577.6,269.7z"/>
	<path class="st14" d="M500.4,233.3h-0.9l-1.1-1.9v-0.3h-0.1v0.3l-1.2,1.9h-0.7l1.7-2.5l-1.5-2.5h0.7l1,1.8l0.3,0.3l0,0v-0.3
		l1.1-1.8h0.6l-1.5,2.5L500.4,233.3z"/>
	<path class="st14" d="M504.4,233.3h-0.7l-1.1-1.9v-0.3l0,0v0.3l-1.1,1.9h-0.7l1.7-2.5l-1.5-2.5h0.7l1,1.8v0.3h0.1v-0.3l1-1.8h0.7
		l-1.5,2.5L504.4,233.3z"/>
	<path class="st14" d="M508,230.6c0,0.4,0,0.8-0.1,1.2l-0.4,0.8l-0.6,0.6h-1.8v-0.5l1,0.3h0.6l0.4-0.4c0.1-0.1,0.3-0.4,0.3-0.7
		c0.1-0.1,0.1-0.6,0.1-0.8l0,0c-0.3,0.4-0.7,0.7-1.1,0.7h-0.6l-0.6-0.3c-0.1-0.1-0.1-0.4-0.3-0.6v-0.6c0-0.3,0.1-0.4,0.1-0.7
		l0.4-0.6l0.4-0.3h1.4l0.4,0.4c0.1,0.1,0.3,0.4,0.3,0.7C508,230.2,508,230.3,508,230.6z M507.4,230v-0.4c0-0.1,0-0.3-0.1-0.4
		l-0.4-0.3h-1l-0.3,0.4v0.8l0.3,0.4h0.7c0.1,0,0.3,0,0.3-0.1h0.4v-0.7L507.4,230z"/>
	<path class="st14" d="M508.6,232v-0.8c0.1,0,0.3-0.1,0.3-0.3l0,0h0.4l-0.6-0.6v-0.6c0-0.3,0-0.4,0.1-0.6l0.3-0.4l0.4-0.3h1.1
		l0.4,0.3l0.3,0.4c0.1,0.1,0.1,0.3,0.1,0.6c0,0.1,0,0.4-0.1,0.6c-0.1,0.3-0.3,0.4-0.6,0.6h0.4c0.1,0.1,0.1,0.3,0.3,0.3v0.4
		c0,0.1,0.1,0.3,0.1,0.4v0.6l-0.4,0.4l-0.4,0.4h-1.2l-0.4-0.4l-0.4-0.4L508.6,232z M509.2,231.8c0,0.3,0,0.4,0.1,0.4
		c0,0.1,0,0.3,0.1,0.4h1.4l0.3-0.4v-0.7l-0.3-0.4h-1.3c-0.1,0.1-0.1,0.3-0.1,0.4C509.2,231.5,509.2,231.7,509.2,231.8z M509.3,229.6
		c0,0.1,0,0.3,0.1,0.3s0,0.3,0.1,0.3l0.3,0.3h0.6c0.1-0.1,0.3-0.1,0.3-0.3s0.1-0.1,0.3-0.3v-0.6c-0.1-0.1-0.1-0.3-0.3-0.3h-0.3
		c0-0.1-0.1-0.1-0.3-0.1s-0.3,0-0.3,0.1h-0.3c-0.1,0-0.1,0.1-0.1,0.3C509.5,229.5,509.3,229.5,509.3,229.6L509.3,229.6z"/>
	<path class="st14" d="M516.4,233.3h-0.6V229h-0.4c-0.1,0.1-0.3,0.1-0.3,0.3h-0.4v-0.6h0.8l0.4-0.3h0.4L516.4,233.3L516.4,233.3z"/>
	<path class="st14" d="M521.1,231.8c0,0.3-0.1,0.4-0.1,0.7l-0.4,0.4l-0.6,0.4h-1.7v-0.6l1,0.3h0.8c0.1-0.1,0.3-0.3,0.3-0.4v-0.4
		c0-0.3-0.1-0.6-0.4-0.7c-0.1-0.3-0.6-0.3-1-0.3h-0.8l0.3-2.5h2.3v0.6H519v1.4h1.2l0.6,0.3l0.3,0.4
		C520.9,231.4,521.1,231.5,521.1,231.8z"/>
	<path class="st14" d="M525,228.8l-0.3,0.4c-0.1,0.3-0.3,0.4-0.3,0.7c-0.1,0.3-0.3,0.6-0.4,0.8l-0.4,0.8c0,0.3-0.1,0.6-0.3,0.8
		c0,0.3-0.1,0.7-0.1,1h-0.6c0-0.3,0.1-0.7,0.1-1l0.3-0.8l0.4-0.8c0.1-0.3,0.1-0.6,0.3-0.8l0.4-0.6v-0.4h-2.5v-0.6h3.3L525,228.8
		L525,228.8z"/>
	<path class="st14" d="M529.7,233.3h-0.6V229h-0.4l-0.4,0.3H528v-0.6h0.8l0.3-0.3h0.6L529.7,233.3z"/>
	<path class="st14" d="M531.3,232v-0.8c0.1,0,0.3-0.1,0.3-0.3l0,0h0.4c-0.1-0.1-0.4-0.3-0.4-0.6l-0.3-0.6c0-0.3,0-0.4,0.1-0.6
		l0.3-0.4l0.4-0.3h1.1l0.4,0.3l0.3,0.4c0.1,0.1,0.1,0.3,0.1,0.6c0,0.1,0,0.4-0.1,0.6l-0.6,0.6h0.4l0.3,0.3v0.4
		c0,0.1,0.1,0.3,0.1,0.4v0.6l-0.4,0.4l-0.4,0.4h-1.4l-0.4-0.4l-0.4-0.4L531.3,232z M531.9,231.8c0,0.3,0,0.4,0.1,0.4
		c0,0.1,0,0.3,0.1,0.4h1.4l0.3-0.4v-0.7l-0.3-0.4h-1.4c-0.1,0.1-0.1,0.3-0.1,0.4C531.9,231.5,531.9,231.7,531.9,231.8z M532,229.6
		c0,0.1,0,0.3,0.1,0.3s0,0.3,0.1,0.3l0.3,0.3h0.6c0.1-0.1,0.3-0.1,0.3-0.3l0.3-0.3v-0.6l-0.3-0.3h-0.3c0-0.1-0.1-0.1-0.3-0.1
		s-0.3,0-0.3,0.1h-0.3c-0.1,0-0.1,0.1-0.1,0.3S532,229.5,532,229.6L532,229.6z"/>
	<path class="st14" d="M538.2,228.8l-0.3,0.4l-0.4,0.7c-0.1,0.3-0.3,0.6-0.3,0.8l-0.4,0.8l-0.3,0.8c-0.1,0.3-0.1,0.7-0.1,1h-0.7
		c0.1-0.3,0.1-0.7,0.3-1c0-0.3,0.1-0.6,0.3-0.8c0.1-0.3,0.3-0.6,0.3-0.8l0.4-0.8c0.1-0.1,0.1-0.4,0.3-0.6l0.3-0.4h-2.5v-0.6h3.2
		L538.2,228.8z"/>
	<path class="st14" d="M539,231.1l0.3-0.3h0.4c-0.3-0.1-0.4-0.3-0.6-0.6c-0.1-0.1-0.1-0.4-0.1-0.6V229l0.4-0.4l0.4-0.3h1.1l0.4,0.3
		l0.3,0.4c0,0.1,0.1,0.3,0.1,0.6c0,0.1-0.1,0.4-0.3,0.6l-0.4,0.6h0.3l0.3,0.3l0.3,0.4v0.4c0,0.1,0,0.4-0.1,0.6l-0.3,0.4l-0.6,0.4
		h-1.2l-0.6-0.4l-0.3-0.4c-0.1-0.1-0.1-0.4-0.1-0.6 M539.5,231.8v0.4c0,0.1,0.1,0.3,0.1,0.4h1.5c0-0.1,0.1-0.3,0.1-0.4
		s0.1-0.1,0.1-0.4v-0.7h-1.4l-0.3,0.4L539.5,231.8z M539.6,229.6v0.3c0.1,0.1,0.1,0.3,0.3,0.3s0.1,0.1,0.1,0.3h0.7l0.3-0.3v-0.6
		c0-0.1,0-0.1-0.1-0.3V229h-1.2L539.6,229.6L539.6,229.6z"/>
	<path class="st14" d="M547.1,228.4v3.3h0.7v0.4h-0.7v1.2h-0.6v-1.2h-2.3v-0.4l0.7-0.8l0.7-0.8l0.6-0.8l0.4-0.8L547.1,228.4z
		 M544.9,231.7h1.7v-2.5l-0.4,0.8l-0.7,0.7c-0.1,0.1-0.3,0.3-0.3,0.6L544.9,231.7z"/>
	<path class="st14" d="M548.3,232v-0.8c0.1,0,0.1-0.1,0.3-0.3h0.4c-0.1-0.1-0.4-0.3-0.6-0.6c-0.1-0.1-0.1-0.4-0.1-0.6
		c0-0.3,0-0.4,0.1-0.6l0.3-0.4l0.4-0.3h1.1l0.4,0.3l0.3,0.4c0.1,0.1,0.1,0.3,0.1,0.6v0.6c-0.1,0.3-0.4,0.4-0.6,0.6h0.4
		c0.1,0.1,0.1,0.3,0.3,0.3v1.4l-0.4,0.4l-0.4,0.4h-1.4l-0.4-0.4l-0.4-0.4L548.3,232z M548.9,231.8v0.4l0.3,0.4h1.4l0.3-0.4v-0.7
		l-0.3-0.4h-1.4l-0.3,0.4V231.8z M549,229.6c0,0.1,0,0.3,0.1,0.3s0,0.3,0.1,0.3s0.1,0.1,0.3,0.3h0.6c0.1-0.1,0.3-0.1,0.3-0.3
		s0.1-0.1,0.1-0.3c0-0.1,0.1-0.1,0.1-0.3c0-0.1,0-0.3-0.1-0.3s0-0.3-0.1-0.3h-0.3c0-0.1-0.1-0.1-0.3-0.1s-0.3,0-0.3,0.1h-0.3
		c-0.1,0-0.1,0.1-0.1,0.3S549,229.5,549,229.6L549,229.6z"/>
	<path class="st14" d="M561.6,266.9c0,0.6,0,1.1-0.1,1.7c-0.1,0.4-0.3,0.8-0.6,1.1c-0.1,0.4-0.4,0.7-0.8,0.8l-1.1,0.3l-1.1-0.3v-0.7
		l1.1,0.3h0.8l0.6-0.6l0.4-0.8c0-0.4,0.1-0.8,0.1-1.2l0,0c-0.3,0.6-0.8,0.8-1.5,0.8h-0.9l-0.6-0.4l-0.4-0.7
		c-0.1-0.3-0.1-0.6-0.1-0.8c0-0.3,0.1-0.6,0.1-0.8l0.4-0.7c0.3-0.3,0.4-0.4,0.7-0.4l0.8-0.3l1,0.3l0.6,0.6c0.3,0.3,0.4,0.6,0.4,1
		C561.6,266.2,561.6,266.6,561.6,266.9z M560.7,266.2v-0.7c-0.1-0.1-0.1-0.4-0.3-0.6l-0.4-0.3h-1.1l-0.4,0.3l-0.3,0.4v1.2l0.3,0.4
		l0.4,0.4h1.1l0.4-0.3l0.3-0.4V266.2z"/>
	<path class="st14" d="M566.7,266.9c0,0.6-0.1,1.1-0.1,1.7l-0.6,1.1l-0.8,0.8l-1.1,0.3l-1.2-0.3v-0.7l1.2,0.3h0.7l0.7-0.6
		c0.1-0.3,0.3-0.6,0.3-0.8c0.1-0.4,0.1-0.8,0.1-1.2l0,0c-0.3,0.6-0.8,0.8-1.4,0.8h-0.8l-0.6-0.4c-0.3-0.1-0.4-0.4-0.4-0.7
		c-0.1-0.1-0.1-0.4-0.1-0.8c0-0.3,0-0.6,0.1-0.8l0.4-0.7c0.1-0.3,0.4-0.4,0.7-0.4l0.8-0.3l0.8,0.3c0.3,0.1,0.6,0.3,0.7,0.6l0.4,1
		C566.7,266.2,566.7,266.6,566.7,266.9z M565.9,266.2c0-0.3,0-0.4-0.1-0.7c0-0.1-0.1-0.4-0.3-0.6l-0.4-0.3h-1l-0.4,0.3l-0.3,0.4
		c0,0.3-0.1,0.4-0.1,0.7s0.1,0.4,0.1,0.6s0.1,0.4,0.3,0.4l0.4,0.4h1l0.4-0.3c0.1-0.1,0.3-0.3,0.3-0.4S565.9,266.5,565.9,266.2z"/>
	<path class="st14" d="M568.2,270.7h-0.4c-0.1,0-0.1-0.1-0.1-0.3s0-0.3,0.1-0.4h0.7c0.1,0.1,0.1,0.3,0.1,0.4s0,0.3-0.1,0.3H568.2z"
		/>
	<path class="st14" d="M572.4,268.3h-2.5v-0.6h2.5V268.3z"/>
	<polygon class="st17" points="728.9,245.6 707.2,227.4 711.6,222 728.2,236 761.4,198.7 766.5,203.4 	"/>
</g>
</svg>
