<svg id="elements" xmlns="http://www.w3.org/2000/svg" xmlns:xlink="http://www.w3.org/1999/xlink" viewBox="0 0 277 230"><defs><style>.cls-1{fill:none;}.cls-2{clip-path:url(#clip-path);}.cls-11,.cls-3{fill:#bec8d2;}.cls-3,.cls-4,.cls-5,.cls-6,.cls-7,.cls-9{fill-rule:evenodd;}.cls-4{fill:#223a3f;}.cls-5{fill:#eff1f4;}.cls-6{fill:#788287;}.cls-7{fill:#dee3e8;}.cls-8{fill:#b7b7b7;}.cls-9{fill:#7cb892;}.cls-10{fill:#fafafa;}.cls-12{fill:#7fc3de;}.cls-13{fill:#f0c32d;}</style><clipPath id="clip-path"><rect class="cls-1" width="277" height="230"/></clipPath></defs><g class="cls-2"><path class="cls-3" d="M246.681,103.657a5.414,5.414,0,0,0-5.412-5.411H80.05a5.414,5.414,0,0,0-5.412,5.411V206.469H246.681V103.657Z"/><path class="cls-4" d="M245.541,104.652a5.341,5.341,0,0,0-5.338-5.338H81.044a5.342,5.342,0,0,0-5.339,5.338V206.083H245.541V104.652Z"/><polygon class="cls-5" points="241.197 104.699 81.044 104.699 81.044 200.791 241.197 200.791 241.197 104.699 241.197 104.699"/><polygon class="cls-3" points="241.197 200.791 81.044 104.699 81.044 200.791 241.197 200.791 241.197 200.791"/><path class="cls-6" d="M265.22,206.058H57.021v3.2a7.478,7.478,0,0,0,7.474,7.474H257.747a7.477,7.477,0,0,0,7.473-7.474v-3.2Z"/><path class="cls-7" d="M187.813,206.058H134.428v1.922a4.486,4.486,0,0,0,4.484,4.484h44.416a4.486,4.486,0,0,0,4.485-4.484v-1.922Z"/><path class="cls-8" d="M7.1,223.045v-4.234A24.742,24.742,0,0,1,8.206,211a19.587,19.587,0,0,1,3.48-6.222,53.492,53.492,0,0,1,8.267-7.476,61.556,61.556,0,0,0,5.579-4.768,12.007,12.007,0,0,0,2.062-2.818,6.5,6.5,0,0,0,.681-2.946q0-5.266-6.334-5.266a19.015,19.015,0,0,0-12.189,4.677V173.333a36.872,36.872,0,0,1,8.194-3.094,34.538,34.538,0,0,1,7.825-.884q8.617,0,13.331,4.124t4.713,11.563a18.03,18.03,0,0,1-2.467,9.685q-2.467,3.976-9.17,8.286a60.625,60.625,0,0,0-6.794,4.842,4.3,4.3,0,0,0-1.712,2.6H44.294v12.593Z"/><path class="cls-9" d="M104.892,78.115a2.873,2.873,0,1,1-2.848,2.872,2.861,2.861,0,0,1,2.848-2.872ZM94.11,73.828a14.235,14.235,0,0,1,21.636.084l-3.176,3.507a9.609,9.609,0,0,0-15.278-.1L94.11,73.828ZM88.6,67.785a22.29,22.29,0,0,1,32.642.058l-3.153,3.484a17.661,17.661,0,0,0-26.325-.073L88.6,67.785Zm-5.851-6.416a30.855,30.855,0,0,1,44.324.034l-3.148,3.477a26.229,26.229,0,0,0-38.017-.048l-3.159-3.463Z"/><path class="cls-10" d="M102.131,185.865h37.123a4.476,4.476,0,0,0,4.476-4.476V126.828h-41.6Z"/><path class="cls-11" d="M101.848,126.545v59.6h36.427a5.74,5.74,0,0,0,5.739-5.739V126.545Zm36.008,59.32H102.131V126.828h41.6v53.163A5.874,5.874,0,0,1,137.856,185.865Z"/><rect class="cls-8" x="106.137" y="140.407" width="3.569" height="0.85"/><rect class="cls-8" x="106.137" y="141.937" width="6.628" height="0.85"/><rect class="cls-8" x="106.137" y="155.703" width="22.945" height="0.85"/><rect class="cls-8" x="106.137" y="157.233" width="16.95" height="0.85"/><rect class="cls-8" x="106.137" y="149.585" width="22.945" height="0.85"/><rect class="cls-8" x="106.137" y="148.055" width="22.945" height="0.85"/><rect class="cls-8" x="106.137" y="151.114" width="22.945" height="0.85"/><rect class="cls-8" x="106.137" y="152.644" width="22.945" height="0.85"/><rect class="cls-8" x="106.137" y="154.173" width="22.945" height="0.85"/><rect class="cls-8" x="106.137" y="158.763" width="22.945" height="0.85"/><rect class="cls-8" x="106.137" y="160.292" width="22.945" height="0.85"/><rect class="cls-8" x="106.137" y="161.822" width="22.945" height="0.85"/><rect class="cls-8" x="106.137" y="163.351" width="22.945" height="0.85"/><rect class="cls-8" x="106.137" y="164.88" width="22.945" height="0.85"/><rect class="cls-8" x="106.137" y="174.568" width="4.654" height="0.85"/><rect class="cls-8" x="106.137" y="176.097" width="6.184" height="0.85"/><rect class="cls-8" x="106.137" y="177.627" width="8.733" height="0.85"/><rect class="cls-8" x="106.137" y="179.156" width="9.752" height="0.85"/><path class="cls-12" d="M137.784,185.994h-4.016a.073.073,0,0,1-.073-.073V127.045a.073.073,0,0,1,.073-.073h9.768a.073.073,0,0,1,.073.073V180.17A5.825,5.825,0,0,1,137.784,185.994Z"/><circle class="cls-10" cx="138.652" cy="132.934" r="3.753"/><rect class="cls-10" x="134.857" y="174.276" width="7.648" height="0.85"/><rect class="cls-10" x="134.857" y="172.747" width="7.648" height="0.85"/><rect class="cls-10" x="134.857" y="175.806" width="7.648" height="0.85"/><rect class="cls-10" x="134.857" y="178.865" width="7.648" height="0.85"/><rect class="cls-10" x="134.857" y="177.336" width="7.648" height="0.85"/><rect class="cls-10" x="134.857" y="180.395" width="4.588" height="0.85"/><rect class="cls-10" x="135.338" y="141.786" width="6.628" height="0.85"/><rect class="cls-10" x="135.338" y="140.257" width="5.098" height="0.85"/><path class="cls-10" d="M135.795,138.988v-1.517h.248v1.3h.642v.213Z"/><path class="cls-10" d="M138.293,138.227a.828.828,0,0,1-.185.576.668.668,0,0,1-.524.205.678.678,0,0,1-.528-.2.836.836,0,0,1-.184-.58.825.825,0,0,1,.185-.577.683.683,0,0,1,.529-.2.671.671,0,0,1,.523.2A.832.832,0,0,1,138.293,138.227Zm-1.157,0a.675.675,0,0,0,.113.425.459.459,0,0,0,.668,0,.859.859,0,0,0,0-.85.394.394,0,0,0-.332-.144.4.4,0,0,0-.337.144A.677.677,0,0,0,137.136,138.227Z"/><path class="cls-10" d="M139.239,138.165h.558v.761a1.644,1.644,0,0,1-.263.064,1.92,1.92,0,0,1-.272.018.685.685,0,0,1-.531-.2.822.822,0,0,1-.187-.576.765.765,0,0,1,.211-.573.791.791,0,0,1,.58-.207,1.145,1.145,0,0,1,.45.091l-.087.207a.871.871,0,0,0-.37-.085.5.5,0,0,0-.383.152.592.592,0,0,0-.141.417.62.62,0,0,0,.127.423.458.458,0,0,0,.365.145,1.211,1.211,0,0,0,.258-.03v-.391h-.315Z"/><path class="cls-10" d="M141.508,138.227a.832.832,0,0,1-.185.576.67.67,0,0,1-.525.205.678.678,0,0,1-.527-.2.836.836,0,0,1-.184-.58.825.825,0,0,1,.185-.577.683.683,0,0,1,.529-.2.668.668,0,0,1,.522.2A.832.832,0,0,1,141.508,138.227Zm-1.158,0a.682.682,0,0,0,.113.425.461.461,0,0,0,.669,0,.859.859,0,0,0,0-.85.394.394,0,0,0-.332-.144.4.4,0,0,0-.337.144A.671.671,0,0,0,140.35,138.227Z"/><rect class="cls-13" x="151.445" y="117.849" width="24.887" height="1.41" rx="0.64" transform="translate(-37.904 132.501) rotate(-39.835)"/><rect class="cls-13" x="153.217" y="126.194" width="30.927" height="1.41" rx="0.705" transform="translate(-42.137 137.508) rotate(-39.835)"/><rect class="cls-13" x="165.399" y="132.462" width="24.887" height="1.41" rx="0.64" transform="translate(-44.025 144.832) rotate(-39.835)"/><path class="cls-10" d="M179.918,119.431h48.727a5.876,5.876,0,0,0,5.876-5.876V41.939h-54.6Z"/><path class="cls-11" d="M179.546,41.567V119.8h47.815a7.533,7.533,0,0,0,7.532-7.533v-70.7Zm47.264,77.864H179.918V41.939h54.6V111.72A7.711,7.711,0,0,1,226.81,119.431Z"/><rect class="cls-8" x="185.176" y="59.763" width="4.685" height="1.115"/><rect class="cls-8" x="185.176" y="61.771" width="8.7" height="1.115"/><rect class="cls-8" x="185.176" y="79.84" width="30.117" height="1.115"/><rect class="cls-8" x="185.176" y="81.848" width="22.248" height="1.115"/><rect class="cls-8" x="185.176" y="71.809" width="30.117" height="1.115"/><rect class="cls-8" x="185.176" y="69.801" width="30.117" height="1.115"/><rect class="cls-8" x="185.176" y="73.816" width="30.117" height="1.115"/><rect class="cls-8" x="185.176" y="75.824" width="30.117" height="1.115"/><rect class="cls-8" x="185.176" y="77.832" width="30.117" height="1.115"/><rect class="cls-8" x="185.176" y="83.856" width="30.117" height="1.115"/><rect class="cls-8" x="185.176" y="85.864" width="30.117" height="1.115"/><rect class="cls-8" x="185.176" y="87.871" width="30.117" height="1.115"/><rect class="cls-8" x="185.176" y="89.879" width="30.117" height="1.115"/><rect class="cls-8" x="185.176" y="91.886" width="30.117" height="1.115"/><rect class="cls-8" x="185.176" y="104.602" width="6.109" height="1.115"/><rect class="cls-8" x="185.176" y="106.609" width="8.117" height="1.115"/><rect class="cls-8" x="185.176" y="108.617" width="11.462" height="1.115"/><rect class="cls-8" x="185.176" y="110.624" width="12.801" height="1.115"/><path class="cls-12" d="M226.717,119.6h-5.272a.1.1,0,0,1-.1-.1V42.223a.1.1,0,0,1,.1-.1h12.821a.1.1,0,0,1,.1.1v69.731A7.645,7.645,0,0,1,226.717,119.6Z"/><circle class="cls-10" cx="227.855" cy="49.953" r="4.926"/><rect class="cls-10" x="222.874" y="104.219" width="10.038" height="1.115"/><rect class="cls-10" x="222.874" y="102.211" width="10.038" height="1.115"/><rect class="cls-10" x="222.874" y="106.227" width="10.038" height="1.115"/><rect class="cls-10" x="222.874" y="110.242" width="10.038" height="1.115"/><rect class="cls-10" x="222.874" y="108.235" width="10.038" height="1.115"/><rect class="cls-10" x="222.874" y="112.25" width="6.023" height="1.115"/><rect class="cls-10" x="223.505" y="61.573" width="8.7" height="1.115"/><rect class="cls-10" x="223.506" y="59.565" width="6.692" height="1.115"/><path class="cls-10" d="M224.106,57.9V55.908h.325V57.62h.843V57.9Z"/><path class="cls-10" d="M227.385,56.9a1.086,1.086,0,0,1-.244.756.88.88,0,0,1-.688.269.889.889,0,0,1-.693-.267,1.1,1.1,0,0,1-.241-.761,1.08,1.08,0,0,1,.243-.757.9.9,0,0,1,.694-.264.88.88,0,0,1,.686.268A1.087,1.087,0,0,1,227.385,56.9Zm-1.52,0a.889.889,0,0,0,.148.557.6.6,0,0,0,.878,0,1.127,1.127,0,0,0,0-1.115.515.515,0,0,0-.436-.19.525.525,0,0,0-.442.19A.885.885,0,0,0,225.865,56.9Z"/><path class="cls-10" d="M228.626,56.819h.733v1a2.2,2.2,0,0,1-.345.083,2.51,2.51,0,0,1-.358.024.9.9,0,0,1-.7-.267,1.08,1.08,0,0,1-.245-.755,1.006,1.006,0,0,1,.277-.753,1.043,1.043,0,0,1,.761-.271,1.479,1.479,0,0,1,.59.12l-.114.27a1.153,1.153,0,0,0-.485-.111.652.652,0,0,0-.5.2.774.774,0,0,0-.185.548.81.81,0,0,0,.167.554.6.6,0,0,0,.479.19,1.6,1.6,0,0,0,.338-.039V57.1h-.413Z"/><path class="cls-10" d="M231.6,56.9a1.09,1.09,0,0,1-.243.756,1.024,1.024,0,0,1-1.381,0,1.1,1.1,0,0,1-.241-.761,1.08,1.08,0,0,1,.243-.757.9.9,0,0,1,.694-.264.88.88,0,0,1,.686.268A1.092,1.092,0,0,1,231.6,56.9Zm-1.519,0a.889.889,0,0,0,.148.557.6.6,0,0,0,.878,0,1.134,1.134,0,0,0,0-1.115.516.516,0,0,0-.436-.19.525.525,0,0,0-.442.19A.885.885,0,0,0,230.085,56.9Z"/></g></svg>