<svg id="elements" xmlns="http://www.w3.org/2000/svg" xmlns:xlink="http://www.w3.org/1999/xlink" viewBox="0 0 277 230"><defs><style>.cls-1{fill:none;}.cls-2{clip-path:url(#clip-path);}.cls-3{fill:#b7b7b7;}.cls-4{fill:#00558c;}.cls-5{fill:#f4d262;}.cls-6{fill:#f2f2f2;}.cls-7{fill:#7fc3de;}.cls-8{fill:#40a5ce;}.cls-9{fill:#7cb892;}</style><clipPath id="clip-path"><rect class="cls-1" width="277" height="230"/></clipPath></defs><g class="cls-2"><path class="cls-3" d="M41.763,167.628v33.29h7.475v10.458H41.726v9.059H27.917v-9.059H5.565V200.513a143.2,143.2,0,0,0,11.728-15.725,123.066,123.066,0,0,0,9.483-17.16ZM27.88,200.918V185.452a85.381,85.381,0,0,1-9.316,15.466Z"/><path class="cls-4" d="M213.3,152.576c-46.336-27.679-92.671,27.679-139.007,0V53.722c46.336,27.679,92.671-27.68,139.007,0Z"/><path class="cls-5" d="M145.01,70.051,143.8,66.679q-.606,2.047-1.213,4.1-1.963.585-3.927,1.165,1.589.687,3.177,1.367-.607,2.047-1.214,4.1,1.588-1.626,3.177-3.256,1.59.681,3.178,1.362-.608-1.687-1.214-3.374,1.589-1.627,3.177-3.25Q146.973,69.464,145.01,70.051Z"/><path class="cls-5" d="M145.01,134.914l-1.214-3.373q-.606,2.049-1.213,4.1-1.963.585-3.927,1.164,1.589.687,3.177,1.367-.607,2.049-1.214,4.1l3.177-3.256q1.59.679,3.178,1.361-.608-1.686-1.214-3.374,1.589-1.627,3.177-3.249Q146.973,134.326,145.01,134.914Z"/><path class="cls-5" d="M112.579,110.288q-.607-1.8-1.214-3.6-.606,1.932-1.213,3.852-1.963.174-3.927.248,1.589,1.1,3.176,2.123-.606,1.917-1.213,3.822,1.588-1.256,3.177-2.575,1.589.99,3.178,1.921-.608-1.784-1.214-3.574,1.589-1.355,3.177-2.765Q114.543,110.054,112.579,110.288Z"/><path class="cls-5" d="M128.794,79.031q-.606-1.713-1.213-3.428-.608,2.019-1.214,4.034-1.963.475-3.927.9,1.588.815,3.177,1.59-.608,2.011-1.214,4.018,1.588-1.518,3.178-3.071,1.588.757,3.177,1.487-.606-1.706-1.213-3.415,1.587-1.569,3.176-3.162Q130.759,78.524,128.794,79.031Z"/><path class="cls-5" d="M116.924,93.456q-.608-1.769-1.214-3.543-.606,1.961-1.214,3.912-1.963.274-3.926.46,1.589,1,3.177,1.95-.608,1.947-1.213,3.886,1.587-1.341,3.176-2.738,1.589.912,3.178,1.773-.608-1.755-1.214-3.519,1.588-1.426,3.177-2.9Q118.888,93.129,116.924,93.456Z"/><path class="cls-5" d="M116.924,125.887q-.608-1.767-1.214-3.543-.606,1.96-1.214,3.913-1.963.273-3.926.46,1.589,1.005,3.177,1.949-.608,1.947-1.213,3.886,1.587-1.34,3.176-2.738,1.589.912,3.178,1.774-.608-1.756-1.214-3.519,1.588-1.428,3.177-2.9Q118.888,125.562,116.924,125.887Z"/><path class="cls-5" d="M128.794,135.2q-.606-1.711-1.213-3.427-.608,2.019-1.214,4.034-1.963.476-3.927.9,1.588.813,3.177,1.59-.608,2.012-1.214,4.018,1.588-1.518,3.178-3.07,1.588.756,3.177,1.486-.606-1.707-1.213-3.415,1.587-1.569,3.176-3.162Q130.759,134.7,128.794,135.2Z"/><path class="cls-5" d="M177.441,95.151q-.606-1.815-1.213-3.618-.608,1.929-1.214,3.869-1.964.231-3.927.548,1.589.9,3.177,1.852-.606,1.944-1.214,3.9,1.589-1.375,3.178-2.7,1.589.99,3.177,2.042-.606-1.828-1.213-3.648,1.589-1.279,3.176-2.494Q179.4,94.975,177.441,95.151Z"/><path class="cls-5" d="M161.226,69.88q-.608-1.72-1.214-3.436L158.8,70.486q-1.962.505-3.926,1.048,1.589.715,3.176,1.455-.606,2.026-1.214,4.056,1.59-1.579,3.178-3.132,1.589.758,3.178,1.547-.608-1.728-1.214-3.452,1.589-1.53,3.177-3.026Q163.19,69.4,161.226,69.88Z"/><path class="cls-5" d="M173.1,79.433q-.606-1.784-1.213-3.558-.607,1.96-1.214,3.928-1.963.323-3.927.72,1.59.835,3.177,1.714l-1.214,3.951q1.588-1.446,3.178-2.843,1.588.912,3.177,1.879-.608-1.8-1.213-3.584,1.588-1.362,3.177-2.667Q175.061,79.158,173.1,79.433Z"/><path class="cls-5" d="M173.1,111.865q-.606-1.783-1.213-3.558-.607,1.959-1.214,3.927-1.963.323-3.927.72,1.59.836,3.177,1.715-.606,1.972-1.214,3.951,1.588-1.446,3.178-2.844,1.588.914,3.177,1.879-.608-1.8-1.213-3.584,1.588-1.362,3.177-2.667Q175.061,111.589,173.1,111.865Z"/><path class="cls-5" d="M161.226,126.053q-.608-1.72-1.214-3.436l-1.214,4.042q-1.962.5-3.926,1.048,1.589.716,3.176,1.455-.606,2.026-1.214,4.055,1.59-1.578,3.178-3.131,1.589.757,3.178,1.547-.608-1.728-1.214-3.452,1.589-1.53,3.177-3.026Q163.19,125.575,161.226,126.053Z"/><path class="cls-6" d="M71.923,30.094l-26,12.11V64.469a38.691,38.691,0,0,0,26,36.542,38.69,38.69,0,0,0,26-36.542V42.2Z"/><path class="cls-7" d="M71.923,35.567V95.706a33.732,33.732,0,0,0,21.04-31.237v-19.1Z"/><path class="cls-8" d="M50.886,45.365v19.1A33.733,33.733,0,0,0,71.923,95.706V35.567Z"/><polygon class="cls-9" points="198.74 204.573 174.556 180.405 183.914 171.063 198.74 185.888 241.528 143.085 250.886 152.428 198.74 204.573"/></g></svg>