<svg id="elements" xmlns="http://www.w3.org/2000/svg" xmlns:xlink="http://www.w3.org/1999/xlink" viewBox="0 0 277 230"><defs><style>.cls-1,.cls-11,.cls-9{fill:none;}.cls-2{clip-path:url(#clip-path);}.cls-3{fill:#dee3e8;}.cls-4{fill:#fff;opacity:0.43;}.cls-5{fill:#7cb892;}.cls-6{fill:#96a0a5;}.cls-7{fill:#e11e19;}.cls-8{fill:#f2f2f4;}.cls-11,.cls-9{stroke:#555a5f;stroke-linecap:round;stroke-miterlimit:10;}.cls-10{fill:#b7b7b7;}.cls-11{stroke-width:3px;}.cls-12{fill:#2f363e;}.cls-13{fill:#73bcc4;opacity:0.44;}.cls-14{fill:#5e9ba3;opacity:0.16;}.cls-15{fill:#f0c32d;}</style><clipPath id="clip-path"><rect class="cls-1" width="277" height="230"/></clipPath></defs><g class="cls-2"><path class="cls-3" d="M53.651,48.17H245.03a0,0,0,0,1,0,0V150.493a22,22,0,0,1-22,22H53.651a0,0,0,0,1,0,0V48.17A0,0,0,0,1,53.651,48.17Z"/><polygon class="cls-4" points="53.285 137.747 53.651 48.17 179.34 48.024 53.285 137.747"/><path class="cls-5" d="M189.707,85.027a.844.844,0,0,1,.83-.852l-.019-.887a.837.837,0,1,1-.035-1.673l-.016-.885a.838.838,0,0,1-.029-1.676l-.019-.886a.838.838,0,1,1-.027-1.675l-.017-.882a.839.839,0,0,1-.033-1.677l-.018-.887a.838.838,0,0,1-.029-1.675l-.017-.885a.837.837,0,1,1-.029-1.673l-.018-.886a.837.837,0,1,1-.03-1.674l-.014-.888a.837.837,0,0,1-.037-1.674l-.014-.886a.837.837,0,1,1-.028-1.674l-.018-.764-.788.016a.837.837,0,0,1-1.673.032l-.886.015a.837.837,0,1,1-1.674.03l-.889.016a.835.835,0,1,1-1.669.031l-.886.017a.84.84,0,0,1-1.679.03l-.884.018a.837.837,0,0,1-1.674.03l-.886.017a.838.838,0,0,1-1.675.033l-.888.016a.837.837,0,1,1-1.674.028l-.885.018a.837.837,0,0,1-1.673.031l-.839.016.014.764a.837.837,0,0,1,.033,1.674l.015.885a.838.838,0,1,1,.029,1.675l.021.886a.838.838,0,0,1,.03,1.675l.014.885a.838.838,0,0,1,.034,1.675l.014.886a.838.838,0,1,1,.032,1.676l.019.885A.838.838,0,0,1,169.152,76l.016.885a.838.838,0,1,1,.029,1.675l.017.884a.838.838,0,0,1,.032,1.675l.019.885a.837.837,0,0,1,.028,1.674l.018.887a.838.838,0,0,1,.034,1.676l.015,1.018.841-.015a.827.827,0,0,1,.818-.853.839.839,0,0,1,.855.821l.884-.015a.837.837,0,1,1,1.673-.031l.884-.017a.839.839,0,0,1,1.677-.03l.886-.019a.838.838,0,1,1,1.675-.029l.886-.017a.837.837,0,0,1,1.674-.033l.887-.015a.835.835,0,0,1,.825-.852.845.845,0,0,1,.852.824l.883-.021a.837.837,0,0,1,1.673-.028l.885-.017a.837.837,0,1,1,1.673-.031l.788-.017-.019-1.018A.843.843,0,0,1,189.707,85.027Z"/><polygon class="cls-6" points="165.153 50.674 176.349 50.684 179.34 48.024 168.145 48.016 165.153 50.674"/><polygon class="cls-6" points="213.712 48.056 210.721 50.714 221.914 50.725 224.911 48.066 213.712 48.056"/><polygon class="cls-6" points="74.015 50.593 85.212 50.604 88.204 47.944 77.007 47.933 74.015 50.593"/><polygon class="cls-6" points="119.584 50.634 130.778 50.645 133.771 47.985 122.576 47.975 119.584 50.634"/><polygon class="cls-6" points="157.737 169.553 146.387 169.516 143.341 172.538 154.696 172.576 157.737 169.553"/><polygon class="cls-6" points="111.535 169.405 100.182 169.372 97.14 172.393 108.493 172.429 111.535 169.405"/><path class="cls-6" d="M53.659,170.765a1.5,1.5,0,0,0,1.506,1.494l7.129.025,3.041-3.024-11.356-.037-.316.317Z"/><polygon class="cls-6" points="203.939 169.702 192.587 169.664 189.545 172.687 200.899 172.725 203.939 169.702"/><polygon class="cls-6" points="56.433 118.814 56.499 107.463 53.485 104.412 53.419 115.764 56.433 118.814"/><polygon class="cls-6" points="53.687 70.68 56.7 73.731 56.766 62.375 53.751 59.326 53.687 70.68"/><polygon class="cls-6" points="53.33 158.618 56.342 161.669 56.408 150.313 53.393 147.264 53.33 158.618"/><polygon class="cls-6" points="245.103 123.164 245.193 111.815 242.186 108.758 242.1 120.113 245.103 123.164"/><polygon class="cls-6" points="242.461 73.908 245.469 76.967 245.557 65.615 242.553 62.558 242.461 73.908"/><polygon class="cls-7" points="142.369 50.653 153.566 50.664 156.558 48.005 145.36 47.994 142.369 50.653"/><polygon class="cls-7" points="187.934 50.695 199.132 50.706 202.126 48.046 190.932 48.037 187.934 50.695"/><path class="cls-7" d="M53.655,49.223l0,1.352,8.777.009,2.99-2.66-10.276-.008A1.4,1.4,0,0,0,53.655,49.223Z"/><path class="cls-7" d="M245.011,49.393a1.4,1.4,0,0,0-1.482-1.31l-7.033,0L233.5,50.736l11.2.008.312-.279Z"/><polygon class="cls-7" points="96.799 50.616 107.994 50.623 110.987 47.964 99.789 47.956 96.799 50.616"/><polygon class="cls-7" points="134.636 169.482 123.285 169.444 120.24 172.466 131.595 172.504 134.636 169.482"/><polygon class="cls-7" points="85.394 172.355 88.436 169.332 77.08 169.297 74.041 172.319 85.394 172.355"/><polygon class="cls-7" points="227.042 169.776 215.687 169.738 212.645 172.758 223.999 172.796 227.042 169.776"/><polygon class="cls-7" points="180.839 169.626 169.486 169.593 166.443 172.613 177.793 172.65 180.839 169.626"/><polygon class="cls-7" points="56.298 140.798 56.363 129.445 53.349 126.396 53.285 137.747 56.298 140.798"/><polygon class="cls-7" points="56.569 96.83 56.633 85.477 53.619 82.427 53.555 93.779 56.569 96.83"/><polygon class="cls-7" points="244.921 146.266 245.012 134.916 242.005 131.86 241.916 143.212 244.921 146.266"/><polygon class="cls-7" points="245.286 100.065 245.374 88.714 242.37 85.659 242.281 97.011 245.286 100.065"/><path class="cls-7" d="M238.88,83.394a.955.955,0,0,1-.992.923L197.815,82.79a.959.959,0,0,1-.927-.992l.852-22.313a.961.961,0,0,1,1-.922l40.07,1.528a.958.958,0,0,1,.922.993Z"/><polygon class="cls-8" points="238.957 81.396 196.967 79.798 196.98 79.472 238.967 81.072 238.957 81.396"/><path class="cls-6" d="M219.716,91.145a20.757,20.757,0,0,1-10.64-3.037c-6.086-3.752-12.353-4.239-18.117-1.4-5.58,2.742-12.648,2.192-18.46-1.424-3.806-2.374-5.681-2.88-9.061-3.121-.112-.007-.2-.5-.19-.636s.1-.382.212-.367c3.445.244,5.358.76,9.226,3.172,5.709,3.552,12.648,4.09,18.122,1.406,5.876-2.888,12.259-2.4,18.455,1.425a19.769,19.769,0,0,0,18.123,1.4,19.164,19.164,0,0,1,9.179-1.744c.115,0,.429.433.423.567s-.327.462-.444.438a18.878,18.878,0,0,0-9.012,1.713,18.538,18.538,0,0,1-7.816,1.608Z"/><path class="cls-6" d="M219.716,98.409a20.757,20.757,0,0,1-10.64-3.037c-6.086-3.752-12.353-4.239-18.117-1.4-5.58,2.742-12.648,2.192-18.46-1.424-3.806-2.374-5.681-2.88-9.061-3.121-.112-.007-.2-.5-.19-.636s.1-.382.212-.367c3.445.244,5.358.76,9.226,3.172,5.709,3.552,12.648,4.09,18.122,1.406,5.876-2.888,12.259-2.4,18.455,1.425a19.769,19.769,0,0,0,18.123,1.4,19.164,19.164,0,0,1,9.179-1.744c.115,0,.429.433.423.567s-.327.462-.444.438a18.878,18.878,0,0,0-9.012,1.713,18.538,18.538,0,0,1-7.816,1.608Z"/><path class="cls-6" d="M218.726,105.06a20.757,20.757,0,0,1-10.64-3.037c-6.086-3.752-12.353-4.239-18.117-1.4-5.579,2.742-12.648,2.192-18.46-1.424-3.806-2.374-5.681-2.88-9.06-3.121-.113-.007-.2-.5-.191-.636s.1-.382.212-.367c3.445.244,5.358.76,9.226,3.173,5.709,3.551,12.648,4.089,18.122,1.406,5.876-2.889,12.259-2.4,18.455,1.424a19.77,19.77,0,0,0,18.123,1.405,19.153,19.153,0,0,1,9.179-1.745c.115.005.429.434.423.568s-.327.461-.444.437a18.878,18.878,0,0,0-9.012,1.713,18.522,18.522,0,0,1-7.816,1.608Z"/><path class="cls-6" d="M166.4,102.079a13.695,13.695,0,1,1,9.238-17.023,13.709,13.709,0,0,1-9.238,17.023Zm-7.533-25.422a12.819,12.819,0,1,0,15.93,8.65,12.835,12.835,0,0,0-15.93-8.65Z"/><path class="cls-6" d="M159.094,84.925a1.333,1.333,0,0,1-.972,1.853,1.365,1.365,0,0,1-1.829-1.021l-.593-2,.481-.144.594,2.018,1.25-2.562.474-.146Z"/><path class="cls-6" d="M160.464,86.008l-.425.126L159.017,82.7l2.323-.612.426-.129,1.021,3.442-3.026-1.761Z"/><path class="cls-6" d="M165.121,80.963l2.031-.6-.712,3.875-.513.152-.892-2.937Z"/><path class="cls-6" d="M155.352,86.34l.11.373c.047.157.13.413-.184.507a2.94,2.94,0,0,1-.442.07l.115.388a4.212,4.212,0,0,0,.533-.119c.639-.187.6-.529.5-.874l-.145-.488Z"/><polygon class="cls-6" points="155.494 85.029 155.162 83.913 154.677 84.059 155.008 85.173 155.494 85.029"/><path class="cls-6" d="M163.467,82.217l.256.858.483-.142-.466-1.562-.373.112a2.181,2.181,0,0,1-.384.81l.152.517A2.23,2.23,0,0,0,163.467,82.217Z"/><path class="cls-6" d="M160.542,88.5c.736-.218,1.456-.153,2.016,1.754.362,1.2.459,2.218-.73,2.57s-1.667-.558-2.018-1.754C159.247,89.162,159.811,88.716,160.542,88.5Z"/><path class="cls-6" d="M163.382,88.613a2.694,2.694,0,0,0,.467-1l.462-.139,1.23,4.149-.593.176-.974-3.281a2.951,2.951,0,0,1-.407.73Z"/><polygon class="cls-6" points="168.002 89.593 167.295 89.803 167.936 87.691 168.277 88.835 168.872 88.659 168.182 86.329 167.801 86.443 166.662 90.185 166.761 90.53 168.162 90.116 168.002 89.593"/><path class="cls-6" d="M157.355,90.013a.676.676,0,0,1,.879.513c.163.537-.157,1.129-.689,2.335l.749-.22a3.631,3.631,0,0,0,.538-2.414,1.186,1.186,0,0,0-1.564-.76,1.946,1.946,0,0,0-.991.7l.414.419A1.106,1.106,0,0,1,157.355,90.013Z"/><polygon class="cls-6" points="159.284 93.481 159.488 93.419 159.592 92.818 159.131 92.956 159.284 93.481"/><line class="cls-9" x1="123.488" y1="142.082" x2="191.84" y2="142.082"/><line class="cls-9" x1="123.488" y1="150.148" x2="191.84" y2="150.148"/><line class="cls-9" x1="123.488" y1="158.215" x2="191.84" y2="158.215"/><line class="cls-9" x1="123.488" y1="166.281" x2="191.84" y2="166.281"/><path class="cls-10" d="M42.164,205.453a18.58,18.58,0,0,1-2.56,9.7,17.314,17.314,0,0,1-7.383,6.683,25.334,25.334,0,0,1-11.379,2.394,48.747,48.747,0,0,1-7.6-.626,33.81,33.81,0,0,1-6.5-1.584V209.8a24.457,24.457,0,0,0,11.674,2.946,10.586,10.586,0,0,0,6.131-1.473,4.8,4.8,0,0,0,2.081-4.161q0-5.817-9.648-5.819a41.1,41.1,0,0,0-8.949.921l1.989-31.706H39.844v12.226H22.168l-.516,7.4a39.24,39.24,0,0,1,4.014-.222q7.734,0,12.116,4.18T42.164,205.453Z"/><line class="cls-11" x1="123.488" y1="142.082" x2="161.274" y2="142.082"/><line class="cls-11" x1="123.488" y1="150.148" x2="161.274" y2="150.148"/><line class="cls-11" x1="123.488" y1="158.215" x2="161.274" y2="158.215"/><line class="cls-11" x1="123.488" y1="166.281" x2="161.274" y2="166.281"/><path class="cls-12" d="M105.694,110.6c-17.2,13.259-20.463,38.425-7.292,56.212,12.177,16.444,34.128,20.812,50.963,10.912l12.01,16.117c2.024,2.717,5.407,3.565,7.556,1.894s2.249-5.229.224-7.946l-12-16.1c13.831-13.828,15.666-36.488,3.525-52.887C147.513,101.013,122.894,97.34,105.694,110.6Zm27.425-1.116a32.779,32.779,0,0,1,21.954,13.1c10.914,14.734,8.209,35.585-6.039,46.567a31.846,31.846,0,0,1-37.167,1.191,33.342,33.342,0,0,1-8.391-7.987c-10.911-14.737-8.207-35.585,6.042-46.569A31.534,31.534,0,0,1,133.119,109.48Z"/><ellipse class="cls-13" cx="129.227" cy="142.598" rx="32.465" ry="33.359" transform="translate(-31.448 36.686) rotate(-14.424)"/><path class="cls-14" d="M109.316,115.7c-14.258,10.991-16.965,31.853-6.047,46.6a31.457,31.457,0,0,0,8.255,7.8l0,0c-1.8-40.889,20.782-60.179,21.4-60.7A31.554,31.554,0,0,0,109.316,115.7Z"/><path class="cls-15" d="M166.312,181.184l-10.7,8.326c-.359.28-.277,1.006.183,1.623l.041.055,0,0,22.751,30.53c5.082,6.819,9.6,7.127,12.913,4.548s4.173-7.07-.909-13.889l-20-26.832-.009-.013-2.788-3.741C167.334,181.179,166.671,180.905,166.312,181.184Z"/><polygon class="cls-5" points="218.78 188.469 194.596 164.301 203.954 154.959 218.78 169.784 261.568 126.981 270.926 136.324 218.78 188.469"/></g></svg>