<svg id="elements" xmlns="http://www.w3.org/2000/svg" xmlns:xlink="http://www.w3.org/1999/xlink" viewBox="0 0 277 230"><defs><style>.cls-1,.cls-13,.cls-14,.cls-15,.cls-16,.cls-17,.cls-18,.cls-21,.cls-22{fill:none;}.cls-2{clip-path:url(#clip-path);}.cls-3{fill:#b7b7b7;}.cls-4{fill:#bec8d2;}.cls-24,.cls-5{fill:#dee3e8;}.cls-6{opacity:0.43;}.cls-7{fill:#96a0a5;}.cls-8{fill:#e11e19;}.cls-9{fill:#fafafa;}.cls-10{fill:#7fc3de;}.cls-11{clip-path:url(#clip-path-2);}.cls-12{fill:#fff;}.cls-12,.cls-13,.cls-14,.cls-15,.cls-16,.cls-17{stroke:#7b7c80;stroke-width:0.25px;}.cls-12,.cls-13,.cls-14,.cls-15,.cls-16,.cls-17,.cls-18,.cls-21,.cls-22{stroke-miterlimit:10;}.cls-14{stroke-dasharray:1.946 1.946;}.cls-15{stroke-dasharray:1.981 1.981;}.cls-16{stroke-dasharray:2.001 2.001;}.cls-17{stroke-dasharray:1.981 1.981;}.cls-18,.cls-21,.cls-22{stroke:#e11e19;}.cls-18{stroke-width:0.912px;stroke-dasharray:1.823;}.cls-19{clip-path:url(#clip-path-3);}.cls-20{clip-path:url(#clip-path-4);}.cls-21,.cls-22{stroke-width:0.666px;}.cls-22{stroke-dasharray:1.32 1.32;}.cls-23{fill:#ef8000;}.cls-24{opacity:0.5;}.cls-25{fill:#f0c32d;}.cls-26{fill:#2c2625;}.cls-27{fill:#54494b;}.cls-28{fill:#fdfbf5;}.cls-29{fill:#2f363e;}</style><clipPath id="clip-path"><rect class="cls-1" width="277" height="230"/></clipPath><clipPath id="clip-path-2"><rect class="cls-1" x="22.387" y="91.501" width="66.846" height="28.755"/></clipPath><clipPath id="clip-path-3"><rect class="cls-1" x="113.568" y="48.706" width="65.726" height="37.475"/></clipPath><clipPath id="clip-path-4"><rect class="cls-1" x="200.573" y="33.66" width="63.59" height="36.257"/></clipPath></defs><g class="cls-2"><path class="cls-3" d="M47.141,205.122a19.624,19.624,0,0,1-2.449,9.7,17.586,17.586,0,0,1-6.923,6.9,19.975,19.975,0,0,1-9.924,2.5q-9.685,0-14.914-6.445T7.7,199.562a37.54,37.54,0,0,1,3.167-15.817,23.469,23.469,0,0,1,8.893-10.476A25.186,25.186,0,0,1,33.369,169.7a28.62,28.62,0,0,1,9.721,1.362v12.3a16.3,16.3,0,0,0-8.617-2.21,10.818,10.818,0,0,0-8.193,3.3,13.324,13.324,0,0,0-3.48,8.709h.221q3.718-4.53,10.642-4.53a11.913,11.913,0,0,1,9.851,4.567Q47.141,197.757,47.141,205.122Zm-14.914.7a8.145,8.145,0,0,0-1.123-4.585,3.823,3.823,0,0,0-3.407-1.675,3.805,3.805,0,0,0-3.351,1.749,8.361,8.361,0,0,0-1.178,4.731,7.8,7.8,0,0,0,1.271,4.6,3.9,3.9,0,0,0,6.573.018A8.489,8.489,0,0,0,32.227,205.822Z"/><polygon class="cls-4" points="230.464 39.828 194.502 66.827 266.428 66.827 230.464 39.828"/><path class="cls-5" d="M267.46,67.711a3.309,3.309,0,0,0-2.129-1.343H196.248a3.3,3.3,0,0,0-2.131,1.343l35.849,22.883Z"/><g class="cls-6"><path class="cls-5" d="M193.559,68.129v41.414a2.758,2.758,0,0,0,.735,1.862l36.672-22.57L194.66,67.418C194.209,67.912,193.559,67.413,193.559,68.129Z"/><path class="cls-5" d="M265.814,66.754,229.671,89.175,267.7,111.583a2.748,2.748,0,0,0,.735-1.862l-.041-40.628C268.391,68.377,266.268,67.247,265.814,66.754Z"/></g><path class="cls-5" d="M194.117,109.639a2.852,2.852,0,0,0,2.131.946h69.083c.849,0,1.6-.366,2.129-2.816L230.144,88.761Z"/><polygon class="cls-7" points="233.969 109.45 229.534 109.436 228.344 110.583 232.78 110.598 233.969 109.45"/><polygon class="cls-7" points="215.917 109.394 211.481 109.381 210.293 110.528 214.728 110.542 215.917 109.394"/><path class="cls-7" d="M193.305,109.91a.576.576,0,0,0,.588.567l2.785.01,1.188-1.148-4.436-.014-.124.12Z"/><polygon class="cls-7" points="252.02 109.506 247.585 109.492 246.396 110.64 250.832 110.654 252.02 109.506"/><polygon class="cls-7" points="194.388 90.186 194.414 85.877 193.236 84.719 193.211 89.029 194.388 90.186"/><polygon class="cls-7" points="193.316 71.912 194.493 73.07 194.518 68.759 193.341 67.602 193.316 71.912"/><polygon class="cls-7" points="193.176 105.298 194.353 106.456 194.379 102.145 193.201 100.988 193.176 105.298"/><polygon class="cls-7" points="268.103 91.838 268.138 87.529 266.963 86.369 266.929 90.68 268.103 91.838"/><polygon class="cls-7" points="267.07 73.138 268.246 74.299 268.28 69.989 267.106 68.829 267.07 73.138"/><polygon class="cls-8" points="224.943 109.423 220.508 109.408 219.318 110.556 223.755 110.57 224.943 109.423"/><polygon class="cls-8" points="205.704 110.514 206.892 109.366 202.455 109.353 201.268 110.5 205.704 110.514"/><polygon class="cls-8" points="261.046 109.535 256.61 109.52 255.421 110.666 259.857 110.681 261.046 109.535"/><polygon class="cls-8" points="242.995 109.478 238.559 109.465 237.37 110.612 241.804 110.625 242.995 109.478"/><polygon class="cls-8" points="194.336 98.533 194.361 94.223 193.184 93.065 193.158 97.374 194.336 98.533"/><polygon class="cls-8" points="194.442 81.84 194.466 77.53 193.289 76.372 193.264 80.682 194.442 81.84"/><polygon class="cls-8" points="268.032 100.609 268.067 96.3 266.892 95.139 266.857 99.449 268.032 100.609"/><polygon class="cls-8" points="268.174 83.068 268.209 78.759 267.035 77.599 267 81.909 268.174 83.068"/><path class="cls-9" d="M26.579,113.51H78.362a6.245,6.245,0,0,0,6.245-6.245V31.158H26.579Z"/><path class="cls-4" d="M26.184,30.763v83.142H77a8.005,8.005,0,0,0,8-8V30.763ZM76.412,113.51H26.579V31.158H84.607v74.157A8.2,8.2,0,0,1,76.412,113.51Z"/><rect class="cls-3" x="32.167" y="50.1" width="4.978" height="1.185"/><rect class="cls-3" x="32.167" y="52.234" width="9.246" height="1.185"/><rect class="cls-3" x="32.167" y="71.436" width="32.006" height="1.185"/><rect class="cls-3" x="32.167" y="73.57" width="23.643" height="1.185"/><rect class="cls-3" x="32.167" y="62.901" width="32.006" height="1.185"/><rect class="cls-3" x="32.167" y="60.768" width="32.006" height="1.185"/><rect class="cls-3" x="32.167" y="65.035" width="32.006" height="1.185"/><rect class="cls-3" x="32.167" y="67.169" width="32.006" height="1.185"/><rect class="cls-3" x="32.167" y="69.302" width="32.006" height="1.185"/><rect class="cls-3" x="32.167" y="75.704" width="32.006" height="1.185"/><rect class="cls-3" x="32.167" y="77.838" width="32.006" height="1.185"/><rect class="cls-3" x="32.167" y="79.971" width="32.006" height="1.185"/><rect class="cls-3" x="32.167" y="82.105" width="32.006" height="1.185"/><rect class="cls-3" x="32.167" y="84.237" width="32.006" height="1.185"/><rect class="cls-3" x="32.167" y="97.751" width="6.492" height="1.185"/><rect class="cls-3" x="32.167" y="99.884" width="8.625" height="1.185"/><rect class="cls-3" x="32.167" y="102.018" width="12.181" height="1.185"/><rect class="cls-3" x="32.167" y="104.151" width="13.603" height="1.185"/><path class="cls-10" d="M76.313,113.689h-5.6a.1.1,0,0,1-.1-.1V31.461a.1.1,0,0,1,.1-.1H84.335a.1.1,0,0,1,.1.1v74.1A8.124,8.124,0,0,1,76.313,113.689Z"/><circle class="cls-9" cx="77.523" cy="39.676" r="5.235"/><rect class="cls-9" x="72.229" y="97.344" width="10.668" height="1.185"/><rect class="cls-9" x="72.229" y="95.21" width="10.668" height="1.185"/><rect class="cls-9" x="72.229" y="99.478" width="10.668" height="1.185"/><rect class="cls-9" x="72.229" y="103.745" width="10.668" height="1.185"/><rect class="cls-9" x="72.229" y="101.612" width="10.668" height="1.185"/><rect class="cls-9" x="72.229" y="105.879" width="6.4" height="1.185"/><rect class="cls-9" x="72.9" y="52.023" width="9.245" height="1.185"/><rect class="cls-9" x="72.9" y="49.89" width="7.111" height="1.185"/><path class="cls-9" d="M73.538,48.12V46h.346v1.819h.895v.3Z"/><path class="cls-9" d="M77.022,47.059a1.158,1.158,0,0,1-.258.8,1.085,1.085,0,0,1-1.468,0,1.169,1.169,0,0,1-.256-.808,1.15,1.15,0,0,1,.258-.8.951.951,0,0,1,.737-.28.934.934,0,0,1,.73.285A1.16,1.16,0,0,1,77.022,47.059Zm-1.614,0a.948.948,0,0,0,.157.592.641.641,0,0,0,.933,0,.958.958,0,0,0,.157-.6.948.948,0,0,0-.156-.59.548.548,0,0,0-.464-.2.559.559,0,0,0-.469.2A.935.935,0,0,0,75.408,47.059Z"/><path class="cls-9" d="M78.342,46.972h.778v1.062a2.152,2.152,0,0,1-.366.088,2.517,2.517,0,0,1-.38.027.953.953,0,0,1-.741-.285,1.144,1.144,0,0,1-.261-.8,1.071,1.071,0,0,1,.294-.8,1.107,1.107,0,0,1,.809-.288,1.574,1.574,0,0,1,.628.127l-.122.288a1.22,1.22,0,0,0-.515-.119.693.693,0,0,0-.535.213.825.825,0,0,0-.2.582.862.862,0,0,0,.178.589.641.641,0,0,0,.51.2,1.672,1.672,0,0,0,.358-.042v-.545h-.438Z"/><path class="cls-9" d="M81.507,47.059a1.154,1.154,0,0,1-.259.8,1.084,1.084,0,0,1-1.467,0,1.165,1.165,0,0,1-.257-.808,1.146,1.146,0,0,1,.259-.8.951.951,0,0,1,.737-.28.933.933,0,0,1,.729.285A1.155,1.155,0,0,1,81.507,47.059Zm-1.615,0a.954.954,0,0,0,.157.592.641.641,0,0,0,.933,0,1.2,1.2,0,0,0,0-1.185.549.549,0,0,0-.464-.2.56.56,0,0,0-.47.2A.941.941,0,0,0,79.892,47.059Z"/><g class="cls-11"><path class="cls-9" d="M27.153,114.292H78.936a6.245,6.245,0,0,0,6.244-6.245V31.941H27.153Z"/><path class="cls-4" d="M26.757,31.545v83.142H77.57a8.005,8.005,0,0,0,8.005-8V31.545Zm50.228,82.747H27.153V31.941H85.18V106.1A8.2,8.2,0,0,1,76.985,114.292Z"/><rect class="cls-3" x="32.74" y="50.882" width="4.978" height="1.185"/><rect class="cls-3" x="32.74" y="53.016" width="9.246" height="1.185"/><rect class="cls-3" x="32.74" y="72.218" width="32.006" height="1.185"/><rect class="cls-3" x="32.74" y="74.352" width="23.643" height="1.185"/><rect class="cls-3" x="32.74" y="63.683" width="32.006" height="1.185"/><rect class="cls-3" x="32.74" y="61.55" width="32.006" height="1.185"/><rect class="cls-3" x="32.74" y="65.817" width="32.006" height="1.185"/><rect class="cls-3" x="32.74" y="67.951" width="32.006" height="1.185"/><rect class="cls-3" x="32.74" y="70.084" width="32.006" height="1.185"/><rect class="cls-3" x="32.74" y="76.486" width="32.006" height="1.185"/><rect class="cls-3" x="32.74" y="78.62" width="32.006" height="1.185"/><rect class="cls-3" x="32.74" y="80.753" width="32.006" height="1.185"/><rect class="cls-3" x="32.74" y="82.887" width="32.006" height="1.185"/><rect class="cls-3" x="32.74" y="85.019" width="32.006" height="1.185"/><rect class="cls-3" x="32.74" y="98.533" width="6.492" height="1.185"/><rect class="cls-3" x="32.74" y="100.666" width="8.625" height="1.185"/><rect class="cls-3" x="32.74" y="102.8" width="12.181" height="1.185"/><rect class="cls-3" x="32.74" y="104.933" width="13.603" height="1.185"/><path class="cls-10" d="M76.886,114.471h-5.6a.1.1,0,0,1-.1-.1V32.243a.1.1,0,0,1,.1-.1H84.908a.1.1,0,0,1,.1.1v74.1A8.124,8.124,0,0,1,76.886,114.471Z"/><circle class="cls-9" cx="78.096" cy="40.458" r="5.235"/><rect class="cls-9" x="72.802" y="98.126" width="10.668" height="1.185"/><rect class="cls-9" x="72.802" y="95.992" width="10.668" height="1.185"/><rect class="cls-9" x="72.802" y="100.26" width="10.668" height="1.185"/><rect class="cls-9" x="72.802" y="104.527" width="10.668" height="1.185"/><rect class="cls-9" x="72.802" y="102.394" width="10.668" height="1.185"/><rect class="cls-9" x="72.802" y="106.661" width="6.4" height="1.185"/><rect class="cls-9" x="73.473" y="52.805" width="9.245" height="1.185"/><rect class="cls-9" x="73.474" y="50.672" width="7.111" height="1.185"/><path class="cls-9" d="M74.111,48.9V46.786h.346v1.819h.9v.3Z"/><path class="cls-9" d="M77.6,47.841a1.154,1.154,0,0,1-.259.8,1.084,1.084,0,0,1-1.467,0,1.165,1.165,0,0,1-.257-.808,1.146,1.146,0,0,1,.259-.8.95.95,0,0,1,.737-.28.933.933,0,0,1,.729.285A1.155,1.155,0,0,1,77.6,47.841Zm-1.615,0a.948.948,0,0,0,.157.592.641.641,0,0,0,.933,0,1.2,1.2,0,0,0,0-1.185.549.549,0,0,0-.464-.2.56.56,0,0,0-.47.2A.941.941,0,0,0,75.981,47.841Z"/><path class="cls-9" d="M78.915,47.754h.779v1.062a2.185,2.185,0,0,1-.367.088,2.507,2.507,0,0,1-.38.027.954.954,0,0,1-.741-.285,1.148,1.148,0,0,1-.26-.8,1.071,1.071,0,0,1,.294-.8,1.1,1.1,0,0,1,.809-.288,1.569,1.569,0,0,1,.627.127l-.121.288a1.227,1.227,0,0,0-.515-.119.7.7,0,0,0-.536.213.825.825,0,0,0-.2.582.867.867,0,0,0,.177.589.641.641,0,0,0,.51.2,1.68,1.68,0,0,0,.359-.042v-.545h-.439Z"/><path class="cls-9" d="M82.08,47.841a1.158,1.158,0,0,1-.258.8,1.085,1.085,0,0,1-1.468,0,1.164,1.164,0,0,1-.256-.808,1.15,1.15,0,0,1,.258-.8.951.951,0,0,1,.737-.28.93.93,0,0,1,.729.285A1.155,1.155,0,0,1,82.08,47.841Zm-1.615,0a.948.948,0,0,0,.158.592.64.64,0,0,0,.932,0,1.2,1.2,0,0,0,0-1.185.549.549,0,0,0-.464-.2.558.558,0,0,0-.469.2A.935.935,0,0,0,80.465,47.841Z"/></g><path class="cls-12" d="M85.738,90.8H25.708L32.2,69.585,85.878,69.2a5.73,5.73,0,0,1,5.36,7.86Z"/><polyline class="cls-13" points="85.033 113.575 85.002 114.575 84.002 114.575"/><line class="cls-14" x1="82.056" y1="114.575" x2="28.552" y2="114.575"/><polyline class="cls-13" points="27.579 114.575 26.579 114.575 26.543 113.576"/><line class="cls-15" x1="26.47" y1="111.596" x2="25.781" y2="92.79"/><polyline class="cls-13" points="25.745 91.8 25.708 90.801 26.708 90.801"/><line class="cls-16" x1="28.709" y1="90.801" x2="83.738" y2="90.801"/><polyline class="cls-13" points="84.738 90.801 85.738 90.801 85.707 91.8"/><line class="cls-17" x1="85.646" y1="93.78" x2="85.063" y2="112.586"/><path class="cls-18" d="M28.683,114.292c14.14-7.04,19.7-34.915,5.973-44.4"/><path class="cls-18" d="M114.56,64.775c-27.188,11.082-.854,36.615,10.383,27.438"/><polygon class="cls-12" points="175.542 85.381 117.363 85.641 108.793 60.174 176.608 60.767 175.542 85.381"/><g class="cls-19"><path class="cls-9" d="M118.186,135.891h51.783a6.244,6.244,0,0,0,6.244-6.244V53.54H118.186Z"/><path class="cls-4" d="M117.79,53.145v83.142H168.6a8.005,8.005,0,0,0,8-8V53.145Zm50.229,82.746H118.186V53.54h58.027V127.7A8.194,8.194,0,0,1,168.019,135.891Z"/><rect class="cls-3" x="123.773" y="72.482" width="4.978" height="1.185"/><rect class="cls-3" x="123.773" y="74.616" width="9.246" height="1.185"/><rect class="cls-3" x="123.773" y="93.818" width="32.006" height="1.185"/><rect class="cls-3" x="123.773" y="95.951" width="23.643" height="1.185"/><rect class="cls-3" x="123.773" y="85.283" width="32.006" height="1.185"/><rect class="cls-3" x="123.773" y="83.149" width="32.006" height="1.185"/><rect class="cls-3" x="123.773" y="87.417" width="32.006" height="1.185"/><rect class="cls-3" x="123.773" y="89.55" width="32.006" height="1.185"/><rect class="cls-3" x="123.773" y="91.684" width="32.006" height="1.185"/><rect class="cls-3" x="123.773" y="98.086" width="32.006" height="1.185"/><rect class="cls-3" x="123.773" y="100.219" width="32.006" height="1.185"/><rect class="cls-3" x="123.773" y="102.353" width="32.006" height="1.185"/><rect class="cls-3" x="123.773" y="104.486" width="32.006" height="1.185"/><rect class="cls-3" x="123.773" y="106.619" width="32.006" height="1.185"/><rect class="cls-3" x="123.773" y="120.133" width="6.492" height="1.185"/><rect class="cls-3" x="123.773" y="122.266" width="8.625" height="1.185"/><rect class="cls-3" x="123.773" y="124.4" width="12.181" height="1.185"/><rect class="cls-3" x="123.773" y="126.533" width="13.603" height="1.185"/><path class="cls-10" d="M167.919,136.071h-5.6a.1.1,0,0,1-.1-.1V53.842a.1.1,0,0,1,.1-.1h13.626a.1.1,0,0,1,.1.1v74.1A8.125,8.125,0,0,1,167.919,136.071Z"/><circle class="cls-9" cx="169.129" cy="62.057" r="5.235"/><rect class="cls-9" x="163.835" y="119.726" width="10.668" height="1.185"/><rect class="cls-9" x="163.835" y="117.592" width="10.668" height="1.185"/><rect class="cls-9" x="163.835" y="121.86" width="10.668" height="1.185"/><rect class="cls-9" x="163.835" y="126.127" width="10.668" height="1.185"/><rect class="cls-9" x="163.835" y="123.993" width="10.668" height="1.185"/><rect class="cls-9" x="163.835" y="128.261" width="6.4" height="1.185"/><rect class="cls-9" x="164.506" y="74.405" width="9.245" height="1.185"/><rect class="cls-9" x="164.507" y="72.271" width="7.111" height="1.185"/><path class="cls-9" d="M165.144,70.5V68.386h.346v1.819h.9v.3Z"/><path class="cls-9" d="M168.629,69.441a1.154,1.154,0,0,1-.259.8.933.933,0,0,1-.731.286.943.943,0,0,1-.736-.284,1.166,1.166,0,0,1-.257-.808,1.142,1.142,0,0,1,.259-.805.951.951,0,0,1,.737-.28.936.936,0,0,1,.729.284A1.158,1.158,0,0,1,168.629,69.441Zm-1.615,0a.954.954,0,0,0,.157.592.642.642,0,0,0,.933,0,.946.946,0,0,0,.157-.594.958.958,0,0,0-.155-.591.552.552,0,0,0-.464-.2.562.562,0,0,0-.47.2A.944.944,0,0,0,167.014,69.441Z"/><path class="cls-9" d="M169.949,69.354h.778v1.062a2.287,2.287,0,0,1-.367.088,2.512,2.512,0,0,1-.38.026.957.957,0,0,1-.741-.284,1.149,1.149,0,0,1-.26-.8,1.068,1.068,0,0,1,.294-.8,1.1,1.1,0,0,1,.809-.289,1.57,1.57,0,0,1,.627.128l-.121.288a1.224,1.224,0,0,0-.515-.119.692.692,0,0,0-.535.213.819.819,0,0,0-.2.582.867.867,0,0,0,.177.589.641.641,0,0,0,.51.2,1.673,1.673,0,0,0,.359-.042v-.545h-.438Z"/><path class="cls-9" d="M173.113,69.441a1.158,1.158,0,0,1-.258.8.934.934,0,0,1-.732.286.944.944,0,0,1-.736-.284,1.166,1.166,0,0,1-.256-.808,1.147,1.147,0,0,1,.258-.805.951.951,0,0,1,.737-.28.937.937,0,0,1,.73.284A1.162,1.162,0,0,1,173.113,69.441Zm-1.615,0a.948.948,0,0,0,.158.592.642.642,0,0,0,.933,0,1.2,1.2,0,0,0,0-1.185.55.55,0,0,0-.464-.2.56.56,0,0,0-.469.2A.938.938,0,0,0,171.5,69.441Z"/></g><g class="cls-20"><path class="cls-9" d="M205.041,118.012h50.1a6.041,6.041,0,0,0,6.041-6.041V38.337H205.041Z"/><path class="cls-4" d="M204.658,37.955v80.439H253.82a7.745,7.745,0,0,0,7.745-7.744v-72.7Zm48.6,80.057H205.041V38.337h56.141v71.747A7.928,7.928,0,0,1,253.254,118.012Z"/><rect class="cls-3" x="210.447" y="56.663" width="4.817" height="1.147"/><rect class="cls-3" x="210.447" y="58.728" width="8.945" height="1.147"/><rect class="cls-3" x="210.447" y="77.306" width="30.966" height="1.147"/><rect class="cls-3" x="210.447" y="79.37" width="22.875" height="1.147"/><rect class="cls-3" x="210.447" y="69.049" width="30.966" height="1.147"/><rect class="cls-3" x="210.447" y="66.984" width="30.966" height="1.147"/><rect class="cls-3" x="210.447" y="71.113" width="30.966" height="1.147"/><rect class="cls-3" x="210.447" y="73.177" width="30.966" height="1.147"/><rect class="cls-3" x="210.447" y="75.242" width="30.966" height="1.147"/><rect class="cls-3" x="210.447" y="81.435" width="30.966" height="1.147"/><rect class="cls-3" x="210.447" y="83.499" width="30.966" height="1.147"/><rect class="cls-3" x="210.447" y="85.563" width="30.966" height="1.147"/><rect class="cls-3" x="210.447" y="87.628" width="30.966" height="1.147"/><rect class="cls-3" x="210.447" y="89.691" width="30.966" height="1.147"/><rect class="cls-3" x="210.447" y="102.766" width="6.281" height="1.147"/><rect class="cls-3" x="210.447" y="104.83" width="8.345" height="1.147"/><rect class="cls-3" x="210.447" y="106.894" width="11.785" height="1.147"/><rect class="cls-3" x="210.447" y="108.957" width="13.161" height="1.147"/><path class="cls-10" d="M253.158,118.186h-5.421a.1.1,0,0,1-.1-.1V38.63a.1.1,0,0,1,.1-.1H260.92a.1.1,0,0,1,.1.1v71.695A7.861,7.861,0,0,1,253.158,118.186Z"/><circle class="cls-9" cx="254.328" cy="46.577" r="5.065"/><rect class="cls-9" x="249.206" y="102.372" width="10.321" height="1.147"/><rect class="cls-9" x="249.206" y="100.307" width="10.321" height="1.147"/><rect class="cls-9" x="249.206" y="104.436" width="10.321" height="1.147"/><rect class="cls-9" x="249.206" y="108.565" width="10.321" height="1.147"/><rect class="cls-9" x="249.206" y="106.501" width="10.321" height="1.147"/><rect class="cls-9" x="249.206" y="110.629" width="6.192" height="1.147"/><rect class="cls-9" x="249.856" y="58.524" width="8.945" height="1.147"/><rect class="cls-9" x="249.856" y="56.46" width="6.88" height="1.147"/><path class="cls-9" d="M250.473,54.747V52.7h.335v1.76h.866v.287Z"/><path class="cls-9" d="M253.845,53.721a1.119,1.119,0,0,1-.251.777.9.9,0,0,1-.707.277.911.911,0,0,1-.712-.275,1.126,1.126,0,0,1-.249-.782,1.106,1.106,0,0,1,.251-.778.916.916,0,0,1,.713-.272.9.9,0,0,1,.705.276A1.12,1.12,0,0,1,253.845,53.721Zm-1.563,0a.915.915,0,0,0,.153.573.619.619,0,0,0,.9,0,1.159,1.159,0,0,0,0-1.146.53.53,0,0,0-.448-.2.545.545,0,0,0-.455.2A.908.908,0,0,0,252.282,53.721Z"/><path class="cls-9" d="M255.121,53.637h.753v1.027a2.112,2.112,0,0,1-.354.086,2.5,2.5,0,0,1-.368.025.925.925,0,0,1-.717-.275,1.109,1.109,0,0,1-.252-.777,1.033,1.033,0,0,1,.285-.773,1.067,1.067,0,0,1,.782-.279,1.53,1.53,0,0,1,.608.123l-.118.278a1.188,1.188,0,0,0-.5-.114.671.671,0,0,0-.518.206.794.794,0,0,0-.191.562.836.836,0,0,0,.172.571.622.622,0,0,0,.493.2,1.558,1.558,0,0,0,.347-.041v-.527h-.424Z"/><path class="cls-9" d="M258.183,53.721a1.118,1.118,0,0,1-.25.777.9.9,0,0,1-.708.277.913.913,0,0,1-.712-.275,1.131,1.131,0,0,1-.248-.782,1.106,1.106,0,0,1,.25-.778.918.918,0,0,1,.713-.272.9.9,0,0,1,.706.276A1.119,1.119,0,0,1,258.183,53.721Zm-1.562,0a.921.921,0,0,0,.152.573.62.62,0,0,0,.9,0,1.159,1.159,0,0,0,0-1.146.532.532,0,0,0-.449-.2.543.543,0,0,0-.454.2A.908.908,0,0,0,256.621,53.721Z"/></g><path class="cls-21" d="M219.248,56.4q.3.108.613.253"/><path class="cls-22" d="M221.019,57.286c5.464,3.39,12.981,13.453,13.489,21.124"/><path class="cls-21" d="M234.534,79.072q0,.337-.011.666"/><polygon class="cls-8" points="231.95 78.354 233.516 83.432 237.131 79.537 231.95 78.354"/><path class="cls-23" d="M176.642,162.361a4.759,4.759,0,0,0,4.758,4.758h0a4.759,4.759,0,0,0,4.758-4.758v-5.286a4.759,4.759,0,0,0-4.758-4.758h0a4.759,4.759,0,0,0-4.758,4.758Z"/><path class="cls-24" d="M224.6,215.5c0,1.716-34.088,3.107-76.139,3.107S72.32,217.211,72.32,215.5s34.089-3.106,76.139-3.106S224.6,213.78,224.6,215.5Z"/><polygon class="cls-25" points="94.436 203.869 177.962 203.869 177.962 132.324 105.456 132.324 94.436 203.869"/><path class="cls-25" d="M175.873,138.634a20.88,20.88,0,0,1,3.147-.317h11.274c25.652,0,23.649,16.541,23.649,34.895L230.03,179.6l7.842,3.12a21.147,21.147,0,0,1-21.146,21.145H179.02a20.752,20.752,0,0,1-3.147-.318Z"/><path class="cls-26" d="M195.061,194.358c-5.642,5.645-6.588,13.843-2.119,18.32s12.675,3.519,18.317-2.122,6.587-13.845,2.118-18.313S200.7,188.715,195.061,194.358Z"/><path class="cls-26" d="M113.515,194.358c-5.641,5.645-6.587,13.843-2.119,18.32s12.676,3.519,18.318-2.122,6.587-13.845,2.118-18.313S119.157,188.715,113.515,194.358Z"/><path class="cls-27" d="M116.076,196.92c-3.857,3.859-4.5,9.465-1.449,12.526s8.667,2.406,12.524-1.451,4.5-9.466,1.449-12.521S119.933,193.062,116.076,196.92Z"/><path class="cls-27" d="M197.622,196.919c-3.857,3.86-4.5,9.466-1.449,12.527S204.84,211.852,208.7,208s4.5-9.466,1.449-12.521S201.479,193.061,197.622,196.919Z"/><path class="cls-28" d="M193.212,145.012a10.583,10.583,0,0,0-4.116.842v31.859H206.8a31.877,31.877,0,0,0,1.59-10.085C208.392,155.137,201.6,145.012,193.212,145.012Z"/><rect class="cls-29" x="99.674" y="181.483" width="86.483" height="2.761"/><rect class="cls-3" x="75.574" y="147.018" width="20.329" height="1.152" rx="0.522" transform="translate(-2.279 1.348) rotate(-0.889)"/><rect class="cls-3" x="65.945" y="154.78" width="25.263" height="1.152" rx="0.576" transform="translate(-2.4 1.238) rotate(-0.889)"/><rect class="cls-3" x="65.264" y="163.467" width="20.329" height="1.152" rx="0.522" transform="translate(-2.535 1.19) rotate(-0.889)"/></g></svg>