<svg id="elements" xmlns="http://www.w3.org/2000/svg" xmlns:xlink="http://www.w3.org/1999/xlink" viewBox="0 0 277 230"><defs><style>.cls-1{fill:none;}.cls-2{clip-path:url(#clip-path);}.cls-3{fill:#fafafa;}.cls-4{fill:#bec8d2;}.cls-5{fill:#b7b7b7;}.cls-6{fill:#0087be;}.cls-7{fill:#7fc3de;}.cls-8{fill:#7cb892;}.cls-9{fill:#f0c32d;}.cls-10{fill:#fff;}.cls-11{fill:#e11e19;}.cls-12{fill:#2f363e;}.cls-13{fill:#73bcc4;opacity:0.44;}.cls-14{fill:#5e9ba3;opacity:0.16;}</style><clipPath id="clip-path"><rect class="cls-1" width="277" height="230"/></clipPath></defs><g class="cls-2"><path class="cls-3" d="M74.88,210.374H190.8A13.979,13.979,0,0,0,204.78,196.4V26.022H74.88Z"/><path class="cls-4" d="M74,25.137V211.258h113.75a17.92,17.92,0,0,0,17.92-17.92V25.137ZM186.436,210.374H74.88V26.022h129.9V192.029A18.344,18.344,0,0,1,186.436,210.374Z"/><rect class="cls-3" x="177.07" y="174.185" width="23.881" height="2.654"/><rect class="cls-3" x="177.07" y="169.409" width="23.881" height="2.654"/><rect class="cls-3" x="177.07" y="178.962" width="23.881" height="2.654"/><rect class="cls-3" x="177.07" y="188.515" width="23.881" height="2.654"/><rect class="cls-3" x="177.07" y="183.739" width="23.881" height="2.654"/><rect class="cls-3" x="177.07" y="193.291" width="14.328" height="2.654"/><rect class="cls-3" x="178.573" y="72.73" width="20.697" height="2.654"/><rect class="cls-3" x="178.574" y="67.954" width="15.92" height="2.654"/><path class="cls-3" d="M180,63.991V59.255h.775v4.072h2v.664Z"/><path class="cls-3" d="M187.8,61.617a2.582,2.582,0,0,1-.579,1.8,2.429,2.429,0,0,1-3.285,0,2.611,2.611,0,0,1-.574-1.809,2.564,2.564,0,0,1,.579-1.8,2.127,2.127,0,0,1,1.65-.628,2.086,2.086,0,0,1,1.632.637A2.589,2.589,0,0,1,187.8,61.617Zm-3.615,0a2.124,2.124,0,0,0,.353,1.326,1.436,1.436,0,0,0,2.087.005,2.689,2.689,0,0,0,0-2.653,1.231,1.231,0,0,0-1.038-.451,1.259,1.259,0,0,0-1.052.451A2.111,2.111,0,0,0,184.187,61.617Z"/><path class="cls-3" d="M190.756,61.422H192.5V63.8a4.943,4.943,0,0,1-.821.2,5.8,5.8,0,0,1-.851.059,2.132,2.132,0,0,1-1.658-.637,2.561,2.561,0,0,1-.583-1.8,2.394,2.394,0,0,1,.658-1.79,2.474,2.474,0,0,1,1.81-.646,3.531,3.531,0,0,1,1.406.285l-.272.644a2.751,2.751,0,0,0-1.154-.265,1.554,1.554,0,0,0-1.2.476,1.848,1.848,0,0,0-.44,1.3,1.941,1.941,0,0,0,.4,1.32,1.439,1.439,0,0,0,1.141.451,3.731,3.731,0,0,0,.8-.094v-1.22h-.982Z"/><path class="cls-3" d="M197.84,61.617a2.582,2.582,0,0,1-.578,1.8,2.429,2.429,0,0,1-3.285,0,2.611,2.611,0,0,1-.574-1.809,2.564,2.564,0,0,1,.579-1.8,2.127,2.127,0,0,1,1.65-.628,2.086,2.086,0,0,1,1.632.637A2.589,2.589,0,0,1,197.84,61.617Zm-3.615,0a2.124,2.124,0,0,0,.354,1.326,1.436,1.436,0,0,0,2.087.005,2.689,2.689,0,0,0,0-2.653,1.234,1.234,0,0,0-1.038-.451,1.259,1.259,0,0,0-1.052.451A2.111,2.111,0,0,0,194.225,61.617Z"/><path class="cls-5" d="M14.642,224.234a86,86,0,0,1,3.13-13.515,94.265,94.265,0,0,1,4.843-12.078,166.658,166.658,0,0,1,8.562-14.988H8.2V171.427H46.827v9.28a174.035,174.035,0,0,0-7.973,15.687,112.322,112.322,0,0,0-4.676,13.092,119.78,119.78,0,0,0-3.222,14.748Z"/><path class="cls-5" d="M160.52,68.709l0,.785c0,.345.127.626.286.627l29.975.114c.16,0,.29-.279.292-.625l0-.784c0-.346-.127-.626-.287-.627l-29.975-.115C160.651,68.084,160.521,68.364,160.52,68.709Z"/><path class="cls-5" d="M160.52,62.859l0,.784c0,.346.127.626.286.627l29.975.114c.16,0,.29-.279.292-.624l0-.785c0-.345-.127-.626-.287-.627l-29.975-.114C160.651,62.233,160.521,62.513,160.52,62.859Z"/><path class="cls-5" d="M160.52,73.975l0,.784c0,.346.127.627.286.627l29.975.115c.16,0,.29-.279.292-.625l0-.784c0-.346-.127-.627-.287-.627l-29.975-.115C160.651,73.35,160.521,73.629,160.52,73.975Z"/><path class="cls-5" d="M91.481,118.1l0,1.1a.876.876,0,0,0,.867.885l90.262.345a.876.876,0,0,0,.874-.878l0-1.1a.876.876,0,0,0-.867-.885l-90.262-.345A.876.876,0,0,0,91.481,118.1Z"/><path class="cls-5" d="M91.481,126.584l0,1.1a.876.876,0,0,0,.867.885l90.262.344a.876.876,0,0,0,.874-.878l0-1.1a.875.875,0,0,0-.867-.884l-90.262-.345A.876.876,0,0,0,91.481,126.584Z"/><path class="cls-5" d="M91.481,135.068l0,1.1a.876.876,0,0,0,.867.884l90.262.345a.876.876,0,0,0,.874-.878l0-1.1a.876.876,0,0,0-.867-.885l-90.262-.345A.877.877,0,0,0,91.481,135.068Z"/><path class="cls-5" d="M89.14,68.709l0,.785c0,.345.127.626.287.627l29.975.114c.159,0,.29-.279.291-.625l0-.784c0-.346-.127-.626-.287-.627l-29.974-.115C89.272,68.084,89.142,68.364,89.14,68.709Z"/><path class="cls-5" d="M89.14,62.859l0,.784c0,.346.127.626.287.627l29.975.114c.159,0,.29-.279.291-.624l0-.785c0-.345-.127-.626-.287-.627l-29.974-.114C89.272,62.233,89.142,62.513,89.14,62.859Z"/><path class="cls-5" d="M89.14,73.975l0,.784c0,.346.127.627.287.627L119.4,75.5c.159,0,.29-.279.291-.625l0-.784c0-.346-.127-.627-.287-.627L89.432,73.35C89.272,73.35,89.142,73.629,89.14,73.975Z"/><path class="cls-5" d="M91.48,109.2l0,.851c0,.375.208.68.469.681l48.912.187c.261,0,.473-.3.475-.678l0-.851c0-.375-.209-.68-.469-.681l-48.913-.186C91.694,108.52,91.482,108.823,91.48,109.2Z"/><path class="cls-5" d="M89.846,155.716l0,.548a.5.5,0,0,0,.536.44l55.7.213a.5.5,0,0,0,.539-.436l0-.548a.5.5,0,0,0-.536-.44l-55.7-.213A.494.494,0,0,0,89.846,155.716Z"/><path class="cls-5" d="M167.077,155.842l0,.473c0,.209.043.378.1.378l10.334.039c.055,0,.1-.168.1-.377l0-.473c0-.208-.043-.377-.1-.377l-10.334-.04C167.123,155.465,167.078,155.634,167.077,155.842Z"/><path class="cls-5" d="M89.846,165.37l0,.548a.5.5,0,0,0,.536.44l55.7.213a.5.5,0,0,0,.539-.436l0-.548a.5.5,0,0,0-.536-.44l-55.7-.213A.494.494,0,0,0,89.846,165.37Z"/><path class="cls-5" d="M167.077,165.5l0,.473c0,.208.043.377.1.378l10.334.039c.055,0,.1-.168.1-.377l0-.473c0-.208-.043-.377-.1-.378l-10.334-.039C167.123,165.119,167.078,165.287,167.077,165.5Z"/><path class="cls-5" d="M89.846,175.024l0,.548a.5.5,0,0,0,.536.44l55.7.213a.5.5,0,0,0,.539-.436l0-.548a.5.5,0,0,0-.536-.44l-55.7-.213A.494.494,0,0,0,89.846,175.024Z"/><path class="cls-5" d="M167.077,175.15l0,.473c0,.208.043.377.1.377l10.334.04c.055,0,.1-.169.1-.377l0-.473c0-.209-.043-.378-.1-.378l-10.334-.039C167.123,174.772,167.078,174.941,167.077,175.15Z"/><path class="cls-5" d="M191.83,56.471l-15.353-.192a.116.116,0,0,1-.119-.11l-.006-.36a.11.11,0,0,1,.116-.107l15.353.192a.117.117,0,0,1,.119.109l.006.361A.11.11,0,0,1,191.83,56.471Z"/><path class="cls-6" d="M184.4,49.589c.627.008-3.072,4,1.306,3.475,1.239-.148.167,1.275.167,1.275a5.141,5.141,0,0,1-6.46-3.083C179.345,46.644,184.4,49.589,184.4,49.589Z"/><path class="cls-7" d="M188.8,50.22a4.084,4.084,0,0,1-4.325,3.981,4.727,4.727,0,0,1-2.608-.815,3.94,3.94,0,0,1,2.484-7.256A4.367,4.367,0,0,1,188.8,50.22Z"/><path class="cls-5" d="M181.949,158.276a2.181,2.181,0,0,1-1.024.235,1.825,1.825,0,0,1-1.881-1.719l-.44-.006-.008-.469.394,0a1.959,1.959,0,0,1-.019-.259,3.415,3.415,0,0,1,.017-.361l-.4,0-.007-.47.477.006a2.244,2.244,0,0,1,.682-1.25,1.78,1.78,0,0,1,1.245-.438,2.088,2.088,0,0,1,.9.2l.008.544a1.756,1.756,0,0,0-.937-.274,1.12,1.12,0,0,0-.805.327,1.759,1.759,0,0,0-.484.9l1.811.022.007.47-1.891-.024a3.535,3.535,0,0,0,.006.62l1.9.024.007.469-1.837-.023q.282,1.232,1.3,1.243a1.963,1.963,0,0,0,.986-.279Z"/><path class="cls-5" d="M181.364,167.637a2.182,2.182,0,0,1-1.024.236,1.826,1.826,0,0,1-1.881-1.72l-.44-.006-.008-.469.394,0a1.929,1.929,0,0,1-.019-.258,3.422,3.422,0,0,1,.017-.362l-.4,0-.007-.469.477.006a2.244,2.244,0,0,1,.682-1.251,1.784,1.784,0,0,1,1.245-.438,2.073,2.073,0,0,1,.9.2l.008.543a1.746,1.746,0,0,0-.937-.273,1.118,1.118,0,0,0-.806.326,1.766,1.766,0,0,0-.483.9l1.811.023.007.469L179,165.07a3.547,3.547,0,0,0,.006.621l1.9.023.007.47-1.837-.023q.282,1.23,1.3,1.243a1.965,1.965,0,0,0,.986-.28Z"/><path class="cls-5" d="M181.364,178.169a2.193,2.193,0,0,1-1.024.235,1.825,1.825,0,0,1-1.881-1.72l-.44,0-.008-.469.394,0a1.929,1.929,0,0,1-.019-.258,3.433,3.433,0,0,1,.017-.362l-.4,0L178,175.12l.477.006a2.237,2.237,0,0,1,.682-1.25,1.78,1.78,0,0,1,1.245-.439,2.088,2.088,0,0,1,.9.2l.008.543a1.746,1.746,0,0,0-.937-.273,1.115,1.115,0,0,0-.806.327,1.762,1.762,0,0,0-.483.9l1.811.023.007.469L179,175.6a3.535,3.535,0,0,0,.006.62l1.9.024.007.469-1.837-.023q.282,1.23,1.3,1.243a1.963,1.963,0,0,0,.986-.279Z"/><path class="cls-8" d="M107.046,183.975a.071.071,0,0,0,.119-.071l-.154-.084Z"/><path class="cls-8" d="M107.368,183.331c-.071-.121-.2-.256-.347-.184.146.117.081.142.256.272.014.1-.059.171-.116.151.039.037-.041.15.055.211a.361.361,0,0,0,.047-.462C107.3,183.284,107.339,183.321,107.368,183.331Z"/><path class="cls-8" d="M103.763,174.47l.035.057Z"/><path class="cls-8" d="M98.24,171.786a.1.1,0,0,0,.074-.023A.192.192,0,0,0,98.24,171.786Z"/><path class="cls-8" d="M97.194,171.488l.063.014C97.234,171.486,97.21,171.477,97.194,171.488Z"/><path class="cls-8" d="M103.763,174.47l-.091-.15C103.63,174.352,103.71,174.406,103.763,174.47Z"/><path class="cls-8" d="M106.961,182.016a.2.2,0,0,0,.046.081l-.021-.078Z"/><polygon class="cls-8" points="105.693 176.419 105.724 176.459 105.802 176.457 105.693 176.419"/><path class="cls-8" d="M106.764,178.247c-.015-.046-.144,0-.2,0a.154.154,0,0,1,.128.056A.22.22,0,0,0,106.764,178.247Z"/><path class="cls-8" d="M107.451,181.505l.027.057Z"/><path class="cls-8" d="M104.759,175.221a.185.185,0,0,0,.022-.046A.161.161,0,0,0,104.759,175.221Z"/><path class="cls-8" d="M106.275,186.141l.023.007A.017.017,0,0,0,106.275,186.141Z"/><polygon class="cls-8" points="107.396 184.009 107.399 184.042 107.472 184.058 107.396 184.009"/><path class="cls-8" d="M95.2,171.34l.009,0C95.258,171.324,95.228,171.328,95.2,171.34Z"/><path class="cls-8" d="M84.92,184.284c.087-.216.2.311.288-.009C85.161,184.311,84.958,184.021,84.92,184.284Z"/><path class="cls-8" d="M106.976,181.963l-.006-.081A.208.208,0,0,0,106.976,181.963Z"/><polygon class="cls-8" points="85.208 184.275 85.209 184.275 85.217 184.242 85.208 184.275"/><path class="cls-8" d="M90.84,172.784a.146.146,0,0,0,.068.027A.157.157,0,0,0,90.84,172.784Z"/><path class="cls-8" d="M94.084,171.785l-.085,0A.285.285,0,0,0,94.084,171.785Z"/><path class="cls-8" d="M89.471,173.914c-.042.018-.066.013-.105.065h.025C89.4,173.953,89.417,173.927,89.471,173.914Z"/><polygon class="cls-8" points="88.121 175.133 88.164 175.126 88.197 175.079 88.121 175.133"/><path class="cls-8" d="M103.68,190.428a.4.4,0,0,1,.142.034C103.736,190.411,103.894,190.223,103.68,190.428Z"/><path class="cls-8" d="M107.036,182.008c-.034-.007-.052-.02-.06-.045l.01.056A.113.113,0,0,0,107.036,182.008Z"/><path class="cls-8" d="M90.061,174.791l-.224.142A1.5,1.5,0,0,0,90.061,174.791Z"/><path class="cls-8" d="M92.554,192.666l.063.006A.071.071,0,0,0,92.554,192.666Z"/><path class="cls-8" d="M89.271,175.471a.4.4,0,0,0-.175.033l0,.045Z"/><path class="cls-8" d="M104.71,188.93c-.152.2.068.2.117.3-.143.274-.187.034-.319.06-.071.18-.038.4-.143.494-.029-.012-.055,0-.061-.046-.031.239-.39.443-.427.736a.159.159,0,0,1-.054-.011.5.5,0,0,1,.2.147c-.085.081-.085.228-.2.174.056-.046.028-.084.028-.132l-.056.118c-.2-.047.084-.153,0-.24-.136.195-.251.484-.418.571-.133-.1.278-.325,0-.272l.247-.14c-.33-.046.136-.1-.193-.17-.3.2-.234.343-.548.527-.009.118.105.087.095.207-.323.442-.568-.084-.743.316-.019.143.057.332-.235.384l-.018-.2c-.308.165-.036.329-.416.416.021-.1.207-.2.151-.188-.276,0-.093.177-.252.273l-.11-.123c-.326.173-.637.487-1.021.66,0-.053.052-.125-.058-.137a3.3,3.3,0,0,1-1.565.368l-.155.185c-.044.01-.094-.048-.052-.081-.2-.022.008.088-.075.157-.109.027-.161-.057-.1-.108a1.91,1.91,0,0,1-1.326.262l.068-.046c-.284-.041-.311.3-.582.189l.051-.028a4.146,4.146,0,0,1-1.762-.28c-.124.189-.587-.176-.68.073-.315-.223-.2-.248-.657-.458-.124-.04-.238.109-.4.082l.043-.14-.26.069-.051-.206-.157-.016c.054.028.1.106.075.142-.256-.014-.512-.3-.481-.382l-.563-.133c.039-.047.133-.024.217-.026-.339,0,.021-.161-.29-.157.018.045-.058.068-.078.092a1.367,1.367,0,0,0-.564-.393l.09-.063c-.351-.221-.752-.449-1.128-.73.105.137-.033.253-.157.182l.053-.154c-.133.02.08.133-.143.113-.124-.132.024-.214.131-.186l-.193-.1c.021-.044.073-.029.121-.065-.128.012-.165-.362-.37-.323l.022-.042c-.353-.3-.5-.449-.775-.719-.107.083-.185-.047-.346-.064a4.852,4.852,0,0,0-.453-.836c-.19-.159-.133.006-.258-.041.092-.084-.094-.368.072-.264-.216-.346-.318-.415-.62-.844-.02.073-.012.141-.063.13-.06-.077-.049-.219.01-.231l.022.016c-.446-.454-.195-1.363-.565-1.714l.019.022-.249-.43c-.035-.22.123.106.155-.07-.348-.452-.114-.8-.33-1.2.328-.357-.135-1.164.143-1.608l-.086.022c-.077-.117.055-.135.079-.218-.067.009-.082.12-.125.047a6.239,6.239,0,0,1,.754-2.868c.142-.325-.341-.345,0-.7l.1.182a9.4,9.4,0,0,1,.908-2.017c0,.055.04.081,0,.141.176-.063.337-.443.263-.5.075-.084.083.03.161,0,.145-.077.109-.4.255-.385.024,0,0,.054-.011.081.022-.109.319-.329.156-.347.231-.154.3-.429.512-.522,0-.2.391-.257.284-.442.132.175.456-.194.542-.363,0,.085.161-.036.162.075.153-.117.271-.256.18-.325.422-.015.492-.575.837-.4a6.08,6.08,0,0,1,1.359-.95c.057.192-.526.25-.41.45a2.914,2.914,0,0,1,1.1-.676c.129-.016-.04.114-.068.163.443-.242.921-.246,1.328-.451,0,.02-.041.049-.082.071.085-.019.206,0,.179-.094l-.08.04c-.167-.118.294-.345.3-.423-.106.3.452,0,.264.388.054-.027.119-.084.1-.147.087.006.118.039.042.127.3-.1.183-.176.468-.2,0,.047-.054.068-.078.125a.674.674,0,0,1,.52-.172c-.014.028.016.065-.056.067a2.9,2.9,0,0,1,1.168-.138c-.149.2.151.074.159.253a1.612,1.612,0,0,1,.246-.028l-.087-.1c.21.034.417-.066.593.019l-.169.049.4.026-.216-.1c.233-.058.013-.226.294-.134-.063.01.219.028.306.168h0a.476.476,0,0,1,.386.024c.026.066-.081.183-.064.226.138-.115.5.075.674-.027a.146.146,0,0,0-.075.131l.12-.085c.083.072.09.094.052.159.275.124-.018-.246.288-.031-.03,0-.023.021-.084.018.32.17.687.159.958.371.012.205-.278-.085-.239.1a4.892,4.892,0,0,1,1.349.522l-.063-.061c.187-.18.231.28.489.309-.056-.02-.14.073-.111.058a4.89,4.89,0,0,0,.98.566l-.086.01a5.322,5.322,0,0,0,.468.511c.088-.007.166.078.18-.037.168.692.982.725,1.064,1.376-.04-.053-.139-.091-.108-.049l.327.338c.068-.093.018-.087.028-.217a.475.475,0,0,1,.282.184c-.19-.129-.139.1-.146.212.02-.032.067-.026.092-.052-.036.319.207-.085.273.278l-.059.015c.091.092.218.154.275.281-.081.112-.122-.087-.217-.041.1.159.415.2.372.425-.067-.058-.117-.164-.194-.215a.556.556,0,0,0,.041.373l0-.013.078.317v-.091c.4.077.285.4.585.626-.3-.219-.128,0-.271.027-.009.091-.009.223-.058.2.16.1,0,.264.232.405-.041.024.051.152-.072.157.1.169.062-.068.123-.072.256.241,0,.73.325,1.094.156.349.313.393.448.735-.055.129-.183-.073-.183-.073a.85.85,0,0,0,.069.512c-.043-.033-.075.008-.124.067.02.142.174.083.116.278a.64.64,0,0,1-.194-.13c.052.132.147.369.2.5-.078.048-.129-.1-.185-.16.046.192.106.5.221.565l.051-.128c0,.073-.11.038-.135-.015a.153.153,0,0,1,.078-.255l.036.125c.266-.137-.071-.508-.069-.757l.2.09-.178-.248c.046-.059.154-.111.193.014.081-.2-.092-.154-.006-.325.015-.02.025-.014.036,0l-.087-.17c.047.028.134-.051.123.064.062-.344-.228-.5-.1-.646l.017.025c-.157-.431-.148-.017-.394-.3l.292-.305-.152-.008c-.007-.046-.02-.138.041-.137-.14-.143-.054.045-.17-.027.082-.259-.232-.57-.035-.691-.133-.038-.007.229-.162.03.211-.147-.136-.244-.1-.476.141.012.146.221.181-.015-.241-.038-.095-.4-.219-.538-.161.064-.23-.313-.409-.55.074-.018-.187-.524-.279-.792l.029-.008c-.181.05-.284-.217-.44-.358a.2.2,0,0,1,.251.019l-.115-.158a.345.345,0,0,1-.225-.124l.135-.038c-.167-.2-.425-.331-.574-.638-.1.067-.088.409-.379.209.042-.052.119-.135.2-.086-.026-.016-.112-.042-.13-.1l.176.029c-.063-.142-.122,0-.194-.091.072-.061-.009-.111.058-.148.027.017.041.1.1.114a.626.626,0,0,1-.132-.361.1.1,0,0,1-.169.022c-.178-.187.023-.144-.044-.29-.086,0-.161-.163-.263-.066-.055-.051-.02-.108-.016-.155-.142-.045-.475-.409-.463-.195l.019.03-.02-.01h0c-.4-.2-.655-.621-1.033-.842l.028-.038a2.58,2.58,0,0,0-.712-.29c-.064-.039-.109-.167-.054-.2a.926.926,0,0,1-.446-.236c.217.015-.028-.094.212.036-.213-.148-.235-.241-.541-.246.138-.068-.112-.223-.239-.243l.129.158a1.739,1.739,0,0,1-.343-.169l.122-.117c-.439-.371-1.007-.039-1.3-.454-.167.071.259.146.1.239-.227-.079-.416-.362-.492-.383-.311-.164-.356.139-.686.015.035.062.045.216-.217.231-.231-.055-.256-.278-.1-.3.059,0,.084.025.078.043.082-.008.189-.017.1-.091l-.042.051c-.11-.075-.446-.119-.355-.2-.192.025-.091.08.041.129a3.6,3.6,0,0,0-.8-.151c.049.034.091.1.04.1-.469-.092-.215.1-.533.108-.178-.1.071-.2-.253-.146-.2-.067-.042-.152.039-.195a1.554,1.554,0,0,1-.733-.073l.157-.054a.86.86,0,0,1-.252.04l.1.108c-.094-.015-.172-.01-.174-.058-.09.08.084.184-.095.3-.126-.048-.362.076-.419-.059.388.017-.059-.151.266-.2a.515.515,0,0,1-.234.012c-.015-.015.01-.034.035-.043-.387-.082-.152.193-.529.247.036-.091-.113-.144-.173-.118.155-.021.095.128-.032.214-.253-.027-.253.09-.38.1l.149.008c-.032.089-.153.1-.309.168-.028-.06.138-.082.074-.1-.146.192-.446-.043-.676.121-.134-.025-.055-.15-.171-.16-.257.175-.344-.014-.613.176.123.075.127.044-.04.224l.453-.251-.254.269c.144-.049.278-.185.374-.186-.122.13-.112.105-.017.168-.248-.091-.352.235-.614.208l-.092-.265c-.4,0-.553.372-1,.516l.158-.022c-.008.128-.256.141-.373.248-.03-.089-.133-.078-.22-.1.041.057-.3.176-.245.36l-.244,0c-.357.159-.234.442-.537.636.029-.149-.144-.1.012-.311-.1.073-.2.125-.162.179-.093,0-.2.305-.341.3-.016.064.032.151-.081.226-.024-.006-.029-.036-.029-.036.025.033-.124.184.032.187-.46.035-.77.689-1.149.769l-.5.661c-.013-.03-.036-.03,0-.06-.269.212.089.331-.212.57-.237.063.054-.209-.064-.148-.276-.139-.25.384-.532.5l.018-.063c-.192.112-.152.474-.335.734,0,0-.016-.027-.04-.025a3.278,3.278,0,0,1-.2.946c-.069-.136,0-.152-.135-.152-.043.131.2.049.111.306-.1.052-.24.2-.365.181l.1-.239c-.219.05-.132.311-.2.428l-.063-.043c-.116.386.059.454-.1.847l.069-.025c.1.272-.153.157-.081.417l-.2.019c.009.163.036.563.021.834a2.057,2.057,0,0,1-.129-.721c-.039.149-.115.511-.043.606,0-.063-.029-.148.014-.2a1.342,1.342,0,0,1,.087.759c-.353-.105-.216.762-.482.966.091.549-.093,1.079-.021,1.722.271-.249.019.184.307.118.026.142.04.2.02.211l-.1.461c-.067.119-.085-.128-.148-.106.028.327-.1.155-.143.384.1-.062.164.087.155.279l.091-.285c.216.417-.16.437.1.853l-.125-.12c.108.217.217.857.536.99-.018.05-.074.129-.13.038.144.559.7,1.059.764,1.509l-.081-.006c.066.085.191.105.2.249-.029.009-.084,0-.062.042.05.037.252.176.288.315l-.13-.06c.2.528.6.614.92.938-.166.12.026.52.15.7l-.028.014a4.877,4.877,0,0,0,1.357,1.017c.108.432.894.863,1.323,1.282-.057-.079.1-.129.2-.093.1.107.4.071.283.226l-.041-.028c0,.213.261.331.465.424l.149-.208c.356.61,1.427.481,1.615.883a3.494,3.494,0,0,0,.469.009l-.044.128a4.084,4.084,0,0,0,1.036.264l-.116.08c.272.05.408-.333.65-.305l.045.211a2.815,2.815,0,0,0,1.409.1.1.1,0,0,1-.1.091c.221.037.871.118.777-.151.014.177.49,0,.73-.108l-.025.138c.194-.2.193-.248.477-.34.072.006.077.095-.02.076.242.033.159-.152.449-.126l-.088.1c.239-.03.214-.063.32-.195.133-.089.444-.08.51.027a.283.283,0,0,1,.259-.209c.031.039-.011.08-.032.1.421,0,.517-.334.82-.3a.1.1,0,0,0,.072.058,4.106,4.106,0,0,1-.527.171c.036.117.291.047.146.28.175-.162.44-.473.7-.507l.047.028-.019.022a.258.258,0,0,0,.143-.075.885.885,0,0,0,.2-.058c.068.08.3-.081.415-.133-.069-.116.093-.17-.1-.2.023,0-.015.026-.09.068-.015.011-.043.036-.043.036l0-.014-.286.147a.316.316,0,0,1,.3-.2l.065-.271c.24.095.594.031.687.1.3-.279.792-.515.832-.884.07-.092.144-.017.2-.011-.037.059-.1.1-.108.153.142-.186.518-.418.45-.586.271-.109-.02.226.261-.04l0,.077c.775-.3.6-1.145,1.41-1.528-.056.029-.084.044-.114.033a17.471,17.471,0,0,0,1.664-2.384c.163-.221.074-.3.066-.475l.157,0-.056-.324c.005-.41.6-.521.491-1.083l-.109.036c.062-.169.083-.563.185-.508-.013-.022-.084-.08-.018-.137l.075.011a3.056,3.056,0,0,0-.042-.456c.1-.33.286.1.375-.4,0-.193-.139-.554-.2-.489-.014.074-.074.183-.15.18l-.014-.17c-.217-.053-.425-.191-.637.175l.095.287-.119.07.026-.226c-.119.113-.042.206.005.307a.188.188,0,0,0-.133.092l.169.3c-.093.013-.144-.149-.231.013.066.141.221-.077.232.138-.131.105-.2.049-.155.217-.061.007-.088-.032-.1-.1.034.146-.059.351.037.451-.146.1-.089.454-.292.375a.715.715,0,0,1,.04.4c-.159-.3-.173.434-.4.277.161.246-.161.582-.171.907-.009-.024-.027-.069-.006-.088-.089.143-.17.155-.253.23.154.107.055.351.079.532-.262.085-.123-.218-.306-.25.136.067-.054.379.089.387-.176.076-.117.087-.288.072.179.151-.037.149,0,.331-.231.116-.214-.08-.305.16C104.646,189.154,104.71,188.93,104.71,188.93Zm-4.356,3.9v0l.114-.05Zm-.474.177.208-.071c.032.037.031.089-.018.1C100.085,193,99.963,193.016,99.88,193.005Zm1.382.441c-.07.055-.108.044-.13.024l.131-.081,0-.019A.176.176,0,0,1,101.262,193.446Z"/><path class="cls-8" d="M101.327,193.22l.028-.025-.059,0-.009.052Z"/><polygon class="cls-8" points="103.804 174.537 103.798 174.527 103.803 174.557 103.804 174.537"/><polygon class="cls-8" points="93.095 192.792 93.085 192.825 93.135 192.811 93.095 192.792"/><path class="cls-8" d="M105.352,176.99a.111.111,0,0,0-.009.05A.232.232,0,0,0,105.352,176.99Z"/><path class="cls-8" d="M105.935,178.054l.032.176A1.027,1.027,0,0,0,105.935,178.054Z"/><path class="cls-8" d="M106.266,178.925a.328.328,0,0,0,.059-.005v0Z"/><path class="cls-8" d="M94.328,172.652l-.033.012C94.219,172.705,94.272,172.683,94.328,172.652Z"/><path class="cls-8" d="M98.683,172.381l-.151.027C98.606,172.438,98.665,172.455,98.683,172.381Z"/><polygon class="cls-8" points="90.086 174.776 90.084 174.774 90.061 174.791 90.086 174.776"/><path class="cls-8" d="M98.329,172.375a.321.321,0,0,0,.2.033A.5.5,0,0,0,98.329,172.375Z"/><polygon class="cls-8" points="106.994 182.837 106.991 182.881 107.012 182.886 106.994 182.837"/><path class="cls-8" d="M107.012,182.886l.013.05A.105.105,0,0,0,107.012,182.886Z"/><path class="cls-8" d="M107.054,183.04l-.029-.1C107.023,182.971,107.017,183.016,107.054,183.04Z"/><path class="cls-8" d="M106.968,181.614l-.05-.007A.189.189,0,0,0,106.968,181.614Z"/><path class="cls-8" d="M106.9,181.248c0,.09-.068.235-.019.352l.04.007C106.838,181.559,106.991,181.319,106.9,181.248Z"/><path class="cls-8" d="M107.123,179.555l.049.329c.035-.07.083-.164.133-.021C107.346,179.415,107.218,179.977,107.123,179.555Z"/><path class="cls-8" d="M106.84,178.567c.084.158.068-.031.1-.034C106.852,178.446,106.828,178.427,106.84,178.567Z"/><path class="cls-8" d="M101.992,173.109l.076-.1C101.941,172.956,102.044,173.052,101.992,173.109Z"/><polygon class="cls-8" points="100.478 173.063 100.566 173.18 100.664 173.104 100.478 173.063"/><polygon class="cls-8" points="100.004 171.968 100.067 171.972 99.833 171.935 100.004 171.968"/><path class="cls-8" d="M88.256,174.81l.136.076C88.442,174.806,88.338,174.669,88.256,174.81Z"/><path class="cls-8" d="M85.581,179.5a.223.223,0,0,0-.132.279C85.489,179.661,85.575,179.56,85.581,179.5Z"/><polygon class="cls-8" points="91.358 193.379 91.235 193.375 91.443 193.429 91.358 193.379"/><polygon class="cls-8" points="89.86 182.517 91.543 182.584 93.65 186.996 97.03 183.947 99.883 180.821 102.646 177.525 104.208 177.951 101.641 180.482 99.594 183.5 97.027 186.052 94.341 188.444 92.927 188.393 91.172 185.584 89.86 182.517"/><path class="cls-9" d="M184.227,134.419a2.7,2.7,0,0,1-2.7-2.7V89.692a2.7,2.7,0,0,1,2.7-2.7h67.142a2.7,2.7,0,0,1,2.694,2.7v42.029a2.7,2.7,0,0,1-2.694,2.7Z"/><polygon class="cls-9" points="201.059 134.419 189.9 134.419 189.9 145.577 201.059 134.419"/><rect class="cls-10" x="201.059" y="92.576" width="44.637" height="2.788"/><rect class="cls-10" x="201.059" y="98.156" width="22.321" height="2.788"/><rect class="cls-10" x="201.059" y="106.523" width="44.637" height="2.788"/><rect class="cls-10" x="201.059" y="112.102" width="22.321" height="2.788"/><rect class="cls-10" x="201.059" y="119.584" width="44.637" height="2.788"/><rect class="cls-10" x="201.059" y="125.163" width="22.321" height="2.788"/><path class="cls-8" d="M259.581,124.707l-5.521,9.71,9.71,5.521A11.163,11.163,0,0,0,259.581,124.707Z"/><path class="cls-7" d="M254.06,134.417l5.521-9.71a11.164,11.164,0,1,0-2.554,20.466Z"/><path class="cls-11" d="M254.06,134.417l2.967,10.756a11.153,11.153,0,0,0,6.743-5.235Z"/><path class="cls-10" d="M197.086,101.6a4.7,4.7,0,0,1-2.207.507q-3.352-.042-4.053-3.706l-.951-.012-.015-1.011.848.01a4.261,4.261,0,0,1-.04-.556,7.394,7.394,0,0,1,.035-.78l-.864-.011-.015-1.011,1.029.012a4.824,4.824,0,0,1,1.47-2.694,3.843,3.843,0,0,1,2.683-.945,4.509,4.509,0,0,1,1.931.428l.017,1.171a3.771,3.771,0,0,0-2.019-.589,2.4,2.4,0,0,0-1.736.7,3.786,3.786,0,0,0-1.043,1.941l3.9.048.016,1.012L192,96.071a7.587,7.587,0,0,0,.013,1.337l4.084.051.015,1.011-3.958-.049q.606,2.652,2.79,2.679a4.241,4.241,0,0,0,2.126-.6Z"/><path class="cls-10" d="M197.086,114.847a4.7,4.7,0,0,1-2.207.507q-3.352-.042-4.053-3.706l-.951-.012-.015-1.011.848.011a4.292,4.292,0,0,1-.04-.557,7.406,7.406,0,0,1,.035-.78l-.864-.011-.015-1.011,1.029.012a4.824,4.824,0,0,1,1.47-2.694,3.843,3.843,0,0,1,2.683-.945,4.509,4.509,0,0,1,1.931.428l.017,1.171a3.78,3.78,0,0,0-2.019-.589,2.4,2.4,0,0,0-1.736.7,3.79,3.79,0,0,0-1.043,1.941l3.9.049.016,1.011L192,109.315a7.587,7.587,0,0,0,.013,1.337l4.084.051.015,1.011-3.958-.049q.606,2.652,2.79,2.679a4.241,4.241,0,0,0,2.126-.6Z"/><path class="cls-10" d="M197.086,128.091a4.716,4.716,0,0,1-2.207.508q-3.352-.042-4.053-3.707l-.951-.011-.015-1.012.848.011a4.278,4.278,0,0,1-.04-.557,7.406,7.406,0,0,1,.035-.78l-.864-.011-.015-1.011,1.029.013a4.823,4.823,0,0,1,1.47-2.7,3.843,3.843,0,0,1,2.683-.945,4.494,4.494,0,0,1,1.931.429l.017,1.17a3.78,3.78,0,0,0-2.019-.589,2.4,2.4,0,0,0-1.736.7,3.79,3.79,0,0,0-1.043,1.941l3.9.049.016,1.011L192,122.559a7.587,7.587,0,0,0,.013,1.337l4.084.051.015,1.011-3.958-.049q.606,2.652,2.79,2.679a4.241,4.241,0,0,0,2.126-.6Z"/><path class="cls-12" d="M161.367,148.782c-10.916,8.416-12.988,24.389-4.628,35.678a24.673,24.673,0,0,0,32.346,6.926l7.622,10.23c1.285,1.724,3.433,2.262,4.8,1.2s1.428-3.318.143-5.043l-7.614-10.217a25.888,25.888,0,0,0,2.238-33.568A24.622,24.622,0,0,0,161.367,148.782Zm17.407-.708a20.808,20.808,0,0,1,13.934,8.318,21.367,21.367,0,0,1-3.833,29.556,20.212,20.212,0,0,1-23.59.756,21.473,21.473,0,0,1-1.491-34.627A20.02,20.02,0,0,1,178.774,148.074Z"/><ellipse class="cls-13" cx="176.303" cy="169.094" rx="20.605" ry="21.173" transform="translate(-36.564 49.248) rotate(-14.424)"/><path class="cls-14" d="M163.666,152.023a21.383,21.383,0,0,0-3.838,29.576,19.978,19.978,0,0,0,5.239,4.949l0,0c-1.143-25.952,13.19-38.195,13.586-38.528A20.029,20.029,0,0,0,163.666,152.023Z"/><path class="cls-9" d="M199.841,193.585l-6.792,5.284c-.227.177-.175.638.116,1.03l.027.035,0,0,14.44,19.377c3.226,4.328,6.093,4.524,8.2,2.887s2.649-4.488-.577-8.816l-12.691-17.03-.005-.008-1.77-2.374C200.49,193.581,200.069,193.407,199.841,193.585Z"/></g></svg>