<svg id="elements" xmlns="http://www.w3.org/2000/svg" xmlns:xlink="http://www.w3.org/1999/xlink" viewBox="0 0 277 230"><defs><style>.cls-1{fill:none;}.cls-2{clip-path:url(#clip-path);}.cls-3{fill:#dee3e8;}.cls-4{fill:#2f363e;}.cls-5{fill:#e11e19;}.cls-6{fill:#7fc3de;}.cls-7{fill:#788287;}.cls-8{fill:#fff;}.cls-9{fill:#b7b7b7;}.cls-10{fill:#bec8d2;}.cls-11{fill:#7cb892;}</style><clipPath id="clip-path"><rect class="cls-1" width="277" height="230"/></clipPath></defs><g class="cls-2"><path class="cls-3" d="M71.206,196.582a6.14,6.14,0,0,1-6.123-6.131V39.283a6.145,6.145,0,0,1,6.123-6.131H195.143a6.153,6.153,0,0,1,6.132,6.131V190.451a6.147,6.147,0,0,1-6.132,6.131Z"/><rect class="cls-4" x="78.694" y="114.876" width="27.238" height="27.23" rx="2.449"/><path class="cls-4" d="M146.8,117.325a2.456,2.456,0,0,0-2.457-2.449H122.008a2.455,2.455,0,0,0-2.449,2.449v22.331a2.455,2.455,0,0,0,2.449,2.449h22.333a2.457,2.457,0,0,0,2.457-2.449Z"/><path class="cls-4" d="M187.655,117.325a2.461,2.461,0,0,0-2.457-2.449H162.866a2.455,2.455,0,0,0-2.449,2.449v22.331a2.455,2.455,0,0,0,2.449,2.449H185.2a2.462,2.462,0,0,0,2.457-2.449Z"/><path class="cls-4" d="M105.932,158.174a2.455,2.455,0,0,0-2.449-2.449H81.151a2.462,2.462,0,0,0-2.457,2.449v22.34a2.462,2.462,0,0,0,2.457,2.449h22.332a2.455,2.455,0,0,0,2.449-2.449Z"/><path class="cls-4" d="M146.8,158.174a2.457,2.457,0,0,0-2.457-2.449H122.008a2.455,2.455,0,0,0-2.449,2.449v22.34a2.455,2.455,0,0,0,2.449,2.449h22.333a2.457,2.457,0,0,0,2.457-2.449Z"/><path class="cls-5" d="M187.655,158.174a2.462,2.462,0,0,0-2.457-2.449H162.866a2.455,2.455,0,0,0-2.449,2.449v22.34a2.455,2.455,0,0,0,2.449,2.449H185.2a2.462,2.462,0,0,0,2.457-2.449Z"/><path class="cls-6" d="M81.152,46.771H185.2a2.457,2.457,0,0,1,2.457,2.457V85.18a2.458,2.458,0,0,1-2.458,2.458H81.151a2.457,2.457,0,0,1-2.457-2.457V49.229A2.458,2.458,0,0,1,81.152,46.771Z"/><rect class="cls-7" x="65.083" y="99.341" width="136.192" height="3.813"/><rect class="cls-8" x="90.127" y="120.826" width="4.381" height="15.32"/><rect class="cls-8" x="84.653" y="126.3" width="15.329" height="4.381"/><rect class="cls-8" x="166.376" y="162.777" width="15.32" height="4.381"/><rect class="cls-8" x="166.376" y="171.538" width="15.32" height="4.372"/><rect class="cls-8" x="84.654" y="167.157" width="15.323" height="4.373" transform="translate(-92.706 114.876) rotate(-45)"/><rect class="cls-8" x="90.128" y="161.683" width="4.373" height="15.323" transform="translate(-92.639 114.65) rotate(-44.93)"/><rect class="cls-8" x="125.518" y="167.158" width="15.32" height="4.381"/><path class="cls-8" d="M135.373,163.87a2.195,2.195,0,1,0-2.194,2.194A2.185,2.185,0,0,0,135.373,163.87Z"/><path class="cls-8" d="M135.373,174.818A2.195,2.195,0,1,0,133.179,177,2.192,2.192,0,0,0,135.373,174.818Z"/><rect class="cls-8" x="125.518" y="126.3" width="15.32" height="4.381"/><path class="cls-8" d="M177.505,130.714a3.21,3.21,0,0,1-2.384,1.052,3.276,3.276,0,0,1,0-6.551,3.206,3.206,0,0,1,2.384,1.052l3.106-3.106a7.655,7.655,0,1,0,0,10.66Z"/><path class="cls-9" d="M7.581,209.026a13.308,13.308,0,0,1,2.467-8.176,17.578,17.578,0,0,1,7.255-5.413,14.878,14.878,0,0,1-6.039-5.193,12.647,12.647,0,0,1-2.026-6.959,11.106,11.106,0,0,1,2.412-6.905,15.8,15.8,0,0,1,6.7-4.916,24.67,24.67,0,0,1,9.482-1.767,25.65,25.65,0,0,1,9.722,1.749,15.3,15.3,0,0,1,6.666,4.88,11.351,11.351,0,0,1,2.356,7,12.27,12.27,0,0,1-2.172,6.96,15.368,15.368,0,0,1-6.334,5.229,16.872,16.872,0,0,1,7.438,5.579,13.506,13.506,0,0,1,2.283,7.825,13.235,13.235,0,0,1-2.559,7.954,16.3,16.3,0,0,1-7.181,5.45,26.859,26.859,0,0,1-10.366,1.915q-8.912,0-14.509-4.272A13.18,13.18,0,0,1,7.581,209.026Zm14.251-1.289a6.023,6.023,0,0,0,1.62,4.456,5.776,5.776,0,0,0,4.272,1.62,5.622,5.622,0,0,0,4.309-1.732,6.6,6.6,0,0,0-.074-8.745,5.654,5.654,0,0,0-4.235-1.749,5.67,5.67,0,0,0-4.2,1.712A6.038,6.038,0,0,0,21.832,207.737Zm1.326-22.648a5.807,5.807,0,0,0,1.38,3.83,4.367,4.367,0,0,0,6.85,0,5.808,5.808,0,0,0,1.381-3.83,5.736,5.736,0,0,0-1.4-3.94,4.4,4.4,0,0,0-3.424-1.583,4.33,4.33,0,0,0-3.425,1.583A5.832,5.832,0,0,0,23.158,185.089Z"/><path class="cls-10" d="M250.789,189.7a3.76,3.76,0,0,0-2.66-6.415h-16.06l.4-.98a28.293,28.293,0,0,0,2.049-10.565v-1.589a3.76,3.76,0,0,0-7.52,0v-.38a14.085,14.085,0,0,1-1.092,5.452,13.925,13.925,0,0,1-3.082,4.576,12.12,12.12,0,0,1-8.5,3.486h-1.83v30.074h29.347a3.76,3.76,0,0,0,0-7.519h2.084a3.76,3.76,0,1,0,0-7.519H246a3.758,3.758,0,0,0,0-7.516h2.126A3.748,3.748,0,0,0,250.789,189.7Z"/><path class="cls-11" d="M195.733,212.209a2.643,2.643,0,0,0,.477,1.555,1.443,1.443,0,0,0,1.15.644h14.324a1.443,1.443,0,0,0,1.149-.644,2.642,2.642,0,0,0,.475-1.555v-27.78a2.645,2.645,0,0,0-.475-1.559,1.435,1.435,0,0,0-1.149-.644H197.36a1.435,1.435,0,0,0-1.15.644,2.647,2.647,0,0,0-.477,1.559Z"/></g></svg>