<svg xmlns="http://www.w3.org/2000/svg" viewBox="0 0 76 76"><defs><style>.cls-1{isolation:isolate;}.cls-2{fill:#e95653;}.cls-3{fill:none;}.cls-4{opacity:0.15;mix-blend-mode:multiply;}.cls-5{fill:#f9d2d1;}.cls-6{fill:#fff;}</style></defs><g class="cls-1"><g id="Layer_1" data-name="Layer 1"><circle class="cls-2" cx="38" cy="38" r="37.5"/><path class="cls-3" d="M27.149,45.818l-2.094-.089a1.442,1.442,0,0,1-1.383-1.535l.132-2.141a2.408,2.408,0,0,0-1.231-2.132l-1.921-.953A1.448,1.448,0,0,1,20.012,37l1-1.9a2.416,2.416,0,0,0-.259-2.447L19.38,31a1.442,1.442,0,0,1,.216-2.054l1.686-1.338a2.409,2.409,0,0,0,.758-2.34L21.465,23.2A1.448,1.448,0,0,1,22.5,21.412l2.078-.537a2.417,2.417,0,0,0,1.65-1.83l.311-2.121a1.444,1.444,0,0,1,1.672-1.213l2.116.359a2.415,2.415,0,0,0,2.249-1l1.148-1.815a1.445,1.445,0,0,1,2.023-.43l1.788,1.186a2.416,2.416,0,0,0,2.463,0l1.788-1.186a1.444,1.444,0,0,1,2.021.43l1.148,1.815a2.109,2.109,0,0,0,.677.619l.186-.123a1.441,1.441,0,0,1,2,.4l1.5-.255c.8-.138,25.747,16.855,25.866,17.656l.024.015A37.512,37.512,0,1,0,44.274,74.968L20.842,59.043Z"/><path class="cls-4" d="M75.5,38a37.839,37.839,0,0,0-.293-4.618l-.024-.015c-.119-.8-25.065-17.794-25.866-17.656l-1.5.255a1.441,1.441,0,0,0-2-.4l-.186.123a2.109,2.109,0,0,1-.677-.619L43.8,13.255a1.444,1.444,0,0,0-2.021-.43l-1.788,1.186a2.416,2.416,0,0,1-2.463,0l-1.788-1.186a1.445,1.445,0,0,0-2.023.43L32.573,15.07a2.415,2.415,0,0,1-2.249,1l-2.116-.359a1.444,1.444,0,0,0-1.672,1.213l-.311,2.121a2.417,2.417,0,0,1-1.65,1.83l-2.078.537A1.448,1.448,0,0,0,21.465,23.2l.575,2.063a2.409,2.409,0,0,1-.758,2.34L19.6,28.944A1.442,1.442,0,0,0,19.38,31l1.37,1.655a2.416,2.416,0,0,1,.259,2.447l-1,1.9a1.448,1.448,0,0,0,.64,1.967l1.921.953A2.408,2.408,0,0,1,23.8,42.053l-.132,2.141a1.442,1.442,0,0,0,1.383,1.535l2.094.089L20.842,59.043,44.274,74.968A37.5,37.5,0,0,0,75.5,38Z"/><polygon class="cls-5" points="28.826 40.701 20.08 59.043 26.853 56.642 29.252 63.417 37.999 45.076 28.826 40.701"/><polygon class="cls-5" points="47.174 40.701 55.918 59.043 49.147 56.642 46.746 63.417 37.999 45.076 47.174 40.701"/><path class="cls-6" d="M36.77,14.012a2.42,2.42,0,0,0,2.463,0l1.788-1.187a1.443,1.443,0,0,1,2.02.43L44.19,15.07a2.415,2.415,0,0,0,2.246,1l2.119-.359a1.443,1.443,0,0,1,1.671,1.213l.314,2.121a2.429,2.429,0,0,0,1.645,1.833l2.078.535A1.45,1.45,0,0,1,55.3,23.205l-.577,2.061a2.414,2.414,0,0,0,.76,2.34l1.686,1.338A1.445,1.445,0,0,1,57.382,31l-1.369,1.652a2.406,2.406,0,0,0-.257,2.447L56.75,37a1.445,1.445,0,0,1-.64,1.967l-1.921.953a2.414,2.414,0,0,0-1.231,2.133l.133,2.14a1.445,1.445,0,0,1-1.384,1.535l-2.142.091a2.416,2.416,0,0,0-1.992,1.45l-.747,2.009a1.444,1.444,0,0,1-1.887.841l-2-.791a2.417,2.417,0,0,0-2.406.513l-1.5,1.531a1.442,1.442,0,0,1-2.066,0l-1.5-1.531a2.421,2.421,0,0,0-2.408-.513l-1.995.791a1.444,1.444,0,0,1-1.887-.841l-.749-2.009a2.41,2.41,0,0,0-1.99-1.45l-2.142-.091a1.444,1.444,0,0,1-1.384-1.535l.133-2.14a2.41,2.41,0,0,0-1.231-2.133l-1.921-.953A1.446,1.446,0,0,1,19.25,37l1-1.9a2.414,2.414,0,0,0-.259-2.447L18.618,31a1.442,1.442,0,0,1,.216-2.054l1.686-1.338a2.409,2.409,0,0,0,.758-2.34L20.7,23.2a1.446,1.446,0,0,1,1.031-1.79l2.078-.538a2.414,2.414,0,0,0,1.65-1.83l.312-2.121a1.444,1.444,0,0,1,1.671-1.213l2.116.359a2.414,2.414,0,0,0,2.249-1l1.149-1.815a1.445,1.445,0,0,1,2.023-.43Z"/><path class="cls-2" d="M52.28,32.216A14.28,14.28,0,1,1,38,17.939,14.283,14.283,0,0,1,52.28,32.216Z"/><polygon class="cls-6" points="38.001 24.48 40.514 29.574 46.137 30.39 42.069 34.355 43.029 39.957 38.001 37.313 32.971 39.957 33.931 34.355 29.863 30.39 35.486 29.574 38.001 24.48"/></g></g></svg>