<svg xmlns="http://www.w3.org/2000/svg" viewBox="0 0 76 76"><defs><style>.cls-1{isolation:isolate;}.cls-2{fill:#e95653;}.cls-3{fill:none;}.cls-4{opacity:0.15;mix-blend-mode:multiply;}.cls-5{fill:#fff;}.cls-6{fill:#f08e8c;}</style></defs><g class="cls-1"><g id="Layer_1" data-name="Layer 1"><circle class="cls-2" cx="38" cy="38" r="37.5"/><path class="cls-3" d="M18.016,37.866V20.753L38,11.446l19.984,9.307L74.839,31.008a37.49,37.49,0,1,0-25.3,42.674c-8.558-5.194-14.865-9.051-15.247-9.325A29.7,29.7,0,0,1,18.016,37.866Z"/><path class="cls-4" d="M75.5,38a37.629,37.629,0,0,0-.661-6.992L57.984,20.753,38,11.446,18.016,20.753V37.866A29.7,29.7,0,0,0,34.3,64.357c.382.274,6.689,4.131,15.247,9.325A37.512,37.512,0,0,0,75.5,38Z"/><path class="cls-5" d="M38,10.747,18.016,20.055V37.168A29.737,29.737,0,0,0,38,65.253,29.737,29.737,0,0,0,57.984,37.168V20.055Z"/><path class="cls-2" d="M38,14.954V61.176A25.927,25.927,0,0,0,54.171,37.168V22.485Z"/><path class="cls-6" d="M21.832,22.485V37.168A25.927,25.927,0,0,0,38,61.176V14.954Z"/><path class="cls-5" d="M48.085,37.522A10.083,10.083,0,1,1,38,27.436,10.082,10.082,0,0,1,48.085,37.522Z"/><polygon class="cls-2" points="36.154 42.703 31.713 38.259 33.193 36.781 36.154 39.74 42.812 33.081 44.292 34.561 36.154 42.703"/></g></g></svg>