<svg id="elements" xmlns="http://www.w3.org/2000/svg" xmlns:xlink="http://www.w3.org/1999/xlink" viewBox="0 0 234.774 200"><defs><style>.cls-1{fill:none;}.cls-2{clip-path:url(#clip-path);}.cls-3{fill:#dee3e8;}.cls-4,.cls-8{fill:#fff;}.cls-4{fill-rule:evenodd;}.cls-5{fill:#f2f2f2;}.cls-6{fill:#7cb892;}.cls-7{fill:#e11e19;}.cls-8{opacity:0.42;}</style><clipPath id="clip-path"><rect class="cls-1" x="-0.514" y="-0.873" width="234.774" height="200"/></clipPath></defs><g class="cls-2"><circle class="cls-3" cx="114.189" cy="96.55" r="81.741"/><path class="cls-4" d="M95.052,164.874a4.338,4.338,0,0,0,1.468-.3c-.594-.483-1.92-.543-2.684-1.015.061.04-2.462-1.5-1.93-.232.131.3.624.03.825.182-.3.462-.433.321-.1.512,0,0-2.8-1.518.01-1.618-1.93-1.739.131-1.206-.492-2.3-.413-.753,1.658-1.487.542-2.141-.533-.291-1.115-.241-1.658-.6-.774-.572-.05-1.567.684-1.457.059,0,.432-1.769.572-2.04-.211-.091-1.658-1.879-1.306-2.252.432-.462,2.3,1.156,2.763-.04.181-.422-.652-1.588-.582-2.06.854-.07,6.442.13,5.487-2.422-.322-.894-2.673-2.222-2.442-2.945.824.1,2.171,1.3,3.035.824.734-.361,1.316.413,2.061-.422.11-.15,1.366-1.478,1.014-1.729-.381-.009-.6.211-.633.653-.432-.6.323-1.014.714-1.457.121.141.2.272.292.382.472-.7,3.035-4.05,3.145-4.14,1.317-1.518.211-3.6,1.528-4.815a12.3,12.3,0,0,1,3.98-2.452,11.817,11.817,0,0,1,2.453-.965c2.733.844,2.4-2.412,4.14-3.89,1.78-1.477.472-9.055,1.9-9.608.774-.311,3.1-3.186,4.321-4.5a4.48,4.48,0,0,0,.875-4.472c-.693-2.452-1.408-1.045-3.176-2.121-1.407-.844-2.482-2.522-4.262-2.763-1.025-.141-2.09.16-3.105-.141-.452-.131-1.619-.844-2.051-.241a2.653,2.653,0,0,0-.874.412c-.111-.081-.02-1.348-.362-1.658a9.751,9.751,0,0,0-3.025-1.187c-1.528-.4-1.9,1.4-2.281-.743-1.267-.342-2.523-1.809-2.292-2.172.111-.15-1.96-4.522-2.251-4.121-.021-1.466-4.574-3.286-5.709-2.592-1.045.764-2.955-.674-3.6-1.358-.723-.773-.693-1.617-1.91-2.12-.513-.211-1.386-.1-1.2-1,.211-.924-2.231-1.115-2.463-2.03a2.273,2.273,0,0,0,.964-.191c-.954.332-2.1-.352-3.054.4-1.358,1.125-2.172-.533-3.659-.232-1.9.352-.633-.342-1.82-1.075.493.3-2.21-1.226-1.588-1.186-.561-.061.091.945-.542,1.165-.985.362-1.839.594-1.2,1.779,1.086,2.162-2.271,1.146-.683-.331.281-.242.352-3.076.663-2.975-.382-.141-3.447,1.849-3.809,2.281-.985-1.588-2.643,3.89-3.2,3.95-.282-1.347-1.568-1.91-2.684-2.3-.945-.371-1.909,1.9-3.155.654-2.2-2.242-1.237-5.849-.111-8.4.462-1.166-4.08-1.527-4.643-1.044-1.116.9.171-1.89.16-1.79.131-1.135.392-1.889.885-1.849.3-.663,1.99-3.719,1.809-4.08-.684-1.588-3.558,1.226-3.82,1.949-.291.694-.854,1.065-1.115,1.7s-.794-.15-1.256.112c-1.236.7-3.015.341-2.734-1.458.271-2.171-.553-6.442,1.88-7.93.753-.472.863-2.623,1.719-3.4.11-.08,2.562-1.508,2.331-1.8.362.392,2.281-.392,2.533.11a1.8,1.8,0,0,0,1.729.624c-.021.04.2-.965.2-.965-.04-.02-.793-.121-.763-.351.09-.343,2.4-.122,2.472-.112,1.1.081,1.91.985,2.714.443,1.266-.854.492,4.764.985,5.277.281.3.08.974.613.914.713-.07.945-7.287,2.8-8.784a30.419,30.419,0,0,1,4.342-2.895c.473-.241,1.73-.834,1.981-1.317-.061-.23-.272-.5-.543-.26-.071-.453.673-.171.8-.643s-.382-.6-.322-.765c-.02.04.463-.954.3-.814.021.02.021.071.031.08.743.131-.161-.683-.191-.8.975.5.563-1.075,1.518-1.166-.683.292-.553,1.066-.463,1.529.2,1.035,1.106-1.418,1-1.327A19.9,19.9,0,0,0,82.881,44.6c-.221-.082-.463.09-.744-.1,1.006-.372,2.141-.262,3.1-.753a2.143,2.143,0,0,1,1.708-2.272c1.759-.282,3.8-1.347,5.538-1.93-.261.583.151.121.614.362-.563-1.487-3.659,2.714-2.191,1.869,1.246-.7,5.447-1.367,6.009-2.573-.009-.081-.271-.884-.26-.884-1.046,0-1.126,1.286-2.413,1.276-2.3-.03-.9-1.447-1.387-2.1a.967.967,0,0,1-1.045-.321c.231-.05,3.086-.7,1.587-1.045-2.442-.523-4.07,2.191-6.089,2.131,1.5-.925,3.547-2.874,5.376-3.116,1.94-.281,4.644.673,6.342-.523,1.537-1.045,2.573-.281,3.418-1.99.27-.472-1.107-1.065-1.458-1.136.14-.171.452,0,.583-.291-2.3-1.025-2.784-2.031-3.056-4.684-1.166.845-5.085,2.664-2.984-.3-.755-.311-3.126-2.3-4.041-.935a5.772,5.772,0,0,1-1.779,1.97c-1.557.714-.171.573-.7,1.618-.875,1.7-2.995,1.467-4,2.975-.632.945-.833,1.609-1.818,2.04-.865.392-1.2-.623-.765-1.437.3.342.573.392.835.141.07-.382-.452-.2-.633-.332a7.623,7.623,0,0,1,1.125-1.467c-.161-.08-2.352-.432-2.272-1,.141-1.206-1.356-.553-1.637-.905,1.175-1.487,1.175-2.16,3.487-3.326.794-.382,5.2-2.644,6.01-2.09-.1.521-.633.422-.934.662.643.161,2.482.382,3.106-.07-.131-.121-.875-1.336-.493-1.638a6.884,6.884,0,0,0,1.367,0c.7-.171,1.477-.261,1.889-.985.352-.643,2.684-1.468,3.237-1.145,3.065,1.738-4.131,3.567-4.211,3.376.15.5,2.079-.362,2.572.965.121.322,2.322,1.045,2.533.733.14-.15-.633-.955-.653-1.155,2.311,1.126,2.191.543,1.809-1-.362-1.478,1.356.1,1.447.14.372.2,1.95-.7,2.191-1.025-.582-.432-1.548-.422-2.05-.945-.462-.462,1.215-.582.623-1.055-.694-.573-1.8-.422-1.407-1.558a1.437,1.437,0,0,0-1.146.152c.11.211.342.05.433.17a2.317,2.317,0,0,1-1.267.241c.141-.181.543-.181.552-.563-1.206-.15-1.849.563-2.883.885.3-.423.793-.563,1.155-.885a6.008,6.008,0,0,0-3.116,1.327,1.783,1.783,0,0,1,.342.422,11.4,11.4,0,0,1-3.055,1.467c.171-.683.914-.522,1.156-1.025a2.465,2.465,0,0,0-1.076.251,7.885,7.885,0,0,0,2.01-1.668c-1.849-.221-2.633,2.191-4.392,1.85.362-.433,1.105-.211,1.357-.875-.643.071-3.106,1.749-3.508.875-.02-.061,4.5-1.85,4.975-2.5-.311-.04-.653.271-.924-.091.221-.241.582-.271.834-.532-1.467-.021-5.89,1.789-5.558,2.814a1.721,1.721,0,0,1-1.879.3c.261-.432,1.236-.441.451-1.065-1.417.523-2.8,1.105-4.19,1.719a75.537,75.537,0,0,0-9.267,4.905A70.635,70.635,0,0,0,58.388,37.584c-2.141,2.181-10.3,11.709-10.272,13.7.02,1.468-.844,2.774-1.4,4.1-.442,1.066-.512,2.573-1.035,3.579-1.186,2.12-.654,4.562-1.186,6.995.684-.512,2.061-11.639,3.276-11.217.221.081-.753,4.623-.994,5.186-1.016,2.332.321,5.186-.352,7.619a15.412,15.412,0,0,0-.413,1.738c-1.125.855.293,2.141.282,3.086,0,.573,2.864,3.075,3.427,3.417,1.2.714,1.437-.563,2.533-.342.985.211,1.276,2,1.81,2.775.692,1.044,3.366.924,3.849,1.417.3.391.04,2.432,1.256,2.723-.01-.141-.031-.864.14-.964.373-.221,1.156,1.135.9,1.386a.985.985,0,0,1-1.025-.422c0,.181-.2,2.864.573,2.342.01-.161.07-.332.08-.492,1.035.442.955,1.949,1.679,2.151.995.281,1.758,1.527,2.492,1.879.673.352.492-2.342,1.769-2.483,1.035-.09,1.618,2.593,1.97,3.257.553.945-.724,3.216-.02,3.939.7.764-1.769,2.554-1.9,3.307-.07.573-1.336,1.135-1.3,1.347a4.781,4.781,0,0,1-.5,2.091c-.633,1.678-.321,1.818.774,2.6.031.021-2.02,4.081-.844,5.127A18.6,18.6,0,0,1,68.88,115.1a11.8,11.8,0,0,0,6.161,6.875,7.392,7.392,0,0,1,4.323,6.633c.1,1.78-.182,4.021.582,5.7.533,1.165-.472,3.085.282,4.151.492.653-.151,1.044.14,1.647a7.606,7.606,0,0,1,.965,2.533c-.02,1.267,0,2.794.091,4.061.02.442-.382,1.165-.171,1.447a22.147,22.147,0,0,1,2.019,5.829c-.009.3,1.328-.07.131-1.276,1.417-.794,1.126,2.542,1.227,2.563-1.276-.412-.462-.07-.352,1.588.07.964-.251.5.542.683,1.278.281,0,1.126.483,1.81a33.932,33.932,0,0,0,3.408,3.688c1.628,1.728,4.4,1.437,6.341,1.839C95.333,164.944,94.7,164.814,95.052,164.874Zm5.327-133.229a3.449,3.449,0,0,1-1.437.643C99.3,31.725,99.826,31.815,100.379,31.645Zm-4.251-.363a.769.769,0,0,1,.774.272c.009.131-1.74.221-2.02.653.23-.744.864-.623,1.246-.925C96.309,31.5,95.746,31.584,96.128,31.282Zm-4.282,3.026c.372.1-.533-.071,0,0C91.866,34.317,91.746,34.3,91.846,34.308Zm-2.352-4.483c.161-.171.292-.15.372.08-.161.2-.291.162-.372-.08C89.5,29.724,89.474,29.945,89.494,29.825ZM87.152,36.81c-.653-.04.694.021,0,0Zm.694-2.7c-2.261,2.141-.5.031-1.156.684.011.031,0,.071-.03.071-.191-.2,1.146-.734,1.186-.755C87.564,34.378,87.454,34.167,87.846,34.106Zm-.835-2.512c-.411.472-.411.472-.974.372C86.338,31.755,86.741,31.826,87.011,31.594Zm10.172-8.031h-.532c.723-.613.6,0,.532,0Zm1.638-1.095c-.251.292-.613.111-.915.262C98.228,22.1,98.3,22.076,98.821,22.468Zm-9.216.754a.86.86,0,0,1,.673-.241c.221.321-1.377.5-.673.241C89.705,23.051,89.525,23.252,89.605,23.222Zm-.4-.462c.251.12.231.231-.081.361-.211-.13-.19-.241.081-.361ZM77.272,43.092c.021-.01-3.567,1.437-3.3.532-.07.282,1.236-1,.955-.884a22.58,22.58,0,0,1,3.408-.272,2.55,2.55,0,0,1-1.067.624C76.489,43.383,77.614,42.961,77.272,43.092Zm2.875-1.779c2.965.291-1.768,1.2-2.272.653a2.906,2.906,0,0,1,2.272-.653C80.378,41.353,79.333,41.232,80.147,41.313ZM79.655,22.92a8.234,8.234,0,0,1,2.674-1.126,7.19,7.19,0,0,1-2.695,1.147Zm.16,15.99a.234.234,0,0,1-.381,0c.191-.08.362-.13.381,0C79.885,39.041,79.8,38.78,79.815,38.91Zm-.873,1.78c-.061,0-.293-.08,0,0C78.972,40.69,78.851,40.65,78.942,40.69Zm-.865-1.528c1.076.5.462,2.191-.472.885a3.58,3.58,0,0,1-2.081,2.231,1.059,1.059,0,0,0,.261-1.006c-.231-.181-.673.332-.924.323.1.472,1.939-3.136.392-2.1-.554.432-4.262,4.372-4.473,4.14-.352-.341,1.639-3.226,1.789-3.336C73.836,39.252,76.489,38.419,78.077,39.162Zm-2.06-13.749c.15-.08,1.337-.814,1.5-.643.372.482-1.919,1.075-2.02,1.085.12-.3.352-.322.523-.442C76.439,25.192,75.846,25.533,76.017,25.413Zm.251,9.669c-.01.049-.483.934-.744.582-.251-.24.664-1.005.744-.582C76.238,35.3,76.238,34.961,76.268,35.082Zm-2.594-7.458c.131,0,2.051-1.206,2.111-.714A14.4,14.4,0,0,1,73.674,27.624Zm-.532,1.98a.474.474,0,0,1-.5.312C72.75,29.694,72.911,29.675,73.142,29.6Zm-1.337,4.633c.262-.221.895-1.226.583-1.608.181.211-1.146-.151-.542-.372.251-.09,1.748-.914,1.99-.653.431.442-1.88,2.865-2.342,3.065a.616.616,0,0,1,.311-.432C72.187,33.946,71.675,34.317,71.805,34.237Zm1.317,3.045c1.648-.532,2.252-1.477,3.247-.19.382.462.3,1.679-.584,1.386.241.081-2.683-.19-2.151-.512a3.081,3.081,0,0,1-2.4.322,9.492,9.492,0,0,1,1.89-1.006C73.534,37.142,72.419,37.493,73.122,37.282ZM70.81,34.2c.151.4.051.593-.412.664A6.845,6.845,0,0,0,70.81,34.2ZM47.342,69.876c-.753-.03.594-.03,0,0Zm9.478,6.8c-.221.071.583-.129,0,0C56.77,76.7,56.91,76.661,56.82,76.68Zm23.107,7.649c-.4-.08.462.03,0,0Zm3.788,67.74c-.663-.12.352-.512,0,0C83.544,152.05,83.725,152.05,83.715,152.069Zm1.679-33.889c-.241-.242.141.12,0,0C85.364,118.139,85.444,118.22,85.394,118.18Zm.261,21.106c-.422.14.462-.171,0,0C85.545,139.326,85.725,139.265,85.655,139.286Zm2.231,22.754c-.3-.181-.3-.281-.02-.331.332.13.341.251.02.331C87.766,162.019,87.987,162.059,87.886,162.04Zm2.945,1.286c-.3-.06-.281-.181.09-.352.262.091.232.232-.09.352C90.71,163.326,90.911,163.306,90.831,163.326Zm-6.241-8.4a.928.928,0,0,1-.1.03C84.579,154.894,84.6,154.874,84.59,154.924ZM91.906,18.88H91.9v-.01ZM64.147,32.037c0,.009-.02.009-.02.009Zm.773-.654ZM194.593,81.9v.01c-1.6-5.9-2.775-11.709-5.227-17.417A81.964,81.964,0,0,0,163.134,31.1a76.6,76.6,0,0,0-8.492-5.557c-1.387-.815-2.814-1.578-4.282-2.3-.633-.3-2.844-.874-3.176-1.427.021.251,1.3.9,1.458,1.075a16.687,16.687,0,0,1-3.187-1.337c.061-.12.232,0,.211-.181-1.3-.824-6.1-2.613-7.065-1.286.191-.271,3.327,3.336,3.4,3.99.211,1.4,2.392,2.895,3.809,3.337,1.93.653.483-.211,1.287-.674.533-.251,1.045.9,1.528.624-.01,0,0-.02.02-.02-.121-.281-.3-.543-.443-.8-.161,0,3.528,3.779,3.981,2.955a8.541,8.541,0,0,0-2.151-3.147c-.9-.873-2.362-.954-3.357-1.818-.492-.443-2.362-1.8-2.584-2.433,2.483.09,5.338,5.287,7.8,3.277a8.814,8.814,0,0,1-1-.764c.442.131,2.533.794,1.839,1.658-1.98-.342,1.629,1.658,1.709,1.89-.352-.03-.6-.312-.945-.342.141.694,2.08,1.387,2.242,2.552-1.177.192-.674-.7-1.458.252-.221.292-1.286.2-1.839.241-1.357.121-2.865-2.17-3.859-2.874.411,1.267,1.115,1.889,2.562,2.794.684.382-.975.563-.955,1.145.041,0,.443.2.433.3,0,.08-.372-.261-.433-.3a10.881,10.881,0,0,1-.271,2.212c1.106,1.287-1.467.905-1.548.954.212.293.623.432.7.875a6.664,6.664,0,0,0-2.091.19c1.055.323,6.925,3.026,5.638,5.076-.392.664-4.372-.16-5.095-.2-1.548-.1-.121,1.467-.06,1.647.22,1.166,1.135,1.679,1.065,3.046-.071.965.925.995,1.2,1.8.271.7.131.784.854.864,1.307.171,1.347-.019,2.432.825.8.623,1.116-.553,2.041-.593,2.331-.091.351-.574,1.458-.895,1.366-.372-.382-2.532-.312-2.954.1-.563-.081-1.2.673-1.408,1.186-.311-.312-1.528-.392-1.849-.241-.975,3.256.8,2.815-1.628,2.029.623,4.08,2.422,5.909,3.467a9.557,9.557,0,0,1,2.974,2.312c.955,1.226-1.356.713-1.487,1.075-.16.4,2.031,1.387,2.372,1.347a15.044,15.044,0,0,0-.291-1.688c-.1-.865-1.367-1.709-1.286-2.4a2.218,2.218,0,0,1,1.095.432C167.4,43,165.5,42.86,164.159,41.785c-.783-.663-1.8-1.186-2.6-1.859,0,0-1.407-1.819-.422-1.467,1.567.532,3.266,2.12,4.864,2.954a6.9,6.9,0,0,1,2.492,2.151c.352.433,2.312,2.673,2.765,2.764a12.55,12.55,0,0,0,2.2,1.638,16.6,16.6,0,0,0-.844-2.02c-.462-.713-2.261-1.1-2.261-2.171.4.041.452-.392,1.337-.371-.463-.01.582-.685.5-.584a12.535,12.535,0,0,1-4.573-5.709c.452.011.714.644,1.206.323a1.876,1.876,0,0,1-.151-1.025c.121.16,1.729,1.527,1.407,1.808a1.6,1.6,0,0,1-1.135-.562c.211.8,1.035.823,1.356,1.386.041-.241-.13-.422.07-.663,1.4.583,4.262,2.814,4.634,4.383-.613.07-1.768-1.237-2.211-.915a1.034,1.034,0,0,0,.061.924,1.021,1.021,0,0,0-.493.151.936.936,0,0,1,.371.684c-.24.08-.432.141-.693.211.212.784,4.342,4.734,4.633,4.331.081-.13-.15-.542-.089-.6.19-.241.843.905,1.195.663.281-.161-.261-.522.05-.683.6-.321,3.106,4.563,3.407,5.126,1.177,2.251.4.874-.522,1.186a1.982,1.982,0,0,0-.231.754,12.554,12.554,0,0,1-4.211-2.01c-1.89-1.368.6,3.678-.493,3.045-.643-.362-1.015-.9-1.789-.965-1.166-.12-1.487-1.327-2.533-1.689-.833-.281-4.231-.6-3.779-2.141.352-1.326-1.337-2.421-1.919-2.923-.292-.262-4.031.22-4.654.411-1.025.332-2.663.663-3.246,1.639-1,1.788-3.286-.584-4.212-.222-.472.222-.009,1.688-.251,2.151-.392.724-1.286.764-1.527,1.6-.392,1.528.753,2.8.241,4.211-.442,1.1-2.593,1.588-2.624,2.513a1.5,1.5,0,0,1-.572,1.306c-.985.563.02,1.86-.593,2.5-3.327,3.377,1.055,6.684.322,10.412-.433,2.111-.674,2.533.231,4.353.2.452.05,3.728,1.708,2.4.222,1.9,2.654,2.3,3.076,4.111.543,2.15,2.644,3.086,4.281,4.372a13.269,13.269,0,0,0,1.97,1.557c1.347.7,2.252-.371,3.538-.723a4.863,4.863,0,0,1,3.467.3c.633.3,5.338-3.014,6.584-2.391.944.462.985,1.588,1.427,2.412.623,1.146,1.889-.362,2.764.02,1.548.693,1.989,6.312.694,7.357-.976.713,1.255,3.789,1.557,4.412a13.329,13.329,0,0,1,1.4,6.694c-.231,1.557.222,4.03-.683,5.417a30.987,30.987,0,0,0-2.111,4.392c-1.87,4.01-.1,8.554-1.668,12.713-.966,2.132-.8,4.4-1.318,6.624-.331,1.447-2.1,3.528-1.416,5.015,1.066-.944,2.6-.814,3.789-1.417,2.412-1.2,3.578-3.98,5.327-5.839a11.584,11.584,0,0,0,2.07-3.438c.533-1.155,1.6-1.909,2.121-3.024,1.206-2.854,2.342-5.709,3.557-8.563,2.594-6.152,3.035-12.071,3.921-18.664A62.62,62.62,0,0,0,194.593,81.9Zm-6.151-16.232c-.332-.823-4.7-7.216-4.191-7.568.593-.362,9.9,16.121,8.894,18.674-1.426-3.759-3.136-7.418-4.7-11.106C188.431,65.635,188.773,66.409,188.442,65.665Zm3.99,29.156c-.192-.441.061-.854.181-1.386C192.814,94,192.5,94.39,192.432,94.821Zm-.5,2.594a.849.849,0,0,1,.16-.7C192.211,96.972,192.1,97.174,191.93,97.415Zm-1.538,21.157c-.171.049-.362.12-.5.171-.3,0,.552-.4.593-.443-.041.15-.041.211-.09.272C190.261,118.743,190.441,118.511,190.392,118.572Zm.22-8.594c-.009-.784.031-.824.835-1.316C191.266,109.194,190.7,109.455,190.612,109.978Zm.9-4a21.217,21.217,0,0,1,.26-4.522c.05,2.442.162,4.894.091,7.336a6.876,6.876,0,0,1-.351-2.814Zm1.286,4.563c-.031,1.316-.221,4.885-1.075,5.91.08-2.211.884-4.221.914-6.433a.613.613,0,0,1,.161.523ZM193.809,97.2c-.372,1.558-.01,2.04-.945,2.915,0-1.177-.422-3.387.753-4.071a1.607,1.607,0,0,1,.192,1.156C193.638,97.827,193.909,96.732,193.809,97.2ZM142.5,173.116c.122.241-10.291,3.155-11.357,3.4a83.348,83.348,0,0,1-13.136,1.689,75.4,75.4,0,0,1-25.247-2.8c1.046.121,2.292.653,3.347.482-1-.622-2.251-.411-3.145-1.2,3.377.543,6.593.292,9.668.694-.312-.432-3.146-1.105-3.125-1.407.422-.031,2.562-.09,2.673-.171,1.015-.774-1.619-.683-1.417-1.246.11-.161.824.08,1.085-.251.392-.533,0-.814.131-1.076a15.192,15.192,0,0,1,4.633-.763c-.492.291-1.035-.041-.844.743-.4-.051-1.668-.02-1.748.543a14.1,14.1,0,0,1,1.426,1.829c.483.734,2.131,1.186,2.241,2.06.282,1.477,8.041,1.347,9.177,1.216,2.9-.342,5.6-1.376,8.473-1.859,1.677-.312,3.366-.774,5.085-.955.774-.08,3.437-1,4.06-.784.4,1.368,6.573-.432,8.02-.14C142.521,173.135,142.26,173.076,142.5,173.116Zm47.068-45.127c.331-.835.612-1.7,1.014-2.513A20.362,20.362,0,0,1,189.568,127.989Zm1.356-3.377a1.02,1.02,0,0,1,.141-.3C191.065,124.421,190.964,124.511,190.924,124.612ZM101.544,17.593c-.472-.08-.914-.019-1.4-.1.251-.2,1.618-.251,1.035-.643,1.869-1.156,5.819-1.387,7.991-1.126,2.421.291,4.853-.442,7.266-.08a25.978,25.978,0,0,0,2.764.241c.863.1-.1.965.863,1.115.544.071,1.689,1.348,2.192,1.076-.02.885-.422.261-.131,1.1.061.2,1.056.753,1.025.834a23.016,23.016,0,0,1-2.683-.041c-.221-.019.04.433.231.363a19.359,19.359,0,0,0,2.3.009c-1.4,1.237-3.438,1.086-4.945,2.081-.925.623-2.332.563-3.367.934a7.336,7.336,0,0,1-1.478,3.387c-.5.745-3.95-.984-4.291-1.406-.754-.915-2.483-3.287-.613-4.031,2.272-.894.02-.171-.664-.653.563-.754,1.156-.5,2-.372a1.184,1.184,0,0,0-1.637-.453c-.2-.652.944-1.225-.071-1.929-.433-.3-2.844.06-2.905-.372-.141-1.035,2.915-.472,3.457-1.337-2.28-.482-4.743,1.749-6.945,1.407C101.072,17.513,101.937,17.654,101.544,17.593Zm43.017,15.579c.372-.04-.482-1.206-.673-1.447a.915.915,0,0,0,.713-.1,7.367,7.367,0,0,0-2.723-1.809c-.915.563-2.061-1.95-2.162-2.291,1.538-.2,2.5,1.447,3.891,2.12,1.2.573,5.447,2.613,5.577,3.89.09.633-3.236.382-3.729,1.125-.382-.945.835-.914.814-1.2-.049-.242-1.547-.292-1.708-.282C144.481,33.192,145.064,33.112,144.561,33.172ZM101,34.378c-.241.161-3.126,2.9-3.045,3.176.06.241,3.005.061,3.5.361-.041.333-.423.162-.483.453.382,0,1.578-.753,1.749-.533a.847.847,0,0,1-.091.543c1.316,1.277,1.166-1.5,1.267-1.638-.925-.141.171-1.417-1.347-.875a5.847,5.847,0,0,0-1.588-.422c-.161-.141,1.257-1.346,1.356-1.508-.833-.221-.934.162-1.316.443C100.519,34.75,101.1,34.3,101,34.378Zm2.864,3.035c.111.091-.211.091,0,0C103.9,37.434,103.826,37.423,103.866,37.413Zm-.653-.08c.081-.081.553-.281.242-.02-.091.18-.5.321-.242.02C103.244,37.3,103.163,37.413,103.213,37.333Zm-2.07-3.327.04-.01a.036.036,0,0,0,.02.03A.2.2,0,0,0,101.143,34.006ZM98.55,36.629a.242.242,0,0,1,.2.061c-.071,0-.392-.02-.2-.061C98.64,36.629,98.5,36.639,98.55,36.629ZM70.177,70.72c-.784.091.523-.612.422-.884-.552-1.226-4.251-1.508-4.6-2.492A.535.535,0,0,0,66.328,67c-1.277-.513-1.93,1.025-3.066.945,2.372-4.05,8.292.573,10.663,2.432-1.245.161-2.491.161-3.748.341Zm3.1,2.151c-.593-.261,1.96-.23,2.3-.371-.512-.774-.04-1.2-1.025-1.508.894-1.076,3.86.191,4.794.6-.08.131-.241.021-.342.191.081.05,2.041,1.678.724,1.136-1.457-.623-2.242.241-3.276.814-.8-1.146-2.111-.362-3.176-.865C73.142,72.821,73.514,72.993,73.273,72.871Zm69.218-41.347c1.386,1.447-.774,2.563-1.759,1.628-.463-.493-.171-1.659-1.3-1.99.291-.1.592-.192.894-.3-.753-1.779,1.789.3,2.161.664C142.772,31.855,142.37,31.4,142.491,31.524Zm-18.1-8.745c-.08-.26,2-.16,2.341-.211.563-.1,4.694.322,3.246.985-1.145.5-2.793,1.076-3.859.111a11.741,11.741,0,0,0-1.719-.8C124.34,22.6,124.46,23.081,124.39,22.779Zm37.829,20.564c.5,0,1.659,1.85,1.478,2.151-.552.874-1.5-1.337-2.08-1.689A2.767,2.767,0,0,0,162.219,43.343ZM97.554,18.156c1.408-1.065,1.729-.462,3.488-.271-.573.513-1.919.613-3.488.271C97.937,17.865,99.123,18.5,97.554,18.156Zm31.2-1.206a28.459,28.459,0,0,1-3.166-.753,10.077,10.077,0,0,1,3.528.582c.291.08-.423.151-.362.171C127.716,16.659,128.842,16.971,128.752,16.95Zm-3.166-.753a1.719,1.719,0,0,1-.342.05.249.249,0,0,1,.342-.05C125.485,16.226,125.535,16.186,125.586,16.2ZM70.5,72.942a.4.4,0,0,1,.4.361c-.141.593-1.98-.261-2.171-.512A1.7,1.7,0,0,1,70.5,72.942Zm13.177-.031c-.975,2.373-3.438-1.668,0,0C83.525,73.253,83.1,72.61,83.675,72.911ZM87.464,84.47h0c.03-.08.091-.1.181-.111A1.571,1.571,0,0,0,87.464,84.47Zm.342-.08c-.04-.011.261-.976.894-1.016.724.453-.533,1.056-.894,1.016C87.766,84.379,88.61,84.5,87.806,84.39Zm7.738-66.736c-.662.442-1.436.141-2.12.4a2.083,2.083,0,0,1,2.12-.4C94.882,18.1,95.424,17.614,95.544,17.654ZM70.971,65.574c-.251-.974-.623-.994.031-1.839.251.915.251,1.458-.031,1.839C70.88,65.193,71.253,65.193,70.971,65.574ZM53.252,99.385c-.01.352-.17.5-.512.362a2.478,2.478,0,0,1,.019-1.528c.171.382.342.754.493,1.166C53.322,99.545,53.1,98.973,53.252,99.385ZM94.218,35.453a3.105,3.105,0,0,1,2.05.7A2.173,2.173,0,0,1,94.218,35.453Zm67.691,7.559h.019c-.211-.071-1.537-.885-1.015-1.318C161.325,41.413,161.858,42.871,161.909,43.012Zm13.738,6.814c-.261-.272-.8-.091-.945-.624.453.251.976.121,1.408.473-.141.13-.322.3-.463.151C175.386,49.554,175.788,49.976,175.647,49.826ZM96.7,18.106c-.14-.191-.361-.06-.5-.241.382-.412.884-.272,1.356-.392-.03.04-.562,1.045-.854.633C96.56,17.915,96.761,18.236,96.7,18.106Zm-2.3.5a3.014,3.014,0,0,1-2.05.834A3.461,3.461,0,0,1,94.4,18.609Zm-.2,20.232a1.851,1.851,0,0,0,.593-.041c-.8.985-1.739-.381-1.538-.432-.141.03.884.462.945.473C94.359,38.881,93.876,38.79,94.2,38.841ZM94.53,19a2.683,2.683,0,0,1,1.909-.483A3.029,3.029,0,0,1,94.53,19Zm63.961,26.291c-.633-.089,1.216-.683.553.182a1.325,1.325,0,0,1-.553-.182C158.4,45.273,158.7,45.313,158.491,45.292Zm20.433,4.665a.7.7,0,0,1-.432-.905A.992.992,0,0,1,178.924,49.957ZM95.936,21.965c.232-.4.483-.512,1.287-.512A1.474,1.474,0,0,1,95.936,21.965Zm-5.9,2.744a2.318,2.318,0,0,1-1.317.4C89.072,24.709,89.474,24.729,90.037,24.709Zm49.047,3.367c-.081.181-.011.3.141.433-.162-.071-.734-.785-.272-.885a.283.283,0,0,1,.131.452C139,28.257,139.144,27.986,139.084,28.076ZM65.172,68.128a.391.391,0,0,1-.423.4c-.14-.231.282-.905.423-.4C65.212,68.288,65.132,68.007,65.172,68.128ZM92.69,153.005a.57.57,0,0,1,.362.472c0,.724-1.287-.382-.362-.472C92.811,153,92.479,153.035,92.69,153.005ZM90.831,25.132a1.17,1.17,0,0,1-.714.462A.738.738,0,0,1,90.831,25.132ZM53.856,99.254c-.061.814-.242-.793,0,0C53.856,99.365,53.825,99.174,53.856,99.254ZM96.288,26.5c.03-.011.07.019.1.019C96.288,26.569,96.107,26.569,96.288,26.5ZM92.63,18.7c-.091.019-.191.019-.271.04A.239.239,0,0,1,92.63,18.7Zm-.321.059c-.071,0,.04-.019.05-.019C92.349,18.74,92.319,18.74,92.309,18.759Zm-.382.111-.021.01C91.9,18.87,91.906,18.87,91.927,18.87Zm0,0c.09-.13.221-.111.361-.111A.281.281,0,0,1,91.927,18.87ZM94.519,19h0Zm0,0c-.019.161-.14.14-.251.14C94.319,19,94.4,19,94.519,19Zm-30.08,83.751c-.182-.141.11.11,0,0C64.368,102.7,64.529,102.833,64.439,102.752Zm87.429-77.339c.492.141.02.12,0,0Zm-12.634,3.115c-.009,0-.009-.019-.009-.019.05.019.059.04.05.11a.2.2,0,0,0-.041-.091C139.225,28.528,139.254,28.549,139.234,28.528Zm-45-9.387h.03s-.01.01-.03,0Zm-.141.021c.04-.011.1-.011.141-.021-.06.111-.12.12-.141.021C94.137,19.151,94.108,19.181,94.1,19.162Zm74.485,25.267h0l.01.009Zm-64.9,52.714c-.26-.211.192-.16,0,0C103.655,97.124,103.746,97.084,103.685,97.143ZM142.551,173.1a.055.055,0,0,1-.051.021c.021-.04.021-.071.051-.051Zm-.051.021ZM77.192,39.273c.04-.011.8-.111.533.2-.3.152-.472.081-.533-.2C77.272,39.262,77.192,39.433,77.192,39.273Zm-4.773-6.644c-.211-.151-.171-.3.15-.462.251.11.2.261-.15.462C72.308,32.619,72.59,32.569,72.419,32.629Z"/><path class="cls-5" d="M141.969,59.213a.035.035,0,0,1,.028.015.1.1,0,0,1,.017.052.062.062,0,0,1-.043.06l-.073.031a.376.376,0,0,0-.149.127.1.1,0,0,1-.035.03l-.032.019a.063.063,0,0,0-.036.077.089.089,0,0,1-.015.077.606.606,0,0,0-.079.187.089.089,0,0,1-.043.067.1.1,0,0,0-.034.039.7.7,0,0,1-.089.108.057.057,0,0,1-.044.02h-.008a.164.164,0,0,0-.081.022.6.6,0,0,1-.1.031l-.011,0a.033.033,0,0,1-.03-.024.213.213,0,0,1,0-.025.036.036,0,0,0-.013-.028.11.11,0,0,1-.039-.058.2.2,0,0,0-.045-.056.209.209,0,0,1-.055-.08.077.077,0,0,0-.031-.04.087.087,0,0,1-.037-.07.243.243,0,0,0-.077-.147.2.2,0,0,1-.028-.03.02.02,0,0,1,.009-.033l.089-.036a.065.065,0,0,1,.02,0l.016,0a.194.194,0,0,0,.074.014.323.323,0,0,0,.068-.008.226.226,0,0,0,.085-.025.063.063,0,0,1,.035-.009h.087a.079.079,0,0,0,.062-.023.059.059,0,0,1,.046-.02h.019a.05.05,0,0,0,.036-.016l.044-.044a.343.343,0,0,1,.033-.033.115.115,0,0,0,.037-.048.083.083,0,0,1,.064-.05.127.127,0,0,0,.069-.035.063.063,0,0,1,.045-.017h0a.38.38,0,0,1,.106.008.078.078,0,0,0,.026,0,.116.116,0,0,0,.056-.016c.013-.006.024-.014.037-.019Z"/><path class="cls-5" d="M146.1,58.166c.026.018.047.036.043.07a.091.091,0,0,1-.039.079.039.039,0,0,0-.015.05.08.08,0,0,1-.006.078.067.067,0,0,0-.006.04.107.107,0,0,1-.056.092.365.365,0,0,0-.062.04.034.034,0,0,1-.024.007h-.011a.065.065,0,0,0-.052.023.138.138,0,0,1-.105.039h-.037a.081.081,0,0,0-.074.05.227.227,0,0,1-.017.031c-.015.022-.022.028-.038.028l-.028,0c-.028-.005-.057,0-.085-.007a.039.039,0,0,1-.041-.033.028.028,0,0,1,.006-.029l.03-.029a.074.074,0,0,0,.025-.054c0-.022,0-.044,0-.066a.076.076,0,0,1,.011-.044.3.3,0,0,1,.1-.1.084.084,0,0,1,.051-.014.1.1,0,0,0,.079-.035.086.086,0,0,1,.066-.035.073.073,0,0,0,.037-.011.065.065,0,0,1,.029-.007.063.063,0,0,1,.032.008.086.086,0,0,0,.034.01c.015,0,.023-.01.034-.035.018-.044.034-.089.05-.133a.072.072,0,0,1,.04-.016A.051.051,0,0,1,146.1,58.166Z"/><path class="cls-5" d="M145.432,58.935a.038.038,0,0,1,.024.011l.007.008a.139.139,0,0,1,.058.129c0,.02.006.04.008.06s0,.041,0,.061a.285.285,0,0,1-.038.151.129.129,0,0,0-.009.113.058.058,0,0,1-.009.062.138.138,0,0,0-.025.05.231.231,0,0,1-.036.074.046.046,0,0,0-.009.023.223.223,0,0,1-.029.065.073.073,0,0,1-.069.049h-.01a.917.917,0,0,1-.156.031.343.343,0,0,0-.1.039.128.128,0,0,1-.068.022.052.052,0,0,0-.043.02l-.01.012a.917.917,0,0,1-.12.129.1.1,0,0,1-.077.038.126.126,0,0,1-.033-.005.331.331,0,0,1-.056-.017.175.175,0,0,0-.074-.015l-.036,0-.026,0h-.005c-.015,0-.019-.009-.013-.025s.018-.037.038-.037l.022,0,.026.006.016,0a.082.082,0,0,0,.03-.007c.035-.015.07-.027.1-.044a.64.64,0,0,0,.2-.146.1.1,0,0,0,.027-.075.154.154,0,0,1,.043-.126.138.138,0,0,0,.035-.084.158.158,0,0,1,.046-.095.342.342,0,0,0,.057-.085.465.465,0,0,1,.073-.118.053.053,0,0,0,.015-.037.144.144,0,0,1,.016-.064.142.142,0,0,0,.016-.073.053.053,0,0,1,.04-.059c.021-.009.042-.019.062-.03a.258.258,0,0,1,.087-.021Z"/><path class="cls-5" d="M143.083,59.869c.014,0,.026.012.022.023a.239.239,0,0,1-.016.032.038.038,0,0,0,0,.043.065.065,0,0,1,.009.053.079.079,0,0,0,.04.1.035.035,0,0,1,.017.048.087.087,0,0,0,0,.074.028.028,0,0,1-.008.036.044.044,0,0,0-.007.064l.008.013a.023.023,0,0,1-.006.032l-.031.028a.107.107,0,0,0-.036.043.08.08,0,0,1-.065.047.573.573,0,0,0-.092.027.141.141,0,0,0-.065.042.031.031,0,0,1-.026.014.042.042,0,0,1-.021-.006.2.2,0,0,0-.093-.023h0a.066.066,0,0,1-.048-.018.8.8,0,0,1-.1-.086.041.041,0,0,0-.017-.012.109.109,0,0,1-.056-.065.5.5,0,0,1-.034-.079.366.366,0,0,1,0-.081l0-.04c0-.023.008-.04.036-.042l.015,0a.656.656,0,0,0,.1-.081c.006-.008.015-.018.015-.027a.917.917,0,0,0,.016-.105c0-.026,0-.028.026-.028h.013a.177.177,0,0,1,.082.019.093.093,0,0,0,.051.013h.016c.016,0,.032,0,.048,0h.028a.131.131,0,0,1,.074.02.034.034,0,0,0,.022.007l.019,0c.021,0,.026-.011.028-.035S143.059,59.87,143.083,59.869Z"/><path class="cls-5" d="M139.262,58.792h.01l.022.007a.355.355,0,0,0,.056.006.139.139,0,0,0,.044-.007.082.082,0,0,1,.026,0,.066.066,0,0,1,.062.048.284.284,0,0,0,.056.1.03.03,0,0,1,0,.042c-.009.011-.019.021-.027.032a.089.089,0,0,0-.015.091l.008.024a.091.091,0,0,1,0,.074.3.3,0,0,1-.026.05.261.261,0,0,0-.036.073.034.034,0,0,1-.009.018.531.531,0,0,0-.055.062.017.017,0,0,1-.014.007.027.027,0,0,1-.014,0,.08.08,0,0,1-.03-.041.282.282,0,0,1-.015-.07.093.093,0,0,0-.032-.067.076.076,0,0,1-.029-.058.08.08,0,0,0-.021-.051.258.258,0,0,1-.042-.076.173.173,0,0,0-.058-.084.039.039,0,0,1-.011-.058.255.255,0,0,1,.127-.111A.049.049,0,0,1,139.262,58.792Z"/><path class="cls-5" d="M140.257,59.819a.043.043,0,0,1,.022.006.2.2,0,0,0,.045.016.208.208,0,0,1,.049.019c.034.019.066.04.1.059a.074.074,0,0,1,.022.114.366.366,0,0,1-.075.072.116.116,0,0,1-.064.023h-.018a.1.1,0,0,0-.034.007l-.019,0a.057.057,0,0,1-.04-.016c-.017-.015-.038-.026-.054-.041a.145.145,0,0,1-.059-.113.19.19,0,0,0,.006-.031c0-.059.045-.088.095-.111A.053.053,0,0,1,140.257,59.819Z"/><path class="cls-5" d="M139.236,60.39a.044.044,0,0,1,.036.019.2.2,0,0,1,.017.032.036.036,0,0,1-.009.05.124.124,0,0,0-.044.074.1.1,0,0,1-.039.064.076.076,0,0,0-.029.052l0,.025a.039.039,0,0,1-.036.031.048.048,0,0,1-.026-.009.087.087,0,0,1-.022-.021.164.164,0,0,1-.019-.025.07.07,0,0,0-.052-.03c-.034,0-.067-.01-.1-.015a.066.066,0,0,1-.061-.07.055.055,0,0,1,.053-.051.058.058,0,0,1,.018,0,.586.586,0,0,0,.1.017h.008a.035.035,0,0,0,.026-.013.206.206,0,0,1,.051-.051l0,0c0-.032.031-.037.055-.047l.052-.026A.05.05,0,0,1,139.236,60.39Z"/><path class="cls-6" d="M137.8,65.564s-49.823.053-63.711-40.247c0,0,55.694-7.092,69.973,39.36a44.9,44.9,0,0,0-32.982-22.638S131.568,48.458,137.8,65.564Z"/><path class="cls-6" d="M147.345,51.965S172.381,35.293,163.564,8.2c0,0-30.745,15.5-19.659,46.033a29.763,29.763,0,0,1,8.223-25.578S143.784,40.328,147.345,51.965Z"/><path class="cls-6" d="M132.637,49.174a3.577,3.577,0,0,1,2.229.979A13.24,13.24,0,0,1,136.6,51.9a41.175,41.175,0,0,1,2.865,3.89l2.577,3.952a19.335,19.335,0,0,0,2.582,3.365l3.715,2.317c1.353.824,2.666,1.709,3.989,2.579q3.958,2.627,7.863,5.347c10.382,7.283,20.425,15.214,29.163,24.739a84.116,84.116,0,0,1,6.124,7.59,34.283,34.283,0,0,1,4.769,8.761,17.529,17.529,0,0,1,.5,10.241,37.885,37.885,0,0,1-1.931,4.55,23.249,23.249,0,0,1-2.449,4.156c-3.872,5.189-9.595,8.549-15.511,10.674a49.175,49.175,0,0,1-9.179,2.289,36.084,36.084,0,0,1-4.71.42,9.794,9.794,0,0,1-4.618-.726,9.754,9.754,0,0,0,4.617.669,36.027,36.027,0,0,0,4.693-.474,46.323,46.323,0,0,0,9.07-2.518c5.81-2.273,11.331-5.769,14.9-10.864a20.332,20.332,0,0,0,2.209-4.047,12.5,12.5,0,0,0,.8-4.474c.071-2.911-1.165-5.61-2.48-8.172a62.832,62.832,0,0,0-10.712-14.453,168.974,168.974,0,0,0-13.577-12.652c-4.7-4.084-9.631-7.92-14.567-11.77q-3.718-2.867-7.51-5.652L146,68.841l-1.894-1.4A16.46,16.46,0,0,1,142,65.722a19.079,19.079,0,0,1-2.691-4.448c-.671-1.47-1.319-2.908-1.917-4.363-.615-1.444-1.227-2.879-1.911-4.263a17.456,17.456,0,0,0-1.147-1.992A3.517,3.517,0,0,0,132.637,49.174Z"/><path class="cls-7" d="M182.64,149.043c-7.441,21.392-38.392,39.264-41.009,41.01-.873,0-35.293-19.094-41.01-41.01-5.235-20.068,8.726-47.989,41.01-23.558C175.66,101.054,189.62,128.975,182.64,149.043Z"/><path class="cls-8" d="M150.3,127.844c9.709-6.97,17.782-9.674,24.2-9.52-6.715-3.938-16.835-3.5-30.3,5.387A67.469,67.469,0,0,1,150.3,127.844Z"/><path class="cls-8" d="M109.292,151.4c-3.95-15.144,3.032-34.753,20.568-32.971-23.847-10.175-33.786,13.174-29.239,30.606,5.717,21.915,40.137,41.009,41.009,41.009.317-.211,1.058-.664,2.114-1.326C133.26,182.137,113.5,167.535,109.292,151.4Z"/></g></svg>