<?xml version="1.0" encoding="utf-8"?>
<!-- Generator: Adobe Illustrator 24.1.3, SVG Export Plug-In . SVG Version: 6.00 Build 0)  -->
<svg version="1.1" id="Ebene_1" xmlns="http://www.w3.org/2000/svg" xmlns:xlink="http://www.w3.org/1999/xlink" x="0px" y="0px"
	 viewBox="0 0 650 480" style="enable-background:new 0 0 650 480;" xml:space="preserve">
<style type="text/css">
	.st0{clip-path:url(#SVGID_2_);}
	.st1{fill:#EF8000;}
	.st2{opacity:0.5;fill:#DEE3E8;enable-background:new    ;}
	.st3{fill:#FFCF00;}
	.st4{fill:#2C2625;}
	.st5{fill:#54494B;}
	.st6{fill:#FDFBF5;}
	.st7{fill:#2F363E;}
	.st8{clip-path:url(#SVGID_4_);}
	.st9{fill:url(#SVGID_5_);}
	.st10{fill:#586371;}
	.st11{fill:#212934;}
	.st12{fill:#F8F9FA;}
	.st13{fill:#E3EBEF;stroke:#788287;stroke-width:0.2922;stroke-miterlimit:10;}
	.st14{fill:#E3EBEF;stroke:#788287;stroke-width:0.1195;stroke-miterlimit:10;}
	.st15{fill:#005AAA;}
	.st16{fill:#CED5DC;}
	.st17{fill:#788287;}
	.st18{fill:#FFFFFF;}
	.st19{fill:none;stroke:#788287;stroke-width:0.2922;stroke-miterlimit:10;}
	.st20{fill:#FFFFFF;stroke:#788287;stroke-width:0.2922;stroke-miterlimit:10;}
	.st21{fill:none;stroke:#FFFFFF;stroke-width:0.5843;stroke-miterlimit:10;}
	.st22{fill:none;stroke:#000000;stroke-width:0.5843;stroke-miterlimit:10;}
	.st23{opacity:0.33;fill:#FFFFFF;enable-background:new    ;}
	.st24{fill:none;stroke:#000000;stroke-width:0.5843;stroke-linecap:round;stroke-miterlimit:10;}
	.st25{fill:none;stroke:#788287;stroke-width:0.1461;stroke-miterlimit:10;}
	.st26{fill:#6D6E71;}
	.st27{fill:url(#SVGID_6_);}
	.st28{fill:#9AA1A5;}
	.st29{fill:#DEE3E8;}
	.st30{fill:#BEC8D2;}
	.st31{fill:#F0C32D;}
	.st32{fill:#B0B8BC;}
	.st33{fill:#9D9D9C;}
	.st34{fill:#5C5B5C;}
	.st35{fill:none;stroke:#E95653;stroke-width:0.737;stroke-linecap:round;stroke-miterlimit:10;stroke-dasharray:0,2.988;}
	.st36{fill:#FAFAFA;}
	.st37{fill:#1C77C3;}
	.st38{fill:none;stroke:#CACFD2;stroke-width:1.9787;stroke-miterlimit:10;}
	.st39{fill:none;stroke:#CACFD2;stroke-width:1.9787;stroke-miterlimit:10;stroke-dasharray:4.409,4.409;}
	.st40{fill:none;stroke:#CACFD2;stroke-width:1.9787;stroke-miterlimit:10;stroke-dasharray:4.223,4.223;}
	.st41{fill:none;stroke:#E1E7EC;stroke-width:1.7397;stroke-miterlimit:10;}
	.st42{fill:none;stroke:#E1E7EC;stroke-width:1.7397;stroke-miterlimit:10;stroke-dasharray:7.8551,7.8551;}
	.st43{fill:none;stroke:#E1E7EC;stroke-width:1.7397;stroke-miterlimit:10;stroke-dasharray:7.1778,7.1778;}
	.st44{fill:none;stroke:#E1E7EC;stroke-width:0.9362;stroke-miterlimit:10;}
	.st45{fill:none;stroke:#E1E7EC;stroke-width:0.9362;stroke-miterlimit:10;stroke-dasharray:4.2562,4.2562;}
	.st46{fill:none;stroke:#E1E7EC;stroke-width:0.9362;stroke-miterlimit:10;stroke-dasharray:4.4355,4.4355;}
	.st47{fill:none;stroke:#E1E7EC;stroke-width:1.7397;stroke-miterlimit:10;stroke-dasharray:2.8818,2.8818;}
	.st48{fill:none;stroke:#E1E7EC;stroke-width:1.7397;stroke-miterlimit:10;stroke-dasharray:2.8419,2.8419;}
	.st49{fill:#343B43;}
	.st50{fill:#223A3F;}
	.st51{fill:#6C757D;}
	.st52{fill:#B7B7B7;}
	.st53{fill:#96A0A5;}
	.st54{fill:#E11E19;}
	.st55{clip-path:url(#SVGID_8_);}
	.st56{fill:#E95653;}
	.st57{enable-background:new    ;}
	.st58{fill:#F08E8C;}
	.st59{clip-path:url(#SVGID_10_);enable-background:new    ;}
	.st60{clip-path:url(#SVGID_12_);enable-background:new    ;}
</style>
<g id="Ebene_3">
	<g>
		<g>
			<defs>
				<rect id="SVGID_1_" x="-3.5" y="24" width="640.8" height="415"/>
			</defs>
			<clipPath id="SVGID_2_">
				<use xlink:href="#SVGID_1_"  style="overflow:visible;"/>
			</clipPath>
			<g class="st0">
				<path class="st1" d="M537.5,97.7c-0.1,4.1,3.2,7.3,7.2,7.4l0,0l0,0c4.1,0,7.3-3.3,7.2-7.4l0,0v-8.2c0.1-4.1-3.2-7.3-7.2-7.4l0,0
					l0,0c-4.1,0-7.3,3.3-7.2,7.4l0,0V97.7z"/>
				<path class="st2" d="M610.5,180c0,2.7-51.9,4.8-115.9,4.8s-116-2.1-116-4.8c0-2.7,51.9-4.8,116-4.8S610.5,177.3,610.5,180z"/>
				<polygon class="st3" points="412.3,162 539.5,162 539.5,51.2 429.1,51.2 				"/>
				<path class="st3" d="M536.3,61c1.6-0.3,3.2-0.5,4.8-0.5h17.2c39,0,36,25.6,36,54l24.5,9.9l12,4.8c0,18.1-14.4,32.7-32.2,32.7
					h-57.4c-1.6-0.1-3.2-0.2-4.8-0.5L536.3,61z"/>
				<path class="st4" d="M565.5,147.2c-8.6,8.8-10,21.4-3.3,28.4s19.3,5.4,27.9-3.3s10-21.4,3.3-28.4
					C586.6,137.1,574.1,138.5,565.5,147.2z"/>
				<path class="st4" d="M441.3,147.2c-8.6,8.8-10,21.4-3.3,28.4c6.8,6.9,19.3,5.4,27.9-3.3c8.6-8.7,10-21.4,3.3-28.4
					C462.5,137.1,449.9,138.5,441.3,147.2z"/>
				<path class="st5" d="M445.3,151.2c-5.8,6-6.8,14.7-2.2,19.4c4.6,4.7,13.2,3.7,19.1-2.3s6.8-14.7,2.2-19.4
					C459.7,144.3,451.1,145.2,445.3,151.2z"/>
				<path class="st5" d="M569.4,151.2c-5.8,6-6.8,14.7-2.2,19.4c4.6,4.7,13.2,3.7,19.1-2.3c5.8-6,6.8-14.7,2.2-19.4
					C583.8,144.3,575.3,145.2,569.4,151.2z"/>
				<path class="st6" d="M562.7,70.9c-2.1,0-4.3,0.5-6.2,1.3v49.3h27c1.7-5,2.5-10.3,2.5-15.6C585.8,86.5,575.5,70.9,562.7,70.9z"/>
				<rect x="420.3" y="127.3" class="st7" width="131.7" height="4.2"/>
				<g id="Layer_1_1_">
					<g>
						<g>
							<defs>
								<rect id="SVGID_3_" x="41.8" y="50.2" width="462.3" height="330.2"/>
							</defs>
							<clipPath id="SVGID_4_">
								<use xlink:href="#SVGID_3_"  style="overflow:visible;"/>
							</clipPath>
							<g class="st8">
								
									<linearGradient id="SVGID_5_" gradientUnits="userSpaceOnUse" x1="73.6928" y1="-693.0635" x2="457.4848" y2="-693.0635" gradientTransform="matrix(1 0 0 1 0 909.6899)">
									<stop  offset="0" style="stop-color:#666666"/>
									<stop  offset="6.000000e-02" style="stop-color:#CCCCCC"/>
									<stop  offset="0.2" style="stop-color:#333333"/>
									<stop  offset="0.64" style="stop-color:#333333"/>
									<stop  offset="0.94" style="stop-color:#6B6C6F"/>
									<stop  offset="0.94" style="stop-color:#6D6E71"/>
									<stop  offset="0.98" style="stop-color:#DEE3E8"/>
									<stop  offset="1" style="stop-color:#616161"/>
								</linearGradient>
								<path class="st9" d="M73.7,338.3v-226c0-9.5,7.7-17.3,17.2-17.3H91h349.3c9.5,0,17.3,7.7,17.3,17.2v0.1v226H73.7z"/>
								<path class="st10" d="M271.6,342.5h-226c0,0,8.5,4,10.8,5c0.3,0.1,0.7,0.2,1.1,0.2h416.3c0.3,0,0.6-0.1,0.9-0.1
									c2.4-1,11.3-5.1,11.3-5.1L271.6,342.5z"/>
								<path class="st11" d="M440.8,97.6H91.6c-8.3,0-15.1,6.7-15.1,15.1l0,0v223.7h379.3V112.5C455.8,104.3,449.2,97.6,440.8,97.6
									L440.8,97.6z"/>
								<rect x="87.6" y="107.5" class="st12" width="349.3" height="208.8"/>
								<rect x="91.8" y="137.6" class="st13" width="83.3" height="20.3"/>
								<rect x="135.4" y="137.6" class="st14" width="40" height="7"/>
								<rect x="88.3" y="123.6" class="st15" width="91.2" height="10.5"/>
								<path class="st16" d="M45.7,335.3h439.9c1.2,0,2.2,0.9,2.2,2.2c0,0,0,0,0,0.1v2.3c0,1.2-1,2.2-2.2,2.2c0,0,0,0-0.1,0H45.7
									c-1.2,0-2.2-0.9-2.2-2.2c0,0,0,0,0-0.1v-2.3c-0.1-1.2,0.9-2.2,2.1-2.2C45.6,335.3,45.7,335.3,45.7,335.3z"/>
								<path class="st17" d="M95.9,173.2c-1.2,0-2.1,0.9-2.1,2.1s0.9,2.1,2.1,2.1c1.2,0,2.1-0.9,2.1-2.1l0,0l0,0
									c0-1.1-0.9-2.1-2-2.1C96,173.2,95.9,173.2,95.9,173.2z M95.9,177.3c-1.1,0-1.9-0.9-1.9-1.9l0,0c0-1.1,0.9-1.9,1.9-1.9
									c1.1,0,1.9,0.9,1.9,1.9S97,177.3,95.9,177.3z"/>
								<circle class="st18" cx="95.9" cy="175.3" r="1.9"/>
								<path class="st17" d="M96.9,175.1h-0.9v-1.3c0-0.1-0.1-0.1-0.1-0.1c-0.1,0-0.1,0.1-0.1,0.1v1.3c-0.1,0.1-0.1,0.1-0.1,0.1
									s0.1,0.2,0.2,0.2s0.1,0,0.1-0.1h0.8c0.1,0,0.1-0.1,0.1-0.1C97.1,175.3,96.9,175.3,96.9,175.1L96.9,175.1z"/>
								<path class="st17" d="M95.9,181c-1.2,0-2.1,0.9-2.1,2.1s0.9,2.1,2.1,2.1c1.2,0,2.1-0.9,2.1-2.1l0,0l0,0
									C98,182,97.1,181,95.9,181L95.9,181z M95.9,185.2c-1.1,0-1.9-0.9-1.9-1.9l0,0c0-1.1,0.9-1.9,1.9-1.9c1.1,0,1.9,0.9,1.9,1.9
									l0,0C97.7,184.3,96.9,185.2,95.9,185.2z"/>
								<circle class="st18" cx="95.9" cy="183.2" r="1.9"/>
								<path class="st17" d="M96.9,183.1h-0.9v-1.3c0-0.1-0.1-0.1-0.1-0.1c-0.1,0-0.1,0.1-0.1,0.1v1.3c-0.1,0.1-0.1,0.3,0.1,0.3
									c0.1,0.1,0.2,0.1,0.3,0h0.8c0.1,0,0.1-0.1,0.1-0.1C96.9,183.1,96.9,183.1,96.9,183.1z"/>
								<path class="st17" d="M93.7,181.6l0.6-0.6c0.1-0.1,0.2-0.1,0.3,0l0,0c0.1,0.1,0.1,0.2,0,0.3l-0.6,0.6
									c-0.1,0.1-0.2,0.1-0.3,0l0,0C93.6,181.6,93.6,181.6,93.7,181.6z"/>
								<path class="st17" d="M97.4,180.8l0.6,0.6c0.1,0.1,0.1,0.2,0,0.3l0,0c-0.1,0.1-0.2,0.1-0.3,0l-0.6-0.6
									c-0.1-0.1-0.1-0.2,0-0.3l0,0C97.2,180.7,97.3,180.7,97.4,180.8z"/>
								<circle class="st18" cx="95.3" cy="189" r="0.5"/>
								<path class="st18" d="M98.3,188.9c-0.2,0-0.4-0.1-0.4-0.3s0.1-0.4,0.3-0.4s0.4,0.1,0.4,0.3l0,0
									C98.7,188.8,98.5,188.9,98.3,188.9C98.3,188.9,98.3,188.9,98.3,188.9z"/>
								<path class="st18" d="M98.3,190.7c-0.2,0-0.3-0.1-0.3-0.3s0.1-0.3,0.3-0.3s0.3,0.1,0.3,0.3l0,0
									C98.7,190.5,98.5,190.7,98.3,190.7z"/>
								<path class="st18" d="M98.3,192.4c-0.2,0-0.3-0.1-0.3-0.3c0-0.2,0.1-0.3,0.3-0.3s0.3,0.1,0.3,0.3l0,0
									C98.7,192.2,98.5,192.4,98.3,192.4z"/>
								<path class="st18" d="M94.4,192.5v-2c0-0.2,0.1-0.3,0.3-0.3l0,0h1.1c0.2,0,0.3,0.2,0.3,0.3v2"/>
								<path class="st17" d="M95.3,189.7c0.4,0,0.7-0.3,0.7-0.7s-0.3-0.7-0.7-0.7c-0.4,0-0.7,0.3-0.7,0.7l0,0
									c0,0.4,0.3,0.7,0.6,0.7C95.2,189.8,95.3,189.8,95.3,189.7z M95.3,188.6c0.3,0,0.5,0.2,0.5,0.5s-0.1,0.5-0.4,0.5
									c-0.3,0.1-0.5-0.1-0.5-0.4c0-0.1,0-0.1,0-0.1l0,0C94.9,188.8,95.1,188.6,95.3,188.6z"/>
								<path class="st17" d="M98.3,191.5c-0.3,0-0.5,0.2-0.5,0.5v0.1H97v-1.5h0.7c0.1,0.3,0.3,0.4,0.5,0.4c0.1,0,0.1,0,0.1-0.1
									c0.3-0.1,0.4-0.3,0.4-0.5c0-0.1,0-0.1-0.1-0.1c-0.1-0.3-0.4-0.5-0.7-0.3c-0.1,0.1-0.3,0.2-0.3,0.3H97v-1.7h0.7
									c0,0.3,0.2,0.5,0.5,0.5c0.3,0,0.5-0.2,0.5-0.5c0-0.3-0.2-0.5-0.5-0.5l0,0c-0.2,0-0.3,0.1-0.5,0.2h-1.1v1.9h-0.6
									c-0.1-0.1-0.2-0.1-0.3-0.1h-1.1c-0.3,0-0.5,0.2-0.5,0.5l0,0v2h0.2v-2.1c0-0.1,0.1-0.2,0.2-0.2h1c0.1,0,0.2,0.1,0.2,0.3v2
									h0.2v-2.1h0.5v1.9h1.1c0.1,0.2,0.5,0.3,0.7,0.1s0.3-0.5,0.1-0.7C98.6,191.5,98.5,191.5,98.3,191.5L98.3,191.5z M98.3,190
									c0.2,0,0.3,0.1,0.3,0.3s-0.1,0.3-0.3,0.3s-0.3-0.1-0.3-0.3l0,0C97.9,190.2,98.1,190,98.3,190L98.3,190L98.3,190z
									 M98.3,188.3c0.2,0,0.3,0.1,0.3,0.3s-0.1,0.3-0.3,0.3s-0.3-0.1-0.3-0.3l0,0C98,188.4,98.1,188.3,98.3,188.3z M98.3,192.3
									c-0.1,0-0.3-0.1-0.3-0.3c0-0.2,0.1-0.3,0.3-0.3s0.3,0.1,0.3,0.3l0,0C98.5,192.2,98.5,192.3,98.3,192.3L98.3,192.3z"/>
								<path class="st18" d="M93.5,203.9c0-0.6,0.5-1.1,1.1-1h0.5c0.6,0,1.1,0.5,1.1,1H93.5z"/>
								<path class="st17" d="M95.1,202.9c0.5,0,0.9,0.3,1.1,0.9h-2.6c0.1-0.5,0.5-0.9,1.1-0.9H95.1 M95.1,202.7h-0.5
									c-0.6,0-1.1,0.5-1.1,1v0.1h2.8C96.2,203.3,95.7,202.8,95.1,202.7L95.1,202.7z"/>
								<path class="st18" d="M95.4,203.9c0-0.6,0.5-1.1,1.1-1H97c0.6,0,1.1,0.5,1.1,1H95.4z"/>
								<path class="st17" d="M97.1,202.9c0.5,0,0.9,0.3,1.1,0.9h-2.6c0.1-0.5,0.5-0.9,1.1-0.9H97.1 M97.1,202.7h-0.6
									c-0.6,0-1.1,0.5-1.1,1v0.1h2.8C98.1,203.3,97.7,202.8,97.1,202.7L97.1,202.7z"/>
								<path class="st18" d="M94.9,202.3c-0.4,0-0.7-0.3-0.7-0.7c0-0.4,0.3-0.7,0.7-0.7c0.4,0,0.7,0.3,0.7,0.7l0,0
									C95.5,202,95.2,202.3,94.9,202.3z"/>
								<path class="st17" d="M94.9,201.1c0.3,0,0.5,0.3,0.5,0.6s-0.3,0.6-0.6,0.6s-0.5-0.3-0.5-0.6l0,0
									C94.3,201.4,94.5,201.1,94.9,201.1 M94.9,200.9c-0.4,0-0.7,0.3-0.7,0.7c0,0.4,0.3,0.7,0.7,0.7c0.4,0,0.7-0.3,0.7-0.7l0,0
									C95.5,201.3,95.2,200.9,94.9,200.9z"/>
								<path class="st18" d="M96.9,202.3c-0.4,0-0.7-0.3-0.7-0.7c0-0.4,0.3-0.7,0.7-0.7c0.4,0,0.7,0.3,0.7,0.7l0,0
									C97.5,202,97.2,202.3,96.9,202.3z"/>
								<path class="st17" d="M96.9,201.1c0.3,0,0.5,0.3,0.5,0.6s-0.3,0.6-0.6,0.6s-0.5-0.3-0.5-0.6l0,0c0-0.3,0.2-0.5,0.5-0.6
									C96.8,201.1,96.9,201.1,96.9,201.1 M96.9,200.9c-0.4,0-0.7,0.3-0.7,0.7c0,0.4,0.3,0.7,0.7,0.7c0.4,0,0.7-0.3,0.7-0.7l0,0
									C97.6,201.2,97.3,200.9,96.9,200.9z"/>
								<path class="st18" d="M93.8,211c0-0.6,0.5-1.1,1.1-1h0.5c0.6,0,1.1,0.5,1.1,1H93.8z"/>
								<path class="st17" d="M95.4,210c0.5,0,0.9,0.3,1,0.9h-2.6c0.1-0.5,0.5-0.9,1-0.9H95.4 M95.4,210h-0.5c-0.6,0-1.1,0.5-1.1,1
									v0.1h2.8C96.5,210.5,96,210,95.4,210L95.4,210z"/>
								<path class="st18" d="M95.3,209.5c-0.4,0-0.7-0.3-0.7-0.7c0-0.4,0.3-0.7,0.7-0.7c0.4,0,0.7,0.3,0.7,0.7
									C95.9,209.1,95.7,209.5,95.3,209.5z"/>
								<path class="st17" d="M95.3,208.1c0.3,0,0.5,0.3,0.5,0.6s-0.3,0.6-0.6,0.6s-0.5-0.3-0.5-0.6C94.7,208.5,95,208.1,95.3,208.1
									 M95.3,208.1c-0.4,0-0.7,0.3-0.7,0.7c0,0.4,0.3,0.7,0.7,0.7c0.4,0,0.7-0.3,0.7-0.7l0,0C95.9,208.4,95.7,208.1,95.3,208.1z"
									/>
								<circle class="st18" cx="97.1" cy="210.8" r="1.1"/>
								<path class="st17" d="M97.1,212c-0.7,0-1.2-0.5-1.2-1.2c0-0.7,0.5-1.2,1.2-1.2c0.7,0,1.2,0.5,1.2,1.2l0,0l0,0
									C98.3,211.5,97.7,212,97.1,212L97.1,212z M97.1,209.9c-0.6,0.1-1,0.5-0.9,1.1c0.1,0.5,0.5,0.9,0.9,0.9c0.6,0,1-0.5,1.1-1
									l0,0C98.1,210.3,97.6,209.9,97.1,209.9z"/>
								<path class="st17" d="M97.1,211v0.6H97V211h-0.6v-0.1H97v-0.6h0.1v0.6h0.6v0.1H97.1z"/>
								<path class="st19" d="M96.6,166.5v-0.7h-2.9v4.3h2.4c0.3-0.3,0.5-0.7,0.5-1.1C96.7,168.7,96.6,166.5,96.6,166.5z"/>
								<path class="st17" d="M98.1,169.2v0.2c-0.1,0.1-0.3-0.1-0.5-0.2l-0.6-0.6l0.3-0.3l0.6,0.6C98.1,169,98.3,169.2,98.1,169.2z"
									/>
								<path class="st18" d="M96.5,169c-0.7,0-1.2-0.5-1.2-1.2s0.5-1.2,1.2-1.2c0.7,0,1.2,0.5,1.2,1.2l0,0
									C97.6,168.4,97.1,169,96.5,169z"/>
								<path class="st17" d="M96.5,166.8c0.6,0,1.1,0.5,1.1,1c0,0.6-0.5,1.1-1,1.1c-0.6,0-1.1-0.5-1.1-1l0,0l0,0
									C95.4,167.2,95.9,166.8,96.5,166.8 M96.5,166.6c-0.7,0-1.3,0.5-1.3,1.3c0,0.7,0.5,1.3,1.3,1.3c0.7,0,1.3-0.5,1.3-1.3
									C97.7,167.1,97.1,166.6,96.5,166.6z"/>
								<path class="st17" d="M96.3,168.6l-0.5-0.5l0.1-0.1l0.3,0.3l0.7-0.9l0.1,0.1L96.3,168.6z"/>
								<rect x="99.9" y="166.4" width="18.5" height="3.3"/>
								<rect x="103.9" y="139.7" width="18.5" height="3.3"/>
								<rect x="95.9" y="149" class="st20" width="67.7" height="5.7"/>
								<rect x="124.6" y="127.8" class="st18" width="18.5" height="3.3"/>
								<rect x="146.7" y="139.7" class="st17" width="18.5" height="3.3"/>
								<rect x="99.9" y="174.1" width="28.6" height="3.3"/>
								<rect x="100" y="189.1" width="17.3" height="3.3"/>
								<rect x="100.2" y="181.6" width="30.9" height="3.3"/>
								<rect x="99.9" y="201.1" width="39.8" height="3.3"/>
								<rect x="100.1" y="208.5" width="44" height="3.3"/>
								<polyline class="st21" points="175.6,126.5 173.2,129.6 175.6,132.5 								"/>
								<polyline class="st22" points="294.7,127.2 297.8,129.6 300.6,127.2 								"/>
								<circle class="st22" cx="169.2" cy="151.6" r="1.5"/>
								<path class="st23" d="M91.8,95.4c-8.3,0-15,6.8-15.1,15.1v223.7H118L269.5,95.4L91.8,95.4L91.8,95.4z"/>
								<line class="st24" x1="170.1" y1="152.7" x2="171.2" y2="153.8"/>
								<line class="st25" x1="179.6" y1="122.9" x2="179.6" y2="299.7"/>
								<line class="st25" x1="88.5" y1="122.9" x2="437.8" y2="122.9"/>
								<circle class="st15" cx="413.9" cy="113.5" r="1.5"/>
								<path class="st15" d="M412.8,115.4h2.2c1.1,0,2.1,0.9,2.1,2.1l0,0v0.1h-6.2v-0.1c-0.1-1,0.7-1.9,1.7-1.9
									C412.6,115.4,412.7,115.4,412.8,115.4z"/>
								<path class="st26" d="M202.1,323.7c0,2.2,1.7,3.9,3.9,4h0.1h119.1c2.2,0,3.9-1.7,4-3.9v-0.1l0,0v-0.3h-127
									C202.2,323.6,202.1,323.7,202.1,323.7z"/>
								
									<linearGradient id="SVGID_6_" gradientUnits="userSpaceOnUse" x1="270.989" y1="-817.2394" x2="272.6158" y2="-818.2288" gradientTransform="matrix(1 0 0 1 0 909.6899)">
									<stop  offset="0" style="stop-color:#242426"/>
									<stop  offset="8.000000e-02" style="stop-color:#0E0E0F"/>
									<stop  offset="0.11" style="stop-color:#121213"/>
									<stop  offset="0.39" style="stop-color:#404042"/>
									<stop  offset="0.65" style="stop-color:#616164"/>
									<stop  offset="0.86" style="stop-color:#757579"/>
									<stop  offset="1" style="stop-color:#7C7C80"/>
								</linearGradient>
								<path class="st27" d="M273.6,92.1c0,1.1-0.9,2-2,2c-1.1,0-2-0.9-2-2c0-1.1,0.9-2,2-2C272.8,90.1,273.6,91,273.6,92.1z"/>
								<rect x="530.1" y="300.8" class="st28" width="57.4" height="2.3"/>
								<rect x="532.1" y="306.5" class="st29" width="76.6" height="2.5"/>
								<rect x="538.9" y="313.6" class="st29" width="29.3" height="2.7"/>
								<path class="st30" d="M630.5,319h-108c-0.2,0-0.3-0.5-0.3-0.9v-21.9c0-0.5,0.1-0.9,0.3-0.9h108c0.2,0,0.3,0.5,0.3,0.9v21.9
									C630.8,318.6,630.7,319,630.5,319z M522.5,295.6c-0.1,0-0.2,0.2-0.2,0.6v21.9c0,0.3,0.1,0.6,0.2,0.6h108
									c0.1,0,0.2-0.2,0.2-0.6v-21.9c0-0.3-0.1-0.6-0.2-0.6H522.5z"/>
								<rect x="531.2" y="296.4" class="st31" width="109" height="1.6"/>
								<circle class="st31" cx="535.3" cy="314.9" r="1.4"/>
								<path class="st30" d="M420.8,117.6l-2.1-1.6c-0.1-0.1-0.1-0.1,0-0.2c0.1-0.1,0.1-0.1,0.2,0l0,0l1.9,1.5l1.9-1.5
									c0.1-0.1,0.1-0.1,0.2,0c0.1,0.1,0.1,0.1,0,0.2l0,0L420.8,117.6z"/>
								<rect x="414" y="126.1" class="st32" width="6" height="1.1"/>
								<rect x="411.9" y="126.1" class="st32" width="1.6" height="1.1"/>
								<rect x="414" y="128.2" class="st32" width="6" height="1.1"/>
								<rect x="411.9" y="128.2" class="st32" width="1.6" height="1.1"/>
								<rect x="414" y="130.4" class="st32" width="6" height="1.1"/>
								<rect x="411.9" y="130.4" class="st32" width="1.6" height="1.1"/>
								<polygon class="st33" points="435.2,353.1 432.7,353.9 435.2,354.8 								"/>
								<path class="st34" d="M421.7,321.6c0.1,0.1,0,0.3-0.1,0.3c-0.1,0.1-0.3,0.2-0.3,0.1s-0.1-0.2,0.1-0.3
									C421.5,321.6,421.6,321.5,421.7,321.6z"/>
								<path class="st35" d="M514.4,248.7c6.7,0.8,23.4,3.7,33.1,13.7c10.3,10.6,13.9,25.8,15.1,32.8"/>
							</g>
						</g>
					</g>
				</g>
				<path class="st36" d="M159.5,382.9h199.9c13.3,0,24.1-11,24.1-24.7V57.4h-224V382.9z"/>
				<path class="st30" d="M158.1,55.9v328.5h196.2c17.1,0,30.9-14.1,30.9-31.6V55.9H158.1z M352,382.9H159.5V57.4h224.1v293
					C383.6,368.4,369.5,382.9,352,382.9z"/>
				<rect x="181.1" y="132.3" class="st30" width="19.3" height="4.7"/>
				<rect x="181.1" y="140.7" class="st30" width="35.7" height="4.7"/>
				<rect x="181.1" y="216.6" class="st30" width="123.6" height="4.6"/>
				<rect x="181.1" y="225.1" class="st30" width="91.3" height="4.6"/>
				<rect x="181.1" y="182.9" class="st30" width="123.6" height="4.7"/>
				<rect x="181.1" y="174.5" class="st30" width="123.6" height="4.7"/>
				<rect x="181.1" y="191.3" class="st30" width="123.6" height="4.7"/>
				<rect x="181.1" y="199.7" class="st30" width="123.6" height="4.6"/>
				<rect x="181.1" y="208.2" class="st30" width="123.6" height="4.6"/>
				<rect x="181.1" y="233.5" class="st30" width="123.6" height="4.6"/>
				<rect x="181.1" y="241.9" class="st30" width="123.6" height="4.6"/>
				<rect x="181.1" y="250.3" class="st30" width="123.6" height="4.6"/>
				<rect x="181.1" y="258.7" class="st30" width="123.6" height="4.6"/>
				<rect x="181.1" y="267.2" class="st30" width="123.6" height="4.6"/>
				<rect x="181.1" y="320.6" class="st30" width="25.1" height="4.6"/>
				<rect x="181.1" y="329" class="st30" width="33.3" height="4.6"/>
				<rect x="181.1" y="342.7" class="st30" width="47" height="4.6"/>
				<rect x="181.1" y="351.2" class="st30" width="52.5" height="4.6"/>
				<path class="st37" d="M351.6,383.6H330c-0.2,0-0.4-0.2-0.4-0.4l0,0V58.6c0-0.2,0.2-0.4,0.4-0.4h52.6c0.2,0,0.4,0.2,0.4,0.4l0,0
					v292.8C383,369.2,369,383.6,351.6,383.6z"/>
				<ellipse class="st36" cx="356.3" cy="91.1" rx="20.3" ry="20.7"/>
				<rect x="335.8" y="318.9" class="st36" width="41.2" height="4.6"/>
				<rect x="335.8" y="310.5" class="st36" width="41.2" height="4.6"/>
				<rect x="335.8" y="327.4" class="st36" width="41.2" height="4.6"/>
				<rect x="335.8" y="344.2" class="st36" width="41.2" height="4.6"/>
				<rect x="335.8" y="335.8" class="st36" width="41.2" height="4.6"/>
				<rect x="335.8" y="352.7" class="st36" width="24.7" height="4.6"/>
				<rect x="338.4" y="139.9" class="st36" width="35.7" height="4.7"/>
				<rect x="338.4" y="131.4" class="st36" width="27.5" height="4.7"/>
				<polyline class="st38" points="383,151.2 383,153.3 380.9,153.3 				"/>
				<line class="st39" x1="376.5" y1="153.3" x2="334.6" y2="153.3"/>
				<polyline class="st38" points="332.5,153.3 330.3,153.3 330.3,151.2 				"/>
				<line class="st40" x1="330.3" y1="146.9" x2="330.3" y2="64.6"/>
				<polyline class="st38" points="330.3,62.4 330.3,60.3 332.5,60.3 				"/>
				<line class="st39" x1="336.8" y1="60.3" x2="378.7" y2="60.3"/>
				<polyline class="st38" points="380.9,60.3 383,60.3 383,62.4 				"/>
				<line class="st40" x1="383" y1="66.7" x2="383" y2="149"/>
				<polyline class="st41" points="314.9,279.7 314.9,283.6 311.1,283.6 				"/>
				<line class="st42" x1="303.2" y1="283.6" x2="181.5" y2="283.6"/>
				<polyline class="st41" points="177.5,283.6 173.7,283.6 173.7,279.7 				"/>
				<line class="st43" x1="173.7" y1="272.5" x2="173.7" y2="175.6"/>
				<polyline class="st41" points="173.7,172 173.7,168.2 177.5,168.2 				"/>
				<line class="st42" x1="185.4" y1="168.2" x2="307.2" y2="168.2"/>
				<polyline class="st41" points="311.1,168.2 314.9,168.2 314.9,172 				"/>
				<line class="st43" x1="314.9" y1="179.2" x2="314.9" y2="276.1"/>
				<polyline class="st44" points="324.8,362.5 324.8,364.6 322.8,364.6 				"/>
				<line class="st45" x1="318.5" y1="364.6" x2="252.5" y2="364.6"/>
				<polyline class="st44" points="250.4,364.6 248.3,364.6 248.3,362.5 				"/>
				<line class="st46" x1="248.3" y1="358.1" x2="248.3" y2="307.1"/>
				<polyline class="st44" points="248.3,304.9 248.3,302.8 250.4,302.8 				"/>
				<line class="st45" x1="254.7" y1="302.8" x2="320.6" y2="302.8"/>
				<polyline class="st44" points="322.8,302.8 324.8,302.8 324.8,304.9 				"/>
				<line class="st46" x1="324.8" y1="309.3" x2="324.8" y2="360.3"/>
				<polyline class="st41" points="242.9,151.8 242.9,153.3 241.5,153.3 				"/>
				<line class="st47" x1="238.6" y1="153.3" x2="176.5" y2="153.3"/>
				<polyline class="st41" points="175.2,153.3 173.7,153.3 173.7,151.8 				"/>
				<line class="st48" x1="173.7" y1="149" x2="173.7" y2="122"/>
				<polyline class="st41" points="173.7,120.5 173.7,119.1 175.2,119.1 				"/>
				<line class="st47" x1="178" y1="119.1" x2="240" y2="119.1"/>
				<polyline class="st41" points="241.5,119.1 242.9,119.1 242.9,120.5 				"/>
				<line class="st48" x1="242.9" y1="123.4" x2="242.9" y2="150.4"/>
				<path class="st3" d="M221.6,114.6c0,1.2-0.5,2.4-1.3,3.3c-0.9,0.9-2,1.3-3.2,1.3H113.7c-1.2,0-2.3-0.5-3.2-1.3
					c-0.9-0.9-1.3-2.1-1.3-3.3V52.5c0-1.2,0.5-2.4,1.3-3.3c0.9-0.9,2-1.3,3.2-1.3h103.5c1.2,0,2.3,0.5,3.2,1.3
					c0.9,0.9,1.3,2.1,1.3,3.3L221.6,114.6L221.6,114.6z"/>
				<polygon class="st3" points="209.3,133.9 209.3,119.2 195.1,119.2 				"/>
				<rect x="121.4" y="101.6" class="st36" width="88" height="5.2"/>
				<rect x="161.7" y="91.3" class="st36" width="47.7" height="5.2"/>
				<rect x="161.7" y="81" class="st36" width="47.7" height="5.2"/>
				<rect x="161.7" y="70.7" class="st36" width="47.7" height="5.2"/>
				<rect x="161.7" y="60.3" class="st49" width="23.8" height="5.2"/>
				<path class="st18" d="M142.4,67.9h-6.9l-7.7,21h6.5l1-3.5h7.2l1,3.5h6.6L142.4,67.9z M136.6,80.9l2.3-7.6l2.3,7.6H136.6z"/>
				<path class="st50" d="M274.8,45.6c-0.3,0.6,2.8-8.6,1.4-9.4l0,0c-1.4-0.7-6.8,7.3-6.5,6.7l5.7-11.6c0.3-0.6,1.7-0.5,3.1,0.3l0,0
					c1.4,0.7,2.3,1.8,2.1,2.4L274.8,45.6z"/>
				<path class="st50" d="M278.3,35.6c-0.4,0.7-1.3,1.1-2.1,0.6l0,0l0,0c-0.8-0.4-1.1-1.3-0.7-2.1l1.6-3.3c0.4-0.7,1.3-1,2.1-0.6
					l0,0l0,0c0.8,0.4,1.1,1.3,0.8,2.1L278.3,35.6z"/>
				<path class="st50" d="M233.1,136.6c-0.7,1.3-4.2,5.2-7.6,8.2c-1.1,1-2.7,0.9-3.7-0.2c-0.5-0.5-0.7-1.3-0.7-2.1
					c0.4-4.5,1.1-9.9,1.7-11.2c1.1-2.3,4.4-3,7.3-1.5C233,131.5,234.2,134.4,233.1,136.6z"/>
				<path class="st51" d="M233.2,136.7c-1.7,3.5-5.4,5.1-8.2,3.7l0,0c-2.9-1.5-3.8-5.6-2.1-9.1l45.4-92c1.7-3.5,5.4-5.1,8.3-3.7l0,0
					c2.9,1.5,3.7,5.5,2.1,9L233.2,136.7z"/>
				<path class="st50" d="M232.8,137.5c-2.5,3.4-4.2,3-5.2,4.2l0,0c-1.4-0.7-4.4,2.4-2.7-1.1l48.6-98.7c1.7-3.5,3.9-7.1,3.9-7.1
					l0.9,2.1c1.4,0.7,2.1,4.1,0.4,7.6L232.8,137.5z"/>
				<path class="st52" d="M250.8,68.2c-0.9,1.9-1.1,3.7-0.4,4l0,0c0.7,0.3,2-0.8,2.9-2.7l13.3-26.9c0.9-1.9-0.1-1.3-0.7-1.6l0,0
					l-1.1-0.6L250.8,68.2z"/>
				<path class="st52" d="M266.7,42.6l-13,26.4L266.7,42.6z"/>
				<polygon class="st30" points="492.9,246.6 406.8,309.1 576.1,309.1 				"/>
				<path class="st30" d="M578.5,312.7c-1.2-1.7-2.9-2.8-4.9-3.1l-160.2-1.1c-2,0.3-3.5,2.5-4.7,4.2l83,53L578.5,312.7z"/>
				<path class="st12" d="M406.6,310.6v95.9c0,1.6-0.1,1.3,0.9,2.4l85.7-50.4l-84.1-49.6C408.1,310.1,406.6,308.9,406.6,310.6z"/>
				<path class="st12" d="M574,307.4l-79.9,51l83,50.3c1.1-1.2,3-4.6,3.1-6.2l-0.1-89.6C579.9,311.2,575,308.5,574,307.4z"/>
				<path class="st29" d="M410.5,406.7c1.3,1.4,3.1,2.2,4.9,2.2h160c2,0,4.3-1.1,4.9-6.5l-86.5-44L410.5,406.7z"/>
				<polygon class="st53" points="502.3,406.5 492,406.5 489.3,409.1 499.6,409.1 				"/>
				<polygon class="st53" points="460.5,406.5 450.2,406.5 447.5,409.1 457.8,409.1 				"/>
				<path class="st53" d="M406.8,407.8c0,0.7,0.6,1.3,1.3,1.3l0,0h6.4l2.7-2.7H407l-0.3,0.3L406.8,407.8z"/>
				<polygon class="st53" points="544.1,406.5 533.8,406.5 531.1,409.1 541.3,409.1 				"/>
				<polygon class="st54" points="481.4,406.5 471.1,406.5 468.4,409.1 478.7,409.1 				"/>
				<polygon class="st54" points="436.8,409.1 439.6,406.5 429.3,406.5 426.5,409.1 				"/>
				<polygon class="st54" points="565.1,406.5 554.8,406.5 552,409.1 562.3,409.1 				"/>
				<polygon class="st54" points="523.2,406.5 512.9,406.5 510.2,409.1 520.4,409.1 				"/>
				<polygon class="st53" points="409.3,362.8 409.3,352.8 406.6,350.2 406.6,360.1 				"/>
				<polygon class="st53" points="406.6,320.5 409.3,323.1 409.3,313.2 406.6,310.5 				"/>
				<polygon class="st53" points="406.6,397.8 409.3,400.5 409.3,390.5 406.6,387.8 				"/>
				<polygon class="st54" points="409.3,382.1 409.3,372.1 406.6,369.5 406.6,379.4 				"/>
				<polygon class="st54" points="409.3,343.5 409.3,333.5 406.6,330.8 406.6,340.8 				"/>
				<polygon class="st53" points="579.7,368.2 579.8,358.2 577.1,355.5 577,365.5 				"/>
				<polygon class="st53" points="577,324.9 579.7,327.5 579.8,317.6 577.1,314.8 				"/>
				<polygon class="st54" points="579.7,388.5 579.8,378.5 577.1,375.8 577,385.7 				"/>
				<polygon class="st54" points="579.7,347.8 579.8,337.9 577.1,335.2 577,345.2 				"/>
				<g>
					<g>
						<defs>
							<polygon id="SVGID_7_" points="441.5,218.8 584.1,255.7 570.4,308.5 555.5,319.8 537.8,330.4 420.5,300 							"/>
						</defs>
						<clipPath id="SVGID_8_">
							<use xlink:href="#SVGID_7_"  style="overflow:visible;"/>
						</clipPath>
						<g class="st55">
							<path class="st36" d="M402.6,410.5l112.3,29.1c7.5,1.9,15.1-2.5,17.1-10l0,0l42.8-165.1l-126-32.7L402.6,410.5z"/>
							<path class="st30" d="M448.2,230.8l-46.7,180.3l110.2,28.6c9.6,2.5,19.4-3.3,21.8-12.8l0,0l42.2-163L448.2,230.8z
								 M510.6,438.5l-108.1-28l46.3-178.7l125.9,32.6L533,425.3C530.5,435.1,520.5,441.1,510.6,438.5
								C510.7,438.5,510.7,438.5,510.6,438.5L510.6,438.5L510.6,438.5z"/>
							
								<rect x="454" y="273.2" transform="matrix(0.2509 -0.968 0.968 0.2509 71.2581 649.5928)" class="st52" width="2.7" height="11.2"/>
							
								<rect x="457.6" y="273.1" transform="matrix(0.2496 -0.9684 0.9684 0.2496 69.9377 657.1351)" class="st52" width="2.7" height="20.8"/>
							
								<rect x="471.4" y="296.8" transform="matrix(0.2509 -0.968 0.968 0.2509 32.0969 706.7479)" class="st52" width="2.7" height="71.7"/>
							
								<rect x="461.3" y="307.2" transform="matrix(0.2496 -0.9684 0.9684 0.2496 24.0002 698.3762)" class="st52" width="2.7" height="53.1"/>
							
								<rect x="476.2" y="278.3" transform="matrix(0.2509 -0.968 0.968 0.2509 53.5869 697.5287)" class="st52" width="2.7" height="71.7"/>
							
								<rect x="477.3" y="273.7" transform="matrix(0.2509 -0.968 0.968 0.2509 58.9527 695.201)" class="st52" width="2.7" height="71.7"/>
							
								<rect x="475" y="282.9" transform="matrix(0.2509 -0.968 0.968 0.2509 48.2219 699.854)" class="st52" width="2.7" height="71.7"/>
							
								<rect x="473.9" y="286.2" transform="matrix(0.2496 -0.9684 0.9684 0.2496 44.7296 701.9548)" class="st52" width="2.7" height="71.8"/>
							
								<rect x="472.8" y="290.8" transform="matrix(0.2496 -0.9684 0.9684 0.2496 39.3716 704.2968)" class="st52" width="2.7" height="71.8"/>
							
								<rect x="468.9" y="306" transform="matrix(0.2509 -0.968 0.968 0.2509 21.335 711.3239)" class="st52" width="2.7" height="71.7"/>
							
								<rect x="467.8" y="310.6" transform="matrix(0.2509 -0.968 0.968 0.2509 15.9789 713.654)" class="st52" width="2.7" height="71.7"/>
							
								<rect x="466.6" y="315.3" transform="matrix(0.2509 -0.968 0.968 0.2509 10.6141 715.9792)" class="st52" width="2.7" height="71.7"/>
							
								<rect x="465.6" y="318.6" transform="matrix(0.2496 -0.9684 0.9684 0.2496 7.079 718.2275)" class="st52" width="2.7" height="71.8"/>
							
								<rect x="464.2" y="324.5" transform="matrix(0.2509 -0.968 0.968 0.2509 -0.1487 720.5575)" class="st52" width="2.7" height="71.7"/>
							
								<rect x="428.9" y="375.3" transform="matrix(0.2509 -0.968 0.968 0.2509 -48.0653 703.0259)" class="st52" width="2.7" height="14.5"/>
							
								<rect x="430" y="378.1" transform="matrix(0.2509 -0.968 0.968 0.2509 -52.2717 708.0339)" class="st52" width="2.7" height="19.3"/>
							
								<rect x="433" y="378.5" transform="matrix(0.2496 -0.9684 0.9684 0.2496 -53.8566 714.9216)" class="st52" width="2.7" height="27.4"/>
							
								<rect x="433.4" y="381.9" transform="matrix(0.2496 -0.9684 0.9684 0.2496 -58.3824 719.0315)" class="st52" width="2.7" height="30.5"/>
							<path class="st37" d="M510.3,438.9l-12.2-3.2c-0.1,0-0.2-0.1-0.2-0.3l0,0l46.2-178.2c0.1-0.1,0.1-0.2,0.3-0.2l0,0l29.5,7.6
								c0.1,0,0.2,0.1,0.2,0.3l0,0l0,0l-41.7,160.8C530,435.5,520.1,441.4,510.3,438.9L510.3,438.9z"/>
							<ellipse class="st36" cx="554.5" cy="278.9" rx="11.8" ry="11.8"/>
							
								<rect x="520.9" y="392" transform="matrix(0.2496 -0.9684 0.9684 0.2496 0.6753 808.824)" class="st36" width="2.7" height="24"/>
							
								<rect x="521.8" y="388.8" transform="matrix(0.2509 -0.968 0.968 0.2509 3.9432 806.5679)" class="st36" width="2.7" height="23.9"/>
							
								<rect x="519.4" y="398" transform="matrix(0.2509 -0.968 0.968 0.2509 -6.8146 811.1574)" class="st36" width="2.7" height="23.9"/>
							
								<rect x="516.9" y="407.3" transform="matrix(0.2509 -0.968 0.968 0.2509 -17.5836 815.7211)" class="st36" width="2.7" height="23.9"/>
							
								<rect x="518.2" y="402.7" transform="matrix(0.2509 -0.968 0.968 0.2509 -12.177 813.473)" class="st36" width="2.7" height="23.9"/>
							
								<rect x="511.5" y="414.1" transform="matrix(0.2496 -0.9684 0.9684 0.2496 -23.1206 812.6906)" class="st36" width="2.7" height="14.3"/>
							
								<rect x="545.9" y="296.7" transform="matrix(0.2509 -0.968 0.968 0.2509 112.7285 759.7616)" class="st36" width="2.7" height="20.7"/>
							
								<rect x="544.9" y="293.8" transform="matrix(0.2509 -0.968 0.968 0.2509 117.0342 754.7946)" class="st36" width="2.7" height="15.9"/>
						</g>
					</g>
				</g>
			</g>
		</g>
	</g>
</g>
<rect x="59" y="342" class="st54" width="32" height="92"/>
<g>
	<polygon class="st56" points="59,334.3 59,446.5 4.8,416.5 4.8,304.3 	"/>
</g>
<g>
	<g>
		<g>
			<g>
				<g>
					<g>
						<g>
							<g class="st57">
								<g>
									<polygon class="st56" points="61.8,336.3 61.8,454.5 4.7,422.9 4.7,304.6 									"/>
								</g>
								<g>
									<polygon class="st58" points="170,320.8 61.8,336.3 4.7,304.6 112.7,289.2 									"/>
								</g>
								<g>
									<path class="st54" d="M170,320.8v86.8c-0.1,17.4-13.3,33.2-29.1,35.5l-79.1,11.3V336.3L170,320.8z"/>
								</g>
							</g>
						</g>
					</g>
				</g>
				<g>
					<g>
						<g>
							<polygon class="st58" points="16.5,362.5 16.5,364.8 13.5,363.3 							"/>
						</g>
						<g>
							<path class="st54" d="M34.9,391.2l3.1,1.6c0.6,0.4,1.2,0.8,1.8,1.5l0.1,11.2l-4.8,1.2L34.9,391.2z"/>
						</g>
						<g>
							<path class="st58" d="M46.9,387.3c1.8,1.6,3.2,3.9,4.2,7.1c1.1,3.1,1.6,6.5,1.6,10.2c0.1,5.4-0.8,9.3-2.4,11.6
								c-0.8,1.1-1.6,1.7-2.6,2l-4.7,1.2c0.4-0.1,0.8-0.3,1.1-0.5c0.1-0.1,0.1-0.1,0.1-0.1l0.1-0.1l0.1-0.1l0.1-0.1
								c0.1-0.1,0.1-0.1,0.2-0.2c0.1-0.1,0.1-0.1,0.2-0.2c0.1-0.1,0.1-0.1,0.2-0.2c0.1-0.1,0.1-0.1,0.2-0.2c0-0.1,0.1-0.1,0.1-0.1
								c0.1-0.1,0.1-0.1,0.1-0.1l0.1-0.1c0.1-0.1,0.1-0.1,0.1-0.2c1.6-2.3,2.4-6.2,2.4-11.6c0-0.1,0-0.2,0-0.4
								c-0.1-3.6-0.6-6.9-1.6-9.9c-1.1-3.1-2.5-5.5-4.2-7.1c0.2,0,0.4-0.1,0.5-0.1L46.9,387.3z"/>
						</g>
						<g>
							<path class="st18" d="M46.3,395.6c1.1,3.1,1.6,6.4,1.6,9.9c0,0.1,0,0.2,0,0.4c0.1,5.4-0.8,9.3-2.4,11.6
								c-0.1,0.1-0.1,0.1-0.1,0.2c-0.3,0.4-0.3,0.4-0.4,0.5c-0.1,0.1-0.1,0.1-0.2,0.2s-0.1,0.1-0.2,0.2c-0.1,0.1-0.1,0.1-0.2,0.2
								c-0.7,0.5-1.1,0.7-1.5,0.8c-0.2,0.1-0.4,0.1-0.5,0.1c-1.1,0.2-2.2-0.1-3.6-0.8l-9.5-5.1l-0.2-35l-0.1-9.6v-1.3l-0.1-8.5
								l-0.1-4.6l2.3,1.2l6.8,3.6c2.8,1.5,4.9,3.8,6.4,7c1.5,3.1,2.2,6.8,2.3,11c0,0.1,0,0.3,0,0.4c0,3.2-0.4,5.7-1.3,7.6
								c-0.5,1.1-1.1,1.9-1.8,2.5c-0.5,0.3-0.8,0.5-1.2,0.6l0.2-0.1c-0.2,0.1-0.4,0.1-0.5,0.1C43.8,390.1,45.3,392.4,46.3,395.6z
								 M41.6,406.6c0.3-1,0.5-2.4,0.5-3.9c0-2.4-0.4-4.4-1.1-6.1c-0.4-0.8-0.8-1.5-1.2-2.1c-0.5-0.6-1.1-1.1-1.8-1.5l-3.1-1.6
								l0.1,15.5l3.1,1.6c0.1,0.1,0.1,0.1,0.2,0.1h0.1c0.5,0.2,0.9,0.3,1.2,0.3c0.1,0,0.1,0,0.1,0c0.1,0,0.1,0,0.1,0
								c0.1,0,0.2-0.1,0.3-0.1c0.4-0.1,0.8-0.4,1.1-0.9C41.3,407.5,41.5,407.1,41.6,406.6 M34.7,367.4l0.1,14l2.5,1.3
								c0.5,0.3,1,0.4,1.5,0.4c0.1,0,0.2,0,0.2-0.1c0.4-0.1,0.8-0.4,1.1-0.8c0.2-0.4,0.5-0.9,0.6-1.4c0.2-0.9,0.4-2.1,0.4-3.5
								c0-2.5-0.5-4.5-1.4-6c-0.6-1.1-1.6-2-2.8-2.6L34.7,367.4"/>
						</g>
						<g>
							<polygon class="st54" points="29.2,369 29.2,378.6 26.9,379.2 26.1,379.4 26.1,376.3 26,369.8 							"/>
						</g>
						<g>
							<polygon class="st54" points="26.1,376.3 26.1,379.4 26.9,379.2 27.1,408.6 22.3,409.9 22.1,377.3 26.1,379.4 							"/>
						</g>
						<g>
							<polygon class="st58" points="26.8,366.5 29.2,367.7 29.2,369 26,369.8 22,367.7 							"/>
						</g>
						<g>
							<path class="st54" d="M23.5,357.6c0.3-0.1,0.6,0.1,0.9,0.2c0.6,0.4,1.3,1,2.1,2.1l0.3-0.1c-0.1,0.6-0.1,1.4-0.1,2.2l0.1,4.5
								l-4.8,1.2l-0.1-4.5C21.9,359.6,22.5,357.7,23.5,357.6z"/>
						</g>
						<g>
							<path class="st58" d="M25.9,345.7c0.8-0.1,1.6,0.1,2.6,0.6c1.1,0.6,2.1,1.4,2.8,2.3l-4.8,1.2c-0.8-0.9-1.6-1.7-2.8-2.3
								c-0.8-0.5-1.6-0.6-2.3-0.6c-0.1,0-0.2,0-0.3,0s-0.1,0-0.2,0l4.6-1.2C25.7,345.7,25.8,345.7,25.9,345.7z"/>
						</g>
						<g>
							<path class="st18" d="M21.1,346.8c0.1,0,0.2,0,0.3,0c0.7,0,1.5,0.2,2.3,0.6c1.1,0.6,2.1,1.4,2.8,2.3l0.1,10.1
								c-0.7-1-1.4-1.7-2.1-2.1c-0.4-0.2-0.7-0.3-0.9-0.2c-1.1,0.2-1.6,2.1-1.6,5.6l0.1,4.5l4.1,2.1l0.1,6.5v3.1l-4.1-2.1l0.2,32.5
								l-5.5-2.9l-0.2-32.5l-3-1.6l-0.1-9.6l3,1.6v-2.3v-2.9c0-4.8,0.6-8.4,1.9-10.6c0.7-1.2,1.6-1.9,2.5-2.1
								C21,346.9,21.1,346.8,21.1,346.8z"/>
						</g>
						<g>
							<path class="st54" d="M39.6,380.1l0.9,0.5c-0.2,0.6-0.4,1.1-0.6,1.4c-0.3,0.5-0.6,0.7-1.1,0.8h-0.1c-0.1,0-0.1,0-0.2,0.1
								c-0.4,0.1-0.9-0.1-1.5-0.4l-2.5-1.3L39.6,380.1z"/>
						</g>
						<g>
							<path class="st54" d="M34.7,367.4l2.1,1.1c1.2,0.6,2.1,1.5,2.8,2.6l0.1,9.1l-4.8,1.2L34.7,367.4z"/>
						</g>
						<g>
							<path class="st58" d="M33.9,353.4l9.1,4.8c2.8,1.5,4.9,3.8,6.4,7c1.5,3.2,2.3,7,2.3,11.4c0,3.2-0.4,5.7-1.3,7.6
								c-0.8,1.8-1.8,2.8-3.1,3.1l-0.4,0.1l-4.3,1.1l-0.2,0.1c0.4-0.1,0.8-0.3,1.2-0.5c0.8-0.6,1.4-1.4,1.9-2.5
								c0.9-1.9,1.3-4.5,1.3-7.6c0-0.1,0-0.3,0-0.4c-0.1-4.2-0.8-7.9-2.3-11c-1.5-3.2-3.6-5.5-6.4-7l-6.8-3.6l-2.3-1.2l2.3-0.6
								L33.9,353.4z"/>
						</g>
						<g>
							<polygon class="st54" points="31.3,348.5 31.3,354 29.1,354.6 31.3,355.8 29.1,354.6 29.1,359.2 26.8,359.8 26.5,359.8 
								26.5,349.7 							"/>
						</g>
						<g>
							<path class="st54" d="M39.8,405.6l1.8,0.9c-0.2,0.5-0.4,0.9-0.6,1.3c-0.3,0.4-0.6,0.7-1.1,0.9h-0.1c-0.1,0-0.1,0.1-0.2,0.1
								c0,0-0.1,0-0.1,0h-0.1l0,0c-0.4,0-0.8-0.1-1.2-0.3l0,0h-0.1c-0.1,0-0.1-0.1-0.2-0.1l-3.1-1.6L39.8,405.6z"/>
						</g>
					</g>
				</g>
			</g>
		</g>
	</g>
	<g>
		<g class="st57">
			<path class="st56" d="M145.7,410.7c0-0.1,0.1-0.2,0.1-0.2c0.1-0.3,0.2-0.6,0.2-0.9c0-0.1,0.1-0.3,0.1-0.4c0.1-0.5,0.1-1,0.1-1.6
				l-3-1.6c0,0.6,0,1.1-0.1,1.6c0,0.1-0.1,0.3-0.1,0.4c-0.1,0.4-0.1,0.6-0.2,0.9c-0.1,0.2-0.1,0.3-0.2,0.5c0,0.1-0.1,0.1-0.1,0.2
				c-0.1,0.2-0.2,0.5-0.4,0.7c-0.2,0.2-0.4,0.5-0.7,0.6l-0.1,0.1c-0.2,0.2-0.5,0.4-0.9,0.5c-0.2,0.1-0.5,0.2-0.8,0.3
				c-0.1,0.1-0.3,0.1-0.4,0.1c-0.5,0.1-1,0.2-1.5,0.3l3,1.6c0.5-0.1,1.1-0.2,1.5-0.3c0.2-0.1,0.3-0.1,0.4-0.1
				c0.3-0.1,0.6-0.2,0.8-0.3c0,0,0.1,0,0.1-0.1c0.3-0.1,0.5-0.3,0.8-0.4c0,0,0,0,0.1-0.1l0.1-0.1c0.1-0.1,0.2-0.2,0.3-0.2
				c0.1-0.1,0.2-0.2,0.3-0.3c0.1-0.1,0.1-0.1,0.1-0.1c0.1-0.1,0.1-0.1,0.1-0.2c0.1-0.1,0.2-0.2,0.2-0.4c0.1-0.1,0.1-0.1,0.1-0.2
				s0.1-0.1,0.1-0.2C145.6,410.9,145.6,410.8,145.7,410.7z"/>
			<g>
				<polygon class="st56" points="146.1,407.5 143.1,405.9 143.2,365.3 146.2,366.9 				"/>
			</g>
			<g>
				<polygon class="st56" points="137.8,408.3 134.8,406.7 123.2,395.8 126.2,397.4 				"/>
			</g>
			<path class="st56" d="M130.8,384.7c1.1-1.4,2.1-2.6,2.9-3.6c0.2-0.2,0.4-0.5,0.5-0.6c0.1-0.1,0.2-0.2,0.3-0.4l0,0
				c0.4-0.5,0.7-0.9,1-1.2c0.1-0.2,0.2-0.3,0.4-0.4c0.4-0.5,0.6-0.8,0.6-0.8l0,0l-3-1.6l0,0c0,0-0.5,0.5-1.2,1.4
				c-0.2,0.3-0.5,0.6-0.8,0.9l0,0c0,0.1-0.1,0.1-0.1,0.1c-0.5,0.6-1,1.2-1.5,1.9c-0.6,0.8-1.4,1.7-2.2,2.6c-1,1.2-2.1,2.6-3.2,3.9
				c-0.5,0.6-1.1,1.3-1.6,1.9c-1.1,1.4-2.2,2.7-3.3,4c-0.4,0.5-0.8,0.9-1.1,1.3c-0.1,0.1-0.2,0.2-0.4,0.4c-0.2,0.2-0.4,0.5-0.6,0.7
				c-0.1,0.1-0.2,0.2-0.4,0.4c-0.2,0.2-0.4,0.4-0.6,0.5c-0.1,0.1-0.2,0.2-0.3,0.2c-0.3,0.3-0.6,0.5-0.9,0.7
				c-0.1,0.1-0.1,0.1-0.2,0.1c-0.2,0.1-0.4,0.2-0.5,0.3c-0.1,0.1-0.1,0.1-0.2,0.1c-0.2,0.1-0.5,0.2-0.7,0.2c-0.1,0-0.3,0-0.5,0
				c-0.1,0-0.1,0-0.2,0c-0.1,0-0.2,0-0.4-0.1h-0.1c-0.2-0.1-0.5-0.2-0.7-0.3c-0.1-0.1-0.2-0.1-0.4-0.2l3,1.6
				c0.1,0.1,0.2,0.1,0.2,0.1c0.1,0,0.1,0,0.1,0.1c0.2,0.1,0.5,0.2,0.7,0.3c0,0,0,0,0.1,0l0,0c0.1,0,0.2,0.1,0.4,0.1
				c0.1,0,0.1,0,0.2,0c0.2,0,0.3,0,0.5,0c0.2-0.1,0.5-0.1,0.7-0.2c0.1,0,0.1,0,0.1,0c0.1,0,0.1-0.1,0.1-0.1c0.2-0.1,0.3-0.2,0.5-0.3
				c0.1-0.1,0.1-0.1,0.1-0.1l0.1-0.1c0.3-0.2,0.6-0.4,0.9-0.7l0.1-0.1c0.1-0.1,0.1-0.1,0.2-0.2c0.2-0.2,0.4-0.4,0.6-0.5
				c0.1-0.1,0.2-0.2,0.4-0.4c0.2-0.2,0.4-0.4,0.6-0.7c0.1-0.1,0.1-0.2,0.2-0.2c0.1-0.1,0.1-0.1,0.1-0.1c0.4-0.4,0.7-0.8,1.1-1.3
				c1.1-1.3,2.2-2.6,3.3-4c0.5-0.6,1.1-1.3,1.6-1.9C128.7,387.3,129.8,386,130.8,384.7z"/>
			<g>
				<polygon class="st56" points="129.2,369.3 126.2,367.6 126.2,362.6 129.2,364.3 				"/>
			</g>
			<path class="st58" d="M148.9,361.6c0.2,0.1,0.4,0.1,0.6,0.2l-3-1.6c0,0-0.1,0-0.1-0.1c-0.1-0.1-0.3-0.1-0.4-0.2
				c-0.1,0-0.1,0-0.1,0s-0.1,0-0.1,0c-0.2-0.1-0.5-0.1-0.7,0l-18.9,2.6l3,1.6l18.9-2.6C148.4,361.6,148.6,361.6,148.9,361.6
				C148.9,361.6,148.9,361.6,148.9,361.6z"/>
			<g class="st57">
				<g>
					<defs>
						<path id="SVGID_9_" d="M112.6,403.5l-3-1.6c-1.3-0.7-2.6-1.7-4.1-3.1l3,1.6C110,401.8,111.3,402.8,112.6,403.5z"/>
					</defs>
					<clipPath id="SVGID_10_">
						<use xlink:href="#SVGID_9_"  style="overflow:visible;"/>
					</clipPath>
					<g class="st59">
						<path class="st56" d="M112.6,403.5l-3-1.6c-1.3-0.7-2.6-1.7-4.1-3.1l3,1.6C110,401.8,111.3,402.8,112.6,403.5"/>
					</g>
				</g>
			</g>
			<g>
				<polygon class="st58" points="88.8,421 85.8,419.4 137.6,412.1 140.6,413.7 				"/>
			</g>
			<g>
				<polygon class="st58" points="93.9,411 90.9,409.3 102.4,395.6 105.4,397.2 				"/>
			</g>
			<g>
				<polygon class="st56" points="97.2,414 94.2,412.4 90.9,409.3 93.9,411 				"/>
			</g>
			<g>
				<polygon class="st56" points="117.5,379.6 114.5,377.9 114.5,366 117.5,367.6 				"/>
			</g>
			<g>
				<polygon class="st58" points="102.3,394 99.3,392.3 102.7,388.5 105.8,390.1 				"/>
			</g>
			<g>
				<polygon class="st56" points="105.4,397.2 102.4,395.6 99.3,392.3 102.3,394 				"/>
			</g>
			<g>
				<path class="st18" d="M136.6,377.7l3.3,3.1c-0.1,0.1-5.1,6.2-10.4,12.7l11.6,10.9l-3.3,4l-11.6-10.9l-0.2,0.2
					c-3.5,4.2-6.2,6.4-8.9,6.8c-2.6,0.4-5.3-1-8.6-4.1l-11.3,13.6L94,411l11.4-13.8l-3.1-3.2l3.5-3.8l5.9,6.2
					c2.6,2.4,4.2,3.4,5.5,3.2c1.3-0.2,3-1.7,5.6-4.9C129.2,386.8,136.5,377.8,136.6,377.7z"/>
			</g>
			<g>
				<path class="st18" d="M148.2,361.6c1.5-0.2,2.6,0.9,2.6,2.5l-0.1,42.6c0.1,3.4-0.7,6.1-2.3,8.1c-1.7,2.1-4.1,3.1-7.6,3.6
					l-53.7,7.5c-1.5,0.2-2.8-0.8-2.8-2.4l0.1-17.4l4.5,3.2v11.6l51.8-7.3c2.1-0.3,3.6-0.9,4.4-1.9c0.7-0.9,1.1-2.4,1-4.4l0.1-40.6
					l-17,2.4v-5.1L148.2,361.6z"/>
			</g>
			<path class="st56" d="M84.3,423.6l0.1-17.4l-3-1.6L81.3,422c0,0.9,0.5,1.7,1.2,2.1l3,1.6C84.8,425.3,84.3,424.6,84.3,423.6z"/>
			<g>
				<polygon class="st58" points="84.3,392 81.3,390.4 107.1,358.8 110.1,360.5 				"/>
			</g>
			<g class="st57">
				<g>
					<defs>
						<path id="SVGID_11_" d="M87.9,394.7l-3-1.6c-1.1-0.6-2.4-1.5-3.6-2.8l3,1.6C85.6,393.3,86.8,394.1,87.9,394.7z"/>
					</defs>
					<clipPath id="SVGID_12_">
						<use xlink:href="#SVGID_11_"  style="overflow:visible;"/>
					</clipPath>
					<g class="st60">
						<path class="st56" d="M87.9,394.7l-3-1.6c-1.1-0.6-2.4-1.5-3.6-2.8l3,1.6C85.6,393.3,86.8,394.1,87.9,394.7"/>
					</g>
				</g>
			</g>
			<path class="st58" d="M121.6,354.2l-3-1.6h-0.1c-0.1-0.1-0.2-0.1-0.2-0.1l0,0c-0.1,0-0.2-0.1-0.4,0c-0.1,0-0.1,0-0.2,0.1
				l-18.4,2.5l3,1.6l18.4-2.5c0.1,0,0.1,0,0.2-0.1c0.1,0,0.2,0,0.4,0C121.5,354.1,121.5,354.1,121.6,354.2z"/>
			<g>
				<polygon class="st58" points="98.8,362 95.7,360.4 99.5,355 102.5,356.6 				"/>
			</g>
			<g>
				<path class="st18" d="M102.5,356.6l18.4-2.5c0.1,0,0.1,0,0.2-0.1c0.8-0.1,1.6,0.7,1.5,1.6l-0.1,18.4l-4.9,5.5v-11.9l-18.8,24.2
					c-1.4,1.6-3.2,3.6-5.9,4c-2.2,0.3-5.1-0.5-8.5-3.8l25.8-31.5L98.7,362L102.5,356.6z"/>
			</g>
		</g>
	</g>
</g>
</svg>
