<svg id="elements" xmlns="http://www.w3.org/2000/svg" xmlns:xlink="http://www.w3.org/1999/xlink" viewBox="0 0 234.774 200"><defs><style>.cls-1,.cls-12{fill:none;}.cls-2{clip-path:url(#clip-path);}.cls-3{fill:#dee3e8;}.cls-4{fill:#e11e19;}.cls-5{clip-path:url(#clip-path-2);}.cls-11,.cls-6{fill:#fff;}.cls-6{opacity:0.43;}.cls-7{fill:#96a0a5;}.cls-8{fill:#f08e8c;}.cls-9{fill:#f2f2f4;}.cls-10{fill:#7cb892;}.cls-12{stroke:#96a0a5;stroke-linecap:round;stroke-miterlimit:10;}</style><clipPath id="clip-path"><rect class="cls-1" x="-0.514" y="-0.873" width="234.774" height="200"/></clipPath><clipPath id="clip-path-2"><polygon class="cls-1" points="11.162 180.994 148.862 180.994 198.887 17.26 11.162 17.26 11.162 180.994"/></clipPath></defs><g class="cls-2"><path class="cls-3" d="M177.065,136.08l-1,.663.332.5-.663,1.162-14.6-.333-.332,1.66h4.314l.332.5,2.655,3.982,3.484-4.48,4.823-.315,3.14-4.994.5-.332,4.343.006a1.776,1.776,0,0,1,1.992-1.328c1.327-.165,2.488.5,2.156,2.158a2.63,2.63,0,0,1-2.157,2.156,2.6,2.6,0,0,1-2.157-2.156l-3.513.16-3.472,4.5H179.4c.167-.83,1.162-1.494,2.49-1.66a2.63,2.63,0,0,1,2.156,2.157c-.165.83-1.328,2.324-2.157,2.157a2.387,2.387,0,0,1-2.322-1.327l-7.311-.184-6.975,8.987-.5.333-8.141-.349,2.169,4.33,4.313,0,1.494-1c.829.167,1.492,1.162,1.825,1.66a1.822,1.822,0,0,1-1.992,1.328c-.5.331-.829-.167-1.16-.664l-5.143-.166-.333-.5-1.836-3.832-2.146,4.331,1.66.332.995,1.492-2.987-.165-.663,1.16h12.94l10.47-13.45.5-.332,10.286.332,8.811-11.625.5-.332,2.655-.333,1.492-1a1.821,1.821,0,0,1,1.328,1.991,1.122,1.122,0,0,1-1.493,1c-.5.332-1.327.166-1.162-.664l-2.655.332-2.821,3.319,11.283-.332a1.818,1.818,0,0,1,1.991-1.327c1.327-.166,1.991.829,2.156,2.157s-.828,1.991-2.157,2.156c-.828-.165-1.99-.829-1.824-1.659l-2.987-.166,3.485,4.147,6.481.019c.155-.848,1.151-1.512,2.507-1.671a2.621,2.621,0,0,1,2.156,2.157A2.106,2.106,0,0,1,214.6,144.9a2.387,2.387,0,0,1-2.322-1.327l-7.311-.184-4.149-5.142-7.8.166-4.662,5.983,6.487-.011c.167-.83,1.161-1.493,2.489-1.659.83.165,2.323,1.328,1.658,2.488a1.479,1.479,0,0,1-1.657,1.826,2.39,2.39,0,0,1-2.323-1.328l-18.1-.154-5.142,6.3,3.318.664,2.986-4.147.5-.331h10.785l1.493-1c.83.166,1.493,1.16,1.826,1.659-.167.83-1.162,1.492-1.66,1.825a2.2,2.2,0,0,1-1.492-1.162H178.736l-2.324,2.987,2.655-.332.332.5,3.65,5.475,9.966-.148,5.161-6.316.5-.333,1.66.332,3.47-4.5.5-.333h2.157l1.494-1a1.849,1.849,0,0,1,1.339,2.008c.332.5-.664,1.161-1.494,1-.5.331-.829-.166-1.161-.664l-2.17-.017-2.809,3.336,8.131.332c.166-.831.83-1.992,1.659-1.826,1.659.332,2.323,1.328,2.156,2.158.166,1.326-.829,1.99-2.156,2.156-.829-.166-1.161-.664-1.825-1.66l-4.811.332,3.152,3.651h10.784a1.477,1.477,0,0,1,1.659-1.823,2.083,2.083,0,0,1,2.157,2.156c.165,1.328-.829,1.991-2.156,2.157-.831-.166-1.163-.665-1.826-1.659l-10.784,0-.5.333-.331-.5-3.815-4.646H198.84l-4.166,5.652h4.314c.183-.84,1.179-1.5,1.677-1.836,1.66.332,2.323,1.327,2.156,2.157.167,1.327-.5,2.488-2.173,2.168-.831-.166-1.66-.332-1.826-1.658l-15.938-.185-.5.333-3.981-5.973-7.8.166-1.843,2.665,5.66-.177c-.333-.5.663-1.162,1-.664,1.327-.166,1.659.332,1.492,1.162s-.332,1.659-1.16,1.493-1.66-.332-1.5-1.161l-6.155.509-1.66,1.825-13.77-.166-1.328,2.322-13.481-9.3,16.928-21.148,3.625,4.945Zm-18.433,7.975c.5-.331.5-.331,1.328-.166s1.659.331,1.824,1.659c-.165.829-.829,1.991-1.66,1.825-1.327.166-1.659-.33-2.322-1.326l-1,2.819,7.311.184,2.993-4.177-2.655-3.982-4.331.012Z"/><path class="cls-3" d="M153.644,89.537l-.862-.637.32-.432-.544-1.07-13.1-.345-.224-1.5,3.867.19.319-.432,2.555-3.452,2.925,4.169,4.309.494,2.595,4.615.431.318,3.892.187a1.593,1.593,0,0,0,1.726,1.277c1.183.207,2.253-.337,2.028-1.839a2.36,2.36,0,0,0-1.838-2.027,2.33,2.33,0,0,0-2.029,1.837l-3.141-.3-2.914-4.183,1.933.095c.113.751.976,1.39,2.158,1.6a2.358,2.358,0,0,0,2.027-1.838c-.111-.751-1.087-2.141-1.837-2.028a2.142,2.142,0,0,0-2.14,1.087l-6.561-.157L143.683,76.8l-.433-.32-7.312-.046,2.135-3.785,3.865.189,1.3.958c.75-.113,1.388-.975,1.708-1.407a1.635,1.635,0,0,0-1.726-1.278c-.431-.319-.751.114-1.07.545l-4.616-.078-.32.432L135.4,75.365l-1.732-3.976,1.5-.225.957-1.294-2.684.017-.543-1.069,11.6.569L153.284,81.9l.433.32,9.233.155,7.385,10.807.432.32,2.364.414,1.294.958A1.634,1.634,0,0,0,175.7,93.15a1.006,1.006,0,0,0-1.294-.958c-.432-.319-1.182-.208-1.071.544l-2.365-.415-2.382-3.1,10.1.794a1.633,1.633,0,0,0,1.727,1.277c1.182.207,1.821-.656,2.027-1.839s-.655-1.821-1.838-2.027c-.75.112-1.821.655-1.708,1.407l-2.684.017,3.306-3.564,5.809.269c.1.767.965,1.406,2.173,1.608a2.35,2.35,0,0,0,2.027-1.838,1.889,1.889,0,0,0-1.852-2.039,2.143,2.143,0,0,0-2.14,1.087l-6.561-.157-3.944,4.426-6.982-.492-3.915-5.568,5.814.3c.112.751.974,1.389,2.157,1.6.751-.111,2.14-1.087,1.6-2.157A1.327,1.327,0,0,0,172.3,80.61a2.146,2.146,0,0,0-2.141,1.088l-16.231-.659-4.331-5.876,3-.449,2.494,3.848.431.319,9.665.476,1.294.957c.752-.111,1.39-.974,1.71-1.406-.113-.751-.975-1.389-1.407-1.708a1.973,1.973,0,0,0-1.389.975l-9.666-.475-1.951-2.78,2.365.416.32-.433,3.512-4.746,8.926.572,4.346,5.888.433.32,1.5-.225,2.912,4.183.433.32,1.932.095,1.3.958a1.66,1.66,0,0,0,1.288-1.741c.319-.431-.544-1.07-1.295-.958-.431-.319-.75.112-1.07.544l-1.945-.081-2.371-3.113,7.3.06c.112.752.656,1.822,1.406,1.71,1.5-.225,2.141-1.088,2.028-1.839.207-1.182-.656-1.82-1.838-2.028-.75.113-1.069.544-1.708,1.407l-4.3-.509,2.985-3.133,9.665.475a1.327,1.327,0,0,0,1.406,1.708,1.87,1.87,0,0,0,2.029-1.838c.206-1.183-.655-1.82-1.837-2.028-.752.112-1.072.544-1.71,1.406l-9.665-.473-.433-.32-.318.431-3.624,4-3.867-.19L170.4,70.505l3.866.19c.127.761.99,1.4,1.422,1.72,1.5-.225,2.14-1.087,2.028-1.839.207-1.182-.337-2.251-1.853-2.038-.751.111-1.5.224-1.709,1.405l-14.293-.536-.432-.32L155.6,74.265l-6.982-.493L147.082,71.3l5.064.408c-.319.432.544,1.071.863.638,1.182.208,1.5-.223,1.389-.975s-.224-1.5-.975-1.389-1.5.224-1.39.975l-5.494-.728-1.407-1.709-12.349-.457-1.088-2.14-1.438-4.4-.682-1.869L119.2,73.67l16.515,21.206,4.827-5.683Zm-16.169-7.958c.431.319.431.319,1.183.207s1.5-.224,1.708-1.407c-.112-.75-.655-1.821-1.407-1.709-1.183-.207-1.5.224-2.14,1.087l-.768-2.57,6.561.156,2.5,3.876-2.555,3.452-3.881-.2Z"/><path class="cls-4" d="M177.092,40.679l-1,.662.331.5L175.762,43l-14.6-.355-.334,1.659,4.314.007.331.5,2.649,3.986,3.491-4.475,4.823-.307,3.148-4.99.5-.33,4.343.012a1.775,1.775,0,0,1,1.993-1.325c1.328-.164,2.488.5,2.153,2.161a2.629,2.629,0,0,1-2.16,2.153,2.6,2.6,0,0,1-2.154-2.159l-3.513.154-3.479,4.492,2.156,0c.168-.83,1.165-1.493,2.492-1.656a2.626,2.626,0,0,1,2.153,2.16c-.166.829-1.331,2.321-2.16,2.153a2.386,2.386,0,0,1-2.32-1.33l-7.311-.2-6.988,8.977-.5.331-8.141-.36,2.162,4.333,4.313.008,1.5-.994c.829.167,1.491,1.163,1.822,1.662a1.821,1.821,0,0,1-1.993,1.325c-.5.33-.829-.169-1.16-.666l-5.143-.174-.331-.5-1.831-3.835-2.152,4.328,1.659.334.993,1.494-2.987-.169-.664,1.158,12.94.021,10.49-13.434.5-.332,10.286.348,8.828-11.612.5-.331,2.655-.329,1.494-.993a1.822,1.822,0,0,1,1.324,1.994,1.12,1.12,0,0,1-1.494.992c-.5.332-1.327.165-1.161-.665l-2.656.328-2.825,3.314,11.283-.314a1.82,1.82,0,0,1,1.993-1.325c1.328-.164,1.99.833,2.153,2.161s-.832,1.99-2.16,2.153c-.828-.167-1.99-.832-1.822-1.662l-2.986-.17,3.478,4.152,6.481.029c.156-.848,1.153-1.511,2.509-1.668a2.621,2.621,0,0,1,2.153,2.16,2.105,2.105,0,0,1-2.177,2.165,2.388,2.388,0,0,1-2.32-1.33l-7.311-.2-4.141-5.149-7.8.155-4.671,5.976,6.487,0c.168-.829,1.163-1.491,2.491-1.655.83.167,2.321,1.331,1.655,2.491a1.479,1.479,0,0,1-1.66,1.823,2.39,2.39,0,0,1-2.321-1.331l-18.1-.181-5.152,6.295,3.318.669,2.992-4.142.5-.331,10.784.016,1.5-.993c.83.166,1.491,1.162,1.823,1.661-.168.83-1.163,1.491-1.663,1.823a2.2,2.2,0,0,1-1.49-1.164l-10.785-.016-2.328,2.983,2.655-.328.332.5,3.641,5.48,9.967-.133,5.17-6.309.5-.331,1.659.334,3.477-4.491.5-.332,2.156,0,1.5-.994a1.849,1.849,0,0,1,1.336,2.01c.331.5-.666,1.161-1.5.994-.5.331-.828-.167-1.16-.666l-2.169-.02L201.664,56l8.13.345c.167-.831.833-1.991,1.661-1.824,1.659.335,2.322,1.332,2.154,2.161.164,1.327-.833,1.989-2.16,2.154-.829-.168-1.16-.666-1.822-1.663l-4.812.325,3.146,3.655,10.785.016a1.477,1.477,0,0,1,1.661-1.821,2.083,2.083,0,0,1,2.154,2.159c.163,1.328-.832,1.989-2.159,2.154C219.571,63.5,219.24,63,218.578,62l-10.784-.018-.5.332-.331-.5-3.808-4.652-4.314-.006-4.174,5.646,4.314,0c.184-.839,1.181-1.5,1.68-1.833,1.659.334,2.321,1.33,2.153,2.16.164,1.328-.5,2.487-2.177,2.165-.83-.167-1.659-.334-1.823-1.661l-15.938-.208-.5.331-3.973-5.978-7.8.154-1.846,2.663,5.659-.169c-.331-.5.665-1.161,1-.662,1.327-.165,1.658.333,1.49,1.163s-.334,1.659-1.163,1.492-1.659-.335-1.492-1.164l-6.157.5-1.662,1.823L152.664,63.4l-1.332,2.321-1.849,4.82-.864,2.042L137.864,56.4l27.242-22.256-2.613,6.182Zm-18.444,7.947c.5-.33.5-.33,1.327-.164s1.659.334,1.822,1.662c-.166.829-.832,1.99-1.662,1.823-1.328.164-1.659-.333-2.321-1.33l-1,2.817,7.311.2,3-4.173-2.648-3.986-4.331.006Z"/><path class="cls-3" d="M152.93,101.085l-1.185.714.358.594-.829,1.309L134.4,102.547l-.472,1.9,4.992.228.357.593,2.862,4.747,4.267-5,5.6-.109,3.9-5.613.593-.357,5.024.235a2.056,2.056,0,0,1,2.374-1.43c1.544-.122,2.852.707,2.381,2.61a3.047,3.047,0,0,1-2.609,2.38,3.008,3.008,0,0,1-2.383-2.608h-4.072l-4.255,5.019,2.5.114c.237-.951,1.424-1.667,2.969-1.789a3.046,3.046,0,0,1,2.38,2.61c-.235.95-1.658,2.617-2.609,2.381a2.766,2.766,0,0,1-2.617-1.658l-8.449-.6-8.543,10.029-.594.359-9.4-.833,2.281,5.124,4.99.229,1.781-1.074c.95.236,1.665,1.423,2.023,2.017a2.11,2.11,0,0,1-2.374,1.431c-.592.357-.95-.238-1.307-.83l-5.942-.463-.358-.595-1.923-4.53-2.71,4.9,1.9.472,1.073,1.779-3.447-.349-.828,1.307,14.971.685,12.822-15.009.595-.358,11.883.927L174.82,98.435l.594-.358,3.089-.244,1.78-1.073a2.11,2.11,0,0,1,1.43,2.374,1.3,1.3,0,0,1-1.779,1.072c-.594.358-1.544.123-1.31-.828l-3.089.244-3.438,3.69,13.07.212a2.107,2.107,0,0,1,2.374-1.431c1.544-.122,2.26,1.065,2.381,2.61s-1.064,2.259-2.609,2.38c-.95-.235-2.26-1.064-2.023-2.015l-3.447-.35,3.813,4.982,7.5.364c.224-.973,1.411-1.689,2.988-1.8a3.035,3.035,0,0,1,2.381,2.61,2.438,2.438,0,0,1-2.629,2.393,2.765,2.765,0,0,1-2.617-1.657l-8.449-.6-4.528-6.168-9.031-.219-5.71,6.676,7.507.329c.236-.952,1.421-1.666,2.966-1.788.952.235,2.618,1.659,1.788,2.967a1.713,1.713,0,0,1-2.014,2.024,2.769,2.769,0,0,1-2.618-1.659l-20.936-1.133-6.281,7.021,3.8.944,3.674-4.641.592-.357,12.477.568,1.78-1.072c.952.235,1.666,1.421,2.025,2.015-.237.951-1.423,1.665-2.017,2.024a2.546,2.546,0,0,1-1.665-1.423l-12.478-.569-2.845,3.334,3.089-.245.358.594,3.933,6.527,11.539.354,6.3-7.035.595-.358,1.9.471,4.253-5.019.594-.358,2.495.114,1.781-1.074a2.142,2.142,0,0,1,1.443,2.4c.358.593-.829,1.308-1.781,1.073-.592.357-.95-.235-1.308-.83L184,116.358l-3.426,3.71,9.389.814c.236-.953,1.066-2.261,2.016-2.025,1.9.471,2.618,1.658,2.381,2.61.122,1.543-1.065,2.259-2.609,2.381-.95-.236-1.308-.829-2.023-2.016l-5.584.13,3.454,4.39,12.477.568a1.711,1.711,0,0,1,2.015-2.022,2.412,2.412,0,0,1,2.382,2.608c.121,1.545-1.064,2.259-2.608,2.382-.953-.236-1.311-.83-2.025-2.016l-12.477-.571-.594.359-.357-.593-4.169-5.576-4.991-.227-5.117,6.319,4.991.227c.255-.962,1.442-1.677,2.037-2.036,1.9.472,2.617,1.658,2.38,2.61.123,1.544-.707,2.852-2.629,2.393-.952-.235-1.9-.471-2.024-2.015l-18.43-1.054-.595.358-4.291-7.119-9.031-.22-2.271,2.986,6.556.094c-.358-.594.829-1.31,1.187-.715,1.544-.123,1.9.47,1.665,1.422s-.471,1.9-1.422,1.666-1.9-.471-1.667-1.422l-7.149.264-2.016,2.025-15.922-.919-1.659,2.617-2.385,5.483-1.1,2.318-11.618-19.274L139.4,92.911l-3.338,7.019Zm-21.746,8.253c.593-.357.593-.357,1.545-.122s1.9.471,2.023,2.016c-.235.951-1.064,2.26-2.016,2.024-1.545.122-1.9-.47-2.618-1.657l-1.3,3.209,8.449.6,3.683-4.675-2.861-4.747-5.012-.214Z"/><g class="cls-5"><path class="cls-3" d="M17.211,25.5h207.2a0,0,0,0,1,0,0v110.78A23.822,23.822,0,0,1,200.584,160.1H17.211a0,0,0,0,1,0,0V25.5A0,0,0,0,1,17.211,25.5Z"/><polygon class="cls-6" points="16.814 122.48 17.211 25.499 153.287 25.342 16.814 122.48"/><polygon class="cls-7" points="137.928 28.21 150.049 28.221 153.287 25.342 141.166 25.333 137.928 28.21"/><polygon class="cls-7" points="190.5 25.376 187.262 28.254 199.38 28.266 202.624 25.387 190.5 25.376"/><polygon class="cls-7" points="39.257 28.122 51.38 28.134 54.619 25.254 42.497 25.242 39.257 28.122"/><polygon class="cls-7" points="88.592 28.167 100.712 28.179 103.952 25.299 91.831 25.289 88.592 28.167"/><polygon class="cls-7" points="129.899 156.914 117.611 156.874 114.313 160.146 126.607 160.188 129.899 156.914"/><polygon class="cls-7" points="79.878 156.754 67.587 156.719 64.293 159.989 76.585 160.028 79.878 156.754"/><path class="cls-7" d="M17.219,158.226a1.623,1.623,0,0,0,1.63,1.618l7.719.027,3.291-3.274-12.294-.039-.342.342Z"/><polygon class="cls-7" points="179.92 157.075 167.629 157.034 164.335 160.307 176.628 160.349 179.92 157.075"/><polygon class="cls-7" points="20.222 101.981 20.293 89.692 17.03 86.39 16.959 98.68 20.222 101.981"/><polygon class="cls-7" points="17.25 49.87 20.511 53.173 20.582 40.878 17.319 37.577 17.25 49.87"/><polygon class="cls-7" points="16.862 145.075 20.124 148.378 20.195 136.084 16.931 132.783 16.862 145.075"/><polygon class="cls-7" points="224.485 106.691 224.583 94.404 221.327 91.094 221.234 103.388 224.485 106.691"/><polygon class="cls-7" points="221.625 53.365 224.882 56.677 224.977 44.386 221.724 41.076 221.625 53.365"/><polygon class="cls-4" points="113.261 28.188 125.383 28.199 128.622 25.32 116.499 25.309 113.261 28.188"/><polygon class="cls-4" points="162.591 28.233 174.715 28.245 177.956 25.366 165.837 25.355 162.591 28.233"/><path class="cls-4" d="M17.214,26.639l0,1.464,9.5.01,3.237-2.88-11.126-.009A1.514,1.514,0,0,0,17.214,26.639Z"/><path class="cls-8" d="M224.386,26.823a1.517,1.517,0,0,0-1.6-1.418l-7.614-.006-3.241,2.879,12.123.008.338-.3Z"/><polygon class="cls-4" points="63.924 28.147 76.044 28.155 79.285 25.276 67.162 25.267 63.924 28.147"/><polygon class="cls-4" points="104.888 156.837 92.6 156.796 89.303 160.068 101.596 160.109 104.888 156.837"/><polygon class="cls-4" points="51.577 159.948 54.87 156.676 42.575 156.638 39.285 159.909 51.577 159.948"/><polygon class="cls-8" points="204.932 157.156 192.638 157.115 189.345 160.384 201.637 160.426 204.932 157.156"/><polygon class="cls-4" points="154.91 156.994 142.619 156.958 139.324 160.227 151.612 160.267 154.91 156.994"/><polygon class="cls-4" points="20.076 125.783 20.146 113.492 16.883 110.19 16.814 122.48 20.076 125.783"/><polygon class="cls-4" points="20.369 78.181 20.438 65.889 17.176 62.587 17.106 74.878 20.369 78.181"/><polygon class="cls-8" points="224.289 131.703 224.387 119.414 221.131 116.106 221.035 128.396 224.289 131.703"/><polygon class="cls-8" points="224.684 81.684 224.779 69.394 221.526 66.086 221.43 78.377 224.684 81.684"/><path class="cls-4" d="M217.748,63.634a1.034,1.034,0,0,1-1.074,1l-43.385-1.653a1.039,1.039,0,0,1-1-1.074l.922-24.158a1.04,1.04,0,0,1,1.081-1l43.382,1.653a1.039,1.039,0,0,1,1,1.076Z"/><polygon class="cls-9" points="217.831 61.471 172.371 59.742 172.386 59.389 217.842 61.12 217.831 61.471"/><path class="cls-7" d="M132.851,66.464l-.46.136-1.107-3.722,2.515-.663.461-.139,1.106,3.726L132.09,63.9Z"/><path class="cls-7" d="M137.893,61l2.2-.652-.771,4.2-.555.165-.966-3.18Z"/><path class="cls-7" d="M136.1,62.36l.277.929.524-.153-.5-1.692-.4.122a2.378,2.378,0,0,1-.415.876l.164.56A2.451,2.451,0,0,0,136.1,62.36Z"/><path class="cls-7" d="M132.936,69.16c.8-.235,1.576-.165,2.182,1.9.392,1.3.5,2.4-.79,2.783s-1.805-.605-2.185-1.9C131.533,69.88,132.144,69.4,132.936,69.16Z"/><path class="cls-7" d="M136.01,69.285a2.928,2.928,0,0,0,.506-1.082l.5-.15,1.332,4.492-.642.19-1.055-3.552a3.22,3.22,0,0,1-.44.791Z"/><polygon class="cls-7" points="131.574 74.555 131.794 74.488 131.907 73.837 131.407 73.987 131.574 74.555"/></g><path class="cls-10" d="M165.246,78.752A1.412,1.412,0,0,1,166.7,77.4l.041-1.484a1.4,1.4,0,1,1,.078-2.8l.045-1.48a1.4,1.4,0,0,1,.088-2.8l.04-1.482a1.4,1.4,0,1,1,.091-2.8l.044-1.476a1.4,1.4,0,0,1,.08-2.8l.042-1.481a1.4,1.4,0,0,1,.088-2.8l.044-1.48a1.4,1.4,0,0,1,.087-2.8l.042-1.48a1.411,1.411,0,0,1-1.361-1.446A1.4,1.4,0,0,1,167.6,47.43l.049-1.486a1.4,1.4,0,0,1,.075-2.8l.049-1.482a1.4,1.4,0,1,1,.088-2.8l.033-1.278-1.318-.037a1.4,1.4,0,0,1-2.8-.084l-1.482-.046a1.4,1.4,0,1,1-2.8-.087l-1.485-.045a1.4,1.4,0,1,1-2.792-.084l-1.48-.042a1.4,1.4,0,0,1-2.808-.088l-1.479-.041a1.4,1.4,0,0,1-2.8-.086L145.17,36.9a1.4,1.4,0,0,1-2.8-.081l-1.484-.046a1.4,1.4,0,1,1-2.8-.088l-1.481-.043a1.4,1.4,0,1,1-2.8-.083l-1.4-.042-.04,1.278a1.4,1.4,0,0,1-.08,2.8l-.048,1.479a1.4,1.4,0,1,1-.087,2.8l-.037,1.482a1.4,1.4,0,0,1-.085,2.8l-.048,1.479a1.4,1.4,0,0,1-.081,2.8l-.048,1.482a1.4,1.4,0,1,1-.083,2.8l-.04,1.48a1.4,1.4,0,0,1-.088,2.8l-.044,1.481a1.4,1.4,0,1,1-.088,2.8l-.043,1.477a1.4,1.4,0,0,1-.083,2.8l-.041,1.482a1.4,1.4,0,1,1-.089,2.8l-.041,1.483a1.4,1.4,0,0,1-.08,2.8l-.057,1.7,1.406.043a1.382,1.382,0,0,1,1.435-1.358,1.4,1.4,0,0,1,1.362,1.441l1.477.047a1.4,1.4,0,1,1,2.8.083l1.477.044a1.4,1.4,0,0,1,2.805.086l1.481.041a1.4,1.4,0,1,1,2.8.086l1.483.044a1.4,1.4,0,0,1,2.8.082l1.482.046a1.4,1.4,0,0,1,1.448-1.356,1.416,1.416,0,0,1,1.357,1.446l1.476.037a1.4,1.4,0,0,1,2.8.089l1.479.043a1.4,1.4,0,1,1,2.8.085l1.318.035.052-1.7A1.413,1.413,0,0,1,165.246,78.752Z"/><path class="cls-11" d="M148.809,73.081A13.075,13.075,0,1,1,162.5,60.657a1.538,1.538,0,1,1-3.073-.15,9.985,9.985,0,1,0-5.408,8.41,1.538,1.538,0,0,1,1.41,2.733A13.056,13.056,0,0,1,148.809,73.081Z"/><path class="cls-11" d="M149.088,67.328a7.309,7.309,0,1,1,7.655-6.945A7.313,7.313,0,0,1,149.088,67.328Zm.561-11.528a4.229,4.229,0,1,0,4.022,4.433A4.233,4.233,0,0,0,149.649,55.8Z"/><path class="cls-11" d="M157.729,67.748a4.4,4.4,0,0,1-3.058-1.45,4.355,4.355,0,0,1-1.14-3.184l.14-2.881a1.538,1.538,0,1,1,3.072.15l-.14,2.88a1.278,1.278,0,0,0,.343.958,1.368,1.368,0,0,0,1.91.1,1.321,1.321,0,0,0,.429-.926l.14-2.881a1.538,1.538,0,1,1,3.072.15l-.14,2.88a4.417,4.417,0,0,1-4.628,4.205Z"/><line class="cls-12" x1="72.566" y1="99.679" x2="140.917" y2="99.679"/><line class="cls-12" x1="72.566" y1="107.745" x2="140.917" y2="107.745"/><line class="cls-12" x1="72.566" y1="115.811" x2="140.917" y2="115.811"/><line class="cls-12" x1="72.566" y1="123.878" x2="140.917" y2="123.878"/></g></svg>