<svg xmlns="http://www.w3.org/2000/svg" viewBox="0 0 76 76"><defs><style>.cls-1{isolation:isolate;}.cls-2{fill:#e95653;}.cls-3{fill:none;}.cls-4{opacity:0.15;mix-blend-mode:multiply;}.cls-5{fill:#fff;}.cls-6{fill:#f9d2d1;}.cls-7{fill:#f08e8c;}.cls-8{fill:#e11e19;}</style></defs><g class="cls-1"><g id="Layer_1" data-name="Layer 1"><circle class="cls-2" cx="38" cy="38" r="37.46"/><path class="cls-3" d="M19.766,63.466a77.831,77.831,0,0,1-5.822-6.228,30.556,30.556,0,0,1,16.1-48.295,30.865,30.865,0,0,1,29.811,8.115q7.614,7.685,15.131,15.466A37.459,37.459,0,1,0,30.7,74.677l-4.616-4.732Z"/><path class="cls-4" d="M75.381,37.919a37.635,37.635,0,0,0-.393-5.395q-7.536-7.761-15.131-15.466A30.552,30.552,0,0,0,9.68,27.041a30.808,30.808,0,0,0,4.264,30.2,77.831,77.831,0,0,0,5.822,6.228l6.322,6.479L30.7,74.677A37.464,37.464,0,0,0,75.381,37.919Z"/><circle class="cls-5" cx="38.156" cy="38.3" r="30.561"/><path class="cls-6" d="M10.5,40.263A30.36,30.36,0,0,0,21.388,63.584,30.43,30.43,0,1,1,57.34,14.634,30.429,30.429,0,0,0,10.5,40.263Z"/><path class="cls-7" d="M38.156,16.727a.657.657,0,0,1-.657-.657V8.693a.657.657,0,1,1,1.314,0V16.07A.657.657,0,0,1,38.156,16.727Z"/><path class="cls-7" d="M38.507,68.265a.657.657,0,0,1-.657-.657V60.232a.658.658,0,0,1,1.315,0v7.376A.658.658,0,0,1,38.507,68.265Z"/><path class="cls-7" d="M15.6,40.011H8.222a.657.657,0,1,1,0-1.314H15.6a.657.657,0,1,1,0,1.314Z"/><path class="cls-7" d="M67.739,40.011H60.362a.657.657,0,0,1,0-1.314h7.377a.657.657,0,1,1,0,1.314Z"/><path class="cls-8" d="M38.157,43.173a.656.656,0,0,1-.53-.268L28.844,30.962a.658.658,0,0,1,1.06-.779L38.3,41.6,56.741,28.284a.657.657,0,0,1,.769,1.065l-18.969,13.7A.656.656,0,0,1,38.157,43.173Z"/></g></g></svg>