<svg id="elements" xmlns="http://www.w3.org/2000/svg" xmlns:xlink="http://www.w3.org/1999/xlink" viewBox="0 0 234.774 200"><defs><style>.cls-1,.cls-12{fill:none;}.cls-2{clip-path:url(#clip-path);}.cls-3{opacity:0.38;}.cls-4{fill:#dee3e8;}.cls-5{fill:#fff;opacity:0.43;}.cls-6{fill:#7cb892;}.cls-7{fill:#96a0a5;}.cls-8{fill:#f08e8c;}.cls-9{fill:#f2f2f4;}.cls-10{opacity:0.64;}.cls-11{fill:#e11e19;}.cls-12{stroke:#96a0a5;stroke-linecap:round;stroke-miterlimit:10;stroke-width:0.948px;}</style><clipPath id="clip-path"><rect class="cls-1" x="-0.514" y="-0.873" width="234.774" height="200"/></clipPath></defs><g class="cls-2"><g class="cls-3"><path class="cls-4" d="M44.77,23.452H226.2a0,0,0,0,1,0,0v97a20.859,20.859,0,0,1-20.859,20.859H44.77a0,0,0,0,1,0,0V23.452A0,0,0,0,1,44.77,23.452Z"/><polygon class="cls-5" points="44.423 108.371 44.77 23.452 163.922 23.314 44.423 108.371"/><path class="cls-6" d="M173.75,58.393a.8.8,0,0,1,.787-.808l-.018-.841a.793.793,0,1,1-.033-1.586l-.015-.839a.795.795,0,0,1-.028-1.589l-.018-.839A.794.794,0,1,1,174.4,50.3l-.016-.837a.8.8,0,0,1-.032-1.59l-.017-.84a.794.794,0,0,1-.027-1.588l-.016-.839a.794.794,0,1,1-.028-1.587l-.017-.839a.8.8,0,0,1-.811-.781.793.793,0,0,1,.782-.806l-.013-.842a.794.794,0,0,1-.035-1.587l-.013-.84a.793.793,0,1,1-.027-1.586l-.017-.725-.747.016a.793.793,0,0,1-1.586.029l-.84.015a.794.794,0,1,1-1.587.028l-.842.015a.792.792,0,1,1-1.583.03l-.839.016a.8.8,0,0,1-1.592.028l-.839.018a.793.793,0,0,1-1.586.028l-.84.016a.794.794,0,0,1-1.588.031l-.842.015a.794.794,0,1,1-1.587.027l-.839.017a.793.793,0,1,1-1.586.029L154,35.39l.013.724a.794.794,0,0,1,.032,1.587l.013.839a.794.794,0,1,1,.028,1.588l.02.84a.794.794,0,0,1,.029,1.587l.013.839a.794.794,0,0,1,.032,1.588l.013.84a.795.795,0,0,1,.031,1.589l.017.839a.794.794,0,0,1,.028,1.588l.016.839a.794.794,0,1,1,.027,1.588l.016.838a.794.794,0,0,1,.03,1.587l.018.84a.794.794,0,1,1,.027,1.587l.017.84a.8.8,0,0,1,.032,1.59l.015.965.8-.015a.783.783,0,0,1,.775-.808.794.794,0,0,1,.81.778l.838-.014a.794.794,0,1,1,1.587-.03l.837-.016a.8.8,0,0,1,1.591-.029l.839-.017a.794.794,0,1,1,1.588-.028l.84-.016a.794.794,0,0,1,1.587-.031l.841-.015a.792.792,0,0,1,.782-.807.8.8,0,0,1,.808.781l.837-.02a.793.793,0,0,1,1.586-.027l.839-.016a.793.793,0,1,1,1.586-.029l.747-.016-.018-.965A.8.8,0,0,1,173.75,58.393Z"/><polygon class="cls-7" points="150.473 25.826 161.087 25.836 163.922 23.314 153.309 23.307 150.473 25.826"/><polygon class="cls-7" points="196.507 23.344 193.671 25.864 204.282 25.875 207.123 23.354 196.507 23.344"/><polygon class="cls-7" points="64.075 25.749 74.69 25.759 77.526 23.238 66.912 23.227 64.075 25.749"/><polygon class="cls-7" points="107.274 25.788 117.886 25.799 120.723 23.277 110.11 23.268 107.274 25.788"/><polygon class="cls-7" points="143.443 138.522 132.683 138.488 129.795 141.353 140.56 141.389 143.443 138.522"/><polygon class="cls-7" points="99.643 138.383 88.881 138.351 85.997 141.215 96.76 141.249 99.643 138.383"/><path class="cls-7" d="M44.777,139.671a1.421,1.421,0,0,0,1.428,1.417l6.759.023,2.882-2.866-10.765-.035-.3.3Z"/><polygon class="cls-7" points="187.242 138.664 176.481 138.628 173.596 141.493 184.36 141.53 187.242 138.664"/><polygon class="cls-7" points="47.407 90.422 47.47 79.662 44.612 76.77 44.55 87.532 47.407 90.422"/><polygon class="cls-7" points="44.804 44.792 47.661 47.684 47.723 36.919 44.865 34.028 44.804 44.792"/><polygon class="cls-7" points="44.465 128.156 47.321 131.048 47.383 120.283 44.526 117.393 44.465 128.156"/><polygon class="cls-7" points="226.265 94.546 226.351 83.787 223.5 80.889 223.418 91.654 226.265 94.546"/><polygon class="cls-7" points="223.76 47.852 226.612 50.752 226.695 39.99 223.848 37.092 223.76 47.852"/><polygon class="cls-8" points="128.874 25.807 139.489 25.817 142.325 23.296 131.709 23.286 128.874 25.807"/><polygon class="cls-8" points="172.069 25.846 182.685 25.856 185.523 23.335 174.911 23.326 172.069 25.846"/><path class="cls-8" d="M44.773,24.451l0,1.281,8.321.009,2.834-2.521-9.742-.009A1.327,1.327,0,0,0,44.773,24.451Z"/><path class="cls-8" d="M226.178,24.612a1.328,1.328,0,0,0-1.405-1.242l-6.667-.005-2.838,2.52,10.615.008.3-.265Z"/><polygon class="cls-8" points="85.674 25.771 96.287 25.777 99.124 23.257 88.509 23.249 85.674 25.771"/><polygon class="cls-8" points="121.543 138.455 110.783 138.419 107.896 141.284 118.66 141.32 121.543 138.455"/><polygon class="cls-8" points="74.862 141.179 77.746 138.314 66.98 138.28 64.1 141.145 74.862 141.179"/><polygon class="cls-8" points="209.144 138.734 198.379 138.698 195.495 141.561 206.258 141.597 209.144 138.734"/><polygon class="cls-8" points="165.344 138.592 154.581 138.561 151.696 141.424 162.456 141.458 165.344 138.592"/><polygon class="cls-8" points="47.28 111.263 47.341 100.501 44.484 97.61 44.423 108.371 47.28 111.263"/><polygon class="cls-8" points="47.536 69.582 47.597 58.819 44.74 55.927 44.679 66.69 47.536 69.582"/><polygon class="cls-8" points="226.093 116.447 226.179 105.687 223.328 102.79 223.244 113.551 226.093 116.447"/><polygon class="cls-8" points="226.439 72.649 226.522 61.888 223.674 58.991 223.59 69.753 226.439 72.649"/><path class="cls-8" d="M220.366,56.844a.907.907,0,0,1-.941.876l-37.989-1.448a.91.91,0,0,1-.879-.94l.808-21.153a.912.912,0,0,1,.946-.874L220.3,34.753a.909.909,0,0,1,.874.942Z"/><polygon class="cls-9" points="220.438 54.951 180.633 53.436 180.645 53.127 220.448 54.643 220.438 54.951"/><path class="cls-7" d="M202.2,64.192a19.674,19.674,0,0,1-10.087-2.879c-5.77-3.556-11.711-4.019-17.175-1.331-5.289,2.6-11.991,2.078-17.5-1.35-3.608-2.25-5.386-2.73-8.589-2.958-.107-.007-.192-.477-.181-.6s.095-.362.2-.348c3.266.232,5.08.72,8.746,3.007,5.412,3.367,11.99,3.878,17.18,1.333,5.57-2.738,11.621-2.271,17.495,1.351a18.743,18.743,0,0,0,17.181,1.331,18.159,18.159,0,0,1,8.7-1.653c.109,0,.407.41.4.537s-.31.438-.421.415a17.9,17.9,0,0,0-8.543,1.624,17.559,17.559,0,0,1-7.409,1.524Z"/><path class="cls-7" d="M202.2,71.078A19.664,19.664,0,0,1,192.112,68.2c-5.77-3.556-11.711-4.018-17.175-1.331-5.289,2.6-11.991,2.078-17.5-1.349-3.608-2.251-5.386-2.731-8.589-2.959-.107-.007-.192-.477-.181-.6s.095-.362.2-.348c3.266.232,5.08.72,8.746,3.008,5.412,3.367,11.99,3.877,17.18,1.332,5.57-2.738,11.621-2.271,17.495,1.351a18.743,18.743,0,0,0,17.181,1.331,18.159,18.159,0,0,1,8.7-1.653c.109,0,.407.411.4.538s-.31.437-.421.415a17.877,17.877,0,0,0-8.543,1.624,17.558,17.558,0,0,1-7.409,1.523Z"/><path class="cls-7" d="M201.26,77.384a19.677,19.677,0,0,1-10.086-2.879C185.4,70.948,179.463,70.486,174,73.174c-5.29,2.6-11.991,2.078-17.5-1.35-3.608-2.251-5.386-2.73-8.59-2.959-.106-.006-.191-.477-.18-.6s.095-.363.2-.349c3.267.232,5.08.721,8.747,3.008,5.412,3.367,11.99,3.877,17.179,1.333,5.571-2.739,11.622-2.272,17.5,1.35a18.744,18.744,0,0,0,17.181,1.332,18.155,18.155,0,0,1,8.7-1.654c.109,0,.407.411.4.538s-.311.437-.421.415a17.886,17.886,0,0,0-8.543,1.624,17.578,17.578,0,0,1-7.41,1.524Z"/><path class="cls-7" d="M151.659,74.558a12.983,12.983,0,1,1,8.758-16.138,13,13,0,0,1-8.758,16.138Zm-7.141-24.1a12.152,12.152,0,1,0,15.1,8.2,12.167,12.167,0,0,0-15.1-8.2Z"/><path class="cls-7" d="M144.729,58.3a1.264,1.264,0,0,1-.921,1.757,1.294,1.294,0,0,1-1.734-.968l-.562-1.9.455-.136.564,1.912,1.185-2.428.449-.139Z"/><path class="cls-7" d="M146.028,59.322l-.4.12-.969-3.26,2.2-.58.4-.122.968,3.262-2.869-1.669Z"/><path class="cls-7" d="M150.442,54.54l1.926-.571-.675,3.673-.486.144L150.361,55Z"/><path class="cls-7" d="M141.182,59.637l.1.354c.045.149.123.392-.174.48a2.78,2.78,0,0,1-.419.067l.109.367a4.012,4.012,0,0,0,.5-.112c.606-.177.57-.5.474-.828l-.138-.463Z"/><polygon class="cls-7" points="141.316 58.395 141.002 57.337 140.542 57.475 140.856 58.531 141.316 58.395"/><path class="cls-7" d="M148.875,55.729l.242.813.459-.134-.442-1.481-.354.106a2.088,2.088,0,0,1-.364.768l.144.49A2.145,2.145,0,0,0,148.875,55.729Z"/><path class="cls-7" d="M146.1,61.683c.7-.206,1.38-.145,1.911,1.663.343,1.134.435,2.1-.692,2.437s-1.58-.53-1.913-1.664C144.874,62.313,145.409,61.89,146.1,61.683Z"/><path class="cls-7" d="M148.794,61.792a2.558,2.558,0,0,0,.443-.947l.438-.131,1.166,3.933-.562.167-.924-3.111a2.826,2.826,0,0,1-.385.692Z"/><polygon class="cls-7" points="153.174 62.722 152.504 62.921 153.112 60.918 153.435 62.003 153.998 61.836 153.345 59.627 152.983 59.735 151.903 63.282 151.998 63.609 153.325 63.217 153.174 62.722"/><path class="cls-7" d="M143.081,63.119a.642.642,0,0,1,.833.487c.154.509-.149,1.07-.653,2.214l.71-.209a3.448,3.448,0,0,0,.51-2.289A1.125,1.125,0,0,0,143,62.6a1.853,1.853,0,0,0-.939.659l.392.4A1.052,1.052,0,0,1,143.081,63.119Z"/><polygon class="cls-7" points="144.91 66.407 145.102 66.348 145.201 65.778 144.764 65.91 144.91 66.407"/></g><g class="cls-10"><path class="cls-4" d="M26.552,39.307H207.978a0,0,0,0,1,0,0v97a20.859,20.859,0,0,1-20.859,20.859H26.552a0,0,0,0,1,0,0V39.307A0,0,0,0,1,26.552,39.307Z"/><polygon class="cls-5" points="26.204 124.225 26.552 39.307 145.704 39.169 26.204 124.225"/><path class="cls-6" d="M155.531,74.247a.8.8,0,0,1,.787-.807L156.3,72.6a.793.793,0,1,1-.033-1.586l-.015-.839a.794.794,0,0,1-.027-1.588l-.019-.84a.794.794,0,0,1-.025-1.588l-.016-.837a.8.8,0,0,1-.032-1.59l-.017-.84a.794.794,0,0,1-.027-1.588l-.016-.838a.794.794,0,0,1-.028-1.587l-.017-.84a.8.8,0,0,1-.81-.781.791.791,0,0,1,.782-.8l-.013-.843a.793.793,0,0,1-.035-1.586l-.013-.841a.793.793,0,1,1-.028-1.586l-.016-.724-.747.015a.793.793,0,0,1-1.586.029l-.841.015a.794.794,0,1,1-1.587.028l-.841.015a.792.792,0,1,1-1.583.03l-.84.017a.8.8,0,0,1-1.592.027l-.838.018a.793.793,0,0,1-1.586.028l-.84.016a.795.795,0,0,1-1.589.031l-.841.015a.794.794,0,1,1-1.587.027l-.84.017a.793.793,0,1,1-1.585.03l-.8.015.012.724a.794.794,0,0,1,.032,1.587l.014.839a.794.794,0,1,1,.027,1.588l.021.84a.794.794,0,0,1,.028,1.588l.014.838a.794.794,0,0,1,.031,1.588l.014.841a.794.794,0,1,1,.03,1.588l.018.839a.794.794,0,0,1,.027,1.588l.016.84a.794.794,0,1,1,.028,1.587l.016.838a.794.794,0,0,1,.03,1.588l.018.839a.794.794,0,1,1,.026,1.587l.018.841a.795.795,0,0,1,.032,1.589l.014.965.8-.014a.785.785,0,0,1,.776-.809.8.8,0,0,1,.81.778l.838-.014a.793.793,0,1,1,1.586-.03l.838-.016a.8.8,0,0,1,1.59-.028l.84-.018a.794.794,0,1,1,1.588-.028l.84-.016a.794.794,0,0,1,1.587-.031l.84-.014a.793.793,0,0,1,.782-.808.8.8,0,0,1,.808.781l.837-.019a.793.793,0,0,1,1.586-.027l.839-.017a.793.793,0,1,1,1.586-.029l.747-.016-.018-.965A.8.8,0,0,1,155.531,74.247Z"/><polygon class="cls-7" points="132.255 41.68 142.868 41.69 145.704 39.169 135.091 39.161 132.255 41.68"/><polygon class="cls-7" points="178.288 39.199 175.453 41.718 186.064 41.729 188.904 39.208 178.288 39.199"/><polygon class="cls-7" points="45.856 41.603 56.471 41.614 59.308 39.092 48.693 39.082 45.856 41.603"/><polygon class="cls-7" points="89.056 41.642 99.667 41.653 102.505 39.131 91.891 39.122 89.056 41.642"/><polygon class="cls-7" points="125.225 154.377 114.465 154.342 111.577 157.207 122.342 157.243 125.225 154.377"/><polygon class="cls-7" points="81.425 154.237 70.662 154.206 67.779 157.07 78.541 157.104 81.425 154.237"/><path class="cls-7" d="M26.559,155.526a1.42,1.42,0,0,0,1.427,1.416l6.759.024,2.882-2.867-10.764-.034-.3.3Z"/><polygon class="cls-7" points="169.024 154.518 158.262 154.482 155.378 157.348 166.142 157.384 169.024 154.518"/><polygon class="cls-7" points="29.189 106.276 29.251 95.516 26.394 92.624 26.332 103.386 29.189 106.276"/><polygon class="cls-7" points="26.586 60.646 29.442 63.538 29.504 52.773 26.646 49.882 26.586 60.646"/><polygon class="cls-7" points="26.247 144.01 29.103 146.903 29.165 136.137 26.307 133.247 26.247 144.01"/><polygon class="cls-7" points="208.047 110.4 208.132 99.641 205.281 96.743 205.2 107.508 208.047 110.4"/><polygon class="cls-7" points="205.542 63.707 208.394 66.607 208.477 55.844 205.629 52.946 205.542 63.707"/><polygon class="cls-8" points="110.656 41.661 121.27 41.671 124.107 39.15 113.491 39.14 110.656 41.661"/><polygon class="cls-8" points="153.85 41.7 164.466 41.711 167.305 39.19 156.693 39.18 153.85 41.7"/><path class="cls-8" d="M26.555,40.305l0,1.281,8.321.009,2.834-2.521-9.741-.008A1.326,1.326,0,0,0,26.555,40.305Z"/><path class="cls-8" d="M207.96,40.466a1.33,1.33,0,0,0-1.406-1.242l-6.666,0L197.05,41.74l10.615.007.3-.264Z"/><polygon class="cls-8" points="67.456 41.625 78.068 41.632 80.905 39.111 70.29 39.104 67.456 41.625"/><polygon class="cls-8" points="103.324 154.31 92.564 154.274 89.677 157.138 100.442 157.175 103.324 154.31"/><polygon class="cls-8" points="56.643 157.033 59.527 154.168 48.762 154.135 45.881 156.999 56.643 157.033"/><polygon class="cls-8" points="190.925 154.589 180.161 154.552 177.277 157.415 188.04 157.452 190.925 154.589"/><polygon class="cls-8" points="147.125 154.446 136.363 154.415 133.477 157.278 144.237 157.313 147.125 154.446"/><polygon class="cls-8" points="29.061 127.117 29.122 116.355 26.265 113.464 26.204 124.225 29.061 127.117"/><polygon class="cls-8" points="29.318 85.436 29.378 74.673 26.521 71.782 26.46 82.544 29.318 85.436"/><polygon class="cls-8" points="207.875 132.301 207.96 121.541 205.11 118.644 205.025 129.406 207.875 132.301"/><polygon class="cls-8" points="208.221 88.503 208.304 77.742 205.456 74.846 205.371 85.607 208.221 88.503"/><path class="cls-8" d="M202.148,72.7a.907.907,0,0,1-.941.875l-37.989-1.448a.908.908,0,0,1-.879-.94l.807-21.153a.911.911,0,0,1,.947-.873l37.986,1.447a.91.91,0,0,1,.874.942Z"/><polygon class="cls-9" points="202.22 70.805 162.414 69.29 162.427 68.981 202.23 70.497 202.22 70.805"/><path class="cls-7" d="M183.98,80.046a19.658,19.658,0,0,1-10.086-2.879c-5.771-3.556-11.711-4.018-17.175-1.33-5.29,2.6-11.991,2.077-17.5-1.35-3.608-2.251-5.386-2.731-8.59-2.959-.106-.007-.191-.477-.18-.6s.095-.362.2-.348c3.267.232,5.08.72,8.747,3.008,5.412,3.367,11.99,3.877,17.179,1.333,5.571-2.739,11.622-2.272,17.5,1.35A18.743,18.743,0,0,0,191.251,77.6a18.166,18.166,0,0,1,8.7-1.653c.109,0,.407.411.4.538s-.31.437-.42.415a17.872,17.872,0,0,0-8.543,1.624,17.562,17.562,0,0,1-7.41,1.523Z"/><path class="cls-7" d="M183.98,86.933a19.677,19.677,0,0,1-10.086-2.879c-5.771-3.557-11.711-4.019-17.175-1.331-5.29,2.6-11.991,2.078-17.5-1.35-3.608-2.251-5.386-2.73-8.59-2.959-.106-.006-.191-.477-.18-.6s.095-.363.2-.349c3.267.232,5.08.721,8.747,3.008,5.412,3.367,11.99,3.877,17.179,1.333,5.571-2.739,11.622-2.272,17.5,1.35a18.744,18.744,0,0,0,17.181,1.332,18.155,18.155,0,0,1,8.7-1.654c.109,0,.407.411.4.538s-.31.437-.42.415a17.884,17.884,0,0,0-8.543,1.624,17.578,17.578,0,0,1-7.41,1.524Z"/><path class="cls-7" d="M183.042,93.238a19.684,19.684,0,0,1-10.087-2.879c-5.77-3.557-11.711-4.019-17.175-1.331-5.289,2.6-11.99,2.078-17.5-1.35-3.609-2.251-5.387-2.73-8.59-2.959-.107-.006-.192-.477-.18-.6s.095-.362.2-.349c3.266.232,5.08.721,8.746,3.008,5.412,3.367,11.991,3.877,17.18,1.333,5.57-2.738,11.621-2.272,17.5,1.35a18.741,18.741,0,0,0,17.181,1.332,18.152,18.152,0,0,1,8.7-1.654c.109,0,.406.411.4.538s-.31.437-.421.415a17.888,17.888,0,0,0-8.543,1.624,17.559,17.559,0,0,1-7.409,1.524Z"/><path class="cls-7" d="M133.441,90.412A12.983,12.983,0,1,1,142.2,74.274a13,13,0,0,1-8.757,16.138Zm-7.141-24.1a12.152,12.152,0,1,0,15.1,8.2,12.167,12.167,0,0,0-15.1-8.2Z"/><path class="cls-7" d="M126.51,74.151a1.263,1.263,0,0,1-.921,1.756,1.293,1.293,0,0,1-1.733-.968l-.562-1.9.455-.136.563,1.912,1.186-2.428.449-.139Z"/><path class="cls-7" d="M127.81,75.177l-.4.119-.969-3.26,2.2-.58.4-.122.968,3.262-2.868-1.669Z"/><path class="cls-7" d="M132.224,70.394l1.926-.571-.676,3.673-.486.145-.845-2.785Z"/><path class="cls-7" d="M122.964,75.492l.1.353c.044.149.123.392-.175.481a2.643,2.643,0,0,1-.419.066l.109.368a3.917,3.917,0,0,0,.506-.113c.605-.177.57-.5.473-.828l-.137-.463Z"/><polygon class="cls-7" points="123.098 74.249 122.783 73.191 122.323 73.329 122.638 74.385 123.098 74.249"/><path class="cls-7" d="M130.656,71.583l.243.813.458-.134-.442-1.481-.354.106a2.078,2.078,0,0,1-.363.768l.144.49A2.155,2.155,0,0,0,130.656,71.583Z"/><path class="cls-7" d="M127.884,77.537c.7-.206,1.38-.144,1.911,1.663.343,1.134.435,2.1-.692,2.437s-1.581-.53-1.914-1.663C126.656,78.167,127.19,77.744,127.884,77.537Z"/><path class="cls-7" d="M130.575,77.647a2.556,2.556,0,0,0,.444-.948l.438-.131,1.165,3.933-.562.167-.923-3.111a2.778,2.778,0,0,1-.386.692Z"/><polygon class="cls-7" points="134.956 78.576 134.285 78.775 134.893 76.772 135.216 77.857 135.78 77.69 135.126 75.481 134.765 75.589 133.685 79.137 133.779 79.463 135.107 79.071 134.956 78.576"/><path class="cls-7" d="M124.863,78.974a.641.641,0,0,1,.833.486c.154.509-.149,1.07-.654,2.214l.71-.209a3.44,3.44,0,0,0,.51-2.288,1.124,1.124,0,0,0-1.483-.721,1.843,1.843,0,0,0-.938.658l.392.4A1.045,1.045,0,0,1,124.863,78.974Z"/><polygon class="cls-7" points="126.691 82.261 126.884 82.203 126.983 81.633 126.545 81.764 126.691 82.261"/></g><path class="cls-4" d="M7.4,56.9H188.823a0,0,0,0,1,0,0v97a20.859,20.859,0,0,1-20.859,20.859H7.4a0,0,0,0,1,0,0V56.9A0,0,0,0,1,7.4,56.9Z"/><polygon class="cls-5" points="7.05 141.816 7.397 56.897 126.549 56.76 7.05 141.816"/><path class="cls-6" d="M136.377,91.838a.8.8,0,0,1,.787-.808l-.018-.841a.793.793,0,1,1-.033-1.586l-.015-.839a.795.795,0,0,1-.028-1.589l-.018-.839a.794.794,0,1,1-.025-1.588l-.016-.837a.8.8,0,0,1-.032-1.59l-.017-.84a.794.794,0,0,1-.028-1.588l-.015-.839a.793.793,0,1,1-.028-1.586l-.017-.84a.794.794,0,1,1-.029-1.587l-.013-.842a.794.794,0,0,1-.035-1.587l-.013-.84a.793.793,0,1,1-.027-1.586l-.017-.725-.747.016a.793.793,0,0,1-1.586.029l-.84.015a.794.794,0,1,1-1.587.028l-.842.015a.792.792,0,1,1-1.583.03l-.839.016a.8.8,0,0,1-1.592.028l-.839.018a.793.793,0,0,1-1.586.028l-.84.016a.794.794,0,0,1-1.588.031l-.842.015a.794.794,0,1,1-1.587.027L119,68.79a.793.793,0,0,1-1.586.03l-.8.015.013.724a.794.794,0,0,1,.032,1.587l.013.839a.794.794,0,1,1,.028,1.588l.02.84A.794.794,0,0,1,116.757,76l.013.838a.794.794,0,0,1,.032,1.588l.013.841a.794.794,0,1,1,.03,1.588l.018.839a.794.794,0,0,1,.028,1.588l.016.839a.794.794,0,1,1,.027,1.588l.016.838a.794.794,0,0,1,.03,1.587l.018.84a.794.794,0,0,1,.027,1.587l.017.84a.8.8,0,0,1,.032,1.59l.015.965.8-.015a.783.783,0,0,1,.775-.808.794.794,0,0,1,.81.778l.838-.014a.794.794,0,1,1,1.587-.03l.837-.016a.8.8,0,0,1,.783-.809.792.792,0,0,1,.807.78l.84-.017a.794.794,0,1,1,1.588-.028l.84-.016a.794.794,0,0,1,1.587-.031l.841-.015a.792.792,0,0,1,.782-.807.8.8,0,0,1,.808.781l.837-.02a.793.793,0,0,1,1.586-.027l.839-.016a.793.793,0,1,1,1.586-.029l.747-.016-.018-.965A.8.8,0,0,1,136.377,91.838Z"/><polygon class="cls-7" points="113.1 59.271 123.713 59.281 126.549 56.76 115.936 56.752 113.1 59.271"/><polygon class="cls-7" points="159.133 56.789 156.298 59.309 166.909 59.32 169.75 56.799 159.133 56.789"/><polygon class="cls-7" points="26.702 59.194 37.317 59.204 40.153 56.683 29.539 56.673 26.702 59.194"/><polygon class="cls-7" points="69.901 59.233 80.513 59.244 83.35 56.722 72.737 56.713 69.901 59.233"/><polygon class="cls-7" points="106.07 171.967 95.31 171.933 92.422 174.798 103.187 174.834 106.07 171.967"/><polygon class="cls-7" points="62.27 171.828 51.508 171.796 48.624 174.66 59.387 174.694 62.27 171.828"/><path class="cls-7" d="M7.4,173.116a1.421,1.421,0,0,0,1.428,1.417l6.759.024,2.882-2.867-10.765-.035-.3.3Z"/><polygon class="cls-7" points="149.869 172.109 139.108 172.073 136.223 174.939 146.987 174.975 149.869 172.109"/><polygon class="cls-7" points="10.034 123.867 10.097 113.107 7.239 110.215 7.177 120.977 10.034 123.867"/><polygon class="cls-7" points="7.431 78.237 10.287 81.129 10.349 70.364 7.492 67.473 7.431 78.237"/><polygon class="cls-7" points="7.092 161.601 9.948 164.493 10.01 153.728 7.153 150.838 7.092 161.601"/><polygon class="cls-7" points="188.892 127.991 188.978 117.232 186.127 114.334 186.045 125.099 188.892 127.991"/><polygon class="cls-7" points="186.387 81.297 189.239 84.197 189.322 73.435 186.475 70.537 186.387 81.297"/><polygon class="cls-11" points="91.501 59.252 102.116 59.262 104.952 56.741 94.336 56.731 91.501 59.252"/><polygon class="cls-11" points="134.696 59.291 145.312 59.301 148.15 56.78 137.538 56.771 134.696 59.291"/><path class="cls-11" d="M7.4,57.9l0,1.281,8.322.009,2.834-2.521-9.742-.008A1.326,1.326,0,0,0,7.4,57.9Z"/><path class="cls-11" d="M188.805,58.057a1.328,1.328,0,0,0-1.405-1.242l-6.667,0L177.9,59.33l10.615.008.3-.265Z"/><polygon class="cls-11" points="48.301 59.216 58.914 59.223 61.751 56.702 51.136 56.694 48.301 59.216"/><polygon class="cls-11" points="84.17 171.9 73.41 171.864 70.523 174.729 81.287 174.765 84.17 171.9"/><polygon class="cls-11" points="37.489 174.624 40.373 171.759 29.607 171.726 26.726 174.59 37.489 174.624"/><polygon class="cls-11" points="171.771 172.18 161.006 172.143 158.122 175.006 168.885 175.042 171.771 172.18"/><polygon class="cls-11" points="127.971 172.037 117.208 172.006 114.323 174.869 125.083 174.903 127.971 172.037"/><polygon class="cls-11" points="9.906 144.708 9.968 133.946 7.111 131.055 7.05 141.816 9.906 144.708"/><polygon class="cls-11" points="10.163 103.027 10.224 92.264 7.367 89.373 7.305 100.135 10.163 103.027"/><polygon class="cls-11" points="188.72 149.892 188.806 139.132 185.955 136.235 185.871 146.997 188.72 149.892"/><polygon class="cls-11" points="189.066 106.094 189.149 95.333 186.301 92.437 186.217 103.198 189.066 106.094"/><path class="cls-11" d="M182.993,90.289a.907.907,0,0,1-.941.876l-37.989-1.448a.91.91,0,0,1-.879-.94l.808-21.153a.912.912,0,0,1,.946-.874L182.924,68.2a.909.909,0,0,1,.874.942Z"/><polygon class="cls-9" points="183.065 88.396 143.259 86.881 143.272 86.572 183.075 88.088 183.065 88.396"/><path class="cls-7" d="M164.826,97.637a19.674,19.674,0,0,1-10.087-2.879c-5.77-3.556-11.711-4.018-17.175-1.331-5.289,2.6-11.991,2.078-17.5-1.35-3.608-2.25-5.386-2.73-8.589-2.958-.107-.007-.192-.477-.181-.6s.095-.362.2-.348c3.266.232,5.08.72,8.746,3.008,5.412,3.366,11.99,3.877,17.18,1.332,5.57-2.738,11.621-2.271,17.5,1.351A18.743,18.743,0,0,0,172.1,95.19a18.159,18.159,0,0,1,8.7-1.653c.109,0,.407.41.4.537s-.31.438-.421.415a17.889,17.889,0,0,0-8.543,1.625,17.573,17.573,0,0,1-7.409,1.523Z"/><path class="cls-7" d="M164.826,104.523a19.673,19.673,0,0,1-10.087-2.878c-5.77-3.557-11.711-4.019-17.175-1.331-5.289,2.6-11.991,2.077-17.5-1.35-3.608-2.251-5.386-2.73-8.589-2.959-.107-.006-.192-.477-.181-.6s.095-.362.2-.348c3.266.232,5.08.72,8.746,3.008,5.412,3.367,11.99,3.877,17.18,1.333,5.57-2.739,11.621-2.272,17.5,1.35a18.743,18.743,0,0,0,17.181,1.331,18.159,18.159,0,0,1,8.7-1.653c.109,0,.407.411.4.538s-.31.437-.421.415A17.877,17.877,0,0,0,172.235,103a17.558,17.558,0,0,1-7.409,1.523Z"/><path class="cls-7" d="M163.887,110.829A19.677,19.677,0,0,1,153.8,107.95c-5.771-3.557-11.711-4.019-17.175-1.331-5.29,2.6-11.991,2.078-17.5-1.35-3.608-2.251-5.386-2.73-8.59-2.959-.106-.006-.191-.477-.18-.6s.095-.363.2-.349c3.267.232,5.08.721,8.747,3.008,5.412,3.367,11.99,3.877,17.179,1.333,5.57-2.739,11.622-2.272,17.5,1.35a18.744,18.744,0,0,0,17.181,1.332,18.155,18.155,0,0,1,8.7-1.654c.109,0,.407.411.4.538s-.31.437-.42.415a17.884,17.884,0,0,0-8.543,1.624,17.578,17.578,0,0,1-7.41,1.524Z"/><path class="cls-7" d="M114.286,108a12.982,12.982,0,1,1,8.758-16.138A13,13,0,0,1,114.286,108Zm-7.141-24.1a12.152,12.152,0,1,0,15.1,8.2,12.169,12.169,0,0,0-15.1-8.2Z"/><path class="cls-7" d="M107.356,91.741a1.264,1.264,0,0,1-.921,1.757,1.294,1.294,0,0,1-1.734-.968l-.562-1.9.455-.136.564,1.912,1.185-2.428.449-.139Z"/><path class="cls-7" d="M108.655,92.767l-.4.12-.969-3.26,2.2-.58.4-.122.968,3.262-2.869-1.669Z"/><path class="cls-7" d="M113.069,87.985,115,87.414l-.675,3.673-.486.144-.846-2.784Z"/><path class="cls-7" d="M103.809,93.082l.1.354c.045.149.123.392-.174.48a2.678,2.678,0,0,1-.419.067l.109.367a4.012,4.012,0,0,0,.5-.112c.606-.177.57-.5.474-.828l-.138-.463Z"/><polygon class="cls-7" points="103.943 91.84 103.629 90.782 103.169 90.92 103.483 91.976 103.943 91.84"/><path class="cls-7" d="M111.5,89.174l.242.813.459-.134-.442-1.481-.354.106a2.088,2.088,0,0,1-.364.768l.144.49A2.145,2.145,0,0,0,111.5,89.174Z"/><path class="cls-7" d="M108.729,95.128c.7-.206,1.38-.144,1.911,1.663.343,1.134.435,2.1-.692,2.437s-1.58-.53-1.913-1.664C107.5,95.758,108.036,95.335,108.729,95.128Z"/><path class="cls-7" d="M111.421,95.237a2.558,2.558,0,0,0,.443-.947l.438-.131,1.166,3.933-.562.167-.924-3.111a2.807,2.807,0,0,1-.385.692Z"/><polygon class="cls-7" points="115.801 96.167 115.13 96.366 115.738 94.363 116.062 95.448 116.625 95.281 115.972 93.072 115.61 93.18 114.53 96.727 114.624 97.054 115.952 96.662 115.801 96.167"/><path class="cls-7" d="M105.708,96.565a.64.64,0,0,1,.833.486c.154.509-.149,1.07-.653,2.214l.71-.209a3.448,3.448,0,0,0,.51-2.289,1.124,1.124,0,0,0-1.483-.72,1.845,1.845,0,0,0-.939.658l.392.4A1.045,1.045,0,0,1,105.708,96.565Z"/><polygon class="cls-7" points="107.537 99.852 107.729 99.794 107.828 99.224 107.391 99.355 107.537 99.852"/><line class="cls-12" x1="72.064" y1="122.935" x2="136.861" y2="122.935"/><line class="cls-12" x1="72.064" y1="130.582" x2="136.861" y2="130.582"/><line class="cls-12" x1="72.064" y1="138.229" x2="136.861" y2="138.229"/><line class="cls-12" x1="72.064" y1="145.876" x2="136.861" y2="145.876"/></g></svg>