<svg xmlns="http://www.w3.org/2000/svg" xmlns:xlink="http://www.w3.org/1999/xlink" viewBox="0 0 150 150"><defs><style>.cls-1{fill:#f6f7fa;}.cls-2{fill:#dee3e8;}.cls-3{fill:#dbe2e8;}.cls-4{fill:#7cb892;}.cls-5{fill:#f9d2d1;}.cls-6,.cls-8{fill:#fff;}.cls-7{clip-path:url(#clip-path);}.cls-8{opacity:0.43;}.cls-9{fill:#f99;}.cls-10{clip-path:url(#clip-path-2);}.cls-11{fill:#b0b8bc;}.cls-12{fill:#ff8282;}.cls-13{clip-path:url(#clip-path-3);}.cls-14{fill:none;}</style><clipPath id="clip-path"><path class="cls-1" d="M99.605,85.888c1.889,8.84-6.863,25.871-13.489,27.287L37.142,123.644,16.222,25.777,83.674,11.359,99.616,85.942Z"/></clipPath><clipPath id="clip-path-2"><path class="cls-2" d="M106.525,94.319c1.89,8.84-6.863,25.87-13.488,27.287L44.062,132.074,23.142,34.208,90.594,19.789l15.943,74.583Z"/></clipPath><clipPath id="clip-path-3"><path class="cls-3" d="M112.839,100.2c1.89,8.84-6.863,25.87-13.488,27.287L50.376,137.957,29.456,40.091,96.908,25.672l15.943,74.583Z"/></clipPath></defs><title>160-formate</title><g id="Layer_2" data-name="Layer 2"><g id="Layer_1-2" data-name="Layer 1"><path class="cls-4" d="M140.472,50.923v3.223a1.087,1.087,0,0,1-1.088,1.088H126.936V68.151a1.087,1.087,0,0,1-1.088,1.088h-4.112a1.087,1.087,0,0,1-1.088-1.088V55.234h-12.77a1.087,1.087,0,0,1-1.089-1.088V50.923a1.087,1.087,0,0,1,1.089-1.088h12.579V36.644a1.087,1.087,0,0,1,1.088-1.088h4.042a1.086,1.086,0,0,1,1.088,1.088V49.835h12.709A1.087,1.087,0,0,1,140.472,50.923Z"/><rect class="cls-5" x="2.193" y="31.341" width="18.397" height="9.512" rx="1" transform="translate(-7.15 3.098) rotate(-11.816)"/><path class="cls-6" d="M7.3,35.39l-1.354.282.842,4.05L6,39.885l-.842-4.05-1.35.281-.138-.664,3.487-.725Z"/><path class="cls-6" d="M9.629,39.13l-.8.167-.981-4.713.8-.168Z"/><path class="cls-6" d="M12.49,34.309l-1.762.367.295,1.417,1.624-.338.137.661-1.624.338.411,1.972-.782.162-.98-4.713,2.543-.529Z"/><path class="cls-6" d="M15.873,33.606l-1.762.366.294,1.417,1.624-.337.138.66-1.624.338.41,1.972-.782.163-.98-4.714,2.544-.528Z"/><path class="cls-3" d="M98.1,84.572c1.89,8.84-6.863,25.871-13.488,27.287L35.634,122.328,14.714,24.461,82.166,10.043,98.109,84.626Z"/><path class="cls-1" d="M99.605,85.888c1.889,8.84-6.863,25.871-13.489,27.287L37.142,123.644,16.222,25.777,83.674,11.359,99.616,85.942Z"/><g class="cls-7"><polygon class="cls-8" points="29.256 100.76 12.144 24.912 81.962 8.523 29.256 100.76"/></g><path class="cls-3" d="M105,93.161c1.89,8.84-6.863,25.871-13.489,27.287L42.535,130.917,21.615,33.05,89.067,18.632l15.942,74.583Z"/><rect class="cls-9" x="9.467" y="40.855" width="18.397" height="9.512" rx="1" transform="translate(-8.944 4.788) rotate(-11.816)"/><path class="cls-6" d="M14.253,47.383a1.938,1.938,0,0,1-.143,1.389,1.429,1.429,0,0,1-1.008.694,1.585,1.585,0,0,1-.545.035l-.153-.736a.862.862,0,0,0,.51.027q.783-.163.531-1.372l-.6-2.9.782-.162Z"/><path class="cls-6" d="M16.148,46.968l.356,1.709-.779.162-.98-4.713,1.429-.3a1.928,1.928,0,0,1,1.338.117,1.347,1.347,0,0,1,.668.971,1.5,1.5,0,0,1-.233,1.221,1.814,1.814,0,0,1-1.172.7Zm-.49-2.36.358,1.723.506-.105a1.141,1.141,0,0,0,.717-.394.855.855,0,0,0,.126-.713q-.172-.829-1.139-.629Z"/><path class="cls-6" d="M23.266,46.934a3.453,3.453,0,0,1-1.557.742,2.333,2.333,0,0,1-1.827-.3,2.383,2.383,0,0,1-1.006-1.587,2.476,2.476,0,0,1,.334-1.944,2.506,2.506,0,0,1,1.654-1.075,3.423,3.423,0,0,1,1.369-.045l.168.8a2.321,2.321,0,0,0-1.367-.092,1.675,1.675,0,0,0-1.131.752,1.809,1.809,0,0,0-.214,1.385,1.888,1.888,0,0,0,.679,1.191A1.461,1.461,0,0,0,21.589,47a1.8,1.8,0,0,0,.8-.362l-.233-1.121-.992.206-.136-.657L22.8,44.7Z"/><path class="cls-2" d="M106.525,94.319c1.89,8.84-6.863,25.87-13.488,27.287L44.062,132.074,23.142,34.208,90.594,19.789l15.943,74.583Z"/><g class="cls-10"><polygon class="cls-8" points="36.176 109.19 19.064 33.342 88.882 16.953 36.176 109.19"/></g><path class="cls-11" d="M110.792,99.168c1.89,8.84-6.863,25.87-13.488,27.287L48.329,136.923,27.409,39.057,94.861,24.638,110.8,99.221Z"/><rect class="cls-12" x="16.926" y="50.13" width="18.397" height="9.512" rx="1" transform="translate(-10.685 6.512) rotate(-11.816)"/><path class="cls-6" d="M20.332,57.048l.355,1.709-.779.163-.98-4.714,1.43-.3a1.932,1.932,0,0,1,1.337.116,1.348,1.348,0,0,1,.668.972,1.5,1.5,0,0,1-.233,1.221,1.81,1.81,0,0,1-1.171.7Zm-.491-2.359.358,1.723.506-.106a1.141,1.141,0,0,0,.717-.393.849.849,0,0,0,.126-.713q-.172-.831-1.139-.629Z"/><path class="cls-6" d="M23.842,58.1l-.98-4.713,1.361-.283q2.606-.543,3.084,1.755a2.315,2.315,0,0,1-.359,1.9,2.818,2.818,0,0,1-1.8,1.066Zm-.063-4.212.705,3.388.624-.129a1.783,1.783,0,0,0,1.189-.72,1.756,1.756,0,0,0,.192-1.376,1.52,1.52,0,0,0-2.056-1.3Z"/><path class="cls-6" d="M30.371,52.518l-1.762.366L28.9,54.3l1.624-.337.138.66-1.624.338.41,1.972-.782.163-.98-4.713,2.544-.529Z"/><path class="cls-3" d="M112.839,100.2c1.89,8.84-6.863,25.87-13.488,27.287L50.376,137.957,29.456,40.091,96.908,25.672l15.943,74.583Z"/><g class="cls-13"><polygon class="cls-8" points="42.49 115.073 25.378 39.225 95.196 22.836 42.49 115.073"/></g><rect class="cls-14" width="150" height="150"/></g></g></svg>