<svg xmlns="http://www.w3.org/2000/svg" xmlns:xlink="http://www.w3.org/1999/xlink" viewBox="0 0 76 76"><defs><clipPath id="a"><rect width="76" height="76" style="fill:none"/></clipPath></defs><g style="clip-path:url(#a)"><path d="M29.58,2.22c-14.35,0-26,8.48-26,19C3.6,26.32,6.42,31,11,34.41l2.33,15.14,12.06-9.67a36,36,0,0,0,4.2.25c14.35,0,26-8.49,26-19S43.93,2.22,29.58,2.22Z" style="fill:#a4c9e7"/><path d="M64.86,25.36V56.58h-31a6,6,0,0,1-6-6V25.36Z" style="fill:#fc0"/><path d="M39.85,50.55a6,6,0,0,1-6,6h31a6,6,0,0,0,6-6Z" style="fill:#f6a71c"/><path d="M64.86,25.36H27.79V20.63a1.74,1.74,0,0,1,1.74-1.74H63.12a1.74,1.74,0,0,1,1.74,1.74Z" style="fill:#f6a71c"/><rect x="43.59" y="15.66" width="5.48" height="6.46" style="fill:#1c77c3"/><rect x="33.73" y="35.13" width="25.19" height="1.89" style="fill:#0e3c62"/><rect x="33.73" y="38.9" width="25.19" height="1.89" style="fill:#0e3c62"/><rect x="33.73" y="42.67" width="25.19" height="1.89" style="fill:#0e3c62"/><rect x="33.73" y="31.35" width="12.6" height="1.89" style="fill:#0e3c62"/><path d="M5.48,70.69a3.55,3.55,0,0,0,1.18,3.79c1,.78,2.63.31,3.77-.09a14.41,14.41,0,0,0,5.62-4c2.9-3.09,5.8-7.92,10.69-7.64,1.59.1,2.42,1.67,3.52,2.64a12,12,0,0,0,7.22,2.92c2.68.16,5.12-.86,7.56-1.8a15.62,15.62,0,0,1,8.4-1.11c6.79,1.15,12.37,5.88,18.89,7.87,1.85.56,2.64-2.33.8-2.89-5.57-1.7-10.34-5.25-15.85-7.09a19.05,19.05,0,0,0-8.37-.94c-2.61.33-4.9,1.45-7.36,2.3a9.5,9.5,0,0,1-7.38-.22c-1.7-.79-2.65-2.25-4.06-3.41-3.48-2.87-8.72-.49-11.57,2.17-3.28,3.05-5.86,8.26-10.82,8.69l1.06.44c-.37-.3-.51-.39-.41-.87.41-1.89-2.49-2.69-2.89-.8Z" style="fill:#e11e19"/></g></svg>