<svg xmlns="http://www.w3.org/2000/svg" xmlns:xlink="http://www.w3.org/1999/xlink" viewBox="0 0 76 76"><defs><clipPath id="a"><rect width="76" height="76" style="fill:none"/></clipPath></defs><g style="clip-path:url(#a)"><path d="M66.36,32.39v-9.3h-9.3l-6.51-6.51L44,23.09h-9.3v9.3l-6.51,6.52,6.51,6.51v9.3H44l6.52,6.52,6.51-6.52h9.3v-9.3l6.52-6.51Zm-1.3,11.73-.56.56v8.18H56.32l-.56.56-5.21,5.21V46.91a9,9,0,0,0,5.58-2.42,7.77,7.77,0,0,0,0-11.17,7.92,7.92,0,0,0-5.58-2.23V46.72A7.88,7.88,0,0,1,45,44.49a7.77,7.77,0,0,1,0-11.17,7.93,7.93,0,0,1,5.59-2.23V19.18l5.21,5.21.56.56H64.5v8.19l.56.56,5.21,5.21Z" style="fill:#b6d4ec"/><path d="M50.19,63.74l9.09,10.87c.57.69,2.3.2,3.85-1.1s2.35-2.91,1.77-3.6L55.82,59C55.25,58.35,49.62,63.05,50.19,63.74Z" style="fill:#d6e6f2;fill-rule:evenodd"/><path d="M28.47,32c-1.56,1.3-2.35,2.91-1.78,3.6L50.45,64.05c.58.69,2.3.19,3.86-1.1s2.35-2.91,1.77-3.6L32.32,30.91C31.75,30.22,30,30.71,28.47,32Z" style="fill:#0e3c62;fill-rule:evenodd"/><path d="M19.18,20.89c-1.56,1.3-2.35,2.91-1.78,3.6l9.09,10.87c.57.69,2.3.2,3.85-1.1s2.35-2.91,1.78-3.6L23,19.79C22.46,19.1,20.73,19.6,19.18,20.89Z" style="fill:#d6e6f2;fill-rule:evenodd"/><polygon points="10.54 35.44 9.09 31.79 5.3 30.73 8.95 29.27 10.01 25.49 11.47 29.14 15.25 30.2 11.61 31.65 10.54 35.44" style="fill:#fc0;fill-rule:evenodd"/><polygon points="36.53 16.67 34.95 12.71 30.84 11.56 34.8 9.98 35.95 5.87 37.54 9.83 41.65 10.98 37.68 12.56 36.53 16.67" style="fill:#fc0;fill-rule:evenodd"/><polygon points="10.67 15.24 8.54 9.91 3.01 8.37 8.34 6.23 9.89 0.71 12.02 6.04 17.55 7.59 12.22 9.72 10.67 15.24" style="fill:#fc0;fill-rule:evenodd"/></g></svg>