<svg xmlns="http://www.w3.org/2000/svg" xmlns:xlink="http://www.w3.org/1999/xlink" viewBox="0 0 76 76"><defs><clipPath id="a"><rect x="0.26" y="1.01" width="76" height="76" style="fill:none"/></clipPath></defs><g style="clip-path:url(#a)"><path d="M62.34,11.15h5.37a5.37,5.37,0,0,0-5.37-5.37H19.39A5.37,5.37,0,0,0,14,11.15Z" style="fill:#869cb3"/><path d="M62.34,54.11H14a5.37,5.37,0,0,0,5.37,5.37H54.5V70.22H67.71V54.11Z" style="fill:#869cb3"/><path d="M33.35,48.85c-5.27,0-13.06-.06-18.33-.48a198.1,198.1,0,0,0,0-31.76,198.1,198.1,0,0,1,31.76,0c-1.32,5.47.1,14.87.1,20.14C47,45.41,40.47,49,33.35,48.85Z" style="fill:#a4c9e7"/><rect x="19.82" y="25.21" width="22.07" height="1.99" rx="0.7" style="fill:#0e3c62"/><rect x="19.82" y="29.77" width="22.07" height="1.99" rx="0.7" style="fill:#0e3c62"/><rect x="19.82" y="21.37" width="22.07" height="1.99" rx="0.7" style="fill:#0e3c62"/><rect x="58.84" y="11.26" width="6.41" height="42.58" style="fill:#4d6278"/><path d="M58.76,21a.77.77,0,0,1-.7-.55,1.05,1.05,0,0,1,.37-1.26l6.87-4a.72.72,0,0,1,1,.46A1.07,1.07,0,0,1,66,16.92l-6.87,4A.68.68,0,0,1,58.76,21Z" style="fill:#dfe7f0"/><path d="M58.76,27.19a.79.79,0,0,1-.7-.55,1.07,1.07,0,0,1,.37-1.27l6.87-4a.71.71,0,0,1,1,.46A1.06,1.06,0,0,1,66,23.11l-6.87,4A.68.68,0,0,1,58.76,27.19Z" style="fill:#dfe7f0"/><path d="M58.76,33.09a.79.79,0,0,1-.7-.55,1.07,1.07,0,0,1,.37-1.27l6.87-4a.71.71,0,0,1,1,.46A1.06,1.06,0,0,1,66,29l-6.87,4A.68.68,0,0,1,58.76,33.09Z" style="fill:#dfe7f0"/><path d="M58.76,38.42a.77.77,0,0,1-.7-.55,1.06,1.06,0,0,1,.37-1.26l6.87-4a.72.72,0,0,1,1,.46A1.07,1.07,0,0,1,66,34.35l-6.87,4A.68.68,0,0,1,58.76,38.42Z" style="fill:#dfe7f0"/><path d="M58.76,44.15a.77.77,0,0,1-.7-.55,1.05,1.05,0,0,1,.37-1.26l6.87-4a.71.71,0,0,1,1,.46A1.05,1.05,0,0,1,66,40.07l-6.87,4A.68.68,0,0,1,58.76,44.15Z" style="fill:#dfe7f0"/><path d="M58.76,50.23a.77.77,0,0,1-.7-.55,1.06,1.06,0,0,1,.37-1.26l6.87-4a.72.72,0,0,1,1,.46A1.07,1.07,0,0,1,66,46.16l-6.87,4A.68.68,0,0,1,58.76,50.23Z" style="fill:#dfe7f0"/><polygon points="12.7 48.81 9.76 51.85 8.67 49.84 12.7 48.81" style="fill:#e11e19"/><polygon points="45.74 47.95 48.69 50.99 49.77 48.98 45.74 47.95" style="fill:#e11e19"/><polygon points="11.92 16.42 9.26 13.68 8.29 15.49 11.92 16.42" style="fill:#e11e19"/><polygon points="48.02 16.28 50.68 13.54 51.66 15.35 48.02 16.28" style="fill:#e11e19"/><rect x="19.82" y="36.05" width="22.07" height="6.12" style="fill:#155992"/></g></svg>