<svg xmlns="http://www.w3.org/2000/svg" xmlns:xlink="http://www.w3.org/1999/xlink" viewBox="0 0 76 76"><defs><clipPath id="a"><rect width="76" height="76" style="fill:none"/></clipPath></defs><g style="clip-path:url(#a)"><path d="M33.4,1.9,6.66,14.36V37.27A39.81,39.81,0,0,0,33.4,74.86,39.81,39.81,0,0,0,60.15,37.27V14.36Z" style="fill:#1c77c3"/><path d="M33.4,7.53V69.4A34.7,34.7,0,0,0,55.05,37.27V17.61Z" style="fill:#e9f5ff"/><path d="M11.76,17.61V37.27A34.71,34.71,0,0,0,33.4,69.4V7.53Z" style="fill:#d1deeb"/><path d="M46.9,37.74a13.5,13.5,0,1,1-13.49-13.5A13.49,13.49,0,0,1,46.9,37.74Z" style="fill:#04b8b5"/><polygon points="30.93 44.67 24.99 38.73 26.97 36.75 30.93 40.71 39.84 31.8 41.83 33.78 30.93 44.67" style="fill:#fff"/><circle cx="59.07" cy="16.46" r="13.68" style="fill:#fc0"/><rect x="50.92" y="6.36" width="17.55" height="17.55" style="fill:#fff;opacity:0"/><path d="M65.12,20.58a.8.8,0,0,0-.81-.8H55.08a.81.81,0,0,0,0,1.61h9.23a.81.81,0,0,0,.81-.81Zm0,0" style="fill:#0e3c62"/><path d="M53.46,14.06h0l1.28,4.62h9.83l1.28-4.62h0a1,1,0,1,0-1-1,.93.93,0,0,0,0,.29l-2.31,1.35-2.48-4.12a1,1,0,1,0-1.49-.79.94.94,0,0,0,.43.79l-2.48,4.12L54.38,13.4a.92.92,0,0,0,0-.29,1,1,0,1,0-1,1Zm0,0" style="fill:#0e3c62"/></g></svg>