<svg xmlns="http://www.w3.org/2000/svg" xmlns:xlink="http://www.w3.org/1999/xlink" viewBox="0 0 76 76"><defs><clipPath id="a"><rect width="76" height="76" style="fill:none"/></clipPath></defs><g style="clip-path:url(#a)"><path d="M2,71.78a2.67,2.67,0,0,0,2.71,2.64l26.22-.32a2.69,2.69,0,0,0,2.65-2.71l-.45-36.12a2.69,2.69,0,0,0-2.71-2.65l-19.61.25-9.17,9.4Z" style="fill:#a4c9e7"/><path d="M31,74.74l-26.22.32a3.32,3.32,0,0,1-3.36-3.27L1,42.28a.61.61,0,0,1,.18-.46l9.17-9.4a.72.72,0,0,1,.46-.2L30.42,32a3.32,3.32,0,0,1,3.36,3.28l.45,36.12A3.32,3.32,0,0,1,31,74.74ZM2.29,42.53l.36,29.24a2,2,0,0,0,2.06,2l26.22-.32a2,2,0,0,0,2-2.06L32.5,35.27a2,2,0,0,0-2.06-2L11.1,33.5Z" style="fill:#a4c9e7"/><rect x="18.19" y="64" width="17.33" height="5.78" rx="0.96" transform="translate(-0.82 0.34) rotate(-0.71)" style="fill:#fc0"/><path d="M21.77,65.15a5.88,5.88,0,0,1,1-.08,1.54,1.54,0,0,1,1.09.31,1,1,0,0,1,.35.81,1.08,1.08,0,0,1-.29.83,1.61,1.61,0,0,1-1.18.45,2.54,2.54,0,0,1-.41,0l0,1.56h-.5ZM22.3,67a2.42,2.42,0,0,0,.42,0c.6,0,1-.31,1-.84s-.37-.76-.93-.75a2.3,2.3,0,0,0-.47,0Z" style="fill:#fff"/><path d="M24.9,69l0-3.89h.55l1.27,2a12,12,0,0,1,.71,1.25h0a15.85,15.85,0,0,1-.07-1.6l0-1.63h.47l.05,3.9h-.51l-1.26-2a11.45,11.45,0,0,1-.74-1.29h0c0,.49.05,1,.06,1.6l0,1.67Z" style="fill:#fff"/><path d="M31.66,68.71a3.8,3.8,0,0,1-1.19.23,1.83,1.83,0,0,1-2-1.94,2,2,0,0,1,2.09-2,2.29,2.29,0,0,1,1,.17l-.12.41a2.08,2.08,0,0,0-.86-.16A1.45,1.45,0,0,0,29,67a1.43,1.43,0,0,0,1.52,1.55,1.77,1.77,0,0,0,.67-.11l0-1.16h-.79v-.41h1.29Z" style="fill:#fff"/><path d="M28.7,60.85l-20.88.26a.65.65,0,0,1-.65-.64L7,43.24a.64.64,0,1,1,1.28,0l.16,16.6L28,59.58l-.21-17.43-17.57.2a.65.65,0,0,1,0-1.29l18.2-.2a.63.63,0,0,1,.65.63l.23,18.71A.63.63,0,0,1,28.7,60.85Z" style="fill:#0e3c62"/><path d="M8.12,61.1a.57.57,0,0,1-.45-.18.63.63,0,0,1,0-.9L15,52.45a.67.67,0,0,1,.91,0l7.23,7.05a.64.64,0,1,1-.9.92l-6.77-6.6-6.93,7.1A.6.6,0,0,1,8.12,61.1Z" style="fill:#0e3c62"/><path d="M18.91,56.87a.64.64,0,0,1-.45-.18.64.64,0,0,1,0-.91l9.27-9.5a.64.64,0,1,1,.91.89l-9.27,9.5A.61.61,0,0,1,18.91,56.87Z" style="fill:#0e3c62"/><path d="M18.84,50.81a3.14,3.14,0,1,1,3.1-3.18A3.14,3.14,0,0,1,18.84,50.81Zm-.06-5a1.86,1.86,0,1,0,1.88,1.84A1.86,1.86,0,0,0,18.78,45.81Z" style="fill:#0e3c62"/><path d="M1.65,42.27l6.61-.08a2.67,2.67,0,0,0,2.64-2.71l-.08-6.61Z" style="fill:#fc0"/><path d="M8.27,42.83l-6.61.08a.64.64,0,0,1-.47-1.09l9.17-9.4a.64.64,0,0,1,1.1.44l.09,6.61A3.32,3.32,0,0,1,8.27,42.83ZM3.19,41.61l5.06-.06a2,2,0,0,0,2-2.06l-.06-5.07Z" style="fill:#fc0"/><path d="M40.09,43.45A2.88,2.88,0,0,0,43,46.35l28.29.11a2.89,2.89,0,0,0,2.9-2.88l.15-39a2.88,2.88,0,0,0-2.87-2.9L50.27,1.63l-10.06,10Z" style="fill:#a4c9e7"/><path d="M71.25,47.15,43,47a3.58,3.58,0,0,1-3.56-3.59l.12-31.84a.7.7,0,0,1,.2-.49l10.06-10a.7.7,0,0,1,.49-.2L71.43,1A3.58,3.58,0,0,1,75,4.61l-.15,39A3.57,3.57,0,0,1,71.25,47.15ZM40.9,11.9l-.12,31.55A2.2,2.2,0,0,0,43,45.66l28.29.11a2.2,2.2,0,0,0,2.2-2.19l.15-39A2.21,2.21,0,0,0,71.42,2.4L50.55,2.32Z" style="fill:#a4c9e7"/><path d="M40.21,11.61l7.13,0a2.88,2.88,0,0,0,2.9-2.87l0-7.14Z" style="fill:#04b8b5"/><path d="M47.34,12.33l-7.13,0a.7.7,0,0,1-.49-1.19l10.06-10A.69.69,0,0,1,51,1.63l0,7.14A3.57,3.57,0,0,1,47.34,12.33Zm-5.46-1.4,5.47,0a2.19,2.19,0,0,0,2.2-2.19l0-5.46Z" style="fill:#04b8b5"/><path d="M67.86,32.45l-20.41-.08a.69.69,0,0,1-.69-.69l.05-13.08a.69.69,0,1,1,1.38,0l0,12.39,19,.07.06-16.91L51.6,14.09a.69.69,0,1,1,0-1.38l16.34.06a.69.69,0,0,1,.69.69l-.07,18.3A.71.71,0,0,1,67.86,32.45Z" style="fill:#155992"/><path d="M51.3,32.38a.69.69,0,0,1-.69-.69l.07-18.29a.7.7,0,0,1,.7-.69.69.69,0,0,1,.69.69L52,31.7A.68.68,0,0,1,51.3,32.38Z" style="fill:#155992"/><path d="M67.91,19.08,47.5,19a.69.69,0,0,1-.69-.7.68.68,0,0,1,.7-.68l20.41.07a.71.71,0,0,1,.69.7A.69.69,0,0,1,67.91,19.08Z" style="fill:#155992"/><path d="M67.89,25.83l-20.42-.08a.68.68,0,0,1-.68-.69.69.69,0,0,1,.69-.69l20.41.08a.69.69,0,0,1,0,1.38Z" style="fill:#155992"/><rect x="61.64" y="28.8" width="6.51" height="19.53" rx="1.09" transform="translate(26.08 103.31) rotate(-89.78)" style="fill:#04b8b5"/><path d="M62.56,40.86l-.56-1c-.22-.37-.36-.61-.5-.87h0c-.13.26-.25.49-.48.87l-.53,1h-.65l1.35-2.21-1.29-2.17h.66l.58,1,.4.74h0a6.84,6.84,0,0,1,.4-.74l.6-1h.65l-1.34,2.13,1.36,2.26Z" style="fill:#fff"/><path d="M63.89,36.48h.57V40.4h1.87v.48H63.88Z" style="fill:#fff"/><path d="M66.88,40.19a1.94,1.94,0,0,0,1,.29c.58,0,.92-.3.92-.74s-.23-.65-.82-.88-1.16-.63-1.16-1.25a1.26,1.26,0,0,1,1.43-1.18,1.9,1.9,0,0,1,1,.22l-.16.46a1.82,1.82,0,0,0-.83-.22c-.6,0-.83.36-.83.66s.26.61.87.85,1.11.65,1.11,1.29S68.89,41,67.85,41a2.37,2.37,0,0,1-1.12-.28Z" style="fill:#fff"/><path d="M20.62,58.56a2.92,2.92,0,0,0,3,2.87L52.17,61a2.92,2.92,0,0,0,2.88-3L54.5,18.69a2.92,2.92,0,0,0-3-2.88l-21.38.3-10,10.27Z" style="fill:#d6e6f2"/><path d="M22.86,62.07a3.61,3.61,0,0,1-1.84-1,3.65,3.65,0,0,1-1.1-2.54l-.44-32.18a.67.67,0,0,1,.19-.5l10-10.27a.71.71,0,0,1,.49-.21l21.38-.3a3.63,3.63,0,0,1,3.67,3.57l.55,39.39a3.6,3.6,0,0,1-3.57,3.66l-28.59.4A4.4,4.4,0,0,1,22.86,62.07Zm-2-35.41.44,31.89h0a2.22,2.22,0,0,0,2.25,2.18l28.59-.4a2.13,2.13,0,0,0,1.56-.67,2.16,2.16,0,0,0,.63-1.58L53.8,18.7a2.22,2.22,0,0,0-2.25-2.19l-21.09.29Z" style="fill:#d6e6f2"/><path d="M20.17,26.38l7.22-.1a2.91,2.91,0,0,0,2.87-3l-.1-7.21Z" style="fill:#e11e19"/><path d="M20.05,27.07a.75.75,0,0,1-.52-.41.73.73,0,0,1,.14-.77l10-10.27a.71.71,0,0,1,.76-.16.7.7,0,0,1,.44.64l.1,7.21A3.62,3.62,0,0,1,27.4,27l-7.22.1Zm9.44-9.26-7.64,7.85,5.53-.08a2.22,2.22,0,0,0,2.18-2.25Z" style="fill:#e11e19"/><path d="M27.81,33.29a.7.7,0,0,1,.12-1.38l8.72-.12a.7.7,0,0,1,.71.69.69.69,0,0,1-.69.7L28,33.31Z" style="fill:#0e3c62"/><path d="M27.9,40.13a.71.71,0,0,1-.57-.68.72.72,0,0,1,.69-.71l8.73-.12a.7.7,0,0,1,.7.69.69.69,0,0,1-.69.71L28,40.14Z" style="fill:#0e3c62"/><path d="M40.06,40a.71.71,0,0,1-.57-.68l-.09-6.83a.66.66,0,0,1,.19-.5.71.71,0,0,1,.5-.21l7.5-.11a.71.71,0,0,1,.71.69l.09,6.84a.67.67,0,0,1-.19.5.71.71,0,0,1-.5.21l-7.5.1Zm.74-6.83.08,5.44L47,38.48,46.91,33Z" style="fill:#0e3c62"/><rect x="29.34" y="49.69" width="19.59" height="6.53" rx="1.09" transform="translate(-0.74 0.55) rotate(-0.8)" style="fill:#e11e19"/><path d="M33.88,51A6,6,0,0,1,35,50.9a1.8,1.8,0,0,1,1.24.35,1.16,1.16,0,0,1,.4.91,1.32,1.32,0,0,1-.33,1,1.83,1.83,0,0,1-1.34.5,2.08,2.08,0,0,1-.45,0l0,1.76h-.57Zm.6,2.11a2.05,2.05,0,0,0,.47,0c.69,0,1.1-.35,1.09-.95s-.42-.86-1-.85a2,2,0,0,0-.53,0Z" style="fill:#fff"/><path d="M37.36,51a6.92,6.92,0,0,1,1.2-.11,2.54,2.54,0,0,1,1.79.52A2,2,0,0,1,41,52.94a2.35,2.35,0,0,1-.61,1.72,2.7,2.7,0,0,1-1.94.66c-.4,0-.74,0-1,0ZM38,54.84a3.35,3.35,0,0,0,.58,0A1.68,1.68,0,0,0,40.4,53a1.56,1.56,0,0,0-1.8-1.67,2.67,2.67,0,0,0-.67.07Z" style="fill:#fff"/><path d="M41.71,50.84l2.37,0v.48l-1.81,0,0,1.46,1.67,0v.47l-1.67,0,0,2h-.57Z" style="fill:#fff"/></g></svg>