<svg xmlns="http://www.w3.org/2000/svg" xmlns:xlink="http://www.w3.org/1999/xlink" viewBox="0 0 76 76"><defs><clipPath id="a"><rect x="0.55" width="76" height="76" style="fill:none"/></clipPath></defs><g style="clip-path:url(#a)"><path d="M49.27,66.32A19.59,19.59,0,0,1,31.6,54.79H47.11L49.48,49H29.92l-.19-2.88.19-2.88h21.9L54.2,37.5H31.6A19.58,19.58,0,0,1,49.27,26a19.3,19.3,0,0,1,15.35,7.69v-8a24.52,24.52,0,0,0-15.35-5.46A25.25,25.25,0,0,0,25.55,37.5H20.9l-2.79,5.77h6.18l-.13,2.88L24.3,49H20.9l-2.79,5.76h7.44A25.24,25.24,0,0,0,49.27,72.08a24.38,24.38,0,0,0,15.35-5.41v-8A19.27,19.27,0,0,1,49.27,66.32Z" style="fill:#0e3c62"/><path d="M14.64,24.94l3.54.52a7.61,7.61,0,0,1,7.24-7l-.58-3.55a11.18,11.18,0,0,0-10.2,10.05Z" style="fill:#04b8b5"/><path d="M13.45,13.81A14.69,14.69,0,0,0,9.3,24.14l3.6.54A11.11,11.11,0,0,1,24.52,12.94l-.59-3.59A14.65,14.65,0,0,0,13.45,13.81Z" style="fill:#36c6c4"/><path d="M9.06,9.56a17.87,17.87,0,0,0-5.2,13.78l3.67.54a14,14,0,0,1,4.1-11.83,14,14,0,0,1,12-4.42L23.05,4A17.76,17.76,0,0,0,9.06,9.56Z" style="fill:#9be3e1"/></g></svg>