<svg xmlns="http://www.w3.org/2000/svg" xmlns:xlink="http://www.w3.org/1999/xlink" viewBox="0 0 76 76"><defs><clipPath id="a"><rect width="76" height="76" style="fill:none"/></clipPath><clipPath id="b"><path d="M39,56.31l-1.06-.56a7,7,0,0,1-1.44-1.1l1.06.57A7,7,0,0,0,39,56.31Z" style="fill:none"/></clipPath><clipPath id="c"><path d="M30.27,53.21l-1.06-.57a4.91,4.91,0,0,1-1.26-1l1.05.56A4.84,4.84,0,0,0,30.27,53.21Z" style="fill:none"/></clipPath></defs><g style="clip-path:url(#a)"><g style="isolation:isolate"><polygon points="21.07 32.62 21.07 74.29 0.94 63.15 0.94 21.44 21.07 32.62" style="fill:#e95653"/><polygon points="59.22 27.15 21.07 32.62 0.94 21.44 39.02 16.01 59.22 27.15" style="fill:#f08e8c"/><path d="M59.22,27.15V57.76c0,6.13-4.69,11.7-10.26,12.51l-27.89,4V32.62Z" style="fill:#e11e19"/></g><polygon points="5.1 41.85 5.1 42.67 4.04 42.14 5.1 41.85" style="fill:#f08e8c"/><path d="M11.59,52l1.09.57a2.69,2.69,0,0,1,.63.53l0,4-1.69.42Z" style="fill:#e11e19"/><path d="M15.82,50.6a5.35,5.35,0,0,1,1.48,2.5,10.66,10.66,0,0,1,.56,3.6A7.15,7.15,0,0,1,17,60.79a1.71,1.71,0,0,1-.92.7l-1.66.43a1.55,1.55,0,0,0,.39-.18l0,0,0,0,0,0,0,0,.07-.07.07-.07.07-.07.07-.07a0,0,0,0,1,0,0l0,0,0,0s0,0,0-.07a7.4,7.4,0,0,0,.85-4.09v-.14a12,12,0,0,0-.56-3.49,6.39,6.39,0,0,0-1.48-2.5,1.08,1.08,0,0,0,.17,0Z" style="fill:#f08e8c"/><path d="M15.61,53.53A10.51,10.51,0,0,1,16.17,57v.14a7.06,7.06,0,0,1-.85,4.09s0,0,0,.07l-.14.17-.07.07-.07.07-.07.07a1.68,1.68,0,0,1-.53.29.45.45,0,0,1-.18,0A2,2,0,0,1,13,61.74l-3.35-1.8L9.54,47.6l0-3.38v-.46l0-3,0-1.62.81.42,2.39,1.27A5.15,5.15,0,0,1,14.9,43.3a9.28,9.28,0,0,1,.81,3.88v.14A6.27,6.27,0,0,1,15.25,50a2.32,2.32,0,0,1-.63.88,1.36,1.36,0,0,1-.42.21l.07,0a.47.47,0,0,1-.18,0A5,5,0,0,1,15.61,53.53ZM14,57.4A5.17,5.17,0,0,0,14.13,56a5.69,5.69,0,0,0-.39-2.15,5.57,5.57,0,0,0-.43-.74,2.17,2.17,0,0,0-.63-.53L11.59,52l0,5.47,1.09.56s0,0,.08,0h0a1.23,1.23,0,0,0,.42.1h.07s.07,0,.11,0a.68.68,0,0,0,.39-.32c0-.14.1-.28.14-.46M11.52,43.58l0,4.94.88.46a1.08,1.08,0,0,0,.53.14s.07,0,.07,0a.74.74,0,0,0,.39-.28,2,2,0,0,0,.21-.49,5.74,5.74,0,0,0,.14-1.24A4,4,0,0,0,13.28,45a2.27,2.27,0,0,0-1-.92l-.77-.46" style="fill:#fff"/><polygon points="9.58 44.15 9.58 47.53 8.77 47.74 8.48 47.81 8.48 46.72 8.45 44.43 9.58 44.15" style="fill:#e11e19"/><polygon points="8.48 46.72 8.48 47.81 8.77 47.74 8.84 58.11 7.14 58.57 7.07 47.07 8.48 47.81 8.48 46.72" style="fill:#e11e19"/><polygon points="8.73 43.27 9.58 43.69 9.58 44.15 8.45 44.43 7.04 43.69 8.73 43.27" style="fill:#f08e8c"/><path d="M7.57,40.13c.1,0,.21,0,.31.07a2.68,2.68,0,0,1,.74.74l.11,0a6.28,6.28,0,0,0,0,.78l0,1.59L7,43.69,7,42.1C7,40.83,7.21,40.16,7.57,40.13Z" style="fill:#e11e19"/><path d="M8.41,35.93a1.66,1.66,0,0,1,.92.21,3.47,3.47,0,0,1,1,.81l-1.7.43a3.13,3.13,0,0,0-1-.81,1.44,1.44,0,0,0-.81-.21H6.65l1.62-.43Z" style="fill:#f08e8c"/><path d="M6.72,36.32h.11a1.88,1.88,0,0,1,.81.21,3.15,3.15,0,0,1,1,.81l0,3.56a2.46,2.46,0,0,0-.74-.74.43.43,0,0,0-.32-.07c-.39.07-.56.74-.56,2l0,1.58,1.45.74,0,2.3v1.09L7.11,47,7.18,58.5l-1.94-1L5.17,46l-1.06-.57,0-3.38,1,.56V40.8a7.89,7.89,0,0,1,.67-3.74,1.47,1.47,0,0,1,.89-.74S6.72,36.32,6.72,36.32Z" style="fill:#fff"/><path d="M13.24,48.06l.32.18a2.37,2.37,0,0,1-.21.49A.5.5,0,0,1,13,49h0s0,0-.07,0a.91.91,0,0,1-.53-.14l-.88-.46Z" style="fill:#e11e19"/><path d="M11.52,43.58l.74.39a2.41,2.41,0,0,1,1,.92l0,3.21-1.69.42Z" style="fill:#e11e19"/><path d="M11.23,38.65l3.21,1.69a5.15,5.15,0,0,1,2.26,2.47,9.39,9.39,0,0,1,.81,4,6.3,6.3,0,0,1-.46,2.68A1.67,1.67,0,0,1,16,50.6l-.14,0L14.3,51l-.07,0a2.53,2.53,0,0,0,.42-.18,2,2,0,0,0,.67-.88,6.39,6.39,0,0,0,.46-2.68v-.14A9.28,9.28,0,0,0,15,43.3a5.15,5.15,0,0,0-2.26-2.47l-2.39-1.27-.81-.42.81-.21Z" style="fill:#f08e8c"/><polygon points="10.32 36.92 10.32 38.86 9.54 39.07 10.32 39.49 9.54 39.07 9.54 40.69 8.73 40.9 8.63 40.9 8.63 37.34 10.32 36.92" style="fill:#e11e19"/><path d="M13.31,57.05l.64.32c-.07.17-.14.32-.21.46a.86.86,0,0,1-.39.31h0s0,0-.07,0h-.07a.94.94,0,0,1-.42-.11h0s0,0-.07,0l-1.09-.57Z" style="fill:#e11e19"/><g style="isolation:isolate"><path d="M50.65,58.85a.1.1,0,0,1,0-.07,1.23,1.23,0,0,0,.07-.32s0-.1,0-.14a2.5,2.5,0,0,0,0-.56l-1.06-.57a2.6,2.6,0,0,1,0,.57s0,.1,0,.14,0,.21-.07.31,0,.11-.07.18,0,0,0,.07a.79.79,0,0,1-.14.25.74.74,0,0,1-.25.21l0,0a.59.59,0,0,1-.32.18,2,2,0,0,1-.28.11.25.25,0,0,1-.14,0l-.53.11,1.06.56.53-.1a.23.23,0,0,1,.14,0l.28-.1a0,0,0,0,0,0,0,2.44,2.44,0,0,1,.28-.14l0,0,0,0a.15.15,0,0,1,.1-.07l.11-.11,0,0s0,0,0-.07a.17.17,0,0,0,.07-.14s0,0,0-.08,0,0,0-.07S50.62,58.88,50.65,58.85Z" style="fill:#e95653"/><polygon points="50.79 57.72 49.73 57.16 49.77 42.84 50.83 43.41 50.79 57.72" style="fill:#e95653"/><polygon points="47.87 58 46.81 57.44 42.72 53.6 43.78 54.16 47.87 58" style="fill:#e95653"/><path d="M45.4,49.68c.39-.49.74-.91,1-1.27.07-.07.14-.17.18-.21a.42.42,0,0,0,.1-.14h0a4.8,4.8,0,0,1,.35-.42.29.29,0,0,1,.15-.14c.14-.18.21-.29.21-.29h0l-1.06-.56h0a5.64,5.64,0,0,0-.42.49,1.71,1.71,0,0,1-.29.32h0s0,0,0,0c-.18.21-.35.42-.53.67a11.6,11.6,0,0,1-.78.91l-1.12,1.38-.57.67c-.39.49-.77.95-1.16,1.41-.14.17-.28.32-.39.46l-.14.14-.21.24-.14.15a.78.78,0,0,1-.21.17s-.07.07-.11.07a1.75,1.75,0,0,1-.32.25s0,0-.07,0a.62.62,0,0,0-.17.11s0,0-.07,0a.78.78,0,0,1-.25.07h-.25a.25.25,0,0,1-.14,0h0l-.25-.11-.14-.07,1.06.57a.11.11,0,0,0,.07,0s0,0,0,0l.25.1h0s.07,0,.14,0h.25a2.33,2.33,0,0,1,.25-.07h0a0,0,0,0,0,0,0c.07,0,.1-.07.17-.1l0,0,0,0a1.7,1.7,0,0,0,.31-.25l0,0,.07-.07a.67.67,0,0,1,.21-.18l.14-.14a1.38,1.38,0,0,0,.21-.25s0-.07.07-.07l0,0c.14-.15.25-.29.39-.46.38-.46.77-.92,1.16-1.41l.56-.67A6.93,6.93,0,0,0,45.4,49.68Z" style="fill:#e95653"/><polygon points="44.83 44.25 43.78 43.65 43.78 41.89 44.83 42.49 44.83 44.25" style="fill:#e95653"/><path d="M51.78,41.54a1.72,1.72,0,0,1,.21.07L50.93,41a0,0,0,0,1,0,0s-.11,0-.14-.07h-.07a.28.28,0,0,0-.25,0l-6.66.92,1,.56,6.67-.92a.66.66,0,0,0,.28,0Z" style="fill:#f08e8c"/><g style="isolation:isolate"><g style="clip-path:url(#b)"><g style="isolation:isolate"><path d="M39,56.31l-1.06-.56a7,7,0,0,1-1.44-1.1l1.06.57A7,7,0,0,0,39,56.31" style="fill:#e95653"/></g></g></g><polygon points="30.59 62.48 29.53 61.92 47.8 59.34 48.85 59.91 30.59 62.48" style="fill:#f08e8c"/><polygon points="32.39 58.95 31.33 58.36 35.38 53.52 36.44 54.09 32.39 58.95" style="fill:#f08e8c"/><polygon points="33.55 60.01 32.49 59.45 31.33 58.36 32.39 58.95 33.55 60.01" style="fill:#e95653"/><polygon points="40.71 47.88 39.65 47.28 39.65 43.09 40.71 43.65 40.71 47.88" style="fill:#e95653"/><polygon points="35.35 52.96 34.29 52.36 35.49 51.02 36.58 51.59 35.35 52.96" style="fill:#f08e8c"/><polygon points="36.44 54.09 35.38 53.52 34.29 52.36 35.35 52.96 36.44 54.09" style="fill:#e95653"/><path d="M47.44,47.21l1.17,1.1s-1.8,2.18-3.67,4.48L49,56.63,47.87,58,43.78,54.2l-.07.07c-1.24,1.48-2.19,2.25-3.14,2.39s-1.87-.35-3-1.44l-4,4.79L32.42,59l4-4.86L35.35,53l1.23-1.34,2.08,2.19c.92.84,1.48,1.2,1.94,1.13s1.06-.6,2-1.73C44.83,50.42,47.41,47.25,47.44,47.21Z" style="fill:#fff"/><path d="M51.53,41.54a.81.81,0,0,1,.92.88l0,15a4.16,4.16,0,0,1-.81,2.85,3.8,3.8,0,0,1-2.68,1.27L30,64.21a.84.84,0,0,1-1-.85l0-6.13,1.59,1.13v4.09l18.26-2.58a2.34,2.34,0,0,0,1.55-.67,2.3,2.3,0,0,0,.35-1.55l0-14.31-6,.84v-1.8Z" style="fill:#fff"/><path d="M29,63.4l0-6.14L28,56.7l0,6.13a.84.84,0,0,0,.42.74l1.06.57A.82.82,0,0,1,29,63.4Z" style="fill:#e95653"/><polygon points="29 52.26 27.95 51.69 37.04 40.55 38.1 41.15 29 52.26" style="fill:#f08e8c"/><g style="isolation:isolate"><g style="clip-path:url(#c)"><g style="isolation:isolate"><path d="M30.27,53.21l-1.06-.57a4.91,4.91,0,0,1-1.26-1l1.05.56a4.84,4.84,0,0,0,1.27,1" style="fill:#e95653"/></g></g></g><path d="M42.15,38.93l-1-.56h0a.09.09,0,0,0-.07,0h0s-.07,0-.14,0,0,0-.07,0l-6.49.88,1.06.56,6.49-.88s0,0,.07,0h.14C42.12,38.89,42.12,38.89,42.15,38.93Z" style="fill:#f08e8c"/><polygon points="34.12 41.68 33.02 41.12 34.36 39.21 35.42 39.77 34.12 41.68" style="fill:#f08e8c"/><path d="M35.42,39.78l6.49-.89s0,0,.07,0a.51.51,0,0,1,.53.56l0,6.49-1.73,1.94v-4.2l-6.62,8.54A3.66,3.66,0,0,1,32,53.6a3.72,3.72,0,0,1-3-1.34l9.09-11.11-4.05.53Z" style="fill:#fff"/></g><circle cx="61.12" cy="15.72" r="13.12" style="fill:#fc0"/><rect x="53.3" y="6.04" width="16.83" height="16.83" style="fill:#fff;opacity:0"/><path d="M66.91,19.68a.77.77,0,0,0-.77-.78H57.29a.78.78,0,0,0,0,1.55h8.85a.77.77,0,0,0,.77-.77Zm0,0" style="fill:#0e3c62"/><path d="M55.74,13.42h0L57,17.85h9.43l1.23-4.43h0a.93.93,0,1,0-.87-.63L64.6,14.08l-2.38-3.94a.92.92,0,0,0-.5-1.69.92.92,0,0,0-.51,1.69l-2.38,3.94-2.21-1.29a1.35,1.35,0,0,0,0-.28.92.92,0,1,0-.92.91Zm0,0" style="fill:#0e3c62"/></g></svg>