<svg xmlns="http://www.w3.org/2000/svg" xmlns:xlink="http://www.w3.org/1999/xlink" viewBox="0 0 76 76"><defs><clipPath id="a"><rect width="76" height="76" style="fill:none"/></clipPath></defs><g style="isolation:isolate"><g style="clip-path:url(#a)"><path d="M52.69,33c-.39,0,.22.25,0,0Z" style="opacity:0.15;mix-blend-mode:multiply"/><path d="M59.47,34.49c-1.92-1.57-5.69-1.83-8.49-.77-3.31,1.26-4.4,4-6.5,3.64a4.39,4.39,0,0,1-3.15-3.55C41.31,21.38,40,16.55,31.85,12,25.34,8.32,7,14.22,1.72,28.54c-5,13.49,3.85,28.89,16,35.09,14.64,7.48,32.9.89,39.84-9.92C61.45,47.6,63.34,37.66,59.47,34.49Zm-8.38,19c-1.81,2.13-3.53,1.32-5.47,1.93C44,56,42,58.15,41,57.29c-2.21-1.87-1.29-6.6,2.06-10.55S50.94,41.09,53.15,43,54.44,49.56,51.09,53.52Z" style="fill:#edc4b2"/><circle cx="23.24" cy="21.85" r="4.16" style="fill:#04b8b5"/><circle cx="13.47" cy="30.08" r="4.16" style="fill:#1c77c3"/><circle cx="13.02" cy="41.8" r="4.16" style="fill:#e11e19"/><circle cx="20.55" cy="51.48" r="4.16" style="fill:#f6a71c"/><polygon points="61.78 53.16 50.98 54.76 53.31 60.75 62.35 54.63 61.78 53.16" style="fill:#1c77c3"/><path d="M13.08,73.57a.79.79,0,0,0,.62,0l38-12.25-2.32-6L13.09,72.05a.84.84,0,0,0-.43.44.86.86,0,0,0,0,.63A.8.8,0,0,0,13.08,73.57Z" style="fill:#1c77c3"/><rect x="50.52" y="54.85" width="1.68" height="6.42" transform="translate(-17.56 22.58) rotate(-21.26)" style="fill:#343b43"/><path d="M59.65,54.84a4.47,4.47,0,0,1,3.83-6.09c2.88-.17,7.54,1,11.86-.13a.1.1,0,0,1,.13.06.09.09,0,0,1-.06.13c-3.91,2.13-6.59,6.1-8.82,7.92a4.65,4.65,0,0,1-1.15.66A4.47,4.47,0,0,1,59.65,54.84Z" style="fill:#343b43"/><circle cx="60.5" cy="15.85" r="12.59" style="fill:#fc0"/><rect x="53" y="6.56" width="16.16" height="16.16" style="fill:#fff;opacity:0"/><path d="M66.06,19.65a.74.74,0,0,0-.74-.74H56.83a.74.74,0,1,0,0,1.48h8.49a.74.74,0,0,0,.74-.74Zm0,0" style="fill:#0e3c62"/><path d="M55.34,13.65h0l1.18,4.25h9l1.18-4.25h0a.88.88,0,1,0-.88-.88A.8.8,0,0,0,66,13l-2.12,1.24-2.29-3.79a.86.86,0,0,0,.4-.73.89.89,0,0,0-1.77,0,.86.86,0,0,0,.4.73L58.3,14.28,56.18,13a1.17,1.17,0,0,0,0-.27.89.89,0,1,0-.88.88Zm0,0" style="fill:#0e3c62"/></g></g></svg>