<svg xmlns="http://www.w3.org/2000/svg" xmlns:xlink="http://www.w3.org/1999/xlink" viewBox="0 0 76 76"><defs><clipPath id="a"><rect width="76" height="76" style="fill:none"/></clipPath></defs><g style="isolation:isolate"><g style="clip-path:url(#a)"><g style="mix-blend-mode:multiply"><path d="M5.76,6H58.58a0,0,0,0,1,0,0V52.83A16.36,16.36,0,0,1,42.23,69.18H5.76a0,0,0,0,1,0,0V6A0,0,0,0,1,5.76,6Z" style="fill:#b6d4ec"/></g><path d="M4.45,2.63H55a0,0,0,0,1,0,0V51.31a14,14,0,0,1-14,14H4.45a0,0,0,0,1,0,0V2.63A0,0,0,0,1,4.45,2.63Z" style="fill:#e9f5ff"/><path d="M19.68,35.27h0l-5.86,0a1,1,0,0,1-1-1l0-5.48a.94.94,0,0,1,.29-.69.9.9,0,0,1,.69-.28l5.87,0a1,1,0,0,1,.69.29,1,1,0,0,1,.28.69l0,5.48A1,1,0,0,1,19.68,35.27Zm0-.39h0a.6.6,0,0,0,.59-.58l0-5.48a.58.58,0,0,0-.17-.41.6.6,0,0,0-.42-.18l-5.86,0h0a.58.58,0,0,0-.58.58l0,5.48a.58.58,0,0,0,.58.59Z" style="fill:#0e3c62"/><path d="M23.09,33.53a.22.22,0,0,1-.21-.21.21.21,0,0,1,.21-.21l22.37-.06h0a.21.21,0,0,1,.21.21.21.21,0,0,1-.21.21l-22.36.06Z" style="fill:#bec8d2"/><path d="M22.94,29.54a.22.22,0,0,1-.21-.21.21.21,0,0,1,.21-.21l22.37-.06a.2.2,0,0,1,.21.21.21.21,0,0,1-.21.21l-22.37.06Z" style="fill:#bec8d2"/><path d="M23.22,31.59a.21.21,0,1,1,0-.42l22.37-.06h0a.21.21,0,0,1,0,.42l-22.37.06Z" style="fill:#bec8d2"/><g style="mix-blend-mode:multiply"><rect x="29.84" y="49.79" width="18.39" height="8.66" style="fill:#ebf2f5"/></g><path d="M21.28,36.19H20.05v-.3h1.23Zm-2.46,0H17.59v-.3h1.23Zm-2.46,0H15.13v-.3h1.23Zm-2.46,0H12.67v-.3H13.9Zm7.53-.83h-.3V34.13h.3Zm-9.08-.07H12V34.06h.31Zm9.08-2.39h-.3V31.67h.3Zm-9.08-.07H12V31.6h.31Zm9.08-2.39h-.3V29.21h.3Zm-9.08-.07H12V29.14h.31ZM21.43,28h-.3v-.87h-.05V26.8h.35Zm-9.08-.07H12V26.8h.43v.31h-.12Zm7.5-.8H18.62V26.8h1.23Zm-2.46,0H16.16V26.8h1.23Zm-2.46,0H13.7V26.8h1.23Z" style="fill:#e11e19"/><rect x="13.12" y="10.3" width="33.39" height="11.45" style="fill:#77addb"/><rect x="14.05" y="28.8" width="5.22" height="5.22" style="fill:#77addb"/><path d="M47.59,23.08H45.87V22.7h1.34v-.38h.38Zm-2.74,0H43.33V22.7h1.52Zm-2.54,0H40.78V22.7h1.53Zm-2.55,0H38.24V22.7h1.52Zm-2.54,0H35.69V22.7h1.53Zm-2.55,0H33.14V22.7h1.53Zm-2.54,0H30.6V22.7h1.53Zm-2.55,0H28.05V22.7h1.53Zm-2.55,0H25.51V22.7H27Zm-2.54,0H23V22.7h1.53Zm-2.55,0H20.41V22.7h1.53Zm-2.54,0H17.87V22.7H19.4Zm-2.55,0H15.32V22.7h1.53Zm-2.55,0H12.78V22.7H14.3Zm-1.91-.63H12V20.92h.38Zm35.2-1.15h-.38V19.77h.38Zm-35.2-1.4H12V18.38h.38Zm35.2-1.14h-.38V17.23h.38Zm-35.2-1.4H12V15.83h.38Zm35.2-1.15h-.38V14.68h.38Zm-35.2-1.4H12V13.28h.38Zm35.2-1.15h-.38V12.14h.38Zm-35.2-1.39H12V10.74h.38Zm35.2-1.15h-.38V9.59h.38Zm-35.2-1.4H12V9.25h1.43v.38h-1Zm34.15-.09H45V9.25h1.53ZM44,9.63H42.46V9.25H44Zm-2.55,0H39.92V9.25h1.52Zm-2.54,0H37.37V9.25H38.9Zm-2.55,0H34.82V9.25h1.53Zm-2.54,0H32.28V9.25h1.53Zm-2.55,0H29.73V9.25h1.53Zm-2.55,0H27.19V9.25h1.52Zm-2.54,0H24.64V9.25h1.53Zm-2.55,0H22.1V9.25h1.52Zm-2.54,0H19.55V9.25h1.53Zm-2.55,0H17V9.25h1.53ZM16,9.63H14.46V9.25H16Z" style="fill:#e11e19"/><path d="M19.58,46.05h0L13.7,46a1,1,0,0,1-1-1l0-5.48a1,1,0,0,1,.29-.69.92.92,0,0,1,.7-.28l5.86,0a1,1,0,0,1,.69.29.91.91,0,0,1,.28.69l0,5.48A1,1,0,0,1,19.58,46.05Zm0-.39h0a.58.58,0,0,0,.58-.58l0-5.48a.58.58,0,0,0-.17-.41.54.54,0,0,0-.41-.18l-5.87,0h0a.57.57,0,0,0-.41.17.59.59,0,0,0-.18.41l0,5.48a.59.59,0,0,0,.59.59Z" style="fill:#0e3c62"/><path d="M23,44.3a.2.2,0,0,1-.21-.2.21.21,0,0,1,.21-.22l22.37-.05h0a.21.21,0,0,1,.21.21.22.22,0,0,1-.21.21L23,44.3Z" style="fill:#bec8d2"/><path d="M22.84,40.32a.21.21,0,0,1-.21-.21.21.21,0,0,1,.21-.21l22.36-.06a.2.2,0,0,1,.21.21.2.2,0,0,1-.2.21l-22.37.06Z" style="fill:#bec8d2"/><path d="M23.12,42.37a.21.21,0,0,1,0-.42l22.36-.06h0a.21.21,0,0,1,0,.42l-22.36.06Z" style="fill:#bec8d2"/><rect x="13.94" y="39.58" width="5.22" height="5.22" style="fill:#77addb"/><path d="M15.93,44.31a2.25,2.25,0,0,1-.86-.58c-.34-.32-.57-.58-.65-.65l.48-.26c.14.11.14.25.48.57a2.28,2.28,0,0,0,.43.34.25.25,0,0,0,.35-.11c.19-.39.45-1.11.62-1.54a5.66,5.66,0,0,1,1.33-2.48l.2.54a6.67,6.67,0,0,0-1.06,2.14c-.52,1.38-.79,2-1.31,2Z" style="fill:#155992"/><path d="M37.93,55.79c.25.6.74-.13,1.09-.2.26.53,1.18.46,1.76.32.07,0,.12,0,0-.08-.3-.11-.65.07-1,0s-.35-.25-.59-.4a.86.86,0,0,0-1,.24.55.55,0,0,0-.15-.2c-.07-.07-.41-.06-.32,0A.62.62,0,0,1,37.93,55.79Z" style="fill:#bec8d2"/><path d="M40.93,57h-4.8v-.48h4.8V57m-3.79-1.13-.34-.33.34-.34L37,55l-.34.34L36.3,55l-.17.17.34.34-.34.33.17.17.33-.33L37,56l.17-.17" style="fill:#bec8d2"/><path d="M40.78,52.82a.26.26,0,0,0-.11.16c0,.05,0,.1.1.15s.15.15.15.23a.51.51,0,0,1-.17.24l-.66.67L39.86,54l.68-.68-.15-.15-.23.22-.6-.6.61-.61a.15.15,0,0,1,.23,0l.38.37a.17.17,0,0,1,0,.23m-2.85,1.64,1.33-1.33.6.6-1.32,1.33h-.61Z" style="fill:#bec8d2"/><path d="M32.8,12.52l.61,2.24-.51.16a5.17,5.17,0,0,0-.72-1.12,1.24,1.24,0,0,0-.91-.26H30v5.35c0,.25,0,.51.15.61a2,2,0,0,0,.86.1v.51H28V19.6a2.11,2.11,0,0,0,.86-.1c.16-.1.16-.36.16-.61V13.54H27.7a1.46,1.46,0,0,0-.91.21,3.23,3.23,0,0,0-.72,1.12l-.5-.16.61-2.19Z" style="fill:#155992"/><path d="M48.92,49h-.07v-.19h.07Zm-.82,0h-.75v-.19h.75Zm-1.5,0h-.75v-.19h.75Zm-1.5,0h-.74v-.19h.74Zm-1.49,0h-.75v-.19h.75Zm-1.5,0h-.75v-.19h.75Zm-1.5,0h-.75v-.19h.75Z" style="fill:#e11e19"/><path d="M46.45,59.48H45.7V59.3h.75Zm-1.5,0h-.74V59.3H45Zm-1.49,0h-.75V59.3h.75Zm-1.5,0h-.75V59.3H42Zm-1.5,0h-.75V59.3h.75Zm-1.5,0h-.74V59.3H39Zm-1.49,0h-.75V59.3h.75Zm-1.5,0h-.75V59.3H36Zm-1.5,0h-.75V59.3h.75Zm-1.5,0h-.75V59.3H33Zm-1.49,0h-.75V59.3h.75Zm-1.5,0h-.75V59.3H30Zm-.72-.77h-.19V58h.19Zm0-1.5h-.19v-.75h.19Zm0-1.5h-.19V55h.19Zm0-1.49h-.19v-.75h.19Zm0-1.5h-.19V52h.19Zm0-1.5h-.19v-.75h.19Zm0-1.5h-.19V49h.19ZM39.53,49h-.75v-.19h.75ZM38,49h-.75v-.19H38Zm-1.5,0h-.75v-.19h.75ZM35,49h-.75v-.19H35Zm-1.49,0h-.75v-.19h.75ZM32,49h-.75v-.19H32Zm-1.5,0h-.75v-.19h.75Z" style="fill:#e11e19"/><rect x="48.48" y="55.37" width="0.88" height="5.71" style="fill:#e11e19"/><rect x="45.01" y="58.95" width="5.55" height="0.88" style="fill:#e11e19"/><polygon points="53.86 70.72 48.94 58.51 61.14 63.44 56.4 65.96 53.86 70.72" style="fill:#0e3c62"/><rect x="56.98" y="64.64" width="1.94" height="5.75" transform="translate(-30.78 60.86) rotate(-45.07)" style="fill:#0e3c62"/><path d="M49,57.09h-.19v-.75H49Zm0-1.49h-.19v-.75H49Zm0-1.5h-.19v-.75H49Zm0-1.5h-.19v-.75H49Zm0-1.5h-.19v-.75H49Zm0-1.49h-.19v-.75H49Z" style="fill:#e11e19"/><circle cx="60.66" cy="15.45" r="12.57" style="fill:#fc0"/><rect x="53.18" y="6.17" width="16.13" height="16.13" style="fill:#fff;opacity:0"/><path d="M66.22,19.24a.74.74,0,0,0-.74-.74H57A.74.74,0,1,0,57,20h8.48a.74.74,0,0,0,.74-.74Zm0,0" style="fill:#0e3c62"/><path d="M55.51,13.25h0l1.17,4.24h9l1.17-4.24h0a.88.88,0,0,0,0-1.76.87.87,0,0,0-.88.88.84.84,0,0,0,0,.27L64,13.88,61.73,10.1a.9.9,0,0,0,.39-.74.88.88,0,1,0-1.36.74l-2.29,3.78-2.12-1.24a.86.86,0,0,0,0-.27.89.89,0,1,0-.89.88Zm0,0" style="fill:#0e3c62"/></g></g></svg>