<svg xmlns="http://www.w3.org/2000/svg" xmlns:xlink="http://www.w3.org/1999/xlink" viewBox="0 0 76 76"><defs><clipPath id="a"><rect width="76" height="76" style="fill:none"/></clipPath></defs><g style="isolation:isolate"><g style="clip-path:url(#a)"><g style="mix-blend-mode:multiply"><path d="M10.13,8.93H65.71a0,0,0,0,1,0,0V59.08A16.36,16.36,0,0,1,49.36,75.43H10.13a0,0,0,0,1,0,0V8.93A0,0,0,0,1,10.13,8.93Z" style="fill:#b6d4ec"/></g><path d="M8.75,5.4H62a0,0,0,0,1,0,0v52a14,14,0,0,1-14,14H8.75a0,0,0,0,1,0,0V5.4A0,0,0,0,1,8.75,5.4Z" style="fill:#e9f5ff"/><path d="M24.78,39.75h0l-6.17,0a1,1,0,0,1-1-1l0-5.76a1,1,0,0,1,.3-.73,1,1,0,0,1,.73-.29l6.18,0a1,1,0,0,1,.72.31,1,1,0,0,1,.3.73l0,5.76A1,1,0,0,1,24.78,39.75Zm0-.41h0a.61.61,0,0,0,.61-.62l0-5.76a.62.62,0,0,0-.18-.43.61.61,0,0,0-.44-.19l-6.17,0h0a.6.6,0,0,0-.44.18.62.62,0,0,0-.18.43l0,5.76a.61.61,0,0,0,.61.62Z" style="fill:#0e3c62"/><path d="M28.37,37.91a.22.22,0,0,1,0-.44l23.54-.06h0a.22.22,0,1,1,0,.44l-23.54.06Z" style="fill:#bec8d2"/><path d="M28.21,33.71a.22.22,0,0,1-.22-.22.22.22,0,0,1,.22-.22l23.54-.06c.11,0,.22.1.22.22a.22.22,0,0,1-.22.22l-23.54.06Z" style="fill:#bec8d2"/><path d="M28.5,35.87a.22.22,0,0,1-.22-.22.22.22,0,0,1,.22-.22L52,35.37h0a.22.22,0,0,1,0,.44l-23.54.06Z" style="fill:#bec8d2"/><rect x="35.47" y="55.03" width="19.35" height="9.11" style="fill:#b6d4ec"/><rect x="17.88" y="13.47" width="35.14" height="12.05" style="fill:#b6d4ec"/><rect x="18.85" y="32.94" width="5.49" height="5.49" style="fill:#b6d4ec"/><path d="M24.67,51.09h0l-6.17,0a1,1,0,0,1-1-1l0-5.76a1,1,0,0,1,.3-.72,1,1,0,0,1,.73-.3l6.18,0a1,1,0,0,1,1,1l0,5.76A1,1,0,0,1,24.67,51.09Zm0-.41h0a.61.61,0,0,0,.61-.61l0-5.76a.61.61,0,0,0-.62-.62l-6.17,0h0a.6.6,0,0,0-.44.18.62.62,0,0,0-.18.43l0,5.77a.62.62,0,0,0,.61.62Z" style="fill:#0e3c62"/><path d="M28.26,49.25A.22.22,0,0,1,28,49a.22.22,0,0,1,.22-.22l23.54-.06h0a.22.22,0,1,1,0,.44l-23.54.06Z" style="fill:#bec8d2"/><path d="M28.1,45.06a.22.22,0,0,1-.22-.22.23.23,0,0,1,.22-.23l23.54-.06a.22.22,0,0,1,.22.22.22.22,0,0,1-.22.23l-23.54.06Z" style="fill:#bec8d2"/><path d="M28.39,47.22a.22.22,0,0,1-.22-.22.22.22,0,0,1,.22-.22l23.54-.07h0a.22.22,0,0,1,.22.22.22.22,0,0,1-.22.23l-23.54.06Z" style="fill:#bec8d2"/><rect x="18.74" y="44.28" width="5.49" height="5.49" style="fill:#b6d4ec"/><path d="M20.83,49.26a2.28,2.28,0,0,1-.9-.61c-.36-.33-.6-.61-.68-.68l.5-.28a6,6,0,0,0,.51.6,2.65,2.65,0,0,0,.44.36.28.28,0,0,0,.38-.12c.2-.4.47-1.16.64-1.61.52-1.36.89-2.28,1.41-2.62l.21.58a6.72,6.72,0,0,0-1.12,2.25c-.55,1.45-.83,2.14-1.38,2.14Z" style="fill:#155992"/><path d="M44,61.35c.26.62.78-.14,1.15-.22.27.55,1.24.48,1.85.34.07,0,.12,0,.06-.09-.32-.11-.7.07-1,0s-.37-.26-.61-.42a.94.94,0,0,0-1,.25.59.59,0,0,0-.16-.2c-.07-.08-.43-.07-.34,0A.56.56,0,0,1,44,61.35Z" style="fill:#155992"/><path d="M47.14,62.58h-5v-.5h5v.5m-4-1.18L42.79,61l.36-.35L43,60.51l-.35.36-.36-.36-.17.18.35.35-.35.36.17.17.36-.35.35.35.18-.17" style="fill:#155992"/><path d="M47,58.21c-.06.06-.12.12-.12.17s0,.11.11.16.16.16.15.25S47,59,47,59l-.7.7L46,59.5l.72-.72-.16-.16-.24.24-.64-.63.65-.65a.16.16,0,0,1,.24,0L47,58a.18.18,0,0,1,0,.24m-3,1.73,1.39-1.4.64.63-1.4,1.4H44Z" style="fill:#155992"/><path d="M38.58,15.81l.64,2.36-.53.16a6.21,6.21,0,0,0-.75-1.18,1.36,1.36,0,0,0-1-.27H35.63v5.63c0,.27,0,.54.16.64a2.06,2.06,0,0,0,.91.11v.54H33.49v-.54a2.17,2.17,0,0,0,.91-.11c.16-.1.16-.37.16-.64V16.88H33.22a1.55,1.55,0,0,0-1,.22,3.24,3.24,0,0,0-.75,1.18L31,18.12l.64-2.31Z" style="fill:#155992"/><rect x="22.49" y="21.56" width="44.64" height="6.23" transform="translate(-4.2 39.33) rotate(-45.49)" style="fill:#0e3c62"/><path d="M63.47,3l2.71,2.66,1.46-1.48a1,1,0,0,0,.29-.73,1.08,1.08,0,0,0-.3-.74L66.39,1.49a1.05,1.05,0,0,0-1.46,0Z" style="fill:#e11e19"/><path d="M61.88,2.87a1,1,0,0,1,.73-.31,1.08,1.08,0,0,1,.74.3L66.3,5.77a1,1,0,0,1,0,1.47l-3.64,3.69L58.24,6.57Z" style="fill:#6588ab"/><path d="M58.24,6.57l-1,1a1.17,1.17,0,0,0-.82-.34,1.16,1.16,0,0,0-.8.35L45.55,17.84l-1-1L54.66,6.6a2.52,2.52,0,0,1,3.58,0Z" style="fill:#e11e19"/><path d="M25.32,45.53l-1.51.83a.24.24,0,0,1-.33-.32l.81-1.53Z" style="fill:#0e3c62"/><polygon points="23.92 44.15 25.69 45.9 31.39 42.77 26.95 38.41 23.92 44.15" style="fill:#6588ab"/></g></g></svg>