<svg xmlns="http://www.w3.org/2000/svg" xmlns:xlink="http://www.w3.org/1999/xlink" viewBox="0 0 151.851 150"><defs><style>.cls-1{fill:#f08e8c;}.cls-2{fill:#d9e1e8;}.cls-3{clip-path:url(#clip-path);}.cls-4{fill:#fff;opacity:0.43;}.cls-5{clip-path:url(#clip-path-2);}.cls-6{fill:#7cb892;}.cls-7{fill:none;}</style><clipPath id="clip-path"><path class="cls-1" d="M60.965,35.435l1.814,6.751,25-6.72a1.581,1.581,0,0,1,1.944,1.1l1.2,4.468A1.58,1.58,0,0,1,89.8,42.967l-25,6.721,1.635,6.081,25-6.72a1.581,1.581,0,0,1,1.944,1.1l1.2,4.468a1.581,1.581,0,0,1-1.129,1.93l-25,6.72,1.635,6.082,25-6.721a1.58,1.58,0,0,1,1.944,1.1l1.2,4.468a1.58,1.58,0,0,1-1.129,1.93l-25,6.72,1.635,6.081,25-6.72a1.58,1.58,0,0,1,1.944,1.1l1.2,4.468a1.581,1.581,0,0,1-1.129,1.929l-25,6.721,1.634,6.081,25-6.72a1.581,1.581,0,0,1,1.945,1.1l1.2,4.468A1.582,1.582,0,0,1,104.4,97.3l-25,6.72,2.172,8.081,59.7-16.047a8.489,8.489,0,0,0,5.739-10.536L130.225,23.084a5.915,5.915,0,0,0-7.141-4.348Z"/></clipPath><clipPath id="clip-path-2"><path class="cls-2" d="M73.026,105.732l25.535-6.864a1.6,1.6,0,0,0,1.162-1.939l-1.2-4.468a1.6,1.6,0,0,0-1.977-1.095L71.01,98.23l-1.635-6.081L94.91,85.285a1.6,1.6,0,0,0,1.162-1.939l-1.2-4.468a1.6,1.6,0,0,0-1.977-1.094L67.359,84.648l-1.635-6.081L91.259,71.7a1.6,1.6,0,0,0,1.162-1.938L91.22,65.3a1.6,1.6,0,0,0-1.978-1.1L63.707,71.065l-1.634-6.081L87.608,58.12a1.6,1.6,0,0,0,1.162-1.939l-1.2-4.468a1.6,1.6,0,0,0-1.977-1.095L60.056,57.483,58.421,51.4l25.536-6.864A1.6,1.6,0,0,0,85.118,42.6l-1.2-4.468a1.6,1.6,0,0,0-1.977-1.094L56.405,43.9,54.59,37.148,4.243,50.682l20.608,76.665,119.485-32.12h0L75.2,113.813Z"/></clipPath></defs><title>integration</title><g id="Layer_2" data-name="Layer 2"><g id="Layer_1-2" data-name="Layer 1"><path class="cls-1" d="M60.965,35.435l1.814,6.751,25-6.72a1.581,1.581,0,0,1,1.944,1.1l1.2,4.468A1.58,1.58,0,0,1,89.8,42.967l-25,6.721,1.635,6.081,25-6.72a1.581,1.581,0,0,1,1.944,1.1l1.2,4.468a1.581,1.581,0,0,1-1.129,1.93l-25,6.72,1.635,6.082,25-6.721a1.58,1.58,0,0,1,1.944,1.1l1.2,4.468a1.58,1.58,0,0,1-1.129,1.93l-25,6.72,1.635,6.081,25-6.72a1.58,1.58,0,0,1,1.944,1.1l1.2,4.468a1.581,1.581,0,0,1-1.129,1.929l-25,6.721,1.634,6.081,25-6.72a1.581,1.581,0,0,1,1.945,1.1l1.2,4.468A1.582,1.582,0,0,1,104.4,97.3l-25,6.72,2.172,8.081,59.7-16.047a8.489,8.489,0,0,0,5.739-10.536L130.225,23.084a5.915,5.915,0,0,0-7.141-4.348Z"/><g class="cls-3"><polygon class="cls-4" points="141.306 60.276 151.851 96.694 109.934 104.763 141.306 60.276"/></g><path class="cls-2" d="M73.026,105.732l25.535-6.864a1.6,1.6,0,0,0,1.162-1.939l-1.2-4.468a1.6,1.6,0,0,0-1.977-1.095L71.01,98.23l-1.635-6.081L94.91,85.285a1.6,1.6,0,0,0,1.162-1.939l-1.2-4.468a1.6,1.6,0,0,0-1.977-1.094L67.359,84.648l-1.635-6.081L91.259,71.7a1.6,1.6,0,0,0,1.162-1.938L91.22,65.3a1.6,1.6,0,0,0-1.978-1.1L63.707,71.065l-1.634-6.081L87.608,58.12a1.6,1.6,0,0,0,1.162-1.939l-1.2-4.468a1.6,1.6,0,0,0-1.977-1.095L60.056,57.483,58.421,51.4l25.536-6.864A1.6,1.6,0,0,0,85.118,42.6l-1.2-4.468a1.6,1.6,0,0,0-1.977-1.094L56.405,43.9,54.59,37.148,4.243,50.682l20.608,76.665,119.485-32.12h0L75.2,113.813Z"/><g class="cls-5"><polygon class="cls-4" points="10.753 95.385 0 47.723 43.873 37.425 10.753 95.385"/></g><polygon class="cls-6" points="5.761 113.999 9.453 113.999 17.271 124.325 31.733 93.346 35.426 93.346 19.342 131.454 15.649 131.454 5.761 113.999"/><rect class="cls-7" x="0.782" width="150" height="150"/></g></g></svg>