<svg xmlns="http://www.w3.org/2000/svg" xmlns:xlink="http://www.w3.org/1999/xlink" viewBox="0 0 76 76"><defs><clipPath id="a"><rect width="76" height="76" style="fill:none"/></clipPath></defs><g style="isolation:isolate"><g style="clip-path:url(#a)"><path d="M21.18,73.3s0,0,0,0Z" style="opacity:0.15;mix-blend-mode:multiply"/><path d="M19.74,71.77s0,0,0,0Z" style="opacity:0.15;mix-blend-mode:multiply"/><path d="M57.18,12.94l.53,11.26H56.37A13.53,13.53,0,0,0,55.31,20a7.05,7.05,0,0,0-2.92-3,10.17,10.17,0,0,0-4.8-1H40.84V52.61c0,3,.31,4.79.95,5.52a5.33,5.33,0,0,0,4.14,1.49h1.66v1.31H27.25V59.62H29c2,0,3.46-.62,4.31-1.84.52-.76.78-2.48.78-5.17V16H28.27a16,16,0,0,0-4.77.5A6.56,6.56,0,0,0,20.35,19a10.54,10.54,0,0,0-1.56,5.17H17.45L18,12.94Z" style="fill:#0e3c62"/><path d="M13.91,62.29v4.93H5V65.74h7.65V62.29Z" style="fill:#e11e19"/><path d="M6.22,60.28a.89.89,0,0,1-.23.61.78.78,0,0,1-.58.25.8.8,0,0,1-.59-.25.85.85,0,0,1-.24-.61.88.88,0,0,1,.24-.62.76.76,0,0,1,.59-.25.75.75,0,0,1,.57.25A.88.88,0,0,1,6.22,60.28Zm7.69-.71V61H7.55V59.57Z" style="fill:#e11e19"/><path d="M13,56.06v0h.92v1.44H4.5V56.08H8.67v0A2.36,2.36,0,0,1,7.41,53.9,2.26,2.26,0,0,1,8.26,52a3.52,3.52,0,0,1,2.28-.68,4,4,0,0,1,2.56.76,2.53,2.53,0,0,1,1,2.08A2.06,2.06,0,0,1,13,56.06Zm-2.53,0h.79a1.67,1.67,0,0,0,1.18-.45,1.57,1.57,0,0,0-.14-2.38,3,3,0,0,0-1.74-.46,2.34,2.34,0,0,0-1.47.43,1.41,1.41,0,0,0-.53,1.15,1.54,1.54,0,0,0,.55,1.24A2,2,0,0,0,10.46,56.1Z" style="fill:#e11e19"/><path d="M8.93,46a1.16,1.16,0,0,0-.21.75,1.26,1.26,0,0,0,.58,1.06,2.53,2.53,0,0,0,1.57.43h3V49.7H7.55V48.26H8.86v0a2.24,2.24,0,0,1-1-.65,1.47,1.47,0,0,1-.38-1A1.16,1.16,0,0,1,7.56,46Z" style="fill:#e11e19"/><path d="M11.12,39.57V43.9a1.86,1.86,0,0,0,1.36-.54A2,2,0,0,0,13,41.93a3.07,3.07,0,0,0-.61-1.86h1.16a4.26,4.26,0,0,1,.55,2.29,2.84,2.84,0,0,1-.87,2.2,3.47,3.47,0,0,1-2.43.8,3.41,3.41,0,0,1-2.42-.88,2.88,2.88,0,0,1-.93-2.18,2.51,2.51,0,0,1,.83-2,3.52,3.52,0,0,1,2.33-.71ZM10.1,41a1.87,1.87,0,0,0-1.2.36,1.23,1.23,0,0,0-.43,1,1.41,1.41,0,0,0,.45,1,2.08,2.08,0,0,0,1.18.53Z" style="fill:#e11e19"/><path d="M14.06,34.2a4,4,0,0,1-1.25,3.09,4.58,4.58,0,0,1-3.25,1.15,4.82,4.82,0,0,1-3.42-1.18,4.14,4.14,0,0,1-1.28-3.2A4,4,0,0,1,6.1,31,4.62,4.62,0,0,1,9.35,29.9a4.86,4.86,0,0,1,3.44,1.17A4.08,4.08,0,0,1,14.06,34.2Zm-7.9-.06a2.49,2.49,0,0,0,.91,2,3.62,3.62,0,0,0,2.4.76,3.67,3.67,0,0,0,2.39-.74,2.42,2.42,0,0,0,.9-1.95,2.51,2.51,0,0,0-.86-2,3.6,3.6,0,0,0-2.41-.74A3.76,3.76,0,0,0,7,32.16,2.43,2.43,0,0,0,6.16,34.14Z" style="fill:#0e3c62"/><path d="M5.68,24.67a1.26,1.26,0,0,0-.17.67c0,.7.39,1,1.18,1h.86V24.91H8.68v1.47h5.23v1.44H8.68V28.9H7.55V27.82h-1a2,2,0,0,1-1.58-.66,2.38,2.38,0,0,1-.58-1.64,2.44,2.44,0,0,1,.12-.85Z" style="fill:#0e3c62"/><path d="M5.68,19.75a1.2,1.2,0,0,0-.17.66c0,.7.39,1.05,1.18,1.05h.86V20H8.68v1.47h5.23v1.44H8.68V24H7.55V22.89h-1a2,2,0,0,1-1.58-.65,2.74,2.74,0,0,1-.46-2.49Z" style="fill:#0e3c62"/><path d="M6.22,18.07a.85.85,0,0,1-.23.6.75.75,0,0,1-.58.26.77.77,0,0,1-.59-.26.81.81,0,0,1-.24-.6.86.86,0,0,1,.24-.62.76.76,0,0,1,.59-.25.75.75,0,0,1,.57.25A.86.86,0,0,1,6.22,18.07Zm7.69-.71v1.43H7.55V17.36Z" style="fill:#0e3c62"/><path d="M13.62,10.76a3.59,3.59,0,0,1,.44,1.81,3.06,3.06,0,0,1-.89,2.28,3.12,3.12,0,0,1-2.29.87,3.44,3.44,0,0,1-2.52-.93,3.34,3.34,0,0,1-.95-2.5,3.66,3.66,0,0,1,.3-1.53H9.05a2.31,2.31,0,0,0-.5,1.41,2,2,0,0,0,.62,1.5,2.25,2.25,0,0,0,1.62.58,2.13,2.13,0,0,0,1.55-.55,2,2,0,0,0,.57-1.47,2.3,2.3,0,0,0-.55-1.47Z" style="fill:#0e3c62"/><path d="M11.12,3.79V8.12a1.79,1.79,0,0,0,1.36-.54A2,2,0,0,0,13,6.16a3.12,3.12,0,0,0-.61-1.87h1.16a4.3,4.3,0,0,1,.55,2.3,2.82,2.82,0,0,1-.87,2.19,3.43,3.43,0,0,1-2.43.8A3.37,3.37,0,0,1,8.34,8.7a2.87,2.87,0,0,1-.93-2.18,2.47,2.47,0,0,1,.83-2,3.47,3.47,0,0,1,2.33-.72Zm-1,1.39a1.87,1.87,0,0,0-1.2.37,1.21,1.21,0,0,0-.43,1,1.39,1.39,0,0,0,.45,1,2,2,0,0,0,1.18.53Z" style="fill:#0e3c62"/><rect x="25.33" y="50.65" width="53.08" height="1.99" transform="translate(-21.32 51.8) rotate(-45)" style="fill:#fc0"/><rect x="23.93" y="49.24" width="53.08" height="1.99" transform="translate(-20.74 50.4) rotate(-45)" style="fill:#ffbd03"/><rect x="22.52" y="47.83" width="53.08" height="1.99" transform="translate(-20.16 48.99) rotate(-45)" style="fill:#f6a71c"/><polygon points="29.59 66.89 28.56 70.73 29.96 72.14 33.81 71.11 29.59 66.89" style="fill:#f3faff"/><polygon points="29.59 66.89 31 68.3 29.03 71.2 28.56 70.73 29.59 66.89" style="fill:#d6e6f2"/><polygon points="28.56 70.73 28.05 72.65 29.96 72.14 28.56 70.73" style="fill:#0e3c62"/><rect x="67.53" y="28.36" width="1.99" height="1.99" transform="translate(-0.69 57.06) rotate(-45)" style="fill:#e6e5e5"/><rect x="69.64" y="29.48" width="1.99" height="3.98" transform="translate(-1.56 59.16) rotate(-45)" style="fill:#fff"/><path d="M68.86,27.63l-.33.32,1.4,1.41.33-.33a3,3,0,0,1,2.11-.87,2.87,2.87,0,0,1,1.28.29,2.78,2.78,0,0,0-.58-.82A3,3,0,0,0,71,26.75,3,3,0,0,0,68.86,27.63Z" style="fill:#0e3c62"/><path d="M70.26,29l-.33.33,2.81,2.81.33-.33a3,3,0,0,0,.88-2.1,3,3,0,0,0-.3-1.29,2.87,2.87,0,0,0-1.28-.29A3,3,0,0,0,70.26,29Z" style="fill:#1c77c3"/></g></g></svg>