<svg xmlns="http://www.w3.org/2000/svg" xmlns:xlink="http://www.w3.org/1999/xlink" viewBox="0 0 76 76"><defs><clipPath id="a"><rect x="0.54" y="0.04" width="76" height="76" style="fill:none"/></clipPath></defs><g style="clip-path:url(#a)"><path d="M14.94,21.13,12.51,28.5H9.38l8-23.42H21L29,28.5H25.74l-2.5-7.37Zm7.68-2.36L20.32,12c-.52-1.53-.87-2.92-1.21-4.28H19c-.35,1.39-.73,2.82-1.18,4.24l-2.3,6.78Z" style="fill:#0e3c62"/><path d="M32.42,5.39a29.13,29.13,0,0,1,5.52-.48c3,0,5,.52,6.43,1.7a4.88,4.88,0,0,1,1.94,4.13,5.55,5.55,0,0,1-4,5.14V16a6,6,0,0,1,4.83,5.88,6.33,6.33,0,0,1-2,4.69c-1.63,1.49-4.27,2.19-8.09,2.19a34.92,34.92,0,0,1-4.69-.28Zm3,9.59h2.74c3.2,0,5.08-1.67,5.08-3.92,0-2.75-2.09-3.83-5.15-3.83a13.21,13.21,0,0,0-2.67.21Zm0,11.22a15.47,15.47,0,0,0,2.54.14c3.12,0,6-1.14,6-4.55,0-3.19-2.75-4.52-6.05-4.52h-2.5Z" style="fill:#0e3c62"/><path d="M67.62,27.73a15,15,0,0,1-6.19,1.12c-6.6,0-11.57-4.17-11.57-11.85,0-7.33,5-12.3,12.23-12.3a12.52,12.52,0,0,1,5.56,1l-.73,2.47a11,11,0,0,0-4.73-1c-5.48,0-9.13,3.51-9.13,9.66,0,5.74,3.3,9.42,9,9.42a12.11,12.11,0,0,0,4.93-1Z" style="fill:#0e3c62"/><rect x="9.72" y="71.64" width="57.65" height="3.26" style="fill:#0e3c62"/><path d="M9.42,49.26H24.06a2.81,2.81,0,0,1,2.81,2.81V68.45a0,0,0,0,1,0,0H9.42a0,0,0,0,1,0,0V49.26A0,0,0,0,1,9.42,49.26Z" style="fill:#9be3e1"/><path d="M30,42.83H44.69a2.81,2.81,0,0,1,2.81,2.81v22.8a0,0,0,0,1,0,0H30a0,0,0,0,1,0,0V42.83A0,0,0,0,1,30,42.83Z" style="fill:#36c6c4"/><path d="M49.8,38H64.45a2.81,2.81,0,0,1,2.81,2.81V68.26a0,0,0,0,1,0,0H49.8a0,0,0,0,1,0,0V38A0,0,0,0,1,49.8,38Z" style="fill:#04b8b5"/></g></svg>