<svg xmlns="http://www.w3.org/2000/svg" xmlns:xlink="http://www.w3.org/1999/xlink" viewBox="0 0 150 150"><defs><style>.cls-1{fill:#dbe2e8;}.cls-2{fill:#ced6dd;}.cls-3{fill:none;}.cls-4{fill:#b0b8bc;}.cls-5{clip-path:url(#clip-path);}.cls-6{fill:#fff;opacity:0.43;}.cls-7{clip-path:url(#clip-path-2);}.cls-8{clip-path:url(#clip-path-3);}.cls-9{fill:#f08e8c;}.cls-10{fill:#7cb892;}</style><clipPath id="clip-path"><path class="cls-1" d="M80.79,66.66c-34.253,0-62.021,7.778-62.021,17.372S46.537,101.4,80.79,101.4s62.022-7.778,62.022-17.372S115.044,66.66,80.79,66.66Zm0,22.159c-9.438,0-17.089-2.144-17.089-4.787s7.651-4.787,17.089-4.787,17.09,2.143,17.09,4.787S90.229,88.819,80.79,88.819Z"/></clipPath><clipPath id="clip-path-2"><path class="cls-1" d="M81.909,49.756c-34.253,0-62.021,7.778-62.021,17.372S47.656,84.5,81.909,84.5s62.022-7.778,62.022-17.372S116.163,49.756,81.909,49.756Zm0,22.159c-9.438,0-17.089-2.143-17.089-4.787s7.651-4.787,17.089-4.787S99,64.484,99,67.128,91.347,71.915,81.909,71.915Z"/></clipPath><clipPath id="clip-path-3"><path class="cls-2" d="M82.133,32.528c-34.254,0-62.022,7.778-62.022,17.372S47.879,67.272,82.133,67.272s62.022-7.778,62.022-17.372S116.387,32.528,82.133,32.528Zm0,22.158c-9.438,0-17.089-2.143-17.089-4.786s7.651-4.787,17.089-4.787S99.222,47.256,99.222,49.9,91.571,54.686,82.133,54.686Z"/></clipPath></defs><title>no-installation</title><g id="Layer_2" data-name="Layer 2"><g id="Layer_1-2" data-name="Layer 1"><rect class="cls-3" width="150" height="150"/><path class="cls-4" d="M80.343,67.779c-34.254,0-62.022,7.777-62.022,17.372s27.768,17.371,62.022,17.371,62.022-7.777,62.022-17.371S114.6,67.779,80.343,67.779Zm0,22.158c-9.438,0-17.089-2.143-17.089-4.786s7.651-4.787,17.089-4.787,17.089,2.143,17.089,4.787S89.781,89.937,80.343,89.937Z"/><path class="cls-1" d="M80.79,66.66c-34.253,0-62.021,7.778-62.021,17.372S46.537,101.4,80.79,101.4s62.022-7.778,62.022-17.372S115.044,66.66,80.79,66.66Zm0,22.159c-9.438,0-17.089-2.144-17.089-4.787s7.651-4.787,17.089-4.787,17.09,2.143,17.09,4.787S90.229,88.819,80.79,88.819Z"/><g class="cls-5"><polygon class="cls-6" points="64.486 83.506 17.96 91.966 16.133 76.098 64.486 83.506"/><polygon class="cls-6" points="95.66 83.509 142.186 91.947 144.014 76.117 95.66 83.509"/></g><path class="cls-4" d="M81.462,50.875c-34.254,0-62.022,7.778-62.022,17.372S47.208,85.619,81.462,85.619s62.021-7.778,62.021-17.372S115.715,50.875,81.462,50.875Zm0,22.158c-9.439,0-17.09-2.143-17.09-4.786s7.651-4.787,17.09-4.787S98.551,65.6,98.551,68.247,90.9,73.033,81.462,73.033Z"/><path class="cls-1" d="M81.909,49.756c-34.253,0-62.021,7.778-62.021,17.372S47.656,84.5,81.909,84.5s62.022-7.778,62.022-17.372S116.163,49.756,81.909,49.756Zm0,22.159c-9.438,0-17.089-2.143-17.089-4.787s7.651-4.787,17.089-4.787S99,64.484,99,67.128,91.347,71.915,81.909,71.915Z"/><g class="cls-7"><polygon class="cls-6" points="65.605 66.602 19.078 75.062 17.252 59.194 65.605 66.602"/><polygon class="cls-6" points="96.779 66.605 143.304 75.043 145.132 59.213 96.779 66.605"/></g><path class="cls-4" d="M81.685,34.318c-34.253,0-62.021,7.778-62.021,17.372S47.432,69.062,81.685,69.062s62.022-7.778,62.022-17.372S115.939,34.318,81.685,34.318Zm0,22.158c-9.438,0-17.089-2.143-17.089-4.786S72.247,46.9,81.685,46.9s17.09,2.143,17.09,4.787S91.124,56.476,81.685,56.476Z"/><path class="cls-2" d="M82.133,32.528c-34.254,0-62.022,7.778-62.022,17.372S47.879,67.272,82.133,67.272s62.022-7.778,62.022-17.372S116.387,32.528,82.133,32.528Zm0,22.158c-9.438,0-17.089-2.143-17.089-4.786s7.651-4.787,17.089-4.787S99.222,47.256,99.222,49.9,91.571,54.686,82.133,54.686Z"/><g class="cls-8"><polygon class="cls-6" points="65.829 49.374 19.302 57.834 17.476 41.966 65.829 49.374"/><polygon class="cls-6" points="97.002 49.377 143.528 57.815 145.356 41.985 97.002 49.377"/></g><path class="cls-9" d="M128.713,99.628,104.19,121.6,80.74,99.005l13.686.174V75.259a2.042,2.042,0,0,1,2.043-2.043h16.515a2.049,2.049,0,0,1,2.043,2.043V99.454Z"/><rect class="cls-9" x="94.781" y="66.83" width="19.89" height="4.146" rx="1"/><rect class="cls-9" x="94.781" y="60.237" width="19.89" height="4.146" rx="1"/><line class="cls-10" x1="42.977" y1="30.027" x2="7.469" y2="65.534"/><rect class="cls-10" x="0.115" y="45.484" width="50.216" height="4.593" transform="translate(-26.398 31.83) rotate(-45)"/><line class="cls-10" x1="7.469" y1="30.027" x2="42.977" y2="65.534"/><rect class="cls-10" x="22.927" y="22.673" width="4.593" height="50.216" transform="translate(-26.398 31.83) rotate(-45)"/></g></g></svg>