<svg xmlns="http://www.w3.org/2000/svg" xmlns:xlink="http://www.w3.org/1999/xlink" viewBox="0 0 76 76"><defs><clipPath id="a"><rect width="76" height="76" style="fill:none"/></clipPath></defs><g style="clip-path:url(#a)"><rect x="12.88" y="30.9" width="46.41" height="9.6" transform="translate(-14.68 36) rotate(-45.03)" style="fill:#1c77c3"/><path d="M48.73,16.39l-3.67,3.55A10.08,10.08,0,0,0,47.62,24a10.54,10.54,0,0,0,4.23,2.47L55.51,23Z" style="fill:#1a72ad"/><path d="M23.56,55.13l3.66-3.66a10.24,10.24,0,0,0-2.56-4.23,10.39,10.39,0,0,0-4.23-2.56l-3.66,3.66Z" style="fill:#1a72ad"/><path d="M66.62,12,60.1,18.47l-6.79-6.78,6.52-6.52A10.4,10.4,0,1,0,66.62,12Z" style="fill:#77addb"/><path d="M5.55,59.45l6.52-6.52,6.78,6.78-6.51,6.52a10.38,10.38,0,1,0-6.79-6.78Z" style="fill:#77addb"/><path d="M64.93,70.58a2.47,2.47,0,0,1-3.51,0L39.77,48.93l8.78-8.78L70.2,61.8a2.49,2.49,0,0,1,0,3.52Z" style="fill:#e11e19"/><polygon points="19.26 17.59 19.31 14.82 12.42 10.74 10.36 12.8 14.44 19.69 17.2 19.64 39.71 42.15 41.77 40.09 19.26 17.59" style="fill:#6588ab"/><path d="M67.57,62.68,49.42,44.54a1.22,1.22,0,0,0-1.75,0,1.21,1.21,0,0,0-.36.88,1.23,1.23,0,0,0,.36.88L65.81,64.44a1.24,1.24,0,0,0,2.12-.88A1.26,1.26,0,0,0,67.57,62.68Z" style="fill:#c60006"/><path d="M64.06,66.19,45.91,48.05a1.19,1.19,0,0,0-.87-.36,1.16,1.16,0,0,0-.88.36,1.22,1.22,0,0,0-.37.88,1.24,1.24,0,0,0,.37.88L62.3,68a1.26,1.26,0,0,0,.88.36,1.24,1.24,0,0,0,.88-2.12Z" style="fill:#c60006"/><rect x="38.72" y="40.41" width="7.45" height="4.83" transform="translate(-17.85 42.53) rotate(-44.97)" style="fill:#c60006"/><polygon points="11.69 12.47 13.99 15.21 11.14 12.08 11.27 11.9 11.69 12.47" style="fill:#719abc"/><polygon points="12.04 12.12 14.63 15.21 11.49 11.74 11.62 11.55 12.04 12.12" style="fill:#719abc"/><polygon points="12.41 11.77 15.35 15.55 11.86 11.38 11.99 11.2 12.41 11.77" style="fill:#719abc"/><rect x="38.71" y="44.27" width="3.5" height="0.74" transform="translate(43.41 -15.54) rotate(45)" style="fill:#e11e19"/><rect x="39.68" y="43.3" width="3.5" height="0.74" transform="translate(43.02 -16.5) rotate(45)" style="fill:#e11e19"/><rect x="40.82" y="42.3" width="3.5" height="0.74" transform="translate(42.65 -17.6) rotate(45)" style="fill:#e11e19"/><rect x="41.77" y="41.21" width="3.5" height="0.74" transform="translate(42.15 -18.59) rotate(45)" style="fill:#e11e19"/><rect x="42.76" y="40.36" width="3.5" height="0.74" transform="translate(41.84 -19.54) rotate(45)" style="fill:#e11e19"/></g></svg>