<svg xmlns="http://www.w3.org/2000/svg" xmlns:xlink="http://www.w3.org/1999/xlink" viewBox="0 0 76 76"><defs><clipPath id="a"><rect width="76" height="76" style="fill:none"/></clipPath></defs><g style="clip-path:url(#a)"><path d="M15.56,59.27a1.3,1.3,0,0,1,0-2.25l20.85-14.8a2.93,2.93,0,0,1,3.17,0L60.44,57a1.3,1.3,0,0,1,0,2.25L39.58,74.06a2.93,2.93,0,0,1-3.17,0Z" style="fill:#155992"/><path d="M37.58,59.18a.42.42,0,0,1,.42-.42h0a.42.42,0,0,1,.42.42h0a.42.42,0,0,1-.42.42h0A.42.42,0,0,1,37.58,59.18Zm0-1.68a.42.42,0,0,1,.42-.42h0a.42.42,0,0,1,.42.42h0a.42.42,0,0,1-.42.42h0A.42.42,0,0,1,37.58,57.5Zm0-1.68A.42.42,0,0,1,38,55.4h0a.42.42,0,0,1,.42.42h0a.42.42,0,0,1-.42.42h0A.42.42,0,0,1,37.58,55.82Zm0-1.67a.42.42,0,0,1,.42-.42h0a.42.42,0,0,1,.42.42h0a.42.42,0,0,1-.42.42h0A.42.42,0,0,1,37.58,54.15Zm0-1.68a.42.42,0,0,1,.42-.42h0a.42.42,0,0,1,.42.42h0a.42.42,0,0,1-.42.42h0A.42.42,0,0,1,37.58,52.47Zm0-1.68a.42.42,0,0,1,.42-.42h0a.42.42,0,0,1,.42.42h0a.42.42,0,0,1-.42.42h0A.42.42,0,0,1,37.58,50.79Zm0-1.68a.42.42,0,0,1,.42-.42h0a.42.42,0,0,1,.42.42h0a.42.42,0,0,1-.42.42h0A.42.42,0,0,1,37.58,49.11Zm0-1.68A.42.42,0,0,1,38,47h0a.42.42,0,0,1,.42.42h0a.42.42,0,0,1-.42.42h0A.42.42,0,0,1,37.58,47.43Zm0-1.68a.42.42,0,0,1,.42-.42h0a.42.42,0,0,1,.42.42h0a.42.42,0,0,1-.42.42h0A.42.42,0,0,1,37.58,45.75Zm0-1.68a.42.42,0,0,1,.42-.42h0a.42.42,0,0,1,.42.42h0a.42.42,0,0,1-.42.42h0A.42.42,0,0,1,37.58,44.07Zm0-1.68A.42.42,0,0,1,38,42h0a.42.42,0,0,1,.42.42h0a.42.42,0,0,1-.42.42h0A.42.42,0,0,1,37.58,42.39Zm0-1.68a.42.42,0,0,1,.42-.42h0a.42.42,0,0,1,.42.42h0a.42.42,0,0,1-.42.42h0A.42.42,0,0,1,37.58,40.71Zm0-1.68a.42.42,0,0,1,.42-.42h0a.42.42,0,0,1,.42.42h0a.42.42,0,0,1-.42.42h0A.42.42,0,0,1,37.58,39Z" style="fill:#fff"/><path d="M15.56,39.38a1.3,1.3,0,0,1,0-2.25L36.41,22.34a2.93,2.93,0,0,1,3.17,0L60.44,37.13a1.3,1.3,0,0,1,0,2.25L39.58,54.18a2.93,2.93,0,0,1-3.17,0Z" style="fill:#77addb;opacity:0.58"/><path d="M37.58,35.5a.42.42,0,0,1,.42-.42h0a.42.42,0,0,1,.42.42h0a.42.42,0,0,1-.42.42h0A.42.42,0,0,1,37.58,35.5Zm0-1.68A.42.42,0,0,1,38,33.4h0a.42.42,0,0,1,.42.42h0a.42.42,0,0,1-.42.42h0A.42.42,0,0,1,37.58,33.82Zm0-1.68a.42.42,0,0,1,.42-.42h0a.42.42,0,0,1,.42.42h0a.42.42,0,0,1-.42.42h0A.42.42,0,0,1,37.58,32.14Zm0-1.68A.42.42,0,0,1,38,30h0a.42.42,0,0,1,.42.42h0a.42.42,0,0,1-.42.42h0A.42.42,0,0,1,37.58,30.46Zm0-1.69a.42.42,0,0,1,.42-.41h0a.42.42,0,0,1,.42.41h0a.42.42,0,0,1-.42.43h0A.42.42,0,0,1,37.58,28.77Zm0-1.67a.42.42,0,0,1,.42-.42h0a.42.42,0,0,1,.42.42h0a.42.42,0,0,1-.42.42h0A.42.42,0,0,1,37.58,27.1Zm0-1.68A.42.42,0,0,1,38,25h0a.42.42,0,0,1,.42.42h0a.42.42,0,0,1-.42.42h0A.42.42,0,0,1,37.58,25.42Zm0-1.67a.42.42,0,0,1,.42-.42h0a.42.42,0,0,1,.42.42h0a.43.43,0,0,1-.42.42h0A.43.43,0,0,1,37.58,23.75Zm0-1.68a.42.42,0,0,1,.42-.42h0a.42.42,0,0,1,.42.42h0a.43.43,0,0,1-.42.42h0A.43.43,0,0,1,37.58,22.07Zm0-1.68A.42.42,0,0,1,38,20h0a.42.42,0,0,1,.42.42h0a.43.43,0,0,1-.42.42h0A.43.43,0,0,1,37.58,20.39Zm0-1.68a.42.42,0,0,1,.42-.42h0a.42.42,0,0,1,.42.42h0a.43.43,0,0,1-.42.42h0A.43.43,0,0,1,37.58,18.71Zm0-1.68a.42.42,0,0,1,.42-.42h0a.42.42,0,0,1,.42.42h0a.42.42,0,0,1-.42.42h0A.42.42,0,0,1,37.58,17Z" style="fill:#fff"/><path d="M60.44,17.21,39.58,2.42a2.93,2.93,0,0,0-3.17,0L15.56,17.21a1.3,1.3,0,0,0,0,2.25l20.85,14.8a2.93,2.93,0,0,0,3.17,0l20.86-14.8A1.3,1.3,0,0,0,60.44,17.21Z" style="fill:#a4c9e7;opacity:0.58"/></g></svg>