<svg xmlns="http://www.w3.org/2000/svg" xmlns:xlink="http://www.w3.org/1999/xlink" viewBox="0 0 76 76"><defs><clipPath id="a"><rect width="76" height="76" style="fill:none"/></clipPath></defs><g style="clip-path:url(#a)"><path d="M14.73,70.4H62.24a5.36,5.36,0,0,0,5.19-5.52V12.08l.11-9.84L21.11,1.92l-3.51,3L14.51,7.55Z" style="fill:#e9f5ff"/><path d="M62.24,70.61H14.52l0-62.74h6.73L21.16,2H67.75l-.1,10.05v52.8A5.58,5.58,0,0,1,62.24,70.61Zm-47.3-.43h47.3a5.15,5.15,0,0,0,5-5.3V12.08l.11-9.63H21.82V8.58L15,8.62Z" style="fill:#a4c9e7"/><path d="M53,36.75a12.1,12.1,0,0,1-10.91-7.12h9.58l1.46-3.56H41.05l-.13-1.78.13-1.78H54.57L56,19h-14A12.09,12.09,0,0,1,53,11.84a11.9,11.9,0,0,1,9.48,4.75V11.65A15.17,15.17,0,0,0,53,8.28,15.59,15.59,0,0,0,38.34,19H35.47l-1.72,3.56h3.82l-.08,1.78.08,1.78h-2.1l-1.72,3.56h4.59A15.59,15.59,0,0,0,53,40.3,15,15,0,0,0,62.47,37V32A11.88,11.88,0,0,1,53,36.75Z" style="fill:#6588ab"/><ellipse cx="24.09" cy="63.31" rx="20.37" ry="11.76" style="fill:#f3faff"/><path d="M24.09,75.78a24.33,24.33,0,0,1-21-12.12l-.21-.35L3.1,63c4.33-7.48,12.37-13.12,21-13.12s16.66,5.65,21,13.12l.2.36-.2.35A24.33,24.33,0,0,1,24.09,75.78ZM4.54,63.31a22.81,22.81,0,0,0,39.09,0c-4.11-6.83-11.57-10.05-19.54-10.05S8.66,56.48,4.54,63.31Z" style="fill:#00558c"/><path d="M32.68,63.68a8.59,8.59,0,1,1-8.59-8.59A8.59,8.59,0,0,1,32.68,63.68Z" style="fill:#04b8b5"/><path d="M28.15,63.68a4.06,4.06,0,1,1-4.06-4.06A4.06,4.06,0,0,1,28.15,63.68Z" style="fill:#124e77"/><path d="M23.32,60.81a2.1,2.1,0,1,1-2.1-2.1A2.1,2.1,0,0,1,23.32,60.81Z" style="fill:#fff"/><path d="M22,64.52a.75.75,0,1,1-.74-.75A.75.75,0,0,1,22,64.52Z" style="fill:#fff"/></g></svg>