<svg xmlns="http://www.w3.org/2000/svg" xmlns:xlink="http://www.w3.org/1999/xlink" viewBox="0 0 76 76"><defs><clipPath id="a"><rect width="76" height="76" style="fill:none"/></clipPath></defs><g style="clip-path:url(#a)"><path d="M26.73,43.22a14.41,14.41,0,0,1-13-8.49H25.14l1.75-4.24H12.47l-.14-2.13.14-2.12H28.61L30.36,22H13.71a14.43,14.43,0,0,1,13-8.49A14.25,14.25,0,0,1,38,19.17V13.28a18,18,0,0,0-11.31-4A18.6,18.6,0,0,0,9.25,22H5.83L3.77,26.24H8.33l-.1,2.12.1,2.13H5.83L3.77,34.73H9.25A18.61,18.61,0,0,0,26.73,47.47a17.92,17.92,0,0,0,11.31-4V37.56A14.21,14.21,0,0,1,26.73,43.22Z" style="fill:#b6d4ec"/><polygon points="31.83 64.52 31.99 69.22 21.26 69.57 21.39 73.78 9.82 67.61 20.96 60.66 21.09 64.88 31.83 64.52" style="fill:#155992"/><polygon points="52.15 38.03 51.99 42.74 62.72 43.09 62.59 47.3 74.16 41.12 63.02 34.18 62.89 38.39 52.15 38.03" style="fill:#155992"/><path d="M58.8,51.08a1.33,1.33,0,0,0-1.33-1.33H25.55a1.33,1.33,0,0,0-1.33,1.33v14a1.33,1.33,0,0,0,1.33,1.33H57.47a1.33,1.33,0,0,0,1.33-1.33Z" style="fill:#04b8b5"/><path d="M58.8,49.91a1.33,1.33,0,0,0-1.33-1.33H25.55a1.33,1.33,0,0,0-1.33,1.33V64a1.33,1.33,0,0,0,1.33,1.33H57.47A1.33,1.33,0,0,0,58.8,64Z" style="fill:#9be3e1"/><path d="M58.8,48.74a1.33,1.33,0,0,0-1.33-1.33H25.55a1.33,1.33,0,0,0-1.33,1.33v14a1.31,1.31,0,0,0,.39.94,1.33,1.33,0,0,0,.94.39H57.47a1.33,1.33,0,0,0,.94-.39,1.31,1.31,0,0,0,.39-.94Z" style="fill:#04b8b5"/><path d="M58.8,47.58a1.33,1.33,0,0,0-1.33-1.33H25.55a1.33,1.33,0,0,0-1.33,1.33v14A1.33,1.33,0,0,0,25.55,63H57.47a1.33,1.33,0,0,0,1.33-1.33Z" style="fill:#9be3e1"/><path d="M58.8,46.41a1.33,1.33,0,0,0-1.33-1.33H25.55a1.33,1.33,0,0,0-1.33,1.33v14a1.33,1.33,0,0,0,1.33,1.33H57.47a1.33,1.33,0,0,0,1.33-1.33Z" style="fill:#04b8b5"/><path d="M58.8,45.24a1.33,1.33,0,0,0-1.33-1.33H25.55a1.33,1.33,0,0,0-1.33,1.33v14a1.33,1.33,0,0,0,1.33,1.33H57.47a1.33,1.33,0,0,0,1.33-1.33Z" style="fill:#9be3e1"/><path d="M58.8,44.08a1.33,1.33,0,0,0-.39-.95,1.36,1.36,0,0,0-.94-.38H25.55a1.36,1.36,0,0,0-.94.38,1.33,1.33,0,0,0-.39.95v14a1.34,1.34,0,0,0,.39.94,1.36,1.36,0,0,0,.94.38H57.47a1.36,1.36,0,0,0,.94-.38,1.34,1.34,0,0,0,.39-.94Z" style="fill:#04b8b5"/><path d="M58.8,42.91a1.33,1.33,0,0,0-1.33-1.33H25.55a1.33,1.33,0,0,0-1.33,1.33V57a1.33,1.33,0,0,0,1.33,1.33H57.47A1.33,1.33,0,0,0,58.8,57Z" style="fill:#9be3e1"/><path d="M58.8,41.74a1.33,1.33,0,0,0-1.33-1.33H25.55a1.33,1.33,0,0,0-1.33,1.33v14a1.33,1.33,0,0,0,1.33,1.33H57.47a1.33,1.33,0,0,0,1.33-1.33Z" style="fill:#04b8b5"/><path d="M57,53.36a1.9,1.9,0,0,0-1.91,1.91H28a1.9,1.9,0,0,0-1.9-1.91v-9.2a1.9,1.9,0,0,0,1.9-1.9H55.05A1.9,1.9,0,0,0,57,44.16Z" style="fill:#9be3e1"/><path d="M41.51,53.87a5.11,5.11,0,1,1,5.11-5.11A5.11,5.11,0,0,1,41.51,53.87Z" style="fill:#04b8b5"/><rect x="48.16" y="48.18" width="4.48" height="1.17" style="fill:#04b8b5"/><rect x="30.39" y="48.18" width="4.48" height="1.17" style="fill:#04b8b5"/><rect x="38.46" y="40.41" width="6.1" height="16.7" style="fill:#fff"/><rect x="38.46" y="57.11" width="6.1" height="9.34" style="fill:#e6e5e5"/><circle cx="59.37" cy="16.03" r="13.82" style="fill:#fc0"/><rect x="51.14" y="5.83" width="17.73" height="17.73" style="fill:#fff;opacity:0"/><path d="M65.47,20.2a.82.82,0,0,0-.81-.82H55.34a.82.82,0,0,0-.81.82.81.81,0,0,0,.81.81h9.32a.81.81,0,0,0,.81-.81Zm0,0" style="fill:#0e3c62"/><path d="M53.71,13.61h0L55,18.28H65l1.29-4.67h0a1,1,0,1,0-1-1,.73.73,0,0,0,0,.3L63,14.31l-2.5-4.16a1,1,0,1,0-1.07,0L57,14.31l-2.33-1.37a1,1,0,0,0,0-.3,1,1,0,1,0-1,1Zm0,0" style="fill:#0e3c62"/></g></svg>