<svg xmlns="http://www.w3.org/2000/svg" xmlns:xlink="http://www.w3.org/1999/xlink" viewBox="0 0 76 76"><defs><clipPath id="a"><rect width="76" height="76" style="fill:none"/></clipPath><clipPath id="b"><polygon points="29.41 17.76 32.93 23.76 32.69 32.42 34.69 35.25 48.37 25.59 46.37 22.76 38.12 20.09 33.65 14.76 29.41 17.76" style="fill:#a4c9e7"/></clipPath><clipPath id="c"><path d="M70.08,67.55l-2.9,2a4,4,0,0,1-5.47-.84l-27-33.51,13.68-9.66L71.05,62.47A3.72,3.72,0,0,1,70.08,67.55Z" style="fill:#1c77c3"/></clipPath></defs><g style="clip-path:url(#a)"><rect x="4.34" y="7.37" width="64.4" height="1.21" rx="0.61" style="fill:#6588ab"/><rect x="4.34" y="14.04" width="64.4" height="1.21" rx="0.61" style="fill:#6588ab"/><rect x="4.34" y="19.71" width="55.73" height="1.21" rx="0.61" style="fill:#6588ab"/><rect x="4.34" y="25.39" width="55.73" height="1.21" rx="0.61" style="fill:#6588ab"/><rect x="4.34" y="31.41" width="55.73" height="1.21" rx="0.61" style="fill:#6588ab"/><rect x="4.34" y="37.61" width="55.73" height="1.21" rx="0.61" style="fill:#6588ab"/><rect x="4.34" y="43.29" width="64.4" height="1.21" rx="0.61" style="fill:#6588ab"/><rect x="4.34" y="48.96" width="64.4" height="1.21" rx="0.61" style="fill:#6588ab"/><polygon points="26.5 17.07 7.63 17.07 7.63 11.87 29.73 11.87 26.5 17.07" style="fill:#0e3c62"/><polygon points="29.88 17.43 28.88 16.01 31.08 11.69 33.41 14.99 29.88 17.43" style="fill:#124e77"/><polygon points="29.41 17.76 32.93 23.76 32.69 32.42 34.69 35.25 48.37 25.59 46.37 22.76 38.12 20.09 33.65 14.76 29.41 17.76" style="fill:#a4c9e7"/><g style="clip-path:url(#b)"><polygon points="29.41 17.76 32.93 23.76 32.69 32.42 34.69 35.25 41.86 30.23 39.44 26.79 37.46 23.99 31.87 16.08 29.41 17.76" style="fill:#cce4f2"/></g><path d="M70.08,67.55l-2.9,2a4,4,0,0,1-5.47-.84l-27-33.51,13.68-9.66L71.05,62.47A3.72,3.72,0,0,1,70.08,67.55Z" style="fill:#1c77c3"/><g style="clip-path:url(#c)"><path d="M68.76,68.31,67.18,69.6a4,4,0,0,1-5.47-.84l-27-33.51,7.07-5.17L67,65.79C68.08,67.47,68.9,68.21,68.76,68.31Z" style="fill:#a4c9e7;opacity:0.1"/></g></g></svg>