<svg xmlns="http://www.w3.org/2000/svg" xmlns:xlink="http://www.w3.org/1999/xlink" viewBox="0 0 76 76"><defs><clipPath id="a"><rect width="76" height="76" style="fill:none"/></clipPath></defs><g style="clip-path:url(#a)"><path d="M29.11,37l0-.08c.91-4.48-.67-6.55-2.16-7.5-3.76-2.38-10.45-.19-14.83,3.08-4,3-5.83,6.56-5,9.76.2,1.45,1.76,2.48,4.29,2.82.4,0,3.93.48,4.47-.9a1.09,1.09,0,0,0-.52-1.33l-.24-.17-.3,0C11.6,43,9.44,42.54,9,41.39c-.63-1.53,1.29-4.54,4.57-7.14,3.88-3.1,9.19-5.24,12.34-3.12A5.62,5.62,0,0,1,27,36.66C25.49,41.84,18,47,13.47,48.24c-1.61.52-2.34.41-2.52.26s-.07-.41-.06-.51v-.13a.91.91,0,0,0-.48-.93.94.94,0,0,0-1.07.28,1.71,1.71,0,0,1-1.06.56s-.12,0-.23-.18l-.6-.89-.68.84a4.87,4.87,0,0,1-1.67.82,2.25,2.25,0,0,0,.14-1.86,1,1,0,0,0-.86-.59,3.13,3.13,0,0,0-3.11,1.46,2.27,2.27,0,0,0,.15,2.47,2.65,2.65,0,0,0,2.16.92,4.9,4.9,0,0,0,1.19-.15A5.64,5.64,0,0,0,6.56,50c.66-.31.87-.36,1.16-.21l.21.11.22,0a3.9,3.9,0,0,0,1.12-.25c.05.08.13.19.23.36l.18.31.36.06C17.24,51.68,26.89,43.91,29.11,37ZM3.72,48.64a1.11,1.11,0,0,1-.62-.09.45.45,0,0,1,0-.12,1.26,1.26,0,0,1,.24-.19A1,1,0,0,0,3.72,48.64Z" style="fill:#00558c"/><path d="M51,33.39a1,1,0,0,0-1.24,0c-2.83,1.63-4.73,4.31-6.57,6.89-2,2.85-3.94,5.54-7,6.85a7.19,7.19,0,0,1-3.43.49,1.11,1.11,0,0,0-.32-.86,2,2,0,0,0-2.06-.54h0a2.35,2.35,0,0,0-1.18-.74l-.08,0c-2.62-.52-8.38,1.42-9.22,4.17l-.43,1.4,1.41-.41a10.65,10.65,0,0,0,2.4-1.29c1.58-1,3.35-2.12,4.83-1.79a1.33,1.33,0,0,0,.36,1.21l.4.51.58-.29.41-.23c.16-.09.4-.23.6-.32a1.47,1.47,0,0,0,.26.74,1.52,1.52,0,0,0,1.18.63,5.68,5.68,0,0,0,.84.09,5.7,5.7,0,0,0,3.52-.47,22.31,22.31,0,0,1-4.84,3.89c-3.68,2.45-7.49,5-6.72,10.07a1,1,0,0,0,1.21.88h.19l.18-.08c3.18-1.37,5.07-4.29,6.9-7.12,1.93-3,3.75-5.79,6.91-6.79.19-.05.41-.13.66-.21a6.2,6.2,0,0,1,2-.44l.15.35.46.05a5.61,5.61,0,0,0,3-.75c.26-.12.51-.24.77-.34l.13-.07a1.7,1.7,0,0,1,.28,0,1.08,1.08,0,0,0,1.05-1.64l-.21-.46H48a5.58,5.58,0,0,0-2.4.71,8.21,8.21,0,0,1-1.11.46h0c-1-.85-4.14.16-4.18.17l-.09.05c-.12,0-.22.11-.32.16.67-.7,1.51-1.53,2.29-2.31,4.78-4.74,8.76-8.89,9-11.56h0A.8.8,0,0,0,51,33.39Zm-24.06,28c.25-2.21,2.5-4,4.55-5.47l-.14.22A19,19,0,0,1,26.93,61.34Z" style="fill:#00558c"/><rect x="38.99" y="23.22" width="40.4" height="5.63" transform="translate(5.06 61.41) rotate(-56.91)" style="fill:#1c77c3"/><path d="M71.86,3.46l2.88,1.88,1-1.58a.9.9,0,0,0,.13-.7.92.92,0,0,0-.4-.59l-1.31-.86a1,1,0,0,0-.71-.13.93.93,0,0,0-.59.41Z" style="fill:#e11e19"/><path d="M70.42,3.65a1,1,0,0,1,.6-.41.94.94,0,0,1,.7.13l3.15,2.05a1,1,0,0,1,.41.6,1,1,0,0,1-.14.7l-2.56,3.93L67.86,7.58Z" style="fill:#a4c9e7"/><path d="M67.86,7.58l-.68,1.05a1,1,0,0,0-1.44.3L58.62,19.85l-1-.68L64.69,8.25a2.29,2.29,0,0,1,3.17-.67Z" style="fill:#e11e19"/><path d="M45.64,48l-1.19,1a.22.22,0,0,1-.35-.23l.44-1.5Z" style="fill:#0e3c62"/><polygon points="44.15 47.06 46.03 48.29 50.52 44.49 45.8 41.42 44.15 47.06" style="fill:#a4c9e7"/></g></svg>