<svg xmlns="http://www.w3.org/2000/svg" xmlns:xlink="http://www.w3.org/1999/xlink" viewBox="0 0 76 76"><defs><clipPath id="a"><rect width="76" height="76" style="fill:none"/></clipPath></defs><g style="clip-path:url(#a)"><path d="M55,7.84l.63,13.36h-1.6a16.27,16.27,0,0,0-1.26-5.05,8.43,8.43,0,0,0-3.47-3.59,12.08,12.08,0,0,0-5.69-1.15h-8V54.93c0,3.5.37,5.69,1.13,6.56a6.34,6.34,0,0,0,4.92,1.76h2v1.56H19.48V63.25h2q3.62,0,5.13-2.18c.61-.9.92-2.94.92-6.14V11.41H20.7A18.8,18.8,0,0,0,15,12a7.77,7.77,0,0,0-3.74,3.06A12.56,12.56,0,0,0,9.44,21.2H7.85L8.52,7.84Z" style="fill:#0e3c62"/><rect x="17.18" y="46.58" width="63.02" height="2.36" transform="translate(-19.51 48.41) rotate(-45)" style="fill:#fc0"/><rect x="15.51" y="44.9" width="63.02" height="2.36" transform="translate(-18.82 46.75) rotate(-45)" style="fill:#ffbd03"/><rect x="13.84" y="43.24" width="63.02" height="2.36" transform="translate(-18.12 45.08) rotate(-45)" style="fill:#f6a71c"/><polygon points="22.23 65.86 21.01 70.43 22.68 72.09 27.24 70.87 22.23 65.86" style="fill:#f3faff"/><polygon points="22.23 65.86 23.9 67.53 21.57 70.98 21.01 70.43 22.23 65.86" style="fill:#d6e6f2"/><polygon points="21.01 70.43 20.4 72.7 22.68 72.09 21.01 70.43" style="fill:#0e3c62"/><rect x="67.29" y="20.12" width="2.36" height="2.36" transform="translate(4.99 54.65) rotate(-45)" style="fill:#e6e5e5"/><rect x="69.79" y="21.44" width="2.36" height="4.72" transform="translate(3.95 57.15) rotate(-45)" style="fill:#fff"/><path d="M68.86,19.24l-.39.39,1.67,1.67.38-.39a3.58,3.58,0,0,1,2.5-1,3.69,3.69,0,0,1,1.53.35,3.49,3.49,0,0,0-.69-1,3.55,3.55,0,0,0-5,0Z" style="fill:#0e3c62"/><path d="M70.52,20.91l-.38.39,3.33,3.34.39-.39a3.52,3.52,0,0,0,1-2.5,3.61,3.61,0,0,0-.35-1.53A3.69,3.69,0,0,0,73,19.87,3.58,3.58,0,0,0,70.52,20.91Z" style="fill:#1c77c3"/></g></svg>