<svg xmlns="http://www.w3.org/2000/svg" xmlns:xlink="http://www.w3.org/1999/xlink" viewBox="0 0 76 76"><defs><clipPath id="a"><rect width="76" height="76" style="fill:none"/></clipPath><linearGradient id="b" x1="305.27" y1="-133.28" x2="339.15" y2="-133.28" gradientTransform="translate(-283.77 170.23)" gradientUnits="userSpaceOnUse"><stop offset="0" stop-color="#fff" stop-opacity="0"/><stop offset="0.01" stop-color="#fffcfc" stop-opacity="0.01"/><stop offset="0.51" stop-color="#ef8683" stop-opacity="0.54"/><stop offset="0.84" stop-color="#e53b37" stop-opacity="0.87"/><stop offset="1" stop-color="#e11e19"/></linearGradient></defs><g style="clip-path:url(#a)"><path d="M62.9,7.53l.67,14.29H61.86a17.2,17.2,0,0,0-1.35-5.39,8.93,8.93,0,0,0-3.7-3.84,12.89,12.89,0,0,0-6.09-1.24H42.13V57.91q0,5.61,1.22,7,1.71,1.89,5.26,1.89h2.11v1.66H24.88V66.81H27q3.87,0,5.49-2.34,1-1.44,1-6.56V11.35H26.18a20.41,20.41,0,0,0-6.07.63,8.36,8.36,0,0,0-4,3.28,13.4,13.4,0,0,0-2,6.56H12.43l.72-14.29Z" style="fill:#155992"/><polygon points="70.98 52.59 70.98 53.84 5.02 53.84 5.02 52.59 1.01 52.59 1.01 56.6 5.02 56.6 5.02 55.36 70.98 55.36 70.98 56.6 74.98 56.6 74.98 52.59 70.98 52.59" style="fill:#e11e19"/><rect x="21.5" y="3.07" width="33.88" height="67.77" transform="translate(75.39 -1.48) rotate(90)" style="fill:url(#b)"/></g></svg>