<svg xmlns="http://www.w3.org/2000/svg" xmlns:xlink="http://www.w3.org/1999/xlink" viewBox="0 0 370 206"><defs><style>.cls-1{fill:#94a5b3;}.cls-2{opacity:0.99;}.cls-3{fill:#7fc3de;}.cls-4{fill:#bfd4e2;}.cls-5{fill:#c8c8c8;}.cls-6{fill:#e4e5e9;}.cls-7{fill:#d5d5d5;}.cls-8{fill:#909090;}.cls-9{fill:#e96a63;}.cls-10{fill:#e8b434;}.cls-11{fill:#38d289;}.cls-12{fill:#fff;}.cls-13{opacity:0.8;}.cls-14{fill:#fafafa;}.cls-15{fill:#ddd;}.cls-16{fill:#b7b7b7;}.cls-17{fill:#b4b4b4;}.cls-18{fill:#bbc0c3;}.cls-19{fill:#e95653;}.cls-20{clip-path:url(#clip-path);}.cls-21{fill:#dde0e1;}.cls-22{fill:#808387;}.cls-23{clip-path:url(#clip-path-2);}.cls-24{fill:#66ac80;}.cls-25{fill:#50a06e;}.cls-26,.cls-28,.cls-29{fill:none;}.cls-27{fill:#f0c32d;}.cls-28,.cls-29{stroke:#e11e19;stroke-miterlimit:10;stroke-width:0.25px;}.cls-29{stroke-dasharray:0.981 0.981;}.cls-30{fill:#e11e19;}</style><clipPath id="clip-path"><path class="cls-1" d="M164.623,52.313a2.7,2.7,0,0,1-2.858,2.63,3.126,3.126,0,0,1-1.723-.538,2.6,2.6,0,0,1,1.642-4.8A2.884,2.884,0,0,1,164.623,52.313Z"/></clipPath><clipPath id="clip-path-2"><path class="cls-1" d="M294.769,53.083a2.693,2.693,0,0,1-2.852,2.624,3.121,3.121,0,0,1-1.72-.537,2.6,2.6,0,0,1,1.638-4.785A2.88,2.88,0,0,1,294.769,53.083Z"/></clipPath></defs><title>use-case-3-e-rechnung</title><g id="Layer_2" data-name="Layer 2"><g id="Layer_1-2" data-name="Layer 1"><g class="cls-2"><path class="cls-3" d="M321.032,23.185h0l-6.581-6.611,0-.005,0,0h0a5.821,5.821,0,0,0-4.125-1.706H67.128A5.843,5.843,0,0,0,61.286,20.7V182.83a5.823,5.823,0,0,0,1.635,4.048h0l.028.027c.039.04.078.079.118.117l6.389,6.327.048.06c.025.032.05.065.076.1l.01.012h0a5.83,5.83,0,0,0,4.475,2.089H317.255a5.843,5.843,0,0,0,5.842-5.843V27.638A5.828,5.828,0,0,0,321.032,23.185Z"/><path class="cls-4" d="M317.254,195.735H74.064a5.953,5.953,0,0,1-4.533-2.089h0l-.173-.217-6.65-6.585.006,0a5.934,5.934,0,0,1-1.552-4.01V20.7a5.976,5.976,0,0,1,5.969-5.97H310.32a5.934,5.934,0,0,1,4.215,1.743l6.6,6.633a5.964,5.964,0,0,1,2.085,4.529V189.765A5.977,5.977,0,0,1,317.254,195.735ZM69.673,193.421l.014.016a5.7,5.7,0,0,0,4.377,2.043h243.19a5.721,5.721,0,0,0,5.716-5.715V27.638a5.707,5.707,0,0,0-2.019-4.355l-.148-.125.017-.009-6.456-6.485a5.692,5.692,0,0,0-4.044-1.676H67.128A5.721,5.721,0,0,0,61.413,20.7V182.83a5.688,5.688,0,0,0,1.6,3.96l.141.142Z"/></g><path class="cls-5" d="M316.162,182.83a5.528,5.528,0,0,1-5.843,5.46H67.128a5.528,5.528,0,0,1-5.842-5.46V20.7a5.843,5.843,0,0,1,5.842-5.843H310.319a5.843,5.843,0,0,1,5.843,5.843Z"/><path class="cls-6" d="M146.839,26.626l-3.811-6.351a2.945,2.945,0,0,0-2.208-1.38H89.7a2.792,2.792,0,0,0-2.149,1.38l-3.539,6.351H61.286V37.662H316.162V26.626Z"/><path class="cls-7" d="M144.932,20.275l3.811,6.351h53.6l-3.811-6.351a2.945,2.945,0,0,0-2.208-1.38H145.2a2.343,2.343,0,0,0-1.231.426A3.034,3.034,0,0,1,144.932,20.275Z"/><path class="cls-8" d="M63.355,32.2l2.222,2.206.576-.571c-.014-.036-1.205-1.188-1.223-1.222h3.207c.011-.065,0-.7,0-.82-.558,0-2.661.006-3.215,0,.02-.033,1.211-1.188,1.226-1.226l-.574-.571Z"/><path class="cls-5" d="M76.818,32.2,74.6,34.405l-.577-.571c.014-.036,1.2-1.188,1.223-1.222H72.036c-.011-.065,0-.7,0-.82.558,0,2.662.006,3.216,0-.021-.033-1.212-1.188-1.227-1.226l.574-.571Z"/><path class="cls-8" d="M312.691,18.027l-.011,2.411-.751,0c-.014-.033.012-1.08,0-1.114L310.657,20.6c-.049-.036-.461-.456-.539-.535.365-.365.919-.911,1.277-1.277-.035-.009-1.084.015-1.118,0l0-.75Z"/><path class="cls-8" d="M307.77,22.989l.011-2.41.75,0c.015.033-.011,1.079,0,1.113l1.273-1.271c.049.035.461.456.539.534-.365.365-.919.911-1.277,1.278.035.009,1.084-.015,1.118,0l0,.749Z"/><path class="cls-9" d="M67.605,21.04a2.145,2.145,0,1,0-2.145,2.145A2.145,2.145,0,0,0,67.605,21.04Z"/><path class="cls-10" d="M74.281,21.04a2.145,2.145,0,1,0-2.145,2.145A2.145,2.145,0,0,0,74.281,21.04Z"/><path class="cls-11" d="M80.608,21.04a2.145,2.145,0,1,0-2.145,2.145A2.145,2.145,0,0,0,80.608,21.04Z"/><path class="cls-5" d="M141.9,22.761a2.145,2.145,0,1,0-2.145,2.145A2.145,2.145,0,0,0,141.9,22.761Z"/><rect class="cls-12" x="89.781" y="28.183" width="214.503" height="7.591" rx="1.38"/><path class="cls-5" d="M301.235,34.707a.246.246,0,0,1-.139-.044l-1.475-1.027-1.476,1.027a.243.243,0,0,1-.372-.27l.521-1.721-1.433-1.086a.244.244,0,0,1,.142-.438l1.8-.036.591-1.7a.253.253,0,0,1,.46,0l.59,1.7,1.8.036a.244.244,0,0,1,.142.438l-1.432,1.086.52,1.721a.243.243,0,0,1-.09.267A.24.24,0,0,1,301.235,34.707ZM299.621,33.1a.241.241,0,0,1,.138.044l1.04.724-.366-1.213a.242.242,0,0,1,.086-.265l1.009-.765-1.266-.026a.243.243,0,0,1-.225-.163l-.416-1.2-.416,1.2a.244.244,0,0,1-.225.163l-1.267.026,1.009.765a.244.244,0,0,1,.087.265l-.367,1.213,1.04-.724A.241.241,0,0,1,299.621,33.1Z"/><path class="cls-8" d="M312.96,30.4a.422.422,0,0,1-.422.422h-4.5a.422.422,0,0,1-.422-.422h0a.422.422,0,0,1,.422-.422h4.5a.422.422,0,0,1,.422.422Z"/><path class="cls-8" d="M312.96,32.143a.422.422,0,0,1-.422.421h-4.5a.422.422,0,0,1-.422-.421h0a.422.422,0,0,1,.422-.422h4.5a.422.422,0,0,1,.422.422Z"/><path class="cls-8" d="M312.96,33.883a.422.422,0,0,1-.422.422h-4.5a.422.422,0,0,1-.422-.422h0a.421.421,0,0,1,.422-.421h4.5a.421.421,0,0,1,.422.421Z"/><path class="cls-6" d="M140.332,22.765l.661-.661a6.927,6.927,0,0,1-.578-.584c-.122.126-.375.38-.661.666l-.663-.666c-.085.085-.539.53-.578.583l.661.661-.661.659c.084.085.53.538.582.578l.658-.658.657.658a7.067,7.067,0,0,1,.583-.578C140.869,23.3,140.616,23.049,140.332,22.765Z"/><path class="cls-5" d="M197.033,22.761a2.145,2.145,0,1,0-2.145,2.145A2.145,2.145,0,0,0,197.033,22.761Z"/><path class="cls-6" d="M195.467,22.765l.661-.661a6.927,6.927,0,0,1-.578-.584c-.122.126-.375.38-.661.666l-.663-.666c-.085.085-.539.53-.578.583l.661.661-.661.659c.084.085.53.538.582.578l.658-.658.657.658a7.067,7.067,0,0,1,.583-.578C196,23.3,195.751,23.049,195.467,22.765Z"/><path class="cls-8" d="M84.292,33.822a1.623,1.623,0,1,1,1.342-2.536c-.259.006-1.007.009-1.026.018l.013.525,2.025-.033L86.6,29.771l-.524.009c-.007.019.015.71.022.995a2.3,2.3,0,1,0,.207,2.551l-.595-.334A1.626,1.626,0,0,1,84.292,33.822Z"/><path class="cls-12" d="M61.286,37.662V182.447a5.843,5.843,0,0,0,5.842,5.843H310.319a5.843,5.843,0,0,0,5.843-5.843V37.662Z"/><path class="cls-7" d="M200.722,20.275l2.953,4.921h10.7l-2.953-4.921a2.943,2.943,0,0,0-2.208-1.38h-10.7A2.945,2.945,0,0,1,200.722,20.275Z"/><g class="cls-13"><rect class="cls-14" x="82.923" y="44.228" width="94.244" height="133.748"/></g><path class="cls-15" d="M82.281,43.586V178.617h95.528V43.586Zm94.886,134.389H82.923V44.228h94.244Z"/><rect class="cls-16" x="156.923" y="61.116" width="10.616" height="1.925"/><rect class="cls-16" x="156.923" y="64.951" width="8.267" height="1.925"/><rect class="cls-17" x="155.399" y="60.196" width="0.642" height="3.838"/><rect class="cls-17" x="155.399" y="64.034" width="0.642" height="3.838"/><path class="cls-17" d="M89.3,155.487v15.842h30.517V155.487Zm29.876,15.2H89.937V156.129h29.235Z"/><rect class="cls-18" x="91.835" y="158.132" width="0.488" height="10.553"/><rect class="cls-18" x="95.175" y="158.132" width="0.488" height="10.553"/><rect class="cls-18" x="102.034" y="158.132" width="0.489" height="10.553"/><rect class="cls-18" x="109.771" y="158.132" width="0.489" height="10.553"/><rect class="cls-18" x="92.927" y="158.132" width="1.466" height="10.553"/><rect class="cls-18" x="97.079" y="158.132" width="1.955" height="10.553"/><rect class="cls-18" x="100.383" y="158.132" width="0.977" height="10.553"/><rect class="cls-18" x="106.011" y="158.132" width="0.977" height="10.553"/><rect class="cls-18" x="103.764" y="158.132" width="1.954" height="10.553"/><rect class="cls-18" x="108.296" y="158.132" width="0.977" height="10.553"/><rect class="cls-18" x="111.148" y="158.132" width="1.955" height="10.553"/><rect class="cls-18" x="115.789" y="158.132" width="1.466" height="10.553"/><rect class="cls-18" x="114.519" y="158.132" width="0.489" height="10.553"/><path class="cls-19" d="M166.627,56.443l-10.145-.127a.077.077,0,0,1-.079-.072l0-.238a.072.072,0,0,1,.076-.071l10.145.127a.077.077,0,0,1,.079.072l0,.238A.072.072,0,0,1,166.627,56.443Z"/><path class="cls-1" d="M164.623,52.313a2.7,2.7,0,0,1-2.858,2.63,3.126,3.126,0,0,1-1.723-.538,2.6,2.6,0,0,1,1.642-4.8A2.884,2.884,0,0,1,164.623,52.313Z"/><g class="cls-20"><path class="cls-19" d="M161.719,51.9c.414.005-2.03,2.64.863,2.3.818-.1.11.842.11.842A3.4,3.4,0,0,1,158.424,53C158.377,49.95,161.719,51.9,161.719,51.9Z"/></g><path class="cls-16" d="M167.925,92.317a1.888,1.888,0,0,1-.887.2,1.58,1.58,0,0,1-1.628-1.489l-.382,0-.006-.406.341,0a1.511,1.511,0,0,1-.016-.224,2.73,2.73,0,0,1,.014-.313l-.347,0-.007-.407.414,0a1.936,1.936,0,0,1,.591-1.082,1.539,1.539,0,0,1,1.077-.38,1.813,1.813,0,0,1,.776.172l.007.471a1.517,1.517,0,0,0-.811-.237.967.967,0,0,0-.7.283,1.526,1.526,0,0,0-.418.78l1.568.019.006.407-1.638-.021a3.079,3.079,0,0,0,0,.537l1.641.021.006.406-1.59-.02q.243,1.067,1.121,1.077a1.713,1.713,0,0,0,.854-.242Z"/><path class="cls-16" d="M167.925,98.766a1.9,1.9,0,0,1-.887.2,1.579,1.579,0,0,1-1.628-1.489l-.382,0-.006-.407.341,0a1.5,1.5,0,0,1-.016-.223,2.73,2.73,0,0,1,.014-.313l-.347-.005-.007-.406.414,0a1.932,1.932,0,0,1,.591-1.082,1.534,1.534,0,0,1,1.077-.38,1.8,1.8,0,0,1,.776.172l.007.47a1.508,1.508,0,0,0-.811-.236.963.963,0,0,0-.7.283,1.526,1.526,0,0,0-.418.779l1.568.02.006.407-1.638-.021a3.081,3.081,0,0,0,0,.537l1.641.021.006.406-1.59-.02q.243,1.065,1.121,1.076a1.693,1.693,0,0,0,.854-.242Z"/><path class="cls-16" d="M167.925,105.214a1.888,1.888,0,0,1-.887.2,1.579,1.579,0,0,1-1.628-1.489l-.382,0-.006-.406.341,0a1.511,1.511,0,0,1-.016-.224,2.73,2.73,0,0,1,.014-.313l-.347,0-.007-.407.414.006a1.935,1.935,0,0,1,.591-1.083,1.543,1.543,0,0,1,1.077-.38,1.8,1.8,0,0,1,.776.173l.007.47a1.517,1.517,0,0,0-.811-.237.967.967,0,0,0-.7.283,1.526,1.526,0,0,0-.418.78l1.568.02.006.406-1.638-.02a3.081,3.081,0,0,0,0,.537l1.641.02.006.406-1.59-.019q.243,1.065,1.121,1.076a1.7,1.7,0,0,0,.854-.242Z"/><rect class="cls-16" x="89.079" y="115.229" width="81.743" height="0.218"/><rect class="cls-16" x="89.079" y="129.201" width="81.743" height="0.218"/><path class="cls-16" d="M167.925,111.663a1.888,1.888,0,0,1-.887.2,1.578,1.578,0,0,1-1.628-1.488l-.382,0-.006-.407.341.005a1.511,1.511,0,0,1-.016-.224,2.73,2.73,0,0,1,.014-.313l-.347,0-.007-.406.414.005a1.932,1.932,0,0,1,.591-1.082,1.539,1.539,0,0,1,1.077-.38,1.813,1.813,0,0,1,.776.172l.007.47a1.517,1.517,0,0,0-.811-.236.967.967,0,0,0-.7.283,1.526,1.526,0,0,0-.418.78l1.568.019.006.407-1.638-.021a3.079,3.079,0,0,0,0,.537l1.641.021.006.406-1.59-.02q.243,1.065,1.121,1.076a1.7,1.7,0,0,0,.854-.241Z"/><path class="cls-16" d="M169,121.28a1.888,1.888,0,0,1-.887.2A1.579,1.579,0,0,1,166.485,120l-.382-.005-.006-.406.34,0a1.827,1.827,0,0,1-.016-.224c0-.092,0-.2.014-.313l-.347,0-.006-.407.414.006a1.943,1.943,0,0,1,.59-1.083,1.547,1.547,0,0,1,1.078-.38,1.8,1.8,0,0,1,.776.173l.007.47a1.52,1.52,0,0,0-.811-.237.967.967,0,0,0-.7.283,1.527,1.527,0,0,0-.419.78l1.569.02.006.406-1.638-.02a3.081,3.081,0,0,0,.005.537l1.641.02.006.407-1.59-.02q.243,1.065,1.121,1.076a1.7,1.7,0,0,0,.854-.242Z"/><path class="cls-16" d="M169,126.64a1.888,1.888,0,0,1-.887.2,1.579,1.579,0,0,1-1.628-1.489l-.382-.005-.006-.406.34,0a1.827,1.827,0,0,1-.016-.224c0-.092,0-.2.014-.313l-.347,0-.006-.407.414.006a1.943,1.943,0,0,1,.59-1.083,1.547,1.547,0,0,1,1.078-.38,1.8,1.8,0,0,1,.776.173l.007.47a1.52,1.52,0,0,0-.811-.237.967.967,0,0,0-.7.283,1.527,1.527,0,0,0-.419.78l1.569.02.006.406-1.638-.02a3.081,3.081,0,0,0,.005.537l1.641.02.006.407-1.59-.02q.243,1.065,1.121,1.076a1.7,1.7,0,0,0,.854-.242Z"/><path class="cls-16" d="M169,135.235a1.888,1.888,0,0,1-.887.2,1.58,1.58,0,0,1-1.628-1.489l-.382,0-.006-.406.34,0a1.843,1.843,0,0,1-.016-.224c0-.093,0-.2.014-.313l-.347,0-.006-.407.414,0a1.937,1.937,0,0,1,.59-1.082,1.543,1.543,0,0,1,1.078-.38,1.816,1.816,0,0,1,.776.172l.007.471a1.52,1.52,0,0,0-.811-.237.967.967,0,0,0-.7.283,1.527,1.527,0,0,0-.419.78l1.569.019.006.407-1.638-.021a3.079,3.079,0,0,0,.005.537l1.641.021.006.406-1.59-.02q.243,1.067,1.121,1.077a1.713,1.713,0,0,0,.854-.242Z"/><path class="cls-17" d="M110.857,63.122H88.381V58.379h22.476Zm-22.032-.444h21.589V58.823H88.825Z"/><path class="cls-17" d="M110.857,67.421H88.381V62.678h22.476Zm-22.032-.444h21.589V63.122H88.825Z"/><path class="cls-17" d="M110.857,71.72H88.381V66.977h22.476Zm-22.032-.444h21.589V67.421H88.825Z"/><path class="cls-17" d="M124.894,84.4H87.78V79.531h37.114ZM88.352,83.83h35.97V80.1H88.352Z"/><path class="cls-17" d="M167.885,169.081H130.769v-4.9h37.116Zm-36.542-.574h35.968v-3.755H131.343Z"/><path class="cls-17" d="M158.194,92.789H87.8V87.952h70.4Zm-69.86-.538h69.323V88.489H88.334Z"/><path class="cls-17" d="M164.642,92.789h-5.91V87.952h5.91Zm-5.373-.538h4.836V88.489h-4.836Z"/><path class="cls-17" d="M158.194,99.237H87.8V94.4h70.4ZM88.334,98.7h69.323V94.938H88.334Z"/><path class="cls-17" d="M164.642,99.237h-5.91V94.4h5.91Zm-5.373-.537h4.836V94.938h-4.836Z"/><path class="cls-17" d="M158.194,105.686H87.8V100.85h70.4Zm-69.86-.538h69.323v-3.761H88.334Z"/><path class="cls-17" d="M164.642,105.686h-5.91V100.85h5.91Zm-5.373-.538h4.836v-3.761h-4.836Z"/><path class="cls-17" d="M158.194,112.134H87.8V107.3h70.4Zm-69.86-.537h69.323v-3.762H88.334Z"/><path class="cls-17" d="M164.642,112.134h-5.91V107.3h5.91Zm-5.373-.537h4.836v-3.762h-4.836Z"/><path class="cls-17" d="M158.194,121.752H87.8v-4.836h70.4Zm-69.86-.537h69.323v-3.762H88.334Z"/><path class="cls-17" d="M164.642,121.752h-5.91v-4.836h5.91Zm-5.373-.537h4.836v-3.762h-4.836Z"/><path class="cls-17" d="M158.194,127.112H87.8v-4.837h70.4Zm-69.86-.537h69.323v-3.762H88.334Z"/><path class="cls-17" d="M164.642,127.112h-5.91v-4.837h5.91Zm-5.373-.537h4.836v-3.762h-4.836Z"/><path class="cls-17" d="M158.194,135.707H87.8V130.87h70.4Zm-69.86-.538h69.323v-3.762H88.334Z"/><path class="cls-17" d="M167.867,163.429H147.984v-7.523h19.883Zm-19.346-.537H167.33v-6.449H148.521Z"/><path class="cls-17" d="M164.642,135.707h-5.91V130.87h5.91Zm-5.373-.538h4.836v-3.762h-4.836Z"/><g id="signature"><path class="cls-18" d="M162.133,156.724c-.268-.135-.369-.077-.369-.077l-1.778,3.54-.095.962.718-.6,1.792-3.524S162.4,156.859,162.133,156.724Z"/><path class="cls-18" d="M153.687,162.378c.4-.262.785-.551,1.16-.845.186-.148.368-.3.538-.466a2.639,2.639,0,0,0,.445-.527.376.376,0,0,0,.065-.263.172.172,0,0,0-.066-.086.159.159,0,0,0-.1-.031.5.5,0,0,0-.259.125,1.777,1.777,0,0,0-.237.238,3.548,3.548,0,0,0-.386.578,2.72,2.72,0,0,0-.259.64.466.466,0,0,0,0,.291c.009.014.008.013.015.015a.1.1,0,0,0,.049-.01.664.664,0,0,0,.137-.085c.184-.142.35-.322.561-.457a.511.511,0,0,1,.183-.077.218.218,0,0,1,.112.011.22.22,0,0,1,.051.03.107.107,0,0,1,.037.061.172.172,0,0,1-.023.114.7.7,0,0,1-.051.081,1.556,1.556,0,0,0-.1.144.075.075,0,0,0-.013.048.093.093,0,0,0,.053.018.709.709,0,0,0,.171-.007,1.353,1.353,0,0,0,.339-.087,4.4,4.4,0,0,0,1.234-.7,1.537,1.537,0,0,0,.436-.52.5.5,0,0,0,.039-.3.54.54,0,0,0-.149-.262l.076.031c.011,0-.01,0-.024.016a.405.405,0,0,0-.052.044,1.363,1.363,0,0,0-.105.109c-.069.079-.134.162-.2.247-.127.171-.25.347-.367.527a10.733,10.733,0,0,0-.644,1.11,2.7,2.7,0,0,0-.122.282.488.488,0,0,0-.02.066.3.3,0,0,0-.006.035s0-.024-.039-.057a.132.132,0,0,0-.081-.024.125.125,0,0,0-.048.014h0l.007,0,.017-.009.07-.04.563-.323.567-.319.285-.158.144-.077.074-.038a.776.776,0,0,1,.092-.043.112.112,0,0,1,.145.064l.006.022v0a.324.324,0,0,1-.028.187.73.73,0,0,1-.073.127,2.085,2.085,0,0,1-.164.2c-.055.063-.111.123-.162.183a.676.676,0,0,0-.114.169l-.107-.123a3.409,3.409,0,0,0,.64-.155c.212-.071.421-.156.627-.248.412-.184.816-.389,1.221-.595a.012.012,0,0,1,.016,0,.012.012,0,0,1,0,.016c-.384.242-.772.481-1.178.689-.2.1-.411.2-.625.288a3.008,3.008,0,0,1-.672.195h0a.1.1,0,0,1-.109-.081.09.09,0,0,1,0-.043.788.788,0,0,1,.143-.247c.053-.067.107-.13.158-.193a2.027,2.027,0,0,0,.141-.186.265.265,0,0,0,.057-.142l.152.089-.123.068-.14.08-.281.162-.561.327-.563.324-.072.04-.018.011-.011,0,0,0a.177.177,0,0,1-.053.016.146.146,0,0,1-.089-.022.223.223,0,0,1-.038-.037.212.212,0,0,1-.021-.036.267.267,0,0,1-.014-.056.389.389,0,0,1,.012-.125q.012-.048.027-.09a2.624,2.624,0,0,1,.139-.312,11.149,11.149,0,0,1,.682-1.123c.124-.181.25-.359.388-.531.069-.086.14-.171.217-.253.039-.041.078-.081.124-.121.023-.019.047-.038.075-.057a.262.262,0,0,1,.123-.047.087.087,0,0,1,.074.028l0,0a.724.724,0,0,1,.187.363.666.666,0,0,1-.069.4,1.7,1.7,0,0,1-.5.553,4.37,4.37,0,0,1-.621.382,5.533,5.533,0,0,1-.665.291,1.458,1.458,0,0,1-.358.084.9.9,0,0,1-.188,0,.144.144,0,0,1-.108-.051.127.127,0,0,1,.008-.124,1.582,1.582,0,0,1,.1-.154c.032-.044.065-.1.056-.13,0-.006,0-.009-.01-.014a.1.1,0,0,0-.027-.014.118.118,0,0,0-.065,0,.394.394,0,0,0-.144.068c-.188.133-.342.319-.529.481a.763.763,0,0,1-.162.113.241.241,0,0,1-.125.028.179.179,0,0,1-.13-.079.4.4,0,0,1-.06-.216,1.045,1.045,0,0,1,.015-.2,2.576,2.576,0,0,1,.247-.7,3.245,3.245,0,0,1,.4-.623,1.815,1.815,0,0,1,.271-.269.7.7,0,0,1,.387-.166.386.386,0,0,1,.376.274.428.428,0,0,1-.008.234.85.85,0,0,1-.086.185,2.557,2.557,0,0,1-.5.554c-.185.16-.377.307-.573.448s-.4.274-.6.4-.411.25-.628.358a.012.012,0,0,1-.016-.006.013.013,0,0,1,0-.016Z"/></g><rect class="cls-21" x="88.98" y="81.341" width="33.606" height="1.246"/><rect class="cls-21" x="89.655" y="68.751" width="18.763" height="1.111"/><rect class="cls-21" x="89.655" y="64.591" width="18.763" height="1.111"/><rect class="cls-21" x="89.655" y="60.657" width="18.763" height="1.111"/><rect class="cls-21" x="159.686" y="89.574" width="3.51" height="1.33"/><rect class="cls-21" x="159.869" y="96.068" width="3.51" height="1.33"/><rect class="cls-21" x="159.686" y="102.471" width="3.51" height="1.33"/><rect class="cls-21" x="159.869" y="108.874" width="3.51" height="1.33"/><rect class="cls-21" x="159.778" y="118.387" width="3.51" height="1.33"/><rect class="cls-21" x="159.778" y="123.875" width="3.51" height="1.33"/><rect class="cls-21" x="159.869" y="132.473" width="3.51" height="1.33"/><rect class="cls-21" x="89.072" y="89.524" width="6.971" height="1.327"/><rect class="cls-21" x="89.072" y="96.102" width="66.495" height="1.337"/><rect class="cls-21" x="89.072" y="102.68" width="66.495" height="1.337"/><rect class="cls-21" x="89.072" y="109.101" width="66.495" height="1.337"/><rect class="cls-21" x="89.072" y="118.655" width="44.882" height="1.076"/><rect class="cls-21" x="89.072" y="124.346" width="44.882" height="1.076"/><rect class="cls-21" x="89.072" y="132.76" width="39.714" height="1.051"/><rect class="cls-21" x="88.529" y="141.552" width="2.164" height="1.477"/><rect class="cls-21" x="92.374" y="141.552" width="2.164" height="1.477"/><rect class="cls-21" x="96.22" y="141.552" width="2.164" height="1.477"/><rect class="cls-21" x="100.02" y="141.552" width="2.164" height="1.477"/><rect class="cls-21" x="103.865" y="141.552" width="2.164" height="1.477"/><rect class="cls-21" x="107.529" y="141.552" width="2.164" height="1.477"/><rect class="cls-21" x="111.239" y="141.552" width="2.164" height="1.477"/><rect class="cls-21" x="115.174" y="141.552" width="2.164" height="1.477"/><rect class="cls-21" x="119.065" y="141.552" width="2.164" height="1.477"/><rect class="cls-21" x="122.775" y="141.552" width="2.164" height="1.477"/><rect class="cls-21" x="126.756" y="141.552" width="2.164" height="1.477"/><rect class="cls-21" x="130.42" y="141.552" width="2.164" height="1.477"/><rect class="cls-21" x="134.175" y="141.552" width="2.164" height="1.477"/><rect class="cls-21" x="137.975" y="141.552" width="2.164" height="1.477"/><rect class="cls-21" x="142.091" y="141.552" width="2.164" height="1.477"/><rect class="cls-21" x="147.249" y="141.552" width="2.164" height="1.477"/><rect class="cls-21" x="151.184" y="141.552" width="2.164" height="1.477"/><rect class="cls-21" x="154.894" y="141.552" width="2.164" height="1.477"/><rect class="cls-21" x="158.603" y="141.552" width="2.164" height="1.477"/><rect class="cls-21" x="162.494" y="141.552" width="2.164" height="1.477"/><path class="cls-17" d="M141.264,140.386H87.61v3.808h57.454v-3.808Zm-49.853,3.356H88.063v-2.9h3.348Zm3.8,0H91.863v-2.9h3.348Zm3.8,0H95.663v-2.9h3.348Zm3.8,0H99.463v-2.9h3.348Zm3.8,0h-3.348v-2.9h3.348Zm3.8,0h-3.348v-2.9h3.348Zm3.8,0h-3.348v-2.9h3.348Zm3.8,0h-3.348v-2.9h3.348Zm3.8,0h-3.348v-2.9h3.348Zm3.8,0h-3.348v-2.9h3.348Zm3.8,0h-3.347v-2.9h3.347Zm3.8,0h-3.347v-2.9h3.347Zm3.8,0h-3.347v-2.9h3.347Zm3.8,0h-3.347v-2.9h3.347Zm3.8,0h-3.347v-2.9h3.347Z"/><path class="cls-17" d="M161.908,140.414H146.48v3.753h19.173v-3.753Zm-11.682,3.307h-3.3V140.86h3.3Zm3.745,0h-3.3V140.86h3.3Zm3.746,0h-3.3V140.86h3.3Zm3.745,0h-3.3V140.86h3.3Zm3.745,0h-3.3V140.86h3.3Z"/><rect class="cls-21" x="137.987" y="165.403" width="27.931" height="0.835"/><rect class="cls-21" x="143.256" y="166.958" width="22.662" height="0.695"/><polygon class="cls-19" points="96.196 88.918 96.47 88.918 96.47 91.808 96.196 91.808 96.196 91.984 97.079 91.984 97.079 91.808 96.805 91.808 96.805 88.918 97.079 88.918 97.079 88.742 96.196 88.742 96.196 88.918"/><g class="cls-13"><rect class="cls-14" x="213.236" y="45.014" width="94.05" height="133.474"/></g><path class="cls-15" d="M212.6,44.373V179.128h95.331V44.373Zm94.691,134.114H213.236V45.014h94.051Z"/><rect class="cls-16" x="287.084" y="61.867" width="10.594" height="1.921"/><rect class="cls-16" x="287.084" y="65.694" width="8.25" height="1.921"/><rect class="cls-17" x="285.563" y="60.949" width="0.64" height="3.83"/><rect class="cls-17" x="285.563" y="64.779" width="0.64" height="3.831"/><rect class="cls-16" x="219.916" y="60.642" width="20.256" height="1.921"/><rect class="cls-16" x="219.916" y="64.101" width="19.449" height="1.921"/><rect class="cls-16" x="219.916" y="67.559" width="15.133" height="1.921"/><rect class="cls-16" x="278.852" y="162.114" width="19.449" height="1.921"/><rect class="cls-16" x="283.168" y="165.572" width="15.133" height="1.921"/><rect class="cls-16" x="219.916" y="81.973" width="32.238" height="1.921"/><rect class="cls-16" x="219.916" y="119.513" width="50.472" height="1.921"/><rect class="cls-16" x="219.916" y="123.803" width="50.472" height="1.921"/><rect class="cls-16" x="219.916" y="132.384" width="34.383" height="2.053"/><rect class="cls-16" x="219.916" y="90.128" width="65.487" height="1.68"/><rect class="cls-16" x="289.818" y="90.241" width="3.094" height="1.455"/><path class="cls-17" d="M219.6,156.046v15.809h30.455V156.046Zm29.814,15.169H220.236V156.686H249.41Z"/><rect class="cls-18" x="222.13" y="158.685" width="0.487" height="10.532"/><rect class="cls-18" x="225.462" y="158.685" width="0.487" height="10.532"/><rect class="cls-18" x="232.307" y="158.685" width="0.488" height="10.532"/><rect class="cls-18" x="240.029" y="158.685" width="0.488" height="10.532"/><rect class="cls-18" x="223.22" y="158.685" width="1.463" height="10.532"/><rect class="cls-18" x="227.363" y="158.685" width="1.951" height="10.532"/><rect class="cls-18" x="230.66" y="158.685" width="0.975" height="10.532"/><rect class="cls-18" x="236.277" y="158.685" width="0.975" height="10.532"/><rect class="cls-18" x="234.034" y="158.685" width="1.95" height="10.532"/><rect class="cls-18" x="238.557" y="158.685" width="0.975" height="10.532"/><rect class="cls-18" x="241.403" y="158.685" width="1.951" height="10.532"/><rect class="cls-18" x="246.035" y="158.685" width="1.463" height="10.532"/><rect class="cls-18" x="244.767" y="158.685" width="0.488" height="10.532"/><path class="cls-22" d="M283.334,159.819c.886-.53,1.744-1.108,2.572-1.707.411-.3.817-.613,1.194-.945a5.274,5.274,0,0,0,.983-1.072,1.222,1.222,0,0,0,.134-.292.44.44,0,0,0,0-.254.362.362,0,0,0-.153-.184.376.376,0,0,0-.237-.068,1.122,1.122,0,0,0-.581.25,3.7,3.7,0,0,0-.526.486,7.1,7.1,0,0,0-.847,1.183,5.171,5.171,0,0,0-.56,1.314,1.56,1.56,0,0,0-.043.333.516.516,0,0,0,.059.272c.021.028.023.029.039.034a.248.248,0,0,0,.114-.021,1.431,1.431,0,0,0,.3-.173c.409-.287.773-.654,1.242-.927a1.126,1.126,0,0,1,.405-.152.523.523,0,0,1,.249.025.44.44,0,0,1,.114.063.23.23,0,0,1,.085.125.321.321,0,0,1-.048.232,1.36,1.36,0,0,1-.112.165,3.4,3.4,0,0,0-.217.295c-.029.047-.035.1-.026.1s.063.036.121.041a1.9,1.9,0,0,0,.383-.008c.065-.007.131-.015.2-.024a1.834,1.834,0,0,0,.188-.037c.126-.029.251-.066.375-.106a10.223,10.223,0,0,0,1.438-.6,8.868,8.868,0,0,0,1.305-.8,4.457,4.457,0,0,0,.557-.49,2.207,2.207,0,0,0,.407-.572.931.931,0,0,0,.079-.619,1.139,1.139,0,0,0-.346-.548l.167.064c.024,0-.023.01-.056.034a1.2,1.2,0,0,0-.116.089c-.078.068-.157.144-.233.223-.151.159-.3.329-.437.5-.281.348-.549.708-.807,1.075a21.508,21.508,0,0,0-1.41,2.269,5.824,5.824,0,0,0-.266.581,1.281,1.281,0,0,0-.042.135.391.391,0,0,0-.013.078.088.088,0,0,0-.01-.032.211.211,0,0,0-.073-.082l-.008,0a.326.326,0,0,0-.17-.042l-.1.023,0,0,.017-.008.038-.019.155-.08c.417-.216.832-.437,1.252-.65l1.259-.642.633-.318.321-.156.163-.076.085-.039.046-.02c.018-.007.031-.013.072-.026h0a.26.26,0,0,1,.318.144.278.278,0,0,1,.012.038.613.613,0,0,1-.055.381,1.464,1.464,0,0,1-.158.258,4.4,4.4,0,0,1-.359.41c-.121.128-.245.249-.357.371-.056.061-.109.122-.155.183a.672.672,0,0,0-.1.165l-.237-.25a7.646,7.646,0,0,0,1.431-.3c.472-.142.937-.311,1.4-.5s.912-.379,1.365-.58l1.35-.617a.028.028,0,0,1,.036.012.023.023,0,0,1-.009.031q-.639.368-1.291.717c-.435.234-.876.459-1.329.667s-.913.405-1.39.575a7.161,7.161,0,0,1-1.5.381.215.215,0,0,1-.242-.165.184.184,0,0,1,0-.081v0a1.032,1.032,0,0,1,.142-.284c.055-.079.112-.151.17-.22.115-.138.233-.267.347-.394a3.84,3.84,0,0,0,.311-.379,1.064,1.064,0,0,0,.1-.182.2.2,0,0,0,.021-.113l.333.181c.012,0,0,0-.012.006l-.034.016-.075.037-.155.078-.311.161-.625.325-1.246.657c-.415.221-.834.435-1.252.653l-.159.081-.041.021-.023.011-.016.008,0,0c.011-.008,0,.011-.106.026a.353.353,0,0,1-.175-.041l-.012-.008a.345.345,0,0,1-.129-.148.372.372,0,0,1-.032-.113.7.7,0,0,1,.023-.253c.017-.066.037-.126.058-.184a4.98,4.98,0,0,1,.3-.637,21.787,21.787,0,0,1,1.491-2.3c.271-.368.549-.732.851-1.084.151-.175.306-.348.475-.516a3.471,3.471,0,0,1,.274-.245,1.588,1.588,0,0,1,.165-.116.586.586,0,0,1,.273-.092.206.206,0,0,1,.162.058l0,.005a1.5,1.5,0,0,1,.426.751,1.256,1.256,0,0,1-.141.82,2.517,2.517,0,0,1-.5.629,5.056,5.056,0,0,1-.616.5,9.192,9.192,0,0,1-1.378.77,11.846,11.846,0,0,1-1.482.577c-.128.04-.257.077-.39.107-.066.015-.133.029-.2.039s-.135.016-.2.022a2.1,2.1,0,0,1-.421,0,.522.522,0,0,1-.116-.024.239.239,0,0,1-.123-.082.181.181,0,0,1-.028-.146.4.4,0,0,1,.041-.105,3.111,3.111,0,0,1,.224-.315.971.971,0,0,0,.095-.148.189.189,0,0,0,.028-.122.052.052,0,0,0-.025-.029.212.212,0,0,0-.062-.031.291.291,0,0,0-.148-.009.939.939,0,0,0-.323.136c-.416.27-.755.649-1.169.977a1.746,1.746,0,0,1-.36.227.57.57,0,0,1-.275.052.407.407,0,0,1-.29-.164.786.786,0,0,1-.139-.442,1.828,1.828,0,0,1,.028-.4,4.9,4.9,0,0,1,.531-1.44,6.451,6.451,0,0,1,.881-1.271,3.6,3.6,0,0,1,.6-.545,2.127,2.127,0,0,1,.377-.219,1.237,1.237,0,0,1,.48-.111.886.886,0,0,1,.52.157.8.8,0,0,1,.321.411.81.81,0,0,1-.011.477,1.628,1.628,0,0,1-.185.379,3.741,3.741,0,0,1-.513.609,7.378,7.378,0,0,1-.586.518,15.134,15.134,0,0,1-1.267.909c-.435.284-.882.553-1.336.808s-.914.5-1.4.721a.029.029,0,0,1-.035-.012.023.023,0,0,1,.008-.031Z"/><path class="cls-19" d="M296.768,57.2l-10.124-.127a.075.075,0,0,1-.078-.072l0-.237a.073.073,0,0,1,.076-.071l10.124.127a.077.077,0,0,1,.079.072l0,.238A.073.073,0,0,1,296.768,57.2Z"/><path class="cls-1" d="M294.769,53.083a2.693,2.693,0,0,1-2.852,2.624,3.121,3.121,0,0,1-1.72-.537,2.6,2.6,0,0,1,1.638-4.785A2.88,2.88,0,0,1,294.769,53.083Z"/><g class="cls-23"><path class="cls-19" d="M291.87,52.666c.413.005-2.025,2.635.862,2.291.816-.1.109.841.109.841a3.388,3.388,0,0,1-4.259-2.033C288.535,50.724,291.87,52.666,291.87,52.666Z"/></g><path class="cls-16" d="M298.064,92.911a1.892,1.892,0,0,1-.885.2,1.576,1.576,0,0,1-1.625-1.486l-.381,0-.006-.405.34,0a1.5,1.5,0,0,1-.016-.223,2.73,2.73,0,0,1,.014-.313l-.347,0-.006-.406.413.006a1.933,1.933,0,0,1,.589-1.081,1.542,1.542,0,0,1,1.076-.379,1.811,1.811,0,0,1,.774.172l.007.47a1.517,1.517,0,0,0-.81-.237.964.964,0,0,0-.7.283,1.519,1.519,0,0,0-.418.778l1.565.02.007.4-1.635-.02a3.07,3.07,0,0,0,0,.536l1.638.02.006.406-1.587-.02q.243,1.063,1.118,1.074a1.705,1.705,0,0,0,.853-.241Z"/><rect class="cls-16" x="219.916" y="96.564" width="65.487" height="1.68"/><rect class="cls-16" x="289.818" y="96.676" width="3.094" height="1.455"/><path class="cls-16" d="M298.064,99.346a1.88,1.88,0,0,1-.885.2,1.576,1.576,0,0,1-1.625-1.485l-.381,0-.006-.406.34,0a1.511,1.511,0,0,1-.016-.224,2.713,2.713,0,0,1,.014-.312l-.347,0-.006-.405.413,0a1.934,1.934,0,0,1,.589-1.08,1.537,1.537,0,0,1,1.076-.379,1.8,1.8,0,0,1,.774.172l.007.469a1.516,1.516,0,0,0-.81-.236.967.967,0,0,0-.7.282,1.522,1.522,0,0,0-.418.779l1.565.019.007.406-1.635-.021a3.069,3.069,0,0,0,0,.536l1.638.021.006.405-1.587-.02q.243,1.064,1.118,1.074a1.7,1.7,0,0,0,.853-.241Z"/><rect class="cls-16" x="219.916" y="102.999" width="65.487" height="1.68"/><rect class="cls-16" x="219.916" y="109.435" width="65.487" height="1.68"/><rect class="cls-16" x="289.818" y="103.111" width="3.094" height="1.455"/><path class="cls-16" d="M298.064,105.782a1.892,1.892,0,0,1-.885.2,1.577,1.577,0,0,1-1.625-1.486l-.381,0-.006-.405.34,0a1.5,1.5,0,0,1-.016-.223,2.73,2.73,0,0,1,.014-.313l-.347,0-.006-.406.413,0a1.934,1.934,0,0,1,.589-1.08,1.542,1.542,0,0,1,1.076-.379,1.811,1.811,0,0,1,.774.172l.007.469a1.524,1.524,0,0,0-.81-.236.964.964,0,0,0-.7.283,1.519,1.519,0,0,0-.418.778l1.565.019.007.406-1.635-.02a3.057,3.057,0,0,0,0,.535l1.638.021.006.405-1.587-.019q.243,1.062,1.118,1.074a1.7,1.7,0,0,0,.853-.242Z"/><rect class="cls-16" x="219.379" y="115.87" width="81.576" height="0.217"/><rect class="cls-16" x="219.379" y="129.813" width="81.576" height="0.217"/><rect class="cls-16" x="289.818" y="109.547" width="3.094" height="1.455"/><path class="cls-16" d="M298.064,112.217a1.892,1.892,0,0,1-.885.2,1.576,1.576,0,0,1-1.625-1.486l-.381,0-.006-.406.34,0a1.5,1.5,0,0,1-.016-.223,2.7,2.7,0,0,1,.014-.312l-.347,0-.006-.405.413,0a1.934,1.934,0,0,1,.589-1.08,1.537,1.537,0,0,1,1.076-.379,1.8,1.8,0,0,1,.774.171l.007.47a1.507,1.507,0,0,0-.81-.236.963.963,0,0,0-.7.282,1.523,1.523,0,0,0-.418.778l1.565.02.007.405-1.635-.02a3.069,3.069,0,0,0,0,.536l1.638.02.006.406-1.587-.02q.243,1.064,1.118,1.074a1.705,1.705,0,0,0,.853-.241Z"/><rect class="cls-16" x="290.89" y="119.2" width="3.094" height="1.455"/><path class="cls-16" d="M299.136,121.87a1.878,1.878,0,0,1-.884.2,1.576,1.576,0,0,1-1.626-1.486l-.381,0-.006-.406.34,0a1.825,1.825,0,0,1-.016-.223,2.949,2.949,0,0,1,.014-.312l-.346,0-.006-.405.412,0a1.935,1.935,0,0,1,.59-1.08,1.535,1.535,0,0,1,1.075-.379,1.8,1.8,0,0,1,.774.171l.008.47a1.507,1.507,0,0,0-.81-.236.961.961,0,0,0-.7.282,1.523,1.523,0,0,0-.418.778l1.565.02.006.405-1.634-.02a3.069,3.069,0,0,0,0,.536l1.637.02.007.406-1.588-.02q.243,1.064,1.119,1.074a1.692,1.692,0,0,0,.852-.241Z"/><rect class="cls-16" x="290.89" y="124.563" width="3.094" height="1.455"/><path class="cls-16" d="M299.136,127.233a1.89,1.89,0,0,1-.884.2,1.576,1.576,0,0,1-1.626-1.486l-.381,0-.006-.406.34,0a1.825,1.825,0,0,1-.016-.223,2.978,2.978,0,0,1,.014-.313l-.346,0-.006-.406.412.006a1.938,1.938,0,0,1,.59-1.081,1.539,1.539,0,0,1,1.075-.379,1.8,1.8,0,0,1,.774.172l.008.47a1.507,1.507,0,0,0-.81-.236.957.957,0,0,0-.7.282,1.519,1.519,0,0,0-.418.778l1.565.02.006.405-1.634-.02a3.069,3.069,0,0,0,0,.536l1.637.02.007.406-1.588-.02q.243,1.064,1.119,1.074a1.7,1.7,0,0,0,.852-.241Z"/><rect class="cls-16" x="290.89" y="133.143" width="3.094" height="1.455"/><path class="cls-16" d="M299.136,135.813a1.879,1.879,0,0,1-.884.2,1.578,1.578,0,0,1-1.626-1.486l-.381,0-.006-.406.34,0a1.84,1.84,0,0,1-.016-.223,2.978,2.978,0,0,1,.014-.313l-.346,0-.006-.406.412,0a1.935,1.935,0,0,1,.59-1.08,1.539,1.539,0,0,1,1.075-.379,1.8,1.8,0,0,1,.774.172l.008.469a1.516,1.516,0,0,0-.81-.236.965.965,0,0,0-.7.282,1.522,1.522,0,0,0-.418.779l1.565.019.006.406L297.1,133.6a3.069,3.069,0,0,0,0,.536l1.637.021.007.405-1.588-.02q.243,1.064,1.119,1.074a1.692,1.692,0,0,0,.852-.241Z"/><rect class="cls-16" x="219.537" y="142.053" width="2.16" height="1.474"/><rect class="cls-16" x="223.375" y="142.053" width="2.16" height="1.474"/><rect class="cls-16" x="227.212" y="142.053" width="2.16" height="1.474"/><rect class="cls-16" x="231.004" y="142.053" width="2.16" height="1.474"/><rect class="cls-16" x="234.842" y="142.053" width="2.16" height="1.474"/><rect class="cls-16" x="238.499" y="142.053" width="2.16" height="1.474"/><rect class="cls-16" x="242.201" y="142.053" width="2.16" height="1.474"/><rect class="cls-16" x="246.128" y="142.053" width="2.16" height="1.474"/><rect class="cls-16" x="250.011" y="142.053" width="2.16" height="1.474"/><rect class="cls-16" x="253.713" y="142.053" width="2.16" height="1.474"/><rect class="cls-16" x="257.685" y="142.053" width="2.16" height="1.474"/><rect class="cls-16" x="261.342" y="142.053" width="2.16" height="1.474"/><rect class="cls-16" x="265.089" y="142.053" width="2.16" height="1.474"/><rect class="cls-16" x="268.882" y="142.053" width="2.16" height="1.474"/><rect class="cls-16" x="272.99" y="142.053" width="2.16" height="1.474"/><rect class="cls-16" x="278.136" y="142.053" width="2.16" height="1.474"/><rect class="cls-16" x="282.064" y="142.053" width="2.16" height="1.474"/><rect class="cls-16" x="285.766" y="142.053" width="2.16" height="1.474"/><rect class="cls-16" x="289.468" y="142.053" width="2.16" height="1.474"/><rect class="cls-16" x="293.351" y="142.053" width="2.16" height="1.474"/><path class="cls-24" d="M305.842,145.531c.019.021.067.015.06-.036l-.078-.042Z"/><path class="cls-24" d="M306,145.207c-.036-.061-.1-.129-.175-.093.074.059.041.072.129.138.007.05-.029.086-.058.075.02.019-.021.076.028.106a.182.182,0,0,0,.024-.232C305.97,145.184,305.99,145.2,306,145.207Z"/><path class="cls-24" d="M304.19,140.747l.017.029A.079.079,0,0,0,304.19,140.747Z"/><path class="cls-24" d="M301.41,139.4c.024,0,.035,0,.037-.012C301.425,139.387,301.406,139.389,301.41,139.4Z"/><path class="cls-24" d="M300.884,139.247l.031.007C300.9,139.246,300.892,139.241,300.884,139.247Z"/><path class="cls-24" d="M304.19,140.747l-.046-.075C304.123,140.688,304.163,140.715,304.19,140.747Z"/><path class="cls-24" d="M305.8,144.545a.118.118,0,0,0,.023.041l-.01-.039Z"/><path class="cls-24" d="M305.161,141.728l.015.021.04,0Z"/><path class="cls-24" d="M305.7,142.648c-.008-.023-.072,0-.1,0a.081.081,0,0,1,.065.028A.114.114,0,0,0,305.7,142.648Z"/><path class="cls-24" d="M306.046,144.289l.013.028Z"/><path class="cls-24" d="M304.691,141.126a.057.057,0,0,0,.011-.024A.045.045,0,0,0,304.691,141.126Z"/><path class="cls-24" d="M305.454,146.621l.012,0C305.461,146.617,305.457,146.614,305.454,146.621Z"/><polygon class="cls-24" points="306.018 145.548 306.02 145.565 306.056 145.573 306.018 145.548"/><path class="cls-24" d="M299.879,139.172h0C299.909,139.164,299.894,139.166,299.879,139.172Z"/><path class="cls-24" d="M294.706,145.687c.044-.109.1.156.145-.005C294.827,145.7,294.725,145.554,294.706,145.687Z"/><path class="cls-24" d="M305.807,144.519l0-.041A.119.119,0,0,0,305.807,144.519Z"/><polygon class="cls-24" points="294.851 145.682 294.852 145.682 294.856 145.666 294.851 145.682"/><path class="cls-24" d="M297.686,139.9a.064.064,0,0,0,.034.013S297.707,139.9,297.686,139.9Z"/><path class="cls-24" d="M299.318,139.4l-.042,0A.178.178,0,0,0,299.318,139.4Z"/><path class="cls-24" d="M297,140.467c-.022.01-.034.007-.053.033h.013C296.96,140.487,296.969,140.474,297,140.467Z"/><polygon class="cls-24" points="296.317 141.081 296.339 141.078 296.356 141.054 296.317 141.081"/><path class="cls-24" d="M304.148,148.779a.2.2,0,0,1,.071.017C304.176,148.77,304.256,148.676,304.148,148.779Z"/><path class="cls-24" d="M305.837,144.541a.033.033,0,0,1-.03-.022l0,.028A.027.027,0,0,0,305.837,144.541Z"/><path class="cls-24" d="M297.294,140.909l-.113.071A.825.825,0,0,0,297.294,140.909Z"/><path class="cls-24" d="M298.548,149.905l.032,0A.04.04,0,0,0,298.548,149.905Z"/><path class="cls-24" d="M296.9,141.251a.2.2,0,0,0-.088.017.06.06,0,0,0,0,.023Z"/><path class="cls-24" d="M304.22,148.8h0Z"/><path class="cls-24" d="M304.666,148.025c-.076.1.035.1.059.151-.072.137-.094.017-.16.03-.036.09-.019.2-.072.248-.015-.006-.028,0-.031-.023-.016.121-.2.223-.215.371a.049.049,0,0,1-.027-.006.259.259,0,0,1,.1.074c-.043.041-.043.115-.1.088.028-.024.014-.042.014-.067l-.028.06c-.1-.024.042-.077,0-.122-.068.1-.126.244-.21.288-.067-.049.14-.163,0-.136l.125-.071c-.166-.023.068-.05-.1-.086-.151.1-.118.173-.276.265,0,.06.053.045.048.1-.163.222-.286-.043-.374.159-.01.072.028.167-.118.193l-.01-.1c-.155.083-.018.165-.209.209.011-.049.1-.1.076-.095-.139,0-.047.09-.127.138l-.055-.062c-.164.087-.321.245-.514.332,0-.027.026-.062-.029-.069a1.665,1.665,0,0,1-.788.186l-.078.093c-.022.005-.047-.025-.026-.041-.1-.011,0,.045-.038.079-.055.013-.081-.029-.05-.055a.953.953,0,0,1-.667.132l.034-.023c-.143-.021-.156.153-.293.095l.026-.014a2.1,2.1,0,0,1-.887-.14c-.062.094-.3-.089-.342.036-.158-.112-.1-.125-.331-.23-.062-.021-.119.055-.2.041l.022-.071-.131.035-.026-.1-.079-.009c.027.015.05.054.038.072-.129-.007-.258-.153-.242-.192l-.284-.067c.02-.024.067-.013.109-.013-.17,0,.011-.082-.145-.08.009.023-.03.035-.04.047a.688.688,0,0,0-.284-.2l.046-.032c-.177-.111-.379-.225-.568-.367.053.069-.017.127-.079.091l.027-.077c-.067.01.04.067-.072.057-.063-.066.012-.108.065-.094l-.1-.051c.011-.022.038-.015.062-.033-.065.007-.084-.182-.187-.162l.011-.021c-.177-.152-.254-.227-.39-.362-.053.041-.093-.024-.174-.033a2.421,2.421,0,0,0-.228-.42c-.1-.081-.067,0-.13-.021.046-.042-.047-.185.036-.133-.108-.174-.16-.208-.312-.425-.01.037-.006.071-.031.066-.03-.039-.025-.11,0-.117l.011.009c-.225-.229-.1-.686-.285-.863l.01.011-.125-.217c-.018-.11.062.054.078-.035-.176-.227-.058-.4-.166-.6.165-.18-.068-.586.072-.809l-.043.011c-.04-.059.027-.069.039-.11-.033,0-.041.06-.063.024a3.144,3.144,0,0,1,.38-1.443c.071-.164-.172-.174,0-.355l.051.091a4.721,4.721,0,0,1,.456-1.015c0,.028.021.041,0,.071.088-.031.169-.223.132-.254.038-.042.041.015.081,0,.073-.039.055-.2.128-.194.012,0,0,.028,0,.041.011-.055.16-.165.078-.174.116-.078.151-.216.258-.263,0-.1.2-.13.143-.223.066.088.229-.1.273-.183,0,.043.081-.018.081.038.077-.059.137-.128.091-.163.212-.007.247-.29.421-.2a3.063,3.063,0,0,1,.684-.479c.029.1-.265.127-.206.227a1.459,1.459,0,0,1,.553-.34c.065-.009-.02.057-.034.082.223-.122.464-.124.668-.227,0,.01-.02.024-.041.036.043-.01.1,0,.09-.048l-.04.02c-.084-.059.148-.174.152-.213-.054.151.227,0,.132.2.027-.014.06-.043.05-.074.044,0,.059.019.021.063.151-.051.092-.088.235-.1,0,.024-.027.035-.039.064a.338.338,0,0,1,.262-.088c-.007.015.008.033-.029.035a1.453,1.453,0,0,1,.588-.07c-.075.1.076.037.081.127a.858.858,0,0,1,.123-.014l-.044-.05c.106.017.21-.033.3.009l-.085.025.2.013-.108-.05c.117-.03.006-.114.147-.068-.031.006.111.015.154.085h0a.238.238,0,0,1,.194.012c.014.033-.04.092-.032.114.07-.058.252.038.339-.014a.075.075,0,0,0-.038.066l.061-.042c.042.035.045.047.026.08.139.062-.009-.124.145-.016-.015,0-.012.01-.042.009.161.085.346.08.482.186.006.1-.14-.042-.12.051a2.469,2.469,0,0,1,.679.263l-.032-.031c.094-.09.116.142.246.156-.028-.01-.07.037-.056.029a2.5,2.5,0,0,0,.493.285l-.043,0a2.7,2.7,0,0,0,.236.257c.044,0,.083.04.09-.018.085.348.494.364.535.692-.02-.027-.069-.046-.054-.025l.165.171c.034-.047.009-.044.014-.11a.241.241,0,0,1,.142.093c-.1-.065-.07.05-.074.107.011-.016.034-.013.047-.026-.018.16.1-.043.137.139l-.029.008c.045.047.109.078.138.141-.041.056-.061-.043-.109-.02.051.08.208.1.187.213-.034-.029-.059-.082-.1-.107a.279.279,0,0,0,.021.187l0-.007.04.16v-.045c.2.038.143.2.294.314-.15-.11-.064,0-.136.014,0,.046,0,.112-.029.1.081.05,0,.133.117.2-.021.012.025.076-.036.078.051.086.03-.034.061-.035.129.121,0,.367.164.55.078.176.158.2.226.37-.028.065-.093-.037-.093-.037a.428.428,0,0,0,.035.258c-.021-.017-.038,0-.062.034.01.071.087.041.058.139a.3.3,0,0,1-.1-.065c.026.083.075.164.1.252-.04.024-.065-.051-.094-.081.024.1.054.253.112.285l.025-.064c0,.036-.055.018-.067-.008a.076.076,0,0,1,.038-.128l.019.063c.133-.07-.036-.256-.035-.381l.1.045-.089-.125c.023-.03.077-.056.1.007.04-.1-.047-.078,0-.164.007-.009.012-.006.018,0L306,144.2c.024.015.067-.025.062.033.031-.173-.115-.25-.05-.325l.008.012c-.079-.217-.074-.008-.2-.153l.147-.154-.077,0c0-.023-.01-.07.021-.069-.071-.072-.027.023-.085-.014.041-.129-.117-.286-.018-.347-.067-.02,0,.115-.082.015.107-.074-.068-.123-.049-.24.071.006.073.112.091-.007-.122-.019-.048-.2-.11-.271-.082.032-.116-.157-.206-.277.037-.009-.1-.263-.141-.4l.015,0c-.091.025-.143-.11-.222-.18a.1.1,0,0,1,.126.009l-.058-.079a.179.179,0,0,1-.113-.063l.068-.019c-.083-.1-.214-.167-.288-.321-.053.033-.045.2-.191.1.021-.026.06-.068.1-.043-.014-.008-.057-.021-.066-.053l.089.015c-.032-.072-.062,0-.1-.046.036-.031,0-.056.029-.074.014.008.021.052.05.057a.311.311,0,0,1-.066-.181.053.053,0,0,1-.085.01c-.09-.093.011-.072-.022-.146-.043,0-.081-.082-.133-.032-.027-.026-.01-.055-.007-.079-.072-.023-.24-.206-.233-.1l.009.015-.01,0h0c-.2-.1-.33-.313-.52-.423l.014-.02a1.312,1.312,0,0,0-.358-.146c-.032-.019-.055-.084-.027-.1a.472.472,0,0,1-.225-.118c.109.007-.014-.048.107.018-.107-.075-.118-.122-.272-.124.069-.034-.057-.112-.121-.123l.065.08a.928.928,0,0,1-.173-.085l.062-.059c-.221-.187-.507-.02-.653-.229-.084.036.13.074.049.121-.114-.04-.209-.183-.247-.193-.157-.083-.18.07-.345.008.017.031.022.108-.11.116-.116-.028-.128-.14-.048-.151.03,0,.042.013.039.022.041,0,.095-.008.052-.046l-.02.026c-.056-.038-.225-.06-.179-.1-.1.013-.046.04.02.065a1.748,1.748,0,0,0-.4-.076c.025.016.046.051.021.049-.236-.046-.109.049-.269.054-.089-.047.036-.1-.127-.073-.1-.034-.021-.076.02-.1a.8.8,0,0,1-.37-.036l.079-.028a.427.427,0,0,1-.126.02l.048.055c-.047-.008-.086-.006-.087-.029-.045.039.042.092-.048.148-.063-.024-.182.038-.211-.03.195.009-.029-.076.134-.1a.25.25,0,0,1-.118.005c-.007-.007,0-.016.018-.021-.195-.041-.076.1-.266.124.018-.046-.057-.073-.087-.059.078-.011.048.065-.017.108-.127-.014-.127.045-.191.051l.076,0c-.017.045-.078.048-.156.085-.014-.031.069-.042.037-.048-.074.1-.224-.022-.34.06-.068-.012-.028-.076-.086-.081-.13.089-.173-.006-.309.089.062.038.064.023-.02.113l.228-.127-.128.136c.072-.024.14-.093.188-.094-.061.066-.056.054-.008.085-.125-.046-.177.118-.309.105l-.046-.134c-.2,0-.279.187-.506.26l.079-.011c0,.065-.128.071-.187.125-.016-.045-.067-.04-.111-.051.02.029-.153.089-.123.182h-.124c-.179.081-.117.223-.27.321.015-.075-.072-.052.007-.157-.05.037-.1.063-.082.09-.047,0-.1.154-.171.152-.008.032.016.076-.042.113-.012,0-.014-.018-.014-.018.013.017-.062.093.016.094-.231.018-.387.347-.578.388l-.253.332c-.007-.015-.018-.015,0-.03-.135.107.045.167-.107.287-.119.032.028-.1-.032-.075-.139-.069-.125.194-.267.252l.008-.032c-.1.056-.076.239-.168.369a.025.025,0,0,0-.02-.012,1.656,1.656,0,0,1-.1.476c-.035-.068,0-.076-.068-.076-.022.066.1.025.055.154-.048.026-.12.1-.183.091a1.27,1.27,0,0,1,.051-.12c-.111.025-.067.156-.1.215l-.032-.022c-.058.195.03.229-.049.427l.035-.013c.052.137-.077.079-.041.21l-.1.009c.005.083.018.284.011.42a1.041,1.041,0,0,1-.065-.363c-.02.075-.058.257-.022.305,0-.032-.014-.074.008-.1a.684.684,0,0,1,.043.382c-.178-.053-.108.384-.242.486.045.277-.047.544-.011.867.136-.125.009.093.154.059.014.072.021.1.011.107l-.053.232c-.034.06-.043-.065-.074-.053.014.164-.051.077-.072.193.048-.031.083.043.078.14l.045-.143c.109.209-.08.219.05.429l-.064-.061c.055.11.11.432.27.5-.009.025-.037.065-.065.019.072.282.352.533.384.759l-.041,0c.034.042.1.052.1.125-.015,0-.042,0-.032.021.026.018.127.089.146.159l-.066-.031c.1.266.3.309.463.472-.083.061.013.262.076.353l-.014.007a2.438,2.438,0,0,0,.682.512c.055.217.45.434.666.645-.028-.04.051-.065.1-.047.049.055.2.036.143.114l-.021-.014c0,.107.132.167.235.213l.074-.1c.18.307.719.242.813.444a1.688,1.688,0,0,0,.236,0l-.022.065a2.071,2.071,0,0,0,.521.133l-.058.04c.137.025.205-.167.327-.153l.023.106a1.425,1.425,0,0,0,.709.051.053.053,0,0,1-.05.046c.111.018.438.059.391-.077.007.09.246,0,.367-.054l-.013.07c.1-.1.1-.125.241-.171.036,0,.038.048-.011.038.122.016.08-.077.227-.063l-.045.05c.12-.015.108-.032.161-.1.067-.045.224-.041.257.013a.142.142,0,0,1,.13-.1c.016.02,0,.04-.016.05.212,0,.26-.168.413-.15a.051.051,0,0,0,.036.03,2.042,2.042,0,0,1-.265.086c.018.059.146.024.074.141.087-.082.221-.238.35-.255a.066.066,0,0,1,.024.014l-.009.011a.129.129,0,0,0,.072-.038.436.436,0,0,0,.1-.029c.034.04.148-.041.209-.067-.035-.058.047-.086-.05-.1.011,0-.007.013-.045.034a.106.106,0,0,0-.022.018V150.2l-.143.074a.159.159,0,0,1,.148-.1l.033-.136c.121.048.3.015.346.049.15-.14.4-.259.418-.444.035-.047.073-.009.1-.006-.018.03-.05.052-.054.077.072-.094.261-.21.227-.3.136-.054-.01.114.131-.02l0,.039c.389-.153.3-.577.709-.769-.028.014-.042.022-.057.017a8.76,8.76,0,0,0,.837-1.2c.082-.112.037-.149.033-.24l.079,0-.027-.164c0-.206.3-.262.246-.545l-.055.018c.032-.085.043-.283.093-.256-.006-.011-.042-.04-.008-.068l.037,0a1.5,1.5,0,0,0-.021-.23c.052-.165.144.054.189-.2,0-.1-.07-.279-.1-.246-.007.037-.037.092-.075.09l-.007-.085c-.109-.027-.214-.1-.321.088l.048.144-.06.036.013-.114c-.06.057-.021.1,0,.155a.094.094,0,0,0-.067.046l.085.152c-.047.007-.073-.075-.116.007.033.071.111-.039.116.069-.066.053-.1.025-.078.109-.03,0-.044-.016-.049-.048.017.074-.03.177.019.227-.074.05-.045.229-.147.189a.37.37,0,0,1,.02.2c-.08-.15-.087.219-.2.14.081.123-.081.292-.086.456,0-.012-.014-.035,0-.044-.045.072-.086.078-.128.116.078.053.028.176.04.268-.132.042-.062-.111-.154-.127.069.034-.027.191.045.195-.089.038-.059.044-.145.036.09.076-.018.075,0,.167-.117.059-.108-.04-.154.081C304.634,148.137,304.666,148.025,304.666,148.025Zm-2.192,1.962h0l.057-.025Zm-.239.089.1-.036c.016.019.016.045-.009.053C302.339,150.073,302.277,150.081,302.235,150.076Zm.7.222c-.035.028-.054.022-.065.012l.065-.041v-.009A.081.081,0,0,1,302.931,150.3Z"/><path class="cls-24" d="M302.964,150.184a.087.087,0,0,1,.014-.012l-.03,0,0,.026Z"/><polygon class="cls-24" points="304.211 140.781 304.207 140.776 304.21 140.791 304.211 140.781"/><polygon class="cls-24" points="298.821 149.969 298.816 149.985 298.841 149.979 298.821 149.969"/><path class="cls-24" d="M304.989,142.016a.042.042,0,0,0,0,.025A.1.1,0,0,0,304.989,142.016Z"/><path class="cls-24" d="M305.283,142.551l.016.089A.519.519,0,0,0,305.283,142.551Z"/><path class="cls-24" d="M305.449,142.989a.09.09,0,0,0,.03,0h0Z"/><path class="cls-24" d="M299.441,139.833l-.017,0C299.386,139.859,299.413,139.848,299.441,139.833Z"/><path class="cls-24" d="M301.633,139.7a.531.531,0,0,1-.076.014C301.594,139.724,301.624,139.733,301.633,139.7Z"/><polygon class="cls-24" points="297.306 140.901 297.305 140.9 297.294 140.909 297.306 140.901"/><path class="cls-24" d="M301.455,139.693a.166.166,0,0,0,.1.017A.236.236,0,0,0,301.455,139.693Z"/><polygon class="cls-24" points="305.816 144.958 305.814 144.981 305.825 144.983 305.816 144.958"/><path class="cls-24" d="M305.825,144.983l.007.025C305.832,145,305.832,144.987,305.825,144.983Z"/><path class="cls-24" d="M305.846,145.061l-.014-.053C305.831,145.026,305.827,145.049,305.846,145.061Z"/><path class="cls-24" d="M305.8,144.343l-.025,0A.042.042,0,0,0,305.8,144.343Z"/><path class="cls-24" d="M305.767,144.159c0,.045-.034.118-.01.177l.021,0C305.737,144.315,305.814,144.2,305.767,144.159Z"/><path class="cls-24" d="M305.881,143.307l.024.165c.018-.035.042-.082.067-.01C305.993,143.236,305.929,143.519,305.881,143.307Z"/><path class="cls-24" d="M305.738,142.809c.042.08.035-.015.05-.017C305.744,142.749,305.732,142.739,305.738,142.809Z"/><path class="cls-24" d="M303.3,140.062l.039-.048C303.273,139.985,303.324,140.034,303.3,140.062Z"/><path class="cls-24" d="M302.537,140.04l.044.058.049-.038A.5.5,0,0,0,302.537,140.04Z"/><polygon class="cls-24" points="302.298 139.488 302.329 139.49 302.212 139.471 302.298 139.488"/><path class="cls-24" d="M296.385,140.918l.068.039C296.479,140.916,296.426,140.848,296.385,140.918Z"/><path class="cls-24" d="M295.039,143.278a.111.111,0,0,0-.066.14C294.992,143.36,295.036,143.31,295.039,143.278Z"/><polygon class="cls-24" points="297.946 150.264 297.885 150.263 297.989 150.289 297.946 150.264"/><polygon class="cls-25" points="297.395 144.791 297.893 144.985 298.669 145.803 299.146 146.637 300.038 145.959 300.941 145.06 301.833 144.148 302.77 143.276 303.691 142.388 304.292 142.473 303.411 143.54 302.395 144.578 301.516 145.746 300.397 146.697 299.476 147.824 298.912 147.589 298.141 146.197 297.395 144.791"/><rect class="cls-26" width="370" height="206"/><circle class="cls-27" cx="62.762" cy="168.487" r="25.873"/><path class="cls-12" d="M70.049,183.724a13,13,0,0,1-6.42,1.685q-9.721,0-11.588-11.52H49.286V170.7h2.459a14,14,0,0,1-.091-1.753q0-1.094.136-2.458h-2.5V163.3h2.983a16.126,16.126,0,0,1,4.382-8.549,10.892,10.892,0,0,1,7.821-3.085,11.947,11.947,0,0,1,5.577,1.275v3.688a10.083,10.083,0,0,0-5.828-1.776,6.88,6.88,0,0,0-5.066,2.289,12.7,12.7,0,0,0-3.107,6.158H67.363v3.188H55.547a26.059,26.059,0,0,0-.023,4.211H67.363v3.187H55.888q1.64,8.334,7.969,8.333a11.808,11.808,0,0,0,6.192-1.981Z"/><line class="cls-28" x1="178.787" y1="107.809" x2="179.287" y2="107.809"/><line class="cls-29" x1="180.269" y1="107.809" x2="205.294" y2="107.809"/><line class="cls-28" x1="205.785" y1="107.809" x2="206.285" y2="107.809"/><polygon class="cls-30" points="206.081 106.29 206.081 109.327 207.599 107.809 206.081 106.29"/></g></g></svg>