<svg xmlns="http://www.w3.org/2000/svg" xmlns:xlink="http://www.w3.org/1999/xlink" viewBox="0 0 370 206"><defs><style>.cls-1,.cls-12,.cls-13,.cls-20,.cls-21,.cls-27{fill:none;}.cls-1,.cls-26{stroke:#7faac5;}.cls-1,.cls-10,.cls-12,.cls-13,.cls-17,.cls-20,.cls-21,.cls-26,.cls-6,.cls-8{stroke-miterlimit:10;}.cls-1{stroke-width:0.222px;}.cls-2,.cls-6{fill:#7faac5;}.cls-3{fill:#e95653;}.cls-4{fill:#404040;}.cls-5{fill:#464646;}.cls-6{stroke:#fff;stroke-width:0.345px;}.cls-10,.cls-17,.cls-23,.cls-26,.cls-7,.cls-8{fill:#fff;}.cls-8{stroke:#9fb8cc;stroke-width:0.119px;}.cls-9{fill:#7fc3de;opacity:0.99;}.cls-10,.cls-17{stroke:#40a5ce;}.cls-10{stroke-width:0.166px;}.cls-11{clip-path:url(#clip-path);}.cls-12,.cls-13{stroke:#bec8d2;}.cls-12{stroke-width:0.914px;}.cls-13{stroke-width:1.204px;}.cls-14{clip-path:url(#clip-path-2);}.cls-15{fill:#94a5b3;}.cls-16{clip-path:url(#clip-path-3);}.cls-17{stroke-width:0.174px;}.cls-18{fill:#333;}.cls-19{fill:#f0c32d;}.cls-20,.cls-21{stroke:#f0c32d;}.cls-20,.cls-26{stroke-width:0.498px;}.cls-21{stroke-width:0.249px;}.cls-22{clip-path:url(#clip-path-4);}.cls-23{opacity:0.1;}.cls-24{clip-path:url(#clip-path-5);}.cls-25{clip-path:url(#clip-path-6);}</style><clipPath id="clip-path"><rect class="cls-1" x="158.762" y="51.095" width="72.116" height="33.035" transform="translate(-6.03 20.863) rotate(-6.037)"/></clipPath><clipPath id="clip-path-2"><path class="cls-2" d="M164.852,40.04a2.77,2.77,0,0,1-2.642,2.985,3.207,3.207,0,0,1-1.815-.369,2.672,2.672,0,0,1,1.173-5.067A2.961,2.961,0,0,1,164.852,40.04Z"/></clipPath><clipPath id="clip-path-3"><rect class="cls-1" x="163.271" y="111.116" width="72.116" height="21.263" transform="translate(-11.698 21.637) rotate(-6.037)"/></clipPath><clipPath id="clip-path-4"><polygon class="cls-3" points="223.899 38.976 229.76 43.197 233.149 51.531 236.234 53.384 245.191 38.475 242.107 36.622 233.158 37.542 226.679 34.349 223.899 38.976"/></clipPath><clipPath id="clip-path-5"><path class="cls-4" d="M283.369,69.261l-1.9,3.154a4.14,4.14,0,0,1-5.546,1.494L236.234,53.384l8.957-14.909,36.976,25.551A3.871,3.871,0,0,1,283.369,69.261Z"/></clipPath><clipPath id="clip-path-6"><path class="cls-5" d="M275.986,178.045l12.18,8.976a4.625,4.625,0,0,1,1.225,6.1l-2.063,3.447a4.126,4.126,0,0,1-5.231,1.643l-14.146-6.488Z"/></clipPath></defs><title>Asset 4</title><g id="Layer_2" data-name="Layer 2"><g id="Layer_1-2" data-name="Layer 1"><rect id="Body_-_Frame" data-name="Body - Frame" class="cls-6" x="80.8" y="11.427" width="223.935" height="157.029" rx="8.285"/><path id="Border" class="cls-7" d="M296.449,12.314H89.084a7.479,7.479,0,0,0-7.4,7.54V160.23H303.846V19.854A7.478,7.478,0,0,0,296.449,12.314Z"/><rect id="_YOUR_SCREEN_HERE_" data-name="[YOUR SCREEN HERE]" class="cls-8" x="89.535" y="22.919" width="206.464" height="128.951"/><polygon id="_YOUR_SCREEN_HERE_2" data-name="[YOUR SCREEN HERE]" class="cls-9" points="295.999 151.87 89.535 151.87 89.629 88.583 295.832 53.819 295.999 151.87"/><polygon class="cls-10" points="244.357 141.485 159.744 150.362 147.066 31.512 231.679 22.636 244.357 141.485"/><g class="cls-11"><line class="cls-1" x1="167.671" y1="55.39" x2="170.953" y2="86.975"/><line class="cls-1" x1="173.381" y1="55.168" x2="176.663" y2="86.753"/><line class="cls-1" x1="216.493" y1="50.762" x2="219.776" y2="82.347"/><line class="cls-1" x1="221.989" y1="49.951" x2="225.272" y2="81.536"/><rect class="cls-9" x="154.44" y="49.379" width="75.89" height="5.796" transform="translate(-4.431 20.522) rotate(-6.037)"/></g><rect class="cls-1" x="158.762" y="51.095" width="72.116" height="33.035" transform="translate(-6.03 20.863) rotate(-6.037)"/><line class="cls-12" x1="161.234" y1="60.67" x2="165.423" y2="60.227"/><line class="cls-12" x1="218.07" y1="53.896" x2="221.048" y2="53.581"/><line class="cls-12" x1="218.251" y1="55.609" x2="221.229" y2="55.294"/><line class="cls-12" x1="218.432" y1="57.323" x2="221.411" y2="57.008"/><line class="cls-12" x1="218.613" y1="59.036" x2="221.592" y2="58.721"/><line class="cls-12" x1="225.35" y1="62.376" x2="228.328" y2="62.061"/><line class="cls-12" x1="221.361" y1="84.661" x2="224.34" y2="84.346"/><line class="cls-12" x1="227.636" y1="83.998" x2="230.615" y2="83.683"/><line class="cls-12" x1="225.582" y1="64.568" x2="228.56" y2="64.253"/><line class="cls-12" x1="225.813" y1="66.761" x2="228.792" y2="66.446"/><line class="cls-12" x1="161.466" y1="62.863" x2="165.654" y2="62.42"/><line class="cls-12" x1="161.69" y1="64.98" x2="165.878" y2="64.537"/><line class="cls-12" x1="169.96" y1="68.004" x2="174.149" y2="67.561"/><line class="cls-12" x1="170.192" y1="70.196" x2="174.38" y2="69.753"/><line class="cls-12" x1="170.416" y1="72.313" x2="174.604" y2="71.87"/><line class="cls-12" x1="175.608" y1="58.997" x2="196.277" y2="56.812"/><line class="cls-12" x1="175.872" y1="61.492" x2="192.836" y2="59.698"/><line class="cls-12" x1="176.175" y1="64.365" x2="203.195" y2="61.508"/><line class="cls-12" x1="176.439" y1="66.86" x2="197.109" y2="64.674"/><line class="cls-12" x1="176.695" y1="69.279" x2="194.114" y2="67.437"/><line class="cls-12" x1="176.991" y1="72.077" x2="191.461" y2="70.546"/><line class="cls-12" x1="161.593" y1="91.288" x2="179.011" y2="89.446"/><line class="cls-12" x1="161.888" y1="94.085" x2="208.943" y2="89.109"/><line class="cls-12" x1="194.001" y1="70.278" x2="199.248" y2="69.723"/><line class="cls-12" x1="198.137" y1="56.615" x2="203.384" y2="56.06"/><line class="cls-13" x1="160.603" y1="88.146" x2="232.588" y2="80.655"/><line class="cls-13" x1="210.612" y1="36.213" x2="227.736" y2="34.402"/><line class="cls-13" x1="211.945" y1="38.299" x2="227.969" y2="36.604"/><line class="cls-13" x1="209.23" y1="40.688" x2="228.176" y2="38.561"/><path class="cls-3" d="M167.331,44.046l-10.371.935a.079.079,0,0,1-.087-.066l-.029-.243a.073.073,0,0,1,.07-.079l10.371-.936a.081.081,0,0,1,.088.066l.029.243A.075.075,0,0,1,167.331,44.046Z"/><path class="cls-2" d="M164.852,40.04a2.77,2.77,0,0,1-2.642,2.985,3.207,3.207,0,0,1-1.815-.369,2.672,2.672,0,0,1,1.173-5.067A2.961,2.961,0,0,1,164.852,40.04Z"/><g class="cls-14"><path class="cls-3" d="M161.843,39.919c.423-.039-1.795,2.908,1.122,2.253.825-.185.2.849.2.849a3.486,3.486,0,0,1-4.572-1.632C158.227,38.282,161.843,39.919,161.843,39.919Z"/></g><path class="cls-15" d="M232.485,84.237a.809.809,0,0,1-.363.135.673.673,0,0,1-.769-.54l-.162.019-.024-.171.144-.017a.552.552,0,0,1-.019-.094,1.192,1.192,0,0,1-.012-.133l-.146.017-.025-.171.175-.02a.828.828,0,0,1,.19-.49.656.656,0,0,1,.434-.219.779.779,0,0,1,.337.03l.029.2a.652.652,0,0,0-.356-.055.412.412,0,0,0-.279.158.649.649,0,0,0-.134.352l.663-.078.025.171-.692.082a1.284,1.284,0,0,0,.031.226l.694-.081.025.171-.673.079c.108.291.285.422.533.393a.735.735,0,0,0,.347-.149Z"/><path class="cls-15" d="M226.284,84.893a.8.8,0,0,1-.363.134.672.672,0,0,1-.769-.539l-.162.019-.024-.171.144-.017a.552.552,0,0,1-.019-.094,1.192,1.192,0,0,1-.012-.133l-.146.017-.025-.171.175-.02a.819.819,0,0,1,.19-.49.654.654,0,0,1,.434-.219.764.764,0,0,1,.337.03l.029.2a.643.643,0,0,0-.356-.055.411.411,0,0,0-.279.157.653.653,0,0,0-.134.353l.663-.078.025.171-.692.081a1.3,1.3,0,0,0,.031.227l.694-.081.025.171-.673.078c.108.291.285.422.533.393a.723.723,0,0,0,.347-.148Z"/><line class="cls-12" x1="215.972" y1="116.083" x2="218.951" y2="115.768"/><line class="cls-12" x1="216.154" y1="117.797" x2="219.132" y2="117.482"/><line class="cls-12" x1="216.335" y1="119.511" x2="219.313" y2="119.196"/><line class="cls-12" x1="216.516" y1="121.224" x2="219.495" y2="120.909"/><line class="cls-12" x1="222.899" y1="117.228" x2="225.878" y2="116.913"/><line class="cls-12" x1="223.08" y1="118.942" x2="226.059" y2="118.627"/><line class="cls-12" x1="223.262" y1="120.656" x2="226.24" y2="120.341"/><line class="cls-12" x1="223.443" y1="122.369" x2="226.422" y2="122.054"/><line class="cls-12" x1="229.384" y1="114.196" x2="232.363" y2="113.881"/><line class="cls-12" x1="229.566" y1="115.909" x2="232.544" y2="115.594"/><line class="cls-12" x1="229.747" y1="117.623" x2="232.726" y2="117.308"/><line class="cls-12" x1="229.928" y1="119.337" x2="232.907" y2="119.022"/><line class="cls-12" x1="165.696" y1="138.966" x2="235" y2="131.637"/><line class="cls-12" x1="167.066" y1="143.046" x2="236.37" y2="135.717"/><line class="cls-13" x1="214.025" y1="101.861" x2="232.97" y2="99.734"/><line class="cls-13" x1="214.219" y1="103.696" x2="231.22" y2="101.898"/><line class="cls-12" x1="167.192" y1="122.345" x2="187.862" y2="120.16"/><line class="cls-12" x1="167.448" y1="124.765" x2="184.867" y2="122.923"/><line class="cls-12" x1="167.897" y1="130.115" x2="185.315" y2="128.273"/><line class="cls-12" x1="167.744" y1="127.562" x2="182.214" y2="126.032"/><line class="cls-12" x1="189.615" y1="119.851" x2="194.862" y2="119.296"/><line class="cls-12" x1="186.748" y1="128.251" x2="191.995" y2="127.696"/><line class="cls-12" x1="193.595" y1="127.527" x2="198.842" y2="126.972"/><g class="cls-16"><line class="cls-17" x1="213.944" y1="111.649" x2="215.937" y2="131.034"/><line class="cls-17" x1="220.529" y1="110.777" x2="222.521" y2="130.162"/><line class="cls-17" x1="227.117" y1="109.94" x2="229.11" y2="129.325"/><rect class="cls-9" x="159.568" y="109.367" width="75.89" height="5.796" transform="matrix(0.994, -0.105, 0.105, 0.994, -10.711, 21.394)"/></g><rect class="cls-1" x="163.271" y="111.116" width="72.116" height="21.263" transform="translate(-11.698 21.637) rotate(-6.037)"/><rect class="cls-18" x="207.193" y="33.391" width="13.333" height="3.54" transform="translate(-2.512 22.685) rotate(-6.037)"/><rect class="cls-18" x="159.473" y="91.926" width="13.333" height="3.54" transform="translate(-8.932 17.991) rotate(-6.037)"/><rect class="cls-18" x="228.35" y="112.443" width="5.291" height="3.056" transform="translate(-10.705 24.924) rotate(-6.037)"/><circle class="cls-19" cx="93.196" cy="171.659" r="21.93"/><path class="cls-7" d="M91.08,178.057l-1.64,2.7.3.18L88.677,182.4l1.766.093.463-.636.441.288,2.064-2.388L97.17,178.6l.927-1.271,10.472-16.488a1.81,1.81,0,0,0-.436-2.473l-1.3-.947a1.691,1.691,0,0,0-2.325.321l-12.556,15.11-.926,1.271Z"/><line class="cls-20" x1="90.515" y1="173.755" x2="97.908" y2="179.03"/><line class="cls-21" x1="86.399" y1="178.67" x2="93.792" y2="183.945"/><polygon class="cls-7" points="89.453 184.53 77.727 184.531 78.724 183.349 90.45 183.348 89.453 184.53"/><polygon class="cls-4" points="224.208 38.462 222.666 37.536 222.947 32.508 226.546 34.67 224.208 38.462"/><polygon class="cls-3" points="223.899 38.976 229.76 43.197 233.149 51.531 236.234 53.384 245.191 38.475 242.107 36.622 233.158 37.542 226.679 34.349 223.899 38.976"/><g class="cls-22"><polygon class="cls-23" points="223.899 38.976 229.76 43.197 233.149 51.531 236.234 53.384 240.945 45.605 237.208 43.359 234.157 41.526 225.538 36.348 223.899 38.976"/></g><path class="cls-4" d="M283.369,69.261l-1.9,3.154a4.14,4.14,0,0,1-5.546,1.494L236.234,53.384l8.957-14.909,36.976,25.551A3.871,3.871,0,0,1,283.369,69.261Z"/><g class="cls-24"><path class="cls-23" d="M282.439,70.535l-.965,1.88a4.14,4.14,0,0,1-5.546,1.494L236.234,53.384l4.559-7.871,38.9,23.372C281.436,70.023,282.53,70.382,282.439,70.535Z"/></g><path class="cls-5" d="M275.986,178.045l12.18,8.976a4.625,4.625,0,0,1,1.225,6.1l-2.063,3.447a4.126,4.126,0,0,1-5.231,1.643l-14.146-6.488Z"/><g class="cls-25"><path class="cls-23" d="M287.18,175.814h0a0,0,0,0,1,0,0v21.181a0,0,0,0,1,0,0h-9.047a0,0,0,0,1,0,0V184.861a9.047,9.047,0,0,1,9.047-9.047Z" transform="translate(589.797 43.906) rotate(121.707)"/></g><rect class="cls-2" x="177.921" y="160.671" width="31.317" height="21.613"/><path class="cls-26" d="M252.134,189.185,194.586,183.9a2.725,2.725,0,0,0-.478,0l-58.416,5.285a2.631,2.631,0,0,1-2.868-2.621V182.6a2.63,2.63,0,0,1,2.631-2.631h116.92a2.631,2.631,0,0,1,2.631,2.631v3.969A2.632,2.632,0,0,1,252.134,189.185Z"/><rect class="cls-27" width="370" height="206"/></g></g></svg>