<svg xmlns="http://www.w3.org/2000/svg" xmlns:xlink="http://www.w3.org/1999/xlink" viewBox="0 0 76 76"><defs><clipPath id="a"><rect width="76" height="76" style="fill:none"/></clipPath><clipPath id="b"><rect x="23.27" y="45.79" width="4.91" height="4.91" style="fill:none"/></clipPath><clipPath id="c"><path d="M24.17,48.26v2a.07.07,0,0,0,.07.07h3a.07.07,0,0,0,.07-.07v-2Z" style="fill:#0e3c62"/></clipPath><linearGradient id="d" x1="24.65" y1="47.79" x2="26.22" y2="49.31" gradientUnits="userSpaceOnUse"><stop offset="0" stop-color="#fff"/><stop offset="1" stop-color="#f5f5fa"/></linearGradient><clipPath id="e"><path d="M27.28,48.22v-2a.08.08,0,0,0-.07-.08h-3a.08.08,0,0,0-.07.08v2Z" style="fill:none"/></clipPath><clipPath id="g"><rect x="28.18" y="45.79" width="4.91" height="4.91" style="fill:none"/></clipPath><clipPath id="h"><path d="M29.08,48.26v2a.07.07,0,0,0,.07.07h3a.07.07,0,0,0,.07-.07v-2Z" style="fill:#0e3c62"/></clipPath><linearGradient id="i" x1="29.57" y1="47.79" x2="31.07" y2="48.72" xlink:href="#d"/><clipPath id="j"><path d="M32.19,48.22v-2a.08.08,0,0,0-.07-.08h-3a.08.08,0,0,0-.07.08v2Z" style="fill:none"/></clipPath><clipPath id="l"><rect x="33.09" y="45.79" width="4.91" height="4.91" style="fill:none"/></clipPath><clipPath id="m"><path d="M34,48.26v2a.08.08,0,0,0,.08.07h3a.07.07,0,0,0,.08-.07v-2Z" style="fill:#0e3c62"/></clipPath><linearGradient id="n" x1="34.74" y1="46.9" x2="36.28" y2="49.44" xlink:href="#d"/><clipPath id="o"><path d="M37.1,48.22v-2a.08.08,0,0,0-.08-.08h-3a.09.09,0,0,0-.08.08v2Z" style="fill:none"/></clipPath><clipPath id="q"><rect x="37.99" y="45.79" width="4.91" height="4.91" style="fill:none"/></clipPath><clipPath id="r"><path d="M38.89,48.26v2a.07.07,0,0,0,.07.07h3a.08.08,0,0,0,.08-.07v-2Z" style="fill:none"/></clipPath><linearGradient id="s" x1="39.36" y1="46.96" x2="41.14" y2="49.93" xlink:href="#d"/><clipPath id="t"><path d="M42,48.22v-2a.09.09,0,0,0-.08-.08H39a.08.08,0,0,0-.07.08v2Z" style="fill:none"/></clipPath><clipPath id="v"><rect x="42.9" y="45.79" width="4.91" height="4.91" style="fill:none"/></clipPath><clipPath id="w"><path d="M43.8,48.26v2a.07.07,0,0,0,.07.07h3a.07.07,0,0,0,.07-.07v-2Z" style="fill:none"/></clipPath><linearGradient id="x" x1="44.3" y1="46.92" x2="46.29" y2="49.91" xlink:href="#d"/><clipPath id="y"><path d="M46.91,48.22v-2a.08.08,0,0,0-.07-.08h-3a.08.08,0,0,0-.07.08v2Z" style="fill:none"/></clipPath><clipPath id="aa"><rect x="47.41" y="45.79" width="4.91" height="4.91" style="fill:#e9f5ff"/></clipPath><clipPath id="ab"><path d="M48.32,48.27v2a.08.08,0,0,0,.07.08h3a.08.08,0,0,0,.07-.08v-2Z" style="fill:none"/></clipPath><linearGradient id="ac" x1="49.01" y1="46.81" x2="50.51" y2="49.81" xlink:href="#d"/><clipPath id="ad"><path d="M51.43,48.25v-2a.07.07,0,0,0-.07-.07h-3a.07.07,0,0,0-.07.07v2Z" style="fill:none"/></clipPath></defs><g style="isolation:isolate"><g style="clip-path:url(#a)"><path d="M38,3.71c-9.28,0-16.84,8.11-16.84,18.08v14.7h6V21.79c0-6.45,5.08-11.7,10.85-11.7s10.85,5.25,10.85,11.7v14.7h6V21.79C54.83,11.82,47.28,3.71,38,3.71Z" style="fill:#869cb3"/><path d="M27.69,17.7A11.48,11.48,0,0,1,38,10.79,11.5,11.5,0,0,1,48.3,17.7h-.08A11.08,11.08,0,0,0,38,10.08,11.09,11.09,0,0,0,27.76,17.7Z" style="fill:#4d6278"/><path d="M38,3.71c-9.28,0-16.84,8.11-16.84,18.08v14.7h1.12V23.75c0-10,7.31-18.08,15.81-18.08s16.6,8.11,16.6,18.08V36.49h.15V21.79C54.83,11.82,47.28,3.71,38,3.71Z" style="fill:#dfe7f0"/><path d="M38,72.29A23.2,23.2,0,1,1,61.2,49.1,23.22,23.22,0,0,1,38,72.29Z" style="fill:#a4c9e7"/><path d="M38,71.3A22.2,22.2,0,1,1,60.2,49.1,22.23,22.23,0,0,1,38,71.3Z" style="fill:#66aede"/><path d="M38,27.39a22.24,22.24,0,0,1,22.2,22V49.1a22.2,22.2,0,0,0-44.4,0v.25A22.24,22.24,0,0,1,38,27.39Z" style="fill:#fff"/><path d="M38,68.32A19.22,19.22,0,1,1,57.22,49.1,19.24,19.24,0,0,1,38,68.32Z" style="fill:#77addb"/><path d="M38,67.82A18.73,18.73,0,1,1,56.72,49.1,18.74,18.74,0,0,1,38,67.82Z" style="fill:#1a72ad"/><path d="M38,67.07a18,18,0,1,1,18-18,18,18,0,0,1-18,18Z" style="fill:#f5f7f8"/><g style="mix-blend-mode:multiply"><path d="M54.1,50.35a1.81,1.81,0,0,1-1.69,1.9H23.58a1.81,1.81,0,0,1-1.69-1.9V46.13a1.8,1.8,0,0,1,1.69-1.89H52.41a1.8,1.8,0,0,1,1.69,1.89Z" style="fill:#746eb9"/></g><path d="M54.32,50.54a1.8,1.8,0,0,1-1.69,1.89H23.8a1.79,1.79,0,0,1-1.68-1.89V46.32a1.79,1.79,0,0,1,1.68-1.89H52.63a1.8,1.8,0,0,1,1.69,1.89Z" style="fill:#1a72ad"/><path d="M53.94,50.19a1.81,1.81,0,0,1-1.69,1.9H23.42a1.81,1.81,0,0,1-1.69-1.9V46a1.8,1.8,0,0,1,1.69-1.89H52.25A1.8,1.8,0,0,1,53.94,46Z" style="fill:#a4c9e7"/><path d="M54.1,50.35a1.81,1.81,0,0,1-1.69,1.9H23.58a1.81,1.81,0,0,1-1.69-1.9V46.13a1.8,1.8,0,0,1,1.69-1.89H52.41a1.8,1.8,0,0,1,1.69,1.89Z" style="fill:#66aede"/><g style="clip-path:url(#b)"><rect x="23.27" y="45.79" width="4.91" height="4.91" style="fill:#e9f5ff"/><g style="mix-blend-mode:multiply"><path d="M24.17,51.05v2a.08.08,0,0,0,.07.08h3a.08.08,0,0,0,.07-.08v-2Z" style="fill:#e11e19"/></g><g style="mix-blend-mode:multiply"><path d="M27.34,48.28v-2a.07.07,0,0,0-.07-.07h-3a.07.07,0,0,0-.07.07v2Z" style="fill:#fff"/><path d="M27.34,48.28v-2a.07.07,0,0,0-.07-.07h-3a.07.07,0,0,0-.07.07v2Z" style="fill:#fcfdfd"/><path d="M27.34,48.28v-2a.08.08,0,0,0-.07-.08h-3a.08.08,0,0,0-.07.08v2Z" style="fill:#f9fafb"/><path d="M27.34,48.28v-2a.08.08,0,0,0-.07-.08h-3a.08.08,0,0,0-.07.08v2Z" style="fill:#f6f8f9"/><path d="M27.34,48.28v-2a.08.08,0,0,0-.07-.08h-3a.08.08,0,0,0-.07.08v2Z" style="fill:#f3f5f7"/><path d="M27.34,48.28v-2a.07.07,0,0,0-.07-.08h-3a.08.08,0,0,0-.08.08v2Z" style="fill:#f0f3f5"/><path d="M27.34,48.28v-2a.07.07,0,0,0-.07-.08h-3a.08.08,0,0,0-.08.08v2Z" style="fill:#edf1f3"/><path d="M27.34,48.28v-2a.07.07,0,0,0-.07-.07h-3a.08.08,0,0,0-.08.07v2Z" style="fill:#eaeef1"/><path d="M27.34,48.28v-2a.07.07,0,0,0-.08-.07h-3a.08.08,0,0,0-.08.07v2Z" style="fill:#e7ecef"/><path d="M27.34,48.28v-2a.07.07,0,0,0-.08-.07h-3a.08.08,0,0,0-.08.07v2Z" style="fill:#e4e9ee"/><path d="M27.34,48.28v-2a.08.08,0,0,0-.08-.07h-3a.07.07,0,0,0-.07.07v2Z" style="fill:#e1e7ec"/><path d="M27.34,48.28v-2a.08.08,0,0,0-.08-.07h-3a.07.07,0,0,0-.07.07v2Z" style="fill:#dee5ea"/><path d="M27.34,48.28v-2a.08.08,0,0,0-.08-.07h-3a.07.07,0,0,0-.07.07v2Z" style="fill:#dbe2e8"/><path d="M27.34,48.28v-2a.08.08,0,0,0-.08-.07h-3a.07.07,0,0,0-.07.07v2Z" style="fill:#d8e0e6"/><path d="M27.33,48.27v-2a.07.07,0,0,0-.07-.07h-3a.07.07,0,0,0-.07.07v2Z" style="fill:#d5dde4"/><path d="M27.33,48.27v-2a.08.08,0,0,0-.07-.08h-3a.08.08,0,0,0-.07.08v2Z" style="fill:#d2dbe2"/><path d="M27.33,48.27v-2a.08.08,0,0,0-.07-.08h-3a.08.08,0,0,0-.07.08v2Z" style="fill:#cfd8e0"/><path d="M27.33,48.27v-2a.08.08,0,0,0-.07-.08h-3a.08.08,0,0,0-.07.08v2Z" style="fill:#ccd6de"/><path d="M27.33,48.27v-2a.07.07,0,0,0-.07-.08h-3a.07.07,0,0,0-.07.08v2Z" style="fill:#c9d4dc"/><path d="M27.33,48.27v-2a.07.07,0,0,0-.07-.08h-3a.08.08,0,0,0-.08.08v2Z" style="fill:#c6d1da"/><path d="M27.33,48.27v-2a.07.07,0,0,0-.07-.07h-3a.08.08,0,0,0-.08.07v2Z" style="fill:#c3cfd8"/><path d="M27.33,48.27v-2a.07.07,0,0,0-.07-.07h-3a.08.08,0,0,0-.08.07v2Z" style="fill:#c1ccd6"/><path d="M27.33,48.27v-2a.07.07,0,0,0-.08-.07h-3a.08.08,0,0,0-.08.07v2Z" style="fill:#becad4"/><path d="M27.33,48.27v-2a.08.08,0,0,0-.08-.07h-3a.07.07,0,0,0-.08.07v2Z" style="fill:#bbc8d2"/><path d="M27.33,48.27v-2a.08.08,0,0,0-.08-.07h-3a.07.07,0,0,0-.07.07v2Z" style="fill:#b8c5d0"/><path d="M27.33,48.27v-2a.08.08,0,0,0-.08-.07h-3a.07.07,0,0,0-.07.07v2Z" style="fill:#b5c3cf"/><path d="M27.33,48.27v-2a.08.08,0,0,0-.08-.07h-3a.07.07,0,0,0-.07.07v2Z" style="fill:#b2c0cd"/><path d="M27.32,48.26v-2a.07.07,0,0,0-.07-.07h-3a.07.07,0,0,0-.07.07v2Z" style="fill:#afbecb"/><path d="M27.32,48.26v-2a.08.08,0,0,0-.07-.08h-3a.08.08,0,0,0-.07.08v2Z" style="fill:#acbcc9"/><path d="M27.32,48.26v-2a.08.08,0,0,0-.07-.08h-3a.08.08,0,0,0-.07.08v2Z" style="fill:#a9b9c7"/><path d="M27.32,48.26v-2a.08.08,0,0,0-.07-.08h-3a.08.08,0,0,0-.07.08v2Z" style="fill:#a6b7c5"/><path d="M27.32,48.26v-2a.08.08,0,0,0-.07-.08h-3a.08.08,0,0,0-.07.08v2Z" style="fill:#a3b4c3"/><path d="M27.32,48.26v-2a.07.07,0,0,0-.07-.08h-3a.08.08,0,0,0-.08.08v2Z" style="fill:#a0b2c1"/><path d="M27.32,48.26v-2a.07.07,0,0,0-.07-.07h-3a.08.08,0,0,0-.08.07v2Z" style="fill:#9db0bf"/><path d="M27.32,48.26v-2a.07.07,0,0,0-.07-.07h-3a.08.08,0,0,0-.08.07v2Z" style="fill:#9aadbd"/><path d="M27.32,48.26v-2a.07.07,0,0,0-.08-.07h-3a.08.08,0,0,0-.08.07v2Z" style="fill:#97abbb"/><path d="M27.32,48.26v-2a.08.08,0,0,0-.08-.07h-3a.07.07,0,0,0-.08.07v2Z" style="fill:#94a8b9"/><path d="M27.32,48.26v-2a.08.08,0,0,0-.08-.07h-3a.07.07,0,0,0-.07.07v2Z" style="fill:#91a6b7"/><path d="M27.32,48.26v-2a.08.08,0,0,0-.08-.07h-3a.07.07,0,0,0-.07.07v2Z" style="fill:#8ea4b5"/><path d="M27.32,48.26v-2a.08.08,0,0,0-.08-.07h-3a.07.07,0,0,0-.07.07v2Z" style="fill:#8ba1b3"/><path d="M27.31,48.25v-2a.07.07,0,0,0-.07-.07h-3a.07.07,0,0,0-.07.07v2Z" style="fill:#889fb1"/><path d="M27.31,48.25v-2a.08.08,0,0,0-.07-.08h-3a.08.08,0,0,0-.07.08v2Z" style="fill:#859cb0"/><path d="M27.31,48.25v-2a.08.08,0,0,0-.07-.08h-3a.08.08,0,0,0-.07.08v2Z" style="fill:#829aae"/><path d="M27.31,48.25v-2a.08.08,0,0,0-.07-.08h-3a.08.08,0,0,0-.07.08v2Z" style="fill:#7f97ac"/><path d="M27.31,48.25v-2a.08.08,0,0,0-.07-.08h-3a.08.08,0,0,0-.07.08v2Z" style="fill:#7c95aa"/><path d="M27.31,48.25v-2a.07.07,0,0,0-.07-.08h-3a.08.08,0,0,0-.08.08v2Z" style="fill:#7993a8"/><path d="M27.31,48.25v-2a.07.07,0,0,0-.07-.07h-3a.08.08,0,0,0-.08.07v2Z" style="fill:#7690a6"/><path d="M27.31,48.25v-2a.07.07,0,0,0-.07-.07h-3a.08.08,0,0,0-.08.07v2Z" style="fill:#738ea4"/><path d="M27.31,48.25v-2a.07.07,0,0,0-.08-.07h-3a.08.08,0,0,0-.08.07v2Z" style="fill:#708ba2"/><path d="M27.31,48.25v-2a.08.08,0,0,0-.08-.07h-3a.07.07,0,0,0-.08.07v2Z" style="fill:#6d89a0"/><path d="M27.31,48.25v-2a.08.08,0,0,0-.08-.07h-3a.07.07,0,0,0-.07.07v2Z" style="fill:#6a879e"/><path d="M27.31,48.25v-2a.08.08,0,0,0-.08-.07h-3a.07.07,0,0,0-.07.07v2Z" style="fill:#67849c"/><path d="M27.31,48.25v-2a.08.08,0,0,0-.08-.07h-3a.07.07,0,0,0-.07.07v2Z" style="fill:#64829a"/><path d="M27.3,48.24v-2a.07.07,0,0,0-.07-.07h-3a.07.07,0,0,0-.07.07v2Z" style="fill:#617f98"/><path d="M27.3,48.24v-2a.08.08,0,0,0-.07-.08h-3a.08.08,0,0,0-.07.08v2Z" style="fill:#5e7d96"/><path d="M27.3,48.24v-2a.08.08,0,0,0-.07-.08h-3a.08.08,0,0,0-.07.08v2Z" style="fill:#5b7b94"/><path d="M27.3,48.24v-2a.08.08,0,0,0-.07-.08h-3a.08.08,0,0,0-.07.08v2Z" style="fill:#587892"/><path d="M27.3,48.24v-2a.08.08,0,0,0-.07-.08h-3a.08.08,0,0,0-.07.08v2Z" style="fill:#557691"/><path d="M27.3,48.24v-2a.07.07,0,0,0-.07-.08h-3a.08.08,0,0,0-.08.08v2Z" style="fill:#52738f"/><path d="M27.3,48.24v-2a.07.07,0,0,0-.07-.07h-3a.08.08,0,0,0-.08.07v2Z" style="fill:#4f718d"/><path d="M27.3,48.24v-2a.07.07,0,0,0-.07-.07h-3a.08.08,0,0,0-.08.07v2Z" style="fill:#4c6f8b"/><path d="M27.3,48.24v-2a.07.07,0,0,0-.08-.07h-3a.08.08,0,0,0-.08.07v2Z" style="fill:#4a6c89"/><path d="M27.3,48.24v-2a.08.08,0,0,0-.08-.07h-3a.07.07,0,0,0-.08.07v2Z" style="fill:#476a87"/><path d="M27.3,48.24v-2a.08.08,0,0,0-.08-.07h-3a.07.07,0,0,0-.07.07v2Z" style="fill:#446785"/><path d="M27.3,48.24v-2a.08.08,0,0,0-.08-.07h-3a.07.07,0,0,0-.07.07v2Z" style="fill:#416583"/><path d="M27.3,48.24v-2a.08.08,0,0,0-.08-.07h-3a.07.07,0,0,0-.07.07v2Z" style="fill:#3e6381"/><path d="M27.3,48.23v-2a.08.08,0,0,0-.08-.07h-3a.07.07,0,0,0-.07.07v2Z" style="fill:#3b607f"/><path d="M27.29,48.23v-2a.08.08,0,0,0-.07-.08h-3a.08.08,0,0,0-.07.08v2Z" style="fill:#385e7d"/><path d="M27.29,48.23v-2a.08.08,0,0,0-.07-.08h-3a.08.08,0,0,0-.07.08v2Z" style="fill:#355b7b"/><path d="M27.29,48.23v-2a.08.08,0,0,0-.07-.08h-3a.08.08,0,0,0-.07.08v2Z" style="fill:#325979"/><path d="M27.29,48.23v-2a.08.08,0,0,0-.07-.08h-3a.08.08,0,0,0-.07.08v2Z" style="fill:#2f5677"/><path d="M27.29,48.23v-2a.07.07,0,0,0-.07-.08h-3a.07.07,0,0,0-.07.08v2Z" style="fill:#2c5475"/><path d="M27.29,48.23v-2a.07.07,0,0,0-.07-.08h-3a.08.08,0,0,0-.08.08v2Z" style="fill:#295273"/><path d="M27.29,48.23v-2a.07.07,0,0,0-.07-.07h-3a.08.08,0,0,0-.08.07v2Z" style="fill:#264f72"/><path d="M27.29,48.23v-2a.07.07,0,0,0-.08-.07h-3a.08.08,0,0,0-.08.07v2Z" style="fill:#234d70"/><path d="M27.29,48.23v-2a.08.08,0,0,0-.08-.07h-3a.07.07,0,0,0-.08.07v2Z" style="fill:#204a6e"/><path d="M27.29,48.23v-2a.08.08,0,0,0-.08-.07h-3a.07.07,0,0,0-.07.07v2Z" style="fill:#1d486c"/><path d="M27.29,48.23v-2a.08.08,0,0,0-.08-.07h-3a.07.07,0,0,0-.07.07v2Z" style="fill:#1a466a"/><path d="M27.29,48.23v-2a.08.08,0,0,0-.08-.07h-3a.07.07,0,0,0-.07.07v2Z" style="fill:#174368"/><path d="M27.29,48.22v-2a.08.08,0,0,0-.08-.07h-3a.07.07,0,0,0-.07.07v2Z" style="fill:#144166"/><path d="M27.28,48.22v-2a.08.08,0,0,0-.07-.08h-3a.08.08,0,0,0-.07.08v2Z" style="fill:#113e64"/><path d="M27.28,48.22v-2a.08.08,0,0,0-.07-.08h-3a.08.08,0,0,0-.07.08v2Z" style="fill:#0e3c62"/></g><path d="M24.17,48.26v2a.07.07,0,0,0,.07.07h3a.07.07,0,0,0,.07-.07v-2Z" style="fill:#0e3c62"/><g style="clip-path:url(#c)"><path d="M26.8,50c-.11-.34-.23-.67-.35-1,0-.05,0,0-.05,0H25.06s0,0-.06,0c-.11.34-.23.67-.35,1,0,0,0,0,0,0h-.19c-.05,0,0,0,0,0,.4-1.14.8-2.28,1.21-3.42,0,0,0,0,0,0h.16s0,0,0,0c.39,1.15.8,2.29,1.2,3.44,0,0,0,0,0,0h-.2s0,0-.05,0Zm-1-2.89a.57.57,0,0,1,0-.14l0-.11s0,0,0,0,0,.18-.07.25l-.54,1.56c0,.07,0,.06.05.06h1.16c.05,0,0,0,0,0-.18-.52-.35-1-.53-1.57Z" style="fill:#d7d6eb"/><path d="M26.79,50c-.12-.34-.23-.68-.35-1,0,0,0,0-.05,0H25.05c-.05,0,0,0-.06,0-.12.33-.23.67-.35,1,0,0,0,0,0,0h-.18c-.05,0,0,0,0,0l1.22-3.42s0,0,0,0h.17s0,0,0,0c.4,1.15.81,2.29,1.21,3.44,0,0,0,0,0,0h-.2s0,0,0,0Zm-1-2.89,0-.14a.23.23,0,0,1,0-.11s0,0,0,0a2.5,2.5,0,0,1-.08.25c-.17.52-.35,1-.53,1.56,0,.07,0,.05,0,.05h1.16c.05,0,0,0,0,0-.18-.52-.35-1-.54-1.57Z" style="fill:#fdfdfe"/><path d="M26.8,50c-.12-.35-.24-.68-.35-1,0,0,0,0-.05,0H25.05c-.05,0,0,0-.05,0-.12.34-.24.67-.35,1,0,0,0,0,0,0h-.18c-.05,0-.05,0,0,0,.4-1.13.81-2.27,1.22-3.41,0,0,0,0,0,0h.16s0,0,0,0c.4,1.14.8,2.28,1.21,3.43,0,0,0,0,0,0h-.2s0,0,0,0Zm-1-2.89a1,1,0,0,1,0-.14l0-.11s0,0,0,0a1.67,1.67,0,0,1-.08.24l-.53,1.57c0,.06,0,0,0,0h1.16c.05,0,.05,0,0,0l-.54-1.56Z" style="fill:url(#d)"/></g><g style="clip-path:url(#e)"><path d="M26.8,50c-.11-.34-.23-.67-.35-1,0-.05,0,0-.05,0H25.06s0,0-.06,0c-.11.34-.23.67-.35,1,0,0,0,0,0,0h-.19c-.05,0,0,0,0,0,.4-1.14.8-2.28,1.21-3.42,0,0,0,0,0,0h.16s0,0,0,0c.39,1.15.8,2.29,1.2,3.44,0,0,0,0,0,0h-.2s0,0-.05,0Zm-1-2.89a.57.57,0,0,1,0-.14l0-.11s0,0,0,0,0,.18-.07.25l-.54,1.56c0,.07,0,.06.05.06h1.16c.05,0,0,0,0,0-.18-.52-.35-1-.53-1.57Z" style="fill:#d7d6eb"/><path d="M26.79,50c-.12-.34-.23-.68-.35-1,0,0,0,0-.05,0H25.05c-.05,0,0,0-.06,0-.12.33-.23.67-.35,1,0,0,0,0,0,0h-.18c-.05,0,0,0,0,0l1.22-3.42s0,0,0,0h.17s0,0,0,0c.4,1.15.81,2.29,1.21,3.44,0,0,0,0,0,0h-.2s0,0,0,0Zm-1-2.89,0-.14a.23.23,0,0,1,0-.11s0,0,0,0a2.5,2.5,0,0,1-.08.25c-.17.52-.35,1-.53,1.56,0,.07,0,.05,0,.05h1.16c.05,0,0,0,0,0-.18-.52-.35-1-.54-1.57Z" style="fill:#fdfdfe"/><path d="M26.8,50c-.12-.35-.24-.68-.35-1,0,0,0,0-.05,0H25.05c-.05,0,0,0-.05,0-.12.34-.24.67-.35,1,0,0,0,0,0,0h-.18c-.05,0-.05,0,0,0,.4-1.13.81-2.27,1.22-3.41,0,0,0,0,0,0h.16s0,0,0,0c.4,1.14.8,2.28,1.21,3.43,0,0,0,0,0,0h-.2s0,0,0,0Zm-1-2.89a1,1,0,0,1,0-.14l0-.11s0,0,0,0a1.67,1.67,0,0,1-.08.24l-.53,1.57c0,.06,0,0,0,0h1.16c.05,0,.05,0,0,0l-.54-1.56Z" style="fill:url(#d)"/></g></g><g style="clip-path:url(#g)"><rect x="28.18" y="45.79" width="4.91" height="4.91" style="fill:#e9f5ff"/><g style="mix-blend-mode:multiply"><path d="M29.14,48.32v2a.07.07,0,0,0,.07.07h3a.07.07,0,0,0,.07-.07v-2Z" style="fill:#fff"/><path d="M29.14,48.32v2a.07.07,0,0,0,.07.07h3a.07.07,0,0,0,.07-.07v-2Z" style="fill:#fcfdfd"/><path d="M29.13,48.32v2a.08.08,0,0,0,.08.08h3a.07.07,0,0,0,.07-.08v-2Z" style="fill:#f9fafb"/><path d="M29.13,48.32v2a.09.09,0,0,0,.08.08h3a.08.08,0,0,0,.07-.08v-2Z" style="fill:#f6f8f9"/><path d="M29.13,48.32v2a.09.09,0,0,0,.08.08h3a.08.08,0,0,0,.07-.08v-2Z" style="fill:#f3f5f7"/><path d="M29.13,48.32v2a.09.09,0,0,0,.08.08h3a.08.08,0,0,0,.08-.08v-2Z" style="fill:#f0f3f5"/><path d="M29.13,48.32v2a.08.08,0,0,0,.08.07h3a.08.08,0,0,0,.08-.07v-2Z" style="fill:#edf1f3"/><path d="M29.13,48.31v2a.07.07,0,0,0,.08.07h3a.08.08,0,0,0,.08-.07v-2Z" style="fill:#eaeef1"/><path d="M29.13,48.31v2a.07.07,0,0,0,.07.07h3a.08.08,0,0,0,.08-.07v-2Z" style="fill:#e7ecef"/><path d="M29.13,48.31v2a.07.07,0,0,0,.07.07h3a.08.08,0,0,0,.08-.07v-2Z" style="fill:#e4e9ee"/><path d="M29.13,48.31v2a.07.07,0,0,0,.07.07h3a.07.07,0,0,0,.07-.07v-2Z" style="fill:#e1e7ec"/><path d="M29.13,48.31v2a.07.07,0,0,0,.07.07h3a.07.07,0,0,0,.07-.07v-2Z" style="fill:#dee5ea"/><path d="M29.13,48.31v2a.07.07,0,0,0,.07.08h3a.07.07,0,0,0,.07-.08v-2Z" style="fill:#dbe2e8"/><path d="M29.13,48.31v2a.08.08,0,0,0,.07.08h3a.08.08,0,0,0,.07-.08v-2Z" style="fill:#d8e0e6"/><path d="M29.13,48.31v2a.08.08,0,0,0,.07.08h3a.08.08,0,0,0,.07-.08v-2Z" style="fill:#d5dde4"/><path d="M29.13,48.31v2a.08.08,0,0,0,.07.08h3a.08.08,0,0,0,.07-.08v-2Z" style="fill:#d2dbe2"/><path d="M29.12,48.31v2a.08.08,0,0,0,.08.07h3a.07.07,0,0,0,.07-.07v-2Z" style="fill:#cfd8e0"/><path d="M29.12,48.3v2a.08.08,0,0,0,.08.07h3a.07.07,0,0,0,.07-.07v-2Z" style="fill:#ccd6de"/><path d="M29.12,48.3v2a.08.08,0,0,0,.08.07h3a.07.07,0,0,0,.08-.07v-2Z" style="fill:#c9d4dc"/><path d="M29.12,48.3v2a.08.08,0,0,0,.08.07h3a.08.08,0,0,0,.08-.07v-2Z" style="fill:#c6d1da"/><path d="M29.12,48.3v2a.08.08,0,0,0,.08.07h3a.08.08,0,0,0,.08-.07v-2Z" style="fill:#c3cfd8"/><path d="M29.12,48.3v2a.07.07,0,0,0,.07.07h3a.08.08,0,0,0,.08-.07v-2Z" style="fill:#c1ccd6"/><path d="M29.12,48.3v2a.07.07,0,0,0,.07.07h3a.08.08,0,0,0,.08-.07v-2Z" style="fill:#becad4"/><path d="M29.12,48.3v2a.08.08,0,0,0,.07.08h3a.09.09,0,0,0,.08-.08v-2Z" style="fill:#bbc8d2"/><path d="M29.12,48.3v2a.08.08,0,0,0,.07.08h3a.08.08,0,0,0,.07-.08v-2Z" style="fill:#b8c5d0"/><path d="M29.12,48.3v2a.08.08,0,0,0,.07.08h3a.08.08,0,0,0,.07-.08v-2Z" style="fill:#b5c3cf"/><path d="M29.12,48.3v2a.08.08,0,0,0,.07.08h3a.08.08,0,0,0,.07-.08v-2Z" style="fill:#b2c0cd"/><path d="M29.12,48.3v2a.07.07,0,0,0,.07.07h3a.07.07,0,0,0,.07-.07v-2Z" style="fill:#afbecb"/><path d="M29.12,48.29v2a.07.07,0,0,0,.07.07h3a.07.07,0,0,0,.07-.07v-2Z" style="fill:#acbcc9"/><path d="M29.12,48.29v2a.07.07,0,0,0,.07.07h3a.07.07,0,0,0,.07-.07v-2Z" style="fill:#a9b9c7"/><path d="M29.11,48.29v2a.08.08,0,0,0,.08.07h3a.07.07,0,0,0,.07-.07v-2Z" style="fill:#a6b7c5"/><path d="M29.11,48.29v2a.08.08,0,0,0,.08.07h3a.07.07,0,0,0,.07-.07v-2Z" style="fill:#a3b4c3"/><path d="M29.11,48.29v2a.08.08,0,0,0,.08.07h3a.07.07,0,0,0,.08-.07v-2Z" style="fill:#a0b2c1"/><path d="M29.11,48.29v2a.08.08,0,0,0,.08.08h3a.08.08,0,0,0,.08-.08v-2Z" style="fill:#9db0bf"/><path d="M29.11,48.29v2a.08.08,0,0,0,.07.08h3a.09.09,0,0,0,.08-.08v-2Z" style="fill:#9aadbd"/><path d="M29.11,48.29v2a.08.08,0,0,0,.07.08h3a.09.09,0,0,0,.08-.08v-2Z" style="fill:#97abbb"/><path d="M29.11,48.29v2a.08.08,0,0,0,.07.08h3a.09.09,0,0,0,.08-.08v-2Z" style="fill:#94a8b9"/><path d="M29.11,48.29v2a.07.07,0,0,0,.07.07h3a.07.07,0,0,0,.07-.07v-2Z" style="fill:#91a6b7"/><path d="M29.11,48.28v2a.07.07,0,0,0,.07.07h3a.07.07,0,0,0,.07-.07v-2Z" style="fill:#8ea4b5"/><path d="M29.11,48.28v2a.07.07,0,0,0,.07.07h3a.07.07,0,0,0,.07-.07v-2Z" style="fill:#8ba1b3"/><path d="M29.11,48.28v2a.07.07,0,0,0,.07.07h3a.07.07,0,0,0,.07-.07v-2Z" style="fill:#889fb1"/><path d="M29.11,48.28v2a.07.07,0,0,0,.07.07h3a.07.07,0,0,0,.07-.07v-2Z" style="fill:#859cb0"/><path d="M29.11,48.28v2a.07.07,0,0,0,.07.07h3a.07.07,0,0,0,.07-.07v-2Z" style="fill:#829aae"/><path d="M29.1,48.28v2a.08.08,0,0,0,.08.08h3a.07.07,0,0,0,.07-.08v-2Z" style="fill:#7f97ac"/><path d="M29.1,48.28v2a.09.09,0,0,0,.08.08h3a.08.08,0,0,0,.07-.08v-2Z" style="fill:#7c95aa"/><path d="M29.1,48.28v2a.09.09,0,0,0,.08.08h3a.08.08,0,0,0,.08-.08v-2Z" style="fill:#7993a8"/><path d="M29.1,48.28v2a.09.09,0,0,0,.08.08h3a.09.09,0,0,0,.08-.08v-2Z" style="fill:#7690a6"/><path d="M29.1,48.28v2a.08.08,0,0,0,.08.07h3a.08.08,0,0,0,.08-.07v-2Z" style="fill:#738ea4"/><path d="M29.1,48.27v2a.07.07,0,0,0,.07.07h3a.08.08,0,0,0,.08-.07v-2Z" style="fill:#708ba2"/><path d="M29.1,48.27v2a.07.07,0,0,0,.07.07h3a.08.08,0,0,0,.08-.07v-2Z" style="fill:#6d89a0"/><path d="M29.1,48.27v2a.07.07,0,0,0,.07.07h3a.08.08,0,0,0,.08-.07v-2Z" style="fill:#6a879e"/><path d="M29.1,48.27v2a.07.07,0,0,0,.07.07h3a.07.07,0,0,0,.07-.07v-2Z" style="fill:#67849c"/><path d="M29.1,48.27v2a.07.07,0,0,0,.07.07h3a.07.07,0,0,0,.07-.07v-2Z" style="fill:#64829a"/><path d="M29.1,48.27v2a.07.07,0,0,0,.07.08h3a.07.07,0,0,0,.07-.08v-2Z" style="fill:#617f98"/><path d="M29.1,48.27v2a.08.08,0,0,0,.07.08h3a.08.08,0,0,0,.07-.08v-2Z" style="fill:#5e7d96"/><path d="M29.1,48.27v2a.08.08,0,0,0,.07.08h3a.08.08,0,0,0,.07-.08v-2Z" style="fill:#5b7b94"/><path d="M29.1,48.27v2a.08.08,0,0,0,.07.08h3a.08.08,0,0,0,.07-.08v-2Z" style="fill:#587892"/><path d="M29.09,48.27v2a.08.08,0,0,0,.08.07h3a.07.07,0,0,0,.07-.07v-2Z" style="fill:#557691"/><path d="M29.09,48.26v2a.08.08,0,0,0,.08.07h3a.07.07,0,0,0,.07-.07v-2Z" style="fill:#52738f"/><path d="M29.09,48.26v2a.08.08,0,0,0,.08.07h3a.07.07,0,0,0,.08-.07v-2Z" style="fill:#4f718d"/><path d="M29.09,48.26v2a.08.08,0,0,0,.08.07h3a.08.08,0,0,0,.08-.07v-2Z" style="fill:#4c6f8b"/><path d="M29.09,48.26v2a.07.07,0,0,0,.07.07h3a.08.08,0,0,0,.08-.07v-2Z" style="fill:#4a6c89"/><path d="M29.09,48.26v2a.07.07,0,0,0,.07.07h3a.08.08,0,0,0,.08-.07v-2Z" style="fill:#476a87"/><path d="M29.09,48.26v2a.07.07,0,0,0,.07.08h3a.08.08,0,0,0,.08-.08v-2Z" style="fill:#446785"/><path d="M29.09,48.26v2a.08.08,0,0,0,.07.08h3a.08.08,0,0,0,.07-.08v-2Z" style="fill:#416583"/><path d="M29.09,48.26v2a.08.08,0,0,0,.07.08h3a.08.08,0,0,0,.07-.08v-2Z" style="fill:#3e6381"/><path d="M29.09,48.26v2a.08.08,0,0,0,.07.08h3a.08.08,0,0,0,.07-.08v-2Z" style="fill:#3b607f"/><path d="M29.09,48.26v2a.08.08,0,0,0,.07.08h3a.08.08,0,0,0,.07-.08v-2Z" style="fill:#385e7d"/><path d="M29.09,48.25v2a.07.07,0,0,0,.07.07h3a.07.07,0,0,0,.07-.07v-2Z" style="fill:#355b7b"/><path d="M29.09,48.25v2a.07.07,0,0,0,.07.07h3a.07.07,0,0,0,.07-.07v-2Z" style="fill:#325979"/><path d="M29.08,48.25v2a.08.08,0,0,0,.08.07h3a.07.07,0,0,0,.07-.07v-2Z" style="fill:#2f5677"/><path d="M29.08,48.25v2a.08.08,0,0,0,.08.07h3a.07.07,0,0,0,.07-.07v-2Z" style="fill:#2c5475"/><path d="M29.08,48.25v2a.08.08,0,0,0,.08.07h3a.07.07,0,0,0,.08-.07v-2Z" style="fill:#295273"/><path d="M29.08,48.25v2a.08.08,0,0,0,.08.08h3a.08.08,0,0,0,.08-.08v-2Z" style="fill:#264f72"/><path d="M29.08,48.25v2a.09.09,0,0,0,.07.08h3a.09.09,0,0,0,.08-.08v-2Z" style="fill:#234d70"/><path d="M29.08,48.25v2a.08.08,0,0,0,.07.08h3a.09.09,0,0,0,.08-.08v-2Z" style="fill:#204a6e"/><path d="M29.08,48.25v2a.08.08,0,0,0,.07.08h3a.09.09,0,0,0,.08-.08v-2Z" style="fill:#1d486c"/><path d="M29.08,48.25v2a.08.08,0,0,0,.07.08h3a.08.08,0,0,0,.07-.08v-2Z" style="fill:#1a466a"/><path d="M29.08,48.25v2a.07.07,0,0,0,.07.07h3a.07.07,0,0,0,.07-.07v-2Z" style="fill:#174368"/><path d="M29.08,48.24v2a.07.07,0,0,0,.07.07h3a.07.07,0,0,0,.07-.07v-2Z" style="fill:#144166"/><path d="M29.08,48.24v2a.07.07,0,0,0,.07.07h3a.07.07,0,0,0,.07-.07v-2Z" style="fill:#113e64"/><path d="M29.08,48.24v2a.07.07,0,0,0,.07.07h3a.07.07,0,0,0,.07-.07v-2Z" style="fill:#0e3c62"/></g><g style="mix-blend-mode:multiply"><path d="M32.25,48.28v-2a.07.07,0,0,0-.07-.07h-3a.07.07,0,0,0-.07.07v2Z" style="fill:#fff"/><path d="M32.25,48.28v-2a.07.07,0,0,0-.07-.07h-3a.07.07,0,0,0-.07.07v2Z" style="fill:#fcfdfd"/><path d="M32.25,48.28v-2a.08.08,0,0,0-.07-.08h-3a.09.09,0,0,0-.08.08v2Z" style="fill:#f9fafb"/><path d="M32.25,48.28v-2a.08.08,0,0,0-.07-.08h-3a.09.09,0,0,0-.08.08v2Z" style="fill:#f6f8f9"/><path d="M32.25,48.28v-2a.08.08,0,0,0-.07-.08h-3a.09.09,0,0,0-.08.08v2Z" style="fill:#f3f5f7"/><path d="M32.25,48.28v-2a.07.07,0,0,0-.08-.08h-3a.08.08,0,0,0-.08.08v2Z" style="fill:#f0f3f5"/><path d="M32.25,48.28v-2a.08.08,0,0,0-.08-.08h-3a.08.08,0,0,0-.08.08v2Z" style="fill:#edf1f3"/><path d="M32.25,48.28v-2a.08.08,0,0,0-.08-.07h-3a.07.07,0,0,0-.07.07v2Z" style="fill:#eaeef1"/><path d="M32.25,48.28v-2a.08.08,0,0,0-.08-.07h-3a.07.07,0,0,0-.07.07v2Z" style="fill:#e7ecef"/><path d="M32.25,48.28v-2a.08.08,0,0,0-.08-.07h-3a.07.07,0,0,0-.07.07v2Z" style="fill:#e4e9ee"/><path d="M32.24,48.28v-2a.07.07,0,0,0-.07-.07h-3a.07.07,0,0,0-.07.07v2Z" style="fill:#e1e7ec"/><path d="M32.24,48.28v-2a.07.07,0,0,0-.07-.07h-3a.07.07,0,0,0-.07.07v2Z" style="fill:#dee5ea"/><path d="M32.24,48.28v-2a.07.07,0,0,0-.07-.07h-3a.07.07,0,0,0-.07.07v2Z" style="fill:#dbe2e8"/><path d="M32.24,48.28v-2a.07.07,0,0,0-.07-.07h-3a.07.07,0,0,0-.07.07v2Z" style="fill:#d8e0e6"/><path d="M32.24,48.27v-2a.07.07,0,0,0-.07-.07h-3a.07.07,0,0,0-.07.07v2Z" style="fill:#d5dde4"/><path d="M32.24,48.27v-2a.08.08,0,0,0-.07-.08h-3a.08.08,0,0,0-.07.08v2Z" style="fill:#d2dbe2"/><path d="M32.24,48.27v-2a.08.08,0,0,0-.07-.08h-3a.09.09,0,0,0-.08.08v2Z" style="fill:#cfd8e0"/><path d="M32.24,48.27v-2a.08.08,0,0,0-.07-.08h-3a.09.09,0,0,0-.08.08v2Z" style="fill:#ccd6de"/><path d="M32.24,48.27v-2a.07.07,0,0,0-.08-.08h-3a.08.08,0,0,0-.08.08v2Z" style="fill:#c9d4dc"/><path d="M32.24,48.27v-2a.08.08,0,0,0-.08-.08h-3a.08.08,0,0,0-.08.08v2Z" style="fill:#c6d1da"/><path d="M32.24,48.27v-2a.08.08,0,0,0-.08-.07h-3a.07.07,0,0,0-.07.07v2Z" style="fill:#c3cfd8"/><path d="M32.24,48.27v-2a.08.08,0,0,0-.08-.07h-3a.07.07,0,0,0-.07.07v2Z" style="fill:#c1ccd6"/><path d="M32.24,48.27v-2a.08.08,0,0,0-.08-.07h-3a.07.07,0,0,0-.07.07v2Z" style="fill:#becad4"/><path d="M32.23,48.27v-2a.07.07,0,0,0-.07-.07h-3a.07.07,0,0,0-.07.07v2Z" style="fill:#bbc8d2"/><path d="M32.23,48.27v-2a.07.07,0,0,0-.07-.07h-3a.07.07,0,0,0-.07.07v2Z" style="fill:#b8c5d0"/><path d="M32.23,48.27v-2a.07.07,0,0,0-.07-.07h-3a.07.07,0,0,0-.07.07v2Z" style="fill:#b5c3cf"/><path d="M32.23,48.27v-2a.07.07,0,0,0-.07-.07h-3a.07.07,0,0,0-.07.07v2Z" style="fill:#b2c0cd"/><path d="M32.23,48.26v-2a.07.07,0,0,0-.07-.07h-3a.07.07,0,0,0-.07.07v2Z" style="fill:#afbecb"/><path d="M32.23,48.26v-2a.08.08,0,0,0-.07-.08h-3a.08.08,0,0,0-.07.08v2Z" style="fill:#acbcc9"/><path d="M32.23,48.26v-2a.08.08,0,0,0-.07-.08h-3a.09.09,0,0,0-.08.08v2Z" style="fill:#a9b9c7"/><path d="M32.23,48.26v-2a.08.08,0,0,0-.07-.08h-3a.09.09,0,0,0-.08.08v2Z" style="fill:#a6b7c5"/><path d="M32.23,48.26v-2a.08.08,0,0,0-.08-.08h-3a.09.09,0,0,0-.08.08v2Z" style="fill:#a3b4c3"/><path d="M32.23,48.26v-2a.08.08,0,0,0-.08-.08h-3a.08.08,0,0,0-.08.08v2Z" style="fill:#a0b2c1"/><path d="M32.23,48.26v-2a.08.08,0,0,0-.08-.07h-3a.07.07,0,0,0-.08.07v2Z" style="fill:#9db0bf"/><path d="M32.23,48.26v-2a.08.08,0,0,0-.08-.07h-3a.07.07,0,0,0-.07.07v2Z" style="fill:#9aadbd"/><path d="M32.23,48.26v-2a.08.08,0,0,0-.08-.07h-3a.07.07,0,0,0-.07.07v2Z" style="fill:#97abbb"/><path d="M32.22,48.26v-2a.07.07,0,0,0-.07-.07h-3a.07.07,0,0,0-.07.07v2Z" style="fill:#94a8b9"/><path d="M32.22,48.26v-2a.07.07,0,0,0-.07-.07h-3a.07.07,0,0,0-.07.07v2Z" style="fill:#91a6b7"/><path d="M32.22,48.26v-2a.07.07,0,0,0-.07-.07h-3a.07.07,0,0,0-.07.07v2Z" style="fill:#8ea4b5"/><path d="M32.22,48.26v-2a.07.07,0,0,0-.07-.07h-3a.07.07,0,0,0-.07.07v2Z" style="fill:#8ba1b3"/><path d="M32.22,48.25v-2a.07.07,0,0,0-.07-.07h-3a.07.07,0,0,0-.07.07v2Z" style="fill:#889fb1"/><path d="M32.22,48.25v-2a.08.08,0,0,0-.07-.08h-3a.08.08,0,0,0-.07.08v2Z" style="fill:#859cb0"/><path d="M32.22,48.25v-2a.08.08,0,0,0-.07-.08h-3a.09.09,0,0,0-.08.08v2Z" style="fill:#829aae"/><path d="M32.22,48.25v-2a.08.08,0,0,0-.07-.08h-3a.09.09,0,0,0-.08.08v2Z" style="fill:#7f97ac"/><path d="M32.22,48.25v-2a.08.08,0,0,0-.08-.08h-3a.09.09,0,0,0-.08.08v2Z" style="fill:#7c95aa"/><path d="M32.22,48.25v-2a.08.08,0,0,0-.08-.08h-3a.08.08,0,0,0-.08.08v2Z" style="fill:#7993a8"/><path d="M32.22,48.25v-2a.08.08,0,0,0-.08-.07h-3a.07.07,0,0,0-.08.07v2Z" style="fill:#7690a6"/><path d="M32.22,48.25v-2a.08.08,0,0,0-.08-.07h-3a.07.07,0,0,0-.07.07v2Z" style="fill:#738ea4"/><path d="M32.22,48.25v-2a.08.08,0,0,0-.08-.07h-3a.07.07,0,0,0-.07.07v2Z" style="fill:#708ba2"/><path d="M32.21,48.25v-2a.07.07,0,0,0-.07-.07h-3a.07.07,0,0,0-.07.07v2Z" style="fill:#6d89a0"/><path d="M32.21,48.25v-2a.07.07,0,0,0-.07-.07h-3a.07.07,0,0,0-.07.07v2Z" style="fill:#6a879e"/><path d="M32.21,48.25v-2a.07.07,0,0,0-.07-.07h-3a.07.07,0,0,0-.07.07v2Z" style="fill:#67849c"/><path d="M32.21,48.25v-2a.07.07,0,0,0-.07-.07h-3a.07.07,0,0,0-.07.07v2Z" style="fill:#64829a"/><path d="M32.21,48.24v-2a.07.07,0,0,0-.07-.07h-3a.07.07,0,0,0-.07.07v2Z" style="fill:#617f98"/><path d="M32.21,48.24v-2a.08.08,0,0,0-.07-.08h-3a.08.08,0,0,0-.07.08v2Z" style="fill:#5e7d96"/><path d="M32.21,48.24v-2a.08.08,0,0,0-.07-.08h-3a.09.09,0,0,0-.08.08v2Z" style="fill:#5b7b94"/><path d="M32.21,48.24v-2a.08.08,0,0,0-.07-.08h-3a.09.09,0,0,0-.08.08v2Z" style="fill:#587892"/><path d="M32.21,48.24v-2a.08.08,0,0,0-.08-.08h-3a.09.09,0,0,0-.08.08v2Z" style="fill:#557691"/><path d="M32.21,48.24v-2a.08.08,0,0,0-.08-.08h-3a.08.08,0,0,0-.08.08v2Z" style="fill:#52738f"/><path d="M32.21,48.24v-2a.08.08,0,0,0-.08-.07h-3a.08.08,0,0,0-.08.07v2Z" style="fill:#4f718d"/><path d="M32.21,48.24v-2a.08.08,0,0,0-.08-.07h-3a.07.07,0,0,0-.07.07v2Z" style="fill:#4c6f8b"/><path d="M32.21,48.24v-2a.08.08,0,0,0-.08-.07h-3a.07.07,0,0,0-.07.07v2Z" style="fill:#4a6c89"/><path d="M32.21,48.24v-2a.08.08,0,0,0-.08-.07h-3a.07.07,0,0,0-.07.07v2Z" style="fill:#476a87"/><path d="M32.2,48.24v-2a.07.07,0,0,0-.07-.07h-3a.07.07,0,0,0-.07.07v2Z" style="fill:#446785"/><path d="M32.2,48.24v-2a.07.07,0,0,0-.07-.07h-3a.07.07,0,0,0-.07.07v2Z" style="fill:#416583"/><path d="M32.2,48.24v-2a.07.07,0,0,0-.07-.07h-3a.07.07,0,0,0-.07.07v2Z" style="fill:#3e6381"/><path d="M32.2,48.23v-2a.07.07,0,0,0-.07-.07h-3a.07.07,0,0,0-.07.07v2Z" style="fill:#3b607f"/><path d="M32.2,48.23v-2a.08.08,0,0,0-.07-.08h-3a.08.08,0,0,0-.07.08v2Z" style="fill:#385e7d"/><path d="M32.2,48.23v-2a.08.08,0,0,0-.07-.08h-3a.08.08,0,0,0-.07.08v2Z" style="fill:#355b7b"/><path d="M32.2,48.23v-2a.08.08,0,0,0-.07-.08h-3a.09.09,0,0,0-.08.08v2Z" style="fill:#325979"/><path d="M32.2,48.23v-2a.08.08,0,0,0-.07-.08h-3a.09.09,0,0,0-.08.08v2Z" style="fill:#2f5677"/><path d="M32.2,48.23v-2a.08.08,0,0,0-.08-.08h-3a.08.08,0,0,0-.08.08v2Z" style="fill:#2c5475"/><path d="M32.2,48.23v-2a.08.08,0,0,0-.08-.08h-3a.08.08,0,0,0-.08.08v2Z" style="fill:#295273"/><path d="M32.2,48.23v-2a.08.08,0,0,0-.08-.07h-3a.07.07,0,0,0-.07.07v2Z" style="fill:#264f72"/><path d="M32.2,48.23v-2a.08.08,0,0,0-.08-.07h-3a.07.07,0,0,0-.07.07v2Z" style="fill:#234d70"/><path d="M32.2,48.23v-2a.08.08,0,0,0-.08-.07h-3a.07.07,0,0,0-.07.07v2Z" style="fill:#204a6e"/><path d="M32.19,48.23v-2a.07.07,0,0,0-.07-.07h-3a.07.07,0,0,0-.07.07v2Z" style="fill:#1d486c"/><path d="M32.19,48.23v-2a.07.07,0,0,0-.07-.07h-3a.07.07,0,0,0-.07.07v2Z" style="fill:#1a466a"/><path d="M32.19,48.23v-2a.07.07,0,0,0-.07-.07h-3a.07.07,0,0,0-.07.07v2Z" style="fill:#174368"/><path d="M32.19,48.22v-2a.07.07,0,0,0-.07-.07h-3a.07.07,0,0,0-.07.07v2Z" style="fill:#144166"/><path d="M32.19,48.22v-2a.08.08,0,0,0-.07-.08h-3a.08.08,0,0,0-.07.08v2Z" style="fill:#113e64"/><path d="M32.19,48.22v-2a.08.08,0,0,0-.07-.08h-3a.08.08,0,0,0-.07.08v2Z" style="fill:#0e3c62"/></g><path d="M29.08,48.26v2a.07.07,0,0,0,.07.07h3a.07.07,0,0,0,.07-.07v-2Z" style="fill:#0e3c62"/><g style="clip-path:url(#h)"><path d="M29.74,49.89V46.58s0,0,0,0h.81a.84.84,0,0,1,.6.21.9.9,0,0,1,.07,1.08.72.72,0,0,1-.39.29s0,0,0,0a.78.78,0,0,1,.5.25,1,1,0,0,1-.07,1.25c-.35.37-1,.27-1.51.27,0,0,0,0,0,0Zm.22-3.1v1.26s0,0,0,0h.42a.81.81,0,0,0,.55-.18.63.63,0,0,0-.46-1.12H30s0,0,0,0Zm0,1.52v1.38s0,0,0,0c.35,0,.88.05,1.14-.2.5-.48.14-1.24-.69-1.24H30s0,0,0,0Z" style="fill:#d7d6eb"/><path d="M29.72,49.88V46.57s0,0,0,0h.81a.85.85,0,0,1,.6.22.89.89,0,0,1,.07,1.07.78.78,0,0,1-.39.3s0,0,0,0a.78.78,0,0,1,.5.25,1,1,0,0,1-.07,1.25c-.36.37-1,.27-1.51.27,0,0,0,0,0,0Zm.22-3.1V48s0,0,0,0h.42a.81.81,0,0,0,.55-.18.63.63,0,0,0-.47-1.12H30s0,0,0,0Zm0,1.52v1.38s0,0,0,0c.35,0,.87,0,1.14-.2.5-.48.14-1.24-.7-1.24H30s0,0,0,0Z" style="fill:#fdfdfe"/><path d="M29.73,49.89V46.57s0,0,0,0h.81a.82.82,0,0,1,.6.22.87.87,0,0,1,.06,1.07.74.74,0,0,1-.39.3s0,0,0,0a.83.83,0,0,1,.51.25,1,1,0,0,1-.07,1.25c-.36.37-1,.27-1.52.27,0,0,0,0,0,0ZM30,46.78v1.27s0,0,0,0h.42a.79.79,0,0,0,.56-.19.63.63,0,0,0-.47-1.11H30s0,0,0,0Zm0,1.52v1.39s0,0,0,0c.36,0,.88.06,1.14-.19.5-.49.15-1.24-.69-1.24H30s0,0,0,0Z" style="fill:url(#i)"/></g><g style="clip-path:url(#j)"><path d="M29.74,49.89V46.58s0,0,0,0h.81a.84.84,0,0,1,.6.21.9.9,0,0,1,.07,1.08.72.72,0,0,1-.39.29s0,0,0,0a.78.78,0,0,1,.5.25,1,1,0,0,1-.07,1.25c-.35.37-1,.27-1.51.27,0,0,0,0,0,0Zm.22-3.1v1.26s0,0,0,0h.42a.81.81,0,0,0,.55-.18.63.63,0,0,0-.46-1.12H30s0,0,0,0Zm0,1.52v1.38s0,0,0,0c.35,0,.88.05,1.14-.2.5-.48.14-1.24-.69-1.24H30s0,0,0,0Z" style="fill:#d7d6eb"/><path d="M29.72,49.88V46.57s0,0,0,0h.81a.85.85,0,0,1,.6.22.89.89,0,0,1,.07,1.07.78.78,0,0,1-.39.3s0,0,0,0a.78.78,0,0,1,.5.25,1,1,0,0,1-.07,1.25c-.36.37-1,.27-1.51.27,0,0,0,0,0,0Zm.22-3.1V48s0,0,0,0h.42a.81.81,0,0,0,.55-.18.63.63,0,0,0-.47-1.12H30s0,0,0,0Zm0,1.52v1.38s0,0,0,0c.35,0,.87,0,1.14-.2.5-.48.14-1.24-.7-1.24H30s0,0,0,0Z" style="fill:#fdfdfe"/><path d="M29.73,49.89V46.57s0,0,0,0h.81a.82.82,0,0,1,.6.22.87.87,0,0,1,.06,1.07.74.74,0,0,1-.39.3s0,0,0,0a.83.83,0,0,1,.51.25,1,1,0,0,1-.07,1.25c-.36.37-1,.27-1.52.27,0,0,0,0,0,0ZM30,46.78v1.27s0,0,0,0h.42a.79.79,0,0,0,.56-.19.63.63,0,0,0-.47-1.11H30s0,0,0,0Zm0,1.52v1.39s0,0,0,0c.36,0,.88.06,1.14-.19.5-.49.15-1.24-.69-1.24H30s0,0,0,0Z" style="fill:url(#i)"/></g></g><g style="clip-path:url(#l)"><rect x="33.09" y="45.79" width="4.91" height="4.91" style="fill:#e9f5ff"/><g style="mix-blend-mode:multiply"><path d="M37.16,48.28v-2a.07.07,0,0,0-.07-.07h-3a.08.08,0,0,0-.08.07v2Z" style="fill:#fff"/><path d="M37.16,48.28v-2a.07.07,0,0,0-.07-.07h-3a.08.08,0,0,0-.08.07v2Z" style="fill:#fcfdfd"/><path d="M37.16,48.28v-2a.08.08,0,0,0-.08-.08h-3a.09.09,0,0,0-.08.08v2Z" style="fill:#f9fafb"/><path d="M37.16,48.28v-2a.09.09,0,0,0-.08-.08h-3a.08.08,0,0,0-.08.08v2Z" style="fill:#f6f8f9"/><path d="M37.16,48.28v-2a.09.09,0,0,0-.08-.08h-3a.08.08,0,0,0-.08.08v2Z" style="fill:#f3f5f7"/><path d="M37.16,48.28v-2a.08.08,0,0,0-.08-.08h-3a.07.07,0,0,0-.07.08v2Z" style="fill:#f0f3f5"/><path d="M37.15,48.28v-2a.07.07,0,0,0-.07-.08h-3a.07.07,0,0,0-.07.08v2Z" style="fill:#edf1f3"/><path d="M37.15,48.28v-2a.07.07,0,0,0-.07-.07h-3a.07.07,0,0,0-.07.07v2Z" style="fill:#eaeef1"/><path d="M37.15,48.28v-2a.07.07,0,0,0-.07-.07h-3a.07.07,0,0,0-.07.07v2Z" style="fill:#e7ecef"/><path d="M37.15,48.28v-2a.07.07,0,0,0-.07-.07h-3a.07.07,0,0,0-.07.07v2Z" style="fill:#e4e9ee"/><path d="M37.15,48.28v-2a.07.07,0,0,0-.07-.07h-3a.07.07,0,0,0-.07.07v2Z" style="fill:#e1e7ec"/><path d="M37.15,48.28v-2a.07.07,0,0,0-.07-.07h-3a.07.07,0,0,0-.07.07v2Z" style="fill:#dee5ea"/><path d="M37.15,48.28v-2a.07.07,0,0,0-.07-.07h-3a.08.08,0,0,0-.08.07v2Z" style="fill:#dbe2e8"/><path d="M37.15,48.28v-2a.07.07,0,0,0-.07-.07h-3a.08.08,0,0,0-.08.07v2Z" style="fill:#d8e0e6"/><path d="M37.15,48.27v-2a.07.07,0,0,0-.07-.07h-3a.08.08,0,0,0-.08.07v2Z" style="fill:#d5dde4"/><path d="M37.15,48.27v-2a.08.08,0,0,0-.07-.08h-3a.09.09,0,0,0-.08.08v2Z" style="fill:#d2dbe2"/><path d="M37.15,48.27v-2a.09.09,0,0,0-.08-.08h-3a.08.08,0,0,0-.08.08v2Z" style="fill:#cfd8e0"/><path d="M37.15,48.27v-2a.09.09,0,0,0-.08-.08h-3a.08.08,0,0,0-.08.08v2Z" style="fill:#ccd6de"/><path d="M37.15,48.27v-2a.08.08,0,0,0-.08-.08h-3a.07.07,0,0,0-.07.08v2Z" style="fill:#c9d4dc"/><path d="M37.15,48.27v-2a.08.08,0,0,0-.08-.08h-3a.07.07,0,0,0-.07.08v2Z" style="fill:#c6d1da"/><path d="M37.14,48.27v-2a.07.07,0,0,0-.07-.07h-3a.07.07,0,0,0-.07.07v2Z" style="fill:#c3cfd8"/><path d="M37.14,48.27v-2a.07.07,0,0,0-.07-.07h-3a.07.07,0,0,0-.07.07v2Z" style="fill:#c1ccd6"/><path d="M37.14,48.27v-2a.07.07,0,0,0-.07-.07h-3a.07.07,0,0,0-.07.07v2Z" style="fill:#becad4"/><path d="M37.14,48.27v-2a.07.07,0,0,0-.07-.07h-3a.07.07,0,0,0-.07.07v2Z" style="fill:#bbc8d2"/><path d="M37.14,48.27v-2a.07.07,0,0,0-.07-.07h-3a.07.07,0,0,0-.07.07v2Z" style="fill:#b8c5d0"/><path d="M37.14,48.27v-2a.07.07,0,0,0-.07-.07h-3a.08.08,0,0,0-.08.07v2Z" style="fill:#b5c3cf"/><path d="M37.14,48.27v-2a.07.07,0,0,0-.07-.07h-3a.08.08,0,0,0-.08.07v2Z" style="fill:#b2c0cd"/><path d="M37.14,48.26v-2a.07.07,0,0,0-.07-.07h-3a.08.08,0,0,0-.08.07v2Z" style="fill:#afbecb"/><path d="M37.14,48.26v-2a.08.08,0,0,0-.07-.08h-3a.09.09,0,0,0-.08.08v2Z" style="fill:#acbcc9"/><path d="M37.14,48.26v-2a.09.09,0,0,0-.08-.08h-3a.09.09,0,0,0-.08.08v2Z" style="fill:#a9b9c7"/><path d="M37.14,48.26v-2a.09.09,0,0,0-.08-.08h-3a.08.08,0,0,0-.08.08v2Z" style="fill:#a6b7c5"/><path d="M37.14,48.26v-2a.09.09,0,0,0-.08-.08h-3a.08.08,0,0,0-.07.08v2Z" style="fill:#a3b4c3"/><path d="M37.14,48.26v-2a.08.08,0,0,0-.08-.08h-3a.07.07,0,0,0-.07.08v2Z" style="fill:#a0b2c1"/><path d="M37.13,48.26v-2a.07.07,0,0,0-.07-.07h-3a.07.07,0,0,0-.07.07v2Z" style="fill:#9db0bf"/><path d="M37.13,48.26v-2a.07.07,0,0,0-.07-.07h-3a.07.07,0,0,0-.07.07v2Z" style="fill:#9aadbd"/><path d="M37.13,48.26v-2a.07.07,0,0,0-.07-.07h-3a.07.07,0,0,0-.07.07v2Z" style="fill:#97abbb"/><path d="M37.13,48.26v-2a.07.07,0,0,0-.07-.07h-3a.07.07,0,0,0-.07.07v2Z" style="fill:#94a8b9"/><path d="M37.13,48.26v-2a.07.07,0,0,0-.07-.07h-3a.07.07,0,0,0-.07.07v2Z" style="fill:#91a6b7"/><path d="M37.13,48.26v-2a.07.07,0,0,0-.07-.07h-3a.07.07,0,0,0-.07.07v2Z" style="fill:#8ea4b5"/><path d="M37.13,48.26v-2a.07.07,0,0,0-.07-.07h-3a.08.08,0,0,0-.08.07v2Z" style="fill:#8ba1b3"/><path d="M37.13,48.25v-2a.07.07,0,0,0-.07-.07h-3a.08.08,0,0,0-.08.07v2Z" style="fill:#889fb1"/><path d="M37.13,48.25v-2a.08.08,0,0,0-.07-.08h-3a.09.09,0,0,0-.08.08v2Z" style="fill:#859cb0"/><path d="M37.13,48.25v-2a.09.09,0,0,0-.08-.08h-3a.09.09,0,0,0-.08.08v2Z" style="fill:#829aae"/><path d="M37.13,48.25v-2a.09.09,0,0,0-.08-.08h-3a.08.08,0,0,0-.08.08v2Z" style="fill:#7f97ac"/><path d="M37.13,48.25v-2a.09.09,0,0,0-.08-.08h-3a.08.08,0,0,0-.07.08v2Z" style="fill:#7c95aa"/><path d="M37.13,48.25v-2a.08.08,0,0,0-.08-.08h-3a.07.07,0,0,0-.07.08v2Z" style="fill:#7993a8"/><path d="M37.12,48.25v-2a.07.07,0,0,0-.07-.07h-3a.07.07,0,0,0-.07.07v2Z" style="fill:#7690a6"/><path d="M37.12,48.25v-2a.07.07,0,0,0-.07-.07h-3a.07.07,0,0,0-.07.07v2Z" style="fill:#738ea4"/><path d="M37.12,48.25v-2a.07.07,0,0,0-.07-.07h-3a.07.07,0,0,0-.07.07v2Z" style="fill:#708ba2"/><path d="M37.12,48.25v-2a.07.07,0,0,0-.07-.07h-3a.07.07,0,0,0-.07.07v2Z" style="fill:#6d89a0"/><path d="M37.12,48.25v-2a.07.07,0,0,0-.07-.07h-3a.07.07,0,0,0-.07.07v2Z" style="fill:#6a879e"/><path d="M37.12,48.25v-2a.07.07,0,0,0-.07-.07h-3a.07.07,0,0,0-.07.07v2Z" style="fill:#67849c"/><path d="M37.12,48.25v-2a.07.07,0,0,0-.07-.07h-3a.08.08,0,0,0-.08.07v2Z" style="fill:#64829a"/><path d="M37.12,48.24v-2a.07.07,0,0,0-.07-.07h-3a.08.08,0,0,0-.08.07v2Z" style="fill:#617f98"/><path d="M37.12,48.24v-2a.08.08,0,0,0-.07-.08h-3a.09.09,0,0,0-.08.08v2Z" style="fill:#5e7d96"/><path d="M37.12,48.24v-2a.08.08,0,0,0-.08-.08h-3a.09.09,0,0,0-.08.08v2Z" style="fill:#5b7b94"/><path d="M37.12,48.24v-2a.09.09,0,0,0-.08-.08h-3a.08.08,0,0,0-.08.08v2Z" style="fill:#587892"/><path d="M37.12,48.24v-2a.09.09,0,0,0-.08-.08h-3a.08.08,0,0,0-.07.08v2Z" style="fill:#557691"/><path d="M37.12,48.24v-2a.08.08,0,0,0-.08-.08h-3a.07.07,0,0,0-.07.08v2Z" style="fill:#52738f"/><path d="M37.11,48.24v-2a.07.07,0,0,0-.07-.07h-3a.07.07,0,0,0-.07.07v2Z" style="fill:#4f718d"/><path d="M37.11,48.24v-2a.07.07,0,0,0-.07-.07h-3a.07.07,0,0,0-.07.07v2Z" style="fill:#4c6f8b"/><path d="M37.11,48.24v-2a.07.07,0,0,0-.07-.07h-3a.07.07,0,0,0-.07.07v2Z" style="fill:#4a6c89"/><path d="M37.11,48.24v-2a.07.07,0,0,0-.07-.07h-3a.07.07,0,0,0-.07.07v2Z" style="fill:#476a87"/><path d="M37.11,48.24v-2a.07.07,0,0,0-.07-.07h-3a.07.07,0,0,0-.07.07v2Z" style="fill:#446785"/><path d="M37.11,48.24v-2a.07.07,0,0,0-.07-.07h-3a.07.07,0,0,0-.07.07v2Z" style="fill:#416583"/><path d="M37.11,48.24v-2a.07.07,0,0,0-.07-.07h-3a.08.08,0,0,0-.08.07v2Z" style="fill:#3e6381"/><path d="M37.11,48.23v-2a.07.07,0,0,0-.07-.07h-3a.08.08,0,0,0-.08.07v2Z" style="fill:#3b607f"/><path d="M37.11,48.23v-2a.08.08,0,0,0-.07-.08h-3a.09.09,0,0,0-.08.08v2Z" style="fill:#385e7d"/><path d="M37.11,48.23v-2a.08.08,0,0,0-.08-.08h-3a.09.09,0,0,0-.08.08v2Z" style="fill:#355b7b"/><path d="M37.11,48.23v-2a.09.09,0,0,0-.08-.08h-3a.08.08,0,0,0-.08.08v2Z" style="fill:#325979"/><path d="M37.11,48.23v-2a.09.09,0,0,0-.08-.08h-3a.08.08,0,0,0-.07.08v2Z" style="fill:#2f5677"/><path d="M37.11,48.23v-2a.08.08,0,0,0-.08-.08h-3a.07.07,0,0,0-.07.08v2Z" style="fill:#2c5475"/><path d="M37.11,48.23v-2a.08.08,0,0,0-.08-.08h-3a.07.07,0,0,0-.07.08v2Z" style="fill:#295273"/><path d="M37.1,48.23v-2a.07.07,0,0,0-.07-.07h-3a.07.07,0,0,0-.07.07v2Z" style="fill:#264f72"/><path d="M37.1,48.23v-2a.07.07,0,0,0-.07-.07h-3a.07.07,0,0,0-.07.07v2Z" style="fill:#234d70"/><path d="M37.1,48.23v-2a.07.07,0,0,0-.07-.07h-3a.07.07,0,0,0-.07.07v2Z" style="fill:#204a6e"/><path d="M37.1,48.23v-2a.07.07,0,0,0-.07-.07h-3a.07.07,0,0,0-.07.07v2Z" style="fill:#1d486c"/><path d="M37.1,48.23v-2a.07.07,0,0,0-.07-.07h-3a.07.07,0,0,0-.07.07v2Z" style="fill:#1a466a"/><path d="M37.1,48.23v-2a.07.07,0,0,0-.07-.07h-3a.08.08,0,0,0-.08.07v2Z" style="fill:#174368"/><path d="M37.1,48.22v-2a.07.07,0,0,0-.07-.07h-3a.08.08,0,0,0-.08.07v2Z" style="fill:#144166"/><path d="M37.1,48.22v-2a.08.08,0,0,0-.07-.08h-3a.09.09,0,0,0-.08.08v2Z" style="fill:#113e64"/><path d="M37.1,48.22v-2a.08.08,0,0,0-.08-.08h-3a.09.09,0,0,0-.08.08v2Z" style="fill:#0e3c62"/></g><path d="M34,48.26v2a.08.08,0,0,0,.08.07h3a.07.07,0,0,0,.08-.07v-2Z" style="fill:#0e3c62"/><g style="clip-path:url(#m)"><path d="M34.86,49.52a3.29,3.29,0,0,1,0-2.52.8.8,0,0,1,.72-.44c.59,0,.89.55.89,1.67a2.52,2.52,0,0,1-.25,1.27.76.76,0,0,1-1.37,0Zm.71-2.77a.62.62,0,0,0-.55.39,3.29,3.29,0,0,0,0,2.23.56.56,0,0,0,1.06,0,2.53,2.53,0,0,0,.19-1.1c0-1-.23-1.52-.7-1.52Z" style="fill:#d7d6eb"/><path d="M34.85,49.51a3.29,3.29,0,0,1,0-2.52.79.79,0,0,1,.72-.45c.59,0,.89.56.89,1.68a2.55,2.55,0,0,1-.25,1.27.76.76,0,0,1-1.37,0Zm.71-2.77a.6.6,0,0,0-.55.38,3.26,3.26,0,0,0,0,2.24.57.57,0,0,0,1.07,0,2.48,2.48,0,0,0,.19-1.09c0-1-.23-1.52-.7-1.52Z" style="fill:#fdfdfe"/><path d="M34.85,49.52a3.36,3.36,0,0,1,0-2.53.8.8,0,0,1,.73-.44c.59,0,.88.56.88,1.68a2.68,2.68,0,0,1-.24,1.27.77.77,0,0,1-1.38,0Zm.72-2.78a.6.6,0,0,0-.55.39,3.23,3.23,0,0,0,0,2.23.56.56,0,0,0,1.07,0,2.5,2.5,0,0,0,.19-1.1c0-1-.24-1.52-.7-1.52Z" style="fill:url(#n)"/></g><g style="clip-path:url(#o)"><path d="M34.86,49.52a3.29,3.29,0,0,1,0-2.52.8.8,0,0,1,.72-.44c.59,0,.89.55.89,1.67a2.52,2.52,0,0,1-.25,1.27.76.76,0,0,1-1.37,0Zm.71-2.77a.62.62,0,0,0-.55.39,3.29,3.29,0,0,0,0,2.23.56.56,0,0,0,1.06,0,2.53,2.53,0,0,0,.19-1.1c0-1-.23-1.52-.7-1.52Z" style="fill:#d7d6eb"/><path d="M34.85,49.51a3.29,3.29,0,0,1,0-2.52.79.79,0,0,1,.72-.45c.59,0,.89.56.89,1.68a2.55,2.55,0,0,1-.25,1.27.76.76,0,0,1-1.37,0Zm.71-2.77a.6.6,0,0,0-.55.38,3.26,3.26,0,0,0,0,2.24.57.57,0,0,0,1.07,0,2.48,2.48,0,0,0,.19-1.09c0-1-.23-1.52-.7-1.52Z" style="fill:#fdfdfe"/><path d="M34.85,49.52a3.36,3.36,0,0,1,0-2.53.8.8,0,0,1,.73-.44c.59,0,.88.56.88,1.68a2.68,2.68,0,0,1-.24,1.27.77.77,0,0,1-1.38,0Zm.72-2.78a.6.6,0,0,0-.55.39,3.23,3.23,0,0,0,0,2.23.56.56,0,0,0,1.07,0,2.5,2.5,0,0,0,.19-1.1c0-1-.24-1.52-.7-1.52Z" style="fill:url(#n)"/></g></g><g style="clip-path:url(#q)"><rect x="37.99" y="45.79" width="4.91" height="4.91" style="fill:#e9f5ff"/><g style="mix-blend-mode:multiply"><path d="M39,48.32v2a.07.07,0,0,0,.07.07h3a.08.08,0,0,0,.08-.07v-2Z" style="fill:#fff"/><path d="M39,48.32v2a.07.07,0,0,0,.07.07h3a.08.08,0,0,0,.08-.07v-2Z" style="fill:#fcfdfd"/><path d="M39,48.32v2a.07.07,0,0,0,.07.07h3a.08.08,0,0,0,.08-.07v-2Z" style="fill:#f9fafb"/><path d="M39,48.32v2a.07.07,0,0,0,.07.08h3a.07.07,0,0,0,.07-.08v-2Z" style="fill:#f6f8f9"/><path d="M39,48.32v2a.08.08,0,0,0,.07.08h3a.08.08,0,0,0,.07-.08v-2Z" style="fill:#f3f5f7"/><path d="M39,48.32v2a.08.08,0,0,0,.07.08h3a.08.08,0,0,0,.07-.08v-2Z" style="fill:#f0f3f5"/><path d="M39,48.32v2a.08.08,0,0,0,.07.08h3a.08.08,0,0,0,.07-.08v-2Z" style="fill:#edf1f3"/><path d="M39,48.32v2a.08.08,0,0,0,.07.08h3a.08.08,0,0,0,.07-.08v-2Z" style="fill:#eaeef1"/><path d="M38.94,48.32v2a.08.08,0,0,0,.08.07h3a.07.07,0,0,0,.07-.07v-2Z" style="fill:#e7ecef"/><path d="M38.94,48.31v2a.08.08,0,0,0,.08.07h3a.07.07,0,0,0,.07-.07v-2Z" style="fill:#e4e9ee"/><path d="M38.94,48.31v2a.08.08,0,0,0,.08.07h3a.07.07,0,0,0,.07-.07v-2Z" style="fill:#e1e7ec"/><path d="M38.94,48.31v2a.08.08,0,0,0,.08.07h3a.07.07,0,0,0,.07-.07v-2Z" style="fill:#dee5ea"/><path d="M38.94,48.31v2a.08.08,0,0,0,.08.07h3a.07.07,0,0,0,.08-.07v-2Z" style="fill:#dbe2e8"/><path d="M38.94,48.31v2a.07.07,0,0,0,.08.07h3a.08.08,0,0,0,.08-.07v-2Z" style="fill:#d8e0e6"/><path d="M38.94,48.31v2a.07.07,0,0,0,.07.07h3a.08.08,0,0,0,.08-.07v-2Z" style="fill:#d5dde4"/><path d="M38.94,48.31v2a.07.07,0,0,0,.07.07h3a.08.08,0,0,0,.08-.07v-2Z" style="fill:#d2dbe2"/><path d="M38.94,48.31v2a.07.07,0,0,0,.07.08h3a.08.08,0,0,0,.08-.08v-2Z" style="fill:#cfd8e0"/><path d="M38.94,48.31v2a.08.08,0,0,0,.07.08h3a.08.08,0,0,0,.07-.08v-2Z" style="fill:#ccd6de"/><path d="M38.94,48.31v2a.08.08,0,0,0,.07.08h3a.08.08,0,0,0,.07-.08v-2Z" style="fill:#c9d4dc"/><path d="M38.94,48.31v2a.08.08,0,0,0,.07.08h3a.08.08,0,0,0,.07-.08v-2Z" style="fill:#c6d1da"/><path d="M38.94,48.31v2a.08.08,0,0,0,.07.08h3a.08.08,0,0,0,.07-.08v-2Z" style="fill:#c3cfd8"/><path d="M38.94,48.31v2a.07.07,0,0,0,.07.07h3a.07.07,0,0,0,.07-.07v-2Z" style="fill:#c1ccd6"/><path d="M38.93,48.3v2a.08.08,0,0,0,.08.07h3a.07.07,0,0,0,.07-.07v-2Z" style="fill:#becad4"/><path d="M38.93,48.3v2a.08.08,0,0,0,.08.07h3a.07.07,0,0,0,.07-.07v-2Z" style="fill:#bbc8d2"/><path d="M38.93,48.3v2a.08.08,0,0,0,.08.07h3a.07.07,0,0,0,.07-.07v-2Z" style="fill:#b8c5d0"/><path d="M38.93,48.3v2a.08.08,0,0,0,.08.07h3a.07.07,0,0,0,.08-.07v-2Z" style="fill:#b5c3cf"/><path d="M38.93,48.3v2a.07.07,0,0,0,.08.07h3a.08.08,0,0,0,.08-.07v-2Z" style="fill:#b2c0cd"/><path d="M38.93,48.3v2a.07.07,0,0,0,.07.07h3a.08.08,0,0,0,.08-.07v-2Z" style="fill:#afbecb"/><path d="M38.93,48.3v2a.07.07,0,0,0,.07.07h3a.08.08,0,0,0,.08-.07v-2Z" style="fill:#acbcc9"/><path d="M38.93,48.3v2a.07.07,0,0,0,.07.08h3a.08.08,0,0,0,.08-.08v-2Z" style="fill:#a9b9c7"/><path d="M38.93,48.3v2a.08.08,0,0,0,.07.08h3A.08.08,0,0,0,42,50.3v-2Z" style="fill:#a6b7c5"/><path d="M38.93,48.3v2a.08.08,0,0,0,.07.08h3A.08.08,0,0,0,42,50.3v-2Z" style="fill:#a3b4c3"/><path d="M38.93,48.3v2a.08.08,0,0,0,.07.08h3A.08.08,0,0,0,42,50.3v-2Z" style="fill:#a0b2c1"/><path d="M38.93,48.3v2a.08.08,0,0,0,.07.08h3A.08.08,0,0,0,42,50.3v-2Z" style="fill:#9db0bf"/><path d="M38.93,48.3v2a.07.07,0,0,0,.07.07h3A.07.07,0,0,0,42,50.3v-2Z" style="fill:#9aadbd"/><path d="M38.92,48.3v2a.08.08,0,0,0,.08.07h3A.07.07,0,0,0,42,50.3v-2Z" style="fill:#97abbb"/><path d="M38.92,48.29v2a.08.08,0,0,0,.08.07h3A.07.07,0,0,0,42,50.3v-2Z" style="fill:#94a8b9"/><path d="M38.92,48.29v2a.08.08,0,0,0,.08.07h3A.07.07,0,0,0,42,50.3v-2Z" style="fill:#91a6b7"/><path d="M38.92,48.29v2a.08.08,0,0,0,.08.07h3A.07.07,0,0,0,42,50.3v-2Z" style="fill:#8ea4b5"/><path d="M38.92,48.29v2a.07.07,0,0,0,.08.07h3A.08.08,0,0,0,42,50.3v-2Z" style="fill:#8ba1b3"/><path d="M38.92,48.29v2a.07.07,0,0,0,.07.07h3A.08.08,0,0,0,42,50.3v-2Z" style="fill:#889fb1"/><path d="M38.92,48.29v2a.07.07,0,0,0,.07.07h3A.08.08,0,0,0,42,50.3v-2Z" style="fill:#859cb0"/><path d="M38.92,48.29v2a.07.07,0,0,0,.07.08h3a.08.08,0,0,0,.08-.08v-2Z" style="fill:#829aae"/><path d="M38.92,48.29v2a.08.08,0,0,0,.07.08h3a.08.08,0,0,0,.07-.08v-2Z" style="fill:#7f97ac"/><path d="M38.92,48.29v2a.08.08,0,0,0,.07.08h3a.08.08,0,0,0,.07-.08v-2Z" style="fill:#7c95aa"/><path d="M38.92,48.29v2a.08.08,0,0,0,.07.08h3a.08.08,0,0,0,.07-.08v-2Z" style="fill:#7993a8"/><path d="M38.92,48.29v2a.08.08,0,0,0,.07.08h3a.08.08,0,0,0,.07-.08v-2Z" style="fill:#7690a6"/><path d="M38.92,48.29v2a.08.08,0,0,0,.07.08h3a.08.08,0,0,0,.07-.08v-2Z" style="fill:#738ea4"/><path d="M38.91,48.29v2a.08.08,0,0,0,.08.07h3a.07.07,0,0,0,.07-.07v-2Z" style="fill:#708ba2"/><path d="M38.91,48.28v2a.08.08,0,0,0,.08.07h3a.07.07,0,0,0,.07-.07v-2Z" style="fill:#6d89a0"/><path d="M38.91,48.28v2a.08.08,0,0,0,.08.07h3a.07.07,0,0,0,.07-.07v-2Z" style="fill:#6a879e"/><path d="M38.91,48.28v2a.08.08,0,0,0,.08.07h3a.07.07,0,0,0,.08-.07v-2Z" style="fill:#67849c"/><path d="M38.91,48.28v2a.07.07,0,0,0,.08.07h3a.08.08,0,0,0,.08-.07v-2Z" style="fill:#64829a"/><path d="M38.91,48.28v2a.07.07,0,0,0,.07.07h3a.08.08,0,0,0,.08-.07v-2Z" style="fill:#617f98"/><path d="M38.91,48.28v2a.07.07,0,0,0,.07.07h3a.08.08,0,0,0,.08-.07v-2Z" style="fill:#5e7d96"/><path d="M38.91,48.28v2a.07.07,0,0,0,.07.08h3a.08.08,0,0,0,.08-.08v-2Z" style="fill:#5b7b94"/><path d="M38.91,48.28v2a.07.07,0,0,0,.07.08h3a.07.07,0,0,0,.07-.08v-2Z" style="fill:#587892"/><path d="M38.91,48.28v2a.08.08,0,0,0,.07.08h3a.08.08,0,0,0,.07-.08v-2Z" style="fill:#557691"/><path d="M38.91,48.28v2a.08.08,0,0,0,.07.08h3a.08.08,0,0,0,.07-.08v-2Z" style="fill:#52738f"/><path d="M38.91,48.28v2a.08.08,0,0,0,.07.08h3a.08.08,0,0,0,.07-.08v-2Z" style="fill:#4f718d"/><path d="M38.91,48.28v2a.08.08,0,0,0,.07.08h3a.08.08,0,0,0,.07-.08v-2Z" style="fill:#4c6f8b"/><path d="M38.9,48.28v2a.08.08,0,0,0,.08.07h3a.07.07,0,0,0,.07-.07v-2Z" style="fill:#4a6c89"/><path d="M38.9,48.27v2a.08.08,0,0,0,.08.07h3a.07.07,0,0,0,.07-.07v-2Z" style="fill:#476a87"/><path d="M38.9,48.27v2a.08.08,0,0,0,.08.07h3a.07.07,0,0,0,.07-.07v-2Z" style="fill:#446785"/><path d="M38.9,48.27v2a.08.08,0,0,0,.08.07h3a.07.07,0,0,0,.07-.07v-2Z" style="fill:#416583"/><path d="M38.9,48.27v2a.08.08,0,0,0,.08.07h3a.08.08,0,0,0,.08-.07v-2Z" style="fill:#3e6381"/><path d="M38.9,48.27v2a.07.07,0,0,0,.08.07h3a.08.08,0,0,0,.08-.07v-2Z" style="fill:#3b607f"/><path d="M38.9,48.27v2a.07.07,0,0,0,.07.07h3a.08.08,0,0,0,.08-.07v-2Z" style="fill:#385e7d"/><path d="M38.9,48.27v2a.07.07,0,0,0,.07.07h3a.08.08,0,0,0,.08-.07v-2Z" style="fill:#355b7b"/><path d="M38.9,48.27v2a.07.07,0,0,0,.07.08h3a.08.08,0,0,0,.08-.08v-2Z" style="fill:#325979"/><path d="M38.9,48.27v2a.08.08,0,0,0,.07.08h3a.08.08,0,0,0,.07-.08v-2Z" style="fill:#2f5677"/><path d="M38.9,48.27v2a.08.08,0,0,0,.07.08h3a.08.08,0,0,0,.07-.08v-2Z" style="fill:#2c5475"/><path d="M38.9,48.27v2a.08.08,0,0,0,.07.08h3a.08.08,0,0,0,.07-.08v-2Z" style="fill:#295273"/><path d="M38.9,48.27v2a.08.08,0,0,0,.07.08h3a.08.08,0,0,0,.07-.08v-2Z" style="fill:#264f72"/><path d="M38.9,48.27v2a.07.07,0,0,0,.07.07h3a.07.07,0,0,0,.07-.07v-2Z" style="fill:#234d70"/><path d="M38.89,48.26v2a.08.08,0,0,0,.08.07h3a.07.07,0,0,0,.07-.07v-2Z" style="fill:#204a6e"/><path d="M38.89,48.26v2a.08.08,0,0,0,.08.07h3a.07.07,0,0,0,.07-.07v-2Z" style="fill:#1d486c"/><path d="M38.89,48.26v2a.08.08,0,0,0,.08.07h3a.07.07,0,0,0,.07-.07v-2Z" style="fill:#1a466a"/><path d="M38.89,48.26v2a.08.08,0,0,0,.08.07h3a.08.08,0,0,0,.08-.07v-2Z" style="fill:#174368"/><path d="M38.89,48.26v2a.07.07,0,0,0,.08.07h3a.08.08,0,0,0,.08-.07v-2Z" style="fill:#144166"/><path d="M38.89,48.26v2a.07.07,0,0,0,.07.07h3a.08.08,0,0,0,.08-.07v-2Z" style="fill:#113e64"/><path d="M38.89,48.26v2a.07.07,0,0,0,.07.07h3a.08.08,0,0,0,.08-.07v-2Z" style="fill:#0e3c62"/></g><g style="mix-blend-mode:multiply"><path d="M42.07,48.28v-2a.08.08,0,0,0-.08-.07H39a.07.07,0,0,0-.07.07v2Z" style="fill:#fff"/><path d="M42.07,48.28v-2a.08.08,0,0,0-.08-.07H39a.07.07,0,0,0-.07.07v2Z" style="fill:#fcfdfd"/><path d="M42.07,48.28v-2A.09.09,0,0,0,42,46.2H39a.08.08,0,0,0-.07.08v2Z" style="fill:#f9fafb"/><path d="M42.06,48.28v-2A.08.08,0,0,0,42,46.2H39a.08.08,0,0,0-.07.08v2Z" style="fill:#f6f8f9"/><path d="M42.06,48.28v-2A.08.08,0,0,0,42,46.2H39a.08.08,0,0,0-.07.08v2Z" style="fill:#f3f5f7"/><path d="M42.06,48.28v-2A.07.07,0,0,0,42,46.2H39a.07.07,0,0,0-.07.08v2Z" style="fill:#f0f3f5"/><path d="M42.06,48.28v-2A.07.07,0,0,0,42,46.2H39a.07.07,0,0,0-.07.08v2Z" style="fill:#edf1f3"/><path d="M42.06,48.28v-2A.07.07,0,0,0,42,46.2H39a.07.07,0,0,0-.07.07v2Z" style="fill:#eaeef1"/><path d="M42.06,48.28v-2A.07.07,0,0,0,42,46.2H39a.08.08,0,0,0-.08.07v2Z" style="fill:#e7ecef"/><path d="M42.06,48.28v-2A.07.07,0,0,0,42,46.2H39a.08.08,0,0,0-.08.07v2Z" style="fill:#e4e9ee"/><path d="M42.06,48.28v-2A.07.07,0,0,0,42,46.2H39a.08.08,0,0,0-.08.07v2Z" style="fill:#e1e7ec"/><path d="M42.06,48.28v-2A.07.07,0,0,0,42,46.2H39a.08.08,0,0,0-.08.07v2Z" style="fill:#dee5ea"/><path d="M42.06,48.28v-2A.07.07,0,0,0,42,46.2H39a.08.08,0,0,0-.08.07v2Z" style="fill:#dbe2e8"/><path d="M42.06,48.28v-2A.08.08,0,0,0,42,46.2H39a.07.07,0,0,0-.08.07v2Z" style="fill:#d8e0e6"/><path d="M42.06,48.27v-2A.08.08,0,0,0,42,46.2H39a.07.07,0,0,0-.07.07v2Z" style="fill:#d5dde4"/><path d="M42.06,48.27v-2a.09.09,0,0,0-.08-.08H39a.08.08,0,0,0-.07.08v2Z" style="fill:#d2dbe2"/><path d="M42.06,48.27v-2a.09.09,0,0,0-.08-.08H39a.08.08,0,0,0-.07.08v2Z" style="fill:#cfd8e0"/><path d="M42.05,48.27v-2a.08.08,0,0,0-.07-.08H39a.08.08,0,0,0-.07.08v2Z" style="fill:#ccd6de"/><path d="M42.05,48.27v-2a.07.07,0,0,0-.07-.08H39a.07.07,0,0,0-.07.08v2Z" style="fill:#c9d4dc"/><path d="M42.05,48.27v-2a.07.07,0,0,0-.07-.08H39a.07.07,0,0,0-.07.08v2Z" style="fill:#c6d1da"/><path d="M42.05,48.27v-2a.07.07,0,0,0-.07-.07H39a.07.07,0,0,0-.07.07v2Z" style="fill:#c3cfd8"/><path d="M42.05,48.27v-2a.07.07,0,0,0-.07-.07H39a.07.07,0,0,0-.07.07v2Z" style="fill:#c1ccd6"/><path d="M42.05,48.27v-2a.07.07,0,0,0-.07-.07H39a.08.08,0,0,0-.08.07v2Z" style="fill:#becad4"/><path d="M42.05,48.27v-2a.07.07,0,0,0-.07-.07H39a.08.08,0,0,0-.08.07v2Z" style="fill:#bbc8d2"/><path d="M42.05,48.27v-2a.07.07,0,0,0-.07-.07H39a.08.08,0,0,0-.08.07v2Z" style="fill:#b8c5d0"/><path d="M42.05,48.27v-2a.07.07,0,0,0-.08-.07H39a.08.08,0,0,0-.08.07v2Z" style="fill:#b5c3cf"/><path d="M42.05,48.27v-2a.08.08,0,0,0-.08-.07H39a.07.07,0,0,0-.08.07v2Z" style="fill:#b2c0cd"/><path d="M42.05,48.26v-2a.08.08,0,0,0-.08-.07H39a.07.07,0,0,0-.07.07v2Z" style="fill:#afbecb"/><path d="M42.05,48.26v-2a.09.09,0,0,0-.08-.08H39a.08.08,0,0,0-.07.08v2Z" style="fill:#acbcc9"/><path d="M42.05,48.26v-2a.09.09,0,0,0-.08-.08H39a.08.08,0,0,0-.07.08v2Z" style="fill:#a9b9c7"/><path d="M42,48.26v-2a.08.08,0,0,0-.07-.08H39a.08.08,0,0,0-.07.08v2Z" style="fill:#a6b7c5"/><path d="M42,48.26v-2a.08.08,0,0,0-.07-.08H39a.08.08,0,0,0-.07.08v2Z" style="fill:#a3b4c3"/><path d="M42,48.26v-2a.07.07,0,0,0-.07-.08H39a.07.07,0,0,0-.07.08v2Z" style="fill:#a0b2c1"/><path d="M42,48.26v-2a.07.07,0,0,0-.07-.07H39a.07.07,0,0,0-.07.07v2Z" style="fill:#9db0bf"/><path d="M42,48.26v-2a.07.07,0,0,0-.07-.07H39a.07.07,0,0,0-.07.07v2Z" style="fill:#9aadbd"/><path d="M42,48.26v-2a.07.07,0,0,0-.07-.07H39a.08.08,0,0,0-.08.07v2Z" style="fill:#97abbb"/><path d="M42,48.26v-2a.07.07,0,0,0-.07-.07H39a.08.08,0,0,0-.08.07v2Z" style="fill:#94a8b9"/><path d="M42,48.26v-2a.07.07,0,0,0-.07-.07H39a.08.08,0,0,0-.08.07v2Z" style="fill:#91a6b7"/><path d="M42,48.26v-2a.07.07,0,0,0-.08-.07H39a.08.08,0,0,0-.08.07v2Z" style="fill:#8ea4b5"/><path d="M42,48.26v-2a.08.08,0,0,0-.08-.07H39a.07.07,0,0,0-.08.07v2Z" style="fill:#8ba1b3"/><path d="M42,48.25v-2a.08.08,0,0,0-.08-.07H39a.07.07,0,0,0-.07.07v2Z" style="fill:#889fb1"/><path d="M42,48.25v-2a.09.09,0,0,0-.08-.08H39a.08.08,0,0,0-.07.08v2Z" style="fill:#859cb0"/><path d="M42,48.25v-2a.09.09,0,0,0-.08-.08H39a.08.08,0,0,0-.07.08v2Z" style="fill:#829aae"/><path d="M42,48.25v-2a.08.08,0,0,0-.07-.08H39a.08.08,0,0,0-.07.08v2Z" style="fill:#7f97ac"/><path d="M42,48.25v-2a.08.08,0,0,0-.07-.08H39a.08.08,0,0,0-.07.08v2Z" style="fill:#7c95aa"/><path d="M42,48.25v-2a.07.07,0,0,0-.07-.08H39a.07.07,0,0,0-.07.08v2Z" style="fill:#7993a8"/><path d="M42,48.25v-2a.07.07,0,0,0-.07-.07H39a.07.07,0,0,0-.07.07v2Z" style="fill:#7690a6"/><path d="M42,48.25v-2a.07.07,0,0,0-.07-.07H39a.07.07,0,0,0-.07.07v2Z" style="fill:#738ea4"/><path d="M42,48.25v-2a.07.07,0,0,0-.07-.07H39a.08.08,0,0,0-.08.07v2Z" style="fill:#708ba2"/><path d="M42,48.25v-2a.07.07,0,0,0-.07-.07H39a.08.08,0,0,0-.08.07v2Z" style="fill:#6d89a0"/><path d="M42,48.25v-2a.07.07,0,0,0-.07-.07H39a.08.08,0,0,0-.08.07v2Z" style="fill:#6a879e"/><path d="M42,48.25v-2a.07.07,0,0,0-.08-.07H39a.08.08,0,0,0-.08.07v2Z" style="fill:#67849c"/><path d="M42,48.25v-2a.08.08,0,0,0-.08-.07H39a.07.07,0,0,0-.08.07v2Z" style="fill:#64829a"/><path d="M42,48.24v-2a.08.08,0,0,0-.08-.07H39a.07.07,0,0,0-.07.07v2Z" style="fill:#617f98"/><path d="M42,48.24v-2a.09.09,0,0,0-.08-.08H39a.08.08,0,0,0-.07.08v2Z" style="fill:#5e7d96"/><path d="M42,48.24v-2a.09.09,0,0,0-.08-.08H39a.08.08,0,0,0-.07.08v2Z" style="fill:#5b7b94"/><path d="M42,48.24v-2a.08.08,0,0,0-.07-.08H39a.08.08,0,0,0-.07.08v2Z" style="fill:#587892"/><path d="M42,48.24v-2a.08.08,0,0,0-.07-.08H39a.08.08,0,0,0-.07.08v2Z" style="fill:#557691"/><path d="M42,48.24v-2a.07.07,0,0,0-.07-.08H39a.07.07,0,0,0-.07.08v2Z" style="fill:#52738f"/><path d="M42,48.24v-2a.07.07,0,0,0-.07-.07H39a.07.07,0,0,0-.07.07v2Z" style="fill:#4f718d"/><path d="M42,48.24v-2a.07.07,0,0,0-.07-.07H39a.07.07,0,0,0-.07.07v2Z" style="fill:#4c6f8b"/><path d="M42,48.24v-2a.07.07,0,0,0-.07-.07H39a.08.08,0,0,0-.08.07v2Z" style="fill:#4a6c89"/><path d="M42,48.24v-2a.07.07,0,0,0-.07-.07H39a.08.08,0,0,0-.08.07v2Z" style="fill:#476a87"/><path d="M42,48.24v-2a.07.07,0,0,0-.07-.07H39a.08.08,0,0,0-.08.07v2Z" style="fill:#446785"/><path d="M42,48.24v-2a.07.07,0,0,0-.07-.07H39a.08.08,0,0,0-.08.07v2Z" style="fill:#416583"/><path d="M42,48.24v-2a.08.08,0,0,0-.08-.07H39a.08.08,0,0,0-.08.07v2Z" style="fill:#3e6381"/><path d="M42,48.23v-2a.08.08,0,0,0-.08-.07H39a.07.07,0,0,0-.08.07v2Z" style="fill:#3b607f"/><path d="M42,48.23v-2a.09.09,0,0,0-.08-.08H39a.08.08,0,0,0-.07.08v2Z" style="fill:#385e7d"/><path d="M42,48.23v-2a.09.09,0,0,0-.08-.08H39a.08.08,0,0,0-.07.08v2Z" style="fill:#355b7b"/><path d="M42,48.23v-2a.09.09,0,0,0-.08-.08H39a.08.08,0,0,0-.07.08v2Z" style="fill:#325979"/><path d="M42,48.23v-2a.08.08,0,0,0-.07-.08H39a.08.08,0,0,0-.07.08v2Z" style="fill:#2f5677"/><path d="M42,48.23v-2a.07.07,0,0,0-.07-.08H39a.07.07,0,0,0-.07.08v2Z" style="fill:#2c5475"/><path d="M42,48.23v-2a.07.07,0,0,0-.07-.08H39a.07.07,0,0,0-.07.08v2Z" style="fill:#295273"/><path d="M42,48.23v-2a.07.07,0,0,0-.07-.07H39a.07.07,0,0,0-.07.07v2Z" style="fill:#264f72"/><path d="M42,48.23v-2a.07.07,0,0,0-.07-.07H39a.07.07,0,0,0-.07.07v2Z" style="fill:#234d70"/><path d="M42,48.23v-2a.07.07,0,0,0-.07-.07H39a.08.08,0,0,0-.08.07v2Z" style="fill:#204a6e"/><path d="M42,48.23v-2a.07.07,0,0,0-.07-.07H39a.08.08,0,0,0-.08.07v2Z" style="fill:#1d486c"/><path d="M42,48.23v-2a.07.07,0,0,0-.07-.07H39a.08.08,0,0,0-.08.07v2Z" style="fill:#1a466a"/><path d="M42,48.23v-2a.08.08,0,0,0-.08-.07H39a.08.08,0,0,0-.08.07v2Z" style="fill:#174368"/><path d="M42,48.22v-2a.08.08,0,0,0-.08-.07H39a.07.07,0,0,0-.08.07v2Z" style="fill:#144166"/><path d="M42,48.22v-2a.09.09,0,0,0-.08-.08H39a.08.08,0,0,0-.07.08v2Z" style="fill:#113e64"/><path d="M42,48.22v-2a.09.09,0,0,0-.08-.08H39a.08.08,0,0,0-.07.08v2Z" style="fill:#0e3c62"/></g><g style="clip-path:url(#r)"><path d="M39.68,49.91v-.13s0,0,0,0h.64s0,0,0,0V46.87s0,0,0,0l-.69.26s0,0,0,0v-.14s0,0,0,0l.89-.32s0,0,0,0v3.12s0,0,0,0h.62s0,0,0,0,0,.08,0,.12,0,0,0,0H39.71s0,0,0,0Z" style="fill:#d7d6eb"/><path d="M39.67,49.9v-.14s0,0,0,0h.65s0,0,0,0V46.85s0,0,0,0l-.69.26s0,0,0,0v-.13s0,0,0,0l.88-.32s0,0,0,0V49.7s0,0,0,0h.61c.05,0,0,0,0,0s0,.08,0,.12,0,0,0,0H39.7s0,0,0,0Z" style="fill:#fdfdfe"/><path d="M39.67,49.91v-.14s0,0,0,0h.65s0,0,0,0V46.86s0,0,0,0l-.69.26s0,0,0,0v-.14s0,0,0,0l.89-.33s0,0,0,0v3.13s0,0,0,0h.62s0,0,0,0v.13s0,0,0,0H39.71s0,0,0,0Z" style="fill:url(#s)"/></g><g style="clip-path:url(#t)"><path d="M39.68,49.91v-.13s0,0,0,0h.64s0,0,0,0V46.87s0,0,0,0l-.69.26s0,0,0,0v-.14s0,0,0,0l.89-.32s0,0,0,0v3.12s0,0,0,0h.62s0,0,0,0,0,.08,0,.12,0,0,0,0H39.71s0,0,0,0Z" style="fill:#d7d6eb"/><path d="M39.67,49.9v-.14s0,0,0,0h.65s0,0,0,0V46.85s0,0,0,0l-.69.26s0,0,0,0v-.13s0,0,0,0l.88-.32s0,0,0,0V49.7s0,0,0,0h.61c.05,0,0,0,0,0s0,.08,0,.12,0,0,0,0H39.7s0,0,0,0Z" style="fill:#fdfdfe"/><path d="M39.67,49.91v-.14s0,0,0,0h.65s0,0,0,0V46.86s0,0,0,0l-.69.26s0,0,0,0v-.14s0,0,0,0l.89-.33s0,0,0,0v3.13s0,0,0,0h.62s0,0,0,0v.13s0,0,0,0H39.71s0,0,0,0Z" style="fill:url(#s)"/></g></g><g style="clip-path:url(#v)"><rect x="42.9" y="45.79" width="4.91" height="4.91" style="fill:#e9f5ff"/><g style="mix-blend-mode:multiply"><path d="M43.86,48.32v2a.07.07,0,0,0,.07.07h3a.07.07,0,0,0,.07-.07v-2Z" style="fill:#fff"/><path d="M43.86,48.32v2a.07.07,0,0,0,.07.07h3a.07.07,0,0,0,.07-.07v-2Z" style="fill:#fcfdfd"/><path d="M43.86,48.32v2a.07.07,0,0,0,.07.07h3a.07.07,0,0,0,.07-.07v-2Z" style="fill:#f9fafb"/><path d="M43.86,48.32v2a.07.07,0,0,0,.07.08h3a.07.07,0,0,0,.07-.08v-2Z" style="fill:#f6f8f9"/><path d="M43.86,48.32v2a.08.08,0,0,0,.07.08h3a.08.08,0,0,0,.07-.08v-2Z" style="fill:#f3f5f7"/><path d="M43.86,48.32v2a.08.08,0,0,0,.07.08h3a.08.08,0,0,0,.07-.08v-2Z" style="fill:#f0f3f5"/><path d="M43.85,48.32v2a.09.09,0,0,0,.08.08h3a.08.08,0,0,0,.07-.08v-2Z" style="fill:#edf1f3"/><path d="M43.85,48.32v2a.09.09,0,0,0,.08.08h3a.08.08,0,0,0,.07-.08v-2Z" style="fill:#eaeef1"/><path d="M43.85,48.32v2a.08.08,0,0,0,.08.07h3a.07.07,0,0,0,.08-.07v-2Z" style="fill:#e7ecef"/><path d="M43.85,48.31v2a.08.08,0,0,0,.08.07h3a.08.08,0,0,0,.08-.07v-2Z" style="fill:#e4e9ee"/><path d="M43.85,48.31v2a.07.07,0,0,0,.08.07h3a.08.08,0,0,0,.08-.07v-2Z" style="fill:#e1e7ec"/><path d="M43.85,48.31v2a.07.07,0,0,0,.07.07h3a.08.08,0,0,0,.08-.07v-2Z" style="fill:#dee5ea"/><path d="M43.85,48.31v2a.07.07,0,0,0,.07.07h3a.08.08,0,0,0,.08-.07v-2Z" style="fill:#dbe2e8"/><path d="M43.85,48.31v2a.07.07,0,0,0,.07.07h3a.07.07,0,0,0,.07-.07v-2Z" style="fill:#d8e0e6"/><path d="M43.85,48.31v2a.07.07,0,0,0,.07.07h3a.07.07,0,0,0,.07-.07v-2Z" style="fill:#d5dde4"/><path d="M43.85,48.31v2a.07.07,0,0,0,.07.07h3a.07.07,0,0,0,.07-.07v-2Z" style="fill:#d2dbe2"/><path d="M43.85,48.31v2a.07.07,0,0,0,.07.08h3a.07.07,0,0,0,.07-.08v-2Z" style="fill:#cfd8e0"/><path d="M43.85,48.31v2a.08.08,0,0,0,.07.08h3a.08.08,0,0,0,.07-.08v-2Z" style="fill:#ccd6de"/><path d="M43.85,48.31v2a.08.08,0,0,0,.07.08h3a.08.08,0,0,0,.07-.08v-2Z" style="fill:#c9d4dc"/><path d="M43.84,48.31v2a.09.09,0,0,0,.08.08h3a.08.08,0,0,0,.07-.08v-2Z" style="fill:#c6d1da"/><path d="M43.84,48.31v2a.09.09,0,0,0,.08.08h3a.08.08,0,0,0,.07-.08v-2Z" style="fill:#c3cfd8"/><path d="M43.84,48.31v2a.08.08,0,0,0,.08.07h3a.07.07,0,0,0,.08-.07v-2Z" style="fill:#c1ccd6"/><path d="M43.84,48.3v2a.08.08,0,0,0,.08.07h3a.08.08,0,0,0,.08-.07v-2Z" style="fill:#becad4"/><path d="M43.84,48.3v2a.07.07,0,0,0,.08.07h3a.08.08,0,0,0,.08-.07v-2Z" style="fill:#bbc8d2"/><path d="M43.84,48.3v2a.07.07,0,0,0,.07.07h3a.08.08,0,0,0,.08-.07v-2Z" style="fill:#b8c5d0"/><path d="M43.84,48.3v2a.07.07,0,0,0,.07.07h3a.08.08,0,0,0,.08-.07v-2Z" style="fill:#b5c3cf"/><path d="M43.84,48.3v2a.07.07,0,0,0,.07.07h3a.07.07,0,0,0,.07-.07v-2Z" style="fill:#b2c0cd"/><path d="M43.84,48.3v2a.07.07,0,0,0,.07.07h3a.07.07,0,0,0,.07-.07v-2Z" style="fill:#afbecb"/><path d="M43.84,48.3v2a.07.07,0,0,0,.07.07h3a.07.07,0,0,0,.07-.07v-2Z" style="fill:#acbcc9"/><path d="M43.84,48.3v2a.07.07,0,0,0,.07.08h3A.07.07,0,0,0,47,50.3v-2Z" style="fill:#a9b9c7"/><path d="M43.84,48.3v2a.08.08,0,0,0,.07.08h3A.08.08,0,0,0,47,50.3v-2Z" style="fill:#a6b7c5"/><path d="M43.84,48.3v2a.08.08,0,0,0,.07.08h3A.08.08,0,0,0,47,50.3v-2Z" style="fill:#a3b4c3"/><path d="M43.83,48.3v2a.09.09,0,0,0,.08.08h3A.08.08,0,0,0,47,50.3v-2Z" style="fill:#a0b2c1"/><path d="M43.83,48.3v2a.09.09,0,0,0,.08.08h3A.08.08,0,0,0,47,50.3v-2Z" style="fill:#9db0bf"/><path d="M43.83,48.3v2a.08.08,0,0,0,.08.07h3A.07.07,0,0,0,47,50.3v-2Z" style="fill:#9aadbd"/><path d="M43.83,48.3v2a.08.08,0,0,0,.08.07h3A.07.07,0,0,0,47,50.3v-2Z" style="fill:#97abbb"/><path d="M43.83,48.29v2a.07.07,0,0,0,.08.07h3A.08.08,0,0,0,47,50.3v-2Z" style="fill:#94a8b9"/><path d="M43.83,48.29v2a.07.07,0,0,0,.07.07h3A.08.08,0,0,0,47,50.3v-2Z" style="fill:#91a6b7"/><path d="M43.83,48.29v2a.07.07,0,0,0,.07.07h3A.08.08,0,0,0,47,50.3v-2Z" style="fill:#8ea4b5"/><path d="M43.83,48.29v2a.07.07,0,0,0,.07.07h3A.08.08,0,0,0,47,50.3v-2Z" style="fill:#8ba1b3"/><path d="M43.83,48.29v2a.07.07,0,0,0,.07.07h3a.07.07,0,0,0,.07-.07v-2Z" style="fill:#889fb1"/><path d="M43.83,48.29v2a.07.07,0,0,0,.07.07h3a.07.07,0,0,0,.07-.07v-2Z" style="fill:#859cb0"/><path d="M43.83,48.29v2a.07.07,0,0,0,.07.08h3a.07.07,0,0,0,.07-.08v-2Z" style="fill:#829aae"/><path d="M43.83,48.29v2a.08.08,0,0,0,.07.08h3a.08.08,0,0,0,.07-.08v-2Z" style="fill:#7f97ac"/><path d="M43.83,48.29v2a.08.08,0,0,0,.07.08h3a.08.08,0,0,0,.07-.08v-2Z" style="fill:#7c95aa"/><path d="M43.82,48.29v2a.09.09,0,0,0,.08.08h3a.08.08,0,0,0,.07-.08v-2Z" style="fill:#7993a8"/><path d="M43.82,48.29v2a.09.09,0,0,0,.08.08h3a.08.08,0,0,0,.07-.08v-2Z" style="fill:#7690a6"/><path d="M43.82,48.29v2a.09.09,0,0,0,.08.08h3a.08.08,0,0,0,.07-.08v-2Z" style="fill:#738ea4"/><path d="M43.82,48.29v2a.08.08,0,0,0,.08.07h3a.07.07,0,0,0,.08-.07v-2Z" style="fill:#708ba2"/><path d="M43.82,48.28v2a.07.07,0,0,0,.08.07h3a.08.08,0,0,0,.08-.07v-2Z" style="fill:#6d89a0"/><path d="M43.82,48.28v2a.07.07,0,0,0,.08.07h3a.08.08,0,0,0,.08-.07v-2Z" style="fill:#6a879e"/><path d="M43.82,48.28v2a.07.07,0,0,0,.07.07h3a.08.08,0,0,0,.08-.07v-2Z" style="fill:#67849c"/><path d="M43.82,48.28v2a.07.07,0,0,0,.07.07h3a.08.08,0,0,0,.08-.07v-2Z" style="fill:#64829a"/><path d="M43.82,48.28v2a.07.07,0,0,0,.07.07h3a.07.07,0,0,0,.07-.07v-2Z" style="fill:#617f98"/><path d="M43.82,48.28v2a.07.07,0,0,0,.07.07h3a.07.07,0,0,0,.07-.07v-2Z" style="fill:#5e7d96"/><path d="M43.82,48.28v2a.07.07,0,0,0,.07.08h3a.07.07,0,0,0,.07-.08v-2Z" style="fill:#5b7b94"/><path d="M43.82,48.28v2a.07.07,0,0,0,.07.08h3a.07.07,0,0,0,.07-.08v-2Z" style="fill:#587892"/><path d="M43.82,48.28v2a.08.08,0,0,0,.07.08h3a.08.08,0,0,0,.07-.08v-2Z" style="fill:#557691"/><path d="M43.82,48.28v2a.08.08,0,0,0,.07.08h3a.08.08,0,0,0,.07-.08v-2Z" style="fill:#52738f"/><path d="M43.81,48.28v2a.09.09,0,0,0,.08.08h3a.08.08,0,0,0,.07-.08v-2Z" style="fill:#4f718d"/><path d="M43.81,48.28v2a.09.09,0,0,0,.08.08h3a.08.08,0,0,0,.07-.08v-2Z" style="fill:#4c6f8b"/><path d="M43.81,48.28v2a.08.08,0,0,0,.08.07h3a.07.07,0,0,0,.08-.07v-2Z" style="fill:#4a6c89"/><path d="M43.81,48.27v2a.08.08,0,0,0,.08.07h3a.08.08,0,0,0,.08-.07v-2Z" style="fill:#476a87"/><path d="M43.81,48.27v2a.07.07,0,0,0,.08.07h3a.08.08,0,0,0,.08-.07v-2Z" style="fill:#446785"/><path d="M43.81,48.27v2a.07.07,0,0,0,.07.07h3a.08.08,0,0,0,.08-.07v-2Z" style="fill:#416583"/><path d="M43.81,48.27v2a.07.07,0,0,0,.07.07h3a.08.08,0,0,0,.08-.07v-2Z" style="fill:#3e6381"/><path d="M43.81,48.27v2a.07.07,0,0,0,.07.07h3a.07.07,0,0,0,.07-.07v-2Z" style="fill:#3b607f"/><path d="M43.81,48.27v2a.07.07,0,0,0,.07.07h3a.07.07,0,0,0,.07-.07v-2Z" style="fill:#385e7d"/><path d="M43.81,48.27v2a.07.07,0,0,0,.07.07h3a.07.07,0,0,0,.07-.07v-2Z" style="fill:#355b7b"/><path d="M43.81,48.27v2a.07.07,0,0,0,.07.08h3a.07.07,0,0,0,.07-.08v-2Z" style="fill:#325979"/><path d="M43.81,48.27v2a.08.08,0,0,0,.07.08h3a.08.08,0,0,0,.07-.08v-2Z" style="fill:#2f5677"/><path d="M43.81,48.27v2a.08.08,0,0,0,.07.08h3a.08.08,0,0,0,.07-.08v-2Z" style="fill:#2c5475"/><path d="M43.8,48.27v2a.09.09,0,0,0,.08.08h3a.08.08,0,0,0,.07-.08v-2Z" style="fill:#295273"/><path d="M43.8,48.27v2a.09.09,0,0,0,.08.08h3a.08.08,0,0,0,.07-.08v-2Z" style="fill:#264f72"/><path d="M43.8,48.27v2a.08.08,0,0,0,.08.07h3a.07.07,0,0,0,.08-.07v-2Z" style="fill:#234d70"/><path d="M43.8,48.26v2a.08.08,0,0,0,.08.07h3a.08.08,0,0,0,.08-.07v-2Z" style="fill:#204a6e"/><path d="M43.8,48.26v2a.07.07,0,0,0,.08.07h3a.08.08,0,0,0,.08-.07v-2Z" style="fill:#1d486c"/><path d="M43.8,48.26v2a.07.07,0,0,0,.07.07h3a.08.08,0,0,0,.08-.07v-2Z" style="fill:#1a466a"/><path d="M43.8,48.26v2a.07.07,0,0,0,.07.07h3a.08.08,0,0,0,.08-.07v-2Z" style="fill:#174368"/><path d="M43.8,48.26v2a.07.07,0,0,0,.07.07h3a.07.07,0,0,0,.07-.07v-2Z" style="fill:#144166"/><path d="M43.8,48.26v2a.07.07,0,0,0,.07.07h3a.07.07,0,0,0,.07-.07v-2Z" style="fill:#113e64"/><path d="M43.8,48.26v2a.07.07,0,0,0,.07.07h3a.07.07,0,0,0,.07-.07v-2Z" style="fill:#0e3c62"/></g><g style="mix-blend-mode:multiply"><path d="M47,48.28v-2a.07.07,0,0,0-.07-.07h-3a.07.07,0,0,0-.07.07v2Z" style="fill:#fff"/><path d="M47,48.28v-2a.07.07,0,0,0-.07-.07h-3a.07.07,0,0,0-.07.07v2Z" style="fill:#fcfdfd"/><path d="M47,48.28v-2a.08.08,0,0,0-.07-.08h-3a.08.08,0,0,0-.07.08v2Z" style="fill:#f9fafb"/><path d="M47,48.28v-2a.08.08,0,0,0-.07-.08h-3a.08.08,0,0,0-.07.08v2Z" style="fill:#f6f8f9"/><path d="M47,48.28v-2a.08.08,0,0,0-.07-.08h-3a.08.08,0,0,0-.07.08v2Z" style="fill:#f3f5f7"/><path d="M47,48.28v-2a.07.07,0,0,0-.07-.08h-3a.07.07,0,0,0-.07.08v2Z" style="fill:#f0f3f5"/><path d="M47,48.28v-2a.07.07,0,0,0-.07-.08h-3a.08.08,0,0,0-.08.08v2Z" style="fill:#edf1f3"/><path d="M47,48.28v-2a.07.07,0,0,0-.07-.07h-3a.08.08,0,0,0-.08.07v2Z" style="fill:#eaeef1"/><path d="M47,48.28v-2a.07.07,0,0,0-.08-.07h-3a.08.08,0,0,0-.08.07v2Z" style="fill:#e7ecef"/><path d="M47,48.28v-2a.08.08,0,0,0-.08-.07h-3a.08.08,0,0,0-.08.07v2Z" style="fill:#e4e9ee"/><path d="M47,48.28v-2a.08.08,0,0,0-.08-.07h-3a.07.07,0,0,0-.08.07v2Z" style="fill:#e1e7ec"/><path d="M47,48.28v-2a.08.08,0,0,0-.08-.07h-3a.07.07,0,0,0-.07.07v2Z" style="fill:#dee5ea"/><path d="M47,48.28v-2a.08.08,0,0,0-.08-.07h-3a.07.07,0,0,0-.07.07v2Z" style="fill:#dbe2e8"/><path d="M47,48.28v-2a.07.07,0,0,0-.07-.07h-3a.07.07,0,0,0-.07.07v2Z" style="fill:#d8e0e6"/><path d="M47,48.27v-2a.07.07,0,0,0-.07-.07h-3a.07.07,0,0,0-.07.07v2Z" style="fill:#d5dde4"/><path d="M47,48.27v-2a.08.08,0,0,0-.07-.08h-3a.08.08,0,0,0-.07.08v2Z" style="fill:#d2dbe2"/><path d="M47,48.27v-2a.08.08,0,0,0-.07-.08h-3a.08.08,0,0,0-.07.08v2Z" style="fill:#cfd8e0"/><path d="M47,48.27v-2a.08.08,0,0,0-.07-.08h-3a.08.08,0,0,0-.07.08v2Z" style="fill:#ccd6de"/><path d="M47,48.27v-2a.07.07,0,0,0-.07-.08h-3a.07.07,0,0,0-.07.08v2Z" style="fill:#c9d4dc"/><path d="M47,48.27v-2a.07.07,0,0,0-.07-.08h-3a.08.08,0,0,0-.08.08v2Z" style="fill:#c6d1da"/><path d="M47,48.27v-2a.07.07,0,0,0-.07-.07h-3a.08.08,0,0,0-.08.07v2Z" style="fill:#c3cfd8"/><path d="M47,48.27v-2a.07.07,0,0,0-.08-.07h-3a.08.08,0,0,0-.08.07v2Z" style="fill:#c1ccd6"/><path d="M47,48.27v-2a.08.08,0,0,0-.08-.07h-3a.08.08,0,0,0-.08.07v2Z" style="fill:#becad4"/><path d="M47,48.27v-2a.08.08,0,0,0-.08-.07h-3a.07.07,0,0,0-.08.07v2Z" style="fill:#bbc8d2"/><path d="M47,48.27v-2a.08.08,0,0,0-.08-.07h-3a.07.07,0,0,0-.07.07v2Z" style="fill:#b8c5d0"/><path d="M47,48.27v-2a.08.08,0,0,0-.08-.07h-3a.07.07,0,0,0-.07.07v2Z" style="fill:#b5c3cf"/><path d="M47,48.27v-2a.07.07,0,0,0-.07-.07h-3a.07.07,0,0,0-.07.07v2Z" style="fill:#b2c0cd"/><path d="M47,48.26v-2a.07.07,0,0,0-.07-.07h-3a.07.07,0,0,0-.07.07v2Z" style="fill:#afbecb"/><path d="M47,48.26v-2a.08.08,0,0,0-.07-.08h-3a.08.08,0,0,0-.07.08v2Z" style="fill:#acbcc9"/><path d="M47,48.26v-2a.08.08,0,0,0-.07-.08h-3a.08.08,0,0,0-.07.08v2Z" style="fill:#a9b9c7"/><path d="M47,48.26v-2a.08.08,0,0,0-.07-.08h-3a.08.08,0,0,0-.07.08v2Z" style="fill:#a6b7c5"/><path d="M47,48.26v-2a.08.08,0,0,0-.07-.08h-3a.08.08,0,0,0-.07.08v2Z" style="fill:#a3b4c3"/><path d="M47,48.26v-2a.07.07,0,0,0-.07-.08h-3a.08.08,0,0,0-.08.08v2Z" style="fill:#a0b2c1"/><path d="M47,48.26v-2a.07.07,0,0,0-.07-.07h-3a.08.08,0,0,0-.08.07v2Z" style="fill:#9db0bf"/><path d="M47,48.26v-2a.07.07,0,0,0-.07-.07h-3a.08.08,0,0,0-.08.07v2Z" style="fill:#9aadbd"/><path d="M47,48.26v-2a.07.07,0,0,0-.08-.07h-3a.08.08,0,0,0-.08.07v2Z" style="fill:#97abbb"/><path d="M47,48.26v-2a.08.08,0,0,0-.08-.07h-3a.07.07,0,0,0-.08.07v2Z" style="fill:#94a8b9"/><path d="M47,48.26v-2a.08.08,0,0,0-.08-.07h-3a.07.07,0,0,0-.07.07v2Z" style="fill:#91a6b7"/><path d="M47,48.26v-2a.08.08,0,0,0-.08-.07h-3a.07.07,0,0,0-.07.07v2Z" style="fill:#8ea4b5"/><path d="M47,48.26v-2a.08.08,0,0,0-.08-.07h-3a.07.07,0,0,0-.07.07v2Z" style="fill:#8ba1b3"/><path d="M46.94,48.25v-2a.07.07,0,0,0-.07-.07h-3a.07.07,0,0,0-.07.07v2Z" style="fill:#889fb1"/><path d="M46.94,48.25v-2a.08.08,0,0,0-.07-.08h-3a.08.08,0,0,0-.07.08v2Z" style="fill:#859cb0"/><path d="M46.94,48.25v-2a.08.08,0,0,0-.07-.08h-3a.08.08,0,0,0-.07.08v2Z" style="fill:#829aae"/><path d="M46.94,48.25v-2a.08.08,0,0,0-.07-.08h-3a.08.08,0,0,0-.07.08v2Z" style="fill:#7f97ac"/><path d="M46.94,48.25v-2a.08.08,0,0,0-.07-.08h-3a.08.08,0,0,0-.07.08v2Z" style="fill:#7c95aa"/><path d="M46.94,48.25v-2a.07.07,0,0,0-.07-.08h-3a.08.08,0,0,0-.08.08v2Z" style="fill:#7993a8"/><path d="M46.94,48.25v-2a.07.07,0,0,0-.07-.07h-3a.08.08,0,0,0-.08.07v2Z" style="fill:#7690a6"/><path d="M46.94,48.25v-2a.07.07,0,0,0-.07-.07h-3a.08.08,0,0,0-.08.07v2Z" style="fill:#738ea4"/><path d="M46.94,48.25v-2a.07.07,0,0,0-.08-.07h-3a.08.08,0,0,0-.08.07v2Z" style="fill:#708ba2"/><path d="M46.94,48.25v-2a.08.08,0,0,0-.08-.07h-3a.07.07,0,0,0-.08.07v2Z" style="fill:#6d89a0"/><path d="M46.94,48.25v-2a.08.08,0,0,0-.08-.07h-3a.07.07,0,0,0-.08.07v2Z" style="fill:#6a879e"/><path d="M46.94,48.25v-2a.08.08,0,0,0-.08-.07h-3a.07.07,0,0,0-.07.07v2Z" style="fill:#67849c"/><path d="M46.94,48.25v-2a.08.08,0,0,0-.08-.07h-3a.07.07,0,0,0-.07.07v2Z" style="fill:#64829a"/><path d="M46.93,48.24v-2a.07.07,0,0,0-.07-.07h-3a.07.07,0,0,0-.07.07v2Z" style="fill:#617f98"/><path d="M46.93,48.24v-2a.08.08,0,0,0-.07-.08h-3a.08.08,0,0,0-.07.08v2Z" style="fill:#5e7d96"/><path d="M46.93,48.24v-2a.08.08,0,0,0-.07-.08h-3a.08.08,0,0,0-.07.08v2Z" style="fill:#5b7b94"/><path d="M46.93,48.24v-2a.08.08,0,0,0-.07-.08h-3a.08.08,0,0,0-.07.08v2Z" style="fill:#587892"/><path d="M46.93,48.24v-2a.08.08,0,0,0-.07-.08h-3a.08.08,0,0,0-.07.08v2Z" style="fill:#557691"/><path d="M46.93,48.24v-2a.07.07,0,0,0-.07-.08h-3a.07.07,0,0,0-.07.08v2Z" style="fill:#52738f"/><path d="M46.93,48.24v-2a.07.07,0,0,0-.07-.07h-3a.08.08,0,0,0-.08.07v2Z" style="fill:#4f718d"/><path d="M46.93,48.24v-2a.07.07,0,0,0-.07-.07h-3a.08.08,0,0,0-.08.07v2Z" style="fill:#4c6f8b"/><path d="M46.93,48.24v-2a.07.07,0,0,0-.08-.07h-3a.08.08,0,0,0-.08.07v2Z" style="fill:#4a6c89"/><path d="M46.93,48.24v-2a.08.08,0,0,0-.08-.07h-3a.08.08,0,0,0-.08.07v2Z" style="fill:#476a87"/><path d="M46.93,48.24v-2a.08.08,0,0,0-.08-.07h-3a.07.07,0,0,0-.08.07v2Z" style="fill:#446785"/><path d="M46.93,48.24v-2a.08.08,0,0,0-.08-.07h-3a.07.07,0,0,0-.07.07v2Z" style="fill:#416583"/><path d="M46.93,48.24v-2a.08.08,0,0,0-.08-.07h-3a.07.07,0,0,0-.07.07v2Z" style="fill:#3e6381"/><path d="M46.92,48.23v-2a.07.07,0,0,0-.07-.07h-3a.07.07,0,0,0-.07.07v2Z" style="fill:#3b607f"/><path d="M46.92,48.23v-2a.08.08,0,0,0-.07-.08h-3a.08.08,0,0,0-.07.08v2Z" style="fill:#385e7d"/><path d="M46.92,48.23v-2a.08.08,0,0,0-.07-.08h-3a.08.08,0,0,0-.07.08v2Z" style="fill:#355b7b"/><path d="M46.92,48.23v-2a.08.08,0,0,0-.07-.08h-3a.08.08,0,0,0-.07.08v2Z" style="fill:#325979"/><path d="M46.92,48.23v-2a.08.08,0,0,0-.07-.08h-3a.08.08,0,0,0-.07.08v2Z" style="fill:#2f5677"/><path d="M46.92,48.23v-2a.07.07,0,0,0-.07-.08h-3a.07.07,0,0,0-.07.08v2Z" style="fill:#2c5475"/><path d="M46.92,48.23v-2a.07.07,0,0,0-.07-.08h-3a.08.08,0,0,0-.08.08v2Z" style="fill:#295273"/><path d="M46.92,48.23v-2a.07.07,0,0,0-.07-.07h-3a.08.08,0,0,0-.08.07v2Z" style="fill:#264f72"/><path d="M46.92,48.23v-2a.07.07,0,0,0-.08-.07h-3a.08.08,0,0,0-.08.07v2Z" style="fill:#234d70"/><path d="M46.92,48.23v-2a.08.08,0,0,0-.08-.07h-3a.08.08,0,0,0-.08.07v2Z" style="fill:#204a6e"/><path d="M46.92,48.23v-2a.08.08,0,0,0-.08-.07h-3a.07.07,0,0,0-.08.07v2Z" style="fill:#1d486c"/><path d="M46.92,48.23v-2a.08.08,0,0,0-.08-.07h-3a.07.07,0,0,0-.07.07v2Z" style="fill:#1a466a"/><path d="M46.92,48.23v-2a.08.08,0,0,0-.08-.07h-3a.07.07,0,0,0-.07.07v2Z" style="fill:#174368"/><path d="M46.91,48.22v-2a.07.07,0,0,0-.07-.07h-3a.07.07,0,0,0-.07.07v2Z" style="fill:#144166"/><path d="M46.91,48.22v-2a.08.08,0,0,0-.07-.08h-3a.08.08,0,0,0-.07.08v2Z" style="fill:#113e64"/><path d="M46.91,48.22v-2a.08.08,0,0,0-.07-.08h-3a.08.08,0,0,0-.07.08v2Z" style="fill:#0e3c62"/></g><g style="clip-path:url(#w)"><path d="M44.46,49.89v-.12c0-.07,0-.05,0-.1A13.73,13.73,0,0,0,45.91,48a.92.92,0,0,0,0-1c-.32-.35-.88-.15-1.21.11-.05.06-.05.07-.05,0v-.13c0-.06,0,0,0-.09A.94.94,0,0,1,46.11,48a12.18,12.18,0,0,1-1.4,1.69s0,0,0,0H46.2s0,0,0,0v.12c0,.05,0,0,0,0H44.52c-.07,0-.06,0-.06,0Z" style="fill:#d7d6eb"/><path d="M44.45,49.88v-.12c0-.07,0,0,0-.1A13.68,13.68,0,0,0,45.9,48a1,1,0,0,0,0-1c-.32-.34-.89-.15-1.21.12,0,.05,0,.07,0,0V46.9c0-.06,0,0,0-.09a1.09,1.09,0,0,1,1.38,0A1.1,1.1,0,0,1,46.1,48a12.15,12.15,0,0,1-1.41,1.69s0,0,0,0h1.48c.05,0,0,0,0,0v.11s0,0,0,0H44.5c-.06,0,0,0,0,0Z" style="fill:#fdfdfe"/><path d="M44.45,49.88v-.11c0-.07,0-.05,0-.11A12.08,12.08,0,0,0,45.9,48a.93.93,0,0,0,0-1c-.33-.35-.89-.15-1.21.12-.06.05-.05.07-.05,0v-.12c0-.07,0-.06,0-.1A.94.94,0,0,1,46.1,48a12.11,12.11,0,0,1-1.4,1.68s0,0,0,0H46.2s0,0,0,0v.12s0,0,0,0H44.51c-.06,0-.06,0-.06,0Z" style="fill:url(#x)"/></g><g style="clip-path:url(#y)"><path d="M44.46,49.89v-.12c0-.07,0-.05,0-.1A13.73,13.73,0,0,0,45.91,48a.92.92,0,0,0,0-1c-.32-.35-.88-.15-1.21.11-.05.06-.05.07-.05,0v-.13c0-.06,0,0,0-.09A.94.94,0,0,1,46.11,48a12.18,12.18,0,0,1-1.4,1.69s0,0,0,0H46.2s0,0,0,0v.12c0,.05,0,0,0,0H44.52c-.07,0-.06,0-.06,0Z" style="fill:#d7d6eb"/><path d="M44.45,49.88v-.12c0-.07,0,0,0-.1A13.68,13.68,0,0,0,45.9,48a1,1,0,0,0,0-1c-.32-.34-.89-.15-1.21.12,0,.05,0,.07,0,0V46.9c0-.06,0,0,0-.09a1.09,1.09,0,0,1,1.38,0A1.1,1.1,0,0,1,46.1,48a12.15,12.15,0,0,1-1.41,1.69s0,0,0,0h1.48c.05,0,0,0,0,0v.11s0,0,0,0H44.5c-.06,0,0,0,0,0Z" style="fill:#fdfdfe"/><path d="M44.45,49.88v-.11c0-.07,0-.05,0-.11A12.08,12.08,0,0,0,45.9,48a.93.93,0,0,0,0-1c-.33-.35-.89-.15-1.21.12-.06.05-.05.07-.05,0v-.12c0-.07,0-.06,0-.1A.94.94,0,0,1,46.1,48a12.11,12.11,0,0,1-1.4,1.68s0,0,0,0H46.2s0,0,0,0v.12s0,0,0,0H44.51c-.06,0-.06,0-.06,0Z" style="fill:url(#x)"/></g></g><rect x="47.41" y="45.79" width="4.91" height="4.91" style="fill:#e9f5ff"/><g style="clip-path:url(#aa)"><g style="mix-blend-mode:multiply"><path d="M48.36,48.32v2a.08.08,0,0,0,.08.07h3a.08.08,0,0,0,.08-.07v-2Z" style="fill:#fff"/><path d="M48.36,48.32v2a.07.07,0,0,0,.08.07h3a.08.08,0,0,0,.08-.07v-2Z" style="fill:#fcfdfd"/><path d="M48.36,48.32v2a.07.07,0,0,0,.07.07h3a.08.08,0,0,0,.08-.07v-2Z" style="fill:#f9fafb"/><path d="M48.36,48.32v2a.07.07,0,0,0,.07.08h3a.08.08,0,0,0,.08-.08v-2Z" style="fill:#f6f8f9"/><path d="M48.36,48.32v2a.08.08,0,0,0,.07.08h3a.08.08,0,0,0,.07-.08v-2Z" style="fill:#f3f5f7"/><path d="M48.36,48.32v2a.08.08,0,0,0,.07.08h3a.08.08,0,0,0,.07-.08v-2Z" style="fill:#f0f3f5"/><path d="M48.36,48.32v2a.08.08,0,0,0,.07.08h3a.08.08,0,0,0,.07-.08v-2Z" style="fill:#edf1f3"/><path d="M48.36,48.32v2a.08.08,0,0,0,.07.08h3a.08.08,0,0,0,.07-.08v-2Z" style="fill:#eaeef1"/><path d="M48.36,48.32v2a.07.07,0,0,0,.07.07h3a.07.07,0,0,0,.07-.07v-2Z" style="fill:#e7ecef"/><path d="M48.36,48.31v2a.07.07,0,0,0,.07.07h3a.07.07,0,0,0,.07-.07v-2Z" style="fill:#e4e9ee"/><path d="M48.35,48.31v2a.08.08,0,0,0,.08.07h3a.07.07,0,0,0,.07-.07v-2Z" style="fill:#e1e7ec"/><path d="M48.35,48.31v2a.08.08,0,0,0,.08.07h3a.07.07,0,0,0,.07-.07v-2Z" style="fill:#dee5ea"/><path d="M48.35,48.31v2a.08.08,0,0,0,.08.07h3a.07.07,0,0,0,.08-.07v-2Z" style="fill:#dbe2e8"/><path d="M48.35,48.31v2a.08.08,0,0,0,.08.07h3a.08.08,0,0,0,.08-.07v-2Z" style="fill:#d8e0e6"/><path d="M48.35,48.31v2a.07.07,0,0,0,.08.07h3a.08.08,0,0,0,.08-.07v-2Z" style="fill:#d5dde4"/><path d="M48.35,48.31v2a.07.07,0,0,0,.07.07h3a.08.08,0,0,0,.08-.07v-2Z" style="fill:#d2dbe2"/><path d="M48.35,48.31v2a.07.07,0,0,0,.07.08h3a.08.08,0,0,0,.08-.08v-2Z" style="fill:#cfd8e0"/><path d="M48.35,48.31v2a.08.08,0,0,0,.07.08h3a.08.08,0,0,0,.07-.08v-2Z" style="fill:#ccd6de"/><path d="M48.35,48.31v2a.08.08,0,0,0,.07.08h3a.08.08,0,0,0,.07-.08v-2Z" style="fill:#c9d4dc"/><path d="M48.35,48.31v2a.08.08,0,0,0,.07.08h3a.08.08,0,0,0,.07-.08v-2Z" style="fill:#c6d1da"/><path d="M48.35,48.31v2a.08.08,0,0,0,.07.08h3a.08.08,0,0,0,.07-.08v-2Z" style="fill:#c3cfd8"/><path d="M48.35,48.31v2a.07.07,0,0,0,.07.07h3a.07.07,0,0,0,.07-.07v-2Z" style="fill:#c1ccd6"/><path d="M48.35,48.3v2a.07.07,0,0,0,.07.07h3a.07.07,0,0,0,.07-.07v-2Z" style="fill:#becad4"/><path d="M48.34,48.3v2a.08.08,0,0,0,.08.07h3a.07.07,0,0,0,.07-.07v-2Z" style="fill:#bbc8d2"/><path d="M48.34,48.3v2a.08.08,0,0,0,.08.07h3a.07.07,0,0,0,.07-.07v-2Z" style="fill:#b8c5d0"/><path d="M48.34,48.3v2a.08.08,0,0,0,.08.07h3a.07.07,0,0,0,.08-.07v-2Z" style="fill:#b5c3cf"/><path d="M48.34,48.3v2a.08.08,0,0,0,.08.07h3a.08.08,0,0,0,.08-.07v-2Z" style="fill:#b2c0cd"/><path d="M48.34,48.3v2a.07.07,0,0,0,.08.07h3a.08.08,0,0,0,.08-.07v-2Z" style="fill:#afbecb"/><path d="M48.34,48.3v2a.07.07,0,0,0,.07.07h3a.08.08,0,0,0,.08-.07v-2Z" style="fill:#acbcc9"/><path d="M48.34,48.3v2a.07.07,0,0,0,.07.08h3a.08.08,0,0,0,.08-.08v-2Z" style="fill:#a9b9c7"/><path d="M48.34,48.3v2a.08.08,0,0,0,.07.08h3a.08.08,0,0,0,.07-.08v-2Z" style="fill:#a6b7c5"/><path d="M48.34,48.3v2a.08.08,0,0,0,.07.08h3a.08.08,0,0,0,.07-.08v-2Z" style="fill:#a3b4c3"/><path d="M48.34,48.3v2a.08.08,0,0,0,.07.08h3a.08.08,0,0,0,.07-.08v-2Z" style="fill:#a0b2c1"/><path d="M48.34,48.3v2a.08.08,0,0,0,.07.08h3a.08.08,0,0,0,.07-.08v-2Z" style="fill:#9db0bf"/><path d="M48.34,48.3v2a.07.07,0,0,0,.07.07h3a.07.07,0,0,0,.07-.07v-2Z" style="fill:#9aadbd"/><path d="M48.34,48.3v2a.07.07,0,0,0,.07.07h3a.07.07,0,0,0,.07-.07v-2Z" style="fill:#97abbb"/><path d="M48.33,48.29v2a.08.08,0,0,0,.08.07h3a.07.07,0,0,0,.07-.07v-2Z" style="fill:#94a8b9"/><path d="M48.33,48.29v2a.08.08,0,0,0,.08.07h3a.07.07,0,0,0,.07-.07v-2Z" style="fill:#91a6b7"/><path d="M48.33,48.29v2a.08.08,0,0,0,.08.07h3a.07.07,0,0,0,.08-.07v-2Z" style="fill:#8ea4b5"/><path d="M48.33,48.29v2a.08.08,0,0,0,.08.07h3a.08.08,0,0,0,.08-.07v-2Z" style="fill:#8ba1b3"/><path d="M48.33,48.29v2a.07.07,0,0,0,.08.07h3a.08.08,0,0,0,.08-.07v-2Z" style="fill:#889fb1"/><path d="M48.33,48.29v2a.07.07,0,0,0,.07.07h3a.08.08,0,0,0,.08-.07v-2Z" style="fill:#859cb0"/><path d="M48.33,48.29v2a.07.07,0,0,0,.07.08h3a.08.08,0,0,0,.08-.08v-2Z" style="fill:#829aae"/><path d="M48.33,48.29v2a.08.08,0,0,0,.07.08h3a.08.08,0,0,0,.07-.08v-2Z" style="fill:#7f97ac"/><path d="M48.33,48.29v2a.08.08,0,0,0,.07.08h3a.08.08,0,0,0,.07-.08v-2Z" style="fill:#7c95aa"/><path d="M48.33,48.29v2a.08.08,0,0,0,.07.08h3a.08.08,0,0,0,.07-.08v-2Z" style="fill:#7993a8"/><path d="M48.33,48.29v2a.08.08,0,0,0,.07.08h3a.08.08,0,0,0,.07-.08v-2Z" style="fill:#7690a6"/><path d="M48.33,48.29v2a.08.08,0,0,0,.07.08h3a.08.08,0,0,0,.07-.08v-2Z" style="fill:#738ea4"/><path d="M48.33,48.29v2a.07.07,0,0,0,.07.07h3a.07.07,0,0,0,.07-.07v-2Z" style="fill:#708ba2"/><path d="M48.32,48.28v2a.08.08,0,0,0,.08.07h3a.07.07,0,0,0,.07-.07v-2Z" style="fill:#6d89a0"/><path d="M48.32,48.28v2a.08.08,0,0,0,.08.07h3a.07.07,0,0,0,.07-.07v-2Z" style="fill:#6a879e"/><path d="M48.32,48.28v2a.08.08,0,0,0,.08.07h3a.07.07,0,0,0,.08-.07v-2Z" style="fill:#67849c"/><path d="M48.32,48.28v2a.08.08,0,0,0,.08.07h3a.07.07,0,0,0,.08-.07v-2Z" style="fill:#64829a"/><path d="M48.32,48.28v2a.07.07,0,0,0,.08.07h3a.08.08,0,0,0,.08-.07v-2Z" style="fill:#617f98"/><path d="M48.32,48.28v2a.07.07,0,0,0,.07.07h3a.08.08,0,0,0,.08-.07v-2Z" style="fill:#5e7d96"/><path d="M48.32,48.28v2a.07.07,0,0,0,.07.08h3a.08.08,0,0,0,.08-.08v-2Z" style="fill:#5b7b94"/><path d="M48.32,48.28v2a.07.07,0,0,0,.07.08h3a.07.07,0,0,0,.07-.08v-2Z" style="fill:#587892"/><path d="M48.32,48.28v2a.08.08,0,0,0,.07.08h3a.08.08,0,0,0,.07-.08v-2Z" style="fill:#557691"/><path d="M48.32,48.28v2a.08.08,0,0,0,.07.08h3a.08.08,0,0,0,.07-.08v-2Z" style="fill:#52738f"/><path d="M48.32,48.28v2a.08.08,0,0,0,.07.08h3a.08.08,0,0,0,.07-.08v-2Z" style="fill:#4f718d"/><path d="M48.32,48.28v2a.08.08,0,0,0,.07.08h3a.08.08,0,0,0,.07-.08v-2Z" style="fill:#4c6f8b"/><path d="M48.32,48.28v2a.07.07,0,0,0,.07.07h3a.07.07,0,0,0,.07-.07v-2Z" style="fill:#4a6c89"/><path d="M48.31,48.27v2a.08.08,0,0,0,.08.07h3a.07.07,0,0,0,.07-.07v-2Z" style="fill:#476a87"/><path d="M48.31,48.27v2a.08.08,0,0,0,.08.07h3a.07.07,0,0,0,.07-.07v-2Z" style="fill:#446785"/><path d="M48.31,48.27v2a.08.08,0,0,0,.08.07h3a.07.07,0,0,0,.08-.07v-2Z" style="fill:#416583"/><path d="M48.31,48.27v2a.08.08,0,0,0,.08.07h3a.07.07,0,0,0,.08-.07v-2Z" style="fill:#3e6381"/><path d="M48.31,48.27v2a.07.07,0,0,0,.08.07h3a.08.08,0,0,0,.08-.07v-2Z" style="fill:#3b607f"/><path d="M48.31,48.27v2a.07.07,0,0,0,.07.07h3a.08.08,0,0,0,.08-.07v-2Z" style="fill:#385e7d"/><path d="M48.31,48.27v2a.07.07,0,0,0,.07.07h3a.08.08,0,0,0,.08-.07v-2Z" style="fill:#355b7b"/><path d="M48.31,48.27v2a.07.07,0,0,0,.07.08h3a.07.07,0,0,0,.07-.08v-2Z" style="fill:#325979"/><path d="M48.31,48.27v2a.08.08,0,0,0,.07.08h3a.08.08,0,0,0,.07-.08v-2Z" style="fill:#2f5677"/><path d="M48.31,48.27v2a.08.08,0,0,0,.07.08h3a.08.08,0,0,0,.07-.08v-2Z" style="fill:#2c5475"/><path d="M48.31,48.27v2a.08.08,0,0,0,.07.08h3a.08.08,0,0,0,.07-.08v-2Z" style="fill:#295273"/><path d="M48.31,48.27v2a.08.08,0,0,0,.07.08h3a.08.08,0,0,0,.07-.08v-2Z" style="fill:#264f72"/><path d="M48.31,48.27v2a.07.07,0,0,0,.07.07h3a.07.07,0,0,0,.07-.07v-2Z" style="fill:#234d70"/><path d="M48.3,48.26v2a.08.08,0,0,0,.08.07h3a.07.07,0,0,0,.07-.07v-2Z" style="fill:#204a6e"/><path d="M48.3,48.26v2a.08.08,0,0,0,.08.07h3a.07.07,0,0,0,.07-.07v-2Z" style="fill:#1d486c"/><path d="M48.3,48.26v2a.08.08,0,0,0,.08.07h3a.07.07,0,0,0,.08-.07v-2Z" style="fill:#1a466a"/><path d="M48.3,48.26v2a.08.08,0,0,0,.08.07h3a.07.07,0,0,0,.08-.07v-2Z" style="fill:#174368"/><path d="M48.3,48.26v2a.07.07,0,0,0,.08.07h3a.08.08,0,0,0,.08-.07v-2Z" style="fill:#144166"/><path d="M48.3,48.26v2a.07.07,0,0,0,.08.07h3a.08.08,0,0,0,.08-.07v-2Z" style="fill:#113e64"/><path d="M48.3,48.26v2a.07.07,0,0,0,.07.07h3a.08.08,0,0,0,.08-.07v-2Z" style="fill:#0e3c62"/></g><g style="mix-blend-mode:multiply"><path d="M51.48,48.28v-2a.08.08,0,0,0-.08-.07h-3a.08.08,0,0,0-.08.07v2Z" style="fill:#fff"/><path d="M51.48,48.28v-2a.08.08,0,0,0-.08-.07h-3a.07.07,0,0,0-.08.07v2Z" style="fill:#fcfdfd"/><path d="M51.48,48.28v-2a.09.09,0,0,0-.08-.08h-3a.08.08,0,0,0-.07.08v2Z" style="fill:#f9fafb"/><path d="M51.48,48.28v-2a.09.09,0,0,0-.08-.08h-3a.08.08,0,0,0-.07.08v2Z" style="fill:#f6f8f9"/><path d="M51.47,48.28v-2a.08.08,0,0,0-.07-.08h-3a.08.08,0,0,0-.07.08v2Z" style="fill:#f3f5f7"/><path d="M51.47,48.28v-2a.07.07,0,0,0-.07-.08h-3a.07.07,0,0,0-.07.08v2Z" style="fill:#f0f3f5"/><path d="M51.47,48.28v-2a.07.07,0,0,0-.07-.08h-3a.07.07,0,0,0-.07.08v2Z" style="fill:#edf1f3"/><path d="M51.47,48.28v-2a.07.07,0,0,0-.07-.07h-3a.07.07,0,0,0-.07.07v2Z" style="fill:#eaeef1"/><path d="M51.47,48.28v-2a.07.07,0,0,0-.07-.07h-3a.07.07,0,0,0-.07.07v2Z" style="fill:#e7ecef"/><path d="M51.47,48.28v-2a.07.07,0,0,0-.07-.07h-3a.07.07,0,0,0-.07.07v2Z" style="fill:#e4e9ee"/><path d="M51.47,48.28v-2a.07.07,0,0,0-.07-.07h-3a.08.08,0,0,0-.08.07v2Z" style="fill:#e1e7ec"/><path d="M51.47,48.28v-2a.07.07,0,0,0-.07-.07h-3a.08.08,0,0,0-.08.07v2Z" style="fill:#dee5ea"/><path d="M51.47,48.28v-2a.07.07,0,0,0-.08-.07h-3a.08.08,0,0,0-.08.07v2Z" style="fill:#dbe2e8"/><path d="M51.47,48.28v-2a.08.08,0,0,0-.08-.07h-3a.08.08,0,0,0-.08.07v2Z" style="fill:#d8e0e6"/><path d="M51.47,48.27v-2a.08.08,0,0,0-.08-.07h-3a.07.07,0,0,0-.08.07v2Z" style="fill:#d5dde4"/><path d="M51.47,48.27v-2a.09.09,0,0,0-.08-.08h-3a.08.08,0,0,0-.07.08v2Z" style="fill:#d2dbe2"/><path d="M51.47,48.27v-2a.09.09,0,0,0-.08-.08h-3a.08.08,0,0,0-.07.08v2Z" style="fill:#cfd8e0"/><path d="M51.46,48.27v-2a.08.08,0,0,0-.07-.08h-3a.08.08,0,0,0-.07.08v2Z" style="fill:#ccd6de"/><path d="M51.46,48.27v-2a.07.07,0,0,0-.07-.08h-3a.07.07,0,0,0-.07.08v2Z" style="fill:#c9d4dc"/><path d="M51.46,48.27v-2a.07.07,0,0,0-.07-.08h-3a.07.07,0,0,0-.07.08v2Z" style="fill:#c6d1da"/><path d="M51.46,48.27v-2a.07.07,0,0,0-.07-.07h-3a.07.07,0,0,0-.07.07v2Z" style="fill:#c3cfd8"/><path d="M51.46,48.27v-2a.07.07,0,0,0-.07-.07h-3a.07.07,0,0,0-.07.07v2Z" style="fill:#c1ccd6"/><path d="M51.46,48.27v-2a.07.07,0,0,0-.07-.07h-3a.07.07,0,0,0-.07.07v2Z" style="fill:#becad4"/><path d="M51.46,48.27v-2a.07.07,0,0,0-.07-.07h-3a.08.08,0,0,0-.08.07v2Z" style="fill:#bbc8d2"/><path d="M51.46,48.27v-2a.07.07,0,0,0-.07-.07h-3a.08.08,0,0,0-.08.07v2Z" style="fill:#b8c5d0"/><path d="M51.46,48.27v-2a.07.07,0,0,0-.08-.07h-3a.08.08,0,0,0-.08.07v2Z" style="fill:#b5c3cf"/><path d="M51.46,48.27v-2a.08.08,0,0,0-.08-.07h-3a.08.08,0,0,0-.08.07v2Z" style="fill:#b2c0cd"/><path d="M51.46,48.26v-2a.08.08,0,0,0-.08-.07h-3a.07.07,0,0,0-.08.07v2Z" style="fill:#afbecb"/><path d="M51.46,48.26v-2a.09.09,0,0,0-.08-.08h-3a.08.08,0,0,0-.07.08v2Z" style="fill:#acbcc9"/><path d="M51.46,48.26v-2a.09.09,0,0,0-.08-.08h-3a.08.08,0,0,0-.07.08v2Z" style="fill:#a9b9c7"/><path d="M51.45,48.26v-2a.08.08,0,0,0-.07-.08h-3a.08.08,0,0,0-.07.08v2Z" style="fill:#a6b7c5"/><path d="M51.45,48.26v-2a.08.08,0,0,0-.07-.08h-3a.08.08,0,0,0-.07.08v2Z" style="fill:#a3b4c3"/><path d="M51.45,48.26v-2a.07.07,0,0,0-.07-.08h-3a.07.07,0,0,0-.07.08v2Z" style="fill:#a0b2c1"/><path d="M51.45,48.26v-2a.07.07,0,0,0-.07-.07h-3a.07.07,0,0,0-.07.07v2Z" style="fill:#9db0bf"/><path d="M51.45,48.26v-2a.07.07,0,0,0-.07-.07h-3a.07.07,0,0,0-.07.07v2Z" style="fill:#9aadbd"/><path d="M51.45,48.26v-2a.07.07,0,0,0-.07-.07h-3a.07.07,0,0,0-.07.07v2Z" style="fill:#97abbb"/><path d="M51.45,48.26v-2a.07.07,0,0,0-.07-.07h-3a.08.08,0,0,0-.08.07v2Z" style="fill:#94a8b9"/><path d="M51.45,48.26v-2a.07.07,0,0,0-.07-.07h-3a.08.08,0,0,0-.08.07v2Z" style="fill:#91a6b7"/><path d="M51.45,48.26v-2a.07.07,0,0,0-.08-.07h-3a.08.08,0,0,0-.08.07v2Z" style="fill:#8ea4b5"/><path d="M51.45,48.26v-2a.08.08,0,0,0-.08-.07h-3a.08.08,0,0,0-.08.07v2Z" style="fill:#8ba1b3"/><path d="M51.45,48.25v-2a.08.08,0,0,0-.08-.07h-3a.07.07,0,0,0-.08.07v2Z" style="fill:#889fb1"/><path d="M51.45,48.25v-2a.09.09,0,0,0-.08-.08h-3a.08.08,0,0,0-.07.08v2Z" style="fill:#859cb0"/><path d="M51.45,48.25v-2a.09.09,0,0,0-.08-.08h-3a.08.08,0,0,0-.07.08v2Z" style="fill:#829aae"/><path d="M51.44,48.25v-2a.08.08,0,0,0-.07-.08h-3a.08.08,0,0,0-.07.08v2Z" style="fill:#7f97ac"/><path d="M51.44,48.25v-2a.08.08,0,0,0-.07-.08h-3a.08.08,0,0,0-.07.08v2Z" style="fill:#7c95aa"/><path d="M51.44,48.25v-2a.07.07,0,0,0-.07-.08h-3a.07.07,0,0,0-.07.08v2Z" style="fill:#7993a8"/><path d="M51.44,48.25v-2a.07.07,0,0,0-.07-.07h-3a.07.07,0,0,0-.07.07v2Z" style="fill:#7690a6"/><path d="M51.44,48.25v-2a.07.07,0,0,0-.07-.07h-3a.07.07,0,0,0-.07.07v2Z" style="fill:#738ea4"/><path d="M51.44,48.25v-2a.07.07,0,0,0-.07-.07h-3a.07.07,0,0,0-.07.07v2Z" style="fill:#708ba2"/><path d="M51.44,48.25v-2a.07.07,0,0,0-.07-.07h-3a.08.08,0,0,0-.08.07v2Z" style="fill:#6d89a0"/><path d="M51.44,48.25v-2a.07.07,0,0,0-.07-.07h-3a.08.08,0,0,0-.08.07v2Z" style="fill:#6a879e"/><path d="M51.44,48.25v-2a.07.07,0,0,0-.08-.07h-3a.08.08,0,0,0-.08.07v2Z" style="fill:#67849c"/><path d="M51.44,48.25v-2a.07.07,0,0,0-.08-.07h-3a.08.08,0,0,0-.08.07v2Z" style="fill:#64829a"/><path d="M51.44,48.24v-2a.08.08,0,0,0-.08-.07h-3a.07.07,0,0,0-.08.07v2Z" style="fill:#617f98"/><path d="M51.44,48.24v-2a.09.09,0,0,0-.08-.08h-3a.08.08,0,0,0-.07.08v2Z" style="fill:#5e7d96"/><path d="M51.44,48.24v-2a.09.09,0,0,0-.08-.08h-3a.08.08,0,0,0-.07.08v2Z" style="fill:#5b7b94"/><path d="M51.43,48.24v-2a.08.08,0,0,0-.07-.08h-3a.08.08,0,0,0-.07.08v2Z" style="fill:#587892"/><path d="M51.43,48.24v-2a.08.08,0,0,0-.07-.08h-3a.08.08,0,0,0-.07.08v2Z" style="fill:#557691"/><path d="M51.43,48.24v-2a.07.07,0,0,0-.07-.08h-3a.07.07,0,0,0-.07.08v2Z" style="fill:#52738f"/><path d="M51.43,48.24v-2a.07.07,0,0,0-.07-.07h-3a.07.07,0,0,0-.07.07v2Z" style="fill:#4f718d"/><path d="M51.43,48.24v-2a.07.07,0,0,0-.07-.07h-3a.07.07,0,0,0-.07.07v2Z" style="fill:#4c6f8b"/><path d="M51.43,48.24v-2a.07.07,0,0,0-.07-.07h-3a.07.07,0,0,0-.07.07v2Z" style="fill:#4a6c89"/><path d="M51.43,48.24v-2a.07.07,0,0,0-.07-.07h-3a.08.08,0,0,0-.08.07v2Z" style="fill:#476a87"/><path d="M51.43,48.24v-2a.07.07,0,0,0-.07-.07h-3a.08.08,0,0,0-.08.07v2Z" style="fill:#446785"/><path d="M51.43,48.24v-2a.07.07,0,0,0-.08-.07h-3a.08.08,0,0,0-.08.07v2Z" style="fill:#416583"/><path d="M51.43,48.24v-2a.07.07,0,0,0-.08-.07h-3a.08.08,0,0,0-.08.07v2Z" style="fill:#3e6381"/><path d="M51.43,48.23v-2a.08.08,0,0,0-.08-.07h-3a.07.07,0,0,0-.08.07v2Z" style="fill:#3b607f"/><path d="M51.43,48.23v-2a.09.09,0,0,0-.08-.08h-3a.08.08,0,0,0-.07.08v2Z" style="fill:#385e7d"/><path d="M51.43,48.23v-2a.09.09,0,0,0-.08-.08h-3a.08.08,0,0,0-.07.08v2Z" style="fill:#355b7b"/><path d="M51.42,48.23v-2a.08.08,0,0,0-.07-.08h-3a.08.08,0,0,0-.07.08v2Z" style="fill:#325979"/><path d="M51.42,48.23v-2a.08.08,0,0,0-.07-.08h-3a.08.08,0,0,0-.07.08v2Z" style="fill:#2f5677"/><path d="M51.42,48.23v-2a.07.07,0,0,0-.07-.08h-3a.07.07,0,0,0-.07.08v2Z" style="fill:#2c5475"/><path d="M51.42,48.23v-2a.07.07,0,0,0-.07-.08h-3a.07.07,0,0,0-.07.08v2Z" style="fill:#295273"/><path d="M51.42,48.23v-2a.07.07,0,0,0-.07-.07h-3a.07.07,0,0,0-.07.07v2Z" style="fill:#264f72"/><path d="M51.42,48.23v-2a.07.07,0,0,0-.07-.07h-3a.07.07,0,0,0-.07.07v2Z" style="fill:#234d70"/><path d="M51.42,48.23v-2a.07.07,0,0,0-.07-.07h-3a.08.08,0,0,0-.08.07v2Z" style="fill:#204a6e"/><path d="M51.42,48.23v-2a.07.07,0,0,0-.07-.07h-3a.08.08,0,0,0-.08.07v2Z" style="fill:#1d486c"/><path d="M51.42,48.23v-2a.07.07,0,0,0-.08-.07h-3a.08.08,0,0,0-.08.07v2Z" style="fill:#1a466a"/><path d="M51.42,48.23v-2a.07.07,0,0,0-.08-.07h-3a.08.08,0,0,0-.08.07v2Z" style="fill:#174368"/><path d="M51.42,48.22v-2a.08.08,0,0,0-.08-.07h-3a.07.07,0,0,0-.08.07v2Z" style="fill:#144166"/><path d="M51.42,48.22v-2a.09.09,0,0,0-.08-.08h-3a.08.08,0,0,0-.08.08v2Z" style="fill:#113e64"/><path d="M51.42,48.22v-2a.09.09,0,0,0-.08-.08h-3a.08.08,0,0,0-.07.08v2Z" style="fill:#0e3c62"/></g><g style="clip-path:url(#ab)"><path d="M49.05,49.73v-.14c0-.07,0-.06.05,0a1.19,1.19,0,0,0,.62.2.71.71,0,0,0,.79-.73c0-.58-.47-.74-.94-.74h-.19s0,0,0,0v-.1c0-.06,0,0,0,0h.16c.45,0,.85-.18.85-.71a.57.57,0,0,0-.62-.63,1.05,1.05,0,0,0-.56.18s0,0,0,0v-.13s0,0,0-.07a1.5,1.5,0,0,1,.6-.16.73.73,0,0,1,.79.77.79.79,0,0,1-.55.83c-.06,0-.06,0,0,0a.75.75,0,0,1,.66.8.93.93,0,0,1-1,1,1.27,1.27,0,0,1-.62-.16c-.05,0,0,0,0-.06Z" style="fill:#d7d6eb"/><path d="M49,49.72v-.14c0-.07,0-.06,0,0a1.23,1.23,0,0,0,.62.19.71.71,0,0,0,.79-.73c0-.58-.46-.74-.93-.74h-.19s0,0,0,0v-.1c0-.06,0,0,.05,0h.16c.44,0,.84-.18.84-.72a.56.56,0,0,0-.61-.62,1.11,1.11,0,0,0-.57.18s0,0,0,0v-.13c0-.06,0-.05,0-.07a1.46,1.46,0,0,1,.6-.16.73.73,0,0,1,.79.77.79.79,0,0,1-.55.83c-.06,0-.07,0,0,0a.75.75,0,0,1,.66.8.93.93,0,0,1-1,1,1.31,1.31,0,0,1-.63-.16s0,0,0-.06Z" style="fill:#fdfdfe"/><path d="M49,49.72v-.14c0-.06,0-.06.05,0a1.34,1.34,0,0,0,.62.19A.71.71,0,0,0,50.5,49c0-.58-.46-.74-.93-.74h-.19c-.05,0,0,0,0,0v-.1c0-.06,0,0,0,0h.16c.45,0,.85-.17.85-.71a.56.56,0,0,0-.61-.63,1.09,1.09,0,0,0-.57.18c-.05,0,0,0,0,0v-.13c0-.05,0,0,0-.06a1.28,1.28,0,0,1,.59-.16.73.73,0,0,1,.8.77.77.77,0,0,1-.55.82c-.07,0-.07,0,0,0a.76.76,0,0,1,.66.8.93.93,0,0,1-1,.95,1.38,1.38,0,0,1-.62-.15s0,0,0-.07Z" style="fill:url(#ac)"/></g><g style="clip-path:url(#ad)"><path d="M49.05,49.74v-.13c0-.07,0-.07.05,0a1.27,1.27,0,0,0,.62.19.71.71,0,0,0,.79-.73c0-.58-.47-.74-.94-.74h-.19s0,0,0,0v-.1c0-.06,0,0,0,0h.16c.45,0,.85-.17.85-.71a.57.57,0,0,0-.62-.63,1,1,0,0,0-.56.19s0,0,0,0v-.12c0-.06,0-.05,0-.07a1.35,1.35,0,0,1,.6-.16.72.72,0,0,1,.79.77.79.79,0,0,1-.55.83c-.06,0-.06,0,0,0a.75.75,0,0,1,.66.8.92.92,0,0,1-1,1,1.38,1.38,0,0,1-.62-.15c-.05,0,0,0,0-.07Z" style="fill:#d7d6eb"/><path d="M49,49.73v-.14c0-.06,0-.06,0,0a1.34,1.34,0,0,0,.62.19.71.71,0,0,0,.79-.73c0-.58-.46-.74-.93-.74h-.19s0,0,0,0v-.1c0-.06,0,0,.05,0h.16c.44,0,.84-.17.84-.71a.56.56,0,0,0-.61-.63,1.11,1.11,0,0,0-.57.18s0,.05,0,0v-.13s0,0,0-.06a1.32,1.32,0,0,1,.6-.16.72.72,0,0,1,.79.77.77.77,0,0,1-.55.82c-.06,0-.07,0,0,0a.75.75,0,0,1,.66.8.93.93,0,0,1-1,1,1.42,1.42,0,0,1-.63-.15s0,0,0-.07Z" style="fill:#fdfdfe"/><path d="M49,49.74V49.6c0-.07,0-.06.05,0a1.23,1.23,0,0,0,.62.19A.71.71,0,0,0,50.5,49c0-.58-.46-.74-.93-.74h-.19c-.05,0,0,0,0,0v-.1c0-.06,0,0,0,0h.16c.45,0,.85-.18.85-.71a.56.56,0,0,0-.61-.63,1.09,1.09,0,0,0-.57.18c-.05,0,0,0,0,0V46.8c0-.06,0,0,0-.07a1.42,1.42,0,0,1,.59-.16.74.74,0,0,1,.8.77.79.79,0,0,1-.55.83c-.07,0-.07,0,0,0a.76.76,0,0,1,.66.8.94.94,0,0,1-1,1,1.27,1.27,0,0,1-.62-.16s0,0,0-.06Z" style="fill:#f5f7f8"/></g></g><path d="M52.72,45.79H23.27V50.7H52.72m-25.28-.32a.1.1,0,0,1-.11.1H24.12a.1.1,0,0,1-.11-.1V46.1a.11.11,0,0,1,.11-.1h3.21a.11.11,0,0,1,.11.1Zm4.91,0a.1.1,0,0,1-.11.1H29a.1.1,0,0,1-.11-.1V46.1A.11.11,0,0,1,29,46h3.21a.11.11,0,0,1,.11.1Zm4.9,0a.09.09,0,0,1-.1.1H33.94a.1.1,0,0,1-.11-.1V46.1a.11.11,0,0,1,.11-.1h3.21a.1.1,0,0,1,.1.1Zm4.91,0a.09.09,0,0,1-.1.1H38.84a.09.09,0,0,1-.1-.1V46.1a.1.1,0,0,1,.1-.1h3.22a.1.1,0,0,1,.1.1Zm4.91,0a.1.1,0,0,1-.11.1H43.75a.1.1,0,0,1-.11-.1V46.1a.11.11,0,0,1,.11-.1H47a.11.11,0,0,1,.11.1Zm4.5,0a.1.1,0,0,1-.1.1H48.25a.09.09,0,0,1-.1-.1V46.1a.1.1,0,0,1,.1-.1h3.22a.11.11,0,0,1,.1.1Z" style="fill:#a4c9e7"/></g></g></svg>