<svg xmlns="http://www.w3.org/2000/svg" viewBox="0 0 75 75"><defs><style>.cls-1{isolation:isolate;}.cls-2{fill:#e95653;}.cls-3{fill:none;}.cls-4{opacity:0.15;mix-blend-mode:multiply;}.cls-5{fill:#fff;}.cls-6{fill:#f9d2d1;}.cls-7{fill:#fce8e8;}.cls-8{fill:#961e29;}.cls-9{fill:#e11e19;}</style></defs><g class="cls-1"><g id="Layer_1" data-name="Layer 1"><circle class="cls-2" cx="37.5" cy="37.5" r="37.5"/><path class="cls-3" d="M21.842,67.262C20.2,65.672,17.829,64.028,19,61.437c.426-.942.923-1.882,1.421-2.789.227-.411.5-1.035.9-.877.13.05.3.288.394.384a27.641,27.641,0,0,0,2.416,2.172c-.715-.729-1.477-1.415-2.2-2.133a23.8,23.8,0,0,1-7.085-16.483,23.225,23.225,0,0,1,.093-2.611c.052-.581.059-.569-.3-.919q-.484-.471-.971-.94l-4.028-3.9C8.537,32.274,7.328,31.3,7,29.709c-.15-.721-.494-.921-.949-1.354A18.068,18.068,0,0,0,4.03,26.413a9.175,9.175,0,0,1,1.772.953,3.785,3.785,0,0,0,.915.375c.515.069.307-.067.571-.515a1.4,1.4,0,0,1,2.36-.3l1.8,1.741c.251.243.617.77.935.9s1.046-.1,1.508.024a2.372,2.372,0,0,1,1.058.6c.616.552,1.155,1.2,1.793,1.727a23.979,23.979,0,0,1,6.779-9.088c-.657-.658-1.334-1.3-2-1.944C19.4,18.834,16.3,16.651,17.3,13.274a4.769,4.769,0,0,1,6.532-2.938,12.669,12.669,0,0,1,3.061,2.606L31.1,17.016a6.524,6.524,0,0,0,1.079,1.044c.459.254,1.167-.1,1.712-.212a23.642,23.642,0,0,1,2.47-.38c1.8-.181,3.521.085,5.3.063.481-.006.551-.123.917-.447q.436-.385.877-.768a58.819,58.819,0,0,1,4.65-3.791c.269-.189.913-.772,1.29-.68.277.067.712.68.925.887l4.208,4.073,8.452,8.182,8.415,8.146,3.584,3.47A37.494,37.494,0,1,0,28.769,73.967l-3.834-3.711Z"/><path class="cls-4" d="M75,37.5c0-.3-.016-.6-.023-.9l-3.584-3.47-8.415-8.146-8.452-8.182-4.208-4.073c-.213-.207-.648-.82-.925-.887-.377-.092-1.021.491-1.29.68a58.819,58.819,0,0,0-4.65,3.791q-.441.383-.877.768c-.366.324-.436.441-.917.447-1.781.022-3.5-.244-5.3-.063a23.642,23.642,0,0,0-2.47.38c-.545.113-1.253.466-1.712.212A6.524,6.524,0,0,1,31.1,17.016l-4.208-4.074a12.669,12.669,0,0,0-3.061-2.606A4.769,4.769,0,0,0,17.3,13.274c-1,3.377,2.1,5.56,4.221,7.612.669.647,1.346,1.286,2,1.944a23.979,23.979,0,0,0-6.779,9.088c-.638-.525-1.177-1.175-1.793-1.727a2.372,2.372,0,0,0-1.058-.6c-.462-.125-1.184.113-1.508-.024s-.684-.662-.935-.9l-1.8-1.741a1.4,1.4,0,0,0-2.36.3c-.264.448-.056.584-.571.515a3.785,3.785,0,0,1-.915-.375,9.175,9.175,0,0,0-1.772-.953,18.068,18.068,0,0,1,2.019,1.942c.455.433.8.633.949,1.354.33,1.59,1.539,2.565,2.642,3.633l4.028,3.9q.486.47.971.94c.359.35.352.338.3.919a23.225,23.225,0,0,0-.093,2.611,23.8,23.8,0,0,0,7.085,16.483c.726.718,1.488,1.4,2.2,2.133a27.641,27.641,0,0,1-2.416-2.172c-.1-.1-.264-.334-.394-.384-.406-.158-.676.466-.9.877-.5.907-1,1.847-1.421,2.789-1.171,2.591,1.2,4.235,2.842,5.825l3.093,2.994,3.834,3.711A37.491,37.491,0,0,0,75,37.5Z"/><circle class="cls-5" cx="38.719" cy="41.429" r="23.875"/><path class="cls-6" d="M63.851,35.926H61.9A23.851,23.851,0,0,1,62,46.91h1.848a1.881,1.881,0,0,0,1.881-1.881V37.807A1.881,1.881,0,0,0,63.851,35.926Z"/><path class="cls-6" d="M21.183,57.839a3.111,3.111,0,0,0-.7.9L19,61.65a3.135,3.135,0,0,0,1.366,4.218l3.339,1.7a3.135,3.135,0,0,0,4.218-1.366l1.348-2.639A23.929,23.929,0,0,1,21.183,57.839Z"/><path class="cls-6" d="M47.954,66.682a3.135,3.135,0,0,0,4.349.864l2.717-1.817a3.135,3.135,0,0,0,.863-4.349L54.6,59.462a23.838,23.838,0,0,1-8.262,4.8Z"/><path class="cls-6" d="M4.071,26.569A8.789,8.789,0,0,0,7.811,28.2a1.463,1.463,0,0,0,.915-.206.863.863,0,0,0,.371-.759c0-.139-.09-.289-.107-.271a1.46,1.46,0,0,0-.457-.012,1.157,1.157,0,0,0-.759.448,2.654,2.654,0,0,0-.449,1.837,4,4,0,0,0,.623,1.855,3.668,3.668,0,0,0,3.28,1.737,4.675,4.675,0,0,0,1.862-.557,2.8,2.8,0,0,0,1.3-1.228c.055-.218,0-.29-.25-.419a2.848,2.848,0,0,0-.885-.247.959.959,0,0,0-1.107.9,4.6,4.6,0,0,0,1.215,3.586,2.41,2.41,0,0,0,1.7.823,2.951,2.951,0,0,0,1.846-.722l.043.05a3.126,3.126,0,0,1-1.88.954,2.716,2.716,0,0,1-2.014-.794,4.859,4.859,0,0,1-1.209-1.809,4.362,4.362,0,0,1-.323-2.2,1.783,1.783,0,0,1,.562-1.108A1.655,1.655,0,0,1,13.31,29.7,3.485,3.485,0,0,1,14.427,30a1.139,1.139,0,0,1,.548.474.959.959,0,0,1,.057.77,3.231,3.231,0,0,1-1.655,1.581,5.253,5.253,0,0,1-2.119.569,4.21,4.21,0,0,1-3.706-2.054A4.46,4.46,0,0,1,6.9,29.261a3.04,3.04,0,0,1,.58-2.107,1.531,1.531,0,0,1,1-.559,1.788,1.788,0,0,1,.579.029.588.588,0,0,1,.358.591,1.171,1.171,0,0,1-.542,1.013,1.714,1.714,0,0,1-1.088.208,8.891,8.891,0,0,1-3.76-1.813Z"/><path class="cls-5" d="M50.432,21.792l-8.641-3.8s8.6-7.725,7.613-5.583C47.793,15.894,50.432,21.792,50.432,21.792Z"/><path class="cls-2" d="M23.116,30.129a.929.929,0,0,1-.5-.147.942.942,0,0,1-.291-1.3c3.712-5.876,7.887-7.922,16.136-7.878a.942.942,0,0,1-.007,1.883c-.126,0-.234,0-.349,0-7.294,0-10.9,1.792-14.192,7A.937.937,0,0,1,23.116,30.129Z"/><circle class="cls-7" cx="49.829" cy="35.558" r="3.993"/><circle class="cls-8" cx="48.779" cy="34.759" r="2.858"/><circle class="cls-5" cx="21.829" cy="14.827" r="4.727"/><path class="cls-9" d="M24.346,14.634l-.031,0a.24.24,0,0,1-.207-.268,1.459,1.459,0,0,0-.689-1.276A4.416,4.416,0,0,0,21.3,12.27a.239.239,0,1,1,.06-.474,4.883,4.883,0,0,1,2.357.915,1.907,1.907,0,0,1,.87,1.714A.24.24,0,0,1,24.346,14.634Z"/></g></g></svg>