<svg xmlns="http://www.w3.org/2000/svg" viewBox="0 0 132.937 113.831"><defs><style>.cls-1{fill:#555a5f;fill-rule:evenodd;}.cls-2{fill:none;}</style></defs><g id="Layer_2" data-name="Layer 2"><g id="Layer_5" data-name="Layer 5"><path class="cls-1" d="M52.5,94.7a3.7,3.7,0,0,0,2.542-6.246c-1.492-1.464-9.727-7.577-11.876-9.981-1-1.115-2.35-1.663-2.922-2.916-1.317-2.884-2.24-7-.569-9.956.3-.535.5-.3.265.818-1.312,6.308,2.8,11.459,3.7,8.817.625-1.825.046-5.091.379-7.684.591-4.589,4.768-13.4,6.6-13.9-2.83-5.241,3.318-9.344,3.243-13.945-.049-2.991,2.628,3.679,5.318,5.093,3,1.579,6.307-2.976,11-5.288,1.326-.653,3.027-1.405,2.913-1.963-.551-2.689-6.157,3.318-11.165,3.521-2.285.092-3.133-.449-4.016-1.3-2.669-2.579.272-.426,4.24-1.144a17.25,17.25,0,0,0,4.227-1.369A55.785,55.785,0,0,1,72.5,34.8c1.474-.4,1.352-1.508.778-1.841-.33-.191-.819-.173-1.207.5-.909,1.571-5.181,2.479-6.514,2.887a17.328,17.328,0,0,1-6.121.91c-3.823-.155-2.932-1.907-5.666-3.474-.8-.46-.585-1.667.48-2.732.558-.559,2.088-.874,2.846-2.144a10.553,10.553,0,0,1,1.851-1.73c.265-.184.288-4.85-2.107-4.947-2.034-.082-2.613,1.5-2.527,3.067s.917,2.866,1.471,2.86c1.068-.011.068,1.168-.517,1.358-.888.289-2.106-3.5-1.966-5.315.147-1.894,1.133-5.247,3.53-5.182,2.158.058,3.722,2.764,3.643,7.431-.013.792,3.5-.377,4.672.861.838.887-2.872-8.269,5.39-8.9,2.178.417,4.268,1.141,5.138,6.146-.322.521.542,4.012-.8,4.427-1.64.5-2.652-.074-1.7-1.636.649-1.568.014-5.558-3.3-5.318s-2.879,6.129-1.969,6.245,3.2,1.742,4.8,2.054c5.251,1.022,1.393,4.032,2.074,7.675.77,4.115,3.481,3.028,5.917,13.925.509.663,2.526,1.291,4.492,9.662,1.769,7.532-.735,13.009,3.517,12.559a3.066,3.066,0,0,0,2.966-2.5c1.592-5.578-.8-12.224-3.208-16.709a21.093,21.093,0,0,0-3.426-5.008c2.764,1.634,6.3,6.851,7.112,10.725,1.07,5.088,1.835,7.242.215,12.623.935.467,3.262,1.456,3.262,2.566-2.424-1.992-9.844-2.346-10.035,2.418a3.541,3.541,0,0,0-3.037,1.1c-2.983,3.539-.213,10.648-.516,14.461-.266,3.355-1.2,6.678-1.721,10.048-1.776-.067-1.6-1.368-1.033-3.191a21.311,21.311,0,0,0,1.367-5.558c.048-1.75-.143-2.843-.584-3.114s-1.133.279-2.087,1.815C75.934,97.1,71.521,98.54,67.4,99.056s-7.952.108-9.981-2.165c-.693-.777-1.844.212-1.981.418-.183.277.672.813,1.316,2,.941,1.726,1.836,4.346-.394,5.541.027-6.076-1.9-6.432-3.862-10.145Zm-1.473-.161c1.477,2.325,6.681,12.113-2.441,13.383-3.051.425-7.964-1.775-12.723-2.94-4.276-1.046-8.619-1.665-11.049-2.348-1.464-.411-2.075-.936-2.2-1.549-.338-1.624,1.776-3.9,1.883-5.827s-.7-2.923-1.364-4.492-.836-2.751-.3-3.426c.413-.525,1.252-.745,2.617-.611a8.994,8.994,0,0,0,4.943-.869c1.891-1.154,2.781-3.517,1.93-6.366,0,2.787-.914,3.843-3.205,5.118-2.16,1.2-5.493.229-7.025,1.559-1.844,1.6.658,5.729.453,8.76-.157,2.329-2.588,4.954-1.5,7.29s6.176,2.607,11.478,3.715c7.537,1.577,11.931,4.321,15.413,4.45,5.08.189,5.859-5.026,13.835-5.1,2.326-.123,4.6-.2,6.875-.224,2.576-.032,5.149-.011,7.79.053,5.308.128,3.482,2.9,6.927,4.667,2.905,1.493,8.129.9,9.379-.288a50.821,50.821,0,0,1,9.711-7.246c4.337-2.187,14.52-5.948,7.127-10.535-1.722-1.069-5.8-2.2-6.139-10.019-1.542,1.37-1.364,8.657,2.94,10.1,4.809,1.615,7.812,4.319-1.126,7.376-5.918,2.024-6.924,2.647-11.609,6.547-4.74,3.946-11.775,2.378-10.547-5.93.641-4.328,1.009-7.905-.068-11.667a13.325,13.325,0,0,1-.428-5.849c.7-3.215,2.439-4.183,4.145-1.1,1.07,1.937,1.445,4.2,5.279,4.386,6.022.289,7.215-5.819,9.139-6.1,1.284-.185,2.567-3.819,1.59-9.7-1.048-6.293-4.751-16.229-9.5-21.267-3.947-4.188-6.434-7.86-8-13.1a36.631,36.631,0,0,1-1.778-12.785c.352-5.308-2.592-12.695-7.279-16.171-2.934-2.175-7.534-3.341-11.7-3.295A13.562,13.562,0,0,0,58.27,4.44c-6.951,3.773-7.922,9.163-7.818,15.315.1,5.779.3,12.373.951,18.646-.777,2.881-4.824,8.341-7.415,11.664-3.484,3.441-5.243,10.093-7.5,15.9-1.2,3.1-3.228,4.5-3.4,8.48-.047,1.114-.009,4,1.056,3.171,4.074-3.151,9.174,4.794,16.876,16.919ZM72.173,11.245c-.219.657-1.124,1.2-.55,1.664s.9-.643,2.059-1.056c.3-.107,1.686.045,1.941-.615.112-.288-.715-.616-1.208-1.088s-.976-.889-1.439-.86c-1.2.077-.609,1.374-.8,1.955Zm7.081,23.962c.431-.452.652.779,1.809,1.509.917.579,1.809.15,2.041,1.323.166.84-.359,1.752-1.064,1.633-1.227-.206-4.058-3.129-2.786-4.465ZM60.142,27.812c-1.905-.142-2.036,1.236-1.4,1.213s.248-1.09,1.4-1.213Zm-3.268-3.519c.226-.049.545.334.446.872-.138.747-.078,1.215.44,1.217.084,0,.177-.016.209-.21a2.647,2.647,0,0,0-.84-2.661c-.729-.186-.64.864-.255.782Zm13.872-.63c.484.144.949.982,1.05,1.886.01.084.632-.13.638-.328a2.036,2.036,0,0,0-1.529-2.11c-.748.068-.537.44-.159.552ZM63.635,27.99c1.734-.8,2.34.441,1.741.641s-.615-.933-1.741-.641ZM42.705,57.516c-.82-.1.238-.714.687-1.489.493-.852.4-1.916.915-1.759s.23.752-.125,1.729c-.3.832-1.175,1.556-1.477,1.519Z"/><rect class="cls-2" width="132.937" height="113.831"/></g></g></svg>