<?xml version="1.0" encoding="utf-8"?>
<!-- Generator: Adobe Illustrator 22.0.1, SVG Export Plug-In . SVG Version: 6.00 Build 0)  -->
<svg version="1.1" id="Layer_1" xmlns="http://www.w3.org/2000/svg" xmlns:xlink="http://www.w3.org/1999/xlink" x="0px" y="0px"
	 viewBox="0 0 379.5 109.7" style="enable-background:new 0 0 379.5 109.7;" xml:space="preserve">
<style type="text/css">
	.st0{opacity:0.5;fill:url(#SVGID_1_);enable-background:new    ;}
	.st1{fill:#FFFFFF;}
</style>
<title>Scanbot in the App Store</title>
<desc>Download Scanbot on the App Store</desc>
<g>
	<g>
		<path d="M13.8,1.4H366c6.8,0,12.4,5.5,12.4,12.4v82.4c0,6.8-5.5,12.4-12.4,12.4H13.8c-6.8,0-12.4-5.5-12.4-12.4V13.8
			C1.4,6.9,6.9,1.4,13.8,1.4z"/>
		
			<linearGradient id="SVGID_1_" gradientUnits="userSpaceOnUse" x1="-759.6845" y1="586.6254" x2="-759.6845" y2="584.5653" gradientTransform="matrix(97 0 0 -52 73967.875 30505.9219)">
			<stop  offset="0" style="stop-color:#FFFFFF;stop-opacity:0.4363"/>
			<stop  offset="1" style="stop-color:#000000"/>
		</linearGradient>
		<path class="st0" d="M307,108.5h59c6.8,0,12.4-5.5,12.4-12.3V13.7c0-6.8-5.5-12.3-12.4-12.3h-93.7h-93.7L248,108.5H307L307,108.5z
			"/>
		<path class="st1" d="M47.2,32.4c2.1,0,4.6,0.4,7.6,1.3c3,0.9,5,1.3,5.9,1.3c1.2,0,3.3-0.5,6.1-1.5c2.8-1,5.3-1.5,7.4-1.5
			c3.4,0,6.5,0.9,9.1,2.8c1.5,1.1,3,2.5,4.5,4.3c-2.2,1.9-3.9,3.6-4.9,5.1C81,47,80.1,50,80.1,53.2c0,3.6,1,6.8,3,9.7
			c2,2.9,4.2,4.7,6.8,5.4c-1.1,3.4-2.8,7-5.3,10.8c-3.7,5.6-7.4,8.5-11,8.5c-1.4,0-3.4-0.5-6-1.4c-2.5-0.9-4.7-1.4-6.4-1.4
			c-1.8,0-3.8,0.5-6.1,1.4c-2.3,1-4.2,1.5-5.6,1.5c-4.4,0-8.6-3.7-12.8-11.2c-4.2-7.4-6.3-14.6-6.3-21.7c0-6.6,1.6-12,4.8-16.1
			C38.3,34.5,42.3,32.4,47.2,32.4 M73.5,15.8c0.1,0.4,0.2,0.7,0.2,1c0,0.3,0,0.6,0,0.8c0,1.8-0.4,3.8-1.3,5.9c-0.8,2.1-2.2,4.1-4,6
			c-1.6,1.5-3.1,2.6-4.6,3.1c-1,0.3-2.5,0.6-4.4,0.7c0-4.3,1.2-8,3.3-11.1C64.9,19.1,68.5,17,73.5,15.8"/>
		<g>
			<path class="st1" d="M124.5,38.4c0.9,0.1,2.3,0.2,4.2,0.2c3.2,0,5.8-0.7,7.6-2.1c1.6-1.3,2.7-3.5,2.7-6.7c0-2.9-1.1-4.9-2.8-6.2
				c-1.6-1.2-3.6-1.8-6.7-1.8c-1.9,0-3.6,0.1-5,0.3L124.5,38.4z M128.3,25c0.3-0.1,0.9-0.1,1.7-0.1c3.2,0,5.2,1.8,5.2,5.2
				c0,3.9-2.2,5.8-5.5,5.7c-0.5,0-1,0-1.3-0.1V25z M149,26.3c-3.8,0-6.3,2.5-6.3,6.3c0,3.8,2.7,6.1,6.1,6.1c3.2,0,6.3-2,6.3-6.3
				C155,28.8,152.6,26.3,149,26.3L149,26.3z M148.9,28.9c1.7,0,2.4,1.8,2.4,3.6c0,2.1-0.9,3.6-2.4,3.6c-1.6,0-2.4-1.5-2.4-3.6
				C146.4,30.8,147.1,28.9,148.9,28.9z M157.9,26.6l3.5,11.9h3.5l1.2-4.2c0.3-1.1,0.6-2.2,0.8-3.7h0c0.2,1.4,0.5,2.5,0.8,3.7
				l1.1,4.2h3.5l3.6-11.9h-3.6l-1,4.7c-0.3,1.4-0.5,2.7-0.7,4.1h0c-0.2-1.4-0.6-2.7-0.9-4l-1.2-4.7h-2.9l-1.3,4.9
				c-0.3,1.2-0.6,2.5-0.9,3.9h-0.1c-0.2-1.4-0.4-2.7-0.7-3.9l-1-4.9H157.9z M179.5,38.5h3.7v-6.9c0-0.3,0.1-0.7,0.2-0.9
				c0.2-0.7,0.8-1.4,1.9-1.4c1.3,0,1.9,1.1,1.9,2.6v6.6h3.7v-7c0-3.5-1.8-5.1-4.2-5.1c-2,0-3.2,1.1-3.7,1.9h-0.1l-0.2-1.6h-3.2
				c0,1.1,0.1,2.3,0.1,3.8V38.5z M195.7,38.5h3.7V21.2h-3.7V38.5z M210,26.3c-3.8,0-6.3,2.5-6.3,6.3c0,3.8,2.7,6.1,6.1,6.1
				c3.2,0,6.3-2,6.3-6.3C216.1,28.8,213.7,26.3,210,26.3L210,26.3z M209.9,28.9c1.7,0,2.4,1.8,2.4,3.6c0,2.1-0.9,3.6-2.3,3.6
				c-1.6,0-2.4-1.5-2.4-3.6C207.5,30.8,208.2,28.9,209.9,28.9L209.9,28.9z M230.5,38.5c-0.1-0.7-0.2-1.8-0.2-2.9l0-4.1
				c0-2.8-1.3-5.1-5.2-5.1c-2.2,0-3.8,0.6-4.6,1.1l0.7,2.4c0.8-0.5,2.1-0.9,3.3-0.9c1.8,0,2.2,0.9,2.2,1.5v0.2c-4.2,0-7,1.5-7,4.6
				c0,1.9,1.4,3.6,3.8,3.6c1.4,0,2.6-0.5,3.4-1.5h0.1l0.2,1.2H230.5z M226.7,34.2c0,0.2,0,0.4-0.1,0.6c-0.3,0.7-1,1.4-1.9,1.4
				c-0.8,0-1.4-0.5-1.4-1.4c0-1.4,1.5-1.9,3.4-1.9V34.2z M243,21.2v6.4H243c-0.5-0.8-1.7-1.3-3.1-1.3c-2.8,0-5.3,2.3-5.3,6.3
				c0,3.7,2.3,6.1,5.1,6.1c1.5,0,3-0.7,3.7-2h0l0.2,1.8h3.3c-0.1-0.8-0.1-2.2-0.1-3.5V21.2H243z M243,33.2c0,0.3,0,0.6-0.1,0.8
				c-0.2,1.1-1.1,1.8-2.1,1.8c-1.5,0-2.5-1.3-2.5-3.3c0-1.9,0.9-3.4,2.6-3.4c1.1,0,1.9,0.8,2.2,1.8c0,0.2,0,0.5,0,0.7V33.2z
				 M264.2,26.3c-3.8,0-6.3,2.5-6.3,6.3c0,3.8,2.7,6.1,6.2,6.1c3.2,0,6.3-2,6.3-6.3C270.3,28.8,267.9,26.3,264.2,26.3z M264.1,28.9
				c1.7,0,2.4,1.8,2.4,3.6c0,2.1-0.9,3.6-2.4,3.6c-1.6,0-2.4-1.5-2.4-3.6C261.7,30.8,262.3,28.9,264.1,28.9z M274.5,38.5h3.7v-6.9
				c0-0.3,0-0.7,0.1-0.9c0.2-0.7,0.9-1.4,1.9-1.4c1.3,0,1.9,1.1,1.9,2.6l0,6.6h3.7v-7c0-3.5-1.8-5.1-4.2-5.1c-2,0-3.2,1.1-3.7,1.9
				h-0.1l-0.2-1.6h-3.2c0,1.1,0.1,2.3,0.1,3.8L274.5,38.5z M298.1,24v2.6h-1.6v2.7h1.6v4.9c0,1.7,0.4,2.8,1,3.5c0.6,0.6,1.6,1,2.8,1
				c1,0,1.9-0.1,2.4-0.3l0-2.8c-0.3,0-0.6,0.1-1.1,0.1c-1.1,0-1.4-0.6-1.4-2.1l0-4.3h2.7v-2.7h-2.7v-3.4L298.1,24z M308.5,38.5h3.7
				v-7c0-0.3,0-0.6,0.1-0.8c0.3-0.7,0.9-1.3,1.9-1.3c1.4,0,1.9,1.1,1.9,2.6v6.5h3.7v-6.9c0-3.6-1.8-5.2-4.1-5.2
				c-0.7,0-1.4,0.2-1.9,0.5c-0.6,0.3-1.1,0.7-1.4,1.2h-0.1v-6.8h-3.7V38.5z M335.2,33.7c0.1-0.3,0.1-0.8,0.1-1.5
				c0-2.9-1.5-5.9-5.3-5.9c-4.1,0-6,3.3-6,6.3c0,3.7,2.3,6.1,6.3,6.1c1.6,0,3.1-0.2,4.3-0.7l-0.5-2.5c-1,0.3-2,0.5-3.3,0.5
				c-1.7,0-3.2-0.7-3.4-2.2H335.2z M327.6,31.2c0.1-1,0.7-2.4,2.3-2.4c1.7,0,2.1,1.5,2.1,2.4H327.6z"/>
			<path class="st1" d="M141,75.4l2.5,8.4h8l-10.1-32.6h-9.7l-10,32.6h7.7l2.3-8.4H141z M132.7,69.9l1.9-6.9c0.5-1.9,1-4.3,1.5-6.3
				h0.1c0.5,1.9,1.1,4.3,1.6,6.3l2,6.9H132.7z M155.6,93.4h7.4V81.6h0.1c1.1,1.5,3.3,2.7,6.2,2.7c5.3,0,10.8-4.1,10.8-12.7
				c0-7.5-4.7-12.1-9.8-12.1c-3.4,0-6.1,1.3-7.9,3.8h-0.1l-0.4-3.3h-6.4c0.1,2.2,0.2,4.8,0.2,7.9L155.6,93.4z M163,70.4
				c0-0.4,0-0.9,0.1-1.3c0.5-2.2,2.3-3.7,4.4-3.7c3.3,0,5,2.8,5,6.6c0,4-1.9,6.7-5.1,6.7c-2.1,0-3.8-1.5-4.3-3.5
				c-0.1-0.4-0.1-1-0.1-1.6V70.4z M184.5,93.4h7.4V81.6h0.1c1.1,1.5,3.3,2.7,6.2,2.7c5.3,0,10.7-4.1,10.7-12.7
				c0-7.5-4.6-12.1-9.8-12.1c-3.4,0-6.1,1.3-7.9,3.8h-0.1l-0.3-3.3h-6.4c0.1,2.2,0.2,4.8,0.2,7.9V93.4z M191.9,70.4
				c0-0.4,0.1-0.9,0.2-1.3c0.5-2.2,2.3-3.7,4.4-3.7c3.3,0,5,2.8,5,6.6c0,4-1.9,6.7-5.1,6.7c-2.1,0-3.8-1.5-4.3-3.5
				c-0.1-0.4-0.2-1-0.2-1.6V70.4z M222.2,82.3c1.9,1,5.5,2,9.3,2c8.9,0,13.2-4.6,13.2-10.1c0-4.6-2.7-7.6-8.5-9.7
				c-4.2-1.6-6.1-2.5-6.1-4.6c0-1.7,1.5-3.2,4.7-3.2c3.2,0,5.5,0.9,6.8,1.5l1.6-6c-1.9-0.9-4.6-1.6-8.3-1.6
				c-7.7,0-12.3,4.3-12.3,9.8c0,4.8,3.5,7.7,9,9.6c3.9,1.4,5.5,2.6,5.5,4.6c0,2.1-1.8,3.5-5.2,3.5c-3.2,0-6.2-1-8.2-2L222.2,82.3z
				 M250.4,55v5.1h-3.2v5.4h3.2v9.7c0,3.3,0.7,5.6,2,7c1.2,1.2,3.2,2,5.5,2c2.1,0,3.8-0.2,4.8-0.6l-0.1-5.6
				c-0.5,0.1-1.3,0.2-2.2,0.2c-2.2,0-2.9-1.3-2.9-4.2l0-8.6h5.3v-5.4h-5.3v-6.8L250.4,55z M278.5,59.6c-7.6,0-12.6,4.9-12.6,12.5
				c0,7.6,5.3,12.2,12.2,12.2c6.3,0,12.5-4,12.5-12.6C290.6,64.6,285.7,59.6,278.5,59.6z M278.3,64.8c3.4,0,4.7,3.6,4.7,7.1
				c0,4.3-1.9,7.1-4.7,7.1c-3.2,0-4.8-3-4.8-7.1C273.4,68.5,274.7,64.8,278.3,64.8L278.3,64.8z M295.1,83.8h7.4v-12
				c0-0.6,0.1-1.2,0.2-1.6c0.5-2.3,2.3-3.7,5-3.7c0.8,0,1.5,0.1,2,0.2l0-6.9c-0.5-0.1-0.9-0.1-1.5-0.1c-2.3,0-5.2,1.4-6.4,4.9h-0.2
				l-0.2-4.3h-6.3c0.1,2,0.2,4.3,0.2,7.8L295.1,83.8z M334.4,74.3c0.1-0.5,0.3-1.6,0.3-2.9c0-5.9-2.9-11.8-10.6-11.8
				c-8.2,0-11.9,6.6-11.9,12.6c0,7.4,4.6,12.1,12.6,12.1c3.2,0,6.2-0.5,8.6-1.4l-1-5c-2,0.6-4,1-6.5,1c-3.4,0-6.4-1.5-6.7-4.5H334.4
				z M319.1,69.3c0.2-2,1.5-4.8,4.6-4.8c3.4,0,4.2,3,4.2,4.8H319.1z"/>
		</g>
	</g>
</g>
</svg>
