<?xml version="1.0" encoding="utf-8"?>
<!-- Generator: Adobe Illustrator 24.1.3, SVG Export Plug-In . SVG Version: 6.00 Build 0)  -->
<svg version="1.1" id="Ebene_1" xmlns="http://www.w3.org/2000/svg" xmlns:xlink="http://www.w3.org/1999/xlink" x="0px" y="0px"
	 viewBox="0 0 176.3 255.3" style="enable-background:new 0 0 176.3 255.3;" xml:space="preserve">
<style type="text/css">
	.st0{clip-path:url(#SVGID_2_);}
	.st1{clip-path:url(#SVGID_4_);}
	.st2{fill:#54595E;}
	.st3{fill:#95A0A5;}
	.st4{fill:#333333;}
	.st5{fill:#F6F9F9;}
	.st6{fill:#80AAC3;}
	.st7{fill:#788186;}
	.st8{clip-path:url(#SVGID_6_);}
	.st9{fill:#BED3E2;}
	.st10{fill:#B1B9BC;}
	.st11{fill:#848484;}
	.st12{fill:#F9F9F9;}
	.st13{fill:#B1CBDA;}
	.st14{fill:#ACB4B7;}
	.st15{fill:#808387;}
	.st16{fill:#D4D6D7;}
	.st17{fill:#FFFFFF;}
	.st18{clip-path:url(#SVGID_8_);}
	.st19{fill:#F7E196;}
	.st20{fill:#F0C32D;}
	.st21{clip-path:url(#SVGID_10_);}
	.st22{clip-path:url(#SVGID_12_);}
	.st23{clip-path:url(#SVGID_14_);}
	.st24{clip-path:url(#SVGID_16_);}
	.st25{clip-path:url(#SVGID_18_);}
	.st26{clip-path:url(#SVGID_20_);}
	.st27{clip-path:url(#SVGID_22_);}
	.st28{clip-path:url(#SVGID_24_);}
	.st29{clip-path:url(#SVGID_26_);}
	.st30{clip-path:url(#SVGID_28_);}
	.st31{clip-path:url(#SVGID_30_);}
	.st32{clip-path:url(#SVGID_32_);}
	.st33{clip-path:url(#SVGID_34_);}
	.st34{clip-path:url(#SVGID_36_);}
	.st35{clip-path:url(#SVGID_38_);}
	.st36{clip-path:url(#SVGID_40_);}
	.st37{opacity:0.36;}
	.st38{clip-path:url(#SVGID_42_);}
	.st39{fill:none;}
	.st40{clip-path:url(#SVGID_44_);}
	.st41{opacity:0.24;fill:#FFFFFF;enable-background:new    ;}
	.st42{enable-background:new    ;}
	.st43{fill:url(#SVGID_45_);}
</style>
<g>
	<g>
		<defs>
			
				<rect id="SVGID_1_" x="-9.8" y="2.7" transform="matrix(0.9915 -0.1302 0.1302 0.9915 -16.4004 9.4341)" width="147.5" height="254.9"/>
		</defs>
		<clipPath id="SVGID_2_">
			<use xlink:href="#SVGID_1_"  style="overflow:visible;"/>
		</clipPath>
		<g class="st0">
			<g>
				<g>
					<defs>
						
							<rect id="SVGID_3_" x="-9.8" y="2.7" transform="matrix(0.9915 -0.1302 0.1302 0.9915 -16.4004 9.4341)" width="147.5" height="254.9"/>
					</defs>
					<clipPath id="SVGID_4_">
						<use xlink:href="#SVGID_3_"  style="overflow:visible;"/>
					</clipPath>
					<g class="st1">
						<path class="st2" d="M4,70.4c-0.7,0-1.3-0.6-1.3-1.3V56.4c0.1-0.7,0.7-1.3,1.4-1.2c0.6,0.1,1.2,0.6,1.2,1.2v12.8
							C5.3,69.9,4.7,70.4,4,70.4L4,70.4"/>
						<path class="st2" d="M4,98.4c-0.7,0-1.3-0.6-1.3-1.3v-20c0.1-0.7,0.7-1.3,1.4-1.2c0.6,0.1,1.2,0.6,1.2,1.2v20
							C5.3,97.8,4.7,98.4,4,98.4"/>
						<path class="st2" d="M4,125.5c-0.7,0-1.3-0.6-1.3-1.3v-20c0-0.7,0.6-1.3,1.3-1.3s1.3,0.6,1.3,1.3v20
							C5.3,124.9,4.7,125.5,4,125.5"/>
						<path class="st2" d="M123.6,119.8L123.6,119.8c-0.7,0-1.3-0.6-1.3-1.3V82.7c0.1-0.7,0.7-1.3,1.4-1.2c0.6,0.1,1.2,0.6,1.2,1.2
							v35.8C125,119.3,124.4,119.9,123.6,119.8"/>
						<path class="st3" d="M107.4,8.5v-1H20.8c-9.4,0-17,7.5-17.1,16.9v0.1L3.5,236.2c0,4.5,1.8,8.8,5,12s7.5,5,12.1,5l86.6,0.1
							c9.4,0,17-7.5,17.1-16.9l0,0l0.2-211.8c0-9.4-7.6-17-17-17v2c8.3,0,15,6.7,15.1,14.9c0,0,0,0,0,0.1l-0.2,211.8
							c0,4-1.6,7.8-4.4,10.6s-6.7,4.4-10.7,4.4l-86.6-0.1c-8.3,0-15-6.7-15.1-14.9c0,0,0,0,0-0.1L5.7,24.4c0-4,1.6-7.8,4.4-10.6
							s6.7-4.4,10.7-4.4l86.6,0.1L107.4,8.5z"/>
						<path class="st4" d="M107.4,8.5L20.8,8.4c-8.8,0-16,7.1-16.1,15.9v0.1L4.5,236.2c0,8.8,7.2,16,16,16c0,0,0,0,0.1,0l86.6,0.1
							c8.8,0,16-7.1,16.1-15.9v-0.1l0.2-211.8C123.4,15.6,116.3,8.5,107.4,8.5"/>
						<path class="st5" d="M105,248.1L22.1,248c-8.4,0-15.2-6.8-15.3-15.2L7,26.6c0-8.4,6.9-15.2,15.3-15.2l0,0l82.9,0.1
							c8.4,0,15.2,6.8,15.3,15.2l0,0L120.3,233C120.3,241.4,113.4,248.1,105,248.1"/>
						<path class="st6" d="M105,248.1v-0.2l-82.9-0.1c-4,0-7.8-1.6-10.7-4.4c-2.8-2.8-4.4-6.6-4.4-10.6L7.2,26.6
							c0-8.3,6.8-15,15.1-15l82.9,0.1c4,0,7.8,1.6,10.7,4.4c2.8,2.8,4.4,6.6,4.4,10.6L120.1,233c0,4-1.6,7.8-4.4,10.6
							S109,248,105,248v0.4c8.5,0,15.4-6.9,15.5-15.4l0.2-206.3c0-8.5-6.9-15.4-15.4-15.4l0,0l-82.9-0.1c-8.5,0-15.4,6.9-15.5,15.4
							L6.6,232.9c0,8.5,6.9,15.4,15.4,15.4l82.9,0.1L105,248.1L105,248.1z"/>
						<path class="st4" d="M93.6,10.8v3.4c0,2.4-2,4.4-4.4,4.3H38.6c-2.4,0-4.4-2-4.4-4.4v-3.5L93.6,10.8z"/>
					</g>
				</g>
			</g>
			<path class="st7" d="M53.3,13.6L53.3,13.6z"/>
			<g>
				<g>
					<defs>
						
							<rect id="SVGID_5_" x="-9.8" y="2.7" transform="matrix(0.9915 -0.1302 0.1302 0.9915 -16.4004 9.4341)" width="147.5" height="254.9"/>
					</defs>
					<clipPath id="SVGID_6_">
						<use xlink:href="#SVGID_5_"  style="overflow:visible;"/>
					</clipPath>
					<g class="st8">
						<path class="st7" d="M73.6,14.2H53.3c-0.3,0-0.5-0.2-0.5-0.5s0.2-0.5,0.5-0.5l0,0h20.3c0.3,0,0.5,0.3,0.5,0.6
							C74.1,14,73.9,14.2,73.6,14.2"/>
						<path class="st3" d="M79.9,13.6c0,0.9-0.7,1.7-1.7,1.7s-1.7-0.7-1.7-1.6c0-0.9,0.7-1.7,1.7-1.7l0,0
							C79.1,12,79.9,12.7,79.9,13.6L79.9,13.6"/>
						<path class="st9" d="M79.9,13.6h-0.2c0,0.8-0.7,1.5-1.5,1.5s-1.5-0.7-1.5-1.5c0-0.4,0.2-0.8,0.4-1.1c0.3-0.3,0.7-0.4,1.1-0.4
							s0.8,0.2,1.1,0.4c0.3,0.3,0.4,0.7,0.4,1.1H79.9c0-1-0.8-1.7-1.8-1.7c-0.9,0.1-1.6,0.8-1.7,1.7c0.1,1,0.9,1.7,1.9,1.7
							C79.2,15.2,79.9,14.5,79.9,13.6L79.9,13.6z"/>
						<path class="st3" d="M78.2,12.2c-0.8,0-1.4,0.6-1.4,1.4c0,0.8,0.6,1.4,1.4,1.4s1.4-0.6,1.4-1.4C79.6,12.9,79,12.2,78.2,12.2
							 M78.2,15.5c-1,0-1.9-0.9-1.9-1.9s0.9-1.9,1.9-1.9s1.9,0.8,1.9,1.9S79.3,15.5,78.2,15.5"/>
						<path class="st9" d="M78.2,12.2V12c-0.9-0.1-1.6,0.6-1.7,1.4s0.6,1.6,1.4,1.7c0.1,0,0.2,0,0.2,0c0.9,0.1,1.6-0.6,1.7-1.4
							s-0.6-1.6-1.4-1.7c-0.1,0-0.2,0-0.2,0v0.3c0.3,0,0.6,0.1,0.9,0.4c0.2,0.2,0.4,0.5,0.4,0.9c0,0.7-0.6,1.2-1.3,1.2
							c-0.3,0-0.7-0.1-0.9-0.4C77.1,14.3,77,14,77,13.6c0-0.7,0.6-1.3,1.3-1.3v-0.1H78.2z M78.2,15.5v-0.2c-0.5,0-0.9-0.2-1.2-0.5
							c-0.3-0.3-0.5-0.8-0.5-1.2c-0.1-1,0.6-1.8,1.6-1.9s1.8,0.6,1.9,1.6c0,0.1,0,0.2,0,0.3c0,0.5-0.2,0.9-0.5,1.2s-0.8,0.5-1.2,0.5
							v0.3c1.1,0,2-0.9,2-2s-0.9-2-2-2s-2,0.9-2,2s0.9,2,2,2L78.2,15.5z"/>
						<path class="st10" d="M4.7,23.9c0,0.4,0,0.7,0,1.1L4.1,238.3l0.4-1.3c0-0.2,0-0.5,0-0.7L4.7,24.4C4.7,24.2,4.7,24.1,4.7,23.9"
							/>
						<path class="st11" d="M68.1,8.5H21.3c-8.7,0-16,6.7-16.6,15.4c0,0.2,0,0.3,0,0.5L4.5,236.2c0,0.3,0,0.5,0,0.7l2.2-7.8
							L6.8,26.6c0-8.5,7-15.4,15.5-15.4l0,0h11.9v-0.4h33.2L68.1,8.5z"/>
						<path class="st12" d="M34.3,11.6h-12c-8.3,0-15.1,6.7-15.1,15L7,227.9L65.3,18.6H38.6c-2.4,0-4.4-2-4.4-4.4L34.3,11.6z"/>
						<path class="st13" d="M34.3,11.2h-12c-8.5,0-15.4,6.8-15.5,15.4L6.7,229.2l0.3-1.3L7.2,26.6c0-8.3,6.8-15,15.1-15h11.9
							L34.3,11.2z"/>
						<path class="st11" d="M67.5,10.8H34.3v3.4c0,2.4,2,4.4,4.4,4.4h26.7l1.2-4.4H53.3c-0.3,0-0.5-0.2-0.5-0.5s0.2-0.5,0.5-0.5l0,0
							h13.5L67.5,10.8z"/>
						<path class="st14" d="M66.8,13.1H53.3c-0.3,0-0.5,0.2-0.5,0.5l0,0c0,0.3,0.2,0.5,0.5,0.5h13.2L66.8,13.1z"/>
						<path class="st15" d="M58.4,91.8L46,91.9c-2,0-3.7-1.6-3.7-3.7l-0.1-12.4c0-2,1.6-3.7,3.7-3.7l0,0L58.3,72
							c2,0,3.7,1.6,3.7,3.6L62.1,88C62.1,90.1,60.5,91.7,58.4,91.8"/>
						<path class="st16" d="M62.4,81.8c0.1,5.6-4.5,10.3-10.1,10.3S42,87.7,41.9,82c-0.1-5.6,4.5-10.3,10.1-10.3l0,0
							C57.7,71.7,62.3,76.2,62.4,81.8L62.4,81.8"/>
						<path class="st17" d="M52.2,88.4c3.6,0,6.5-2.9,6.5-6.5s-2.9-6.5-6.5-6.5s-6.5,2.9-6.5,6.5V82C45.7,85.6,48.6,88.5,52.2,88.4
							L52.2,88.4"/>
						<path class="st15" d="M107.3,91.4l-12.4,0.1c-2,0-3.7-1.6-3.8-3.7L91,75.4c0-2.1,1.6-3.7,3.7-3.7l12.4-0.1
							c2,0,3.7,1.6,3.7,3.7l0.1,12.4C111,89.7,109.4,91.4,107.3,91.4"/>
						<path class="st16" d="M111.2,81.4c0.1,5.6-4.5,10.3-10.1,10.3c-5.6,0.1-10.3-4.5-10.3-10.1c-0.1-5.6,4.5-10.3,10.1-10.3h0.1
							C106.6,71.3,111.2,75.8,111.2,81.4"/>
					</g>
				</g>
			</g>
			<polygon class="st17" points="101.1,74.5 93.4,86.7 101.1,86.7 108.7,86.8 			"/>
			<g>
				<g>
					<defs>
						
							<rect id="SVGID_7_" x="-9.8" y="2.7" transform="matrix(0.9915 -0.1302 0.1302 0.9915 -16.4004 9.4341)" width="147.5" height="254.9"/>
					</defs>
					<clipPath id="SVGID_8_">
						<use xlink:href="#SVGID_7_"  style="overflow:visible;"/>
					</clipPath>
					<g class="st18">
						<path class="st19" d="M34.8,92.3H20.6c-2.3,0-4.2-1.9-4.3-4.2v-14c0-2.3,1.9-4.2,4.3-4.2h14.3c2.3,0,4.2,1.9,4.3,4.2v14
							C39.1,90.5,37.2,92.4,34.8,92.3"/>
						<path class="st20" d="M39.4,81.1c0.1,6.5-5.1,11.8-11.5,11.9c-6.5,0.1-11.8-5.1-11.9-11.5s5.1-11.8,11.5-11.9
							c0.1,0,0.1,0,0.2,0C34.1,69.5,39.4,74.7,39.4,81.1"/>
					</g>
				</g>
			</g>
			<polygon class="st17" points="27.7,71.4 30.9,77.8 38,78.8 32.9,83.8 34.1,90.8 27.7,87.5 21.3,90.8 22.5,83.8 17.4,78.8 
				24.5,77.8 			"/>
			<g>
				<g>
					<defs>
						
							<rect id="SVGID_9_" x="-9.8" y="2.7" transform="matrix(0.9915 -0.1302 0.1302 0.9915 -16.4004 9.4341)" width="147.5" height="254.9"/>
					</defs>
					<clipPath id="SVGID_10_">
						<use xlink:href="#SVGID_9_"  style="overflow:visible;"/>
					</clipPath>
					<g class="st21">
						<path class="st15" d="M33.8,63.2l-12.4,0.1c-2,0-3.7-1.6-3.8-3.7l-0.1-12.4c0-2,1.6-3.7,3.7-3.7l12.4-0.1c2,0,3.7,1.6,3.8,3.7
							l0.1,12.4C37.5,61.5,35.8,63.2,33.8,63.2"/>
						<path class="st16" d="M37.7,53.3c0.1,5.6-4.5,10.3-10.1,10.3s-10.3-4.5-10.3-10.1c-0.1-5.6,4.5-10.3,10.1-10.3l0,0
							C33,43.2,37.6,47.7,37.7,53.3"/>
						<path class="st17" d="M27.5,59.9c3.6,0,6.5-2.9,6.5-6.5s-2.9-6.5-6.5-6.5S21,49.8,21,53.4v0.1C21.1,57,24,59.9,27.5,59.9
							L27.5,59.9"/>
						<path class="st15" d="M107.1,62.7l-12.4,0.1c-2,0-3.7-1.6-3.8-3.7l-0.1-12.4c0-2,1.7-3.7,3.7-3.7l12.4-0.1
							c2.1,0,3.7,1.6,3.8,3.7l0.1,12.4C110.8,61,109.1,62.7,107.1,62.7"/>
						<path class="st16" d="M111,52.7c0.1,5.6-4.5,10.3-10.1,10.3c-5.6,0.1-10.3-4.5-10.3-10.1c-0.1-5.6,4.5-10.3,10.1-10.3l0,0
							C106.3,42.6,110.9,47.1,111,52.7L111,52.7"/>
					</g>
				</g>
			</g>
			
				<rect x="95.4" y="47.5" transform="matrix(1 -7.853659e-03 7.853659e-03 1 -0.412 0.7933)" class="st17" width="10.8" height="10.7"/>
			<g>
				<g>
					<defs>
						
							<rect id="SVGID_11_" x="-9.8" y="2.7" transform="matrix(0.9915 -0.1302 0.1302 0.9915 -16.4004 9.4341)" width="147.5" height="254.9"/>
					</defs>
					<clipPath id="SVGID_12_">
						<use xlink:href="#SVGID_11_"  style="overflow:visible;"/>
					</clipPath>
					<g class="st22">
						<path class="st15" d="M82.7,62.8L70.2,63c-2.1,0-3.7-1.6-3.8-3.7l-0.1-12.4c0-2,1.6-3.7,3.7-3.7l12.4-0.1c2,0,3.7,1.6,3.8,3.7
							l0.1,12.4C86.4,61.2,84.7,62.9,82.7,62.8"/>
						<path class="st16" d="M86.6,52.9c0.1,5.6-4.5,10.3-10.1,10.3c-5.6,0.1-10.3-4.5-10.3-10.1s4.5-10.3,10.1-10.3l0,0
							C81.9,42.8,86.5,47.3,86.6,52.9"/>
					</g>
				</g>
			</g>
			<polygon class="st17" points="76.4,46 68.8,58.1 76.4,58.2 84.1,58.3 			"/>
			<g>
				<g>
					<defs>
						
							<rect id="SVGID_13_" x="-9.8" y="2.7" transform="matrix(0.9915 -0.1302 0.1302 0.9915 -16.4004 9.4341)" width="147.5" height="254.9"/>
					</defs>
					<clipPath id="SVGID_14_">
						<use xlink:href="#SVGID_13_"  style="overflow:visible;"/>
					</clipPath>
					<g class="st23">
						<path class="st15" d="M58.2,63l-12.4,0.1c-2.1,0-3.7-1.6-3.8-3.6l-0.1-12.4c0-2,1.6-3.7,3.7-3.7L58,43.2c2,0,3.7,1.6,3.8,3.7
							l0.1,12.4C61.9,61.3,60.2,63,58.2,63"/>
						<path class="st16" d="M62.1,53.1c0.1,5.6-4.5,10.3-10.1,10.3c-5.6,0.1-10.3-4.5-10.3-10.1C41.6,47.7,46.2,43,51.8,43l0,0
							C57.5,43,62.1,47.5,62.1,53.1"/>
					</g>
				</g>
			</g>
			<polygon class="st17" points="55.6,46.9 48.2,46.9 44.5,53.5 48.3,59.9 55.7,59.9 59.3,53.3 			"/>
			<g>
				<g>
					<defs>
						
							<rect id="SVGID_15_" x="-9.8" y="2.7" transform="matrix(0.9915 -0.1302 0.1302 0.9915 -16.4004 9.4341)" width="147.5" height="254.9"/>
					</defs>
					<clipPath id="SVGID_16_">
						<use xlink:href="#SVGID_15_"  style="overflow:visible;"/>
					</clipPath>
					<g class="st24">
						<path class="st15" d="M34.2,120.7l-12.4,0.1c-2,0-3.7-1.6-3.8-3.7v-12.4c0-2,1.6-3.6,3.6-3.7l12.4-0.1c2,0,3.7,1.6,3.8,3.7
							l0.1,12.4C37.9,119,36.3,120.7,34.2,120.7"/>
						<path class="st16" d="M38.1,110.7c0.1,5.6-4.5,10.3-10.1,10.3s-10.3-4.5-10.3-10.1c-0.1-5.6,4.5-10.3,10.1-10.3l0,0
							C33.5,100.6,38.1,105.1,38.1,110.7"/>
						<path class="st17" d="M28,117.3c3.6,0,6.5-2.9,6.5-6.5s-2.9-6.5-6.5-6.5s-6.5,2.9-6.5,6.5v0.1C21.5,114.4,24.4,117.3,28,117.3
							"/>
						<path class="st15" d="M107.6,120.1l-12.4,0.1c-2,0-3.7-1.6-3.8-3.7l-0.1-12.4c0-2.1,1.7-3.7,3.7-3.7l12.4-0.1
							c2,0,3.7,1.6,3.8,3.7l0.1,12.4C111.3,118.4,109.6,120.1,107.6,120.1"/>
						<path class="st16" d="M111.5,110.2c0.1,5.6-4.5,10.3-10.1,10.3c-5.6,0.1-10.3-4.5-10.3-10.1c-0.1-5.6,4.5-10.3,10.1-10.3l0,0
							C106.8,100,111.4,104.5,111.5,110.2L111.5,110.2"/>
					</g>
				</g>
			</g>
			
				<rect x="95.8" y="104.9" transform="matrix(1 -7.853659e-03 7.853659e-03 1 -0.8628 0.7982)" class="st17" width="10.8" height="10.7"/>
			<g>
				<g>
					<defs>
						
							<rect id="SVGID_17_" x="-9.8" y="2.7" transform="matrix(0.9915 -0.1302 0.1302 0.9915 -16.4004 9.4341)" width="147.5" height="254.9"/>
					</defs>
					<clipPath id="SVGID_18_">
						<use xlink:href="#SVGID_17_"  style="overflow:visible;"/>
					</clipPath>
					<g class="st25">
						<path class="st15" d="M83.1,120.3l-12.4,0.1c-2.1,0-3.7-1.6-3.8-3.7l-0.1-12.4c0-2,1.6-3.7,3.7-3.7l12.4-0.1
							c2,0,3.7,1.6,3.8,3.7l0.1,12.4C86.8,118.6,85.2,120.3,83.1,120.3"/>
						<path class="st16" d="M87,110.3c0.1,5.6-4.5,10.3-10.1,10.3c-5.6,0.1-10.3-4.5-10.3-10.1c-0.1-5.6,4.5-10.3,10.1-10.3l0,0
							C82.3,100.2,86.9,104.7,87,110.3L87,110.3"/>
					</g>
				</g>
			</g>
			<polygon class="st17" points="76.9,103.4 69.2,115.6 76.8,115.6 84.5,115.7 			"/>
			<g>
				<g>
					<defs>
						
							<rect id="SVGID_19_" x="-9.8" y="2.7" transform="matrix(0.9915 -0.1302 0.1302 0.9915 -16.4004 9.4341)" width="147.5" height="254.9"/>
					</defs>
					<clipPath id="SVGID_20_">
						<use xlink:href="#SVGID_19_"  style="overflow:visible;"/>
					</clipPath>
					<g class="st26">
						<path class="st15" d="M58.7,120.5l-12.4,0.1c-2.1,0-3.7-1.6-3.8-3.7l-0.1-12.4c0-2,1.6-3.7,3.7-3.7l12.4-0.1
							c2,0,3.7,1.6,3.8,3.7l0.1,12.4C62.4,118.8,60.7,120.5,58.7,120.5"/>
						<path class="st16" d="M62.6,110.5c0.1,5.6-4.5,10.3-10.1,10.3s-10.3-4.5-10.3-10.1c-0.1-5.6,4.5-10.3,10.1-10.3l0,0
							C57.9,100.4,62.5,104.9,62.6,110.5"/>
					</g>
				</g>
			</g>
			<polygon class="st17" points="56,104.3 48.6,104.3 45,110.9 48.7,117.3 56.1,117.3 59.8,110.8 			"/>
			<g>
				<g>
					<defs>
						
							<rect id="SVGID_21_" x="-9.8" y="2.7" transform="matrix(0.9915 -0.1302 0.1302 0.9915 -16.4004 9.4341)" width="147.5" height="254.9"/>
					</defs>
					<clipPath id="SVGID_22_">
						<use xlink:href="#SVGID_21_"  style="overflow:visible;"/>
					</clipPath>
					<g class="st27">
						<path class="st15" d="M33.7,149l-12.4,0.1c-2,0-3.7-1.6-3.8-3.7L17.4,133c0-2,1.6-3.7,3.7-3.7l12.4-0.1c2.1,0,3.7,1.6,3.8,3.7
							l0.1,12.4C37.4,147.3,35.7,149,33.7,149"/>
						<path class="st16" d="M37.6,139.1c0.1,5.6-4.4,10.3-10.1,10.3s-10.3-4.4-10.3-10.1c-0.1-5.6,4.4-10.3,10.1-10.3c0,0,0,0,0.1,0
							C32.9,128.9,37.5,133.5,37.6,139.1L37.6,139.1"/>
						<path class="st17" d="M27.5,145.7c3.6,0,6.5-2.9,6.5-6.4c0-3.6-2.9-6.5-6.5-6.5s-6.5,2.9-6.5,6.4v0.1
							C21,142.8,23.9,145.7,27.5,145.7L27.5,145.7"/>
						<path class="st15" d="M107,148.4l-12.4,0.1c-2,0-3.7-1.6-3.8-3.7l-0.1-12.4c0-2,1.6-3.7,3.7-3.7l12.4-0.1c2,0,3.7,1.6,3.8,3.7
							l0.1,12.4C110.7,146.7,109,148.4,107,148.4"/>
						<path class="st16" d="M110.9,138.5c0.1,5.6-4.5,10.3-10.1,10.3c-5.6,0.1-10.3-4.5-10.3-10.1c-0.1-5.6,4.5-10.3,10.1-10.3l0,0
							C106.3,128.4,110.9,132.9,110.9,138.5"/>
					</g>
				</g>
			</g>
			
				<rect x="95.3" y="133.3" transform="matrix(1 -7.853659e-03 7.853659e-03 1 -1.0858 0.7952)" class="st17" width="10.8" height="10.7"/>
			<g>
				<g>
					<defs>
						
							<rect id="SVGID_23_" x="-9.8" y="2.7" transform="matrix(0.9915 -0.1302 0.1302 0.9915 -16.4004 9.4341)" width="147.5" height="254.9"/>
					</defs>
					<clipPath id="SVGID_24_">
						<use xlink:href="#SVGID_23_"  style="overflow:visible;"/>
					</clipPath>
					<g class="st28">
						<path class="st15" d="M82.6,148.6l-12.4,0.1c-2,0-3.7-1.6-3.8-3.7l-0.1-12.4c0-2.1,1.7-3.7,3.7-3.7l12.4-0.1
							c2,0,3.7,1.6,3.8,3.7l0.1,12.4C86.3,146.9,84.6,148.6,82.6,148.6"/>
						<path class="st16" d="M86.5,138.7c0.1,5.6-4.5,10.3-10.1,10.3c-5.6,0.1-10.3-4.5-10.3-10.1s4.5-10.3,10.1-10.3l0,0
							C81.8,128.6,86.4,133.1,86.5,138.7"/>
					</g>
				</g>
			</g>
			<polygon class="st17" points="76.3,131.8 68.7,143.9 76.3,144 84,144.1 			"/>
			<g>
				<g>
					<defs>
						
							<rect id="SVGID_25_" x="-9.8" y="2.7" transform="matrix(0.9915 -0.1302 0.1302 0.9915 -16.4004 9.4341)" width="147.5" height="254.9"/>
					</defs>
					<clipPath id="SVGID_26_">
						<use xlink:href="#SVGID_25_"  style="overflow:visible;"/>
					</clipPath>
					<g class="st29">
						<path class="st15" d="M58.1,148.8l-12.4,0.1c-2,0-3.7-1.6-3.7-3.7l-0.1-12.4c0-2,1.6-3.7,3.7-3.7L58,129c2,0,3.7,1.6,3.8,3.7
							l0.1,12.4C61.9,147.1,60.2,148.8,58.1,148.8"/>
						<path class="st16" d="M62,138.9c0.1,5.6-4.5,10.3-10.1,10.3c-5.6,0.1-10.3-4.5-10.3-10.1c-0.1-5.6,4.5-10.3,10.1-10.3l0,0
							C57.3,128.7,62,133.3,62,138.9L62,138.9"/>
					</g>
				</g>
			</g>
			<polygon class="st17" points="55.5,132.6 48.1,132.7 44.4,139.2 48.2,145.7 55.6,145.6 59.3,139.1 			"/>
			<g>
				<g>
					<defs>
						
							<rect id="SVGID_27_" x="-9.8" y="2.7" transform="matrix(0.9915 -0.1302 0.1302 0.9915 -16.4004 9.4341)" width="147.5" height="254.9"/>
					</defs>
					<clipPath id="SVGID_28_">
						<use xlink:href="#SVGID_27_"  style="overflow:visible;"/>
					</clipPath>
					<g class="st30">
						<path class="st15" d="M33.2,177.4l-12.4,0.1c-2,0-3.7-1.6-3.7-3.7L17,161.4c0-2,1.6-3.7,3.7-3.7l12.4-0.1c2,0,3.7,1.6,3.7,3.7
							l0.1,12.4C36.9,175.7,35.2,177.3,33.2,177.4C33.2,177.3,33.2,177.3,33.2,177.4"/>
						<path class="st16" d="M37.1,167.4c0.1,5.6-4.5,10.3-10.1,10.3s-10.3-4.5-10.3-10.1c-0.1-5.6,4.5-10.3,10.1-10.3l0,0
							C32.4,157.3,37,161.8,37.1,167.4L37.1,167.4"/>
						<path class="st17" d="M26.9,174c3.6,0,6.5-2.9,6.5-6.5s-2.9-6.5-6.5-6.5s-6.5,2.9-6.5,6.5v0.1C20.5,171.1,23.4,174,26.9,174
							L26.9,174"/>
						<path class="st15" d="M106.5,176.8l-12.4,0.1c-2,0-3.7-1.6-3.8-3.7l-0.1-12.4c0-2,1.6-3.7,3.7-3.7l0,0l12.4-0.1
							c2,0,3.7,1.6,3.8,3.7l0.1,12.4C110.2,175.1,108.5,176.8,106.5,176.8"/>
						<path class="st16" d="M110.4,166.9c0.1,5.6-4.5,10.3-10.1,10.3c-5.6,0.1-10.3-4.5-10.3-10.1c-0.1-5.6,4.5-10.3,10.1-10.3l0,0
							C105.7,156.7,110.3,161.2,110.4,166.9C110.4,166.8,110.4,166.8,110.4,166.9"/>
					</g>
				</g>
			</g>
			
				<rect x="94.8" y="161.6" transform="matrix(1 -7.853659e-03 7.853659e-03 1 -1.3081 0.7921)" class="st17" width="10.8" height="10.7"/>
			<g>
				<g>
					<defs>
						
							<rect id="SVGID_29_" x="-9.8" y="2.7" transform="matrix(0.9915 -0.1302 0.1302 0.9915 -16.4004 9.4341)" width="147.5" height="254.9"/>
					</defs>
					<clipPath id="SVGID_30_">
						<use xlink:href="#SVGID_29_"  style="overflow:visible;"/>
					</clipPath>
					<g class="st31">
						<path class="st15" d="M82.1,177l-12.4,0.1c-2,0-3.7-1.6-3.8-3.7L65.8,161c0-2,1.6-3.7,3.7-3.7l0,0l12.4-0.1
							c2.1,0,3.7,1.6,3.8,3.7l0.1,12.4C85.8,175.3,84.1,177,82.1,177L82.1,177"/>
						<path class="st16" d="M86,167c0.1,5.6-4.4,10.3-10,10.4s-10.3-4.4-10.4-10s4.4-10.3,10-10.4h0.1C81.3,156.9,85.9,161.4,86,167
							"/>
					</g>
				</g>
			</g>
			<polygon class="st17" points="75.8,160.1 68.1,172.3 75.8,172.3 83.4,172.4 			"/>
			<g>
				<g>
					<defs>
						
							<rect id="SVGID_31_" x="-9.8" y="2.7" transform="matrix(0.9915 -0.1302 0.1302 0.9915 -16.4004 9.4341)" width="147.5" height="254.9"/>
					</defs>
					<clipPath id="SVGID_32_">
						<use xlink:href="#SVGID_31_"  style="overflow:visible;"/>
					</clipPath>
					<g class="st32">
						<path class="st15" d="M57.6,177.2l-12.4,0.1c-2,0-3.7-1.6-3.8-3.7l-0.1-12.4c0-2,1.6-3.7,3.7-3.7l12.4-0.1
							c2,0,3.7,1.6,3.8,3.6l0.1,12.4C61.3,175.4,59.7,177.1,57.6,177.2"/>
						<path class="st16" d="M61.5,167.2c0.1,5.6-4.5,10.3-10.1,10.3s-10.3-4.5-10.3-10.1c-0.1-5.6,4.5-10.3,10.1-10.3l0,0
							C56.9,157.1,61.5,161.6,61.5,167.2L61.5,167.2"/>
					</g>
				</g>
			</g>
			<polygon class="st17" points="55,161 47.6,161 43.9,167.6 47.7,174 55.1,174 58.7,167.4 			"/>
			<g>
				<g>
					<defs>
						
							<rect id="SVGID_33_" x="-9.8" y="2.7" transform="matrix(0.9915 -0.1302 0.1302 0.9915 -16.4004 9.4341)" width="147.5" height="254.9"/>
					</defs>
					<clipPath id="SVGID_34_">
						<use xlink:href="#SVGID_33_"  style="overflow:visible;"/>
					</clipPath>
					<g class="st33">
						<path class="st15" d="M32.9,205.6l-12.4,0.1c-2,0-3.7-1.6-3.8-3.7l-0.1-12.4c0-2,1.6-3.7,3.7-3.7l12.4-0.1
							c2,0,3.7,1.6,3.8,3.7l0.1,12.4C36.6,203.9,34.9,205.6,32.9,205.6"/>
						<path class="st16" d="M36.8,195.6c0.1,5.6-4.5,10.3-10.1,10.3c-5.6,0.1-10.3-4.5-10.3-10.1c-0.1-5.6,4.5-10.3,10.1-10.3l0,0
							C32.1,185.5,36.7,190,36.8,195.6L36.8,195.6"/>
						<path class="st17" d="M26.6,202.2c3.6,0,6.5-2.9,6.5-6.5s-2.9-6.5-6.5-6.5s-6.5,2.9-6.5,6.5v0.1
							C20.2,199.3,23.1,202.2,26.6,202.2L26.6,202.2"/>
						<path class="st15" d="M106.2,205l-12.4,0.1c-2.1,0-3.7-1.6-3.8-3.7l0,0L89.9,189c0-2,1.6-3.7,3.7-3.7l12.4-0.1
							c2,0,3.7,1.6,3.8,3.7l0.1,12.4C109.9,203.3,108.3,205,106.2,205L106.2,205"/>
						<path class="st16" d="M110.1,195.1c0.1,5.6-4.4,10.3-10.1,10.3s-10.3-4.4-10.3-10.1c-0.1-5.6,4.4-10.3,10.1-10.3
							c0,0,0,0,0.1,0C105.5,185,110.1,189.5,110.1,195.1"/>
					</g>
				</g>
			</g>
			
				<rect x="94.5" y="189.8" transform="matrix(1 -7.853659e-03 7.853659e-03 1 -1.5296 0.7906)" class="st17" width="10.8" height="10.7"/>
			<g>
				<g>
					<defs>
						
							<rect id="SVGID_35_" x="-9.8" y="2.7" transform="matrix(0.9915 -0.1302 0.1302 0.9915 -16.4004 9.4341)" width="147.5" height="254.9"/>
					</defs>
					<clipPath id="SVGID_36_">
						<use xlink:href="#SVGID_35_"  style="overflow:visible;"/>
					</clipPath>
					<g class="st34">
						<path class="st15" d="M81.8,205.2l-12.4,0.1c-2,0-3.7-1.6-3.8-3.7l-0.1-12.4c0-2,1.6-3.7,3.7-3.7l12.4-0.1
							c2,0,3.7,1.6,3.8,3.7l0.1,12.4C85.5,203.5,83.8,205.2,81.8,205.2"/>
						<path class="st16" d="M85.7,195.3c0.1,5.6-4.5,10.3-10.1,10.3s-10.3-4.5-10.3-10.1s4.5-10.3,10.1-10.3l0,0
							C81,185.1,85.6,189.6,85.7,195.3"/>
					</g>
				</g>
			</g>
			<polygon class="st17" points="75.5,188.3 67.8,200.5 75.5,200.6 83.2,200.6 			"/>
			<g>
				<g>
					<defs>
						
							<rect id="SVGID_37_" x="-9.8" y="2.7" transform="matrix(0.9915 -0.1302 0.1302 0.9915 -16.4004 9.4341)" width="147.5" height="254.9"/>
					</defs>
					<clipPath id="SVGID_38_">
						<use xlink:href="#SVGID_37_"  style="overflow:visible;"/>
					</clipPath>
					<g class="st35">
						<path class="st15" d="M57.3,205.4l-12.4,0.1c-2,0-3.7-1.6-3.8-3.7L41,189.4c0-2,1.6-3.7,3.7-3.7l12.4-0.1c2,0,3.7,1.6,3.8,3.7
							l0.1,12.4C61,203.7,59.3,205.4,57.3,205.4"/>
						<path class="st16" d="M61.2,195.4c0.1,5.6-4.5,10.3-10.1,10.3c-5.6,0.1-10.3-4.5-10.3-10.1c-0.1-5.6,4.5-10.3,10.1-10.3H51
							C56.6,185.3,61.2,189.8,61.2,195.4"/>
					</g>
				</g>
			</g>
			<polygon class="st17" points="54.7,189.2 47.3,189.3 43.6,195.8 47.4,202.3 54.8,202.2 58.5,195.7 			"/>
			<g>
				<g>
					<defs>
						
							<rect id="SVGID_39_" x="-9.8" y="2.7" transform="matrix(0.9915 -0.1302 0.1302 0.9915 -16.4004 9.4341)" width="147.5" height="254.9"/>
					</defs>
					<clipPath id="SVGID_40_">
						<use xlink:href="#SVGID_39_"  style="overflow:visible;"/>
					</clipPath>
					<g class="st36">
						<path class="st15" d="M82.9,91.6l-12.4,0.1c-2,0-3.7-1.6-3.8-3.7l-0.1-12.4c0-2.1,1.6-3.7,3.7-3.7l12.4-0.1
							c2,0,3.7,1.6,3.7,3.7l0.1,12.4C86.6,89.9,84.9,91.6,82.9,91.6"/>
						<path class="st16" d="M86.8,81.6c0.1,5.6-4.5,10.3-10.1,10.3c-5.6,0.1-10.3-4.5-10.3-10.1s4.5-10.3,10.1-10.3l0,0
							C82.1,71.5,86.7,76,86.8,81.6L86.8,81.6"/>
					</g>
				</g>
			</g>
			<polygon class="st17" points="80.3,75.4 72.8,75.4 69.2,82 72.9,88.4 80.3,88.4 84,81.9 			"/>
			<g class="st37">
				<g>
					<g>
						<defs>
							
								<rect id="SVGID_41_" x="-16.3" y="0.7" transform="matrix(0.9916 -0.1297 0.1297 0.9916 -14.8512 5.6635)" width="104.7" height="232.3"/>
						</defs>
						<clipPath id="SVGID_42_">
							<use xlink:href="#SVGID_41_"  style="overflow:visible;"/>
						</clipPath>
						<g class="st38">
							<path class="st12" d="M34.2,11.7h-12c-4,0-7.8,1.6-10.7,4.4c-2.8,2.8-4.4,6.6-4.4,10.6L6.9,228L65.2,18.7H38.5
								c-2.4,0-4.4-2-4.4-4.4v-2.6H34.2z"/>
						</g>
					</g>
				</g>
			</g>
			
				<rect x="-9.8" y="2.7" transform="matrix(0.9915 -0.1302 0.1302 0.9915 -16.4004 9.4341)" class="st39" width="147.5" height="254.9"/>
		</g>
	</g>
</g>
<polygon class="st20" points="109.3,66.8 121.7,71.9 135,71.9 144.4,81.3 156.8,86.4 161.9,98.7 171.3,108.1 171.3,121.5 
	176.4,133.8 171.3,146.1 171.3,159.4 161.9,168.9 156.8,181.2 144.4,186.3 135,195.7 121.7,195.7 109.3,200.8 97,195.7 83.7,195.7 
	74.3,186.3 62,181.2 56.8,168.9 47.4,159.4 47.4,146.1 42.3,133.8 47.4,121.5 47.4,108.1 56.8,98.7 62,86.4 74.3,81.3 83.7,71.9 
	97,71.9 "/>
<g>
	<g>
		<g>
			<defs>
				<polygon id="SVGID_43_" points="109.3,66.8 121.7,71.9 135,71.9 144.4,81.3 156.8,86.4 161.9,98.7 171.3,108.1 171.3,121.5 
					176.4,133.8 171.3,146.1 171.3,159.4 161.9,168.9 156.8,181.2 144.4,186.3 135,195.7 121.7,195.7 109.3,200.8 97,195.7 
					83.7,195.7 74.3,186.3 62,181.2 56.8,168.9 47.4,159.4 47.4,146.1 42.3,133.8 47.4,121.5 47.4,108.1 56.8,98.7 62,86.4 
					74.3,81.3 83.7,71.9 97,71.9 				"/>
			</defs>
			<clipPath id="SVGID_44_">
				<use xlink:href="#SVGID_43_"  style="overflow:visible;"/>
			</clipPath>
			<g class="st40">
				<polygon class="st41" points="-52.1,-14.8 47,210.3 148.6,32.3 				"/>
			</g>
		</g>
	</g>
	<g class="st42">
		<path d="M96.7,113c0,1.5-0.4,2.6-1.2,3.4c-0.8,0.8-1.8,1.2-3.2,1.2c-0.6,0-1.1-0.1-1.5-0.2v-1.9c0.4,0.2,0.8,0.3,1.4,0.3
			c1.5,0,2.2-1.1,2.2-3.2V105h2.2L96.7,113L96.7,113z"/>
		<path d="M107.8,113.6h-6.6c0,0.8,0.3,1.4,0.8,1.9c0.5,0.4,1.2,0.7,2.2,0.7s2-0.3,2.8-0.8v1.6c-0.9,0.5-2,0.8-3.5,0.8
			c-1.4,0-2.5-0.4-3.3-1.2c-0.8-0.8-1.2-1.9-1.2-3.4c0-1.4,0.4-2.5,1.3-3.4s2-1.3,3.3-1.3s2.3,0.4,3.1,1.2c0.7,0.8,1.1,1.9,1.1,3.2
			C107.8,112.9,107.8,113.6,107.8,113.6z M105.7,112.1c0-0.7-0.2-1.3-0.6-1.7s-0.9-0.6-1.5-0.6s-1.2,0.2-1.6,0.6s-0.7,1-0.8,1.6
			L105.7,112.1L105.7,112.1z"/>
		<path d="M114.9,117.3c-0.4,0.2-1,0.3-1.7,0.3c-1.9,0-2.8-0.8-2.8-2.5v-5h-1.6v-1.6h1.6v-2l2.2-0.6v2.6h2.3v1.6h-2.3v4.4
			c0,0.5,0.1,0.9,0.3,1.1c0.2,0.2,0.6,0.3,1,0.3s0.7-0.1,1-0.3V117.3z"/>
		<path d="M123.9,109.4l-5.2,6.4h5.2v1.6h-8.2v-0.8l5.3-6.5h-4.8v-1.6h7.7V109.4z"/>
		<path d="M130.8,117.3c-0.4,0.2-1,0.3-1.7,0.3c-1.9,0-2.8-0.8-2.8-2.5v-5h-1.6v-1.6h1.6v-2l2.2-0.6v2.6h2.3v1.6h-2.3v4.4
			c0,0.5,0.1,0.9,0.3,1.1s0.6,0.3,1,0.3s0.7-0.1,1-0.3V117.3z"/>
	</g>
	<g class="st42">
		<path d="M70.9,134.1v4.5h-2.2v-12.4h4.1c1.5,0,2.7,0.3,3.6,1s1.3,1.6,1.3,2.8s-0.4,2.2-1.3,2.9c-0.9,0.8-2.1,1.1-3.6,1.1h-1.9
			V134.1z M70.9,127.9v4.5h1.4c1,0,1.7-0.2,2.2-0.6c0.5-0.4,0.8-1,0.8-1.7c0-1.5-0.9-2.2-2.8-2.2C72.5,127.9,70.9,127.9,70.9,127.9z
			"/>
		<path d="M90.3,138.6h-2.6l-2.2-3.3c-0.2-0.3-0.4-0.6-0.6-0.8s-0.4-0.4-0.6-0.5s-0.4-0.2-0.6-0.3s-0.5-0.1-0.8-0.1H82v5h-2.2v-12.4
			h4.4c0.6,0,1.2,0.1,1.7,0.2s1,0.3,1.4,0.6c0.4,0.3,0.7,0.6,0.9,1c0.2,0.4,0.3,0.9,0.3,1.5c0,0.4-0.1,0.8-0.2,1.2s-0.3,0.7-0.6,1
			c-0.3,0.3-0.6,0.5-0.9,0.7s-0.8,0.4-1.2,0.5l0,0c0.2,0.1,0.5,0.3,0.6,0.4s0.4,0.3,0.5,0.5s0.3,0.3,0.5,0.5s0.3,0.4,0.5,0.7
			L90.3,138.6z M82.1,127.9v4H84c0.3,0,0.7,0,1-0.1s0.5-0.2,0.8-0.4c0.2-0.2,0.4-0.4,0.5-0.7s0.2-0.6,0.2-0.9c0-0.6-0.2-1.1-0.6-1.4
			s-1-0.5-1.8-0.5C84.1,127.9,82.1,127.9,82.1,127.9z"/>
		<path d="M99.4,138.6h-7.6v-12.4h7.3v1.7h-5v3.5h4.6v1.7h-4.6v3.7h5.3C99.4,136.8,99.4,138.6,99.4,138.6z"/>
		<path d="M116.3,138.6h-2.2v-8c0-0.7,0-1.5,0.1-2.4l0,0c-0.1,0.5-0.3,0.9-0.4,1.2l-4,9.2h-1.5l-4-9.2c-0.1-0.3-0.2-0.7-0.4-1.2l0,0
			c0,0.5,0.1,1.3,0.1,2.4v8h-2.1v-12.4h3.1l3.5,8.2c0.3,0.6,0.4,1.1,0.5,1.4l0,0c0.2-0.6,0.4-1.1,0.6-1.4l3.6-8.2h3v12.4H116.3z"/>
		<path d="M121.9,138.6h-2.3v-12.4h2.3V138.6z"/>
		<path d="M135.6,133.6c0,3.5-1.8,5.2-5.4,5.2c-3.4,0-5.1-1.7-5.1-5v-7.6h2.2v7.1c0,2.4,1,3.6,3.1,3.6c2,0,3-1.2,3-3.5v-7.3h2.2
			V133.6z"/>
		<path d="M153.2,138.6H151v-8c0-0.7,0-1.5,0.1-2.4l0,0c-0.1,0.5-0.3,0.9-0.4,1.2l-4,9.2h-1.5l-4-9.2c-0.1-0.3-0.2-0.7-0.4-1.2l0,0
			c0,0.5,0.1,1.3,0.1,2.4v8h-2.1v-12.4h3.1l3.5,8.2c0.3,0.6,0.4,1.1,0.5,1.4l0,0c0.2-0.6,0.4-1.1,0.6-1.4l3.6-8.2h3L153.2,138.6
			L153.2,138.6z"/>
	</g>
	<g class="st42">
		<path d="M72.3,158.5L72.3,158.5v1.3h-2.2v-13.1h2.2v5.8l0,0c0.7-1.2,1.8-1.8,3.3-1.8c1.2,0,2.2,0.4,2.9,1.2c0.7,0.8,1,1.8,1,3.2
			c0,1.5-0.4,2.7-1.2,3.5s-1.8,1.3-3.2,1.3C73.9,160,72.9,159.5,72.3,158.5z M72.2,155v1.1c0,0.6,0.2,1.2,0.7,1.6
			c0.4,0.4,1,0.7,1.7,0.7c0.8,0,1.4-0.3,1.9-0.9c0.5-0.6,0.7-1.4,0.7-2.4c0-0.9-0.2-1.5-0.6-2s-1-0.7-1.7-0.7
			c-0.8,0-1.4,0.3-1.9,0.8C72.5,153.6,72.2,154.3,72.2,155z"/>
		<path d="M89.8,155.9h-6.6c0,0.8,0.3,1.4,0.8,1.9c0.5,0.4,1.2,0.7,2.2,0.7s2-0.3,2.8-0.8v1.6c-0.9,0.5-2,0.8-3.5,0.8
			c-1.4,0-2.5-0.4-3.3-1.2S81,157,81,155.5c0-1.4,0.4-2.5,1.3-3.4s2-1.3,3.3-1.3s2.3,0.4,3.1,1.2c0.7,0.8,1.1,1.9,1.1,3.2
			C89.8,155.2,89.8,155.9,89.8,155.9z M87.7,154.5c0-0.7-0.2-1.3-0.6-1.7s-0.9-0.6-1.5-0.6s-1.2,0.2-1.6,0.6c-0.4,0.4-0.7,1-0.8,1.6
			L87.7,154.5L87.7,154.5z"/>
		<path d="M91.3,159.5v-1.9c0.8,0.6,1.7,0.9,2.7,0.9c1.3,0,2-0.4,2-1.1c0-0.2-0.1-0.4-0.2-0.5s-0.3-0.3-0.5-0.4
			c-0.2-0.1-0.4-0.2-0.7-0.3c-0.3-0.1-0.5-0.2-0.9-0.3s-0.8-0.3-1.1-0.5s-0.6-0.3-0.8-0.5c-0.2-0.2-0.4-0.4-0.5-0.7
			s-0.2-0.6-0.2-0.9c0-0.4,0.1-0.8,0.3-1.1c0.2-0.3,0.5-0.6,0.9-0.8s0.8-0.4,1.3-0.5s1-0.2,1.5-0.2c0.9,0,1.7,0.1,2.4,0.4v1.7
			c-0.7-0.4-1.5-0.6-2.3-0.6c-0.3,0-0.5,0-0.7,0.1s-0.4,0.1-0.6,0.2c-0.2,0.1-0.3,0.2-0.4,0.3s-0.1,0.3-0.1,0.4c0,0.2,0,0.4,0.1,0.5
			s0.2,0.2,0.4,0.3c0.2,0.1,0.4,0.2,0.6,0.3s0.5,0.2,0.8,0.3c0.4,0.2,0.8,0.3,1.1,0.5c0.3,0.2,0.6,0.3,0.8,0.5
			c0.2,0.2,0.4,0.4,0.5,0.7s0.2,0.6,0.2,1s-0.1,0.8-0.3,1.2s-0.5,0.6-0.9,0.8s-0.8,0.4-1.3,0.5s-1,0.2-1.6,0.2
			C93,160,92.1,159.8,91.3,159.5z"/>
	</g>
	<g class="st42">
		<path d="M105.3,159.7c-0.4,0.2-1,0.3-1.7,0.3c-1.9,0-2.8-0.8-2.8-2.5v-5h-1.6V151h1.6v-2l2.2-0.6v2.6h2.3v1.6H103v4.4
			c0,0.5,0.1,0.9,0.3,1.1c0.2,0.2,0.6,0.3,1,0.3s0.7-0.1,1-0.3V159.7z"/>
	</g>
	<g class="st42">
		<path d="M115.2,155.9h-6.6c0,0.8,0.3,1.4,0.8,1.9c0.5,0.4,1.2,0.7,2.2,0.7s2-0.3,2.8-0.8v1.6c-0.9,0.5-2,0.8-3.5,0.8
			c-1.4,0-2.5-0.4-3.3-1.2s-1.2-1.9-1.2-3.4c0-1.4,0.4-2.5,1.3-3.4s2-1.3,3.3-1.3s2.3,0.4,3.1,1.2c0.7,0.8,1.1,1.9,1.1,3.2
			C115.2,155.2,115.2,155.9,115.2,155.9z M113.1,154.5c0-0.7-0.2-1.3-0.6-1.7s-0.9-0.6-1.5-0.6s-1.2,0.2-1.6,0.6
			c-0.4,0.4-0.7,1-0.8,1.6L113.1,154.5L113.1,154.5z"/>
		<path d="M119.4,159.8h-2.2v-13.1h2.2V159.8z"/>
		<path d="M124.5,159.8h-2.2v-13.1h2.2V159.8z"/>
		<path d="M135.4,155.9h-6.6c0,0.8,0.3,1.4,0.8,1.9c0.5,0.4,1.2,0.7,2.2,0.7s2-0.3,2.8-0.8v1.6c-0.9,0.5-2,0.8-3.5,0.8
			c-1.4,0-2.5-0.4-3.3-1.2s-1.2-1.9-1.2-3.4c0-1.4,0.4-2.5,1.3-3.4c0.9-0.9,2-1.3,3.3-1.3s2.3,0.4,3.1,1.2c0.7,0.8,1.1,1.9,1.1,3.2
			L135.4,155.9L135.4,155.9z M133.3,154.5c0-0.7-0.2-1.3-0.6-1.7s-0.9-0.6-1.5-0.6s-1.2,0.2-1.6,0.6c-0.4,0.4-0.7,1-0.8,1.6
			L133.3,154.5L133.3,154.5z"/>
		<path d="M146.1,159.8h-2.2v-5c0-1.6-0.6-2.5-1.9-2.5c-0.7,0-1.2,0.2-1.6,0.7c-0.4,0.5-0.6,1-0.6,1.7v5h-2.2V151h2.2v1.5l0,0
			c0.7-1.1,1.8-1.7,3.1-1.7c1,0,1.8,0.3,2.4,0.9c0.6,0.6,0.8,1.5,0.8,2.7V159.8z"/>
		<path d="M150.3,160c-0.4,0-0.7-0.1-1-0.3s-0.4-0.5-0.4-0.8s0.1-0.6,0.4-0.8c0.3-0.2,0.6-0.3,1-0.3s0.7,0.1,0.9,0.3
			c0.3,0.2,0.4,0.5,0.4,0.8s-0.1,0.6-0.4,0.8C150.9,159.9,150.6,160,150.3,160z M151.3,147.4l-0.2,8.7h-1.8l-0.2-8.7H151.3z"/>
	</g>
</g>
<linearGradient id="SVGID_45_" gradientUnits="userSpaceOnUse" x1="137.875" y1="243.5" x2="137.875" y2="201.25">
	<stop  offset="1" style="stop-color:#E11E19"/>
	<stop  offset="1" style="stop-color:#E11E19"/>
	<stop  offset="1" style="stop-color:#E01E1B"/>
</linearGradient>
<path class="st43" d="M152.5,243.5h-29.3c-3.6,0-6.5-2.9-6.5-6.5v-29.3c0-3.6,2.9-6.5,6.5-6.5h29.3c3.6,0,6.5,2.9,6.5,6.5V237
	C159,240.6,156.1,243.5,152.5,243.5z"/>
<g>
	<image style="overflow:visible;" width="25" height="32" xlink:href="801C1461.png"  transform="matrix(1 0 0 1 127.025 207.325)">
	</image>
	<g>
		<g>
			<g>
				<polygon class="st17" points="135.3,232.8 127.9,225.7 127.9,229.9 135.3,237.2 150.2,221.9 150.2,217.6 				"/>
			</g>
			<g>
				<path class="st17" d="M147.4,217v-8.1l-18.6,0v14.2l6.3,6.3L147.4,217z M130.9,222v-3.2h5.4c0.4,0,0.7-0.3,0.7-0.7
					c0-0.4-0.3-0.7-0.7-0.7h-5.4v-2.6h7.8c0.4,0,0.7-0.3,0.7-0.7l0,0c0-0.4-0.3-0.7-0.7-0.7h-7.8v-2.5h14.2l0,5.1L135,226.1
					L130.9,222z"/>
			</g>
		</g>
	</g>
</g>
</svg>
