<svg xmlns="http://www.w3.org/2000/svg" viewBox="0 0 75 75"><defs><style>.cls-1{fill:#e95653;}.cls-2{fill:#b0565f;}.cls-3{fill:#f9d2d1;}.cls-4{fill:#fff;}</style></defs><title>infos-plus</title><g id="Layer_2" data-name="Layer 2"><g id="Layer_1-2" data-name="Layer 1"><circle class="cls-1" cx="37.5" cy="37.5" r="37.5"/><path class="cls-2" d="M38.68,14.79c.1,5-.33,6.31-2.88,6.83,2.09,1.4,9.65,7.11,18.26,13.63.47-1.52.38-4.23.2-7.75C45.94,21,39.13,15.62,38.68,14.79Z"/><path class="cls-2" d="M39,32c1.25,33.83-9,34.52-11.54,35a117.83,117.83,0,0,1,14.43,7.72A37.49,37.49,0,0,0,70.11,56C60.21,48,40,33.79,39,32Z"/><path class="cls-2" d="M53.94,18.9c.1,9.23,1.3,16.17-.59,17.51,5.49,4.24,13.22,9.43,19.46,13.73A37.51,37.51,0,0,0,75,37.5c0-.45,0-.89,0-1.33C65.8,28.65,54.56,20,53.94,18.9Z"/><path class="cls-3" d="M62.12,27.47v1.82a.61.61,0,0,1-.62.61h-7v7.31a.61.61,0,0,1-.62.61H51.53a.61.61,0,0,1-.62-.61V29.9H43.69a.61.61,0,0,1-.61-.61V27.47a.61.61,0,0,1,.61-.62H50.8V19.4a.62.62,0,0,1,.62-.62H53.7a.62.62,0,0,1,.62.62v7.45H61.5A.62.62,0,0,1,62.12,27.47Z"/><path class="cls-4" d="M27.5,38.6v-2A45.57,45.57,0,0,0,38.93,32l.94.76q-.73,7.67-.75,21.73a56.64,56.64,0,0,0,.31,8.09A2.57,2.57,0,0,0,40.19,64,15.18,15.18,0,0,0,44,65.42l1.19.36v2q-4.74-.4-7.77-.4c-1.23,0-4.54.12-9.91.38v-2c3.26-.79,5.09-1.51,5.5-2.18s.62-4.12.63-10.39l0-7.7V44c0-2.7-.18-4.33-.54-4.88a1.91,1.91,0,0,0-1.73-.84C30.79,38.28,29.53,38.39,27.5,38.6Zm9-24a3.77,3.77,0,0,1,3.79,3.81,3.67,3.67,0,0,1-1.11,2.67,3.62,3.62,0,0,1-2.69,1.12A3.58,3.58,0,0,1,33.87,21a3.81,3.81,0,0,1,0-5.37A3.63,3.63,0,0,1,36.54,14.57Z"/></g></g></svg>