<svg id="Ebene_1" data-name="Ebene 1" xmlns="http://www.w3.org/2000/svg" viewBox="0 0 452.01 450.79"><defs><style>.cls-1{fill:#3f4040;}</style></defs><title>Zeichenfläche 1</title><rect class="cls-1" x="2.88" y="3.21" width="12.05" height="84.36"/><rect class="cls-1" x="2.88" y="99.62" width="12.05" height="24.1"/><rect class="cls-1" x="2.88" y="159.88" width="12.05" height="12.05"/><rect class="cls-1" x="2.88" y="183.98" width="12.05" height="24.1"/><rect class="cls-1" x="2.88" y="220.14" width="12.05" height="12.05"/><rect class="cls-1" x="2.88" y="244.24" width="12.05" height="24.1"/><rect class="cls-1" x="2.88" y="304.5" width="12.05" height="48.21"/><rect class="cls-1" x="2.88" y="364.75" width="12.05" height="84.36"/><rect class="cls-1" x="14.93" y="3.21" width="12.05" height="12.05"/><rect class="cls-1" x="14.93" y="75.52" width="12.05" height="12.05"/><rect class="cls-1" x="14.93" y="123.73" width="12.05" height="24.1"/><rect class="cls-1" x="14.93" y="183.98" width="12.05" height="36.15"/><rect class="cls-1" x="14.93" y="244.24" width="12.05" height="12.05"/><rect class="cls-1" x="14.93" y="268.34" width="12.05" height="36.15"/><rect class="cls-1" x="14.93" y="364.75" width="12.05" height="12.05"/><rect class="cls-1" x="14.93" y="437.06" width="12.05" height="12.05"/><rect class="cls-1" x="26.99" y="3.21" width="12.05" height="12.05"/><rect class="cls-1" x="26.99" y="27.31" width="12.05" height="36.15"/><rect class="cls-1" x="26.99" y="75.52" width="12.05" height="12.05"/><rect class="cls-1" x="26.99" y="99.62" width="12.05" height="12.05"/><rect class="cls-1" x="26.99" y="135.78" width="12.05" height="24.1"/><rect class="cls-1" x="26.99" y="183.98" width="12.05" height="12.05"/><rect class="cls-1" x="26.99" y="220.14" width="12.05" height="24.1"/><rect class="cls-1" x="26.99" y="292.45" width="12.05" height="12.05"/><rect class="cls-1" x="26.99" y="328.6" width="12.05" height="24.1"/><rect class="cls-1" x="26.99" y="364.75" width="12.05" height="12.05"/><rect class="cls-1" x="26.99" y="388.86" width="12.05" height="36.15"/><rect class="cls-1" x="26.99" y="437.06" width="12.05" height="12.05"/><rect class="cls-1" x="39.03" y="3.21" width="12.05" height="12.05"/><rect class="cls-1" x="39.03" y="27.31" width="12.05" height="36.15"/><rect class="cls-1" x="39.03" y="75.52" width="12.05" height="12.05"/><rect class="cls-1" x="39.03" y="99.62" width="12.05" height="12.05"/><rect class="cls-1" x="39.03" y="171.93" width="12.05" height="36.15"/><rect class="cls-1" x="39.03" y="220.14" width="12.05" height="60.26"/><rect class="cls-1" x="39.03" y="304.5" width="12.05" height="12.05"/><rect class="cls-1" x="39.03" y="328.6" width="12.05" height="12.05"/><rect class="cls-1" x="39.03" y="364.75" width="12.05" height="12.05"/><rect class="cls-1" x="39.03" y="388.86" width="12.05" height="36.15"/><rect class="cls-1" x="39.03" y="437.06" width="12.05" height="12.05"/><rect class="cls-1" x="51.08" y="3.21" width="12.05" height="12.05"/><rect class="cls-1" x="51.08" y="27.31" width="12.05" height="36.15"/><rect class="cls-1" x="51.08" y="75.52" width="12.05" height="12.05"/><rect class="cls-1" x="51.08" y="99.62" width="12.05" height="24.1"/><rect class="cls-1" x="51.08" y="183.98" width="12.05" height="48.21"/><rect class="cls-1" x="51.08" y="244.24" width="12.05" height="48.21"/><rect class="cls-1" x="51.08" y="316.55" width="12.05" height="36.15"/><rect class="cls-1" x="51.08" y="364.75" width="12.05" height="12.05"/><rect class="cls-1" x="51.08" y="388.86" width="12.05" height="36.15"/><rect class="cls-1" x="51.08" y="437.06" width="12.05" height="12.05"/><rect class="cls-1" x="63.14" y="3.21" width="12.05" height="12.05"/><rect class="cls-1" x="63.14" y="75.52" width="12.05" height="12.05"/><rect class="cls-1" x="63.14" y="99.62" width="12.05" height="12.05"/><rect class="cls-1" x="63.14" y="123.73" width="12.05" height="12.05"/><rect class="cls-1" x="63.14" y="159.88" width="12.05" height="12.05"/><rect class="cls-1" x="63.14" y="183.98" width="12.05" height="12.05"/><rect class="cls-1" x="63.14" y="208.09" width="12.05" height="12.05"/><rect class="cls-1" x="63.14" y="244.24" width="12.05" height="24.1"/><rect class="cls-1" x="63.14" y="280.39" width="12.05" height="12.05"/><rect class="cls-1" x="63.14" y="304.5" width="12.05" height="12.05"/><rect class="cls-1" x="63.14" y="328.6" width="12.05" height="12.05"/><rect class="cls-1" x="63.14" y="364.75" width="12.05" height="12.05"/><rect class="cls-1" x="63.14" y="437.06" width="12.05" height="12.05"/><rect class="cls-1" x="75.19" y="3.21" width="12.05" height="84.36"/><rect class="cls-1" x="75.19" y="99.62" width="12.05" height="12.05"/><rect class="cls-1" x="75.19" y="123.73" width="12.05" height="12.05"/><rect class="cls-1" x="75.19" y="147.83" width="12.05" height="12.05"/><rect class="cls-1" x="75.19" y="171.93" width="12.05" height="12.05"/><rect class="cls-1" x="75.19" y="196.03" width="12.05" height="12.05"/><rect class="cls-1" x="75.19" y="220.14" width="12.05" height="12.05"/><rect class="cls-1" x="75.19" y="244.24" width="12.05" height="12.05"/><rect class="cls-1" x="75.19" y="268.34" width="12.05" height="12.05"/><rect class="cls-1" x="75.19" y="292.45" width="12.05" height="12.05"/><rect class="cls-1" x="75.19" y="316.55" width="12.05" height="12.05"/><rect class="cls-1" x="75.19" y="340.65" width="12.05" height="12.05"/><rect class="cls-1" x="75.19" y="364.75" width="12.05" height="84.36"/><rect class="cls-1" x="87.24" y="123.73" width="12.05" height="36.15"/><rect class="cls-1" x="87.24" y="171.93" width="12.05" height="12.05"/><rect class="cls-1" x="87.24" y="196.03" width="12.05" height="36.15"/><rect class="cls-1" x="87.24" y="256.29" width="12.05" height="24.1"/><rect class="cls-1" x="87.24" y="304.5" width="12.05" height="12.05"/><rect class="cls-1" x="99.29" y="27.31" width="12.05" height="72.31"/><rect class="cls-1" x="99.29" y="159.88" width="12.05" height="12.05"/><rect class="cls-1" x="99.29" y="220.14" width="12.05" height="12.05"/><rect class="cls-1" x="99.29" y="244.24" width="12.05" height="60.26"/><rect class="cls-1" x="99.29" y="316.55" width="12.05" height="24.1"/><rect class="cls-1" x="99.29" y="352.7" width="12.05" height="12.05"/><rect class="cls-1" x="99.29" y="376.81" width="12.05" height="48.21"/><rect class="cls-1" x="99.29" y="437.06" width="12.05" height="12.05"/><rect class="cls-1" x="111.35" y="15.26" width="12.05" height="48.21"/><rect class="cls-1" x="111.35" y="99.62" width="12.05" height="60.26"/><rect class="cls-1" x="111.35" y="171.93" width="12.05" height="12.05"/><rect class="cls-1" x="111.35" y="208.09" width="12.05" height="12.05"/><rect class="cls-1" x="111.35" y="232.19" width="12.05" height="24.1"/><rect class="cls-1" x="111.35" y="268.34" width="12.05" height="12.05"/><rect class="cls-1" x="111.35" y="316.55" width="12.05" height="60.26"/><rect class="cls-1" x="111.35" y="388.86" width="12.05" height="24.1"/><rect class="cls-1" x="123.39" y="3.21" width="12.05" height="12.05"/><rect class="cls-1" x="123.39" y="27.31" width="12.05" height="12.05"/><rect class="cls-1" x="123.39" y="51.42" width="12.05" height="84.36"/><rect class="cls-1" x="123.39" y="147.83" width="12.05" height="12.05"/><rect class="cls-1" x="123.39" y="171.93" width="12.05" height="48.21"/><rect class="cls-1" x="123.39" y="232.19" width="12.05" height="36.15"/><rect class="cls-1" x="123.39" y="304.5" width="12.05" height="60.26"/><rect class="cls-1" x="123.39" y="388.86" width="12.05" height="12.05"/><rect class="cls-1" x="123.39" y="412.96" width="12.05" height="12.05"/><rect class="cls-1" x="135.44" y="3.21" width="12.05" height="36.15"/><rect class="cls-1" x="135.44" y="63.47" width="12.05" height="12.05"/><rect class="cls-1" x="135.44" y="99.62" width="12.05" height="12.05"/><rect class="cls-1" x="135.44" y="123.73" width="12.05" height="12.05"/><rect class="cls-1" x="135.44" y="147.83" width="12.05" height="12.05"/><rect class="cls-1" x="135.44" y="196.03" width="12.05" height="12.05"/><rect class="cls-1" x="135.44" y="220.14" width="12.05" height="12.05"/><rect class="cls-1" x="135.44" y="256.29" width="12.05" height="12.05"/><rect class="cls-1" x="135.44" y="280.39" width="12.05" height="48.21"/><rect class="cls-1" x="135.44" y="364.75" width="12.05" height="12.05"/><rect class="cls-1" x="135.44" y="388.86" width="12.05" height="48.21"/><rect class="cls-1" x="147.5" y="27.31" width="12.05" height="36.15"/><rect class="cls-1" x="147.5" y="75.52" width="12.05" height="24.1"/><rect class="cls-1" x="147.5" y="111.67" width="12.05" height="24.1"/><rect class="cls-1" x="147.5" y="159.88" width="12.05" height="12.05"/><rect class="cls-1" x="147.5" y="208.09" width="12.05" height="36.15"/><rect class="cls-1" x="147.5" y="328.6" width="12.05" height="24.1"/><rect class="cls-1" x="147.5" y="364.75" width="12.05" height="60.26"/><rect class="cls-1" x="147.5" y="437.06" width="12.05" height="12.05"/><rect class="cls-1" x="159.55" y="15.26" width="12.05" height="48.21"/><rect class="cls-1" x="159.55" y="111.67" width="12.05" height="12.05"/><rect class="cls-1" x="159.55" y="135.78" width="12.05" height="24.1"/><rect class="cls-1" x="159.55" y="171.93" width="12.05" height="36.15"/><rect class="cls-1" x="159.55" y="244.24" width="12.05" height="12.05"/><rect class="cls-1" x="159.55" y="268.34" width="12.05" height="24.1"/><rect class="cls-1" x="159.55" y="304.5" width="12.05" height="24.1"/><rect class="cls-1" x="159.55" y="376.81" width="12.05" height="48.21"/><rect class="cls-1" x="171.6" y="3.21" width="12.05" height="24.1"/><rect class="cls-1" x="171.6" y="51.42" width="12.05" height="36.15"/><rect class="cls-1" x="171.6" y="99.62" width="12.05" height="24.1"/><rect class="cls-1" x="171.6" y="171.93" width="12.05" height="12.05"/><rect class="cls-1" x="171.6" y="208.09" width="12.05" height="48.21"/><rect class="cls-1" x="171.6" y="268.34" width="12.05" height="48.21"/><rect class="cls-1" x="171.6" y="340.65" width="12.05" height="12.05"/><rect class="cls-1" x="183.65" y="15.26" width="12.05" height="12.05"/><rect class="cls-1" x="183.65" y="63.47" width="12.05" height="12.05"/><rect class="cls-1" x="183.65" y="111.67" width="12.05" height="48.21"/><rect class="cls-1" x="183.65" y="171.93" width="12.05" height="24.1"/><rect class="cls-1" x="183.65" y="208.09" width="12.05" height="12.05"/><rect class="cls-1" x="183.65" y="268.34" width="12.05" height="24.1"/><rect class="cls-1" x="183.65" y="304.5" width="12.05" height="48.21"/><rect class="cls-1" x="183.65" y="364.75" width="12.05" height="48.21"/><rect class="cls-1" x="195.7" y="15.26" width="12.05" height="24.1"/><rect class="cls-1" x="195.7" y="51.42" width="12.05" height="12.05"/><rect class="cls-1" x="195.7" y="75.52" width="12.05" height="12.05"/><rect class="cls-1" x="195.7" y="99.62" width="12.05" height="12.05"/><rect class="cls-1" x="195.7" y="123.73" width="12.05" height="12.05"/><rect class="cls-1" x="195.7" y="147.83" width="12.05" height="24.1"/><rect class="cls-1" x="195.7" y="183.98" width="12.05" height="12.05"/><rect class="cls-1" x="195.7" y="208.09" width="12.05" height="12.05"/><rect class="cls-1" x="195.7" y="232.19" width="12.05" height="12.05"/><rect class="cls-1" x="195.7" y="256.29" width="12.05" height="24.1"/><rect class="cls-1" x="195.7" y="292.45" width="12.05" height="12.05"/><rect class="cls-1" x="195.7" y="316.55" width="12.05" height="12.05"/><rect class="cls-1" x="195.7" y="352.7" width="12.05" height="24.1"/><rect class="cls-1" x="195.7" y="400.91" width="12.05" height="12.05"/><rect class="cls-1" x="195.7" y="425.01" width="12.05" height="12.05"/><rect class="cls-1" x="207.75" y="15.26" width="12.05" height="12.05"/><rect class="cls-1" x="207.75" y="39.37" width="12.05" height="36.15"/><rect class="cls-1" x="207.75" y="87.57" width="12.05" height="12.05"/><rect class="cls-1" x="207.75" y="111.67" width="12.05" height="24.1"/><rect class="cls-1" x="207.75" y="147.83" width="12.05" height="12.05"/><rect class="cls-1" x="207.75" y="244.24" width="12.05" height="48.21"/><rect class="cls-1" x="207.75" y="340.65" width="12.05" height="12.05"/><rect class="cls-1" x="207.75" y="437.06" width="12.05" height="12.05"/><rect class="cls-1" x="219.8" y="15.26" width="12.05" height="12.05"/><rect class="cls-1" x="219.8" y="39.37" width="12.05" height="24.1"/><rect class="cls-1" x="219.8" y="75.52" width="12.05" height="24.1"/><rect class="cls-1" x="219.8" y="111.67" width="12.05" height="12.05"/><rect class="cls-1" x="219.8" y="159.88" width="12.05" height="24.1"/><rect class="cls-1" x="219.8" y="196.03" width="12.05" height="12.05"/><rect class="cls-1" x="219.8" y="232.19" width="12.05" height="12.05"/><rect class="cls-1" x="219.8" y="256.29" width="12.05" height="12.05"/><rect class="cls-1" x="219.8" y="280.39" width="12.05" height="12.05"/><rect class="cls-1" x="219.8" y="304.5" width="12.05" height="12.05"/><rect class="cls-1" x="219.8" y="364.75" width="12.05" height="12.05"/><rect class="cls-1" x="219.8" y="388.86" width="12.05" height="12.05"/><rect class="cls-1" x="219.8" y="425.01" width="12.05" height="12.05"/><rect class="cls-1" x="231.86" y="51.42" width="12.05" height="12.05"/><rect class="cls-1" x="231.86" y="123.73" width="12.05" height="48.21"/><rect class="cls-1" x="231.86" y="256.29" width="12.05" height="12.05"/><rect class="cls-1" x="231.86" y="316.55" width="12.05" height="48.21"/><rect class="cls-1" x="231.86" y="376.81" width="12.05" height="24.1"/><rect class="cls-1" x="243.91" y="15.26" width="12.05" height="12.05"/><rect class="cls-1" x="243.91" y="39.37" width="12.05" height="24.1"/><rect class="cls-1" x="243.91" y="75.52" width="12.05" height="12.05"/><rect class="cls-1" x="243.91" y="111.67" width="12.05" height="12.05"/><rect class="cls-1" x="243.91" y="135.78" width="12.05" height="36.15"/><rect class="cls-1" x="243.91" y="196.03" width="12.05" height="12.05"/><rect class="cls-1" x="243.91" y="220.14" width="12.05" height="12.05"/><rect class="cls-1" x="243.91" y="244.24" width="12.05" height="36.15"/><rect class="cls-1" x="243.91" y="304.5" width="12.05" height="12.05"/><rect class="cls-1" x="243.91" y="328.6" width="12.05" height="12.05"/><rect class="cls-1" x="243.91" y="352.7" width="12.05" height="48.21"/><rect class="cls-1" x="243.91" y="412.96" width="12.05" height="12.05"/><rect class="cls-1" x="255.96" y="3.21" width="12.05" height="12.05"/><rect class="cls-1" x="255.96" y="27.31" width="12.05" height="12.05"/><rect class="cls-1" x="255.96" y="51.42" width="12.05" height="24.1"/><rect class="cls-1" x="255.96" y="87.57" width="12.05" height="60.26"/><rect class="cls-1" x="255.96" y="196.03" width="12.05" height="12.05"/><rect class="cls-1" x="255.96" y="232.19" width="12.05" height="12.05"/><rect class="cls-1" x="255.96" y="256.29" width="12.05" height="60.26"/><rect class="cls-1" x="255.96" y="328.6" width="12.05" height="12.05"/><rect class="cls-1" x="255.96" y="388.86" width="12.05" height="48.21"/><rect class="cls-1" x="268.01" y="27.31" width="12.05" height="60.26"/><rect class="cls-1" x="268.01" y="123.73" width="12.05" height="12.05"/><rect class="cls-1" x="268.01" y="147.83" width="12.05" height="12.05"/><rect class="cls-1" x="268.01" y="171.93" width="12.05" height="12.05"/><rect class="cls-1" x="268.01" y="196.03" width="12.05" height="12.05"/><rect class="cls-1" x="268.01" y="220.14" width="12.05" height="48.21"/><rect class="cls-1" x="268.01" y="280.39" width="12.05" height="12.05"/><rect class="cls-1" x="268.01" y="304.5" width="12.05" height="12.05"/><rect class="cls-1" x="268.01" y="340.65" width="12.05" height="12.05"/><rect class="cls-1" x="268.01" y="364.75" width="12.05" height="12.05"/><rect class="cls-1" x="268.01" y="388.86" width="12.05" height="12.05"/><rect class="cls-1" x="268.01" y="412.96" width="12.05" height="24.1"/><rect class="cls-1" x="280.06" y="3.21" width="12.05" height="12.05"/><rect class="cls-1" x="280.06" y="39.37" width="12.05" height="24.1"/><rect class="cls-1" x="280.06" y="87.57" width="12.05" height="36.15"/><rect class="cls-1" x="280.06" y="135.78" width="12.05" height="36.15"/><rect class="cls-1" x="280.06" y="196.03" width="12.05" height="24.1"/><rect class="cls-1" x="280.06" y="232.19" width="12.05" height="12.05"/><rect class="cls-1" x="280.06" y="256.29" width="12.05" height="12.05"/><rect class="cls-1" x="280.06" y="280.39" width="12.05" height="36.15"/><rect class="cls-1" x="280.06" y="352.7" width="12.05" height="12.05"/><rect class="cls-1" x="280.06" y="376.81" width="12.05" height="12.05"/><rect class="cls-1" x="280.06" y="400.91" width="12.05" height="12.05"/><rect class="cls-1" x="280.06" y="425.01" width="12.05" height="24.1"/><rect class="cls-1" x="292.11" y="27.31" width="12.05" height="12.05"/><rect class="cls-1" x="292.11" y="75.52" width="12.05" height="12.05"/><rect class="cls-1" x="292.11" y="99.62" width="12.05" height="12.05"/><rect class="cls-1" x="292.11" y="147.83" width="12.05" height="24.1"/><rect class="cls-1" x="292.11" y="196.03" width="12.05" height="12.05"/><rect class="cls-1" x="292.11" y="220.14" width="12.05" height="36.15"/><rect class="cls-1" x="292.11" y="316.55" width="12.05" height="12.05"/><rect class="cls-1" x="292.11" y="340.65" width="12.05" height="12.05"/><rect class="cls-1" x="292.11" y="376.81" width="12.05" height="24.1"/><rect class="cls-1" x="292.11" y="412.96" width="12.05" height="12.05"/><rect class="cls-1" x="292.11" y="437.06" width="12.05" height="12.05"/><rect class="cls-1" x="304.16" y="3.21" width="12.05" height="24.1"/><rect class="cls-1" x="304.16" y="39.37" width="12.05" height="12.05"/><rect class="cls-1" x="304.16" y="99.62" width="12.05" height="12.05"/><rect class="cls-1" x="304.16" y="123.73" width="12.05" height="12.05"/><rect class="cls-1" x="304.16" y="147.83" width="12.05" height="24.1"/><rect class="cls-1" x="304.16" y="196.03" width="12.05" height="24.1"/><rect class="cls-1" x="304.16" y="244.24" width="12.05" height="36.15"/><rect class="cls-1" x="304.16" y="292.45" width="12.05" height="12.05"/><rect class="cls-1" x="304.16" y="340.65" width="12.05" height="12.05"/><rect class="cls-1" x="304.16" y="388.86" width="12.05" height="36.15"/><rect class="cls-1" x="304.16" y="437.06" width="12.05" height="12.05"/><rect class="cls-1" x="316.22" y="15.26" width="12.05" height="36.15"/><rect class="cls-1" x="316.22" y="63.47" width="12.05" height="48.21"/><rect class="cls-1" x="316.22" y="123.73" width="12.05" height="36.15"/><rect class="cls-1" x="316.22" y="183.98" width="12.05" height="12.05"/><rect class="cls-1" x="316.22" y="220.14" width="12.05" height="12.05"/><rect class="cls-1" x="316.22" y="244.24" width="12.05" height="12.05"/><rect class="cls-1" x="316.22" y="268.34" width="12.05" height="12.05"/><rect class="cls-1" x="316.22" y="292.45" width="12.05" height="12.05"/><rect class="cls-1" x="316.22" y="316.55" width="12.05" height="24.1"/><rect class="cls-1" x="316.22" y="376.81" width="12.05" height="24.1"/><rect class="cls-1" x="316.22" y="412.96" width="12.05" height="12.05"/><rect class="cls-1" x="316.22" y="437.06" width="12.05" height="12.05"/><rect class="cls-1" x="328.27" y="15.26" width="12.05" height="24.1"/><rect class="cls-1" x="328.27" y="63.47" width="12.05" height="12.05"/><rect class="cls-1" x="328.27" y="123.73" width="12.05" height="12.05"/><rect class="cls-1" x="328.27" y="171.93" width="12.05" height="12.05"/><rect class="cls-1" x="328.27" y="196.03" width="12.05" height="12.05"/><rect class="cls-1" x="328.27" y="220.14" width="12.05" height="12.05"/><rect class="cls-1" x="328.27" y="268.34" width="12.05" height="12.05"/><rect class="cls-1" x="328.27" y="316.55" width="12.05" height="48.21"/><rect class="cls-1" x="328.27" y="376.81" width="12.05" height="24.1"/><rect class="cls-1" x="328.27" y="412.96" width="12.05" height="24.1"/><rect class="cls-1" x="340.32" y="3.21" width="12.05" height="12.05"/><rect class="cls-1" x="340.32" y="27.31" width="12.05" height="12.05"/><rect class="cls-1" x="340.32" y="51.42" width="12.05" height="48.21"/><rect class="cls-1" x="340.32" y="111.67" width="12.05" height="12.05"/><rect class="cls-1" x="340.32" y="159.88" width="12.05" height="60.26"/><rect class="cls-1" x="340.32" y="232.19" width="12.05" height="12.05"/><rect class="cls-1" x="340.32" y="256.29" width="12.05" height="12.05"/><rect class="cls-1" x="340.32" y="280.39" width="12.05" height="12.05"/><rect class="cls-1" x="340.32" y="304.5" width="12.05" height="24.1"/><rect class="cls-1" x="340.32" y="340.65" width="12.05" height="60.26"/><rect class="cls-1" x="340.32" y="412.96" width="12.05" height="24.1"/><rect class="cls-1" x="352.37" y="147.83" width="12.05" height="12.05"/><rect class="cls-1" x="352.37" y="220.14" width="12.05" height="12.05"/><rect class="cls-1" x="352.37" y="244.24" width="12.05" height="12.05"/><rect class="cls-1" x="352.37" y="268.34" width="12.05" height="12.05"/><rect class="cls-1" x="352.37" y="292.45" width="12.05" height="12.05"/><rect class="cls-1" x="352.37" y="328.6" width="12.05" height="24.1"/><rect class="cls-1" x="352.37" y="388.86" width="12.05" height="36.15"/><rect class="cls-1" x="352.37" y="437.06" width="12.05" height="12.05"/><rect class="cls-1" x="364.42" y="3.21" width="12.05" height="84.36"/><rect class="cls-1" x="364.42" y="99.62" width="12.05" height="12.05"/><rect class="cls-1" x="364.42" y="123.73" width="12.05" height="36.15"/><rect class="cls-1" x="364.42" y="171.93" width="12.05" height="12.05"/><rect class="cls-1" x="364.42" y="196.03" width="12.05" height="12.05"/><rect class="cls-1" x="364.42" y="232.19" width="12.05" height="24.1"/><rect class="cls-1" x="364.42" y="292.45" width="12.05" height="12.05"/><rect class="cls-1" x="364.42" y="316.55" width="12.05" height="36.15"/><rect class="cls-1" x="364.42" y="364.75" width="12.05" height="12.05"/><rect class="cls-1" x="364.42" y="388.86" width="12.05" height="24.1"/><rect class="cls-1" x="376.47" y="3.21" width="12.05" height="12.05"/><rect class="cls-1" x="376.47" y="75.52" width="12.05" height="12.05"/><rect class="cls-1" x="376.47" y="99.62" width="12.05" height="36.15"/><rect class="cls-1" x="376.47" y="147.83" width="12.05" height="48.21"/><rect class="cls-1" x="376.47" y="208.09" width="12.05" height="24.1"/><rect class="cls-1" x="376.47" y="268.34" width="12.05" height="24.1"/><rect class="cls-1" x="376.47" y="304.5" width="12.05" height="12.05"/><rect class="cls-1" x="376.47" y="328.6" width="12.05" height="24.1"/><rect class="cls-1" x="376.47" y="388.86" width="12.05" height="12.05"/><rect class="cls-1" x="388.52" y="3.21" width="12.05" height="12.05"/><rect class="cls-1" x="388.52" y="27.31" width="12.05" height="36.15"/><rect class="cls-1" x="388.52" y="75.52" width="12.05" height="12.05"/><rect class="cls-1" x="388.52" y="99.62" width="12.05" height="12.05"/><rect class="cls-1" x="388.52" y="135.78" width="12.05" height="24.1"/><rect class="cls-1" x="388.52" y="171.93" width="12.05" height="36.15"/><rect class="cls-1" x="388.52" y="220.14" width="12.05" height="12.05"/><rect class="cls-1" x="388.52" y="244.24" width="12.05" height="12.05"/><rect class="cls-1" x="388.52" y="268.34" width="12.05" height="36.15"/><rect class="cls-1" x="388.52" y="316.55" width="12.05" height="96.41"/><rect class="cls-1" x="388.52" y="425.01" width="12.05" height="24.1"/><rect class="cls-1" x="400.58" y="3.21" width="12.05" height="12.05"/><rect class="cls-1" x="400.58" y="27.31" width="12.05" height="36.15"/><rect class="cls-1" x="400.58" y="75.52" width="12.05" height="12.05"/><rect class="cls-1" x="400.58" y="99.62" width="12.05" height="12.05"/><rect class="cls-1" x="400.58" y="123.73" width="12.05" height="24.1"/><rect class="cls-1" x="400.58" y="171.93" width="12.05" height="12.05"/><rect class="cls-1" x="400.58" y="244.24" width="12.05" height="36.15"/><rect class="cls-1" x="400.58" y="316.55" width="12.05" height="12.05"/><rect class="cls-1" x="400.58" y="340.65" width="12.05" height="24.1"/><rect class="cls-1" x="400.58" y="376.81" width="12.05" height="12.05"/><rect class="cls-1" x="400.58" y="425.01" width="12.05" height="24.1"/><rect class="cls-1" x="412.63" y="3.21" width="12.05" height="12.05"/><rect class="cls-1" x="412.63" y="27.31" width="12.05" height="36.15"/><rect class="cls-1" x="412.63" y="75.52" width="12.05" height="12.05"/><rect class="cls-1" x="412.63" y="99.62" width="12.05" height="12.05"/><rect class="cls-1" x="412.63" y="147.83" width="12.05" height="12.05"/><rect class="cls-1" x="412.63" y="196.03" width="12.05" height="24.1"/><rect class="cls-1" x="412.63" y="244.24" width="12.05" height="12.05"/><rect class="cls-1" x="412.63" y="292.45" width="12.05" height="12.05"/><rect class="cls-1" x="412.63" y="340.65" width="12.05" height="12.05"/><rect class="cls-1" x="412.63" y="364.75" width="12.05" height="12.05"/><rect class="cls-1" x="412.63" y="388.86" width="12.05" height="12.05"/><rect class="cls-1" x="412.63" y="437.06" width="12.05" height="12.05"/><rect class="cls-1" x="424.68" y="3.21" width="12.05" height="12.05"/><rect class="cls-1" x="424.68" y="75.52" width="12.05" height="12.05"/><rect class="cls-1" x="424.68" y="111.67" width="12.05" height="24.1"/><rect class="cls-1" x="424.68" y="147.83" width="12.05" height="12.05"/><rect class="cls-1" x="424.68" y="171.93" width="12.05" height="24.1"/><rect class="cls-1" x="424.68" y="208.09" width="12.05" height="24.1"/><rect class="cls-1" x="424.68" y="268.34" width="12.05" height="36.15"/><rect class="cls-1" x="424.68" y="316.55" width="12.05" height="12.05"/><rect class="cls-1" x="424.68" y="340.65" width="12.05" height="24.1"/><rect class="cls-1" x="424.68" y="376.81" width="12.05" height="12.05"/><rect class="cls-1" x="424.68" y="412.96" width="12.05" height="12.05"/><rect class="cls-1" x="424.68" y="437.06" width="12.05" height="12.05"/><rect class="cls-1" x="436.73" y="3.21" width="12.05" height="84.36"/><rect class="cls-1" x="436.73" y="123.73" width="12.05" height="36.15"/><rect class="cls-1" x="436.73" y="171.93" width="12.05" height="24.1"/><rect class="cls-1" x="436.73" y="220.14" width="12.05" height="24.1"/><rect class="cls-1" x="436.73" y="268.34" width="12.05" height="12.05"/><rect class="cls-1" x="436.73" y="316.55" width="12.05" height="36.15"/><rect class="cls-1" x="436.73" y="364.75" width="12.05" height="12.05"/><rect class="cls-1" x="436.73" y="388.86" width="12.05" height="60.26"/></svg>