<svg xmlns="http://www.w3.org/2000/svg" viewBox="0 0 75 75"><defs><style>.cls-1{fill:#e95653;}.cls-2{fill:#b0565f;}.cls-3{fill:#fff;}.cls-4{fill:#f9d2d1;}.cls-5,.cls-8{fill:none;stroke-linecap:round;stroke-miterlimit:10;}.cls-5{stroke:#e95653;stroke-width:1.88px;}.cls-6{fill:#fce8e8;}.cls-7{fill:#961e29;}.cls-8{stroke:#e11e19;stroke-width:0.48px;}</style></defs><title>sparen-icon</title><g id="Layer_2" data-name="Layer 2"><g id="Layer_1-2" data-name="Layer 1"><ellipse class="cls-1" cx="37.5" cy="37.44" rx="37.5" ry="37.44"/><path class="cls-2" d="M70.43,55.18c-3.66-4.87-10.3-13.8-11.57-16.12C61.52,54.86,19.73,50.88,17,51.43,21.21,57.72,30.17,68.11,36.28,75l1.06,0A37.48,37.48,0,0,0,70.43,55.18Z"/><ellipse class="cls-3" cx="38.64" cy="40.77" rx="23.87" ry="23.84"/><path class="cls-4" d="M63.77,35.27h-2A23.87,23.87,0,0,1,62.51,41a23.36,23.36,0,0,1-.59,5.26h1.85a1.88,1.88,0,0,0,1.88-1.88V37.15A1.88,1.88,0,0,0,63.77,35.27Z"/><path class="cls-4" d="M21.1,57.15a3.3,3.3,0,0,0-.7.9L18.92,61a3.12,3.12,0,0,0,1.36,4.21l3.34,1.7a3.14,3.14,0,0,0,4.22-1.36l1.35-2.64A23.92,23.92,0,0,1,21.1,57.15Z"/><path class="cls-4" d="M47.87,66a3.14,3.14,0,0,0,4.35.86L54.94,65a3.12,3.12,0,0,0,.86-4.34l-1.28-1.92a23.82,23.82,0,0,1-8.26,4.8Z"/><path class="cls-4" d="M4,25.93a8.78,8.78,0,0,0,3.74,1.62,1.49,1.49,0,0,0,.92-.2A.86.86,0,0,0,9,26.59c0-.14-.09-.29-.11-.27a1.42,1.42,0,0,0-.46,0,1.17,1.17,0,0,0-.76.44,2.65,2.65,0,0,0-.44,1.84,3.92,3.92,0,0,0,.62,1.85,3.68,3.68,0,0,0,3.28,1.74A4.72,4.72,0,0,0,13,31.62a2.79,2.79,0,0,0,1.3-1.23c.06-.21,0-.29-.25-.42a2.74,2.74,0,0,0-.88-.24,1,1,0,0,0-1.11.89,4.6,4.6,0,0,0,1.22,3.59A2.42,2.42,0,0,0,15,35a2.93,2.93,0,0,0,1.84-.72l.05,0a3.15,3.15,0,0,1-1.88,1,2.77,2.77,0,0,1-2-.79,4.93,4.93,0,0,1-1.21-1.81,4.36,4.36,0,0,1-.32-2.19A1.78,1.78,0,0,1,12,29.41a1.61,1.61,0,0,1,1.22-.35,3.49,3.49,0,0,1,1.12.29,1.16,1.16,0,0,1,.55.47,1,1,0,0,1,0,.77,3.2,3.2,0,0,1-1.65,1.58,5.23,5.23,0,0,1-2.12.57,4.22,4.22,0,0,1-3.71-2.05,4.49,4.49,0,0,1-.65-2.07,3.11,3.11,0,0,1,.58-2.11,1.55,1.55,0,0,1,1-.55A1.89,1.89,0,0,1,9,26a.59.59,0,0,1,.35.59,1.18,1.18,0,0,1-.54,1,1.69,1.69,0,0,1-1.09.2A8.9,8.9,0,0,1,4,26Z"/><path class="cls-3" d="M50.35,21.16l-8.64-3.8s8.61-7.71,7.61-5.57C47.71,15.27,50.35,21.16,50.35,21.16Z"/><path class="cls-5" d="M23,28.54c3.38-5.34,7.21-7.49,15.33-7.42"/><ellipse class="cls-6" cx="49.75" cy="34.9" rx="3.99" ry="3.99"/><ellipse class="cls-7" cx="48.7" cy="34.11" rx="2.86" ry="2.85"/><ellipse class="cls-3" cx="21.75" cy="14.21" rx="4.73" ry="4.72"/><path class="cls-8" d="M21.25,11.42c1.8.23,3.16,1.28,3,2.35"/></g></g></svg>