<?xml version="1.0" encoding="utf-8"?>
<!-- Generator: Adobe Illustrator 24.1.3, SVG Export Plug-In . SVG Version: 6.00 Build 0)  -->
<svg version="1.1" id="Layer_1" xmlns="http://www.w3.org/2000/svg" xmlns:xlink="http://www.w3.org/1999/xlink" x="0px" y="0px"
	 viewBox="0 0 234 185" style="enable-background:new 0 0 234 185;" xml:space="preserve">
<style type="text/css">
	.st0{fill:#A4C9E7;}
	.st1{fill:#91BDDB;}
	.st2{fill:#B6D4EC;}
	.st3{fill:#869CB3;}
	.st4{fill:#04B8B5;}
	.st5{fill:none;}
	.st6{opacity:0.42;fill:#36C6C4;enable-background:new    ;}
	.st7{fill:#FFFFFF;}
	.st8{fill:#1C77C3;}
	.st9{fill:#77ADDB;}
</style>
<g>
	<g>
		<path class="st0" d="M201.4,143c0-20.3-15.1-37-34.6-39.6c-5.6-19.3-23.4-33.4-44.5-33.4c-22.7,0-41.6,16.3-45.6,37.9
			c-19.5,2.7-34.5,19.4-34.5,39.6c0,16.8,10.4,27.5,25.1,31.6c2.8,1.2,5.7,2,8.6,2h92.8c12.4,0,20.7-7.9,25.2-15.4
			C198.6,159.4,201.4,151.7,201.4,143z"/>
	</g>
	<g>
		<path class="st1" d="M60.6,113.8c-31.5,23.1-22.5,63,15.3,67.2c15.9,0.7,34.6,1.1,61,0C126.7,177,25.7,190.2,60.6,113.8z"/>
	</g>
	<path class="st2" d="M134.4,140.3c-23.5,0-42.6-19.1-42.6-42.6c0-6.7,1.6-13.1,4.3-18.7c7.2-5.6,16.3-9,26.2-9
		c23.6,0,40.1,17,44.4,33.4c0,0.1,4.3-0.3,13,4.1c9.5,4.1,21.6,18,21.6,31.4c0,4-8.9,14.3-24.1,12.9c-10.4,0-19-8-19.9-18.1
		C150.8,137.8,142.9,140.3,134.4,140.3z"/>
</g>
<g>
	<path class="st3" d="M115.1,79.1l-0.4,0.1l-0.1,0c-0.1,0.9-0.3,1.8-0.6,2.6c-1.8,4.9-5.1,9-9.6,11.7c-2.9,1.9-6.3,3.2-9.8,3.7
		l0.1,1c3.6-0.6,7.1-1.8,10.1-3.8c3.4-2.1,6.2-5.1,8.3-8.5c0.7-1.2,1.3-2.5,1.7-3.8c0.4-1.1,0.7-2.2,0.8-3.4
		C115.5,78.9,115.3,79.1,115.1,79.1z"/>
	<g>
		<path class="st4" d="M86.3,85.4l-27.5,3.1c-3.2-0.4-6.5,0.5-9.1,2.4l-41,30.3C3,125.3,1.8,133.3,5.9,139L19.2,157
			c4.2,5.7,12.2,6.9,17.9,2.7l41-30.3c2.6-2,4.4-4.8,4.9-8L94.1,96c1.7-3.9-0.2-8.4-4.1-10.1C88.9,85.4,87.6,85.2,86.3,85.4z
			 M82.6,100.5c-2.9,0.6-5.7-1.3-6.3-4.2c-0.6-2.9,1.3-5.7,4.2-6.3c2.9-0.6,5.7,1.3,6.3,4.2l0,0C87.4,97.1,85.5,100,82.6,100.5
			L82.6,100.5z"/>
		<g>
			<g>
				<path class="st5" d="M82.6,100.5c-2.9,0.6-5.7-1.3-6.3-4.2c-0.6-2.9,1.3-5.7,4.2-6.3c2.9-0.6,5.7,1.3,6.3,4.2l0,0
					C87.4,97.1,85.5,100,82.6,100.5L82.6,100.5z"/>
				<g>
					<path class="st6" d="M21.4,159.4l-17-22.5c-1.4-1.8-1.8-4.2-1.1-6.4l0.9-4.2c0.8-1.5,2-2.8,3.4-3.8L48.8,91L21.4,159.4z"/>
				</g>
			</g>
		</g>
		<path class="st7" d="M31.8,128.2l-4.7,3.3l2.3,3.3l4.3-3l1.7,2.4l-4.3,3l3.6,5.2l-3,2.1l-9.2-13.3l7.7-5.3L31.8,128.2z"/>
		<path class="st7" d="M52.7,129.8l-3.4,2.4l-4.5-2l-0.9-0.4c-0.2-0.1-0.6-0.2-0.8-0.2c-0.2-0.1-0.5,0-0.7,0c-0.2,0-0.5,0.1-0.6,0.2
			l-0.8,0.5l3.5,5.1l-3,2.1l-9.2-13.3l4.8-3.3c3.2-2.3,5.6-2.2,7.4,0.2c0.3,0.4,0.6,1,0.7,1.4c0.1,0.5,0.2,1,0.1,1.5
			c0,0.5-0.1,1-0.4,1.5c-0.2,0.5-0.5,1-0.9,1.4l0,0c0.2-0.1,0.5-0.1,0.8-0.1c0.3,0,0.6,0,0.9,0.2c0.3,0,0.6,0.2,0.9,0.2
			c0.3,0.1,0.6,0.2,0.9,0.3L52.7,129.8z M36.8,124.4l2.5,3.7l1.3-0.9c0.6-0.4,1-1,1.2-1.7c0.2-0.6,0-1.3-0.4-1.8
			c-0.8-1.2-1.9-1.3-3.3-0.3L36.8,124.4z"/>
		<path class="st7" d="M62,123.4l-8,5.6l-9.2-13.3l7.7-5.3l1.7,2.4l-4.7,3.3l2,2.9l4.4-3l1.7,2.4l-4.4,3l2.1,3.1l5-3.4L62,123.4z"/>
		<path class="st7" d="M72.1,116.4l-8,5.5l-9.2-13.3l7.8-5.3l1.7,2.4l-4.8,3.3l2,2.9l4.4-3l1.7,2.4l-4.4,3l2.1,3.1l5-3.4L72.1,116.4
			z"/>
	</g>
	<path class="st3" d="M77.9,80.6c1.8-4.9,5.1-9,9.6-11.7c9.1-5.8,19.7-5.2,24.8,1.6c0.3-0.2,0.5-0.4,0.8-0.6
		c-5.4-7.2-16.6-8-26.1-1.9c-4.6,2.9-8.1,7.2-10,12.3c-1.7,4.5-1.3,9.5,1.2,13.6c0.9,1.3,1.9,2.5,3.2,3.5l0.6-0.8
		c-1.2-0.9-2.1-2-3-3.3C76.8,89.5,76.3,84.8,77.9,80.6z"/>
</g>
<g>
	<g>
		<g>
			<path class="st8" d="M207.2,67.1c3.7,0.4,6.7,3.7,7.2,6.8c0.1,0.7-0.4,1.6-1.2,1.8c-0.2,0.1-0.4,0.1-0.6,0.1
				c-0.5-0.1-0.9-0.4-1-0.9c-0.4-2.1-2.8-4.6-5.2-4.8c-0.1,0-0.4-0.1-0.5,0c-0.1,0-0.1,0-0.1,0c-0.6-0.1-1.2-0.6-1-1.4
				s0.8-1.5,1.6-1.5C206.7,67.1,206.9,67.1,207.2,67.1z"/>
			<g>
				<path class="st9" d="M208.8,58.5c3.4,0.4,6.3,1.5,8.7,3.6c4.2,3.4,6.5,9,6.1,14.8c-0.1,0.8-0.2,2-1.2,2.2
					c-0.1,0.1-0.7,0.1-0.8,0c-0.6-0.1-1.2-0.6-1-1.3c0.3-5.6-2-10.1-5.7-12.8c-2.2-1.7-4.7-2.8-7.7-3c-1.7-0.1-3.5-0.1-5.5,0.4
					c-0.1,0.1-0.3,0.1-0.4,0.1c-0.6-0.1-0.9-0.6-0.9-1.3c-0.1-0.8,0.4-1.6,1.3-1.8C204.1,58.4,206.5,58.3,208.8,58.5z"/>
			</g>
			<g>
				<path class="st0" d="M210.8,49.9c4.7,0.5,9,2.3,12.5,5.1c5.7,4.6,8.8,11.3,8.7,19.9c-0.1,1.3-0.6,2.2-1.9,2.4
					c-0.2,0.1-0.4,0.1-0.5,0c-0.9-0.1-1.5-0.8-1.5-1.8c0.4-7.6-2.8-14-7.9-17.7c-2.9-2.2-6.5-3.7-10.4-4c-2.5-0.3-5.4-0.1-8.2,0.6
					c-0.3,0.1-0.5,0.1-0.8,0.1c-0.8-0.1-1.4-0.6-1.5-1.5c-0.1-1.2,0.8-2.1,2-2.4C204.8,49.9,207.8,49.7,210.8,49.9z"/>
			</g>
		</g>
	</g>
	<path class="st8" d="M195.2,106.1c6.9,0.8,13.1-4.1,14-11.1c0.8-6.9-4.1-13.1-11.1-14c-6.9-0.8-13.1,4.1-14,11.1
		c-0.3,2.6,0.3,5.3,1.5,7.6l-18.9,10.4c-5.4-5.1-13.9-5-19,0.5c-5.1,5.4-5,13.9,0.5,19c5.4,5.1,13.9,5,19-0.5
		c0.2-0.2,0.4-0.4,0.5-0.6l16.5,9.4c-3.5,6-1.5,13.9,4.6,17.4c6.1,3.5,13.9,1.5,17.4-4.6c3.5-6,1.5-13.9-4.6-17.4
		c-4.5-2.6-10.2-2.3-14.2,1l-17.3-9.7c1.3-3.4,1.1-7.3-0.5-10.5l19.3-10.6C190.6,104.9,192.8,105.8,195.2,106.1z"/>
</g>
</svg>
