<?xml version="1.0" encoding="utf-8"?>
<!-- Generator: Adobe Illustrator 25.0.0, SVG Export Plug-In . SVG Version: 6.00 Build 0)  -->
<svg version="1.1" id="Layer_1" xmlns="http://www.w3.org/2000/svg" xmlns:xlink="http://www.w3.org/1999/xlink" x="0px" y="0px"
	 viewBox="0 0 70 70" style="enable-background:new 0 0 70 70;" xml:space="preserve">
<style type="text/css">
	.st0{clip-path:url(#SVGID_2_);}
	.st1{fill:#BEC8D2;}
	.st2{fill:#E11E19;}
	.st3{fill:#155992;}
	.st4{fill:#FFCC00;}
	.st5{fill:#FFBD03;}
	.st6{fill:#F6A71C;}
	.st7{fill:#F3FAFF;}
	.st8{fill:#D6E6F2;}
	.st9{fill:#0E3C62;}
	.st10{fill:#E6E5E5;}
	.st11{fill:#FFFFFF;}
	.st12{fill:#1C77C3;}
</style>
<g>
	<defs>
		<rect id="SVGID_1_" x="-4.4" y="-0.8" width="76.3" height="76.3"/>
	</defs>
	<clipPath id="SVGID_2_">
		<use xlink:href="#SVGID_1_"  style="overflow:visible;"/>
	</clipPath>
	<g class="st0">
		<g>
			<polygon class="st1" points="50.9,46.9 4.8,47.2 4.8,46.6 50.9,46.4 			"/>
		</g>
		<g>
			<polygon class="st1" points="50.9,67.5 4.8,67.7 4.8,67.2 50.9,67 			"/>
		</g>
		<g>
			<polygon class="st1" points="2.6,65.7 2.3,48.4 2.9,48.4 3.2,65.7 			"/>
		</g>
		<g>
			<polygon class="st1" points="52.3,65.7 52,48.4 52.6,48.4 52.9,65.7 			"/>
		</g>
		<g>
			<g>
				<g>
					<path class="st2" d="M4.8,49H0.4v-4.4h4.4V49z M0.9,48.4h3.3v-3.3H0.9V48.4z"/>
				</g>
			</g>
			<g>
				<g>
					<g>
						<rect x="1.8" y="46.2" class="st2" width="1.5" height="1.5"/>
					</g>
				</g>
			</g>
		</g>
		<g>
			<g>
				<g>
					<path class="st2" d="M4.8,69.6H0.4v-4.4h4.4V69.6z M0.9,69h3.3v-3.3H0.9V69z"/>
				</g>
			</g>
			<g>
				<g>
					<g>
						<rect x="1.8" y="66.8" class="st2" width="1.5" height="1.5"/>
					</g>
				</g>
			</g>
		</g>
		<g>
			<g>
				<g>
					<path class="st2" d="M54.8,48.4h-4.4v-4.4h4.4V48.4z M50.9,47.8h3.3v-3.3h-3.3V47.8z"/>
				</g>
			</g>
			<g>
				<g>
					<g>
						<rect x="51.8" y="45.6" class="st2" width="1.5" height="1.5"/>
					</g>
				</g>
			</g>
		</g>
		<g>
			<g>
				<g>
					<path class="st2" d="M54.7,70.2h-4.4v-4.4h4.4V70.2z M50.8,69.6h3.3v-3.3h-3.3V69.6z"/>
				</g>
			</g>
			<g>
				<g>
					<g>
						<rect x="51.7" y="67.4" class="st2" width="1.5" height="1.5"/>
					</g>
				</g>
			</g>
		</g>
		<g>
			<path class="st3" d="M23.8,62.7h-1.2l-1-2.7h-4l-0.9,2.7h-1.2l3.7-9.5h1.2L23.8,62.7z M21.2,59L19.7,55c0-0.1-0.1-0.3-0.1-0.6h0
				c0,0.3-0.1,0.5-0.2,0.6L17.9,59H21.2z"/>
			<path class="st3" d="M25.6,62.7v-9.5h2.7c0.8,0,1.5,0.2,2,0.6c0.5,0.4,0.7,0.9,0.7,1.6c0,0.5-0.1,1-0.4,1.4
				c-0.3,0.4-0.7,0.7-1.2,0.9v0c0.6,0.1,1.2,0.3,1.5,0.7c0.4,0.4,0.6,0.9,0.6,1.6c0,0.8-0.3,1.5-0.9,2c-0.6,0.5-1.3,0.8-2.2,0.8
				H25.6z M26.7,54.2v3.1h1.1c0.6,0,1.1-0.1,1.4-0.4c0.3-0.3,0.5-0.7,0.5-1.2c0-0.9-0.6-1.4-1.8-1.4H26.7z M26.7,58.3v3.4h1.5
				c0.7,0,1.2-0.2,1.5-0.5c0.4-0.3,0.5-0.7,0.5-1.3c0-1.1-0.8-1.7-2.3-1.7H26.7z"/>
			<path class="st3" d="M40.2,62.3c-0.7,0.4-1.6,0.6-2.6,0.6c-1.4,0-2.4-0.4-3.3-1.3c-0.8-0.9-1.2-2-1.2-3.4c0-1.5,0.5-2.8,1.4-3.7
				c0.9-0.9,2.1-1.4,3.5-1.4c0.9,0,1.7,0.1,2.2,0.4v1.2C39.5,54.2,38.8,54,38,54c-1.1,0-2,0.4-2.7,1.1c-0.7,0.7-1,1.7-1,2.9
				c0,1.2,0.3,2.1,1,2.8c0.6,0.7,1.5,1,2.5,1c1,0,1.8-0.2,2.5-0.6V62.3z"/>
		</g>
		<g>
			
				<rect x="19.5" y="30.1" transform="matrix(0.7071 -0.7071 0.7071 0.7071 -8.2538 42.4355)" class="st4" width="55.2" height="2.1"/>
			
				<rect x="18" y="28.7" transform="matrix(0.7071 -0.7071 0.7071 0.7071 -7.6484 40.9742)" class="st5" width="55.2" height="2.1"/>
			
				<rect x="16.6" y="27.2" transform="matrix(0.7071 -0.7071 0.7071 0.7071 -7.0427 39.5118)" class="st6" width="55.2" height="2.1"/>
			<polygon class="st7" points="23.9,47 22.9,51 24.3,52.5 28.3,51.4 			"/>
			<polygon class="st8" points="23.9,47 25.4,48.5 23.3,51.5 22.9,51 			"/>
			<polygon class="st9" points="22.9,51 22.3,53 24.3,52.5 			"/>
			<rect x="63.4" y="7" transform="matrix(0.7071 -0.7071 0.7071 0.7071 13.1991 47.8972)" class="st10" width="2.1" height="2.1"/>
			
				<rect x="65.6" y="8.1" transform="matrix(0.7071 -0.7071 0.7071 0.7071 12.2914 50.0885)" class="st11" width="2.1" height="4.1"/>
			<path class="st9" d="M64.8,6.2l-0.3,0.3L65.9,8l0.3-0.3c0.6-0.6,1.3-0.9,2.2-0.9c0.5,0,0.9,0.1,1.3,0.3c-0.2-0.3-0.4-0.6-0.6-0.9
				c-0.6-0.6-1.3-0.9-2.2-0.9C66.1,5.3,65.3,5.7,64.8,6.2z"/>
			<path class="st12" d="M66.2,7.7L65.9,8l2.9,2.9l0.3-0.3c0.6-0.6,0.9-1.3,0.9-2.2c0-0.5-0.1-0.9-0.3-1.3c-0.4-0.2-0.9-0.3-1.3-0.3
				C67.6,6.8,66.8,7.1,66.2,7.7z"/>
		</g>
	</g>
</g>
</svg>
