<?xml version="1.0" encoding="utf-8"?>
<!-- Generator: Adobe Illustrator 24.1.3, SVG Export Plug-In . SVG Version: 6.00 Build 0)  -->
<svg version="1.1" id="Layer_1" xmlns="http://www.w3.org/2000/svg" xmlns:xlink="http://www.w3.org/1999/xlink" x="0px" y="0px"
	 viewBox="0 0 70 70" style="enable-background:new 0 0 70 70;" xml:space="preserve">
<style type="text/css">
	.st0{fill:#F6A505;}
	.st1{fill:#0E3C62;}
	.st2{fill:#1C77C3;}
	.st3{fill:#FFFFFF;}
	.st4{fill:#1A72AD;}
	.st5{fill:#77ADDB;}
	.st6{fill:#FFD147;}
	.st7{fill:#FDC72A;}
</style>
<g>
	<g>
		<path class="st0" d="M11,21.1l0,17.5l0.2,26.6c0,1,1,1.8,2.1,1.8l47.2-0.2c3.5,0,6.3-2.2,6.3-5l-0.1-40.7H11z"/>
	</g>
	<g>
		<g>
			<path class="st1" d="M27.3,60.7l36.3,0.3c0,0,1.7-49.6-1.8-50.3c-3.4-0.7-4.9,1.2-4.9,1.2s-3.5-5.9-9.5-6.7c-6-0.8-19-1-19-1
				L27.3,60.7z"/>
			<path class="st2" d="M48.4,5.3c2.2,0.4,12,2.4,14.2,5.9c-2.9-1.2-5.6,0.6-5.6,0.6S53.3,6.4,48.4,5.3z"/>
		</g>
		
			<rect x="36.1" y="19.9" transform="matrix(1 6.911274e-03 -6.911274e-03 1 0.1411 -0.3202)" class="st3" width="20.7" height="0.7"/>
		
			<rect x="36" y="23.7" transform="matrix(1 6.911274e-03 -6.911274e-03 1 0.1671 -0.3199)" class="st3" width="20.7" height="0.7"/>
		<rect x="36" y="27.4" transform="matrix(1 6.911281e-03 -6.911281e-03 1 0.193 -0.3196)" class="st3" width="20.7" height="0.7"/>
	</g>
	<g>
		<g>
			<path class="st4" d="M14.1,55.6l36.3,0.3c0,0,0.9-40.6-2.5-41.3c-3.4-0.7-4.9,1.2-4.9,1.2s-3.5-5.9-9.5-6.7c-6-0.8-19-1-19-1
				L14.1,55.6z"/>
			<path class="st5" d="M34.4,9.3c2.2,0.4,12,2.4,14.2,5.9c-2.9-1.2-5.6,0.6-5.6,0.6S39.4,10.4,34.4,9.3z"/>
		</g>
		
			<rect x="22.1" y="23.9" transform="matrix(1 6.911274e-03 -6.911274e-03 1 0.1683 -0.2236)" class="st3" width="20.7" height="0.7"/>
		
			<rect x="22.1" y="27.7" transform="matrix(1 6.911274e-03 -6.911274e-03 1 0.1943 -0.2233)" class="st3" width="20.7" height="0.7"/>
		<rect x="22" y="31.4" transform="matrix(1 6.911281e-03 -6.911281e-03 1 0.2202 -0.223)" class="st3" width="20.7" height="0.7"/>
	</g>
	<g>
		<path class="st6" d="M4.4,38.6l0.1,25.1h55.7L60,30.1c0-1-1-1.8-2.1-1.8l-23.8,0.1l-4.3-3.3c-1.1-0.8-2.5-1.3-4-1.3L7.7,23.9
			c-1.9,0-3.4,1.3-3.4,2.9l0,3.5L4.4,38.6z"/>
	</g>
	<g>
		<g>
			<path class="st7" d="M4.5,63.1l0,0.6C4.5,65.5,6,67,7.8,67l55.6-0.2l-3.2-3.7H4.5z"/>
		</g>
	</g>
	<path class="st0" d="M60.2,58.1v5.4c0,1.8,1.5,3.3,3.3,3.3s3.3-1.5,3.3-3.3v-7C64.8,57.7,62.5,58.1,60.2,58.1z"/>
	<g>
		<path class="st1" d="M38.8,53C38.8,53,38.8,53,38.8,53c-1.4,0-3.4-1.3-5.3-3.4l1.2-1.7c1.8,2,3.6,3.1,4.2,3.1c0,0,0,0,0,0
			c1.5,0,2.9-0.6,3.8-1.7c0.7-0.9,1-2,0.8-3.1c-0.3-1.3-1.1-2.4-2.2-3.1c-0.6-0.4-1.6-0.7-2.8-0.4c-1.7,0.5-2.8,2-4.1,3.7
			c-1.3,1.8-2.8,3.8-5.4,5.2c-1.9,1-3.9,1.3-5.6,0.8c-1.6-0.5-2.9-1.6-3.8-3.2c-1.6-3,0-6.3,2.3-7.9c4.2-3,8.2,1.6,9.9,3.6l-0.9,1.5
			c-3.2-3.8-5.9-4.9-7.9-3.5c-1.6,1.1-2.7,3.3-1.7,5.4c0.6,1.1,1.5,1.9,2.6,2.3c1.2,0.4,2.7,0.2,4.1-0.6c2.2-1.2,3.5-3,4.7-4.7
			c1.4-1.9,2.8-3.7,5.1-4.4c1.4-0.5,3-0.3,4.3,0.5c1.6,0.9,2.7,2.6,3.1,4.4c0.3,1.7-0.1,3.4-1.2,4.7C42.8,52.1,40.9,53,38.8,53z"/>
	</g>
</g>
</svg>
