<?xml version="1.0" encoding="utf-8"?>
<!-- Generator: Adobe Illustrator 24.1.3, SVG Export Plug-In . SVG Version: 6.00 Build 0)  -->
<svg version="1.1" id="Layer_1" xmlns="http://www.w3.org/2000/svg" xmlns:xlink="http://www.w3.org/1999/xlink" x="0px" y="0px"
	 viewBox="0 0 70 70" style="enable-background:new 0 0 70 70;" xml:space="preserve">
<style type="text/css">
	.st0{fill:none;}
	.st1{fill-rule:evenodd;clip-rule:evenodd;fill:#66AEDE;}
	.st2{fill:#F7C7C5;}
	.st3{fill:#F6A71C;}
	.st4{fill:#E9F5FF;}
	.st5{fill:#6588AB;}
	.st6{fill:#FFCC00;}
</style>
<g>
	<path class="st0" d="M40.9,11.2l0.2,0.3l0.2-0.1l0.1,0.1l-0.1-0.2C41.1,11.3,41,11.3,40.9,11.2z"/>
	<path class="st0" d="M42.2,12.5l0.2,0.3l0.2-0.1l0.1,0.1l-0.1-0.2C42.4,12.6,42.3,12.5,42.2,12.5z"/>
	<path class="st0" d="M41.5,11.9l0.2,0.3l0.2-0.1l0.1,0.1l-0.1-0.2C41.8,11.9,41.6,11.9,41.5,11.9z"/>
	<circle class="st1" cx="4.6" cy="60.5" r="1.6"/>
	<circle class="st1" cx="15.1" cy="65" r="1.6"/>
	<path class="st2" d="M56.8,20.9L56.8,20.9c-1.4,0-2.5-1.1-2.5-2.5v0c0-1.4,1.1-2.5,2.5-2.5h0c1.4,0,2.5,1.1,2.5,2.5v0
		C59.3,19.8,58.2,20.9,56.8,20.9z"/>
	<g>
		<path class="st1" d="M24.8,33.7L7.6,46.4c-0.4,0.3-1.1,0.2-1.4-0.2l-0.8-1.1c-0.3-0.4-0.2-1.1,0.2-1.4L22.9,31
			c0.4-0.3,1.1-0.2,1.4,0.2l0.8,1.1C25.3,32.7,25.2,33.3,24.8,33.7z"/>
		<circle class="st1" cx="3.1" cy="47.7" r="1.6"/>
		<path class="st1" d="M26.4,46.5L9.1,59.2c-0.4,0.3-1.1,0.2-1.4-0.2L7,58c-0.3-0.4-0.2-1.1,0.2-1.4l17.2-12.8
			c0.4-0.3,1.1-0.2,1.4,0.2l0.8,1.1C26.9,45.5,26.8,46.1,26.4,46.5z"/>
		<path class="st1" d="M36.8,50.9L19.6,63.7c-0.4,0.3-1.1,0.2-1.4-0.2l-0.8-1.1c-0.3-0.4-0.2-1.1,0.2-1.4l17.2-12.8
			c0.4-0.3,1.1-0.2,1.4,0.2l0.8,1.1C37.4,49.9,37.3,50.6,36.8,50.9z"/>
		<polygon class="st3" points="44.2,15 19.7,32.8 19.7,62.7 68.7,62.7 68.7,32.8 		"/>
		<path class="st4" d="M25.3,12.4c-0.5,0-1.1,0.2-1.5,0.6c-0.4,0.4-0.6,0.9-0.6,1.5v39.8h42.2V14.5c0-0.5-0.2-1.1-0.6-1.5
			c-0.4-0.4-0.9-0.6-1.5-0.6H25.3z"/>
		<path class="st5" d="M59.5,35.3H29.1c-0.6,0-1,0.5-1,1v0c0,0.6,0.5,1,1,1h30.4c0.6,0,1-0.5,1-1v0C60.5,35.8,60.1,35.3,59.5,35.3z"
			/>
		<path class="st5" d="M59.5,39.5H29.1c-0.6,0-1,0.5-1,1v0c0,0.6,0.5,1,1,1h30.4c0.6,0,1-0.5,1-1v0C60.5,39.9,60.1,39.5,59.5,39.5z"
			/>
		<path class="st5" d="M45.7,43.6H29.1c-0.6,0-1,0.5-1,1v0c0,0.6,0.5,1,1,1h16.6c0.6,0,1-0.5,1-1v0C46.7,44.1,46.3,43.6,45.7,43.6z"
			/>
		<path class="st5" d="M59.5,27.1H29.1c-0.6,0-1,0.5-1,1v0c0,0.6,0.5,1,1,1h30.4c0.6,0,1-0.5,1-1v0C60.5,27.5,60.1,27.1,59.5,27.1z"
			/>
		<path class="st5" d="M59.4,31.3H29c-0.6,0-1,0.5-1,1v0c0,0.6,0.5,1,1,1h30.4c0.6,0,1-0.5,1-1v0C60.4,31.7,60,31.3,59.4,31.3z"/>
		<path class="st5" d="M59.4,22.9H29c-0.6,0-1,0.5-1,1v0c0,0.6,0.5,1,1,1h30.4c0.6,0,1-0.5,1-1v0C60.4,23.4,60,22.9,59.4,22.9z"/>
		<path class="st5" d="M59.5,18.4H29.1c-0.6,0-1,0.5-1,1v0c0,0.6,0.5,1,1,1h30.4c0.6,0,1-0.5,1-1v0C60.5,18.9,60.1,18.4,59.5,18.4z"
			/>
		<polygon class="st6" points="68.7,32.8 68.7,62.7 44.2,47.7 		"/>
		<polygon class="st6" points="44.2,47.7 19.7,62.7 19.7,32.8 		"/>
		<polygon class="st3" points="68.7,62.7 19.7,62.7 44.2,47.7 		"/>
	</g>
</g>
</svg>
