<?xml version="1.0" encoding="utf-8"?>
<!-- Generator: Adobe Illustrator 24.1.3, SVG Export Plug-In . SVG Version: 6.00 Build 0)  -->
<svg version="1.1" id="Layer_1" xmlns="http://www.w3.org/2000/svg" xmlns:xlink="http://www.w3.org/1999/xlink" x="0px" y="0px"
	 viewBox="0 0 70 70" style="enable-background:new 0 0 70 70;" xml:space="preserve">
<style type="text/css">
	.st0{fill:#C8DFF1;}
	.st1{fill:#B6D4EC;}
	.st2{fill:#04B8B5;}
	.st3{fill:#36C6C4;}
	.st4{fill:#9BE3E1;}
	.st5{fill:#66AEDE;}
	.st6{fill:#65A3CC;}
	.st7{fill:#85BEE5;}
</style>
<g>
	<g>
		<path class="st0" d="M32.3,29.1c-1.1-3.7-4.5-6.5-8.6-6.5c-0.6,0-1.2,0.1-1.8,0.2c-1.1-1.7-3.1-2.8-5.3-2.8
			c-3.2,0-5.8,2.4-6.3,5.5c0,0-0.1,0-0.1,0c-5.1,0-9.2,4.1-9.2,9.2s4.1,9.2,9.2,9.2c2,0,3.8-0.6,5.3-1.7c0.7,2.6,3.1,4.6,6,4.6
			c3.4,0,6.2-2.8,6.2-6.2c0-0.1,0-0.1,0-0.2c1.1,0.8,2.4,1.3,3.8,1.3c3.5,0,6.3-2.8,6.3-6.3C37.9,32.1,35.5,29.5,32.3,29.1z"/>
	</g>
	<g>
		<path class="st1" d="M25.6,37.6c0-2.9,1.4-5.5,3.6-7C29.1,29.8,29,29,29,28.1c0-6.3,5.1-11.5,11.5-11.5c4.8,0,9,3,10.7,7.2
			c5.4,0.1,9.7,4.4,9.9,9.7c0.4-0.1,0.7-0.1,1.1-0.1c3.4,0,6.2,2.8,6.2,6.2c0,3.4-2.8,6.2-6.2,6.2l-27.6,0.4c-0.1,0-0.2,0-0.3,0
			c-0.1,0-0.2,0-0.2,0l-1.6,0c-0.9,0-1.6-0.4-2.2-1C27.5,43.8,25.6,40.9,25.6,37.6z M42.6,39.7C42.6,39.8,42.6,39.8,42.6,39.7
			L42.6,39.7C42.6,39.8,42.6,39.8,42.6,39.7z"/>
		<g>
			<path class="st1" d="M26.4,34.6c0,0,0,0.1,0,0.1c-0.1,0.1-0.2,0.2-0.3,0.2C26.2,34.8,26.3,34.7,26.4,34.6z"/>
			<path class="st1" d="M39.8,43.9L39.8,43.9C39.7,43.9,39.7,43.9,39.8,43.9C39.8,43.9,39.8,43.9,39.8,43.9z"/>
		</g>
	</g>
	<g>
		<g>
			<path class="st2" d="M21.7,15.1l2,1.7c0.7-1,1.8-1.8,3.1-2.1c1.4-0.4,2.8-0.1,4,0.5l1-2.4c-1.7-0.9-3.6-1.1-5.6-0.6
				C24.3,12.6,22.8,13.7,21.7,15.1z"/>
			<path class="st3" d="M25.2,7.8c-2.8,0.7-5,2.5-6.4,4.7l2,1.7c1-1.9,2.8-3.4,5.1-3.9c2.3-0.6,4.6-0.1,6.5,1.2l1-2.4
				C31,7.6,28.1,7.1,25.2,7.8z"/>
			<path class="st4" d="M24.1,3.6c-3.8,1-6.9,3.4-8.4,6.4l2,1.7c1.1-2.6,3.6-4.8,7-5.7c3.4-0.9,6.8-0.1,9,1.8l1-2.5
				C32,3.4,28.1,2.6,24.1,3.6z"/>
		</g>
	</g>
	<g>
		<g>
			<path class="st5" d="M63.5,53.4c0-7.5-5.6-13.7-12.8-14.6c-2.1-7.1-8.6-12.3-16.4-12.3c-8.4,0-15.4,6-16.8,14
				c-7.2,1-12.8,7.2-12.8,14.6c0,6.2,3.8,10.1,9.3,11.7c1,0.5,2.1,0.7,3.2,0.7h34.3c4.6,0,7.6-2.9,9.3-5.7
				C62.4,59.4,63.5,56.6,63.5,53.4z"/>
		</g>
		<g>
			<path class="st6" d="M11.5,42.6c-11.6,8.5-8.3,23.3,5.6,24.8c5.9,0.3,12.8,0.4,22.5,0C35.9,65.9-1.4,70.8,11.5,42.6z"/>
		</g>
		<path class="st7" d="M38.7,52.4C30,52.4,23,45.3,23,36.6c0-2.5,0.6-4.8,1.6-6.9c2.7-2.1,6-3.3,9.7-3.3c8.7,0,14.8,6.3,16.4,12.3
			c0,0,1.6-0.1,4.8,1.5c3.5,1.5,8,6.7,8,11.6c0,1.5-3.3,5.3-8.9,4.8c-3.8,0-7-2.9-7.3-6.7C44.8,51.5,41.9,52.4,38.7,52.4z"/>
	</g>
</g>
</svg>
