<?xml version="1.0" encoding="utf-8"?>
<!-- Generator: Adobe Illustrator 24.1.3, SVG Export Plug-In . SVG Version: 6.00 Build 0)  -->
<svg version="1.1" id="Layer_1" xmlns="http://www.w3.org/2000/svg" xmlns:xlink="http://www.w3.org/1999/xlink" x="0px" y="0px"
	 viewBox="0 0 70 70" style="enable-background:new 0 0 70 70;" xml:space="preserve">
<style type="text/css">
	.st0{fill:#0E3C62;}
	.st1{fill:#1A72AD;}
	.st2{opacity:0.13;fill:#0099CC;}
	.st3{fill:#E9F5FF;}
	.st4{fill:#04B8B5;}
</style>
<g>
	<g>
		<path class="st0" d="M58.8,2.8l0.6,13.1h-1.6c-0.3-2.3-0.7-4-1.2-4.9c-0.9-1.6-2-2.8-3.4-3.5c-1.4-0.8-3.3-1.1-5.6-1.1h-7.9v42.7
			c0,3.4,0.4,5.6,1.1,6.4c1,1.2,2.6,1.7,4.8,1.7h1.9v1.5H23.9v-1.5h2c2.4,0,4-0.7,5-2.1c0.6-0.9,0.9-2.9,0.9-6V6.3h-6.7
			c-2.6,0-4.5,0.2-5.6,0.6c-1.4,0.5-2.6,1.5-3.7,3c-1,1.5-1.6,3.5-1.8,6h-1.6l0.7-13.1H58.8z"/>
	</g>
	<g>
		<path class="st0" d="M52.8,57.1h-2.5c-2.8,0-4.8-0.7-6.2-2.2c-1-1.1-1.4-3.8-1.4-8.3l-0.1-14.5c-2.9,1.1-5,0.9-7.3,3.3
			c-0.9,1-2.1,2.9-2.8,4v7.2c0,4-0.4,6.6-1.2,7.7c0,0.1-0.1,0.1-0.1,0.2c0.8,1.6,1.7,3.1,2.9,4.6h18.7V57.1z"/>
	</g>
	<g>
		<path class="st1" d="M29.9,51.1l-2.1,1c-0.2-0.1-0.5-0.1-0.7,0.1l-19.8,7c-0.1,0-0.2,0.1-0.2,0.1c-0.5,0.3-0.6,1-0.4,1.6l3.6,7.5
			c0.2,0.4,0.6,0.7,1,0.7c0.2,0,0.5,0,0.7-0.2l17.8-11.1c0.2-0.1,0.4-0.3,0.5-0.5l2.1-1c-0.6-0.8-1.1-1.7-1.6-2.6
			C30.5,52.8,30.2,51.9,29.9,51.1z"/>
		<g>
			<circle class="st2" cx="43" cy="47.1" r="14.8"/>
			<path class="st3" d="M36.6,39.3c2.8-2.2,7-2.6,10.4-1.2c3.4,1.3,6.3,4.7,6.3,8.4c-2.2-2.8-4.6-4.5-7.4-5.7
				C43.1,39.7,40.1,39.3,36.6,39.3z"/>
			<path class="st4" d="M58.6,40.3c-3.9-8.2-13.7-11.6-21.9-7.7C29.5,36,25.9,44.2,28,51.7l1-0.5l2.7,5.5l-0.9,0.4
				c4.6,6.2,13,8.4,20.2,5C59.1,58.3,62.5,48.5,58.6,40.3z M45,61.4c-7.6,0.6-14.3-5.1-14.9-12.8c-0.6-7.6,5.1-14.3,12.8-14.9
				c7.6-0.6,14.3,5.1,14.9,12.8C58.3,54.1,52.6,60.8,45,61.4z"/>
		</g>
	</g>
</g>
</svg>
