<?xml version="1.0" encoding="utf-8"?>
<!-- Generator: Adobe Illustrator 24.1.3, SVG Export Plug-In . SVG Version: 6.00 Build 0)  -->
<svg version="1.1" id="Layer_1" xmlns="http://www.w3.org/2000/svg" xmlns:xlink="http://www.w3.org/1999/xlink" x="0px" y="0px"
	 viewBox="0 0 70 70" style="enable-background:new 0 0 70 70;" xml:space="preserve">
<style type="text/css">
	.st0{fill:#1C77C3;}
	.st1{fill:#1A72AD;}
	.st2{fill:#77ADDB;}
	.st3{fill:#E11E19;}
	.st4{fill:#6588AB;}
	.st5{fill:#C60006;}
	.st6{fill:#EA6552;}
	.st7{fill:#719ABC;}
</style>
<g>
	<g>
		<g>
			
				<rect x="10.2" y="28.2" transform="matrix(0.7068 -0.7074 0.7074 0.7068 -13.5673 33.3172)" class="st0" width="46.4" height="9.6"/>
			<g>
				<path class="st1" d="M46.1,13.7l-3.7,3.5c0.5,1.5,1.3,2.9,2.6,4.1c1.2,1.2,2.7,2,4.2,2.5l3.7-3.5L46.1,13.7z"/>
			</g>
			<g>
				<path class="st1" d="M20.9,52.5l3.7-3.7c-0.5-1.5-1.3-3-2.6-4.2c-1.2-1.2-2.7-2.1-4.2-2.6l-3.7,3.7L20.9,52.5z"/>
			</g>
			<path class="st2" d="M63.9,9.3l-6.5,6.5L50.6,9l6.5-6.5c-3.6-1.1-7.6-0.3-10.5,2.6c-4.1,4.1-4.1,10.6,0,14.7
				c4.1,4.1,10.6,4.1,14.7,0C64.2,16.9,65.1,12.9,63.9,9.3z"/>
			<path class="st2" d="M2.9,56.8l6.5-6.5l6.8,6.8l-6.5,6.5c3.6,1.1,7.6,0.3,10.5-2.6c4.1-4.1,4.1-10.6,0-14.7
				c-4.1-4.1-10.6-4.1-14.7,0C2.6,49.1,1.8,53.2,2.9,56.8z"/>
		</g>
		<g>
			<path class="st3" d="M62.3,67.9c-0.4,0.4-1.1,0.7-1.8,0.7c-0.7,0-1.3-0.3-1.8-0.7L37.1,46.3l8.8-8.8l21.7,21.7
				c0.5,0.4,0.7,1.1,0.7,1.8c0,0.7-0.3,1.3-0.7,1.8L62.3,67.9z"/>
			<polygon class="st4" points="16.6,14.9 16.6,12.1 9.7,8.1 7.7,10.1 11.8,17 14.5,17 37,39.5 39.1,37.4 			"/>
			<path class="st5" d="M64.9,60L46.7,41.9c-0.2-0.2-0.5-0.4-0.9-0.4c-0.3,0-0.7,0.1-0.9,0.4c-0.2,0.2-0.4,0.5-0.4,0.9
				c0,0.3,0.1,0.7,0.4,0.9l18.1,18.1c0.2,0.2,0.5,0.4,0.9,0.4c0.3,0,0.7-0.1,0.9-0.4c0.2-0.2,0.4-0.5,0.4-0.9
				C65.3,60.5,65.1,60.2,64.9,60z"/>
			<polygon class="st6" points="45,41.9 45,41.9 45,41.9 			"/>
			<polygon class="st6" points="64.9,61.8 64.9,61.8 64.9,61.8 			"/>
			<path class="st5" d="M61.4,63.5L43.2,45.4C43,45.1,42.7,45,42.4,45c-0.3,0-0.7,0.1-0.9,0.4c-0.2,0.2-0.4,0.5-0.4,0.9
				c0,0.3,0.1,0.7,0.4,0.9l18.1,18.1c0.2,0.2,0.5,0.4,0.9,0.4c0.3,0,0.7-0.1,0.9-0.4c0.2-0.2,0.4-0.5,0.4-0.9
				C61.7,64,61.6,63.7,61.4,63.5z"/>
			
				<rect x="36" y="37.7" transform="matrix(0.7074 -0.7068 0.7068 0.7074 -16.7438 39.8566)" class="st5" width="7.4" height="4.8"/>
		</g>
		<polygon class="st7" points="9,9.8 11.3,12.5 8.5,9.4 8.6,9.2 		"/>
		<polygon class="st7" points="9.4,9.4 12,12.5 8.8,9.1 8.9,8.9 		"/>
		<polygon class="st7" points="9.7,9.1 12.7,12.9 9.2,8.7 9.3,8.5 		"/>
	</g>
	<rect x="36" y="41.6" transform="matrix(0.7071 0.7071 -0.7071 0.7071 40.7362 -14.4274)" class="st3" width="3.5" height="0.7"/>
	<rect x="37" y="40.6" transform="matrix(0.7071 0.7071 -0.7071 0.7071 40.3371 -15.3909)" class="st3" width="3.5" height="0.7"/>
	
		<rect x="38.1" y="39.6" transform="matrix(0.7071 0.7071 -0.7071 0.7071 39.9674 -16.4932)" class="st3" width="3.5" height="0.7"/>
	<rect x="39.1" y="38.5" transform="matrix(0.7071 0.7071 -0.7071 0.7071 39.4709 -17.482)" class="st3" width="3.5" height="0.7"/>
	
		<rect x="40.1" y="37.7" transform="matrix(0.7071 0.7071 -0.7071 0.7071 39.1638 -18.4332)" class="st3" width="3.5" height="0.7"/>
</g>
</svg>
