<?xml version="1.0" encoding="utf-8"?>
<!-- Generator: Adobe Illustrator 24.1.3, SVG Export Plug-In . SVG Version: 6.00 Build 0)  -->
<svg version="1.1" id="Layer_1" xmlns="http://www.w3.org/2000/svg" xmlns:xlink="http://www.w3.org/1999/xlink" x="0px" y="0px"
	 viewBox="0 0 70 70" style="enable-background:new 0 0 70 70;" xml:space="preserve">
<style type="text/css">
	.st0{fill:#B0B8BC;stroke:#CACFD2;stroke-width:0.6334;stroke-miterlimit:10;}
	.st1{fill:#F7C7C5;}
	.st2{fill:#6588AB;}
	.st3{opacity:0.42;clip-path:url(#XMLID_5_);fill:#A4C9E7;}
	.st4{opacity:0.43;fill:#D6E6F2;}
	.st5{fill:#FFFFFF;}
	.st6{opacity:0.42;fill:#C60006;}
</style>
<g>
	<g>
		<g>
			<g>
				<defs>
					<path id="XMLID_14_" d="M47.9,51.1c0.1,6.1-8.1,16.2-12.7,16.3L1.4,67.6L0.8-0.2l46.7-0.4L47.9,51.1L47.9,51.1z"/>
				</defs>
				<use xlink:href="#XMLID_14_"  style="overflow:visible;fill:#0E3C62;"/>
				<clipPath id="XMLID_2_">
					<use xlink:href="#XMLID_14_"  style="overflow:visible;"/>
				</clipPath>
			</g>
			<path class="st0" d="M29.8,39.3"/>
			<path class="st0" d="M27.4,42"/>
		</g>
		<g>
			<g>
				<defs>
					<path id="XMLID_13_" d="M49.2,52c0.1,6.1-8.1,16.2-12.7,16.3L2.6,68.6L2,0.8l46.7-0.4L49.2,52L49.2,52z"/>
				</defs>
				<use xlink:href="#XMLID_13_"  style="overflow:visible;fill:#E9F5FF;"/>
				<clipPath id="XMLID_4_">
					<use xlink:href="#XMLID_13_"  style="overflow:visible;"/>
				</clipPath>
			</g>
			<path class="st1" d="M31,40.3"/>
			<path class="st1" d="M28.6,43"/>
		</g>
		<path class="st2" d="M41.2,15.2H11.9c-0.4,0-0.7-0.3-0.7-0.7v0c0-0.4,0.3-0.7,0.7-0.7h29.3c0.4,0,0.7,0.3,0.7,0.7v0
			C41.9,14.9,41.6,15.2,41.2,15.2z"/>
		<path class="st2" d="M41.2,20.3H11.9c-0.4,0-0.7-0.3-0.7-0.7v0c0-0.4,0.3-0.7,0.7-0.7h29.3c0.4,0,0.7,0.3,0.7,0.7v0
			C41.9,20,41.6,20.3,41.2,20.3z"/>
		<path class="st2" d="M41.2,25.3H11.9c-0.4,0-0.7-0.3-0.7-0.7v0c0-0.4,0.3-0.7,0.7-0.7h29.3c0.4,0,0.7,0.3,0.7,0.7v0
			C41.9,25,41.6,25.3,41.2,25.3z"/>
		<path class="st2" d="M41.2,31H11.9c-0.4,0-0.7-0.3-0.7-0.7v0c0-0.4,0.3-0.7,0.7-0.7h29.3c0.4,0,0.7,0.3,0.7,0.7v0
			C41.9,30.6,41.6,31,41.2,31z"/>
		<path class="st2" d="M41.2,37H11.9c-0.4,0-0.7-0.3-0.7-0.7l0,0c0-0.4,0.3-0.7,0.7-0.7h29.3c0.4,0,0.7,0.3,0.7,0.7l0,0
			C41.9,36.7,41.6,37,41.2,37z"/>
		<path class="st2" d="M41.2,43.9H11.9c-0.4,0-0.7-0.3-0.7-0.7v0c0-0.4,0.3-0.7,0.7-0.7h29.3c0.4,0,0.7,0.3,0.7,0.7v0
			C41.9,43.6,41.6,43.9,41.2,43.9z"/>
		<path class="st2" d="M41.2,50.3H11.9c-0.4,0-0.7-0.3-0.7-0.7l0,0c0-0.4,0.3-0.7,0.7-0.7h29.3c0.4,0,0.7,0.3,0.7,0.7l0,0
			C41.9,50,41.6,50.3,41.2,50.3z"/>
	</g>
	<g>
		<defs>
			<path id="XMLID_11_" d="M46.6,16.4l0.8,6.3c0.1,0.9,0.4,1.7,1.1,2.3l10.3,9.5c1.4,1.3,3.7,1.2,5-0.2l4.1-4.5
				c1.3-1.4,1.2-3.7-0.2-5l-10.3-9.5c-0.7-0.6-1.6-0.9-2.4-0.9l-5.9-0.7C47.5,13.8,46.4,14.8,46.6,16.4z M50.9,16.7
				c0.3,0.8-0.1,1.6-0.8,1.9c-0.8,0.3-1.6-0.1-1.9-0.8c-0.3-0.8,0.1-1.6,0.8-1.9C49.7,15.5,50.6,15.9,50.9,16.7z"/>
		</defs>
		<use xlink:href="#XMLID_11_"  style="overflow:visible;fill:#C60006;"/>
		<clipPath id="XMLID_5_">
			<use xlink:href="#XMLID_11_"  style="overflow:visible;"/>
		</clipPath>
		<polygon class="st3" points="68.4,29.1 62.6,35.7 59.2,35.3 48.5,25.3 		"/>
	</g>
	<g>
		<defs>
			<path id="XMLID_3_" d="M46.7,15.4l-2.9,7.6c-0.4,1-0.5,2.2-0.1,3.3l6,16.7c0.8,2.3,3.4,3.5,5.7,2.7l7.3-2.6
				c2.3-0.8,3.5-3.4,2.7-5.7l-6-16.7c-0.4-1.1-1.2-2-2.2-2.5L51,13.8C49.3,12.9,47.4,13.4,46.7,15.4z M51.4,18.2
				c-0.1,1-1,1.8-2.1,1.7c-1-0.1-1.8-1-1.7-2.1s1-1.8,2.1-1.7C50.7,16.2,51.5,17.1,51.4,18.2z"/>
		</defs>
		<use xlink:href="#XMLID_3_"  style="overflow:visible;fill:#E11E19;"/>
		<clipPath id="XMLID_6_">
			<use xlink:href="#XMLID_3_"  style="overflow:visible;"/>
		</clipPath>
	</g>
	<polygon class="st4" points="2.4,54 3.1,1.2 48.7,0.4 	"/>
	<path class="st5" d="M56.5,23.9l-9.1,2.9c-0.4,0.1-0.8-0.1-0.9-0.5v0c-0.1-0.4,0.1-0.8,0.5-0.9l9.1-2.9c0.4-0.1,0.8,0.1,0.9,0.5
		l0,0C57.1,23.4,56.8,23.8,56.5,23.9z"/>
	<path class="st5" d="M57.3,26.8l-9.1,2.9c-0.4,0.1-0.8-0.1-0.9-0.5v0c-0.1-0.4,0.1-0.8,0.5-0.9l9.1-2.9c0.4-0.1,0.8,0.1,0.9,0.5
		l0,0C57.9,26.3,57.7,26.7,57.3,26.8z"/>
	<path class="st5" d="M58.2,29.7l-9.1,2.9c-0.4,0.1-0.8-0.1-0.9-0.5l0,0c-0.1-0.4,0.1-0.8,0.5-0.9l9.1-2.9c0.4-0.1,0.8,0.1,0.9,0.5
		v0C58.8,29.2,58.6,29.6,58.2,29.7z"/>
	<path class="st5" d="M59.3,32.6l-9.1,2.9c-0.4,0.1-0.8-0.1-0.9-0.5l0,0c-0.1-0.4,0.1-0.8,0.5-0.9l9.1-2.9c0.4-0.1,0.8,0.1,0.9,0.5
		v0C59.9,32.1,59.7,32.5,59.3,32.6z"/>
	<path class="st6" d="M63,43l-8.5,2.9c0,0-2.8,0.8-4.7-2.4c-0.3-0.9-6.4-17.9-6.4-17.9L63,43z"/>
</g>
</svg>
