<?xml version="1.0" encoding="utf-8"?>
<!-- Generator: Adobe Illustrator 24.1.3, SVG Export Plug-In . SVG Version: 6.00 Build 0)  -->
<svg version="1.1" id="Layer_1" xmlns="http://www.w3.org/2000/svg" xmlns:xlink="http://www.w3.org/1999/xlink" x="0px" y="0px"
	 viewBox="0 0 70 70" style="enable-background:new 0 0 70 70;" xml:space="preserve">
<style type="text/css">
	.st0{fill-rule:evenodd;clip-rule:evenodd;fill:#CCE4F2;}
	.st1{fill:#77ADDB;}
	.st2{fill-rule:evenodd;clip-rule:evenodd;fill:#0E3C62;}
	.st3{fill:#1A72AD;}
	.st4{fill-rule:evenodd;clip-rule:evenodd;fill:#155992;}
	.st5{fill-rule:evenodd;clip-rule:evenodd;fill:#FFFFFF;}
</style>
<circle class="st0" cx="35.5" cy="33.9" r="13.2"/>
<g>
	<path class="st1" d="M36.3,54.8c-8.9,0-17.6-5.1-30.1-17C5,36.6,4.3,35,4.3,33.3c0-1.7,0.7-3.3,1.9-4.5
		c12.1-11.6,21-16.4,29.6-16.2c8.3,0.2,16.6,5,28.7,16.6c1.4,1.3,2.1,3.1,2.1,5c0,1.9-0.8,3.6-2.1,4.9
		C52.9,50.3,44.7,54.8,36.3,54.8z M35.3,16.9c-6.1-0.1-16.8,4.7-25.2,14.6c-0.9,1.1-0.9,2.7,0.1,3.8c18.7,20.3,31.9,20.4,51.5,1l0,0
		c1.1-1,1.1-2.9,0-3.9C50.1,21.4,42.9,17,35.3,16.9z"/>
</g>
<g>
	<path class="st2" d="M41.7,45.3l-2.6-8l7.3,3.7c0.9-1.3,1.5-2.8,1.9-4.5c1.5-7-3-13.9-10-15.4c-7-1.5-13.9,3-15.4,10
		c-1.5,7,3,13.9,10,15.4C35.9,47.3,39,46.7,41.7,45.3z"/>
</g>
<g>
	<path class="st3" d="M12.1,37.2c-0.7-0.7-1.3-1.3-2-2.1c-1-1.1-1-2.7-0.1-3.8c8.4-9.9,19.1-14.6,25.2-14.6c7.2,0.1,14,4,24.4,13.6
		c-0.1-0.1-0.2-0.3-0.3-0.4C47.9,19.1,40.7,14.7,33,14.6c-6.1-0.1-16.8,4.7-25.2,14.6c-0.9,1.1-0.9,2.7,0.1,3.8
		C9.4,34.5,10.8,35.9,12.1,37.2z"/>
	<path class="st3" d="M64.6,29.3c-0.6-0.5-1.1-1.1-1.7-1.6c1,1.2,1.5,2.7,1.5,4.3c0,1.9-0.8,3.6-2.1,4.9
		C50.7,48,42.5,52.6,34.1,52.6c-8.5,0-16.9-4.7-28.5-15.5c0.2,0.2,0.4,0.5,0.6,0.7c12.5,11.9,21.2,16.9,30.1,17
		c8.4,0,16.6-4.5,28.2-15.6c1.4-1.3,2.1-3.1,2.1-4.9C66.7,32.4,65.9,30.6,64.6,29.3z"/>
</g>
<path class="st4" d="M25.1,33.4c1.5-7,8.4-11.5,15.4-10c2,0.4,3.8,1.3,5.3,2.5c-1.8-2.3-4.4-4.1-7.6-4.7c-7-1.5-13.9,3-15.4,10
	c-1.1,5,0.9,9.9,4.7,12.9C25.3,41.2,24.3,37.3,25.1,33.4z"/>
<circle class="st5" cx="44.2" cy="28.9" r="1.3"/>
<circle class="st5" cx="41.7" cy="30.4" r="0.6"/>
</svg>
