<?xml version="1.0" encoding="utf-8"?>
<!-- Generator: Adobe Illustrator 24.1.3, SVG Export Plug-In . SVG Version: 6.00 Build 0)  -->
<svg version="1.1" id="Layer_1" xmlns="http://www.w3.org/2000/svg" xmlns:xlink="http://www.w3.org/1999/xlink" x="0px" y="0px"
	 viewBox="0 0 70 70" style="enable-background:new 0 0 70 70;" xml:space="preserve">
<style type="text/css">
	.st0{fill:#1C77C3;}
	.st1{fill:#77ADDB;}
	.st2{fill:#04B8B5;}
	.st3{fill:#E11E19;}
</style>
<g>
	<g>
		<g>
			<path class="st0" d="M37.2,19.2c-0.2,0-0.5-0.2-0.5-0.5v-4.4c0-0.2,0.2-0.5,0.5-0.5s0.5,0.2,0.5,0.5v4.4
				C37.6,19,37.4,19.2,37.2,19.2z"/>
		</g>
		<g>
			<path class="st0" d="M37.2,63.1c-0.2,0-0.5-0.2-0.5-0.5v-4.4c0-0.2,0.2-0.5,0.5-0.5s0.5,0.2,0.5,0.5v4.4
				C37.6,62.9,37.4,63.1,37.2,63.1z"/>
		</g>
		<g>
			<path class="st0" d="M62.4,39.2H58c-0.2,0-0.5-0.2-0.5-0.5c0-0.2,0.2-0.5,0.5-0.5h4.4c0.2,0,0.5,0.2,0.5,0.5
				C62.8,38.9,62.6,39.2,62.4,39.2z"/>
		</g>
		<g>
			<path class="st1" d="M57.7,51.9c-0.1,0-0.2,0-0.3-0.1L55.6,50c-0.2-0.2-0.2-0.5,0-0.6c0.2-0.2,0.5-0.2,0.6,0l1.8,1.8
				c0.2,0.2,0.2,0.5,0,0.6C57.9,51.9,57.8,51.9,57.7,51.9z"/>
		</g>
		<g>
			<path class="st1" d="M48.4,59.9c-0.2,0-0.4-0.1-0.4-0.3l-0.9-2.4c-0.1-0.2,0-0.5,0.3-0.6c0.2-0.1,0.5,0,0.6,0.3l0.9,2.4
				c0.1,0.2,0,0.5-0.3,0.6C48.5,59.9,48.5,59.9,48.4,59.9z"/>
		</g>
		<g>
			<path class="st0" d="M14.7,39.2h-4.4c-0.2,0-0.5-0.2-0.5-0.5c0-0.2,0.2-0.5,0.5-0.5h4.4c0.2,0,0.5,0.2,0.5,0.5
				C15.2,38.9,15,39.2,14.7,39.2z"/>
		</g>
		<g>
			<path class="st1" d="M16.4,51.2c-0.1,0-0.2,0-0.3-0.1c-0.2-0.2-0.2-0.5,0-0.6l1.8-1.8c0.2-0.2,0.5-0.2,0.6,0s0.2,0.5,0,0.6
				l-1.8,1.8C16.6,51.2,16.5,51.2,16.4,51.2z"/>
		</g>
		<g>
			<path class="st1" d="M25.6,59.2c-0.1,0-0.1,0-0.2,0c-0.2-0.1-0.3-0.3-0.3-0.6l0.9-2.4c0.1-0.2,0.3-0.3,0.6-0.3
				c0.2,0.1,0.3,0.3,0.3,0.6L26,58.9C26,59.1,25.8,59.2,25.6,59.2z"/>
		</g>
		<g>
			<path class="st1" d="M18.4,27.7c-0.1,0-0.2,0-0.3-0.1l-1.8-1.8c-0.2-0.2-0.2-0.5,0-0.6c0.2-0.2,0.5-0.2,0.6,0l1.8,1.8
				c0.2,0.2,0.2,0.5,0,0.6C18.7,27.7,18.6,27.7,18.4,27.7z"/>
		</g>
		<g>
			<path class="st1" d="M26.8,20.3c-0.2,0-0.4-0.1-0.4-0.3l-0.9-2.4c-0.1-0.2,0-0.5,0.3-0.6c0.2-0.1,0.5,0,0.6,0.3l0.9,2.4
				c0.1,0.2,0,0.5-0.3,0.6C26.9,20.3,26.9,20.3,26.8,20.3z"/>
		</g>
		<g>
			<path class="st1" d="M56.3,29c-0.1,0-0.2,0-0.3-0.1c-0.2-0.2-0.2-0.5,0-0.6l1.8-1.8c0.2-0.2,0.5-0.2,0.6,0c0.2,0.2,0.2,0.5,0,0.6
				l-1.8,1.8C56.6,29,56.4,29,56.3,29z"/>
		</g>
		<g>
			<path class="st1" d="M48,21.6c-0.1,0-0.1,0-0.2,0c-0.2-0.1-0.3-0.3-0.3-0.6l0.9-2.4c0.1-0.2,0.3-0.3,0.6-0.3
				c0.2,0.1,0.3,0.3,0.3,0.6l-0.9,2.4C48.3,21.5,48.2,21.6,48,21.6z"/>
		</g>
	</g>
	<path class="st2" d="M66.6,33.1c0.3,3.1,0.5,6.2,0,9.3s-1.4,6.1-2.8,8.9c-1.4,2.8-3.2,5.4-5.4,7.8c-2.2,2.3-4.8,4.3-7.5,5.9
		c-5.6,3.1-12.2,4.4-18.7,3.8s-12.8-3.3-17.8-7.6c-0.6-0.6-1.3-1.1-1.8-1.7l-1.7-1.8c-1-1.3-2.1-2.6-2.9-4c-1.7-2.8-3.1-5.9-3.8-9.2
		c-0.8-3.2-1.2-6.6-1-9.9c0.1-3.3,0.7-6.7,1.8-9.9c2-6.4,6.2-12.1,11.6-16.4c2.8-2.1,5.8-3.8,9.1-5.1s6.8-2,10.4-2.3v10.8
		c-2.5-0.3-5.1-0.1-7.6,0.4c-2.5,0.6-5,1.6-7.3,2.9c-4.6,2.7-8.4,6.9-10.5,12c-0.2,0.6-0.6,1.3-0.8,1.9l-0.6,2
		c-0.2,0.7-0.3,1.4-0.4,2c-0.1,0.3-0.1,0.7-0.2,1l-0.1,1c-0.3,2.8,0,5.6,0.6,8.3s1.7,5.3,3.1,7.7c0.7,1.2,1.5,2.3,2.3,3.5L16,56
		c0.4,0.5,1,1,1.5,1.5c4.1,3.9,9.4,6.5,15,7.3c5.6,0.9,11.6,0,16.8-2.5c2.6-1.3,5-2.9,7.2-4.9c2.1-2,4-4.3,5.5-6.9
		c1.5-2.6,2.5-5.4,3.2-8.3c0.7-2.9,0.8-5.9,0.7-9L66.6,33.1z"/>
	<polygon class="st2" points="47.4,7.3 33.3,14.3 34.2,-1.4 	"/>
	<g>
		<path class="st3" d="M46.7,48.2L46.7,48.2c-2.1,0-5.1-1.9-7.9-5.1l1.8-2.5c2.7,3,5.4,4.6,6.3,4.6l0,0c2.2,0,4.3-0.9,5.7-2.5
			c1-1.3,1.5-3,1.2-4.6c-0.4-1.9-1.6-3.6-3.3-4.6c-0.9-0.6-2.4-1-4.2-0.6c-2.5,0.7-4.2,3-6.1,5.5C38.1,41,35.9,44,32,46.1
			c-2.8,1.5-5.8,1.9-8.4,1.2c-2.4-0.7-4.3-2.4-5.7-4.8c-2.4-4.5,0-9.4,3.4-11.8c6.3-4.5,12.3,2.4,14.8,5.4l-1.3,2.2
			C30,32.6,26,30.9,23,33c-2.4,1.6-4,4.9-2.5,8.1c0.9,1.6,2.2,2.8,3.9,3.4c1.8,0.6,4,0.3,6.1-0.9c3.3-1.8,5.2-4.5,7-7
			c2.1-2.8,4.2-5.5,7.6-6.6c2.1-0.7,4.5-0.4,6.4,0.7c2.4,1.3,4,3.9,4.6,6.6c0.4,2.5-0.1,5.1-1.8,7C52.7,46.8,49.8,48.2,46.7,48.2z"
			/>
	</g>
</g>
</svg>
