<?xml version="1.0" encoding="utf-8"?>
<!-- Generator: Adobe Illustrator 25.0.0, SVG Export Plug-In . SVG Version: 6.00 Build 0)  -->
<svg version="1.1" id="Layer_1" xmlns="http://www.w3.org/2000/svg" xmlns:xlink="http://www.w3.org/1999/xlink" x="0px" y="0px"
	 viewBox="0 0 70 70" style="enable-background:new 0 0 70 70;" xml:space="preserve">
<style type="text/css">
	.st0{fill:#B0B8BC;stroke:#CACFD2;stroke-width:0.6334;stroke-miterlimit:10;}
	.st1{fill:#F7C7C5;}
	.st2{fill:#6588AB;}
	.st3{opacity:0.43;fill:#B6D4EC;}
	.st4{fill:#155992;}
	.st5{opacity:0.43;fill:#D6E6F2;}
	.st6{fill:#04B8B5;}
</style>
<g>
	<g>
		<g>
			<g>
				<g>
					<defs>
						<path id="XMLID_337_" d="M31.9,50.3c0,4.2-5.5,11.1-8.6,11.1L0.2,61.6l-0.4-46.1l31.8-0.3L31.9,50.3L31.9,50.3z"/>
					</defs>
					<use xlink:href="#XMLID_337_"  style="overflow:visible;fill:#0E3C62;"/>
					<clipPath id="XMLID_2_">
						<use xlink:href="#XMLID_337_"  style="overflow:visible;"/>
					</clipPath>
				</g>
				<path class="st0" d="M19.6,42.3"/>
				<path class="st0" d="M18,44.1"/>
			</g>
			<g>
				<g>
					<defs>
						<path id="XMLID_336_" d="M32.8,50.9c0,4.2-5.5,11.1-8.6,11.1L1.1,62.2L0.7,16.1l31.8-0.3L32.8,50.9L32.8,50.9z"/>
					</defs>
					<use xlink:href="#XMLID_336_"  style="overflow:visible;fill:#A4C9E7;"/>
					<clipPath id="XMLID_3_">
						<use xlink:href="#XMLID_336_"  style="overflow:visible;"/>
					</clipPath>
				</g>
				<path class="st1" d="M20.4,42.9"/>
				<path class="st1" d="M18.8,44.8"/>
			</g>
			<path class="st2" d="M27.4,25.9h-20c-0.3,0-0.5-0.2-0.5-0.5v0c0-0.3,0.2-0.5,0.5-0.5h20c0.3,0,0.5,0.2,0.5,0.5v0
				C27.9,25.7,27.6,25.9,27.4,25.9z"/>
			<path class="st2" d="M27.4,29.4h-20c-0.3,0-0.5-0.2-0.5-0.5v0c0-0.3,0.2-0.5,0.5-0.5h20c0.3,0,0.5,0.2,0.5,0.5v0
				C27.9,29.2,27.6,29.4,27.4,29.4z"/>
			<path class="st2" d="M27.4,32.8h-20c-0.3,0-0.5-0.2-0.5-0.5v0c0-0.3,0.2-0.5,0.5-0.5h20c0.3,0,0.5,0.2,0.5,0.5v0
				C27.9,32.6,27.6,32.8,27.4,32.8z"/>
			<path class="st2" d="M27.4,36.6h-20c-0.3,0-0.5-0.2-0.5-0.5l0,0c0-0.3,0.2-0.5,0.5-0.5h20c0.3,0,0.5,0.2,0.5,0.5l0,0
				C27.9,36.4,27.6,36.6,27.4,36.6z"/>
			<path class="st2" d="M27.4,40.7h-20c-0.3,0-0.5-0.2-0.5-0.5v0c0-0.3,0.2-0.5,0.5-0.5h20c0.3,0,0.5,0.2,0.5,0.5v0
				C27.9,40.5,27.6,40.7,27.4,40.7z"/>
			<path class="st2" d="M27.4,45.4h-20c-0.3,0-0.5-0.2-0.5-0.5l0,0c0-0.3,0.2-0.5,0.5-0.5h20c0.3,0,0.5,0.2,0.5,0.5l0,0
				C27.9,45.2,27.6,45.4,27.4,45.4z"/>
			<path class="st2" d="M27.4,49.8h-20c-0.3,0-0.5-0.2-0.5-0.5v0c0-0.3,0.2-0.5,0.5-0.5h20c0.3,0,0.5,0.2,0.5,0.5v0
				C27.9,49.5,27.6,49.8,27.4,49.8z"/>
		</g>
		<polygon class="st3" points="1,52.3 1.4,16.3 32.5,15.8 		"/>
	</g>
	<g>
		<g>
			<g>
				<g>
					<defs>
						<path id="XMLID_335_" d="M69,15.1l0.3,35.2l0,0c0,4.2-5.5,11.1-8.6,11.1l-23.1,0.2l-0.4-46.1"/>
					</defs>
					<use xlink:href="#XMLID_335_"  style="overflow:visible;fill:#0E3C62;"/>
					<clipPath id="XMLID_4_">
						<use xlink:href="#XMLID_335_"  style="overflow:visible;"/>
					</clipPath>
				</g>
				<path class="st0" d="M56.9,42.3"/>
				<path class="st0" d="M55.3,44.1"/>
			</g>
			<g>
				<g>
					<defs>
						<path id="XMLID_332_" d="M70.1,50.9c0,4.2-5.5,11.1-8.6,11.1l-23.1,0.2L38,16.1l31.8-0.3L70.1,50.9L70.1,50.9z"/>
					</defs>
					<use xlink:href="#XMLID_332_"  style="overflow:visible;fill:#C8DFF1;"/>
					<clipPath id="XMLID_5_">
						<use xlink:href="#XMLID_332_"  style="overflow:visible;"/>
					</clipPath>
				</g>
				<path class="st1" d="M57.8,42.9"/>
				<path class="st1" d="M56.1,44.8"/>
			</g>
			<path class="st4" d="M64.7,25.9h-20c-0.3,0-0.5-0.2-0.5-0.5v0c0-0.3,0.2-0.5,0.5-0.5h20c0.3,0,0.5,0.2,0.5,0.5v0
				C65.2,25.7,65,25.9,64.7,25.9z"/>
			<path class="st4" d="M64.7,29.4h-20c-0.3,0-0.5-0.2-0.5-0.5v0c0-0.3,0.2-0.5,0.5-0.5h20c0.3,0,0.5,0.2,0.5,0.5v0
				C65.2,29.2,65,29.4,64.7,29.4z"/>
			<path class="st4" d="M64.7,32.8h-20c-0.3,0-0.5-0.2-0.5-0.5v0c0-0.3,0.2-0.5,0.5-0.5h20c0.3,0,0.5,0.2,0.5,0.5v0
				C65.2,32.6,65,32.8,64.7,32.8z"/>
			<path class="st4" d="M64.7,36.6h-20c-0.3,0-0.5-0.2-0.5-0.5l0,0c0-0.3,0.2-0.5,0.5-0.5h20c0.3,0,0.5,0.2,0.5,0.5l0,0
				C65.2,36.4,65,36.6,64.7,36.6z"/>
			<path class="st4" d="M64.7,40.7l-20,0c-0.3,0-0.5-0.2-0.5-0.5v0c0-0.3,0.2-0.5,0.5-0.5h20c0.3,0,0.5,0.2,0.5,0.5v0
				C65.2,40.5,65,40.7,64.7,40.7z"/>
			<path class="st4" d="M64.7,45.4h-20c-0.3,0-0.5-0.2-0.5-0.5l0,0c0-0.3,0.2-0.5,0.5-0.5h20c0.3,0,0.5,0.2,0.5,0.5l0,0
				C65.2,45.2,65,45.4,64.7,45.4z"/>
			<path class="st4" d="M64.7,49.8h-20c-0.3,0-0.5-0.2-0.5-0.5v0c0-0.3,0.2-0.5,0.5-0.5h20c0.3,0,0.5,0.2,0.5,0.5v0
				C65.2,49.5,65,49.8,64.7,49.8z"/>
		</g>
		<polygon class="st5" points="38.3,52.8 38,16.1 69.8,15.8 		"/>
	</g>
	<g>
		<path class="st6" d="M35.5,67.1h-2v-3.2h2V67.1z M35.5,60.9h-2v-4h2V60.9z M35.5,53.9h-2v-4h2V53.9z M35.5,46.9h-2v-4h2V46.9z
			 M35.5,39.9h-2v-4h2V39.9z M35.5,32.9h-2v-4h2V32.9z M35.5,25.9h-2v-4h2V25.9z M35.5,18.9h-2v-4h2V18.9z M35.5,11.9h-2v-4h2V11.9z
			 M35.5,4.9h-2v-4h2V4.9z"/>
	</g>
</g>
</svg>
