<?xml version="1.0" encoding="utf-8"?>
<!-- Generator: Adobe Illustrator 24.1.3, SVG Export Plug-In . SVG Version: 6.00 Build 0)  -->
<svg version="1.1" id="Layer_1" xmlns="http://www.w3.org/2000/svg" xmlns:xlink="http://www.w3.org/1999/xlink" x="0px" y="0px"
	 viewBox="0 0 234 185" style="enable-background:new 0 0 234 185;" xml:space="preserve">
<style type="text/css">
	.st0{fill:#1C77C3;}
	.st1{fill:#04B8B5;}
	.st2{opacity:0.46;}
	.st3{clip-path:url(#SVGID_2_);fill:#E9F5FF;}
	.st4{fill:#9BE3E1;}
	.st5{fill:#FFFFFF;}
	.st6{fill:#00C1FC;}
	.st7{fill:#77ADDB;}
</style>
<g>
	<path class="st0" d="M186.7,94c-6.4-29.2-35.6-51.8-68.8-51.8c-27.4,0-50.9,13.8-63,34.8c-28.3,2.4-50.2,25-50.2,51.8
		c0,28.3,25.8,51.8,56.6,51.8h122.9c25.8,0,46.9-19.4,46.9-42.9C230.4,114.2,211,95.5,186.7,94"/>
	<path class="st1" d="M156.1,3.1L90.1,33.8v56.5c0,42.9,27.5,79.4,65.9,92.7c38.4-13.3,65.9-49.8,65.9-92.7V33.8L156.1,3.1z"/>
	<g class="st2">
		<g>
			<g>
				<g>
					<defs>
						<rect id="SVGID_1_" x="156.1" y="16.9" width="53.4" height="152.6"/>
					</defs>
					<clipPath id="SVGID_2_">
						<use xlink:href="#SVGID_1_"  style="overflow:visible;"/>
					</clipPath>
					<path class="st3" d="M156.1,16.9v152.6c32.1-13,53.4-44.3,53.4-79.3V41.9L156.1,16.9z"/>
				</g>
			</g>
		</g>
	</g>
	<path class="st4" d="M102.7,41.9v48.4c0,34.9,21.3,66.2,53.4,79.3V16.9L102.7,41.9z"/>
	<path class="st5" d="M189.3,91.4c0,18.4-14.9,33.3-33.3,33.3s-33.3-14.9-33.3-33.3s14.9-33.3,33.3-33.3
		C174.5,58.2,189.3,73.1,189.3,91.4"/>
	<polygon class="st6" points="149.9,108.5 135.3,93.8 140.2,89 149.9,98.8 171.9,76.9 176.8,81.7 	"/>
	<path class="st7" d="M104.3,134c-3.6-16.2-19.7-28.6-38.1-28.6c-15.3,0-28.2,7.6-35,19.3C15.5,126,3.4,138.6,3.4,153.3
		C3.4,169,17.7,182,34.7,182h68.2c14.4,0,26-10.8,26-23.8C128.5,145.2,117.8,135,104.3,134"/>
</g>
</svg>
