<?xml version="1.0" encoding="utf-8"?>
<!-- Generator: Adobe Illustrator 24.1.3, SVG Export Plug-In . SVG Version: 6.00 Build 0)  -->
<svg version="1.1" id="Ebene_1" xmlns="http://www.w3.org/2000/svg" xmlns:xlink="http://www.w3.org/1999/xlink" x="0px" y="0px"
	 viewBox="0 0 640 480" style="enable-background:new 0 0 640 480;" xml:space="preserve">
<style type="text/css">
	.st0{fill:#FFFFFF;}
	.st1{fill:#D6E6F2;}
	.st2{fill:none;stroke:#FFFFFF;stroke-width:11.7022;}
	.st3{fill:#6588AB;}
	.st4{fill:#E1E7EC;}
	.st5{fill:#C1CEDD;}
	.st6{fill:#E96A63;}
	.st7{fill:#E8B434;}
	.st8{fill:#38D289;}
	.st9{fill:#869CB3;}
	.st10{fill:#1C77C3;}
	.st11{fill:#E4E5E9;}
	.st12{fill:#F5F8FA;}
	.st13{fill:#F0F4F7;}
	.st14{fill:#4D6278;}
	.st15{fill:none;stroke:#BEC8D2;stroke-width:0.2883;stroke-miterlimit:10;}
	.st16{fill:none;stroke:#404040;stroke-width:0.9087;stroke-linecap:round;stroke-miterlimit:10;}
	.st17{fill:#E11E19;}
	.st18{clip-path:url(#SVGID_2_);}
	.st19{fill:#212934;}
	.st20{fill:#DFE7F0;}
	.st21{fill:#B0B8BC;stroke:#CACFD2;stroke-width:1.8529;stroke-miterlimit:10;}
	.st22{fill:#F7C7C5;}
	.st23{opacity:0.43;fill:#D6E6F2;}
	.st24{fill:none;stroke:#DFE7F0;stroke-width:2.9254;stroke-miterlimit:10;}
	.st25{fill:#CCE4F2;}
	.st26{fill:#66AEDE;}
	.st27{fill:#A4C9E7;}
	.st28{fill:#77ADDB;}
	.st29{fill:#8FDEF6;}
	.st30{fill:#155992;}
	.st31{fill:url(#SVGID_3_);}
	.st32{fill:url(#SVGID_4_);}
</style>
<g>
	<polygon class="st0" points="415.9,288.9 404,283.9 405,281.4 417,286.2 	"/>
	<rect x="402.1" y="293.2" class="st0" width="12.9" height="2.9"/>
	<polygon class="st0" points="405,307.8 404,305.1 415.9,300.2 417,302.7 	"/>
	
		<rect x="409.4" y="310.5" transform="matrix(0.706 -0.7082 0.7082 0.706 -98.7102 386.1807)" class="st0" width="12.8" height="2.9"/>
	<polygon class="st0" points="422.6,323.8 420.1,322.8 424.9,310.9 427.6,312 	"/>
	<rect x="431.7" y="312.8" class="st0" width="2.9" height="12.8"/>
	<rect x="451.4" y="293.2" class="st0" width="12.9" height="2.9"/>
	<polygon class="st0" points="450.7,288.9 449.6,286.2 461.5,281.4 462.5,283.9 	"/>
	<polygon class="st0" points="447.2,282.7 445.2,280.7 454.2,271.5 456.2,273.5 	"/>
	<polygon class="st0" points="441.4,278.3 438.9,277.2 443.8,265.3 446.5,266.3 	"/>
	<rect x="431.7" y="263.4" class="st0" width="2.9" height="12.8"/>
	<polygon class="st0" points="424.9,278.3 420.1,266.3 422.6,265.3 427.6,277.2 	"/>
	<g>
		<path class="st1" d="M620.3,44.9H67.5c-6.7,0-6.7,6.7-6.7,13.4v12.2v18.9h-0.3v20.3h0.3v1l-0.3,0v285.5l0.7,0
			c1.3,5.1,6,8.4,11.7,8.4l544-1.3c6.7,0,12.1-4.6,12.1-11.3v-0.8V109.7V92v-2.6V69.2V57C629,50.3,626.9,44.9,620.3,44.9z"/>
		<path class="st2" d="M316.5,305.4h142.7H316.5z"/>
		<g>
			<g>
				<g>
					<path class="st3" d="M578.6,447.9c0,6.7-5.4,11.3-12.1,11.3l-544,1.3c-6.7,0-12.1-4.6-12.1-11.3v-335c0-6.7,0-13.4,6.7-13.4
						h552.7c6.7,0,8.7,5.4,8.7,12.1V447.9z"/>
					<path class="st4" d="M187.3,126.4l-7.9-13.1c-0.9-1.6-3-2.9-4.6-2.9H69.2c-1.6,0-3.6,1.3-4.4,2.9l-7.3,13.1h-47v22.8l568.1-1.3
						v-22.8L187.3,126.4z"/>
					<path class="st5" d="M183.3,113.2l7.9,13.1H302l-7.9-13.1c-0.9-1.6-3-2.9-4.6-2.9H183.9c-0.8,0-1.7,0.3-2.5,0.9
						C182.1,111.8,182.9,112.5,183.3,113.2z"/>
					<path class="st3" d="M14.8,137.9l4.6,4.6l1.2-1.2c0-0.1-2.5-2.5-2.5-2.5l6.6,0c0-0.1,0-1.4,0-1.7c-1.2,0-5.5,0-6.6,0
						c0-0.1,2.5-2.5,2.5-2.5l-1.2-1.2L14.8,137.9z"/>
					<path class="st5" d="M42.6,137.9l-4.6,4.6l-1.2-1.2c0-0.1,2.5-2.5,2.5-2.5l-6.6,0c0-0.1,0-1.4,0-1.7c1.2,0,5.5,0,6.6,0
						c0-0.1-2.5-2.5-2.5-2.5l1.2-1.2L42.6,137.9z"/>
					<g>
						<path class="st0" d="M571.4,107.3l0,5l-1.6,0c0-0.1,0-2.2,0-2.3l-2.6,2.6c-0.1-0.1-1-0.9-1.1-1.1c0.8-0.8,1.9-1.9,2.6-2.6
							c-0.1,0-2.2,0-2.3,0l0-1.5L571.4,107.3z"/>
						<path class="st0" d="M561.3,117.6l0-5l1.6,0c0,0.1,0,2.2,0,2.3l2.6-2.6c0.1,0.1,1,0.9,1.1,1.1c-0.8,0.8-1.9,1.9-2.6,2.6
							c0.1,0,2.2,0,2.3,0l0,1.5L561.3,117.6z"/>
					</g>
					<path class="st6" d="M23.5,114.8c0-2.4-2-4.4-4.4-4.4c-2.4,0-4.4,2-4.4,4.4c0,2.4,2,4.4,4.4,4.4
						C21.6,119.3,23.5,117.3,23.5,114.8z"/>
					<path class="st7" d="M37.3,114.8c0-2.4-2-4.4-4.4-4.4s-4.4,2-4.4,4.4c0,2.4,2,4.4,4.4,4.4S37.3,117.3,37.3,114.8z"/>
					<path class="st8" d="M50.4,114.8c0-2.4-2-4.4-4.4-4.4c-2.4,0-4.4,2-4.4,4.4c0,2.4,2,4.4,4.4,4.4
						C48.4,119.3,50.4,117.3,50.4,114.8z"/>
					<path class="st9" d="M177.1,118.4c0-2.4-2-4.4-4.4-4.4c-2.4,0-4.4,2-4.4,4.4c0,2.4,2,4.4,4.4,4.4
						C175.1,122.8,177.1,120.8,177.1,118.4z"/>
					<path class="st0" d="M554.1,141.1c0,1.6-1.3,2.9-2.9,2.9l-479,1.3c-1.6,0-2.9-1.3-2.9-2.9v-10c0-1.6,1.3-2.9,2.9-2.9l479-1.3
						c1.6,0,2.9,1.3,2.9,2.9V141.1z"/>
					<g>
						<path class="st10" d="M547.8,141.8c-0.1,0-0.2,0-0.3-0.1l-3-2.1l-3,2.1c-0.2,0.1-0.4,0.1-0.6,0c-0.2-0.1-0.2-0.3-0.2-0.6
							l1.1-3.6l-3-2.2c-0.2-0.1-0.2-0.4-0.2-0.6c0.1-0.2,0.3-0.3,0.5-0.3l3.7-0.1l1.2-3.5c0.1-0.4,0.8-0.4,1,0l1.2,3.5l3.7,0.1
							c0.2,0,0.4,0.1,0.5,0.3c0.1,0.2,0,0.4-0.2,0.6l-3,2.2l1.1,3.6c0.1,0.2,0,0.4-0.2,0.6C548,141.7,547.9,141.8,547.8,141.8z"/>
					</g>
					<path class="st3" d="M572,132.9c0,0.5-0.4,0.9-0.9,0.9h-9.3c-0.5,0-0.9-0.4-0.9-0.9l0,0c0-0.5,0.4-0.9,0.9-0.9h9.3
						C571.6,132,572,132.4,572,132.9L572,132.9z"/>
					<path class="st3" d="M572,136.5c0,0.5-0.4,0.9-0.9,0.9h-9.3c-0.5,0-0.9-0.4-0.9-0.9l0,0c0-0.5,0.4-0.9,0.9-0.9h9.3
						C571.6,135.6,572,136,572,136.5L572,136.5z"/>
					<path class="st3" d="M572,140.1c0,0.5-0.4,0.9-0.9,0.9h-9.3c-0.5,0-0.9-0.4-0.9-0.9l0,0c0-0.5,0.4-0.9,0.9-0.9h9.3
						C571.6,139.2,572,139.6,572,140.1L572,140.1z"/>
					<path class="st11" d="M173.8,118.4l1.4-1.4c0,0.1-1.3-1.2-1.2-1.2c-0.3,0.3-0.8,0.8-1.4,1.4c-0.6-0.6-1.1-1.1-1.4-1.4
						c-0.2,0.2-1.1,1.1-1.2,1.2l1.4,1.4c-0.6,0.6-1.1,1.1-1.4,1.4c0.2,0.2,1.1,1.1,1.2,1.2l1.4-1.4l1.4,1.4c-0.1,0,1.2-1.3,1.2-1.2
						C174.9,119.5,174.4,119,173.8,118.4z"/>
					<path class="st9" d="M291,118.4c0-2.4-2-4.4-4.4-4.4s-4.4,2-4.4,4.4c0,2.4,2,4.4,4.4,4.4S291,120.8,291,118.4z"/>
					<path class="st11" d="M287.7,118.4l1.4-1.4c0,0.1-1.3-1.2-1.2-1.2c-0.3,0.3-0.8,0.8-1.4,1.4c-0.6-0.6-1.1-1.1-1.4-1.4
						c-0.2,0.2-1.1,1.1-1.2,1.2l1.4,1.4c-0.6,0.6-1.1,1.1-1.4,1.4c0.2,0.2,1.1,1.1,1.2,1.2l1.4-1.4l1.4,1.4c-0.1,0,1.2-1.3,1.2-1.2
						C288.9,119.5,288.3,119,287.7,118.4z"/>
					<path class="st3" d="M58,141.2c-1.8,0-3.4-1.5-3.4-3.4c0-1.8,1.5-3.4,3.4-3.4c1.1,0,2.2,0.6,2.8,1.5c-0.5,0-2.1,0-2.1,0l0,1.1
						l4.2-0.1l-0.1-4.2l-1.1,0c0,0,0,1.5,0,2.1c-0.9-1.1-2.3-1.8-3.7-1.8c-2.6,0-4.8,2.1-4.8,4.8c0,2.6,2.1,4.8,4.8,4.8
						c1.7,0,3.3-0.9,4.2-2.4l-1.2-0.7C60.4,140.6,59.2,141.2,58,141.2z"/>
					<path class="st12" d="M10.5,149.2v299.2c0,6.7,5.4,12.1,12.1,12.1l544-1.3c6.7,0,12.1-5.4,12.1-12.1V147.9L10.5,149.2z"/>
					<path class="st5" d="M298.6,113.2l6.1,10.2h22.1l-6.1-10.2c-0.9-1.6-3-2.9-4.6-2.9H294C295.6,110.4,297.7,111.7,298.6,113.2z"
						/>
				</g>
				<path class="st12" d="M500.9,452.1H82.6c-38.5,0-69.7-31.2-69.7-69.7V147.6h562v230.5C574.9,419,541.8,452.1,500.9,452.1z"/>
				<g>
					<g>
						<rect x="563.3" y="165.6" class="st13" width="13.1" height="14.1"/>
					</g>
					<g>
						<path class="st14" d="M571.1,168.9c0,0,0.1,0,0.1,0c0.1,0.1,0.1,0.2,0,0.2l-2.8,3.7l3.2,3.2c0.1,0.1,0.1,0.2,0,0.2
							c-0.1,0.1-0.2,0.1-0.2,0L568,173l3-3.9C571,169,571.1,168.9,571.1,168.9z"/>
					</g>
				</g>
				<g>
					
						<image style="overflow:visible;opacity:0.25;" width="586" height="38" xlink:href="343E6694.png"  transform="matrix(1 0 0 1 1.5401 137.5401)">
					</image>
					<g>
						<rect x="10.2" y="145.3" class="st12" width="568.4" height="20.3"/>
					</g>
				</g>
				<g>
					<g>
						
							<image style="overflow:visible;opacity:0.1;" width="38" height="301" xlink:href="343E6695.png"  transform="matrix(1 0 0 1 1.0264 159.0264)">
						</image>
						<g>
							<polygon class="st0" points="32.9,452.1 10.1,452 10.1,166.5 32.9,166.6 							"/>
							<polygon class="st15" points="32.9,452.1 10.1,452 10.1,166.5 32.9,166.6 							"/>
						</g>
					</g>
					<g>
						<polygon class="st14" points="26.1,221.2 23.4,225.8 23.4,216.6 						"/>
						<g>
							<g>
								<path class="st14" d="M20.6,224.8h-3.2c-0.3,0-0.5-0.2-0.5-0.5c0-0.3,0.2-0.5,0.5-0.5h3.2c0.3,0,0.5,0.2,0.5,0.5
									C21.1,224.6,20.9,224.8,20.6,224.8z"/>
							</g>
						</g>
						<g>
							<g>
								<path class="st14" d="M21.5,222.1C21.5,222.1,21.5,222.1,21.5,222.1l-3.2,0c-0.3,0-0.5-0.2-0.5-0.5c0-0.3,0.2-0.5,0.5-0.5
									c0,0,0,0,0,0l3.2,0c0.3,0,0.5,0.2,0.5,0.5C22,221.9,21.8,222.1,21.5,222.1z"/>
							</g>
						</g>
						<g>
							<g>
								<path class="st14" d="M19.7,219.3c-0.3,0-0.5-0.2-0.5-0.5c0-0.3,0.2-0.5,0.5-0.5l2.3,0c0,0,0,0,0,0c0.3,0,0.5,0.2,0.5,0.5
									c0,0.3-0.2,0.5-0.5,0.5L19.7,219.3C19.7,219.3,19.7,219.3,19.7,219.3z"/>
							</g>
						</g>
					</g>
					<g>
						<g>
							<polygon class="st14" points="25.6,251.7 19.3,251.7 19.3,243 23.8,243 24.6,243.9 25.6,244.9 							"/>
							<polygon class="st14" points="23.5,245.1 23.5,243.2 25.3,245.1 							"/>
						</g>
						<polygon class="st14" points="18.2,252.7 18.2,244.6 17.4,244.6 17.4,252.7 17.4,253.3 18.2,253.3 25.4,253.3 25.4,252.7 
													"/>
					</g>
					<g>
						<polygon class="st14" points="20.3,367 19.1,367 20.3,369.3 21.5,369.3 24.2,364.1 23.5,364.1 20.9,368.2 						"/>
						<path class="st14" d="M25.5,371.7l-1.8-1.9c0,0-0.1,0-0.1-0.1c0.5-0.6,0.8-1.3,0.8-2.2c0-0.6-0.2-1.2-0.4-1.7
							c-0.1,0.1-0.5,0.7-0.6,0.8c0.1,0.3,0.2,0.6,0.2,1c0,1.4-1.2,2.6-2.6,2.6s-2.6-1.2-2.6-2.6c0-1.4,1.2-2.6,2.6-2.6
							c0.4,0,0.8,0.1,1.1,0.3c0.1-0.1,0.4-0.6,0.5-0.7c-0.5-0.2-1-0.4-1.6-0.4c-1.9,0-3.5,1.6-3.5,3.5c0,1.9,1.6,3.5,3.5,3.5
							c0.6,0,1.3-0.2,1.8-0.5c0,0,0,0.1,0.1,0.1l1.8,1.9c0.2,0.3,0.7,0.3,0.9,0C25.7,372.4,25.7,372,25.5,371.7z"/>
					</g>
					<path class="st14" d="M21.5,341.1c1,0,1.7,0.8,1.7,1.7c0,1-0.8,1.7-1.7,1.7c-1,0-1.7-0.8-1.7-1.7
						C19.8,341.9,20.6,341.1,21.5,341.1z M24.8,348.2H18v-1c0-1,1.6-1.7,3.5-1.7c1.9,0,3.5,0.8,3.5,1.7L24.8,348.2z"/>
					<g>
						<path class="st14" d="M19.4,320.7c0.9,0,1.6,0.7,1.6,1.6c0,0.9-0.7,1.6-1.6,1.6c-0.9,0-1.6-0.7-1.6-1.6
							C17.8,321.4,18.5,320.7,19.4,320.7z M22.3,327.1h-6.1v-0.9c0-0.9,1.4-1.6,3.1-1.6c1.7,0,3.1,0.7,3.1,1.6L22.3,327.1z"/>
						<g>
							<path class="st14" d="M23.8,323.7c0.8,0,1.5-0.7,1.5-1.5c0-0.8-0.7-1.5-1.5-1.5c-0.8,0-1.5,0.7-1.5,1.5
								C22.3,323,22.9,323.7,23.8,323.7z"/>
							<path class="st14" d="M23.8,324.4c-0.6,0-1.2,0.1-1.7,0.3c0.8,0.3,1.3,0.7,1.3,1.2l-0.2,1.1h3.4l0.2-1.1
								C26.8,325.1,25.4,324.4,23.8,324.4z"/>
						</g>
					</g>
					<path class="st14" d="M21.5,400.8c1.6,0,2.9,1.3,2.9,2.9c0,1.1-0.6,2-1.5,2.5v0.9c0,0.3-0.2,0.5-0.5,0.5h-1.9
						c-0.3,0-0.5-0.2-0.5-0.5v-0.9c-0.9-0.5-1.5-1.4-1.5-2.5C18.6,402.1,19.9,400.8,21.5,400.8 M22.5,408.1v0.5
						c0,0.3-0.2,0.5-0.5,0.5h-1c-0.3,0-0.5-0.2-0.5-0.5v-0.5H22.5 M25.4,403.2h1.5v1h-1.5V403.2 M16.2,403.2h1.5v1h-1.5V403.2
						 M22,398.4v1.5h-1v-1.5H22 M18.1,399.6l1,1l-0.7,0.7l-1-1L18.1,399.6 M23.9,400.6l1-1l0.7,0.7l-1,1L23.9,400.6z"/>
					<polyline class="st16" points="28.9,173.9 27.9,172.6 29,171.5 					"/>
					<g>
						<g>
							<g>
								<path class="st17" d="M26.7,270.5c-0.2,0-0.4-0.1-0.4-0.3c-0.3-1.5-1.3-2.7-2.5-3.3c-1.2-0.6-2.5-0.8-3.9-0.3
									c-0.2,0.1-0.5,0-0.5-0.2c-0.1-0.2,0.1-0.4,0.3-0.5c1.6-0.6,3.3-0.3,4.7,0.4c1.4,0.8,2.3,2,2.7,3.7c0.1,0.2,0,0.4-0.3,0.5
									C26.8,270.5,26.7,270.5,26.7,270.5z"/>
							</g>
						</g>
						<g>
							<g>
								<path class="st17" d="M25.1,271c-0.1,0-0.3-0.1-0.3-0.2c-0.2-1.1-0.9-1.9-1.8-2.4c-0.8-0.4-1.8-0.6-2.8-0.3
									c-0.2,0.1-0.3-0.1-0.4-0.2c-0.1-0.2,0-0.3,0.2-0.4c1.1-0.4,2.4-0.3,3.4,0.2c1,0.6,1.8,1.6,2,2.8c0,0.2,0.1,0.4-0.1,0.5
									C25.3,270.9,25.2,271,25.1,271z"/>
							</g>
						</g>
						<g>
							<g>
								<g>
									<path class="st17" d="M24.9,272.3c-0.2,0-0.4,0-0.6,0.1c-0.2-0.7-0.9-1.1-1.6-1.1c-0.1,0-0.2,0-0.3,0
										c-0.4-0.9-1.4-1.5-2.4-1.5c-1.5,0-2.7,1.2-2.7,2.7c0,0.1,0,0.3,0,0.4c-0.8,0.3-1.3,1.1-1.3,2c0,0.9,0.5,1.6,1.3,1.9h8.2
										c1-0.2,1.8-1.1,1.8-2.2C27.2,273.3,26.1,272.3,24.9,272.3z M25.1,276L25.1,276L25.1,276c0,0-7.1,0-7.1,0
										c-0.7,0-1.3-0.6-1.3-1.3c0-0.7,0.6-1.3,1.3-1.3c0.1,0,0.2,0,0.3,0c-0.2-0.3-0.3-0.7-0.3-1c0-1.1,0.9-2,2-2
										c1,0,1.9,0.8,2,1.8c0.2-0.2,0.5-0.3,0.8-0.3c0.7,0,1.2,0.5,1.2,1.2c0,0.1,0,0.2,0,0.2c0.3-0.3,0.6-0.4,1.1-0.4
										c0.8,0,1.5,0.7,1.5,1.5C26.4,275.3,25.8,276,25.1,276z"/>
								</g>
							</g>
						</g>
						<g>
							<path class="st17" d="M23.2,270.5c-0.1,0-0.2-0.1-0.3-0.2c-0.2-0.4-0.9-0.9-1.4-0.8c-0.2,0-0.3-0.1-0.3-0.2
								c0-0.2,0.1-0.3,0.2-0.3c0.8-0.1,1.7,0.5,2,1.2c0.1,0.1,0,0.3-0.1,0.4C23.3,270.5,23.2,270.5,23.2,270.5z"/>
						</g>
					</g>
					<path class="st14" d="M22.5,380.3l-0.8-0.8h-3.3c-0.4,0-0.8,0.4-0.8,0.8v4.9c0,0.5,0.4,0.8,0.8,0.8h2.9v0.8l1.6-1.2l-1.6-1.2
						v0.8h-2.9v-4.9H22.5 M25.4,383.1v4.5c0,0.4-0.4,0.8-0.8,0.8h-4.5c-0.4,0-0.8-0.4-0.8-0.8v-0.8h0.8v0.8h4.5V384h-2v-2h-2.4v2.4
						h-0.8v-2.4c0-0.4,0.4-0.8,0.8-0.8h3.3L25.4,383.1z"/>
					<g>
						<path class="st14" d="M24.8,201.3l-4.3-4.3c-0.2-0.2-0.4-0.3-0.7-0.3h-3.3c-0.5,0-0.9,0.4-0.9,0.9v3.3c0,0.3,0.1,0.5,0.3,0.7
							l4.3,4.3c0.2,0.2,0.4,0.3,0.7,0.3s0.5-0.1,0.7-0.3l3.3-3.3c0.2-0.2,0.3-0.4,0.3-0.7C25.1,201.7,25,201.5,24.8,201.3z
							 M17.3,199.1c-0.4,0-0.7-0.3-0.7-0.7s0.3-0.7,0.7-0.7c0.4,0,0.7,0.3,0.7,0.7S17.7,199.1,17.3,199.1z"/>
						<g>
							<path class="st14" d="M27.2,201.3l-4.3-4.3c-0.2-0.2-0.4-0.3-0.7-0.3h-0.9c0.3,0,0.5,0.1,0.7,0.3l4.3,4.3
								c0.2,0.2,0.3,0.4,0.3,0.7s-0.1,0.5-0.3,0.7l-3.3,3.3c-0.1,0.1-0.1,0.1-0.2,0.1c0.1,0.1,0.3,0.1,0.5,0.1
								c0.3,0,0.5-0.1,0.7-0.3l3.3-3.3c0.2-0.2,0.3-0.4,0.3-0.7S27.3,201.5,27.2,201.3z"/>
						</g>
					</g>
				</g>
				<g>
					<g>
						<path class="st14" d="M554,152c1.2,0,2.2,1,2.2,2.2c0,1.2-1,2.2-2.2,2.2c-1.2,0-2.2-1-2.2-2.2C551.8,152.9,552.8,152,554,152z
							 M558,160.9h-8.4v-1.3c0-1.2,2-2.2,4.4-2.2c2.4,0,4.4,1,4.4,2.2L558,160.9z"/>
					</g>
					<g>
						<polygon class="st14" points="569.6,157.4 564.9,157.4 567.3,159.1 						"/>
					</g>
					<g>
						<polygon class="st14" points="536.7,157.5 532,157.5 534.4,159.2 						"/>
					</g>
					<g>
						<polygon class="st14" points="506.6,157.6 502,157.6 504.3,159.2 						"/>
					</g>
					<g>
						<path class="st14" d="M525.2,156.2l-0.5,0.5c-0.4,0.4-0.7,0.8-0.7,1.7h-1.2v-0.3c0-0.7,0.3-1.3,0.7-1.7l0.7-0.8
							c0.2-0.2,0.4-0.5,0.4-0.8c0-0.7-0.5-1.2-1.2-1.2c-0.7,0-1.2,0.5-1.2,1.2H521c0-1.3,1.1-2.4,2.4-2.4c1.3,0,2.4,1.1,2.4,2.4
							C525.8,155.4,525.6,155.9,525.2,156.2 M524,160.8h-1.2v-1.2h1.2 M523.4,150.7c-3.3,0-6,2.7-6,6c0,3.3,2.7,6,6,6
							c3.3,0,6-2.7,6-6C529.3,153.4,526.7,150.7,523.4,150.7z"/>
					</g>
					<g>
						<path class="st14" d="M492.1,162.8h2c2.8-0.5,4.9-2.9,4.9-5.8c0-3.3-2.6-5.9-5.9-5.9s-5.9,2.6-5.9,5.9
							C487.1,159.8,489.2,162.3,492.1,162.8z M489.2,159.2h1.4c0.3,0.9,0.6,1.5,0.8,1.9C490.5,160.7,489.7,160,489.2,159.2z
							 M493.1,161.4c0,0-0.5-0.9-0.9-2.2h1.9C493.6,160.4,493.1,161.4,493.1,161.4z M497.4,156.2c0,0.2,0.1,0.5,0.1,0.7
							s0,0.5-0.1,0.7h-1.6c0-0.2,0.1-0.5,0.1-0.7s0-0.5-0.1-0.7H497.4z M496.9,154.7h-1.4c-0.3-0.9-0.6-1.5-0.8-1.9
							C495.6,153.2,496.4,153.9,496.9,154.7z M495.5,159.2h1.4c-0.5,0.9-1.2,1.5-2.2,1.9C494.9,160.7,495.2,160,495.5,159.2z
							 M493.1,152.5c0,0,0.5,0.9,0.9,2.2h-1.9C492.5,153.5,493.1,152.5,493.1,152.5z M491.8,156.2h2.5c0,0.2,0.1,0.5,0.1,0.7
							s0,0.5-0.1,0.7h-2.5c0-0.2-0.1-0.5-0.1-0.7S491.8,156.5,491.8,156.2z M491.4,152.8c-0.2,0.4-0.5,1-0.8,1.9h-1.4
							C489.7,153.9,490.5,153.2,491.4,152.8z M488.6,156.9c0-0.3,0-0.5,0.1-0.7h1.6c0,0.2-0.1,0.5-0.1,0.7s0,0.5,0.1,0.7h-1.6
							C488.6,157.4,488.6,157.2,488.6,156.9z"/>
					</g>
					<g>
						<g>
							<path class="st14" d="M468.3,155.5h-1.2v-2.4h1.2 M468.3,157.8h-1.2v-1.2h1.2 M472.4,150.7h-9.5c-0.7,0-1.2,0.5-1.2,1.2v10.7
								l2.4-2.4h8.3c0.7,0,1.2-0.5,1.2-1.2v-7.1C473.6,151.2,473.1,150.7,472.4,150.7z"/>
						</g>
					</g>
				</g>
				<g>
					<defs>
						<rect id="SVGID_1_" x="23.1" y="148.8" width="91.3" height="17.5"/>
					</defs>
					<clipPath id="SVGID_2_">
						<use xlink:href="#SVGID_1_"  style="overflow:visible;"/>
					</clipPath>
					<g class="st18">
						<g>
							<path class="st19" d="M45.5,161.8c-0.7,0.4-1.5,0.5-2.6,0.5c-1.3,0-2.4-0.4-3.2-1.3c-0.8-0.8-1.2-2-1.2-3.3
								c0-1.5,0.4-2.7,1.3-3.6c0.9-0.9,2-1.4,3.4-1.4c0.9,0,1.6,0.1,2.2,0.4v1.2c-0.7-0.4-1.4-0.6-2.2-0.6c-1.1,0-1.9,0.4-2.6,1.1
								c-0.7,0.7-1,1.7-1,2.8c0,1.1,0.3,2,0.9,2.7c0.6,0.7,1.4,1,2.4,1c0.9,0,1.7-0.2,2.4-0.6V161.8z"/>
							<path class="st19" d="M48.8,162.2h-1.1v-9.3h1.1V162.2z"/>
							<path class="st19" d="M51.6,162.2v-9.3h2.6c0.8,0,1.4,0.2,1.9,0.6c0.5,0.4,0.7,0.9,0.7,1.5c0,0.5-0.1,1-0.4,1.4
								c-0.3,0.4-0.7,0.7-1.2,0.8v0c0.6,0.1,1.1,0.3,1.5,0.7c0.4,0.4,0.6,0.9,0.6,1.6c0,0.8-0.3,1.4-0.9,1.9
								c-0.6,0.5-1.3,0.7-2.1,0.7H51.6z M52.6,153.9v3h1.1c0.6,0,1.1-0.1,1.4-0.4c0.3-0.3,0.5-0.7,0.5-1.2c0-0.9-0.6-1.3-1.8-1.3
								H52.6z M52.6,157.9v3.3h1.5c0.6,0,1.1-0.2,1.5-0.5c0.4-0.3,0.5-0.7,0.5-1.2c0-1.1-0.7-1.6-2.2-1.6H52.6z"/>
						</g>
						<g>
							<path class="st19" d="M68,162.2H67v-1.1h0c-0.5,0.9-1.2,1.3-2.3,1.3c-0.8,0-1.5-0.3-2-0.9c-0.5-0.6-0.7-1.4-0.7-2.4
								c0-1.1,0.3-2,0.8-2.6c0.6-0.7,1.3-1,2.2-1c0.9,0,1.6,0.4,2,1.1h0v-4.1H68V162.2z M67,159.3v-1c0-0.5-0.2-1-0.5-1.4
								c-0.4-0.4-0.8-0.6-1.3-0.6c-0.6,0-1.2,0.2-1.5,0.7c-0.4,0.5-0.6,1.1-0.6,2c0,0.8,0.2,1.4,0.5,1.8c0.4,0.4,0.8,0.7,1.4,0.7
								c0.6,0,1.1-0.2,1.4-0.6C66.8,160.4,67,159.9,67,159.3z"/>
							<path class="st19" d="M73.3,162.4c-1,0-1.8-0.3-2.3-0.9S70,160,70,159c0-1.1,0.3-2,0.9-2.6c0.6-0.6,1.4-0.9,2.5-0.9
								c1,0,1.8,0.3,2.3,0.9c0.6,0.6,0.8,1.4,0.8,2.5c0,1.1-0.3,1.9-0.9,2.5C75.1,162.1,74.3,162.4,73.3,162.4z M73.3,156.4
								c-0.7,0-1.2,0.2-1.6,0.7c-0.4,0.5-0.6,1.1-0.6,1.9c0,0.8,0.2,1.4,0.6,1.9c0.4,0.5,0.9,0.7,1.6,0.7c0.7,0,1.2-0.2,1.6-0.7
								c0.4-0.4,0.6-1.1,0.6-1.9c0-0.8-0.2-1.5-0.6-1.9C74.5,156.6,74,156.4,73.3,156.4z"/>
							<path class="st19" d="M85.1,162.2h-1.3l-2.1-3.5c-0.1-0.1-0.1-0.3-0.2-0.5h0c0,0.1-0.1,0.3-0.2,0.5l-2.2,3.5h-1.3l3.1-4.7
								l-2.9-4.6h1.3l1.9,3.3c0.1,0.2,0.2,0.4,0.3,0.6h0c0.1-0.3,0.3-0.5,0.4-0.7l2-3.2h1.2l-2.9,4.6L85.1,162.2z"/>
							<path class="st19" d="M87.2,154c-0.2,0-0.4-0.1-0.5-0.2c-0.1-0.1-0.2-0.3-0.2-0.5c0-0.2,0.1-0.4,0.2-0.5
								c0.1-0.1,0.3-0.2,0.5-0.2c0.2,0,0.4,0.1,0.5,0.2c0.1,0.1,0.2,0.3,0.2,0.5c0,0.2-0.1,0.4-0.2,0.5
								C87.6,153.9,87.4,154,87.2,154z M87.8,162.2h-1.1v-6.6h1.1V162.2z"/>
							<path class="st19" d="M89.8,162v-1.1c0.6,0.4,1.2,0.6,1.9,0.6c0.9,0,1.4-0.3,1.4-0.9c0-0.2,0-0.3-0.1-0.4s-0.2-0.2-0.3-0.3
								c-0.1-0.1-0.3-0.2-0.5-0.3c-0.2-0.1-0.4-0.2-0.6-0.2c-0.3-0.1-0.5-0.2-0.8-0.4c-0.2-0.1-0.4-0.3-0.6-0.4
								c-0.1-0.1-0.3-0.3-0.3-0.5c-0.1-0.2-0.1-0.4-0.1-0.7c0-0.3,0.1-0.6,0.2-0.8c0.1-0.2,0.3-0.4,0.6-0.6c0.2-0.2,0.5-0.3,0.8-0.4
								c0.3-0.1,0.6-0.1,0.9-0.1c0.6,0,1.1,0.1,1.5,0.3v1.1c-0.5-0.3-1-0.5-1.7-0.5c-0.2,0-0.4,0-0.5,0.1c-0.2,0-0.3,0.1-0.4,0.2
								c-0.1,0.1-0.2,0.2-0.3,0.3c-0.1,0.1-0.1,0.2-0.1,0.4c0,0.2,0,0.3,0.1,0.4c0.1,0.1,0.2,0.2,0.3,0.3c0.1,0.1,0.3,0.2,0.4,0.2
								c0.2,0.1,0.4,0.2,0.6,0.2c0.3,0.1,0.6,0.2,0.8,0.3c0.2,0.1,0.4,0.3,0.6,0.4c0.2,0.1,0.3,0.3,0.4,0.5s0.1,0.4,0.1,0.7
								c0,0.3-0.1,0.6-0.2,0.9c-0.1,0.2-0.3,0.4-0.6,0.6c-0.2,0.2-0.5,0.3-0.8,0.4c-0.3,0.1-0.6,0.1-1,0.1
								C90.9,162.4,90.3,162.3,89.8,162z"/>
							<path class="st19" d="M100.9,162.2h-1.1v-1h0c-0.5,0.8-1.1,1.2-2,1.2c-0.7,0-1.2-0.2-1.5-0.5c-0.4-0.3-0.6-0.8-0.6-1.4
								c0-1.2,0.7-2,2.2-2.2l2-0.3c0-1.1-0.5-1.7-1.4-1.7c-0.8,0-1.5,0.3-2.2,0.8v-1.1c0.6-0.4,1.4-0.6,2.2-0.6
								c1.6,0,2.3,0.8,2.3,2.5V162.2z M99.8,158.9l-1.6,0.2c-0.5,0.1-0.9,0.2-1.1,0.4c-0.2,0.2-0.4,0.5-0.4,0.9
								c0,0.3,0.1,0.6,0.3,0.8c0.2,0.2,0.5,0.3,0.9,0.3c0.5,0,1-0.2,1.3-0.6c0.3-0.4,0.5-0.8,0.5-1.4V158.9z"/>
							<path class="st19" d="M106.5,153.4c-0.2-0.1-0.4-0.2-0.7-0.2c-0.7,0-1.1,0.5-1.1,1.4v1h1.5v0.9h-1.5v5.7h-1.1v-5.7h-1.1v-0.9
								h1.1v-1.1c0-0.7,0.2-1.2,0.6-1.6c0.4-0.4,0.9-0.6,1.5-0.6c0.3,0,0.6,0,0.8,0.1V153.4z"/>
							<path class="st19" d="M113,159.2h-4.7c0,0.7,0.2,1.3,0.6,1.7c0.4,0.4,0.9,0.6,1.6,0.6c0.7,0,1.4-0.2,2.1-0.7v1
								c-0.6,0.4-1.3,0.6-2.3,0.6c-0.9,0-1.7-0.3-2.2-0.9c-0.5-0.6-0.8-1.4-0.8-2.5c0-1,0.3-1.9,0.9-2.5c0.6-0.6,1.3-1,2.2-1
								c0.9,0,1.5,0.3,2,0.8c0.5,0.6,0.7,1.3,0.7,2.3V159.2z M111.9,158.3c0-0.6-0.2-1.1-0.4-1.4c-0.3-0.3-0.7-0.5-1.2-0.5
								c-0.5,0-0.9,0.2-1.3,0.5c-0.3,0.4-0.6,0.8-0.6,1.4H111.9z"/>
						</g>
						<g>
							<g>
								<g>
									<path class="st17" d="M33.5,156.8c-0.2,0-0.3-0.1-0.4-0.3c-0.3-1.4-1.2-2.4-2.3-3c-1.1-0.6-2.3-0.7-3.6-0.3
										c-0.2,0.1-0.4,0-0.5-0.2c-0.1-0.2,0.1-0.4,0.3-0.5c1.5-0.5,3-0.3,4.3,0.4c1.3,0.7,2.1,1.9,2.5,3.4
										C33.9,156.6,33.8,156.8,33.5,156.8C33.6,156.8,33.6,156.8,33.5,156.8z"/>
								</g>
							</g>
							<g>
								<g>
									<path class="st17" d="M32.1,157.3c-0.1,0-0.2-0.1-0.3-0.2c-0.2-1-0.8-1.8-1.6-2.2c-0.8-0.4-1.6-0.6-2.5-0.2
										c-0.1,0-0.3-0.1-0.3-0.2c0-0.1,0-0.3,0.2-0.3c1.1-0.4,2.2-0.3,3.1,0.2c0.9,0.5,1.6,1.5,1.8,2.5c0,0.2,0.1,0.4-0.1,0.4
										C32.2,157.2,32.1,157.3,32.1,157.3z"/>
								</g>
							</g>
							<g>
								<g>
									<g>
										<path class="st17" d="M31.9,158.5c-0.2,0-0.4,0-0.6,0.1c-0.2-0.6-0.8-1-1.5-1c-0.1,0-0.2,0-0.3,0
											c-0.4-0.8-1.3-1.4-2.2-1.4c-1.4,0-2.5,1.1-2.5,2.5c0,0.1,0,0.2,0,0.4c-0.7,0.3-1.2,1-1.2,1.8c0,0.8,0.5,1.5,1.2,1.8h7.5
											c0.9-0.2,1.6-1,1.6-2C34,159.4,33,158.5,31.9,158.5z M32,161.9L32,161.9L32,161.9c0,0-6.5,0-6.6,0c-0.6,0-1.2-0.5-1.2-1.2
											c0-0.6,0.5-1.2,1.2-1.2c0.1,0,0.2,0,0.3,0c-0.2-0.3-0.3-0.6-0.3-0.9c0-1,0.8-1.8,1.8-1.8c1,0,1.7,0.7,1.8,1.7
											c0.2-0.2,0.4-0.3,0.7-0.3c0.6,0,1.1,0.5,1.1,1.1c0,0.1,0,0.1,0,0.2c0.3-0.2,0.6-0.4,1-0.4c0.8,0,1.4,0.6,1.4,1.4
											C33.3,161.3,32.7,161.9,32,161.9z"/>
									</g>
								</g>
							</g>
							<g>
								<path class="st17" d="M30.3,156.8c-0.1,0-0.2-0.1-0.2-0.2c-0.2-0.4-0.8-0.8-1.3-0.8c-0.1,0-0.3-0.1-0.3-0.2
									c0-0.1,0.1-0.3,0.2-0.3c0.7-0.1,1.5,0.5,1.8,1.1c0.1,0.1,0,0.3-0.1,0.3C30.4,156.8,30.4,156.8,30.3,156.8z"/>
							</g>
						</g>
					</g>
				</g>
			</g>
			<g>
				<g>
					<g>
						<path class="st17" d="M80.6,119.2c-0.2,0-0.3-0.1-0.3-0.3c-0.3-1.3-1.1-2.4-2.2-2.9c-1-0.6-2.3-0.7-3.5-0.3
							c-0.2,0.1-0.4,0-0.5-0.2c-0.1-0.2,0.1-0.4,0.3-0.5c1.5-0.5,2.9-0.3,4.2,0.4c1.2,0.7,2.1,1.8,2.4,3.3
							C80.9,119,80.9,119.2,80.6,119.2C80.6,119.2,80.6,119.2,80.6,119.2z"/>
					</g>
				</g>
				<g>
					<g>
						<path class="st17" d="M79.2,119.7c-0.1,0-0.2-0.1-0.3-0.2c-0.2-1-0.8-1.7-1.6-2.1c-0.8-0.4-1.6-0.5-2.5-0.2
							c-0.1,0-0.3-0.1-0.3-0.2c0-0.1,0-0.3,0.1-0.3c1-0.4,2.1-0.3,3,0.2c0.9,0.5,1.6,1.5,1.7,2.5c0,0.1,0.1,0.4-0.1,0.4
							C79.3,119.6,79.2,119.7,79.2,119.7z"/>
					</g>
				</g>
				<g>
					<g>
						<g>
							<path class="st17" d="M78.9,120.9c-0.2,0-0.4,0-0.6,0.1c-0.2-0.6-0.8-1-1.4-1c-0.1,0-0.2,0-0.3,0c-0.4-0.8-1.2-1.3-2.2-1.3
								c-1.3,0-2.4,1.1-2.4,2.4c0,0.1,0,0.2,0,0.4c-0.7,0.3-1.2,1-1.2,1.8c0,0.8,0.5,1.5,1.2,1.7h7.3c0.9-0.2,1.6-1,1.6-2
								C81,121.8,80.1,120.9,78.9,120.9z M79.1,124.2L79.1,124.2L79.1,124.2c0,0-6.3,0-6.4,0c-0.6,0-1.1-0.5-1.1-1.1
								s0.5-1.1,1.1-1.1c0.1,0,0.2,0,0.3,0c-0.2-0.3-0.3-0.6-0.3-0.9c0-1,0.8-1.8,1.8-1.8c0.9,0,1.7,0.7,1.8,1.6
								c0.2-0.2,0.4-0.3,0.7-0.3c0.6,0,1.1,0.5,1.1,1.1c0,0.1,0,0.1,0,0.2c0.2-0.2,0.6-0.4,1-0.4c0.7,0,1.3,0.6,1.3,1.3
								C80.3,123.6,79.8,124.1,79.1,124.2z"/>
						</g>
					</g>
				</g>
				<g>
					<path class="st17" d="M77.4,119.2c-0.1,0-0.2-0.1-0.2-0.1c-0.2-0.4-0.8-0.8-1.2-0.7c-0.1,0-0.3-0.1-0.3-0.2
						c0-0.1,0.1-0.3,0.2-0.3c0.7-0.1,1.5,0.5,1.8,1c0.1,0.1,0,0.3-0.1,0.3C77.5,119.2,77.5,119.2,77.4,119.2z"/>
				</g>
			</g>
			<path class="st3" d="M156.6,121.8H89.1c-0.7,0-1.3-0.6-1.3-1.3l0,0c0-0.7,0.6-1.3,1.3-1.3h67.5c0.7,0,1.3,0.6,1.3,1.3l0,0
				C157.9,121.2,157.3,121.8,156.6,121.8z"/>
		</g>
		<g>
			<rect x="78.2" y="193.1" class="st20" width="80.9" height="115.9"/>
			<rect x="74" y="190.8" class="st0" width="80.9" height="115.9"/>
			<g>
				<g>
					<g>
						<path class="st21" d="M120.2,258.4"/>
						<path class="st21" d="M117,262.1"/>
					</g>
					<g>
						<g>
							<defs>
								<path id="XMLID_38_" d="M146.6,275.7c0.1,8.3-11,22.1-17.3,22.2l-46.2,0.4l-0.8-92.4l63.7-0.5L146.6,275.7L146.6,275.7z"/>
							</defs>
							<use xlink:href="#XMLID_38_"  style="overflow:visible;fill:#E9F5FF;"/>
							<clipPath id="XMLID_3_">
								<use xlink:href="#XMLID_38_"  style="overflow:visible;"/>
							</clipPath>
						</g>
						<path class="st22" d="M121.8,259.7"/>
						<path class="st22" d="M118.6,263.4"/>
					</g>
					<path class="st3" d="M135.8,225.6h-40c-0.5,0-1-0.4-1-1l0,0c0-0.5,0.4-1,1-1h40c0.5,0,1,0.4,1,1l0,0
						C136.8,225.1,136.3,225.6,135.8,225.6z"/>
					<path class="st3" d="M135.8,232.6h-40c-0.5,0-1-0.4-1-1l0,0c0-0.5,0.4-1,1-1h40c0.5,0,1,0.4,1,1l0,0
						C136.8,232.1,136.3,232.6,135.8,232.6z"/>
					<path class="st3" d="M135.8,239.4h-40c-0.5,0-1-0.4-1-1l0,0c0-0.5,0.4-1,1-1h40c0.5,0,1,0.4,1,1l0,0
						C136.8,239,136.3,239.4,135.8,239.4z"/>
					<path class="st3" d="M135.8,247.1h-40c-0.5,0-1-0.4-1-1l0,0c0-0.5,0.4-1,1-1h40c0.5,0,1,0.4,1,1l0,0
						C136.8,246.6,136.3,247.1,135.8,247.1z"/>
					<path class="st3" d="M135.8,255.3h-40c-0.5,0-1-0.4-1-1l0,0c0-0.5,0.4-1,1-1h40c0.5,0,1,0.4,1,1l0,0
						C136.8,254.9,136.3,255.3,135.8,255.3z"/>
					<path class="st3" d="M135.8,264.7h-40c-0.5,0-1-0.4-1-1l0,0c0-0.5,0.4-1,1-1h40c0.5,0,1,0.4,1,1l0,0
						C136.8,264.2,136.3,264.7,135.8,264.7z"/>
					<path class="st3" d="M135.8,273.4h-40c-0.5,0-1-0.4-1-1l0,0c0-0.5,0.4-1,1-1h40c0.5,0,1,0.4,1,1l0,0
						C136.8,272.9,136.3,273.4,135.8,273.4z"/>
				</g>
				<polygon class="st23" points="83,278.4 83.9,206.5 146,205.4 				"/>
			</g>
			<rect x="80.2" y="190.8" class="st24" width="9.8" height="9.8"/>
		</g>
		<g>
			<rect x="189.2" y="193.7" class="st20" width="80.9" height="115.9"/>
			<rect x="185.1" y="191.4" class="st0" width="80.9" height="115.9"/>
			<g>
				<g>
					<g>
						<path class="st21" d="M231.2,259"/>
						<path class="st21" d="M228,262.7"/>
					</g>
					<g>
						<g>
							<defs>
								<path id="XMLID_19_" d="M257.7,276.3c0.1,8.3-11,22.1-17.3,22.2l-46.2,0.4l-0.8-92.4l63.7-0.5L257.7,276.3L257.7,276.3z"/>
							</defs>
							<use xlink:href="#XMLID_19_"  style="overflow:visible;fill:#E9F5FF;"/>
							<clipPath id="XMLID_4_">
								<use xlink:href="#XMLID_19_"  style="overflow:visible;"/>
							</clipPath>
						</g>
						<path class="st22" d="M232.9,260.3"/>
						<path class="st22" d="M229.7,264"/>
					</g>
					<path class="st3" d="M246.8,226.2h-40c-0.5,0-1-0.4-1-1l0,0c0-0.5,0.4-1,1-1h40c0.5,0,1,0.4,1,1l0,0
						C247.8,225.7,247.4,226.2,246.8,226.2z"/>
					<path class="st3" d="M246.8,233.2h-40c-0.5,0-1-0.4-1-1l0,0c0-0.5,0.4-1,1-1h40c0.5,0,1,0.4,1,1l0,0
						C247.8,232.7,247.4,233.2,246.8,233.2z"/>
					<path class="st3" d="M246.8,240h-40c-0.5,0-1-0.4-1-1l0,0c0-0.5,0.4-1,1-1h40c0.5,0,1,0.4,1,1l0,0
						C247.8,239.6,247.4,240,246.8,240z"/>
					<path class="st3" d="M246.8,247.6h-40c-0.5,0-1-0.4-1-1l0,0c0-0.5,0.4-1,1-1h40c0.5,0,1,0.4,1,1v0
						C247.8,247.2,247.4,247.6,246.8,247.6z"/>
					<path class="st3" d="M246.8,255.9h-40c-0.5,0-1-0.4-1-1l0,0c0-0.5,0.4-1,1-1h40c0.5,0,1,0.4,1,1l0,0
						C247.8,255.5,247.4,255.9,246.8,255.9z"/>
					<path class="st3" d="M246.8,265.2h-40c-0.5,0-1-0.4-1-1l0,0c0-0.5,0.4-1,1-1h40c0.5,0,1,0.4,1,1l0,0
						C247.8,264.8,247.4,265.2,246.8,265.2z"/>
					<path class="st3" d="M246.8,274h-40c-0.5,0-1-0.4-1-1l0,0c0-0.5,0.4-1,1-1h40c0.5,0,1,0.4,1,1l0,0
						C247.8,273.5,247.4,274,246.8,274z"/>
				</g>
				<polygon class="st23" points="194,279 194.9,207.1 257.1,206 				"/>
			</g>
			<rect x="191.3" y="191.4" class="st24" width="9.8" height="9.8"/>
		</g>
		<g>
			<rect x="295.9" y="190.3" class="st20" width="80.9" height="115.9"/>
			<rect x="291.7" y="187.9" class="st0" width="80.9" height="115.9"/>
			<g>
				<g>
					<g>
						<path class="st21" d="M337.9,255.5"/>
						<path class="st21" d="M334.7,259.3"/>
					</g>
					<g>
						<g>
							<defs>
								<path id="XMLID_18_" d="M364.3,272.9c0.1,8.3-11,22.1-17.3,22.2l-46.2,0.4l-0.8-92.4l63.7-0.5L364.3,272.9L364.3,272.9z"/>
							</defs>
							<use xlink:href="#XMLID_18_"  style="overflow:visible;fill:#E9F5FF;"/>
							<clipPath id="XMLID_5_">
								<use xlink:href="#XMLID_18_"  style="overflow:visible;"/>
							</clipPath>
						</g>
						<path class="st22" d="M339.6,256.9"/>
						<path class="st22" d="M336.3,260.6"/>
					</g>
					<path class="st3" d="M353.5,222.7h-40c-0.5,0-1-0.4-1-1l0,0c0-0.5,0.4-1,1-1h40c0.5,0,1,0.4,1,1l0,0
						C354.5,222.3,354,222.7,353.5,222.7z"/>
					<path class="st3" d="M353.5,229.7h-40c-0.5,0-1-0.4-1-1l0,0c0-0.5,0.4-1,1-1h40c0.5,0,1,0.4,1,1l0,0
						C354.5,229.3,354,229.7,353.5,229.7z"/>
					<path class="st3" d="M353.5,236.5h-40c-0.5,0-1-0.4-1-1l0,0c0-0.5,0.4-1,1-1h40c0.5,0,1,0.4,1,1l0,0
						C354.5,236.1,354,236.5,353.5,236.5z"/>
					<path class="st3" d="M353.5,244.2h-40c-0.5,0-1-0.4-1-1v0c0-0.5,0.4-1,1-1h40c0.5,0,1,0.4,1,1v0
						C354.5,243.8,354,244.2,353.5,244.2z"/>
					<path class="st3" d="M353.5,252.5h-40c-0.5,0-1-0.4-1-1l0,0c0-0.5,0.4-1,1-1h40c0.5,0,1,0.4,1,1l0,0
						C354.5,252,354,252.5,353.5,252.5z"/>
					<path class="st3" d="M353.5,261.8h-40c-0.5,0-1-0.4-1-1l0,0c0-0.5,0.4-1,1-1h40c0.5,0,1,0.4,1,1l0,0
						C354.5,261.4,354,261.8,353.5,261.8z"/>
					<path class="st3" d="M353.5,270.5h-40c-0.5,0-1-0.4-1-1v0c0-0.5,0.4-1,1-1h40c0.5,0,1,0.4,1,1v0
						C354.5,270.1,354,270.5,353.5,270.5z"/>
				</g>
				<polygon class="st23" points="300.7,275.5 301.6,203.6 363.7,202.5 				"/>
			</g>
			<rect x="297.9" y="187.9" class="st24" width="9.8" height="9.8"/>
		</g>
		<g>
			<rect x="78.6" y="331.3" class="st20" width="80.9" height="115.9"/>
			<rect x="74.4" y="329" class="st0" width="80.9" height="115.9"/>
			<g>
				<g>
					<g>
						<path class="st21" d="M120.6,396.6"/>
						<path class="st21" d="M117.4,400.3"/>
					</g>
					<g>
						<g>
							<defs>
								<path id="XMLID_15_" d="M147,414c0.1,8.3-11,22.1-17.3,22.2l-46.2,0.4l-0.8-92.4l63.7-0.5L147,414L147,414z"/>
							</defs>
							<use xlink:href="#XMLID_15_"  style="overflow:visible;fill:#E9F5FF;"/>
							<clipPath id="XMLID_6_">
								<use xlink:href="#XMLID_15_"  style="overflow:visible;"/>
							</clipPath>
						</g>
						<path class="st22" d="M122.3,397.9"/>
						<path class="st22" d="M119,401.6"/>
					</g>
					<path class="st3" d="M136.2,363.8h-40c-0.5,0-1-0.4-1-1v0c0-0.5,0.4-1,1-1h40c0.5,0,1,0.4,1,1v0
						C137.2,363.3,136.7,363.8,136.2,363.8z"/>
					<path class="st3" d="M136.2,370.8h-40c-0.5,0-1-0.4-1-1l0,0c0-0.5,0.4-1,1-1h40c0.5,0,1,0.4,1,1l0,0
						C137.2,370.4,136.7,370.8,136.2,370.8z"/>
					<path class="st3" d="M136.2,377.6h-40c-0.5,0-1-0.4-1-1l0,0c0-0.5,0.4-1,1-1h40c0.5,0,1,0.4,1,1l0,0
						C137.2,377.2,136.7,377.6,136.2,377.6z"/>
					<path class="st3" d="M136.2,385.3h-40c-0.5,0-1-0.4-1-1l0,0c0-0.5,0.4-1,1-1h40c0.5,0,1,0.4,1,1l0,0
						C137.2,384.8,136.7,385.3,136.2,385.3z"/>
					<path class="st3" d="M136.2,393.5h-40c-0.5,0-1-0.4-1-1l0,0c0-0.5,0.4-1,1-1h40c0.5,0,1,0.4,1,1l0,0
						C137.2,393.1,136.7,393.5,136.2,393.5z"/>
					<path class="st3" d="M136.2,402.9h-40c-0.5,0-1-0.4-1-1l0,0c0-0.5,0.4-1,1-1h40c0.5,0,1,0.4,1,1l0,0
						C137.2,402.4,136.7,402.9,136.2,402.9z"/>
					<path class="st3" d="M136.2,411.6h-40c-0.5,0-1-0.4-1-1l0,0c0-0.5,0.4-1,1-1h40c0.5,0,1,0.4,1,1l0,0
						C137.2,411.2,136.7,411.6,136.2,411.6z"/>
				</g>
				<polygon class="st23" points="83.4,416.6 84.3,344.7 146.4,343.6 				"/>
			</g>
			<rect x="80.6" y="329" class="st24" width="9.8" height="9.8"/>
		</g>
		<g>
			<rect x="187.1" y="324.6" class="st20" width="80.9" height="115.9"/>
			<rect x="183" y="322.2" class="st0" width="80.9" height="115.9"/>
			<g>
				<g>
					<g>
						<path class="st21" d="M229.2,389.8"/>
						<path class="st21" d="M225.9,393.5"/>
					</g>
					<g>
						<g>
							<defs>
								<path id="XMLID_1_" d="M255.6,407.2c0.1,8.3-11,22.1-17.3,22.2l-46.2,0.4l-0.8-92.4l63.7-0.5L255.6,407.2L255.6,407.2z"/>
							</defs>
							<use xlink:href="#XMLID_1_"  style="overflow:visible;fill:#E9F5FF;"/>
							<clipPath id="XMLID_7_">
								<use xlink:href="#XMLID_1_"  style="overflow:visible;"/>
							</clipPath>
						</g>
						<path class="st22" d="M230.8,391.2"/>
						<path class="st22" d="M227.6,394.9"/>
					</g>
					<path class="st3" d="M244.8,357h-40c-0.5,0-1-0.4-1-1v0c0-0.5,0.4-1,1-1h40c0.5,0,1,0.4,1,1v0C245.7,356.6,245.3,357,244.8,357
						z"/>
					<path class="st3" d="M244.8,364h-40c-0.5,0-1-0.4-1-1l0,0c0-0.5,0.4-1,1-1h40c0.5,0,1,0.4,1,1l0,0
						C245.7,363.6,245.3,364,244.8,364z"/>
					<path class="st3" d="M244.8,370.8h-40c-0.5,0-1-0.4-1-1l0,0c0-0.5,0.4-1,1-1h40c0.5,0,1,0.4,1,1l0,0
						C245.7,370.4,245.3,370.8,244.8,370.8z"/>
					<path class="st3" d="M244.8,378.5h-40c-0.5,0-1-0.4-1-1l0,0c0-0.5,0.4-1,1-1h40c0.5,0,1,0.4,1,1l0,0
						C245.7,378,245.3,378.5,244.8,378.5z"/>
					<path class="st3" d="M244.8,386.7h-40c-0.5,0-1-0.4-1-1l0,0c0-0.5,0.4-1,1-1h40c0.5,0,1,0.4,1,1l0,0
						C245.7,386.3,245.3,386.7,244.8,386.7z"/>
					<path class="st3" d="M244.8,396.1h-40c-0.5,0-1-0.4-1-1l0,0c0-0.5,0.4-1,1-1h40c0.5,0,1,0.4,1,1l0,0
						C245.7,395.6,245.3,396.1,244.8,396.1z"/>
					<path class="st3" d="M244.8,404.8h-40c-0.5,0-1-0.4-1-1l0,0c0-0.5,0.4-1,1-1h40c0.5,0,1,0.4,1,1l0,0
						C245.7,404.4,245.3,404.8,244.8,404.8z"/>
				</g>
				<polygon class="st23" points="191.9,409.8 192.8,337.9 255,336.8 				"/>
			</g>
			<rect x="189.2" y="322.2" class="st24" width="9.8" height="9.8"/>
		</g>
	</g>
	<g>
		<g>
			<g>
				<path class="st3" d="M556.4,271.4c9.9,0,18.1,8.1,18.1,18.1v161c0,9.9-8.1,18.1-18.1,18.1H306.6c-9.9,0-18.1-8.1-18.1-18.1v-161
					c0-9.9,8.1-18.1,18.1-18.1H556.4z"/>
				<path class="st5" d="M313.1,370.1c0,3.6-2.9,6.5-6.6,6.5c-3.6,0-6.6-2.9-6.6-6.5c0-3.6,3-6.6,6.6-6.6
					C310.2,363.5,313.1,366.4,313.1,370.1z"/>
				<rect x="324.6" y="287.9" class="st0" width="213.6" height="164.3"/>
				<path class="st5" d="M556.4,347c-3.2,0-5.8,2.6-5.8,5.8v34.5c0,3.2,2.6,5.8,5.8,5.8l0,0c3.2,0,5.8-2.6,5.8-5.8v-34.5
					C562.1,349.6,559.5,347,556.4,347L556.4,347z"/>
			</g>
			<g>
				<g>
					<path class="st25" d="M379,381.4v-25.7c0-4.1-3.4-7.5-7.5-7.5h-25.7c-4.1,0-7.5,3.4-7.5,7.5v25.7c0,4.1,3.4,7.5,7.5,7.5h25.7
						C375.6,388.9,379,385.5,379,381.4z"/>
				</g>
				<g>
					<path class="st26" d="M379,330.2v-25.7c0-4.1-3.4-7.5-7.5-7.5h-25.7c-4.1,0-7.5,3.4-7.5,7.5v25.7c0,4.1,3.4,7.5,7.5,7.5h25.7
						C375.6,337.7,379,334.3,379,330.2z"/>
				</g>
			</g>
			<g>
				<g>
					<path class="st27" d="M429.2,432.6v-25.7c0-4.1-3.4-7.5-7.5-7.5H396c-4.1,0-7.5,3.4-7.5,7.5v25.7c0,4.1,3.4,7.5,7.5,7.5h25.7
						C425.8,440.1,429.2,436.7,429.2,432.6z"/>
				</g>
				<g>
					<path class="st10" d="M429.2,381.4v-25.7c0-4.1-3.4-7.5-7.5-7.5H396c-4.1,0-7.5,3.4-7.5,7.5v25.7c0,4.1,3.4,7.5,7.5,7.5h25.7
						C425.8,388.9,429.2,385.5,429.2,381.4z"/>
				</g>
				<g>
					<path class="st28" d="M429.2,330.2v-25.7c0-4.1-3.4-7.5-7.5-7.5H396c-4.1,0-7.5,3.4-7.5,7.5v25.7c0,4.1,3.4,7.5,7.5,7.5h25.7
						C425.8,337.7,429.2,334.3,429.2,330.2z"/>
				</g>
			</g>
			<g>
				<g>
					<path class="st25" d="M479.5,432.6v-25.7c0-4.1-3.4-7.5-7.5-7.5h-25.7c-4.1,0-7.5,3.4-7.5,7.5v25.7c0,4.1,3.4,7.5,7.5,7.5h25.7
						C476.1,440.1,479.5,436.7,479.5,432.6z"/>
				</g>
				<g>
					<path class="st25" d="M479.5,381.4v-25.7c0-4.1-3.4-7.5-7.5-7.5h-25.7c-4.1,0-7.5,3.4-7.5,7.5v25.7c0,4.1,3.4,7.5,7.5,7.5h25.7
						C476.1,388.9,479.5,385.5,479.5,381.4z"/>
				</g>
				<g>
					<path class="st29" d="M479.5,330.2v-25.7c0-4.1-3.4-7.5-7.5-7.5h-25.7c-4.1,0-7.5,3.4-7.5,7.5v25.7c0,4.1,3.4,7.5,7.5,7.5h25.7
						C476.1,337.7,479.5,334.3,479.5,330.2z"/>
				</g>
			</g>
			<g>
				<g>
					<path class="st30" d="M529.7,432.6v-25.7c0-4.1-3.4-7.5-7.5-7.5h-25.7c-4.1,0-7.5,3.4-7.5,7.5v25.7c0,4.1,3.4,7.5,7.5,7.5h25.7
						C526.3,440.1,529.7,436.7,529.7,432.6z"/>
				</g>
				<g>
					<path class="st27" d="M529.7,381.4v-25.7c0-4.1-3.4-7.5-7.5-7.5h-25.7c-4.1,0-7.5,3.4-7.5,7.5v25.7c0,4.1,3.4,7.5,7.5,7.5h25.7
						C526.3,388.9,529.7,385.5,529.7,381.4z"/>
				</g>
				<g>
					<path class="st25" d="M529.7,330.2v-25.7c0-4.1-3.4-7.5-7.5-7.5h-25.7c-4.1,0-7.5,3.4-7.5,7.5v25.7c0,4.1,3.4,7.5,7.5,7.5h25.7
						C526.3,337.7,529.7,334.3,529.7,330.2z"/>
				</g>
			</g>
		</g>
		<g>
			
				<linearGradient id="SVGID_3_" gradientUnits="userSpaceOnUse" x1="32.3146" y1="793.1632" x2="32.3146" y2="751.9569" gradientTransform="matrix(1 0 0 1 326.7176 -352.8545)">
				<stop  offset="1" style="stop-color:#E11E19"/>
				<stop  offset="1" style="stop-color:#E11E19"/>
				<stop  offset="1" style="stop-color:#E01E1B"/>
			</linearGradient>
			<path class="st31" d="M370.1,399.1H348c-5.3,0-9.6,4.3-9.6,9.6v22.1c0,5.3,4.3,9.6,9.6,9.6l22.1,0c5.3,0,9.5-4.3,9.5-9.6v-22.1
				C379.6,403.4,375.3,399.1,370.1,399.1z"/>
			<g>
				<g>
					<g>
						<path class="st0" d="M371.6,418c-0.5,0-0.9-0.3-1-0.8c-0.7-3.6-3.1-6.5-6-8c-2.9-1.5-6.2-1.9-9.6-0.7c-0.5,0.2-1.1,0-1.3-0.6
							c-0.2-0.5,0.1-1,0.7-1.2c4-1.4,8-0.8,11.4,1.1c3.4,1.9,5.7,5,6.7,9c0.1,0.6-0.1,1.1-0.6,1.2C371.8,418,371.7,418,371.6,418z"
							/>
					</g>
				</g>
				<g>
					<g>
						<path class="st0" d="M367.8,419.2c-0.3,0-0.6-0.2-0.7-0.6c-0.5-2.6-2.3-4.7-4.4-5.8c-2.1-1.1-4.3-1.5-6.8-0.7
							c-0.4,0.1-0.7-0.1-0.9-0.5c-0.1-0.4,0-0.8,0.4-0.9c2.8-1.1,5.8-0.8,8.2,0.6c2.4,1.4,4.3,4,4.8,6.7c0.1,0.4,0.2,1-0.3,1.1
							C368.2,419.1,367.9,419.2,367.8,419.2z"/>
					</g>
				</g>
				<g>
					<g>
						<g>
							<path class="st0" d="M358.9,425.8L358.9,425.8C359,425.7,359,425.7,358.9,425.8C358.9,425.7,358.9,425.7,358.9,425.8z"/>
						</g>
					</g>
					<g>
						<g>
							<path class="st0" d="M367.2,422.5c-0.5,0-1.1,0.1-1.6,0.2c-0.6-1.6-2.1-2.7-3.9-2.7c-0.2,0-0.5,0-0.7,0.1
								c-1.1-2.2-3.3-3.6-5.9-3.6c-3.7,0-6.6,3-6.6,6.6c0,0.3,0,0.6,0.1,1c-1.9,0.8-3.3,2.6-3.3,4.8c0,2.1,1.3,4,3.2,4.7h20
								c2.5-0.6,4.4-2.8,4.4-5.4C372.8,425,370.3,422.5,367.2,422.5z M367.6,431.6L367.6,431.6L367.6,431.6c-0.1,0-17.3,0-17.4,0
								c-1.7,0-3.1-1.4-3.1-3.1s1.4-3.1,3.1-3.1c0.3,0,0.5,0,0.8,0.1c-0.5-0.7-0.7-1.6-0.7-2.5c0-2.6,2.2-4.8,4.8-4.8
								c2.5,0,4.6,2,4.8,4.4c0.5-0.4,1.2-0.7,1.9-0.7c1.6,0,2.9,1.3,2.9,2.9c0,0.2,0,0.4-0.1,0.5c0.7-0.7,1.6-1.1,2.6-1.1
								c2,0,3.7,1.6,3.7,3.7C370.9,429.8,369.5,431.4,367.6,431.6z"/>
						</g>
					</g>
				</g>
				<g>
					<path class="st0" d="M363.1,418.1c-0.3,0-0.5-0.1-0.6-0.4c-0.5-1.1-2.1-2.2-3.4-2c-0.4,0-0.7-0.2-0.8-0.6
						c0-0.4,0.2-0.7,0.6-0.8c2-0.2,4.1,1.3,4.8,2.8c0.2,0.3,0,0.8-0.3,0.9C363.3,418,363.2,418.1,363.1,418.1z"/>
				</g>
			</g>
		</g>
	</g>
	<g>
		<g>
			<g>
				<path class="st30" d="M613.4,233.4v218.1c0,10-8.2,18.1-18.2,18.1h-96.1c-4.7,0-9-1.8-12.2-4.7c-0.5-0.4-0.9-0.8-1.2-1.2
					c-2.9-3.2-4.7-7.5-4.7-12.2V233.4c0-10,8.2-18.2,18.2-18.2h96.1c4.8,0,9.2,1.9,12.5,5c0.2,0.2,0.4,0.4,0.6,0.6
					C611.5,224.2,613.4,228.6,613.4,233.4z"/>
				<path class="st5" d="M562.9,450.9c0,2.4-1.9,4.3-4.3,4.3h-22.8c-2.4,0-4.3-1.9-4.3-4.3v-1.8c0-2.4,2-4.4,4.3-4.4h22.8
					c2.4,0,4.3,2,4.3,4.4V450.9z"/>
				<path class="st5" d="M566.2,235.3c0,1-0.8,1.8-1.8,1.8H530c-1,0-1.8-0.8-1.8-1.8v-0.7c0-1,0.8-1.8,1.8-1.8h34.4
					c1,0,1.8,0.8,1.8,1.8V235.3z"/>
				<rect x="491.3" y="242.2" class="st0" width="111.8" height="196.3"/>
			</g>
			<g>
				<path class="st26" d="M535.9,411.9v-11.2c0-3.1,2.5-5.6,5.6-5.6h11.2c3.1,0,5.6,2.5,5.6,5.6v11.2c0,3.1-2.5,5.6-5.6,5.6h-11.2
					C538.5,417.5,535.9,415,535.9,411.9z"/>
				<path class="st27" d="M504,411.9v-11.2c0-3.1,2.5-5.6,5.6-5.6h11.2c3.1,0,5.6,2.5,5.6,5.6v11.2c0,3.1-2.5,5.6-5.6,5.6h-11.2
					C506.5,417.5,504,415,504,411.9z"/>
				<path class="st27" d="M567.9,411.9v-11.2c0-3.1,2.5-5.6,5.6-5.6h11.2c3.1,0,5.6,2.5,5.6,5.6v11.2c0,3.1-2.5,5.6-5.6,5.6h-11.2
					C570.4,417.5,567.9,415,567.9,411.9z"/>
				<path class="st27" d="M504,348.1v-11.2c0-3.1,2.5-5.6,5.6-5.6h11.2c3.1,0,5.6,2.5,5.6,5.6v11.2c0,3.1-2.5,5.6-5.6,5.6h-11.2
					C506.5,353.7,504,351.2,504,348.1z"/>
				<path class="st27" d="M535.9,348.1v-11.2c0-3.1,2.5-5.6,5.6-5.6h11.2c3.1,0,5.6,2.5,5.6,5.6v11.2c0,3.1-2.5,5.6-5.6,5.6h-11.2
					C538.5,353.7,535.9,351.2,535.9,348.1z"/>
				<path class="st28" d="M504,316.1V305c0-3.1,2.5-5.6,5.6-5.6h11.2c3.1,0,5.6,2.5,5.6,5.6v11.2c0,3.1-2.5,5.6-5.6,5.6h-11.2
					C506.5,321.8,504,319.2,504,316.1z"/>
				<path class="st28" d="M535.9,316.1V305c0-3.1,2.5-5.6,5.6-5.6h11.2c3.1,0,5.6,2.5,5.6,5.6v11.2c0,3.1-2.5,5.6-5.6,5.6h-11.2
					C538.5,321.8,535.9,319.2,535.9,316.1z"/>
				<path class="st28" d="M567.9,316.1V305c0-3.1,2.5-5.6,5.6-5.6h11.2c3.1,0,5.6,2.5,5.6,5.6v11.2c0,3.1-2.5,5.6-5.6,5.6h-11.2
					C570.4,321.8,567.9,319.2,567.9,316.1z"/>
				<path class="st26" d="M504,284.2V273c0-3.1,2.5-5.6,5.6-5.6h11.2c3.1,0,5.6,2.5,5.6,5.6v11.2c0,3.1-2.5,5.6-5.6,5.6h-11.2
					C506.5,289.8,504,287.3,504,284.2z"/>
				<path class="st26" d="M535.9,284.2V273c0-3.1,2.5-5.6,5.6-5.6h11.2c3.1,0,5.6,2.5,5.6,5.6v11.2c0,3.1-2.5,5.6-5.6,5.6h-11.2
					C538.5,289.8,535.9,287.3,535.9,284.2z"/>
				<path class="st26" d="M567.9,284.2V273c0-3.1,2.5-5.6,5.6-5.6h11.2c3.1,0,5.6,2.5,5.6,5.6v11.2c0,3.1-2.5,5.6-5.6,5.6h-11.2
					C570.4,289.8,567.9,287.3,567.9,284.2z"/>
			</g>
		</g>
		<g>
			
				<linearGradient id="SVGID_4_" gradientUnits="userSpaceOnUse" x1="318.2469" y1="743.6314" x2="318.2469" y2="720.8311" gradientTransform="matrix(1 0 0 1 261.9302 -389.9443)">
				<stop  offset="1" style="stop-color:#E11E19"/>
				<stop  offset="1" style="stop-color:#E11E19"/>
				<stop  offset="1" style="stop-color:#E01E1B"/>
			</linearGradient>
			<path class="st32" d="M586.3,330.9h-12.2c-2.9,0-5.3,2.4-5.3,5.3v12.2c0,2.9,2.4,5.3,5.3,5.3h12.2c2.9,0,5.3-2.4,5.3-5.3v-12.2
				C591.6,333.3,589.2,330.9,586.3,330.9z"/>
			<g>
				<g>
					<g>
						<path class="st0" d="M587.1,341.3c-0.3,0-0.5-0.2-0.5-0.4c-0.4-2-1.7-3.6-3.3-4.4c-1.6-0.8-3.4-1-5.3-0.4
							c-0.3,0.1-0.6,0-0.7-0.3c-0.1-0.3,0.1-0.6,0.4-0.7c2.2-0.8,4.4-0.5,6.3,0.6c1.9,1.1,3.2,2.7,3.7,5c0.1,0.3,0,0.6-0.4,0.7
							C587.2,341.3,587.2,341.3,587.1,341.3z"/>
					</g>
				</g>
				<g>
					<g>
						<path class="st0" d="M585,342c-0.2,0-0.3-0.1-0.4-0.3c-0.3-1.4-1.2-2.6-2.4-3.2c-1.1-0.6-2.4-0.8-3.7-0.4
							c-0.2,0.1-0.4-0.1-0.5-0.3c-0.1-0.2,0-0.4,0.2-0.5c1.5-0.6,3.2-0.4,4.6,0.3c1.3,0.8,2.4,2.2,2.6,3.7c0,0.2,0.1,0.5-0.2,0.6
							C585.2,342,585.1,342,585,342z"/>
					</g>
				</g>
				<g>
					<g>
						<g>
							<path class="st0" d="M580.1,345.6L580.1,345.6C580.1,345.6,580.1,345.6,580.1,345.6C580.1,345.6,580.1,345.6,580.1,345.6z"/>
						</g>
					</g>
					<g>
						<g>
							<path class="st0" d="M584.7,343.8c-0.3,0-0.6,0-0.9,0.1c-0.3-0.9-1.2-1.5-2.2-1.5c-0.1,0-0.3,0-0.4,0c-0.6-1.2-1.8-2-3.3-2
								c-2,0-3.7,1.6-3.7,3.7c0,0.2,0,0.4,0,0.5c-1.1,0.4-1.8,1.4-1.8,2.7c0,1.2,0.7,2.2,1.8,2.6h11.1c1.4-0.3,2.4-1.5,2.4-3
								C587.8,345.2,586.4,343.8,584.7,343.8z M584.9,348.9L584.9,348.9L584.9,348.9c-0.1,0-9.6,0-9.6,0c-0.9,0-1.7-0.8-1.7-1.7
								c0-0.9,0.8-1.7,1.7-1.7c0.1,0,0.3,0,0.4,0.1c-0.3-0.4-0.4-0.9-0.4-1.4c0-1.5,1.2-2.7,2.7-2.7c1.4,0,2.6,1.1,2.7,2.5
								c0.3-0.2,0.7-0.4,1.1-0.4c0.9,0,1.6,0.7,1.6,1.6c0,0.1,0,0.2,0,0.3c0.4-0.4,0.9-0.6,1.4-0.6c1.1,0,2,0.9,2,2
								C586.8,347.9,585.9,348.8,584.9,348.9z"/>
						</g>
					</g>
				</g>
				<g>
					<path class="st0" d="M582.4,341.4c-0.1,0-0.3-0.1-0.3-0.2c-0.3-0.6-1.2-1.2-1.9-1.1c-0.2,0-0.4-0.1-0.4-0.3
						c0-0.2,0.1-0.4,0.3-0.4c1.1-0.1,2.3,0.7,2.7,1.6c0.1,0.2,0,0.4-0.2,0.5C582.5,341.4,582.5,341.4,582.4,341.4z"/>
				</g>
			</g>
		</g>
	</g>
</g>
</svg>
