<svg xmlns="http://www.w3.org/2000/svg" xmlns:xlink="http://www.w3.org/1999/xlink" viewBox="0 0 600 350"><defs><clipPath id="a"><rect width="600" height="350" style="fill:none"/></clipPath><linearGradient id="b" x1="2555.37" y1="1837.42" x2="2625.63" y2="1867.79" gradientTransform="matrix(0.83, -0.55, -0.55, -0.83, -597.63, 3029.99)" gradientUnits="userSpaceOnUse"><stop offset="0" stop-color="#e1e0de"/><stop offset="0.1" stop-color="#e5e1e1"/><stop offset="0.18" stop-color="#bcbbba"/><stop offset="0.38" stop-color="#ebe9e9"/><stop offset="0.56" stop-color="#d6d4d2"/><stop offset="0.81" stop-color="#fff"/><stop offset="1" stop-color="#c6c3c3"/></linearGradient><linearGradient id="c" x1="2555.36" y1="1836.68" x2="2625.62" y2="1867.05" gradientTransform="matrix(0.83, -0.55, -0.55, -0.83, -597.63, 3029.99)" gradientUnits="userSpaceOnUse"><stop offset="0" stop-color="#bcb9b7"/><stop offset="0.1" stop-color="#c5bfbc"/><stop offset="0.18" stop-color="#6b6765"/><stop offset="0.38" stop-color="#d1cdcb"/><stop offset="0.56" stop-color="#a19d9c"/><stop offset="0.81" stop-color="#fff"/><stop offset="1" stop-color="#7f7a78"/></linearGradient><linearGradient id="e" x1="2555.36" y1="1836.68" x2="2625.62" y2="1867.05" gradientTransform="matrix(0.83, -0.55, -0.55, -0.83, -597.63, 3029.99)" gradientUnits="userSpaceOnUse"><stop offset="0" stop-color="#979493"/><stop offset="0.1" stop-color="#9d9996"/><stop offset="0.18" stop-color="#565351"/><stop offset="0.38" stop-color="#a6a3a2"/><stop offset="0.56" stop-color="#817e7d"/><stop offset="0.81" stop-color="#ccc"/><stop offset="1" stop-color="#666361"/></linearGradient><linearGradient id="f" x1="2549.09" y1="1850.41" x2="2631.86" y2="1850.41" gradientTransform="matrix(0.83, -0.55, -0.55, -0.83, -597.63, 3029.99)" gradientUnits="userSpaceOnUse"><stop offset="0" stop-color="#bcb9b7"/><stop offset="0.1" stop-color="#c5bfbc"/><stop offset="0.24" stop-color="#898583"/><stop offset="0.38" stop-color="#d1cdcb"/><stop offset="0.56" stop-color="#a19d9c"/><stop offset="0.93" stop-color="#fff"/><stop offset="0.97" stop-color="#7f7a78"/></linearGradient><linearGradient id="g" x1="2644.6" y1="-3026.66" x2="2644.6" y2="-3034.31" gradientTransform="translate(61.9 4022.7) rotate(-33.6)" gradientUnits="userSpaceOnUse"><stop offset="0" stop-color="#fff"/><stop offset="0.1" stop-color="#c5bfbc"/><stop offset="0.18" stop-color="#6b6765"/><stop offset="0.28"/><stop offset="0.47" stop-color="#a19d9c"/><stop offset="0.59" stop-color="#656362"/><stop offset="0.68" stop-color="#d1cdcb"/><stop offset="0.81" stop-color="#fff"/><stop offset="1" stop-color="#7f7a78"/></linearGradient><linearGradient id="h" x1="2642.46" y1="-3024.31" x2="2642.46" y2="-3036.66" gradientTransform="translate(61.9 4022.7) rotate(-33.6)" gradientUnits="userSpaceOnUse"><stop offset="0" stop-color="#7f7a78"/><stop offset="0.19" stop-color="#fff"/><stop offset="0.32" stop-color="#d1cdcb"/><stop offset="0.61" stop-color="#a19d9c"/><stop offset="0.72" stop-color="#fff"/><stop offset="0.82" stop-color="#6b6765"/><stop offset="0.9" stop-color="#c5bfbc"/><stop offset="1" stop-color="#bcb9b7"/></linearGradient></defs><g style="isolation:isolate"><g style="clip-path:url(#a)"><polygon points="173 49.8 535.2 197.3 367 332.7 4.8 185.3 173 49.8" style="fill:#e9f5ff"/><g style="opacity:0.30000000000000004;mix-blend-mode:multiply"><path d="M465.9,75.9h0L455.7,67h0a9.7,9.7,0,0,0-6.5-2.3H69.5c-5,0-9.1,3.5-9.1,7.8V290.6A7.2,7.2,0,0,0,63,296h.2l10,8.5h.2a9.9,9.9,0,0,0,7,2.8H460c5.1,0,9.2-3.5,9.2-7.9V81.9A7.4,7.4,0,0,0,465.9,75.9Z" style="fill:#ced5dc"/></g><rect x="59.7" y="65" width="399.6" height="226.53" rx="5.2" style="fill:#fff"/><path d="M454.1,65.1a5,5,0,0,1,5,5.1V286.3a5,5,0,0,1-5,5.1H64.9a5.1,5.1,0,0,1-5.1-5.1V70.2a5.1,5.1,0,0,1,5.1-5.1H454.1m0-.3H64.9a5.4,5.4,0,0,0-5.4,5.4V286.3a5.4,5.4,0,0,0,5.4,5.4H454.1a5.4,5.4,0,0,0,5.4-5.4V70.2a5.4,5.4,0,0,0-5.4-5.4Z" style="fill:#dfe4e9"/><rect x="59.2" y="77.3" width="114.8" height="182.19" style="fill:#f8f9fa"/><path d="M65.1,65.1H454.2a4.9,4.9,0,0,1,4.9,4.9V95.5a0,0,0,0,1,0,0H59.8a0,0,0,0,1,0,0V70.4A5.3,5.3,0,0,1,65.1,65.1Z" style="fill:#f8f9fa"/><path d="M87.2,196.8H74.6v-1.3H87.2v1.3m-9.9-3-.9-.9.9-.9-.5-.4-.8.9-.9-.9-.5.4.9.9-.9.9.5.4.9-.8.8.8.5-.4m9-9,.7,2.8-.6.2a5.6,5.6,0,0,0-.9-1.4,1.5,1.5,0,0,0-1.1-.3H82.8v6.6c0,.3,0,.6.2.7h1.1v.7H80.3v-.7h1.1c.2-.1.2-.4.2-.7v-6.6H80a2,2,0,0,0-1.1.2,2.8,2.8,0,0,0-.9,1.4l-.7-.2.8-2.7Z" style="fill:#8c9097"/><path d="M88.5,222.2H74.4v-1.4H88.5v1.4m-11.2-3.3-1-1,1-1-.5-.5-.9,1-1-1-.5.5,1,1-1,1,.5.5,1-1,.9,1,.5-.5m9.8-8.7H80a1.4,1.4,0,0,0-1.4,1.4V218a1.4,1.4,0,0,0,1.4,1.4h7.1a1.4,1.4,0,0,0,1.4-1.4v-6.4a1.4,1.4,0,0,0-1.4-1.4M80,218l1.9-2.4,1.3,1.6,1.7-2.3,2.2,3.1Zm2.1-5.3a1.1,1.1,0,0,1-1.1,1.1,1,1,0,0,1-1-1.1,1,1,0,0,1,1-1A1.1,1.1,0,0,1,82.1,212.7Z" style="fill:#8c9097"/><path d="M87.1,173.7H73.6v-1.4H87.1v1.4m-10.7-3.2-.5.5-.9-1-1,1-.4-.5.9-1-.9-.9.4-.5,1,1,.9-1,.5.5-.9.9.9,1m3.4-2.4c-.2.5-.8,2.5-1.4,2.8s-1.1-.3-1-.9,2.3-4.5,2.7-5.7,1.1-3.9,1.9-4.1,1.4.5.5,1.4a38.7,38.7,0,0,0,2,6.7c1.4,3.8,1.6.4,2.6,1.3s-.7,3-2.5,1.2a5.1,5.1,0,0,1-.9-1.4,3.4,3.4,0,0,1-.5-1.6,7.9,7.9,0,0,0-2.6.8C80,168.8,79.5,168.7,79.8,168.1Zm3-1.8c-.1-.3-.4-1.4-.8-3.1a.8.8,0,0,1-.1-.4l-1.6,4.1H81l1.2-.4Z" style="fill:#e11e19"/><rect x="75.1" y="138.7" width="78.2" height="3.8" rx="1" style="fill:#8c9097"/><rect x="94.8" y="191.1" width="33.6" height="3.04" rx="1" style="fill:#8c9097"/><rect x="191.9" y="221.5" width="82" height="3.04" rx="1" style="fill:#8c9097"/><rect x="96.1" y="214.7" width="33.6" height="3.04" rx="1" style="fill:#8c9097"/><rect x="94.8" y="244.3" width="33.6" height="3.04" rx="1" style="fill:#8c9097"/><rect x="75.1" y="111.4" width="78.2" height="3.8" rx="1" style="fill:#8c9097"/><rect x="202.6" y="244.3" width="147.2" height="3.04" rx="1" style="fill:#555b64"/><rect x="342.2" y="274.7" width="43.5" height="3.04" rx="1" style="fill:#555b64"/><rect x="399.2" y="274.7" width="51.6" height="3.04" rx="1" style="fill:#555b64"/><rect x="189.9" y="80.3" width="84" height="3.04" rx="1" style="fill:#555b64"/><rect x="94.8" y="166.8" width="33.6" height="3.04" rx="1" style="fill:#e11e19"/><rect x="188.9" y="239.7" width="10.6" height="10.63" rx="1" style="fill:#e11e19"/><path d="M192.8,248.5l-2.8-2.8,1.3-1.2,1.5,1.5,4.3-4.4,1.3,1.3Z" style="fill:#fff"/><rect x="59.8" y="95.2" width="399.3" height="0.63" style="fill:#dfe4e9"/><rect x="260.3" y="62.1" width="0.6" height="397.02" transform="translate(-0.5 520.7) rotate(-89.9)" style="fill:#dfe4e9"/><rect x="174.2" y="94.7" width="0.6" height="165.49" style="fill:#dfe4e9"/><rect x="60.6" y="124.8" width="113.9" height="0.63" style="fill:#dfe4e9"/><rect x="192.7" y="209.8" width="250.5" height="0.63" style="fill:#dfe4e9"/><path d="M452.6,285.6H397.4a1.6,1.6,0,0,1-1.6-1.6V266.8a1.6,1.6,0,0,1,1.6-1.6h55.2a1.6,1.6,0,0,1,1.5,1.6V284A1.6,1.6,0,0,1,452.6,285.6Zm-55.2-19.7a1,1,0,0,0-1,.9V284a1.1,1.1,0,0,0,1,1h55.2a1,1,0,0,0,.9-1V266.8a.9.9,0,0,0-.9-.9Z" style="fill:#555b64"/><path d="M420.9,77.6c-.2-.5-.6-.6-.9-.9s-.2-.8-.6-1.1-.9-.2-1.3-.3-.6-.5-1.1-.5-.9.4-1.2.5-.8-.1-1.3.3-.4.8-.6,1.1-.7.4-.9.9.2.9.2,1.3-.4.7-.2,1.3.7.6.9.9.2.8.6,1.1.9.2,1.3.3.6.5,1.2.5.8-.4,1.1-.5.8.1,1.3-.3.4-.8.6-1.1.7-.4.9-.9-.2-.9-.2-1.3.4-.7.2-1.3M417,81.7a2.8,2.8,0,1,1,2.7-2.8,2.8,2.8,0,0,1-2.7,2.8m1.3-2.8a1.3,1.3,0,0,1-1.3,1.4,1.4,1.4,0,1,1,0-2.8,1.3,1.3,0,0,1,1.3,1.4m-.2,5.2-.4,2.5-.5,2.8-1.8-1.7-2.3,1,.9-5.2a3.1,3.1,0,0,0,1.3.3,3.1,3.1,0,0,0,1,.5h.7a2,2,0,0,0,1.1-.3m2.9,2.2-1.7-.6.3-2,.6-.3h.1Z" style="fill:#555b64"/><path d="M384.3,75.6a6.1,6.1,0,1,0,0,12.1,1.1,1.1,0,0,0,1-1,.9.9,0,0,0-.3-.7,1.4,1.4,0,0,1-.2-.7,1,1,0,0,1,1-1H387a3.4,3.4,0,0,0,3.3-3.4C390.3,78,387.6,75.6,384.3,75.6Zm-3.7,6a.9.9,0,0,1-1-1,1,1,0,0,1,1-1,1.1,1.1,0,0,1,1,1A1,1,0,0,1,380.6,81.6Zm2-2.7a.9.9,0,0,1-1-1,1,1,0,1,1,2,0A.9.9,0,0,1,382.6,78.9Zm3.4,0a1,1,0,0,1-1.1-1,1.1,1.1,0,0,1,1.1-1,1.1,1.1,0,0,1,1,1A1,1,0,0,1,386,78.9Zm2,2.7a.9.9,0,0,1-1-1,1,1,0,0,1,1-1,1.1,1.1,0,0,1,1,1A1,1,0,0,1,388,81.6Z" style="fill:#555b64"/><path d="M447.2,77a5,5,0,0,1,4.1.6,5.4,5.4,0,1,1-8,3l1.2.7a4.1,4.1,0,0,0,7.4,3,4,4,0,0,0-4.4-6l.7,2.9-4-2.4,2.5-4Z" style="fill:#555b64"/><path d="M159.1,218.7h36.4v36.5H159.1Z" style="fill:none"/><path d="M269.9,167.7a4.7,4.7,0,0,1-2.9-.8,4,4,0,0,1-1.2-2.2,6.7,6.7,0,0,1-3.4,1.1,2.5,2.5,0,0,1-1.8-.8c-2.6,1.9-9.5,3.9-11.9,1.4a2.7,2.7,0,0,1-.4-3.4,5.8,5.8,0,0,1,5.4-2.7h.5l.2.5a2,2,0,0,1,0,1.1v.6a.7.7,0,0,1-1.3.3,2.7,2.7,0,0,1,0-.9v-.3c-1.5,0-3.3.9-3.7,2a1.7,1.7,0,0,0,.3,2c1.9,2.1,8.7-.3,10.6-1.8l.5-.5.5.5a2.5,2.5,0,0,0,1.2.8,5.3,5.3,0,0,0,3.5-1.5l.9-.7v1.2a3,3,0,0,0,.9,2.4c1.6,1.1,5,.1,7.2-.5l.3-.2c12.6-3.6,28.5-16.1,31.5-28,1.6-6.4.5-10.9-3.1-13.4-6.5-4.3-19.8-1.1-27.4,4.5s-16.4,13.5-13.2,20.8c2.5,5.5,10.4,4.9,14.7,3.8a.6.6,0,1,1,.4,1.2c-6.3,1.7-13.8,1.1-16.2-4.4-3.6-8.1,6.9-17.3,13.7-22.2s21.7-9.2,28.7-4.5c2.9,1.9,5.8,5.9,3.6,14.7-3.1,12.4-19.5,25.2-32.3,28.9l-.4.2a41.1,41.1,0,0,1-5.4.8m41.6,23,1.2-1.6c3.6-4.5,7.1-9.2,10.4-13.9L326,171c5.2-3.3,11-6.1,16-5.7v.8h.5c1.9.2,3.5-.6,5.2-1.4s2.8-1.4,4.2-1.4l1.9.2c1.7.1,3.9.4,5.3-.7,1.2.5,2.8-.6,4.1-1.4l.6-.4a3.1,3.1,0,0,0,1.9,1.8,4.8,4.8,0,0,0-1.3,2.1v.6h.6c4.1,1.6,9.2.4,14.1-.7a40.4,40.4,0,0,1,9.2-1.4c.3,0,.6-.4.6-.7a.6.6,0,0,0-.6-.6,40.4,40.4,0,0,0-9.5,1.4c-4.4,1.1-9.1,2-12.7,1.1a14.9,14.9,0,0,1,1.2-1.4c3.6.5,9.4-1.4,10.7-3.6l.3-.5-.3-.3c-.8-.9-2.4-1.1-4.1-.6a16.9,16.9,0,0,0-6.7,3.6h0c-1.7-.5-1.7-1.6-1.7-1.9v-.9l-.8.3a5.3,5.3,0,0,0-1.6.9,8.7,8.7,0,0,1-2.7,1.4h0l.5-1.3-1.4.3h-.6l-1.1-.3.3,1.1c0,.2.2.5.2.6s-2.4.5-4.1.4a7.5,7.5,0,0,0-2-.2,10.9,10.9,0,0,0-4.9,1.6,10.8,10.8,0,0,1-3.9,1.2v-.4l-.2-.4h-.4c-4.7-.6-9.9,1.6-14.7,4.3.4-.7.9-1.3,1.2-1.8l5.2-6.7,4.4-3.4c8.3-6.8,14.7-14.9,18.4-23.5l.6-1.6-1.5.8c-3,1.6-5.3,4.6-7.5,7.2l-1.6,1.9c-4.8,5.8-9.4,11.7-13.9,17.7-4.2,2.9-9.2,5.8-14.7,5.1h-.8a5,5,0,0,1-1.9-.3.8.8,0,0,1,.2-.6,2.1,2.1,0,0,0-.2-1.6c-1.4-1.2-2.8-.9-4.4-.3a1.5,1.5,0,0,0-.1-.6c-.6-1.4-3.1-1.9-4.7-1.7a29.5,29.5,0,0,0-8.3,2.3.6.6,0,0,0-.9,0c-.5.3-.8.8-1.3,1.1a19.8,19.8,0,0,0-5.9,4.6l.7.9c1-.6,1.8-1.4,2.7-2s2.2-1.6,3.1-2.4a28,28,0,0,1,9.7-3.1,4.7,4.7,0,0,1,3.5.9c.1.3-.3.8-1,1.4l.7,1.1.7-.4c2.2-1.1,3.2-1.6,4.3-.7v.5a1.7,1.7,0,0,0,.1,1.7c.6.6,1.9.6,2.8.8h.7c4.5.5,8.9-1.1,12.5-3.3l-3,3.9c-1.1,1.4-2,2.8-3.1,4.3l-7.1,4.8-2.8,2c-6.4,4.6-15.9,11.3-13.3,20.2l.2.5h.9c3.9-.6,6.7-4.7,8.8-7.5m10.6-16.3c-3.3,4.5-6.7,9.4-10.3,13.9a9.1,9.1,0,0,1-1.3,1.6c-1.8,2.7-4.5,6.3-7.3,6.4-1.9-7.8,7-14.1,13-18.3l2.8-2c1.2-1,2.6-1.9,4.2-3-.3.5-.8.9-1.1,1.4m54.5-14.9c-1.3,1.3-4.9,2.5-7.9,2.5a22.4,22.4,0,0,1,5.4-2.6,3.2,3.2,0,0,1,1.4-.2l1.1.3m-38.5-4.2c-.2.2-.5.3-.6.5,3.5-4.7,7.1-9.4,11.1-13.9a9,9,0,0,1,1.5-1.9,36.5,36.5,0,0,1,5.3-5.8,64.9,64.9,0,0,1-17.3,21.1" style="fill:#212934"/><path d="M76.7,239.1h-.9v-3a.7.7,0,0,1,.7-.7h3v1H76.7Z" style="fill:#8c9097"/><path d="M90,239.1H89v-2.7H86.2v-1h3.1a.8.8,0,0,1,.7.7Z" style="fill:#8c9097"/><path d="M90,248.9a.9.9,0,0,1-.7.8H86.2v-1H89v-2.8h1Z" style="fill:#8c9097"/><path d="M79.5,249.7h-3a.8.8,0,0,1-.7-.8v-3h.9v2.8h2.8Z" style="fill:#8c9097"/><path d="M82.5,247.5H78.2v-4.3h4.3Zm-3.3-1h2.4v-2.3H79.2Z" style="fill:#8c9097"/><rect x="79.8" y="244.8" width="1.1" height="1.1" style="fill:#8c9097"/><rect x="85.4" y="244.8" width="1.1" height="1.1" style="fill:#8c9097"/><rect x="86.5" y="243.7" width="1.1" height="1.1" style="fill:#8c9097"/><rect x="84.3" y="243.7" width="1.1" height="1.1" style="fill:#8c9097"/><rect x="86.5" y="245.9" width="1.1" height="1.1" style="fill:#8c9097"/><rect x="84.3" y="245.9" width="1.1" height="1.1" style="fill:#8c9097"/><path d="M82.3,241.8H78v-4.3h4.3Zm-3.3-.9h2.3v-2.4H79Z" style="fill:#8c9097"/><rect x="79.6" y="239.1" width="1.1" height="1.1" style="fill:#8c9097"/><path d="M87.8,241.8H83.5v-4.3h4.3Zm-3.3-.9h2.3v-2.4H84.5Z" style="fill:#8c9097"/><rect x="85.1" y="239.1" width="1.1" height="1.1" style="fill:#8c9097"/><polygon points="562.8 35.7 550.6 44.2 558.2 47.5 570.5 39 562.8 35.7" style="fill:#cac8c8"/><polygon points="562.8 35.7 550.6 44.2 558.2 47.5 570.5 39 562.8 35.7" style="fill:#9d9d9d"/><polygon points="561.9 36.3 549.7 44.8 557.3 48.1 569.6 39.6 561.9 36.3" style="fill:#898685"/><polygon points="561.9 36.3 549.7 44.8 557.3 48.1 569.6 39.6 561.9 36.3" style="fill:#9d9d9d"/><path d="M511.7,71.1c.4,1.6-.9,3.6-3,5-4,2.7-6.4.4-7.4-1.1l64.8-43.1,1.4,2.1Z" style="fill:url(#b)"/><path d="M511.7,71.1c.4,1.6-.9,3.6-3,5-4,2.7-6.4.4-7.4-1.1l64.8-43.1,1.4,2.1Z" style="fill:#9d9d9d"/><polygon points="562.4 36 550.1 44.5 557.8 47.8 570 39.3 562.4 36" style="fill:#938f8e"/><polygon points="562.4 36 550.1 44.5 557.8 47.8 570 39.3 562.4 36" style="fill:#f2f2f2"/><path d="M512.2,71.7c.3,1.6-.9,3.6-3,5-4.1,2.7-6.5.4-7.5-1.1l64.8-43.1,1.4,2.1Z" style="fill:url(#c)"/><path d="M512.2,71.7c.3,1.6-.9,3.6-3,5-4.1,2.7-6.5.4-7.5-1.1l64.8-43.1,1.4,2.1Z" style="fill:url(#c)"/><path d="M512.2,71.7c.3,1.6-.9,3.6-3,5-4.1,2.7-6.5.4-7.5-1.1l64.8-43.1,1.4,2.1Z" style="fill:url(#e)"/><path d="M512.2,71.7c.3,1.6-.9,3.6-3,5-4.1,2.7-6.5.4-7.5-1.1l64.8-43.1,1.4,2.1Z" style="fill:#9d9d9d"/><path d="M512,71.4c.3,1.6-.9,3.6-3,5-4.1,2.7-6.5.4-7.5-1.1l64.8-43.1,1.4,2.1Z" style="fill:url(#f)"/><path d="M512,71.4c.3,1.6-.9,3.6-3,5-4.1,2.7-6.5.4-7.5-1.1l64.8-43.1,1.4,2.1Z" style="fill:#a4c9e7"/><path d="M392.7,163.7c.1.2-.1.4-.4.6s-.6.3-.7.1a.6.6,0,0,1,.3-.7A.6.6,0,0,1,392.7,163.7Z" style="fill:#5c5b5c"/><path d="M392.2,164.4a33.3,33.3,0,0,0,5.9-2.6.1.1,0,0,1-.1-.1l-.4-.6a.5.5,0,0,1-.2-.4l-.3-.3-.3-.5-.3-.4a31,31,0,0,0-4.7,4.3h.1v.2h.1v.2Z" style="fill:#0e3c62"/><path d="M593.3,27.4c-.3-.5-1.3-.4-2.3.2l-13.8,8.8a1.5,1.5,0,0,0-.8.8.6.6,0,0,0-.1.7h0c-.1.1-.2.2-.2.3l1.8,2.3h0l1.5,2.4q0,.2.3,0h0c.1.2.3.3.7.2a2.1,2.1,0,0,0,1-.4l13.5-9.4c.9-.6,1.4-1.5,1.1-2Z" style="fill:url(#g)"/><path d="M593.3,27.4c-.3-.5-1.3-.4-2.3.2l-13.8,8.8a1.5,1.5,0,0,0-.8.8.6.6,0,0,0-.1.7h0c-.1.1-.2.2-.2.3l1.8,2.3h0l1.5,2.4q0,.2.3,0h0c.1.2.3.3.7.2a2.1,2.1,0,0,0,1-.4l13.5-9.4c.9-.6,1.4-1.5,1.1-2Z" style="fill:#a4c9e7"/><path d="M464.6,106.9c-16.8,11.4-33.5,22.7-49.9,34.9l6.7,10c17.2-10.2,34.5-21.4,51.5-32.5Z" style="fill:#2f2d7e"/><path d="M464.6,106.9c-16.8,11.4-33.5,22.7-49.9,34.9l6.7,10c17.2-10.2,34.5-21.4,51.5-32.5Z" style="fill:#1c77c3"/><path d="M468.2,112.4l-2.3-3.5c-16.8,11.3-33.5,22.6-49.9,34.8l1.6,2.4Z" style="fill:#fff;opacity:0.5;mix-blend-mode:screen"/><path d="M468.2,112.4l-2.3-3.5c-16.8,11.3-33.5,22.6-49.9,34.8l1.6,2.4Z" style="fill:#fff;opacity:0.5;mix-blend-mode:screen"/><path d="M396.7,163.1a172.9,172.9,0,0,0,24.7-11.3l-.2-.3c-.6-.9-1.2-1.7-1.7-2.6l-1.1-1.6-.9-1.4-1.5-2.2a21.4,21.4,0,0,0-1.3-1.9,155,155,0,0,0-19.9,18.4l.3.6a2.1,2.1,0,0,1,.4.6l.3.4.3.5.5.7Z" style="fill:#77addb"/><path d="M468.9,104l-4.3,2.9,8.3,12.4,4.3-2.8Z" style="fill:#a4c9e7"/><path d="M574.5,35.2Q521.1,68.7,468.9,104l8.3,12.5Q530,82,581.5,45.7Z" style="fill:#2f2d7e"/><path d="M574.5,35.2Q521.1,68.7,468.9,104l8.3,12.5Q530,82,581.5,45.7Z" style="fill:#1c77c3"/><path d="M577.5,39.7l-1.7-2.6q-53.4,33.6-105.6,68.8l2.4,3.6Z" style="fill:#fff;opacity:0.5;mix-blend-mode:screen"/><path d="M577.5,39.7l-1.7-2.6q-53.4,33.6-105.6,68.8l2.4,3.6Z" style="fill:#fff;opacity:0.5;mix-blend-mode:screen"/><path d="M580.7,31.3l-6.1,3.8,7,10.5,5.9-4Z" style="fill:#a4c9e7"/><polygon points="580.7 31.3 581.5 31 588.1 40.9 587.5 41.6 580.7 31.3" style="fill:url(#h)"/><polygon points="580.7 31.3 581.5 31 588.1 40.9 587.5 41.6 580.7 31.3" style="fill:#0e3c62"/></g></g></svg>