<svg xmlns="http://www.w3.org/2000/svg" xmlns:xlink="http://www.w3.org/1999/xlink" viewBox="0 0 600 350"><defs><clipPath id="a"><rect width="600" height="350" style="fill:none"/></clipPath></defs><g style="isolation:isolate"><g style="clip-path:url(#a)"><polygon points="428 132 38.5 97.1 125.9 294.5 515.4 329.5 428 132" style="fill:#e9f5ff"/><g style="opacity:0.30000000000000004;mix-blend-mode:multiply"><path d="M488.9,75.9h0L478.7,67h0a9.7,9.7,0,0,0-6.5-2.3H92.5c-5,0-9.1,3.5-9.1,7.8V290.6A7.2,7.2,0,0,0,86,296h.2l10,8.5h.2a9.9,9.9,0,0,0,7,2.8H483c5.1,0,9.2-3.5,9.2-7.9V81.9A7.4,7.4,0,0,0,488.9,75.9Z" style="fill:#ced5dc"/></g><rect x="82.7" y="65" width="399.6" height="226.53" rx="5.2" style="fill:#fff"/><path d="M477.1,65.1a5,5,0,0,1,5,5.1V286.3a5,5,0,0,1-5,5.1H87.9a5.1,5.1,0,0,1-5.1-5.1V70.2a5.1,5.1,0,0,1,5.1-5.1H477.1m0-.3H87.9a5.4,5.4,0,0,0-5.4,5.4V286.3a5.4,5.4,0,0,0,5.4,5.4H477.1a5.4,5.4,0,0,0,5.4-5.4V70.2a5.4,5.4,0,0,0-5.4-5.4Z" style="fill:#dfe4e9"/><rect x="82.2" y="77.3" width="114.8" height="182.19" style="fill:#f8f9fa"/><path d="M88.1,65.1H477.2a4.9,4.9,0,0,1,4.9,4.9V95.5a0,0,0,0,1,0,0H82.8a0,0,0,0,1,0,0V70.4a5.3,5.3,0,0,1,5.3-5.3Z" style="fill:#f8f9fa"/><path d="M110.2,196.8H97.6v-1.3h12.6v1.3m-9.9-3-.9-.9.9-.9-.5-.4-.8.9-.9-.9-.5.4.9.9-.9.9.5.4.9-.8.8.8.5-.4m9-9,.7,2.8-.6.2a5.6,5.6,0,0,0-.9-1.4,1.5,1.5,0,0,0-1.1-.3h-1.6v6.6c0,.3,0,.6.2.7h1.1v.7h-3.8v-.7h1.1c.2-.1.2-.4.2-.7v-6.6H103a2,2,0,0,0-1.1.2,2.8,2.8,0,0,0-.9,1.4l-.7-.2.8-2.7Z" style="fill:#8c9097"/><path d="M111.5,222.2H97.4v-1.4h14.1v1.4m-11.2-3.3-1-1,1-1-.5-.5-.9,1-1-1-.5.5,1,1-1,1,.5.5,1-1,.9,1,.5-.5m9.8-8.7H103a1.4,1.4,0,0,0-1.4,1.4V218a1.4,1.4,0,0,0,1.4,1.4h7.1a1.4,1.4,0,0,0,1.4-1.4v-6.4a1.4,1.4,0,0,0-1.4-1.4M103,218l1.9-2.4,1.3,1.6,1.7-2.3,2.2,3.1Zm2.1-5.3a1.1,1.1,0,0,1-1.1,1.1,1,1,0,0,1-1-1.1,1,1,0,0,1,1-1A1.1,1.1,0,0,1,105.1,212.7Z" style="fill:#8c9097"/><path d="M110.1,173.7H96.6v-1.4h13.5v1.4m-10.7-3.2-.5.5-.9-1-1,1-.4-.5.9-1-.9-.9.4-.5,1,1,.9-1,.5.5-.9.9.9,1m3.4-2.4c-.2.5-.8,2.5-1.4,2.8s-1.1-.3-1-.9,2.3-4.5,2.7-5.7,1.1-3.9,1.9-4.1,1.4.5.5,1.4a38.7,38.7,0,0,0,2,6.7c1.4,3.8,1.6.4,2.6,1.3s-.7,3-2.5,1.2a5.1,5.1,0,0,1-.9-1.4,3.4,3.4,0,0,1-.5-1.6,7.9,7.9,0,0,0-2.6.8C103,168.8,102.5,168.7,102.8,168.1Zm3-1.8c-.1-.3-.4-1.4-.8-3.1a.8.8,0,0,1-.1-.4l-1.6,4.1h.7l1.2-.4Z" style="fill:#8c9097"/><rect x="98.1" y="138.7" width="78.2" height="3.8" rx="1" style="fill:#8c9097"/><rect x="117.8" y="191.1" width="33.6" height="3.04" rx="1" style="fill:#8c9097"/><rect x="214.9" y="221.5" width="82" height="3.04" rx="1" style="fill:#8c9097"/><rect x="119.1" y="214.7" width="33.6" height="3.04" rx="1" style="fill:#8c9097"/><rect x="117.8" y="244.3" width="33.6" height="3.04" rx="1" style="fill:#e11e19"/><rect x="98.1" y="111.4" width="78.2" height="3.8" rx="1" style="fill:#8c9097"/><rect x="225.6" y="244.3" width="147.2" height="3.04" rx="1" style="fill:#555b64"/><rect x="365.2" y="274.7" width="43.5" height="3.04" rx="1" style="fill:#555b64"/><rect x="422.2" y="274.7" width="51.6" height="3.04" rx="1" style="fill:#555b64"/><rect x="212.9" y="80.3" width="84" height="3.04" rx="1" style="fill:#555b64"/><rect x="117.8" y="166.8" width="33.6" height="3.04" rx="1" style="fill:#8c9097"/><rect x="211.9" y="239.7" width="10.6" height="10.63" rx="1" style="fill:#e11e19"/><path d="M215.8,248.5l-2.8-2.8,1.3-1.2,1.5,1.5,4.3-4.4,1.3,1.3Z" style="fill:#fff"/><rect x="82.8" y="95.2" width="399.3" height="0.63" style="fill:#dfe4e9"/><rect x="283.3" y="62.1" width="0.6" height="397.02" transform="translate(22.5 543.7) rotate(-89.9)" style="fill:#dfe4e9"/><rect x="197.2" y="94.7" width="0.6" height="165.49" style="fill:#dfe4e9"/><rect x="83.6" y="124.8" width="113.9" height="0.63" style="fill:#dfe4e9"/><rect x="215.7" y="209.8" width="250.5" height="0.63" style="fill:#dfe4e9"/><path d="M475.6,285.6H420.4a1.6,1.6,0,0,1-1.6-1.6V266.8a1.6,1.6,0,0,1,1.6-1.6h55.2a1.6,1.6,0,0,1,1.5,1.6V284A1.6,1.6,0,0,1,475.6,285.6Zm-55.2-19.7a1,1,0,0,0-1,.9V284a1.1,1.1,0,0,0,1,1h55.2a1,1,0,0,0,.9-1V266.8a.9.9,0,0,0-.9-.9Z" style="fill:#555b64"/><path d="M443.9,77.6c-.2-.5-.6-.6-.9-.9s-.2-.8-.6-1.1-.9-.2-1.3-.3-.6-.5-1.1-.5-.9.4-1.2.5-.8-.1-1.3.3-.4.8-.6,1.1-.7.4-.9.9.2.9.2,1.3-.4.7-.2,1.3.7.6.9.9.2.8.6,1.1.9.2,1.3.3.6.5,1.2.5.8-.4,1.1-.5.8.1,1.3-.3.4-.8.6-1.1.7-.4.9-.9-.2-.9-.2-1.3.4-.7.2-1.3M440,81.7a2.8,2.8,0,1,1,2.7-2.8,2.8,2.8,0,0,1-2.7,2.8m1.3-2.8a1.3,1.3,0,0,1-1.3,1.4,1.4,1.4,0,1,1,0-2.8,1.3,1.3,0,0,1,1.3,1.4m-.2,5.2-.4,2.5-.5,2.8-1.8-1.7-2.3,1,.9-5.2a3.1,3.1,0,0,0,1.3.3,3.1,3.1,0,0,0,1,.5h.7a2,2,0,0,0,1.1-.3m2.9,2.2-1.7-.6.3-2,.6-.3h.1Z" style="fill:#555b64"/><path d="M407.3,75.6a6.1,6.1,0,1,0,0,12.1,1.1,1.1,0,0,0,1-1,.9.9,0,0,0-.3-.7,1.4,1.4,0,0,1-.2-.7,1,1,0,0,1,1-1H410a3.4,3.4,0,0,0,3.3-3.4C413.3,78,410.6,75.6,407.3,75.6Zm-3.7,6a.9.9,0,0,1-1-1,1,1,0,0,1,1-1,1.1,1.1,0,0,1,1,1A1,1,0,0,1,403.6,81.6Zm2-2.7a.9.9,0,0,1-1-1,1,1,0,1,1,2,0A.9.9,0,0,1,405.6,78.9Zm3.4,0a1,1,0,0,1-1.1-1,1.1,1.1,0,0,1,1.1-1,1.1,1.1,0,0,1,1,1A1,1,0,0,1,409,78.9Zm2,2.7a.9.9,0,0,1-1-1,1,1,0,0,1,1-1,1.1,1.1,0,0,1,1,1A1,1,0,0,1,411,81.6Z" style="fill:#555b64"/><path d="M470.2,77a5,5,0,0,1,4.1.6,5.4,5.4,0,1,1-8,3l1.2.7a4.1,4.1,0,0,0,7.4,3,4,4,0,0,0-4.4-6l.7,2.9-4-2.4,2.5-4Z" style="fill:#555b64"/><path d="M182.1,218.7h36.4v36.5H182.1Z" style="fill:none"/><path d="M99.7,239.1h-.9v-3a.7.7,0,0,1,.7-.7h3v1H99.7Z" style="fill:#e11e19"/><path d="M113,239.1h-1v-2.7h-2.8v-1h3.1a.8.8,0,0,1,.7.7Z" style="fill:#e11e19"/><path d="M113,248.9a.9.9,0,0,1-.7.8h-3.1v-1H112v-2.8h1Z" style="fill:#e11e19"/><path d="M102.5,249.7h-3a.8.8,0,0,1-.7-.8v-3h.9v2.8h2.8Z" style="fill:#e11e19"/><path d="M105.5,247.5h-4.3v-4.3h4.3Zm-3.3-1h2.4v-2.3h-2.4Z" style="fill:#e11e19"/><rect x="102.8" y="244.8" width="1.1" height="1.1" style="fill:#e11e19"/><rect x="108.4" y="244.8" width="1.1" height="1.1" style="fill:#e11e19"/><rect x="109.5" y="243.7" width="1.1" height="1.1" style="fill:#e11e19"/><rect x="107.3" y="243.7" width="1.1" height="1.1" style="fill:#e11e19"/><rect x="109.5" y="245.9" width="1.1" height="1.1" style="fill:#e11e19"/><rect x="107.3" y="245.9" width="1.1" height="1.1" style="fill:#e11e19"/><path d="M105.3,241.8H101v-4.3h4.3Zm-3.3-.9h2.3v-2.4H102Z" style="fill:#e11e19"/><rect x="102.6" y="239.1" width="1.1" height="1.1" style="fill:#e11e19"/><path d="M110.8,241.8h-4.3v-4.3h4.3Zm-3.3-.9h2.3v-2.4h-2.3Z" style="fill:#e11e19"/><rect x="108.1" y="239.1" width="1.1" height="1.1" style="fill:#e11e19"/><path d="M292.9,135.3h18.8V113.4H289.8v21.9Zm3.1-18.8h12.6v15.7H292.9V116.5Z" style="fill:#212934"/><polygon points="302.3 129.1 302.3 129.1 305.4 129.1 305.4 119.7 302.3 119.7 302.3 119.7 299.2 119.7 296 119.7 296 129.1 299.2 129.1 302.3 129.1" style="fill:#212934"/><polygon points="302.3 176.1 299.2 176.1 296 176.1 296 185.5 299.2 185.5 302.3 185.5 302.3 185.5 305.4 185.5 305.4 176.1 302.3 176.1 302.3 176.1" style="fill:#212934"/><path d="M305.4,169.8H289.8v22h21.9v-22h-6.3Zm3.2,15.7v3.1H292.9V173h15.7v12.5Z" style="fill:#212934"/><path d="M314.8,157.3h-6.2v-3.1h3.1V151h-3.1v3.2h-6.3v-6.3h3.1v-3.2h-3.1v-3.1h3.1v3.1h3.2v-3.1h3.1v3.1h-3.1v3.2h6.2v9.4H318v-3.1h3.1v3.1H318v3.1h3.1v-3.1h3.1V151H318v-3.1h3.1v-3.1h3.1v-3.2h-3.1v-3.1h3.1v-6.3h3.2v-3.1h-6.3v-3.2h3.1v-3.1H318v-3.1h-3.2v18.8H318v3.1h-6.3v-3.1H296v3.1h-3.1v-3.1h-3.1v3.1h3.1v3.2H296v3.1h-3.1V151H296v3.2h-6.2v12.5h3.1v-9.4H296v3.1h3.2v-3.1h6.2v3.1h6.3v3.2H296v3.1h15.7v-3.1h3.1Zm3.2-25.1v-3.1h3.1v6.2H318Z" style="fill:#212934"/><polygon points="318 173 314.8 173 314.8 176.1 314.8 185.5 318 185.5 318 176.1 318 173" style="fill:#212934"/><rect x="314.8" y="188.6" width="3.1" height="3.14" style="fill:#212934"/><polygon points="324.2 119.7 327.4 119.7 327.4 116.5 330.5 116.5 330.5 119.7 333.6 119.7 333.6 116.5 330.5 116.5 330.5 113.4 327.4 113.4 327.4 116.5 324.2 116.5 324.2 113.4 321.1 113.4 321.1 119.7 324.2 119.7 324.2 119.7" style="fill:#212934"/><rect x="321.1" y="179.2" width="3.1" height="3.14" style="fill:#212934"/><rect x="324.2" y="147.9" width="3.1" height="3.14" style="fill:#212934"/><rect x="327.4" y="132.2" width="3.1" height="3.14" style="fill:#212934"/><rect x="330.5" y="144.7" width="3.1" height="3.14" style="fill:#212934"/><polygon points="330.5 188.6 327.4 188.6 327.4 185.5 324.2 185.5 324.2 188.6 321.1 188.6 321.1 185.5 318 185.5 318 188.6 321.1 188.6 321.1 191.8 324.2 191.8 324.2 191.8 327.4 191.8 327.4 191.8 330.5 191.8 330.5 191.8 333.6 191.8 333.6 188.6 330.5 188.6 330.5 188.6" style="fill:#212934"/><polygon points="333.6 122.8 330.5 122.8 330.5 122.8 327.4 122.8 327.4 125.9 330.5 125.9 330.5 129.1 333.6 129.1 333.6 125.9 336.8 125.9 336.8 119.7 333.6 119.7 333.6 122.8" style="fill:#212934"/><polygon points="333.6 138.5 330.5 138.5 330.5 138.5 327.4 138.5 327.4 141.6 330.5 141.6 330.5 141.6 333.6 141.6 336.8 141.6 336.8 132.2 333.6 132.2 333.6 138.5" style="fill:#212934"/><rect x="333.6" y="169.8" width="3.1" height="3.14" style="fill:#212934"/><polygon points="339.9 116.5 343 116.5 343 113.4 339.9 113.4 339.9 116.5 336.8 116.5 336.8 119.7 339.9 119.7 339.9 116.5" style="fill:#212934"/><rect x="339.9" y="119.7" width="3.1" height="3.14" style="fill:#212934"/><polygon points="343 138.5 343 132.2 339.9 132.2 339.9 129.1 336.8 129.1 336.8 132.2 339.9 132.2 339.9 138.5 343 138.5" style="fill:#212934"/><rect x="346.2" y="169.8" width="3.1" height="3.14" style="fill:#212934"/><rect x="355.6" y="144.7" width="3.1" height="3.14" style="fill:#212934"/><polygon points="358.7 119.7 355.6 119.7 352.4 119.7 352.4 129.1 355.6 129.1 358.7 129.1 358.7 129.1 361.9 129.1 361.9 119.7 358.7 119.7 358.7 119.7" style="fill:#212934"/><polygon points="358.7 138.5 358.7 138.5 355.6 138.5 352.4 138.5 349.3 138.5 349.3 138.5 346.2 138.5 346.2 141.6 349.3 141.6 349.3 144.7 352.4 144.7 352.4 141.6 355.6 141.6 358.7 141.6 358.7 141.6 361.9 141.6 361.9 138.5 358.7 138.5" style="fill:#212934"/><path d="M365,141.6h-3.1v6.3H365V151h-6.3v3.2h-3.1V151h-3.1v3.2h-3.2V151h3.2v-3.1h-3.2V151h-3.1v-6.3H343v-3.1h-3.1v3.1h-3.1v3.2h3.1V151h-3.1v3.2h3.1v3.1h-6.3V151h-3.1v3.2h-3.1v3.1h3.1v3.1h-3.1v6.3h9.4v-3.1h-6.3v-3.2h6.3v3.2h3.1v3.1h-3.1v3.1h3.1v6.3H327.4V173h3.1v-3.2h-9.4v-3.1h3.1v-3.1h-3.1v3.1h-6.3v3.1H318V173h6.2v6.2h3.2v3.2h3.1v-3.2h9.4v3.2h-6.3v6.2h3.2v-3.1h3.1v3.1H343v-3.1h-3.1v-3.1h9.4v-3.2h3.2v3.2h3.1v3.1h-6.3v3.1H343v3.2h25.1V179.2h-6.2v-3.1h-3.2V173H365v3.1h3.1v-6.3h-9.4v-3.1h3.2v-3.1h-3.2v3.1h-3.1v-6.3h3.1v-6.2h3.2v6.2H365v3.2h3.1v-6.3H365v-3.1h3.1v-9.5H365ZM343,151v3.2h-3.1V151Zm-3.1,9.4H343v-3.1h3.2v-3.1h3.1v6.2h-3.1v3.2h-6.3Zm22,25.1v-3.1H365v6.2h-6.3v-3.1Zm-3.2-6.3h-3.1v-3.1h3.1Zm0-9.4V173h-3.1v-3.2Zm-6.2,6.3H343v-9.4h9.5Zm3.1-18.8h-3.1v-3.1h3.1Z" style="fill:#212934"/><path d="M365,113.4H346.2v21.9h21.9V113.4Zm-3.1,18.8H349.3V116.5H365v15.7Z" style="fill:#212934"/><path d="M252.2,100.5h-1.6a.7.7,0,0,1-.9-.7V81.5c-.1-.4.3-.8.7-.9h1.8a1,1,0,0,1,.9.7V99.6a.8.8,0,0,1-.7.9h-.2" style="fill:#071e31"/><path d="M252.2,137h-1.6a.9.9,0,0,1-.9-.9h0V108.4c-.1-.4.3-.8.7-.9h1.8a.9.9,0,0,1,.9.8h0V136a1.1,1.1,0,0,1-.9,1" style="fill:#071e31"/><path d="M252.2,172h-1.6a.7.7,0,0,1-.9-.7V143.6a.7.7,0,0,1,.7-.9h1.8c.4-.1.8.3.9.7v27.7a.8.8,0,0,1-.7.9h-.2" style="fill:#071e31"/><path d="M384.8,337.5H273a21.8,21.8,0,0,1-21.7-21.8V40.9a21.5,21.5,0,0,1,6.4-15.3,21.2,21.2,0,0,1,15.2-6.3H384.8A21.9,21.9,0,0,1,406.5,41V315.7A21.8,21.8,0,0,1,384.8,337.5ZM272.9,21.3A19.4,19.4,0,0,0,259.1,27a19.6,19.6,0,0,0-5.9,13.9V315.7A19.8,19.8,0,0,0,273,335.5H384.8a19.7,19.7,0,0,0,19.7-19.7V41a19.8,19.8,0,0,0-19.7-19.7H272.9Z" style="fill:#0e3c62"/><path d="M384.7,331.2H272.5a17.4,17.4,0,0,1-17.3-17.4V41.1a17.2,17.2,0,0,1,17.3-17.3H384.7a17.4,17.4,0,0,1,17.4,17.3V313.8a17.7,17.7,0,0,1-17.4,17.4M272.3,24.3a16.9,16.9,0,0,0-16.9,16.8V313.8a16.9,16.9,0,0,0,16.9,16.9H384.6a16.9,16.9,0,0,0,16.9-16.9V41.1a16.9,16.9,0,0,0-16.9-16.8Z" style="fill:#7faac5"/><g style="opacity:0.58"><path d="M384.7,330.2l-112.2.3a16.9,16.9,0,0,1-17.1-16.9v-.2l-.7-272.7a17,17,0,0,1,17-17h.1L384,23.3a17.1,17.1,0,0,1,17.1,17h0l.7,272.8a17,17,0,0,1-17,17h-.1" style="fill:#f8f9fa"/></g><path d="M316.4,314.5a17.4,17.4,0,1,1,24.1,4.7h0a17.4,17.4,0,0,1-24.1-4.7" style="fill:#eff1f4"/><path d="M314.7,315.6a19.3,19.3,0,0,1,5.2-26.9,18.7,18.7,0,0,1,12.3-3.3l-.3,4a15,15,0,0,0-9.8,2.6,15.5,15.5,0,0,0-4.1,21.4Z" style="fill:#afd5c4"/><path d="M330.8,324.1a19.6,19.6,0,0,1-16.1-8.5l3.3-2.2a15.4,15.4,0,0,0,21.4,4.1,15.9,15.9,0,0,0,6.1-8.1l3.8,1.2a19.4,19.4,0,0,1-7.6,10.2h-.1A19.4,19.4,0,0,1,330.8,324.1Z" style="fill:#afd5c4"/><path d="M405,315.7V41a20.7,20.7,0,0,0-20.7-20.7H272.5a20.7,20.7,0,0,0-20.7,20.6h0V315.7a20.7,20.7,0,0,0,20.7,20.8H384.3A20.7,20.7,0,0,0,405,315.8Zm-3.4-1.9a17.2,17.2,0,0,1-17.1,17.1H272.3a17.1,17.1,0,0,1-17.1-17h0V41.1A17.1,17.1,0,0,1,272.3,24h18.2v3.8a5.6,5.6,0,0,0,5.6,5.6h65.4a5.6,5.6,0,0,0,5.6-5.6V24h17.4a17.2,17.2,0,0,1,17.1,17.1Z" style="fill:#155992"/><path d="M341.2,27.6H315a.5.5,0,0,1-.7-.5v-.2a.7.7,0,0,1,.7-.7h26.2a.7.7,0,0,1,.7.7.8.8,0,0,1-.7.7" style="fill:#1c77c3"/><path d="M349.2,26.8a2.1,2.1,0,0,1-2.1,2.2,2.2,2.2,0,0,1-2.2-2.2,2.1,2.1,0,0,1,2.2-2.1,2.2,2.2,0,0,1,2.1,2.1" style="fill:#1c77c3"/><path d="M347.1,29.2a2.4,2.4,0,0,1-2.4-2.4,2.3,2.3,0,0,1,2.4-2.3,2.6,2.6,0,0,1,2.3,2.3h0A2.3,2.3,0,0,1,347.1,29.2Zm0-4.4a2,2,0,0,0-2,2,2,2,0,1,0,4,0A2.3,2.3,0,0,0,347.1,24.8Z" style="fill:#0e3c62"/><path d="M347.1,29.3a2.3,2.3,0,1,1,2.3-2.3,2.1,2.1,0,0,1-2.3,2.3m0-4.2a1.8,1.8,0,0,0,0,3.6,1.8,1.8,0,0,0,0-3.6" style="fill:#0e3c62"/><path d="M347.1,28.8a1.9,1.9,0,1,1,0-3.8,1.9,1.9,0,0,1,0,3.8Zm0-3.5a1.6,1.6,0,1,0,1.6,1.6A1.6,1.6,0,0,0,347.1,25.3Z" style="fill:#0e3c62"/><g style="opacity:0.400000005960465"><path d="M250.5,317.6l.4-276.5a21.6,21.6,0,0,1,21.5-21.5h60.4" style="fill:#fff"/></g><path d="M391.8,46.3V38.9a.8.8,0,0,0-.7-.8h-2.6c-.2,0-.4-.5-.5-.8a.8.8,0,0,0-.7-.4h-2.6c-.2,0-.4,0-.5.2s-.9,1-1.2,1h-2a.6.6,0,0,0-.6.5v7.6a1.1,1.1,0,0,0,.7,1.2H391C391.6,47.4,391.8,46.2,391.8,46.3Zm-5.9-.7a3.1,3.1,0,0,1-2.9-3.2,3,3,0,0,1,3.1-3,3.1,3.1,0,0,1-.1,6.2Z" style="fill:#8799ab"/><circle cx="385.9" cy="42.5" r="1.6" style="fill:#8799ab"/><path d="M281.6,124.8h-4.7V107.6a5.2,5.2,0,0,1,5.2-5.2H300v5H281.6Z" style="fill:#afd5c4"/><path d="M375.1,124.8h4.6V107.6a5.2,5.2,0,0,0-5.2-5.2H356.7v5h18.4Z" style="fill:#afd5c4"/><path d="M375.1,182.2h4.6v17.1a5.2,5.2,0,0,1-5.2,5.2H356.7v-4.9h18.4Z" style="fill:#afd5c4"/><path d="M281.6,182.2h-4.7v17.1a5.2,5.2,0,0,0,5.2,5.2H300v-4.9H281.6Z" style="fill:#afd5c4"/></g></g></svg>