<svg xmlns="http://www.w3.org/2000/svg" xmlns:xlink="http://www.w3.org/1999/xlink" viewBox="0 0 600 350"><defs><clipPath id="a"><rect width="600" height="350" style="fill:none"/></clipPath></defs><g style="isolation:isolate"><g style="clip-path:url(#a)"><path d="M361.9,2.7l29.4,199.9c5.8,40-19.3,81.1-55,91.7L158.1,347.1l-40-272.3Z" style="fill:#e9f5ff"/><g style="opacity:0.30000000000000004;mix-blend-mode:multiply"><path d="M492.9,64.9h0L482.7,56h0a9.7,9.7,0,0,0-6.5-2.3H96.5c-5,0-9.1,3.5-9.1,7.8V279.6A7.2,7.2,0,0,0,90,285h.2l10,8.5h.2a9.9,9.9,0,0,0,7,2.8H487c5.1,0,9.2-3.5,9.2-7.9V70.9A7.4,7.4,0,0,0,492.9,64.9Z" style="fill:#ced5dc"/></g><rect x="86.7" y="54" width="399.6" height="226.53" rx="5.2" style="fill:#fff"/><path d="M481.1,54.1a5,5,0,0,1,5,5.1V275.3a5,5,0,0,1-5,5.1H91.9a5.1,5.1,0,0,1-5.1-5.1V59.2a5.1,5.1,0,0,1,5.1-5.1H481.1m0-.3H91.9a5.4,5.4,0,0,0-5.4,5.4V275.3a5.4,5.4,0,0,0,5.4,5.4H481.1a5.4,5.4,0,0,0,5.4-5.4V59.2a5.4,5.4,0,0,0-5.4-5.4Z" style="fill:#dfe4e9"/><rect x="86.2" y="66.3" width="114.8" height="182.19" style="fill:#f8f9fa"/><path d="M92.1,54.1H481.2a4.9,4.9,0,0,1,4.9,4.9V84.5a0,0,0,0,1,0,0H86.8a0,0,0,0,1,0,0V59.4A5.3,5.3,0,0,1,92.1,54.1Z" style="fill:#f8f9fa"/><path d="M114.2,185.8H101.6v-1.3h12.6v1.3m-9.9-3-.9-.9.9-.9-.5-.4-.8.9-.9-.9-.5.4.9.9-.9.9.5.4.9-.8.8.8.5-.4m9-9,.7,2.8-.6.2a5.6,5.6,0,0,0-.9-1.4,1.5,1.5,0,0,0-1.1-.3h-1.6v6.6c0,.3,0,.6.2.7h1.1v.7h-3.8v-.7h1.1c.2-.1.2-.4.2-.7v-6.6H107a2,2,0,0,0-1.1.2,2.8,2.8,0,0,0-.9,1.4l-.7-.2.8-2.7Z" style="fill:#e11e19"/><path d="M115.5,211.2H101.4v-1.4h14.1v1.4m-11.2-3.3-1-1,1-1-.5-.5-.9,1-1-1-.5.5,1,1-1,1,.5.5,1-1,.9,1,.5-.5m9.8-8.7H107a1.4,1.4,0,0,0-1.4,1.4V207a1.4,1.4,0,0,0,1.4,1.4h7.1a1.4,1.4,0,0,0,1.4-1.4v-6.4a1.4,1.4,0,0,0-1.4-1.4M107,207l1.9-2.4,1.3,1.6,1.7-2.3,2.2,3.1Zm2.1-5.3a1.1,1.1,0,0,1-1.1,1.1,1,1,0,0,1-1-1.1,1,1,0,0,1,1-1A1.1,1.1,0,0,1,109.1,201.7Z" style="fill:#8c9097"/><path d="M114.1,162.7H100.6v-1.4h13.5v1.4m-10.7-3.2-.5.5-.9-1-1,1-.4-.5.9-1-.9-.9.4-.5,1,1,.9-1,.5.5-.9.9.9,1m3.4-2.4c-.2.5-.8,2.5-1.4,2.8s-1.1-.3-1-.9,2.3-4.5,2.7-5.7,1.1-3.9,1.9-4.1,1.4.5.5,1.4a38.7,38.7,0,0,0,2,6.7c1.4,3.8,1.6.4,2.6,1.3s-.7,3-2.5,1.2a5.1,5.1,0,0,1-.9-1.4,3.4,3.4,0,0,1-.5-1.6,7.9,7.9,0,0,0-2.6.8C107,157.8,106.5,157.7,106.8,157.1Zm3-1.8c-.1-.3-.4-1.4-.8-3.1a.8.8,0,0,1-.1-.4l-1.6,4.1h.7l1.2-.4Z" style="fill:#8c9097"/><rect x="102.1" y="127.7" width="78.2" height="3.8" rx="1" style="fill:#8c9097"/><rect x="121.8" y="180.1" width="33.6" height="3.04" rx="1" style="fill:#e11e19"/><rect x="218.9" y="210.5" width="82" height="3.04" rx="1" style="fill:#8c9097"/><rect x="123.1" y="203.7" width="33.6" height="3.04" rx="1" style="fill:#8c9097"/><rect x="121.8" y="233.3" width="33.6" height="3.04" rx="1" style="fill:#8c9097"/><rect x="102.1" y="100.4" width="78.2" height="3.8" rx="1" style="fill:#8c9097"/><rect x="229.6" y="233.3" width="147.2" height="3.04" rx="1" style="fill:#555b64"/><rect x="369.2" y="263.7" width="43.5" height="3.04" rx="1" style="fill:#555b64"/><rect x="426.2" y="263.7" width="51.6" height="3.04" rx="1" style="fill:#555b64"/><rect x="216.9" y="69.3" width="84" height="3.04" rx="1" style="fill:#555b64"/><rect x="121.8" y="155.8" width="33.6" height="3.04" rx="1" style="fill:#8c9097"/><rect x="215.9" y="228.7" width="10.6" height="10.63" rx="1" style="fill:#e11e19"/><path d="M219.8,237.5l-2.8-2.8,1.3-1.2,1.5,1.5,4.3-4.4,1.3,1.3Z" style="fill:#fff"/><rect x="86.8" y="84.2" width="399.3" height="0.63" style="fill:#dfe4e9"/><rect x="287.3" y="51.1" width="0.6" height="397.02" transform="translate(37.5 536.8) rotate(-89.9)" style="fill:#dfe4e9"/><rect x="201.2" y="83.7" width="0.6" height="165.49" style="fill:#dfe4e9"/><rect x="87.6" y="113.8" width="113.9" height="0.63" style="fill:#dfe4e9"/><rect x="219.7" y="198.8" width="250.5" height="0.63" style="fill:#dfe4e9"/><path d="M479.6,274.6H424.4a1.6,1.6,0,0,1-1.6-1.6V255.8a1.6,1.6,0,0,1,1.6-1.6h55.2a1.6,1.6,0,0,1,1.5,1.6V273A1.6,1.6,0,0,1,479.6,274.6Zm-55.2-19.7a1,1,0,0,0-1,.9V273a1.1,1.1,0,0,0,1,1h55.2a1,1,0,0,0,.9-1V255.8a.9.9,0,0,0-.9-.9Z" style="fill:#555b64"/><path d="M447.9,66.6c-.2-.5-.6-.6-.9-.9s-.2-.8-.6-1.1-.9-.2-1.3-.3-.6-.5-1.1-.5-.9.4-1.2.5-.8-.1-1.3.3-.4.8-.6,1.1-.7.4-.9.9.2.9.2,1.3-.4.7-.2,1.3.7.6.9.9.2.8.6,1.1.9.2,1.3.3.6.5,1.2.5.8-.4,1.1-.5.8.1,1.3-.3.4-.8.6-1.1.7-.4.9-.9-.2-.9-.2-1.3.4-.7.2-1.3M444,70.7a2.8,2.8,0,1,1,2.7-2.8,2.8,2.8,0,0,1-2.7,2.8m1.3-2.8a1.3,1.3,0,0,1-1.3,1.4,1.4,1.4,0,1,1,0-2.8,1.3,1.3,0,0,1,1.3,1.4m-.2,5.2-.4,2.5-.5,2.8-1.8-1.7-2.3,1,.9-5.2a3.1,3.1,0,0,0,1.3.3,3.1,3.1,0,0,0,1,.5h.7a2,2,0,0,0,1.1-.3m2.9,2.2-1.7-.6.3-2,.6-.3h.1Z" style="fill:#555b64"/><path d="M411.3,64.6a6.1,6.1,0,1,0,0,12.1,1.1,1.1,0,0,0,1-1,.9.9,0,0,0-.3-.7,1.4,1.4,0,0,1-.2-.7,1,1,0,0,1,1-1H414a3.4,3.4,0,0,0,3.3-3.4C417.3,67,414.6,64.6,411.3,64.6Zm-3.7,6a.9.9,0,0,1-1-1,1,1,0,0,1,1-1,1.1,1.1,0,0,1,1,1A1,1,0,0,1,407.6,70.6Zm2-2.7a.9.9,0,0,1-1-1,1,1,0,1,1,2,0A.9.9,0,0,1,409.6,67.9Zm3.4,0a1,1,0,0,1-1.1-1,1.1,1.1,0,0,1,1.1-1,1.1,1.1,0,0,1,1,1A1,1,0,0,1,413,67.9Zm2,2.7a.9.9,0,0,1-1-1,1,1,0,0,1,1-1,1.1,1.1,0,0,1,1,1A1,1,0,0,1,415,70.6Z" style="fill:#555b64"/><path d="M474.2,66a5,5,0,0,1,4.1.6,5.4,5.4,0,1,1-8,3l1.2.7a4.1,4.1,0,0,0,7.4,3,4,4,0,0,0-4.4-6l.7,2.9-4-2.4,2.5-4Z" style="fill:#555b64"/><path d="M186.1,207.7h36.4v36.5H186.1Z" style="fill:none"/><path d="M103.7,228.1h-.9v-3a.7.7,0,0,1,.7-.7h3v1h-2.8Z" style="fill:#8c9097"/><path d="M117,228.1h-1v-2.7h-2.8v-1h3.1a.8.8,0,0,1,.7.7Z" style="fill:#8c9097"/><path d="M117,237.9a.9.9,0,0,1-.7.8h-3.1v-1H116v-2.8h1Z" style="fill:#8c9097"/><path d="M106.5,238.7h-3a.8.8,0,0,1-.7-.8v-3h.9v2.8h2.8Z" style="fill:#8c9097"/><path d="M109.5,236.5h-4.3v-4.3h4.3Zm-3.3-1h2.4v-2.3h-2.4Z" style="fill:#8c9097"/><rect x="106.8" y="233.8" width="1.1" height="1.1" style="fill:#8c9097"/><rect x="112.4" y="233.8" width="1.1" height="1.1" style="fill:#8c9097"/><rect x="113.5" y="232.7" width="1.1" height="1.1" style="fill:#8c9097"/><rect x="111.3" y="232.7" width="1.1" height="1.1" style="fill:#8c9097"/><rect x="113.5" y="234.9" width="1.1" height="1.1" style="fill:#8c9097"/><rect x="111.3" y="234.9" width="1.1" height="1.1" style="fill:#8c9097"/><path d="M109.3,230.8H105v-4.3h4.3Zm-3.3-.9h2.3v-2.4H106Z" style="fill:#8c9097"/><rect x="106.6" y="228.1" width="1.1" height="1.1" style="fill:#8c9097"/><path d="M114.8,230.8h-4.3v-4.3h4.3Zm-3.3-.9h2.3v-2.4h-2.3Z" style="fill:#8c9097"/><rect x="112.1" y="228.1" width="1.1" height="1.1" style="fill:#8c9097"/><path d="M328.9,188a2.4,2.4,0,0,0,2.4,2.4h4.8v4.9h-6c-1.4,0-3.7-1.1-3.7-2.5,0,1.4-2.3,2.5-3.6,2.5h-6.1v-4.9h4.9A2.4,2.4,0,0,0,324,188V154.1a2.4,2.4,0,0,0-2.4-2.4h-4.9v-4.9h6.1c1.3,0,3.6,1.1,3.6,2.5,0-1.4,2.3-2.5,3.7-2.5h6v4.9h-4.8a2.4,2.4,0,0,0-2.4,2.4Z" style="fill:#8799ab"/><g style="opacity:0.30000000000000004;mix-blend-mode:multiply"><path d="M538.4,108.7h0l-3.7-4.4h0a3,3,0,0,0-2.3-1.1H395.8a3.6,3.6,0,0,0-3.3,3.8V214.1a4.5,4.5,0,0,0,.9,2.6h.1l3.6,4.2h.1a3,3,0,0,0,2.5,1.4H536.3c1.8,0,3.3-1.7,3.3-3.9v-107A3.7,3.7,0,0,0,538.4,108.7Z" style="fill:#586371"/></g><path d="M392.4,125.8H533.9a0,0,0,0,1,0,0v90.9a5.7,5.7,0,0,1-5.7,5.7H402.3a9.9,9.9,0,0,1-9.9-9.9V125.8A0,0,0,0,1,392.4,125.8Z" style="fill:#e1e7ec"/><path d="M408.8,148.2h-7.5a2,2,0,0,1-2-2v.5a2,2,0,0,0,2,2h7.5a2,2,0,0,0,2-2v-.5A2,2,0,0,1,408.8,148.2Z" style="fill:#ced6dd"/><path d="M421.8,148.2h-7.5a2,2,0,0,1-2-2v.5a2,2,0,0,0,2,2h7.5a2,2,0,0,0,2-2v-.5A2,2,0,0,1,421.8,148.2Z" style="fill:#ced6dd"/><path d="M434.8,148.2h-7.5a2,2,0,0,1-2-2v.5a2,2,0,0,0,2,2h7.5a2,2,0,0,0,2-2v-.5A2,2,0,0,1,434.8,148.2Z" style="fill:#ced6dd"/><path d="M447.8,148.2h-7.5a2,2,0,0,1-2-2v.5a2,2,0,0,0,2,2h7.5a2,2,0,0,0,2-2v-.5A2,2,0,0,1,447.8,148.2Z" style="fill:#ced6dd"/><path d="M460.8,148.2h-7.4a2,2,0,0,1-2-2v.5a2,2,0,0,0,2,2h7.4a2.1,2.1,0,0,0,2.1-2v-.5A2.1,2.1,0,0,1,460.8,148.2Z" style="fill:#ced6dd"/><path d="M473.9,148.2h-7.5a2,2,0,0,1-2-2v.5a2,2,0,0,0,2,2h7.5a2,2,0,0,0,2-2v-.5A2,2,0,0,1,473.9,148.2Z" style="fill:#ced6dd"/><path d="M486.9,148.2h-7.5a2,2,0,0,1-2-2v.5a2,2,0,0,0,2,2h7.5a2,2,0,0,0,2-2v-.5A2,2,0,0,1,486.9,148.2Z" style="fill:#ced6dd"/><path d="M499.9,148.2h-7.5a2,2,0,0,1-2-2v.5a2,2,0,0,0,2,2h7.5a2,2,0,0,0,2-2v-.5A2,2,0,0,1,499.9,148.2Z" style="fill:#ced6dd"/><path d="M512.9,148.2h-7.4a2.1,2.1,0,0,1-2.1-2v.5a2.1,2.1,0,0,0,2.1,2h7.4a2,2,0,0,0,2-2v-.5A2,2,0,0,1,512.9,148.2Z" style="fill:#ced6dd"/><path d="M525.9,148.2h-7.4a2,2,0,0,1-2-2v.5a2,2,0,0,0,2,2h7.4a2,2,0,0,0,2.1-2v-.5A2,2,0,0,1,525.9,148.2Z" style="fill:#ced6dd"/><path d="M408.8,133.2h-7.5a2,2,0,0,0-2,2v11a2,2,0,0,0,2,2h7.5a2,2,0,0,0,2-2v-11A2,2,0,0,0,408.8,133.2Z" style="fill:#fff"/><path d="M421.8,133.2h-7.5a2,2,0,0,0-2,2v11a2,2,0,0,0,2,2h7.5a2,2,0,0,0,2-2v-11A2,2,0,0,0,421.8,133.2Z" style="fill:#fff"/><path d="M434.8,133.2h-7.5a2,2,0,0,0-2,2v11a2,2,0,0,0,2,2h7.5a2,2,0,0,0,2-2v-11A2,2,0,0,0,434.8,133.2Z" style="fill:#fff"/><path d="M447.8,133.2h-7.5a2,2,0,0,0-2,2v11a2,2,0,0,0,2,2h7.5a2,2,0,0,0,2-2v-11A2,2,0,0,0,447.8,133.2Z" style="fill:#fff"/><path d="M460.8,133.2h-7.4a2,2,0,0,0-2,2v11a2,2,0,0,0,2,2h7.4a2.1,2.1,0,0,0,2.1-2v-11A2.1,2.1,0,0,0,460.8,133.2Z" style="fill:#fff"/><path d="M473.9,133.2h-7.5a2,2,0,0,0-2,2v11a2,2,0,0,0,2,2h7.5a2,2,0,0,0,2-2v-11A2,2,0,0,0,473.9,133.2Z" style="fill:#fff"/><path d="M486.9,133.2h-7.5a2,2,0,0,0-2,2v11a2,2,0,0,0,2,2h7.5a2,2,0,0,0,2-2v-11A2,2,0,0,0,486.9,133.2Z" style="fill:#fff"/><path d="M499.9,133.2h-7.5a2,2,0,0,0-2,2v11a2,2,0,0,0,2,2h7.5a2,2,0,0,0,2-2v-11A2,2,0,0,0,499.9,133.2Z" style="fill:#fff"/><path d="M512.9,133.2h-7.4a2.1,2.1,0,0,0-2.1,2v11a2.1,2.1,0,0,0,2.1,2h7.4a2,2,0,0,0,2-2v-11A2,2,0,0,0,512.9,133.2Z" style="fill:#fff"/><path d="M525.9,133.2h-7.4a2,2,0,0,0-2,2v11a2,2,0,0,0,2,2h7.4a2,2,0,0,0,2.1-2v-11A2,2,0,0,0,525.9,133.2Z" style="fill:#fff"/><path d="M415.4,167.7h-7.5a2,2,0,0,1-2-2v.6a2,2,0,0,0,2,2h7.5a2,2,0,0,0,2-2v-.6A2,2,0,0,1,415.4,167.7Z" style="fill:#ced6dd"/><path d="M428.4,167.7h-7.5a2,2,0,0,1-2-2v.6a2,2,0,0,0,2,2h7.5a2,2,0,0,0,2-2v-.6A2,2,0,0,1,428.4,167.7Z" style="fill:#ced6dd"/><path d="M441.4,167.7h-7.5a2,2,0,0,1-2-2v.6a2,2,0,0,0,2,2h7.5a2,2,0,0,0,2-2v-.6A2,2,0,0,1,441.4,167.7Z" style="fill:#ced6dd"/><path d="M454.4,167.7H447a2.1,2.1,0,0,1-2.1-2v.6a2.1,2.1,0,0,0,2.1,2h7.4a2,2,0,0,0,2-2v-.6A2,2,0,0,1,454.4,167.7Z" style="fill:#ced6dd"/><path d="M467.4,167.7H460a2,2,0,0,1-2-2v.6a2,2,0,0,0,2,2h7.4a2,2,0,0,0,2.1-2v-.6A2,2,0,0,1,467.4,167.7Z" style="fill:#ced6dd"/><path d="M480.5,167.7H473a2,2,0,0,1-2-2v.6a2,2,0,0,0,2,2h7.5a2,2,0,0,0,2-2v-.6A2,2,0,0,1,480.5,167.7Z" style="fill:#ced6dd"/><path d="M493.5,167.7H486a2,2,0,0,1-2-2v.6a2,2,0,0,0,2,2h7.5a2,2,0,0,0,2-2v-.6A2,2,0,0,1,493.5,167.7Z" style="fill:#ced6dd"/><path d="M506.5,167.7H499a2,2,0,0,1-2-2v.6a2,2,0,0,0,2,2h7.5a2,2,0,0,0,2-2v-.6A2,2,0,0,1,506.5,167.7Z" style="fill:#ced6dd"/><path d="M519.5,167.7h-7.4a2,2,0,0,1-2-2v.6a2,2,0,0,0,2,2h7.4a2,2,0,0,0,2-2v-.6A2,2,0,0,1,519.5,167.7Z" style="fill:#ced6dd"/><path d="M415.4,152.8h-7.5a2,2,0,0,0-2,2v10.9a2,2,0,0,0,2,2h7.5a2,2,0,0,0,2-2V154.8A2,2,0,0,0,415.4,152.8Z" style="fill:#fff"/><path d="M428.4,152.8h-7.5a2,2,0,0,0-2,2v10.9a2,2,0,0,0,2,2h7.5a2,2,0,0,0,2-2V154.8A2,2,0,0,0,428.4,152.8Z" style="fill:#fff"/><path d="M441.4,152.8h-7.5a2,2,0,0,0-2,2v10.9a2,2,0,0,0,2,2h7.5a2,2,0,0,0,2-2V154.8A2,2,0,0,0,441.4,152.8Z" style="fill:#fff"/><path d="M454.4,152.8H447a2.1,2.1,0,0,0-2.1,2v10.9a2.1,2.1,0,0,0,2.1,2h7.4a2,2,0,0,0,2-2V154.8A2,2,0,0,0,454.4,152.8Z" style="fill:#fff"/><path d="M467.4,152.8H460a2,2,0,0,0-2,2v10.9a2,2,0,0,0,2,2h7.4a2,2,0,0,0,2.1-2V154.8A2,2,0,0,0,467.4,152.8Z" style="fill:#fff"/><path d="M480.5,152.8H473a2,2,0,0,0-2,2v10.9a2,2,0,0,0,2,2h7.5a2,2,0,0,0,2-2V154.8A2,2,0,0,0,480.5,152.8Z" style="fill:#fff"/><path d="M493.5,152.8H486a2,2,0,0,0-2,2v10.9a2,2,0,0,0,2,2h7.5a2,2,0,0,0,2-2V154.8A2,2,0,0,0,493.5,152.8Z" style="fill:#fff"/><path d="M506.5,152.8H499a2,2,0,0,0-2,2v10.9a2,2,0,0,0,2,2h7.5a2,2,0,0,0,2-2V154.8A2,2,0,0,0,506.5,152.8Z" style="fill:#fff"/><path d="M519.5,152.8h-7.4a2,2,0,0,0-2,2v10.9a2,2,0,0,0,2,2h7.4a2,2,0,0,0,2-2V154.8A2,2,0,0,0,519.5,152.8Z" style="fill:#fff"/><path d="M428.6,187.5h-7.5a2,2,0,0,1-2-2v.6a2,2,0,0,0,2,2h7.5a2,2,0,0,0,2-2v-.6A2,2,0,0,1,428.6,187.5Z" style="fill:#ced6dd"/><path d="M441.6,187.5h-7.5a2,2,0,0,1-2-2v.6a2,2,0,0,0,2,2h7.5a2,2,0,0,0,2-2v-.6A2,2,0,0,1,441.6,187.5Z" style="fill:#ced6dd"/><path d="M454.6,187.5h-7.5a2,2,0,0,1-2-2v.6a2,2,0,0,0,2,2h7.5a2,2,0,0,0,2-2v-.6A2,2,0,0,1,454.6,187.5Z" style="fill:#ced6dd"/><path d="M467.6,187.5h-7.4a2,2,0,0,1-2-2v.6a2,2,0,0,0,2,2h7.4a2,2,0,0,0,2-2v-.6A2,2,0,0,1,467.6,187.5Z" style="fill:#ced6dd"/><path d="M480.7,187.5h-7.5a2,2,0,0,1-2-2v.6a2,2,0,0,0,2,2h7.5a2,2,0,0,0,2-2v-.6A2,2,0,0,1,480.7,187.5Z" style="fill:#ced6dd"/><path d="M493.7,187.5h-7.5a2,2,0,0,1-2-2v.6a2,2,0,0,0,2,2h7.5a2,2,0,0,0,2-2v-.6A2,2,0,0,1,493.7,187.5Z" style="fill:#ced6dd"/><path d="M506.7,187.5h-7.5a2,2,0,0,1-2-2v.6a2,2,0,0,0,2,2h7.5a2,2,0,0,0,2-2v-.6A2,2,0,0,1,506.7,187.5Z" style="fill:#ced6dd"/><path d="M414,187.2H402.6c-1.7,0-3-.9-3-2v.6c0,1.1,1.3,2,3,2H414c1.7,0,3.1-.9,3.1-2v-.6C417.1,186.3,415.7,187.2,414,187.2Z" style="fill:#ced6dd"/><path d="M524.6,187.5H513.2c-1.7,0-3.1-.9-3.1-2v.6c0,1.1,1.4,2,3.1,2h11.4c1.7,0,3.1-.9,3.1-2v-.6C527.7,186.6,526.3,187.5,524.6,187.5Z" style="fill:#ced6dd"/><path d="M525.2,206.5H513.8c-1.7,0-3.1-.9-3.1-2v.5c0,1.1,1.4,2,3.1,2h11.4c1.7,0,3-.9,3-2v-.5C528.2,205.6,526.9,206.5,525.2,206.5Z" style="fill:#ced6dd"/><path d="M414,206.5H402.6c-1.7,0-3-.9-3-2v.5c0,1.1,1.3,2,3,2H414c1.7,0,3.1-.9,3.1-2v-.5C417.1,205.6,415.7,206.5,414,206.5Z" style="fill:#ced6dd"/><path d="M428.3,206.5h-7.5a2,2,0,0,1-2-2v.5a2,2,0,0,0,2,2h7.5a2,2,0,0,0,2-2v-.5A2,2,0,0,1,428.3,206.5Z" style="fill:#ced6dd"/><path d="M441.2,206.5h-7.5a2,2,0,0,1-2-2v.5a2,2,0,0,0,2,2h7.5a2,2,0,0,0,2-2v-.5A2,2,0,0,1,441.2,206.5Z" style="fill:#ced6dd"/><path d="M506.1,206.5h-7.4a2.1,2.1,0,0,1-2.1-2v.5a2.1,2.1,0,0,0,2.1,2h7.4a2,2,0,0,0,2-2v-.5A2,2,0,0,1,506.1,206.5Z" style="fill:#ced6dd"/><path d="M493.5,206.5H447a2.1,2.1,0,0,1-2.1-2v.5a2.1,2.1,0,0,0,2.1,2h46.5a2,2,0,0,0,2-2v-.5A2,2,0,0,1,493.5,206.5Z" style="fill:#ced6dd"/><path d="M428.6,172.6h-7.5a2,2,0,0,0-2,2v10.9a2,2,0,0,0,2,2h7.5a2,2,0,0,0,2-2V174.6A2,2,0,0,0,428.6,172.6Z" style="fill:#fff"/><path d="M441.6,172.6h-7.5a2,2,0,0,0-2,2v10.9a2,2,0,0,0,2,2h7.5a2,2,0,0,0,2-2V174.6A2,2,0,0,0,441.6,172.6Z" style="fill:#fff"/><path d="M447.1,187.5h7.5a2,2,0,0,0,2-2V174.6a2,2,0,0,0-2-2h-7.5a2,2,0,0,0-2,2v10.9A2,2,0,0,0,447.1,187.5Z" style="fill:#fff"/><path d="M460.2,187.5h7.4a2,2,0,0,0,2-2V174.6a2,2,0,0,0-2-2h-7.4a2,2,0,0,0-2,2v10.9A2,2,0,0,0,460.2,187.5Z" style="fill:#fff"/><path d="M473.2,187.5h7.5a2,2,0,0,0,2-2V174.6a2,2,0,0,0-2-2h-7.5a2,2,0,0,0-2,2v10.9A2,2,0,0,0,473.2,187.5Z" style="fill:#fff"/><path d="M493.7,172.6h-7.5a2,2,0,0,0-2,2v10.9a2,2,0,0,0,2,2h7.5a2,2,0,0,0,2-2V174.6A2,2,0,0,0,493.7,172.6Z" style="fill:#fff"/><path d="M506.7,172.6h-7.5a2,2,0,0,0-2,2v10.9a2,2,0,0,0,2,2h7.5a2,2,0,0,0,2-2V174.6A2,2,0,0,0,506.7,172.6Z" style="fill:#fff"/><path d="M414,172.3H402.6c-1.7,0-3,.9-3,2v10.9c0,1.1,1.3,2,3,2H414c1.7,0,3.1-.9,3.1-2V174.3C417.1,173.2,415.7,172.3,414,172.3Z" style="fill:#bec8d2"/><path d="M524.6,187.5c1.7,0,3.1-.9,3.1-2V174.6c0-1.1-1.4-2-3.1-2H513.2c-1.7,0-3.1.9-3.1,2v10.9c0,1.1,1.4,2,3.1,2Z" style="fill:#bec8d2"/><path d="M525.2,191.5H513.8c-1.7,0-3.1.9-3.1,2v11c0,1.1,1.4,2,3.1,2h11.4c1.7,0,3-.9,3-2v-11C528.2,192.4,526.9,191.5,525.2,191.5Z" style="fill:#bec8d2"/><path d="M414,191.5H402.6c-1.7,0-3,.9-3,2v11c0,1.1,1.3,2,3,2H414c1.7,0,3.1-.9,3.1-2v-11C417.1,192.4,415.7,191.5,414,191.5Z" style="fill:#bec8d2"/><path d="M428.3,191.5h-7.5a2,2,0,0,0-2,2v11a2,2,0,0,0,2,2h7.5a2,2,0,0,0,2-2v-11A2,2,0,0,0,428.3,191.5Z" style="fill:#bec8d2"/><path d="M441.2,191.5h-7.5a2,2,0,0,0-2,2v11a2,2,0,0,0,2,2h7.5a2,2,0,0,0,2-2v-11A2,2,0,0,0,441.2,191.5Z" style="fill:#bec8d2"/><path d="M506.1,191.5h-7.4a2.1,2.1,0,0,0-2.1,2v11a2.1,2.1,0,0,0,2.1,2h7.4a2,2,0,0,0,2-2v-11A2,2,0,0,0,506.1,191.5Z" style="fill:#bec8d2"/><path d="M493.5,191.5H447a2.1,2.1,0,0,0-2.1,2v11a2.1,2.1,0,0,0,2.1,2h46.5a2,2,0,0,0,2-2v-11A2,2,0,0,0,493.5,191.5Z" style="fill:#fff"/><path d="M404.5,142.9a2.2,2.2,0,0,1-1.9-.8,2.7,2.7,0,0,1-.7-2,3.2,3.2,0,0,1,.7-2.2,2.6,2.6,0,0,1,2-.8,2.6,2.6,0,0,1,1.9.8,3.5,3.5,0,0,1,0,4.2l-.4.4,1.6,1.1h-1.2l-1.1-.8Zm0-5.2a1.7,1.7,0,0,0-1.4.7,2.1,2.1,0,0,0-.6,1.6,2.4,2.4,0,0,0,.6,1.7,1.7,1.7,0,0,0,1.4.6,2,2,0,0,0,1.5-.6,2.6,2.6,0,0,0,.5-1.7,2.9,2.9,0,0,0-.5-1.7A2,2,0,0,0,404.5,137.7Z" style="fill:#404040"/><path d="M421.8,137.5l-1.6,5.7h-.7l-1.2-4.1c0-.2-.1-.4-.1-.6h0c0,.2-.1.4-.1.6l-1.2,4.1h-.7l-1.7-5.7h.7l1.2,4.4a.7.7,0,0,1,.1.5h.1a1.1,1.1,0,0,1,.1-.5l1.2-4.4h.7l1.1,4.4a.7.7,0,0,1,.1.5h.1a1.1,1.1,0,0,1,.1-.5l1.1-4.4Z" style="fill:#404040"/><path d="M432.2,143.2h-3v-5.7h2.9v.6h-2.2V140h2v.6h-2v2h2.3Z" style="fill:#404040"/><path d="M446.5,143.2h-.8l-1-1.6a.8.8,0,0,0-.2-.4l-.3-.2-.2-.2h-.9v2.4h-.7v-5.7h2.4l.5.3a1,1,0,0,1,.4.5,1.9,1.9,0,0,1,0,1.2.8.8,0,0,1-.2.4.8.8,0,0,1-.4.4l-.5.2h.2l.2.2.2.3.2.3Zm-3.4-5.1v2.1h1.4l.3-.2.3-.3v-.5a.9.9,0,0,0-.3-.7c-.1-.2-.4-.3-.8-.3Z" style="fill:#404040"/><path d="M459.3,138.1h-1.7v5.1H457v-5.1h-1.6v-.6h3.9Z" style="fill:#404040"/><path d="M472,137.5l-1.9,3.6v2.1h-.7v-2.1l-1.8-3.6h.8l1.2,2.6.2.3h0v-.3l1.4-2.6Z" style="fill:#404040"/><path d="M485,140.9c0,1.5-.7,2.3-2.1,2.3s-2-.7-2-2.3v-3.4h.6v3.4c0,1.2.5,1.7,1.5,1.7s1.4-.5,1.4-1.6v-3.5h.6Z" style="fill:#404040"/><path d="M496.5,143.2h-.6v-5.7h.6Z" style="fill:#404040"/><path d="M509.2,143.3a2.8,2.8,0,0,1-2-.8,3.5,3.5,0,0,1,0-4.2,2.4,2.4,0,0,1,2-.8,2.4,2.4,0,0,1,1.9.7,3,3,0,0,1,.7,2.1,3.2,3.2,0,0,1-.7,2.2A2.6,2.6,0,0,1,509.2,143.3Zm0-5.3a1.7,1.7,0,0,0-1.4.7,2.4,2.4,0,0,0-.6,1.7,2.5,2.5,0,0,0,.5,1.6,1.8,1.8,0,0,0,1.5.7,1.7,1.7,0,0,0,1.4-.6,2.3,2.3,0,0,0,.5-1.7,2.2,2.2,0,0,0-.5-1.7A1.7,1.7,0,0,0,509.2,138Z" style="fill:#404040"/><path d="M521.6,141v2.2H521v-5.7h1.5a2,2,0,0,1,1.4.5,1.3,1.3,0,0,1,.5,1.2,1.7,1.7,0,0,1-.5,1.3,2,2,0,0,1-1.5.5Zm0-2.9v2.4h.7a1.8,1.8,0,0,0,1.1-.4,1.1,1.1,0,0,0,.3-.8c0-.8-.4-1.2-1.3-1.2Z" style="fill:#404040"/><path d="M414.1,163.1h-.8l-.6-1.6h-2.4l-.5,1.6H409l2.2-5.6h.7Zm-1.6-2.2-.9-2.4a.5.5,0,0,0-.1-.3h0a.4.4,0,0,1-.1.3l-.8,2.4Z" style="fill:#404040"/><path d="M422.9,162.9v-.8l.4.2.4.2h.8l.9-.2a.9.9,0,0,0,.3-.7v-.4l-.3-.3-.4-.2-.5-.3-.6-.3-.4-.4c-.2-.1-.3-.2-.3-.4a.7.7,0,0,1-.1-.5,1.5,1.5,0,0,1,.1-.7c.1-.2.3-.3.5-.5l.6-.2h.7c.6,0,1,0,1.2.2v.7a2.3,2.3,0,0,0-1.3-.3h-.4l-.4.2a.2.2,0,0,0-.2.2.8.8,0,0,0-.2.4c0,.2.1.3.1.4l.3.3.3.2.6.3.5.3a1,1,0,0,1,.5.4.5.5,0,0,1,.3.4,1.4,1.4,0,0,1,.2.6,1.4,1.4,0,0,1-.2.7l-.4.5-.7.2h-2.2Z" style="fill:#404040"/><path d="M435.5,163.1v-5.6h1.6q3,0,3,2.7a2.6,2.6,0,0,1-.9,2.1,3.1,3.1,0,0,1-2.2.8Zm.7-5v4.4h.8a2.6,2.6,0,0,0,1.8-.6,2.2,2.2,0,0,0,.6-1.7c0-1.4-.8-2.1-2.3-2.1Z" style="fill:#404040"/><path d="M451.8,158.1h-2.2V160h2v.6h-2v2.5h-.7v-5.6h2.9Z" style="fill:#404040"/><path d="M466.2,162.7a3.5,3.5,0,0,1-1.8.5,2.8,2.8,0,0,1-2-.8,2.7,2.7,0,0,1-.7-2,2.8,2.8,0,0,1,2.9-3,3.3,3.3,0,0,1,1.5.3v.7a2.7,2.7,0,0,0-1.6-.4,2,2,0,0,0-1.5.6,2.5,2.5,0,0,0-.6,1.7,2.3,2.3,0,0,0,.5,1.7,2,2,0,0,0,1.5.6,2.1,2.1,0,0,0,1.2-.3v-1.5h-1.2v-.6h1.8Z" style="fill:#404040"/><path d="M478.7,163.1H478v-2.6h-2.9v2.6h-.6v-5.6h.6v2.4H478v-2.4h.7Z" style="fill:#404040"/><path d="M491.1,161a3.4,3.4,0,0,1-.4,1.6,1.3,1.3,0,0,1-1.2.5H489v-.7l.5.2c.6,0,.9-.5.9-1.6v-3.6h.7Z" style="fill:#404040"/><path d="M505,163.1h-.9l-2.1-2.6-.2-.2h0v2.8h-.7v-5.6h.7v2.6h0l.2-.2,2.1-2.4h.8l-2.4,2.7Z" style="fill:#404040"/><path d="M518.5,163.1h-2.9v-5.6h.6v5h2.3Z" style="fill:#404040"/><path d="M427,177.1l-3.3,4.9h3.2v.6h-4.2v-.2l3.3-4.9h-3v-.6h4Z" style="fill:#404040"/><path d="M440.2,182.6h-.8l-1.3-2.2-.2-.3h0v.3l-1.4,2.2h-.8l1.9-2.9-1.7-2.8h.8l1.1,2a.8.8,0,0,1,.2.4h.1a.5.5,0,0,1,.2-.4l1.2-2h.7l-1.7,2.8Z" style="fill:#404040"/><path d="M452.7,182.3a2.9,2.9,0,0,1-3.5-.4,2.7,2.7,0,0,1-.7-2,3.1,3.1,0,0,1,.8-2.2,2.7,2.7,0,0,1,2.1-.9,2.5,2.5,0,0,1,1.3.3v.7a2.8,2.8,0,0,0-1.3-.4,2.2,2.2,0,0,0-1.6.7,2.7,2.7,0,0,0,0,3.4,1.7,1.7,0,0,0,1.4.6,3.3,3.3,0,0,0,1.5-.4Z" style="fill:#404040"/><path d="M465.9,176.9l-2.1,5.7h-.7l-2.1-5.7h.8l1.5,4.5a.7.7,0,0,1,.1.5h.1a.9.9,0,0,1,.1-.5l1.6-4.5Z" style="fill:#404040"/><path d="M475.3,182.6v-5.7h1.6a2.1,2.1,0,0,1,1.2.4,1,1,0,0,1,.4.9,1.6,1.6,0,0,1-.3.9,1.3,1.3,0,0,1-.7.5h0a1.3,1.3,0,0,1,.9.4,1.2,1.2,0,0,1,.4,1,1.6,1.6,0,0,1-.5,1.1,2.1,2.1,0,0,1-1.3.5Zm.7-5.1v1.9h.6a1.2,1.2,0,0,0,.9-.3.9.9,0,0,0,.3-.7c0-.6-.3-.9-1.1-.9Zm0,2.4V182h.9a1.2,1.2,0,0,0,.9-.3,1,1,0,0,0,.3-.8c0-.6-.5-1-1.4-1Z" style="fill:#404040"/><path d="M492.2,182.6h-.8l-2.9-4.5c-.1-.1-.1-.3-.2-.4h0v4.9h-.6v-5.7h.8l2.9,4.5c.1.1.1.3.2.3h0v-4.8h.6Z" style="fill:#404040"/><path d="M505.5,182.6h-.7v-3.8a4.5,4.5,0,0,1,.1-1.1h0l-.2.5-1.9,4.4h-.4l-1.9-4.3c0-.2-.1-.3-.2-.6h0a3.1,3.1,0,0,1,.1,1.1v3.8h-.7v-5.7h.9l1.7,4c.2.3.2.5.3.6h0l.3-.7,1.7-3.9h.9Z" style="fill:#404040"/><path d="M402.5,200.6a.4.4,0,0,1-.1-.3v-.2c0-.2,0-.3.1-.4l.2-.3.2-.3.3-.3.2-.3a.4.4,0,0,0,.1-.3v-.3l-.2-.2h-.5a1.4,1.4,0,0,0-1,.5v-.6a1.9,1.9,0,0,1,1-.3h.5l.4.2.3.4v.8l-.3.4-.2.3-.3.3-.2.2a.6.6,0,0,0-.1.4v.5Zm.3,1.3h-.3c-.1,0-.1-.1-.1-.2a.4.4,0,0,1,.1-.3h.5a.4.4,0,0,1,.1.3c0,.1,0,.2-.1.2Z" style="fill:#404040"/><path d="M406.8,201.9h-.6v-4.1H406l-.2.2h-.7v-.5h.4l.4-.2.4-.2.3-.3h.2Z" style="fill:#404040"/><path d="M410.6,198.4c0-.2-.1-.3-.1-.4l-.2-.3h-1.2l-.3.2a.2.2,0,0,0-.2.2v-.6l.5-.3h1.2a.5.5,0,0,1,.4.2l.3.4a.9.9,0,0,1,.1.5.7.7,0,0,1-.1.5c0,.2-.1.3-.2.5l-.3.4-.4.3-.6.4c-.1.2-.3.3-.3.4l-.2.2v.4h2.4v.5h-2.9v-.8l.3-.4.4-.5.6-.4.4-.4.3-.3v-.3C410.5,198.6,410.6,198.5,410.6,198.4Z" style="fill:#404040"/><path d="M414.8,200.5c0,.2-.1.4-.1.6l-.4.5-.5.2-.7.2a1.5,1.5,0,0,1-1-.3v-.6a1.3,1.3,0,0,0,1,.4h.5l.3-.2.3-.2v-.4c0-.6-.4-.9-1.3-.9h-.4v-.5h.4q1.2,0,1.2-.9c0-.5-.3-.8-.9-.8a1.3,1.3,0,0,0-1,.4v-.6l1.1-.2h.5l.5.2.2.3a.9.9,0,0,1,.1.5,1.2,1.2,0,0,1-.9,1.2h.4l.4.3.2.3A.6.6,0,0,1,414.8,200.5Z" style="fill:#404040"/><path d="M438,200.5l-.6,1.9h-.5l.5-1.9Z" style="fill:#404040"/><path d="M502.5,202.6h-.3c-.1-.1-.2-.2-.2-.3a.5.5,0,0,1,.2-.4h.6c.1.1.1.2.1.4a.4.4,0,0,1-.1.3Z" style="fill:#404040"/><path d="M422.2,201.1h0a3.3,3.3,0,0,1-.6-1.9,3.1,3.1,0,0,1,.5-1.8h.1a2.3,2.3,0,0,0,1.5.7h.1c0,.3-.1.7-.1,1s.1.9.1,1.3h0a2.7,2.7,0,0,0-1.6.6Zm0-3.5a2.4,2.4,0,0,0-.5,1.6,2.6,2.6,0,0,0,.5,1.7,3.7,3.7,0,0,1,1.5-.5c0-.4-.1-.9-.1-1.3a2.8,2.8,0,0,1,.1-.9A3.1,3.1,0,0,1,422.2,197.6Z" style="fill:#404040"/><path d="M424.3,202.3Z" style="fill:#404040"/><path d="M425,202.3h0Z" style="fill:#404040"/><path d="M427.1,201h0a4.3,4.3,0,0,0-1.6-.5h0v-2.3h0a2.4,2.4,0,0,0,1.6-.6h.1a3.4,3.4,0,0,1,.5,1.7,3.5,3.5,0,0,1-.5,1.8Zm-1.5-.6a2.6,2.6,0,0,1,1.5.5,3.4,3.4,0,0,0,.5-1.7,3,3,0,0,0-.5-1.6,2.3,2.3,0,0,1-1.5.6v2.2Z" style="fill:#404040"/><path d="M425,202.3h0a5.6,5.6,0,0,0,.5-1.8h0a4.3,4.3,0,0,1,1.7.5h0a4.1,4.1,0,0,1-1.9,1.3H425Zm.6-1.8a5.8,5.8,0,0,1-.5,1.7h.1a2.9,2.9,0,0,0,1.9-1.1A3,3,0,0,0,425.6,200.5Z" style="fill:#404040"/><path d="M424.3,202.3h-.4a2.5,2.5,0,0,1-1.7-1.1c-.1-.1-.1-.1,0-.1a2.4,2.4,0,0,1,1.6-.6h0a5.6,5.6,0,0,0,.5,1.8h0Zm-.3-.2h.2a4.3,4.3,0,0,1-.5-1.6,2.7,2.7,0,0,0-1.4.5A2.5,2.5,0,0,0,424,202.1Z" style="fill:#404040"/><path d="M424.6,202.3h0Z" style="fill:#404040"/><path d="M423.8,200.5h-.1c0-.4-.1-.8-.1-1.3a3.4,3.4,0,0,1,.1-1h1.9v2.3h-1.8Zm0-2.3c0,.3-.1.6-.1.9s.1.9.1,1.3h1.7v-2.2h-1.7Z" style="fill:#404040"/><path d="M424.7,202.3h-.4c-.1,0-.1,0-.1-.1a4.9,4.9,0,0,1-.5-1.8h1.9a4.9,4.9,0,0,1-.5,1.8h-.4Zm-.4-.1h.7a3.9,3.9,0,0,0,.4-1.7h-1.6A5.8,5.8,0,0,0,424.3,202.2Z" style="fill:#404040"/><path d="M425.5,198.2h0a6.9,6.9,0,0,0-.4-1.8h.1a3,3,0,0,1,2,1.3h0a3,3,0,0,1-1.6.6Zm-.3-1.9a6.9,6.9,0,0,1,.4,1.8,2.6,2.6,0,0,0,1.5-.6A3.5,3.5,0,0,0,425.2,196.3Z" style="fill:#404040"/><path d="M423.7,198.2h0a2.7,2.7,0,0,1-1.6-.7h0a3.2,3.2,0,0,1,2-1.2h.1a4.4,4.4,0,0,0-.4,1.8h-.1Zm-1.5-.7a3.6,3.6,0,0,0,1.5.6,7.4,7.4,0,0,1,.3-1.8A3.6,3.6,0,0,0,422.2,197.5Z" style="fill:#404040"/><path d="M424.7,198.3h-1a4.9,4.9,0,0,1,.4-1.9h1.1a7.8,7.8,0,0,1,.4,1.9h-.9Zm-.9-.2h1.7a6.9,6.9,0,0,0-.4-1.8h-.9A6,6,0,0,0,423.8,198.1Z" style="fill:#404040"/><rect x="421.6" y="199.1" width="6.1" height="0.13" style="fill:#404040"/><rect x="424.6" y="196.2" width="0.1" height="6.07" transform="translate(-0.8 1.7) rotate(-0.2)" style="fill:#404040"/><line x1="408.1" y1="178.9" x2="408.1" y2="182.9" style="fill:none;stroke:#404040;stroke-miterlimit:10;stroke-width:1.33829696040741px"/><polygon points="410.7 179.2 405.4 179.2 408.1 176.5 410.7 179.2" style="fill:#404040"/><polygon points="522.9 177.3 522.9 182.7 516.7 182.7 513.7 180 516.7 177.3 522.9 177.3" style="fill:#404040"/><polyline points="523.9 196.5 524 200 517.2 200.1" style="fill:none;stroke:#404040;stroke-miterlimit:10;stroke-width:0.217215663547993px"/><polygon points="517.5 202.6 517.5 197.6 515 200.1 517.5 202.6" style="fill:#404040"/><path d="M521.4,181.2h-.3l-.6-.9h0c0,.1,0,.1-.1.1l-.5.9h-.4l.8-1.1-.7-1.2h.3l.5.8c0,.1.1.1.1.2h0c0-.1.1-.1.1-.2l.5-.8h.3l-.7,1.2Z" style="fill:#fff"/><rect x="392.5" y="103.5" width="141.1" height="23.88" style="fill:#e1e7ec"/><rect x="427.7" y="109.8" width="13.2" height="2.8" style="fill:#454b4e"/><rect x="481.5" y="109.8" width="13.6" height="2.8" style="fill:#454b4e"/><rect x="455.8" y="109.8" width="13.7" height="2.67" style="fill:#454b4e"/><path d="M518.4,113.1h-.3l-2-2.1a.2.2,0,0,1,0-.3c0-.1.1-.1.2,0l2,2,1.9-2a.2.2,0,1,1,.3.3Z" style="fill:#454b4e"/><path d="M409,115.4a3.7,3.7,0,0,1-2.7-3.6,3.9,3.9,0,0,1,2.3-3.5" style="fill:none;stroke:#454b4e;stroke-miterlimit:10;stroke-width:0.286757681414923px"/><polygon points="408.4 109.1 408.3 109 408.5 108.4 407.9 108.2 407.9 108 408.7 108.3 408.4 109.1" style="fill:#454b4e"/><path d="M411.2,108.2a3.8,3.8,0,0,1,2.6,3.6,3.7,3.7,0,0,1-2.3,3.5" style="fill:none;stroke:#454b4e;stroke-miterlimit:10;stroke-width:0.286757681414923px"/><polygon points="411.7 114.5 411.8 114.6 411.5 115.2 412.2 115.5 412.1 115.6 411.3 115.3 411.7 114.5" style="fill:#454b4e"/><circle cx="409" cy="110.8" r="0.3" style="fill:#454b4e"/><circle cx="411.2" cy="110.8" r="0.3" style="fill:#454b4e"/><path d="M408.7,111.7a1.3,1.3,0,0,0,1.4,1.2h0a1.2,1.2,0,0,0,1.3-1.2" style="fill:none;stroke:#454b4e;stroke-miterlimit:10;stroke-width:0.286757681414923px"/><path d="M259.9,175.6H249.7l-1.9,2.1-2.1,2.1-1.7,1.7-1.2,1.2-3.6,3.4a8,8,0,0,1-1.7,1.5,3.4,3.4,0,0,1-1.7.7c-.6,0-.9-.3-.9-.8a6.3,6.3,0,0,1,1.3-2.7,16.9,16.9,0,0,1,2.8-3.2,4,4,0,0,1,2.5-1.3l.7.2,4.7-5h-2.3l-1.9-.2a.9.9,0,0,1-.5-.9c0-.7.7-1.8,2.3-3.3a5.4,5.4,0,0,1,2.3-1.6,23.7,23.7,0,0,1,4.1-.4l-2.6.6a1.3,1.3,0,0,0-.8,1h4.3c2.7-2.7,5.2-4.9,7.4-6.9s4.5-3.8,6.9-5.5a73.6,73.6,0,0,1,7.8-4.8,3.7,3.7,0,0,1,.8,2.2,5.2,5.2,0,0,1-.6,2.2c-.4.9-1.3,2.4-2.7,4.7l-4.1,7.4h3.8c.2,0,.3.2.3.4a1.3,1.3,0,0,1-.3.7l-1.4,1.7-1.9,2.4-3.6.3c-1.9,3.6-2.8,5.6-2.8,6.1a.9.9,0,0,0,1,1c.4,0,1.8-.7,4.3-2.2l-.2,1.3-3.1,2.4-2,1.5a5.5,5.5,0,0,1-1.5.8,3.1,3.1,0,0,1-1.3.3,2.1,2.1,0,0,1-1.6-.7,2.6,2.6,0,0,1-.8-2.2,4.5,4.5,0,0,1,.4-1.6l.9-2Zm-4.6-5.5,7.9-.2,2.3-3.9c.6-.9,1.2-2,1.9-3.2l1.8-2.9,1.7-2.7-3.6,2.4a49.7,49.7,0,0,0-4.2,3.3l-4.1,3.5Z"/><path d="M286.9,173.6c-2.9,3.2-4.3,5.4-4.3,6.7s.3,1,.8,1a3.7,3.7,0,0,0,1.9-.7,40.7,40.7,0,0,0,3.6-2.7v1.7c-2.4,2.3-4.1,4-5.4,5a5.2,5.2,0,0,1-3,1.5c-1.4,0-2-.9-2-2.7a3.9,3.9,0,0,1,.2-1.5l.7-1.6,1.3-2.3,2-3.5a14,14,0,0,0-3.5,2.8,25.1,25.1,0,0,0-2.3,2.5c-.7.8-1.3,1.7-2.1,2.7a12.6,12.6,0,0,1-1.6,1.9,1.1,1.1,0,0,1-1,.5c-.5,0-1-.5-1.4-1.6a9.2,9.2,0,0,1-.7-3.8,6.9,6.9,0,0,1,.3-2.2,12.8,12.8,0,0,1,1.2-2.1,23.8,23.8,0,0,1,3-3.8,3.5,3.5,0,0,1,2.3-1.2,2.5,2.5,0,0,1,1.3.2,1.1,1.1,0,0,1,.5.9l-.2.5-.3.5-.8.8c-2.6,2.9-3.9,4.7-3.9,5.6s.2.7.5.7.6-.3,1.1-.9l2.2-2.5c.9-1,2-2.1,3.2-3.2a34.3,34.3,0,0,1,4.1-3.2,4.2,4.2,0,0,1,2.2-.9c.3,0,.5.3.8,1a9.3,9.3,0,0,1,.4,2.2C288,172.3,287.6,172.8,286.9,173.6Z"/><path d="M300,178.1l-3.9,4.1-2.8,2.6a3.1,3.1,0,0,1-1.5.9c-.4,0-.9-.4-1.4-1.1A10.5,10.5,0,0,1,289,182a12.6,12.6,0,0,1-.5-3.3c0-1.5.8-3.1,2.3-4.8a22.5,22.5,0,0,1,5.2-4,12.1,12.1,0,0,1,4.5-1.6,2.9,2.9,0,0,1,2.3,1.6c1.3-2.7,2.5-5,3.6-7.1a45.5,45.5,0,0,1,2.9-4.5c.8-1,1.3-1.5,1.6-1.5a1.1,1.1,0,0,1,1,.5,1.7,1.7,0,0,1,.5,1.2c0,.8-.6,2.3-1.9,4.4l-3.7,6c-1.2,2-2.2,3.9-3.1,5.8a12.5,12.5,0,0,0-1.3,5.3c0,1.5.5,2.2,1.4,2.2a4.2,4.2,0,0,0,2.2-.9c.9-.7,2.1-1.8,3.7-3.3v1.8c-3.5,4.6-6.3,6.9-8.2,6.9a1.7,1.7,0,0,1-1.6-.9,5,5,0,0,1-.5-2.7A23.4,23.4,0,0,1,300,178.1Zm1.8-6a30.9,30.9,0,0,0-5.2,2.3,22.4,22.4,0,0,0-3.5,2.3,3.7,3.7,0,0,0-1,1.8,6.8,6.8,0,0,0-.4,2.1,1.9,1.9,0,0,0,.2.7l.7.2a1.1,1.1,0,0,0,.7-.3l1.5-1.1L296,179l1.9-1.6,2.1-1.9a9.1,9.1,0,0,0,1.1-1.6A7.5,7.5,0,0,0,301.8,172.1Z"/><path d="M309.5,179.9v-1.6a30.7,30.7,0,0,0,2-2.7l-1.2-.6a2.1,2.1,0,0,1-.3-1.2,4.6,4.6,0,0,1,.7-2.2,15.1,15.1,0,0,1,1.8-2.6,5.7,5.7,0,0,1,2-1.5l.7-.2a.5.5,0,0,1,.5.5,5.5,5.5,0,0,1-.8,1.7c3.4-.5,5.5-.8,6.4-.8h.7c.3.1.5.5.7,1a5.1,5.1,0,0,1,.3,1.7,2.1,2.1,0,0,1-.5,1.1,11.1,11.1,0,0,1-1.6,1.7,15.4,15.4,0,0,0-2.1,3.1,5.8,5.8,0,0,0-.9,2.5c0,.7.4,1.1,1.4,1.1s2.7-1,5.2-3v1.6l-3.4,3.4-2.4,1.9a4,4,0,0,1-2,.8,2.4,2.4,0,0,1-1.8-1,4.9,4.9,0,0,1-.6-2.7,5.7,5.7,0,0,1,.5-2.4,22.5,22.5,0,0,1,1.6-3l2.3-3.1-1.5.3-1.8.3-1.5.3A17.5,17.5,0,0,1,309.5,179.9Z"/></g></g></svg>