<svg xmlns="http://www.w3.org/2000/svg" xmlns:xlink="http://www.w3.org/1999/xlink" viewBox="0 0 600 350"><defs><clipPath id="a"><rect width="600" height="350" style="fill:none"/></clipPath></defs><g style="isolation:isolate"><g style="clip-path:url(#a)"><path d="M407.8,338.5,419.2,60.6,166.5,13.9,158.1,218c-1.6,40.8,28,79.4,65,86.3" style="fill:#e9f5ff"/><path d="M251.9,301.6l182.7,33.9" style="fill:#e9f5ff"/><g style="opacity:0.30000000000000004;mix-blend-mode:multiply"><path d="M509.2,88.6h0l-10.3-8.9h0a9.6,9.6,0,0,0-6.5-2.3H112.8c-5.1,0-9.1,3.5-9.1,7.8V303.3a7.1,7.1,0,0,0,2.5,5.4h.2l10,8.5h.1a.1.1,0,0,0,.1.1h0a9.9,9.9,0,0,0,7,2.8H503.3c5,0,9.1-3.6,9.1-7.9V94.6A7.6,7.6,0,0,0,509.2,88.6Z" style="fill:#ced5dc"/></g><rect x="102.9" y="77.7" width="399.6" height="226.53" rx="5.2" style="fill:#fff"/><path d="M497.3,77.8a5.1,5.1,0,0,1,5.1,5V299a5.1,5.1,0,0,1-5.1,5.1H108.1a5,5,0,0,1-5-5.1V82.8a5,5,0,0,1,5-5H497.3m0-.3H108.1a5.4,5.4,0,0,0-5.4,5.3V299a5.4,5.4,0,0,0,5.4,5.4H497.3a5.4,5.4,0,0,0,5.4-5.4V82.8a5.4,5.4,0,0,0-5.4-5.3Z" style="fill:#dfe4e9"/><rect x="102.4" y="90" width="114.8" height="182.19" style="fill:#f8f9fa"/><path d="M108.3,77.8H497.5a4.9,4.9,0,0,1,4.9,4.9v25.5a0,0,0,0,1,0,0H103.1a0,0,0,0,1,0,0V83.1A5.3,5.3,0,0,1,108.3,77.8Z" style="fill:#f8f9fa"/><path d="M130.5,209.4H117.9v-1.2h12.6v1.2m-10-2.9-.9-.9.9-.9-.4-.4-.9.9-.9-.9-.4.4.8.9-.8.9.4.4.9-.9.9.9.4-.4m9-9,.8,2.8h-.7a7.4,7.4,0,0,0-.8-1.3,1.5,1.5,0,0,0-1.2-.4H126v6.7c0,.3,0,.6.2.7h1.1v.7h-3.8v-.7h1.1c.2-.1.2-.4.2-.7v-6.7h-1.6a1.5,1.5,0,0,0-1.1.3,3.1,3.1,0,0,0-.9,1.4l-.6-.2.7-2.7Z" style="fill:#8c9097"/><path d="M131.8,234.9H117.6v-1.4h14.2v1.4m-11.2-3.3-1-1,1-1-.5-.5-1,1-1-1-.5.5,1,1-1,1,.5.5,1-1,1,1,.5-.5m9.8-8.7h-7.1a1.5,1.5,0,0,0-1.5,1.4v6.4a1.5,1.5,0,0,0,1.5,1.4h7.1a1.5,1.5,0,0,0,1.4-1.4v-6.4a1.4,1.4,0,0,0-1.4-1.4m-7.1,7.8,1.8-2.4,1.3,1.6,1.7-2.4,2.3,3.2Zm2-5.3a1.1,1.1,0,0,1-1,1.1,1,1,0,0,1-1.1-1.1,1,1,0,0,1,1.1-1A1.1,1.1,0,0,1,125.3,225.4Z" style="fill:#e11e19"/><path d="M130.3,186.4H116.8V185h13.5v1.4m-10.7-3.2-.4.5-1-1-.9,1-.5-.5.9-1-.9-.9.5-.5.9,1,1-1,.4.5-.9.9.9,1m3.4-2.5c-.2.6-.7,2.5-1.4,2.9s-1.1-.4-1-.9,2.3-4.5,2.8-5.7,1-3.9,1.8-4.1,1.5.5.5,1.4a44.9,44.9,0,0,0,2,6.6c1.5,3.9,1.7.5,2.6,1.4s-.7,3-2.5,1.2a5.1,5.1,0,0,1-.9-1.4,5.4,5.4,0,0,1-.5-1.6,9.6,9.6,0,0,0-2.6.8C123.2,181.5,122.7,181.4,123,180.7Zm3-1.7c-.1-.3-.3-1.4-.8-3.1a.8.8,0,0,1-.1-.4l-1.5,4.1h.6l1.3-.4Z" style="fill:#8c9097"/><rect x="118.3" y="151.4" width="78.2" height="3.8" rx="1" style="fill:#8c9097"/><rect x="138" y="203.8" width="33.6" height="3.04" rx="1" style="fill:#8c9097"/><rect x="235.2" y="234.2" width="82" height="3.04" rx="1" style="fill:#8c9097"/><rect x="139.3" y="227.4" width="33.6" height="3.04" rx="1" style="fill:#e11e19"/><rect x="138" y="257" width="33.6" height="3.04" rx="1" style="fill:#8c9097"/><rect x="118.3" y="124.1" width="78.2" height="3.8" rx="1" style="fill:#8c9097"/><rect x="245.8" y="257" width="147.2" height="3.04" rx="1" style="fill:#555b64"/><rect x="385.5" y="287.3" width="43.5" height="3.04" rx="1" style="fill:#555b64"/><rect x="442.4" y="287.3" width="51.6" height="3.04" rx="1" style="fill:#555b64"/><rect x="233.1" y="93" width="84" height="3.04" rx="1" style="fill:#555b64"/><rect x="138" y="179.5" width="33.6" height="3.04" rx="1" style="fill:#8c9097"/><rect x="232.1" y="252.4" width="10.6" height="10.63" rx="1" style="fill:#e11e19"/><path d="M236,261.2l-2.7-2.8,1.2-1.2,1.5,1.5,4.4-4.4,1.2,1.3Z" style="fill:#fff"/><rect x="103.1" y="107.9" width="399.3" height="0.63" style="fill:#dfe4e9"/><rect x="303.5" y="74.8" width="0.6" height="397.02" transform="translate(30 576.6) rotate(-89.9)" style="fill:#dfe4e9"/><rect x="217.4" y="107.4" width="0.6" height="165.49" style="fill:#dfe4e9"/><rect x="103.8" y="137.5" width="113.9" height="0.63" style="fill:#dfe4e9"/><rect x="235.9" y="222.5" width="250.5" height="0.63" style="fill:#dfe4e9"/><path d="M495.8,298.3H440.6a1.6,1.6,0,0,1-1.6-1.6V279.5a1.6,1.6,0,0,1,1.6-1.6h55.2a1.6,1.6,0,0,1,1.6,1.6v17.2A1.6,1.6,0,0,1,495.8,298.3Zm-55.2-19.7a.9.9,0,0,0-.9.9v17.2a1,1,0,0,0,.9,1h55.2a1,1,0,0,0,.9-1V279.5a.9.9,0,0,0-.9-.9Z" style="fill:#555b64"/><path d="M464.1,90.3c-.2-.5-.6-.6-.9-.9s-.1-.8-.6-1.2-.9-.1-1.2-.2-.7-.5-1.2-.5-.8.4-1.2.5-.8-.1-1.2.2-.5.8-.7,1.2-.7.4-.8.9.1.9.1,1.3-.3.7-.1,1.3.6.6.8.9.2.8.7,1.1.8.2,1.2.3.6.5,1.2.5.8-.4,1.2-.5.8.1,1.2-.3.4-.8.6-1.1.7-.4.9-.9-.1-.9-.1-1.3.3-.8.1-1.3m-3.9,4a2.8,2.8,0,0,1-2.8-2.7,2.9,2.9,0,0,1,2.8-2.8,2.8,2.8,0,0,1,2.7,2.8,2.7,2.7,0,0,1-2.7,2.7m1.4-2.7a1.4,1.4,0,0,1-1.4,1.4,1.4,1.4,0,1,1,0-2.8,1.4,1.4,0,0,1,1.4,1.4m-.2,5.2-.5,2.5-.5,2.8-1.8-1.7-2.2,1,.9-5.2a2.8,2.8,0,0,0,1.3.3l.9.5h.7a2.7,2.7,0,0,0,1.2-.3m2.9,2.2-1.8-.6.3-2,.6-.4h.1Z" style="fill:#555b64"/><path d="M427.5,88.3a6,6,0,0,0-6,6,6.1,6.1,0,0,0,6,6.1,1,1,0,0,0,1-1.1.7.7,0,0,0-.3-.6,1.4,1.4,0,0,1-.2-.7.9.9,0,0,1,1-1h1.2a3.4,3.4,0,0,0,3.3-3.4C433.5,90.7,430.8,88.3,427.5,88.3Zm-3.7,6a1,1,0,0,1,0-2,1,1,0,0,1,0,2Zm2-2.7a1,1,0,0,1-1-1,1.1,1.1,0,0,1,1-1,1,1,0,0,1,1,1A.9.9,0,0,1,425.8,91.6Zm3.4,0a.9.9,0,0,1-1-1,1,1,0,0,1,1-1,1.1,1.1,0,0,1,1,1A1,1,0,0,1,429.2,91.6Zm2,2.7a1,1,0,1,1,1-1A.9.9,0,0,1,431.2,94.3Z" style="fill:#555b64"/><path d="M490.4,89.6a5.4,5.4,0,0,1,4.1.7,5.3,5.3,0,0,1,1.7,7.4,5.3,5.3,0,0,1-9.6-4.4l1.2.7a4,4,0,0,0,1.8,4.3,4.1,4.1,0,0,0,5.5-1.3,4.1,4.1,0,0,0-1.3-5.6,3.6,3.6,0,0,0-3-.4l.7,2.9-4-2.4,2.4-4Z" style="fill:#555b64"/><path d="M202.3,231.4h36.5v36.5H202.3Z" style="fill:none"/><path d="M120,251.8h-1v-3a.7.7,0,0,1,.7-.7h3v1H120Z" style="fill:#8c9097"/><path d="M133.2,251.8h-1v-2.7h-2.7v-1h3a.7.7,0,0,1,.7.7Z" style="fill:#8c9097"/><path d="M133.2,261.6a.7.7,0,0,1-.7.7h-3.1v-.9h2.8v-2.8h1Z" style="fill:#8c9097"/><path d="M122.7,262.3h-3a.7.7,0,0,1-.7-.7v-3h1v2.8h2.7Z" style="fill:#8c9097"/><path d="M125.8,260.2h-4.3v-4.3h4.3Zm-3.3-1h2.3v-2.3h-2.3Z" style="fill:#8c9097"/><rect x="123.1" y="257.5" width="1.1" height="1.1" style="fill:#8c9097"/><rect x="128.6" y="257.5" width="1.1" height="1.1" style="fill:#8c9097"/><rect x="129.7" y="256.4" width="1.1" height="1.1" style="fill:#8c9097"/><rect x="127.5" y="256.4" width="1.1" height="1.1" style="fill:#8c9097"/><rect x="129.7" y="258.6" width="1.1" height="1.1" style="fill:#8c9097"/><rect x="127.5" y="258.6" width="1.1" height="1.1" style="fill:#8c9097"/><path d="M125.5,254.5h-4.3v-4.3h4.3Zm-3.3-1h2.3v-2.3h-2.3Z" style="fill:#8c9097"/><rect x="122.8" y="251.8" width="1.1" height="1.1" style="fill:#8c9097"/><path d="M131,254.5h-4.3v-4.3H131Zm-3.3-1h2.4v-2.3h-2.4Z" style="fill:#8c9097"/><rect x="128.3" y="251.8" width="1.1" height="1.1" style="fill:#8c9097"/><path d="M323.6,59.6h0l-7-6.1h0a7.1,7.1,0,0,0-4.4-1.5H55c-3.4,0-6.2,2.4-6.2,5.3V205a5,5,0,0,0,1.7,3.7h.2l6.7,5.7h.2a6.3,6.3,0,0,0,4.7,1.9H319.6c3.4,0,6.1-2.4,6.1-5.3V63.6A4.9,4.9,0,0,0,323.6,59.6Z" style="fill:#ced5dc"/><rect x="48.3" y="52.2" width="270.8" height="153.49" rx="3.5" style="fill:#fff"/><path d="M315.5,52.3a3.4,3.4,0,0,1,3.4,3.4V202.2a3.4,3.4,0,0,1-3.4,3.4H51.8a3.4,3.4,0,0,1-3.4-3.4V55.7a3.4,3.4,0,0,1,3.4-3.4H315.5m0-.2H51.8a3.6,3.6,0,0,0-3.6,3.6V202.2a3.6,3.6,0,0,0,3.6,3.6H315.5a3.7,3.7,0,0,0,3.7-3.6V55.7a3.7,3.7,0,0,0-3.7-3.6Z" style="fill:#dfe4e9"/><rect x="48.2" y="72.7" width="270.9" height="19.58" style="fill:#f5f6f7"/><rect x="47.9" y="163.6" width="270.5" height="41.96" style="fill:#f5f6f7"/><rect x="71.6" y="105.9" width="34.2" height="1.66" rx="0.8" style="fill:gray"/><rect x="77.1" y="137.7" width="22.8" height="2.06" rx="1" style="fill:#8c9097"/><rect x="77.3" y="151.9" width="22.8" height="2.06" rx="1" style="fill:#8c9097"/><rect x="58.7" y="84.5" width="53" height="1.68" rx="0.8" style="fill:#1e395b"/><rect x="133.2" y="84.5" width="36.2" height="2.03" rx="1" style="fill:#1e395b"/><rect x="239.7" y="194.3" width="29.5" height="2.06" rx="1" style="fill:#555b64"/><rect x="278.3" y="194.3" width="35" height="2.06" rx="1" style="fill:#555b64"/><rect x="129.9" y="63.7" width="30.2" height="1.77" rx="0.9" style="fill:#555b64"/><rect x="139.3" y="107.9" width="95.2" height="1.77" rx="0.9" style="fill:#555b64"/><rect x="139.3" y="116.9" width="42" height="1.36" rx="0.7" style="fill:#555b64"/><rect x="139.3" y="125.2" width="68.4" height="1.77" rx="0.9" style="fill:#555b64"/><rect x="139.3" y="142.5" width="30.2" height="1.77" rx="0.9" style="fill:#555b64"/><rect x="139.3" y="133.8" width="39.2" height="1.77" rx="0.9" style="fill:#555b64"/><rect x="168.5" y="63.4" width="30.2" height="1.77" rx="0.9" style="fill:#555b64"/><rect x="232" y="63.7" width="30.2" height="1.77" rx="0.9" style="fill:#e5e5e5"/><rect x="76.6" y="121.2" width="22.8" height="2.06" rx="1" style="fill:#8c9097"/><rect x="138.2" y="97.1" width="22.8" height="2.06" rx="1" style="fill:#cdcdcd"/><rect x="283.7" y="99.2" width="22.8" height="2.06" rx="1" style="fill:#cdcdcd"/><rect x="48.4" y="72.7" width="270.5" height="0.42" style="fill:#dfe4e9"/><rect x="48.9" y="92" width="270.2" height="0.42" style="fill:#dfe4e9"/><path d="M113.3,84.4l2.1,2.2,2.1-2.2Z" style="fill:#1e395b"/><path d="M268.9,83l2.2,2.2,2.1-2.2Z" style="fill:#1e395b"/><polygon points="103.8 65.6 101.3 62.9 98.9 65.6 99.3 66 100.9 64.3 100.9 67.5 101.7 67.5 101.7 64.3 103.3 66 103.8 65.6" style="fill:gray"/><polygon points="63.9 61.7 61.3 64.2 63.9 66.6 64.3 66.2 62.6 64.6 65.8 64.6 65.8 63.7 62.6 63.7 64.3 62.2 63.9 61.7" style="fill:#dfdfdf"/><polygon points="74.1 61.7 76.7 64.2 74.1 66.6 73.6 66.2 75.3 64.6 72.1 64.6 72.1 63.7 75.3 63.7 73.6 62.2 74.1 61.7" style="fill:#dfdfdf"/><path d="M81.8,63.9l-.4.4L83,65.9l1.7-1.6-.4-.4L83,65.1Z" style="fill:#dfdfdf"/><path d="M208.1,63.3l-.4.4,1.6,1.6,1.7-1.6-.4-.4-1.3,1.2Z" style="fill:gray"/><rect x="120" y="93.1" width="6.1" height="70.17" style="fill:#f0f0f0"/><rect x="121.2" y="100.7" width="3.6" height="46.42" transform="translate(246.1 247.7) rotate(180)" style="fill:silver"/><path d="M121.7,159.5l-.4.4,1.6,1.7,1.7-1.7-.4-.4-1.3,1.3Z" style="fill:gray"/><path d="M122.1,97.3l-.4-.4,1.6-1.6,1.7,1.6-.4.4-1.3-1.2Z" style="fill:gray"/><rect x="312.4" y="93.4" width="6.1" height="70.17" style="fill:#f0f0f0"/><rect x="313.5" y="101" width="3.6" height="46.42" transform="translate(630.7 248.4) rotate(180)" style="fill:silver"/><path d="M314,159.9l-.4.4,1.7,1.6,1.6-1.6-.3-.4-1.3,1.2Z" style="fill:gray"/><path d="M314.4,97.7l-.4-.4,1.7-1.7,1.6,1.7-.4.4-1.2-1.3Z" style="fill:gray"/><rect x="216.4" y="67.3" width="6.1" height="185.34" transform="translate(379.4 -59.5) rotate(90)" style="fill:#f0f0f0"/><rect x="229" y="98.6" width="3.6" height="122.63" transform="translate(70.8 390.7) rotate(-90)" style="fill:silver"/><path d="M130.5,158.6l-.4-.4-1.6,1.6,1.6,1.7.4-.4-1.3-1.2Z" style="fill:gray"/><path d="M308.3,159l.4-.4,1.6,1.6-1.6,1.7-.4-.4,1.2-1.3Z" style="fill:gray"/><path d="M163.7,65.5l.4.3,1.6-1.6-1.6-1.7-.4.4,1.3,1.3Z" style="fill:gray"/><path d="M124.2,65.4l.4.4,1.7-1.6-1.7-1.7-.4.4,1.3,1.3Z" style="fill:gray"/><rect x="112.4" y="60.1" width="109.8" height="7.69" style="fill:none;stroke:#dfdfdf;stroke-miterlimit:10;stroke-width:0.5px"/><rect x="120" y="175.3" width="112.7" height="7.9" style="fill:#fff;stroke:#0ba3ff;stroke-miterlimit:10;stroke-width:0.5px"/><rect x="236.9" y="175.1" width="76.4" height="7.69" style="fill:#e1e1e1;stroke:#b3b3b3;stroke-miterlimit:10;stroke-width:0.5px"/><rect x="236.9" y="192.5" width="38.2" height="7.69" style="fill:#e6e6e6;stroke:#0ba3ff;stroke-miterlimit:10;stroke-width:0.5px"/><rect x="276.7" y="192.5" width="38.2" height="7.69" style="fill:#e1e1e1;stroke:#b3b3b3;stroke-miterlimit:10;stroke-width:0.5px"/><rect x="228.4" y="60.1" width="80.4" height="7.69" style="fill:none;stroke:#dfdfdf;stroke-miterlimit:10;stroke-width:0.5px"/><line x1="214.2" y1="60.1" x2="214.2" y2="67.7" style="fill:none;stroke:#dfdfdf;stroke-miterlimit:10;stroke-width:0.5px"/><path d="M216.6,63.2l-1-.5,1.8-.7.7,1.8-1-.4a1.6,1.6,0,0,0,.8,2.2,1.7,1.7,0,0,0,2.2-.8,1.7,1.7,0,0,0-.8-2.2l.2-.5a2.2,2.2,0,0,1,1.1,2.9,2.3,2.3,0,0,1-3,1.1A2.2,2.2,0,0,1,216.6,63.2Z" style="fill:gray"/><rect x="113.9" y="61.8" width="6.6" height="4.72" style="fill:#3e99e0"/><path d="M302,64.7v-.2h.1a1.5,1.5,0,0,0,1.1.4,1.7,1.7,0,0,0,1.7-1.7,1.8,1.8,0,0,0-1.7-1.7,1.7,1.7,0,0,0-1.7,1.7,1.4,1.4,0,0,0,.4,1.1h-.3l-1.3,1.3.4.4Zm0-1.6a1.2,1.2,0,0,1,1.2-1.2,1.3,1.3,0,0,1,1.2,1.2,1.2,1.2,0,0,1-1.2,1.2A1.2,1.2,0,0,1,302,63.1Z" style="fill:gray"/><path d="M255.7,80.1v7.4h2.7V80.1Zm.5,2.8h1.7v1.8h-1.7Zm1.7-2.3v1.8h-1.7V80.6ZM256.2,87V85.2h1.7V87Z" style="fill:#767676"/><rect x="259.9" y="80.5" width="0.5" height="2.23" transform="translate(176.4 341.1) rotate(-89.5)" style="fill:#767676"/><rect x="260" y="82.7" width="0.5" height="2.23" transform="matrix(0.01, -1, 1, 0.01, 174.27, 343.29)" style="fill:#767676"/><rect x="260" y="84.9" width="0.5" height="2.23" transform="translate(172.1 345.6) rotate(-89.6)" style="fill:#767676"/><rect x="263.4" y="85" width="0.5" height="2.23" transform="translate(175.5 349) rotate(-89.6)" style="fill:#767676"/><rect x="263.4" y="82.7" width="0.5" height="2.23" transform="translate(177.7 346.7) rotate(-89.5)" style="fill:#767676"/><rect x="263.4" y="80.4" width="0.5" height="2.23" transform="translate(179.9 344.5) rotate(-89.5)" style="fill:#767676"/><rect x="256.8" y="83.5" width="0.6" height="0.6" style="fill:#6da5fe"/><rect x="256.8" y="81.2" width="0.6" height="0.6" style="fill:#65897d"/><rect x="256.8" y="85.8" width="0.6" height="0.6" style="fill:#d52f2d"/><rect x="286.5" y="80.7" width="0.6" height="5.72" style="fill:#b4b6b8"/><rect x="289.3" y="81.2" width="3.1" height="4.96" style="fill:#71b4e8"/><rect x="289.8" y="81.8" width="2.1" height="3.85" style="fill:#3e99e0"/><path d="M284.4,80v6.7H293V80Zm.7,6.1V81.2h7.3v4.9Z" style="fill:#85898c"/><rect x="291" y="80.6" width="0.5" height="0.6" style="fill:#b4b6b8"/><rect x="291.9" y="80.6" width="0.5" height="0.6" style="fill:#b4b6b8"/><circle cx="303.4" cy="83.4" r="3.9" style="fill:#006cc9"/><path d="M303.4,79.6a3.9,3.9,0,0,1,0,7.7,3.9,3.9,0,1,1,0-7.7m0-.5a4.3,4.3,0,0,0-4.3,4.3,4.3,4.3,0,0,0,8.6,0,4.3,4.3,0,0,0-4.3-4.3Z" style="fill:#094779"/><rect x="302.9" y="85" width="0.8" height="0.84" style="fill:#fff"/><path d="M303.3,80.8a1.7,1.7,0,0,0-1.7,1.7h.9a.9.9,0,0,1,.8-.9.9.9,0,0,1,.9.9c0,.8-1.3.7-1.3,2h.8c0-.9,1.3-1,1.3-2A1.7,1.7,0,0,0,303.3,80.8Z" style="fill:#fff"/><line x1="273.7" y1="92.9" x2="273.7" y2="103.4" style="fill:none;stroke:#cdcdcd;stroke-miterlimit:10;stroke-width:0.5px"/><rect x="62.4" y="103.5" width="1.6" height="0.34" style="fill:#7ec4ec"/><rect x="61.9" y="104.4" width="1.6" height="0.34" style="fill:#7ec4ec"/><rect x="61" y="105.1" width="1.6" height="0.34" style="fill:#7ec4ec"/><rect x="60.9" y="106.3" width="1.6" height="0.34" style="fill:#7ec4ec"/><rect x="60.6" y="107" width="1.6" height="0.34" style="fill:#7ec4ec"/><polygon points="63.2 105.2 62.1 105.1 62.7 105.9 62.1 107.1 63.3 106.6 64.1 107.2 64.2 105.9 65.3 105.2 64.3 105.1 64.2 104.1 63.2 105.2" style="fill:#1ba8fe"/><path d="M64.1,104.2l.2.9h.9l-1,.7v1.3l-.8-.6-1.2.5.6-1.2-.7-.8h1.2l.9-1m.3-.8-.5.5-.8.9H61.3l.5.6.5.7-.5,1-.4.9.9-.5.9-.4.7.5.4.4v-1.8l.9-.6.8-.6H64.6v-1.4Z" style="fill:#0078bf"/><path d="M71.1,123.4H64.6v-4.9h6.5Zm-6.1-.3h5.8v-4.2H65Z" style="fill:#0078bf"/><rect x="64.9" y="118.9" width="5.9" height="4.3" style="fill:#0ba3ff"/><rect x="64.9" y="122.7" width="5.9" height="0.49" style="fill:#0e5c8c"/><rect x="64.9" y="122.7" width="0.5" height="0.44" style="fill:#fff"/><rect x="69.5" y="122.6" width="0.5" height="0.5" style="fill:#fff"/><rect x="70.3" y="122.7" width="0.4" height="0.53" style="fill:#fff"/><path d="M69.2,134.5v3.1H71l-2.8,2.8-2.6-2.8h1.7v-3.1h1.9m.3-.3H67v3.1H64.8l.6.5,2.6,2.8.2.3.3-.3,2.8-2.8.6-.5H69.5v-3.1Z" style="fill:#0078bf"/><path d="M67.4,137.7v-3.1h1.8v3.1h1.9l-2.8,2.8-2.7-2.8Z" style="fill:#0ba3ff"/><polygon points="113.3 102.4 113.2 102.9 112 104.2 110.9 104 111.8 105 110.5 106.3 110.7 106.6 112 105.3 112.8 106.1 113 105 114 104 114.7 104 113.3 102.4" style="fill:#95a0a6"/><polygon points="113.3 118.8 113.2 119.3 112 120.6 110.9 120.4 111.8 121.4 110.5 122.7 110.7 123 112 121.7 112.8 122.5 113 121.4 114 120.4 114.7 120.4 113.3 118.8" style="fill:#95a0a6"/><polygon points="113.3 135.3 113.2 135.7 112 137.1 110.9 136.9 111.8 137.9 110.5 139.2 110.7 139.4 112 138.1 112.8 139 113 137.9 114 136.9 114.7 136.9 113.3 135.3" style="fill:#95a0a6"/><rect x="241.4" y="178.4" width="30.2" height="1.77" rx="0.9" style="fill:#555b64"/><rect x="240.6" y="195.4" width="30.2" height="1.77" rx="0.9" style="fill:#555b64"/><rect x="280.7" y="195.4" width="30.2" height="1.77" rx="0.9" style="fill:#555b64"/><rect x="83.8" y="178.5" width="30.2" height="1.77" rx="0.9" style="fill:#555b64"/><path d="M307,177.6l-.4.4,1.7,1.7,1.6-1.7-.4-.4-1.2,1.3Z" style="fill:gray"/><path d="M227.1,177.9l-.4.4,1.7,1.6,1.6-1.6-.4-.4-1.2,1.3Z" style="fill:gray"/><path d="M132.9,107H136a0,0,0,0,1,0,0v1.6a2,2,0,0,1-2,2h-1.1a0,0,0,0,1,0,0V107A0,0,0,0,1,132.9,107Z" style="fill:#fff"/><path d="M134.6,110.7h-1.9v-3.9h3.5v2.4A1.6,1.6,0,0,1,134.6,110.7Zm-1.5-.3h1.5a1.2,1.2,0,0,0,1.2-1.2v-2h-2.7Z" style="fill:#e11e19"/><path d="M133.3,115.5h3.1a0,0,0,0,1,0,0V117a2,2,0,0,1-2,2h-1.1a0,0,0,0,1,0,0v-3.6A0,0,0,0,1,133.3,115.5Z" style="fill:#fff"/><path d="M135,119.2h-1.9v-3.9h3.4v2.4A1.5,1.5,0,0,1,135,119.2Zm-1.6-.3H135a1.3,1.3,0,0,0,1.2-1.2v-2.1h-2.8Z" style="fill:#e11e19"/><path d="M133.6,124.3h3.1a0,0,0,0,1,0,0v1.6a2,2,0,0,1-2,2h-1.1a0,0,0,0,1,0,0v-3.6A0,0,0,0,1,133.6,124.3Z" style="fill:#fff"/><path d="M135.3,128h-1.9v-3.9h3.4v2.4A1.5,1.5,0,0,1,135.3,128Zm-1.5-.3h1.5a1.2,1.2,0,0,0,1.2-1.2v-2.1h-2.7Z" style="fill:#e11e19"/><path d="M133.9,132.9H137a0,0,0,0,1,0,0v1.6a2,2,0,0,1-2,2h-1.1a0,0,0,0,1,0,0v-3.6A0,0,0,0,1,133.9,132.9Z" style="fill:#fff"/><path d="M135.7,136.7h-1.9v-4h3.4v2.4A1.6,1.6,0,0,1,135.7,136.7Zm-1.6-.4h1.6a1.1,1.1,0,0,0,1.1-1.2v-2h-2.7Z" style="fill:#e11e19"/><path d="M378.2,145.9H346.8a6.3,6.3,0,0,0-6.3,6.2v28.3a6.3,6.3,0,0,0,6.3,6.3h31.4a6.3,6.3,0,0,0,6.3-6.3V152.1a6.3,6.3,0,0,0-6.3-6.2m-31.4,34.5,8.2-10.3,5.6,6.9,7.6-10.4,10,13.8Zm9.1-23.2a4.8,4.8,0,0,1-4.7,4.7,4.6,4.6,0,0,1-4.7-4.7,4.6,4.6,0,0,1,4.7-4.7A4.8,4.8,0,0,1,355.9,157.2Z" style="fill:#ced5dc"/><path d="M331.6,201a.6.6,0,0,1-.6-.3.5.5,0,0,1-.3-.5.9.9,0,0,1,.3-.6l.6-.2.6.2a.7.7,0,0,1,.2.6c0,.2,0,.4-.2.5A.9.9,0,0,1,331.6,201Z" style="fill:#ced5dc"/><path d="M336.2,200.6a3.9,3.9,0,0,1-.6,2.3,2.5,2.5,0,0,1-1.8.8l-.9-.2v-1.2a1.3,1.3,0,0,0,.8.3c.7,0,1.1-.7,1.1-2.1v-5.7h1.4Zm-.7-7-.6-.2a1,1,0,0,1,0-1.2l.6-.2.6.2a1.4,1.4,0,0,1,.2.6.8.8,0,0,1-.2.5Z" style="fill:#ced5dc"/><path d="M340.2,200h0v3.6h-1.3v-8.8h1.3v1.1h0a2.4,2.4,0,0,1,2.1-1.2,2.5,2.5,0,0,1,1.8.8,3.4,3.4,0,0,1,.6,2.2,3.6,3.6,0,0,1-.7,2.4,2.5,2.5,0,0,1-2,.9A2.2,2.2,0,0,1,340.2,200Zm0-2.4v.7a1.4,1.4,0,0,0,.4,1.1,1.6,1.6,0,0,0,1.1.5,1.4,1.4,0,0,0,1.2-.6,2.5,2.5,0,0,0,.4-1.6,2,2,0,0,0-.4-1.4,1.2,1.2,0,0,0-1.1-.5,1.3,1.3,0,0,0-1.2.5A2.5,2.5,0,0,0,340.2,197.6Z" style="fill:#ced5dc"/><path d="M352.5,200.4c0,2.2-1.1,3.3-3.4,3.3a6.5,6.5,0,0,1-2-.4V202a3.8,3.8,0,0,0,1.9.6,1.9,1.9,0,0,0,2.1-2.1v-.7h0a2.3,2.3,0,0,1-3.8.4,3.2,3.2,0,0,1-.7-2.2,4.3,4.3,0,0,1,.7-2.4,2.5,2.5,0,0,1,2-.9,1.9,1.9,0,0,1,1.8,1h0v-.9h1.4Zm-1.4-2.3v-.8a1.5,1.5,0,0,0-.4-1.1,1.3,1.3,0,0,0-1-.4,1.7,1.7,0,0,0-1.3.5,2.7,2.7,0,0,0-.4,1.6,2.4,2.4,0,0,0,.4,1.5,1.6,1.6,0,0,0,1.1.5,1.7,1.7,0,0,0,1.2-.5A2,2,0,0,0,351.1,198.1Z" style="fill:#ced5dc"/><path d="M356.4,199.4l-.9,3h-1l.6-3Z" style="fill:#ced5dc"/><path d="M363.7,201a.9.9,0,0,1-.6-.3c-.2-.1-.2-.3-.2-.5a.7.7,0,0,1,.2-.6l.6-.2.6.2a.9.9,0,0,1,.3.6.5.5,0,0,1-.3.5A.7.7,0,0,1,363.7,201Z" style="fill:#ced5dc"/><path d="M368.3,200h0v3.6h-1.4v-8.8h1.4v1.1h0a2.4,2.4,0,0,1,2.1-1.2,2.5,2.5,0,0,1,1.8.8,3.4,3.4,0,0,1,.6,2.2,3.6,3.6,0,0,1-.7,2.4,2.5,2.5,0,0,1-2,.9A2.1,2.1,0,0,1,368.3,200Zm0-2.4v.7a1.4,1.4,0,0,0,.4,1.1,1.6,1.6,0,0,0,1.1.5,1.4,1.4,0,0,0,1.2-.6,2.5,2.5,0,0,0,.4-1.6,2,2,0,0,0-.4-1.4,1.2,1.2,0,0,0-1.1-.5,1.3,1.3,0,0,0-1.2.5A1.8,1.8,0,0,0,368.3,197.6Z" style="fill:#ced5dc"/><path d="M380.4,200.8h-1.3v-3.3c0-1.2-.4-1.7-1.2-1.7a1.2,1.2,0,0,0-1,.4,1.6,1.6,0,0,0-.4,1.2v3.4h-1.4v-6h1.4v1h0a2.1,2.1,0,0,1,1.9-1.1,1.8,1.8,0,0,1,1.5.6,2.9,2.9,0,0,1,.5,1.9Z" style="fill:#ced5dc"/><path d="M388.5,200.4c0,2.2-1.1,3.3-3.4,3.3a6.5,6.5,0,0,1-2-.4V202a3.8,3.8,0,0,0,1.9.6,1.9,1.9,0,0,0,2.1-2.1v-.7h0a2.3,2.3,0,0,1-3.8.4,3.2,3.2,0,0,1-.7-2.2,4.3,4.3,0,0,1,.7-2.4,2.5,2.5,0,0,1,2-.9,1.9,1.9,0,0,1,1.8,1h0v-.9h1.4Zm-1.4-2.3v-.8a1.5,1.5,0,0,0-.4-1.1,1.3,1.3,0,0,0-1-.4,1.7,1.7,0,0,0-1.3.5,3.8,3.8,0,0,0-.4,1.6,2.4,2.4,0,0,0,.4,1.5,1.6,1.6,0,0,0,1.1.5,1.7,1.7,0,0,0,1.2-.5A2,2,0,0,0,387.1,198.1Z" style="fill:#ced5dc"/></g></g></svg>