<svg xmlns="http://www.w3.org/2000/svg" xmlns:xlink="http://www.w3.org/1999/xlink" viewBox="0 0 596 402.2"><defs><style>.cls-1{fill:none;}.cls-2{isolation:isolate;}.cls-3{opacity:0.3;mix-blend-mode:multiply;}.cls-4{fill:#ced5dc;}.cls-5{fill:#e1e7ec;}.cls-6{fill:#bec8d2;}.cls-7{fill:#909090;}.cls-8{fill:#c8c8c8;}.cls-9{fill:#e8b434;}.cls-10{fill:#38d289;}.cls-11{fill:#fff;}.cls-12{fill:#e4e5e9;}.cls-13{fill:#586371;}.cls-14{fill:#f8f9fa;}.cls-15{fill:#e11e19;}.cls-16{fill:#dfe4e9;}.cls-17{fill:#8c9097;}.cls-18{fill:#bfe1ef;}.cls-19{fill:#fafafa;}.cls-20{fill:#555b64;}.cls-21{fill:#5b9ed6;}.cls-22{fill:#212934;}.cls-23{fill:#f08e8c;}.cls-24{fill:#c60006;}.cls-25{fill:#e95653;}.cls-26{clip-path:url(#clip-path);}.cls-27{fill:#a3a3a3;}.cls-28{fill:#9e9e9e;}.cls-29{clip-path:url(#clip-path-2);}.cls-30{clip-path:url(#clip-path-3);}.cls-31{fill:#858585;}.cls-32{clip-path:url(#clip-path-4);}.cls-33{fill:#df1d18;}</style><clipPath id="clip-path"><path class="cls-1" d="M176.63,235.21l.47.26,0,0-.47-.25Z"/></clipPath><clipPath id="clip-path-2"><path class="cls-1" d="M168.64,236.71l-.47-.26a2.75,2.75,0,0,1-1.23-1.29l.48.26A2.73,2.73,0,0,0,168.64,236.71Z"/></clipPath><clipPath id="clip-path-3"><path class="cls-1" d="M174.44,220.65l.48.26.06,0-.47-.25A.18.18,0,0,0,174.44,220.65Z"/></clipPath><clipPath id="clip-path-4"><path class="cls-1" d="M173.29,222l-.47-.26-.07-.05.47.26Z"/></clipPath></defs><g class="cls-2"><g id="Layer_2" data-name="Layer 2"><g id="Inhalt"><g class="cls-3"><path class="cls-4" d="M591.54,18h0L577.32,3.7h0A12.6,12.6,0,0,0,568.38,0H42.71A12.63,12.63,0,0,0,30.08,12.63V363.08a12.58,12.58,0,0,0,3.54,8.75h0l.06.06.26.25,13.81,13.68.1.12c.06.07.11.15.17.21l0,0h0a12.6,12.6,0,0,0,9.67,4.52H583.37A12.63,12.63,0,0,0,596,378.07V27.62A12.59,12.59,0,0,0,591.54,18Z"/></g><rect class="cls-4" x="30.08" width="550.93" height="374.88" rx="12.63"/><path class="cls-5" d="M215,25.43,206.77,11.7a6.38,6.38,0,0,0-4.77-3H91.5a6,6,0,0,0-4.64,3L79.21,25.43H30.08V49.29H581V25.43Z"/><path class="cls-6" d="M210.89,11.7l8.23,13.73H335L326.74,11.7a6.36,6.36,0,0,0-4.77-3H211.47a5.14,5.14,0,0,0-2.66.92A6.6,6.6,0,0,1,210.89,11.7Z"/><path class="cls-7" d="M34.55,37.48l4.81,4.77L40.6,41c0-.08-2.6-2.56-2.64-2.64h6.93c0-.14,0-1.52,0-1.77H38c0-.08,2.62-2.57,2.65-2.66l-1.24-1.23Z"/><path class="cls-8" d="M63.66,37.48l-4.81,4.77L57.61,41c0-.08,2.6-2.56,2.64-2.64H53.32c0-.14,0-1.52,0-1.77h6.95c0-.08-2.62-2.57-2.65-2.66l1.24-1.23Z"/><path class="cls-9" d="M58.17,13.36A4.64,4.64,0,1,0,53.53,18,4.64,4.64,0,0,0,58.17,13.36Z"/><path class="cls-10" d="M71.85,13.36A4.64,4.64,0,1,0,67.21,18,4.64,4.64,0,0,0,71.85,13.36Z"/><path class="cls-8" d="M204.33,17.08a4.64,4.64,0,1,0-4.64,4.63A4.64,4.64,0,0,0,204.33,17.08Z"/><rect class="cls-11" x="91.68" y="28.8" width="463.66" height="16.41" rx="2.98"/><path class="cls-12" d="M200.94,17.09l1.43-1.43a16.5,16.5,0,0,1-1.25-1.26c-.26.27-.81.82-1.43,1.43-.61-.61-1.16-1.17-1.43-1.43-.18.18-1.16,1.14-1.25,1.25l1.43,1.43L197,18.51c.18.18,1.15,1.16,1.26,1.25l1.42-1.42,1.42,1.42a16.5,16.5,0,0,1,1.26-1.25Z"/><path class="cls-13" d="M323.51,17.08a4.64,4.64,0,1,0-4.64,4.63A4.64,4.64,0,0,0,323.51,17.08Z"/><path class="cls-11" d="M320.12,17.09l1.43-1.43a16.5,16.5,0,0,1-1.25-1.26c-.26.27-.81.82-1.43,1.43-.62-.61-1.16-1.17-1.43-1.43-.19.18-1.17,1.14-1.25,1.25l1.43,1.43-1.43,1.43c.18.18,1.14,1.16,1.26,1.25l1.42-1.42,1.42,1.42a14.86,14.86,0,0,1,1.26-1.25Z"/><path class="cls-7" d="M79.81,41a3.51,3.51,0,1,1,2.9-5.49c-.56,0-2.18,0-2.22,0l0,1.14,4.38-.07-.1-4.38-1.14,0s0,1.53,0,2.15a5,5,0,0,0-3.9-1.9,5,5,0,1,0,4.35,7.41l-1.29-.72A3.51,3.51,0,0,1,79.81,41Z"/><path class="cls-11" d="M30.08,49.29v313a12.64,12.64,0,0,0,12.63,12.63H568.38A12.63,12.63,0,0,0,581,362.25v-313Z"/><path class="cls-6" d="M331.48,11.7l6.38,10.64H361L354.61,11.7a6.39,6.39,0,0,0-4.78-3H326.71A6.39,6.39,0,0,1,331.48,11.7Z"/><rect class="cls-14" x="102.53" y="62.64" width="461.47" height="292"/><rect class="cls-11" x="29.53" y="60.64" width="73" height="294"/><rect class="cls-11" x="31.53" y="62.64" width="71" height="11"/><path class="cls-13" d="M99.81,70.84l.72-.72L98.2,67.79l2.33-2.34-.72-.71-3,3.05Z"/><path class="cls-15" d="M37,77.64H33.17a.64.64,0,0,1-.64-.64V72.55h.64V77H37Zm-.31-7H34.44a.64.64,0,0,0-.64.64v4.45a.64.64,0,0,0,.64.64h3.5a.64.64,0,0,0,.63-.64V72.55Zm-2.23,5.09V71.28h1.91v1.59h1.59v2.86Z"/><rect class="cls-16" x="102.28" y="49.64" width="0.5" height="305"/><rect class="cls-16" x="40.25" y="63.16" width="0.5" height="292"/><rect class="cls-16" x="29.53" y="354.4" width="535.47" height="0.5"/><polygon class="cls-16" points="564.25 355.16 563.78 70.14 564.28 70.14 564.75 355.16 564.25 355.16"/><rect class="cls-14" x="30" y="81.16" width="10.03" height="273.48"/><path class="cls-13" d="M32.21,97.14h1l.2.62h.69L33.1,95h-.73l-1,2.77H32Zm.46-1.42a1,1,0,0,0,0-.24c0,.09,0,.17,0,.25l.3.93h-.73Z"/><path class="cls-13" d="M36.26,97.54a.75.75,0,0,0,.27-.61.62.62,0,0,0-.18-.44.82.82,0,0,0-.47-.22.88.88,0,0,0,.39-.24.64.64,0,0,0,.15-.4.54.54,0,0,0-.24-.47,1.24,1.24,0,0,0-.73-.17h-1v2.77h1.06A1.13,1.13,0,0,0,36.26,97.54Zm-1.19-2.08h.24q.45,0,.45.3a.31.31,0,0,1-.11.26.47.47,0,0,1-.3.1h-.28Zm0,1.84v-.73h.35a.63.63,0,0,1,.35.09.36.36,0,0,1,.11.26.31.31,0,0,1-.12.28.48.48,0,0,1-.33.1Z"/><path class="cls-13" d="M38.18,97.76a1.75,1.75,0,0,0,.78-.15v-.54a1.33,1.33,0,0,1-.64.17.79.79,0,0,1-.6-.24.91.91,0,0,1-.23-.63.87.87,0,0,1,.24-.63.81.81,0,0,1,.61-.24,1.15,1.15,0,0,1,.62.18v-.59a1.71,1.71,0,0,0-.67-.1,1.36,1.36,0,0,0-1,.41,1.42,1.42,0,0,0-.4,1,1.32,1.32,0,0,0,.35,1A1.28,1.28,0,0,0,38.18,97.76Z"/><rect class="cls-13" x="31.33" y="102.27" width="7.63" height="0.35"/><rect class="cls-13" x="31.33" y="99.84" width="2.08" height="2.08"/><rect class="cls-13" x="34.1" y="98.8" width="2.08" height="3.12"/><rect class="cls-13" x="36.88" y="98.11" width="2.08" height="3.81"/><path class="cls-13" d="M33.1,83.68a.67.67,0,0,0-.66.66v5.3a.67.67,0,0,0,.66.66h2.79a2.32,2.32,0,0,0,2.41-4,2.15,2.15,0,0,0-.56-.24v-.43l-2-2H33.1m0,.66h2.32V86h1.66a2.31,2.31,0,0,0-1.9,3.64H33.1v-5.3m4,2.32a1.66,1.66,0,1,1-1.66,1.65,1.65,1.65,0,0,1,1.66-1.65m-.33,1.53h.66v1.49h-.66Zm.33-1.2a.43.43,0,0,1,0,.86.43.43,0,1,1,0-.86Z"/><rect class="cls-16" x="29.5" y="62.41" width="73" height="0.5"/><rect class="cls-16" x="41.5" y="73.41" width="62" height="0.5"/><rect class="cls-11" x="236.55" y="85.35" width="180.97" height="258.53"/><path class="cls-16" d="M417.77,344.12H236.3V85.1H417.77Zm-181-.5H417.27V85.6H236.8Z"/><rect class="cls-17" x="258.29" y="121.3" width="64.34" height="5.66"/><rect class="cls-17" x="258.29" y="138.26" width="137.49" height="5.66"/><rect class="cls-17" x="258.29" y="155.23" width="137.49" height="5.66"/><rect class="cls-17" x="258.29" y="172.19" width="137.49" height="5.66"/><rect class="cls-17" x="258.29" y="189.16" width="137.49" height="5.66"/><rect class="cls-17" x="258.29" y="206.13" width="137.49" height="5.66"/><rect class="cls-17" x="258.29" y="223.09" width="137.49" height="5.66"/><rect class="cls-17" x="258.29" y="242.09" width="137.49" height="5.66"/><rect class="cls-17" x="257.29" y="260.09" width="137.49" height="5.66"/><rect class="cls-17" x="257.29" y="278.09" width="137.49" height="5.66"/><rect class="cls-18" x="337.17" y="288.16" width="56.1" height="46"/><path class="cls-19" d="M359.42,322.5c2.19,5.28,6.57-1.18,9.75-1.85,2.25,4.72,10.48,4.09,15.65,2.89.61-.09,1.07-.43.49-.75-2.69-1-5.87.63-8.7.19-3.11-.44-3.12-2.25-5.21-3.55-3.46-1.75-6.58.21-8.8,2.11a5.28,5.28,0,0,0-1.31-1.74c-.64-.68-3.64-.53-2.9.25S359.11,321.67,359.42,322.5Z"/><path class="cls-19" d="M386.16,333H343.35v-4.28h42.81V333m-33.82-10.06-3-3,3-3-1.5-1.5-3,3-3-3-1.5,1.5,3,3-3,3,1.5,1.5,3-3,3,3,1.5-1.5"/><path class="cls-19" d="M384.79,295.94c-.48.49-1,1-1,1.44s.44.93.9,1.37c.69.72,1.36,1.36,1.33,2.06s-.76,1.43-1.49,2.15l-5.91,5.93-2-2,6.08-6.07-1.37-1.37-2,2-5.37-5.37,5.49-5.48a1.42,1.42,0,0,1,2,0l3.35,3.35a1.41,1.41,0,0,1,0,2m-25.35,14.62,11.84-11.86,5.37,5.37-11.84,11.86h-5.37Z"/><rect class="cls-11" x="29.53" y="49.64" width="548" height="13"/><rect class="cls-13" x="102.53" y="62.64" width="461.47" height="7.52"/><path class="cls-13" d="M117.15,57h-.32l-.11-.1a2.61,2.61,0,0,0,.63-1.69,2.61,2.61,0,1,0-.91,2l.11.12v.31l2,2,.59-.6Zm-2.39,0a1.79,1.79,0,1,1,1.79-1.79A1.79,1.79,0,0,1,114.76,57Z"/><path class="cls-13" d="M115.76,55.39H115v.8h-.4v-.8h-.79V55h.79V54.2h.4V55h.8Z"/><path class="cls-13" d="M128.24,57h-.32l-.11-.11a2.57,2.57,0,0,0,.63-1.69,2.6,2.6,0,1,0-2.6,2.6,2.56,2.56,0,0,0,1.69-.63l.11.12v.31l2,2,.6-.6Zm-2.4,0a1.8,1.8,0,1,1,1.8-1.8A1.79,1.79,0,0,1,125.84,57Zm-1-2h2v.4h-2Z"/><polygon class="cls-13" points="142.43 59.13 142.18 58.88 141.49 59.56 142.18 60.25 142.43 60 142.17 59.74 142.9 59.74 142.9 59.7 142.9 59.7 142.9 59.43 142.9 59.38 142.17 59.38 142.43 59.13"/><polygon class="cls-13" points="144.08 60 144.33 60.25 145.02 59.56 144.33 58.88 144.08 59.13 144.34 59.38 143.61 59.38 143.61 59.43 143.61 59.43 143.61 59.7 143.61 59.74 144.34 59.74 144.08 60"/><path class="cls-13" d="M145.39,53.13v1.06h-4.27V53.13h-.71v1.06a.71.71,0,0,0,.71.72h4.27a.71.71,0,0,0,.71-.72V53.13Z"/><path class="cls-13" d="M141.12,60.25V56.69h2.49v1.78h1.78v1.78h.71V58.11L144,56h-2.85a.7.7,0,0,0-.71.71v3.56Z"/><path class="cls-13" d="M154.45,53.53h-2.78a.69.69,0,0,0-.69.69v5.55a.69.69,0,0,0,.69.69h4.17a.69.69,0,0,0,.69-.69V55.61Zm-2.78,6.24V54.22h2.43V56h1.74v3.82Z"/><polygon class="cls-13" points="152.95 57.44 152.7 57.19 152.04 57.86 152.7 58.53 152.95 58.28 152.7 58.03 153.41 58.03 153.41 58 153.41 58 153.41 57.73 153.41 57.69 152.7 57.69 152.95 57.44"/><polygon class="cls-13" points="153.33 58.67 153.09 58.91 153.75 59.58 154.42 58.91 154.18 58.67 153.93 58.91 153.93 58.2 153.89 58.2 153.89 58.2 153.62 58.2 153.58 58.2 153.58 58.91 153.33 58.67"/><polygon class="cls-13" points="154.56 58.28 154.81 58.53 155.47 57.86 154.81 57.19 154.56 57.44 154.81 57.69 154.1 57.69 154.1 57.73 154.1 57.73 154.1 58 154.1 58.03 154.81 58.03 154.56 58.28"/><polygon class="cls-13" points="154.18 57.06 154.42 56.81 153.75 56.15 153.09 56.81 153.33 57.06 153.58 56.81 153.58 57.52 153.62 57.52 153.62 57.52 153.89 57.52 153.93 57.52 153.93 56.81 154.18 57.06"/><path class="cls-13" d="M163.51,55l-.5-.51a2.84,2.84,0,0,0-.58,1.39h.72A2.11,2.11,0,0,1,163.51,55Zm-.36,1.59h-.72A2.84,2.84,0,0,0,163,58l.5-.51A2.06,2.06,0,0,1,163.15,56.59Zm.36,1.9a2.79,2.79,0,0,0,1.39.57v-.72A2.27,2.27,0,0,1,164,58Zm2.1-5.08V52.32L164,53.94l1.62,1.58V54.13a2.13,2.13,0,0,1,0,4.21v.72a2.85,2.85,0,0,0,0-5.65Z"/><path class="cls-13" d="M179,55.94h.71a2.82,2.82,0,0,0-.57-1.39l-.51.51A2.17,2.17,0,0,1,179,55.94Zm-.87-1.39.51-.51a3,3,0,0,0-1.39-.57v.72A2.13,2.13,0,0,1,178.13,54.55Zm-1.6-1.08a2.86,2.86,0,0,0-1.39.57l.52.52a1.92,1.92,0,0,1,.87-.36Zm2.11,5.07.77.78V57l-2.27,0,1,1a2.13,2.13,0,0,1-3-3l-.51-.51a2.85,2.85,0,0,0,4,4Z"/><path class="cls-13" d="M189.32,57.51h-.86v2.13h2.14v-.85h-1.28Zm-.86-1.71h.86V54.52h1.28v-.85h-2.14Zm5.12,3H192.3v.85h2.13V57.51h-.85Zm-1.28-5.12v.85h1.28V55.8h.85V53.67Z"/><path class="cls-13" d="M199.46,54.27H202a.63.63,0,1,1,1.25,0h2.52v.63h-.32v3.45h-1.8l.55,1.89h-.63L203,58.35h-.79l-.55,1.89H201l.55-1.89h-1.81V54.9h-.32v-.63m.95.63v2.82h4.4V54.9Z"/><g class="cls-3"><path class="cls-4" d="M482.43,84.2h0l-8.19-7.09h0a7.91,7.91,0,0,0-5.14-1.83H166.27c-4,0-7.27,2.81-7.27,6.27V255.45a5.8,5.8,0,0,0,2,4.34h0l0,0,.15.13,7.95,6.78.06.07a.94.94,0,0,0,.1.1v0h0a7.79,7.79,0,0,0,5.57,2.24H477.73c4,0,7.27-2.81,7.27-6.27V89A6,6,0,0,0,482.43,84.2Z"/></g><rect class="cls-11" x="158.4" y="75.51" width="318.72" height="180.68" rx="4.13"/><path class="cls-16" d="M473,75.64a4,4,0,0,1,4,4V252.07a4,4,0,0,1-4,4H162.53a4,4,0,0,1-4-4V79.64a4,4,0,0,1,4-4H473m0-.25H162.53a4.26,4.26,0,0,0-4.25,4.25V252.07a4.26,4.26,0,0,0,4.25,4.25H473a4.26,4.26,0,0,0,4.25-4.25V79.64A4.26,4.26,0,0,0,473,75.39Z"/><rect class="cls-14" x="158" y="85.33" width="91.56" height="145.31"/><path class="cls-14" d="M163.81,75.64H472.09A4.91,4.91,0,0,1,477,80.55V99.86a0,0,0,0,1,0,0H158.53a0,0,0,0,1,0,0V80.92A5.28,5.28,0,0,1,163.81,75.64Z"/><path class="cls-17" d="M180.37,180.61h-10v-1h10v1m-7.93-2.36-.7-.7.7-.7-.35-.35-.7.7-.71-.7-.35.35.7.7-.7.7.35.36.71-.71.7.71.35-.36m7.18-7.18.6,2.21-.5.15a5.25,5.25,0,0,0-.7-1.1,1.26,1.26,0,0,0-.91-.25h-1.25v5.27c0,.25,0,.5.15.6a2,2,0,0,0,.85.1v.51h-3v-.51a2.08,2.08,0,0,0,.85-.1c.16-.1.16-.35.16-.6v-5.27H174.6a1.49,1.49,0,0,0-.9.2,3.08,3.08,0,0,0-.71,1.1l-.5-.15.6-2.16Z"/><path class="cls-17" d="M181.43,200.93H170.11V199.8h11.32v1.13m-8.94-2.66-.79-.79.79-.79-.4-.4-.79.79-.79-.79-.4.4.8.79-.8.79.4.4.79-.79.79.79.4-.4m7.81-7h-5.66a1.14,1.14,0,0,0-1.13,1.14v5.09a1.14,1.14,0,0,0,1.13,1.13h5.66a1.14,1.14,0,0,0,1.13-1.13v-5.09a1.14,1.14,0,0,0-1.13-1.14m-5.66,6.23,1.47-1.87,1,1.25,1.36-1.87,1.81,2.49Zm1.64-4.19a.87.87,0,0,1-.85.85.85.85,0,1,1,0-1.7A.87.87,0,0,1,176.28,193.35Z"/><path class="cls-15" d="M180.27,162.2H169.48v-1.08h10.79v1.08m-8.53-2.54-.37.38-.76-.75-.76.75-.37-.38.75-.75-.75-.76.37-.38.76.76.76-.76.37.38-.75.76.75.75m2.7-1.94c-.16.43-.59,2-1.13,2.27s-.86-.27-.76-.7c.33-1.52,1.84-3.57,2.16-4.54,1-2.05.87-3.13,1.51-3.29s1.14.43.38,1.13a35.28,35.28,0,0,0,1.57,5.29c1.18,3.08,1.35.38,2.1,1.08.43.43-.54,2.38-2,1a3.74,3.74,0,0,1-.7-1.13,4.14,4.14,0,0,1-.43-1.24,7.55,7.55,0,0,0-2,.59C174.6,158.31,174.23,158.21,174.44,157.72Zm2.38-1.4c-.06-.22-.27-1.08-.65-2.49a.6.6,0,0,1,0-.27l-1.25,3.24a2.16,2.16,0,0,1,.54-.11,6.15,6.15,0,0,0,1-.27C176.55,156.37,176.66,156.37,176.82,156.32Z"/><rect class="cls-17" x="170.69" y="134.35" width="62.36" height="3.03" rx="1"/><rect class="cls-17" x="186.42" y="176.13" width="26.83" height="2.42" rx="1"/><rect class="cls-17" x="263.88" y="200.36" width="65.39" height="2.42" rx="1"/><rect class="cls-17" x="187.45" y="194.91" width="26.83" height="2.42" rx="1"/><rect class="cls-17" x="186.38" y="218.53" width="26.83" height="2.42" rx="1"/><rect class="cls-17" x="170.69" y="112.55" width="62.36" height="3.03" rx="1"/><rect class="cls-20" x="272.4" y="218.51" width="117.41" height="2.42" rx="1"/><rect class="cls-20" x="383.76" y="242.75" width="34.68" height="2.42" rx="1"/><rect class="cls-20" x="429.17" y="242.75" width="41.17" height="2.42" rx="1"/><rect class="cls-20" x="262.28" y="87.75" width="66.99" height="2.42" rx="1"/><rect class="cls-15" x="186.42" y="156.75" width="26.83" height="2.42" rx="1"/><rect class="cls-15" x="261.46" y="214.89" width="8.48" height="8.48" rx="1"/><path class="cls-11" d="M264.55,221.87l-2.19-2.19,1-1,1.19,1.19L268,216.4l1,1Z"/><rect class="cls-16" x="158.53" y="99.61" width="318.47" height="0.5"/><rect class="cls-16" x="318.42" y="73.22" width="0.5" height="316.65" transform="translate(86.51 549.78) rotate(-89.89)"/><rect class="cls-16" x="249.7" y="99.25" width="0.5" height="131.99"/><rect class="cls-16" x="159.13" y="123.22" width="90.82" height="0.5"/><rect class="cls-16" x="264.48" y="191.03" width="199.8" height="0.5"/><path class="cls-20" d="M471.76,251.47h-44a1.25,1.25,0,0,1-1.25-1.25V236.48a1.25,1.25,0,0,1,1.25-1.25h44a1.25,1.25,0,0,1,1.25,1.25v13.74A1.25,1.25,0,0,1,471.76,251.47Zm-44-15.74a.75.75,0,0,0-.75.75v13.74a.74.74,0,0,0,.75.75h44a.74.74,0,0,0,.75-.75V236.48a.75.75,0,0,0-.75-.75Z"/><path class="cls-20" d="M446.5,85.6c-.14-.43-.51-.52-.7-.76s-.14-.63-.5-.89-.72-.13-1-.21-.49-.42-.93-.42-.65.32-.94.42-.64-.06-1,.21-.34.64-.51.89-.55.33-.69.76.12.71.12,1-.28.6-.12,1,.51.52.69.76.15.63.51.89.71.12,1,.21.49.42.94.42.65-.32.93-.42.65.05,1-.21.33-.64.5-.89.55-.34.7-.76-.12-.71-.12-1,.28-.59.12-1m-3.14,3.21a2.2,2.2,0,1,1,2.2-2.2,2.2,2.2,0,0,1-2.2,2.2m1.1-2.2a1.1,1.1,0,1,1-1.1-1.1,1.1,1.1,0,0,1,1.1,1.1m-.16,4.16-.35,2-.4,2.27-1.43-1.36-1.82.79.73-4.12a2.22,2.22,0,0,0,1,.23,2.26,2.26,0,0,0,.74.38,2,2,0,0,0,.55.08,1.93,1.93,0,0,0,.94-.24m2.31,1.77L445.19,92l.28-1.61a1.92,1.92,0,0,0,.47-.25l.07-.06Z"/><path class="cls-21" d="M417.29,84a4.82,4.82,0,1,0,0,9.64.8.8,0,0,0,.81-.8.79.79,0,0,0-.21-.54.84.84,0,0,1-.21-.53.8.8,0,0,1,.81-.8h.95a2.68,2.68,0,0,0,2.67-2.68A4.57,4.57,0,0,0,417.29,84Zm-2.94,4.82a.8.8,0,1,1,.8-.8A.8.8,0,0,1,414.35,88.78ZM416,86.64a.8.8,0,1,1,0-1.6.8.8,0,1,1,0,1.6Zm2.67,0a.8.8,0,1,1,.81-.8A.8.8,0,0,1,418.63,86.64Zm1.61,2.14a.8.8,0,1,1,.8-.8A.8.8,0,0,1,420.24,88.78Z"/><path class="cls-20" d="M467.49,85.06a4.28,4.28,0,1,1-3.08,2.9l.94.58a3.2,3.2,0,1,0,4.81-2.05,3.15,3.15,0,0,0-2.42-.38l.57,2.37-3.19-2,2-3.18Z"/><path class="cls-1" d="M237.71,198.14h29.06V227.2H237.71Z"/><path class="cls-22" d="M326,157.42a3.43,3.43,0,0,1-2.25-.62,2.73,2.73,0,0,1-1-1.75,5.34,5.34,0,0,1-2.75.88,2,2,0,0,1-1.37-.63c-2.12,1.5-7.61,3.12-9.48,1.13a2.26,2.26,0,0,1-.38-2.75,4.62,4.62,0,0,1,4.37-2.12h.37l.13.37a1.11,1.11,0,0,1,0,.88v.5a.68.68,0,0,1-.38.62.67.67,0,0,1-.62-.37c-.13-.25,0-.5,0-.75v-.25a3.49,3.49,0,0,0-3,1.62,1.34,1.34,0,0,0,.25,1.62c1.5,1.62,7-.25,8.49-1.5l.37-.37.38.37a1.71,1.71,0,0,0,1,.63,4,4,0,0,0,2.74-1.12l.75-.63v1a2.18,2.18,0,0,0,.75,1.87c1.25.88,4,.13,5.74-.37l.25-.13c10-2.87,22.71-12.85,25.08-22.33,1.25-5.12.37-8.74-2.5-10.73-5.11-3.37-15.72-.88-21.83,3.61-5,3.75-13.11,10.74-10.48,16.6,2,4.37,8.23,3.87,11.72,3,.25-.12.5.13.63.38s-.13.5-.38.62c-5,1.38-11,.88-12.85-3.49-2.87-6.49,5.49-13.85,10.86-17.72,6.36-4.74,17.34-7.36,23-3.62,2.24,1.5,4.61,4.74,2.87,11.73-2.5,9.86-15.6,20.09-25.83,23.09l-.25.12a39.61,39.61,0,0,1-4.37.62m33.19,18.35a11.62,11.62,0,0,1,1-1.25c2.87-3.62,5.62-7.36,8.24-11.11.75-1.12,1.62-2.24,2.37-3.37,4.12-2.62,8.73-4.86,12.73-4.49v.38l.12.25h.37a8.17,8.17,0,0,0,4.12-1.13,9,9,0,0,1,3.37-1.12c.38,0,.87.13,1.5.13,1.37.12,3.12.37,4.24-.5,1,.37,2.25-.5,3.25-1.13.12-.12.37-.25.49-.37a2.55,2.55,0,0,0,1.5,1.5,3.87,3.87,0,0,0-1,1.62l-.12.5.5.12c3.24,1.25,7.36.25,11.23-.62a32.61,32.61,0,0,1,7.36-1.12.5.5,0,0,0,0-1,34.25,34.25,0,0,0-7.61,1.12c-3.49.87-7.24,1.62-10.11.87a8.4,8.4,0,0,1,1-1.12c2.87.37,7.49-1.12,8.49-2.87l.24-.37-.24-.25c-.63-.75-1.88-.88-3.25-.5a13.08,13.08,0,0,0-5.36,2.87h0c-1.38-.38-1.38-1.25-1.38-1.5v-.75l-.62.25a4.88,4.88,0,0,0-1.25.75,8.7,8.7,0,0,1-2.12,1.12v-.12l.37-1-1.12.25H397l-.87-.25.25.87c0,.13.12.38.12.5-.75.5-1.87.38-3.24.25a8,8,0,0,0-1.62-.12,8.85,8.85,0,0,0-3.87,1.24,8.25,8.25,0,0,1-3.12,1v-.37l-.13-.25h-.37c-3.74-.5-7.86,1.25-11.73,3.37.37-.5.75-1,1-1.37,1.37-1.75,2.74-3.62,4.12-5.37,1.24-.87,2.37-1.87,3.49-2.75a50.73,50.73,0,0,0,14.72-18.71l.5-1.25-1.24.62c-2.38,1.25-4.25,3.62-6,5.74-.38.5-.88,1-1.25,1.5-3.87,4.62-7.49,9.36-11.11,14.1-3.37,2.37-7.36,4.62-11.73,4.12h-.62a4.8,4.8,0,0,1-1.5-.25.73.73,0,0,1,.13-.5,1.39,1.39,0,0,0-.13-1.25c-1.12-1-2.24-.75-3.49-.25a.74.74,0,0,0-.13-.5c-.5-1.12-2.49-1.49-3.74-1.37a22.93,22.93,0,0,0-6.61,1.87c-.13-.25-.5-.25-.75,0s-.63.63-1,.88a15.61,15.61,0,0,0-4.74,3.62l.62.74c.75-.5,1.37-1.12,2.12-1.62s1.75-1.25,2.5-1.87a21.54,21.54,0,0,1,7.73-2.5,3.65,3.65,0,0,1,2.75.75c.12.25-.25.63-.75,1.13l.5.87.62-.37c1.75-.88,2.5-1.25,3.37-.5v.37c-.12.5-.25,1,.13,1.37s1.5.5,2.24.63h.5a16.35,16.35,0,0,0,10-2.62c-.75,1-1.63,2.12-2.37,3.12s-1.63,2.24-2.5,3.37l-5.62,3.86L362,165.29c-5.12,3.61-12.73,9-10.61,16.09l.13.38h.75c3.11-.5,5.36-3.75,7-6m8.49-13c-2.62,3.62-5.37,7.49-8.24,11.11a8.37,8.37,0,0,1-1,1.24c-1.49,2.12-3.61,5-5.86,5.12-1.5-6.24,5.61-11.23,10.36-14.6l2.24-1.62c1-.75,2.12-1.5,3.37-2.37-.25.37-.62.75-.87,1.12m43.42-11.85c-1,1-3.87,2-6.24,2a15.23,15.23,0,0,1,4.25-2.12,3.54,3.54,0,0,1,1.12-.12,2.21,2.21,0,0,1,.87.25m-30.69-3.37c-.13.12-.38.25-.5.37,2.87-3.74,5.74-7.49,8.86-11.1a12.61,12.61,0,0,1,1.24-1.5,24.88,24.88,0,0,1,4.25-4.62,51.91,51.91,0,0,1-13.85,16.85"/><path class="cls-13" d="M35.46,52.76h6v6h-6Z"/><path class="cls-11" d="M40.46,55.51H37.41l1.4-1.4-.35-.35-2,2,2,2,.35-.35L37.41,56h3.05Z"/><path class="cls-17" d="M47.26,55.55,46.63,58v-3h5.16a.6.6,0,0,0-.61-.6H49.06l-.61-.61H46.63a.61.61,0,0,0-.61.61V58a.61.61,0,0,0,.61.61h4.55a.59.59,0,0,0,.58-.46l.7-2.58h-5.2M51.18,58h-4l.49-1.82h4Z"/><path class="cls-13" d="M73.47,53.94h-.4V52H68.3v2h-.4a1.2,1.2,0,0,0-1.2,1.2v2.38h1.6v1.6h4.77v-1.6h1.59V55.14A1.19,1.19,0,0,0,73.47,53.94Zm-4.38-1.19h3.18v1.19H69.09Zm3.18,4.77v.8H69.09V56.73h3.18Zm.8-.79v-.8H68.3v.8h-.8V55.14a.4.4,0,0,1,.4-.4h5.57a.4.4,0,0,1,.4.4v1.59Z"/><circle cx="73.07" cy="55.34" r="0.4"/><path class="cls-13" d="M83.57,56.59a1,1,0,0,0-.62.24l-2.24-1.3a.83.83,0,0,0,0-.22.78.78,0,0,0,0-.22l2.22-1.29a1,1,0,0,0,.64.25.95.95,0,1,0-.94-.94,1.8,1.8,0,0,0,0,.22l-2.21,1.29a.94.94,0,1,0-.64,1.63,1,1,0,0,0,.64-.25l2.24,1.31a.64.64,0,0,0,0,.2.92.92,0,1,0,.92-.92Z"/><path class="cls-13" d="M572.83,72.36l-.71-.72,2.33-2.33L572.12,67l.71-.72,3,3.06Z"/><g id="Bounding_Boxes" data-name="Bounding Boxes"><path class="cls-13" d="M570,54.16h8v8h-8Z"/></g><g id="Outline"><path class="cls-11" d="M576.33,56.29l-.47-.47L574,57.69l-1.86-1.87-.47.47,1.86,1.87L571.67,60l.47.47L574,58.63l1.86,1.86.47-.47-1.86-1.86Z"/></g><polygon class="cls-23" points="114.65 321.65 50.84 330.77 16 312.16 80.77 302.92 114.65 321.65"/><polygon class="cls-24" points="104 323.16 49.23 331.1 21.24 316.03 75.02 308.44 104 323.16"/><g class="cls-2"><polygon class="cls-25" points="50.55 330.85 50.52 347.66 50.42 402.2 15.87 383.1 15.97 328.56 16 311.74 50.55 330.85"/><polygon class="cls-25" points="60.74 266.04 0 274.82 16 312.16 81 303.16 60.74 266.04"/><path class="cls-15" d="M115.63,321.55l-.1,52.39c0,10.48-7.78,20.07-17.33,21.44L50.42,402.2l.09-54.54,0-16.81Z"/></g><g class="cls-2"><path class="cls-1" d="M93.33,348l.68.37a70.35,70.35,0,0,1,12.39,9.27l-.68-.37A70.35,70.35,0,0,0,93.33,348Z"/><path class="cls-25" d="M107.1,359h0a3,3,0,0,0-.12-.43l-.06-.12a1.59,1.59,0,0,0-.15-.29l-.07-.11a1.83,1.83,0,0,0-.3-.32A70.35,70.35,0,0,0,94,348.41l-.68-.37a70.35,70.35,0,0,1,12.39,9.27,1.47,1.47,0,0,1,.29.32.41.41,0,0,1,.07.11,2.69,2.69,0,0,1,.16.29.61.61,0,0,1,.05.12,2.11,2.11,0,0,1,.12.43h0c0,.16,0,.31,0,.47s0,.1,0,.14a2.19,2.19,0,0,1,0,.36s0,.09,0,.14a2.64,2.64,0,0,1-.13.46h0a2.77,2.77,0,0,1-.22.46.41.41,0,0,1,0,.09,3.69,3.69,0,0,1-.29.4c-.5.6-1,1.18-1.49,1.75l-.45.52c-.31.36-.62.72-.93,1.06l-.87,1-.76.82-.85.9-.75.77-.84.83-.72.71-.84.78-.75.69-.45.39-.94.8-.44.36-1.09.86-.25.19c-.44.33-.88.64-1.31.94l-.32.21c-.33.23-.66.44-1,.64l-.4.25c-.34.2-.68.4-1,.58l-.26.15c-.41.22-.82.42-1.23.61s-.55.24-.82.35l-.6.26c-.29.11-.57.2-.86.29l-.55.2-.94.25c-.16,0-.31.08-.47.12-.46.1-.93.19-1.4.25a12.33,12.33,0,0,1-1.35.13l-.19,0c-.43,0-.86,0-1.29,0h-.23c-.43,0-.86-.05-1.29-.1l-.2,0c-.45-.06-.9-.13-1.35-.23h0c-.42-.09-.85-.2-1.27-.32l-.35-.1c-.44-.14-.88-.28-1.32-.45l-.13-.06c-.41-.15-.82-.33-1.22-.51l-.37-.17c-.44-.21-.89-.43-1.33-.67l.68.37,1,.51.34.16.37.17c.41.19.82.36,1.22.52l.13.05c.44.17.88.31,1.32.45l.35.1.44.13.84.19h0c.45.09.9.16,1.35.22l.19,0c.43.05.86.08,1.29.1H80c.43,0,.86,0,1.28,0h.2c.45,0,.9-.07,1.35-.13s.93-.16,1.4-.26l.47-.12.93-.25.56-.2c.29-.09.57-.18.85-.29l.6-.26c.28-.11.55-.22.82-.35l.11,0c.37-.18.75-.37,1.12-.57l.26-.14,1-.59.39-.24,1-.64.32-.21.12-.09c.4-.27.8-.56,1.19-.86l.25-.19c.36-.27.73-.56,1.09-.85l.44-.37c.32-.26.63-.52,1-.8l.44-.39.26-.22.5-.47.83-.78.73-.71.84-.83c.25-.25.49-.51.74-.77s.57-.59.85-.89.51-.55.76-.83l.87-.95.35-.39.59-.68c.15-.17.29-.34.45-.51.49-.57,1-1.16,1.48-1.76h0a2.43,2.43,0,0,0,.2-.25,1,1,0,0,0,.08-.14l.06-.09,0-.06a3.29,3.29,0,0,0,.17-.39h0a3.45,3.45,0,0,0,.12-.46.68.68,0,0,0,0-.14c0-.12,0-.24,0-.35v-.15A2.38,2.38,0,0,0,107.1,359Z"/><path class="cls-11" d="M82.48,349.76a10.82,10.82,0,0,1,2.48-.07c6.42.57,10.51,6.8,9.13,13.92a15.46,15.46,0,0,1-1.73,4.68l-6.64-2.74,2.37,7.53a12.7,12.7,0,0,1-5.63,2.33,10.82,10.82,0,0,1-2.48.06c-6.42-.56-10.5-6.79-9.13-13.92C72.05,355.36,77,350.53,82.48,349.76Z"/><path class="cls-25" d="M86.21,349.89l.6.14.49.16a3.75,3.75,0,0,1,.47.17l.46.19c.21.1.42.19.62.3l-.68-.37-.35-.18c-.09-.05-.19-.08-.28-.12l-.45-.2-.48-.17-.48-.15-.19-.06-.41-.09-.29-.06c-.32-.06-.63-.1-1-.13a10.82,10.82,0,0,0-2.48.06l-1,.18-.31.09c-.21.05-.43.11-.64.18s-.23.08-.35.12l-.58.21-.36.16-.25.11-.25.12-.52.28-.44.25-.5.32-.24.15-.22.16-.31.23-.5.41-.29.24-.12.1c-.17.16-.34.31-.5.48l-.1.1c-.21.21-.42.42-.61.65l0,.05c-.33.38-.63.77-.93,1.18a.87.87,0,0,1-.09.11l-.26.4c-.06.09-.12.18-.17.27-.19.29-.36.59-.53.89h0l-.09.17c-.14.27-.28.55-.4.83-.06.12-.1.25-.15.37s-.18.41-.26.62a.43.43,0,0,1,0,.05c-.09.25-.17.51-.25.76l-.12.38c-.1.38-.2.77-.27,1.17a13,13,0,0,0,1.07,8.44,10.11,10.11,0,0,0,4.17,4.32l.68.37c-4.07-2.21-6.31-7.21-5.24-12.76.08-.39.17-.78.28-1.17,0-.13.08-.25.12-.38s.15-.51.24-.75.18-.46.27-.68l.15-.37q.2-.42.42-.84l.07-.16c.17-.31.35-.6.53-.9l.18-.27.35-.51a13.26,13.26,0,0,1,.93-1.17c.21-.25.43-.48.65-.71l.11-.1.61-.58.29-.24.51-.41.31-.23.46-.31.5-.32c.14-.09.29-.17.44-.25a5.12,5.12,0,0,1,.52-.27c.16-.09.33-.16.49-.24l.37-.15.57-.22.36-.12c.21-.07.42-.13.64-.18l.3-.08a8.1,8.1,0,0,1,1-.18,10.82,10.82,0,0,1,2.48-.07c.33,0,.65.08,1,.13Z"/><path class="cls-23" d="M84.51,341.51h1.18l.49,0,.36,0,.48,0,.36.05.49.07.36.06.49.09.37.08.5.12.34.08,1.07.31.2.07.93.32.27.11q.55.21,1.11.45l.16.07c.33.15.66.3,1,.47l.3.14c.37.19.75.38,1.13.59h0l-.68-.37c-.38-.21-.76-.4-1.14-.59l-.13-.07-.17-.08-1-.46-.16-.07-1.11-.46-.28-.1-.92-.32-.21-.07c-.35-.11-.71-.22-1.06-.31l-.1,0-.25-.06-.49-.11-.38-.08-.48-.09-.37-.07-.48-.06-.37-.05-.48-.05-.36,0-.48,0H83.82l-.55,0H83l-.82.08-.56.07c-.51.07-1,.16-1.52.27l-.08,0c-.48.11-1,.24-1.45.39l-.13,0c-.47.14-.94.31-1.42.49l-.16.07q-.7.27-1.41.6l-.09,0-.13.06-1,.51h0c-.34.18-.69.37-1,.57l-.25.15c-.35.2-.7.41-1,.64l0,0-1,.68a1.7,1.7,0,0,0-.14.1l-.12.08c-.38.26-.76.54-1.14.82l-.16.12-1.08.84L68,348c-.39.31-.78.63-1.18,1l-.25.22c-.41.34-.82.7-1.23,1.07h0l-.09.08-.83.77-.33.3-.63.6-.37.37-.6.58-.39.39-.6.61-.4.4c-.2.22-.41.43-.62.65s-.25.27-.38.41-.47.49-.71.75l-.31.33-1,1.13-.16.18-.9,1-.07.09-.13.14c-.56.64-1.13,1.29-1.7,2a5.56,5.56,0,0,0-.42.54l0,0,0,.09a6.53,6.53,0,0,0-.35.56l-.06.09a.42.42,0,0,1,0,.1,6.66,6.66,0,0,0-.37.82v0c0,.11-.07.21-.1.31a2.58,2.58,0,0,0-.08.26c0,.12-.06.24-.08.36l-.06.24-.06.41,0,.21c0,.21,0,.41,0,.62A5.46,5.46,0,0,0,55,369.84a72.54,72.54,0,0,0,13.15,9.75l.68.37a72.75,72.75,0,0,1-13.15-9.75A5.48,5.48,0,0,1,54,366c0-.2,0-.41,0-.62l0-.21c0-.13,0-.27.05-.4l.06-.25c0-.12.05-.24.08-.36a2.41,2.41,0,0,0,.08-.25c0-.11.07-.23.11-.33a7.81,7.81,0,0,1,.38-.83,1.74,1.74,0,0,1,.1-.19,6.42,6.42,0,0,1,.34-.56l.07-.11c.14-.19.27-.37.42-.54.58-.67,1.15-1.33,1.71-2a2.2,2.2,0,0,1,.2-.23c.3-.35.6-.68.9-1l.15-.17c.35-.39.69-.77,1-1.14l.3-.32.72-.77.37-.39.63-.66.39-.4.61-.61.39-.39.6-.58c.12-.12.24-.25.37-.36l.63-.61.32-.29.85-.79.08-.07c.42-.38.83-.73,1.24-1.08l.25-.22c.39-.33.79-.66,1.18-1l.19-.16,1.09-.84.16-.12,1.13-.82.26-.17c.34-.24.69-.47,1-.69l0,0c.35-.23.69-.44,1-.64l.25-.15c.7-.4,1.38-.76,2.06-1.08l.21-.11q.72-.33,1.41-.6l.17-.07c.47-.18.94-.34,1.41-.49l.14,0q.72-.22,1.44-.39l.08,0c.51-.11,1-.2,1.52-.27l.56-.07c.28,0,.55-.06.83-.07l.28,0Z"/><path class="cls-11" d="M109.05,354.33A6.06,6.06,0,0,1,111,359,8,8,0,0,1,109,364.1c-10.64,12.4-18.15,17.94-25.81,19-8.15,1.09-16.11-2.75-27.49-12.91A5.48,5.48,0,0,1,54,366a7.22,7.22,0,0,1,1.75-4.65c10.84-12.68,18.83-18.62,26.56-19.7l.56-.07C90.44,340.78,98,344.46,109.05,354.33Zm-2.66,7.15a2.78,2.78,0,0,0,0-3.8c-10.53-9.36-17.1-12.76-24.11-11.88-5.7.8-15.37,6.85-23.06,17.6a3,3,0,0,0,.07,3.7C67.94,376,75.31,380,82.81,379c7.3-1,14.73-6.83,23.58-17.5"/></g><g class="cls-2"><polygon class="cls-23" points="19.31 327.41 21.84 327.1 25.38 328.15 22.85 328.46 19.31 327.41"/><polygon class="cls-15" points="27.71 363.9 30.23 363.58 26.76 372.88 24.23 373.19 27.71 363.9"/><polygon class="cls-23" points="22.85 328.46 25.38 328.15 30.67 351.18 28.14 351.49 22.85 328.46"/><polygon class="cls-23" points="29.74 358.45 32.27 358.14 39.09 387.81 36.56 388.12 29.74 358.45"/><polygon class="cls-15" points="35.16 343.95 37.69 343.64 32.27 358.14 29.74 358.45 35.16 343.95"/><polygon class="cls-23" points="31.37 342.73 33.9 342.42 37.69 343.64 35.16 343.95 31.37 342.73"/><polygon class="cls-11" points="22.85 328.46 28.14 351.49 31.37 342.73 35.16 343.95 29.74 358.45 36.56 388.12 32.67 385.47 27.71 363.9 24.23 373.19 20.71 371.66 26.11 356.99 19.31 327.41 22.85 328.46"/></g><path class="cls-13" d="M136.7,227.41l-.12-.66c.44-.07.88-.14,1.33-.19l.08.65C137.55,227.27,137.12,227.33,136.7,227.41Z"/><path class="cls-13" d="M63.57,317.55a15.83,15.83,0,0,1-1.7-2.14l.55-.37a16.06,16.06,0,0,0,1.63,2.06Zm-3-4.5a23.05,23.05,0,0,1-1-2.51l.63-.22a22.6,22.6,0,0,0,1,2.44ZM58.71,308c-.22-.83-.41-1.72-.58-2.64l.65-.12c.17.9.36,1.78.57,2.59Zm-1-5.3c-.11-.87-.2-1.77-.28-2.68l.67-.06c.07.91.16,1.8.27,2.65Zm-.44-5.37c0-.88-.05-1.78-.06-2.69h.66c0,.9,0,1.79.07,2.66Zm.61-5.36-.66,0c0-.88,0-1.78.08-2.68l.66,0C57.94,290.14,57.91,291,57.89,291.92Zm.22-5.34-.66,0c0-.89.12-1.78.19-2.68l.66.05C58.23,284.8,58.17,285.69,58.11,286.58Zm.42-5.34-.66-.06c.08-.88.17-1.77.26-2.67l.66.07C58.7,279.47,58.61,280.36,58.53,281.24Zm.56-5.32-.66-.07c.1-.89.21-1.78.32-2.67l.66.08C59.3,274.15,59.19,275,59.09,275.92Zm31.76-4.37c-.87,0-1.77-.1-2.7-.22l.09-.66a24.46,24.46,0,0,0,2.63.21Zm2.72-.11-.07-.66a14.45,14.45,0,0,0,2.57-.49l.19.64A15.83,15.83,0,0,1,93.57,271.44Zm-8.08-.58c-.86-.18-1.74-.41-2.62-.67l.18-.63c.87.25,1.73.47,2.58.65Zm-25.73-.26-.66-.09c.11-.88.24-1.77.36-2.65l.66.09C60,268.83,59.87,269.72,59.76,270.6Zm39-.69-.31-.58a11.37,11.37,0,0,0,2.12-1.49l.44.49A11.22,11.22,0,0,1,98.8,269.91Zm-18.5-.54c-.83-.3-1.68-.62-2.52-1l.25-.62q1.26.53,2.49,1Zm-5-2.06c-.79-.37-1.61-.77-2.41-1.19l.3-.59c.8.41,1.61.81,2.39,1.18Zm27.54-1.07-.55-.37.24-.37,1.15-1.89.57.34c-.38.63-.76,1.26-1.16,1.9C103,266,102.94,266.11,102.85,266.24Zm-42.36-.94-.65-.1c.12-.88.25-1.76.38-2.64l.66.09Zm10-.48c-.77-.44-1.55-.9-2.31-1.37l.35-.57c.76.47,1.52.93,2.29,1.37ZM66,262c-.74-.5-1.48-1-2.21-1.54l.39-.54c.72.53,1.45,1,2.19,1.53Zm39.67-.34-.58-.33c.46-.78.91-1.55,1.35-2.32l.57.33ZM61.28,260l-.66-.1.25-1.67-1.36-1.12.43-.5c.34.29.69.58,1.05.86l0-.22.65.1-.09.6.43.34-.41.52-.13-.1Zm47-3-.58-.33,1.31-2.31.3.15.28.18Zm-50.81-1.66c-.67-.61-1.33-1.23-2-1.86L56,253c.62.62,1.27,1.24,1.93,1.84Zm4.58-.63-.65-.09.39-2.66.66.1Zm48.86-2.37-.57-.33c.44-.79.88-1.56,1.32-2.33l.58.33Zm-57.26-.8c-.61-.67-1.21-1.35-1.77-2l.51-.42c.55.67,1.14,1.34,1.75,2Zm9.18-2.13-.65-.1c.12-.89.25-1.78.37-2.65l.65.09C63.1,247.61,63,248.5,62.85,249.4Zm50.76-1.71-.58-.34,1.39-2.29.57.34C114.52,246.15,114.07,246.92,113.61,247.69Zm-63.38-.32c-.55-.75-1.06-1.5-1.52-2.23l.56-.35c.45.71,1,1.45,1.5,2.19Zm13.34-3.29-.66-.08c.12-.9.23-1.79.32-2.66l.66.08C63.79,242.29,63.69,243.18,63.57,244.08Zm52.85-.93-.56-.36c.5-.77,1-1.51,1.51-2.23l.54.38C117.41,241.66,116.91,242.39,116.42,243.15Zm-69.07-.35c-.43-.83-.82-1.66-1.14-2.46l.62-.24a24.07,24.07,0,0,0,1.11,2.39Zm72.14-4-.53-.41c.57-.74,1.14-1.44,1.71-2.09l.5.43Q120.33,237.71,119.49,238.8Zm-55.32-.06-.66-.06c.09-.91.16-1.8.22-2.66l.67,0C64.33,236.93,64.26,237.82,64.17,238.74Zm-18.81-1a16.65,16.65,0,0,1-.46-2.69l.66,0A16.39,16.39,0,0,0,46,237.6Zm77.61-3-.47-.47c.65-.65,1.31-1.27,2-1.84l.43.51C124.26,233.55,123.61,234.15,123,234.79Zm-58.43-1.41-.66,0c0-.71,0-1.4,0-2.07v-.59h.66v.6C64.58,232,64.57,232.65,64.54,233.38Zm-18.92-1-.66-.09a11.3,11.3,0,0,1,.68-2.66l.62.24A10.06,10.06,0,0,0,45.62,232.42Zm81.39-1-.38-.55a26.51,26.51,0,0,1,2.3-1.43l.32.59A21.86,21.86,0,0,0,127,231.38Zm4.62-2.53-.25-.61a23.4,23.4,0,0,1,2.56-.89l.18.64C133.27,228.24,132.43,228.53,131.63,228.85ZM63.79,228a19.29,19.29,0,0,0-.4-2.6l.65-.15a20.69,20.69,0,0,1,.41,2.69Zm-16.3-.41-.54-.38a12.93,12.93,0,0,1,1.82-2.06l.45.49A12.54,12.54,0,0,0,47.49,227.63Zm3.8-3.56-.37-.55c.8-.54,1.57-1,2.3-1.42l.32.58C52.83,223.07,52.08,223.54,51.29,224.07Zm11.23-1a4.14,4.14,0,0,0-1.7-1.76l.31-.59a4.78,4.78,0,0,1,2,2Zm-6.61-1.49-.24-.62a10,10,0,0,1,2.67-.69l.07.66A9.26,9.26,0,0,0,55.91,221.53Z"/><path class="cls-13" d="M66.8,320.11c-.39-.22-.78-.47-1.15-.73l.39-.54c.35.25.72.48,1.09.7Z"/><g class="cls-2"><polygon class="cls-25" points="151.6 210.56 151.6 219.3 151.6 247.67 133.64 237.73 133.69 209.37 133.71 200.62 151.6 210.56"/><polygon class="cls-23" points="185.51 205.72 151.6 210.56 133.71 200.62 167.54 195.78 185.51 205.72"/><path class="cls-15" d="M185.53,205.72,185.48,233c0,5.45-4,10.44-9,11.15l-24.87,3.55V210.55Z"/></g><g class="cls-2"><path class="cls-23" d="M176.59,235.2a3.07,3.07,0,0,0-1.21,0,12.37,12.37,0,0,0-1.67.42,9.62,9.62,0,0,1-1.66.42,3.81,3.81,0,0,1-.66.05l-.4,0-.12,0-.22,0-.26-.08,0,0a1,1,0,0,1-.21-.1l.47.26.07,0,.14.06.05,0,.23.07h0l.23,0,.11,0,.4,0a3.66,3.66,0,0,0,.66,0,10.47,10.47,0,0,0,1.67-.42,10.47,10.47,0,0,1,1.67-.42,3.22,3.22,0,0,1,1.2,0Z"/><g class="cls-2"><g class="cls-26"><g class="cls-2"><path class="cls-27" d="M177.06,235.45l-.47-.25h0l.47.26h0"/><path class="cls-28" d="M177.08,235.46l-.47-.26h0l.47.26h0"/></g></g></g><g class="cls-2"><g class="cls-29"><g class="cls-2"><path class="cls-25" d="M168.64,236.71l-.47-.26a2.75,2.75,0,0,1-1.23-1.29l.48.26a2.73,2.73,0,0,0,1.22,1.29"/></g></g></g><path class="cls-23" d="M164.28,235.77l0,0,.39-.34,0,0c.13-.11.27-.21.41-.31l0,0c.11-.08.23-.15.35-.22l0,0c.12-.07.24-.14.37-.2l.09,0,.15-.06.11,0,.16-.06.11,0,.18-.05.09,0,.28,0,.36,0H168l.35.07h0a3.31,3.31,0,0,1,.41.14l-.47-.26a3.24,3.24,0,0,0-.41-.13h0l-.34-.07H167a2.19,2.19,0,0,0-.36,0l-.27,0-.09,0-.19.05-.1,0-.16,0-.11.05-.16.06-.05,0,0,0-.37.19,0,0-.36.23h0l-.42.31,0,0-.4.34h0c-.14.12-.27.25-.4.38h0l-.38.39h0l.47.26.38-.39,0,0Z"/><path class="cls-25" d="M161.59,237.44c-.19-.51-.17-1.05-.62-1.5a.24.24,0,0,1-.06-.09v-.09a.22.22,0,0,1,.05-.08h0a.31.31,0,0,1,.09-.07l0,0,.07,0,.05,0,.1,0,.05,0,.12,0h0a.57.57,0,0,1,.18,0,1.6,1.6,0,0,1,.23,0h.3l.16,0h0l.17.06-.47-.26h0l-.14,0h-.05l-.16,0h-.3l-.24,0-.17,0H161l-.11,0-.06,0-.09,0-.05,0h0l-.06,0-.05,0h0l-.05,0,0,0h0l0,0v0h0s0,0,0,.06v0a.24.24,0,0,0,.06.09c.45.45.43,1,.62,1.5a1.91,1.91,0,0,0,.76,1l.48.26A1.91,1.91,0,0,1,161.59,237.44Z"/><path class="cls-11" d="M167.11,234.24a3.15,3.15,0,0,1,1.64.21c1.25.66,1.25,1.83,3.11,1.85a3.66,3.66,0,0,0,.66,0,10.47,10.47,0,0,0,1.67-.42,10.47,10.47,0,0,1,1.67-.42,3.22,3.22,0,0,1,1.2,0c.35.16.08.42-.29.53a19.47,19.47,0,0,1-4.19,1.14c-2.23.31-4.35,0-5.16-1.7-1.36.5-3.09,3-4.44,3.15-.54.08-1-.21-1.39-1.13-.19-.51-.17-1.05-.62-1.5-.25-.25.22-.47.75-.54a1.36,1.36,0,0,1,1,.13,3.06,3.06,0,0,1,.78,1A6.7,6.7,0,0,1,167.11,234.24Z"/></g><g class="cls-2"><path class="cls-25" d="M175.37,221.51v0s0-.07,0-.1a.08.08,0,0,1,0,0,.36.36,0,0,0-.08-.12L175,221l-.47-.25.28.26a.41.41,0,0,1,.07.11.06.06,0,0,1,0,0,.16.16,0,0,1,0,.1s0,0,0,0a.27.27,0,0,1,0,.13v0a.64.64,0,0,1-.08.14l.47.26,0,0,0-.05,0-.06h0A.31.31,0,0,0,175.37,221.51Z"/><g class="cls-2"><g class="cls-30"><g class="cls-2"><path class="cls-31" d="M175,221l-.47-.25a.18.18,0,0,0-.07,0l.48.26.06,0"/></g></g></g><path class="cls-23" d="M172.67,226.6l0-.06a1.09,1.09,0,0,1-.08-.15l0-.07a.79.79,0,0,1-.06-.22h0a2,2,0,0,1,0-.25v-.07c0-.06,0-.12,0-.18s0-.05,0-.08l.06-.22v0a2.72,2.72,0,0,1,.11-.25l0,0a1.7,1.7,0,0,1,.15-.22l2.43-2.95-.47-.26-2.43,3-.08.11-.07.11,0,0v0a1.47,1.47,0,0,0-.1.22h0v0a1,1,0,0,0-.06.22.25.25,0,0,0,0,.08,1.1,1.1,0,0,0,0,.18v.08a1.94,1.94,0,0,0,0,.24v0l.06.21,0,.07.08.15a.21.21,0,0,1,0,.06l.15.18.07,0,.47.26-.06-.05A1.37,1.37,0,0,1,172.67,226.6Z"/><g class="cls-2"><g class="cls-32"><g class="cls-2"><path class="cls-31" d="M173.29,222l-.47-.26-.07-.05.47.26.07.05"/></g></g></g><polygon class="cls-25" points="173.22 221.91 172.75 221.66 170.09 219.16 170.56 219.41 173.22 221.91"/><path class="cls-11" d="M176.74,220c.41.4.81.76.79,1.22a3.12,3.12,0,0,1-.89,1.51l-3.27,4a.37.37,0,0,1-.27.16.3.3,0,0,1-.27-.08,1.51,1.51,0,0,1,0-2l2.43-2.95a.44.44,0,0,0,0-.59L175,221a.33.33,0,0,0-.27-.08.41.41,0,0,0-.27.16l-.67.81a.45.45,0,0,1-.28.16.35.35,0,0,1-.27-.08l-2.66-2.5a.43.43,0,0,1,0-.59l3-3.67a1,1,0,0,1,.61-.36.7.7,0,0,1,.6.19l2,1.88a1,1,0,0,1,0,1.3,2,2,0,0,0-.59,1C176.18,219.48,176.47,219.74,176.74,220Z"/><path class="cls-23" d="M173.84,214.94l.06,0,.1,0,0,0,.15,0a1.47,1.47,0,0,1,.21,0h0a.44.44,0,0,1,.19.07l-.47-.26h0l-.13-.05h-.09a.74.74,0,0,0-.21,0l-.15,0,0,0-.07,0,0,0-.07,0,0,0,0,.05,0,0,0,0-.09.08,0,0-3,3.67,0,0a.5.5,0,0,0-.06.12h0a.35.35,0,0,0,0,.14v0a.3.3,0,0,0,0,.1s0,0,0,0a.36.36,0,0,0,.08.12l.47.26a.75.75,0,0,1-.07-.12s0,0,0,0a.31.31,0,0,1,0-.1.06.06,0,0,1,0,0,.7.7,0,0,1,0-.14h0a.42.42,0,0,1,.09-.14l3-3.67.13-.13,0,0Z"/><path class="cls-23" d="M168.71,221.26h.12l.08,0-.47-.26h0l-.06,0h0a.24.24,0,0,0-.12,0l-.11,0s0,0,0,0h0l-.05,0s0,0,0,0h0l-6.71,8.18.47.25,6.71-8.17a.45.45,0,0,1,.13-.11h0A.24.24,0,0,1,168.71,221.26Z"/><path class="cls-25" d="M161.61,232.78v-2.87a.51.51,0,0,1,0-.17,1.09,1.09,0,0,1,.08-.15l-.47-.25,0,0,0,0,0,.06h0a.51.51,0,0,0,0,.17v2.87a.36.36,0,0,0,.18.33l.47.26A.36.36,0,0,1,161.61,232.78Z"/><path class="cls-11" d="M169,221.34l2.66,2.5a.44.44,0,0,1,0,.59l-6.71,8.18a.48.48,0,0,1-.27.16l-2.67.37a.33.33,0,0,1-.38-.36v-2.87a.54.54,0,0,1,.11-.32l6.71-8.17a.45.45,0,0,1,.28-.16A.3.3,0,0,1,169,221.34Z"/></g><g class="cls-2"><polygon class="cls-23" points="136.02 207.93 137.38 207.76 139.44 209.03 138.18 209.18 136.02 207.93"/><polygon class="cls-33" points="140.54 227.57 141.9 227.4 140.03 232.41 138.67 232.57 140.54 227.57"/><polygon class="cls-23" points="138.08 209.2 139.44 209.03 142.14 220.72 140.78 220.89 138.08 209.2"/><polygon class="cls-23" points="141.63 224.64 143 224.47 146.61 240.19 145.31 240.31 141.63 224.64"/><polygon class="cls-33" points="144.55 216.84 145.91 216.67 143 224.47 141.63 224.64 144.55 216.84"/><polygon class="cls-23" points="142.73 215.6 144.08 215.42 145.91 216.67 144.55 216.84 142.73 215.6"/><polygon class="cls-11" points="138.06 209.1 140.78 220.89 142.73 215.6 144.55 216.84 141.63 224.64 145.31 240.31 143.21 239.18 140.54 227.57 138.67 232.57 136.84 231.56 139.68 223.85 136.02 207.93 138.06 209.1"/></g><rect class="cls-17" x="53.88" y="87.11" width="11.38" height="1"/><rect class="cls-17" x="53.88" y="90.11" width="24.31" height="1"/><rect class="cls-17" x="53.88" y="93.11" width="24.31" height="1"/><rect class="cls-17" x="53.88" y="96.11" width="24.31" height="1"/><rect class="cls-17" x="53.88" y="99.11" width="24.31" height="1"/><rect class="cls-17" x="53.88" y="102.11" width="24.31" height="1"/><rect class="cls-17" x="53.88" y="105.11" width="24.31" height="1"/><path class="cls-16" d="M82.28,126.72H49.78V80.5h32.5Zm-32-.5h31.5V81H50.28Z"/></g></g></g></svg>