<?xml version="1.0" encoding="utf-8"?>
<!-- Generator: Adobe Illustrator 22.1.0, SVG Export Plug-In . SVG Version: 6.00 Build 0)  -->
<svg version="1.1" id="Ebene_1" xmlns="http://www.w3.org/2000/svg" xmlns:xlink="http://www.w3.org/1999/xlink" x="0px" y="0px"
	 viewBox="0 0 640 480" style="enable-background:new 0 0 640 480;" xml:space="preserve">
<style type="text/css">
	.st0{fill:#CED6DD;}
	.st1{fill:#DEE3E8;}
	.st2{fill:#FFFFFF;}
	.st3{fill:#B8B8B8;}
	.st4{fill:none;stroke:#E5E5E5;stroke-width:0.726;}
	.st5{fill:#BEC8D2;}
	.st6{fill:#E95653;}
	.st7{fill:#7CB892;}
	.st8{fill:none;stroke:#FFFFFF;stroke-width:4.549;}
	.st9{fill:none;stroke:#DEE3E8;stroke-width:1.819;stroke-miterlimit:10;}
	.st10{fill:none;stroke:#CACFD2;stroke-width:1.462;stroke-miterlimit:10;stroke-dasharray:3.412,5.849;}
	.st11{fill:none;stroke:#FFFFFF;stroke-width:3.632;}
</style>
<path class="st0" d="M260.9,464.2v-74.9c0-15.1,12.2-27.3,27.3-27.3h87.3c15.1,0,27.3,12.2,27.3,27.3v74.9H260.9z"/>
<path class="st1" d="M453.2,470.6c0,1.3-20.9,2.4-46.7,2.4H257.2c-25.8,0-46.7-1.1-46.7-2.4v-6.5c0-1.3,20.9-2.4,46.7-2.4h149.3
	c25.8,0,46.7,1.1,46.7,2.4V470.6z"/>
<path class="st1" d="M540.8,432H122.9c-10,0-18.2-8.1-18.2-18.2V147.9c0-10,8.2-18.2,18.2-18.2h417.9c10,0,18.2,8.1,18.2,18.2v265.9
	C559,423.9,550.9,432,540.8,432"/>
<path class="st2" d="M534.5,134.3H129.2c-9.7,0-17.6,7.3-17.6,16.4v240.2h440.6V150.7C552.1,141.6,544.2,134.3,534.5,134.3"/>
<path class="st3" d="M496,361.4H189c-10,0-18.2-8.1-18.2-18.2v-307c0-10,8.2-18.2,18.2-18.2h307c10.1,0,18.2,8.2,18.2,18.2v307
	C514.2,353.2,506.1,361.4,496,361.4"/>
<path class="st2" d="M488.7,350.4h-307c-10.1,0-18.2-8.1-18.2-18.2v-307c0-10,8.2-18.2,18.2-18.2h307c10,0,18.2,8.2,18.2,18.2v307
	C506.9,342.3,498.8,350.4,488.7,350.4"/>
<path class="st4" d="M488.7,350.4h-307c-10.1,0-18.2-8.1-18.2-18.2v-307c0-10,8.2-18.2,18.2-18.2h307c10,0,18.2,8.2,18.2,18.2v307
	C506.9,342.3,498.8,350.4,488.7,350.4z"/>
<path class="st5" d="M488.7,7h-307c-10.1,0-18.2,8.2-18.2,18.2v31.1h343.4V25.2C506.9,15.2,498.8,7,488.7,7"/>
<path class="st6" d="M190,31.3c0,3.2-2.6,5.9-5.8,5.9c-3.2,0-5.9-2.6-5.9-5.9c0-3.2,2.6-5.9,5.9-5.9C187.4,25.5,190,28.1,190,31.3"
	/>
<path class="st1" d="M207.5,31.3c0,3.2-2.6,5.9-5.9,5.9c-3.2,0-5.8-2.6-5.8-5.9c0-3.2,2.6-5.9,5.8-5.9
	C204.9,25.5,207.5,28.1,207.5,31.3"/>
<path class="st7" d="M225.1,31.3c0,3.2-2.6,5.9-5.9,5.9c-3.2,0-5.9-2.6-5.9-5.9c0-3.2,2.6-5.9,5.9-5.9
	C222.5,25.5,225.1,28.1,225.1,31.3"/>
<path class="st8" d="M294.7,31.3h81H294.7z"/>
<path class="st9" d="M182.6,217.8H492H182.6z"/>
<path class="st9" d="M182.6,189.6H492H182.6z"/>
<path class="st9" d="M322.4,161.2H492H322.4z"/>
<rect x="178.3" y="260.3" class="st10" width="313.7" height="55.4"/>
<path class="st11" d="M270.5,288h129.2H270.5z"/>
<polygon class="st7" points="442.5,346.2 416.7,282.3 480.7,308 455.8,321.3 "/>
<rect x="458.8" y="314.4" transform="matrix(0.7062 -0.708 0.708 0.7062 -96.9382 425.239)" class="st7" width="10.2" height="30.1"/>
<polygon class="st2" points="404.2,271.5 395.9,263.2 397.8,261.4 406,269.7 "/>
<polygon class="st2" points="401,277.1 390.3,272.6 391.2,270.3 402,274.7 "/>
<rect x="388.6" y="281" class="st2" width="11.7" height="2.6"/>
<polygon class="st2" points="391.2,294.2 390.3,291.8 401,287.4 402,289.7 "/>
<rect x="395.1" y="296.7" transform="matrix(0.706 -0.7082 0.7082 0.706 -93.1835 371.5525)" class="st2" width="11.6" height="2.6"/>
<polygon class="st2" points="407.1,308.7 404.8,307.8 409.2,297 411.6,298 "/>
<rect x="415.4" y="298.7" class="st2" width="2.6" height="11.6"/>
<rect x="433.2" y="281" class="st2" width="11.7" height="2.6"/>
<polygon class="st2" points="432.5,277.1 431.5,274.7 442.3,270.3 443.2,272.6 "/>
<polygon class="st2" points="429.3,271.5 427.5,269.7 435.7,261.4 437.5,263.2 "/>
<polygon class="st2" points="424.2,267.5 421.9,266.5 426.3,255.8 428.7,256.7 "/>
<rect x="415.4" y="254.1" class="st2" width="2.6" height="11.6"/>
<polygon class="st2" points="409.2,267.5 404.8,256.7 407.1,255.8 411.6,266.5 "/>
<path class="st5" d="M312.4,121.4c1.6-1.6,2.5-3.8,2.5-6c0-2.2-0.8-4.3-2.5-6c-1.6-1.7-3.8-2.5-6-2.5h-36.1l0.9-2.2
	c1.5-3.7,2.7-7.6,3.4-11.7c0.8-4.1,1.2-8.1,1.2-12.1v-3.6c0-2.2-0.8-4.3-2.5-6c-1.7-1.7-3.8-2.5-6-2.5c-2.2,0-4.3,0.8-6,2.5
	c-1.7,1.6-2.5,3.8-2.5,6v-0.9c0,4.1-0.8,8.3-2.5,12.3c-1.7,4-4,7.4-6.9,10.3c-2.5,2.4-5.4,4.4-8.8,5.8c-3.4,1.4-6.9,2-10.3,2h-4.1
	v67.7h17.1h24h24.9c2.2,0,4.3-0.8,6-2.5c1.6-1.7,2.5-3.8,2.5-6c0-2.2-0.8-4.3-2.5-6c-1.7-1.7-3.8-2.5-6-2.5h-24.9h29.6
	c2.2,0,4.3-0.8,6-2.5c1.7-1.6,2.5-3.8,2.5-6c0-2.2-0.8-4.3-2.5-6c-1.7-1.6-3.8-2.5-6-2.5h4.7c2.2,0,4.3-0.8,6-2.5
	c1.6-1.7,2.5-3.8,2.5-6s-0.8-4.3-2.5-6c-1.7-1.7-3.8-2.5-6-2.5h4.8C308.6,123.9,310.7,123,312.4,121.4"/>
<path class="st6" d="M188.5,172c0,1.3,0.4,2.5,1.1,3.5c0.7,1,1.6,1.4,2.6,1.4h32.2c0.9,0,1.9-0.5,2.6-1.4c0.7-1,1.1-2.2,1.1-3.5
	v-62.5c0-1.3-0.4-2.5-1.1-3.5c-0.7-1-1.6-1.4-2.6-1.4h-32.2c-0.9,0-1.9,0.5-2.6,1.4c-0.7,1-1.1,2.2-1.1,3.5V172z"/>
</svg>
