<?xml version="1.0" encoding="utf-8"?>
<!-- Generator: Adobe Illustrator 22.1.0, SVG Export Plug-In . SVG Version: 6.00 Build 0)  -->
<svg version="1.1" id="Ebene_1" xmlns="http://www.w3.org/2000/svg" xmlns:xlink="http://www.w3.org/1999/xlink" x="0px" y="0px"
	 viewBox="0 0 640 480" style="enable-background:new 0 0 640 480;" xml:space="preserve">
<style type="text/css">
	.st0{fill:#D9E1E8;}
	.st1{opacity:0.46;}
	.st2{clip-path:url(#SVGID_2_);fill:#EFF1F4;}
	.st3{fill:#CED6DD;}
	.st4{fill:#FFFFFF;}
	.st5{fill:#7CB892;}
	.st6{fill:#96A0A5;}
	.st7{fill:#8E1007;}
	.st8{fill:#160105;}
	.st9{fill:#E95653;}
	.st10{fill:#FF6F66;}
</style>
<path class="st0" d="M335.8,27l-112,52.2v95.9c0,72.9,46.8,134.8,112,157.4c65.2-22.6,112-84.5,112-157.4V79.2L335.8,27z"/>
<g class="st1">
	<g>
		<defs>
			<rect id="SVGID_1_" x="335.8" y="50.6" width="90.6" height="259"/>
		</defs>
		<clipPath id="SVGID_2_">
			<use xlink:href="#SVGID_1_"  style="overflow:visible;"/>
		</clipPath>
		<path class="st2" d="M335.8,50.6v259.1c54.5-22.1,90.6-75.3,90.6-134.6V92.8L335.8,50.6z"/>
	</g>
</g>
<path class="st3" d="M245.2,92.8v82.3c0,59.3,36.1,112.5,90.6,134.6V50.6L245.2,92.8z"/>
<path class="st4" d="M392.3,177.1c0,31.2-25.3,56.5-56.5,56.5c-31.2,0-56.5-25.3-56.5-56.5c0-31.2,25.3-56.5,56.5-56.5
	C367,120.5,392.3,145.9,392.3,177.1"/>
<polygon class="st5" points="325.4,206.1 300.5,181.2 308.8,172.9 325.4,189.5 362.7,152.2 371,160.5 "/>
<path class="st6" d="M102.3,351.7c0-1.5-1.4-2.8-2.8-2.7c-3.9,0.1-9.3,0.6-15.5,1.2c-22.5,2.1-60.1,5.6-71.9-6.4
	c-2.9-2.9-4-6.6-3.5-11.4c2.5-22.3,38.6-48.3,53.9-59.4c18.7-13.5,41.4-25.4,50.2-21.5c2.3,1,3.6,3.2,4,6.7c0.4,3.8-1.7,9-5.6,13.8
	c-4.2,5.1-9.7,8.7-13.6,9c-1.5,0.1-2.6,1.4-2.5,3c0.1,1.5,1.5,2.8,3,2.5c5.5-0.4,12.2-4.7,17.4-11c5-6,7.5-12.5,6.9-17.9
	c-0.8-6.9-4.4-9.9-7.3-11.2c-14.5-6.4-46.3,15.3-55.7,22.1c-16,11.5-53.4,38.6-56.2,63.3c-0.7,6.4,1,11.7,5,15.8
	c7.8,8,23.6,10.2,40.4,10.2c12.4,0,25.3-1.2,35.9-2.2c6.1-0.6,11.4-1.1,15.1-1.2C101.2,354.5,102.4,353.3,102.3,351.7"/>
<path class="st6" d="M210.3,340.5c0,0,0.8-2.3,1.9-3.7c-12.2-1.8-12,6.2-29.1,11.5c0.5-0.8,1-1.6,1.5-2.5
	c17.2-8.5,36-25.3,46.2-40.7c7.6-11.5,9.7-21.2,5.9-27.8c-2.2-3.9-5.1-4.5-7.1-4.6c-10.1,0.1-22.3,20.9-39.8,52.6
	c-3.2,5.8-6.3,11.5-9.2,16.4c-6.6,3.1-12.8,4.7-17.7,4.1c-4.3-0.5-7-2.1-9.8-3.9c-3.8-2.3-7.8-4.8-14.8-4.1
	c-3.6,0.3-7.5,2.9-11.9,6.7c7-9.7,16-20.5,23-19.1c1.5,0.3,2.9-0.7,3.2-2.2c0.3-1.5-0.7-2.9-2.2-3.2c-12.4-2.3-24.7,15.5-33.6,28.5
	c-1.9,2.8-3.7,5.4-5.2,7.3l-0.5,0.6l-0.1,0.8c-0.3,2.6,1.2,3.5,1.8,3.9c2.6,1.3,4.9-0.9,10.5-6.3c4.3-4.2,11.6-11.2,15.4-11.5
	c5.2-0.4,8,1.2,11.5,3.4c3.1,1.9,6.6,4,12.1,4.7c4.1,0.5,8.7-0.3,13.7-1.9c-0.6,0.9-1.1,1.8-1.7,2.6c-3.6,1.2-7.8,2.4-12.3,3.7
	c-24.2,7-57.3,16.5-67.7,40.5c-5.5,12.7-3.7,27.9,5.3,45.3c2.5,4.8,5.8,7.3,9.8,7.4h0.2c13.1,0,28.8-25.7,49.6-61.9
	c6.8-11.9,13.3-23.2,18.3-30c0.1-0.1,0.2-0.3,0.3-0.4c2.9-1,5.3-2.2,7.3-3.1C203.4,345.6,202.6,339.9,210.3,340.5 M194.6,328
	c10.9-19.8,27.4-49.7,35-49.7h0c0.3,0,1.2,0.1,2.2,1.9c2.6,4.6,0.6,12.4-5.7,22c-8.2,12.5-22.5,25.9-36.4,34.6
	C191.3,333.9,192.9,330.9,194.6,328 M154.4,384.2c-14.3,25-34,59.1-44.8,59.1h-0.1c-0.7,0-2.8-0.1-5-4.4
	c-8.2-15.9-9.9-29.5-5.1-40.6c9.3-21.6,41-30.7,64.2-37.4c2-0.6,3.9-1.1,5.7-1.7C164.9,366.1,159.8,375,154.4,384.2"/>
<path class="st7" d="M225.5,339.5c0,0-8.4-0.6-8.7-1.8c-0.2-0.8,8-5,8-5L225.5,339.5z"/>
<path class="st8" d="M218.2,336.5c-0.8,0.6-1.4,1-1.3,1.3c0.1,0.3,0.8,0.6,1.8,0.8C218.4,337.9,218.2,337.2,218.2,336.5"/>
<path class="st9" d="M265.2,347.2c-1.6-0.5-32.6-5.4-41-7.3c-1.3-0.9-2.2-5.4-0.9-6.7c4.7-2.9,36.2-17.9,36.2-17.9L265.2,347.2z"/>
<path class="st0" d="M334.2,296.7l-72.5,17.6c-4.9,1.2-9.1,6.4-7.2,16.8c2.1,11.6,8,16.5,12.6,16.2l70.8-7.9L334.2,296.7z"/>
<path class="st0" d="M254.8,321c-0.7,2.2-1,4.9-0.6,8.3l68.2-12.6l1.3-12L254.8,321z"/>
<path class="st9" d="M331.7,297.6c-6.8,0.5-11.3,10-8.9,22.4c2.3,11.6,8.2,19.9,15,19.5l284.8-43.1l-10-61.3L331.7,297.6z"/>
<path class="st10" d="M603.5,241.5l-279.8,63.2c-1.3,3.2-1.7,7.3-1.3,12l277.3-54.2C599.2,254.2,600.6,246.7,603.5,241.5"/>
<path class="st10" d="M254.5,331.1c-1-5.2-0.4-9.1,1.1-11.9c-8.4,4.9-27.4,12.2-32.9,15.5c-0.1,1,0.1,2.3,0.4,3.3l32-4.3
	C254.9,332.9,254.7,332.1,254.5,331.1"/>
<path class="st0" d="M612.7,235.1c-6,1-10.4,7-12.3,15.5c-0.9,0.1-1.8,0.2-2.7,0.4l-118.3,29.6c-3.8,1-5.9,6.5-4.7,12.4
	c1.2,5.9,5.1,10.2,9,9.7l120.7-17.1c0.5-0.1,1-0.2,1.5-0.3c4.5,7.6,10.7,12,16.7,11c9.7-1.6,15.4-16.6,12.6-33.5
	C632.6,246,622.4,233.5,612.7,235.1"/>
</svg>
