<?xml version="1.0" encoding="utf-8"?>
<!-- Generator: Adobe Illustrator 24.1.3, SVG Export Plug-In . SVG Version: 6.00 Build 0)  -->
<svg version="1.1" id="Ebene_1" xmlns="http://www.w3.org/2000/svg" xmlns:xlink="http://www.w3.org/1999/xlink" x="0px" y="0px"
	 viewBox="0 0 650 480" style="enable-background:new 0 0 650 480;" xml:space="preserve">
<style type="text/css">
	.st0{clip-path:url(#SVGID_2_);}
	.st1{clip-path:url(#SVGID_4_);fill:url(#SVGID_5_);}
	.st2{clip-path:url(#SVGID_7_);fill:url(#SVGID_8_);}
	.st3{fill:#0A2D44;}
	.st4{fill:#071E31;}
	.st5{fill:#FFFFFF;}
	.st6{fill:#6D6E71;}
	.st7{opacity:0.33;}
	.st8{clip-path:url(#SVGID_10_);fill:#FFFFFF;}
	.st9{fill:#F8F9FA;}
	.st10{fill:#586371;}
	.st11{fill:#E11E19;}
	.st12{fill:none;stroke:#DFE4E9;stroke-width:0.5;stroke-miterlimit:10;}
	.st13{fill:#8C9097;}
	.st14{fill:#7FC3DE;}
	.st15{fill:#D5F3FB;}
	.st16{fill:#E1E7EC;}
	.st17{fill:#A4D5C2;}
	.st18{fill:#212934;}
	.st19{fill:#8E1007;}
	.st20{fill:#160105;}
	.st21{fill:#F3331E;}
	.st22{fill:#280810;}
	.st23{fill:#FF6F66;}
	.st24{fill:#F2F2F2;}
	.st25{fill:#40A5CE;}
	.st26{fill:#E95653;}
	.st27{enable-background:new    ;}
	.st28{fill:#F08E8C;}
	.st29{fill:#DF1D18;}
	.st30{clip-path:url(#SVGID_12_);enable-background:new    ;}
	.st31{clip-path:url(#SVGID_14_);enable-background:new    ;}
	.st32{fill:#858585;}
</style>
<g>
	<g>
		<g>
			<defs>
				<rect id="SVGID_1_" x="4.9" y="1.2" width="640" height="480"/>
			</defs>
			<clipPath id="SVGID_2_">
				<use xlink:href="#SVGID_1_"  style="overflow:visible;"/>
			</clipPath>
			<g class="st0">
				<g>
					<g>
						<g>
							<g>
								<defs>
									<path id="SVGID_3_" d="M91.1,75.9c-13,0-23.5,10.6-23.5,23.5v308.3h523.5V99.4c0-13-10.5-23.5-23.5-23.5H91.1z"/>
								</defs>
								<clipPath id="SVGID_4_">
									<use xlink:href="#SVGID_3_"  style="overflow:visible;"/>
								</clipPath>
								
									<linearGradient id="SVGID_5_" gradientUnits="userSpaceOnUse" x1="-160.9904" y1="-1964.2657" x2="-159.9982" y2="-1964.2657" gradientTransform="matrix(527.5743 0 0 527.5743 85002.0156 1036537.875)">
									<stop  offset="0" style="stop-color:#FFFFFF"/>
									<stop  offset="5.454550e-02" style="stop-color:#FFFFFF"/>
									<stop  offset="0.2" style="stop-color:#FFFFFF"/>
									<stop  offset="0.6364" style="stop-color:#FFFFFF"/>
									<stop  offset="0.9364" style="stop-color:#FFFFFF"/>
									<stop  offset="0.9455" style="stop-color:#FFFFFF"/>
									<stop  offset="0.9773" style="stop-color:#DEE3E8"/>
									<stop  offset="1" style="stop-color:#FFFFFF"/>
								</linearGradient>
								<rect x="67.6" y="75.9" class="st1" width="523.5" height="331.8"/>
							</g>
						</g>
					</g>
				</g>
				<g>
					<g>
						<g>
							<g>
								<defs>
									<path id="SVGID_6_" d="M91.3,76.2c-13.1,0-23.7,10.7-23.7,23.7v310.7h527.6V99.9c0-13.1-10.6-23.7-23.7-23.7H91.3z"/>
								</defs>
								<clipPath id="SVGID_7_">
									<use xlink:href="#SVGID_6_"  style="overflow:visible;"/>
								</clipPath>
								
									<linearGradient id="SVGID_8_" gradientUnits="userSpaceOnUse" x1="-160.9904" y1="-1964.2627" x2="-159.9904" y2="-1964.2627" gradientTransform="matrix(527.5743 0 0 527.5743 85002.0156 1036537.875)">
									<stop  offset="0" style="stop-color:#666666"/>
									<stop  offset="5.454550e-02" style="stop-color:#CCCCCC"/>
									<stop  offset="0.2" style="stop-color:#333333"/>
									<stop  offset="0.6364" style="stop-color:#333333"/>
									<stop  offset="0.9364" style="stop-color:#6B6C6F"/>
									<stop  offset="0.9455" style="stop-color:#6D6E71"/>
									<stop  offset="0.9773" style="stop-color:#FFFFFF"/>
									<stop  offset="1" style="stop-color:#616161"/>
								</linearGradient>
								<rect x="67.6" y="76.2" class="st2" width="527.6" height="334.4"/>
							</g>
						</g>
					</g>
				</g>
				<path class="st3" d="M636.5,416.7H31.8c-1.7,0-3-1.4-3-3v-3.2c0-1.7,1.4-3,3-3h604.7c1.7,0,3,1.4,3,3v3.2
					C639.5,415.4,638.2,416.7,636.5,416.7"/>
				<path class="st4" d="M342.4,416.7H31.8c0,0,11.7,5.4,14.8,6.9c0.4,0.2,0.9,0.3,1.4,0.3h294.3h277.9c0.4,0,0.8-0.1,1.2-0.2
					c3.3-1.3,15.5-7,15.5-7L342.4,416.7z"/>
				<path class="st4" d="M567.5,79H91.1c-11.3,0-20.4,9.1-20.4,20.4v305.2H588V99.4C588,88.1,578.8,79,567.5,79"/>
				<rect x="91.1" y="99.4" class="st5" width="476.4" height="284.7"/>
				<path class="st6" d="M246.9,407.9c0,3,2.4,5.4,5.4,5.4H416c3,0,5.4-2.4,5.4-5.4c0-0.1,0-0.3,0-0.4H246.9
					C246.9,407.6,246.9,407.8,246.9,407.9"/>
				<g class="st7">
					<g>
						<g>
							<g>
								<g>
									<defs>
										<rect id="SVGID_9_" x="68.1" y="77.7" width="295.5" height="366.1"/>
									</defs>
									<clipPath id="SVGID_10_">
										<use xlink:href="#SVGID_9_"  style="overflow:visible;"/>
									</clipPath>
									<path class="st8" d="M91.1,77.7c-12.7,0-23,9.3-23,20.7v309.2h63.2l232.3-330L91.1,77.7L91.1,77.7z"/>
								</g>
							</g>
						</g>
					</g>
				</g>
				<g>
					<g>
						<rect x="157" y="111.8" class="st9" width="394.2" height="249.4"/>
						<g>
							<rect x="94.6" y="110.1" class="st5" width="62.4" height="251.1"/>
							<rect x="96.3" y="111.8" class="st5" width="60.7" height="9.4"/>
							<path class="st10" d="M154.6,118.8l0.6-0.6l-2-2l2-2l-0.6-0.6l-2.6,2.6L154.6,118.8z"/>
							<path class="st11" d="M101,124.6h-3.3c-0.3,0-0.5-0.2-0.5-0.5v-3.8h0.5v3.8h3.3V124.6z M100.7,118.6h-1.9
								c-0.3,0-0.5,0.2-0.5,0.5v3.8c0,0.3,0.2,0.5,0.5,0.5h3c0.3,0,0.5-0.2,0.5-0.5v-2.7L100.7,118.6z M98.8,123v-3.8h1.6v1.4h1.4
								v2.4H98.8z"/>
							<line class="st12" x1="157" y1="100.7" x2="157" y2="361.2"/>
							<line class="st12" x1="104" y1="112.3" x2="104" y2="361.7"/>
							<line class="st12" x1="94.6" y1="361.2" x2="552" y2="361.3"/>
							<line class="st12" x1="551.2" y1="118.2" x2="551.6" y2="361.7"/>
							<rect x="95" y="127.6" class="st9" width="8.6" height="233.6"/>
							<g>
								<path class="st10" d="M96.9,141.3h0.9l0.2,0.5h0.6l-0.9-2.4H97l-0.9,2.4h0.6L96.9,141.3z M97.3,140.1c0-0.1,0-0.1,0-0.2
									C97.3,139.9,97.4,140,97.3,140.1l0.3,0.8H97L97.3,140.1z"/>
								<path class="st10" d="M100.4,141.6c0.2-0.1,0.2-0.3,0.2-0.5c0-0.1-0.1-0.3-0.2-0.4c-0.1-0.1-0.3-0.2-0.4-0.2
									c0.1,0,0.2-0.1,0.3-0.2c0.1-0.1,0.1-0.2,0.1-0.3c0-0.2-0.1-0.3-0.2-0.4c-0.2-0.1-0.4-0.2-0.6-0.1h-0.9v2.4h0.9
									C99.9,141.8,100.2,141.8,100.4,141.6z M99.3,139.8h0.2c0.3,0,0.4,0.1,0.4,0.3c0,0.1,0,0.2-0.1,0.2c-0.1,0.1-0.2,0.1-0.3,0.1
									h-0.2V139.8z M99.3,141.4v-0.6h0.3c0.1,0,0.2,0,0.3,0.1c0.1,0.1,0.1,0.1,0.1,0.2c0,0.1,0,0.2-0.1,0.2
									c-0.1,0.1-0.2,0.1-0.3,0.1H99.3z"/>
								<path class="st10" d="M102,141.8c0.2,0,0.5,0,0.7-0.1v-0.5c-0.2,0.1-0.4,0.1-0.5,0.1c-0.2,0-0.4-0.1-0.5-0.2
									c-0.1-0.1-0.2-0.3-0.2-0.5s0.1-0.4,0.2-0.5s0.3-0.2,0.5-0.2s0.4,0.1,0.5,0.2v-0.5c-0.2-0.1-0.4-0.1-0.6-0.1
									c-0.3,0-0.6,0.1-0.9,0.3c-0.2,0.2-0.4,0.6-0.3,0.9c0,0.3,0.1,0.6,0.3,0.8S101.7,141.8,102,141.8z"/>
								<rect x="96.1" y="145.7" class="st10" width="6.5" height="0.3"/>
								<rect x="96.1" y="143.6" class="st10" width="1.8" height="1.8"/>
								<rect x="98.5" y="142.7" class="st10" width="1.8" height="2.7"/>
								<rect x="100.9" y="142.1" class="st10" width="1.8" height="3.3"/>
							</g>
							<path class="st10" d="M97.7,129.8c-0.3,0-0.6,0.3-0.6,0.6v4.5c0,0.3,0.3,0.6,0.6,0.6h2.4c0.9,0.6,2.2,0.3,2.7-0.7
								c0.6-0.9,0.3-2.2-0.7-2.7c-0.2-0.1-0.3-0.2-0.5-0.2v-0.4l-1.7-1.7L97.7,129.8 M97.7,130.4h2v1.4h1.4c-1.1,0-2,0.9-2,2
								c0,0.4,0.1,0.8,0.4,1.1h-1.8V130.4 M101.1,132.3c0.8,0,1.4,0.6,1.4,1.4c0,0.8-0.6,1.4-1.4,1.4s-1.4-0.6-1.4-1.4
								C99.6,133,100.3,132.3,101.1,132.3 M100.8,133.6h0.6v1.3h-0.6V133.6z M101.1,132.6c0.2,0,0.4,0.2,0.4,0.4s-0.2,0.4-0.4,0.4
								c-0.2,0-0.4-0.2-0.4-0.4S100.9,132.6,101.1,132.6L101.1,132.6z"/>
							<line class="st12" x1="94.6" y1="111.8" x2="156.9" y2="111.8"/>
							<line class="st12" x1="104.8" y1="121.2" x2="157.8" y2="121.2"/>
						</g>
					</g>
					<rect x="94.6" y="100.7" class="st5" width="468.1" height="11.1"/>
					<rect x="157" y="111.8" class="st10" width="394.2" height="6.4"/>
					<g>
						<path class="st10" d="M169.5,107h-0.3l-0.1-0.1c0.3-0.4,0.5-0.9,0.5-1.4c0-1.2-1-2.2-2.2-2.2s-2.2,1-2.2,2.2s1,2.2,2.2,2.2
							c0.5,0,1.1-0.2,1.4-0.5l0.1,0.1v0.3l1.7,1.7l0.5-0.5L169.5,107z M167.4,107c-0.8,0-1.5-0.7-1.5-1.5s0.7-1.5,1.5-1.5
							s1.5,0.7,1.5,1.5S168.3,107,167.4,107z"/>
						<path class="st10" d="M168.3,105.6h-0.7v0.7h-0.3v-0.7h-0.7v-0.3h0.7v-0.7h0.3v0.7h0.7V105.6z"/>
					</g>
					<path class="st10" d="M178.9,107h-0.3l-0.1-0.1c0.3-0.4,0.5-0.9,0.5-1.4c0-1.2-1-2.2-2.2-2.2s-2.2,1-2.2,2.2s1,2.2,2.2,2.2
						c0.6,0,1.1-0.2,1.4-0.5l0.1,0.1v0.3l1.7,1.7l0.5-0.5L178.9,107z M176.9,107c-0.9,0-1.5-0.7-1.5-1.5s0.7-1.5,1.5-1.5
						c0.9,0,1.5,0.7,1.5,1.5S177.7,107,176.9,107z M176,105.3h1.7v0.3H176V105.3z"/>
					<g>
						<polygon class="st10" points="191.1,108.8 190.8,108.6 190.3,109.2 190.8,109.8 191.1,109.6 190.8,109.3 191.5,109.3 
							191.5,109.3 191.5,109.3 191.5,109.1 191.5,109 190.8,109 						"/>
						<polygon class="st10" points="192.5,109.6 192.7,109.8 193.3,109.2 192.7,108.6 192.5,108.8 192.7,109 192.1,109 192.1,109.1 
							192.1,109.1 192.1,109.3 192.1,109.3 192.7,109.3 						"/>
						<path class="st10" d="M193.6,103.7v0.9h-3.7v-0.9h-0.6v0.9c0,0.3,0.3,0.6,0.6,0.6h3.7c0.3,0,0.6-0.3,0.6-0.6v-0.9H193.6z"/>
						<path class="st10" d="M189.9,109.8v-3h2.1v1.5h1.5v1.5h0.6V108l-1.8-1.8h-2.4c-0.3,0-0.6,0.3-0.6,0.6v3
							C189.3,109.8,189.9,109.8,189.9,109.8z"/>
					</g>
					<g>
						<path class="st10" d="M201.3,104H199c-0.3,0-0.6,0.3-0.6,0.6v4.7c0,0.3,0.3,0.6,0.6,0.6h3.6c0.3,0,0.6-0.3,0.6-0.6v-3.6
							L201.3,104z M199,109.4v-4.7h2.1v1.5h1.5v3.3H199V109.4z"/>
						<polygon class="st10" points="200,107.4 199.8,107.2 199.3,107.7 199.8,108.3 200,108.1 199.8,107.9 200.4,107.9 200.4,107.8 
							200.4,107.8 200.4,107.6 200.4,107.6 199.8,107.6 						"/>
						<polygon class="st10" points="200.4,108.4 200.2,108.6 200.7,109.2 201.3,108.6 201.1,108.4 200.9,108.6 200.9,108 200.8,108 
							200.8,108 200.6,108 200.6,108 200.6,108.6 						"/>
						<polygon class="st10" points="201.4,108.1 201.6,108.3 202.2,107.7 201.6,107.2 201.4,107.4 201.6,107.6 201,107.6 201,107.6 
							201,107.6 201,107.8 201,107.9 201.6,107.9 						"/>
						<polygon class="st10" points="201.1,107 201.3,106.8 200.7,106.3 200.2,106.8 200.4,107 200.6,106.8 200.6,107.4 200.6,107.4 
							200.6,107.4 200.8,107.4 200.9,107.4 200.9,106.8 						"/>
					</g>
					<path class="st10" d="M209.1,105.3l-0.4-0.4c-0.3,0.4-0.4,0.8-0.5,1.2h0.6C208.8,105.8,208.9,105.5,209.1,105.3z M208.8,106.6
						h-0.6c0.1,0.4,0.2,0.8,0.5,1.2l0.4-0.4C208.9,107.2,208.8,106.9,208.8,106.6z M209.1,108.3c0.4,0.3,0.8,0.4,1.2,0.5v-0.6
						c-0.3,0-0.5-0.1-0.7-0.3L209.1,108.3z M210.9,103.9V103l-1.4,1.4l1.4,1.4v-1.2c0.9,0.1,1.5,0.9,1.5,1.8s-0.7,1.7-1.5,1.8v0.6
						c1.2-0.1,2.1-1.2,2.1-2.4S212.1,104.1,210.9,103.9z"/>
					<path class="st10" d="M222.3,106.1h0.6c-0.1-0.4-0.2-0.9-0.5-1.2l-0.4,0.4C222.1,105.6,222.2,105.8,222.3,106.1z M221.5,104.9
						l0.4-0.4c-0.3-0.3-0.7-0.4-1.2-0.5v0.6C221.1,104.6,221.3,104.7,221.5,104.9z M220.2,104c-0.4,0.1-0.8,0.2-1.2,0.5l0.4,0.4
						c0.2-0.2,0.5-0.3,0.8-0.3V104z M222,108.3l0.7,0.7v-2h-1.9l0.8,0.8c-0.7,0.5-1.7,0.4-2.3-0.2s-0.7-1.6-0.2-2.3l-0.4-0.4
						c-0.7,1-0.7,2.3,0.2,3.2C219.6,109,221,109.1,222,108.3z"/>
					<path class="st10" d="M231.1,107.4h-0.7v1.8h1.8v-0.7h-1.1V107.4z M230.4,106h0.7v-1.1h1.1v-0.7h-1.8V106z M234.7,108.5h-1.1
						v0.7h1.8v-1.8h-0.7V108.5z M233.7,104.2v0.7h1.1v1.1h0.7v-1.8C235.5,104.2,233.7,104.2,233.7,104.2z"/>
					<path class="st10" d="M239.8,104.7h2.1c0-0.3,0.2-0.5,0.5-0.5s0.5,0.2,0.5,0.5h2.1v0.5h-0.3v3h-1.5l0.5,1.6h-0.5l-0.5-1.6H242
						l-0.5,1.6H241l0.5-1.6H240v-3h-0.3v-0.5 M240.6,105.2v2.4h3.8v-2.4H240.6z"/>
					<g>
						<path class="st10" d="M99.7,103.4h5.1v5.1h-5.1V103.4z"/>
						<path class="st5" d="M103.9,105.7h-2.6l1.2-1.2l-0.3-0.3l-1.7,1.7l1.7,1.7l0.3-0.3l-1.2-1.2h2.6V105.7z"/>
					</g>
					<path class="st13" d="M109.8,105.8l-0.5,2.1v-2.6h4.4c0-0.3-0.2-0.5-0.5-0.5h-1.8l-0.5-0.5h-1.6c-0.3,0-0.5,0.2-0.5,0.5v3.1
						c0,0.3,0.2,0.5,0.5,0.5h3.9c0.2,0,0.4-0.2,0.5-0.4l0.6-2.2H109.8 M113.1,107.8h-3.4l0.4-1.6h3.4L113.1,107.8z"/>
					<path class="st10" d="M132.1,104.4h-0.3v-1.7h-4.1v1.7h-0.3c-0.6,0-1,0.5-1,1v2h1.4v1.4h4.1v-1.4h1.4v-2
						C133.2,104.8,132.7,104.4,132.1,104.4z M128.4,103.4h2.7v1h-2.7V103.4z M131.1,107.4v0.7h-2.7v-1.4h2.7V107.4z M131.8,106.8
						v-0.7h-4.1v0.7H127v-1.4c0-0.2,0.2-0.3,0.3-0.3h4.8c0.2,0,0.3,0.2,0.3,0.3v1.4H131.8z"/>
					<circle cx="131.8" cy="105.6" r="0.3"/>
					<path class="st10" d="M140.8,106.6c-0.2,0-0.4,0.1-0.5,0.2l-1.9-1.1c0-0.1,0-0.1,0-0.2s0-0.1,0-0.2l1.9-1.1
						c0.1,0.1,0.3,0.2,0.5,0.2c0.4,0,0.8-0.4,0.8-0.8s-0.4-0.8-0.8-0.8c-0.4,0-0.8,0.4-0.8,0.8c0,0.1,0,0.1,0,0.2l-1.9,1.1
						c-0.1-0.1-0.3-0.2-0.5-0.2c-0.4,0-0.8,0.4-0.8,0.8s0.4,0.8,0.8,0.8c0.2,0,0.4-0.1,0.5-0.2l1.9,1.1c0,0.1,0,0.1,0,0.2
						c0,0.4,0.4,0.8,0.8,0.8c0.4,0,0.8-0.4,0.8-0.8S141.2,106.6,140.8,106.6z"/>
					<g>
						<path class="st10" d="M558.7,120.1l-0.6-0.6l2-2l-2-2l0.6-0.6l2.6,2.6L558.7,120.1z"/>
						<g>
							<g id="Bounding_Boxes_1_">
								<path class="st10" d="M556.3,104.6h6.8v6.8h-6.8V104.6z"/>
							</g>
							<g id="Outline_2_">
								<path class="st5" d="M561.7,106.4l-0.4-0.4l-1.6,1.6l-1.6-1.6l-0.4,0.4l1.6,1.6l-1.6,1.6l0.4,0.4l1.6-1.6l1.6,1.6l0.4-0.4
									l-1.6-1.6L561.7,106.4z"/>
							</g>
						</g>
					</g>
				</g>
				<g>
					<polyline class="st14" points="468.5,36.2 468.5,357.1 261.4,357.1 233.3,337.7 233.3,36.2 					"/>
					<polygon class="st15" points="261.4,357.1 233.3,337.7 249.3,336.2 					"/>
					<rect x="245" y="57.5" class="st10" width="212.3" height="19"/>
					<rect x="306.7" y="90.7" class="st16" width="90.8" height="11"/>
					<rect x="249.8" y="113.6" class="st16" width="50.6" height="5.6"/>
					<rect x="308" y="113.6" class="st16" width="96.5" height="5.6"/>
					<rect x="412.2" y="113.6" class="st16" width="44.4" height="5.6"/>
					<rect x="249.8" y="123.4" class="st16" width="206.8" height="5.6"/>
					<rect x="403.6" y="133.4" class="st16" width="53" height="5.6"/>
					<rect x="249.8" y="133.4" class="st16" width="146.1" height="5.6"/>
					<rect x="249.8" y="143.2" class="st16" width="206.8" height="5.6"/>
					<rect x="295.4" y="153" class="st16" width="70.5" height="5.6"/>
					<rect x="249.8" y="153" class="st16" width="38" height="5.6"/>
					<rect x="373.5" y="153" class="st16" width="83" height="5.6"/>
					<rect x="334.9" y="162.9" class="st16" width="121.6" height="5.6"/>
					<rect x="249.8" y="162.9" class="st16" width="77.5" height="5.6"/>
					<rect x="249.8" y="172.7" class="st16" width="206.8" height="5.6"/>
					<rect x="249.8" y="182.7" class="st16" width="128.8" height="5.6"/>
					<rect x="386.2" y="182.7" class="st16" width="70.3" height="5.6"/>
					<rect x="249.8" y="192.5" class="st16" width="206.8" height="5.6"/>
					<rect x="249.8" y="202.4" class="st16" width="67.3" height="5.6"/>
					<rect x="324.6" y="202.4" class="st16" width="132" height="5.6"/>
					<rect x="249.8" y="212.2" class="st16" width="100.4" height="5.6"/>
					<rect x="357.8" y="212.2" class="st16" width="65" height="5.6"/>
					<rect x="430.4" y="212.2" class="st16" width="26.2" height="5.6"/>
					<rect x="249.8" y="222.1" class="st16" width="206.8" height="5.6"/>
					<rect x="249.8" y="232" class="st16" width="89.3" height="5.6"/>
					<rect x="249.8" y="276.1" class="st16" width="89.3" height="5.6"/>
					<rect x="249.8" y="287.7" class="st16" width="89.3" height="5.6"/>
					<rect x="365.2" y="276.1" class="st16" width="89.3" height="5.6"/>
					<rect x="365.2" y="287.7" class="st16" width="89.3" height="5.6"/>
					<rect x="249.8" y="316" class="st16" width="89.3" height="1.1"/>
					<rect x="365.2" y="316" class="st16" width="89.3" height="1.1"/>
					<rect x="346.7" y="232" class="st16" width="66.6" height="5.6"/>
					<rect x="421" y="232" class="st16" width="35.6" height="5.6"/>
					<path class="st17" d="M288.3,307.1c-4.4,0-8.7-0.9-12.9-2.6c-8.2-3.5-14.7-9.9-18.2-18.2c-3.4-8.2-3.4-17.4,0-25.7
						c5.3-12.6,17.4-20.6,31-20.6c4.4,0,8.7,0.9,12.9,2.6c17.1,7,25.2,26.8,18.2,43.9C314.1,298.9,302,307.1,288.3,307.1
						L288.3,307.1z M288.4,241.5c-13,0-24.6,7.7-29.6,19.7c-3.3,7.9-3.3,16.6,0,24.5c3.3,7.9,9.4,14.1,17.4,17.4
						c4,1.6,8,2.5,12.3,2.5c13,0,24.6-7.7,29.6-19.7c3.3-7.9,3.3-16.6,0-24.5s-9.4-14.1-17.4-17.4
						C296.7,242.3,292.6,241.5,288.4,241.5 M290.6,298.1l2.6-0.3l0.8,5.8l-2.6,0.3L290.6,298.1z M275.8,301.2l2.3-5.4l2.4,1
						l-2.3,5.4L275.8,301.2z M302.6,293.8l2-1.6l3.6,4.7l-2,1.6L302.6,293.8z M288.3,296.6c-3.1,0-6-0.6-8.8-1.8
						c-5.7-2.4-10.1-6.7-12.4-12.5c-2.4-5.7-2.4-11.9,0-17.7c3.6-8.6,11.9-14.2,21.2-14.2c3.1,0,6,0.6,8.8,1.8
						c5.7,2.4,10.1,6.7,12.4,12.5c2.4,5.7,2.4,11.9,0,17.7C306.1,291,297.7,296.6,288.3,296.6L288.3,296.6z M288.4,251.3
						c-9,0-17.1,5.4-20.5,13.7c-4.7,11.3,0.7,24.3,12,29.1c2.7,1.1,5.6,1.7,8.5,1.7c9,0,17.1-5.4,20.5-13.7
						c4.7-11.3-0.7-24.3-12-29.1C294.2,251.8,291.3,251.3,288.4,251.3 M288.3,293.3c-2.6,0-5.2-0.5-7.5-1.5c-3.9-1.6-7-4.4-9.2-7.9
						l1,0.4c2.1,3.2,5.1,5.6,8.5,6.9c2.4,1,4.8,1.5,7.3,1.5c1.2,0,2.5-0.1,3.7-0.4l1,0.4C291.4,293.1,289.9,293.3,288.3,293.3
						 M263.6,291.1l4.7-3.6l1.6,2l-4.7,3.6L263.6,291.1z M301.7,287.3c1-1,2-2.1,2.8-3.3l0.6,0.2c-0.8,1.2-1.7,2.3-2.7,3.3
						L301.7,287.3z M310.8,284l1-2.4l5.4,2.3l-1,2.4L310.8,284z M274.8,276l2-4.9L298,280l-2,4.9L274.8,276z M258.1,276.3l5.8-0.8
						l0.3,2.6l-5.8,0.8L258.1,276.3z M307.3,276.1c0.3-1.9,0.2-3.9-0.1-5.8l0.6,0.3c0.3,1.9,0.3,3.9,0,5.8L307.3,276.1z
						 M268.6,273.5c0-1.5,0.1-2.9,0.4-4.3l0.6,0.2c-0.3,1.4-0.4,2.8-0.4,4.3L268.6,273.5z M279.6,264.6l2-4.9l21.2,8.8l-2,4.9
						L279.6,264.6z M312.8,268.9l5.8-0.8l0.3,2.6l-5.8,0.8L312.8,268.9z M259.8,263.1l1-2.4l5.4,2.3l-1,2.4L259.8,263.1z
						 M272.5,261.6c1.1-1.5,2.5-2.9,4.1-4.1l0.6,0.3c-1.6,1.1-3,2.5-4.2,4L272.5,261.6z M307.2,257.4l4.7-3.6l1.6,2l-4.7,3.6
						L307.2,257.4z M300.1,258.4c-1.4-1.1-2.9-1.9-4.4-2.6c-1.6-0.7-3.3-1.1-5-1.3l-1.7-0.7c2.4,0.1,4.7,0.6,6.8,1.5
						c2.2,0.9,4.2,2.2,6,3.9L300.1,258.4z M268.9,250.1l2-1.6l3.6,4.7l-2,1.6L268.9,250.1z M296.6,250.1l2.3-5.4l2.4,1l-2.3,5.4
						L296.6,250.1z M283.1,243.4l2.6-0.3l0.8,5.8l-2.6,0.3L283.1,243.4z"/>
					<path class="st17" d="M343.4,326.2c-10.5,11.8-28.7,13-40.5,2.5s-13-28.7-2.5-40.5s28.7-13,40.5-2.5
						C352.7,296.2,353.9,314.3,343.4,326.2 M301.3,289c-10,11.4-9,28.8,2.4,38.8s28.8,9,38.8-2.4s9-28.8-2.4-38.8
						C328.7,276.5,311.3,277.6,301.3,289 M340.8,325l-3.7-3.3l1.4-1.6l3.7,3.3L340.8,325z M329.3,332.1l-1.6-4.7l2-0.7l1.6,4.7
						L329.3,332.1z M342.5,312.2l0.4-2.1l4.8,1l-0.4,2.1L342.5,312.2z M336.6,320.3c-7.1,8.1-19.6,8.9-27.8,1.7
						c-8.1-7.1-8.9-19.6-1.7-27.8c7.1-8.1,19.6-8.9,27.8-1.7C343.1,299.6,343.8,312.1,336.6,320.3 M316.6,325.5
						c7,2.1,14.8-0.2,19.6-5.7c4.9-5.5,6.2-13.4,3.3-20.1l-0.2-0.4l0,0v-0.1v-0.1l0,0l-0.2-0.4c-1.1-2.2-2.6-4.2-4.5-5.8
						c-1.9-1.6-4-2.9-6.3-3.7l-0.5-0.2l0,0h-0.1h-0.1l0,0l-0.4-0.1c-7-2.1-14.8,0.2-19.6,5.7s-6.2,13.4-3.3,20.2l0.2,0.4l0,0v0.1
						v0.1l0,0l0.2,0.4c1.1,2.2,2.6,4.2,4.5,5.8c1.9,1.7,4,2.9,6.3,3.7l0.5,0.2l0,0h0.1h0.1l0,0H316.6z M331.4,320.4l-1-0.9l4.7-5.3
						l1,0.9L331.4,320.4z M315.8,332.5l1-4.8l2.1,0.4l-1,4.8L315.8,332.5z M342.3,301.2l-0.7-2l4.7-1.6l0.7,2L342.3,301.2z
						 M323.8,322.7l-1-0.9l13.5-15.3l1,0.9L323.8,322.7z M316.1,325.2l-1.4-9.6l1.9,1.7l14.7-16.6l-1.9-1.7l9.7,0.2L316.1,325.2z
						 M319.3,319.7l14.7-16.6l-2-1.8l-14.7,16.6L319.3,319.7z M305.5,327.4l-1.6-1.4l3.3-3.7l1.6,1.4L305.5,327.4z M336.6,291.8
						l-1.6-1.4l3.3-3.7l1.6,1.4L336.6,291.8z M314.7,315.4l-9.9-0.3l23-26l1.5,9.8L314.7,315.4z M313.9,314.9l14.7-16.6l-2-1.8
						l-14.7,16.6L313.9,314.9z M311.2,312.6l14.7-16.6l-2-1.8l-14.7,16.6L311.2,312.6z M297.5,316.5l-0.7-2l4.7-1.6l0.7,2
						L297.5,316.5z M325,286l1-4.8l2.1,0.4l-1,4.8L325,286z M311.9,301.7l-0.5-0.5l3.2-3.6l0.5,0.5L311.9,301.7z M306.7,303.3
						l-0.5-0.5l9.3-10.6l0.5,0.5L306.7,303.3z M296,303l0.4-2.1l4.8,1l-0.4,2.1L296,303z M314,287.3l-1.6-4.7l2-0.7l1.6,4.7
						L314,287.3z M305.3,293.9l-3.7-3.3l1.4-1.6l3.7,3.3L305.3,293.9z"/>
					<path class="st18" d="M269.6,316.2c-0.7,0-1.3-0.1-1.8-0.5c-0.4-0.3-0.7-0.8-0.8-1.4c-0.8,0.5-1.6,0.7-2.2,0.7
						c-0.4,0-0.8-0.2-1.1-0.5c-1.7,1.2-6.1,2.5-7.5,0.9c-0.6-0.6-0.7-1.4-0.3-2.2c0.6-1.1,2.2-1.9,3.5-1.7h0.3l0.1,0.3
						c0.1,0.3,0.1,0.5,0,0.7c0,0.2,0,0.3,0,0.4c0,0.2-0.1,0.4-0.3,0.5c-0.2,0-0.4-0.1-0.5-0.3c-0.1-0.2,0-0.4,0-0.6
						c0-0.1,0-0.1,0-0.2c-1,0-2.1,0.6-2.4,1.3c-0.2,0.4-0.2,0.9,0.2,1.3c1.2,1.3,5.6-0.2,6.7-1.2l0.3-0.3l0.3,0.3
						c0.2,0.3,0.5,0.4,0.8,0.5c0.6,0.1,1.5-0.3,2.2-0.9l0.6-0.5v0.8c0,0.7,0.2,1.2,0.6,1.5c1,0.7,3.2,0.1,4.6-0.3l0.2-0.1
						c7.9-2.3,18.1-10.2,19.9-17.8c1-4.1,0.3-6.9-2-8.5c-4.1-2.7-12.5-0.7-17.4,2.9c-4,3-10.4,8.5-8.3,13.2c1.6,3.5,6.5,3.1,9.3,2.4
						c0.2-0.1,0.4,0.1,0.5,0.3c0.1,0.2-0.1,0.4-0.3,0.5c-4,1.1-8.7,0.7-10.2-2.8c-2.3-5.2,4.4-11,8.6-14.1
						c5.1-3.8,13.8-5.9,18.3-2.9c1.8,1.2,3.7,3.8,2.3,9.3c-2,7.8-12.4,16-20.5,18.4l-0.2,0.1C272.1,315.8,270.8,316.2,269.6,316.2
						 M296,330.8c0.3-0.4,0.5-0.7,0.8-1c2.3-2.9,4.5-5.9,6.5-8.8c0.6-0.9,1.3-1.8,1.9-2.7c3.3-2.1,6.9-3.9,10.1-3.6
						c0,0.1,0,0.2,0,0.3l0.1,0.2h0.3c1.2,0.1,2.2-0.4,3.3-0.9c0.9-0.4,1.8-0.9,2.7-0.9c0.3,0,0.7,0.1,1.2,0.1
						c1.1,0.1,2.5,0.3,3.4-0.4c0.8,0.3,1.8-0.4,2.6-0.9c0.1-0.1,0.3-0.2,0.4-0.3c0.2,0.5,0.6,1,1.2,1.2c-0.4,0.4-0.7,0.9-0.8,1.3
						l-0.1,0.4l0.4,0.1c2.6,1,5.9,0.2,8.9-0.5c2.1-0.5,4.1-0.9,5.9-0.9c0.2,0,0.4-0.2,0.4-0.4c0-0.2-0.2-0.4-0.4-0.4
						c-1.9,0-4,0.4-6.1,0.9c-2.8,0.7-5.8,1.3-8,0.7c0.2-0.3,0.5-0.6,0.8-0.9c2.3,0.3,6-0.9,6.7-2.3l0.2-0.3l-0.2-0.2
						c-0.5-0.6-1.5-0.7-2.6-0.4c-1.5,0.3-3.1,1.3-4.3,2.3l0,0c-1.1-0.3-1.1-1-1.1-1.2v-0.6l-0.5,0.2c-0.3,0.1-0.6,0.3-1,0.6
						c-0.5,0.3-1.2,0.8-1.7,0.9v-0.1l0.3-0.8l-0.9,0.2c-0.1,0-0.4,0-0.4,0l-0.7-0.2l0.2,0.7c0,0.1,0.1,0.3,0.1,0.4
						c-0.6,0.4-1.5,0.3-2.6,0.2c-0.5-0.1-0.9-0.1-1.3-0.1c-1.1,0-2.1,0.5-3.1,1c-0.9,0.4-1.7,0.8-2.5,0.8c0-0.1,0-0.2,0-0.3L316,314
						h-0.3c-3-0.4-6.3,1-9.3,2.7c0.3-0.4,0.6-0.8,0.8-1.1c1.1-1.4,2.2-2.9,3.3-4.3c1-0.7,1.9-1.5,2.8-2.2c5.3-4.3,9.3-9.4,11.7-14.9
						l0.4-1l-1,0.5c-1.9,1-3.4,2.9-4.8,4.6c-0.3,0.4-0.7,0.8-1,1.2c-3.1,3.7-6,7.4-8.8,11.2c-2.7,1.9-5.9,3.7-9.3,3.3
						c-0.1,0-0.3,0-0.5,0c-0.4,0-1-0.1-1.2-0.2c0-0.1,0-0.3,0.1-0.4c0.1-0.4,0.1-0.8-0.1-1c-0.9-0.8-1.8-0.6-2.8-0.2
						c0-0.1,0-0.3-0.1-0.4c-0.4-0.9-2-1.2-3-1.1c-1.7,0.2-3.5,0.7-5.3,1.5c-0.1-0.2-0.4-0.2-0.6,0c-0.3,0.2-0.5,0.5-0.8,0.7
						c-1.5,0.8-2.9,1.8-3.8,2.9l0.5,0.6c0.6-0.4,1.1-0.9,1.7-1.3c0.7-0.5,1.4-1,2-1.5c2-1.1,4.3-1.8,6.2-2c1-0.1,2,0.3,2.2,0.6
						c0.1,0.2-0.2,0.5-0.6,0.9l0.4,0.7l0.5-0.3c1.4-0.7,2-1,2.7-0.4c0,0.1,0,0.2,0,0.3c-0.1,0.4-0.2,0.8,0.1,1.1
						c0.4,0.4,1.2,0.4,1.8,0.5c0.2,0,0.3,0,0.4,0c2.9,0.3,5.7-0.7,7.9-2.1c-0.6,0.8-1.3,1.7-1.9,2.5c-0.7,0.9-1.3,1.8-2,2.7
						c-1.6,1.1-3.2,2.2-4.5,3.1l-1.8,1.3c-4.1,2.9-10.1,7.1-8.4,12.8l0.1,0.3h0.3c0.1,0,0.2,0,0.3,0
						C293,335.2,294.7,332.6,296,330.8 M302.8,320.5c-2.1,2.9-4.3,6-6.5,8.8c-0.2,0.3-0.5,0.7-0.8,1c-1.2,1.7-2.9,4-4.7,4.1
						c-1.2-5,4.5-8.9,8.2-11.6l1.8-1.3c0.8-0.6,1.7-1.2,2.7-1.9C303.3,319.9,303,320.2,302.8,320.5 M337.3,311.1
						c-0.8,0.8-3.1,1.6-5,1.6c1-0.7,2.3-1.4,3.4-1.7c0.3-0.1,0.6-0.1,0.9-0.1C336.8,310.9,337.1,311,337.3,311.1 M312.9,308.4
						c-0.1,0.1-0.3,0.2-0.4,0.3c2.3-3,4.6-6,7-8.8c0.3-0.4,0.6-0.8,1-1.2c1-1.3,2.1-2.7,3.4-3.7
						C321.4,299.9,317.7,304.5,312.9,308.4"/>
					<path class="st18" d="M375.2,313.2c0-0.2-0.2-0.4-0.4-0.4c-0.6,0-1.3,0.1-2.2,0.2c-3.3,0.3-8.6,0.8-10.3-0.9
						c-0.4-0.4-0.6-1-0.5-1.6c0.4-3.2,5.6-6.9,7.7-8.5c2.7-1.9,6-3.7,7.2-3.1c0.3,0.1,0.5,0.5,0.6,1c0.1,0.6-0.2,1.3-0.8,2
						c-0.6,0.7-1.4,1.3-2,1.3c-0.2,0-0.4,0.2-0.4,0.4c0,0.2,0.2,0.4,0.4,0.4c0.8-0.1,1.8-0.7,2.5-1.6s1.1-1.8,1-2.6
						c-0.1-1-0.6-1.4-1-1.6c-2.1-0.9-6.6,2.2-7.9,3.2c-2.3,1.7-7.6,5.6-8,9c-0.1,0.9,0.1,1.7,0.7,2.3c1.1,1.2,3.4,1.5,5.8,1.5
						c1.8,0,3.7-0.2,5.2-0.3c0.9-0.1,1.6-0.2,2.2-0.2C375,313.6,375.2,313.4,375.2,313.2"/>
					<path class="st18" d="M390,311.8c0,0,0.1-0.3,0.3-0.5c-1.8-0.3-1.7,0.9-4.2,1.7c0.1-0.1,0.1-0.2,0.2-0.4
						c2.5-1.2,5.2-3.7,6.6-5.9c1.1-1.7,1.4-3.1,0.8-4c-0.3-0.6-0.7-0.7-1-0.7c-1.5,0-3.2,3-5.7,7.5c-0.5,0.8-0.9,1.7-1.3,2.4
						c-1,0.4-1.8,0.7-2.6,0.6c-0.6-0.1-1-0.3-1.4-0.6c-0.6-0.3-1.1-0.7-2.1-0.6c-0.5,0-1.1,0.4-1.7,1c1-1.4,2.3-3,3.3-2.8
						c0.2,0,0.4-0.1,0.5-0.3c0-0.2-0.1-0.4-0.3-0.5c-1.8-0.3-3.6,2.2-4.9,4.1c-0.3,0.4-0.5,0.8-0.7,1l-0.1,0.1v0.1
						c0,0.4,0.2,0.5,0.3,0.6c0.4,0.2,0.7-0.1,1.5-0.9c0.6-0.6,1.7-1.6,2.2-1.7c0.8-0.1,1.2,0.2,1.7,0.5c0.4,0.3,0.9,0.6,1.7,0.7
						c0.6,0.1,1.3,0,2-0.3c-0.1,0.1-0.2,0.3-0.2,0.4c-0.5,0.2-1.1,0.3-1.8,0.5c-3.5,1-8.2,2.4-9.7,5.9c-0.8,1.8-0.5,4,0.8,6.4
						c0.4,0.7,0.8,1.1,1.4,1.1l0,0c1.9,0,4.2-3.7,7.1-8.8c1-1.7,1.9-3.4,2.6-4.3c0,0,0,0,0-0.1c0.4-0.1,0.8-0.3,1-0.4
						C389,312.5,388.9,311.7,390,311.8 M387.7,310.1c1.6-2.9,4-7.1,5.1-7.1l0,0c0.1,0,0.2,0,0.3,0.3c0.4,0.7,0.1,1.8-0.8,3.2
						c-1.2,1.8-3.3,3.7-5.3,5C387.3,310.9,387.5,310.5,387.7,310.1 M382,318.1c-2.1,3.6-4.9,8.4-6.4,8.4l0,0c-0.1,0-0.4,0-0.7-0.6
						c-1.2-2.3-1.4-4.3-0.7-5.9c1.3-3.1,5.9-4.4,9.2-5.4c0.3-0.1,0.6-0.2,0.8-0.2C383.4,315.5,382.8,316.8,382,318.1"/>
					<path class="st19" d="M396.9,319.5c0,0-2.7-1.2-2.6-1.6c0-0.3,3.2-0.7,3.2-0.7L396.9,319.5z"/>
					<path class="st20" d="M394.9,317.6c-0.3,0.1-0.6,0.2-0.6,0.3c0,0.1,0.2,0.3,0.5,0.5C394.8,318.1,394.9,317.8,394.9,317.6"/>
					<path class="st21" d="M409,326.7c-0.5-0.3-10-5.7-12.5-7.3c-0.3-0.5-0.1-2.1,0.5-2.3c1.9-0.4,14-1.5,14-1.5L409,326.7z"/>
					<path class="st4" d="M437.6,318.5l-25.8-3c-1.8-0.2-3.8,1-4.4,4.7c-0.7,4.1,0.6,6.4,2.2,6.8l24.1,6L437.6,318.5z"/>
					<path class="st22" d="M408.7,316.9c-0.5,0.6-0.9,1.5-1.2,2.7l23.8,4.1l1.9-3.8L408.7,316.9z"/>
					<path class="st11" d="M436.7,318.5c-2.3-0.7-4.9,1.9-5.6,6.3c-0.6,4.1,0.3,7.5,2.6,8.1l98.2,20l4.1-21.2L436.7,318.5z"/>
					<path class="st23" d="M532.3,332.8l-99-12.9c-0.8,0.9-1.5,2.2-1.9,3.8l97.1,15.6C529.3,336.4,530.7,334.1,532.3,332.8"/>
					<path class="st23" d="M407.5,320.2c0.3-1.8,1-3.1,1.8-3.8c-3.4,0.6-10.4,0.7-12.6,1.1c-0.2,0.3-0.2,0.8-0.3,1.1l11,2.5
						C407.4,320.8,407.4,320.5,407.5,320.2"/>
					<path class="st24" d="M295,71l-25.8,12v22.1c0,16.8,10.8,31.1,25.8,36.2c15-5.3,25.8-19.4,25.8-36.2V83L295,71z"/>
					<path class="st14" d="M295,76.4v59.7c12.6-5.1,20.8-17.4,20.8-31v-19L295,76.4z"/>
					<path class="st25" d="M274.2,86.1v19c0,13.7,8.3,25.9,20.8,31V76.4L274.2,86.1z"/>
				</g>
				<path class="st4" d="M536,331.8c-2.1-0.4-4.3,1.1-5.9,3.6c-0.3-0.1-0.6-0.1-1-0.2l-42.2-4.6c-1.4-0.1-2.7,1.4-3,3.5
					s0.5,4,1.8,4.3l41.5,8.9c0.2,0,0.4,0.1,0.5,0.1c0.6,3,2.1,5.3,4.2,5.7c3.4,0.7,7-3.6,8.1-9.4C541.2,337.6,539.4,332.4,536,331.8
					"/>
			</g>
		</g>
	</g>
</g>
<rect x="59" y="342" class="st11" width="32" height="92"/>
<g>
	<polygon class="st26" points="59,334.3 59,446.5 4.8,416.5 4.8,304.3 	"/>
</g>
<g>
	<g>
		<g>
			<g>
				<g>
					<g>
						<g>
							<g>
								<g>
									<g class="st27">
										<g>
											<polygon class="st26" points="58.2,333.5 58.2,445.7 4,415.7 4,303.5 											"/>
										</g>
										<g>
											<polygon class="st28" points="160.9,318.9 58.2,333.5 4,303.5 106.5,288.9 											"/>
										</g>
										<g>
											<path class="st11" d="M160.9,318.9v82.4c0,16.5-12.6,31.6-27.6,33.7l-75,10.7V333.5L160.9,318.9z"/>
										</g>
									</g>
								</g>
							</g>
						</g>
					</g>
				</g>
			</g>
		</g>
		<g>
			<g class="st27">
				<g>
					<polygon class="st28" points="13.5,329.9 17.5,329.4 23.5,332.6 19.8,333.3 					"/>
				</g>
				<g>
					<polygon class="st29" points="26.7,383.6 30.6,383.2 25.2,396.9 21.2,397.5 					"/>
				</g>
				<g>
					<polygon class="st28" points="19.5,333.3 23.5,332.6 31.3,364.9 27.4,365.4 					"/>
				</g>
				<g>
					<polygon class="st28" points="29.9,375.6 33.8,375.2 44.3,418.2 40.6,418.8 					"/>
				</g>
				<g>
					<polygon class="st29" points="38.7,354 42.6,353.6 33.8,375.2 29.9,375.6 					"/>
				</g>
				<g>
					<polygon class="st28" points="33,350.9 36.9,350.4 42.6,353.6 38.7,354 					"/>
				</g>
				<g>
					<polygon class="st5" points="19.8,333.3 27.4,365.4 33,350.9 38.7,354 29.9,375.6 40.6,418.8 34.5,415.4 26.7,383.6 
						21.2,397.5 16,394.5 24.2,373.5 13.5,329.9 					"/>
				</g>
			</g>
		</g>
	</g>
	<g>
		<g class="st27">
			<path class="st28" d="M132.9,413.7l-2.9-1.6c-7.1-0.6-13.8,5.4-20.7,2.1c0,0,0,0,0,0l0,0c0,0,0,0,0,0l2.9,1.6
				C119.1,419.1,126,414.7,132.9,413.7L132.9,413.7L132.9,413.7z"/>
			<g class="st27">
				<defs>
					<path id="SVGID_11_" class="st27" d="M107.3,418.4l-3.8-1.8c-1.4-0.7-2.5-1.7-3.4-3c-0.2-0.2-0.4-0.4-0.6-0.6l2.9,1.6
						c0.2,0.1,0.4,0.3,0.6,0.6C103.8,416.4,105.9,417.7,107.3,418.4z"/>
				</defs>
				<clipPath id="SVGID_12_">
					<use xlink:href="#SVGID_11_"  style="overflow:visible;"/>
				</clipPath>
				<g class="st30">
					<path class="st26" d="M107,418.3c-2.5-1.2-5.8-3-7.5-5.2l2.9,1.6c1.3,1.2,3.2,3,4.9,3.8"/>
				</g>
			</g>
			<path class="st28" d="M105.7,410.6c-0.9-0.4-3.1-1.8-4-2c-2.3-0.7-4.9,0.2-6.6,1.9c-2.2,2.1-3.6,5.4-6.6,6.6
				c-0.3,0-0.6,0-0.9-0.2c0.7,0.3,3.2,2.3,3.8,2.1c2.7-1.1,4.3-4.1,6.1-6.2C99.5,410.5,102.8,409.1,105.7,410.6L105.7,410.6
				C105.7,410.6,105.7,410.6,105.7,410.6z"/>
			<path class="st26" d="M83.4,420.4c-0.6-1.7-0.5-3.5-2-5c-0.2-0.2-0.3-0.3-0.3-0.6c0.3-0.6,0.9-0.5,1.5-0.7
				c1.3-0.3,2.7-0.8,3.9-0.2c-0.4-0.2-3-1.7-3.4-1.8c-1.5-0.3-3.9-0.2-5,1c-0.1,0.2,0,0.5,0.2,0.7c1.5,1.5,1.4,3.2,2,4.9
				c0.9,2.8,3.6,3.9,5.8,5.1C85.2,423.4,84.1,422.1,83.4,420.4z"/>
			<g>
				<path class="st5" d="M102,410c1.7-0.2,3.5,0.2,4.7,1.5c8.9,9.7,15.4,2.6,26.2,2.2c0.4,4.4-9.2,4.8-13.2,6
					c-8.1,1.5-13.7-1.1-18-5.2c-3.8,1.9-8.6,8.8-13.5,9.5c-4.5,1.1-4.8-5.6-6.9-8.5c-1.3-1.7,5-2.4,5.7-1.3
					C93.6,425.3,94.5,410.8,102,410z"/>
			</g>
		</g>
		<g class="st27">
			<g>
				<polygon class="st28" points="121.9,387.3 118.8,385 133.8,366.7 136.6,368.3 				"/>
			</g>
			<g>
				<path class="st5" d="M136.6,368.3l4,3.8l-15.3,18.6l-3.6-3.3c-0.2-0.2-0.2-0.6,0-0.9L136.6,368.3z"/>
			</g>
			<path class="st26" d="M121.8,387.2c-0.1-0.1-3-2.3-3-2.3c0,0,0,0,0,0c0,0.1,0,0.2,0,0.3c0,0,0,0.1,0,0.1c0,0.1,0.1,0.2,0.1,0.3
				l3.6,3.3l2.9,1.6L121.8,387.2z"/>
			<g>
				<polygon class="st26" points="123.4,372.1 120.5,370.6 131.8,356.9 134.6,358.4 				"/>
			</g>
			<path class="st26" d="M135.2,356.8c0-0.6-0.2-1.2-0.6-1.6l-3.6-3.3l-2.9-1.6l3.6,3.3c0.8,0.9,0.7,2.3,0,3.2l2.9,1.6
				C135,358,135.2,357.4,135.2,356.8z"/>
			<g class="st27">
				<defs>
					<path id="SVGID_13_" class="st27" d="M127.8,350l2.9,1.6c0.1,0.1,0.2,0.2,0.4,0.3l-2.9-1.6C128.1,350.2,128,350.1,127.8,350z"
						/>
				</defs>
				<clipPath id="SVGID_14_">
					<use xlink:href="#SVGID_13_"  style="overflow:visible;"/>
				</clipPath>
				<g class="st31">
					<path class="st32" d="M131.1,351.9l-2.9-1.6c-0.1-0.1-0.2-0.2-0.4-0.3l2.9,1.6C130.8,351.7,130.9,351.8,131.1,351.9"/>
				</g>
			</g>
			<path class="st26" d="M85.5,409.4l6.4-17.8L89,390l-6.4,17.8c0,0.4,0.2,0.8,0.4,1.1c0.1,0.1,0.2,0.2,0.3,0.2l2.9,1.6
				C85.8,410.4,85.5,409.9,85.5,409.4z"/>
			<g>
				<path class="st5" d="M91.9,391.6l11,10.3L87,410.8c-0.8,0.1-1.5-0.5-1.5-1.4L91.9,391.6z"/>
			</g>
			<g>
				<polygon class="st26" points="107.3,399.1 104.5,397.5 90.9,384.8 93.8,386.3 				"/>
			</g>
			<g>
				<path class="st5" d="M138.1,351c2.7,2.6,2.7,7.4,0,10.7l-11.1,13.7l-19.6,23.7l-13.6-12.8l19.4-23.4l11.5-13.9
					c1.4-1.7,3.2-2.7,5-2.9c1.8-0.3,3.6,0.2,5,1.5L138.1,351z M134.6,358.4c0.8-1,0.8-2.4,0-3.2l-3.6-3.3c-0.5-0.5-1.2-0.5-1.5-0.5
					c-0.3,0-1,0.2-1.5,0.9l-11.4,13.8l6.6,6L134.6,358.4"/>
			</g>
			<path class="st28" d="M126.7,347.2c2-1.3,4.5-1.6,6.6-0.5c-0.8-0.4-3.1-1.8-4-2c-2.8-0.8-5.8,0.5-7.6,2.7
				c-7,8.5-23.7,28.6-30.9,37.3l2.9,1.6l19.4-23.4C114.5,361.5,125.2,347.7,126.7,347.2z"/>
		</g>
	</g>
</g>
</svg>
