<svg xmlns="http://www.w3.org/2000/svg" viewBox="0 0 76 76"><defs><style>.cls-1{isolation:isolate;}.cls-2{fill:#e95653;}.cls-3{fill:none;}.cls-4{opacity:0.15;mix-blend-mode:multiply;}.cls-5{fill:#f9d2d1;}.cls-6{fill:#fff;}</style></defs><g class="cls-1"><g id="Layer_1" data-name="Layer 1"><circle class="cls-2" cx="38" cy="38" r="37.5"/><path class="cls-3" d="M9.981,59.865C9.136,58.834,7.1,56.919,9.246,55.9c1.821-.46,2.467,1.9,3.513,2.945q5.367,6.894,10.795,13.765a37.193,37.193,0,0,0,4.975,1.679C22.742,66.925,17.935,60.812,17.2,59.851c-.51-1.321-5.9-3.716-3.148-4.9-1.462-1.519-2.377-3.731-3.7-5.407a1.48,1.48,0,0,1,2.778-1.019,52.369,52.369,0,0,1,3.1,5.164c.558.918,1.752-.667,2.525-.918-1.035-1.51-1.922-3.179-2.869-4.819-.1-.176-2.169-3.135-3.327-5.164-2.326-1.476.62-4.622,1.969-2.05,1.314,1.749,2.345,3.593,3.538,5.492-.017-.039,3.316-1.4,3.1-1.5a33.935,33.935,0,0,1-3.44-3.659c-3.213-3.672,4.7-2.409,11.7-7l-8.147-6.54,47.389-.345,6.695,7.768A37.5,37.5,0,1,0,17.332,69.287Q13.674,64.571,9.981,59.865Z"/><path class="cls-4" d="M9.246,55.9c-2.151,1.017-.11,2.932.735,3.963q3.7,4.7,7.351,9.422a37.327,37.327,0,0,0,6.222,3.325q-5.416-6.876-10.795-13.765C11.713,57.8,11.067,55.442,9.246,55.9Z"/><path class="cls-4" d="M21.282,27.529l8.147,6.54c-7,4.59-11.7,7-11.7,7a42.317,42.317,0,0,0,3.44,3.659c.22.1-3.113,1.465-3.1,1.5-1.193-1.9-2.224-3.743-3.538-5.492-1.349-2.572-4.295.574-1.969,2.05,1.158,2.029,3.226,4.988,3.327,5.164.947,1.64,1.834,3.309,2.869,4.819-.773.251-2.566.877-2.525.918.3,0-3.139-5.2-3.1-5.164a1.48,1.48,0,0,0-2.778,1.019c1.319,1.676,3.27,5.137,3.426,5.137A37.3,37.3,0,0,1,17.2,59.851c.734.961,5.541,7.074,11.328,14.44A37.523,37.523,0,0,0,75.5,38c0-1.027-.053-2.042-.134-3.048l-6.695-7.768Z"/><path class="cls-5" d="M14.31,56.954a1.274,1.274,0,0,1,.011-2.391l29.485-10.7a1.275,1.275,0,1,1,.873,2.4l-29.486,10.7A1.27,1.27,0,0,1,14.31,56.954Z"/><path class="cls-5" d="M16.516,49.214a1.274,1.274,0,0,1,.01-2.391l27.265-9.942a1.275,1.275,0,0,1,.873,2.4L17.4,49.218A1.27,1.27,0,0,1,16.516,49.214Z"/><path class="cls-5" d="M17.524,41.073a1.274,1.274,0,0,1,.01-2.391L44.8,28.74a1.275,1.275,0,1,1,.873,2.4L18.407,41.077A1.27,1.27,0,0,1,17.524,41.073Z"/><circle class="cls-5" cx="13.26" cy="41.232" r="1.479"/><circle class="cls-5" cx="11.839" cy="49.105" r="1.479"/><circle class="cls-5" cx="9.803" cy="57.308" r="1.479"/><polygon class="cls-5" points="29.038 33.646 29.413 47.222 68.824 27.173 29.038 33.646"/><polygon class="cls-6" points="32.449 36.392 44.923 46.464 68.824 27.173 32.449 36.392"/><polygon class="cls-6" points="21.441 27.507 29.038 33.646 68.824 27.173 21.441 27.507"/><polygon class="cls-2" points="29.413 47.222 32.449 36.392 39.512 42.087 29.413 47.222"/></g></g></svg>