<?xml version="1.0" encoding="utf-8"?>
<!-- Generator: Adobe Illustrator 22.1.0, SVG Export Plug-In . SVG Version: 6.00 Build 0)  -->
<svg version="1.1" id="Ebene_1" xmlns="http://www.w3.org/2000/svg" xmlns:xlink="http://www.w3.org/1999/xlink" x="0px" y="0px"
	 viewBox="0 0 640 480" style="enable-background:new 0 0 640 480;" xml:space="preserve">
<style type="text/css">
	.st0{fill:#B7B7B7;}
	.st1{fill:#00558C;}
	.st2{fill:#F4D262;}
	.st3{fill:#F2F2F2;}
	.st4{fill:#7FC3DE;}
	.st5{fill:#40A5CE;}
	.st6{fill:#7CB892;}
</style>
<path class="st0" d="M115.6,438.7c0,12.2-4.4,21.6-13.2,28.3c-8.8,6.7-21.4,10-37.8,10c-6.1,0-12.2-0.5-18.1-1.5
	c-6-1-11.1-2.4-15.4-4.1v-29.4c3.9,2.3,8.4,4.2,13.5,5.5c5,1.4,10.2,2,15.3,2c6,0,10.6-1.1,13.8-3.2c3.2-2.1,4.8-5.2,4.8-9.2
	c0-4.1-2-7.2-5.9-9.5c-3.9-2.3-9.4-3.4-16.5-3.4H43.9v-27.7h10.7c7.1,0,12.3-1.1,15.7-3.3c3.4-2.2,5.1-5.1,5.1-8.6
	c0-3.3-1.3-6-3.8-7.9c-2.6-1.9-6.5-2.9-11.8-2.9c-8.2,0-16.3,2.4-24.5,7v-28.1c10.2-4.2,21-6.3,32.2-6.3c14,0,24.9,2.9,32.9,8.5
	c7.9,5.7,11.9,13.6,11.9,23.7c0,7.9-2.1,14.5-6.4,19.8c-4.3,5.3-10.2,8.8-17.9,10.5v0.4c8.5,1.2,15.2,4.4,20.2,9.7
	C113.1,424.4,115.6,430.9,115.6,438.7"/>
<path class="st1" d="M520.3,298c-110.8-66.2-221.7,66.2-332.5,0V61.5c110.8,66.2,221.7-66.2,332.5,0V298z"/>
<path class="st2" d="M356.9,100.6c-1-2.7-1.9-5.4-2.9-8.1c-1,3.3-1.9,6.5-2.9,9.8c-3.1,0.9-6.3,1.9-9.4,2.8c2.5,1.1,5.1,2.2,7.6,3.3
	c-1,3.3-1.9,6.5-2.9,9.8c2.5-2.6,5.1-5.2,7.6-7.8c2.5,1.1,5.1,2.2,7.6,3.3c-1-2.7-1.9-5.4-2.9-8.1c2.5-2.6,5.1-5.2,7.6-7.8
	C363.2,98.7,360,99.6,356.9,100.6"/>
<path class="st2" d="M356.9,255.7c-1-2.7-1.9-5.4-2.9-8.1c-1,3.3-1.9,6.5-2.9,9.8c-3.1,0.9-6.3,1.9-9.4,2.8c2.5,1.1,5.1,2.2,7.6,3.3
	c-1,3.3-1.9,6.5-2.9,9.8c2.5-2.6,5.1-5.2,7.6-7.8c2.5,1.1,5.1,2.2,7.6,3.3c-1-2.7-1.9-5.4-2.9-8.1c2.5-2.6,5.1-5.2,7.6-7.8
	C363.2,253.8,360,254.8,356.9,255.7"/>
<path class="st2" d="M279.3,196.8c-1-2.9-1.9-5.7-2.9-8.6c-1,3.1-1.9,6.2-2.9,9.2c-3.1,0.3-6.3,0.5-9.4,0.6c2.5,1.7,5.1,3.4,7.6,5.1
	c-1,3.1-1.9,6.1-2.9,9.1c2.5-2,5.1-4.1,7.6-6.2c2.5,1.6,5.1,3.1,7.6,4.6c-1-2.8-1.9-5.7-2.9-8.5c2.5-2.2,5.1-4.4,7.6-6.6
	C285.6,196,282.5,196.4,279.3,196.8"/>
<path class="st2" d="M318.1,122c-1-2.7-1.9-5.5-2.9-8.2c-1,3.2-1.9,6.4-2.9,9.6c-3.1,0.8-6.3,1.5-9.4,2.1c2.5,1.3,5.1,2.6,7.6,3.8
	c-1,3.2-1.9,6.4-2.9,9.6c2.5-2.4,5.1-4.9,7.6-7.3c2.5,1.2,5.1,2.4,7.6,3.6c-1-2.7-1.9-5.4-2.9-8.2c2.5-2.5,5.1-5,7.6-7.6
	C324.4,120.4,321.3,121.2,318.1,122"/>
<path class="st2" d="M289.7,156.5c-1-2.8-1.9-5.6-2.9-8.5c-1,3.1-1.9,6.2-2.9,9.4c-3.1,0.4-6.3,0.8-9.4,1.1c2.5,1.6,5.1,3.2,7.6,4.7
	c-1,3.1-1.9,6.2-2.9,9.3c2.5-2.1,5.1-4.3,7.6-6.5c2.5,1.5,5.1,2.9,7.6,4.2c-1-2.8-1.9-5.6-2.9-8.4c2.5-2.3,5.1-4.6,7.6-6.9
	C296,155.5,292.9,156,289.7,156.5"/>
<path class="st2" d="M289.7,234.1c-1-2.8-1.9-5.6-2.9-8.5c-1,3.1-1.9,6.2-2.9,9.4c-3.1,0.4-6.3,0.8-9.4,1.1c2.5,1.6,5.1,3.2,7.6,4.7
	c-1,3.1-1.9,6.2-2.9,9.3c2.5-2.1,5.1-4.3,7.6-6.5c2.5,1.5,5.1,2.9,7.6,4.2c-1-2.8-1.9-5.6-2.9-8.4c2.5-2.3,5.1-4.6,7.6-6.9
	C296,233,292.9,233.6,289.7,234.1"/>
<path class="st2" d="M318.1,256.4c-1-2.7-1.9-5.5-2.9-8.2c-1,3.2-1.9,6.4-2.9,9.6c-3.1,0.8-6.3,1.5-9.4,2.1c2.5,1.3,5.1,2.6,7.6,3.8
	c-1,3.2-1.9,6.4-2.9,9.6c2.5-2.4,5.1-4.9,7.6-7.3c2.5,1.2,5.1,2.4,7.6,3.6c-1-2.7-1.9-5.4-2.9-8.2c2.5-2.5,5.1-5,7.6-7.6
	C324.4,254.8,321.3,255.6,318.1,256.4"/>
<path class="st2" d="M434.5,160.6c-1-2.9-1.9-5.8-2.9-8.7c-1,3.1-1.9,6.2-2.9,9.3c-3.1,0.4-6.3,0.8-9.4,1.3c2.5,1.4,5.1,2.9,7.6,4.4
	c-1,3.1-1.9,6.2-2.9,9.3c2.5-2.2,5.1-4.3,7.6-6.4c2.5,1.6,5.1,3.2,7.6,4.9c-1-2.9-1.9-5.8-2.9-8.7c2.5-2,5.1-4,7.6-6
	C440.7,160.1,437.6,160.3,434.5,160.6"/>
<path class="st2" d="M395.7,100.2c-1-2.7-1.9-5.5-2.9-8.2c-1,3.2-1.9,6.4-2.9,9.7c-3.1,0.8-6.3,1.6-9.4,2.5c2.5,1.1,5.1,2.3,7.6,3.5
	c-1,3.2-1.9,6.5-2.9,9.7c2.5-2.5,5.1-5,7.6-7.5c2.5,1.2,5.1,2.4,7.6,3.7c-1-2.8-1.9-5.5-2.9-8.3c2.5-2.4,5.1-4.9,7.6-7.2
	C402,98.7,398.8,99.4,395.7,100.2"/>
<path class="st2" d="M424.1,123c-1-2.8-1.9-5.7-2.9-8.5c-1,3.1-1.9,6.3-2.9,9.4c-3.1,0.5-6.3,1.1-9.4,1.7c2.5,1.3,5.1,2.7,7.6,4.1
	c-1,3.1-1.9,6.3-2.9,9.4c2.5-2.3,5.1-4.6,7.6-6.8c2.5,1.5,5.1,3,7.6,4.5c-1-2.9-1.9-5.7-2.9-8.6c2.5-2.2,5.1-4.3,7.6-6.4
	C430.4,122.2,427.2,122.6,424.1,123"/>
<path class="st2" d="M424.1,200.6c-1-2.8-1.9-5.7-2.9-8.5c-1,3.1-1.9,6.3-2.9,9.4c-3.1,0.5-6.3,1.1-9.4,1.7c2.5,1.3,5.1,2.7,7.6,4.1
	c-1,3.1-1.9,6.3-2.9,9.4c2.5-2.3,5.1-4.6,7.6-6.8c2.5,1.5,5.1,3,7.6,4.5c-1-2.9-1.9-5.7-2.9-8.6c2.5-2.2,5.1-4.3,7.6-6.4
	C430.4,199.8,427.2,200.1,424.1,200.6"/>
<path class="st2" d="M395.7,234.5c-1-2.7-1.9-5.5-2.9-8.2c-1,3.2-1.9,6.4-2.9,9.7c-3.1,0.8-6.3,1.6-9.4,2.5c2.5,1.1,5.1,2.3,7.6,3.5
	c-1,3.2-1.9,6.5-2.9,9.7c2.5-2.5,5.1-5,7.6-7.5c2.5,1.2,5.1,2.4,7.6,3.7c-1-2.8-1.9-5.5-2.9-8.3c2.5-2.4,5.1-4.9,7.6-7.2
	C402,233,398.8,233.8,395.7,234.5"/>
<path class="st3" d="M182.1,5l-62.2,29v53.3c0,40.5,26,74.8,62.2,87.4c36.2-12.6,62.2-46.9,62.2-87.4V34L182.1,5z"/>
<path class="st4" d="M182.1,18.1v143.8c30.3-12.3,50.3-41.8,50.3-74.7V41.5L182.1,18.1z"/>
<path class="st5" d="M131.8,41.5v45.7c0,32.9,20.1,62.4,50.3,74.7V18.1L131.8,41.5z"/>
<polygon class="st6" points="485.4,422.3 427.6,364.5 450,342.2 485.4,377.6 587.8,275.3 610.1,297.6 "/>
</svg>
