<?xml version="1.0" encoding="utf-8"?>
<!-- Generator: Adobe Illustrator 24.1.3, SVG Export Plug-In . SVG Version: 6.00 Build 0)  -->
<svg version="1.1" id="Ebene_1" xmlns="http://www.w3.org/2000/svg" xmlns:xlink="http://www.w3.org/1999/xlink" x="0px" y="0px"
	 viewBox="0 0 640 480" style="enable-background:new 0 0 640 480;" xml:space="preserve">
<style type="text/css">
	.st0{fill:none;}
	.st1{fill:#B8B8B8;}
	.st2{fill:#FFFFFF;}
	.st3{fill:none;stroke:#E5E5E5;stroke-width:0.826;}
	.st4{fill:#40A5CE;}
	.st5{fill:#E95653;}
	.st6{fill:#DEE3E8;}
	.st7{fill:#7CB892;}
	.st8{fill:none;stroke:#FFFFFF;stroke-width:5.171;}
	.st9{fill:#B7B7B7;}
	.st10{fill:#223A3F;}
	.st11{fill:#F0C32D;}
	.st12{fill:#BEC8D2;}
	.st13{fill:#788287;}
	.st14{fill:#EFF1F4;}
	.st15{fill:#F8D93F;}
</style>
<path class="st0" d="M633,485"/>
<path class="st1" d="M467.3,384.6H140.1c-10.7,0-19.4-8.7-19.4-19.4V38c0-10.7,8.7-19.4,19.4-19.4h327.2c10.7,0,19.4,8.7,19.4,19.4
	v327.2C486.7,376,478,384.6,467.3,384.6"/>
<path class="st2" d="M459.6,373H132.4c-10.7,0-19.4-8.7-19.4-19.4V26.4C113,15.7,121.7,7,132.4,7h327.2c10.7,0,19.4,8.7,19.4,19.4
	v327.2C478.9,364.3,470.3,373,459.6,373"/>
<path class="st3" d="M459.6,373H132.4c-10.7,0-19.4-8.7-19.4-19.4V26.4C113,15.7,121.7,7,132.4,7h327.2c10.7,0,19.4,8.7,19.4,19.4
	v327.2C478.9,364.3,470.3,373,459.6,373z"/>
<path class="st4" d="M459.6,7H132.4C121.7,7,113,15.7,113,26.4v33.2h366V26.4C478.9,15.7,470.3,7,459.6,7"/>
<path class="st5" d="M141.2,32.9c0,3.4-2.8,6.3-6.2,6.3c-3.5,0-6.2-2.8-6.2-6.3c0-3.4,2.8-6.2,6.2-6.2S141.2,29.5,141.2,32.9"/>
<path class="st6" d="M159.9,32.9c0,3.4-2.8,6.3-6.2,6.3s-6.2-2.8-6.2-6.3c0-3.4,2.8-6.2,6.2-6.2C157.1,26.7,159.9,29.5,159.9,32.9"
	/>
<path class="st7" d="M178.6,32.9c0,3.4-2.8,6.3-6.2,6.3s-6.3-2.8-6.3-6.3c0-3.4,2.8-6.2,6.3-6.2C175.8,26.7,178.6,29.5,178.6,32.9"
	/>
<path class="st8" d="M252.8,32.9h86.3H252.8z"/>
<path class="st9" d="M75,356.7v118.7H49.6v-89.9c-1.4,1.3-3,2.4-4.9,3.5c-1.9,1.1-3.9,2.1-6.1,3c-2.1,0.9-4.4,1.6-6.7,2.2
	s-4.6,1.1-6.9,1.3v-21.6c6.6-2,12.9-4.4,18.7-7.4c5.9-3,11.2-6.4,15.9-9.9L75,356.7L75,356.7z"/>
<path class="st5" d="M347.2,195.8c-1.7-1.7-3.9-2.5-6.1-2.5H251c-2.2,0-4.4,0.8-6.1,2.5c-1.7,1.7-2.5,3.9-2.5,6.1
	c0,2.2,0.8,4.4,2.5,6.1c1.7,1.7,3.9,2.5,6.1,2.5h90.1c2.2,0,4.4-0.8,6.1-2.5s2.5-3.9,2.5-6.1C349.7,199.8,348.9,197.5,347.2,195.8"
	/>
<path class="st10" d="M197.3,227.9V176h90.1c0-4.4-1.7-8.9-5.1-12.2c-3.4-3.4-7.8-5.1-12.2-5.1h-72.8c-4.4,0-8.9,1.7-12.2,5.1
	c-3.4,3.4-5.1,7.8-5.1,12.2v51.9c0,4.4,1.7,8.9,5.1,12.2c3.4,3.4,7.8,5.1,12.2,5.1h72.8c4.4,0,8.9-1.7,12.2-5.1
	c3.4-3.4,5.1-7.8,5.1-12.2H197.3z"/>
<path class="st10" d="M394.8,227.9V176h-90.1c0-4.4,1.7-8.9,5.1-12.2c3.4-3.4,7.8-5.1,12.2-5.1h72.8c4.4,0,8.9,1.7,12.2,5.1
	c3.4,3.4,5.1,7.8,5.1,12.2v51.9c0,4.4-1.7,8.9-5.1,12.2c-3.4,3.4-7.8,5.1-12.2,5.1H322c-4.4,0-8.9-1.7-12.2-5.1
	c-3.4-3.4-5.1-7.8-5.1-12.2H394.8z"/>
<rect x="293.2" y="112.7" class="st11" width="5.6" height="18.8"/>
<polygon class="st11" points="321.1,118.3 314,135.6 308.8,133.5 315.9,116.1 "/>
<polygon class="st11" points="339.6,131.9 326.3,145.2 322.4,141.2 335.6,127.9 "/>
<polygon class="st11" points="283.3,133.5 278.1,135.7 270.9,118.3 276.1,116.1 "/>
<polygon class="st11" points="269.7,141.3 265.7,145.2 252.4,131.9 256.4,127.9 "/>
<rect x="293.2" y="272.4" class="st11" width="5.6" height="18.8"/>
<polygon class="st11" points="321.1,285.7 314,268.3 308.8,270.5 315.9,287.8 "/>
<polygon class="st11" points="339.6,272 326.3,258.7 322.4,262.7 335.6,276 "/>
<polygon class="st11" points="283.3,270.4 278.1,268.3 270.9,285.7 276.1,287.8 "/>
<polygon class="st11" points="269.7,262.7 265.7,258.7 252.4,272 256.4,276 "/>
<polygon class="st4" points="165.9,267.5 238.6,211.3 228.6,302.6 202.6,275.5 "/>
<polygon class="st4" points="210.9,274.7 199,268.1 179.4,303.1 191.3,309.7 "/>
<path class="st12" d="M508.4,66.6h-7.6V43.1c0-3.1,2.5-5.5,5.5-5.5h23.5v7.6h-21.4V66.6z"/>
<path class="st12" d="M611.2,66.6h-7.6V45.2h-21.4v-7.6h23.5c3.1,0,5.5,2.5,5.5,5.5V66.6z"/>
<path class="st12" d="M611.2,142.8c0,3.1-2.5,5.5-5.5,5.5h-23.6v-7.6h21.5v-21.5h7.6V142.8z"/>
<path class="st12" d="M529.8,148.4h-23.5c-3.1,0-5.5-2.5-5.5-5.5v-23.5h7.6v21.4h21.4V148.4z"/>
<path class="st12" d="M553.5,131.4H520V97.9h33.4L553.5,131.4L553.5,131.4z M527.7,123.7h18.2v-18.2h-18.2V123.7z"/>
<rect x="532.4" y="110.4" class="st12" width="8.6" height="8.6"/>
<rect x="575.4" y="110.4" class="st12" width="8.6" height="8.6"/>
<rect x="584" y="101.8" class="st12" width="8.6" height="8.6"/>
<rect x="566.8" y="101.8" class="st12" width="8.6" height="8.6"/>
<rect x="584" y="119" class="st12" width="8.6" height="8.6"/>
<rect x="566.8" y="119" class="st12" width="8.6" height="8.6"/>
<path class="st12" d="M551.5,87.5h-33.4V54h33.4V87.5z M525.7,79.8h18.2V61.7h-18.2V79.8z"/>
<rect x="530.5" y="66.5" class="st12" width="8.6" height="8.6"/>
<path class="st12" d="M594.5,87.5h-33.4V54h33.4V87.5z M568.7,79.8h18.2V61.7h-18.2V79.8z"/>
<rect x="573.5" y="66.5" class="st12" width="8.6" height="8.6"/>
<polygon class="st13" points="555.5,197.3 505,198.3 505,262.5 607,262.5 607,198.3 "/>
<polygon class="st14" points="607,198.3 607,262.5 556,230.4 "/>
<polygon class="st14" points="556,230.4 505,262.5 505,198.3 "/>
<polygon class="st12" points="607,262.5 505,262.5 556,230.4 "/>
<path class="st15" d="M621,198.5c0,7.4-6,13.3-13.3,13.3s-13.3-6-13.3-13.3c0-7.4,6-13.3,13.3-13.3S621,191.2,621,198.5"/>
<path class="st2" d="M605.9,197.7h1.3c0.7,0,1.2-0.2,1.6-0.5c0.4-0.3,0.6-0.8,0.6-1.4c0-0.6-0.2-1.1-0.5-1.4
	c-0.3-0.3-0.8-0.5-1.5-0.5c-0.6,0-1,0.2-1.4,0.5s-0.6,0.8-0.6,1.3h-2.1c0-0.7,0.2-1.3,0.5-1.8s0.8-1,1.5-1.3
	c0.6-0.3,1.3-0.5,2.1-0.5c1.3,0,2.3,0.3,3,1c0.7,0.6,1.1,1.5,1.1,2.7c0,0.6-0.2,1.1-0.5,1.6c-0.4,0.5-0.8,0.9-1.4,1.1
	c0.7,0.2,1.2,0.6,1.6,1.1c0.4,0.5,0.5,1.1,0.5,1.8c0,1.2-0.4,2.1-1.2,2.7c-0.8,0.7-1.8,1-3.1,1c-1.2,0-2.2-0.3-3-1s-1.2-1.5-1.2-2.6
	h2.1c0,0.6,0.2,1,0.6,1.4c0.4,0.3,0.9,0.5,1.5,0.5c0.7,0,1.2-0.2,1.6-0.5c0.4-0.4,0.6-0.9,0.6-1.5c0-0.7-0.2-1.2-0.6-1.6
	c-0.4-0.4-1-0.5-1.8-0.5h-1.3L605.9,197.7L605.9,197.7z"/>
</svg>
