<svg xmlns="http://www.w3.org/2000/svg" xmlns:xlink="http://www.w3.org/1999/xlink" viewBox="0 0 214.72 204"><defs><style>.cls-1{fill:none;}.cls-2{clip-path:url(#clip-path);}.cls-3{fill:#eff1f4;opacity:0.46;}.cls-4{fill:#cacfd2;}.cls-5{fill:#e95653;}.cls-6{fill:#fff;}.cls-7{fill:#7cb892;}.cls-8{fill:#dee3e8;}.cls-9{fill:#bec8d2;}</style><clipPath id="clip-path" transform="translate(-1.95 -6)"><rect class="cls-1" width="220" height="220"/></clipPath></defs><g id="Layer_2" data-name="Layer 2"><g id="Inhalt"><g class="cls-2"><path class="cls-3" d="M200.47,210h-174V194.72h174V210" transform="translate(-1.95 -6)"/><path class="cls-4" d="M186.54,185h-2.83v-2.48h2.83Zm-8.68,0H175v-2.48h2.83Zm-7.69,0h-2.82v-2.48h2.82Zm-8.68,0h-2.83v-2.48h2.83Zm-7.68,0H151v-2.48h2.83Zm-7.68,0H143.3v-2.48h2.83Zm-7.68,0h-2.83v-2.48h2.83Zm-7.68,0h-2.83v-2.48h2.83Zm-7.68,0h-2.83v-2.48h2.83Zm-7.68,0h-2.83v-2.48h2.83Zm-7.69,0h-2.83v-2.48h2.83ZM100,185H97.21v-2.48H100Zm-7.68,0H89.53v-2.48h2.83Zm-7.68,0H81.85v-2.48h2.83ZM77,185H74.17v-2.48H77Zm-7.68,0H66.49v-2.48h2.83Zm-7.68,0H58.81v-2.48h2.83ZM54,185H51.13v-2.48H54Zm-7.69,0H43.44v-2.48h2.83Zm-7.91-.4a18.3,18.3,0,0,1-2.9-.88l.92-2.31a15.7,15.7,0,0,0,2.5.77Zm155.09-2-1.23-2.15a16,16,0,0,0,2.17-1.48l1.56,1.93A17.75,17.75,0,0,1,193.45,182.64ZM31,181.11a18.81,18.81,0,0,1-2.22-2.06l1.84-1.67a15.45,15.45,0,0,0,1.92,1.78Zm168.52-4-2-1.42a15.54,15.54,0,0,0,1.31-2.27l2.24,1.06A19.65,19.65,0,0,1,199.48,177.14ZM25.82,174.76a19.37,19.37,0,0,1-1.1-2.82l2.38-.71a16,16,0,0,0,.95,2.44Zm176.68-5.22-2.45-.37a15.3,15.3,0,0,0,.18-2.35v-.28h2.48v.28A17.61,17.61,0,0,1,202.5,169.54Zm-176-2.74H24V164h2.47Zm176.25-5.11h-2.48v-2.83h2.48ZM26.46,159.12H24v-2.83h2.47ZM202.71,154h-2.48v-2.83h2.48ZM26.46,151.44H24v-2.83h2.47Zm176.25-5.12h-2.48v-2.83h2.48ZM26.46,143.76H24v-2.83h2.47Zm176.25-5.12h-2.48v-2.83h2.48ZM26.46,136.08H24v-2.83h2.47ZM202.71,131h-2.48v-2.83h2.48ZM26.46,128.4H24v-2.83h2.47Zm176.25-5.12h-2.48v-2.83h2.48ZM26.46,120.71H24v-2.83h2.47Zm176.25-5.11h-2.48v-.93a14.72,14.72,0,0,0-.1-1.76l2.47-.28a19.92,19.92,0,0,1,.11,2ZM26.54,113.15l-2.47-.23a18.93,18.93,0,0,1,.54-3l2.4.65A15.08,15.08,0,0,0,26.54,113.15ZM199,108.58a17.1,17.1,0,0,0-1.22-2.32l2.08-1.33a18.07,18.07,0,0,1,1.42,2.68ZM28.79,106.47l-2.11-1.3a18.72,18.72,0,0,1,1.8-2.44l1.87,1.64A15.24,15.24,0,0,0,28.79,106.47Zm166.06-3.6a14.55,14.55,0,0,0-2.11-1.56l1.31-2.11a17.85,17.85,0,0,1,2.44,1.8ZM33.74,101.44l-1.33-2.09a18.07,18.07,0,0,1,2.68-1.42l1,2.28A16.1,16.1,0,0,0,33.74,101.44Zm154.9-1.92a15.19,15.19,0,0,0-2.58-.47l.24-2.47a17.88,17.88,0,0,1,3,.55ZM40.39,99.07l-.28-2.46a17.36,17.36,0,0,1,2-.12h.91V99h-.91A17.18,17.18,0,0,0,40.39,99.07Zm141-.1h-2.83V96.49h2.83Zm-7.69,0h-2.83V96.49h2.83ZM166,99h-2.83V96.49H166Zm-7.68,0h-2.83V96.49h2.83Zm-7.68,0h-2.83V96.49h2.83Zm-7.68,0H140.1V96.49h2.83Zm-7.68,0h-2.83V96.49h2.83Zm-7.68,0h-2.83V96.49h2.83Zm-7.68,0h-2.83V96.49h2.83Zm-7.69,0h-2.83V96.49h2.83Zm-7.68,0h-2.83V96.49h2.83Zm-7.68,0H94V96.49h2.83Zm-7.68,0H86.33V96.49h2.83Zm-7.68,0H78.65V96.49h2.83ZM73.8,99H71V96.49H73.8Zm-7.68,0H63.29V96.49h2.83Zm-7.68,0H55.6V96.49h2.84Zm-7.69,0H47.92V96.49h2.83Z" transform="translate(-1.95 -6)"/><circle class="cls-5" cx="26.74" cy="58.37" r="26.73"/><path class="cls-6" d="M48.39,75.53,14.72,85.61l-1-3.37L47.39,72.16l1,3.37m-29,0-3.06-1.65L18,70.86,16.49,70,14.83,73.1l-3.06-1.65L11,73,14,74.63l-1.65,3.06,1.53.83,1.65-3.06,3.06,1.65.83-1.53M36.3,44.3l4.23,6.8-1.53,1a18.53,18.53,0,0,0-3.46-3,4.42,4.42,0,0,0-3.29.07l-4.2,1.26,5.29,17.67c.25.85.5,1.69,1.1,1.87a6.74,6.74,0,0,0,3-.52l.5,1.69-10.1,3-.5-1.68a7.36,7.36,0,0,0,2.76-1.2c.4-.48.15-1.33-.1-2.17L24.68,51.45l-4.21,1.26a5.19,5.19,0,0,0-2.83,1.58,11.24,11.24,0,0,0-1.25,4.4H14.56l-.15-7.84Z" transform="translate(-1.95 -6)"/><circle class="cls-5" cx="78.11" cy="26.76" r="26.75"/><path class="cls-6" d="M97.72,48.84H59.36V45H97.72v3.84m-30.3-9-2.69-2.68,2.69-2.69-1.34-1.34-2.69,2.68-2.68-2.68-1.35,1.34,2.69,2.69-2.69,2.68,1.35,1.34,2.68-2.68,2.69,2.68,1.34-1.34M93.89,16.23H74.71a3.85,3.85,0,0,0-3.84,3.84V37.33a3.85,3.85,0,0,0,3.84,3.83H93.89a3.84,3.84,0,0,0,3.83-3.83V20.07a3.85,3.85,0,0,0-3.83-3.84M74.71,37.33l5-6.33,3.46,4.22,4.6-6.33,6.14,8.44Zm5.56-14.19A3,3,0,0,1,77.39,26a2.88,2.88,0,0,1,0-5.75A3,3,0,0,1,80.27,23.14Z" transform="translate(-1.95 -6)"/><circle class="cls-5" cx="136.95" cy="26.74" r="26.73"/><path class="cls-6" d="M151.6,53.75,116.06,46.2l.75-3.56,35.54,7.55-.75,3.56M125.3,39.43l-1.51,1-2-3-3,2-1-1.51,3-2-2-3,1.51-1,2,3,3-2,1,1.5-3,2,2,3m10.24-4.51c-.84,1.31-3.35,6.16-5.32,6.67-1.57.41-2.65-1.49-2-2.84,2.12-4.75,8.53-10.44,10.27-13.41,4.64-6.08,5-9.7,7.28-9.79,2.07-.11,3.43,2.22.45,4,.11,9.12.36,8.8,1.46,18.51,1.75,11,4.17,2.19,6.17,5,1.12,1.73-3.44,7.45-7.25,1.81a11.85,11.85,0,0,1-1.52-4.23,14,14,0,0,1-.55-4.38,24.48,24.48,0,0,0-7.17.52C135.66,37,134.49,36.37,135.54,34.92Zm8.8-3c0-.75-.13-3.74-.4-8.62a2.14,2.14,0,0,1,0-.93L137.6,32.2a6.73,6.73,0,0,1,1.85,0,24.4,24.4,0,0,0,3.39-.2C143.41,32,143.77,32,144.34,32Z" transform="translate(-1.95 -6)"/><polyline class="cls-7" points="60.91 162.58 54.76 156.66 60.68 150.52 57.6 147.56 51.69 153.71 45.54 147.79 42.59 150.86 48.73 156.78 42.81 162.92 45.89 165.88 51.8 159.74 57.95 165.65 60.91 162.58"/><circle class="cls-5" cx="187.86" cy="58.5" r="26.86"/><path class="cls-6" d="M178.82,52.63l-2.21-.78,2.39-6.8a1.7,1.7,0,0,1,2.17-1l6.8,2.38-.77,2.21L181,46.42Z" transform="translate(-1.95 -6)"/><path class="cls-6" d="M208.6,63.07l-2.21-.77,2.18-6.21-6.21-2.17.78-2.21,6.8,2.39a1.7,1.7,0,0,1,1,2.17Z" transform="translate(-1.95 -6)"/><path class="cls-6" d="M200.86,85.14a1.7,1.7,0,0,1-2.17,1l-6.83-2.4.77-2.21,6.23,2.18L201,77.54l2.21.77Z" transform="translate(-1.95 -6)"/><path class="cls-6" d="M176.72,78.48l-6.8-2.38a1.71,1.71,0,0,1-1-2.17l2.39-6.81,2.21.78-2.18,6.2,6.2,2.18Z" transform="translate(-1.95 -6)"/><path class="cls-6" d="M185.29,76l-9.68-3.4,3.4-9.68,9.68,3.4Zm-6.69-4.83L183.86,73l1.84-5.26-5.26-1.84Z" transform="translate(-1.95 -6)"/><rect class="cls-6" x="180.83" y="68.1" width="2.64" height="2.64" transform="translate(31.29 -62.36) rotate(19.32)"/><rect class="cls-6" x="193.28" y="72.47" width="2.64" height="2.64" transform="translate(33.43 -66.24) rotate(19.32)"/><rect class="cls-6" x="196.64" y="70.85" width="2.64" height="2.64" transform="translate(33.09 -67.44) rotate(19.32)"/><rect class="cls-6" x="191.66" y="69.1" width="2.64" height="2.64" transform="translate(32.23 -65.89) rotate(19.32)"/><rect class="cls-6" x="194.9" y="75.83" width="2.64" height="2.64" transform="translate(34.64 -66.58) rotate(19.32)"/><rect class="cls-6" x="189.92" y="74.08" width="2.64" height="2.64" transform="translate(33.78 -65.03) rotate(19.32)"/><path class="cls-6" d="M189.2,63.06l-9.69-3.39,3.4-9.69,9.68,3.4Zm-6.7-4.83,5.26,1.84,1.84-5.25L184.35,53Z" transform="translate(-1.95 -6)"/><rect class="cls-6" x="184.73" y="55.2" width="2.64" height="2.64" transform="translate(27.24 -64.38) rotate(19.32)"/><path class="cls-6" d="M201.64,67.43,192,64l3.4-9.68L205,57.74ZM195,62.59l5.26,1.85,1.84-5.26-5.26-1.84Z" transform="translate(-1.95 -6)"/><rect class="cls-6" x="197.18" y="59.57" width="2.64" height="2.64" transform="translate(29.38 -68.26) rotate(19.32)"/><rect class="cls-8" x="75.69" y="118.71" width="97.23" height="13.56" transform="translate(-54.28 118.96) rotate(-45.1)"/><path class="cls-8" d="M165.25,78.54l5.87,5.84,3.19-3.2a2.27,2.27,0,0,0,0-3.19l-2.67-2.66a2.21,2.21,0,0,0-1.6-.65,2.15,2.15,0,0,0-1.58.65Z" transform="translate(-1.95 -6)"/><path class="cls-9" d="M161.78,78.27a2.27,2.27,0,0,1,1.61-.66,2.24,2.24,0,0,1,1.59.66l6.4,6.38a2.23,2.23,0,0,1,.67,1.6,2.34,2.34,0,0,1-.66,1.6l-8,8-9.61-9.57Z" transform="translate(-1.95 -6)"/><path class="cls-9" d="M153.81,86.27l-2.12,2.13a2.51,2.51,0,0,0-3.55,0L126,110.63l-2.13-2.13L146,86.28a5.52,5.52,0,0,1,7.8,0Z" transform="translate(-1.95 -6)"/><path class="cls-9" d="M81.55,170.64l-3.31,1.78a.51.51,0,0,1-.62-.09.52.52,0,0,1-.09-.61l1.77-3.31Z" transform="translate(-1.95 -6)"/><polygon class="cls-9" points="76.56 161.62 80.4 165.44 92.84 158.71 83.24 149.14 76.56 161.62"/></g></g></g></svg>