<svg xmlns="http://www.w3.org/2000/svg" viewBox="0 0 75.08 75.081"><defs><style>.cls-1{isolation:isolate;}.cls-2{fill:#e95653;}.cls-3{fill:none;}.cls-4{opacity:0.15;mix-blend-mode:multiply;}.cls-5{fill:#fff;}.cls-6{fill:#f9d2d1;}.cls-7{fill:#f08e8c;}.cls-8{fill:#e11e19;}</style></defs><g class="cls-1"><g id="Layer_2" data-name="Layer 2"><g id="Layer_5" data-name="Layer 5"><circle class="cls-2" cx="37.58" cy="37.581" r="37.5"/><path class="cls-3" d="M19.326,63.075A77.829,77.829,0,0,1,13.5,56.84,30.59,30.59,0,0,1,29.618,8.493,30.9,30.9,0,0,1,59.46,16.617Q67.083,24.309,74.607,32.1A37.5,37.5,0,1,0,30.276,74.3l-4.621-4.737Z"/><path class="cls-4" d="M75,37.5a37.715,37.715,0,0,0-.393-5.4Q67.062,24.33,59.46,16.617A30.584,30.584,0,0,0,9.23,26.611,30.841,30.841,0,0,0,13.5,56.84a77.829,77.829,0,0,0,5.828,6.235l6.329,6.486L30.276,74.3A37.5,37.5,0,0,0,75,37.5Z"/><circle class="cls-5" cx="37.736" cy="37.882" r="30.593"/><path class="cls-6" d="M10.054,39.846a30.393,30.393,0,0,0,10.9,23.347,30.463,30.463,0,1,1,35.99-49A30.461,30.461,0,0,0,10.054,39.846Z"/><path class="cls-7" d="M37.736,16.285a.659.659,0,0,1-.658-.658V8.242a.658.658,0,0,1,1.316,0v7.385A.659.659,0,0,1,37.736,16.285Z"/><path class="cls-7" d="M38.088,67.879a.657.657,0,0,1-.658-.658V59.837a.658.658,0,0,1,1.316,0v7.384A.658.658,0,0,1,38.088,67.879Z"/><path class="cls-7" d="M15.154,39.6H7.77a.658.658,0,1,1,0-1.315h7.384a.658.658,0,1,1,0,1.315Z"/><path class="cls-7" d="M67.35,39.6H59.966a.658.658,0,1,1,0-1.315H67.35a.658.658,0,1,1,0,1.315Z"/><path class="cls-8" d="M37.737,42.76a.656.656,0,0,1-.531-.269L28.414,30.535a.658.658,0,1,1,1.061-.779L37.88,41.187,56.341,27.855a.657.657,0,1,1,.769,1.066L38.121,42.635A.654.654,0,0,1,37.737,42.76Z"/></g></g></g></svg>