<svg xmlns="http://www.w3.org/2000/svg" xmlns:xlink="http://www.w3.org/1999/xlink" viewBox="0 0 128 128"><defs><style>.cls-1{fill:#f7c7c5;}.cls-2{isolation:isolate;}.cls-3{fill:#e95653;}.cls-4{fill:none;}.cls-5{opacity:0.15;mix-blend-mode:multiply;}.cls-6{fill:#fff;}.cls-7{fill:#f8f9fa;}.cls-8{fill:#dee3e8;}.cls-9{clip-path:url(#clip-path);}.cls-10{fill:#fbdddd;}</style><clipPath id="clip-path"><path class="cls-1" d="M49.1,79.864q-10.74,0-21.479-.863a270.4,270.4,0,0,0,0-43.16,270.166,270.166,0,0,1,43.16,0q-.859,10.738-.863,21.478C70.019,69.086,61.276,79.77,49.1,79.864Z"/></clipPath></defs><title>icon-datenkompresion</title><g class="cls-2"><g id="Layer_2" data-name="Layer 2"><g id="Fondos"><circle class="cls-3" cx="64" cy="64" r="64"/><path class="cls-4" d="M46.952,106.148l-9.724-7.52-4.861-3.759c-2.838-2.195-6.078-4.21-6.078-8.257h11.5c.026-.333-2.738-2.22-3.1-2.468-1.977-1.349-3.7-2.944-5.678-4.292-.6-.407-1.27-.789-1.3-1.719-.071-2.438.351-4.977.473-7.418q.168-3.37.252-6.744a270.66,270.66,0,0,0-.778-28.323c2.561-.205,5.125-.361,7.69-.493,0-.149-1.158-.85-1.321-.967-1.835-1.314-3.626-2.766-5.4-4.178-.441-.35-.9-.686-1.35-1.044a5.274,5.274,0,0,1-.712-.522c-.659-.809.14-2.939.8-4.016,2.408-3.93,6.661-3.49,10.583-3.49H89.168c.918,0,1.843-.031,2.762,0,2.8.094,4.639,1.659,6.721,3.269l16.2,12.532,10.134,7.837a64,64,0,1,0-50.83,82.613l-7.762-6Z"/><path class="cls-5" d="M128,64a63.937,63.937,0,0,0-3.01-19.424l-10.134-7.837-16.2-12.532c-2.082-1.61-3.919-3.175-6.721-3.269-.919-.031-1.844,0-2.762,0H37.942c-3.922,0-8.175-.44-10.583,3.49-.66,1.077-1.459,3.207-.8,4.016a5.274,5.274,0,0,0,.712.522c.45.358.909.694,1.35,1.044,1.776,1.412,3.567,2.864,5.4,4.178.163.117,1.323.818,1.321.967-2.565.132-5.129.288-7.69.493a270.66,270.66,0,0,1,.778,28.323q-.084,3.374-.252,6.744c-.122,2.441-.544,4.98-.473,7.418.028.93.7,1.312,1.3,1.719,1.977,1.348,3.7,2.943,5.678,4.292.364.248,3.128,2.135,3.1,2.468h-11.5c0,4.047,3.24,6.062,6.078,8.257l4.861,3.759,9.724,7.52L66.4,121.186l7.762,6A64.01,64.01,0,0,0,128,64Z"/><path class="cls-6" d="M91.93,28.428h7.3a7.3,7.3,0,0,0-7.3-7.3H33.554a7.3,7.3,0,0,0-7.3,7.3Z"/><path class="cls-6" d="M91.93,86.805H26.257a7.3,7.3,0,0,0,7.3,7.3H81.277V108.7H99.228V86.805Z"/><path class="cls-7" d="M85.119,43.212a1.292,1.292,0,0,1-.548-2.463l11.6-5.415a1.292,1.292,0,1,1,1.094,2.342l-11.6,5.415A1.292,1.292,0,0,1,85.119,43.212Z"/><path class="cls-7" d="M85.119,51.633a1.292,1.292,0,0,1-.548-2.463l11.6-5.415A1.292,1.292,0,0,1,97.267,46.1l-11.6,5.415A1.292,1.292,0,0,1,85.119,51.633Z"/><path class="cls-8" d="M85.119,59.652a1.292,1.292,0,0,1-.548-2.463l11.6-5.415a1.292,1.292,0,0,1,1.094,2.342l-11.6,5.415A1.292,1.292,0,0,1,85.119,59.652Z"/><path class="cls-8" d="M85.119,66.9a1.292,1.292,0,0,1-.548-2.463l11.6-5.415a1.292,1.292,0,0,1,1.094,2.342l-11.6,5.415A1.292,1.292,0,0,1,85.119,66.9Z"/><path class="cls-8" d="M85.119,74.685a1.293,1.293,0,0,1-.548-2.464l11.6-5.415a1.292,1.292,0,0,1,1.094,2.342l-11.6,5.415A1.278,1.278,0,0,1,85.119,74.685Z"/><path class="cls-8" d="M85.119,82.952a1.293,1.293,0,0,1-.548-2.464l11.6-5.415a1.292,1.292,0,0,1,1.094,2.342l-11.6,5.415A1.293,1.293,0,0,1,85.119,82.952Z"/><path class="cls-1" d="M49.1,79.864q-10.74,0-21.479-.863a270.4,270.4,0,0,0,0-43.16,270.166,270.166,0,0,1,43.16,0q-.859,10.738-.863,21.478C70.019,69.086,61.276,79.77,49.1,79.864Z"/><g class="cls-9"><polygon class="cls-10" points="26.626 72.149 17.887 31.027 63.25 19.836 26.626 72.149"/></g></g></g></g></svg>