<svg xmlns="http://www.w3.org/2000/svg" viewBox="0 0 89.643 164.704"><defs><style>.cls-1{fill:#7fc3de;}</style></defs><title>nutzern</title><g id="Layer_2" data-name="Layer 2"><g id="iconos_flat_design" data-name="iconos flat design"><g id="Grupo_467" data-name="Grupo 467"><g id="Grupo_453" data-name="Grupo 453"><path id="Trazado_410" data-name="Trazado 410" class="cls-1" d="M68.386,153.29S63.457,164.7,31,164.7c-29.7,0-31-12.365-31-12.365s.014-49.392,35.143-49.392C67.567,102.947,68.386,153.29,68.386,153.29Z"/><path id="Trazado_411" data-name="Trazado 411" class="cls-1" d="M54.933,75.619c0,12.5-9.711,21.4-20.18,21.4s-20.182-8.906-20.182-21.4,9.711-22.627,20.182-22.627S54.933,63.126,54.933,75.619Z"/></g><g id="Grupo_457" data-name="Grupo 457"><path id="Trazado_417" data-name="Trazado 417" class="cls-1" d="M34.586,21.7a33.355,33.355,0,0,1,15.468-5.834,38.11,38.11,0,0,1,16.821,1.777,36.892,36.892,0,0,1,14.337,9.017,31.491,31.491,0,0,1,8.222,14.364A55.63,55.63,0,0,0,78.586,29.593a45.954,45.954,0,0,0-13.355-7.184A48.06,48.06,0,0,0,50.266,19.78,61.918,61.918,0,0,0,34.586,21.7Z"/><path id="Trazado_418" data-name="Trazado 418" class="cls-1" d="M49.559,4.458A24.36,24.36,0,0,1,60.865.2,27.865,27.865,0,0,1,73.159,1.5a26.962,26.962,0,0,1,10.474,6.59,22.99,22.99,0,0,1,6.01,10.5,40.59,40.59,0,0,0-7.928-8.355,33.555,33.555,0,0,0-9.759-5.248A35.084,35.084,0,0,0,61.02,3.061,45.2,45.2,0,0,0,49.559,4.458Z"/></g></g></g></g></svg>