<svg xmlns="http://www.w3.org/2000/svg" viewBox="0 0 128 128"><defs><style>.cls-1{isolation:isolate;}.cls-2{fill:#e95653;}.cls-3,.cls-5{mix-blend-mode:multiply;}.cls-4{fill:none;}.cls-5{opacity:0.15;}.cls-6{fill:#fff;}.cls-7{fill:#f08e8c;}.cls-8{fill:#7fc3de;}.cls-9{fill:#9fb8cc;}.cls-10{fill:#f8f9fa;}</style></defs><title>icon-plazsparende-archivierung</title><g class="cls-1"><g id="Layer_2" data-name="Layer 2"><g id="Fondos"><circle class="cls-2" cx="64" cy="64" r="64"/><g class="cls-3"><path class="cls-4" d="M45.383,124.539A7.385,7.385,0,0,1,44.2,123.3a7.377,7.377,0,0,1-1.178-1.244,7.37,7.37,0,0,1-1.178-1.243,7.423,7.423,0,0,1-1.179-1.244,7.377,7.377,0,0,1-1.178-1.244,7.337,7.337,0,0,1-1.178-1.244,7.419,7.419,0,0,1-1.179-1.243,7.381,7.381,0,0,1-1.178-1.245,7.333,7.333,0,0,1-1.178-1.243A7.383,7.383,0,0,1,33.6,112.1a7.377,7.377,0,0,1-1.178-1.244,7.337,7.337,0,0,1-1.178-1.244,7.345,7.345,0,0,1-1.179-1.244,7.377,7.377,0,0,1-1.178-1.244,4.79,4.79,0,0,1-2.019-3.537,3.1,3.1,0,0,1,.064-.629v-19.8a.271.271,0,0,1,.017-.071,5.367,5.367,0,0,1,1.886-2.753,4.75,4.75,0,0,1-1.967-3.489,3.1,3.1,0,0,1,.064-.629v-19.8a.262.262,0,0,1,.017-.071,5.311,5.311,0,0,1,1.834-2.706A4.711,4.711,0,0,1,26.867,50.2a3.094,3.094,0,0,1,.064-.629v-19.8a.262.262,0,0,1,.017-.071,4.4,4.4,0,0,1,.871-1.69c2.724-4.209,14.629-7.55,29.845-8.4.1-.007.213-.01.319-.016q1.485-.081,3.011-.127c.25-.008.5-.016.752-.022,1.072-.027,2.153-.044,3.248-.045.059,0,.115,0,.174,0h.175c18.553,0,34.006,3.636,37.416,8.45a6.687,6.687,0,0,1,1.178,1.244,6.714,6.714,0,0,1,1.178,1.243,6.79,6.79,0,0,1,1.179,1.244,6.749,6.749,0,0,1,1.178,1.244,6.759,6.759,0,0,1,1.179,1.244,6.72,6.72,0,0,1,1.178,1.244,6.714,6.714,0,0,1,1.178,1.243,6.79,6.79,0,0,1,1.179,1.244,6.783,6.783,0,0,1,1.178,1.244,6.749,6.749,0,0,1,1.178,1.244,6.727,6.727,0,0,1,1.179,1.244A6.72,6.72,0,0,1,116.9,42.77a6.714,6.714,0,0,1,1.178,1.243,6.79,6.79,0,0,1,1.179,1.244,6.751,6.751,0,0,1,1.178,1.244,6.727,6.727,0,0,1,1.179,1.244,6.753,6.753,0,0,1,1.178,1.244,6.72,6.72,0,0,1,1.178,1.244,6.714,6.714,0,0,1,1.178,1.243,6.79,6.79,0,0,1,1.179,1.244,7.467,7.467,0,0,1,.8.793,64,64,0,1,0-80.884,71.972A7.118,7.118,0,0,1,45.383,124.539ZM27.512,54.1h.018a.265.265,0,0,0-.018.071Z"/><path d="M27.512,54.1v.071a.265.265,0,0,1,.018-.071Z"/><path class="cls-5" d="M128,64a64.366,64.366,0,0,0-.87-10.487,7.467,7.467,0,0,0-.8-.793,6.79,6.79,0,0,0-1.179-1.244,6.714,6.714,0,0,0-1.178-1.243,6.72,6.72,0,0,0-1.178-1.244,6.753,6.753,0,0,0-1.178-1.244,6.727,6.727,0,0,0-1.179-1.244,6.751,6.751,0,0,0-1.178-1.244,6.79,6.79,0,0,0-1.179-1.244A6.714,6.714,0,0,0,116.9,42.77a6.72,6.72,0,0,0-1.178-1.244,6.727,6.727,0,0,0-1.179-1.244,6.749,6.749,0,0,0-1.178-1.244,6.783,6.783,0,0,0-1.178-1.244,6.79,6.79,0,0,0-1.179-1.244,6.714,6.714,0,0,0-1.178-1.243,6.72,6.72,0,0,0-1.178-1.244,6.759,6.759,0,0,0-1.179-1.244,6.749,6.749,0,0,0-1.178-1.244,6.79,6.79,0,0,0-1.179-1.244,6.714,6.714,0,0,0-1.178-1.243,6.687,6.687,0,0,0-1.178-1.244c-3.41-4.814-18.863-8.45-37.416-8.45h-.175c-.059,0-.115,0-.174,0-1.095,0-2.176.018-3.248.045-.251.006-.5.014-.752.022q-1.524.047-3.011.127c-.106.006-.214.009-.319.016-15.216.853-27.121,4.194-29.845,8.4a4.4,4.4,0,0,0-.871,1.69.262.262,0,0,0-.017.071v19.8a3.094,3.094,0,0,0-.064.629,4.711,4.711,0,0,0,1.915,3.441,5.311,5.311,0,0,0-1.834,2.706.262.262,0,0,0-.017.071v19.8a3.1,3.1,0,0,0-.064.629,4.75,4.75,0,0,0,1.967,3.489,5.367,5.367,0,0,0-1.886,2.753.271.271,0,0,0-.017.071v19.8a3.1,3.1,0,0,0-.064.629,4.79,4.79,0,0,0,2.019,3.537,7.377,7.377,0,0,0,1.178,1.244,7.345,7.345,0,0,0,1.179,1.244,7.337,7.337,0,0,0,1.178,1.244A7.377,7.377,0,0,0,33.6,112.1a7.383,7.383,0,0,0,1.179,1.244,7.333,7.333,0,0,0,1.178,1.243,7.381,7.381,0,0,0,1.178,1.245,7.419,7.419,0,0,0,1.179,1.243,7.337,7.337,0,0,0,1.178,1.244,7.377,7.377,0,0,0,1.178,1.244,7.423,7.423,0,0,0,1.179,1.244,7.37,7.37,0,0,0,1.178,1.243A7.377,7.377,0,0,0,44.2,123.3a7.385,7.385,0,0,0,1.179,1.244,7.118,7.118,0,0,0,.863.946A63.99,63.99,0,0,0,128,64Z"/></g><path class="cls-6" d="M102.793,101.5a3.275,3.275,0,0,1,.165,1.02c0,3.308-5.072,6.269-13.1,8.288a106.824,106.824,0,0,1-25.136,2.708,106.863,106.863,0,0,1-25.139-2.708c-8.027-2.019-13.1-4.98-13.1-8.288a3.155,3.155,0,0,1,.063-.628V82.128a.265.265,0,0,1,.018-.071c1.25-5.743,17.857-10.289,38.157-10.289,21.116,0,38.235,4.92,38.235,10.988a3.337,3.337,0,0,1-.165,1.027Z"/><path class="cls-7" d="M64.723,113.748a107.641,107.641,0,0,1-25.194-2.715c-8.56-2.152-13.274-5.175-13.274-8.51a3.331,3.331,0,0,1,.07-.674l0-19.721a.449.449,0,0,1,.036-.162c1.265-5.828,18.123-10.427,38.367-10.427,21.21,0,38.464,5.032,38.464,11.217a3.581,3.581,0,0,1-.165,1.063v17.648a3.526,3.526,0,0,1,.165,1.056c0,3.335-4.714,6.357-13.272,8.51A107.586,107.586,0,0,1,64.723,113.748Zm0-41.751c-20.036,0-36.7,4.441-37.934,10.109l-.01,19.789a3.3,3.3,0,0,0-.065.628c0,3.06,4.712,6,12.926,8.066a107.258,107.258,0,0,0,25.083,2.7,107.191,107.191,0,0,0,25.081-2.7c8.214-2.067,12.924-5.007,12.924-8.066a3.06,3.06,0,0,0-.154-.949l-.011-.071.011-17.79a3.114,3.114,0,0,0,.154-.957C102.728,76.824,85.68,72,64.723,72Z"/><path class="cls-8" d="M27.147,53.113a.258.258,0,0,0-.018.07v-.07Z"/><path class="cls-9" d="M27.175,53.187l-.09,0v-.114h.129l-.027.061A.127.127,0,0,0,27.175,53.187Z"/><ellipse class="cls-2" cx="65.075" cy="81.62" rx="37.593" ry="7.942"/><path class="cls-6" d="M102.793,74.805a3.279,3.279,0,0,1,.165,1.02c0,3.308-5.072,6.269-13.1,8.288a106.771,106.771,0,0,1-25.136,2.708,106.81,106.81,0,0,1-25.139-2.708c-8.027-2.019-13.1-4.98-13.1-8.288a3.163,3.163,0,0,1,.063-.628V55.43a.265.265,0,0,1,.018-.071c1.25-5.743,17.857-10.289,38.157-10.289,21.116,0,38.235,4.921,38.235,10.988a3.343,3.343,0,0,1-.165,1.028Z"/><path class="cls-7" d="M64.723,87.05a107.641,107.641,0,0,1-25.194-2.715c-8.56-2.152-13.274-5.175-13.274-8.51a3.331,3.331,0,0,1,.07-.674l0-19.721a.453.453,0,0,1,.036-.162c1.265-5.828,18.123-10.427,38.367-10.427,21.21,0,38.464,5.032,38.464,11.217a3.576,3.576,0,0,1-.165,1.063V74.77a3.519,3.519,0,0,1,.165,1.055c0,3.335-4.714,6.357-13.272,8.51A107.586,107.586,0,0,1,64.723,87.05Zm0-41.751c-20.036,0-36.7,4.441-37.934,10.109L26.779,75.2a3.307,3.307,0,0,0-.065.628c0,3.06,4.712,6,12.926,8.066a107.2,107.2,0,0,0,25.083,2.7,107.137,107.137,0,0,0,25.081-2.7c8.214-2.067,12.924-5.006,12.924-8.066a3.049,3.049,0,0,0-.154-.948l-.011-.072.011-17.79a3.114,3.114,0,0,0,.154-.957C102.728,50.126,85.68,45.3,64.723,45.3Z"/><ellipse class="cls-2" cx="64.722" cy="54.793" rx="37.593" ry="7.942"/><path class="cls-6" d="M102.793,48.2a3.275,3.275,0,0,1,.165,1.02c0,3.307-5.072,6.269-13.1,8.288a106.828,106.828,0,0,1-25.136,2.707,106.868,106.868,0,0,1-25.139-2.707c-8.027-2.019-13.1-4.981-13.1-8.288a3.155,3.155,0,0,1,.063-.628V28.828a.265.265,0,0,1,.018-.071c1.25-5.743,17.857-10.289,38.157-10.289,21.116,0,38.235,4.92,38.235,10.988a3.337,3.337,0,0,1-.165,1.027Z"/><path class="cls-7" d="M64.723,60.447a107.685,107.685,0,0,1-25.194-2.714c-8.56-2.152-13.274-5.175-13.274-8.51a3.341,3.341,0,0,1,.07-.675l0-19.72a.419.419,0,0,1,.036-.163c1.265-5.828,18.123-10.427,38.367-10.427,21.21,0,38.464,5.032,38.464,11.218a3.586,3.586,0,0,1-.165,1.063V48.167a3.521,3.521,0,0,1,.165,1.056c0,3.335-4.714,6.357-13.272,8.51A107.618,107.618,0,0,1,64.723,60.447Zm0-41.751c-20.036,0-36.7,4.441-37.934,10.11L26.779,48.6a3.291,3.291,0,0,0-.065.628c0,3.06,4.712,6,12.926,8.066a107.237,107.237,0,0,0,25.083,2.7,107.182,107.182,0,0,0,25.081-2.7c8.214-2.067,12.924-5.007,12.924-8.066a3.012,3.012,0,0,0-.154-.95l-.011-.07.011-17.79a3.124,3.124,0,0,0,.154-.957C102.728,23.523,85.68,18.7,64.723,18.7Z"/><path class="cls-7" d="M102.958,28.9c0,3.14-5.049,5.952-13.037,7.868A111.275,111.275,0,0,1,64.9,39.343a111.259,111.259,0,0,1-25.022-2.572c-7.989-1.916-13.038-4.728-13.038-7.868,0-5.762,17.042-10.435,38.06-10.435S102.958,23.141,102.958,28.9Z"/><path class="cls-7" d="M64.9,39.429a111.948,111.948,0,0,1-25.044-2.575c-8.327-2-13.1-4.895-13.1-7.951,0-5.8,17.112-10.521,38.147-10.521,10.173,0,19.738,1.086,26.934,3.06,7.228,1.982,11.211,4.632,11.211,7.461,0,3.056-4.777,5.954-13.1,7.951A111.939,111.939,0,0,1,64.9,39.429Zm0-20.876c-20.94,0-37.975,4.643-37.975,10.35,0,2.97,4.728,5.807,12.971,7.784a111.724,111.724,0,0,0,25,2.57,111.712,111.712,0,0,0,25-2.57c8.243-1.977,12.971-4.814,12.971-7.784C102.872,23.2,85.838,18.553,64.9,18.553Z"/><path class="cls-10" d="M85.805,37.966H77.649l-4.032-4.613H55.992l-3.876,4.613H43.991L60.773,19.844h8.375ZM71.648,30.9l-6.219-7.229a4.657,4.657,0,0,1-.593-1.137h-.125a4.229,4.229,0,0,1-.625,1.137L57.929,30.9Z"/></g></g></g></svg>