<?xml version="1.0" encoding="utf-8"?>
<!-- Generator: Adobe Illustrator 25.0.0, SVG Export Plug-In . SVG Version: 6.00 Build 0)  -->
<svg version="1.1" id="Layer_1" xmlns="http://www.w3.org/2000/svg" xmlns:xlink="http://www.w3.org/1999/xlink" x="0px" y="0px"
	 viewBox="0 0 167 54.6" style="enable-background:new 0 0 167 54.6;" xml:space="preserve">
<style type="text/css">
	.st0{fill:#B2C6DF;}
	.st1{fill:#FFFFFF;}
	.st2{fill:none;}
</style>
<g id="appstore" transform="translate(-2.859 -0.814)">
	<path id="Path_12354" class="st0" d="M168.9,47.8c0,4-3.3,7.3-7.3,7.3H11.2c-4,0-7.3-3.3-7.3-7.3V8.4c0-4,3.3-7.3,7.3-7.3h150.4
		c4,0,7.3,3.3,7.3,7.3L168.9,47.8L168.9,47.8z"/>
	<path id="Path_12390" class="st1" d="M40.1,27.6c0-2.5,1.3-4.7,3.4-6c-1.3-1.9-3.5-3.1-5.8-3.1c-2.4-0.3-4.8,1.5-6,1.5
		c-1.3,0-3.2-1.4-5.2-1.4c-2.7,0.1-5.2,1.6-6.5,4c-2.8,4.9-0.7,12,2,15.9c1.3,1.9,2.9,4.1,5,4c2-0.1,2.8-1.3,5.2-1.3
		c2.4,0,3.1,1.3,5.2,1.2c2.2,0,3.5-1.9,4.8-3.9c1-1.4,1.7-2.9,2.2-4.5C41.8,32.9,40.1,30.3,40.1,27.6"/>
	<path id="Path_12391" class="st1" d="M36.1,15.8c1.2-1.4,1.8-3.2,1.6-5.1c-1.8,0.2-3.5,1-4.7,2.4c-1.2,1.3-1.8,3.1-1.7,4.9
		C33.2,18.1,35,17.2,36.1,15.8"/>
	<path id="Path_12392" class="st1" d="M69.2,42.1h-2.8l-1.5-4.8h-5.4l-1.5,4.8h-2.7l5.3-16.5h3.3L69.2,42.1z M64.4,35.2L63,30.9
		c-0.1-0.4-0.4-1.5-0.8-3.1h-0.1c-0.2,0.7-0.4,1.7-0.8,3.1L60,35.2L64.4,35.2z"/>
	<path id="Path_12393" class="st1" d="M82.9,36c0.1,1.8-0.5,3.5-1.6,4.8c-0.9,1-2.3,1.6-3.6,1.6c-1.4,0.1-2.7-0.5-3.4-1.7h-0.1v6.3
		h-2.6V34.1c0-1.3,0-2.6-0.1-3.9h2.3l0.1,1.9h0c1.4-2.2,4.3-2.8,6.5-1.4c0.4,0.2,0.7,0.6,1,0.9C82.5,32.9,83,34.4,82.9,36
		 M80.2,36.1c0-1-0.2-2-0.8-2.9c-0.5-0.8-1.4-1.2-2.3-1.2c-0.6,0-1.3,0.2-1.8,0.6c-0.5,0.4-0.9,1-1,1.7c-0.1,0.3-0.1,0.5-0.1,0.8v2
		c0,0.8,0.3,1.6,0.8,2.2c0.5,0.6,1.3,0.9,2.1,0.9c0.9,0,1.8-0.4,2.3-1.2C80,38.2,80.3,37.2,80.2,36.1"/>
	<path id="Path_12394" class="st1" d="M96.6,36c0.1,1.8-0.5,3.5-1.6,4.8c-0.9,1-2.3,1.6-3.6,1.6c-1.4,0.1-2.7-0.5-3.4-1.7h-0.1v6.3
		h-2.6V34.1c0-1.3,0-2.6-0.1-3.9h2.3l0.1,1.9h0.1c1.4-2.2,4.3-2.8,6.5-1.4c0.4,0.2,0.7,0.6,1,0.9C96.1,32.9,96.6,34.4,96.6,36
		 M93.9,36.1c0-1-0.2-2-0.8-2.9c-0.5-0.8-1.4-1.2-2.3-1.2c-0.6,0-1.3,0.2-1.8,0.6c-0.5,0.4-0.9,1-1,1.7c-0.1,0.3-0.1,0.5-0.1,0.8v2
		c0,0.8,0.3,1.6,0.8,2.2c0.5,0.6,1.3,0.9,2.1,0.9c0.9,0,1.8-0.4,2.3-1.2C93.6,38.2,93.9,37.2,93.9,36.1"/>
	<path id="Path_12395" class="st1" d="M111.9,37.5c0,1.3-0.5,2.6-1.5,3.4c-1.3,1-2.9,1.5-4.5,1.4c-1.5,0.1-3-0.3-4.3-1l0.6-2.2
		c1.2,0.7,2.5,1.1,3.8,1.1c0.8,0,1.7-0.2,2.3-0.7c0.5-0.4,0.9-1.1,0.8-1.8c0-0.6-0.2-1.2-0.7-1.7c-0.7-0.6-1.4-1-2.3-1.3
		c-2.9-1.1-4.3-2.7-4.3-4.7c0-1.3,0.5-2.5,1.5-3.3c1.1-0.9,2.6-1.4,4-1.3c1.3,0,2.6,0.2,3.7,0.8l-0.7,2.2c-1-0.5-2.1-0.8-3.2-0.8
		c-0.8,0-1.6,0.2-2.2,0.7c-0.4,0.4-0.7,0.9-0.7,1.5c0,0.6,0.3,1.2,0.8,1.6c0.7,0.5,1.5,1,2.4,1.3c1.2,0.4,2.3,1.1,3.1,2
		C111.5,35.4,111.9,36.4,111.9,37.5"/>
	<path id="Path_12396" class="st1" d="M120.6,32.2h-2.9v5.8c0,1.5,0.5,2.2,1.5,2.2c0.4,0,0.8,0,1.2-0.1l0.1,2
		c-0.7,0.2-1.4,0.3-2.1,0.3c-0.9,0.1-1.8-0.3-2.4-1c-0.7-0.9-1-2.1-0.9-3.2v-6h-1.7v-2h1.7V28l2.6-0.8v3h2.9L120.6,32.2z"/>
	<path id="Path_12397" class="st1" d="M133.7,36c0.1,1.6-0.5,3.3-1.6,4.5c-1.1,1.2-2.7,1.9-4.4,1.8c-1.6,0.1-3.1-0.6-4.2-1.7
		c-1.1-1.2-1.6-2.8-1.6-4.4c-0.1-1.7,0.5-3.3,1.6-4.5c1.1-1.2,2.7-1.8,4.3-1.8c1.6-0.1,3.1,0.6,4.2,1.7
		C133.3,32.9,133.8,34.4,133.7,36 M131,36.1c0-1-0.2-2-0.7-2.8c-0.5-0.9-1.4-1.4-2.4-1.4c-1,0-2,0.5-2.4,1.4
		c-0.5,0.9-0.7,1.9-0.7,2.9c0,1,0.2,2,0.7,2.8c0.7,1.3,2.3,1.8,3.7,1.1c0.5-0.3,0.9-0.6,1.1-1.1C130.8,38.1,131,37.1,131,36.1"/>
	<path id="Path_12398" class="st1" d="M142.3,32.5c-0.3,0-0.6-0.1-0.8-0.1c-0.9,0-1.7,0.4-2.2,1.1c-0.5,0.7-0.7,1.5-0.7,2.3v6.2H136
		l0-8.1c0-1.4,0-2.6-0.1-3.7h2.3l0.1,2.3h0.1c0.2-0.7,0.7-1.4,1.3-1.9c0.6-0.4,1.2-0.6,1.9-0.6c0.2,0,0.4,0,0.7,0V32.5z"/>
	<path id="Path_12399" class="st1" d="M154.1,35.6c0,0.4,0,0.8-0.1,1.2h-7.9c0,1,0.4,2,1.1,2.7c0.7,0.6,1.7,0.9,2.6,0.8
		c1.1,0,2.2-0.2,3.2-0.6l0.4,1.8c-1.3,0.5-2.6,0.8-4,0.7c-1.6,0.1-3.2-0.5-4.3-1.6c-1.1-1.2-1.7-2.8-1.6-4.4
		c-0.1-1.6,0.5-3.2,1.5-4.5c1-1.3,2.5-2,4.2-1.9c1.5-0.1,3,0.6,3.9,1.9C153.8,32.9,154.2,34.2,154.1,35.6 M151.6,34.9
		c0-0.7-0.1-1.4-0.5-2c-0.4-0.7-1.3-1.2-2.1-1.1c-0.8,0-1.6,0.4-2.1,1.1c-0.5,0.6-0.7,1.3-0.8,2.1L151.6,34.9L151.6,34.9z"/>
	<path id="Path_12400" class="st1" d="M63.5,15.4c0.1,1.2-0.4,2.5-1.3,3.3c-1,0.7-2.2,1.1-3.4,1c-0.6,0-1.3,0-1.9-0.1v-8
		c0.7-0.1,1.5-0.2,2.2-0.2c1.1-0.1,2.3,0.2,3.2,0.9C63.2,13.2,63.6,14.3,63.5,15.4 M62.2,15.5c0.1-0.8-0.2-1.6-0.8-2.2
		c-0.6-0.5-1.4-0.8-2.2-0.8c-0.4,0-0.7,0-1,0.1v6.1c0.3,0,0.6,0,0.9,0c0.8,0.1,1.7-0.2,2.3-0.8C61.9,17.2,62.2,16.4,62.2,15.5"/>
	<path id="Path_12401" class="st1" d="M70.8,16.7c0,0.8-0.2,1.6-0.8,2.2c-0.5,0.6-1.3,0.9-2.1,0.9c-0.8,0-1.5-0.3-2.1-0.9
		c-0.5-0.6-0.8-1.4-0.8-2.1c0-0.8,0.2-1.6,0.8-2.2c0.5-0.6,1.3-0.9,2.1-0.9c0.8,0,1.5,0.3,2.1,0.9C70.6,15.2,70.8,15.9,70.8,16.7
		 M69.5,16.8c0-0.5-0.1-1-0.3-1.4c-0.2-0.4-0.7-0.7-1.2-0.7c-0.5,0-1,0.3-1.2,0.7c-0.2,0.4-0.4,0.9-0.3,1.4c0,0.5,0.1,1,0.3,1.4
		c0.2,0.4,0.7,0.7,1.2,0.7c0.5,0,0.9-0.3,1.2-0.7C69.3,17.7,69.5,17.3,69.5,16.8"/>
	<path id="Path_12402" class="st1" d="M80.5,13.8l-1.8,5.8h-1.2l-0.8-2.5c-0.2-0.6-0.3-1.3-0.5-1.9h0c-0.1,0.6-0.3,1.3-0.5,1.9
		L75,19.7h-1.2l-1.7-5.8h1.3l0.7,2.8c0.2,0.7,0.3,1.3,0.4,1.9h0c0.1-0.5,0.3-1.1,0.5-1.9l0.8-2.8h1.1l0.8,2.7
		c0.2,0.7,0.3,1.3,0.5,1.9h0c0.1-0.6,0.2-1.3,0.4-1.9l0.7-2.7L80.5,13.8L80.5,13.8z"/>
	<path id="Path_12403" class="st1" d="M87.3,19.7H86v-3.3c0-1-0.4-1.5-1.2-1.5c-0.4,0-0.7,0.1-0.9,0.4c-0.2,0.3-0.4,0.6-0.4,1v3.5
		h-1.3v-4.2c0-0.5,0-1.1,0-1.7h1.1l0.1,0.9h0c0.2-0.3,0.4-0.5,0.7-0.7c0.4-0.2,0.8-0.3,1.2-0.3c0.5,0,1,0.2,1.4,0.5
		c0.5,0.5,0.7,1.2,0.7,1.9L87.3,19.7z"/>
	<rect id="Rectangle_2884" x="89.6" y="11.2" class="st1" width="1.3" height="8.5"/>
	<path id="Path_12404" class="st1" d="M98.5,16.7c0,0.8-0.2,1.6-0.8,2.2c-0.5,0.6-1.3,0.9-2.1,0.9c-0.8,0-1.5-0.3-2.1-0.9
		c-0.5-0.6-0.8-1.4-0.8-2.1c0-0.8,0.2-1.6,0.8-2.2c0.5-0.6,1.3-0.9,2.1-0.9c0.8,0,1.5,0.3,2.1,0.9C98.3,15.2,98.5,15.9,98.5,16.7
		 M97.2,16.8c0-0.5-0.1-1-0.3-1.4c-0.2-0.4-0.7-0.7-1.2-0.7c-0.5,0-1,0.3-1.2,0.7c-0.2,0.4-0.4,0.9-0.3,1.4c0,0.5,0.1,1,0.3,1.4
		c0.2,0.4,0.7,0.7,1.2,0.7c0.5,0,0.9-0.3,1.2-0.7C97,17.7,97.2,17.3,97.2,16.8"/>
	<path id="Path_12405" class="st1" d="M104.8,19.7h-1.2l-0.1-0.7h0c-0.4,0.5-1,0.8-1.7,0.8c-0.5,0-1-0.2-1.3-0.5
		c-0.3-0.3-0.5-0.7-0.5-1.2c0-0.7,0.3-1.3,0.9-1.6c0.8-0.4,1.6-0.6,2.5-0.6v-0.1c0-0.8-0.4-1.2-1.2-1.2c-0.5,0-1.1,0.1-1.5,0.4
		l-0.3-0.9c0.6-0.4,1.3-0.5,2-0.5c1.5,0,2.3,0.8,2.3,2.4v2.2C104.7,18.8,104.7,19.2,104.8,19.7 M103.4,17.7v-0.9
		c-1.4,0-2.1,0.4-2.1,1.2c0,0.3,0.1,0.5,0.2,0.7c0.2,0.2,0.4,0.2,0.6,0.2c0.3,0,0.6-0.1,0.8-0.3c0.2-0.2,0.4-0.4,0.4-0.7L103.4,17.7
		z"/>
	<path id="Path_12406" class="st1" d="M112.2,19.7H111l-0.1-0.9h0c-0.4,0.7-1.1,1.1-1.9,1.1c-0.7,0-1.3-0.3-1.8-0.8
		c-0.5-0.6-0.7-1.4-0.7-2.2c0-0.8,0.2-1.7,0.8-2.3c0.4-0.5,1.1-0.8,1.8-0.8c0.7-0.1,1.3,0.2,1.6,0.8h0v-3.3h1.3v6.9
		C112.1,18.7,112.1,19.2,112.2,19.7 M110.8,17.2v-1c0-0.1,0-0.3,0-0.4c-0.1-0.3-0.2-0.6-0.5-0.8c-0.2-0.2-0.5-0.3-0.9-0.3
		c-0.5,0-0.9,0.2-1.1,0.6c-0.3,0.4-0.4,1-0.4,1.5c0,0.5,0.1,1,0.4,1.4c0.3,0.4,0.7,0.6,1.1,0.6c0.4,0,0.8-0.2,1-0.5
		C110.7,18,110.8,17.6,110.8,17.2"/>
	<path id="Path_12407" class="st1" d="M123.3,16.7c0,0.8-0.2,1.6-0.8,2.2c-0.5,0.6-1.3,0.9-2.1,0.9c-0.8,0-1.5-0.3-2.1-0.9
		c-0.5-0.6-0.8-1.4-0.8-2.1c0-0.8,0.2-1.6,0.8-2.2c0.5-0.6,1.3-0.9,2.1-0.9c0.8,0,1.5,0.3,2.1,0.9C123,15.2,123.3,15.9,123.3,16.7
		 M121.9,16.8c0-0.5-0.1-1-0.3-1.4c-0.2-0.4-0.7-0.7-1.2-0.7c-0.5,0-1,0.3-1.2,0.7c-0.2,0.4-0.4,0.9-0.3,1.4c0,0.5,0.1,1,0.3,1.4
		c0.3,0.6,1.2,0.9,1.8,0.5c0.2-0.1,0.4-0.3,0.5-0.6C121.8,17.7,121.9,17.3,121.9,16.8"/>
	<path id="Path_12408" class="st1" d="M130.3,19.7H129v-3.3c0-1-0.4-1.5-1.2-1.5c-0.4,0-0.7,0.1-0.9,0.4c-0.2,0.3-0.4,0.6-0.4,1v3.5
		h-1.3v-4.2c0-0.5,0-1.1,0-1.7h1.1l0.1,0.9h0c0.2-0.3,0.4-0.5,0.7-0.7c0.4-0.2,0.8-0.3,1.2-0.3c0.5,0,1,0.2,1.4,0.5
		c0.5,0.5,0.7,1.2,0.7,1.9L130.3,19.7z"/>
	<path id="Path_12409" class="st1" d="M139,14.8h-1.4v2.8c0,0.7,0.3,1.1,0.8,1.1c0.2,0,0.4,0,0.6-0.1l0,1c-0.3,0.1-0.7,0.2-1,0.1
		c-0.4,0-0.9-0.1-1.2-0.5c-0.3-0.5-0.5-1-0.4-1.6v-2.9h-0.9v-1h0.9v-1.1l1.3-0.4v1.5h1.4L139,14.8L139,14.8z"/>
	<path id="Path_12410" class="st1" d="M145.9,19.7h-1.3v-3.3c0-1-0.4-1.6-1.2-1.6c-0.6,0-1.1,0.4-1.2,0.9c0,0.2-0.1,0.3-0.1,0.5v3.5
		h-1.3v-8.5h1.3v3.5h0c0.4-0.6,1-1,1.8-1c0.5,0,1,0.2,1.3,0.5c0.5,0.5,0.7,1.2,0.7,2V19.7z"/>
	<path id="Path_12411" class="st1" d="M153,16.5c0,0.2,0,0.4,0,0.6H149c0,0.5,0.2,1,0.6,1.3c0.4,0.3,0.8,0.4,1.3,0.4
		c0.5,0,1.1-0.1,1.6-0.3l0.2,0.9c-0.6,0.3-1.3,0.4-2,0.4c-0.8,0-1.6-0.2-2.1-0.8c-0.5-0.6-0.8-1.4-0.8-2.1c0-0.8,0.2-1.6,0.7-2.2
		c0.5-0.6,1.3-1,2-0.9c0.8,0,1.5,0.3,1.9,0.9C152.8,15.2,153,15.8,153,16.5 M151.7,16.1c0-0.4-0.1-0.7-0.3-1c-0.2-0.4-0.6-0.6-1-0.5
		c-0.4,0-0.8,0.2-1,0.5c-0.2,0.3-0.4,0.6-0.4,1L151.7,16.1z"/>
	<rect id="Rectangle_2885" x="3.9" y="4.1" class="st2" width="165" height="47.3"/>
</g>
</svg>
