<?xml version="1.0" encoding="utf-8"?>
<!-- Generator: Adobe Illustrator 25.0.0, SVG Export Plug-In . SVG Version: 6.00 Build 0)  -->
<svg version="1.1" id="Layer_1" xmlns="http://www.w3.org/2000/svg" xmlns:xlink="http://www.w3.org/1999/xlink" x="0px" y="0px"
	 viewBox="0 0 167 54.6" style="enable-background:new 0 0 167 54.6;" xml:space="preserve">
<style type="text/css">
	.st0{fill:#B2C6DF;}
	.st1{clip-path:url(#SVGID_2_);}
	.st2{fill:#FFFFFF;}
	.st3{clip-path:url(#SVGID_4_);}
	.st4{clip-path:url(#SVGID_6_);}
	.st5{clip-path:url(#SVGID_8_);}
	.st6{fill:#F9F9F9;}
	.st7{fill:#F9F9FA;}
</style>
<g id="googleplay" transform="translate(-2.86 -0.814)">
	<path id="Path_12354" class="st0" d="M168.9,47.8c0,4-3.3,7.3-7.3,7.3H11.2c-4,0-7.3-3.3-7.3-7.3V8.4c0-4,3.3-7.3,7.3-7.3h150.4
		c4,0,7.3,3.3,7.3,7.3L168.9,47.8L168.9,47.8z"/>
	<g>
		<defs>
			<path id="SVGID_1_" d="M39.6,24.9l-7.4-4.3l-14.4-8.3c-0.8-0.5-1.6-0.2-1.6,0.8v33.8c0,0.7,0.6,1,1.3,0.6L32.2,39l7.4-4.3
				l7.2-4.1c0.8-0.5,0.8-1.1,0-1.5S39.6,24.9,39.6,24.9z"/>
		</defs>
		<clipPath id="SVGID_2_">
			<use xlink:href="#SVGID_1_"  style="overflow:visible;"/>
		</clipPath>
		<g id="Group_11013" transform="translate(15.236 11.773)" class="st1">
			<path id="Path_12355" class="st2" d="M1-0.2v36.6L19.4,18L1-0.2z"/>
		</g>
	</g>
	<g>
		<defs>
			<path id="SVGID_3_" d="M39.6,24.9l-7.4-4.3l-14.4-8.3c-0.8-0.5-1.6-0.2-1.6,0.8v33.8c0,0.7,0.6,1,1.3,0.6L32.2,39l7.4-4.3
				l7.2-4.1c0.8-0.5,0.8-1.1,0-1.5S39.6,24.9,39.6,24.9z"/>
		</defs>
		<clipPath id="SVGID_4_">
			<use xlink:href="#SVGID_3_"  style="overflow:visible;"/>
		</clipPath>
		<g id="Group_11014" transform="translate(15.236 11.773)" class="st3">
			<path id="Path_12357" class="st2" d="M24.4,13.1l-7.4-4.3L1-0.4v0.1L19.4,18L24.4,13.1z"/>
		</g>
	</g>
	<g>
		<defs>
			<path id="SVGID_5_" d="M39.6,24.9l-7.4-4.3l-14.4-8.3c-0.8-0.5-1.6-0.2-1.6,0.8v33.8c0,0.7,0.6,1,1.3,0.6L32.2,39l7.4-4.3
				l7.2-4.1c0.8-0.5,0.8-1.1,0-1.5S39.6,24.9,39.6,24.9z"/>
		</defs>
		<clipPath id="SVGID_6_">
			<use xlink:href="#SVGID_5_"  style="overflow:visible;"/>
		</clipPath>
		<g id="Group_11015" transform="translate(15.236 11.773)" class="st4">
			<path id="Path_12359" class="st2" d="M1,36.3v0.1l15.9-9.2l7.4-4.3l-5-4.9L1,36.3z"/>
		</g>
	</g>
	<g>
		<defs>
			<path id="SVGID_7_" d="M39.6,24.9l-7.4-4.3l-14.4-8.3c-0.8-0.5-1.6-0.2-1.6,0.8v33.8c0,0.7,0.6,1,1.3,0.6L32.2,39l7.4-4.3
				l7.2-4.1c0.8-0.5,0.8-1.1,0-1.5S39.6,24.9,39.6,24.9z"/>
		</defs>
		<clipPath id="SVGID_8_">
			<use xlink:href="#SVGID_7_"  style="overflow:visible;"/>
		</clipPath>
		<g id="Group_11016" transform="translate(15.236 11.773)" class="st5">
			<path id="Path_12361" class="st2" d="M24.4,13.1L19.4,18l4.9,4.9l8.5-4.9L24.4,13.1z"/>
		</g>
	</g>
	<path id="Path_12363" class="st6" d="M132.3,37c-0.7,0-1.3-0.1-1.9-0.4c-0.6-0.3-1.1-0.7-1.4-1.2h-0.1c0.1,0.6,0.1,1.2,0.1,1.8v4.4
		h-1.6V26.1h1.3l0.2,1.5h0.1c0.4-0.5,0.9-1,1.4-1.3c0.6-0.3,1.2-0.4,1.9-0.4c1.3-0.1,2.5,0.5,3.3,1.4c1.5,2.5,1.5,5.6,0,8.1
		C134.7,36.5,133.5,37,132.3,37z M132,27.3c-0.9-0.1-1.8,0.3-2.4,0.9c-0.6,0.8-0.8,1.9-0.7,2.9v0.4c-0.1,1.1,0.2,2.2,0.7,3.2
		c0.6,0.7,1.5,1,2.4,1c0.9,0,1.7-0.4,2.2-1.1c0.6-0.9,0.8-2,0.8-3.1c0.1-1.1-0.2-2.1-0.8-3C133.7,27.7,132.9,27.3,132,27.3L132,27.3
		z M140.4,36.8h-1.6V21.7h1.6V36.8z M149.7,36.8l-0.3-1.5h-0.1c-0.4,0.6-1,1-1.6,1.4c-0.6,0.3-1.3,0.4-2,0.4
		c-0.9,0.1-1.8-0.2-2.5-0.8c-0.6-0.6-1-1.5-0.9-2.3c0-2.1,1.7-3.3,5.2-3.4l1.8-0.1v-0.7c0.1-0.7-0.1-1.3-0.5-1.8
		c-0.5-0.4-1.1-0.7-1.7-0.6c-1.1,0-2.1,0.3-3,0.8l-0.5-1.2c0.5-0.3,1.1-0.5,1.7-0.7c0.6-0.2,1.2-0.2,1.9-0.2c1-0.1,2,0.2,2.8,0.8
		c0.7,0.7,1,1.7,0.9,2.7v7.3L149.7,36.8L149.7,36.8z M146,35.6c0.9,0,1.7-0.2,2.4-0.8c0.6-0.6,0.9-1.5,0.9-2.3v-1l-1.6,0.1
		c-1,0-1.9,0.2-2.8,0.6c-0.6,0.3-0.9,1-0.8,1.6c0,0.5,0.2,1,0.5,1.3C145,35.5,145.5,35.7,146,35.6L146,35.6z M151.8,26.1h1.7
		l2.3,6.1c0.4,1,0.7,2,1,3h0.1c0.1-0.3,0.3-0.9,0.5-1.7c0.3-0.8,1.1-3.3,2.6-7.4h1.7l-4.6,12.1c-0.3,1-0.9,1.8-1.6,2.5
		c-0.6,0.5-1.4,0.8-2.2,0.8c-0.5,0-1-0.1-1.5-0.2v-1.3c0.4,0.1,0.8,0.1,1.2,0.1c1.1,0,2.1-0.8,2.4-1.9l0.6-1.5L151.8,26.1z
		 M102.4,27.1c1.7,1.1,2.1,3.4,0.9,5c-0.3,0.5-0.7,0.9-1.2,1.1c-0.4,0.3-0.6,0.7-0.6,1.1c0,0.4,0.2,0.7,0.6,1l0.8,0.6
		c1,0.8,1.9,1.6,1.9,3.1c0,2.1-2,4.2-5.8,4.2c-3.2,0-4.8-1.5-4.8-3.2c0-1.1,0.7-2.2,1.7-2.7c1.3-0.7,2.8-1,4.2-1
		c-0.4-0.4-0.6-0.9-0.7-1.5c0-0.3,0.1-0.6,0.2-0.9c-0.2,0-0.5,0-0.7,0c-1.9,0.1-3.6-1.4-3.7-3.3c0-0.1,0-0.1,0-0.2
		c0-1.2,0.5-2.2,1.4-3c1.1-0.9,2.6-1.3,4-1.2h4.6l-1.4,0.8H102.4L102.4,27.1z M100.9,37c-0.2,0-0.3,0-0.5,0c-0.8,0-1.6,0.1-2.3,0.4
		c-1.1,0.3-1.8,1.2-1.9,2.3c0,1.6,1.5,2.7,3.9,2.7c2.1,0,3.3-1,3.3-2.4C103.3,38.8,102.6,38.2,100.9,37L100.9,37z M101.5,32.8
		c0.4-0.4,0.6-1,0.6-1.6c0-1.6-1-4.1-2.8-4.1c-0.6,0-1.2,0.3-1.6,0.7c-0.3,0.5-0.5,1.1-0.5,1.6c0,1.5,0.9,4,2.8,4
		C100.6,33.4,101.1,33.2,101.5,32.8L101.5,32.8z M88.4,36.6c-2.9,0.1-5.3-2.2-5.4-5.1c0-0.1,0-0.1,0-0.2c0.1-3,2.6-5.5,5.6-5.4
		c0,0,0.1,0,0.1,0c2.9-0.1,5.2,2.2,5.3,5.1c0,0.1,0,0.1,0,0.2c0,3-2.4,5.4-5.4,5.4C88.6,36.6,88.5,36.6,88.4,36.6L88.4,36.6z
		 M91.2,34.8c0.5-0.7,0.7-1.6,0.7-2.5c0-2-0.9-5.7-3.7-5.7c-0.7,0-1.4,0.3-2,0.8c-0.7,0.7-1.1,1.7-1,2.7c0,2.2,1.1,5.8,3.8,5.8
		C89.8,36,90.7,35.5,91.2,34.8L91.2,34.8z M76.4,36.6c-2.9,0.1-5.3-2.2-5.4-5.1c0-0.1,0-0.1,0-0.2c0.1-3,2.6-5.5,5.6-5.4
		c0.1,0,0.1,0,0.2,0c2.9-0.1,5.2,2.2,5.3,5.1c0,0.1,0,0.1,0,0.2c0,3-2.5,5.4-5.4,5.4C76.5,36.6,76.5,36.6,76.4,36.6L76.4,36.6z
		 M79.2,34.8c0.5-0.7,0.7-1.6,0.7-2.5c0-2-0.9-5.7-3.7-5.7c-0.7,0-1.4,0.3-2,0.8c-0.7,0.7-1.1,1.7-1,2.7c0,2.2,1.1,5.8,3.8,5.8
		C77.8,36,78.7,35.5,79.2,34.8L79.2,34.8z M69.3,36.3L66.1,37c-1.2,0.2-2.4,0.3-3.7,0.4c-6.2,0-8.5-4.5-8.5-8.1c0-4.3,3.3-8.3,9-8.3
		c1.2,0,2.3,0.2,3.4,0.5c1.1,0.3,2.1,0.7,2.9,1.4l-1.9,1.8l-0.8,0.2l0.6-0.9c-1.2-1.3-3-2.1-4.8-2.1c-3.5,0-6.2,2.7-6.2,6.6
		c-0.1,4.4,3.3,8,7.6,8.1c0.1,0,0.2,0,0.3,0c1,0,1.9-0.2,2.8-0.6v-3.6l-3.4,0.2l1.8-1h4.7l-0.6,0.6c-0.1,0.1-0.2,0.2-0.2,0.4
		c0,0.2,0,0.8,0,1.1L69.3,36.3L69.3,36.3z"/>
	<path id="Path_12364" class="st6" d="M109.5,35.6c-0.7-0.1-0.9-0.2-0.9-1.1V21.9c0,0,0-0.1,0-0.1c0.1-0.8,0.3-0.9,1-1.3h-3.2
		l-1.7,0.8h1.7v13.8c0,0.4-0.1,0.5-0.6,1.2h4l0.8-0.5C110.3,35.7,109.9,35.7,109.5,35.6z M118.6,35.8c-0.2,0.1-0.5,0.3-0.7,0.4
		c-0.7,0.3-1.4,0.4-2.2,0.4c-1.1,0-2.1-0.3-2.9-0.9c-1.5-1.1-2.3-2.8-2.3-4.7c-0.1-2.8,2.2-5.1,4.9-5.1c0.1,0,0.1,0,0.2,0
		c0.8,0,1.6,0.2,2.3,0.6c0.8,0.5,1.3,1.3,1.6,2.2l-5.2,2.1l-1.7,0.1c0.6,2.8,2.5,4.5,4.6,4.5c1,0,1.9-0.3,2.7-0.8L118.6,35.8z
		 M116.5,29.2c0.4-0.2,0.6-0.3,0.6-0.6c-0.1-1.1-1.1-1.9-2.2-1.9c-0.9,0-2.6,0.7-2.6,3.1c0,0.4,0,0.8,0.1,1.2L116.5,29.2L116.5,29.2
		z M120.7,26.2v1.5h-0.2v-1.5h-0.5V26h1.1v0.2L120.7,26.2L120.7,26.2z M122.7,27.6v-1.5h0l-0.5,1.5h-0.1l-0.5-1.5l0,0v1.5h-0.2V26
		h0.3l0.4,1.3h0l0.4-1.3h0.3v1.6L122.7,27.6z"/>
	<path id="Path_12365" class="st7" d="M58.4,16.6h-1.1c-0.1-0.4-0.2-0.9-0.3-1.3h-1.6c-0.2,0.4-0.3,0.9-0.3,1.3h-1
		c0-0.1,0.3-0.8,0.8-2.2c0.3-0.7,0.6-1.5,0.8-2.3h1.3c0.2,0.8,0.4,1.5,0.7,2.3C57.9,15.1,58.2,15.9,58.4,16.6z M56.8,14.7
		c-0.2-0.6-0.4-1.3-0.6-1.9h-0.1c0,0.1-0.2,0.7-0.6,1.9H56.8z M62.8,16.6H62c-0.3-0.5-0.6-1-1-1.5c-0.5-0.6-0.8-1.3-1.1-2h-0.1
		c0.1,0.5,0.1,0.9,0.1,1.4c0,0.6,0,1.3,0,2.1h-0.9c0-0.7,0.1-1.5,0.1-2.4c0-0.8,0-1.6-0.1-2.2h1c0.2,0.5,0.5,1,0.9,1.5
		c0.4,0.6,0.8,1.2,1,1.8h0.1C62,15,62,14.5,62,14c0-0.6,0-1.3,0-1.9h0.9c0,0.6,0,1.3,0,2.2C62.8,15.1,62.8,15.9,62.8,16.6L62.8,16.6
		z M67.9,14.2c0,0.6-0.2,1.2-0.6,1.7c-0.4,0.5-1.1,0.8-1.8,0.7c-0.3,0-0.8,0-1.4,0c0-0.7,0-1.5,0-2.4c0-0.8,0-1.6,0-2.2h0.6
		c0.1,0,0.2,0,0.4,0c0.2,0,0.3,0,0.4,0c0.7-0.1,1.3,0.2,1.8,0.6C67.7,13.1,67.9,13.7,67.9,14.2L67.9,14.2z M66.9,14.4
		c0-0.4-0.1-0.8-0.4-1.1c-0.3-0.3-0.7-0.5-1.2-0.5c-0.1,0-0.3,0-0.4,0c0,0.5,0,0.9,0,1.4c0,0.6,0,1.1,0,1.6c0.1,0,0.3,0,0.4,0
		c0.4,0,0.8-0.1,1.1-0.5C66.8,15.2,66.9,14.8,66.9,14.4L66.9,14.4z M72.5,16.6h-1c-0.1-0.5-0.4-1-0.6-1.5c-0.2-0.2-0.4-0.3-0.7-0.3
		c-0.1,0-0.3,0-0.4,0c0,0.6,0,1.2,0,1.8h-1c0-0.7,0-1.5,0-2.4c0-0.8,0-1.6,0-2.2h0.6c0.1,0,0.2,0,0.4,0c0.2,0,0.4,0,0.6,0
		c1.1,0,1.6,0.4,1.6,1.1c0,0.6-0.4,1.1-0.9,1.2v0.1c0.3,0.1,0.5,0.3,0.6,0.5C72.1,15.5,72.3,16.1,72.5,16.6z M71.2,13.4
		c0-0.5-0.3-0.7-0.9-0.7c-0.2,0-0.4,0-0.6,0c0,0.4,0,0.8,0,1.4c0.1,0,0.2,0,0.3,0C70.8,14.2,71.2,14,71.2,13.4L71.2,13.4z
		 M77.5,14.3c0,0.7-0.2,1.3-0.7,1.8c-0.4,0.5-1,0.7-1.6,0.7c-0.6,0-1.1-0.2-1.5-0.6c-0.4-0.4-0.6-1-0.6-1.6c0-0.7,0.2-1.3,0.7-1.8
		c0.4-0.5,1-0.7,1.6-0.7c0.6,0,1.1,0.2,1.5,0.6C77.3,13.1,77.5,13.7,77.5,14.3L77.5,14.3z M76.5,14.4c0-0.4-0.1-0.8-0.4-1.2
		c-0.2-0.3-0.6-0.5-0.9-0.5c-0.3,0-0.7,0.2-0.9,0.5C74.1,13.6,74,14,74,14.4c0,0.4,0.1,0.8,0.4,1.2c0.2,0.3,0.6,0.5,0.9,0.5
		c0.3,0,0.7-0.2,0.9-0.5C76.4,15.2,76.5,14.8,76.5,14.4L76.5,14.4z M79.4,16.6h-1c0-0.7,0-1.5,0-2.4c0-0.8,0-1.6,0-2.2h1
		c0,0.6,0,1.3,0,2.2C79.4,15.1,79.4,15.9,79.4,16.6L79.4,16.6z M84.4,14.2c0,0.6-0.2,1.2-0.6,1.7c-0.4,0.5-1.1,0.8-1.8,0.7
		c-0.3,0-0.8,0-1.4,0c0-0.7,0-1.5,0-2.4c0-0.8,0-1.6,0-2.2h0.6c0.1,0,0.2,0,0.4,0s0.3,0,0.4,0c0.7-0.1,1.3,0.2,1.8,0.6
		C84.2,13.1,84.4,13.7,84.4,14.2L84.4,14.2z M83.5,14.4c0-0.4-0.1-0.8-0.4-1.1c-0.3-0.3-0.7-0.5-1.2-0.5c-0.1,0-0.3,0-0.4,0
		c0,0.5,0,0.9,0,1.4c0,0.6,0,1.1,0,1.6c0.1,0,0.3,0,0.5,0c0.4,0,0.8-0.1,1.1-0.5C83.4,15.2,83.5,14.8,83.5,14.4L83.5,14.4z
		 M91.1,16.6H90c-0.1-0.4-0.2-0.9-0.3-1.3h-1.6c-0.2,0.4-0.3,0.9-0.3,1.3h-1c0-0.1,0.3-0.8,0.8-2.2c0.3-0.7,0.6-1.5,0.8-2.3h1.3
		c0.2,0.8,0.4,1.5,0.7,2.3C90.7,15.1,90.9,15.9,91.1,16.6L91.1,16.6z M89.5,14.7c-0.2-0.6-0.4-1.3-0.6-1.9h-0.1
		c0,0.1-0.2,0.7-0.6,1.9H89.5z M95.1,13.3c0,0.5-0.2,1-0.6,1.2c-0.5,0.3-1,0.4-1.5,0.4c-0.1,0-0.2,0-0.2,0c0,0.4,0,1,0,1.7h-1
		c0-0.7,0-1.5,0-2.4c0-0.8,0-1.5,0-2.2h0.6c0.1,0,0.2,0,0.5,0s0.5,0,0.6,0c0.4,0,0.8,0.1,1.1,0.3C95,12.6,95.2,12.9,95.1,13.3
		L95.1,13.3z M94.2,13.5c0-0.5-0.3-0.7-1-0.7c-0.2,0-0.3,0-0.5,0.1c0,0.4,0,0.9,0,1.5c0.1,0,0.1,0,0.2,0
		C93.8,14.3,94.2,14,94.2,13.5L94.2,13.5z M99.3,13.3c0,0.5-0.2,1-0.6,1.2c-0.5,0.3-1,0.4-1.5,0.4c-0.1,0-0.2,0-0.2,0
		c0,0.4,0,1,0,1.7h-1c0-0.7,0-1.5,0-2.4c0-0.8,0-1.5,0-2.2h0.6c0.1,0,0.2,0,0.5,0c0.2,0,0.5,0,0.6,0c0.4,0,0.8,0.1,1.1,0.3
		C99.1,12.6,99.3,12.9,99.3,13.3L99.3,13.3z M98.4,13.5c0-0.5-0.3-0.7-1-0.7c-0.2,0-0.3,0-0.5,0.1c0,0.4,0,0.9,0,1.5
		c0.1,0,0.1,0,0.2,0C98,14.3,98.4,14,98.4,13.5L98.4,13.5z M106.1,14.3c0,0.7-0.2,1.3-0.7,1.8c-0.4,0.5-1,0.7-1.6,0.7
		c-0.6,0-1.1-0.2-1.5-0.6c-0.4-0.4-0.6-1-0.6-1.6c0-0.7,0.2-1.3,0.7-1.8c0.4-0.5,1-0.7,1.6-0.7c0.6,0,1.1,0.2,1.5,0.6
		C105.9,13.1,106.1,13.7,106.1,14.3L106.1,14.3z M105.1,14.4c0-0.4-0.1-0.8-0.4-1.2c-0.2-0.3-0.6-0.5-0.9-0.5
		c-0.3,0-0.7,0.2-0.9,0.5c-0.2,0.3-0.4,0.7-0.4,1.1c0,0.4,0.1,0.8,0.4,1.2c0.2,0.3,0.6,0.5,0.9,0.5c0.3,0,0.7-0.2,0.9-0.5
		C105,15.2,105.2,14.8,105.1,14.4L105.1,14.4z M110.8,16.6h-0.9c-0.3-0.5-0.6-1-1-1.5c-0.5-0.6-0.8-1.3-1.1-2h-0.1
		c0.1,0.5,0.1,0.9,0.1,1.4c0,0.6,0,1.3,0,2.1h-0.9c0-0.7,0.1-1.5,0.1-2.4c0-0.8,0-1.6-0.1-2.2h1c0.2,0.5,0.5,1,0.9,1.5
		c0.4,0.6,0.8,1.2,1,1.8h0.1C110,15,110,14.5,110,14c0-0.6,0-1.3,0-1.9h0.9c0,0.6,0,1.3,0,2.2C110.7,15.1,110.8,15.9,110.8,16.6
		L110.8,16.6z"/>
</g>
</svg>
