<?xml version="1.0" encoding="utf-8"?>
<!-- Generator: Adobe Illustrator 25.0.0, SVG Export Plug-In . SVG Version: 6.00 Build 0)  -->
<svg version="1.1" id="Layer_1" xmlns="http://www.w3.org/2000/svg" xmlns:xlink="http://www.w3.org/1999/xlink" x="0px" y="0px"
	 viewBox="0 0 223 55.1" style="enable-background:new 0 0 223 55.1;" xml:space="preserve">
<style type="text/css">
	.st0{fill:#B2C6DF;}
</style>
<g id="intercom-vector-logo" transform="translate(-20.4 -247.8)">
	<path id="Path_12338" class="st0" d="M70,248.2H28.8c-3.8,0-6.8,3-6.9,6.8c0,0,0,0,0,0v40.8c0,3.8,3.1,6.8,6.9,6.8H70
		c3.8,0,6.8-3,6.9-6.8c0,0,0,0,0,0V255C76.8,251.2,73.8,248.2,70,248.2C70.1,248.2,70,248.2,70,248.2z M56.7,258.1
		c0-1,0.9-1.8,1.9-1.8c1,0,1.8,0.8,1.8,1.8v24.2c0,1-0.9,1.8-1.9,1.8c-1,0-1.8-0.8-1.8-1.8V258.1z M47.6,257.2c0-1,0.9-1.8,1.9-1.8
		c1,0,1.8,0.8,1.8,1.8v26.3c0,1-0.9,1.8-1.9,1.8c-1,0-1.8-0.8-1.8-1.8V257.2z M38.4,258.1c0-1,0.9-1.8,1.9-1.8c1,0,1.8,0.8,1.8,1.8
		v24.2c0,1-0.9,1.8-1.9,1.8c-1,0-1.8-0.8-1.8-1.8V258.1z M29.2,261.8c0-1,0.9-1.8,1.9-1.8c1,0,1.8,0.8,1.8,1.8v16.3
		c0,1-0.9,1.8-1.9,1.8c-1,0-1.8-0.8-1.8-1.8V261.8z M68.9,289.4c-0.3,0.3-7.1,5.9-19.5,5.9s-19.2-5.6-19.5-5.9
		c-0.7-0.7-0.8-1.8-0.1-2.6c0.7-0.7,1.8-0.8,2.5-0.2c0.1,0.1,6.2,5,17.1,5c11.1,0,17.1-5,17.1-5c0.8-0.6,1.9-0.6,2.6,0.2
		C69.7,287.6,69.7,288.7,68.9,289.4C68.9,289.4,68.9,289.4,68.9,289.4z M69.5,278.1c0,1-0.9,1.8-1.9,1.8c-1,0-1.8-0.8-1.8-1.8v-16.3
		c0-1,0.9-1.8,1.9-1.8c1,0,1.8,0.8,1.8,1.8V278.1z"/>
	<path id="Path_12339" class="st0" d="M98.2,283.2c0,0.9-0.7,1.7-1.7,1.7s-1.7-0.7-1.7-1.7v-15.8c0-0.9,0.7-1.7,1.7-1.7
		s1.7,0.7,1.7,1.7V283.2z"/>
	<path id="Path_12340" class="st0" d="M119.7,267.5v14.4c0,1.9-1,3-2.7,3h-0.1c-1.6,0-2.3-0.9-3-2.2l-3.4-6.5l-3-6.7l0.1,6.5l0,7.3
		c0,0.9-0.7,1.7-1.7,1.7c-0.9,0-1.7-0.7-1.7-1.7v-14.4c-0.2-1.5,0.9-2.9,2.4-3c0.1,0,0.3,0,0.4,0h0.1c1.7,0,2.4,0.9,3,2.2l3.3,6.5
		l2.8,6.3l-0.1-6l0-7.3c0-0.9,0.7-1.6,1.6-1.7c0,0,0.1,0,0.1,0C119,265.8,119.7,266.5,119.7,267.5
		C119.7,267.4,119.7,267.4,119.7,267.5z"/>
	<path id="Path_12341" class="st0" d="M133.1,283.2c0,0.9-0.7,1.7-1.7,1.7c-0.9,0-1.7-0.7-1.7-1.7V269h-4.1c-0.9,0-1.6-0.7-1.6-1.6
		s0.7-1.6,1.6-1.6h11.6c0.9,0,1.6,0.7,1.6,1.6s-0.7,1.6-1.6,1.6h-4.1V283.2z"/>
	<path id="Path_12342" class="st0" d="M143.1,282.7v-14.8c-0.1-1.1,0.6-2,1.7-2.1c0.2,0,0.3,0,0.5,0h9.6c0.8,0,1.5,0.7,1.5,1.5
		c0,0,0,0,0,0c0,0.8-0.6,1.5-1.5,1.5c0,0-0.1,0-0.1,0h-8.5v4.6h7.5c0.8,0,1.5,0.7,1.5,1.5c0,0.8-0.7,1.5-1.5,1.5h-7.5v5.3h8.5
		c0.8,0,1.5,0.7,1.5,1.5c0,0,0,0,0,0c0,0.8-0.6,1.5-1.5,1.5c0,0-0.1,0-0.1,0h-9.7c-1,0.1-2-0.6-2.1-1.6
		C143.1,283.1,143.1,282.9,143.1,282.7z"/>
	<path id="Path_12343" class="st0" d="M175.4,282.7c0.4,0.8,0.1,1.8-0.7,2.2c0,0-0.1,0-0.1,0.1c-0.8,0.4-1.9,0.1-2.3-0.7l-3.7-6.9
		h-3.5l0,5.8c0,0.9-0.7,1.7-1.7,1.7c-0.9,0-1.7-0.7-1.7-1.7v-15.4c-0.1-1.1,0.6-2,1.7-2.1c0.2,0,0.3,0,0.5,0h6.3
		c4.4,0,6.2,2.8,6.2,5.7c0.1,2.6-1.8,4.9-4.4,5.3L175.4,282.7z M165,274.4h5.3c1.4,0.1,2.6-0.9,2.7-2.3c0-0.2,0-0.3,0-0.5
		c0.1-1.4-0.9-2.6-2.4-2.8c-0.1,0-0.3,0-0.4,0H165V274.4z"/>
	<path id="Path_12344" class="st0" d="M183.3,283.4c-2-1.8-2.9-4.6-2.9-8.1c0-3.6,0.9-6.3,2.9-8.1c1.5-1.2,3.4-1.9,5.3-1.8
		c1.8-0.1,3.5,0.4,5,1.5c1.2,1,2,2.3,2.3,3.7c0.2,0.9-0.3,1.7-1.2,1.9c-0.1,0-0.1,0-0.2,0c-0.9,0.1-1.8-0.4-2-1.3
		c-0.3-0.7-0.7-1.4-1.2-1.9c-0.7-0.6-1.7-0.9-2.7-0.9c-1.1-0.1-2.2,0.3-3,1.1c-1.1,1.1-1.6,3.1-1.6,5.6c0,2.5,0.4,4.5,1.6,5.6
		c0.8,0.8,1.9,1.2,3,1.1c1.7,0.1,3.3-0.9,3.9-2.5c0.3-0.9,1.1-1.4,2-1.2c0.9,0.2,1.4,1,1.2,1.9c0,0,0,0.1,0,0.1
		c-0.4,1.4-1.3,2.6-2.4,3.4c-1.4,0.9-3,1.4-4.7,1.3C186.6,285.3,184.8,284.7,183.3,283.4z"/>
	<path id="Path_12345" class="st0" d="M199.5,275.3c0-6,2.5-9.9,8.3-9.9c5.7,0,8.2,3.8,8.2,9.9c0,6.2-2.5,9.9-8.2,9.9
		C202,285.2,199.5,281.5,199.5,275.3z M212.6,275.3c0-4.5-1.7-6.7-4.8-6.7c-3.1,0-4.8,2.2-4.8,6.7s1.6,6.7,4.8,6.7
		S212.6,279.9,212.6,275.3L212.6,275.3z"/>
	<path id="Path_12346" class="st0" d="M241.9,283.2c0,0.9-0.7,1.7-1.7,1.7c-0.9,0-1.7-0.7-1.7-1.7v-7.1l0.1-7l-2.3,7.1l-2.3,7
		c-0.4,1.3-1.7,2-3,1.6c-0.8-0.2-1.4-0.8-1.6-1.6l-2.4-6.9l-2.2-7l0.1,6.9v7.1c0,0.9-0.7,1.7-1.7,1.7c-0.9,0-1.7-0.7-1.7-1.7V269
		c0-2,1.1-3.1,2.9-3.1c1.8,0,2.8,0.9,3.3,2.6l2.5,7.3l1.5,5l1.5-5l2.5-7.3c0.5-1.7,1.5-2.6,3.3-2.6c1.9,0,2.9,1.1,2.9,3.1
		L241.9,283.2z"/>
</g>
</svg>
