<?xml version="1.0" encoding="utf-8"?>
<!-- Generator: Adobe Illustrator 25.0.0, SVG Export Plug-In . SVG Version: 6.00 Build 0)  -->
<svg version="1.1" id="Layer_1" xmlns="http://www.w3.org/2000/svg" xmlns:xlink="http://www.w3.org/1999/xlink" x="0px" y="0px"
	 viewBox="0 0 204 43.1" style="enable-background:new 0 0 204 43.1;" xml:space="preserve">
<style type="text/css">
	.st0{fill:#B2C6DF;}
</style>
<g id="passbook" transform="translate(-29.25 -24.977)">
	<path id="Path_12366" class="st0" d="M44.2,35.4c-3.6,0-5.9,1.3-7.4,3.2l-0.1-2.7h-5.8v31.9h6V56c1.5,1.7,4,2.8,7.3,2.8
		c6.4,0,10.9-4.8,10.9-11.6C55.1,40.3,50.6,35.4,44.2,35.4z M36.9,47.2c-0.2-3.4,2.5-6.2,5.8-6.4c3.4-0.2,6.2,2.5,6.4,5.8
		c0,0.2,0,0.4,0,0.6c0.1,3.4-2.6,6.2-6,6.2c-3.4,0.1-6.2-2.6-6.2-6C36.9,47.3,36.9,47.3,36.9,47.2z M69.2,58.8
		c2.8,0.2,5.5-1,7.3-3.2l0.1,2.7h5.9V35.8h-5.9l-0.1,2.7c-1.8-2.2-4.5-3.3-7.3-3.2c-6.2,0-10.9,4.9-10.9,11.7S63,58.8,69.2,58.8z
		 M76.5,47c0.2,3.4-2.4,6.3-5.8,6.4c-0.1,0-0.2,0-0.3,0c-3.6,0-6-2.8-6-6.4c-0.2-3.3,2.3-6.1,5.6-6.3c0.1,0,0.3,0,0.5,0
		c3.3-0.1,6.1,2.6,6.1,5.9C76.5,46.8,76.5,46.9,76.5,47z M96.5,44.6c-2.7-0.5-3.7-1.1-3.7-2.2c0-1.3,1.4-2,4.4-2
		c2.3,0,4.6,0.5,6.8,1.3l0.5-4.9c-2.4-1-5-1.4-7.6-1.4c-6,0-9.9,2.9-9.9,7.1c0,3.7,2.1,5.9,6.4,6.7l2.7,0.5c2.6,0.5,3.6,1.1,3.6,2.2
		c0,1.3-1.2,1.9-4.2,1.9c-2.6-0.1-5.2-0.6-7.6-1.6l-0.6,4.9c2.7,1.1,5.7,1.7,8.7,1.6c5.8,0,9.5-2.5,9.5-7c0-3.9-2.2-5.9-6.7-6.7
		L96.5,44.6z M118.1,44.6c-2.7-0.5-3.7-1.1-3.7-2.2c0-1.3,1.4-2,4.4-2c2.3,0,4.6,0.5,6.8,1.3l0.5-4.9c-2.4-1-5-1.4-7.6-1.4
		c-6,0-9.9,2.9-9.9,7.1c0,3.7,2.1,5.9,6.4,6.7l2.7,0.5c2.6,0.5,3.6,1.1,3.6,2.2c0,1.3-1.2,1.9-4.2,1.9c-2.6-0.1-5.2-0.6-7.6-1.6
		l-0.6,4.9c2.7,1.1,5.7,1.7,8.7,1.6c5.8,0,9.5-2.5,9.5-7c0-3.9-2.2-5.9-6.7-6.7L118.1,44.6z M144.7,58.8c6.4,0,10.9-4.9,10.9-11.7
		c0-6.8-4.5-11.7-10.9-11.7c-3.6,0-5.9,1.3-7.4,3.2V25.3h-5.9v33h5.9l0.1-2.4C138.9,57.7,141.4,58.8,144.7,58.8L144.7,58.8z
		 M137.4,47c-0.1-3.3,2.4-6.1,5.8-6.3c0.1,0,0.2,0,0.3,0c3.3-0.1,6,2.5,6.1,5.8c0,0.2,0,0.3,0,0.5c0.1,3.4-2.5,6.2-5.8,6.4
		s-6.2-2.5-6.4-5.8C137.4,47.4,137.4,47.2,137.4,47z M169.8,58.8c2.8,0.2,5.5-1,7.3-3.2l0.1,2.7h5.9V35.8h-5.9l-0.1,2.7
		c-1.8-2.2-4.5-3.3-7.3-3.2c-6.2,0-10.9,4.9-10.9,11.7S163.6,58.8,169.8,58.8L169.8,58.8z M177.1,47c0.2,3.4-2.4,6.3-5.8,6.4
		c-0.1,0-0.2,0-0.3,0c-3.6,0-6-2.8-6-6.4c-0.2-3.3,2.3-6.1,5.6-6.3c0.1,0,0.3,0,0.5,0c3.3-0.1,6.1,2.6,6.1,5.9
		C177.1,46.8,177.1,46.9,177.1,47z M197,44.6c-2.7-0.5-3.7-1.1-3.7-2.2c0-1.3,1.4-2,4.4-2c2.3,0,4.6,0.5,6.8,1.3l0.5-4.9
		c-2.4-1-5-1.4-7.6-1.4c-6,0-9.9,2.9-9.9,7.1c0,3.7,2.1,5.9,6.4,6.7l2.7,0.5c2.6,0.5,3.6,1.1,3.6,2.2c0,1.3-1.2,1.9-4.2,1.9
		c-2.6-0.1-5.2-0.6-7.6-1.6l-0.6,4.9c2.7,1.1,5.7,1.7,8.7,1.6c5.8,0,9.5-2.5,9.5-7c0-3.9-2.2-5.9-6.7-6.7L197,44.6z M229.8,51.8
		c-2.4,1.1-5,1.7-7.6,1.7c-3.7,0-6.5-1.5-7.1-4.6h16.3c1.5-8.3-3.8-13.5-10.7-13.5c-6.7,0-11.6,4.8-11.6,11.7
		c0,7,5.1,11.7,13.1,11.7c3,0,5.9-0.7,8.5-2.1L229.8,51.8z M215.2,44.9c0.3-2.6,2.4-4.4,5.6-4.4c3.1,0,5,1.9,5.2,4.4H215.2z"/>
</g>
</svg>
