<?xml version="1.0" encoding="utf-8"?>
<!-- Generator: Adobe Illustrator 25.0.0, SVG Export Plug-In . SVG Version: 6.00 Build 0)  -->
<svg version="1.1" id="Layer_1" xmlns="http://www.w3.org/2000/svg" xmlns:xlink="http://www.w3.org/1999/xlink" x="0px" y="0px"
	 viewBox="0 0 130 54.1" style="enable-background:new 0 0 130 54.1;" xml:space="preserve">
<style type="text/css">
	.st0{fill-rule:evenodd;clip-rule:evenodd;fill:#B2C6DF;}
	.st1{fill:#B2C6DF;}
</style>
<g id="stirpe" transform="translate(24.682 -325.299)">
	<g id="Stripe" transform="translate(-24.682 325.299)">
		<path id="path5516" class="st0" d="M125,27.9c0-8.5-4.1-15.3-12-15.3c-7.9,0-12.7,6.7-12.7,15.2c0,10,5.7,15.1,13.8,15.1
			c3.2,0.1,6.4-0.7,9.2-2.2v-6.7c-2.5,1.3-5.3,1.9-8.2,1.8c-3.2,0-6.1-1.1-6.5-5.1h16.3C124.9,30.4,125,28.7,125,27.9z M108.5,24.7
			c0-3.8,2.3-5.3,4.4-5.3c2,0,4.2,1.6,4.2,5.3H108.5z"/>
		<path id="path5518" class="st0" d="M87.4,12.6c-2.4,0-4.8,0.9-6.5,2.6l-0.4-2.1h-7.3V52l8.3-1.8l0-9.4c1.7,1.4,3.8,2.1,5.9,2.1
			c6,0,11.4-4.8,11.4-15.4C98.7,17.9,93.2,12.6,87.4,12.6L87.4,12.6z M85.4,35.6c-1.5,0.1-2.9-0.5-3.9-1.6l0-12.4
			c1-1.1,2.5-1.7,4-1.6c3,0,5.1,3.4,5.1,7.8C90.5,32.2,88.4,35.6,85.4,35.6L85.4,35.6z"/>
		<path id="polygon5520" class="st0" d="M70,8.8V2.1l-8.4,1.8v6.8L70,8.8z"/>
		<rect id="rect5522" x="61.6" y="13.2" class="st1" width="8.4" height="29.2"/>
		<path id="path5524" class="st0" d="M52.6,15.6l-0.5-2.5h-7.2v29.2h8.3V22.6c2-2.6,5.3-2.1,6.3-1.7v-7.7
			C58.5,12.8,54.6,12,52.6,15.6z"/>
		<path id="path5526" class="st0" d="M36,5.9l-8.1,1.7l0,26.7c-0.1,4.6,3.6,8.5,8.2,8.6c0.2,0,0.3,0,0.5,0c2,0.1,4-0.3,5.8-1.1v-6.8
			c-1.1,0.4-6.3,2-6.3-3V20.3h6.3v-7.1h-6.3L36,5.9z"/>
		<path id="path5528" class="st0" d="M13.4,21.6c0-1.3,1.1-1.8,2.8-1.8c2.9,0.1,5.7,0.8,8.3,2.1v-7.8c-2.6-1-5.4-1.6-8.3-1.5
			C9.5,12.6,5,16.1,5,22c0,9.2,12.7,7.7,12.7,11.7c0,1.5-1.3,2-3.2,2c-3.2-0.2-6.3-1.1-9.1-2.7V41c2.9,1.2,6,1.9,9.1,1.9
			c6.9,0,11.7-3.4,11.7-9.4C26.1,23.6,13.4,25.4,13.4,21.6L13.4,21.6z"/>
	</g>
</g>
</svg>
