<svg xmlns="http://www.w3.org/2000/svg" viewBox="0 0 128 128.003"><defs><style>.cls-1{isolation:isolate;}.cls-2{fill:#e95653;}.cls-3{opacity:0.15;mix-blend-mode:multiply;}.cls-4{fill:#fff;}.cls-5{fill:#fbdddd;}.cls-6{fill:#961e29;}</style></defs><title>icon-ohne-qualitaetsverlust</title><g class="cls-1"><g id="Layer_2" data-name="Layer 2"><g id="Fondos"><path class="cls-2" d="M128,64A64,64,0,1,1,64,0,64,64,0,0,1,128,64Z"/><path class="cls-3" d="M91.073,38.223l-.226.2-4.034-4.037L85.119,33.16l-.884,1.212L80.155,30.3l-1.908-.854-1.189,2.664L72.8,27.674l-2.043-.439-.937,4.376L65.05,26.634H62.957v5.23l6.6,6.6c-.445-.1-.894-.193-1.346-.266l0-.013-.03.007c-.123-.021-.246-.04-.372-.057l-10.546-10.9-2.043.435L56.3,32.784l5.41,5.173a26.243,26.243,0,0,0-3.247.489l-8.7-9-1.91.85,2.126,4.778,4.562,4.562A25.871,25.871,0,0,0,51,41.323l-8.11-8.167-1.691,1.229,3.073,4.234,4.323,4.262a26.185,26.185,0,0,0-3.529,3.1L40.8,41.748l.027-.029-3.888-3.5-1.4,1.555,7.987,7.934-.026.027.026.02a26.172,26.172,0,0,0-2.455,3.688L36.7,47.025l-4.532-2.612L31.12,46.221l8.519,8.286a25.58,25.58,0,0,0-1.083,3.486l-4.795-4.918-4.974-1.618-.648,1.99,9.739,9.546c-.014.336-.023.671-.023,1.007q0,.781.05,1.548L32.15,59.6l-5.2-.549-.219,2.084L39.875,74.094a1.248,1.248,0,0,0,.056.123l-8-7.9-5.2.548.219,2.08,4.522,4.522-3.333,1.084.648,1.99,4.346,4.073-2.017,1.163,1.047,1.811L36.2,87.627l-.665.6,38.8,38.934A64.035,64.035,0,0,0,127.156,74.35Zm-6.958-3.681-.079-.037.079.033Zm6.659,3.95-.047-.033.05.03Z"/><path class="cls-4" d="M90.152,64A26.149,26.149,0,1,1,64.007,37.851,26.151,26.151,0,0,1,90.152,64Z"/><path class="cls-5" d="M80.972,64A16.967,16.967,0,1,1,64.007,47.038,16.967,16.967,0,0,1,80.972,64Z"/><path class="cls-6" d="M72.021,64a8.019,8.019,0,1,1-8.014-8.017A8.019,8.019,0,0,1,72.021,64Z"/><path class="cls-4" d="M62.482,58.332a4.149,4.149,0,1,1-4.147-4.147A4.148,4.148,0,0,1,62.482,58.332Z"/><path class="cls-4" d="M59.807,65.658a1.474,1.474,0,1,1-1.472-1.475A1.473,1.473,0,0,1,59.807,65.658Z"/><rect class="cls-4" x="62.957" y="26.634" width="2.093" height="5.23"/><rect class="cls-4" x="55.732" y="27.392" width="2.091" height="5.231" transform="translate(-4.994 12.446) rotate(-11.987)"/><rect class="cls-4" x="48.821" y="29.641" width="2.092" height="5.228" transform="translate(-8.807 23.063) rotate(-23.992)"/><rect class="cls-4" x="42.53" y="33.272" width="2.092" height="5.23" transform="translate(-12.77 32.447) rotate(-35.98)"/><rect class="cls-4" x="37.13" y="38.132" width="2.094" height="5.23" transform="translate(-17.649 41.866) rotate(-48.014)"/><rect class="cls-4" x="32.861" y="44.009" width="2.091" height="5.231" transform="translate(-23.428 52.641) rotate(-59.965)"/><rect class="cls-4" x="29.905" y="50.645" width="2.093" height="5.232" transform="translate(-29.269 66.232) rotate(-71.994)"/><rect class="cls-4" x="28.394" y="57.753" width="2.093" height="5.229" transform="translate(-33.668 83.354) rotate(-84.016)"/><rect class="cls-4" x="26.826" y="66.588" width="5.229" height="2.093" transform="translate(-6.924 3.457) rotate(-6.014)"/><rect class="cls-4" x="28.335" y="73.694" width="5.23" height="2.093" transform="translate(-21.624 13.259) rotate(-18.04)"/><rect class="cls-4" x="31.29" y="80.331" width="5.232" height="2.092" transform="translate(-36.179 27.898) rotate(-30.035)"/><rect class="cls-4" x="35.56" y="86.207" width="5.23" height="2.092" transform="translate(-48.556 47.906) rotate(-41.967)"/><rect class="cls-4" x="40.959" y="91.069" width="5.232" height="2.092" transform="translate(-56.53 73.064) rotate(-53.909)"/><rect class="cls-4" x="47.25" y="94.701" width="5.232" height="2.093" transform="translate(-57.892 102.27) rotate(-65.953)"/><polygon class="cls-4" points="57.255 100.771 55.209 100.332 56.298 95.216 58.345 95.654 57.255 100.771"/><rect class="cls-4" x="62.955" y="96.139" width="2.092" height="5.23"/><rect class="cls-4" x="70.179" y="95.378" width="2.093" height="5.229" transform="translate(-18.808 16.94) rotate(-11.994)"/><rect class="cls-4" x="77.089" y="93.136" width="2.093" height="5.229" transform="translate(-32.149 39.978) rotate(-23.958)"/><rect class="cls-4" x="83.382" y="89.503" width="2.091" height="5.228" transform="translate(-38.023 67.227) rotate(-36.004)"/><rect class="cls-4" x="88.781" y="84.643" width="2.092" height="5.228" transform="translate(-35.125 95.601) rotate(-47.989)"/><rect class="cls-4" x="93.05" y="78.763" width="2.093" height="5.23" transform="translate(-23.45 122.113) rotate(-59.968)"/><rect class="cls-4" x="96.005" y="72.127" width="2.092" height="5.229" transform="translate(-4.063 143.888) rotate(-71.967)"/><rect class="cls-4" x="97.515" y="65.02" width="2.093" height="5.232" transform="translate(20.973 158.569) rotate(-83.987)"/><rect class="cls-4" x="95.946" y="59.326" width="5.232" height="2.092" transform="translate(-5.79 10.674) rotate(-6.022)"/><rect class="cls-4" x="94.437" y="52.219" width="5.229" height="2.09" transform="translate(-11.689 32.489) rotate(-17.943)"/><rect class="cls-4" x="91.482" y="45.582" width="5.228" height="2.092" transform="translate(-10.704 53.351) rotate(-30.03)"/><rect class="cls-4" x="87.212" y="39.705" width="5.23" height="2.092" transform="translate(-4.241 70.427) rotate(-41.911)"/><polygon class="cls-4" points="83.736 38.619 82.042 37.389 85.119 33.16 86.813 34.389 83.736 38.619"/><rect class="cls-4" x="75.52" y="31.211" width="5.23" height="2.09" transform="translate(16.887 90.516) rotate(-66)"/><rect class="cls-4" x="68.612" y="28.967" width="5.23" height="2.091" transform="translate(27.057 93.44) rotate(-77.996)"/></g></g></g></svg>