<svg xmlns="http://www.w3.org/2000/svg" viewBox="0 0 128 128"><defs><style>.cls-1{isolation:isolate;}.cls-2{fill:#e95653;}.cls-3{fill:none;}.cls-4{opacity:0.15;mix-blend-mode:multiply;}.cls-5{fill:#fff;}.cls-6{fill:#fbdddd;}</style></defs><title>icon-schneller-versand</title><g class="cls-1"><g id="Layer_2" data-name="Layer 2"><g id="Fondos"><circle class="cls-2" cx="64" cy="64" r="64"/><path class="cls-3" d="M103.314,77.548l1.04-.245C104.469,76.943,103.487,77.453,103.314,77.548Z"/><path class="cls-3" d="M103.873,78.031l.25-.058Q104.206,77.789,103.873,78.031Z"/><path class="cls-3" d="M103.5,77.709l.777-.183C104.365,77.256,103.627,77.64,103.5,77.709Z"/><path class="cls-3" d="M71.538,94.43a40.373,40.373,0,0,0,.345,22.661c.669,2.071,4.335,7.607,3.7,9.083a3.036,3.036,0,0,1-1.35,1A63.6,63.6,0,0,0,98.646,117.8l-.493-.425C89.309,109.749,80.047,102.424,71.538,94.43Z"/><path class="cls-3" d="M63.143,122.981c-2.581-2.225-5.007-4.421-7.589-6.647L40.421,103.288C35.457,99.009,29.9,95,25.288,90.242c-13.551-13.98-9.253-41.635,2.652-56.128,17.086-20.8,47.676-22.754,68.138-5.855,5.13,4.238,10.092,8.7,15.132,13.046,5.414,4.667,10.794,9.381,16.2,14.069A63.995,63.995,0,1,0,64,128c1.57,0,3.121-.076,4.662-.187-.494-.417-1.01-.978-1.747-1.632C65.687,125.09,64.363,124.033,63.143,122.981Z"/><path class="cls-3" d="M103.687,77.87l.513-.12C104.26,77.571,103.77,77.825,103.687,77.87Z"/><path class="cls-3" d="M103.127,77.387l1.3-.307C104.572,76.63,103.347,77.267,103.127,77.387Z"/><path class="cls-3" d="M80.642,77.136l19.015-4.468-1.388.531,1.575-.37-1.388.531,1.575-.37-1.388.532,1.575-.371-1.388.531,1.574-.369-1.388.531,1.575-.37-1.388.531,1.575-.37-1.388.531,1.575-.37-1.388.531,1.575-.37-1.388.531,1.574-.37-1.388.531,1.575-.37-1.388.531,1.575-.37-1.388.531,1.575-.37-1.388.531,1.575-.37-1.388.531,1.575-.37-1.389.531,1.575-.37-1.387.531,1.574-.37-1.388.531,1.575-.37-1.388.532,1.575-.371-1.388.531,1.575-.37-1.388.532,1.575-.371-1.389.532,1.575-.37-1.388.531,1.575-.37-1.388.531,1.575-.37-1.388.531,1.575-.37-1.388.531,1.575-.37-1.389.531,1.569-.369A40.969,40.969,0,0,0,106.3,63.319,40.55,40.55,0,0,0,80.642,77.136Z"/><path class="cls-4" d="M128,64a64.422,64.422,0,0,0-.595-8.626c-5.4-4.688-10.781-9.4-16.2-14.069-5.04-4.345-10-8.808-15.132-13.046C75.616,11.36,45.026,13.316,27.94,34.114c-11.9,14.493-16.2,42.148-2.652,56.128C29.9,95,35.457,99.009,40.421,103.288l15.133,13.046c2.582,2.226,5.008,4.422,7.589,6.647,1.22,1.052,2.544,2.109,3.772,3.2.737.654,1.253,1.215,1.747,1.632,1.879-.136,3.737-.343,5.568-.637a13.031,13.031,0,0,1,2.351-.409c4.062-1.3,11.665-2.478,12.831-4.374,0,.146-30.166-30.239-28.208-37.659,8.51,7.994,28.1,25.015,36.949,32.64l.493.425A63.933,63.933,0,0,0,128,64ZM103.873,78.031q.333-.243.25-.058Zm-.186-.161c.083-.045.573-.3.513-.12Zm-.187-.161c.127-.069.865-.453.777-.183Zm-.186-.161c.173-.095,1.155-.605,1.04-.245Zm-.187-.161c.22-.12,1.445-.757,1.3-.307Zm1.381-.53-1.569.369,1.389-.531-1.575.37,1.388-.531-1.575.37,1.388-.531-1.575.37,1.388-.531-1.575.37,1.388-.531-1.575.37,1.389-.532-1.575.371,1.388-.532-1.575.37,1.388-.531-1.575.371,1.388-.532-1.575.37,1.388-.531-1.574.37,1.387-.531-1.575.37,1.389-.531-1.575.37,1.388-.531-1.575.37L101.9,74.6l-1.575.37,1.388-.531-1.575.37,1.388-.531-1.575.37,1.388-.531-1.574.37,1.388-.531-1.575.37,1.388-.531-1.575.37,1.388-.531-1.575.37,1.388-.531-1.575.37,1.388-.531-1.574.369,1.388-.531-1.575.371,1.388-.532-1.575.37,1.388-.531-1.575.37,1.388-.531L80.642,77.136A40.55,40.55,0,0,1,106.3,63.319,40.969,40.969,0,0,1,104.508,76.857Z"/><path class="cls-3" d="M24.891,88.493a46.582,46.582,0,1,1,78.378,1.751"/><path class="cls-5" d="M104.789,91.27l-3.039-2.053a44.745,44.745,0,1,0-75.3-1.682L23.327,89.45a48.416,48.416,0,1,1,81.462,1.82Z"/><path class="cls-6" d="M102.378,89.507l-2.733-1.9a41.278,41.278,0,0,0,7.017-23.034c0-22.321-19.625-42.054-42-42.23h-.31C41.732,22.347,23.2,41.5,22.962,65.2a38.416,38.416,0,0,0,6.024,20.84l-2.817,1.769A41.744,41.744,0,0,1,19.635,65.17c.252-25.519,20.282-46.15,44.719-46.15h.337c24.131.19,45.3,21.478,45.3,45.557A44.684,44.684,0,0,1,102.378,89.507Z"/><path class="cls-5" d="M62.356,81.4,99.89,72.579,63.88,86.357A2.6,2.6,0,1,1,62.022,81.5,2.731,2.731,0,0,1,62.356,81.4Z"/></g></g></g></svg>