<?xml version="1.0" encoding="utf-8"?>
<!-- Generator: Adobe Illustrator 24.1.3, SVG Export Plug-In . SVG Version: 6.00 Build 0)  -->
<svg version="1.1" id="Layer_1" xmlns="http://www.w3.org/2000/svg" xmlns:xlink="http://www.w3.org/1999/xlink" x="0px" y="0px"
	 viewBox="0 0 680 500" style="enable-background:new 0 0 680 500;" xml:space="preserve">
<style type="text/css">
	.st0{fill-rule:evenodd;clip-rule:evenodd;fill:#1169A5;}
	.st1{fill:#CED5DC;}
	.st2{fill:#BEC8D2;}
	.st3{fill:#8895A7;}
	.st4{fill:#071E31;}
	.st5{fill:#E1E7EC;}
	.st6{fill:#8C002C;}
	.st7{fill:#F9B49C;}
	.st8{fill:#E2806A;}
	.st9{fill:#C16534;}
	.st10{fill:#F1A385;}
	.st11{fill:#1C77C3;}
	.st12{fill:#FCD4C0;}
	.st13{fill:#77ADDB;}
	.st14{fill:#E11E19;}
	.st15{opacity:0.46;fill:#8203F2;enable-background:new    ;}
	.st16{fill:#231F20;}
	.st17{fill:none;stroke:#231F20;stroke-width:0.8609;stroke-miterlimit:10;}
	.st18{fill:#5A5959;}
	.st19{fill:url(#SVGID_1_);}
	.st20{fill-rule:evenodd;clip-rule:evenodd;fill:#E11E19;}
	.st21{fill-rule:evenodd;clip-rule:evenodd;fill:#B2C5D1;}
	.st22{fill-rule:evenodd;clip-rule:evenodd;fill:#303947;}
	.st23{fill-rule:evenodd;clip-rule:evenodd;fill:#6B737F;}
	.st24{fill-rule:evenodd;clip-rule:evenodd;fill:#979295;}
	.st25{fill-rule:evenodd;clip-rule:evenodd;fill:#CED5DC;}
	.st26{fill-rule:evenodd;clip-rule:evenodd;fill:#AFBBC6;}
	.st27{fill-rule:evenodd;clip-rule:evenodd;fill:#C7C1C5;}
	.st28{fill-rule:evenodd;clip-rule:evenodd;fill:#370A06;}
	.st29{fill-rule:evenodd;clip-rule:evenodd;fill:#FFFFFF;}
	.st30{fill:#370A06;}
	.st31{fill:#4D4E4E;}
</style>
<line class="st0" x1="-280" y1="-137" x2="-296" y2="-137"/>
<g>
	<path class="st1" d="M318.8,200.5l7.7-1c0,0-14.8-104.5-29.8-109s-17.8,3-17.8,3s5.2,9.5,11.6,18.8c9.8,14.3,14.1,46.7,20.1,68.8
		c0.4,1.5,0.2,17.1,0.2,17.1L318.8,200.5z"/>
	<path class="st2" d="M290.6,101.1c0,0,27.9,55.7,26.9,97.9c0.7,1.7,4,1.3,4,1.3s-6.5-46.2-11.1-60.3c-4.5-14.1-10.8-31.1-14.6-35.4
		C292.2,100.4,290.6,101.1,290.6,101.1z"/>
	<path class="st3" d="M292.4,73c0,0,17.3,55,18.8,61.3c1.5,6.3,9.8,41.4,11,47c1.3,5.5,2.3,18.6,2.3,18.6l22.6-6c0,0,1-0.5-2.8-5.3
		c-3.8-4.8-0.8-11.8-3.3-12.1c-2.5-0.2-25.1-109-25.1-109L292.4,73z"/>
	<path class="st4" d="M314.2,68L329,172.1l4.5-1l1,7.7c0,0,4.3-0.5,5.3,1.7s1.7,8,1.7,8l2.3,2.3c0,0,1.5,0,1.5,2.3
		c0,2.3,18.8-6.5,18.8-6.5l72.6,35.2L423.2,88.1L321,61.7l0.5,5.3L314.2,68z"/>
	<path class="st5" d="M310.3,188.3c0,0-33.6,19.1-36.9,20.8c-5.6,2.9-7.8,9.7-4.9,15.3c0.3,0.6,0.7,1.2,1.1,1.8
		c4.3,5.3,93.4,60.3,93.4,60.3s14,9.1,29.6,5.8c41.9-9,76.3-19.1,111.7-32.6c6.6-2.6,20.3-17.6,22.8-32.1
		c2.5-14.6-12.1-142.6-13.1-144.4c-4-30.7-32.4-41.7-58.3-43.2c-0.7,0-76.8-13.1-80.8-13.6c-4-0.5-15.1,7.3-13.8,8.3
		c1.3,1,112.4,24.6,114.7,25.1c2.3,0.5,18.3,5.8,22.6,20.3c2,9,9.5,74,9.5,75.3c0,1.3,3,6,3,6s5.5,62.3,4.3,64.3
		c-1.2,2-7,18.6-25.4,23.8c-45.5,15-69.7,26.9-109.5,28.1c-7.3,0.3-99.9-59.5-99.9-59.5s32.9-18.3,34.4-18.6
		C316.7,199.4,314.3,189.1,310.3,188.3z"/>
	<path class="st4" d="M70.1,138.3c-15.8,4.7-27.6,21-44.6,21.4c-17,0.4-29.8-16.4-22.2-32.1c6.9-14.4,25-24.9,40-28.3
		c9.6-2.2,18.9-1.1,28.6,0c6.1,0.7,15.4-2.8,20.7-0.4c9.2,4.1,10.1,15.2,6.2,23.2C93.3,133.5,81.1,135.1,70.1,138.3z"/>
	<path class="st6" d="M79.8,95.2c-1.8,0.8-2.7,3-1.9,4.8c0,0,0,0,0,0l12.8,28.5c0.8,1.9,3,2.7,4.9,1.9l0,0c1.9-0.8,2.7-3,1.9-4.9
		L84.6,97C83.8,95.2,81.6,94.3,79.8,95.2z"/>
	<path class="st7" d="M145.1,225.3l12.8-83.8L133.6,129l-30.9,50.2C102.7,179.2,145.8,208.2,145.1,225.3z"/>
	<path class="st7" d="M106.3,115.5c-2.6-8.7-3.6-17.8-2.9-26.9c0.9-9.8-0.6-21.3,1.1-30.7c3.7-20.3,25-31.9,44.3-31.2
		c31.2,1.1,70.8,22.1,71.1,56.1c0.1,7.8-0.2,15.6,0.6,23.4c0.3,2.6-0.1,6.6,0.5,9.1c0.8,3,4.2,4.4,4.8,7.4c0.4,2.2-1.5,4.5-2.4,6.3
		c-4.4,8-7.7,20.1-13.9,26.5c-9.4,9.5-24,14.4-37.3,17.1c-19.8,4.1-19.6,2.7-34.8-9.6C123.5,151.5,111.7,134,106.3,115.5z"/>
	<path class="st4" d="M221,50.5c-6.1-7.9-13.6-14.5-22.1-19.6C169,13.7,125.3-2.6,95.9,23.5c-24.9,22.2-23,57-8.4,84.2
		c7,13,26,49.6,40.2,23.4c7-12.9,13.8-28.8,26.5-37.3c17.7-11.7,43-13.6,63-6.8c3.9,1.3,5.2,3.4,9.2,0.6c8.2-5.9,4.6-20.9,0.9-27.8
		C225.4,56.6,223.3,53.5,221,50.5z"/>
	<path class="st7" d="M160.4,92c-5.7-13-23.8-21.6-30.7-4.3c-4.7,11.9,8.6,39.9,23.7,38.1"/>
	<path class="st8" d="M148.6,109.8c0.1,0,0.1,0.1,0.2,0.1c0.3,0.1,0.7-0.1,0.8-0.4c0,0,0,0,0-0.1c1.5-5,2-14.8-3-19.7
		c-0.3-0.3-0.7-0.3-0.9,0c0,0,0,0,0,0c-0.3,0.3-0.3,0.7,0,0.9c4.3,4.2,4.1,13.3,2.6,18.4C148.3,109.3,148.4,109.6,148.6,109.8z"/>
	<path class="st4" d="M196.6,95.1c2.6,0.6,3.2-2.5,4.7-3.6c2.6-1.9,2.8-1.5,6.2-1.5c1.7,0,5,1.2,5.7-1.2c0.6-2.2-3.6-4.1-5.1-4.4
		c-3-0.6-8,0.3-10.5,2.2C195.7,88.2,192.2,94,196.6,95.1z"/>
	<path class="st4" d="M212.3,107.9c-1.2,4.6-5.2,5.6-5.3-0.7C206.9,101.3,214.2,100.7,212.3,107.9z"/>
	<path class="st9" d="M147.9,171.2c1.1,0.7,1.7,1.1,1.9,1.2c0.3,0.2,0.7,0.1,0.9-0.2c0,0,0,0,0,0c0.2-0.3,0.1-0.7-0.2-0.9
		c-0.2-0.1-18.2-11.4-24.3-20.5c-0.2-0.3-0.6-0.4-0.9-0.2c-0.3,0.2-0.4,0.6-0.2,0.9c0,0,0,0,0,0C130.2,159.2,143,168,147.9,171.2z"
		/>
	<path class="st10" d="M310.9,212.2c0,0,21.7-31.3,32.6-39.4c10.5-7.7,12.7-4.9,3.6,8.7l11.5-6.5c5.6-3.2,19.3-5.5,8.3,1.7
		c6-3.9,11.8-5.7,13-3.6c2.7,4.5-12.1,14.3-12.1,14.3s8.9-8.7,3.8,1.9c-5.1,10.6-18.7,21.7-18.7,21.7s11.8-9-1.8,7.6
		c-7.6,9.3-34.2,14.7-34.2,14.7L310.9,212.2z"/>
	<path class="st11" d="M212.7,326.1c-1.8-1.1-3.5-2.3-5.2-3.5c-14.7-10.2-28.2-22-40.2-35.3c-10.9-12.2-20.3-25.6-28-39.9
		c-4-7.4-7.4-15-10.7-22.8c-3.4-8-6.6-16.1-9.2-24.4c-1.5-4.9-2.9-9.9-3.9-14.9c6.3-5.5,9.5,0,16.7-1.4
		c36.2-7.1,53.5,11.4,124.3,75.3c0,0,18.3-12.3,54.5-46.8l34.3,21.8c0,0-26.1,46.9-47.4,84.4s-85.2,6.5-85.2,6.5L212.7,326.1z"/>
	<path class="st12" d="M344.9,238.8c0,0,28.5-19.6,38.7-28.4c9.3-8.1,1.6-7.4-10.7-6.6l16.6-9.8c0,0,7.1-7.6-2.7-6.8
		c4.8-0.4,6-5.2,4.4-7c-2.8-3.4-16,3.1-16,3.1s6.2-2.4,3.9-4.9c-1.9-2-5.4-1.1-8.7,1c-11.3,6.4-21.7,12.8-21.7,12.8s5.6-4.2,3-5.7
		c-3.4-1.9-5.7,1.7-11.9,4.7c-10.8,5.2-21.2,30.7-21.2,30.7L344.9,238.8z"/>
	<path class="st11" d="M160.4,312.7c0.2,0,0.3-0.1,0.4-0.2c0.3-0.2,0.3-0.7,0.1-0.9c0,0,0,0,0,0l-19.2-23.2c-0.2-0.3-0.7-0.3-1-0.1
		c-0.3,0.2-0.3,0.7-0.1,1l19.2,23.2C160,312.7,160.2,312.7,160.4,312.7z"/>
	<path class="st8" d="M340.8,214.1c0.2,0,0.4-0.1,0.5-0.2c12.5-14.1,27.9-9.3,28-9.2c0.4,0.1,0.7-0.1,0.8-0.4
		c0.1-0.4-0.1-0.7-0.4-0.8c-3.2-0.9-6.5-1.1-9.8-0.8c-5.2,0.5-12.8,2.7-19.7,10.4c-0.2,0.3-0.2,0.7,0.1,1
		C340.5,214.1,340.6,214.1,340.8,214.1z"/>
	<path class="st8" d="M369.5,201.6c0.4,0,0.7-0.3,0.7-0.7c0-0.3-0.1-0.5-0.4-0.6l-15.3-8.1c-0.3-0.2-0.7,0-0.9,0.3
		c-0.2,0.3,0,0.7,0.3,0.9l15.3,8.1C369.3,201.5,369.4,201.6,369.5,201.6z"/>
	<path class="st8" d="M366,199.7c0.1,0,0.2,0,0.3-0.1l21.1-11.5c0.3-0.2,0.4-0.6,0.3-0.9c-0.2-0.3-0.6-0.4-0.9-0.3l-21.1,11.5
		c-0.3,0.2-0.5,0.6-0.3,0.9C365.5,199.6,365.8,199.7,366,199.7L366,199.7z"/>
	<path class="st8" d="M358.6,195.8c0.1,0,0.2,0,0.3-0.1l19.6-11.5c0.3-0.2,0.4-0.6,0.2-0.9c0,0,0,0,0,0c-0.2-0.3-0.6-0.4-0.9-0.2
		c0,0,0,0,0,0l-19.6,11.5c-0.3,0.2-0.4,0.6-0.2,0.9C358.2,195.7,358.4,195.8,358.6,195.8z"/>
	<path class="st13" d="M318.6,222.1c-41.2,39.3-62,53.3-62,53.3c-71.3-86.7-96.2-104.3-137.4-96.2C71.5,188.5,41.9,288.3,28.4,348
		c25.8-8.2,62-8.7,100.2,0.3c35.1,8.3,65,23,84.7,39.9l-6.7-38c0,0,72.7,35.3,97-7.3c24.3-42.6,54-95.9,54-95.9L318.6,222.1z"/>
	<path class="st4" d="M94.4,146.4c1.3-5.9,2.1-12,2.4-18.1c0.3-5.6,2.1-9.9,7.9-12.1c7.6-2.9,11,1.7,16.5,5.9
		c8.9,6.7,10.9,18.8,10.4,29.2c-0.7,14.5,11.2,23.6,12.9,38.3c3.2,27-27.9,50.1-50.7,30.1c-17.2-15.1-8.6-41.5-3-59.9
		C92.3,154.9,93.4,150.6,94.4,146.4z"/>
	<path class="st14" d="M92.5,127.5c0.1,2,1.8,3.6,3.8,3.5l31.2-1.4c2-0.1,3.6-1.8,3.5-3.8l0,0c-0.1-2-1.8-3.6-3.8-3.5L96,123.7
		C93.9,123.8,92.4,125.5,92.5,127.5z"/>
	<path class="st11" d="M206.7,350.9c0.2,0,0.4-0.1,0.5-0.3c0.2-0.3,0.2-0.7-0.1-0.9c-0.4-0.3-43.8-34.5-63.8-67.8
		c-0.2-0.3-0.6-0.4-0.9-0.2c-0.3,0.2-0.4,0.6-0.2,0.9c20.1,33.5,63.6,67.8,64.1,68.1C206.4,350.9,206.5,350.9,206.7,350.9z"/>
	<path class="st11" d="M268.5,323.3L268.5,323.3c0.4,0,0.7-0.4,0.7-0.7c0-0.2-2.5-25.4-11.9-47.5c-0.1-0.3-0.5-0.5-0.9-0.4
		c-0.3,0.1-0.5,0.5-0.4,0.9c9.2,21.9,11.7,46.9,11.8,47.1C267.8,323.1,268.1,323.3,268.5,323.3z"/>
	<path class="st11" d="M272.5,325.4h0.1c0.4-0.1,0.6-0.4,0.6-0.8c-0.5-2.6-0.8-5.3-1.1-7.9c-0.6-5.3-1.2-10.7-3-15.9
		c-0.1-0.4-0.5-0.6-0.8-0.5c-0.4,0.1-0.6,0.5-0.5,0.8c0,0,0,0.1,0,0.1c1.7,5.1,2.4,10.4,3,15.6c0.3,2.6,0.6,5.3,1.1,8
		C271.9,325.1,272.2,325.4,272.5,325.4z"/>
	<path class="st15" d="M378.1,182.5c-4.7,4.3-8.6,7.3-12.7,9.2c-4.1,1.9-9.5,2.9,0.3,5.9c11.8-11.2,10.2-2.5,15.3-9.1
		c0.5-3.6,4.8-5.5,6.5-7.3C386.1,177.8,378.1,182.5,378.1,182.5z"/>
	<path class="st15" d="M362.9,185.2c-3.1,2.9-2.9,2.1-5.6,3.3c-2.7,1.2-7.3,1.7-0.9,3.7c7.7-7.4,5.1-0.4,8.4-4.8
		c0.3-2.4,4.5-3.8,5.6-5C369.5,180.2,362.9,185.2,362.9,185.2z"/>
	<path class="st15" d="M356.3,199.2c1.4,2.7-1.2,4.8-4.3,3.6c-3.1,1.2-7.6,0.5-6.3-2.1c-1.4-2.7,1.2-4.8,4.3-3.6
		C353.2,195.9,357.7,196.5,356.3,199.2z"/>
	<path class="st16" d="M394.6,43.6c-2.5-3.3-1.7-16.8,4.5-16.6c6.2,0.3,42.4,7,58,9.5c1.1,0.7,2.1,1.6,3,2.5c0,0-4.3-1.3-7.7,3.3
		c-1.6,2.1-2.3,7.5,0.2,10.8C455.2,56.4,394.6,43.6,394.6,43.6z"/>
	<path class="st1" d="M457.9,57.9l15.8,0.5c0,0,22.7,104.5,35.4,98.1c0.5-0.2,3.8,4,3.8,5.3c0,1.3,4.5,62,4,64s-10.3,20.8-30.1,25.1
		C485,237,457.9,57.9,457.9,57.9z"/>
	<path class="st3" d="M322.3,30.3c0,0,8-1.5,13.1-1.3c5,0.2,138.3,29.4,138.3,29.4l-15.6,0.3L322.3,30.3z"/>
	<path class="st17" d="M429.5,58.7c0,0-56,30.6-66.8,40.9c-1.1,1.1-1.8,1.9-1.8,2.5C360.7,108.2,429.5,58.7,429.5,58.7z"/>
	<path class="st1" d="M315.2,28.6c0,0-27.6,6.5-40.4,26.4c-12.1,18.6-9,20.1-9,20.1l11.8,4.5c0,0,95.2,34.2,99.7,33.4
		s13.8-7,19.1-11c4.6-3.5,60.8-42.7,61.5-42.9C458.6,58.7,315.2,28.6,315.2,28.6z M370.3,93.3c-1.1,1-2.7,1.3-4.1,0.9L295.2,73
		l22.6-5.3l5.8,0.7l1-5.3l62.5,16.4L370.3,93.3z"/>
	<path class="st2" d="M307,41.9l13.3,25.4l-39.7,4.3C280.6,71.6,291.1,49.7,307,41.9z"/>
	<path class="st2" d="M310.5,43.6l100.2,22.8c0,0-22.9,13.1-23.4,14.1s-65.8-16.8-65.8-16.8L310.5,43.6z"/>
	<path class="st5" d="M278.1,71.7c0,0,16.4-32.6,29.4-32.4C293.2,52.4,278.1,71.7,278.1,71.7z"/>
	<path class="st5" d="M307.7,42.4c0,0,10.8,23.9,12.5,24.9c1.7,1,3.3,0,2-2.5c-0.9-1.6-13.6-23.4-13.6-23.4L307.7,42.4z"/>
	<path class="st5" d="M308.7,41.4c0,0,106,21.6,106.8,22.6c0.8,1-4.5,3.5-4.5,3.5L308.5,43.6L308.7,41.4z"/>
	<path class="st5" d="M448.8,59.2c0,0-54.7,35.8-61.5,40.9c-12.3,9.3-15.4,5.7-21.8,6.3c6.7,4.6,12.5,3.1,19.6-1.3
		c9.3-5.8,59.6-43.4,68.8-44.9C454.6,59.9,448.8,59.2,448.8,59.2z"/>
	<ellipse class="st18" cx="469.8" cy="69.6" rx="3.6" ry="3.4"/>
	
		<linearGradient id="SVGID_1_" gradientUnits="userSpaceOnUse" x1="343.2234" y1="233.208" x2="352.2369" y2="386.7481" gradientTransform="matrix(1 0 0 -1 0 500)">
		<stop  offset="3.000000e-02" style="stop-color:#FFFFFF;stop-opacity:0"/>
		<stop  offset="0.1" style="stop-color:#F3F0FA;stop-opacity:9.000000e-02"/>
		<stop  offset="0.42" style="stop-color:#BAADE1;stop-opacity:0.47"/>
		<stop  offset="0.69" style="stop-color:#917BCE;stop-opacity:0.76"/>
		<stop  offset="0.89" style="stop-color:#785DC3;stop-opacity:0.93"/>
		<stop  offset="1" style="stop-color:#6E51BF"/>
	</linearGradient>
	<polygon class="st19" points="270.4,88.5 287.6,214.3 389.5,275.8 426.6,264.6 412.5,131.6 387.4,131.8 	"/>
	<path class="st3" d="M390.9,134.8c0,0,28.9,16.6,35.2,36.4c6.3,19.8,17.8,93.4,17.8,93.4l11.3-3.5c0,0-7.5-84.4-19.6-96.4
		C416.7,135,398.1,134.3,390.9,134.8z"/>
	<path class="st5" d="M265.3,74.8l3,18.8c0,0,103.5,37.2,110.2,39.2c6.7,2,26,3.7,32.9,8.8c37.8,19.1,36.3,90.3,42.4,120.5
		l33.5-11.3L458.1,58.4C344.9,135.5,406.1,114.7,265.3,74.8z"/>
</g>
<g>
	<path class="st20" d="M485.1,437.2c0,0-40.3-45.2-45.1-158.9c0,0,67.6-3.7,84.2,115C540.8,511.9,485.1,437.2,485.1,437.2
		L485.1,437.2z"/>
	<path class="st21" d="M469,410.6c-4.3-8.9-8.9-20.2-13.2-34.1c9-11,24.1-25.2,43.7-29.9c5.2-1.2,9.5-1.9,13-2.3
		c4,11,7.5,23.8,10.1,38.8l-2.6,3.3C520,386.5,488.2,396.5,469,410.6L469,410.6z M448.6,348.8c-2.2-10.4-4.2-21.8-5.7-34.3
		c8.2-8.5,20-18.9,32.2-23.8c7.2,5.2,14.8,12.4,21.8,22.7c-9.2,3.7-26.8,11.6-35.9,21C456.2,339.4,452,344.5,448.6,348.8
		L448.6,348.8z"/>
	<path class="st22" d="M525.2,277.5c-33,35.2-46.2,101.4-45.2,133.2c1.6,51.3,44,75.1,96.1,75.1c74.4,0,88.4-56.8,92.9-95.7
		c2.7-23.8-14.5-75.7-41.4-116.3L525.2,277.5L525.2,277.5z"/>
	<path class="st23" d="M602.9,275l-57.2,2.1c-25.6,50.8-32.9,116.3-24.1,144c15.4,48.5,93.3,45.8,107.9-1.8
		C641.3,381,613.6,304,602.9,275L602.9,275z"/>
	<path class="st24" d="M601.7,275l-1.1,0c-0.1,1-0.1,1.5-0.1,1.5S601,276.3,601.7,275L601.7,275z M594.4,275.3l-2.2,0.1l-0.1,1.1
		c-1.1,16.1-0.4,20.6-0.4,20.6S593.7,286.5,594.4,275.3L594.4,275.3z M586.9,275.6l-3.4,0.1l-0.1,1.4c-1.1,25.2,0.2,31.2,0.2,31.2
		S585.7,292,586.9,275.6L586.9,275.6z M577.1,276l-2.9,0.1l0,0.1c-0.9,12.7,0.1,32.4,0.1,32.4s1.6-4.3,2.4-21.4
		C576.8,283,576.9,279.3,577.1,276L577.1,276z M568.6,276.3l-2.1,0.1c0,3.6,0,5.9,0,6.1c0.4,7.7,1.4,20.7,1.4,20.7
		C568.1,300.7,568.4,288.4,568.6,276.3L568.6,276.3z M559.4,276.7l-2.6,0.1c0.1,10.1,0.3,13.8,0.3,13.8s2-1,2.3-9.2
		C559.4,280.1,559.4,278.5,559.4,276.7L559.4,276.7z M550.1,277.1l-2.8,0.1c0,1,0.1,2.1,0.1,3.2c0.9,24,1.3,31.4,1.3,31.4
		s2.1-1.6,2-17.2C550.8,289.9,550.5,283.6,550.1,277.1L550.1,277.1z M542,285.8c-0.4,1-0.8,1.9-1.2,2.9c0,3.9,0.1,8.9,0.4,15.3
		c1,17.7,1.5,23.7,1.5,23.7s1.7-1.5,1.4-13.2C544,306.9,542.8,293.9,542,285.8L542,285.8z M529.2,322.3c-0.6,2-1.1,4-1.6,6
		c0.7,6.5,1,9,1,9s1.7-0.8,1.4-7C530,328.1,529.7,325.2,529.2,322.3L529.2,322.3z M523.5,348.5l-0.2,1
		C523.4,349.2,523.5,348.9,523.5,348.5L523.5,348.5z M521.3,370.5c-0.1,3.5-0.2,6.9-0.1,10.2c0.3,1.6,0.4,2.6,0.5,2.7
		c1,4.2,2.9,11.2,2.9,11.2C524.3,392.3,522.3,377.4,521.3,370.5L521.3,370.5z M524.2,405.8c0.5,2.1,1,4.2,1.6,6.2
		c0.3-0.5,0.6-1.6,0.5-3.5c-0.2-3.6-2.2-10.3-2.2-10.3s-0.7,1.9,0,7.1L524.2,405.8L524.2,405.8z M534.2,431.4
		c0.4,0.7,0.9,1.5,1.4,2.2c-0.3-2.5-0.5-3.8-0.5-3.8S534.5,430.1,534.2,431.4L534.2,431.4z M539.7,439.2l0.2,0.2
		c0-1.5-0.1-10.5-1-16.6c-1.1-6.7-3-8.3-3-8.3s0.4,4.6,1.5,13.6C538.3,435,539.3,438.1,539.7,439.2L539.7,439.2z M545.1,444.8
		c0.5,0.5,1.1,0.9,1.6,1.4c-0.2-3.4-0.4-5-0.4-5S545.3,441.8,545.1,444.8L545.1,444.8z M550.1,448.7l0.4,0.2
		c0.3-0.5,0.8-1.8,0.8-4.7c0-4.4-1.2-12.9-1.2-12.9s-0.7,2.5-0.4,9C549.8,445.1,550,447.6,550.1,448.7L550.1,448.7z M555.1,451.7
		c0.5,0.2,0.9,0.5,1.4,0.7c-0.1-3.1-0.8-7.3-0.8-7.3s-0.7,1.7-0.7,6.1L555.1,451.7L555.1,451.7z M559.4,453.6c0.3,0.1,0.7,0.3,1,0.4
		c0.1-1.3,0.2-3,0.2-5.3c0.1-7.1-0.1-10.7-0.1-10.7s-1.3,1.1-1.6,6.3C559,447.1,559.2,450.8,559.4,453.6L559.4,453.6z M578.9,456.1
		c0.3,0,0.5,0,0.7-0.1c0.3-1.1,0.6-2.8,0.9-5.2c0.6-5.5,0.8-8.3,0.8-8.3s-1.4,0.8-2,4.9C578.9,450.2,578.9,453.9,578.9,456.1
		L578.9,456.1z M587.7,455.1c0.5-0.1,0.9-0.2,1.4-0.3c0.6-3,0.6-8.3,0.6-8.3s-1,1.6-1.6,6C587.9,453.5,587.8,454.3,587.7,455.1
		L587.7,455.1z M592,454.1c0.4-0.1,0.8-0.2,1.2-0.3c0.2-1,0.5-2.3,0.8-3.8c1.2-6.9,1.7-10.4,1.7-10.4s-1.5,1.1-2.5,6.1
		C592.6,448.2,592.2,451.5,592,454.1L592,454.1z M596.6,452.6c0.3-0.1,0.6-0.2,0.8-0.3c0.3-0.4,0.6-1,0.9-1.9
		c0.7-2.4,0.7-6.8,0.7-6.8s-1,1.2-1.7,4.7C596.9,450.6,596.7,451.9,596.6,452.6L596.6,452.6z M601.2,450.6c0.5-0.2,0.9-0.5,1.4-0.7
		c0.2-1.9,0.3-3.6,0.3-3.6S602,447.5,601.2,450.6L601.2,450.6z M606.9,447.2c0.6-0.4,1.1-0.8,1.7-1.3c0.5-2.4,0.7-5.4,0.7-5.4
		s-1,1.3-1.9,4.8C607.2,446,607,446.6,606.9,447.2L606.9,447.2z M612.7,442.1c0.7-0.8,1.4-1.5,2.1-2.3c0.3-1.2,0.4-1.7,0.4-1.7
		S613.9,438.8,612.7,442.1L612.7,442.1z M626.1,365.8c-0.3-2.3-0.7-4.7-1-7c-0.5,2.3-1,4.8-1.6,7.6c-2.9,14.4-2.5,18.1-2.5,18.1
		S623.9,375,626.1,365.8L626.1,365.8z M622.9,346.5c-0.2-1.1-0.5-2.2-0.7-3.3c-0.8,4-1,5.6-1,5.6S621.9,348.4,622.9,346.5
		L622.9,346.5z M619.8,332.3c-0.4-1.7-0.8-3.4-1.2-5c-0.1,0.4-0.2,0.9-0.3,1.4c-1.7,8.8-2.1,12.1-2.1,12.1s1.8-0.8,3.2-6.7
		C619.5,333.6,619.6,333,619.8,332.3L619.8,332.3z M615.4,315.4c-0.4-1.3-0.7-2.6-1.1-3.8c-0.8,2.4-1.6,5.7-2.5,10.2
		c-2.4,13-4,32.5-4,32.5s1.9-4.1,4.8-21.5C613.8,325.6,614.7,319.8,615.4,315.4L615.4,315.4z M610,296.9c-0.7-2.2-1.3-4.2-2-6.3
		c-2.8,21.3-3.5,28-3.5,28s2.2-1.7,4.7-16.3C609.4,300.6,609.7,298.8,610,296.9L610,296.9z M588.1,411.3c0,0-1.4,2.5-2.2,9.1
		c-0.8,6.6-0.9,9-0.9,9s1.6-0.6,2.5-5.1C588.3,420,588.1,411.3,588.1,411.3L588.1,411.3z M580.1,436.9c0,0-0.5-1.7-0.1-7.3
		c0.4-5.6,0.7-8.3,0.7-8.3s0.8,3.5,0.6,7.5C581.2,432.8,580.1,436.9,580.1,436.9L580.1,436.9z M575.3,441.2c0,0-0.9-2.4-0.5-11.2
		c0.4-8.7,0.8-13.2,0.8-13.2s1.5,1.7,1.5,8.1C577,431.4,575.3,441.2,575.3,441.2L575.3,441.2z M575.8,445.1c0,0-0.9,1.2-1.2,4.7
		c-0.3,3.4-0.3,4.8-0.3,4.8s1.1-0.4,1.5-2.7C576.2,449.5,575.8,445.1,575.8,445.1L575.8,445.1z M603.4,417.6c0.1-0.4,1,1.1,0.4,6
		c-0.1,0.9-3,15.7-3.5,17.5c0,0,0.2-4.5,0.4-7.2C600.7,433.6,603.3,418,603.4,417.6L603.4,417.6z M586.4,433.2c0,0-1.1,2.4-1.8,8.7
		c-0.8,6.3-0.9,8.7-0.9,8.7s1.1-0.6,1.9-4.9C586.2,441.5,586.4,433.2,586.4,433.2L586.4,433.2z M597.3,425.7c0,0-1.1,1.4-1.8,5.5
		c-0.7,4.1-0.9,5.7-0.9,5.7s1.2-0.4,1.9-3.2C597.3,430.9,597.3,425.7,597.3,425.7L597.3,425.7z M603.6,442.9c0,0,1.2-1.6,2.5-7.5
		c1.3-5.9,1.8-8.8,1.8-8.8s-1.5,0.8-2.7,5.1C604.1,436,603.6,442.9,603.6,442.9L603.6,442.9z M592.4,422.4c0,0-1.4,3.2-2.5,11.3
		c-1.1,8.1-1.4,11-1.4,11s1.3-0.8,2.4-6.2C591.9,433,592.4,422.4,592.4,422.4L592.4,422.4z M595.4,343.5c0,0-1.9,4.1-3.2,14.8
		c-1.2,10.6-1.5,14.5-1.5,14.5s2-0.9,3.3-8C595.3,357.6,595.4,343.5,595.4,343.5L595.4,343.5z M584.6,384.4c0,0-0.6-2.6,0-11.5
		c0.6-8.8,1.1-13.3,1.1-13.3s0.9,5.7,0.6,12.1C586,378,584.6,384.4,584.6,384.4L584.6,384.4z M578.6,390.9c0,0-1-3.7-0.4-17.5
		c0.6-13.9,1.2-21.3,1.2-21.3s1.9,2.8,1.7,13.2C580.8,375.6,578.6,390.9,578.6,390.9L578.6,390.9z M579,396.8c0,0-1.1,1.8-1.5,7
		c-0.4,5.2-0.5,7.2-0.5,7.2s1.3-0.5,1.9-4C579.5,403.6,579,396.8,579,396.8L579,396.8z M614.6,354.2c0.1-0.6,1.2,1.8,0.1,9.7
		c-0.2,1.5-4.7,24.7-5.3,27.4c0,0,0.5-7,0.9-11.1C610.3,379.7,614.5,354.8,614.6,354.2L614.6,354.2z M612.3,399.4c0,0-1.3,2-2.5,7.4
		c-1.2,5.4-1.5,7.5-1.5,7.5s1.3-0.5,2.4-4.2C611.8,406.3,612.3,399.4,612.3,399.4L612.3,399.4z M607.8,395.1c0,0-1.3,1.9-2.3,7.1
		c-1,5.2-1.3,7.3-1.3,7.3s1.4-0.5,2.3-4.1C607.5,401.8,607.8,395.1,607.8,395.1L607.8,395.1z M596.2,399.3c0,0-1.3,2.5-2.2,9
		c-1,6.5-1.2,9-1.2,9s1.3-0.6,2.2-5C595.9,407.8,596.2,399.3,596.2,399.3L596.2,399.3z M592.5,378.7c0,0-1.4,3.8-2.6,13.5
		c-1.2,9.7-1.4,13.2-1.4,13.2s1.4-0.9,2.5-7.4C592,391.5,592.5,378.7,592.5,378.7L592.5,378.7z M606.5,367.1c0,0-1.4,2.4-2.5,8.8
		c-1.1,6.4-1.3,8.9-1.3,8.9s1.5-0.6,2.5-5C606.2,375.4,606.5,367.1,606.5,367.1L606.5,367.1z M582.6,416.5c0,0,1.2-2.3,2.1-10.6
		c0.9-8.3,1.2-12.6,1.2-12.6s-1.7,1.2-2.6,7.4C582.4,406.8,582.6,416.5,582.6,416.5L582.6,416.5z M613.4,394.2c0,0,1.6-2.4,3.6-11.6
		c2-9.2,2.8-13.8,2.8-13.8s-2,1.3-3.7,8C614.5,383.6,613.4,394.2,613.4,394.2L613.4,394.2z M598,417.8c0,0,1.4-2.7,3.2-13.1
		c1.8-10.4,2.5-15.8,2.5-15.8s-1.9,1.6-3.4,9.3C598.8,405.9,598,417.8,598,417.8L598,417.8z M600.4,361.6c0,0-1.9,5.2-3.6,17.9
		c-1.7,12.7-2.2,17-2.2,17s1.7-1.1,3.2-9.5C599.3,378.6,600.4,361.6,600.4,361.6L600.4,361.6z M584.1,318.7c0,0-1.4,3.2-2.1,12
		c-0.7,8.8-0.7,12.1-0.7,12.1s1.7-0.7,2.5-6.7C584.6,330.2,584.1,318.7,584.1,318.7L584.1,318.7z M606.3,323.5c0,0-1.8,4.2-3.3,15.1
		c-1.5,10.8-1.9,14.8-1.9,14.8s1.7-0.9,3-8.2C605.6,337.9,606.3,323.5,606.3,323.5L606.3,323.5z M602.6,287.3c0,0-2.1,7-4,23.8
		c-1.9,16.8-2.4,22.4-2.4,22.4s1.9-1.4,3.5-12.5C601.3,310,602.6,287.3,602.6,287.3L602.6,287.3z M588.3,351.7c0,0,1.6-3.5,3-17.5
		c1.4-14,1.9-21.4,1.9-21.4s-2.3,2.2-3.6,12.6C588.3,335.7,588.3,351.7,588.3,351.7L588.3,351.7z M627.1,405.7c0,0-1.8,2.5-3.7,9.3
		c-1.9,6.8-2.4,9.3-2.4,9.3s1.7-0.7,3.3-5.2C625.8,414.6,627.1,405.7,627.1,405.7L627.1,405.7z M614.9,432.1c0,0-0.2-1.8,1.1-7.5
		c1.3-5.8,2-8.5,2-8.5s0.2,3.6-0.6,7.7C616.6,427.9,614.9,432.1,614.9,432.1L614.9,432.1z M609.4,436.5c0,0-0.5-2.5,1.4-11.5
		c1.8-9,2.9-13.6,2.9-13.6s1.3,1.7,0.1,8.4C612.8,426.4,609.4,436.5,609.4,436.5L609.4,436.5z M620.5,390.7c0,0-1.4,1.9-2.7,7.3
		c-1.3,5.4-1.7,7.5-1.7,7.5s1.4-0.5,2.5-4.2C619.8,397.6,620.5,390.7,620.5,390.7L620.5,390.7z M620.8,411c0,0,1.6-2.3,3.8-11
		c2.3-8.6,3.3-13,3.3-13s-1.9,1.3-3.8,7.6C622.2,401,620.8,411,620.8,411L620.8,411z M547.9,408.9c0,0-1,2.6-0.7,9.4
		c0.3,6.8,0.6,9.4,0.6,9.4s1.6-0.7,1.7-5.2C549.6,417.8,547.9,408.9,547.9,408.9L547.9,408.9z M544.1,435.3c0,0-0.8-1.8-1.4-7.5
		c-0.6-5.8-0.8-8.5-0.8-8.5s1.4,3.6,2,7.7C544.5,431,544.1,435.3,544.1,435.3L544.1,435.3z M564.9,415.3c0-0.4,1.2,1.1,1.4,6.2
		c0,1-0.4,16.2-0.6,18c0,0-0.6-4.6-0.8-7.4C564.9,431.9,564.9,415.7,564.9,415.3L564.9,415.3z M569.3,444.9c0,0-0.8,1.3-1,5
		c-0.2,3.7-0.2,5.2-0.2,5.2s1.1-0.4,1.4-2.9C569.9,449.7,569.3,444.9,569.3,444.9L569.3,444.9z M564.9,442.1c0,0-0.8,1.3-0.9,4.8
		s-0.1,5-0.1,5s1.1-0.4,1.4-2.8C565.6,446.7,564.9,442.1,564.9,442.1L564.9,442.1z M560,423.7c0,0-0.8,1.5-0.9,5.7
		c0,4.2,0.1,5.8,0.1,5.8s1.2-0.4,1.4-3.3C560.9,429.1,560,423.7,560,423.7L560,423.7z M569.6,441.5c0,0,1-1.7,1.3-7.8
		c0.4-6.1,0.4-9.1,0.4-9.1s-1.4,0.9-1.9,5.3C568.9,434.3,569.6,441.5,569.6,441.5L569.6,441.5z M554.3,420.2c0,0-0.9,3.4-0.6,11.7
		c0.2,8.3,0.4,11.3,0.4,11.3s1.3-0.8,1.4-6.4C555.6,431.2,554.3,420.2,554.3,420.2L554.3,420.2z M543.6,338.1c0,0-1.3,4.3-0.7,15.5
		c0.6,11.2,1,15.1,1,15.1s2-0.9,2-8.4C546,352.9,543.6,338.1,543.6,338.1L543.6,338.1z M539.5,380.8c0,0-1.1-2.7-2-11.9
		c-0.9-9.3-1.2-13.8-1.2-13.8s1.9,6,2.8,12.5C539.9,374.2,539.5,380.8,539.5,380.8L539.5,380.8z M534.4,387.5c0,0-1.7-3.7-3.5-18.2
		c-1.8-14.4-2.5-22.2-2.5-22.2s2.5,2.9,4.1,13.8C534.1,371.7,534.4,387.5,534.4,387.5L534.4,387.5z M535.9,393.8
		c0,0-0.8,1.9-0.3,7.3c0.5,5.4,0.8,7.5,0.8,7.5s1.3-0.5,1.2-4.2C537.6,400.8,535.9,393.8,535.9,393.8L535.9,393.8z M565.6,349.3
		c0-0.7,1.6,1.9,1.9,10.2c0,1.6-0.6,25.7-0.8,28.6c0,0-0.7-7.3-1-11.6C565.6,376.1,565.6,350,565.6,349.3L565.6,349.3z M571.1,396.5
		c0,0-1,2-1.3,7.6c-0.3,5.6-0.2,7.7-0.2,7.7s1.3-0.5,1.7-4.3C571.7,403.7,571.1,396.5,571.1,396.5L571.1,396.5z M565.6,392
		c0,0-1,2-1.1,7.4c-0.2,5.4-0.1,7.5-0.1,7.5s1.3-0.5,1.7-4.2C566.5,399,565.6,392,565.6,392L565.6,392z M554.2,396.4
		c0,0-0.9,2.6-0.7,9.3c0.1,6.7,0.3,9.3,0.3,9.3s1.3-0.6,1.4-5.2C555.4,405.2,554.2,396.4,554.2,396.4L554.2,396.4z M546.8,374.9
		c0,0-0.8,4-0.3,14.1c0.5,10.1,0.8,13.7,0.8,13.7s1.3-0.9,1.3-7.7C548.6,388.3,546.8,374.9,546.8,374.9L546.8,374.9z M559.4,362.9
		c0,0-1.1,2.4-1.1,9.1c0,6.7,0.1,9.3,0.1,9.3s1.5-0.6,1.8-5.1C560.6,371.6,559.4,362.9,559.4,362.9L559.4,362.9z M543.1,414.2
		c0,0,0.9-2.3,0.3-11c-0.5-8.7-1-13.1-1-13.1s-1.6,1.3-1.4,7.7C541.2,404.1,543.1,414.2,543.1,414.2L543.1,414.2z M571.4,391.1
		c0,0,1.2-2.6,1.7-12.1c0.5-9.5,0.6-14.4,0.6-14.4s-1.8,1.4-2.4,8.4C570.6,380,571.4,391.1,571.4,391.1L571.4,391.1z M559.4,415.5
		c0,0,1-2.7,1-13.5c0.1-10.8-0.1-16.4-0.1-16.4s-1.7,1.7-1.9,9.7C558.2,403.2,559.4,415.5,559.4,415.5L559.4,415.5z M552.1,357.1
		c0,0-1,5.5-0.7,18.7c0.4,13.2,0.7,17.7,0.7,17.7s1.6-1.1,1.7-9.9C553.9,374.8,552.1,357.1,552.1,357.1L552.1,357.1z M573.7,317.8
		c0,0-1.4,3.5-1.7,12.9c-0.4,9.4-0.4,12.9-0.4,12.9s1.7-0.8,2.3-7.2C574.5,330.2,573.7,317.8,573.7,317.8L573.7,317.8z M566.6,309.8
		c0,0-1.3,3.4-1.5,12.7c-0.2,9.3-0.1,12.8-0.1,12.8s1.7-0.7,2.2-7C567.7,322.1,566.6,309.8,566.6,309.8L566.6,309.8z M551.6,317.1
		c0,0-1.1,4.4-0.8,15.8c0.3,11.4,0.6,15.6,0.6,15.6s1.6-1,1.8-8.6C553.3,332.2,551.6,317.1,551.6,317.1L551.6,317.1z M537.6,346.8
		c0,0,1.1-3.7,0-18.4c-1-14.8-1.8-22.6-1.8-22.6s-2,2.4-1.5,13.3C534.8,330,537.6,346.8,537.6,346.8L537.6,346.8z M558.6,349.4
		c0,0,1.3-4.3,1.2-22.5c0-18.3-0.3-28.5-0.3-28.5s-2.2,3.1-2.4,16.9C556.8,329.1,558.6,349.4,558.6,349.4L558.6,349.4z M530.3,402.5
		c0,0-0.7,2-0.1,7.4c0.6,5.4,1,7.5,1,7.5s1.2-0.5,1.1-4.2C532.1,409.5,530.3,402.5,530.3,402.5L530.3,402.5z M529.7,397.4
		c0,0,0.8-2.4-0.2-11.6c-1-9.2-1.7-13.9-1.7-13.9s-1.6,1.3-1.1,8.1C527.2,386.7,529.7,397.4,529.7,397.4L529.7,397.4z"/>
	<path class="st21" d="M601.6,483c0,0,8.8-2.6,7.8-6.7c-1-4.1-12.1-44,12.9-65.6c25-21.6,40.1-16.8,42.4,3.7
		c2.2,20.5-12.3,72.1-36.6,79.8c-24.3,7.7-31.7-0.3-31.7-0.3s-0.6-6.8,0.5-9.1C598.1,482.5,601.6,483,601.6,483L601.6,483z"/>
	<path class="st21" d="M546.6,484c0,0-8.8-2.6-7.8-6.7c1-4.1,12.1-44-13-65.6c-25.1-21.6-40.1-16.8-42.4,3.8
		c-2.2,20.5,12.4,72.1,36.7,79.8c24.3,7.7,31.7-0.3,31.7-0.3s0.6-6.8-0.5-9.1S546.6,484,546.6,484L546.6,484z"/>
	<path class="st25" d="M593.6,374.8c48.7-12.8,45.6-69.8,50.4-66.3c31.3,23.4,26,84.7-22.7,84.9c-30.9,0.2-37.2-9.7-37.2-9.7
		s1.3-6.7,3.4-8.6C589.6,373.3,593.6,374.8,593.6,374.8L593.6,374.8z"/>
	<path class="st25" d="M556.4,374.8C507.7,362,510.8,305,506,308.5c-31.3,23.4-26,84.7,22.7,84.9c30.9,0.2,37.2-9.7,37.2-9.7
		s-1.3-6.7-3.4-8.6C560.4,373.3,556.4,374.8,556.4,374.8L556.4,374.8z"/>
	<path class="st21" d="M593.6,367.7c48.7-12.8,45.6-69.8,50.4-66.3c31.3,23.4,26,84.7-22.7,84.9c-30.9,0.2-37.2-9.7-37.2-9.7
		s1.3-6.7,3.4-8.6C589.6,366.3,593.6,367.7,593.6,367.7L593.6,367.7z"/>
	<path class="st21" d="M556.4,367.7c-48.7-12.8-45.6-69.8-50.4-66.3c-31.3,23.4-26,84.7,22.7,84.9c30.9,0.2,37.2-9.7,37.2-9.7
		s-1.3-6.7-3.4-8.6C560.4,366.3,556.4,367.7,556.4,367.7L556.4,367.7z"/>
	<path class="st21" d="M656.8,248.9c0.1,1.6,0.2,3.2,0.2,4.9c0,38.8-32.3,61.8-73.6,64.4c-2.6,0.2-5.2,0.2-7.8,0.2
		c-2.6,0-5.3-0.1-7.8-0.2c-41.3-2.6-73.6-25.6-73.6-64.4c0-1.6,0.1-3.2,0.2-4.9C516.9,149.4,634.2,149.4,656.8,248.9L656.8,248.9z
		 M568.2,286.9L568.2,286.9l14.6,0v0H568.2L568.2,286.9z"/>
	<path class="st26" d="M538.3,184.9c0.4-13.8-9.1-25.9-17.4-29.8c-8.3-3.9-10.5-4.5-12.1-7.9c-1.6-3.4-13.4,24.1-2.9,45.2
		c10.6,21.1,10.2,19.9,10.2,19.9L538.3,184.9L538.3,184.9z"/>
	<path class="st20" d="M521.7,207.7l16.7-12.1c-2.6-3.3-16.2-28.9-21.1-32.9c-4.9-4-6.8-4.8-6.8-4.8s-0.4,3.5,0.6,6.2
		c0,0-2.7-0.7-3.3-2.4c-0.6-1.6-2.1,21.4,1.1,28.7C512.2,197.6,518.9,204,521.7,207.7L521.7,207.7z"/>
	<path class="st26" d="M612.8,184.9c-0.4-13.8,9.1-25.9,17.4-29.8c8.3-3.9,10.5-4.5,12.1-7.9c1.6-3.4,13.4,24.1,2.9,45.2
		c-10.6,21.1-10.2,19.9-10.2,19.9L612.8,184.9L612.8,184.9z"/>
	<path class="st20" d="M629.4,207.7l-16.7-12.1c2.6-3.3,16.2-28.9,21.1-32.9c4.9-4,6.8-4.8,6.8-4.8s0.4,3.5-0.6,6.2
		c0,0,2.7-0.7,3.3-2.4c0.6-1.6,2.1,21.4-1.1,28.7C638.9,197.6,632.2,204,629.4,207.7L629.4,207.7z"/>
	<path class="st25" d="M543.6,314.1c-28.9-8.5-44.7-20.3-57.2-48.7c7.7-11.2,23.2-35.6,39.8-40.3c16.6-4.7,31.6,10.6,30,24.4
		C554.5,263.1,507.6,286,543.6,314.1L543.6,314.1z"/>
	<path class="st25" d="M607.5,314.1c28.9-8.5,48.4-21.4,59.2-47.1c-6.6-9.9-25.2-37.2-41.8-41.9c-16.6-4.7-31.6,10.6-30,24.4
		C596.6,263.1,643.5,286,607.5,314.1L607.5,314.1z"/>
	<path class="st23" d="M496.7,239.7c12.5-40.8,42-62.5,72.6-65.2c5-0.4,10-0.3,15,0.3c29.7,3.5,57.9,25.2,70.1,64.9
		c-5.8-9.4-17-23.1-34.3-27.8c-19.4-5.2-30.6,10.7-36.3,28.9c-3.4,11.1-4.8,23-4.7,31.7c0,2.6-0.6,25.6-2.4,9.1l-1.1-4.7l-1.1,4.7
		c-1.9,16.4-2.5-6.5-2.4-9.1c0.1-8.9-1.4-21.3-5-32.6c-5.8-17.9-16.9-33.1-35.9-28C513.7,216.6,502.5,230.3,496.7,239.7L496.7,239.7
		z"/>
	<path class="st27" d="M515.6,203.6c0.4-0.5,0.8-1,1.2-1.5c2,7.8,1.7,9.8,1.7,9.8S517.1,208,515.6,203.6L515.6,203.6z M519.6,199.1
		c0.3-0.3,0.5-0.5,0.8-0.8c0.1,2-0.3,2.3-0.3,2.3S519.9,200.2,519.6,199.1L519.6,199.1z M528.2,191.1c0.5-0.4,1-0.8,1.5-1.2
		c0.5,2.6,1.2,6,1.9,10.2c1.1,5.9,1.5,9.3,1.6,11.2c-0.2,0-0.3,0.1-0.5,0.1c-1-3.7-3.2-12-4.2-18.1
		C528.4,192.6,528.3,191.8,528.2,191.1L528.2,191.1z M538.4,184.2c0.4-0.2,0.8-0.5,1.2-0.7c0.3,4.6,0,5.9,0,5.9
		S539,187.3,538.4,184.2L538.4,184.2z M554.3,177.4c0.5-0.1,1-0.3,1.5-0.4c0.4,3.7,0.7,7.6,0.7,10.3c0.2,7.2-1,8.1-1,8.1
		s-0.4-3.7-1-14.5C554.4,179.6,554.4,178.5,554.3,177.4L554.3,177.4z M559.2,176.1c0.6-0.1,1.3-0.3,1.9-0.4c0,9-1.4,10-1.4,10
		S559.5,183.2,559.2,176.1L559.2,176.1z M572.4,174.3l0.7,0c-0.1,3-0.2,5.3-0.2,6.1C572.9,180.4,572.7,177.6,572.4,174.3
		L572.4,174.3z M576.8,174.3c0.6,0,1.1,0,1.7,0.1c-0.6,7.4-1.4,9.4-1.4,9.4S576.9,179.4,576.8,174.3L576.8,174.3z M583.2,174.7
		c0.4,0,0.8,0.1,1.1,0.1l0.4,0.1c-0.6,5.1-1.1,8.7-1.1,8.7S583.1,181.6,583.2,174.7L583.2,174.7z M589.1,175.5l0.3,0.1
		c-0.1,0.7-0.2,1.1-0.2,1.1S589.1,176.4,589.1,175.5L589.1,175.5z M595.1,176.9c0.3,0.1,0.7,0.2,1,0.3c-0.4,4.5-0.9,10.4-1.5,14.1
		c-1.1,6.8-2.4,7.6-2.4,7.6s0.3-3.4,1.6-13.7C594.3,181.8,594.7,179.1,595.1,176.9L595.1,176.9z M599.5,178.3
		c0.6,0.2,1.2,0.4,1.8,0.6l-0.2,0.9c-1.7,9-3.2,10-3.2,10S598.3,186.9,599.5,178.3L599.5,178.3z M611.5,183.6l0.1,0.1
		c-0.1,0.5-0.2,0.9-0.3,1.1L611.5,183.6L611.5,183.6z M615.1,185.7l0.5,0.3c-0.5,1.4-0.8,1.9-0.8,1.9S614.9,187,615.1,185.7
		L615.1,185.7z M619.5,188.6c0.3,0.2,0.7,0.5,1,0.7c-0.4,2.1-0.9,4.4-1.4,6c-1.2,3.8-2.5,4.2-2.5,4.2s0.4-2.1,1.9-7.7
		C618.8,190.6,619.2,189.5,619.5,188.6L619.5,188.6z M623.4,191.6c0.5,0.4,0.9,0.8,1.4,1.2l-0.4,1.4c-2.6,8.9-4.1,11.2-4.1,11.2
		S621.7,197.9,623.4,191.6L623.4,191.6z M631.3,198.9c0.4,0.4,0.7,0.8,1.1,1.2c-0.1,0.4-0.3,0.7-0.4,1.1c-1.8,4.6-3.1,5.2-3.1,5.2
		S629.5,204.3,631.3,198.9L631.3,198.9z M634.6,202.6c0.2,0.2,0.4,0.5,0.6,0.7c-1.2,2.8-1.8,3.6-1.8,3.6S633.9,205.2,634.6,202.6
		L634.6,202.6z M638,206.9l0.1,0.2c0.1,0.6,0,2.4-1.2,6c-0.1,0.4-1,2.7-2.2,5.6c-0.3-0.2-0.6-0.4-0.9-0.6
		C635.7,213.4,637.9,207.1,638,206.9L638,206.9L638,206.9z M638,221c-0.3-0.3-0.7-0.5-1-0.8c1.7-3.4,3-4.1,3-4.1
		S639.3,217.8,638,221L638,221z M630.8,216.2l-0.4-0.2c0.4-0.6,0.6-0.9,0.6-0.9S630.9,215.5,630.8,216.2L630.8,216.2z M626.8,214.3
		l-0.5-0.2c0.8-1.7,1.2-2.5,1.2-2.5S627.3,212.6,626.8,214.3L626.8,214.3z M623.1,212.8c-0.5-0.2-1.1-0.4-1.6-0.5
		c0.3-0.8,0.5-1.8,0.9-2.8c2.1-6.8,3.9-9.4,3.9-9.4S624.7,208.1,623.1,212.8L623.1,212.8z M617.6,211.3l-0.2,0c0.2-0.6,0.3-1,0.3-1
		S617.6,210.7,617.6,211.3L617.6,211.3z M614.4,210.9c-0.5,0-1,0-1.5,0c0.9-3.5,1.3-5.4,1.3-5.4S614.9,206.8,614.4,210.9
		L614.4,210.9z M605.1,212.3c-0.2,0.1-0.3,0.1-0.5,0.2l0.2-0.8C604.9,211.5,605,211.6,605.1,212.3L605.1,212.3z M594.8,219.6
		c-0.4,0.4-0.7,0.8-1,1.2c0.7-3.3,1.3-4.7,1.3-4.7S595,217.6,594.8,219.6L594.8,219.6z M589.7,226.9l-0.3,0.5
		c0.2-0.6,0.3-0.8,0.3-0.8L589.7,226.9L589.7,226.9z M585,237.4c-0.4,1.1-0.8,2.3-1.2,3.5c-0.3,0.9-0.6,1.8-0.8,2.8
		c0.1-1.3,0.2-2.5,0.4-3.6c0.6-3.8,1.8-4.5,1.8-4.5S585.1,236.1,585,237.4L585,237.4z M571.5,262.1c-0.2-1.8-0.4-3.6-0.7-5.5
		c0-3,0-7.5,0-7.7c0-0.2,0.9,0.7,1,3.8C571.8,253.3,571.6,259.1,571.5,262.1L571.5,262.1z M567.7,242.4c-0.2-0.8-0.5-1.7-0.8-2.5
		c-0.2-0.6-0.4-1.3-0.6-1.9c0-0.4,0-0.9,0-1.3c0.2-4.9,1.3-5.9,1.3-5.9s0.1,3.5,0.1,10C567.7,241.4,567.7,241.9,567.7,242.4
		L567.7,242.4z M563.1,230.3c-0.5-1-1-2-1.5-2.9c0-0.8-0.1-1.7-0.1-2.6c-0.3-8.1,0.4-11.4,0.4-11.4s1.2,10.8,1.2,16.2
		C563.1,229.8,563.1,230,563.1,230.3L563.1,230.3z M556.7,220.2c-0.1-0.2-0.3-0.3-0.4-0.5c-0.1-1.2-0.3-3.8-0.6-8.5
		c-0.4-6.8,0.5-9.5,0.5-9.5s1.6,9.1,1.6,13.6C557.8,218.4,557.1,219.7,556.7,220.2L556.7,220.2z M552.2,215.8
		c-0.3-0.2-0.6-0.4-0.8-0.6c-0.2-2.1-0.3-3.1-0.3-3.1S551.7,213.6,552.2,215.8L552.2,215.8z M548,213.2c-0.6-0.3-1.1-0.5-1.7-0.8
		c-0.4-3.4-0.6-5.1-0.6-5.1S546.9,208.6,548,213.2L548,213.2z M528.4,212.7l-0.2,0.1c-0.2-0.6-0.8-3.2-2-9c-1.4-6.7-1.2-9.3-1.2-9.3
		s2.8,8.9,3.5,13.4C529,211,528.6,212.2,528.4,212.7L528.4,212.7z M524.3,214.3c-0.5,0.2-1,0.5-1.6,0.7c-1.4-5.9-1-8.2-1-8.2
		S523.1,210.5,524.3,214.3L524.3,214.3z M518.7,217.1L518.7,217.1l-0.2-0.4C518.5,216.7,518.6,216.9,518.7,217.1L518.7,217.1z
		 M516,218.9c-0.5,0.3-0.9,0.7-1.4,1c-1.6-5.1-2.4-7.8-2.4-7.8S514,213.6,516,218.9L516,218.9z M577.9,264.8c0,0-0.6-1.5-0.3-6.8
		c0.3-5.3,0.5-8.1,0.5-8.1s1.1,1,1,5C579.1,258.8,577.9,264.8,577.9,264.8L577.9,264.8z M578.2,267.2c0,0-0.6,0.8-0.8,2.9
		c-0.2,2.1-0.2,2.9-0.2,2.9s0.7-0.2,1-1.7C578.5,269.9,578.2,267.2,578.2,267.2L578.2,267.2z M591.7,205c0,0-1.3,2.5-2.2,9
		c-0.8,6.5-1,8.9-1,8.9s1.4-0.6,2.2-4.9C591.6,213.7,591.7,205,591.7,205L591.7,205z M584.2,230.1c0,0-0.4-1.6,0-7
		c0.4-5.4,0.7-8.1,0.7-8.1s0.6,3.5,0.4,7.4C585.2,226.2,584.2,230.1,584.2,230.1L584.2,230.1z M580.1,234c0,0-0.7-2.2-0.3-10.7
		c0.4-8.5,0.8-13,0.8-13s1.3,1.7,1.2,8.1C581.7,224.7,580.1,234,580.1,234L580.1,234z M580.4,237.7c0,0-0.7,1.1-1,4.3
		c-0.3,3.2-0.3,4.4-0.3,4.4s0.9-0.3,1.3-2.5C580.8,241.8,580.4,237.7,580.4,237.7L580.4,237.7z M583.9,189.9c0,0-1,2-1.4,7.3
		c-0.4,5.4-0.5,7.4-0.5,7.4s1.2-0.5,1.7-4.1C584.3,196.9,583.9,189.9,583.9,189.9L583.9,189.9z M613.5,193.2c0,0-1.3,2.1-2.5,7.6
		c-1.3,5.5-1.6,7.5-1.6,7.5s1.2-0.5,2.3-4.2C612.7,200.4,613.5,193.2,613.5,193.2L613.5,193.2z M609.7,188.6c0,0-1.2,2-2.4,7.4
		c-1.1,5.4-1.4,7.4-1.4,7.4s1.2-0.5,2.2-4.1C609.1,195.7,609.7,188.6,609.7,188.6L609.7,188.6z M599.2,192.8c0,0-1.2,2.6-2.3,9.2
		c-1,6.6-1.3,9.1-1.3,9.1s1.2-0.6,2.1-5C598.6,201.6,599.2,192.8,599.2,192.8L599.2,192.8z M586.8,210.1c0,0,1.1-2.2,2.1-10.7
		c1-8.6,1.3-13.1,1.3-13.1s-1.6,1.3-2.5,7.7C586.8,200.3,586.8,210.1,586.8,210.1L586.8,210.1z M600.2,211.6c0,0,1.3-2.5,3.3-13.2
		c2-10.6,2.9-16.5,2.9-16.5s-1.7,1.8-3.4,9.7C601.3,199.7,600.2,211.6,600.2,211.6L600.2,211.6z M573.8,267.1c0,0-0.6,0.8-0.7,3.1
		c-0.1,2.3-0.1,3.2-0.1,3.2s0.7-0.2,1-1.8C574.2,270,573.8,267.1,573.8,267.1L573.8,267.1z M574,265c0,0,0.7-1.1,0.9-4.8
		c0.2-3.7,0.3-5.5,0.3-5.5s-1,0.5-1.3,3.2C573.5,260.6,574,265,574,265L574,265z M571.3,208.6c0-0.4,1.1,1.2,1.3,6.2
		c0,1-0.4,15.7-0.5,17.5c0,0-0.5-4.4-0.7-7.1C571.3,225,571.3,209,571.3,208.6L571.3,208.6z M575,237.5c0,0-0.7,1.2-0.9,4.7
		c-0.2,3.4-0.2,4.7-0.2,4.7s0.9-0.3,1.2-2.6C575.4,241.9,575,237.5,575,237.5L575,237.5z M571.3,234.7c0,0-0.7,1.2-0.8,4.5
		c-0.1,3.3,0,4.6,0,4.6s0.9-0.3,1.2-2.6C571.8,239,571.3,234.7,571.3,234.7L571.3,234.7z M567,216.9c0,0-0.7,1.5-0.7,5.6
		c0,4.1,0.1,5.7,0.1,5.7s1-0.4,1.2-3.1C567.8,222.2,567,216.9,567,216.9L567,216.9z M575.2,234.2c0,0,0.8-1.6,1.2-7.4
		c0.3-5.8,0.4-8.8,0.4-8.8s-1.3,0.9-1.7,5.1C574.7,227.4,575.2,234.2,575.2,234.2L575.2,234.2z M545,185.7c0,0-0.6,2.1,0,7.8
		c0.6,5.7,0.9,7.8,0.9,7.8s1.1-0.5,1-4.3C546.7,193.2,545,185.7,545,185.7L545,185.7z M576.8,189.3c0,0-0.9,2.1-1.2,7.9
		c-0.3,5.8-0.3,7.9-0.3,7.9s1.1-0.5,1.6-4.4C577.3,196.9,576.8,189.3,576.8,189.3L576.8,189.3z M571.9,184.4c0,0-0.9,2.1-1,7.7
		c-0.1,5.7-0.1,7.8-0.1,7.8s1.2-0.4,1.5-4.3C572.7,191.9,571.9,184.4,571.9,184.4L571.9,184.4z M561.6,188.9c0,0-0.8,2.7-0.6,9.7
		c0.2,7,0.4,9.5,0.4,9.5s1.1-0.6,1.2-5.3C562.8,198.1,561.6,188.9,561.6,188.9L561.6,188.9z M552,207c0,0,0.7-2.2,0-11.3
		c-0.7-9-1.2-13.8-1.2-13.8s-1.4,1.4-1.1,8.1C550.1,196.8,552,207,552,207L552,207z M566.4,208.7c0,0,0.9-2.6,0.9-13.8
		c0-11.2-0.2-17.4-0.2-17.4s-1.5,1.9-1.7,10.3C565.2,196.2,566.4,208.7,566.4,208.7L566.4,208.7z M540.2,194.8c0,0-0.5,2.1,0.2,7.6
		c0.8,5.5,1.2,7.6,1.2,7.6s1.1-0.5,0.8-4.2C542.1,202.1,540.2,194.8,540.2,194.8L540.2,194.8z M534.5,190.2c0,0-0.5,2,0.3,7.4
		c0.9,5.5,1.3,7.5,1.3,7.5s1.1-0.5,0.8-4.1C536.5,197.3,534.5,190.2,534.5,190.2L534.5,190.2z"/>
	<path class="st22" d="M567.8,174.7c0.5-0.1,1-0.1,1.5-0.1c5-0.4,10-0.3,15,0.3c0.9,0.1,1.8,0.2,2.7,0.4
		c-2.2,21.1-4.7,44.6-3.2,65.6l0,0c-3.4,11.1-4.8,23-4.7,31.7c0,2.6-0.6,25.6-2.4,9.1l-1.1-4.7l-1.1,4.7c-1.9,16.4-2.5-6.5-2.4-9.1
		c0.1-8.9-1.4-21.3-5-32.6C570.7,219.8,570.2,195.1,567.8,174.7L567.8,174.7z"/>
	<path class="st28" d="M530,241.1c3.5,0,6.4,4,6.4,8.9c0,4.9-2.9,8.9-6.4,8.9c-3.5,0-6.4-4-6.4-8.9
		C523.6,245.1,526.4,241.1,530,241.1L530,241.1z"/>
	<path class="st28" d="M621.1,241.1c3.5,0,6.4,4,6.4,8.9c0,4.9-2.9,8.9-6.4,8.9c-3.5,0-6.4-4-6.4-8.9
		C614.7,245.1,617.6,241.1,621.1,241.1L621.1,241.1z"/>
	<path class="st29" d="M533,243.9c1.1,0,2,0.9,2,2c0,1.1-0.9,2-2,2c-1.1,0-2-0.9-2-2C530.9,244.8,531.8,243.9,533,243.9L533,243.9z
		 M530.4,248.5c0.6,0,1,0.5,1,1c0,0.6-0.5,1-1,1s-1-0.5-1-1C529.4,249,529.9,248.5,530.4,248.5L530.4,248.5z"/>
	<path class="st29" d="M624.3,243.9c1.1,0,2,0.9,2,2c0,1.1-0.9,2-2,2c-1.1,0-2-0.9-2-2C622.3,244.8,623.2,243.9,624.3,243.9
		L624.3,243.9z M621.8,248.5c0.6,0,1,0.5,1,1c0,0.6-0.5,1-1,1s-1-0.5-1-1C620.8,249,621.2,248.5,621.8,248.5L621.8,248.5z"/>
	<path class="st28" d="M575.5,288.5c6,0,10.9-5.7,10.9-11.1c0-5.4-5.9-5.3-11.9-5.3c-6,0-9.9-0.1-9.9,5.3
		C564.6,282.8,569.5,288.5,575.5,288.5L575.5,288.5z"/>
	<path class="st30" d="M573.9,297.2l0.5-24.7l2,2.7l0.7,21.9c7.6-0.7,11.2-6.1,13.9-1.3c-16.5,9.5-30.3,1.3-30.3,1.3
		C563.6,291.9,565,297.1,573.9,297.2L573.9,297.2z"/>
	<path class="st29" d="M594,282.8c0,0,26.3-13.6,64.7-15.1c-27.9,0.4-42.2,4.5-67.5,14.5L594,282.8L594,282.8z M595.2,289.2
		c0,0,29.6,1.3,63.7,19.1c-24.4-13.6-38.8-17.1-65.8-21L595.2,289.2L595.2,289.2z M593.6,286c0,0,28.9-6.4,66.4,2.1
		c-27-6.8-41.9-6.5-69-3.3L593.6,286L593.6,286z"/>
	<path class="st29" d="M555.1,282.8c0,0-26.3-13.6-64.7-15.1c27.9,0.4,42.2,4.5,67.5,14.5L555.1,282.8L555.1,282.8z M553.9,289.2
		c0,0-29.6,1.3-63.7,19.1c24.4-13.6,38.8-17.1,65.8-21L553.9,289.2L553.9,289.2z M555.6,286c0,0-28.9-6.4-66.4,2.1
		c27-6.8,41.9-6.5,69-3.3L555.6,286L555.6,286z"/>
	<path class="st31" d="M488.9,428.1c-1.6-8.2-0.6-15.9-0.6-16c0.3,1.1,0.1,5,0.3,8C488.8,423.7,489.2,426.6,488.9,428.1L488.9,428.1
		z M502.5,462.3c-2.1-2.9-2.8-6.4-2.8-6.4C499.8,456.1,502.4,462.1,502.5,462.3L502.5,462.3z M499.9,462.2c-3-3.1-3.9-8.7-3.9-8.7
		C496,453.6,499.8,461.9,499.9,462.2L499.9,462.2z M499.2,454.3c-2.7-3.1-3.1-8.7-3.1-8.7C496.1,445.7,499.2,454.1,499.2,454.3
		L499.2,454.3z M495,452.2c-2.5-3.1-2.4-8.7-2.4-8.7C492.7,443.6,495,452,495,452.2L495,452.2z M491.2,417.8
		c-1.1-3.6,1.2-8.7,1.2-8.7C492.4,409.1,491.3,417.6,491.2,417.8L491.2,417.8z M499.7,447.9c-2.2-3.1-1.5-8.7-1.5-8.7
		C498.2,439.3,499.7,447.6,499.7,447.9L499.7,447.9z M497.1,435.4c-2.2-4.6-1.5-13.2-1.5-13.2C495.6,422.3,497.2,435,497.1,435.4
		L497.1,435.4z M493.5,428.6c-2.2-3.1-1.5-8.7-1.5-8.7C492,420,493.6,428.4,493.5,428.6L493.5,428.6z M490.9,438
		c-2.2-3.1-1.5-8.7-1.5-8.7C489.4,429.4,490.9,437.8,490.9,438L490.9,438z M494.6,443c-2.9-7.8-3.3-15.6-3.3-15.6
		c0.5,1.1,0.9,4.9,1.6,7.8C493.7,438.7,494.7,441.5,494.6,443L494.6,443z"/>
	<path class="st31" d="M518.5,382c-6.5-1.1-12.1-4.5-12.2-4.5c0.9,0.1,3.8,1.5,6.1,2.3C515.2,380.7,517.5,381.2,518.5,382L518.5,382
		z M547.7,380c-2.7,1.1-5.5,0.6-5.5,0.6C542.3,380.6,547.5,380,547.7,380L547.7,380z M546.9,382.4c-3.1,1.9-7.5,0.9-7.5,0.9
		C539.5,383.3,546.7,382.4,546.9,382.4L546.9,382.4z M540.8,380.5c-3,1.6-7.3,0.2-7.3,0.2C533.6,380.7,540.6,380.5,540.8,380.5
		L540.8,380.5z M538.2,383.9c-2.9,1.4-7.1-0.5-7.1-0.5C531.1,383.4,538,383.8,538.2,383.9L538.2,383.9z M511.3,376.5
		c-3-0.1-6.3-3.9-6.3-3.9C505.1,372.6,511.2,376.4,511.3,376.5L511.3,376.5z M536.1,378c-2.8,1.1-6.9-1.3-6.9-1.3
		C529.3,376.7,535.9,377.9,536.1,378L536.1,378z M526.1,376.5c-4,0.6-10.3-2.8-10.3-2.8C515.8,373.8,525.8,376.4,526.1,376.5
		L526.1,376.5z M520.1,377.8c-2.8,1.1-6.9-1.3-6.9-1.3C513.2,376.4,519.9,377.7,520.1,377.8L520.1,377.8z M526.5,383.3
		c-2.8,1.1-6.9-1.3-6.9-1.3C519.6,382,526.3,383.2,526.5,383.3L526.5,383.3z M531.1,381.3c-6.6,0.3-12.6-1.9-12.6-1.9
		c0.9-0.1,3.9,0.7,6.3,1C527.7,380.8,530,380.8,531.1,381.3L531.1,381.3z"/>
	<path class="st31" d="M630.9,382c6.5-1.1,12.1-4.5,12.2-4.5c-0.9,0.1-3.8,1.5-6.1,2.3C634.2,380.7,631.9,381.2,630.9,382L630.9,382
		z M601.7,380c2.7,1.1,5.5,0.6,5.5,0.6C607.1,380.6,601.9,380,601.7,380L601.7,380z M602.5,382.4c3.1,1.9,7.5,0.9,7.5,0.9
		C609.9,383.3,602.6,382.4,602.5,382.4L602.5,382.4z M608.6,380.5c3,1.6,7.3,0.2,7.3,0.2C615.8,380.7,608.7,380.5,608.6,380.5
		L608.6,380.5z M611.2,383.9c2.9,1.4,7.1-0.5,7.1-0.5C618.3,383.4,611.4,383.8,611.2,383.9L611.2,383.9z M638,376.5
		c3-0.1,6.3-3.9,6.3-3.9C644.2,372.6,638.2,376.4,638,376.5L638,376.5z M613.3,378c2.8,1.1,6.9-1.3,6.9-1.3
		C620.1,376.7,613.4,377.9,613.3,378L613.3,378z M623.3,376.5c4,0.6,10.3-2.8,10.3-2.8C633.5,373.8,623.6,376.4,623.3,376.5
		L623.3,376.5z M629.3,377.8c2.8,1.1,6.9-1.3,6.9-1.3C636.1,376.4,629.5,377.7,629.3,377.8L629.3,377.8z M622.9,383.3
		c2.8,1.1,6.9-1.3,6.9-1.3C629.7,382,623.1,383.2,622.9,383.3L622.9,383.3z M618.2,381.3c6.6,0.3,12.6-1.9,12.6-1.9
		c-0.9-0.1-3.9,0.7-6.3,1C621.7,380.8,619.3,380.8,618.2,381.3L618.2,381.3z"/>
	<path class="st31" d="M660.3,428.1c1.6-8.2,0.6-15.9,0.6-16c-0.3,1.1-0.1,5-0.3,8C660.4,423.7,660,426.6,660.3,428.1L660.3,428.1z
		 M646.7,462.3c2.1-2.9,2.8-6.4,2.8-6.4C649.4,456.1,646.8,462.1,646.7,462.3L646.7,462.3z M649.3,462.2c3-3.1,3.9-8.7,3.9-8.7
		C653.1,453.6,649.4,461.9,649.3,462.2L649.3,462.2z M650,454.3c2.7-3.1,3.1-8.7,3.1-8.7C653.1,445.7,650,454.1,650,454.3L650,454.3
		z M654.2,452.2c2.5-3.1,2.4-8.7,2.4-8.7C656.5,443.6,654.2,452,654.2,452.2L654.2,452.2z M658,417.8c1.1-3.6-1.2-8.7-1.2-8.7
		C656.8,409.1,657.9,417.6,658,417.8L658,417.8z M649.5,447.9c2.2-3.1,1.5-8.7,1.5-8.7C651,439.3,649.5,447.6,649.5,447.9
		L649.5,447.9z M652.1,435.4c2.2-4.6,1.5-13.2,1.5-13.2C653.6,422.3,652,435,652.1,435.4L652.1,435.4z M655.7,428.6
		c2.2-3.1,1.5-8.7,1.5-8.7C657.2,420,655.6,428.4,655.7,428.6L655.7,428.6z M658.3,438c2.2-3.1,1.5-8.7,1.5-8.7
		C659.8,429.4,658.3,437.8,658.3,438L658.3,438z M654.6,443c2.9-7.8,3.3-15.6,3.3-15.6c-0.5,1.1-0.9,4.9-1.6,7.8
		C655.5,438.7,654.5,441.5,654.6,443L654.6,443z"/>
</g>
</svg>
