<svg xmlns="http://www.w3.org/2000/svg" xmlns:xlink="http://www.w3.org/1999/xlink" viewBox="0 0 680 500"><defs><clipPath id="a"><rect x="0.26" y="-0.32" width="680" height="500" style="fill:none"/></clipPath><linearGradient id="b" x1="436.68" y1="343.78" x2="447.15" y2="165.43" gradientUnits="userSpaceOnUse"><stop offset="0.03" stop-color="#fff" stop-opacity="0"/><stop offset="0.1" stop-color="#f3f0fa" stop-opacity="0.09"/><stop offset="0.42" stop-color="#baade1" stop-opacity="0.47"/><stop offset="0.69" stop-color="#917bce" stop-opacity="0.76"/><stop offset="0.89" stop-color="#785dc3" stop-opacity="0.93"/><stop offset="1" stop-color="#6e51bf"/></linearGradient></defs><g style="clip-path:url(#a)"><path d="M408.27,266.82l9-1.17S400.1,144.32,382.6,139.07s-20.71,3.5-20.71,3.5,6,11,13.42,21.88c11.37,16.62,16.33,54.25,23.33,79.91.49,1.78.29,19.84.29,19.84Z" style="fill:#ced5dc"/><path d="M375.6,151.32S408,216.07,406.81,265.07c.87,2,4.67,1.46,4.67,1.46s-7.59-53.67-12.84-70-12.54-36.17-16.91-41.12S375.6,151.32,375.6,151.32Z" style="fill:#bec8d2"/><path d="M377.64,118.66s20.13,63.87,21.88,71.16,11.37,48.13,12.83,54.54S415,266,415,266l26.25-7s1.16-.59-3.21-6.13-.88-13.71-3.79-14-29.17-126.58-29.17-126.58Z" style="fill:#8895a7"/><path d="M403,112.82l17.21,121,5.25-1.16,1.16,9s5-.59,6.13,2,2,9.33,2,9.33l2.62,2.63s1.75,0,1.75,2.62,21.88-7.58,21.88-7.58l84.29,40.83L529.6,136.16,410.89,105.53l.59,6.13Z" style="fill:#071e31"/><path d="M398.46,252.64s-39.06,22.15-42.87,24.21a13.2,13.2,0,0,0-4.38,19.83c5,6.12,108.5,70,108.5,70s16.31,10.61,34.42,6.71c48.7-10.5,88.66-22.17,129.79-37.92,7.7-3,23.62-20.42,26.54-37.33s-14-165.67-15.17-167.71C630.64,94.81,597.65,82,567.62,80.27c-.87,0-89.24-15.17-93.91-15.76s-17.5,8.46-16,9.63S588.33,102.72,591,103.31s21.29,6.7,26.25,23.62c2.33,10.5,11.08,86,11.08,87.5s3.5,7,3.5,7,6.42,72.33,5,74.67-8.17,21.58-29.46,27.7c-52.9,17.43-81,31.3-127.16,32.67-8.46.3-116.09-69.12-116.09-69.12s38.21-21.3,40-21.59S403.13,253.51,398.46,252.64Z" style="fill:#e1e7ec"/><path d="M119.45,194.58C101.11,200,87.38,219,67.67,219.45s-34.66-19-25.84-37.32c8-16.72,29-28.93,46.45-32.91,11.15-2.54,22-1.25,33.2-.05,7.09.76,17.88-3.27,24.09-.49,10.65,4.76,11.78,17.69,7.25,27C146.38,188.93,132.24,190.83,119.45,194.58Z" style="fill:#071e31"/><path d="M130.67,144.42a4.25,4.25,0,0,0-2.15,5.63l14.85,33.12a4.27,4.27,0,0,0,5.64,2.15h0a4.27,4.27,0,0,0,2.15-5.64l-14.85-33.11a4.27,4.27,0,0,0-5.64-2.15Z" style="fill:#8c002c"/><path d="M206.54,295.63l14.92-97.38-28.28-14.49-35.94,58.32S207.34,275.74,206.54,295.63Z" style="fill:#f9b49c"/><path d="M161.51,168a85.66,85.66,0,0,1-3.42-31.25c1-11.36-.66-24.77,1.3-35.63,4.26-23.58,29-37.07,51.42-36.28C247,66.09,293,90.5,293.4,130c.09,9.05-.23,18.15.74,27.16.34,3.06-.14,7.69.62,10.52.93,3.51,4.85,5.14,5.57,8.64.51,2.53-1.7,5.25-2.8,7.27-5.07,9.29-9,23.39-16.2,30.73-10.95,11.09-27.9,16.7-43.28,19.9-23,4.8-22.77,3.11-40.43-11.18C181.42,209.91,167.78,189.57,161.51,168Z" style="fill:#f9b49c"/><path d="M294.69,92.58A92.47,92.47,0,0,0,269,69.83c-34.7-20-85.51-39-119.56-8.69-28.93,25.73-26.76,66.24-9.74,97.84,8.12,15.1,30.23,57.57,46.7,27.17,8.15-15,16-33.48,30.73-43.27,20.56-13.63,50-15.79,73.13-7.92,4.54,1.55,6,4,10.63.74,9.58-6.87,5.34-24.29,1-32.26A80.19,80.19,0,0,0,294.69,92.58Z" style="fill:#071e31"/><path d="M224.29,140.78c-6.62-15.06-27.64-25.14-35.63-5-5.49,13.83,10,46.32,27.56,44.29" style="fill:#f9b49c"/><path d="M210.63,161.39a1,1,0,0,0,.21.09.77.77,0,0,0,1-.53c1.71-5.84,2.27-17.21-3.47-22.86a.77.77,0,0,0-1.1,0,.78.78,0,0,0,0,1.1c5,4.9,4.79,15.41,3.07,21.32A.78.78,0,0,0,210.63,161.39Z" style="fill:#e2806a"/><path d="M266.4,144.34c3,.73,3.7-2.9,5.5-4.2,3-2.15,3.27-1.76,7.15-1.74,2,0,5.83,1.39,6.65-1.36.75-2.51-4.14-4.72-5.92-5.1-3.44-.73-9.28.37-12.16,2.61C265.31,136.34,261.21,143.05,266.4,144.34Z" style="fill:#071e31"/><path d="M284.65,159.22c-1.4,5.37-6,6.56-6.18-.76C278.35,151.53,286.82,150.89,284.65,159.22Z" style="fill:#071e31"/><path d="M209.78,232.75c1.25.82,2,1.32,2.2,1.41a.78.78,0,0,0,1.08-.25.79.79,0,0,0-.25-1.07c-.21-.13-21.18-13.3-28.22-23.76a.79.79,0,0,0-1.09-.21.77.77,0,0,0-.21,1.08C189.22,218.76,204.13,229,209.78,232.75Z" style="fill:#c16534"/><path d="M399.13,280.4S424.29,244,437,234.69c12.25-9,14.81-5.74,4.2,10.08l13.37-7.6c6.52-3.71,22.46-6.38,9.6,1.93,7-4.53,13.68-6.62,15.14-4.17,3.13,5.2-14,16.57-14,16.57s10.31-10.09,4.38,2.24S447.92,279,447.92,279s13.73-10.44-2.14,8.83c-8.86,10.76-39.69,17.06-39.69,17.06Z" style="fill:#f1a385"/><path d="M285.11,412.69c-2.05-1.32-4.06-2.69-6.06-4.1a273,273,0,0,1-46.74-41,241,241,0,0,1-32.58-46.37c-4.62-8.6-8.63-17.45-12.39-26.45-3.9-9.32-7.62-18.75-10.65-28.4-1.78-5.67-3.35-11.47-4.57-17.34,7.27-6.44,11-.05,19.37-1.68,42-8.21,62.16,13.21,144.38,87.48,0,0,21.23-14.27,63.26-54.39L439,305.82s-30.33,54.47-55.1,98-99,7.5-99,7.5Z" style="fill:#1c77c3"/><path d="M438.62,311.32s33.06-22.72,45-33c10.86-9.37,1.91-8.6-12.43-7.64l19.27-11.37s8.19-8.8-3.11-7.88c5.53-.45,7-6,5.15-8.16-3.29-4-18.58,3.62-18.58,3.62s7.17-2.74,4.49-5.67c-2.15-2.34-6.32-1.25-10.05,1.17-13.17,7.46-25.23,14.91-25.23,14.91s6.47-4.89,3.5-6.57c-4-2.23-6.57,2-13.83,5.49-12.55,6.08-24.68,35.62-24.68,35.62Z" style="fill:#fcd4c0"/><path d="M224.33,397.16a.79.79,0,0,0,.5-.18.78.78,0,0,0,.1-1.1l-22.33-27a.78.78,0,1,0-1.21,1l22.34,27A.77.77,0,0,0,224.33,397.16Z" style="fill:#1c77c3"/><path d="M433.88,282.61a.8.8,0,0,0,.59-.26C449,266,466.83,271.57,467,271.63a.78.78,0,0,0,.48-1.49,30.56,30.56,0,0,0-11.35-.89c-6,.58-14.89,3.15-22.84,12.05a.79.79,0,0,0,.06,1.11A.81.81,0,0,0,433.88,282.61Z" style="fill:#e2806a"/><path d="M467.25,268a.78.78,0,0,0,.37-1.47l-17.73-9.38a.78.78,0,1,0-.73,1.38l17.72,9.38A.84.84,0,0,0,467.25,268Z" style="fill:#e2806a"/><path d="M463.12,265.84a.82.82,0,0,0,.37-.1L488,252.35a.78.78,0,0,0-.75-1.37l-24.48,13.39a.78.78,0,0,0,.38,1.47Z" style="fill:#e2806a"/><path d="M454.56,261.3a.78.78,0,0,0,.39-.1l22.79-13.36a.78.78,0,0,0,.28-1.07.78.78,0,0,0-1.07-.28l-22.79,13.36a.78.78,0,0,0,.4,1.45Z" style="fill:#e2806a"/><path d="M408.08,291.84c-47.81,45.64-72,61.88-72,61.88C253.29,253,224.28,232.6,176.45,242,121,252.79,86.7,368.79,71,438.1c30-9.51,72-10.14,116.44.35,40.73,9.62,75.5,26.72,98.38,46.39l-7.77-44.1s84.5,40.95,112.68-8.53,62.68-111.45,62.68-111.45Z" style="fill:#77addb"/><path d="M147.63,203.91a122.64,122.64,0,0,0,2.77-21c.32-6.56,2.45-11.5,9.15-14.07,8.83-3.37,12.77,2,19.11,6.8,10.33,7.75,12.65,21.79,12.08,33.91-.78,16.81,13,27.4,15,44.47,3.75,31.33-32.43,58.19-58.88,35-19.93-17.51-10-48.15-3.47-69.53C145.15,213.79,146.54,208.81,147.63,203.91Z" style="fill:#071e31"/><path d="M145.39,182a4.28,4.28,0,0,0,4.46,4.07l36.26-1.66a4.27,4.27,0,0,0,4.07-4.45h0a4.27,4.27,0,0,0-4.46-4.07l-36.26,1.65a4.27,4.27,0,0,0-4.07,4.46Z" style="fill:#e11e19"/><path d="M278.08,441.52a.79.79,0,0,0,.62-.3.78.78,0,0,0-.14-1.09c-.5-.4-50.86-40.09-74.06-78.73a.78.78,0,1,0-1.34.8c23.35,38.9,73.93,78.76,74.44,79.16A.77.77,0,0,0,278.08,441.52Z" style="fill:#1c77c3"/><path d="M349.83,409.46h.08a.78.78,0,0,0,.7-.85c0-.29-2.94-29.48-13.78-55.2a.78.78,0,0,0-1.44.61c10.74,25.49,13.64,54.45,13.67,54.74A.76.76,0,0,0,349.83,409.46Z" style="fill:#1c77c3"/><path d="M354.52,411.81h.14a.79.79,0,0,0,.64-.9c-.53-3.06-.88-6.2-1.22-9.23-.69-6.1-1.4-12.41-3.51-18.44a.78.78,0,1,0-1.47.51c2,5.87,2.75,12.09,3.43,18.1.34,3.06.7,6.21,1.22,9.32A.79.79,0,0,0,354.52,411.81Z" style="fill:#1c77c3"/><path d="M477.19,245.82c-5.49,5.05-10,8.52-14.79,10.71s-11,3.32.38,6.83c13.72-13.06,11.8-2.94,17.73-10.62.57-4.17,5.59-6.35,7.58-8.43C486.48,240.42,477.19,245.82,477.19,245.82Z" style="fill:#8203f2;opacity:0.46"/><path d="M459.56,249c-3.61,3.32-3.37,2.45-6.54,3.89s-8.52,2-1,4.26c9-8.57,5.92-.5,9.81-5.55.38-2.74,5.19-4.45,6.5-5.82C467.22,243.18,459.56,249,459.56,249Z" style="fill:#8203f2;opacity:0.46"/><path d="M451.88,265.25c1.62,3.09-1.34,5.6-5,4.22-3.65,1.38-8.88.62-7.26-2.47-1.62-3.09,1.34-5.59,5-4.22C448.27,261.41,453.5,262.17,451.88,265.25Z" style="fill:#8203f2;opacity:0.46"/><path d="M496.35,84.56c-2.92-3.8-2-19.55,5.25-19.25S550.89,73.47,569,76.39a22.55,22.55,0,0,1,3.5,2.92s-5-1.46-9,3.79c-1.87,2.4-2.62,8.75.29,12.54S496.35,84.56,496.35,84.56Z" style="fill:#231f20"/><path d="M569.85,101.18l18.37.58s26.42,121.4,41.13,114c.58-.29,4.37,4.67,4.37,6.13s5.25,72,4.67,74.37-12,24.21-35,29.17C601.35,309.14,569.85,101.18,569.85,101.18Z" style="fill:#ced5dc"/><path d="M412.35,69.1s9.33-1.75,15.17-1.46,160.7,34.12,160.7,34.12l-18.08.3Z" style="fill:#8895a7"/><path d="M536.89,102.06s-65,35.59-77.54,47.54c-1.32,1.25-2.06,2.25-2.08,2.91C457,159.51,536.89,102.06,536.89,102.06Z" style="fill:none;stroke:#231f20;stroke-miterlimit:10"/><path d="M404.18,67.06s-32.08,7.58-46.95,30.62c-14,21.61-10.5,23.33-10.5,23.33l13.7,5.25S471,165.93,476.22,165.05s16-8.16,22.17-12.83c5.4-4.11,70.58-49.58,71.46-49.87S404.18,67.06,404.18,67.06Zm63.95,75.25a5.14,5.14,0,0,1-4.74,1l-82.54-24.59,26.25-6.12,6.71.87,1.16-6.12,72.63,19Z" style="fill:#ced5dc"/><path d="M394.56,82.51,410,112l-46.09,5S376.18,91.56,394.56,82.51Z" style="fill:#bec8d2"/><path d="M398.64,84.56,515,111.1s-26.55,15.16-27.13,16.33-76.42-19.54-76.42-19.54Z" style="fill:#bec8d2"/><path d="M361,117.22s19-37.91,34.12-37.62C378.52,94.76,361,117.22,361,117.22Z" style="fill:#e1e7ec"/><path d="M395.43,83.1S408,110.81,410,112s3.79,0,2.33-2.91c-1-1.9-15.75-27.13-15.75-27.13Z" style="fill:#e1e7ec"/><path d="M396.6,81.93s123.08,25.08,124,26.25-5.25,4.08-5.25,4.08l-119-27.7Z" style="fill:#e1e7ec"/><path d="M559.35,102.64s-63.5,41.53-71.46,47.54C473.6,161,470,156.85,462.52,157.47c7.8,5.36,14.54,3.64,22.75-1.46,10.79-6.71,69.18-50.46,79.91-52.2C566.06,103.51,559.35,102.64,559.35,102.64Z" style="fill:#e1e7ec"/><ellipse cx="583.7" cy="114.74" rx="4.23" ry="3.94" style="fill:#5a5959"/><polygon points="352.14 136.66 372.03 282.84 490.44 354.2 533.52 341.25 517.11 186.75 487.97 187.03 352.14 136.66" style="fill:url(#b)"/><path d="M492,190.43s33.55,19.25,40.84,42.29,20.71,108.5,20.71,108.5l13.12-4.08s-8.75-98-22.75-112C522,190.72,500.43,189.85,492,190.43Z" style="fill:#8895a7"/><path d="M346.14,120.72l3.5,21.88s120.17,43.16,128,45.5,30.2,4.25,38.21,10.2c43.88,22.17,42.2,104.84,49.29,140L604,325.18,570.14,101.76C438.6,191.3,509.77,167.1,346.14,120.72Z" style="fill:#e1e7ec"/></g></svg>