<svg xmlns="http://www.w3.org/2000/svg" viewBox="0 0 32.64 25.88"><defs><style>.cls-1{fill:#E11E19;}</style></defs><title>klammer-zu</title><g id="Layer_2" data-name="Layer 2"><g id="textos_y_elementos" data-name="textos y elementos"><path class="cls-1" d="M.92,25.88,0,24.36q7.82-4.18,7.81-7.81A2.14,2.14,0,0,0,7.17,15a9.22,9.22,0,0,0-2.3-1.54,10.24,10.24,0,0,1-3.61-2.74A5.84,5.84,0,0,1,.18,7.12,6.87,6.87,0,0,1,2.25,2.07,6.78,6.78,0,0,1,7.22,0a6.35,6.35,0,0,1,5.26,2.57,10.68,10.68,0,0,1,2,6.72,15.5,15.5,0,0,1-1.31,6.25A16.65,16.65,0,0,1,9.29,21,27.43,27.43,0,0,1,.92,25.88Zm18.16,0-.92-1.52Q26,20.22,26,16.55,26,15,23,13.47a10.73,10.73,0,0,1-3.65-2.76,5.82,5.82,0,0,1-1-3.59,6.88,6.88,0,0,1,2.09-5,6.84,6.84,0,0,1,5-2.09,6.33,6.33,0,0,1,5.22,2.57,10.68,10.68,0,0,1,2,6.72A15.52,15.52,0,0,1,27.49,21a20.83,20.83,0,0,1-3.43,2.6A39.81,39.81,0,0,1,19.08,25.88Z"/></g></g></svg>