<?xml version="1.0" encoding="utf-8"?>
<!-- Generator: Adobe Illustrator 24.1.3, SVG Export Plug-In . SVG Version: 6.00 Build 0)  -->
<svg version="1.1" id="Layer_1" xmlns="http://www.w3.org/2000/svg" xmlns:xlink="http://www.w3.org/1999/xlink" x="0px" y="0px"
	 viewBox="0 0 292.2 431" style="enable-background:new 0 0 292.2 431;" xml:space="preserve">
<style type="text/css">
	.st0{clip-path:url(#SVGID_2_);}
	.st1{fill:#CED5DC;}
	.st2{fill:#BEC8D2;}
	.st3{fill:#8895A7;}
	.st4{fill:#071E31;}
	.st5{fill:#E1E7EC;}
	.st6{fill:#8C002C;}
	.st7{fill:#F9B49C;}
	.st8{fill:#E2806A;}
	.st9{fill:#C16534;}
	.st10{fill:#F1A385;}
	.st11{fill:#1C77C3;}
	.st12{fill:#FCD4C0;}
	.st13{fill:#77ADDB;}
	.st14{fill:#E11E19;}
	.st15{opacity:0.46;fill:#6E51BF;enable-background:new    ;}
	.st16{fill:#231F20;}
	.st17{fill:none;stroke:#231F20;stroke-miterlimit:10;}
	.st18{fill:#5A5959;}
	.st19{fill:url(#SVGID_3_);}
	.st20{fill:#7BBC51;}
	.st21{fill:#B7B7B7;}
	.st22{fill-rule:evenodd;clip-rule:evenodd;fill:#B2C5D1;}
	.st23{fill-rule:evenodd;clip-rule:evenodd;fill:#AFBBC6;}
	.st24{fill-rule:evenodd;clip-rule:evenodd;fill:#E11E19;}
	.st25{fill-rule:evenodd;clip-rule:evenodd;fill:#CED5DC;}
	.st26{fill-rule:evenodd;clip-rule:evenodd;fill:#6B737F;}
	.st27{fill-rule:evenodd;clip-rule:evenodd;fill:#C7C1C5;}
	.st28{fill-rule:evenodd;clip-rule:evenodd;fill:#303947;}
	.st29{fill-rule:evenodd;clip-rule:evenodd;fill:#370A06;}
	.st30{fill-rule:evenodd;clip-rule:evenodd;fill:#FFFFFF;}
	.st31{fill:#370A06;}
</style>
<g>
	<defs>
		<rect id="SVGID_1_" x="1.2" width="291" height="431"/>
	</defs>
	<clipPath id="SVGID_2_">
		<use xlink:href="#SVGID_1_"  style="overflow:visible;"/>
	</clipPath>
	<g class="st0">
		<path class="st1" d="M165.5,222.6l4.2-0.5c0,0-8-56.6-16.2-59.1s-9.7,1.6-9.7,1.6s2.8,5.1,6.3,10.2c5.3,7.8,7.6,25.3,10.9,37.3
			c0.2,0.8,0.1,9.3,0.1,9.3L165.5,222.6z"/>
		<path class="st2" d="M150.3,168.7c0,0,15.1,30.3,14.6,53.1c0.4,1,2.2,0.7,2.2,0.7s-3.5-25-6-32.7s-5.9-16.9-7.9-19.2
			S150.3,168.7,150.3,168.7z"/>
		<path class="st3" d="M151.2,153.5c0,0,9.4,29.8,10.2,33.2s5.3,22.5,6,25.5s1.2,10.1,1.2,10.1l12.2-3.2c0,0,0.5-0.3-1.5-2.9
			s-0.4-6.4-1.8-6.5S164,150.5,164,150.5L151.2,153.5z"/>
		<path class="st4" d="M163.1,150.8l8,56.5l2.4-0.6l0.5,4.2c0,0,2.3-0.3,2.9,1c0.5,1.4,0.8,2.9,0.9,4.4l1.2,1.2c0,0,0.8,0,0.8,1.2
			s10.2-3.5,10.2-3.5l39.3,19.1l-7.4-72.6l-55.4-14.3l0.3,2.9L163.1,150.8z"/>
		<path class="st5" d="M161,216c0,0-18.2,10.3-20,11.3c-3,1.6-4.2,5.3-2.6,8.3c0.2,0.3,0.4,0.6,0.6,0.9c2.3,2.9,50.6,32.7,50.6,32.7
			s7.6,5,16.1,3.1c20.6-4.3,40.9-10.2,60.6-17.7c3.6-1.4,11-9.5,12.4-17.4s-6.7-77.3-7.2-78.2c-2.2-16.6-17.6-22.6-31.6-23.4
			c-0.4,0-41.6-7.1-43.8-7.4s-8.2,3.9-7.5,4.5s61,13.3,62.2,13.6s9.9,3.1,12.3,11c1.1,4.9,5.2,40.2,5.2,40.8s1.6,3.3,1.6,3.3
			s3,33.8,2.3,34.8s-3.8,10.1-13.8,12.9c-24.7,8.1-37.8,14.6-59.4,15.2c-3.9,0.1-54.2-32.3-54.2-32.3s17.8-9.9,18.6-10.1
			S163.1,216.4,161,216z"/>
		<path class="st4" d="M39.8,188.1c-8.6,2.5-15,11.4-24.2,11.6s-16.2-8.9-12.1-17.4c3.8-7.8,13.5-13.5,21.7-15.4
			c5.2-1.2,10.3-0.6,15.5,0c3.3,0.4,8.3-1.5,11.3-0.2c5,2.2,5.5,8.3,3.4,12.6C52.3,185.5,45.7,186.4,39.8,188.1z"/>
		<path class="st6" d="M45,164.7c-1,0.5-1.4,1.6-1,2.6l6.9,15.5c0.5,1,1.6,1.5,2.6,1l0,0c1-0.5,1.4-1.6,1-2.6l-6.9-15.5
			C47.2,164.7,46,164.2,45,164.7L45,164.7z"/>
		<path class="st7" d="M80.4,235.3l7-45.4l-13.2-6.8l-16.8,27.2C57.4,210.3,80.8,226,80.4,235.3z"/>
		<path class="st7" d="M59.4,175.7c-1.4-4.7-2-9.7-1.6-14.6c0.5-5.3-0.3-11.6,0.6-16.6c2-11,13.5-17.3,24-16.9
			c16.9,0.6,38.4,12,38.5,30.4c0,4.2-0.1,8.5,0.3,12.7c0.2,1.4-0.1,3.6,0.3,4.9c0.4,1.6,2.3,2.4,2.6,4c0.2,1.2-0.8,2.4-1.3,3.4
			c-2.4,4.3-4.2,10.9-7.6,14.3c-5.1,5.2-13,7.8-20.2,9.3c-10.7,2.2-10.6,1.4-18.9-5.2C68.2,194.6,62.4,185.7,59.4,175.7z"/>
		<path class="st4" d="M121.6,140.5c-3.3-4.3-7.4-7.9-12-10.6c-16.2-9.4-39.9-18.2-55.8-4.1c-13.5,12-12.5,30.9-4.5,45.7
			c3.8,7,14.1,26.9,21.8,12.7c3.8-7,7.4-15.6,14.3-20.2c9.6-6.4,23.4-7.4,34.1-3.7c2.1,0.7,2.8,1.9,5,0.4c4.5-3.2,2.5-11.3,0.5-15.1
			C123.9,143.8,122.8,142.1,121.6,140.5z"/>
		<path class="st7" d="M88.7,163c-3.1-7-12.9-11.7-16.6-2.3c-2.6,6.4,4.7,21.6,12.9,20.7"/>
		<path class="st8" d="M82.3,172.6L82.3,172.6c0.3,0.1,0.5-0.1,0.5-0.3c0.8-2.7,1.1-8-1.6-10.7c-0.1-0.1-0.4-0.1-0.5,0
			c-0.1,0.1-0.1,0.4,0,0.5c2.3,2.3,2.2,7.2,1.4,9.9C82.1,172.3,82.2,172.5,82.3,172.6z"/>
		<path class="st4" d="M108.3,164.7c1.4,0.3,1.7-1.4,2.6-2c1.4-1,1.5-0.8,3.3-0.8c0.9,0,2.7,0.6,3.1-0.6s-1.9-2.2-2.8-2.4
			c-2-0.3-4,0.1-5.7,1.2C107.8,160.9,105.9,164.1,108.3,164.7z"/>
		<path class="st4" d="M116.9,171.6c-0.7,2.5-2.8,3.1-2.9-0.4C113.9,168,117.9,167.7,116.9,171.6z"/>
		<path class="st9" d="M81.9,205.9l1,0.7c0.2,0.1,0.4,0.1,0.5-0.1c0.1-0.2,0.1-0.4-0.1-0.5c-0.1-0.1-9.9-6.2-13.2-11.1
			c-0.1-0.2-0.3-0.2-0.5-0.1c-0.2,0.1-0.2,0.3-0.1,0.5l0,0C72.3,199.4,79.3,204.2,81.9,205.9z"/>
		<path class="st10" d="M170.3,228.2c0,0,11.7-17,17.7-21.3c5.7-4.2,6.9-2.7,2,4.7l6.2-3.6c3.1-1.7,10.5-3,4.5,0.9
			c3.3-2.1,6.4-3.1,7.1-1.9c1.5,2.4-6.5,7.7-6.5,7.7s4.8-4.7,2,1s-10.1,11.8-10.1,11.8s6.4-4.9-1,4.1c-4.1,5-18.5,8-18.5,8
			L170.3,228.2z"/>
		<path class="st11" d="M117.1,289.9c-1-0.6-1.9-1.3-2.8-1.9c-8-5.5-15.3-12-21.8-19.2c-5.9-6.6-11-13.9-15.2-21.6
			c-2.2-4-4-8.1-5.8-12.3c-1.8-4.4-3.6-8.8-5-13.3c-0.8-2.6-1.6-5.4-2.1-8.1c3.4-3,5.2,0,9-0.8c19.6-3.8,29,6.2,67.4,40.8
			c0,0,9.9-6.7,29.5-25.4l18.7,11.8c0,0-14.1,25.4-25.7,45.7s-46.2,3.5-46.2,3.5L117.1,289.9z"/>
		<path class="st12" d="M188.7,242.6c0,0,15.4-10.6,21-15.4c5.1-4.4,0.9-4-5.8-3.6l9-5.3c0,0,3.8-4.1-1.5-3.7
			c2.6-0.2,3.3-2.8,2.4-3.8c-1.5-1.9-8.7,1.7-8.7,1.7s3.3-1.3,2.1-2.6c-1-1.1-2.9-0.6-4.7,0.6c-6.1,3.5-11.8,7-11.8,7s3-2.3,1.6-3.1
			c-1.9-1-3.1,0.9-6.5,2.6c-5.9,2.8-11.5,16.6-11.5,16.6L188.7,242.6z"/>
		<path class="st11" d="M88.7,282.7c0.1,0,0.2,0,0.2-0.1c0.1-0.1,0.1-0.4,0-0.5c0,0,0,0,0,0l-10.4-12.6c-0.1-0.1-0.4-0.2-0.5,0
			c-0.1,0.1-0.2,0.3,0,0.5l10.4,12.6C88.5,282.6,88.6,282.7,88.7,282.7z"/>
		<path class="st8" d="M186.5,229.2c0.1,0,0.2,0,0.3-0.1c3.7-4.4,9.6-6.4,15.2-5c0.2,0.1,0.4,0,0.5-0.2c0,0,0,0,0,0
			c0.1-0.2,0-0.4-0.2-0.5c-1.7-0.5-3.5-0.6-5.3-0.4c-4.1,0.4-8,2.5-10.6,5.6c-0.1,0.1-0.1,0.4,0,0.5c0,0,0,0,0,0
			C186.3,229.2,186.4,229.2,186.5,229.2z"/>
		<path class="st8" d="M202.1,222.4c0.1,0,0.3-0.1,0.3-0.2c0.1-0.2,0-0.4-0.1-0.5l-8.3-4.4c-0.2-0.1-0.4,0-0.5,0.1
			c-0.1,0.2,0,0.4,0.2,0.5l8.3,4.4C202,222.4,202,222.4,202.1,222.4z"/>
		<path class="st8" d="M200.2,221.4c0.1,0,0.1,0,0.2-0.1l11.4-6.3c0.2-0.1,0.2-0.3,0.2-0.5c0,0,0,0,0,0c-0.1-0.2-0.3-0.2-0.5-0.1
			l-11.4,6.3c-0.2,0.1-0.2,0.3-0.1,0.5C199.9,221.3,200,221.4,200.2,221.4L200.2,221.4z"/>
		<path class="st8" d="M196.2,219.3c0.1,0,0.1,0,0.2-0.1L207,213c0.2-0.1,0.2-0.4,0-0.5c-0.1-0.1-0.3-0.2-0.4-0.1l-10.6,6.2
			c-0.2,0.1-0.2,0.3-0.1,0.5C195.9,219.2,196.1,219.2,196.2,219.3L196.2,219.3z"/>
		<path class="st13" d="M174.5,233.5c-22.3,21.3-33.6,28.9-33.6,28.9c-38.7-47-52.2-56.5-74.5-52.2c-25.9,5.1-41.9,59.2-49.2,91.6
			c14-4.4,33.6-4.7,54.4,0.2c19,4.5,35.2,12.5,45.9,21.6l-3.6-20.6c0,0,39.4,19.1,52.6-4s29.3-52,29.3-52L174.5,233.5z"/>
		<path class="st4" d="M52.9,192.5c0.7-3.2,1.1-6.5,1.3-9.8c0.2-3.1,1.2-5.4,4.3-6.6c4.1-1.6,6,0.9,8.9,3.2
			c4.8,3.6,5.9,10.2,5.6,15.8c-0.4,7.9,6.1,12.8,7,20.8c1.8,14.6-15.1,27.2-27.5,16.3c-9.3-8.1-4.7-22.5-1.6-32.4
			C51.8,197.1,52.4,194.8,52.9,192.5z"/>
		<path class="st14" d="M51.9,182.3c0.1,1.1,1,1.9,2.1,1.9l16.9-0.8c1.1-0.1,1.9-1,1.9-2.1l0,0c-0.1-1.1-1-1.9-2.1-1.9l-16.9,0.8
			C52.7,180.2,51.8,181.2,51.9,182.3z"/>
		<path class="st11" d="M113.8,303.4c0.1,0,0.2-0.1,0.3-0.1c0.1-0.2,0.1-0.4-0.1-0.5c-0.2-0.2-23.7-18.7-34.6-36.8
			c-0.1-0.2-0.3-0.2-0.5-0.1c-0.2,0.1-0.2,0.3-0.1,0.5l0,0c10.9,18.1,34.5,36.8,34.7,36.9C113.6,303.3,113.7,303.4,113.8,303.4z"/>
		<path class="st11" d="M147.3,288.4L147.3,288.4c0.2,0,0.3-0.2,0.3-0.4c0,0,0,0,0,0c0-0.1-1.4-13.8-6.4-25.8
			c-0.1-0.2-0.3-0.2-0.5-0.1c-0.1,0.1-0.2,0.2-0.2,0.4c5,11.9,6.4,25.4,6.4,25.5C146.9,288.3,147.1,288.4,147.3,288.4z"/>
		<path class="st11" d="M149.5,289.5L149.5,289.5c0.3,0,0.4-0.2,0.4-0.4c-0.3-1.4-0.4-2.9-0.6-4.3c-0.2-2.9-0.8-5.8-1.6-8.6
			c-0.1-0.2-0.3-0.3-0.4-0.2c0,0,0,0,0,0c-0.2,0.1-0.3,0.3-0.2,0.5c0.9,2.7,1.4,5.6,1.6,8.5c0.2,1.4,0.3,2.9,0.6,4.4
			C149.2,289.4,149.3,289.5,149.5,289.5z"/>
		<path class="st15" d="M206.7,212c-2,2-4.3,3.7-6.9,5c-2.3,1-5.1,1.6,0.2,3.2c6.4-6.1,5.5-1.4,8.3-5c0.3-1.9,2.6-3,3.5-3.9
			C211.1,209.5,206.7,212,206.7,212z"/>
		<path class="st15" d="M198.5,213.5c-1.7,1.6-1.6,1.1-3.1,1.8s-4,0.9-0.5,2c4.2-4,2.8-0.2,4.6-2.6c0.2-1.3,2.4-2.1,3-2.7
			C202.1,210.8,198.5,213.5,198.5,213.5z"/>
		<path class="st15" d="M194.9,221.1c0.8,1.4-0.6,2.6-2.3,2c-1.7,0.6-4.1,0.3-3.4-1.2c-0.8-1.4,0.6-2.6,2.3-2
			C193.2,219.3,195.7,219.7,194.9,221.1z"/>
		<path class="st16" d="M206.6,137.6c-1.4-1.8-1-9.1,2.4-9s23,3.8,31.4,5.2c0.6,0.4,1.1,0.9,1.6,1.4c-1.6-0.3-3.3,0.4-4.2,1.8
			c-1.1,1.8-1,4.1,0.1,5.9C239.4,144.5,206.6,137.6,206.6,137.6z"/>
		<path class="st1" d="M241,145.3l8.6,0.3c0,0,12.3,56.7,19.2,53.2c0.3-0.1,2,2.2,2,2.9s2.5,33.6,2.2,34.7s-5.6,11.3-16.3,13.6
			C255.6,242.4,241,145.3,241,145.3z"/>
		<path class="st3" d="M167.4,130.4c2.3-0.4,4.7-0.7,7.1-0.7c2.7,0.1,75,15.9,75,15.9l-8.4,0.1L167.4,130.4z"/>
		<path class="st17" d="M225.6,145.8c0,0-30.3,16.6-36.2,22.2c-0.6,0.6-1,1.1-1,1.4C188.3,172.6,225.6,145.8,225.6,145.8z"/>
		<path class="st1" d="M163.6,129.4c0,0-15,3.5-21.9,14.3c-6.5,10.1-4.9,10.9-4.9,10.9l6.4,2.4c0,0,51.6,18.5,54,18.1
			s7.5-3.8,10.4-6c2.5-1.9,32.9-23.1,33.3-23.3S163.6,129.4,163.6,129.4z M193.5,164.5c-0.6,0.5-1.5,0.7-2.2,0.4l-38.5-11.5
			l12.3-2.9l3.1,0.4l0.6-2.9l33.9,8.9L193.5,164.5z"/>
		<path class="st2" d="M159.1,136.6l7.2,13.8l-21.5,2.3C144.8,152.7,150.6,140.9,159.1,136.6z"/>
		<path class="st2" d="M161,137.6l54.4,12.4c0,0-12.4,7.1-12.7,7.6s-35.7-9.1-35.7-9.1L161,137.6z"/>
		<path class="st5" d="M143.5,152.8c0,0,8.9-17.7,15.9-17.6C153.7,140.7,148.4,146.6,143.5,152.8z"/>
		<path class="st5" d="M159.6,136.9c0,0,5.9,12.9,6.8,13.5s1.8,0,1.1-1.4c-0.4-0.9-7.4-12.7-7.4-12.7L159.6,136.9z"/>
		<path class="st5" d="M160.1,136.4c0,0,57.4,11.7,57.9,12.3s-2.5,1.9-2.5,1.9L160,137.6L160.1,136.4z"/>
		<path class="st5" d="M236.1,146c0,0-29.6,19.4-33.3,22.2c-6.7,5-8.4,3.1-11.8,3.4c3.6,2.5,6.8,1.7,10.6-0.7
			c5-3.1,32.3-23.6,37.3-24.4C239.2,146.4,236.1,146,236.1,146z"/>
		<ellipse class="st18" cx="247.4" cy="151.7" rx="2" ry="1.8"/>
		
			<linearGradient id="SVGID_3_" gradientUnits="userSpaceOnUse" x1="178.802" y1="172.3099" x2="183.682" y2="255.5499" gradientTransform="matrix(1 0 0 -1 0 432)">
			<stop  offset="3.000000e-02" style="stop-color:#FFFFFF;stop-opacity:0"/>
			<stop  offset="0.1" style="stop-color:#F3F0FA;stop-opacity:9.000000e-02"/>
			<stop  offset="0.42" style="stop-color:#BAADE1;stop-opacity:0.47"/>
			<stop  offset="0.69" style="stop-color:#917BCE;stop-opacity:0.76"/>
			<stop  offset="0.89" style="stop-color:#785DC3;stop-opacity:0.93"/>
			<stop  offset="1" style="stop-color:#6E51BF"/>
		</linearGradient>
		<polygon class="st19" points="139.3,163 148.6,231.3 203.9,264.6 224,258.5 216.3,186.4 202.7,186.5 		"/>
		<path class="st3" d="M204.6,187c0,0,15.7,9,19.1,19.7s9.7,50.6,9.7,50.6l6.1-1.9c0,0-4.1-45.7-10.6-52.3
			C218.6,187.1,208.6,186.7,204.6,187z"/>
		<path class="st5" d="M136.5,154.5l1.6,10.2c0,0,56.1,20.1,59.8,21.2s14.1,2,17.8,4.8c20.5,10.4,19.7,48.9,23,65.3l18.1-6.1
			l-15.8-104.3C179.7,187.4,212.9,176.1,136.5,154.5z"/>
		<path class="st20" d="M150.6,83.5c-0.3,0-0.5,0.1-0.7,0.2l0,0c-1.5,1.2-3.6,1.2-5.1,0c-0.1-0.6-0.1-1.1-0.3-1.7
			c0.8-0.3,1.6-0.3,2.3,0l0,0c0.2,0.1,0.4,0.1,0.6,0c0.5-0.2,0.8-0.9,0.5-1.4c-0.2-0.4-0.6-0.7-1.1-0.6c-0.2,0.1-0.3,0.1-0.5,0.3
			l0,0c-0.5,0.6-1.2,1.1-2,1.2c-0.2-0.6-0.4-1.2-0.7-1.8c0.7-1.8,2.6-2.8,4.4-2.6l0,0c0.2,0,0.5-0.1,0.7-0.2
			c0.7-0.4,0.9-1.3,0.5-1.9c-0.4-0.7-1.3-0.9-1.9-0.5l0,0c-0.2,0.1-0.4,0.3-0.5,0.5l0,0c-0.7,1.8-2.5,2.8-4.4,2.6
			c-0.8-1.2-1.8-2.2-3-3c-0.2-1.9,0.8-3.7,2.6-4.4l0,0c0.2-0.1,0.4-0.3,0.5-0.5c0.4-0.7,0.2-1.6-0.5-1.9c-0.7-0.4-1.6-0.2-1.9,0.5
			l0,0c-0.1,0.2-0.2,0.5-0.2,0.7l0,0c0.3,1.9-0.8,3.7-2.6,4.4c-0.5-0.2-0.9-0.4-1.4-0.5c-0.4-1.2,0.1-2.5,1.1-3.3l0,0
			c0.1-0.1,0.2-0.3,0.3-0.5c0.1-0.6-0.2-1.1-0.7-1.3s-1.1,0.2-1.3,0.7c-0.1,0.2-0.1,0.4,0,0.6l0,0c0.5,1.2,0.2,2.5-0.7,3.4
			c-0.4-0.1-0.9-0.1-1.3-0.2c-1.2-1.5-1.2-3.6,0-5.1l0,0c0.1-0.2,0.2-0.5,0.2-0.7c0-0.8-0.6-1.4-1.4-1.5c-0.8,0-1.4,0.6-1.5,1.4
			c0,0.3,0.1,0.5,0.2,0.8l0,0c1.2,1.5,1.2,3.6,0,5.1c-1.4,0.1-2.7,0.5-4,1.1c-1.8-0.7-2.8-2.6-2.6-4.4l0,0c0-0.2-0.1-0.5-0.2-0.7
			c-0.4-0.7-1.3-0.9-1.9-0.5c-0.7,0.4-0.9,1.3-0.5,1.9c0.1,0.2,0.3,0.4,0.5,0.5l0,0c1.8,0.7,2.8,2.5,2.6,4.4c-1.2,0.8-2.2,1.8-3,3
			c-1.9,0.3-3.8-0.8-4.5-2.6l0,0c-0.1-0.2-0.3-0.4-0.5-0.5c-0.7-0.4-1.6-0.2-1.9,0.5s-0.2,1.6,0.5,1.9c0.2,0.1,0.5,0.2,0.7,0.2l0,0
			c1.9-0.3,3.7,0.8,4.4,2.6c-0.3,0.6-0.5,1.3-0.7,1.9c-0.8-0.2-1.5-0.6-2-1.2l0,0c-0.1-0.1-0.3-0.2-0.5-0.3c-0.5-0.2-1.2,0-1.4,0.5
			c-0.2,0.5,0,1.2,0.5,1.4c0.1,0,0.2,0.1,0.3,0.1c0.2,0,0.4,0,0.5,0l0,0c0.8-0.3,1.6-0.3,2.3,0c-0.1,0.5-0.2,1.1-0.3,1.6
			c-1.5,1.2-3.6,1.2-5.1,0l0,0c-0.2-0.1-0.5-0.2-0.7-0.2c-0.8-0.1-1.5,0.5-1.5,1.3c-0.1,0.8,0.5,1.5,1.3,1.5c0.1,0,0.2,0,0.2,0
			c0.3,0,0.5-0.1,0.7-0.2l0,0c1.5-1.2,3.6-1.2,5.1,0c0.1,1.4,0.5,2.7,1.1,4c-0.7,1.8-2.6,2.8-4.4,2.6l0,0c-0.3,0-0.5,0.1-0.7,0.2
			c-0.7,0.4-0.9,1.3-0.5,1.9s1.3,0.9,1.9,0.5l0,0c0.2-0.1,0.4-0.3,0.5-0.5l0,0c0.7-1.8,2.5-2.8,4.4-2.6c0.3,0.4,0.6,0.8,1,1.2
			c-0.4,1.1-1.4,1.9-2.5,2.1l0,0c-0.2,0-0.3,0.1-0.5,0.3c-0.4,0.4-0.4,1-0.1,1.4c0,0,0,0,0.1,0.1c0.4,0.4,1,0.5,1.4,0.1
			c0.2-0.2,0.3-0.4,0.4-0.6l0,0c0.2-1.2,1-2.2,2.1-2.5c0.4,0.4,0.8,0.7,1.2,1c0.3,1.9-0.8,3.7-2.6,4.4l0,0c-0.2,0.1-0.4,0.3-0.5,0.5
			c-0.4,0.7-0.2,1.6,0.5,1.9c0.7,0.4,1.6,0.2,1.9-0.5l0,0c0.1-0.2,0.2-0.5,0.2-0.7l0,0c-0.3-1.9,0.8-3.7,2.6-4.4
			c1.3,0.6,2.6,0.9,4,1.1c1.2,1.5,1.2,3.6,0,5.1l0,0c-0.4,0.7-0.2,1.5,0.5,1.9c0.7,0.4,1.5,0.2,1.9-0.5c0.1-0.2,0.2-0.5,0.2-0.7
			c0-0.3-0.1-0.5-0.2-0.7l0,0c-1.2-1.5-1.2-3.6,0-5.1c1.4-0.1,2.8-0.5,4.1-1.1c1.8,0.7,2.8,2.6,2.6,4.4l0,0c0,0.2,0.1,0.5,0.2,0.7
			c0.4,0.7,1.3,0.9,1.9,0.5c0.7-0.4,0.9-1.3,0.5-1.9l0,0c-0.1-0.2-0.3-0.4-0.5-0.5l0,0c-1.8-0.7-2.8-2.5-2.6-4.4
			c1.2-0.8,2.2-1.8,3-3c1.9-0.3,3.7,0.8,4.4,2.6l0,0c0.1,0.2,0.3,0.4,0.5,0.5c0.7,0.4,1.6,0.2,1.9-0.5c0.4-0.7,0.2-1.6-0.5-1.9l0,0
			c-0.2-0.1-0.5-0.2-0.7-0.2l0,0c-1.9,0.3-3.7-0.8-4.4-2.6c0.2-0.5,0.4-1.1,0.6-1.6c0.8,0.1,1.6,0.6,2.1,1.2l0,0
			c0.1,0.1,0.3,0.2,0.5,0.3c0.5,0.2,1.1-0.1,1.3-0.6c0,0,0-0.1,0-0.1c0.1-0.6-0.2-1.1-0.8-1.3c-0.2,0-0.4,0-0.5,0l0,0
			c-0.8,0.3-1.6,0.3-2.4,0c0.2-0.6,0.3-1.3,0.3-1.9c1.5-1.2,3.6-1.2,5.1,0l0,0c0.2,0.1,0.5,0.2,0.7,0.2c0.8-0.1,1.4-0.8,1.3-1.5
			C151.8,84.1,151.3,83.5,150.6,83.5L150.6,83.5z M130.8,86.3c0.3,0,0.5,0.2,0.5,0.5s-0.2,0.5-0.5,0.5c-0.3,0-0.5-0.2-0.5-0.5
			C130.3,86.5,130.5,86.3,130.8,86.3L130.8,86.3z M122.3,81.1c0-0.3,0.2-0.5,0.5-0.5c0,0,0,0,0,0c0.3,0,0.5,0.2,0.5,0.5
			s-0.2,0.5-0.5,0.5C122.5,81.6,122.3,81.4,122.3,81.1C122.3,81.1,122.3,81.1,122.3,81.1z M126.2,92c-0.3,0-0.5-0.2-0.5-0.5
			c0,0,0,0,0,0c0-0.3,0.2-0.5,0.5-0.5c0,0,0,0,0,0c0.3,0,0.5,0.2,0.5,0.5c0,0,0,0,0,0C126.7,91.8,126.5,92,126.2,92L126.2,92z
			 M124.8,88.2c-1.1,0-1.9-0.9-1.9-1.9s0.9-1.9,1.9-1.9c1.1,0,1.9,0.9,1.9,1.9C126.7,87.3,125.8,88.1,124.8,88.2L124.8,88.2z
			 M128.7,82.8c-0.3,0-0.5-0.2-0.5-0.5l0,0c0-0.3,0.2-0.5,0.5-0.5c0,0,0,0,0,0c0.3,0,0.5,0.2,0.5,0.5c0,0,0,0,0,0
			C129.1,82.5,128.9,82.7,128.7,82.8L128.7,82.8z M127.9,80.3c-0.7,0-1.3-0.6-1.3-1.3s0.6-1.3,1.3-1.3s1.3,0.6,1.3,1.3
			C129.1,79.7,128.6,80.2,127.9,80.3L127.9,80.3z M130.8,92.3c-0.7,0-1.3-0.6-1.3-1.3s0.6-1.3,1.3-1.3s1.3,0.6,1.3,1.3
			C132,91.7,131.5,92.2,130.8,92.3L130.8,92.3z M133.1,84.1c-0.5,0-0.9-0.4-0.9-0.9s0.4-0.9,0.9-0.9c0.5,0,0.9,0.4,0.9,0.9
			c0,0,0,0,0,0C134,83.6,133.6,84,133.1,84.1L133.1,84.1z M134.5,95.2c-0.3,0-0.5-0.2-0.5-0.5s0.2-0.5,0.5-0.5
			c0.3,0,0.5,0.2,0.5,0.5C135,95,134.8,95.2,134.5,95.2L134.5,95.2z M134,80c-1.1,0-1.9-0.9-1.9-1.9s0.9-1.9,1.9-1.9
			c1.1,0,1.9,0.9,1.9,1.9C135.9,79.1,135.1,80,134,80C134,80,134,80,134,80z M136.3,92.9c-0.5,0-0.9-0.4-0.9-0.9
			c0-0.5,0.4-0.9,0.9-0.9c0.5,0,0.9,0.4,0.9,0.9C137.2,92.5,136.8,92.8,136.3,92.9L136.3,92.9z M137.2,86.8c-0.7,0-1.3-0.6-1.3-1.3
			s0.6-1.3,1.3-1.3s1.3,0.6,1.3,1.3C138.4,86.2,137.8,86.8,137.2,86.8L137.2,86.8z M138.9,91c-0.3,0-0.5-0.2-0.5-0.5
			s0.2-0.5,0.5-0.5s0.5,0.2,0.5,0.5S139.2,91,138.9,91z M138.9,81.1c-0.3,0-0.5-0.2-0.5-0.5l0,0c0-0.3,0.2-0.5,0.5-0.5c0,0,0,0,0,0
			c0.3,0,0.5,0.2,0.5,0.5c0,0,0,0,0,0C139.4,80.9,139.2,81.1,138.9,81.1L138.9,81.1z M141.6,84.4c-0.5,0-0.9-0.4-0.9-0.9
			s0.4-0.9,0.9-0.9s0.9,0.4,0.9,0.9l0,0C142.5,84,142.1,84.4,141.6,84.4C141.6,84.4,141.6,84.4,141.6,84.4L141.6,84.4z"/>
		<path class="st21" d="M16,413.2h20.1v8.6H4.6v-3.6c0-2.2,0.4-4.5,1.2-6.5c0.8-1.9,1.8-3.6,3.1-5.2c1.2-1.5,2.6-2.9,4.1-4.1
			c1.5-1.1,2.9-2.2,4.2-3.1s2.6-1.9,3.6-2.8c1-0.8,1.8-1.7,2.6-2.7c0.7-0.8,1.2-1.7,1.6-2.7c0.4-0.9,0.5-1.9,0.5-2.9
			c0.1-1.7-0.5-3.4-1.7-4.6c-1.1-1-2.9-1.6-5.3-1.6c-4.1,0-8,1.6-11.7,4.9v-9.2c4.2-2.7,9-4.1,13.9-4c2.2,0,4.4,0.3,6.5,0.9
			c1.8,0.6,3.4,1.5,4.8,2.7c1.3,1.2,2.3,2.6,3,4.3c0.7,1.8,1,3.7,1,5.6c0,2-0.3,4-1,5.8c-0.7,1.7-1.6,3.2-2.7,4.6
			c-1.1,1.4-2.4,2.7-3.8,3.8c-1.4,1.2-3,2.3-4.5,3.4c-1.1,0.7-2.1,1.5-3.1,2.2c-0.9,0.7-1.8,1.4-2.6,2.2c-0.7,0.6-1.3,1.3-1.8,2.1
			C16.2,411.9,16,412.5,16,413.2z"/>
		<path class="st20" d="M189.3,108.3c-0.3,0-0.5,0.1-0.7,0.2l0,0c-1.5,1.2-3.6,1.2-5.1,0c-0.1-0.6-0.1-1.1-0.3-1.7
			c0.8-0.3,1.6-0.3,2.3,0l0,0c0.2,0.1,0.4,0.1,0.6,0c0.5-0.2,0.8-0.9,0.5-1.4c-0.2-0.4-0.6-0.7-1.1-0.6c-0.2,0.1-0.3,0.1-0.5,0.3
			l0,0c-0.5,0.6-1.2,1.1-2,1.2c-0.2-0.6-0.4-1.2-0.7-1.8c0.7-1.8,2.6-2.8,4.4-2.6l0,0c0.2,0,0.5-0.1,0.7-0.2
			c0.7-0.4,0.9-1.3,0.5-1.9c-0.4-0.7-1.3-0.9-1.9-0.5l0,0c-0.2,0.1-0.4,0.3-0.5,0.5l0,0c-0.7,1.8-2.5,2.8-4.4,2.6
			c-0.8-1.2-1.8-2.2-3-3c-0.2-1.9,0.8-3.7,2.6-4.4l0,0c0.2-0.1,0.4-0.3,0.5-0.5c0.4-0.7,0.2-1.6-0.5-1.9c-0.7-0.4-1.6-0.2-1.9,0.5
			l0,0c-0.1,0.2-0.2,0.5-0.2,0.7l0,0c0.3,1.9-0.8,3.7-2.6,4.4c-0.5-0.2-0.9-0.4-1.4-0.5c-0.4-1.2,0.1-2.5,1.1-3.3l0,0
			c0.1-0.1,0.2-0.3,0.3-0.5c0.1-0.6-0.2-1.1-0.7-1.3s-1.1,0.2-1.3,0.7c-0.1,0.2-0.1,0.4,0,0.6l0,0c0.5,1.2,0.2,2.5-0.7,3.4
			c-0.4-0.1-0.9-0.1-1.3-0.2c-1.2-1.5-1.2-3.6,0-5.1l0,0c0.1-0.2,0.2-0.5,0.2-0.7c0-0.8-0.6-1.4-1.4-1.5c-0.8,0-1.4,0.6-1.5,1.4
			c0,0.3,0.1,0.5,0.2,0.8l0,0c1.2,1.5,1.2,3.6,0,5.1c-1.4,0.1-2.7,0.5-4,1.1c-1.8-0.7-2.8-2.6-2.6-4.4l0,0c0-0.2-0.1-0.5-0.2-0.7
			c-0.4-0.7-1.3-0.9-1.9-0.5c-0.7,0.4-0.9,1.3-0.5,1.9c0.1,0.2,0.3,0.4,0.5,0.5l0,0c1.8,0.7,2.8,2.5,2.6,4.4c-1.2,0.8-2.2,1.8-3,3
			c-1.9,0.3-3.8-0.8-4.5-2.6l0,0c-0.1-0.2-0.3-0.4-0.5-0.5c-0.7-0.4-1.6-0.2-1.9,0.5s-0.2,1.6,0.5,1.9c0.2,0.1,0.5,0.2,0.7,0.2l0,0
			c1.9-0.3,3.7,0.8,4.5,2.6c-0.3,0.6-0.5,1.3-0.7,1.9c-0.8-0.2-1.5-0.6-2-1.2l0,0c-0.1-0.1-0.3-0.2-0.5-0.3c-0.5-0.2-1.2,0-1.4,0.5
			c-0.2,0.5,0,1.2,0.5,1.4c0.1,0,0.2,0.1,0.3,0.1c0.2,0,0.4,0,0.5,0l0,0c0.8-0.3,1.6-0.3,2.3,0c-0.1,0.5-0.2,1.1-0.3,1.6
			c-1.5,1.2-3.6,1.2-5.1,0l0,0c-0.2-0.1-0.5-0.2-0.7-0.2c-0.8-0.1-1.5,0.5-1.5,1.3s0.5,1.5,1.3,1.5c0.1,0,0.2,0,0.2,0
			c0.3,0,0.5-0.1,0.7-0.2l0,0c1.5-1.2,3.6-1.2,5.1,0c0.1,1.4,0.5,2.7,1.1,4c-0.7,1.8-2.6,2.8-4.5,2.6l0,0c-0.3,0-0.5,0.1-0.7,0.2
			c-0.7,0.4-0.9,1.3-0.5,1.9s1.3,0.9,1.9,0.5l0,0c0.2-0.1,0.4-0.3,0.5-0.5l0,0c0.7-1.8,2.5-2.8,4.4-2.6c0.3,0.4,0.6,0.8,1,1.2
			c-0.4,1.1-1.4,1.9-2.5,2.1l0,0c-0.2,0-0.3,0.1-0.5,0.3c-0.4,0.4-0.4,1-0.1,1.4c0,0,0,0,0.1,0.1c0.4,0.4,1,0.5,1.4,0.1
			c0.2-0.2,0.3-0.4,0.4-0.6l0,0c0.2-1.2,1-2.2,2.1-2.5c0.4,0.4,0.8,0.7,1.2,1c0.3,1.9-0.8,3.7-2.6,4.4l0,0c-0.2,0.1-0.4,0.3-0.5,0.5
			c-0.4,0.7-0.2,1.6,0.5,1.9c0.7,0.4,1.6,0.2,1.9-0.5l0,0c0.1-0.2,0.2-0.5,0.2-0.7l0,0c-0.3-1.9,0.8-3.7,2.6-4.4
			c1.3,0.6,2.6,0.9,4,1.1c1.2,1.5,1.2,3.6,0,5.1l0,0c-0.4,0.7-0.2,1.5,0.5,1.9s1.5,0.2,1.9-0.5c0.1-0.2,0.2-0.5,0.2-0.7
			c0-0.3-0.1-0.5-0.2-0.7l0,0c-1.2-1.5-1.2-3.6,0-5.1c1.4-0.1,2.8-0.5,4.1-1.1c1.8,0.7,2.8,2.6,2.6,4.4l0,0c0,0.2,0.1,0.5,0.2,0.7
			c0.4,0.7,1.3,0.9,1.9,0.5c0.7-0.4,0.9-1.3,0.5-1.9l0,0c-0.1-0.2-0.3-0.4-0.5-0.5l0,0c-1.8-0.7-2.8-2.5-2.6-4.4
			c1.2-0.8,2.2-1.8,3-3c1.9-0.3,3.7,0.8,4.4,2.6l0,0c0.1,0.2,0.3,0.4,0.5,0.5c0.7,0.4,1.6,0.2,1.9-0.5c0.4-0.7,0.2-1.6-0.5-1.9l0,0
			c-0.2-0.1-0.5-0.2-0.7-0.2l0,0c-1.9,0.3-3.7-0.8-4.4-2.6c0.2-0.5,0.4-1.1,0.6-1.6c0.8,0.1,1.6,0.6,2.1,1.2l0,0
			c0.1,0.1,0.3,0.2,0.5,0.3c0.5,0.2,1.1-0.1,1.3-0.6c0,0,0-0.1,0-0.1c0.1-0.6-0.2-1.1-0.8-1.3c-0.2,0-0.4,0-0.5,0l0,0
			c-0.8,0.3-1.6,0.3-2.4,0c0.2-0.6,0.3-1.3,0.3-1.9c1.5-1.2,3.6-1.2,5.1,0l0,0c0.2,0.1,0.5,0.2,0.7,0.2c0.8-0.1,1.4-0.8,1.3-1.5
			C190.6,108.9,190.1,108.3,189.3,108.3L189.3,108.3z M169.6,111.1c0.3,0,0.5,0.2,0.5,0.5s-0.2,0.5-0.5,0.5c-0.3,0-0.5-0.2-0.5-0.5
			C169.1,111.3,169.3,111.1,169.6,111.1L169.6,111.1z M161.1,105.9c0-0.3,0.2-0.5,0.5-0.5c0,0,0,0,0,0c0.3,0,0.5,0.2,0.5,0.5
			s-0.2,0.5-0.5,0.5C161.3,106.4,161.1,106.2,161.1,105.9C161.1,105.9,161.1,105.9,161.1,105.9z M165,116.8c-0.3,0-0.5-0.2-0.5-0.5
			c0,0,0,0,0,0c0-0.3,0.2-0.5,0.5-0.5c0,0,0,0,0,0c0.3,0,0.5,0.2,0.5,0.5c0,0,0,0,0,0C165.5,116.6,165.3,116.8,165,116.8L165,116.8z
			 M163.5,113c-1.1,0-1.9-0.9-1.9-1.9s0.9-1.9,1.9-1.9c1.1,0,1.9,0.9,1.9,1.9C165.4,112.1,164.6,113,163.5,113L163.5,113z
			 M167.5,107.6c-0.3,0-0.5-0.2-0.5-0.5l0,0c0-0.3,0.2-0.5,0.5-0.5c0,0,0,0,0,0c0.3,0,0.5,0.2,0.5,0.5c0,0,0,0,0,0
			C167.9,107.4,167.7,107.6,167.5,107.6L167.5,107.6z M166.7,105.1c-0.7,0-1.3-0.6-1.3-1.3s0.6-1.3,1.3-1.3s1.3,0.6,1.3,1.3
			C167.9,104.5,167.4,105,166.7,105.1L166.7,105.1z M169.6,117.1c-0.7,0-1.3-0.6-1.3-1.3s0.6-1.3,1.3-1.3s1.3,0.6,1.3,1.3
			C170.8,116.5,170.3,117.1,169.6,117.1L169.6,117.1z M171.9,108.9c-0.5,0-0.9-0.4-0.9-0.9s0.4-0.9,0.9-0.9c0.5,0,0.9,0.4,0.9,0.9
			c0,0,0,0,0,0C172.7,108.5,172.4,108.8,171.9,108.9L171.9,108.9z M173.3,120c-0.3,0-0.5-0.2-0.5-0.5s0.2-0.5,0.5-0.5
			c0.3,0,0.5,0.2,0.5,0.5C173.8,119.8,173.6,120,173.3,120L173.3,120z M172.8,104.8c-1.1,0-1.9-0.9-1.9-1.9s0.9-1.9,1.9-1.9
			c1.1,0,1.9,0.9,1.9,1.9C174.7,103.9,173.9,104.8,172.8,104.8C172.8,104.8,172.8,104.8,172.8,104.8z M175.1,117.7
			c-0.5,0-0.9-0.4-0.9-0.9c0-0.5,0.4-0.9,0.9-0.9c0.5,0,0.9,0.4,0.9,0.9C175.9,117.3,175.6,117.7,175.1,117.7L175.1,117.7z
			 M175.9,111.6c-0.7,0-1.3-0.6-1.3-1.3s0.6-1.3,1.3-1.3s1.3,0.6,1.3,1.3C177.2,111.1,176.6,111.6,175.9,111.6L175.9,111.6z
			 M177.7,115.8c-0.3,0-0.5-0.2-0.5-0.5s0.2-0.5,0.5-0.5s0.5,0.2,0.5,0.5S178,115.8,177.7,115.8z M177.7,105.9
			c-0.3,0-0.5-0.2-0.5-0.5l0,0c0-0.3,0.2-0.5,0.5-0.5c0,0,0,0,0,0c0.3,0,0.5,0.2,0.5,0.5c0,0,0,0,0,0
			C178.2,105.7,177.9,105.9,177.7,105.9L177.7,105.9z M180.4,109.2c-0.5,0-0.9-0.4-0.9-0.9s0.4-0.9,0.9-0.9s0.9,0.4,0.9,0.9l0,0
			C181.2,108.8,180.8,109.2,180.4,109.2C180.4,109.2,180.4,109.2,180.4,109.2L180.4,109.2z"/>
		<g>
			<path class="st22" d="M272.7,356.8c0.1,1.6,0.2,3.2,0.2,4.9c0,38.8-32.3,61.8-73.6,64.4c-2.6,0.2-5.2,0.2-7.8,0.2
				s-5.3-0.1-7.8-0.2c-41.3-2.6-73.6-25.6-73.6-64.4c0-1.6,0.1-3.2,0.2-4.9C132.8,257.3,250.1,257.3,272.7,356.8L272.7,356.8z
				 M184.1,394.8L184.1,394.8h14.6l0,0H184.1L184.1,394.8z"/>
			<path class="st23" d="M154.2,292.8c0.4-13.8-9.1-25.9-17.4-29.8c-8.3-3.9-10.5-4.5-12.1-7.9c-1.6-3.4-13.4,24.1-2.9,45.2
				c10.6,21.1,10.2,19.9,10.2,19.9L154.2,292.8L154.2,292.8z"/>
			<path class="st24" d="M137.6,315.6l16.7-12.1c-2.6-3.3-16.2-28.9-21.1-32.9c-4.9-4-6.8-4.8-6.8-4.8s-0.4,3.5,0.6,6.2
				c0,0-2.7-0.7-3.3-2.4c-0.6-1.6-2.1,21.4,1.1,28.7C128.1,305.5,134.8,311.9,137.6,315.6L137.6,315.6z"/>
			<path class="st23" d="M228.7,292.8c-0.4-13.8,9.1-25.9,17.4-29.8c8.3-3.9,10.5-4.5,12.1-7.9c1.6-3.4,13.4,24.1,2.9,45.2
				c-10.6,21.1-10.2,19.9-10.2,19.9L228.7,292.8L228.7,292.8z"/>
			<path class="st24" d="M245.3,315.6l-16.7-12.1c2.6-3.3,16.2-28.9,21.1-32.9c4.9-4,6.8-4.8,6.8-4.8s0.4,3.5-0.6,6.2
				c0,0,2.7-0.7,3.3-2.4c0.6-1.6,2.1,21.4-1.1,28.7C254.8,305.5,248.1,311.9,245.3,315.6L245.3,315.6z"/>
			<path class="st25" d="M159.5,422c-28.9-8.5-44.7-20.3-57.2-48.7c7.7-11.2,23.2-35.6,39.8-40.3c16.6-4.7,31.6,10.6,30,24.4
				C170.4,371,123.5,393.9,159.5,422L159.5,422z"/>
			<path class="st25" d="M223.4,422c28.9-8.5,48.4-21.4,59.2-47.1c-6.6-9.9-25.2-37.2-41.8-41.9s-31.6,10.6-30,24.4
				C212.5,371,259.4,393.9,223.4,422L223.4,422z"/>
			<path class="st26" d="M112.6,347.6c12.5-40.8,42-62.5,72.6-65.2c5-0.4,10-0.3,15,0.3c29.7,3.5,57.9,25.2,70.1,64.9
				c-5.8-9.4-17-23.1-34.3-27.8c-19.4-5.2-30.6,10.7-36.3,28.9c-3.4,11.1-4.8,23-4.7,31.7c0,2.6-0.6,25.6-2.4,9.1l-1.1-4.7l-1.1,4.7
				c-1.9,16.4-2.5-6.5-2.4-9.1c0.1-8.9-1.4-21.3-5-32.6c-5.8-17.9-16.9-33.1-35.9-28C129.6,324.5,118.4,338.2,112.6,347.6
				L112.6,347.6z"/>
			<path class="st27" d="M131.5,311.5c0.4-0.5,0.8-1,1.2-1.5c2,7.8,1.7,9.8,1.7,9.8S133,315.9,131.5,311.5L131.5,311.5z M135.5,307
				c0.3-0.3,0.5-0.5,0.8-0.8c0.1,2-0.3,2.3-0.3,2.3S135.8,308.1,135.5,307L135.5,307z M144.1,299c0.5-0.4,1-0.8,1.5-1.2
				c0.5,2.6,1.2,6,1.9,10.2c1.1,5.9,1.5,9.3,1.6,11.2c-0.2,0-0.3,0.1-0.5,0.1c-1-3.7-3.2-12-4.2-18.1
				C144.3,300.5,144.2,299.7,144.1,299L144.1,299z M154.3,292.1c0.4-0.2,0.8-0.5,1.2-0.7c0.3,4.6,0,5.9,0,5.9
				S154.9,295.2,154.3,292.1L154.3,292.1z M170.2,285.3c0.5-0.1,1-0.3,1.5-0.4c0.4,3.7,0.7,7.6,0.7,10.3c0.2,7.2-1,8.1-1,8.1
				s-0.4-3.7-1-14.5C170.3,287.5,170.3,286.4,170.2,285.3L170.2,285.3z M175.1,284c0.6-0.1,1.3-0.3,1.9-0.4c0,9-1.4,10-1.4,10
				S175.4,291.1,175.1,284L175.1,284z M188.3,282.2h0.7c-0.1,3-0.2,5.3-0.2,6.1C188.8,288.3,188.6,285.5,188.3,282.2L188.3,282.2z
				 M192.7,282.2c0.6,0,1.1,0,1.7,0.1c-0.6,7.4-1.4,9.4-1.4,9.4S192.8,287.3,192.7,282.2L192.7,282.2z M199.1,282.6
				c0.4,0,0.8,0.1,1.1,0.1l0.4,0.1c-0.6,5.1-1.1,8.7-1.1,8.7S199,289.5,199.1,282.6L199.1,282.6z M205,283.4l0.3,0.1
				c-0.1,0.7-0.2,1.1-0.2,1.1S205,284.3,205,283.4L205,283.4z M211,284.8c0.3,0.1,0.7,0.2,1,0.3c-0.4,4.5-0.9,10.4-1.5,14.1
				c-1.1,6.8-2.4,7.6-2.4,7.6s0.3-3.4,1.6-13.7C210.2,289.7,210.6,287,211,284.8L211,284.8z M215.4,286.2c0.6,0.2,1.2,0.4,1.8,0.6
				l-0.2,0.9c-1.7,9-3.2,10-3.2,10S214.2,294.8,215.4,286.2L215.4,286.2z M227.4,291.5l0.1,0.1c-0.1,0.5-0.2,0.9-0.3,1.1
				L227.4,291.5L227.4,291.5z M231,293.6l0.5,0.3c-0.5,1.4-0.8,1.9-0.8,1.9S230.8,294.9,231,293.6L231,293.6z M235.4,296.5
				c0.3,0.2,0.7,0.5,1,0.7c-0.4,2.1-0.9,4.4-1.4,6c-1.2,3.8-2.5,4.2-2.5,4.2s0.4-2.1,1.9-7.7C234.7,298.5,235.1,297.4,235.4,296.5
				L235.4,296.5z M239.3,299.5c0.5,0.4,0.9,0.8,1.4,1.2l-0.4,1.4c-2.6,8.9-4.1,11.2-4.1,11.2S237.6,305.8,239.3,299.5L239.3,299.5z
				 M247.2,306.8c0.4,0.4,0.7,0.8,1.1,1.2c-0.1,0.4-0.3,0.7-0.4,1.1c-1.8,4.6-3.1,5.2-3.1,5.2S245.4,312.2,247.2,306.8L247.2,306.8z
				 M250.5,310.5c0.2,0.2,0.4,0.5,0.6,0.7c-1.2,2.8-1.8,3.6-1.8,3.6S249.8,313.1,250.5,310.5L250.5,310.5z M253.9,314.8l0.1,0.2
				c0.1,0.6,0,2.4-1.2,6c-0.1,0.4-1,2.7-2.2,5.6c-0.3-0.2-0.6-0.4-0.9-0.6C251.6,321.3,253.8,315,253.9,314.8L253.9,314.8
				L253.9,314.8z M253.9,328.9c-0.3-0.3-0.7-0.5-1-0.8c1.7-3.4,3-4.1,3-4.1S255.2,325.7,253.9,328.9L253.9,328.9z M246.7,324.1
				l-0.4-0.2c0.4-0.6,0.6-0.9,0.6-0.9S246.8,323.4,246.7,324.1L246.7,324.1z M242.7,322.2l-0.5-0.2c0.8-1.7,1.2-2.5,1.2-2.5
				S243.2,320.5,242.7,322.2L242.7,322.2z M239,320.7c-0.5-0.2-1.1-0.4-1.6-0.5c0.3-0.8,0.5-1.8,0.9-2.8c2.1-6.8,3.9-9.4,3.9-9.4
				S240.6,316,239,320.7L239,320.7z M233.5,319.2h-0.2c0.2-0.6,0.3-1,0.3-1S233.5,318.6,233.5,319.2L233.5,319.2z M230.3,318.8
				c-0.5,0-1,0-1.5,0c0.9-3.5,1.3-5.4,1.3-5.4S230.8,314.7,230.3,318.8L230.3,318.8z M221,320.2c-0.2,0.1-0.3,0.1-0.5,0.2l0.2-0.8
				C220.8,319.4,220.9,319.5,221,320.2L221,320.2z M210.7,327.5c-0.4,0.4-0.7,0.8-1,1.2c0.7-3.3,1.3-4.7,1.3-4.7
				S210.9,325.5,210.7,327.5L210.7,327.5z M205.6,334.8l-0.3,0.5c0.2-0.6,0.3-0.8,0.3-0.8V334.8L205.6,334.8z M200.9,345.3
				c-0.4,1.1-0.8,2.3-1.2,3.5c-0.3,0.9-0.6,1.8-0.8,2.8c0.1-1.3,0.2-2.5,0.4-3.6c0.6-3.8,1.8-4.5,1.8-4.5S201,344,200.9,345.3
				L200.9,345.3z M187.4,370c-0.2-1.8-0.4-3.6-0.7-5.5c0-3,0-7.5,0-7.7c0-0.2,0.9,0.7,1,3.8C187.7,361.2,187.5,367,187.4,370
				L187.4,370z M183.6,350.3c-0.2-0.8-0.5-1.7-0.8-2.5c-0.2-0.6-0.4-1.3-0.6-1.9c0-0.4,0-0.9,0-1.3c0.2-4.9,1.3-5.9,1.3-5.9
				s0.1,3.5,0.1,10C183.6,349.3,183.6,349.8,183.6,350.3L183.6,350.3z M179,338.2c-0.5-1-1-2-1.5-2.9c0-0.8-0.1-1.7-0.1-2.6
				c-0.3-8.1,0.4-11.4,0.4-11.4s1.2,10.8,1.2,16.2C179,337.7,179,337.9,179,338.2L179,338.2z M172.6,328.1c-0.1-0.2-0.3-0.3-0.4-0.5
				c-0.1-1.2-0.3-3.8-0.6-8.5c-0.4-6.8,0.5-9.5,0.5-9.5s1.6,9.1,1.6,13.6C173.7,326.3,173,327.6,172.6,328.1L172.6,328.1z
				 M168.1,323.7c-0.3-0.2-0.6-0.4-0.8-0.6c-0.2-2.1-0.3-3.1-0.3-3.1S167.6,321.5,168.1,323.7L168.1,323.7z M163.9,321.1
				c-0.6-0.3-1.1-0.5-1.7-0.8c-0.4-3.4-0.6-5.1-0.6-5.1S162.8,316.5,163.9,321.1L163.9,321.1z M144.3,320.6l-0.2,0.1
				c-0.2-0.6-0.8-3.2-2-9c-1.4-6.7-1.2-9.3-1.2-9.3s2.8,8.9,3.5,13.4C144.9,318.9,144.5,320.1,144.3,320.6L144.3,320.6z
				 M140.2,322.2c-0.5,0.2-1,0.5-1.6,0.7c-1.4-5.9-1-8.2-1-8.2S139,318.4,140.2,322.2L140.2,322.2z M134.6,325L134.6,325l-0.2-0.4
				C134.4,324.6,134.5,324.8,134.6,325L134.6,325z M131.9,326.8c-0.5,0.3-0.9,0.7-1.4,1c-1.6-5.1-2.4-7.8-2.4-7.8
				S129.9,321.5,131.9,326.8L131.9,326.8z M193.8,372.7c0,0-0.6-1.5-0.3-6.8c0.3-5.3,0.5-8.1,0.5-8.1s1.1,1,1,5
				C195,366.7,193.8,372.7,193.8,372.7L193.8,372.7z M194.1,375.1c0,0-0.6,0.8-0.8,2.9s-0.2,2.9-0.2,2.9s0.7-0.2,1-1.7
				C194.4,377.8,194.1,375.1,194.1,375.1L194.1,375.1z M207.6,312.9c0,0-1.3,2.5-2.2,9c-0.8,6.5-1,8.9-1,8.9s1.4-0.6,2.2-4.9
				C207.5,321.6,207.6,312.9,207.6,312.9L207.6,312.9z M200.1,338c0,0-0.4-1.6,0-7s0.7-8.1,0.7-8.1s0.6,3.5,0.4,7.4
				C201.1,334.1,200.1,338,200.1,338L200.1,338z M196,341.9c0,0-0.7-2.2-0.3-10.7s0.8-13,0.8-13s1.3,1.7,1.2,8.1
				C197.6,332.6,196,341.9,196,341.9L196,341.9z M196.3,345.6c0,0-0.7,1.1-1,4.3s-0.3,4.4-0.3,4.4s0.9-0.3,1.3-2.5
				C196.7,349.7,196.3,345.6,196.3,345.6L196.3,345.6z M199.8,297.8c0,0-1,2-1.4,7.3c-0.4,5.4-0.5,7.4-0.5,7.4s1.2-0.5,1.7-4.1
				C200.2,304.8,199.8,297.8,199.8,297.8L199.8,297.8z M229.4,301.1c0,0-1.3,2.1-2.5,7.6c-1.3,5.5-1.6,7.5-1.6,7.5s1.2-0.5,2.3-4.2
				C228.6,308.3,229.4,301.1,229.4,301.1L229.4,301.1z M225.6,296.5c0,0-1.2,2-2.4,7.4c-1.1,5.4-1.4,7.4-1.4,7.4s1.2-0.5,2.2-4.1
				S225.6,296.5,225.6,296.5L225.6,296.5z M215.1,300.7c0,0-1.2,2.6-2.3,9.2c-1,6.6-1.3,9.1-1.3,9.1s1.2-0.6,2.1-5
				C214.5,309.5,215.1,300.7,215.1,300.7L215.1,300.7z M202.7,318c0,0,1.1-2.2,2.1-10.7c1-8.6,1.3-13.1,1.3-13.1s-1.6,1.3-2.5,7.7
				C202.7,308.2,202.7,318,202.7,318L202.7,318z M216.1,319.5c0,0,1.3-2.5,3.3-13.2c2-10.6,2.9-16.5,2.9-16.5s-1.7,1.8-3.4,9.7
				C217.2,307.6,216.1,319.5,216.1,319.5L216.1,319.5z M189.7,375c0,0-0.6,0.8-0.7,3.1c-0.1,2.3-0.1,3.2-0.1,3.2s0.7-0.2,1-1.8
				C190.1,377.9,189.7,375,189.7,375L189.7,375z M189.9,372.9c0,0,0.7-1.1,0.9-4.8c0.2-3.7,0.3-5.5,0.3-5.5s-1,0.5-1.3,3.2
				C189.4,368.5,189.9,372.9,189.9,372.9L189.9,372.9z M187.2,316.5c0-0.4,1.1,1.2,1.3,6.2c0,1-0.4,15.7-0.5,17.5
				c0,0-0.5-4.4-0.7-7.1C187.2,332.9,187.2,316.9,187.2,316.5L187.2,316.5z M190.9,345.4c0,0-0.7,1.2-0.9,4.7
				c-0.2,3.4-0.2,4.7-0.2,4.7s0.9-0.3,1.2-2.6C191.3,349.8,190.9,345.4,190.9,345.4L190.9,345.4z M187.2,342.6c0,0-0.7,1.2-0.8,4.5
				c-0.1,3.3,0,4.6,0,4.6s0.9-0.3,1.2-2.6C187.7,346.9,187.2,342.6,187.2,342.6L187.2,342.6z M182.9,324.8c0,0-0.7,1.5-0.7,5.6
				s0.1,5.7,0.1,5.7s1-0.4,1.2-3.1C183.7,330.1,182.9,324.8,182.9,324.8L182.9,324.8z M191.1,342.1c0,0,0.8-1.6,1.2-7.4
				c0.3-5.8,0.4-8.8,0.4-8.8s-1.3,0.9-1.7,5.1C190.6,335.3,191.1,342.1,191.1,342.1L191.1,342.1z M160.9,293.6c0,0-0.6,2.1,0,7.8
				s0.9,7.8,0.9,7.8s1.1-0.5,1-4.3C162.6,301.1,160.9,293.6,160.9,293.6L160.9,293.6z M192.7,297.2c0,0-0.9,2.1-1.2,7.9
				c-0.3,5.8-0.3,7.9-0.3,7.9s1.1-0.5,1.6-4.4C193.2,304.8,192.7,297.2,192.7,297.2L192.7,297.2z M187.8,292.3c0,0-0.9,2.1-1,7.7
				c-0.1,5.7-0.1,7.8-0.1,7.8s1.2-0.4,1.5-4.3C188.6,299.8,187.8,292.3,187.8,292.3L187.8,292.3z M177.5,296.8c0,0-0.8,2.7-0.6,9.7
				s0.4,9.5,0.4,9.5s1.1-0.6,1.2-5.3C178.7,306,177.5,296.8,177.5,296.8L177.5,296.8z M167.9,314.9c0,0,0.7-2.2,0-11.3
				c-0.7-9-1.2-13.8-1.2-13.8s-1.4,1.4-1.1,8.1C166,304.7,167.9,314.9,167.9,314.9L167.9,314.9z M182.3,316.6c0,0,0.9-2.6,0.9-13.8
				s-0.2-17.4-0.2-17.4s-1.5,1.9-1.7,10.3C181.1,304.1,182.3,316.6,182.3,316.6L182.3,316.6z M156.1,302.7c0,0-0.5,2.1,0.2,7.6
				c0.8,5.5,1.2,7.6,1.2,7.6s1.1-0.5,0.8-4.2C158,310,156.1,302.7,156.1,302.7L156.1,302.7z M150.4,298.1c0,0-0.5,2,0.3,7.4
				c0.9,5.5,1.3,7.5,1.3,7.5s1.1-0.5,0.8-4.1C152.4,305.2,150.4,298.1,150.4,298.1L150.4,298.1z"/>
			<path class="st28" d="M183.7,282.6c0.5-0.1,1-0.1,1.5-0.1c5-0.4,10-0.3,15,0.3c0.9,0.1,1.8,0.2,2.7,0.4
				c-2.2,21.1-4.7,44.6-3.2,65.6l0,0c-3.4,11.1-4.8,23-4.7,31.7c0,2.6-0.6,25.6-2.4,9.1l-1.1-4.7l-1.1,4.7
				c-1.9,16.4-2.5-6.5-2.4-9.1c0.1-8.9-1.4-21.3-5-32.6C186.6,327.7,186.1,303,183.7,282.6L183.7,282.6z"/>
			<path class="st29" d="M145,349c2.9,0,5.4,2.8,5.4,6.2c0,3.4-2.4,6.2-5.4,6.2s-5.4-2.8-5.4-6.2C139.6,351.8,142,349,145,349
				L145,349z"/>
			<path class="st29" d="M239.1,349c3.9,0,7.2,3.1,7.2,7c0,3.8-3.2,7-7.2,7s-7.2-3.1-7.2-7C232,352.1,235.2,349,239.1,349L239.1,349
				z"/>
			<path class="st30" d="M148.9,351.8c1.1,0,2,0.9,2,2s-0.9,2-2,2s-2-0.9-2-2C146.8,352.7,147.7,351.8,148.9,351.8L148.9,351.8z
				 M146.3,356.4c0.6,0,1,0.5,1,1c0,0.6-0.5,1-1,1s-1-0.5-1-1S145.8,356.4,146.3,356.4L146.3,356.4z"/>
			<path class="st30" d="M240.2,351.8c1.1,0,2,0.9,2,2s-0.9,2-2,2s-2-0.9-2-2C238.2,352.7,239.1,351.8,240.2,351.8L240.2,351.8z
				 M237.7,356.4c0.6,0,1,0.5,1,1c0,0.6-0.5,1-1,1s-1-0.5-1-1S237.1,356.4,237.7,356.4L237.7,356.4z"/>
			<path class="st29" d="M191.4,396.4c6,0,10.9-5.7,10.9-11.1s-5.9-5.3-11.9-5.3s-9.9-0.1-9.9,5.3S185.4,396.4,191.4,396.4
				L191.4,396.4z"/>
			<path class="st31" d="M189.8,411.4l0.5-31.3l2.5,3.4l1,27.7c9.6-0.9,14.2-7.8,17.6-1.7c-20.9,12.1-38.4,1.8-38.4,1.8
				C176.8,404.7,178.5,411.3,189.8,411.4L189.8,411.4z"/>
			<path class="st30" d="M209.9,390.7c0,0,26.3-13.6,64.7-15.1c-27.9,0.4-42.2,4.5-67.5,14.5L209.9,390.7L209.9,390.7z M211.1,397.1
				c0,0,29.6,1.3,63.7,19.1c-24.4-13.6-38.8-17.1-65.8-21L211.1,397.1L211.1,397.1z M209.5,393.9c0,0,28.9-6.4,66.4,2.1
				c-27-6.8-41.9-6.5-69-3.3L209.5,393.9L209.5,393.9z"/>
			<path class="st30" d="M171,390.7c0,0-26.3-13.6-64.7-15.1c27.9,0.4,42.2,4.5,67.5,14.5L171,390.7L171,390.7z M169.8,397.1
				c0,0-29.6,1.3-63.7,19.1c24.4-13.6,38.8-17.1,65.8-21L169.8,397.1L169.8,397.1z M171.5,393.9c0,0-28.9-6.4-66.4,2.1
				c27-6.8,41.9-6.5,69-3.3L171.5,393.9L171.5,393.9z"/>
		</g>
	</g>
</g>
</svg>
