<?xml version="1.0" encoding="utf-8"?>
<!-- Generator: Adobe Illustrator 24.1.3, SVG Export Plug-In . SVG Version: 6.00 Build 0)  -->
<svg version="1.1" id="Layer_1" xmlns="http://www.w3.org/2000/svg" xmlns:xlink="http://www.w3.org/1999/xlink" x="0px" y="0px"
	 viewBox="0 0 291 431" style="enable-background:new 0 0 291 431;" xml:space="preserve">
<style type="text/css">
	.st0{clip-path:url(#SVGID_2_);}
	.st1{fill:#CED5DC;}
	.st2{fill:#BEC8D2;}
	.st3{fill:#8895A7;}
	.st4{fill:#071E31;}
	.st5{fill:#E1E7EC;}
	.st6{fill:#8C002C;}
	.st7{fill:#F9B49C;}
	.st8{fill:#E2806A;}
	.st9{fill:#C16534;}
	.st10{fill:none;stroke:#C16534;stroke-linecap:round;stroke-miterlimit:10;}
	.st11{fill:#F1A385;}
	.st12{fill:#1C77C3;}
	.st13{fill:#FCD4C0;}
	.st14{fill:#77ADDB;}
	.st15{fill:#E11E19;}
	.st16{fill:#231F20;}
	.st17{fill:none;stroke:#231F20;stroke-miterlimit:10;}
	.st18{fill:#5A5959;}
	.st19{fill:url(#SVGID_3_);}
	.st20{fill:#FFFFFF;}
	.st21{fill:#B7B7B7;}
	.st22{fill-rule:evenodd;clip-rule:evenodd;fill:#B2C5D1;}
	.st23{fill-rule:evenodd;clip-rule:evenodd;fill:#AFBBC6;}
	.st24{fill-rule:evenodd;clip-rule:evenodd;fill:#E11E19;}
	.st25{fill-rule:evenodd;clip-rule:evenodd;fill:#CED5DC;}
	.st26{fill-rule:evenodd;clip-rule:evenodd;fill:#6B737F;}
	.st27{fill-rule:evenodd;clip-rule:evenodd;fill:#C7C1C5;}
	.st28{fill-rule:evenodd;clip-rule:evenodd;fill:#303947;}
	.st29{fill-rule:evenodd;clip-rule:evenodd;fill:#370A06;}
	.st30{fill-rule:evenodd;clip-rule:evenodd;fill:#FFFFFF;}
	.st31{fill:#370A06;}
	.st32{fill:#50A06E;}
</style>
<g>
	<defs>
		<rect id="SVGID_1_" width="291" height="431"/>
	</defs>
	<clipPath id="SVGID_2_">
		<use xlink:href="#SVGID_1_"  style="overflow:visible;"/>
	</clipPath>
	<g class="st0">
		<path class="st1" d="M172.9,237.6l4.2-0.5c0,0-8.1-56.8-16.3-59.3s-9.7,1.6-9.7,1.6s2.8,5.1,6.3,10.3c5.3,7.8,7.6,25.4,10.9,37.4
			c0.2,0.8,0.1,9.3,0.1,9.3L172.9,237.6z"/>
		<path class="st2" d="M157.6,183.5c0,0,15.2,30.3,14.6,53.3c0.4,1,2.2,0.7,2.2,0.7s-3.6-25.1-6-32.8s-5.9-16.9-7.9-19.3
			S157.6,183.5,157.6,183.5z"/>
		<path class="st3" d="M158.6,168.2c0,0,9.4,29.9,10.2,33.3s5.3,22.5,6,25.6c0.6,3.3,1,6.7,1.2,10.1l12.3-3.3c0,0,0.5-0.3-1.5-2.9
			s-0.4-6.4-1.8-6.6s-13.7-59.3-13.7-59.3L158.6,168.2z"/>
		<path class="st4" d="M170.4,165.4l8.1,56.7l2.5-0.6l0.6,4.2c0,0,2.3-0.3,2.9,1c0.5,1.4,0.8,2.9,1,4.4l1.2,1.2c0,0,0.8,0,0.8,1.2
			s10.3-3.6,10.3-3.6l39.5,19.1l-7.4-72.8L174.1,162l0.3,2.9L170.4,165.4z"/>
		<path class="st5" d="M168.3,230.9c0,0-18.3,10.4-20.1,11.3c-3,1.6-4.2,5.3-2.7,8.3c0.2,0.3,0.4,0.7,0.6,0.9
			c2.3,2.9,50.8,32.8,50.8,32.8s7.6,5,16.1,3.1c20.7-4.3,41-10.2,60.8-17.8c3.6-1.4,11.1-9.6,12.4-17.5s-6.5-77.6-7.1-78.5
			c-2.2-16.7-17.6-22.7-31.7-23.5c-0.4,0-41.8-7.1-44-7.4s-8.2,4-7.5,4.5s61.2,13.4,62.4,13.7s10,3.1,12.3,11.1
			c1.1,4.9,5.2,40.3,5.2,41s1.6,3.3,1.6,3.3s3,33.9,2.3,35s-3.8,10.1-13.8,13c-24.8,8.2-37.9,14.7-59.6,15.3
			c-4,0.1-54.4-32.4-54.4-32.4s17.9-10,18.7-10.1S170.5,231.3,168.3,230.9z"/>
		<path class="st4" d="M41.3,200.1c-8.8,1.8-15.9,10.2-25.1,9.6S0.8,199.4,5.6,191.2c4.4-7.5,14.7-12.4,23-13.5
			c5.3-0.8,10.3,0.3,15.5,1.3c3.3,0.6,8.5-0.8,11.3,0.7c4.8,2.6,4.8,8.7,2.3,12.9C54.1,198.5,47.5,198.8,41.3,200.1z"/>
		<path class="st6" d="M48.5,177.1c-1,0.4-1.6,1.5-1.2,2.5l5.6,16c0.4,1,1.5,1.6,2.5,1.2l0,0c1-0.4,1.6-1.5,1.2-2.5l-5.6-16
			C50.7,177.3,49.6,176.7,48.5,177.1z"/>
		<path class="st7" d="M84.4,250.1l7-45.6l-13.2-6.8l-18.5,36.1C59.7,233.8,84.8,240.7,84.4,250.1z"/>
		<path class="st7" d="M63.3,190.3c-1.4-4.7-2-9.7-1.6-14.6c0.5-5.3-0.3-11.6,0.6-16.7c2-11,13.6-17.4,24.1-17
			c17,0.6,38.5,12,38.7,30.5c0,4.2-0.1,8.5,0.3,12.7c0.2,1.4-0.1,3.6,0.3,4.9c0.4,1.6,2.3,2.4,2.6,4c0.2,1.2-0.8,2.5-1.3,3.4
			c-2.4,4.4-4.2,11-7.6,14.4c-5.1,5.2-13.1,7.8-20.3,9.3c-10.8,2.2-10.7,1.4-18.9-5.2C72.2,209.3,66.3,200.3,63.3,190.3z"/>
		<path class="st4" d="M125.7,155c-3.3-4.3-7.4-7.9-12-10.6c-16.3-9.4-40.1-18.3-56-4.1c-13.5,12.1-12.5,31-4.6,45.8
			c3.8,7.1,14.2,27,21.9,12.7c3.8-7,7.5-15.7,14.4-20.3c9.6-6.4,23.4-7.4,34.3-3.7c2.1,0.7,2.8,1.9,5,0.3c4.5-3.2,2.5-11.4,0.5-15.1
			C128.1,158.3,127,156.6,125.7,155z"/>
		<path class="st7" d="M92.8,177.5c-3.1-7.1-13-11.8-16.7-2.3c-2.6,6.5,4.7,21.7,12.9,20.7"/>
		<path class="st8" d="M86.3,187.2L86.3,187.2c0.3,0.1,0.5,0,0.5-0.2c0,0,0,0,0,0c0.8-2.7,1.1-8.1-1.6-10.7
			c-0.2-0.1-0.4-0.1-0.5,0.1c-0.1,0.1-0.1,0.3,0,0.5c2.3,2.3,2.3,7.2,1.4,10C86.1,186.9,86.2,187.1,86.3,187.2z"/>
		<path class="st4" d="M114.4,182.7c1.3,0.5,1.9-1.1,2.8-1.6c1.5-0.8,1.6-0.6,3.4-0.4c0.9,0.1,2.6,1,3.2-0.2s-1.6-2.4-2.4-2.7
			c-1.9-0.6-4-0.4-5.8,0.5C114.3,178.9,112.1,181.8,114.4,182.7z"/>
		<path class="st4" d="M121.5,187.9c-1.6-2-3.5-0.9-5-0.1C116.5,184.6,121.3,184.1,121.5,187.9z"/>
		<path class="st9" d="M86,221.6l1,0.7c0.2,0.1,0.4,0.1,0.5,0c0.1-0.2,0.1-0.4,0-0.5c0,0-0.1,0-0.1-0.1c-0.1-0.1-9.9-6.2-13.2-11.1
			c-0.1-0.2-0.3-0.2-0.5-0.1c-0.2,0.1-0.2,0.3-0.1,0.5C76.3,215.1,83.3,219.9,86,221.6z"/>
		<path class="st9" d="M112.6,217.9c0.3-0.1,0.6-0.2,0.8-0.4c0-0.1-0.3-0.1-0.4-0.2s-10.7-3.6-13.2-11.1c-0.1-0.2-0.3-0.2-0.5-0.1
			c-0.2,0.1-0.2,0.3-0.1,0.5C101.4,212.9,109.9,217.4,112.6,217.9z"/>
		<path class="st10" d="M97.3,204.8c0.6,0.6,1.6,0.7,2.3,0.3c0.5-0.4,0.8-1,0.8-1.6"/>
		<path class="st11" d="M174.6,243.9c0,0,11.8-17.1,17.7-21.4c5.7-4.2,6.9-2.7,2,4.7l6.3-3.6c3-1.7,10.5-3,4.5,0.9
			c3.3-2.1,6.4-3.1,7.1-2c1.5,2.4-6.6,7.8-6.6,7.8s4.8-4.7,2,1.1s-10.2,11.8-10.2,11.8s6.4-4.9-1,4.1c-4.1,5-18.6,8-18.6,8
			L174.6,243.9z"/>
		<path class="st12" d="M121.2,305.9c-1-0.6-1.9-1.3-2.8-1.9c-8-5.5-15.4-12-21.9-19.2c-5.9-6.6-11-13.9-15.3-21.7
			c-2.2-4-4-8.2-5.8-12.4c-1.8-4.4-3.6-8.8-5-13.3c-0.9-2.7-1.6-5.4-2.2-8.1c3.4-3,5.2,0,9.1-0.8c19.7-3.9,29.1,6.2,67.6,41
			c0,0,9.9-6.7,29.6-25.5l18.7,11.9c0,0-14.2,25.5-25.8,45.9s-46.4,3.5-46.4,3.5L121.2,305.9z"/>
		<path class="st13" d="M193.1,258.4c0,0,15.5-10.6,21.1-15.5c5.1-4.4,0.9-4-5.8-3.6l9-5.3c0,0,3.8-4.1-1.5-3.7
			c2.6-0.2,3.3-2.8,2.4-3.8c-1.6-1.9-8.7,1.7-8.7,1.7s3.4-1.3,2.1-2.7c-1-1.1-3-0.6-4.7,0.6c-6.2,3.5-11.8,7-11.8,7s3-2.3,1.6-3.1
			c-1.9-1.1-3.1,0.9-6.5,2.6c-5.9,2.9-11.6,16.7-11.6,16.7L193.1,258.4z"/>
		<path class="st12" d="M92.8,298.6c0.2,0,0.4-0.2,0.4-0.4c0-0.1,0-0.2-0.1-0.2l-10.5-12.7c-0.1-0.1-0.4-0.1-0.5,0
			c-0.1,0.1-0.1,0.4,0,0.5l10.5,12.7C92.6,298.6,92.7,298.6,92.8,298.6z"/>
		<path class="st8" d="M190.9,245c0.1,0,0.2,0,0.3-0.1c6.8-7.6,15.2-5.1,15.2-5c0.2,0.1,0.4,0,0.5-0.2c0.1-0.2,0-0.4-0.2-0.5
			c-1.7-0.5-3.5-0.6-5.3-0.4c-4.2,0.4-8,2.5-10.7,5.6c-0.1,0.1-0.1,0.4,0,0.5c0,0,0,0,0,0C190.7,245,190.8,245,190.9,245z"/>
		<path class="st8" d="M206.5,238.1c0.1,0,0.3-0.1,0.3-0.2c0.1-0.2,0-0.4-0.1-0.5c0,0,0,0,0,0l-8.3-4.4c-0.2-0.1-0.4,0-0.5,0.2
			c-0.1,0.2,0,0.4,0.1,0.5l8.3,4.4C206.4,238.1,206.5,238.1,206.5,238.1z"/>
		<path class="st8" d="M204.6,237.1c0.1,0,0.1,0,0.2,0l11.5-6.3c0.2-0.1,0.2-0.3,0.1-0.5c-0.1-0.2-0.3-0.2-0.5-0.1l-11.5,6.3
			c-0.2,0.1-0.2,0.3-0.2,0.5c0,0,0,0,0,0C204.4,237.1,204.5,237.1,204.6,237.1z"/>
		<path class="st8" d="M200.6,235c0.1,0,0.1,0,0.2,0l10.7-6.3c0.2-0.1,0.2-0.3,0.1-0.5c0,0,0,0,0,0c-0.1-0.2-0.3-0.2-0.5-0.1
			l-10.7,6.3c-0.2,0.1-0.2,0.3-0.1,0.5c0,0,0,0,0,0C200.4,235,200.5,235,200.6,235z"/>
		<path class="st14" d="M178.8,249.3c-22.4,21.4-33.7,29-33.7,29c-38.8-47.1-52.4-56.7-74.8-52.3c-26,5.1-42,59.4-49.4,91.9
			c14-4.5,33.7-4.8,54.5,0.2c19.1,4.5,35.4,12.5,46.1,21.7l-3.6-20.7c0,0,39.6,19.2,52.8-4s29.4-52.2,29.4-52.2L178.8,249.3z"/>
		<path class="st4" d="M54.4,196.1c2.9-1.7,5.6-3.6,8.1-5.7c2.4-2,4.7-2.8,7.8-1.3c4,2,3.3,5,3.7,8.7c0.6,6-3.5,11.3-7.8,14.9
			c-6,5.1-5.3,13.2-10.5,19.3c-9.6,11.2-30.3,7.3-30.7-9.2c-0.3-12.4,13.4-18.7,22.8-23.3C50.3,198.4,52.4,197.3,54.4,196.1z"/>
		<path class="st15" d="M61.3,188.4c-0.8,0.8-0.8,2,0,2.8l12.1,12c0.8,0.8,2,0.8,2.8,0l0,0c0.8-0.8,0.8-2,0-2.8c0,0,0,0,0,0
			l-12.1-12C63.3,187.6,62,187.6,61.3,188.4C61.3,188.4,61.3,188.4,61.3,188.4L61.3,188.4z"/>
		<path class="st12" d="M117.9,319.4c0.1,0,0.2-0.1,0.3-0.1c0.1-0.2,0.1-0.4-0.1-0.5c-0.2-0.2-23.8-18.8-34.7-36.9
			c-0.1-0.2-0.3-0.3-0.5-0.2c-0.2,0.1-0.3,0.3-0.2,0.5c0,0,0,0,0,0.1c10.9,18.2,34.6,36.9,34.9,37.1
			C117.8,319.4,117.9,319.4,117.9,319.4z"/>
		<path class="st12" d="M151.5,304.4L151.5,304.4c0.2,0,0.3-0.2,0.3-0.4c0-0.1-1.4-13.8-6.4-25.9c-0.1-0.2-0.3-0.3-0.5-0.2
			c-0.2,0.1-0.3,0.3-0.2,0.5c5,11.9,6.4,25.5,6.4,25.6C151.2,304.2,151.3,304.4,151.5,304.4z"/>
		<path class="st12" d="M153.7,305.5L153.7,305.5c0.3,0,0.4-0.2,0.4-0.4c0,0,0,0,0,0c-0.2-1.4-0.4-2.9-0.6-4.3
			c-0.2-2.9-0.8-5.8-1.6-8.6c-0.1-0.2-0.3-0.3-0.5-0.2c0,0,0,0,0,0c-0.2,0.1-0.3,0.3-0.2,0.4c0,0,0,0,0,0c0.8,2.8,1.4,5.6,1.6,8.5
			c0.2,1.4,0.3,2.9,0.6,4.4C153.4,305.3,153.6,305.5,153.7,305.5z"/>
		<path class="st16" d="M214.2,152.2c-1.4-1.8-1-9.1,2.4-9s23.1,3.8,31.6,5.2c0.6,0.4,1.1,0.9,1.6,1.4c-1.6-0.3-3.3,0.4-4.2,1.8
			c-1.1,1.8-1,4.1,0.1,5.9C247.1,159.2,214.2,152.2,214.2,152.2z"/>
		<path class="st1" d="M248.6,160l8.6,0.3c0,0,12.4,56.8,19.3,53.4c0.3-0.1,2,2.2,2,2.9s2.5,33.7,2.2,34.8s-5.6,11.3-16.4,13.7
			C263.3,257.4,248.6,160,248.6,160z"/>
		<path class="st3" d="M174.8,145c2.3-0.4,4.7-0.7,7.1-0.7c2.7,0.1,75.3,16,75.3,16l-8.5,0.1L174.8,145z"/>
		<path class="st17" d="M233.1,160.4c0,0-30.4,16.7-36.3,22.3c-0.6,0.6-1,1.1-1,1.4C195.7,187.3,233.1,160.4,233.1,160.4z"/>
		<path class="st1" d="M171,144c0,0-15,3.6-22,14.4c-6.5,10.1-4.9,10.9-4.9,10.9l6.4,2.4c0,0,51.8,18.6,54.2,18.2s7.5-3.8,10.4-6
			c2.5-1.9,33.1-23.2,33.5-23.4S171,144,171,144z M201,179.3c-0.6,0.5-1.5,0.7-2.2,0.4l-38.7-11.5l12.3-2.9l3.1,0.4l0.5-2.9l34,8.9
			L201,179.3z"/>
		<path class="st2" d="M166.5,151.2l7.2,13.8l-21.6,2.3C152.2,167.4,157.9,155.5,166.5,151.2z"/>
		<path class="st2" d="M168.4,152.2l54.5,12.4c0,0-12.4,7.1-12.7,7.6s-35.8-9.1-35.8-9.1L168.4,152.2z"/>
		<path class="st5" d="M150.8,167.5c0,0,8.9-17.8,16-17.6C161,155.4,155.7,161.3,150.8,167.5z"/>
		<path class="st5" d="M166.9,151.5c0,0,5.9,13,6.8,13.5s1.8,0,1.1-1.4c-0.4-0.9-7.4-12.7-7.4-12.7L166.9,151.5z"/>
		<path class="st5" d="M167.4,151c0,0,57.6,11.8,58.1,12.3s-2.5,1.9-2.5,1.9l-55.7-13L167.4,151z"/>
		<path class="st5" d="M243.7,160.7c0,0-29.7,19.4-33.5,22.3c-6.7,5.1-8.4,3.1-11.9,3.4c3.7,2.5,6.8,1.7,10.6-0.7
			c5.1-3.1,32.4-23.6,37.4-24.4C246.8,161.1,243.7,160.7,243.7,160.7z"/>
		<ellipse class="st18" cx="255.1" cy="166.3" rx="2" ry="1.8"/>
		
			<linearGradient id="SVGID_3_" gradientUnits="userSpaceOnUse" x1="186.2247" y1="158.3897" x2="191.1247" y2="241.9197" gradientTransform="matrix(1 0 0 -1 0 432)">
			<stop  offset="3.000000e-02" style="stop-color:#FFFFFF;stop-opacity:0"/>
			<stop  offset="0.1" style="stop-color:#F3F0FA;stop-opacity:9.000000e-02"/>
			<stop  offset="0.42" style="stop-color:#BAADE1;stop-opacity:0.47"/>
			<stop  offset="0.69" style="stop-color:#917BCE;stop-opacity:0.76"/>
			<stop  offset="0.89" style="stop-color:#785DC3;stop-opacity:0.93"/>
			<stop  offset="1" style="stop-color:#6E51BF"/>
		</linearGradient>
		<polygon class="st19" points="146.6,176.6 155.9,245.1 211.4,278.5 231.6,272.4 223.9,200.1 210.2,200.2 		"/>
		<path class="st3" d="M212.1,201.8c0,0,15.7,9,19.1,19.8s9.7,50.8,9.7,50.8l6.1-1.9c0,0-4.1-45.9-10.7-52.5
			C226.2,201.9,216.1,201.5,212.1,201.8z"/>
		<path class="st5" d="M143.8,169.1l1.6,10.2c0,0,56.3,20.2,60,21.3s14.1,2,17.9,4.8c20.6,10.4,19.8,49.1,23.1,65.6l18.2-6.1
			l-15.9-104.6C187.1,202.2,220.4,190.9,143.8,169.1z"/>
		<polygon class="st20" points="214.5,221.9 219.7,231.4 229.2,236.6 219.7,241.8 214.5,251.4 209.2,241.8 199.7,236.6 209.2,231.4 
					"/>
		<polygon class="st20" points="222.3,198.6 226.4,206 233.8,210.1 226.4,214.1 222.3,221.5 218.3,214.1 210.9,210.1 218.3,206 		
			"/>
		<path class="st21" d="M30.5,379.1V409h5.7v7.8h-5.7v9.7H21v-9.7H0.4v-8.1c1.8-2.1,3.7-4.3,5.7-6.7c2-2.4,3.8-4.9,5.7-7.5
			c1.8-2.6,3.5-5.2,5.1-7.8c1.5-2.4,2.8-4.9,4-7.5L30.5,379.1z M9.7,409H21v-16.6c-0.8,1.4-1.6,2.9-2.5,4.4
			c-0.9,1.5-1.8,2.9-2.8,4.3c-1,1.4-2,2.8-3,4.1C11.6,406.6,10.7,407.8,9.7,409z"/>
		<g>
			<path class="st22" d="M275.2,358.5c0.1,1.6,0.2,3.2,0.2,4.9c0,38.8-32.3,61.8-73.6,64.4c-2.6,0.2-5.2,0.2-7.8,0.2
				s-5.3-0.1-7.8-0.2c-41.3-2.6-73.6-25.6-73.6-64.4c0-1.6,0.1-3.2,0.2-4.9C135.3,259,252.6,259,275.2,358.5L275.2,358.5z
				 M186.6,396.5L186.6,396.5h14.6l0,0H186.6L186.6,396.5z"/>
			<path class="st23" d="M156.7,294.5c0.4-13.8-9.1-25.9-17.4-29.8c-8.3-3.9-10.5-4.5-12.1-7.9c-1.6-3.4-13.4,24.1-2.9,45.2
				c10.6,21.1,10.2,19.9,10.2,19.9L156.7,294.5L156.7,294.5z"/>
			<path class="st24" d="M140.1,317.3l16.7-12.1c-2.6-3.3-16.2-28.9-21.1-32.9c-4.9-4-6.8-4.8-6.8-4.8s-0.4,3.5,0.6,6.2
				c0,0-2.7-0.7-3.3-2.4c-0.6-1.6-2.1,21.4,1.1,28.7C130.6,307.2,137.3,313.6,140.1,317.3L140.1,317.3z"/>
			<path class="st23" d="M231.2,294.5c-0.4-13.8,9.1-25.9,17.4-29.8c8.3-3.9,10.5-4.5,12.1-7.9c1.6-3.4,13.4,24.1,2.9,45.2
				c-10.6,21.1-10.2,19.9-10.2,19.9L231.2,294.5L231.2,294.5z"/>
			<path class="st24" d="M247.8,317.3l-16.7-12.1c2.6-3.3,16.2-28.9,21.1-32.9c4.9-4,6.8-4.8,6.8-4.8s0.4,3.5-0.6,6.2
				c0,0,2.7-0.7,3.3-2.4c0.6-1.6,2.1,21.4-1.1,28.7C257.3,307.2,250.6,313.6,247.8,317.3L247.8,317.3z"/>
			<path class="st25" d="M162,423.7c-28.9-8.5-44.7-20.3-57.2-48.7c7.7-11.2,23.2-35.6,39.8-40.3c16.6-4.7,31.6,10.6,30,24.4
				C172.9,372.7,126,395.6,162,423.7L162,423.7z"/>
			<path class="st25" d="M225.9,423.7c28.9-8.5,48.4-21.4,59.2-47.1c-6.6-9.9-25.2-37.2-41.8-41.9c-16.6-4.7-31.6,10.6-30,24.4
				C215,372.7,261.9,395.6,225.9,423.7L225.9,423.7z"/>
			<path class="st26" d="M115.1,349.3c12.5-40.8,42-62.5,72.6-65.2c5-0.4,10-0.3,15,0.3c29.7,3.5,57.9,25.2,70.1,64.9
				c-5.8-9.4-17-23.1-34.3-27.8c-19.4-5.2-30.6,10.7-36.3,28.9c-3.4,11.1-4.8,23-4.7,31.7c0,2.6-0.6,25.6-2.4,9.1l-1.1-4.7l-1.1,4.7
				c-1.9,16.4-2.5-6.5-2.4-9.1c0.1-8.9-1.4-21.3-5-32.6c-5.8-17.9-16.9-33.1-35.9-28C132.1,326.2,120.9,339.9,115.1,349.3
				L115.1,349.3z"/>
			<path class="st27" d="M134,313.2c0.4-0.5,0.8-1,1.2-1.5c2,7.8,1.7,9.8,1.7,9.8S135.5,317.6,134,313.2L134,313.2z M138,308.7
				c0.3-0.3,0.5-0.5,0.8-0.8c0.1,2-0.3,2.3-0.3,2.3S138.3,309.8,138,308.7L138,308.7z M146.6,300.7c0.5-0.4,1-0.8,1.5-1.2
				c0.5,2.6,1.2,6,1.9,10.2c1.1,5.9,1.5,9.3,1.6,11.2c-0.2,0-0.3,0.1-0.5,0.1c-1-3.7-3.2-12-4.2-18.1
				C146.8,302.2,146.7,301.4,146.6,300.7L146.6,300.7z M156.8,293.8c0.4-0.2,0.8-0.5,1.2-0.7c0.3,4.6,0,5.9,0,5.9
				S157.4,296.9,156.8,293.8L156.8,293.8z M172.7,287c0.5-0.1,1-0.3,1.5-0.4c0.4,3.7,0.7,7.6,0.7,10.3c0.2,7.2-1,8.1-1,8.1
				s-0.4-3.7-1-14.5C172.8,289.2,172.8,288.1,172.7,287L172.7,287z M177.6,285.7c0.6-0.1,1.3-0.3,1.9-0.4c0,9-1.4,10-1.4,10
				S177.9,292.8,177.6,285.7L177.6,285.7z M190.8,283.9h0.7c-0.1,3-0.2,5.3-0.2,6.1C191.3,290,191.1,287.2,190.8,283.9L190.8,283.9z
				 M195.2,283.9c0.6,0,1.1,0,1.7,0.1c-0.6,7.4-1.4,9.4-1.4,9.4S195.3,289,195.2,283.9L195.2,283.9z M201.6,284.3
				c0.4,0,0.8,0.1,1.1,0.1l0.4,0.1c-0.6,5.1-1.1,8.7-1.1,8.7S201.5,291.2,201.6,284.3L201.6,284.3z M207.5,285.1l0.3,0.1
				c-0.1,0.7-0.2,1.1-0.2,1.1S207.5,286,207.5,285.1L207.5,285.1z M213.5,286.5c0.3,0.1,0.7,0.2,1,0.3c-0.4,4.5-0.9,10.4-1.5,14.1
				c-1.1,6.8-2.4,7.6-2.4,7.6s0.3-3.4,1.6-13.7C212.7,291.4,213.1,288.7,213.5,286.5L213.5,286.5z M217.9,287.9
				c0.6,0.2,1.2,0.4,1.8,0.6l-0.2,0.9c-1.7,9-3.2,10-3.2,10S216.7,296.5,217.9,287.9L217.9,287.9z M229.9,293.2l0.1,0.1
				c-0.1,0.5-0.2,0.9-0.3,1.1L229.9,293.2L229.9,293.2z M233.5,295.3l0.5,0.3c-0.5,1.4-0.8,1.9-0.8,1.9S233.3,296.6,233.5,295.3
				L233.5,295.3z M237.9,298.2c0.3,0.2,0.7,0.5,1,0.7c-0.4,2.1-0.9,4.4-1.4,6c-1.2,3.8-2.5,4.2-2.5,4.2s0.4-2.1,1.9-7.7
				C237.2,300.2,237.6,299.1,237.9,298.2L237.9,298.2z M241.8,301.2c0.5,0.4,0.9,0.8,1.4,1.2l-0.4,1.4c-2.6,8.9-4.1,11.2-4.1,11.2
				S240.1,307.5,241.8,301.2L241.8,301.2z M249.7,308.5c0.4,0.4,0.7,0.8,1.1,1.2c-0.1,0.4-0.3,0.7-0.4,1.1c-1.8,4.6-3.1,5.2-3.1,5.2
				S247.9,313.9,249.7,308.5L249.7,308.5z M253,312.2c0.2,0.2,0.4,0.5,0.6,0.7c-1.2,2.8-1.8,3.6-1.8,3.6S252.3,314.8,253,312.2
				L253,312.2z M256.4,316.5l0.1,0.2c0.1,0.6,0,2.4-1.2,6c-0.1,0.4-1,2.7-2.2,5.6c-0.3-0.2-0.6-0.4-0.9-0.6
				C254.1,323,256.3,316.7,256.4,316.5L256.4,316.5L256.4,316.5z M256.4,330.6c-0.3-0.3-0.7-0.5-1-0.8c1.7-3.4,3-4.1,3-4.1
				S257.7,327.4,256.4,330.6L256.4,330.6z M249.2,325.8l-0.4-0.2c0.4-0.6,0.6-0.9,0.6-0.9S249.3,325.1,249.2,325.8L249.2,325.8z
				 M245.2,323.9l-0.5-0.2c0.8-1.7,1.2-2.5,1.2-2.5S245.7,322.2,245.2,323.9L245.2,323.9z M241.5,322.4c-0.5-0.2-1.1-0.4-1.6-0.5
				c0.3-0.8,0.5-1.8,0.9-2.8c2.1-6.8,3.9-9.4,3.9-9.4S243.1,317.7,241.5,322.4L241.5,322.4z M236,320.9h-0.2c0.2-0.6,0.3-1,0.3-1
				S236,320.3,236,320.9L236,320.9z M232.8,320.5c-0.5,0-1,0-1.5,0c0.9-3.5,1.3-5.4,1.3-5.4S233.3,316.4,232.8,320.5L232.8,320.5z
				 M223.5,321.9c-0.2,0.1-0.3,0.1-0.5,0.2l0.2-0.8C223.3,321.1,223.4,321.2,223.5,321.9L223.5,321.9z M213.2,329.2
				c-0.4,0.4-0.7,0.8-1,1.2c0.7-3.3,1.3-4.7,1.3-4.7S213.4,327.2,213.2,329.2L213.2,329.2z M208.1,336.5l-0.3,0.5
				c0.2-0.6,0.3-0.8,0.3-0.8V336.5L208.1,336.5z M203.4,347c-0.4,1.1-0.8,2.3-1.2,3.5c-0.3,0.9-0.6,1.8-0.8,2.8
				c0.1-1.3,0.2-2.5,0.4-3.6c0.6-3.8,1.8-4.5,1.8-4.5S203.5,345.7,203.4,347L203.4,347z M189.9,371.7c-0.2-1.8-0.4-3.6-0.7-5.5
				c0-3,0-7.5,0-7.7c0-0.2,0.9,0.7,1,3.8C190.2,362.9,190,368.7,189.9,371.7L189.9,371.7z M186.1,352c-0.2-0.8-0.5-1.7-0.8-2.5
				c-0.2-0.6-0.4-1.3-0.6-1.9c0-0.4,0-0.9,0-1.3c0.2-4.9,1.3-5.9,1.3-5.9s0.1,3.5,0.1,10C186.1,351,186.1,351.5,186.1,352L186.1,352
				z M181.5,339.9c-0.5-1-1-2-1.5-2.9c0-0.8-0.1-1.7-0.1-2.6c-0.3-8.1,0.4-11.4,0.4-11.4s1.2,10.8,1.2,16.2
				C181.5,339.4,181.5,339.6,181.5,339.9L181.5,339.9z M175.1,329.8c-0.1-0.2-0.3-0.3-0.4-0.5c-0.1-1.2-0.3-3.8-0.6-8.5
				c-0.4-6.8,0.5-9.5,0.5-9.5s1.6,9.1,1.6,13.6C176.2,328,175.5,329.3,175.1,329.8L175.1,329.8z M170.6,325.4
				c-0.3-0.2-0.6-0.4-0.8-0.6c-0.2-2.1-0.3-3.1-0.3-3.1S170.1,323.2,170.6,325.4L170.6,325.4z M166.4,322.8
				c-0.6-0.3-1.1-0.5-1.7-0.8c-0.4-3.4-0.6-5.1-0.6-5.1S165.3,318.2,166.4,322.8L166.4,322.8z M146.8,322.3l-0.2,0.1
				c-0.2-0.6-0.8-3.2-2-9c-1.4-6.7-1.2-9.3-1.2-9.3s2.8,8.9,3.5,13.4C147.4,320.6,147,321.8,146.8,322.3L146.8,322.3z M142.7,323.9
				c-0.5,0.2-1,0.5-1.6,0.7c-1.4-5.9-1-8.2-1-8.2S141.5,320.1,142.7,323.9L142.7,323.9z M137.1,326.7L137.1,326.7l-0.2-0.4
				C136.9,326.3,137,326.5,137.1,326.7L137.1,326.7z M134.4,328.5c-0.5,0.3-0.9,0.7-1.4,1c-1.6-5.1-2.4-7.8-2.4-7.8
				S132.4,323.2,134.4,328.5L134.4,328.5z M196.3,374.4c0,0-0.6-1.5-0.3-6.8s0.5-8.1,0.5-8.1s1.1,1,1,5
				C197.5,368.4,196.3,374.4,196.3,374.4L196.3,374.4z M196.6,376.8c0,0-0.6,0.8-0.8,2.9s-0.2,2.9-0.2,2.9s0.7-0.2,1-1.7
				C196.9,379.5,196.6,376.8,196.6,376.8L196.6,376.8z M210.1,314.6c0,0-1.3,2.5-2.2,9c-0.8,6.5-1,8.9-1,8.9s1.4-0.6,2.2-4.9
				C210,323.3,210.1,314.6,210.1,314.6L210.1,314.6z M202.6,339.7c0,0-0.4-1.6,0-7s0.7-8.1,0.7-8.1s0.6,3.5,0.4,7.4
				C203.6,335.8,202.6,339.7,202.6,339.7L202.6,339.7z M198.5,343.6c0,0-0.7-2.2-0.3-10.7s0.8-13,0.8-13s1.3,1.7,1.2,8.1
				C200.1,334.3,198.5,343.6,198.5,343.6L198.5,343.6z M198.8,347.3c0,0-0.7,1.1-1,4.3c-0.3,3.2-0.3,4.4-0.3,4.4s0.9-0.3,1.3-2.5
				C199.2,351.4,198.8,347.3,198.8,347.3L198.8,347.3z M202.3,299.5c0,0-1,2-1.4,7.3c-0.4,5.4-0.5,7.4-0.5,7.4s1.2-0.5,1.7-4.1
				C202.7,306.5,202.3,299.5,202.3,299.5L202.3,299.5z M231.9,302.8c0,0-1.3,2.1-2.5,7.6c-1.3,5.5-1.6,7.5-1.6,7.5s1.2-0.5,2.3-4.2
				C231.1,310,231.9,302.8,231.9,302.8L231.9,302.8z M228.1,298.2c0,0-1.2,2-2.4,7.4c-1.1,5.4-1.4,7.4-1.4,7.4s1.2-0.5,2.2-4.1
				C227.5,305.3,228.1,298.2,228.1,298.2L228.1,298.2z M217.6,302.4c0,0-1.2,2.6-2.3,9.2c-1,6.6-1.3,9.1-1.3,9.1s1.2-0.6,2.1-5
				C217,311.2,217.6,302.4,217.6,302.4L217.6,302.4z M205.2,319.7c0,0,1.1-2.2,2.1-10.7c1-8.6,1.3-13.1,1.3-13.1s-1.6,1.3-2.5,7.7
				C205.2,309.9,205.2,319.7,205.2,319.7L205.2,319.7z M218.6,321.2c0,0,1.3-2.5,3.3-13.2c2-10.6,2.9-16.5,2.9-16.5
				s-1.7,1.8-3.4,9.7C219.7,309.3,218.6,321.2,218.6,321.2L218.6,321.2z M192.2,376.7c0,0-0.6,0.8-0.7,3.1c-0.1,2.3-0.1,3.2-0.1,3.2
				s0.7-0.2,1-1.8C192.6,379.6,192.2,376.7,192.2,376.7L192.2,376.7z M192.4,374.6c0,0,0.7-1.1,0.9-4.8c0.2-3.7,0.3-5.5,0.3-5.5
				s-1,0.5-1.3,3.2C191.9,370.2,192.4,374.6,192.4,374.6L192.4,374.6z M189.7,318.2c0-0.4,1.1,1.2,1.3,6.2c0,1-0.4,15.7-0.5,17.5
				c0,0-0.5-4.4-0.7-7.1C189.7,334.6,189.7,318.6,189.7,318.2L189.7,318.2z M193.4,347.1c0,0-0.7,1.2-0.9,4.7
				c-0.2,3.4-0.2,4.7-0.2,4.7s0.9-0.3,1.2-2.6C193.8,351.5,193.4,347.1,193.4,347.1L193.4,347.1z M189.7,344.3c0,0-0.7,1.2-0.8,4.5
				c-0.1,3.3,0,4.6,0,4.6s0.9-0.3,1.2-2.6C190.2,348.6,189.7,344.3,189.7,344.3L189.7,344.3z M185.4,326.5c0,0-0.7,1.5-0.7,5.6
				s0.1,5.7,0.1,5.7s1-0.4,1.2-3.1C186.2,331.8,185.4,326.5,185.4,326.5L185.4,326.5z M193.6,343.8c0,0,0.8-1.6,1.2-7.4
				c0.3-5.8,0.4-8.8,0.4-8.8s-1.3,0.9-1.7,5.1C193.1,337,193.6,343.8,193.6,343.8L193.6,343.8z M163.4,295.3c0,0-0.6,2.1,0,7.8
				c0.6,5.7,0.9,7.8,0.9,7.8s1.1-0.5,1-4.3C165.1,302.8,163.4,295.3,163.4,295.3L163.4,295.3z M195.2,298.9c0,0-0.9,2.1-1.2,7.9
				s-0.3,7.9-0.3,7.9s1.1-0.5,1.6-4.4C195.7,306.5,195.2,298.9,195.2,298.9L195.2,298.9z M190.3,294c0,0-0.9,2.1-1,7.7
				c-0.1,5.7-0.1,7.8-0.1,7.8s1.2-0.4,1.5-4.3C191.1,301.5,190.3,294,190.3,294L190.3,294z M180,298.5c0,0-0.8,2.7-0.6,9.7
				s0.4,9.5,0.4,9.5s1.1-0.6,1.2-5.3C181.2,307.7,180,298.5,180,298.5L180,298.5z M170.4,316.6c0,0,0.7-2.2,0-11.3
				c-0.7-9-1.2-13.8-1.2-13.8s-1.4,1.4-1.1,8.1C168.5,306.4,170.4,316.6,170.4,316.6L170.4,316.6z M184.8,318.3
				c0,0,0.9-2.6,0.9-13.8c0-11.2-0.2-17.4-0.2-17.4s-1.5,1.9-1.7,10.3C183.6,305.8,184.8,318.3,184.8,318.3L184.8,318.3z
				 M158.6,304.4c0,0-0.5,2.1,0.2,7.6c0.8,5.5,1.2,7.6,1.2,7.6s1.1-0.5,0.8-4.2C160.5,311.7,158.6,304.4,158.6,304.4L158.6,304.4z
				 M152.9,299.8c0,0-0.5,2,0.3,7.4c0.9,5.5,1.3,7.5,1.3,7.5s1.1-0.5,0.8-4.1C154.9,306.9,152.9,299.8,152.9,299.8L152.9,299.8z"/>
			<path class="st28" d="M186.2,284.3c0.5-0.1,1-0.1,1.5-0.1c5-0.4,10-0.3,15,0.3c0.9,0.1,1.8,0.2,2.7,0.4
				c-2.2,21.1-4.7,44.6-3.2,65.6l0,0c-3.4,11.1-4.8,23-4.7,31.7c0,2.6-0.6,25.6-2.4,9.1l-1.1-4.7l-1.1,4.7
				c-1.9,16.4-2.5-6.5-2.4-9.1c0.1-8.9-1.4-21.3-5-32.6C189.1,329.4,188.6,304.7,186.2,284.3L186.2,284.3z"/>
			<path class="st29" d="M147.5,350.7c2.9,0,5.4,2.8,5.4,6.2s-2.4,6.2-5.4,6.2s-5.4-2.8-5.4-6.2S144.4,350.7,147.5,350.7
				L147.5,350.7z"/>
			<path class="st29" d="M241.6,350.7c3.9,0,7.2,3.1,7.2,7c0,3.8-3.2,7-7.2,7c-3.9,0-7.2-3.1-7.2-7
				C234.5,353.8,237.7,350.7,241.6,350.7L241.6,350.7z"/>
			<path class="st30" d="M151.4,353.5c1.1,0,2,0.9,2,2s-0.9,2-2,2s-2-0.9-2-2C149.3,354.4,150.2,353.5,151.4,353.5L151.4,353.5z
				 M148.8,358.1c0.6,0,1,0.5,1,1c0,0.6-0.5,1-1,1s-1-0.5-1-1S148.3,358.1,148.8,358.1L148.8,358.1z"/>
			<path class="st30" d="M242.7,353.5c1.1,0,2,0.9,2,2s-0.9,2-2,2s-2-0.9-2-2C240.7,354.4,241.6,353.5,242.7,353.5L242.7,353.5z
				 M240.2,358.1c0.6,0,1,0.5,1,1c0,0.6-0.5,1-1,1s-1-0.5-1-1S239.6,358.1,240.2,358.1L240.2,358.1z"/>
			<path class="st29" d="M193.9,398.1c6,0,10.9-5.7,10.9-11.1s-5.9-5.3-11.9-5.3s-9.9-0.1-9.9,5.3S187.9,398.1,193.9,398.1
				L193.9,398.1z"/>
			<path class="st31" d="M192.3,413l0.5-31.3l2.5,3.4l1,27.7c9.6-0.9,14.2-7.8,17.6-1.7c-20.9,12.1-38.4,1.8-38.4,1.8
				C179.2,406.4,181,413,192.3,413L192.3,413z"/>
			<path class="st30" d="M212.4,392.4c0,0,26.3-13.6,64.7-15.1c-27.9,0.4-42.2,4.5-67.5,14.5L212.4,392.4L212.4,392.4z M213.6,398.8
				c0,0,29.6,1.3,63.7,19.1c-24.4-13.6-38.8-17.1-65.8-21L213.6,398.8L213.6,398.8z M212,395.6c0,0,28.9-6.4,66.4,2.1
				c-27-6.8-41.9-6.5-69-3.3L212,395.6L212,395.6z"/>
			<path class="st30" d="M173.5,392.4c0,0-26.3-13.6-64.7-15.1c27.9,0.4,42.2,4.5,67.5,14.5L173.5,392.4L173.5,392.4z M172.3,398.8
				c0,0-29.6,1.3-63.7,19.1c24.4-13.6,38.8-17.1,65.8-21L172.3,398.8L172.3,398.8z M174,395.6c0,0-28.9-6.4-66.4,2.1
				c27-6.8,41.9-6.5,69-3.3L174,395.6L174,395.6z"/>
		</g>
		<polygon class="st32" points="191.6,166.6 147.4,129.8 156.5,119 190.1,147 257.1,71.6 267.7,81 		"/>
	</g>
</g>
</svg>
