<svg xmlns="http://www.w3.org/2000/svg" xmlns:xlink="http://www.w3.org/1999/xlink" viewBox="0 0 278 431"><defs><clipPath id="a"><rect width="278" height="431" style="fill:none"/></clipPath></defs><g style="clip-path:url(#a)"><path d="M23.41,378.06v48.41H13V389.81a12.23,12.23,0,0,1-2,1.44,20.55,20.55,0,0,1-2.49,1.22,22.06,22.06,0,0,1-2.74.93,20.43,20.43,0,0,1-2.81.54v-8.78a43.35,43.35,0,0,0,7.66-3,43.94,43.94,0,0,0,6.51-4.06Z" style="fill:#b7b7b7"/><path d="M277.72,402.08H110.55V75A64.46,64.46,0,0,1,175,10.56h38.26A64.46,64.46,0,0,1,277.72,75Z" style="fill:#a4c9e7"/><path d="M277.72,75H110.55A64.46,64.46,0,0,1,175,10.56h38.26c4.29,0,27.12.43,45.57,18.88S277.72,70.73,277.72,75Z" style="fill:#6588ab"/><path d="M257.06,394.46H131.21V129.24H257.06Z" style="fill:#6588ab"/><path d="M251.56,389.61H136.86V133.46h114.7Z" style="fill:#a4c9e7"/><path d="M257.06,119.46H131.21V80.18a43,43,0,0,1,43-43h39.91a43,43,0,0,1,43,43Z" style="fill:#6588ab"/><path d="M251.56,115.08H136.86V81.39a37.61,37.61,0,0,1,37.61-37.61h39.34a37.6,37.6,0,0,1,37.6,37.61Z" style="fill:#d1deeb"/><g style="opacity:0.30000000000000004"><path d="M242.63,57.26,136.86,115.08V81.39a37.64,37.64,0,0,1,37.6-37.61h39.35a37.55,37.55,0,0,1,28.82,13.48Z" style="fill:#e9f5ff"/></g><path d="M195.07,241.87h0a2.32,2.32,0,0,1-2.74-1.8L190,235.23l.44-4.41a2.33,2.33,0,0,1,1.8-2.75h0a2.34,2.34,0,0,1,2.75,1.81l-.09,4.35,2,4.9A2.33,2.33,0,0,1,195.07,241.87Z" style="fill:#f1a385"/><circle cx="232.83" cy="226.81" r="16.64" style="fill:#6588ab"/><rect x="174.72" y="221.86" width="62.73" height="9.9" rx="3.1" style="fill:#e4e7e9"/><path d="M223.43,223.39c1.16,2.21-7,2-3,7-2.62,1-37.16,2.21-36,0-9.28-3.51,4.13-6.26,6.75-5.28C198.26,221.88,224.59,221.18,223.43,223.39Z" style="fill:#6e51bf;opacity:0.46"/><path d="M208.23,248.92c4.29-11.26,12.74-13.72,9.23-26.3-.41-1.46-3-3.38-4.31-2.13-.12.12-.39,0-.49-.12-1-1.32-3.66-1-4.64.23-.1.15-.37.34-.52.2-1.3-1.32-3.57-.46-4.18.36-.44.24-1,1.76-1.56,1.36a2.84,2.84,0,0,0-3.35-1,5.53,5.53,0,0,0-2.4,2.31c-1.71,8.63-4.81,16.43-2.37,21.14,1.71,2.18-2.81,14.25-3.06,16.66,4.75,2.44,10.81,3.4,16.78.07Z" style="fill:#f9b49c"/><path d="M139.58,331.44l-5.79-44.21-25.55-3.45-3.1,34.55S135.45,322.25,139.58,331.44Z" style="fill:#f9b49c"/><path d="M162.62,221.08c-17.57-10.15-47.37-19.35-64.62-4-14.64,13-13.54,33.54-4.93,49.54,4.12,7.64,3,20.27,19.73,25.52,15.28,4.82,29.32,9.49,36.8,4.53,10.41-6.9,9.9-9.23,16.14-23.49,2-4.53,3.38-19.81,3.11-22.65C167.72,238.63,167.37,223.81,162.62,221.08Z" style="fill:#071e31"/><path d="M191.43,368.79c-31.76,30.21-85.59,7.07-88.49,6.17-1.07-4.79,2.68-4.9,4-9,6.66-20.65,18.34-18.85,71.38-37.1,0,0,17-49.61,9.54-78.06l24.79,11.35s1.71,40.35,1.42,66.11C213.8,353.62,191.43,368.79,191.43,368.79Z" style="fill:#77addb"/><path d="M112.05,411.74c28.32,0,53.91,6.75,72.25,17.63-4.2-30.68-18-106.13-52.54-112.89-8.19-1.6-31.7-7.36-37.65,16.7-19.25-1.13-31.26,5.2-35.29,18.06A516.54,516.54,0,0,0,40.43,429C58.73,418.34,84.06,411.74,112.05,411.74Z" style="fill:#77addb"/><path d="M93.84,352a.43.43,0,0,0-.51.32L79.12,415.74a.31.31,0,0,0,0,.1l.89-.14,14.16-63.21A.42.42,0,0,0,93.84,352Z" style="fill:#1c77c3"/><path d="M81.63,377.14a.37.37,0,0,1-.18,0,.43.43,0,0,1-.3-.53L87,355.68a.42.42,0,0,1,.82.22L82,376.83A.4.4,0,0,1,81.63,377.14Z" style="fill:#1c77c3"/><path d="M107.16,305.86c-3.35,9.07.26,20.42-5.53,28.55s-18.17,8.36-23-.77c-4.37-8.31-3-20.51.66-28.81,2.33-5.3,6.13-9.32,10-13.51,2.46-2.65,4.07-8.26,7.08-9.94,5.15-2.89,10.75.56,13.16,5.21C113,293.21,109.5,299.53,107.16,305.86Z" style="fill:#071e31"/><path d="M90.17,286.15a2.16,2.16,0,0,0,1.64,2.58l17.94,4a2.16,2.16,0,0,0,2.58-1.64h0a2.17,2.17,0,0,0-1.64-2.58l-18-4a2.15,2.15,0,0,0-2.57,1.64Z" style="fill:#e11e19"/><path d="M137.87,308a61.78,61.78,0,0,0-1.46-10.65c-.71-3.24-.34-5.94,2.59-8.09,3.86-2.83,6.51-.71,10.24.77,6.08,2.4,9.09,8.95,10.44,14.94,1.86,8.32,10,11.65,13.28,19.71,6,14.8-8.05,32.75-24.08,24.94-12.08-5.89-11.33-22.17-11-33.49C138,313.12,138,310.5,137.87,308Z" style="fill:#071e31"/><path d="M133.86,297.58a2.16,2.16,0,0,0,2.72,1.39l17.48-5.66a2.16,2.16,0,0,0,1.4-2.72h0a2.18,2.18,0,0,0-2.73-1.39l-17.48,5.66a2.16,2.16,0,0,0-1.39,2.72Z" style="fill:#e11e19"/><path d="M231.22,196.49a1,1,0,0,0-.51.14h0a3,3,0,0,1-3.63,0,9.54,9.54,0,0,0-.2-1.21,2.39,2.39,0,0,1,1.65,0h0a.74.74,0,0,0,.39,0,.75.75,0,0,0,.53-.91.74.74,0,0,0-.91-.53.77.77,0,0,0-.34.2h0a2.4,2.4,0,0,1-1.42.86,8,8,0,0,0-.47-1.3,3,3,0,0,1,3.15-1.81h0a1,1,0,0,0,.51-.14,1,1,0,1,0-1-1.75,1,1,0,0,0-.37.38h0a3,3,0,0,1-3.15,1.83,9.1,9.1,0,0,0-2.1-2.1,3,3,0,0,1,1.83-3.14h0a1,1,0,1,0-1.38-1.38,1,1,0,0,0-.13.51h0a3,3,0,0,1-1.81,3.15,8,8,0,0,0-1-.39,2.19,2.19,0,0,1,.77-2.35h0a.79.79,0,0,0,.2-.33.75.75,0,0,0-.53-.91.75.75,0,0,0-.91.92h0a2.19,2.19,0,0,1-.48,2.42,9.06,9.06,0,0,0-.91-.13,3,3,0,0,1,0-3.63h0a1.08,1.08,0,0,0,.14-.51,1,1,0,1,0-2,0,1,1,0,0,0,.14.51h0a3,3,0,0,1,0,3.63,9,9,0,0,0-2.88.77,3,3,0,0,1-1.8-3.15h0a.87.87,0,0,0-.13-.51,1,1,0,0,0-1.75,1,1.12,1.12,0,0,0,.38.37h0a3,3,0,0,1,1.83,3.14,9.1,9.1,0,0,0-2.1,2.1,3,3,0,0,1-3.14-1.83h0a1.12,1.12,0,0,0-.37-.38,1,1,0,0,0-1.38.37,1,1,0,0,0,.37,1.38.94.94,0,0,0,.51.14h0a3,3,0,0,1,3.16,1.81,8.94,8.94,0,0,0-.49,1.34,2.48,2.48,0,0,1-1.42-.85h0a.79.79,0,0,0-.33-.2.75.75,0,1,0,0,1.44h0a2.47,2.47,0,0,1,1.66,0,8.92,8.92,0,0,0-.19,1.17,3,3,0,0,1-3.63,0h0a1,1,0,1,0,0,1.74h0a3,3,0,0,1,3.63,0,8.9,8.9,0,0,0,.77,2.87,3,3,0,0,1-3.16,1.81h0a1,1,0,0,0-.88,1.51,1,1,0,0,0,1.75,0h0a3,3,0,0,1,3.14-1.83,8,8,0,0,0,.69.85,2.2,2.2,0,0,1-1.81,1.46h0a.7.7,0,0,0-.34.18.75.75,0,1,0,1,1.06.65.65,0,0,0,.19-.33h0a2.21,2.21,0,0,1,1.48-1.8,7.6,7.6,0,0,0,.83.67,3,3,0,0,1-1.83,3.15h0a1,1,0,0,0-.38.37,1,1,0,0,0,1.75,1,.87.87,0,0,0,.13-.51h0a3,3,0,0,1,1.8-3.15,9.22,9.22,0,0,0,2.88.77,3,3,0,0,1,0,3.63h0a1,1,0,0,0-.14.51,1,1,0,0,0,2,0,1.08,1.08,0,0,0-.14-.51h0a3,3,0,0,1,0-3.63,9.16,9.16,0,0,0,2.87-.77,3,3,0,0,1,1.81,3.15h0a1,1,0,0,0,.13.51,1,1,0,1,0,1.75-1,.94.94,0,0,0-.37-.37h0a3,3,0,0,1-1.83-3.15,9.1,9.1,0,0,0,2.1-2.1,3,3,0,0,1,3.15,1.83h0a.94.94,0,0,0,.37.37,1,1,0,0,0,1.38-.37,1,1,0,0,0-.37-1.38,1,1,0,0,0-.51-.13h0a3,3,0,0,1-3.15-1.81,9.61,9.61,0,0,0,.43-1.14,2.44,2.44,0,0,1,1.47.87h0a.77.77,0,0,0,.34.2.74.74,0,1,0,.38-1.44.7.7,0,0,0-.38,0h0a2.41,2.41,0,0,1-1.71,0,10.17,10.17,0,0,0,.24-1.36,3,3,0,0,1,3.63,0h0a1,1,0,0,0,.51.14,1,1,0,1,0,0-2Zm-14,1.95a.35.35,0,0,1,.35.34.35.35,0,0,1-.35.35.35.35,0,0,1-.34-.35A.34.34,0,0,1,217.23,198.44Zm-6-3.69a.35.35,0,0,1,.35-.34.34.34,0,0,1,.34.34.35.35,0,0,1-.34.35A.35.35,0,0,1,211.21,194.75Zm2.75,7.71a.34.34,0,0,1-.34-.34.35.35,0,0,1,.34-.35.35.35,0,0,1,.35.35A.35.35,0,0,1,214,202.46Zm-1-2.7a1.38,1.38,0,1,1,1.38-1.38A1.37,1.37,0,0,1,212.93,199.76Zm2.79-3.83a.34.34,0,1,1,0-.68.34.34,0,0,1,0,.68Zm-.55-1.78a.89.89,0,1,1,.89-.89A.89.89,0,0,1,215.17,194.15Zm2.06,8.51a.89.89,0,1,1,.89-.89A.88.88,0,0,1,217.23,202.66Zm1.64-5.82a.63.63,0,1,1,.62-.62A.63.63,0,0,1,218.87,196.84Zm1,7.9a.34.34,0,0,1-.34-.34.35.35,0,0,1,.34-.35.35.35,0,0,1,.35.35A.35.35,0,0,1,219.87,204.74ZM219.49,194a1.38,1.38,0,1,1,1.38-1.38A1.37,1.37,0,0,1,219.49,194Zm1.63,9.13a.63.63,0,1,1,.63-.63A.63.63,0,0,1,221.12,203.09Zm.61-4.31a.89.89,0,1,1,.89-.88A.88.88,0,0,1,221.73,198.78Zm1.23,3a.34.34,0,0,1-.34-.34.35.35,0,0,1,.34-.35.35.35,0,0,1,.35.35A.35.35,0,0,1,223,201.77Zm0-7a.34.34,0,0,1-.34-.34.35.35,0,0,1,.34-.35.35.35,0,0,1,.35.35A.35.35,0,0,1,223,194.75Zm1.9,2.35a.63.63,0,1,1,.63-.62A.62.62,0,0,1,224.86,197.1Z" style="fill:#6e51bf"/><path d="M204.91,210.88a.52.52,0,0,0-.25.07h0a1.53,1.53,0,0,1-1.86,0,6.17,6.17,0,0,0-.1-.62,1.27,1.27,0,0,1,.84,0h0a.34.34,0,0,0,.2,0,.38.38,0,1,0-.2-.73.42.42,0,0,0-.17.1h0a1.21,1.21,0,0,1-.72.43,6.42,6.42,0,0,0-.24-.66,1.51,1.51,0,0,1,1.61-.92h0a.65.65,0,0,0,.26-.06.52.52,0,0,0,.18-.71.51.51,0,0,0-.7-.19.69.69,0,0,0-.19.19h0a1.52,1.52,0,0,1-1.61.94,4.57,4.57,0,0,0-1.07-1.08,1.5,1.5,0,0,1,.94-1.6h0a.5.5,0,0,0,.19-.19.52.52,0,1,0-.89-.52.48.48,0,0,0-.07.26h0a1.51,1.51,0,0,1-.92,1.61l-.51-.2a1.11,1.11,0,0,1,.39-1.2h0a.48.48,0,0,0,.1-.17.38.38,0,0,0-.28-.46.36.36,0,0,0-.46.27.45.45,0,0,0,0,.2h0a1.11,1.11,0,0,1-.25,1.24,3.4,3.4,0,0,0-.46-.07,1.5,1.5,0,0,1,0-1.86h0a.47.47,0,0,0,.08-.26.52.52,0,0,0-1,0,.47.47,0,0,0,.08.26h0a1.5,1.5,0,0,1,0,1.86,4.57,4.57,0,0,0-1.47.39,1.51,1.51,0,0,1-.92-1.61h0a.48.48,0,0,0-.07-.26.52.52,0,1,0-.89.52.5.5,0,0,0,.19.19h0a1.5,1.5,0,0,1,.94,1.6,4.57,4.57,0,0,0-1.07,1.08,1.52,1.52,0,0,1-1.61-.94h0a.69.69,0,0,0-.19-.19.51.51,0,0,0-.7.19.52.52,0,0,0,.18.71.65.65,0,0,0,.26.06h0a1.51,1.51,0,0,1,1.61.92,4,4,0,0,0-.24.69,1.3,1.3,0,0,1-.73-.44h0a.48.48,0,0,0-.17-.1.38.38,0,0,0-.2.74.44.44,0,0,0,.2,0h0a1.22,1.22,0,0,1,.85,0,4,4,0,0,0-.1.6,1.53,1.53,0,0,1-1.86,0h0a.51.51,0,0,0-.77.45.51.51,0,0,0,.52.51.43.43,0,0,0,.25-.07h0a1.52,1.52,0,0,1,1.86,0,4.7,4.7,0,0,0,.39,1.46,1.52,1.52,0,0,1-1.61.93h0a.54.54,0,0,0-.26.07.52.52,0,0,0,.52.89.58.58,0,0,0,.19-.19h0a1.52,1.52,0,0,1,1.61-.93,3.47,3.47,0,0,0,.35.43,1.13,1.13,0,0,1-.93.75h0a.32.32,0,0,0-.18.1.37.37,0,0,0,0,.53.39.39,0,0,0,.54,0,.4.4,0,0,0,.1-.18h0a1.11,1.11,0,0,1,.75-.91l.43.34a1.53,1.53,0,0,1-.94,1.61h0a.39.39,0,0,0-.19.19.51.51,0,0,0,.18.7.52.52,0,0,0,.71-.19.48.48,0,0,0,.07-.26h0a1.51,1.51,0,0,1,.92-1.61,4.32,4.32,0,0,0,1.47.39,1.5,1.5,0,0,1,0,1.86h0a.5.5,0,0,0-.08.26.52.52,0,0,0,1,0,.5.5,0,0,0-.08-.26h0a1.5,1.5,0,0,1,0-1.86,4.32,4.32,0,0,0,1.47-.39,1.51,1.51,0,0,1,.92,1.61h0a.48.48,0,0,0,.07.26.52.52,0,0,0,.71.19.51.51,0,0,0,.18-.7.39.39,0,0,0-.19-.19h0a1.53,1.53,0,0,1-.94-1.61,4.72,4.72,0,0,0,1.07-1.07,1.52,1.52,0,0,1,1.61.93h0a.58.58,0,0,0,.19.19.52.52,0,0,0,.52-.89.54.54,0,0,0-.26-.07h0a1.52,1.52,0,0,1-1.61-.93,5,5,0,0,0,.21-.58,1.28,1.28,0,0,1,.76.44h0a.37.37,0,0,0,.17.1.38.38,0,1,0,.2-.73.34.34,0,0,0-.2,0h0a1.2,1.2,0,0,1-.87,0,4,4,0,0,0,.12-.69,1.52,1.52,0,0,1,1.86,0h0a.43.43,0,0,0,.25.07.52.52,0,1,0,0-1Zm-7.14,1a.18.18,0,0,1,.17.17.18.18,0,0,1-.17.18.18.18,0,0,1-.18-.18A.18.18,0,0,1,197.77,211.88ZM194.69,210a.18.18,0,0,1,.18-.17.17.17,0,0,1,.17.17.17.17,0,0,1-.17.18A.18.18,0,0,1,194.69,210Zm1.41,3.94a.18.18,0,0,1-.18-.17.18.18,0,0,1,.18-.18.18.18,0,0,1,.17.18A.18.18,0,0,1,196.1,213.93Zm-.53-1.38a.7.7,0,1,1,.7-.7A.7.7,0,0,1,195.57,212.55Zm1.42-2a.18.18,0,0,1,0-.36.18.18,0,0,1,0,.36Zm-.27-.91a.47.47,0,0,1-.46-.46.46.46,0,0,1,.46-.45.45.45,0,0,1,.45.45A.46.46,0,0,1,196.72,209.69Zm1.05,4.34a.45.45,0,1,1,0-.9.45.45,0,0,1,0,.9Zm.83-3a.32.32,0,0,1,0-.64.32.32,0,1,1,0,.64Zm.52,4a.18.18,0,0,1-.18-.18.18.18,0,0,1,.18-.17.18.18,0,0,1,.17.17A.18.18,0,0,1,199.12,215.1Zm-.2-5.51a.71.71,0,1,1,.7-.71A.7.7,0,0,1,198.92,209.59Zm.84,4.66a.32.32,0,0,1-.32-.32.32.32,0,0,1,.32-.32.33.33,0,0,1,.32.32A.32.32,0,0,1,199.76,214.25Zm.31-2.2a.45.45,0,1,1,0-.9.45.45,0,1,1,0,.9Zm.62,1.53a.18.18,0,0,1-.17-.18.18.18,0,0,1,.17-.17.18.18,0,0,1,.18.17A.18.18,0,0,1,200.69,213.58Zm0-3.59a.18.18,0,0,1-.17-.17.18.18,0,0,1,.17-.18.18.18,0,0,1,.18.18A.18.18,0,0,1,200.69,210Zm1,1.2a.32.32,0,0,1-.32-.32.32.32,0,0,1,.32-.32.33.33,0,0,1,.32.32A.32.32,0,0,1,201.67,211.19Z" style="fill:#6e51bf"/><path d="M193,222.6a.16.16,0,0,0-.12,0h0a.73.73,0,0,1-.9,0,1.54,1.54,0,0,0,0-.3.58.58,0,0,1,.4,0h0a.17.17,0,0,0,.1,0,.2.2,0,0,0,.13-.22.19.19,0,0,0-.23-.13l-.08,0h0a.57.57,0,0,1-.35.21c0-.11-.07-.21-.11-.32a.71.71,0,0,1,.77-.44h0l.12,0a.25.25,0,0,0,.09-.34.24.24,0,0,0-.33-.09.2.2,0,0,0-.09.09h0a.74.74,0,0,1-.78.45,2.29,2.29,0,0,0-.51-.52.73.73,0,0,1,.45-.77h0a.26.26,0,0,0,.09-.09.25.25,0,0,0-.09-.34.26.26,0,0,0-.34.09.31.31,0,0,0,0,.13h0a.73.73,0,0,1-.45.77l-.24-.09a.53.53,0,0,1,.19-.58h0a.2.2,0,0,0,0-.08.18.18,0,1,0-.35-.1.17.17,0,0,0,0,.1h0a.53.53,0,0,1-.12.6l-.22,0a.73.73,0,0,1,0-.89h0a.28.28,0,0,0,0-.12.25.25,0,0,0-.25-.25.25.25,0,0,0-.25.25.27.27,0,0,0,0,.12h0a.72.72,0,0,1,0,.89,2.4,2.4,0,0,0-.71.19.72.72,0,0,1-.44-.77h0a.31.31,0,0,0,0-.13.26.26,0,0,0-.34-.09.25.25,0,0,0-.09.34.2.2,0,0,0,.09.09h0a.74.74,0,0,1,.45.77,2.33,2.33,0,0,0-.52.52.72.72,0,0,1-.77-.45h0a.2.2,0,0,0-.09-.09.25.25,0,0,0-.25.43.28.28,0,0,0,.13,0h0a.72.72,0,0,1,.77.44,2.19,2.19,0,0,0-.12.33.57.57,0,0,1-.35-.21h0a.14.14,0,0,0-.08-.05.17.17,0,0,0-.22.13.18.18,0,0,0,.13.22h.09a.6.6,0,0,1,.41,0,2.93,2.93,0,0,0,0,.29.72.72,0,0,1-.89,0h0a.19.19,0,0,0-.12,0,.25.25,0,0,0,0,.5.28.28,0,0,0,.12,0h0a.74.74,0,0,1,.89,0,2.13,2.13,0,0,0,.19.71.74.74,0,0,1-.77.44h0a.28.28,0,0,0-.13,0,.25.25,0,1,0,.25.43.2.2,0,0,0,.09-.09h0a.72.72,0,0,1,.77-.45l.17.21a.54.54,0,0,1-.44.36h0l-.09,0a.18.18,0,0,0,.26.26.14.14,0,0,0,.05-.08h0a.53.53,0,0,1,.36-.44,1.73,1.73,0,0,0,.21.17.74.74,0,0,1-.45.77h0a.2.2,0,0,0-.09.09.25.25,0,0,0,.09.34.27.27,0,0,0,.34-.09.31.31,0,0,0,0-.13h0a.71.71,0,0,1,.44-.77,2.4,2.4,0,0,0,.71.19.72.72,0,0,1,0,.89h0a.24.24,0,0,0,0,.12.25.25,0,0,0,.25.25.25.25,0,0,0,.25-.25.25.25,0,0,0,0-.12h0a.73.73,0,0,1,0-.89,2.26,2.26,0,0,0,.7-.19.73.73,0,0,1,.45.77h0a.31.31,0,0,0,0,.13.27.27,0,0,0,.34.09.25.25,0,0,0,.09-.34.26.26,0,0,0-.09-.09h0a.73.73,0,0,1-.45-.77,2.29,2.29,0,0,0,.51-.52.74.74,0,0,1,.78.45h0a.2.2,0,0,0,.09.09.24.24,0,0,0,.33-.09.25.25,0,0,0-.09-.34.27.27,0,0,0-.12,0h0a.73.73,0,0,1-.77-.44c0-.09.07-.19.1-.28a.57.57,0,0,1,.36.21h0a.15.15,0,0,0,.09,0,.18.18,0,0,0,.22-.12.19.19,0,0,0-.13-.23h-.09a.59.59,0,0,1-.42,0,3.26,3.26,0,0,0,0-.33.75.75,0,0,1,.9,0h0a.21.21,0,0,0,.12,0,.25.25,0,0,0,0-.5Zm-3.43.48a.09.09,0,0,1,.09.08.09.09,0,0,1-.09.09.08.08,0,0,1-.08-.09A.08.08,0,0,1,189.57,223.08Zm-1.48-.9a.09.09,0,0,1,.09-.09.08.08,0,0,1,.08.09.08.08,0,0,1-.08.08A.09.09,0,0,1,188.09,222.18Zm.68,1.89a.09.09,0,0,1-.09-.09.09.09,0,0,1,.09-.08.08.08,0,0,1,.08.08A.08.08,0,0,1,188.77,224.07Zm-.25-.67a.34.34,0,1,1,.33-.33A.34.34,0,0,1,188.52,223.4Zm.68-.93a.09.09,0,0,1-.09-.09.08.08,0,0,1,.09-.08.07.07,0,0,1,.08.08A.08.08,0,0,1,189.2,222.47Zm-.13-.44a.22.22,0,0,1,0-.44.22.22,0,0,1,0,.44Zm.5,2.09a.22.22,0,1,1,.22-.22A.22.22,0,0,1,189.57,224.12Zm.4-1.43a.15.15,0,0,1-.15-.15.16.16,0,0,1,.15-.16.15.15,0,0,1,.15.16A.15.15,0,0,1,190,222.69Zm.25,1.94a.09.09,0,0,1-.09-.09.09.09,0,0,1,.09-.08.09.09,0,0,1,.08.08A.09.09,0,0,1,190.22,224.63Zm-.1-2.65a.34.34,0,1,1,.34-.34A.34.34,0,0,1,190.12,222Zm.4,2.24a.15.15,0,0,1-.15-.15.16.16,0,0,1,.15-.16.16.16,0,0,1,.16.16A.16.16,0,0,1,190.52,224.22Zm.15-1.06a.21.21,0,0,1-.21-.21.21.21,0,0,1,.21-.22.22.22,0,0,1,.22.22A.21.21,0,0,1,190.67,223.16Zm.31.74a.09.09,0,0,1-.09-.09.09.09,0,0,1,.09-.08.09.09,0,0,1,.08.08A.09.09,0,0,1,191,223.9Zm0-1.72a.09.09,0,0,1-.09-.09A.08.08,0,0,1,191,222a.08.08,0,0,1,.08.08A.09.09,0,0,1,191,222.18Zm.46.57a.15.15,0,0,1-.15-.15.15.15,0,0,1,.15-.15.15.15,0,0,1,.16.15A.16.16,0,0,1,191.44,222.75Z" style="fill:#6e51bf"/></g></svg>