<?xml version="1.0" encoding="utf-8"?>
<!-- Generator: Adobe Illustrator 24.1.3, SVG Export Plug-In . SVG Version: 6.00 Build 0)  -->
<svg version="1.1" id="Layer_1" xmlns="http://www.w3.org/2000/svg" xmlns:xlink="http://www.w3.org/1999/xlink" x="0px" y="0px"
	 viewBox="0 0 278 431" style="enable-background:new 0 0 278 431;" xml:space="preserve">
<style type="text/css">
	.st0{clip-path:url(#SVGID_2_);fill:#B7B7B7;}
	.st1{clip-path:url(#SVGID_2_);fill:#A4C9E7;}
	.st2{clip-path:url(#SVGID_2_);fill:#F7BBA6;}
	.st3{clip-path:url(#SVGID_2_);fill:#FFFFFF;}
	.st4{clip-path:url(#SVGID_2_);fill:#FFDEDE;}
	.st5{clip-path:url(#SVGID_2_);fill:#FCD4C0;}
	.st6{clip-path:url(#SVGID_2_);fill:#F2B1A2;}
	.st7{clip-path:url(#SVGID_2_);fill:#F9C5AF;}
	.st8{clip-path:url(#SVGID_2_);fill:#E2806A;}
	.st9{clip-path:url(#SVGID_2_);fill:#F1A385;}
	.st10{clip-path:url(#SVGID_2_);fill:#E11E19;}
	.st11{clip-path:url(#SVGID_2_);fill:none;}
	.st12{clip-path:url(#SVGID_2_);fill:#071E31;}
</style>
<g>
	<defs>
		<rect id="SVGID_1_" width="278" height="431"/>
	</defs>
	<clipPath id="SVGID_2_">
		<use xlink:href="#SVGID_1_"  style="overflow:visible;"/>
	</clipPath>
	<path class="st0" d="M2.8,424.1V415c3.2,2.3,7.1,3.5,11.1,3.5c2.2,0.1,4.4-0.5,6.2-1.7c1.5-1.1,2.3-2.9,2.2-4.8
		c0.1-2-1-3.9-2.8-4.9c-2.3-1.3-4.9-1.9-7.6-1.7H7.7v-8h4.1c6.2,0,9.3-2,9.3-6.1c0-3.9-2.4-5.8-7.1-5.8c-3.3,0.1-6.6,1.1-9.3,3.1
		V380c3.6-1.7,7.6-2.6,11.6-2.5c4.8,0,8.6,1.1,11.3,3.3c2.6,2,4.1,5.2,4,8.5c0,6.2-3.1,10.1-9.4,11.6v0.1c3,0.3,5.8,1.5,7.9,3.6
		c1.9,2,3,4.7,2.9,7.4c0.2,4.1-1.6,8-4.9,10.5c-3.2,2.6-7.7,3.9-13.4,3.9C9.9,426.5,5.9,425.7,2.8,424.1z"/>
	<path class="st1" d="M204.9,10.6c-5,0-168.5,85.9-168.5,85.9l31.5,301.1l127-47.3L204.9,10.6z"/>
	<path class="st2" d="M129.1,146.4c-1.9,0.1-4.2,0.2-5.7,1.6c-1.3,1-14.9,14.5-17.5,16.7c-1.8,1.6-3.5,3.3-5.1,5.1
		c-2.5,2.8-0.2,8.6,5.1,5.1c-2,2.1-6.6,5.9-4.5,8.7c3.2,4.4,6.7,0,7.7-1c-6.8,5.8,1.2,9,5.9,4.6c2.2-2.1,10.6-6.4,12.3-7.3
		c-7.3,3.9-8.6,6.5-7.4,8.7c2.1,4,8.2-0.6,11.9-3c2.5-1.6,10.9-3.8,21.8-10.4c2.8-1.7,1,1.7,3.8,0.2c1.8-0.9,3.7-1.6,5.7-2
		c1.9-0.3,3.9,0.1,5.6-0.9c4.1-2.6,11.2-6.5,12.4-7.4c0.4-0.3,6.9-6.6,6.4-6.8C188.1,158.5,132.2,146.3,129.1,146.4z"/>
	<path class="st2" d="M218.8,108.3c-1.3-5.3-1.5-10.7-0.7-16.1c-2.7,2.2-6.8,5.4-8.5,6.7s-27.7,20.1-30,19.6
		c-5.2-1.1-21.3,3.5-23.1,4.3c0-0.3,18.9,38.4,20.5,39.1c0.8,0.3,3.7-5,18.3-14.8l36.3-17.8C225.9,125.2,221,117.6,218.8,108.3z"/>
	<path class="st3" d="M180.9,121.4c-0.5,0-1,0-1.5,0.1c-0.9-4.2-5-6.9-9.2-6.1c-0.7,0.1-1.4,0.4-2.1,0.7c-2-6.5-8.9-10.1-15.4-8.1
		c-3.6,1.1-6.6,3.9-7.9,7.4c-1.4-0.7-2.9-1-4.4-1c-5.7,0-10.4,4.6-10.4,10.3c0,0.8,0.1,1.6,0.3,2.4H130c-4.3,0-7.8,3.5-7.8,7.8
		c0,4.3,3.5,7.8,7.8,7.8c4.3,0,7.8-3.5,7.8-7.8c0,0,0,0,0,0l0,0c4.6,1.2,9.4-0.8,11.7-4.9c5.1,3.5,12.1,2.5,16.1-2.1
		c1.2,1.5,2.8,2.5,4.6,2.8c-0.1,0.5-0.1,0.9-0.1,1.4c0,5.9,4.8,10.7,10.7,10.7c5.9,0,10.7-4.8,10.7-10.7
		C191.5,126.2,186.7,121.4,180.9,121.4L180.9,121.4z"/>
	<path class="st3" d="M159.9,187.9c-0.5-0.2-0.9-0.4-1.4-0.6c-2.3,3.6-7.1,4.8-10.7,2.5c-0.6-0.4-1.2-0.9-1.7-1.4
		c-4.1,5.4-11.8,6.5-17.2,2.4c-3.1-2.3-4.9-5.9-4.9-9.8c-5.7,0.5-10.8-3.8-11.2-9.5c-0.1-1.5,0.1-3.1,0.6-4.5
		c0.3-0.8,0.6-1.5,1.1-2.1l-0.3-0.1c-4-1.5-6.1-6-4.6-10c1.5-4,6-6.1,10-4.6c4,1.5,6.1,5.9,4.6,10v0.1c0.9,0.1,1.8,0.3,2.6,0.6
		c3.5,1.3,6.1,4.4,6.7,8.1c6-1.5,12.2,1.8,14.4,7.6c1.6-1,3.5-1.3,5.3-1c0.1-0.5,0.2-0.9,0.4-1.4c2.1-5.5,8.2-8.4,13.7-6.3
		c5.5,2.1,8.4,8.2,6.3,13.7C171.6,187.2,165.4,190,159.9,187.9L159.9,187.9z"/>
	<circle class="st3" cx="117.8" cy="135.1" r="5.6"/>
	<path class="st2" d="M165.4,122.8c-11.5-0.9-22.1,1.6-32.7,6.7c-6.9,3.3,5.1,15.2,15.8,6.3c3.9-1.1,11.6,3.1,15.7-0.6
		c1.6-1.8,5.5-9.1,5.1-10.6S166.9,123,165.4,122.8z"/>
	<path class="st4" d="M149.2,111.4c-0.2,2.1,1.1,1.7,2.4,3.2c1.5,1.7,3.1,0.5,4.6-1C154,109.8,153.6,107.7,149.2,111.4z"/>
	<path class="st4" d="M117.8,142.9c0.2-0.7,0.2-1.4-0.2-2.1c-1-1.8-3.1-1.9-4.9-1.4c-1.2,1.2-1.2,3.1-0.1,4.3c0.9,0.6,1.9,0.9,2.9,1
		C116.4,144.8,117.5,144.8,117.8,142.9z"/>
	<path class="st4" d="M108.9,150.9c1-0.7,1.3-2.4,1.2-3.7c0-1.5-2.2-2.2-4-2.4c-1.3-0.1-2.1,3.5-1.4,4.7
		C105.8,150.5,108.1,151.5,108.9,150.9z"/>
	<path class="st4" d="M109.9,158.4c0.9-0.6,1.1-2,1-3.1c0-1.3-1.8-1.9-3.4-2.1c-1.1-0.1-1.8,2.9-1.2,3.9
		C107.3,158.1,109.2,158.9,109.9,158.4z"/>
	<path class="st4" d="M121,169.4c0.7-0.7,1-1.7,0.9-2.7c0-1.1-1.6-1.6-2.9-1.8c-1-0.1-1.5,2.6-1,3.4
		C118.7,169.1,120.3,169.8,121,169.4z"/>
	<path class="st5" d="M224.8,153.1c-0.1-6,1.6-11.9,4.8-16.9c-12.3,2.4-35.5,6.8-37.4,5.2c-3.8-3.9-3.8-7.7-7.9-11.3
		c-4.4-2.9-12.4-3.9-15.8-8.6c-1.6-1.8-8.8-5.6-10.8-7.1c-2.7-2.5-1.9-4.8-6-5.1c-3.2,0-4.9,3.5-4.5,5c2.6,10.9,17,17.1,17.2,21.7
		c-10.9-3.1-15.8,0.6-26.3,0.7c-5.8,0.2-29.4-3.9-27.1,6.9c-6.2-1.9-12,7.1-2.5,8.7c-3.8,0.5-5.6,7.1,5.1,9.3
		c3.1,0.6,3.2,1.2,6.4,1.6c-10.4,8.6,10.7,10.4,13.6,12c11.2,2.7,18.8,7.7,32.9,7.3c12.6-0.4,30.4-6.3,42.8-9.4
		c2-0.2,12.7-3,19.3-4.8C226.1,163.8,224.8,158.5,224.8,153.1z"/>
	<circle class="st3" cx="121.1" cy="114" r="5.6"/>
	<circle class="st3" cx="134.4" cy="86.1" r="7.1"/>
	<circle class="st3" cx="173.5" cy="100.4" r="3.5"/>
	<path class="st5" d="M213.1,351.7c2-7.8,8.3-13.2,15-13.7c-2.8-2.1-6.3-4.5-9.1-5.3c-3.9-1-7.5-2.9-10.5-5.5
		c-4-4.3-8.6-12.1-13.4-17.2l-26.6,5.6l-4.4,4.6c-7.6,0.8-30.2-0.9-36.2,3c-3.7,6.1,3.6,7.3,8,6.8c2.2,0.1,14-0.5,16.7-0.2
		c3.1,0.4,1.6,0.6,2.4,0.4c2.2-0.5,3.2,1.5,0,1.9c-10.9,0.9-21.8,2.1-32,4.6c-2.7,1.2-3.5,7-0.3,7.7c7.9,0.2,23.3-1.6,28.7-2
		c4.6,0.4,4.9-0.5,8.3-0.1c2.3,2.4-10.2,3.5-11.5,3.9c-5,1.7-29.5-1.1-24,8.8c0.3,0.5,0.8,0.9,1.4,0.9c11-0.2,22.6,0.4,31.3-2.4
		c4.5-0.9,7.5-2.3,7.2,2.5c0,0,0,0.1,0,0.1c-1.1,0.3-2.2,0.8-3.2,1.4c-4.2,2.1-14.1,3.9-18,5.5c-2.7,0.9-3.3,4.3-1.3,6.6
		c1.3,0.7,8-0.6,8.9-0.6c19.5-3.7,42.8-15.8,63.1-5.6C212.2,359.6,212,355.6,213.1,351.7z"/>
	<path class="st4" d="M130.8,327.5c0.6-0.5,1.1-2.7-0.2-3.3c-1.1-0.6-1.5-0.1-1.9,0c-0.8,0.1-1.6,3.5-0.4,3.7
		C129.2,328.2,130.1,328,130.8,327.5z"/>
	<path class="st4" d="M125.6,342.5c0.4-0.6,0.6-2.8-0.2-3.3c-1-0.4-2.1-0.5-3.2-0.3c-0.7,0.4-0.8,4.4,0.2,4.5
		C122.8,343.4,125.1,343.2,125.6,342.5z"/>
	<path class="st4" d="M128.2,354.5c0.6-0.5,0.5-2.9-0.3-3.4c-0.8-0.3-1.6-0.4-2.5-0.2c-0.7,0.3-0.9,4-0.1,4
		C125.7,354.9,127.5,355.1,128.2,354.5z"/>
	<path class="st4" d="M144.5,367.9c0.4-0.5,0-2.6-0.7-2.9s-2,0.5-2.1,0.6c-0.4,0.3,0,2.9,0.6,2.9
		C142.6,368.5,144.1,368.5,144.5,367.9z"/>
	<path class="st3" d="M186.1,322.1c-0.3,3.3-3.2,5.8-6.5,5.5c-3.3-0.3-5.8-3.2-5.5-6.5c0.3-3.3,3.2-5.8,6.5-5.5
		C183.9,315.9,186.4,318.8,186.1,322.1z"/>
	<path class="st3" d="M194.2,321.2c-0.2,2.7-2.6,4.7-5.3,4.5c-2.7-0.2-4.7-2.6-4.5-5.3c0.2-2.7,2.6-4.7,5.3-4.5c0,0,0,0,0,0
		C192.4,316.2,194.4,318.5,194.2,321.2z"/>
	<path class="st3" d="M190,331.2c-0.2,2.2-2.1,3.9-4.3,3.7c-2.2-0.2-3.9-2.1-3.7-4.3c0.2-2.2,2.1-3.9,4.3-3.7c0,0,0,0,0.1,0
		C188.6,327.1,190.2,329,190,331.2z"/>
	<path class="st2" d="M191.5,313L191.5,313z M153.3,295.9c0,0-0.1,0-0.1,0.1L153.3,295.9z"/>
	<path class="st6" d="M224.7,317.4c-0.8-4.8-0.3-9.7,1.5-14.3c-6.7-1.1-17.6-2-22.7-3.8c-3.6-5.1-8.3-9.3-13.8-12.4
		c-4-2.7-17-0.3-20.6-1.6c-3.3-1.3-9.8,1.9-13.5,3.1c-2.1,1-5.6,0.7-6.7,2.8c-0.3,1.5,1.1,4.6,4.6,5c-4,5.3,3.7,9.2,7.5,9.2
		c0,0,0,0,0,0c-0.4,1.8,0.3,5.7,2.1,7l0,0l0,0c-4.5,10.9,7.5,8,14.2,7.7l0,0c3.2-0.6,13.3-0.8,7.7-5.8c2-0.7,4.7-0.2,6.4-1.8
		c1.5,0.3,10.5,11.4,16.9,14.7c0.8,0.1,2.3-1.6,4.6-1.4c1,0.1,8.9,0.6,14.7,0.9C226.2,323.9,225.2,320.7,224.7,317.4z"/>
	<path class="st5" d="M176,317.6c-1.6,0.5-6.9,3-6.9,3c2.8,0,5.5-0.1,8.3-0.4c0,0,7.7-0.1,9.1-2c0.8-1.3,0.3-3-1-3.8
		c-0.1-0.1-0.2-0.1-0.3-0.1C184.4,314,177.6,317.2,176,317.6z"/>
	<path class="st7" d="M167.2,321.1l1.6-0.8c0.2-0.1,5.3-2.6,7-3c0.5-0.2,1.6-0.6,2.9-1.1c4.4-1.8,6.1-2.4,6.7-2.1
		c0.9,0.4,1.6,1.2,1.8,2.2c0.2,0.8,0.1,1.7-0.4,2.4c-1.5,2-8.6,2.1-9.4,2.2c-2.8,0.3-5.5,0.5-8.3,0.4L167.2,321.1z"/>
	<path class="st7" d="M161.3,305.9c-5.6-0.4-10.4-2.5-8.1-10.1c0.1-0.3,1.5-0.1,2.1,0c3.3,1.3,5.9-2.2,9.4-2.5
		c5.2-0.4,9-1.1,12.5,0.3c2,1.2,2.7,3.8,1.5,5.8c-0.4,0.6-0.9,1.1-1.5,1.5c-2,0.5-6.6,1.3-8.1,1.6
		C164.4,302.6,161.7,303.8,161.3,305.9z"/>
	<path class="st5" d="M191,306.4c-0.3,0.1-1,0.2-1.8,0.4h-0.1l-2.7,0.5h-0.1c-3.1,0.5-4.8,1-6.4,1.4c-2.7,0.7-10,2.5-10.7,2.6
		c-1.9,0.4-3.6,0.6-4.5,0.8c-0.1,0-1.1,0.3-1.9,0.5c-0.5-0.7-0.8-1.4-1.1-2.2l-0.2-0.4c-0.6-1.5-0.7-3-0.5-4.6l0,0c0,0,0,0,0,0h-0.2
		c0.4-1,1.2-1.8,2.2-2.3l0,0c0.3-0.1,0.6-0.2,0.9-0.3c0.6-0.1,1.9-0.3,3.6-0.6c1-0.1,2.1-0.3,3.2-0.5h0.1c5.5-0.8,12.2-1.8,12.2-1.8
		s5-0.9,6.1-0.7s1.8,0.3,2.4,1c0.7,0.8,1,1.8,1,2.8C192.6,303.8,192.6,305.9,191,306.4z"/>
	<path class="st7" d="M162.7,313.1l-0.2-0.2c-0.5-0.7-0.9-1.5-1.2-2.3l-0.2-0.4c-0.5-1.4-0.7-2.9-0.6-4.4h-0.3l0.3-0.6
		c0.5-1.1,1.3-1.9,2.3-2.5l0.1,0c0.3-0.1,0.7-0.3,1-0.3c0.6-0.1,1.9-0.3,3.6-0.6l0.6-0.1l2.6-0.4c5.6-0.9,12.3-1.8,12.3-1.8
		c0.5-0.1,5.1-0.9,6.3-0.7l0.5,0.1c0.8,0.1,1.6,0.4,2.2,1c0.7,0.8,1.1,1.9,1.1,3c0.2,2-0.5,3.4-1.9,3.8l0,0c-0.3,0.1-1,0.2-1.8,0.4
		l-2.5,0.5l-0.3,0h-0.1c-3.1,0.5-4.9,1-6.4,1.4c-2.6,0.7-10,2.5-10.8,2.6l-1.5,0.3c-1.3,0.2-2.4,0.4-3,0.5l-0.7,0.2
		c-0.3,0.1-0.8,0.2-1.1,0.3L162.7,313.1z"/>
	<path class="st5" d="M192.5,309.8c-0.1,1-0.2,2.2-1,2.8l0,0c-0.1,0.1-0.1,0.1-0.2,0.2L191,313c-0.6,0.5-1.4,0.8-2.2,0.8h-0.1
		l-1.6,0.2h-0.3l-0.6,0.1l-0.5,0.1c-0.6,0.1-1.2,0.2-1.5,0.3c-0.8,0.3-5.8,2.3-7.1,2.7s-5.8,2.4-8,3.5H169c-1.5,0-3-0.1-4.5-0.3
		c-0.2,0-0.3-0.1-0.5-0.1c-3.2-1.7-1.3-7.4-1.3-7.4c0.2-0.5,4.3-1.1,5.1-1.3c1.3-0.2,3.6-0.6,4.7-0.9c0.9-0.2,6.3-1.8,6.3-1.8
		s3.4-0.7,4.5-0.9c0.5-0.1,1.7-0.4,3-0.7h0.1c0.9-0.2,1.9-0.4,2.7-0.5h0.1c0.6-0.1,1.1-0.1,1.7-0.1c0.9,0.3,1.3,0.6,1.4,1.2
		C192.5,308.5,192.6,309.1,192.5,309.8z"/>
	<path class="st7" d="M165.9,321c-0.5,0-1-0.1-1.4-0.2c-0.2,0-0.4-0.1-0.6-0.2c-3.5-1.9-1.6-7.7-1.5-8c0.2-0.4,0.7-0.7,5.1-1.5
		l1.4-0.3c1.2-0.2,2.8-0.5,3.6-0.7s6.2-1.8,6.3-1.8s3.4-0.7,4.5-0.9c0.5-0.1,1.7-0.4,3-0.7h0.1c1.1-0.2,2-0.4,2.7-0.5
		c0.7-0.2,1.3-0.2,2-0.1c0.9,0.3,1.4,0.6,1.7,1.5c0.2,0.7,0.3,1.4,0.2,2.1v0.1c0,1-0.3,2-1,2.8v0.3h-0.3l-0.1,0.1l-0.3,0.2
		c-0.7,0.5-1.5,0.8-2.4,0.9l-2,0.3l-0.4,0h-0.3c-0.1,0-0.3,0.1-0.4,0.1c-0.8,0.1-1.2,0.2-1.5,0.3s-1.5,0.6-2.8,1.1
		c-1.7,0.7-3.6,1.4-4.3,1.6c-1.2,0.4-5.8,2.4-8,3.4l-0.1,0H169C167.9,321.1,166.8,321,165.9,321z"/>
	<path class="st4" d="M152.7,289.6c0.2,0,0.5,0.8,0.1,1.5c-0.6,0.8-1.6,1.4-2.6,1.5c-1.1,0-1.4-1.6-1.1-1.9
		C150.1,289.8,151.4,289.4,152.7,289.6z"/>
	<path class="st4" d="M174.3,295.3c-0.4,0.4-0.9,2.5,0.7,3.4c0.8,0.5,1.9,0.5,2.7,0c0.6-0.2,1-3.5-0.6-4.3
		C176.1,294.1,175,294.5,174.3,295.3z"/>
	<path class="st4" d="M188.4,301.2c-0.4,0.4-1,2.9,0.5,3.6c0.8,0.5,1.9,0.7,2.8,0.4c0.5-0.1,0.6-3.8-0.2-4.5
		C190.5,300.2,189.2,300.4,188.4,301.2z"/>
	<path class="st4" d="M188.3,308c-0.6,1.3-0.1,2.8,1.1,3.4c0,0,0,0,0,0c1.3,0.6,1.9,0.6,2.4,0.3c0.7-0.4,0.9-3.7-0.5-4.6
		C190.3,306.8,189.1,307.1,188.3,308z"/>
	<path class="st4" d="M183.4,316.5c-0.2,0.8,0,1.8,1.2,1.9s0.9,0.3,1.5-0.3s0.1-3-0.7-3.2C184.4,314.8,183.5,315.5,183.4,316.5z"/>
	<circle class="st3" cx="195.1" cy="310.9" r="2.5"/>
	<path class="st3" d="M176.4,324c-0.1,1.1-1,1.9-2.1,1.8c-1.1-0.1-1.9-1-1.8-2.1c0.1-1.1,1-1.9,2.1-1.8c0,0,0,0,0,0
		C175.7,322,176.5,323,176.4,324z"/>
	<path class="st3" d="M195.6,328.2c-0.1,1.1-1.1,1.9-2.2,1.8c-1.1-0.1-1.9-1.1-1.8-2.2c0.1-1.1,1.1-1.9,2.2-1.8c0,0,0,0,0,0
		C194.9,326.1,195.7,327.1,195.6,328.2z"/>
	<path class="st3" d="M197.8,307.8c-0.1,0.8-0.8,1.4-1.6,1.3c-0.8-0.1-1.4-0.8-1.3-1.6c0.1-0.8,0.8-1.4,1.6-1.3
		C197.3,306.2,197.9,306.9,197.8,307.8C197.8,307.7,197.8,307.7,197.8,307.8z"/>
	<path class="st3" d="M192.1,332.8c-0.1,0.8-0.8,1.4-1.6,1.3c-0.8-0.1-1.4-0.8-1.3-1.6c0.1-0.8,0.8-1.4,1.6-1.3
		C191.5,331.3,192.1,332,192.1,332.8C192.1,332.8,192.1,332.8,192.1,332.8z"/>
	<circle class="st3" cx="170.6" cy="317" r="1.2"/>
	<path class="st3" d="M195.2,323.7c-0.1,0.7-0.7,1.2-1.3,1.1c-0.7-0.1-1.2-0.7-1.1-1.3c0.1-0.7,0.7-1.2,1.3-1.1c0,0,0,0,0,0
		C194.8,322.4,195.3,323,195.2,323.7C195.2,323.7,195.2,323.7,195.2,323.7z"/>
	<path class="st3" d="M200.9,325.6c-0.1,0.6-0.6,1-1.1,0.9c-0.6-0.1-1-0.6-0.9-1.1c0.1-0.6,0.5-1,1.1-0.9
		C200.5,324.5,200.9,324.9,200.9,325.6C200.9,325.5,200.9,325.6,200.9,325.6z"/>
	<path class="st3" d="M184.4,313c0,0.6-0.6,1-1.1,1c-0.6,0-1-0.6-1-1.1c0-0.6,0.5-1,1.1-1C184,311.9,184.4,312.4,184.4,313
		C184.4,313,184.4,313,184.4,313z"/>
	<path class="st3" d="M182.7,313.5c0,0.4-0.4,0.7-0.8,0.7c0,0,0,0,0,0c-0.4-0.1-0.7-0.5-0.6-0.9c0.1-0.4,0.4-0.6,0.7-0.6
		C182.4,312.8,182.7,313.1,182.7,313.5C182.7,313.5,182.7,313.5,182.7,313.5z"/>
	<path class="st3" d="M202.6,311.5c-0.1,0.4-0.5,0.7-0.9,0.6c-0.4-0.1-0.6-0.4-0.6-0.7c0.1-0.4,0.5-0.7,0.9-0.6
		C202.3,310.8,202.6,311.1,202.6,311.5z"/>
	<path class="st3" d="M175.9,330c0,0.4-0.3,0.7-0.8,0.7c-0.4,0-0.7-0.3-0.7-0.8c0,0,0-0.1,0-0.1c0-0.4,0.4-0.7,0.8-0.7c0,0,0,0,0,0
		C175.7,329.2,176,329.6,175.9,330z"/>
	<path class="st3" d="M198.7,320.6c-0.1,0.4-0.5,0.7-0.9,0.6c-0.4-0.1-0.6-0.4-0.6-0.7c0-0.4,0.3-0.7,0.8-0.7c0.4,0,0.7,0.3,0.7,0.8
		C198.7,320.6,198.7,320.6,198.7,320.6z"/>
	<path class="st3" d="M204.6,319.6c0,0.4-0.3,0.7-0.8,0.7c-0.4,0-0.7-0.3-0.7-0.8c0,0,0-0.1,0-0.1c0.1-0.4,0.5-0.7,0.9-0.6
		C204.4,319,204.6,319.3,204.6,319.6z"/>
	<path class="st3" d="M195.2,303.5c0,0.4-0.4,0.7-0.8,0.7s-0.7-0.4-0.7-0.8s0.4-0.7,0.8-0.7S195.2,303.1,195.2,303.5z"/>
	<path class="st3" d="M205.3,320.5c0,0.4-0.3,0.7-0.8,0.7c-0.4,0-0.7-0.3-0.7-0.8c0,0,0-0.1,0-0.1c0.1-0.4,0.5-0.7,0.9-0.6
		C205,319.8,205.3,320.1,205.3,320.5z"/>
	<circle class="st3" cx="170.5" cy="322" r="0.6"/>
	<path class="st3" d="M174.7,306.6c0,0.3-0.3,0.5-0.6,0.5c-0.3,0-0.5-0.3-0.5-0.6c0-0.3,0.3-0.5,0.6-0.5c0,0,0,0,0,0
		C174.5,306,174.7,306.3,174.7,306.6C174.7,306.6,174.7,306.6,174.7,306.6z"/>
	<path class="st3" d="M193.9,306.4c0,0.3-0.3,0.5-0.6,0.5c0,0,0,0,0,0c-0.3,0-0.5-0.3-0.5-0.6c0-0.3,0.3-0.5,0.6-0.5
		C193.7,305.8,193.9,306.1,193.9,306.4C193.9,306.4,193.9,306.4,193.9,306.4z"/>
	<path class="st3" d="M180.8,330c0,0.6-0.5,1-1.1,1s-1-0.5-1-1.1c0,0,0-0.1,0-0.1c0.1-0.6,0.6-1,1.2-0.9
		C180.4,329,180.8,329.5,180.8,330z"/>
	<path class="st3" d="M194.6,330.5c-0.1,0.6-0.6,1-1.1,1s-1-0.6-1-1.1c0-0.6,0.5-1,1.1-1C194.2,329.4,194.7,329.9,194.6,330.5
		C194.6,330.5,194.6,330.5,194.6,330.5z"/>
	<path class="st3" d="M190.1,327.7c0,0.6-0.6,1-1.1,1c-0.6,0-1-0.6-1-1.1c0-0.6,0.5-1,1.1-1C189.7,326.6,190.1,327.1,190.1,327.7
		C190.1,327.7,190.1,327.7,190.1,327.7z"/>
	<path class="st3" d="M192.6,315c0,0.6-0.6,1-1.1,1c-0.6,0-1-0.6-1-1.1c0-0.6,0.5-1,1.1-1C192.2,313.9,192.7,314.4,192.6,315
		C192.6,315,192.6,315,192.6,315z"/>
	<path class="st3" d="M199.7,315c-0.1,0.7-0.7,1.2-1.3,1.1c-0.7-0.1-1.2-0.7-1.1-1.3c0.1-0.7,0.7-1.2,1.3-1.1c0,0,0,0,0,0
		C199.3,313.7,199.8,314.3,199.7,315z"/>
	<path class="st2" d="M122.1,244c9.6-2.3,3.4-13.9-4.8-9.3c-3.3-8.9-14.9-0.8-22,0.3c-5.2-8.6-7.5-2.5-16.9-0.3
		c-14.5,6.3-18.9-0.6-29.6,7.3c-9.6,6.9-7.4,14.4-34.1,25.8l-0.3,0.1c5.9,2.8,10.2,8.2,11.6,14.6c0.6,2.6,0.8,5.3,0.4,8
		c24.7-11.5,28.4,3,50.4-2.4c13.7-3.4,20.2-5.1,31.5-9.7c-4.3-10.7-10-6.1-20.4-8C92.2,263.6,140.6,254.3,122.1,244z"/>
	<path class="st8" d="M79.1,268.3c4.4-8.9-4.8-19.4-13.8-19.8C74.1,250.3,81.7,259.5,79.1,268.3z"/>
	<path class="st4" d="M98.2,277.9c-1.7-0.9,5.6-4.1,7-2.9C107.2,277.5,100.9,277.9,98.2,277.9z"/>
	<path class="st3" d="M73.3,247c-0.2,4.7,3.3,8.6,8,8.9c4.7,0.2,8.6-3.3,8.9-8c0.2-4.7-3.3-8.6-8-8.9c0,0,0,0,0,0
		C77.5,238.8,73.5,242.3,73.3,247z"/>
	<path class="st3" d="M86.6,245.5c-0.2,3.2,2.3,6,5.6,6.2c3.2,0.2,6-2.3,6.2-5.6c0.2-3.2-2.3-6-5.6-6.2c0,0,0,0,0,0
		C89.6,239.7,86.8,242.2,86.6,245.5z"/>
	<path class="st3" d="M87.1,257.3c-0.1,2.2,1.6,4.1,3.8,4.2c2.2,0.1,4.1-1.6,4.2-3.8c0.1-2.2-1.6-4-3.8-4.2
		C89.2,253.4,87.3,255,87.1,257.3C87.1,257.3,87.1,257.3,87.1,257.3z"/>
	<path class="st3" d="M64.7,259.2c-0.1,2.2,1.6,4.1,3.8,4.2c2.2,0.1,4.1-1.6,4.2-3.8c0.1-2.2-1.6-4-3.8-4.2
		C66.7,255.2,64.8,256.9,64.7,259.2C64.7,259.1,64.7,259.1,64.7,259.2z"/>
	<path class="st3" d="M53.4,254.4c-0.1,1.9,1.4,3.5,3.3,3.6c1.9,0.1,3.5-1.4,3.6-3.3c0.1-1.9-1.4-3.5-3.3-3.6c0,0,0,0,0,0
		C55.1,251,53.5,252.5,53.4,254.4z"/>
	<path class="st3" d="M46.9,257.5c-0.1,1.5,1.1,2.8,2.6,2.9c1.5,0.1,2.8-1.1,2.9-2.6c0.1-1.5-1.1-2.8-2.6-2.9c0,0,0,0,0,0
		C48.3,254.8,47,256,46.9,257.5C46.9,257.5,46.9,257.5,46.9,257.5z"/>
	<path class="st3" d="M94.4,240.7c-0.1,1.3,0.9,2.4,2.2,2.5s2.4-0.9,2.5-2.2s-0.9-2.4-2.2-2.5c0,0,0,0,0,0
		C95.6,238.4,94.5,239.4,94.4,240.7z"/>
	<path class="st3" d="M69.3,248.2c-0.1,1.1,0.8,2,1.9,2.1c1.1,0.1,2-0.8,2.1-1.9s-0.8-2-1.9-2.1c0,0,0,0,0,0
		C70.3,246.2,69.3,247.1,69.3,248.2z"/>
	<path class="st3" d="M44.2,257.4c0,0.9,0.7,1.7,1.6,1.8c0.9,0,1.7-0.7,1.8-1.6c0-0.9-0.7-1.7-1.6-1.8c0,0,0,0,0,0
		C45.1,255.7,44.3,256.4,44.2,257.4C44.2,257.4,44.2,257.4,44.2,257.4z"/>
	<path class="st3" d="M94.5,256c0,0.9,0.7,1.7,1.6,1.8c0.9,0,1.7-0.7,1.8-1.6c0-0.9-0.7-1.7-1.6-1.8C95.3,254.3,94.5,255.1,94.5,256
		z"/>
	<path class="st3" d="M69.2,261.9c-0.1,1.4,1,2.5,2.3,2.6c1.4,0.1,2.5-1,2.6-2.3c0.1-1.4-1-2.5-2.3-2.6
		C70.5,259.5,69.3,260.5,69.2,261.9C69.2,261.9,69.2,261.9,69.2,261.9z"/>
	<path class="st3" d="M72.5,246.9c0,0.7,0.5,1.3,1.2,1.3c0.7,0,1.3-0.5,1.3-1.2c0-0.7-0.5-1.3-1.2-1.3c0,0,0,0,0,0
		C73.1,245.7,72.5,246.2,72.5,246.9z"/>
	<path class="st3" d="M71.9,257.3c0,0.7,0.5,1.3,1.2,1.3s1.3-0.5,1.3-1.2c0-0.7-0.5-1.3-1.2-1.3C72.6,256.1,72,256.6,71.9,257.3
		C71.9,257.3,71.9,257.3,71.9,257.3z"/>
	<path class="st3" d="M41.3,248.7c0,0.6,0.4,1.1,1,1.1c0.6,0.1,1.1-0.3,1.2-0.9s-0.3-1.1-0.9-1.2c-0.1,0-0.1,0-0.2,0
		C41.8,247.7,41.3,248.1,41.3,248.7z"/>
	<path class="st3" d="M67.9,266.4c0,0.6,0.4,1.1,1,1.2c0.6,0,1.1-0.4,1.2-1c0-0.6-0.4-1.1-1-1.2c0,0,0,0,0,0
		C68.4,265.4,67.9,265.8,67.9,266.4z"/>
	<path class="st3" d="M43.2,253.4c0,0.7,0.5,1.3,1.2,1.3c0.7,0,1.3-0.5,1.3-1.2c0-0.7-0.5-1.3-1.2-1.3c0,0,0,0,0,0
		C43.8,252.2,43.2,252.7,43.2,253.4z"/>
	<path class="st3" d="M82.6,256.6c0,0.7,0.5,1.3,1.2,1.3c0.7,0,1.3-0.5,1.3-1.2c0-0.7-0.5-1.3-1.2-1.3
		C83.2,255.4,82.6,255.9,82.6,256.6z"/>
	<path class="st3" d="M98.2,251.6c0,0.7,0.5,1.3,1.2,1.3c0.7,0,1.3-0.5,1.3-1.2s-0.5-1.3-1.2-1.3C98.8,250.4,98.3,250.9,98.2,251.6
		L98.2,251.6z"/>
	<path class="st3" d="M46.9,247c0,0.7,0.5,1.3,1.2,1.3c0.7,0,1.3-0.5,1.3-1.2c0-0.7-0.5-1.3-1.2-1.3c0,0,0,0,0,0
		C47.5,245.8,46.9,246.3,46.9,247z"/>
	<path class="st3" d="M89.4,238.6c0,0.7,0.5,1.3,1.2,1.3c0.7,0,1.3-0.5,1.3-1.2c0-0.7-0.5-1.3-1.2-1.3
		C90,237.4,89.4,237.9,89.4,238.6C89.4,238.6,89.4,238.6,89.4,238.6z"/>
	<path class="st3" d="M53.1,251.3c-0.3,5.6,4,10.3,9.6,10.6c5.6,0.3,10.3-4,10.6-9.6s-4-10.3-9.6-10.6c0,0,0,0,0,0
		C58.1,241.4,53.4,245.7,53.1,251.3z"/>
	<path class="st5" d="M97.1,223.6c-0.2-1.5-0.8-3-1.7-4.1c-1.7-0.8-3.5-1.5-5.3-2c-2.9-0.9-4.7-1.5-5.2-2c-0.8-0.6-1.7-1-2.7-1
		c-0.8-0.1-1.5-0.3-2.2-0.6c-1.2-0.5-2.5-0.9-3.8-1.2c-5.3-1.5-13.3-3.8-15.4-6.9c-1.2-2.1-3.2-3.7-5.6-4.4
		c-0.9-0.2-1.8-0.7-2.5-1.4c-2.7-2.8-10-12.7-16.8-22.1c0.1,2.6-0.1,5.2-0.8,7.8c-1.6,7-6,13-12.2,16.6c4,4.1,6.6,6.9,8,8.4
		c2.3,2.4,6,8.3,6.8,13.1c0.1,1.5,0,2.9-0.2,4.3c-0.5,3.7-0.6,7.5-0.4,11.3c0.3,3.6,1.6,4.9,2.9,5.6c0.6,0.3,1.2,0.6,1.8,0.9
		c0.5,0.2,0.9,0.4,1.3,0.6l0.5,0.3c0.7,0.4,1.8,1,3,1.6c0.7,0.4,1.4,0.7,2.1,1c0.8,0.4,1.7,0.8,2.6,1c1.7,0.4,3.4,0.9,5,1.4
		c0.9,0.3,1.8,0.6,2.5,0.9l0.8,0.3c0.1,0,0.3,0.1,0.4,0.1c0.5,0.2,1.1,0.2,1.7,0.3h0.3c0.2,0,0.4-0.1,0.6-0.1c0.4-0.1,0.7-0.3,1-0.5
		c0.1-0.1,0.3-0.2,0.4-0.2c0.2,0,0.3,0.1,0.5,0.2c0.1,0.2,0.3,0.3,0.5,0.4c0.7,0.4,1.4,0.8,2.1,1c0.9,0.3,1.8,0.5,2.8,0.5
		c0.5,0,1,0,1.5-0.1c0.3-0.1,0.5-0.1,0.8-0.3c0.6-0.3,1.1-0.7,1.5-1.1c0.9-1,1.6-2.2,2.1-3.5c0.1-0.1,0.2-0.3,0.3-0.3
		c0.1,0,0.2,0,0.3,0c0.1,0,0.1,0,0.2,0l0.2,0.1c1.1,0.5,2.3,0.4,3.4-0.1c2.3-1,5.4-4.4,5.8-4.9c0.1-0.1,0.3-0.2,0.5-0.2
		c0.2,0,0.3,0,0.5-0.1c0.4-0.1,0.7-0.2,1.1-0.4c1.2-0.5,2.3-1.2,3.3-2c0.1-0.1,0.3-0.2,0.4-0.4c1.2-1.7,2.2-3.6,2.8-5.6
		c0.1-0.2,0.3-0.3,0.5-0.4c0.8-0.2,1.3-1.2,1.8-3.3c0.1-0.5,0.2-1.1,0.3-1.6l0.2-1.2C97.5,227.5,97.4,225.5,97.1,223.6z"/>
	<path class="st4" d="M65.4,245.4c-1,0.1-2.4,0.5-2.5,2.7c-0.1,2.6,0.7,4.2,1.4,4.5c4.7,2.1,5.9,1.6,5.8,1.5c-0.9-0.9-3.8-2-1.9-7.6
		C68.4,246,66.2,245.4,65.4,245.4z"/>
	<path class="st9" d="M71.8,253.9c0.1,0,0.3-0.1,0.4-0.1c0.1-0.1,2.7-2.6,2.7-5.3c0-6.3-6-8.1-11.2-9.8c-0.9-0.3-1.7-0.5-2.5-0.8
		c-4.6-1.6-8.5-3.3-8.6-3.4c-0.3-0.1-0.6,0-0.7,0.3c-0.1,0.3,0,0.6,0.3,0.7c0,0,4,1.7,8.6,3.4c0.8,0.3,1.7,0.6,2.5,0.8
		c5.1,1.6,10.5,3.3,10.5,8.8c0,2.2-2.3,4.5-2.3,4.5c-0.2,0.2-0.2,0.5,0,0.7c0,0,0,0,0,0C71.6,253.8,71.7,253.9,71.8,253.9z"/>
	<circle class="st3" cx="53.7" cy="77.1" r="40.1"/>
	<path class="st10" d="M88.6,46.6l3.4-3.4c1.4-1.4,1.4-3.7,0-5.2c-1.4-1.4-3.7-1.4-5.2,0l-3.5,3.5c-5.9-5-13-8.3-20.5-9.8v-8.9h1.1
		c1.9,0,3.4-1.5,3.4-3.4c0-1.9-1.5-3.4-3.4-3.4H43.7c-1.9,0-3.4,1.5-3.4,3.4c0,1.9,1.5,3.4,3.4,3.4h1.2v8.9
		c-7.5,1.5-14.5,4.8-20.4,9.7L21.1,38c-1.4-1.4-3.7-1.4-5.2,0c-1.4,1.4-1.4,3.7,0,5.2l3.2,3.2c-16.9,19.1-15,48.3,4.1,65.2
		s48.3,15,65.2-4.1C103.8,90.1,103.8,64,88.6,46.6L88.6,46.6z M53.8,115.7C32.4,115.7,15,98.3,15,76.9C15,55.4,32.4,38,53.8,38
		s38.8,17.4,38.8,38.8c0,0,0,0,0,0C92.6,98.3,75.2,115.7,53.8,115.7z"/>
	<line class="st11" x1="18.8" y1="60.3" x2="16.3" y2="57.8"/>
	<line class="st11" x1="67.8" y1="62.4" x2="72.3" y2="57.8"/>
	<path class="st12" d="M41.9,84.8h8v3.4H37.3v-1.4c0-0.9,0.2-1.7,0.5-2.5c0.3-0.7,0.7-1.4,1.3-2c0.5-0.6,1-1.1,1.6-1.6
		c0.6-0.5,1.1-0.9,1.6-1.3c0.5-0.3,1-0.7,1.4-1.1c0.4-0.3,0.7-0.7,1-1.1c0.3-0.3,0.5-0.7,0.6-1.1c0.1-0.4,0.2-0.8,0.2-1.2
		c0.1-0.7-0.2-1.3-0.7-1.8c-0.6-0.4-1.3-0.7-2.1-0.6c-1.7,0-3.4,0.7-4.6,1.9v-3.7c1.6-1.1,3.6-1.6,5.5-1.6c0.9,0,1.7,0.1,2.5,0.4
		c0.7,0.2,1.3,0.6,1.9,1.1c0.5,0.5,0.9,1.1,1.2,1.7c0.3,0.7,0.4,1.4,0.4,2.2c0,0.8-0.1,1.6-0.4,2.3c-0.3,0.7-0.6,1.3-1,1.9
		c-0.5,0.6-1,1.1-1.5,1.5c-0.6,0.5-1.2,0.9-1.8,1.3l-1.3,0.9c-0.4,0.3-0.7,0.6-1,0.9c-0.3,0.2-0.5,0.5-0.7,0.8
		C41.9,84.3,41.9,84.6,41.9,84.8z"/>
	<path class="st12" d="M59.2,88.6c-4.5,0-6.7-3.1-6.7-9.4c-0.2-2.6,0.5-5.2,1.8-7.4c1.2-1.7,3.2-2.6,5.2-2.5c4.3,0,6.5,3.2,6.5,9.5
		c0.2,2.5-0.5,5.1-1.8,7.3C63.2,87.7,61.2,88.7,59.2,88.6z M59.4,72.4c-1.8,0-2.7,2.2-2.7,6.7c0,4.2,0.9,6.3,2.6,6.3
		s2.6-2.2,2.5-6.5C61.9,74.6,61.1,72.4,59.4,72.4z"/>
	<path class="st12" d="M73.5,69.1L71,74.9h-2.5l1.5-5.8H73.5z M78.9,69.1l-2.5,5.8h-2.6l1.5-5.8H78.9z"/>
</g>
</svg>
