<svg xmlns="http://www.w3.org/2000/svg" viewBox="0 0 128 128.017"><defs><style>.cls-1{isolation:isolate;}.cls-2{fill:#e95653;}.cls-3{opacity:0.15;mix-blend-mode:multiply;}.cls-4{fill:none;}.cls-5{fill:#fff;}.cls-6{fill:#fbdddd;}</style></defs><title>icon-breitbandausnutzung</title><g class="cls-1"><g id="Layer_2" data-name="Layer 2"><g id="Fondos"><ellipse class="cls-2" cx="63.95" cy="63.664" rx="63.95" ry="63.664"/><path class="cls-3" d="M124.129,42.208c-.106-.288-.224-.576-.338-.864l-16.3-12.773c-.012.022-.028.053-.04.073-.017,0-.017,0-.017.017-.01-.055-.017-.1-.025-.154l-.323-.253c-.038.068-.079.136-.113.2h-.017c-.023-.117-.04-.234-.058-.351l-.2-.158h-.029c-.068.119-.119.221-.17.322h-.017c-.034-.169-.051-.339-.086-.509h-.2a2.41,2.41,0,0,1-.188.306,4.983,4.983,0,0,1-.085-.493h-.2L90.517,15.351l-.015-.092-.006,0-.03.045-.8-.628-.528-.442.019-.026-.051-.04.015.066-.529-.424.022-.028-.063-.049.007.043L86.722,12.3,72.906,1.471l-.21.281-.109-.53-.247-.194.034-.043a2.114,2.114,0,0,0-.309-.031,4.384,4.384,0,0,0-.443-.067C71.4.87,71.179.836,70.94.8L70.7.513l-.1.255C70.224.717,69.866.717,69.49.683l-.1-.136-.051.119C69.03.649,68.706.615,68.4.6V.564h-.1L68.28.581c-1.4-.085-2.8-.153-4.23-.153-1.671,0-3.325.085-4.962.221V.428h-.1l-.2.238c-.29.017-.6.034-.887.068l-.17-.255-.171.272c-.273.034-.563.085-.836.119V.5h-.085L56.257.92l-.341.051A1.5,1.5,0,0,0,55.643,1l-.29-.458-.324.526-.358.051L54.569,1l-.222.119L54.023.581,53.955.6l-.409.611L53.58,1h-.1l-.358.374-.136.152-.068.459.341-.323L52.88,4.4h.256l.137-1.053.153,1.477h.256l.119-.9.034-.017.256.493-.119.832h.256l.119-.883.034-.017.256.492-.085.662-.188-.1-.682.951-.375-.492-.171.085-.375-.51-.085.034-.682,1.409.119-1.018h-.1l-.563.594.119-1h-.119l-.6.611-.068.544.409-.374-.443,3.277.29-.017.324-2.5.375-.339L51.3,9.9h.29l.323-2.5.035-.017-.1,2.938.29-.017.12-.8h.017l.17-.068-.051,1.29h.29l.119-.815.017.017.171-.085-.051,1.308h.051a1.273,1.273,0,0,1-.188.237c-.068.085-.136.17-.187.238.017-.238.051-.475.085-.7h-.154c-.085.1-.153.187-.221.271s-.137.153-.188.221a1.94,1.94,0,0,1-.205.187l-.2.153c-.034.254-.068.492-.1.747a1.414,1.414,0,0,0,.306-.221c.086-.085.171-.187.256-.289a.185.185,0,0,1-.017.085l-.409.578-.307-.153-.136.034-.41-.459-.136.034-.426-.441-.1.017-1.091,1.426.136-1.019h-.153l-.529.611.137-1.035-.154.017-.8.832-.1.73.546-.51-.6,4.414h.392l.768-3.989-.614,4.414.392-.017.767-3.973L48.719,18h.393l.153-1.171.188.271-.188,1.325.409-.017.154-1.155.17.255-.187,1.324h.409l.154-1.171.17.271-.187,1.325h.153a1.6,1.6,0,0,0-.17.186.815.815,0,0,0-.137.119c.034-.2.085-.424.119-.628a.637.637,0,0,0-.187.017c-.1.1-.188.2-.273.306-.1.084-.188.169-.256.237l-.256.2c-.085.051-.17.119-.255.17-.017.119-.052.22-.068.339l-.12-.1H48.89l-.529-.407-.9.883.017-.051h-.2l-.529.56.171-.968h-.188l-.528.544.17-.968h-.187l-1.041.934-.153.814.716-.56-.938,4.907h.5l.784-4.3.2-.186-.938,4.906H45.8l.785-4.3.2-.2-.937,4.907h.494l.358-1.9L46.4,27.048h.5l.239-1.29.119.068-.307,1.646.512-.017.221-1.273.137.051-.324,1.647H48l.222-1.29.136.068L48.037,28.3l.512-.017.222-1.273.136.051-.324,1.647H49.1l.221-1.223.137.017-.29,1.477a.687.687,0,0,0-.256-.051c-.443,0-.853.323-1.228.951V29.9a6.389,6.389,0,0,0-.545,1.223l-.034.033L44.951,29.7l-2.507,6.231,5.525,4.584a2.3,2.3,0,0,0-1.432,1,.656.656,0,0,1-.086.153.543.543,0,0,0-.238-.051.935.935,0,0,0-.478-.2,1.093,1.093,0,0,0-.477-.186,1.086,1.086,0,0,0-.478-.187.913.913,0,0,0-.477-.187.983.983,0,0,0-.495-.186.909.909,0,0,0-.648-.221,1.51,1.51,0,0,0-.273.034c-.2.373-.392.764-.579,1.137a.814.814,0,0,1,.494-.187c.051,0,.085.051.137.068-.052.1-.1.2-.154.306a.878.878,0,0,1,.375-.153.834.834,0,0,1,.1.459l-1.16,1L39.2,41.19l-.273.051-.58,1.137.495-.187.273.153-.222.442.358-.153-1.876,5.314.392-1.579-.938,1.664.393-2.089-.938,1.681.392-2.088L35.213,48.15l5.935,4.856a3.675,3.675,0,0,0-2.115,1.154c-.085.085-.17.187-.255.289l-1.109-.73-.75.543a1.191,1.191,0,0,0-.051-.238,5.113,5.113,0,0,1-.324.493,2.014,2.014,0,0,0-.154-.679c-.1.169-.222.322-.324.492a2,2,0,0,0-.153-.679c-.1.17-.222.322-.324.492a1.91,1.91,0,0,0-.154-.679c-.494.781-1.023,1.562-1.552,2.326-.034.119-.085.255-.136.391l-.068-.306-.427.645-.119-1.053-.426.646-.12-1.07-.426.645-.12-1.052-.426.645-.119-1.07-6.071,8.608.972-.153-.426.577.989-.153-.444.561.989-.153-.443.577.989-.153-.443.56.989-.153-.427.578.972-.153-.426.56.972-.153-.426.578.972-.153-.426.577.972-.17-.427.577.972-.152L30.9,67l.972-.17-.426.577.989-.153-.41.527a6.17,6.17,0,0,0-1.739.866l-.46-.306-1.365.713a.764.764,0,0,0-.1-.2c-.085.085-.153.187-.239.272a1.45,1.45,0,0,0-.239-.458c-.085.085-.153.186-.238.271a1.572,1.572,0,0,0-.239-.475,3.579,3.579,0,0,0-.239.289,1.563,1.563,0,0,0-.238-.476,3.381,3.381,0,0,0-.239.289,1.782,1.782,0,0,0-.239-.476c-.085.1-.171.187-.239.272a1.925,1.925,0,0,0-.238-.458,3.224,3.224,0,0,0-.239.271,1.967,1.967,0,0,0-.239-.458c-.085.085-.17.187-.239.272a2.077,2.077,0,0,0-.238-.476c-.614.73-1.245,1.46-1.876,2.19-.051.119-.137.289-.188.425l-.256-.595-.238.272-.307-.7-.239.289-.307-.7-.239.271-.307-.7-8.373,9.168.989-.034-.443.458.989-.034-.426.441.972-.033-.427.458.989-.034-.443.442.989-.034-.443.458.989-.034-.444.441.989-.034-.443.459.989-.034-.443.441.989-.034-.444.459.99-.034-.41.407a7.112,7.112,0,0,0-1.176-.255,10.73,10.73,0,0,0-5.986.951c-.137.068-.256.136-.375.2a9.3,9.3,0,0,0-1.058.594l-2.523-.034L4.176,86.4l-.017.017c.069.169.137.356.222.543.068.187.137.39.222.577a61.439,61.439,0,0,0,2.984,6.434,62.266,62.266,0,0,0,3.956,6.435h.018v.017a63.98,63.98,0,0,0,33.782,24.565c1.347.408,2.728.764,4.127,1.087.239.051.477.119.716.17,1.126.237,2.234.475,3.377.645a3.387,3.387,0,0,0,.409.068.862.862,0,0,0,.222.034,1.8,1.8,0,0,0,.324.068c-.017-.017-.052-.017-.069-.034a63.294,63.294,0,0,0,17.736.2c.648-.085,1.3-.153,1.927-.254a63.873,63.873,0,0,0,16.149-4.8c.12-.051.256-.119.392-.17a1.665,1.665,0,0,1,.256-.118,64.322,64.322,0,0,0,16.9-11.375c.119-.1.222-.221.341-.323.119-.118.256-.237.375-.356A63.376,63.376,0,0,0,127.2,74.159c.086-.492.154-1,.222-1.511a63.794,63.794,0,0,0,.58-8.115v-.441a63.652,63.652,0,0,0-2.012-15.908A59.456,59.456,0,0,0,124.129,42.208ZM53.887,1.243H53.87l.1-.238Z"/><path class="cls-4" d="M75.008,29.719c-.482.01-.586.946-.281,2.808.287,1.743.7,2.612,1.216,2.6s.582-.9.249-2.675C75.85,30.621,75.466,29.709,75.008,29.719Z"/><path class="cls-4" d="M92.661,69.287c-1.388.094-1.532,1.521-.369,4.307,1.094,2.609,2.44,3.864,3.986,3.73,1.529-.132,1.616-1.51.322-4.123C95.269,70.5,93.98,69.2,92.661,69.287Z"/><path class="cls-4" d="M34.152,104.654c-2.859-.279-4.994,1.553-6.483,5.641-1.4,3.823-.517,6.021,2.721,6.429,3.184.4,5.306-1.5,6.3-5.515C37.718,107.055,36.852,104.923,34.152,104.654Z"/><path class="cls-4" d="M78.622,32.443c.389,1.742.859,2.605,1.375,2.592s.529-.9.092-2.669c-.448-1.828-.881-2.738-1.341-2.727C78.265,29.65,78.209,30.586,78.622,32.443Z"/><path class="cls-4" d="M71.255,11.42c-.3.007-.4.733-.287,2.175.1,1.35.314,2.02.619,2.013s.383-.7.264-2.068C71.729,12.121,71.536,11.412,71.255,11.42Z"/><path class="cls-4" d="M73.308,13.538c.14,1.35.37,2.021.674,2.013s.363-.694.207-2.069c-.161-1.42-.371-2.127-.652-2.121S73.159,12.093,73.308,13.538Z"/><path class="cls-4" d="M76.154,24.152c.377-.008.424-.777.169-2.309-.262-1.587-.551-2.375-.9-2.367-.363.007-.437.818-.195,2.428C75.458,23.41,75.774,24.159,76.154,24.152Z"/><path class="cls-4" d="M85.2,54.291c-1.007.038-1.122,1.323-.283,3.866.789,2.378,1.768,3.547,2.887,3.489s1.164-1.294.233-3.692C87.083,55.47,86.161,54.252,85.2,54.291Z"/><path class="cls-4" d="M73.16,24.216c.376-.009.456-.78.26-2.311-.2-1.586-.463-2.375-.809-2.367-.364.008-.465.818-.285,2.429C72.5,23.474,72.779,24.224,73.16,24.216Z"/><path class="cls-4" d="M96.694,61.131c1.137-.075,1.031-1.285-.23-3.631-1.3-2.429-2.388-3.617-3.367-3.569-1.026.052-.995,1.319.181,3.812C94.386,60.076,95.548,61.205,96.694,61.131Z"/><path class="cls-4" d="M84.3,44.494c.644,1.962,1.365,2.927,2.117,2.9s.726-1.035,0-3.02c-.749-2.053-1.419-3.07-2.076-3.051C83.647,41.344,83.616,42.4,84.3,44.494Z"/><path class="cls-4" d="M80.543,47.59c.735-.023.808-1.038.262-3.039-.561-2.071-1.143-3.094-1.794-3.079-.684.02-.8,1.077-.3,3.187C79.176,46.635,79.8,47.612,80.543,47.59Z"/><path class="cls-4" d="M40.659,86.155c-2.092-.125-3.663,1.6-4.784,5.271-1.056,3.435-.421,5.3,1.965,5.492,2.344.193,3.911-1.548,4.656-5.107C43.262,88.13,42.633,86.278,40.659,86.155Z"/><path class="cls-4" d="M6.157,91.973a1.745,1.745,0,0,1,.731.344,9.448,9.448,0,0,0,4.394-3.833c2.217-3.242,2.237-5,.167-5.276s-4.256.985-6.654,3.736C5.283,88.612,5.72,90.292,6.157,91.973Z"/><path class="cls-4" d="M42.127,47.888c.71.01,1.314-.979,1.774-2.967.475-2.056.378-3.083-.249-3.086-.666,0-1.254,1.031-1.809,3.113C41.321,46.9,41.4,47.876,42.127,47.888Z"/><path class="cls-4" d="M50.108,54.813c-.964-.012-1.638,1.253-2.06,3.814-.4,2.4-.075,3.62.993,3.641,1.048.021,1.725-1.2,2.007-3.653C51.339,56.083,51.018,54.825,50.108,54.813Z"/><path class="cls-4" d="M45.525,78.474c1.447.062,2.384-1.3,2.788-4.031.414-2.828-.014-4.235-1.26-4.276-1.32-.04-2.261,1.343-2.865,4.19C43.618,77.024,44.053,78.412,45.525,78.474Z"/><path class="cls-4" d="M43.155,35.524c.492,0,.942-.877,1.317-2.628.387-1.813.343-2.714-.1-2.711-.47,0-.9.925-1.339,2.762C42.624,34.667,42.652,35.524,43.155,35.524Z"/><path class="cls-4" d="M71.747,8.349c.213-.005.257-.492.146-1.466-.114-1-.263-1.506-.461-1.5s-.268.518-.163,1.542C71.368,7.879,71.531,8.354,71.747,8.349Z"/><path class="cls-4" d="M56.676,8.5q.32-.007.361-1.521c.029-1.044-.057-1.565-.254-1.56s-.331.539-.371,1.6Q56.354,8.514,56.676,8.5Z"/><path class="cls-4" d="M50.569,20.009c-.35,0-.614.81-.809,2.408-.183,1.494-.1,2.239.269,2.234s.63-.769.792-2.291C50.988,20.787,50.9,20,50.569,20.009Z"/><path class="cls-4" d="M52.686,41.851c-.659,0-1.1,1.051-1.339,3.161-.226,1.975.01,2.966.724,2.97s1.142-1.007,1.3-3.019C53.543,42.881,53.308,41.85,52.686,41.851Z"/><path class="cls-4" d="M24.885,77.077c1.493.14,2.861-1.1,4.036-3.695,1.208-2.684,1.133-4.062-.152-4.151-1.364-.095-2.712,1.193-4.13,3.87C23.3,75.6,23.361,76.934,24.885,77.077Z"/><path class="cls-4" d="M70.05,8.389c.214-.006.272-.494.188-1.465-.087-1.005-.224-1.507-.422-1.5s-.281.519-.2,1.54C69.686,7.919,69.834,8.393,70.05,8.389Z"/><path class="cls-4" d="M70.618,2.952c.175,0,.211-.4.12-1.2C70.645.928,70.523.518,70.36.522s-.219.424-.133,1.262C70.308,2.567,70.442,2.956,70.618,2.952Z"/><path class="cls-4" d="M69.229,2.985c.175,0,.222-.4.153-1.2C69.311.963,69.2.551,69.037.556s-.23.425-.167,1.261C68.931,2.6,69.052,2.989,69.229,2.985Z"/><path class="cls-4" d="M57.245,3.1q.267-.007.3-1.274C57.571.952,57.5.515,57.334.519s-.277.452-.311,1.341C56.991,2.693,57.064,3.106,57.245,3.1Z"/><path class="cls-4" d="M34.12,61.757c1.074.053,2.05-1.122,2.868-3.5.842-2.466.766-3.7-.161-3.736-.986-.03-1.934,1.192-2.922,3.672C32.972,60.513,33.023,61.7,34.12,61.757Z"/><path class="cls-4" d="M68.816,35.269c.5-.009.673-.9.518-2.679-.159-1.837-.459-2.749-.916-2.74-.482.01-.669.943-.548,2.81C67.984,34.407,68.3,35.278,68.816,35.269Z"/><path class="cls-4" d="M79.9,97.467c2.366-.131,3.11-2.036,2.266-5.611-.868-3.694-2.282-5.451-4.282-5.365-2.11.095-2.9,1.984-2.359,5.781C76.036,95.83,77.5,97.6,79.9,97.467Z"/><path class="cls-4" d="M49.428,16.129c.287-.008.509-.689.652-2.052.147-1.409.081-2.111-.185-2.1-.282.006-.5.729-.665,2.158C49.074,15.472,49.136,16.136,49.428,16.129Z"/><path class="cls-4" d="M53.493,7.1c-.087.991-.026,1.484.19,1.479s.36-.511.438-1.519c.08-1.045.018-1.563-.179-1.558S53.587,6.035,53.493,7.1Z"/><path class="cls-4" d="M76.7,74.374c-.533-2.835-1.422-4.212-2.693-4.177-1.34.04-1.839,1.484-1.478,4.377.34,2.711,1.261,4.067,2.754,4.012C76.755,78.535,77.219,77.115,76.7,74.374Z"/><path class="cls-4" d="M72.538,62.223c1.073-.026,1.406-1.282,1.02-3.738-.4-2.542-1.046-3.789-1.98-3.771-.985.02-1.348,1.314-1.071,3.9C70.767,61.039,71.449,62.249,72.538,62.223Z"/><path class="cls-4" d="M54.737,3.16c.178,0,.3-.429.367-1.273.067-.876.015-1.31-.15-1.306s-.3.451-.376,1.339C54.505,2.751,54.556,3.164,54.737,3.16Z"/><path class="cls-4" d="M70.31,47.841c.723-.013.955-1.036.713-3.055-.248-2.087-.684-3.123-1.327-3.111-.678.011-.933,1.078-.751,3.2C69.117,46.86,69.576,47.856,70.31,47.841Z"/><path class="cls-4" d="M51.987,8.613c.212,0,.376-.509.482-1.518.109-1.043.06-1.562-.137-1.557s-.369.539-.492,1.6C51.724,8.127,51.77,8.618,51.987,8.613Z"/><path class="cls-4" d="M107.441,84.022c-2.217.263-2.361,2.1-.358,5.571,1.884,3.24,4.1,4.692,6.592,4.3,2.46-.385,2.551-2.173.326-5.336C111.708,85.281,109.547,83.771,107.441,84.022Z"/><path class="cls-4" d="M51.721,16.076c.286-.007.487-.692.592-2.053.108-1.412.024-2.112-.243-2.106-.282.006-.479.727-.6,2.16C51.346,15.416,51.429,16.082,51.721,16.076Z"/><path class="cls-4" d="M53.316,3.193c.177,0,.315-.427.4-1.273.091-.873.05-1.308-.115-1.3s-.309.452-.412,1.338C53.1,2.785,53.135,3.2,53.316,3.193Z"/><path class="cls-4" d="M47.077,35.512c.49,0,.883-.884,1.158-2.642.281-1.819.19-2.724-.25-2.72-.468,0-.852.928-1.181,2.774C46.494,34.65,46.576,35.514,47.077,35.512Z"/><path class="cls-4" d="M82.144,105.489c-2.871.185-3.986,2.353-3.329,6.675.616,4.049,2.562,6.044,5.816,5.784,3.2-.255,4.259-2.5,3.2-6.534C86.748,107.238,84.865,105.316,82.144,105.489Z"/><path class="cls-4" d="M67.351,15.708c.3-.006.42-.7.366-2.066-.055-1.417-.217-2.126-.5-2.118s-.428.733-.387,2.173C66.87,15.046,67.046,15.715,67.351,15.708Z"/><path class="cls-4" d="M67.051,8.46c.213-.005.3-.493.259-1.464-.039-1-.154-1.505-.353-1.5s-.3.519-.274,1.539C66.711,7.991,66.835,8.464,67.051,8.46Z"/><path class="cls-4" d="M55.91,11.818q-.423.012-.5,2.162-.078,2.013.358,2t.488-2.056C56.292,12.514,56.176,11.81,55.91,11.818Z"/><path class="cls-4" d="M47.146,24.7c.361-.006.662-.767.884-2.286.228-1.571.168-2.355-.163-2.348-.35.01-.643.808-.9,2.4C46.725,23.96,46.778,24.7,47.146,24.7Z"/><path class="cls-4" d="M55.335,19.911c-.349,0-.562.814-.648,2.415-.081,1.5.058,2.247.424,2.239s.573-.774.631-2.3C55.8,20.689,55.665,19.905,55.335,19.911Z"/><path class="cls-4" d="M66.773,3.043c.175,0,.243-.4.212-1.2C66.953,1.023,66.859.611,66.7.616s-.248.425-.224,1.261C66.494,2.659,66.6,3.047,66.773,3.043Z"/><path class="cls-4" d="M108.6,76.126c1.58-.176,1.456-1.505-.3-3.993-1.806-2.577-3.345-3.811-4.706-3.693-1.431.123-1.371,1.519.266,4.194C105.406,75.137,107.008,76.3,108.6,76.126Z"/><path class="cls-4" d="M67.873,24.324c.376-.007.512-.777.419-2.31-.094-1.583-.308-2.373-.654-2.366-.365.007-.516.817-.443,2.427C67.263,23.582,67.492,24.332,67.873,24.324Z"/><path class="cls-4" d="M54.341,30.075c-.465.007-.763.933-.907,2.791-.136,1.737.038,2.6.535,2.6s.786-.891.884-2.66C54.955,30.978,54.781,30.068,54.341,30.075Z"/><path class="cls-5" d="M81.907,103.449c-2.667.169-4.582.977-5.83,2.483s-1.777,3.674-1.467,6.549a8.1,8.1,0,0,0,3.044,5.94,10.206,10.206,0,0,0,7.065,1.658c3.106-.25,5.342-1.228,6.634-2.835s1.463-3.751.649-6.408C90.335,105.479,86.99,103.133,81.907,103.449Zm2.724,14.5c-3.254.26-5.2-1.735-5.816-5.784-.657-4.322.458-6.49,3.329-6.675,2.721-.173,4.6,1.749,5.691,5.925C88.89,115.45,87.836,117.693,84.631,117.948Z"/><path class="cls-5" d="M105.778,112.864a14.884,14.884,0,0,1,2.63-3.258q-2.118-4.26-4.178-8.478-.807.109-1.611.215c-.5.361-.989.692-1.48.988s-.992.571-1.5.822-1.031.489-1.574.707-1.112.43-1.71.639q.394,1.05.792,2.1a21.363,21.363,0,0,0,2.6-.933,11.254,11.254,0,0,0,1.963-1.1c1.243,2.824,2.534,5.7,3.817,8.561C105.614,113.044,105.692,112.95,105.778,112.864Z"/><path class="cls-5" d="M80,99.325c2.294-.126,3.938-.891,4.871-2.244s1.02-3.216.372-5.579c-1.324-4.765-3.823-6.968-7.559-6.812a5.046,5.046,0,0,0-4.254,2.068c-.906,1.306-1.257,3.2-.99,5.721a7.849,7.849,0,0,0,2.322,5.236A7,7,0,0,0,80,99.325ZM77.885,86.491c2-.086,3.414,1.671,4.282,5.365.844,3.575.1,5.48-2.266,5.611-2.4.133-3.865-1.637-4.375-5.195C74.982,88.475,75.775,86.586,77.885,86.491Z"/><path class="cls-5" d="M92.963,83.643a12.861,12.861,0,0,1-1.082.8c-.36.239-.727.45-1.1.651s-.757.377-1.156.546-.818.327-1.258.483q.31.944.624,1.889a13.551,13.551,0,0,0,1.916-.694,7.24,7.24,0,0,0,1.441-.864q2.138,5.574,4.446,11.257,1.68-.182,3.367-.381-3.138-6.962-6-13.783Z"/><path class="cls-5" d="M117.182,87.933c-3.165-4.17-6.675-6.018-10.614-5.567-2.063.239-3.3.984-3.761,2.284s-.134,3.116,1.1,5.434a10.511,10.511,0,0,0,4.439,4.6,9.8,9.8,0,0,0,6.131.878c2.376-.38,3.845-1.262,4.346-2.576S118.744,90,117.182,87.933ZM113.675,93.9c-2.491.39-4.708-1.062-6.592-4.3-2-3.466-1.859-5.308.358-5.571,2.106-.251,4.267,1.259,6.56,4.537C116.226,91.722,116.135,93.51,113.675,93.9Z"/><path class="cls-5" d="M78.375,78.41a5.985,5.985,0,0,0,.257-4.232c-.8-3.669-2.364-5.427-4.749-5.363a2.973,2.973,0,0,0-2.7,1.531,7.374,7.374,0,0,0-.586,4.352,6.782,6.782,0,0,0,1.495,3.994,4.042,4.042,0,0,0,3.263,1.3A3.375,3.375,0,0,0,78.375,78.41ZM72.53,74.574c-.361-2.893.138-4.337,1.478-4.377,1.271-.035,2.16,1.342,2.693,4.177.518,2.741.054,4.161-1.417,4.212C73.791,78.641,72.87,77.285,72.53,74.574Z"/><path class="cls-5" d="M82.236,71.138a4.455,4.455,0,0,0,.92-.617q1.251,4.359,2.617,8.785,1.043-.064,2.089-.134-1.851-5.461-3.512-10.829l-.756.037a8.342,8.342,0,0,1-.7.577,8.087,8.087,0,0,1-.7.466,8.315,8.315,0,0,1-.738.385c-.255.117-.522.228-.8.335q.183.734.369,1.468A7.651,7.651,0,0,0,82.236,71.138Z"/><path class="cls-5" d="M92.168,67.951a2.4,2.4,0,0,0-2.414,1.6,6.61,6.61,0,0,0,.557,4.258,8.349,8.349,0,0,0,2.66,3.792,5.382,5.382,0,0,0,3.774,1.073c1.476-.129,2.4-.7,2.732-1.685s.01-2.343-.9-4.068C96.741,69.438,94.641,67.793,92.168,67.951Zm4.11,9.373c-1.546.134-2.892-1.121-3.986-3.73-1.163-2.786-1.019-4.213.369-4.307C93.98,69.2,95.269,70.5,96.6,73.2,97.894,75.814,97.807,77.192,96.278,77.324Z"/><path class="cls-5" d="M105.192,76.5a6.472,6.472,0,0,0,4.11.915c1.525-.174,2.4-.75,2.6-1.711a3.2,3.2,0,0,0-.34-1.859q-2.815-2.952-5.431-5.957a5.787,5.787,0,0,0-3.247-.732c-1.335.113-2.082.644-2.274,1.613s.192,2.348,1.223,4.131A9.716,9.716,0,0,0,105.192,76.5ZM103.6,68.44c1.361-.118,2.9,1.116,4.706,3.693,1.755,2.488,1.879,3.817.3,3.993-1.6.176-3.2-.989-4.739-3.492C102.228,69.959,102.168,68.563,103.6,68.44Z"/><path class="cls-5" d="M72.594,63.477a2.323,2.323,0,0,0,2.2-1.364,6.438,6.438,0,0,0,.176-3.773c-.587-3.3-1.733-4.9-3.486-4.867A2.109,2.109,0,0,0,69.5,54.822a7.8,7.8,0,0,0-.411,3.887A6.942,6.942,0,0,0,70.2,62.282,2.786,2.786,0,0,0,72.594,63.477Zm-1.016-8.763c.934-.018,1.585,1.229,1.98,3.771.386,2.456.053,3.712-1.02,3.738-1.089.026-1.771-1.184-2.031-3.608C70.23,56.028,70.593,54.734,71.578,54.714Z"/><path class="cls-5" d="M77.605,55.685a3.157,3.157,0,0,0,.674-.535q.9,3.941,1.907,7.923l1.519-.061q-1.359-4.929-2.547-9.794l-.552.017a6.372,6.372,0,0,1-.513.505,5.9,5.9,0,0,1-.517.4,4.933,4.933,0,0,1-.541.332c-.186.1-.382.194-.587.285q.134.66.268,1.324A4.857,4.857,0,0,0,77.605,55.685Z"/><path class="cls-5" d="M84.854,53.07a1.726,1.726,0,0,0-1.763,1.371,7.231,7.231,0,0,0,.391,3.843,8.054,8.054,0,0,0,1.929,3.486,3.588,3.588,0,0,0,2.737,1.1,1.91,1.91,0,0,0,1.972-1.4,6.223,6.223,0,0,0-.65-3.7C88.15,54.565,86.651,53,84.854,53.07Zm2.953,8.576c-1.119.058-2.1-1.111-2.887-3.489-.839-2.543-.724-3.828.283-3.866.958-.039,1.88,1.179,2.837,3.663C88.971,60.352,88.914,61.589,87.807,61.646Z"/><path class="cls-5" d="M97.916,57.306a12.667,12.667,0,0,0-2.738-3.573q1.566,2.3,3.254,4.576C98.282,57.991,98.115,57.661,97.916,57.306Z"/><path class="cls-5" d="M94.241,61.292a4.211,4.211,0,0,0,2.965,1.036c1.1-.072,1.721-.545,1.855-1.4a4.881,4.881,0,0,0-.629-2.615q-1.689-2.28-3.254-4.576a3.729,3.729,0,0,0-2.584-1A1.542,1.542,0,0,0,90.95,54.1a7.175,7.175,0,0,0,.867,3.786A9.072,9.072,0,0,0,94.241,61.292ZM93.1,53.931c.979-.048,2.07,1.14,3.367,3.569,1.261,2.346,1.367,3.556.23,3.631s-2.308-1.055-3.416-3.388C92.1,55.25,92.071,53.983,93.1,53.931Z"/><path class="cls-5" d="M70.343,48.866a1.557,1.557,0,0,0,1.487-1.1,6.376,6.376,0,0,0,.154-3.091c-.364-2.71-1.133-4.044-2.344-4.024a1.476,1.476,0,0,0-1.374,1.1,7.509,7.509,0,0,0-.287,3.19,6.576,6.576,0,0,0,.756,2.929A1.814,1.814,0,0,0,70.343,48.866ZM69.7,41.675c.643-.012,1.079,1.024,1.327,3.111.242,2.019.01,3.042-.713,3.055s-1.193-.981-1.365-2.967C68.763,42.753,69.018,41.686,69.7,41.675Z"/><path class="cls-5" d="M73.813,42.521a2.257,2.257,0,0,0,.468-.434q.544,3.257,1.155,6.533l1.016-.025q-.822-4.062-1.531-8.091l-.379.008a5.106,5.106,0,0,1-.361.411,4.707,4.707,0,0,1-.362.328,3.685,3.685,0,0,1-.376.268c-.13.079-.264.157-.406.23q.081.546.163,1.092A3.225,3.225,0,0,0,73.813,42.521Z"/><path class="cls-5" d="M78.947,47.642a2.189,2.189,0,0,0,1.789.964A1.325,1.325,0,0,0,82.08,47.5a6.3,6.3,0,0,0-.314-3.067c-.771-2.687-1.729-4.006-2.954-3.978a1.265,1.265,0,0,0-1.238,1.107,7.163,7.163,0,0,0,.166,3.177A7.184,7.184,0,0,0,78.947,47.642Zm.064-6.17c.651-.015,1.233,1.008,1.794,3.079.546,2,.473,3.016-.262,3.039s-1.367-.955-1.834-2.931C78.212,42.549,78.327,41.492,79.011,41.472Z"/><path class="cls-5" d="M82.892,41.421a7.082,7.082,0,0,0,.432,3.159A7.721,7.721,0,0,0,84.8,47.458a2.457,2.457,0,0,0,1.9.944A1.21,1.21,0,0,0,87.968,47.3a6.371,6.371,0,0,0-.591-3.042c-1.015-2.662-2.087-3.975-3.324-3.939A1.155,1.155,0,0,0,82.892,41.421Zm3.521,2.954c.728,1.985.747,2.992,0,3.02s-1.473-.939-2.117-2.9c-.682-2.094-.651-3.15.039-3.17C84.994,41.305,85.664,42.322,86.413,44.375Z"/><path class="cls-5" d="M68.835,36.167c.486-.007.837-.326,1.044-.954a7.012,7.012,0,0,0,.132-2.714c-.23-2.384-.763-3.565-1.626-3.549q-.677.011-.984.967a8.1,8.1,0,0,0-.213,2.8,6.927,6.927,0,0,0,.526,2.571C68.005,35.885,68.381,36.176,68.835,36.167Zm-.417-6.317c.457-.009.757.9.916,2.74.155,1.777-.013,2.67-.518,2.679s-.832-.862-.946-2.609C67.749,30.793,67.936,29.86,68.418,29.85Z"/><path class="cls-5" d="M71.324,30.609a1.8,1.8,0,0,0,.337-.379q.336,2.874.723,5.753l.706-.014q-.516-3.572-.952-7.131l-.269,0c-.088.134-.176.255-.262.361s-.174.2-.261.287a2.928,2.928,0,0,1-.27.235c-.093.07-.189.136-.291.2l.1.963A2.142,2.142,0,0,0,71.324,30.609Z"/><path class="cls-5" d="M74.892,28.821c-.453.009-.751.332-.9.968a7.828,7.828,0,0,0,.055,2.8,7.267,7.267,0,0,0,.789,2.566,1.447,1.447,0,0,0,1.22.868c.489-.011.808-.331.951-.957a7.007,7.007,0,0,0-.144-2.707C76.4,29.983,75.758,28.8,74.892,28.821Zm1.051,6.307c-.515.011-.929-.858-1.216-2.6-.305-1.862-.2-2.8.281-2.808.458-.01.842.9,1.184,2.734C76.525,34.224,76.452,35.115,75.943,35.128Z"/><path class="cls-5" d="M77.734,29.71a7.758,7.758,0,0,0,.21,2.8,7.555,7.555,0,0,0,.942,2.559,1.564,1.564,0,0,0,1.28.863c.492-.009.793-.333.9-.956a7.089,7.089,0,0,0-.306-2.7c-.607-2.371-1.307-3.551-2.176-3.53Q77.9,28.757,77.734,29.71Zm2.355,2.656c.437,1.766.42,2.658-.092,2.669s-.986-.85-1.375-2.592c-.413-1.857-.357-2.793.126-2.8C79.208,29.628,79.641,30.538,80.089,32.366Z"/><path class="cls-5" d="M81.793,30.386a1.513,1.513,0,0,0,.283-.379q.776,2.859,1.661,5.715l.714-.019q-.384-1.194-.748-2.389-.971-2.151-1.854-4.3a3,3,0,0,1-.2.262,2.38,2.38,0,0,1-.238.234c-.083.07-.171.137-.263.2q.123.48.248.958A1.779,1.779,0,0,0,81.793,30.386Z"/><path class="cls-5" d="M67.878,25.1c.36-.006.623-.281.786-.822a7.032,7.032,0,0,0,.136-2.34c-.136-2.057-.52-3.081-1.176-3.066q-.513.012-.755.836a7.962,7.962,0,0,0-.186,2.421,6.775,6.775,0,0,0,.371,2.218C67.265,24.854,67.541,25.106,67.878,25.1Zm-.24-5.45c.346-.007.56.783.654,2.366.093,1.533-.043,2.3-.419,2.31s-.61-.742-.678-2.249C67.122,20.465,67.273,19.655,67.638,19.648Z"/><path class="cls-5" d="M69.818,20.305a1.681,1.681,0,0,0,.261-.328q.2,2.484.43,4.967l.522-.01q-.311-3.082-.563-6.161l-.2,0c-.07.118-.138.221-.2.312s-.136.174-.2.249a2.307,2.307,0,0,1-.208.2c-.072.059-.146.121-.223.174q.029.416.059.831A1.637,1.637,0,0,0,69.818,20.305Z"/><path class="cls-5" d="M73.22,24.99c.36-.008.605-.282.729-.823a7.042,7.042,0,0,0-.025-2.34c-.275-2.06-.719-3.083-1.375-3.067-.341.008-.576.288-.7.837a7.773,7.773,0,0,0-.029,2.423,6.943,6.943,0,0,0,.524,2.217C72.588,24.746,72.884,25,73.22,24.99Zm-.609-5.452c.346-.008.609.781.809,2.367.2,1.531.116,2.3-.26,2.311s-.665-.742-.834-2.249C72.146,20.356,72.247,19.546,72.611,19.538Z"/><path class="cls-5" d="M74.723,21.957a7.129,7.129,0,0,0,.612,2.217c.268.509.574.758.911.752q.541-.012.7-.822a7.088,7.088,0,0,0-.118-2.34c-.353-2.058-.833-3.084-1.489-3.066q-.511.01-.673.837A7.673,7.673,0,0,0,74.723,21.957Zm.7-2.481c.347-.008.636.78.9,2.367.255,1.532.208,2.3-.169,2.309s-.7-.742-.924-2.248C74.988,20.294,75.062,19.483,75.425,19.476Z"/><path class="cls-5" d="M78.173,18.6l-.133,0q.148.462.3.922C78.285,19.217,78.228,18.909,78.173,18.6Z"/><path class="cls-5" d="M77.674,20.133a1.46,1.46,0,0,0,.229-.328q.448,2.483.967,4.963l.523-.011q-.567-2.615-1.051-5.232-.153-.46-.3-.922l-.07,0c-.059.116-.117.22-.176.312a2.581,2.581,0,0,1-.178.249,2.3,2.3,0,0,1-.189.2c-.065.06-.133.117-.206.173q.07.417.144.832A1.453,1.453,0,0,0,77.674,20.133Z"/><path class="cls-5" d="M67.346,16.4q.432-.01.64-.735a7.06,7.06,0,0,0,.142-2.094c-.08-1.841-.377-2.757-.911-2.743-.278.006-.485.258-.623.75a7.781,7.781,0,0,0-.175,2.167,6.633,6.633,0,0,0,.275,1.982Q66.941,16.411,67.346,16.4Zm-.127-4.876c.281-.008.443.7.5,2.118.054,1.371-.065,2.06-.366,2.066s-.481-.662-.519-2.011C66.791,12.257,66.923,11.533,67.219,11.524Z"/><path class="cls-5" d="M69.531,10.737l-.166,0c-.059.105-.116.2-.173.28s-.112.156-.168.223a2.153,2.153,0,0,1-.173.181,2.264,2.264,0,0,1-.184.156q.016.372.035.745a1.368,1.368,0,0,0,.274-.216,1.514,1.514,0,0,0,.217-.294q.115,2.224.259,4.444l.417-.009Q69.679,13.5,69.531,10.737Z"/><path class="cls-5" d="M71.223,10.722c-.278.007-.475.259-.59.751a7.675,7.675,0,0,0-.075,2.17,6.769,6.769,0,0,0,.373,1.984c.187.454.417.68.686.673.288-.007.489-.251.6-.735a7.145,7.145,0,0,0,.04-2.095C72.091,11.624,71.756,10.707,71.223,10.722Zm.364,4.886c-.305.007-.515-.663-.619-2.013-.109-1.442-.008-2.168.287-2.175s.474.7.6,2.12C71.97,14.91,71.888,15.6,71.587,15.608Z"/><path class="cls-5" d="M72.917,11.415a7.621,7.621,0,0,0-.019,2.171,6.864,6.864,0,0,0,.429,1.984c.2.455.437.681.7.674q.432-.012.581-.736a7.107,7.107,0,0,0-.018-2.1c-.217-1.843-.574-2.765-1.107-2.749C73.211,10.669,73.019,10.922,72.917,11.415Zm1.272,2.067c.156,1.375.094,2.063-.207,2.069s-.534-.663-.674-2.013c-.149-1.445-.066-2.167.229-2.177S74.028,12.062,74.189,13.482Z"/><path class="cls-5" d="M75.8,10.574l-.135,0c.081.3.164.6.247.906Q75.85,11.029,75.8,10.574Z"/><path class="cls-5" d="M75.336,11.948a1.319,1.319,0,0,0,.2-.294q.273,2.229.6,4.451l.417-.01q-.347-2.3-.638-4.612c-.083-.3-.166-.6-.247-.906h-.03c-.053.105-.1.2-.154.28a2.49,2.49,0,0,1-.154.224,1.587,1.587,0,0,1-.16.181c-.055.055-.112.106-.172.156.028.249.058.5.087.746A1.223,1.223,0,0,0,75.336,11.948Z"/><path class="cls-5" d="M67.047,8.95c.2-.006.356-.179.453-.521a4.986,4.986,0,0,0,.1-1.483c-.057-1.3-.267-1.952-.645-1.943-.2,0-.343.183-.441.532a5.537,5.537,0,0,0-.124,1.534,4.708,4.708,0,0,0,.195,1.4Q66.76,8.958,67.047,8.95ZM66.957,5.5c.2-.006.314.5.353,1.5.039.971-.046,1.459-.259,1.464s-.34-.469-.368-1.424C66.654,6.016,66.748,5.5,66.957,5.5Z"/><path class="cls-5" d="M67.983,5.537c.008.176.016.351.025.527a.886.886,0,0,0,.193-.153.944.944,0,0,0,.154-.208q.082,1.575.183,3.148l.3-.007q-.135-1.95-.239-3.9l-.118,0a2.324,2.324,0,0,1-.122.2,1.971,1.971,0,0,1-.12.158,1.521,1.521,0,0,1-.122.129C68.071,5.465,68.028,5.5,67.983,5.537Z"/><path class="cls-5" d="M69.375,5.461A5.43,5.43,0,0,0,69.322,7a4.781,4.781,0,0,0,.264,1.4c.133.322.3.482.485.477.2,0,.347-.178.427-.521a5.018,5.018,0,0,0,.028-1.484c-.118-1.306-.356-1.956-.733-1.945C69.6,4.934,69.457,5.112,69.375,5.461Zm.441-.038c.2-.006.335.5.422,1.5.084.971.026,1.459-.188,1.465s-.364-.47-.438-1.426C69.535,5.942,69.606,5.428,69.816,5.423Z"/><path class="cls-5" d="M70.979,6.957a4.861,4.861,0,0,0,.3,1.405c.141.322.309.482.5.477s.341-.179.412-.521a5.036,5.036,0,0,0-.014-1.484c-.153-1.306-.406-1.958-.783-1.947-.2,0-.332.183-.405.532A5.415,5.415,0,0,0,70.979,6.957Zm.453-1.576c.2,0,.347.5.461,1.5.111.974.067,1.461-.146,1.466s-.379-.47-.478-1.426C71.164,5.9,71.223,5.388,71.432,5.381Z"/><path class="cls-5" d="M72.705,5.8a.931.931,0,0,0,.139-.208q.194,1.578.422,3.151l.3-.006Q73.316,7.1,73.11,5.467c-.059-.214-.118-.427-.175-.641h-.022c-.037.074-.073.141-.109.2a1.735,1.735,0,0,1-.108.158,1.336,1.336,0,0,1-.113.129c-.04.039-.08.075-.123.11.02.176.041.352.062.528A.855.855,0,0,0,72.705,5.8Z"/><path class="cls-5" d="M66.77,3.444q.251-.006.371-.426A4.1,4.1,0,0,0,67.223,1.8c-.046-1.069-.218-1.6-.528-1.592-.161,0-.281.15-.361.436a4.5,4.5,0,0,0-.1,1.256,3.843,3.843,0,0,0,.16,1.15Q66.535,3.45,66.77,3.444ZM66.7.616c.163-.005.257.407.289,1.228.031.8-.037,1.2-.212,1.2s-.279-.384-.3-1.166C66.448,1.041,66.524.622,66.7.616Z"/><path class="cls-5" d="M67.715.956a.843.843,0,0,0,.126-.17q.068,1.289.15,2.577l.242-.006q-.111-1.6-.2-3.2l-.1,0c-.034.061-.068.115-.1.163s-.066.09-.1.129-.067.074-.1.105a1.306,1.306,0,0,1-.107.09c.007.144.013.288.02.432A.757.757,0,0,0,67.715.956Z"/><path class="cls-5" d="M68.849,3c.108.263.242.394.4.39s.283-.145.349-.427a4.135,4.135,0,0,0,.023-1.214c-.1-1.071-.292-1.6-.6-1.594q-.242.008-.342.436a4.492,4.492,0,0,0-.044,1.258A3.958,3.958,0,0,0,68.849,3Zm.188-2.44c.163-.005.274.407.345,1.229.069.8.022,1.2-.153,1.2s-.3-.385-.359-1.168C68.807.981,68.865.56,69.037.556Z"/><path class="cls-5" d="M70.238,2.963c.116.264.254.394.409.39s.28-.146.337-.426a4.138,4.138,0,0,0-.01-1.216c-.126-1.069-.333-1.6-.642-1.594-.161,0-.272.15-.332.436a4.459,4.459,0,0,0-.01,1.259A3.967,3.967,0,0,0,70.238,2.963ZM70.36.522c.163,0,.285.406.378,1.23.091.8.055,1.2-.12,1.2s-.31-.385-.391-1.168C70.141.946,70.189.528,70.36.522Z"/><path class="cls-5" d="M71.4.862a.752.752,0,0,0,.114-.17q.159,1.292.345,2.581l.242-.006q-.2-1.335-.369-2.675Q71.662.33,71.591.067h-.017c-.031.06-.06.115-.089.162s-.06.091-.089.13A1.084,1.084,0,0,1,71.3.465c-.033.032-.066.062-.1.09.016.145.033.288.05.433A.687.687,0,0,0,71.4.862Z"/><path class="cls-5" d="M15.806,106.329c1-1.9,1.992-3.8,2.959-5.688q-.8-.119-1.592-.24-1.146.264-2.2.435t-2.074.277c-.241.025-.482.033-.723.052A18.65,18.65,0,0,1,15.806,106.329Z"/><path class="cls-5" d="M34.911,102.7a10.794,10.794,0,0,0-6.857,1.4,11.629,11.629,0,0,0-4.627,5.736,10.1,10.1,0,0,0-.651,2.2c2.113,1.566,3.727,3.355,6.109,4.6a14.547,14.547,0,0,1,3.2,2.184,10.186,10.186,0,0,0,5.045-1.422A8.712,8.712,0,0,0,40.92,111.4C41.978,105.949,39.951,103.171,34.911,102.7Zm1.781,8.513c-1,4.018-3.118,5.916-6.3,5.515-3.238-.408-4.12-2.606-2.721-6.429,1.489-4.088,3.624-5.92,6.483-5.641C36.852,104.923,37.718,107.055,36.692,111.209Z"/><path class="cls-5" d="M53.526,104.611c-.591.218-1.181.411-1.766.581s-1.183.32-1.79.446-1.237.246-1.892.354q-.136,1.093-.273,2.2a24.514,24.514,0,0,0,2.858-.481A14.462,14.462,0,0,0,53,106.944q-.426,6.592-.888,13.456,2.246.1,4.491.157.164-8.552.316-16.665-.784-.016-1.57-.037C54.724,104.141,54.117,104.4,53.526,104.611Z"/><path class="cls-5" d="M4.8,86.944c2.4-2.751,4.589-4.016,6.654-3.736s2.05,2.034-.167,5.276a9.448,9.448,0,0,1-4.394,3.833,1.521,1.521,0,0,1,.606,1.255c0,.16,0,.27,0,.4a10.468,10.468,0,0,0,2.028-.624,11.415,11.415,0,0,0,5.034-4.539c2.675-4.3,2.011-6.653-1.853-7.145a10.794,10.794,0,0,0-5.991.964c-.125.055-.244.134-.369.2-.727.669-1.472,1.329-2.214,1.991Q4.481,85.873,4.8,86.944Z"/><path class="cls-5" d="M23.393,97.009q3.16-6.847,5.984-13.575l-1.172-.108c-.565.207-1.108.388-1.63.538s-1.035.283-1.539.4-1.01.208-1.518.286-1.033.146-1.573.206q-.471.886-.949,1.772a21.009,21.009,0,0,0,2.358-.259,13.779,13.779,0,0,0,2.036-.511q-2.543,5.381-5.325,10.814Q21.731,96.8,23.393,97.009Z"/><path class="cls-5" d="M41.22,84.4a7.063,7.063,0,0,0-5.03,1.548,11.305,11.305,0,0,0-3.441,5.309c-.762,2.187-.8,3.93-.03,5.219S34.977,98.522,37.1,98.7a7.79,7.79,0,0,0,5.687-1.5,8.37,8.37,0,0,0,2.8-5.374C46.377,87.019,44.9,84.614,41.22,84.4ZM42.5,91.811c-.745,3.559-2.312,5.3-4.656,5.107-2.386-.2-3.021-2.057-1.965-5.492,1.121-3.671,2.692-5.4,4.784-5.271C42.633,86.278,43.262,88.13,42.5,91.811Z"/><path class="cls-5" d="M54.8,85.578q-.646.3-1.288.537t-1.3.424c-.442.125-.9.24-1.379.348q-.1.965-.2,1.935a15.806,15.806,0,0,0,2.084-.479,9.679,9.679,0,0,0,1.7-.707q-.323,5.8-.679,11.779,1.636.051,3.272.082.138-7.446.266-14.587l-1.143-.018Q55.442,85.279,54.8,85.578Z"/><path class="cls-5" d="M20.7,67.872q-.921,1.1-1.873,2.184A10.293,10.293,0,0,1,17.6,72.384c-1.367,2.071-2.73,3.2-4.043,3.4q-.607.628-1.225,1.255a7.051,7.051,0,0,0,3.746-.909,10.229,10.229,0,0,0,3.614-3.658C21.077,70.229,21.363,68.7,20.7,67.872Z"/><path class="cls-5" d="M24.053,78.361a5.811,5.811,0,0,0,4-1.06,8.729,8.729,0,0,0,2.884-3.888c1.455-3.515.925-5.322-1.479-5.479A5.36,5.36,0,0,0,25.84,69.09,12.162,12.162,0,0,0,22.6,73c-.905,1.6-1.254,2.855-.992,3.777S22.7,78.232,24.053,78.361Zm.586-5.26c1.418-2.677,2.766-3.965,4.13-3.87,1.285.089,1.36,1.467.152,4.151-1.175,2.595-2.543,3.835-4.036,3.695C23.361,76.934,23.3,75.6,24.639,73.1Z"/><path class="cls-5" d="M36.659,79.205q1.718-5.419,3.232-10.744l-.737-.034c-.345.185-.678.349-1,.489s-.635.266-.943.379-.621.208-.932.3-.635.167-.967.24q-.255.714-.512,1.427a11.115,11.115,0,0,0,1.448-.324,7.755,7.755,0,0,0,1.242-.5q-1.37,4.288-2.884,8.629Q35.637,79.137,36.659,79.205Z"/><path class="cls-5" d="M45.108,79.854a4.325,4.325,0,0,0,3.472-1.32,7.11,7.11,0,0,0,1.66-4.154c.43-3.681-.537-5.509-2.872-5.578a3.947,3.947,0,0,0-3.126,1.341,9.212,9.212,0,0,0-2,4.2,5.736,5.736,0,0,0,.12,3.988A3.017,3.017,0,0,0,45.108,79.854Zm-.92-5.5c.6-2.847,1.545-4.23,2.865-4.19,1.246.041,1.674,1.448,1.26,4.276-.4,2.733-1.341,4.093-2.788,4.031C44.053,78.412,43.618,77.024,44.188,74.357Z"/><path class="cls-5" d="M55.973,69.462q-.409.234-.813.423t-.822.34c-.279.1-.568.2-.869.285q-.056.739-.113,1.482a8.575,8.575,0,0,0,1.307-.4,5.639,5.639,0,0,0,1.068-.559q-.187,4.43-.394,8.951,1.008.018,2.013.03.1-5.619.187-11.089c-.242,0-.483,0-.725-.006C56.525,69.127,56.245,69.305,55.973,69.462Z"/><path class="cls-5" d="M30.35,57.867c.892-1.934,1.124-3.281.776-4.048q-.761,1.171-1.552,2.339a13,13,0,0,1-.72,1.74c-.962,1.965-1.938,3.066-2.881,3.32q-.451.6-.911,1.207A4.536,4.536,0,0,0,27.8,61.373,9.429,9.429,0,0,0,30.35,57.867Z"/><path class="cls-5" d="M33.532,62.951a3.807,3.807,0,0,0,2.869-1.14A8.424,8.424,0,0,0,38.443,58.2c1.012-3.213.6-4.831-1.138-4.88a3.481,3.481,0,0,0-2.589,1.193,11.527,11.527,0,0,0-2.275,3.679,6,6,0,0,0-.677,3.455A1.69,1.69,0,0,0,33.532,62.951Zm.373-4.761c.988-2.48,1.936-3.7,2.922-3.672.927.032,1,1.27.161,3.736-.818,2.381-1.794,3.556-2.868,3.5C33.023,61.7,32.972,60.513,33.905,58.19Z"/><path class="cls-5" d="M42.625,63.174q1.206-4.895,2.249-9.724l-.537-.011c-.249.175-.489.333-.719.469s-.457.258-.68.369-.448.207-.673.3-.458.17-.7.247q-.174.651-.354,1.3a6.833,6.833,0,0,0,1.046-.34,5.244,5.244,0,0,0,.895-.485q-.947,3.9-2.01,7.827Z"/><path class="cls-5" d="M51.257,62.258a7.309,7.309,0,0,0,1.193-3.733c.3-3.292-.414-4.923-2.121-4.942a2.7,2.7,0,0,0-2.271,1.269,9.347,9.347,0,0,0-1.421,3.813,6.216,6.216,0,0,0,.112,3.558,2.077,2.077,0,0,0,1.995,1.284A2.948,2.948,0,0,0,51.257,62.258Zm-2.216.01c-1.068-.021-1.389-1.244-.993-3.641.422-2.561,1.1-3.826,2.06-3.814.91.012,1.231,1.27.94,3.8C50.766,61.065,50.089,62.289,49.041,62.268Z"/><path class="cls-5" d="M56.623,54.055c-.2.144-.4.272-.594.387s-.4.219-.6.313-.415.18-.635.265q-.039.661-.079,1.327a5.781,5.781,0,0,0,.953-.368,4.159,4.159,0,0,0,.78-.511q-.135,3.966-.285,7.986.731.006,1.46.009.077-4.995.145-9.9h-.531C57.027,53.749,56.822,53.913,56.623,54.055Z"/><path class="cls-5" d="M35.989,48.77a2.559,2.559,0,0,0,1.968-1,8.038,8.038,0,0,0,1.513-2.991c.8-2.648.569-3.973-.621-3.984a1.579,1.579,0,0,0-.282.037q-.287.573-.582,1.145a.827.827,0,0,1,.5-.187c.633.006.648,1.026-.006,3.061-.637,1.967-1.338,2.943-2.056,2.928-.7-.016-.717-.909-.117-2.646q-.713,1.3-1.459,2.6c0,.006,0,.012,0,.019A1.078,1.078,0,0,0,35.989,48.77Z"/><path class="cls-5" d="M41.784,48.89a2.285,2.285,0,0,0,1.852-1.021,7.515,7.515,0,0,0,1.236-3.027c.572-2.673.238-4.007-.944-4.01a2.127,2.127,0,0,0-1.7,1.048,9.818,9.818,0,0,0-1.361,3.11,6.09,6.09,0,0,0-.3,2.879A1.185,1.185,0,0,0,41.784,48.89Zm.059-3.942c.555-2.082,1.143-3.116,1.809-3.113.627,0,.724,1.03.249,3.086-.46,1.988-1.064,2.977-1.774,2.967C41.4,47.876,41.321,46.9,41.843,44.948Z"/><path class="cls-5" d="M47.807,48.838q.684-4.037,1.275-8.04h-.367c-.166.151-.324.283-.478.4s-.3.221-.453.316a4.633,4.633,0,0,1-.449.256c-.15.074-.306.148-.466.217q-.1.54-.2,1.08a4.211,4.211,0,0,0,.7-.3,3.434,3.434,0,0,0,.594-.417q-.537,3.231-1.138,6.479Z"/><path class="cls-5" d="M53.557,47.944a6.941,6.941,0,0,0,.766-3.07c.176-2.7-.331-4.044-1.5-4.039a1.786,1.786,0,0,0-1.533,1.073,8.631,8.631,0,0,0-.891,3.157,6.2,6.2,0,0,0,.141,2.916A1.407,1.407,0,0,0,51.89,49,1.9,1.9,0,0,0,53.557,47.944Zm-1.486.038c-.714,0-.95-.995-.724-2.97.24-2.11.68-3.158,1.339-3.161.622,0,.857,1.03.689,3.112C53.213,46.975,52.773,47.985,52.071,47.982Z"/><path class="cls-5" d="M57.143,41.17c-.136.117-.273.226-.407.321a4.422,4.422,0,0,1-.41.262c-.139.077-.284.151-.433.222-.015.363-.031.728-.047,1.091a3.622,3.622,0,0,0,.649-.309,2.905,2.905,0,0,0,.531-.425q-.083,3.256-.174,6.54l.979,0q.052-4.075.1-8.108l-.365,0Q57.347,40.991,57.143,41.17Z"/><path class="cls-5" d="M42.616,32.059q.378-.9.743-1.793A8.323,8.323,0,0,0,42.616,32.059Z"/><path class="cls-5" d="M42.889,36.407a1.646,1.646,0,0,0,1.315-.921,7.98,7.98,0,0,0,.95-2.671c.475-2.357.269-3.525-.565-3.518-.439,0-.841.319-1.217.944l-.013.025q-.364.9-.743,1.793c-.09.292-.178.6-.262.939a6.853,6.853,0,0,0-.278,2.532C42.172,36.116,42.445,36.406,42.889,36.407Zm.145-3.46c.436-1.837.869-2.758,1.339-2.762.442,0,.486.9.1,2.711-.375,1.751-.825,2.627-1.317,2.628S42.624,34.667,43.034,32.947Z"/><path class="cls-5" d="M46,35.521c.132.587.421.878.863.879a1.525,1.525,0,0,0,1.253-.929,7.751,7.751,0,0,0,.79-2.683c.341-2.365.076-3.538-.757-3.529-.436,0-.821.322-1.162.949a9.721,9.721,0,0,0-.86,2.769A6.808,6.808,0,0,0,46,35.521Zm.8-2.6c.329-1.846.713-2.77,1.181-2.774.44,0,.531.9.25,2.72-.275,1.758-.668,2.639-1.158,2.642S46.494,34.65,46.8,32.924Z"/><path class="cls-5" d="M51.021,36.264q.411-3.551.763-7.088l-.259,0c-.114.134-.225.251-.33.356s-.211.2-.314.284-.207.161-.311.23-.212.134-.324.2q-.059.479-.119.955a2.6,2.6,0,0,0,.483-.272,2.445,2.445,0,0,0,.409-.373q-.319,2.853-.68,5.713Z"/><path class="cls-5" d="M55,35.421a7.4,7.4,0,0,0,.515-2.7c.107-2.375-.26-3.553-1.091-3.542q-.651.009-1.071.957a8.967,8.967,0,0,0-.587,2.785,6.832,6.832,0,0,0,.135,2.56c.192.589.511.884.95.88Q54.56,36.355,55,35.421Zm-1.033.046c-.5,0-.671-.864-.535-2.6.144-1.858.442-2.784.907-2.791.44-.007.614.9.512,2.732C54.755,34.576,54.457,35.461,53.969,35.467Z"/><path class="cls-5" d="M57.487,29.45c-.1.1-.192.2-.287.284a3.041,3.041,0,0,1-.289.233c-.1.07-.2.133-.3.2-.009.32-.019.64-.028.96a2.383,2.383,0,0,0,.455-.276,2.249,2.249,0,0,0,.374-.375q-.051,2.865-.11,5.74l.68-.008q.036-3.568.065-7.117l-.258,0C57.682,29.225,57.582,29.346,57.487,29.45Z"/><path class="cls-5" d="M44.9,25.394q.6-3.044,1.111-6.095l-.2,0c-.1.115-.187.217-.274.308s-.172.174-.255.246a2.861,2.861,0,0,1-.25.2c-.084.06-.169.117-.257.171-.052.274-.1.548-.156.823a2.156,2.156,0,0,0,.715-.56q-.444,2.457-.944,4.911Z"/><path class="cls-5" d="M46.981,25.464c.348,0,.661-.274.934-.81a7.626,7.626,0,0,0,.618-2.319c.281-2.043.092-3.056-.533-3.043-.329.007-.619.281-.879.827-.011.021-.02.053-.031.076q-.174.521-.353,1.04c-.1.375-.189.8-.271,1.282a6.884,6.884,0,0,0-.111,2.2C46.447,25.219,46.657,25.467,46.981,25.464Zm-.014-3c.257-1.6.55-2.394.9-2.4.331-.007.391.777.163,2.348-.222,1.519-.523,2.28-.884,2.286S46.725,23.96,46.967,22.467Z"/><path class="cls-5" d="M50.673,19.237c-.328.006-.608.282-.847.828a9.126,9.126,0,0,0-.564,2.4,6.86,6.86,0,0,0-.023,2.2c.114.5.333.757.657.751.347-.006.648-.277.9-.812a7.464,7.464,0,0,0,.525-2.322C51.522,20.24,51.3,19.223,50.673,19.237Zm.148,3.123c-.162,1.522-.432,2.283-.792,2.291s-.452-.74-.269-2.234c.2-1.6.459-2.4.809-2.408C50.9,20,50.988,20.787,50.821,22.36Z"/><path class="cls-5" d="M52.964,19.46c-.078.09-.154.172-.23.246a2.594,2.594,0,0,1-.229.2c-.077.058-.157.118-.239.171q-.034.414-.071.827a1.8,1.8,0,0,0,.356-.238,2.1,2.1,0,0,0,.3-.325q-.191,2.468-.405,4.936l.5-.008q.246-3.063.454-6.124l-.2,0C53.123,19.266,53.043,19.369,52.964,19.46Z"/><path class="cls-5" d="M56.236,22.191c.064-2.051-.22-3.066-.846-3.054-.327.008-.591.283-.794.831a8.746,8.746,0,0,0-.4,2.409,6.876,6.876,0,0,0,.132,2.206c.149.508.387.756.71.752.347-.005.628-.277.84-.815A7.356,7.356,0,0,0,56.236,22.191Zm-.494.076c-.058,1.524-.27,2.292-.631,2.3s-.5-.74-.424-2.239c.086-1.6.3-2.41.648-2.415C55.665,19.905,55.8,20.689,55.742,22.267Z"/><path class="cls-5" d="M57.7,19.36c-.073.09-.144.172-.215.247a2.846,2.846,0,0,1-.216.2c-.073.061-.149.116-.228.172q-.009.414-.017.828a1.766,1.766,0,0,0,.34-.239,1.809,1.809,0,0,0,.278-.326q-.03,2.474-.065,4.948l.5-.009q.023-3.07.039-6.137l-.194,0C57.841,19.165,57.767,19.269,57.7,19.36Z"/><path class="cls-5" d="M47.662,16.763q.386-2.732.716-5.47l-.158,0c-.074.1-.145.2-.212.277a2.981,2.981,0,0,1-.2.222,2.114,2.114,0,0,1-.2.179c-.065.054-.133.105-.2.155q-.05.369-.1.739a1.72,1.72,0,0,0,.3-.214,1.913,1.913,0,0,0,.258-.291q-.285,2.207-.607,4.408Z"/><path class="cls-5" d="M49.3,12.025a9.053,9.053,0,0,0-.465,2.153c-.037.3-.047.551-.061.8q.565-1.833,1.1-3.671C49.654,11.376,49.463,11.608,49.3,12.025Z"/><path class="cls-5" d="M49.316,16.815c.276-.006.519-.248.723-.729a7.436,7.436,0,0,0,.441-2.078c.183-1.831.01-2.741-.5-2.727a.411.411,0,0,0-.113.03q-.535,1.837-1.1,3.671a5.316,5.316,0,0,0,.03,1.165Q48.931,16.824,49.316,16.815Zm-.086-2.684c.166-1.429.383-2.152.665-2.158.266-.007.332.695.185,2.1-.143,1.363-.365,2.044-.652,2.052S49.074,15.472,49.23,14.131Z"/><path class="cls-5" d="M51.093,16.094c.1.451.279.675.536.669.276-.006.511-.251.7-.73a7.419,7.419,0,0,0,.381-2.079c.13-1.832-.065-2.744-.57-2.729-.265.007-.486.254-.669.745a8.854,8.854,0,0,0-.405,2.154A6.814,6.814,0,0,0,51.093,16.094Zm.372-2.017c.126-1.433.323-2.154.6-2.16.267-.006.351.694.243,2.106-.105,1.361-.306,2.046-.592,2.053S51.346,15.416,51.465,14.077Z"/><path class="cls-5" d="M54.052,16.619q.157-2.739.291-5.482l-.157,0c-.067.1-.13.2-.192.278s-.122.154-.183.222a2.2,2.2,0,0,1-.182.18c-.061.055-.125.105-.191.154l-.045.74a1.513,1.513,0,0,0,.283-.214,1.708,1.708,0,0,0,.237-.292q-.121,2.212-.26,4.419C53.786,16.624,53.919,16.622,54.052,16.619Z"/><path class="cls-5" d="M56.649,13.856c.041-1.833-.2-2.745-.7-2.732-.266.007-.475.255-.634.746a8.526,8.526,0,0,0-.3,2.157A6.858,6.858,0,0,0,55.139,16c.123.453.315.674.571.67.275-.007.5-.249.662-.731A7.286,7.286,0,0,0,56.649,13.856Zm-.4.069q-.057,2.046-.488,2.056t-.358-2q.081-2.151.5-2.162C56.176,11.81,56.292,12.514,56.254,13.925Z"/><path class="cls-5" d="M57.81,11.319c-.057.08-.115.156-.172.222a1.871,1.871,0,0,1-.174.18c-.059.055-.12.1-.183.155,0,.247-.007.494-.011.741a1.283,1.283,0,0,0,.273-.215,1.5,1.5,0,0,0,.223-.292q-.018,2.214-.039,4.424l.4-.009q.014-2.742.022-5.488l-.157,0A3.3,3.3,0,0,1,57.81,11.319Z"/><path class="cls-5" d="M50.679,9.083q.285-2.022.53-4.048l-.117,0c-.054.076-.107.145-.156.205s-.1.115-.148.164a1.585,1.585,0,0,1-.144.133c-.048.039-.1.078-.15.114-.024.183-.049.364-.074.547a1.278,1.278,0,0,0,.221-.158,1.472,1.472,0,0,0,.192-.216q-.212,1.634-.45,3.263Z"/><path class="cls-5" d="M51.888,5.577a6.726,6.726,0,0,0-.344,1.593c-.027.225-.035.408-.045.595q.418-1.356.815-2.717C52.153,5.1,52.012,5.268,51.888,5.577Z"/><path class="cls-5" d="M51.9,9.122c.2,0,.383-.184.534-.54a5.486,5.486,0,0,0,.327-1.538c.135-1.355.007-2.028-.367-2.018a.306.306,0,0,0-.084.022q-.4,1.361-.815,2.717a3.95,3.95,0,0,0,.022.862C51.586,8.961,51.713,9.126,51.9,9.122ZM51.84,7.135c.123-1.058.283-1.592.492-1.6s.246.514.137,1.557c-.106,1.009-.27,1.513-.482,1.518S51.724,8.127,51.84,7.135Z"/><path class="cls-5" d="M53.5,5.536a6.511,6.511,0,0,0-.3,1.594,5.079,5.079,0,0,0,.019,1.458c.074.334.206.5.4.5s.378-.186.518-.54A5.5,5.5,0,0,0,54.416,7c.1-1.356-.048-2.031-.422-2.02C53.8,4.99,53.634,5.173,53.5,5.536Zm.622,1.519c-.078,1.008-.226,1.514-.438,1.519s-.277-.488-.19-1.479c.094-1.06.24-1.594.449-1.6S54.2,6.01,54.121,7.055Z"/><path class="cls-5" d="M55.23,5.292a1.528,1.528,0,0,1-.135.133c-.046.041-.093.079-.141.115-.011.182-.022.365-.034.548a1.159,1.159,0,0,0,.21-.159,1.264,1.264,0,0,0,.175-.216q-.09,1.637-.192,3.27l.3-.007q.115-2.027.215-4.056l-.116,0c-.049.077-.1.147-.142.206S55.275,5.242,55.23,5.292Z"/><path class="cls-5" d="M56.119,7.058a5.114,5.114,0,0,0,.093,1.46c.091.336.233.5.423.5s.368-.184.49-.541a5.415,5.415,0,0,0,.2-1.541c.03-1.357-.145-2.032-.518-2.022-.2,0-.352.188-.47.552A6.344,6.344,0,0,0,56.119,7.058Zm.293-.035c.04-1.061.163-1.593.371-1.6s.283.516.254,1.56Q57,8.5,56.676,8.5T56.412,7.023Z"/><path class="cls-5" d="M58.189,5.054a1.951,1.951,0,0,1-.127.164,1.272,1.272,0,0,1-.129.134c-.043.04-.089.077-.136.114,0,.183,0,.366-.007.549a1.012,1.012,0,0,0,.2-.159,1.236,1.236,0,0,0,.165-.216q-.013,1.638-.03,3.273l.295-.007q.011-2.028.016-4.061c-.039,0-.077,0-.116,0A2.319,2.319,0,0,1,58.189,5.054Z"/><path class="cls-5" d="M52.22,3.586q.24-1.693.444-3.391l-.1,0c-.045.064-.089.121-.131.172s-.083.1-.123.137a1.342,1.342,0,0,1-.121.111c-.041.034-.083.066-.125.1L52,1.171a1.092,1.092,0,0,0,.186-.132,1.2,1.2,0,0,0,.16-.181q-.177,1.368-.377,2.734Z"/><path class="cls-5" d="M53.233.648a5.611,5.611,0,0,0-.288,1.335c-.022.189-.029.342-.037.5q.349-1.137.682-2.277C53.455.246,53.337.39,53.233.648Z"/><path class="cls-5" d="M53.246,3.618c.171,0,.322-.154.448-.452a4.609,4.609,0,0,0,.274-1.289c.113-1.134.006-1.7-.308-1.69a.249.249,0,0,0-.07.018q-.332,1.14-.682,2.277a3.277,3.277,0,0,0,.018.722C52.98,3.483,53.087,3.622,53.246,3.618Zm-.053-1.664c.1-.886.237-1.334.412-1.338s.206.431.115,1.3c-.089.846-.227,1.268-.4,1.273S53.1,2.785,53.193,1.954Z"/><path class="cls-5" d="M54.68,3.586c.171,0,.317-.156.435-.452a4.657,4.657,0,0,0,.236-1.29C55.432.708,55.311.143,55,.152c-.165,0-.3.158-.415.462a5.48,5.48,0,0,0-.252,1.335,4.31,4.31,0,0,0,.016,1.222C54.41,3.451,54.52,3.59,54.68,3.586Zm-.1-1.666c.078-.888.2-1.335.376-1.339s.217.43.15,1.306c-.065.844-.189,1.269-.367,1.273S54.505,2.751,54.578,1.92Z"/><path class="cls-5" d="M56.1.762q-.075,1.373-.161,2.74l.247-.006q.1-1.7.181-3.4l-.1,0c-.041.064-.08.123-.119.172s-.076.1-.113.138a1.485,1.485,0,0,1-.113.112c-.038.034-.077.065-.118.095-.009.153-.019.307-.028.459a.928.928,0,0,0,.175-.133A.98.98,0,0,0,56.1.762Z"/><path class="cls-5" d="M57.21,3.528c.171,0,.309-.154.411-.453a4.493,4.493,0,0,0,.171-1.291c.026-1.137-.121-1.7-.434-1.694-.164,0-.294.158-.393.462a5.31,5.31,0,0,0-.187,1.338,4.28,4.28,0,0,0,.078,1.223C56.933,3.394,57.051,3.531,57.21,3.528ZM57.023,1.86c.034-.889.137-1.335.311-1.341s.237.433.213,1.308q-.034,1.268-.3,1.274C57.064,3.106,56.991,2.693,57.023,1.86Z"/><path class="cls-5" d="M58.513.211c-.036.049-.072.1-.107.137A1.292,1.292,0,0,1,58.3.46c-.037.034-.075.064-.114.1l-.006.459a.813.813,0,0,0,.169-.133A.955.955,0,0,0,58.485.7q-.01,1.373-.024,2.743l.247-.006q.008-1.7.013-3.4l-.1,0C58.586.1,58.549.161,58.513.211Z"/><polygon class="cls-6" points="62.68 128.017 62.757 108.448 65.612 108.419 66.083 127.983 62.68 128.017"/><polygon class="cls-6" points="62.774 103.952 62.909 69.481 64.673 69.463 65.503 103.924 62.774 103.952"/><polygon class="cls-6" points="62.926 64.984 63.061 30.513 63.734 30.506 64.565 64.968 62.926 64.984"/><polygon class="cls-6" points="63.078 26.017 63.154 6.448 63.626 26.011 63.078 26.017"/></g></g></g></svg>