<?xml version="1.0" encoding="utf-8"?>
<!-- Generator: Adobe Illustrator 24.1.3, SVG Export Plug-In . SVG Version: 6.00 Build 0)  -->
<svg version="1.1" id="Layer_1" xmlns="http://www.w3.org/2000/svg" xmlns:xlink="http://www.w3.org/1999/xlink" x="0px" y="0px"
	 viewBox="0 0 680 500" style="enable-background:new 0 0 680 500;" xml:space="preserve">
<style type="text/css">
	.st0{fill:url(#SVGID_1_);}
	.st1{fill:url(#SVGID_2_);}
	.st2{fill:#071E31;}
	.st3{fill:#E9F5FF;}
	.st4{fill:#455769;}
	.st5{fill:url(#SVGID_3_);}
	.st6{opacity:0.33;fill:#FFFFFF;enable-background:new    ;}
	.st7{fill:#E11E19;}
	.st8{fill-rule:evenodd;clip-rule:evenodd;fill:#FFFFFF;}
	.st9{fill-rule:evenodd;clip-rule:evenodd;fill:#CFDEEB;}
	.st10{fill:#6588AB;}
	.st11{fill:#CFDEEB;}
	.st12{fill:#0E3C62;}
	.st13{fill-rule:evenodd;clip-rule:evenodd;fill:#6588AB;}
	.st14{fill-rule:evenodd;clip-rule:evenodd;fill:#0E3C62;}
	.st15{fill-rule:evenodd;clip-rule:evenodd;fill:#071E31;}
	.st16{fill-rule:evenodd;clip-rule:evenodd;fill:#A4C9E7;}
	.st17{fill-rule:evenodd;clip-rule:evenodd;fill:#77ADDB;}
	.st18{fill-rule:evenodd;clip-rule:evenodd;fill:#FAFDFF;stroke:#CFDEEB;stroke-miterlimit:10;}
	.st19{fill-rule:evenodd;clip-rule:evenodd;fill:#E3DDE0;}
	.st20{fill:#676767;}
	.st21{fill:#FCE8E8;}
	.st22{fill-rule:evenodd;clip-rule:evenodd;fill:#FFFFFF;stroke:#CFDEEB;stroke-miterlimit:10;}
	.st23{fill-rule:evenodd;clip-rule:evenodd;fill:#DDE4E8;}
	.st24{fill:#155992;}
	.st25{fill:#F5F6F7;}
	.st26{fill:#FFCC00;}
	.st27{clip-path:url(#SVGID_5_);}
	.st28{opacity:0.24;fill:#FFFFFF;enable-background:new    ;}
	.st29{fill:#CC8A00;}
	.st30{fill:#E95653;}
	.st31{fill:#F08E8C;}
	.st32{fill:#DF1D18;}
	.st33{fill:#FFFFFF;}
	.st34{clip-path:url(#SVGID_7_);}
</style>
<g>
	<g id="Layer_1_1_">
		
			<linearGradient id="SVGID_1_" gradientUnits="userSpaceOnUse" x1="55.07" y1="239.03" x2="608.48" y2="239.03" gradientTransform="matrix(1 0 0 -1 0 501.3386)">
			<stop  offset="0" style="stop-color:#0E3C62"/>
			<stop  offset="5.000000e-02" style="stop-color:#CCCCCC"/>
			<stop  offset="0.2" style="stop-color:#071E31"/>
			<stop  offset="0.64" style="stop-color:#071E31"/>
			<stop  offset="0.95" style="stop-color:#0E3C62"/>
			<stop  offset="0.98" style="stop-color:#DEE3E8"/>
			<stop  offset="1" style="stop-color:#0E3C62"/>
		</linearGradient>
		<path class="st0" d="M55.1,437.7V111.8c0-13.7,11.2-24.9,24.9-24.9h503.6c13.7,0,24.9,11.2,24.9,24.9v325.9H55.1z"/>
		
			<linearGradient id="SVGID_2_" gradientUnits="userSpaceOnUse" x1="14.3" y1="62.035" x2="655.02" y2="62.035" gradientTransform="matrix(1 0 0 -1 0 501.3386)">
			<stop  offset="0" style="stop-color:#475F78"/>
			<stop  offset="5.000000e-02" style="stop-color:#D1DEEB"/>
			<stop  offset="0.2" style="stop-color:#455769"/>
			<stop  offset="0.64" style="stop-color:#071E31"/>
			<stop  offset="0.95" style="stop-color:#455769"/>
			<stop  offset="0.98" style="stop-color:#D1DEEB"/>
			<stop  offset="1" style="stop-color:#475F78"/>
		</linearGradient>
		<path class="st1" d="M17.5,434.4h634.3c1.8,0,3.2,1.4,3.2,3.2v3.3c0,1.8-1.4,3.2-3.2,3.2H17.5c-1.8,0-3.2-1.4-3.2-3.2v-3.3
			C14.3,435.9,15.7,434.4,17.5,434.4z"/>
		<path class="st2" d="M343.3,444.1H17.5c0,0,12.3,5.7,15.6,7.2c0.5,0.2,1,0.3,1.5,0.3h600.3c0.4,0,0.9-0.1,1.3-0.2
			c3.5-1.4,16.3-7.3,16.3-7.3H343.3z"/>
		<path class="st2" d="M583.6,90.2H80c-12,0-21.6,9.7-21.6,21.6c0,0,0,0,0,0v322.6h546.9V111.8C605.2,99.9,595.5,90.2,583.6,90.2
			L583.6,90.2z"/>
		<rect x="80" y="111.8" class="st3" width="503.6" height="301"/>
		<path class="st4" d="M243.1,434.9c0,3.1,2.5,5.7,5.6,5.7c0,0,0,0,0,0h171.7c3.1,0,5.7-2.5,5.7-5.7l0,0c0-0.1,0-0.3,0-0.4h-183
			C243.2,434.6,243.1,434.7,243.1,434.9z"/>
		
			<linearGradient id="SVGID_3_" gradientUnits="userSpaceOnUse" x1="342.4117" y1="399.9672" x2="344.7617" y2="401.3972" gradientTransform="matrix(1 0 0 -1 0 501.3386)">
			<stop  offset="0" style="stop-color:#242426"/>
			<stop  offset="8.000000e-02" style="stop-color:#0E0E0F"/>
			<stop  offset="0.11" style="stop-color:#121213"/>
			<stop  offset="0.39" style="stop-color:#404042"/>
			<stop  offset="0.65" style="stop-color:#616164"/>
			<stop  offset="0.86" style="stop-color:#757579"/>
			<stop  offset="1" style="stop-color:#7C7C80"/>
		</linearGradient>
		<path class="st5" d="M346.2,100.8c0,1.6-1.3,2.9-2.9,2.9s-2.9-1.3-2.9-2.9c0-1.6,1.3-2.9,2.9-2.9l0,0
			C344.9,98,346.2,99.2,346.2,100.8z"/>
		<path class="st6" d="M80.5,90.8c-12,0-21.7,9.7-21.7,21.7l0,0V435h59.5L336.8,90.8H80.5z"/>
		<path class="st7" d="M117.6,329.9v2.2H117V330h-2.2v-0.6h2.2v-2.1h0.6v2.1h2.2v0.6L117.6,329.9z"/>
		<rect x="123.1" y="328.5" class="st7" width="41.2" height="2.4"/>
		<polygon class="st8" points="323.7,208.9 313.9,199.7 275.2,199.7 275.2,265.3 323.7,265.3 		"/>
		<polygon class="st9" points="313.9,199.8 323.7,209.1 313.9,209.1 		"/>
		<path class="st10" d="M317.1,227.2h-37.3c-0.4,0-0.8-0.4-0.7-0.9c0-0.4,0.3-0.7,0.7-0.7h37.3c0.4,0,0.8,0.3,0.8,0.8c0,0,0,0,0,0
			c0,0.4-0.2,0.7-0.6,0.8C317.2,227.3,317.2,227.3,317.1,227.2z M317.1,221.8h-37.3c-0.4,0-0.8-0.4-0.7-0.9c0-0.4,0.3-0.7,0.7-0.7
			h37.3c0.4,0,0.8,0.3,0.8,0.8c0,0,0,0,0,0c0,0.4-0.2,0.7-0.6,0.8C317.2,221.8,317.2,221.8,317.1,221.8z M317.1,216.4h-37.3
			c-0.4,0-0.8-0.4-0.7-0.9c0-0.4,0.3-0.7,0.7-0.7h37.3c0.4,0,0.8,0.3,0.8,0.8c0,0,0,0,0,0c0,0.4-0.2,0.8-0.6,0.8
			C317.2,216.4,317.2,216.4,317.1,216.4L317.1,216.4z M300.6,258.5h-19.6c-0.2,0-0.3-0.3-0.3-0.8s0.2-0.8,0.3-0.8h19.6
			c0.2,0,0.3,0.3,0.3,0.8S300.8,258.5,300.6,258.5L300.6,258.5z"/>
		<rect x="279.7" y="233.5" class="st11" width="37.9" height="16.8"/>
		<rect x="292.3" y="278.7" class="st12" width="14.1" height="108.5"/>
		<path class="st13" d="M290.8,281l16.4-4.5c0.6-0.2,1.3,0.2,1.5,0.8l0,0c0.2,0.6-0.2,1.3-0.8,1.5l-16.4,4.5
			c-0.6,0.2-1.3-0.2-1.5-0.8l0,0c-0.2-0.6,0.1-1.2,0.7-1.4C290.7,281,290.8,281,290.8,281z"/>
		<path class="st13" d="M290.8,285.4l16.4-4.5c0.6-0.2,1.3,0.2,1.5,0.8l0,0c0.2,0.6-0.2,1.3-0.8,1.5l-16.4,4.5
			c-0.6,0.2-1.3-0.2-1.5-0.8l0,0c-0.2-0.6,0-1.2,0.6-1.4C290.7,285.5,290.7,285.4,290.8,285.4z"/>
		<path class="st13" d="M290.8,289.7l16.4-4.5c0.6-0.2,1.3,0.2,1.5,0.8l0,0c0.2,0.6-0.2,1.3-0.8,1.5l-16.4,4.5
			c-0.6,0.2-1.3-0.2-1.5-0.8l0,0C289.8,290.6,290.2,289.9,290.8,289.7z"/>
		<path class="st13" d="M290.8,294.1l16.4-4.5c0.6-0.2,1.3,0.2,1.5,0.8l0,0c0.2,0.6-0.2,1.3-0.8,1.5l-16.4,4.5
			c-0.6,0.2-1.3-0.2-1.5-0.8l0,0c-0.2-0.6,0.1-1.2,0.7-1.4C290.7,294.2,290.8,294.1,290.8,294.1z"/>
		<path class="st13" d="M290.8,298.6l16.4-4.5c0.6-0.2,1.3,0.2,1.5,0.8l0,0c0.2,0.6-0.2,1.3-0.8,1.5c0,0,0,0,0,0l-16.4,4.5
			c-0.6,0.2-1.3-0.2-1.5-0.8l0,0c-0.2-0.6,0-1.2,0.6-1.4C290.7,298.6,290.7,298.6,290.8,298.6z"/>
		<path class="st13" d="M290.8,302.9l16.4-4.5c0.6-0.2,1.3,0.2,1.5,0.8l0,0c0.2,0.6-0.2,1.3-0.8,1.5l-16.4,4.5
			c-0.6,0.2-1.3-0.2-1.5-0.8l0,0C289.8,303.8,290.1,303.2,290.8,302.9z"/>
		<path class="st13" d="M290.8,307.3l16.4-4.5c0.6-0.2,1.3,0.2,1.5,0.8l0,0c0.2,0.6-0.2,1.3-0.8,1.5c0,0,0,0,0,0l-16.4,4.5
			c-0.6,0.2-1.3-0.2-1.5-0.8l0,0c-0.2-0.6,0-1.2,0.6-1.4C290.7,307.3,290.7,307.3,290.8,307.3z"/>
		<path class="st13" d="M290.8,311.6l16.4-4.5c0.6-0.2,1.3,0.2,1.5,0.8l0,0c0.2,0.6-0.2,1.3-0.8,1.5l-16.4,4.5
			c-0.6,0.2-1.2-0.1-1.5-0.7l0,0C289.8,312.5,290.2,311.8,290.8,311.6C290.8,311.6,290.8,311.6,290.8,311.6z"/>
		<path class="st13" d="M290.8,316.1l16.4-4.5c0.6-0.2,1.3,0.2,1.5,0.8c0,0,0,0,0,0l0,0c0.2,0.6-0.2,1.3-0.8,1.5c0,0,0,0,0,0
			l-16.4,4.5c-0.6,0.2-1.3-0.2-1.5-0.8l0,0C289.8,316.8,290.1,316.2,290.8,316.1z"/>
		<path class="st13" d="M290.8,320.4l16.4-4.5c0.6-0.2,1.3,0.2,1.5,0.8l0,0c0.2,0.6-0.2,1.3-0.8,1.5c0,0,0,0,0,0l-16.4,4.5
			c-0.6,0.2-1.3-0.2-1.5-0.8l0,0c-0.2-0.6,0.1-1.2,0.7-1.4C290.7,320.5,290.8,320.5,290.8,320.4z"/>
		<path class="st13" d="M290.8,324.9l16.4-4.5c0.6-0.2,1.3,0.2,1.5,0.8c0,0,0,0,0,0l0,0c0.2,0.6-0.2,1.3-0.8,1.5c0,0,0,0,0,0
			l-16.4,4.5c-0.6,0.2-1.3-0.2-1.5-0.8l0,0c-0.2-0.6,0.1-1.2,0.7-1.4C290.7,324.9,290.8,324.9,290.8,324.9z"/>
		<path class="st13" d="M290.8,329.2l16.4-4.5c0.6-0.2,1.3,0.2,1.5,0.8c0,0,0,0,0,0l0,0c0.2,0.6-0.2,1.3-0.8,1.5c0,0,0,0,0,0
			l-16.4,4.5c-0.6,0.2-1.3-0.2-1.5-0.8l0,0c-0.2-0.6,0-1.2,0.6-1.4C290.7,329.2,290.7,329.2,290.8,329.2z"/>
		<path class="st13" d="M290.8,333.5l16.4-4.5c0.6-0.2,1.3,0.2,1.5,0.8l0,0c0.2,0.6-0.2,1.3-0.8,1.5c0,0,0,0,0,0l-16.4,4.5
			c-0.6,0.2-1.3-0.2-1.5-0.8l0,0C289.8,334.5,290.1,333.8,290.8,333.5z"/>
		<path class="st13" d="M290.8,338l16.4-4.5c0.6-0.2,1.3,0.2,1.5,0.8l0,0c0.2,0.6-0.2,1.3-0.8,1.5l-16.4,4.5
			c-0.6,0.2-1.3-0.2-1.5-0.8l0,0c-0.2-0.5,0-1.2,0.5-1.4C290.6,338.1,290.7,338,290.8,338z"/>
		<path class="st13" d="M290.8,342.2l16.4-4.5c0.6-0.2,1.3,0.2,1.5,0.8l0,0c0.2,0.6-0.2,1.3-0.8,1.5c0,0,0,0,0,0l-16.4,4.5
			c-0.6,0.2-1.3-0.2-1.5-0.8l0,0C289.8,343.1,290.2,342.4,290.8,342.2z"/>
		<path class="st13" d="M290.8,346.7l16.4-4.5c0.6-0.2,1.3,0.2,1.5,0.8l0,0c0.2,0.6-0.2,1.3-0.8,1.5l-16.4,4.5
			c-0.6,0.2-1.3-0.2-1.5-0.8l0,0c-0.2-0.6,0.1-1.2,0.7-1.4C290.7,346.8,290.8,346.8,290.8,346.7z"/>
		<path class="st13" d="M290.8,351.2l16.4-4.5c0.6-0.2,1.3,0.2,1.5,0.8l0,0c0.2,0.6-0.2,1.3-0.8,1.5l-16.4,4.5
			c-0.6,0.2-1.3-0.2-1.5-0.8l0,0C289.8,352,290.1,351.2,290.8,351.2z"/>
		<path class="st13" d="M290.8,355.5l16.4-4.5c0.6-0.2,1.3,0.2,1.5,0.8l0,0c0.2,0.6-0.2,1.3-0.8,1.5l-16.4,4.5
			c-0.6,0.2-1.3-0.2-1.5-0.8l0,0c-0.2-0.6,0.1-1.2,0.7-1.4C290.7,355.5,290.8,355.5,290.8,355.5z"/>
		<path class="st13" d="M290.8,359.9l16.4-4.5c0.6-0.2,1.3,0.2,1.5,0.8l0,0c0.2,0.6-0.2,1.3-0.8,1.5l-16.4,4.5
			c-0.6,0.2-1.3-0.2-1.5-0.8l0,0c-0.2-0.6,0.1-1.2,0.6-1.4C290.7,359.9,290.7,359.9,290.8,359.9z"/>
		<path class="st13" d="M290.8,364.1l16.4-4.5c0.6-0.2,1.3,0.2,1.5,0.8c0,0,0,0,0,0l0,0c0.2,0.6-0.2,1.3-0.8,1.5c0,0,0,0,0,0
			l-16.4,4.5c-0.6,0.2-1.3-0.2-1.5-0.8l0,0C289.8,365.1,290.1,364.4,290.8,364.1z"/>
		<path class="st13" d="M290.8,368.6l16.4-4.5c0.6-0.2,1.3,0.2,1.5,0.8c0,0,0,0,0,0l0,0c0.2,0.6-0.2,1.3-0.8,1.5c0,0,0,0,0,0
			l-16.4,4.5c-0.6,0.2-1.3-0.2-1.5-0.8l0,0c-0.2-0.6,0.1-1.2,0.6-1.4C290.7,368.7,290.7,368.7,290.8,368.6z"/>
		<path class="st13" d="M290.8,372.9l16.4-4.5c0.6-0.2,1.3,0.2,1.5,0.8l0,0c0.2,0.6-0.2,1.3-0.8,1.5l-16.4,4.5
			c-0.6,0.2-1.3-0.2-1.5-0.8l0,0c-0.2-0.6,0.1-1.2,0.7-1.4C290.7,373,290.8,373,290.8,372.9z"/>
		<path class="st14" d="M319.8,263.6h-41.1c0,8.3,6.6,15,14.9,15.1h11.2c8.3,0,15-6.6,15.1-14.9
			C319.8,263.8,319.8,263.7,319.8,263.6z"/>
		<path class="st15" d="M324.3,261.1v-4.5h-50v4.5c0,2.5,2,4.5,4.4,4.5h41.1C322.3,265.7,324.3,263.6,324.3,261.1
			C324.3,261.2,324.3,261.1,324.3,261.1z"/>
		<path class="st15" d="M257.2,377.7h86.5c1.5-3.3,4.8-5.5,8.5-5.4c5.3-0.1,9.6,4.2,9.6,9.4c0.1,5.3-4.2,9.6-9.4,9.6
			c-3.7,0-7.1-2.1-8.7-5.4h-86.5c-1.5,3.3-4.8,5.5-8.5,5.4c-5.2-0.3-9.2-4.9-8.9-10.1c0.3-4.8,4.1-8.6,8.9-8.9
			C252.3,372.4,255.6,374.5,257.2,377.7z"/>
		<rect x="288.8" y="372" class="st12" width="21.1" height="19"/>
		<path class="st16" d="M409.5,224.3v79.1c0,52.4-49.4,63.5-84.1,63.5H283v-41h42.5c12.3,0,43.8,3.2,43.4-22.5v-98.2
			c-1.3-27-31.3-22.3-43.3-22.3h-9.3v15.2h-33.9v-45.9c0-5.6,4.5-10.2,10.1-10.2c0,0,0.1,0,0.1,0h33.1c34.5,0,84.1,28.6,84.1,63.5
			L409.5,224.3L409.5,224.3z"/>
		<path class="st17" d="M287,316.7h24.6c2.6,0.1,4.7,2.2,4.8,4.8v49.8c0,2.6-2.1,4.8-4.8,4.8H287c-2.6-0.1-4.7-2.2-4.8-4.8v-49.8
			C282.3,318.9,284.4,316.8,287,316.7z"/>
		<path class="st17" d="M324.3,199.6v7h-50v-7c0-3.9,3.1-7,7-7h36.1c3.8,0,6.9,3,6.9,6.9C324.3,199.5,324.3,199.5,324.3,199.6z"/>
		<path class="st10" d="M246.5,260.6c2.3-2.4,4.6-4.9,7-7.3c1.2-1.3,2.3-2.4,3.5-3.6s2.5-2.1,4-3.3l0.1,0.1c-1,1.4-2.2,2.6-3.4,3.8
			c-1.3,1.3-2.4,2.3-3.7,3.4C251.6,256.2,249.1,258.4,246.5,260.6L246.5,260.6z"/>
		<path class="st10" d="M241.3,203.7c2.7,1.1,5.4,2.1,8.2,3.4c1.4,0.4,2.7,1,4,1.7c1.3,0.7,2.6,1.4,3.9,2.1v0.1
			c-1.4-0.4-2.8-0.9-4.2-1.5c-1.4-0.5-2.7-1.2-4-1.9C246.5,206.3,243.8,205,241.3,203.7L241.3,203.7z"/>
		<path class="st10" d="M242.3,231l8.1-1c1.3-0.2,2.7-0.3,4-0.3c1.4-0.1,2.7,0,4.1,0.1v0.1c-1.4,0.3-2.7,0.6-4,0.8
			c-1.3,0.2-2.7,0.3-4,0.2C247.6,230.9,244.8,231,242.3,231L242.3,231z"/>
		<path class="st10" d="M359,255.9l-8.5-5.5c-1.5-0.9-2.8-1.7-4.2-2.7c-1.4-1-2.7-2.1-4-3.3l0.1-0.1c1.5,0.7,3,1.5,4.4,2.5
			c1.5,0.9,2.7,1.9,4.1,2.9C353.6,251.8,356.4,253.8,359,255.9L359,255.9z"/>
		<path class="st10" d="M354.7,198.8c-2.3,1.7-4.8,3.5-7.1,5.2c-1.1,0.9-2.4,1.8-3.6,2.5c-1.3,0.9-2.6,1.6-4,2.2l-0.1-0.1
			c1.1-1,2.2-1.9,3.4-2.8c1.2-0.9,2.5-1.7,3.8-2.4C349.8,201.8,352.2,200.3,354.7,198.8L354.7,198.8z"/>
		<path class="st10" d="M358.4,226c-2.7,0.3-5.3,0.7-8,1.1c-1.4,0.2-2.7,0.3-4,0.4c-1.4,0.1-2.7,0.1-4.1-0.1v-0.1
			c1.4-0.3,2.7-0.6,4-0.8s2.7-0.2,4-0.3C353,226.1,355.7,226,358.4,226L358.4,226z"/>
		<path class="st18" d="M175,221.5l-32.4-30.2H14.8V408H158c9.4,0,17-7.6,17-17V221.5z"/>
		<polygon class="st19" points="142.6,191.4 175,221.8 142.6,221.8 		"/>
		<path class="st20" d="M149.6,281.9H38.1c-1.3,0-2.4-1.1-2.4-2.4s1.1-2.4,2.4-2.4l0,0h111.6c1.3,0,2.4,1.1,2.4,2.4
			C152,280.8,150.9,281.9,149.6,281.9z M149.6,265.7H38.1c-1.3,0-2.4-1.1-2.4-2.4s1.1-2.4,2.4-2.4l0,0h111.6c1.3,0,2.4,1.1,2.4,2.4
			C152,264.6,150.9,265.6,149.6,265.7z M149.6,249.5H38.1c-1.3,0-2.3-1-2.4-2.3c0-1.3,1-2.3,2.3-2.4c0,0,0.1,0,0.1,0h111.6
			c1.3,0,2.4,1.1,2.4,2.4C152,248.4,150.9,249.4,149.6,249.5z M99.6,375.5H41c-0.7,0-1.1-1-1.1-2.4s0.6-2.4,1.1-2.4h58.6
			c0.7,0,1.1,1,1.1,2.4S100.3,375.5,99.6,375.5L99.6,375.5z"/>
		<rect x="37.5" y="300.4" class="st21" width="113.4" height="50.1"/>
		<path class="st22" d="M188.3,209.7l-32.4-30.2H28.1v216.7h133.2c14.9,0,27-12.1,27-27l0,0V209.7z"/>
		<polygon class="st9" points="155.9,179.6 188.3,210.1 155.9,210.1 		"/>
		<path class="st10" d="M162.9,270H51.3c-1.3,0-2.4-1.1-2.4-2.4c0-1.3,1-2.3,2.3-2.4c0,0,0.1,0,0.1,0h111.6c1.3-0.1,2.5,0.9,2.5,2.2
			c0.1,1.3-0.9,2.5-2.2,2.5C163.1,270,163,270,162.9,270L162.9,270z M162.9,253.8H51.3c-1.3,0-2.4-1.1-2.4-2.4c0-1.3,1-2.3,2.3-2.4
			c0,0,0.1,0,0.1,0h111.6c1.3,0,2.4,1.1,2.4,2.4c0,1.3-1,2.3-2.3,2.4C163,253.8,162.9,253.8,162.9,253.8z M162.9,237.6H51.3
			c-1.3,0-2.4-1.1-2.4-2.4c0-1.3,1-2.3,2.3-2.4c0,0,0.1,0,0.1,0h111.6c1.3,0,2.4,1.1,2.4,2.4c0,1.3-1,2.4-2.3,2.4
			C163,237.6,162.9,237.6,162.9,237.6z M112.9,363.9H54.3c-0.7,0-1.1-1-1.1-2.4s0.6-2.4,1.1-2.4h58.6c0.7,0,1.1,1,1.1,2.4
			S113.6,363.9,112.9,363.9z"/>
		<rect x="50.8" y="288.6" class="st11" width="113.4" height="50.1"/>
		<path class="st18" d="M596.6,222.9l-32.4-30H436.4v216.6h133.2c14.9,0,27-12.1,27-27V222.9z"/>
		<polygon class="st19" points="564.2,193 596.6,223.4 564.2,223.4 		"/>
		<path class="st20" d="M571.1,283.3H459.5c-1.3,0-2.4-1.1-2.4-2.4c0-1.3,1-2.3,2.3-2.4c0,0,0.1,0,0.1,0h111.6
			c1.3,0,2.4,1.1,2.4,2.4c0,1.3-1,2.4-2.3,2.4C571.1,283.3,571.1,283.3,571.1,283.3z M571.1,267.2H459.5c-1.3,0-2.4-1.1-2.4-2.4
			c0-1.3,1-2.3,2.3-2.4c0,0,0.1,0,0.1,0h111.6c1.3,0,2.4,1.1,2.4,2.4C573.5,266.1,572.5,267.1,571.1,267.2
			C571.1,267.1,571.1,267.1,571.1,267.2L571.1,267.2z M571.1,250.9H459.5c-1.3,0-2.4-1.1-2.4-2.4c0-1.3,1.1-2.4,2.4-2.4h111.6
			c1.3,0,2.4,1.1,2.4,2.4C573.5,249.9,572.4,250.9,571.1,250.9C571.1,250.9,571.1,250.9,571.1,250.9z M521.2,377.1h-58.6
			c-0.7,0-1.1-1-1.1-2.4s0.6-2.4,1.1-2.4h58.6c0.7,0,1.1,1,1.1,2.4S521.8,377.1,521.2,377.1z"/>
		<rect x="459.1" y="301.9" class="st21" width="113.4" height="50.1"/>
		<path class="st22" d="M609.9,211.3L577.4,181H449.5v216.8h133.3c14.9,0,27-12.1,27-27l0,0V211.3z"/>
		<polygon class="st23" points="577.4,181.1 609.9,211.7 577.4,211.7 		"/>
		<path class="st10" d="M584.3,271.6H472.8c-1.3,0-2.4-1.1-2.4-2.4s1.1-2.4,2.4-2.4l0,0h111.6c1.3,0,2.4,1.1,2.4,2.4
			c0,1.3-1,2.3-2.3,2.4C584.4,271.6,584.4,271.6,584.3,271.6z M584.3,255.4H472.8c-1.3,0-2.4-1.1-2.4-2.4s1.1-2.4,2.4-2.4l0,0h111.6
			c1.3,0,2.4,1.1,2.4,2.4c0,1.3-1,2.3-2.3,2.4C584.4,255.4,584.4,255.4,584.3,255.4L584.3,255.4z M584.3,239.2H472.8
			c-1.3-0.1-2.3-1.2-2.2-2.5c0.1-1.2,1-2.2,2.2-2.2h111.6c1.3,0,2.4,1.1,2.4,2.4C586.7,238.1,585.7,239.1,584.3,239.2
			C584.4,239.1,584.4,239.1,584.3,239.2L584.3,239.2z M534.5,365.5h-58.6c-0.7,0-1.1-1-1.1-2.4s0.6-2.4,1.1-2.4h58.6
			c0.7,0,1.1,1,1.1,2.4S535,365.5,534.5,365.5L534.5,365.5z"/>
		<rect x="472.3" y="290.2" class="st11" width="113.4" height="50.1"/>
		<path class="st10" d="M143.1,184.2l0.8,1.4c1.4-0.8,2.7-1.6,4.1-2.3l-0.7-1.4C145.9,182.6,144.5,183.4,143.1,184.2z"/>
		<path class="st10" d="M151.4,179.7l0.7,1.4c1.4-0.7,2.9-1.4,4.3-2l-0.6-1.4C154.3,178.4,152.9,179,151.4,179.7z"/>
		<path class="st10" d="M160.1,175.9l0.6,1.5c1.5-0.6,2.9-1.1,4.4-1.6l-0.5-1.5C163.1,174.8,161.6,175.3,160.1,175.9z"/>
		<path class="st10" d="M169.1,172.8l0.4,1.5c1.5-0.4,3-0.9,4.5-1.2l-0.4-1.5C172.2,171.9,170.6,172.4,169.1,172.8z"/>
		<path class="st10" d="M178.3,170.6l0.3,1.5c1.5-0.3,3.1-0.5,4.6-0.8l-0.2-1.6C181.5,170,179.9,170.3,178.3,170.6z"/>
		<path class="st10" d="M135,189.2l0.9,1.3c1.3-0.9,2.6-1.7,3.9-2.6l-0.8-1.3C137.7,187.5,136.4,188.4,135,189.2z"/>
		<path class="st10" d="M112.9,207l1.1,1.1c1.1-1,2.3-2.1,3.5-3.2l-1-1.2C115.2,204.9,114,206,112.9,207z"/>
		<path class="st10" d="M106.2,213.7l1.1,1.1c1-1,2.1-2.2,3.3-3.4l-1.1-1.1C108.3,211.5,107.2,212.7,106.2,213.7z"/>
		<path class="st10" d="M187.7,169.3l0.1,1.6c1.6-0.1,3.1-0.2,4.7-0.3V169C190.9,169,189.3,169.1,187.7,169.3z"/>
		<path class="st10" d="M99.8,220.9l1.2,1c0,0,1.1-1.4,3-3.6l-1.2-1C100.9,219.5,99.9,220.8,99.8,220.9z"/>
		<path class="st10" d="M127.3,194.8l0.9,1.3c1.3-1,2.5-1.9,3.8-2.8l-0.9-1.3C129.9,192.9,128.6,193.8,127.3,194.8z"/>
		<path class="st10" d="M119.9,200.7l1,1.2c1.2-1,2.4-2,3.6-3l-1-1.2C122.3,198.7,121.1,199.7,119.9,200.7z"/>
		<path class="st10" d="M206.5,171.4c1.5,0.2,3.1,0.5,4.6,0.8l0.3-1.5c-1.6-0.3-3.1-0.6-4.7-0.8L206.5,171.4z"/>
		<path class="st10" d="M263,202.1c1.1,1.1,2.2,2.2,3.3,3.3l1.1-1.1c-1.1-1.1-2.2-2.3-3.3-3.4L263,202.1z"/>
		<path class="st10" d="M269.5,208.9c1,1.1,2.1,2.3,3.1,3.5l1.2-1c-1-1.2-2.1-2.4-3.1-3.6L269.5,208.9z"/>
		<path class="st10" d="M282.6,222.5l-1.3,0.9c0.9,1.2,1.8,2.5,2.8,3.8l1.3-0.9C284.5,225,283.6,223.8,282.6,222.5z"/>
		<path class="st10" d="M275.6,216c1,1.2,2,2.4,2.9,3.7l1.2-1c-1-1.3-2-2.5-3-3.7L275.6,216z"/>
		<path class="st10" d="M256.2,195.8c1.2,1,2.3,2.1,3.5,3.1l1.1-1.1c-1.2-1.1-2.4-2.1-3.5-3.2L256.2,195.8z"/>
		<path class="st10" d="M233,179.9c1.4,0.7,2.8,1.4,4.1,2.2l0.8-1.4c-1.4-0.8-2.8-1.5-4.2-2.3L233,179.9z"/>
		<path class="st10" d="M215.6,173.3c1.5,0.4,3,0.8,4.5,1.3l0.5-1.5c-1.5-0.5-3.1-0.9-4.6-1.3L215.6,173.3z"/>
		<path class="st10" d="M224.5,176.1c1.4,0.6,2.9,1.1,4.3,1.8l0.6-1.4c-1.5-0.6-2.9-1.3-4.4-1.8L224.5,176.1z"/>
		<path class="st10" d="M248.9,189.9c1.2,0.9,2.5,1.9,3.7,2.9l1-1.2c-1.2-1-2.5-2-3.7-2.9L248.9,189.9z"/>
		<path class="st10" d="M197.2,170.6c1.6,0,3.1,0.1,4.7,0.3l0.1-1.6c-1.6-0.1-3.2-0.2-4.8-0.3L197.2,170.6z"/>
		<path class="st10" d="M241.2,184.5c1.3,0.8,2.6,1.7,3.9,2.6l0.9-1.3c-1.3-0.9-2.6-1.8-4-2.6L241.2,184.5z"/>
		<path class="st10" d="M295.1,231l-4.5,2.9c-0.8-1.3-1.6-2.5-2.5-3.7l-1.3,0.9c0.8,1.2,1.6,2.4,2.5,3.6l-4.7,3.1l11.2,5.7
			L295.1,231z"/>
		<path class="st24" d="M100.4,293.9H49.6c-4.1,0-7.4-3.4-7.5-7.5v-55.1c0-4.1,3.4-7.4,7.5-7.5h50.7c4.1,0,7.4,3.4,7.5,7.5v55.1
			C107.9,290.5,104.6,293.9,100.4,293.9C100.5,293.9,100.5,293.9,100.4,293.9z"/>
		<path class="st25" d="M74.7,260.1l-2-0.3l1.5-5l2.4,0.3L74.7,260.1z"/>
		<path class="st25" d="M54,258V256c0-1.2,0.2-2.4,0.5-3.6c0.3-1,0.9-2,1.6-2.8c1.1-1.3,2.4-2.5,3.7-3.5c0.9-0.7,1.7-1.4,2.5-2.1
			c0.4-0.4,0.7-0.9,1-1.4c0.2-0.4,0.3-0.9,0.2-1.4c0-1.6-1-2.4-2.9-2.4c-2.1,0-4,0.8-5.6,2.1v-5.9c1.2-0.6,2.4-1.1,3.7-1.5
			c1.2-0.2,2.4-0.3,3.6-0.3c2.2-0.1,4.4,0.6,6.1,1.9c1.5,1.4,2.3,3.3,2.2,5.3c0.1,1.6-0.3,3.1-1.1,4.4c-0.7,1.3-2.2,2.4-4.1,3.8
			c-1.1,0.7-2.2,1.4-3.2,2.3c-0.4,0.3-0.6,0.8-0.7,1.3H71v5.8L54,258L54,258z"/>
		<path class="st25" d="M94.7,251.5c0.1,2.1-0.8,4.2-2.5,5.5c-1.7,1.4-4,1.9-7.3,1.9c-1.1,0-2.4-0.1-3.5-0.2s-2.2-0.5-2.9-0.7v-5.7
			c0.8,0.5,1.6,0.8,2.5,1c1,0.2,2,0.3,3,0.3c1,0,1.9-0.2,2.7-0.7c0.6-0.4,1-1.1,1-1.8c0-0.8-0.4-1.5-1.1-1.8c-1-0.5-2.1-0.7-3.2-0.7
			h-2.4v-5.3h2c1.1,0.1,2.1-0.2,3.1-0.7c0.6-0.4,1-1,1-1.7c0-0.6-0.2-1.1-0.7-1.5c-0.7-0.4-1.5-0.6-2.3-0.6c-1.7,0-3.3,0.5-4.8,1.4
			v-5.3c1.9-0.8,4-1.2,6.1-1.3c2.2-0.1,4.4,0.4,6.3,1.6c1.4,1.1,2.3,2.8,2.3,4.5c0.1,1.4-0.4,2.8-1.2,3.9c-0.8,1.1-2.1,1.8-3.4,1.9
			v0.1c1.5,0.1,2.9,0.8,3.9,1.9C94.2,248.7,94.7,250.1,94.7,251.5z"/>
		<path class="st25" d="M71.2,282.9v-9.9c0-1,0-2,0.1-3.1v-0.8h-0.2c-0.2,1.5-0.5,2.4-0.6,3l-2.7,10.8h-5l-2.7-10.8
			c-0.1-0.2-0.2-1.4-0.6-3.1h-0.1c0.1,2.8,0.2,4.5,0.2,5.3v8.5h-4.8v-18H63l2.4,9.9c0.1,0.4,0.2,0.8,0.2,1.2c0.1,0.5,0.2,1,0.2,1.5
			H66c0.1-0.7,0.2-1.7,0.5-2.7l2.3-9.8h7.9v18L71.2,282.9L71.2,282.9z"/>
		<path class="st25" d="M95.1,277.4c0.2,1.6-0.5,3.1-1.8,4c-1.5,1.1-3.4,1.6-5.3,1.5h-8.2v-18h7.5c4.8,0,7,1.5,7,4.4
			c0,0.6-0.2,1.2-0.4,1.7c-0.3,0.6-0.8,1.1-1.4,1.5c-0.6,0.4-1.2,0.6-1.9,0.8v0.1c0.8,0.1,1.6,0.3,2.3,0.7c0.6,0.3,1.1,0.9,1.5,1.5
			C94.8,276,95.1,276.7,95.1,277.4z M88.9,270.2c0-1.1-0.8-1.7-2.5-1.7h-1v3.4h1.5c0.5,0,1-0.2,1.5-0.5
			C88.7,271.2,88.9,270.7,88.9,270.2z M89.3,277.4c0-0.5-0.2-1-0.6-1.4c-0.4-0.3-0.9-0.5-1.5-0.5h-2v3.6H87c0.6,0,1.2-0.2,1.7-0.5
			C89.1,278.4,89.3,277.9,89.3,277.4z"/>
		<path class="st10" d="M432.3,354.4h-1.5V353c1.4,0,2.8,0,4.1,0v1.4C434.1,354.4,433.2,354.4,432.3,354.4z M426.6,354.2
			c-1.4-0.1-2.8-0.2-4.2-0.4l0.2-1.4c1.4,0.2,2.7,0.3,4.1,0.4L426.6,354.2z M439.2,354.2l-0.1-1.4c1.4-0.1,2.7-0.3,4.1-0.4l0.2,1.4
			C441.9,353.9,440.5,354,439.2,354.2L439.2,354.2z M418.3,353.3c-1.4-0.2-2.8-0.5-4.1-0.8l0.3-1.4c1.4,0.3,2.7,0.5,4.1,0.7
			L418.3,353.3z M447.5,353.1l-0.2-1.4c1.3-0.2,2.7-0.5,4-0.8l0.3,1.4C450.2,352.6,448.8,352.8,447.5,353.1L447.5,353.1z M410,351.6
			c-1.3-0.3-2.7-0.7-4-1.1l0.4-1.3c1.3,0.4,2.7,0.8,4,1.1L410,351.6z M455.6,351.2l-0.4-1.3c1.3-0.4,2.6-0.8,4-1.2l0.4,1.3
			C458.3,350.5,457,350.9,455.6,351.2L455.6,351.2z M402,349.2c-1.3-0.5-2.6-0.9-3.9-1.4l0.5-1.3c1.3,0.5,2.6,1,3.9,1.4L402,349.2z
			 M463.6,348.7l-0.5-1.3c1.3-0.5,2.6-1,3.8-1.5l0.5,1.3C466.2,347.7,464.9,348.2,463.6,348.7L463.6,348.7z M394.2,346.1
			c-1.3-0.5-2.5-1.1-3.8-1.7l0.6-1.3c1.3,0.6,2.5,1.2,3.8,1.7L394.2,346.1z M471.3,345.4l-0.6-1.3c1.2-0.6,2.5-1.2,3.7-1.8l0.6,1.2
			C473.8,344.2,472.6,344.8,471.3,345.4L471.3,345.4z M386.7,342.5c-1.2-0.6-2.5-1.3-3.7-2l0.7-1.2c1.2,0.7,2.4,1.3,3.6,2
			L386.7,342.5z M478.8,341.5l-0.7-1.2c1.2-0.7,2.4-1.4,3.6-2.1l0.7,1.2C481.2,340.2,480,340.9,478.8,341.5L478.8,341.5z
			 M379.4,338.4c-1.2-0.7-2.4-1.5-3.5-2.2l0.8-1.2c1.2,0.7,2.3,1.5,3.5,2.2L379.4,338.4z M485.9,337.2l-0.8-1.2
			c1.1-0.8,2.3-1.5,3.4-2.3l0.8,1.1C488.2,335.7,487,336.5,485.9,337.2L485.9,337.2z M372.4,333.9c-1.1-0.8-2.3-1.6-3.4-2.4l0.8-1.1
			c1.1,0.8,2.2,1.6,3.4,2.4L372.4,333.9z M492.8,332.4l-0.8-1.1c1.1-0.8,2.2-1.7,3.3-2.5l0.9,1.1C495,330.8,493.9,331.6,492.8,332.4
			L492.8,332.4z M365.6,329c-1.1-0.9-2.2-1.7-3.3-2.6l0.9-1.1c1.1,0.9,2.2,1.7,3.3,2.6L365.6,329z M499.3,327.2l-0.9-1.1
			c1-0.9,2.1-1.8,3.1-2.7l0.9,1C501.4,325.5,500.4,326.4,499.3,327.2L499.3,327.2z M359.1,323.7c-1.1-0.9-2.1-1.8-3.2-2.7l0.9-1
			c1,0.9,2.1,1.8,3.1,2.7L359.1,323.7z M352.8,318.2c-1-1-2-1.9-3-2.9l1-1c1,1,2,1.9,3,2.9L352.8,318.2z M346.8,312.4
			c-1-1-2-2-2.9-3l1-1c0.9,1,1.9,2,2.9,3L346.8,312.4z M341.1,306.3c-1-1.1-1.9-2.1-2.8-3.1l1-0.9c0.9,1,1.8,2,2.8,3.1L341.1,306.3z
			 M335.5,300.1c-0.9-1.1-1.8-2.2-2.7-3.2l1.1-0.9c0.8,1,1.7,2.1,2.6,3.2L335.5,300.1z M330.3,293.6c-0.9-1.2-1.8-2.3-2.5-3.3
			l1.1-0.8c0.8,1,1.6,2.1,2.5,3.3L330.3,293.6z M325.3,286.9c-1.5-2.2-2.4-3.4-2.4-3.5l1.2-0.8c0,0,0.8,1.3,2.3,3.4L325.3,286.9z"/>
		<polygon class="st10" points="506.3,328.2 508.7,318.2 497.6,320.1 		"/>
		<polygon class="st26" points="577.4,23.8 593.7,30.7 611.4,30.7 623.9,43.2 640.1,50 646.7,66.4 659.2,79.1 659.2,96.8 
			665.8,113.5 659.2,129.8 659.2,147.5 646.7,160.2 640.1,176.6 623.9,183.5 611.4,195.9 593.7,195.9 577.4,202.8 561.2,195.9 
			543.7,195.9 531.5,183.5 515.3,176.6 508.5,160.2 496,147.5 496,129.8 489.2,113.5 496,96.8 496,79.1 508.5,66.4 515.3,50 
			531.5,43.2 543.7,30.7 561.2,30.7 		"/>
		<g>
			<defs>
				<polygon id="SVGID_4_" points="576.4,21.1 592.7,28 610.4,28 622.9,40.5 639.1,47.2 645.7,63.7 658.2,76.4 658.2,94.2 
					664.8,110.7 658.2,127 658.2,145 645.7,157.5 639.1,174 622.9,180.8 610.4,193.4 592.7,193.4 576.4,200.1 560.2,193.4 
					542.7,193.4 530.5,180.8 514.3,174 507.5,157.5 495,145 495,127 488.2,110.7 495,94.2 495,76.4 507.5,63.7 514.3,47.2 
					530.5,40.5 542.7,28 560.2,28 				"/>
			</defs>
			<clipPath id="SVGID_5_">
				<use xlink:href="#SVGID_4_"  style="overflow:visible;"/>
			</clipPath>
			<g class="st27">
				<polygon class="st28" points="461.9,21.4 494.4,212.8 624.9,10.4 				"/>
			</g>
		</g>
		<path class="st2" d="M582.4,167.7H575l-16.9-22.2c-0.4-0.5-0.8-1-1.1-1.6h-0.2l-0.2,23.4h-5.2l0.7-47.7h5.2L557,142h0.2
			c0.2-0.4,0.7-0.9,1.1-1.6l16.9-20.5h6.3l-19.2,22.7L582.4,167.7z"/>
		<path class="st2" d="M588.6,167.7l0.7-47.7l12.6,0.2c3.3-0.1,6.6,1,9.2,3.2c2.2,2.1,3.4,5,3.4,8c0,2.5-0.7,4.9-2,7
			c-1.4,2-3.4,3.4-5.7,4.1v0.2c2.8,0.4,5.5,1.7,7.4,3.9c1.8,2.3,2.7,5.1,2.7,8.1c0,4.1-1.4,7.6-4.1,9.9c-2.7,2.5-6.1,3.6-10.3,3.6
			L588.6,167.7z M594.1,145.5l-0.2,17.1h7c2.6,0.1,5.2-0.6,7.4-2c1.7-1.6,2.7-3.8,2.7-6.1c0-5.4-3.4-8.5-10.5-8.7h-6.3L594.1,145.5
			L594.1,145.5z M594.3,125.2l-0.2,15.3h5.2c2.4,0.1,4.8-0.6,6.8-2c1.7-1.6,2.6-3.8,2.5-6.1c0-4.5-2.7-7-8.5-7h-5.8L594.3,125.2z"/>
		<path class="st2" d="M546.8,95.2c0-1.3,0.2-2.5,0.5-3.7c0.4-1.3,1-2.4,1.7-3.5c0.8-1.2,1.7-2.2,2.8-3.1c1-0.9,2.2-1.5,3.5-1.9
			c-1.9-1-3.5-2.5-4.8-4.2c-1.1-1.7-1.7-3.7-1.7-5.7c-0.1-1.6,0.3-3.3,0.9-4.8c0.6-1.5,1.5-2.8,2.8-3.7c1.1-0.9,2.6-1.7,4-2.6
			c1.6-0.6,3.3-0.9,5-0.9c1.7,0,3.4,0.3,5,0.9c1.4,0.7,3.1,1.4,4,2.6c1.2,1.1,2.1,2.3,2.8,3.7c0.7,1.5,1,3.1,0.9,4.8
			c0,2-0.5,4-1.7,5.7c-1.2,1.8-2.8,3.2-4.8,4.2c1.3,0.5,2.5,1.1,3.5,1.9c1,0.9,1.9,1.9,2.6,3.1c0.7,1.1,1.3,2.3,1.7,3.5
			c0.4,1.2,0.5,2.5,0.5,3.7c0,1.9-0.3,3.7-0.9,5.4c-0.6,1.6-1.7,3.1-3.1,4.2c-1.5,1.1-3.1,2.1-4.8,2.8c-3.8,1.2-8,1.2-11.8,0
			c-1.8-0.6-3.4-1.6-4.8-2.8c-1.2-1.3-2.2-2.7-3.1-4.2C547.2,98.9,546.9,97.1,546.8,95.2z M552.5,95c0,1.4,0.2,2.7,0.7,4
			c0.4,1.1,1,2.2,1.7,3.1c0.8,0.9,1.9,1.6,3.1,1.9c2.4,0.9,5.1,0.9,7.5,0c1.1-0.5,2.1-1.1,3.1-1.9c0.9-0.9,1.5-1.9,1.9-3.1
			c0.4-1.2,0.7-2.5,0.7-3.7c0-1.2-0.2-2.4-0.7-3.5c-0.5-1.1-1.1-2.1-1.7-3.1c-0.9-0.8-1.9-1.5-3.1-1.9c-1.2-0.5-2.5-0.7-3.7-0.7
			c-1.3,0-2.5,0.2-3.7,0.7c-1.1,0.5-2.1,1.1-3.1,1.9c-0.8,0.9-1.5,1.9-1.9,3.1C552.7,92.8,552.4,93.9,552.5,95L552.5,95z M554,73.6
			c0.1,1,0.2,2.1,0.5,3.1c0.5,0.9,0.9,1.7,1.4,2.6c0.7,0.7,1.6,1.3,2.6,1.7c1,0.4,2,0.6,3.1,0.5c1-0.1,2.1-0.2,3.1-0.5
			c0.9-0.4,1.8-1,2.6-1.7c0.8-0.6,1.3-1.6,1.4-2.6c0.4-1,0.5-2,0.5-3.1c0-1-0.2-2.1-0.5-3.1c-0.4-0.9-0.8-1.8-1.4-2.6
			c-0.7-0.7-1.6-1.3-2.6-1.7c-1-0.4-2-0.6-3.1-0.5c-1,0-2.1,0.2-3.1,0.5c-1,0.4-1.9,0.9-2.6,1.7c-0.8,0.6-1.3,1.6-1.4,2.6
			C554.2,71.5,554.1,72.6,554,73.6z"/>
		<path class="st2" d="M611,84.8c0.1,3.4-0.2,6.8-0.9,10.1c-0.5,2.7-1.6,5.2-3.1,7.5c-1.3,1.9-2.9,3.5-4.8,4.8
			c-2,0.9-4.2,1.4-6.3,1.4c-4.3,0.2-8.3-2-10.3-5.8c-1.3-2.2-2.3-4.7-2.8-7.3c-0.6-3.2-0.9-6.4-0.9-9.6c-0.1-3.5,0.2-7.1,0.9-10.5
			c0.6-2.8,1.6-5.4,3.1-7.8c1.2-1.9,2.8-3.6,4.8-4.8c2-0.9,4.2-1.4,6.3-1.4C606.3,61.3,611,69.3,611,84.8z M605.7,85.6
			c0-13.2-3.1-19.5-9.2-19.5c-6.3,0-9.6,6.6-9.6,19.7c0,12.5,3.3,18.6,9.4,18.6C602.6,104.4,605.7,98.1,605.7,85.6L605.7,85.6z"/>
		<path class="st29" d="M516.2,146.1c2.7-2.9,5.2-5.4,8.3-8.5c1.4-1.4,2.7-2.9,4.1-4.1c1.4-1.3,2.9-2.5,4.5-3.6l0,0
			c-1.2,1.5-2.5,3-3.9,4.3c-1.4,1.4-2.9,2.7-4.3,4.1C522.1,140.9,519.1,143.4,516.2,146.1L516.2,146.1z"/>
		<path class="st29" d="M510,80.1c3.2,1.1,6.1,2.5,9.4,3.9c1.6,0.7,3.2,1.1,4.8,1.8c1.6,0.6,3,1.4,4.3,2.5l0,0
			c-1.6-0.4-3.2-0.9-4.8-1.6c-1.6-0.7-3.2-1.4-4.5-2C516.1,83.3,513.3,81.7,510,80.1L510,80.1z"/>
		<path class="st29" d="M511.1,111.9c3.2-0.5,6.1-0.7,9.4-1.1c1.5-0.3,3-0.4,4.5-0.4h4.8c-3,0.8-6.2,1.2-9.3,1.1
			C517.6,111.7,514.4,111.9,511.1,111.9L511.1,111.9z"/>
		<path class="st29" d="M646.5,140.7c-3.4-2-6.3-4.1-9.9-6.1c-1.7-0.8-3.3-1.9-4.8-3.2c-1.4-1.1-3.2-2.5-4.5-3.6l0,0
			c1.8,0.8,3.4,1.8,5,3c1.7,1,3.2,2.1,4.7,3.3C640.3,136.1,643.5,138.3,646.5,140.7L646.5,140.7z"/>
		<path class="st29" d="M641.4,74.6c-2.7,1.8-5.5,4.1-8.3,5.9c-1.4,0.9-2.7,2-4.1,3s-3,1.6-4.5,2.5l0,0c1.1-1.1,2.7-2,3.9-3.4
			c1.4-0.9,3-1.8,4.3-2.7C635.5,78.2,638.4,76.2,641.4,74.6L641.4,74.6z"/>
		<path class="st29" d="M645.6,106.2c-3.2,0.4-6.1,0.9-9.4,1.1c-1.5,0.3-3,0.4-4.5,0.5h-4.8c3-0.8,6.2-1.2,9.3-1.1
			C639.3,106.3,642.4,106.2,645.6,106.2L645.6,106.2z"/>
		<g>
			<polygon class="st30" points="55.6,382.6 55.6,485.6 5.9,458 5.9,355 			"/>
			<polygon class="st31" points="149.9,369.1 55.6,382.6 5.9,355 100,341.6 			"/>
			<path class="st7" d="M149.9,369.1v75.6c0,15.1-11.6,29-25.4,31l-68.9,9.9v-103L149.9,369.1z"/>
		</g>
		<g>
			<polygon class="st31" points="14.6,379.2 18.2,378.8 23.7,381.8 20.3,382.3 			"/>
			<polygon class="st32" points="26.7,428.6 30.3,428.2 25.3,440.7 21.7,441.3 			"/>
			<polygon class="st31" points="20.1,382.4 23.7,381.8 30.9,411.4 27.3,411.8 			"/>
			<polygon class="st31" points="29.6,421.2 33.2,420.8 42.9,460.3 39.5,460.9 			"/>
			<polygon class="st32" points="37.7,401.4 41.3,401 33.2,420.8 29.6,421.2 			"/>
			<polygon class="st31" points="32.5,398.5 36.1,398.1 41.3,401 37.7,401.4 			"/>
			<polygon class="st33" points="20.3,382.3 27.3,411.8 32.5,398.5 37.7,401.4 29.6,421.2 39.5,460.9 33.8,457.8 26.7,428.6 
				21.7,441.3 16.8,438.6 24.4,419.2 14.6,379.2 			"/>
		</g>
		<g>
			<polygon class="st31" points="109.4,436.6 106.8,435.2 124.9,426.6 127.5,428.1 			"/>
			<polygon class="st33" points="127.5,428.1 127.5,434 120.3,435.1 109.4,436.6 			"/>
			<polygon class="st30" points="109.5,431.2 106.8,429.7 106.8,423 109.5,424.5 			"/>
			<polygon class="st33" points="127.6,413.1 127.6,420.8 109.5,431.2 109.5,424.5 			"/>
			<polygon class="st31" points="109.5,424.5 106.8,423 125,411.7 127.6,413.1 			"/>
			<polygon class="st33" points="127.6,409.5 109.5,418.2 109.5,412 116.8,411 			"/>
			<polygon class="st31" points="125,408 114.1,409.6 106.9,410.6 109.5,412 116.8,411 127.6,409.5 			"/>
			<polygon class="st30" points="109.5,418.2 106.9,416.8 106.9,410.6 109.5,412 			"/>
		</g>
		<g>
			<polygon class="st31" points="85.6,399.6 83,398.2 129,391.7 131.6,393.2 			"/>
			<path class="st30" d="M80.4,408.4c0-0.2,0.1-0.3,0.1-0.5s0-0.2,0.1-0.3s0.1-0.3,0.1-0.5s0.1-0.2,0.1-0.3s0.1-0.3,0.2-0.5
				s0.1-0.2,0.1-0.3c0.2-0.4,0.3-0.8,0.5-1.1l0.1-0.2c0.2-0.4,0.3-0.7,0.5-1.1c0-0.1,0-0.1,0.1-0.2c0.2-0.3,0.3-0.6,0.5-0.9l0.1-0.2
				l0.4-0.6c0-0.1,0.1-0.1,0.1-0.2c0.2-0.3,0.4-0.6,0.7-0.9l0.1-0.1l0.3-0.4l0.2-0.2l0.2-0.1c0.1-0.1,0.2-0.1,0.3-0.2h0.1
				c0.1-0.1,0.2-0.1,0.4-0.1l-2.6-1.5c-0.1,0-0.2,0.1-0.3,0.1l0,0h-0.1c-0.1,0-0.2,0.1-0.3,0.1l0,0l-0.2,0.1l-0.2,0.1l-0.1,0.1
				l-0.3,0.4l-0.1,0.1l0,0c-0.2,0.3-0.5,0.6-0.7,0.9c0,0,0,0.1-0.1,0.1l-0.1,0.1c-0.1,0.2-0.3,0.4-0.4,0.6c0,0.1-0.1,0.1-0.1,0.2
				c-0.2,0.3-0.3,0.6-0.5,0.9l0,0c0,0,0,0.1,0,0.1c-0.2,0.4-0.4,0.7-0.5,1.1c0,0.1,0,0.1-0.1,0.2c-0.2,0.4-0.3,0.8-0.5,1.1
				c0,0,0,0.1,0,0.1l-0.1,0.2c-0.1,0.2-0.1,0.3-0.2,0.5s-0.1,0.2-0.1,0.4s-0.1,0.3-0.1,0.5s-0.1,0.2-0.1,0.3c0,0.2-0.1,0.3-0.1,0.5
				c0,0.1,0,0.2,0,0.3c0,0.2,0,0.5,0,0.7l2.6,1.4c0-0.2,0-0.5,0-0.7C80.4,408.6,80.4,408.5,80.4,408.4z"/>
			<path class="st33" d="M85.6,399.6l46-6.4v9l-11.1,1.6l-40.2,5.6C80.3,406.1,83.8,399.9,85.6,399.6z"/>
		</g>
		<g>
			<polygon class="st30" points="115.3,458.6 112.6,457.1 112.7,447.9 115.3,449.3 			"/>
			<polygon class="st31" points="128.9,436.6 126.2,437 78.8,443.7 81.5,445.1 128.8,438.5 131.5,438.1 			"/>
			<path class="st30" d="M84.9,452.9l-2.6-1.4c-1.9-1.1-3.5-4.1-3.5-7.8l2.6,1.4C81.4,448.8,83,451.9,84.9,452.9z"/>
			<g>
				<defs>
					<path id="SVGID_6_" d="M84.9,452.9l-2.6-1.4c-1.9-1.1-3.5-4.1-3.5-7.8l2.6,1.4C81.4,448.8,83,451.9,84.9,452.9z"/>
				</defs>
				<clipPath id="SVGID_7_">
					<use xlink:href="#SVGID_6_"  style="overflow:visible;"/>
				</clipPath>
				<g class="st34">
					<g>
						<path class="st30" d="M84.9,452.9l-2.6-1.4c-1.9-1.1-3.5-4.1-3.5-7.8l2.6,1.4C81.5,448.9,83,451.9,84.9,452.9"/>
					</g>
				</g>
			</g>
			<path class="st33" d="M131.5,438.1v7.5l-3.9,0.6v10.5l-12.3,1.8v-9.3l-28.5,4c-2.8,0.4-5.4-3.3-5.4-8.2l47.4-6.7L131.5,438.1z"/>
		</g>
		<g>
			<path class="st30" d="M92.6,433.7c0.1-0.3,0.1-0.6,0.1-0.8v-17.4l-2.6-1.4v17.4c0,0.3,0,0.6-0.1,0.8l-0.1,0.3
				c-0.1,0.2-0.1,0.4-0.2,0.5c0,0.1-0.1,0.2-0.1,0.4c0,0.1-0.1,0.2-0.1,0.3c-0.1,0.2-0.2,0.4-0.3,0.5l0,0c-0.1,0.2-0.2,0.3-0.4,0.5
				l-0.1,0.1c-0.1,0.1-0.3,0.3-0.4,0.4l0,0c-0.1,0.1-0.3,0.2-0.5,0.3c-0.2,0.1-0.4,0.2-0.7,0.2l2.6,1.5c0.2,0,0.5-0.1,0.7-0.2h0.1
				l0.4-0.2l0,0l0,0c0.1-0.1,0.2-0.2,0.3-0.3l0.1-0.1l0.1-0.1l0.1-0.1c0.1-0.1,0.2-0.2,0.3-0.4l0,0l0.3-0.4c0,0,0-0.1,0-0.1l0.1-0.3
				c0-0.1,0.1-0.2,0.1-0.3v-0.1c0.1-0.2,0.1-0.4,0.1-0.5C92.5,433.9,92.6,433.8,92.6,433.7z"/>
			<polygon class="st31" points="76.2,439 73.6,437.6 87.1,435.7 89.7,437.1 			"/>
			<polygon class="st30" points="73,443.5 70.4,442.1 70.5,412.7 73.1,414.1 			"/>
			<polygon class="st31" points="73.1,414.1 70.5,412.7 93.3,409.5 95.9,410.9 			"/>
			<path class="st33" d="M73.1,414.1l22.8-3.2v21.5c0,4.4-2.8,8.3-6.1,8.8L73,443.5L73.1,414.1z M92.7,432.9v-17.4l-16.4,2.3V439
				l13.5-1.9C91.4,436.9,92.7,435,92.7,432.9"/>
		</g>
		<rect x="43.4" y="389.6" class="st30" width="12.3" height="82.2"/>
	</g>
</g>
</svg>
