<?xml version="1.0" encoding="utf-8"?>
<!-- Generator: Adobe Illustrator 24.1.3, SVG Export Plug-In . SVG Version: 6.00 Build 0)  -->
<svg version="1.1" id="Ebene_1" xmlns="http://www.w3.org/2000/svg" xmlns:xlink="http://www.w3.org/1999/xlink" x="0px" y="0px"
	 viewBox="0 0 600 354" style="enable-background:new 0 0 600 354;" xml:space="preserve">
<style type="text/css">
	.st0{opacity:0.57;}
	.st1{fill-rule:evenodd;clip-rule:evenodd;fill:#E0DBDB;}
	.st2{fill-rule:evenodd;clip-rule:evenodd;fill:#0D1416;}
	.st3{fill-rule:evenodd;clip-rule:evenodd;fill:#DAE9EF;}
	.st4{fill-rule:evenodd;clip-rule:evenodd;fill:#B6CDD8;}
	.st5{fill-rule:evenodd;clip-rule:evenodd;fill:#B3B3B3;}
	.st6{fill-rule:evenodd;clip-rule:evenodd;fill:#FFFFFF;}
	.st7{fill-rule:evenodd;clip-rule:evenodd;fill:#E3DDE0;}
	.st8{fill:#676767;}
	.st9{fill:#FCE8E8;}
	.st10{fill-rule:evenodd;clip-rule:evenodd;fill:#808080;}
	.st11{fill-rule:evenodd;clip-rule:evenodd;fill:#B3B3B2;}
	.st12{fill-rule:evenodd;clip-rule:evenodd;fill:#676767;}
	.st13{fill-rule:evenodd;clip-rule:evenodd;fill:#E1201B;}
	.st14{fill-rule:evenodd;clip-rule:evenodd;fill:#F18C89;}
	.st15{fill:#4E4D4D;}
	.st16{fill-rule:evenodd;clip-rule:evenodd;fill:#FFFFFF;stroke:#DFE5E8;stroke-width:1.5838;stroke-miterlimit:10;}
	.st17{fill-rule:evenodd;clip-rule:evenodd;fill:#DDE4E8;}
	.st18{fill:none;stroke:#E95653;stroke-width:1.3859;stroke-miterlimit:10;stroke-dasharray:4.1577,4.1577;}
	.st19{fill:#E95653;}
	.st20{fill:#9EB2B7;}
	.st21{fill:#F5F6F7;}
	.st22{fill:none;stroke:#E95653;stroke-width:1.2229;stroke-miterlimit:10;stroke-dasharray:3.6688,3.6688;}
	.st23{fill:#F0C32D;}
	.st24{clip-path:url(#SVGID_2_);}
	.st25{opacity:0.24;fill:#FFFFFF;enable-background:new    ;}
	.st26{fill:#F9F9F9;}
	.st27{fill:#FFFFFF;}
</style>
<g class="st0">
	<path class="st1" d="M513,32.8c0-8.1-6.5-14.8-14.5-14.8H65.1c-8,0-14.5,6.6-14.5,14.8V313H513V32.8L513,32.8z"/>
	<path class="st2" d="M510,35.4c0-8-6.5-14.5-14.3-14.5H67.8c-7.9,0-14.3,6.5-14.3,14.5v276.5H510V35.4L510,35.4z"/>
	<polygon class="st3" points="498.3,35.5 67.8,35.5 67.8,297.4 498.3,297.4 	"/>
	<polygon class="st4" points="498.3,297.4 67.8,35.5 67.8,297.4 	"/>
	<path class="st5" d="M562.8,311.8H3.3v8.7c0,11.3,9,20.4,20.1,20.4h519.4c11.1,0,20.1-9.1,20.1-20.4L562.8,311.8L562.8,311.8z"/>
</g>
<g>
	<polygon class="st6" points="285.1,114.9 276.5,106.8 242.3,106.8 242.3,164.7 285.1,164.7 	"/>
	<polygon class="st7" points="276.5,106.9 285.1,115.1 276.5,115.1 	"/>
	<g>
		<path class="st8" d="M279.3,131.1h-32.9c-0.4,0-0.7-0.3-0.7-0.7c0-0.4,0.3-0.7,0.7-0.7h32.9c0.4,0,0.7,0.3,0.7,0.7
			S279.8,131.1,279.3,131.1z M279.3,126.3h-32.9c-0.4,0-0.7-0.3-0.7-0.7c0-0.4,0.3-0.7,0.7-0.7h32.9c0.4,0,0.7,0.3,0.7,0.7
			S279.8,126.3,279.3,126.3z M279.3,121.5h-32.9c-0.4,0-0.7-0.3-0.7-0.7s0.3-0.7,0.7-0.7h32.9c0.4,0,0.7,0.3,0.7,0.7
			C280,121.2,279.8,121.5,279.3,121.5z M264.7,158.7h-17.3c-0.2,0-0.3-0.3-0.3-0.7s0.2-0.7,0.3-0.7h17.3c0.2,0,0.3,0.3,0.3,0.7
			S264.9,158.7,264.7,158.7z"/>
	</g>
	<rect x="246.3" y="136.6" class="st9" width="33.4" height="14.8"/>
</g>
<g>
	<g>
		<g>
			<rect x="257.4" y="176.5" class="st10" width="12.4" height="95.7"/>
			<path class="st11" d="M256.1,178.5l14.5-4c0.6-0.2,1.1,0.2,1.3,0.7l0,0c0.2,0.6-0.2,1.1-0.7,1.3l-14.5,4
				c-0.6,0.2-1.1-0.2-1.3-0.7l0,0C255.2,179.3,255.5,178.6,256.1,178.5z"/>
			<path class="st11" d="M256.1,182.4l14.5-4c0.6-0.2,1.1,0.2,1.3,0.7l0,0c0.2,0.6-0.2,1.1-0.7,1.3l-14.5,4
				c-0.6,0.2-1.1-0.2-1.3-0.7l0,0C255.2,183.1,255.5,182.5,256.1,182.4z"/>
			<path class="st11" d="M256.1,186.2l14.5-4c0.6-0.2,1.1,0.2,1.3,0.7l0,0c0.2,0.6-0.2,1.1-0.7,1.3l-14.5,4
				c-0.6,0.2-1.1-0.2-1.3-0.7l0,0C255.2,187.1,255.5,186.4,256.1,186.2z"/>
			<path class="st11" d="M256.1,190.1l14.5-4c0.6-0.2,1.1,0.2,1.3,0.7l0,0c0.2,0.6-0.2,1.1-0.7,1.3l-14.5,4
				c-0.6,0.2-1.1-0.2-1.3-0.7l0,0C255.2,190.8,255.5,190.3,256.1,190.1z"/>
			<path class="st11" d="M256.1,194l14.5-4c0.6-0.2,1.1,0.2,1.3,0.7l0,0c0.2,0.6-0.2,1.1-0.7,1.3l-14.5,4c-0.6,0.2-1.1-0.2-1.3-0.7
				l0,0C255.2,194.7,255.5,194.1,256.1,194z"/>
			<path class="st11" d="M256.1,197.8l14.5-4c0.6-0.2,1.1,0.2,1.3,0.7l0,0c0.2,0.6-0.2,1.1-0.7,1.3l-14.5,4
				c-0.6,0.2-1.1-0.2-1.3-0.7l0,0C255.2,198.6,255.5,198.1,256.1,197.8z"/>
			<path class="st11" d="M256.1,201.7l14.5-4c0.6-0.2,1.1,0.2,1.3,0.7l0,0c0.2,0.6-0.2,1.1-0.7,1.3l-14.5,4
				c-0.6,0.2-1.1-0.2-1.3-0.7l0,0C255.2,202.4,255.5,201.8,256.1,201.7z"/>
			<path class="st11" d="M256.1,205.5l14.5-4c0.6-0.2,1.1,0.2,1.3,0.7l0,0c0.2,0.6-0.2,1.1-0.7,1.3l-14.5,4
				c-0.6,0.2-1.1-0.2-1.3-0.7l0,0C255.2,206.4,255.5,205.7,256.1,205.5z"/>
			<path class="st11" d="M256.1,209.5l14.5-4c0.6-0.2,1.1,0.2,1.3,0.7l0,0c0.2,0.6-0.2,1.1-0.7,1.3l-14.5,4
				c-0.6,0.2-1.1-0.2-1.3-0.7l0,0C255.2,210.1,255.5,209.6,256.1,209.5z"/>
			<path class="st11" d="M256.1,213.3l14.5-4c0.6-0.2,1.1,0.2,1.3,0.7l0,0c0.2,0.6-0.2,1.1-0.7,1.3l-14.5,4
				c-0.6,0.2-1.1-0.2-1.3-0.7l0,0C255.2,214.1,255.5,213.4,256.1,213.3z"/>
			<path class="st11" d="M256.1,217.2l14.5-4c0.6-0.2,1.1,0.2,1.3,0.7l0,0c0.2,0.6-0.2,1.1-0.7,1.3l-14.5,4
				c-0.6,0.2-1.1-0.2-1.3-0.7l0,0C255.2,217.9,255.5,217.4,256.1,217.2z"/>
			<path class="st11" d="M256.1,221l14.5-4c0.6-0.2,1.1,0.2,1.3,0.7l0,0c0.2,0.6-0.2,1.1-0.7,1.3l-14.5,4c-0.6,0.2-1.1-0.2-1.3-0.7
				l0,0C255.2,221.7,255.5,221.1,256.1,221z"/>
			<path class="st11" d="M256.1,224.8l14.5-4c0.6-0.2,1.1,0.2,1.3,0.7l0,0c0.2,0.6-0.2,1.1-0.7,1.3l-14.5,4
				c-0.6,0.2-1.1-0.2-1.3-0.7l0,0C255.2,225.7,255.5,225.1,256.1,224.8z"/>
			<path class="st11" d="M256.1,228.8l14.5-4c0.6-0.2,1.1,0.2,1.3,0.7l0,0c0.2,0.6-0.2,1.1-0.7,1.3l-14.5,4
				c-0.6,0.2-1.1-0.2-1.3-0.7l0,0C255.2,229.4,255.5,228.9,256.1,228.8z"/>
			<path class="st11" d="M256.1,232.5l14.5-4c0.6-0.2,1.1,0.2,1.3,0.7l0,0c0.2,0.6-0.2,1.1-0.7,1.3l-14.5,4
				c-0.6,0.2-1.1-0.2-1.3-0.7l0,0C255.2,233.4,255.5,232.7,256.1,232.5z"/>
			<path class="st11" d="M256.1,236.5l14.5-4c0.6-0.2,1.1,0.2,1.3,0.7l0,0c0.2,0.6-0.2,1.1-0.7,1.3l-14.5,4
				c-0.6,0.2-1.1-0.2-1.3-0.7l0,0C255.2,237.2,255.5,236.7,256.1,236.5z"/>
			<path class="st11" d="M256.1,240.4l14.5-4c0.6-0.2,1.1,0.2,1.3,0.7l0,0c0.2,0.6-0.2,1.1-0.7,1.3l-14.5,4
				c-0.6,0.2-1.1-0.2-1.3-0.7l0,0C255.2,241.1,255.5,240.4,256.1,240.4z"/>
			<path class="st11" d="M256.1,244.2l14.5-4c0.6-0.2,1.1,0.2,1.3,0.7l0,0c0.2,0.6-0.2,1.1-0.7,1.3l-14.5,4
				c-0.6,0.2-1.1-0.2-1.3-0.7l0,0C255.2,244.9,255.5,244.4,256.1,244.2z"/>
			<path class="st11" d="M256.1,248.1l14.5-4c0.6-0.2,1.1,0.2,1.3,0.7l0,0c0.2,0.6-0.2,1.1-0.7,1.3l-14.5,4
				c-0.6,0.2-1.1-0.2-1.3-0.7l0,0C255.2,248.8,255.5,248.2,256.1,248.1z"/>
			<path class="st11" d="M256.1,251.8l14.5-4c0.6-0.2,1.1,0.2,1.3,0.7l0,0c0.2,0.6-0.2,1.1-0.7,1.3l-14.5,4
				c-0.6,0.2-1.1-0.2-1.3-0.7l0,0C255.2,252.7,255.5,252.1,256.1,251.8z"/>
			<path class="st11" d="M256.1,255.8l14.5-4c0.6-0.2,1.1,0.2,1.3,0.7l0,0c0.2,0.6-0.2,1.1-0.7,1.3l-14.5,4
				c-0.6,0.2-1.1-0.2-1.3-0.7l0,0C255.2,256.5,255.5,256,256.1,255.8z"/>
			<path class="st11" d="M256.1,259.6l14.5-4c0.6-0.2,1.1,0.2,1.3,0.7l0,0c0.2,0.6-0.2,1.1-0.7,1.3l-14.5,4
				c-0.6,0.2-1.1-0.2-1.3-0.7l0,0C255.2,260.4,255.5,259.7,256.1,259.6z"/>
			<g>
				<path class="st10" d="M281.7,163.2L281.7,163.2h-36.3l0,0c0,7.4,5.9,13.3,13.1,13.3h9.9C275.8,176.5,281.7,170.6,281.7,163.2z"
					/>
				<path class="st12" d="M285.6,161v-4h-44.1v4c0,2.1,1.7,4,3.9,4h36.3C283.9,165,285.6,163.2,285.6,161z"/>
			</g>
		</g>
		<rect x="254.3" y="258.8" class="st10" width="18.6" height="16.8"/>
		<path class="st12" d="M226.5,263.8h76.3c1.3-2.9,4.2-4.8,7.5-4.8c4.6,0,8.3,3.7,8.3,8.4c0,4.6-3.7,8.4-8.3,8.4
			c-3.3,0-6.2-2-7.5-4.8h-76.3c-1.3,2.9-4.2,4.8-7.5,4.8c-4.6,0-8.3-3.7-8.3-8.4c0-4.6,3.7-8.4,8.3-8.4
			C222.2,259.1,225.1,261,226.5,263.8z"/>
	</g>
	<path class="st13" d="M360.8,128.5v69.8c0,46.2-43.6,56-74.2,56h-37.4v-36.2h37.5c10.8,0,38.6,2.8,38.3-19.8v-86.6
		C323.9,87.9,297.4,92,286.8,92h-8.2v13.4h-29.9V64.9c0-5,4-9,9-9h29.2c30.4,0,74.2,25.2,74.2,56L360.8,128.5L360.8,128.5z"/>
	<path class="st14" d="M252.8,210h21.7c2.2,0,4.2,1.9,4.2,4.2v43.9c0,2.2-1.8,4.2-4.2,4.2h-21.7c-2.2,0-4.2-1.9-4.2-4.2v-43.9
		C248.7,211.9,250.5,210,252.8,210z"/>
	<path class="st14" d="M285.6,106.7v6.2h-44.1v-6.2c0-3.4,2.8-6.2,6.2-6.2h31.8C282.8,100.4,285.6,103.2,285.6,106.7z"/>
</g>
<g>
	<g>
		<g>
			<path class="st15" d="M217,160.5c2-2.1,4.1-4.3,6.2-6.4c1.1-1.1,2-2.1,3.1-3.2c1.1-1,2.2-1.9,3.5-2.9l0.1,0.1
				c-0.9,1.2-1.9,2.3-3,3.4s-2.1,2-3.3,3C221.5,156.6,219.3,158.6,217,160.5L217,160.5z"/>
		</g>
		<g>
			<path class="st15" d="M212.4,110.3c2.4,1,4.8,1.9,7.2,3c1.3,0.4,2.4,0.9,3.5,1.5c1.2,0.6,2.3,1.2,3.4,1.9v0.1
				c-1.3-0.3-2.5-0.8-3.7-1.3c-1.3-0.4-2.3-1.1-3.5-1.7C217,112.6,214.6,111.5,212.4,110.3L212.4,110.3z"/>
		</g>
		<g>
			<path class="st15" d="M213.3,134.4c2.4-0.3,4.7-0.6,7.1-0.9c1.2-0.2,2.4-0.3,3.5-0.3s2.4-0.1,3.6,0.1v0.1
				c-1.2,0.3-2.4,0.5-3.5,0.7c-1.2,0.2-2.4,0.2-3.5,0.2C218,134.3,215.6,134.4,213.3,134.4L213.3,134.4z"/>
		</g>
	</g>
	<g>
		<g>
			<path class="st15" d="M316.3,156.4c-2.5-1.6-5-3.2-7.5-4.8c-1.3-0.8-2.5-1.5-3.7-2.4c-1.2-0.9-2.4-1.8-3.5-2.9l0.1-0.1
				c1.4,0.6,2.7,1.4,3.9,2.2c1.3,0.8,2.4,1.7,3.6,2.6C311.6,152.8,314,154.5,316.3,156.4L316.3,156.4z"/>
		</g>
		<g>
			<path class="st15" d="M312.5,106c-2,1.5-4.2,3.1-6.3,4.6c-1.1,0.8-2,1.6-3.2,2.2c-1.1,0.7-2.2,1.4-3.5,1.9l-0.1-0.1
				c1-0.9,1.9-1.7,3-2.5c1.1-0.8,2.1-1.4,3.3-2.1C308.1,108.7,310.3,107.3,312.5,106L312.5,106z"/>
		</g>
		<g>
			<path class="st15" d="M315.7,130c-2.4,0.3-4.7,0.6-7.1,1c-1.2,0.2-2.4,0.3-3.5,0.4s-2.4,0.1-3.6-0.1v-0.1
				c1.2-0.3,2.4-0.5,3.5-0.7c1.2-0.2,2.4-0.2,3.5-0.3C310.9,130.1,313.3,130,315.7,130L315.7,130z"/>
		</g>
	</g>
</g>
<g>
	<polygon class="st16" points="154,126 125.4,99.4 12.7,99.4 12.7,290.5 154,290.5 	"/>
	<polygon class="st7" points="125.4,99.5 154,126.3 125.4,126.3 	"/>
	<g>
		<path class="st8" d="M131.6,179.3H33.2c-1.1,0-2.1-0.9-2.1-2.1c0-1.1,0.9-2.1,2.1-2.1h98.4c1.1,0,2.1,0.9,2.1,2.1
			C133.7,178.3,132.7,179.3,131.6,179.3z M131.6,165H33.2c-1.1,0-2.1-0.9-2.1-2.1c0-1.1,0.9-2.1,2.1-2.1h98.4c1.1,0,2.1,0.9,2.1,2.1
			C133.7,164,132.7,165,131.6,165z M131.6,150.7H33.2c-1.1,0-2.1-0.9-2.1-2.1s0.9-2.1,2.1-2.1h98.4c1.1,0,2.1,0.9,2.1,2.1
			C133.7,149.7,132.7,150.7,131.6,150.7z M87.5,261.9H35.8c-0.6,0-1-0.9-1-2.1c0-1.1,0.5-2.1,1-2.1h51.7c0.6,0,1,0.9,1,2.1
			C88.6,261,88.1,261.9,87.5,261.9z"/>
	</g>
	<rect x="32.7" y="195.6" class="st9" width="100" height="44.2"/>
</g>
<g>
	<polygon class="st16" points="165.7,115.6 137.1,89 24.4,89 24.4,280.1 165.7,280.1 	"/>
	<polygon class="st7" points="137.1,89.1 165.7,116 137.1,116 	"/>
	<g>
		<path class="st8" d="M143.3,168.8H44.9c-1.1,0-2.1-0.9-2.1-2.1c0-1.2,0.9-2.1,2.1-2.1h98.4c1.1,0,2.1,0.9,2.1,2.1
			C145.4,167.9,144.4,168.8,143.3,168.8z M143.3,154.5H44.9c-1.1,0-2.1-0.9-2.1-2.1s0.9-2.1,2.1-2.1h98.4c1.1,0,2.1,0.9,2.1,2.1
			C145.4,153.7,144.4,154.5,143.3,154.5z M143.3,140.2H44.9c-1.1,0-2.1-0.9-2.1-2.1s0.9-2.1,2.1-2.1h98.4c1.1,0,2.1,0.9,2.1,2.1
			C145.4,139.4,144.4,140.2,143.3,140.2z M99.2,251.6H47.5c-0.6,0-1-0.9-1-2.1c0-1.1,0.5-2.1,1-2.1h51.7c0.6,0,1,0.9,1,2.1
			C100.3,250.7,99.8,251.6,99.2,251.6z"/>
	</g>
	<rect x="44.4" y="185.2" class="st9" width="100" height="44.2"/>
</g>
<g>
	<polygon class="st16" points="525.8,127.3 497.2,100.8 384.5,100.8 384.5,291.9 525.8,291.9 	"/>
	<polygon class="st7" points="497.2,100.9 525.8,127.7 497.2,127.7 	"/>
	<g>
		<path class="st8" d="M503.3,180.5h-98.4c-1.1,0-2.1-0.9-2.1-2.1s0.9-2.1,2.1-2.1h98.4c1.1,0,2.1,0.9,2.1,2.1
			C505.3,179.7,504.5,180.5,503.3,180.5z M503.3,166.3h-98.4c-1.1,0-2.1-0.9-2.1-2.1s0.9-2.1,2.1-2.1h98.4c1.1,0,2.1,0.9,2.1,2.1
			S504.5,166.3,503.3,166.3z M503.3,152h-98.4c-1.1,0-2.1-0.9-2.1-2.1c0-1.1,0.9-2.1,2.1-2.1h98.4c1.1,0,2.1,0.9,2.1,2.1
			C505.3,151.1,504.5,152,503.3,152z M459.3,263.3h-51.7c-0.6,0-1-0.9-1-2.1c0-1.1,0.5-2.1,1-2.1h51.7c0.6,0,1,0.9,1,2.1
			C460.3,262.4,459.8,263.3,459.3,263.3z"/>
	</g>
	<rect x="404.5" y="196.9" class="st9" width="100" height="44.2"/>
</g>
<g>
	<polygon class="st16" points="537.5,117 508.9,90.3 396.1,90.3 396.1,281.5 537.5,281.5 	"/>
	<polygon class="st17" points="508.9,90.4 537.5,117.4 508.9,117.4 	"/>
	<g>
		<path class="st8" d="M515,170.2h-98.4c-1.1,0-2.1-0.9-2.1-2.1c0-1.1,0.9-2.1,2.1-2.1H515c1.1,0,2.1,0.9,2.1,2.1
			S516.2,170.2,515,170.2z M515,155.9h-98.4c-1.1,0-2.1-0.9-2.1-2.1c0-1.1,0.9-2.1,2.1-2.1H515c1.1,0,2.1,0.9,2.1,2.1
			C517,155.1,516.2,155.9,515,155.9z M515,141.6h-98.4c-1.1,0-2.1-0.9-2.1-2.1c0-1.1,0.9-2.1,2.1-2.1H515c1.1,0,2.1,0.9,2.1,2.1
			C517,140.8,516.2,141.6,515,141.6z M471,253h-51.7c-0.6,0-1-0.9-1-2.1s0.5-2.1,1-2.1H471c0.6,0,1,0.9,1,2.1S471.5,253,471,253z"/>
	</g>
	<rect x="416.2" y="186.6" class="st9" width="100" height="44.2"/>
</g>
<g>
	<g>
		<path class="st18" d="M88.2,125.9c0,0,87.6-110.4,168,12.7"/>
		<g>
			<polygon class="st19" points="250.6,140.4 260.5,145.4 259.9,134.4 			"/>
		</g>
	</g>
</g>
<g>
	<path class="st20" d="M88.2,189.9H43.4c-3.6,0-6.6-3-6.6-6.6v-48.6c0-3.6,3-6.6,6.6-6.6h44.7c3.6,0,6.6,3,6.6,6.6v48.6
		C94.8,186.9,91.8,189.9,88.2,189.9z"/>
	<g>
		<g>
			<g>
				<path class="st21" d="M65.5,160.1l-1.8-0.3l1.3-4.4l2.1,0.3L65.5,160.1z"/>
			</g>
		</g>
		<path class="st21" d="M47.3,158.2v-1.7c0-1.3,0.2-2.2,0.4-3.2c0.3-0.9,0.7-1.7,1.4-2.5c0.6-0.7,1.7-1.8,3.3-3.1
			c1.2-0.9,1.9-1.6,2.2-1.9c0.3-0.4,0.6-0.7,0.9-1.2s0.2-0.7,0.2-1.2c0-1.4-0.9-2.1-2.6-2.1s-3.4,0.6-4.9,1.9v-5.2
			c1.2-0.6,2.2-1,3.3-1.3c1-0.2,2.1-0.3,3.2-0.3c2.4,0,4.1,0.6,5.4,1.7c1.3,1.1,1.9,2.7,1.9,4.7c0,1.6-0.3,2.8-1,3.9
			c-0.6,1.1-1.9,2.1-3.6,3.4c-1.4,0.9-2.4,1.6-2.8,2s-0.6,0.7-0.6,1.1h8.3v5.1L47.3,158.2L47.3,158.2z"/>
		<path class="st21" d="M83.1,152.5c0,2.1-0.7,3.6-2.2,4.8c-1.5,1.2-3.5,1.7-6.4,1.7c-1,0-2.1-0.1-3.1-0.2c-1-0.2-1.9-0.4-2.6-0.6
			v-5c0.6,0.4,1.4,0.7,2.2,0.9c0.9,0.2,1.7,0.3,2.6,0.3c1,0,1.7-0.2,2.4-0.6c0.5-0.3,0.9-0.9,0.9-1.6s-0.3-1.3-1-1.6
			c-0.6-0.4-1.6-0.6-2.8-0.6h-2.1v-4.7h1.8c1.2,0,2.1-0.2,2.7-0.6c0.6-0.4,0.9-0.9,0.9-1.5c0-0.6-0.2-1-0.6-1.3
			c-0.4-0.3-1.1-0.5-2-0.5c-1.4,0-2.8,0.4-4.2,1.2v-4.7c1.7-0.7,3.5-1.1,5.4-1.1c2.4,0,4.3,0.5,5.6,1.4c1.3,1,2,2.4,2,4
			c0,1.3-0.3,2.5-1.1,3.4c-0.7,0.9-1.7,1.5-3,1.7v0.1c1.4,0.2,2.6,0.7,3.4,1.7C82.7,150,83.1,151.1,83.1,152.5z"/>
	</g>
	<g>
		<path class="st21" d="M62.4,180.2v-8.7c0-0.9,0-1.7,0.1-2.7v-0.7h-0.2c-0.2,1.3-0.4,2.1-0.5,2.6l-2.4,9.5H55l-2.4-9.5
			c-0.1-0.2-0.2-1.2-0.5-2.7H52c0.1,2.5,0.2,4,0.2,4.7v7.5h-4.2v-15.9h7.2l2.1,8.7c0.1,0.2,0.1,0.5,0.2,1.1c0.1,0.6,0.2,1,0.2,1.3
			h0.1c0.1-0.6,0.2-1.5,0.4-2.4l2-8.6h7v15.9L62.4,180.2L62.4,180.2L62.4,180.2z"/>
		<path class="st21" d="M83.5,175.3c0,1.6-0.5,2.8-1.6,3.5c-1.1,0.9-2.6,1.3-4.7,1.3h-7.2v-15.9h6.6c4.2,0,6.2,1.3,6.2,3.9
			c0,0.6-0.2,1.1-0.4,1.5c-0.2,0.5-0.6,0.9-1.2,1.3c-0.5,0.3-1.1,0.6-1.7,0.7v0.1c0.7,0.1,1.4,0.3,2,0.6c0.6,0.3,1.1,0.9,1.3,1.3
			C83.4,174.2,83.5,174.8,83.5,175.3z M78,169c0-1-0.7-1.5-2.2-1.5h-0.9v3h1.3c0.5,0,0.9-0.2,1.3-0.4C77.8,169.8,78,169.5,78,169z
			 M78.4,175.3c0-0.4-0.2-0.9-0.5-1.2c-0.3-0.3-0.7-0.4-1.3-0.4h-1.8v3.2h1.6c0.6,0,1.2-0.2,1.5-0.4
			C78.2,176.3,78.4,175.8,78.4,175.3z"/>
	</g>
</g>
<g>
	<g>
		<path class="st22" d="M284.9,180.3c0,0,71.9,112.4,158.4,35.4"/>
		<g>
			<polygon class="st19" points="446.2,220.1 448.3,211.3 438.5,213 			"/>
		</g>
	</g>
</g>
<g>
	<polygon class="st23" points="515.2,89 529.6,95.1 545.2,95.1 556.2,106.1 570.5,112.1 576.3,126.6 587.3,137.8 587.3,153.4 
		593.2,168.1 587.3,182.5 587.3,198.1 576.3,209.3 570.5,223.8 556.2,229.9 545.2,240.8 529.6,240.8 515.2,246.9 500.9,240.8 
		485.5,240.8 474.7,229.9 460.4,223.8 454.4,209.3 443.4,198.1 443.4,182.5 437.4,168.1 443.4,153.4 443.4,137.8 454.4,126.6 
		460.4,112.1 474.7,106.1 485.5,95.1 500.9,95.1 	"/>
	<g>
		<g>
			<g>
				<g>
					<g>
						<defs>
							<polygon id="SVGID_1_" points="515.2,90.2 529.6,96.2 545.2,96.2 556.2,107.3 570.5,113.2 576.3,127.7 587.3,138.9 
								587.3,154.6 593.2,169.2 587.3,183.6 587.3,199.4 576.3,210.5 570.5,225 556.2,231 545.2,242.1 529.6,242.1 515.2,248 
								500.9,242.1 485.5,242.1 474.7,231 460.4,225 454.4,210.5 443.4,199.4 443.4,183.6 437.4,169.2 443.4,154.6 443.4,138.9 
								454.4,127.7 460.4,113.2 474.7,107.3 485.5,96.2 500.9,96.2 							"/>
						</defs>
						<clipPath id="SVGID_2_">
							<use xlink:href="#SVGID_1_"  style="overflow:visible;"/>
						</clipPath>
						<g class="st24">
							<polygon class="st25" points="327.8,-6 442.9,259.2 561.1,49.5 							"/>
						</g>
					</g>
				</g>
			</g>
		</g>
	</g>
</g>
<g>
	<g>
		<path class="st26" d="M517.8,218.1h-6.5l-14.9-19.6c-0.6-0.6-0.8-1.2-1-1.4h-0.2l-0.2,20.6h-4.6l0.6-42.1h4.6l-0.2,19.8h0.2
			c0.2-0.4,0.6-0.8,1-1.4l14.9-18.1h5.6l-16.9,20L517.8,218.1z"/>
		<path class="st26" d="M523.3,218.1l0.6-42.1l11.1,0.2c3.4,0,6,1,8.1,2.8c1.8,1.8,3,4,3,7.1c0,2.4-0.6,4.4-1.8,6.2s-3,3-5,3.6v0.2
			c2.6,0.4,4.6,1.4,6.5,3.4c1.4,1.8,2.4,4.2,2.4,7.1c0,3.6-1.2,6.7-3.6,8.7c-2.4,2.2-5.4,3.2-9.1,3.2L523.3,218.1z M528.1,198.5
			l-0.2,15.1h6.2c2.8,0,4.6-0.6,6.5-1.8c1.4-1.2,2.4-3.2,2.4-5.4c0-4.8-3-7.5-9.3-7.7h-5.6V198.5z M528.3,180.6l-0.2,13.5h4.6
			c2.6,0,4.4-0.6,6-1.8c1.4-1.2,2.2-3.2,2.2-5.4c0-4-2.4-6.2-7.5-6.2H528.3z"/>
	</g>
	<g>
		<path class="st26" d="M486.4,154.2c0-1,0.2-2.3,0.4-3.3c0.4-1,0.8-2.3,1.5-3.1c0.6-0.8,1.2-1.7,2.5-2.7c0.8-0.8,1.9-1.2,3.1-1.7
			c-1.7-0.8-3.1-2.3-4.2-3.7c-1-1.5-1.5-3.3-1.5-5c0-1.5,0.2-2.9,0.8-4.2c0.6-1.2,1.2-2.5,2.5-3.3c1-0.8,2.3-1.5,3.5-2.3
			c1.2-0.4,2.9-0.8,4.4-0.8c1.5,0,3.1,0.2,4.4,0.8c1.2,0.6,2.7,1.2,3.5,2.3c1,0.8,1.7,1.9,2.5,3.3c0.6,1.2,0.8,2.7,0.8,4.2
			c0,1.7-0.4,3.5-1.5,5c-1,1.5-2.5,2.9-4.2,3.7c1,0.4,2.3,1,3.1,1.7c0.8,0.8,1.7,1.5,2.3,2.7c0.6,0.8,1,1.9,1.5,3.1
			c0.4,1,0.4,2.3,0.4,3.3c0,1.7-0.2,3.3-0.8,4.8c-0.6,1.5-1.5,2.7-2.7,3.7c-1.2,1-2.5,1.7-4.2,2.5c-1.5,0.6-3.3,0.8-5.2,0.8
			s-3.7-0.2-5.2-0.8c-1.5-0.6-2.9-1.2-4.2-2.5c-1-1-1.9-2.3-2.7-3.7C486.8,157.7,486.4,155.8,486.4,154.2z M491.4,154
			c0,1.2,0.2,2.5,0.6,3.5s0.8,1.9,1.5,2.7c0.6,0.8,1.5,1.2,2.7,1.7c1,0.4,2.3,0.6,3.3,0.6c1,0,2.3-0.2,3.3-0.6
			c0.8-0.4,1.7-0.8,2.7-1.7c0.8-0.8,1.2-1.5,1.7-2.7c0.4-1,0.6-2.3,0.6-3.3s-0.2-2.3-0.6-3.1c-0.4-0.8-0.8-1.7-1.5-2.7
			c-0.6-0.6-1.5-1.2-2.7-1.7c-0.8-0.4-2.3-0.6-3.3-0.6c-1,0-2.3,0.2-3.3,0.6c-0.8,0.4-1.7,0.8-2.7,1.7c-0.6,0.6-1.2,1.5-1.7,2.7
			C491.6,152.1,491.4,152.5,491.4,154z M492.8,135.1c0,0.8,0.2,1.7,0.4,2.7c0.4,0.8,0.8,1.5,1.2,2.3c0.6,0.6,1.2,1,2.3,1.5
			c0.8,0.4,1.7,0.4,2.7,0.4c0.8,0,1.7-0.2,2.7-0.4c0.8-0.4,1.5-0.8,2.3-1.5c0.8-0.6,1-1.2,1.2-2.3c0.4-0.8,0.4-1.7,0.4-2.7
			c0-0.8-0.2-1.9-0.4-2.7c-0.2-0.8-0.8-1.5-1.2-2.3c-0.6-0.6-1.2-1-2.3-1.5c-0.8-0.4-1.7-0.4-2.7-0.4c-0.8,0-1.9,0.2-2.7,0.4
			c-0.8,0.2-1.5,0.8-2.3,1.5c-0.8,0.6-1,1.2-1.2,2.3C493,133.4,492.8,134.3,492.8,135.1z"/>
		<path class="st26" d="M543,145c0,3.3-0.2,6.4-0.8,8.9c-0.6,2.7-1.5,4.8-2.7,6.6c-1,1.7-2.7,3.1-4.2,4.2c-1.7,0.8-3.5,1.2-5.6,1.2
			c-1.9,0-3.7-0.4-5.2-1.2c-1.5-0.8-2.9-2.3-3.9-3.9s-1.9-3.7-2.5-6.4c-0.4-2.7-0.8-5.2-0.8-8.5c0-3.5,0.2-6.6,0.8-9.3
			c0.6-2.7,1.5-5,2.7-6.9c1-1.7,2.7-3.3,4.2-4.2c1.7-0.8,3.5-1.2,5.6-1.2C538.9,124.3,543,131.3,543,145z M538.3,145.7
			c0-11.6-2.7-17.2-8.1-17.2c-5.6,0-8.5,5.8-8.5,17.4c0,11,2.9,16.4,8.3,16.4C535.6,162.3,538.3,156.7,538.3,145.7z"/>
	</g>
	<g>
		<g>
			<g>
				<path class="st27" d="M459.4,199.1c2.4-2.6,4.6-4.8,7.3-7.5c1.2-1.2,2.4-2.6,3.6-3.6c1.2-1,2.6-2.4,4-3.2l0,0
					c-1,1.4-2.2,2.6-3.4,3.8c-1.2,1.2-2.6,2.4-3.8,3.6C464.6,194.5,462,196.7,459.4,199.1L459.4,199.1z"/>
			</g>
			<g>
				<path class="st27" d="M453.9,140.9c2.8,1,5.4,2.2,8.3,3.4c1.4,0.6,2.8,1,4.2,1.6c1.2,0.6,2.8,1.2,3.8,2.2l0,0
					c-1.4-0.4-3-0.8-4.2-1.4c-1.4-0.6-2.8-1.2-4-1.8C459.4,143.7,456.8,142.3,453.9,140.9L453.9,140.9z"/>
			</g>
			<g>
				<path class="st27" d="M454.9,168.9c2.8-0.4,5.4-0.6,8.3-1c1.2-0.2,2.8-0.4,4-0.4c1.4,0,2.8,0,4.2,0l0,0c-1.2,0.4-2.8,0.6-4,0.8
					c-1.2,0.2-2.8,0.2-4.2,0.2C460.6,168.7,457.8,168.9,454.9,168.9L454.9,168.9z"/>
			</g>
		</g>
		<g>
			<g>
				<path class="st27" d="M574.3,194.3c-3-1.8-5.6-3.6-8.7-5.4c-1.4-0.8-3-1.6-4.2-2.8c-1.2-1-2.8-2.2-4-3.2l0,0
					c1.4,0.6,3,1.6,4.4,2.6c1.4,0.8,2.8,1.8,4.2,3C568.6,189.9,571.5,192.1,574.3,194.3L574.3,194.3z"/>
			</g>
			<g>
				<path class="st27" d="M569.8,136c-2.4,1.6-4.8,3.6-7.3,5.2c-1.2,0.8-2.4,1.8-3.6,2.6c-1.2,0.8-2.6,1.4-4,2.2l0,0
					c1-1,2.4-1.8,3.4-3c1.2-0.8,2.6-1.6,3.8-2.4C564.6,139.1,567.2,137.4,569.8,136L569.8,136z"/>
			</g>
			<g>
				<path class="st27" d="M573.5,163.9c-2.8,0.4-5.4,0.8-8.3,1c-1.2,0.2-2.8,0.4-4,0.4c-1.4,0-2.8,0-4.2,0l0,0
					c1.2-0.4,2.8-0.6,4-0.8c1.2-0.2,2.8-0.2,4.2-0.2C567.8,163.9,570.7,163.9,573.5,163.9L573.5,163.9z"/>
			</g>
		</g>
	</g>
</g>
</svg>
