<svg xmlns="http://www.w3.org/2000/svg" xmlns:xlink="http://www.w3.org/1999/xlink" viewBox="0 0 128 128"><defs><style>.cls-1,.cls-5{fill:#f8f9fa;}.cls-1,.cls-11,.cls-9{stroke:#9fb8cc;}.cls-1,.cls-11,.cls-6,.cls-9{stroke-miterlimit:10;}.cls-1,.cls-9{stroke-width:0.048px;}.cls-2{isolation:isolate;}.cls-3{fill:#e95653;}.cls-4{opacity:0.15;mix-blend-mode:multiply;}.cls-6{fill:#7faac5;stroke:#fff;stroke-width:0.14px;}.cls-7{clip-path:url(#clip-path);}.cls-8{fill:#fff;}.cls-9{fill:none;}.cls-10{fill:#eff1f4;}.cls-11{fill:#f08e8c;stroke-width:0.036px;}</style><clipPath id="clip-path"><rect id="_YOUR_SCREEN_HERE_" data-name="[YOUR SCREEN HERE]" class="cls-1" x="22.453" y="31.608" width="83.515" height="52.161"/></clipPath></defs><title>icon-integration-systeme</title><g class="cls-2"><g id="Layer_2" data-name="Layer 2"><g id="Fondos"><circle class="cls-3" cx="64" cy="64" r="64"/><path class="cls-3" d="M28.563,93.293c-2.352-1.8-5.683-3.369-6.08-6.516a45.188,45.188,0,0,1,0-5.508v-45.5c0-3.622-.988-8.3,3.788-8.87,3.986-.479,8.332,0,12.339,0h67a30.022,30.022,0,0,1,3.853,0c2.872.383,5.285,3.081,7.55,4.784,1.285.967,2.552,1.958,3.834,2.929A64.021,64.021,0,1,0,73.1,127.345q-3.947-3-7.892-6Q46.87,107.336,28.563,93.293Z"/><path class="cls-4" d="M128,64a63.7,63.7,0,0,0-7.152-29.389c-1.282-.971-2.549-1.962-3.834-2.929-2.265-1.7-4.678-4.4-7.55-4.784a30.022,30.022,0,0,0-3.853,0h-67c-4.007,0-8.353-.479-12.339,0-4.776.573-3.788,5.248-3.788,8.87v45.5a45.188,45.188,0,0,0,0,5.508c.4,3.147,3.728,4.719,6.08,6.516Q46.9,107.3,65.2,121.341q3.939,3.011,7.892,6A64,64,0,0,0,128,64Z"/><rect class="cls-5" x="58.941" y="88.069" width="11.811" height="11.811" rx="1"/><rect id="Body_-_Frame" data-name="Body - Frame" class="cls-6" x="18.92" y="26.96" width="90.582" height="63.519" rx="3.351"/><path id="Border" class="cls-5" d="M106.151,27.319H22.271a3,3,0,0,0-2.992,2.992V86.018h89.864V30.311A3,3,0,0,0,106.151,27.319Z"/><rect id="_YOUR_SCREEN_HERE_2" data-name="[YOUR SCREEN HERE]" class="cls-5" x="22.453" y="31.608" width="83.515" height="52.161"/><g class="cls-7"><polygon class="cls-8" points="10.927 74.804 17.654 25.962 59.184 20.99 10.927 74.804"/></g><rect id="_YOUR_SCREEN_HERE_3" data-name="[YOUR SCREEN HERE]" class="cls-9" x="22.453" y="31.608" width="83.515" height="52.161"/><path id="Bottom" class="cls-10" d="M19.279,87.127a3,3,0,0,0,2.992,2.992h83.88a3,3,0,0,0,2.992-2.992V86.018H19.279Z"/><g id="Body"><path class="cls-8" d="M64.847,99.048H49.721v.605a42.562,42.562,0,0,0,6.121.286H73.851a42.562,42.562,0,0,0,6.121-.286v-.605Z"/></g><path class="cls-11" d="M60.51,31.608V36.2H77.3a1.032,1.032,0,0,1,1.032,1.032v3.04A1.032,1.032,0,0,1,77.3,41.306H60.51v4.138H77.3a1.032,1.032,0,0,1,1.032,1.031v3.04A1.032,1.032,0,0,1,77.3,50.547H60.51v4.138H77.3a1.032,1.032,0,0,1,1.032,1.032v3.04A1.032,1.032,0,0,1,77.3,59.789H60.51v4.137H77.3a1.032,1.032,0,0,1,1.032,1.032V68A1.032,1.032,0,0,1,77.3,69.03H60.51v4.138H77.3A1.032,1.032,0,0,1,78.331,74.2v3.04A1.032,1.032,0,0,1,77.3,78.272H60.51v5.5h45.459V31.608Z"/></g></g></g></svg>