<?xml version="1.0" encoding="utf-8"?>
<!-- Generator: Adobe Illustrator 24.1.3, SVG Export Plug-In . SVG Version: 6.00 Build 0)  -->
<svg version="1.1" id="Layer_1" xmlns="http://www.w3.org/2000/svg" xmlns:xlink="http://www.w3.org/1999/xlink" x="0px" y="0px"
	 viewBox="0 0 649.9 349.5" style="enable-background:new 0 0 649.9 349.5;" xml:space="preserve">
<style type="text/css">
	.st0{opacity:0.3;fill:#6588AB;}
	.st1{fill:#0E3C62;}
	.st2{fill:#124E77;}
	.st3{fill:#E9F5FF;}
	.st4{fill:#1A72AD;}
	.st5{fill:#FFCC00;}
	.st6{fill:#071E31;}
	.st7{fill:#E11E19;}
	.st8{fill:#FDB813;}
	.st9{fill:#FFCF00;}
	.st10{fill:#6588AB;}
	.st11{fill:#01384D;}
	.st12{fill:#ED5148;}
	.st13{opacity:0.1;fill:#D1DEEB;}
	.st14{fill:#AAAAAA;}
	.st15{fill:#BEC8D2;}
	.st16{fill:#1C77C3;}
	.st17{fill:#475F78;}
	.st18{fill:#0099CC;}
	.st19{fill:#E4E7E9;}
	.st20{fill:#E9E9E9;}
	.st21{fill:#2E383B;}
	.st22{fill:#00A0A0;}
	.st23{fill:#D6E6F2;}
	.st24{fill:#DEE5E9;}
	.st25{fill:#80898D;}
	.st26{fill:#254E6D;}
	.st27{fill:url(#SVGID_1_);}
	.st28{opacity:0.2;fill:#6588AB;}
	.st29{fill:#77ADDB;}
	.st30{fill:#414E52;}
	.st31{fill:#CCE4F2;}
	.st32{fill:url(#SVGID_2_);}
	.st33{fill:#A4C9E7;}
	.st34{fill:url(#SVGID_3_);}
	.st35{opacity:0.2;fill:#1A72AD;}
	.st36{opacity:0.43;fill:#FFFFFF;}
	.st37{fill:#D1DEEB;}
	.st38{opacity:0.3;fill:#FFFFFF;}
	.st39{fill:#455769;}
	.st40{fill:#FFD602;}
	.st41{fill:#F0C32D;}
	.st42{fill:#F4D262;}
	.st43{fill:#07222B;}
	.st44{fill:#255468;}
	.st45{fill:#FFFFFF;}
	.st46{fill:#CBD278;}
	.st47{fill:#E6EAEB;}
	.st48{fill:#636094;}
	.st49{fill:#FFB236;}
	.st50{fill:#FFDD57;}
	.st51{fill:#DCE7F5;}
	.st52{fill:#F7F7F9;}
	.st53{fill:#F79A8C;}
	.st54{fill:#FAA613;}
	.st55{fill:#B7BBD1;}
	.st56{opacity:0.5;}
	.st57{fill:#B7C0EB;}
	.st58{fill:#EBF0F5;}
	.st59{fill:#8799AB;}
	.st60{fill:#E87087;}
	.st61{fill:#FFA000;}
	.st62{fill:#1855B2;}
	.st63{fill:#4D5986;}
	.st64{enable-background:new    ;}
	.st65{fill:#CAE6FD;}
	.st66{fill:#B3B3B3;}
	.st67{fill:#586371;}
	.st68{fill:#8895A7;}
	.st69{fill:#8198AA;}
	.st70{fill:#FFD67C;}
	.st71{fill:#537388;}
	.st72{fill:#B8C6D3;}
	.st73{fill:#904300;}
	.st74{fill:#FFC760;}
	.st75{fill:#596676;}
	.st76{fill:#05AAAB;}
	.st77{fill:#04B8B5;}
	.st78{fill:#3C2415;}
	.st79{fill:#8194AB;}
	.st80{fill:#9BE3E1;}
	.st81{fill:#434343;}
	.st82{fill:#36C6C4;}
</style>
<g>
	<g>
		<g>
			<g>
				<g>
					<g>
						<path class="st0" d="M569.6,219.6c-0.6-0.5-1.2-1-1.9-1.4L252.1,33.1c-15.5-9.1-34.7-9.1-50.2-0.1L55.5,118.7
							c-5.5,3.1-10.9,6.9-10.9,19.5c0,7.1,4.2,13.7,8.1,16.3c0.6,0.5,1.2,0.9,1.9,1.3l316.8,183.7c15.4,8.8,34.2,8.8,49.6-0.1
							l146.6-84.7c0.4-0.2,0.8-0.5,1.2-0.8c4.7-3,8.8-7.3,8.8-18.2C577.4,228.8,573.4,222.3,569.6,219.6z"/>
						<g>
							<path class="st1" d="M566.7,208.6c-2.4,0-3.9,3.1-4.7,7.5L254.2,33.9c-15.8-9.2-38.5-6.9-50.2-0.1L61,117.3
								c-0.9-5.5-2.6-9.6-4.9-8.3c-5.6,3.1-11,6.9-11,19.5c0,7.1,4.2,13.7,8.1,16.3c0.6,0.5,1.2,0.9,1.9,1.3l316.8,183.7
								c15.4,8.8,34.2,8.8,49.6-0.1l146.6-84.7c0.4-0.2,0.8-0.5,1.1-0.8c4.7-3,8.8-7.3,8.8-18.2C578,217,570.9,208.6,566.7,208.6z"
								/>
							<path class="st2" d="M568.2,208.6L252.6,23.5c-15.5-9.1-34.7-9.1-50.2-0.1L55,109.6c-9.7,5.7-9.7,19.8,0.1,25.4l316.8,183.7
								c15.4,8.8,34.2,8.8,49.6-0.1l146.6-84.7C577.8,228.3,577.9,214.3,568.2,208.6z"/>
							<polygon class="st3" points="61.7,128.1 379.7,312.6 554.7,211.4 238.2,26.2 							"/>
						</g>
					</g>
				</g>
				<path class="st4" d="M493.6,262.5c-2.3-1.3-6-1.3-8.3,0l-14.8,8.5c-2.3,1.3-2.3,3.5,0,4.8c2.3,1.3,6,1.3,8.3,0l14.8-8.5
					C495.9,266,495.9,263.8,493.6,262.5z"/>
			</g>
		</g>
	</g>
	<g>
		<g>
			<polygon class="st5" points="383.9,300.9 407.5,287.3 393.9,279.4 370.3,293 			"/>
			<polygon class="st6" points="404.3,289.1 405.7,288.3 399.6,284.8 398.2,285.6 			"/>
			<polygon class="st6" points="394.6,294.7 396,293.9 389.9,290.4 388.5,291.2 			"/>
			<polygon class="st6" points="401.9,290.5 403.3,289.7 400.2,287.9 398.8,288.7 			"/>
			<polygon class="st7" points="399.5,291.9 400.9,291.1 397.8,289.3 396.4,290.1 			"/>
			<polygon class="st6" points="397,293.3 398.4,292.5 395.4,290.7 394,291.5 			"/>
			<polygon class="st6" points="384.9,300.3 386.3,299.5 380.2,296 378.8,296.8 			"/>
			<polygon class="st6" points="392.2,296.1 393.6,295.3 390.5,293.5 389.1,294.3 			"/>
			<polygon class="st7" points="389.8,297.5 391.2,296.7 388.1,294.9 386.7,295.7 			"/>
			<polygon class="st6" points="387.3,298.9 388.7,298.1 385.7,296.3 384.3,297.1 			"/>
		</g>
		<g>
			<path class="st8" d="M409.6,288.9l0.3,0.2C409.9,289.1,409.7,289,409.6,288.9z"/>
			<polygon class="st8" points="410,289.1 410,289.1 410,289.1 			"/>
			<path class="st1" d="M405.3,239.2c3.9-2.3,7.5-2.5,10.1-1l17.9,10.3c-2.6-1.5-6.1-1.3-10.1,1C415.3,254,409,265,409,274.1l0,6.8
				l0,6.7c0,0.6,0.3,1,0.7,1.3l-16.8-9.7l-0.7-0.4c-0.3-0.1-0.5-0.2-0.7-0.4l0,0l0,0c-0.3-0.3-0.4-0.7-0.4-1.1l0-13.5
				C391,254.7,397.4,243.7,405.3,239.2z"/>
			<path class="st9" d="M423.2,249.5c3.9-2.3,7.5-2.5,10.1-1c2.6,1.5,4.2,4.7,4.2,9.2c0,9.1-6.4,20.1-14.2,24.7l-11.8,6.7
				c-0.5,0.3-1,0.3-1.4,0.1l0,0l-0.3-0.2c-0.4-0.3-0.7-0.8-0.7-1.3l0-6.7l0-6.8C409,265,415.3,254,423.2,249.5z"/>
		</g>
		<path class="st6" d="M414.4,271.3c0,5.9,4.1,8.3,9.3,5.3c5.1-2.9,9.3-10.1,9.3-16s-4.1-8.3-9.3-5.3S414.4,265.4,414.4,271.3z"/>
		<path class="st9" d="M417.1,269.7c0,4.2,2.9,5.9,6.6,3.8c3.6-2.1,6.6-7.2,6.6-11.4c0-4.2-2.9-5.9-6.6-3.8
			C420,260.5,417.1,265.5,417.1,269.7z"/>
		<polygon class="st10" points="370.3,296.1 383.9,304 383.9,300.9 370.3,293 		"/>
		<g>
			<path class="st6" d="M396,262c0.5-0.3,1.2-0.3,1.9,0.1l0.2,0.1c0,0.1,0,0.2,0,0.4v4.9v5.5c0,2.1,1.3,4.6,2.9,5.5l1.5,0.9l2.2,1.3
				c-0.1,1-0.4,1.7-1,2c-0.5,0.3-1.2,0.3-1.9-0.2l-3.9-2.2c-1.6-0.9-2.9-3.4-2.9-5.5v-10.4C395,263.2,395.3,262.4,396,262z"/>
			<path class="st11" d="M398,262.2l3.7,2.1c1.6,0.9,2.9,3.4,2.9,5.5v10.4c0,0.1,0,0.2,0,0.4l-2.2-1.3l-1.5-0.9
				c-1.6-0.9-2.9-3.4-2.9-5.5v-5.5v-4.9C398,262.5,398,262.4,398,262.2z"/>
		</g>
		<g>
			<path class="st12" d="M397.9,266c0.2-0.2,0.6-0.1,0.9,0.1l4.4,2.6c0.7,0.4,1.4,1.6,1.4,2.6v1.6c0,0.5-0.2,0.9-0.5,1.1
				c0,0-2.5,1.4-2.5,1.4l-6.2-7.9L397.9,266z"/>
			<path class="st7" d="M396.3,272.7l4.4,2.6c0.7,0.4,1.4,0,1.4-1v-1.6c0-1-0.6-2.2-1.4-2.6l-4.4-2.6c-0.7-0.4-1.4,0-1.4,1v1.6
				C395,271.1,395.6,272.3,396.3,272.7z"/>
		</g>
	</g>
	<g>
		<path class="st13" d="M188.4,84.2c-0.6,0.2-1.3,0.5-1.9,0.7c-5,1.8-10.2,4-18.4,7.4c-9,3.8-30.9,14.2-30.9,14.2l-3.1,0.9l0.2-1.1
			c0,0-12.4,5.5-16.3,6.3c-3.9,0.8-6.8,0-12.1,0.5c-5.4,0.5-12.3,3.3-16.7,6.2c-4.4,3-7.4,6.6-8.3,8.8c-0.8,2.2-1.9,6.1,4.6,8.5
			c6.5,2.5,12.5-0.3,14.1-1.9c1.6-1.6,5.9-5.4,12-9.1c6-3.6,21.7-13.2,21.7-13.2l0.1-0.5l2.2-0.1l-0.2,0.5l-1,0.1
			c0,0-11.2,7.8-14.5,10.1c-3.3,2.2-10.6,5.5-13.5,9.6c-4.2,6.1,4.3,10,7.5,10.7c7.3,1.6,12.9-0.7,15.5-2.3c2.6-1.6,4.4-5.5,3.9-8.3
			c-0.5-3.1-1.8-4.8-0.9-8c0.8-3,6.6-7.9,11.9-12.4l-1.7,0.1l0.7-0.4l44-23c0,0,1-0.7,1.9-1.5c0.8-0.9,2.4-2.5,1.9-3.1
			C189.8,83.7,188.9,84,188.4,84.2z M113.2,117.5c2,1.4,0.6,3.1-0.9,3.8c-1.4,0.7-6.6,3.9-9,5.7c-2.4,1.8-5,3.6-6.9,5.3
			c-1.9,1.7-2.1,2-3.8,2.5c-1.7,0.5-3.8,0.2-5-0.5c-2.9-1.7-2.5-3.3-0.5-6.8c2.1-3.5,6.6-6.6,13.3-9.4
			C107.1,115.2,111.2,116.1,113.2,117.5z M128.2,131.9c0.4,2.1-0.5,5-3.2,6.8c-1.9,1.3-5.2,2.3-8.1,1.8c-2.6-0.4-4.1-1-5.6-2.6
			c-1.5-1.5-0.9-5.1,1.9-7.5c2.8-2.4,8.3-4.6,11.1-4.1C127.1,126.9,127.8,129.9,128.2,131.9z"/>
		<g>
			<g>
				<path class="st14" d="M131.8,110.8l10.7-0.4l44-23c0,0,1-0.7,1.9-1.5c0.8-0.9,2.4-2.5,1.9-3.1l-53.8,22.4l-3.7,1.1L131.8,110.8z
					"/>
				<path class="st15" d="M131.8,110.2l10.7-0.4l44-23c0,0,1-0.7,1.9-1.5c0.8-0.9,2.4-2.5,1.9-3.1l-53.8,22.4l-3.7,1.1L131.8,110.2z
					"/>
			</g>
			<g>
				<path class="st6" d="M117.2,108.9c-3.9,0.8-6.8,0-12.1,0.5c-5.4,0.5-12.3,3.3-16.7,6.2c-4.4,3-7.4,6.6-8.3,8.8
					c-0.8,2.2-1.9,6.1,4.6,8.5c6.5,2.5,12.5-0.3,14.1-1.9c1.6-1.6,5.9-5.4,12-9.1c6-3.6,21.7-13.2,21.7-13.2l1-6.3
					C133.5,102.6,121.1,108.1,117.2,108.9z M111.6,117.5c-1.4,0.7-6.6,3.9-9,5.7c-2.4,1.8-5,3.6-6.9,5.3c-1.9,1.7-2.1,2-3.8,2.5
					c-1.7,0.5-3.8,0.2-5-0.5c-0.9-0.5-1.4-1-1.7-1.5c0.3-0.7,0.7-1.5,1.3-2.5c2.1-3.5,6.6-6.6,13.3-9.4c6.7-2.8,10.8-1.9,12.8-0.5
					c0.1,0.1,0.2,0.1,0.3,0.2C112.4,117,112,117.3,111.6,117.5z"/>
				<path class="st16" d="M114,112.9c-1.6-1.2-6.4-3.5-15.5,0.3c-2.3,1-4.4,2-6.2,3c0,0,0,0,0,0c-3.7,2.1-6.3,4.5-7.8,6.9
					c-1.9,3.2-3,5.7,0.9,8c1.9,1.1,5,1.4,7.3,0.7c0.9-0.2,1.5-0.5,2-0.8c0.6-0.4,1.1-0.8,1.9-1.4c0.2-0.2,0.5-0.4,0.8-0.6
					c1.9-1.6,4.5-3.5,6.8-5.2c1.9-1.4,5.7-3.8,7.7-4.9c0.6-0.4,0.9-0.5,1.1-0.6c0.1-0.1,0.2-0.1,0.3-0.2
					C115.5,116.9,116.5,114.7,114,112.9z M111.6,117.5c-1.4,0.7-6.6,3.9-9,5.7c-2.4,1.8-5,3.6-6.9,5.3c-1.9,1.7-2.1,2-3.8,2.5
					c-1.7,0.5-3.8,0.2-5-0.5c-0.9-0.5-1.4-1-1.7-1.5c0.3-0.7,0.7-1.5,1.3-2.5c2.1-3.5,6.6-6.6,13.3-9.4c6.7-2.8,10.8-1.9,12.8-0.5
					c0.1,0.1,0.2,0.1,0.3,0.2C112.4,117,112,117.3,111.6,117.5z"/>
				<path class="st17" d="M132.5,108.8c0,0-15.7,9.5-21.7,13.2c-6,3.6-10.4,7.5-12,9.1c-1.6,1.6-7.6,4.4-14.1,1.9
					c-4.1-1.5-5.2-3.6-5.2-5.5l0,0v2.8c0.1,1.9,1.1,4,5.2,5.5c6.5,2.5,12.5-0.3,14.1-1.9c1.6-1.6,5.9-5.4,12-9.1
					c6-3.6,21.7-13.2,21.7-13.2l1-6.3v-2.8L132.5,108.8z"/>
				<path class="st18" d="M86.4,126.4c2.1-3.5,6.6-6.6,13.3-9.4c6.7-2.8,10.8-1.9,12.8-0.5c0.1,0.1,0.2,0.1,0.3,0.2
					c0.8-0.8,1.2-2-0.3-3c-2-1.4-6-2.3-12.8,0.5c-6.7,2.8-11.3,5.9-13.3,9.4c-1.5,2.4-2.1,4-1.3,5.3
					C85.3,128.1,85.8,127.3,86.4,126.4z"/>
			</g>
			<g>
				<path class="st14" d="M136.5,104.5l-2.1,5.9v0.6l6.8-0.6l11.8-6.6l0.4-0.7l13.9-12.8C158.4,94.1,136.5,104.5,136.5,104.5z"/>
				<path class="st19" d="M134.4,110.4l2.1-6.6c0,0,21.9-10.4,30.9-14.2c8.2-3.5,13.3-5.6,18.4-7.4c0.6-0.2,1.4-0.4,2-0.4
					c0.8,0,1.4,0,2.5,0.3l-36.8,21v-0.6l-0.4,0.7l-11.8,6.6L134.4,110.4z"/>
				<path class="st20" d="M153.5,102.5l-0.4,1.1l0.4-0.4l36.8-21c-1-0.3-1.7-0.3-2.5-0.3c-0.6,0-1.4,0.2-2,0.4
					c0,0-28.6,16.7-29.4,17.4C155.5,100.2,153.2,101.9,153.5,102.5z"/>
			</g>
			<g>
				<path class="st6" d="M143.4,108.3l-9.9,0.6c0,0-11.2,7.8-14.5,10.1c-3.3,2.2-10.6,5.5-13.5,9.6c-4.2,6.1,4.3,10,7.5,10.7
					c7.3,1.6,12.9-0.7,15.5-2.3c2.6-1.6,4.4-5.5,3.9-8.3c-0.5-3.1-1.8-4.8-0.9-8C132.4,117.6,138.1,112.8,143.4,108.3z M124.4,134.9
					c-1.9,1.3-5.2,2.3-8.1,1.8c-2.6-0.4-4.1-1-5.6-2.6c-0.3-0.3-0.5-0.6-0.6-0.9c0.4-1.3,1.2-2.6,2.5-3.7c2.8-2.4,8.3-4.6,11.1-4.1
					c2.6,0.5,3.4,3,3.9,5.1C127.1,132,126.1,133.7,124.4,134.9z"/>
				<path class="st16" d="M129.5,127.9c-0.6-3-1.6-5.8-5.3-6.5c-3.4-0.6-7.9,1.1-10.8,2.8c0,0,0,0,0,0c-1,0.6-1.9,1.2-2.6,1.8
					c-3,2.6-4,6.7-1.9,8.7c1.7,1.7,3.6,2.6,6.8,3.1c3,0.5,6.8-0.2,9.5-1.8c0.2-0.1,0.5-0.3,0.7-0.4C129,133.4,130,130.2,129.5,127.9
					z M124.4,134.9c-1.9,1.3-5.2,2.3-8.1,1.8c-2.6-0.4-4.1-1-5.6-2.6c-0.3-0.3-0.5-0.6-0.6-0.9c0.4-1.3,1.2-2.6,2.5-3.7
					c2.8-2.4,8.3-4.6,11.1-4.1c2.6,0.5,3.4,3,3.9,5.1C127.1,132,126.1,133.7,124.4,134.9z"/>
				<g>
					<path class="st17" d="M132.4,131c-0.5,2.3-1.9,4.8-3.8,6c-2.6,1.6-8.2,3.9-15.5,2.3c-2.7-0.6-9-3.3-8.7-7.7l0,0l0,3.2
						c0.1,4.1,6.1,6.7,8.7,7.3c7.3,1.6,12.9-0.7,15.5-2.3c2.6-1.6,4.4-5.5,3.9-8.3C132.5,131.3,132.4,131.1,132.4,131z"/>
					<path class="st21" d="M131.6,120.7c-0.4,1.4-0.3,2.5-0.2,3.5c0-0.2,0.1-0.5,0.2-0.7c0.8-3,6.6-7.9,11.9-12.4v-2.8
						C138.1,112.8,132.4,117.6,131.6,120.7z"/>
				</g>
				<path class="st18" d="M112.5,129.5c2.8-2.4,8.3-4.6,11.1-4.1c2.6,0.5,3.4,3,3.9,5.1c0.2-0.8,0.2-1.7,0.1-2.4
					c-0.4-2.1-1.2-5-3.9-5.5c-2.8-0.5-8.3,1.7-11.1,4.1c-2.3,2-3.1,4.8-2.5,6.5C110.4,131.9,111.2,130.6,112.5,129.5z"/>
			</g>
			<g>
				<path class="st22" d="M147,102.4c1.4,0.8,1.4,2.1,0,2.9c-1.4,0.8-3.7,0.8-5,0c-1.4-0.8-1.4-2.1,0-2.9
					C143.4,101.6,145.6,101.6,147,102.4z"/>
				<path class="st1" d="M147,102.1c1.4,0.8,1.4,2.1,0,2.9c-1.4,0.8-3.7,0.8-5,0c-1.4-0.8-1.4-2.1,0-2.9
					C143.4,101.3,145.6,101.3,147,102.1z"/>
			</g>
		</g>
	</g>
	<g>
		<path class="st13" d="M199.7,170.6c4.6,3.4,12.6,9.3,22.1,15.5c14.7,9.6,35.6,16.6,35.6,16.6h8l94.6-54.2l-61.8-35.2l-4,2.3
			l-4-2.3L201.7,164C198.5,165.8,198.9,170.1,199.7,170.6z"/>
		<path class="st23" d="M359,137.6l-55.8-32.2l-89.8,57l-5.9,3.4c16.4,14,34.6,27.1,58.9,36.5l92.6-53.5c0.7-0.4,1.1-1,1.1-1.5v-8.2
			C360.1,138.6,359.7,138.1,359,137.6z"/>
		<path class="st4" d="M214.2,153.8l83.7-48.3c1.5-0.8,3.8-0.8,5.3,0l55.8,32.2c1.5,0.8,1.5,2.2,0,3.1l-83.8,48.5
			C250.9,179.8,230.5,167.8,214.2,153.8z"/>
		<path class="st1" d="M360.1,147.4v-2.6l-97.3,56.2c1.2,0.5,2.4,1,3.6,1.4l92.6-53.5C359.7,148.5,360.1,147.9,360.1,147.4z"/>
		<path class="st24" d="M262.8,200.9l97.3-56.2v-0.1l-97.4,56.2C262.7,200.9,262.8,200.9,262.8,200.9z"/>
		<path class="st25" d="M262.8,200.8l97.3-56.2v-0.1l-97.4,56.2C262.7,200.8,262.8,200.8,262.8,200.8z"/>
		<polygon class="st1" points="223.3,157 270.2,184.1 345.9,140.4 299,113.3 		"/>
		<polygon class="st26" points="226.1,158.6 270.2,184.1 343.1,142 299,116.6 		"/>
		<polygon class="st1" points="299,113.3 345.9,140.4 346.5,140.1 299,112.6 222.7,156.7 223.3,157 		"/>
		<linearGradient id="SVGID_1_" gradientUnits="userSpaceOnUse" x1="290.7353" y1="144.6173" x2="288.6058" y2="148.3056">
			<stop  offset="0" style="stop-color:#F79A8C"/>
			<stop  offset="0.5091" style="stop-color:#E11E19"/>
			<stop  offset="1" style="stop-color:#F79A8C"/>
		</linearGradient>
		<polygon class="st27" points="315.4,158 269.7,131.7 263.9,135 309.6,161.4 		"/>
		<polygon class="st21" points="309.6,161.4 263.9,135 263.9,136.9 307.9,162.3 		"/>
		<polygon class="st28" points="223.3,156.4 270.2,183.4 345.9,139.7 299,112.7 		"/>
		<path class="st29" d="M275.2,189.1c-24.3-9.5-44.7-21.3-61-35.3c-10.4,6.4-9.5,13.7-9.5,13.7c16.4,14,36.8,25.8,61.1,35.3
			C265.3,196.7,268.9,192.8,275.2,189.1z"/>
		<path class="st1" d="M265.7,202.7l0.7-0.3c0.4-5.2,2.8-8.3,6.5-10.8c1-0.7,2.3-1.6,2.3-1.6v-0.8
			C268.9,192.8,265.3,196.7,265.7,202.7z"/>
		<path class="st30" d="M245,185.5c-7.4-3.8-14.5-7.9-21-12.2c-0.8-0.5-1.6-0.7-2,0.1c-0.3,0.5-0.6,1.1-0.8,1.6
			c-0.3,0.7,0.1,1.5,0.9,2c6.5,4.3,13.6,8.4,21,12.2c1.1,0.6,2.2,0.7,2.5-0.2c0.2-0.5,0.4-0.9,0.6-1.4
			C246.6,186.8,246.1,186,245,185.5z"/>
		<path class="st31" d="M244.6,189.4c-0.4,0-0.9-0.2-1.4-0.4c-7.5-3.8-14.5-7.9-21-12.2c-0.7-0.4-1-1.2-0.8-1.8
			c0.2-0.4,0.4-0.8,0.6-1.2c0.1-0.1,0.1-0.2,0.2-0.4c0.1-0.3,0.3-0.4,0.6-0.4c0.3,0,0.7,0.1,1.1,0.4c6.5,4.3,13.6,8.4,21,12.2
			c1.4,0.7,1.3,1.4,1,1.9c-0.2,0.5-0.4,1-0.6,1.4C245.2,189.3,245,189.4,244.6,189.4L244.6,189.4z"/>
		<radialGradient id="SVGID_2_" cx="315.2452" cy="35.3867" r="169.9006" gradientUnits="userSpaceOnUse">
			<stop  offset="0.9667" style="stop-color:#FFFFFF"/>
			<stop  offset="1" style="stop-color:#B9BDC0"/>
		</radialGradient>
		<path class="st32" d="M244.9,185.7c-7.5-3.8-14.6-7.9-21-12.2c-0.4-0.3-0.8-0.4-1.1-0.4c-0.3,0-0.5,0.1-0.6,0.4
			c0,0.1-0.1,0.2-0.1,0.3c0.1-0.2,0.3-0.3,0.5-0.3c0.3,0,0.7,0.1,1.1,0.4c6.5,4.3,13.6,8.4,21,12.2c1.4,0.7,1.3,1.4,1,1.9
			c-0.2,0.4-0.4,0.9-0.5,1.2c0.1-0.1,0.1-0.2,0.2-0.3c0.2-0.4,0.3-0.9,0.6-1.4C246.1,187.1,246.3,186.4,244.9,185.7z"/>
		<path class="st30" d="M230.5,177.7l-0.4,0.3l0,0c-0.7,1.1-1.1,2.1-1.4,2.9c0.1,0,0.2,0.1,0.2,0.1c0.3-0.8,0.7-1.8,1.4-2.9l0.5-0.3
			C230.7,177.8,230.6,177.7,230.5,177.7z"/>
		<path class="st30" d="M238.5,182.3l-0.4,0.3l0,0c-0.7,1.1-1.1,2.1-1.4,2.9c0.1,0,0.2,0.1,0.2,0.1c0.3-0.8,0.7-1.8,1.4-2.9l0.5-0.3
			C238.7,182.4,238.6,182.3,238.5,182.3z"/>
		<path class="st33" d="M256.5,140.5c5.8,2.9,12,5.6,18.4,8.2c1-1.9,3.4-1.8,3.4-1.8l78.7-9.1c0.4-0.2,0.4-0.6,0-0.8l-55.8-32.2
			c-0.4-0.2-1-0.2-1.3,0l-77.3,8.3c0,0-3.1,0.2-4.6,2.4c4.1,3.4,8.5,6.8,13.2,10.1c0,0,7.1,2.2,13.1,5.7
			C250.5,135,256.5,140.5,256.5,140.5z"/>
		<path class="st1" d="M357.2,137.4L357.2,137.4c0,0.1-0.1,0.3-0.3,0.4l-78.7,9.1c0,0-2.4-0.1-3.4,1.8c-6.4-2.6-12.5-5.3-18.4-8.2
			c0,0-6-5.5-12.2-9.1c-6-3.5-13.1-5.7-13.1-5.7c-4.6-3.2-9-6.6-13-9.9c-0.1,0.1-0.2,0.2-0.2,0.3c4.1,3.4,8.5,6.8,13.2,10.1
			c0,0,7.1,2.2,13.1,5.7c6.2,3.6,12.2,9.1,12.2,9.1c5.8,2.9,12,5.6,18.4,8.2l82.1-9.6c0.2-0.1,0.3-0.2,0.3-0.4V137.4z"/>
		<path class="st1" d="M256.5,140.5c0,0-6-5.5-12.2-9.1c-6-3.5-13.1-5.7-13.1-5.7c-4.6-3.2-9-6.6-13-9.9c-0.1,0.1-0.2,0.2-0.2,0.3
			c4.1,3.4,8.5,6.8,13.2,10.1c0,0,7.1,2.2,13.1,5.7c6.2,3.6,12.2,9.1,12.2,9.1c5.8,2.9,12,5.6,18.4,8.2v-0.5
			C268.5,146.2,262.4,143.4,256.5,140.5z"/>
		<path class="st31" d="M267.6,126.2c-6.9-4.2-22.9-6-35.2-1.4c-0.4,0.1-0.9,0.6-1.2,0.8c0,0,0,0,0,0c0,0,7.1,2.2,13.1,5.7
			c6.1,3.6,11.9,8.9,12.2,9.1c0.4-0.3,0.8-0.9,1.2-1.1C269.3,134.5,276.6,131.7,267.6,126.2z"/>
		<path class="st1" d="M248.7,123.6c7.3,0,14.2,1.5,18.1,3.9c3.1,1.9,3.3,3,3.3,3.2c0,0.4-0.5,1.3-3,2.7c-2.2,1.3-5.3,2.6-8.9,4.1
			l-1.1,0.5c-0.2,0.1-0.4,0.2-0.6,0.4c-2-1.8-6.6-5.6-11.4-8.3c-3.4-2-7.1-3.6-9.8-4.6v-0.7l6.6-0.1L248.7,123.6z"/>
		<linearGradient id="SVGID_3_" gradientUnits="userSpaceOnUse" x1="259.1018" y1="136.3943" x2="244.3972" y2="115.4319">
			<stop  offset="0" style="stop-color:#ADBFCA"/>
			<stop  offset="1" style="stop-color:#73828B"/>
		</linearGradient>
		<path class="st34" d="M256.5,137.7c-2-1.8-6.6-5.6-11.4-8.3c-3.4-2-7.1-3.6-9.8-4.6c4-1.2,8.6-1.8,13.4-1.8
			c7.3,0,14.2,1.5,18.1,3.9c3.1,1.9,3.3,3,3.3,3.2c0,0.4-0.5,1.3-3,2.7c-2.2,1.3-5.3,2.6-8.9,4.1l-1.1,0.5
			C256.8,137.4,256.6,137.6,256.5,137.7z"/>
		<path class="st4" d="M256.5,137.6c-2.3-2-6.7-5.6-11.3-8.3c-3.4-2-7-3.5-9.6-4.5c4-1.2,8.5-1.8,13.2-1.8c7.3,0,14.2,1.5,18.1,3.9
			c3.2,1.9,3.3,3,3.3,3.2c0,0.3-0.4,1.2-2.9,2.6c-2.2,1.2-5.3,2.6-8.9,4.1l-1.1,0.5C256.8,137.3,256.6,137.4,256.5,137.6z"/>
	</g>
	<g>
		<path id="XMLID_348_" class="st2" d="M258.7,224.5v5.7h0c0,6.4,4,12.2,11.3,16.4c6.9,4,16,6,25.1,6c9.1,0,18.1-2,25.1-6
			c7.3-4.2,11.3-10,11.3-16.4v-5.7l-1.1,0.1c-1.6-4.1-5.1-7.9-10.2-10.8c-13.8-8-36.3-8-50.1,0c-5.1,2.9-8.6,6.7-10.2,10.8
			L258.7,224.5z M265.4,230.2c0-3.9,2.8-7.6,8-10.6c5.9-3.4,13.8-5.1,21.7-5.1c7.9,0,15.8,1.7,21.7,5.1c5.1,3,8,6.7,8,10.6
			c0,3.9-2.8,7.6-8,10.6c-11.8,6.8-31.7,6.8-43.4,0C268.3,237.8,265.4,234.1,265.4,230.2z"/>
		<path id="XMLID_347_" class="st35" d="M317.2,242c-12.1,7-31.9,7-44.1,0c-12.1-7-12.1-18.4,0-25.4c12.1-7,31.9-7,44.1,0
			C329.3,223.5,329.3,235,317.2,242z"/>
		<path id="XMLID_346_" class="st36" d="M295.7,230c-5.2,3-13.8,3-19,0c-5.2-3-5.2-7.9,0-11c5.2-3,13.8-3,19,0
			C300.9,222,300.9,227,295.7,230z"/>
		<g id="XMLID_342_">
			<path id="XMLID_343_" class="st16" d="M270.1,240.9c-7.3-4.2-11.3-10-11.3-16.4c0-6.4,4-12.2,11.3-16.4c13.8-8,36.3-8,50.1,0
				c7.3,4.2,11.3,10,11.3,16.4c0,6.4-4,12.2-11.3,16.4l0,0c-6.9,4-16,6-25.1,6C286.1,246.9,277,244.9,270.1,240.9z M273.4,213.9
				c-5.1,3-8,6.7-8,10.6c0,3.9,2.8,7.6,8,10.6c11.8,6.8,31.7,6.8,43.4,0l0,0c5.1-3,8-6.7,8-10.6c0-3.9-2.8-7.6-8-10.6
				c-5.9-3.4-13.8-5.1-21.7-5.1C287.2,208.8,279.3,210.5,273.4,213.9z"/>
		</g>
		<g id="XMLID_340_">
			<path id="XMLID_341_" class="st37" d="M349.4,264.6c1.1,0,2.2-0.6,2.8-1.6c0.9-1.5,0.4-3.5-1.2-4.4l-29.9-17.2
				c-1.5-0.9-5.3,2.8-3.2,5.5l29.9,17.2C348.3,264.5,348.9,264.6,349.4,264.6z"/>
		</g>
		<path id="XMLID_338_" class="st10" d="M364.6,278.2l-41.9-24.1c-4.4-5.8,3.5-13.4,6.7-11.6l41.9,24.1c3.2,1.8,4.3,5.9,2.4,9.1
			c-1.2,2.1-3.5,3.3-5.8,3.3C366.8,279.1,365.6,278.8,364.6,278.2z"/>
		<path id="XMLID_336_" class="st38" d="M365.4,270.4l-35.7-20.9c-1-1.3,0.8-3,1.5-2.6l35.7,20.9c0.7,0.4,0.9,1.3,0.5,2
			c-0.3,0.5-0.8,0.7-1.3,0.7C365.9,270.6,365.6,270.5,365.4,270.4z"/>
	</g>
	<g>
		<g>
			<polygon class="st11" points="283.9,79.1 283.9,85.7 279.6,83.1 279.6,76.5 			"/>
			<polygon class="st39" points="283.9,79.1 300.3,69.7 296,67.1 279.6,76.5 			"/>
			<polygon class="st40" points="283.9,85.7 300.3,76.3 300.3,69.7 283.9,79.1 			"/>
		</g>
		<g>
			<polygon class="st41" points="429.1,162.4 429.1,169 283.9,85.7 283.9,79.1 			"/>
			<polygon class="st42" points="429.1,162.4 445.5,152.9 300.3,69.7 283.9,79.1 			"/>
			<polygon class="st40" points="429.1,169 445.5,159.5 445.5,152.9 429.1,162.4 			"/>
		</g>
		<g>
			<polygon class="st11" points="433.4,165 433.4,171.6 429.1,169 429.1,162.4 			"/>
			<polygon class="st39" points="433.4,165 449.8,155.6 445.5,152.9 429.1,162.4 			"/>
			<polygon class="st43" points="433.4,171.6 449.8,162.2 449.8,155.6 433.4,165 			"/>
		</g>
		<g>
			<path class="st44" d="M435,156.3c3.2-1.9,3.2-4.9,0-6.8c-3.2-1.9-8.5-1.9-11.8,0c-3.2,1.9-3.2,4.9,0,6.8S431.8,158.2,435,156.3z"
				/>
			<path class="st45" d="M424.6,155.6c2.5,1.4,6.6,1.4,9.1,0c2.5-1.4,2.5-3.8,0-5.2c-2.5-1.4-6.6-1.4-9.1,0
				C422.1,151.8,422.1,154.1,424.6,155.6z"/>
			<polygon class="st46" points="431.2,156.3 434.9,154.2 427,149.6 423.4,151.7 			"/>
		</g>
		<g>
			<path class="st44" d="M307.6,79.4c0,2.7-3.7,4.8-8.3,4.8c-4.6,0-8.3-2.2-8.3-4.8c0-2.7,3.7-4.8,8.3-4.8
				C303.9,74.6,307.6,76.8,307.6,79.4z"/>
			<path class="st45" d="M299.3,75.7c3.5,0,6.4,1.7,6.4,3.7c0,2-2.9,3.7-6.4,3.7c-3.5,0-6.4-1.7-6.4-3.7
				C292.8,77.4,295.7,75.7,299.3,75.7z"/>
			<rect x="293.7" y="77.9" class="st46" width="11.1" height="3"/>
		</g>
		<path class="st39" d="M405.4,144.4c1.9,0,3.7-0.5,5.1-1.3c1.7-1,2.7-2.4,2.7-3.9c0-1.3-0.8-2.5-2.1-3.3l-22.8-13.2
			c-1.1-0.6-2.5-1-4.1-1c-1.9,0-3.7,0.5-5.1,1.3c-1.7,1-2.7,2.4-2.7,3.9c0,1.3,0.8,2.5,2.1,3.3l22.8,13.2
			C402.4,144,403.8,144.4,405.4,144.4C405.4,144.4,405.4,144.4,405.4,144.4z"/>
		<g>
			<path class="st39" d="M346,110.4c1.9,0,3.7-0.5,5.1-1.3c1.7-1,2.7-2.4,2.7-3.9c0-1.3-0.8-2.5-2.1-3.3l-22.8-13.2
				c-1.1-0.6-2.5-1-4.1-1c-1.9,0-3.7,0.5-5.1,1.3c-1.7,1-2.7,2.4-2.7,3.9c0,1.3,0.8,2.5,2.1,3.3l22.8,13.2
				C343,110.1,344.4,110.4,346,110.4C346,110.4,346,110.4,346,110.4z"/>
			<g>
				<path class="st6" d="M379.9,124.4L379.9,124.4c2.2-1.3,5.6-1.4,7.6-0.3l22.8,13.2c1.9,1.1,1.7,3.1-0.5,4.4
					c-0.3,0.2-0.6,0.3-0.9,0.4l-21.4-12.4c-1.7-1-4.5-1-6.7-0.1l-1.4-0.8C377.4,127.6,377.6,125.7,379.9,124.4z"/>
				<path class="st6" d="M321.3,95.6l-1.4-0.8c-1.9-1.1-1.7-3.1,0.5-4.4c2.2-1.3,5.6-1.4,7.6-0.3l22.8,13.2c1.9,1.1,1.7,3.1-0.5,4.4
					l0,0c-0.3,0.2-0.6,0.3-0.9,0.4l-21.4-12.4C326.4,94.7,323.5,94.7,321.3,95.6z"/>
				<path class="st18" d="M387.5,129.7l21.4,12.4c-2.2,0.9-5,0.9-6.7-0.1l-21.4-12.4C382.9,128.7,385.8,128.7,387.5,129.7z"/>
				<path class="st18" d="M342.7,108l-21.4-12.4c2.2-0.9,5-0.9,6.7,0.1l21.4,12.4C347.3,109,344.4,109,342.7,108z"/>
			</g>
		</g>
		<g>
			<path class="st39" d="M358.8,106.7l2.9-1.7l19.5,11.3l-2.9,1.7c-2.4,1.4-6.1,1.6-8.2,0.3l-11.9-6.9
				C356.1,110.2,356.4,108.1,358.8,106.7z"/>
			<path class="st47" d="M371.8,117.3l-11.9-6.9c-1.2-0.7-1-1.9,0.3-2.6l3.2-1.8l16.1,9.3l-3.2,1.8C375,117.9,373,118,371.8,117.3z"
				/>
		</g>
	</g>
	<g>
		<polygon class="st48" points="233.1,101 179.3,70 222.2,48.2 276,76.3 		"/>
		<polygon class="st6" points="222.2,8.4 222.2,48.2 179.3,70 179.3,33.2 		"/>
		<polygon class="st6" points="222.2,48.2 267.4,74.3 276,39.5 222.2,8.4 		"/>
		<path class="st37" d="M222.2,8.4l-42.9,24.8l53.8,31.1L276,39.5L222.2,8.4z M181.7,33.2l40.5-23.4l51.4,29.7l-40.5,23.4
			L181.7,33.2z"/>
		<g>
			<g>
				<path class="st49" d="M267.4,58.3L226.9,35V10.3c0-1.3,0.9-1.9,2.1-1.2l7.4,4.2c0.6,0.3,1.2,1,1.6,1.7l1.7,3.3
					c0.4,0.8,1,1.4,1.6,1.7l24,13.9c1.2,0.7,2.1,2.3,2.1,3.6V58.3z"/>
				<path class="st50" d="M266.7,59l-40.4-23.3V10.9c0-1.3,0.9-1.9,2.1-1.2l7.4,4.2c0.6,0.3,1.2,1,1.6,1.7L239,19
					c0.4,0.8,1,1.4,1.6,1.7l24,13.9c1.2,0.7,2.1,2.3,2.1,3.6V59z"/>
			</g>
			<g>
				<polygon class="st51" points="228.6,40.5 264.6,61.2 264.6,37.2 228.6,16.4 				"/>
				<polygon class="st52" points="227.3,41.8 263.2,62.6 263.2,38.5 227.3,17.7 				"/>
				<polygon class="st45" points="227.3,17.7 228.6,16.4 264.6,37.2 263.2,38.5 				"/>
			</g>
			<g>
				<path class="st49" d="M221.7,40.2l40.4,23.3V38.9c0-1.3-0.9-2.9-2.1-3.6l-12.5-7.2c-0.6-0.3-1.2-0.4-1.6-0.1l-1.7,1.3
					c-0.4,0.3-1,0.3-1.6-0.1l-18.9-10.9c-1.2-0.7-2.1-0.1-2.1,1.2V40.2z"/>
				<path class="st50" d="M221,54.7l40.4,23.3V39.5c0-1.3-0.9-2.9-2.1-3.6l-12.5-7.2c-0.6-0.3-1.2-0.4-1.6-0.1l-1.7,1.3
					c-0.4,0.3-1,0.3-1.6-0.1l-18.9-10.9c-1.2-0.7-2.1-0.1-2.1,1.2V54.7z"/>
			</g>
		</g>
		<g>
			<g>
				<path class="st12" d="M251.3,72.3L210.9,49V16c0-1.3,0.9-1.9,2.1-1.2l7.4,4.2c0.6,0.3,1.2,1,1.6,1.7l1.7,3.3
					c0.4,0.8,1,1.4,1.6,1.7l24,13.9c1.2,0.7,2.1,2.3,2.1,3.6V72.3z"/>
				<path class="st53" d="M250.6,73l-40.4-23.3v-33c0-1.3,0.9-1.9,2.1-1.2l7.4,4.2c0.6,0.3,1.2,1,1.6,1.7l1.7,3.3
					c0.4,0.8,1,1.4,1.6,1.7l24,13.9c1.2,0.7,2.1,2.3,2.1,3.6V73z"/>
			</g>
			<g>
				<polygon class="st51" points="213.1,54 249.1,74.7 249.1,42.4 213.1,21.6 				"/>
				<polygon class="st52" points="211.8,47 247.8,67.8 247.8,43.7 211.8,22.9 				"/>
				<polygon class="st45" points="211.8,22.9 213.1,21.6 249.1,42.4 247.8,43.7 				"/>
			</g>
			<g>
				<path class="st12" d="M205.6,46L246,69.3V44.6c0-1.3-0.9-2.9-2.1-3.6l-12.5-7.2c-0.6-0.3-1.2-0.4-1.6-0.1l-1.7,1.3
					c-0.4,0.3-1,0.3-1.6-0.1L207.7,24c-1.2-0.7-2.1-0.1-2.1,1.2V46z"/>
				<path class="st7" d="M205,46.6L245.4,70V45.3c0-1.3-0.9-2.9-2.1-3.6l-12.5-7.2c-0.6-0.3-1.2-0.4-1.6-0.1l-1.7,1.3
					c-0.4,0.3-1,0.3-1.6-0.1L207,24.7c-1.2-0.7-2.1-0.1-2.1,1.2V46.6z"/>
			</g>
		</g>
		<g>
			<g>
				<path class="st54" d="M239.6,71.2l-40.4-23.3l0-24.7c0-1.3,0.9-1.9,2.1-1.2l7.4,4.2c0.6,0.3,1.2,1,1.6,1.7l1.7,3.3
					c0.4,0.8,1,1.4,1.6,1.7l24,13.9c1.2,0.7,2.1,2.3,2.1,3.6V71.2z"/>
				<path class="st9" d="M239,71.9l-40.4-23.3V23.9c0-1.3,0.9-1.9,2.1-1.2l7.4,4.2c0.6,0.3,1.2,1,1.6,1.7l1.7,3.3
					c0.4,0.8,1,1.4,1.6,1.7l24,13.9c1.2,0.7,2.1,2.3,2.1,3.6V71.9z"/>
			</g>
			<g>
				<polygon class="st51" points="201.4,52.9 237.4,73.7 237.4,49.6 201.4,28.8 				"/>
				<polygon class="st52" points="198.9,54.6 234.9,75.4 234.9,51.3 198.9,30.5 				"/>
				<polygon class="st45" points="198.9,30.5 201.4,28.8 237.4,49.6 234.9,51.3 				"/>
			</g>
			<g>
				<path class="st54" d="M193.9,53.2l40.4,23.3V51.8c0-1.3-0.9-2.9-2.1-3.6L219.8,41c-0.6-0.3-1.2-0.4-1.6-0.1l-1.7,1.3
					c-0.4,0.3-1,0.3-1.6-0.1L196,31.2c-1.2-0.7-2.1-0.1-2.1,1.2V53.2z"/>
				<path class="st5" d="M193.3,53.8l40.4,23.3V52.5c0-1.3-0.9-2.9-2.1-3.6l-12.5-7.2c-0.6-0.3-1.2-0.4-1.6-0.1l-1.7,1.3
					c-0.4,0.3-1,0.3-1.6-0.1l-18.9-10.9c-1.2-0.7-2.1-0.1-2.1,1.2V53.8z"/>
			</g>
		</g>
		<polygon class="st2" points="233.1,101 179.3,70 179.3,33.2 233.1,64.2 		"/>
		<polygon class="st37" points="179.3,33.2 181.7,33.2 233.1,62.9 233.1,64.2 		"/>
		<polygon class="st37" points="233.1,64.2 233.1,62.9 273.6,39.5 276,39.5 		"/>
		<path class="st55" d="M259.9,56.7c0.1,0.2,0.2,0.5,0.2,0.9v3.8c0,1.1-0.7,2.4-1.5,2.9l-9.7,5.6c-0.2,0.1-0.3,0.2-0.5,0.2
			c0.3,0.4,0.7,0.5,1.3,0.2l9.7-5.6c0.8-0.5,1.5-1.8,1.5-2.9V58C260.9,57.1,260.5,56.6,259.9,56.7z"/>
		<path class="st29" d="M233.1,64.2V101L276,76.3V39.5L233.1,64.2z M260.9,61.8c0,1.1-0.7,2.4-1.5,2.9l-9.7,5.6
			c-0.8,0.5-1.5,0-1.5-1.1v-3.8c0-1.1,0.7-2.4,1.5-2.9l9.7-5.6c0.8-0.5,1.5,0,1.5,1.1V61.8z"/>
		<g>
			<polygon class="st52" points="263.4,77.8 246.6,87.5 246.6,75.8 263.4,66.1 			"/>
			<g>
				<polygon class="st6" points="261.3,70.4 248.7,77.7 248.7,77.3 261.3,69.9 				"/>
			</g>
			<g>
				<polygon class="st6" points="261.3,73.6 248.7,80.9 248.7,80.5 261.3,73.2 				"/>
			</g>
		</g>
	</g>
	<g>
		<g class="st56">
			<path class="st57" d="M321.1,186.5c2.4,0.2,4.8,0.7,7.2,1.2c5,1.1,8.9,2.6,13.3,5.1c6,3.5,11.9,6.9,17.9,10.3
				c3.2,1.9,6.5,3.8,9.7,5.6c1,0.6,2.8,2.3,3.9,1.6c0.2-0.1,0.3-0.1,0.5,0.1c5.7,3.3,11.3,6.5,17,9.8c2.3,1.3,4.5,2.6,6.8,3.9
				c0.9,0.5,0.5,0.3,1.2,1c2.3,2,1.6,6.5,0.2,8.6c-1.3,2.1-3.7,4.7-7,3.8c-2.4-1.1-6.4-4.2-8-5.2c-4.4-2.6-8.8-5.1-13.3-7.7
				c-8.1-4.7-16.2-9.4-24.3-14.1c-3.9-1.8-7.5-4.3-11.2-6.5c-2.8-1.6-5.2-3-7.4-5.3c-2.6-2.6-5-6.3-7.1-9.2
				C319.8,188.8,320.6,186.4,321.1,186.5z"/>
		</g>
		<path class="st58" d="M321.1,186.5c2.4,0.2,4.8,0.7,7.2,1.2c5,1.1,8.9,2.6,13.3,5.1c6,3.5,11.9,6.9,17.9,10.3
			c3.2,1.9,6.5,3.8,9.7,5.6c1,0.6,2.8,2.3,3.9,1.6c0.2-0.1,0.3-0.1,0.5,0.1c5.7,3.3,11.3,6.5,17,9.8c2.3,1.3,4.5,2.6,6.8,3.9
			c0.9,0.5,0.5,0.3,1.2,1c2.3,2,1.6,6.5,0.2,8.6c-1.3,2.1-3.7,4.7-7,3.8c-2.4-1.1-6.4-4.2-8-5.2c-4.4-2.6-8.8-5.1-13.3-7.7
			c-8.1-4.7-16.2-9.4-24.3-14.1c-3.9-1.8-7.5-4.3-11.2-6.5c-2.8-1.6-5.2-3-7.4-5.3c-2.6-2.6-5-6.3-7.1-9.2
			C319.8,188.8,320.6,186.4,321.1,186.5z"/>
		<path class="st17" d="M316.5,184.8c0.1-0.2,3,0.8,3.3,1c0.3,0.2,0,0,0.3,0.2c0.1,0.1,0.2,0.1,0.3,0.2c0.1,0.1,0.1,0.2,0.1,0.3
			c0,0.2-0.1,0.5-0.3,0.7c-0.1,0.2-0.4,0.4-0.6,0.4c-0.1,0-0.2-0.1-0.3-0.1c-0.1-0.1-0.2-0.1-0.4-0.2
			C318.6,187,316.3,184.9,316.5,184.8z"/>
		<path class="st37" d="M319.7,185.5c3.8-0.1,15.4,2.7,17.3,3.8c2.2,1.3,0,0,2.2,1.3c0.8,0.5,1.6,0.8,2.1,1.6
			c0.4,0.8,0.5,1.8,0.4,2.7c-0.2,1.9-1,3.7-2.1,5.1c-1.1,1.4-2.8,3-4.8,2.9c-0.9-0.1-0.9-1.4-1.6-1.8c-0.9-0.5-1.9-0.1-2.8-0.6
			c-1.6-0.9-9.9-10-11.6-13.5C318.5,186.5,319,185.5,319.7,185.5z"/>
		<g>
			<path class="st59" d="M339.6,200.1c-1.1,1.4-2.8,3-4.8,2.9c-0.9-0.1-0.9-1.4-1.6-1.8c-0.9-0.5-1.9-0.1-2.8-0.6
				c-1.4-0.8-8.1-8.1-10.8-12.1C326.2,192.3,332.9,196.2,339.6,200.1C339.6,200,339.6,200,339.6,200.1z"/>
		</g>
		<path class="st5" d="M329.3,197.6c0-1.6,0.7-3.3,1.5-4.6c0.8-1.4,2-2.7,3.5-3.4c0.5-0.3,1.2-0.5,1.8-0.5c0.9,0,1.5,0.5,2.3,0.9
			c2.2,1.3,4.4,2.6,6.6,3.8c2.2,1.3,4.4,2.6,6.6,3.8c0.8,0.5,1.6,0.8,2.1,1.6c0.4,0.8,0.5,1.8,0.4,2.7c-0.2,1.9-1,3.7-2.1,5.2
			c-1.1,1.4-2.8,3-4.8,2.9c-0.9-0.1-1.5-0.6-2.2-1c-0.9-0.5-1.8-1.1-2.8-1.6c-1.9-1.1-3.7-2.1-5.6-3.2c-1.8-1.1-3.7-2.1-5.6-3.2
			c-0.7-0.4-1.1-0.8-1.4-1.5C329.4,198.9,329.3,198.2,329.3,197.6C329.3,197.5,329.3,197.6,329.3,197.6z"/>
		<g>
			<path class="st60" d="M329.3,197.6C329.3,197.6,329.3,197.5,329.3,197.6L329.3,197.6z"/>
			<path class="st54" d="M329.6,199.5c-0.3-0.6-0.3-1.3-0.3-1.9c0-1,0.3-1.9,0.6-2.8c7.3,4.2,14.5,8.1,21.8,12.3
				c-1.1,1.3-2.7,3.1-4.5,3c-0.9-0.1-1.5-0.6-2.2-1c-0.9-0.5-1.8-1.1-2.8-1.6c-1.9-1.1-3.7-2.1-5.6-3.2c-1.8-1.1-3.7-2.1-5.6-3.2
				C330.4,200.6,329.9,200.2,329.6,199.5z"/>
		</g>
		<path class="st61" d="M344.8,206.6c0-1.6,0.6-3.1,1.4-4.5c0.8-1.4,2-2.7,3.4-3.5c1-0.5,2.2-0.8,3.2-0.2c0.5,0.3,0.9,0.6,1.4,0.8
			c0.4,0.2,0.8,0.4,1.1,0.8c0.8,1,0.8,2.4,0.6,3.6c-0.2,1.3-0.7,2.6-1.4,3.7c-0.7,1.1-1.6,2.1-2.6,2.9c-1.1,0.7-2.6,1.4-3.9,0.6
			c-0.6-0.3-1.3-0.7-1.9-1.1C345.1,209.1,344.8,207.8,344.8,206.6C344.8,206.5,344.8,206.6,344.8,206.6z"/>
		<g>
			<path class="st62" d="M344.8,206.6C344.8,206.6,344.8,206.5,344.8,206.6L344.8,206.6z"/>
			<path class="st61" d="M351.9,210.2c-1.1,0.7-2.6,1.4-3.9,0.6c-0.6-0.3-1.3-0.7-1.9-1.1c-1.1-0.6-1.4-2-1.4-3.2c0-1,0.3-2.1,0.7-3
				l8.3,4.8C353.3,209.1,352.7,209.7,351.9,210.2z"/>
		</g>
		<path class="st37" d="M346.8,207.7c0-1.3,0.5-2.6,1-3.8c0.7-1.3,1.7-2.8,3-3.6c0.8-0.7,2.3-1.3,3.5-1c0.3,0.1,0.5,0.2,0.7,0.3
			c0.7,0.4,1.5,0.9,2.2,1.3c3.2,1.8,6.4,3.7,9.6,5.5c4.3,2.5,8.6,5,12.9,7.5c4,2.3,8,4.7,12.1,7c2.3,1.4,4.7,2.7,7,4.1
			c0.2,0.1,0.3,0.2,0.5,0.3c1.1,0.6,1.4,2.1,1.4,3.3c-0.1,1.9-0.9,3.7-1.9,5.2c-1.1,1.5-2.7,3.1-4.6,3.2c-1.1,0-1.8-0.6-2.7-1.1
			c-1.1-0.6-2.2-1.3-3.3-1.9c-2.2-1.3-4.4-2.6-6.6-3.9c-4.4-2.6-8.8-5.1-13.3-7.7c-4.2-2.4-8.3-4.8-12.5-7.2
			c-2.1-1.2-4.2-2.4-6.2-3.6c-0.8-0.5-1.7-0.9-2.2-1.8C346.8,209.1,346.7,208.4,346.8,207.7C346.8,207.6,346.8,207.7,346.8,207.7z"
			/>
		<g>
			<path class="st63" d="M346.8,207.7C346.8,207.7,346.8,207.6,346.8,207.7L346.8,207.7z"/>
			<path class="st59" d="M349.3,211.5c-0.8-0.5-1.7-0.9-2.2-1.8c-0.3-0.6-0.4-1.4-0.4-2.1c0-1,0.3-2.1,0.7-3.1
				c3.9,2.3,7.9,4.6,11.8,6.9c6.9,4,13.9,8.1,20.8,12.1c6.1,3.5,12.1,7.1,18.2,10.6c-1.1,1.4-2.6,2.8-4.4,2.8
				c-1.1,0-1.8-0.6-2.7-1.1c-1.1-0.6-2.2-1.3-3.3-1.9c-2.2-1.3-4.4-2.6-6.6-3.9c-4.4-2.6-8.8-5.1-13.3-7.7
				c-4.2-2.4-8.3-4.8-12.5-7.2C353.5,214,351.4,212.8,349.3,211.5z"/>
		</g>
		<g>
			<path class="st37" d="M396,225.1c-2.8,1.6-5.1,5.6-5.1,8.8c0,3.2,2.3,4.6,5.1,2.9c2.8-1.6,5.1-5.6,5.1-8.8
				C401.1,224.8,398.8,223.5,396,225.1z"/>
		</g>
		<path class="st5" d="M388.8,232.5c0.1-2.8,1.6-5.6,3.6-7.5c0.9-0.8,2-1.6,3.3-1.8c1.5-0.2,2.7,0.8,4,1.5c-1.1-0.7-2.6-0.3-3.6,0.4
			c-1.5,0.9-2.6,2.2-3.5,3.6c-0.8,1.3-1.4,2.8-1.6,4.3c-0.2,1.5,0,3.4,1.4,4.2c-0.6-0.3-1.1-0.7-1.7-1c-0.5-0.3-1-0.6-1.3-1.1
			C388.9,234.4,388.8,233.4,388.8,232.5C388.8,232.4,388.8,232.6,388.8,232.5z"/>
		<g>
			<path class="st62" d="M388.8,232.5C388.8,232.6,388.8,232.4,388.8,232.5L388.8,232.5z"/>
			<path class="st54" d="M389.4,235.2c-0.5-0.8-0.6-1.7-0.6-2.7c0-1.2,0.3-2.3,0.8-3.4l2.1,1.2c-0.4,0.9-0.6,1.8-0.7,2.7
				c-0.2,1.5,0,3.4,1.4,4.2c-0.6-0.3-1.1-0.7-1.7-1C390.2,235.9,389.7,235.7,389.4,235.2z"/>
		</g>
		<g>
			<g class="st64">
				<g>
					<polygon class="st54" points="370.5,211.1 370.5,212 394.9,226.1 394.9,225.2 					"/>
				</g>
				<g>
					<polygon class="st65" points="394.9,226.1 397.7,224.5 397.7,223.6 394.9,225.2 					"/>
				</g>
				<g>
					<polygon class="st5" points="394.9,225.2 397.7,223.6 373.3,209.5 370.5,211.1 					"/>
				</g>
			</g>
		</g>
	</g>
	<g>
		<g>
			<g class="st64">
				<g>
					<path class="st6" d="M387.8,204.2l1.4,0.8c0.8,0.4,2.1,0.4,3-0.1l0,0l14.1-8l0,0c0.4-0.2,0.6-0.5,0.7-0.8c0,0,0-0.1,0-0.1
						c0,0,0-0.1,0-0.1c0,0,0-0.1,0-0.1c0,0,0-0.1,0-0.1c0,0,0-0.1,0-0.1c0,0,0-0.1,0-0.1c0,0,0-0.1,0-0.1c0,0,0-0.1,0-0.1
						c0,0,0-0.1,0-0.1c0,0,0-0.1,0-0.1c0,0,0-0.1,0-0.1c0,0,0-0.1,0-0.1c0,0,0-0.1,0-0.1c0,0,0-0.1,0-0.1c0,0,0-0.1,0-0.1
						c0,0,0-0.1,0-0.1c0,0,0-0.1,0-0.1c0,0,0-0.1,0-0.1c0,0,0-0.1,0-0.1c0,0,0-0.1,0-0.1c0,0,0-0.1,0-0.1c0,0,0-0.1,0-0.1
						c0,0,0-0.1,0-0.1c0,0,0-0.1,0-0.1c0,0,0-0.1,0-0.1c0,0,0-0.1,0-0.1c0.1-0.4,0-0.8-0.5-1.1l-1.4-0.8l-17.3,9.8L387.8,204.2z"/>
					<path class="st6" d="M407.7,198.9c0.1-0.2,0.1-0.4,0.1-0.6c0.1-0.2,0.1-0.4,0.1-0.6c0.1-0.2,0.1-0.4,0.1-0.6
						c0.1-0.2,0.1-0.4,0.1-0.6c0.1-0.2,0.1-0.4,0.1-0.6c0.1-0.2,0.1-0.4,0.1-0.6c0.1-0.2,0.1-0.4,0.1-0.6c0.4-1.1,0-2.2-1.1-3.1
						l-14.1,8c0.2,0.1-1.3,5.3-1.3,5.3c2.7,1.1,6.6,0.9,9.2-0.5l1.8-1l2.1-1.2c0.4-0.2,0.8-0.5,1.1-0.8c0.7-0.6,1-1.3,1.1-2
						C407.6,199.2,407.7,199.1,407.7,198.9z"/>
					<g>
						<path class="st66" d="M409.1,199.1c-0.2-0.1-0.5,0-0.7,0.1c0,0-0.1,0-0.1,0.1l-0.2,0.2l-0.1-0.1c0,0,0,0,0-0.1
							c0,0,0-0.1,0-0.1c0,0,0-0.1,0-0.1c0,0,0-0.1,0-0.1c0,0,0-0.1,0-0.1c0,0,0-0.1,0-0.1c0,0,0-0.1,0-0.1c0,0,0-0.1,0-0.1
							c0,0,0-0.1,0-0.1c0-0.1-0.1-0.3-0.3-0.3c-0.2-0.1-0.5,0-0.7,0.1c0,0-0.1,0-0.1,0.1l-0.2,0.2l-0.1-0.1c0,0,0,0,0-0.1
							c0,0,0-0.1,0-0.1c0,0,0-0.1,0-0.1c0,0,0-0.1,0-0.1c0,0,0-0.1,0-0.1c0,0,0-0.1,0-0.1c0,0,0-0.1,0-0.1c0,0,0-0.1,0-0.1
							c0,0,0-0.1,0-0.1c0,0,0-0.1,0-0.1c-0.3,0.3-0.7,0.3-1.1,0.6l-2.1,1.4l-2.3,1.3l0.1,0l-0.1,0l0.1,0l-0.1,0l0.1,0l-0.1,0l0.1,0
							l-0.1,0l0.1,0l-0.1,0l0.1,0l-0.1,0l0.1,0l-0.1,0l0.1,0l-0.1,0l0.1,0l-0.1,0l0.1,0l-0.1,0l0.1,0l-0.1,0l0.1,0l-0.1,0l0.1,0
							l-0.1,0l0.1,0l-0.1,0l0.1,0l-0.1,0l0.1,0l-0.1,0l0.1,0l-0.1,0l0.1,0l-0.1,0l0.1,0l-0.1,0l0.1,0l-0.1,0l0.1,0l-0.1,0l0.1,0
							l-0.1,0l0.1,0l-0.1,0l0.1,0l-0.1,0l0.1,0l-0.1,0l0.1,0l-0.1,0l0.1,0l-0.1,0l0.1,0l-0.1,0l0.1,0l-0.1,0l0.1,0l-0.1,0l0.1,0
							l-0.1,0l0.1,0l-0.1,0l0.1,0l-0.1,0l0.1,0l-0.1,0l0.1,0l-0.1,0l0.1,0l-0.1,0l0.1,0l-0.1,0l0.1,0l-0.1,0l0.1,0l-0.1,0l0.1,0
							l-0.1,0l0.1,0l-0.1,0l0.1,0l-0.1,0l0.1,0l-0.1,0l0.1,0.1c0,0,0,0,0,0.1c0,0,0,0.1,0,0.1c0,0,0,0.1,0,0.1c0,0,0,0.1,0,0.1
							c0,0,0,0.1,0,0.1c0,0,0,0.1,0,0.1c0,0,0,0.1,0,0.1c0,0,0,0.1,0,0.1c0,0,0,0.1,0,0.1c0,0.1,0.1,0.3,0.3,0.3
							c0.2,0.1,0.5,0,0.7-0.1c0,0,0.1,0,0.1-0.1l0.2-0.2l0.1,0.1c0,0,0,0,0,0.1c0,0,0,0.1,0,0.1c0,0,0,0.1,0,0.1c0,0,0,0.1,0,0.1
							c0,0,0,0.1,0,0.1c0,0,0,0.1,0,0.1c0,0,0,0.1,0,0.1c0,0,0,0.1,0,0.1c0,0,0,0.1,0,0.1c0,0.1,0.1,0.3,0.3,0.3c0.1,0,0.2,0,0.3,0
							l0.7-0.4l2.4-1.3l3.1-1.8c0,0,0-0.1,0-0.1c0,0,0-0.1,0-0.1c0,0,0-0.1,0-0.1c0,0,0-0.1,0-0.1c0,0,0-0.1,0-0.1c0,0,0-0.1,0-0.1
							c0,0,0-0.1,0-0.1c0,0,0-0.1,0-0.1c0,0,0-0.1,0-0.1c0,0,0-0.1,0-0.1c0,0,0-0.1,0-0.1c0,0,0-0.1,0-0.1c0,0,0-0.1,0-0.1
							c0,0,0-0.1,0-0.1c0,0,0-0.1,0-0.1c0,0,0-0.1,0-0.1c0,0,0-0.1,0-0.1c0,0,0-0.1,0-0.1c0,0,0-0.1,0-0.1c0,0,0-0.1,0-0.1
							c0,0,0-0.1,0-0.1c0,0,0-0.1,0-0.1c0,0,0-0.1,0-0.1c0,0,0-0.1,0-0.1c0,0,0-0.1,0-0.1c0,0,0-0.1,0-0.1c0,0,0-0.1,0-0.1
							c0,0,0-0.1,0-0.1c0,0,0-0.1,0-0.1c0,0,0-0.1,0-0.1c0,0,0-0.1,0-0.1c0,0,0-0.1,0-0.1c0,0,0-0.1,0-0.1c0,0,0-0.1,0-0.1
							c0,0,0-0.1,0-0.1c0,0,0-0.1,0-0.1c0,0,0-0.1,0-0.1c0,0,0-0.1,0-0.1c0,0,0-0.1,0-0.1c0,0,0-0.1,0-0.1c0,0,0-0.1,0-0.1
							c0,0,0-0.1,0-0.1c0,0,0-0.1,0-0.1C409.3,199.3,409.3,199.2,409.1,199.1z"/>
					</g>
					<path class="st10" d="M440.4,197.2c0-0.1,0-0.1,0-0.2c0-0.1,0-0.1,0-0.2c0-0.1,0-0.1,0-0.2c0-0.1,0-0.1,0-0.2
						c0-0.1,0-0.1,0-0.2c0-0.1,0-0.1,0-0.2c0-0.1,0-0.1,0-0.2c0-0.1,0-0.1,0-0.2c0-0.1,0-0.1,0-0.2c0-0.1,0-0.1,0-0.2
						c0-0.1,0-0.1,0-0.2c0-0.1,0-0.1,0-0.2c0-0.1,0-0.1,0-0.2c0-0.1,0-0.1,0-0.2c0-0.1,0-0.1,0-0.2c0-0.1,0-0.1,0-0.2
						c0-0.1,0-0.1,0-0.2c0-0.1,0-0.1,0-0.2c0-0.1,0-0.1,0-0.2c0-0.1,0-0.1,0-0.2c0-0.1,0-0.1,0-0.2c0-0.1,0-0.1,0-0.2
						c0-0.1,0-0.1,0-0.2c0-0.1,0-0.1,0-0.2c0-0.1,0-0.1,0-0.2c0-0.1,0-0.1,0-0.2c0-0.1,0-0.1,0-0.2c0-0.1,0-0.1,0-0.2
						c0-0.1,0-0.1,0-0.2c0-0.1,0-0.1,0-0.2c0-0.1,0-0.1,0-0.2c0-0.1,0-0.1,0-0.2c0-0.1,0-0.1,0-0.2c0-0.1,0-0.1,0-0.2
						c0-0.1,0-0.1,0-0.2c0-0.1,0-0.1,0-0.2c0-0.1,0-0.1,0-0.2c0-0.1,0-0.1,0-0.2c0.7-4.6-1.8-9.2-7.7-12.5l-24.9-14.3l-6-3.4
						c-11-6.3-29.7-5.9-41.7,0.9l-11.4,6.5c-1,0.6-1.5,1.3-1.5,2c0,0.1,0,0.1,0,0.2c0,0.1,0,0.1,0,0.2c0,0.1,0,0.1,0,0.2
						c0,0.1,0,0.1,0,0.2c0,0.1,0,0.1,0,0.2c0,0.1,0,0.1,0,0.2c0,0.1,0,0.1,0,0.2c0,0.1,0,0.1,0,0.2c0,0.1,0,0.1,0,0.2
						c0,0.1,0,0.1,0,0.2c0,0.1,0,0.1,0,0.2c0,0.1,0,0.1,0,0.2c0,0.1,0,0.1,0,0.2c0,0.1,0,0.1,0,0.2c0,0.1,0,0.1,0,0.2
						c0,0.1,0,0.1,0,0.2c0,0.1,0,0.1,0,0.2c0,0.1,0,0.1,0,0.2c0,0.1,0,0.1,0,0.2c0,0.1,0,0.1,0,0.2c0,0.1,0,0.1,0,0.2
						c0,0.1,0,0.1,0,0.2c0,0.1,0,0.1,0,0.2c0,0.1,0,0.1,0,0.2c0,0.1,0,0.1,0,0.2c0,0.1,0,0.1,0,0.2c0,0.1,0,0.1,0,0.2
						c0,0.1,0,0.1,0,0.2c0,0.1,0,0.1,0,0.2c0,0.1,0,0.1,0,0.2c0,0.1,0,0.1,0,0.2c0,0.1,0,0.1,0,0.2c0,0.1,0,0.1,0,0.2
						c0,0.1,0,0.1,0,0.2c0,0.1,0,0.1,0,0.2c0,0.1,0,0.1,0,0.2c0,0.1,0,0.1,0,0.2c0,0.1,0,0.1,0,0.2c0,0.1,0,0.1,0,0.2
						c-0.1,0.7,0.3,1.5,1.2,2l19.2,11l11.7-6.7l-0.1-0.1l0.1-0.1l-0.1-0.1l0.1-0.1l-0.1-0.1l0.1-0.1l-0.1-0.1l0.1-0.1l-0.1-0.1
						l0.1-0.1l-0.1-0.1l0.1-0.1l-0.1-0.1l0.1-0.1l-0.1-0.1l0.1-0.1l-0.1-0.1l0.1-0.1l-0.1-0.1l0.1-0.1l-0.1-0.1l0.1-0.1l-0.1-0.1
						l0.1-0.1l-0.1-0.1l0.1-0.1l-0.1-0.1l0.1-0.1l-0.1-0.1l0.1-0.1l-0.1-0.1l0.1-0.1l-0.1-0.1l0.1-0.1l-0.1-0.1l0.1-0.1l-0.1-0.1
						l0.1-0.1l-0.1-0.1l0.1-0.1l-0.1-0.1l0.1-0.1l-0.1-0.1l0.1-0.1l-0.1-0.1l0.1-0.1l-0.1-0.1l0.1-0.1l-0.1-0.1l0.1-0.1l-0.1-0.1
						l0.1-0.1l-0.1-0.1l0.1-0.1l-0.1-0.1l0.1-0.1l-0.1-0.1l0.1-0.1l-0.1-0.1l0.1-0.1l-0.1-0.1l0.1-0.1l-0.1-0.1l0.1-0.1l-0.1-0.1
						l0.1-0.1l-0.1-0.1l0.1-0.1l-0.1-0.1l0.1-0.1l-0.1-0.1l0.1-0.1l-0.1-0.1l0.1-0.1l-0.1-0.1l0.1-0.1l-0.1-0.1l0.1-0.1l-0.1-0.1
						l0.1-0.1l-3.9-2.2c3.9-1.1,8.6-0.7,11.5,1l30.9,17.7c0.6,0.3,1.1,0.7,1.5,1.1c-0.4,0.3-0.8,0.6-1.4,0.9l-3.2,1.8l0.1,0.1
						l-0.1,0.1l0.1,0.1l-0.1,0.1l0.1,0.1l-0.1,0.1l0.1,0.1l-0.1,0.1l0.1,0.1l-0.1,0.1l0.1,0.1l-0.1,0.1l0.1,0.1l-0.1,0.1l0.1,0.1
						l-0.1,0.1l0.1,0.1l-0.1,0.1l0.1,0.1l-0.1,0.1l0.1,0.1l-0.1,0.1l0.1,0.1l-0.1,0.1l0.1,0.1l-0.1,0.1l0.1,0.1l-0.1,0.1l0.1,0.1
						l-0.1,0.1l0.1,0.1l-0.1,0.1l0.1,0.1l-0.1,0.1l0.1,0.1l-0.1,0.1l0.1,0.1l-0.1,0.1l0.1,0.1l-0.1,0.1l0.1,0.1l-0.1,0.1l0.1,0.1
						l-0.1,0.1l0.1,0.1l-0.1,0.1l0.1,0.1l-0.1,0.1l0.1,0.1l-0.1,0.1l0.1,0.1l-0.1,0.1l0.1,0.1l-0.1,0.1l0.1,0.1l-0.1,0.1l0.1,0.1
						l-0.1,0.1l0.1,0.1l-0.1,0.1l0.1,0.1l-0.1,0.1l0.1,0.1l-0.1,0.1l0.1,0.1l-0.1,0.1l0.1,0.1l-0.1,0.1l0.1,0.1l-0.1,0.1l0.1,0.1
						l-0.1,0.1l0.1,0.1l-0.1,0.1l0.1,0.1l-0.1,0.1l0.1,0.1l-0.1,0.1l0.1,0.1l-0.1,0.1l12.9,7.4l3.2-1.8c5.7-3.2,8.8-7.3,9.4-11.4
						C440.4,197.3,440.4,197.2,440.4,197.2z"/>
					<path class="st17" d="M430.9,206.8c0.3-0.5,0.2-1-0.4-1.3l-1.4-0.8l-12.9-7.4l-1.4-0.8c-0.8-0.5-2.2-0.4-3.1,0.1l-1.2,0.7
						l-3.1,1.8l-2.4,1.3l-0.7,0.4l-1.1,0.6c-0.5,0.3-0.8,0.7-0.7,1.1c-0.2,0.2-0.2,0.4-0.1,0.7c-0.2,0.2-0.2,0.4-0.1,0.7
						c-0.2,0.2-0.2,0.4-0.1,0.7c-0.2,0.2-0.2,0.4-0.1,0.7c-0.2,0.2-0.2,0.4-0.1,0.7c-0.2,0.2-0.2,0.4-0.1,0.7
						c-0.2,0.2-0.2,0.4-0.1,0.7c-0.2,0.2-0.2,0.4-0.1,0.7c-0.3,0.5-0.2,1,0.4,1.3l15.7,9c0.8,0.5,2.2,0.4,3.1-0.1l1.3-0.8l3.2-1.8
						l2.1-1.2l0.2-0.1l0.4-0.2l1.2-0.7c0.5-0.3,0.8-0.7,0.7-1.1c0.2-0.2,0.2-0.4,0.1-0.7c0.2-0.2,0.2-0.4,0.1-0.7
						c0.2-0.2,0.2-0.4,0.1-0.7c0.2-0.2,0.2-0.4,0.1-0.7c0.2-0.2,0.2-0.4,0.1-0.7c0.2-0.2,0.2-0.4,0.1-0.7c0.2-0.2,0.2-0.4,0.1-0.7
						C430.9,207.2,430.9,207,430.9,206.8z"/>
					<path class="st17" d="M386.8,177.5"/>
					<path class="st17" d="M386.8,177.7"/>
					<path class="st17" d="M386.8,178"/>
					<path class="st17" d="M386.8,178.2"/>
					<path class="st17" d="M386.8,178.4"/>
					<path class="st17" d="M386.8,178.7"/>
					<path class="st17" d="M386.8,178.9"/>
					<path class="st17" d="M386.8,179.2"/>
					<path class="st17" d="M386.8,179.4"/>
					<path class="st17" d="M386.8,179.7"/>
					<path class="st17" d="M386.7,179.9"/>
					<path class="st17" d="M386.7,180.2"/>
					<path class="st17" d="M386.7,180.4"/>
					<path class="st17" d="M386.7,180.6"/>
					<path class="st17" d="M386.7,180.9"/>
					<path class="st17" d="M386.7,181.1"/>
					<path class="st17" d="M386.7,181.4"/>
					<path class="st17" d="M386.7,181.6"/>
					<path class="st17" d="M386.7,181.9"/>
					<path class="st17" d="M386.7,182.1"/>
					<path class="st17" d="M386.7,182.3"/>
					<path class="st17" d="M386.7,182.6"/>
					<path class="st17" d="M386.7,182.8"/>
					<path class="st17" d="M386.6,183.1"/>
					<path class="st17" d="M386.6,183.3"/>
					<path class="st17" d="M386.6,183.6"/>
					<path class="st17" d="M386.8,177.2l-2.2-1.3c-1.2-0.7-3.3-0.7-4.7,0.1l-0.4,0.2l-11.7,6.7l-0.4,0.2c-0.7,0.4-1.1,1-1.1,1.5
						c0,0.1,0,0.2,0,0.2c0,0.1,0,0.2,0,0.2c0,0.1,0,0.2,0,0.2c0,0.1,0,0.2,0,0.2c0,0.1,0,0.2,0,0.2c0,0.1,0,0.2,0,0.2
						c0,0.1,0,0.2,0,0.2c0,0.1,0,0.2,0,0.2c0,0.1,0,0.2,0,0.2c0,0.1,0,0.2,0,0.2c0,0.1,0,0.2,0,0.2c0,0.1,0,0.2,0,0.2
						c0,0.1,0,0.2,0,0.2c0,0.1,0,0.2,0,0.2c0,0.1,0,0.2,0,0.2c0,0.1,0,0.2,0,0.2c0,0.1,0,0.2,0,0.2c0,0.1,0,0.2,0,0.2
						c0,0.1,0,0.2,0,0.2c0,0.1,0,0.2,0,0.2c0,0.1,0,0.2,0,0.2c0,0.1,0,0.2,0,0.2c0,0.1,0,0.2,0,0.2c0,0.1,0,0.2,0,0.2
						c0,0.1,0,0.2,0,0.2c0,0.1,0,0.2,0,0.2c-0.1,0.5,0.2,1,0.9,1.4l2.2,1.3l17.3-9.8"/>
				</g>
			</g>
			<path class="st66" d="M434.8,213.5c0-0.1-0.1-0.3-0.3-0.3c-0.2-0.1-0.5,0-0.7,0.1c0,0-0.1,0-0.1,0.1l-0.2,0.2l-0.1-0.1
				c0,0,0,0,0-0.1c0,0,0-0.1,0-0.1c0,0,0-0.1,0-0.1c0,0,0-0.1,0-0.1c0,0,0-0.1,0-0.1c0,0,0-0.1,0-0.1c0,0,0-0.1,0-0.1
				c0,0,0-0.1,0-0.1c0,0,0-0.1,0-0.1c0-0.1-0.1-0.3-0.3-0.3c-0.2-0.1-0.5,0-0.7,0.1c0,0-0.1,0-0.1,0.1l-0.2,0.2l-0.1-0.1
				c0,0,0,0,0-0.1c0,0,0-0.1,0-0.1c0,0,0-0.1,0-0.1c0,0,0-0.1,0-0.1c0,0,0-0.1,0-0.1c0,0,0-0.1,0-0.1c0,0,0-0.1,0-0.1
				c0,0,0-0.1,0-0.1c0,0,0-0.1,0-0.1c0-0.1-0.1-0.3-0.3-0.3c-0.2-0.1-0.5,0-0.7,0.1c0,0-0.1,0-0.1,0.1l-0.2,0.2l-0.1-0.1
				c0,0,0,0,0-0.1c0,0,0-0.1,0-0.1c0,0,0-0.1,0-0.1c0,0,0-0.1,0-0.1c0,0,0-0.1,0-0.1c0,0,0-0.1,0-0.1c0,0,0-0.1,0-0.1
				c0,0,0-0.1,0-0.1c0,0,0-0.1,0-0.1c0-0.1-0.1-0.3-0.3-0.3c-0.2-0.1-0.5,0-0.7,0.1c0,0-0.1,0-0.1,0.1l-0.2,0.2l-0.1-0.1
				c0,0,0,0,0-0.1c0,0,0-0.1,0-0.1c0,0,0-0.1,0-0.1c0,0,0-0.1,0-0.1c0,0,0-0.1,0-0.1c0,0,0-0.1,0-0.1c0,0,0-0.1,0-0.1
				c0,0,0-0.1,0-0.1c0,0,0-0.1,0-0.1c0-0.1-0.1-0.3-0.3-0.3c-0.2-0.1-0.5,0-0.7,0.1c0,0-0.1,0-0.1,0.1l-0.2,0.2l-0.1-0.1
				c0,0,0,0,0-0.1c0,0,0-0.1,0-0.1c0,0,0-0.1,0-0.1c0,0,0-0.1,0-0.1c0,0,0-0.1,0-0.1c0,0,0-0.1,0-0.1c0,0,0-0.1,0-0.1
				c0,0,0-0.1,0-0.1c0,0,0-0.1,0-0.1c0-0.1-0.1-0.3-0.3-0.3c-0.2,0-0.3,0-0.5,0l-0.4,0.2l-0.2,0.2l-0.1,0l-2.1,1.2l-3.2,1.8l0,0
				c-0.1,0.1-0.1,0.1-0.1,0.2c0,0,0,0.1,0,0.1c0,0,0,0.1,0,0.1c0,0,0,0.1,0,0.1c0,0,0,0.1,0,0.1c0,0,0,0.1,0,0.1c0,0,0,0.1,0,0.1
				c0,0,0,0.1,0,0.1c0,0,0,0.1,0,0.1c0,0,0,0.1,0,0.1c0,0,0,0.1,0,0.1c0,0,0,0.1,0,0.1c0,0,0,0.1,0,0.1c0,0,0,0.1,0,0.1
				c0,0,0,0.1,0,0.1c0,0,0,0.1,0,0.1c0,0,0,0.1,0,0.1c0,0,0,0.1,0,0.1c0,0,0,0.1,0,0.1c0,0,0,0.1,0,0.1c0,0,0,0.1,0,0.1
				c0,0,0,0.1,0,0.1c0,0,0,0.1,0,0.1c0,0,0,0.1,0,0.1c0,0,0,0.1,0,0.1c0,0,0,0.1,0,0.1c0,0,0,0.1,0,0.1c0,0,0,0.1,0,0.1
				c0,0,0,0.1,0,0.1c0,0,0,0.1,0,0.1c0,0,0,0.1,0,0.1c0,0,0,0.1,0,0.1c0,0,0,0.1,0,0.1c0,0,0,0.1,0,0.1c0,0,0,0.1,0,0.1
				c0,0,0,0.1,0,0.1c0,0,0,0.1,0,0.1c0,0,0,0.1,0,0.1c0,0,0,0.1,0,0.1c0,0,0,0.1,0,0.1c0,0,0,0.1,0,0.1c0,0,0,0.1,0,0.1
				c0,0,0,0.1,0,0.1c0,0.1,0.1,0.3,0.3,0.3c0.2,0.1,0.5,0,0.7-0.1c0,0,0.1,0,0.1-0.1l0.2-0.2l0.1,0.1c0,0,0,0,0,0.1c0,0,0,0.1,0,0.1
				c0,0,0,0.1,0,0.1c0,0,0,0.1,0,0.1c0,0,0,0.1,0,0.1c0,0,0,0.1,0,0.1c0,0,0,0.1,0,0.1c0,0,0,0.1,0,0.1c0,0,0,0.1,0,0.1
				c0,0.1,0.1,0.3,0.3,0.3c0.2,0.1,0.5,0,0.7-0.1c0,0,0.1,0,0.1-0.1l0.2-0.2l0.1,0.1c0,0,0,0,0,0.1c0,0,0,0.1,0,0.1c0,0,0,0.1,0,0.1
				c0,0,0,0.1,0,0.1c0,0,0,0.1,0,0.1c0,0,0,0.1,0,0.1c0,0,0,0.1,0,0.1c0,0,0,0.1,0,0.1c0,0,0,0.1,0,0.1c0,0.1,0.1,0.3,0.3,0.3
				c0.2,0.1,0.5,0,0.7-0.1c0,0,0.1,0,0.1-0.1l0.2-0.2l0.1,0.1c0,0,0,0,0,0.1c0,0,0,0.1,0,0.1c0,0,0,0.1,0,0.1c0,0,0,0.1,0,0.1
				c0,0,0,0.1,0,0.1c0,0,0,0.1,0,0.1c0,0,0,0.1,0,0.1c0,0,0,0.1,0,0.1c0,0,0,0.1,0,0.1c0,0.1,0.1,0.3,0.3,0.3c0.2,0.1,0.5,0,0.7-0.1
				c0,0,0.1,0,0.1-0.1l0.2-0.2l0.1,0.1c0,0,0,0,0,0.1c0,0,0,0.1,0,0.1c0,0,0,0.1,0,0.1c0,0,0,0.1,0,0.1c0,0,0,0.1,0,0.1
				c0,0,0,0.1,0,0.1c0,0,0,0.1,0,0.1c0,0,0,0.1,0,0.1c0,0,0,0.1,0,0.1c0,0.1,0.1,0.3,0.3,0.3c0.2,0.1,0.5,0,0.7-0.1
				c0,0,0.1,0,0.1-0.1l0.2-0.2l0.1,0.1c0,0,0,0,0,0.1c0,0,0,0.1,0,0.1c0,0,0,0.1,0,0.1c0,0,0,0.1,0,0.1c0,0,0,0.1,0,0.1
				c0,0,0,0.1,0,0.1c0,0,0,0.1,0,0.1c0,0,0,0.1,0,0.1c0,0,0,0.1,0,0.1c0,0.1,0.1,0.3,0.3,0.3c0.2,0.1,0.5,0,0.7-0.1
				c0,0,0.1,0,0.1-0.1l0.2-0.2l0.4,0.2l0.7-0.4l3.2-1.8l0.9-0.5l-0.1,0l0.1,0l-0.1,0l0.1,0l-0.1,0l0.1,0l-0.1,0l0,0l0,0l0,0l0.2-0.2
				c0.1-0.1,0.1-0.1,0.1-0.2c0,0,0-0.1,0-0.1c0,0,0-0.1,0-0.1c0,0,0-0.1,0-0.1c0,0,0-0.1,0-0.1c0,0,0-0.1,0-0.1c0,0,0-0.1,0-0.1
				c0,0,0-0.1,0-0.1c0,0,0-0.1,0-0.1c0,0,0-0.1,0-0.1c0,0,0-0.1,0-0.1c0,0,0-0.1,0-0.1c0,0,0-0.1,0-0.1c0,0,0-0.1,0-0.1
				c0,0,0-0.1,0-0.1c0,0,0-0.1,0-0.1c0,0,0-0.1,0-0.1c0,0,0-0.1,0-0.1c0,0,0-0.1,0-0.1c0,0,0-0.1,0-0.1c0,0,0-0.1,0-0.1
				c0,0,0-0.1,0-0.1c0,0,0-0.1,0-0.1c0,0,0-0.1,0-0.1c0,0,0-0.1,0-0.1c0,0,0-0.1,0-0.1c0,0,0-0.1,0-0.1c0,0,0-0.1,0-0.1
				c0,0,0-0.1,0-0.1c0,0,0-0.1,0-0.1c0,0,0-0.1,0-0.1c0,0,0-0.1,0-0.1c0,0,0-0.1,0-0.1c0,0,0-0.1,0-0.1c0,0,0-0.1,0-0.1
				c0,0,0-0.1,0-0.1c0,0,0-0.1,0-0.1c0,0,0-0.1,0-0.1c0,0,0-0.1,0-0.1c0,0,0-0.1,0-0.1c0,0,0-0.1,0-0.1
				C434.8,213.6,434.8,213.6,434.8,213.5C434.8,213.5,434.8,213.5,434.8,213.5z"/>
		</g>
		<g>
			<path class="st1" d="M455.4,206.2c0.1-0.7-0.3-1.3-1.2-1.8c-1.7-0.9-4.4-0.9-6.2,0.1c-1,0.6-1.5,1.3-1.4,2c0,0.1,0,0.1,0,0.2
				c0,0.1,0,0.1,0,0.2c0,0.1,0,0.1,0,0.2c0,0.1,0,0.1,0,0.2l-11,6.3l0.2,0.1l-0.2,0.1l0.2,0.1l-0.2,0.1l0.2,0.1l-0.2,0.1l0.2,0.1
				l-0.2,0.1l0.2,0.1l-0.2,0.1l0.2,0.1l-0.2,0.1l0.2,0.1l-0.2,0.1l0.2,0.1l-0.2,0.1l0.2,0.1l-0.2,0.1l0.2,0.1l-0.2,0.1l0.2,0.1
				l-0.2,0.1l0.2,0.1l-0.2,0.1l0.2,0.1l-0.2,0.1l0.2,0.1l-0.2,0.1l0.2,0.1l-0.2,0.1l0.2,0.1l-0.2,0.1l0.2,0.1l-0.2,0.1l0.2,0.1
				l-0.2,0.1l0.2,0.1l-0.2,0.1l0.2,0.1l-0.2,0.1l0.2,0.1l-0.2,0.1l0.2,0.1l-0.2,0.1l0.2,0.1l-0.2,0.1l0.2,0.1l-0.2,0.1l0.2,0.1
				l-0.2,0.1l0.2,0.1l-0.2,0.1l0.2,0.1l-0.2,0.1l2.6,1.5l11.2-6.4c1.5,0.3,3.3,0.1,4.6-0.7c1-0.6,1.4-1.3,1.4-2c0-0.1,0-0.1,0-0.2
				c0-0.1,0-0.1,0-0.2c0-0.1,0-0.1,0-0.2c0-0.1,0-0.1,0-0.2c0-0.1,0-0.1,0-0.2c0-0.1,0-0.1,0-0.2c0-0.1,0-0.1,0-0.2
				c0-0.1,0-0.1,0-0.2c0-0.1,0-0.1,0-0.2c0-0.1,0-0.1,0-0.2c0-0.1,0-0.1,0-0.2c0-0.1,0-0.1,0-0.2c0-0.1,0-0.1,0-0.2
				c0-0.1,0-0.1,0-0.2c0-0.1,0-0.1,0-0.2c0-0.1,0-0.1,0-0.2c0-0.1,0-0.1,0-0.2c0-0.1,0-0.1,0-0.2c0-0.1,0-0.1,0-0.2
				c0-0.1,0-0.1,0-0.2c0-0.1,0-0.1,0-0.2c0-0.1,0-0.1,0-0.2c0-0.1,0-0.1,0-0.2c0-0.1,0-0.1,0-0.2c0-0.1,0-0.1,0-0.2
				C455.4,206.3,455.4,206.3,455.4,206.2z"/>
		</g>
		<polygon class="st6" points="440.2,216.1 440.3,216 438.6,215 436.1,213.5 434.3,212.5 433.1,213.2 432.2,213.7 429,215.6 
			428.3,216 427.1,216.7 427.2,216.8 427.1,216.9 427.2,216.9 427,217.1 427.2,217.1 427,217.2 427.2,217.3 427,217.4 427.1,217.5 
			427,217.6 427.1,217.7 426.9,217.8 427.1,217.9 426.9,218 427.1,218.1 426.9,218.2 427.1,218.3 426.9,218.4 427,218.5 
			426.9,218.6 427,218.7 426.8,218.8 427,218.9 426.8,219 427,219.1 426.8,219.2 427,219.3 426.8,219.4 426.9,219.5 426.8,219.6 
			426.9,219.7 426.7,219.8 426.9,219.9 426.7,220 426.9,220.1 426.7,220.2 426.9,220.2 426.7,220.4 426.8,220.4 426.7,220.5 
			426.8,220.6 426.6,220.7 426.8,220.8 426.6,220.9 426.8,221 426.6,221.1 426.8,221.2 426.6,221.3 426.7,221.4 426.5,221.5 
			426.7,221.6 426.5,221.7 426.7,221.8 426.5,221.9 426.7,222 426.5,222.1 428.2,223.1 430.8,224.6 432.5,225.5 439.7,221.4 
			439.6,221.3 439.8,221.2 439.6,221.1 439.8,221 439.6,220.9 439.8,220.8 439.7,220.7 439.8,220.6 439.7,220.5 439.9,220.4 
			439.7,220.3 439.9,220.2 439.7,220.1 439.9,220 439.7,219.9 439.9,219.8 439.8,219.8 439.9,219.6 439.8,219.6 440,219.5 
			439.8,219.4 440,219.3 439.8,219.2 440,219.1 439.8,219 440,218.9 439.9,218.8 440,218.7 439.9,218.6 440.1,218.5 439.9,218.4 
			440.1,218.3 439.9,218.2 440.1,218.1 439.9,218 440.1,217.9 440,217.8 440.1,217.7 440,217.6 440.2,217.5 440,217.4 440.2,217.3 
			440,217.2 440.2,217.1 440,217 440.2,216.9 440.1,216.8 440.2,216.7 440.1,216.6 440.3,216.5 440.1,216.5 440.3,216.3 
			440.1,216.3 440.3,216.2 		"/>
		<path class="st1" d="M429.3,217.7l-11.4,6.5c-1.5-0.3-3.3-0.1-4.6,0.7c-1,0.6-1.4,1.3-1.4,2c0,0.1,0,0.1,0,0.2c0,0.1,0,0.1,0,0.2
			c0,0.1,0,0.1,0,0.2c0,0.1,0,0.1,0,0.2c0,0.1,0,0.1,0,0.2c0,0.1,0,0.1,0,0.2c0,0.1,0,0.1,0,0.2c0,0.1,0,0.1,0,0.2
			c0,0.1,0,0.1,0,0.2c0,0.1,0,0.1,0,0.2c0,0.1,0,0.1,0,0.2c0,0.1,0,0.1,0,0.2c0,0.1,0,0.1,0,0.2c0,0.1,0,0.1,0,0.2
			c0,0.1,0,0.1,0,0.2c0,0.1,0,0.1,0,0.2c0,0.1,0,0.1,0,0.2c0,0.1,0,0.1,0,0.2c0,0.1,0,0.1,0,0.2c0,0.1,0,0.1,0,0.2
			c0,0.1,0,0.1,0,0.2c0,0.1,0,0.1,0,0.2c0,0.1,0,0.1,0,0.2c0,0.1,0,0.1,0,0.2c0,0.1,0,0.1,0,0.2c0,0.1,0,0.1,0,0.2
			c-0.1,0.7,0.3,1.3,1.2,1.8c1.7,0.9,4.4,0.9,6.2-0.1c1-0.6,1.5-1.3,1.4-2c0-0.1,0-0.1,0-0.2c0-0.1,0-0.1,0-0.2c0-0.1,0-0.1,0-0.2
			c0-0.1,0-0.1,0-0.2l11.2-6.4l-0.2-0.1l0.2-0.1l-0.2-0.1l0.2-0.1l-0.2-0.1l0.2-0.1l-0.2-0.1l0.2-0.1l-0.2-0.1l0.2-0.1l-0.2-0.1
			l0.2-0.1l-0.2-0.1l0.2-0.1l-0.2-0.1l0.2-0.1l-0.2-0.1l0.2-0.1l-0.2-0.1l0.2-0.1l-0.2-0.1l0.2-0.1l-0.2-0.1l0.2-0.1l-0.2-0.1
			l0.2-0.1l-0.2-0.1l0.2-0.1l-0.2-0.1l0.2-0.1l-0.2-0.1l0.2-0.1l-0.2-0.1l0.2-0.1l-0.2-0.1l0.2-0.1l-0.2-0.1l0.2-0.1l-0.2-0.1
			l0.2-0.1l-0.2-0.1l0.2-0.1l-0.2-0.1l0.2-0.1l-0.2-0.1l0.2-0.1l-0.2-0.1l0.2-0.1l-0.2-0.1l0.2-0.1l-0.2-0.1l0.2-0.1l-0.2-0.1
			l0.2-0.1L429.3,217.7z"/>
	</g>
	<g>
		<g class="st64">
			<g>
				<path class="st17" d="M408,191.9l-14.8,9.4c2.7,1.3,7.1,0.3,9.7-1.2c0,0,0,0,0,0l1.7-1.1l2.1-1.3c0.4-0.3,0.5-0.4,0.8-0.8
					C408.9,195.3,409.7,193.3,408,191.9"/>
				<path class="st18" d="M406.1,190.6l-17.3,9.9l1.4,0.8c0.8,0.5,2.1,0.4,2.9,0c0,0,0,0,0,0l0,0l13.4-8.1l0,0
					c0.8-0.5,1.7-1.3,1-1.7l-1-0.6"/>
				<path class="st10" d="M413.4,224.9C413.3,224.9,413.3,224.9,413.4,224.9c-1.7,1-1.8,2.6-0.1,3.6c1.6,1,4.3,0.9,6-0.1
					c0,0,0,0,0,0c1.2-0.7,1.6-1.8,1.1-2.7l10.8-6.5l-2.6-1.5l-10.8,6.5C416.3,224,414.6,224.2,413.4,224.9 M447.3,204.5
					C447.2,204.5,447.2,204.5,447.3,204.5c-1.3,0.8-1.6,1.8-1.1,2.7l-10.7,6.4l2.6,1.5l10.6-6.4c1.5,0.3,3.2,0.1,4.5-0.6
					c0,0,0,0,0,0c1.7-1,1.7-2.6,0.1-3.6C451.6,203.5,449,203.5,447.3,204.5"/>
				<polyline class="st1" points="435.3,212.5 434.1,213.2 433.3,213.7 430.2,215.6 429.5,216 428.4,216.7 430.1,217.7 432.6,219.2 
					434.3,220.2 441.2,216 439.5,215 437,213.5 435.3,212.5 				"/>
				<path class="st37" d="M361.1,160.5c-0.1,0-0.1,0.1-0.2,0.1l-11.5,7.7c-1.8,1.1-1.2,1.7,0.6,2.7l19.2,11.3l11.1-6.7l-9.5-5.6
					l3-1.8c0,0,0,0,0.1,0c4-2.4,10.4-2.4,14.2-0.2l30.8,18.1c3.9,2.3,3.8,6.1-0.2,8.5l-3,1.8l12.9,7.6l3-1.8
					c12.9-7.1,12.2-18.3,1.2-24.8l-25.5-13.9l-5.9-3.5C390.5,153.5,372.4,153.8,361.1,160.5"/>
				<path class="st18" d="M411.3,195.7C411.3,195.7,411.3,195.7,411.3,195.7l-1.1,0.7l-3,1.8l-2.2,1.3l-0.7,0.4l-1.1,0.6
					c-0.8,0.5-0.9,1.3,0,1.8l15.6,9.2c0.8,0.5,2.2,0.5,3,0c0,0,0,0,0,0l1.3-0.8l3.1-1.8l2-1.2l0.2-0.1l0.3-0.2l1.2-0.7
					c0.8-0.5,0.9-1.3,0-1.8l-1.4-0.8l-12.9-7.6l-1.4-0.8C413.5,195.2,412.1,195.2,411.3,195.7"/>
				<path class="st18" d="M380.6,175.4C380.6,175.4,380.6,175.4,380.6,175.4l-0.4,0.2l-11.2,6.6l-1.1,0.6c-0.8,0.3-2.3,1.4-1.1,2.1
					l2.7,2.1l17.2-9.9l-2.2-1.3C383.4,175.1,381.9,174.6,380.6,175.4"/>
			</g>
		</g>
	</g>
	<g>
		<path class="st12" d="M498.9,161.4c-11.3-6.6-29.6-6.7-41-0.2c-5.7,3.2-8.5,7.5-8.5,11.8l58,0.2
			C507.4,169,504.5,164.7,498.9,161.4z"/>
		<g>
			<g>
				<path class="st67" d="M454.8,229.8c12.9,7.5,33.9,7.6,46.9,0.2c6.5-3.7,9.8-8.6,9.8-13.5l0-37.7h0l0,50.3h0
					c0,4.9-3.3,9.8-9.8,13.5c-13,7.4-34,7.3-46.9-0.2c-6.5-3.8-9.7-8.7-9.7-13.6l0-12.5C445.2,221.2,448.4,226.1,454.8,229.8z"/>
				<path class="st68" d="M454.8,224.3c12.9,7.5,33.9,7.6,46.9,0.2c6.5-3.7,9.8-8.6,9.8-13.5l0-37.7h0l0,50.3h0
					c0,4.9-3.3,9.8-9.8,13.5c-13,7.4-34,7.3-46.9-0.2c-6.5-3.8-9.7-8.7-9.7-13.6l0-12.5C445.2,215.7,448.4,220.5,454.8,224.3z"/>
				<path class="st47" d="M445.2,185.1c0,0.1,0,0.1,0,0.2l0,25.6c0-0.1,0-0.1,0-0.2L445.2,185.1z"/>
				<path class="st12" d="M454.8,198.4c12.9,7.5,33.9,7.6,46.9,0.2c6.5-3.7,9.8-8.6,9.8-13.5l0-11.8l0,0l0,37.7
					c0,4.9-3.3,9.8-9.8,13.5c-13,7.4-34,7.3-46.9-0.2c-6.4-3.7-9.6-8.6-9.6-13.4l0-25.6C445.3,190,448.5,194.7,454.8,198.4z"/>
			</g>
			<path class="st69" d="M498.9,163.8c-11.3-6.6-29.6-6.7-41-0.2c-5.2,3-8,6.8-8.4,10.7c-0.6-4.7,2.2-9.5,8.4-13.1
				c11.3-6.5,29.7-6.4,41,0.2c6.2,3.6,8.9,8.4,8.3,13C506.7,170.6,504,166.8,498.9,163.8z"/>
		</g>
		<path class="st15" d="M454.9,186.6c-6.5-3.8-9.7-8.7-9.7-13.6h0l0,12.2c0.2,4.8,3.3,9.5,9.6,13.2c4,2.3,8.7,3.9,13.7,4.8v-11.8
			C463.5,190.5,458.8,188.9,454.9,186.6z"/>
		<path class="st15" d="M501.8,186.8c-1.8,1.1-3.8,1.9-6,2.7v10.8c0,0.3-0.1,0.7-0.1,1c2.1-0.8,4.2-1.7,6.1-2.7
			c6.5-3.7,9.8-8.6,9.8-13.5l0-11.1C511.2,178.7,507.9,183.3,501.8,186.8z"/>
		<path class="st47" d="M457.9,161.2c11.3-6.5,29.7-6.4,41,0.2c5.6,3.3,8.5,7.6,8.4,11.9l4.2,0l0,0.7c0.4-5.1-2.8-10.4-9.6-14.3
			c-12.9-7.5-33.9-7.6-46.9-0.2c-6.5,3.7-9.8,8.6-9.8,13.5l4.2,0C449.4,168.8,452.2,164.5,457.9,161.2z"/>
		<path class="st47" d="M454.9,186.6c3.9,2.3,8.6,3.9,13.6,4.8v-2.5c-3.9-0.8-7.6-2.1-10.7-4c-5.6-3.3-8.5-7.6-8.4-11.9l-4.2,0
			C445.2,177.9,448.4,182.8,454.9,186.6z"/>
		<path class="st47" d="M507.3,173.3c0,4.3-2.9,8.6-8.5,11.8c-0.9,0.5-1.9,1-3,1.5v2.9c2.1-0.8,4.1-1.6,6-2.7
			c6.2-3.5,9.4-8.1,9.7-12.8l0-0.7L507.3,173.3z"/>
		<path class="st7" d="M475.3,186.1h0.8h6h0.8h5.5v-1.8h7.5v2.3c1-0.5,2-0.9,3-1.5c5.7-3.2,8.5-7.5,8.5-11.8l-58-0.2
			c0,4.3,2.8,8.6,8.4,11.9c3.1,1.8,6.8,3.1,10.7,4v-2.8H475.3z"/>
		<path class="st47" d="M468.5,188.9v2.5c9,1.7,19.1,1,27.3-1.9v-2.9C487.9,190,477.5,190.8,468.5,188.9z"/>
		<path class="st7" d="M495.8,186.6v-2.3h-7.5v1.8h-5.5H482h-6h-0.8h-6.8v2.8C477.5,190.8,487.9,190,495.8,186.6z"/>
		<path class="st7" d="M468.5,203.2v2.8c0,2.1,1.7,3.8,3.8,3.8c2.1,0,3.8-1.7,3.8-3.8v-1.5c0.7,0.9,1.8,1.5,3,1.5h0
			c1.2,0,2.3-0.6,3-1.5v11c0,2,1.6,3.6,3.6,3.6h0.4c2,0,3.6-1.6,3.6-3.6v-12.2c0.7,0.6,1.5,0.9,2.4,0.9c1.7,0,3.2-1.2,3.6-2.8
			C487.4,204.2,477.5,204.9,468.5,203.2z"/>
		<path class="st7" d="M495.8,189.5c-8.3,2.9-18.3,3.6-27.3,1.9v11.8c9,1.6,19,1,27.2-1.9c0.1-0.3,0.1-0.7,0.1-1V189.5z"/>
	</g>
	<g>
		<g>
			<g>
				<polygon class="st7" points="513.1,162.7 513.1,165.1 525.7,157.8 525.7,155.4 				"/>
				<polygon class="st12" points="513.1,162.7 495.1,152.5 507.7,145.2 525.7,155.4 				"/>
				<polygon class="st70" points="513.1,165.1 495.1,154.9 495.1,152.5 513.1,162.7 				"/>
			</g>
			<g>
				<polygon class="st71" points="508.7,165.1 508.7,167.5 513.1,165.1 513.1,162.7 				"/>
				<polygon class="st72" points="508.7,165.1 490.7,154.9 495.1,152.5 513.1,162.7 				"/>
				<polygon class="st72" points="508.7,167.5 490.7,157.3 490.7,154.9 508.7,165.1 				"/>
			</g>
		</g>
		<path class="st73" d="M505.3,165.6l-14.6-8.4l-4.6,2.7l-0.4,0.8c-2.3,4.8-6.8,9.2-13.2,12.5c-0.3,0.2-0.6,0.3-1,0.5l-30.2,15
			c-0.9,0.5-1.6,1.1-2.1,1.8l-0.7-0.1v2.2l0,0c0,0.6,0.2,1.2,0.5,1.8c0.9,1.5,2.9,2.6,5.5,3.2c3.6,0.7,7.4,0.2,9.8-1.3l25.9-17.5
			c0.3-0.2,0.6-0.4,0.8-0.6c5.8-3.7,13.4-6.3,21.7-7.6l1.3-0.2l4.6-2.7v-2.2L505.3,165.6z M452,193.8c-1.9,1.1-5,1.1-6.9,0
			c-1.9-1.1-1.9-2.9,0-4c1.9-1.1,5-1.1,6.9,0C453.9,191,453.9,192.7,452,193.8z"/>
		<path class="st74" d="M490.7,154.9l-4.6,2.7l-0.4,0.8c-2.3,4.8-6.8,9.2-13.2,12.5c-0.3,0.2-0.6,0.3-1,0.5l-30.2,15
			c-2.6,1.4-3.6,3.6-2.3,5.7c0.9,1.5,2.9,2.6,5.5,3.2c3.6,0.7,7.4,0.2,9.8-1.3l25.9-17.5c0.3-0.2,0.6-0.4,0.8-0.6
			c5.8-3.7,13.4-6.3,21.7-7.6l1.3-0.2l4.6-2.7L490.7,154.9z M445.1,191.6c-1.9-1.1-1.9-2.9,0-4c1.9-1.1,5-1.1,6.9,0
			c1.9,1.1,1.9,2.9,0,4C450.1,192.7,447,192.7,445.1,191.6z"/>
	</g>
	<g>
		<polygon class="st75" points="186.3,147.1 184.6,145.9 171.1,159.5 173.2,160.3 		"/>
		<path class="st17" d="M172.9,150.9l9.7-4.9c1.5-0.7,2.7-0.1,2.7,1.3v3.1c0,1.5-1.2,3.3-2.7,4l-9.7,4.9c-1.5,0.7-2.7,0.1-2.7-1.3
			v-3.1C170.2,153.4,171.4,151.6,172.9,150.9z"/>
		<path class="st6" d="M175,152l9.5-4.7c1.4-0.7,2.6-0.1,2.6,1.3v3c0,1.4-1.2,3.2-2.6,3.9l-9.5,4.7c-1.4,0.7-2.6,0.1-2.6-1.3v-3
			C172.4,154.4,173.6,152.7,175,152z"/>
		<polygon class="st6" points="173.2,160.3 189.2,166.3 199.9,156 186.5,147.1 		"/>
		<path class="st76" d="M165.2,146l4.4-2.2c0.9-0.4,2.3-0.4,3.2,0l16.5,8.3l3.5,0.9v1.3c0,0.3-0.2,0.6-0.7,0.8l-4.8,2.4
			c-0.9,0.4-2.3,0.4-3.2,0l-19.4-9.7c-0.4-0.2-0.6-0.5-0.7-0.7l0,0v-1.3L165.2,146z"/>
		<path class="st77" d="M164.8,146.4l19.4,9.7c0.7,0.3,1.7,0.4,2.6,0.2c0.2-0.1,0.4-0.1,0.6-0.2l4.5-2.3l0.3-0.1
			c0.9-0.4,0.9-1.2,0-1.6l-19.4-9.7c-0.9-0.4-2.3-0.4-3.2,0l-4.8,2.4C163.9,145.3,163.9,146,164.8,146.4z"/>
		<path class="st76" d="M169.4,147.4c0.1,0.2,0.3,0.4,0.6,0.5l16.7,8.4c0.2-0.1,0.4-0.1,0.6-0.2l4-2l0.5-0.3l-16.8-8.4
			c-0.9-0.4-2.3-0.4-3.2,0l-1.8,0.9C169.4,146.7,169.2,147.1,169.4,147.4z"/>
		<path class="st78" d="M190.8,159.7l7.5-3.7c1.1-0.6,2.1-0.1,2.1,1v2.3c0,1.1-0.9,2.5-2.1,3.1l-7.5,3.7c-1.1,0.6-2.1,0.1-2.1-1
			v-2.3C188.7,161.7,189.6,160.3,190.8,159.7z"/>
		<path class="st17" d="M188.7,162.8v2.3c0,0.9,0.6,1.4,1.3,1.3c0.2,0,0.5-0.1,0.7-0.2l7.5-3.7c1.1-0.6,2.1-1.9,2.1-3.1V157
			c0-1.1-0.9-1.6-2.1-1l-7.5,3.7C189.6,160.3,188.7,161.7,188.7,162.8z"/>
		<path class="st79" d="M190.1,164.2v2.3c0.2,0,0.5-0.1,0.7-0.2l7.5-3.7c1.1-0.6,2.1-1.9,2.1-3.1v-2.3c-0.2,0-0.5,0.1-0.7,0.2
			l-7.5,3.7C191,161.6,190.1,163,190.1,164.2z"/>
		<g>
			<path class="st77" d="M152.9,119.7v1c0,1.5,1.2,2.1,2.7,1.3l5.1-2.6l0.8-0.4c1.5-0.7,2.7-2.5,2.7-4v-1c0-0.1,0-0.1,0-0.2
				c-0.1-1.3-1.2-1.8-2.5-1.3v0.6l-6.7,3.4l-0.4-0.2C153.5,117.3,152.9,118.6,152.9,119.7z"/>
			<polygon class="st77" points="153.5,122.1 188.2,142.6 201.4,128.9 163.1,112.5 			"/>
		</g>
		<path class="st76" d="M154.9,116.7L154.9,116.7l5.7,2.9l16.6,8.3c1,0.5,2.5,0.6,3.7,0.2c0.2-0.1,0.4-0.1,0.6-0.2l2.7-1.4l0.3-0.2
			c1.2-0.6,1.2-1.6,0-2.2l-20.5-10.3l-2.5-1.3v0.6l-0.1,0l-0.6,0.3L154.9,116.7z"/>
		<path class="st80" d="M155,116.7l5.7,2.9l16.6,8.3c1,0.5,2.5,0.6,3.7,0.2c0.2-0.1,0.4-0.1,0.6-0.2l2.7-1.4c0.9-0.6,0.8-1.4-0.3-2
			l-20.5-10.3l-1.9-1l-0.6,0.3v0L155,116.7z"/>
		<path class="st17" d="M190.1,134.1l9.7-4.9c0.6-0.3,1.2-0.4,1.7-0.2l0,0l1.7,0.6l-0.7,0.8c0,0.1,0,0.1,0,0.2v3.1
			c0,1.5-1.2,3.3-2.7,4l-8.2,4.1l-1.5,1.6l-1.7-0.6l0,0c-0.6-0.2-0.9-0.8-0.9-1.6v-3.1C187.4,136.6,188.6,134.8,190.1,134.1z"/>
		<path class="st17" d="M190,134.1l9.7-4.9c1.5-0.7,2.7-0.1,2.7,1.3v3.1c0,1.5-1.2,3.3-2.7,4l-9.7,4.9c-1.5,0.7-2.7,0.1-2.7-1.3
			v-3.1C187.3,136.6,188.5,134.8,190,134.1z"/>
		<path class="st6" d="M191.8,135.3l9.1-4.5c1.4-0.7,2.5-0.1,2.5,1.2v2.8c0,1.4-1.1,3-2.5,3.7l-9.1,4.5c-1.4,0.7-2.5,0.1-2.5-1.2
			v-2.8C189.3,137.7,190.4,136,191.8,135.3z"/>
		<path class="st81" d="M190.9,139.6v2.8c0,1.4,1.1,1.9,2.5,1.2l7.9-3.9c-3.2-1.2-6.9-2.5-9.2-2.9h0
			C191.4,137.7,190.9,138.7,190.9,139.6z"/>
		<path class="st17" d="M192.1,136.9L192.1,136.9c0.3-0.3,0.6-0.6,0.9-0.8l8.4,3.6l6,2.6l-0.4,3.6c0,0-6.7-2.6-14.1-1.9
			c-0.2,0-0.4,0.1-0.6,0.1c0,0,0,0,0,0c-0.8,0-1.3-0.6-1.3-1.5v-2.8C190.9,138.7,191.4,137.7,192.1,136.9z"/>
		<path class="st59" d="M191.8,137c2.3,0.3,6,1.6,9.2,2.9c3.3,1.3,6.1,2.5,6.1,2.5l3.9-1.8c0,0-4.2-0.5-6.4-8.4c0,0,0,0,0,0
			c0,0,0-0.1,0-0.1c0,0,0,0,0,0c-0.3-0.9-1.3-1.2-2.4-0.6l-9.1,4.5C192.7,136.2,192.2,136.6,191.8,137z"/>
		<path class="st75" d="M208,141.8l2.5-1.3c0.7-0.4,1.3-0.1,1.3,0.7v1.3c0,0.7-0.6,1.6-1.3,2l-2.5,1.3c-0.7,0.4-1.3,0.1-1.3-0.7
			v-1.3C206.6,143.1,207.2,142.2,208,141.8z"/>
		<g>
			<path class="st77" d="M207.5,143.4v1.5c0,0.1,0,0.2,0.1,0.3c0.1,0.1,0.1,0.1,0.2,0.1c0.1,0,0.2,0,0.3-0.1l1.7-0.9l0.4-0.2
				c0,0,0.1,0,0.1-0.1h0c0.3-0.2,0.6-0.6,0.6-0.9v-1.4c0-0.2-0.1-0.3-0.1-0.3c0,0-0.1,0-0.1-0.1l0,0c-0.1,0-0.3,0-0.4,0.1l-2.2,1.1
				c-0.2,0.1-0.3,0.2-0.4,0.3c-0.1,0.1-0.1,0.2-0.2,0.3C207.6,143.2,207.5,143.3,207.5,143.4z"/>
			<path class="st82" d="M207.6,143l2.3,1.3l1.4,0.8l3.2-1.6l-3.6-2.2c0,0-0.1,0-0.1-0.1l0,0c-0.1,0-0.3,0-0.4,0.1l-2.2,1.1
				c-0.2,0.1-0.3,0.2-0.4,0.3C207.7,142.8,207.7,142.9,207.6,143z"/>
			<path class="st77" d="M211.2,146.2v-0.5c0-0.2,0.1-0.3,0.2-0.5c0.1-0.1,0.2-0.3,0.3-0.4l-3.8-1.9l-0.1,2.4l3.6,1.2
				C211.3,146.5,211.2,146.3,211.2,146.2z"/>
			<path class="st76" d="M211.2,145.7v0.5c0,0.2,0.1,0.3,0.2,0.4c0.1,0.1,0.3,0.1,0.5,0l1.3-0.7l0.8-0.4c0.4-0.2,0.7-0.6,0.7-1v-0.5
				c0-0.1,0-0.3-0.1-0.3c0,0-0.1-0.1-0.1-0.1c-0.1,0-0.3,0-0.4,0.1l-2.2,1.1c-0.1,0-0.1,0.1-0.2,0.1c-0.1,0.1-0.2,0.2-0.3,0.4
				C211.3,145.3,211.2,145.5,211.2,145.7z"/>
		</g>
		<polygon class="st77" points="186.7,156.3 186.7,156.7 191.9,154.2 191.9,153.8 		"/>
		<polygon class="st77" points="191.9,153.8 191.3,154.1 191.7,154.3 191.9,154.2 		"/>
		<path class="st82" d="M169.4,147.4c0.1,0.2,0.3,0.4,0.6,0.5l16.7,8.4c0.2-0.1,0.4-0.1,0.6-0.2l4-2l-16.3-8.1
			c-0.9-0.4-2.3-0.4-3.2,0l-1.8,0.9C169.7,147.1,169.5,147.2,169.4,147.4z"/>
	</g>
</g>
</svg>
