<?xml version="1.0" encoding="utf-8"?>
<!-- Generator: Adobe Illustrator 24.1.3, SVG Export Plug-In . SVG Version: 6.00 Build 0)  -->
<svg version="1.1" id="Layer_1" xmlns="http://www.w3.org/2000/svg" xmlns:xlink="http://www.w3.org/1999/xlink" x="0px" y="0px"
	 viewBox="0 0 70 70" style="enable-background:new 0 0 70 70;" xml:space="preserve">
<style type="text/css">
	.st0{fill:#869CB3;}
	.st1{fill:#0E3C62;}
	.st2{fill:#4D6278;}
	.st3{fill:#DFE7F0;}
	.st4{fill:#E11E19;}
	.st5{fill:#155992;}
</style>
<g>
	<g>
		<g>
			<g>
				<g>
					<path class="st0" d="M59.3,9.2h5.4c0-3-2.4-5.4-5.4-5.4h-43c-3,0-5.4,2.4-5.4,5.4H59.3z"/>
				</g>
				<g>
					<path class="st0" d="M59.3,52.1H11c0,3,2.4,5.4,5.4,5.4h35.1v10.7h13.2V52.1H59.3z"/>
				</g>
			</g>
		</g>
		<g>
			<defs>
				<path id="XMLID_25_" d="M30.4,46.9c-5.3,0-13.1-0.1-18.3-0.5c0.8-10.6,0.8-21.2,0-31.8c10.6-0.8,21.2-0.8,31.8,0
					c-1.3,5.5,0.1,14.9,0.1,20.1C44,43.4,37.5,47,30.4,46.9z"/>
			</defs>
			<use xlink:href="#XMLID_25_"  style="overflow:visible;fill:#A4C9E7;"/>
			<clipPath id="XMLID_2_">
				<use xlink:href="#XMLID_25_"  style="overflow:visible;"/>
			</clipPath>
		</g>
	</g>
	<path class="st1" d="M38.2,25.2H17.5c-0.4,0-0.7-0.3-0.7-0.7v-0.6c0-0.4,0.3-0.7,0.7-0.7h20.7c0.4,0,0.7,0.3,0.7,0.7v0.6
		C38.9,24.9,38.6,25.2,38.2,25.2z"/>
	<path class="st1" d="M38.2,29.8H17.5c-0.4,0-0.7-0.3-0.7-0.7v-0.6c0-0.4,0.3-0.7,0.7-0.7h20.7c0.4,0,0.7,0.3,0.7,0.7v0.6
		C38.9,29.5,38.6,29.8,38.2,29.8z"/>
	<path class="st1" d="M38.2,21.4H17.5c-0.4,0-0.7-0.3-0.7-0.7v-0.6c0-0.4,0.3-0.7,0.7-0.7h20.7c0.4,0,0.7,0.3,0.7,0.7v0.6
		C38.9,21,38.6,21.4,38.2,21.4z"/>
	<rect x="55.8" y="9.3" class="st2" width="6.4" height="42.6"/>
	<g>
		<g>
			<path class="st3" d="M55.8,19c-0.3,0-0.6-0.2-0.7-0.5c-0.2-0.5,0-1,0.4-1.3l6.9-4c0.4-0.2,0.8,0,1,0.5c0.2,0.5,0,1-0.4,1.3
				l-6.9,4C56,19,55.9,19,55.8,19z"/>
		</g>
		<g>
			<path class="st3" d="M55.8,25.2c-0.3,0-0.6-0.2-0.7-0.5c-0.2-0.5,0-1,0.4-1.3l6.9-4c0.4-0.2,0.8,0,1,0.5s0,1-0.4,1.3l-6.9,4
				C56,25.2,55.9,25.2,55.8,25.2z"/>
		</g>
		<g>
			<path class="st3" d="M55.8,31.1c-0.3,0-0.6-0.2-0.7-0.5c-0.2-0.5,0-1,0.4-1.3l6.9-4c0.4-0.2,0.8,0,1,0.5c0.2,0.5,0,1-0.4,1.3
				l-6.9,4C56,31.1,55.9,31.1,55.8,31.1z"/>
		</g>
		<g>
			<path class="st3" d="M55.8,36.4c-0.3,0-0.6-0.2-0.7-0.5c-0.2-0.5,0-1,0.4-1.3l6.9-4c0.4-0.2,0.8,0,1,0.5c0.2,0.5,0,1-0.4,1.3
				l-6.9,4C56,36.4,55.9,36.4,55.8,36.4z"/>
		</g>
		<g>
			<path class="st3" d="M55.8,42.1c-0.3,0-0.6-0.2-0.7-0.5c-0.2-0.5,0-1,0.4-1.3l6.9-4c0.4-0.2,0.8,0,1,0.5c0.2,0.5,0,1-0.4,1.3
				l-6.9,4C56,42.1,55.9,42.1,55.8,42.1z"/>
		</g>
		<g>
			<path class="st3" d="M55.8,48.2c-0.3,0-0.6-0.2-0.7-0.5c-0.2-0.5,0-1,0.4-1.3l6.9-4c0.4-0.2,0.8,0,1,0.5c0.2,0.5,0,1-0.4,1.3
				l-6.9,4C56,48.2,55.9,48.2,55.8,48.2z"/>
		</g>
	</g>
	<polygon class="st4" points="9.7,46.8 6.8,49.8 5.7,47.8 	"/>
	<polygon class="st4" points="42.7,46 45.7,49 46.8,47 	"/>
	<polygon class="st4" points="8.9,14.4 6.3,11.7 5.3,13.5 	"/>
	<polygon class="st4" points="45,14.3 47.7,11.5 48.7,13.3 	"/>
	<rect x="16.8" y="34" class="st5" width="22.1" height="6.1"/>
</g>
</svg>
