<?xml version="1.0" encoding="utf-8"?>
<!-- Generator: Adobe Illustrator 24.1.3, SVG Export Plug-In . SVG Version: 6.00 Build 0)  -->
<svg version="1.1" id="Layer_1" xmlns="http://www.w3.org/2000/svg" xmlns:xlink="http://www.w3.org/1999/xlink" x="0px" y="0px"
	 viewBox="0 0 70 70" style="enable-background:new 0 0 70 70;" xml:space="preserve">
<style type="text/css">
	.st0{fill:#D6E6F2;}
	.st1{fill-rule:evenodd;clip-rule:evenodd;fill:#B6D4EC;}
	.st2{fill:#F2F2F2;}
	.st3{fill:#3E3C3B;}
	.st4{fill:#5B453A;}
	.st5{fill:#7C6253;}
	.st6{opacity:0.7;fill:#5B453A;}
	.st7{fill:#937C67;}
	.st8{fill:#66AEDE;}
	.st9{opacity:0.4;fill:#1C1D1E;}
	.st10{opacity:0.55;fill:#ECEDEC;}
	.st11{fill:#77ADDB;}
	.st12{fill:#905F2D;}
	.st13{fill:#E5B7A3;}
	.st14{fill:#F0C8B2;}
	.st15{opacity:0.7;fill:#E5B7A3;}
	.st16{fill:#E9BBB1;}
	.st17{fill:#916F61;}
	.st18{fill:#FFFFFF;}
	.st19{fill:#1C77C3;}
	.st20{fill:#0E3C62;}
	.st21{opacity:0.49;fill:#FFFFFF;}
	.st22{fill:none;}
	.st23{fill:#341F1E;}
	.st24{fill:#F0C6BD;}
	.st25{opacity:0.7;fill:#C49C80;}
	.st26{fill:#D09289;}
	.st27{fill:#F6A71C;}
</style>
<g>
	<g>
		<circle class="st0" cx="35" cy="34.8" r="33"/>
		<g>
			<g>
				<path class="st1" d="M27.3,62.4c0.1,0,0.5-0.1,0.6-0.1c-0.2-0.2-0.8-0.2-1.1-0.4c0,0-1-0.6-0.8-0.1c0.1,0.1,0.3,0,0.3,0.1
					c-0.1,0.2-0.2,0.1,0,0.2c0,0-1.1-0.6,0-0.7c-0.8-0.7,0.1-0.5-0.2-0.9c-0.2-0.3,0.7-0.6,0.2-0.9c-0.2-0.1-0.5-0.1-0.7-0.2
					c-0.3-0.2,0-0.6,0.3-0.6c0,0,0.2-0.7,0.2-0.8c-0.1,0-0.7-0.8-0.5-0.9c0.2-0.2,0.9,0.5,1.1,0c0.1-0.2-0.3-0.6-0.2-0.8
					c0.3,0,2.6,0.1,2.2-1c-0.1-0.4-1.1-0.9-1-1.2c0.3,0,0.9,0.5,1.2,0.3c0.3-0.1,0.5,0.2,0.8-0.2c0-0.1,0.6-0.6,0.4-0.7
					c-0.2,0-0.2,0.1-0.3,0.3c-0.2-0.2,0.1-0.4,0.3-0.6c0,0.1,0.1,0.1,0.1,0.2c0.2-0.3,1.2-1.6,1.3-1.7c0.5-0.6,0.1-1.5,0.6-1.9
					c0.5-0.5,1-0.7,1.6-1c0.2-0.1,0.9-0.4,1-0.4c1.1,0.3,1-1,1.7-1.6c0.7-0.6,0.2-3.7,0.8-3.9c0.3-0.1,1.3-1.3,1.7-1.8
					c0.5-0.5,0.5-1.2,0.4-1.8c-0.3-1-0.6-0.4-1.3-0.9c-0.6-0.3-1-1-1.7-1.1c-0.4-0.1-0.8,0.1-1.3-0.1c-0.2-0.1-0.7-0.3-0.8-0.1
					c0,0-0.4,0.2-0.4,0.2c0,0,0-0.5-0.1-0.7c-0.2-0.2-1-0.4-1.2-0.5c-0.6-0.2-0.8,0.6-0.9-0.3c-0.5-0.1-1-0.7-0.9-0.9
					c0-0.1-0.8-1.8-0.9-1.7c0-0.6-1.8-1.3-2.3-1c-0.4,0.3-1.2-0.3-1.5-0.5c-0.3-0.3-0.3-0.7-0.8-0.9c-0.2-0.1-0.6,0-0.5-0.4
					c0.1-0.4-0.9-0.5-1-0.8c0.1,0,0.3,0,0.4-0.1c-0.4,0.1-0.8-0.1-1.2,0.2c-0.5,0.5-0.9-0.2-1.5-0.1c-0.8,0.1-0.3-0.1-0.7-0.4
					c0.2,0.1-0.9-0.5-0.6-0.5c-0.2,0,0,0.4-0.2,0.5c-0.4,0.1-0.7,0.2-0.5,0.7c0.4,0.9-0.9,0.5-0.3-0.1c0.1-0.1,0.1-1.2,0.3-1.2
					c-0.2-0.1-1.4,0.7-1.5,0.9c-0.4-0.6-1.1,1.6-1.3,1.6c-0.1-0.5-0.6-0.8-1.1-0.9c-0.4-0.2-0.8,0.8-1.3,0.3c-0.9-0.9-0.5-2.4,0-3.4
					c0.2-0.5-1.6-0.6-1.9-0.4c-0.5,0.4,0.1-0.8,0.1-0.7c0.1-0.5,0.2-0.8,0.4-0.7c0.1-0.3,0.8-1.5,0.7-1.6c-0.3-0.6-1.4,0.5-1.5,0.8
					c-0.1,0.3-0.3,0.4-0.5,0.7c-0.1,0.3-0.3-0.1-0.5,0c-0.5,0.3-1.2,0.1-1.1-0.6c0.1-0.9-0.2-2.6,0.8-3.2c0.3-0.2,0.3-1.1,0.7-1.4
					c0,0,1-0.6,0.9-0.7c0.1,0.2,0.9-0.2,1,0c0.1,0.2,0.5,0.3,0.7,0.3c0,0,0.1-0.4,0.1-0.4c0,0-0.3,0-0.3-0.1c0-0.1,1,0,1,0
					c0.4,0,0.8,0.4,1.1,0.2c0.5-0.3,0.2,1.9,0.4,2.1c0.1,0.1,0,0.4,0.2,0.4c0.3,0,0.4-2.9,1.1-3.5c0.5-0.4,1.1-0.8,1.8-1.2
					c0.2-0.1,0.7-0.3,0.8-0.5c0-0.1-0.1-0.2-0.2-0.1c0-0.2,0.3-0.1,0.3-0.3c0.1-0.2-0.2-0.2-0.1-0.3c0,0,0.2-0.4,0.1-0.3
					c0,0,0,0,0,0c0.3,0.1-0.1-0.3-0.1-0.3c0.4,0.2,0.2-0.4,0.6-0.5c-0.3,0.1-0.2,0.4-0.2,0.6c0.1,0.4,0.4-0.6,0.4-0.5
					c0.4-0.2,0.9-0.5,1.3-0.7c-0.1,0-0.2,0-0.3,0c0.4-0.2,0.9-0.1,1.2-0.3c0-0.4,0.2-0.8,0.7-0.9c0.7-0.1,1.5-0.5,2.2-0.8
					c-0.1,0.2,0.1,0,0.2,0.1c-0.2-0.6-1.5,1.1-0.9,0.8c0.5-0.3,2.2-0.6,2.4-1c0,0-0.1-0.4-0.1-0.4c-0.4,0-0.5,0.5-1,0.5
					c-0.9,0-0.4-0.6-0.6-0.8c-0.2,0-0.3,0-0.4-0.1c0.1,0,1.2-0.3,0.6-0.4c-1-0.2-1.6,0.9-2.5,0.9c0.6-0.4,1.4-1.2,2.2-1.3
					c0.8-0.1,1.9,0.3,2.6-0.2c0.6-0.4,1-0.1,1.4-0.8c0.1-0.2-0.4-0.4-0.6-0.5c0.1-0.1,0.2,0,0.2-0.1C29,8,28.8,7.6,28.7,6.5
					c-0.5,0.3-2.1,1.1-1.2-0.1c-0.3-0.1-1.3-0.9-1.6-0.4c-0.2,0.3-0.4,0.7-0.7,0.8C24.5,7.1,25,7,24.8,7.5c-0.4,0.7-1.2,0.6-1.6,1.2
					C23,9,22.9,9.3,22.5,9.5c-0.3,0.2-0.5-0.3-0.3-0.6C22.3,9,22.4,9.1,22.5,9c0-0.2-0.2-0.1-0.3-0.1c0.1-0.2,0.3-0.4,0.5-0.6
					c-0.1,0-0.9-0.2-0.9-0.4c0.1-0.5-0.5-0.2-0.7-0.4c0.5-0.6,0.5-0.9,1.4-1.3C22.9,6,24.6,5,25,5.3c0,0.2-0.3,0.2-0.4,0.3
					c0.3,0.1,1,0.2,1.3,0c-0.1,0-0.4-0.5-0.2-0.7c0,0,0.5,0,0.6,0c0.3-0.1,0.6-0.1,0.8-0.4C27.1,4.2,28,3.9,28.3,4
					c1.2,0.7-1.7,1.4-1.7,1.4c0.1,0.2,0.8-0.1,1,0.4c0,0.1,0.9,0.4,1,0.3c0.1-0.1-0.3-0.4-0.3-0.5c0.9,0.5,0.9,0.2,0.7-0.4
					c-0.1-0.6,0.5,0,0.6,0.1c0.2,0.1,0.8-0.3,0.9-0.4c-0.2-0.2-0.6-0.2-0.8-0.4C29.5,4.2,30.2,4.2,30,4c-0.3-0.2-0.7-0.2-0.6-0.6
					c-0.2,0-0.3,0-0.5,0.1c0,0.1,0.1,0,0.2,0.1c-0.2,0.1-0.3,0.1-0.5,0.1c0.1-0.1,0.2-0.1,0.2-0.2c-0.5-0.1-0.7,0.2-1.2,0.4
					c0.1-0.2,0.3-0.2,0.5-0.4c-0.5,0.1-0.9,0.2-1.3,0.5C26.9,4,27,4,27,4.1c-0.4,0.3-0.8,0.4-1.2,0.6c0.1-0.3,0.4-0.2,0.5-0.4
					c-0.2,0-0.3,0-0.4,0.1c0.2,0,0.7-0.5,0.8-0.7c-0.7-0.1-1.1,0.9-1.8,0.7c0.1-0.2,0.4-0.1,0.5-0.4c-0.3,0-1.3,0.7-1.4,0.4
					c0,0,1.8-0.7,2-1c-0.1,0-0.3,0.1-0.4,0c0.1-0.1,0.2-0.1,0.3-0.2c-0.6,0-2.4,0.7-2.2,1.1c-0.2,0.2-0.5,0.2-0.8,0.1
					c0.1-0.2,0.5-0.2,0.2-0.4c-0.6,0.2-1.1,0.4-1.7,0.7c-1.3,0.6-2.5,1.2-3.7,2c-2,1.2-3.6,2.7-5.2,4.3c-0.9,0.9-4.2,4.7-4.1,5.5
					c0,0.6-0.3,1.1-0.6,1.7c-0.2,0.4-0.2,1-0.4,1.4c-0.5,0.9-0.3,1.8-0.5,2.8c0.3-0.2,0.8-4.7,1.3-4.5c0.1,0-0.3,1.9-0.4,2.1
					c-0.4,0.9,0.1,2.1-0.1,3.1c0,0.1-0.2,0.6-0.2,0.7C7,24.1,7.6,24.6,7.6,25c0,0.2,1.2,1.2,1.4,1.4c0.5,0.3,0.6-0.2,1-0.1
					c0.4,0.1,0.5,0.8,0.7,1.1c0.3,0.4,1.4,0.4,1.6,0.6c0.1,0.2,0,1,0.5,1.1c0-0.1,0-0.3,0.1-0.4c0.2-0.1,0.5,0.5,0.4,0.6
					c-0.2,0-0.3,0-0.4-0.2c0,0.1-0.1,1.2,0.2,0.9c0-0.1,0-0.1,0-0.2c0.4,0.2,0.4,0.8,0.7,0.9c0.4,0.1,0.7,0.6,1,0.8
					c0.3,0.1,0.2-0.9,0.7-1c0.4,0,0.7,1,0.8,1.3c0.2,0.4-0.3,1.3,0,1.6c0.3,0.3-0.7,1-0.8,1.3c0,0.2-0.5,0.5-0.5,0.5
					c0,0.3-0.1,0.6-0.2,0.8c-0.3,0.7-0.1,0.7,0.3,1.1c0,0-0.8,1.6-0.3,2.1c0.8,0.6,1.7,2.1,2,3.1c0.5,1.3,1.2,2.1,2.5,2.8
					c1,0.5,1.7,1.4,1.7,2.7c0,0.7-0.1,1.6,0.2,2.3c0.2,0.5-0.2,1.2,0.1,1.7c0.2,0.3-0.1,0.4,0.1,0.7c0.1,0.3,0.4,0.7,0.4,1
					c0,0.5,0,1.1,0,1.6c0,0.2-0.2,0.5-0.1,0.6c0.1,0.1,0.8,1.9,0.8,2.4c0,0.1,0.5,0,0.1-0.5c0.6-0.3,0.5,1,0.5,1
					c-0.5-0.2-0.2,0-0.1,0.6c0,0.4-0.1,0.2,0.2,0.3c0.5,0.1,0,0.5,0.2,0.7c0.4,0.6,1,1.1,1.4,1.5C25.4,62.3,26.5,62.2,27.3,62.4
					C27.4,62.4,27.1,62.3,27.3,62.4z M29.4,8.6c-0.2,0.2-0.4,0.2-0.6,0.3C29,8.6,29.2,8.6,29.4,8.6z M27.7,8.4c0.1,0,0.2,0,0.3,0.1
					c0,0.1-0.7,0.1-0.8,0.3C27.3,8.5,27.6,8.5,27.7,8.4C27.8,8.5,27.6,8.5,27.7,8.4z M26,9.6C26.1,9.7,25.8,9.6,26,9.6
					C26,9.7,25.9,9.6,26,9.6z M25,7.8c0.1-0.1,0.1-0.1,0.2,0C25.1,8,25.1,7.9,25,7.8C25,7.8,25,7.9,25,7.8z M24.1,10.7
					C23.8,10.6,24.4,10.7,24.1,10.7C24.1,10.7,24.1,10.7,24.1,10.7z M24.4,9.6c-0.9,0.9-0.2,0-0.5,0.3c0,0,0,0,0,0
					C23.8,9.8,24.3,9.6,24.4,9.6C24.3,9.7,24.2,9.6,24.4,9.6z M24,8.6c-0.2,0.2-0.2,0.2-0.4,0.2C23.8,8.6,23.9,8.6,24,8.6z
					 M28.1,5.3c-0.1,0-0.1,0-0.2,0C28.2,5.1,28.2,5.3,28.1,5.3C28.1,5.3,28.2,5.3,28.1,5.3z M28.8,4.9c-0.1,0.1-0.2,0-0.4,0.1
					C28.6,4.7,28.6,4.7,28.8,4.9z M25.1,5.2c0.1-0.1,0.2-0.1,0.3-0.1C25.4,5.2,24.8,5.3,25.1,5.2C25.1,5.1,25,5.2,25.1,5.2z M24.9,5
					c0.1,0,0.1,0.1,0,0.1C24.8,5.1,24.8,5,24.9,5C24.9,5,24.9,5,24.9,5z M20.1,13.2c0,0-1.4,0.6-1.3,0.2c0,0.1,0.5-0.4,0.4-0.4
					c0.1-0.1,1.1-0.1,1.4-0.1C20.4,13.1,20.2,13.1,20.1,13.2C19.8,13.3,20.2,13.1,20.1,13.2z M21.3,12.5c1.2,0.1-0.7,0.5-0.9,0.3
					C20.6,12.5,20.9,12.4,21.3,12.5C21.3,12.5,20.9,12.4,21.3,12.5z M21.1,5c0.3-0.2,0.7-0.4,1.1-0.5C21.8,4.8,21.4,5,21.1,5L21.1,5
					z M21.1,11.5c-0.1,0.1-0.1,0.1-0.2,0C21,11.5,21.1,11.5,21.1,11.5C21.1,11.6,21.1,11.5,21.1,11.5z M20.8,12.2
					C20.7,12.2,20.7,12.2,20.8,12.2C20.8,12.2,20.7,12.2,20.8,12.2z M20.4,11.6c0.4,0.2,0.2,0.9-0.2,0.4c0,0.3-0.6,0.8-0.8,0.9
					c0.1-0.1,0.1-0.3,0.1-0.4c-0.1-0.1-0.3,0.1-0.4,0.1c0,0.2,0.8-1.3,0.2-0.8c-0.2,0.2-1.7,1.8-1.8,1.7c-0.1-0.1,0.7-1.3,0.7-1.3
					C18.7,11.6,19.8,11.3,20.4,11.6z M19.6,6.1c0.1,0,0.5-0.3,0.6-0.3c0.2,0.2-0.8,0.4-0.8,0.4C19.4,6.1,19.5,6.1,19.6,6.1
					C19.8,6,19.5,6.1,19.6,6.1z M19.7,10c0,0-0.2,0.4-0.3,0.2C19.3,10.1,19.7,9.8,19.7,10C19.7,10,19.7,9.9,19.7,10z M18.6,6.9
					c0.1,0,0.8-0.5,0.9-0.3C19.5,6.7,18.6,7,18.6,6.9z M18.4,7.7c0,0.1-0.1,0.1-0.2,0.1C18.3,7.8,18.3,7.8,18.4,7.7z M17.9,9.6
					C18,9.5,18.2,9.1,18.1,9c0.1,0.1-0.5-0.1-0.2-0.2c0.1,0,0.7-0.4,0.8-0.3c0.2,0.2-0.8,1.2-0.9,1.2C17.8,9.7,17.8,9.7,17.9,9.6
					C18,9.5,17.8,9.7,17.9,9.6z M18.4,10.8c0.7-0.2,0.9-0.6,1.3-0.1c0.2,0.2,0.1,0.7-0.2,0.6c0.1,0-1.1-0.1-0.9-0.2
					c-0.2,0.1-0.7,0.3-1,0.1C17.9,11.1,18.1,10.9,18.4,10.8C18.6,10.8,18.1,10.9,18.4,10.8z M17.5,9.6c0.1,0.2,0,0.2-0.2,0.3
					C17.4,9.8,17.4,9.7,17.5,9.6z M8,24C7.7,24,8.2,24,8,24C8,24,8,24,8,24z M11.8,26.8C11.7,26.8,12.1,26.7,11.8,26.8
					C11.8,26.8,11.9,26.7,11.8,26.8z M21.2,29.8C21,29.8,21.4,29.9,21.2,29.8C21.1,29.8,21.2,29.8,21.2,29.8z M22.7,57.2
					C22.4,57.1,22.8,57,22.7,57.2C22.6,57.2,22.7,57.2,22.7,57.2z M23.4,43.5C23.3,43.4,23.4,43.6,23.4,43.5
					C23.4,43.5,23.4,43.5,23.4,43.5z M23.5,52C23.3,52.1,23.7,52,23.5,52C23.4,52,23.5,52,23.5,52z M24.4,61.2
					c-0.1-0.1-0.1-0.1,0-0.1C24.5,61.1,24.5,61.2,24.4,61.2C24.3,61.2,24.4,61.2,24.4,61.2z M25.6,61.7c-0.1,0-0.1-0.1,0-0.1
					C25.7,61.6,25.7,61.7,25.6,61.7C25.5,61.7,25.6,61.7,25.6,61.7z M23,58.3C23,58.4,23,58.4,23,58.3C23,58.3,23.1,58.3,23,58.3z
					 M26,3.4L26,3.4L26,3.4L26,3.4z M14.8,8.7C14.8,8.7,14.8,8.7,14.8,8.7L14.8,8.7z M15.1,8.5L15.1,8.5L15.1,8.5z M67.5,28.9
					L67.5,28.9c-0.6-2.4-1.1-4.7-2.1-7c-1.2-2.7-2.7-5.3-4.6-7.6C59,12,57,10,54.8,8.4c-1.1-0.8-2.2-1.6-3.4-2.2
					c-0.6-0.3-1.1-0.6-1.7-0.9c-0.3-0.1-1.1-0.4-1.3-0.6c0,0.1,0.5,0.4,0.6,0.4c-0.3-0.1-1.3-0.5-1.3-0.5c0,0,0.1,0,0.1-0.1
					c-0.5-0.3-2.5-1.1-2.9-0.5c0.1-0.1,1.3,1.3,1.4,1.6c0.1,0.6,1,1.2,1.5,1.3c0.8,0.3,0.2-0.1,0.5-0.3c0.2-0.1,0.4,0.4,0.6,0.3
					c0,0,0,0,0,0c0-0.1-0.1-0.2-0.2-0.3c-0.1,0,1.4,1.5,1.6,1.2c-0.2-0.4-0.4-0.9-0.9-1.3c-0.4-0.4-1-0.4-1.4-0.7
					c-0.2-0.2-1-0.7-1-1c1,0,2.2,2.1,3.1,1.3c-0.1-0.1-0.3-0.2-0.4-0.3c0.2,0.1,1,0.3,0.7,0.7c-0.8-0.1,0.7,0.7,0.7,0.8
					C51.1,7.2,51,7,50.9,7c0.1,0.3,0.8,0.6,0.9,1c-0.5,0.1-0.3-0.3-0.6,0.1c-0.1,0.1-0.5,0.1-0.7,0.1c-0.5,0-1.2-0.9-1.6-1.2
					c0.2,0.5,0.5,0.8,1,1.1c0.3,0.2-0.4,0.2-0.4,0.5c0,0,0.2,0.1,0.2,0.1c0,0-0.2-0.1-0.2-0.1c0.1,0-0.1,0.9-0.1,0.9
					c0.4,0.5-0.6,0.4-0.6,0.4c0.1,0.1,0.3,0.2,0.3,0.4c-0.3,0-0.6,0-0.8,0.1c0.4,0.1,2.8,1.2,2.3,2c-0.2,0.3-1.8-0.1-2.1-0.1
					c-0.6,0,0,0.6,0,0.7c0.1,0.5,0.5,0.7,0.4,1.2c0,0.4,0.4,0.4,0.5,0.7c0.1,0.3,0.1,0.3,0.3,0.3c0.5,0.1,0.5,0,1,0.3
					c0.3,0.3,0.5-0.2,0.8-0.2c0.9,0,0.1-0.2,0.6-0.4c0.6-0.2-0.2-1-0.1-1.2c0-0.2,0-0.5,0.3-0.6c0.5-0.1-0.1-0.6-0.2-0.7
					c-0.1-0.4,1.3,0.3,1.1-0.7c0.8,0.3,1.6,1,2.4,1.4c0.5,0.3,0.9,0.5,1.2,0.9c0.4,0.5-0.5,0.3-0.6,0.4c-0.1,0.2,0.8,0.6,1,0.5
					c0-0.1-0.1-0.6-0.1-0.7c0-0.3-0.6-0.7-0.5-1c0.2,0,0.3,0.1,0.4,0.2c-0.5-0.6-1.2-0.6-1.8-1.1c-0.3-0.3-0.7-0.5-1.1-0.8
					c0,0-0.6-0.7-0.2-0.6c0.6,0.2,1.3,0.9,2,1.2c0.5,0.3,0.6,0.4,1,0.9c0.1,0.2,0.9,1.1,1.1,1.1c0,0,0.6,0.6,0.9,0.7
					c-0.1-0.3-0.2-0.6-0.3-0.8c-0.2-0.3-0.9-0.4-0.9-0.9c0.2,0,0.2-0.2,0.5-0.2c-0.2,0,0.2-0.3,0.2-0.2c-0.7-0.4-1.6-1.5-1.8-2.3
					c0.2,0,0.3,0.3,0.5,0.1C57,10.8,57,10.6,57,10.5c0,0.1,0.7,0.6,0.6,0.7c-0.2,0-0.3-0.1-0.5-0.2c0.1,0.3,0.4,0.3,0.5,0.6
					c0-0.1-0.1-0.2,0-0.3c0.6,0.2,1.7,1.1,1.9,1.8c-0.2,0-0.7-0.5-0.9-0.4c0,0.1,0,0.2,0,0.4c-0.1,0-0.1,0-0.2,0.1
					c0.1,0.1,0.1,0.2,0.2,0.3c-0.1,0-0.2,0.1-0.3,0.1c0.1,0.3,1.8,1.9,1.9,1.7c0-0.1-0.1-0.2,0-0.2c0.1-0.1,0.3,0.4,0.5,0.3
					c0.1-0.1-0.1-0.2,0-0.3c0.2-0.1,1.3,1.8,1.4,2.1c0.5,0.9,0.2,0.4-0.2,0.5c0,0.1-0.1,0.2-0.1,0.3c-0.6-0.1-1.2-0.5-1.7-0.8
					c-0.8-0.6,0.2,1.5-0.2,1.2c-0.3-0.1-0.4-0.4-0.7-0.4c-0.5,0-0.6-0.5-1-0.7c-0.3-0.1-1.7-0.2-1.5-0.9c0.1-0.5-0.5-1-0.8-1.2
					c-0.1-0.1-1.6,0.1-1.9,0.2c-0.4,0.1-1.1,0.3-1.3,0.7c-0.4,0.7-1.3-0.2-1.7-0.1c-0.2,0.1,0,0.7-0.1,0.9c-0.2,0.3-0.5,0.3-0.6,0.6
					c-0.2,0.6,0.3,1.1,0.1,1.7c-0.2,0.4-1,0.6-1.1,1c0,0.2-0.1,0.4-0.2,0.5c-0.4,0.2,0,0.8-0.2,1c-1.3,1.4,0.4,2.7,0.1,4.2
					c-0.2,0.9-0.3,1,0.1,1.8c0.1,0.2,0,1.5,0.7,1c0.1,0.8,1.1,0.9,1.2,1.7c0.2,0.9,1.1,1.2,1.7,1.8c0.3,0.2,0.5,0.5,0.8,0.6
					c0.5,0.3,0.9-0.2,1.4-0.3c0.5-0.1,1-0.1,1.4,0.1c0.3,0.1,2.2-1.2,2.7-1c0.4,0.2,0.4,0.6,0.6,1c0.3,0.5,0.8-0.1,1.1,0
					c0.6,0.3,0.8,2.5,0.3,3c-0.4,0.3,0.5,1.5,0.6,1.8c0.4,0.7,0.7,1.9,0.6,2.7c-0.1,0.6,0.1,1.6-0.3,2.2c-0.4,0.6-0.6,1.1-0.9,1.8
					c-0.8,1.6,0,3.5-0.7,5.1c-0.4,0.9-0.3,1.8-0.5,2.7c-0.1,0.6-0.8,1.4-0.6,2c0.4-0.4,1.1-0.3,1.5-0.6c1-0.5,1.4-1.6,2.2-2.4
					c0.4-0.4,0.6-0.9,0.8-1.4c0.2-0.5,0.6-0.8,0.9-1.2c0.5-1.2,0.9-2.3,1.4-3.5c1-2.5,1.2-4.9,1.6-7.5C68,34.4,68,31.7,67.5,28.9z
					 M65,22.3c-0.1-0.3-1.9-2.9-1.7-3.1c0.2-0.1,4,6.5,3.6,7.5C66.3,25.3,65.6,23.8,65,22.3C65,22.3,65.1,22.6,65,22.3z M66.6,34.1
					c-0.1-0.2,0-0.3,0.1-0.6C66.7,33.7,66.6,33.9,66.6,34.1z M66.4,35.1c0-0.1,0-0.2,0.1-0.3C66.5,34.9,66.5,35,66.4,35.1z
					 M65.8,43.7c-0.1,0-0.1,0-0.2,0.1c-0.1,0,0.2-0.2,0.2-0.2C65.8,43.6,65.8,43.6,65.8,43.7C65.7,43.7,65.8,43.6,65.8,43.7z
					 M65.9,40.2c0-0.3,0-0.3,0.3-0.5C66.1,39.9,65.9,40,65.9,40.2z M66.2,38.6c0-0.6,0-1.3,0.1-1.8c0,1,0.1,2,0,3
					C66.2,39.5,66.2,38.8,66.2,38.6C66.2,38.4,66.2,38.8,66.2,38.6z M66.7,40.4c0,0.5-0.1,2-0.4,2.4c0-0.9,0.4-1.7,0.4-2.6
					C66.8,40.3,66.7,40.4,66.7,40.4C66.7,40.5,66.7,40.4,66.7,40.4z M67.1,35c-0.2,0.6,0,0.8-0.4,1.2c0-0.5-0.2-1.4,0.3-1.6
					C67.1,34.7,67.2,34.9,67.1,35C67.1,35.3,67.2,34.9,67.1,35z M46.4,65.7c0,0.1-4.2,1.3-4.6,1.4c-1.7,0.4-3.5,0.6-5.3,0.7
					c-3.4,0.2-6.9-0.1-10.2-1.1c0.4,0,0.9,0.3,1.4,0.2c-0.4-0.3-0.9-0.2-1.3-0.5c1.4,0.2,2.7,0.1,3.9,0.3c-0.1-0.2-1.3-0.4-1.3-0.6
					c0.2,0,1,0,1.1-0.1c0.4-0.3-0.7-0.3-0.6-0.5c0-0.1,0.3,0,0.4-0.1c0.2-0.2,0-0.3,0.1-0.4c0-0.1,1.7-0.4,1.9-0.3
					c-0.2,0.1-0.4,0-0.3,0.3c-0.2,0-0.7,0-0.7,0.2c0-0.1,0.6,0.7,0.6,0.7c0.2,0.3,0.9,0.5,0.9,0.8c0.1,0.6,3.2,0.5,3.7,0.5
					c1.2-0.1,2.3-0.6,3.4-0.8c0.7-0.1,1.4-0.3,2.1-0.4c0.3,0,1.4-0.4,1.6-0.3C43.4,66.3,45.8,65.6,46.4,65.7
					C46.4,65.7,46.3,65.7,46.4,65.7z M65.4,47.5c0.1-0.3,0.2-0.7,0.4-1C65.7,46.8,65.6,47.1,65.4,47.5z M66,46.1c0,0,0-0.1,0.1-0.1
					C66,46,66,46.1,66,46.1z M29.9,2.9c-0.2,0-0.4,0-0.6,0c0.1-0.1,0.7-0.1,0.4-0.3C30.5,2.1,32.1,2,33,2.1c1,0.1,2-0.2,2.9,0
					c0.4,0.1,0.7,0.1,1.1,0.1c0.3,0,0,0.4,0.3,0.5c0.2,0,0.7,0.5,0.9,0.4c0,0.4-0.2,0.1-0.1,0.4c0,0.1,0.4,0.3,0.4,0.3
					c0,0-1.1,0-1.1,0c-0.1,0,0,0.2,0.1,0.1c0.2,0.1,0.7,0,0.9,0c-0.6,0.5-1.4,0.4-2,0.8c-0.4,0.3-0.9,0.2-1.4,0.4
					c0,0.4-0.3,0.9-0.6,1.4C34.4,6.9,33,6.2,32.9,6c-0.3-0.4-1-1.3-0.2-1.6c0.9-0.4,0-0.1-0.3-0.3c0.2-0.3,0.5-0.2,0.8-0.2
					c-0.2-0.2-0.4-0.3-0.7-0.2c-0.1-0.3,0.4-0.5,0-0.8c-0.2-0.1-1.1,0-1.2-0.2c-0.1-0.4,1.2-0.2,1.4-0.5C31.8,2.1,30.8,3,29.9,2.9
					C29.7,2.9,30.1,2.9,29.9,2.9z M47.3,9.2c0.2,0-0.2-0.5-0.3-0.6c0.1,0,0.2,0,0.3,0c-0.1-0.2-1-0.8-1.1-0.7
					c-0.4,0.2-0.8-0.8-0.9-0.9c0.6-0.1,1,0.6,1.6,0.9c0.5,0.2,2.2,1.1,2.3,1.6c0,0.3-1.3,0.2-1.5,0.5C47.5,9.4,48,9.4,48,9.3
					C47.9,9.2,47.3,9.2,47.3,9.2C47.2,9.2,47.5,9.2,47.3,9.2z M29.7,9.7c-0.1,0.1-1.3,1.2-1.2,1.3c0,0.1,1.2,0,1.4,0.1
					c0,0.1-0.2,0.1-0.2,0.2c0.2,0,0.6-0.3,0.7-0.2c0,0.1,0,0.2,0,0.2c0.5,0.5,0.5-0.6,0.5-0.7c-0.4-0.1,0.1-0.6-0.5-0.4
					c0,0-0.7-0.2-0.6-0.2c-0.1-0.1,0.5-0.5,0.5-0.6C29.9,9.4,29.8,9.6,29.7,9.7C29.5,9.8,29.7,9.6,29.7,9.7z M30.8,10.9
					C30.9,10.9,30.7,10.9,30.8,10.9C30.8,10.9,30.8,10.9,30.8,10.9z M30.6,10.9C30.6,10.8,30.8,10.8,30.6,10.9
					C30.6,10.9,30.5,11,30.6,10.9C30.6,10.9,30.5,10.9,30.6,10.9z M29.7,9.5L29.7,9.5C29.7,9.5,29.7,9.5,29.7,9.5
					C29.7,9.5,29.7,9.5,29.7,9.5z M28.7,10.6C28.7,10.6,28.7,10.6,28.7,10.6C28.7,10.6,28.6,10.6,28.7,10.6
					C28.7,10.6,28.7,10.6,28.7,10.6z M17.2,24.3c-0.3,0,0.2-0.2,0.2-0.4c-0.2-0.5-1.7-0.6-1.9-1c0.1,0,0.1-0.1,0.1-0.1
					c-0.5-0.2-0.8,0.4-1.2,0.4c1-1.6,3.3,0.2,4.3,1C18.2,24.3,17.7,24.3,17.2,24.3C17.2,24.4,17.5,24.3,17.2,24.3z M18.5,25.2
					c-0.2-0.1,0.8-0.1,0.9-0.2c-0.2-0.3,0-0.5-0.4-0.6c0.4-0.4,1.6,0.1,1.9,0.2c0,0.1-0.1,0-0.1,0.1c0,0,0.8,0.7,0.3,0.5
					c-0.6-0.3-0.9,0.1-1.3,0.3C19.4,25.1,18.9,25.4,18.5,25.2C18.4,25.2,18.6,25.3,18.5,25.2z M46.4,8.5c0.6,0.6-0.3,1-0.7,0.7
					c-0.2-0.2-0.1-0.7-0.5-0.8c0.1,0,0.2-0.1,0.4-0.1C45.3,7.5,46.3,8.4,46.4,8.5C46.5,8.7,46.4,8.5,46.4,8.5z M39.1,5
					c0-0.1,0.8-0.1,0.9-0.1c0.2,0,1.9,0.1,1.3,0.4c-0.5,0.2-1.1,0.4-1.6,0C39.7,5.3,39.1,5,39.1,5C39.1,4.9,39.1,5.1,39.1,5z
					 M54.4,13.3c0.2,0,0.7,0.7,0.6,0.9c-0.2,0.4-0.6-0.5-0.8-0.7C54.2,13.4,54.3,13.4,54.4,13.3z M28.3,3.1C28.9,2.7,29,2.9,29.7,3
					C29.5,3.2,28.9,3.3,28.3,3.1C28.4,3,28.9,3.3,28.3,3.1z M40.9,2.6c-0.4-0.1-0.9-0.1-1.3-0.3c0.5,0,1.1,0.1,1.4,0.2
					C41.1,2.6,40.9,2.6,40.9,2.6C40.5,2.5,40.9,2.6,40.9,2.6z M39.6,2.3c0,0-0.1,0-0.1,0C39.5,2.3,39.6,2.3,39.6,2.3
					C39.6,2.3,39.6,2.3,39.6,2.3z M17.4,25.2c0.1,0,0.1,0.1,0.2,0.1c-0.1,0.2-0.8-0.1-0.9-0.2C16.9,25,17.1,25.1,17.4,25.2z
					 M22.7,25.2C22.3,26.2,21.3,24.6,22.7,25.2C22.6,25.4,22.4,25.1,22.7,25.2z M24.2,29.9L24.2,29.9C24.2,29.9,24.2,29.9,24.2,29.9
					C24.3,29.9,24.2,29.9,24.2,29.9z M24.3,29.9c0,0,0.1-0.4,0.4-0.4C25,29.6,24.5,29.9,24.3,29.9C24.3,29.9,24.7,29.9,24.3,29.9z
					 M27.5,2.9c-0.3,0.2-0.6,0.1-0.9,0.2C27,2.8,27.2,2.8,27.5,2.9C27.2,3.1,27.4,2.9,27.5,2.9z M17.6,22.3c-0.1-0.4-0.3-0.4,0-0.7
					C17.7,21.9,17.7,22.1,17.6,22.3C17.5,22.1,17.7,22.1,17.6,22.3z M10.4,35.9c0,0.1-0.1,0.2-0.2,0.1c0,0-0.1-0.5,0-0.6
					C10.3,35.6,10.3,35.8,10.4,35.9C10.4,36,10.3,35.8,10.4,35.9z M26.9,10.1c0.3,0,0.6,0.1,0.8,0.3C27.4,10.5,27.2,10.3,26.9,10.1z
					 M54.3,13.2L54.3,13.2c-0.1,0-0.6-0.4-0.4-0.5C54,12.5,54.2,13.1,54.3,13.2z M59.8,15.9c-0.1-0.1-0.3,0-0.4-0.3
					c0.2,0.1,0.4,0,0.6,0.2C59.9,15.9,59.9,16,59.8,15.9C59.7,15.8,59.9,16,59.8,15.9z M27.9,3.1c-0.1-0.1-0.1,0-0.2-0.1
					c0.2-0.2,0.4-0.1,0.5-0.2C28.3,2.9,28.1,3.3,27.9,3.1C27.9,3,28,3.2,27.9,3.1z M27,3.3c-0.2,0.2-0.5,0.4-0.8,0.3
					C26.4,3.4,26.7,3.4,27,3.3z M26.9,11.5c0.1,0,0.1,0,0.2,0c-0.3,0.4-0.7-0.2-0.6-0.2C26.5,11.3,26.9,11.5,26.9,11.5
					C27,11.5,26.8,11.5,26.9,11.5z M27.1,3.5c0.2-0.2,0.5-0.2,0.8-0.2C27.6,3.4,27.4,3.5,27.1,3.5z M52.9,14.1
					c-0.3,0,0.5-0.3,0.2,0.1C53,14.1,53,14.1,52.9,14.1C52.9,14.1,53,14.1,52.9,14.1z M61.1,16c-0.2-0.1-0.2-0.2-0.2-0.4
					C61.1,15.7,61.1,15.8,61.1,16z M27.6,4.7c0.1-0.2,0.2-0.2,0.5-0.2C28,4.6,27.8,4.7,27.6,4.7z M25.2,5.8
					c-0.2,0.1-0.3,0.2-0.5,0.2C24.9,5.8,25,5.8,25.2,5.8z M45.1,7.1c0,0.1,0,0.1,0.1,0.2C45,7.3,44.8,7,45,6.9
					C45.1,7,45.1,7,45.1,7.1C45,7.2,45.1,7.1,45.1,7.1z M15.2,23.3c0,0.1-0.1,0.2-0.2,0.2C15,23.4,15.2,23.1,15.2,23.3
					C15.2,23.4,15.2,23.3,15.2,23.3z M26.3,57.6c0.1,0,0.1,0.1,0.1,0.2C26.5,58.1,25.9,57.6,26.3,57.6
					C26.4,57.6,26.2,57.6,26.3,57.6z M25.6,5.9c-0.1,0.1-0.2,0.1-0.3,0.2C25.4,6,25.5,5.9,25.6,5.9z M10.6,35.9
					C10.6,36.2,10.5,35.5,10.6,35.9C10.6,35.9,10.6,35.8,10.6,35.9z M27.8,6.5C27.8,6.5,27.8,6.5,27.8,6.5
					C27.8,6.5,27.7,6.5,27.8,6.5z M26.3,3.3c0,0-0.1,0-0.1,0C26.2,3.3,26.3,3.3,26.3,3.3z M26.2,3.4C26.1,3.4,26.2,3.4,26.2,3.4
					C26.2,3.4,26.2,3.4,26.2,3.4z M26,3.4L26,3.4C26,3.4,26,3.4,26,3.4z M26,3.4c0-0.1,0.1,0,0.1,0C26.1,3.4,26.1,3.4,26,3.4z
					 M27.1,3.5L27.1,3.5L27.1,3.5z M27.1,3.5c0,0.1-0.1,0.1-0.1,0.1C27,3.5,27,3.5,27.1,3.5z M14.9,37.3
					C14.8,37.2,15,37.3,14.9,37.3C14.9,37.3,14.9,37.3,14.9,37.3z M50.2,6.1C50.4,6.1,50.2,6.1,50.2,6.1C50.2,6.1,50.2,6.1,50.2,6.1
					z M45.1,7.3C45.1,7.3,45.1,7.3,45.1,7.3C45.1,7.3,45.1,7.3,45.1,7.3C45.1,7.3,45.1,7.3,45.1,7.3C45.1,7.3,45.1,7.3,45.1,7.3z
					 M26.9,3.5C27,3.5,27,3.5,26.9,3.5C27,3.5,27,3.5,26.9,3.5L26.9,3.5z M26.9,3.5C26.9,3.5,26.9,3.5,26.9,3.5
					C26.9,3.6,26.9,3.6,26.9,3.5C26.9,3.5,26.9,3.5,26.9,3.5z M57,13.7L57,13.7L57,13.7L57,13.7z M30.8,35
					C30.7,34.9,30.8,35,30.8,35C30.7,35,30.8,35,30.8,35z M46.5,65.7C46.4,65.7,46.4,65.7,46.5,65.7C46.4,65.7,46.4,65.7,46.5,65.7
					L46.5,65.7z M46.4,65.7C46.4,65.7,46.4,65.7,46.4,65.7L46.4,65.7z M20.1,11.7c0,0,0.3,0,0.2,0.1C20.2,11.8,20.1,11.8,20.1,11.7
					C20.1,11.6,20.1,11.7,20.1,11.7z M18.1,9c-0.1-0.1-0.1-0.1,0.1-0.2C18.3,8.8,18.3,8.9,18.1,9C18.1,9,18.2,8.9,18.1,9z"/>
				<g>
					<g>
						<path class="st2" d="M46.2,19.7C46.2,19.7,46.2,19.7,46.2,19.7C46.2,19.7,46.2,19.7,46.2,19.7C46.2,19.7,46.2,19.7,46.2,19.7
							C46.2,19.8,46.2,19.8,46.2,19.7c-0.1,0.1-0.1,0.1-0.1,0.1c0,0,0,0,0,0c0,0,0,0,0,0c0,0,0,0,0,0c0,0,0,0,0,0c0,0,0,0,0,0.1
							c0,0,0,0,0,0c0,0,0,0,0,0c0,0,0,0,0,0c0,0,0,0,0,0c0,0,0,0,0,0c0,0,0,0,0,0c0,0,0,0,0,0c0,0,0,0,0,0c0,0,0,0,0,0c0,0,0,0,0,0
							c0,0,0,0,0,0c0,0,0,0,0,0c0,0,0,0,0,0c0,0,0,0,0,0c0,0,0,0,0,0c0,0,0,0,0,0c0,0,0,0,0-0.1c0,0,0,0,0,0c0,0,0,0,0,0
							c0,0,0,0,0,0c0,0,0,0,0,0c0,0,0,0,0,0c0,0,0,0,0,0c0,0,0,0,0,0c0,0,0,0,0,0c0,0,0,0,0,0c0,0,0,0,0,0c0,0,0,0,0,0c0,0,0,0,0,0
							c0,0,0,0,0,0c0,0,0,0,0,0c0,0,0,0,0,0c0,0,0,0,0,0c0,0,0,0,0,0c0,0,0,0,0,0c0,0,0,0,0,0c0,0,0,0,0,0c0,0,0,0,0,0c0,0,0,0,0,0
							C46.1,19.7,46.1,19.7,46.2,19.7C46.1,19.7,46.1,19.7,46.2,19.7C46.1,19.7,46.1,19.7,46.2,19.7C46.2,19.7,46.2,19.7,46.2,19.7
							C46.2,19.7,46.2,19.7,46.2,19.7C46.2,19.7,46.2,19.7,46.2,19.7C46.2,19.7,46.2,19.7,46.2,19.7z"/>
					</g>
					<g>
						<path class="st2" d="M47.9,19.3C47.9,19.3,47.9,19.3,47.9,19.3C47.9,19.3,47.9,19.3,47.9,19.3C47.9,19.3,47.9,19.4,47.9,19.3
							c0,0.1,0,0.1,0,0.1c0,0,0,0,0,0c0,0,0,0,0,0c0,0,0,0,0,0c0,0,0,0,0,0c0,0,0,0,0,0c0,0,0,0,0,0c0,0,0,0,0,0c0,0,0,0,0,0
							c0,0,0,0,0,0c0,0,0,0,0,0c0,0,0,0,0,0c0,0,0,0,0,0c0,0,0,0,0,0c0,0,0,0,0,0c0,0,0,0,0,0c0,0,0,0,0,0c0,0,0,0,0,0c0,0,0,0,0,0
							c0,0,0,0,0,0c0,0,0,0,0,0c0,0,0,0,0,0c0,0,0,0,0,0c0,0,0,0,0,0c0,0,0,0,0,0c0,0,0,0,0,0C47.8,19.4,47.8,19.3,47.9,19.3
							C47.8,19.3,47.8,19.3,47.9,19.3C47.8,19.3,47.8,19.3,47.9,19.3C47.8,19.3,47.8,19.4,47.9,19.3C47.8,19.4,47.8,19.3,47.9,19.3
							C47.8,19.3,47.9,19.3,47.9,19.3C47.9,19.3,47.9,19.3,47.9,19.3C47.9,19.3,47.9,19.3,47.9,19.3z"/>
					</g>
					<g>
						<path class="st2" d="M47.6,19.6C47.6,19.6,47.6,19.6,47.6,19.6C47.6,19.6,47.6,19.6,47.6,19.6C47.6,19.6,47.6,19.6,47.6,19.6
							C47.7,19.7,47.7,19.7,47.6,19.6c0,0.1,0,0.1,0,0.1c0,0,0,0,0,0.1c0,0,0,0,0,0c0,0,0,0,0,0c0,0,0,0,0,0c0,0,0,0,0,0
							c0,0,0,0,0,0c0,0,0,0,0,0c0,0,0,0,0,0c0,0,0,0,0,0c0,0,0,0,0,0c0,0,0,0-0.1,0c0,0,0,0,0,0c0,0,0,0,0,0c0,0,0,0,0,0
							c0,0,0,0,0,0c0,0,0,0,0,0.1c0,0,0,0,0,0c0,0,0,0,0,0c0,0,0,0,0,0c0,0,0,0,0,0c0,0,0,0,0,0c0,0,0,0,0,0c0,0,0,0,0,0
							c0,0,0,0,0,0c0,0,0,0,0,0c0,0,0,0,0,0c0,0,0,0,0,0c0,0,0,0,0,0c0,0,0,0,0,0c0,0,0,0,0,0c0,0,0.1,0,0.1-0.1c0,0,0,0,0,0
							c0,0,0,0,0-0.1c0,0,0,0,0,0c0,0,0,0,0,0c0,0,0,0,0,0c0,0,0,0,0,0C47.5,19.7,47.5,19.7,47.6,19.6
							C47.5,19.7,47.5,19.7,47.6,19.6C47.5,19.7,47.5,19.6,47.6,19.6C47.5,19.6,47.5,19.6,47.6,19.6C47.6,19.6,47.6,19.6,47.6,19.6
							C47.6,19.6,47.6,19.6,47.6,19.6C47.6,19.6,47.6,19.6,47.6,19.6z"/>
					</g>
					<g>
						<path class="st2" d="M46.7,20C46.7,20,46.7,20,46.7,20C46.7,20,46.7,20,46.7,20C46.7,20,46.7,20,46.7,20
							C46.7,20,46.7,20,46.7,20C46.7,20,46.7,20.1,46.7,20c0,0.1,0,0.1,0,0.1c0,0,0,0,0,0c0,0,0,0,0,0c0,0,0,0,0,0c0,0,0,0,0,0
							c0,0,0,0,0,0c0,0,0,0,0,0c0,0,0,0,0,0c0,0,0,0,0,0c0,0,0,0,0,0c0,0,0,0,0,0c0,0,0,0,0,0c0,0,0,0,0,0c0,0,0,0,0,0c0,0,0,0,0,0
							c0,0,0,0,0,0c0,0,0,0,0,0c0,0,0,0,0,0c0,0,0,0,0,0c0,0,0,0,0,0c0,0,0,0,0,0c0,0,0,0,0,0c0,0,0,0,0,0c0,0,0,0,0,0c0,0,0,0,0,0
							c0,0,0,0,0,0c0,0,0,0,0,0c0,0,0,0,0,0c0,0,0,0,0,0c0,0,0,0,0,0c0,0,0,0,0,0c0,0,0,0,0,0c0,0,0,0,0,0C46.6,20,46.6,20,46.7,20
							C46.6,20,46.6,20,46.7,20C46.6,20,46.6,20,46.7,20C46.6,20,46.6,20,46.7,20C46.6,20,46.6,20,46.7,20C46.6,20,46.7,20,46.7,20
							C46.7,20,46.7,20,46.7,20z"/>
					</g>
					<g>
						<path class="st2" d="M45.1,19.5C45.1,19.5,45.1,19.5,45.1,19.5C45.1,19.5,45.1,19.5,45.1,19.5C45.1,19.5,45.2,19.5,45.1,19.5
							C45.2,19.5,45.2,19.5,45.1,19.5C45.2,19.5,45.2,19.5,45.1,19.5C45.2,19.5,45.2,19.5,45.1,19.5c0.1,0,0.1,0,0.1,0.1
							c0,0,0,0,0,0c0,0,0,0,0,0c0,0,0,0,0,0c0,0,0,0,0,0c0,0,0,0,0,0c0,0,0,0,0,0c0,0,0,0,0,0c0,0,0,0,0,0c0,0,0,0,0,0c0,0,0,0,0,0
							c0,0,0,0,0,0c0,0,0,0,0,0c0,0,0,0,0,0c0,0,0,0,0,0c0,0,0,0,0,0c0,0,0,0,0,0c0,0,0,0,0,0C45.1,19.6,45.1,19.6,45.1,19.5
							C45.1,19.6,45.1,19.6,45.1,19.5C45.1,19.6,45.1,19.5,45.1,19.5C45.1,19.5,45.1,19.5,45.1,19.5z"/>
					</g>
					<g>
						<path class="st2" d="M45.5,19.9C45.5,19.9,45.5,19.9,45.5,19.9C45.5,20,45.5,20,45.5,19.9C45.6,20,45.6,20,45.5,19.9
							C45.6,20,45.6,20,45.5,19.9C45.6,20,45.6,20,45.5,19.9c0.1,0.1,0.1,0.1,0.1,0.1c0,0,0,0,0,0c0,0,0,0,0,0c0,0,0,0,0,0
							c0,0,0,0,0,0c0,0,0,0,0,0c0,0,0,0,0,0c0,0,0,0,0,0C45.5,20,45.5,20,45.5,19.9C45.5,20,45.5,20,45.5,19.9
							C45.5,20,45.5,20,45.5,19.9C45.5,19.9,45.5,19.9,45.5,19.9z"/>
					</g>
					<g>
						<path class="st2" d="M45.1,20.2C45.1,20.2,45.1,20.2,45.1,20.2C45.1,20.2,45.1,20.2,45.1,20.2C45.1,20.2,45.1,20.2,45.1,20.2
							C45.1,20.2,45.1,20.2,45.1,20.2C45.1,20.3,45.1,20.3,45.1,20.2c0,0.1,0,0.1,0,0.1c0,0,0,0,0,0c0,0,0,0,0,0c0,0,0,0,0,0
							c0,0,0,0,0,0c0,0,0,0,0,0c0,0,0,0,0,0c0,0,0,0,0,0c0,0,0,0,0,0c0,0,0,0,0,0c0,0,0,0,0,0C45,20.2,45,20.2,45.1,20.2
							C45,20.2,45,20.2,45.1,20.2C45,20.2,45,20.2,45.1,20.2C45,20.2,45.1,20.2,45.1,20.2C45.1,20.2,45.1,20.2,45.1,20.2
							C45.1,20.2,45.1,20.2,45.1,20.2C45.1,20.2,45.1,20.2,45.1,20.2C45.1,20.2,45.1,20.2,45.1,20.2z"/>
					</g>
				</g>
			</g>
		</g>
	</g>
	<g>
		<path class="st3" d="M23.2,15.9c-1.5,0.2-3,0.8-3.9,1.9c-0.6,0.7-0.6,1.6-0.5,2.4c0.1-0.1,0.3-0.2,0.5-0.1c0.8,0.3,1.9,1,3,1.7
			c0,0,0,0,0.1,0c2.2,0.7,4.1,1,4.8,2.9c0.1,0.2,0.1,0.4,0.2,0.5c0.1,0,0.1,0.1,0.2,0.1c1-0.2,1.9-1,2.5-2.1
			c0.8-1.8-0.1-3.2-0.9-4.4c-0.6-0.8-1.2-1.4-1.9-1.9c-0.9-0.4-1.8-0.8-2.8-1.1C23.9,15.9,23.6,15.9,23.2,15.9z"/>
		<path class="st4" d="M17.2,49.5C17.2,49.5,17.2,49.5,17.2,49.5l0,6.3c2.4-0.1,4.3-3.7,5-5.1c-0.3-0.1-0.4-0.1-0.4-0.1h-0.1
			c0,0-0.1,0-0.1,0c-0.6-0.1-0.9-0.9-1.2-2c0-0.2-0.1-0.4-0.1-0.6C20,48.3,19,49.5,17.2,49.5z"/>
		<path class="st4" d="M24.1,51.5c-0.1,0-0.1-0.1-0.2-0.1c-1.5,5.3,2.2,5.1,3.3,7.9c0,0,0,0.1,0,0.1c0.4-0.2,0.7-0.3,1.1-0.5
			C27.7,54.7,25.7,52.4,24.1,51.5z"/>
		<path class="st5" d="M17.2,49.5c-1.9,0-2.8-1.2-3.1-1.6v0c0.1-0.4,0.1-0.7,0.2-1.1c0-0.1,0-0.3,0-0.4c0,0,0,0,0,0
			c0,0.1,0,0.3,0,0.4c0,0.4-0.1,0.8-0.2,1.1v0c0,0.2-0.1,0.3-0.1,0.5c-0.2,1.1-0.6,1.9-1.1,2.1c0,0-0.1,0-0.1,0c-0.1,0-0.2,0-0.3,0
			c0,0-0.1,0-0.2,0c1.6,3.9,3.3,5.2,4.7,5.1c0,0,0,0,0.1,0L17.2,49.5C17.2,49.5,17.2,49.5,17.2,49.5z"/>
		<path class="st5" d="M10.7,51.2c-1.6,0.9-3.9,3.1-4.6,7.5c0.4,0.2,0.7,0.4,1.1,0.6c0,0,0-0.1,0-0.1C8.8,55,12.5,56,10.7,51.2z"/>
		<path class="st6" d="M20.2,46.8c0,0.4,0.1,0.8,0.2,1.1c0,0,0,0,0,0c0,0,0,0,0,0C20.2,47.6,20.2,47.2,20.2,46.8
			c0-0.2,0-0.4-0.1-0.7c0,0,0,0,0,0C20.1,46.3,20.1,46.6,20.2,46.8z"/>
		<path class="st4" d="M20.2,46.8c0-0.2,0-0.4-0.1-0.7c-1,0.4-1.9,0.6-2.8,0.6v2.7c0,0,0,0,0,0c1.8,0,2.8-1.2,3.1-1.6c0,0,0,0,0,0
			C20.2,47.5,20.2,47.2,20.2,46.8z"/>
		<path class="st6" d="M20.2,46.8c0-0.2,0-0.4-0.1-0.7c-1,0.4-1.9,0.6-2.8,0.6v2.7c0,0,0,0,0,0c1.8,0,2.8-1.2,3.1-1.6c0,0,0,0,0,0
			C20.2,47.5,20.2,47.2,20.2,46.8z"/>
		<path class="st5" d="M14.3,46.7c0,0.4-0.1,0.8-0.2,1.1v0c0.3,0.4,1.2,1.6,3.1,1.6c0,0,0,0,0,0v-2.7c-1,0-2-0.1-2.9-0.4
			C14.3,46.5,14.3,46.6,14.3,46.7z"/>
		<path class="st6" d="M14.3,46.7c0,0.4-0.1,0.8-0.2,1.1v0c0.3,0.4,1.2,1.6,3.1,1.6c0,0,0,0,0,0v-2.7c-1,0-2-0.1-2.9-0.4
			C14.3,46.5,14.3,46.6,14.3,46.7z"/>
		<path class="st7" d="M27.6,32.9c0.1-1,0.2-1.9,0.1-2.8c0,1.1-0.1,1.9-0.1,2.2C27.6,32.5,27.6,32.7,27.6,32.9z"/>
		<path class="st7" d="M8.4,35.1c0.2-1,0.8-1.8,1.6-2.4c0.6-0.4,1.4-0.7,2.2-0.7c0.8,0,1.5,0.2,2.1,0.6c1.1,0.7,1.8,1.9,1.8,3.3
			c0.1-0.1,0.3-0.1,0.4-0.1c0.4-0.1,0.8-0.1,1.3,0c0.2,0,0.4,0.1,0.5,0.1c0.1-1.8,1.2-3.3,2.8-3.8c0.4-0.1,0.7-0.2,1.1-0.2
			c0.4,0,0.9,0.1,1.3,0.2c1,0.3,1.8,1.1,2.2,2c-0.6-2.1-2.5-7.6-5.4-5.6c-0.7,0.7-1.6,1.2-2.7,1.4c-0.2,0-0.4,0-0.6,0.1
			c-0.2,0-0.4,0-0.6-0.1c-1.1-0.2-2.1-0.7-2.7-1.4C10.3,26.2,8.2,35,8.2,35c0,0,0,0.1,0,0.1C8.3,35.1,8.3,35.1,8.4,35.1
			C8.4,35.1,8.4,35.1,8.4,35.1z"/>
		<path class="st7" d="M26.7,35.5v1c0.2-0.2,0.6-0.2,0.8,0.5c0.2,0.6,0.1,1.7-0.2,2.2c-0.1,0.2-0.6,0.9-0.7,1
			c-0.2,0.2-0.5,0.5-0.6,0.1c0-0.2,0-0.4,0-0.7c0.1-0.2,0.2-0.3,0.2-0.4c0.1-0.1,0.2-0.2,0.3-0.7c0-0.5-0.1-0.5-0.2-0.8
			c-0.1-0.4,0-0.6,0.1-0.8c0,0-0.1,0-0.1,0c0,0,0,0,0,0c0,0,0,0.1,0,0.1c-0.3,1.3-1.2,2.3-2.3,2.8c-0.5,0.2-1,0.3-1.5,0.3
			c-1.1,0-2-0.4-2.7-1.1c-0.5-0.4-0.8-1-1-1.6c0,0,0-0.1-0.1-0.1c0,0,0,0,0,0c-0.1-0.3-0.2-0.6-0.2-1c-0.2-0.1-0.3-0.1-0.5-0.2
			c-0.5-0.1-0.9-0.1-1.3,0.1c-0.1,0-0.3,0.1-0.4,0.2c-0.1,0.7-0.3,1.3-0.6,1.8c0,0,0,0,0,0c-0.1,0.1-0.1,0.1-0.2,0.2
			c-0.7,1-1.9,1.7-3.2,1.7c-0.4,0-0.7-0.1-1.1-0.2c-1-0.3-1.8-0.9-2.3-1.8c-0.2-0.4-0.4-0.8-0.5-1.3c0,0,0,0,0,0
			c-0.2,0-0.4-0.2-0.4-0.4v-0.4C8,36,7.9,35.9,7.8,35.7C4.6,35.4,7.6,42.4,9,41c0.1,1.7,2.3,4.3,5.3,5.3c0-0.1,0-0.2,0-0.3
			c0.1-1.2,0.1-2.4,0.1-3.7c0,0,1.5,0.1,2.7,0.1h0c1.2,0,2.7-0.1,2.7-0.1c0,1.2,0,2.5,0.1,3.7c0,0,0,0,0,0c0,0,0,0,0,0
			c0,0,0,0,0,0.1c1.9-0.8,4-2.4,5.9-5.1c1.6,2.1,3.4-5.8,1-5.3c0.1-0.2,0.1-0.5,0.2-0.7C27.1,35.2,26.9,35.3,26.7,35.5z M8.4,40.5
			c-0.1,0.4-0.4,0.1-0.7-0.1c-0.2-0.1-0.7-0.8-0.8-1.1c-0.3-0.6-0.5-1.8-0.2-2.5c0.4-1,1-0.6,1.1-0.4C8,36.7,8.1,37,8,37.6
			C8,38,7.8,38,7.8,38.5c0.1,0.6,0.2,0.6,0.3,0.7c0.1,0.1,0.2,0.2,0.3,0.5C8.4,40,8.5,40.2,8.4,40.5z M17.4,41.8c-1,0-2.5-0.7-1.8-1
			c0.1,0,1,0.1,1.5,0.1c-0.1-0.1-0.1-0.1-0.1-0.2c0,0,0,0,0,0s0.2-0.1,0.4,0.1c0,0,0.1,0.1,0.1,0.1c0.6-0.1,1.9-0.3,1.9,0.2
			C19.4,41.4,17.7,41.8,17.4,41.8z"/>
		<path class="st7" d="M22.3,21.9C22.3,21.9,22.3,21.9,22.3,21.9C22.3,21.9,22.3,21.9,22.3,21.9C22.3,21.9,22.3,21.9,22.3,21.9z"/>
		<path class="st7" d="M19.4,43.6L19,43.7h0.4H19L18.2,44h-0.9v2.4c0,0,0,0,0,0h0c1,0,1.9-0.1,2.8-0.3c0,0,0,0,0,0
			c-0.1-1.2-0.1-2.5-0.1-3.7c0,0-1.5,0.1-2.7,0.1v1.1H19.4z"/>
		<path class="st7" d="M14.4,46c0.9,0.2,1.8,0.4,2.9,0.4V44h-0.9l-0.9-0.5h1.7v-1.1h0c-1.2,0-2.7-0.1-2.7-0.1
			C14.5,43.6,14.5,44.9,14.4,46c0,0.1,0,0.2,0,0.3c0,0,0,0,0,0C14.4,46.2,14.4,46.1,14.4,46z"/>
		<path class="st7" d="M20.1,46.1C20.1,46.1,20.1,46.1,20.1,46.1C20.1,46.1,20.1,46.1,20.1,46.1C20.1,46.1,20.1,46.1,20.1,46.1
			C20.1,46.1,20.1,46.1,20.1,46.1z"/>
		<path class="st7" d="M17.2,46.4C17.2,46.4,17.2,46.4,17.2,46.4l0,0.3c0.9,0,1.9-0.2,2.8-0.6c0,0,0,0,0-0.1
			C19.2,46.3,18.3,46.4,17.2,46.4L17.2,46.4z"/>
		<path class="st7" d="M14.4,46c0,0.1,0,0.2,0,0.3c0.9,0.3,1.9,0.5,2.9,0.4v-0.3C16.2,46.4,15.3,46.3,14.4,46z"/>
		<path class="st7" d="M17.5,40.9c0,0-0.1-0.1-0.1-0.1c-0.2-0.1-0.4-0.1-0.4-0.1s0,0,0,0c0,0,0.1,0.1,0.1,0.2c0.1,0,0.2,0,0.3,0
			C17.4,40.9,17.5,40.9,17.5,40.9z"/>
		<path class="st4" d="M8.1,39.3c-0.1-0.1-0.2-0.2-0.3-0.7C7.8,38,8,38,8,37.6c0.1-0.6,0-0.9-0.2-1.2c-0.1-0.2-0.7-0.7-1.1,0.4
			c-0.2,0.7-0.1,1.8,0.2,2.5c0.1,0.2,0.6,0.9,0.8,1.1c0.2,0.2,0.6,0.5,0.7,0.1c0-0.2,0-0.5,0-0.7C8.3,39.5,8.2,39.4,8.1,39.3z"/>
		<path class="st4" d="M17.5,40.9c0,0.1,0.1,0.1,0.1,0.2c0,0.1-0.1,0.1-0.1,0.1c-0.1,0-0.3-0.2-0.4-0.3c-0.5,0-1.4-0.2-1.5-0.1
			c-0.7,0.3,0.8,1,1.8,1c0.3,0,2-0.4,2-0.7C19.4,40.5,18.1,40.8,17.5,40.9z"/>
		<path class="st4" d="M17.5,41.2c0,0,0,0,0.1-0.1c0-0.1,0-0.1-0.1-0.2c-0.1,0-0.1,0-0.2,0c-0.1,0-0.2,0-0.3,0
			C17.2,41,17.4,41.2,17.5,41.2z"/>
		<path class="st4" d="M26.4,36.9c-0.1,0.2-0.1,0.4-0.1,0.8c0,0.3,0.2,0.3,0.2,0.8c-0.1,0.5-0.2,0.6-0.3,0.7
			c-0.1,0.1-0.2,0.2-0.2,0.4c0,0.2-0.1,0.5,0,0.7c0,0.4,0.4,0.1,0.6-0.1c0.1-0.1,0.6-0.8,0.7-1c0.3-0.6,0.4-1.6,0.2-2.2
			c-0.2-0.7-0.6-0.6-0.8-0.5v0C26.7,36.7,26.6,36.9,26.4,36.9z"/>
		<path class="st3" d="M27.4,34.8c0.1-0.2,0.2-1.1,0.2-1.8c-0.1,0.7-0.2,1.4-0.4,2.1C27.3,34.9,27.4,34.9,27.4,34.8z"/>
		<path class="st3" d="M8,35.7c-3-10.8,4.4-15.7,11-14.8c0-0.1,0-0.1-0.1-0.2c-0.1,0-0.1-0.1-0.2-0.2c-0.6-0.2-1.2-0.2-1.8-0.2
			c-1-0.1-1.9,0.1-3.3,0.7c-3.1,1.5-4.8,1.2-5.8,3.7c-1,2.5-1.1,6.9-1.1,7.6c0,0.7,0.1,2.1,0.2,2.4c0.1,0.2,0.5,0.4,0.8,1
			C7.9,35.7,7.9,35.7,8,35.7L8,35.7z"/>
		<path class="st3" d="M27,25.5L27,25.5c-0.1,0-0.2,0-0.2,0c-0.1,0.1-0.2,0.2-0.3,0.3c0.7,1.2,1.1,2.7,1.2,4.4c0-1.4,0-3.2-0.4-4.6
			c0,0,0,0,0,0C27.2,25.5,27.1,25.5,27,25.5z"/>
		<path class="st3" d="M27.3,25.3c-0.1-0.2-0.1-0.4-0.2-0.5c-0.7-1.9-2.6-2.2-4.8-2.9c0.8,0.4,1.5,0.9,2.2,1.5
			C25.7,24.2,26.8,24.9,27.3,25.3z"/>
		<path class="st3" d="M26.5,25.8c0.1-0.1,0.2-0.2,0.3-0.3c0.1,0,0.1,0,0.2,0l-1.2-0.7C26.1,25.1,26.3,25.4,26.5,25.8z"/>
		<path class="st3" d="M19,20.8c0,0-0.1-0.1-0.1-0.1c0,0.1,0,0.1,0.1,0.2c0.1,0,0.2,0,0.3,0.1L19,20.8z"/>
		<path class="st3" d="M8,35.7c-0.1,0-0.1,0-0.2,0C7.9,35.9,8,36,8,36.2V35.7z"/>
		<path class="st3" d="M24.5,26.2l-4.2-2.1c-0.7-0.4-1-1.3-0.9-2.3c-0.2-0.2-0.4-0.5-0.5-0.8c-6.6-0.9-13.9,4-11,14.8v-0.2
			c0-0.1,0.1-0.3,0.2-0.3c0,0,0-0.1,0-0.1c0,0,2.1-8.9,5.6-6.5c0.7,0.7,1.6,1.2,2.7,1.4c0.2,0,0.4,0,0.6,0.1c0.2,0,0.4,0,0.6-0.1
			c1.1-0.2,2.1-0.7,2.7-1.4c2.8-1.9,4.8,3.5,5.4,5.6c0.1,0.3,0.3,0.6,0.3,0.9c0,0,0,0,0.1,0c0.2,0,0.4,0.2,0.4,0.4v0.1
			c0.2-0.2,0.4-0.4,0.5-0.5c0.2-0.7,0.3-1.4,0.4-2.1c0-0.2,0-0.4,0-0.5c0-0.3,0.1-1.2,0.1-2.2c-0.1-1.7-0.6-3.1-1.2-4.4
			C25.8,26.3,25.1,26.5,24.5,26.2z"/>
		<path class="st3" d="M19.3,21c-0.1,0-0.2,0-0.3-0.1c0.1,0.3,0.3,0.6,0.5,0.8c-0.1,1,0.2,2,0.9,2.3l4.2,2.1c0.6,0.3,1.3,0.1,2-0.4
			c-0.2-0.4-0.4-0.7-0.7-1L19.3,21z"/>
		<path class="st3" d="M24.5,23.4c-0.7-0.6-1.4-1.1-2.2-1.5c0,0,0,0,0,0C23,22.4,23.8,22.9,24.5,23.4z"/>
		<path class="st8" d="M24,51.4c-0.7-0.4-1.3-0.6-1.7-0.7c-0.7,1.4-2.6,5-5,5.1v5.9c0,0,0.1,0,0.1,0c3.6,0,7-0.8,10-2.2
			c0,0,0-0.1,0-0.1C26.2,56.5,22.4,56.7,24,51.4z"/>
		<path class="st8" d="M17.2,55.8c-1.5,0-3.1-1.3-4.7-5.1c-0.3,0.1-0.8,0.2-1.5,0.5c-0.1,0-0.2,0.1-0.3,0.1c1.8,4.8-1.9,3.8-3.5,8
			c0,0,0,0.1,0,0.1c3,1.5,6.5,2.3,10.1,2.3L17.2,55.8C17.2,55.8,17.2,55.8,17.2,55.8z M17.2,58.6C17.2,58.6,17.2,58.6,17.2,58.6
			C17.2,58.6,17.2,58.6,17.2,58.6z"/>
		<path class="st7" d="M25.6,37.3c0.1-0.4,0.2-0.8,0.2-1.2c0-1.9-1.5-3.5-3.4-3.5c-1.9,0-3.4,1.6-3.4,3.5c0,0.3,0,0.7,0.1,1
			C21.6,35.9,24.1,36.6,25.6,37.3z"/>
		<path class="st9" d="M25.6,37.3c0.1-0.4,0.2-0.8,0.2-1.2c0-1.9-1.5-3.5-3.4-3.5c-1.9,0-3.4,1.6-3.4,3.5c0,0.3,0,0.7,0.1,1
			C21.6,35.9,24.1,36.6,25.6,37.3z"/>
		<path class="st7" d="M15.1,37.9c0.3-0.5,0.5-1.2,0.5-1.8c0-1.9-1.5-3.5-3.4-3.5c-1.9,0-3.4,1.6-3.4,3.5c0,0.6,0.2,1.2,0.5,1.7
			C11.5,36.6,13.6,37.1,15.1,37.9z"/>
		<path class="st9" d="M15.1,37.9c0.3-0.5,0.5-1.2,0.5-1.8c0-1.9-1.5-3.5-3.4-3.5c-1.9,0-3.4,1.6-3.4,3.5c0,0.6,0.2,1.2,0.5,1.7
			C11.5,36.6,13.6,37.1,15.1,37.9z"/>
		<path class="st7" d="M18.6,37.4C18.7,37.4,18.7,37.4,18.6,37.4C18.7,37.4,18.7,37.4,18.6,37.4C18.7,37.3,18.6,37.3,18.6,37.4z"/>
		<path class="st9" d="M18.6,37.4C18.7,37.4,18.7,37.4,18.6,37.4C18.7,37.4,18.7,37.4,18.6,37.4C18.7,37.3,18.6,37.3,18.6,37.4z"/>
		<path class="st10" d="M18.6,37.4C18.7,37.4,18.7,37.4,18.6,37.4C18.7,37.4,18.7,37.4,18.6,37.4C18.7,37.3,18.6,37.3,18.6,37.4z"/>
		<path class="st7" d="M19.2,37.1c0.4,1.4,1.7,2.5,3.2,2.5c1.5,0,2.7-0.9,3.2-2.3C24.1,36.6,21.6,35.9,19.2,37.1z"/>
		<path class="st9" d="M19.2,37.1c0.4,1.4,1.7,2.5,3.2,2.5c1.5,0,2.7-0.9,3.2-2.3C24.1,36.6,21.6,35.9,19.2,37.1z"/>
		<path class="st10" d="M19.2,37.1c0.4,1.4,1.7,2.5,3.2,2.5c1.5,0,2.7-0.9,3.2-2.3C24.1,36.6,21.6,35.9,19.2,37.1z"/>
		<path class="st7" d="M15.7,38.2C15.7,38.2,15.7,38.2,15.7,38.2c-0.1,0.1-0.1,0.1-0.2,0.2C15.6,38.4,15.6,38.3,15.7,38.2z"/>
		<path class="st9" d="M15.7,38.2C15.7,38.2,15.7,38.2,15.7,38.2c-0.1,0.1-0.1,0.1-0.2,0.2C15.6,38.4,15.6,38.3,15.7,38.2z"/>
		<path class="st10" d="M15.7,38.2C15.7,38.2,15.7,38.2,15.7,38.2c-0.1,0.1-0.1,0.1-0.2,0.2C15.6,38.4,15.6,38.3,15.7,38.2z"/>
		<path class="st7" d="M9.3,37.8c0.6,1,1.7,1.8,2.9,1.8c1.2,0,2.3-0.7,2.9-1.7C13.6,37.1,11.5,36.6,9.3,37.8z"/>
		<path class="st9" d="M9.3,37.8c0.6,1,1.7,1.8,2.9,1.8c1.2,0,2.3-0.7,2.9-1.7C13.6,37.1,11.5,36.6,9.3,37.8z"/>
		<path class="st10" d="M9.3,37.8c0.6,1,1.7,1.8,2.9,1.8c1.2,0,2.3-0.7,2.9-1.7C13.6,37.1,11.5,36.6,9.3,37.8z"/>
		<path class="st11" d="M8,36.2v0.4c0,0.2,0.2,0.4,0.4,0.4c0,0,0,0,0,0c0.1,0.5,0.3,0.9,0.5,1.3c0.5,0.9,1.3,1.5,2.3,1.8
			c0.3,0.1,0.7,0.2,1.1,0.2c1.3,0,2.5-0.7,3.2-1.7c0.1-0.1,0.1-0.1,0.1-0.2c0.3-0.5,0.5-1.1,0.6-1.8c0.1-0.1,0.3-0.1,0.4-0.2
			c0.4-0.1,0.9-0.1,1.3-0.1c0.2,0,0.4,0.1,0.5,0.2c0,0.3,0.1,0.7,0.2,1c0,0,0,0.1,0,0.1c0.2,0.6,0.6,1.2,1,1.6
			c0.7,0.7,1.7,1.1,2.7,1.1c0.5,0,1-0.1,1.5-0.3c1.2-0.5,2-1.5,2.3-2.8c0,0,0-0.1,0-0.1c0,0,0,0,0,0c0,0,0.1,0,0.1,0
			c0-0.1,0.1-0.2,0.1-0.2c0,0,0.1-0.1,0.1-0.2v-1c-0.1,0.2-0.3,0.4-0.3,0.6c-0.3,0.9-0.4,0.7-0.4,0.7S26,36,26.2,35
			c0,0-0.1-0.3-0.2-0.8c-0.5-0.9-1.3-1.6-2.2-2c-0.4-0.1-0.8-0.2-1.3-0.2c-0.4,0-0.8,0.1-1.1,0.2c-1.6,0.5-2.8,2-2.8,3.8
			c-0.2-0.1-0.4-0.1-0.5-0.1c-0.4-0.1-0.9-0.1-1.3,0c-0.1,0-0.3,0.1-0.4,0.1c0-1.4-0.8-2.6-1.8-3.3c-0.6-0.4-1.4-0.6-2.1-0.6
			c-0.8,0-1.6,0.3-2.2,0.7c-0.8,0.6-1.4,1.4-1.6,2.4c0,0,0,0,0,0c-0.1,0-0.1,0-0.2,0c0.1,1,0.2,1.8,0.2,1.8S8.3,37.1,8,36.2z
			 M22.4,32.6c1.9,0,3.4,1.6,3.4,3.5c0,0.4-0.1,0.8-0.2,1.2c-0.5,1.3-1.7,2.3-3.2,2.3c-1.5,0-2.8-1.1-3.2-2.5
			c-0.1-0.3-0.1-0.6-0.1-1C19,34.2,20.6,32.6,22.4,32.6z M12.2,32.6c1.9,0,3.4,1.6,3.4,3.5c0,0.7-0.2,1.3-0.5,1.8
			c-0.6,1-1.7,1.7-2.9,1.7c-1.3,0-2.3-0.7-2.9-1.8c-0.3-0.5-0.5-1.1-0.5-1.7C8.9,34.2,10.4,32.6,12.2,32.6z"/>
		<path class="st11" d="M26.6,36.7c0,0.1-0.1,0.2-0.1,0.2c0.1,0,0.3-0.2,0.3-0.3v0C26.6,36.6,26.6,36.6,26.6,36.7z"/>
		<path class="st11" d="M8,35.7C8,35.7,8,35.7,8,35.7L8,35.7C8,35.7,8,35.7,8,35.7z"/>
		<path class="st11" d="M25.9,36.9c0,0,0.1,0.2,0.4-0.7c0.1-0.3,0.2-0.5,0.3-0.6v-0.1c0-0.2-0.2-0.4-0.4-0.4c0,0,0,0-0.1,0
			c-0.1-0.3-0.2-0.6-0.3-0.9c0.1,0.5,0.2,0.8,0.2,0.8C26,36,25.9,36.9,25.9,36.9z"/>
		<path class="st11" d="M8,35.7v0.4c0.3,0.9,0.4,0.7,0.4,0.7s-0.1-0.8-0.2-1.8C8.1,35.2,8,35.3,8,35.5V35.7C8,35.7,8,35.7,8,35.7
			C8,35.7,8,35.7,8,35.7z"/>
		<polygon class="st12" points="19,43.7 19.4,43.6 17.2,43.6 17.2,43.7 		"/>
		<polygon class="st12" points="19,43.7 17.2,43.7 17.2,44 18.2,44 		"/>
		<polygon class="st12" points="15.8,43.7 17.2,43.7 17.2,43.6 15.5,43.6 16.4,44 17.2,44 17.2,43.7 		"/>
		<path class="st8" d="M27.3,25.5c0.3-0.1-0.2,0.2,0.3,0C27.6,25.5,27.5,25.5,27.3,25.5C27.4,25.4,27.4,25.4,27.3,25.5
			C27.3,25.5,27.3,25.5,27.3,25.5z"/>
		<path class="st8" d="M18.8,20.3c0,0.1-0.1,0.1-0.1,0.2c0,0,0,0,0,0c0,0,0.1,0,0.1,0C18.8,20.5,18.8,20.4,18.8,20.3z"/>
		<path class="st8" d="M27.3,25.4c0,0,0.1,0,0.1,0c0,0-0.1-0.1-0.2-0.1C27.3,25.3,27.3,25.4,27.3,25.4z"/>
		<path class="st8" d="M20.2,21.1c0.1,0,0.2,0.1,0.3,0.1c0.6,0.2,1.2,0.4,1.7,0.6c-1.1-0.7-2.2-1.4-3-1.7c-0.2-0.1-0.4,0-0.5,0.1
			c0,0.1,0,0.2,0.1,0.3C19.3,20.7,19.7,20.9,20.2,21.1z"/>
		<path class="st8" d="M22.3,21.9C22.3,21.9,22.3,21.9,22.3,21.9c-0.6-0.3-1.2-0.5-1.8-0.7C21.1,21.5,21.7,21.7,22.3,21.9z"/>
		<path class="st8" d="M27,25.5L27,25.5c0.1,0.1,0.2,0.1,0.3,0.1c0,0,0,0,0,0c0,0,0,0,0-0.1C27.2,25.5,27.1,25.5,27,25.5z"/>
		<path class="st8" d="M18.9,20.7c0,0,0-0.1,0-0.1c0,0-0.1,0-0.1,0C18.8,20.6,18.8,20.7,18.9,20.7z"/>
		<path class="st8" d="M25.8,24.8l1.2,0.7c0.1,0,0.2,0,0.3,0c0,0,0-0.1,0-0.1c-0.5-0.4-1.6-1.1-2.8-1.9C25,23.8,25.4,24.2,25.8,24.8
			z"/>
		<path class="st8" d="M19.3,21c0.4,0.1,0.8,0.2,1.2,0.3c-0.1,0-0.2-0.1-0.3-0.1c-0.5-0.3-1-0.4-1.4-0.5c0,0,0,0.1,0,0.1
			c0,0,0.1,0,0.1,0.1L19.3,21z"/>
		<path class="st8" d="M25.8,24.8c-0.4-0.5-0.8-1-1.3-1.4c-0.7-0.5-1.5-1-2.2-1.5c-0.6-0.2-1.2-0.4-1.8-0.7
			c-0.4-0.1-0.8-0.2-1.2-0.3L25.8,24.8z"/>
	</g>
	<g>
		<path class="st13" d="M49.2,52.5c0.7,0.4,1.2,1.2,1.2,2v2.6v0.8v1.2c0.3,0,0.5,0,0.8,0v-8.5c-1.6-0.1-3.1-0.7-3.6-1.6
			c0-0.1,0.1-0.3,0.1-0.5c-0.3,1-0.7,1.7-1.3,2.2l2.6,1.6C49.1,52.5,49.2,52.5,49.2,52.5z"/>
		<path class="st14" d="M54.9,49.1c-0.9,1.2-2.3,1.7-3.7,1.6l0,8.5c0.3,0,0.6,0,0.9,0v-1.2v-0.7v-2.8c0-0.8,0.4-1.6,1.1-2
			c0,0,0,0,0,0l2.8-1.7c-0.6-0.6-1-1.3-1.3-2.5C54.8,48.5,54.9,48.7,54.9,49.1L54.9,49.1z"/>
		<path class="st14" d="M51.3,50.7v8.5c0,0,0,0,0,0L51.3,50.7C51.3,50.7,51.3,50.7,51.3,50.7z"/>
		<path class="st15" d="M54.8,48.3c-0.1-0.5-0.1-0.7-0.1-1c0,0-0.1,0-0.1,0.1C54.7,47.7,54.7,48,54.8,48.3z"/>
		<path class="st15" d="M47.9,47.2c-0.1,0.7-0.1,1.1-0.2,1.4c0.1-0.4,0.2-0.8,0.3-1.3C48,47.3,47.9,47.2,47.9,47.2z"/>
		<path class="st13" d="M51.3,50.7V49c-0.7-0.1-1.9-0.7-3.3-1.7c-0.1,0.5-0.2,0.9-0.3,1.3c0,0.2-0.1,0.3-0.1,0.5
			C48.2,49.9,49.7,50.6,51.3,50.7z"/>
		<path class="st15" d="M51.3,50.7V49c-0.7-0.1-1.9-0.7-3.3-1.7c-0.1,0.5-0.2,0.9-0.3,1.3c0,0.2-0.1,0.3-0.1,0.5
			C48.2,49.9,49.7,50.6,51.3,50.7z"/>
		<path class="st14" d="M51.6,49c-0.2,0-0.2,0-0.2,0c0,0,0,0-0.1,0l0,1.7c1.4,0,2.8-0.4,3.7-1.6v0c-0.1-0.3-0.1-0.6-0.1-0.8
			c-0.1-0.3-0.1-0.6-0.2-0.9C53.6,48.3,52.5,48.9,51.6,49z"/>
		<path class="st15" d="M51.6,49c-0.2,0-0.2,0-0.2,0c0,0,0,0-0.1,0l0,1.7c1.4,0,2.8-0.4,3.7-1.6v0c-0.1-0.3-0.1-0.6-0.1-0.8
			c-0.1-0.3-0.1-0.6-0.2-0.9C53.6,48.3,52.5,48.9,51.6,49z"/>
		<path class="st14" d="M51.3,49C51.3,49,51.3,49,51.3,49l0,1.7c0,0,0,0,0,0L51.3,49z"/>
		<path class="st15" d="M51.3,49C51.3,49,51.3,49,51.3,49l0,1.7c0,0,0,0,0,0L51.3,49z"/>
		<path class="st14" d="M48,47.2c0.1-0.7,0.1-1.5,0.1-2.4l-0.1-0.1h0.1c0-0.6,0-1.3-0.1-2.1c0,0,0.8,0.1,1.7,0.1c0,0,0,0,0,0
			c0-0.6,0.9-0.2,1.2-0.2c0.2,0,1-0.2,1.1-0.1c0.1,0.1,0.1,0.2,0.1,0.4c1,0,2.2-0.1,2.2-0.1c-0.1,1.9-0.1,3.4,0.1,4.5
			c0,0,0.1,0,0.1,0c0,0.1,0,0.1,0,0.2c2-1.6,3.9-4.2,4.4-6.3c4.1-1.3,3.7-6,1.5-5.7c-0.1,0.2-0.3,0.5-0.4,0.6
			C60.1,36,60,36.1,60,36.2c0.3-0.2,0.9-0.2,1.4,0.5c0.4,0.7,0.1,1.8-0.3,2.4c-0.2,0.2-0.9,0.9-1.2,1c-0.3,0.2-0.9,0.5-1,0.1
			c0-0.2,0-0.5,0.1-0.7c0.1-0.2,0.2-0.3,0.4-0.5c0.1-0.1,0.4-0.2,0.4-0.7c0.1-0.4-0.1-0.5-0.2-0.6c0,0,0,0,0,0c0,0-0.4,0-0.4-2.1
			c-0.2,0.6-4.5-9.7-13.1-8.2c0,0,1.4-2,5-0.9c0,0-5.9-2.3-6.8,1c0,0,0.1-1.2,0.8-2.3c-0.1,0-0.1,0-0.2,0.1
			c-3.7,1.3-1.9,10.4-1.9,10.4c0,2.3-0.4,2.4-0.6,2.3c0,0,0,0,0,0s0,0,0-0.1c-0.1,0.1-0.2,0.3-0.1,0.6c0.1,0.6,0.3,0.6,0.4,0.7
			c0.1,0.1,0.3,0.2,0.4,0.5C43,39.7,43,40,43,40.2c-0.1,0.4-0.6,0.1-1-0.1c-0.2-0.1-1-0.8-1.2-1c-0.5-0.6-0.7-1.7-0.3-2.4
			c0.4-0.6,0.8-0.7,1.2-0.6c-0.3-0.4-0.6-0.5-0.8-0.7c-0.6,0.3-1,1-1,2.2c0.2,2,2.3,3.2,3.1,3.4c0.3,2,2.6,4.5,4.8,6.2
			c0,0,0,0,0-0.1C48,47.2,48,47.2,48,47.2z"/>
		<path class="st14" d="M51.3,47.5v-2.1h-2.3l-0.1-0.1h-0.2h0.2l-0.6-0.5c0,0.9-0.1,1.7-0.1,2.4C49,47.4,50.1,47.5,51.3,47.5z"/>
		<path class="st14" d="M51.3,43.4c-0.1,0-0.1,0-0.2,0c-0.2,0-1.2-0.4-1.2-0.7c-0.9,0-1.7-0.1-1.7-0.1c0,0.8,0.1,1.5,0.1,2.1h3.1
			V43.4z"/>
		<path class="st14" d="M51.3,43.4l0,1.3h2.8l-0.9,0.5h0.3h-0.3L53,45.4h-1.7l0,2.1c1.1,0,2.3-0.1,3.3-0.4c-0.2-1.2-0.2-2.7-0.1-4.5
			c-0.1,0-1.2,0.1-2.2,0.1C52.1,43,51.7,43.3,51.3,43.4z"/>
		<polygon class="st14" points="51.3,45.4 51.3,47.5 51.3,47.5 51.3,45.4 		"/>
		<polygon class="st14" points="51.3,43.4 51.3,43.4 51.3,44.7 51.3,44.7 		"/>
		<path class="st14" d="M54.6,47.1c0,0.1,0,0.2,0,0.2c0,0,0.1,0,0.1-0.1C54.7,47.3,54.7,47.2,54.6,47.1
			C54.6,47.1,54.6,47.1,54.6,47.1z"/>
		<path class="st14" d="M48,47.2c0,0-0.1,0-0.1,0c0,0,0,0,0,0.1c0,0,0.1,0.1,0.1,0.1C48,47.2,48,47.2,48,47.2z"/>
		<path class="st14" d="M48,47.2c0,0,0,0.1,0,0.1c1.3,1,2.5,1.7,3.3,1.7v-1.5C50.1,47.5,49,47.4,48,47.2z"/>
		<path class="st14" d="M51.3,49C51.3,49,51.3,49,51.3,49c0.1,0,0.1,0,0.3,0c0.9-0.1,2-0.8,3-1.6c0-0.1,0-0.2,0-0.2
			c-1,0.2-2.2,0.4-3.3,0.4L51.3,49z"/>
		<path class="st14" d="M51.3,47.5C51.3,47.5,51.3,47.5,51.3,47.5l0,1.5c0,0,0,0,0,0L51.3,47.5z"/>
		<path class="st13" d="M59.6,37.7c0.1,0.2,0.3,0.3,0.2,0.6c-0.1,0.6-0.3,0.6-0.4,0.7c-0.1,0.1-0.3,0.2-0.4,0.5
			c-0.1,0.2-0.1,0.5-0.1,0.7c0.1,0.4,0.6,0.1,1-0.1c0.2-0.1,1-0.8,1.2-1c0.5-0.6,0.7-1.7,0.3-2.4c-0.4-0.8-1-0.7-1.4-0.5
			C59.6,36.8,59.7,37.6,59.6,37.7z"/>
		<path class="st13" d="M52.2,42.7c0.1-0.1,0-0.3-0.1-0.4c-0.1-0.1-0.8,0.2-1.1,0.1c-0.3,0-1.3-0.4-1.2,0.2c0,0,0,0,0,0
			c0.5,0,1,0,1.4,0C51.5,42.7,51.9,42.7,52.2,42.7z"/>
		<path class="st13" d="M51.1,43.4c0.1,0,0.1,0,0.2,0v-0.7c-0.5,0-1,0-1.4,0C49.9,43.1,50.9,43.4,51.1,43.4z"/>
		<path class="st13" d="M51.3,43.4c0.4-0.1,0.8-0.4,1-0.7c-0.4,0-0.7,0-1,0L51.3,43.4z"/>
		<polygon class="st13" points="51.3,42.7 51.3,43.4 51.3,43.4 		"/>
		<path class="st16" d="M41.7,36.1c-0.4-0.1-0.8-0.1-1.2,0.6c-0.4,0.7-0.1,1.8,0.3,2.4c0.2,0.2,0.9,0.9,1.2,1c0.3,0.2,0.9,0.5,1,0.1
			c0-0.2,0-0.5-0.1-0.7c-0.1-0.2-0.2-0.3-0.4-0.5c-0.1-0.1-0.4-0.2-0.4-0.7c0-0.3,0-0.4,0.1-0.6c0-0.2-0.1-0.7-0.2-1.1
			C41.9,36.4,41.8,36.2,41.7,36.1z"/>
		<path class="st17" d="M42.1,35.4c-1.5-6-0.3-10.3,2.1-12.8c-0.3-0.5-0.2-0.9,0.3-1.3c0.3-0.3,0.7-0.5,1.1-0.6
			c0.3-0.1,0.7-0.1,0.8,0.1c0,0-0.1,0.1-0.1,0.1c6.6-3.8,17.1,0.9,13.7,14.5c0.2-0.1,0.3-0.1,0.5-0.1c0.1-0.1,0.1-0.2,0.2-0.4
			c0.5-1.1,1-2.9,1-4.7c0.7-12.2-7.9-12.2-7.9-12.2l1.3,0.7c-2.7-0.9-5.5-0.3-6.8,0.1c-0.5,0.1-0.7,0.3-0.7,0.3c0.1,0,0.2,0,0.3,0
			c0.4,0,1,0.1,1.4,0.4c-0.6-0.3-1.5-0.3-3.2,0.3c-0.2,0.1-0.4,0.2-0.6,0.3c-0.7,0.3-2.1,1-4.7,2.2c0,0,0.9,0.4,1.9,0.5
			c-0.5,0.6-1,1.2-1.9,1.5C38.7,25,38,24.1,38,24.1s1,1.7,2.7,1.7c0.3,0,0.3,0,0.3,0c0,0-0.7,1.8-0.8,3.2c-0.1,1.4,0.3,2.3,0.4,4.9
			c0,0.7,0.1,1.1,0.2,1.3c0,0,0,0.1,0.1,0.1C41.3,35.2,41.8,35.2,42.1,35.4z"/>
		<path class="st17" d="M41.7,36.1c0.2,0.1,0.3,0.2,0.4,0.2c0.2,0.2,0.4,0.5,0.3,1.1c0,0.1-0.1,0.2-0.2,0.3c0,0,0,0.1,0,0.1s0,0,0,0
			c0.1,0.1,0.6,0,0.6-2.3c0,0-1.8-9.1,1.9-10.4c0.1,0,0.1,0,0.2-0.1c-0.7,1.1-0.8,2.3-0.8,2.3c0.9-3.3,6.8-1,6.8-1
			c-3.5-1-5,0.9-5,0.9c8.6-1.5,12.9,8.9,13.1,8.2c0,2.1,0.4,2.1,0.4,2.1c0,0,0,0,0,0c0-0.1-0.1-0.1-0.1-0.2c-0.1-0.6,0-0.9,0.3-1.1
			c0,0,0.1-0.1,0.2-0.2c0.1-0.1,0.1-0.2,0.2-0.3c0.1-0.1,0.2-0.4,0.4-0.6c-0.2,0-0.3,0.1-0.5,0.1c3.4-13.6-7.1-18.3-13.7-14.5
			c-0.2,0.4-0.6,0.7-0.9,0.9c1-0.4,2.1-0.7,3.1-0.5c-0.9,0.5-1.9,1-2.8,1.5c0.8-0.4,1.9-0.4,2.7,0c-0.9-0.5-2.5,1.1-3.4,0.7
			c0,0-0.7-0.9-0.8-1c0,0,0,0,0,0c-2.4,2.6-3.7,6.9-2.1,12.8c-0.4-0.2-0.8-0.2-1.2,0C41.2,35.6,41.4,35.6,41.7,36.1z"/>
		<path class="st17" d="M59.5,37.4c0,0.1,0.1,0.2,0.1,0.2c0.1-0.1,0-0.8,0.4-1.5c-0.1,0.1-0.2,0.1-0.2,0.2
			C59.5,36.6,59.3,36.9,59.5,37.4z"/>
		<path class="st17" d="M42.1,36.3c-0.1-0.1-0.2-0.2-0.4-0.2c0.1,0.1,0.2,0.3,0.3,0.6c0.2,0.4,0.2,0.9,0.2,1.1
			c0.1-0.1,0.1-0.2,0.2-0.3C42.5,36.9,42.4,36.6,42.1,36.3z"/>
		<path class="st18" d="M50.5,59.2v3.2c0.3,0,0.5,0,0.8,0v-3.2C51,59.2,50.7,59.2,50.5,59.2z"/>
		<path class="st18" d="M51.3,59.2l0,3.2c0.3,0,0.6,0,0.9,0v-3.3C51.9,59.2,51.6,59.2,51.3,59.2z"/>
		<path class="st18" d="M51.3,59.2v3.2c0,0,0,0,0,0L51.3,59.2C51.3,59.2,51.3,59.2,51.3,59.2z"/>
		<path class="st19" d="M39.7,55c-0.5,0.9-1,2-1.4,3.3c0.1,0.1,0.3,0.2,0.4,0.3c0.4-1.4,0.8-2.4,1.3-3.3
			C39.9,55.2,39.8,55.1,39.7,55z"/>
		<path class="st19" d="M50.5,57.9c-4.8-0.1-8.8-1.2-10.5-2.6c-0.5,0.8-0.9,1.9-1.3,3.3c3.4,2.2,7.4,3.6,11.7,3.8v-3.2V57.9z"/>
		<path class="st19" d="M63,55.1c-0.1,0.1-0.2,0.2-0.3,0.3c0.6,1,1.1,2.3,1.5,4.1c0.1-0.1,0.3-0.2,0.4-0.2c0,0,0,0,0-0.1
			C64.3,57.9,63.8,56.4,63,55.1z"/>
		<path class="st19" d="M52.2,57.9v1.2v3.3c4.3,0,8.4-1.1,11.9-3c-0.4-1.8-0.9-3.1-1.5-4.1C60.9,56.8,56.9,57.8,52.2,57.9z"/>
		<path class="st20" d="M46.5,50.8L46,50.5c0,0-1.8,0.1-3.7,1.5c-0.9,0.7-1.8,1.6-2.6,2.9c0.1,0.1,0.2,0.2,0.3,0.3
			C41.9,52,44.7,52.5,46.5,50.8z"/>
		<path class="st20" d="M40,55.3c1.7,1.5,5.7,2.5,10.5,2.6v-0.8v-2.6c0-0.9-0.5-1.6-1.2-2c-0.1,0-0.1-0.1-0.2-0.1l-2.6-1.6
			C44.7,52.5,41.9,52,40,55.3z"/>
		<path class="st20" d="M62.6,55.4c0.1-0.1,0.2-0.2,0.3-0.3c-0.5-0.9-1.2-1.8-2.1-2.6c-1.1-0.9-2.5-1.6-4.2-2l-0.4,0.3
			C58,52.6,60.7,52.3,62.6,55.4z"/>
		<path class="st20" d="M53.4,52.5c-0.7,0.4-1.1,1.2-1.1,2v2.8v0.7c4.7-0.1,8.7-1.1,10.4-2.6c-1.9-3.1-4.7-2.8-6.5-4.6L53.4,52.5
			C53.4,52.5,53.4,52.5,53.4,52.5z"/>
		<path class="st17" d="M45.6,20.6c-0.4,0.1-0.8,0.4-1.1,0.6c-0.4,0.4-0.5,0.8-0.3,1.3c0.6-0.7,1.3-1.2,2.1-1.6c0,0,0.1-0.1,0.1-0.1
			C46.3,20.5,45.9,20.5,45.6,20.6z"/>
		<path class="st21" d="M45.6,20.6c-0.4,0.1-0.8,0.4-1.1,0.6c-0.4,0.4-0.5,0.8-0.3,1.3c0.6-0.7,1.3-1.2,2.1-1.6c0,0,0.1-0.1,0.1-0.1
			C46.3,20.5,45.9,20.5,45.6,20.6z"/>
		<path class="st17" d="M45.4,21.8c-0.2,0.1-0.4,0.2-0.6,0.3C45,22,45.2,21.9,45.4,21.8z"/>
		<path class="st21" d="M45.4,21.8c-0.2,0.1-0.4,0.2-0.6,0.3C45,22,45.2,21.9,45.4,21.8z"/>
		<path class="st17" d="M44.3,22.5c0,0.1,0.7,1,0.8,1c0.8,0.4,2.5-1.2,3.4-0.7c-0.8-0.4-1.8-0.5-2.7,0c0.9-0.5,1.9-1,2.8-1.5
			c-1.1-0.2-2.1,0.1-3.1,0.5C45.2,21.9,45,22,44.8,22c0.2-0.1,0.4-0.2,0.6-0.3c0.4-0.2,0.7-0.5,0.9-0.9
			C45.6,21.3,44.9,21.9,44.3,22.5C44.3,22.5,44.3,22.5,44.3,22.5z"/>
		<path class="st21" d="M44.3,22.5c0,0.1,0.7,1,0.8,1c0.8,0.4,2.5-1.2,3.4-0.7c-0.8-0.4-1.8-0.5-2.7,0c0.9-0.5,1.9-1,2.8-1.5
			c-1.1-0.2-2.1,0.1-3.1,0.5C45.2,21.9,45,22,44.8,22c0.2-0.1,0.4-0.2,0.6-0.3c0.4-0.2,0.7-0.5,0.9-0.9
			C45.6,21.3,44.9,21.9,44.3,22.5C44.3,22.5,44.3,22.5,44.3,22.5z"/>
		<path class="st13" d="M48.1,44.7L48.1,44.7C48.2,44.8,48.2,44.7,48.1,44.7L48.1,44.7z"/>
		<path class="st13" d="M51.3,45.3v-0.5h-3.1c0,0,0,0,0,0.1l0.6,0.5H51.3z"/>
		<polygon class="st13" points="48.8,45.3 48.9,45.4 51.3,45.4 51.3,45.3 		"/>
		<polygon class="st13" points="53.2,45.3 54.1,44.7 51.3,44.7 51.3,45.3 		"/>
		<polygon class="st13" points="51.3,45.4 53,45.4 53.2,45.3 51.3,45.3 		"/>
		<rect x="51.3" y="45.3" class="st13" width="0" height="0.1"/>
		<rect x="51.3" y="44.7" class="st13" width="0" height="0.5"/>
	</g>
	<g>
		<path class="st22" d="M46,64.4c0.2-0.1,0.4-0.3,0.6-0.4h-0.7C45.9,64.1,46,64.2,46,64.4z"/>
		<path class="st22" d="M21.4,63.9c0.1,0.1,0.2,0.2,0.3,0.2c0-0.1,0-0.2,0.1-0.2H21.4z"/>
		<path class="st22" d="M48.1,42.1c0,0.5,0,1,0,1.6C48.3,43.1,48.4,42.2,48.1,42.1z"/>
		<path class="st22" d="M24.8,52.9C24.7,52.9,24.7,52.8,24.8,52.9C24.8,52.9,24.8,52.9,24.8,52.9z"/>
		<path class="st23" d="M28.6,57.3c0.3-0.2,0.6-0.4,0.9-0.7c-0.7,0.1-1.2,0.2-1.4,0.2c0,0,0.1,0,0.1,0
			C28.3,56.9,28.4,57.1,28.6,57.3z"/>
		<path class="st23" d="M39.1,57.3c0.2-0.2,0.4-0.4,0.5-0.6c0,0,0.1,0,0.1,0l0,0c-0.5-0.1-1-0.1-1.5-0.2
			C38.5,56.8,38.8,57.1,39.1,57.3z"/>
		<path class="st16" d="M21.8,63.9c0,0.1,0,0.2-0.1,0.2c0.5,0.4,1,0.7,1.5,1c0-0.4,0-0.8,0-1.3H21.8z"/>
		<path class="st16" d="M30.3,55.1c0-0.1,0-0.1,0-0.2c-0.2,0.7-0.5,1.2-0.9,1.6c0.7-0.1,1.5-0.2,2.6-0.2
			C31.2,56,30.6,55.6,30.3,55.1z"/>
		<path class="st16" d="M28.6,57.3c1,1.1,2.8,2.7,5.2,2.7v-3.3c-0.6,0-1.2-0.2-1.8-0.4c-1,0-1.9,0.1-2.6,0.2
			C29.2,56.8,28.9,57.1,28.6,57.3z"/>
		<path class="st24" d="M36,56.4c0.7,0,1.5,0.1,2.3,0.2c-0.3-0.4-0.6-0.9-0.9-1.5l0,0.2C37.1,55.7,36.6,56.1,36,56.4z"/>
		<path class="st24" d="M44.6,63.9c0,0.5,0,0.9,0,1.3c0.5-0.3,0.9-0.6,1.4-0.9c0-0.1-0.1-0.3-0.1-0.4H44.6z"/>
		<path class="st24" d="M33.8,56.7V60c1.6,0,3.4-0.7,5.3-2.7c-0.3-0.2-0.6-0.5-0.9-0.8c-0.8-0.1-1.6-0.1-2.3-0.2
			C35.3,56.7,34.6,56.8,33.8,56.7z"/>
		<path class="st25" d="M37.4,55l0-0.2c0,0,0,0,0,0C37.4,54.9,37.4,55,37.4,55z"/>
		<path class="st25" d="M30.3,54.8C30.3,54.9,30.3,54.9,30.3,54.8C30.3,54.9,30.3,54.9,30.3,54.8C30.3,54.8,30.3,54.8,30.3,54.8z"/>
		<path class="st16" d="M32,56.3c0.5,0,1.1,0,1.8,0v-0.6c-0.8,0-2.1-0.3-3.4-0.9c0,0,0,0,0,0.1c0,0.1,0,0.2,0,0.2
			C30.6,55.6,31.2,56,32,56.3z"/>
		<path class="st25" d="M32,56.3c0.5,0,1.1,0,1.8,0v-0.6c-0.8,0-2.1-0.3-3.4-0.9c0,0,0,0,0,0.1c0,0.1,0,0.2,0,0.2
			C30.6,55.6,31.2,56,32,56.3z"/>
		<path class="st16" d="M32,56.3c0.5,0.2,1.2,0.3,1.8,0.4v-0.4C33.2,56.3,32.6,56.3,32,56.3z"/>
		<path class="st25" d="M32,56.3c0.5,0.2,1.2,0.3,1.8,0.4v-0.4C33.2,56.3,32.6,56.3,32,56.3z"/>
		<path class="st24" d="M34.3,55.7c-0.2,0-0.2,0-0.3,0c-0.1,0-0.1,0-0.2,0v0.6c0.7,0,1.4,0,2.2,0.1c0.6-0.2,1.1-0.6,1.5-1.2l0-0.2
			c0,0,0-0.1-0.1-0.1C36.3,55.3,35.1,55.6,34.3,55.7z"/>
		<path class="st25" d="M34.3,55.7c-0.2,0-0.2,0-0.3,0c-0.1,0-0.1,0-0.2,0v0.6c0.7,0,1.4,0,2.2,0.1c0.6-0.2,1.1-0.6,1.5-1.2l0-0.2
			c0,0,0-0.1-0.1-0.1C36.3,55.3,35.1,55.6,34.3,55.7z"/>
		<path class="st24" d="M36,56.4c-0.8,0-1.5-0.1-2.2-0.1v0.4C34.6,56.8,35.3,56.7,36,56.4z"/>
		<path class="st25" d="M36,56.4c-0.8,0-1.5-0.1-2.2-0.1v0.4C34.6,56.8,35.3,56.7,36,56.4z"/>
		<path class="st24" d="M45.6,47.5C45.6,47.5,45.6,47.5,45.6,47.5C45.6,47.5,45.6,47.5,45.6,47.5C45.6,47.5,45.6,47.5,45.6,47.5z"/>
		<path class="st24" d="M39.7,38.5c0,1.7-0.8,2.8-1.9,3.4C38.8,41.5,40.2,40.3,39.7,38.5z"/>
		<path class="st24" d="M30.7,53.3c0.2-1.1,0.2-2.6,0.1-4.4c0,0,1.7,0.1,3,0.1c1,0,3-0.1,3.1-0.1c-0.1,1.8-0.1,3.2,0.1,4.4
			c0,0,0.1,0,0.1,0c0.1,0.5,0.1,0.4,0.3,1.6l0,0c2.2-0.8,4.5-2.3,5-4.4c0.1,0,0.2-0.1,0.3-0.1c0.1-0.2,0.1-0.5,0.2-0.7
			c-0.2,0.1-0.4,0.1-0.5-0.1c0-0.2,0-0.4,0.1-0.7c0-0.1,0.1-0.1,0.1-0.2c-1.4,0.8-2.6,0.9-2.6,0.9c5.1-2.4,1-4.8,1.6-9.3
			c-0.3,2-2.6,2.6-4.3,2c-1.2,0.5-2.8,0.6-4.4,0.5c-2.3-0.1-3.3,2.7-2.7,2.9c-1.4-0.5-2-1-2.1-1.4c-1.4,2.2-1.3,4.6,0.2,6.6
			c-0.1,0.1-3.1-1.7-2.8-4.2C25,47,24.9,47.8,25,48.7c0,0,0,0,0.1,0.1c0.1,0.2,0.1,0.4,0.1,0.6c0.2,1.1,0.6,2.2,1.1,3
			c1,1,2.6,1.8,4.1,2.4c0.1-0.3,0.1-0.7,0.2-1.5C30.6,53.3,30.6,53.3,30.7,53.3z M33.6,47.3c0.2-0.1,0.4-0.1,0.4-0.1s0,0,0,0
			c0,0.1-0.3,0.5-0.5,0.5c0,0,0,0-0.1-0.1C33.4,47.5,33.5,47.4,33.6,47.3z"/>
		<path class="st24" d="M32.4,53.6l-1.3-0.7l2.7,0.1v-1.9c0,0,0,0,0,0c-0.2,0-1.7-0.5-1.7-1c0-0.8,1.3-0.3,1.8-0.3c0,0,0,0,0,0v-0.7
			c-1.4,0-3-0.1-3-0.1c0.1,1.8,0.1,3.3-0.1,4.4c0.5,0.1,1,0.2,1.6,0.2H32.4z"/>
		<path class="st24" d="M32.3,53.6c0.1,0,0.1,0,0.2,0l0,0H32.3z"/>
		<path class="st24" d="M35.3,49.5c0.6,0.5-0.6,1.5-1.5,1.5v1.9l2.7,0.1l-1,0.5c0.5-0.1,1-0.1,1.5-0.2c-0.2-1.1-0.2-2.6-0.1-4.4
			c-0.1,0-2,0.1-3.1,0.1v0.7C34.2,49.7,35.2,49.5,35.3,49.5z"/>
		<path class="st24" d="M37.1,53.3C37.1,53.3,37,53.3,37.1,53.3c0,0.6,0.1,1.2,0.3,1.6c0,0,0,0,0,0l0,0
			C37.2,53.6,37.1,53.7,37.1,53.3z"/>
		<path class="st24" d="M30.7,53.3c0,0-0.1,0-0.1,0c-0.1,0.9-0.2,1.2-0.2,1.5c0,0,0,0,0,0C30.5,54.4,30.6,53.9,30.7,53.3z"/>
		<path class="st24" d="M32.6,53.7l-0.1-0.1c-0.1,0-0.1,0-0.2,0h-0.6h0.6c-0.6-0.1-1.1-0.1-1.6-0.2c-0.1,0.6-0.2,1.1-0.3,1.5
			c1.4,0.5,2.7,0.8,3.4,0.9v-2H32.6z"/>
		<path class="st24" d="M34.3,55.7c0.9-0.1,2-0.4,3.1-0.8c-0.2-0.5-0.3-1-0.4-1.6c-0.5,0.1-1,0.2-1.5,0.2l0,0h0.8h-0.8l-0.2,0.1
			h-1.5v2c0.1,0,0.1,0,0.2,0C34,55.7,34,55.7,34.3,55.7z"/>
		<path class="st24" d="M34,47.2C34,47.2,34,47.2,34,47.2c0,0-0.2-0.1-0.4,0.1c-0.1,0.1-0.2,0.2-0.2,0.3c0,0.1,0.1,0.1,0.1,0.1
			C33.7,47.8,34,47.3,34,47.2z"/>
		<path class="st16" d="M42.5,48.6c0,0.1-0.1,0.1-0.1,0.2c-0.1,0.2-0.1,0.5-0.1,0.7c0.1,0.2,0.3,0.2,0.5,0.1
			c0.1-0.4,0.2-0.9,0.3-1.4C42.9,48.4,42.7,48.5,42.5,48.6z"/>
		<path class="st26" d="M33.8,49.7c-0.4,0-1.8-0.6-1.8,0.3c0,0.5,1.5,1,1.7,1c0,0,0,0,0,0L33.8,49.7C33.8,49.7,33.8,49.7,33.8,49.7z
			"/>
		<path class="st26" d="M35.3,49.5c-0.1-0.1-1.1,0.2-1.5,0.2v1.3C34.7,51,35.9,50,35.3,49.5z"/>
		<path class="st16" d="M25.1,48.8C25.1,48.8,25,48.8,25.1,48.8c0,0.2,0,0.4,0.1,0.6C25.2,49.2,25.2,49,25.1,48.8z"/>
		<path class="st20" d="M39.8,56.7l-0.6,0.6c2.2,1.4,5.2,1.1,6.7,6.6h0.7c0,0,0,0,0.1,0C45.8,58.7,41.6,57.1,39.8,56.7z"/>
		<path class="st20" d="M28.5,57.3l-0.5-0.6c0,0,0.1,0,0.1,0c-2.3,0.2-6.1,2.8-7.2,6.8c0.2,0.1,0.3,0.2,0.5,0.4h0.4
			C23.3,58.2,26.3,58.6,28.5,57.3z"/>
		<path class="st20" d="M28.5,57.3c0.1,0,0.1-0.1,0.1-0.1c-0.2-0.2-0.3-0.4-0.4-0.5c0,0-0.1,0-0.1,0c-0.1,0-0.1,0-0.1,0L28.5,57.3z"
			/>
		<path class="st20" d="M39.1,57.3C39.2,57.3,39.2,57.3,39.1,57.3l0.7-0.5c0,0-0.1,0-0.1,0C39.5,56.9,39.3,57.1,39.1,57.3z"/>
		<path class="st20" d="M33.5,63.3l-5.1-6c-2.1,1.2-5.1,0.8-6.7,6.6h1.4c0,0.4,0,0.9,0,1.3c3.1,1.9,6.7,3,10.6,3V63L33.5,63.3z"/>
		<path class="st20" d="M28.6,57.3c-0.1,0-0.1,0.1-0.1,0.1l5.1,6l0.3-0.3V60C31.4,60,29.6,58.4,28.6,57.3z"/>
		<path class="st20" d="M45.9,63.9c-1.4-5.4-4.5-5.2-6.7-6.6L33.8,63v5.2c0.1,0,0.1,0,0.2,0c3.9,0,7.5-1.1,10.6-3c0-0.4,0-0.9,0-1.3
			H45.9z M33.8,65.5C33.8,65.5,33.8,65.5,33.8,65.5C33.8,65.5,33.8,65.5,33.8,65.5z"/>
		<path class="st20" d="M33.8,60V63l5.4-5.7c0,0-0.1,0-0.1-0.1C37.2,59.3,35.4,60,33.8,60z"/>
		<path class="st27" d="M24.7,52.8C24.7,52.8,24.7,52.9,24.7,52.8C24.8,52.9,24.8,52.9,24.7,52.8z"/>
		<path class="st27" d="M48.1,44.7c0,0,0-0.1,0-0.2c0-0.3,0-0.5,0-0.7C48,44.3,47.9,44.8,48.1,44.7z"/>
		<path class="st27" d="M42.6,50.4c-0.5,1.9-1,3-2.3,3.5c4.4-0.8,5.9-4.5,5.3-6.4C45.4,48.6,44.4,49.7,42.6,50.4z"/>
		<path class="st27" d="M21.7,47.2C21.6,45.3,23,44.5,24,45c-0.4-1.2-0.6-2.4-0.7-3.5c-0.2,0.3-0.4,0.5-0.6,0.7
			c0.1-0.9,0.3-1.9,0.6-2.8c0.1-1.2,0.3-2.3,0.7-3.3c-0.4,0.3-0.8,0.5-1.2,0.8c-0.2,0.1-0.3,0.3-0.4,0.4c0,0.1-0.1,0.2-0.1,0.3
			c0-0.1,0-0.2,0.1-0.3c0.2-1,0.8-1.8,1.5-2.5c0.4-0.4,0.9-0.7,1.4-1c5.8-8,22.5-4.5,18.2,11.1c1.7-0.6,2.6,0.8,2.2,2.4
			c0.6,1.7,0.5,4.2,0,3.5c1.7,2.5,2.4-2.7,2.5-6.5c0,0.2-0.1,0.2,0,0.2c-0.2,0.1-0.1-0.4,0-1c0-0.6,0-1.2,0-1.6
			c0.3,0.1,0.2,0.9,0,1.6c0,0.2,0,0.5,0,0.7c0.2-0.7,0.8-2.5-0.1-3C43.7,20.3,13.1,30,20.5,47.7c-0.3-0.9,0-4.1,1.9-5.3
			c-3.3,3-0.7,8.5,2.4,10.7c-0.1-0.2-0.2-0.7-0.3-1.3c0.9,1,2.8,1.8,2.8,1.8c-0.3-0.2-0.7-0.7-1-1.2c-0.6-0.6-1.1-1.3-1.2-2
			C24.3,50.3,21.9,49.1,21.7,47.2z"/>
		<path class="st27" d="M29.7,42.3c-0.3,0.2-2,1-1.7,1.9C28.4,43.5,29,42.9,29.7,42.3z"/>
		<path class="st27" d="M36.9,42.1c0.1,0,0.2,0.1,0.3,0.1c0.2-0.1,0.4-0.2,0.6-0.3C37.4,42.1,37.1,42.2,36.9,42.1z"/>
		<path class="st27" d="M25.1,49.5c-0.1,0.4-0.7,0.1-1-0.1c-0.3-0.1-1-0.8-1.3-1c-0.5-0.6-0.8-1.7-0.4-2.3c0.6-0.9,1.5-0.6,1.7-0.3
			c0.2,0.2,0.4,0.5,0.3,1.1c-0.1,0.3-0.4,0.3-0.3,0.8c0.1,0.5,0.3,0.6,0.5,0.7c0.1,0.1,0.3,0.2,0.4,0.4c-0.1-0.9,0-1.8,0.4-2.1
			c-0.2,2.5,2.7,4.4,2.8,4.2c-1.6-2-1.7-4.5-0.2-6.6c-0.3-0.9,1.4-1.7,1.7-1.9c-0.7,0.6-1.3,1.2-1.7,1.9c0.1,0.4,0.7,0.9,2.1,1.4
			c-0.6-0.2,0.4-3,2.7-2.9c1.6,0.1,3.2,0,4.4-0.5c-0.1,0-0.2-0.1-0.3-0.1c0.1,0.1,0.5,0,0.9-0.2c1.1-0.6,1.9-1.7,1.9-3.4
			c0.6,1.8-0.9,3-1.9,3.4c-0.2,0.1-0.4,0.2-0.6,0.3c1.7,0.6,4,0,4.3-2c-0.6,4.6,3.5,6.9-1.6,9.3c0,0,1.2-0.2,2.6-0.9
			c0.1-0.1,0.2-0.2,0.3-0.3c0.1-0.1,0.4-0.2,0.5-0.7c0.1-0.5-0.2-0.5-0.3-0.8c-0.1-0.6,0-0.9,0.3-1.1c0.2-0.2,1.1-0.6,1.7,0.3
			c0.4,0.6,0.1,1.7-0.4,2.3c-0.2,0.2-1,0.9-1.3,1c-0.2,0.1-0.4,0.2-0.5,0.2c-0.1,0.3-0.1,0.5-0.2,0.7c1.8-0.6,2.7-1.8,3-2.9
			c0,0,0,0,0,0c0,0,0,0,0,0c0.4-1.6-0.6-3-2.2-2.4C47.7,29.5,31,26,25.2,34c1-0.6,2-1.1,3.1-1.3c2.3-0.5,4.7-0.9,7-0.1
			c-2-0.1-4,0.1-5.9,0.7c0.2,0,0.4,0,0.7,0c-0.4,0.3-0.7,0.5-1.1,0.8c0.4-0.2,0.9-0.2,1.4-0.2c-0.3,0.4-0.7,0.7-1.2,0.8
			c1.4-0.3,2.8-0.5,4.2-0.5c-0.6,0.3-1.3,0.7-1.9,1c0.7-0.2,1.3-0.4,2-0.4c0.7,0,1.4,0.2,1.9,0.7c-1.7-0.2-3.5,0.3-4.7,1.4
			c2.1-0.6,4.4-0.7,6.5-0.3c-1.5-0.1-3,0.2-4.3,0.9c-1.6,0.9-2.9,2.3-4.5,3.2c0-0.4,0.1-0.9,0.3-1.2c-1.6,0.7-2,2.9-3.3,4
			c-0.5-1.2-0.1-2.6,0.6-3.7c0.4-0.6,0.9-1.3,1-2c-1.3,0.8-2.4,1.9-3.2,3.2c-0.1,0.2-0.2,0.4-0.3,0.6c0.1,1.1,0.3,2.2,0.7,3.5
			c-1-0.5-2.5,0.2-2.3,2.1c0.2,1.9,2.5,3.1,3.3,3.3c0.1,0.7,0.6,1.4,1.2,2C25.8,51.6,25.3,50.5,25.1,49.5
			C25.1,49.5,25.1,49.5,25.1,49.5z"/>
		<path class="st27" d="M26.5,35.3c0.2-0.1,0.4-0.4,0.3-0.6c-1,0.4-1.9,0.9-2.8,1.5c-0.4,1-0.6,2.1-0.7,3.3
			C24,37.9,25.1,36.4,26.5,35.3z"/>
		<path class="st27" d="M44.6,48.4c0.5-0.6,0.8-1.7,0.4-2.3c-0.6-0.9-1.5-0.6-1.7-0.3c-0.2,0.2-0.4,0.5-0.3,1.1
			c0.1,0.3,0.4,0.3,0.3,0.8c-0.1,0.5-0.3,0.6-0.5,0.7c-0.1,0.1-0.2,0.2-0.3,0.3c0.2-0.1,0.4-0.2,0.6-0.4c-0.1,0.5-0.2,0.9-0.3,1.4
			c0.2-0.1,0.4-0.2,0.5-0.2C43.6,49.3,44.4,48.6,44.6,48.4z"/>
		<path class="st27" d="M24.7,48.4c-0.1-0.1-0.4-0.2-0.5-0.7c-0.1-0.5,0.2-0.5,0.3-0.8c0.1-0.6,0-0.9-0.3-1.1
			c-0.2-0.2-1.1-0.6-1.7,0.3c-0.4,0.6-0.1,1.7,0.4,2.3c0.2,0.2,1,0.9,1.3,1c0.4,0.2,0.9,0.5,1,0.1c0,0,0,0,0,0
			c0-0.2-0.1-0.5-0.1-0.7C24.9,48.6,24.8,48.5,24.7,48.4z"/>
		<path class="st27" d="M23.3,39.5c-0.3,0.9-0.6,1.8-0.6,2.8c0.3-0.2,0.5-0.4,0.6-0.7C23.3,40.8,23.3,40.2,23.3,39.5z"/>
		<path class="st21" d="M23.3,39.5c-0.3,0.9-0.6,1.8-0.6,2.8c0.3-0.2,0.5-0.4,0.6-0.7C23.3,40.8,23.3,40.2,23.3,39.5z"/>
		<path class="st27" d="M22.4,37.5c0,0.1-0.1,0.2-0.1,0.3C22.3,37.7,22.3,37.6,22.4,37.5z"/>
		<path class="st21" d="M22.4,37.5c0,0.1-0.1,0.2-0.1,0.3C22.3,37.7,22.3,37.6,22.4,37.5z"/>
		<path class="st27" d="M22.4,37.5c0.1-0.2,0.3-0.3,0.4-0.4c0.4-0.3,0.8-0.6,1.2-0.8c0.3-0.8,0.7-1.6,1.2-2.3
			c-0.5,0.3-0.9,0.6-1.4,1C23.1,35.7,22.5,36.6,22.4,37.5z"/>
		<path class="st21" d="M22.4,37.5c0.1-0.2,0.3-0.3,0.4-0.4c0.4-0.3,0.8-0.6,1.2-0.8c0.3-0.8,0.7-1.6,1.2-2.3
			c-0.5,0.3-0.9,0.6-1.4,1C23.1,35.7,22.5,36.6,22.4,37.5z"/>
		<path class="st27" d="M26.8,34.8c0.1,0.2-0.1,0.4-0.3,0.6c-1.4,1.1-2.5,2.5-3.2,4.2c0,0.7,0,1.3,0,2c0.1-0.2,0.2-0.4,0.3-0.6
			c0.8-1.3,1.9-2.4,3.2-3.2c-0.1,0.7-0.6,1.4-1,2c-0.7,1.1-1.1,2.5-0.6,3.7c1.4-1.1,1.7-3.3,3.3-4c-0.2,0.4-0.3,0.8-0.3,1.2
			c1.7-0.8,2.9-2.3,4.5-3.2c1.3-0.7,2.8-1,4.3-0.9c-2.1-0.5-4.4-0.4-6.5,0.3c1.3-1.1,3.1-1.6,4.7-1.4c-0.5-0.5-1.2-0.7-1.9-0.7
			c-0.7,0-1.4,0.2-2,0.4c0.6-0.3,1.3-0.7,1.9-1c-1.4,0.1-2.8,0.2-4.2,0.5c0.5-0.2,0.9-0.4,1.2-0.8c-0.5-0.1-1,0-1.4,0.2
			c0.4-0.3,0.7-0.5,1.1-0.8c-0.2,0-0.4-0.1-0.7,0c1.9-0.5,3.9-0.7,5.9-0.7c-2.3-0.7-4.7-0.4-7,0.1c-1.1,0.2-2.2,0.7-3.1,1.3
			c-0.5,0.7-0.9,1.4-1.2,2.3C24.9,35.7,25.8,35.2,26.8,34.8z M29.1,35.9c0.1,0.2,1.1,1.3,1.2,1.5c0.1,0.2,0.1,0.5-0.1,0.8
			c0,0,0,0,0,0c-0.2-0.1-0.3-0.3-0.4-0.5c-0.9-0.8-2-3.1-2.3-4C27.9,34.2,28.7,35,29.1,35.9z"/>
		<path class="st21" d="M26.8,34.8c0.1,0.2-0.1,0.4-0.3,0.6c-1.4,1.1-2.5,2.5-3.2,4.2c0,0.7,0,1.3,0,2c0.1-0.2,0.2-0.4,0.3-0.6
			c0.8-1.3,1.9-2.4,3.2-3.2c-0.1,0.7-0.6,1.4-1,2c-0.7,1.1-1.1,2.5-0.6,3.7c1.4-1.1,1.7-3.3,3.3-4c-0.2,0.4-0.3,0.8-0.3,1.2
			c1.7-0.8,2.9-2.3,4.5-3.2c1.3-0.7,2.8-1,4.3-0.9c-2.1-0.5-4.4-0.4-6.5,0.3c1.3-1.1,3.1-1.6,4.7-1.4c-0.5-0.5-1.2-0.7-1.9-0.7
			c-0.7,0-1.4,0.2-2,0.4c0.6-0.3,1.3-0.7,1.9-1c-1.4,0.1-2.8,0.2-4.2,0.5c0.5-0.2,0.9-0.4,1.2-0.8c-0.5-0.1-1,0-1.4,0.2
			c0.4-0.3,0.7-0.5,1.1-0.8c-0.2,0-0.4-0.1-0.7,0c1.9-0.5,3.9-0.7,5.9-0.7c-2.3-0.7-4.7-0.4-7,0.1c-1.1,0.2-2.2,0.7-3.1,1.3
			c-0.5,0.7-0.9,1.4-1.2,2.3C24.9,35.7,25.8,35.2,26.8,34.8z M29.1,35.9c0.1,0.2,1.1,1.3,1.2,1.5c0.1,0.2,0.1,0.5-0.1,0.8
			c0,0,0,0,0,0c-0.2-0.1-0.3-0.3-0.4-0.5c-0.9-0.8-2-3.1-2.3-4C27.9,34.2,28.7,35,29.1,35.9z"/>
		<path class="st27" d="M30.2,38.2C30.2,38.2,30.2,38.2,30.2,38.2c0.2-0.2,0.1-0.5,0.1-0.8c-0.1-0.2-1.1-1.3-1.2-1.5
			c-0.3-0.9-1.2-1.6-1.7-2.2c0.4,0.9,1.4,3.3,2.3,4C29.9,37.8,30,38.1,30.2,38.2z"/>
		<path class="st26" d="M33.8,53.7L33.8,53.7l-1.4-0.1l0,0C32.9,53.6,33.3,53.7,33.8,53.7z"/>
		<polygon class="st26" points="33.8,52.9 31.1,52.8 32.4,53.6 33.8,53.6 		"/>
		<path class="st26" d="M33.8,52.9v0.6h1.5c0.1,0,0.1,0,0.2,0l1-0.5L33.8,52.9z"/>
		<path class="st26" d="M35.3,53.6h-1.5v0.1C34.3,53.7,34.8,53.6,35.3,53.6z"/>
		<path class="st26" d="M32.4,53.6l0.1,0.1h1.2v0C33.3,53.7,32.9,53.6,32.4,53.6z"/>
		<path class="st26" d="M35.5,53.6L35.5,53.6c0,0-0.1,0-0.2,0H35.5z"/>
		<path class="st26" d="M33.8,53.7L33.8,53.7l1.5,0l0.2-0.1h-0.2C34.8,53.6,34.3,53.7,33.8,53.7z"/>
	</g>
</g>
</svg>
