<?xml version="1.0" encoding="utf-8"?>
<!-- Generator: Adobe Illustrator 24.1.3, SVG Export Plug-In . SVG Version: 6.00 Build 0)  -->
<svg version="1.1" id="Layer_1" xmlns="http://www.w3.org/2000/svg" xmlns:xlink="http://www.w3.org/1999/xlink" x="0px" y="0px"
	 viewBox="0 0 70 70" style="enable-background:new 0 0 70 70;" xml:space="preserve">
<style type="text/css">
	.st0{fill:#E9F5FF;}
	.st1{fill:#B6D4EC;}
	.st2{fill:#E11E19;}
	.st3{fill:#6588AB;}
	.st4{fill:#66AEDE;}
	.st5{fill:#FFFFFF;}
	.st6{fill:#1C77C3;}
</style>
<g>
	<g>
		<g>
			<path class="st0" d="M65.4,68H13.5V2.5h42.3c3.7,3.7,5.8,5.8,9.5,9.5V68z"/>
			<path class="st1" d="M54.5,2.5v10.9h10.9C61.1,9.2,58.7,6.8,54.5,2.5z"/>
		</g>
		<g>
			<path class="st2" d="M33.4,18.2c-1.3-1.3-3-2-4.8-2h-15c-2.6,0-4.9,1-6.8,2.8C5,20.8,4,23.2,4,25.7s1,4.9,2.8,6.8
				c1.8,1.8,4.2,2.8,6.8,2.8v-2.7c-1.8,0-3.5-0.7-4.8-2c-1.3-1.3-2-3-2-4.8c0-1.8,0.7-3.5,2-4.8c1.3-1.3,3-2,4.8-2h15
				c1.1,0,2.1,0.4,2.9,1.2c0.8,0.8,1.2,1.8,1.2,2.9s-0.4,2.1-1.2,2.9c-0.8,0.8-1.8,1.2-2.9,1.2h-15c-0.4,0-0.7-0.1-1-0.4
				c-0.3-0.3-0.4-0.6-0.4-1c0-0.4,0.1-0.7,0.4-1c0.3-0.3,0.6-0.4,1-0.4h13.6v-2.7H13.5c-1.1,0-2.1,0.4-2.9,1.2
				c-0.8,0.8-1.2,1.8-1.2,2.9c0,1.1,0.4,2.1,1.2,2.9c0.8,0.8,1.8,1.2,2.9,1.2h15c1.8,0,3.5-0.7,4.8-2c1.3-1.3,2-3,2-4.8
				C35.4,21.2,34.7,19.5,33.4,18.2z"/>
			<g>
				<path class="st3" d="M58.6,57.1H20.4c-0.8,0-1.4-0.6-1.4-1.4v0c0-0.8,0.6-1.4,1.4-1.4h38.2c0.8,0,1.4,0.6,1.4,1.4v0
					C59.9,56.5,59.3,57.1,58.6,57.1z"/>
				<path class="st3" d="M58.6,51.6H20.4c-0.8,0-1.4-0.6-1.4-1.4v0c0-0.8,0.6-1.4,1.4-1.4h38.2c0.8,0,1.4,0.6,1.4,1.4v0
					C59.9,51,59.3,51.6,58.6,51.6z"/>
				<path class="st3" d="M58.6,62.5H20.4c-0.8,0-1.4-0.6-1.4-1.4v0c0-0.8,0.6-1.4,1.4-1.4h38.2c0.8,0,1.4,0.6,1.4,1.4v0
					C59.9,61.9,59.3,62.5,58.6,62.5z"/>
			</g>
			<g>
				<path class="st4" d="M57.5,46.2H21.4c-1.3,0-2.4-1.1-2.4-2.4v-8.9c0-1.3,1.1-2.4,2.4-2.4h36.2c1.3,0,2.4,1.1,2.4,2.4v8.9
					C59.9,45.1,58.9,46.2,57.5,46.2z"/>
				<g>
					<rect x="32.6" y="38" class="st5" width="2.7" height="2.7"/>
					<rect x="38.1" y="38" class="st5" width="2.7" height="2.7"/>
					<rect x="43.6" y="38" class="st5" width="2.7" height="2.7"/>
				</g>
			</g>
			<path class="st6" d="M57.5,29.8H40.5c-1.3,0-2.4-1.1-2.4-2.4v-8.9c0-1.3,1.1-2.4,2.4-2.4h17.1c1.3,0,2.4,1.1,2.4,2.4v8.9
				C59.9,28.7,58.9,29.8,57.5,29.8z"/>
			<g>
				<rect x="19" y="10.7" class="st3" width="2.7" height="2.7"/>
				<rect x="24.5" y="10.7" class="st3" width="2.7" height="2.7"/>
				<rect x="29.9" y="10.7" class="st3" width="2.7" height="2.7"/>
			</g>
		</g>
	</g>
</g>
</svg>
