<?xml version="1.0" encoding="utf-8"?>
<!-- Generator: Adobe Illustrator 25.0.0, SVG Export Plug-In . SVG Version: 6.00 Build 0)  -->
<svg version="1.1" id="Layer_1" xmlns="http://www.w3.org/2000/svg" xmlns:xlink="http://www.w3.org/1999/xlink" x="0px" y="0px"
	 viewBox="0 0 70 70" style="enable-background:new 0 0 70 70;" xml:space="preserve">
<style type="text/css">
	.st0{clip-path:url(#SVGID_2_);}
	.st1{fill-rule:evenodd;clip-rule:evenodd;fill:#0E3C62;}
	.st2{fill-rule:evenodd;clip-rule:evenodd;fill:#1C77C3;}
	.st3{fill-rule:evenodd;clip-rule:evenodd;fill:#E9F5FF;}
	.st4{enable-background:new    ;}
	.st5{clip-path:url(#SVGID_4_);}
	.st6{clip-path:url(#SVGID_6_);fill:#0E3C62;}
	.st7{opacity:0.29;fill:#E11E19;}
	.st8{fill-rule:evenodd;clip-rule:evenodd;fill:#A4C9E7;}
	.st9{fill-rule:evenodd;clip-rule:evenodd;fill:#77ADDB;}
	.st10{clip-path:url(#SVGID_8_);}
	.st11{clip-path:url(#SVGID_10_);fill:#0E3C62;}
	.st12{clip-path:url(#SVGID_12_);}
	.st13{fill:#6588AB;}
	.st14{fill:#04B8B5;}
</style>
<g>
	<defs>
		<rect id="SVGID_1_" x="-4.4" y="-5.9" width="75.8" height="75.8"/>
	</defs>
	<clipPath id="SVGID_2_">
		<use xlink:href="#SVGID_1_"  style="overflow:visible;"/>
	</clipPath>
	<g class="st0">
		<path class="st1" d="M27.9,1.3c-0.3,0-2.2-0.9-2.4-0.8c-0.5,0-1,0.1-1.4,0.4L3.9,12.6c-0.2,0.1-0.4,0.3-0.6,0.4
			c-0.8,0.7-1.4,1.5-1.8,2.5C1.2,16,1.1,16.6,1,17.2c-0.1,1.2,0.5,46,0.5,47.2c-0.2,1.7,1.3,2,2.2,2.7c-0.6-0.5-0.8-1.3-0.8-2.1
			l0-46.5c0-0.4,0.1-0.8,0.1-1.2c0.1-0.6,0.4-1.2,0.6-1.8c0.5-1,0.7-1.4,1.8-1.7C10.4,12.1,27.3,0,27.9,1.3z"/>
		<path class="st2" d="M5.9,67.1l20.2-11.7c1.6-0.9,3-3.4,3-5.4l0-46.5c0-2.1-1.3-3-3-2L5.9,13.2c-1.6,0.9-3,3.4-3,5.4l0,46.5
			C2.9,67.2,4.3,68.1,5.9,67.1z"/>
		<path class="st3" d="M13.9,15.1l12.7-7.3c0.6-0.3,1.1-0.1,1.2,0.5c0,0.1,0,0.1,0,0.2v0.1l0,0.1l0,36.2l0,0.1V45c0,0.1,0,0.2,0,0.2
			c-0.1,0.8-0.6,1.6-1.2,1.9L9.5,57c0,0,0,0-0.1,0l-4.1,2.4c-0.6,0.3-1.1,0.1-1.2-0.5c0-0.1,0-0.1,0-0.2v-0.1v-0.1l0-36.2v-0.1v-0.1
			c0-0.1,0-0.2,0-0.2c0.1-0.8,0.6-1.6,1.2-1.9L13.9,15.1L13.9,15.1z"/>
		<g>
			<path class="st1" d="M19.8,53.5c0.3-0.2,0.7-0.2,0.9-0.1c0.2,0.2,0.4,0.5,0.4,0.9c0,0.4-0.1,0.9-0.4,1.3c-0.2,0.4-0.5,0.8-0.9,1
				l0,0l-3.1,1.8c-0.3,0.2-0.7,0.2-0.9,0.1c-0.2-0.2-0.4-0.5-0.4-0.9c0-0.4,0.1-0.9,0.4-1.3c0.2-0.4,0.5-0.8,0.9-1h0L19.8,53.5z"/>
			<path class="st1" d="M19.8,53.7c0.1-0.1,0.3-0.1,0.4-0.1c0.1,0,0.3,0,0.4,0.1c0.1,0.1,0.2,0.2,0.2,0.3c0.1,0.1,0.1,0.3,0.1,0.5
				c0,0.2,0,0.4-0.1,0.6c-0.1,0.2-0.1,0.4-0.2,0.6c-0.1,0.2-0.2,0.4-0.4,0.5c-0.1,0.1-0.3,0.3-0.4,0.3l0,0l-3.1,1.8l0,0
				c-0.1,0.1-0.3,0.1-0.4,0.1c-0.1,0-0.3,0-0.4-0.1c-0.1-0.1-0.2-0.2-0.2-0.3c-0.1-0.1-0.1-0.3-0.1-0.5c0-0.2,0-0.4,0.1-0.6
				c0.1-0.2,0.1-0.4,0.2-0.6c0.1-0.2,0.2-0.4,0.4-0.5c0.1-0.1,0.3-0.3,0.4-0.3l0,0L19.8,53.7L19.8,53.7L19.8,53.7z M20.3,53.1
				c-0.2,0-0.3,0.1-0.5,0.2l0,0l-3.1,1.8l0,0c-0.2,0.1-0.4,0.3-0.5,0.4c-0.2,0.2-0.3,0.4-0.5,0.6c-0.1,0.2-0.2,0.5-0.3,0.7
				c-0.1,0.2-0.1,0.5-0.1,0.7c0,0.2,0,0.4,0.1,0.6c0.1,0.2,0.2,0.3,0.3,0.4c0.1,0.1,0.3,0.1,0.5,0.1c0.2,0,0.4-0.1,0.5-0.2l0,0
				l3.1-1.8l0,0c0.2-0.1,0.4-0.3,0.5-0.4c0.2-0.2,0.3-0.4,0.5-0.6c0.1-0.2,0.2-0.5,0.3-0.7c0.1-0.2,0.1-0.5,0.1-0.7
				c0-0.2,0-0.4-0.1-0.6c-0.1-0.2-0.2-0.3-0.3-0.4C20.7,53.2,20.5,53.1,20.3,53.1z"/>
		</g>
		<g>
			<g>
				<g class="st4">
					<defs>
						<polygon id="SVGID_3_" class="st4" points="10.3,44.8 10.3,23.6 23,21.8 23,43 						"/>
					</defs>
					<clipPath id="SVGID_4_">
						<use xlink:href="#SVGID_3_"  style="overflow:visible;"/>
					</clipPath>
					<g class="st5">
						<g>
							<defs>
								<polyline id="SVGID_5_" points="10.4,44.7 10.3,27.9 22.9,21.9 23,38.7 10.4,44.7 								"/>
							</defs>
							<clipPath id="SVGID_6_">
								<use xlink:href="#SVGID_5_"  style="overflow:visible;"/>
							</clipPath>
							<path class="st6" d="M12,42.3l0-3.9l3-1.4l0,3.9L12,42.3 M16.2,34.7l-5.5,2.7l0,7.3l5.5-2.7L16.2,34.7"/>
							<polyline class="st6" points="14.2,38.3 12.8,39 12.8,40.9 14.2,40.2 14.2,38.3 							"/>
							<polyline class="st6" points="21.2,34.9 19.8,35.6 19.8,37.5 21.2,36.8 21.2,34.9 							"/>
							<polyline class="st6" points="22.6,32.4 21.2,33.1 21.2,34.9 22.6,34.2 22.6,32.4 							"/>
							<polyline class="st6" points="19.8,33.7 18.4,34.4 18.4,36.3 19.8,35.6 19.8,33.7 							"/>
							<polyline class="st6" points="22.6,36.1 21.2,36.8 21.2,38.7 22.7,38 22.6,36.1 							"/>
							<polyline class="st6" points="19.8,37.5 18.4,38.2 18.4,40 19.8,39.3 19.8,37.5 							"/>
							<path class="st6" d="M11.6,32.9l0-4l3-1.4l0,4L11.6,32.9 M15.8,25.3l-5.5,2.7l0.1,7.3l5.5-2.7L15.8,25.3"/>
							<polyline class="st6" points="13.8,29 12.4,29.6 12.4,31.5 13.8,30.8 13.8,29 							"/>
							<path class="st6" d="M18.7,29.5l0-4l3-1.4l0,4L18.7,29.5 M22.9,21.9l-5.5,2.7l0.1,7.3l5.5-2.7L22.9,21.9"/>
							<polyline class="st6" points="20.8,25.5 19.4,26.2 19.4,28.1 20.9,27.4 20.8,25.5 							"/>
						</g>
					</g>
				</g>
			</g>
		</g>
		<polygon class="st7" points="45,20.4 24,17.7 6.5,24.2 8.1,47.9 26.2,40.2 		"/>
		<path class="st2" d="M66.9,3.1c-0.3,0-2.2-0.9-2.4-0.8c-0.5,0-1,0.1-1.4,0.4L42.9,14.4c-0.2,0.1-0.4,0.3-0.6,0.4
			c-0.8,0.7-1.4,1.5-1.8,2.5c-0.2,0.6-0.4,1.2-0.5,1.8c-0.1,1.2,0.5,46,0.5,47.2c-0.2,1.7,1.3,2,2.2,2.7C42.2,68.6,42,67.7,42,67
			l0-46.5c0-0.4,0.1-0.8,0.1-1.2c0.1-0.6,0.4-1.2,0.6-1.8c0.5-1,0.7-1.4,1.8-1.7C49.4,14,66.3,1.9,66.9,3.1z"/>
		<path class="st8" d="M45,69l20.2-11.7c1.6-0.9,3-3.4,3-5.4l0-46.5c0-2.1-1.3-3-3-2L44.9,15.1c-1.6,0.9-3,3.4-3,5.4L42,67
			C42,69,43.3,69.9,45,69z"/>
		<path class="st3" d="M52.9,17l12.7-7.3c0.6-0.3,1.1-0.1,1.2,0.5c0,0.1,0,0.1,0,0.2v0.1l0,0.1l0,36.2l0,0.1v0.1c0,0.1,0,0.2,0,0.2
			c-0.1,0.8-0.6,1.6-1.2,1.9l-17.1,9.9c0,0,0,0-0.1,0l-4.1,2.4c-0.6,0.3-1.1,0.1-1.2-0.5c0-0.1,0-0.1,0-0.2v-0.1v-0.1l0-36.2v-0.1
			V24c0-0.1,0-0.2,0-0.2c0.1-0.8,0.6-1.6,1.2-1.9L52.9,17L52.9,17z"/>
		<g>
			<path class="st9" d="M58.8,55.3c0.3-0.2,0.7-0.2,0.9-0.1c0.2,0.2,0.4,0.5,0.4,0.9c0,0.4-0.1,0.9-0.4,1.3c-0.2,0.4-0.5,0.8-0.9,1
				l0,0l-3.1,1.8c-0.3,0.2-0.7,0.2-0.9,0.1c-0.2-0.2-0.4-0.5-0.4-0.9c0-0.4,0.1-0.9,0.4-1.3c0.2-0.4,0.5-0.8,0.9-1h0L58.8,55.3z"/>
			<path class="st9" d="M58.8,55.5c0.1-0.1,0.3-0.1,0.4-0.1c0.1,0,0.3,0,0.4,0.1c0.1,0.1,0.2,0.2,0.2,0.3c0.1,0.1,0.1,0.3,0.1,0.5
				c0,0.2,0,0.4-0.1,0.6c-0.1,0.2-0.1,0.4-0.2,0.6c-0.1,0.2-0.2,0.4-0.4,0.5c-0.1,0.1-0.3,0.3-0.4,0.3l0,0l-3.1,1.8l0,0
				c-0.1,0.1-0.3,0.1-0.4,0.1c-0.1,0-0.3,0-0.4-0.1c-0.1-0.1-0.2-0.2-0.2-0.3c-0.1-0.1-0.1-0.3-0.1-0.5c0-0.2,0-0.4,0.1-0.6
				c0.1-0.2,0.1-0.4,0.2-0.6c0.1-0.2,0.2-0.4,0.4-0.5c0.1-0.1,0.3-0.3,0.4-0.3l0,0L58.8,55.5L58.8,55.5L58.8,55.5z M59.4,55
				c-0.2,0-0.3,0.1-0.5,0.2l0,0l-3.1,1.8l0,0c-0.2,0.1-0.4,0.3-0.5,0.4c-0.2,0.2-0.3,0.4-0.5,0.6c-0.1,0.2-0.2,0.5-0.3,0.7
				c-0.1,0.2-0.1,0.5-0.1,0.7c0,0.2,0,0.4,0.1,0.6c0.1,0.2,0.2,0.3,0.3,0.4c0.1,0.1,0.3,0.1,0.5,0.1c0.2,0,0.4-0.1,0.5-0.2l0,0
				l3.1-1.8l0,0c0.2-0.1,0.4-0.3,0.5-0.4c0.2-0.2,0.3-0.4,0.5-0.6c0.1-0.2,0.2-0.5,0.3-0.7c0.1-0.2,0.1-0.5,0.1-0.7
				c0-0.2,0-0.4-0.1-0.6c-0.1-0.2-0.2-0.3-0.3-0.4C59.7,55,59.5,55,59.4,55z"/>
		</g>
		<g>
			<g>
				<g class="st4">
					<defs>
						<polygon id="SVGID_7_" class="st4" points="49.7,46.9 49.7,25.8 62.4,24 62.4,45.1 						"/>
					</defs>
					<clipPath id="SVGID_8_">
						<use xlink:href="#SVGID_7_"  style="overflow:visible;"/>
					</clipPath>
					<g class="st10">
						<g>
							<defs>
								<polyline id="SVGID_9_" points="49.9,46.9 49.7,30.1 62.3,24 62.4,40.8 49.9,46.9 								"/>
							</defs>
							<clipPath id="SVGID_10_">
								<use xlink:href="#SVGID_9_"  style="overflow:visible;"/>
							</clipPath>
							<path class="st11" d="M51.4,44.5l0-3.9l3-1.4l0,3.9L51.4,44.5 M55.6,36.8l-5.5,2.7l0,7.3l5.5-2.7L55.6,36.8"/>
							<polyline class="st11" points="53.6,40.5 52.2,41.2 52.2,43.1 53.6,42.4 53.6,40.5 							"/>
							<polyline class="st11" points="60.6,37.1 59.2,37.8 59.3,39.6 60.7,39 60.6,37.1 							"/>
							<polyline class="st11" points="62,34.6 60.6,35.2 60.6,37.1 62.1,36.4 62,34.6 							"/>
							<polyline class="st11" points="59.2,35.9 57.8,36.6 57.8,38.5 59.2,37.8 59.2,35.9 							"/>
							<polyline class="st11" points="62.1,38.3 60.7,39 60.7,40.8 62.1,40.2 62.1,38.3 							"/>
							<polyline class="st11" points="59.3,39.6 57.8,40.3 57.9,42.2 59.3,41.5 59.3,39.6 							"/>
							<path class="st11" d="M51,35.1l0-4l3-1.4l0,4L51,35.1 M55.2,27.4l-5.5,2.7l0.1,7.3l5.5-2.7L55.2,27.4"/>
							<polyline class="st11" points="53.2,31.1 51.8,31.8 51.8,33.7 53.2,33 53.2,31.1 							"/>
							<path class="st11" d="M58.1,31.7l0-4l3-1.4l0,4L58.1,31.7 M62.3,24l-5.5,2.7l0.1,7.3l5.5-2.7L62.3,24"/>
							<polyline class="st11" points="60.3,27.7 58.8,28.4 58.9,30.3 60.3,29.6 60.3,27.7 							"/>
						</g>
					</g>
				</g>
			</g>
		</g>
		<g>
			<g class="st4">
				<defs>
					<polygon id="SVGID_11_" class="st4" points="48.9,54.7 48.8,53.9 64.6,45.8 64.7,46.6 					"/>
				</defs>
				<clipPath id="SVGID_12_">
					<use xlink:href="#SVGID_11_"  style="overflow:visible;"/>
				</clipPath>
				<g class="st12">
					<path class="st13" d="M64.4,45.9l-2.7,1.4l0.1,0.8l-12.6,6.4c-0.1,0.1-0.3-0.1-0.3-0.3c0,0.2,0.1,0.3,0.3,0.3l15.3-7.8
						c0.1-0.1,0.2-0.3,0.2-0.5C64.6,45.9,64.5,45.8,64.4,45.9"/>
					<path class="st14" d="M61.6,47.3l-12.6,6.4c-0.1,0.1-0.2,0.3-0.2,0.5c0,0.2,0.1,0.3,0.3,0.3l12.6-6.4L61.6,47.3"/>
				</g>
			</g>
		</g>
	</g>
</g>
</svg>
