<?xml version="1.0" encoding="utf-8"?>
<!-- Generator: Adobe Illustrator 24.1.3, SVG Export Plug-In . SVG Version: 6.00 Build 0)  -->
<svg version="1.1" id="Layer_1" xmlns="http://www.w3.org/2000/svg" xmlns:xlink="http://www.w3.org/1999/xlink" x="0px" y="0px"
	 viewBox="0 0 70 70" style="enable-background:new 0 0 70 70;" xml:space="preserve">
<style type="text/css">
	.st0{fill:#E11E19;}
	.st1{fill:#0E3C62;}
</style>
<g id="AF_1_">
	<g>
		<g>
			<path class="st0" d="M7.4,20.3H3V6.6c0-1.8,1.4-3.2,3.2-3.2h13.7v4.4H7.4V20.3z"/>
			<path class="st0" d="M67.4,20.3H63V7.8H50.5V3.4h13.7c1.8,0,3.2,1.4,3.2,3.2V20.3z"/>
			<path class="st0" d="M67.4,64.8c0,1.8-1.4,3.2-3.2,3.2H50.4v-4.5h12.5V51h4.5L67.4,64.8z"/>
			<path class="st0" d="M19.9,68H6.2C4.4,68,3,66.6,3,64.8V51.1h4.4v12.5h12.5V68z"/>
			<path class="st1" d="M33.7,58.1H14.2V38.6h19.5V58.1z M18.7,53.6h10.6V43H18.7V53.6z"/>
			<rect x="21.5" y="45.8" class="st1" width="5" height="5"/>
			<rect x="46.5" y="45.8" class="st1" width="5" height="5"/>
			<rect x="51.5" y="40.8" class="st1" width="5" height="5"/>
			<rect x="41.5" y="40.8" class="st1" width="5" height="5"/>
			<rect x="51.5" y="50.8" class="st1" width="5" height="5"/>
			<rect x="41.5" y="50.8" class="st1" width="5" height="5"/>
			<path class="st1" d="M32.6,32.5H13.1V13h19.5L32.6,32.5z M17.6,28.1h10.6V17.5H17.6V28.1z"/>
			<rect x="20.3" y="20.3" class="st1" width="5" height="5"/>
			<path class="st1" d="M57.7,32.5H38.2V13h19.5V32.5z M42.6,28.1h10.6V17.5H42.6V28.1z"/>
			<rect x="45.4" y="20.3" class="st1" width="5" height="5"/>
		</g>
	</g>
</g>
</svg>
