<?xml version="1.0" encoding="utf-8"?>
<!-- Generator: Adobe Illustrator 25.0.0, SVG Export Plug-In . SVG Version: 6.00 Build 0)  -->
<svg version="1.1" id="Layer_1" xmlns="http://www.w3.org/2000/svg" xmlns:xlink="http://www.w3.org/1999/xlink" x="0px" y="0px"
	 viewBox="0 0 70 70" style="enable-background:new 0 0 70 70;" xml:space="preserve">
<style type="text/css">
	.st0{fill-rule:evenodd;clip-rule:evenodd;fill:#CCE4F2;}
	.st1{fill-rule:evenodd;clip-rule:evenodd;fill:#0E3C62;}
	.st2{fill-rule:evenodd;clip-rule:evenodd;fill:#FFCC00;}
</style>
<g>
	<g>
		<path class="st0" d="M50.9,58.6l7.2,10.1c0.5,0.6,2,0.3,3.4-0.7c1.4-1,2.2-2.4,1.8-3l-7.2-10.1C55.7,54.3,50.4,58,50.9,58.6z"/>
		<path class="st1" d="M34.1,29.6c-1.4,1-2.2,2.4-1.8,3l18.8,26.3c0.5,0.6,2,0.3,3.4-0.7c1.4-1,2.2-2.4,1.8-3L37.5,28.9
			C37,28.2,35.5,28.6,34.1,29.6z"/>
		<path class="st0" d="M26.7,19.3c-1.4,1-2.2,2.4-1.8,3l7.2,10.1c0.5,0.6,2,0.3,3.4-0.7c1.4-1,2.2-2.4,1.8-3l-7.2-10.1
			C29.7,18,28.1,18.3,26.7,19.3z"/>
	</g>
	<polygon class="st2" points="18.4,37.5 16.7,33.1 12.1,31.8 16.5,30 17.8,25.5 19.5,29.9 24.1,31.2 19.7,32.9 	"/>
	<polygon class="st2" points="38.4,20 36.9,16.4 33.2,15.3 36.8,13.9 37.8,10.2 39.3,13.8 43,14.8 39.4,16.3 	"/>
	<polygon class="st2" points="15.1,14.2 13.1,9.4 8.1,8 13,6 14.4,1 16.3,5.8 21.3,7.2 16.5,9.2 	"/>
</g>
</svg>
