<?xml version="1.0" encoding="utf-8"?>
<!-- Generator: Adobe Illustrator 24.1.3, SVG Export Plug-In . SVG Version: 6.00 Build 0)  -->
<svg version="1.1" id="Layer_1" xmlns="http://www.w3.org/2000/svg" xmlns:xlink="http://www.w3.org/1999/xlink" x="0px" y="0px"
	 viewBox="0 0 70 70" style="enable-background:new 0 0 70 70;" xml:space="preserve">
<style type="text/css">
	.st0{fill:#155992;}
	.st1{fill:#E11E19;}
	.st2{fill:url(#SVGID_1_);}
</style>
<g>
	<g>
		<g>
			<g>
				<path class="st0" d="M58.9,8.8l0.6,13.7h-1.6c-0.3-2.4-0.7-4.1-1.3-5.2c-0.9-1.7-2.1-2.9-3.6-3.7c-1.5-0.8-3.4-1.2-5.8-1.2H39
					v44.7c0,3.6,0.4,5.8,1.2,6.7c1.1,1.2,2.8,1.8,5,1.8h2v1.6H22.4v-1.6h2.1c2.5,0,4.2-0.7,5.3-2.2c0.6-0.9,0.9-3,0.9-6.3V12.4h-7
					c-2.7,0-4.7,0.2-5.8,0.6c-1.5,0.5-2.8,1.6-3.8,3.1c-1.1,1.6-1.7,3.7-1.9,6.3h-1.6l0.7-13.7H58.9z"/>
			</g>
			<polygon class="st1" points="66.6,52 66.6,53.2 3.4,53.2 3.4,52 -0.5,52 -0.5,55.8 3.4,55.8 3.4,54.7 66.6,54.7 66.6,55.8 
				70.5,55.8 70.5,52 			"/>
		</g>
	</g>
	
		<linearGradient id="SVGID_1_" gradientUnits="userSpaceOnUse" x1="-1680.4066" y1="-113.771" x2="-1647.8984" y2="-113.771" gradientTransform="matrix(0 1 -1 0 -78.35 1701.15)">
		<stop  offset="0" style="stop-color:#FFFFFF;stop-opacity:0"/>
		<stop  offset="3.086013e-02" style="stop-color:#FEF7F7;stop-opacity:3.086013e-02"/>
		<stop  offset="0.5149" style="stop-color:#EF8481;stop-opacity:0.5149"/>
		<stop  offset="0.8473" style="stop-color:#E53B36;stop-opacity:0.8473"/>
		<stop  offset="1" style="stop-color:#E11E19"/>
	</linearGradient>
	<polygon class="st2" points="2.9,53.3 2.9,20.7 67.9,20.7 67.9,53.3 	"/>
</g>
</svg>
