<?xml version="1.0" encoding="utf-8"?>
<!-- Generator: Adobe Illustrator 25.0.0, SVG Export Plug-In . SVG Version: 6.00 Build 0)  -->
<svg version="1.1" id="Layer_1" xmlns="http://www.w3.org/2000/svg" xmlns:xlink="http://www.w3.org/1999/xlink" x="0px" y="0px"
	 viewBox="0 0 70 70" style="enable-background:new 0 0 70 70;" xml:space="preserve">
<style type="text/css">
	.st0{fill:#B0B8BC;stroke:#CACFD2;stroke-width:0.5875;stroke-miterlimit:10;}
	.st1{fill:#F7C7C5;}
	.st2{fill:#155992;}
	.st3{fill:#BEC8D2;}
	.st4{fill:#788287;}
	.st5{fill:#E11E19;}
	.st6{fill:none;}
</style>
<g>
	<g>
		<g>
			<g>
				<g>
					<path class="st0" d="M40.3,38.8"/>
				</g>
				<g>
					<path class="st0" d="M38.4,41"/>
				</g>
			</g>
			<g>
				<g>
					<defs>
						<path id="SVGID_1_" d="M65,58.2c-0.6,4.4-6,7.8-9.8,7.8H5L24.4,7.1H49L65,58.2z"/>
					</defs>
					<use xlink:href="#SVGID_1_"  style="overflow:visible;fill:#C8DFF1;"/>
					<clipPath id="SVGID_2_">
						<use xlink:href="#SVGID_1_"  style="overflow:visible;"/>
					</clipPath>
				</g>
				<g>
					<path class="st1" d="M41.3,39.6"/>
				</g>
				<g>
					<path class="st1" d="M39.4,41.8"/>
				</g>
			</g>
			<g>
				<path class="st2" d="M43.1,16.7H29.7c-0.2,0-0.5-0.2-0.5-0.5v-0.1c0-0.2,0.2-0.5,0.5-0.5h13.4c0.2,0,0.5,0.2,0.5,0.5v0.1
					C43.6,16.5,43.4,16.7,43.1,16.7z"/>
			</g>
			<g>
				<path class="st2" d="M41.3,12.9h-9.9c-0.2,0-0.5-0.2-0.5-0.5v-0.1c0-0.2,0.2-0.5,0.5-0.5h9.9c0.2,0,0.5,0.2,0.5,0.5v0.1
					C41.8,12.7,41.6,12.9,41.3,12.9z"/>
			</g>
			<g>
				<path class="st2" d="M44,20.5H28.2c-0.2,0-0.5-0.2-0.5-0.5v-0.3c0-0.2,0.2-0.5,0.5-0.5H44c0.2,0,0.5,0.2,0.5,0.5V20
					C44.5,20.3,44.2,20.5,44,20.5z"/>
			</g>
			<g>
				<path class="st2" d="M46,25.2H26.1c-0.2,0-0.5-0.2-0.5-0.5v-0.1c0-0.2,0.2-0.5,0.5-0.5H46c0.2,0,0.5,0.2,0.5,0.5v0.1
					C46.5,25,46.3,25.2,46,25.2z"/>
			</g>
			<g>
				<path class="st2" d="M48.3,32H23.9c-0.2,0-0.5-0.2-0.5-0.5v-0.3c0-0.2,0.2-0.5,0.5-0.5h24.4c0.2,0,0.5,0.2,0.5,0.5v0.3
					C48.7,31.8,48.5,32,48.3,32z"/>
			</g>
			<g>
				<path class="st2" d="M50.9,41.2H21.2c-0.2,0-0.5-0.2-0.5-0.5v-0.3c0-0.2,0.2-0.5,0.5-0.5h29.7c0.2,0,0.5,0.2,0.5,0.5v0.3
					C51.4,41,51.2,41.2,50.9,41.2z"/>
			</g>
			<g>
				<path class="st2" d="M53.8,50.7H18.4c-0.2,0-0.5-0.2-0.5-0.5v-0.5c0-0.2,0.2-0.5,0.5-0.5h35.4c0.2,0,0.5,0.2,0.5,0.5v0.5
					C54.2,50.5,54,50.7,53.8,50.7z"/>
			</g>
		</g>
	</g>
	<g>
		<g>
			<polygon class="st3" points="47.5,7.1 25.5,7.4 25.5,6.9 47.5,6.7 			"/>
		</g>
	</g>
	<g>
		<g>
			<polygon class="st3" points="63.9,66.3 6.9,66.6 6.9,66.1 63.9,65.9 			"/>
		</g>
	</g>
	<g>
		<g>
			<polygon class="st3" points="5.4,63.8 4.9,63.8 23.1,8.7 23.7,8.7 			"/>
		</g>
	</g>
	<g>
		<g>
			<polygon class="st3" points="66.6,64.6 67.2,64.6 49.6,8.8 49,8.8 			"/>
		</g>
	</g>
	<g>
		<g>
			
				<rect x="35.6" y="2.5" transform="matrix(-1.836970e-16 1 -1 -1.836970e-16 42.9663 -28.9898)" class="st4" width="0.8" height="9"/>
		</g>
	</g>
	<g>
		<g>
			
				<rect x="34.6" y="61.7" transform="matrix(-1.836970e-16 1 -1 -1.836970e-16 101.2374 31.2483)" class="st4" width="0.8" height="9"/>
		</g>
	</g>
	<g>
		<g>
			<g>
				<g>
					<path class="st5" d="M7,68.1H2.9V64H7V68.1z M3.5,67.5h3v-3h-3V67.5z"/>
				</g>
			</g>
		</g>
		<g>
			<g>
				<g>
					<g>
						<rect x="4.3" y="65.5" class="st5" width="1.3" height="1.3"/>
					</g>
				</g>
			</g>
		</g>
	</g>
	<g>
		<g>
			<g>
				<g>
					<path class="st5" d="M68,68.1h-4.1V64H68V68.1z M64.4,67.5h3v-3h-3V67.5z"/>
				</g>
			</g>
		</g>
		<g>
			<g>
				<g>
					<g>
						<rect x="65.2" y="65.5" class="st5" width="1.3" height="1.3"/>
					</g>
				</g>
			</g>
		</g>
	</g>
	<g>
		<g>
			<g>
				<g>
					<defs>
						<path id="SVGID_3_" d="M13.5,69.4l0-2.2l0.5,0l0,2l-0.1,0l0,0.3L13.5,69.4z M16,69.4l0-0.5l2.1,0l0,0.5L16,69.4z M20.2,69.3
							l0-0.5l2.1,0l0,0.5L20.2,69.3z M24.4,69.3l0-0.5l2.1,0l0,0.5L24.4,69.3z M28.6,69.2l0-0.5l2.1,0l0,0.5L28.6,69.2z M32.8,69.2
							l0-0.5l2.1,0l0,0.5L32.8,69.2z M37,69.2l0-0.5l2.1,0l0,0.5L37,69.2z M41.2,69.1l0-0.5l2.1,0l0,0.5L41.2,69.1z M45.4,69.1
							l0-0.5l1.7,0c0.1,0,0.2,0,0.4,0l0.1,0.5c-0.1,0-0.3,0-0.4,0L45.4,69.1z M49.6,68.3l-0.2-0.5c0.5-0.3,1.1-0.7,1.7-1.1l0.3,0.4
							C50.8,67.6,50.2,68,49.6,68.3z M53,65.8l-0.4-0.4c0.5-0.5,1-1,1.4-1.5l0.4,0.3C54,64.8,53.5,65.3,53,65.8z M13.5,65.1l0-2.1
							l0.5,0l0,2.1L13.5,65.1z M55.8,62.6l-0.4-0.3c0.4-0.6,0.8-1.1,1.2-1.7l0.4,0.3C56.6,61.4,56.2,62,55.8,62.6z M13.5,60.9l0-2.1
							l0.5,0l0,2.1L13.5,60.9z M58,59l-0.5-0.2c0.3-0.6,0.6-1.3,0.9-1.9l0.5,0.2C58.7,57.7,58.4,58.3,58,59z M13.4,56.7l0-2.1l0.5,0
							l0,2.1L13.4,56.7z M59.6,55L59,54.9c0.2-0.7,0.2-1.4,0.2-2l0.4,0l0.1,0C59.8,53.5,59.7,54.2,59.6,55z M13.4,52.5l0-2.1l0.5,0
							l0,2.1L13.4,52.5z M59.3,51.2l0-2.1l0.5,0l0,2.1L59.3,51.2z M13.4,48.3l0-2.1l0.5,0l0,2.1L13.4,48.3z M59.2,47l0-2.1l0.5,0
							l0,2.1L59.2,47z M13.3,44.1l0-2.1l0.5,0l0,2.1L13.3,44.1z M59.2,42.8l0-2.1l0.5,0l0,2.1L59.2,42.8z M13.3,39.9l0-2.1l0.5,0
							l0,2.1L13.3,39.9z M59.2,38.6l0-2.1l0.5,0l0,2.1L59.2,38.6z M13.3,35.7l0-2.1l0.5,0l0,2.1L13.3,35.7z M59.1,34.4l0-2.1l0.5,0
							l0,2.1L59.1,34.4z M13.2,31.5l0-2.1l0.5,0l0,2.1L13.2,31.5z M59.1,30.2l0-2.1l0.5,0l0,2.1L59.1,30.2z M13.2,27.3l0-2.1l0.5,0
							l0,2.1L13.2,27.3z M59.1,26l0-2.1l0.5,0l0,2.1L59.1,26z M13.2,23.1l0-2.1l0.5,0l0,2.1L13.2,23.1z M59,21.8l0-2.1l0.5,0l0,2.1
							L59,21.8z M13.1,18.9l0-2.1l0.5,0l0,2.1L13.1,18.9z M59,17.6l0-2.1l0.5,0l0,2.1L59,17.6z M13.1,14.7l0-2.1l0.5,0l0,2.1
							L13.1,14.7z M59,13.4l0-2.1l0.5,0l0,2.1L59,13.4z M13.1,10.5l0-2.1l0.5,0l0,2.1L13.1,10.5z M58.9,9.2l0-2.1l0.5,0l0,2.1
							L58.9,9.2z M13,6.3l0-2.1l0.5,0l0,2.1L13,6.3z M58.9,5l0-2.1l0.5,0l0,2.1L58.9,5z M13.7,2.8l0-0.5l2.1,0l0,0.5L13.7,2.8z
							 M17.9,2.8l0-0.5l2.1,0l0,0.5L17.9,2.8z M22.1,2.7l0-0.5l2.1,0l0,0.5L22.1,2.7z M26.3,2.7l0-0.5l2.1,0l0,0.5L26.3,2.7z
							 M30.5,2.7l0-0.5l2.1,0l0,0.5L30.5,2.7z M34.7,2.6l0-0.5l2.1,0l0,0.5L34.7,2.6z M38.9,2.6l0-0.5L41,2l0,0.5L38.9,2.6z
							 M43.1,2.5l0-0.5l2.1,0l0,0.5L43.1,2.5z M47.3,2.5l0-0.5l2.1,0l0,0.5L47.3,2.5z M51.5,2.5l0-0.5l2.1,0l0,0.5L51.5,2.5z
							 M55.7,2.4l0-0.5l2.1,0l0,0.5L55.7,2.4z"/>
					</defs>
					<use xlink:href="#SVGID_3_"  style="overflow:visible;fill:#04B8B5;"/>
					<clipPath id="SVGID_4_">
						<use xlink:href="#SVGID_3_"  style="overflow:visible;"/>
					</clipPath>
				</g>
				<g>
					<path class="st6" d="M41.7,41.3"/>
				</g>
				<g>
					<path class="st6" d="M39.4,44"/>
				</g>
			</g>
		</g>
	</g>
	<g>
		<g>
			<g>
				<g>
					<path class="st5" d="M25.5,9.2h-4.1V5.1h4.1V9.2z M21.9,8.7h3v-3h-3V8.7z"/>
				</g>
			</g>
		</g>
		<g>
			<g>
				<g>
					<g>
						<rect x="22.7" y="6.6" class="st5" width="1.3" height="1.3"/>
					</g>
				</g>
			</g>
		</g>
	</g>
	<g>
		<g>
			<g>
				<g>
					<path class="st5" d="M51.1,9.2H47V5.1h4.1V9.2z M47.5,8.7h3v-3h-3V8.7z"/>
				</g>
			</g>
		</g>
		<g>
			<g>
				<g>
					<g>
						<rect x="48.3" y="6.6" class="st5" width="1.3" height="1.3"/>
					</g>
				</g>
			</g>
		</g>
	</g>
	<g>
		<g>
			<polygon class="st4" points="15,36.1 13.8,36.1 17.8,24.2 18.9,24.2 			"/>
		</g>
	</g>
	<g>
		<g>
			<polygon class="st4" points="57.3,35 58.4,35 54.4,23.1 53.3,23.1 			"/>
		</g>
	</g>
</g>
</svg>
