<?xml version="1.0" encoding="utf-8"?>
<!-- Generator: Adobe Illustrator 24.1.3, SVG Export Plug-In . SVG Version: 6.00 Build 0)  -->
<svg version="1.1" id="Layer_1" xmlns="http://www.w3.org/2000/svg" xmlns:xlink="http://www.w3.org/1999/xlink" x="0px" y="0px"
	 viewBox="0 0 310 210" style="enable-background:new 0 0 310 210;" xml:space="preserve">
<style type="text/css">
	.st0{fill:#FFFFFF;}
	.st1{fill:#DFE7F0;}
	.st2{fill:#F5F8FA;}
	.st3{fill:#DEE3E8;}
	.st4{fill:none;stroke:#DEE3E8;stroke-width:0.8734;stroke-linecap:round;stroke-miterlimit:10;}
	.st5{fill:#E11E19;}
	.st6{fill:#F9D2D1;}
	.st7{fill:none;stroke:#F9D2D1;stroke-width:0.8734;stroke-linecap:round;stroke-miterlimit:10;}
	.st8{fill:#F2BB93;}
	.st9{fill:#1C77C3;}
	.st10{fill:#155992;}
	.st11{fill:#0E3C62;}
	.st12{fill:#40A5CE;}
	.st13{opacity:0.44;fill:#FFFFFF;}
	.st14{fill:#F0C6BD;}
	.st15{fill:#66AEDE;}
</style>
<path class="st0" d="M299.7,210.6H9.3c-5.4,0-9.8-4.4-9.8-9.8V7.2c0-5.4,4.4-9.8,9.8-9.8h290.3c5.4,0,9.8,4.4,9.8,9.8v193.5
	C309.5,206.2,305.1,210.6,299.7,210.6z"/>
<g>
	<path class="st1" d="M167.9,100.1l72.9,0.5c0.1-0.9,0.1-1.7,0.1-2.6l-72.6-7.3l62-39.3c-0.4-0.7-0.8-1.5-1.2-2.2l-65.5,33.3
		l31.4-67.6c-0.7-0.4-1.4-0.8-2.1-1.2l-37.6,64.4L145,3c-0.8,0-1.5,0.1-2.3,0.1l3.2,75.8L96,20.6c-0.6,0.4-1.2,0.9-1.8,1.3
		l44.2,62.8l-74-22.2c-0.2,0.7-0.5,1.3-0.7,2l71.6,29.1l-74,21.2c0.2,0.7,0.3,1.4,0.5,2.1l75.7-14.2L87.3,160c0.5,0.5,1.1,1,1.7,1.5
		l55.4-52.2l-11.1,74.1c0.8,0.1,1.6,0.3,2.3,0.4l18-72.7l30.2,67.3c0.8-0.3,1.5-0.6,2.3-0.9l-23.8-69.8l61.2,39.9
		c0.5-0.7,1-1.4,1.5-2.1L167.9,100.1z"/>
	<g>
		
			<image style="overflow:visible;opacity:0.2;" width="49" height="61" xlink:href="4F170374.png"  transform="matrix(1 0 0 1 43.3798 60.3798)">
		</image>
		<g>
			<g>
				<path class="st2" d="M72.3,116.9L46,112.6l8.2-50.5l27.6,4.5l2.2,3.2l3.8,4.4l-6,35.9C81,114.6,76.8,117.6,72.3,116.9z"/>
				<polygon class="st3" points="80.7,73.3 87.7,74.3 81.6,66.5 				"/>
				<g>
					<line class="st4" x1="59" y1="74.4" x2="76.8" y2="77.1"/>
					<line class="st4" x1="58.7" y1="77" x2="76.5" y2="79.6"/>
					<line class="st4" x1="58.2" y1="79.5" x2="76" y2="82.1"/>
					<line class="st4" x1="57.9" y1="82" x2="75.7" y2="84.7"/>
					<line class="st4" x1="57.5" y1="84.4" x2="75.4" y2="87.1"/>
					<line class="st4" x1="57.2" y1="86.9" x2="75.1" y2="89.6"/>
				</g>
			</g>
		</g>
	</g>
	<g>
		
			<image style="overflow:visible;opacity:0.2;" width="56" height="64" xlink:href="4F170375.png"  transform="matrix(1 0 0 1 70.3798 77.3798)">
		</image>
		<g>
			<g>
				<path class="st2" d="M97.9,136.4l-24.8-9.7l18.6-47.6l26,10.2l1.5,3.6l2.7,5.1l-13.4,33.8C107,136,102.2,138.1,97.9,136.4z"/>
				<polygon class="st3" points="115.3,95.6 122,98.1 117.7,89.2 				"/>
				<g>
					<line class="st4" x1="93.8" y1="92.1" x2="110.7" y2="98.5"/>
					<line class="st4" x1="93" y1="94.5" x2="109.9" y2="100.9"/>
					<line class="st4" x1="92" y1="96.9" x2="108.9" y2="103.3"/>
					<line class="st4" x1="91.2" y1="99.3" x2="108.1" y2="105.7"/>
					<line class="st4" x1="90.3" y1="101.6" x2="107.2" y2="108"/>
					<line class="st4" x1="89.5" y1="104" x2="106.4" y2="110.4"/>
				</g>
			</g>
		</g>
	</g>
	<g>
		
			<image style="overflow:visible;opacity:0.2;" width="40" height="53" xlink:href="4F170373.png"  transform="matrix(1 0 0 1 229.3798 22.3798)">
		</image>
		<g>
			<g>
				<path class="st2" d="M254.6,70.8l-23-1.7l3.3-44l24.1,1.8l2.1,2.6l3.6,3.5l-2.5,31.3C261.9,68.2,258.5,71.1,254.6,70.8z"/>
				<polygon class="st3" points="258.6,32.7 264.7,33 258.9,26.8 				"/>
				<g>
					<line class="st4" x1="240" y1="35.3" x2="255.5" y2="36.2"/>
					<line class="st4" x1="239.9" y1="37.5" x2="255.4" y2="38.5"/>
					<line class="st4" x1="239.7" y1="39.7" x2="255.2" y2="40.6"/>
					<line class="st4" x1="239.6" y1="41.9" x2="255.1" y2="42.9"/>
					<line class="st4" x1="239.5" y1="44" x2="255" y2="44.9"/>
					<line class="st4" x1="239.4" y1="46.2" x2="254.9" y2="47.2"/>
				</g>
			</g>
		</g>
	</g>
	<g>
		
			<image style="overflow:visible;opacity:0.2;" width="51" height="67" xlink:href="4F17037C.png"  transform="matrix(1 0 0 1 232.3798 92.3798)">
		</image>
		<g>
			<g>
				<path class="st2" d="M265.1,154.8l-30.2-2.2l4.3-58l31.7,2.4l2.8,3.4l4.7,4.6l-3.2,41.3C274.7,151.3,270.2,155.2,265.1,154.8z"
					/>
				<polygon class="st3" points="270.3,104.6 278.3,105 270.7,96.8 				"/>
				<g>
					<line class="st4" x1="245.8" y1="108" x2="266.3" y2="109.3"/>
					<line class="st4" x1="245.7" y1="110.9" x2="266.2" y2="112.2"/>
					<line class="st4" x1="245.4" y1="113.8" x2="265.9" y2="115.1"/>
					<line class="st4" x1="245.3" y1="116.7" x2="265.8" y2="118"/>
					<line class="st4" x1="245.1" y1="119.4" x2="265.6" y2="120.7"/>
					<line class="st4" x1="245" y1="122.4" x2="265.5" y2="123.7"/>
				</g>
			</g>
		</g>
	</g>
	<g>
		
			<image style="overflow:visible;opacity:0.2;" width="58" height="65" xlink:href="4F17037F.png"  transform="matrix(1 0 0 1 4.3798 77.3798)">
		</image>
		<g>
			<g>
				<path class="st2" d="M52.7,125.9l-23.9,11.7L6.3,91.8l25.1-12.3l3.6,1.3l5.6,1.4l15.9,32.7C58.5,119,56.8,123.9,52.7,125.9z"/>
				<polygon class="st3" points="34.3,85.5 40.6,82.3 31.2,79.4 				"/>
				<g>
					<line class="st4" x1="17.2" y1="99" x2="33.4" y2="90.9"/>
					<line class="st4" x1="18.5" y1="101.3" x2="34.6" y2="93.1"/>
					<line class="st4" x1="19.5" y1="103.6" x2="35.6" y2="95.4"/>
					<line class="st4" x1="20.8" y1="105.8" x2="36.9" y2="97.7"/>
					<line class="st4" x1="21.8" y1="108" x2="38" y2="99.9"/>
					<line class="st4" x1="23.1" y1="110.2" x2="39.2" y2="102.1"/>
				</g>
			</g>
		</g>
	</g>
	<g>
		<g>
			
				<image style="overflow:visible;opacity:0.2;" width="52" height="62" xlink:href="4F17037D.png"  transform="matrix(1 0 0 1 88.3798 41.3798)">
			</image>
			<g>
				<g>
					<path class="st2" d="M130.8,90l-24,8.6L90.2,52.6l25.2-9l3.3,1.6l5.2,1.9L135.5,80C137,84.1,134.9,88.6,130.8,90z"/>
					<polygon class="st3" points="117.6,49.6 123.9,47.2 115.3,43.5 					"/>
					<g>
						<line class="st4" x1="99.9" y1="60.6" x2="116.1" y2="54.6"/>
						<line class="st4" x1="100.8" y1="62.9" x2="117" y2="56.9"/>
						<line class="st4" x1="101.6" y1="65.2" x2="117.8" y2="59.2"/>
						<line class="st4" x1="102.5" y1="67.5" x2="118.7" y2="61.5"/>
						<line class="st4" x1="103.3" y1="69.7" x2="119.5" y2="63.6"/>
						<line class="st4" x1="104.3" y1="71.9" x2="120.5" y2="65.9"/>
					</g>
				</g>
			</g>
		</g>
		<g>
			
				<image style="overflow:visible;opacity:0.2;" width="42" height="57" xlink:href="4F170372.png"  transform="matrix(1 0 0 1 178.3798 40.3798)">
			</image>
			<g>
				<g>
					<path class="st2" d="M206.1,92.6l-25.5-0.7l1.4-48.9l26.8,0.7l2.5,2.7l4.1,3.7l-1.1,34.8C214.1,89.2,210.5,92.7,206.1,92.6z"/>
					<polygon class="st3" points="208.5,50.1 215.3,50.2 208.6,43.5 					"/>
					<g>
						<line class="st4" x1="188.1" y1="53.9" x2="205.3" y2="54.2"/>
						<line class="st4" x1="188.1" y1="56.4" x2="205.4" y2="56.7"/>
						<line class="st4" x1="188" y1="58.8" x2="205.3" y2="59.1"/>
						<line class="st4" x1="188" y1="61.3" x2="205.3" y2="61.6"/>
						<line class="st4" x1="188" y1="63.6" x2="205.3" y2="63.9"/>
						<line class="st4" x1="188" y1="66.1" x2="205.3" y2="66.3"/>
					</g>
				</g>
			</g>
		</g>
		<g>
			<path class="st5" d="M165.2,115.1l-25.5-0.7l1.4-48.9l26.8,0.7l2.5,2.7l4.1,3.7l-1.1,34.8C173.2,111.8,169.6,115.2,165.2,115.1z"
				/>
			<polygon class="st6" points="167.7,72.6 174.4,72.7 167.7,66.1 			"/>
			<g>
				<line class="st7" x1="147.2" y1="76.4" x2="164.5" y2="76.7"/>
				<line class="st7" x1="147.2" y1="78.9" x2="164.5" y2="79.2"/>
				<line class="st7" x1="147.1" y1="81.3" x2="164.4" y2="81.6"/>
				<line class="st7" x1="147.1" y1="83.8" x2="164.4" y2="84.1"/>
				<line class="st7" x1="147.1" y1="86.1" x2="164.4" y2="86.4"/>
				<line class="st7" x1="147.1" y1="88.6" x2="164.4" y2="88.9"/>
			</g>
		</g>
		<g>
			
				<image style="overflow:visible;opacity:0.2;" width="47" height="59" xlink:href="4F170376.png"  transform="matrix(1 0 0 1 208.3798 60.3798)">
			</image>
			<g>
				<g>
					<path class="st2" d="M243.7,110.9l-25.2,4.2l-8-48.3l26.4-4.4l3,2.2l4.7,2.8l5.6,34.4C250.9,106.1,248,110.2,243.7,110.9z"/>
					<polygon class="st3" points="237.9,68.8 244.6,67.5 236.7,62.3 					"/>
					<g>
						<line class="st4" x1="218.5" y1="76.5" x2="235.5" y2="73.4"/>
						<line class="st4" x1="219" y1="78.9" x2="236.1" y2="75.8"/>
						<line class="st4" x1="219.4" y1="81.3" x2="236.4" y2="78.2"/>
						<line class="st4" x1="219.9" y1="83.7" x2="236.9" y2="80.6"/>
						<line class="st4" x1="220.3" y1="86" x2="237.3" y2="82.9"/>
						<line class="st4" x1="220.8" y1="88.4" x2="237.8" y2="85.3"/>
					</g>
				</g>
			</g>
		</g>
		<g>
			<path class="st0" d="M138.2,103.2c-1.3-2.9-1.9-6-2-9.3c0-3.2,0.6-6.4,1.9-9.4c0.3-0.8,0.7-1.5,1.1-2.2c0.4-0.7,0.8-1.4,1.3-2.1
				c1-1.3,2.1-2.5,3.3-3.6c2.5-2.1,5.5-3.5,8.6-3.9c-2.9,1.3-5.3,3.1-7.4,5.2c-2,2.2-3.6,4.7-4.8,7.4c-1.2,2.7-1.9,5.6-2.2,8.6
				C137.8,97.1,137.9,100.1,138.2,103.2z"/>
		</g>
		<g>
			<path class="st8" d="M208.6,196.4l-18.9-7.5c-4.5-1.8-7.5-3.5-5.8-8l2-5.1c1.8-4.5,9.1-14.1,13.6-12.4l18.9,7.5
				c4.5,1.8,4.4,14.4,2.6,18.8l-2,5.1C217.3,199.4,213.1,198.2,208.6,196.4z"/>
			<g>
				<path class="st9" d="M173.5,127.8l0.2,2.1c15.1-4.9,25.2-19.9,23.3-36.3c-2.2-18.7-19.1-32-37.8-29.8
					c-18.7,2.2-32,19.1-29.8,37.8c2,16.6,15.6,29,31.7,30l-0.3-2.2L173.5,127.8z M156.9,125.9c-0.4-0.1-0.8-0.2-1.1-0.3
					c-15.4-4-24.6-19.7-20.6-35c3.9-15,18.9-24.1,33.9-20.9c0.6,0.1,1.2,0.2,1.8,0.4c15.4,4,24.6,19.7,20.6,35
					c-4,15.3-19.5,24.5-34.8,20.7C156.8,125.8,156.9,125.9,156.9,125.9z"/>
				<path class="st10" d="M163.8,135.3l8.2-1c0.9-0.1,1.8,0.2,2.4,0.8l-0.6-5.3l-0.2-2.1l-12.6,1.5l0.3,2.2l0.6,5.1
					C162.1,135.9,162.9,135.4,163.8,135.3z"/>
				<path class="st11" d="M175.1,136.5c-0.1-0.6-0.3-1.1-0.7-1.4c-0.6-0.6-1.4-0.9-2.4-0.8l-8.2,1c-0.9,0.1-1.7,0.6-2.1,1.3
					c-0.3,0.5-0.5,1-0.4,1.6l0.5,46.5c0,0.2,0,0.4,0.1,0.6c0.3,1.2,1.6,2,3,1.9l18.2-2.1c1-0.1,1.9-0.7,2.3-1.5
					c0.2-0.5,0.3-1.1,0.2-1.6L175.1,136.5z"/>
				<path class="st12" d="M135.9,90.7c3.8-14.8,18.4-23.8,33.2-21c-15-3.2-30,5.9-33.9,20.9c-4,15.4,5.2,31,20.6,35
					c0.4,0.1,0.8,0.2,1.1,0.3c-0.1,0-0.1,0-0.2-0.1c-0.1,0-0.2,0-0.2-0.1C141.1,121.8,131.9,106.1,135.9,90.7z"/>
				<path class="st13" d="M191.5,105.1c4-15.4-5.2-31-20.6-35c-0.6-0.2-1.2-0.3-1.8-0.4c-14.8-2.8-29.4,6.3-33.2,21
					c-4,15.4,5.2,31,20.6,35c0.1,0,0.2,0,0.2,0.1C172,129.6,187.5,120.4,191.5,105.1z"/>
			</g>
			<path class="st14" d="M206.8,166.3l-7.4,16.5c-2.4,6.1-10.3,10-17,7.3l-0.6-0.3c-0.4,0-0.8-0.1-1.1-0.2c0,0-6-0.4-9-1.7
				c-3.1-1.3-15.9-8.3-15.9-8.3c-1.9-0.7-2.8-2.9-2-4.8c0.4-0.9,1.1-1.6,2-2c0.9-0.4,1.9-0.4,2.8,0l3.1,1.2c0-0.4-0.1-0.8-0.1-1.2
				l-5.4-2.2c-2-0.8-3.1-3.1-2.2-5.1c0.4-0.9,1.1-1.5,1.9-1.9c0.9-0.4,1.9-0.4,2.8,0l4.7,1.9l0.2-0.6l-6.4-2.6
				c-2.2-0.9-3.4-3.5-2.5-5.7c0.4-1.1,1.3-2,2.4-2.4c1-0.5,2.2-0.5,3.4-0.1l6.8,2.7c0.1-0.1,0.2-0.3,0.3-0.4l-9.9-4
				c-2.3-0.9-3.6-3.7-2.6-6c0.5-1,1.3-1.8,2.3-2.2c1-0.4,2.2-0.5,3.3,0l18,7.2c1.3,0.1,3.6,0.3,4.9,0.9l-0.8,0.2
				c2.4-0.8-1.1-2-1.3-2.6c-0.6-1.3-2-1.8-4.8-2.5l-0.1,0.1c0,0-1.9-5.7-2.3-6.9c0-0.1,0.1-0.2,0.1-0.1l12.5,3.8
				c6,3.3,10,8.1,12.8,18.1C201.5,165.4,206,166.4,206.8,166.3z"/>
			<path class="st0" d="M192.1,191.3"/>
			<path class="st15" d="M263.7,209.7c0,0-39.6,1.6-42.1-0.6c-4-3.5-25.4-9.8-25.4-9.8L210,166c0,0,55.7,19.8,72.5,32.1
				c11.3,8.2,21.5,11.7,21.5,11.7L263.7,209.7z"/>
		</g>
	</g>
</g>
</svg>
