<?xml version="1.0" encoding="utf-8"?>
<!-- Generator: Adobe Illustrator 24.1.3, SVG Export Plug-In . SVG Version: 6.00 Build 0)  -->
<svg version="1.1" id="Layer_1" xmlns="http://www.w3.org/2000/svg" xmlns:xlink="http://www.w3.org/1999/xlink" x="0px" y="0px"
	 viewBox="0 0 310 207.5" style="enable-background:new 0 0 310 207.5;" xml:space="preserve">
<style type="text/css">
	.st0{fill:#FFFFFF;}
	.st1{fill:#FFFFFF;stroke:#FF00FF;stroke-width:1.2394;stroke-miterlimit:10;}
	.st2{fill:none;stroke:#DFE7F0;stroke-width:1.6493;stroke-linecap:round;stroke-miterlimit:10;}
	
		.st3{fill:none;stroke:#DFE7F0;stroke-width:1.6493;stroke-linecap:round;stroke-miterlimit:10;stroke-dasharray:8.155715e-02,4.0779;}
	.st4{fill:#DFE7F0;}
	.st5{fill:#FAA613;}
	.st6{fill:#CED6DD;}
	.st7{fill:#DEE3E8;}
	.st8{fill:#F0F4F7;stroke:#F5F8FA;stroke-width:0.8246;stroke-miterlimit:10;}
	.st9{fill:#BEC8D2;}
	.st10{fill:#FCE4A0;}
	.st11{fill:#FFCF00;}
	.st12{fill:#E95653;}
	.st13{fill:none;}
	.st14{opacity:0.15;}
	.st15{fill-rule:evenodd;clip-rule:evenodd;fill:#7FAAC5;}
	.st16{fill:#F0F4F7;stroke:#FFFFFF;stroke-width:0.8246;stroke-miterlimit:10;}
	.st17{fill:#788186;}
	.st18{fill:#66AEDE;}
	.st19{fill:#65A3CC;}
	.st20{fill:#85BEE5;}
	.st21{fill:#155992;}
	.st22{fill:#CCE4F2;}
</style>
<path class="st0" d="M300.7,210.6H10.3c-5.4,0-9.8-4.4-9.8-9.8V7.2c0-5.4,4.4-9.8,9.8-9.8h290.3c5.4,0,9.8,4.4,9.8,9.8v193.5
	C310.5,206.2,306.1,210.6,300.7,210.6z"/>
<g>
	<g>
		<g>
			<g>
				<path class="st1" d="M120.4,79.4"/>
				<path class="st1" d="M120.4,79.1"/>
				<g>
					<g>
						<path class="st2" d="M168.2,73C168.2,73,168.2,73,168.2,73"/>
						<path class="st3" d="M165.2,75.8c-5.7,5.2-15.1,11.7-27.1,13.1c-16.1,1.9-25.7-0.7-29.5-2.1"/>
						<path class="st2" d="M106.8,86C106.8,86,106.7,85.9,106.8,86"/>
						<g>
							<polygon class="st4" points="165,71.4 171.4,69.3 170,75.9 							"/>
						</g>
					</g>
				</g>
				<g>
					<g>
						<g>
							<polygon class="st5" points="84,84.9 35.9,120.2 36.3,179.2 133,178.5 132.6,119.5 							"/>
							<g>
								<path class="st6" d="M62,66.6c-1-0.2-2.1,0-3.1,0.7c-0.9,0.6-1.5,1.6-1.7,2.7l-14,77.2L125,162l14-77.2c0.2-1,0-2.1-0.7-3.1
									c-0.6-0.9-1.6-1.5-2.6-1.7L62,66.6z"/>
								<path class="st7" d="M59.9,68.5c-1-0.2-2.1,0-3.1,0.7c-0.9,0.6-1.5,1.6-1.7,2.7l-14,77.2l81.8,14.9l14-77.2
									c0.2-1,0-2.1-0.7-3.1c-0.6-0.9-1.6-1.5-2.6-1.7L59.9,68.5z"/>
								<path class="st8" d="M57.6,70.8c-1-0.2-2.1,0-3.1,0.7c-0.9,0.6-1.5,1.6-1.7,2.7l-14,77.2l81.8,14.9l14-77.2
									c0.2-1,0-2.1-0.7-3.1c-0.6-0.9-1.6-1.5-2.6-1.7L57.6,70.8z"/>
								<g>
									
										<rect x="87" y="75.7" transform="matrix(0.1787 -0.9839 0.9839 0.1787 -32.8219 176.0713)" class="st9" width="4.1" height="64"/>
									
										<rect x="85.6" y="83.7" transform="matrix(0.1787 -0.9839 0.9839 0.1787 -41.9149 181.229)" class="st9" width="4.1" height="64"/>
									
										<rect x="84.1" y="91.8" transform="matrix(0.1787 -0.9839 0.9839 0.1787 -50.9914 186.4072)" class="st9" width="4.1" height="64"/>
									
										<rect x="69.3" y="111" transform="matrix(0.1787 -0.9839 0.9839 0.1787 -68.7053 176.373)" class="st9" width="4.1" height="36.7"/>
									
										<rect x="88.5" y="67.7" transform="matrix(0.1787 -0.9839 0.9839 0.1787 -23.7232 170.9103)" class="st9" width="4.1" height="64"/>
									
										<rect x="89.9" y="59.6" transform="matrix(0.1787 -0.9839 0.9839 0.1787 -14.6273 165.751)" class="st9" width="4.1" height="64"/>
								</g>
							</g>
							<polygon class="st10" points="132.6,119.5 133,178.5 84.5,149.4 							"/>
							<polygon class="st10" points="84.5,149.4 36.3,179.2 35.9,120.2 							"/>
							<polygon class="st11" points="133,178.5 36.3,179.2 84.5,149.4 							"/>
						</g>
					</g>
					<g>
						<path class="st0" d="M85.8,167.1L85.8,167.1c-0.6,1.9-1.7,2.8-3.4,2.8c-1.1,0-1.9-0.4-2.6-1.2c-0.6-0.8-1-1.8-1-3.2
							c0-1.8,0.4-3.2,1.3-4.4c0.9-1.2,2.1-1.7,3.5-1.7c0.6,0,1.1,0.1,1.5,0.4s0.7,0.6,0.8,1.1h0c0-0.2,0.1-0.7,0.1-1.3h1.5
							c-0.4,4.3-0.5,6.5-0.5,6.5c0,1.6,0.5,2.4,1.4,2.4c0.8,0,1.5-0.5,2.1-1.4c0.6-0.9,0.8-2.1,0.8-3.5c0-2.1-0.7-3.9-2-5.2
							c-1.4-1.4-3.2-2-5.6-2c-2.3,0-4.2,0.8-5.7,2.4s-2.3,3.6-2.3,6.1c0,2.4,0.7,4.3,2.2,5.8c1.4,1.5,3.4,2.2,5.8,2.2
							c1.9,0,3.6-0.3,4.9-1v1.4c-1.3,0.6-3,0.9-5,0.9c-2.8,0-5.1-0.9-6.8-2.6c-1.7-1.7-2.6-3.9-2.6-6.7c0-2.8,0.9-5.2,2.7-7.1
							c1.8-1.9,4.1-2.8,7-2.8c2.6,0,4.8,0.8,6.6,2.4c1.7,1.6,2.6,3.6,2.6,6.1c0,1.9-0.5,3.4-1.4,4.6c-0.9,1.2-2,1.8-3.3,1.8
							C86.7,169.9,85.8,169,85.8,167.1z M83.7,160.8c-1,0-1.7,0.5-2.3,1.4s-0.9,2.1-0.9,3.4c0,0.9,0.2,1.6,0.6,2.2
							c0.4,0.5,0.9,0.8,1.6,0.8c1,0,1.7-0.5,2.3-1.4c0.6-1,0.8-2.2,0.8-3.8C85.8,161.6,85.1,160.8,83.7,160.8z"/>
					</g>
					<g>
						<circle id="XMLID_102_" class="st12" cx="131" cy="85.1" r="10.5"/>
						<g>
							<path class="st13" d="M124.2,90.3c-0.2-0.3-0.4-0.6-0.6-0.9c-0.2-0.3-0.4-0.5-0.4-0.9c-0.1-0.8,0-1.6,0.2-2.4
								c0.1-0.3,0.2-0.5,0.5-0.7c0.5-0.4,1.1-0.7,1.6-1.1c1.9-1.3,3.7-2.6,5.6-3.9c0.7-0.5,1.4-1,2.1-1.4c0.1-0.1,0.3-0.2,0.4-0.3
								c0,0,0,0,0.1-0.1c0.2-0.1,0.3,0,0.4,0.2c0,0,0.1,0.1,0.1,0.1c0,0,0,0.1,0,0.2c0,0,0.1,0,0.1,0.1c0,0,0,0.1,0,0.2
								c0.1,0.1,0.1,0,0.2,0c0.4-0.2,0.8-0.6,1.2-0.8c0.3-0.2,0.6-0.1,0.8,0.2c0.3,0.3,0.5,0.7,0.8,1c1.1,1.6,2.1,3.2,3.2,4.8
								c0.3,0.5,0.7,1,1,1.5c0.5-4.7-2.4-9.4-7.1-11c-5.5-1.9-11.5,1.1-13.3,6.6c-1.8,5.3,0.9,11.1,6,13.1c-0.6-0.9-1.1-1.7-1.7-2.6
								C125.1,91.6,124.6,91,124.2,90.3z"/>
							<path class="st14" d="M141,88.5c0.3-0.8,0.4-1.6,0.5-2.4c-0.3-0.5-0.7-1-1-1.5c-1-1.6-2-3.3-3.2-4.8c-0.2-0.3-0.5-0.7-0.8-1
								c-0.2-0.3-0.5-0.4-0.8-0.2c-0.4,0.3-0.8,0.6-1.2,0.8c-0.1,0-0.1,0.1-0.2,0c0,0,0-0.1,0-0.2c0,0-0.1-0.1-0.1-0.1
								c0,0,0-0.1,0-0.2c0-0.1-0.1-0.1-0.1-0.1c-0.1-0.2-0.2-0.3-0.4-0.2c0,0-0.1,0-0.1,0.1c-0.1,0.1-0.3,0.2-0.4,0.3
								c-0.7,0.5-1.4,1-2.1,1.4c-1.9,1.3-3.7,2.6-5.6,3.9c-0.5,0.4-1.1,0.7-1.6,1.1c-0.3,0.2-0.4,0.4-0.5,0.7
								c-0.2,0.7-0.3,1.6-0.2,2.4c0,0.4,0.2,0.6,0.4,0.9c0.2,0.3,0.4,0.6,0.6,0.9c0.4,0.6,0.8,1.3,1.2,1.9c0.6,0.9,1.1,1.7,1.7,2.6
								c0.2,0.1,0.4,0.1,0.5,0.2C133.2,96.9,139.1,93.9,141,88.5z"/>
						</g>
						<path class="st0" d="M138.3,81.1c-0.2-0.3-0.4-0.7-0.7-1.1l-0.2-0.3c-0.2-0.3-0.4-0.6-0.6-0.8c-0.2-0.2-0.4-0.5-0.6-0.5
							c-0.1,0-0.2,0-0.3,0.1l-8.6,5.9c-0.6,0.4-0.8,1.8-0.4,2.3c0.2,0.2,0.6,0.4,1.1,0.5c0.5,0.1,0.9,0,1.2-0.1l6.9-4.8
							c0.1-0.1,0.2-0.3,0.1-0.4l-0.1-0.1c-0.1-0.1-0.1-0.1-0.2-0.1c-0.1,0-0.2,0-0.2,0.1l-6.9,4.8c-0.1,0.1-0.4,0-0.6,0
							c-0.2,0-0.6-0.1-0.7-0.3c-0.2-0.2,0-1.2,0.2-1.4l8.4-5.8l0.1,0.1c0.2,0.2,0.5,0.7,0.9,1.2l0.1,0.2c0.3,0.4,0.5,0.8,0.6,1
							l0,0.1l-0.1,0.1l-11.1,7.7c-0.1,0-0.3,0-0.5,0c-0.6-0.1-1.8-0.5-2-0.8c-0.2-0.3-0.1-2.4,0.1-2.7l0,0l9.8-6.7
							c0.2-0.1,0.2-0.3,0.1-0.5c0-0.1-0.1-0.1-0.2-0.1c-0.1,0-0.2,0-0.3,0.1l-9.8,6.7c-0.3,0.2-0.5,0.8-0.6,1.8
							c0,0.3-0.1,1.4,0.2,1.8c0.2,0.3,1.2,0.8,2.2,1c0.6,0.1,1,0.1,1.2-0.1l8.1-5.6l0,0l3.3-2.3C138.7,81.8,138.5,81.5,138.3,81.1z"
							/>
					</g>
				</g>
				<g>
					<g>
						<path class="st15" d="M182.3,41.9l-8.9-12.4c-0.2-0.3-0.1-0.7,0.1-0.9l0.8-0.6c0.3-0.2,0.7-0.1,0.9,0.1l8.9,12.4
							c0.2,0.3,0.1,0.7-0.1,0.9l-0.8,0.6C183,42.2,182.5,42.1,182.3,41.9z"/>
						<circle class="st15" cx="172.6" cy="26.3" r="1.1"/>
					</g>
					<g>
						<path class="st15" d="M173.3,42.8l-8.9-12.4c-0.2-0.3-0.1-0.7,0.1-0.9l0.8-0.6c0.3-0.2,0.7-0.1,0.9,0.1l8.9,12.4
							c0.2,0.3,0.1,0.7-0.1,0.9l-0.8,0.6C173.9,43.2,173.5,43.1,173.3,42.8z"/>
						<circle class="st15" cx="163.5" cy="27.2" r="1.1"/>
					</g>
					<g>
						<path class="st15" d="M170,50.2l-8.9-12.4c-0.2-0.3-0.1-0.7,0.1-0.9l0.8-0.6c0.3-0.2,0.7-0.1,0.9,0.1l8.9,12.4
							c0.2,0.3,0.1,0.7-0.1,0.9l-0.8,0.6C170.6,50.5,170.2,50.5,170,50.2z"/>
						<circle class="st15" cx="160.3" cy="34.6" r="1.1"/>
					</g>
				</g>
				<g>
					<g>
						<g>
							<path class="st6" d="M181.5,47.5c-0.6,0-1.2,0.2-1.7,0.7c-0.5,0.5-0.7,1.1-0.7,1.7v57.8h48.4V49.9c0-0.6-0.2-1.2-0.7-1.7
								c-0.5-0.5-1.1-0.7-1.7-0.7H181.5z"/>
							<path class="st7" d="M180.5,48.8c-0.6,0-1.2,0.2-1.7,0.7c-0.5,0.5-0.7,1.1-0.7,1.7V109h48.4V51.2c0-0.6-0.2-1.2-0.7-1.7
								c-0.5-0.5-1.1-0.7-1.7-0.7H180.5z"/>
							<path class="st16" d="M179.4,50.4c-0.6,0-1.2,0.2-1.7,0.7c-0.5,0.5-0.7,1.1-0.7,1.7v57.8h48.4V52.8c0-0.6-0.2-1.2-0.7-1.7
								c-0.5-0.5-1.1-0.7-1.7-0.7H179.4z"/>
							<g>
								<rect x="182.6" y="71.9" class="st9" width="37.3" height="2.4"/>
								<rect x="182.6" y="76.7" class="st9" width="37.3" height="2.4"/>
								<rect x="182.6" y="81.4" class="st9" width="37.2" height="2.4"/>
								<rect x="182.6" y="86.2" class="st9" width="21.4" height="2.4"/>
								<rect x="182.6" y="67.2" class="st9" width="37.3" height="2.4"/>
								<rect x="182.6" y="62.4" class="st9" width="37.3" height="2.4"/>
							</g>
						</g>
						<path class="st17" d="M218.4,104.1c-0.6,0.3-1.2,0.5-1.8,0.7c-0.4,0.1-0.9,0.3-1.3,0.4c0,0,0,0,0-0.1c0.1-0.2,0.3-0.4,0.5-0.5
							c0.2-0.2,0.3-0.4,0.5-0.6c0.1-0.1,0.1-0.2,0.2-0.4c0.1-0.1,0.1-0.3,0.1-0.5l0,0c0,0,0,0,0-0.1c-0.1-0.2-0.2-0.2-0.4-0.2
							c-0.1,0.1-0.2,0.1-0.3,0.1l-0.2,0.1l-0.4,0.2l-0.8,0.5l-1.7,0.9l-1.3,0.7c0.1-0.2,0.2-0.4,0.3-0.6c0.2-0.4,0.4-0.8,0.6-1.2
							c0.2-0.1,0.5-0.2,0.7-0.3c0.6-0.3,1.2-0.7,1.8-1.1c0.6-0.4,1.1-0.9,1.5-1.6c0.2-0.3,0.3-0.8,0.2-1.2c-0.1-0.4-0.3-0.8-0.5-1.1
							l0,0c-0.1-0.1-0.1-0.1-0.2-0.1c-0.2,0-0.3,0.1-0.4,0.1c-0.1,0.1-0.2,0.1-0.2,0.2c-0.1,0.1-0.2,0.2-0.4,0.4
							c-0.2,0.2-0.4,0.5-0.6,0.7c-0.4,0.5-0.8,1-1.1,1.6c-0.6,0.8-1.1,1.7-1.6,2.5c-0.2,0.1-0.3,0.1-0.5,0.2c-0.3,0.1-0.6,0.2-1,0.3
							c-0.2,0-0.3,0-0.5,0c-0.1,0-0.2,0-0.2-0.1c0,0,0-0.1,0-0.1c0.1-0.1,0.2-0.3,0.3-0.4c0.1-0.1,0.1-0.1,0.1-0.2
							c0-0.1,0.1-0.2,0.1-0.3c0-0.1-0.1-0.1-0.1-0.2c0,0-0.1-0.1-0.1-0.1c-0.1,0-0.2,0-0.3,0c-0.2,0-0.4,0.1-0.5,0.2
							c-0.6,0.4-1.1,0.9-1.6,1.3c-0.1,0.1-0.3,0.2-0.4,0.3c-0.1,0-0.1,0-0.1,0c0,0,0,0-0.1,0c-0.1-0.1-0.1-0.3-0.1-0.4
							c0.4-0.2,0.7-0.5,1.1-0.7c0.6-0.4,1.1-0.8,1.7-1.3c0.5-0.5,1.1-1,1.5-1.6c0.2-0.3,0.4-0.7,0.3-1.2c-0.1-0.2-0.2-0.4-0.4-0.6
							c-0.2-0.1-0.4-0.2-0.7-0.2c-0.5,0-0.8,0.3-1.1,0.5c-0.3,0.2-0.6,0.5-0.8,0.8c-0.5,0.6-0.9,1.2-1.2,1.8
							c-0.3,0.6-0.6,1.3-0.7,2.1c0,0.2,0,0.3,0,0.5c-0.7,0.5-1.4,1-2.1,1.5l0,0c0,0,0,0,0,0c0,0,0,0,0,0c0.6-0.3,1.2-0.7,1.8-1
							c0.1-0.1,0.2-0.1,0.2-0.2c0,0.1,0.1,0.3,0.1,0.4c0.1,0.1,0.2,0.2,0.4,0.2c0.2,0,0.3,0,0.4-0.1c0.2-0.1,0.3-0.2,0.5-0.3
							c0.5-0.5,1-1,1.5-1.4c0.1-0.1,0.3-0.2,0.4-0.2c0.1,0,0.1,0,0.2,0c0.1,0,0.1,0.1,0.1,0.1c0,0.1-0.1,0.3-0.2,0.4
							c-0.1,0.1-0.2,0.3-0.3,0.5c0,0.1-0.1,0.2,0,0.4c0.1,0.1,0.2,0.1,0.3,0.1c0.2,0,0.4,0,0.5,0c0.4,0,0.7-0.1,1-0.2
							c0.1,0,0.1-0.1,0.2-0.1c-0.1,0.1-0.2,0.3-0.2,0.4c-0.1,0.3-0.3,0.6-0.4,0.9c-0.1,0.2-0.1,0.3-0.1,0.6c0,0.1,0,0.2,0.2,0.4
							c0,0,0.1,0.1,0.3,0.1c0.1,0,0.1,0,0.1,0l0,0l0,0l0.1,0l0.2-0.1l1.6-0.9l1.6-1l0.8-0.5c-0.1,0.1-0.1,0.2-0.2,0.3
							c-0.2,0.2-0.3,0.4-0.5,0.6c-0.2,0.2-0.3,0.4-0.4,0.7c0,0,0,0.1,0,0.1c0,0.1,0.2,0.2,0.3,0.2l0,0c0.7-0.1,1.3-0.3,2-0.6
							c0.6-0.2,1.2-0.5,1.8-0.8c1.2-0.6,2.3-1.3,3.4-2c0,0,0,0,0,0c0,0,0,0,0,0C220.8,103,219.6,103.6,218.4,104.1z M213.6,101.6
							c0.3-0.5,0.7-1,1.1-1.5c0.2-0.2,0.4-0.5,0.6-0.7c0.1-0.1,0.2-0.2,0.3-0.3c0,0,0.1-0.1,0.1-0.1c0.2,0.2,0.3,0.4,0.3,0.6
							c0.1,0.3,0,0.6-0.1,0.9c-0.3,0.6-0.8,1.1-1.3,1.5c-0.6,0.5-1.3,0.9-2,1.3C212.9,102.7,213.2,102.2,213.6,101.6z M206.5,103.7
							c0.1-0.6,0.4-1.3,0.8-1.9c0.3-0.6,0.7-1.2,1.1-1.7c0.2-0.3,0.4-0.5,0.7-0.7c0.2-0.2,0.5-0.4,0.8-0.4c0.1,0,0.2,0,0.3,0.1
							c0.1,0.1,0.2,0.2,0.2,0.3c0.1,0.2,0,0.5-0.2,0.8c-0.3,0.6-0.8,1.1-1.3,1.5c-0.5,0.5-1,0.9-1.6,1.4
							C207,103.3,206.8,103.5,206.5,103.7C206.5,103.7,206.5,103.7,206.5,103.7z"/>
					</g>
				</g>
				<g>
					<circle id="XMLID_101_" class="st12" cx="223.3" cy="52.4" r="5.9"/>
					<g>
						<path class="st13" d="M219.5,55.3c-0.1-0.2-0.2-0.4-0.3-0.5c-0.1-0.2-0.2-0.3-0.2-0.5c-0.1-0.4,0-0.9,0.1-1.3
							c0.1-0.2,0.1-0.3,0.3-0.4c0.3-0.2,0.6-0.4,0.9-0.6c1-0.7,2.1-1.4,3.1-2.2c0.4-0.3,0.8-0.5,1.2-0.8c0.1-0.1,0.2-0.1,0.2-0.2
							c0,0,0,0,0,0c0.1-0.1,0.2,0,0.2,0.1c0,0,0,0,0.1,0.1c0,0,0,0.1,0,0.1c0,0,0,0,0.1,0c0,0,0,0.1,0,0.1c0,0,0,0,0.1,0
							c0.2-0.1,0.5-0.3,0.7-0.5c0.2-0.1,0.3,0,0.5,0.1c0.2,0.2,0.3,0.4,0.4,0.6c0.6,0.9,1.2,1.8,1.8,2.7c0.2,0.3,0.4,0.6,0.6,0.9
							c0.3-2.7-1.3-5.3-4-6.2c-3.1-1-6.4,0.6-7.5,3.7c-1,3,0.5,6.2,3.4,7.4c-0.3-0.5-0.6-1-0.9-1.5C220,56,219.8,55.6,219.5,55.3z"
							/>
						<path class="st14" d="M228.9,54.2c0.1-0.4,0.2-0.9,0.3-1.3c-0.2-0.3-0.4-0.6-0.6-0.9c-0.6-0.9-1.2-1.8-1.8-2.7
							c-0.1-0.2-0.3-0.4-0.4-0.6c-0.1-0.2-0.3-0.2-0.5-0.1c-0.2,0.2-0.4,0.4-0.7,0.5c0,0,0,0.1-0.1,0c0,0,0-0.1,0-0.1
							c0,0-0.1,0-0.1,0c0,0,0-0.1,0-0.1c0,0,0,0-0.1-0.1c-0.1-0.1-0.1-0.2-0.2-0.1c0,0,0,0,0,0c-0.1,0-0.2,0.1-0.2,0.2
							c-0.4,0.3-0.8,0.5-1.2,0.8c-1,0.7-2.1,1.4-3.1,2.2c-0.3,0.2-0.6,0.4-0.9,0.6c-0.1,0.1-0.2,0.2-0.3,0.4
							c-0.1,0.4-0.2,0.9-0.1,1.3c0,0.2,0.1,0.3,0.2,0.5c0.1,0.2,0.2,0.4,0.3,0.5c0.2,0.4,0.5,0.7,0.7,1.1c0.3,0.5,0.6,1,0.9,1.5
							c0.1,0,0.2,0.1,0.3,0.1C224.5,59,227.9,57.3,228.9,54.2z"/>
					</g>
					<path class="st0" d="M227.4,50.1c-0.1-0.2-0.2-0.4-0.4-0.6l-0.1-0.2c-0.1-0.2-0.2-0.3-0.3-0.4c-0.1-0.1-0.2-0.3-0.3-0.3
						c-0.1,0-0.1,0-0.2,0l-4.8,3.3c-0.3,0.2-0.4,1-0.2,1.3c0.1,0.1,0.3,0.2,0.6,0.3c0.3,0,0.5,0,0.7-0.1l3.9-2.7
						c0.1-0.1,0.1-0.1,0.1-0.2l0,0c0,0-0.1-0.1-0.1-0.1c0,0-0.1,0-0.1,0l-3.9,2.7c-0.1,0-0.2,0-0.4,0c-0.1,0-0.3-0.1-0.4-0.2
						c-0.1-0.1,0-0.7,0.1-0.8l4.7-3.3l0,0c0.1,0.1,0.3,0.4,0.5,0.7l0.1,0.1c0.2,0.2,0.3,0.4,0.4,0.6l0,0l0,0l-6.2,4.3
						c-0.1,0-0.2,0-0.3,0c-0.4-0.1-1-0.3-1.1-0.4c-0.1-0.2,0-1.3,0.1-1.5l0,0l5.5-3.8c0.1-0.1,0.1-0.2,0.1-0.3c0,0-0.1-0.1-0.1-0.1
						c-0.1,0-0.1,0-0.2,0l-5.5,3.8c-0.2,0.1-0.3,0.5-0.3,1c0,0.2,0,0.8,0.1,1c0.1,0.2,0.7,0.5,1.2,0.6c0.3,0.1,0.6,0,0.7,0l4.5-3.1
						l0,0l1.9-1.3C227.6,50.5,227.5,50.4,227.4,50.1z"/>
				</g>
				<g>
					<g>
						<path class="st18" d="M289.7,128c0-14.2-10.6-25.9-24.3-27.8c-3.9-13.5-16.4-23.4-31.2-23.4c-15.9,0-29.2,11.4-32,26.6
							c-13.7,1.9-24.2,13.6-24.2,27.8c0,11.8,7.3,19.3,17.6,22.2c2,0.9,4,1.4,6.1,1.4h65.1c8.7,0,14.5-5.5,17.7-10.8
							C287.7,139.6,289.7,134.1,289.7,128z"/>
					</g>
					<g>
						<path class="st19" d="M191,107.6c-22.1,16.2-15.7,44.2,10.7,47.2c11.1,0.5,24.3,0.8,42.8,0C237.3,151.9,166.5,161.2,191,107.6
							z"/>
					</g>
					<path class="st20" d="M242.7,126.2c-16.5,0-29.9-13.4-29.9-29.9c0-4.7,1.1-9.2,3-13.1c5.1-4,11.4-6.3,18.4-6.3
						c16.5,0,28.1,11.9,31.2,23.4c0,0.1,3-0.2,9.1,2.9c6.6,2.9,15.2,12.6,15.2,22c0,2.8-6.3,10.1-16.9,9c-7.3,0-13.3-5.6-13.9-12.7
						C254.2,124.4,248.7,126.2,242.7,126.2z"/>
				</g>
			</g>
		</g>
	</g>
</g>
<polygon class="st21" points="266.4,137.1 248.5,119.4 230.8,137.1 243,135.8 243,151.8 254.3,151.8 254.3,137.1 "/>
<polygon class="st22" points="248.6,161.5 266.6,179.2 284.3,161.5 272.1,162.8 272.1,146.7 260.8,146.7 260.8,161.5 "/>
</svg>
