<?xml version="1.0" encoding="utf-8"?>
<!-- Generator: Adobe Illustrator 24.1.3, SVG Export Plug-In . SVG Version: 6.00 Build 0)  -->
<svg version="1.1" id="Layer_1" xmlns="http://www.w3.org/2000/svg" xmlns:xlink="http://www.w3.org/1999/xlink" x="0px" y="0px"
	 viewBox="0 0 310 210" style="enable-background:new 0 0 310 210;" xml:space="preserve">
<style type="text/css">
	.st0{fill:#FFFFFF;}
	.st1{fill:#F5F8FA;stroke:#CCE4F2;stroke-width:0.3183;stroke-miterlimit:10;}
	.st2{fill:#E9F5FF;}
	.st3{fill:#F8F9FA;}
	.st4{fill:#6588AB;}
	.st5{fill:#C1CEDD;}
	.st6{fill:#77ADDB;}
	.st7{fill:#A4C9E7;}
	.st8{fill:#1A72AD;}
	.st9{fill:#D9EDF5;}
	.st10{fill:#8CC1A0;}
	.st11{fill:#F08E8C;}
	.st12{fill:#E11E19;}
	.st13{fill:#BFD4E2;}
	.st14{fill:#FFFFFF;stroke:#CCE4F2;stroke-width:0.3183;stroke-miterlimit:10;}
	.st15{opacity:0.71;fill:url(#SVGID_1_);}
	.st16{fill:#F5F8FA;}
	.st17{fill:none;stroke:#FF00FF;stroke-miterlimit:10;}
	.st18{fill:#FFFFFF;stroke:#FF00FF;stroke-width:1.503;stroke-miterlimit:10;}
	.st19{opacity:0.58;fill:none;stroke:#BFE1EF;stroke-width:0.25;stroke-miterlimit:10;}
	.st20{opacity:0.58;fill:#E5EEF3;}
</style>
<path class="st0" d="M299.7,210.6H9.3c-5.4,0-9.8-4.4-9.8-9.8V7.2c0-5.4,4.4-9.8,9.8-9.8h290.3c5.4,0,9.8,4.4,9.8,9.8v193.5
	C309.5,206.2,305.1,210.6,299.7,210.6z"/>
<g>
	<g>
		<path class="st1" d="M277.7,166.9h-75.6V29.6h91.4V151C293.5,159.8,286.4,166.9,277.7,166.9z"/>
		<g>
			<rect x="202.2" y="29.9" class="st2" width="91.2" height="15.2"/>
			<path class="st3" d="M279.7,77.3c-0.1,0-0.2,0.1-0.2,0.3c0,0.2,0.1,0.3,0.2,0.3c0.1,0,0.2-0.1,0.2-0.3
				C279.9,77.4,279.9,77.3,279.7,77.3z"/>
			<path class="st3" d="M285.3,90.1c0.1,0,0.2-0.1,0.2-0.3c0-0.2-0.1-0.3-0.2-0.3c-0.1,0-0.2,0.1-0.2,0.3
				C285.1,90,285.1,90.1,285.3,90.1z"/>
			<path class="st3" d="M286.4,90.9c0,0.2,0.1,0.3,0.2,0.3c0.1,0,0.2-0.1,0.2-0.3c0-0.1,0-0.2-0.1-0.2c0-0.1-0.1-0.1-0.1-0.1
				C286.5,90.6,286.4,90.7,286.4,90.9z"/>
			<path class="st3" d="M284.9,103.6c0.1,0,0.2-0.1,0.2-0.3c0-0.2-0.1-0.3-0.2-0.3c-0.1,0-0.2,0.1-0.2,0.3
				C284.7,103.5,284.7,103.6,284.9,103.6z"/>
			<path class="st3" d="M281.1,78.9c0.1,0,0.2-0.1,0.2-0.3c0-0.1,0-0.2-0.1-0.2c0-0.1-0.1-0.1-0.1-0.1c-0.1,0-0.2,0.1-0.2,0.3
				C280.9,78.8,280.9,78.9,281.1,78.9z"/>
			<path class="st3" d="M286.2,104.1c-0.1,0-0.2,0.1-0.2,0.3c0,0.2,0.1,0.3,0.2,0.3c0.1,0,0.2-0.1,0.2-0.3c0-0.1,0-0.2-0.1-0.2
				C286.3,104.1,286.3,104.1,286.2,104.1z"/>
			<path class="st4" d="M210,36.5l25.2,0.1c0.1,0,0.2-0.2,0.2-0.5l0-1.4c0-0.3-0.1-0.5-0.2-0.5L210,34c-0.1,0-0.2,0.2-0.2,0.5l0,1.4
				C209.8,36.2,209.9,36.5,210,36.5z"/>
			<path class="st4" d="M235.2,37.7L210,37.6c-0.1,0-0.2,0.1-0.2,0.2l0,0.7c0,0.1,0.1,0.2,0.2,0.2l25.2,0.1c0.1,0,0.2-0.1,0.2-0.2
				l0-0.7C235.4,37.8,235.3,37.7,235.2,37.7z"/>
			<path class="st4" d="M235.2,39.8L210,39.7c-0.1,0-0.2,0.1-0.2,0.2l0,0.7c0,0.1,0.1,0.2,0.2,0.2l25.2,0.1c0.1,0,0.2-0.1,0.2-0.2
				l0-0.7C235.4,39.9,235.3,39.8,235.2,39.8z"/>
			<path class="st5" d="M210.5,120.7l0,0.8c0,0.4,0.1,0.7,0.2,0.7l22.3,0.2c0.1,0,0.2-0.3,0.2-0.7l0-0.8c0-0.4-0.1-0.7-0.2-0.7
				l-22.3-0.2C210.6,120.1,210.5,120.4,210.5,120.7z"/>
			<path class="st5" d="M210.5,127c0,0.4,0.1,0.7,0.2,0.7l22.3,0.2c0.1,0,0.2-0.3,0.2-0.7l0-0.8c0-0.4-0.1-0.7-0.2-0.7l-22.3-0.2
				c-0.1,0-0.2,0.3-0.2,0.7L210.5,127z"/>
			<path class="st5" d="M210.5,132.4c0,0.4,0.1,0.7,0.2,0.7l22.3,0.2c0.1,0,0.2-0.3,0.2-0.7l0-0.8c0-0.4-0.1-0.7-0.2-0.7l-22.3-0.2
				c-0.1,0-0.2,0.3-0.2,0.7L210.5,132.4z"/>
			<path class="st5" d="M210.5,137.8c0,0.4,0.1,0.7,0.2,0.7l22.3,0.2c0.1,0,0.2-0.3,0.2-0.7l0-0.8c0-0.4-0.1-0.7-0.2-0.7l-22.3-0.2
				c-0.1,0-0.2,0.3-0.2,0.7L210.5,137.8z"/>
			<path class="st5" d="M233.2,143.1l0-0.8c0-0.4-0.1-0.7-0.2-0.7l-22.3-0.2c-0.1,0-0.2,0.3-0.2,0.7l0,0.8c0,0.4,0.1,0.7,0.2,0.7
				l22.3,0.2C233.1,143.8,233.2,143.5,233.2,143.1z"/>
			<path class="st5" d="M237,120.9l0,0.8c0,0.4,0.1,0.7,0.2,0.7l22.3,0.2c0.1,0,0.2-0.3,0.2-0.7l0-0.8c0-0.4-0.1-0.7-0.2-0.7
				l-22.3-0.2C237.1,120.3,237,120.6,237,120.9z"/>
			<path class="st5" d="M237,127.2c0,0.4,0.1,0.7,0.2,0.7l22.3,0.2c0.1,0,0.2-0.3,0.2-0.7l0-0.8c0-0.4-0.1-0.7-0.2-0.7l-22.3-0.2
				c-0.1,0-0.2,0.3-0.2,0.7L237,127.2z"/>
			<path class="st5" d="M237,132.6c0,0.4,0.1,0.7,0.2,0.7l22.3,0.2c0.1,0,0.2-0.3,0.2-0.7l0-0.8c0-0.4-0.1-0.7-0.2-0.7l-22.3-0.2
				c-0.1,0-0.2,0.3-0.2,0.7L237,132.6z"/>
			<path class="st5" d="M237,138c0,0.4,0.1,0.7,0.2,0.7l22.3,0.2c0.1,0,0.2-0.3,0.2-0.7l0-0.8c0-0.4-0.1-0.7-0.2-0.7l-22.3-0.2
				c-0.1,0-0.2,0.3-0.2,0.7L237,138z"/>
			<path class="st5" d="M259.8,143.3l0-0.8c0-0.4-0.1-0.7-0.2-0.7l-22.3-0.2c-0.1,0-0.2,0.3-0.2,0.7l0,0.8c0,0.4,0.1,0.7,0.2,0.7
				l22.3,0.2C259.7,144,259.8,143.7,259.8,143.3z"/>
			<path class="st5" d="M264.4,121.1l0,0.8c0,0.4,0.1,0.7,0.2,0.7l22.3,0.2c0.1,0,0.2-0.3,0.2-0.7l0-0.8c0-0.4-0.1-0.7-0.2-0.7
				l-22.3-0.2C264.5,120.4,264.4,120.7,264.4,121.1z"/>
			<path class="st5" d="M264.4,127.4c0,0.4,0.1,0.7,0.2,0.7l22.3,0.2c0.1,0,0.2-0.3,0.2-0.7l0-0.8c0-0.4-0.1-0.7-0.2-0.7l-22.3-0.2
				c-0.1,0-0.2,0.3-0.2,0.7L264.4,127.4z"/>
			<path class="st5" d="M264.4,132.8c0,0.4,0.1,0.7,0.2,0.7l22.3,0.2c0.1,0,0.2-0.3,0.2-0.7l0-0.8c0-0.4-0.1-0.7-0.2-0.7l-22.3-0.2
				c-0.1,0-0.2,0.3-0.2,0.7L264.4,132.8z"/>
			<path class="st5" d="M264.4,138.2c0,0.4,0.1,0.7,0.2,0.7l22.3,0.2c0.1,0,0.2-0.3,0.2-0.7l0-0.8c0-0.4-0.1-0.7-0.2-0.7l-22.3-0.2
				c-0.1,0-0.2,0.3-0.2,0.7L264.4,138.2z"/>
			<path class="st5" d="M287.2,143.5l0-0.8c0-0.4-0.1-0.7-0.2-0.7l-22.3-0.2c-0.1,0-0.2,0.3-0.2,0.7l0,0.8c0,0.4,0.1,0.7,0.2,0.7
				l22.3,0.2C287.1,144.2,287.2,143.9,287.2,143.5z"/>
			<path class="st6" d="M280.9,92.5L267.8,95l9.4-9.9c1.5,1.6,2.7,3.5,3.3,5.6h0.1c-1.1-3.8-3.8-6.9-7.4-8.5v0.1
				c1.4,0.6,2.6,1.5,3.7,2.5l-9.2,10l1.6-13.6c1.3,0.2,2.6,0.5,3.8,1.1v-0.1c-1.7-0.7-3.5-1.1-5.4-1.1c-7.5,0-13.5,6-13.5,13.4
				c0,7.5,6,13.5,13.4,13.5c3.6,0,6.8-1.4,9.2-3.6h-3.4c0,0,0,0,0,0s0,0,0,0h3.5c2.6-2.4,4.2-5.9,4.2-9.8c0-1.3-0.2-2.6-0.5-3.7
				h-0.1C280.7,91.4,280.8,91.9,280.9,92.5z"/>
			<path class="st7" d="M267.8,95l13.1-2.5c-0.1-0.6-0.2-1.2-0.4-1.7h-2.4c0,0,0,0,0,0s0,0,0,0h2.4c-0.6-2.2-1.8-4.1-3.3-5.6
				L267.8,95z"/>
			<path class="st8" d="M273.1,83.8C273.1,83.8,273.1,83.8,273.1,83.8l0-1.6c-1.2-0.5-2.5-0.9-3.8-1.1l-1.6,13.6l9.2-10
				c-1.1-1-2.3-1.9-3.7-2.5L273.1,83.8C273.2,83.8,273.2,83.8,273.1,83.8z"/>
			
				<rect x="224.2" y="96.9" transform="matrix(3.442550e-03 -1 1 3.442550e-03 114.5303 333.7397)" class="st9" width="1" height="25"/>
			<path class="st8" d="M216.6,85.6c0-1-0.8-1.8-1.8-1.8l-1.2,0l-0.1,24l3,0L216.6,85.6z"/>
			<path class="st8" d="M221.5,79.1c0-1-0.8-1.8-1.8-1.8l-1.2,0l-0.1,30.5l3,0L221.5,79.1z"/>
			<path class="st8" d="M224.4,100l-1.2,0l0,7.9l3,0l0-6.1C226.2,100.8,225.4,100,224.4,100z"/>
			<path class="st8" d="M229,81.4l-1.2,0l-0.1,26.4l3,0l0.1-24.6C230.8,82.2,230,81.4,229,81.4z"/>
			<path class="st8" d="M233.8,87.5l-1.2,0l-0.1,20.4l3,0l0.1-18.6C235.6,88.3,234.8,87.5,233.8,87.5z"/>
			<path class="st10" d="M209.6,150.6c0.1-0.2,0.2,0.3,0.2,0C209.8,150.7,209.6,150.4,209.6,150.6z"/>
			<path class="st8" d="M273.4,158c-0.6,0.3-1.3,0.6-2,0.8c-0.5,0.2-0.9,0.3-1.4,0.4c0,0,0,0,0-0.1c0.2-0.2,0.3-0.4,0.5-0.6
				c0.2-0.2,0.4-0.4,0.5-0.6c0.1-0.1,0.2-0.2,0.2-0.4c0.1-0.1,0.1-0.3,0.1-0.6l0,0c0,0,0,0,0-0.1c-0.1-0.2-0.3-0.3-0.4-0.2
				c-0.2,0.1-0.2,0.1-0.3,0.1l-0.2,0.1l-0.5,0.2l-0.9,0.5l-1.8,1l-1.4,0.8c0.1-0.2,0.2-0.4,0.3-0.6c0.2-0.4,0.4-0.8,0.7-1.3
				c0.2-0.1,0.5-0.2,0.7-0.4c0.7-0.3,1.3-0.7,2-1.2c0.6-0.5,1.2-1,1.6-1.7c0.2-0.4,0.3-0.8,0.2-1.3c-0.1-0.4-0.3-0.8-0.6-1.1l0,0
				c-0.1-0.1-0.1-0.1-0.2-0.1c-0.2,0-0.3,0.1-0.4,0.1c-0.1,0.1-0.2,0.1-0.2,0.2c-0.1,0.1-0.3,0.2-0.4,0.4c-0.2,0.3-0.5,0.5-0.7,0.8
				c-0.4,0.5-0.8,1.1-1.2,1.7c-0.6,0.9-1.2,1.8-1.7,2.7c-0.2,0.1-0.3,0.1-0.5,0.2c-0.4,0.1-0.7,0.2-1.1,0.3c-0.2,0-0.4,0-0.5,0
				c-0.1,0-0.2,0-0.2-0.1c0,0,0-0.1,0-0.2c0.1-0.1,0.2-0.3,0.3-0.5c0.1-0.1,0.1-0.2,0.2-0.3c0-0.1,0.1-0.2,0.1-0.4
				c0-0.1-0.1-0.1-0.1-0.2c-0.1,0-0.1-0.1-0.2-0.1c-0.1,0-0.2-0.1-0.3,0c-0.2,0-0.4,0.1-0.6,0.2c-0.7,0.4-1.2,1-1.8,1.4
				c-0.1,0.1-0.3,0.2-0.4,0.3c-0.1,0-0.1,0-0.2,0c0,0,0,0-0.1-0.1c-0.1-0.1-0.1-0.3-0.1-0.5c0.4-0.3,0.8-0.5,1.2-0.8
				c0.6-0.4,1.2-0.9,1.8-1.4c0.6-0.5,1.1-1,1.6-1.7c0.2-0.3,0.4-0.8,0.3-1.3c-0.1-0.3-0.2-0.5-0.4-0.6c-0.2-0.2-0.5-0.2-0.7-0.2
				c-0.5,0-0.9,0.3-1.2,0.5c-0.3,0.3-0.6,0.5-0.9,0.8c-0.5,0.6-0.9,1.3-1.3,2c-0.3,0.7-0.6,1.4-0.8,2.2c0,0.2,0,0.3,0,0.5
				c-0.7,0.5-1.5,1.1-2.2,1.6l0,0c0,0,0,0,0,0c0,0,0,0,0,0c0.7-0.3,1.3-0.7,2-1.1c0.1-0.1,0.2-0.1,0.3-0.2c0,0.1,0.1,0.3,0.2,0.4
				c0.1,0.1,0.2,0.2,0.4,0.2c0.2,0,0.3,0,0.4-0.1c0.2-0.1,0.4-0.2,0.5-0.4c0.6-0.5,1.1-1.1,1.7-1.5c0.1-0.1,0.3-0.2,0.5-0.2
				c0.1,0,0.1,0,0.2,0c0.1,0,0.1,0.1,0.1,0.1c0,0.1-0.1,0.3-0.2,0.4c-0.1,0.2-0.2,0.3-0.3,0.5c0,0.1-0.1,0.2,0,0.4
				c0.1,0.1,0.2,0.1,0.3,0.2c0.2,0,0.4,0,0.6,0c0.4,0,0.8-0.1,1.1-0.3c0.1,0,0.1-0.1,0.2-0.1c-0.1,0.1-0.2,0.3-0.2,0.4
				c-0.2,0.3-0.3,0.6-0.4,1c-0.1,0.2-0.1,0.3-0.1,0.7c0,0.1,0,0.2,0.2,0.4c0,0,0.1,0.1,0.3,0.1c0.1,0,0.1,0,0.2,0l0,0l0,0l0.1,0
				l0.2-0.1l1.8-1l1.8-1l0.9-0.5c-0.1,0.1-0.2,0.2-0.2,0.3c-0.2,0.2-0.3,0.4-0.5,0.6c-0.2,0.2-0.3,0.4-0.4,0.8c0,0,0,0.1,0,0.1
				c0,0.2,0.2,0.3,0.3,0.2l0,0c0.7-0.1,1.4-0.3,2.1-0.6c0.7-0.3,1.3-0.6,2-0.9c1.3-0.7,2.5-1.4,3.7-2.2c0,0,0,0,0,0c0,0,0,0,0,0
				C276,156.7,274.7,157.4,273.4,158z M268.3,155.3c0.4-0.6,0.8-1.1,1.2-1.7c0.2-0.3,0.4-0.5,0.6-0.8c0.1-0.1,0.2-0.2,0.3-0.3
				c0.1,0,0.1-0.1,0.2-0.1c0.2,0.2,0.3,0.4,0.3,0.7c0.1,0.3,0,0.6-0.1,0.9c-0.3,0.6-0.8,1.2-1.4,1.6c-0.7,0.5-1.4,1-2.2,1.4
				C267.5,156.5,267.9,155.9,268.3,155.3z M260.7,157.6c0.2-0.7,0.5-1.4,0.8-2c0.4-0.6,0.8-1.3,1.2-1.8c0.2-0.3,0.5-0.5,0.7-0.8
				c0.3-0.2,0.6-0.4,0.8-0.4c0.1,0,0.2,0,0.3,0.1c0.1,0.1,0.2,0.2,0.2,0.3c0.1,0.2,0,0.5-0.2,0.8c-0.3,0.6-0.9,1.1-1.4,1.7
				c-0.5,0.5-1.1,1-1.7,1.5C261.3,157.1,261,157.3,260.7,157.6C260.7,157.6,260.7,157.6,260.7,157.6z"/>
			<g>
				<path class="st4" d="M270.1,40.7h12.2c0.2,0,0.3-0.1,0.3-0.3v0c0-0.2-0.1-0.3-0.3-0.3h-12.2c-0.2,0-0.3,0.1-0.3,0.3v0
					C269.8,40.5,269.9,40.7,270.1,40.7z"/>
				<path class="st4" d="M279.3,41.7h-6.2c0,0-0.1,0-0.1,0.1v0c0,0,0,0.1,0.1,0.1h6.2C279.4,41.9,279.4,41.8,279.3,41.7L279.3,41.7
					C279.4,41.7,279.4,41.7,279.3,41.7z"/>
				<path class="st11" d="M273.2,35.5c0.1-1.1,0.8-2.1,1.9-2.5l-1.1,0.2c-0.6,0.1-1,0.6-0.9,1.2L273.2,35.5z"/>
				<path class="st11" d="M273.4,36.8l0.2,1.1c0.1,0.6,0.6,1,1.2,0.9l1.1-0.2C274.8,38.6,273.8,37.9,273.4,36.8z"/>
				<path class="st11" d="M278.2,38L278.2,38c-0.3,0.2-0.6,0.4-1,0.5l1.1-0.2c0.6-0.1,1-0.6,0.9-1.2l-0.2-1.1
					C279.1,36.8,278.7,37.5,278.2,38L278.2,38z"/>
				<path class="st11" d="M278.9,34.7l-0.2-1.1c-0.1-0.6-0.6-1-1.2-0.9l-1.1,0.2C277.6,33,278.5,33.7,278.9,34.7z"/>
				<path class="st12" d="M273.2,35.5c0,0.2,0,0.4,0,0.7c0,0.2,0.1,0.4,0.2,0.7c0.4,1,1.4,1.8,2.5,1.9c0.2,0,0.4,0,0.7,0
					c0.2,0,0.4-0.1,0.7-0.2c0.3-0.1,0.6-0.3,0.9-0.5l-1.6-0.6l-1.5,1.1l0.1-1.8l-1.5-1.1l1.8-0.5l0.6-1.7l1,1.5l1.8,0l-1.1,1.4
					l0.5,1.7c0.5-0.5,0.9-1.2,0.9-1.9c0-0.2,0-0.4,0-0.7c0-0.2-0.1-0.4-0.2-0.7c-0.4-1-1.4-1.8-2.5-1.9c-0.2,0-0.4,0-0.7,0
					c-0.2,0-0.4,0.1-0.7,0.2C274.1,33.4,273.3,34.4,273.2,35.5z"/>
				<polygon class="st0" points="278.2,38 277.6,36.3 278.8,34.9 276.9,34.8 275.9,33.3 275.3,35.1 273.6,35.6 275.1,36.6 275,38.5 
					276.5,37.4 278.1,38 278.2,38 				"/>
			</g>
			<path class="st13" d="M273.1,83.8C273.1,83.8,273.1,83.8,273.1,83.8C273.2,83.8,273.2,83.8,273.1,83.8l0.1-1.5v-0.1v-3.7l5.3,0
				c0,0,0,0,0,0c0,0,0,0,0,0l-5.3,0l-0.1,0v3.7v0.1V83.8z"/>
			<path class="st13" d="M273.3,104.3C273.3,104.4,273.4,104.4,273.3,104.3l3.5,0h6.8c0,0,0,0,0,0s0,0,0,0h-6.7L273.3,104.3
				C273.4,104.3,273.3,104.3,273.3,104.3z"/>
			<path class="st13" d="M280.5,90.7h-2.4c0,0,0,0,0,0s0,0,0,0L280.5,90.7l0.1,0.1h3.6c0,0,0,0,0,0s0,0,0,0h-3.6H280.5z"/>
			<polygon class="st13" points="279.5,79.2 279.9,79.2 281.3,77 280.9,77 			"/>
			<path class="st13" d="M280.5,78.7c0,0.2,0,0.3,0.1,0.4c0.1,0.1,0.2,0.1,0.4,0.1c0.2,0,0.3-0.1,0.4-0.2c0.1-0.1,0.1-0.2,0.1-0.4
				c0-0.2,0-0.3-0.1-0.4c-0.1-0.1-0.2-0.1-0.4-0.1c-0.2,0-0.3,0.1-0.4,0.2C280.6,78.3,280.5,78.5,280.5,78.7z M281.1,78.3
				c0.1,0,0.1,0,0.1,0.1c0,0.1,0.1,0.1,0.1,0.2c0,0.2-0.1,0.3-0.2,0.3c-0.1,0-0.2-0.1-0.2-0.3C280.9,78.4,280.9,78.3,281.1,78.3z"/>
			<path class="st13" d="M279.8,77c-0.2,0-0.3,0.1-0.4,0.2c-0.1,0.1-0.1,0.2-0.1,0.4c0,0.2,0,0.3,0.1,0.4s0.2,0.1,0.4,0.1
				c0.2,0,0.3-0.1,0.4-0.2c0.1-0.1,0.1-0.2,0.1-0.4c0-0.2,0-0.3-0.1-0.4C280,77,279.9,77,279.8,77z M279.7,77.8
				c-0.1,0-0.2-0.1-0.2-0.3c0-0.2,0.1-0.3,0.2-0.3c0.1,0,0.2,0.1,0.2,0.3C279.9,77.7,279.9,77.8,279.7,77.8z"/>
			<path class="st13" d="M286.2,90.5c-0.1,0.1-0.1,0.2-0.1,0.4c0,0.2,0,0.3,0.1,0.4c0.1,0.1,0.2,0.1,0.4,0.1c0.2,0,0.3-0.1,0.4-0.2
				c0.1-0.1,0.1-0.2,0.1-0.4c0-0.2,0-0.3-0.1-0.4c-0.1-0.1-0.2-0.1-0.4-0.1C286.5,90.3,286.3,90.4,286.2,90.5z M286.8,90.9
				c0,0.2-0.1,0.3-0.2,0.3c-0.1,0-0.2-0.1-0.2-0.3c0-0.2,0.1-0.3,0.2-0.3c0.1,0,0.1,0,0.1,0.1C286.8,90.7,286.8,90.8,286.8,90.9z"/>
			<polygon class="st13" points="285.4,91.4 286.8,89.3 286.5,89.3 285.1,91.4 			"/>
			<path class="st13" d="M285.3,90.4c0.2,0,0.3-0.1,0.4-0.2s0.1-0.2,0.1-0.4c0-0.2,0-0.3-0.1-0.4c-0.1-0.1-0.2-0.1-0.4-0.1
				c-0.2,0-0.3,0.1-0.4,0.2c-0.1,0.1-0.1,0.2-0.1,0.4c0,0.2,0,0.3,0.1,0.4C285,90.3,285.1,90.4,285.3,90.4z M285.3,89.5
				c0.1,0,0.2,0.1,0.2,0.3c0,0.2-0.1,0.3-0.2,0.3c-0.1,0-0.2-0.1-0.2-0.3C285.1,89.6,285.1,89.5,285.3,89.5z"/>
			<path class="st13" d="M286.7,104.4c0-0.2,0-0.3-0.1-0.4c-0.1-0.1-0.2-0.1-0.4-0.1c-0.2,0-0.3,0.1-0.4,0.2
				c-0.1,0.1-0.1,0.2-0.1,0.4c0,0.2,0,0.3,0.1,0.4c0.1,0.1,0.2,0.1,0.4,0.1c0.2,0,0.3-0.1,0.4-0.2
				C286.7,104.7,286.7,104.6,286.7,104.4z M286.2,104.7c-0.1,0-0.2-0.1-0.2-0.3c0-0.2,0.1-0.3,0.2-0.3c0.1,0,0.1,0,0.1,0.1
				c0,0.1,0.1,0.1,0.1,0.2C286.4,104.6,286.4,104.7,286.2,104.7z"/>
			<polygon class="st13" points="286.1,102.8 284.7,104.9 285,104.9 286.4,102.8 			"/>
			<path class="st13" d="M284.9,103.9c0.2,0,0.3-0.1,0.4-0.2c0.1-0.1,0.1-0.2,0.1-0.4c0-0.2,0-0.3-0.1-0.4c-0.1-0.1-0.2-0.1-0.4-0.1
				c-0.2,0-0.3,0.1-0.4,0.2c-0.1,0.1-0.1,0.2-0.1,0.4c0,0.2,0,0.3,0.1,0.4C284.6,103.8,284.7,103.9,284.9,103.9z M284.9,103
				c0.1,0,0.2,0.1,0.2,0.3c0,0.2-0.1,0.3-0.2,0.3c-0.1,0-0.2-0.1-0.2-0.3C284.7,103.1,284.7,103,284.9,103z"/>
			
				<rect x="246.8" y="82.9" transform="matrix(1.228409e-02 -0.9999 0.9999 1.228409e-02 161.3752 329.2896)" class="st13" width="1.1" height="0.2"/>
			<polygon class="st13" points="247.2,91.2 247.4,91.2 247.4,89.3 247.2,89.3 			"/>
			<polygon class="st13" points="247.1,95 247.3,95 247.3,93.1 247.2,93.1 			"/>
			<polygon class="st13" points="247.1,98.9 247.3,98.9 247.3,97 247.1,97 			"/>
			<polygon class="st13" points="247.2,87.3 247.4,87.3 247.4,85.4 247.3,85.4 			"/>
			<polygon class="st13" points="247,102.7 247.2,102.7 247.2,100.8 247.1,100.8 			"/>
			<polygon class="st13" points="247,105.7 247.2,105.7 247.2,104.7 247,104.7 			"/>
			<path class="st4" d="M278.2,58.9h-63.8c-0.5,0-0.9-0.4-0.9-0.9l0,0c0-0.5,0.4-0.9,0.9-0.9h63.8c0.5,0,0.9,0.4,0.9,0.9l0,0
				C279.1,58.5,278.7,58.9,278.2,58.9z"/>
			<path class="st4" d="M278.2,63.4h-63.8c-0.5,0-0.9-0.4-0.9-0.9l0,0c0-0.5,0.4-0.9,0.9-0.9h63.8c0.5,0,0.9,0.4,0.9,0.9l0,0
				C279.1,63,278.7,63.4,278.2,63.4z"/>
		</g>
	</g>
</g>
<g>
	<g>
		<g>
			<g>
				<path class="st14" d="M97.1,163.2H21.5V25.9h91.4v121.4C112.9,156.1,105.8,163.2,97.1,163.2z"/>
				<g>
					<rect x="21.6" y="26.2" class="st2" width="91.2" height="15.2"/>
					<path class="st3" d="M99.1,73.6c-0.1,0-0.2,0.1-0.2,0.3c0,0.2,0.1,0.3,0.2,0.3c0.1,0,0.2-0.1,0.2-0.3
						C99.3,73.7,99.3,73.6,99.1,73.6z"/>
					<path class="st3" d="M104.7,86.4c0.1,0,0.2-0.1,0.2-0.3c0-0.2-0.1-0.3-0.2-0.3c-0.1,0-0.2,0.1-0.2,0.3
						C104.5,86.3,104.5,86.4,104.7,86.4z"/>
					<path class="st3" d="M105.8,87.2c0,0.2,0.1,0.3,0.2,0.3c0.1,0,0.2-0.1,0.2-0.3c0-0.1,0-0.2-0.1-0.2c0-0.1-0.1-0.1-0.1-0.1
						C105.9,86.9,105.8,87,105.8,87.2z"/>
					<path class="st3" d="M104.3,99.9c0.1,0,0.2-0.1,0.2-0.3c0-0.2-0.1-0.3-0.2-0.3c-0.1,0-0.2,0.1-0.2,0.3
						C104,99.9,104.1,99.9,104.3,99.9z"/>
					<path class="st3" d="M100.4,75.3c0.1,0,0.2-0.1,0.2-0.3c0-0.1,0-0.2-0.1-0.2c0-0.1-0.1-0.1-0.1-0.1c-0.1,0-0.2,0.1-0.2,0.3
						C100.2,75.2,100.3,75.3,100.4,75.3z"/>
					<path class="st3" d="M105.6,100.4c-0.1,0-0.2,0.1-0.2,0.3c0,0.2,0.1,0.3,0.2,0.3c0.1,0,0.2-0.1,0.2-0.3c0-0.1,0-0.2-0.1-0.2
						C105.7,100.5,105.7,100.4,105.6,100.4z"/>
					<path class="st4" d="M29.4,32.8l25.2,0.1c0.1,0,0.2-0.2,0.2-0.5l0-1.4c0-0.3-0.1-0.5-0.2-0.5l-25.2-0.1c-0.1,0-0.2,0.2-0.2,0.5
						l0,1.4C29.2,32.6,29.2,32.8,29.4,32.8z"/>
					<path class="st4" d="M54.6,34l-25.2-0.1c-0.1,0-0.2,0.1-0.2,0.2l0,0.7c0,0.1,0.1,0.2,0.2,0.2l25.2,0.1c0.1,0,0.2-0.1,0.2-0.2
						l0-0.7C54.8,34.1,54.7,34,54.6,34z"/>
					<path class="st4" d="M54.6,36.1L29.4,36c-0.1,0-0.2,0.1-0.2,0.2l0,0.7c0,0.1,0.1,0.2,0.2,0.2l25.2,0.1c0.1,0,0.2-0.1,0.2-0.2
						l0-0.7C54.8,36.2,54.7,36.1,54.6,36.1z"/>
					<path class="st5" d="M29.9,117.1l0,0.8c0,0.4,0.1,0.7,0.2,0.7l22.3,0.2c0.1,0,0.2-0.3,0.2-0.7l0-0.8c0-0.4-0.1-0.7-0.2-0.7
						l-22.3-0.2C30,116.4,29.9,116.7,29.9,117.1z"/>
					<path class="st5" d="M29.9,123.3c0,0.4,0.1,0.7,0.2,0.7l22.3,0.2c0.1,0,0.2-0.3,0.2-0.7l0-0.8c0-0.4-0.1-0.7-0.2-0.7l-22.3-0.2
						c-0.1,0-0.2,0.3-0.2,0.7L29.9,123.3z"/>
					<path class="st5" d="M29.9,128.7c0,0.4,0.1,0.7,0.2,0.7l22.3,0.2c0.1,0,0.2-0.3,0.2-0.7l0-0.8c0-0.4-0.1-0.7-0.2-0.7l-22.3-0.2
						c-0.1,0-0.2,0.3-0.2,0.7L29.9,128.7z"/>
					<path class="st5" d="M29.9,134.2c0,0.4,0.1,0.7,0.2,0.7l22.3,0.2c0.1,0,0.2-0.3,0.2-0.7l0-0.8c0-0.4-0.1-0.7-0.2-0.7l-22.3-0.2
						c-0.1,0-0.2,0.3-0.2,0.7L29.9,134.2z"/>
					<path class="st5" d="M52.6,139.5l0-0.8c0-0.4-0.1-0.7-0.2-0.7l-22.3-0.2c-0.1,0-0.2,0.3-0.2,0.7l0,0.8c0,0.4,0.1,0.7,0.2,0.7
						l22.3,0.2C52.5,140.1,52.6,139.8,52.6,139.5z"/>
					<path class="st5" d="M56.4,117.3l0,0.8c0,0.4,0.1,0.7,0.2,0.7l22.3,0.2c0.1,0,0.2-0.3,0.2-0.7l0-0.8c0-0.4-0.1-0.7-0.2-0.7
						l-22.3-0.2C56.5,116.6,56.4,116.9,56.4,117.3z"/>
					<path class="st5" d="M56.4,123.5c0,0.4,0.1,0.7,0.2,0.7l22.3,0.2c0.1,0,0.2-0.3,0.2-0.7l0-0.8c0-0.4-0.1-0.7-0.2-0.7L56.6,122
						c-0.1,0-0.2,0.3-0.2,0.7L56.4,123.5z"/>
					<path class="st5" d="M56.4,128.9c0,0.4,0.1,0.7,0.2,0.7l22.3,0.2c0.1,0,0.2-0.3,0.2-0.7l0-0.8c0-0.4-0.1-0.7-0.2-0.7l-22.3-0.2
						c-0.1,0-0.2,0.3-0.2,0.7L56.4,128.9z"/>
					<path class="st5" d="M56.4,134.3c0,0.4,0.1,0.7,0.2,0.7l22.3,0.2c0.1,0,0.2-0.3,0.2-0.7l0-0.8c0-0.4-0.1-0.7-0.2-0.7l-22.3-0.2
						c-0.1,0-0.2,0.3-0.2,0.7L56.4,134.3z"/>
					<path class="st5" d="M79.2,139.6l0-0.8c0-0.4-0.1-0.7-0.2-0.7l-22.3-0.2c-0.1,0-0.2,0.3-0.2,0.7l0,0.8c0,0.4,0.1,0.7,0.2,0.7
						l22.3,0.2C79.1,140.3,79.2,140,79.2,139.6z"/>
					<path class="st5" d="M83.8,117.4l0,0.8c0,0.4,0.1,0.7,0.2,0.7l22.3,0.2c0.1,0,0.2-0.3,0.2-0.7l0-0.8c0-0.4-0.1-0.7-0.2-0.7
						L84,116.8C83.9,116.8,83.8,117.1,83.8,117.4z"/>
					<path class="st5" d="M83.8,123.7c0,0.4,0.1,0.7,0.2,0.7l22.3,0.2c0.1,0,0.2-0.3,0.2-0.7l0-0.8c0-0.4-0.1-0.7-0.2-0.7L84,122.2
						c-0.1,0-0.2,0.3-0.2,0.7L83.8,123.7z"/>
					<path class="st5" d="M83.8,129.1c0,0.4,0.1,0.7,0.2,0.7l22.3,0.2c0.1,0,0.2-0.3,0.2-0.7l0-0.8c0-0.4-0.1-0.7-0.2-0.7L84,127.6
						c-0.1,0-0.2,0.3-0.2,0.7L83.8,129.1z"/>
					<path class="st5" d="M83.8,134.5c0,0.4,0.1,0.7,0.2,0.7l22.3,0.2c0.1,0,0.2-0.3,0.2-0.7l0-0.8c0-0.4-0.1-0.7-0.2-0.7L84,133
						c-0.1,0-0.2,0.3-0.2,0.7L83.8,134.5z"/>
					<path class="st5" d="M106.6,139.8l0-0.8c0-0.4-0.1-0.7-0.2-0.7L84,138.1c-0.1,0-0.2,0.3-0.2,0.7l0,0.8c0,0.4,0.1,0.7,0.2,0.7
						l22.3,0.2C106.5,140.5,106.6,140.2,106.6,139.8z"/>
					<path class="st6" d="M100.3,88.9l-13.1,2.5l9.4-9.9c1.5,1.6,2.7,3.5,3.3,5.6h0.1c-1.1-3.8-3.8-6.9-7.4-8.5v0.1
						c1.4,0.6,2.6,1.5,3.7,2.5l-9.2,10l1.6-13.6c1.3,0.2,2.6,0.5,3.8,1.1v-0.1c-1.7-0.7-3.5-1.1-5.4-1.1c-7.5,0-13.5,6-13.5,13.4
						c0,7.5,6,13.5,13.4,13.5c3.6,0,6.8-1.4,9.2-3.6h-3.4c0,0,0,0,0,0s0,0,0,0h3.5c2.6-2.4,4.2-5.9,4.2-9.8c0-1.3-0.2-2.6-0.5-3.7
						h-0.1C100,87.7,100.2,88.3,100.3,88.9z"/>
					<path class="st7" d="M87.2,91.3l13.1-2.5c-0.1-0.6-0.2-1.2-0.4-1.7h-2.4c0,0,0,0,0,0s0,0,0,0h2.4c-0.6-2.2-1.8-4.1-3.3-5.6
						L87.2,91.3z"/>
					<path class="st8" d="M92.5,80.2C92.5,80.2,92.5,80.1,92.5,80.2l0-1.6c-1.2-0.5-2.5-0.9-3.8-1.1L87,91.1l9.2-10
						c-1.1-1-2.3-1.9-3.7-2.5L92.5,80.2C92.5,80.1,92.5,80.2,92.5,80.2z"/>
					
						<rect x="43.6" y="93.2" transform="matrix(3.442550e-03 -1 1 3.442550e-03 -61.8021 149.4601)" class="st9" width="1" height="25"/>
					<path class="st8" d="M36,81.9c0-1-0.8-1.8-1.8-1.8l-1.2,0l-0.1,24l3,0L36,81.9z"/>
					<path class="st8" d="M40.9,75.4c0-1-0.8-1.8-1.8-1.8l-1.2,0l-0.1,30.5l3,0L40.9,75.4z"/>
					<path class="st8" d="M43.8,96.3l-1.2,0l0,7.9l3,0l0-6.1C45.6,97.1,44.8,96.3,43.8,96.3z"/>
					<path class="st8" d="M48.4,77.8l-1.2,0L47,104.2l3,0l0.1-24.6C50.1,78.6,49.3,77.8,48.4,77.8z"/>
					<path class="st8" d="M53.2,83.8l-1.2,0l-0.1,20.4l3,0L55,85.6C55,84.6,54.2,83.8,53.2,83.8z"/>
					<path class="st10" d="M29,147c0.1-0.2,0.2,0.3,0.2,0C29.2,147,29,146.8,29,147z"/>
					<path class="st8" d="M92.8,154.3c-0.6,0.3-1.3,0.6-2,0.8c-0.5,0.2-0.9,0.3-1.4,0.4c0,0,0,0,0-0.1c0.2-0.2,0.3-0.4,0.5-0.6
						c0.2-0.2,0.4-0.4,0.5-0.6c0.1-0.1,0.2-0.2,0.2-0.4c0.1-0.1,0.1-0.3,0.1-0.6l0,0c0,0,0,0,0-0.1c-0.1-0.2-0.3-0.3-0.4-0.2
						c-0.2,0.1-0.2,0.1-0.3,0.1l-0.2,0.1l-0.5,0.2l-0.9,0.5l-1.8,1l-1.4,0.8c0.1-0.2,0.2-0.4,0.3-0.6c0.2-0.4,0.4-0.8,0.7-1.3
						c0.2-0.1,0.5-0.2,0.7-0.4c0.7-0.3,1.3-0.7,2-1.2c0.6-0.5,1.2-1,1.6-1.7c0.2-0.4,0.3-0.8,0.2-1.3c-0.1-0.4-0.3-0.8-0.6-1.1l0,0
						c-0.1-0.1-0.1-0.1-0.2-0.1c-0.2,0-0.3,0.1-0.4,0.1c-0.1,0.1-0.2,0.1-0.2,0.2c-0.1,0.1-0.3,0.2-0.4,0.4
						c-0.2,0.3-0.5,0.5-0.7,0.8c-0.4,0.5-0.8,1.1-1.2,1.7c-0.6,0.9-1.2,1.8-1.7,2.7c-0.2,0.1-0.3,0.1-0.5,0.2
						c-0.4,0.1-0.7,0.2-1.1,0.3c-0.2,0-0.4,0-0.5,0c-0.1,0-0.2,0-0.2-0.1c0,0,0-0.1,0-0.2c0.1-0.1,0.2-0.3,0.3-0.5
						c0.1-0.1,0.1-0.2,0.2-0.3c0-0.1,0.1-0.2,0.1-0.4c0-0.1-0.1-0.1-0.1-0.2c-0.1,0-0.1-0.1-0.2-0.1c-0.1,0-0.2-0.1-0.3,0
						c-0.2,0-0.4,0.1-0.6,0.2c-0.7,0.4-1.2,1-1.8,1.4c-0.1,0.1-0.3,0.2-0.4,0.3c-0.1,0-0.1,0-0.2,0c0,0,0,0-0.1-0.1
						c-0.1-0.1-0.1-0.3-0.1-0.5c0.4-0.3,0.8-0.5,1.2-0.8c0.6-0.4,1.2-0.9,1.8-1.4c0.6-0.5,1.1-1,1.6-1.7c0.2-0.3,0.4-0.8,0.3-1.3
						c-0.1-0.3-0.2-0.5-0.4-0.6c-0.2-0.2-0.5-0.2-0.7-0.2c-0.5,0-0.9,0.3-1.2,0.5c-0.3,0.3-0.6,0.5-0.9,0.8c-0.5,0.6-0.9,1.3-1.3,2
						c-0.3,0.7-0.6,1.4-0.8,2.2c0,0.2,0,0.3,0,0.5c-0.7,0.5-1.5,1.1-2.2,1.6l0,0c0,0,0,0,0,0c0,0,0,0,0,0c0.7-0.3,1.3-0.7,2-1.1
						c0.1-0.1,0.2-0.1,0.3-0.2c0,0.1,0.1,0.3,0.2,0.4c0.1,0.1,0.2,0.2,0.4,0.2c0.2,0,0.3,0,0.4-0.1c0.2-0.1,0.4-0.2,0.5-0.4
						c0.6-0.5,1.1-1.1,1.7-1.5c0.1-0.1,0.3-0.2,0.5-0.2c0.1,0,0.1,0,0.2,0c0.1,0,0.1,0.1,0.1,0.1c0,0.1-0.1,0.3-0.2,0.4
						c-0.1,0.2-0.2,0.3-0.3,0.5c0,0.1-0.1,0.2,0,0.4c0.1,0.1,0.2,0.1,0.3,0.2c0.2,0,0.4,0,0.6,0c0.4,0,0.8-0.1,1.1-0.3
						c0.1,0,0.1-0.1,0.2-0.1c-0.1,0.1-0.2,0.3-0.2,0.4c-0.2,0.3-0.3,0.6-0.4,1c-0.1,0.2-0.1,0.3-0.1,0.7c0,0.1,0,0.2,0.2,0.4
						c0,0,0.1,0.1,0.3,0.1c0.1,0,0.1,0,0.2,0l0,0l0,0l0.1,0l0.2-0.1l1.8-1l1.8-1l0.9-0.5c-0.1,0.1-0.2,0.2-0.2,0.3
						c-0.2,0.2-0.3,0.4-0.5,0.6c-0.2,0.2-0.3,0.4-0.4,0.8c0,0,0,0.1,0,0.1c0,0.2,0.2,0.3,0.3,0.2l0,0c0.7-0.1,1.4-0.3,2.1-0.6
						c0.7-0.3,1.3-0.6,2-0.9c1.3-0.7,2.5-1.4,3.7-2.2c0,0,0,0,0,0c0,0,0,0,0,0C95.4,153.1,94.1,153.7,92.8,154.3z M87.7,151.6
						c0.4-0.6,0.8-1.1,1.2-1.7c0.2-0.3,0.4-0.5,0.6-0.8c0.1-0.1,0.2-0.2,0.3-0.3c0.1,0,0.1-0.1,0.2-0.1c0.2,0.2,0.3,0.4,0.3,0.7
						c0.1,0.3,0,0.6-0.1,0.9c-0.3,0.6-0.8,1.2-1.4,1.6c-0.7,0.5-1.4,1-2.2,1.4C86.9,152.8,87.3,152.2,87.7,151.6z M80.1,153.9
						c0.2-0.7,0.5-1.4,0.8-2c0.4-0.6,0.8-1.3,1.2-1.8c0.2-0.3,0.5-0.5,0.7-0.8c0.3-0.2,0.6-0.4,0.8-0.4c0.1,0,0.2,0,0.3,0.1
						c0.1,0.1,0.2,0.2,0.2,0.3c0.1,0.2,0,0.5-0.2,0.8c-0.3,0.6-0.9,1.1-1.4,1.7c-0.5,0.5-1.1,1-1.7,1.5
						C80.6,153.5,80.4,153.7,80.1,153.9C80.1,153.9,80.1,153.9,80.1,153.9z"/>
					<g>
						<path class="st4" d="M89.5,37h12.2c0.2,0,0.3-0.1,0.3-0.3v0c0-0.2-0.1-0.3-0.3-0.3H89.5c-0.2,0-0.3,0.1-0.3,0.3v0
							C89.1,36.8,89.3,37,89.5,37z"/>
						<path class="st4" d="M98.7,38h-6.2c0,0-0.1,0-0.1,0.1v0c0,0,0,0.1,0.1,0.1h6.2C98.7,38.2,98.8,38.1,98.7,38L98.7,38
							C98.8,38.1,98.7,38,98.7,38z"/>
						<path class="st11" d="M92.6,31.8c0.1-1.1,0.8-2.1,1.9-2.5l-1.1,0.2c-0.6,0.1-1,0.6-0.9,1.2L92.6,31.8z"/>
						<path class="st11" d="M92.8,33.2l0.2,1.1c0.1,0.6,0.6,1,1.2,0.9l1.1-0.2C94.2,35,93.2,34.2,92.8,33.2z"/>
						<path class="st11" d="M97.6,34.4L97.6,34.4c-0.3,0.2-0.6,0.4-1,0.5l1.1-0.2c0.6-0.1,1-0.6,0.9-1.2l-0.2-1.1
							C98.4,33.1,98.1,33.8,97.6,34.4L97.6,34.4z"/>
						<path class="st11" d="M98.3,31.1L98.2,30c-0.1-0.6-0.6-1-1.2-0.9l-1.1,0.2C97,29.3,97.9,30,98.3,31.1z"/>
						<path class="st12" d="M92.6,31.8c0,0.2,0,0.4,0,0.7c0,0.2,0.1,0.4,0.2,0.7c0.4,1,1.4,1.8,2.5,1.9c0.2,0,0.4,0,0.7,0
							c0.2,0,0.4-0.1,0.7-0.2c0.3-0.1,0.6-0.3,0.9-0.5l-1.6-0.6l-1.5,1.1l0.1-1.8L93,31.9l1.8-0.5l0.6-1.7l1,1.5l1.8,0L97,32.6
							l0.5,1.7c0.5-0.5,0.9-1.2,0.9-1.9c0-0.2,0-0.4,0-0.7c0-0.2-0.1-0.4-0.2-0.7c-0.4-1-1.4-1.8-2.5-1.9c-0.2,0-0.4,0-0.7,0
							c-0.2,0-0.4,0.1-0.7,0.2C93.5,29.8,92.7,30.7,92.6,31.8z"/>
						<polygon class="st0" points="97.6,34.3 97,32.6 98.1,31.2 96.3,31.2 95.3,29.7 94.7,31.4 93,31.9 94.4,33 94.4,34.8 
							95.9,33.7 97.5,34.3 97.6,34.4 						"/>
					</g>
					<path class="st13" d="M92.5,80.1C92.5,80.1,92.5,80.2,92.5,80.1C92.5,80.2,92.5,80.1,92.5,80.1l0.1-1.5v-0.1v-3.7l5.3,0
						c0,0,0,0,0,0c0,0,0,0,0,0l-5.3,0l-0.1,0v3.7v0.1V80.1z"/>
					<path class="st13" d="M92.7,100.7C92.7,100.7,92.7,100.7,92.7,100.7l3.5,0h6.8c0,0,0,0,0,0s0,0,0,0h-6.7L92.7,100.7
						C92.7,100.6,92.7,100.6,92.7,100.7z"/>
					<path class="st13" d="M99.9,87h-2.4c0,0,0,0,0,0s0,0,0,0L99.9,87l0.1,0.1h3.6c0,0,0,0,0,0s0,0,0,0H100H99.9z"/>
					<polygon class="st13" points="98.9,75.5 99.3,75.5 100.7,73.4 100.3,73.4 					"/>
					<path class="st13" d="M99.9,75c0,0.2,0,0.3,0.1,0.4c0.1,0.1,0.2,0.1,0.4,0.1c0.2,0,0.3-0.1,0.4-0.2c0.1-0.1,0.1-0.2,0.1-0.4
						c0-0.2,0-0.3-0.1-0.4c-0.1-0.1-0.2-0.1-0.4-0.1c-0.2,0-0.3,0.1-0.4,0.2C100,74.7,99.9,74.8,99.9,75z M100.5,74.7
						c0.1,0,0.1,0,0.1,0.1c0,0.1,0.1,0.1,0.1,0.2c0,0.2-0.1,0.3-0.2,0.3c-0.1,0-0.2-0.1-0.2-0.3C100.2,74.8,100.3,74.7,100.5,74.7z"
						/>
					<path class="st13" d="M99.1,73.3c-0.2,0-0.3,0.1-0.4,0.2c-0.1,0.1-0.1,0.2-0.1,0.4c0,0.2,0,0.3,0.1,0.4
						c0.1,0.1,0.2,0.1,0.4,0.1c0.2,0,0.3-0.1,0.4-0.2c0.1-0.1,0.1-0.2,0.1-0.4c0-0.2,0-0.3-0.1-0.4C99.4,73.4,99.3,73.3,99.1,73.3z
						 M99.1,74.2c-0.1,0-0.2-0.1-0.2-0.3c0-0.2,0.1-0.3,0.2-0.3c0.1,0,0.2,0.1,0.2,0.3C99.3,74.1,99.3,74.2,99.1,74.2z"/>
					<path class="st13" d="M105.6,86.8c-0.1,0.1-0.1,0.2-0.1,0.4c0,0.2,0,0.3,0.1,0.4c0.1,0.1,0.2,0.1,0.4,0.1
						c0.2,0,0.3-0.1,0.4-0.2c0.1-0.1,0.1-0.2,0.1-0.4c0-0.2,0-0.3-0.1-0.4c-0.1-0.1-0.2-0.1-0.4-0.1
						C105.9,86.7,105.7,86.7,105.6,86.8z M106.2,87.2c0,0.2-0.1,0.3-0.2,0.3c-0.1,0-0.2-0.1-0.2-0.3c0-0.2,0.1-0.3,0.2-0.3
						c0.1,0,0.1,0,0.1,0.1C106.2,87,106.2,87.1,106.2,87.2z"/>
					<polygon class="st13" points="104.8,87.7 106.2,85.6 105.8,85.6 104.4,87.7 					"/>
					<path class="st13" d="M104.6,86.7c0.2,0,0.3-0.1,0.4-0.2s0.1-0.2,0.1-0.4c0-0.2,0-0.3-0.1-0.4c-0.1-0.1-0.2-0.1-0.4-0.1
						c-0.2,0-0.3,0.1-0.4,0.2c-0.1,0.1-0.1,0.2-0.1,0.4c0,0.2,0,0.3,0.1,0.4C104.4,86.6,104.5,86.7,104.6,86.7z M104.7,85.8
						c0.1,0,0.2,0.1,0.2,0.3c0,0.2-0.1,0.3-0.2,0.3c-0.1,0-0.2-0.1-0.2-0.3C104.5,85.9,104.5,85.8,104.7,85.8z"/>
					<path class="st13" d="M106.1,100.7c0-0.2,0-0.3-0.1-0.4c-0.1-0.1-0.2-0.1-0.4-0.1c-0.2,0-0.3,0.1-0.4,0.2
						c-0.1,0.1-0.1,0.2-0.1,0.4c0,0.2,0,0.3,0.1,0.4c0.1,0.1,0.2,0.1,0.4,0.1c0.2,0,0.3-0.1,0.4-0.2
						C106.1,101,106.1,100.9,106.1,100.7z M105.6,101c-0.1,0-0.2-0.1-0.2-0.3c0-0.2,0.1-0.3,0.2-0.3c0.1,0,0.1,0,0.1,0.1
						c0,0.1,0.1,0.1,0.1,0.2C105.8,100.9,105.7,101,105.6,101z"/>
					<polygon class="st13" points="105.4,99.1 104,101.3 104.4,101.3 105.8,99.1 					"/>
					<path class="st13" d="M104.2,100.2c0.2,0,0.3-0.1,0.4-0.2c0.1-0.1,0.1-0.2,0.1-0.4c0-0.2,0-0.3-0.1-0.4
						c-0.1-0.1-0.2-0.1-0.4-0.1c-0.2,0-0.3,0.1-0.4,0.2c-0.1,0.1-0.1,0.2-0.1,0.4c0,0.2,0,0.3,0.1,0.4
						C104,100.2,104.1,100.2,104.2,100.2z M104.3,99.4c0.1,0,0.2,0.1,0.2,0.3c0,0.2-0.1,0.3-0.2,0.3c-0.1,0-0.2-0.1-0.2-0.3
						C104,99.5,104.1,99.4,104.3,99.4z"/>
					
						<rect x="66.2" y="79.2" transform="matrix(1.228409e-02 -0.9999 0.9999 1.228409e-02 -13.3606 145.0551)" class="st13" width="1.1" height="0.2"/>
					<polygon class="st13" points="66.6,87.5 66.7,87.5 66.8,85.6 66.6,85.6 					"/>
					<polygon class="st13" points="66.5,91.4 66.7,91.4 66.7,89.4 66.5,89.4 					"/>
					<polygon class="st13" points="66.5,95.2 66.6,95.2 66.7,93.3 66.5,93.3 					"/>
					<polygon class="st13" points="66.6,83.7 66.8,83.7 66.8,81.7 66.6,81.7 					"/>
					<polygon class="st13" points="66.4,99.1 66.6,99.1 66.6,97.1 66.4,97.1 					"/>
					<polygon class="st13" points="66.4,102 66.6,102 66.6,101 66.4,101 					"/>
					<path class="st4" d="M97.6,55.3H33.8c-0.5,0-0.9-0.4-0.9-0.9v0c0-0.5,0.4-0.9,0.9-0.9h63.8c0.5,0,0.9,0.4,0.9,0.9v0
						C98.5,54.8,98.1,55.3,97.6,55.3z"/>
					<path class="st4" d="M97.6,59.7H33.8c-0.5,0-0.9-0.4-0.9-0.9v0c0-0.5,0.4-0.9,0.9-0.9h63.8c0.5,0,0.9,0.4,0.9,0.9v0
						C98.5,59.3,98.1,59.7,97.6,59.7z"/>
				</g>
			</g>
			<linearGradient id="SVGID_1_" gradientUnits="userSpaceOnUse" x1="21.466" y1="94.5677" x2="113.5169" y2="94.5677">
				<stop  offset="0" style="stop-color:#FFFFFF"/>
				<stop  offset="1" style="stop-color:#1D1D1B"/>
			</linearGradient>
			<path class="st15" d="M95.8,163.6H21.5V25.5h92.1v120.3C113.5,155.7,105.6,163.6,95.8,163.6z"/>
		</g>
		<g>
			<g>
				<path class="st16" d="M183.4,56.7c-0.2,0-0.4-0.1-0.6-0.2c0,0-0.1-0.1-0.1-0.1c-0.4-0.4-0.4-1-0.1-1.4c0.4-0.4,1-0.4,1.4-0.1
					c0.4,0.4,0.5,1,0.1,1.4C184,56.6,183.7,56.7,183.4,56.7z"/>
			</g>
			<g>
				<path class="st16" d="M130.2,57.3c-0.3,0-0.5-0.1-0.7-0.3c-0.4-0.4-0.4-1,0-1.4c0.4-0.4,1-0.5,1.4-0.1c0.4,0.4,0.5,1,0.1,1.4
					l-0.1,0.1C130.7,57.2,130.4,57.3,130.2,57.3z M134.2,53.9c-0.3,0-0.6-0.1-0.8-0.4c-0.3-0.4-0.2-1.1,0.2-1.4l0.1-0.1
					c0.5-0.3,1.1-0.2,1.4,0.3c0.3,0.5,0.2,1.1-0.3,1.4l-0.1,0C134.6,53.8,134.4,53.9,134.2,53.9z M179.2,53.6c-0.2,0-0.3,0-0.5-0.1
					l-0.1-0.1c-0.5-0.3-0.6-0.9-0.3-1.4c0.3-0.5,0.9-0.6,1.4-0.3c0.5,0.3,0.6,0.9,0.3,1.4C179.9,53.4,179.5,53.6,179.2,53.6z
					 M138.7,51.2c-0.4,0-0.7-0.2-0.9-0.6c-0.2-0.5,0-1.1,0.5-1.3l0.1,0c0.5-0.2,1.1,0,1.3,0.5c0.2,0.5,0,1.1-0.5,1.3l-0.1,0
					C139,51.2,138.9,51.2,138.7,51.2z M174.6,51.1c-0.1,0-0.3,0-0.4-0.1l-0.1,0c-0.5-0.2-0.7-0.8-0.5-1.3c0.2-0.5,0.8-0.7,1.3-0.5
					l0.1,0.1c0.5,0.2,0.7,0.8,0.5,1.3C175.4,50.9,175,51.1,174.6,51.1z M143.6,49.3c-0.4,0-0.8-0.3-0.9-0.7
					c-0.2-0.5,0.1-1.1,0.6-1.3l0.1,0c0.5-0.2,1.1,0.1,1.2,0.7c0.2,0.5-0.1,1.1-0.7,1.2l-0.1,0C143.8,49.3,143.7,49.3,143.6,49.3z
					 M169.7,49.2c-0.1,0-0.2,0-0.3,0l-0.1,0c-0.5-0.2-0.8-0.7-0.6-1.3c0.2-0.5,0.7-0.8,1.3-0.6c0.5,0.2,0.9,0.7,0.7,1.3
					C170.5,48.9,170.1,49.2,169.7,49.2z M148.8,48.1c-0.5,0-0.9-0.3-1-0.8c-0.1-0.5,0.3-1.1,0.8-1.2l0.1,0c0.5-0.1,1.1,0.3,1.2,0.8
					c0.1,0.5-0.3,1.1-0.8,1.2l-0.1,0C148.9,48.1,148.8,48.1,148.8,48.1z M164.6,48c-0.1,0-0.1,0-0.2,0l-0.1,0
					c-0.5-0.1-0.9-0.6-0.8-1.2c0.1-0.5,0.6-0.9,1.2-0.8c0.5,0.1,1,0.6,0.9,1.2C165.4,47.6,165.1,48,164.6,48z M154,47.5
					c-0.5,0-1-0.4-1-0.9c0-0.6,0.4-1,0.9-1.1l0.1,0c0.5,0,1,0.4,1.1,0.9c0,0.6-0.4,1-0.9,1.1L154,47.5C154,47.5,154,47.5,154,47.5z
					 M159.4,47.4C159.3,47.4,159.3,47.4,159.4,47.4l0-1L159.4,47.4l-0.1-1l0.1-1l0.1,0c0.6,0,1,0.5,0.9,1.1
					C160.3,47,159.9,47.4,159.4,47.4z"/>
			</g>
			<g>
				<path class="st16" d="M127.1,61.5c-0.1,0-0.3,0-0.4-0.1c-0.5-0.2-0.7-0.8-0.5-1.3l0.9,0.4L128,61
					C127.9,61.3,127.5,61.5,127.1,61.5z"/>
			</g>
			<g>
				<g>
					<polygon class="st16" points="185.4,52.1 187.5,60 179.6,57.8 					"/>
				</g>
			</g>
		</g>
		<path class="st17" d="M137.5,116.9"/>
		<path class="st18" d="M134.3,79.2"/>
		<path class="st18" d="M134.3,78.9"/>
		<circle class="st0" cx="157.9" cy="116.1" r="21.7"/>
		<g>
			<path class="st12" d="M157.2,93.6c-12.3,0.1-22.3,10.1-22.2,22.5s10.1,22.3,22.5,22.2c12.3-0.1,22.3-10.1,22.2-22.5
				S169.5,93.6,157.2,93.6z M174.7,105.9c0.5,0.8,0.8,1.5,1.2,2.3l-6.5,14.4c1,0.8,1,1.6,1,2.3c0.1,1.6-4.2,8.9-14.2,8.6
				c-5.5-1-5.1-2.2-4.4-2.5c2.3-0.2,3.8,0.1,6.8-2.1c2.2-1.9,5.1-8.8,9-7.4L174.7,105.9z M166.2,103.2l1.2-2l1.2,2l2,1.2l-2,1.2
				l-1.2,2l-1.2-2l-2-1.2L166.2,103.2z M158.7,111.3l2.6-4.4l2.7,4.4l4.4,2.6l-4.4,2.7l-2.6,4.4l-2.6-4.4l-4.5-2.6L158.7,111.3z
				 M137.2,116.1c0-10.5,8-19.1,18.2-20.1l-5.4,38.7C142.5,131.8,137.2,124.5,137.2,116.1z"/>
		</g>
		<g>
			<circle class="st19" cx="149.1" cy="131.5" r="10.7"/>
			<circle class="st20" cx="149.1" cy="131.5" r="7.9"/>
			<g>
				<defs>
					<path id="SVGID_2_" d="M140.5,199.5c0-4.8,2.9-21.4,0.4-25.5c-1-1.6-2.1-7.8-3.7-8.8c-0.4-0.3-0.9-0.6-1.2-1
						c-0.3-0.4-0.4-1-0.5-1.5c-1-4.6-9.5-5.8-9.2-10.4c2.3-0.8,4.4-1.7,8.2,0.6c2.4,1.5,4.2,3.8,6,6c0.3,0.4,0.6,0.7,1,0.8
						c0.6,0.1,1.1-0.4,1.3-1c0.2-0.6,0.1-1.2,0.1-1.8c0.1-1.5,0.9-2.9,1.5-4.3c0.8-2.1,0.1-16.2,2.3-22.9c0.2-0.7,0.5-1.4,1.1-2
						s1.4-0.8,2.1-0.3c1.9,2.5,0.4,8.5,1.1,13.2c0.6,3.9,1.1,6.2,1.4,10.1c0.8-1.3,2.2-2.2,3.7-2.1c1.5,0.1,2.9,1.5,2.6,3
						c1.5-0.3,3.4-0.2,3.9,1.1c0.1,0.4,0.1,0.8,0.3,1.2c0.5,1.5,2.7,1.5,3.7,2.7c0.9,1.1,0.5,2.8,0,4.1c-1.5,4.5-3.1,8.9-4.6,13.4
						c-1.4,4.1-2.7,18.9-0.7,22.8l-3.4,2.4C157.9,199.5,145.5,202.5,140.5,199.5z"/>
				</defs>
				<use xlink:href="#SVGID_2_"  style="overflow:visible;fill:#F0C6BD;"/>
				<clipPath id="SVGID_3_">
					<use xlink:href="#SVGID_2_"  style="overflow:visible;"/>
				</clipPath>
			</g>
		</g>
	</g>
</g>
</svg>
