<?xml version="1.0" encoding="utf-8"?>
<!-- Generator: Adobe Illustrator 24.1.3, SVG Export Plug-In . SVG Version: 6.00 Build 0)  -->
<svg version="1.1" id="Layer_1" xmlns="http://www.w3.org/2000/svg" xmlns:xlink="http://www.w3.org/1999/xlink" x="0px" y="0px"
	 viewBox="0 0 310 210" style="enable-background:new 0 0 310 210;" xml:space="preserve">
<style type="text/css">
	.st0{fill:#FFFFFF;}
	.st1{fill:#CCE4F2;stroke:#124E77;stroke-width:0.2112;stroke-miterlimit:10;}
	.st2{opacity:0.88;fill:#B55CA3;}
	.st3{fill:#04B8B5;stroke:#77ADDB;stroke-width:0.2112;stroke-miterlimit:10;}
	.st4{fill:#0E3C62;}
	.st5{fill:#F5F7F8;}
	.st6{fill:none;stroke:#D6E6F2;stroke-width:1.6892;stroke-linecap:round;stroke-miterlimit:10;}
	
		.st7{fill:none;stroke:#D6E6F2;stroke-width:1.6892;stroke-linecap:round;stroke-miterlimit:10;stroke-dasharray:8.825549e-02,2.6477;}
	.st8{fill:#D6E6F2;}
	.st9{fill:none;stroke:#FF00FF;stroke-width:0.8446;stroke-miterlimit:10;}
	.st10{fill:#555A5F;}
	.st11{fill:none;stroke:#96A0A5;stroke-width:0.7216;stroke-miterlimit:10;}
	.st12{fill:#F9FAFB;}
	.st13{fill:#7FAAC5;}
	.st14{clip-path:url(#XMLID_2_);fill:#CACFD2;}
	.st15{fill:#BEC8D2;}
	.st16{fill:#96A0A5;}
	.st17{fill:#231F20;}
	.st18{fill:#788287;}
	.st19{fill:#96A0A5;stroke:#BFD4E2;stroke-width:0.1135;stroke-miterlimit:10;}
	.st20{opacity:0.4;fill:#FFFFFF;}
	.st21{fill:#F9DDC9;}
	.st22{fill:#F0C6BD;}
	.st23{fill:#1A72AD;}
	.st24{fill:none;stroke:#96A0A5;stroke-width:0.7614;stroke-miterlimit:10;}
	.st25{fill:#04B8B5;}
	.st26{fill:none;stroke:#E95653;stroke-width:0.6335;stroke-miterlimit:10;}
	.st27{opacity:0.51;fill:#FFFFFF;}
	.st28{fill:#EFF1F4;}
	.st29{fill:none;stroke:#6588AB;stroke-width:0.2177;stroke-miterlimit:10;}
	.st30{fill:#96A0A5;stroke:#BFD4E2;stroke-width:0.1198;stroke-miterlimit:10;}
	.st31{fill:#1A72AD;stroke:#BFD4E2;stroke-width:0.1198;stroke-miterlimit:10;}
	.st32{fill:#E9BBB1;}
	.st33{fill:#FFFFFF;stroke:#FF00FF;stroke-width:1.2694;stroke-miterlimit:10;}
	.st34{opacity:0.56;}
	.st35{fill:#394C38;}
	.st36{fill:none;}
	.st37{font-family:'SegoeUI-Semilight';}
	.st38{font-size:8.5573px;}
	.st39{fill:#1C77C3;}
	.st40{fill:#666666;}
	.st41{opacity:0.98;}
	.st42{fill:#77ADDB;}
</style>
<path class="st0" d="M299.7,210.6H9.3c-5.4,0-9.8-4.4-9.8-9.8V7.2c0-5.4,4.4-9.8,9.8-9.8h290.3c5.4,0,9.8,4.4,9.8,9.8v193.5
	C309.5,206.2,305.1,210.6,299.7,210.6z"/>
<g>
	<g>
		<g>
			<g>
				<g>
					<path class="st1" d="M139.7,139.9V20.2c0-0.5,0.4-0.8,0.8-0.8h1.7c0.5,0,0.8,0.4,0.8,0.8v119.7c0,0.5-0.4,0.8-0.8,0.8h-1.7
						C140,140.7,139.7,140.3,139.7,139.9z"/>
					<polygon class="st2" points="168.8,67.1 143.7,47.8 143.7,86.4 					"/>
					<g>
						<path class="st3" d="M169,178.1V58.4c0-0.5,0.4-0.8,0.8-0.8h1.7c0.5,0,0.8,0.4,0.8,0.8v119.7c0,0.5-0.4,0.8-0.8,0.8h-1.7
							C169.4,178.9,169,178.5,169,178.1z"/>
						<path class="st4" d="M169.2,70.5c0.3,0,0.6-1.6,0.6-3.5c0-1.9-0.3-3.5-0.5-3.5c-0.3,0-0.9,1.5-0.9,3.5S168.9,70.5,169.2,70.5z
							"/>
						<path class="st5" d="M168.8,69.1c-0.1,0-0.3-1-0.3-2.2c0-1.2,0.3-2.2,0.3-2.2c0.1,0,0.1,1,0.1,2.2
							C168.9,68.1,168.9,69.1,168.8,69.1z"/>
					</g>
					<g>
						<g>
							<line class="st6" x1="160.4" y1="66.8" x2="160.4" y2="66.8"/>
							<line class="st7" x1="157.7" y1="66.8" x2="148.1" y2="66.8"/>
							<line class="st6" x1="146.8" y1="66.8" x2="146.8" y2="66.8"/>
							<g>
								<polygon class="st8" points="159.7,64.4 163.8,66.8 159.7,69.1 								"/>
							</g>
						</g>
					</g>
					<path class="st4" d="M139.7,31c0.3,0,0.6-1.6,0.6-3.5S140,24,139.7,24c-0.3,0-0.9,1.5-0.9,3.5S139.4,31,139.7,31z"/>
					<path class="st5" d="M139.3,29.7c-0.1,0-0.3-1-0.3-2.2s0.3-2.2,0.3-2.2s0.1,1,0.1,2.2S139.3,29.7,139.3,29.7z"/>
				</g>
				<path class="st9" d="M136.2,158.6"/>
				<g>
					<g>
						<g>
							<g>
								<path class="st10" d="M77.5,110.6H77c-0.2,0-0.3-0.1-0.3-0.3v-5.7c0-0.2,0.1-0.3,0.3-0.3h0.5c0.2,0,0.3,0.1,0.3,0.3v5.7
									C77.8,110.5,77.6,110.6,77.5,110.6z"/>
								<path class="st10" d="M77.5,122H77c-0.2,0-0.3-0.1-0.3-0.3v-8.7c0-0.2,0.1-0.3,0.3-0.3h0.5c0.2,0,0.3,0.1,0.3,0.3v8.7
									C77.8,121.9,77.6,122,77.5,122z"/>
								<path class="st10" d="M77.5,133H77c-0.2,0-0.3-0.1-0.3-0.3v-8.7c0-0.2,0.1-0.3,0.3-0.3h0.5c0.2,0,0.3,0.1,0.3,0.3v8.7
									C77.8,132.9,77.6,133,77.5,133z"/>
								<g>
									<path class="st10" d="M126,130.7h-0.5c-0.2,0-0.3-0.1-0.3-0.3v-15.1c0-0.2,0.1-0.3,0.3-0.3h0.5c0.2,0,0.3,0.1,0.3,0.3v15.1
										C126.3,130.6,126.1,130.7,126,130.7z"/>
									<g>
										<path class="st11" d="M119.1,85.4H84c-3.6,0-6.5,2.9-6.5,6.5v86.3c0,3.6,2.9,6.5,6.5,6.5h35.1c3.6,0,6.5-2.9,6.5-6.5V91.9
											C125.6,88.3,122.7,85.4,119.1,85.4z"/>
										<path class="st4" d="M119.1,85.4H84c-3.6,0-6.5,2.9-6.5,6.5v86.3c0,3.6,2.9,6.5,6.5,6.5h35.1c3.6,0,6.5-2.9,6.5-6.5V91.9
											C125.6,88.3,122.7,85.4,119.1,85.4z"/>
									</g>
								</g>
								<g>
									<path class="st12" d="M119.4,183H83.5c-2.8,0-5.1-2.3-5.1-5.1V91.6c0-2.8,2.3-5.1,5.1-5.1h35.9c2.8,0,5.1,2.3,5.1,5.1v86.3
										C124.4,180.7,122.2,183,119.4,183z"/>
									<path class="st13" d="M119.1,183H83.8c-3,0-5.4-2.4-5.4-5.4V91.9c0-3,2.4-5.4,5.4-5.4h35.3c3,0,5.4,2.4,5.4,5.4v85.7
										C124.5,180.6,122.1,183,119.1,183z M83.8,86.6c-2.9,0-5.3,2.4-5.3,5.3v85.7c0,2.9,2.4,5.3,5.3,5.3h35.3
										c2.9,0,5.3-2.4,5.3-5.3V91.9c0-2.9-2.4-5.3-5.3-5.3H83.8z"/>
								</g>
								<g>
									<g>
										<g>
											<defs>
												<path id="XMLID_112_" d="M119.8,183.2L84,183.3c-2.8,0-5.1-2.3-5.1-5.1L78.7,92c0-2.8,2.3-5.1,5.1-5.1l35.9-0.1
													c2.8,0,5.1,2.3,5.1,5.1l0.2,86.3C124.9,180.9,122.6,183.2,119.8,183.2z"/>
											</defs>
											<use xlink:href="#XMLID_112_"  style="overflow:visible;fill:#F9FAFB;"/>
											<clipPath id="XMLID_2_">
												<use xlink:href="#XMLID_112_"  style="overflow:visible;"/>
											</clipPath>
											
												<rect x="73.7" y="86.3" transform="matrix(1 -2.401237e-03 2.401237e-03 1 -0.2227 0.2428)" class="st14" width="54.7" height="13.1"/>
										</g>
										<path class="st13" d="M119.5,183.3l-35.3,0.1c-3,0-5.4-2.4-5.4-5.4l-0.2-85.7c0-3,2.4-5.4,5.4-5.4l35.3-0.1
											c3,0,5.4,2.4,5.4,5.4l0.2,85.7C125,180.8,122.5,183.3,119.5,183.3z M84,87c-2.9,0-5.3,2.4-5.3,5.3L79,178
											c0,2.9,2.4,5.3,5.3,5.3l35.3-0.1c2.9,0,5.3-2.4,5.3-5.3l-0.2-85.7c0-2.9-2.4-5.3-5.3-5.3L84,87z"/>
									</g>
									<path class="st15" d="M124.4,174.3l-45.2,0.1c-0.1,0-0.2-0.1-0.2-0.2L78.9,110c0-0.1,0.1-0.2,0.2-0.2l45.2-0.1
										c0.1,0,0.2,0.1,0.2,0.2l0.2,64.3C124.6,174.2,124.5,174.3,124.4,174.3z"/>
									<path class="st0" d="M111.1,94l-28.3,0.1c-0.1,0-0.3-0.1-0.3-0.3l0-0.2c0-0.1,0.1-0.3,0.3-0.3l28.3-0.1
										c0.1,0,0.3,0.1,0.3,0.3l0,0.2C111.4,93.9,111.3,94,111.1,94z"/>
									<path class="st16" d="M110.1,103.9l-28.3,0.1c-0.1,0-0.3-0.1-0.3-0.3l0-0.2c0-0.1,0.1-0.3,0.3-0.3l28.3-0.1
										c0.1,0,0.3,0.1,0.3,0.3l0,0.2C110.4,103.7,110.3,103.9,110.1,103.9z"/>
									<path class="st16" d="M110.1,106.1l-28.3,0.1c-0.1,0-0.3-0.1-0.3-0.3l0-0.2c0-0.1,0.1-0.3,0.3-0.3l28.3-0.1
										c0.1,0,0.3,0.1,0.3,0.3l0,0.2C110.4,106,110.3,106.1,110.1,106.1z"/>
									<rect x="82" y="119.4" class="st0" width="39.6" height="39.9"/>
									<g>
										
											<rect x="114.4" y="143.9" transform="matrix(1 -2.401237e-03 2.401237e-03 1 -0.3565 0.2768)" class="st17" width="1.3" height="9.3"/>
										
											<rect x="114.4" y="140" transform="matrix(1 -2.401237e-03 2.401237e-03 1 -0.339 0.2767)" class="st17" width="1.3" height="2.7"/>
										
											<rect x="114.4" y="136" transform="matrix(1 -2.401237e-03 2.401237e-03 1 -0.3278 0.2767)" class="st17" width="1.3" height="1.3"/>
										
											<rect x="114.4" y="132" transform="matrix(1 -2.401237e-03 2.401237e-03 1 -0.3198 0.2766)" class="st17" width="1.3" height="2.7"/>
										
											<rect x="114.4" y="126.7" transform="matrix(1 -2.401237e-03 2.401237e-03 1 -0.3103 0.2766)" class="st17" width="1.3" height="5.3"/>
										
											<rect x="114.4" y="125.4" transform="matrix(1 -2.401237e-03 2.401237e-03 1 -0.3023 0.2766)" class="st17" width="1.3" height="1.3"/>
										
											<rect x="113.1" y="151.9" transform="matrix(1 -2.401237e-03 2.401237e-03 1 -0.366 0.2736)" class="st17" width="1.3" height="1.3"/>
										
											<rect x="113.1" y="144" transform="matrix(1 -2.401237e-03 2.401237e-03 1 -0.3469 0.2736)" class="st17" width="1.3" height="1.3"/>
										
											<rect x="113.1" y="138.6" transform="matrix(1 -2.401237e-03 2.401237e-03 1 -0.3342 0.2735)" class="st17" width="1.3" height="1.3"/>
										
											<rect x="113.1" y="133.3" transform="matrix(1 -2.401237e-03 2.401237e-03 1 -0.3214 0.2735)" class="st17" width="1.3" height="1.3"/>
										
											<rect x="113" y="125.4" transform="matrix(1 -2.401237e-03 2.401237e-03 1 -0.3023 0.2734)" class="st17" width="1.3" height="1.3"/>
										
											<rect x="111.8" y="151.9" transform="matrix(1 -2.401237e-03 2.401237e-03 1 -0.3661 0.2704)" class="st17" width="1.3" height="1.3"/>
										
											<rect x="111.8" y="146.6" transform="matrix(1 -2.401237e-03 2.401237e-03 1 -0.3565 0.2704)" class="st17" width="1.3" height="4"/>
										
											<rect x="111.8" y="144" transform="matrix(1 -2.401237e-03 2.401237e-03 1 -0.3469 0.2704)" class="st17" width="1.3" height="1.3"/>
										
											<rect x="111.8" y="141.3" transform="matrix(1 -2.401237e-03 2.401237e-03 1 -0.3406 0.2703)" class="st17" width="1.3" height="1.3"/>
										
											<rect x="111.7" y="138.6" transform="matrix(1 -2.401237e-03 2.401237e-03 1 -0.3342 0.2703)" class="st17" width="1.3" height="1.3"/>
										
											<rect x="111.7" y="136" transform="matrix(1 -2.401237e-03 2.401237e-03 1 -0.3278 0.2703)" class="st17" width="1.3" height="1.3"/>
										
											<rect x="111.7" y="133.3" transform="matrix(1 -2.401237e-03 2.401237e-03 1 -0.3214 0.2703)" class="st17" width="1.3" height="1.3"/>
										
											<rect x="111.7" y="128" transform="matrix(1 -2.401237e-03 2.401237e-03 1 -0.3119 0.2702)" class="st17" width="1.3" height="4"/>
										
											<rect x="111.7" y="125.4" transform="matrix(1 -2.401237e-03 2.401237e-03 1 -0.3023 0.2702)" class="st17" width="1.3" height="1.3"/>
										
											<rect x="110.4" y="151.9" transform="matrix(1 -2.401237e-03 2.401237e-03 1 -0.3661 0.2672)" class="st17" width="1.3" height="1.3"/>
										
											<rect x="110.4" y="146.6" transform="matrix(1 -2.401237e-03 2.401237e-03 1 -0.3565 0.2672)" class="st17" width="1.3" height="4"/>
										
											<rect x="110.4" y="144" transform="matrix(1 -2.401237e-03 2.401237e-03 1 -0.347 0.2672)" class="st17" width="1.3" height="1.3"/>
										
											<rect x="110.4" y="140" transform="matrix(1 -2.401237e-03 2.401237e-03 1 -0.339 0.2672)" class="st17" width="1.3" height="2.7"/>
										
											<rect x="110.4" y="136" transform="matrix(1 -2.401237e-03 2.401237e-03 1 -0.3294 0.2671)" class="st17" width="1.3" height="2.7"/>
										
											<rect x="110.4" y="133.3" transform="matrix(1 -2.401237e-03 2.401237e-03 1 -0.3215 0.2671)" class="st17" width="1.3" height="1.3"/>
										
											<rect x="110.4" y="128" transform="matrix(1 -2.401237e-03 2.401237e-03 1 -0.3119 0.2671)" class="st17" width="1.3" height="4"/>
										
											<rect x="110.4" y="125.4" transform="matrix(1 -2.401237e-03 2.401237e-03 1 -0.3023 0.267)" class="st17" width="1.3" height="1.3"/>
										
											<rect x="109.1" y="151.9" transform="matrix(1 -2.401237e-03 2.401237e-03 1 -0.3661 0.2641)" class="st17" width="1.3" height="1.3"/>
										
											<rect x="109.1" y="146.6" transform="matrix(1 -2.401237e-03 2.401237e-03 1 -0.3565 0.264)" class="st17" width="1.3" height="4"/>
										
											<rect x="109.1" y="144" transform="matrix(1 -2.401237e-03 2.401237e-03 1 -0.347 0.264)" class="st17" width="1.3" height="1.3"/>
										
											<rect x="109.1" y="141.3" transform="matrix(1 -2.401237e-03 2.401237e-03 1 -0.3406 0.264)" class="st17" width="1.3" height="1.3"/>
										
											<rect x="109.1" y="137.3" transform="matrix(1 -2.401237e-03 2.401237e-03 1 -0.331 0.2639)" class="st17" width="1.3" height="1.3"/>
										
											<rect x="109.1" y="133.3" transform="matrix(1 -2.401237e-03 2.401237e-03 1 -0.3215 0.2639)" class="st17" width="1.3" height="1.3"/>
										
											<rect x="109.1" y="128" transform="matrix(1 -2.401237e-03 2.401237e-03 1 -0.3119 0.2639)" class="st17" width="1.3" height="4"/>
										
											<rect x="109.1" y="125.4" transform="matrix(1 -2.401237e-03 2.401237e-03 1 -0.3024 0.2638)" class="st17" width="1.3" height="1.3"/>
										
											<rect x="107.8" y="151.9" transform="matrix(1 -2.401237e-03 2.401237e-03 1 -0.3661 0.2609)" class="st17" width="1.3" height="1.3"/>
										
											<rect x="107.8" y="144" transform="matrix(1 -2.401237e-03 2.401237e-03 1 -0.347 0.2608)" class="st17" width="1.3" height="1.3"/>
										
											<rect x="107.8" y="141.3" transform="matrix(1 -2.401237e-03 2.401237e-03 1 -0.3406 0.2608)" class="st17" width="1.3" height="1.3"/>
										
											<rect x="107.8" y="138.7" transform="matrix(1 -2.401237e-03 2.401237e-03 1 -0.3342 0.2608)" class="st17" width="1.3" height="1.3"/>
										
											<rect x="107.8" y="133.3" transform="matrix(1 -2.401237e-03 2.401237e-03 1 -0.3215 0.2607)" class="st17" width="1.3" height="1.3"/>
										
											<rect x="107.7" y="125.4" transform="matrix(1 -2.401237e-03 2.401237e-03 1 -0.3024 0.2606)" class="st17" width="1.3" height="1.3"/>
										
											<rect x="106.5" y="144" transform="matrix(1 -2.401237e-03 2.401237e-03 1 -0.3565 0.2577)" class="st17" width="1.3" height="9.3"/>
										
											<rect x="106.4" y="141.3" transform="matrix(1 -2.401237e-03 2.401237e-03 1 -0.3406 0.2576)" class="st17" width="1.3" height="1.3"/>
										
											<rect x="106.4" y="138.7" transform="matrix(1 -2.401237e-03 2.401237e-03 1 -0.3342 0.2576)" class="st17" width="1.3" height="1.3"/>
										
											<rect x="106.4" y="136" transform="matrix(1 -2.401237e-03 2.401237e-03 1 -0.3279 0.2576)" class="st17" width="1.3" height="1.3"/>
										
											<rect x="106.4" y="132" transform="matrix(1 -2.401237e-03 2.401237e-03 1 -0.3199 0.2575)" class="st17" width="1.3" height="2.7"/>
										
											<rect x="106.4" y="126.7" transform="matrix(1 -2.401237e-03 2.401237e-03 1 -0.3103 0.2575)" class="st17" width="1.3" height="5.3"/>
										
											<rect x="106.4" y="125.4" transform="matrix(1 -2.401237e-03 2.401237e-03 1 -0.3024 0.2575)" class="st17" width="1.3" height="1.3"/>
										
											<rect x="105.1" y="138.7" transform="matrix(1 -2.401237e-03 2.401237e-03 1 -0.3358 0.2544)" class="st17" width="1.3" height="2.7"/>
										
											<rect x="103.8" y="142.6" transform="matrix(1 -2.401237e-03 2.401237e-03 1 -0.3518 0.2513)" class="st17" width="1.3" height="8"/>
										
											<rect x="103.8" y="134.7" transform="matrix(1 -2.401237e-03 2.401237e-03 1 -0.3263 0.2512)" class="st17" width="1.3" height="2.7"/>
										
											<rect x="103.8" y="132" transform="matrix(1 -2.401237e-03 2.401237e-03 1 -0.3183 0.2511)" class="st17" width="1.3" height="1.3"/>
										
											<rect x="103.8" y="128.1" transform="matrix(1 -2.401237e-03 2.401237e-03 1 -0.312 0.2511)" class="st17" width="1.3" height="4"/>
										
											<rect x="103.8" y="125.4" transform="matrix(1 -2.401237e-03 2.401237e-03 1 -0.3024 0.2511)" class="st17" width="1.3" height="1.3"/>
										
											<rect x="102.5" y="151.9" transform="matrix(1 -2.401237e-03 2.401237e-03 1 -0.3661 0.2481)" class="st17" width="1.3" height="1.3"/>
										
											<rect x="102.5" y="148" transform="matrix(1 -2.401237e-03 2.401237e-03 1 -0.3582 0.2481)" class="st17" width="1.3" height="2.7"/>
										
											<rect x="102.5" y="142.7" transform="matrix(1 -2.401237e-03 2.401237e-03 1 -0.3438 0.248)" class="st17" width="1.3" height="1.3"/>
										
											<rect x="102.5" y="138.7" transform="matrix(1 -2.401237e-03 2.401237e-03 1 -0.3343 0.248)" class="st17" width="1.3" height="1.3"/>
										
											<rect x="102.4" y="133.4" transform="matrix(1 -2.401237e-03 2.401237e-03 1 -0.3231 0.248)" class="st17" width="1.3" height="2.7"/>
										
											<rect x="102.4" y="125.4" transform="matrix(1 -2.401237e-03 2.401237e-03 1 -0.3024 0.2479)" class="st17" width="1.3" height="1.3"/>
										
											<rect x="101.2" y="148" transform="matrix(1 -2.401237e-03 2.401237e-03 1 -0.3582 0.2449)" class="st17" width="1.3" height="2.7"/>
										
											<rect x="101.1" y="141.3" transform="matrix(1 -2.401237e-03 2.401237e-03 1 -0.3438 0.2449)" class="st17" width="1.3" height="4"/>
										
											<rect x="101.1" y="136" transform="matrix(1 -2.401237e-03 2.401237e-03 1 -0.3295 0.2448)" class="st17" width="1.3" height="2.7"/>
										
											<rect x="101.1" y="132" transform="matrix(1 -2.401237e-03 2.401237e-03 1 -0.3199 0.2448)" class="st17" width="1.3" height="2.7"/>
										
											<rect x="101.1" y="126.7" transform="matrix(1 -2.401237e-03 2.401237e-03 1 -0.3072 0.2447)" class="st17" width="1.3" height="2.7"/>
										
											<rect x="101.1" y="125.4" transform="matrix(1 -2.401237e-03 2.401237e-03 1 -0.3024 0.2447)" class="st17" width="1.3" height="1.3"/>
										
											<rect x="99.8" y="149.3" transform="matrix(1 -2.401237e-03 2.401237e-03 1 -0.363 0.2417)" class="st17" width="1.3" height="4"/>
										
											<rect x="99.8" y="145.3" transform="matrix(1 -2.401237e-03 2.401237e-03 1 -0.3502 0.2417)" class="st17" width="1.3" height="1.3"/>
										
											<rect x="99.8" y="140" transform="matrix(1 -2.401237e-03 2.401237e-03 1 -0.3391 0.2417)" class="st17" width="1.3" height="2.7"/>
										
											<rect x="99.8" y="137.3" transform="matrix(1 -2.401237e-03 2.401237e-03 1 -0.3311 0.2416)" class="st17" width="1.3" height="1.3"/>
										
											<rect x="99.8" y="133.4" transform="matrix(1 -2.401237e-03 2.401237e-03 1 -0.3216 0.2416)" class="st17" width="1.3" height="1.3"/>
										
											<rect x="99.8" y="129.4" transform="matrix(1 -2.401237e-03 2.401237e-03 1 -0.3136 0.2416)" class="st17" width="1.3" height="2.7"/>
										
											<rect x="99.8" y="126.7" transform="matrix(1 -2.401237e-03 2.401237e-03 1 -0.3056 0.2415)" class="st17" width="1.3" height="1.3"/>
										
											<rect x="98.5" y="146.6" transform="matrix(1 -2.401237e-03 2.401237e-03 1 -0.355 0.2385)" class="st17" width="1.3" height="2.7"/>
										
											<rect x="98.5" y="144" transform="matrix(1 -2.401237e-03 2.401237e-03 1 -0.3471 0.2385)" class="st17" width="1.3" height="1.3"/>
										
											<rect x="98.5" y="134.7" transform="matrix(1 -2.401237e-03 2.401237e-03 1 -0.3311 0.2384)" class="st17" width="1.3" height="6.6"/>
										
											<rect x="98.4" y="126.7" transform="matrix(1 -2.401237e-03 2.401237e-03 1 -0.3088 0.2384)" class="st17" width="1.3" height="4"/>
										
											<rect x="98.4" y="125.4" transform="matrix(1 -2.401237e-03 2.401237e-03 1 -0.3024 0.2383)" class="st17" width="1.3" height="1.3"/>
										
											<rect x="97.2" y="140" transform="matrix(1 -2.401237e-03 2.401237e-03 1 -0.3375 0.2353)" class="st17" width="1.3" height="1.3"/>
										
											<rect x="97.1" y="137.4" transform="matrix(1 -2.401237e-03 2.401237e-03 1 -0.3311 0.2353)" class="st17" width="1.3" height="1.3"/>
										
											<rect x="97.1" y="133.4" transform="matrix(1 -2.401237e-03 2.401237e-03 1 -0.3216 0.2352)" class="st17" width="1.3" height="1.3"/>
										
											<rect x="97.1" y="129.4" transform="matrix(1 -2.401237e-03 2.401237e-03 1 -0.3136 0.2352)" class="st17" width="1.3" height="2.7"/>
										
											<rect x="97.1" y="126.7" transform="matrix(1 -2.401237e-03 2.401237e-03 1 -0.3056 0.2352)" class="st17" width="1.3" height="1.3"/>
										
											<rect x="95.8" y="144" transform="matrix(1 -2.401237e-03 2.401237e-03 1 -0.3566 0.2322)" class="st17" width="1.3" height="9.3"/>
										
											<rect x="95.8" y="137.4" transform="matrix(1 -2.401237e-03 2.401237e-03 1 -0.3359 0.2321)" class="st17" width="1.3" height="5.3"/>
										
											<rect x="95.8" y="126.7" transform="matrix(1 -2.401237e-03 2.401237e-03 1 -0.3088 0.232)" class="st17" width="1.3" height="4"/>
										
											<rect x="94.5" y="152" transform="matrix(1 -2.401237e-03 2.401237e-03 1 -0.3662 0.229)" class="st17" width="1.3" height="1.3"/>
										
											<rect x="94.5" y="144" transform="matrix(1 -2.401237e-03 2.401237e-03 1 -0.3471 0.2289)" class="st17" width="1.3" height="1.3"/>
										
											<rect x="94.5" y="141.3" transform="matrix(1 -2.401237e-03 2.401237e-03 1 -0.3407 0.2289)" class="st17" width="1.3" height="1.3"/>
										
											<rect x="94.5" y="138.7" transform="matrix(1 -2.401237e-03 2.401237e-03 1 -0.3343 0.2289)" class="st17" width="1.3" height="1.3"/>
										
											<rect x="94.5" y="134.7" transform="matrix(1 -2.401237e-03 2.401237e-03 1 -0.3264 0.2289)" class="st17" width="1.3" height="2.7"/>
										
											<rect x="94.5" y="132.1" transform="matrix(1 -2.401237e-03 2.401237e-03 1 -0.3184 0.2288)" class="st17" width="1.3" height="1.3"/>
										
											<rect x="94.5" y="128.1" transform="matrix(1 -2.401237e-03 2.401237e-03 1 -0.3104 0.2288)" class="st17" width="1.3" height="2.7"/>
										
											<rect x="94.5" y="125.4" transform="matrix(1 -2.401237e-03 2.401237e-03 1 -0.3025 0.2288)" class="st17" width="1.3" height="1.3"/>
										
											<rect x="93.2" y="152" transform="matrix(1 -2.401237e-03 2.401237e-03 1 -0.3662 0.2258)" class="st17" width="1.3" height="1.3"/>
										
											<rect x="93.2" y="146.7" transform="matrix(1 -2.401237e-03 2.401237e-03 1 -0.3567 0.2258)" class="st17" width="1.3" height="4"/>
										
											<rect x="93.2" y="144" transform="matrix(1 -2.401237e-03 2.401237e-03 1 -0.3471 0.2258)" class="st17" width="1.3" height="1.3"/>
										
											<rect x="93.2" y="141.3" transform="matrix(1 -2.401237e-03 2.401237e-03 1 -0.3407 0.2257)" class="st17" width="1.3" height="1.3"/>
										
											<rect x="93.2" y="132.1" transform="matrix(1 -2.401237e-03 2.401237e-03 1 -0.32 0.2257)" class="st17" width="1.3" height="2.7"/>
										
											<rect x="93.1" y="130.7" transform="matrix(1 -2.401237e-03 2.401237e-03 1 -0.3152 0.2256)" class="st17" width="1.3" height="1.3"/>
										
											<rect x="93.1" y="126.7" transform="matrix(1 -2.401237e-03 2.401237e-03 1 -0.3057 0.2256)" class="st17" width="1.3" height="1.3"/>
										
											<rect x="91.9" y="152" transform="matrix(1 -2.401237e-03 2.401237e-03 1 -0.3662 0.2226)" class="st17" width="1.3" height="1.3"/>
										
											<rect x="91.9" y="146.7" transform="matrix(1 -2.401237e-03 2.401237e-03 1 -0.3567 0.2226)" class="st17" width="1.3" height="4"/>
										
											<rect x="91.9" y="144" transform="matrix(1 -2.401237e-03 2.401237e-03 1 -0.3471 0.2226)" class="st17" width="1.3" height="1.3"/>
										
											<rect x="91.8" y="140" transform="matrix(1 -2.401237e-03 2.401237e-03 1 -0.3391 0.2225)" class="st17" width="1.3" height="2.7"/>
										
											<rect x="91.8" y="137.4" transform="matrix(1 -2.401237e-03 2.401237e-03 1 -0.3312 0.2225)" class="st17" width="1.3" height="1.3"/>
										
											<rect x="91.8" y="134.7" transform="matrix(1 -2.401237e-03 2.401237e-03 1 -0.3248 0.2225)" class="st17" width="1.3" height="1.3"/>
										
											<rect x="91.8" y="132.1" transform="matrix(1 -2.401237e-03 2.401237e-03 1 -0.3184 0.2225)" class="st17" width="1.3" height="1.3"/>
										
											<rect x="91.8" y="126.8" transform="matrix(1 -2.401237e-03 2.401237e-03 1 -0.3073 0.2224)" class="st17" width="1.3" height="2.7"/>
										
											<rect x="91.8" y="125.4" transform="matrix(1 -2.401237e-03 2.401237e-03 1 -0.3025 0.2224)" class="st17" width="1.3" height="1.3"/>
										
											<rect x="90.5" y="152" transform="matrix(1 -2.401237e-03 2.401237e-03 1 -0.3662 0.2195)" class="st17" width="1.3" height="1.3"/>
										
											<rect x="90.5" y="146.7" transform="matrix(1 -2.401237e-03 2.401237e-03 1 -0.3567 0.2194)" class="st17" width="1.3" height="4"/>
										
											<rect x="90.5" y="144" transform="matrix(1 -2.401237e-03 2.401237e-03 1 -0.3471 0.2194)" class="st17" width="1.3" height="1.3"/>
										
											<rect x="90.5" y="140" transform="matrix(1 -2.401237e-03 2.401237e-03 1 -0.3392 0.2194)" class="st17" width="1.3" height="2.7"/>
										
											<rect x="90.5" y="137.4" transform="matrix(1 -2.401237e-03 2.401237e-03 1 -0.3312 0.2193)" class="st17" width="1.3" height="1.3"/>
										
											<rect x="90.5" y="132.1" transform="matrix(1 -2.401237e-03 2.401237e-03 1 -0.3216 0.2193)" class="st17" width="1.3" height="4"/>
										
											<rect x="90.5" y="126.8" transform="matrix(1 -2.401237e-03 2.401237e-03 1 -0.3089 0.2192)" class="st17" width="1.3" height="4"/>
										
											<rect x="89.2" y="152" transform="matrix(1 -2.401237e-03 2.401237e-03 1 -0.3663 0.2163)" class="st17" width="1.3" height="1.3"/>
										
											<rect x="89.2" y="144" transform="matrix(1 -2.401237e-03 2.401237e-03 1 -0.3471 0.2162)" class="st17" width="1.3" height="1.3"/>
										
											<rect x="89.2" y="138.7" transform="matrix(1 -2.401237e-03 2.401237e-03 1 -0.3344 0.2161)" class="st17" width="1.3" height="1.3"/>
										
											<rect x="89.2" y="136" transform="matrix(1 -2.401237e-03 2.401237e-03 1 -0.328 0.2161)" class="st17" width="1.3" height="1.3"/>
										
											<rect x="89.2" y="132.1" transform="matrix(1 -2.401237e-03 2.401237e-03 1 -0.3201 0.2161)" class="st17" width="1.3" height="2.7"/>
										
											<rect x="89.2" y="130.7" transform="matrix(1 -2.401237e-03 2.401237e-03 1 -0.3153 0.2161)" class="st17" width="1.3" height="1.3"/>
										
											<rect x="89.2" y="125.4" transform="matrix(1 -2.401237e-03 2.401237e-03 1 -0.3025 0.216)" class="st17" width="1.3" height="1.3"/>
										
											<rect x="87.9" y="144" transform="matrix(1 -2.401237e-03 2.401237e-03 1 -0.3567 0.213)" class="st17" width="1.3" height="9.3"/>
										
											<rect x="87.9" y="140" transform="matrix(1 -2.401237e-03 2.401237e-03 1 -0.3376 0.213)" class="st17" width="1.3" height="1.3"/>
										
											<rect x="87.8" y="134.7" transform="matrix(1 -2.401237e-03 2.401237e-03 1 -0.3248 0.2129)" class="st17" width="1.3" height="1.3"/>
									</g>
								</g>
							</g>
							<path class="st4" d="M113.5,86.3v1.4c0,1-0.8,1.8-1.8,1.8H91.2c-1,0-1.8-0.8-1.8-1.8v-1.4"/>
							<g>
								<line class="st18" x1="97.2" y1="87.5" x2="105.4" y2="87.5"/>
								<path class="st18" d="M105.4,87.7h-8.2c-0.1,0-0.2-0.1-0.2-0.2c0-0.1,0.1-0.2,0.2-0.2h8.2c0.1,0,0.2,0.1,0.2,0.2
									C105.6,87.6,105.5,87.7,105.4,87.7z"/>
							</g>
							<g>
								<circle class="st19" cx="107.3" cy="87.5" r="0.7"/>
								<path class="st19" d="M107.3,88.2c-0.4,0-0.8-0.3-0.8-0.8s0.3-0.8,0.8-0.8s0.8,0.3,0.8,0.8S107.7,88.2,107.3,88.2z
									 M107.3,86.9c-0.3,0-0.6,0.3-0.6,0.6s0.3,0.6,0.6,0.6s0.6-0.3,0.6-0.6S107.6,86.9,107.3,86.9z"/>
							</g>
						</g>
						<path class="st20" d="M77.2,178.7l0.1-86.9c0-3.7,3-6.7,6.7-6.7h19"/>
					</g>
					<g>
						<path class="st21" d="M70.3,139.4l-1.2-5c-0.4-1.7,0.6-3.4,2.3-3.8l35-8.5c1.7-0.4,3.4,0.6,3.8,2.3l1.2,5
							c0.4,1.7-0.6,3.4-2.3,3.8l-35,8.5C72.4,142.1,70.7,141.1,70.3,139.4z"/>
						<path class="st22" d="M86,161.5L80.5,137c-4.3-7.8-7.1-7.8-14.9-4.7c0,0-14,4.9-17.6,5.7c-2.3,0.5-7.4,0.4-11.9,0.1
							c0.4-0.9,0.9-1.5,1.5-1.8c2.9-1.2,5.5-6.7,8.1-11.2c2.6-4.5-1.2-10.2-3.6-12.4c-2.3-2.2-7.1,9.1-9.4,10
							c-2.3,0.9-28.4,30.7-28.1,32c0.3,1.2-0.9,9-2.4,11.5c-0.5,0.8-1.5,1.9-2.7,2.9V209l12.8,0.2c0,0,11.5-18.7,14.7-18.3
							c2,0.2,8.4-1.8,13-3.5c0.3,0,0.6-0.1,0.9-0.1c0,0,14-4.9,19.6-6c2.3-0.5,5.9-2.1,5.9-2.1c6.4-1.3,14-5.3,15.2-11.4
							C82,165.9,86.4,163.6,86,161.5z"/>
					</g>
					<g>
						<g>
							<g>
								<path class="st23" d="M61.8,108.6l-0.4-0.4c-0.1-0.1-0.1-0.3,0-0.4l4.3-4.3c0.1-0.1,0.3-0.1,0.4,0l0.4,0.4
									c0.1,0.1,0.1,0.3,0,0.4l-4.3,4.3C62.1,108.7,61.9,108.7,61.8,108.6z"/>
								<path class="st23" d="M53.3,117.1l-0.4-0.4c-0.1-0.1-0.1-0.3,0-0.4l6.5-6.5c0.1-0.1,0.3-0.1,0.4,0l0.4,0.4
									c0.1,0.1,0.1,0.3,0,0.4l-6.5,6.5C53.6,117.2,53.4,117.2,53.3,117.1z"/>
								<path class="st23" d="M45.1,125.3l-0.4-0.4c-0.1-0.1-0.1-0.3,0-0.4l6.5-6.5c0.1-0.1,0.3-0.1,0.4,0l0.4,0.4
									c0.1,0.1,0.1,0.3,0,0.4l-6.5,6.5C45.4,125.4,45.2,125.4,45.1,125.3z"/>
								<g>
									<path class="st10" d="M83,159.7l-0.4-0.4c-0.1-0.1-0.1-0.3,0-0.4l11.3-11.3c0.1-0.1,0.3-0.1,0.4,0l0.4,0.4
										c0.1,0.1,0.1,0.3,0,0.4l-11.3,11.3C83.3,159.9,83.1,159.9,83,159.7z"/>
									<g>
										<path class="st24" d="M111.7,120.8L85.5,94.6c-2.7-2.7-7-2.7-9.7,0l-64.4,64.4c-2.7,2.7-2.7,7,0,9.7l26.2,26.2
											c2.7,2.7,7,2.7,9.7,0l64.4-64.4C114.4,127.8,114.4,123.4,111.7,120.8z"/>
										<path class="st25" d="M111.7,120.8L85.5,94.6c-2.7-2.7-7-2.7-9.7,0l-64.4,64.4c-2.7,2.7-2.7,7,0,9.7l26.2,26.2
											c2.7,2.7,7,2.7,9.7,0l64.4-64.4C114.4,127.8,114.4,123.4,111.7,120.8z"/>
									</g>
								</g>
								<g>
									<path class="st13" d="M84.4,95.4c-2.2-2.2-5.7-2.2-7.9,0l-63.9,63.9c-2.2,2.2-2.2,5.7,0,7.9l26.3,26.3
										c2.2,2.2,5.7,2.2,7.9,0l63.9-63.9c2.2-2.2,2.2-5.7,0-7.9L84.4,95.4z"/>
								</g>
								<g>
									<g>
										<g>
											<defs>
												<path id="XMLID_109_" d="M39.4,194.5l-27.2-27.1c-2-2-2-5.2,0-7.2l64.6-64.9c2-2,5.2-2,7.2,0l27.2,27.1c2,2,2,5.2,0,7.2
													l-64.6,64.9C44.6,196.5,41.4,196.5,39.4,194.5z"/>
											</defs>
											<use xlink:href="#XMLID_109_"  style="overflow:visible;fill:#F9FAFB;"/>
											<clipPath id="XMLID_3_">
												<use xlink:href="#XMLID_109_"  style="overflow:visible;"/>
											</clipPath>
										</g>
										<path class="st13" d="M38.9,194.2l-26.4-26.3c-2.2-2.2-2.2-5.9,0-8.1l63.8-64.1c2.2-2.2,5.9-2.2,8.1,0l26.4,26.3
											c2.2,2.2,2.2,5.9,0,8.1l-63.8,64.1C44.8,196.4,41.2,196.4,38.9,194.2z M84.3,95.8c-2.2-2.2-5.7-2.2-7.9,0l-63.8,64.1
											c-2.2,2.2-2.2,5.7,0,7.9L39.1,194c2.2,2.2,5.7,2.2,7.9,0l63.8-64.1c2.2-2.2,2.2-5.7,0-7.9L84.3,95.8z"/>
									</g>
									
										<rect x="37.5" y="118.2" transform="matrix(0.7088 0.7054 -0.7054 0.7088 120.1835 -1.2306)" class="st15" width="48.1" height="53.6"/>
									<path class="st0" d="M99.2,120.1L78,99c-0.1-0.1-0.1-0.3,0-0.4l0.2-0.2c0.1-0.1,0.3-0.1,0.4,0l21.2,21.1
										c0.1,0.1,0.1,0.3,0,0.4l-0.2,0.2C99.5,120.2,99.3,120.2,99.2,120.1z"/>
									<path class="st0" d="M97.5,121.8l-21.2-21.1c-0.1-0.1-0.1-0.3,0-0.4l0.2-0.2c0.1-0.1,0.3-0.1,0.4,0l21.2,21.1
										c0.1,0.1,0.1,0.3,0,0.4l-0.2,0.2C97.8,121.9,97.6,121.9,97.5,121.8z"/>
									<path class="st16" d="M99,120L77.8,98.9c-0.1-0.1-0.1-0.3,0-0.4l0.2-0.2c0.1-0.1,0.3-0.1,0.4,0l21.2,21.1
										c0.1,0.1,0.1,0.3,0,0.4l-0.2,0.2C99.3,120.1,99.1,120.1,99,120z"/>
									<path class="st16" d="M97.4,121.7l-21.2-21.1c-0.1-0.1-0.1-0.3,0-0.4l0.2-0.2c0.1-0.1,0.3-0.1,0.4,0l21.2,21.1
										c0.1,0.1,0.1,0.3,0,0.4l-0.2,0.2C97.6,121.8,97.5,121.8,97.4,121.7z"/>
									<g>
										
											<rect x="61.4" y="158.4" transform="matrix(0.7054 -0.7088 0.7088 0.7054 -93.3621 93.4858)" class="st17" width="8.8" height="1.3"/>
										
											<rect x="69.4" y="153.6" transform="matrix(0.7054 -0.7088 0.7088 0.7054 -88.4742 95.4898)" class="st17" width="2.5" height="1.3"/>
										
											<rect x="73.1" y="150.5" transform="matrix(0.7054 -0.7088 0.7088 0.7054 -85.3638 96.7651)" class="st17" width="1.3" height="1.3"/>
										
											<rect x="74.7" y="148.2" transform="matrix(0.7054 -0.7088 0.7088 0.7054 -83.1422 97.676)" class="st17" width="2.5" height="1.3"/>
										
											<rect x="76.1" y="145.6" transform="matrix(0.7054 -0.7088 0.7088 0.7054 -80.4762 98.769)" class="st17" width="5" height="1.3"/>
										
											<rect x="80.2" y="143.4" transform="matrix(0.7054 -0.7088 0.7088 0.7054 -78.2544 99.6799)" class="st17" width="1.3" height="1.3"/>
										
											<rect x="61.6" y="160.2" transform="matrix(0.7054 -0.7088 0.7088 0.7054 -95.6637 91.504)" class="st17" width="1.3" height="1.3"/>
										
											<rect x="66.9" y="154.9" transform="matrix(0.7054 -0.7088 0.7088 0.7054 -90.3316 93.6901)" class="st17" width="1.3" height="1.3"/>
										
											<rect x="70.5" y="151.3" transform="matrix(0.7054 -0.7088 0.7088 0.7054 -86.7767 95.1476)" class="st17" width="1.3" height="1.3"/>
										
											<rect x="74" y="147.8" transform="matrix(0.7054 -0.7088 0.7088 0.7054 -83.222 96.605)" class="st17" width="1.3" height="1.3"/>
										
											<rect x="79.3" y="142.5" transform="matrix(0.7054 -0.7088 0.7088 0.7054 -77.89 98.7912)" class="st17" width="1.3" height="1.3"/>
										
											<rect x="60.7" y="159.3" transform="matrix(0.7054 -0.7088 0.7088 0.7054 -95.2994 90.6154)" class="st17" width="1.3" height="1.3"/>
										
											<rect x="62.1" y="156.7" transform="matrix(0.7054 -0.7088 0.7088 0.7054 -92.6333 91.7085)" class="st17" width="3.8" height="1.3"/>
										
											<rect x="66" y="154" transform="matrix(0.7054 -0.7088 0.7088 0.7054 -89.9673 92.8015)" class="st17" width="1.3" height="1.3"/>
										
											<rect x="67.8" y="152.2" transform="matrix(0.7054 -0.7088 0.7088 0.7054 -88.1898 93.5303)" class="st17" width="1.3" height="1.3"/>
										
											<rect x="69.6" y="150.5" transform="matrix(0.7054 -0.7088 0.7088 0.7054 -86.4124 94.259)" class="st17" width="1.3" height="1.3"/>
										
											<rect x="71.3" y="148.7" transform="matrix(0.7054 -0.7088 0.7088 0.7054 -84.6351 94.9877)" class="st17" width="1.3" height="1.3"/>
										
											<rect x="73.1" y="146.9" transform="matrix(0.7054 -0.7088 0.7088 0.7054 -82.8577 95.7165)" class="st17" width="1.3" height="1.3"/>
										
											<rect x="74.5" y="144.3" transform="matrix(0.7054 -0.7088 0.7088 0.7054 -80.1917 96.8095)" class="st17" width="3.8" height="1.3"/>
										
											<rect x="78.4" y="141.6" transform="matrix(0.7054 -0.7088 0.7088 0.7054 -77.5257 97.9026)" class="st17" width="1.3" height="1.3"/>
										
											<rect x="59.8" y="158.4" transform="matrix(0.7054 -0.7088 0.7088 0.7054 -94.935 89.7266)" class="st17" width="1.3" height="1.3"/>
										
											<rect x="61.2" y="155.8" transform="matrix(0.7054 -0.7088 0.7088 0.7054 -92.2689 90.8197)" class="st17" width="3.8" height="1.3"/>
										
											<rect x="65.1" y="153.1" transform="matrix(0.7054 -0.7088 0.7088 0.7054 -89.6029 91.9127)" class="st17" width="1.3" height="1.3"/>
										
											<rect x="66.7" y="150.9" transform="matrix(0.7054 -0.7088 0.7088 0.7054 -87.3811 92.8237)" class="st17" width="2.5" height="1.3"/>
										
											<rect x="69.4" y="148.2" transform="matrix(0.7054 -0.7088 0.7088 0.7054 -84.7152 93.9167)" class="st17" width="2.5" height="1.3"/>
										
											<rect x="72.2" y="146" transform="matrix(0.7054 -0.7088 0.7088 0.7054 -82.4933 94.8277)" class="st17" width="1.3" height="1.3"/>
										
											<rect x="73.6" y="143.4" transform="matrix(0.7054 -0.7088 0.7088 0.7054 -79.8273 95.9207)" class="st17" width="3.8" height="1.3"/>
										
											<rect x="77.5" y="140.7" transform="matrix(0.7054 -0.7088 0.7088 0.7054 -77.1613 97.0138)" class="st17" width="1.3" height="1.3"/>
										
											<rect x="59" y="157.6" transform="matrix(0.7054 -0.7088 0.7088 0.7054 -94.5706 88.8381)" class="st17" width="1.3" height="1.3"/>
										
											<rect x="60.4" y="154.9" transform="matrix(0.7054 -0.7088 0.7088 0.7054 -91.9046 89.9311)" class="st17" width="3.8" height="1.3"/>
										
											<rect x="64.3" y="152.2" transform="matrix(0.7054 -0.7088 0.7088 0.7054 -89.2386 91.0242)" class="st17" width="1.3" height="1.3"/>
										
											<rect x="66" y="150.5" transform="matrix(0.7054 -0.7088 0.7088 0.7054 -87.4611 91.753)" class="st17" width="1.3" height="1.3"/>
										
											<rect x="68.7" y="147.8" transform="matrix(0.7054 -0.7088 0.7088 0.7054 -84.7952 92.846)" class="st17" width="1.3" height="1.3"/>
										
											<rect x="71.3" y="145.1" transform="matrix(0.7054 -0.7088 0.7088 0.7054 -82.129 93.9391)" class="st17" width="1.3" height="1.3"/>
										
											<rect x="72.7" y="142.5" transform="matrix(0.7054 -0.7088 0.7088 0.7054 -79.463 95.0322)" class="st17" width="3.8" height="1.3"/>
										
											<rect x="76.6" y="139.8" transform="matrix(0.7054 -0.7088 0.7088 0.7054 -76.797 96.1252)" class="st17" width="1.3" height="1.3"/>
										
											<rect x="58.1" y="156.7" transform="matrix(0.7054 -0.7088 0.7088 0.7054 -94.2062 87.9493)" class="st17" width="1.3" height="1.3"/>
										
											<rect x="63.4" y="151.4" transform="matrix(0.7054 -0.7088 0.7088 0.7054 -88.8742 90.1354)" class="st17" width="1.3" height="1.3"/>
										
											<rect x="65.1" y="149.6" transform="matrix(0.7054 -0.7088 0.7088 0.7054 -87.0967 90.8642)" class="st17" width="1.3" height="1.3"/>
										
											<rect x="66.9" y="147.8" transform="matrix(0.7054 -0.7088 0.7088 0.7054 -85.3193 91.5929)" class="st17" width="1.3" height="1.3"/>
										
											<rect x="70.4" y="144.3" transform="matrix(0.7054 -0.7088 0.7088 0.7054 -81.7646 93.0503)" class="st17" width="1.3" height="1.3"/>
										
											<rect x="75.7" y="138.9" transform="matrix(0.7054 -0.7088 0.7088 0.7054 -76.4326 95.2365)" class="st17" width="1.3" height="1.3"/>
										
											<rect x="56.1" y="153.1" transform="matrix(0.7054 -0.7088 0.7088 0.7054 -91.1759 88.1538)" class="st17" width="8.8" height="1.3"/>
										
											<rect x="64.3" y="148.7" transform="matrix(0.7054 -0.7088 0.7088 0.7054 -86.7323 89.9756)" class="st17" width="1.3" height="1.3"/>
										
											<rect x="66" y="146.9" transform="matrix(0.7054 -0.7088 0.7088 0.7054 -84.955 90.7043)" class="st17" width="1.3" height="1.3"/>
										
											<rect x="67.8" y="145.2" transform="matrix(0.7054 -0.7088 0.7088 0.7054 -83.1777 91.4331)" class="st17" width="1.3" height="1.3"/>
										
											<rect x="69.4" y="142.9" transform="matrix(0.7054 -0.7088 0.7088 0.7054 -80.956 92.3439)" class="st17" width="2.5" height="1.3"/>
										
											<rect x="70.8" y="140.3" transform="matrix(0.7054 -0.7088 0.7088 0.7054 -78.29 93.437)" class="st17" width="5" height="1.3"/>
										
											<rect x="74.8" y="138.1" transform="matrix(0.7054 -0.7088 0.7088 0.7054 -76.0683 94.3479)" class="st17" width="1.3" height="1.3"/>
										
											<rect x="64.1" y="146.5" transform="matrix(0.7054 -0.7088 0.7088 0.7054 -85.0351 89.6333)" class="st17" width="2.5" height="1.3"/>
										
											<rect x="56.3" y="150" transform="matrix(0.7054 -0.7088 0.7088 0.7054 -89.1143 86.9229)" class="st17" width="7.5" height="1.3"/>
										
											<rect x="65.8" y="142.9" transform="matrix(0.7054 -0.7088 0.7088 0.7054 -82.0047 89.8379)" class="st17" width="2.5" height="1.3"/>
										
											<rect x="68.7" y="140.7" transform="matrix(0.7054 -0.7088 0.7088 0.7054 -79.783 90.7487)" class="st17" width="1.3" height="1.3"/>
										
											<rect x="69.2" y="139" transform="matrix(0.7054 -0.7088 0.7088 0.7054 -78.0056 91.4775)" class="st17" width="3.8" height="1.3"/>
										
											<rect x="73.1" y="136.3" transform="matrix(0.7054 -0.7088 0.7088 0.7054 -75.3396 92.5706)" class="st17" width="1.3" height="1.3"/>
										
											<rect x="54.5" y="153.2" transform="matrix(0.7054 -0.7088 0.7088 0.7054 -92.7488 84.3946)" class="st17" width="1.3" height="1.3"/>
										
											<rect x="56.1" y="150.9" transform="matrix(0.7054 -0.7088 0.7088 0.7054 -90.5272 85.3055)" class="st17" width="2.5" height="1.3"/>
										
											<rect x="60.7" y="146.9" transform="matrix(0.7054 -0.7088 0.7088 0.7054 -86.528 86.9451)" class="st17" width="1.3" height="1.3"/>
										
											<rect x="63.4" y="144.3" transform="matrix(0.7054 -0.7088 0.7088 0.7054 -83.8619 88.0382)" class="st17" width="1.3" height="1.3"/>
										
											<rect x="65.8" y="141.2" transform="matrix(0.7054 -0.7088 0.7088 0.7054 -80.7517 89.3134)" class="st17" width="2.5" height="1.3"/>
										
											<rect x="72.2" y="135.4" transform="matrix(0.7054 -0.7088 0.7088 0.7054 -74.9752 91.6818)" class="st17" width="1.3" height="1.3"/>
										
											<rect x="55.2" y="150.1" transform="matrix(0.7054 -0.7088 0.7088 0.7054 -90.1628 84.4167)" class="st17" width="2.5" height="1.3"/>
										
											<rect x="58.6" y="146.1" transform="matrix(0.7054 -0.7088 0.7088 0.7054 -86.1637 86.0563)" class="st17" width="3.8" height="1.3"/>
										
											<rect x="63.2" y="142.1" transform="matrix(0.7054 -0.7088 0.7088 0.7054 -82.1646 87.6959)" class="st17" width="2.5" height="1.3"/>
										
											<rect x="65.8" y="139.4" transform="matrix(0.7054 -0.7088 0.7088 0.7054 -79.4985 88.789)" class="st17" width="2.5" height="1.3"/>
										
											<rect x="69.3" y="135.9" transform="matrix(0.7054 -0.7088 0.7088 0.7054 -75.9438 90.2464)" class="st17" width="2.5" height="1.3"/>
										
											<rect x="71.3" y="134.5" transform="matrix(0.7054 -0.7088 0.7088 0.7054 -74.6108 90.793)" class="st17" width="1.3" height="1.3"/>
										
											<rect x="52.4" y="150.5" transform="matrix(0.7054 -0.7088 0.7088 0.7054 -91.1314 82.9816)" class="st17" width="3.8" height="1.3"/>
										
											<rect x="57.2" y="147" transform="matrix(0.7054 -0.7088 0.7088 0.7054 -87.5766 84.4391)" class="st17" width="1.3" height="1.3"/>
										
											<rect x="59.6" y="143.8" transform="matrix(0.7054 -0.7088 0.7088 0.7054 -84.4662 85.7143)" class="st17" width="2.5" height="1.3"/>
										
											<rect x="62.5" y="141.6" transform="matrix(0.7054 -0.7088 0.7088 0.7054 -82.2446 86.6252)" class="st17" width="1.3" height="1.3"/>
										
											<rect x="65.1" y="139" transform="matrix(0.7054 -0.7088 0.7088 0.7054 -79.5785 87.7183)" class="st17" width="1.3" height="1.3"/>
										
											<rect x="66.7" y="136.8" transform="matrix(0.7054 -0.7088 0.7088 0.7054 -77.3569 88.6292)" class="st17" width="2.5" height="1.3"/>
										
											<rect x="69.5" y="134.5" transform="matrix(0.7054 -0.7088 0.7088 0.7054 -75.135 89.5401)" class="st17" width="1.3" height="1.3"/>
										
											<rect x="54.3" y="147.4" transform="matrix(0.7054 -0.7088 0.7088 0.7054 -88.5453 83.0037)" class="st17" width="2.5" height="1.3"/>
										
											<rect x="57.2" y="145.2" transform="matrix(0.7054 -0.7088 0.7088 0.7054 -86.3237 83.9146)" class="st17" width="1.3" height="1.3"/>
										
											<rect x="59.1" y="140.7" transform="matrix(0.7054 -0.7088 0.7088 0.7054 -81.8802 85.7364)" class="st17" width="6.3" height="1.3"/>
										
											<rect x="66.5" y="134.5" transform="matrix(0.7054 -0.7088 0.7088 0.7054 -75.6593 88.287)" class="st17" width="3.8" height="1.3"/>
										
											<rect x="69.5" y="132.8" transform="matrix(0.7054 -0.7088 0.7088 0.7054 -73.8821 89.0157)" class="st17" width="1.3" height="1.3"/>
										
											<rect x="58.9" y="141.6" transform="matrix(0.7054 -0.7088 0.7088 0.7054 -83.2933 84.1191)" class="st17" width="1.3" height="1.3"/>
										
											<rect x="60.7" y="139.9" transform="matrix(0.7054 -0.7088 0.7088 0.7054 -81.5159 84.8478)" class="st17" width="1.3" height="1.3"/>
										
											<rect x="63.3" y="137.2" transform="matrix(0.7054 -0.7088 0.7088 0.7054 -78.8498 85.941)" class="st17" width="1.3" height="1.3"/>
										
											<rect x="64.9" y="135" transform="matrix(0.7054 -0.7088 0.7088 0.7054 -76.6282 86.8518)" class="st17" width="2.5" height="1.3"/>
										
											<rect x="67.8" y="132.8" transform="matrix(0.7054 -0.7088 0.7088 0.7054 -74.4063 87.7628)" class="st17" width="1.3" height="1.3"/>
										
											<rect x="49" y="146.1" transform="matrix(0.7054 -0.7088 0.7088 0.7054 -88.261 81.0442)" class="st17" width="8.8" height="1.3"/>
										
											<rect x="56.6" y="140.3" transform="matrix(0.7054 -0.7088 0.7088 0.7054 -82.4845 83.4126)" class="st17" width="5" height="1.3"/>
										
											<rect x="64.7" y="132.8" transform="matrix(0.7054 -0.7088 0.7088 0.7054 -74.9306 86.5096)" class="st17" width="3.8" height="1.3"/>
										
											<rect x="49.2" y="147.9" transform="matrix(0.7054 -0.7088 0.7088 0.7054 -90.5627 79.0626)" class="st17" width="1.3" height="1.3"/>
										
											<rect x="54.5" y="142.5" transform="matrix(0.7054 -0.7088 0.7088 0.7054 -85.2307 81.2487)" class="st17" width="1.3" height="1.3"/>
										
											<rect x="56.3" y="140.8" transform="matrix(0.7054 -0.7088 0.7088 0.7054 -83.4531 81.9775)" class="st17" width="1.3" height="1.3"/>
										
											<rect x="58" y="139" transform="matrix(0.7054 -0.7088 0.7088 0.7054 -81.6758 82.7062)" class="st17" width="1.3" height="1.3"/>
										
											<rect x="59.6" y="136.8" transform="matrix(0.7054 -0.7088 0.7088 0.7054 -79.4541 83.6171)" class="st17" width="2.5" height="1.3"/>
										
											<rect x="62.4" y="134.6" transform="matrix(0.7054 -0.7088 0.7088 0.7054 -77.2325 84.5279)" class="st17" width="1.3" height="1.3"/>
										
											<rect x="64" y="132.3" transform="matrix(0.7054 -0.7088 0.7088 0.7054 -75.0107 85.4389)" class="st17" width="2.5" height="1.3"/>
										
											<rect x="66.9" y="130.1" transform="matrix(0.7054 -0.7088 0.7088 0.7054 -72.789 86.3497)" class="st17" width="1.3" height="1.3"/>
										
											<rect x="48.3" y="147" transform="matrix(0.7054 -0.7088 0.7088 0.7054 -90.1983 78.1738)" class="st17" width="1.3" height="1.3"/>
										
											<rect x="49.7" y="144.3" transform="matrix(0.7054 -0.7088 0.7088 0.7054 -87.5323 79.2668)" class="st17" width="3.8" height="1.3"/>
										
											<rect x="53.6" y="141.6" transform="matrix(0.7054 -0.7088 0.7088 0.7054 -84.8663 80.3599)" class="st17" width="1.3" height="1.3"/>
										
											<rect x="55.4" y="139.9" transform="matrix(0.7054 -0.7088 0.7088 0.7054 -83.0887 81.0887)" class="st17" width="1.3" height="1.3"/>
										
											<rect x="60.5" y="134.1" transform="matrix(0.7054 -0.7088 0.7088 0.7054 -77.3124 83.457)" class="st17" width="2.5" height="1.3"/>
										
											<rect x="62.4" y="132.8" transform="matrix(0.7054 -0.7088 0.7088 0.7054 -75.9793 84.0035)" class="st17" width="1.3" height="1.3"/>
										
											<rect x="65.1" y="130.1" transform="matrix(0.7054 -0.7088 0.7088 0.7054 -73.3132 85.0967)" class="st17" width="1.3" height="1.3"/>
										
											<rect x="47.4" y="146.1" transform="matrix(0.7054 -0.7088 0.7088 0.7054 -89.834 77.2852)" class="st17" width="1.3" height="1.3"/>
										
											<rect x="48.8" y="143.4" transform="matrix(0.7054 -0.7088 0.7088 0.7054 -87.168 78.3783)" class="st17" width="3.8" height="1.3"/>
										
											<rect x="52.7" y="140.8" transform="matrix(0.7054 -0.7088 0.7088 0.7054 -84.502 79.4713)" class="st17" width="1.3" height="1.3"/>
										
											<rect x="54.3" y="138.6" transform="matrix(0.7054 -0.7088 0.7088 0.7054 -82.2801 80.3823)" class="st17" width="2.5" height="1.3"/>
										
											<rect x="57.1" y="136.3" transform="matrix(0.7054 -0.7088 0.7088 0.7054 -80.0585 81.2932)" class="st17" width="1.3" height="1.3"/>
										
											<rect x="58.9" y="134.6" transform="matrix(0.7054 -0.7088 0.7088 0.7054 -78.2811 82.0219)" class="st17" width="1.3" height="1.3"/>
										
											<rect x="60.7" y="132.8" transform="matrix(0.7054 -0.7088 0.7088 0.7054 -76.5038 82.7506)" class="st17" width="1.3" height="1.3"/>
										
											<rect x="63.1" y="129.7" transform="matrix(0.7054 -0.7088 0.7088 0.7054 -73.3934 84.0258)" class="st17" width="2.5" height="1.3"/>
										
											<rect x="65.1" y="128.4" transform="matrix(0.7054 -0.7088 0.7088 0.7054 -72.0603 84.5724)" class="st17" width="1.3" height="1.3"/>
										
											<rect x="46.5" y="145.2" transform="matrix(0.7054 -0.7088 0.7088 0.7054 -89.4696 76.3964)" class="st17" width="1.3" height="1.3"/>
										
											<rect x="47.9" y="142.5" transform="matrix(0.7054 -0.7088 0.7088 0.7054 -86.8036 77.4895)" class="st17" width="3.8" height="1.3"/>
										
											<rect x="51.8" y="139.9" transform="matrix(0.7054 -0.7088 0.7088 0.7054 -84.1376 78.5826)" class="st17" width="1.3" height="1.3"/>
										
											<rect x="53.4" y="137.7" transform="matrix(0.7054 -0.7088 0.7088 0.7054 -81.9157 79.4935)" class="st17" width="2.5" height="1.3"/>
										
											<rect x="56.3" y="135.5" transform="matrix(0.7054 -0.7088 0.7088 0.7054 -79.6941 80.4044)" class="st17" width="1.3" height="1.3"/>
										
											<rect x="57.7" y="132.8" transform="matrix(0.7054 -0.7088 0.7088 0.7054 -77.0281 81.4974)" class="st17" width="3.8" height="1.3"/>
										
											<rect x="61.2" y="129.2" transform="matrix(0.7054 -0.7088 0.7088 0.7054 -73.4732 82.955)" class="st17" width="3.8" height="1.3"/>
										
											<rect x="45.7" y="144.3" transform="matrix(0.7054 -0.7088 0.7088 0.7054 -89.1052 75.5076)" class="st17" width="1.3" height="1.3"/>
										
											<rect x="51" y="139" transform="matrix(0.7054 -0.7088 0.7088 0.7054 -83.7732 77.6938)" class="st17" width="1.3" height="1.3"/>
										
											<rect x="54.5" y="135.5" transform="matrix(0.7054 -0.7088 0.7088 0.7054 -80.2182 79.1513)" class="st17" width="1.3" height="1.3"/>
										
											<rect x="56.3" y="133.7" transform="matrix(0.7054 -0.7088 0.7088 0.7054 -78.4409 79.88)" class="st17" width="1.3" height="1.3"/>
										
											<rect x="57.8" y="131.5" transform="matrix(0.7054 -0.7088 0.7088 0.7054 -76.2193 80.7909)" class="st17" width="2.5" height="1.3"/>
										
											<rect x="59.8" y="130.1" transform="matrix(0.7054 -0.7088 0.7088 0.7054 -74.8862 81.3374)" class="st17" width="1.3" height="1.3"/>
										
											<rect x="63.3" y="126.6" transform="matrix(0.7054 -0.7088 0.7088 0.7054 -71.3315 82.7948)" class="st17" width="1.3" height="1.3"/>
										
											<rect x="43.7" y="140.8" transform="matrix(0.7054 -0.7088 0.7088 0.7054 -86.0749 75.7122)" class="st17" width="8.8" height="1.3"/>
										
											<rect x="52.7" y="135.5" transform="matrix(0.7054 -0.7088 0.7088 0.7054 -80.7427 77.8983)" class="st17" width="1.3" height="1.3"/>
										
											<rect x="56.2" y="131.9" transform="matrix(0.7054 -0.7088 0.7088 0.7054 -77.188 79.3558)" class="st17" width="1.3" height="1.3"/>
									</g>
									<line class="st26" x1="53.5" y1="132.6" x2="74.9" y2="153.9"/>
									<path class="st27" d="M64.3,109.1l-38.9,39.1l33.2,33l38.9-39.1L64.3,109.1z M61.5,169.9l-24.8-24.7l24.7-24.8l24.8,24.7
										L61.5,169.9z"/>
									<circle class="st28" cx="35" cy="172.1" r="5.8"/>
									
										<rect x="44.2" y="128.1" transform="matrix(0.7071 0.7071 -0.7071 0.7071 120.8137 -0.9222)" class="st29" width="34.7" height="34.5"/>
								</g>
							</g>
							<path class="st25" d="M106.8,117.3l-1,1c-0.7,0.7-1.9,0.7-2.6,0L87.8,103c-0.7-0.7-0.7-1.9,0-2.6l1-1"/>
							<g>
								<line class="st18" x1="93.8" y1="106" x2="99.9" y2="112.1"/>
								<path class="st23" d="M99.8,112.3l-6.1-6.1c-0.1-0.1-0.1-0.2,0-0.3c0.1-0.1,0.2-0.1,0.3,0l6.1,6.1c0.1,0.1,0.1,0.2,0,0.3
									S99.9,112.4,99.8,112.3z"/>
							</g>
							<g>
								<circle class="st30" cx="101.3" cy="113.5" r="0.7"/>
								<path class="st31" d="M100.7,114.1c-0.3-0.3-0.3-0.8,0-1.1s0.8-0.3,1.1,0s0.3,0.8,0,1.1
									C101.6,114.4,101.1,114.4,100.7,114.1z M101.7,113.1c-0.2-0.2-0.6-0.2-0.9,0c-0.2,0.2-0.2,0.6,0,0.9c0.2,0.2,0.6,0.2,0.9,0
									C102,113.7,102,113.3,101.7,113.1z"/>
							</g>
						</g>
						<path class="st20" d="M10.8,159.2l64.9-64.7c2.8-2.8,7.3-2.8,10.1,0l14.2,14.2"/>
					</g>
					<path class="st32" d="M80.8,157.5l1.6-3.1c0.8-1.5,2.7-2.2,4.2-1.4l2.6,1.3c1.5,0.8,2.2,2.7,1.4,4.2l-1.6,3.1
						c-0.8,1.5-2.7,2.2-4.2,1.4l-2.6-1.3C80.6,161,80,159.1,80.8,157.5z"/>
					<path class="st32" d="M89.1,148.2l1.6-3.1c0.8-1.5,2.7-2.1,4.2-1.4l2.3,1.2c1.5,0.8,2.1,2.7,1.4,4.2l-1.6,3.1
						c-0.8,1.5-2.7,2.1-4.2,1.4l-2.3-1.2C88.9,151.6,88.3,149.7,89.1,148.2z"/>
					<path class="st32" d="M72.4,169.2l0.8-3.4c0.4-1.7,2.1-2.7,3.8-2.3l2.6,0.6c1.7,0.4,2.7,2.1,2.3,3.8l-0.8,3.4
						c-0.4,1.7-2.1,2.7-3.8,2.3l-2.6-0.6C73,172.6,72,170.9,72.4,169.2z"/>
					<path class="st9" d="M126.1,167.7"/>
				</g>
				<path class="st33" d="M121.2,116"/>
				<path class="st33" d="M121.2,115.6"/>
				<g>
					<g>
						<circle class="st25" cx="235.2" cy="133.1" r="18.2"/>
						<g>
							<g class="st34">
								<path class="st35" d="M246.6,145h-21.1c-0.9,0-1.7-0.8-1.7-1.7v-16.6c0-0.9,0.8-1.7,1.7-1.7h21.1c0.9,0,1.7,0.8,1.7,1.7
									v16.6C248.3,144.3,247.6,145,246.6,145z"/>
								<circle class="st35" cx="236.3" cy="135.4" r="5.1"/>
								<rect x="240.7" y="123" class="st35" width="4.8" height="2.1"/>
							</g>
							<g>
								<g>
									<path class="st0" d="M245.8,144.2h-21.1c-0.9,0-1.7-0.8-1.7-1.7v-16.6c0-0.9,0.8-1.7,1.7-1.7h21.1c0.9,0,1.7,0.8,1.7,1.7
										v16.6C247.5,143.4,246.7,144.2,245.8,144.2z"/>
									<circle class="st25" cx="235.4" cy="134.6" r="5.1"/>
									<rect x="239.9" y="122.1" class="st0" width="4.8" height="2.1"/>
								</g>
							</g>
						</g>
					</g>
					<rect x="199.5" y="154.8" class="st36" width="70.6" height="19.7"/>
					<text transform="matrix(1 0 0 1 205.9072 161.1426)"><tspan x="0" y="0" class="st0 st37 st38">optical wireless </tspan><tspan x="3.1" y="10.3" class="st0 st37 st38">comunication</tspan></text>
				</g>
				<g>
					<g>
						<g>
							<circle class="st39" cx="198.5" cy="80.7" r="14.4"/>
							<g>
								<g class="st34">
									<path class="st40" d="M197.7,93.4L197.7,83l-3.5,3.3l-0.7-0.8l4.2-4l0-0.5l-4.2-4.2l0.7-0.7l3.5,3.5l-0.1-10.3l6.8,7.3
										l-5,4.7l4.7,4.7L197.7,93.4z M198.7,82.1l0,8.5l4-4.6L198.7,82.1z M198.7,72l0,8.6l4.2-4L198.7,72z"/>
								</g>
								<g>
									<g>
										<g>
											<path class="st0" d="M196.9,92.6l-0.1-10.4l-3.5,3.3l-0.7-0.8l4.2-4l0-0.5l-4.2-4.2l0.7-0.7l3.5,3.5l-0.1-10.3l6.8,7.3
												l-5,4.7l4.7,4.7L196.9,92.6z M197.9,81.3l0,8.5l4-4.6L197.9,81.3z M197.8,71.2l0,8.6l4.2-4L197.8,71.2z"/>
										</g>
									</g>
								</g>
							</g>
						</g>
					</g>
					<g>
						<g>
							<circle class="st39" cx="241.1" cy="80.7" r="14.4"/>
							<g>
								<g class="st34">
									<polygon class="st40" points="236.4,89.8 235.3,89.8 235.3,71.8 244.3,80.9 243.6,81.6 236.4,74.4 									"/>
									<polygon class="st40" points="248.1,91.5 239.1,82.5 239.8,81.7 247,88.9 247,73.5 248.1,73.5 									"/>
								</g>
								<g>
									<g>
										<g>
											<polygon class="st0" points="235.5,89 234.4,89 234.4,71 243.5,80 242.7,80.8 235.5,73.6 											"/>
										</g>
										<g>
											<polygon class="st0" points="247.3,90.7 238.2,81.6 239,80.9 246.2,88.1 246.2,72.7 247.3,72.7 											"/>
										</g>
									</g>
								</g>
							</g>
						</g>
					</g>
					<g>
						<g>
							<circle class="st39" cx="283.7" cy="80.7" r="14.4"/>
							<g>
								<g class="st34">
									<path class="st40" d="M274.2,80.8c1.1-1.6,2.7-2.9,4.5-3.7c1.8-0.9,3.8-1.3,5.8-1.3c2,0,4,0.5,5.8,1.3
										c1.8,0.8,3.4,2,4.7,3.5c-3.1-2.2-6.7-3.5-10.4-3.6C280.8,77,277.1,78.3,274.2,80.8z"/>
									<path class="st40" d="M276,84.1c0.9-1.3,2.2-2.4,3.7-3.1c1.5-0.7,3.2-1.1,4.8-1c3.3,0,6.6,1.5,8.7,4
										c-2.6-1.8-5.6-2.9-8.7-3C281.4,80.9,278.4,82,276,84.1z"/>
									<path class="st40" d="M278.7,87.2c1.3-1.8,3.6-2.8,5.8-2.8c2.3,0,4.5,1,5.9,2.7c-0.9-0.6-1.8-1.1-2.8-1.5
										c-1-0.3-2-0.5-3.1-0.5c-1,0-2.1,0.2-3.1,0.5C280.4,85.9,279.5,86.5,278.7,87.2z"/>
								</g>
								<g>
									<g>
										<path class="st0" d="M273.4,80c1.1-1.6,2.7-2.9,4.5-3.7c1.8-0.9,3.8-1.3,5.8-1.3c2,0,4,0.5,5.8,1.3c1.8,0.8,3.4,2,4.7,3.5
											c-3.1-2.2-6.7-3.5-10.4-3.6C279.9,76.2,276.3,77.5,273.4,80z"/>
										<path class="st0" d="M275.1,83.3c0.9-1.3,2.2-2.4,3.7-3.1c1.5-0.7,3.2-1.1,4.8-1c3.3,0,6.6,1.5,8.7,4
											c-2.6-1.8-5.6-2.9-8.7-3C280.6,80.1,277.5,81.2,275.1,83.3z"/>
										<path class="st0" d="M277.8,86.4c1.3-1.8,3.6-2.8,5.8-2.8c2.3,0,4.5,1,5.9,2.7c-0.9-0.6-1.8-1.1-2.8-1.5
											c-1-0.3-2-0.5-3.1-0.5c-1,0-2.1,0.2-3.1,0.5C279.6,85.1,278.7,85.7,277.8,86.4z"/>
									</g>
								</g>
							</g>
						</g>
					</g>
					<g class="st41">
						<g class="st41">
							<path class="st42" d="M190.2,76.7c-0.1,0-0.2,0-0.3-0.1l-8.2-8.2c-0.2-0.2-0.2-0.4,0-0.6c0.2-0.2,0.4-0.2,0.6,0l8.2,8.2
								c0.2,0.2,0.2,0.4,0,0.6C190.4,76.7,190.3,76.7,190.2,76.7z"/>
						</g>
						<g class="st41">
							<path class="st42" d="M182,76.7c-0.1,0-0.2,0-0.3-0.1c-0.2-0.2-0.2-0.4,0-0.6l8.2-8.2c0.2-0.2,0.4-0.2,0.6,0
								c0.2,0.2,0.2,0.4,0,0.6l-8.2,8.2C182.3,76.7,182.2,76.7,182,76.7z"/>
						</g>
					</g>
					<g class="st41">
						<g class="st41">
							<path class="st42" d="M234.5,76.7c-0.1,0-0.2,0-0.3-0.1l-8.2-8.2c-0.2-0.2-0.2-0.4,0-0.6c0.2-0.2,0.4-0.2,0.6,0l8.2,8.2
								c0.2,0.2,0.2,0.4,0,0.6C234.7,76.7,234.6,76.7,234.5,76.7z"/>
						</g>
						<g class="st41">
							<path class="st42" d="M226.3,76.7c-0.1,0-0.2,0-0.3-0.1c-0.2-0.2-0.2-0.4,0-0.6l8.2-8.2c0.2-0.2,0.4-0.2,0.6,0
								c0.2,0.2,0.2,0.4,0,0.6l-8.2,8.2C226.5,76.7,226.4,76.7,226.3,76.7z"/>
						</g>
					</g>
					<g class="st41">
						<g class="st41">
							<path class="st42" d="M277.4,76.4c-0.1,0-0.2,0-0.3-0.1l-8.2-8.2c-0.2-0.2-0.2-0.4,0-0.6c0.2-0.2,0.4-0.2,0.6,0l8.2,8.2
								c0.2,0.2,0.2,0.4,0,0.6C277.7,76.4,277.6,76.4,277.4,76.4z"/>
						</g>
						<g class="st41">
							<path class="st42" d="M269.3,76.4c-0.1,0-0.2,0-0.3-0.1c-0.2-0.2-0.2-0.4,0-0.6l8.2-8.2c0.2-0.2,0.4-0.2,0.6,0
								c0.2,0.2,0.2,0.4,0,0.6l-8.2,8.2C269.5,76.4,269.4,76.4,269.3,76.4z"/>
						</g>
					</g>
				</g>
			</g>
		</g>
	</g>
</g>
</svg>
