<?xml version="1.0" encoding="utf-8"?>
<!-- Generator: Adobe Illustrator 24.1.3, SVG Export Plug-In . SVG Version: 6.00 Build 0)  -->
<svg version="1.1" id="Layer_1" xmlns="http://www.w3.org/2000/svg" xmlns:xlink="http://www.w3.org/1999/xlink" x="0px" y="0px"
	 viewBox="0 0 220 220" style="enable-background:new 0 0 220 220;" xml:space="preserve">
<style type="text/css">
	.st0{fill:#1C77C3;}
	.st1{fill:#77ADDB;}
	.st2{fill:#04B8B5;}
	.st3{fill:#E11E19;}
</style>
<g>
	<g>
		<g>
			<path class="st0" d="M117.4,73.5c-0.6,0-1.5-0.6-1.5-1.4V59.6c0-0.6,0.6-1.4,1.5-1.4s1.5,0.6,1.5,1.4v12.5
				C118.6,73,118,73.5,117.4,73.5z"/>
		</g>
		<g>
			<path class="st0" d="M117.4,198.3c-0.6,0-1.5-0.6-1.5-1.4v-12.5c0-0.6,0.6-1.4,1.5-1.4s1.5,0.6,1.5,1.4v12.5
				C118.6,197.7,118,198.3,117.4,198.3z"/>
		</g>
		<g>
			<path class="st0" d="M191.7,130.4h-13c-0.6,0-1.5-0.6-1.5-1.4c0-0.6,0.6-1.4,1.5-1.4h13c0.6,0,1.5,0.6,1.5,1.4
				C192.9,129.5,192.3,130.4,191.7,130.4z"/>
		</g>
		<g>
			<path class="st1" d="M177.9,166.4c-0.3,0-0.6,0-0.9-0.3l-5.3-5.1c-0.6-0.6-0.6-1.4,0-1.7c0.6-0.6,1.5-0.6,1.8,0l5.3,5.1
				c0.6,0.6,0.6,1.4,0,1.7C178.4,166.4,178.2,166.4,177.9,166.4z"/>
		</g>
		<g>
			<path class="st1" d="M150.4,189.2c-0.6,0-1.2-0.3-1.2-0.9l-2.7-6.8c-0.3-0.6,0-1.4,0.9-1.7c0.6-0.3,1.5,0,1.8,0.9l2.7,6.8
				c0.3,0.6,0,1.4-0.9,1.7C150.7,189.2,150.7,189.2,150.4,189.2z"/>
		</g>
		<g>
			<path class="st0" d="M51.1,130.4h-13c-0.6,0-1.5-0.6-1.5-1.4c0-0.6,0.6-1.4,1.5-1.4h13c0.6,0,1.5,0.6,1.5,1.4
				C52.5,129.5,51.9,130.4,51.1,130.4z"/>
		</g>
		<g>
			<path class="st1" d="M56.1,164.4c-0.3,0-0.6,0-0.9-0.3c-0.6-0.6-0.6-1.4,0-1.7l5.3-5.1c0.6-0.6,1.5-0.6,1.8,0
				c0.3,0.6,0.6,1.4,0,1.7l-5.3,5.1C56.7,164.4,56.4,164.4,56.1,164.4z"/>
		</g>
		<g>
			<path class="st1" d="M83.2,187.2c-0.3,0-0.3,0-0.6,0c-0.6-0.3-0.9-0.9-0.9-1.7l2.7-6.8c0.3-0.6,0.9-0.9,1.8-0.9
				c0.6,0.3,0.9,0.9,0.9,1.7l-2.7,6.8C84.4,186.9,83.8,187.2,83.2,187.2z"/>
		</g>
		<g>
			<path class="st1" d="M62,97.7c-0.3,0-0.6,0-0.9-0.3l-5.3-5.1c-0.6-0.6-0.6-1.4,0-1.7c0.6-0.6,1.5-0.6,1.8,0l5.3,5.1
				c0.6,0.6,0.6,1.4,0,1.7C62.9,97.7,62.6,97.7,62,97.7z"/>
		</g>
		<g>
			<path class="st1" d="M86.7,76.7c-0.6,0-1.2-0.3-1.2-0.9L82.9,69c-0.3-0.6,0-1.4,0.9-1.7c0.6-0.3,1.5,0,1.8,0.9l2.7,6.8
				c0.3,0.6,0,1.4-0.9,1.7C87,76.7,87,76.7,86.7,76.7z"/>
		</g>
		<g>
			<path class="st1" d="M173.7,101.4c-0.3,0-0.6,0-0.9-0.3c-0.6-0.6-0.6-1.4,0-1.7l5.3-5.1c0.6-0.6,1.5-0.6,1.8,0
				c0.6,0.6,0.6,1.4,0,1.7l-5.3,5.1C174.6,101.4,174,101.4,173.7,101.4z"/>
		</g>
		<g>
			<path class="st1" d="M149.3,80.3c-0.3,0-0.3,0-0.6,0c-0.6-0.3-0.9-0.9-0.9-1.7l2.7-6.8c0.3-0.6,0.9-0.9,1.8-0.9
				c0.6,0.3,0.9,0.9,0.9,1.7l-2.7,6.8C150.1,80.1,149.8,80.3,149.3,80.3z"/>
		</g>
	</g>
	<path class="st2" d="M204.1,113c0.9,8.8,1.5,17.6,0,26.4c-1.5,8.8-4.1,17.3-8.3,25.3c-4.1,8-9.4,15.3-15.9,22.2
		c-6.5,6.5-14.2,12.2-22.1,16.8c-16.5,8.8-36,12.5-55.1,10.8c-19.2-1.7-37.7-9.4-52.5-21.6c-1.8-1.7-3.8-3.1-5.3-4.8l-5-5.1
		c-2.9-3.7-6.2-7.4-8.6-11.4c-5-8-9.1-16.8-11.2-26.1c-2.4-9.1-3.5-18.8-2.9-28.1c0.3-9.4,2.1-19,5.3-28.1
		C28.4,71,40.7,54.8,56.7,42.6c8.3-6,17.1-10.8,26.8-14.5s20.1-5.7,30.7-6.5v30.7c-7.4-0.9-15-0.3-22.4,1.1
		c-7.4,1.7-14.7,4.5-21.5,8.2c-13.6,7.7-24.8,19.6-31,34.1c-0.6,1.7-1.8,3.7-2.4,5.4l-1.8,5.7c-0.6,2-0.9,4-1.2,5.7
		c-0.3,0.9-0.3,2-0.6,2.8l-0.3,2.8c-0.9,8,0,15.9,1.8,23.6c1.8,7.7,5,15.1,9.1,21.9c2.1,3.4,4.4,6.5,6.8,9.9l4.1,4.5
		c1.2,1.4,2.9,2.8,4.4,4.3c12.1,11.1,27.7,18.5,44.2,20.7c16.5,2.6,34.2,0,49.5-7.1c7.7-3.7,14.7-8.2,21.2-13.9
		c6.2-5.7,11.8-12.2,16.2-19.6s7.4-15.3,9.4-23.6c2.1-8.2,2.4-16.8,2.1-25.6L204.1,113z"/>
	<polygon class="st2" points="147.5,39.7 105.9,59.6 108.6,15 	"/>
	<g>
		<path class="st3" d="M145.4,155.8L145.4,155.8c-6.2,0-15-5.5-23.4-14.5l5.3-7.2c8,8.5,15.9,13.2,18.6,13.2l0,0
			c6.6,0,12.8-2.6,16.8-7.2c3.1-3.8,4.4-8.5,3.5-13.2c-1.3-5.5-4.9-10.2-9.7-13.2c-2.7-1.7-7.1-3-12.4-1.7
			c-7.5,2.1-12.4,8.5-18.1,15.8c-5.7,7.7-12.4,16.2-23.9,22.1c-8.4,4.3-17.2,5.5-24.8,3.4c-7.1-2.1-12.8-6.8-16.8-13.6
			c-7.1-12.8,0-26.8,10.2-33.6c18.6-12.8,36.2,6.8,43.8,15.3l-4,6.4c-14.1-16.2-26.1-20.9-34.9-14.9c-7.1,4.7-11.9,14.1-7.5,23
			c2.7,4.7,6.6,8.1,11.5,9.8c5.3,1.7,11.9,0.9,18.1-2.6c9.7-5.1,15.5-12.8,20.8-20c6.2-8.1,12.4-15.8,22.5-18.7
			c6.2-2.1,13.3-1.3,19,2.1c7.1,3.8,11.9,11.1,13.7,18.7c1.3,7.2-0.4,14.5-5.3,20C163.1,152,154.7,155.8,145.4,155.8z"/>
	</g>
</g>
</svg>
