<?xml version="1.0" encoding="utf-8"?>
<!-- Generator: Adobe Illustrator 24.1.3, SVG Export Plug-In . SVG Version: 6.00 Build 0)  -->
<svg version="1.1" id="Layer_1" xmlns="http://www.w3.org/2000/svg" xmlns:xlink="http://www.w3.org/1999/xlink" x="0px" y="0px"
	 viewBox="0 0 220 220" style="enable-background:new 0 0 220 220;" xml:space="preserve">
<style type="text/css">
	.st0{fill:#0E3C62;}
	.st1{fill:#CCE4F2;}
	.st2{fill:#A4C9E7;}
	.st3{fill:#66AEDE;}
	.st4{fill:#1A72AD;}
	.st5{enable-background:new    ;}
	.st6{clip-path:url(#SVGID_2_);}
	.st7{fill:#D6E6F2;}
	.st8{fill:#9BE3E1;}
	.st9{fill:#04B8B5;}
	.st10{fill:#E11E19;}
</style>
<g>
	<polygon class="st0" points="186.9,103.7 91.2,117.3 40.6,89.3 136.2,75.7 	"/>
	<polygon class="st1" points="133.4,74 173.7,50.6 218,78.6 177.9,102 	"/>
	<polygon class="st2" points="51.9,87.8 24.8,61.8 109.3,50.7 139.1,77.1 	"/>
	<path class="st3" d="M186.9,95.9v76.8c0,15.4-11.7,29.4-25.8,31.4l-70,10V109.6L186.9,95.9z"/>
	<polygon class="st4" points="91.2,109.6 91.2,214.2 40.6,186.2 40.6,81.6 	"/>
	<polygon class="st1" points="51.7,102.8 91.2,109.6 40.6,81.6 1,74.7 	"/>
</g>
<g>
	<g class="st5">
		<defs>
			<polygon id="SVGID_1_" class="st5" points="104.9,198.3 105,125.8 175.7,115.9 175.6,188.3 			"/>
		</defs>
		<clipPath id="SVGID_2_">
			<use xlink:href="#SVGID_1_"  style="overflow:visible;"/>
		</clipPath>
		<g class="st6">
			<path class="st7" d="M141.7,171.2l-2.8,0.4l0,14.3c0.4-0.3,0.9-0.4,1.4-0.5c0.5-0.1,1,0,1.4,0.1L141.7,171.2"/>
			<path class="st7" d="M136.9,188.3l-24.8,3.5c-0.8,0.1-1.4,0.9-1.4,1.7l0,0c0,0.8,0.6,1.4,1.4,1.3l24.8-3.5
				c-0.2-0.4-0.3-0.9-0.3-1.5C136.6,189.3,136.7,188.8,136.9,188.3 M168.4,183.9l-24.8,3.5c0.2,0.4,0.3,0.9,0.3,1.5
				c0,0.5-0.1,1.1-0.3,1.6l24.8-3.5c0.8-0.1,1.4-0.9,1.4-1.7l0,0C169.8,184.4,169.2,183.8,168.4,183.9"/>
			<path class="st7" d="M145.8,133.2l0-2.1l2.9-0.4l0,2.1L145.8,133.2 M151.2,132.5l0-2.1l2.9-0.4l0,2.1L151.2,132.5 M156.6,131.7
				l0-2.1l2.9-0.4l0,2.1L156.6,131.7 M162.1,130.9l0-2.1l2.9-0.4l0,2.1L162.1,130.9 M167.5,130.2l0-2.1l2.9-0.4l0,2.1L167.5,130.2
				 M145.8,129.3l0-2.1l2.9-0.4l0,2.1L145.8,129.3 M151.2,128.5l0-2.1l2.9-0.4l0,2.1L151.2,128.5 M156.7,127.7l0-2.1l2.9-0.4l0,2.1
				L156.7,127.7 M162.1,127l0-2.1l2.9-0.4l0,2.1L162.1,127 M167.5,126.2l0-2.1l2.9-0.4l0,2.1L167.5,126.2 M126.2,132.9
				c-1,0.1-1.8-0.6-1.8-1.7c0-1.1,0.8-2.1,1.8-2.2c1-0.1,1.8,0.6,1.8,1.7C128,131.8,127.2,132.8,126.2,132.9 M120.1,134.3
				c-1.3,0.2-2.3-0.8-2.3-2.1c0-1.3,1-2.6,2.3-2.8c1.2-0.2,2.3,0.8,2.3,2.1C122.3,132.9,121.3,134.1,120.1,134.3 M113,135.8
				c-1.5,0.2-2.8-0.9-2.8-2.6c0-1.6,1.2-3.1,2.8-3.3c1.5-0.2,2.7,0.9,2.7,2.6C115.8,134.1,114.5,135.6,113,135.8 M145.8,125.3l0-2.1
				l2.9-0.4l0,2.1L145.8,125.3 M151.2,124.6l0-2.1l2.9-0.4l0,2.1L151.2,124.6 M156.7,123.8l0-2.1l2.9-0.4l0,2.1L156.7,123.8
				 M162.1,123l0-2.1l2.9-0.4l0,2.1L162.1,123 M167.5,122.3l0-2.1l2.9-0.4l0,2.1L167.5,122.3 M174.8,116l-68.9,9.7
				c-0.5,0.1-0.9,0.6-0.9,1.1l0,14.2c0,0.5,0.4,0.9,0.9,0.8l68.9-9.7c0.5-0.1,0.9-0.6,0.9-1.1l0-14.2
				C175.7,116.3,175.3,116,174.8,116"/>
			<polyline class="st3" points="170.4,119.7 167.5,120.1 167.5,122.3 170.4,121.9 170.4,119.7 			"/>
			<polyline class="st3" points="165,120.5 162.1,120.9 162.1,123 165,122.6 165,120.5 			"/>
			<polyline class="st3" points="159.6,121.3 156.7,121.7 156.7,123.8 159.6,123.4 159.6,121.3 			"/>
			<polyline class="st3" points="154.2,122 151.2,122.4 151.2,124.6 154.2,124.2 154.2,122 			"/>
			<polyline class="st3" points="148.7,122.8 145.8,123.2 145.8,125.3 148.7,124.9 148.7,122.8 			"/>
			<polyline class="st3" points="170.4,123.7 167.5,124.1 167.5,126.2 170.4,125.8 170.4,123.7 			"/>
			<polyline class="st3" points="165,124.4 162.1,124.9 162.1,127 165,126.6 165,124.4 			"/>
			<polyline class="st3" points="159.6,125.2 156.7,125.6 156.7,127.7 159.6,127.3 159.6,125.2 			"/>
			<polyline class="st3" points="154.2,126 151.2,126.4 151.2,128.5 154.2,128.1 154.2,126 			"/>
			<polyline class="st3" points="148.7,126.7 145.8,127.1 145.8,129.3 148.7,128.9 148.7,126.7 			"/>
			<polyline class="st3" points="170.4,127.6 167.5,128 167.5,130.2 170.4,129.8 170.4,127.6 			"/>
			<polyline class="st3" points="165,128.4 162.1,128.8 162.1,130.9 165,130.5 165,128.4 			"/>
			<polyline class="st3" points="159.6,129.2 156.7,129.6 156.6,131.7 159.6,131.3 159.6,129.2 			"/>
			<polyline class="st3" points="154.1,129.9 151.2,130.3 151.2,132.5 154.1,132.1 154.1,129.9 			"/>
			<polyline class="st3" points="148.7,130.7 145.8,131.1 145.8,133.2 148.7,132.8 148.7,130.7 			"/>
			<path class="st4" d="M126.2,129c-1,0.1-1.8,1.1-1.8,2.2c0,1.1,0.8,1.9,1.8,1.7c1-0.1,1.8-1.1,1.8-2.2
				C128,129.6,127.2,128.8,126.2,129"/>
			<path class="st4" d="M120.1,129.4c-1.3,0.2-2.3,1.4-2.3,2.8c0,1.3,1,2.3,2.3,2.1c1.2-0.2,2.3-1.4,2.3-2.7
				C122.3,130.2,121.3,129.2,120.1,129.4"/>
			<path class="st4" d="M113,129.9c-1.5,0.2-2.8,1.7-2.8,3.3c0,1.6,1.2,2.8,2.8,2.6c1.5-0.2,2.7-1.7,2.7-3.3
				C115.8,130.8,114.6,129.6,113,129.9"/>
			<path class="st7" d="M145.8,150.4l0-2.1l2.9-0.4l0,2.1L145.8,150.4 M151.2,149.6l0-2.1l2.9-0.4l0,2.1L151.2,149.6 M156.6,148.9
				l0-2.1l2.9-0.4l0,2.1L156.6,148.9 M162,148.1l0-2.1l2.9-0.4l0,2.1L162,148.1 M167.5,147.3l0-2.1l2.9-0.4l0,2.1L167.5,147.3
				 M145.8,146.4l0-2.1l2.9-0.4l0,2.1L145.8,146.4 M151.2,145.7l0-2.1l2.9-0.4l0,2.1L151.2,145.7 M156.6,144.9l0-2.1l2.9-0.4l0,2.1
				L156.6,144.9 M162,144.1l0-2.1l2.9-0.4l0,2.1L162,144.1 M167.5,143.4l0-2.1l2.9-0.4l0,2.1L167.5,143.4 M126.1,150.1
				c-1,0.1-1.8-0.6-1.8-1.7c0-1.1,0.8-2.1,1.8-2.2c1-0.1,1.8,0.6,1.8,1.7C128,149,127.2,150,126.1,150.1 M120,151.4
				c-1.3,0.2-2.3-0.8-2.3-2.1c0-1.3,1-2.6,2.3-2.8c1.2-0.2,2.3,0.8,2.3,2.1C122.3,150,121.3,151.3,120,151.4 M113,152.9
				c-1.5,0.2-2.8-0.9-2.8-2.6c0-1.6,1.2-3.1,2.8-3.3c1.5-0.2,2.7,0.9,2.7,2.6C115.7,151.2,114.5,152.7,113,152.9 M145.8,142.5l0-2.1
				l2.9-0.4l0,2.1L145.8,142.5 M151.2,141.7l0-2.1l2.9-0.4l0,2.1L151.2,141.7 M156.6,141l0-2.1l2.9-0.4l0,2.1L156.6,141
				 M162.1,140.2l0-2.1l2.9-0.4l0,2.1L162.1,140.2 M167.5,139.4l0-2.1l2.9-0.4l0,2.1L167.5,139.4 M174.8,133.2l-68.9,9.7
				c-0.5,0.1-0.9,0.6-0.9,1.1l0,14.2c0,0.5,0.4,0.9,0.9,0.8l68.9-9.7c0.5-0.1,0.9-0.6,0.9-1.1l0-14.2
				C175.7,133.5,175.3,133.1,174.8,133.2"/>
			<polyline class="st3" points="170.4,136.9 167.5,137.3 167.5,139.4 170.4,139 170.4,136.9 			"/>
			<polyline class="st3" points="165,137.7 162.1,138.1 162.1,140.2 165,139.8 165,137.7 			"/>
			<polyline class="st3" points="159.6,138.4 156.6,138.8 156.6,141 159.6,140.5 159.6,138.4 			"/>
			<polyline class="st3" points="154.1,139.2 151.2,139.6 151.2,141.7 154.1,141.3 154.1,139.2 			"/>
			<polyline class="st3" points="148.7,139.9 145.8,140.4 145.8,142.5 148.7,142.1 148.7,139.9 			"/>
			<polyline class="st3" points="170.4,140.8 167.5,141.3 167.5,143.4 170.4,143 170.4,140.8 			"/>
			<polyline class="st3" points="165,141.6 162.1,142 162,144.1 165,143.7 165,141.6 			"/>
			<polyline class="st3" points="159.5,142.4 156.6,142.8 156.6,144.9 159.5,144.5 159.5,142.4 			"/>
			<polyline class="st3" points="154.1,143.1 151.2,143.5 151.2,145.7 154.1,145.3 154.1,143.1 			"/>
			<polyline class="st3" points="148.7,143.9 145.8,144.3 145.8,146.4 148.7,146 148.7,143.9 			"/>
			<polyline class="st3" points="170.4,144.8 167.5,145.2 167.5,147.3 170.4,146.9 170.4,144.8 			"/>
			<polyline class="st3" points="165,145.6 162,146 162,148.1 165,147.7 165,145.6 			"/>
			<polyline class="st3" points="159.5,146.3 156.6,146.7 156.6,148.9 159.5,148.5 159.5,146.3 			"/>
			<polyline class="st3" points="154.1,147.1 151.2,147.5 151.2,149.6 154.1,149.2 154.1,147.1 			"/>
			<polyline class="st3" points="148.7,147.8 145.8,148.3 145.8,150.4 148.7,150 148.7,147.8 			"/>
			<path class="st4" d="M126.2,146.2c-1,0.1-1.8,1.1-1.8,2.2c0,1.1,0.8,1.9,1.8,1.7c1-0.1,1.8-1.1,1.8-2.2
				C128,146.8,127.2,146,126.2,146.2"/>
			<path class="st4" d="M120,146.6c-1.3,0.2-2.3,1.4-2.3,2.8c0,1.3,1,2.3,2.3,2.1c1.2-0.2,2.3-1.4,2.3-2.8
				C122.3,147.3,121.3,146.4,120,146.6"/>
			<path class="st4" d="M113,147c-1.5,0.2-2.8,1.7-2.8,3.3c0,1.6,1.2,2.8,2.8,2.6c1.5-0.2,2.7-1.7,2.7-3.3
				C115.7,148,114.5,146.8,113,147"/>
			<path class="st7" d="M145.7,167.5l0-2.1l2.9-0.4l0,2.1L145.7,167.5 M151.2,166.8l0-2.1l2.9-0.4l0,2.1L151.2,166.8 M156.6,166
				l0-2.1l2.9-0.4l0,2.1L156.6,166 M162,165.3l0-2.1l2.9-0.4l0,2.1L162,165.3 M167.4,164.5l0-2.1l2.9-0.4l0,2.1L167.4,164.5
				 M145.7,163.6l0-2.1l2.9-0.4l0,2.1L145.7,163.6 M151.2,162.8l0-2.1l2.9-0.4l0,2.1L151.2,162.8 M156.6,162.1l0-2.1l2.9-0.4l0,2.1
				L156.6,162.1 M162,161.3l0-2.1l2.9-0.4l0,2.1L162,161.3 M167.4,160.5l0-2.1l2.9-0.4l0,2.1L167.4,160.5 M126.1,167.3
				c-1,0.1-1.8-0.6-1.8-1.7c0-1.1,0.8-2.1,1.8-2.2c1-0.1,1.8,0.6,1.8,1.7C128,166.1,127.1,167.1,126.1,167.3 M120,168.6
				c-1.3,0.2-2.3-0.8-2.3-2.1c0-1.3,1-2.6,2.3-2.8c1.2-0.2,2.3,0.8,2.3,2.1C122.3,167.2,121.2,168.4,120,168.6 M113,170.1
				c-1.5,0.2-2.8-0.9-2.8-2.6c0-1.6,1.2-3.1,2.8-3.3c1.5-0.2,2.7,0.9,2.7,2.6C115.7,168.4,114.5,169.9,113,170.1 M145.8,159.6l0-2.1
				l2.9-0.4l0,2.1L145.8,159.6 M151.2,158.9l0-2.1l2.9-0.4l0,2.1L151.2,158.9 M156.6,158.1l0-2.1l2.9-0.4l0,2.1L156.6,158.1
				 M162,157.4l0-2.1l2.9-0.4l0,2.1L162,157.4 M167.4,156.6l0-2.1l2.9-0.4l0,2.1L167.4,156.6 M174.7,150.4l-68.9,9.7
				c-0.5,0.1-0.9,0.6-0.9,1.1l0,14.2c0,0.5,0.4,0.9,0.9,0.8l33-4.6l2.8-0.4l33-4.6c0.5-0.1,0.9-0.6,0.9-1.1l0-14.2
				C175.6,150.7,175.3,150.3,174.7,150.4"/>
			<polyline class="st3" points="170.4,154.1 167.4,154.5 167.4,156.6 170.4,156.2 170.4,154.1 			"/>
			<polyline class="st3" points="164.9,154.8 162,155.2 162,157.4 164.9,156.9 164.9,154.8 			"/>
			<polyline class="st3" points="159.5,155.6 156.6,156 156.6,158.1 159.5,157.7 159.5,155.6 			"/>
			<polyline class="st3" points="154.1,156.3 151.2,156.8 151.2,158.9 154.1,158.5 154.1,156.3 			"/>
			<polyline class="st3" points="148.7,157.1 145.8,157.5 145.8,159.6 148.7,159.2 148.7,157.1 			"/>
			<polyline class="st3" points="170.4,158 167.4,158.4 167.4,160.5 170.4,160.1 170.4,158 			"/>
			<polyline class="st3" points="164.9,158.8 162,159.2 162,161.3 164.9,160.9 164.9,158.8 			"/>
			<polyline class="st3" points="159.5,159.5 156.6,159.9 156.6,162.1 159.5,161.7 159.5,159.5 			"/>
			<polyline class="st3" points="154.1,160.3 151.2,160.7 151.2,162.8 154.1,162.4 154.1,160.3 			"/>
			<polyline class="st3" points="148.7,161.1 145.7,161.5 145.7,163.6 148.7,163.2 148.7,161.1 			"/>
			<polyline class="st3" points="170.4,162 167.4,162.4 167.4,164.5 170.3,164.1 170.4,162 			"/>
			<polyline class="st3" points="164.9,162.7 162,163.1 162,165.3 164.9,164.8 164.9,162.7 			"/>
			<polyline class="st3" points="159.5,163.5 156.6,163.9 156.6,166 159.5,165.6 159.5,163.5 			"/>
			<polyline class="st3" points="154.1,164.2 151.2,164.7 151.2,166.8 154.1,166.4 154.1,164.2 			"/>
			<polyline class="st3" points="148.7,165 145.7,165.4 145.7,167.5 148.7,167.1 148.7,165 			"/>
			<path class="st4" d="M126.1,163.3c-1,0.1-1.8,1.1-1.8,2.2c0,1.1,0.8,1.9,1.8,1.7c1-0.1,1.8-1.1,1.8-2.2
				C128,163.9,127.1,163.2,126.1,163.3"/>
			<path class="st4" d="M120,163.7c-1.3,0.2-2.3,1.4-2.3,2.8c0,1.3,1,2.3,2.3,2.1c1.2-0.2,2.3-1.4,2.3-2.8
				C122.3,164.5,121.3,163.5,120,163.7"/>
			<path class="st4" d="M113,164.2c-1.5,0.2-2.8,1.7-2.8,3.3c0,1.6,1.2,2.8,2.8,2.6c1.5-0.2,2.7-1.7,2.7-3.3
				C115.7,165.1,114.5,164,113,164.2"/>
			<path class="st4" d="M140.3,185.4c-0.5,0.1-1,0.2-1.4,0.5c-0.9,0.5-1.6,1.4-2,2.4c-0.2,0.5-0.3,1-0.3,1.6c0,0.5,0.1,1,0.3,1.5
				c0.5,1.3,1.9,2.2,3.4,1.9c1.5-0.2,2.8-1.4,3.4-2.9c0.2-0.5,0.3-1,0.3-1.6c0-0.5-0.1-1-0.3-1.5c-0.4-0.9-1.1-1.6-2-1.8
				C141.2,185.4,140.8,185.4,140.3,185.4"/>
		</g>
	</g>
</g>
<g>
	<path class="st8" d="M152.9,67.6c-3.9,6.4-11.5,9.9-18.9,8c-4.1-1.1-7.5-3.6-9.7-7c-0.3-0.4-0.5-0.7-0.8-1.2l-15.9-28.5
		c-5.9-10.6-19-14-29.2-7.5c-5,3.2-8.4,8.1-9.9,13.6c3.9-6.4,11.5-9.9,18.9-8c4.1,1.1,7.5,3.6,9.7,7c0.3,0.4,0.5,0.7,0.8,1.2
		l15.9,28.5c5.9,10.6,19,14,29.2,7.5C148,78,151.4,73.1,152.9,67.6z"/>
	<path class="st9" d="M119.3,57.7c0.2,0.3,0.5,0.3,0.7,0.2l6.8-4c5.1-3,11.7-1.3,14.7,3.8c3,5.1,1.3,11.7-3.8,14.7
		c-0.9,0.5-1.9,0.9-2.9,1.2c-0.5,0.1-0.6,0.9,0,1.1c0,0,0,0,0,0c6.1,1.6,12.9-0.7,16.7-5.8c2.6-3.6,3.2-7.8,2.4-11.9
		c-0.6-2.7-1.8-5.4-3.4-7.7c-6.6-9.2-20.2-11.4-29.8-5.8l-6.9,4.1c-0.3,0.2-0.3,0.5-0.2,0.7L119.3,57.7z"/>
	<path class="st9" d="M102.2,54.9c-0.2-0.3-0.5-0.3-0.7-0.2l-6.8,4c-5.1,3-11.7,1.3-14.7-3.8c-3-5.1-1.3-11.7,3.8-14.7
		c0.9-0.5,1.9-0.9,2.9-1.2c0.5-0.1,0.6-0.9,0-1.1c0,0,0,0,0,0c-8.4-2.2-17,2.7-19.2,11c-1.5,5.8,1.2,11.9,5.1,16.2
		c7.1,7.7,19.2,9.3,28.2,4l7-4c0.3-0.2,0.4-0.5,0.2-0.8L102.2,54.9z"/>
</g>
<g>
	<g>
		<g>
			<g>
				<g>
					<path class="st10" d="M52.5,31.5c5.6,3.6,5.8,5.3,8.1,4.7c0.1,0,0.1-0.2,0-0.3c-1.5-2.6-1-0.7-8.1-4.9
						C52.6,31,52.4,31.1,52.5,31.5z"/>
				</g>
			</g>
		</g>
		<g>
			<g>
				<g>
					<path class="st10" d="M51.3,52.7c6.2,0.8,6.8,2.4,8.9,0.7c0,0,0-0.3,0-0.3C58,51.4,59,53,51.3,52.2
						C51.2,52.3,51.1,52.5,51.3,52.7z"/>
				</g>
			</g>
		</g>
		<g>
			<g>
				<g>
					<path class="st10" d="M52.3,75.3c5.7-3,6.9-2,8.1-4.8c0-0.1-0.1-0.2-0.1-0.2c-2.5-0.3-1.1,0.6-8.2,4.6
						C52.1,74.9,52,75.2,52.3,75.3z"/>
				</g>
			</g>
		</g>
	</g>
	<g>
		<g>
			<g>
				<g>
					<path class="st10" d="M172.6,33.2c-5.6,3.6-5.8,5.3-8.1,4.7c-0.1,0-0.1-0.2,0-0.3c1.5-2.6,1-0.7,8.1-4.9
						C172.6,32.8,172.8,32.9,172.6,33.2z"/>
				</g>
			</g>
		</g>
		<g>
			<g>
				<g>
					<path class="st10" d="M173.9,54.5c-6.2,0.8-6.8,2.4-8.9,0.7c0,0,0-0.3,0-0.3c2.1-1.8,1.2-0.2,8.9-0.9
						C173.9,54.1,174.1,54.2,173.9,54.5z"/>
				</g>
			</g>
		</g>
		<g>
			<g>
				<g>
					<path class="st10" d="M172.9,77c-5.7-3-6.9-2-8.1-4.8c0-0.1,0.1-0.2,0.1-0.2c2.5-0.3,1.1,0.6,8.2,4.6
						C173.1,76.7,173.2,76.9,172.9,77z"/>
				</g>
			</g>
		</g>
	</g>
</g>
</svg>
