<?xml version="1.0" encoding="utf-8"?>
<!-- Generator: Adobe Illustrator 24.1.3, SVG Export Plug-In . SVG Version: 6.00 Build 0)  -->
<svg version="1.1" id="Layer_1" xmlns="http://www.w3.org/2000/svg" xmlns:xlink="http://www.w3.org/1999/xlink" x="0px" y="0px"
	 viewBox="0 0 220 220" style="enable-background:new 0 0 220 220;" xml:space="preserve">
<style type="text/css">
	.st0{clip-path:url(#SVGID_2_);}
	.st1{fill:#E11E19;}
	.st2{fill:#FFB0B0;}
	.st3{fill:#FFC2C2;}
	.st4{fill:#DD9E9E;}
	.st5{fill:#FFFFFF;}
	.st6{fill:#0E3C62;}
	.st7{fill:#FFD238;}
	.st8{fill:#F8C61F;}
	.st9{opacity:0.3;fill:#FFFFFF;}
	.st10{opacity:0.3;}
	.st11{opacity:0.2;fill:#E8E8E8;}
	.st12{opacity:0.2;}
	.st13{opacity:0.1;}
</style>
<g>
	<defs>
		<rect id="SVGID_1_" x="1.9" y="0.3" width="214.2" height="214.2"/>
	</defs>
	<clipPath id="SVGID_2_">
		<use xlink:href="#SVGID_1_"  style="overflow:visible;"/>
	</clipPath>
	<g class="st0">
		<g>
			<g>
				<path class="st1" d="M2,76.8c3.9,2.5,8,5,12.6,5.5c1.1,0.1,2.2-0.1,3.1-0.7C18.5,81,19,80,18.9,79c0-0.5-0.3-1-0.4-0.9
					c-0.5-0.1-1-0.1-1.5,0c-1,0.1-1.9,0.7-2.6,1.5c-1.3,1.6-1.7,4-1.5,6.2c0.2,2.2,0.9,4.4,2.1,6.2c2.3,3.7,6.7,6.2,11,5.8
					c2.2-0.2,4.3-0.8,6.3-1.9c1.9-1,3.8-2.5,4.4-4.1c0.2-0.7,0-1-0.8-1.4c-0.9-0.4-2-0.7-3-0.8c-2-0.2-3.3,0.9-3.7,3
					c-0.6,4.1,1.2,8.8,4.1,12c1.5,1.6,3.5,2.7,5.7,2.8c2.2,0.1,4.4-1,6.2-2.4l0.1,0.2c-1.7,1.6-3.8,3-6.3,3.2c-2.5,0.2-5-1-6.8-2.7
					c-1.8-1.7-3.2-3.8-4.1-6.1c-0.9-2.3-1.5-4.8-1.1-7.4c0.2-1.3,0.7-2.7,1.9-3.7c1.2-1,2.8-1.3,4.1-1.2c1.4,0.1,2.6,0.5,3.8,1
					c0.6,0.3,1.4,0.8,1.8,1.6c0.5,0.8,0.4,1.9,0.2,2.6c-1.2,2.8-3.4,4.1-5.6,5.3c-2.2,1.1-4.6,1.8-7.1,1.9
					c-5.1,0.3-9.9-2.7-12.5-6.9c-1.3-2.1-2-4.5-2.2-7c-0.1-2.4,0.3-5,1.9-7.1c0.8-1,2.1-1.7,3.4-1.9c0.7-0.1,1.3,0,1.9,0.1
					c1.1,0.4,1.1,1.4,1.2,2c0,1.4-0.7,2.7-1.8,3.4c-1.1,0.7-2.5,0.8-3.7,0.7C9.7,82.4,5.7,79.6,1.9,77L2,76.8z"/>
			</g>
			<g>
				<path class="st2" d="M157.8,60.8l-29-12.8c0,0,28.9-26,25.6-18.8C148.9,40.9,157.8,60.8,157.8,60.8z"/>
			</g>
			<g>
				<circle class="st3" cx="118.4" cy="126.7" r="80.2"/>
			</g>
			<path class="st2" d="M128.7,196.7c-44.3,0-80.2-35.9-80.2-80.2c0-19.5,7-37.3,18.5-51.2C49.3,80,38,102.1,38,126.9
				c0,44.3,35.9,80.2,80.2,80.2c24.8,0,47-11.3,61.7-29C166.1,189.7,148.2,196.7,128.7,196.7z"/>
			<g>
				<g>
					<path class="st1" d="M202.9,108.2h-6.6c1.5,6.2,2.3,12.6,2.3,19.2c0,6.1-0.7,12-2,17.7h6.2c3.5,0,6.3-2.8,6.3-6.3v-24.3
						C209.2,111.1,206.4,108.2,202.9,108.2z"/>
				</g>
				<g>
					<path class="st2" d="M59.5,181.9c-0.9,0.8-1.8,1.8-2.4,3l-5,9.8c-2.6,5.2-0.6,11.5,4.6,14.2l11.2,5.7
						c5.2,2.6,11.5,0.6,14.2-4.6l4.5-8.9C76.3,196.6,67.1,190,59.5,181.9z"/>
				</g>
				<g>
					<path class="st2" d="M149.5,211.6c3.2,4.8,9.8,6.1,14.6,2.9l9.1-6.1c4.8-3.2,6.1-9.8,2.9-14.6l-4.3-6.4
						c-8,7.1-17.4,12.7-27.8,16.1L149.5,211.6z"/>
				</g>
			</g>
			<g>
				<path class="st4" d="M66,92.5c-0.6,0-1.2-0.2-1.7-0.5c-1.5-0.9-1.9-2.9-1-4.4C75.8,67.9,89.8,61,117.6,61.1
					c1.7,0,3.1,1.4,3.1,3.2c0,1.7-1.4,3.1-3.2,3.1c-0.4,0-0.8,0-1.2,0c-24.5,0-36.6,6-47.7,23.5C68.1,91.9,67.1,92.5,66,92.5z"/>
			</g>
			<g>
				<circle class="st5" cx="155.8" cy="107" r="13.4"/>
			</g>
			<g>
				<circle class="st6" cx="152.2" cy="104.3" r="9.6"/>
			</g>
			<g>
				<path class="st7" d="M58.6,39.4c-3.3,7-10,11.3-17.3,11.8c-3.3,0.2-6.7-0.4-9.9-1.9l-0.1,0c-0.9-0.4-1.8-0.9-2.6-1.5
					c-8.3-5.5-11.6-16.4-7.2-25.7C25.6,13.4,35,8.9,44.1,10.7c1.5,0.3,3.1,0.8,4.6,1.5l0.1,0c1.3,0.6,2.5,1.3,3.6,2.2
					C59.9,20,62.8,30.4,58.6,39.4z"/>
				<path class="st8" d="M56.2,38.2c-0.1,0.2-0.2,0.5-0.4,0.7C55,40.5,54,41.9,52.9,43c-3.6,3.8-8.8,5.8-14.1,5.4
					c-1.7-0.1-3.3-0.5-4.9-1.1c-0.4-0.1-0.9-0.3-1.3-0.5c-0.5-0.2-1-0.5-1.5-0.8c-0.6-0.3-1.1-0.7-1.6-1.1c-1.5-1.1-2.7-2.3-3.7-3.8
					c-2.4-3.3-3.6-7.4-3.4-11.5c0.1-2.1,0.6-4.1,1.5-6.2l0.1-0.3c1-2.1,2.3-3.9,3.9-5.4c3.4-3.2,8-5,12.6-4.8c2.3,0,4.6,0.5,6.8,1.5
					l0.2,0.1c1.9,0.9,3.6,2.1,5,3.5c2.9,2.9,4.8,6.8,5.2,10.8c0.2,1.7,0.1,3.5-0.3,5.3c-0.1,0.6-0.3,1.3-0.5,1.9
					C56.8,36.8,56.5,37.5,56.2,38.2z"/>
				<path class="st9" d="M56.4,38.4c0.3-0.7,0.5-1.3,0.8-2c0.2-0.6,0.4-1.3,0.5-1.9c0.2-0.9,0.3-1.9,0.3-2.8c0-0.4,0-0.9,0-1.3
					c0-0.4,0-0.8-0.1-1.1c-0.2-1.6-0.6-3.2-1.1-4.7c0.5,1.4,0.9,2.8,1,4.3c0.1,0.5,0.1,1.1,0.1,1.6c0,0.5,0,0.9,0,1.4
					c-0.1,0.8-0.2,1.5-0.3,2.3c-0.1,0.6-0.3,1.3-0.5,1.9c-0.2,0.5-0.4,1-0.6,1.6c-0.1,0.2-0.2,0.4-0.2,0.6c0,0.1-0.1,0.2-0.1,0.2
					c0,0.1-0.1,0.1-0.1,0.2c0,0.1-0.1,0.1-0.1,0.2c0,0,0,0,0,0.1c0,0,0,0.1,0,0.1c-0.4,0.7-0.8,1.4-1.2,2c-0.5,0.7-1.1,1.4-1.7,2.1
					c-0.8,0.8-1.7,1.6-2.6,2.2l0,0c-0.3,0.2-0.5,0.4-0.8,0.5c-0.3,0.2-0.6,0.3-0.8,0.5c-0.3,0.2-0.6,0.3-0.9,0.4
					c-0.1,0.1-0.3,0.1-0.4,0.2c-0.3,0.1-0.6,0.3-0.9,0.4c-0.8,0.3-1.5,0.5-2.3,0.7c-0.3,0.1-0.6,0.1-0.9,0.2c0,0,0,0,0,0
					c-0.3,0.1-0.6,0.1-1,0.1c-1.1,0.1-2.3,0.2-3.4,0.1c-0.2,0-0.4,0-0.6-0.1c-0.1,0-0.1,0-0.2,0c-0.1,0-0.2,0-0.3,0
					c-0.4,0-0.7-0.1-1.1-0.2c-0.2,0-0.4-0.1-0.6-0.1c-0.4-0.1-0.8-0.2-1.1-0.3c-0.1,0-0.1,0-0.2-0.1c-0.1,0-0.5-0.2-0.6-0.2
					c-0.1,0-0.2-0.1-0.2-0.1c-0.4-0.1-0.8-0.3-1.1-0.4c-0.1,0-0.1-0.1-0.2-0.1c-0.5-0.2-1-0.5-1.5-0.8c-0.4-0.2-0.8-0.5-1.2-0.8
					c0,0,0,0,0,0c-0.1-0.1-0.3-0.2-0.4-0.3l0,0c-0.6-0.5-1.2-1-1.8-1.5c-0.3-0.3-0.6-0.6-0.9-1c-0.4-0.4-0.7-0.8-1-1.3
					c-0.5-0.8-1-1.5-1.5-2.4c-0.1-0.2-0.2-0.3-0.2-0.5c-0.1-0.2-0.2-0.3-0.2-0.5c-0.1-0.2-0.1-0.3-0.2-0.5c0,0.1,0.1,0.2,0.1,0.3
					c0.5,1.4,1.3,2.7,2.1,3.8c1,1.4,2.3,2.7,3.7,3.8c0.5,0.4,1.1,0.8,1.6,1.1c0.5,0.3,1,0.5,1.5,0.8c0.4,0.2,0.9,0.4,1.3,0.5
					c1.6,0.6,3.3,1,4.9,1.1c5.2,0.4,10.4-1.6,14.1-5.4c0.8-0.8,1.5-1.7,2.1-2.6c0.3-0.5,0.6-1,0.8-1.5c0.1-0.2,0.2-0.5,0.4-0.7
					C56.3,38.5,56.3,38.4,56.4,38.4z M44.2,11c1.5,0.3,3,0.8,4.5,1.5l0.1,0c0.2,0.1,0.4,0.2,0.5,0.3c0.3,0.2,0.6,0.3,0.9,0.5
					c0.3,0.2,0.6,0.3,0.8,0.5c0.3,0.2,0.6,0.4,0.8,0.6c0.1,0.1,0.3,0.2,0.4,0.3c1.5,1.1,2.9,2.5,4,3.9c0.5,0.7,1,1.5,1.5,2.2
					c0.5,0.9,1,1.9,1.4,2.9c0,0,0,0.1,0,0.1c0-0.1,0-0.1-0.1-0.2c-0.1-0.2-0.2-0.4-0.2-0.6c-0.1-0.3-0.3-0.6-0.4-0.9
					c-0.1-0.2-0.2-0.4-0.3-0.5c-0.1-0.1-0.1-0.2-0.2-0.3c-0.1-0.1-0.1-0.2-0.2-0.4c0,0,0,0,0-0.1c-0.1-0.1-0.1-0.2-0.2-0.3
					c-0.4-0.6-0.8-1.2-1.2-1.8c0,0,0,0,0,0c-0.1-0.1-0.2-0.3-0.3-0.4C56.1,18.1,56,18,56,17.9c-0.2-0.3-0.5-0.6-0.7-0.9
					c-0.2-0.2-0.4-0.4-0.6-0.6c-0.1-0.1-0.2-0.2-0.3-0.3c-0.1-0.1-0.2-0.2-0.3-0.3c-0.1-0.1-0.2-0.2-0.3-0.3
					c-0.1-0.1-0.2-0.2-0.3-0.3c-0.1-0.1-0.2-0.2-0.3-0.3c-0.1-0.1-0.2-0.2-0.3-0.2c-0.1-0.1-0.3-0.2-0.4-0.3
					c-0.3-0.2-0.6-0.4-0.9-0.6c0,0,0,0,0,0c-0.1-0.1-0.2-0.2-0.4-0.2c-0.2-0.1-0.5-0.3-0.7-0.4c-0.2-0.1-0.4-0.2-0.6-0.3
					c0,0,0,0-0.1,0c0,0-0.1,0-0.1-0.1c-0.3-0.2-0.6-0.3-1-0.5l-0.1,0c-0.1,0-0.1-0.1-0.2-0.1l0,0c-0.5-0.2-1.1-0.5-1.6-0.7
					c-0.2-0.1-0.4-0.1-0.6-0.2c0,0,0,0-0.1,0c-0.2-0.1-0.4-0.1-0.6-0.2c-0.1,0-0.1,0-0.2-0.1c-0.2,0-0.4-0.1-0.5-0.1
					c-0.1,0-0.1,0-0.2,0c-0.5-0.1-0.9-0.2-1.4-0.3c-0.7-0.1-1.4-0.2-2.1-0.2c-0.7,0-1.4,0-2.1,0c-0.1,0-0.3,0-0.4,0
					c-0.6,0-1.1,0.1-1.7,0.2c-0.1,0-0.3,0-0.4,0.1c-0.1,0-0.3,0.1-0.4,0.1c-0.1,0-0.2,0-0.3,0.1c0,0-0.1,0-0.1,0
					c-0.1,0-0.2,0-0.3,0.1c-0.5,0.1-1,0.2-1.4,0.4c-0.1,0-0.2,0.1-0.3,0.1c-0.4,0.1-0.7,0.2-1.1,0.4c-0.4,0.2-0.8,0.3-1.1,0.5
					c0,0-0.1,0-0.1,0c-0.1,0.1-0.3,0.1-0.4,0.2c-0.1,0.1-0.2,0.1-0.4,0.2c-0.1,0-0.2,0.1-0.3,0.2c-0.1,0.1-0.2,0.1-0.3,0.2
					c-0.4,0.2-0.8,0.5-1.2,0.8c-0.1,0.1-0.2,0.1-0.3,0.2c-0.1,0.1-0.2,0.1-0.3,0.2c-0.1,0.1-0.2,0.1-0.3,0.2c0,0-0.3,0.2-0.4,0.3
					c-0.2,0.2-0.5,0.4-0.7,0.6c-0.1,0.1-0.2,0.2-0.4,0.3c-0.1,0.1-0.3,0.3-0.4,0.4c-0.1,0.1-0.2,0.2-0.3,0.3
					c-0.1,0.1-0.2,0.2-0.3,0.4c-0.1,0.1-0.2,0.2-0.3,0.4c-0.2,0.2-0.4,0.4-0.6,0.7c-0.1,0.1-0.1,0.2-0.2,0.3c0,0-0.1,0.1-0.1,0.1
					c-0.1,0.1-0.1,0.1-0.2,0.2c-0.1,0.1-0.1,0.2-0.2,0.3c0,0,0,0-0.1,0.1c-0.1,0.1-0.2,0.2-0.2,0.3c-0.1,0.2-0.2,0.3-0.3,0.5
					c-0.1,0.1-0.2,0.3-0.3,0.4c-0.2,0.2-0.3,0.5-0.4,0.7c-0.1,0.1-0.1,0.2-0.2,0.3C22.1,21,22,21.1,22,21.3
					c-0.1,0.1-0.1,0.3-0.2,0.4c-0.1,0.2-0.2,0.3-0.2,0.5l0,0.1c-0.1,0.2-0.1,0.3-0.2,0.5c-0.1,0.2-0.1,0.3-0.2,0.5
					c-0.1,0.1-0.1,0.3-0.2,0.4c0,0.1-0.1,0.2-0.1,0.3c0,0.1-0.1,0.2-0.1,0.3c0,0,0,0,0,0.1c-0.2,0.5-0.3,1-0.4,1.5
					c0,0.2-0.1,0.3-0.1,0.5c0,0.2-0.1,0.3-0.1,0.5l0,0c-0.8,3.8-0.4,7.6,0.8,11.1c0,0.1,0.1,0.1,0.1,0.2c0,0,0-0.1,0-0.1
					c-1.7-4.8-1.6-10.3,0.8-15.4C25.7,13.7,35.2,9.2,44.2,11z M56.4,38.4c0.3-0.7,0.5-1.3,0.8-2c0.2-0.6,0.4-1.3,0.5-1.9
					c0.2-0.9,0.3-1.9,0.3-2.8c0-0.4,0-0.9,0-1.3c0-0.4,0-0.8-0.1-1.1c-0.2-1.6-0.6-3.2-1.1-4.7c0.5,1.4,0.9,2.8,1,4.3
					c0.1,0.5,0.1,1.1,0.1,1.6c0,0.5,0,0.9,0,1.4c-0.1,0.8-0.2,1.5-0.3,2.3c-0.1,0.6-0.3,1.3-0.5,1.9c-0.2,0.5-0.4,1-0.6,1.6
					c-0.1,0.2-0.2,0.4-0.2,0.6c0,0.1-0.1,0.2-0.1,0.2c0,0.1-0.1,0.1-0.1,0.2c0,0.1-0.1,0.1-0.1,0.2c0,0,0,0,0,0.1c0,0,0,0.1,0,0.1
					c-0.4,0.7-0.8,1.4-1.2,2c-0.5,0.7-1.1,1.4-1.7,2.1c-0.8,0.8-1.7,1.6-2.6,2.2l0,0c-0.3,0.2-0.5,0.4-0.8,0.5
					c-0.3,0.2-0.6,0.3-0.8,0.5c-0.3,0.2-0.6,0.3-0.9,0.4c-0.1,0.1-0.3,0.1-0.4,0.2c-0.3,0.1-0.6,0.3-0.9,0.4
					c-0.8,0.3-1.5,0.5-2.3,0.7c-0.3,0.1-0.6,0.1-0.9,0.2c0,0,0,0,0,0c-0.3,0.1-0.6,0.1-1,0.1c-1.1,0.1-2.3,0.2-3.4,0.1
					c-0.2,0-0.4,0-0.6-0.1c-0.1,0-0.1,0-0.2,0c-0.1,0-0.2,0-0.3,0c-0.4,0-0.7-0.1-1.1-0.2c-0.2,0-0.4-0.1-0.6-0.1
					c-0.4-0.1-0.8-0.2-1.1-0.3c-0.1,0-0.1,0-0.2-0.1c-0.1,0-0.5-0.2-0.6-0.2c-0.1,0-0.2-0.1-0.2-0.1c-0.4-0.1-0.8-0.3-1.1-0.4
					c-0.1,0-0.1-0.1-0.2-0.1c-0.5-0.2-1-0.5-1.5-0.8c-0.4-0.2-0.8-0.5-1.2-0.8c0,0,0,0,0,0c-0.1-0.1-0.3-0.2-0.4-0.3l0,0
					c-0.6-0.5-1.2-1-1.8-1.5c-0.3-0.3-0.6-0.6-0.9-1c-0.4-0.4-0.7-0.8-1-1.3c-0.5-0.8-1-1.5-1.5-2.4c-0.1-0.2-0.2-0.3-0.2-0.5
					c-0.1-0.2-0.2-0.3-0.2-0.5c-0.1-0.2-0.1-0.3-0.2-0.5c0,0.1,0.1,0.2,0.1,0.3c0.5,1.4,1.3,2.7,2.1,3.8c1,1.4,2.3,2.7,3.7,3.8
					c0.5,0.4,1.1,0.8,1.6,1.1c0.5,0.3,1,0.5,1.5,0.8c0.4,0.2,0.9,0.4,1.3,0.5c1.6,0.6,3.3,1,4.9,1.1c5.2,0.4,10.4-1.6,14.1-5.4
					c0.8-0.8,1.5-1.7,2.1-2.6c0.3-0.5,0.6-1,0.8-1.5c0.1-0.2,0.2-0.5,0.4-0.7C56.3,38.5,56.3,38.4,56.4,38.4z"/>
				<path class="st10" d="M54.9,20.8c-0.5-0.7-1-1.5-1.6-2.1c-0.3-0.3-0.5-0.6-0.8-0.9c-1.3-1.3-2.8-2.4-4.5-3.2
					c-0.2-0.1-0.4-0.2-0.5-0.3l-0.2-0.1c-0.6-0.3-1.2-0.5-1.8-0.7c-1.7-0.6-3.4-0.8-5.1-0.9c-4.7-0.1-9.2,1.6-12.6,4.8
					c-1.6,1.5-2.9,3.3-3.9,5.4l-0.1,0.3c-0.9,2-1.4,4.1-1.5,6.2c-0.1,2.4,0.2,4.8,1,7.1c0,0,0,0,0,0c0,0.1,0.1,0.3,0.1,0.4
					c-0.1-0.2-0.1-0.4-0.2-0.6c0-0.1-0.1-0.3-0.1-0.4c0-0.1-0.1-0.2-0.1-0.3c0-0.1-0.1-0.3-0.1-0.4c-0.3-1.1-0.5-2.2-0.5-3.3
					c0,0,0,0,0-0.1c0-0.2,0-0.4,0-0.6c0,0,0,0,0-0.1c0-0.4,0-0.9,0-1.3c0-0.8,0.1-1.6,0.3-2.3c0-0.3,0.1-0.5,0.2-0.8
					c0.1-0.4,0.2-0.8,0.3-1.2c0.1-0.3,0.2-0.5,0.3-0.8c0.1-0.3,0.2-0.5,0.3-0.8l0.3-0.7c0.1-0.3,0.3-0.5,0.4-0.8
					c0.5-0.9,1-1.7,1.6-2.5c0.3-0.3,0.5-0.7,0.8-1c0.1-0.1,0.2-0.2,0.3-0.3c0.1-0.1,0.2-0.2,0.3-0.3c0.1-0.1,0.2-0.2,0.3-0.3
					c0.1-0.1,0.2-0.2,0.3-0.3l0,0c0.4-0.4,0.9-0.8,1.3-1.1c0,0,0,0,0,0c0.2-0.2,0.4-0.3,0.7-0.5c0.9-0.6,1.8-1.2,2.8-1.6
					c0.3-0.2,0.7-0.3,1-0.4c0.1-0.1,0.3-0.1,0.4-0.1c0.3-0.1,0.5-0.2,0.8-0.3c0.1,0,0.3-0.1,0.4-0.1c0.3-0.1,0.5-0.1,0.8-0.2
					c1.4-0.3,2.9-0.5,4.4-0.4c0.4,0,0.9,0,1.3,0.1c0.5,0,1.1,0.1,1.6,0.2c0.5,0.1,1,0.2,1.6,0.4c0.4,0.1,0.8,0.2,1.2,0.4
					c0.2,0.1,0.4,0.2,0.7,0.3c0,0,0.1,0,0.1,0.1c0.1,0.1,0.3,0.1,0.4,0.2l0.2,0.1c0,0,0.1,0,0.1,0.1c0.4,0.2,0.8,0.4,1.3,0.7
					c0,0,0,0,0.1,0c0.3,0.2,0.6,0.4,0.9,0.6c0.4,0.3,0.9,0.6,1.3,0.9c0.5,0.4,1,0.8,1.4,1.2c0.2,0.2,0.4,0.4,0.5,0.6
					C53.7,19.3,54.3,20.1,54.9,20.8c0.6,1.1,1.3,2.3,1.7,3.5C56.2,23.1,55.6,21.9,54.9,20.8z M58.9,38.8c0.1-0.2,0.1-0.3,0.2-0.5
					c0,0,0,0,0,0c0-0.1,0.1-0.2,0.1-0.4c0,0,0,0,0,0c0-0.1,0-0.1,0.1-0.2c0-0.1,0.1-0.2,0.1-0.3c0.1-0.2,0.1-0.4,0.2-0.6
					c0.1-0.2,0.1-0.3,0.1-0.5c0.1-0.4,0.2-0.7,0.3-1.1c0,0,0-0.1,0-0.1c0-0.1,0-0.2,0.1-0.3c0-0.2,0.1-0.3,0.1-0.5
					c0-0.2,0.1-0.3,0.1-0.5c0.1-0.4,0.1-0.7,0.1-1.1c0-0.2,0-0.3,0-0.4c0-0.2,0-0.3,0-0.5c0,0,0,0,0,0c0-0.2,0-0.3,0-0.5
					c0-0.2,0-0.3,0-0.5c0-0.2,0-0.3,0-0.5c0-0.2,0-0.3,0-0.5c0,0,0,0,0,0c0-0.2,0-0.3,0-0.5c0-0.2,0-0.4,0-0.5c0-0.1,0-0.2,0-0.2
					c0-0.1,0-0.1,0-0.2c0-0.2,0-0.4-0.1-0.6c0-0.1-0.1-0.5-0.1-0.5c0-0.1-0.1-0.3-0.1-0.4c0-0.2-0.1-0.3-0.1-0.5
					c-0.2-0.9-0.5-1.8-0.8-2.6c0-0.1,0-0.1-0.1-0.2c0,0,0,0.1,0,0.1c0.4,1.3,0.8,2.6,1,3.9c0.1,0.4,0.1,0.7,0.1,1.1
					c0.2,2.2,0,4.5-0.5,6.7c-0.2,0.9-0.5,1.9-0.9,2.8c-0.1,0.3-0.3,0.6-0.4,0.9c-3.4,7.3-10.5,11.6-18,11.8c-0.7,0-1.5,0-2.2-0.1
					c-2-0.2-4.1-0.7-6-1.5c-0.3-0.1-0.6-0.2-0.9-0.4l-0.1,0c-0.7-0.3-1.3-0.6-1.9-1c-4-2.4-6.8-6-8.4-10.1c0,0,0-0.1,0-0.1
					c0,0,0-0.1,0-0.1c0,0.1,0.1,0.2,0.1,0.3c0.9,2.5,2.4,4.8,4.2,6.8c0.2,0.2,0.5,0.5,0.7,0.7c0,0,0,0,0,0c0.2,0.2,0.5,0.4,0.7,0.6
					c0.1,0.1,0.3,0.2,0.4,0.3c0.1,0.1,0.3,0.2,0.4,0.3c0.1,0.1,0.2,0.2,0.4,0.3c0,0,0.1,0.1,0.1,0.1c0.1,0.1,0.2,0.2,0.3,0.2
					c0.1,0.1,0.3,0.2,0.4,0.3c0,0,0,0,0,0c0,0,0.1,0.1,0.1,0.1c0.3,0.2,0.5,0.3,0.8,0.5c0.1,0.1,0.2,0.1,0.4,0.2
					c0.2,0.1,0.4,0.2,0.5,0.3c0.1,0.1,0.8,0.4,0.9,0.4l0.2,0.1c0.2,0.1,0.3,0.1,0.5,0.2c0.4,0.2,0.9,0.4,1.3,0.5
					c0.2,0.1,0.5,0.2,0.7,0.2c0.1,0,0.3,0.1,0.4,0.1c0.3,0.1,0.7,0.2,1,0.3c0.2,0,0.3,0.1,0.5,0.1c0.3,0.1,0.7,0.1,1,0.2
					c0.3,0.1,0.7,0.1,1,0.1c0.2,0,0.3,0,0.5,0c0.3,0,0.6,0,0.9,0c0.4,0,0.7,0,1.1,0c0,0,0,0,0,0c0.2,0,0.3,0,0.5,0
					c0.2,0,0.3,0,0.5,0l0,0c0.3,0,0.5,0,0.8-0.1c0.2,0,0.4,0,0.5-0.1c0,0,0,0,0.1,0c0.1,0,0.3,0,0.4-0.1c0.1,0,0.1,0,0.2,0
					c0.1,0,0.2,0,0.3,0c0.1,0,0.2,0,0.3-0.1c0.1,0,0.2,0,0.3-0.1c0.3-0.1,0.7-0.1,1-0.2c0.1,0,0.5-0.1,0.5-0.1
					c0.1,0,0.2-0.1,0.4-0.1c0.1,0,0.3-0.1,0.4-0.1c0.2-0.1,0.4-0.1,0.6-0.2c0.1,0,0.2-0.1,0.3-0.1c0.1,0,0.1-0.1,0.2-0.1
					c0.1,0,0.2-0.1,0.4-0.1c0.3-0.1,0.6-0.3,0.9-0.4c0.1-0.1,0.5-0.2,0.5-0.3c0.3-0.1,0.5-0.3,0.8-0.4c0.1-0.1,0.3-0.2,0.4-0.2
					c0.1-0.1,0.3-0.2,0.4-0.3c1.2-0.8,2.4-1.7,3.5-2.8c0.5-0.5,0.9-1,1.3-1.5c0.2-0.3,0.4-0.5,0.6-0.8c0.2-0.2,0.4-0.5,0.5-0.7
					c0-0.1,0.3-0.4,0.3-0.5c0.1-0.1,0.2-0.3,0.2-0.4c0,0,0,0,0-0.1c0.1-0.1,0.2-0.3,0.3-0.4c0.2-0.3,0.3-0.6,0.5-0.9
					c0.1-0.2,0.2-0.3,0.2-0.5l0-0.1C58.7,39.1,58.8,39,58.9,38.8z"/>
				<path class="st11" d="M47.3,14.5l-23.5,9l0.1-0.3c1-2.1,2.3-3.9,3.9-5.4L40.5,13C42.8,13,45.1,13.5,47.3,14.5z"/>
				<path class="st11" d="M57,36.1l-25.9,9.9c-0.6-0.3-1.1-0.7-1.6-1.1l28-10.8C57.4,34.9,57.2,35.5,57,36.1z"/>
				<path class="st11" d="M55.8,38.9C55,40.5,54,41.9,52.9,43l-14.1,5.4c-1.7-0.1-3.3-0.5-4.9-1.1L55.8,38.9z"/>
				<path class="st11" d="M58.4,29.1l-32,12.3C24,38.1,22.8,34,23,29.9l30.2-11.6C56.2,21.2,58,25,58.4,29.1z"/>
				<path class="st12" d="M56.8,24.8c-0.9-2.2-2.2-4.3-4-6c-1.4-1.4-3.1-2.6-5-3.5l-0.2-0.1c-2.2-1-4.5-1.5-6.8-1.5
					c-4.7-0.1-9.2,1.6-12.6,4.8c-1.6,1.5-2.9,3.3-3.9,5.4l-0.1,0.3c-0.9,2-1.4,4.1-1.5,6.2c-0.1,2.3,0.2,4.6,0.9,6.8
					c-0.9-2.4-1.4-4.9-1.2-7.5c0.1-2.1,0.6-4.1,1.5-6.2l0.1-0.3c1-2.1,2.3-3.9,3.9-5.4c3.4-3.2,8-5,12.6-4.8c2.3,0,4.6,0.5,6.8,1.5
					l0.2,0.1c1.9,0.9,3.6,2.1,5,3.5C54.5,20,55.9,22.3,56.8,24.8z"/>
				<g>
					<g>
						<g class="st10">
							<path class="st5" d="M44.8,33.9L44.8,33.9L44.8,33.9z M44.8,33.9L44.8,33.9L44.8,33.9C44.8,33.9,44.8,33.9,44.8,33.9
								C44.8,34,44.9,34,44.8,33.9C44.9,33.9,44.9,33.9,44.8,33.9z"/>
						</g>
						<g class="st13">
							<path d="M35.8,38.3L35.8,38.3L35.8,38.3c0-0.1,0-0.1,0-0.2c0,0,0-0.1,0-0.1c0,0,0-0.1,0-0.1c0-0.1,0-0.1,0.1-0.2
								c0,0,0-0.1,0-0.1c0-0.1,0.1-0.2,0.1-0.2c0,0,0,0,0-0.1l-0.2,0.1c-0.1,0.3-0.1,0.5-0.1,0.6l0,0c0,0.2,0,0.3,0.1,0.4
								c0,0,0,0,0,0C35.8,38.4,35.8,38.4,35.8,38.3z M50,23.5C50,23.5,50,23.5,50,23.5L50,23.5C50,23.5,50,23.5,50,23.5z M38.5,35.6
								C38.5,35.6,38.5,35.6,38.5,35.6C38.4,35.6,38.4,35.6,38.5,35.6C38.4,35.6,38.5,35.6,38.5,35.6l0,0.2
								C38.5,35.7,38.5,35.7,38.5,35.6z M38.5,35.8C38.5,35.8,38.5,35.8,38.5,35.8L38.5,35.8L38.5,35.8
								C38.5,35.8,38.5,35.8,38.5,35.8C38.5,35.8,38.5,35.8,38.5,35.8C38.5,35.8,38.5,35.8,38.5,35.8z M41.2,27.4c0,0,0,0.1,0,0.1
								C41.3,27.5,41.3,27.5,41.2,27.4C41.3,27.5,41.3,27.4,41.2,27.4c0,0,0-0.1,0-0.2c0,0,0-0.1,0-0.1c0,0,0,0,0,0
								c0-0.1,0-0.3,0-0.4c0,0,0,0,0-0.1c0-0.1,0-0.2,0-0.2l-0.1,0.1c0,0.1,0,0.3,0,0.5C41.1,27.1,41.2,27.2,41.2,27.4z"/>
						</g>
					</g>
				</g>
			</g>
		</g>
	</g>
</g>
</svg>
