<?xml version="1.0" encoding="utf-8"?>
<!-- Generator: Adobe Illustrator 24.1.3, SVG Export Plug-In . SVG Version: 6.00 Build 0)  -->
<svg version="1.1" id="Layer_1" xmlns="http://www.w3.org/2000/svg" xmlns:xlink="http://www.w3.org/1999/xlink" x="0px" y="0px"
	 viewBox="0 0 220 220" style="enable-background:new 0 0 220 220;" xml:space="preserve">
<style type="text/css">
	.st0{fill:#CCE4F2;}
	.st1{fill:#FFFFFF;}
	.st2{fill:#155992;}
	.st3{fill:#C1CEDD;}
	.st4{fill:#66AEDE;}
	.st5{fill:#A4C9E7;}
	.st6{fill:url(#SVGID_1_);}
	.st7{display:none;}
	.st8{fill:#B0B8BC;stroke:#CACFD2;stroke-width:0.8069;stroke-miterlimit:10;}
	.st9{fill:#E9F5FF;}
	.st10{fill:#F7C7C5;}
	.st11{fill:#6588AB;}
	.st12{opacity:0.43;fill:#D6E6F2;enable-background:new    ;}
	.st13{fill:#04B8B5;}
</style>
<g>
	<g>
		<g>
			<path class="st0" d="M37.8,72.2L46,83.5c5.2-4.3,11.8-6.9,19-6.9c7.9,0,15,3.1,20.3,8.1l8.4-11.3C86,66.8,75.9,62.7,65,62.7
				C54.7,62.7,45.3,66.2,37.8,72.2z"/>
			<path class="st0" d="M65.7,38.6c-15.6,0-29.8,6.3-40.2,16.5l8.3,11.5c8-8.6,19.3-14,31.9-14c12.9,0,24.5,5.7,32.5,14.7l8.5-11.4
				C96.3,45.2,81.8,38.6,65.7,38.6z"/>
			<path class="st0" d="M65.7,14.8c-21.5,0-40.7,9-52.7,22.9l8.4,11.7C30.6,37,47,28.8,65.7,28.8c19.2,0,36,8.7,45,21.7l8.6-11.6
				C107.4,24.3,87.8,14.8,65.7,14.8z"/>
		</g>
	</g>
	<circle class="st0" cx="64.9" cy="98.4" r="9.5"/>
	<g>
		
			<rect x="1.8" y="48.6" transform="matrix(0.7071 -0.7071 0.7071 0.7071 -15.6407 63.1862)" class="st0" width="133.3" height="3.7"/>
	</g>
	<g>
		
			<rect x="4.1" y="51.1" transform="matrix(0.7071 -0.7071 0.7071 0.7071 -16.7088 65.5364)" class="st1" width="133.3" height="3.7"/>
	</g>
</g>
<g>
	<g>
		<g>
			<path class="st2" d="M180.9,51.9l-22.3,156.4c-1.1,7.1-7.7,12.2-14.9,11.1l-69-9.8c-3.3-0.5-6.3-2.3-8.3-4.6
				c-0.2-0.4-0.6-0.6-0.7-1.1c-1.8-2.6-2.6-5.8-2.1-9.2L85.9,38.3c1.1-7.1,7.7-12.2,14.9-11.1l69,9.8c3.4,0.5,6.4,2.4,8.4,4.9
				c0.1,0.1,0.2,0.4,0.4,0.5C180.5,45.2,181.4,48.5,180.9,51.9z"/>
			<path class="st3" d="M122.5,202.9c-0.2,1.7-1.8,3-3.6,2.6l-16.4-2.4c-1.7-0.2-3-1.8-2.7-3.6l0.2-1.3c0.2-1.8,1.9-3,3.6-2.7
				l16.4,2.4c1.7,0.2,3,1.9,2.6,3.6L122.5,202.9z"/>
			<path class="st3" d="M146.8,48.5c-0.1,0.7-0.7,1.2-1.4,1.1L120.6,46c-0.7-0.1-1.2-0.7-1.1-1.4l0.1-0.6c0.1-0.7,0.7-1.2,1.4-1.1
				l24.8,3.6c0.7,0.1,1.2,0.7,1.1,1.4L146.8,48.5z"/>
			
				<rect x="51.4" y="81.5" transform="matrix(0.1408 -0.99 0.99 0.1408 -15.5291 226.1761)" class="st1" width="142.3" height="81.1"/>
		</g>
		<g>
			<path class="st4" d="M107.1,172.2l1.2-8.1c0.4-2.3,2.4-3.8,4.6-3.4l8.1,1.2c2.3,0.4,3.8,2.4,3.4,4.6l-1.2,8.1
				c-0.4,2.3-2.4,3.8-4.6,3.4l-8.1-1.2C108.4,176.5,106.9,174.3,107.1,172.2z"/>
			<path class="st5" d="M84.2,168.9l1.2-8.1c0.4-2.3,2.4-3.8,4.6-3.4l8.1,1.2c2.3,0.4,3.8,2.4,3.4,4.6l-1.2,8.1
				c-0.4,2.3-2.4,3.8-4.6,3.4l-8.1-1.2C85.4,173.1,83.9,171.1,84.2,168.9z"/>
			<path class="st5" d="M130.1,175.4l1.2-8.1c0.4-2.3,2.4-3.8,4.6-3.4l8.1,1.2c2.3,0.4,3.8,2.4,3.4,4.6l-1.2,8.1
				c-0.4,2.3-2.4,3.8-4.6,3.4l-8.1-1.2C131.3,179.7,129.7,177.6,130.1,175.4z"/>
		</g>
	</g>
	<g>
		
			<linearGradient id="SVGID_1_" gradientUnits="userSpaceOnUse" x1="-238.9313" y1="-410.0844" x2="-238.9313" y2="-394.3141" gradientTransform="matrix(0.99 0.1408 0.1408 -0.99 397.0887 -296.6571)">
			<stop  offset="1" style="stop-color:#E11E19"/>
			<stop  offset="1" style="stop-color:#E11E19"/>
			<stop  offset="1" style="stop-color:#E01E1B"/>
		</linearGradient>
		<path class="st6" d="M109.2,60.7l-8.4-1.2c-2-0.2-3.8,1.1-4.1,3.1L95.5,71c-0.2,2,1.1,3.8,3.1,4.1l8.4,1.2c2,0.2,3.8-1.1,4.1-3.1
			l1.2-8.4C112.7,62.8,111.3,61,109.2,60.7z"/>
		<g>
			<g>
				<g>
					<path class="st1" d="M108.8,67.9c-0.1,0-0.4-0.1-0.4-0.4c-0.1-1.4-0.8-2.6-1.9-3.3c-0.9-0.7-2.3-1.1-3.6-0.8
						c-0.2,0-0.5-0.1-0.5-0.2c0-0.2,0.1-0.4,0.4-0.5c1.5-0.4,3.1,0.1,4.3,1.1c1.2,0.9,1.9,2.1,2,3.8
						C109.2,67.8,109.1,67.9,108.8,67.9C108.9,68,108.9,68,108.8,67.9z"/>
				</g>
			</g>
			<g>
				<g>
					<path class="st1" d="M107.3,68.1c-0.1,0-0.2-0.1-0.2-0.2c-0.1-1.1-0.6-1.9-1.3-2.5c-0.7-0.5-1.5-0.8-2.5-0.6
						c-0.1,0-0.2-0.1-0.2-0.2c0-0.1,0-0.2,0.2-0.4c1.1-0.2,2.3,0,3.1,0.7c0.8,0.7,1.4,1.8,1.4,2.8c0,0.1,0,0.4-0.1,0.4
						C107.5,68.1,107.3,68.1,107.3,68.1z"/>
				</g>
			</g>
			<g>
				<g>
					<g>
						<path class="st1" d="M103.6,70.2L103.6,70.2L103.6,70.2L103.6,70.2z"/>
					</g>
				</g>
				<g>
					<g>
						<path class="st1" d="M106.9,69.4c-0.2,0-0.4,0-0.6,0c-0.1-0.6-0.6-1.2-1.3-1.3c-0.1,0-0.2,0-0.2,0c-0.4-0.8-1.1-1.5-2-1.7
							c-1.4-0.2-2.7,0.7-2.8,2.1c0,0.1,0,0.2,0,0.4c-0.7,0.2-1.4,0.8-1.5,1.7c-0.1,0.8,0.2,1.5,0.9,2l7.6,1.1
							c0.9-0.1,1.8-0.8,1.9-1.8C108.9,70.6,108.1,69.6,106.9,69.4z M106.5,72.9L106.5,72.9L106.5,72.9c0,0-6.5-0.9-6.6-0.9
							c-0.6-0.1-1.1-0.7-1.1-1.3s0.7-1.1,1.3-0.9c0.1,0,0.2,0,0.2,0.1c-0.1-0.4-0.2-0.6-0.1-0.9c0.1-0.9,1.1-1.7,2.1-1.5
							c0.9,0.1,1.7,0.9,1.5,1.9c0.2-0.1,0.5-0.2,0.8-0.1c0.6,0.1,1.1,0.7,0.9,1.3c0,0.1,0,0.1,0,0.2c0.2-0.2,0.7-0.4,1.1-0.2
							c0.7,0.1,1.3,0.8,1.2,1.5C107.9,72.4,107.2,72.9,106.5,72.9z"/>
					</g>
				</g>
			</g>
			<g>
				<path class="st1" d="M105.6,67.6c-0.1,0-0.2-0.1-0.2-0.2c-0.1-0.5-0.7-0.9-1.2-0.9c-0.1,0-0.2-0.1-0.2-0.2s0.1-0.2,0.2-0.2
					c0.7,0,1.5,0.7,1.7,1.3C105.9,67.3,105.8,67.4,105.6,67.6C105.7,67.6,105.6,67.6,105.6,67.6z"/>
			</g>
		</g>
	</g>
</g>
<g>
	<path class="st2" d="M97.4,170.1l0.8-6.4c0.1-0.4-0.1-0.7-0.5-0.8h-0.1l-2.1-0.2c-0.2,0-0.2-0.5-0.4-0.7c-0.1-0.2-0.2-0.4-0.5-0.5
		l-2.3-0.2c-0.2,0-0.4,0-0.5,0.1c-0.4,0.2-0.8,0.7-1.2,0.7l-1.7-0.2c-0.2,0-0.6,0.1-0.6,0.5l-0.8,6.5c-0.1,0.5,0.1,0.9,0.5,1.2
		l8.7,1.2C97,171,97.4,170.1,97.4,170.1z M92.4,168.8c-1.4-0.2-2.5-1.7-2.3-3.1c0.2-1.4,1.7-2.5,3.1-2.3c1.4,0.2,2.4,1.5,2.3,3
		C95.3,167.9,94,169,92.4,168.8L92.4,168.8z"/>
	<circle class="st2" cx="92.8" cy="166.1" r="1.4"/>
</g>
<g>
	<path class="st2" d="M115.2,169.2c-0.1,0.5-0.4,0.8-0.9,0.8l-2.8-0.4l0.5-3.7l3.7,0.5 M116.2,165.4l-4.9-0.6
		c-0.4,0-0.6,0.2-0.6,0.5l0,0l-0.6,5c0,0.4,0.1,0.6,0.5,0.6l3.4,0.5c1.1,0.1,2.1-0.7,2.3-1.8l0.5-3.4
		C116.7,165.8,116.5,165.4,116.2,165.4L116.2,165.4z"/>
	<path class="st2" d="M120.4,165.2l1.1,0.1c0.1-0.6-0.2-1.2-0.8-1.3l-8.1-0.9c-0.6,0-1.1,0.5-1.2,1.1L120.4,165.2z"/>
	<path class="st2" d="M119.4,172.8l-9.1-1.1c-0.1,0.6,0.2,1.2,0.8,1.3l6.6,0.8l-0.2,2l2.5,0.4l0.4-3.2L119.4,172.8z"/>
	<path class="st2" d="M120.7,169.2l-1.8,0.6c-0.2,0-0.6-0.1-0.6-0.5l0,0c-0.1-0.2,0-0.6,0.2-0.7l1.8-0.6c0.2,0,0.6,0.1,0.6,0.5l0,0
		C121.1,168.8,121,169.1,120.7,169.2z"/>
	<path class="st2" d="M121,167l-1.8,0.6c-0.2,0-0.6-0.1-0.6-0.5l0,0c-0.1-0.2,0-0.6,0.2-0.7l1.8-0.6c0.2,0,0.6,0.1,0.6,0.5l0,0
		C121.3,166.5,121.2,166.9,121,167z"/>
	<path class="st2" d="M120.5,171.5l-1.8,0.6c-0.2,0-0.6-0.1-0.6-0.5l0,0c-0.1-0.2,0-0.6,0.2-0.7l1.8-0.6c0.2,0,0.6,0.1,0.6,0.5l0,0
		C120.9,171,120.7,171.4,120.5,171.5z"/>
</g>
<g>
	<g id="Outline_3_">
		<g id="ui_x5F_spec_x5F_header_1_" class="st7">
		</g>
		<path class="st2" d="M142.8,170.2l-0.6-0.1l0.1-1.2c0.2-1.7-0.9-3.2-2.6-3.4c-1.7-0.2-3.2,0.9-3.4,2.6l-0.1,1.2l-0.6-0.1
			c-0.7-0.1-1.3,0.4-1.3,1.1l-0.8,5.9c-0.1,0.7,0.4,1.3,1.1,1.3l7.1,0.9c0.7,0.1,1.3-0.4,1.3-1.1l0.8-5.9
			C144,170.9,143.5,170.3,142.8,170.2z M137.6,168.3c0.1-0.9,1.1-1.7,2-1.5c0.9,0.1,1.7,1.1,1.5,2l-0.1,1.2l-3.6-0.5L137.6,168.3z
			 M141.8,177.4l-7.1-0.9l0.8-5.9l7.1,0.9L141.8,177.4z M138.5,175.2c0.7,0.1,1.3-0.4,1.3-1.1c0.1-0.7-0.4-1.3-1.1-1.3
			c-0.7-0.1-1.3,0.4-1.3,1.1C137.3,174.4,137.8,175,138.5,175.2z"/>
	</g>
</g>
<g>
	<path class="st0" d="M117.8,113.4l1.2-4c0.2-0.7-0.2-1.5-0.9-1.8l-3.3-1.1c-0.7-0.2-1.4,0.1-1.7,0.8l-1.2,4
		c-0.2,0.6-0.7,0.9-1.4,0.9c-1.3,0-2.5,0-3.8,0.4c-0.6,0.1-1.2-0.1-1.5-0.7l-1.9-3.7c-0.4-0.7-1.2-0.9-1.9-0.6l-3.1,1.7
		c-0.7,0.4-0.9,1.2-0.6,1.9l1.8,3.4c0.4,0.7,0.2,1.5-0.2,2c-0.8,0.8-1.5,1.7-2.1,2.6c-0.5,0.7-1.3,0.9-2.1,0.7l-3.6-1.2
		c-0.7-0.2-1.4,0.1-1.7,0.8l-1.1,3.4c-0.2,0.7,0.2,1.5,0.9,1.8l3.9,1.3c0.6,0.2,0.9,0.8,0.9,1.4c0,1.3,0.1,2.6,0.4,3.8
		c0.1,0.6-0.1,1.3-0.7,1.5l-3.7,1.9c-0.7,0.4-0.9,1.2-0.6,1.9l1.7,3.2c0.4,0.7,1.2,0.9,1.9,0.6l3.7-1.9c0.6-0.2,1.2-0.1,1.7,0.4
		c0.9,0.9,1.9,1.8,3,2.5c0.5,0.4,0.8,0.9,0.6,1.5l-1.2,4c-0.2,0.7,0.2,1.5,0.9,1.8l3.3,1.1c0.7,0.2,1.4-0.1,1.7-0.8l1.2-4
		c0.2-0.6,0.7-0.9,1.4-0.9c1.3,0,2.5,0,3.8-0.4c0.6-0.1,1.2,0.1,1.5,0.7l1.9,3.7c0.4,0.7,1.2,0.9,1.9,0.6l3.1-1.7
		c0.7-0.4,0.9-1.2,0.6-1.9l-1.9-3.7c-0.2-0.6-0.1-1.2,0.2-1.7c0.9-0.8,1.8-1.9,2.4-3c0.4-0.5,0.9-0.8,1.5-0.6l3.9,1.3
		c0.7,0.2,1.4-0.1,1.7-0.8l1.1-3.4c0.2-0.7-0.2-1.5-0.9-1.8l-3.9-1.3c-0.6-0.2-0.9-0.8-0.9-1.4c0-1.3-0.1-2.6-0.4-3.8
		c-0.1-0.6,0.1-1.3,0.7-1.5l3.7-1.9c0.7-0.4,0.9-1.2,0.6-1.9l-1.7-3.2c-0.4-0.7-1.2-0.9-1.9-0.6l-3.7,1.9c-0.6,0.2-1.2,0.1-1.7-0.4
		c-0.8-0.9-1.9-1.8-3-2.5C117.9,114.6,117.5,114,117.8,113.4z M116,135.6c-5.2,4.1-12.9,1.7-14.9-4.9c-1.1-3.7,0.1-7.7,3-10
		c5.2-4.1,12.9-1.7,14.9,4.9C120.1,129.2,119,133.2,116,135.6z"/>
</g>
<g>
	<path class="st0" d="M148.9,83.9l1.1-3.3c0.2-0.6-0.1-1.3-0.7-1.4l-2.8-0.9c-0.6-0.2-1.3,0.1-1.4,0.7l-1.1,3.3
		c-0.1,0.5-0.7,0.8-1.2,0.8c-1.1,0-2.1,0-3.2,0.2c-0.5,0.1-1.1-0.1-1.3-0.6l-1.5-3.1c-0.2-0.6-0.9-0.8-1.5-0.5l-2.6,1.3
		c-0.6,0.2-0.8,0.9-0.5,1.5l1.4,2.8c0.2,0.6,0.2,1.3-0.2,1.7c-0.7,0.7-1.3,1.4-1.9,2.1c-0.4,0.6-1.2,0.8-1.8,0.6l-3-0.9
		c-0.6-0.2-1.3,0.1-1.4,0.7l-0.9,2.8c-0.2,0.6,0.1,1.3,0.7,1.4l3.3,1.1c0.5,0.1,0.8,0.7,0.8,1.2c0,1.1,0,2.1,0.2,3.2
		c0.1,0.5-0.1,1.1-0.6,1.3l-3.1,1.5c-0.6,0.2-0.8,0.9-0.5,1.5l1.3,2.6c0.2,0.6,0.9,0.8,1.5,0.5l3.1-1.5c0.5-0.2,1.1-0.1,1.4,0.2
		c0.7,0.8,1.5,1.5,2.5,2.1c0.5,0.2,0.7,0.8,0.5,1.3l-1.1,3.3c-0.2,0.6,0.1,1.3,0.7,1.4l2.8,0.9c0.6,0.2,1.3-0.1,1.4-0.7l1.1-3.3
		c0.1-0.5,0.7-0.8,1.2-0.8c1.1,0,2.1,0,3.2-0.2c0.5-0.1,1.1,0.1,1.3,0.6l1.5,3.1c0.2,0.6,0.9,0.8,1.5,0.5l2.6-1.3
		c0.6-0.2,0.8-0.9,0.5-1.5l-1.5-3.1c-0.2-0.5-0.1-1.1,0.2-1.4c0.8-0.7,1.5-1.5,2.1-2.5c0.2-0.5,0.8-0.7,1.3-0.5l3.3,1.1
		c0.6,0.2,1.3-0.1,1.4-0.7l0.9-2.8c0.2-0.6-0.1-1.3-0.7-1.4l-3.3-1.1c-0.5-0.1-0.8-0.7-0.8-1.2c0-1.1,0-2.1-0.2-3.2
		c-0.1-0.5,0.1-1.1,0.6-1.3l3.1-1.5c0.6-0.2,0.8-0.9,0.5-1.5l-1.3-2.6c-0.2-0.6-0.9-0.8-1.5-0.5l-3.1,1.5c-0.5,0.2-1.1,0.1-1.4-0.2
		c-0.7-0.8-1.5-1.5-2.5-2.1C149.1,84.9,148.8,84.4,148.9,83.9z M146.9,102.4c-4.5,3.4-11,1.3-12.6-4.1c-0.8-3.1,0.2-6.4,2.7-8.3
		c4.5-3.4,11-1.3,12.6,4.1C150.6,97.1,149.5,100.5,146.9,102.4z"/>
</g>
<g>
	<g>
		<g>
			<path class="st8" d="M129,124.7"/>
			<path class="st8" d="M126.2,127"/>
		</g>
		<g>
			<g>
				<g>
					<path id="XMLID_40_" class="st9" d="M146.7,140.4c-0.8,6.2-10.7,15.2-15.3,14.6L97,150.2l9.6-68.7l47.4,6.6L146.7,140.4
						L146.7,140.4z"/>
				</g>
			</g>
			<path class="st10" d="M130.1,125.7"/>
			<path class="st10" d="M127.3,128.2"/>
		</g>
		<path class="st11" d="M144.6,102l-30.3-4.5c-0.2,0-0.4-0.2-0.4-0.5l0.1-0.6c0-0.2,0.2-0.4,0.5-0.4l30.3,4.5c0.2,0,0.4,0.2,0.4,0.5
			l-0.1,0.6C145,101.9,144.8,102,144.6,102z"/>
		<path class="st11" d="M143.7,107.3l-30.3-4.5c-0.2,0-0.4-0.2-0.4-0.5l0.1-0.6c0-0.2,0.2-0.4,0.5-0.4l30.3,4.5
			c0.2,0,0.4,0.2,0.4,0.5l-0.1,0.6C144.2,107,144,107.3,143.7,107.3z"/>
		<path class="st11" d="M143,112.2l-30.3-4.5c-0.2,0-0.4-0.2-0.4-0.5l0.1-0.6c0-0.2,0.2-0.4,0.5-0.4l30.3,4.5c0.2,0,0.4,0.2,0.4,0.5
			l-0.1,0.6C143.5,112.1,143.3,112.3,143,112.2z"/>
		<path class="st11" d="M142.2,117.9l-30.3-4.5c-0.2,0-0.4-0.2-0.4-0.5l0.1-0.6c0-0.2,0.2-0.4,0.5-0.4l30.3,4.5
			c0.2,0,0.4,0.2,0.4,0.5l-0.1,0.6C142.7,117.8,142.4,118,142.2,117.9z"/>
		<path class="st11" d="M141.2,124.1l-30.3-4.5c-0.2,0-0.4-0.2-0.4-0.5l0.1-0.6c0-0.2,0.2-0.4,0.5-0.4l30.3,4.5
			c0.2,0,0.4,0.2,0.4,0.5l-0.1,0.6C141.7,124,141.5,124.1,141.2,124.1z"/>
		<path class="st11" d="M140.2,131.1l-30.3-4.5c-0.2,0-0.4-0.2-0.4-0.5l0.1-0.6c0-0.2,0.2-0.4,0.5-0.4l30.3,4.5
			c0.2,0,0.4,0.2,0.4,0.5l-0.1,0.6C140.7,131,140.4,131.1,140.2,131.1z"/>
		<path class="st11" d="M139.2,137.5l-30.3-4.5c-0.2,0-0.4-0.2-0.4-0.5l0.1-0.6c0-0.2,0.2-0.4,0.5-0.4l30.3,4.5
			c0.2,0,0.4,0.2,0.4,0.5l-0.1,0.6C139.7,137.4,139.5,137.6,139.2,137.5z"/>
	</g>
	<polygon class="st12" points="99.2,135.3 107.7,82 154,88.1 	"/>
</g>
<polygon class="st13" points="158,218 130.8,190.8 139.8,181.7 158,199.9 198.7,159.1 207.8,168.1 "/>
</svg>
