<svg xmlns="http://www.w3.org/2000/svg" xmlns:xlink="http://www.w3.org/1999/xlink" viewBox="0 0 76 76"><defs><style>.cls-1{fill:#fff;}.cls-2{fill:#f9d2d1;}.cls-3{isolation:isolate;}.cls-4{fill:#e95653;}.cls-5{fill:none;}.cls-6{opacity:0.15;mix-blend-mode:multiply;}.cls-7{clip-path:url(#clip-path);}.cls-8{clip-path:url(#clip-path-2);}.cls-9{fill:#f08e8c;}</style><clipPath id="clip-path"><path class="cls-1" d="M52.993,52.282c-.021,4.733-6.4,12.469-9.948,12.454l-26.223-.112.223-52.4,36.118.154L52.992,52.31Z"/></clipPath><clipPath id="clip-path-2"><path class="cls-2" d="M49.4,16.425a1.185,1.185,0,0,1-1.254,1.155,1.372,1.372,0,0,1-.757-.237,1.143,1.143,0,0,1,.721-2.1A1.267,1.267,0,0,1,49.4,16.425Z"/></clipPath></defs><g class="cls-3"><g id="Layer_1" data-name="Layer 1"><circle class="cls-4" cx="38" cy="38" r="37.5"/><path class="cls-5" d="M17.046,12.6l36.117.155s11.8,6.647,11.8,7.078h3.743a1.685,1.685,0,0,1,1.686,1.688l2.047,1.631a37.5,37.5,0,1,0-44.409,51L16.822,65Z"/><path class="cls-6" d="M75.5,38a37.365,37.365,0,0,0-3.062-14.851l-2.047-1.631a1.685,1.685,0,0,0-1.686-1.688H64.962c0-.431-11.8-7.078-11.8-7.078L17.046,12.6,16.822,65l11.207,9.148A37.5,37.5,0,0,0,75.5,38Z"/><path class="cls-1" d="M52.993,52.282c-.021,4.733-6.4,12.469-9.948,12.454l-26.223-.112.223-52.4,36.118.154L52.992,52.31Z"/><g class="cls-7"><path class="cls-2" d="M41.2,21.786v.228c0,.1.036.181.083.181l8.691.034c.046,0,.084-.081.084-.182V21.82c0-.1-.037-.182-.083-.182l-8.691-.033C41.239,21.605,41.2,21.686,41.2,21.786Z"/><path class="cls-2" d="M41.2,20.09v.227c0,.1.036.182.083.182l8.691.033c.046,0,.084-.081.084-.181v-.227c0-.1-.037-.182-.083-.182l-8.691-.033C41.239,19.908,41.2,19.99,41.2,20.09Z"/><path class="cls-2" d="M41.2,23.313v.227c0,.1.036.182.083.182l8.691.033c.046,0,.084-.081.084-.181v-.227c0-.1-.037-.182-.083-.182l-8.691-.033C41.239,23.132,41.2,23.213,41.2,23.313Z"/><path class="cls-2" d="M34.36,22.98h.32a.256.256,0,0,1,.256.256V49.4a.256.256,0,0,1-.256.256h-.323A.252.252,0,0,1,34.1,49.4V23.235a.256.256,0,0,1,.256-.256Z" transform="translate(-1.929 70.699) rotate(-89.781)"/><rect class="cls-2" x="34.105" y="25.44" width="0.831" height="26.676" rx="0.256" transform="translate(-4.389 73.15) rotate(-89.781)"/><rect class="cls-2" x="34.105" y="27.899" width="0.831" height="26.676" rx="0.256" transform="translate(-6.849 75.6) rotate(-89.781)"/><path class="cls-2" d="M20.5,21.786v.228c0,.1.037.181.083.181l8.692.034c.046,0,.084-.081.084-.182V21.82c0-.1-.037-.182-.083-.182l-8.691-.033C20.542,21.605,20.505,21.686,20.5,21.786Z"/><path class="cls-2" d="M20.5,20.09v.227c0,.1.037.182.083.182l8.692.033c.046,0,.084-.081.084-.181v-.227c0-.1-.037-.182-.083-.182l-8.691-.033C20.542,19.908,20.505,19.99,20.5,20.09Z"/><path class="cls-2" d="M20.5,23.313v.227c0,.1.037.182.083.182l8.692.033c.046,0,.084-.081.084-.181v-.227c0-.1-.037-.182-.083-.182l-8.691-.033C20.542,23.132,20.505,23.213,20.5,23.313Z"/><path class="cls-2" d="M21.183,33.526v.246c0,.109.06.2.136.2l14.182.054c.075,0,.137-.088.137-.2v-.247c0-.109-.06-.2-.136-.2L21.32,33.329C21.245,33.329,21.183,33.417,21.183,33.526Z"/><path class="cls-2" d="M20.709,47.014v.159a.143.143,0,0,0,.155.127l16.151.062a.143.143,0,0,0,.156-.127v-.159a.143.143,0,0,0-.155-.127l-16.151-.062A.143.143,0,0,0,20.709,47.014Z"/><path class="cls-2" d="M43.1,47.05v.137c0,.061.013.11.029.11l3,.011c.016,0,.029-.049.029-.109v-.137c0-.061-.013-.11-.029-.11l-3-.011C43.115,46.941,43.1,46.99,43.1,47.05Z"/><path class="cls-2" d="M20.709,49.813v.159a.143.143,0,0,0,.155.127l16.151.062a.143.143,0,0,0,.156-.127v-.159a.143.143,0,0,0-.155-.127l-16.151-.062A.144.144,0,0,0,20.709,49.813Z"/><path class="cls-2" d="M43.1,49.849v.137c0,.061.013.11.029.11l3,.011c.016,0,.029-.049.029-.109v-.137c0-.061-.013-.11-.029-.11l-3-.011C43.115,49.74,43.1,49.789,43.1,49.849Z"/><path class="cls-2" d="M20.709,52.612v.159a.143.143,0,0,0,.155.127l16.151.062a.143.143,0,0,0,.156-.126v-.159a.143.143,0,0,0-.155-.128l-16.151-.062A.144.144,0,0,0,20.709,52.612Z"/><path class="cls-2" d="M43.1,52.648v.137c0,.061.013.11.029.11l3,.011c.016,0,.029-.049.029-.109V52.66c0-.061-.013-.11-.029-.11l-3-.011C43.115,52.539,43.1,52.588,43.1,52.648Z"/><path class="cls-2" d="M50.279,18.238l-4.452-.056a.033.033,0,0,1-.034-.032l0-.1a.032.032,0,0,1,.034-.031l4.451.055a.036.036,0,0,1,.035.032v.105A.031.031,0,0,1,50.279,18.238Z"/><path class="cls-2" d="M49.4,16.425a1.185,1.185,0,0,1-1.254,1.155,1.372,1.372,0,0,1-.757-.237,1.143,1.143,0,0,1,.721-2.1A1.267,1.267,0,0,1,49.4,16.425Z"/><g class="cls-8"><path class="cls-2" d="M48.125,16.242c.182,0-.891,1.159.379,1.008.359-.043.048.37.048.37a1.491,1.491,0,0,1-1.873-.894C46.659,15.388,48.125,16.242,48.125,16.242Z"/></g><path class="cls-2" d="M47.414,47.756a.635.635,0,0,1-.3.068.528.528,0,0,1-.545-.5h-.128l0-.136h.114a.511.511,0,0,1,0-.075.994.994,0,0,1,0-.1h-.116l0-.136.138,0a.654.654,0,0,1,.2-.363.518.518,0,0,1,.361-.127.592.592,0,0,1,.26.058l0,.157a.5.5,0,0,0-.271-.079.321.321,0,0,0-.234.095.507.507,0,0,0-.14.261l.525.006,0,.136-.548-.006a.967.967,0,0,0,0,.179l.55.007,0,.136-.533-.006c.055.237.18.358.376.36a.575.575,0,0,0,.286-.081Z"/><path class="cls-2" d="M47.244,50.47a.623.623,0,0,1-.3.068.529.529,0,0,1-.545-.5l-.128,0,0-.136h.114a.506.506,0,0,1-.005-.074.782.782,0,0,1,.005-.105l-.117,0,0-.136.139,0a.645.645,0,0,1,.2-.363.516.516,0,0,1,.36-.127.6.6,0,0,1,.26.058l0,.157a.514.514,0,0,0-.272-.079.326.326,0,0,0-.234.095.515.515,0,0,0-.14.261l.525.007,0,.136-.548-.007a.975.975,0,0,0,0,.18l.549.006,0,.137-.532-.007q.081.357.375.36a.572.572,0,0,0,.286-.081Z"/><path class="cls-2" d="M47.244,53.524a.647.647,0,0,1-.3.068.53.53,0,0,1-.545-.5h-.128l0-.136h.114a.511.511,0,0,1-.005-.075.8.8,0,0,1,.005-.1h-.117l0-.136h.139a.639.639,0,0,1,.2-.362.511.511,0,0,1,.36-.127.6.6,0,0,1,.26.057l0,.158a.505.505,0,0,0-.272-.079.325.325,0,0,0-.234.094.522.522,0,0,0-.14.262l.525.006,0,.136-.548-.007a.975.975,0,0,0,0,.18l.549.007,0,.136-.532-.007q.081.357.375.361a.572.572,0,0,0,.286-.081Z"/><path class="cls-2" d="M25.7,55.207c.011.012.039.008.034-.021l-.044-.024Z"/><path class="cls-2" d="M25.789,55.02c-.02-.035-.057-.074-.1-.053.042.034.023.041.074.079,0,.029-.017.05-.034.044.012.01-.012.043.016.061a.1.1,0,0,0,.014-.134C25.77,55.007,25.781,55.017,25.789,55.02Z"/><path class="cls-2" d="M24.744,52.451l.01.017Z"/><path class="cls-2" d="M23.143,51.673a.028.028,0,0,0,.021-.007A.06.06,0,0,0,23.143,51.673Z"/><path class="cls-2" d="M22.839,51.587l.019,0C22.851,51.586,22.844,51.583,22.839,51.587Z"/><path class="cls-2" d="M24.744,52.451l-.026-.043C24.706,52.417,24.729,52.433,24.744,52.451Z"/><path class="cls-2" d="M25.671,54.639a.072.072,0,0,0,.014.024l-.006-.023Z"/><polygon class="cls-2" points="25.304 53.016 25.313 53.028 25.335 53.027 25.304 53.016"/><path class="cls-2" d="M25.614,53.546c0-.013-.042,0-.059,0a.046.046,0,0,1,.037.016A.062.062,0,0,0,25.614,53.546Z"/><path class="cls-2" d="M25.813,54.491l.008.016Z"/><path class="cls-2" d="M25.033,52.669l.006-.013A.054.054,0,0,0,25.033,52.669Z"/><path class="cls-2" d="M25.472,55.835l.007,0A.006.006,0,0,0,25.472,55.835Z"/><polygon class="cls-2" points="25.798 55.217 25.798 55.227 25.82 55.231 25.798 55.217"/><path class="cls-2" d="M22.261,51.544h0C22.278,51.539,22.269,51.54,22.261,51.544Z"/><path class="cls-2" d="M19.28,55.3c.026-.063.059.09.084,0C19.35,55.305,19.292,55.22,19.28,55.3Z"/><path class="cls-2" d="M25.676,54.624l0-.024A.056.056,0,0,0,25.676,54.624Z"/><polygon class="cls-2" points="19.364 55.294 19.364 55.294 19.367 55.285 19.364 55.294"/><path class="cls-2" d="M21,51.962a.039.039,0,0,0,.02.008A.043.043,0,0,0,21,51.962Z"/><path class="cls-2" d="M21.938,51.673h-.025A.069.069,0,0,0,21.938,51.673Z"/><path class="cls-2" d="M20.6,52.29c-.012.005-.019,0-.03.019h.007C20.579,52.3,20.584,52.294,20.6,52.29Z"/><polygon class="cls-2" points="20.209 52.643 20.221 52.641 20.231 52.628 20.209 52.643"/><path class="cls-2" d="M24.72,57.078a.13.13,0,0,1,.041.01C24.736,57.073,24.782,57.019,24.72,57.078Z"/><path class="cls-2" d="M25.693,54.637c-.01,0-.015-.006-.017-.013l0,.016A.032.032,0,0,0,25.693,54.637Z"/><path class="cls-2" d="M20.771,52.544l-.065.041A.345.345,0,0,0,20.771,52.544Z"/><path class="cls-2" d="M21.494,57.727l.018,0A.017.017,0,0,0,21.494,57.727Z"/><path class="cls-2" d="M20.542,52.741a.127.127,0,0,0-.05.01v.013Z"/><path class="cls-2" d="M25.019,56.644c-.045.057.019.057.034.087-.042.079-.055.009-.093.017-.02.052-.011.115-.041.143-.009,0-.016,0-.018-.013-.009.069-.113.128-.124.213a.062.062,0,0,1-.016,0,.144.144,0,0,1,.058.043c-.025.023-.025.066-.058.05.017-.013.009-.024.009-.038l-.017.034c-.056-.014.025-.044,0-.07-.039.057-.073.141-.121.166-.039-.028.08-.094,0-.079l.072-.041c-.1-.013.039-.028-.056-.049-.087.058-.068.1-.159.153,0,.034.03.025.028.06-.094.128-.165-.024-.216.092,0,.041.017.1-.068.111l-.005-.059c-.09.048-.011.1-.121.121.006-.029.06-.057.044-.055-.08,0-.027.051-.073.08l-.032-.036c-.095.05-.185.141-.3.191,0-.015.015-.036-.017-.04a.951.951,0,0,1-.454.107l-.045.054c-.012,0-.027-.014-.015-.024-.058-.006,0,.026-.021.046s-.047-.017-.029-.032a.548.548,0,0,1-.385.076l.02-.013c-.082-.012-.09.088-.169.055l.015-.008a1.21,1.21,0,0,1-.511-.081c-.036.054-.17-.052-.2.021-.091-.065-.059-.072-.19-.133-.036-.012-.069.032-.117.024l.012-.041-.075.02-.015-.059-.046-.005c.016.008.029.03.022.041-.074,0-.148-.088-.139-.111l-.164-.038c.012-.014.039-.007.063-.008-.1,0,.006-.047-.084-.046,0,.014-.017.02-.022.027a.414.414,0,0,0-.164-.114l.026-.018c-.1-.064-.218-.13-.327-.212.03.04-.01.074-.045.053l.015-.045c-.039.006.023.039-.042.033-.035-.038.007-.062.038-.054l-.056-.029c.006-.013.022-.009.036-.019-.038,0-.048-.1-.108-.094l.007-.012c-.1-.088-.147-.13-.225-.208-.031.024-.054-.014-.1-.019a1.347,1.347,0,0,0-.132-.242c-.055-.047-.038,0-.075-.012.027-.025-.027-.107.021-.077-.062-.1-.092-.12-.18-.245,0,.022,0,.041-.018.038-.017-.022-.014-.063,0-.067l.007.005c-.13-.132-.057-.4-.164-.5l.005.006-.072-.125c-.01-.063.036.031.045-.02-.1-.131-.033-.233-.1-.347.095-.1-.039-.338.042-.466l-.025.006c-.022-.034.016-.039.023-.063-.02,0-.024.034-.036.013a1.806,1.806,0,0,1,.218-.831c.041-.094-.1-.1,0-.205l.03.053A2.744,2.744,0,0,1,20.1,53.2c0,.016.011.024,0,.041.051-.018.1-.128.076-.146.022-.024.024.008.047,0,.042-.022.032-.116.074-.112.007,0,0,.016,0,.024.006-.032.092-.095.045-.1.067-.044.087-.124.149-.151,0-.058.113-.075.082-.128.038.05.132-.056.157-.106,0,.025.047-.01.047.022.044-.034.079-.074.052-.094.122,0,.143-.167.243-.117a1.711,1.711,0,0,1,.394-.275c.016.055-.153.072-.119.13a.837.837,0,0,1,.319-.2c.037-.005-.012.033-.02.047.129-.07.267-.071.385-.131,0,.006-.012.015-.023.021.024-.005.059,0,.051-.027l-.023.011c-.048-.034.085-.1.087-.122-.03.087.131,0,.077.112.015-.008.034-.024.028-.042.026,0,.035.011.012.036.088-.03.054-.051.136-.057,0,.014-.015.02-.022.037a.193.193,0,0,1,.15-.05c0,.008.005.018-.016.019a.845.845,0,0,1,.339-.04c-.043.058.044.022.046.073a.594.594,0,0,1,.071-.008l-.025-.029c.061.01.121-.019.172.006l-.049.014.117.008-.062-.029c.067-.017,0-.066.085-.039-.019,0,.063.008.088.049h0a.135.135,0,0,1,.112.006c.008.019-.023.053-.018.066.04-.033.145.022.2-.008a.042.042,0,0,0-.022.038l.035-.025c.024.021.026.028.015.047.08.035-.005-.072.084-.009-.009,0-.007.006-.025.005.093.049.2.046.278.107,0,.06-.081-.024-.069.03a1.424,1.424,0,0,1,.391.151l-.019-.018c.055-.052.068.081.142.09-.016-.006-.04.021-.032.017a1.488,1.488,0,0,0,.284.164l-.025,0a1.568,1.568,0,0,0,.136.148c.026,0,.048.023.052-.011.049.2.285.21.309.4-.012-.015-.041-.026-.032-.014l.095.1c.02-.027,0-.025.008-.063a.14.14,0,0,1,.082.053c-.055-.037-.04.029-.042.062.006-.01.019-.008.026-.015-.01.092.061-.025.08.08l-.017.005c.026.026.063.044.079.081-.023.033-.035-.025-.063-.012.03.046.121.059.108.123-.019-.016-.034-.047-.056-.062a.156.156,0,0,0,.012.108v0l.023.092v-.026c.114.022.082.116.169.182-.086-.064-.037,0-.078.007,0,.027,0,.065-.017.06.047.029,0,.076.067.117-.011.007.015.044-.02.045.029.05.017-.019.035-.02.074.07,0,.211.094.317.045.1.091.114.13.213-.016.037-.053-.021-.053-.021a.248.248,0,0,0,.02.148c-.012-.009-.022,0-.036.02.006.041.051.024.034.08a.181.181,0,0,1-.056-.037l.057.145c-.022.014-.037-.03-.053-.047.013.056.031.146.064.164l.015-.037c0,.021-.032.011-.039,0a.044.044,0,0,1,.022-.074l.011.036c.076-.04-.021-.147-.021-.219l.059.026-.051-.072c.013-.017.044-.032.056,0,.023-.057-.027-.045,0-.094,0-.006.007,0,.01,0l-.025-.049c.014.008.039-.015.036.018.018-.1-.066-.144-.029-.187l0,.007c-.046-.125-.043-.005-.114-.088l.084-.089-.044,0c0-.013-.006-.04.012-.04-.041-.041-.016.013-.049-.008.024-.075-.067-.165-.011-.2-.038-.011,0,.067-.047.009.062-.043-.039-.071-.028-.138.041,0,.042.064.052,0-.07-.011-.027-.115-.063-.156-.047.019-.067-.09-.119-.159.022-.005-.054-.152-.081-.23l.009,0c-.053.014-.082-.063-.128-.1a.058.058,0,0,1,.073.006l-.033-.046a.107.107,0,0,1-.066-.036l.04-.011c-.049-.059-.124-.1-.167-.185-.03.019-.025.118-.11.061.012-.016.035-.04.058-.025-.007-.005-.032-.013-.038-.031l.052.009c-.019-.041-.036,0-.057-.027.021-.017,0-.032.017-.042s.012.03.029.033a.176.176,0,0,1-.038-.105.03.03,0,0,1-.049.006c-.052-.054.006-.042-.013-.084-.025,0-.047-.047-.076-.019-.016-.015-.006-.031,0-.045-.041-.013-.138-.118-.134-.056l0,.008,0,0h0c-.115-.057-.19-.18-.3-.244l.008-.011a.778.778,0,0,0-.206-.084c-.019-.011-.032-.048-.016-.058a.258.258,0,0,1-.129-.068c.063,0-.008-.027.061.011-.061-.043-.068-.07-.156-.072.04-.019-.033-.064-.07-.07l.038.045a.464.464,0,0,1-.1-.048l.036-.034c-.128-.108-.293-.012-.377-.132-.048.021.075.042.029.069-.066-.023-.121-.105-.143-.111-.09-.047-.1.041-.2,0,.01.019.013.063-.063.068-.067-.017-.074-.081-.027-.087.017,0,.024.007.022.012.024,0,.055,0,.03-.026l-.012.015c-.032-.022-.129-.035-.1-.058-.056.007-.026.023.012.037a1,1,0,0,0-.233-.043c.014.009.026.029.011.028-.136-.026-.062.029-.154.031-.052-.027.02-.058-.074-.042-.057-.019-.012-.044.012-.056a.471.471,0,0,1-.213-.021l.046-.016a.254.254,0,0,1-.073.011l.028.032c-.027,0-.05,0-.051-.017-.026.023.025.053-.027.086-.037-.014-.105.022-.122-.018.113,0-.017-.043.077-.056a.144.144,0,0,1-.067,0c-.005,0,0-.01.01-.012-.112-.024-.044.056-.154.071.011-.026-.032-.042-.05-.034.045-.006.028.037-.009.062-.074-.008-.074.026-.11.03l.043,0c-.009.026-.045.028-.09.049-.008-.018.04-.024.022-.028-.043.056-.13-.013-.2.035-.039-.007-.016-.044-.05-.047-.074.051-.1,0-.178.051.036.022.037.013-.011.065l.131-.072-.074.078c.042-.014.081-.054.109-.054-.035.037-.032.03,0,.049-.072-.027-.1.068-.178.06l-.027-.077c-.115,0-.16.108-.291.15l.046-.007c0,.037-.074.041-.108.072-.009-.026-.039-.023-.064-.029.012.017-.088.051-.071.105h-.071c-.1.046-.068.128-.156.184.009-.043-.041-.03,0-.09-.029.021-.058.036-.047.052-.027,0-.057.088-.1.087-.005.018.009.044-.024.066-.007,0-.008-.011-.008-.011s-.036.054.009.054c-.133.011-.223.2-.333.223l-.146.192c0-.009-.01-.009,0-.017-.078.061.026.1-.061.165-.069.018.015-.061-.019-.043-.08-.04-.072.111-.154.145l0-.018c-.056.032-.044.137-.1.212a.017.017,0,0,0-.012-.007.958.958,0,0,1-.057.275c-.02-.04,0-.044-.04-.045-.012.038.057.015.033.089-.029.015-.07.059-.106.053l.029-.07c-.063.015-.038.09-.059.124l-.018-.012c-.033.112.017.132-.028.246l.02-.008c.03.079-.044.046-.024.121l-.057.006c0,.047.01.163.006.242a.621.621,0,0,1-.037-.21c-.012.044-.034.149-.013.176,0-.018-.008-.043,0-.058a.383.383,0,0,1,.025.22c-.1-.03-.062.221-.139.28.026.159-.027.313-.006.5.078-.072,0,.054.088.035.008.041.012.056.006.061l-.03.134c-.019.034-.024-.038-.043-.031.009.095-.029.045-.041.111.028-.018.048.025.045.081l.026-.083c.063.121-.046.127.028.248l-.036-.035c.032.063.063.248.155.287,0,.014-.021.037-.037.011.041.162.2.307.221.437h-.023c.019.024.055.03.058.072-.009,0-.025,0-.019.012s.074.051.084.092l-.038-.018c.058.153.175.178.267.272-.048.035.008.151.044.2l-.008,0a1.38,1.38,0,0,0,.393.295c.031.125.259.25.384.372-.017-.023.029-.038.058-.027.028.031.115.021.082.066l-.012-.009c0,.062.076.1.135.123l.043-.06c.1.177.414.139.468.256a1.235,1.235,0,0,0,.136,0l-.012.037a1.161,1.161,0,0,0,.3.076l-.034.023c.079.015.119-.1.189-.088l.013.061a.809.809,0,0,0,.408.029.029.029,0,0,1-.029.027c.065.011.253.034.226-.044,0,.051.142,0,.211-.031l-.007.04c.056-.058.056-.072.138-.1.021,0,.023.028-.006.022.071.01.047-.044.131-.036l-.026.029c.069-.009.062-.019.093-.057s.129-.023.148.008a.081.081,0,0,1,.075-.06c.009.011,0,.022-.009.028.122,0,.149-.1.237-.086a.03.03,0,0,0,.021.017,1.209,1.209,0,0,1-.153.05c.011.034.085.013.043.081.05-.047.127-.137.2-.147l.014.008L23.871,58a.073.073,0,0,0,.042-.021.27.27,0,0,0,.059-.017c.02.023.086-.024.12-.039-.019-.034.028-.049-.028-.058.006,0,0,.007-.026.02l-.013.01v0l-.083.043a.093.093,0,0,1,.086-.058l.019-.079c.069.028.172.009.2.029.086-.081.229-.149.241-.256.02-.027.042-.005.058,0-.01.017-.029.029-.031.044.041-.054.15-.121.13-.17.079-.032,0,.066.076-.012v.023c.224-.088.174-.332.408-.443-.016.008-.024.013-.033.009a5.03,5.03,0,0,0,.483-.691c.047-.064.021-.086.019-.138h.046l-.016-.094c0-.118.173-.15.142-.313l-.032.01c.018-.049.024-.163.054-.147,0-.007-.025-.023,0-.04l.021,0a.841.841,0,0,0-.012-.132c.03-.1.083.03.109-.115,0-.056-.041-.16-.058-.142s-.022.054-.044.053l0-.049c-.063-.016-.123-.056-.184.05l.027.083-.034.021.007-.066c-.034.033-.012.06,0,.089a.056.056,0,0,0-.039.027l.049.088c-.027,0-.042-.044-.067,0,.019.04.064-.023.067.04-.037.03-.058.014-.045.062-.017,0-.025-.009-.028-.027.01.042-.017.1.011.13-.043.029-.026.132-.085.109a.206.206,0,0,1,.012.115c-.046-.087-.051.126-.117.08.047.072-.047.169-.05.263,0-.007-.008-.02,0-.025-.026.041-.05.045-.074.067.045.031.016.1.023.154-.076.024-.036-.064-.089-.073.04.02-.015.11.026.112-.051.022-.034.026-.083.021.052.044-.011.044,0,.1-.067.034-.062-.023-.088.047C25,56.709,25.019,56.644,25.019,56.644Zm-1.263,1.13h0l.033-.014Zm-.138.051.06-.02c.01.011.009.025-.005.03C23.678,57.824,23.642,57.828,23.618,57.825Zm.4.128c-.02.016-.031.013-.038.007l.038-.023v-.006A.054.054,0,0,1,24.019,57.953Z"/><path class="cls-2" d="M24.038,57.888l.008-.008h-.017l0,.015Z"/><polygon class="cls-2" points="24.756 52.471 24.754 52.468 24.756 52.476 24.756 52.471"/><polygon class="cls-2" points="21.651 57.764 21.648 57.773 21.663 57.769 21.651 57.764"/><path class="cls-2" d="M25.205,53.182a.028.028,0,0,0,0,.014Z"/><path class="cls-2" d="M25.374,53.49l.009.051A.346.346,0,0,0,25.374,53.49Z"/><path class="cls-2" d="M25.47,53.743l.017,0h0Z"/><path class="cls-2" d="M22.009,51.924l-.01,0C21.977,51.939,21.992,51.933,22.009,51.924Z"/><path class="cls-2" d="M23.271,51.846l-.044.007C23.249,51.862,23.266,51.867,23.271,51.846Z"/><polygon class="cls-2" points="20.778 52.54 20.778 52.539 20.771 52.544 20.778 52.54"/><path class="cls-2" d="M23.168,51.844a.092.092,0,0,0,.059.009A.146.146,0,0,0,23.168,51.844Z"/><polygon class="cls-2" points="25.681 54.877 25.68 54.89 25.686 54.891 25.681 54.877"/><path class="cls-2" d="M25.686,54.891l0,.015A.04.04,0,0,0,25.686,54.891Z"/><path class="cls-2" d="M25.7,54.936l-.008-.03C25.689,54.916,25.688,54.929,25.7,54.936Z"/><path class="cls-2" d="M25.673,54.523l-.014,0A.05.05,0,0,0,25.673,54.523Z"/><path class="cls-2" d="M25.653,54.416c0,.026-.02.068-.006.1l.012,0C25.636,54.507,25.68,54.437,25.653,54.416Z"/><path class="cls-2" d="M25.718,53.925l.014.1c.011-.02.024-.048.039-.006C25.783,53.885,25.746,54.048,25.718,53.925Z"/><path class="cls-2" d="M25.636,53.639c.024.046.02-.009.029-.01C25.64,53.6,25.633,53.6,25.636,53.639Z"/><path class="cls-2" d="M24.231,52.057l.022-.029C24.216,52.012,24.246,52.04,24.231,52.057Z"/><polygon class="cls-2" points="23.792 52.043 23.817 52.077 23.845 52.055 23.792 52.043"/><polygon class="cls-2" points="23.654 51.726 23.672 51.727 23.605 51.716 23.654 51.726"/><path class="cls-2" d="M20.248,52.55l.039.022C20.3,52.548,20.271,52.509,20.248,52.55Z"/><path class="cls-2" d="M19.472,53.909a.064.064,0,0,0-.038.081C19.445,53.956,19.47,53.927,19.472,53.909Z"/><polygon class="cls-2" points="21.147 57.934 21.112 57.933 21.172 57.948 21.147 57.934"/><polygon class="cls-2" points="20.713 54.784 21.201 54.804 21.812 56.083 22.792 55.199 23.619 54.293 24.42 53.337 24.873 53.461 24.129 54.194 23.535 55.07 22.791 55.809 22.012 56.503 21.602 56.488 21.093 55.673 20.713 54.784"/></g><path class="cls-4" d="M69.9,19.15a1.688,1.688,0,0,0-1.192-.494H26.7a1.692,1.692,0,0,0-1.688,1.688v26.3A1.692,1.692,0,0,0,26.7,48.328h3.55V55.31l6.981-6.982H68.705a1.687,1.687,0,0,0,1.686-1.688v-26.3A1.684,1.684,0,0,0,69.9,19.15Z"/><rect class="cls-1" x="37.828" y="24.032" width="21.134" height="1.988"/><rect class="cls-1" x="37.828" y="28.011" width="10.568" height="1.988"/><rect class="cls-1" x="37.825" y="36.49" width="17.051" height="1.988"/><rect class="cls-1" x="37.825" y="40.468" width="8.526" height="1.988"/><path class="cls-1" d="M60.765,27.494l-.037,6.989,6.989.036A6.985,6.985,0,0,0,60.765,27.494Z"/><path class="cls-2" d="M60.728,34.483l.037-6.989a6.985,6.985,0,1,0,4.877,11.947Z"/><path class="cls-9" d="M60.728,34.483l4.914,4.958a6.981,6.981,0,0,0,2.075-4.922Z"/><path class="cls-1" d="M34.992,30.47a3.353,3.353,0,0,1-1.573.362,2.8,2.8,0,0,1-2.891-2.643l-.677-.008-.011-.722.605.008a2.965,2.965,0,0,1-.029-.4,5.382,5.382,0,0,1,.025-.556l-.616-.008-.011-.721.734.009A3.441,3.441,0,0,1,31.6,23.873a2.739,2.739,0,0,1,1.913-.674,3.188,3.188,0,0,1,1.377.306l.013.834a2.7,2.7,0,0,0-1.44-.42,1.717,1.717,0,0,0-1.239.5,2.711,2.711,0,0,0-.743,1.384l2.784.034.011.722-2.907-.036a5.569,5.569,0,0,0,.009.953l2.912.036.011.721L31.475,28.2q.432,1.89,1.989,1.91a3.023,3.023,0,0,0,1.516-.429Z"/><path class="cls-1" d="M34.992,42.556a3.353,3.353,0,0,1-1.573.362,2.8,2.8,0,0,1-2.891-2.643l-.677-.008-.011-.722.605.008a2.965,2.965,0,0,1-.029-.4,5.382,5.382,0,0,1,.025-.556l-.616-.008-.011-.721.734.009A3.441,3.441,0,0,1,31.6,35.959a2.739,2.739,0,0,1,1.913-.674,3.188,3.188,0,0,1,1.377.306l.013.834a2.7,2.7,0,0,0-1.44-.42,1.717,1.717,0,0,0-1.239.5,2.711,2.711,0,0,0-.743,1.384l2.784.034.011.722-2.907-.036a5.569,5.569,0,0,0,.009.953l2.912.036.011.721-2.822-.035q.432,1.89,1.989,1.91a3.023,3.023,0,0,0,1.516-.429Z"/></g></g></svg>