<svg xmlns="http://www.w3.org/2000/svg" xmlns:xlink="http://www.w3.org/1999/xlink" viewBox="0 0 197.07 164.75"><defs><style>.cls-1{fill:#dce2e8;}.cls-2{fill:#bec8d2;}.cls-3{fill:#7f7f7f;}.cls-4{clip-path:url(#clip-path);}.cls-5{opacity:0.42;}.cls-6{fill:#fff;}.cls-7{fill:#e95653;}</style><clipPath id="clip-path"><circle class="cls-1" cx="88.2" cy="92.96" r="65.29"/></clipPath></defs><title>bugsfix</title><g id="Layer_2" data-name="Layer 2"><g id="textos_y_elementos" data-name="textos y elementos"><path class="cls-2" d="M123.09,32.51a30.78,30.78,0,0,1-1,7.9h-68a30.35,30.35,0,0,1-1-7.9C53,14.56,68.7,0,88.05,0S123.09,14.56,123.09,32.51Z"/><path class="cls-3" d="M43.79,70.28A43.83,43.83,0,0,1,0,26.49H5.24A38.6,38.6,0,0,0,43.79,65.05Z"/><path class="cls-3" d="M5.24,154.71H0a43.84,43.84,0,0,1,43.79-43.79v5.24A38.6,38.6,0,0,0,5.24,154.71Z"/><path class="cls-3" d="M168.74,154.71h-5.23A38.6,38.6,0,0,0,125,116.16v-5.24A43.84,43.84,0,0,1,168.74,154.71Z"/><path class="cls-3" d="M126.13,76.17V70.93a38.6,38.6,0,0,0,38.55-38.55h5.24A43.84,43.84,0,0,1,126.13,76.17Z"/><circle class="cls-1" cx="88.2" cy="92.96" r="65.29"/><g class="cls-4"><g class="cls-5"><polygon class="cls-6" points="20.67 138.12 18.87 25.24 82.98 27.95 20.67 138.12"/></g></g><path class="cls-6" d="M88.2,160a1.75,1.75,0,0,1-1.75-1.75V31.2a1.75,1.75,0,1,1,3.49,0v127A1.74,1.74,0,0,1,88.2,160Z"/><path class="cls-7" d="M122.63,70.45a27,27,0,0,1,9.82,26.82l60.66,48.82a10.36,10.36,0,0,1,1.78,14.51l-.13.18a10.38,10.38,0,0,1-14.52,1.79l-59.7-48.07a27,27,0,0,1-41.21-27l22.07,17.23,16.09-20.6L95.42,66.88A27,27,0,0,1,122.63,70.45Z"/></g></g></svg>