<svg xmlns="http://www.w3.org/2000/svg" viewBox="0 0 176.56 187.26"><defs><style>.cls-1{fill:#dce2e8;}.cls-2{fill:none;}.cls-3{fill:#fff;opacity:0.42;}.cls-4{fill:#f08e8c;}.cls-5{fill:#e95653;}</style></defs><title>ergenzung-von-features</title><g id="Layer_2" data-name="Layer 2"><g id="textos_y_elementos" data-name="textos y elementos"><path class="cls-1" d="M148.94,136.08V112.24c0-9.94-8.42-12.17-14.15-7.07-9.5,8.35-24.1,3.88-24.73-11.35.63-15.23,15.23-19.69,24.73-11.34,5.73,5,14.08,2.86,14.08-7.08v-24a13,13,0,0,1,.17-2,12.86,12.86,0,0,0-12.7-10.88H112.18c-9.94,0-12.11-8.29-7.08-14C112.76,15.83,109.65,3,97.34.37a17.62,17.62,0,0,0-7.16,0C77.87,3,74.76,15.83,82.41,24.47c5.1,5.74,2.87,14.09-7.07,14.09H51.69A12.88,12.88,0,0,0,38.82,51.43v24c0,9.94-8.35,12.11-14.09,7.08C15.23,74.13.64,78.59,0,93.82c.64,15.23,15.23,19.7,24.73,11.35,5.74-5.1,14.15-2.87,14.15,7.07v23.84A12.88,12.88,0,0,0,51.76,149H75.4c9.95,0,12.11,8.1,7.08,13.84-8.35,9.37-3.89,23.83,11.28,24.47,15.23-.64,19.69-15,11.34-24.54-5.09-5.73-2.86-13.89,7.08-13.89h23.9a13.18,13.18,0,0,0,13-11.16A11.9,11.9,0,0,1,148.94,136.08Z"/><path class="cls-2" d="M148.94,136.08V112.24c0-9.94-8.42-12.17-14.15-7.07-9.5,8.35-24.1,3.88-24.73-11.35.63-15.23,15.23-19.69,24.73-11.34,5.73,5,14.08,2.86,14.08-7.08v-24a13,13,0,0,1,.17-2,12.86,12.86,0,0,0-12.7-10.88H112.18c-5.58,0-8.71-2.61-9.49-5.92L38.88,123.38v12.7A12.88,12.88,0,0,0,51.76,149H75.4c9.95,0,12.11,8.1,7.08,13.84-8.35,9.36-3.89,23.83,11.28,24.47,15.23-.64,19.69-15,11.34-24.54-5.09-5.73-2.86-13.89,7.08-13.89h23.9a13.18,13.18,0,0,0,13-11.16A11.9,11.9,0,0,1,148.94,136.08Z"/><path class="cls-3" d="M105.1,24.54C112.76,15.83,109.65,3,97.34.37a17.62,17.62,0,0,0-7.16,0C77.87,3,74.76,15.83,82.41,24.47c5.1,5.74,2.87,14.09-7.07,14.09H51.69A12.88,12.88,0,0,0,38.82,51.43v24c0,9.94-8.35,12.11-14.09,7.08C15.23,74.13.64,78.59,0,93.82c.64,15.23,15.23,19.7,24.73,11.35,5.74-5.1,14.15-2.87,14.15,7.07v11.14l63.81-90.74A9.22,9.22,0,0,1,105.1,24.54Z"/><path class="cls-4" d="M137.94,178.19a31.86,31.86,0,0,1-30.55-40.67l4.23,1.23a27.4,27.4,0,0,0,41.48,30.44l2.43,3.67A31.77,31.77,0,0,1,137.94,178.19Z"/><polygon class="cls-4" points="99.32 135.13 118.84 143.89 113.46 129.75 99.32 135.13"/><path class="cls-5" d="M168.48,155.22,164.25,154a27.4,27.4,0,0,0-42.72-29.57l-2.63-3.53a31.8,31.8,0,0,1,49.58,34.32Z"/><polygon class="cls-5" points="176.56 157.61 157.03 148.85 162.42 163 176.56 157.61"/></g></g></svg>