<svg xmlns="http://www.w3.org/2000/svg" xmlns:xlink="http://www.w3.org/1999/xlink" viewBox="0 0 211.71 126.66"><defs><style>.cls-1{fill:#dce2e8;}.cls-2{fill:#fbdddd;}.cls-3{fill:#f9d2d1;}.cls-4{fill:#f08e8c;}.cls-5{fill:#e95653;}.cls-6{clip-path:url(#clip-path);}.cls-7{fill:#ced6dd;}.cls-8{fill:#eff1f4;}.cls-9{fill:#bec8d2;}.cls-10{fill:#f5f7f8;}</style><clipPath id="clip-path"><path class="cls-1" d="M146.09,29.27c-14.56,2-33-6.5-37.91-5.56-4.66.89-23.74,10.29-26,20.41-2,9.3-25.19,26-2.75,26.41,10.47.19,9.41-7.21,14.18-12.83,3.56-4.19,10.72-6,13.11-11,21.44,6.75,37.17,24.41,57.81,31.87a22.46,22.46,0,0,1,15.94-6.37c-6.21-2.85-11.72-30.5-14.05-36.48C160.23,19.7,161.85,27.07,146.09,29.27Z"/></clipPath></defs><title>individuelles support</title><g id="Layer_2" data-name="Layer 2"><g id="textos_y_elementos" data-name="textos y elementos"><path class="cls-2" d="M41.32,39.45c1.67-7.51,2.83-16,8.93-20.71,20.77,14.08,46,19.47,68.14,32.34,11.17,6.51,25.37,12.67,34.9,21.43,7.92,7.28,12.69,23.72-5.89,19,3.37,7.72-6.6,11.61-12.16,11.88,6.53,7.17-5,12.94-10.78,11.6-.84,17.09-55.27-10.65-60.23-13.8-9.44-6-20.91-14.51-26.78-24.35C29.24,63.05,37.86,55.14,41.32,39.45Z"/><path class="cls-3" d="M147.29,91.36c3.37,7.73-6.61,11.62-12.16,11.88,6.52,7.18-5,12.94-10.79,11.61-.24,5.06-5.19,6.19-12.16,5.19a8.7,8.7,0,0,0,3-2.78c.64-1.05,1-2.32,2.08-3a7.51,7.51,0,0,1,2.84-.8,9.35,9.35,0,0,0,7.27-8.16,8.48,8.48,0,0,1,.28-2.08,4.28,4.28,0,0,1,2.53-2.31c1.38-.57,2.9-.75,4.31-1.25a4.89,4.89,0,0,0,3.23-2.88,24.17,24.17,0,0,0,.28-2.84c.41-2.28,2.59-3.78,4.7-4.74s4.43-1.75,5.89-3.54c1.92-2.37,1.75-5.72,2.06-8.76a45.91,45.91,0,0,1,.8-4.64,10.83,10.83,0,0,1,.27-1.09c.48.41.95.82,1.4,1.24C161.1,79.68,165.87,96.12,147.29,91.36Z"/><ellipse class="cls-1" cx="50.28" cy="89.64" rx="10.41" ry="8.75" transform="translate(-52.5 90.7) rotate(-61.3)"/><ellipse class="cls-1" cx="63.32" cy="98.75" rx="10.41" ry="10.46" transform="translate(-53.7 106.87) rotate(-61.3)"/><ellipse class="cls-1" cx="80.75" cy="108.06" rx="12.05" ry="10.46" transform="translate(-52.81 127) rotate(-61.3)"/><ellipse class="cls-1" cx="95.52" cy="116.5" rx="10.46" ry="9.09" transform="translate(-52.53 144.35) rotate(-61.3)"/><rect class="cls-4" x="26.09" y="8.63" width="20.63" height="67.69" rx="5" transform="translate(21.19 -11.36) rotate(24.82)"/><rect class="cls-5" x="14.14" y="-0.99" width="20.63" height="79.68" rx="5" transform="translate(18.57 -6.68) rotate(24.82)"/><path class="cls-1" d="M146.09,29.27c-14.56,2-33-6.5-37.91-5.56-4.66.89-23.74,10.29-26,20.41-2,9.3-25.19,26-2.75,26.41,10.47.19,9.41-7.21,14.18-12.83,3.56-4.19,10.72-6,13.11-11,21.44,6.75,37.17,24.41,57.81,31.87a22.46,22.46,0,0,1,15.94-6.37c-6.21-2.85-11.72-30.5-14.05-36.48C160.23,19.7,161.85,27.07,146.09,29.27Z"/><g class="cls-6"><path class="cls-7" d="M86.48,61.24c20-30.8,46.18-12.94,67.33,5.85,23.76,21.11-6,11.34-19.95,2.41-22-14.1-23.3-17-42.51-1.65C90,69,83.08,85.1,81.1,72.75,80,65.92,82.16,67.89,86.48,61.24Z"/></g><rect class="cls-8" x="165.87" y="13.39" width="20.63" height="67.69" rx="5" transform="translate(357.85 30.79) rotate(159.82)"/><rect class="cls-9" x="179.39" y="3.4" width="20.63" height="79.68" rx="5" transform="translate(382.68 18.39) rotate(159.82)"/><path class="cls-10" d="M95.88,108.21l-2.94,5.7c-.74,1.43.45,3.51,2.66,4.64l.39.21c2.06,1.06,4.28.84,5-.49l3-5.88Z"/><path class="cls-10" d="M80.54,98.77l-2.94,5.7c-.74,1.43.45,3.51,2.66,4.64l.39.21c2.06,1.06,4.28.84,5-.49l3-5.88Z"/><path class="cls-10" d="M63.43,89.33,60.49,95c-.74,1.43.45,3.51,2.66,4.64l.4.21c2,1.06,4.27.84,5-.49l3-5.88Z"/><path class="cls-10" d="M49.57,80.62l-3,5.71c-.73,1.42.46,3.5,2.67,4.64l.39.21c2,1,4.27.84,5-.49l3-5.88Z"/><path class="cls-10" d="M70.57,66.23l5.09-5.8c1.27-1.45,1.52-3.32.56-4.16L76,56.12c-.9-.79-2.58-.34-3.77,1l-5.25,6Z"/></g></g></svg>