<svg xmlns="http://www.w3.org/2000/svg" viewBox="0 0 111.14 130.7"><defs><style>.cls-1{fill:#bec8d2;fill-rule:evenodd;}</style></defs><title>linux-logo</title><g id="Layer_2" data-name="Layer 2"><g id="textos_y_elementos" data-name="textos y elementos"><path class="cls-1" d="M38.59,111.28a4.5,4.5,0,0,0,3.09-7.59c-1.82-1.78-11.83-9.21-14.44-12.13-1.21-1.36-2.86-2-3.55-3.55C22.09,84.5,21,79.5,23,75.91c.36-.65.6-.36.32,1-1.6,7.67,3.4,13.93,4.49,10.72.76-2.22.06-6.19.47-9.34.71-5.58,5.79-16.29,8-16.9-3.44-6.37,4-11.36,3.94-17-.06-3.64,3.2,4.47,6.47,6.19,3.65,1.92,7.67-3.62,13.36-6.43,1.62-.79,3.68-1.71,3.54-2.39-.66-3.27-7.48,4-13.57,4.28-2.78.11-3.81-.54-4.88-1.58-3.24-3.13.33-.52,5.15-1.39a21.29,21.29,0,0,0,5.14-1.66,68.83,68.83,0,0,1,7.45-3c1.79-.49,1.64-1.84,1-2.24-.4-.23-1-.21-1.47.6-1.1,1.91-6.3,3-7.92,3.51A21.06,21.06,0,0,1,47,41.45c-4.65-.19-3.56-2.32-6.89-4.23-1-.55-.71-2,.59-3.32.68-.68,2.53-1.06,3.46-2.6a12.32,12.32,0,0,1,2.25-2.1c.32-.23.35-5.9-2.56-6-2.48-.1-3.18,1.82-3.08,3.73s1.12,3.48,1.79,3.48c1.3,0,.08,1.42-.63,1.65-1.08.35-2.56-4.25-2.39-6.46s1.38-6.38,4.29-6.3c2.63.07,4.53,3.36,4.43,9,0,1,4.26-.46,5.68,1.05,1,1.07-3.49-10,6.55-10.82,2.65.51,5.19,1.39,6.25,7.47-.39.63.66,4.88-1,5.38-2,.62-3.22-.09-2.07-2,.79-1.9,0-6.75-4-6.46s-3.5,7.45-2.4,7.59,3.9,2.12,5.84,2.5c6.38,1.24,1.69,4.9,2.52,9.33.94,5,4.23,3.68,7.19,16.92.62.81,3.07,1.57,5.46,11.75,2.15,9.15-.89,15.81,4.28,15.27a3.75,3.75,0,0,0,3.61-3c1.93-6.78-1-14.86-3.91-20.31a25.52,25.52,0,0,0-4.16-6.09c3.36,2,7.65,8.33,8.65,13,1.3,6.19,2.23,8.8.26,15.35,1.13.56,4,1.77,4,3.11-2.94-2.42-12-2.85-12.2,2.94-1.53,0-2.7.16-3.69,1.34-3.62,4.3-.26,12.94-.62,17.57-.33,4.08-1.46,8.12-2.1,12.22-2.16-.08-1.94-1.66-1.25-3.88.61-2,1.59-4.41,1.66-6.76.06-2.12-.18-3.45-.71-3.78s-1.38.34-2.54,2.21c-2.47,4-7.84,5.74-12.85,6.37s-9.67.13-12.13-2.64c-.84-.94-2.24.26-2.41.51s.82,1,1.6,2.43c1.14,2.1,2.23,5.28-.48,6.73,0-7.38-2.3-7.82-4.69-12.33Zm-1.79-.2c1.79,2.83,8.12,14.73-3,16.27-3.71.52-9.68-2.15-15.47-3.57-5.2-1.27-10.48-2-13.43-2.85-1.78-.5-2.52-1.14-2.68-1.89-.41-2,2.16-4.74,2.29-7.08s-.85-3.55-1.65-5.46-1-3.35-.38-4.17c.51-.63,1.53-.9,3.19-.74a10.9,10.9,0,0,0,6-1c2.3-1.41,3.38-4.28,2.35-7.74,0,3.38-1.11,4.67-3.9,6.22-2.62,1.46-6.67.28-8.54,1.89-2.24,2,.8,7,.56,10.65-.2,2.83-3.15,6-1.83,8.86s7.5,3.17,14,4.52c9.16,1.92,14.5,5.25,18.74,5.41,6.17.23,7.12-6.11,16.81-6.2,2.83-.15,5.6-.23,8.36-.27,3.13,0,6.26,0,9.47.07,6.45.15,4.23,3.52,8.42,5.67,3.53,1.81,9.88,1.1,11.4-.35,2.06-2,7.58-6.68,11.81-8.81,5.27-2.66,17.65-7.23,8.66-12.81-2.09-1.29-7-2.67-7.46-12.17-1.88,1.66-1.66,10.52,3.57,12.28,5.85,2,9.5,5.25-1.37,9-7.19,2.46-8.41,3.22-14.11,8s-14.31,2.89-12.82-7.21c.78-5.26,1.23-9.61-.08-14.18a16.15,16.15,0,0,1-.52-7.11c.85-3.91,3-5.08,5-1.33,1.31,2.35,1.76,5.11,6.42,5.33,7.32.35,8.77-7.07,11.11-7.41,1.56-.23,3.12-4.64,1.93-11.79-1.27-7.65-5.77-19.73-11.54-25.85C83.32,50,80.3,45.58,78.4,39.21a44.49,44.49,0,0,1-2.16-15.55C76.66,17.21,73.08,8.23,67.39,4,63.82,1.36,58.23,0,53.17,0A16.57,16.57,0,0,0,45.6,1.56C37.15,6.15,36,12.7,36.1,20.18c.12,7,.36,15,1.16,22.66-.95,3.51-5.87,10.14-9,14.18C24,61.21,21.87,69.29,19.13,76.36c-1.46,3.76-3.93,5.46-4.13,10.3-.06,1.36,0,4.86,1.28,3.86,4.95-3.83,11.15,5.83,20.52,20.56ZM62.5,9.83c-.26.8-1.36,1.47-.66,2s1.09-.79,2.5-1.29c.36-.13,2,.06,2.36-.75.13-.35-.87-.74-1.47-1.32s-1.19-1.08-1.75-1c-1.45.09-.74,1.67-1,2.37ZM71.11,39c.53-.55.79.95,2.2,1.84,1.12.7,2.2.18,2.48,1.6.2,1-.43,2.13-1.29,2C73,44.14,69.57,40.58,71.11,39ZM47.88,30c-2.32-.17-2.48,1.5-1.71,1.48s.3-1.33,1.71-1.48Zm-4-4.28c.27-.06.66.41.54,1.06-.17.91-.1,1.48.53,1.48.11,0,.22,0,.26-.25a3.24,3.24,0,0,0-1-3.24c-.89-.22-.78,1.05-.31,1Zm16.86-.76c.59.17,1.15,1.19,1.28,2.29,0,.1.76-.16.77-.4A2.46,2.46,0,0,0,61,24.26c-.91.08-.65.53-.19.67Zm-8.64,5.26c2.1-1,2.84.53,2.11.78s-.75-1.14-2.11-.78ZM26.68,66.08c-1-.12.29-.87.84-1.81s.48-2.33,1.11-2.14.28.92-.15,2.1c-.37,1-1.43,1.89-1.8,1.85Z"/></g></g></svg>