<svg xmlns="http://www.w3.org/2000/svg" xmlns:xlink="http://www.w3.org/1999/xlink" viewBox="0 0 239.57 190.29"><defs><style>.cls-1,.cls-3{fill:#f08e8c;}.cls-1,.cls-6{stroke:#e95653;stroke-miterlimit:10;stroke-width:2.92px;}.cls-2{fill:#dee3e8;}.cls-4{clip-path:url(#clip-path);}.cls-5{fill:#f9d2d1;}.cls-6{fill:none;}.cls-7{clip-path:url(#clip-path-2);}.cls-8{fill:#fff;opacity:0.42;}.cls-9{clip-path:url(#clip-path-3);}.cls-10{clip-path:url(#clip-path-4);}.cls-11{clip-path:url(#clip-path-5);}.cls-12{clip-path:url(#clip-path-6);}.cls-13{clip-path:url(#clip-path-7);}</style><clipPath id="clip-path"><rect class="cls-1" x="43.99" y="1.46" width="160.83" height="86.37" rx="4.21"/></clipPath><clipPath id="clip-path-2"><path class="cls-2" d="M239.57,163.19s-17.61,16-56.06,16c-35.19,0-46.4-17.62-46.4-17.62s9.63-56.68,51.25-56.68C226.79,104.9,239.57,163.19,239.57,163.19Z"/></clipPath><clipPath id="clip-path-3"><path class="cls-2" d="M211.86,71.21c0,14.8-11.5,25.36-23.91,25.36S164,86,164,71.21,175.55,44.4,188,44.4,211.86,56.4,211.86,71.21Z"/></clipPath><clipPath id="clip-path-4"><path class="cls-2" d="M103.7,168.73s-17.61,16-56.07,16c-35.19,0-46.4-17.61-46.4-17.61s9.63-56.68,51.26-56.68C90.91,110.45,103.7,168.73,103.7,168.73Z"/></clipPath><clipPath id="clip-path-5"><path class="cls-2" d="M76,76.75c0,14.81-11.51,25.36-23.91,25.36S28.16,91.56,28.16,76.75,39.67,49.94,52.08,49.94,76,62,76,76.75Z"/></clipPath><clipPath id="clip-path-6"><path class="cls-2" d="M173,174.28s-17.61,16-56.07,16c-35.18,0-46.39-17.61-46.39-17.61S80.19,116,121.81,116C160.24,116,173,174.28,173,174.28Z"/></clipPath><clipPath id="clip-path-7"><path class="cls-2" d="M145.31,82.3c0,14.81-11.5,25.36-23.91,25.36S97.49,97.11,97.49,82.3,109,55.49,121.4,55.49,145.31,67.49,145.31,82.3Z"/></clipPath></defs><title>schulung</title><g id="Layer_2" data-name="Layer 2"><g id="textos_y_elementos" data-name="textos y elementos"><rect class="cls-3" x="43.99" y="1.46" width="160.83" height="86.37" rx="4.21"/><g class="cls-4"><polygon class="cls-5" points="43.24 64.75 42.87 0.38 113.61 1.09 43.24 64.75"/></g><rect class="cls-6" x="43.99" y="1.46" width="160.83" height="86.37" rx="4.21"/><path class="cls-2" d="M239.57,163.19s-17.61,16-56.06,16c-35.19,0-46.4-17.62-46.4-17.62s9.63-56.68,51.25-56.68C226.79,104.9,239.57,163.19,239.57,163.19Z"/><g class="cls-7"><polygon class="cls-8" points="197.09 81.52 140.19 123.85 135.88 164.98 197.09 81.52"/></g><path class="cls-2" d="M211.86,71.21c0,14.8-11.5,25.36-23.91,25.36S164,86,164,71.21,175.55,44.4,188,44.4,211.86,56.4,211.86,71.21Z"/><g class="cls-9"><polygon class="cls-8" points="190.81 41.02 161.76 50.79 162.05 88.18 190.81 41.02"/></g><path class="cls-2" d="M103.7,168.73s-17.61,16-56.07,16c-35.19,0-46.4-17.61-46.4-17.61s9.63-56.68,51.26-56.68C90.91,110.45,103.7,168.73,103.7,168.73Z"/><g class="cls-10"><polygon class="cls-8" points="61.21 87.06 4.31 129.39 0 170.52 61.21 87.06"/></g><path class="cls-2" d="M76,76.75c0,14.81-11.51,25.36-23.91,25.36S28.16,91.56,28.16,76.75,39.67,49.94,52.08,49.94,76,62,76,76.75Z"/><g class="cls-11"><polygon class="cls-8" points="54.93 46.56 25.89 56.34 26.17 93.73 54.93 46.56"/></g><path class="cls-2" d="M173,174.28s-17.61,16-56.07,16c-35.18,0-46.39-17.61-46.39-17.61S80.19,116,121.81,116C160.24,116,173,174.28,173,174.28Z"/><g class="cls-12"><polygon class="cls-8" points="130.54 92.61 73.64 134.94 69.33 176.07 130.54 92.61"/></g><path class="cls-2" d="M145.31,82.3c0,14.81-11.5,25.36-23.91,25.36S97.49,97.11,97.49,82.3,109,55.49,121.4,55.49,145.31,67.49,145.31,82.3Z"/><g class="cls-13"><polygon class="cls-8" points="124.26 52.11 95.21 61.89 95.5 99.28 124.26 52.11"/></g></g></g></svg>