<svg xmlns="http://www.w3.org/2000/svg" viewBox="0 0 221.42 36.52"><defs><style>.cls-1{fill:#f0c32d;}</style></defs><title>sterne</title><g id="Layer_2" data-name="Layer 2"><g id="textos_y_elementos" data-name="textos y elementos"><polygon class="cls-1" points="19.2 0 25.13 12.02 38.4 13.95 28.8 23.3 31.06 36.52 19.2 30.28 7.33 36.52 9.6 23.3 0 13.95 13.27 12.02 19.2 0"/><polygon class="cls-1" points="64.95 0 70.89 12.02 84.15 13.95 74.55 23.3 76.82 36.52 64.95 30.28 53.09 36.52 55.35 23.3 45.76 13.95 59.02 12.02 64.95 0"/><polygon class="cls-1" points="110.71 0 116.64 12.02 129.91 13.95 120.31 23.3 122.57 36.52 110.71 30.28 98.84 36.52 101.11 23.3 91.51 13.95 104.78 12.02 110.71 0"/><polygon class="cls-1" points="156.47 0 162.4 12.02 175.66 13.95 166.06 23.3 168.33 36.52 156.47 30.28 144.6 36.52 146.87 23.3 137.27 13.95 150.53 12.02 156.47 0"/><polygon class="cls-1" points="202.22 0 208.15 12.02 221.42 13.95 211.82 23.3 214.09 36.52 202.22 30.28 190.36 36.52 192.62 23.3 183.03 13.95 196.29 12.02 202.22 0"/></g></g></svg>